Project Version="3.1.1" TempoMode="FamiStudio" Name="Macro" Author="ipi" Copyright="25/04/2015" Expansion="MMC5"
	Instrument Name="Duty 0"
	Instrument Name="Duty 1"
		Envelope Type="DutyCycle" Length="1" Values="1"
	Instrument Name="Duty 2"
		Envelope Type="DutyCycle" Length="1" Values="2"
	Song Name="Song 1" Length="13" LoopPoint="0" PatternLength="32" BeatLength="4" NoteLength="8" Groove="8" GroovePaddingMode="Middle"
		Channel Type="Square1"
			Pattern Name="Pattern 1"
				Note Time="0" Value="D#3" Duration="4" Instrument="Duty 2" Volume="7"
				Note Time="3" Volume="8"
				Note Time="4" Value="D#3" Duration="38" Instrument="Duty 0"
				Note Time="8" Volume="9"
				Note Time="21" Volume="8"
				Note Time="22" FinePitch="-2"
				Note Time="23" FinePitch="-3"
				Note Time="24" FinePitch="-5"
				Note Time="25" FinePitch="-6"
				Note Time="26" Volume="9" FinePitch="-7"
				Note Time="27" FinePitch="-8"
				Note Time="28" FinePitch="-9"
				Note Time="31" FinePitch="-8"
				Note Time="32" Volume="7" FinePitch="-7"
				Note Time="33" FinePitch="-6"
				Note Time="34" Volume="6" FinePitch="-5"
				Note Time="35" FinePitch="-3"
				Note Time="36" Volume="5" FinePitch="-2"
				Note Time="37" Volume="4" FinePitch="0"
				Note Time="38" FinePitch="2"
				Note Time="39" Volume="3" FinePitch="3"
				Note Time="40" FinePitch="5"
				Note Time="41" Volume="2" FinePitch="6"
				Note Time="42" Value="A3" Duration="4" Instrument="Duty 2" Volume="10" FinePitch="0"
				Note Time="45" FinePitch="-1"
				Note Time="46" Value="A3" Duration="6" Instrument="Duty 0" FinePitch="-2"
				Note Time="47" FinePitch="-3"
				Note Time="48" Volume="9" FinePitch="-4"
				Note Time="49" FinePitch="-5"
				Note Time="50" FinePitch="-6"
				Note Time="51" FinePitch="-7"
				Note Time="52" Value="A#3" Duration="17" Instrument="Duty 0" Volume="8" FinePitch="6"
				Note Time="53" FinePitch="5"
				Note Time="54" FinePitch="4"
				Note Time="55" Volume="9" FinePitch="3"
				Note Time="56" FinePitch="2"
				Note Time="57" FinePitch="1"
				Note Time="58" FinePitch="0"
				Note Time="63" Volume="8"
				Note Time="64" FinePitch="-2"
				Note Time="65" FinePitch="-3"
				Note Time="66" FinePitch="-5"
				Note Time="67" FinePitch="-6"
				Note Time="68" Volume="9" FinePitch="-7"
				Note Time="69" Value="B3" Duration="5" Instrument="Duty 0" FinePitch="6"
				Note Time="70" FinePitch="5"
				Note Time="73" Volume="7" FinePitch="6"
				Note Time="74" Value="A#3" Duration="9" Instrument="Duty 0" FinePitch="-7"
				Note Time="75" Volume="6" FinePitch="-6"
				Note Time="76" FinePitch="-5"
				Note Time="77" Volume="5" FinePitch="-3"
				Note Time="78" Volume="4" FinePitch="-2"
				Note Time="79" FinePitch="0"
				Note Time="80" Volume="3" FinePitch="2"
				Note Time="81" FinePitch="3"
				Note Time="82" Volume="2" FinePitch="5"
				Note Time="83" Value="A3" Duration="4" Instrument="Duty 2" Volume="9" FinePitch="0"
				Note Time="86" Volume="10"
				Note Time="87" Value="A3" Duration="23" Instrument="Duty 0"
				Note Time="89" Volume="9"
				Note Time="104" Volume="8"
				Note Time="105" FinePitch="-2"
				Note Time="106" FinePitch="-3"
				Note Time="107" FinePitch="-5"
				Note Time="108" FinePitch="-6"
				Note Time="109" Volume="9" FinePitch="-7"
				Note Time="110" Value="A#3" Duration="5" Instrument="Duty 0" FinePitch="6"
				Note Time="111" FinePitch="5"
				Note Time="114" Volume="7" FinePitch="6"
				Note Time="115" Value="A3" Duration="10" Instrument="Duty 0" FinePitch="-7"
				Note Time="116" Volume="6" FinePitch="-6"
				Note Time="117" FinePitch="-5"
				Note Time="118" Volume="5" FinePitch="-3"
				Note Time="119" Volume="4" FinePitch="-2"
				Note Time="120" FinePitch="0"
				Note Time="121" Volume="3" FinePitch="2"
				Note Time="122" FinePitch="3"
				Note Time="123" Volume="2" FinePitch="5"
				Note Time="124" FinePitch="6"
				Note Time="125" Value="F3" Duration="4" Instrument="Duty 2" Volume="10" FinePitch="0"
				Note Time="129" Value="F3" Duration="14" Instrument="Duty 0"
				Note Time="131" Volume="9"
				Note Time="135" Volume="8"
				Note Time="138" Volume="9"
				Note Time="143" Value="A3" Duration="2" Instrument="Duty 0" Volume="4"
				Note Time="145" Value="F#3" Duration="4" Instrument="Duty 2" Volume="9"
				Note Time="149" Value="F#3" Duration="7" Instrument="Duty 0"
				Note Time="156" Value="F3" Duration="10" Instrument="Duty 0" Volume="4"
				Note Time="162" Volume="3"
				Note Time="166" Value="G#3" Duration="4" Instrument="Duty 2" Volume="9"
				Note Time="169" Volume="10"
				Note Time="170" Value="G#3" Duration="13" Instrument="Duty 0"
				Note Time="172" Volume="9"
				Note Time="178" FinePitch="-2"
				Note Time="179" FinePitch="-3"
				Note Time="180" FinePitch="-5"
				Note Time="181" FinePitch="-6"
				Note Time="182" FinePitch="-7"
				Note Time="183" Value="A3" Duration="1" Instrument="Duty 0" FinePitch="7"
				Note Time="184" Value="F#3" Duration="3" Instrument="Duty 0" Volume="4" FinePitch="0"
				Note Time="187" Value="F#3" Duration="4" Instrument="Duty 2" Volume="9"
				Note Time="191" Value="F#3" Duration="9" Instrument="Duty 0"
				Note Time="192" Volume="10"
				Note Time="193" Volume="9"
				Note Time="200" Value="G#3" Duration="8" Instrument="Duty 0" Volume="4"
				Note Time="206" Volume="3"
				Note Time="208" Value="F3" Duration="4" Instrument="Duty 2" Volume="10"
				Note Time="212" Value="F3" Duration="14" Instrument="Duty 0"
				Note Time="214" Volume="9"
				Note Time="218" Volume="8"
				Note Time="219" FinePitch="-2"
				Note Time="220" FinePitch="-3"
				Note Time="221" Volume="9" FinePitch="-5"
				Note Time="222" FinePitch="-6"
				Note Time="223" FinePitch="-7"
				Note Time="224" FinePitch="-8"
				Note Time="225" FinePitch="-9"
				Note Time="226" Value="F#3" Duration="2" Instrument="Duty 0" Volume="4" FinePitch="0"
				Note Time="228" Value="D#3" Duration="4" Instrument="Duty 2" Volume="9"
				Note Time="232" Value="D#3" Duration="9" Instrument="Duty 0"
				Note Time="241" Value="F3" Duration="8" Instrument="Duty 0" Volume="4"
				Note Time="247" Volume="3"
				Note Time="249" Value="F3" Duration="4" Instrument="Duty 2" Volume="9"
				Note Time="252" Volume="10"
				Note Time="253" Value="F3" Duration="37" Instrument="Duty 0"
				Note Time="255" Volume="9"
			Pattern Name="Pattern 2"
				Note Time="14" Volume="8"
				Note Time="15" FinePitch="-2"
				Note Time="16" FinePitch="-3"
				Note Time="17" FinePitch="-5"
				Note Time="18" FinePitch="-6"
				Note Time="19" Volume="9" FinePitch="-7"
				Note Time="20" FinePitch="-8"
				Note Time="21" FinePitch="-9"
				Note Time="24" FinePitch="-8"
				Note Time="25" Volume="8" FinePitch="-7"
				Note Time="26" FinePitch="-6"
				Note Time="27" FinePitch="-5"
				Note Time="28" FinePitch="-3"
				Note Time="29" FinePitch="-2"
				Note Time="30" FinePitch="0"
				Note Time="31" FinePitch="2"
				Note Time="32" FinePitch="3"
				Note Time="33" FinePitch="5"
				Note Time="34" Value="D3" Duration="4" Instrument="Duty 2" Volume="10" FinePitch="0"
				Note Time="38" Value="D3" Duration="12" Instrument="Duty 0"
				Note Time="40" Volume="9"
				Note Time="45" Volume="8"
				Note Time="46" FinePitch="-3"
				Note Time="47" Volume="9" FinePitch="-5"
				Note Time="48" FinePitch="-7"
				Note Time="49" FinePitch="-9"
				Note Time="50" Value="D#3" Duration="7" Instrument="Duty 0" FinePitch="10"
				Note Time="51" FinePitch="9"
				Note Time="52" FinePitch="8"
				Note Time="55" Volume="8" FinePitch="9"
				Note Time="56" FinePitch="10"
				Note Time="57" Value="D3" Duration="10" Instrument="Duty 0" FinePitch="-9"
				Note Time="58" FinePitch="-7"
				Note Time="59" FinePitch="-5"
				Note Time="60" Volume="9" FinePitch="-3"
				Note Time="61" FinePitch="0"
				Note Time="62" FinePitch="3"
				Note Time="63" FinePitch="5"
				Note Time="64" FinePitch="7"
				Note Time="65" FinePitch="9"
				Note Time="66" Volume="8" FinePitch="11"
				Note Time="67" Value="C#3" Duration="5" Instrument="Duty 0" FinePitch="-11"
				Note Time="68" FinePitch="-10"
				Note Time="71" Volume="7" FinePitch="-11"
				Note Time="72" Value="D3" Duration="4" Instrument="Duty 0" FinePitch="11"
				Note Time="73" Volume="6" FinePitch="9"
				Note Time="74" FinePitch="7"
				Note Time="75" Volume="5" FinePitch="5"
				Note Time="76" Value="D#3" Duration="4" Instrument="Duty 2" Volume="9" FinePitch="0"
				Note Time="78" Volume="10"
				Note Time="80" Value="D#3" Duration="37" Instrument="Duty 0"
				Note Time="82" Volume="9"
				Note Time="97" Volume="8"
				Note Time="98" FinePitch="-2"
				Note Time="99" FinePitch="-3"
				Note Time="100" FinePitch="-5"
				Note Time="101" FinePitch="-6"
				Note Time="102" Volume="9" FinePitch="-7"
				Note Time="103" FinePitch="-8"
				Note Time="104" FinePitch="-9"
				Note Time="107" Volume="7" FinePitch="-8"
				Note Time="108" FinePitch="-7"
				Note Time="109" Volume="6" FinePitch="-6"
				Note Time="110" FinePitch="-5"
				Note Time="111" Volume="5" FinePitch="-3"
				Note Time="112" Volume="4" FinePitch="-2"
				Note Time="113" FinePitch="0"
				Note Time="114" Volume="3" FinePitch="2"
				Note Time="115" FinePitch="3"
				Note Time="116" Volume="2" FinePitch="5"
				Note Time="117" Value="A3" Duration="4" Instrument="Duty 2" Volume="10" FinePitch="0"
				Note Time="120" FinePitch="-1"
				Note Time="121" Value="A3" Duration="6" Instrument="Duty 0" FinePitch="-2"
				Note Time="122" FinePitch="-3"
				Note Time="123" Volume="9" FinePitch="-4"
				Note Time="124" FinePitch="-5"
				Note Time="125" FinePitch="-6"
				Note Time="126" FinePitch="-7"
				Note Time="127" Value="A#3" Duration="17" Instrument="Duty 0" FinePitch="6"
				Note Time="128" Volume="8" FinePitch="5"
				Note Time="129" FinePitch="4"
				Note Time="130" Volume="9" FinePitch="3"
				Note Time="131" FinePitch="2"
				Note Time="132" FinePitch="1"
				Note Time="133" FinePitch="0"
				Note Time="138" Volume="8"
				Note Time="139" FinePitch="-2"
				Note Time="140" FinePitch="-3"
				Note Time="141" FinePitch="-5"
				Note Time="142" FinePitch="-6"
				Note Time="143" Volume="9" FinePitch="-7"
				Note Time="144" Value="B3" Duration="5" Instrument="Duty 0" FinePitch="6"
				Note Time="145" FinePitch="5"
				Note Time="148" Volume="7" FinePitch="6"
				Note Time="149" Value="A#3" Duration="10" Instrument="Duty 0" FinePitch="-7"
				Note Time="150" Volume="6" FinePitch="-6"
				Note Time="151" FinePitch="-5"
				Note Time="152" Volume="5" FinePitch="-3"
				Note Time="153" Volume="4" FinePitch="-2"
				Note Time="154" FinePitch="0"
				Note Time="155" Volume="3" FinePitch="2"
				Note Time="156" FinePitch="3"
				Note Time="157" Volume="2" FinePitch="5"
				Note Time="158" FinePitch="6"
				Note Time="159" Value="A3" Duration="4" Instrument="Duty 2" Volume="9" FinePitch="0"
				Note Time="161" Volume="10"
				Note Time="163" Value="A3" Duration="22" Instrument="Duty 0"
				Note Time="165" Volume="9"
				Note Time="179" Volume="8"
				Note Time="180" FinePitch="-2"
				Note Time="181" FinePitch="-3"
				Note Time="182" FinePitch="-5"
				Note Time="183" FinePitch="-6"
				Note Time="184" FinePitch="-7"
				Note Time="185" Value="A#3" Duration="5" Instrument="Duty 0" Volume="9" FinePitch="6"
				Note Time="186" FinePitch="5"
				Note Time="189" FinePitch="6"
				Note Time="190" Value="A3" Duration="10" Instrument="Duty 0" Volume="7" FinePitch="-7"
				Note Time="191" FinePitch="-6"
				Note Time="192" Volume="6" FinePitch="-5"
				Note Time="193" FinePitch="-3"
				Note Time="194" Volume="5" FinePitch="-2"
				Note Time="195" Volume="4" FinePitch="0"
				Note Time="196" FinePitch="2"
				Note Time="197" Volume="3" FinePitch="3"
				Note Time="198" FinePitch="5"
				Note Time="199" Volume="2" FinePitch="6"
				Note Time="200" Value="D#3" Duration="4" Instrument="Duty 2" Volume="10" FinePitch="0"
				Note Time="204" Value="D#3" Duration="14" Instrument="Duty 0"
				Note Time="206" Volume="9"
				Note Time="211" Volume="8"
				Note Time="213" Volume="9"
				Note Time="218" Value="A3" Duration="3" Instrument="Duty 0" Volume="4"
				Note Time="221" Value="F#3" Duration="4" Instrument="Duty 2" Volume="9"
				Note Time="225" Value="F#3" Duration="6" Instrument="Duty 0"
				Note Time="226" Volume="10"
				Note Time="227" Volume="9"
				Note Time="231" Value="D#3" Duration="11" Instrument="Duty 0" Volume="4"
				Note Time="237" Volume="3"
				Note Time="242" Value="G#3" Duration="4" Instrument="Duty 2" Volume="9"
				Note Time="244" Volume="10"
				Note Time="246" Value="G#3" Duration="12" Instrument="Duty 0"
				Note Time="248" Volume="9"
				Note Time="253" FinePitch="-2"
				Note Time="254" FinePitch="-3"
				Note Time="255" FinePitch="-5"
			Pattern Name="Pattern 3"
				Note Time="0" FinePitch="-6"
				Note Time="1" FinePitch="-7"
				Note Time="2" Value="A3" Duration="2" Instrument="Duty 0" FinePitch="7"
				Note Time="3" FinePitch="6"
				Note Time="4" Value="D#3" Duration="2" Instrument="Duty 0" Volume="4" FinePitch="-9"
				Note Time="6" Value="F#3" Duration="4" Instrument="Duty 2" Volume="9" FinePitch="0"
				Note Time="10" Value="F#3" Duration="3" Instrument="Duty 0"
				Note Time="12" FinePitch="-5"
				Note Time="13" Value="G3" Duration="4" Instrument="Duty 0" FinePitch="8"
				Note Time="14" FinePitch="3"
				Note Time="15" FinePitch="-1"
				Note Time="16" FinePitch="-6"
				Note Time="17" Value="G#3" Duration="4" Instrument="Duty 0" FinePitch="6"
				Note Time="18" FinePitch="1"
				Note Time="19" FinePitch="3"
				Note Time="20" FinePitch="7"
				Note Time="21" Value="G3" Duration="3" Instrument="Duty 0" FinePitch="-6"
				Note Time="22" FinePitch="-2"
				Note Time="23" FinePitch="0"
				Note Time="24" Value="G#3" Duration="3" Instrument="Duty 0" Volume="4"
				Note Time="27" Value="F3" Duration="4" Instrument="Duty 2" Volume="10"
				Note Time="31" Value="F3" Duration="14" Instrument="Duty 0"
				Note Time="33" Volume="9"
				Note Time="37" Volume="8"
				Note Time="38" FinePitch="-2"
				Note Time="39" FinePitch="-3"
				Note Time="40" Volume="9" FinePitch="-5"
				Note Time="41" FinePitch="-6"
				Note Time="42" FinePitch="-7"
				Note Time="43" FinePitch="-8"
				Note Time="44" FinePitch="-9"
				Note Time="45" Value="G3" Duration="2" Instrument="Duty 0" Volume="4" FinePitch="8"
				Note Time="47" Value="F#3" Duration="1" Instrument="Duty 0" FinePitch="-8"
				Note Time="48" Value="F#3" Duration="4" Instrument="Duty 2" Volume="9" FinePitch="0"
				Note Time="52" Value="F#3" Duration="9" Instrument="Duty 0"
				Note Time="53" Volume="10"
				Note Time="54" Volume="9"
				Note Time="61" Value="F3" Duration="7" Instrument="Duty 0" Volume="4"
				Note Time="67" Volume="3"
				Note Time="68" Value="G#3" Duration="4" Instrument="Duty 2" Volume="9"
				Note Time="71" Volume="10"
				Note Time="72" Value="G#3" Duration="23" Instrument="Duty 0"
				Note Time="74" Volume="9"
				Note Time="89" Volume="8"
				Note Time="90" FinePitch="-2"
				Note Time="91" FinePitch="-3"
				Note Time="92" FinePitch="-5"
				Note Time="93" FinePitch="-6"
				Note Time="94" Volume="9" FinePitch="-7"
				Note Time="95" Value="A3" Duration="5" Instrument="Duty 0" FinePitch="7"
				Note Time="96" FinePitch="6"
				Note Time="99" FinePitch="7"
				Note Time="100" Value="G#3" Duration="10" Instrument="Duty 0" Volume="8" FinePitch="-7"
				Note Time="101" FinePitch="-6"
				Note Time="102" FinePitch="0"
				Note Time="110" Value="A#3" Duration="4" Instrument="Duty 2" Volume="10"
				Note Time="114" Value="A#3" Duration="10" Instrument="Duty 0"
				Note Time="116" Volume="9"
				Note Time="120" Volume="8"
				Note Time="121" FinePitch="-3"
				Note Time="122" FinePitch="-5"
				Note Time="123" Volume="9" FinePitch="-7"
				Note Time="124" Value="B3" Duration="9" Instrument="Duty 0" FinePitch="5"
				Note Time="125" FinePitch="3"
				Note Time="126" FinePitch="2"
				Note Time="127" FinePitch="1"
				Note Time="130" FinePitch="2"
				Note Time="131" Volume="8" FinePitch="3"
				Note Time="132" FinePitch="5"
				Note Time="133" Value="A#3" Duration="6" Instrument="Duty 0" FinePitch="-7"
				Note Time="134" FinePitch="-5"
				Note Time="135" FinePitch="-3"
				Note Time="136" Volume="9" FinePitch="0"
				Note Time="137" FinePitch="3"
				Note Time="138" FinePitch="5"
				Note Time="139" Value="A3" Duration="11" Instrument="Duty 0" FinePitch="-7"
				Note Time="140" FinePitch="-5"
				Note Time="141" FinePitch="-3"
				Note Time="142" Volume="8" FinePitch="-2"
				Note Time="143" FinePitch="-1"
				Note Time="146" Volume="7" FinePitch="-2"
				Note Time="147" FinePitch="-3"
				Note Time="148" Volume="6" FinePitch="-5"
				Note Time="149" FinePitch="-7"
				Note Time="150" Value="A#3" Duration="1" Instrument="Duty 0" Volume="5" FinePitch="5"
				Note Time="151" Value="D#3" Duration="4" Instrument="Duty 2" Volume="7" FinePitch="0"
				Note Time="154" Volume="8"
				Note Time="155" Value="D#3" Duration="38" Instrument="Duty 0"
				Note Time="156" Volume="9"
				Note Time="157" Volume="8"
				Note Time="159" Volume="9"
				Note Time="172" Volume="8"
				Note Time="173" FinePitch="-2"
				Note Time="174" FinePitch="-3"
				Note Time="175" FinePitch="-5"
				Note Time="176" FinePitch="-6"
				Note Time="177" Volume="9" FinePitch="-7"
				Note Time="178" FinePitch="-8"
				Note Time="179" FinePitch="-9"
				Note Time="182" Volume="7" FinePitch="-8"
				Note Time="183" FinePitch="-7"
				Note Time="184" Volume="6" FinePitch="-6"
				Note Time="185" FinePitch="-5"
				Note Time="186" Volume="5" FinePitch="-3"
				Note Time="187" Volume="4" FinePitch="-2"
				Note Time="188" FinePitch="0"
				Note Time="189" Volume="3" FinePitch="2"
				Note Time="190" FinePitch="3"
				Note Time="191" Volume="2" FinePitch="5"
				Note Time="192" FinePitch="6"
				Note Time="193" Value="A3" Duration="4" Instrument="Duty 2" Volume="10" FinePitch="0"
				Note Time="195" FinePitch="-1"
				Note Time="196" FinePitch="-2"
				Note Time="197" Value="A3" Duration="5" Instrument="Duty 0" FinePitch="-3"
				Note Time="198" FinePitch="-4"
				Note Time="199" Volume="9" FinePitch="-5"
				Note Time="200" FinePitch="-6"
				Note Time="201" FinePitch="-7"
				Note Time="202" Value="A#3" Duration="17" Instrument="Duty 0" FinePitch="6"
				Note Time="203" Volume="8" FinePitch="5"
				Note Time="204" FinePitch="4"
				Note Time="205" FinePitch="3"
				Note Time="206" Volume="9" FinePitch="2"
				Note Time="207" FinePitch="1"
				Note Time="208" FinePitch="0"
				Note Time="213" Volume="8"
				Note Time="214" FinePitch="-2"
				Note Time="215" FinePitch="-3"
				Note Time="216" FinePitch="-5"
				Note Time="217" FinePitch="-6"
				Note Time="218" FinePitch="-7"
				Note Time="219" Value="B3" Duration="5" Instrument="Duty 0" Volume="9" FinePitch="6"
				Note Time="220" FinePitch="5"
				Note Time="223" FinePitch="6"
				Note Time="224" Value="A#3" Duration="10" Instrument="Duty 0" Volume="7" FinePitch="-7"
				Note Time="225" FinePitch="-6"
				Note Time="226" Volume="6" FinePitch="-5"
				Note Time="227" FinePitch="-3"
				Note Time="228" Volume="5" FinePitch="-2"
				Note Time="229" Volume="4" FinePitch="0"
				Note Time="230" FinePitch="2"
				Note Time="231" Volume="3" FinePitch="3"
				Note Time="232" FinePitch="5"
				Note Time="233" Volume="2" FinePitch="6"
				Note Time="234" Value="A3" Duration="4" Instrument="Duty 2" Volume="9" FinePitch="0"
				Note Time="237" Volume="10"
				Note Time="238" Value="A3" Duration="23" Instrument="Duty 0"
				Note Time="240" Volume="9"
				Note Time="255" Volume="8"
			Pattern Name="Pattern 4"
				Note Time="0" FinePitch="-2"
				Note Time="1" FinePitch="-3"
				Note Time="2" FinePitch="-5"
				Note Time="3" FinePitch="-6"
				Note Time="4" Volume="9" FinePitch="-7"
				Note Time="5" Value="A#3" Duration="5" Instrument="Duty 0" FinePitch="6"
				Note Time="6" FinePitch="5"
				Note Time="9" Volume="7" FinePitch="6"
				Note Time="10" Value="A3" Duration="10" Instrument="Duty 0" FinePitch="-7"
				Note Time="11" Volume="6" FinePitch="-6"
				Note Time="12" FinePitch="-5"
				Note Time="13" Volume="5" FinePitch="-3"
				Note Time="14" Volume="4" FinePitch="-2"
				Note Time="15" FinePitch="0"
				Note Time="16" Volume="3" FinePitch="2"
				Note Time="17" FinePitch="3"
				Note Time="18" Volume="2" FinePitch="5"
				Note Time="19" FinePitch="6"
				Note Time="20" Value="F3" Duration="4" Instrument="Duty 2" Volume="10" FinePitch="0"
				Note Time="24" Value="F3" Duration="14" Instrument="Duty 0"
				Note Time="26" Volume="9"
				Note Time="30" Volume="8"
				Note Time="33" Volume="9"
				Note Time="38" Value="A3" Duration="2" Instrument="Duty 0" Volume="4"
				Note Time="40" Value="F#3" Duration="4" Instrument="Duty 2" Volume="9"
				Note Time="44" Value="F#3" Duration="7" Instrument="Duty 0"
				Note Time="45" Volume="10"
				Note Time="46" Volume="9"
				Note Time="51" Value="F3" Duration="10" Instrument="Duty 0" Volume="4"
				Note Time="57" Volume="3"
				Note Time="61" Value="G#3" Duration="4" Instrument="Duty 2" Volume="9"
				Note Time="64" Volume="10"
				Note Time="65" Value="G#3" Duration="23" Instrument="Duty 0"
				Note Time="67" Volume="9"
				Note Time="82" Volume="8"
				Note Time="83" FinePitch="-2"
				Note Time="84" FinePitch="-3"
				Note Time="85" FinePitch="-5"
				Note Time="86" FinePitch="-6"
				Note Time="87" Volume="9" FinePitch="-7"
				Note Time="88" Value="A3" Duration="5" Instrument="Duty 0" FinePitch="7"
				Note Time="89" FinePitch="6"
				Note Time="92" Volume="7" FinePitch="7"
				Note Time="93" Value="G#3" Duration="9" Instrument="Duty 0" FinePitch="-7"
				Note Time="94" Volume="6" FinePitch="-6"
				Note Time="95" FinePitch="-5"
				Note Time="96" Volume="5" FinePitch="-3"
				Note Time="97" Volume="4" FinePitch="-2"
				Note Time="98" FinePitch="0"
				Note Time="99" Volume="3" FinePitch="2"
				Note Time="100" FinePitch="3"
				Note Time="101" Volume="2" FinePitch="5"
				Note Time="102" Value="D4" Duration="4" Instrument="Duty 2" Volume="10" FinePitch="0"
				Note Time="105" FinePitch="-1"
				Note Time="106" Value="D4" Duration="4" Instrument="Duty 0" FinePitch="-2"
				Note Time="107" FinePitch="-3"
				Note Time="108" Volume="9" FinePitch="-4"
				Note Time="109" FinePitch="-5"
				Note Time="110" Value="D#4" Duration="17" Instrument="Duty 0" FinePitch="4"
				Note Time="111" FinePitch="3"
				Note Time="112" FinePitch="2"
				Note Time="113" Volume="8" FinePitch="1"
				Note Time="114" FinePitch="0"
				Note Time="115" Volume="9"
				Note Time="123" Volume="8"
				Note Time="124" FinePitch="-2"
				Note Time="125" FinePitch="-3"
				Note Time="126" FinePitch="-5"
				Note Time="127" Value="E4" Duration="9" Instrument="Duty 0" FinePitch="4"
				Note Time="128" Volume="9" FinePitch="3"
				Note Time="129" FinePitch="2"
				Note Time="130" FinePitch="1"
				Note Time="133" FinePitch="2"
				Note Time="134" Volume="7" FinePitch="3"
				Note Time="135" FinePitch="4"
				Note Time="136" Value="D#4" Duration="6" Instrument="Duty 0" Volume="6" FinePitch="-5"
				Note Time="137" FinePitch="-3"
				Note Time="138" Volume="5" FinePitch="-2"
				Note Time="139" Volume="4" FinePitch="0"
				Note Time="140" FinePitch="2"
				Note Time="141" Volume="3" FinePitch="3"
				Note Time="142" Value="D4" Duration="2" Instrument="Duty 0" FinePitch="-5"
				Note Time="143" Volume="2" FinePitch="-4"
				Note Time="144" Value="D4" Duration="4" Instrument="Duty 2" Volume="9" FinePitch="0"
				Note Time="146" Volume="10"
				Note Time="148" Value="D4" Duration="21" Instrument="Duty 0"
				Note Time="150" Volume="9"
				Note Time="165" Volume="8"
				Note Time="166" FinePitch="-2"
				Note Time="167" FinePitch="-3"
				Note Time="168" FinePitch="-5"
				Note Time="169" Value="D#4" Duration="9" Instrument="Duty 0" FinePitch="4"
				Note Time="170" Volume="9" FinePitch="3"
				Note Time="171" FinePitch="2"
				Note Time="172" FinePitch="1"
				Note Time="175" Volume="7" FinePitch="2"
				Note Time="176" FinePitch="3"
				Note Time="177" Volume="6" FinePitch="4"
				Note Time="178" Value="D4" Duration="7" Instrument="Duty 0" FinePitch="-5"
				Note Time="179" Volume="5" FinePitch="-3"
				Note Time="180" Volume="4" FinePitch="-2"
				Note Time="181" FinePitch="0"
				Note Time="182" Volume="3" FinePitch="2"
				Note Time="183" FinePitch="3"
				Note Time="184" Volume="2" FinePitch="5"
				Note Time="185" Value="G#3" Duration="4" Instrument="Duty 2" Volume="10" FinePitch="0"
				Note Time="189" Value="G#3" Duration="14" Instrument="Duty 0"
				Note Time="191" Volume="9"
				Note Time="196" Volume="8"
				Note Time="198" Volume="9"
				Note Time="203" Value="D4" Duration="3" Instrument="Duty 0" Volume="4"
				Note Time="206" Value="A#3" Duration="4" Instrument="Duty 2" Volume="9"
				Note Time="210" Value="A#3" Duration="6" Instrument="Duty 0"
				Note Time="211" Volume="10"
				Note Time="212" Volume="9"
				Note Time="216" Value="G#3" Duration="11" Instrument="Duty 0" Volume="4"
				Note Time="222" Volume="3"
				Note Time="227" Value="B3" Duration="4" Instrument="Duty 2" Volume="9"
				Note Time="229" Volume="10"
				Note Time="231" Value="B3" Duration="11" Instrument="Duty 0"
				Note Time="233" Volume="9"
				Note Time="238" FinePitch="-2"
				Note Time="239" FinePitch="-3"
				Note Time="240" FinePitch="-5"
				Note Time="241" FinePitch="-6"
				Note Time="242" Value="C4" Duration="3" Instrument="Duty 0" FinePitch="5"
				Note Time="243" FinePitch="4"
				Note Time="244" FinePitch="3"
				Note Time="245" Value="A#3" Duration="2" Instrument="Duty 0" Volume="4" FinePitch="0"
				Note Time="247" Value="A#3" Duration="4" Instrument="Duty 2" Volume="9"
				Note Time="251" Value="A#3" Duration="9" Instrument="Duty 0"
			Pattern Name="Pattern 5"
				Note Time="4" Value="B3" Duration="8" Instrument="Duty 0" Volume="4"
				Note Time="10" Volume="3"
				Note Time="12" Value="G#3" Duration="4" Instrument="Duty 2" Volume="10"
				Note Time="16" Value="G#3" Duration="13" Instrument="Duty 0"
				Note Time="18" Volume="9"
				Note Time="23" Volume="8"
				Note Time="24" FinePitch="-2"
				Note Time="25" Volume="9" FinePitch="-3"
				Note Time="26" FinePitch="-5"
				Note Time="27" FinePitch="-6"
				Note Time="28" FinePitch="-7"
				Note Time="29" Value="A3" Duration="1" Instrument="Duty 0" FinePitch="7"
				Note Time="30" Value="A#3" Duration="3" Instrument="Duty 0" Volume="4" FinePitch="0"
				Note Time="33" Value="F#3" Duration="4" Instrument="Duty 2" Volume="9"
				Note Time="37" Value="F#3" Duration="9" Instrument="Duty 0"
				Note Time="38" Volume="10"
				Note Time="39" Volume="9"
				Note Time="46" Value="G#3" Duration="8" Instrument="Duty 0" Volume="4"
				Note Time="52" Volume="3"
				Note Time="54" Value="G#3" Duration="4" Instrument="Duty 2" Volume="9"
				Note Time="56" Volume="10"
				Note Time="58" Value="G#3" Duration="12" Instrument="Duty 0"
				Note Time="60" Volume="9"
				Note Time="65" FinePitch="-2"
				Note Time="66" FinePitch="-3"
				Note Time="67" FinePitch="-5"
				Note Time="68" FinePitch="-6"
				Note Time="69" FinePitch="-7"
				Note Time="70" Value="A3" Duration="2" Instrument="Duty 0" FinePitch="7"
				Note Time="71" FinePitch="6"
				Note Time="72" Value="F#3" Duration="2" Instrument="Duty 0" Volume="4" FinePitch="0"
				Note Time="74" Value="D#3" Duration="4" Instrument="Duty 2" Volume="9"
				Note Time="78" Value="D#3" Duration="9" Instrument="Duty 0"
				Note Time="79" Volume="10"
				Note Time="80" Volume="9"
				Note Time="87" Value="G#3" Duration="8" Instrument="Duty 0" Volume="4"
				Note Time="93" Volume="3"
				Note Time="95" Value="D#3" Duration="4" Instrument="Duty 2" Volume="10"
				Note Time="99" Value="D#3" Duration="17" Instrument="Duty 0"
				Note Time="101" Volume="9"
				Note Time="105" Volume="8"
				Note Time="106" FinePitch="-2"
				Note Time="107" FinePitch="-3"
				Note Time="108" Volume="9" FinePitch="-5"
				Note Time="109" FinePitch="-6"
				Note Time="110" FinePitch="-7"
				Note Time="111" FinePitch="-8"
				Note Time="112" FinePitch="-9"
				Note Time="113" Volume="4" FinePitch="0"
				Note Time="116" Value="F#3" Duration="4" Instrument="Duty 2" Volume="9"
				Note Time="120" Value="F#3" Duration="9" Instrument="Duty 0"
				Note Time="121" Volume="10"
				Note Time="122" Volume="9"
				Note Time="129" Value="D#3" Duration="7" Instrument="Duty 0" Volume="4"
				Note Time="135" Volume="3"
				Note Time="136" Value="F3" Duration="4" Instrument="Duty 2" Volume="9"
				Note Time="139" Volume="10"
				Note Time="140" Value="F3" Duration="40" Instrument="Duty 0"
				Note Time="142" Volume="9"
				Note Time="148" FinePitch="-2"
				Note Time="149" FinePitch="-3"
				Note Time="150" FinePitch="-5"
				Note Time="151" FinePitch="-6"
				Note Time="152" FinePitch="-7"
				Note Time="153" FinePitch="-8"
				Note Time="154" FinePitch="-9"
				Note Time="157" Volume="8" FinePitch="0"
				Note Time="158" FinePitch="-3"
				Note Time="159" FinePitch="-5"
				Note Time="160" FinePitch="-7"
				Note Time="161" FinePitch="-8"
				Note Time="162" Volume="9" FinePitch="-9"
				Note Time="164" FinePitch="-8"
				Note Time="165" FinePitch="-6"
				Note Time="166" FinePitch="-4"
				Note Time="167" FinePitch="0"
				Note Time="168" Volume="8" FinePitch="-3"
				Note Time="169" FinePitch="-6"
				Note Time="170" Volume="7" FinePitch="-8"
				Note Time="171" FinePitch="-9"
				Note Time="172" FinePitch="-8"
				Note Time="173" FinePitch="-6"
				Note Time="174" FinePitch="-3"
				Note Time="175" FinePitch="0"
				Note Time="176" FinePitch="3"
				Note Time="177" FinePitch="6"
				Note Time="178" FinePitch="0"
				Note Time="179" FinePitch="-6"
				Note Time="180" Value="F#3" Duration="2" Instrument="Duty 0" Volume="6" FinePitch="8"
				Note Time="181" FinePitch="7"
				Note Time="182" Value="F3" Duration="3" Instrument="Duty 0" FinePitch="-8"
				Note Time="183" FinePitch="0"
				Note Time="184" FinePitch="-7"
				Note Time="185" Value="F#3" Duration="2" Instrument="Duty 0" FinePitch="7"
				Note Time="186" FinePitch="8"
				Note Time="187" Value="F3" Duration="3" Instrument="Duty 0" FinePitch="-4"
				Note Time="188" FinePitch="0"
				Note Time="189" FinePitch="-9"
				Note Time="190" Value="F#3" Duration="1" Instrument="Duty 0" FinePitch="5"
				Note Time="191" Value="F3" Duration="3" Instrument="Duty 0" Volume="5" FinePitch="-9"
				Note Time="192" FinePitch="0"
				Note Time="194" Value="F#3" Duration="2" Instrument="Duty 0" FinePitch="8"
				Note Time="195" FinePitch="5"
				Note Time="196" Value="F3" Duration="2" Instrument="Duty 0" FinePitch="-6"
				Note Time="197" FinePitch="6"
				Note Time="198" Value="E3" Duration="1" Instrument="Duty 0" FinePitch="-6"
				Note Time="199" Value="F3" Duration="1" Instrument="Duty 0" FinePitch="0"
				Note Time="200" Value="F#3" Duration="2" Instrument="Duty 0" FinePitch="4"
				Note Time="202" Value="F3" Duration="1" Instrument="Duty 0" Volume="4" FinePitch="0"
				Note Time="203" Value="E3" Duration="1" Instrument="Duty 0" FinePitch="-5"
				Note Time="204" Value="F3" Duration="1" Instrument="Duty 0" FinePitch="0"
				Note Time="205" Value="F#3" Duration="2" Instrument="Duty 0" FinePitch="4"
				Note Time="207" Value="F3" Duration="1" Instrument="Duty 0" FinePitch="0"
				Note Time="208" Value="E3" Duration="1" Instrument="Duty 0" FinePitch="-5"
				Note Time="209" Value="F3" Duration="1" Instrument="Duty 0" FinePitch="0"
				Note Time="210" Value="F#3" Duration="2" Instrument="Duty 0" FinePitch="-2"
				Note Time="211" FinePitch="6"
				Note Time="212" Value="E3" Duration="2" Instrument="Duty 0" FinePitch="-7"
				Note Time="213" FinePitch="1"
				Note Time="214" Value="F3" Duration="1" Instrument="Duty 0" FinePitch="0"
				Note Time="215" Value="F#3" Duration="2" Instrument="Duty 0" FinePitch="-2"
				Note Time="216" FinePitch="6"
				Note Time="217" Value="F3" Duration="2" Instrument="Duty 0" FinePitch="0"
				Note Time="219" Value="D3" Duration="4" Instrument="Duty 2" Volume="9"
				Note Time="222" Volume="10"
				Note Time="223" Value="D3" Duration="41" Instrument="Duty 0"
				Note Time="225" Volume="9"
				Note Time="231" FinePitch="-2"
				Note Time="232" FinePitch="-3"
				Note Time="233" FinePitch="-5"
				Note Time="234" FinePitch="-6"
				Note Time="235" FinePitch="-7"
				Note Time="236" FinePitch="-8"
				Note Time="237" FinePitch="-9"
				Note Time="240" Volume="8" FinePitch="0"
				Note Time="241" FinePitch="-3"
				Note Time="242" FinePitch="-5"
				Note Time="243" FinePitch="-7"
				Note Time="244" FinePitch="-8"
				Note Time="245" Volume="9" FinePitch="-9"
				Note Time="247" FinePitch="-8"
				Note Time="248" FinePitch="-6"
				Note Time="249" FinePitch="-4"
				Note Time="250" FinePitch="0"
				Note Time="251" Volume="8" FinePitch="-3"
				Note Time="252" FinePitch="-6"
				Note Time="253" Volume="7" FinePitch="-8"
				Note Time="254" FinePitch="-9"
				Note Time="255" FinePitch="-8"
			PatternInstance Time="0" Pattern="Pattern 1"
			PatternInstance Time="1" Pattern="Pattern 2"
			PatternInstance Time="2" Pattern="Pattern 3"
			PatternInstance Time="3" Pattern="Pattern 4"
			PatternInstance Time="4" Pattern="Pattern 5"
		Channel Type="Square2"
			Pattern Name="Pattern 1"
				Note Time="0" Value="D#2" Duration="2" Instrument="Duty 2" Volume="7"
				Note Time="2" Value="E1" Duration="1" Instrument="Duty 2" Volume="6"
				Note Time="3" Value="D#1" Duration="8" Instrument="Duty 2"
				Note Time="6" Volume="7"
				Note Time="9" Volume="6"
				Note Time="10" Volume="5"
				Note Time="11" Value="D#2" Duration="2" Instrument="Duty 1" Volume="9"
				Note Time="13" Value="E1" Duration="1" Instrument="Duty 1" Volume="8"
				Note Time="14" Value="D#1" Duration="7" Instrument="Duty 1"
				Note Time="16" Volume="7"
				Note Time="17" Volume="8"
				Note Time="18" Volume="7"
				Note Time="20" Volume="6"
				Note Time="21" Value="D#2" Duration="2" Instrument="Duty 0" Volume="7"
				Note Time="23" Value="E1" Duration="1" Instrument="Duty 0" Volume="6"
				Note Time="24" Value="D#1" Duration="8" Instrument="Duty 0" Volume="7"
				Note Time="30" Volume="6"
				Note Time="31" Volume="5"
				Note Time="32" Value="D#2" Duration="2" Instrument="Duty 2" Volume="9"
				Note Time="34" Value="E1" Duration="1" Instrument="Duty 2" Volume="8"
				Note Time="35" Value="D#1" Duration="7" Instrument="Duty 2"
				Note Time="37" Volume="7"
				Note Time="38" Volume="8"
				Note Time="39" Volume="7"
				Note Time="40" Volume="6"
				Note Time="41" Volume="5"
				Note Time="42" Value="D#2" Duration="2" Instrument="Duty 0" Volume="9"
				Note Time="44" Value="E1" Duration="1" Instrument="Duty 0" Volume="8"
				Note Time="45" Value="D#1" Duration="7" Instrument="Duty 0"
				Note Time="47" Volume="7"
				Note Time="48" Volume="8"
				Note Time="49" Volume="7"
				Note Time="51" Volume="6"
				Note Time="52" Value="D#2" Duration="2" Instrument="Duty 1" Volume="7"
				Note Time="54" Value="E1" Duration="1" Instrument="Duty 1" Volume="6"
				Note Time="55" Value="D#1" Duration="8" Instrument="Duty 1" Volume="7"
				Note Time="58" Volume="8"
				Note Time="59" Volume="7"
				Note Time="61" Volume="6"
				Note Time="62" Volume="5"
				Note Time="63" Value="D#2" Duration="2" Instrument="Duty 2" Volume="7"
				Note Time="65" Value="E1" Duration="1" Instrument="Duty 2"
				Note Time="66" Value="D#1" Duration="7" Instrument="Duty 2"
				Note Time="71" Volume="6"
				Note Time="72" Volume="5"
				Note Time="73" Value="D#2" Duration="2" Instrument="Duty 0" Volume="9"
				Note Time="75" Value="E1" Duration="1" Instrument="Duty 0" Volume="8"
				Note Time="76" Value="D#1" Duration="7" Instrument="Duty 0"
				Note Time="78" Volume="7"
				Note Time="79" Volume="8"
				Note Time="80" Volume="7"
				Note Time="82" Volume="6"
				Note Time="83" Value="F2" Duration="2" Instrument="Duty 2" Volume="7"
				Note Time="85" Value="F#1" Duration="1" Instrument="Duty 2" Volume="6"
				Note Time="86" Value="F1" Duration="8" Instrument="Duty 2" Volume="7"
				Note Time="88" Volume="6"
				Note Time="89" Volume="8"
				Note Time="90" Volume="7"
				Note Time="92" Volume="6"
				Note Time="93" Volume="5"
				Note Time="94" Value="F2" Duration="2" Instrument="Duty 1" Volume="9"
				Note Time="96" Value="F#1" Duration="1" Instrument="Duty 1" Volume="8"
				Note Time="97" Value="F1" Duration="7" Instrument="Duty 1"
				Note Time="99" Volume="7"
				Note Time="100" Volume="8"
				Note Time="101" Volume="7"
				Note Time="102" Volume="6"
				Note Time="103" Volume="5"
				Note Time="104" Value="F2" Duration="2" Instrument="Duty 0" Volume="7"
				Note Time="106" Value="F#1" Duration="1" Instrument="Duty 0" Volume="6"
				Note Time="107" Value="F1" Duration="7" Instrument="Duty 0" Volume="7"
				Note Time="113" Volume="6"
				Note Time="114" Value="F2" Duration="2" Instrument="Duty 2" Volume="9"
				Note Time="116" Value="F#1" Duration="1" Instrument="Duty 2" Volume="8"
				Note Time="117" Value="F1" Duration="8" Instrument="Duty 2"
				Note Time="119" Volume="7"
				Note Time="120" Volume="8"
				Note Time="121" Volume="7"
				Note Time="123" Volume="6"
				Note Time="124" Volume="5"
				Note Time="125" Value="F2" Duration="2" Instrument="Duty 0" Volume="9"
				Note Time="127" Value="F#1" Duration="1" Instrument="Duty 0" Volume="8"
				Note Time="128" Value="F1" Duration="7" Instrument="Duty 0"
				Note Time="130" Volume="7"
				Note Time="131" Volume="8"
				Note Time="132" Volume="7"
				Note Time="134" Volume="6"
				Note Time="135" Value="F2" Duration="2" Instrument="Duty 1" Volume="7"
				Note Time="137" Value="F#1" Duration="1" Instrument="Duty 1" Volume="6"
				Note Time="138" Value="F1" Duration="7" Instrument="Duty 1" Volume="7"
				Note Time="141" Volume="8"
				Note Time="142" Volume="7"
				Note Time="144" Volume="6"
				Note Time="145" Value="F2" Duration="2" Instrument="Duty 2" Volume="7"
				Note Time="147" Value="F#1" Duration="1" Instrument="Duty 2" Volume="6"
				Note Time="148" Value="F1" Duration="8" Instrument="Duty 2" Volume="7"
				Note Time="150" Volume="6"
				Note Time="151" Volume="7"
				Note Time="154" Volume="6"
				Note Time="155" Volume="5"
				Note Time="156" Value="F2" Duration="2" Instrument="Duty 0" Volume="9"
				Note Time="158" Value="F#1" Duration="1" Instrument="Duty 0" Volume="8"
				Note Time="159" Value="F1" Duration="7" Instrument="Duty 0"
				Note Time="161" Volume="7"
				Note Time="162" Volume="8"
				Note Time="163" Volume="7"
				Note Time="165" Volume="6"
				Note Time="166" Value="A#1" Duration="2" Instrument="Duty 2" Volume="7"
				Note Time="168" Value="B0" Duration="1" Instrument="Duty 2" Volume="6"
				Note Time="169" Value="A#0" Duration="8" Instrument="Duty 2" Volume="7"
				Note Time="172" Volume="8"
				Note Time="173" Volume="7"
				Note Time="175" Volume="6"
				Note Time="176" Volume="5"
				Note Time="177" Value="A#1" Duration="2" Instrument="Duty 1" Volume="9"
				Note Time="179" Value="B0" Duration="1" Instrument="Duty 1" Volume="8"
				Note Time="180" Value="A#0" Duration="7" Instrument="Duty 1"
				Note Time="182" Volume="7"
				Note Time="183" Volume="8"
				Note Time="184" Volume="7"
				Note Time="185" Volume="6"
				Note Time="186" Volume="5"
				Note Time="187" Value="A#1" Duration="2" Instrument="Duty 0" Volume="7"
				Note Time="189" Value="B0" Duration="1" Instrument="Duty 0" Volume="6"
				Note Time="190" Value="A#0" Duration="7" Instrument="Duty 0" Volume="7"
				Note Time="196" Volume="6"
				Note Time="197" Value="A#1" Duration="2" Instrument="Duty 2" Volume="9"
				Note Time="199" Value="B0" Duration="1" Instrument="Duty 2" Volume="8"
				Note Time="200" Value="A#0" Duration="8" Instrument="Duty 2"
				Note Time="202" Volume="7"
				Note Time="203" Volume="8"
				Note Time="204" Volume="7"
				Note Time="206" Volume="6"
				Note Time="207" Volume="5"
				Note Time="208" Value="A#1" Duration="2" Instrument="Duty 0" Volume="9"
				Note Time="210" Value="B0" Duration="1" Instrument="Duty 0" Volume="8"
				Note Time="211" Value="A#0" Duration="7" Instrument="Duty 0"
				Note Time="213" Volume="7"
				Note Time="214" Volume="8"
				Note Time="215" Volume="7"
				Note Time="216" Volume="6"
				Note Time="217" Volume="5"
				Note Time="218" Value="A#1" Duration="2" Instrument="Duty 1" Volume="7"
				Note Time="220" Value="B0" Duration="1" Instrument="Duty 1" Volume="6"
				Note Time="221" Value="A#0" Duration="7" Instrument="Duty 1" Volume="7"
				Note Time="224" Volume="8"
				Note Time="225" Volume="7"
				Note Time="227" Volume="6"
				Note Time="228" Value="A#1" Duration="2" Instrument="Duty 2" Volume="7"
				Note Time="230" Value="B0" Duration="1" Instrument="Duty 2" Volume="6"
				Note Time="231" Value="A#0" Duration="8" Instrument="Duty 2" Volume="7"
				Note Time="233" Volume="6"
				Note Time="234" Volume="7"
				Note Time="237" Volume="6"
				Note Time="238" Volume="5"
				Note Time="239" Value="A#1" Duration="2" Instrument="Duty 0" Volume="9"
				Note Time="241" Value="B0" Duration="1" Instrument="Duty 0" Volume="8"
				Note Time="242" Value="A#0" Duration="7" Instrument="Duty 0"
				Note Time="244" Volume="7"
				Note Time="245" Volume="8"
				Note Time="246" Volume="7"
				Note Time="247" Volume="6"
				Note Time="248" Volume="5"
				Note Time="249" Value="D2" Duration="2" Instrument="Duty 2" Volume="7"
				Note Time="251" Value="D#1" Duration="1" Instrument="Duty 2" Volume="6"
				Note Time="252" Value="D1" Duration="7" Instrument="Duty 2" Volume="7"
				Note Time="255" Volume="8"
			Pattern Name="Pattern 2"
				Note Time="0" Volume="7"
				Note Time="2" Volume="6"
				Note Time="3" Value="D2" Duration="2" Instrument="Duty 1" Volume="9"
				Note Time="5" Value="D#1" Duration="1" Instrument="Duty 1" Volume="8"
				Note Time="6" Value="D1" Duration="8" Instrument="Duty 1"
				Note Time="8" Volume="7"
				Note Time="9" Volume="8"
				Note Time="10" Volume="7"
				Note Time="12" Volume="6"
				Note Time="13" Volume="5"
				Note Time="14" Value="D2" Duration="2" Instrument="Duty 0" Volume="7"
				Note Time="16" Value="D#1" Duration="1" Instrument="Duty 0"
				Note Time="17" Value="D1" Duration="7" Instrument="Duty 0"
				Note Time="23" Volume="6"
				Note Time="24" Value="D2" Duration="2" Instrument="Duty 2" Volume="9"
				Note Time="26" Value="D#1" Duration="1" Instrument="Duty 2" Volume="8"
				Note Time="27" Value="D1" Duration="7" Instrument="Duty 2"
				Note Time="29" Volume="7"
				Note Time="30" Volume="8"
				Note Time="31" Volume="7"
				Note Time="33" Volume="6"
				Note Time="34" Value="D2" Duration="2" Instrument="Duty 0" Volume="9"
				Note Time="36" Value="D#1" Duration="1" Instrument="Duty 0" Volume="8"
				Note Time="37" Value="D1" Duration="8" Instrument="Duty 0"
				Note Time="39" Volume="7"
				Note Time="40" Volume="8"
				Note Time="41" Volume="7"
				Note Time="43" Volume="6"
				Note Time="44" Volume="5"
				Note Time="45" Value="D3" Duration="2" Instrument="Duty 0" Volume="7"
				Note Time="47" Value="D#2" Duration="1" Instrument="Duty 0"
				Note Time="48" Value="D2" Duration="2" Instrument="Duty 0"
				Note Time="50" Value="D2" Duration="5" Instrument="Duty 1"
				Note Time="51" Volume="8"
				Note Time="52" Volume="7"
				Note Time="54" Volume="6"
				Note Time="55" Value="D2" Duration="2" Instrument="Duty 2" Volume="7"
				Note Time="57" Value="D#1" Duration="1" Instrument="Duty 2" Volume="6"
				Note Time="58" Value="D1" Duration="8" Instrument="Duty 2" Volume="7"
				Note Time="64" Volume="6"
				Note Time="65" Volume="5"
				Note Time="66" Value="D2" Duration="2" Instrument="Duty 1" Volume="9"
				Note Time="68" Value="D#1" Duration="1" Instrument="Duty 1" Volume="8"
				Note Time="69" Value="D1" Duration="7" Instrument="Duty 1"
				Note Time="71" Volume="7"
				Note Time="72" Volume="8"
				Note Time="73" Volume="7"
				Note Time="74" Volume="6"
				Note Time="75" Volume="5"
				Note Time="76" Value="D#2" Duration="2" Instrument="Duty 2" Volume="7"
				Note Time="78" Value="E1" Duration="1" Instrument="Duty 2"
				Note Time="79" Value="D#1" Duration="7" Instrument="Duty 2"
				Note Time="82" Volume="8"
				Note Time="83" Volume="7"
				Note Time="85" Volume="6"
				Note Time="86" Value="D#2" Duration="2" Instrument="Duty 1" Volume="9"
				Note Time="88" Value="E1" Duration="1" Instrument="Duty 1" Volume="8"
				Note Time="89" Value="D#1" Duration="8" Instrument="Duty 1"
				Note Time="91" Volume="7"
				Note Time="92" Volume="8"
				Note Time="93" Volume="7"
				Note Time="95" Volume="6"
				Note Time="96" Volume="5"
				Note Time="97" Value="D#2" Duration="2" Instrument="Duty 0" Volume="7"
				Note Time="99" Value="E1" Duration="1" Instrument="Duty 0"
				Note Time="100" Value="D#1" Duration="7" Instrument="Duty 0"
				Note Time="105" Volume="6"
				Note Time="106" Volume="5"
				Note Time="107" Value="D#2" Duration="2" Instrument="Duty 2" Volume="9"
				Note Time="109" Value="E1" Duration="1" Instrument="Duty 2" Volume="8"
				Note Time="110" Value="D#1" Duration="7" Instrument="Duty 2"
				Note Time="112" Volume="7"
				Note Time="113" Volume="8"
				Note Time="114" Volume="7"
				Note Time="116" Volume="6"
				Note Time="117" Value="C#2" Duration="2" Instrument="Duty 0" Volume="9"
				Note Time="119" Value="D1" Duration="1" Instrument="Duty 0" Volume="8"
				Note Time="120" Value="C#1" Duration="8" Instrument="Duty 0"
				Note Time="122" Volume="7"
				Note Time="123" Volume="8"
				Note Time="124" Volume="7"
				Note Time="126" Volume="6"
				Note Time="127" Volume="5"
				Note Time="128" Value="C#2" Duration="2" Instrument="Duty 1" Volume="7"
				Note Time="130" Value="D1" Duration="1" Instrument="Duty 1"
				Note Time="131" Value="C#1" Duration="7" Instrument="Duty 1"
				Note Time="134" Volume="8"
				Note Time="135" Volume="7"
				Note Time="136" Volume="6"
				Note Time="137" Volume="5"
				Note Time="138" Value="C#2" Duration="2" Instrument="Duty 2" Volume="7"
				Note Time="140" Value="D1" Duration="1" Instrument="Duty 2" Volume="6"
				Note Time="141" Value="C#1" Duration="7" Instrument="Duty 2" Volume="7"
				Note Time="147" Volume="6"
				Note Time="148" Value="C#2" Duration="2" Instrument="Duty 0" Volume="9"
				Note Time="150" Value="D1" Duration="1" Instrument="Duty 0" Volume="8"
				Note Time="151" Value="C#1" Duration="8" Instrument="Duty 0"
				Note Time="153" Volume="7"
				Note Time="154" Volume="8"
				Note Time="155" Volume="7"
				Note Time="157" Volume="6"
				Note Time="158" Volume="5"
				Note Time="159" Value="C2" Duration="2" Instrument="Duty 2" Volume="7"
				Note Time="161" Value="C#1" Duration="1" Instrument="Duty 2"
				Note Time="162" Value="C1" Duration="7" Instrument="Duty 2"
				Note Time="165" Volume="8"
				Note Time="166" Volume="7"
				Note Time="168" Volume="6"
				Note Time="169" Value="C2" Duration="2" Instrument="Duty 1" Volume="9"
				Note Time="171" Value="C#1" Duration="1" Instrument="Duty 1" Volume="8"
				Note Time="172" Value="C1" Duration="7" Instrument="Duty 1"
				Note Time="174" Volume="7"
				Note Time="175" Volume="8"
				Note Time="176" Volume="7"
				Note Time="178" Volume="6"
				Note Time="179" Value="C2" Duration="2" Instrument="Duty 0" Volume="7"
				Note Time="181" Value="C#1" Duration="1" Instrument="Duty 0" Volume="6"
				Note Time="182" Value="C1" Duration="8" Instrument="Duty 0" Volume="7"
				Note Time="184" Volume="6"
				Note Time="185" Volume="7"
				Note Time="188" Volume="6"
				Note Time="189" Volume="5"
				Note Time="190" Value="C2" Duration="2" Instrument="Duty 2" Volume="9"
				Note Time="192" Value="C#1" Duration="1" Instrument="Duty 2" Volume="8"
				Note Time="193" Value="C1" Duration="7" Instrument="Duty 2"
				Note Time="195" Volume="7"
				Note Time="196" Volume="8"
				Note Time="197" Volume="7"
				Note Time="199" Volume="6"
				Note Time="200" Value="C2" Duration="2" Instrument="Duty 0" Volume="9"
				Note Time="202" Value="C#1" Duration="1" Instrument="Duty 0" Volume="8"
				Note Time="203" Value="C1" Duration="8" Instrument="Duty 0"
				Note Time="205" Volume="7"
				Note Time="206" Volume="8"
				Note Time="207" Volume="7"
				Note Time="209" Volume="6"
				Note Time="210" Volume="5"
				Note Time="211" Value="C2" Duration="2" Instrument="Duty 1" Volume="7"
				Note Time="213" Value="C#1" Duration="1" Instrument="Duty 1"
				Note Time="214" Value="C1" Duration="7" Instrument="Duty 1"
				Note Time="217" Volume="8"
				Note Time="218" Volume="7"
				Note Time="219" Volume="6"
				Note Time="220" Volume="5"
				Note Time="221" Value="C2" Duration="2" Instrument="Duty 2" Volume="7"
				Note Time="223" Value="C#1" Duration="1" Instrument="Duty 2"
				Note Time="224" Value="C1" Duration="7" Instrument="Duty 2"
				Note Time="230" Volume="6"
				Note Time="231" Value="C2" Duration="2" Instrument="Duty 0" Volume="9"
				Note Time="233" Value="C#1" Duration="1" Instrument="Duty 0" Volume="8"
				Note Time="234" Value="C1" Duration="8" Instrument="Duty 0"
				Note Time="236" Volume="7"
				Note Time="237" Volume="8"
				Note Time="238" Volume="7"
				Note Time="240" Volume="6"
				Note Time="241" Volume="5"
				Note Time="242" Value="C#2" Duration="2" Instrument="Duty 2" Volume="7"
				Note Time="244" Value="D1" Duration="1" Instrument="Duty 2"
				Note Time="245" Value="C#1" Duration="7" Instrument="Duty 2"
				Note Time="248" Volume="8"
				Note Time="249" Volume="7"
				Note Time="250" Volume="6"
				Note Time="251" Volume="5"
				Note Time="252" Value="C#2" Duration="2" Instrument="Duty 1" Volume="9"
				Note Time="254" Value="D1" Duration="1" Instrument="Duty 1" Volume="8"
				Note Time="255" Value="C#1" Duration="7" Instrument="Duty 1"
			Pattern Name="Pattern 3"
				Note Time="1" Volume="7"
				Note Time="2" Volume="8"
				Note Time="3" Volume="7"
				Note Time="5" Volume="6"
				Note Time="6" Value="C#2" Duration="2" Instrument="Duty 0" Volume="7"
				Note Time="8" Value="D1" Duration="1" Instrument="Duty 0" Volume="6"
				Note Time="9" Value="C#1" Duration="8" Instrument="Duty 0" Volume="7"
				Note Time="11" Volume="6"
				Note Time="12" Volume="7"
				Note Time="15" Volume="6"
				Note Time="16" Volume="5"
				Note Time="17" Value="C#2" Duration="2" Instrument="Duty 2" Volume="9"
				Note Time="19" Value="D1" Duration="1" Instrument="Duty 2" Volume="8"
				Note Time="20" Value="C#1" Duration="7" Instrument="Duty 2"
				Note Time="22" Volume="7"
				Note Time="23" Volume="8"
				Note Time="24" Volume="7"
				Note Time="25" Volume="6"
				Note Time="26" Volume="5"
				Note Time="27" Value="C#2" Duration="2" Instrument="Duty 0" Volume="9"
				Note Time="29" Value="D1" Duration="1" Instrument="Duty 0" Volume="8"
				Note Time="30" Value="C#1" Duration="7" Instrument="Duty 0"
				Note Time="32" Volume="7"
				Note Time="33" Volume="8"
				Note Time="34" Volume="7"
				Note Time="36" Volume="6"
				Note Time="37" Value="C#2" Duration="2" Instrument="Duty 1" Volume="7"
				Note Time="39" Value="D1" Duration="1" Instrument="Duty 1" Volume="6"
				Note Time="40" Value="C#1" Duration="8" Instrument="Duty 1" Volume="7"
				Note Time="42" Volume="6"
				Note Time="43" Volume="8"
				Note Time="44" Volume="7"
				Note Time="46" Volume="6"
				Note Time="47" Volume="5"
				Note Time="48" Value="C#2" Duration="2" Instrument="Duty 2" Volume="7"
				Note Time="50" Value="D1" Duration="1" Instrument="Duty 2"
				Note Time="51" Value="C#1" Duration="7" Instrument="Duty 2"
				Note Time="57" Volume="6"
				Note Time="58" Value="C#2" Duration="2" Instrument="Duty 0" Volume="9"
				Note Time="60" Value="D1" Duration="1" Instrument="Duty 0" Volume="8"
				Note Time="61" Value="C#1" Duration="7" Instrument="Duty 0"
				Note Time="63" Volume="7"
				Note Time="64" Volume="8"
				Note Time="65" Volume="7"
				Note Time="67" Volume="6"
				Note Time="68" Value="D2" Duration="2" Instrument="Duty 2" Volume="7"
				Note Time="70" Value="D#1" Duration="1" Instrument="Duty 2" Volume="6"
				Note Time="71" Value="D1" Duration="8" Instrument="Duty 2" Volume="7"
				Note Time="73" Volume="6"
				Note Time="74" Volume="8"
				Note Time="75" Volume="7"
				Note Time="77" Volume="6"
				Note Time="78" Volume="5"
				Note Time="79" Value="D2" Duration="2" Instrument="Duty 1" Volume="9"
				Note Time="81" Value="D#1" Duration="1" Instrument="Duty 1" Volume="8"
				Note Time="82" Value="D1" Duration="7" Instrument="Duty 1"
				Note Time="84" Volume="7"
				Note Time="85" Volume="8"
				Note Time="86" Volume="7"
				Note Time="88" Volume="6"
				Note Time="89" Value="D2" Duration="2" Instrument="Duty 0" Volume="7"
				Note Time="91" Value="D#1" Duration="1" Instrument="Duty 0" Volume="6"
				Note Time="92" Value="D1" Duration="8" Instrument="Duty 0" Volume="7"
				Note Time="98" Volume="6"
				Note Time="99" Volume="5"
				Note Time="100" Value="D2" Duration="2" Instrument="Duty 2" Volume="9"
				Note Time="102" Value="D#1" Duration="1" Instrument="Duty 2" Volume="8"
				Note Time="103" Value="D1" Duration="7" Instrument="Duty 2"
				Note Time="105" Volume="7"
				Note Time="106" Volume="8"
				Note Time="107" Volume="7"
				Note Time="108" Volume="6"
				Note Time="109" Volume="5"
				Note Time="110" Value="D2" Duration="2" Instrument="Duty 0" Volume="9"
				Note Time="112" Value="D#1" Duration="1" Instrument="Duty 0" Volume="8"
				Note Time="113" Value="D1" Duration="7" Instrument="Duty 0"
				Note Time="115" Volume="7"
				Note Time="116" Volume="8"
				Note Time="117" Volume="7"
				Note Time="119" Volume="6"
				Note Time="120" Value="D3" Duration="2" Instrument="Duty 0" Volume="7"
				Note Time="122" Value="D#2" Duration="1" Instrument="Duty 0" Volume="6"
				Note Time="123" Value="D2" Duration="2" Instrument="Duty 0" Volume="7"
				Note Time="125" Value="D2" Duration="6" Instrument="Duty 1"
				Note Time="126" Volume="8"
				Note Time="127" Volume="7"
				Note Time="129" Volume="6"
				Note Time="130" Volume="5"
				Note Time="131" Value="D2" Duration="2" Instrument="Duty 2" Volume="7"
				Note Time="133" Value="D#1" Duration="1" Instrument="Duty 2"
				Note Time="134" Value="D1" Duration="7" Instrument="Duty 2"
				Note Time="139" Volume="6"
				Note Time="140" Volume="5"
				Note Time="141" Value="D2" Duration="2" Instrument="Duty 1" Volume="9"
				Note Time="143" Value="D#1" Duration="1" Instrument="Duty 1" Volume="8"
				Note Time="144" Value="D1" Duration="7" Instrument="Duty 1"
				Note Time="146" Volume="7"
				Note Time="147" Volume="8"
				Note Time="148" Volume="7"
				Note Time="150" Volume="6"
				Note Time="151" Value="D#2" Duration="2" Instrument="Duty 2" Volume="7"
				Note Time="153" Value="E1" Duration="1" Instrument="Duty 2" Volume="6"
				Note Time="154" Value="D#1" Duration="8" Instrument="Duty 2"
				Note Time="156" Volume="7"
				Note Time="160" Volume="6"
				Note Time="161" Volume="5"
				Note Time="162" Value="D#2" Duration="2" Instrument="Duty 1" Volume="9"
				Note Time="164" Value="E1" Duration="1" Instrument="Duty 1" Volume="8"
				Note Time="165" Value="D#1" Duration="7" Instrument="Duty 1"
				Note Time="167" Volume="7"
				Note Time="168" Volume="8"
				Note Time="169" Volume="7"
				Note Time="170" Volume="6"
				Note Time="171" Volume="5"
				Note Time="172" Value="D#2" Duration="2" Instrument="Duty 0" Volume="7"
				Note Time="174" Value="E1" Duration="1" Instrument="Duty 0" Volume="6"
				Note Time="175" Value="D#1" Duration="7" Instrument="Duty 0" Volume="7"
				Note Time="181" Volume="6"
				Note Time="182" Value="D#2" Duration="2" Instrument="Duty 2" Volume="9"
				Note Time="184" Value="E1" Duration="1" Instrument="Duty 2" Volume="8"
				Note Time="185" Value="D#1" Duration="8" Instrument="Duty 2"
				Note Time="187" Volume="7"
				Note Time="188" Volume="8"
				Note Time="189" Volume="7"
				Note Time="191" Volume="6"
				Note Time="192" Volume="5"
				Note Time="193" Value="D#2" Duration="2" Instrument="Duty 0" Volume="9"
				Note Time="195" Value="E1" Duration="1" Instrument="Duty 0" Volume="8"
				Note Time="196" Value="D#1" Duration="7" Instrument="Duty 0"
				Note Time="198" Volume="7"
				Note Time="199" Volume="8"
				Note Time="200" Volume="7"
				Note Time="202" Volume="6"
				Note Time="203" Value="D#2" Duration="2" Instrument="Duty 1" Volume="7"
				Note Time="205" Value="E1" Duration="1" Instrument="Duty 1" Volume="6"
				Note Time="206" Value="D#1" Duration="7" Instrument="Duty 1" Volume="7"
				Note Time="209" Volume="8"
				Note Time="210" Volume="7"
				Note Time="212" Volume="6"
				Note Time="213" Value="D#2" Duration="2" Instrument="Duty 2" Volume="7"
				Note Time="215" Value="E1" Duration="1" Instrument="Duty 2" Volume="6"
				Note Time="216" Value="D#1" Duration="8" Instrument="Duty 2" Volume="7"
				Note Time="218" Volume="6"
				Note Time="219" Volume="7"
				Note Time="222" Volume="6"
				Note Time="223" Volume="5"
				Note Time="224" Value="D#2" Duration="2" Instrument="Duty 0" Volume="9"
				Note Time="226" Value="E1" Duration="1" Instrument="Duty 0" Volume="8"
				Note Time="227" Value="D#1" Duration="7" Instrument="Duty 0"
				Note Time="229" Volume="7"
				Note Time="230" Volume="8"
				Note Time="231" Volume="7"
				Note Time="233" Volume="6"
				Note Time="234" Value="F2" Duration="2" Instrument="Duty 2" Volume="7"
				Note Time="236" Value="F#1" Duration="1" Instrument="Duty 2" Volume="6"
				Note Time="237" Value="F1" Duration="8" Instrument="Duty 2" Volume="7"
				Note Time="240" Volume="8"
				Note Time="241" Volume="7"
				Note Time="243" Volume="6"
				Note Time="244" Volume="5"
				Note Time="245" Value="F2" Duration="2" Instrument="Duty 1" Volume="9"
				Note Time="247" Value="F#1" Duration="1" Instrument="Duty 1" Volume="8"
				Note Time="248" Value="F1" Duration="7" Instrument="Duty 1"
				Note Time="250" Volume="7"
				Note Time="251" Volume="8"
				Note Time="252" Volume="7"
				Note Time="253" Volume="6"
				Note Time="254" Volume="5"
				Note Time="255" Value="F2" Duration="2" Instrument="Duty 0" Volume="7"
			Pattern Name="Pattern 4"
				Note Time="1" Value="F#1" Duration="1" Instrument="Duty 0"
				Note Time="2" Value="F1" Duration="7" Instrument="Duty 0"
				Note Time="8" Volume="6"
				Note Time="9" Value="F2" Duration="2" Instrument="Duty 2" Volume="9"
				Note Time="11" Value="F#1" Duration="1" Instrument="Duty 2" Volume="8"
				Note Time="12" Value="F1" Duration="8" Instrument="Duty 2"
				Note Time="14" Volume="7"
				Note Time="15" Volume="8"
				Note Time="16" Volume="7"
				Note Time="18" Volume="6"
				Note Time="19" Volume="5"
				Note Time="20" Value="F2" Duration="2" Instrument="Duty 0" Volume="9"
				Note Time="22" Value="F#1" Duration="1" Instrument="Duty 0" Volume="8"
				Note Time="23" Value="F1" Duration="7" Instrument="Duty 0"
				Note Time="25" Volume="7"
				Note Time="26" Volume="8"
				Note Time="27" Volume="7"
				Note Time="28" Volume="6"
				Note Time="29" Volume="5"
				Note Time="30" Value="F2" Duration="2" Instrument="Duty 1" Volume="7"
				Note Time="32" Value="F#1" Duration="1" Instrument="Duty 1" Volume="6"
				Note Time="33" Value="F1" Duration="7" Instrument="Duty 1" Volume="7"
				Note Time="36" Volume="8"
				Note Time="37" Volume="7"
				Note Time="39" Volume="6"
				Note Time="40" Value="F2" Duration="2" Instrument="Duty 2" Volume="7"
				Note Time="42" Value="F#1" Duration="1" Instrument="Duty 2" Volume="6"
				Note Time="43" Value="F1" Duration="8" Instrument="Duty 2" Volume="7"
				Note Time="49" Volume="6"
				Note Time="50" Volume="5"
				Note Time="51" Value="F2" Duration="2" Instrument="Duty 0" Volume="9"
				Note Time="53" Value="F#1" Duration="1" Instrument="Duty 0" Volume="8"
				Note Time="54" Value="F1" Duration="7" Instrument="Duty 0"
				Note Time="56" Volume="7"
				Note Time="57" Volume="8"
				Note Time="58" Volume="7"
				Note Time="59" Volume="6"
				Note Time="60" Volume="5"
				Note Time="61" Value="A#1" Duration="2" Instrument="Duty 2" Volume="7"
				Note Time="63" Value="B0" Duration="1" Instrument="Duty 2" Volume="6"
				Note Time="64" Value="A#0" Duration="7" Instrument="Duty 2" Volume="7"
				Note Time="67" Volume="8"
				Note Time="68" Volume="7"
				Note Time="70" Volume="6"
				Note Time="71" Value="A#1" Duration="2" Instrument="Duty 1" Volume="9"
				Note Time="73" Value="B0" Duration="1" Instrument="Duty 1" Volume="8"
				Note Time="74" Value="A#0" Duration="8" Instrument="Duty 1"
				Note Time="76" Volume="7"
				Note Time="77" Volume="8"
				Note Time="78" Volume="7"
				Note Time="80" Volume="6"
				Note Time="81" Volume="5"
				Note Time="82" Value="A#1" Duration="2" Instrument="Duty 0" Volume="7"
				Note Time="84" Value="B0" Duration="1" Instrument="Duty 0"
				Note Time="85" Value="A#0" Duration="7" Instrument="Duty 0"
				Note Time="91" Volume="6"
				Note Time="92" Value="A#1" Duration="2" Instrument="Duty 2" Volume="9"
				Note Time="94" Value="B0" Duration="1" Instrument="Duty 2" Volume="8"
				Note Time="95" Value="A#0" Duration="7" Instrument="Duty 2"
				Note Time="97" Volume="7"
				Note Time="98" Volume="8"
				Note Time="99" Volume="7"
				Note Time="101" Volume="6"
				Note Time="102" Value="A#1" Duration="2" Instrument="Duty 0" Volume="9"
				Note Time="104" Value="B0" Duration="1" Instrument="Duty 0" Volume="8"
				Note Time="105" Value="A#0" Duration="8" Instrument="Duty 0"
				Note Time="107" Volume="7"
				Note Time="108" Volume="8"
				Note Time="109" Volume="7"
				Note Time="111" Volume="6"
				Note Time="112" Volume="5"
				Note Time="113" Value="A#1" Duration="2" Instrument="Duty 1" Volume="7"
				Note Time="115" Value="B0" Duration="1" Instrument="Duty 1"
				Note Time="116" Value="A#0" Duration="7" Instrument="Duty 1"
				Note Time="119" Volume="8"
				Note Time="120" Volume="7"
				Note Time="122" Volume="6"
				Note Time="123" Value="A#1" Duration="2" Instrument="Duty 2" Volume="7"
				Note Time="125" Value="B0" Duration="1" Instrument="Duty 2" Volume="6"
				Note Time="126" Value="A#0" Duration="8" Instrument="Duty 2" Volume="7"
				Note Time="132" Volume="6"
				Note Time="133" Volume="5"
				Note Time="134" Value="A#1" Duration="2" Instrument="Duty 0" Volume="9"
				Note Time="136" Value="B0" Duration="1" Instrument="Duty 0" Volume="8"
				Note Time="137" Value="A#0" Duration="7" Instrument="Duty 0"
				Note Time="139" Volume="7"
				Note Time="140" Volume="8"
				Note Time="141" Volume="7"
				Note Time="142" Volume="6"
				Note Time="143" Volume="5"
				Note Time="144" Value="D2" Duration="2" Instrument="Duty 2" Volume="7"
				Note Time="146" Value="D#1" Duration="1" Instrument="Duty 2"
				Note Time="147" Value="D1" Duration="7" Instrument="Duty 2"
				Note Time="150" Volume="8"
				Note Time="151" Volume="7"
				Note Time="153" Volume="6"
				Note Time="154" Value="D2" Duration="2" Instrument="Duty 1" Volume="9"
				Note Time="156" Value="D#1" Duration="1" Instrument="Duty 1" Volume="8"
				Note Time="157" Value="D1" Duration="8" Instrument="Duty 1"
				Note Time="159" Volume="7"
				Note Time="160" Volume="8"
				Note Time="161" Volume="7"
				Note Time="163" Volume="6"
				Note Time="164" Volume="5"
				Note Time="165" Value="D2" Duration="2" Instrument="Duty 0" Volume="7"
				Note Time="167" Value="D#1" Duration="1" Instrument="Duty 0"
				Note Time="168" Value="D1" Duration="7" Instrument="Duty 0"
				Note Time="173" Volume="6"
				Note Time="174" Volume="5"
				Note Time="175" Value="D2" Duration="2" Instrument="Duty 2" Volume="9"
				Note Time="177" Value="D#1" Duration="1" Instrument="Duty 2" Volume="8"
				Note Time="178" Value="D1" Duration="7" Instrument="Duty 2"
				Note Time="180" Volume="7"
				Note Time="181" Volume="8"
				Note Time="182" Volume="7"
				Note Time="184" Volume="6"
				Note Time="185" Value="D2" Duration="2" Instrument="Duty 0" Volume="9"
				Note Time="187" Value="D#1" Duration="1" Instrument="Duty 0" Volume="8"
				Note Time="188" Value="D1" Duration="8" Instrument="Duty 0"
				Note Time="190" Volume="7"
				Note Time="191" Volume="8"
				Note Time="192" Volume="7"
				Note Time="194" Volume="6"
				Note Time="195" Volume="5"
				Note Time="196" Value="D3" Duration="2" Instrument="Duty 0" Volume="7"
				Note Time="198" Value="D#2" Duration="1" Instrument="Duty 0"
				Note Time="199" Value="D2" Duration="2" Instrument="Duty 0"
				Note Time="201" Value="D2" Duration="5" Instrument="Duty 1"
				Note Time="202" Volume="8"
				Note Time="203" Volume="7"
				Note Time="204" Volume="6"
				Note Time="205" Volume="5"
				Note Time="206" Value="D2" Duration="2" Instrument="Duty 2" Volume="7"
				Note Time="208" Value="D#1" Duration="1" Instrument="Duty 2" Volume="6"
				Note Time="209" Value="D1" Duration="7" Instrument="Duty 2" Volume="7"
				Note Time="215" Volume="6"
				Note Time="216" Value="D2" Duration="2" Instrument="Duty 1" Volume="9"
				Note Time="218" Value="D#1" Duration="1" Instrument="Duty 1" Volume="8"
				Note Time="219" Value="D1" Duration="8" Instrument="Duty 1"
				Note Time="221" Volume="7"
				Note Time="222" Volume="8"
				Note Time="223" Volume="7"
				Note Time="225" Volume="6"
				Note Time="226" Volume="5"
				Note Time="227" Value="B1" Duration="2" Instrument="Duty 2" Volume="7"
				Note Time="229" Value="C1" Duration="1" Instrument="Duty 2"
				Note Time="230" Value="B0" Duration="7" Instrument="Duty 2"
				Note Time="233" Volume="8"
				Note Time="234" Volume="7"
				Note Time="235" Volume="6"
				Note Time="236" Volume="5"
				Note Time="237" Value="B1" Duration="2" Instrument="Duty 1" Volume="9"
				Note Time="239" Value="C1" Duration="1" Instrument="Duty 1" Volume="8"
				Note Time="240" Value="B0" Duration="7" Instrument="Duty 1"
				Note Time="242" Volume="7"
				Note Time="243" Volume="8"
				Note Time="244" Volume="7"
				Note Time="246" Volume="6"
				Note Time="247" Value="B1" Duration="2" Instrument="Duty 0" Volume="7"
				Note Time="249" Value="C1" Duration="1" Instrument="Duty 0" Volume="6"
				Note Time="250" Value="B0" Duration="8" Instrument="Duty 0" Volume="7"
				Note Time="252" Volume="6"
				Note Time="253" Volume="7"
			Pattern Name="Pattern 5"
				Note Time="0" Volume="6"
				Note Time="1" Volume="5"
				Note Time="2" Value="B1" Duration="2" Instrument="Duty 2" Volume="9"
				Note Time="4" Value="C1" Duration="1" Instrument="Duty 2" Volume="8"
				Note Time="5" Value="B0" Duration="7" Instrument="Duty 2"
				Note Time="7" Volume="7"
				Note Time="8" Volume="8"
				Note Time="9" Volume="7"
				Note Time="11" Volume="6"
				Note Time="12" Value="B1" Duration="2" Instrument="Duty 0" Volume="9"
				Note Time="14" Value="C1" Duration="1" Instrument="Duty 0" Volume="8"
				Note Time="15" Value="B0" Duration="8" Instrument="Duty 0"
				Note Time="17" Volume="7"
				Note Time="18" Volume="8"
				Note Time="19" Volume="7"
				Note Time="21" Volume="6"
				Note Time="22" Volume="5"
				Note Time="23" Value="B1" Duration="2" Instrument="Duty 1" Volume="7"
				Note Time="25" Value="C1" Duration="1" Instrument="Duty 1"
				Note Time="26" Value="B0" Duration="7" Instrument="Duty 1"
				Note Time="29" Volume="8"
				Note Time="30" Volume="7"
				Note Time="31" Volume="6"
				Note Time="32" Volume="5"
				Note Time="33" Value="B1" Duration="2" Instrument="Duty 2" Volume="7"
				Note Time="35" Value="C1" Duration="1" Instrument="Duty 2"
				Note Time="36" Value="B0" Duration="7" Instrument="Duty 2"
				Note Time="42" Volume="6"
				Note Time="43" Value="B1" Duration="2" Instrument="Duty 0" Volume="9"
				Note Time="45" Value="C1" Duration="1" Instrument="Duty 0" Volume="8"
				Note Time="46" Value="B0" Duration="8" Instrument="Duty 0"
				Note Time="48" Volume="7"
				Note Time="49" Volume="8"
				Note Time="50" Volume="7"
				Note Time="52" Volume="6"
				Note Time="53" Volume="5"
				Note Time="54" Value="C2" Duration="2" Instrument="Duty 2" Volume="7"
				Note Time="56" Value="C#1" Duration="1" Instrument="Duty 2"
				Note Time="57" Value="C1" Duration="7" Instrument="Duty 2"
				Note Time="60" Volume="8"
				Note Time="61" Volume="7"
				Note Time="62" Volume="6"
				Note Time="63" Volume="5"
				Note Time="64" Value="C2" Duration="2" Instrument="Duty 1" Volume="9"
				Note Time="66" Value="C#1" Duration="1" Instrument="Duty 1" Volume="8"
				Note Time="67" Value="C1" Duration="7" Instrument="Duty 1"
				Note Time="69" Volume="7"
				Note Time="70" Volume="8"
				Note Time="71" Volume="7"
				Note Time="73" Volume="6"
				Note Time="74" Value="C2" Duration="2" Instrument="Duty 0" Volume="7"
				Note Time="76" Value="C#1" Duration="1" Instrument="Duty 0" Volume="6"
				Note Time="77" Value="C1" Duration="8" Instrument="Duty 0" Volume="7"
				Note Time="83" Volume="6"
				Note Time="84" Volume="5"
				Note Time="85" Value="C2" Duration="2" Instrument="Duty 2" Volume="9"
				Note Time="87" Value="C#1" Duration="1" Instrument="Duty 2" Volume="8"
				Note Time="88" Value="C1" Duration="7" Instrument="Duty 2"
				Note Time="90" Volume="7"
				Note Time="91" Volume="8"
				Note Time="92" Volume="7"
				Note Time="93" Volume="6"
				Note Time="94" Volume="5"
				Note Time="95" Value="C2" Duration="2" Instrument="Duty 0" Volume="9"
				Note Time="97" Value="C#1" Duration="1" Instrument="Duty 0" Volume="8"
				Note Time="98" Value="C1" Duration="7" Instrument="Duty 0"
				Note Time="100" Volume="7"
				Note Time="101" Volume="8"
				Note Time="102" Volume="7"
				Note Time="104" Volume="6"
				Note Time="105" Value="C2" Duration="2" Instrument="Duty 1" Volume="7"
				Note Time="107" Value="C#1" Duration="1" Instrument="Duty 1" Volume="6"
				Note Time="108" Value="C1" Duration="8" Instrument="Duty 1" Volume="7"
				Note Time="110" Volume="6"
				Note Time="111" Volume="8"
				Note Time="112" Volume="7"
				Note Time="114" Volume="6"
				Note Time="115" Volume="5"
				Note Time="116" Value="C2" Duration="2" Instrument="Duty 2" Volume="7"
				Note Time="118" Value="C#1" Duration="1" Instrument="Duty 2"
				Note Time="119" Value="C1" Duration="7" Instrument="Duty 2"
				Note Time="124" Volume="6"
				Note Time="125" Volume="5"
				Note Time="126" Value="C2" Duration="2" Instrument="Duty 0" Volume="9"
				Note Time="128" Value="C#1" Duration="1" Instrument="Duty 0" Volume="8"
				Note Time="129" Value="C1" Duration="7" Instrument="Duty 0"
				Note Time="131" Volume="7"
				Note Time="132" Volume="8"
				Note Time="133" Volume="7"
				Note Time="135" Volume="6"
				Note Time="136" Value="C#2" Duration="2" Instrument="Duty 2" Volume="7"
				Note Time="138" Value="D1" Duration="1" Instrument="Duty 2" Volume="6"
				Note Time="139" Value="C#1" Duration="8" Instrument="Duty 2" Volume="7"
				Note Time="141" Volume="6"
				Note Time="142" Volume="8"
				Note Time="143" Volume="7"
				Note Time="145" Volume="6"
				Note Time="146" Volume="5"
				Note Time="147" Value="C#2" Duration="2" Instrument="Duty 1" Volume="9"
				Note Time="149" Value="D1" Duration="1" Instrument="Duty 1" Volume="8"
				Note Time="150" Value="C#1" Duration="7" Instrument="Duty 1"
				Note Time="152" Volume="7"
				Note Time="153" Volume="8"
				Note Time="154" Volume="7"
				Note Time="156" Volume="6"
				Note Time="157" Value="C#2" Duration="2" Instrument="Duty 0" Volume="7"
				Note Time="159" Value="D1" Duration="1" Instrument="Duty 0" Volume="6"
				Note Time="160" Value="C#1" Duration="7" Instrument="Duty 0" Volume="7"
				Note Time="166" Volume="6"
				Note Time="167" Value="C#2" Duration="2" Instrument="Duty 2" Volume="9"
				Note Time="169" Value="D1" Duration="1" Instrument="Duty 2" Volume="8"
				Note Time="170" Value="C#1" Duration="8" Instrument="Duty 2"
				Note Time="172" Volume="7"
				Note Time="173" Volume="8"
				Note Time="174" Volume="7"
				Note Time="176" Volume="6"
				Note Time="177" Volume="5"
				Note Time="178" Value="C#2" Duration="2" Instrument="Duty 0" Volume="9"
				Note Time="180" Value="D1" Duration="1" Instrument="Duty 0" Volume="8"
				Note Time="181" Value="C#1" Duration="7" Instrument="Duty 0"
				Note Time="183" Volume="7"
				Note Time="184" Volume="8"
				Note Time="185" Volume="7"
				Note Time="187" Volume="6"
				Note Time="188" Value="C#2" Duration="2" Instrument="Duty 1" Volume="7"
				Note Time="190" Value="D1" Duration="1" Instrument="Duty 1" Volume="6"
				Note Time="191" Value="C#1" Duration="8" Instrument="Duty 1" Volume="7"
				Note Time="194" Volume="8"
				Note Time="195" Volume="7"
				Note Time="197" Volume="6"
				Note Time="198" Volume="5"
				Note Time="199" Value="C#2" Duration="2" Instrument="Duty 2" Volume="7"
				Note Time="201" Value="D1" Duration="1" Instrument="Duty 2"
				Note Time="202" Value="C#1" Duration="7" Instrument="Duty 2"
				Note Time="207" Volume="6"
				Note Time="208" Volume="5"
				Note Time="209" Value="C#2" Duration="2" Instrument="Duty 0" Volume="9"
				Note Time="211" Value="D1" Duration="1" Instrument="Duty 0" Volume="8"
				Note Time="212" Value="C#1" Duration="7" Instrument="Duty 0"
				Note Time="214" Volume="7"
				Note Time="215" Volume="8"
				Note Time="216" Volume="7"
				Note Time="218" Volume="6"
				Note Time="219" Value="D2" Duration="2" Instrument="Duty 2" Volume="7"
				Note Time="221" Value="D#1" Duration="1" Instrument="Duty 2" Volume="6"
				Note Time="222" Value="D1" Duration="8" Instrument="Duty 2" Volume="7"
				Note Time="225" Volume="8"
				Note Time="226" Volume="7"
				Note Time="228" Volume="6"
				Note Time="229" Volume="5"
				Note Time="230" Value="D2" Duration="2" Instrument="Duty 1" Volume="9"
				Note Time="232" Value="D#1" Duration="1" Instrument="Duty 1" Volume="8"
				Note Time="233" Value="D1" Duration="7" Instrument="Duty 1"
				Note Time="235" Volume="7"
				Note Time="236" Volume="8"
				Note Time="237" Volume="7"
				Note Time="238" Volume="6"
				Note Time="239" Volume="5"
				Note Time="240" Value="D2" Duration="2" Instrument="Duty 0" Volume="7"
				Note Time="242" Value="D#1" Duration="1" Instrument="Duty 0" Volume="6"
				Note Time="243" Value="D1" Duration="7" Instrument="Duty 0" Volume="7"
				Note Time="249" Volume="6"
				Note Time="250" Value="D2" Duration="2" Instrument="Duty 2" Volume="9"
				Note Time="252" Value="D#1" Duration="1" Instrument="Duty 2" Volume="8"
				Note Time="253" Value="D1" Duration="8" Instrument="Duty 2"
				Note Time="255" Volume="7"
			PatternInstance Time="0" Pattern="Pattern 1"
			PatternInstance Time="1" Pattern="Pattern 2"
			PatternInstance Time="2" Pattern="Pattern 3"
			PatternInstance Time="3" Pattern="Pattern 4"
			PatternInstance Time="4" Pattern="Pattern 5"
		Channel Type="Triangle"
			Pattern Name="Pattern 1"
				Note Time="0" Value="E4" Duration="1" Instrument="Duty 0"
				Note Time="1" Value="A#3" Duration="1" Instrument="Duty 0" FinePitch="-7"
				Note Time="2" Value="F#3" Duration="1" Instrument="Duty 0" FinePitch="-6"
				Note Time="3" Value="D#2" Duration="3" Instrument="Duty 0" FinePitch="0"
				Note Time="11" Value="D#3" Duration="1" Instrument="Duty 0"
				Note Time="12" Value="D#2" Duration="4" Instrument="Duty 0"
				Note Time="21" Value="C4" Duration="2" Instrument="Duty 0" FinePitch="1"
				Note Time="23" Value="A#2" Duration="1" Instrument="Duty 0" FinePitch="-8"
				Note Time="24" Value="D#2" Duration="2" Instrument="Duty 0" FinePitch="0"
				Note Time="32" Value="D#3" Duration="1" Instrument="Duty 0"
				Note Time="33" Value="D#2" Duration="4" Instrument="Duty 0"
				Note Time="42" Value="D#3" Duration="1" Instrument="Duty 0"
				Note Time="43" Value="D#2" Duration="4" Instrument="Duty 0"
				Note Time="52" Value="E4" Duration="1" Instrument="Duty 0"
				Note Time="53" Value="A#3" Duration="1" Instrument="Duty 0" FinePitch="-7"
				Note Time="54" Value="F#3" Duration="1" Instrument="Duty 0" FinePitch="-6"
				Note Time="55" Value="D#2" Duration="2" Instrument="Duty 0" FinePitch="0"
				Note Time="63" Value="C4" Duration="2" Instrument="Duty 0" FinePitch="1"
				Note Time="65" Value="D#2" Duration="3" Instrument="Duty 0" FinePitch="0"
				Note Time="73" Value="D#3" Duration="1" Instrument="Duty 0"
				Note Time="74" Value="D#2" Duration="4" Instrument="Duty 0"
				Note Time="83" Value="E4" Duration="1" Instrument="Duty 0"
				Note Time="84" Value="A#3" Duration="1" Instrument="Duty 0" FinePitch="-7"
				Note Time="85" Value="F#3" Duration="1" Instrument="Duty 0" FinePitch="-6"
				Note Time="86" Value="F2" Duration="3" Instrument="Duty 0" FinePitch="0"
				Note Time="94" Value="F3" Duration="1" Instrument="Duty 0"
				Note Time="95" Value="F2" Duration="4" Instrument="Duty 0"
				Note Time="104" Value="C4" Duration="2" Instrument="Duty 0" FinePitch="1"
				Note Time="106" Value="A#2" Duration="1" Instrument="Duty 0" FinePitch="-8"
				Note Time="107" Value="F2" Duration="2" Instrument="Duty 0" FinePitch="0"
				Note Time="114" Value="F3" Duration="1" Instrument="Duty 0"
				Note Time="115" Value="F2" Duration="5" Instrument="Duty 0"
				Note Time="125" Value="F3" Duration="1" Instrument="Duty 0"
				Note Time="126" Value="F2" Duration="4" Instrument="Duty 0"
				Note Time="135" Value="E4" Duration="1" Instrument="Duty 0"
				Note Time="136" Value="A#3" Duration="1" Instrument="Duty 0" FinePitch="-7"
				Note Time="137" Value="F#3" Duration="1" Instrument="Duty 0" FinePitch="-6"
				Note Time="138" Value="F2" Duration="2" Instrument="Duty 0" FinePitch="0"
				Note Time="145" Value="C4" Duration="2" Instrument="Duty 0" FinePitch="1"
				Note Time="147" Value="A#2" Duration="1" Instrument="Duty 0" FinePitch="-8"
				Note Time="148" Value="F2" Duration="3" Instrument="Duty 0" FinePitch="0"
				Note Time="156" Value="F3" Duration="1" Instrument="Duty 0"
				Note Time="157" Value="F2" Duration="4" Instrument="Duty 0"
				Note Time="166" Value="E4" Duration="1" Instrument="Duty 0"
				Note Time="167" Value="A#3" Duration="1" Instrument="Duty 0" FinePitch="-7"
				Note Time="168" Value="F#3" Duration="1" Instrument="Duty 0" FinePitch="-6"
				Note Time="169" Value="A#1" Duration="2" Instrument="Duty 0" FinePitch="0"
				Note Time="177" Value="A#2" Duration="1" Instrument="Duty 0"
				Note Time="178" Value="A#1" Duration="4" Instrument="Duty 0"
				Note Time="187" Value="C4" Duration="2" Instrument="Duty 0" FinePitch="1"
				Note Time="189" Value="A#2" Duration="1" Instrument="Duty 0" FinePitch="-8"
				Note Time="190" Value="A#1" Duration="2" Instrument="Duty 0" FinePitch="0"
				Note Time="197" Value="A#2" Duration="1" Instrument="Duty 0"
				Note Time="198" Value="A#1" Duration="4" Instrument="Duty 0"
				Note Time="208" Value="A#2" Duration="1" Instrument="Duty 0"
				Note Time="209" Value="A#1" Duration="4" Instrument="Duty 0"
				Note Time="218" Value="E4" Duration="1" Instrument="Duty 0"
				Note Time="219" Value="A#3" Duration="1" Instrument="Duty 0" FinePitch="-7"
				Note Time="220" Value="F#3" Duration="1" Instrument="Duty 0" FinePitch="-6"
				Note Time="221" Value="A#1" Duration="2" Instrument="Duty 0" FinePitch="0"
				Note Time="228" Value="C4" Duration="2" Instrument="Duty 0" FinePitch="1"
				Note Time="230" Value="A#2" Duration="1" Instrument="Duty 0" FinePitch="-8"
				Note Time="231" Value="A#1" Duration="3" Instrument="Duty 0" FinePitch="0"
				Note Time="239" Value="A#2" Duration="1" Instrument="Duty 0"
				Note Time="240" Value="A#1" Duration="4" Instrument="Duty 0"
				Note Time="249" Value="E4" Duration="1" Instrument="Duty 0"
				Note Time="250" Value="A#3" Duration="1" Instrument="Duty 0" FinePitch="-7"
				Note Time="251" Value="F#3" Duration="1" Instrument="Duty 0" FinePitch="-6"
				Note Time="252" Value="D2" Duration="2" Instrument="Duty 0" FinePitch="0"
			Pattern Name="Pattern 2"
				Note Time="3" Value="D3" Duration="1" Instrument="Duty 0"
				Note Time="4" Value="D2" Duration="5" Instrument="Duty 0"
				Note Time="14" Value="C4" Duration="2" Instrument="Duty 0" FinePitch="1"
				Note Time="16" Value="D2" Duration="3" Instrument="Duty 0" FinePitch="0"
				Note Time="24" Value="D3" Duration="1" Instrument="Duty 0"
				Note Time="25" Value="D2" Duration="4" Instrument="Duty 0"
				Note Time="34" Value="D3" Duration="1" Instrument="Duty 0"
				Note Time="35" Value="D2" Duration="5" Instrument="Duty 0"
				Note Time="45" Value="E4" Duration="1" Instrument="Duty 0"
				Note Time="46" Value="A#3" Duration="1" Instrument="Duty 0" FinePitch="-7"
				Note Time="47" Value="D3" Duration="3" Instrument="Duty 0" FinePitch="0"
				Note Time="55" Value="C4" Duration="2" Instrument="Duty 0" FinePitch="1"
				Note Time="57" Value="A#2" Duration="1" Instrument="Duty 0" FinePitch="-8"
				Note Time="58" Value="D2" Duration="2" Instrument="Duty 0" FinePitch="0"
				Note Time="66" Value="D3" Duration="1" Instrument="Duty 0"
				Note Time="67" Value="D2" Duration="4" Instrument="Duty 0"
				Note Time="76" Value="E4" Duration="1" Instrument="Duty 0"
				Note Time="77" Value="A#3" Duration="1" Instrument="Duty 0" FinePitch="-7"
				Note Time="78" Value="D#2" Duration="3" Instrument="Duty 0" FinePitch="0"
				Note Time="86" Value="D#3" Duration="1" Instrument="Duty 0"
				Note Time="87" Value="D#2" Duration="4" Instrument="Duty 0"
				Note Time="97" Value="C4" Duration="2" Instrument="Duty 0" FinePitch="1"
				Note Time="99" Value="D#2" Duration="3" Instrument="Duty 0" FinePitch="0"
				Note Time="107" Value="D#3" Duration="1" Instrument="Duty 0"
				Note Time="108" Value="D#2" Duration="4" Instrument="Duty 0"
				Note Time="117" Value="C#3" Duration="1" Instrument="Duty 0"
				Note Time="118" Value="C#2" Duration="5" Instrument="Duty 0"
				Note Time="128" Value="E4" Duration="1" Instrument="Duty 0"
				Note Time="129" Value="A#3" Duration="1" Instrument="Duty 0" FinePitch="-7"
				Note Time="130" Value="C#2" Duration="3" Instrument="Duty 0" FinePitch="0"
				Note Time="138" Value="C4" Duration="2" Instrument="Duty 0" FinePitch="1"
				Note Time="140" Value="A#2" Duration="1" Instrument="Duty 0" FinePitch="-8"
				Note Time="141" Value="C#2" Duration="2" Instrument="Duty 0" FinePitch="0"
				Note Time="148" Value="C#3" Duration="1" Instrument="Duty 0"
				Note Time="149" Value="C#2" Duration="5" Instrument="Duty 0"
				Note Time="159" Value="E4" Duration="1" Instrument="Duty 0"
				Note Time="160" Value="A#3" Duration="1" Instrument="Duty 0" FinePitch="-7"
				Note Time="161" Value="C2" Duration="3" Instrument="Duty 0" FinePitch="0"
				Note Time="169" Value="C3" Duration="1" Instrument="Duty 0"
				Note Time="170" Value="C2" Duration="4" Instrument="Duty 0"
				Note Time="179" Value="C4" Duration="2" Instrument="Duty 0" FinePitch="1"
				Note Time="181" Value="A#2" Duration="1" Instrument="Duty 0" FinePitch="-8"
				Note Time="182" Value="C2" Duration="3" Instrument="Duty 0" FinePitch="0"
				Note Time="190" Value="C3" Duration="1" Instrument="Duty 0"
				Note Time="191" Value="C2" Duration="4" Instrument="Duty 0"
				Note Time="200" Value="C3" Duration="1" Instrument="Duty 0"
				Note Time="201" Value="C2" Duration="4" Instrument="Duty 0"
				Note Time="211" Value="E4" Duration="1" Instrument="Duty 0"
				Note Time="212" Value="A#3" Duration="1" Instrument="Duty 0" FinePitch="-7"
				Note Time="213" Value="C2" Duration="3" Instrument="Duty 0" FinePitch="0"
				Note Time="221" Value="C4" Duration="2" Instrument="Duty 0" FinePitch="1"
				Note Time="223" Value="C2" Duration="3" Instrument="Duty 0" FinePitch="0"
				Note Time="231" Value="C3" Duration="1" Instrument="Duty 0"
				Note Time="232" Value="C2" Duration="4" Instrument="Duty 0"
				Note Time="242" Value="E4" Duration="1" Instrument="Duty 0"
				Note Time="243" Value="A#3" Duration="1" Instrument="Duty 0" FinePitch="-7"
				Note Time="244" Value="C#2" Duration="3" Instrument="Duty 0" FinePitch="0"
				Note Time="252" Value="C#3" Duration="1" Instrument="Duty 0"
				Note Time="253" Value="C#2" Duration="4" Instrument="Duty 0"
			Pattern Name="Pattern 3"
				Note Time="6" Value="C4" Duration="2" Instrument="Duty 0" FinePitch="1"
				Note Time="8" Value="A#2" Duration="1" Instrument="Duty 0" FinePitch="-8"
				Note Time="9" Value="C#2" Duration="3" Instrument="Duty 0" FinePitch="0"
				Note Time="17" Value="C#3" Duration="1" Instrument="Duty 0"
				Note Time="18" Value="C#2" Duration="4" Instrument="Duty 0"
				Note Time="27" Value="C#3" Duration="1" Instrument="Duty 0"
				Note Time="28" Value="C#2" Duration="4" Instrument="Duty 0"
				Note Time="37" Value="E4" Duration="1" Instrument="Duty 0"
				Note Time="38" Value="A#3" Duration="1" Instrument="Duty 0" FinePitch="-7"
				Note Time="39" Value="F#3" Duration="1" Instrument="Duty 0" FinePitch="-6"
				Note Time="40" Value="C#2" Duration="3" Instrument="Duty 0" FinePitch="0"
				Note Time="48" Value="C4" Duration="2" Instrument="Duty 0" FinePitch="1"
				Note Time="50" Value="C#2" Duration="3" Instrument="Duty 0" FinePitch="0"
				Note Time="58" Value="C#3" Duration="1" Instrument="Duty 0"
				Note Time="59" Value="C#2" Duration="4" Instrument="Duty 0"
				Note Time="68" Value="E4" Duration="1" Instrument="Duty 0"
				Note Time="69" Value="A#3" Duration="1" Instrument="Duty 0" FinePitch="-7"
				Note Time="70" Value="F#3" Duration="1" Instrument="Duty 0" FinePitch="-6"
				Note Time="71" Value="D2" Duration="3" Instrument="Duty 0" FinePitch="0"
				Note Time="79" Value="D3" Duration="1" Instrument="Duty 0"
				Note Time="80" Value="D2" Duration="4" Instrument="Duty 0"
				Note Time="89" Value="C4" Duration="2" Instrument="Duty 0" FinePitch="1"
				Note Time="91" Value="A#2" Duration="1" Instrument="Duty 0" FinePitch="-8"
				Note Time="92" Value="D2" Duration="2" Instrument="Duty 0" FinePitch="0"
				Note Time="100" Value="D3" Duration="1" Instrument="Duty 0"
				Note Time="101" Value="D2" Duration="4" Instrument="Duty 0"
				Note Time="110" Value="D3" Duration="1" Instrument="Duty 0"
				Note Time="111" Value="D2" Duration="4" Instrument="Duty 0"
				Note Time="120" Value="E4" Duration="1" Instrument="Duty 0"
				Note Time="121" Value="A#3" Duration="1" Instrument="Duty 0" FinePitch="-7"
				Note Time="122" Value="F#3" Duration="1" Instrument="Duty 0" FinePitch="-6"
				Note Time="123" Value="D3" Duration="2" Instrument="Duty 0" FinePitch="0"
				Note Time="125" Value="G4" Duration="1" Instrument="Duty 0" FinePitch="2"
				Note Time="126" Value="F#4" Duration="2" Instrument="Duty 0" FinePitch="-4"
				Note Time="127" FinePitch="4"
				Note Time="131" Value="C4" Duration="2" Instrument="Duty 0" FinePitch="1"
				Note Time="133" Value="D2" Duration="3" Instrument="Duty 0" FinePitch="0"
				Note Time="141" Value="E4" Duration="1" Instrument="Duty 0"
				Note Time="142" Value="A#3" Duration="1" Instrument="Duty 0" FinePitch="-7"
				Note Time="143" Value="F#3" Duration="1" Instrument="Duty 0" FinePitch="-6"
				Note Time="144" Value="D2" Duration="2" Instrument="Duty 0" FinePitch="0"
				Note Time="151" Value="E4" Duration="1" Instrument="Duty 0"
				Note Time="152" Value="A#3" Duration="1" Instrument="Duty 0" FinePitch="-7"
				Note Time="153" Value="F#3" Duration="1" Instrument="Duty 0" FinePitch="-6"
				Note Time="154" Value="D#2" Duration="2" Instrument="Duty 0" FinePitch="0"
				Note Time="162" Value="D#3" Duration="1" Instrument="Duty 0"
				Note Time="163" Value="D#2" Duration="4" Instrument="Duty 0"
				Note Time="172" Value="C4" Duration="2" Instrument="Duty 0" FinePitch="1"
				Note Time="174" Value="A#2" Duration="1" Instrument="Duty 0" FinePitch="-8"
				Note Time="175" Value="D#2" Duration="2" Instrument="Duty 0" FinePitch="0"
				Note Time="182" Value="D#3" Duration="1" Instrument="Duty 0"
				Note Time="183" Value="D#2" Duration="5" Instrument="Duty 0"
				Note Time="193" Value="D#3" Duration="1" Instrument="Duty 0"
				Note Time="194" Value="D#2" Duration="4" Instrument="Duty 0"
				Note Time="203" Value="E4" Duration="1" Instrument="Duty 0"
				Note Time="204" Value="A#3" Duration="1" Instrument="Duty 0" FinePitch="-7"
				Note Time="205" Value="F#3" Duration="1" Instrument="Duty 0" FinePitch="-6"
				Note Time="206" Value="D#2" Duration="2" Instrument="Duty 0" FinePitch="0"
				Note Time="213" Value="C4" Duration="2" Instrument="Duty 0" FinePitch="1"
				Note Time="215" Value="A#2" Duration="1" Instrument="Duty 0" FinePitch="-8"
				Note Time="216" Value="D#2" Duration="3" Instrument="Duty 0" FinePitch="0"
				Note Time="224" Value="D#3" Duration="1" Instrument="Duty 0"
				Note Time="225" Value="D#2" Duration="4" Instrument="Duty 0"
				Note Time="234" Value="E4" Duration="1" Instrument="Duty 0"
				Note Time="235" Value="A#3" Duration="1" Instrument="Duty 0" FinePitch="-7"
				Note Time="236" Value="F#3" Duration="1" Instrument="Duty 0" FinePitch="-6"
				Note Time="237" Value="F2" Duration="2" Instrument="Duty 0" FinePitch="0"
				Note Time="245" Value="F3" Duration="1" Instrument="Duty 0"
				Note Time="246" Value="F2" Duration="4" Instrument="Duty 0"
				Note Time="255" Value="C4" Duration="2" Instrument="Duty 0" FinePitch="1"
			Pattern Name="Pattern 4"
				Note Time="1" Value="F2" Duration="3" Instrument="Duty 0" FinePitch="0"
				Note Time="9" Value="F3" Duration="1" Instrument="Duty 0"
				Note Time="10" Value="F2" Duration="4" Instrument="Duty 0"
				Note Time="20" Value="F3" Duration="1" Instrument="Duty 0"
				Note Time="21" Value="F2" Duration="4" Instrument="Duty 0"
				Note Time="30" Value="E4" Duration="1" Instrument="Duty 0"
				Note Time="31" Value="A#3" Duration="1" Instrument="Duty 0" FinePitch="-7"
				Note Time="32" Value="F#3" Duration="1" Instrument="Duty 0" FinePitch="-6"
				Note Time="33" Value="F2" Duration="2" Instrument="Duty 0" FinePitch="0"
				Note Time="40" Value="C4" Duration="2" Instrument="Duty 0" FinePitch="1"
				Note Time="42" Value="A#2" Duration="1" Instrument="Duty 0" FinePitch="-8"
				Note Time="43" Value="F2" Duration="2" Instrument="Duty 0" FinePitch="0"
				Note Time="51" Value="F3" Duration="1" Instrument="Duty 0"
				Note Time="52" Value="F2" Duration="4" Instrument="Duty 0"
				Note Time="61" Value="E4" Duration="1" Instrument="Duty 0"
				Note Time="62" Value="A#3" Duration="1" Instrument="Duty 0" FinePitch="-7"
				Note Time="63" Value="F#3" Duration="1" Instrument="Duty 0" FinePitch="-6"
				Note Time="64" Value="A#1" Duration="2" Instrument="Duty 0" FinePitch="0"
				Note Time="71" Value="A#2" Duration="1" Instrument="Duty 0"
				Note Time="72" Value="A#1" Duration="5" Instrument="Duty 0"
				Note Time="82" Value="C4" Duration="2" Instrument="Duty 0" FinePitch="1"
				Note Time="84" Value="A#1" Duration="3" Instrument="Duty 0" FinePitch="0"
				Note Time="92" Value="A#2" Duration="1" Instrument="Duty 0"
				Note Time="93" Value="A#1" Duration="4" Instrument="Duty 0"
				Note Time="102" Value="A#2" Duration="1" Instrument="Duty 0"
				Note Time="103" Value="A#1" Duration="5" Instrument="Duty 0"
				Note Time="113" Value="E4" Duration="1" Instrument="Duty 0"
				Note Time="114" Value="A#3" Duration="1" Instrument="Duty 0" FinePitch="-7"
				Note Time="115" Value="A#1" Duration="3" Instrument="Duty 0" FinePitch="0"
				Note Time="123" Value="C4" Duration="2" Instrument="Duty 0" FinePitch="1"
				Note Time="125" Value="A#2" Duration="1" Instrument="Duty 0" FinePitch="-8"
				Note Time="126" Value="A#1" Duration="2" Instrument="Duty 0" FinePitch="0"
				Note Time="134" Value="A#2" Duration="1" Instrument="Duty 0"
				Note Time="135" Value="A#1" Duration="4" Instrument="Duty 0"
				Note Time="144" Value="E4" Duration="1" Instrument="Duty 0"
				Note Time="145" Value="A#3" Duration="1" Instrument="Duty 0" FinePitch="-7"
				Note Time="146" Value="D2" Duration="3" Instrument="Duty 0" FinePitch="0"
				Note Time="154" Value="D3" Duration="1" Instrument="Duty 0"
				Note Time="155" Value="D2" Duration="4" Instrument="Duty 0"
				Note Time="165" Value="C4" Duration="2" Instrument="Duty 0" FinePitch="1"
				Note Time="167" Value="D2" Duration="3" Instrument="Duty 0" FinePitch="0"
				Note Time="175" Value="D3" Duration="1" Instrument="Duty 0"
				Note Time="176" Value="D2" Duration="4" Instrument="Duty 0"
				Note Time="185" Value="D3" Duration="1" Instrument="Duty 0"
				Note Time="186" Value="D2" Duration="4" Instrument="Duty 0"
				Note Time="196" Value="E4" Duration="1" Instrument="Duty 0"
				Note Time="197" Value="A#3" Duration="1" Instrument="Duty 0" FinePitch="-7"
				Note Time="198" Value="D3" Duration="3" Instrument="Duty 0" FinePitch="0"
				Note Time="206" Value="C4" Duration="2" Instrument="Duty 0" FinePitch="1"
				Note Time="208" Value="A#2" Duration="1" Instrument="Duty 0" FinePitch="-8"
				Note Time="209" Value="D2" Duration="2" Instrument="Duty 0" FinePitch="0"
				Note Time="216" Value="D3" Duration="1" Instrument="Duty 0"
				Note Time="217" Value="D2" Duration="5" Instrument="Duty 0"
				Note Time="227" Value="E4" Duration="1" Instrument="Duty 0"
				Note Time="228" Value="A#3" Duration="1" Instrument="Duty 0" FinePitch="-7"
				Note Time="229" Value="B1" Duration="3" Instrument="Duty 0" FinePitch="0"
				Note Time="237" Value="B2" Duration="1" Instrument="Duty 0"
				Note Time="238" Value="B1" Duration="4" Instrument="Duty 0"
				Note Time="247" Value="C4" Duration="2" Instrument="Duty 0" FinePitch="1"
				Note Time="249" Value="A#2" Duration="1" Instrument="Duty 0" FinePitch="-8"
				Note Time="250" Value="B1" Duration="3" Instrument="Duty 0" FinePitch="0"
			Pattern Name="Pattern 5"
				Note Time="2" Value="B2" Duration="1" Instrument="Duty 0"
				Note Time="3" Value="B1" Duration="4" Instrument="Duty 0"
				Note Time="12" Value="B2" Duration="1" Instrument="Duty 0"
				Note Time="13" Value="B1" Duration="4" Instrument="Duty 0"
				Note Time="23" Value="E4" Duration="1" Instrument="Duty 0"
				Note Time="24" Value="A#3" Duration="1" Instrument="Duty 0" FinePitch="-7"
				Note Time="25" Value="B1" Duration="3" Instrument="Duty 0" FinePitch="0"
				Note Time="33" Value="C4" Duration="2" Instrument="Duty 0" FinePitch="1"
				Note Time="35" Value="B1" Duration="3" Instrument="Duty 0" FinePitch="0"
				Note Time="43" Value="B2" Duration="1" Instrument="Duty 0"
				Note Time="44" Value="B1" Duration="4" Instrument="Duty 0"
				Note Time="54" Value="E4" Duration="1" Instrument="Duty 0"
				Note Time="55" Value="A#3" Duration="1" Instrument="Duty 0" FinePitch="-7"
				Note Time="56" Value="C2" Duration="3" Instrument="Duty 0" FinePitch="0"
				Note Time="64" Value="C3" Duration="1" Instrument="Duty 0"
				Note Time="65" Value="C2" Duration="4" Instrument="Duty 0"
				Note Time="74" Value="C4" Duration="2" Instrument="Duty 0" FinePitch="1"
				Note Time="76" Value="A#2" Duration="1" Instrument="Duty 0" FinePitch="-8"
				Note Time="77" Value="C2" Duration="2" Instrument="Duty 0" FinePitch="0"
				Note Time="85" Value="C3" Duration="1" Instrument="Duty 0"
				Note Time="86" Value="C2" Duration="4" Instrument="Duty 0"
				Note Time="95" Value="C3" Duration="1" Instrument="Duty 0"
				Note Time="96" Value="C2" Duration="4" Instrument="Duty 0"
				Note Time="105" Value="E4" Duration="1" Instrument="Duty 0"
				Note Time="106" Value="A#3" Duration="1" Instrument="Duty 0" FinePitch="-7"
				Note Time="107" Value="F#3" Duration="1" Instrument="Duty 0" FinePitch="-6"
				Note Time="108" Value="C2" Duration="3" Instrument="Duty 0" FinePitch="0"
				Note Time="116" Value="C4" Duration="2" Instrument="Duty 0" FinePitch="1"
				Note Time="118" Value="C2" Duration="3" Instrument="Duty 0" FinePitch="0"
				Note Time="126" Value="C3" Duration="1" Instrument="Duty 0"
				Note Time="127" Value="C2" Duration="4" Instrument="Duty 0"
				Note Time="136" Value="E4" Duration="1" Instrument="Duty 0"
				Note Time="137" Value="A#3" Duration="1" Instrument="Duty 0" FinePitch="-7"
				Note Time="138" Value="F#3" Duration="1" Instrument="Duty 0" FinePitch="-6"
				Note Time="139" Value="C#2" Duration="3" Instrument="Duty 0" FinePitch="0"
				Note Time="147" Value="C#3" Duration="1" Instrument="Duty 0"
				Note Time="148" Value="C#2" Duration="4" Instrument="Duty 0"
				Note Time="157" Value="C4" Duration="2" Instrument="Duty 0" FinePitch="1"
				Note Time="159" Value="A#2" Duration="1" Instrument="Duty 0" FinePitch="-8"
				Note Time="160" Value="C#2" Duration="2" Instrument="Duty 0" FinePitch="0"
				Note Time="167" Value="C#3" Duration="1" Instrument="Duty 0"
				Note Time="168" Value="C#2" Duration="5" Instrument="Duty 0"
				Note Time="178" Value="C#3" Duration="1" Instrument="Duty 0"
				Note Time="179" Value="C#2" Duration="4" Instrument="Duty 0"
				Note Time="188" Value="E4" Duration="1" Instrument="Duty 0"
				Note Time="189" Value="A#3" Duration="1" Instrument="Duty 0" FinePitch="-7"
				Note Time="190" Value="F#3" Duration="1" Instrument="Duty 0" FinePitch="-6"
				Note Time="191" Value="C#2" Duration="2" Instrument="Duty 0" FinePitch="0"
				Note Time="199" Value="C4" Duration="2" Instrument="Duty 0" FinePitch="1"
				Note Time="201" Value="C#2" Duration="3" Instrument="Duty 0" FinePitch="0"
				Note Time="209" Value="C#3" Duration="1" Instrument="Duty 0"
				Note Time="210" Value="C#2" Duration="4" Instrument="Duty 0"
				Note Time="219" Value="E4" Duration="1" Instrument="Duty 0"
				Note Time="220" Value="A#3" Duration="1" Instrument="Duty 0" FinePitch="-7"
				Note Time="221" Value="F#3" Duration="1" Instrument="Duty 0" FinePitch="-6"
				Note Time="222" Value="D2" Duration="2" Instrument="Duty 0" FinePitch="0"
				Note Time="224" Value="G4" Duration="1" Instrument="Duty 0" FinePitch="2"
				Note Time="225" Value="F#4" Duration="2" Instrument="Duty 0" FinePitch="-4"
				Note Time="226" FinePitch="4"
				Note Time="230" Value="C4" Duration="2" Instrument="Duty 0" FinePitch="2"
				Note Time="231" FinePitch="4"
				Note Time="232" Value="B3" Duration="1" Instrument="Duty 0" FinePitch="0"
				Note Time="233" Value="A#3" Duration="2" Instrument="Duty 0" FinePitch="-6"
				Note Time="234" FinePitch="2"
				Note Time="235" Value="D2" Duration="2" Instrument="Duty 0" FinePitch="0"
				Note Time="240" Value="A3" Duration="1" Instrument="Duty 0"
				Note Time="241" Value="D#4" Duration="1" Instrument="Duty 0"
				Note Time="242" Value="D4" Duration="1" Instrument="Duty 0"
				Note Time="243" Value="D2" Duration="2" Instrument="Duty 0"
				Note Time="250" Value="E4" Duration="1" Instrument="Duty 0"
				Note Time="251" Value="A#3" Duration="1" Instrument="Duty 0" FinePitch="-7"
				Note Time="252" Value="F#3" Duration="1" Instrument="Duty 0" FinePitch="-6"
				Note Time="253" Value="D2" Duration="3" Instrument="Duty 0" FinePitch="0"
			PatternInstance Time="0" Pattern="Pattern 1"
			PatternInstance Time="1" Pattern="Pattern 2"
			PatternInstance Time="2" Pattern="Pattern 3"
			PatternInstance Time="3" Pattern="Pattern 4"
			PatternInstance Time="4" Pattern="Pattern 5"
		Channel Type="Noise"
			Pattern Name="Pattern 1"
				Note Time="0" Value="F3" Duration="1" Instrument="Duty 0" Volume="12"
				Note Time="1" Value="F#3" Duration="1" Instrument="Duty 0"
				Note Time="2" Value="F3" Duration="1" Instrument="Duty 1" Volume="11"
				Note Time="3" Value="F3" Duration="3" Instrument="Duty 0" Volume="10"
				Note Time="6" Value="F3" Duration="1" Instrument="Duty 1" Volume="9"
				Note Time="7" Value="F3" Duration="2" Instrument="Duty 0"
				Note Time="9" Value="F3" Duration="1" Instrument="Duty 1" Volume="8"
				Note Time="10" Value="F3" Duration="3" Instrument="Duty 0"
				Note Time="12" Volume="7"
				Note Time="13" Value="F3" Duration="1" Instrument="Duty 1"
				Note Time="14" Value="E3" Duration="2" Instrument="Duty 0"
				Note Time="16" Value="E3" Duration="1" Instrument="Duty 1"
				Note Time="17" Value="E3" Duration="3" Instrument="Duty 0"
				Note Time="18" Volume="6"
				Note Time="20" Value="E3" Duration="1" Instrument="Duty 1"
				Note Time="21" Value="F3" Duration="1" Instrument="Duty 0" Volume="10"
				Note Time="22" Value="C3" Duration="1" Instrument="Duty 1" Volume="9"
				Note Time="23" Value="C#3" Duration="1" Instrument="Duty 1" Volume="8"
				Note Time="24" Value="D3" Duration="1" Instrument="Duty 1" Volume="7"
				Note Time="25" Value="D#3" Duration="1" Instrument="Duty 1"
				Note Time="26" Value="E3" Duration="1" Instrument="Duty 0"
				Note Time="27" Value="E3" Duration="1" Instrument="Duty 1"
				Note Time="28" Value="E3" Duration="1" Instrument="Duty 0" Volume="6"
				Note Time="29" Value="E3" Duration="1" Instrument="Duty 1"
				Note Time="30" Value="E3" Duration="2" Instrument="Duty 0"
				Note Time="32" Value="A3" Duration="1" Instrument="Duty 0" Volume="7"
				Note Time="33" Value="F#3" Duration="1" Instrument="Duty 1"
				Note Time="34" Value="G3" Duration="1" Instrument="Duty 0" Volume="6"
				Note Time="35" Value="G#3" Duration="1" Instrument="Duty 0" Volume="5"
				Note Time="36" Value="G3" Duration="1" Instrument="Duty 0" Volume="4"
				Note Time="37" Value="A3" Duration="1" Instrument="Duty 0" Volume="5"
				Note Time="38" Value="F#3" Duration="1" Instrument="Duty 1"
				Note Time="39" Value="G3" Duration="1" Instrument="Duty 0" Volume="4"
				Note Time="40" Value="G#3" Duration="1" Instrument="Duty 0" Volume="3"
				Note Time="41" Value="G3" Duration="1" Instrument="Duty 0"
				Note Time="42" Value="A3" Duration="1" Instrument="Duty 0" Volume="7"
				Note Time="43" Value="F#3" Duration="1" Instrument="Duty 1"
				Note Time="44" Value="G3" Duration="1" Instrument="Duty 0" Volume="6"
				Note Time="45" Value="G#3" Duration="1" Instrument="Duty 0" Volume="5"
				Note Time="46" Value="G3" Duration="1" Instrument="Duty 0" Volume="4"
				Note Time="47" Value="A3" Duration="1" Instrument="Duty 0" Volume="5"
				Note Time="48" Value="F#3" Duration="1" Instrument="Duty 1"
				Note Time="49" Value="G3" Duration="1" Instrument="Duty 0" Volume="4"
				Note Time="50" Value="G#3" Duration="1" Instrument="Duty 0" Volume="3"
				Note Time="51" Value="G3" Duration="1" Instrument="Duty 0"
				Note Time="52" Value="G#3" Duration="1" Instrument="Duty 0" Volume="6"
				Note Time="53" Value="A#2" Duration="1" Instrument="Duty 1" Volume="9"
				Note Time="54" Value="A2" Duration="1" Instrument="Duty 1" Volume="7"
				Note Time="55" Value="A2" Duration="1" Instrument="Duty 0" Volume="6"
				Note Time="56" Value="G#2" Duration="1" Instrument="Duty 0"
				Note Time="57" Value="A3" Duration="1" Instrument="Duty 0" Volume="2"
				Note Time="58" Value="F#3" Duration="1" Instrument="Duty 1"
				Note Time="59" Value="G3" Duration="1" Instrument="Duty 0"
				Note Time="60" Value="G#3" Duration="1" Instrument="Duty 0"
				Note Time="61" Value="G3" Duration="1" Instrument="Duty 0" Volume="1"
				Note Time="62" Value="G#3" Duration="1" Instrument="Duty 0"
				Note Time="63" Value="F3" Duration="1" Instrument="Duty 0" Volume="10"
				Note Time="64" Value="C3" Duration="1" Instrument="Duty 1" Volume="9"
				Note Time="65" Value="C#3" Duration="1" Instrument="Duty 1" Volume="8"
				Note Time="66" Value="D3" Duration="1" Instrument="Duty 1" Volume="7"
				Note Time="67" Value="D#3" Duration="1" Instrument="Duty 1"
				Note Time="68" Value="E3" Duration="1" Instrument="Duty 0"
				Note Time="69" Value="E3" Duration="1" Instrument="Duty 1"
				Note Time="70" Value="E3" Duration="1" Instrument="Duty 0" Volume="6"
				Note Time="71" Value="E3" Duration="1" Instrument="Duty 1"
				Note Time="72" Value="E3" Duration="1" Instrument="Duty 0"
				Note Time="73" Value="A3" Duration="1" Instrument="Duty 0" Volume="7"
				Note Time="74" Value="F#3" Duration="1" Instrument="Duty 1"
				Note Time="75" Value="G3" Duration="1" Instrument="Duty 0" Volume="6"
				Note Time="76" Value="G#3" Duration="1" Instrument="Duty 0" Volume="5"
				Note Time="77" Value="G3" Duration="1" Instrument="Duty 0" Volume="4"
				Note Time="78" Value="A3" Duration="1" Instrument="Duty 0" Volume="5"
				Note Time="79" Value="F#3" Duration="1" Instrument="Duty 1"
				Note Time="80" Value="G3" Duration="1" Instrument="Duty 0" Volume="4"
				Note Time="81" Value="G#3" Duration="1" Instrument="Duty 0" Volume="3"
				Note Time="82" Value="G3" Duration="1" Instrument="Duty 0"
				Note Time="83" Value="G#3" Duration="1" Instrument="Duty 0" Volume="6"
				Note Time="84" Value="A#2" Duration="1" Instrument="Duty 1" Volume="9"
				Note Time="85" Value="A2" Duration="1" Instrument="Duty 1" Volume="7"
				Note Time="86" Value="A2" Duration="1" Instrument="Duty 0" Volume="6"
				Note Time="87" Value="G#2" Duration="7" Instrument="Duty 0"
				Note Time="88" Volume="5"
				Note Time="89" Volume="4"
				Note Time="91" Volume="3"
				Note Time="94" Value="A3" Duration="1" Instrument="Duty 0" Volume="7"
				Note Time="95" Value="F#3" Duration="1" Instrument="Duty 1"
				Note Time="96" Value="G3" Duration="1" Instrument="Duty 0" Volume="6"
				Note Time="97" Value="G#3" Duration="1" Instrument="Duty 0" Volume="5"
				Note Time="98" Value="G3" Duration="1" Instrument="Duty 0" Volume="4"
				Note Time="99" Value="A3" Duration="1" Instrument="Duty 0" Volume="2"
				Note Time="100" Value="F#3" Duration="1" Instrument="Duty 1"
				Note Time="101" Value="G3" Duration="1" Instrument="Duty 0"
				Note Time="102" Value="G#3" Duration="1" Instrument="Duty 0"
				Note Time="103" Value="G3" Duration="1" Instrument="Duty 0" Volume="1"
				Note Time="104" Value="F3" Duration="1" Instrument="Duty 0" Volume="10"
				Note Time="105" Value="C3" Duration="1" Instrument="Duty 1" Volume="9"
				Note Time="106" Value="C#3" Duration="1" Instrument="Duty 1" Volume="8"
				Note Time="107" Value="D3" Duration="1" Instrument="Duty 1" Volume="7"
				Note Time="108" Value="D#3" Duration="1" Instrument="Duty 1"
				Note Time="109" Value="E3" Duration="1" Instrument="Duty 0"
				Note Time="110" Value="E3" Duration="1" Instrument="Duty 1"
				Note Time="111" Value="E3" Duration="1" Instrument="Duty 0" Volume="6"
				Note Time="112" Value="E3" Duration="1" Instrument="Duty 1"
				Note Time="113" Value="E3" Duration="1" Instrument="Duty 0"
				Note Time="114" Value="A3" Duration="1" Instrument="Duty 0" Volume="7"
				Note Time="115" Value="F#3" Duration="1" Instrument="Duty 1"
				Note Time="116" Value="G3" Duration="1" Instrument="Duty 0" Volume="6"
				Note Time="117" Value="G#3" Duration="1" Instrument="Duty 0" Volume="5"
				Note Time="118" Value="G3" Duration="1" Instrument="Duty 0" Volume="4"
				Note Time="119" Value="G#3" Duration="1" Instrument="Duty 0"
				Note Time="120" Value="A3" Duration="1" Instrument="Duty 0" Volume="5"
				Note Time="121" Value="F#3" Duration="1" Instrument="Duty 1"
				Note Time="122" Value="G3" Duration="1" Instrument="Duty 0" Volume="4"
				Note Time="123" Value="G#3" Duration="1" Instrument="Duty 0" Volume="3"
				Note Time="124" Value="G3" Duration="1" Instrument="Duty 0"
				Note Time="125" Value="A3" Duration="1" Instrument="Duty 0" Volume="7"
				Note Time="126" Value="F#3" Duration="1" Instrument="Duty 1"
				Note Time="127" Value="G3" Duration="1" Instrument="Duty 0" Volume="6"
				Note Time="128" Value="G#3" Duration="1" Instrument="Duty 0" Volume="5"
				Note Time="129" Value="G3" Duration="1" Instrument="Duty 0" Volume="4"
				Note Time="130" Value="A3" Duration="1" Instrument="Duty 0" Volume="5"
				Note Time="131" Value="F#3" Duration="1" Instrument="Duty 1"
				Note Time="132" Value="G3" Duration="1" Instrument="Duty 0" Volume="4"
				Note Time="133" Value="G#3" Duration="1" Instrument="Duty 0" Volume="3"
				Note Time="134" Value="G3" Duration="1" Instrument="Duty 0"
				Note Time="135" Value="G#3" Duration="1" Instrument="Duty 0" Volume="6"
				Note Time="136" Value="A#2" Duration="1" Instrument="Duty 1" Volume="9"
				Note Time="137" Value="A2" Duration="1" Instrument="Duty 1" Volume="7"
				Note Time="138" Value="A2" Duration="1" Instrument="Duty 0" Volume="6"
				Note Time="139" Value="G#2" Duration="1" Instrument="Duty 0"
				Note Time="140" Value="A3" Duration="1" Instrument="Duty 0" Volume="2"
				Note Time="141" Value="F#3" Duration="1" Instrument="Duty 1"
				Note Time="142" Value="G3" Duration="1" Instrument="Duty 0"
				Note Time="143" Value="G#3" Duration="1" Instrument="Duty 0"
				Note Time="144" Value="G3" Duration="1" Instrument="Duty 0" Volume="1"
				Note Time="145" Value="F3" Duration="1" Instrument="Duty 0" Volume="10"
				Note Time="146" Value="C3" Duration="1" Instrument="Duty 1" Volume="9"
				Note Time="147" Value="C#3" Duration="1" Instrument="Duty 1" Volume="8"
				Note Time="148" Value="D3" Duration="1" Instrument="Duty 1" Volume="7"
				Note Time="149" Value="D#3" Duration="1" Instrument="Duty 1"
				Note Time="150" Value="E3" Duration="1" Instrument="Duty 0"
				Note Time="151" Value="E3" Duration="1" Instrument="Duty 1"
				Note Time="152" Value="E3" Duration="1" Instrument="Duty 0" Volume="6"
				Note Time="153" Value="E3" Duration="1" Instrument="Duty 1"
				Note Time="154" Value="E3" Duration="2" Instrument="Duty 0"
				Note Time="156" Value="A3" Duration="1" Instrument="Duty 0" Volume="7"
				Note Time="157" Value="F#3" Duration="1" Instrument="Duty 1"
				Note Time="158" Value="G3" Duration="1" Instrument="Duty 0" Volume="6"
				Note Time="159" Value="G#3" Duration="1" Instrument="Duty 0" Volume="5"
				Note Time="160" Value="G3" Duration="1" Instrument="Duty 0" Volume="4"
				Note Time="161" Value="A3" Duration="1" Instrument="Duty 0" Volume="5"
				Note Time="162" Value="F#3" Duration="1" Instrument="Duty 1"
				Note Time="163" Value="G3" Duration="1" Instrument="Duty 0" Volume="4"
				Note Time="164" Value="G#3" Duration="1" Instrument="Duty 0" Volume="3"
				Note Time="165" Value="G3" Duration="1" Instrument="Duty 0"
				Note Time="166" Value="G#3" Duration="1" Instrument="Duty 0" Volume="6"
				Note Time="167" Value="A#2" Duration="1" Instrument="Duty 1" Volume="9"
				Note Time="168" Value="A2" Duration="1" Instrument="Duty 1" Volume="7"
				Note Time="169" Value="A2" Duration="1" Instrument="Duty 0" Volume="6"
				Note Time="170" Value="G#2" Duration="7" Instrument="Duty 0"
				Note Time="171" Volume="5"
				Note Time="172" Volume="4"
				Note Time="174" Volume="3"
				Note Time="177" Value="A3" Duration="1" Instrument="Duty 0" Volume="7"
				Note Time="178" Value="F#3" Duration="1" Instrument="Duty 1"
				Note Time="179" Value="G3" Duration="1" Instrument="Duty 0" Volume="6"
				Note Time="180" Value="G#3" Duration="1" Instrument="Duty 0" Volume="5"
				Note Time="181" Value="G3" Duration="1" Instrument="Duty 0" Volume="4"
				Note Time="182" Value="A3" Duration="1" Instrument="Duty 0" Volume="2"
				Note Time="183" Value="F#3" Duration="1" Instrument="Duty 1"
				Note Time="184" Value="G3" Duration="1" Instrument="Duty 0"
				Note Time="185" Value="G#3" Duration="1" Instrument="Duty 0"
				Note Time="186" Value="G3" Duration="1" Instrument="Duty 0" Volume="1"
				Note Time="187" Value="F3" Duration="1" Instrument="Duty 0" Volume="10"
				Note Time="188" Value="C3" Duration="1" Instrument="Duty 1" Volume="9"
				Note Time="189" Value="C#3" Duration="1" Instrument="Duty 1" Volume="8"
				Note Time="190" Value="D3" Duration="1" Instrument="Duty 1" Volume="7"
				Note Time="191" Value="D#3" Duration="1" Instrument="Duty 1"
				Note Time="192" Value="E3" Duration="1" Instrument="Duty 0"
				Note Time="193" Value="E3" Duration="1" Instrument="Duty 1"
				Note Time="194" Value="E3" Duration="1" Instrument="Duty 0" Volume="6"
				Note Time="195" Value="E3" Duration="1" Instrument="Duty 1"
				Note Time="196" Value="E3" Duration="1" Instrument="Duty 0"
				Note Time="197" Value="A3" Duration="1" Instrument="Duty 0" Volume="7"
				Note Time="198" Value="F#3" Duration="1" Instrument="Duty 1"
				Note Time="199" Value="G3" Duration="1" Instrument="Duty 0" Volume="6"
				Note Time="200" Value="G#3" Duration="1" Instrument="Duty 0" Volume="5"
				Note Time="201" Value="G3" Duration="1" Instrument="Duty 0" Volume="4"
				Note Time="202" Value="A3" Duration="1" Instrument="Duty 0" Volume="5"
				Note Time="203" Value="F#3" Duration="1" Instrument="Duty 1"
				Note Time="204" Value="G3" Duration="1" Instrument="Duty 0" Volume="4"
				Note Time="205" Value="G#3" Duration="1" Instrument="Duty 0" Volume="3"
				Note Time="206" Value="G3" Duration="1" Instrument="Duty 0"
				Note Time="207" Value="G#3" Duration="1" Instrument="Duty 0"
				Note Time="208" Value="A3" Duration="1" Instrument="Duty 0" Volume="7"
				Note Time="209" Value="F#3" Duration="1" Instrument="Duty 1"
				Note Time="210" Value="G3" Duration="1" Instrument="Duty 0" Volume="6"
				Note Time="211" Value="G#3" Duration="1" Instrument="Duty 0" Volume="5"
				Note Time="212" Value="G3" Duration="1" Instrument="Duty 0" Volume="4"
				Note Time="213" Value="A3" Duration="1" Instrument="Duty 0" Volume="5"
				Note Time="214" Value="F#3" Duration="1" Instrument="Duty 1"
				Note Time="215" Value="G3" Duration="1" Instrument="Duty 0" Volume="4"
				Note Time="216" Value="G#3" Duration="1" Instrument="Duty 0" Volume="3"
				Note Time="217" Value="G3" Duration="1" Instrument="Duty 0"
				Note Time="218" Value="G#3" Duration="1" Instrument="Duty 0" Volume="6"
				Note Time="219" Value="A#2" Duration="1" Instrument="Duty 1" Volume="9"
				Note Time="220" Value="A2" Duration="1" Instrument="Duty 1" Volume="7"
				Note Time="221" Value="A2" Duration="1" Instrument="Duty 0" Volume="6"
				Note Time="222" Value="G#2" Duration="1" Instrument="Duty 0"
				Note Time="223" Value="A3" Duration="1" Instrument="Duty 0" Volume="2"
				Note Time="224" Value="F#3" Duration="1" Instrument="Duty 1"
				Note Time="225" Value="G3" Duration="1" Instrument="Duty 0"
				Note Time="226" Value="G#3" Duration="1" Instrument="Duty 0"
				Note Time="227" Value="G3" Duration="1" Instrument="Duty 0" Volume="1"
				Note Time="228" Value="F3" Duration="1" Instrument="Duty 0" Volume="10"
				Note Time="229" Value="C3" Duration="1" Instrument="Duty 1" Volume="9"
				Note Time="230" Value="C#3" Duration="1" Instrument="Duty 1" Volume="8"
				Note Time="231" Value="D3" Duration="1" Instrument="Duty 1" Volume="7"
				Note Time="232" Value="D#3" Duration="1" Instrument="Duty 1"
				Note Time="233" Value="E3" Duration="1" Instrument="Duty 0"
				Note Time="234" Value="E3" Duration="1" Instrument="Duty 1"
				Note Time="235" Value="E3" Duration="1" Instrument="Duty 0" Volume="6"
				Note Time="236" Value="E3" Duration="1" Instrument="Duty 1"
				Note Time="237" Value="E3" Duration="2" Instrument="Duty 0"
				Note Time="239" Value="A3" Duration="1" Instrument="Duty 0" Volume="7"
				Note Time="240" Value="F#3" Duration="1" Instrument="Duty 1"
				Note Time="241" Value="G3" Duration="1" Instrument="Duty 0" Volume="6"
				Note Time="242" Value="G#3" Duration="1" Instrument="Duty 0" Volume="5"
				Note Time="243" Value="G3" Duration="1" Instrument="Duty 0" Volume="4"
				Note Time="244" Value="A3" Duration="1" Instrument="Duty 0" Volume="5"
				Note Time="245" Value="F#3" Duration="1" Instrument="Duty 1"
				Note Time="246" Value="G3" Duration="1" Instrument="Duty 0" Volume="4"
				Note Time="247" Value="G#3" Duration="1" Instrument="Duty 0" Volume="3"
				Note Time="248" Value="G3" Duration="1" Instrument="Duty 0"
				Note Time="249" Value="G#3" Duration="1" Instrument="Duty 0" Volume="6"
				Note Time="250" Value="A#2" Duration="1" Instrument="Duty 1" Volume="9"
				Note Time="251" Value="A2" Duration="1" Instrument="Duty 1" Volume="7"
				Note Time="252" Value="A2" Duration="1" Instrument="Duty 0" Volume="6"
				Note Time="253" Value="G#2" Duration="6" Instrument="Duty 0"
				Note Time="254" Volume="5"
				Note Time="255" Volume="4"
			Pattern Name="Pattern 2"
				Note Time="1" Volume="3"
				Note Time="3" Value="A3" Duration="1" Instrument="Duty 0" Volume="7"
				Note Time="4" Value="F#3" Duration="1" Instrument="Duty 1"
				Note Time="5" Value="G3" Duration="1" Instrument="Duty 0" Volume="6"
				Note Time="6" Value="G#3" Duration="1" Instrument="Duty 0" Volume="5"
				Note Time="7" Value="G3" Duration="1" Instrument="Duty 0" Volume="4"
				Note Time="8" Value="G#3" Duration="1" Instrument="Duty 0"
				Note Time="9" Value="A3" Duration="1" Instrument="Duty 0" Volume="2"
				Note Time="10" Value="F#3" Duration="1" Instrument="Duty 1"
				Note Time="11" Value="G3" Duration="1" Instrument="Duty 0"
				Note Time="12" Value="G#3" Duration="1" Instrument="Duty 0"
				Note Time="13" Value="G3" Duration="1" Instrument="Duty 0" Volume="1"
				Note Time="14" Value="F3" Duration="1" Instrument="Duty 0" Volume="10"
				Note Time="15" Value="C3" Duration="1" Instrument="Duty 1" Volume="9"
				Note Time="16" Value="C#3" Duration="1" Instrument="Duty 1" Volume="8"
				Note Time="17" Value="D3" Duration="1" Instrument="Duty 1" Volume="7"
				Note Time="18" Value="D#3" Duration="1" Instrument="Duty 1"
				Note Time="19" Value="E3" Duration="1" Instrument="Duty 0"
				Note Time="20" Value="E3" Duration="1" Instrument="Duty 1"
				Note Time="21" Value="E3" Duration="1" Instrument="Duty 0" Volume="6"
				Note Time="22" Value="E3" Duration="1" Instrument="Duty 1"
				Note Time="23" Value="E3" Duration="1" Instrument="Duty 0"
				Note Time="24" Value="A3" Duration="1" Instrument="Duty 0" Volume="7"
				Note Time="25" Value="F#3" Duration="1" Instrument="Duty 1"
				Note Time="26" Value="G3" Duration="1" Instrument="Duty 0" Volume="6"
				Note Time="27" Value="G#3" Duration="1" Instrument="Duty 0" Volume="5"
				Note Time="28" Value="G3" Duration="1" Instrument="Duty 0" Volume="4"
				Note Time="29" Value="A3" Duration="1" Instrument="Duty 0" Volume="5"
				Note Time="30" Value="F#3" Duration="1" Instrument="Duty 1"
				Note Time="31" Value="G3" Duration="1" Instrument="Duty 0" Volume="4"
				Note Time="32" Value="G#3" Duration="1" Instrument="Duty 0" Volume="3"
				Note Time="33" Value="G3" Duration="1" Instrument="Duty 0"
				Note Time="34" Value="A3" Duration="1" Instrument="Duty 0" Volume="7"
				Note Time="35" Value="F#3" Duration="1" Instrument="Duty 1"
				Note Time="36" Value="G3" Duration="1" Instrument="Duty 0" Volume="6"
				Note Time="37" Value="G#3" Duration="1" Instrument="Duty 0" Volume="5"
				Note Time="38" Value="G3" Duration="1" Instrument="Duty 0" Volume="4"
				Note Time="39" Value="G#3" Duration="1" Instrument="Duty 0"
				Note Time="40" Value="A3" Duration="1" Instrument="Duty 0" Volume="5"
				Note Time="41" Value="F#3" Duration="1" Instrument="Duty 1"
				Note Time="42" Value="G3" Duration="1" Instrument="Duty 0" Volume="4"
				Note Time="43" Value="G#3" Duration="1" Instrument="Duty 0" Volume="3"
				Note Time="44" Value="G3" Duration="1" Instrument="Duty 0"
				Note Time="45" Value="G#3" Duration="1" Instrument="Duty 0" Volume="6"
				Note Time="46" Value="A#2" Duration="1" Instrument="Duty 1" Volume="9"
				Note Time="47" Value="A2" Duration="1" Instrument="Duty 1" Volume="7"
				Note Time="48" Value="A2" Duration="1" Instrument="Duty 0" Volume="6"
				Note Time="49" Value="G#2" Duration="1" Instrument="Duty 0"
				Note Time="50" Value="A3" Duration="1" Instrument="Duty 0" Volume="2"
				Note Time="51" Value="F#3" Duration="1" Instrument="Duty 1"
				Note Time="52" Value="G3" Duration="1" Instrument="Duty 0"
				Note Time="53" Value="G#3" Duration="1" Instrument="Duty 0"
				Note Time="54" Value="G3" Duration="1" Instrument="Duty 0" Volume="1"
				Note Time="55" Value="F3" Duration="1" Instrument="Duty 0" Volume="10"
				Note Time="56" Value="C3" Duration="1" Instrument="Duty 1" Volume="9"
				Note Time="57" Value="C#3" Duration="1" Instrument="Duty 1" Volume="8"
				Note Time="58" Value="D3" Duration="1" Instrument="Duty 1" Volume="7"
				Note Time="59" Value="D#3" Duration="1" Instrument="Duty 1"
				Note Time="60" Value="E3" Duration="1" Instrument="Duty 0"
				Note Time="61" Value="E3" Duration="1" Instrument="Duty 1"
				Note Time="62" Value="E3" Duration="1" Instrument="Duty 0" Volume="6"
				Note Time="63" Value="E3" Duration="1" Instrument="Duty 1"
				Note Time="64" Value="E3" Duration="2" Instrument="Duty 0"
				Note Time="66" Value="A3" Duration="1" Instrument="Duty 0" Volume="7"
				Note Time="67" Value="F#3" Duration="1" Instrument="Duty 1"
				Note Time="68" Value="G3" Duration="1" Instrument="Duty 0" Volume="6"
				Note Time="69" Value="G#3" Duration="1" Instrument="Duty 0" Volume="5"
				Note Time="70" Value="G3" Duration="1" Instrument="Duty 0" Volume="4"
				Note Time="71" Value="A3" Duration="1" Instrument="Duty 0" Volume="5"
				Note Time="72" Value="F#3" Duration="1" Instrument="Duty 1"
				Note Time="73" Value="G3" Duration="1" Instrument="Duty 0" Volume="4"
				Note Time="74" Value="G#3" Duration="1" Instrument="Duty 0" Volume="3"
				Note Time="75" Value="G3" Duration="1" Instrument="Duty 0"
				Note Time="76" Value="G#3" Duration="1" Instrument="Duty 0" Volume="6"
				Note Time="77" Value="A#2" Duration="1" Instrument="Duty 1" Volume="9"
				Note Time="78" Value="A2" Duration="1" Instrument="Duty 1" Volume="7"
				Note Time="79" Value="A2" Duration="1" Instrument="Duty 0" Volume="6"
				Note Time="80" Value="G#2" Duration="6" Instrument="Duty 0"
				Note Time="81" Volume="5"
				Note Time="82" Volume="4"
				Note Time="84" Volume="3"
				Note Time="86" Value="A3" Duration="1" Instrument="Duty 0" Volume="7"
				Note Time="87" Value="F#3" Duration="1" Instrument="Duty 1"
				Note Time="88" Value="G3" Duration="1" Instrument="Duty 0" Volume="6"
				Note Time="89" Value="G#3" Duration="1" Instrument="Duty 0" Volume="5"
				Note Time="90" Value="G3" Duration="1" Instrument="Duty 0" Volume="4"
				Note Time="91" Value="A3" Duration="1" Instrument="Duty 0" Volume="2"
				Note Time="92" Value="F#3" Duration="1" Instrument="Duty 1"
				Note Time="93" Value="G3" Duration="1" Instrument="Duty 0"
				Note Time="94" Value="G#3" Duration="1" Instrument="Duty 0"
				Note Time="95" Value="G3" Duration="1" Instrument="Duty 0" Volume="1"
				Note Time="96" Value="G#3" Duration="1" Instrument="Duty 0"
				Note Time="97" Value="F3" Duration="1" Instrument="Duty 0" Volume="10"
				Note Time="98" Value="C3" Duration="1" Instrument="Duty 1" Volume="9"
				Note Time="99" Value="C#3" Duration="1" Instrument="Duty 1" Volume="8"
				Note Time="100" Value="D3" Duration="1" Instrument="Duty 1" Volume="7"
				Note Time="101" Value="D#3" Duration="1" Instrument="Duty 1"
				Note Time="102" Value="E3" Duration="1" Instrument="Duty 0"
				Note Time="103" Value="E3" Duration="1" Instrument="Duty 1"
				Note Time="104" Value="E3" Duration="1" Instrument="Duty 0" Volume="6"
				Note Time="105" Value="E3" Duration="1" Instrument="Duty 1"
				Note Time="106" Value="E3" Duration="1" Instrument="Duty 0"
				Note Time="107" Value="A3" Duration="1" Instrument="Duty 0" Volume="7"
				Note Time="108" Value="F#3" Duration="1" Instrument="Duty 1"
				Note Time="109" Value="G3" Duration="1" Instrument="Duty 0" Volume="6"
				Note Time="110" Value="G#3" Duration="1" Instrument="Duty 0" Volume="5"
				Note Time="111" Value="G3" Duration="1" Instrument="Duty 0" Volume="4"
				Note Time="112" Value="A3" Duration="1" Instrument="Duty 0" Volume="5"
				Note Time="113" Value="F#3" Duration="1" Instrument="Duty 1"
				Note Time="114" Value="G3" Duration="1" Instrument="Duty 0" Volume="4"
				Note Time="115" Value="G#3" Duration="1" Instrument="Duty 0" Volume="3"
				Note Time="116" Value="G3" Duration="1" Instrument="Duty 0"
				Note Time="117" Value="A3" Duration="1" Instrument="Duty 0" Volume="7"
				Note Time="118" Value="F#3" Duration="1" Instrument="Duty 1"
				Note Time="119" Value="G3" Duration="1" Instrument="Duty 0" Volume="6"
				Note Time="120" Value="G#3" Duration="1" Instrument="Duty 0" Volume="5"
				Note Time="121" Value="G3" Duration="1" Instrument="Duty 0" Volume="4"
				Note Time="122" Value="G#3" Duration="1" Instrument="Duty 0"
				Note Time="123" Value="A3" Duration="1" Instrument="Duty 0" Volume="5"
				Note Time="124" Value="F#3" Duration="1" Instrument="Duty 1"
				Note Time="125" Value="G3" Duration="1" Instrument="Duty 0" Volume="4"
				Note Time="126" Value="G#3" Duration="1" Instrument="Duty 0" Volume="3"
				Note Time="127" Value="G3" Duration="1" Instrument="Duty 0"
				Note Time="128" Value="G#3" Duration="1" Instrument="Duty 0" Volume="6"
				Note Time="129" Value="A#2" Duration="1" Instrument="Duty 1" Volume="9"
				Note Time="130" Value="A2" Duration="1" Instrument="Duty 1" Volume="7"
				Note Time="131" Value="A2" Duration="1" Instrument="Duty 0" Volume="6"
				Note Time="132" Value="G#2" Duration="1" Instrument="Duty 0"
				Note Time="133" Value="A3" Duration="1" Instrument="Duty 0" Volume="2"
				Note Time="134" Value="F#3" Duration="1" Instrument="Duty 1"
				Note Time="135" Value="G3" Duration="1" Instrument="Duty 0"
				Note Time="136" Value="G#3" Duration="1" Instrument="Duty 0"
				Note Time="137" Value="G3" Duration="1" Instrument="Duty 0" Volume="1"
				Note Time="138" Value="F3" Duration="1" Instrument="Duty 0" Volume="10"
				Note Time="139" Value="C3" Duration="1" Instrument="Duty 1" Volume="9"
				Note Time="140" Value="C#3" Duration="1" Instrument="Duty 1" Volume="8"
				Note Time="141" Value="D3" Duration="1" Instrument="Duty 1" Volume="7"
				Note Time="142" Value="D#3" Duration="1" Instrument="Duty 1"
				Note Time="143" Value="E3" Duration="1" Instrument="Duty 0"
				Note Time="144" Value="E3" Duration="1" Instrument="Duty 1"
				Note Time="145" Value="E3" Duration="1" Instrument="Duty 0" Volume="6"
				Note Time="146" Value="E3" Duration="1" Instrument="Duty 1"
				Note Time="147" Value="E3" Duration="1" Instrument="Duty 0"
				Note Time="148" Value="A3" Duration="1" Instrument="Duty 0" Volume="7"
				Note Time="149" Value="F#3" Duration="1" Instrument="Duty 1"
				Note Time="150" Value="G3" Duration="1" Instrument="Duty 0" Volume="6"
				Note Time="151" Value="G#3" Duration="1" Instrument="Duty 0" Volume="5"
				Note Time="152" Value="G3" Duration="1" Instrument="Duty 0" Volume="4"
				Note Time="153" Value="G#3" Duration="1" Instrument="Duty 0"
				Note Time="154" Value="A3" Duration="1" Instrument="Duty 0" Volume="5"
				Note Time="155" Value="F#3" Duration="1" Instrument="Duty 1"
				Note Time="156" Value="G3" Duration="1" Instrument="Duty 0" Volume="4"
				Note Time="157" Value="G#3" Duration="1" Instrument="Duty 0" Volume="3"
				Note Time="158" Value="G3" Duration="1" Instrument="Duty 0"
				Note Time="159" Value="G#3" Duration="1" Instrument="Duty 0" Volume="6"
				Note Time="160" Value="A#2" Duration="1" Instrument="Duty 1" Volume="9"
				Note Time="161" Value="A2" Duration="1" Instrument="Duty 1" Volume="7"
				Note Time="162" Value="A2" Duration="1" Instrument="Duty 0" Volume="6"
				Note Time="163" Value="G#2" Duration="6" Instrument="Duty 0"
				Note Time="164" Volume="5"
				Note Time="165" Volume="4"
				Note Time="167" Volume="3"
				Note Time="169" Value="A3" Duration="1" Instrument="Duty 0" Volume="7"
				Note Time="170" Value="F#3" Duration="1" Instrument="Duty 1"
				Note Time="171" Value="G3" Duration="1" Instrument="Duty 0" Volume="6"
				Note Time="172" Value="G#3" Duration="1" Instrument="Duty 0" Volume="5"
				Note Time="173" Value="G3" Duration="1" Instrument="Duty 0" Volume="4"
				Note Time="174" Value="A3" Duration="1" Instrument="Duty 0" Volume="2"
				Note Time="175" Value="F#3" Duration="1" Instrument="Duty 1"
				Note Time="176" Value="G3" Duration="1" Instrument="Duty 0"
				Note Time="177" Value="G#3" Duration="1" Instrument="Duty 0"
				Note Time="178" Value="G3" Duration="1" Instrument="Duty 0" Volume="1"
				Note Time="179" Value="F3" Duration="1" Instrument="Duty 0" Volume="10"
				Note Time="180" Value="C3" Duration="1" Instrument="Duty 1" Volume="9"
				Note Time="181" Value="C#3" Duration="1" Instrument="Duty 1" Volume="8"
				Note Time="182" Value="D3" Duration="1" Instrument="Duty 1" Volume="7"
				Note Time="183" Value="D#3" Duration="1" Instrument="Duty 1"
				Note Time="184" Value="E3" Duration="1" Instrument="Duty 0"
				Note Time="185" Value="E3" Duration="1" Instrument="Duty 1"
				Note Time="186" Value="E3" Duration="1" Instrument="Duty 0" Volume="6"
				Note Time="187" Value="E3" Duration="1" Instrument="Duty 1"
				Note Time="188" Value="E3" Duration="2" Instrument="Duty 0"
				Note Time="190" Value="A3" Duration="1" Instrument="Duty 0" Volume="7"
				Note Time="191" Value="F#3" Duration="1" Instrument="Duty 1"
				Note Time="192" Value="G3" Duration="1" Instrument="Duty 0" Volume="6"
				Note Time="193" Value="G#3" Duration="1" Instrument="Duty 0" Volume="5"
				Note Time="194" Value="G3" Duration="1" Instrument="Duty 0" Volume="4"
				Note Time="195" Value="A3" Duration="1" Instrument="Duty 0" Volume="5"
				Note Time="196" Value="F#3" Duration="1" Instrument="Duty 1"
				Note Time="197" Value="G3" Duration="1" Instrument="Duty 0" Volume="4"
				Note Time="198" Value="G#3" Duration="1" Instrument="Duty 0" Volume="3"
				Note Time="199" Value="G3" Duration="1" Instrument="Duty 0"
				Note Time="200" Value="A3" Duration="1" Instrument="Duty 0" Volume="7"
				Note Time="201" Value="F#3" Duration="1" Instrument="Duty 1"
				Note Time="202" Value="G3" Duration="1" Instrument="Duty 0" Volume="6"
				Note Time="203" Value="G#3" Duration="1" Instrument="Duty 0" Volume="5"
				Note Time="204" Value="G3" Duration="1" Instrument="Duty 0" Volume="4"
				Note Time="205" Value="A3" Duration="1" Instrument="Duty 0" Volume="5"
				Note Time="206" Value="F#3" Duration="1" Instrument="Duty 1"
				Note Time="207" Value="G3" Duration="1" Instrument="Duty 0" Volume="4"
				Note Time="208" Value="G#3" Duration="1" Instrument="Duty 0" Volume="3"
				Note Time="209" Value="G3" Duration="1" Instrument="Duty 0"
				Note Time="210" Value="G#3" Duration="2" Instrument="Duty 0"
				Note Time="211" Volume="6"
				Note Time="212" Value="A#2" Duration="1" Instrument="Duty 1" Volume="9"
				Note Time="213" Value="A2" Duration="1" Instrument="Duty 1" Volume="7"
				Note Time="214" Value="A2" Duration="1" Instrument="Duty 0" Volume="6"
				Note Time="215" Value="G#2" Duration="1" Instrument="Duty 0"
				Note Time="216" Value="A3" Duration="1" Instrument="Duty 0" Volume="2"
				Note Time="217" Value="F#3" Duration="1" Instrument="Duty 1"
				Note Time="218" Value="G3" Duration="1" Instrument="Duty 0"
				Note Time="219" Value="G#3" Duration="1" Instrument="Duty 0"
				Note Time="220" Value="G3" Duration="1" Instrument="Duty 0" Volume="1"
				Note Time="221" Value="F3" Duration="1" Instrument="Duty 0" Volume="10"
				Note Time="222" Value="C3" Duration="1" Instrument="Duty 1" Volume="9"
				Note Time="223" Value="C#3" Duration="1" Instrument="Duty 1" Volume="8"
				Note Time="224" Value="D3" Duration="1" Instrument="Duty 1" Volume="7"
				Note Time="225" Value="D#3" Duration="1" Instrument="Duty 1"
				Note Time="226" Value="E3" Duration="1" Instrument="Duty 0"
				Note Time="227" Value="E3" Duration="1" Instrument="Duty 1"
				Note Time="228" Value="E3" Duration="1" Instrument="Duty 0" Volume="6"
				Note Time="229" Value="E3" Duration="1" Instrument="Duty 1"
				Note Time="230" Value="E3" Duration="1" Instrument="Duty 0"
				Note Time="231" Value="A3" Duration="1" Instrument="Duty 0" Volume="7"
				Note Time="232" Value="F#3" Duration="1" Instrument="Duty 1"
				Note Time="233" Value="G3" Duration="1" Instrument="Duty 0" Volume="6"
				Note Time="234" Value="G#3" Duration="1" Instrument="Duty 0" Volume="5"
				Note Time="235" Value="G3" Duration="1" Instrument="Duty 0" Volume="4"
				Note Time="236" Value="A3" Duration="1" Instrument="Duty 0" Volume="5"
				Note Time="237" Value="F#3" Duration="1" Instrument="Duty 1"
				Note Time="238" Value="G3" Duration="1" Instrument="Duty 0" Volume="4"
				Note Time="239" Value="G#3" Duration="1" Instrument="Duty 0" Volume="3"
				Note Time="240" Value="G3" Duration="1" Instrument="Duty 0"
				Note Time="241" Value="G#3" Duration="2" Instrument="Duty 0"
				Note Time="242" Volume="6"
				Note Time="243" Value="A#2" Duration="1" Instrument="Duty 1" Volume="9"
				Note Time="244" Value="A2" Duration="1" Instrument="Duty 1" Volume="7"
				Note Time="245" Value="A2" Duration="1" Instrument="Duty 0" Volume="6"
				Note Time="246" Value="G#2" Duration="6" Instrument="Duty 0"
				Note Time="247" Volume="5"
				Note Time="248" Volume="4"
				Note Time="250" Volume="3"
				Note Time="252" Value="A3" Duration="1" Instrument="Duty 0" Volume="7"
				Note Time="253" Value="F#3" Duration="1" Instrument="Duty 1"
				Note Time="254" Value="G3" Duration="1" Instrument="Duty 0" Volume="6"
				Note Time="255" Value="G#3" Duration="1" Instrument="Duty 0" Volume="5"
			Pattern Name="Pattern 3"
				Note Time="0" Value="G3" Duration="1" Instrument="Duty 0" Volume="4"
				Note Time="1" Value="A3" Duration="1" Instrument="Duty 0" Volume="2"
				Note Time="2" Value="F#3" Duration="1" Instrument="Duty 1"
				Note Time="3" Value="G3" Duration="1" Instrument="Duty 0"
				Note Time="4" Value="G#3" Duration="1" Instrument="Duty 0"
				Note Time="5" Value="G3" Duration="1" Instrument="Duty 0" Volume="1"
				Note Time="6" Value="F3" Duration="1" Instrument="Duty 0" Volume="10"
				Note Time="7" Value="C3" Duration="1" Instrument="Duty 1" Volume="9"
				Note Time="8" Value="C#3" Duration="1" Instrument="Duty 1" Volume="8"
				Note Time="9" Value="D3" Duration="1" Instrument="Duty 1" Volume="7"
				Note Time="10" Value="D#3" Duration="1" Instrument="Duty 1"
				Note Time="11" Value="E3" Duration="1" Instrument="Duty 0"
				Note Time="12" Value="E3" Duration="1" Instrument="Duty 1"
				Note Time="13" Value="E3" Duration="1" Instrument="Duty 0" Volume="6"
				Note Time="14" Value="E3" Duration="1" Instrument="Duty 1"
				Note Time="15" Value="E3" Duration="2" Instrument="Duty 0"
				Note Time="17" Value="A3" Duration="1" Instrument="Duty 0" Volume="7"
				Note Time="18" Value="F#3" Duration="1" Instrument="Duty 1"
				Note Time="19" Value="G3" Duration="1" Instrument="Duty 0" Volume="6"
				Note Time="20" Value="G#3" Duration="1" Instrument="Duty 0" Volume="5"
				Note Time="21" Value="G3" Duration="1" Instrument="Duty 0" Volume="4"
				Note Time="22" Value="A3" Duration="1" Instrument="Duty 0" Volume="5"
				Note Time="23" Value="F#3" Duration="1" Instrument="Duty 1"
				Note Time="24" Value="G3" Duration="1" Instrument="Duty 0" Volume="4"
				Note Time="25" Value="G#3" Duration="1" Instrument="Duty 0" Volume="3"
				Note Time="26" Value="G3" Duration="1" Instrument="Duty 0"
				Note Time="27" Value="A3" Duration="1" Instrument="Duty 0" Volume="7"
				Note Time="28" Value="F#3" Duration="1" Instrument="Duty 1"
				Note Time="29" Value="G3" Duration="1" Instrument="Duty 0" Volume="6"
				Note Time="30" Value="G#3" Duration="1" Instrument="Duty 0" Volume="5"
				Note Time="31" Value="G3" Duration="1" Instrument="Duty 0" Volume="4"
				Note Time="32" Value="A3" Duration="1" Instrument="Duty 0" Volume="5"
				Note Time="33" Value="F#3" Duration="1" Instrument="Duty 1"
				Note Time="34" Value="G3" Duration="1" Instrument="Duty 0" Volume="4"
				Note Time="35" Value="G#3" Duration="1" Instrument="Duty 0" Volume="3"
				Note Time="36" Value="G3" Duration="1" Instrument="Duty 0"
				Note Time="37" Value="G#3" Duration="1" Instrument="Duty 0" Volume="6"
				Note Time="38" Value="A#2" Duration="1" Instrument="Duty 1" Volume="9"
				Note Time="39" Value="A2" Duration="1" Instrument="Duty 1" Volume="7"
				Note Time="40" Value="A2" Duration="1" Instrument="Duty 0" Volume="6"
				Note Time="41" Value="G#2" Duration="2" Instrument="Duty 0"
				Note Time="42" Volume="5"
				Note Time="43" Value="A3" Duration="1" Instrument="Duty 0" Volume="2"
				Note Time="44" Value="F#3" Duration="1" Instrument="Duty 1"
				Note Time="45" Value="G3" Duration="1" Instrument="Duty 0"
				Note Time="46" Value="G#3" Duration="1" Instrument="Duty 0"
				Note Time="47" Value="G3" Duration="1" Instrument="Duty 0" Volume="1"
				Note Time="48" Value="F3" Duration="1" Instrument="Duty 0" Volume="10"
				Note Time="49" Value="C3" Duration="1" Instrument="Duty 1" Volume="9"
				Note Time="50" Value="C#3" Duration="1" Instrument="Duty 1" Volume="8"
				Note Time="51" Value="D3" Duration="1" Instrument="Duty 1" Volume="7"
				Note Time="52" Value="D#3" Duration="1" Instrument="Duty 1"
				Note Time="53" Value="E3" Duration="1" Instrument="Duty 0"
				Note Time="54" Value="E3" Duration="1" Instrument="Duty 1"
				Note Time="55" Value="E3" Duration="1" Instrument="Duty 0" Volume="6"
				Note Time="56" Value="E3" Duration="1" Instrument="Duty 1"
				Note Time="57" Value="E3" Duration="1" Instrument="Duty 0"
				Note Time="58" Value="A3" Duration="1" Instrument="Duty 0" Volume="7"
				Note Time="59" Value="F#3" Duration="1" Instrument="Duty 1"
				Note Time="60" Value="G3" Duration="1" Instrument="Duty 0" Volume="6"
				Note Time="61" Value="G#3" Duration="1" Instrument="Duty 0" Volume="5"
				Note Time="62" Value="G3" Duration="1" Instrument="Duty 0" Volume="4"
				Note Time="63" Value="A3" Duration="1" Instrument="Duty 0" Volume="5"
				Note Time="64" Value="F#3" Duration="1" Instrument="Duty 1"
				Note Time="65" Value="G3" Duration="1" Instrument="Duty 0" Volume="4"
				Note Time="66" Value="G#3" Duration="1" Instrument="Duty 0" Volume="3"
				Note Time="67" Value="G3" Duration="1" Instrument="Duty 0"
				Note Time="68" Value="G#3" Duration="1" Instrument="Duty 0" Volume="6"
				Note Time="69" Value="A#2" Duration="1" Instrument="Duty 1" Volume="9"
				Note Time="70" Value="A2" Duration="1" Instrument="Duty 1" Volume="7"
				Note Time="71" Value="A2" Duration="1" Instrument="Duty 0" Volume="6"
				Note Time="72" Value="G#2" Duration="7" Instrument="Duty 0"
				Note Time="73" Volume="5"
				Note Time="74" Volume="4"
				Note Time="76" Volume="3"
				Note Time="79" Value="A3" Duration="1" Instrument="Duty 0" Volume="6"
				Note Time="80" Value="F#3" Duration="1" Instrument="Duty 1"
				Note Time="81" Value="G3" Duration="1" Instrument="Duty 1"
				Note Time="82" Value="G#3" Duration="1" Instrument="Duty 0"
				Note Time="83" Value="G3" Duration="1" Instrument="Duty 0" Volume="5"
				Note Time="84" Value="G#3" Duration="1" Instrument="Duty 0"
				Note Time="85" Value="A3" Duration="4" Instrument="Duty 0"
				Note Time="89" Value="F3" Duration="1" Instrument="Duty 0" Volume="10"
				Note Time="90" Value="C3" Duration="1" Instrument="Duty 1" Volume="9"
				Note Time="91" Value="C#3" Duration="1" Instrument="Duty 1" Volume="8"
				Note Time="92" Value="D3" Duration="1" Instrument="Duty 1" Volume="7"
				Note Time="93" Value="D#3" Duration="1" Instrument="Duty 1"
				Note Time="94" Value="E3" Duration="1" Instrument="Duty 0"
				Note Time="95" Value="E3" Duration="1" Instrument="Duty 1"
				Note Time="96" Value="E3" Duration="1" Instrument="Duty 0" Volume="6"
				Note Time="97" Value="E3" Duration="1" Instrument="Duty 1"
				Note Time="98" Value="E3" Duration="2" Instrument="Duty 0"
				Note Time="100" Value="A3" Duration="1" Instrument="Duty 0"
				Note Time="101" Value="F#3" Duration="1" Instrument="Duty 1"
				Note Time="102" Value="G3" Duration="1" Instrument="Duty 1"
				Note Time="103" Value="G#3" Duration="1" Instrument="Duty 0"
				Note Time="104" Value="G3" Duration="1" Instrument="Duty 0" Volume="5"
				Note Time="105" Value="G#3" Duration="1" Instrument="Duty 0"
				Note Time="106" Value="A3" Duration="5" Instrument="Duty 0"
				Note Time="110" Volume="7"
				Note Time="111" Value="F#3" Duration="1" Instrument="Duty 1"
				Note Time="112" Value="G3" Duration="1" Instrument="Duty 0" Volume="6"
				Note Time="113" Value="G#3" Duration="1" Instrument="Duty 0" Volume="5"
				Note Time="114" Value="G3" Duration="1" Instrument="Duty 0" Volume="4"
				Note Time="115" Value="A3" Duration="1" Instrument="Duty 0" Volume="5"
				Note Time="116" Value="F#3" Duration="1" Instrument="Duty 1"
				Note Time="117" Value="G3" Duration="1" Instrument="Duty 0" Volume="4"
				Note Time="118" Value="G#3" Duration="1" Instrument="Duty 0" Volume="3"
				Note Time="119" Value="G3" Duration="1" Instrument="Duty 0"
				Note Time="120" Value="G#3" Duration="1" Instrument="Duty 0" Volume="6"
				Note Time="121" Value="A#2" Duration="1" Instrument="Duty 1" Volume="9"
				Note Time="122" Value="A2" Duration="1" Instrument="Duty 1" Volume="7"
				Note Time="123" Value="A2" Duration="1" Instrument="Duty 0" Volume="6"
				Note Time="124" Value="G#2" Duration="1" Instrument="Duty 0"
				Note Time="125" Value="A3" Duration="1" Instrument="Duty 0" Volume="2"
				Note Time="126" Value="F#3" Duration="1" Instrument="Duty 1"
				Note Time="127" Value="G3" Duration="1" Instrument="Duty 0"
				Note Time="128" Value="G#3" Duration="1" Instrument="Duty 0"
				Note Time="129" Value="G3" Duration="1" Instrument="Duty 0" Volume="1"
				Note Time="130" Value="G#3" Duration="1" Instrument="Duty 0"
				Note Time="131" Value="F3" Duration="1" Instrument="Duty 0" Volume="10"
				Note Time="132" Value="C3" Duration="1" Instrument="Duty 1" Volume="9"
				Note Time="133" Value="C#3" Duration="1" Instrument="Duty 1" Volume="8"
				Note Time="134" Value="D3" Duration="1" Instrument="Duty 1" Volume="7"
				Note Time="135" Value="D#3" Duration="1" Instrument="Duty 1"
				Note Time="136" Value="E3" Duration="1" Instrument="Duty 0"
				Note Time="137" Value="E3" Duration="1" Instrument="Duty 1"
				Note Time="138" Value="E3" Duration="1" Instrument="Duty 0" Volume="6"
				Note Time="139" Value="E3" Duration="1" Instrument="Duty 1"
				Note Time="140" Value="E3" Duration="1" Instrument="Duty 0"
				Note Time="141" Value="G#3" Duration="1" Instrument="Duty 0"
				Note Time="142" Value="A#2" Duration="1" Instrument="Duty 1" Volume="9"
				Note Time="143" Value="A2" Duration="1" Instrument="Duty 1" Volume="7"
				Note Time="144" Value="A2" Duration="1" Instrument="Duty 0" Volume="6"
				Note Time="145" Value="G#2" Duration="1" Instrument="Duty 0"
				Note Time="146" Value="A3" Duration="1" Instrument="Duty 0" Volume="5"
				Note Time="147" Value="F#3" Duration="1" Instrument="Duty 1"
				Note Time="148" Value="G3" Duration="1" Instrument="Duty 0" Volume="4"
				Note Time="149" Value="D3" Duration="2" Instrument="Duty 0" Volume="3"
				Note Time="150" Volume="4"
				Note Time="151" Value="F3" Duration="1" Instrument="Duty 0" Volume="10"
				Note Time="152" Value="F#3" Duration="1" Instrument="Duty 0"
				Note Time="153" Value="F3" Duration="1" Instrument="Duty 1"
				Note Time="154" Value="F3" Duration="3" Instrument="Duty 0" Volume="9"
				Note Time="157" Value="F3" Duration="1" Instrument="Duty 1" Volume="8"
				Note Time="158" Value="F3" Duration="2" Instrument="Duty 0"
				Note Time="160" Value="F3" Duration="1" Instrument="Duty 1" Volume="7"
				Note Time="161" Value="F3" Duration="3" Instrument="Duty 0"
				Note Time="163" Volume="6"
				Note Time="164" Value="F3" Duration="1" Instrument="Duty 1"
				Note Time="165" Value="E3" Duration="2" Instrument="Duty 0"
				Note Time="167" Value="E3" Duration="1" Instrument="Duty 1"
				Note Time="168" Value="E3" Duration="3" Instrument="Duty 0"
				Note Time="169" Volume="5"
				Note Time="171" Value="E3" Duration="1" Instrument="Duty 1"
				Note Time="172" Value="F3" Duration="1" Instrument="Duty 0" Volume="10"
				Note Time="173" Value="C3" Duration="1" Instrument="Duty 1" Volume="9"
				Note Time="174" Value="C#3" Duration="1" Instrument="Duty 1" Volume="8"
				Note Time="175" Value="D3" Duration="1" Instrument="Duty 1" Volume="7"
				Note Time="176" Value="D#3" Duration="1" Instrument="Duty 1"
				Note Time="177" Value="E3" Duration="1" Instrument="Duty 0"
				Note Time="178" Value="E3" Duration="1" Instrument="Duty 1"
				Note Time="179" Value="E3" Duration="1" Instrument="Duty 0" Volume="6"
				Note Time="180" Value="E3" Duration="1" Instrument="Duty 1"
				Note Time="181" Value="E3" Duration="1" Instrument="Duty 0"
				Note Time="182" Value="A3" Duration="1" Instrument="Duty 0" Volume="7"
				Note Time="183" Value="F#3" Duration="1" Instrument="Duty 1"
				Note Time="184" Value="G3" Duration="1" Instrument="Duty 0" Volume="6"
				Note Time="185" Value="G#3" Duration="1" Instrument="Duty 0" Volume="5"
				Note Time="186" Value="G3" Duration="1" Instrument="Duty 0" Volume="4"
				Note Time="187" Value="G#3" Duration="1" Instrument="Duty 0"
				Note Time="188" Value="A3" Duration="1" Instrument="Duty 0" Volume="5"
				Note Time="189" Value="F#3" Duration="1" Instrument="Duty 1"
				Note Time="190" Value="G3" Duration="1" Instrument="Duty 0" Volume="4"
				Note Time="191" Value="G#3" Duration="1" Instrument="Duty 0" Volume="3"
				Note Time="192" Value="G3" Duration="1" Instrument="Duty 0"
				Note Time="193" Value="A3" Duration="1" Instrument="Duty 0" Volume="7"
				Note Time="194" Value="F#3" Duration="1" Instrument="Duty 1"
				Note Time="195" Value="G3" Duration="1" Instrument="Duty 0" Volume="6"
				Note Time="196" Value="G#3" Duration="1" Instrument="Duty 0" Volume="5"
				Note Time="197" Value="G3" Duration="1" Instrument="Duty 0" Volume="4"
				Note Time="198" Value="A3" Duration="1" Instrument="Duty 0" Volume="5"
				Note Time="199" Value="F#3" Duration="1" Instrument="Duty 1"
				Note Time="200" Value="G3" Duration="1" Instrument="Duty 0" Volume="4"
				Note Time="201" Value="G#3" Duration="1" Instrument="Duty 0" Volume="3"
				Note Time="202" Value="G3" Duration="1" Instrument="Duty 0"
				Note Time="203" Value="G#3" Duration="1" Instrument="Duty 0" Volume="6"
				Note Time="204" Value="A#2" Duration="1" Instrument="Duty 1" Volume="9"
				Note Time="205" Value="A2" Duration="1" Instrument="Duty 1" Volume="7"
				Note Time="206" Value="A2" Duration="1" Instrument="Duty 0" Volume="6"
				Note Time="207" Value="G#2" Duration="1" Instrument="Duty 0"
				Note Time="208" Value="A3" Duration="1" Instrument="Duty 0" Volume="2"
				Note Time="209" Value="F#3" Duration="1" Instrument="Duty 1"
				Note Time="210" Value="G3" Duration="1" Instrument="Duty 0"
				Note Time="211" Value="G#3" Duration="1" Instrument="Duty 0"
				Note Time="212" Value="G3" Duration="1" Instrument="Duty 0" Volume="1"
				Note Time="213" Value="F3" Duration="1" Instrument="Duty 0" Volume="10"
				Note Time="214" Value="C3" Duration="1" Instrument="Duty 1" Volume="9"
				Note Time="215" Value="C#3" Duration="1" Instrument="Duty 1" Volume="8"
				Note Time="216" Value="D3" Duration="1" Instrument="Duty 1" Volume="7"
				Note Time="217" Value="D#3" Duration="1" Instrument="Duty 1"
				Note Time="218" Value="E3" Duration="1" Instrument="Duty 0"
				Note Time="219" Value="E3" Duration="1" Instrument="Duty 1"
				Note Time="220" Value="E3" Duration="1" Instrument="Duty 0" Volume="6"
				Note Time="221" Value="E3" Duration="1" Instrument="Duty 1"
				Note Time="222" Value="E3" Duration="2" Instrument="Duty 0"
				Note Time="224" Value="A3" Duration="1" Instrument="Duty 0" Volume="7"
				Note Time="225" Value="F#3" Duration="1" Instrument="Duty 1"
				Note Time="226" Value="G3" Duration="1" Instrument="Duty 0" Volume="6"
				Note Time="227" Value="G#3" Duration="1" Instrument="Duty 0" Volume="5"
				Note Time="228" Value="G3" Duration="1" Instrument="Duty 0" Volume="4"
				Note Time="229" Value="A3" Duration="1" Instrument="Duty 0" Volume="5"
				Note Time="230" Value="F#3" Duration="1" Instrument="Duty 1"
				Note Time="231" Value="G3" Duration="1" Instrument="Duty 0" Volume="4"
				Note Time="232" Value="G#3" Duration="1" Instrument="Duty 0" Volume="3"
				Note Time="233" Value="G3" Duration="1" Instrument="Duty 0"
				Note Time="234" Value="G#3" Duration="1" Instrument="Duty 0" Volume="6"
				Note Time="235" Value="A#2" Duration="1" Instrument="Duty 1" Volume="9"
				Note Time="236" Value="A2" Duration="1" Instrument="Duty 1" Volume="7"
				Note Time="237" Value="A2" Duration="1" Instrument="Duty 0" Volume="6"
				Note Time="238" Value="G#2" Duration="7" Instrument="Duty 0"
				Note Time="239" Volume="5"
				Note Time="240" Volume="4"
				Note Time="242" Volume="3"
				Note Time="245" Value="A3" Duration="1" Instrument="Duty 0" Volume="7"
				Note Time="246" Value="F#3" Duration="1" Instrument="Duty 1"
				Note Time="247" Value="G3" Duration="1" Instrument="Duty 0" Volume="6"
				Note Time="248" Value="G#3" Duration="1" Instrument="Duty 0" Volume="5"
				Note Time="249" Value="G3" Duration="1" Instrument="Duty 0" Volume="4"
				Note Time="250" Value="A3" Duration="1" Instrument="Duty 0" Volume="2"
				Note Time="251" Value="F#3" Duration="1" Instrument="Duty 1"
				Note Time="252" Value="G3" Duration="1" Instrument="Duty 0"
				Note Time="253" Value="G#3" Duration="1" Instrument="Duty 0"
				Note Time="254" Value="G3" Duration="1" Instrument="Duty 0" Volume="1"
				Note Time="255" Value="F3" Duration="1" Instrument="Duty 0" Volume="10"
			Pattern Name="Pattern 4"
				Note Time="0" Value="C3" Duration="1" Instrument="Duty 1" Volume="9"
				Note Time="1" Value="C#3" Duration="1" Instrument="Duty 1" Volume="8"
				Note Time="2" Value="D3" Duration="1" Instrument="Duty 1" Volume="7"
				Note Time="3" Value="D#3" Duration="1" Instrument="Duty 1"
				Note Time="4" Value="E3" Duration="1" Instrument="Duty 0"
				Note Time="5" Value="E3" Duration="1" Instrument="Duty 1"
				Note Time="6" Value="E3" Duration="1" Instrument="Duty 0" Volume="6"
				Note Time="7" Value="E3" Duration="1" Instrument="Duty 1"
				Note Time="8" Value="E3" Duration="1" Instrument="Duty 0"
				Note Time="9" Value="A3" Duration="1" Instrument="Duty 0" Volume="7"
				Note Time="10" Value="F#3" Duration="1" Instrument="Duty 1"
				Note Time="11" Value="G3" Duration="1" Instrument="Duty 0" Volume="6"
				Note Time="12" Value="G#3" Duration="1" Instrument="Duty 0" Volume="5"
				Note Time="13" Value="G3" Duration="1" Instrument="Duty 0" Volume="4"
				Note Time="14" Value="A3" Duration="1" Instrument="Duty 0" Volume="5"
				Note Time="15" Value="F#3" Duration="1" Instrument="Duty 1"
				Note Time="16" Value="G3" Duration="1" Instrument="Duty 0" Volume="4"
				Note Time="17" Value="G#3" Duration="1" Instrument="Duty 0" Volume="3"
				Note Time="18" Value="G3" Duration="1" Instrument="Duty 0"
				Note Time="19" Value="G#3" Duration="1" Instrument="Duty 0"
				Note Time="20" Value="A3" Duration="1" Instrument="Duty 0" Volume="7"
				Note Time="21" Value="F#3" Duration="1" Instrument="Duty 1"
				Note Time="22" Value="G3" Duration="1" Instrument="Duty 0" Volume="6"
				Note Time="23" Value="G#3" Duration="1" Instrument="Duty 0" Volume="5"
				Note Time="24" Value="G3" Duration="1" Instrument="Duty 0" Volume="4"
				Note Time="25" Value="A3" Duration="1" Instrument="Duty 0" Volume="5"
				Note Time="26" Value="F#3" Duration="1" Instrument="Duty 1"
				Note Time="27" Value="G3" Duration="1" Instrument="Duty 0" Volume="4"
				Note Time="28" Value="G#3" Duration="1" Instrument="Duty 0" Volume="3"
				Note Time="29" Value="G3" Duration="1" Instrument="Duty 0"
				Note Time="30" Value="G#3" Duration="1" Instrument="Duty 0" Volume="6"
				Note Time="31" Value="A#2" Duration="1" Instrument="Duty 1" Volume="9"
				Note Time="32" Value="A2" Duration="1" Instrument="Duty 1" Volume="7"
				Note Time="33" Value="A2" Duration="1" Instrument="Duty 0" Volume="6"
				Note Time="34" Value="G#2" Duration="1" Instrument="Duty 0"
				Note Time="35" Value="A3" Duration="1" Instrument="Duty 0" Volume="2"
				Note Time="36" Value="F#3" Duration="1" Instrument="Duty 1"
				Note Time="37" Value="G3" Duration="1" Instrument="Duty 0"
				Note Time="38" Value="G#3" Duration="1" Instrument="Duty 0"
				Note Time="39" Value="G3" Duration="1" Instrument="Duty 0" Volume="1"
				Note Time="40" Value="F3" Duration="1" Instrument="Duty 0" Volume="10"
				Note Time="41" Value="C3" Duration="1" Instrument="Duty 1" Volume="9"
				Note Time="42" Value="C#3" Duration="1" Instrument="Duty 1" Volume="8"
				Note Time="43" Value="D3" Duration="1" Instrument="Duty 1" Volume="7"
				Note Time="44" Value="D#3" Duration="1" Instrument="Duty 1"
				Note Time="45" Value="E3" Duration="1" Instrument="Duty 0"
				Note Time="46" Value="E3" Duration="1" Instrument="Duty 1"
				Note Time="47" Value="E3" Duration="1" Instrument="Duty 0" Volume="6"
				Note Time="48" Value="E3" Duration="1" Instrument="Duty 1"
				Note Time="49" Value="E3" Duration="2" Instrument="Duty 0"
				Note Time="51" Value="A3" Duration="1" Instrument="Duty 0" Volume="7"
				Note Time="52" Value="F#3" Duration="1" Instrument="Duty 1"
				Note Time="53" Value="G3" Duration="1" Instrument="Duty 0" Volume="6"
				Note Time="54" Value="G#3" Duration="1" Instrument="Duty 0" Volume="5"
				Note Time="55" Value="G3" Duration="1" Instrument="Duty 0" Volume="4"
				Note Time="56" Value="A3" Duration="1" Instrument="Duty 0" Volume="5"
				Note Time="57" Value="F#3" Duration="1" Instrument="Duty 1"
				Note Time="58" Value="G3" Duration="1" Instrument="Duty 0" Volume="4"
				Note Time="59" Value="G#3" Duration="1" Instrument="Duty 0" Volume="3"
				Note Time="60" Value="G3" Duration="1" Instrument="Duty 0"
				Note Time="61" Value="G#3" Duration="1" Instrument="Duty 0" Volume="6"
				Note Time="62" Value="A#2" Duration="1" Instrument="Duty 1" Volume="9"
				Note Time="63" Value="A2" Duration="1" Instrument="Duty 1" Volume="7"
				Note Time="64" Value="A2" Duration="1" Instrument="Duty 0" Volume="6"
				Note Time="65" Value="G#2" Duration="6" Instrument="Duty 0"
				Note Time="66" Volume="5"
				Note Time="67" Volume="4"
				Note Time="69" Volume="3"
				Note Time="71" Value="A3" Duration="1" Instrument="Duty 0" Volume="7"
				Note Time="72" Value="F#3" Duration="1" Instrument="Duty 1"
				Note Time="73" Value="G3" Duration="1" Instrument="Duty 0" Volume="6"
				Note Time="74" Value="G#3" Duration="1" Instrument="Duty 0" Volume="5"
				Note Time="75" Value="G3" Duration="1" Instrument="Duty 0" Volume="4"
				Note Time="76" Value="G#3" Duration="1" Instrument="Duty 0"
				Note Time="77" Value="A3" Duration="1" Instrument="Duty 0" Volume="2"
				Note Time="78" Value="F#3" Duration="1" Instrument="Duty 1"
				Note Time="79" Value="G3" Duration="1" Instrument="Duty 0"
				Note Time="80" Value="G#3" Duration="1" Instrument="Duty 0"
				Note Time="81" Value="G3" Duration="1" Instrument="Duty 0" Volume="1"
				Note Time="82" Value="F3" Duration="1" Instrument="Duty 0" Volume="10"
				Note Time="83" Value="C3" Duration="1" Instrument="Duty 1" Volume="9"
				Note Time="84" Value="C#3" Duration="1" Instrument="Duty 1" Volume="8"
				Note Time="85" Value="D3" Duration="1" Instrument="Duty 1" Volume="7"
				Note Time="86" Value="D#3" Duration="1" Instrument="Duty 1"
				Note Time="87" Value="E3" Duration="1" Instrument="Duty 0"
				Note Time="88" Value="E3" Duration="1" Instrument="Duty 1"
				Note Time="89" Value="E3" Duration="1" Instrument="Duty 0" Volume="6"
				Note Time="90" Value="E3" Duration="1" Instrument="Duty 1"
				Note Time="91" Value="E3" Duration="1" Instrument="Duty 0"
				Note Time="92" Value="A3" Duration="1" Instrument="Duty 0" Volume="7"
				Note Time="93" Value="F#3" Duration="1" Instrument="Duty 1"
				Note Time="94" Value="G3" Duration="1" Instrument="Duty 0" Volume="6"
				Note Time="95" Value="G#3" Duration="1" Instrument="Duty 0" Volume="5"
				Note Time="96" Value="G3" Duration="1" Instrument="Duty 0" Volume="4"
				Note Time="97" Value="A3" Duration="1" Instrument="Duty 0" Volume="5"
				Note Time="98" Value="F#3" Duration="1" Instrument="Duty 1"
				Note Time="99" Value="G3" Duration="1" Instrument="Duty 0" Volume="4"
				Note Time="100" Value="G#3" Duration="1" Instrument="Duty 0" Volume="3"
				Note Time="101" Value="G3" Duration="1" Instrument="Duty 0"
				Note Time="102" Value="A3" Duration="1" Instrument="Duty 0" Volume="7"
				Note Time="103" Value="F#3" Duration="1" Instrument="Duty 1"
				Note Time="104" Value="G3" Duration="1" Instrument="Duty 0" Volume="6"
				Note Time="105" Value="G#3" Duration="1" Instrument="Duty 0" Volume="5"
				Note Time="106" Value="G3" Duration="1" Instrument="Duty 0" Volume="4"
				Note Time="107" Value="G#3" Duration="1" Instrument="Duty 0"
				Note Time="108" Value="A3" Duration="1" Instrument="Duty 0" Volume="5"
				Note Time="109" Value="F#3" Duration="1" Instrument="Duty 1"
				Note Time="110" Value="G3" Duration="1" Instrument="Duty 0" Volume="4"
				Note Time="111" Value="G#3" Duration="1" Instrument="Duty 0" Volume="3"
				Note Time="112" Value="G3" Duration="1" Instrument="Duty 0"
				Note Time="113" Value="G#3" Duration="1" Instrument="Duty 0" Volume="6"
				Note Time="114" Value="A#2" Duration="1" Instrument="Duty 1" Volume="9"
				Note Time="115" Value="A2" Duration="1" Instrument="Duty 1" Volume="7"
				Note Time="116" Value="A2" Duration="1" Instrument="Duty 0" Volume="6"
				Note Time="117" Value="G#2" Duration="1" Instrument="Duty 0"
				Note Time="118" Value="A3" Duration="1" Instrument="Duty 0" Volume="2"
				Note Time="119" Value="F#3" Duration="1" Instrument="Duty 1"
				Note Time="120" Value="G3" Duration="1" Instrument="Duty 0"
				Note Time="121" Value="G#3" Duration="1" Instrument="Duty 0"
				Note Time="122" Value="G3" Duration="1" Instrument="Duty 0" Volume="1"
				Note Time="123" Value="F3" Duration="1" Instrument="Duty 0" Volume="10"
				Note Time="124" Value="C3" Duration="1" Instrument="Duty 1" Volume="9"
				Note Time="125" Value="C#3" Duration="1" Instrument="Duty 1" Volume="8"
				Note Time="126" Value="D3" Duration="1" Instrument="Duty 1" Volume="7"
				Note Time="127" Value="D#3" Duration="1" Instrument="Duty 1"
				Note Time="128" Value="E3" Duration="1" Instrument="Duty 0"
				Note Time="129" Value="E3" Duration="1" Instrument="Duty 1"
				Note Time="130" Value="E3" Duration="1" Instrument="Duty 0" Volume="6"
				Note Time="131" Value="E3" Duration="1" Instrument="Duty 1"
				Note Time="132" Value="E3" Duration="2" Instrument="Duty 0"
				Note Time="134" Value="A3" Duration="1" Instrument="Duty 0" Volume="7"
				Note Time="135" Value="F#3" Duration="1" Instrument="Duty 1"
				Note Time="136" Value="G3" Duration="1" Instrument="Duty 0" Volume="6"
				Note Time="137" Value="G#3" Duration="1" Instrument="Duty 0" Volume="5"
				Note Time="138" Value="G3" Duration="1" Instrument="Duty 0" Volume="4"
				Note Time="139" Value="A3" Duration="1" Instrument="Duty 0" Volume="5"
				Note Time="140" Value="F#3" Duration="1" Instrument="Duty 1"
				Note Time="141" Value="G3" Duration="1" Instrument="Duty 0" Volume="4"
				Note Time="142" Value="G#3" Duration="1" Instrument="Duty 0" Volume="3"
				Note Time="143" Value="G3" Duration="1" Instrument="Duty 0"
				Note Time="144" Value="G#3" Duration="1" Instrument="Duty 0" Volume="6"
				Note Time="145" Value="A#2" Duration="1" Instrument="Duty 1" Volume="9"
				Note Time="146" Value="A2" Duration="1" Instrument="Duty 1" Volume="7"
				Note Time="147" Value="A2" Duration="1" Instrument="Duty 0" Volume="6"
				Note Time="148" Value="G#2" Duration="6" Instrument="Duty 0"
				Note Time="149" Volume="5"
				Note Time="150" Volume="4"
				Note Time="152" Volume="3"
				Note Time="154" Value="A3" Duration="1" Instrument="Duty 0" Volume="7"
				Note Time="155" Value="F#3" Duration="1" Instrument="Duty 1"
				Note Time="156" Value="G3" Duration="1" Instrument="Duty 0" Volume="6"
				Note Time="157" Value="G#3" Duration="1" Instrument="Duty 0" Volume="5"
				Note Time="158" Value="G3" Duration="1" Instrument="Duty 0" Volume="4"
				Note Time="159" Value="A3" Duration="1" Instrument="Duty 0" Volume="2"
				Note Time="160" Value="F#3" Duration="1" Instrument="Duty 1"
				Note Time="161" Value="G3" Duration="1" Instrument="Duty 0"
				Note Time="162" Value="G#3" Duration="1" Instrument="Duty 0"
				Note Time="163" Value="G3" Duration="1" Instrument="Duty 0" Volume="1"
				Note Time="164" Value="G#3" Duration="1" Instrument="Duty 0"
				Note Time="165" Value="F3" Duration="1" Instrument="Duty 0" Volume="10"
				Note Time="166" Value="C3" Duration="1" Instrument="Duty 1" Volume="9"
				Note Time="167" Value="C#3" Duration="1" Instrument="Duty 1" Volume="8"
				Note Time="168" Value="D3" Duration="1" Instrument="Duty 1" Volume="7"
				Note Time="169" Value="D#3" Duration="1" Instrument="Duty 1"
				Note Time="170" Value="E3" Duration="1" Instrument="Duty 0"
				Note Time="171" Value="E3" Duration="1" Instrument="Duty 1"
				Note Time="172" Value="E3" Duration="1" Instrument="Duty 0" Volume="6"
				Note Time="173" Value="E3" Duration="1" Instrument="Duty 1"
				Note Time="174" Value="E3" Duration="1" Instrument="Duty 0"
				Note Time="175" Value="A3" Duration="1" Instrument="Duty 0" Volume="7"
				Note Time="176" Value="F#3" Duration="1" Instrument="Duty 1"
				Note Time="177" Value="G3" Duration="1" Instrument="Duty 0" Volume="6"
				Note Time="178" Value="G#3" Duration="1" Instrument="Duty 0" Volume="5"
				Note Time="179" Value="G3" Duration="1" Instrument="Duty 0" Volume="4"
				Note Time="180" Value="A3" Duration="1" Instrument="Duty 0" Volume="5"
				Note Time="181" Value="F#3" Duration="1" Instrument="Duty 1"
				Note Time="182" Value="G3" Duration="1" Instrument="Duty 0" Volume="4"
				Note Time="183" Value="G#3" Duration="1" Instrument="Duty 0" Volume="3"
				Note Time="184" Value="G3" Duration="1" Instrument="Duty 0"
				Note Time="185" Value="A3" Duration="1" Instrument="Duty 0" Volume="7"
				Note Time="186" Value="F#3" Duration="1" Instrument="Duty 1"
				Note Time="187" Value="G3" Duration="1" Instrument="Duty 0" Volume="6"
				Note Time="188" Value="G#3" Duration="1" Instrument="Duty 0" Volume="5"
				Note Time="189" Value="G3" Duration="1" Instrument="Duty 0" Volume="4"
				Note Time="190" Value="A3" Duration="1" Instrument="Duty 0" Volume="5"
				Note Time="191" Value="F#3" Duration="1" Instrument="Duty 1"
				Note Time="192" Value="G3" Duration="1" Instrument="Duty 0" Volume="4"
				Note Time="193" Value="G#3" Duration="1" Instrument="Duty 0" Volume="3"
				Note Time="194" Value="G3" Duration="1" Instrument="Duty 0"
				Note Time="195" Value="G#3" Duration="2" Instrument="Duty 0"
				Note Time="196" Volume="6"
				Note Time="197" Value="A#2" Duration="1" Instrument="Duty 1" Volume="9"
				Note Time="198" Value="A2" Duration="1" Instrument="Duty 1" Volume="7"
				Note Time="199" Value="A2" Duration="1" Instrument="Duty 0" Volume="6"
				Note Time="200" Value="G#2" Duration="1" Instrument="Duty 0"
				Note Time="201" Value="A3" Duration="1" Instrument="Duty 0" Volume="2"
				Note Time="202" Value="F#3" Duration="1" Instrument="Duty 1"
				Note Time="203" Value="G3" Duration="1" Instrument="Duty 0"
				Note Time="204" Value="G#3" Duration="1" Instrument="Duty 0"
				Note Time="205" Value="G3" Duration="1" Instrument="Duty 0" Volume="1"
				Note Time="206" Value="F3" Duration="1" Instrument="Duty 0" Volume="10"
				Note Time="207" Value="C3" Duration="1" Instrument="Duty 1" Volume="9"
				Note Time="208" Value="C#3" Duration="1" Instrument="Duty 1" Volume="8"
				Note Time="209" Value="D3" Duration="1" Instrument="Duty 1" Volume="7"
				Note Time="210" Value="D#3" Duration="1" Instrument="Duty 1"
				Note Time="211" Value="E3" Duration="1" Instrument="Duty 0"
				Note Time="212" Value="E3" Duration="1" Instrument="Duty 1"
				Note Time="213" Value="E3" Duration="1" Instrument="Duty 0" Volume="6"
				Note Time="214" Value="E3" Duration="1" Instrument="Duty 1"
				Note Time="215" Value="E3" Duration="1" Instrument="Duty 0"
				Note Time="216" Value="A3" Duration="1" Instrument="Duty 0" Volume="7"
				Note Time="217" Value="F#3" Duration="1" Instrument="Duty 1"
				Note Time="218" Value="G3" Duration="1" Instrument="Duty 0" Volume="6"
				Note Time="219" Value="G#3" Duration="1" Instrument="Duty 0" Volume="5"
				Note Time="220" Value="G3" Duration="1" Instrument="Duty 0" Volume="4"
				Note Time="221" Value="G#3" Duration="1" Instrument="Duty 0"
				Note Time="222" Value="A3" Duration="1" Instrument="Duty 0" Volume="5"
				Note Time="223" Value="F#3" Duration="1" Instrument="Duty 1"
				Note Time="224" Value="G3" Duration="1" Instrument="Duty 0" Volume="4"
				Note Time="225" Value="G#3" Duration="1" Instrument="Duty 0" Volume="3"
				Note Time="226" Value="G3" Duration="1" Instrument="Duty 0"
				Note Time="227" Value="G#3" Duration="1" Instrument="Duty 0" Volume="6"
				Note Time="228" Value="A#2" Duration="1" Instrument="Duty 1" Volume="9"
				Note Time="229" Value="A2" Duration="1" Instrument="Duty 1" Volume="7"
				Note Time="230" Value="A2" Duration="1" Instrument="Duty 0" Volume="6"
				Note Time="231" Value="G#2" Duration="6" Instrument="Duty 0"
				Note Time="232" Volume="5"
				Note Time="233" Volume="4"
				Note Time="235" Volume="3"
				Note Time="237" Value="A3" Duration="1" Instrument="Duty 0" Volume="7"
				Note Time="238" Value="F#3" Duration="1" Instrument="Duty 1"
				Note Time="239" Value="G3" Duration="1" Instrument="Duty 0" Volume="6"
				Note Time="240" Value="G#3" Duration="1" Instrument="Duty 0" Volume="5"
				Note Time="241" Value="G3" Duration="1" Instrument="Duty 0" Volume="4"
				Note Time="242" Value="A3" Duration="1" Instrument="Duty 0" Volume="2"
				Note Time="243" Value="F#3" Duration="1" Instrument="Duty 1"
				Note Time="244" Value="G3" Duration="1" Instrument="Duty 0"
				Note Time="245" Value="G#3" Duration="1" Instrument="Duty 0"
				Note Time="246" Value="G3" Duration="1" Instrument="Duty 0" Volume="1"
				Note Time="247" Value="F3" Duration="1" Instrument="Duty 0" Volume="10"
				Note Time="248" Value="C3" Duration="1" Instrument="Duty 1" Volume="9"
				Note Time="249" Value="C#3" Duration="1" Instrument="Duty 1" Volume="8"
				Note Time="250" Value="D3" Duration="1" Instrument="Duty 1" Volume="7"
				Note Time="251" Value="D#3" Duration="1" Instrument="Duty 1"
				Note Time="252" Value="E3" Duration="1" Instrument="Duty 0"
				Note Time="253" Value="E3" Duration="1" Instrument="Duty 1"
				Note Time="254" Value="E3" Duration="1" Instrument="Duty 0" Volume="6"
				Note Time="255" Value="E3" Duration="1" Instrument="Duty 1"
			Pattern Name="Pattern 5"
				Note Time="0" Value="E3" Duration="2" Instrument="Duty 0"
				Note Time="2" Value="A3" Duration="1" Instrument="Duty 0" Volume="7"
				Note Time="3" Value="F#3" Duration="1" Instrument="Duty 1"
				Note Time="4" Value="G3" Duration="1" Instrument="Duty 0" Volume="6"
				Note Time="5" Value="G#3" Duration="1" Instrument="Duty 0" Volume="5"
				Note Time="6" Value="G3" Duration="1" Instrument="Duty 0" Volume="4"
				Note Time="7" Value="A3" Duration="1" Instrument="Duty 0" Volume="5"
				Note Time="8" Value="F#3" Duration="1" Instrument="Duty 1"
				Note Time="9" Value="G3" Duration="1" Instrument="Duty 0" Volume="4"
				Note Time="10" Value="G#3" Duration="1" Instrument="Duty 0" Volume="3"
				Note Time="11" Value="G3" Duration="1" Instrument="Duty 0"
				Note Time="12" Value="A3" Duration="1" Instrument="Duty 0" Volume="7"
				Note Time="13" Value="F#3" Duration="1" Instrument="Duty 1"
				Note Time="14" Value="G3" Duration="1" Instrument="Duty 0" Volume="6"
				Note Time="15" Value="G#3" Duration="1" Instrument="Duty 0" Volume="5"
				Note Time="16" Value="G3" Duration="1" Instrument="Duty 0" Volume="4"
				Note Time="17" Value="A3" Duration="1" Instrument="Duty 0" Volume="5"
				Note Time="18" Value="F#3" Duration="1" Instrument="Duty 1"
				Note Time="19" Value="G3" Duration="1" Instrument="Duty 0" Volume="4"
				Note Time="20" Value="G#3" Duration="1" Instrument="Duty 0" Volume="3"
				Note Time="21" Value="G3" Duration="1" Instrument="Duty 0"
				Note Time="22" Value="G#3" Duration="2" Instrument="Duty 0"
				Note Time="23" Volume="6"
				Note Time="24" Value="A#2" Duration="1" Instrument="Duty 1" Volume="9"
				Note Time="25" Value="A2" Duration="1" Instrument="Duty 1" Volume="7"
				Note Time="26" Value="A2" Duration="1" Instrument="Duty 0" Volume="6"
				Note Time="27" Value="G#2" Duration="1" Instrument="Duty 0"
				Note Time="28" Value="A3" Duration="1" Instrument="Duty 0" Volume="2"
				Note Time="29" Value="F#3" Duration="1" Instrument="Duty 1"
				Note Time="30" Value="G3" Duration="1" Instrument="Duty 0"
				Note Time="31" Value="G#3" Duration="1" Instrument="Duty 0"
				Note Time="32" Value="G3" Duration="1" Instrument="Duty 0" Volume="1"
				Note Time="33" Value="F3" Duration="1" Instrument="Duty 0" Volume="10"
				Note Time="34" Value="C3" Duration="1" Instrument="Duty 1" Volume="9"
				Note Time="35" Value="C#3" Duration="1" Instrument="Duty 1" Volume="8"
				Note Time="36" Value="D3" Duration="1" Instrument="Duty 1" Volume="7"
				Note Time="37" Value="D#3" Duration="1" Instrument="Duty 1"
				Note Time="38" Value="E3" Duration="1" Instrument="Duty 0"
				Note Time="39" Value="E3" Duration="1" Instrument="Duty 1"
				Note Time="40" Value="E3" Duration="1" Instrument="Duty 0" Volume="6"
				Note Time="41" Value="E3" Duration="1" Instrument="Duty 1"
				Note Time="42" Value="E3" Duration="1" Instrument="Duty 0"
				Note Time="43" Value="A3" Duration="1" Instrument="Duty 0" Volume="7"
				Note Time="44" Value="F#3" Duration="1" Instrument="Duty 1"
				Note Time="45" Value="G3" Duration="1" Instrument="Duty 0" Volume="6"
				Note Time="46" Value="G#3" Duration="1" Instrument="Duty 0" Volume="5"
				Note Time="47" Value="G3" Duration="1" Instrument="Duty 0" Volume="4"
				Note Time="48" Value="A3" Duration="1" Instrument="Duty 0" Volume="5"
				Note Time="49" Value="F#3" Duration="1" Instrument="Duty 1"
				Note Time="50" Value="G3" Duration="1" Instrument="Duty 0" Volume="4"
				Note Time="51" Value="G#3" Duration="1" Instrument="Duty 0" Volume="3"
				Note Time="52" Value="G3" Duration="1" Instrument="Duty 0"
				Note Time="53" Value="G#3" Duration="2" Instrument="Duty 0"
				Note Time="54" Volume="6"
				Note Time="55" Value="A#2" Duration="1" Instrument="Duty 1" Volume="9"
				Note Time="56" Value="A2" Duration="1" Instrument="Duty 1" Volume="7"
				Note Time="57" Value="A2" Duration="1" Instrument="Duty 0" Volume="6"
				Note Time="58" Value="G#2" Duration="6" Instrument="Duty 0"
				Note Time="59" Volume="5"
				Note Time="60" Volume="4"
				Note Time="62" Volume="3"
				Note Time="64" Value="A3" Duration="1" Instrument="Duty 0" Volume="7"
				Note Time="65" Value="F#3" Duration="1" Instrument="Duty 1"
				Note Time="66" Value="G3" Duration="1" Instrument="Duty 0" Volume="6"
				Note Time="67" Value="G#3" Duration="1" Instrument="Duty 0" Volume="5"
				Note Time="68" Value="G3" Duration="1" Instrument="Duty 0" Volume="4"
				Note Time="69" Value="A3" Duration="1" Instrument="Duty 0" Volume="2"
				Note Time="70" Value="F#3" Duration="1" Instrument="Duty 1"
				Note Time="71" Value="G3" Duration="1" Instrument="Duty 0"
				Note Time="72" Value="G#3" Duration="1" Instrument="Duty 0"
				Note Time="73" Value="G3" Duration="1" Instrument="Duty 0" Volume="1"
				Note Time="74" Value="F3" Duration="1" Instrument="Duty 0" Volume="10"
				Note Time="75" Value="C3" Duration="1" Instrument="Duty 1" Volume="9"
				Note Time="76" Value="C#3" Duration="1" Instrument="Duty 1" Volume="8"
				Note Time="77" Value="D3" Duration="1" Instrument="Duty 1" Volume="7"
				Note Time="78" Value="D#3" Duration="1" Instrument="Duty 1"
				Note Time="79" Value="E3" Duration="1" Instrument="Duty 0"
				Note Time="80" Value="E3" Duration="1" Instrument="Duty 1"
				Note Time="81" Value="E3" Duration="1" Instrument="Duty 0" Volume="6"
				Note Time="82" Value="E3" Duration="1" Instrument="Duty 1"
				Note Time="83" Value="E3" Duration="2" Instrument="Duty 0"
				Note Time="85" Value="A3" Duration="1" Instrument="Duty 0" Volume="7"
				Note Time="86" Value="F#3" Duration="1" Instrument="Duty 1"
				Note Time="87" Value="G3" Duration="1" Instrument="Duty 0" Volume="6"
				Note Time="88" Value="G#3" Duration="1" Instrument="Duty 0" Volume="5"
				Note Time="89" Value="G3" Duration="1" Instrument="Duty 0" Volume="4"
				Note Time="90" Value="A3" Duration="1" Instrument="Duty 0" Volume="5"
				Note Time="91" Value="F#3" Duration="1" Instrument="Duty 1"
				Note Time="92" Value="G3" Duration="1" Instrument="Duty 0" Volume="4"
				Note Time="93" Value="G#3" Duration="1" Instrument="Duty 0" Volume="3"
				Note Time="94" Value="G3" Duration="1" Instrument="Duty 0"
				Note Time="95" Value="A3" Duration="1" Instrument="Duty 0" Volume="7"
				Note Time="96" Value="F#3" Duration="1" Instrument="Duty 1"
				Note Time="97" Value="G3" Duration="1" Instrument="Duty 0" Volume="6"
				Note Time="98" Value="G#3" Duration="1" Instrument="Duty 0" Volume="5"
				Note Time="99" Value="G3" Duration="1" Instrument="Duty 0" Volume="4"
				Note Time="100" Value="A3" Duration="1" Instrument="Duty 0" Volume="5"
				Note Time="101" Value="F#3" Duration="1" Instrument="Duty 1"
				Note Time="102" Value="G3" Duration="1" Instrument="Duty 0" Volume="4"
				Note Time="103" Value="G#3" Duration="1" Instrument="Duty 0" Volume="3"
				Note Time="104" Value="G3" Duration="1" Instrument="Duty 0"
				Note Time="105" Value="G#3" Duration="1" Instrument="Duty 0" Volume="6"
				Note Time="106" Value="A#2" Duration="1" Instrument="Duty 1" Volume="9"
				Note Time="107" Value="A2" Duration="1" Instrument="Duty 1" Volume="7"
				Note Time="108" Value="A2" Duration="1" Instrument="Duty 0" Volume="6"
				Note Time="109" Value="G#2" Duration="2" Instrument="Duty 0"
				Note Time="110" Volume="5"
				Note Time="111" Value="A3" Duration="1" Instrument="Duty 0" Volume="2"
				Note Time="112" Value="F#3" Duration="1" Instrument="Duty 1"
				Note Time="113" Value="G3" Duration="1" Instrument="Duty 0"
				Note Time="114" Value="G#3" Duration="1" Instrument="Duty 0"
				Note Time="115" Value="G3" Duration="1" Instrument="Duty 0" Volume="1"
				Note Time="116" Value="F3" Duration="1" Instrument="Duty 0" Volume="10"
				Note Time="117" Value="C3" Duration="1" Instrument="Duty 1" Volume="9"
				Note Time="118" Value="C#3" Duration="1" Instrument="Duty 1" Volume="8"
				Note Time="119" Value="D3" Duration="1" Instrument="Duty 1" Volume="7"
				Note Time="120" Value="D#3" Duration="1" Instrument="Duty 1"
				Note Time="121" Value="E3" Duration="1" Instrument="Duty 0"
				Note Time="122" Value="E3" Duration="1" Instrument="Duty 1"
				Note Time="123" Value="E3" Duration="1" Instrument="Duty 0" Volume="6"
				Note Time="124" Value="E3" Duration="1" Instrument="Duty 1"
				Note Time="125" Value="E3" Duration="1" Instrument="Duty 0"
				Note Time="126" Value="A3" Duration="1" Instrument="Duty 0" Volume="7"
				Note Time="127" Value="F#3" Duration="1" Instrument="Duty 1"
				Note Time="128" Value="G3" Duration="1" Instrument="Duty 0" Volume="6"
				Note Time="129" Value="G#3" Duration="1" Instrument="Duty 0" Volume="5"
				Note Time="130" Value="G3" Duration="1" Instrument="Duty 0" Volume="4"
				Note Time="131" Value="A3" Duration="1" Instrument="Duty 0" Volume="5"
				Note Time="132" Value="F#3" Duration="1" Instrument="Duty 1"
				Note Time="133" Value="G3" Duration="1" Instrument="Duty 0" Volume="4"
				Note Time="134" Value="G#3" Duration="1" Instrument="Duty 0" Volume="3"
				Note Time="135" Value="G3" Duration="1" Instrument="Duty 0"
				Note Time="136" Value="G#3" Duration="1" Instrument="Duty 0" Volume="6"
				Note Time="137" Value="A#2" Duration="1" Instrument="Duty 1" Volume="9"
				Note Time="138" Value="A2" Duration="1" Instrument="Duty 1" Volume="7"
				Note Time="139" Value="A2" Duration="1" Instrument="Duty 0" Volume="6"
				Note Time="140" Value="G#2" Duration="7" Instrument="Duty 0"
				Note Time="141" Volume="5"
				Note Time="142" Volume="4"
				Note Time="144" Volume="3"
				Note Time="147" Value="A3" Duration="1" Instrument="Duty 0" Volume="7"
				Note Time="148" Value="F#3" Duration="1" Instrument="Duty 1"
				Note Time="149" Value="G3" Duration="1" Instrument="Duty 0" Volume="6"
				Note Time="150" Value="G#3" Duration="1" Instrument="Duty 0" Volume="5"
				Note Time="151" Value="G3" Duration="1" Instrument="Duty 0" Volume="4"
				Note Time="152" Value="A3" Duration="1" Instrument="Duty 0" Volume="2"
				Note Time="153" Value="F#3" Duration="1" Instrument="Duty 1"
				Note Time="154" Value="G3" Duration="1" Instrument="Duty 0"
				Note Time="155" Value="G#3" Duration="1" Instrument="Duty 0"
				Note Time="156" Value="G3" Duration="1" Instrument="Duty 0" Volume="1"
				Note Time="157" Value="F3" Duration="1" Instrument="Duty 0" Volume="10"
				Note Time="158" Value="C3" Duration="1" Instrument="Duty 1" Volume="9"
				Note Time="159" Value="C#3" Duration="1" Instrument="Duty 1" Volume="8"
				Note Time="160" Value="D3" Duration="1" Instrument="Duty 1" Volume="7"
				Note Time="161" Value="D#3" Duration="1" Instrument="Duty 1"
				Note Time="162" Value="E3" Duration="1" Instrument="Duty 0"
				Note Time="163" Value="E3" Duration="1" Instrument="Duty 1"
				Note Time="164" Value="E3" Duration="1" Instrument="Duty 0" Volume="6"
				Note Time="165" Value="E3" Duration="1" Instrument="Duty 1"
				Note Time="166" Value="E3" Duration="1" Instrument="Duty 0"
				Note Time="167" Value="A3" Duration="1" Instrument="Duty 0" Volume="7"
				Note Time="168" Value="F#3" Duration="1" Instrument="Duty 1"
				Note Time="169" Value="G3" Duration="1" Instrument="Duty 0" Volume="6"
				Note Time="170" Value="G#3" Duration="1" Instrument="Duty 0" Volume="5"
				Note Time="171" Value="G3" Duration="1" Instrument="Duty 0" Volume="4"
				Note Time="172" Value="G#3" Duration="1" Instrument="Duty 0"
				Note Time="173" Value="A3" Duration="1" Instrument="Duty 0" Volume="5"
				Note Time="174" Value="F#3" Duration="1" Instrument="Duty 1"
				Note Time="175" Value="G3" Duration="1" Instrument="Duty 0" Volume="4"
				Note Time="176" Value="G#3" Duration="1" Instrument="Duty 0" Volume="3"
				Note Time="177" Value="G3" Duration="1" Instrument="Duty 0"
				Note Time="178" Value="A3" Duration="1" Instrument="Duty 0" Volume="7"
				Note Time="179" Value="F#3" Duration="1" Instrument="Duty 1"
				Note Time="180" Value="G3" Duration="1" Instrument="Duty 0" Volume="6"
				Note Time="181" Value="G#3" Duration="1" Instrument="Duty 0" Volume="5"
				Note Time="182" Value="G3" Duration="1" Instrument="Duty 0" Volume="4"
				Note Time="183" Value="A3" Duration="1" Instrument="Duty 0" Volume="5"
				Note Time="184" Value="F#3" Duration="1" Instrument="Duty 1"
				Note Time="185" Value="G3" Duration="1" Instrument="Duty 0" Volume="4"
				Note Time="186" Value="G#3" Duration="1" Instrument="Duty 0" Volume="3"
				Note Time="187" Value="G3" Duration="1" Instrument="Duty 0"
				Note Time="188" Value="G#3" Duration="1" Instrument="Duty 0" Volume="6"
				Note Time="189" Value="A#2" Duration="1" Instrument="Duty 1" Volume="9"
				Note Time="190" Value="A2" Duration="1" Instrument="Duty 1" Volume="7"
				Note Time="191" Value="A2" Duration="1" Instrument="Duty 0" Volume="6"
				Note Time="192" Value="G#2" Duration="1" Instrument="Duty 0"
				Note Time="193" Value="A3" Duration="1" Instrument="Duty 0" Volume="2"
				Note Time="194" Value="F#3" Duration="1" Instrument="Duty 1"
				Note Time="195" Value="G3" Duration="1" Instrument="Duty 0"
				Note Time="196" Value="G#3" Duration="1" Instrument="Duty 0"
				Note Time="197" Value="G3" Duration="1" Instrument="Duty 0" Volume="1"
				Note Time="198" Value="G#3" Duration="1" Instrument="Duty 0"
				Note Time="199" Value="F3" Duration="1" Instrument="Duty 0" Volume="10"
				Note Time="200" Value="C3" Duration="1" Instrument="Duty 1" Volume="9"
				Note Time="201" Value="C#3" Duration="1" Instrument="Duty 1" Volume="8"
				Note Time="202" Value="D3" Duration="1" Instrument="Duty 1" Volume="7"
				Note Time="203" Value="D#3" Duration="1" Instrument="Duty 1"
				Note Time="204" Value="E3" Duration="1" Instrument="Duty 0"
				Note Time="205" Value="E3" Duration="1" Instrument="Duty 1"
				Note Time="206" Value="E3" Duration="1" Instrument="Duty 0" Volume="6"
				Note Time="207" Value="E3" Duration="1" Instrument="Duty 1"
				Note Time="208" Value="E3" Duration="1" Instrument="Duty 0"
				Note Time="209" Value="A3" Duration="1" Instrument="Duty 0" Volume="7"
				Note Time="210" Value="F#3" Duration="1" Instrument="Duty 1"
				Note Time="211" Value="G3" Duration="1" Instrument="Duty 0" Volume="6"
				Note Time="212" Value="G#3" Duration="1" Instrument="Duty 0" Volume="5"
				Note Time="213" Value="G3" Duration="1" Instrument="Duty 0" Volume="4"
				Note Time="214" Value="A3" Duration="1" Instrument="Duty 0" Volume="5"
				Note Time="215" Value="F#3" Duration="1" Instrument="Duty 1"
				Note Time="216" Value="G3" Duration="1" Instrument="Duty 0" Volume="4"
				Note Time="217" Value="G#3" Duration="1" Instrument="Duty 0" Volume="3"
				Note Time="218" Value="G3" Duration="1" Instrument="Duty 0"
				Note Time="219" Value="G#3" Duration="1" Instrument="Duty 0" Volume="6"
				Note Time="220" Value="A#2" Duration="1" Instrument="Duty 1" Volume="9"
				Note Time="221" Value="A2" Duration="1" Instrument="Duty 1" Volume="7"
				Note Time="222" Value="A3" Duration="1" Instrument="Duty 0"
				Note Time="223" Value="F#3" Duration="1" Instrument="Duty 1"
				Note Time="224" Value="G3" Duration="1" Instrument="Duty 1"
				Note Time="225" Value="G#3" Duration="1" Instrument="Duty 0"
				Note Time="226" Value="G3" Duration="1" Instrument="Duty 0" Volume="6"
				Note Time="227" Value="G#3" Duration="1" Instrument="Duty 0"
				Note Time="228" Value="A3" Duration="12" Instrument="Duty 0"
				Note Time="236" Volume="5"
				Note Time="240" Value="F3" Duration="1" Instrument="Duty 0" Volume="10"
				Note Time="241" Value="C3" Duration="1" Instrument="Duty 1" Volume="9"
				Note Time="242" Value="C#3" Duration="1" Instrument="Duty 1" Volume="8"
				Note Time="243" Value="D3" Duration="1" Instrument="Duty 1" Volume="7"
				Note Time="244" Value="D#3" Duration="1" Instrument="Duty 1"
				Note Time="245" Value="E3" Duration="1" Instrument="Duty 0"
				Note Time="246" Value="E3" Duration="1" Instrument="Duty 1"
				Note Time="247" Value="E3" Duration="1" Instrument="Duty 0" Volume="6"
				Note Time="248" Value="E3" Duration="1" Instrument="Duty 1"
				Note Time="249" Value="E3" Duration="1" Instrument="Duty 0"
				Note Time="250" Value="G#3" Duration="1" Instrument="Duty 0"
				Note Time="251" Value="A#2" Duration="1" Instrument="Duty 1" Volume="9"
				Note Time="252" Value="A2" Duration="1" Instrument="Duty 1" Volume="7"
				Note Time="253" Value="A3" Duration="1" Instrument="Duty 0"
				Note Time="254" Value="F#3" Duration="1" Instrument="Duty 1"
				Note Time="255" Value="G3" Duration="1" Instrument="Duty 1"
			PatternInstance Time="0" Pattern="Pattern 1"
			PatternInstance Time="1" Pattern="Pattern 2"
			PatternInstance Time="2" Pattern="Pattern 3"
			PatternInstance Time="3" Pattern="Pattern 4"
			PatternInstance Time="4" Pattern="Pattern 5"
		Channel Type="DPCM"
		Channel Type="MMC5Square1"
			Pattern Name="Pattern 1"
				Note Time="3" Value="D#3" Duration="1" Instrument="Duty 1" Volume="5" FinePitch="-1"
				Note Time="4" Value="D#3" Duration="17" Instrument="Duty 2"
				Note Time="5" Volume="4"
				Note Time="6" Volume="5"
				Note Time="8" Volume="4"
				Note Time="11" Volume="3"
				Note Time="14" Volume="2"
				Note Time="17" Volume="1"
				Note Time="21" Value="F#3" Duration="2" Instrument="Duty 1" Volume="4"
				Note Time="23" Value="D#3" Duration="2" Instrument="Duty 1" Volume="3"
				Note Time="25" Value="D#3" Duration="1" Instrument="Duty 2"
				Note Time="26" Value="A3" Duration="2" Instrument="Duty 1" Volume="5"
				Note Time="28" Value="F#3" Duration="2" Instrument="Duty 1" Volume="4"
				Note Time="30" Value="F#3" Duration="2" Instrument="Duty 2"
				Note Time="32" Value="C#4" Duration="2" Instrument="Duty 1" Volume="5"
				Note Time="34" Value="A#3" Duration="2" Instrument="Duty 1" Volume="4"
				Note Time="36" Value="A#3" Duration="1" Instrument="Duty 2"
				Note Time="37" Value="F#4" Duration="2" Instrument="Duty 1" Volume="5"
				Note Time="39" Value="D#4" Duration="2" Instrument="Duty 1" Volume="4"
				Note Time="41" Value="D#4" Duration="1" Instrument="Duty 2"
				Note Time="42" Value="A4" Duration="2" Instrument="Duty 1" Volume="5"
				Note Time="44" Value="F#4" Duration="2" Instrument="Duty 1" Volume="4"
				Note Time="46" Value="F#4" Duration="1" Instrument="Duty 2"
				Note Time="47" Value="F#4" Duration="2" Instrument="Duty 1" Volume="5"
				Note Time="49" Value="D#4" Duration="2" Instrument="Duty 1" Volume="4"
				Note Time="51" Value="D#4" Duration="1" Instrument="Duty 2"
				Note Time="52" Value="C#4" Duration="2" Instrument="Duty 1"
				Note Time="54" Value="A#3" Duration="2" Instrument="Duty 1" Volume="3"
				Note Time="56" Value="A#3" Duration="1" Instrument="Duty 2"
				Note Time="57" Value="A3" Duration="2" Instrument="Duty 1" Volume="5"
				Note Time="59" Value="F#3" Duration="2" Instrument="Duty 1" Volume="4"
				Note Time="61" Value="F#3" Duration="2" Instrument="Duty 2"
				Note Time="63" Value="C#4" Duration="2" Instrument="Duty 1"
				Note Time="65" Value="A#3" Duration="2" Instrument="Duty 1" Volume="3"
				Note Time="67" Value="A#3" Duration="1" Instrument="Duty 2"
				Note Time="68" Value="A3" Duration="2" Instrument="Duty 1" Volume="5"
				Note Time="70" Value="F#3" Duration="2" Instrument="Duty 1" Volume="4"
				Note Time="72" Value="F#3" Duration="1" Instrument="Duty 2"
				Note Time="73" Value="F#3" Duration="2" Instrument="Duty 1" Volume="5"
				Note Time="75" Value="D#3" Duration="2" Instrument="Duty 1" Volume="4"
				Note Time="77" Value="D#3" Duration="1" Instrument="Duty 2"
				Note Time="78" Value="C#3" Duration="2" Instrument="Duty 1" Volume="5"
				Note Time="80" Value="A#2" Duration="2" Instrument="Duty 1" Volume="4"
				Note Time="82" Value="A#2" Duration="1" Instrument="Duty 2"
				Note Time="83" Value="D#4" Duration="3" Instrument="Duty 1" Volume="6"
				Note Time="85" Volume="5"
				Note Time="86" Value="D#3" Duration="1" Instrument="Duty 1"
				Note Time="87" Value="D#3" Duration="17" Instrument="Duty 2"
				Note Time="88" Volume="4"
				Note Time="89" Volume="5"
				Note Time="91" Volume="4"
				Note Time="94" Volume="3"
				Note Time="97" Volume="2"
				Note Time="100" Volume="1"
				Note Time="104" Value="F#3" Duration="2" Instrument="Duty 1" Volume="4"
				Note Time="106" Value="D#3" Duration="2" Instrument="Duty 1" Volume="3"
				Note Time="108" Value="D#3" Duration="1" Instrument="Duty 2"
				Note Time="109" Value="G#3" Duration="2" Instrument="Duty 1" Volume="5"
				Note Time="111" Value="F3" Duration="2" Instrument="Duty 1" Volume="4"
				Note Time="113" Value="F3" Duration="1" Instrument="Duty 2"
				Note Time="114" Value="C4" Duration="2" Instrument="Duty 1" Volume="5"
				Note Time="116" Value="A3" Duration="2" Instrument="Duty 1" Volume="4"
				Note Time="118" Value="A3" Duration="2" Instrument="Duty 2"
				Note Time="120" Value="D#4" Duration="2" Instrument="Duty 1" Volume="5"
				Note Time="122" Value="C4" Duration="2" Instrument="Duty 1" Volume="4"
				Note Time="124" Value="C4" Duration="1" Instrument="Duty 2"
				Note Time="125" Value="G#4" Duration="2" Instrument="Duty 1" Volume="5"
				Note Time="127" Value="F4" Duration="2" Instrument="Duty 1" Volume="4"
				Note Time="129" Value="F4" Duration="1" Instrument="Duty 2"
				Note Time="130" Value="F#4" Duration="2" Instrument="Duty 1" Volume="5"
				Note Time="132" Value="D#4" Duration="2" Instrument="Duty 1" Volume="4"
				Note Time="134" Value="D#4" Duration="1" Instrument="Duty 2"
				Note Time="135" Value="D#4" Duration="2" Instrument="Duty 1"
				Note Time="137" Value="C4" Duration="2" Instrument="Duty 1" Volume="3"
				Note Time="139" Value="C4" Duration="1" Instrument="Duty 2"
				Note Time="140" Value="C4" Duration="2" Instrument="Duty 1" Volume="5"
				Note Time="142" Value="A3" Duration="2" Instrument="Duty 1" Volume="4"
				Note Time="144" Value="A3" Duration="1" Instrument="Duty 2"
				Note Time="145" Value="F#4" Duration="2" Instrument="Duty 1"
				Note Time="147" Value="D#4" Duration="2" Instrument="Duty 1" Volume="3"
				Note Time="149" Value="D#4" Duration="2" Instrument="Duty 2"
				Note Time="151" Value="D#4" Duration="2" Instrument="Duty 1" Volume="5"
				Note Time="153" Value="C4" Duration="2" Instrument="Duty 1" Volume="4"
				Note Time="155" Value="C4" Duration="1" Instrument="Duty 2"
				Note Time="156" Value="C4" Duration="2" Instrument="Duty 1" Volume="5"
				Note Time="158" Value="A3" Duration="2" Instrument="Duty 1" Volume="4"
				Note Time="160" Value="A3" Duration="1" Instrument="Duty 2"
				Note Time="161" Value="G#3" Duration="2" Instrument="Duty 1" Volume="5"
				Note Time="163" Value="F3" Duration="2" Instrument="Duty 1" Volume="4"
				Note Time="165" Value="F3" Duration="1" Instrument="Duty 2"
				Note Time="166" Value="F4" Duration="3" Instrument="Duty 1" Volume="6"
				Note Time="168" Volume="5"
				Note Time="169" Value="F3" Duration="1" Instrument="Duty 1"
				Note Time="170" Value="F3" Duration="17" Instrument="Duty 2"
				Note Time="174" Volume="4"
				Note Time="177" Volume="3"
				Note Time="180" Volume="2"
				Note Time="183" Volume="1"
				Note Time="187" Value="E3" Duration="2" Instrument="Duty 1" Volume="4"
				Note Time="189" Value="C#3" Duration="2" Instrument="Duty 1" Volume="3"
				Note Time="191" Value="C#3" Duration="1" Instrument="Duty 2"
				Note Time="192" Value="G#3" Duration="2" Instrument="Duty 1" Volume="5"
				Note Time="194" Value="F3" Duration="2" Instrument="Duty 1" Volume="4"
				Note Time="196" Value="F3" Duration="1" Instrument="Duty 2"
				Note Time="197" Value="C#4" Duration="2" Instrument="Duty 1" Volume="5"
				Note Time="199" Value="A#3" Duration="2" Instrument="Duty 1" Volume="4"
				Note Time="201" Value="A#3" Duration="1" Instrument="Duty 2"
				Note Time="202" Value="E4" Duration="2" Instrument="Duty 1" Volume="5"
				Note Time="204" Value="C#4" Duration="2" Instrument="Duty 1" Volume="4"
				Note Time="206" Value="C#4" Duration="2" Instrument="Duty 2"
				Note Time="208" Value="G#4" Duration="2" Instrument="Duty 1" Volume="5"
				Note Time="210" Value="F4" Duration="2" Instrument="Duty 1" Volume="4"
				Note Time="212" Value="F4" Duration="1" Instrument="Duty 2"
				Note Time="213" Value="E4" Duration="2" Instrument="Duty 1" Volume="5"
				Note Time="215" Value="C#4" Duration="2" Instrument="Duty 1" Volume="4"
				Note Time="217" Value="C#4" Duration="1" Instrument="Duty 2"
				Note Time="218" Value="C#4" Duration="2" Instrument="Duty 1"
				Note Time="220" Value="A#3" Duration="2" Instrument="Duty 1" Volume="3"
				Note Time="222" Value="A#3" Duration="1" Instrument="Duty 2"
				Note Time="223" Value="B3" Duration="2" Instrument="Duty 1" Volume="5"
				Note Time="225" Value="G#3" Duration="2" Instrument="Duty 1" Volume="4"
				Note Time="227" Value="G#3" Duration="1" Instrument="Duty 2"
				Note Time="228" Value="E4" Duration="2" Instrument="Duty 1"
				Note Time="230" Value="C#4" Duration="2" Instrument="Duty 1" Volume="3"
				Note Time="232" Value="C#4" Duration="2" Instrument="Duty 2"
				Note Time="234" Value="C#4" Duration="2" Instrument="Duty 1" Volume="5"
				Note Time="236" Value="A#3" Duration="2" Instrument="Duty 1" Volume="4"
				Note Time="238" Value="A#3" Duration="1" Instrument="Duty 2"
				Note Time="239" Value="B3" Duration="2" Instrument="Duty 1" Volume="5"
				Note Time="241" Value="G#3" Duration="2" Instrument="Duty 1" Volume="4"
				Note Time="243" Value="G#3" Duration="1" Instrument="Duty 2"
				Note Time="244" Value="G#3" Duration="2" Instrument="Duty 1" Volume="5"
				Note Time="246" Value="F3" Duration="2" Instrument="Duty 1" Volume="4"
				Note Time="248" Value="F3" Duration="1" Instrument="Duty 2"
				Note Time="249" Value="G#4" Duration="2" Instrument="Duty 1"
				Note Time="251" Value="F4" Duration="2" Instrument="Duty 1" Volume="3"
				Note Time="253" Value="F4" Duration="1" Instrument="Duty 2"
				Note Time="254" Value="F4" Duration="2" Instrument="Duty 1" Volume="5"
			Pattern Name="Pattern 2"
				Note Time="0" Value="D4" Duration="2" Instrument="Duty 1" Volume="4"
				Note Time="2" Value="D4" Duration="1" Instrument="Duty 2"
				Note Time="3" Value="C#4" Duration="2" Instrument="Duty 1" Volume="5"
				Note Time="5" Value="A#3" Duration="2" Instrument="Duty 1" Volume="4"
				Note Time="7" Value="A#3" Duration="2" Instrument="Duty 2"
				Note Time="9" Value="B3" Duration="2" Instrument="Duty 1" Volume="5"
				Note Time="11" Value="G#3" Duration="2" Instrument="Duty 1" Volume="4"
				Note Time="13" Value="G#3" Duration="1" Instrument="Duty 2"
				Note Time="14" Value="F4" Duration="2" Instrument="Duty 1"
				Note Time="16" Value="D4" Duration="2" Instrument="Duty 1" Volume="3"
				Note Time="18" Value="D4" Duration="1" Instrument="Duty 2"
				Note Time="19" Value="C#4" Duration="2" Instrument="Duty 1" Volume="5"
				Note Time="21" Value="A#3" Duration="2" Instrument="Duty 1" Volume="4"
				Note Time="23" Value="A#3" Duration="1" Instrument="Duty 2"
				Note Time="24" Value="B3" Duration="2" Instrument="Duty 1" Volume="5"
				Note Time="26" Value="G#3" Duration="2" Instrument="Duty 1" Volume="4"
				Note Time="28" Value="G#3" Duration="1" Instrument="Duty 2"
				Note Time="29" Value="G#3" Duration="2" Instrument="Duty 1" Volume="5"
				Note Time="31" Value="F3" Duration="2" Instrument="Duty 1" Volume="4"
				Note Time="33" Value="F3" Duration="1" Instrument="Duty 2"
				Note Time="34" Value="C#4" Duration="2" Instrument="Duty 1" Volume="5"
				Note Time="36" Value="A#3" Duration="2" Instrument="Duty 1" Volume="4"
				Note Time="38" Value="A#3" Duration="2" Instrument="Duty 2"
				Note Time="40" Value="B3" Duration="2" Instrument="Duty 1" Volume="5"
				Note Time="42" Value="G#3" Duration="2" Instrument="Duty 1" Volume="4"
				Note Time="44" Value="G#3" Duration="1" Instrument="Duty 2"
				Note Time="45" Value="G#3" Duration="2" Instrument="Duty 1"
				Note Time="47" Value="F3" Duration="2" Instrument="Duty 1" Volume="3"
				Note Time="49" Value="F3" Duration="1" Instrument="Duty 2"
				Note Time="50" Value="F3" Duration="2" Instrument="Duty 1" Volume="5"
				Note Time="52" Value="D3" Duration="2" Instrument="Duty 1" Volume="4"
				Note Time="54" Value="D3" Duration="1" Instrument="Duty 2"
				Note Time="55" Value="C#3" Duration="2" Instrument="Duty 1"
				Note Time="57" Value="A#2" Duration="2" Instrument="Duty 1" Volume="3"
				Note Time="59" Value="A#2" Duration="1" Instrument="Duty 2"
				Note Time="60" Value="F3" Duration="2" Instrument="Duty 1" Volume="5"
				Note Time="62" Value="D3" Duration="2" Instrument="Duty 1" Volume="4"
				Note Time="64" Value="D3" Duration="2" Instrument="Duty 2"
				Note Time="66" Value="G#3" Duration="2" Instrument="Duty 1" Volume="5"
				Note Time="68" Value="F3" Duration="2" Instrument="Duty 1" Volume="4"
				Note Time="70" Value="F3" Duration="1" Instrument="Duty 2"
				Note Time="71" Value="C#4" Duration="2" Instrument="Duty 1" Volume="5"
				Note Time="73" Value="A#3" Duration="2" Instrument="Duty 1" Volume="4"
				Note Time="75" Value="A#3" Duration="1" Instrument="Duty 2"
				Note Time="76" Value="D#4" Duration="3" Instrument="Duty 1" Volume="6"
				Note Time="78" Volume="5"
				Note Time="79" Value="D#3" Duration="1" Instrument="Duty 1"
				Note Time="80" Value="D#3" Duration="17" Instrument="Duty 2"
				Note Time="84" Volume="4"
				Note Time="87" Volume="3"
				Note Time="90" Volume="2"
				Note Time="93" Volume="1"
				Note Time="97" Value="F#3" Duration="2" Instrument="Duty 1" Volume="4"
				Note Time="99" Value="D#3" Duration="2" Instrument="Duty 1" Volume="3"
				Note Time="101" Value="D#3" Duration="1" Instrument="Duty 2"
				Note Time="102" Value="A3" Duration="2" Instrument="Duty 1" Volume="5"
				Note Time="104" Value="F#3" Duration="2" Instrument="Duty 1" Volume="4"
				Note Time="106" Value="F#3" Duration="1" Instrument="Duty 2"
				Note Time="107" Value="C#4" Duration="2" Instrument="Duty 1" Volume="5"
				Note Time="109" Value="A#3" Duration="2" Instrument="Duty 1" Volume="4"
				Note Time="111" Value="A#3" Duration="1" Instrument="Duty 2"
				Note Time="112" Value="F#4" Duration="2" Instrument="Duty 1" Volume="5"
				Note Time="114" Value="D#4" Duration="2" Instrument="Duty 1" Volume="4"
				Note Time="116" Value="D#4" Duration="1" Instrument="Duty 2"
				Note Time="117" Value="C#4" Duration="3" Instrument="Duty 1" Volume="7"
				Note Time="119" Volume="6"
				Note Time="120" Value="C#3" Duration="1" Instrument="Duty 1"
				Note Time="121" Value="C#3" Duration="17" Instrument="Duty 2"
				Note Time="122" Volume="5"
				Note Time="125" Volume="4"
				Note Time="128" Volume="2"
				Note Time="130" Volume="3"
				Note Time="131" Volume="2"
				Note Time="134" Volume="1"
				Note Time="138" Value="F#3" Duration="2" Instrument="Duty 1" Volume="4"
				Note Time="140" Value="D#3" Duration="2" Instrument="Duty 1" Volume="3"
				Note Time="142" Value="D#3" Duration="1" Instrument="Duty 2"
				Note Time="143" Value="A3" Duration="2" Instrument="Duty 1" Volume="5"
				Note Time="145" Value="F#3" Duration="2" Instrument="Duty 1" Volume="4"
				Note Time="147" Value="F#3" Duration="1" Instrument="Duty 2"
				Note Time="148" Value="C#4" Duration="2" Instrument="Duty 1" Volume="5"
				Note Time="150" Value="A#3" Duration="2" Instrument="Duty 1" Volume="4"
				Note Time="152" Value="A#3" Duration="2" Instrument="Duty 2"
				Note Time="154" Value="E4" Duration="2" Instrument="Duty 1" Volume="5"
				Note Time="156" Value="C#4" Duration="2" Instrument="Duty 1" Volume="4"
				Note Time="158" Value="C#4" Duration="1" Instrument="Duty 2"
				Note Time="159" Value="F#4" Duration="3" Instrument="Duty 1" Volume="6"
				Note Time="161" Volume="5"
				Note Time="162" Value="F#3" Duration="1" Instrument="Duty 1"
				Note Time="163" Value="F#3" Duration="16" Instrument="Duty 2"
				Note Time="167" Volume="4"
				Note Time="170" Volume="3"
				Note Time="173" Volume="2"
				Note Time="176" Volume="1"
				Note Time="179" Value="D#3" Duration="2" Instrument="Duty 1" Volume="4"
				Note Time="181" Value="C3" Duration="2" Instrument="Duty 1" Volume="3"
				Note Time="183" Value="C3" Duration="2" Instrument="Duty 2"
				Note Time="185" Value="F#3" Duration="2" Instrument="Duty 1" Volume="5"
				Note Time="187" Value="D#3" Duration="2" Instrument="Duty 1" Volume="4"
				Note Time="189" Value="D#3" Duration="1" Instrument="Duty 2"
				Note Time="190" Value="A3" Duration="2" Instrument="Duty 1" Volume="5"
				Note Time="192" Value="F#3" Duration="2" Instrument="Duty 1" Volume="4"
				Note Time="194" Value="F#3" Duration="1" Instrument="Duty 2"
				Note Time="195" Value="C4" Duration="2" Instrument="Duty 1" Volume="5"
				Note Time="197" Value="A3" Duration="2" Instrument="Duty 1" Volume="4"
				Note Time="199" Value="A3" Duration="1" Instrument="Duty 2"
				Note Time="200" Value="F#4" Duration="2" Instrument="Duty 1" Volume="5"
				Note Time="202" Value="D#4" Duration="2" Instrument="Duty 1" Volume="4"
				Note Time="204" Value="D#4" Duration="1" Instrument="Duty 2"
				Note Time="205" Value="D#4" Duration="2" Instrument="Duty 1" Volume="5"
				Note Time="207" Value="C4" Duration="2" Instrument="Duty 1" Volume="4"
				Note Time="209" Value="C4" Duration="2" Instrument="Duty 2"
				Note Time="211" Value="C4" Duration="2" Instrument="Duty 1"
				Note Time="213" Value="A3" Duration="2" Instrument="Duty 1" Volume="3"
				Note Time="215" Value="A3" Duration="1" Instrument="Duty 2"
				Note Time="216" Value="A3" Duration="2" Instrument="Duty 1" Volume="5"
				Note Time="218" Value="F#3" Duration="2" Instrument="Duty 1" Volume="4"
				Note Time="220" Value="F#3" Duration="1" Instrument="Duty 2"
				Note Time="221" Value="D#4" Duration="2" Instrument="Duty 1"
				Note Time="223" Value="C4" Duration="2" Instrument="Duty 1" Volume="3"
				Note Time="225" Value="C4" Duration="1" Instrument="Duty 2"
				Note Time="226" Value="C4" Duration="2" Instrument="Duty 1" Volume="5"
				Note Time="228" Value="A3" Duration="2" Instrument="Duty 1" Volume="4"
				Note Time="230" Value="A3" Duration="1" Instrument="Duty 2"
				Note Time="231" Value="A3" Duration="2" Instrument="Duty 1" Volume="5"
				Note Time="233" Value="F#3" Duration="2" Instrument="Duty 1" Volume="4"
				Note Time="235" Value="F#3" Duration="1" Instrument="Duty 2"
				Note Time="236" Value="F#3" Duration="2" Instrument="Duty 1" Volume="5"
				Note Time="238" Value="D#3" Duration="2" Instrument="Duty 1" Volume="4"
				Note Time="240" Value="D#3" Duration="2" Instrument="Duty 2"
				Note Time="242" Value="C#4" Duration="3" Instrument="Duty 1" Volume="6"
				Note Time="244" Volume="5"
				Note Time="245" Value="C#3" Duration="1" Instrument="Duty 1"
				Note Time="246" Value="C#3" Duration="16" Instrument="Duty 2"
				Note Time="250" Volume="4"
				Note Time="253" Volume="3"
			Pattern Name="Pattern 3"
				Note Time="0" Volume="2"
				Note Time="3" Volume="1"
				Note Time="6" Value="E4" Duration="2" Instrument="Duty 1" Volume="4"
				Note Time="8" Value="C#4" Duration="2" Instrument="Duty 1" Volume="3"
				Note Time="10" Value="C#4" Duration="2" Instrument="Duty 2"
				Note Time="12" Value="C#4" Duration="2" Instrument="Duty 1" Volume="5"
				Note Time="14" Value="A#3" Duration="2" Instrument="Duty 1" Volume="4"
				Note Time="16" Value="A#3" Duration="1" Instrument="Duty 2"
				Note Time="17" Value="B3" Duration="2" Instrument="Duty 1" Volume="5"
				Note Time="19" Value="G#3" Duration="2" Instrument="Duty 1" Volume="4"
				Note Time="21" Value="G#3" Duration="1" Instrument="Duty 2"
				Note Time="22" Value="G#3" Duration="2" Instrument="Duty 1" Volume="5"
				Note Time="24" Value="F3" Duration="2" Instrument="Duty 1" Volume="4"
				Note Time="26" Value="F3" Duration="1" Instrument="Duty 2"
				Note Time="27" Value="E3" Duration="2" Instrument="Duty 1" Volume="5"
				Note Time="29" Value="C#3" Duration="2" Instrument="Duty 1" Volume="4"
				Note Time="31" Value="C#3" Duration="1" Instrument="Duty 2"
				Note Time="32" Value="G#3" Duration="2" Instrument="Duty 1" Volume="5"
				Note Time="34" Value="F3" Duration="2" Instrument="Duty 1" Volume="4"
				Note Time="36" Value="F3" Duration="1" Instrument="Duty 2"
				Note Time="37" Value="B3" Duration="2" Instrument="Duty 1"
				Note Time="39" Value="G#3" Duration="2" Instrument="Duty 1" Volume="3"
				Note Time="41" Value="G#3" Duration="2" Instrument="Duty 2"
				Note Time="43" Value="C#4" Duration="2" Instrument="Duty 1" Volume="5"
				Note Time="45" Value="A#3" Duration="2" Instrument="Duty 1" Volume="4"
				Note Time="47" Value="A#3" Duration="1" Instrument="Duty 2"
				Note Time="48" Value="G#3" Duration="2" Instrument="Duty 1"
				Note Time="50" Value="F3" Duration="2" Instrument="Duty 1" Volume="3"
				Note Time="52" Value="F3" Duration="1" Instrument="Duty 2"
				Note Time="53" Value="B3" Duration="2" Instrument="Duty 1" Volume="5"
				Note Time="55" Value="G#3" Duration="2" Instrument="Duty 1" Volume="4"
				Note Time="57" Value="G#3" Duration="1" Instrument="Duty 2"
				Note Time="58" Value="C#4" Duration="2" Instrument="Duty 1" Volume="5"
				Note Time="60" Value="A#3" Duration="2" Instrument="Duty 1" Volume="4"
				Note Time="62" Value="A#3" Duration="1" Instrument="Duty 2"
				Note Time="63" Value="E4" Duration="2" Instrument="Duty 1" Volume="5"
				Note Time="65" Value="C#4" Duration="2" Instrument="Duty 1" Volume="4"
				Note Time="67" Value="C#4" Duration="1" Instrument="Duty 2"
				Note Time="68" Value="F#4" Duration="3" Instrument="Duty 1" Volume="6"
				Note Time="70" Volume="5"
				Note Time="71" Value="F#3" Duration="1" Instrument="Duty 1"
				Note Time="72" Value="F#3" Duration="17" Instrument="Duty 2"
				Note Time="73" Volume="4"
				Note Time="74" Volume="5"
				Note Time="76" Volume="4"
				Note Time="79" Volume="3"
				Note Time="82" Volume="2"
				Note Time="85" Volume="1"
				Note Time="89" Value="F4" Duration="2" Instrument="Duty 1" Volume="4"
				Note Time="91" Value="D4" Duration="2" Instrument="Duty 1" Volume="3"
				Note Time="93" Value="D4" Duration="1" Instrument="Duty 2"
				Note Time="94" Value="C#4" Duration="2" Instrument="Duty 1" Volume="5"
				Note Time="96" Value="A#3" Duration="2" Instrument="Duty 1" Volume="4"
				Note Time="98" Value="A#3" Duration="2" Instrument="Duty 2"
				Note Time="100" Value="B3" Duration="2" Instrument="Duty 1" Volume="5"
				Note Time="102" Value="G#3" Duration="2" Instrument="Duty 1" Volume="4"
				Note Time="104" Value="G#3" Duration="1" Instrument="Duty 2"
				Note Time="105" Value="G#3" Duration="2" Instrument="Duty 1" Volume="5"
				Note Time="107" Value="F3" Duration="2" Instrument="Duty 1" Volume="4"
				Note Time="109" Value="F3" Duration="1" Instrument="Duty 2"
				Note Time="110" Value="F4" Duration="3" Instrument="Duty 1" Volume="7"
				Note Time="112" Volume="6"
				Note Time="113" Value="F3" Duration="1" Instrument="Duty 1"
				Note Time="114" Value="F3" Duration="17" Instrument="Duty 2"
				Note Time="115" Volume="5"
				Note Time="118" Volume="4"
				Note Time="120" Volume="3"
				Note Time="121" Volume="2"
				Note Time="123" Volume="3"
				Note Time="124" Volume="2"
				Note Time="127" Volume="1"
				Note Time="131" Value="G#4" Duration="2" Instrument="Duty 1" Volume="4"
				Note Time="133" Value="F4" Duration="2" Instrument="Duty 1" Volume="3"
				Note Time="135" Value="F4" Duration="1" Instrument="Duty 2"
				Note Time="136" Value="F4" Duration="2" Instrument="Duty 1" Volume="5"
				Note Time="138" Value="D4" Duration="2" Instrument="Duty 1" Volume="4"
				Note Time="140" Value="D4" Duration="1" Instrument="Duty 2"
				Note Time="141" Value="C#4" Duration="2" Instrument="Duty 1"
				Note Time="143" Value="A#3" Duration="2" Instrument="Duty 1" Volume="3"
				Note Time="145" Value="A#3" Duration="1" Instrument="Duty 2"
				Note Time="146" Value="B3" Duration="2" Instrument="Duty 1" Volume="5"
				Note Time="148" Value="G#3" Duration="2" Instrument="Duty 1" Volume="4"
				Note Time="150" Value="G#3" Duration="1" Instrument="Duty 2"
				Note Time="151" Value="D#4" Duration="3" Instrument="Duty 1" Volume="5"
				Note Time="153" Volume="4"
				Note Time="154" Value="D#3" Duration="1" Instrument="Duty 1" Volume="5"
				Note Time="155" Value="D#3" Duration="17" Instrument="Duty 2"
				Note Time="159" Volume="4"
				Note Time="162" Volume="3"
				Note Time="165" Volume="2"
				Note Time="168" Volume="1"
				Note Time="172" Value="F#3" Duration="2" Instrument="Duty 1" Volume="4"
				Note Time="174" Value="D#3" Duration="2" Instrument="Duty 1" Volume="3"
				Note Time="176" Value="D#3" Duration="1" Instrument="Duty 2"
				Note Time="177" Value="A3" Duration="2" Instrument="Duty 1" Volume="5"
				Note Time="179" Value="F#3" Duration="2" Instrument="Duty 1" Volume="4"
				Note Time="181" Value="F#3" Duration="1" Instrument="Duty 2"
				Note Time="182" Value="C#4" Duration="2" Instrument="Duty 1" Volume="5"
				Note Time="184" Value="A#3" Duration="2" Instrument="Duty 1" Volume="4"
				Note Time="186" Value="A#3" Duration="2" Instrument="Duty 2"
				Note Time="188" Value="F#4" Duration="2" Instrument="Duty 1" Volume="5"
				Note Time="190" Value="D#4" Duration="2" Instrument="Duty 1" Volume="4"
				Note Time="192" Value="D#4" Duration="1" Instrument="Duty 2"
				Note Time="193" Value="A4" Duration="2" Instrument="Duty 1" Volume="5"
				Note Time="195" Value="F#4" Duration="2" Instrument="Duty 1" Volume="4"
				Note Time="197" Value="F#4" Duration="1" Instrument="Duty 2"
				Note Time="198" Value="F#4" Duration="2" Instrument="Duty 1" Volume="5"
				Note Time="200" Value="D#4" Duration="2" Instrument="Duty 1" Volume="4"
				Note Time="202" Value="D#4" Duration="1" Instrument="Duty 2"
				Note Time="203" Value="C#4" Duration="2" Instrument="Duty 1"
				Note Time="205" Value="A#3" Duration="2" Instrument="Duty 1" Volume="3"
				Note Time="207" Value="A#3" Duration="1" Instrument="Duty 2"
				Note Time="208" Value="A3" Duration="2" Instrument="Duty 1" Volume="5"
				Note Time="210" Value="F#3" Duration="2" Instrument="Duty 1" Volume="4"
				Note Time="212" Value="F#3" Duration="1" Instrument="Duty 2"
				Note Time="213" Value="C#4" Duration="2" Instrument="Duty 1"
				Note Time="215" Value="A#3" Duration="2" Instrument="Duty 1" Volume="3"
				Note Time="217" Value="A#3" Duration="2" Instrument="Duty 2"
				Note Time="219" Value="A3" Duration="2" Instrument="Duty 1" Volume="5"
				Note Time="221" Value="F#3" Duration="2" Instrument="Duty 1" Volume="4"
				Note Time="223" Value="F#3" Duration="1" Instrument="Duty 2"
				Note Time="224" Value="F#3" Duration="2" Instrument="Duty 1" Volume="5"
				Note Time="226" Value="D#3" Duration="2" Instrument="Duty 1" Volume="4"
				Note Time="228" Value="D#3" Duration="1" Instrument="Duty 2"
				Note Time="229" Value="C#3" Duration="2" Instrument="Duty 1" Volume="5"
				Note Time="231" Value="A#2" Duration="2" Instrument="Duty 1" Volume="4"
				Note Time="233" Value="A#2" Duration="1" Instrument="Duty 2"
				Note Time="234" Value="D#4" Duration="3" Instrument="Duty 1" Volume="6"
				Note Time="236" Volume="5"
				Note Time="237" Value="D#3" Duration="1" Instrument="Duty 1"
				Note Time="238" Value="D#3" Duration="17" Instrument="Duty 2"
				Note Time="242" Volume="4"
				Note Time="245" Volume="3"
				Note Time="248" Volume="2"
				Note Time="251" Volume="1"
				Note Time="255" Value="F#3" Duration="2" Instrument="Duty 1" Volume="4"
			Pattern Name="Pattern 4"
				Note Time="1" Value="D#3" Duration="2" Instrument="Duty 1" Volume="3"
				Note Time="3" Value="D#3" Duration="1" Instrument="Duty 2"
				Note Time="4" Value="G#3" Duration="2" Instrument="Duty 1" Volume="5"
				Note Time="6" Value="F3" Duration="2" Instrument="Duty 1" Volume="4"
				Note Time="8" Value="F3" Duration="1" Instrument="Duty 2"
				Note Time="9" Value="C4" Duration="2" Instrument="Duty 1" Volume="5"
				Note Time="11" Value="A3" Duration="2" Instrument="Duty 1" Volume="4"
				Note Time="13" Value="A3" Duration="1" Instrument="Duty 2"
				Note Time="14" Value="D#4" Duration="2" Instrument="Duty 1" Volume="5"
				Note Time="16" Value="C4" Duration="2" Instrument="Duty 1" Volume="4"
				Note Time="18" Value="C4" Duration="2" Instrument="Duty 2"
				Note Time="20" Value="G#4" Duration="2" Instrument="Duty 1" Volume="5"
				Note Time="22" Value="F4" Duration="2" Instrument="Duty 1" Volume="4"
				Note Time="24" Value="F4" Duration="1" Instrument="Duty 2"
				Note Time="25" Value="F#4" Duration="2" Instrument="Duty 1" Volume="5"
				Note Time="27" Value="D#4" Duration="2" Instrument="Duty 1" Volume="4"
				Note Time="29" Value="D#4" Duration="1" Instrument="Duty 2"
				Note Time="30" Value="D#4" Duration="2" Instrument="Duty 1"
				Note Time="32" Value="C4" Duration="2" Instrument="Duty 1" Volume="3"
				Note Time="34" Value="C4" Duration="1" Instrument="Duty 2"
				Note Time="35" Value="C4" Duration="2" Instrument="Duty 1" Volume="5"
				Note Time="37" Value="A3" Duration="2" Instrument="Duty 1" Volume="4"
				Note Time="39" Value="A3" Duration="1" Instrument="Duty 2"
				Note Time="40" Value="F#4" Duration="2" Instrument="Duty 1"
				Note Time="42" Value="D#4" Duration="2" Instrument="Duty 1" Volume="3"
				Note Time="44" Value="D#4" Duration="1" Instrument="Duty 2"
				Note Time="45" Value="D#4" Duration="2" Instrument="Duty 1" Volume="5"
				Note Time="47" Value="C4" Duration="2" Instrument="Duty 1" Volume="4"
				Note Time="49" Value="C4" Duration="2" Instrument="Duty 2"
				Note Time="51" Value="C4" Duration="2" Instrument="Duty 1" Volume="5"
				Note Time="53" Value="A3" Duration="2" Instrument="Duty 1" Volume="4"
				Note Time="55" Value="A3" Duration="1" Instrument="Duty 2"
				Note Time="56" Value="G#3" Duration="2" Instrument="Duty 1" Volume="5"
				Note Time="58" Value="F3" Duration="2" Instrument="Duty 1" Volume="4"
				Note Time="60" Value="F3" Duration="1" Instrument="Duty 2"
				Note Time="61" Value="F4" Duration="3" Instrument="Duty 1" Volume="6"
				Note Time="63" Volume="5"
				Note Time="64" Value="F3" Duration="1" Instrument="Duty 1"
				Note Time="65" Value="F3" Duration="17" Instrument="Duty 2"
				Note Time="69" Volume="4"
				Note Time="72" Volume="3"
				Note Time="75" Volume="2"
				Note Time="78" Volume="1"
				Note Time="82" Value="E3" Duration="2" Instrument="Duty 1" Volume="4"
				Note Time="84" Value="C#3" Duration="2" Instrument="Duty 1" Volume="3"
				Note Time="86" Value="C#3" Duration="1" Instrument="Duty 2"
				Note Time="87" Value="G#3" Duration="2" Instrument="Duty 1" Volume="5"
				Note Time="89" Value="F3" Duration="2" Instrument="Duty 1" Volume="4"
				Note Time="91" Value="F3" Duration="1" Instrument="Duty 2"
				Note Time="92" Value="B3" Duration="2" Instrument="Duty 1" Volume="5"
				Note Time="94" Value="G#3" Duration="2" Instrument="Duty 1" Volume="4"
				Note Time="96" Value="G#3" Duration="1" Instrument="Duty 2"
				Note Time="97" Value="E4" Duration="2" Instrument="Duty 1" Volume="5"
				Note Time="99" Value="C#4" Duration="2" Instrument="Duty 1" Volume="4"
				Note Time="101" Value="C#4" Duration="1" Instrument="Duty 2"
				Note Time="102" Value="G#4" Duration="2" Instrument="Duty 1" Volume="5"
				Note Time="104" Value="F4" Duration="2" Instrument="Duty 1" Volume="4"
				Note Time="106" Value="F4" Duration="2" Instrument="Duty 2"
				Note Time="108" Value="E4" Duration="2" Instrument="Duty 1" Volume="5"
				Note Time="110" Value="C#4" Duration="2" Instrument="Duty 1" Volume="4"
				Note Time="112" Value="C#4" Duration="1" Instrument="Duty 2"
				Note Time="113" Value="C#4" Duration="2" Instrument="Duty 1"
				Note Time="115" Value="A#3" Duration="2" Instrument="Duty 1" Volume="3"
				Note Time="117" Value="A#3" Duration="1" Instrument="Duty 2"
				Note Time="118" Value="B3" Duration="2" Instrument="Duty 1" Volume="5"
				Note Time="120" Value="G#3" Duration="2" Instrument="Duty 1" Volume="4"
				Note Time="122" Value="G#3" Duration="1" Instrument="Duty 2"
				Note Time="123" Value="E4" Duration="2" Instrument="Duty 1"
				Note Time="125" Value="C#4" Duration="2" Instrument="Duty 1" Volume="3"
				Note Time="127" Value="C#4" Duration="1" Instrument="Duty 2"
				Note Time="128" Value="C#4" Duration="2" Instrument="Duty 1" Volume="5"
				Note Time="130" Value="A#3" Duration="2" Instrument="Duty 1" Volume="4"
				Note Time="132" Value="A#3" Duration="2" Instrument="Duty 2"
				Note Time="134" Value="B3" Duration="2" Instrument="Duty 1" Volume="5"
				Note Time="136" Value="G#3" Duration="2" Instrument="Duty 1" Volume="4"
				Note Time="138" Value="G#3" Duration="1" Instrument="Duty 2"
				Note Time="139" Value="G#3" Duration="2" Instrument="Duty 1" Volume="5"
				Note Time="141" Value="F3" Duration="2" Instrument="Duty 1" Volume="4"
				Note Time="143" Value="F3" Duration="1" Instrument="Duty 2"
				Note Time="144" Value="F4" Duration="3" Instrument="Duty 1" Volume="6"
				Note Time="146" Volume="5"
				Note Time="147" Value="F3" Duration="1" Instrument="Duty 1"
				Note Time="148" Value="F3" Duration="17" Instrument="Duty 2"
				Note Time="152" Volume="4"
				Note Time="155" Volume="3"
				Note Time="158" Volume="2"
				Note Time="161" Volume="1"
				Note Time="165" Value="F3" Duration="2" Instrument="Duty 1" Volume="4"
				Note Time="167" Value="D3" Duration="2" Instrument="Duty 1" Volume="3"
				Note Time="169" Value="D3" Duration="1" Instrument="Duty 2"
				Note Time="170" Value="G#3" Duration="2" Instrument="Duty 1" Volume="5"
				Note Time="172" Value="F3" Duration="2" Instrument="Duty 1" Volume="4"
				Note Time="174" Value="F3" Duration="1" Instrument="Duty 2"
				Note Time="175" Value="B3" Duration="2" Instrument="Duty 1" Volume="5"
				Note Time="177" Value="G#3" Duration="2" Instrument="Duty 1" Volume="4"
				Note Time="179" Value="G#3" Duration="1" Instrument="Duty 2"
				Note Time="180" Value="F4" Duration="2" Instrument="Duty 1" Volume="5"
				Note Time="182" Value="D4" Duration="2" Instrument="Duty 1" Volume="4"
				Note Time="184" Value="D4" Duration="1" Instrument="Duty 2"
				Note Time="185" Value="G#4" Duration="2" Instrument="Duty 1" Volume="5"
				Note Time="187" Value="F4" Duration="2" Instrument="Duty 1" Volume="4"
				Note Time="189" Value="F4" Duration="1" Instrument="Duty 2"
				Note Time="190" Value="F4" Duration="2" Instrument="Duty 1" Volume="5"
				Note Time="192" Value="D4" Duration="2" Instrument="Duty 1" Volume="4"
				Note Time="194" Value="D4" Duration="2" Instrument="Duty 2"
				Note Time="196" Value="C#4" Duration="2" Instrument="Duty 1"
				Note Time="198" Value="A#3" Duration="2" Instrument="Duty 1" Volume="3"
				Note Time="200" Value="A#3" Duration="1" Instrument="Duty 2"
				Note Time="201" Value="B3" Duration="2" Instrument="Duty 1" Volume="5"
				Note Time="203" Value="G#3" Duration="2" Instrument="Duty 1" Volume="4"
				Note Time="205" Value="G#3" Duration="1" Instrument="Duty 2"
				Note Time="206" Value="F4" Duration="2" Instrument="Duty 1"
				Note Time="208" Value="D4" Duration="2" Instrument="Duty 1" Volume="3"
				Note Time="210" Value="D4" Duration="1" Instrument="Duty 2"
				Note Time="211" Value="C#4" Duration="2" Instrument="Duty 1" Volume="5"
				Note Time="213" Value="A#3" Duration="2" Instrument="Duty 1" Volume="4"
				Note Time="215" Value="A#3" Duration="1" Instrument="Duty 2"
				Note Time="216" Value="B3" Duration="2" Instrument="Duty 1" Volume="5"
				Note Time="218" Value="G#3" Duration="2" Instrument="Duty 1" Volume="4"
				Note Time="220" Value="G#3" Duration="2" Instrument="Duty 2"
				Note Time="222" Value="G#3" Duration="2" Instrument="Duty 1" Volume="5"
				Note Time="224" Value="F3" Duration="2" Instrument="Duty 1" Volume="4"
				Note Time="226" Value="F3" Duration="1" Instrument="Duty 2"
				Note Time="227" Value="D#4" Duration="3" Instrument="Duty 1" Volume="6"
				Note Time="229" Volume="5"
				Note Time="230" Value="D#3" Duration="1" Instrument="Duty 1"
				Note Time="231" Value="D#3" Duration="16" Instrument="Duty 2"
				Note Time="235" Volume="4"
				Note Time="238" Volume="3"
				Note Time="241" Volume="2"
				Note Time="244" Volume="1"
				Note Time="247" Value="F#3" Duration="2" Instrument="Duty 1" Volume="4"
				Note Time="249" Value="D#3" Duration="2" Instrument="Duty 1" Volume="3"
				Note Time="251" Value="D#3" Duration="2" Instrument="Duty 2"
				Note Time="253" Value="A3" Duration="2" Instrument="Duty 1" Volume="5"
				Note Time="255" Value="F#3" Duration="2" Instrument="Duty 1" Volume="4"
			Pattern Name="Pattern 5"
				Note Time="1" Value="F#3" Duration="1" Instrument="Duty 2"
				Note Time="2" Value="D4" Duration="2" Instrument="Duty 1" Volume="5"
				Note Time="4" Value="B3" Duration="2" Instrument="Duty 1" Volume="4"
				Note Time="6" Value="B3" Duration="1" Instrument="Duty 2"
				Note Time="7" Value="F#4" Duration="2" Instrument="Duty 1" Volume="5"
				Note Time="9" Value="D#4" Duration="2" Instrument="Duty 1" Volume="4"
				Note Time="11" Value="D#4" Duration="1" Instrument="Duty 2"
				Note Time="12" Value="A4" Duration="2" Instrument="Duty 1" Volume="5"
				Note Time="14" Value="F#4" Duration="2" Instrument="Duty 1" Volume="4"
				Note Time="16" Value="F#4" Duration="1" Instrument="Duty 2"
				Note Time="17" Value="F#4" Duration="2" Instrument="Duty 1" Volume="5"
				Note Time="19" Value="D#4" Duration="2" Instrument="Duty 1" Volume="4"
				Note Time="21" Value="D#4" Duration="2" Instrument="Duty 2"
				Note Time="23" Value="D4" Duration="2" Instrument="Duty 1"
				Note Time="25" Value="B3" Duration="2" Instrument="Duty 1" Volume="3"
				Note Time="27" Value="B3" Duration="1" Instrument="Duty 2"
				Note Time="28" Value="A3" Duration="2" Instrument="Duty 1" Volume="5"
				Note Time="30" Value="F#3" Duration="2" Instrument="Duty 1" Volume="4"
				Note Time="32" Value="F#3" Duration="1" Instrument="Duty 2"
				Note Time="33" Value="D4" Duration="2" Instrument="Duty 1"
				Note Time="35" Value="B3" Duration="2" Instrument="Duty 1" Volume="3"
				Note Time="37" Value="B3" Duration="1" Instrument="Duty 2"
				Note Time="38" Value="A3" Duration="2" Instrument="Duty 1" Volume="5"
				Note Time="40" Value="F#3" Duration="2" Instrument="Duty 1" Volume="4"
				Note Time="42" Value="F#3" Duration="1" Instrument="Duty 2"
				Note Time="43" Value="F#3" Duration="2" Instrument="Duty 1" Volume="5"
				Note Time="45" Value="D#3" Duration="2" Instrument="Duty 1" Volume="4"
				Note Time="47" Value="D#3" Duration="1" Instrument="Duty 2"
				Note Time="48" Value="D3" Duration="2" Instrument="Duty 1" Volume="5"
				Note Time="50" Value="B2" Duration="2" Instrument="Duty 1" Volume="4"
				Note Time="52" Value="B2" Duration="2" Instrument="Duty 2"
				Note Time="54" Value="G#4" Duration="3" Instrument="Duty 1" Volume="6"
				Note Time="56" Volume="5"
				Note Time="57" Value="G#3" Duration="1" Instrument="Duty 1"
				Note Time="58" Value="G#3" Duration="16" Instrument="Duty 2"
				Note Time="62" Volume="4"
				Note Time="65" Volume="3"
				Note Time="68" Volume="2"
				Note Time="71" Volume="1"
				Note Time="74" Value="F#3" Duration="2" Instrument="Duty 1" Volume="4"
				Note Time="76" Value="D#3" Duration="2" Instrument="Duty 1" Volume="3"
				Note Time="78" Value="D#3" Duration="1" Instrument="Duty 2"
				Note Time="79" Value="B3" Duration="2" Instrument="Duty 1" Volume="5"
				Note Time="81" Value="G#3" Duration="2" Instrument="Duty 1" Volume="4"
				Note Time="83" Value="G#3" Duration="2" Instrument="Duty 2"
				Note Time="85" Value="D#4" Duration="2" Instrument="Duty 1" Volume="5"
				Note Time="87" Value="C4" Duration="2" Instrument="Duty 1" Volume="4"
				Note Time="89" Value="C4" Duration="1" Instrument="Duty 2"
				Note Time="90" Value="F#4" Duration="2" Instrument="Duty 1" Volume="5"
				Note Time="92" Value="D#4" Duration="2" Instrument="Duty 1" Volume="4"
				Note Time="94" Value="D#4" Duration="1" Instrument="Duty 2"
				Note Time="95" Value="B4" Duration="2" Instrument="Duty 1" Volume="5"
				Note Time="97" Value="G#4" Duration="2" Instrument="Duty 1" Volume="4"
				Note Time="99" Value="G#4" Duration="1" Instrument="Duty 2"
				Note Time="100" Value="F#4" Duration="2" Instrument="Duty 1" Volume="5"
				Note Time="102" Value="D#4" Duration="2" Instrument="Duty 1" Volume="4"
				Note Time="104" Value="D#4" Duration="1" Instrument="Duty 2"
				Note Time="105" Value="D#4" Duration="2" Instrument="Duty 1"
				Note Time="107" Value="C4" Duration="2" Instrument="Duty 1" Volume="3"
				Note Time="109" Value="C4" Duration="2" Instrument="Duty 2"
				Note Time="111" Value="B3" Duration="2" Instrument="Duty 1" Volume="5"
				Note Time="113" Value="G#3" Duration="2" Instrument="Duty 1" Volume="4"
				Note Time="115" Value="G#3" Duration="1" Instrument="Duty 2"
				Note Time="116" Value="F#4" Duration="2" Instrument="Duty 1"
				Note Time="118" Value="D#4" Duration="2" Instrument="Duty 1" Volume="3"
				Note Time="120" Value="D#4" Duration="1" Instrument="Duty 2"
				Note Time="121" Value="D#4" Duration="2" Instrument="Duty 1" Volume="5"
				Note Time="123" Value="C4" Duration="2" Instrument="Duty 1" Volume="4"
				Note Time="125" Value="C4" Duration="1" Instrument="Duty 2"
				Note Time="126" Value="B3" Duration="2" Instrument="Duty 1" Volume="5"
				Note Time="128" Value="G#3" Duration="2" Instrument="Duty 1" Volume="4"
				Note Time="130" Value="G#3" Duration="1" Instrument="Duty 2"
				Note Time="131" Value="E3" Duration="2" Instrument="Duty 1" Volume="5"
				Note Time="133" Value="C#3" Duration="2" Instrument="Duty 1" Volume="4"
				Note Time="135" Value="C#3" Duration="1" Instrument="Duty 2"
				Note Time="136" Value="B4" Duration="2" Instrument="Duty 1"
				Note Time="138" Value="G#4" Duration="2" Instrument="Duty 1" Volume="3"
				Note Time="140" Value="G#4" Duration="2" Instrument="Duty 2"
				Note Time="142" Value="G#4" Duration="2" Instrument="Duty 1" Volume="5"
				Note Time="144" Value="F4" Duration="2" Instrument="Duty 1" Volume="4"
				Note Time="146" Value="F4" Duration="1" Instrument="Duty 2"
				Note Time="147" Value="E4" Duration="2" Instrument="Duty 1" Volume="5"
				Note Time="149" Value="C#4" Duration="2" Instrument="Duty 1" Volume="4"
				Note Time="151" Value="C#4" Duration="1" Instrument="Duty 2"
				Note Time="152" Value="B3" Duration="2" Instrument="Duty 1" Volume="5"
				Note Time="154" Value="G#3" Duration="2" Instrument="Duty 1" Volume="4"
				Note Time="156" Value="G#3" Duration="1" Instrument="Duty 2"
				Note Time="157" Value="G#4" Duration="2" Instrument="Duty 1"
				Note Time="159" Value="F4" Duration="2" Instrument="Duty 1" Volume="3"
				Note Time="161" Value="F4" Duration="1" Instrument="Duty 2"
				Note Time="162" Value="E4" Duration="2" Instrument="Duty 1" Volume="5"
				Note Time="164" Value="C#4" Duration="2" Instrument="Duty 1" Volume="4"
				Note Time="166" Value="C#4" Duration="1" Instrument="Duty 2"
				Note Time="167" Value="B3" Duration="2" Instrument="Duty 1" Volume="5"
				Note Time="169" Value="G#3" Duration="2" Instrument="Duty 1" Volume="4"
				Note Time="171" Value="G#3" Duration="2" Instrument="Duty 2"
				Note Time="173" Value="G#3" Duration="2" Instrument="Duty 1" Volume="5"
				Note Time="175" Value="F3" Duration="2" Instrument="Duty 1" Volume="4"
				Note Time="177" Value="F3" Duration="1" Instrument="Duty 2"
				Note Time="178" Value="E4" Duration="2" Instrument="Duty 1" Volume="5"
				Note Time="180" Value="C#4" Duration="2" Instrument="Duty 1" Volume="4"
				Note Time="182" Value="C#4" Duration="1" Instrument="Duty 2"
				Note Time="183" Value="B3" Duration="2" Instrument="Duty 1" Volume="5"
				Note Time="185" Value="G#3" Duration="2" Instrument="Duty 1" Volume="4"
				Note Time="187" Value="G#3" Duration="1" Instrument="Duty 2"
				Note Time="188" Value="G#3" Duration="2" Instrument="Duty 1"
				Note Time="190" Value="F3" Duration="2" Instrument="Duty 1" Volume="3"
				Note Time="192" Value="F3" Duration="1" Instrument="Duty 2"
				Note Time="193" Value="E3" Duration="2" Instrument="Duty 1" Volume="5"
				Note Time="195" Value="C#3" Duration="2" Instrument="Duty 1" Volume="4"
				Note Time="197" Value="C#3" Duration="2" Instrument="Duty 2"
				Note Time="199" Value="B3" Duration="2" Instrument="Duty 1"
				Note Time="201" Value="G#3" Duration="2" Instrument="Duty 1" Volume="3"
				Note Time="203" Value="G#3" Duration="1" Instrument="Duty 2"
				Note Time="204" Value="G#3" Duration="2" Instrument="Duty 1" Volume="5"
				Note Time="206" Value="F3" Duration="2" Instrument="Duty 1" Volume="4"
				Note Time="208" Value="F3" Duration="1" Instrument="Duty 2"
				Note Time="209" Value="E3" Duration="2" Instrument="Duty 1" Volume="5"
				Note Time="211" Value="C#3" Duration="2" Instrument="Duty 1" Volume="4"
				Note Time="213" Value="C#3" Duration="1" Instrument="Duty 2"
				Note Time="214" Value="B2" Duration="2" Instrument="Duty 1" Volume="5"
				Note Time="216" Value="G#2" Duration="2" Instrument="Duty 1" Volume="4"
				Note Time="218" Value="G#2" Duration="1" Instrument="Duty 2"
				Note Time="219" Value="G#2" Duration="2" Instrument="Duty 1" Volume="5"
				Note Time="221" Value="F2" Duration="2" Instrument="Duty 1" Volume="4"
				Note Time="223" Value="F2" Duration="1" Instrument="Duty 2"
				Note Time="224" Value="B2" Duration="2" Instrument="Duty 1" Volume="5"
				Note Time="226" Value="G#2" Duration="1" Instrument="Duty 1" Volume="4"
				Note Time="227" Value="C#3" Duration="2" Instrument="Duty 1" Volume="5"
				Note Time="229" Value="A#2" Duration="1" Instrument="Duty 1" Volume="4"
				Note Time="230" Value="B2" Duration="2" Instrument="Duty 1" Volume="5"
				Note Time="232" Value="G#2" Duration="2" Instrument="Duty 1" Volume="4"
				Note Time="234" Value="G#2" Duration="1" Instrument="Duty 2"
				Note Time="235" Value="C#3" Duration="2" Instrument="Duty 1" Volume="5"
				Note Time="237" Value="F3" Duration="2" Instrument="Duty 1"
				Note Time="239" Value="D3" Duration="1" Instrument="Duty 1" Volume="4"
				Note Time="240" Value="C#3" Duration="2" Instrument="Duty 1" Volume="5"
				Note Time="242" Value="A#2" Duration="2" Instrument="Duty 1" Volume="4"
				Note Time="244" Value="A#2" Duration="1" Instrument="Duty 2"
				Note Time="245" Value="F3" Duration="2" Instrument="Duty 1" Volume="5"
				Note Time="247" Value="D3" Duration="1" Instrument="Duty 1" Volume="4"
				Note Time="248" Value="G#3" Duration="2" Instrument="Duty 1" Volume="5"
				Note Time="250" Value="F3" Duration="2" Instrument="Duty 1"
				Note Time="252" Value="D3" Duration="2" Instrument="Duty 1" Volume="4"
				Note Time="254" Value="D3" Duration="2" Instrument="Duty 2"
			PatternInstance Time="0" Pattern="Pattern 1"
			PatternInstance Time="1" Pattern="Pattern 2"
			PatternInstance Time="2" Pattern="Pattern 3"
			PatternInstance Time="3" Pattern="Pattern 4"
			PatternInstance Time="4" Pattern="Pattern 5"
		Channel Type="MMC5Square2"
			Pattern Name="Pattern 1"
				Note Time="0" Value="A#2" Duration="8" Instrument="Duty 0" Volume="3" FinePitch="-2"
				Note Time="1" Volume="4"
				Note Time="3" Volume="5"
				Note Time="6" Volume="6"
				Note Time="8" Value="D#3" Duration="8" Instrument="Duty 0" Volume="7"
				Note Time="13" Volume="6"
				Note Time="16" Value="A#2" Duration="8" Instrument="Duty 0"
				Note Time="17" Volume="5"
				Note Time="21" Volume="3"
				Note Time="24" Value="D#3" Duration="8" Instrument="Duty 0"
				Note Time="32" Value="A#2" Duration="8" Instrument="Duty 0"
				Note Time="33" Volume="4"
				Note Time="36" Volume="5"
				Note Time="40" Value="D#3" Duration="8" Instrument="Duty 0" Volume="4"
				Note Time="45" Volume="3"
				Note Time="48" Value="A#2" Duration="8" Instrument="Duty 0"
				Note Time="55" Volume="4"
				Note Time="56" Value="D#3" Duration="8" Instrument="Duty 0"
				Note Time="57" Volume="5"
				Note Time="59" Volume="4"
				Note Time="63" Volume="3"
				Note Time="64" Value="A#2" Duration="8" Instrument="Duty 0" Volume="2"
				Note Time="65" Volume="3"
				Note Time="71" Volume="4"
				Note Time="72" Value="D#3" Duration="8" Instrument="Duty 0"
				Note Time="74" Volume="5"
				Note Time="78" Volume="4"
				Note Time="80" Value="A#2" Duration="3" Instrument="Duty 0"
				Note Time="83" Value="C3" Duration="8" Instrument="Duty 0" Volume="3"
				Note Time="84" Volume="4"
				Note Time="86" Volume="5"
				Note Time="89" Volume="6"
				Note Time="91" Value="D#3" Duration="8" Instrument="Duty 0" Volume="7"
				Note Time="96" Volume="6"
				Note Time="99" Value="C3" Duration="8" Instrument="Duty 0"
				Note Time="100" Volume="5"
				Note Time="104" Volume="3"
				Note Time="107" Value="D#3" Duration="8" Instrument="Duty 0"
				Note Time="115" Value="C3" Duration="8" Instrument="Duty 0"
				Note Time="116" Volume="4"
				Note Time="119" Volume="5"
				Note Time="123" Value="D#3" Duration="8" Instrument="Duty 0" Volume="4"
				Note Time="128" Volume="3"
				Note Time="131" Value="C3" Duration="8" Instrument="Duty 0"
				Note Time="138" Volume="4"
				Note Time="139" Value="D#3" Duration="8" Instrument="Duty 0"
				Note Time="140" Volume="5"
				Note Time="142" Volume="4"
				Note Time="145" Volume="3"
				Note Time="147" Value="C3" Duration="8" Instrument="Duty 0" Volume="2"
				Note Time="148" Volume="3"
				Note Time="154" Volume="4"
				Note Time="155" Value="D#3" Duration="8" Instrument="Duty 0"
				Note Time="157" Volume="5"
				Note Time="161" Volume="4"
				Note Time="163" Value="C3" Duration="3" Instrument="Duty 0"
				Note Time="166" Value="A#2" Duration="8" Instrument="Duty 0" Volume="3"
				Note Time="167" Volume="4"
				Note Time="169" Volume="5"
				Note Time="171" Volume="6"
				Note Time="174" Value="C#3" Duration="8" Instrument="Duty 0" Volume="7"
				Note Time="179" Volume="6"
				Note Time="182" Value="A#2" Duration="8" Instrument="Duty 0"
				Note Time="183" Volume="5"
				Note Time="187" Volume="3"
				Note Time="190" Value="C#3" Duration="8" Instrument="Duty 0"
				Note Time="198" Value="A#2" Duration="8" Instrument="Duty 0"
				Note Time="199" Volume="4"
				Note Time="202" Volume="5"
				Note Time="206" Value="C#3" Duration="8" Instrument="Duty 0" Volume="4"
				Note Time="211" Volume="3"
				Note Time="214" Value="A#2" Duration="8" Instrument="Duty 0"
				Note Time="221" Volume="4"
				Note Time="222" Value="C#3" Duration="8" Instrument="Duty 0"
				Note Time="223" Volume="5"
				Note Time="225" Volume="4"
				Note Time="228" Volume="3"
				Note Time="230" Value="A#2" Duration="8" Instrument="Duty 0" Volume="2"
				Note Time="231" Volume="3"
				Note Time="237" Volume="4"
				Note Time="238" Value="C#3" Duration="8" Instrument="Duty 0"
				Note Time="240" Volume="5"
				Note Time="244" Volume="4"
				Note Time="246" Value="A#2" Duration="3" Instrument="Duty 0"
				Note Time="249" Value="G#2" Duration="8" Instrument="Duty 0" Volume="3"
				Note Time="250" Volume="4"
				Note Time="252" Volume="5"
				Note Time="254" Volume="6"
			Pattern Name="Pattern 2"
				Note Time="1" Value="D3" Duration="8" Instrument="Duty 0" Volume="7"
				Note Time="6" Volume="6"
				Note Time="9" Value="G#2" Duration="8" Instrument="Duty 0"
				Note Time="10" Volume="5"
				Note Time="14" Volume="3"
				Note Time="17" Value="D3" Duration="8" Instrument="Duty 0"
				Note Time="25" Value="G#2" Duration="8" Instrument="Duty 0"
				Note Time="26" Volume="4"
				Note Time="29" Volume="5"
				Note Time="33" Value="D3" Duration="8" Instrument="Duty 0" Volume="4"
				Note Time="38" Volume="3"
				Note Time="41" Value="G#2" Duration="8" Instrument="Duty 0"
				Note Time="48" Volume="4"
				Note Time="49" Value="D3" Duration="8" Instrument="Duty 0"
				Note Time="50" Volume="5"
				Note Time="52" Volume="4"
				Note Time="55" Volume="3"
				Note Time="57" Value="G#2" Duration="8" Instrument="Duty 0" Volume="2"
				Note Time="58" Volume="3"
				Note Time="64" Volume="4"
				Note Time="65" Value="D3" Duration="8" Instrument="Duty 0"
				Note Time="67" Volume="5"
				Note Time="71" Volume="4"
				Note Time="73" Value="G#2" Duration="3" Instrument="Duty 0"
				Note Time="76" Value="A#2" Duration="8" Instrument="Duty 0" Volume="3"
				Note Time="77" Volume="4"
				Note Time="79" Volume="5"
				Note Time="81" Volume="6"
				Note Time="84" Value="D#3" Duration="8" Instrument="Duty 0" Volume="7"
				Note Time="89" Volume="6"
				Note Time="92" Value="A#2" Duration="8" Instrument="Duty 0"
				Note Time="93" Volume="5"
				Note Time="97" Volume="3"
				Note Time="100" Value="D#3" Duration="8" Instrument="Duty 0"
				Note Time="108" Value="A#2" Duration="8" Instrument="Duty 0"
				Note Time="109" Volume="4"
				Note Time="112" Volume="5"
				Note Time="116" Value="D#3" Duration="1" Instrument="Duty 0" Volume="4"
				Note Time="117" Value="A#2" Duration="8" Instrument="Duty 0"
				Note Time="118" Volume="5"
				Note Time="120" Volume="6"
				Note Time="125" Value="D#3" Duration="8" Instrument="Duty 0" Volume="7"
				Note Time="128" Volume="6"
				Note Time="130" Volume="5"
				Note Time="133" Value="A#2" Duration="8" Instrument="Duty 0" Volume="6"
				Note Time="134" Volume="5"
				Note Time="138" Volume="3"
				Note Time="141" Value="D#3" Duration="8" Instrument="Duty 0"
				Note Time="149" Value="A#2" Duration="8" Instrument="Duty 0"
				Note Time="150" Volume="4"
				Note Time="153" Volume="5"
				Note Time="157" Value="D#3" Duration="2" Instrument="Duty 0" Volume="4"
				Note Time="159" Value="C3" Duration="8" Instrument="Duty 0" Volume="3"
				Note Time="160" Volume="4"
				Note Time="162" Volume="5"
				Note Time="164" Volume="6"
				Note Time="167" Value="F#3" Duration="8" Instrument="Duty 0" Volume="7"
				Note Time="172" Volume="6"
				Note Time="175" Value="C3" Duration="8" Instrument="Duty 0"
				Note Time="176" Volume="5"
				Note Time="179" Volume="4"
				Note Time="180" Volume="3"
				Note Time="183" Value="F#3" Duration="8" Instrument="Duty 0"
				Note Time="191" Value="C3" Duration="8" Instrument="Duty 0"
				Note Time="192" Volume="4"
				Note Time="195" Volume="5"
				Note Time="199" Value="F#3" Duration="1" Instrument="Duty 0" Volume="4"
				Note Time="200" Value="A2" Duration="8" Instrument="Duty 0"
				Note Time="201" Volume="5"
				Note Time="203" Volume="6"
				Note Time="208" Value="D#3" Duration="8" Instrument="Duty 0" Volume="7"
				Note Time="211" Volume="6"
				Note Time="213" Volume="5"
				Note Time="216" Value="A2" Duration="8" Instrument="Duty 0" Volume="6"
				Note Time="217" Volume="5"
				Note Time="221" Volume="3"
				Note Time="224" Value="D#3" Duration="8" Instrument="Duty 0"
				Note Time="232" Value="A2" Duration="8" Instrument="Duty 0"
				Note Time="233" Volume="4"
				Note Time="236" Volume="5"
				Note Time="240" Value="D#3" Duration="2" Instrument="Duty 0" Volume="4"
				Note Time="242" Value="C#3" Duration="8" Instrument="Duty 0" Volume="3"
				Note Time="243" Volume="4"
				Note Time="245" Volume="5"
				Note Time="247" Volume="6"
				Note Time="250" Value="F3" Duration="8" Instrument="Duty 0" Volume="7"
				Note Time="255" Volume="6"
			Pattern Name="Pattern 3"
				Note Time="2" Value="C#3" Duration="8" Instrument="Duty 0"
				Note Time="3" Volume="5"
				Note Time="6" Volume="4"
				Note Time="7" Volume="3"
				Note Time="10" Value="F3" Duration="8" Instrument="Duty 0"
				Note Time="18" Value="C#3" Duration="8" Instrument="Duty 0"
				Note Time="19" Volume="4"
				Note Time="22" Volume="5"
				Note Time="26" Value="F3" Duration="8" Instrument="Duty 0" Volume="4"
				Note Time="31" Volume="3"
				Note Time="34" Value="C#3" Duration="8" Instrument="Duty 0"
				Note Time="37" Volume="2"
				Note Time="38" Volume="3"
				Note Time="41" Volume="4"
				Note Time="42" Value="F3" Duration="8" Instrument="Duty 0"
				Note Time="43" Volume="5"
				Note Time="45" Volume="4"
				Note Time="48" Volume="3"
				Note Time="50" Value="C#3" Duration="8" Instrument="Duty 0"
				Note Time="57" Volume="4"
				Note Time="58" Value="F3" Duration="8" Instrument="Duty 0"
				Note Time="60" Volume="5"
				Note Time="64" Volume="4"
				Note Time="66" Value="C#3" Duration="2" Instrument="Duty 0"
				Note Time="68" Value="D3" Duration="8" Instrument="Duty 0" Volume="3"
				Note Time="69" Volume="4"
				Note Time="71" Volume="5"
				Note Time="74" Volume="6"
				Note Time="76" Value="F3" Duration="8" Instrument="Duty 0" Volume="7"
				Note Time="81" Volume="6"
				Note Time="84" Value="D3" Duration="8" Instrument="Duty 0"
				Note Time="85" Volume="5"
				Note Time="89" Volume="3"
				Note Time="92" Value="F3" Duration="8" Instrument="Duty 0"
				Note Time="100" Value="D3" Duration="8" Instrument="Duty 0"
				Note Time="101" Volume="4"
				Note Time="104" Volume="5"
				Note Time="108" Value="F3" Duration="8" Instrument="Duty 0" Volume="4"
				Note Time="113" Volume="3"
				Note Time="116" Value="D3" Duration="8" Instrument="Duty 0"
				Note Time="123" Volume="4"
				Note Time="124" Value="F3" Duration="8" Instrument="Duty 0"
				Note Time="125" Volume="5"
				Note Time="127" Volume="4"
				Note Time="131" Volume="3"
				Note Time="132" Value="D3" Duration="8" Instrument="Duty 0" Volume="2"
				Note Time="133" Volume="3"
				Note Time="139" Volume="4"
				Note Time="140" Value="F3" Duration="8" Instrument="Duty 0"
				Note Time="141" Volume="3"
				Note Time="142" Volume="4"
				Note Time="148" Value="D3" Duration="3" Instrument="Duty 0"
				Note Time="151" Value="A#2" Duration="8" Instrument="Duty 0" Volume="3"
				Note Time="152" Volume="4"
				Note Time="154" Volume="5"
				Note Time="156" Volume="6"
				Note Time="159" Value="D#3" Duration="8" Instrument="Duty 0" Volume="7"
				Note Time="164" Volume="6"
				Note Time="167" Value="A#2" Duration="8" Instrument="Duty 0"
				Note Time="168" Volume="5"
				Note Time="172" Volume="3"
				Note Time="175" Value="D#3" Duration="8" Instrument="Duty 0"
				Note Time="183" Value="A#2" Duration="8" Instrument="Duty 0"
				Note Time="184" Volume="4"
				Note Time="187" Volume="5"
				Note Time="191" Value="D#3" Duration="8" Instrument="Duty 0" Volume="4"
				Note Time="196" Volume="3"
				Note Time="199" Value="A#2" Duration="8" Instrument="Duty 0"
				Note Time="206" Volume="4"
				Note Time="207" Value="D#3" Duration="8" Instrument="Duty 0"
				Note Time="208" Volume="5"
				Note Time="210" Volume="4"
				Note Time="213" Volume="3"
				Note Time="215" Value="A#2" Duration="8" Instrument="Duty 0" Volume="2"
				Note Time="216" Volume="3"
				Note Time="222" Volume="4"
				Note Time="223" Value="D#3" Duration="8" Instrument="Duty 0"
				Note Time="225" Volume="5"
				Note Time="229" Volume="4"
				Note Time="231" Value="A#2" Duration="3" Instrument="Duty 0"
				Note Time="234" Value="C3" Duration="8" Instrument="Duty 0" Volume="3"
				Note Time="235" Volume="4"
				Note Time="237" Volume="5"
				Note Time="239" Volume="6"
				Note Time="242" Value="D#3" Duration="8" Instrument="Duty 0" Volume="7"
				Note Time="247" Volume="6"
				Note Time="250" Value="C3" Duration="8" Instrument="Duty 0"
				Note Time="251" Volume="5"
				Note Time="255" Volume="3"
			Pattern Name="Pattern 4"
				Note Time="2" Value="D#3" Duration="8" Instrument="Duty 0"
				Note Time="10" Value="C3" Duration="8" Instrument="Duty 0"
				Note Time="11" Volume="4"
				Note Time="14" Volume="5"
				Note Time="18" Value="D#3" Duration="8" Instrument="Duty 0" Volume="4"
				Note Time="23" Volume="3"
				Note Time="26" Value="C3" Duration="8" Instrument="Duty 0"
				Note Time="33" Volume="4"
				Note Time="34" Value="D#3" Duration="8" Instrument="Duty 0"
				Note Time="35" Volume="5"
				Note Time="37" Volume="4"
				Note Time="40" Volume="3"
				Note Time="42" Value="C3" Duration="8" Instrument="Duty 0" Volume="2"
				Note Time="43" Volume="3"
				Note Time="49" Volume="4"
				Note Time="50" Value="D#3" Duration="8" Instrument="Duty 0"
				Note Time="52" Volume="5"
				Note Time="56" Volume="4"
				Note Time="58" Value="C3" Duration="3" Instrument="Duty 0"
				Note Time="61" Value="A#2" Duration="8" Instrument="Duty 0" Volume="3"
				Note Time="62" Volume="4"
				Note Time="64" Volume="5"
				Note Time="66" Volume="6"
				Note Time="69" Value="C#3" Duration="8" Instrument="Duty 0" Volume="7"
				Note Time="74" Volume="6"
				Note Time="77" Value="A#2" Duration="8" Instrument="Duty 0"
				Note Time="78" Volume="5"
				Note Time="82" Volume="3"
				Note Time="85" Value="C#3" Duration="8" Instrument="Duty 0"
				Note Time="93" Value="A#2" Duration="8" Instrument="Duty 0"
				Note Time="94" Volume="4"
				Note Time="97" Volume="5"
				Note Time="101" Value="C#3" Duration="8" Instrument="Duty 0" Volume="4"
				Note Time="106" Volume="3"
				Note Time="109" Value="A#2" Duration="8" Instrument="Duty 0"
				Note Time="116" Volume="4"
				Note Time="117" Value="C#3" Duration="8" Instrument="Duty 0"
				Note Time="118" Volume="5"
				Note Time="120" Volume="4"
				Note Time="123" Volume="3"
				Note Time="125" Value="A#2" Duration="8" Instrument="Duty 0" Volume="2"
				Note Time="126" Volume="3"
				Note Time="132" Volume="4"
				Note Time="133" Value="C#3" Duration="8" Instrument="Duty 0"
				Note Time="135" Volume="5"
				Note Time="139" Volume="4"
				Note Time="141" Value="A#2" Duration="3" Instrument="Duty 0"
				Note Time="144" Value="G#2" Duration="8" Instrument="Duty 0" Volume="3"
				Note Time="145" Volume="4"
				Note Time="147" Volume="5"
				Note Time="149" Volume="6"
				Note Time="152" Value="D3" Duration="8" Instrument="Duty 0" Volume="7"
				Note Time="157" Volume="6"
				Note Time="160" Value="G#2" Duration="8" Instrument="Duty 0"
				Note Time="161" Volume="5"
				Note Time="165" Volume="3"
				Note Time="168" Value="D3" Duration="8" Instrument="Duty 0"
				Note Time="176" Value="G#2" Duration="8" Instrument="Duty 0"
				Note Time="177" Volume="4"
				Note Time="180" Volume="5"
				Note Time="184" Value="D3" Duration="8" Instrument="Duty 0" Volume="4"
				Note Time="189" Volume="3"
				Note Time="192" Value="G#2" Duration="8" Instrument="Duty 0"
				Note Time="199" Volume="4"
				Note Time="200" Value="D3" Duration="8" Instrument="Duty 0"
				Note Time="201" Volume="5"
				Note Time="203" Volume="4"
				Note Time="206" Volume="3"
				Note Time="208" Value="G#2" Duration="8" Instrument="Duty 0" Volume="2"
				Note Time="209" Volume="3"
				Note Time="215" Volume="4"
				Note Time="216" Value="D3" Duration="8" Instrument="Duty 0"
				Note Time="218" Volume="5"
				Note Time="222" Volume="4"
				Note Time="224" Value="G#2" Duration="3" Instrument="Duty 0"
				Note Time="227" Value="B2" Duration="8" Instrument="Duty 0" Volume="3"
				Note Time="228" Volume="4"
				Note Time="230" Volume="5"
				Note Time="232" Volume="6"
				Note Time="235" Value="D#3" Duration="8" Instrument="Duty 0" Volume="7"
				Note Time="240" Volume="6"
				Note Time="243" Value="B2" Duration="8" Instrument="Duty 0"
				Note Time="244" Volume="5"
				Note Time="247" Volume="4"
				Note Time="248" Volume="3"
				Note Time="251" Value="D#3" Duration="8" Instrument="Duty 0"
			Pattern Name="Pattern 5"
				Note Time="3" Value="B2" Duration="8" Instrument="Duty 0"
				Note Time="4" Volume="4"
				Note Time="7" Volume="5"
				Note Time="11" Value="D#3" Duration="8" Instrument="Duty 0" Volume="4"
				Note Time="16" Volume="3"
				Note Time="19" Value="B2" Duration="8" Instrument="Duty 0"
				Note Time="26" Volume="4"
				Note Time="27" Value="D#3" Duration="8" Instrument="Duty 0"
				Note Time="28" Volume="5"
				Note Time="30" Volume="4"
				Note Time="33" Volume="3"
				Note Time="35" Value="B2" Duration="8" Instrument="Duty 0"
				Note Time="42" Volume="4"
				Note Time="43" Value="D#3" Duration="8" Instrument="Duty 0"
				Note Time="45" Volume="5"
				Note Time="49" Volume="4"
				Note Time="51" Value="B2" Duration="3" Instrument="Duty 0"
				Note Time="54" Value="G#2" Duration="8" Instrument="Duty 0" Volume="3"
				Note Time="55" Volume="4"
				Note Time="57" Volume="5"
				Note Time="59" Volume="6"
				Note Time="62" Value="D#3" Duration="8" Instrument="Duty 0" Volume="7"
				Note Time="67" Volume="6"
				Note Time="70" Value="G#2" Duration="8" Instrument="Duty 0"
				Note Time="71" Volume="5"
				Note Time="74" Volume="4"
				Note Time="75" Volume="3"
				Note Time="78" Value="D#3" Duration="8" Instrument="Duty 0"
				Note Time="79" Volume="4"
				Note Time="80" Volume="3"
				Note Time="86" Value="G#2" Duration="8" Instrument="Duty 0"
				Note Time="87" Volume="4"
				Note Time="90" Volume="5"
				Note Time="94" Value="D#3" Duration="8" Instrument="Duty 0" Volume="4"
				Note Time="99" Volume="3"
				Note Time="102" Value="G#2" Duration="8" Instrument="Duty 0"
				Note Time="105" Volume="2"
				Note Time="106" Volume="3"
				Note Time="109" Volume="4"
				Note Time="110" Value="D#3" Duration="8" Instrument="Duty 0"
				Note Time="111" Volume="5"
				Note Time="113" Volume="4"
				Note Time="116" Volume="3"
				Note Time="118" Value="G#2" Duration="8" Instrument="Duty 0"
				Note Time="125" Volume="4"
				Note Time="126" Value="D#3" Duration="8" Instrument="Duty 0"
				Note Time="128" Volume="5"
				Note Time="132" Volume="4"
				Note Time="134" Value="G#2" Duration="2" Instrument="Duty 0"
				Note Time="136" Value="C3" Duration="1" Instrument="Duty 0" Volume="3" FinePitch="-6"
				Note Time="137" Value="B2" Duration="2" Instrument="Duty 0" Volume="4" FinePitch="-11"
				Note Time="138" FinePitch="9"
				Note Time="139" Value="A#2" Duration="1" Instrument="Duty 0" Volume="5" FinePitch="2"
				Note Time="140" Value="A2" Duration="2" Instrument="Duty 0" FinePitch="-6"
				Note Time="141" FinePitch="14"
				Note Time="142" Value="G#2" Duration="1" Instrument="Duty 0" Volume="6" FinePitch="3"
				Note Time="143" Value="G2" Duration="1" Instrument="Duty 0" FinePitch="-9"
				Note Time="144" Value="F4" Duration="1" Instrument="Duty 0" Volume="7" FinePitch="2"
				Note Time="145" Value="D#4" Duration="1" Instrument="Duty 0"
				Note Time="146" Value="C#4" Duration="1" Instrument="Duty 0" FinePitch="0"
				Note Time="147" Value="B3" Duration="1" Instrument="Duty 0" FinePitch="-4"
				Note Time="148" Value="A#3" Duration="1" Instrument="Duty 0" FinePitch="2"
				Note Time="149" Value="G#3" Duration="1" Instrument="Duty 0" Volume="6" FinePitch="-7"
				Note Time="150" Value="G3" Duration="1" Instrument="Duty 0" FinePitch="-3"
				Note Time="151" Value="F#3" Duration="1" Instrument="Duty 0" FinePitch="0"
				Note Time="152" Value="D2" Duration="3" Instrument="Duty 0" FinePitch="-20"
				Note Time="153" Volume="5" FinePitch="0"
				Note Time="154" FinePitch="20"
				Note Time="155" Value="C#2" Duration="2" Instrument="Duty 0" FinePitch="-5"
				Note Time="156" FinePitch="15"
				Note Time="157" Value="C2" Duration="2" Instrument="Duty 0" Volume="3" FinePitch="-13"
				Note Time="158" FinePitch="7"
				Note Time="159" Value="B1" Duration="1" Instrument="Duty 0" FinePitch="-24"
				Note Time="160" Value="A#2" Duration="1" Instrument="Duty 0" FinePitch="2"
				Note Time="161" Value="A2" Duration="2" Instrument="Duty 0" FinePitch="-6"
				Note Time="162" FinePitch="14"
				Note Time="163" Value="G#2" Duration="1" Instrument="Duty 0" FinePitch="3"
				Note Time="164" Value="G2" Duration="2" Instrument="Duty 0" FinePitch="-9"
				Note Time="165" FinePitch="11"
				Note Time="166" Value="F#2" Duration="2" Instrument="Duty 0" FinePitch="-3"
				Note Time="167" FinePitch="17"
				Note Time="168" Value="G#1" Duration="3" Instrument="Duty 0" FinePitch="-15"
				Note Time="169" Volume="4" FinePitch="5"
				Note Time="170" FinePitch="25"
				Note Time="171" Value="G1" Duration="3" Instrument="Duty 0" FinePitch="-19"
				Note Time="172" Volume="5" FinePitch="1"
				Note Time="173" FinePitch="21"
				Note Time="174" Value="F#1" Duration="2" Instrument="Duty 0" FinePitch="-27"
				Note Time="175" FinePitch="-7"
				Note Time="176" Value="C#2" Duration="2" Instrument="Duty 0" Volume="4" FinePitch="-5"
				Note Time="177" FinePitch="15"
				Note Time="178" Value="C2" Duration="2" Instrument="Duty 0" FinePitch="-13"
				Note Time="179" FinePitch="7"
				Note Time="180" Value="B1" Duration="3" Instrument="Duty 0" FinePitch="-24"
				Note Time="181" Volume="3" FinePitch="-4"
				Note Time="182" FinePitch="16"
				Note Time="183" Value="A#1" Duration="1" Instrument="Duty 0" FinePitch="-18"
				Note Time="184" Value="E1" Duration="1" Instrument="Duty 0" FinePitch="25"
				Note Time="185" Value="D#1" Duration="4" Instrument="Duty 0" FinePitch="-36"
				Note Time="186" FinePitch="-16"
				Note Time="187" FinePitch="4"
				Note Time="188" FinePitch="24"
				Note Time="189" Value="D1" Duration="3" Instrument="Duty 0" FinePitch="-42"
				Note Time="190" FinePitch="-22"
				Note Time="191" Volume="4" FinePitch="-2"
				Note Time="192" Value="G1" Duration="3" Instrument="Duty 0" FinePitch="-19"
				Note Time="193" Volume="5" FinePitch="1"
				Note Time="194" FinePitch="21"
				Note Time="195" Value="F#1" Duration="4" Instrument="Duty 0" Volume="4" FinePitch="-27"
				Note Time="196" FinePitch="-7"
				Note Time="197" FinePitch="13"
				Note Time="198" FinePitch="33"
				Note Time="199" Value="F1" Duration="1" Instrument="Duty 0" Volume="3" FinePitch="-19"
				Note Time="200" Value="C1" Duration="3" Instrument="Duty 0" Volume="2" FinePitch="-8"
				Note Time="201" Volume="3" FinePitch="12"
				Note Time="202" FinePitch="32"
				Note Time="203" Value="B0" Duration="5" Instrument="Duty 0" FinePitch="-50"
				Note Time="204" FinePitch="-30"
				Note Time="205" FinePitch="-10"
				Note Time="206" FinePitch="10"
				Note Time="207" Volume="4" FinePitch="30"
				Note Time="208" Value="D#1" Duration="2" Instrument="Duty 0" FinePitch="4"
				Note Time="209" FinePitch="24"
				Note Time="210" Value="D1" Duration="5" Instrument="Duty 0" Volume="5" FinePitch="-42"
				Note Time="211" FinePitch="-22"
				Note Time="212" FinePitch="-2"
				Note Time="213" FinePitch="18"
				Note Time="214" Volume="4" FinePitch="38"
				Note Time="215" Value="C#1" Duration="1" Instrument="Duty 0" FinePitch="-32"
				Note Time="216" Value="A0" Duration="3" Instrument="Duty 0" FinePitch="-12"
				Note Time="217" FinePitch="-2"
				Note Time="219" Value="C#3" Duration="1" Instrument="Duty 0" Volume="3" FinePitch="-5"
				Note Time="220" Value="C3" Duration="2" Instrument="Duty 0" Volume="4" FinePitch="-9"
				Note Time="221" FinePitch="11"
				Note Time="222" Value="B2" Duration="1" Instrument="Duty 0" Volume="5" FinePitch="6"
				Note Time="223" Value="A#2" Duration="1" Instrument="Duty 0" FinePitch="-1"
				Note Time="224" Value="A2" Duration="2" Instrument="Duty 0" Volume="6" FinePitch="-9"
				Note Time="225" FinePitch="11"
				Note Time="226" Value="G#2" Duration="1" Instrument="Duty 0" FinePitch="0"
				Note Time="227" Value="A#3" Duration="1" Instrument="Duty 0" Volume="7" FinePitch="-5"
				Note Time="228" Value="A3" Duration="1" Instrument="Duty 0" FinePitch="1"
				Note Time="229" Value="G#3" Duration="1" Instrument="Duty 0" FinePitch="6"
				Note Time="230" Value="F#3" Duration="1" Instrument="Duty 0" FinePitch="-7"
				Note Time="231" Value="F3" Duration="1" Instrument="Duty 0" FinePitch="-5"
				Note Time="232" Value="E3" Duration="1" Instrument="Duty 0" Volume="6" FinePitch="-4"
				Note Time="233" Value="D#3" Duration="1" Instrument="Duty 0" FinePitch="-5"
				Note Time="234" Value="D3" Duration="1" Instrument="Duty 0" FinePitch="-6"
				Note Time="235" Value="D#2" Duration="2" Instrument="Duty 0" FinePitch="0"
				Note Time="236" Volume="5" FinePitch="20"
				Note Time="237" Value="D2" Duration="2" Instrument="Duty 0" FinePitch="-3"
				Note Time="238" FinePitch="17"
				Note Time="239" Value="C#2" Duration="2" Instrument="Duty 0" FinePitch="-8"
				Note Time="240" Volume="3" FinePitch="12"
				Note Time="241" Value="C2" Duration="2" Instrument="Duty 0" FinePitch="-16"
				Note Time="242" FinePitch="4"
				Note Time="243" Value="G2" Duration="2" Instrument="Duty 0" FinePitch="-16"
				Note Time="244" FinePitch="4"
				Note Time="245" Value="F#2" Duration="2" Instrument="Duty 0" FinePitch="-10"
				Note Time="246" FinePitch="10"
				Note Time="247" Value="F2" Duration="2" Instrument="Duty 0" FinePitch="-6"
				Note Time="248" FinePitch="14"
				Note Time="249" Value="E2" Duration="2" Instrument="Duty 0" FinePitch="-4"
				Note Time="250" FinePitch="16"
				Note Time="251" Value="A1" Duration="1" Instrument="Duty 0" FinePitch="22"
				Note Time="252" Value="G#1" Duration="3" Instrument="Duty 0" Volume="4" FinePitch="-18"
				Note Time="253" FinePitch="2"
				Note Time="254" FinePitch="22"
				Note Time="255" Value="G1" Duration="3" Instrument="Duty 0" Volume="5" FinePitch="-22"
			PatternInstance Time="0" Pattern="Pattern 1"
			PatternInstance Time="1" Pattern="Pattern 2"
			PatternInstance Time="2" Pattern="Pattern 3"
			PatternInstance Time="3" Pattern="Pattern 4"
			PatternInstance Time="4" Pattern="Pattern 5"
