# FamiTracker text export 0.4.2

# Song information
TITLE           ""
AUTHOR          ""
COPYRIGHT       ""

# Song comment
COMMENT         ""
# Global settings
MACHINE         0
FRAMERATE       0
EXPANSION       16
VIBRATO         1
SPLIT           32

# Namco 163 global settings
N163CHANNELS    6

# Macros
MACRO       4    0   -1   -1   0 : 1
MACRO       4    1   -1   -1   0 : 2

# DPCM samples
DPCMDEF   0  1040 "Sample 1"
DPCM : 54 55 55 55 55 55 55 55 55 4D 95 6A 55 A5 D5 AA A6 56 FA FF 3F 60 FF 55 82 00 00 00 00 00 0A 7C BB FE FF FF FF FF FF 94 24 45 00 00 00 00 00 18 15 DB FB FF FF EF FF FF 77 D5 54 92 08 01 00 00 00 00 90 D4 2A AB F7 EE FF FE FF FF BF 75 5B 55 25 91 4A 08 00 00 08 00 82 54 9A CA DA 76 AB FB FF BE FF FF DF B6 DA 5A 96 A4 54 89 80 40 10 00 20 20 48 4A 29 55 AD AD D6 76 EF FE BE FF F7 EF DF 6E AD 5A 55 A5 94 52 92 44 80 00 01 02 10 02 22 52 2A 95 AA 55 DB 5A DB F6 BE BF FB F7 DF DF F7 DD B6 56 B5 54 A5 52 52 52 92 48 84 40 80 80 40 40 84 08 49 52 01 00 54 AD B5 6D 6D DB EE EE 7D DF 77 DF F7 BD BB BB 6D AD AA 54 A5 94 92 52 4A 92 A4 24 91 24 42 84 08 11 21 12 89 94 A4 94 AA AA 6A B5 56 5B AB 6D 5B 6B DB DA 76 DB DD 6E 77 DB 6D DB B6 6D AD 55 55 55 AA 54 2A 95 4A 95 2A 95 52 2A 95 52 4A 29 49 92 24 92 24 49 52 52 4A 29 A5 52 55 AA 55 55 AD 6A 55 AD 56 AB 56 6B B5 D6 DA DA B6 B5 6D 6B DB DA D6 D6 56 AB D5 AA 55 55 55 55 55 AA AA 4A 55 95 AA 2A 95 AA 54 A9 54 2A 95 52 92 92 92 A4 24 A5 A4 54 4A A9 94 4A 95 AA AA AA AA AA 56 55 AD AA 55 AB 5A B5 5A B5 5A AB B5 D6 D6 5A 5B 6B AD B5 D6 6A D5 6A D5 AA 56 D5 AA AA AA AA AA AA 2A 55 55 55 55 AA AA 52 55 AA 52 95 AA 54 29 95 4A 29 29 A5 94 52 4A A5 54 2A 55 2A 55 AA 52 55 55 55 55 55 AD AA AA 55 55 AB 5A 55 AB 5A D5 AA 55 AB D5 5A AD D6 6A B5 5A AD 56 AB 5A B5 AA 55 B5 AA 56 55 55 B5 AA AA 52 55 55 55 55 55 A5 AA AA AA 52 55 A9 2A 55 A5 2A 55 A9 52 A9 94 4A A5 54 2A 95 4A 95 AA 54 A9 2A 55 95 AA AA AA AA AA AA 56 55 55 B5 AA AA 55 55 AB AA 55 D5 AA 5A D5 AA 55 AB 56 AD 5A B5 6A D5 AA 5A 55 AB AA 56 55 AB AA 6A 55 55 55 55 55 55 55 55 A5 AA AA AA AA 4A 55 55 A5 AA 2A 55 55 AA 2A 55 A5 4A 95 2A 55 AA 54 A9 52 55 AA 52 55 A9 AA 4A 55 55 55 55 55 55 55 55 55 D5 AA AA AA 5A 55 55 AD AA AA 55 55 AD AA 55 B5 AA 56 B5 AA 56 D5 AA 5A 55 D5 AA AA 5A 55 55 AD AA AA AA AA AA AA AA AA AA AA AA AA AA AA 54 55 55 55 A5 AA AA 4A 55 55 A5 AA 4A 55 A5 AA 54 A5 AA 54 95 AA 2A 55 55 A9 AA AA 54 55 55 55 55 55 55 55 55 55 D5 AA AA AA AA 5A 55 55 55 AD AA AA 6A 55 55 AB AA 56 55 AD AA 6A 55 55 AB AA AA 56 55 55 55 AB AA AA AA AA AA AA AA AA AA AA AA AA AA AA AA 4A 55 55 55 55 55 AA AA AA 2A 55 55 55 A9 AA 52 55 A5 AA 2A 55 55 A5 AA AA AA 54 55 55 55 55 55 55 55 55 55 55 55 55 55 55 D5 AA AA AA AA AA 56 55 55 55 B5 AA AA AA 55 55 D5 AA AA AA 56 55 55 55 B5 AA AA AA AA AA 5A 55 55 55 55 55 55 55 55 55 A5 AA AA AA AA AA AA AA AA AA 54 55 55 55 55 95 AA AA AA 52 55 55 A5 AA AA AA 54 55 55 55 55 A9 AA AA AA AA AA AA AA AA AA AA AA AA 55 55 55 55 55 55 55 55 B5 AA AA AA AA AA 55 55 55 55 B5 AA AA AA AA AA 55 55 55 55 55 55 55 55 AB AA AA AA AA AA 2A 55 55 55 55 55 55 55 55 55 55 55 55 55 55 A5 AA AA AA AA AA AA 4A 55 55 55 55 55 A5 AA AA AA AA AA AA AA AA AA AA AA AA AA AA AA AA AA AA AA AA AA AA AA AA 5A 55 55 55 55 55 55 55 55 55 55 55 B5 AA AA AA AA AA AA AA AA AA AA AA AA AA AA AA AA AA AA AA AA AA AA AA AA AA AA AA AA AA AA AA AA AA AA AA AA AA AA AA AA AA AA 54 55 55 55 55 55 55 55 55 55 55 55 55 55 55 55 55 55 55 55 55 55 55 55 55 55 55 55 55 55 55 55 55 55 55 55 55 55 55 55 55 55 55 55 55 55 55 55 55 55 55 55 55 55 55 55 55 55 55 55 55 55 55 55 55 01
DPCMDEF   1  1824 "Sample 2"
DPCM : A2 65 00 7C F8 FF FF FF 1F 00 38 00 00 00 80 0F 3F 9D D6 56 DB FF FF FF FF 1F 00 78 E0 E3 0F 57 00 00 00 00 00 80 B6 FF 9F FF F1 07 F0 FF FF FF BF 24 49 12 00 00 00 00 00 3E FC FF 08 46 9C FC FF FD FF FF FB 5F A8 01 20 00 98 FF 01 40 04 00 00 1B E6 1F DE F9 1D FF FF FF FF 01 CE F0 A3 63 1C 00 40 08 00 C0 E0 31 F7 C7 FF 1F 14 77 E0 FF FF 9F BF 8E 62 62 1E C0 09 00 00 80 1F 70 C3 C1 D3 C7 FC EF F7 F9 FF CF 3C 60 01 00 E0 F8 0F 37 3F 00 24 00 70 B0 FF FC 79 39 E4 7E 36 FC 1F CF FF 71 72 80 01 00 C0 80 C1 73 E7 E0 7B F1 3E 61 F2 E0 F9 CE BC F3 8F 30 0E C0 38 C7 FC 81 1F 0F 00 88 08 98 5D DE EF 7B FE 0F FB 08 F1 82 0F 9C 1F 98 88 70 30 DC A1 8E D3 E8 86 FC 3C 66 30 1E C9 CF FC 1F EF 18 4F 38 8E 31 10 70 0E 3D 6E 99 08 66 86 97 DF BB FC 5F 82 8C 04 C3 8C B8 F1 67 C7 3F 26 89 09 26 03 BE 78 7D 6C 62 3E 23 F3 C3 F3 61 37 82 1F 03 09 2D E0 E1 A3 DE ED 38 77 14 1F 0C DE B9 E0 72 74 E0 02 FC C9 3D 7C 73 66 2E 96 C0 3C F0 F0 31 47 1C 3D 3C BE E3 0F 76 82 80 07 38 33 7F F1 F6 98 C5 E2 E4 2C CF D7 B4 84 53 C0 11 30 87 B7 9B FB 85 1C 0F 0E EC 68 94 1D C7 ED 07 5F 4F 38 4C 88 3D 66 34 33 38 A7 30 2F 8F 92 E3 81 3C FB 38 CE FE C5 9B 90 8C 3B 73 F8 38 FC 00 18 03 1C 70 1A F8 F7 8F 8F C7 E1 E0 3E DE 31 C7 59 EC C4 66 60 02 C7 80 F3 FC 03 CD 02 3F E1 B8 E7 C3 B3 8F F7 18 38 11 9C E0 8F F8 38 8E C7 70 88 B4 E7 DC 29 FE 40 C3 0C 3B 58 86 7D E3 3D 7E E6 14 7C 5C A0 74 C2 C1 07 23 B7 30 78 3E 9E 81 FF E0 FC E3 67 7C C9 62 E0 10 18 1E E0 1B E3 D1 8F C2 F3 E4 BC 07 C7 19 0F 67 7C 39 F4 60 17 58 30 C8 33 0F 9F F7 0F 0F 9E 88 C1 24 98 63 8E D3 E6 07 6F CB 73 D6 19 5F D0 0E 78 C6 03 60 C8 31 46 37 F6 A5 97 CF 19 CF 0E A7 67 8B 16 E6 18 61 34 4A 38 8E A3 71 3B 1F 0F 3F 31 0F 1F AC 78 55 4D 43 9A 61 38 87 AD D3 C5 77 0C 1E 6B E6 D0 2A 0E 8E 47 D9 48 C7 70 B9 43 97 BE C7 B2 AD 47 8C 35 8C 41 F2 70 F2 60 9C 1A CD 49 3D EB 71 AD F9 7C 2A 3C 64 52 9C C3 08 89 87 4D CC EB 78 D3 BB 86 B9 9A 68 63 CC 1A 35 D3 D9 18 2C 28 C3 2E BE 6E F3 F1 97 99 C1 20 32 34 A5 16 A7 C9 99 F3 71 5C F5 86 37 F4 A8 31 66 95 60 43 35 87 39 E2 E1 C7 E3 F1 D9 F5 8C 3B 6A 50 30 05 47 18 75 98 8B BF FC 71 DA A3 39 D4 B3 12 2E C9 86 8B 52 A6 94 9A 6A DC A2 9B F6 76 A5 8F 2E 14 A3 52 A4 31 2E C7 16 A7 AE 98 2B AD 63 6C 0D B7 C9 1D E5 A4 31 56 A8 29 66 8B 3D 66 BD 71 F2 69 8A 53 AA 29 23 0E B3 72 A4 79 35 BA F2 2A E5 E9 14 73 79 2A EC 91 63 8A 6C 88 9C 44 4F 47 AF B7 EE 2A C7 43 8D 54 25 53 49 1C 27 53 95 16 5D AB 2D DE 72 E5 E2 D1 54 B1 52 C9 0E AD A3 E5 F0 D0 19 F1 38 5C B1 C7 1D CE 99 85 C6 29 39 DA 38 BB E4 19 CE 1A C6 29 67 69 AD BA 54 59 24 43 25 D6 71 5C AB F6 B6 5A B9 2A 59 16 1E 29 6E 52 34 55 6C A1 B8 D4 69 A6 D7 65 87 D7 96 E6 2A E3 14 15 47 58 29 26 B1 B6 DC 36 BE CA 63 4E 2D 6A B8 B0 AC 66 47 AD 29 95 C6 2A B5 D4 B4 B6 2A 97 49 66 51 4B C5 25 4F 55 B5 CC 1A 97 B5 E5 53 A5 B2 C4 58 65 C9 D4 64 A6 94 27 CD 49 35 6B 5A B5 9A 9E 2B 3D 96 65 AA 12 C7 94 34 5A 0B AB 95 55 E2 6A E5 AC B8 2A 5D CD B6 AC 96 94 55 B2 24 9B 92 55 95 4D D5 6A B9 D4 4C 59 59 95 D2 68 A9 6A F5 B4 AA DA 92 B1 A9 B4 52 BA 68 59 A6 4A 4B 4B A9 6A 78 AA AD AA E6 D4 69 75 1A 53 15 97 C4 2A 63 1A 35 67 55 2D ED A4 AA C6 5A 56 D5 54 1D 93 B6 54 2B 2A 4D B5 9C AA 56 59 69 35 65 A5 AA 25 AB 99 74 99 1A 55 B5 B4 6A 55 9B E2 55 95 6A 54 55 2A 53 D5 52 6A 35 55 95 D5 54 67 69 B3 5C 55 3A 4B 59 2A 55 51 CB CC 34 DA 54 56 47 B3 8A 59 65 AB 95 55 97 55 66 55 55 25 56 A9 B2 AC 9C AA 54 A5 65 55 D3 B2 56 65 59 35 53 53 BA 52 9A 55 56 59 AD 2C 47 95 99 AA 2A 5B 29 AD CA AA A6 A6 AA AA 9A 96 A6 4B B5 2A D5 54 D5 46 D3 A2 6A A9 AA A9 2A 53 56 D5 A6 6A 2D AB 4A D5 51 65 C5 B2 AC AA 5A CD 2A 4B 99 AA D4 34 B3 AA 36 D5 AC 52 93 59 51 2E 53 AB 56 D5 98 5A 55 55 A5 A9 D2 CA A6 53 AB AA 52 95 AA 29 55 D5 B2 66 D5 54 D5 54 AA AA 9C 96 55 35 55 A5 59 AA A6 AA AA 2A 4D 9B 9A 66 99 55 55 4D B6 2C 55 95 99 AA 34 AB AA AA 6A 66 55 55 95 55 55 65 99 6A AA AA AA AA AC 5A 95 6A A9 A6 56 55 D5 2A 53 55 A9 AA 34 CB 32 D5 69 A9 56 55 4D 55 55 55 95 AA 6A AA AA 55 55 55 55 55 AA 96 A9 65 69 55 65 55 AA AA AA AA 69 AA 56 65 55 56 4B 55 55 55 A5 6A 95 56 55 55 56 55 95 A6 2A D3 AA 32 CD B4 6A 55 55 35 55 35 55 55 55 55 55 55 55 59 AA AA D4 AA AA AA 6A A6 AA 66 55 D5 4C 53 55 A5 AA AA AA AA AA A9 AA AA AA AA AA AA AA AA 55 55 55 33 55 55 55 A5 AA 26 AB AA A5 56 55 65 95 AA CA AC AA AA 5A 55 55 55 A5 A9 AA A9 56 55 B5 52 55 55 55 AA AA D4 2A AB 5A A5 56 55 55 55 55 A5 55 56 55 69 55 55 AA 96 AA AA AA AA AA AA 9A 56 99 56 5A 65 59 55 55 65 55 95 55 56 A9 AA AA AA AA 6A 55 55 55 65 55 A5 AA A6 AA AA 6A 5A 59 55 55 55 55 55 A5 55 95 AA 96 AA AA AA AA 55 55 65 AA AA AA AA 59 55 B5 AA 52 55 99 A6 AA AA AA AA AA AA AA AA AA 5A 65 55 55 55 55 55 55 55 55 95 66 56 AA AA AA 6A 6A AA AA 9A A6 AA 6A 59 56 59 55 A9 AA AA AA 55 55 55 55 55 55 6A 9A AA AA 56 A5 A6 AA AA AA AA AA 6A 55 55 55 55 55 4D 55 55 96 AA AA AA AA AA AA AA AA AA A6 AA 5A 55 55 55 4B 55 55 55 A5 AA AA AA AA AA AA AA AA AA AA AA 5A 55 55 59 55 55 55 55 95 56 55 95 96 9A A5 AA AA AA AA AA AA AA AA 55 55 55 65 55 6A AA 6A 55 55 55 95 A5 96 AA AA AA AA AA 95 5A A5 AA 65 A9 69 55 55 55 55 55 55 A5 AA AA AA AA AA 56 55 55 55 55 69 AA AA A5 56 55 95 55 59 5A A5 5A A5 AA 6A A9 55 55 55 55 55 55 55 69 AA AA A6 5A AA AA AA AA AA 56 55 55 55 A5 9A 56 69 55 A5 AA 55 55 A9 95 AA AA 66 55 A5 55 A9 6A 56 5A 55 A9 65 59 55 55 55 55 AA AA 56 55 55 55 55 A5 AA A5 AA AA AA AA 56 55 A9 AA AA 56 AA 55 55 55 55 55 55 55 96 AA AA AA 96 55 55 55 56 5A 55 55 55 69 55 55 55 55 AA AA AA AA AA A9 AA AA 55 55 55 55 55 55 A9 6A 55 A5 6A A9 55 55 55 55 55 55 55 55 55
DPCMDEF   2  1360 "Sample 3"
DPCM : 55 55 55 55 55 55 55 55 55 55 55 55 55 55 55 55 55 55 55 55 55 55 55 55 55 55 55 55 55 55 55 55 55 55 55 95 55 55 56 5A 55 59 99 55 55 53 55 55 55 55 55 55 2B D5 39 FC E1 07 3F FC C0 03 00 80 01 02 7C E0 C1 87 DF FF FF FF 75 34 A5 86 4A 5C B4 52 55 69 A5 AD EA 70 93 8D 47 8F 5A 9A 34 55 4B 55 A9 8A 0F 1F 3E F0 70 00 7C F0 E1 C3 1F F5 E0 82 0F 00 00 3C 78 F0 FF FF FF 6D A9 D2 68 51 55 25 4D 55 55 55 6D AA 9A AE 78 69 A9 4D 5A 9A CA AA E2 92 16 F3 87 0F 1F 1C 10 3F 38 F8 E1 71 7C F0 80 00 04 1C 70 F0 E1 C7 FF FF FF 1F F8 60 15 8D B4 94 6C D1 A5 4B 57 2E 76 74 69 53 8B 8B 16 AB 52 95 0D F5 C1 1F 1E 78 1C 38 80 C3 07 1F 78 F0 C0 C1 01 1C F0 C3 C7 FF FF FF 07 3E E0 41 25 B5 61 55 A5 65 55 5D AA 8D 2D 6D B2 49 AB D2 AA 34 3A 0B 1F F4 F8 01 1F 3E 7C F0 E0 C1 83 0F 1E 00 E0 C1 C3 E1 1F FE 9F 7F 7E 70 09 5E 70 60 53 71 71 85 57 55 AB 87 17 2D 97 9A 3C 74 B4 B4 F0 A4 8B F1 F0 7C C0 0F 0E 3C 78 E0 E0 00 38 38 C0 F0 9F FF FF BF 3F 6E 24 89 96 70 51 8D 6A D1 A3 5A D3 B1 35 9A C5 25 17 1B 4B 1D 3C 7C 70 5C E1 07 1F 1E 1C 3C 78 F0 00 0F 1C 78 E0 E3 F3 FF 8F 3F AC 32 09 1D 4A 4B 35 D5 E4 54 55 4B 97 AE D8 64 C3 13 97 0E 2F 6C B4 54 7D 3C 3E 18 83 07 0F 1E 78 30 00 00 3E FE FF FF FB 53 15 4D 26 32 71 D2 52 4D 2D D5 CA 69 D5 64 47 4D 3A 71 C5 A5 A5 A6 2A 55 1F 1F 0E 0E 3E 78 F0 E0 01 0E 06 8E FF 7F 3F 3E 1C 3E E8 60 11 0F 1D 35 75 78 F8 D0 C3 87 0F 0F 1D 3A 36 5A 59 59 3C F4 C1 C3 07 0F 1E 3C 38 78 E0 C0 1F F8 FD F1 F3 C1 83 2B 35 4C 15 2D 4D 53 55 B5 B4 B4 CA 95 6A A9 A5 46 53 CB AA 2C 4D 4D C7 87 87 0F 3C 78 70 00 C0 E1 C3 FF CF CF 87 17 2E 5A 51 A5 52 4B 2D 35 75 D4 D4 D1 C9 43 0F 0F 1B AD AC 2C AD 1C 1E 7E F8 F0 E0 83 07 02 C0 E1 C3 C7 CF DF 8F 55 56 55 4A 59 54 D5 D2 D2 D2 D2 4A 1B 97 AA A6 45 47 1B 5D 74 74 49 0F 3F 3C 78 F0 81 03 30 F0 F0 F0 9F FF 0F 4D 55 96 16 69 2A 2D 35 55 53 53 AB 4C 6B 72 69 A9 B2 2A 47 2D B5 4C 0F FF E1 81 81 03 20 F0 C1 C7 FF FC F1 F1 A4 43 AB 54 9A 34 D5 D2 D2 D4 B4 D4 AA A9 B2 69 C9 AA 74 74 B2 D2 E3 F1 43 01 C7 C0 80 C3 83 FF 8F CF 0F 9D 3C 74 52 9A AC 54 D5 2A 9D B2 B2 D2 D2 E5 42 A7 16 2D 2D 2D 4D 8F FC 78 00 F8 C1 E0 C1 03 BE 1F 3F 3F 3C 3C 74 2A 16 6B 64 D5 2A B5 74 52 4B D5 C5 C3 0E 17 1D 2D 55 35 7D F8 F8 E0 E0 01 00 80 07 FF 9F BF 1F 5E 6C 74 91 26 2D 55 55 4B AB B1 D2 4A AB CA C3 15 17 1D 2D 35 55 8F 0F E7 03 0E 00 78 F0 C0 FF FC F9 E1 E1 45 3D 68 52 4D 55 D5 52 47 AB B4 54 AD 74 69 25 27 4D D5 D4 4A CF 0F 0E 0E 1E 00 00 7E 0E 3F 7E FF F8 F0 91 1B 6A D4 A2 55 55 2D 4B AD 34 B5 AA 59 9A AA AC B4 D4 D4 F1 F2 03 E7 C0 83 07 03 0E 8F 0F 3F 3F 3C BC E8 46 1A D9 68 53 4B 4D 55 55 4D D5 26 AD 96 AA 54 55 55 B5 D2 51 AB 1F 0E 0F 0F 00 70 38 7C FC FD F0 E1 07 1F 1A D5 C1 55 4D 55 55 4D 2D D5 D4 D2 B4 52 55 55 55 53 55 53 4D 55 55 3E 0E 1F 0F 1E C0 80 0F 1F 7E FC F0 E1 07 2F F8 E0 C1 55 35 55 A5 4D 2D 55 55 53 2D 35 59 55 55 B5 54 53 55 69 55 53 4D 4D 55 75 F0 21 3F 78 00 F8 E1 F3 C3 93 47 6D 54 53 8D 95 4D 55 55 55 56 55 55 55 55 55 55 55 53 55 56 55 55 55 95 56 B5 54 D5 70 55 65 65 55 55 69 65 55 55 55 95 55 55 55 55 55 55 55 D5 07 87 0B 3E 3C 55 55 53 55 55 55 55 55 55 55 55 65 59 55 D5 E1 03 7E 38 BC D8 54 55 55 56 55 55 95 56 56 55 55 55 55 55 55 55 55 55 55 55 55 95 55 55 55 55 07 1F 2E F0 C3 87 07 57 55 55 55 55 59 55 55 56 55 95 55 55 55 55 55 55 55 55 56 59 55 55 55 55 55 55 55 55 55 55 55 55 55 55 55 55 55 59 55 55 55 55 59 55 55 55 55 55 55 55 55 55 55 55 55 55 55 65 55 55 55 55 55 55 55 55 55 55 55 55 55 55 55 55 55 55 55 55 55 55 55 55 55 55 55 55 55 55 55 55 55 55 55 55 55 55 55 55 55 55 55 55 55 55 55 55 55 55 55 55 55 55 55 55 55 55 55 55 55 55 55 55 55 55 55 55 55 55 55 55 55 55 55 55 55 55 55 55 55 55 55 55 55 55 55 55 55 55 55 55 55 55 55 55 55 55 55 55 55 55 55 55 55 55 55 55 55 55 55 55 55 55 55 55 55 55 55 55 55 55 55 55 55 55 55 55 55 55 55 55 55 55 55 55 55 55 55 55 55 55 55 55 55 55 55 55 55 55 55 55 55 55 55 55 55 55 55 55 55 55 55 55 55 55 55 55 55 55 55 55 55 55 55 55 55 55 55 55 55 55 55 55 55 55 55 55 55 55 55 55 55 55 55 55 55 55 55 55 55 55 55 55 55 55 55 55 55 55 55 55 55 55 55 55 55 55 55 55 55 55 55 55 55 55 55 55 55 55 55 55 55 55 55 55 55 55 55 55 55 55

# Instruments
INST2A03   0    -1  -1  -1  -1  -1 "Duty 0"
INST2A03   1    -1  -1  -1  -1   0 "Duty 1"
INST2A03   2    -1  -1  -1  -1   1 "Duty 2"
INSTN163   3    -1  -1  -1  -1  -1  32  32   1 "N163 1"
N163WAVE   3     0 : 8 9 11 12 13 14 15 15 15 15 14 14 13 11 10 9 7 6 4 3 2 1 0 0 0 0 1 1 2 4 5 6
INSTN163   4    -1  -1  -1  -1  -1  32   0   1 "N163 10"
N163WAVE   4     0 : 0 1 10 8 6 5 2 1 0 0 0 5 7 14 14 10 9 12 11 10 9 15 5 5 4 3 2 2 11 11 11 0
INSTN163   5    -1  -1  -1  -1  -1  32   0   1 "N163 11"
N163WAVE   5     0 : 0 0 1 1 2 2 3 3 4 4 5 5 6 6 7 7 8 8 9 9 10 10 11 11 12 12 13 13 14 14 15 15
INSTN163   6    -1  -1  -1  -1  -1  32   0   1 "N163 12"
N163WAVE   6     0 : 0 2 5 13 13 2 2 0 15 4 6 6 11 9 13 12 10 9 7 6 9 13 12 11 10 9 8 8 6 4 3 2
INSTN163   7    -1  -1  -1  -1  -1  32   0   1 "N163 13"
N163WAVE   7     0 : 0 2 5 8 10 4 5 4 14 14 6 6 8 8 13 12 7 6 5 4 7 7 7 7 8 8 8 8 6 4 5 6
INSTN163   8    -1  -1  -1  -1  -1  32   0   1 "N163 14"
N163WAVE   8     0 : 0 2 5 7 8 10 11 8 14 14 9 9 9 10 14 13 13 10 8 8 7 4 4 4 5 5 5 5 6 7 7 7
INSTN163   9    -1  -1  -1  -1  -1  32   0   1 "N163 15"
N163WAVE   9     0 : 7 7 8 9 12 13 13 12 14 14 13 11 11 13 14 13 12 10 10 8 6 5 4 2 1 1 1 2 3 5 5 6
INSTN163  10    -1  -1  -1  -1  -1  32  64   1 "N163 2"
N163WAVE  10     0 : 15 11 11 9 8 5 4 2 1 2 3 4 2 4 3 4 7 4 6 5 11 7 8 9 8 10 8 7 6 5 5 9
INSTN163  11    -1  -1  -1  -1  -1  32  64   1 "N163 3"
N163WAVE  11     0 : 15 12 12 10 9 7 6 4 3 4 3 3 4 4 2 3 5 4 5 4 8 6 6 6 6 6 5 7 8 8 8 11
INSTN163  12    -1  -1  -1  -1  -1  32   0   1 "N163 4"
N163WAVE  12     0 : 0 0 0 0 0 0 0 0 0 0 0 0 0 0 0 0 15 15 15 15 15 15 15 15 15 15 15 15 15 15 15 15
INSTN163  13    -1  -1  -1  -1  -1  32  64   1 "N163 5"
N163WAVE  13     0 : 14 13 12 11 10 9 7 6 5 6 3 2 6 3 1 2 3 4 4 3 5 4 4 3 4 2 1 6 9 10 11 12
INSTN163  14    -1  -1  -1  -1  -1  32  64   1 "N163 6"
N163WAVE  14     0 : 13 12 11 10 10 10 8 7 7 7 5 4 6 4 2 2 3 5 5 4 4 3 3 2 4 4 4 7 9 10 11 11
INSTN163  15    -1  -1  -1  -1  -1  32  64   1 "N163 7"
N163WAVE  15     0 : 12 11 10 9 10 10 8 7 8 7 6 6 5 4 2 1 3 5 5 4 3 2 1 1 3 6 6 7 9 10 11 10
INSTN163  16    -1  -1  -1  -1  -1  32  64   1 "N163 8"
N163WAVE  16     0 : 11 10 9 9 9 9 7 7 7 7 6 6 6 4 3 2 3 5 5 5 4 3 1 1 2 5 5 6 8 9 9 9
INSTN163  17    -1  -1  -1  -1  -1  32  64   1 "N163 9"
N163WAVE  17     0 : 10 8 7 8 8 7 6 6 6 6 6 5 6 4 3 2 3 4 4 5 4 3 0 0 1 3 4 5 6 8 7 7
INST2A03  18    -1  -1  -1  -1  -1 "DPCM"
KEYDPCM  18   1   0     0  15   0     0  -1
KEYDPCM  18   1   1     1  15   0     0  -1
KEYDPCM  18   1   2     2  15   0     0  -1

# Tracks
TRACK 256   1 150 "Song 1"
COLUMNS : 3 3 3 3 3 3 3 3 3 3 3 3 3

ORDER 00 : 00 00 00 00 00 00 00 00 00 00 00 00 00
ORDER 01 : 01 01 01 01 01 01 01 01 01 01 00 00 00
ORDER 02 : 02 02 02 02 02 02 02 02 02 02 00 00 00
ORDER 03 : 03 03 03 03 03 03 03 03 03 03 01 00 00
ORDER 04 : 04 04 04 04 04 04 04 04 04 04 02 00 00
ORDER 05 : 05 05 05 05 05 05 05 05 05 05 03 00 00
ORDER 06 : 06 06 06 06 06 06 06 06 06 06 04 00 00
ORDER 07 : 07 07 07 07 07 07 07 07 07 07 00 00 00
ORDER 08 : 07 08 08 08 08 08 08 08 08 08 00 00 00
ORDER 09 : 07 09 09 09 09 09 09 09 09 09 00 00 00
ORDER 0A : 07 0A 0A 0A 0A 0A 0A 0A 0A 0A 00 00 00
ORDER 0B : 07 0B 0B 0B 0B 0B 0B 0B 0B 0B 00 00 00
ORDER 0C : 07 0C 0C 0C 0C 0C 0C 0C 0C 0C 00 00 00
ORDER 0D : 07 0D 0D 0D 0D 0D 0D 0D 0D 0D 00 00 00
ORDER 0E : 07 0E 0E 0E 0E 0E 0E 0E 0E 0E 00 00 00
ORDER 0F : 07 0F 0F 0F 0F 0F 0F 0F 0F 0F 00 00 00
ORDER 10 : 07 10 10 10 10 10 10 10 10 10 00 00 00
ORDER 11 : 07 11 11 11 11 11 11 11 11 11 00 00 00
ORDER 12 : 07 12 12 12 12 12 12 12 12 12 00 00 00
ORDER 13 : 07 13 13 13 13 13 13 13 13 13 00 00 00
ORDER 14 : 07 14 14 14 14 14 14 14 14 14 00 00 00
ORDER 15 : 07 15 15 15 15 15 15 15 15 15 00 00 00
ORDER 16 : 07 16 16 16 16 16 16 16 16 16 00 00 00
ORDER 17 : 07 17 17 17 17 17 17 17 17 17 00 00 00
ORDER 18 : 07 18 18 18 18 18 18 18 18 18 00 00 00
ORDER 19 : 07 19 19 19 19 19 19 19 19 19 00 00 00
ORDER 1A : 07 1A 1A 1A 1A 1A 1A 1A 1A 1A 00 00 00
ORDER 1B : 07 1B 1B 1B 1B 1B 1B 1B 1B 1B 00 00 00
ORDER 1C : 07 1C 1C 1C 1C 1C 1C 1C 1C 00 00 00 00

PATTERN 00
ROW 00 : ... .. . ... ... ... : ... .. . ... ... ... : F#3 00 . P78 ... ... : 1-# 00 . ... ... ... : C-1 12 . ... ... ... : ... .. . ... ... ... : G#1 03 . P81 ... ... : ... .. . ... ... ... : ... .. . ... ... ... : ... .. . ... ... ... : ... .. . ... ... ... : ... .. . ... ... ... : ... .. . ... ... ...
ROW 01 : ... .. . ... ... ... : ... .. . ... ... ... : C#3 00 . P7E ... ... : 2-# 00 7 ... ... ... : ... .. . ... ... ... : ... .. . ... ... ... : ... .. . P80 ... ... : ... .. . ... ... ... : ... .. . ... ... ... : ... .. . ... ... ... : ... .. . ... ... ... : ... .. . ... ... ... : ... .. . ... ... ...
ROW 02 : ... .. . ... ... ... : ... .. . ... ... ... : A-2 00 . P86 ... ... : 1-# 00 4 ... ... ... : ... .. . ... ... ... : ... .. . ... ... ... : ... .. . ... ... ... : ... .. . ... ... ... : ... .. . ... ... ... : ... .. . ... ... ... : ... .. . ... ... ... : ... .. . ... ... ... : ... .. . ... ... ...
ROW 03 : ... .. . ... ... ... : ... .. . ... ... ... : F#2 00 . P87 ... ... : ... .. 2 ... ... ... : ... .. . ... ... ... : ... .. . ... ... ... : ... .. . ... ... ... : ... .. . ... ... ... : ... .. . ... ... ... : ... .. . ... ... ... : ... .. . ... ... ... : ... .. . ... ... ... : ... .. . ... ... ...
ROW 04 : ... .. . ... ... ... : ... .. . ... ... ... : E-2 00 . P71 ... ... : ... .. 1 ... ... ... : ... .. . ... ... ... : ... .. . ... ... ... : ... .. . P81 ... ... : ... .. . ... ... ... : ... .. . ... ... ... : ... .. . ... ... ... : ... .. . ... ... ... : ... .. . ... ... ... : ... .. . ... ... ...
ROW 05 : ... .. . ... ... ... : ... .. . ... ... ... : C#2 00 . P91 ... ... : --- .. . ... ... ... : ... .. . ... ... ... : ... .. . ... ... ... : ... .. . P80 ... ... : ... .. . ... ... ... : ... .. . ... ... ... : ... .. . ... ... ... : ... .. . ... ... ... : ... .. . ... ... ... : ... .. . ... ... ...
ROW 06 : ... .. . ... ... ... : ... .. . ... ... ... : --- .. . ... ... ... : ... .. . ... ... ... : ... .. . ... ... ... : ... .. . ... ... ... : ... .. . ... ... ... : ... .. . ... ... ... : ... .. . ... ... ... : ... .. . ... ... ... : ... .. . ... ... ... : ... .. . ... ... ... : ... .. . ... ... ...
ROW 07 : ... .. . ... ... ... : ... .. . ... ... ... : ... .. . ... ... ... : ... .. . ... ... ... : ... .. . ... ... ... : ... .. . ... ... ... : ... .. . ... ... ... : ... .. . ... ... ... : ... .. . ... ... ... : ... .. . ... ... ... : ... .. . ... ... ... : ... .. . ... ... ... : ... .. . ... ... ...
ROW 08 : ... .. . ... ... ... : ... .. . ... ... ... : ... .. . ... ... ... : ... .. . ... ... ... : ... .. . ... ... ... : ... .. . ... ... ... : ... .. . ... ... ... : ... .. . ... ... ... : ... .. . ... ... ... : ... .. . ... ... ... : ... .. . ... ... ... : ... .. . ... ... ... : ... .. . ... ... ...
ROW 09 : ... .. . ... ... ... : ... .. . ... ... ... : ... .. . ... ... ... : ... .. . ... ... ... : ... .. . ... ... ... : ... .. . ... ... ... : ... .. . P81 ... ... : ... .. . ... ... ... : ... .. . ... ... ... : ... .. . ... ... ... : ... .. . ... ... ... : ... .. . ... ... ... : ... .. . ... ... ...
ROW 0A : ... .. . ... ... ... : ... .. . ... ... ... : ... .. . ... ... ... : ... .. . ... ... ... : ... .. . ... ... ... : ... .. . ... ... ... : ... .. . P80 ... ... : ... .. . ... ... ... : ... .. . ... ... ... : ... .. . ... ... ... : ... .. . ... ... ... : ... .. . ... ... ... : ... .. . ... ... ...
ROW 0B : ... .. . ... ... ... : ... .. . ... ... ... : ... .. . ... ... ... : ... .. . ... ... ... : ... .. . ... ... ... : ... .. . ... ... ... : ... .. . ... ... ... : ... .. . ... ... ... : ... .. . ... ... ... : ... .. . ... ... ... : ... .. . ... ... ... : ... .. . ... ... ... : ... .. . ... ... ...
ROW 0C : ... .. . ... ... ... : ... .. . ... ... ... : ... .. . ... ... ... : ... .. . ... ... ... : ... .. . ... ... ... : ... .. . ... ... ... : ... .. . ... ... ... : G#4 0A B ... ... ... : ... .. . ... ... ... : ... .. . ... ... ... : ... .. . ... ... ... : ... .. . ... ... ... : ... .. . ... ... ...
ROW 0D : ... .. . ... ... ... : ... .. . ... ... ... : ... .. . ... ... ... : ... .. . ... ... ... : ... .. . ... ... ... : ... .. . ... ... ... : ... .. . P81 ... ... : G#4 0B . ... ... ... : ... .. . ... ... ... : ... .. . ... ... ... : ... .. . ... ... ... : ... .. . ... ... ... : ... .. . ... ... ...
ROW 0E : G#3 02 1 P82 ... ... : D#3 02 1 P82 ... ... : ... .. . ... ... ... : ... .. . ... ... ... : ... .. . ... ... ... : B-3 0C 1 P7F ... ... : ... .. . P80 ... ... : G#4 0D . ... ... ... : ... .. . ... ... ... : ... .. . ... ... ... : ... .. . ... ... ... : ... .. . ... ... ... : ... .. . ... ... ...
ROW 0F : ... .. . P83 ... ... : ... .. . P83 ... ... : ... .. . ... ... ... : ... .. . ... ... ... : ... .. . ... ... ... : ... .. . P80 ... ... : ... .. . ... ... ... : G#4 0E . ... ... ... : ... .. . ... ... ... : ... .. . ... ... ... : ... .. . ... ... ... : ... .. . ... ... ... : ... .. . ... ... ...
ROW 10 : ... .. . P82 ... ... : ... .. . P82 ... ... : ... .. . ... ... ... : ... .. . ... ... ... : ... .. . ... ... ... : ... .. . P81 ... ... : ... .. . ... ... ... : ... .. A ... ... ... : ... .. . ... ... ... : ... .. . ... ... ... : ... .. . ... ... ... : ... .. . ... ... ... : ... .. . ... ... ...
ROW 11 : ... .. 2 P80 ... ... : ... .. 2 P80 ... ... : ... .. . ... ... ... : ... .. . ... ... ... : ... .. . ... ... ... : ... .. 2 P82 ... ... : ... .. . P81 ... ... : G#4 0F . ... ... ... : ... .. . ... ... ... : ... .. . ... ... ... : ... .. . ... ... ... : ... .. . ... ... ... : ... .. . ... ... ...
ROW 12 : ... .. . P7E ... ... : ... .. . P7E ... ... : ... .. . ... ... ... : ... .. . ... ... ... : ... .. . ... ... ... : ... .. . P81 ... ... : ... .. . P80 ... ... : ... .. . ... ... ... : ... .. . ... ... ... : ... .. . ... ... ... : ... .. . ... ... ... : ... .. . ... ... ... : ... .. . ... ... ...
ROW 13 : ... .. 3 P7D ... ... : ... .. 3 P7D ... ... : ... .. . ... ... ... : ... .. . ... ... ... : ... .. . ... ... ... : ... .. 3 P80 ... ... : ... .. . ... ... ... : ... .. . ... ... ... : ... .. . ... ... ... : ... .. . ... ... ... : ... .. . ... ... ... : ... .. . ... ... ... : ... .. . ... ... ...
ROW 14 : ... .. . P7E ... ... : ... .. . P7E ... ... : ... .. . ... ... ... : ... .. . ... ... ... : ... .. . ... ... ... : ... .. . P7F ... ... : ... .. . ... ... ... : G#4 10 9 ... ... ... : ... .. . ... ... ... : ... .. . ... ... ... : ... .. . ... ... ... : ... .. . ... ... ... : ... .. . ... ... ...
ROW 15 : ... .. . P80 ... ... : ... .. . P80 ... ... : ... .. . ... ... ... : ... .. . ... ... ... : ... .. . ... ... ... : ... .. . ... ... ... : ... .. . P81 ... ... : ... .. . ... ... ... : ... .. . ... ... ... : ... .. . ... ... ... : ... .. . ... ... ... : ... .. . ... ... ... : ... .. . ... ... ...
ROW 16 : ... .. 4 P82 ... ... : ... .. 4 P82 ... ... : ... .. . ... ... ... : ... .. . ... ... ... : ... .. . ... ... ... : ... .. 4 ... ... ... : ... .. . P80 ... ... : ... .. . ... ... ... : ... .. . ... ... ... : ... .. . ... ... ... : ... .. . ... ... ... : ... .. . ... ... ... : ... .. . ... ... ...
ROW 17 : ... .. . P83 ... ... : ... .. . P83 ... ... : ... .. . ... ... ... : ... .. . ... ... ... : ... .. . ... ... ... : ... .. . P80 ... ... : ... .. . ... ... ... : ... .. . ... ... ... : ... .. . ... ... ... : ... .. . ... ... ... : ... .. . ... ... ... : ... .. . ... ... ... : ... .. . ... ... ...
ROW 18 : ... .. . P82 ... ... : ... .. . P82 ... ... : ... .. . ... ... ... : ... .. . ... ... ... : ... .. . ... ... ... : ... .. . P81 ... ... : ... .. . ... ... ... : G#4 11 8 ... ... ... : ... .. . ... ... ... : ... .. . ... ... ... : ... .. . ... ... ... : ... .. . ... ... ... : ... .. . ... ... ...
ROW 19 : ... .. 5 P80 ... ... : ... .. 5 P80 ... ... : ... .. . ... ... ... : ... .. . ... ... ... : ... .. . ... ... ... : ... .. 5 P82 ... ... : ... .. . ... ... ... : ... .. . ... ... ... : ... .. . ... ... ... : ... .. . ... ... ... : ... .. . ... ... ... : ... .. . ... ... ... : ... .. . ... ... ...
ROW 1A : --- .. . ... ... ... : --- .. . ... ... ... : ... .. . ... ... ... : ... .. . ... ... ... : ... .. . ... ... ... : --- .. . ... ... ... : ... .. . P81 ... ... : F#4 0A B ... ... ... : ... .. . ... ... ... : ... .. . ... ... ... : ... .. . ... ... ... : ... .. . ... ... ... : ... .. . ... ... ...
ROW 1B : ... .. . ... ... ... : ... .. . ... ... ... : ... .. . ... ... ... : ... .. . ... ... ... : ... .. . ... ... ... : ... .. . P80 ... ... : ... .. . P80 ... ... : F#4 0B . ... ... ... : ... .. . ... ... ... : ... .. . ... ... ... : ... .. . ... ... ... : ... .. . ... ... ... : ... .. . ... ... ...
ROW 1C : ... .. . ... ... ... : ... .. . ... ... ... : ... .. . ... ... ... : ... .. . ... ... ... : ... .. . ... ... ... : ... .. . ... ... ... : ... .. . ... ... ... : F#4 0D . ... ... ... : ... .. . ... ... ... : ... .. . ... ... ... : ... .. . ... ... ... : ... .. . ... ... ... : ... .. . ... ... ...
ROW 1D : ... .. . ... ... ... : ... .. . ... ... ... : ... .. . ... ... ... : ... .. . ... ... ... : ... .. . ... ... ... : ... .. . ... ... ... : ... .. . ... ... ... : F#4 0E . ... ... ... : ... .. . ... ... ... : ... .. . ... ... ... : ... .. . ... ... ... : ... .. . ... ... ... : ... .. . ... ... ...
ROW 1E : ... .. . ... ... ... : ... .. . ... ... ... : ... .. . ... ... ... : ... .. . ... ... ... : ... .. . ... ... ... : ... .. . ... ... ... : ... .. . P81 ... ... : ... .. A ... ... ... : ... .. . ... ... ... : ... .. . ... ... ... : ... .. . ... ... ... : ... .. . ... ... ... : ... .. . ... ... ...
ROW 1F : ... .. . ... ... ... : ... .. . ... ... ... : ... .. . ... ... ... : ... .. . ... ... ... : ... .. . ... ... ... : ... .. . ... ... ... : ... .. . P80 ... ... : F#4 0F . ... ... ... : ... .. . ... ... ... : ... .. . ... ... ... : ... .. . ... ... ... : ... .. . ... ... ... : ... .. . ... ... ...
ROW 20 : ... .. . ... ... ... : ... .. . ... ... ... : ... .. . ... ... ... : ... .. . ... ... ... : ... .. . ... ... ... : ... .. . ... ... ... : ... .. . ... ... ... : ... .. . ... ... ... : ... .. . ... ... ... : ... .. . ... ... ... : ... .. . ... ... ... : ... .. . ... ... ... : ... .. . ... ... ...
ROW 21 : ... .. . ... ... ... : ... .. . ... ... ... : ... .. . ... ... ... : ... .. . ... ... ... : ... .. . ... ... ... : ... .. . ... ... ... : ... .. . ... ... ... : ... .. . ... ... ... : ... .. . ... ... ... : ... .. . ... ... ... : ... .. . ... ... ... : ... .. . ... ... ... : ... .. . ... ... ...
ROW 22 : ... .. . ... ... ... : ... .. . ... ... ... : ... .. . ... ... ... : ... .. . ... ... ... : ... .. . ... ... ... : ... .. . ... ... ... : ... .. . P81 ... ... : F#4 10 9 ... ... ... : ... .. . ... ... ... : ... .. . ... ... ... : ... .. . ... ... ... : ... .. . ... ... ... : ... .. . ... ... ...
ROW 23 : ... .. . ... ... ... : ... .. . ... ... ... : ... .. . ... ... ... : ... .. . ... ... ... : ... .. . ... ... ... : ... .. . ... ... ... : ... .. . P80 ... ... : ... .. . ... ... ... : ... .. . ... ... ... : ... .. . ... ... ... : ... .. . ... ... ... : ... .. . ... ... ... : ... .. . ... ... ...
ROW 24 : ... .. . ... ... ... : ... .. . ... ... ... : ... .. . ... ... ... : ... .. . ... ... ... : ... .. . ... ... ... : ... .. . ... ... ... : ... .. . ... ... ... : ... .. . ... ... ... : ... .. . ... ... ... : ... .. . ... ... ... : ... .. . ... ... ... : ... .. . ... ... ... : ... .. . ... ... ...
ROW 25 : ... .. . ... ... ... : ... .. . ... ... ... : ... .. . ... ... ... : ... .. . ... ... ... : ... .. . ... ... ... : ... .. . ... ... ... : ... .. . ... ... ... : ... .. . ... ... ... : ... .. . ... ... ... : ... .. . ... ... ... : ... .. . ... ... ... : ... .. . ... ... ... : ... .. . ... ... ...
ROW 26 : ... .. . ... ... ... : ... .. . ... ... ... : F#3 00 . P78 ... ... : 1-# 00 F ... ... ... : C-1 12 . ... ... ... : ... .. . ... ... ... : ... .. . P81 ... ... : G#4 0A B ... ... ... : ... .. . ... ... ... : ... .. . ... ... ... : ... .. . ... ... ... : ... .. . ... ... ... : ... .. . ... ... ...
ROW 27 : ... .. . ... ... ... : ... .. . ... ... ... : C#3 00 . P7E ... ... : 2-# 00 7 ... ... ... : ... .. . ... ... ... : ... .. . ... ... ... : ... .. . P80 ... ... : G#4 0B . ... ... ... : ... .. . ... ... ... : ... .. . ... ... ... : ... .. . ... ... ... : ... .. . ... ... ... : ... .. . ... ... ...
ROW 28 : G#3 02 1 P82 ... ... : D#3 02 1 P82 ... ... : A-2 00 . P86 ... ... : 1-# 00 4 ... ... ... : ... .. . ... ... ... : B-3 0C 1 P81 ... ... : ... .. . ... ... ... : G#4 0D . ... ... ... : ... .. . ... ... ... : ... .. . ... ... ... : ... .. . ... ... ... : ... .. . ... ... ... : ... .. . ... ... ...
ROW 29 : ... .. . P80 ... ... : ... .. . P80 ... ... : F#2 00 . P87 ... ... : ... .. 2 ... ... ... : ... .. . ... ... ... : ... .. . P82 ... ... : ... .. . ... ... ... : G#4 0E . ... ... ... : ... .. . ... ... ... : ... .. . ... ... ... : ... .. . ... ... ... : ... .. . ... ... ... : ... .. . ... ... ...
ROW 2A : ... .. . P7E ... ... : ... .. . P7E ... ... : E-2 00 . P71 ... ... : ... .. 1 ... ... ... : ... .. . ... ... ... : ... .. . P81 ... ... : ... .. . ... ... ... : ... .. A ... ... ... : ... .. . ... ... ... : ... .. . ... ... ... : ... .. . ... ... ... : ... .. . ... ... ... : ... .. . ... ... ...
ROW 2B : ... .. 2 P7D ... ... : ... .. 2 P7D ... ... : C#2 00 . P91 ... ... : --- .. . ... ... ... : ... .. . ... ... ... : ... .. 2 P80 ... ... : ... .. . P81 ... ... : G#4 0F . ... ... ... : ... .. . ... ... ... : ... .. . ... ... ... : ... .. . ... ... ... : ... .. . ... ... ... : ... .. . ... ... ...
ROW 2C : ... .. . P7E ... ... : ... .. . P7E ... ... : --- .. . ... ... ... : ... .. . ... ... ... : ... .. . ... ... ... : ... .. . P7F ... ... : ... .. . P80 ... ... : ... .. . ... ... ... : ... .. . ... ... ... : ... .. . ... ... ... : ... .. . ... ... ... : ... .. . ... ... ... : ... .. . ... ... ...
ROW 2D : ... .. 3 P80 ... ... : ... .. 3 P80 ... ... : ... .. . ... ... ... : ... .. . ... ... ... : ... .. . ... ... ... : ... .. 3 ... ... ... : ... .. . ... ... ... : ... .. . ... ... ... : ... .. . ... ... ... : ... .. . ... ... ... : ... .. . ... ... ... : ... .. . ... ... ... : ... .. . ... ... ...
ROW 2E : ... .. . P82 ... ... : ... .. . P82 ... ... : ... .. . ... ... ... : ... .. . ... ... ... : ... .. . ... ... ... : ... .. . ... ... ... : ... .. . ... ... ... : G#4 10 9 ... ... ... : ... .. . ... ... ... : ... .. . ... ... ... : ... .. . ... ... ... : ... .. . ... ... ... : ... .. . ... ... ...
ROW 2F : ... .. . P83 ... ... : ... .. . P83 ... ... : ... .. . ... ... ... : ... .. . ... ... ... : ... .. . ... ... ... : ... .. . P80 ... ... : ... .. . P81 ... ... : ... .. . ... ... ... : ... .. . ... ... ... : ... .. . ... ... ... : ... .. . ... ... ... : ... .. . ... ... ... : ... .. . ... ... ...
ROW 30 : ... .. 4 P82 ... ... : ... .. 4 P82 ... ... : ... .. . ... ... ... : ... .. . ... ... ... : ... .. . ... ... ... : ... .. 4 P81 ... ... : ... .. . P80 ... ... : ... .. . ... ... ... : ... .. . ... ... ... : ... .. . ... ... ... : ... .. . ... ... ... : ... .. . ... ... ... : ... .. . ... ... ...
ROW 31 : ... .. . P80 ... ... : ... .. . P80 ... ... : ... .. . ... ... ... : ... .. . ... ... ... : ... .. . ... ... ... : ... .. . P82 ... ... : ... .. . ... ... ... : ... .. . ... ... ... : ... .. . ... ... ... : ... .. . ... ... ... : ... .. . ... ... ... : ... .. . ... ... ... : ... .. . ... ... ...
ROW 32 : ... .. . P7E ... ... : ... .. . P7E ... ... : ... .. . ... ... ... : ... .. . ... ... ... : ... .. . ... ... ... : ... .. . P81 ... ... : ... .. . ... ... ... : G#4 11 8 ... ... ... : ... .. . ... ... ... : ... .. . ... ... ... : ... .. . ... ... ... : ... .. . ... ... ... : ... .. . ... ... ...
ROW 33 : --- .. . ... ... ... : --- .. . ... ... ... : C#4 00 . P7F ... ... : 9-# 00 F ... ... ... : C#1 12 . ... ... ... : --- .. . ... ... ... : ... .. . P81 ... ... : B-4 0A B ... ... ... : ... .. . ... ... ... : ... .. . ... ... ... : ... .. . ... ... ... : ... .. . ... ... ... : ... .. . ... ... ...
ROW 34 : ... .. . P80 ... ... : ... .. . P80 ... ... : F#3 00 . P83 ... ... : 2-# 00 7 ... ... ... : ... .. . ... ... ... : ... .. . P80 ... ... : ... .. . P80 ... ... : B-4 0B . ... ... ... : ... .. . ... ... ... : ... .. . ... ... ... : ... .. . ... ... ... : ... .. . ... ... ... : ... .. . ... ... ...
ROW 35 : ... .. . ... ... ... : ... .. . ... ... ... : C#3 00 . P89 ... ... : 6-# 00 C ... ... ... : ... .. . ... ... ... : ... .. . ... ... ... : ... .. . ... ... ... : B-4 0D . ... ... ... : ... .. . ... ... ... : ... .. . ... ... ... : ... .. . ... ... ... : ... .. . ... ... ... : ... .. . ... ... ...
ROW 36 : ... .. . ... ... ... : ... .. . ... ... ... : A#2 00 . P75 ... ... : 7-# 00 8 ... ... ... : ... .. . ... ... ... : ... .. . ... ... ... : ... .. . ... ... ... : B-4 0E . ... ... ... : ... .. . ... ... ... : ... .. . ... ... ... : ... .. . ... ... ... : ... .. . ... ... ... : ... .. . ... ... ...
ROW 37 : ... .. . ... ... ... : ... .. . ... ... ... : G-2 00 . P70 ... ... : 8-# 00 7 ... ... ... : ... .. . ... ... ... : ... .. . ... ... ... : ... .. . P81 ... ... : ... .. A ... ... ... : ... .. . ... ... ... : ... .. . ... ... ... : ... .. . ... ... ... : ... .. . ... ... ... : ... .. . ... ... ...
ROW 38 : ... .. . ... ... ... : ... .. . ... ... ... : E-2 00 . P7C ... ... : ... .. 6 ... ... ... : ... .. . ... ... ... : ... .. . ... ... ... : ... .. . ... ... ... : B-4 0F . ... ... ... : ... .. . ... ... ... : ... .. . ... ... ... : ... .. . ... ... ... : ... .. . ... ... ... : ... .. . ... ... ...
ROW 39 : ... .. . ... ... ... : ... .. . ... ... ... : D-2 00 . P6F ... ... : ... .. . ... ... ... : ... .. . ... ... ... : ... .. . ... ... ... : ... .. . P80 ... ... : ... .. . ... ... ... : ... .. . ... ... ... : ... .. . ... ... ... : ... .. . ... ... ... : ... .. . ... ... ... : ... .. . ... ... ...
ROW 3A : ... .. . ... ... ... : ... .. . ... ... ... : C-2 00 . P6C ... ... : ... .. 5 ... ... ... : ... .. . ... ... ... : ... .. . ... ... ... : ... .. . ... ... ... : ... .. . ... ... ... : ... .. . ... ... ... : ... .. . ... ... ... : ... .. . ... ... ... : ... .. . ... ... ... : ... .. . ... ... ...
ROW 3B : ... .. . ... ... ... : ... .. . ... ... ... : A#1 00 . P75 ... ... : ... .. . ... ... ... : ... .. . ... ... ... : ... .. . ... ... ... : ... .. . ... ... ... : B-4 10 9 ... ... ... : ... .. . ... ... ... : ... .. . ... ... ... : ... .. . ... ... ... : ... .. . ... ... ... : ... .. . ... ... ...
ROW 3C : ... .. . ... ... ... : ... .. . ... ... ... : G#1 00 . P8A ... ... : ... .. 4 ... ... ... : ... .. . ... ... ... : ... .. . ... ... ... : ... .. . P81 ... ... : ... .. . ... ... ... : ... .. . ... ... ... : ... .. . ... ... ... : ... .. . ... ... ... : ... .. . ... ... ... : ... .. . ... ... ...
ROW 3D : ... .. . ... ... ... : ... .. . ... ... ... : G-1 00 . P6A ... ... : ... .. . ... ... ... : ... .. . ... ... ... : ... .. . ... ... ... : ... .. . P80 ... ... : ... .. . ... ... ... : ... .. . ... ... ... : ... .. . ... ... ... : ... .. . ... ... ... : ... .. . ... ... ... : ... .. . ... ... ...
ROW 3E : ... .. . ... ... ... : ... .. . ... ... ... : F-1 00 . P96 ... ... : ... .. 3 ... ... ... : ... .. . ... ... ... : ... .. . ... ... ... : ... .. . ... ... ... : ... .. . ... ... ... : ... .. . ... ... ... : ... .. . ... ... ... : ... .. . ... ... ... : ... .. . ... ... ... : ... .. . ... ... ...
ROW 3F : ... .. . ... ... ... : ... .. . ... ... ... : --- .. . ... ... ... : ... .. . ... ... ... : ... .. . ... ... ... : ... .. . ... ... ... : ... .. . ... ... ... : B-4 11 8 ... ... ... : ... .. . ... ... ... : ... .. . ... ... ... : ... .. . ... ... ... : ... .. . ... ... ... : ... .. . ... ... ...
ROW 40 : ... .. . ... ... ... : ... .. . ... ... ... : ... .. . ... ... ... : ... .. . ... ... ... : ... .. . ... ... ... : ... .. . ... ... ... : ... .. . P81 ... ... : ... .. . ... ... ... : ... .. . ... ... ... : ... .. . ... ... ... : ... .. . ... ... ... : ... .. . ... ... ... : ... .. . ... ... ...
ROW 41 : G#3 02 1 ... ... ... : D#3 02 1 ... ... ... : ... .. . ... ... ... : ... .. . ... ... ... : ... .. . ... ... ... : B-3 0C 1 P82 ... ... : ... .. . P80 ... ... : ... .. . ... ... ... : ... .. . ... ... ... : ... .. . ... ... ... : ... .. . ... ... ... : ... .. . ... ... ... : ... .. . ... ... ...
ROW 42 : ... .. . P7E ... ... : ... .. . P7E ... ... : ... .. . ... ... ... : ... .. 2 ... ... ... : ... .. . ... ... ... : ... .. . P81 ... ... : ... .. . ... ... ... : ... .. . ... ... ... : ... .. . ... ... ... : ... .. . ... ... ... : ... .. . ... ... ... : ... .. . ... ... ... : ... .. . ... ... ...
ROW 43 : ... .. . P7D ... ... : ... .. . P7D ... ... : ... .. . ... ... ... : ... .. . ... ... ... : ... .. . ... ... ... : ... .. . P80 ... ... : ... .. . ... ... ... : ... .. 7 ... ... ... : ... .. . ... ... ... : ... .. . ... ... ... : ... .. . ... ... ... : ... .. . ... ... ... : ... .. . ... ... ...
ROW 44 : ... .. 2 P7E ... ... : ... .. 2 P7E ... ... : ... .. . ... ... ... : ... .. . ... ... ... : ... .. . ... ... ... : ... .. 2 P7F ... ... : ... .. . P81 ... ... : ... .. . ... ... ... : ... .. . ... ... ... : ... .. . ... ... ... : ... .. . ... ... ... : ... .. . ... ... ... : ... .. . ... ... ...
ROW 45 : ... .. . P80 ... ... : ... .. . P80 ... ... : ... .. . ... ... ... : ... .. . ... ... ... : ... .. . ... ... ... : ... .. . ... ... ... : ... .. . P80 ... ... : ... .. . ... ... ... : ... .. . ... ... ... : ... .. . ... ... ... : ... .. . ... ... ... : ... .. . ... ... ... : ... .. . ... ... ...
ROW 46 : ... .. 3 P82 ... ... : ... .. 3 P82 ... ... : ... .. . ... ... ... : ... .. 1 ... ... ... : ... .. . ... ... ... : ... .. 3 ... ... ... : ... .. . ... ... ... : ... .. . ... ... ... : ... .. . ... ... ... : ... .. . ... ... ... : ... .. . ... ... ... : ... .. . ... ... ... : ... .. . ... ... ...
ROW 47 : ... .. . P83 ... ... : ... .. . P83 ... ... : ... .. . ... ... ... : ... .. . ... ... ... : ... .. . ... ... ... : ... .. . P80 ... ... : ... .. . ... ... ... : ... .. 6 ... ... ... : ... .. . ... ... ... : ... .. . ... ... ... : ... .. . ... ... ... : ... .. . ... ... ... : ... .. . ... ... ...
ROW 48 : ... .. . P82 ... ... : ... .. . P82 ... ... : ... .. . ... ... ... : ... .. . ... ... ... : ... .. . ... ... ... : ... .. . P81 ... ... : ... .. . ... ... ... : ... .. . ... ... ... : ... .. . ... ... ... : ... .. . ... ... ... : ... .. . ... ... ... : ... .. . ... ... ... : ... .. . ... ... ...
ROW 49 : ... .. 4 P80 ... ... : ... .. 4 P80 ... ... : ... .. . ... ... ... : ... .. . ... ... ... : ... .. . ... ... ... : ... .. 4 P82 ... ... : ... .. . P81 ... ... : ... .. . ... ... ... : ... .. . ... ... ... : ... .. . ... ... ... : ... .. . ... ... ... : ... .. . ... ... ... : ... .. . ... ... ...
ROW 4A : ... .. . P7E ... ... : ... .. . P7E ... ... : ... .. . ... ... ... : ... .. . ... ... ... : ... .. . ... ... ... : ... .. . P81 ... ... : ... .. . P80 ... ... : ... .. . ... ... ... : ... .. . ... ... ... : ... .. . ... ... ... : ... .. . ... ... ... : ... .. . ... ... ... : ... .. . ... ... ...
ROW 4B : ... .. . P7D ... ... : ... .. . P7D ... ... : ... .. . ... ... ... : --- .. . ... ... ... : ... .. . ... ... ... : ... .. . P80 ... ... : ... .. . ... ... ... : ... .. 5 ... ... ... : ... .. . ... ... ... : ... .. . ... ... ... : ... .. . ... ... ... : ... .. . ... ... ... : ... .. . ... ... ...
ROW 4C : --- .. . ... ... ... : --- .. . ... ... ... : ... .. . ... ... ... : ... .. . ... ... ... : ... .. . ... ... ... : --- .. . ... ... ... : ... .. . ... ... ... : C#5 0A B ... ... ... : G#4 0A 8 ... ... ... : ... .. . ... ... ... : ... .. . ... ... ... : ... .. . ... ... ... : ... .. . ... ... ...
ROW 4D : ... .. . P80 ... ... : ... .. . P80 ... ... : ... .. . ... ... ... : ... .. . ... ... ... : ... .. . ... ... ... : ... .. . ... ... ... : ... .. . P81 ... ... : C#5 0B . ... ... ... : G#4 0B . ... ... ... : ... .. . ... ... ... : ... .. . ... ... ... : ... .. . ... ... ... : ... .. . ... ... ...
ROW 4E : ... .. . ... ... ... : ... .. . ... ... ... : ... .. . ... ... ... : ... .. . ... ... ... : ... .. . ... ... ... : ... .. . ... ... ... : ... .. . P80 ... ... : C#5 0D . ... ... ... : G#4 0D . ... ... ... : ... .. . ... ... ... : ... .. . ... ... ... : ... .. . ... ... ... : ... .. . ... ... ...
ROW 4F : ... .. . ... ... ... : ... .. . ... ... ... : ... .. . ... ... ... : ... .. . ... ... ... : ... .. . ... ... ... : ... .. . ... ... ... : ... .. . ... ... ... : C#5 0E . ... ... ... : G#4 0E . ... ... ... : ... .. . ... ... ... : ... .. . ... ... ... : ... .. . ... ... ... : ... .. . ... ... ...
ROW 50 : ... .. . ... ... ... : ... .. . ... ... ... : ... .. . ... ... ... : ... .. . ... ... ... : ... .. . ... ... ... : ... .. . ... ... ... : ... .. . ... ... ... : ... .. A ... ... ... : ... .. 7 ... ... ... : ... .. . ... ... ... : ... .. . ... ... ... : ... .. . ... ... ... : ... .. . ... ... ...
ROW 51 : ... .. . ... ... ... : ... .. . ... ... ... : ... .. . ... ... ... : ... .. . ... ... ... : ... .. . ... ... ... : ... .. . ... ... ... : ... .. . P81 ... ... : C#5 0F . ... ... ... : G#4 0F . ... ... ... : ... .. . ... ... ... : ... .. . ... ... ... : ... .. . ... ... ... : ... .. . ... ... ...
ROW 52 : ... .. . ... ... ... : ... .. . ... ... ... : ... .. . ... ... ... : ... .. . ... ... ... : ... .. . ... ... ... : ... .. . ... ... ... : ... .. . P80 ... ... : ... .. . ... ... ... : ... .. . ... ... ... : ... .. . ... ... ... : ... .. . ... ... ... : ... .. . ... ... ... : ... .. . ... ... ...
ROW 53 : ... .. . ... ... ... : ... .. . ... ... ... : ... .. . ... ... ... : ... .. . ... ... ... : ... .. . ... ... ... : ... .. . ... ... ... : ... .. . ... ... ... : ... .. . ... ... ... : ... .. . ... ... ... : ... .. . ... ... ... : ... .. . ... ... ... : ... .. . ... ... ... : ... .. . ... ... ...
ROW 54 : ... .. . ... ... ... : ... .. . ... ... ... : ... .. . ... ... ... : ... .. . ... ... ... : ... .. . ... ... ... : ... .. . ... ... ... : ... .. . ... ... ... : C#5 10 9 ... ... ... : G#4 10 6 ... ... ... : ... .. . ... ... ... : ... .. . ... ... ... : ... .. . ... ... ... : ... .. . ... ... ...
ROW 55 : ... .. . ... ... ... : ... .. . ... ... ... : ... .. . ... ... ... : ... .. . ... ... ... : ... .. . ... ... ... : ... .. . ... ... ... : ... .. . P81 ... ... : ... .. . ... ... ... : ... .. . ... ... ... : ... .. . ... ... ... : ... .. . ... ... ... : ... .. . ... ... ... : ... .. . ... ... ...
ROW 56 : ... .. . ... ... ... : ... .. . ... ... ... : ... .. . ... ... ... : ... .. . ... ... ... : ... .. . ... ... ... : ... .. . ... ... ... : ... .. . P80 ... ... : ... .. . ... ... ... : ... .. . ... ... ... : ... .. . ... ... ... : ... .. . ... ... ... : ... .. . ... ... ... : ... .. . ... ... ...
ROW 57 : ... .. . ... ... ... : ... .. . ... ... ... : ... .. . ... ... ... : ... .. . ... ... ... : ... .. . ... ... ... : ... .. . ... ... ... : ... .. . ... ... ... : ... .. . ... ... ... : ... .. . ... ... ... : ... .. . ... ... ... : ... .. . ... ... ... : ... .. . ... ... ... : ... .. . ... ... ...
ROW 58 : ... .. . ... ... ... : ... .. . ... ... ... : ... .. . ... ... ... : ... .. . ... ... ... : ... .. . ... ... ... : ... .. . ... ... ... : ... .. . ... ... ... : C#5 11 8 ... ... ... : G#4 11 5 ... ... ... : ... .. . ... ... ... : ... .. . ... ... ... : ... .. . ... ... ... : ... .. . ... ... ...
ROW 59 : ... .. . ... ... ... : ... .. . ... ... ... : ... .. . ... ... ... : ... .. . ... ... ... : ... .. . ... ... ... : ... .. . ... ... ... : ... .. . ... ... ... : ... .. . ... ... ... : ... .. . ... ... ... : ... .. . ... ... ... : ... .. . ... ... ... : ... .. . ... ... ... : ... .. . ... ... ...
ROW 5A : G#3 02 1 P7E ... ... : D#3 02 1 P7E ... ... : ... .. . ... ... ... : ... .. . ... ... ... : ... .. . ... ... ... : B-3 0C 1 P81 ... ... : ... .. . P81 ... ... : ... .. . ... ... ... : ... .. . ... ... ... : ... .. . ... ... ... : ... .. . ... ... ... : ... .. . ... ... ... : ... .. . ... ... ...
ROW 5B : ... .. . P7D ... ... : ... .. . P7D ... ... : ... .. . ... ... ... : ... .. . ... ... ... : ... .. . ... ... ... : ... .. . P80 ... ... : ... .. . P80 ... ... : ... .. . ... ... ... : ... .. . ... ... ... : ... .. . ... ... ... : ... .. . ... ... ... : ... .. . ... ... ... : ... .. . ... ... ...
ROW 5C : ... .. . P7E ... ... : ... .. . P7E ... ... : ... .. . ... ... ... : ... .. . ... ... ... : ... .. . ... ... ... : ... .. . P7F ... ... : ... .. . ... ... ... : ... .. 7 ... ... ... : ... .. 4 ... ... ... : ... .. . ... ... ... : ... .. . ... ... ... : ... .. . ... ... ... : ... .. . ... ... ...
ROW 5D : ... .. 2 P80 ... ... : ... .. 2 P80 ... ... : ... .. . ... ... ... : ... .. . ... ... ... : ... .. . ... ... ... : ... .. 2 ... ... ... : ... .. . ... ... ... : ... .. . ... ... ... : ... .. . ... ... ... : ... .. . ... ... ... : ... .. . ... ... ... : ... .. . ... ... ... : ... .. . ... ... ...
ROW 5E : ... .. . P82 ... ... : ... .. . P82 ... ... : ... .. . ... ... ... : ... .. . ... ... ... : ... .. . ... ... ... : ... .. . ... ... ... : ... .. . P81 ... ... : ... .. . ... ... ... : ... .. . ... ... ... : ... .. . ... ... ... : ... .. . ... ... ... : ... .. . ... ... ... : ... .. . ... ... ...
ROW 5F : ... .. 3 P83 ... ... : ... .. 3 P83 ... ... : ... .. . ... ... ... : ... .. . ... ... ... : ... .. . ... ... ... : ... .. 3 P80 ... ... : ... .. . P80 ... ... : ... .. . ... ... ... : ... .. . ... ... ... : ... .. . ... ... ... : ... .. . ... ... ... : ... .. . ... ... ... : ... .. . ... ... ...
ROW 60 : ... .. . P82 ... ... : ... .. . P82 ... ... : ... .. . ... ... ... : ... .. . ... ... ... : ... .. . ... ... ... : ... .. . P81 ... ... : ... .. . ... ... ... : ... .. 6 ... ... ... : ... .. 3 ... ... ... : ... .. . ... ... ... : ... .. . ... ... ... : ... .. . ... ... ... : ... .. . ... ... ...
ROW 61 : ... .. . P80 ... ... : ... .. . P80 ... ... : ... .. . ... ... ... : ... .. . ... ... ... : ... .. . ... ... ... : ... .. . P82 ... ... : ... .. . ... ... ... : ... .. . ... ... ... : ... .. . ... ... ... : ... .. . ... ... ... : ... .. . ... ... ... : ... .. . ... ... ... : ... .. . ... ... ...
ROW 62 : ... .. 4 P7E ... ... : ... .. 4 P7E ... ... : ... .. . ... ... ... : ... .. . ... ... ... : ... .. . ... ... ... : ... .. 4 P81 ... ... : ... .. . P81 ... ... : ... .. . ... ... ... : ... .. . ... ... ... : ... .. . ... ... ... : ... .. . ... ... ... : ... .. . ... ... ... : ... .. . ... ... ...
ROW 63 : ... .. . P7D ... ... : ... .. . P7D ... ... : ... .. . ... ... ... : ... .. . ... ... ... : ... .. . ... ... ... : ... .. . P80 ... ... : ... .. . P80 ... ... : ... .. . ... ... ... : ... .. . ... ... ... : ... .. . ... ... ... : ... .. . ... ... ... : ... .. . ... ... ... : ... .. . ... ... ...
ROW 64 : ... .. . P7E ... ... : ... .. . P7E ... ... : ... .. . ... ... ... : ... .. . ... ... ... : ... .. . ... ... ... : ... .. . P7F ... ... : ... .. . ... ... ... : ... .. 5 ... ... ... : ... .. 2 ... ... ... : ... .. . ... ... ... : ... .. . ... ... ... : ... .. . ... ... ... : ... .. . ... ... ...
ROW 65 : --- .. . ... ... ... : --- .. . ... ... ... : F#3 00 . P78 ... ... : 1-# 00 F ... ... ... : C-1 12 . ... ... ... : --- .. . ... ... ... : E-2 03 . ... ... ... : B-4 0A B ... ... ... : G#4 0A 8 ... ... ... : ... .. . ... ... ... : ... .. . ... ... ... : ... .. . ... ... ... : ... .. . ... ... ...
ROW 66 : ... .. . P80 ... ... : ... .. . P80 ... ... : C#3 00 . P7E ... ... : 2-# 00 7 ... ... ... : ... .. . ... ... ... : ... .. . P80 ... ... : ... .. . P81 ... ... : B-4 0B . ... ... ... : G#4 0B . ... ... ... : ... .. . ... ... ... : ... .. . ... ... ... : ... .. . ... ... ... : ... .. . ... ... ...
ROW 67 : ... .. . ... ... ... : ... .. . ... ... ... : A-2 00 . P86 ... ... : 1-# 00 4 ... ... ... : ... .. . ... ... ... : ... .. . ... ... ... : ... .. . ... ... ... : B-4 0D . ... ... ... : G#4 0D . ... ... ... : ... .. . ... ... ... : ... .. . ... ... ... : ... .. . ... ... ... : ... .. . ... ... ...
ROW 68 : ... .. . ... ... ... : ... .. . ... ... ... : F#2 00 . P87 ... ... : ... .. 2 ... ... ... : ... .. . ... ... ... : ... .. . ... ... ... : ... .. . P80 ... ... : B-4 0E . ... ... ... : G#4 0E . ... ... ... : ... .. . ... ... ... : ... .. . ... ... ... : ... .. . ... ... ... : ... .. . ... ... ...
ROW 69 : ... .. . ... ... ... : ... .. . ... ... ... : E-2 00 . P71 ... ... : ... .. 1 ... ... ... : ... .. . ... ... ... : ... .. . ... ... ... : ... .. . ... ... ... : ... .. A ... ... ... : ... .. 7 ... ... ... : ... .. . ... ... ... : ... .. . ... ... ... : ... .. . ... ... ... : ... .. . ... ... ...
ROW 6A : ... .. . ... ... ... : ... .. . ... ... ... : C#2 00 . P91 ... ... : --- .. . ... ... ... : ... .. . ... ... ... : ... .. . ... ... ... : ... .. . P81 ... ... : B-4 0F . ... ... ... : G#4 0F . ... ... ... : ... .. . ... ... ... : ... .. . ... ... ... : ... .. . ... ... ... : ... .. . ... ... ...
ROW 6B : ... .. . ... ... ... : ... .. . ... ... ... : --- .. . ... ... ... : ... .. . ... ... ... : ... .. . ... ... ... : ... .. . ... ... ... : ... .. . ... ... ... : ... .. . ... ... ... : ... .. . ... ... ... : ... .. . ... ... ... : ... .. . ... ... ... : ... .. . ... ... ... : ... .. . ... ... ...
ROW 6C : ... .. . ... ... ... : ... .. . ... ... ... : ... .. . ... ... ... : ... .. . ... ... ... : ... .. . ... ... ... : ... .. . ... ... ... : ... .. . P80 ... ... : ... .. . ... ... ... : ... .. . ... ... ... : ... .. . ... ... ... : ... .. . ... ... ... : ... .. . ... ... ... : ... .. . ... ... ...
ROW 6D : ... .. . ... ... ... : ... .. . ... ... ... : ... .. . ... ... ... : ... .. . ... ... ... : ... .. . ... ... ... : ... .. . ... ... ... : ... .. . P7F ... ... : B-4 10 9 ... ... ... : G#4 10 6 ... ... ... : ... .. . ... ... ... : ... .. . ... ... ... : ... .. . ... ... ... : ... .. . ... ... ...
ROW 6E : ... .. . ... ... ... : ... .. . ... ... ... : ... .. . ... ... ... : ... .. . ... ... ... : ... .. . ... ... ... : ... .. . ... ... ... : ... .. . P80 ... ... : ... .. . ... ... ... : ... .. . ... ... ... : ... .. . ... ... ... : ... .. . ... ... ... : ... .. . ... ... ... : ... .. . ... ... ...
ROW 6F : ... .. . ... ... ... : ... .. . ... ... ... : ... .. . ... ... ... : ... .. . ... ... ... : ... .. . ... ... ... : ... .. . ... ... ... : ... .. . P81 ... ... : ... .. . ... ... ... : ... .. . ... ... ... : ... .. . ... ... ... : ... .. . ... ... ... : ... .. . ... ... ... : ... .. . ... ... ...
ROW 70 : ... .. . ... ... ... : ... .. . ... ... ... : ... .. . ... ... ... : ... .. . ... ... ... : ... .. . ... ... ... : ... .. . ... ... ... : ... .. . P80 ... ... : ... .. . ... ... ... : ... .. . ... ... ... : ... .. . ... ... ... : ... .. . ... ... ... : ... .. . ... ... ... : ... .. . ... ... ...
ROW 71 : ... .. . ... ... ... : ... .. . ... ... ... : ... .. . ... ... ... : ... .. . ... ... ... : ... .. . ... ... ... : ... .. . ... ... ... : ... .. . P7F ... ... : G#4 0A B ... ... ... : E-4 0A 8 ... ... ... : ... .. . ... ... ... : ... .. . ... ... ... : ... .. . ... ... ... : ... .. . ... ... ...
ROW 72 : ... .. . ... ... ... : ... .. . ... ... ... : ... .. . ... ... ... : ... .. . ... ... ... : ... .. . ... ... ... : ... .. . ... ... ... : ... .. . P80 ... ... : G#4 0B . ... ... ... : E-4 0B . ... ... ... : ... .. . ... ... ... : ... .. . ... ... ... : ... .. . ... ... ... : ... .. . ... ... ...
ROW 73 : E-3 02 1 P7D ... ... : B-2 02 1 P7D ... ... : ... .. . ... ... ... : ... .. . ... ... ... : ... .. . ... ... ... : G#3 0C 1 ... ... ... : ... .. . P81 ... ... : G#4 0D . ... ... ... : E-4 0D . ... ... ... : ... .. . ... ... ... : ... .. . ... ... ... : ... .. . ... ... ... : ... .. . ... ... ...
ROW 74 : ... .. . P7E ... ... : ... .. . P7E ... ... : ... .. . ... ... ... : ... .. . ... ... ... : ... .. . ... ... ... : ... .. . P7F ... ... : ... .. . P80 ... ... : G#4 0E . ... ... ... : E-4 0E . ... ... ... : ... .. . ... ... ... : ... .. . ... ... ... : ... .. . ... ... ... : ... .. . ... ... ...
ROW 75 : ... .. . P80 ... ... : ... .. . P80 ... ... : ... .. . ... ... ... : ... .. . ... ... ... : ... .. . ... ... ... : ... .. . ... ... ... : ... .. . P7F ... ... : ... .. A ... ... ... : ... .. 7 ... ... ... : ... .. . ... ... ... : ... .. . ... ... ... : ... .. . ... ... ... : ... .. . ... ... ...
ROW 76 : ... .. 2 P82 ... ... : ... .. 2 P82 ... ... : ... .. . ... ... ... : ... .. . ... ... ... : ... .. . ... ... ... : ... .. 2 ... ... ... : ... .. . P80 ... ... : G#4 0F . ... ... ... : E-4 0F . ... ... ... : ... .. . ... ... ... : ... .. . ... ... ... : ... .. . ... ... ... : ... .. . ... ... ...
ROW 77 : ... .. . P83 ... ... : ... .. . P83 ... ... : ... .. . ... ... ... : ... .. . ... ... ... : ... .. . ... ... ... : ... .. . P80 ... ... : ... .. . P81 ... ... : ... .. . ... ... ... : ... .. . ... ... ... : ... .. . ... ... ... : ... .. . ... ... ... : ... .. . ... ... ... : ... .. . ... ... ...
ROW 78 : ... .. 3 P82 ... ... : ... .. 3 P82 ... ... : ... .. . ... ... ... : ... .. . ... ... ... : ... .. . ... ... ... : ... .. 3 P81 ... ... : ... .. . ... ... ... : ... .. . ... ... ... : ... .. . ... ... ... : ... .. . ... ... ... : ... .. . ... ... ... : ... .. . ... ... ... : ... .. . ... ... ...
ROW 79 : ... .. . P80 ... ... : ... .. . P80 ... ... : ... .. . ... ... ... : ... .. . ... ... ... : ... .. . ... ... ... : ... .. . P82 ... ... : ... .. . P80 ... ... : G#4 10 9 ... ... ... : E-4 10 6 ... ... ... : ... .. . ... ... ... : ... .. . ... ... ... : ... .. . ... ... ... : ... .. . ... ... ...
ROW 7A : ... .. . P7E ... ... : ... .. . P7E ... ... : ... .. . ... ... ... : ... .. . ... ... ... : ... .. . ... ... ... : ... .. . P81 ... ... : ... .. . P7F ... ... : ... .. . ... ... ... : ... .. . ... ... ... : ... .. . ... ... ... : ... .. . ... ... ... : ... .. . ... ... ... : ... .. . ... ... ...
ROW 7B : ... .. 4 P7D ... ... : ... .. 4 P7D ... ... : ... .. . ... ... ... : ... .. . ... ... ... : ... .. . ... ... ... : ... .. 4 P80 ... ... : ... .. . P80 ... ... : ... .. . ... ... ... : ... .. . ... ... ... : ... .. . ... ... ... : ... .. . ... ... ... : ... .. . ... ... ... : ... .. . ... ... ...
ROW 7C : ... .. . P7E ... ... : ... .. . P7E ... ... : ... .. . ... ... ... : ... .. . ... ... ... : ... .. . ... ... ... : ... .. . P7F ... ... : ... .. . P81 ... ... : ... .. . ... ... ... : ... .. . ... ... ... : ... .. . ... ... ... : ... .. . ... ... ... : ... .. . ... ... ... : ... .. . ... ... ...
ROW 7D : ... .. . P80 ... ... : ... .. . P80 ... ... : ... .. . ... ... ... : ... .. . ... ... ... : ... .. . ... ... ... : ... .. . ... ... ... : ... .. . P80 ... ... : G#4 11 8 ... ... ... : E-4 11 5 ... ... ... : ... .. . ... ... ... : ... .. . ... ... ... : ... .. . ... ... ... : ... .. . ... ... ...
ROW 7E : --- .. . ... ... ... : --- .. . ... ... ... : ... .. . ... ... ... : ... .. . ... ... ... : ... .. . ... ... ... : --- .. . ... ... ... : ... .. . P7F ... ... : F#4 0A B ... ... ... : E-4 0A 8 ... ... ... : ... .. . ... ... ... : ... .. . ... ... ... : ... .. . ... ... ... : ... .. . ... ... ...
ROW 7F : ... .. . ... ... ... : ... .. . ... ... ... : ... .. . ... ... ... : ... .. . ... ... ... : ... .. . ... ... ... : ... .. . P80 ... ... : ... .. . P80 ... ... : F#4 0B . ... ... ... : E-4 0B . ... ... ... : ... .. . ... ... ... : ... .. . ... ... ... : ... .. . ... ... ... : ... .. . ... ... ...
ROW 80 : ... .. . ... ... ... : ... .. . ... ... ... : ... .. . ... ... ... : ... .. . ... ... ... : ... .. . ... ... ... : ... .. . ... ... ... : ... .. . P81 ... ... : F#4 0D . ... ... ... : E-4 0D . ... ... ... : ... .. . ... ... ... : ... .. . ... ... ... : ... .. . ... ... ... : ... .. . ... ... ...
ROW 81 : ... .. . ... ... ... : ... .. . ... ... ... : ... .. . ... ... ... : ... .. . ... ... ... : ... .. . ... ... ... : ... .. . ... ... ... : ... .. . P80 ... ... : F#4 0E . ... ... ... : E-4 0E . ... ... ... : ... .. . ... ... ... : ... .. . ... ... ... : ... .. . ... ... ... : ... .. . ... ... ...
ROW 82 : ... .. . ... ... ... : ... .. . ... ... ... : ... .. . ... ... ... : ... .. . ... ... ... : ... .. . ... ... ... : ... .. . ... ... ... : ... .. . P7F ... ... : ... .. A ... ... ... : ... .. 7 ... ... ... : ... .. . ... ... ... : ... .. . ... ... ... : ... .. . ... ... ... : ... .. . ... ... ...
ROW 83 : ... .. . ... ... ... : ... .. . ... ... ... : ... .. . ... ... ... : ... .. . ... ... ... : ... .. . ... ... ... : ... .. . ... ... ... : ... .. . P80 ... ... : F#4 0F . ... ... ... : E-4 0F . ... ... ... : ... .. . ... ... ... : ... .. . ... ... ... : ... .. . ... ... ... : ... .. . ... ... ...
ROW 84 : ... .. . ... ... ... : ... .. . ... ... ... : ... .. . ... ... ... : ... .. . ... ... ... : ... .. . ... ... ... : ... .. . ... ... ... : ... .. . P81 ... ... : ... .. . ... ... ... : ... .. . ... ... ... : ... .. . ... ... ... : ... .. . ... ... ... : ... .. . ... ... ... : ... .. . ... ... ...
ROW 85 : ... .. . ... ... ... : ... .. . ... ... ... : ... .. . ... ... ... : ... .. . ... ... ... : ... .. . ... ... ... : ... .. . ... ... ... : ... .. . ... ... ... : ... .. . ... ... ... : ... .. . ... ... ... : ... .. . ... ... ... : ... .. . ... ... ... : ... .. . ... ... ... : ... .. . ... ... ...
ROW 86 : ... .. . ... ... ... : ... .. . ... ... ... : ... .. . ... ... ... : ... .. . ... ... ... : ... .. . ... ... ... : ... .. . ... ... ... : ... .. . P80 ... ... : F#4 10 9 ... ... ... : E-4 10 6 ... ... ... : ... .. . ... ... ... : ... .. . ... ... ... : ... .. . ... ... ... : ... .. . ... ... ...
ROW 87 : ... .. . ... ... ... : ... .. . ... ... ... : ... .. . ... ... ... : ... .. . ... ... ... : ... .. . ... ... ... : ... .. . ... ... ... : ... .. . ... ... ... : ... .. . ... ... ... : ... .. . ... ... ... : ... .. . ... ... ... : ... .. . ... ... ... : ... .. . ... ... ... : ... .. . ... ... ...
ROW 88 : ... .. . ... ... ... : ... .. . ... ... ... : ... .. . ... ... ... : ... .. . ... ... ... : ... .. . ... ... ... : ... .. . ... ... ... : ... .. . P81 ... ... : ... .. . ... ... ... : ... .. . ... ... ... : ... .. . ... ... ... : ... .. . ... ... ... : ... .. . ... ... ... : ... .. . ... ... ...
ROW 89 : ... .. . ... ... ... : ... .. . ... ... ... : ... .. . ... ... ... : ... .. . ... ... ... : ... .. . ... ... ... : ... .. . ... ... ... : ... .. . ... ... ... : ... .. . ... ... ... : ... .. . ... ... ... : ... .. . ... ... ... : ... .. . ... ... ... : ... .. . ... ... ... : ... .. . ... ... ...
ROW 8A : ... .. . ... ... ... : ... .. . ... ... ... : F#3 00 . P78 ... ... : 1-# 00 F ... ... ... : C-1 12 . ... ... ... : ... .. . ... ... ... : ... .. . P80 ... ... : G#4 0A B ... ... ... : E-4 0A 8 ... ... ... : ... .. . ... ... ... : ... .. . ... ... ... : ... .. . ... ... ... : ... .. . ... ... ...
ROW 8B : ... .. . ... ... ... : ... .. . ... ... ... : C#3 00 . P7E ... ... : 2-# 00 7 ... ... ... : ... .. . ... ... ... : ... .. . ... ... ... : ... .. . P7F ... ... : G#4 0B . ... ... ... : E-4 0B . ... ... ... : ... .. . ... ... ... : ... .. . ... ... ... : ... .. . ... ... ... : ... .. . ... ... ...
ROW 8C : E-3 02 1 P7E ... ... : B-2 02 1 P7E ... ... : A-2 00 . P86 ... ... : 1-# 00 4 ... ... ... : ... .. . ... ... ... : G#3 0C 1 P7F ... ... : ... .. . P80 ... ... : G#4 0D . ... ... ... : E-4 0D . ... ... ... : ... .. . ... ... ... : ... .. . ... ... ... : ... .. . ... ... ... : ... .. . ... ... ...
ROW 8D : ... .. . P80 ... ... : ... .. . P80 ... ... : F#2 00 . P87 ... ... : ... .. 2 ... ... ... : ... .. . ... ... ... : ... .. . ... ... ... : ... .. . P81 ... ... : G#4 0E . ... ... ... : E-4 0E . ... ... ... : ... .. . ... ... ... : ... .. . ... ... ... : ... .. . ... ... ... : ... .. . ... ... ...
ROW 8E : ... .. . P82 ... ... : ... .. . P82 ... ... : E-2 00 . P71 ... ... : ... .. 1 ... ... ... : ... .. . ... ... ... : ... .. . ... ... ... : ... .. . P80 ... ... : ... .. A ... ... ... : ... .. 7 ... ... ... : ... .. . ... ... ... : ... .. . ... ... ... : ... .. . ... ... ... : ... .. . ... ... ...
ROW 8F : ... .. 2 P83 ... ... : ... .. 2 P83 ... ... : C#2 00 . P91 ... ... : --- .. . ... ... ... : ... .. . ... ... ... : ... .. 2 P80 ... ... : ... .. . P7F ... ... : G#4 0F . ... ... ... : E-4 0F . ... ... ... : ... .. . ... ... ... : ... .. . ... ... ... : ... .. . ... ... ... : ... .. . ... ... ...
ROW 90 : ... .. . P82 ... ... : ... .. . P82 ... ... : --- .. . ... ... ... : ... .. . ... ... ... : ... .. . ... ... ... : ... .. . P81 ... ... : ... .. . P80 ... ... : ... .. . ... ... ... : ... .. . ... ... ... : ... .. . ... ... ... : ... .. . ... ... ... : ... .. . ... ... ... : ... .. . ... ... ...
ROW 91 : ... .. 3 P80 ... ... : ... .. 3 P80 ... ... : ... .. . ... ... ... : ... .. . ... ... ... : ... .. . ... ... ... : ... .. 3 P82 ... ... : ... .. . P81 ... ... : ... .. . ... ... ... : ... .. . ... ... ... : ... .. . ... ... ... : ... .. . ... ... ... : ... .. . ... ... ... : ... .. . ... ... ...
ROW 92 : ... .. . P7E ... ... : ... .. . P7E ... ... : ... .. . ... ... ... : ... .. . ... ... ... : ... .. . ... ... ... : ... .. . P81 ... ... : ... .. . P80 ... ... : G#4 10 9 ... ... ... : E-4 10 6 ... ... ... : ... .. . ... ... ... : ... .. . ... ... ... : ... .. . ... ... ... : ... .. . ... ... ...
ROW 93 : ... .. . P7D ... ... : ... .. . P7D ... ... : ... .. . ... ... ... : ... .. . ... ... ... : ... .. . ... ... ... : ... .. . P80 ... ... : ... .. . P7F ... ... : ... .. . ... ... ... : ... .. . ... ... ... : ... .. . ... ... ... : ... .. . ... ... ... : ... .. . ... ... ... : ... .. . ... ... ...
ROW 94 : ... .. 4 P7E ... ... : ... .. 4 P7E ... ... : ... .. . ... ... ... : ... .. . ... ... ... : ... .. . ... ... ... : ... .. 4 P7F ... ... : ... .. . P80 ... ... : ... .. . ... ... ... : ... .. . ... ... ... : ... .. . ... ... ... : ... .. . ... ... ... : ... .. . ... ... ... : ... .. . ... ... ...
ROW 95 : ... .. . P80 ... ... : ... .. . P80 ... ... : ... .. . ... ... ... : ... .. . ... ... ... : ... .. . ... ... ... : ... .. . ... ... ... : ... .. . P81 ... ... : ... .. . ... ... ... : ... .. . ... ... ... : ... .. . ... ... ... : ... .. . ... ... ... : ... .. . ... ... ... : ... .. . ... ... ...
ROW 96 : ... .. . P82 ... ... : ... .. . P82 ... ... : ... .. . ... ... ... : ... .. . ... ... ... : ... .. . ... ... ... : ... .. . ... ... ... : ... .. . ... ... ... : G#4 11 8 ... ... ... : E-4 11 5 ... ... ... : ... .. . ... ... ... : ... .. . ... ... ... : ... .. . ... ... ... : ... .. . ... ... ...
ROW 97 : --- .. . ... ... ... : --- .. . ... ... ... : C#4 00 . P7F ... ... : 9-# 00 F ... ... ... : C#1 12 . ... ... ... : --- .. . ... ... ... : ... .. . P80 ... ... : ... .. . ... ... ... : ... .. . ... ... ... : ... .. . ... ... ... : ... .. . ... ... ... : ... .. . ... ... ... : ... .. . ... ... ...
ROW 98 : ... .. . P80 ... ... : ... .. . P80 ... ... : F#3 00 . P83 ... ... : 2-# 00 7 ... ... ... : ... .. . ... ... ... : ... .. . P80 ... ... : ... .. . ... ... ... : ... .. . ... ... ... : ... .. . ... ... ... : ... .. . ... ... ... : ... .. . ... ... ... : ... .. . ... ... ... : ... .. . ... ... ...
ROW 99 : ... .. . ... ... ... : ... .. . ... ... ... : C#3 00 . P89 ... ... : 6-# 00 C ... ... ... : ... .. . ... ... ... : ... .. . ... ... ... : ... .. . P81 ... ... : ... .. . ... ... ... : ... .. . ... ... ... : ... .. . ... ... ... : ... .. . ... ... ... : ... .. . ... ... ... : ... .. . ... ... ...
ROW 9A : ... .. . ... ... ... : ... .. . ... ... ... : A#2 00 . P75 ... ... : 7-# 00 8 ... ... ... : ... .. . ... ... ... : ... .. . ... ... ... : ... .. . ... ... ... : ... .. 7 ... ... ... : ... .. 4 ... ... ... : ... .. . ... ... ... : ... .. . ... ... ... : ... .. . ... ... ... : ... .. . ... ... ...
ROW 9B : ... .. . ... ... ... : ... .. . ... ... ... : G-2 00 . P70 ... ... : 8-# 00 7 ... ... ... : ... .. . ... ... ... : ... .. . ... ... ... : ... .. . P80 ... ... : ... .. . ... ... ... : ... .. . ... ... ... : ... .. . ... ... ... : ... .. . ... ... ... : ... .. . ... ... ... : ... .. . ... ... ...
ROW 9C : ... .. . ... ... ... : ... .. . ... ... ... : E-2 00 . P7C ... ... : ... .. 6 ... ... ... : ... .. . ... ... ... : ... .. . ... ... ... : ... .. . P7F ... ... : ... .. . ... ... ... : ... .. . ... ... ... : ... .. . ... ... ... : ... .. . ... ... ... : ... .. . ... ... ... : ... .. . ... ... ...
ROW 9D : ... .. . ... ... ... : ... .. . ... ... ... : D-2 00 . P6F ... ... : ... .. . ... ... ... : ... .. . ... ... ... : ... .. . ... ... ... : ... .. . P80 ... ... : ... .. . ... ... ... : ... .. . ... ... ... : ... .. . ... ... ... : ... .. . ... ... ... : ... .. . ... ... ... : ... .. . ... ... ...
ROW 9E : ... .. . ... ... ... : ... .. . ... ... ... : C-2 00 . P6C ... ... : ... .. 5 ... ... ... : ... .. . ... ... ... : ... .. . ... ... ... : ... .. . P81 ... ... : ... .. 6 ... ... ... : ... .. 3 ... ... ... : ... .. . ... ... ... : ... .. . ... ... ... : ... .. . ... ... ... : ... .. . ... ... ...
ROW 9F : ... .. . ... ... ... : ... .. . ... ... ... : A#1 00 . P75 ... ... : ... .. . ... ... ... : ... .. . ... ... ... : ... .. . ... ... ... : ... .. . P80 ... ... : ... .. . ... ... ... : ... .. . ... ... ... : ... .. . ... ... ... : ... .. . ... ... ... : ... .. . ... ... ... : ... .. . ... ... ...
ROW A0 : ... .. . ... ... ... : ... .. . ... ... ... : G#1 00 . P8A ... ... : ... .. 4 ... ... ... : ... .. . ... ... ... : ... .. . ... ... ... : ... .. . P7F ... ... : ... .. . ... ... ... : ... .. . ... ... ... : ... .. . ... ... ... : ... .. . ... ... ... : ... .. . ... ... ... : ... .. . ... ... ...
ROW A1 : ... .. . ... ... ... : ... .. . ... ... ... : G-1 00 . P6A ... ... : ... .. . ... ... ... : ... .. . ... ... ... : ... .. . ... ... ... : ... .. . P80 ... ... : ... .. . ... ... ... : ... .. . ... ... ... : ... .. . ... ... ... : ... .. . ... ... ... : ... .. . ... ... ... : ... .. . ... ... ...
ROW A2 : ... .. . ... ... ... : ... .. . ... ... ... : F-1 00 . P96 ... ... : ... .. 3 ... ... ... : ... .. . ... ... ... : ... .. . ... ... ... : ... .. . P81 ... ... : ... .. 5 ... ... ... : ... .. 2 ... ... ... : ... .. . ... ... ... : ... .. . ... ... ... : ... .. . ... ... ... : ... .. . ... ... ...
ROW A3 : ... .. . ... ... ... : ... .. . ... ... ... : --- .. . ... ... ... : ... .. . ... ... ... : ... .. . ... ... ... : ... .. . ... ... ... : ... .. . P80 ... ... : ... .. . ... ... ... : ... .. . ... ... ... : ... .. . ... ... ... : ... .. . ... ... ... : ... .. . ... ... ... : ... .. . ... ... ...
ROW A4 : ... .. . ... ... ... : ... .. . ... ... ... : ... .. . ... ... ... : ... .. . ... ... ... : ... .. . ... ... ... : ... .. . ... ... ... : ... .. . P7F ... ... : ... .. . ... ... ... : ... .. . ... ... ... : ... .. . ... ... ... : ... .. . ... ... ... : ... .. . ... ... ... : ... .. . ... ... ...
ROW A5 : E-3 02 1 ... ... ... : B-2 02 1 ... ... ... : ... .. . ... ... ... : ... .. . ... ... ... : ... .. . ... ... ... : G#3 0C 1 P7F ... ... : ... .. . P80 ... ... : ... .. . ... ... ... : ... .. . ... ... ... : ... .. . ... ... ... : ... .. . ... ... ... : ... .. . ... ... ... : ... .. . ... ... ...
ROW A6 : ... .. . P82 ... ... : ... .. . P82 ... ... : ... .. . ... ... ... : ... .. 2 ... ... ... : ... .. . ... ... ... : ... .. . ... ... ... : ... .. . P81 ... ... : ... .. 4 ... ... ... : ... .. 1 ... ... ... : ... .. . ... ... ... : ... .. . ... ... ... : ... .. . ... ... ... : ... .. . ... ... ...
ROW A7 : ... .. . P83 ... ... : ... .. . P83 ... ... : ... .. . ... ... ... : ... .. . ... ... ... : ... .. . ... ... ... : ... .. . P80 ... ... : ... .. . ... ... ... : ... .. . ... ... ... : ... .. . ... ... ... : ... .. . ... ... ... : ... .. . ... ... ... : ... .. . ... ... ... : ... .. . ... ... ...
ROW A8 : ... .. 2 P82 ... ... : ... .. 2 P82 ... ... : ... .. . ... ... ... : ... .. . ... ... ... : ... .. . ... ... ... : ... .. 2 P81 ... ... : ... .. . P80 ... ... : ... .. . ... ... ... : ... .. . ... ... ... : ... .. . ... ... ... : ... .. . ... ... ... : ... .. . ... ... ... : ... .. . ... ... ...
ROW A9 : ... .. . P80 ... ... : ... .. . P80 ... ... : ... .. . ... ... ... : ... .. . ... ... ... : ... .. . ... ... ... : ... .. . P82 ... ... : ... .. . ... ... ... : ... .. . ... ... ... : ... .. . ... ... ... : ... .. . ... ... ... : ... .. . ... ... ... : ... .. . ... ... ... : ... .. . ... ... ...
ROW AA : ... .. 3 P7E ... ... : ... .. 3 P7E ... ... : ... .. . ... ... ... : ... .. 1 ... ... ... : ... .. . ... ... ... : ... .. 3 P81 ... ... : ... .. . P81 ... ... : ... .. 3 ... ... ... : --- .. . ... ... ... : ... .. . ... ... ... : ... .. . ... ... ... : ... .. . ... ... ... : ... .. . ... ... ...
ROW AB : ... .. . P7D ... ... : ... .. . P7D ... ... : ... .. . ... ... ... : ... .. . ... ... ... : ... .. . ... ... ... : ... .. . P80 ... ... : ... .. . ... ... ... : ... .. . ... ... ... : ... .. . ... ... ... : ... .. . ... ... ... : ... .. . ... ... ... : ... .. . ... ... ... : ... .. . ... ... ...
ROW AC : ... .. . P7E ... ... : ... .. . P7E ... ... : ... .. . ... ... ... : ... .. . ... ... ... : ... .. . ... ... ... : ... .. . P7F ... ... : ... .. . P80 ... ... : ... .. . ... ... ... : ... .. . ... ... ... : ... .. . ... ... ... : ... .. . ... ... ... : ... .. . ... ... ... : ... .. . ... ... ...
ROW AD : ... .. 4 P80 ... ... : ... .. 4 P80 ... ... : ... .. . ... ... ... : ... .. . ... ... ... : ... .. . ... ... ... : ... .. 4 ... ... ... : ... .. . P7F ... ... : ... .. . ... ... ... : ... .. . ... ... ... : ... .. . ... ... ... : ... .. . ... ... ... : ... .. . ... ... ... : ... .. . ... ... ...
ROW AE : ... .. . P82 ... ... : ... .. . P82 ... ... : ... .. . ... ... ... : ... .. . ... ... ... : ... .. . ... ... ... : ... .. . ... ... ... : ... .. . P80 ... ... : ... .. 2 ... ... ... : ... .. . ... ... ... : ... .. . ... ... ... : ... .. . ... ... ... : ... .. . ... ... ... : ... .. . ... ... ...
ROW AF : ... .. . P83 ... ... : ... .. . P83 ... ... : ... .. . ... ... ... : --- .. . ... ... ... : ... .. . ... ... ... : ... .. . P80 ... ... : ... .. . P81 ... ... : ... .. . ... ... ... : ... .. . ... ... ... : ... .. . ... ... ... : ... .. . ... ... ... : ... .. . ... ... ... : ... .. . ... ... ...
ROW B0 : --- .. . ... ... ... : --- .. . ... ... ... : F#3 00 . P78 ... ... : 1-# 00 F ... ... ... : C-1 12 . ... ... ... : --- .. . ... ... ... : ... .. . P80 ... ... : G#4 0A . ... ... ... : C-4 0A 8 ... ... ... : ... .. . ... ... ... : ... .. . ... ... ... : ... .. . ... ... ... : ... .. . ... ... ...
ROW B1 : ... .. . P80 ... ... : ... .. . P80 ... ... : C#3 00 . P7E ... ... : 2-# 00 7 ... ... ... : ... .. . ... ... ... : ... .. . ... ... ... : ... .. . P7F ... ... : G#4 0B . ... ... ... : C-4 0B . ... ... ... : ... .. . ... ... ... : ... .. . ... ... ... : ... .. . ... ... ... : ... .. . ... ... ...
ROW B2 : ... .. . ... ... ... : ... .. . ... ... ... : A-2 00 . P86 ... ... : 1-# 00 4 ... ... ... : ... .. . ... ... ... : ... .. . ... ... ... : ... .. . P80 ... ... : G#4 0D 1 ... ... ... : C-4 0D . ... ... ... : ... .. . ... ... ... : ... .. . ... ... ... : ... .. . ... ... ... : ... .. . ... ... ...
ROW B3 : ... .. . ... ... ... : ... .. . ... ... ... : F#2 00 . P87 ... ... : ... .. 2 ... ... ... : ... .. . ... ... ... : ... .. . ... ... ... : ... .. . P81 ... ... : G#4 0E . ... ... ... : C-4 0E . ... ... ... : ... .. . ... ... ... : ... .. . ... ... ... : ... .. . ... ... ... : ... .. . ... ... ...
ROW B4 : ... .. . ... ... ... : ... .. . ... ... ... : E-2 00 . P71 ... ... : ... .. 1 ... ... ... : ... .. . ... ... ... : ... .. . ... ... ... : ... .. . P80 ... ... : ... .. . ... ... ... : ... .. . ... ... ... : ... .. . ... ... ... : ... .. . ... ... ... : ... .. . ... ... ... : ... .. . ... ... ...
ROW B5 : ... .. . ... ... ... : ... .. . ... ... ... : C#2 00 . P91 ... ... : --- .. . ... ... ... : ... .. . ... ... ... : ... .. . ... ... ... : ... .. . P7F ... ... : G#4 0F . ... ... ... : C-4 0F . ... ... ... : ... .. . ... ... ... : ... .. . ... ... ... : ... .. . ... ... ... : ... .. . ... ... ...
ROW B6 : ... .. . ... ... ... : ... .. . ... ... ... : --- .. . ... ... ... : ... .. . ... ... ... : ... .. . ... ... ... : ... .. . ... ... ... : ... .. . P80 ... ... : --- .. . ... ... ... : ... .. . ... ... ... : ... .. . ... ... ... : ... .. . ... ... ... : ... .. . ... ... ... : ... .. . ... ... ...
ROW B7 : ... .. . ... ... ... : ... .. . ... ... ... : ... .. . ... ... ... : ... .. . ... ... ... : ... .. . ... ... ... : ... .. . ... ... ... : ... .. . P81 ... ... : ... .. . ... ... ... : ... .. . ... ... ... : ... .. . ... ... ... : ... .. . ... ... ... : ... .. . ... ... ... : ... .. . ... ... ...
ROW B8 : ... .. . ... ... ... : ... .. . ... ... ... : ... .. . ... ... ... : ... .. . ... ... ... : ... .. . ... ... ... : ... .. . ... ... ... : ... .. . ... ... ... : ... .. . ... ... ... : C-4 10 7 ... ... ... : ... .. . ... ... ... : ... .. . ... ... ... : ... .. . ... ... ... : ... .. . ... ... ...
ROW B9 : ... .. . ... ... ... : ... .. . ... ... ... : ... .. . ... ... ... : ... .. . ... ... ... : ... .. . ... ... ... : ... .. . ... ... ... : ... .. . P80 ... ... : ... .. . ... ... ... : ... .. . ... ... ... : ... .. . ... ... ... : ... .. . ... ... ... : ... .. . ... ... ... : ... .. . ... ... ...
ROW BA : ... .. . ... ... ... : ... .. . ... ... ... : ... .. . ... ... ... : ... .. . ... ... ... : ... .. . ... ... ... : ... .. . ... ... ... : ... .. . P7F ... ... : ... .. . ... ... ... : ... .. . ... ... ... : ... .. . ... ... ... : ... .. . ... ... ... : ... .. . ... ... ... : ... .. . ... ... ...
ROW BB : ... .. . ... ... ... : ... .. . ... ... ... : ... .. . ... ... ... : ... .. . ... ... ... : ... .. . ... ... ... : ... .. . ... ... ... : ... .. . P80 ... ... : ... .. . ... ... ... : ... .. . ... ... ... : ... .. . ... ... ... : ... .. . ... ... ... : ... .. . ... ... ... : ... .. . ... ... ...
ROW BC : ... .. . ... ... ... : ... .. . ... ... ... : ... .. . ... ... ... : ... .. . ... ... ... : ... .. . ... ... ... : ... .. . ... ... ... : ... .. . P81 ... ... : ... .. . ... ... ... : C-4 11 . ... ... ... : ... .. . ... ... ... : ... .. . ... ... ... : ... .. . ... ... ... : ... .. . ... ... ...
ROW BD : ... .. . ... ... ... : ... .. . ... ... ... : ... .. . ... ... ... : ... .. . ... ... ... : ... .. . ... ... ... : ... .. . ... ... ... : ... .. . P80 ... ... : ... .. . ... ... ... : ... .. . ... ... ... : ... .. . ... ... ... : ... .. . ... ... ... : ... .. . ... ... ... : ... .. . ... ... ...
ROW BE : E-3 02 1 P82 ... ... : B-2 02 1 P82 ... ... : ... .. . ... ... ... : ... .. . ... ... ... : ... .. . ... ... ... : G#3 0C 1 P7F ... ... : ... .. . P7F ... ... : ... .. . ... ... ... : ... .. . ... ... ... : ... .. . ... ... ... : ... .. . ... ... ... : ... .. . ... ... ... : ... .. . ... ... ...
ROW BF : ... .. . P83 ... ... : ... .. . P83 ... ... : ... .. . ... ... ... : ... .. . ... ... ... : ... .. . ... ... ... : ... .. . P80 ... ... : ... .. . P80 ... ... : ... .. . ... ... ... : ... .. . ... ... ... : ... .. . ... ... ... : ... .. . ... ... ... : ... .. . ... ... ... : ... .. . ... ... ...
ROW C0 : ... .. . P82 ... ... : ... .. . P82 ... ... : ... .. . ... ... ... : ... .. . ... ... ... : ... .. . ... ... ... : ... .. . P81 ... ... : ... .. . P81 ... ... : ... .. . ... ... ... : ... .. 6 ... ... ... : ... .. . ... ... ... : ... .. . ... ... ... : ... .. . ... ... ... : ... .. . ... ... ...
ROW C1 : ... .. 2 P80 ... ... : ... .. 2 P80 ... ... : ... .. . ... ... ... : ... .. . ... ... ... : ... .. . ... ... ... : ... .. 2 P82 ... ... : ... .. . P80 ... ... : ... .. . ... ... ... : ... .. . ... ... ... : ... .. . ... ... ... : ... .. . ... ... ... : ... .. . ... ... ... : ... .. . ... ... ...
ROW C2 : ... .. . P7E ... ... : ... .. . P7E ... ... : ... .. . ... ... ... : ... .. . ... ... ... : ... .. . ... ... ... : ... .. . P81 ... ... : ... .. . P7F ... ... : ... .. . ... ... ... : ... .. . ... ... ... : ... .. . ... ... ... : ... .. . ... ... ... : ... .. . ... ... ... : ... .. . ... ... ...
ROW C3 : ... .. 3 P7D ... ... : ... .. 3 P7D ... ... : ... .. . ... ... ... : ... .. . ... ... ... : ... .. . ... ... ... : ... .. 3 P80 ... ... : ... .. . P80 ... ... : ... .. . ... ... ... : ... .. . ... ... ... : ... .. . ... ... ... : ... .. . ... ... ... : ... .. . ... ... ... : ... .. . ... ... ...
ROW C4 : ... .. . P7E ... ... : ... .. . P7E ... ... : ... .. . ... ... ... : ... .. . ... ... ... : ... .. . ... ... ... : ... .. . P7F ... ... : ... .. . P81 ... ... : ... .. . ... ... ... : ... .. . ... ... ... : ... .. . ... ... ... : ... .. . ... ... ... : ... .. . ... ... ... : ... .. . ... ... ...
ROW C5 : ... .. . P80 ... ... : ... .. . P80 ... ... : ... .. . ... ... ... : ... .. . ... ... ... : ... .. . ... ... ... : ... .. . ... ... ... : ... .. . ... ... ... : ... .. . ... ... ... : ... .. . ... ... ... : ... .. . ... ... ... : ... .. . ... ... ... : ... .. . ... ... ... : ... .. . ... ... ...
ROW C6 : ... .. 4 P82 ... ... : ... .. 4 P82 ... ... : ... .. . ... ... ... : ... .. . ... ... ... : ... .. . ... ... ... : ... .. 4 ... ... ... : ... .. . P80 ... ... : ... .. . ... ... ... : ... .. . ... ... ... : ... .. . ... ... ... : ... .. . ... ... ... : ... .. . ... ... ... : ... .. . ... ... ...
ROW C7 : ... .. . P83 ... ... : ... .. . P83 ... ... : ... .. . ... ... ... : ... .. . ... ... ... : ... .. . ... ... ... : ... .. . P80 ... ... : ... .. . ... ... ... : ... .. . ... ... ... : ... .. . ... ... ... : ... .. . ... ... ... : ... .. . ... ... ... : ... .. . ... ... ... : ... .. . ... ... ...
ROW C8 : ... .. . P82 ... ... : ... .. . P82 ... ... : ... .. . ... ... ... : ... .. . ... ... ... : ... .. . ... ... ... : ... .. . P81 ... ... : ... .. . P81 ... ... : ... .. . ... ... ... : ... .. 5 ... ... ... : ... .. . ... ... ... : ... .. . ... ... ... : ... .. . ... ... ... : ... .. . ... ... ...
ROW C9 : --- .. . ... ... ... : --- .. . ... ... ... : F#3 00 . P78 ... ... : 1-# 00 F ... ... ... : C-1 12 . ... ... ... : --- .. . ... ... ... : F#2 03 . ... ... ... : ... .. . ... ... ... : C#4 0A 8 ... ... ... : ... .. . ... ... ... : ... .. . ... ... ... : ... .. . ... ... ... : ... .. . ... ... ...
ROW CA : ... .. . P80 ... ... : ... .. . P80 ... ... : C#3 00 . P7E ... ... : 2-# 00 7 ... ... ... : ... .. . ... ... ... : ... .. . P80 ... ... : ... .. . P80 ... ... : ... .. . ... ... ... : C#4 0B . ... ... ... : ... .. . ... ... ... : ... .. . ... ... ... : ... .. . ... ... ... : ... .. . ... ... ...
ROW CB : ... .. . ... ... ... : ... .. . ... ... ... : A-2 00 . P86 ... ... : 1-# 00 4 ... ... ... : ... .. . ... ... ... : ... .. . ... ... ... : ... .. . P7F ... ... : ... .. . ... ... ... : C#4 0D . ... ... ... : ... .. . ... ... ... : ... .. . ... ... ... : ... .. . ... ... ... : ... .. . ... ... ...
ROW CC : ... .. . ... ... ... : ... .. . ... ... ... : F#2 00 . P87 ... ... : ... .. 2 ... ... ... : ... .. . ... ... ... : ... .. . ... ... ... : ... .. . P80 ... ... : ... .. . ... ... ... : C#4 0E . ... ... ... : ... .. . ... ... ... : ... .. . ... ... ... : ... .. . ... ... ... : ... .. . ... ... ...
ROW CD : ... .. . ... ... ... : ... .. . ... ... ... : E-2 00 . P71 ... ... : ... .. 1 ... ... ... : ... .. . ... ... ... : ... .. . ... ... ... : ... .. . P81 ... ... : ... .. . ... ... ... : ... .. . ... ... ... : ... .. . ... ... ... : ... .. . ... ... ... : ... .. . ... ... ... : ... .. . ... ... ...
ROW CE : ... .. . ... ... ... : ... .. . ... ... ... : C#2 00 . P91 ... ... : --- .. . ... ... ... : ... .. . ... ... ... : ... .. . ... ... ... : ... .. . P80 ... ... : ... .. . ... ... ... : C#4 0F . ... ... ... : ... .. . ... ... ... : ... .. . ... ... ... : ... .. . ... ... ... : ... .. . ... ... ...
ROW CF : ... .. . ... ... ... : ... .. . ... ... ... : --- .. . ... ... ... : ... .. . ... ... ... : ... .. . ... ... ... : ... .. . ... ... ... : ... .. . P7F ... ... : ... .. . ... ... ... : ... .. . ... ... ... : ... .. . ... ... ... : ... .. . ... ... ... : ... .. . ... ... ... : ... .. . ... ... ...
ROW D0 : ... .. . ... ... ... : ... .. . ... ... ... : ... .. . ... ... ... : ... .. . ... ... ... : ... .. . ... ... ... : ... .. . ... ... ... : ... .. . P80 ... ... : ... .. . ... ... ... : ... .. . ... ... ... : ... .. . ... ... ... : ... .. . ... ... ... : ... .. . ... ... ... : ... .. . ... ... ...
ROW D1 : ... .. . ... ... ... : ... .. . ... ... ... : ... .. . ... ... ... : ... .. . ... ... ... : ... .. . ... ... ... : ... .. . ... ... ... : ... .. . P81 ... ... : ... .. . ... ... ... : C#4 10 7 ... ... ... : ... .. . ... ... ... : ... .. . ... ... ... : ... .. . ... ... ... : ... .. . ... ... ...
ROW D2 : ... .. . ... ... ... : ... .. . ... ... ... : ... .. . ... ... ... : ... .. . ... ... ... : ... .. . ... ... ... : ... .. . ... ... ... : ... .. . P80 ... ... : ... .. . ... ... ... : ... .. . ... ... ... : ... .. . ... ... ... : ... .. . ... ... ... : ... .. . ... ... ... : ... .. . ... ... ...
ROW D3 : ... .. . ... ... ... : ... .. . ... ... ... : ... .. . ... ... ... : ... .. . ... ... ... : ... .. . ... ... ... : ... .. . ... ... ... : ... .. . P7F ... ... : ... .. . ... ... ... : ... .. . ... ... ... : ... .. . ... ... ... : ... .. . ... ... ... : ... .. . ... ... ... : ... .. . ... ... ...
ROW D4 : ... .. . ... ... ... : ... .. . ... ... ... : ... .. . ... ... ... : ... .. . ... ... ... : ... .. . ... ... ... : ... .. . ... ... ... : ... .. . P80 ... ... : ... .. . ... ... ... : ... .. . ... ... ... : ... .. . ... ... ... : ... .. . ... ... ... : ... .. . ... ... ... : ... .. . ... ... ...
ROW D5 : ... .. . ... ... ... : ... .. . ... ... ... : ... .. . ... ... ... : ... .. . ... ... ... : ... .. . ... ... ... : ... .. . ... ... ... : ... .. . P81 ... ... : G#4 11 B ... ... ... : C#4 11 . ... ... ... : ... .. . ... ... ... : ... .. . ... ... ... : ... .. . ... ... ... : ... .. . ... ... ...
ROW D6 : ... .. . ... ... ... : ... .. . ... ... ... : ... .. . ... ... ... : ... .. . ... ... ... : ... .. . ... ... ... : ... .. . ... ... ... : ... .. . ... ... ... : ... .. . ... ... ... : ... .. . ... ... ... : ... .. . ... ... ... : ... .. . ... ... ... : ... .. . ... ... ... : ... .. . ... ... ...
ROW D7 : F#3 02 1 P83 ... ... : C#3 02 1 P83 ... ... : ... .. . ... ... ... : ... .. . ... ... ... : ... .. . ... ... ... : A#3 0C 1 ... ... ... : ... .. . P80 ... ... : ... .. . ... ... ... : ... .. . ... ... ... : ... .. . ... ... ... : ... .. . ... ... ... : ... .. . ... ... ... : ... .. . ... ... ...
ROW D8 : ... .. . P82 ... ... : ... .. . P82 ... ... : ... .. . ... ... ... : ... .. . ... ... ... : ... .. . ... ... ... : ... .. . P81 ... ... : ... .. . ... ... ... : ... .. . ... ... ... : ... .. . ... ... ... : ... .. . ... ... ... : ... .. . ... ... ... : ... .. . ... ... ... : ... .. . ... ... ...
ROW D9 : ... .. . P80 ... ... : ... .. . P80 ... ... : ... .. . ... ... ... : ... .. . ... ... ... : ... .. . ... ... ... : ... .. . P82 ... ... : ... .. . P81 ... ... : G#4 0E A ... ... ... : C#4 0E 6 ... ... ... : ... .. . ... ... ... : ... .. . ... ... ... : ... .. . ... ... ... : ... .. . ... ... ...
ROW DA : ... .. 2 P7E ... ... : ... .. 2 P7E ... ... : ... .. . ... ... ... : ... .. . ... ... ... : ... .. . ... ... ... : ... .. 2 P81 ... ... : ... .. . ... ... ... : G#4 0F . ... ... ... : C#4 0F . ... ... ... : ... .. . ... ... ... : ... .. . ... ... ... : ... .. . ... ... ... : ... .. . ... ... ...
ROW DB : ... .. . P7D ... ... : ... .. . P7D ... ... : ... .. . ... ... ... : ... .. . ... ... ... : ... .. . ... ... ... : ... .. . P80 ... ... : ... .. . P80 ... ... : ... .. . ... ... ... : ... .. . ... ... ... : ... .. . ... ... ... : ... .. . ... ... ... : ... .. . ... ... ... : ... .. . ... ... ...
ROW DC : ... .. 3 P7E ... ... : ... .. 3 P7E ... ... : ... .. . ... ... ... : ... .. . ... ... ... : ... .. . ... ... ... : ... .. 3 P7F ... ... : ... .. . P7F ... ... : ... .. . ... ... ... : ... .. . ... ... ... : ... .. . ... ... ... : ... .. . ... ... ... : ... .. . ... ... ... : ... .. . ... ... ...
ROW DD : ... .. . P80 ... ... : ... .. . P80 ... ... : ... .. . ... ... ... : ... .. . ... ... ... : ... .. . ... ... ... : ... .. . ... ... ... : ... .. . P80 ... ... : G#4 10 9 ... ... ... : C#4 10 . ... ... ... : ... .. . ... ... ... : ... .. . ... ... ... : ... .. . ... ... ... : ... .. . ... ... ...
ROW DE : ... .. . P82 ... ... : ... .. . P82 ... ... : ... .. . ... ... ... : ... .. . ... ... ... : ... .. . ... ... ... : ... .. . ... ... ... : ... .. . P81 ... ... : ... .. . ... ... ... : ... .. . ... ... ... : ... .. . ... ... ... : ... .. . ... ... ... : ... .. . ... ... ... : ... .. . ... ... ...
ROW DF : ... .. 4 P83 ... ... : ... .. 4 P83 ... ... : ... .. . ... ... ... : ... .. . ... ... ... : ... .. . ... ... ... : ... .. 4 P80 ... ... : ... .. . P80 ... ... : ... .. . ... ... ... : ... .. . ... ... ... : ... .. . ... ... ... : ... .. . ... ... ... : ... .. . ... ... ... : ... .. . ... ... ...
ROW E0 : ... .. . P82 ... ... : ... .. . P82 ... ... : ... .. . ... ... ... : ... .. . ... ... ... : ... .. . ... ... ... : ... .. . P81 ... ... : ... .. . P7F ... ... : ... .. . ... ... ... : ... .. . ... ... ... : ... .. . ... ... ... : ... .. . ... ... ... : ... .. . ... ... ... : ... .. . ... ... ...
ROW E1 : ... .. . P80 ... ... : ... .. . P80 ... ... : ... .. . ... ... ... : ... .. . ... ... ... : ... .. . ... ... ... : ... .. . P82 ... ... : ... .. . P80 ... ... : G#4 11 8 ... ... ... : C#4 11 5 ... ... ... : ... .. . ... ... ... : ... .. . ... ... ... : ... .. . ... ... ... : ... .. . ... ... ...
ROW E2 : --- .. . ... ... ... : --- .. . ... ... ... : ... .. . ... ... ... : ... .. . ... ... ... : ... .. . ... ... ... : --- .. . ... ... ... : ... .. . P81 ... ... : F#4 0A B ... ... ... : C#4 0A . ... ... ... : ... .. . ... ... ... : ... .. . ... ... ... : ... .. . ... ... ... : ... .. . ... ... ...
ROW E3 : ... .. . ... ... ... : ... .. . ... ... ... : ... .. . ... ... ... : ... .. . ... ... ... : ... .. . ... ... ... : ... .. . P80 ... ... : ... .. . P80 ... ... : F#4 0B . ... ... ... : C#4 0B . ... ... ... : ... .. . ... ... ... : ... .. . ... ... ... : ... .. . ... ... ... : ... .. . ... ... ...
ROW E4 : ... .. . ... ... ... : ... .. . ... ... ... : ... .. . ... ... ... : ... .. . ... ... ... : ... .. . ... ... ... : ... .. . ... ... ... : ... .. . P7F ... ... : F#4 0D . ... ... ... : C#4 0D . ... ... ... : ... .. . ... ... ... : ... .. . ... ... ... : ... .. . ... ... ... : ... .. . ... ... ...
ROW E5 : ... .. . ... ... ... : ... .. . ... ... ... : ... .. . ... ... ... : ... .. . ... ... ... : ... .. . ... ... ... : ... .. . ... ... ... : ... .. . P80 ... ... : F#4 0E . ... ... ... : C#4 0E . ... ... ... : ... .. . ... ... ... : ... .. . ... ... ... : ... .. . ... ... ... : ... .. . ... ... ...
ROW E6 : ... .. . ... ... ... : ... .. . ... ... ... : ... .. . ... ... ... : ... .. . ... ... ... : ... .. . ... ... ... : ... .. . ... ... ... : ... .. . P81 ... ... : ... .. A ... ... ... : ... .. . ... ... ... : ... .. . ... ... ... : ... .. . ... ... ... : ... .. . ... ... ... : ... .. . ... ... ...
ROW E7 : ... .. . ... ... ... : ... .. . ... ... ... : ... .. . ... ... ... : ... .. . ... ... ... : ... .. . ... ... ... : ... .. . ... ... ... : ... .. . ... ... ... : F#4 0F . ... ... ... : C#4 0F . ... ... ... : ... .. . ... ... ... : ... .. . ... ... ... : ... .. . ... ... ... : ... .. . ... ... ...
ROW E8 : ... .. . ... ... ... : ... .. . ... ... ... : ... .. . ... ... ... : ... .. . ... ... ... : ... .. . ... ... ... : ... .. . ... ... ... : ... .. . P80 ... ... : ... .. . ... ... ... : ... .. . ... ... ... : ... .. . ... ... ... : ... .. . ... ... ... : ... .. . ... ... ... : ... .. . ... ... ...
ROW E9 : ... .. . ... ... ... : ... .. . ... ... ... : ... .. . ... ... ... : ... .. . ... ... ... : ... .. . ... ... ... : ... .. . ... ... ... : ... .. . ... ... ... : ... .. . ... ... ... : ... .. 4 ... ... ... : ... .. . ... ... ... : ... .. . ... ... ... : ... .. . ... ... ... : ... .. . ... ... ...
ROW EA : ... .. . ... ... ... : ... .. . ... ... ... : ... .. . ... ... ... : ... .. . ... ... ... : ... .. . ... ... ... : ... .. . ... ... ... : ... .. . P81 ... ... : F#4 10 9 ... ... ... : C#4 10 . ... ... ... : ... .. . ... ... ... : ... .. . ... ... ... : ... .. . ... ... ... : ... .. . ... ... ...
ROW EB : ... .. . ... ... ... : ... .. . ... ... ... : ... .. . ... ... ... : ... .. . ... ... ... : ... .. . ... ... ... : ... .. . ... ... ... : ... .. . ... ... ... : ... .. . ... ... ... : ... .. . ... ... ... : ... .. . ... ... ... : ... .. . ... ... ... : ... .. . ... ... ... : ... .. . ... ... ...
ROW EC : ... .. . ... ... ... : ... .. . ... ... ... : ... .. . ... ... ... : ... .. . ... ... ... : ... .. . ... ... ... : ... .. . ... ... ... : ... .. . P80 ... ... : ... .. . ... ... ... : ... .. . ... ... ... : ... .. . ... ... ... : ... .. . ... ... ... : ... .. . ... ... ... : ... .. . ... ... ...
ROW ED : ... .. . ... ... ... : ... .. . ... ... ... : ... .. . ... ... ... : ... .. . ... ... ... : ... .. . ... ... ... : ... .. . ... ... ... : ... .. . P7F ... ... : ... .. . ... ... ... : ... .. . ... ... ... : ... .. . ... ... ... : ... .. . ... ... ... : ... .. . ... ... ... : ... .. . ... ... ...
ROW EE : ... .. . ... ... ... : ... .. . ... ... ... : F#3 00 . P78 ... ... : 1-# 00 F ... ... ... : C-1 12 . ... ... ... : ... .. . ... ... ... : ... .. . P80 ... ... : G#4 0A B ... ... ... : C#4 0A . ... ... ... : ... .. . ... ... ... : ... .. . ... ... ... : ... .. . ... ... ... : ... .. . ... ... ...
ROW EF : ... .. . ... ... ... : ... .. . ... ... ... : C#3 00 . P7E ... ... : 2-# 00 7 ... ... ... : ... .. . ... ... ... : ... .. . ... ... ... : ... .. . P81 ... ... : G#4 0B . ... ... ... : C#4 0B . ... ... ... : ... .. . ... ... ... : ... .. . ... ... ... : ... .. . ... ... ... : ... .. . ... ... ...
ROW F0 : F#3 02 1 P82 ... ... : C#3 02 1 P82 ... ... : A-2 00 . P86 ... ... : 1-# 00 4 ... ... ... : ... .. . ... ... ... : A#3 0C 1 P81 ... ... : ... .. . P80 ... ... : G#4 0D . ... ... ... : C#4 0D . ... ... ... : ... .. . ... ... ... : ... .. . ... ... ... : ... .. . ... ... ... : ... .. . ... ... ...
ROW F1 : ... .. . P80 ... ... : ... .. . P80 ... ... : F#2 00 . P87 ... ... : ... .. 2 ... ... ... : ... .. . ... ... ... : ... .. . P82 ... ... : ... .. . P7F ... ... : G#4 0E . ... ... ... : C#4 0E 3 ... ... ... : ... .. . ... ... ... : ... .. . ... ... ... : ... .. . ... ... ... : ... .. . ... ... ...
ROW F2 : ... .. . P7E ... ... : ... .. . P7E ... ... : E-2 00 . P71 ... ... : ... .. 1 ... ... ... : ... .. . ... ... ... : ... .. . P81 ... ... : ... .. . P80 ... ... : ... .. A ... ... ... : ... .. . ... ... ... : ... .. . ... ... ... : ... .. . ... ... ... : ... .. . ... ... ... : ... .. . ... ... ...
ROW F3 : ... .. 2 P7D ... ... : ... .. 2 P7D ... ... : C#2 00 . P91 ... ... : --- .. . ... ... ... : ... .. . ... ... ... : ... .. 2 P80 ... ... : ... .. . P81 ... ... : G#4 0F . ... ... ... : C#4 0F . ... ... ... : ... .. . ... ... ... : ... .. . ... ... ... : ... .. . ... ... ... : ... .. . ... ... ...
ROW F4 : ... .. . P7E ... ... : ... .. . P7E ... ... : --- .. . ... ... ... : ... .. . ... ... ... : ... .. . ... ... ... : ... .. . P7F ... ... : ... .. . P80 ... ... : ... .. . ... ... ... : ... .. . ... ... ... : ... .. . ... ... ... : ... .. . ... ... ... : ... .. . ... ... ... : ... .. . ... ... ...
ROW F5 : ... .. 3 P80 ... ... : ... .. 3 P80 ... ... : ... .. . ... ... ... : ... .. . ... ... ... : ... .. . ... ... ... : ... .. 3 ... ... ... : ... .. . P7F ... ... : ... .. . ... ... ... : ... .. . ... ... ... : ... .. . ... ... ... : ... .. . ... ... ... : ... .. . ... ... ... : ... .. . ... ... ...
ROW F6 : ... .. . P82 ... ... : ... .. . P82 ... ... : ... .. . ... ... ... : ... .. . ... ... ... : ... .. . ... ... ... : ... .. . ... ... ... : ... .. . P80 ... ... : G#4 10 9 ... ... ... : C#4 10 . ... ... ... : ... .. . ... ... ... : ... .. . ... ... ... : ... .. . ... ... ... : ... .. . ... ... ...
ROW F7 : ... .. . P83 ... ... : ... .. . P83 ... ... : ... .. . ... ... ... : ... .. . ... ... ... : ... .. . ... ... ... : ... .. . P80 ... ... : ... .. . P81 ... ... : ... .. . ... ... ... : ... .. . ... ... ... : ... .. . ... ... ... : ... .. . ... ... ... : ... .. . ... ... ... : ... .. . ... ... ...
ROW F8 : ... .. 4 P82 ... ... : ... .. 4 P82 ... ... : ... .. . ... ... ... : ... .. . ... ... ... : ... .. . ... ... ... : ... .. 4 P81 ... ... : ... .. . ... ... ... : ... .. . ... ... ... : ... .. . ... ... ... : ... .. . ... ... ... : ... .. . ... ... ... : ... .. . ... ... ... : ... .. . ... ... ...
ROW F9 : ... .. . P80 ... ... : ... .. . P80 ... ... : ... .. . ... ... ... : ... .. . ... ... ... : ... .. . ... ... ... : ... .. . P82 ... ... : ... .. . P80 ... ... : ... .. . ... ... ... : ... .. 2 ... ... ... : ... .. . ... ... ... : ... .. . ... ... ... : ... .. . ... ... ... : ... .. . ... ... ...
ROW FA : ... .. . P7E ... ... : ... .. . P7E ... ... : ... .. . ... ... ... : ... .. . ... ... ... : ... .. . ... ... ... : ... .. . P81 ... ... : ... .. . P7F ... ... : G#4 11 8 ... ... ... : C#4 11 . ... ... ... : ... .. . ... ... ... : ... .. . ... ... ... : ... .. . ... ... ... : ... .. . ... ... ...
ROW FB : --- .. . ... ... ... : --- .. . ... ... ... : C#4 00 . P7F ... ... : 9-# 00 F ... ... ... : C#1 12 . ... ... ... : --- .. . ... ... ... : ... .. . P80 ... ... : B-4 0A B ... ... ... : F#4 0A 8 ... ... ... : ... .. . ... ... ... : ... .. . ... ... ... : ... .. . ... ... ... : ... .. . ... ... ...
ROW FC : ... .. . P80 ... ... : ... .. . P80 ... ... : F#3 00 . P83 ... ... : 2-# 00 7 ... ... ... : ... .. . ... ... ... : ... .. . P80 ... ... : ... .. . P81 ... ... : B-4 0B . ... ... ... : F#4 0B . ... ... ... : ... .. . ... ... ... : ... .. . ... ... ... : ... .. . ... ... ... : ... .. . ... ... ...
ROW FD : ... .. . ... ... ... : ... .. . ... ... ... : C#3 00 . P89 ... ... : 6-# 00 C ... ... ... : ... .. . ... ... ... : ... .. . ... ... ... : ... .. . P80 ... ... : B-4 0D . ... ... ... : F#4 0D . ... ... ... : ... .. . ... ... ... : ... .. . ... ... ... : ... .. . ... ... ... : ... .. . ... ... ...
ROW FE : ... .. . ... ... ... : ... .. . ... ... ... : A#2 00 . P75 ... ... : 7-# 00 8 ... ... ... : ... .. . ... ... ... : ... .. . ... ... ... : ... .. . P7F ... ... : B-4 0E . ... ... ... : F#4 0E . ... ... ... : ... .. . ... ... ... : ... .. . ... ... ... : ... .. . ... ... ... : ... .. . ... ... ...
ROW FF : ... .. . ... ... ... : ... .. . ... ... ... : G-2 00 . P70 ... ... : 8-# 00 7 ... ... ... : ... .. . ... ... ... : ... .. . ... ... ... : ... .. . P80 ... ... : ... .. A ... ... ... : ... .. . ... ... ... : ... .. . ... ... ... : ... .. . ... ... ... : ... .. . ... ... ... : ... .. . ... ... ...

PATTERN 01
ROW 00 : ... .. . ... ... ... : ... .. . ... ... ... : E-2 00 . P7C ... ... : ... .. 6 ... ... ... : ... .. . ... ... ... : ... .. . ... ... ... : ... .. . P81 ... ... : B-4 0F . ... ... ... : F#4 0F . ... ... ... : ... .. . ... ... ... : ... .. . ... ... ... : ... .. . ... ... ... : ... .. . ... ... ...
ROW 01 : ... .. . ... ... ... : ... .. . ... ... ... : D-2 00 . P6F ... ... : ... .. . ... ... ... : ... .. . ... ... ... : ... .. . ... ... ... : ... .. . P80 ... ... : ... .. . ... ... ... : ... .. . ... ... ... : ... .. . ... ... ... : ... .. . ... ... ... : ... .. . ... ... ... : ... .. . ... ... ...
ROW 02 : ... .. . ... ... ... : ... .. . ... ... ... : C-2 00 . P6C ... ... : ... .. 5 ... ... ... : ... .. . ... ... ... : ... .. . ... ... ... : ... .. . P7F ... ... : ... .. . ... ... ... : ... .. . ... ... ... : ... .. . ... ... ... : ... .. . ... ... ... : ... .. . ... ... ... : ... .. . ... ... ...
ROW 03 : ... .. . ... ... ... : ... .. . ... ... ... : A#1 00 . P75 ... ... : ... .. . ... ... ... : ... .. . ... ... ... : ... .. . ... ... ... : ... .. . P80 ... ... : B-4 10 9 ... ... ... : F#4 10 7 ... ... ... : ... .. . ... ... ... : ... .. . ... ... ... : ... .. . ... ... ... : ... .. . ... ... ...
ROW 04 : ... .. . ... ... ... : ... .. . ... ... ... : G#1 00 . P8A ... ... : ... .. 4 ... ... ... : ... .. . ... ... ... : ... .. . ... ... ... : ... .. . P81 ... ... : ... .. . ... ... ... : ... .. . ... ... ... : ... .. . ... ... ... : ... .. . ... ... ... : ... .. . ... ... ... : ... .. . ... ... ...
ROW 05 : ... .. . ... ... ... : ... .. . ... ... ... : G-1 00 . P6A ... ... : ... .. . ... ... ... : ... .. . ... ... ... : ... .. . ... ... ... : ... .. . ... ... ... : ... .. . ... ... ... : ... .. . ... ... ... : ... .. . ... ... ... : ... .. . ... ... ... : ... .. . ... ... ... : ... .. . ... ... ...
ROW 06 : ... .. . ... ... ... : ... .. . ... ... ... : F-1 00 . P96 ... ... : ... .. 3 ... ... ... : ... .. . ... ... ... : ... .. . ... ... ... : ... .. . P80 ... ... : ... .. . ... ... ... : ... .. . ... ... ... : ... .. . ... ... ... : ... .. . ... ... ... : ... .. . ... ... ... : ... .. . ... ... ...
ROW 07 : ... .. . ... ... ... : ... .. . ... ... ... : --- .. . ... ... ... : ... .. . ... ... ... : ... .. . ... ... ... : ... .. . ... ... ... : ... .. . ... ... ... : B-4 11 8 ... ... ... : F#4 11 . ... ... ... : ... .. . ... ... ... : ... .. . ... ... ... : ... .. . ... ... ... : ... .. . ... ... ...
ROW 08 : ... .. . ... ... ... : ... .. . ... ... ... : ... .. . ... ... ... : ... .. . ... ... ... : ... .. . ... ... ... : ... .. . ... ... ... : ... .. . P81 ... ... : ... .. . ... ... ... : ... .. . ... ... ... : ... .. . ... ... ... : ... .. . ... ... ... : ... .. . ... ... ... : ... .. . ... ... ...
ROW 09 : F#3 02 1 ... ... ... : C#3 02 1 ... ... ... : ... .. . ... ... ... : ... .. . ... ... ... : ... .. . ... ... ... : A#3 0C 1 P82 ... ... : ... .. . ... ... ... : ... .. . ... ... ... : ... .. . ... ... ... : ... .. . ... ... ... : ... .. . ... ... ... : ... .. . ... ... ... : ... .. . ... ... ...
ROW 0A : ... .. . P7E ... ... : ... .. . P7E ... ... : ... .. . ... ... ... : ... .. 2 ... ... ... : ... .. . ... ... ... : ... .. . P81 ... ... : ... .. . P80 ... ... : ... .. . ... ... ... : ... .. . ... ... ... : ... .. . ... ... ... : ... .. . ... ... ... : ... .. . ... ... ... : ... .. . ... ... ...
ROW 0B : ... .. . P7D ... ... : ... .. . P7D ... ... : ... .. . ... ... ... : ... .. . ... ... ... : ... .. . ... ... ... : ... .. . P80 ... ... : ... .. . P7F ... ... : ... .. 7 ... ... ... : ... .. 6 ... ... ... : ... .. . ... ... ... : ... .. . ... ... ... : ... .. . ... ... ... : ... .. . ... ... ...
ROW 0C : ... .. 2 P7E ... ... : ... .. 2 P7E ... ... : ... .. . ... ... ... : ... .. . ... ... ... : ... .. . ... ... ... : ... .. 2 P7F ... ... : ... .. . P80 ... ... : ... .. . ... ... ... : ... .. . ... ... ... : ... .. . ... ... ... : ... .. . ... ... ... : ... .. . ... ... ... : ... .. . ... ... ...
ROW 0D : ... .. . P80 ... ... : ... .. . P80 ... ... : ... .. . ... ... ... : ... .. . ... ... ... : ... .. . ... ... ... : ... .. . ... ... ... : ... .. . P81 ... ... : ... .. . ... ... ... : ... .. . ... ... ... : ... .. . ... ... ... : ... .. . ... ... ... : ... .. . ... ... ... : ... .. . ... ... ...
ROW 0E : ... .. 3 P82 ... ... : ... .. 3 P82 ... ... : ... .. . ... ... ... : ... .. 1 ... ... ... : ... .. . ... ... ... : ... .. 3 ... ... ... : ... .. . P80 ... ... : ... .. . ... ... ... : ... .. . ... ... ... : ... .. . ... ... ... : ... .. . ... ... ... : ... .. . ... ... ... : ... .. . ... ... ...
ROW 0F : ... .. . P83 ... ... : ... .. . P83 ... ... : ... .. . ... ... ... : ... .. . ... ... ... : ... .. . ... ... ... : ... .. . P80 ... ... : ... .. . P7F ... ... : ... .. 6 ... ... ... : ... .. . ... ... ... : ... .. . ... ... ... : ... .. . ... ... ... : ... .. . ... ... ... : ... .. . ... ... ...
ROW 10 : ... .. . P82 ... ... : ... .. . P82 ... ... : ... .. . ... ... ... : ... .. . ... ... ... : ... .. . ... ... ... : ... .. . P81 ... ... : ... .. . P80 ... ... : ... .. . ... ... ... : ... .. . ... ... ... : ... .. . ... ... ... : ... .. . ... ... ... : ... .. . ... ... ... : ... .. . ... ... ...
ROW 11 : ... .. 4 P80 ... ... : ... .. 4 P80 ... ... : ... .. . ... ... ... : ... .. . ... ... ... : ... .. . ... ... ... : ... .. 4 P82 ... ... : ... .. . P81 ... ... : ... .. . ... ... ... : ... .. . ... ... ... : ... .. . ... ... ... : ... .. . ... ... ... : ... .. . ... ... ... : ... .. . ... ... ...
ROW 12 : ... .. . P7E ... ... : ... .. . P7E ... ... : ... .. . ... ... ... : ... .. . ... ... ... : ... .. . ... ... ... : ... .. . P81 ... ... : ... .. . P80 ... ... : ... .. . ... ... ... : ... .. . ... ... ... : ... .. . ... ... ... : ... .. . ... ... ... : ... .. . ... ... ... : ... .. . ... ... ...
ROW 13 : ... .. . P7D ... ... : ... .. . P7D ... ... : ... .. . ... ... ... : --- .. . ... ... ... : ... .. . ... ... ... : ... .. . P80 ... ... : ... .. . P7F ... ... : ... .. 5 ... ... ... : ... .. 5 ... ... ... : ... .. . ... ... ... : ... .. . ... ... ... : ... .. . ... ... ... : ... .. . ... ... ...
ROW 14 : --- .. . ... ... ... : --- .. . ... ... ... : ... .. . ... ... ... : ... .. . ... ... ... : ... .. . ... ... ... : --- .. . ... ... ... : ... .. . P80 ... ... : A#4 0A B ... ... ... : F#4 0A 8 ... ... ... : ... .. . ... ... ... : ... .. . ... ... ... : ... .. . ... ... ... : ... .. . ... ... ...
ROW 15 : ... .. . P80 ... ... : ... .. . P80 ... ... : ... .. . ... ... ... : ... .. . ... ... ... : ... .. . ... ... ... : ... .. . ... ... ... : ... .. . P81 ... ... : A#4 0B . ... ... ... : F#4 0B . ... ... ... : ... .. . ... ... ... : ... .. . ... ... ... : ... .. . ... ... ... : ... .. . ... ... ...
ROW 16 : ... .. . ... ... ... : ... .. . ... ... ... : ... .. . ... ... ... : ... .. . ... ... ... : ... .. . ... ... ... : ... .. . ... ... ... : ... .. . ... ... ... : A#4 0D . ... ... ... : F#4 0D . ... ... ... : ... .. . ... ... ... : ... .. . ... ... ... : ... .. . ... ... ... : ... .. . ... ... ...
ROW 17 : ... .. . ... ... ... : ... .. . ... ... ... : ... .. . ... ... ... : ... .. . ... ... ... : ... .. . ... ... ... : ... .. . ... ... ... : ... .. . P80 ... ... : A#4 0E . ... ... ... : F#4 0E . ... ... ... : ... .. . ... ... ... : ... .. . ... ... ... : ... .. . ... ... ... : ... .. . ... ... ...
ROW 18 : ... .. . ... ... ... : ... .. . ... ... ... : ... .. . ... ... ... : ... .. . ... ... ... : ... .. . ... ... ... : ... .. . ... ... ... : ... .. . ... ... ... : ... .. A ... ... ... : ... .. . ... ... ... : ... .. . ... ... ... : ... .. . ... ... ... : ... .. . ... ... ... : ... .. . ... ... ...
ROW 19 : ... .. . ... ... ... : ... .. . ... ... ... : ... .. . ... ... ... : ... .. . ... ... ... : ... .. . ... ... ... : ... .. . ... ... ... : ... .. . P81 ... ... : A#4 0F . ... ... ... : F#4 0F . ... ... ... : ... .. . ... ... ... : ... .. . ... ... ... : ... .. . ... ... ... : ... .. . ... ... ...
ROW 1A : ... .. . ... ... ... : ... .. . ... ... ... : ... .. . ... ... ... : ... .. . ... ... ... : ... .. . ... ... ... : ... .. . ... ... ... : ... .. . ... ... ... : ... .. . ... ... ... : ... .. . ... ... ... : ... .. . ... ... ... : ... .. . ... ... ... : ... .. . ... ... ... : ... .. . ... ... ...
ROW 1B : ... .. . ... ... ... : ... .. . ... ... ... : ... .. . ... ... ... : ... .. . ... ... ... : ... .. . ... ... ... : ... .. . ... ... ... : ... .. . P80 ... ... : ... .. . ... ... ... : ... .. . ... ... ... : ... .. . ... ... ... : ... .. . ... ... ... : ... .. . ... ... ... : ... .. . ... ... ...
ROW 1C : ... .. . ... ... ... : ... .. . ... ... ... : ... .. . ... ... ... : ... .. . ... ... ... : ... .. . ... ... ... : ... .. . ... ... ... : ... .. . P7F ... ... : A#4 10 9 ... ... ... : F#4 10 7 ... ... ... : ... .. . ... ... ... : ... .. . ... ... ... : ... .. . ... ... ... : ... .. . ... ... ...
ROW 1D : ... .. . ... ... ... : ... .. . ... ... ... : ... .. . ... ... ... : ... .. . ... ... ... : ... .. . ... ... ... : ... .. . ... ... ... : ... .. . P80 ... ... : ... .. . ... ... ... : ... .. . ... ... ... : ... .. . ... ... ... : ... .. . ... ... ... : ... .. . ... ... ... : ... .. . ... ... ...
ROW 1E : ... .. . ... ... ... : ... .. . ... ... ... : ... .. . ... ... ... : ... .. . ... ... ... : ... .. . ... ... ... : ... .. . ... ... ... : ... .. . P81 ... ... : ... .. . ... ... ... : ... .. . ... ... ... : ... .. . ... ... ... : ... .. . ... ... ... : ... .. . ... ... ... : ... .. . ... ... ...
ROW 1F : ... .. . ... ... ... : ... .. . ... ... ... : ... .. . ... ... ... : ... .. . ... ... ... : ... .. . ... ... ... : ... .. . ... ... ... : ... .. . P80 ... ... : ... .. . ... ... ... : ... .. . ... ... ... : ... .. . ... ... ... : ... .. . ... ... ... : ... .. . ... ... ... : ... .. . ... ... ...
ROW 20 : ... .. . ... ... ... : ... .. . ... ... ... : ... .. . ... ... ... : ... .. . ... ... ... : ... .. . ... ... ... : ... .. . ... ... ... : ... .. . P7F ... ... : A#4 11 8 ... ... ... : F#4 11 . ... ... ... : ... .. . ... ... ... : ... .. . ... ... ... : ... .. . ... ... ... : ... .. . ... ... ...
ROW 21 : ... .. . ... ... ... : ... .. . ... ... ... : ... .. . ... ... ... : ... .. . ... ... ... : ... .. . ... ... ... : ... .. . ... ... ... : ... .. . P80 ... ... : ... .. . ... ... ... : ... .. . ... ... ... : ... .. . ... ... ... : G#4 03 7 P85 ... ... : ... .. . ... ... ... : ... .. . ... ... ...
ROW 22 : F#3 02 1 P7E ... ... : C#3 02 1 P7E ... ... : ... .. . ... ... ... : ... .. . ... ... ... : ... .. . ... ... ... : A#3 0C 1 P81 ... ... : ... .. . P81 ... ... : ... .. . ... ... ... : ... .. . ... ... ... : ... .. . ... ... ... : ... .. . P88 ... ... : ... .. . ... ... ... : ... .. . ... ... ...
ROW 23 : ... .. . P7D ... ... : ... .. . P7D ... ... : ... .. . ... ... ... : ... .. . ... ... ... : ... .. . ... ... ... : ... .. . P80 ... ... : ... .. . P80 ... ... : ... .. . ... ... ... : ... .. . ... ... ... : ... .. . ... ... ... : ... .. . ... ... ... : ... .. . ... ... ... : ... .. . ... ... ...
ROW 24 : ... .. . P7E ... ... : ... .. . P7E ... ... : ... .. . ... ... ... : ... .. . ... ... ... : ... .. . ... ... ... : ... .. . P7F ... ... : ... .. . P7F ... ... : ... .. 7 ... ... ... : ... .. 6 ... ... ... : ... .. . ... ... ... : ... .. . P85 ... ... : ... .. . ... ... ... : ... .. . ... ... ...
ROW 25 : ... .. 2 P80 ... ... : ... .. 2 P80 ... ... : ... .. . ... ... ... : ... .. . ... ... ... : ... .. . ... ... ... : ... .. 2 ... ... ... : ... .. . P80 ... ... : ... .. . ... ... ... : ... .. . ... ... ... : ... .. . ... ... ... : ... .. . P81 ... ... : ... .. . ... ... ... : ... .. . ... ... ...
ROW 26 : ... .. . P82 ... ... : ... .. . P82 ... ... : ... .. . ... ... ... : ... .. . ... ... ... : ... .. . ... ... ... : ... .. . ... ... ... : ... .. . P81 ... ... : ... .. . ... ... ... : ... .. . ... ... ... : ... .. . ... ... ... : ... .. . P7D ... ... : ... .. . ... ... ... : ... .. . ... ... ...
ROW 27 : ... .. 3 P83 ... ... : ... .. 3 P83 ... ... : ... .. . ... ... ... : ... .. . ... ... ... : ... .. . ... ... ... : ... .. 3 P80 ... ... : ... .. . ... ... ... : ... .. . ... ... ... : ... .. . ... ... ... : ... .. . ... ... ... : ... .. . P79 ... ... : ... .. . ... ... ... : ... .. . ... ... ...
ROW 28 : ... .. . P82 ... ... : ... .. . P82 ... ... : ... .. . ... ... ... : ... .. . ... ... ... : ... .. . ... ... ... : ... .. . P81 ... ... : ... .. . P80 ... ... : ... .. 6 ... ... ... : ... .. . ... ... ... : ... .. . ... ... ... : ... .. . P78 ... ... : ... .. . ... ... ... : ... .. . ... ... ...
ROW 29 : ... .. . P80 ... ... : ... .. . P80 ... ... : ... .. . ... ... ... : ... .. . ... ... ... : ... .. . ... ... ... : ... .. . P82 ... ... : ... .. . ... ... ... : ... .. . ... ... ... : ... .. . ... ... ... : ... .. . ... ... ... : ... .. . P7A ... ... : ... .. . ... ... ... : ... .. . ... ... ...
ROW 2A : ... .. 4 P7E ... ... : ... .. 4 P7E ... ... : ... .. . ... ... ... : ... .. . ... ... ... : ... .. . ... ... ... : ... .. 4 P81 ... ... : ... .. . P81 ... ... : ... .. . ... ... ... : ... .. . ... ... ... : ... .. . ... ... ... : ... .. . P7E ... ... : ... .. . ... ... ... : ... .. . ... ... ...
ROW 2B : ... .. . P7D ... ... : ... .. . P7D ... ... : ... .. . ... ... ... : ... .. . ... ... ... : ... .. . ... ... ... : ... .. . P80 ... ... : ... .. . ... ... ... : ... .. . ... ... ... : ... .. . ... ... ... : ... .. . ... ... ... : ... .. . P82 ... ... : ... .. . ... ... ... : ... .. . ... ... ...
ROW 2C : ... .. . P7E ... ... : ... .. . P7E ... ... : ... .. . ... ... ... : ... .. . ... ... ... : ... .. . ... ... ... : ... .. . P7F ... ... : ... .. . P80 ... ... : ... .. 5 ... ... ... : ... .. 5 ... ... ... : ... .. . ... ... ... : ... .. . P86 ... ... : ... .. . ... ... ... : ... .. . ... ... ...
ROW 2D : --- .. . ... ... ... : --- .. . ... ... ... : F#3 00 . P78 ... ... : 1-# 00 F ... ... ... : C-1 12 . ... ... ... : --- .. . ... ... ... : D#2 03 . P7F ... ... : F#4 0A B ... ... ... : D#4 0A 8 ... ... ... : A#3 0A 8 ... ... ... : ... .. . P88 ... ... : ... .. . ... ... ... : ... .. . ... ... ...
ROW 2E : ... .. . P80 ... ... : ... .. . P80 ... ... : C#3 00 . P7E ... ... : 2-# 00 7 ... ... ... : ... .. . ... ... ... : ... .. . P80 ... ... : ... .. . P80 ... ... : F#4 0B . ... ... ... : D#4 0B . ... ... ... : A#3 0B . ... ... ... : ... .. . P87 ... ... : ... .. . ... ... ... : ... .. . ... ... ...
ROW 2F : ... .. . ... ... ... : ... .. . ... ... ... : A-2 00 . P86 ... ... : 1-# 00 4 ... ... ... : ... .. . ... ... ... : ... .. . ... ... ... : ... .. . P81 ... ... : F#4 0D . ... ... ... : D#4 0D . ... ... ... : A#3 0D . ... ... ... : ... .. . P84 ... ... : ... .. . ... ... ... : ... .. . ... ... ...
ROW 30 : ... .. . ... ... ... : ... .. . ... ... ... : F#2 00 . P87 ... ... : ... .. 2 ... ... ... : ... .. . ... ... ... : ... .. . ... ... ... : ... .. . P80 ... ... : F#4 0E . ... ... ... : D#4 0E . ... ... ... : A#3 0E . ... ... ... : ... .. . P80 ... ... : ... .. . ... ... ... : ... .. . ... ... ...
ROW 31 : ... .. . ... ... ... : ... .. . ... ... ... : E-2 00 . P71 ... ... : ... .. 1 ... ... ... : ... .. . ... ... ... : ... .. . ... ... ... : ... .. . P7F ... ... : ... .. A ... ... ... : ... .. . ... ... ... : ... .. 7 ... ... ... : ... .. . P7C ... ... : ... .. . ... ... ... : ... .. . ... ... ...
ROW 32 : ... .. . ... ... ... : ... .. . ... ... ... : C#2 00 . P91 ... ... : --- .. . ... ... ... : ... .. . ... ... ... : ... .. . ... ... ... : ... .. . P80 ... ... : F#4 0F . ... ... ... : D#4 0F . ... ... ... : A#3 0F . ... ... ... : ... .. . P79 ... ... : ... .. . ... ... ... : ... .. . ... ... ...
ROW 33 : ... .. . ... ... ... : ... .. . ... ... ... : --- .. . ... ... ... : ... .. . ... ... ... : ... .. . ... ... ... : ... .. . ... ... ... : ... .. . P81 ... ... : ... .. . ... ... ... : ... .. . ... ... ... : ... .. . ... ... ... : ... .. . P78 ... ... : ... .. . ... ... ... : ... .. . ... ... ...
ROW 34 : ... .. . ... ... ... : ... .. . ... ... ... : ... .. . ... ... ... : ... .. . ... ... ... : ... .. . ... ... ... : ... .. . ... ... ... : ... .. . P80 ... ... : ... .. . ... ... ... : ... .. . ... ... ... : ... .. . ... ... ... : ... .. . P7B ... ... : ... .. . ... ... ... : ... .. . ... ... ...
ROW 35 : ... .. . ... ... ... : ... .. . ... ... ... : ... .. . ... ... ... : ... .. . ... ... ... : ... .. . ... ... ... : ... .. . ... ... ... : ... .. . P7F ... ... : F#4 10 9 ... ... ... : D#4 10 7 ... ... ... : A#3 10 6 ... ... ... : ... .. . P80 ... ... : ... .. . ... ... ... : ... .. . ... ... ...
ROW 36 : ... .. . ... ... ... : ... .. . ... ... ... : ... .. . ... ... ... : ... .. . ... ... ... : ... .. . ... ... ... : ... .. . ... ... ... : ... .. . P80 ... ... : ... .. . ... ... ... : ... .. . ... ... ... : ... .. . ... ... ... : ... .. . P83 ... ... : ... .. . ... ... ... : ... .. . ... ... ...
ROW 37 : ... .. . ... ... ... : ... .. . ... ... ... : ... .. . ... ... ... : ... .. . ... ... ... : ... .. . ... ... ... : ... .. . ... ... ... : ... .. . P81 ... ... : ... .. . ... ... ... : ... .. . ... ... ... : ... .. . ... ... ... : ... .. . P87 ... ... : ... .. . ... ... ... : ... .. . ... ... ...
ROW 38 : ... .. . ... ... ... : ... .. . ... ... ... : ... .. . ... ... ... : ... .. . ... ... ... : ... .. . ... ... ... : ... .. . ... ... ... : ... .. . ... ... ... : ... .. . ... ... ... : ... .. . ... ... ... : ... .. . ... ... ... : ... .. . P88 ... ... : ... .. . ... ... ... : ... .. . ... ... ...
ROW 39 : ... .. . ... ... ... : ... .. . ... ... ... : ... .. . ... ... ... : ... .. . ... ... ... : ... .. . ... ... ... : ... .. . ... ... ... : ... .. . P80 ... ... : F#4 11 8 ... ... ... : D#4 11 . ... ... ... : A#3 11 5 ... ... ... : ... .. . P87 ... ... : ... .. . ... ... ... : ... .. . ... ... ...
ROW 3A : ... .. . ... ... ... : ... .. . ... ... ... : ... .. . ... ... ... : ... .. . ... ... ... : ... .. . ... ... ... : ... .. . ... ... ... : ... .. . P7F ... ... : ... .. . ... ... ... : ... .. . ... ... ... : ... .. . ... ... ... : ... .. . P82 ... ... : ... .. . ... ... ... : ... .. . ... ... ...
ROW 3B : D#3 02 1 P7D ... ... : A#2 02 1 P7D ... ... : ... .. . ... ... ... : ... .. . ... ... ... : ... .. . ... ... ... : G-3 0C 1 ... ... ... : ... .. . P80 ... ... : ... .. . ... ... ... : ... .. . ... ... ... : ... .. . ... ... ... : ... .. . P7F ... ... : ... .. . ... ... ... : ... .. . ... ... ...
ROW 3C : ... .. . P7E ... ... : ... .. . P7E ... ... : ... .. . ... ... ... : ... .. . ... ... ... : ... .. . ... ... ... : ... .. . P7F ... ... : ... .. . P81 ... ... : ... .. . ... ... ... : ... .. . ... ... ... : ... .. . ... ... ... : ... .. . P7A ... ... : ... .. . ... ... ... : ... .. . ... ... ...
ROW 3D : ... .. . P80 ... ... : ... .. . P80 ... ... : ... .. . ... ... ... : ... .. . ... ... ... : ... .. . ... ... ... : ... .. . ... ... ... : ... .. . P80 ... ... : ... .. 7 ... ... ... : ... .. 6 ... ... ... : ... .. 4 ... ... ... : ... .. . P78 ... ... : ... .. . ... ... ... : ... .. . ... ... ...
ROW 3E : ... .. 2 P82 ... ... : ... .. 2 P82 ... ... : ... .. . ... ... ... : ... .. . ... ... ... : ... .. . ... ... ... : ... .. 2 ... ... ... : ... .. . P7F ... ... : ... .. . ... ... ... : ... .. . ... ... ... : ... .. . ... ... ... : ... .. . P79 ... ... : ... .. . ... ... ... : ... .. . ... ... ...
ROW 3F : ... .. . P83 ... ... : ... .. . P83 ... ... : ... .. . ... ... ... : ... .. . ... ... ... : ... .. . ... ... ... : ... .. . P80 ... ... : ... .. . P80 ... ... : ... .. . ... ... ... : ... .. . ... ... ... : ... .. . ... ... ... : ... .. . P7C ... ... : ... .. . ... ... ... : ... .. . ... ... ...
ROW 40 : ... .. 3 P82 ... ... : ... .. 3 P82 ... ... : ... .. . ... ... ... : ... .. . ... ... ... : ... .. . ... ... ... : ... .. 3 P81 ... ... : ... .. . P81 ... ... : ... .. . ... ... ... : ... .. . ... ... ... : ... .. . ... ... ... : ... .. . P80 ... ... : ... .. . ... ... ... : ... .. . ... ... ...
ROW 41 : ... .. . P80 ... ... : ... .. . P80 ... ... : ... .. . ... ... ... : ... .. . ... ... ... : ... .. . ... ... ... : ... .. . P82 ... ... : ... .. . P80 ... ... : ... .. 6 ... ... ... : ... .. . ... ... ... : ... .. 3 ... ... ... : ... .. . P85 ... ... : ... .. . ... ... ... : ... .. . ... ... ...
ROW 42 : ... .. . P7E ... ... : ... .. . P7E ... ... : ... .. . ... ... ... : ... .. . ... ... ... : ... .. . ... ... ... : ... .. . P81 ... ... : ... .. . P7F ... ... : ... .. . ... ... ... : ... .. . ... ... ... : ... .. . ... ... ... : ... .. . P88 ... ... : ... .. . ... ... ... : ... .. . ... ... ...
ROW 43 : ... .. 4 P7D ... ... : ... .. 4 P7D ... ... : ... .. . ... ... ... : ... .. . ... ... ... : ... .. . ... ... ... : ... .. 4 P80 ... ... : ... .. . P80 ... ... : ... .. . ... ... ... : ... .. . ... ... ... : ... .. . ... ... ... : ... .. . ... ... ... : ... .. . ... ... ... : ... .. . ... ... ...
ROW 44 : ... .. . P7E ... ... : ... .. . P7E ... ... : ... .. . ... ... ... : ... .. . ... ... ... : ... .. . ... ... ... : ... .. . P7F ... ... : ... .. . P81 ... ... : ... .. . ... ... ... : ... .. . ... ... ... : ... .. . ... ... ... : ... .. . P85 ... ... : ... .. . ... ... ... : ... .. . ... ... ...
ROW 45 : ... .. . P80 ... ... : ... .. . P80 ... ... : ... .. . ... ... ... : ... .. . ... ... ... : ... .. . ... ... ... : ... .. . ... ... ... : ... .. . ... ... ... : ... .. 5 ... ... ... : ... .. 5 ... ... ... : ... .. 2 ... ... ... : ... .. . P81 ... ... : ... .. . ... ... ... : ... .. . ... ... ...
ROW 46 : --- .. . ... ... ... : --- .. . ... ... ... : ... .. . ... ... ... : ... .. . ... ... ... : ... .. . ... ... ... : --- .. . ... ... ... : ... .. . P80 ... ... : --- .. . ... ... ... : A#3 0A 8 ... ... ... : A#3 0A . ... ... ... : ... .. . P7D ... ... : ... .. . ... ... ... : ... .. . ... ... ...
ROW 47 : ... .. . ... ... ... : ... .. . ... ... ... : ... .. . ... ... ... : ... .. . ... ... ... : ... .. . ... ... ... : ... .. . P80 ... ... : ... .. . ... ... ... : ... .. . ... ... ... : A#3 0B . ... ... ... : A#3 0B . ... ... ... : ... .. . P79 ... ... : ... .. . ... ... ... : ... .. . ... ... ...
ROW 48 : ... .. . ... ... ... : ... .. . ... ... ... : ... .. . ... ... ... : ... .. . ... ... ... : ... .. . ... ... ... : ... .. . ... ... ... : ... .. . P81 ... ... : ... .. . ... ... ... : A#3 0D . ... ... ... : A#3 0D . ... ... ... : ... .. . P78 ... ... : ... .. . ... ... ... : ... .. . ... ... ...
ROW 49 : ... .. . ... ... ... : ... .. . ... ... ... : ... .. . ... ... ... : ... .. . ... ... ... : ... .. . ... ... ... : ... .. . ... ... ... : ... .. . ... ... ... : ... .. . ... ... ... : A#3 0E . ... ... ... : A#3 0E 1 ... ... ... : ... .. . P7A ... ... : ... .. . ... ... ... : ... .. . ... ... ...
ROW 4A : ... .. . ... ... ... : ... .. . ... ... ... : ... .. . ... ... ... : ... .. . ... ... ... : ... .. . ... ... ... : ... .. . ... ... ... : ... .. . P80 ... ... : ... .. . ... ... ... : ... .. . ... ... ... : ... .. . ... ... ... : ... .. . P7E ... ... : ... .. . ... ... ... : ... .. . ... ... ...
ROW 4B : ... .. . ... ... ... : ... .. . ... ... ... : ... .. . ... ... ... : ... .. . ... ... ... : ... .. . ... ... ... : ... .. . ... ... ... : ... .. . P7F ... ... : ... .. . ... ... ... : A#3 0F . ... ... ... : A#3 0F . ... ... ... : ... .. . P82 ... ... : ... .. . ... ... ... : ... .. . ... ... ...
ROW 4C : ... .. . ... ... ... : ... .. . ... ... ... : ... .. . ... ... ... : ... .. . ... ... ... : ... .. . ... ... ... : ... .. . ... ... ... : ... .. . P80 ... ... : ... .. . ... ... ... : ... .. . ... ... ... : ... .. . ... ... ... : ... .. . P86 ... ... : ... .. . ... ... ... : ... .. . ... ... ...
ROW 4D : ... .. . ... ... ... : ... .. . ... ... ... : ... .. . ... ... ... : ... .. . ... ... ... : ... .. . ... ... ... : ... .. . ... ... ... : ... .. . P81 ... ... : ... .. . ... ... ... : ... .. . ... ... ... : --- .. . ... ... ... : ... .. . P88 ... ... : ... .. . ... ... ... : ... .. . ... ... ...
ROW 4E : ... .. . ... ... ... : ... .. . ... ... ... : ... .. . ... ... ... : ... .. . ... ... ... : ... .. . ... ... ... : ... .. . ... ... ... : ... .. . P80 ... ... : ... .. . ... ... ... : A#3 10 7 ... ... ... : ... .. . ... ... ... : ... .. . P87 ... ... : ... .. . ... ... ... : ... .. . ... ... ...
ROW 4F : ... .. . ... ... ... : ... .. . ... ... ... : ... .. . ... ... ... : ... .. . ... ... ... : ... .. . ... ... ... : ... .. . ... ... ... : ... .. . P7F ... ... : ... .. . ... ... ... : ... .. . ... ... ... : ... .. . ... ... ... : ... .. . P84 ... ... : ... .. . ... ... ... : ... .. . ... ... ...
ROW 50 : ... .. . ... ... ... : ... .. . ... ... ... : ... .. . ... ... ... : ... .. . ... ... ... : ... .. . ... ... ... : ... .. . ... ... ... : ... .. . P80 ... ... : ... .. . ... ... ... : ... .. . ... ... ... : ... .. . ... ... ... : ... .. . P80 ... ... : ... .. . ... ... ... : ... .. . ... ... ...
ROW 51 : ... .. . ... ... ... : ... .. . ... ... ... : ... .. . ... ... ... : ... .. . ... ... ... : ... .. . ... ... ... : ... .. . ... ... ... : ... .. . P81 ... ... : ... .. . ... ... ... : ... .. . ... ... ... : ... .. . ... ... ... : ... .. . P7C ... ... : ... .. . ... ... ... : ... .. . ... ... ...
ROW 52 : ... .. . ... ... ... : ... .. . ... ... ... : F#3 00 . P78 ... ... : 1-# 00 F ... ... ... : C-1 12 . ... ... ... : ... .. . ... ... ... : ... .. . P80 ... ... : G-4 0A B ... ... ... : D#4 0A 8 ... ... ... : A#3 0A 8 ... ... ... : ... .. . P79 ... ... : ... .. . ... ... ... : ... .. . ... ... ...
ROW 53 : ... .. . ... ... ... : ... .. . ... ... ... : C#3 00 . P7E ... ... : 2-# 00 7 ... ... ... : ... .. . ... ... ... : ... .. . ... ... ... : ... .. . P7F ... ... : G-4 0B . ... ... ... : D#4 0B . ... ... ... : A#3 0B . ... ... ... : ... .. . P78 ... ... : ... .. . ... ... ... : ... .. . ... ... ...
ROW 54 : D#3 02 1 P7E ... ... : A#2 02 1 P7E ... ... : A-2 00 . P86 ... ... : 1-# 00 4 ... ... ... : ... .. . ... ... ... : G-3 0C 1 P7F ... ... : ... .. . P80 ... ... : G-4 0D . ... ... ... : D#4 0D . ... ... ... : A#3 0D . ... ... ... : ... .. . P7B ... ... : ... .. . ... ... ... : ... .. . ... ... ...
ROW 55 : ... .. . P80 ... ... : ... .. . P80 ... ... : F#2 00 . P87 ... ... : ... .. 2 ... ... ... : ... .. . ... ... ... : ... .. . ... ... ... : ... .. . P81 ... ... : G-4 0E . ... ... ... : D#4 0E . ... ... ... : A#3 0E . ... ... ... : ... .. . P80 ... ... : ... .. . ... ... ... : ... .. . ... ... ...
ROW 56 : ... .. . P82 ... ... : ... .. . P82 ... ... : E-2 00 . P71 ... ... : ... .. 1 ... ... ... : ... .. . ... ... ... : ... .. . ... ... ... : ... .. . ... ... ... : ... .. A ... ... ... : ... .. . ... ... ... : ... .. 7 ... ... ... : ... .. . P83 ... ... : ... .. . ... ... ... : ... .. . ... ... ...
ROW 57 : ... .. 2 P83 ... ... : ... .. 2 P83 ... ... : C#2 00 . P91 ... ... : --- .. . ... ... ... : ... .. . ... ... ... : ... .. 2 P80 ... ... : ... .. . P80 ... ... : G-4 0F . ... ... ... : D#4 0F . ... ... ... : A#3 0F . ... ... ... : ... .. . P87 ... ... : ... .. . ... ... ... : ... .. . ... ... ...
ROW 58 : ... .. . P82 ... ... : ... .. . P82 ... ... : --- .. . ... ... ... : ... .. . ... ... ... : ... .. . ... ... ... : ... .. . P81 ... ... : ... .. . ... ... ... : ... .. . ... ... ... : ... .. . ... ... ... : ... .. . ... ... ... : ... .. . P88 ... ... : ... .. . ... ... ... : ... .. . ... ... ...
ROW 59 : ... .. 3 P80 ... ... : ... .. 3 P80 ... ... : ... .. . ... ... ... : ... .. . ... ... ... : ... .. . ... ... ... : ... .. 3 P82 ... ... : ... .. . P81 ... ... : ... .. . ... ... ... : ... .. . ... ... ... : ... .. . ... ... ... : ... .. . P87 ... ... : ... .. . ... ... ... : ... .. . ... ... ...
ROW 5A : ... .. . P7E ... ... : ... .. . P7E ... ... : ... .. . ... ... ... : ... .. . ... ... ... : ... .. . ... ... ... : ... .. . P81 ... ... : ... .. . ... ... ... : G-4 10 9 ... ... ... : D#4 10 7 ... ... ... : A#3 10 6 ... ... ... : ... .. . P82 ... ... : ... .. . ... ... ... : ... .. . ... ... ...
ROW 5B : ... .. . P7D ... ... : ... .. . P7D ... ... : ... .. . ... ... ... : ... .. . ... ... ... : ... .. . ... ... ... : ... .. . P80 ... ... : ... .. . P80 ... ... : ... .. . ... ... ... : ... .. . ... ... ... : ... .. . ... ... ... : ... .. . P7F ... ... : ... .. . ... ... ... : ... .. . ... ... ...
ROW 5C : ... .. 4 P7E ... ... : ... .. 4 P7E ... ... : ... .. . ... ... ... : ... .. . ... ... ... : ... .. . ... ... ... : ... .. 4 P7F ... ... : ... .. . P7F ... ... : ... .. . ... ... ... : ... .. . ... ... ... : ... .. . ... ... ... : ... .. . P7A ... ... : ... .. . ... ... ... : ... .. . ... ... ...
ROW 5D : ... .. . P80 ... ... : ... .. . P80 ... ... : ... .. . ... ... ... : ... .. . ... ... ... : ... .. . ... ... ... : ... .. . ... ... ... : ... .. . P80 ... ... : ... .. . ... ... ... : ... .. . ... ... ... : ... .. . ... ... ... : ... .. . P78 ... ... : ... .. . ... ... ... : ... .. . ... ... ...
ROW 5E : ... .. . P82 ... ... : ... .. . P82 ... ... : ... .. . ... ... ... : ... .. . ... ... ... : ... .. . ... ... ... : ... .. . ... ... ... : ... .. . P81 ... ... : G-4 11 8 ... ... ... : D#4 11 . ... ... ... : A#3 11 5 ... ... ... : ... .. . P79 ... ... : ... .. . ... ... ... : ... .. . ... ... ...
ROW 5F : --- .. . ... ... ... : --- .. . ... ... ... : C#4 00 . P7F ... ... : 9-# 00 F ... ... ... : C#1 12 . ... ... ... : --- .. . ... ... ... : ... .. . P80 ... ... : ... .. . ... ... ... : ... .. . ... ... ... : ... .. . ... ... ... : ... .. . P7C ... ... : ... .. . ... ... ... : ... .. . ... ... ...
ROW 60 : ... .. . P80 ... ... : ... .. . P80 ... ... : F#3 00 . P83 ... ... : 2-# 00 7 ... ... ... : ... .. . ... ... ... : ... .. . P80 ... ... : ... .. . P7F ... ... : ... .. . ... ... ... : ... .. . ... ... ... : ... .. . ... ... ... : ... .. . P80 ... ... : ... .. . ... ... ... : ... .. . ... ... ...
ROW 61 : ... .. . ... ... ... : ... .. . ... ... ... : C#3 00 . P89 ... ... : 6-# 00 C ... ... ... : ... .. . ... ... ... : ... .. . ... ... ... : ... .. . P80 ... ... : ... .. . ... ... ... : ... .. . ... ... ... : ... .. . ... ... ... : ... .. . P85 ... ... : ... .. . ... ... ... : ... .. . ... ... ...
ROW 62 : ... .. . ... ... ... : ... .. . ... ... ... : A#2 00 . P75 ... ... : 7-# 00 8 ... ... ... : ... .. . ... ... ... : ... .. . ... ... ... : ... .. . P81 ... ... : ... .. 7 ... ... ... : ... .. 6 ... ... ... : ... .. 4 ... ... ... : ... .. . P88 ... ... : ... .. . ... ... ... : ... .. . ... ... ...
ROW 63 : ... .. . ... ... ... : ... .. . ... ... ... : G-2 00 . P70 ... ... : 8-# 00 7 ... ... ... : ... .. . ... ... ... : ... .. . ... ... ... : ... .. . P80 ... ... : ... .. . ... ... ... : ... .. . ... ... ... : ... .. . ... ... ... : ... .. . ... ... ... : ... .. . ... ... ... : ... .. . ... ... ...
ROW 64 : ... .. . ... ... ... : ... .. . ... ... ... : E-2 00 . P7C ... ... : ... .. 6 ... ... ... : ... .. . ... ... ... : ... .. . ... ... ... : ... .. . P7F ... ... : ... .. . ... ... ... : ... .. . ... ... ... : ... .. . ... ... ... : ... .. . P85 ... ... : ... .. . ... ... ... : ... .. . ... ... ...
ROW 65 : ... .. . ... ... ... : ... .. . ... ... ... : D-2 00 . P6F ... ... : ... .. . ... ... ... : ... .. . ... ... ... : ... .. . ... ... ... : ... .. . P80 ... ... : ... .. . ... ... ... : ... .. . ... ... ... : ... .. . ... ... ... : ... .. . P81 ... ... : ... .. . ... ... ... : ... .. . ... ... ...
ROW 66 : ... .. . ... ... ... : ... .. . ... ... ... : C-2 00 . P6C ... ... : ... .. 5 ... ... ... : ... .. . ... ... ... : ... .. . ... ... ... : ... .. . P81 ... ... : ... .. 6 ... ... ... : ... .. . ... ... ... : ... .. 3 ... ... ... : ... .. . P7D ... ... : ... .. . ... ... ... : ... .. . ... ... ...
ROW 67 : ... .. . ... ... ... : ... .. . ... ... ... : A#1 00 . P75 ... ... : ... .. . ... ... ... : ... .. . ... ... ... : ... .. . ... ... ... : ... .. . ... ... ... : ... .. . ... ... ... : ... .. . ... ... ... : ... .. . ... ... ... : ... .. . P79 ... ... : ... .. . ... ... ... : ... .. . ... ... ...
ROW 68 : ... .. . ... ... ... : ... .. . ... ... ... : G#1 00 . P8A ... ... : ... .. 4 ... ... ... : ... .. . ... ... ... : ... .. . ... ... ... : ... .. . P80 ... ... : ... .. . ... ... ... : ... .. . ... ... ... : ... .. . ... ... ... : ... .. . P78 ... ... : ... .. . ... ... ... : ... .. . ... ... ...
ROW 69 : ... .. . ... ... ... : ... .. . ... ... ... : G-1 00 . P6A ... ... : ... .. . ... ... ... : ... .. . ... ... ... : ... .. . ... ... ... : ... .. . ... ... ... : ... .. . ... ... ... : ... .. . ... ... ... : ... .. . ... ... ... : ... .. . P7A ... ... : ... .. . ... ... ... : ... .. . ... ... ...
ROW 6A : ... .. . ... ... ... : ... .. . ... ... ... : F-1 00 . P96 ... ... : ... .. 3 ... ... ... : ... .. . ... ... ... : ... .. . ... ... ... : ... .. . P81 ... ... : ... .. 5 ... ... ... : ... .. 5 ... ... ... : ... .. 2 ... ... ... : ... .. . P7E ... ... : ... .. . ... ... ... : ... .. . ... ... ...
ROW 6B : ... .. . ... ... ... : ... .. . ... ... ... : --- .. . ... ... ... : ... .. . ... ... ... : ... .. . ... ... ... : ... .. . ... ... ... : ... .. . ... ... ... : ... .. . ... ... ... : ... .. . ... ... ... : ... .. . ... ... ... : ... .. . P82 ... ... : ... .. . ... ... ... : ... .. . ... ... ...
ROW 6C : ... .. . ... ... ... : ... .. . ... ... ... : ... .. . ... ... ... : ... .. . ... ... ... : ... .. . ... ... ... : ... .. . ... ... ... : ... .. . P80 ... ... : ... .. . ... ... ... : ... .. . ... ... ... : ... .. . ... ... ... : A#4 03 . P86 ... ... : ... .. . ... ... ... : ... .. . ... ... ...
ROW 6D : D#3 02 1 ... ... ... : A#2 02 1 ... ... ... : ... .. . ... ... ... : ... .. . ... ... ... : ... .. . ... ... ... : G-3 0C 1 P7F ... ... : ... .. . P7F ... ... : ... .. . ... ... ... : ... .. . ... ... ... : ... .. . ... ... ... : ... .. . P88 ... ... : ... .. . ... ... ... : ... .. . ... ... ...
ROW 6E : ... .. . P82 ... ... : ... .. . P82 ... ... : ... .. . ... ... ... : ... .. 2 ... ... ... : ... .. . ... ... ... : ... .. . ... ... ... : ... .. . P80 ... ... : ... .. 4 ... ... ... : ... .. . ... ... ... : ... .. 1 ... ... ... : ... .. . P87 ... ... : ... .. . ... ... ... : ... .. . ... ... ...
ROW 6F : ... .. . P83 ... ... : ... .. . P83 ... ... : ... .. . ... ... ... : ... .. . ... ... ... : ... .. . ... ... ... : ... .. . P80 ... ... : ... .. . P81 ... ... : ... .. . ... ... ... : ... .. . ... ... ... : ... .. . ... ... ... : ... .. . P84 ... ... : ... .. . ... ... ... : ... .. . ... ... ...
ROW 70 : ... .. 2 P82 ... ... : ... .. 2 P82 ... ... : ... .. . ... ... ... : ... .. . ... ... ... : ... .. . ... ... ... : ... .. 2 P81 ... ... : ... .. . P80 ... ... : ... .. . ... ... ... : ... .. . ... ... ... : ... .. . ... ... ... : ... .. . P80 ... ... : ... .. . ... ... ... : ... .. . ... ... ...
ROW 71 : ... .. . P80 ... ... : ... .. . P80 ... ... : ... .. . ... ... ... : ... .. . ... ... ... : ... .. . ... ... ... : ... .. . P82 ... ... : ... .. . P7F ... ... : ... .. . ... ... ... : ... .. . ... ... ... : ... .. . ... ... ... : ... .. . P7C ... ... : ... .. . ... ... ... : ... .. . ... ... ...
ROW 72 : ... .. 3 P7E ... ... : ... .. 3 P7E ... ... : ... .. . ... ... ... : ... .. 1 ... ... ... : ... .. . ... ... ... : ... .. 3 P81 ... ... : ... .. . P80 ... ... : ... .. 3 ... ... ... : ... .. 4 ... ... ... : --- .. . ... ... ... : ... .. . P79 ... ... : ... .. . ... ... ... : ... .. . ... ... ...
ROW 73 : ... .. . P7D ... ... : ... .. . P7D ... ... : ... .. . ... ... ... : ... .. . ... ... ... : ... .. . ... ... ... : ... .. . P80 ... ... : ... .. . P81 ... ... : ... .. . ... ... ... : ... .. . ... ... ... : ... .. . ... ... ... : ... .. . P78 ... ... : ... .. . ... ... ... : ... .. . ... ... ...
ROW 74 : ... .. . P7E ... ... : ... .. . P7E ... ... : ... .. . ... ... ... : ... .. . ... ... ... : ... .. . ... ... ... : ... .. . P7F ... ... : ... .. . P80 ... ... : ... .. . ... ... ... : ... .. . ... ... ... : ... .. . ... ... ... : ... .. . P7B ... ... : ... .. . ... ... ... : ... .. . ... ... ...
ROW 75 : ... .. 4 P80 ... ... : ... .. 4 P80 ... ... : ... .. . ... ... ... : ... .. . ... ... ... : ... .. . ... ... ... : ... .. 4 ... ... ... : ... .. . P7F ... ... : ... .. . ... ... ... : ... .. . ... ... ... : ... .. . ... ... ... : ... .. . P80 ... ... : ... .. . ... ... ... : ... .. . ... ... ...
ROW 76 : ... .. . P82 ... ... : ... .. . P82 ... ... : ... .. . ... ... ... : ... .. . ... ... ... : ... .. . ... ... ... : ... .. . ... ... ... : ... .. . P80 ... ... : ... .. 2 ... ... ... : ... .. . ... ... ... : ... .. . ... ... ... : ... .. . P83 ... ... : ... .. . ... ... ... : ... .. . ... ... ...
ROW 77 : ... .. . P83 ... ... : ... .. . P83 ... ... : ... .. . ... ... ... : --- .. . ... ... ... : ... .. . ... ... ... : ... .. . P80 ... ... : ... .. . P81 ... ... : ... .. . ... ... ... : ... .. . ... ... ... : ... .. . ... ... ... : ... .. . P87 ... ... : ... .. . ... ... ... : ... .. . ... ... ...
ROW 78 : --- .. . ... ... ... : --- .. . ... ... ... : F#3 00 . P78 ... ... : 1-# 00 F ... ... ... : C-1 12 . ... ... ... : --- .. . ... ... ... : ... .. . ... ... ... : ... .. . ... ... ... : ... .. . ... ... ... : ... .. . ... ... ... : ... .. . P88 ... ... : ... .. . ... ... ... : ... .. . ... ... ...
ROW 79 : ... .. . P80 ... ... : ... .. . P80 ... ... : C#3 00 . P7E ... ... : 2-# 00 7 ... ... ... : ... .. . ... ... ... : ... .. . ... ... ... : ... .. . P80 ... ... : ... .. . ... ... ... : ... .. . ... ... ... : ... .. . ... ... ... : ... .. . P87 ... ... : ... .. . ... ... ... : ... .. . ... ... ...
ROW 7A : ... .. . ... ... ... : ... .. . ... ... ... : A-2 00 . P86 ... ... : 1-# 00 4 ... ... ... : ... .. . ... ... ... : ... .. . ... ... ... : ... .. . P7F ... ... : ... .. 1 ... ... ... : ... .. 3 ... ... ... : ... .. . ... ... ... : ... .. . P82 ... ... : ... .. . ... ... ... : ... .. . ... ... ...
ROW 7B : ... .. . ... ... ... : ... .. . ... ... ... : F#2 00 . P87 ... ... : ... .. 2 ... ... ... : ... .. . ... ... ... : ... .. . ... ... ... : ... .. . P80 ... ... : ... .. . ... ... ... : ... .. . ... ... ... : ... .. . ... ... ... : ... .. . P7F ... ... : ... .. . ... ... ... : ... .. . ... ... ...
ROW 7C : ... .. . ... ... ... : ... .. . ... ... ... : E-2 00 . P71 ... ... : ... .. 1 ... ... ... : ... .. . ... ... ... : ... .. . ... ... ... : ... .. . P81 ... ... : ... .. . ... ... ... : ... .. . ... ... ... : ... .. . ... ... ... : ... .. . P7A ... ... : ... .. . ... ... ... : ... .. . ... ... ...
ROW 7D : ... .. . ... ... ... : ... .. . ... ... ... : C#2 00 . P91 ... ... : --- .. . ... ... ... : ... .. . ... ... ... : ... .. . ... ... ... : ... .. . P80 ... ... : ... .. . ... ... ... : ... .. . ... ... ... : ... .. . ... ... ... : ... .. . P78 ... ... : ... .. . ... ... ... : ... .. . ... ... ...
ROW 7E : ... .. . ... ... ... : ... .. . ... ... ... : --- .. . ... ... ... : ... .. . ... ... ... : ... .. . ... ... ... : ... .. . ... ... ... : ... .. . P7F ... ... : --- .. . ... ... ... : ... .. . ... ... ... : ... .. . ... ... ... : ... .. . P79 ... ... : ... .. . ... ... ... : ... .. . ... ... ...
ROW 7F : ... .. . ... ... ... : ... .. . ... ... ... : ... .. . ... ... ... : ... .. . ... ... ... : ... .. . ... ... ... : ... .. . ... ... ... : ... .. . P80 ... ... : ... .. . ... ... ... : ... .. . ... ... ... : ... .. . ... ... ... : ... .. . P7C ... ... : ... .. . ... ... ... : ... .. . ... ... ...
ROW 80 : ... .. . ... ... ... : ... .. . ... ... ... : ... .. . ... ... ... : ... .. . ... ... ... : ... .. . ... ... ... : ... .. . ... ... ... : ... .. . P81 ... ... : ... .. . ... ... ... : ... .. . ... ... ... : ... .. . ... ... ... : ... .. . P80 ... ... : ... .. . ... ... ... : ... .. . ... ... ...
ROW 81 : ... .. . ... ... ... : ... .. . ... ... ... : ... .. . ... ... ... : ... .. . ... ... ... : ... .. . ... ... ... : ... .. . ... ... ... : ... .. . P80 ... ... : ... .. . ... ... ... : ... .. . ... ... ... : ... .. . ... ... ... : ... .. . P85 ... ... : ... .. . ... ... ... : ... .. . ... ... ...
ROW 82 : ... .. . ... ... ... : ... .. . ... ... ... : ... .. . ... ... ... : ... .. . ... ... ... : ... .. . ... ... ... : ... .. . ... ... ... : ... .. . P7F ... ... : ... .. . ... ... ... : ... .. 2 ... ... ... : ... .. . ... ... ... : ... .. . P88 ... ... : ... .. . ... ... ... : ... .. . ... ... ...
ROW 83 : ... .. . ... ... ... : ... .. . ... ... ... : ... .. . ... ... ... : ... .. . ... ... ... : ... .. . ... ... ... : ... .. . ... ... ... : ... .. . P80 ... ... : ... .. . ... ... ... : ... .. . ... ... ... : ... .. . ... ... ... : ... .. . ... ... ... : ... .. . ... ... ... : ... .. . ... ... ...
ROW 84 : ... .. . ... ... ... : ... .. . ... ... ... : ... .. . ... ... ... : ... .. . ... ... ... : ... .. . ... ... ... : ... .. . ... ... ... : ... .. . P81 ... ... : ... .. . ... ... ... : ... .. . ... ... ... : ... .. . ... ... ... : ... .. . P85 ... ... : ... .. . ... ... ... : ... .. . ... ... ...
ROW 85 : ... .. . ... ... ... : ... .. . ... ... ... : ... .. . ... ... ... : ... .. . ... ... ... : ... .. . ... ... ... : ... .. . ... ... ... : ... .. . ... ... ... : ... .. . ... ... ... : ... .. . ... ... ... : ... .. . ... ... ... : B-4 03 . P81 ... ... : ... .. . ... ... ... : ... .. . ... ... ...
ROW 86 : D#3 02 1 P82 ... ... : A#2 02 1 P82 ... ... : ... .. . ... ... ... : ... .. . ... ... ... : ... .. . ... ... ... : G-3 0C 1 P7F ... ... : ... .. . P80 ... ... : ... .. . ... ... ... : ... .. . ... ... ... : ... .. . ... ... ... : ... .. . P7C ... ... : ... .. . ... ... ... : ... .. . ... ... ...
ROW 87 : ... .. . P83 ... ... : ... .. . P83 ... ... : ... .. . ... ... ... : ... .. . ... ... ... : ... .. . ... ... ... : ... .. . P80 ... ... : ... .. . ... ... ... : ... .. . ... ... ... : ... .. . ... ... ... : ... .. . ... ... ... : ... .. . P77 ... ... : ... .. . ... ... ... : ... .. . ... ... ...
ROW 88 : ... .. . P82 ... ... : ... .. . P82 ... ... : ... .. . ... ... ... : ... .. . ... ... ... : ... .. . ... ... ... : ... .. . P81 ... ... : ... .. . P81 ... ... : ... .. . ... ... ... : ... .. . ... ... ... : ... .. . ... ... ... : ... .. . P76 ... ... : ... .. . ... ... ... : ... .. . ... ... ...
ROW 89 : ... .. 2 P80 ... ... : ... .. 2 P80 ... ... : ... .. . ... ... ... : ... .. . ... ... ... : ... .. . ... ... ... : ... .. 2 P82 ... ... : ... .. . ... ... ... : ... .. . ... ... ... : ... .. . ... ... ... : ... .. . ... ... ... : ... .. . P78 ... ... : ... .. . ... ... ... : ... .. . ... ... ...
ROW 8A : ... .. . P7E ... ... : ... .. . P7E ... ... : ... .. . ... ... ... : ... .. . ... ... ... : ... .. . ... ... ... : ... .. . P81 ... ... : ... .. . P80 ... ... : ... .. . ... ... ... : ... .. 1 ... ... ... : ... .. . ... ... ... : ... .. . P7D ... ... : ... .. . ... ... ... : ... .. . ... ... ...
ROW 8B : ... .. 3 P7D ... ... : ... .. 3 P7D ... ... : ... .. . ... ... ... : ... .. . ... ... ... : ... .. . ... ... ... : ... .. 3 P80 ... ... : ... .. . P7F ... ... : ... .. . ... ... ... : ... .. . ... ... ... : ... .. . ... ... ... : ... .. . P82 ... ... : ... .. . ... ... ... : ... .. . ... ... ...
ROW 8C : ... .. . P7E ... ... : ... .. . P7E ... ... : ... .. . ... ... ... : ... .. . ... ... ... : ... .. . ... ... ... : ... .. . P7F ... ... : ... .. . P80 ... ... : ... .. . ... ... ... : ... .. . ... ... ... : ... .. . ... ... ... : ... .. . P88 ... ... : ... .. . ... ... ... : ... .. . ... ... ...
ROW 8D : ... .. . P80 ... ... : ... .. . P80 ... ... : ... .. . ... ... ... : ... .. . ... ... ... : ... .. . ... ... ... : ... .. . ... ... ... : ... .. . P81 ... ... : ... .. . ... ... ... : ... .. . ... ... ... : ... .. . ... ... ... : ... .. . P8B ... ... : ... .. . ... ... ... : ... .. . ... ... ...
ROW 8E : ... .. 4 P82 ... ... : ... .. 4 P82 ... ... : ... .. . ... ... ... : ... .. . ... ... ... : ... .. . ... ... ... : ... .. 4 ... ... ... : ... .. . P80 ... ... : ... .. . ... ... ... : ... .. . ... ... ... : ... .. . ... ... ... : ... .. . P8A ... ... : ... .. . ... ... ... : ... .. . ... ... ...
ROW 8F : ... .. . P83 ... ... : ... .. . P83 ... ... : ... .. . ... ... ... : ... .. . ... ... ... : ... .. . ... ... ... : ... .. . P80 ... ... : ... .. . P7F ... ... : ... .. . ... ... ... : ... .. . ... ... ... : ... .. . ... ... ... : ... .. . P85 ... ... : ... .. . ... ... ... : ... .. . ... ... ...
ROW 90 : ... .. . P82 ... ... : ... .. . P82 ... ... : ... .. . ... ... ... : ... .. . ... ... ... : ... .. . ... ... ... : ... .. . P81 ... ... : ... .. . P80 ... ... : ... .. . ... ... ... : ... .. . ... ... ... : ... .. . ... ... ... : ... .. . P80 ... ... : ... .. . ... ... ... : ... .. . ... ... ...
ROW 91 : --- .. . ... ... ... : --- .. . ... ... ... : F#3 00 . P78 ... ... : 1-# 00 F ... ... ... : C-1 12 . ... ... ... : --- .. . ... ... ... : G#1 03 . P81 ... ... : ... .. . ... ... ... : ... .. . ... ... ... : ... .. . ... ... ... : ... .. . P7A ... ... : ... .. . ... ... ... : ... .. . ... ... ...
ROW 92 : ... .. . P80 ... ... : ... .. . P80 ... ... : C#3 00 . P7E ... ... : 2-# 00 7 ... ... ... : ... .. . ... ... ... : ... .. . P80 ... ... : ... .. . P80 ... ... : ... .. . ... ... ... : --- .. . ... ... ... : ... .. . ... ... ... : ... .. . P76 ... ... : ... .. . ... ... ... : ... .. . ... ... ...
ROW 93 : ... .. . ... ... ... : ... .. . ... ... ... : A-2 00 . P86 ... ... : 1-# 00 4 ... ... ... : ... .. . ... ... ... : ... .. . ... ... ... : ... .. . ... ... ... : ... .. . ... ... ... : ... .. . ... ... ... : ... .. . ... ... ... : ... .. . ... ... ... : ... .. . ... ... ... : ... .. . ... ... ...
ROW 94 : ... .. . ... ... ... : ... .. . ... ... ... : F#2 00 . P87 ... ... : ... .. 2 ... ... ... : ... .. . ... ... ... : ... .. . ... ... ... : ... .. . ... ... ... : ... .. . ... ... ... : ... .. . ... ... ... : ... .. . ... ... ... : ... .. . P7A ... ... : ... .. . ... ... ... : ... .. . ... ... ...
ROW 95 : ... .. . ... ... ... : ... .. . ... ... ... : E-2 00 . P71 ... ... : ... .. 1 ... ... ... : ... .. . ... ... ... : ... .. . ... ... ... : ... .. . P81 ... ... : ... .. . ... ... ... : ... .. . ... ... ... : ... .. . ... ... ... : ... .. . P7F ... ... : ... .. . ... ... ... : ... .. . ... ... ...
ROW 96 : ... .. . ... ... ... : ... .. . ... ... ... : C#2 00 . P91 ... ... : --- .. . ... ... ... : ... .. . ... ... ... : ... .. . ... ... ... : ... .. . P80 ... ... : ... .. . ... ... ... : ... .. . ... ... ... : ... .. . ... ... ... : ... .. . P84 ... ... : ... .. . ... ... ... : ... .. . ... ... ...
ROW 97 : ... .. . ... ... ... : ... .. . ... ... ... : --- .. . ... ... ... : ... .. . ... ... ... : ... .. . ... ... ... : ... .. . ... ... ... : ... .. . ... ... ... : ... .. . ... ... ... : ... .. . ... ... ... : ... .. . ... ... ... : ... .. . P89 ... ... : ... .. . ... ... ... : ... .. . ... ... ...
ROW 98 : ... .. . ... ... ... : ... .. . ... ... ... : ... .. . ... ... ... : ... .. . ... ... ... : ... .. . ... ... ... : ... .. . ... ... ... : ... .. . ... ... ... : ... .. . ... ... ... : ... .. . ... ... ... : ... .. . ... ... ... : ... .. . P8B ... ... : ... .. . ... ... ... : ... .. . ... ... ...
ROW 99 : ... .. . ... ... ... : ... .. . ... ... ... : ... .. . ... ... ... : ... .. . ... ... ... : ... .. . ... ... ... : ... .. . ... ... ... : ... .. . ... ... ... : ... .. . ... ... ... : ... .. . ... ... ... : ... .. . ... ... ... : ... .. . P89 ... ... : ... .. . ... ... ... : ... .. . ... ... ...
ROW 9A : ... .. . ... ... ... : ... .. . ... ... ... : ... .. . ... ... ... : ... .. . ... ... ... : ... .. . ... ... ... : ... .. . ... ... ... : ... .. . P81 ... ... : ... .. . ... ... ... : ... .. . ... ... ... : ... .. . ... ... ... : ... .. . P83 ... ... : ... .. . ... ... ... : ... .. . ... ... ...
ROW 9B : ... .. . ... ... ... : ... .. . ... ... ... : ... .. . ... ... ... : ... .. . ... ... ... : ... .. . ... ... ... : ... .. . ... ... ... : ... .. . P80 ... ... : ... .. . ... ... ... : ... .. . ... ... ... : ... .. . ... ... ... : ... .. . P7E ... ... : ... .. . ... ... ... : ... .. . ... ... ...
ROW 9C : ... .. . ... ... ... : ... .. . ... ... ... : ... .. . ... ... ... : ... .. . ... ... ... : ... .. . ... ... ... : ... .. . ... ... ... : ... .. . ... ... ... : ... .. . ... ... ... : ... .. . ... ... ... : ... .. . ... ... ... : ... .. . P79 ... ... : ... .. . ... ... ... : ... .. . ... ... ...
ROW 9D : ... .. . ... ... ... : ... .. . ... ... ... : ... .. . ... ... ... : ... .. . ... ... ... : ... .. . ... ... ... : ... .. . ... ... ... : ... .. . ... ... ... : G#5 0A B ... ... ... : ... .. . ... ... ... : ... .. . ... ... ... : ... .. . P76 ... ... : ... .. . ... ... ... : ... .. . ... ... ...
ROW 9E : ... .. . ... ... ... : ... .. . ... ... ... : ... .. . ... ... ... : ... .. . ... ... ... : ... .. . ... ... ... : ... .. . ... ... ... : ... .. . P81 ... ... : G#5 0B . ... ... ... : ... .. . ... ... ... : ... .. . ... ... ... : ... .. . P77 ... ... : ... .. . ... ... ... : ... .. . ... ... ...
ROW 9F : G#3 02 1 P83 ... ... : D#3 02 1 P83 ... ... : ... .. . ... ... ... : ... .. . ... ... ... : ... .. . ... ... ... : B-3 0C 1 ... ... ... : ... .. . P80 ... ... : G#5 0D . ... ... ... : ... .. . ... ... ... : ... .. . ... ... ... : ... .. . P7B ... ... : ... .. . ... ... ... : ... .. . ... ... ...
ROW A0 : ... .. . P82 ... ... : ... .. . P82 ... ... : ... .. . ... ... ... : ... .. . ... ... ... : ... .. . ... ... ... : ... .. . P81 ... ... : ... .. . ... ... ... : G#5 0E . ... ... ... : ... .. . ... ... ... : ... .. . ... ... ... : ... .. . P80 ... ... : ... .. . ... ... ... : ... .. . ... ... ...
ROW A1 : ... .. . P80 ... ... : ... .. . P80 ... ... : ... .. . ... ... ... : ... .. . ... ... ... : ... .. . ... ... ... : ... .. . P82 ... ... : ... .. . ... ... ... : ... .. A ... ... ... : ... .. . ... ... ... : ... .. . ... ... ... : ... .. . P86 ... ... : ... .. . ... ... ... : ... .. . ... ... ...
ROW A2 : ... .. 2 P7E ... ... : ... .. 2 P7E ... ... : ... .. . ... ... ... : ... .. . ... ... ... : ... .. . ... ... ... : ... .. 2 P81 ... ... : ... .. . P81 ... ... : G#5 0F . ... ... ... : ... .. . ... ... ... : ... .. . ... ... ... : ... .. . P8A ... ... : ... .. . ... ... ... : ... .. . ... ... ...
ROW A3 : ... .. . P7D ... ... : ... .. . P7D ... ... : ... .. . ... ... ... : ... .. . ... ... ... : ... .. . ... ... ... : ... .. . P80 ... ... : ... .. . P80 ... ... : ... .. . ... ... ... : ... .. . ... ... ... : ... .. . ... ... ... : ... .. . P8B ... ... : ... .. . ... ... ... : ... .. . ... ... ...
ROW A4 : ... .. 3 P7E ... ... : ... .. 3 P7E ... ... : ... .. . ... ... ... : ... .. . ... ... ... : ... .. . ... ... ... : ... .. 3 P7F ... ... : ... .. . ... ... ... : ... .. . ... ... ... : ... .. . ... ... ... : ... .. . ... ... ... : ... .. . P87 ... ... : ... .. . ... ... ... : ... .. . ... ... ...
ROW A5 : ... .. . P80 ... ... : ... .. . P80 ... ... : ... .. . ... ... ... : ... .. . ... ... ... : ... .. . ... ... ... : ... .. . ... ... ... : ... .. . ... ... ... : G#5 10 9 ... ... ... : ... .. . ... ... ... : ... .. . ... ... ... : ... .. . P81 ... ... : ... .. . ... ... ... : ... .. . ... ... ...
ROW A6 : ... .. . P82 ... ... : ... .. . P82 ... ... : ... .. . ... ... ... : ... .. . ... ... ... : ... .. . ... ... ... : ... .. . ... ... ... : ... .. . P81 ... ... : ... .. . ... ... ... : ... .. . ... ... ... : ... .. . ... ... ... : ... .. . P7C ... ... : ... .. . ... ... ... : ... .. . ... ... ...
ROW A7 : ... .. 4 P83 ... ... : ... .. 4 P83 ... ... : ... .. . ... ... ... : ... .. . ... ... ... : ... .. . ... ... ... : ... .. 4 P80 ... ... : ... .. . P80 ... ... : ... .. . ... ... ... : ... .. . ... ... ... : ... .. . ... ... ... : ... .. . P77 ... ... : ... .. . ... ... ... : ... .. . ... ... ...
ROW A8 : ... .. . P82 ... ... : ... .. . P82 ... ... : ... .. . ... ... ... : ... .. . ... ... ... : ... .. . ... ... ... : ... .. . P81 ... ... : ... .. . ... ... ... : ... .. . ... ... ... : ... .. . ... ... ... : ... .. . ... ... ... : ... .. . P76 ... ... : ... .. . ... ... ... : ... .. . ... ... ...
ROW A9 : ... .. . P80 ... ... : ... .. . P80 ... ... : ... .. . ... ... ... : ... .. . ... ... ... : ... .. . ... ... ... : ... .. . P82 ... ... : ... .. . ... ... ... : G#5 11 8 ... ... ... : ... .. . ... ... ... : ... .. . ... ... ... : ... .. . P78 ... ... : ... .. . ... ... ... : ... .. . ... ... ...
ROW AA : --- .. . ... ... ... : --- .. . ... ... ... : ... .. . ... ... ... : ... .. . ... ... ... : ... .. . ... ... ... : --- .. . ... ... ... : ... .. . ... ... ... : F#5 0A B ... ... ... : ... .. . ... ... ... : ... .. . ... ... ... : ... .. . P7D ... ... : ... .. . ... ... ... : ... .. . ... ... ...
ROW AB : ... .. . ... ... ... : ... .. . ... ... ... : ... .. . ... ... ... : ... .. . ... ... ... : ... .. . ... ... ... : ... .. . P80 ... ... : ... .. . P81 ... ... : F#5 0B . ... ... ... : ... .. . ... ... ... : ... .. . ... ... ... : ... .. . P82 ... ... : ... .. . ... ... ... : ... .. . ... ... ...
ROW AC : ... .. . ... ... ... : ... .. . ... ... ... : ... .. . ... ... ... : ... .. . ... ... ... : ... .. . ... ... ... : ... .. . ... ... ... : ... .. . P80 ... ... : F#5 0D . ... ... ... : ... .. . ... ... ... : ... .. . ... ... ... : ... .. . P88 ... ... : ... .. . ... ... ... : ... .. . ... ... ...
ROW AD : ... .. . ... ... ... : ... .. . ... ... ... : ... .. . ... ... ... : ... .. . ... ... ... : ... .. . ... ... ... : ... .. . ... ... ... : ... .. . ... ... ... : F#5 0E . ... ... ... : ... .. . ... ... ... : ... .. . ... ... ... : ... .. . P8B ... ... : ... .. . ... ... ... : ... .. . ... ... ...
ROW AE : ... .. . ... ... ... : ... .. . ... ... ... : ... .. . ... ... ... : ... .. . ... ... ... : ... .. . ... ... ... : ... .. . ... ... ... : ... .. . ... ... ... : ... .. A ... ... ... : ... .. . ... ... ... : ... .. . ... ... ... : ... .. . P8A ... ... : ... .. . ... ... ... : ... .. . ... ... ...
ROW AF : ... .. . ... ... ... : ... .. . ... ... ... : ... .. . ... ... ... : ... .. . ... ... ... : ... .. . ... ... ... : ... .. . ... ... ... : ... .. . P81 ... ... : F#5 0F . ... ... ... : ... .. . ... ... ... : ... .. . ... ... ... : ... .. . P85 ... ... : ... .. . ... ... ... : ... .. . ... ... ...
ROW B0 : ... .. . ... ... ... : ... .. . ... ... ... : ... .. . ... ... ... : ... .. . ... ... ... : ... .. . ... ... ... : ... .. . ... ... ... : ... .. . P80 ... ... : ... .. . ... ... ... : ... .. . ... ... ... : ... .. . ... ... ... : ... .. . P80 ... ... : ... .. . ... ... ... : ... .. . ... ... ...
ROW B1 : ... .. . ... ... ... : ... .. . ... ... ... : ... .. . ... ... ... : ... .. . ... ... ... : ... .. . ... ... ... : ... .. . ... ... ... : ... .. . ... ... ... : ... .. . ... ... ... : ... .. . ... ... ... : ... .. . ... ... ... : ... .. . P7A ... ... : ... .. . ... ... ... : ... .. . ... ... ...
ROW B2 : ... .. . ... ... ... : ... .. . ... ... ... : ... .. . ... ... ... : ... .. . ... ... ... : ... .. . ... ... ... : ... .. . ... ... ... : ... .. . ... ... ... : F#5 10 9 ... ... ... : ... .. . ... ... ... : ... .. . ... ... ... : ... .. . P76 ... ... : ... .. . ... ... ... : ... .. . ... ... ...
ROW B3 : ... .. . ... ... ... : ... .. . ... ... ... : ... .. . ... ... ... : ... .. . ... ... ... : ... .. . ... ... ... : ... .. . ... ... ... : ... .. . P81 ... ... : ... .. . ... ... ... : ... .. . ... ... ... : ... .. . ... ... ... : ... .. . ... ... ... : ... .. . ... ... ... : ... .. . ... ... ...
ROW B4 : ... .. . ... ... ... : ... .. . ... ... ... : ... .. . ... ... ... : ... .. . ... ... ... : ... .. . ... ... ... : ... .. . ... ... ... : ... .. . P80 ... ... : ... .. . ... ... ... : ... .. . ... ... ... : ... .. . ... ... ... : ... .. . P7A ... ... : ... .. . ... ... ... : ... .. . ... ... ...
ROW B5 : ... .. . ... ... ... : ... .. . ... ... ... : ... .. . ... ... ... : ... .. . ... ... ... : ... .. . ... ... ... : ... .. . ... ... ... : ... .. . ... ... ... : ... .. . ... ... ... : ... .. . ... ... ... : ... .. . ... ... ... : ... .. . P7F ... ... : ... .. . ... ... ... : ... .. . ... ... ...
ROW B6 : ... .. . ... ... ... : ... .. . ... ... ... : F#3 00 . P78 ... ... : 1-# 00 F ... ... ... : C-1 12 . ... ... ... : ... .. . ... ... ... : ... .. . ... ... ... : G#5 0A B ... ... ... : ... .. . ... ... ... : ... .. . ... ... ... : ... .. . P84 ... ... : ... .. . ... ... ... : ... .. . ... ... ...
ROW B7 : ... .. . ... ... ... : ... .. . ... ... ... : C#3 00 . P7E ... ... : 2-# 00 7 ... ... ... : ... .. . ... ... ... : ... .. . ... ... ... : ... .. . P81 ... ... : G#5 0B . ... ... ... : ... .. . ... ... ... : ... .. . ... ... ... : ... .. . P89 ... ... : ... .. . ... ... ... : ... .. . ... ... ...
ROW B8 : G#3 02 1 P82 ... ... : D#3 02 1 P82 ... ... : A-2 00 . P86 ... ... : 1-# 00 4 ... ... ... : ... .. . ... ... ... : B-3 0C 1 P81 ... ... : ... .. . ... ... ... : G#5 0D . ... ... ... : ... .. . ... ... ... : ... .. . ... ... ... : ... .. . P8B ... ... : ... .. . ... ... ... : ... .. . ... ... ...
ROW B9 : ... .. . P80 ... ... : ... .. . P80 ... ... : F#2 00 . P87 ... ... : ... .. 2 ... ... ... : ... .. . ... ... ... : ... .. . P82 ... ... : ... .. . P80 ... ... : G#5 0E . ... ... ... : ... .. . ... ... ... : ... .. . ... ... ... : ... .. . P89 ... ... : ... .. . ... ... ... : ... .. . ... ... ...
ROW BA : ... .. . P7E ... ... : ... .. . P7E ... ... : E-2 00 . P71 ... ... : ... .. 1 ... ... ... : ... .. . ... ... ... : ... .. . P81 ... ... : ... .. . ... ... ... : ... .. A ... ... ... : ... .. . ... ... ... : ... .. . ... ... ... : ... .. . P83 ... ... : ... .. . ... ... ... : ... .. . ... ... ...
ROW BB : ... .. 2 P7D ... ... : ... .. 2 P7D ... ... : C#2 00 . P91 ... ... : --- .. . ... ... ... : ... .. . ... ... ... : ... .. 2 P80 ... ... : ... .. . ... ... ... : G#5 0F . ... ... ... : ... .. . ... ... ... : ... .. . ... ... ... : ... .. . P7E ... ... : ... .. . ... ... ... : ... .. . ... ... ...
ROW BC : ... .. . P7E ... ... : ... .. . P7E ... ... : --- .. . ... ... ... : ... .. . ... ... ... : ... .. . ... ... ... : ... .. . P7F ... ... : ... .. . P81 ... ... : ... .. . ... ... ... : ... .. . ... ... ... : ... .. . ... ... ... : ... .. . P79 ... ... : ... .. . ... ... ... : ... .. . ... ... ...
ROW BD : ... .. 3 P80 ... ... : ... .. 3 P80 ... ... : ... .. . ... ... ... : ... .. . ... ... ... : ... .. . ... ... ... : ... .. 3 ... ... ... : ... .. . P80 ... ... : ... .. . ... ... ... : ... .. . ... ... ... : ... .. . ... ... ... : ... .. . P76 ... ... : ... .. . ... ... ... : ... .. . ... ... ...
ROW BE : ... .. . P82 ... ... : ... .. . P82 ... ... : ... .. . ... ... ... : ... .. . ... ... ... : ... .. . ... ... ... : ... .. . ... ... ... : ... .. . ... ... ... : G#5 10 9 ... ... ... : ... .. . ... ... ... : ... .. . ... ... ... : ... .. . P77 ... ... : ... .. . ... ... ... : ... .. . ... ... ...
ROW BF : ... .. . P83 ... ... : ... .. . P83 ... ... : ... .. . ... ... ... : ... .. . ... ... ... : ... .. . ... ... ... : ... .. . P80 ... ... : ... .. . ... ... ... : ... .. . ... ... ... : ... .. . ... ... ... : ... .. . ... ... ... : ... .. . P7B ... ... : ... .. . ... ... ... : ... .. . ... ... ...
ROW C0 : ... .. 4 P82 ... ... : ... .. 4 P82 ... ... : ... .. . ... ... ... : ... .. . ... ... ... : ... .. . ... ... ... : ... .. 4 P81 ... ... : ... .. . P81 ... ... : ... .. . ... ... ... : ... .. . ... ... ... : ... .. . ... ... ... : ... .. . P80 ... ... : ... .. . ... ... ... : ... .. . ... ... ...
ROW C1 : ... .. . P80 ... ... : ... .. . P80 ... ... : ... .. . ... ... ... : ... .. . ... ... ... : ... .. . ... ... ... : ... .. . P82 ... ... : ... .. . P80 ... ... : ... .. . ... ... ... : ... .. . ... ... ... : ... .. . ... ... ... : ... .. . P86 ... ... : ... .. . ... ... ... : ... .. . ... ... ...
ROW C2 : ... .. . P7E ... ... : ... .. . P7E ... ... : ... .. . ... ... ... : ... .. . ... ... ... : ... .. . ... ... ... : ... .. . P81 ... ... : ... .. . ... ... ... : G#5 11 8 ... ... ... : ... .. . ... ... ... : ... .. . ... ... ... : ... .. . P8A ... ... : ... .. . ... ... ... : ... .. . ... ... ...
ROW C3 : --- .. . ... ... ... : --- .. . ... ... ... : C#4 00 . P7F ... ... : 9-# 00 F ... ... ... : C#1 12 . ... ... ... : --- .. . ... ... ... : ... .. . ... ... ... : B-5 0A B ... ... ... : ... .. . ... ... ... : ... .. . ... ... ... : ... .. . P8B ... ... : ... .. . ... ... ... : ... .. . ... ... ...
ROW C4 : ... .. . P80 ... ... : ... .. . P80 ... ... : F#3 00 . P83 ... ... : 2-# 00 7 ... ... ... : ... .. . ... ... ... : ... .. . P80 ... ... : ... .. . P81 ... ... : B-5 0B . ... ... ... : ... .. . ... ... ... : ... .. . ... ... ... : ... .. . P87 ... ... : ... .. . ... ... ... : ... .. . ... ... ...
ROW C5 : ... .. . ... ... ... : ... .. . ... ... ... : C#3 00 . P89 ... ... : 6-# 00 C ... ... ... : ... .. . ... ... ... : ... .. . ... ... ... : ... .. . P80 ... ... : B-5 0D . ... ... ... : ... .. . ... ... ... : ... .. . ... ... ... : ... .. . P81 ... ... : ... .. . ... ... ... : ... .. . ... ... ...
ROW C6 : ... .. . ... ... ... : ... .. . ... ... ... : A#2 00 . P75 ... ... : 7-# 00 8 ... ... ... : ... .. . ... ... ... : ... .. . ... ... ... : ... .. . ... ... ... : B-5 0E . ... ... ... : ... .. . ... ... ... : ... .. . ... ... ... : ... .. . P7C ... ... : ... .. . ... ... ... : ... .. . ... ... ...
ROW C7 : ... .. . ... ... ... : ... .. . ... ... ... : G-2 00 . P70 ... ... : 8-# 00 7 ... ... ... : ... .. . ... ... ... : ... .. . ... ... ... : ... .. . ... ... ... : ... .. A ... ... ... : ... .. . ... ... ... : ... .. . ... ... ... : ... .. . P77 ... ... : ... .. . ... ... ... : ... .. . ... ... ...
ROW C8 : ... .. . ... ... ... : ... .. . ... ... ... : E-2 00 . P7C ... ... : ... .. 6 ... ... ... : ... .. . ... ... ... : ... .. . ... ... ... : ... .. . ... ... ... : B-5 0F . ... ... ... : ... .. . ... ... ... : ... .. . ... ... ... : ... .. . P76 ... ... : ... .. . ... ... ... : ... .. . ... ... ...
ROW C9 : ... .. . ... ... ... : ... .. . ... ... ... : D-2 00 . P6F ... ... : ... .. . ... ... ... : ... .. . ... ... ... : ... .. . ... ... ... : ... .. . P81 ... ... : ... .. . ... ... ... : ... .. . ... ... ... : ... .. . ... ... ... : ... .. . P78 ... ... : ... .. . ... ... ... : ... .. . ... ... ...
ROW CA : ... .. . ... ... ... : ... .. . ... ... ... : C-2 00 . P6C ... ... : ... .. 5 ... ... ... : ... .. . ... ... ... : ... .. . ... ... ... : ... .. . P80 ... ... : ... .. . ... ... ... : ... .. . ... ... ... : ... .. . ... ... ... : ... .. . P7D ... ... : ... .. . ... ... ... : ... .. . ... ... ...
ROW CB : ... .. . ... ... ... : ... .. . ... ... ... : A#1 00 . P75 ... ... : ... .. . ... ... ... : ... .. . ... ... ... : ... .. . ... ... ... : ... .. . ... ... ... : B-5 10 9 ... ... ... : ... .. . ... ... ... : ... .. . ... ... ... : ... .. . P82 ... ... : ... .. . ... ... ... : ... .. . ... ... ...
ROW CC : ... .. . ... ... ... : ... .. . ... ... ... : G#1 00 . P8A ... ... : ... .. 4 ... ... ... : ... .. . ... ... ... : ... .. . ... ... ... : ... .. . ... ... ... : ... .. . ... ... ... : ... .. . ... ... ... : ... .. . ... ... ... : ... .. . P88 ... ... : ... .. . ... ... ... : ... .. . ... ... ...
ROW CD : ... .. . ... ... ... : ... .. . ... ... ... : G-1 00 . P6A ... ... : ... .. . ... ... ... : ... .. . ... ... ... : ... .. . ... ... ... : ... .. . P81 ... ... : ... .. . ... ... ... : ... .. . ... ... ... : ... .. . ... ... ... : ... .. . P8B ... ... : ... .. . ... ... ... : ... .. . ... ... ...
ROW CE : ... .. . ... ... ... : ... .. . ... ... ... : F-1 00 . P96 ... ... : ... .. 3 ... ... ... : ... .. . ... ... ... : ... .. . ... ... ... : ... .. . P80 ... ... : ... .. . ... ... ... : ... .. . ... ... ... : ... .. . ... ... ... : ... .. . P8A ... ... : ... .. . ... ... ... : ... .. . ... ... ...
ROW CF : ... .. . ... ... ... : ... .. . ... ... ... : --- .. . ... ... ... : ... .. . ... ... ... : ... .. . ... ... ... : ... .. . ... ... ... : ... .. . ... ... ... : B-5 11 8 ... ... ... : ... .. . ... ... ... : ... .. . ... ... ... : ... .. . P85 ... ... : ... .. . ... ... ... : ... .. . ... ... ...
ROW D0 : ... .. . ... ... ... : ... .. . ... ... ... : ... .. . ... ... ... : ... .. . ... ... ... : ... .. . ... ... ... : ... .. . ... ... ... : ... .. . ... ... ... : ... .. . ... ... ... : ... .. . ... ... ... : ... .. . ... ... ... : ... .. . P80 ... ... : ... .. . ... ... ... : ... .. . ... ... ...
ROW D1 : G#3 02 1 ... ... ... : D#3 02 1 ... ... ... : ... .. . ... ... ... : ... .. . ... ... ... : ... .. . ... ... ... : B-3 0C 1 P82 ... ... : ... .. . P81 ... ... : ... .. . ... ... ... : ... .. . ... ... ... : ... .. . ... ... ... : ... .. . P7A ... ... : ... .. . ... ... ... : ... .. . ... ... ...
ROW D2 : ... .. . P7E ... ... : ... .. . P7E ... ... : ... .. . ... ... ... : ... .. 2 ... ... ... : ... .. . ... ... ... : ... .. . P81 ... ... : ... .. . P80 ... ... : ... .. . ... ... ... : ... .. . ... ... ... : ... .. . ... ... ... : ... .. . P76 ... ... : ... .. . ... ... ... : ... .. . ... ... ...
ROW D3 : ... .. . P7D ... ... : ... .. . P7D ... ... : ... .. . ... ... ... : ... .. . ... ... ... : ... .. . ... ... ... : ... .. . P80 ... ... : ... .. . ... ... ... : ... .. 7 ... ... ... : ... .. . ... ... ... : ... .. . ... ... ... : ... .. . ... ... ... : ... .. . ... ... ... : ... .. . ... ... ...
ROW D4 : ... .. 2 P7E ... ... : ... .. 2 P7E ... ... : ... .. . ... ... ... : ... .. . ... ... ... : ... .. . ... ... ... : ... .. 2 P7F ... ... : ... .. . ... ... ... : ... .. . ... ... ... : ... .. . ... ... ... : ... .. . ... ... ... : ... .. . P7A ... ... : ... .. . ... ... ... : ... .. . ... ... ...
ROW D5 : ... .. . P80 ... ... : ... .. . P80 ... ... : ... .. . ... ... ... : ... .. . ... ... ... : ... .. . ... ... ... : ... .. . ... ... ... : ... .. . P81 ... ... : ... .. . ... ... ... : ... .. . ... ... ... : ... .. . ... ... ... : ... .. . P7F ... ... : ... .. . ... ... ... : ... .. . ... ... ...
ROW D6 : ... .. 3 P82 ... ... : ... .. 3 P82 ... ... : ... .. . ... ... ... : ... .. 1 ... ... ... : ... .. . ... ... ... : ... .. 3 ... ... ... : ... .. . P80 ... ... : ... .. . ... ... ... : ... .. . ... ... ... : ... .. . ... ... ... : ... .. . P84 ... ... : ... .. . ... ... ... : ... .. . ... ... ...
ROW D7 : ... .. . P83 ... ... : ... .. . P83 ... ... : ... .. . ... ... ... : ... .. . ... ... ... : ... .. . ... ... ... : ... .. . P80 ... ... : ... .. . ... ... ... : ... .. 6 ... ... ... : ... .. . ... ... ... : ... .. . ... ... ... : ... .. . P89 ... ... : ... .. . ... ... ... : ... .. . ... ... ...
ROW D8 : ... .. . P82 ... ... : ... .. . P82 ... ... : ... .. . ... ... ... : ... .. . ... ... ... : ... .. . ... ... ... : ... .. . P81 ... ... : ... .. . ... ... ... : ... .. . ... ... ... : ... .. . ... ... ... : ... .. . ... ... ... : ... .. . P8B ... ... : ... .. . ... ... ... : ... .. . ... ... ...
ROW D9 : ... .. 4 P80 ... ... : ... .. 4 P80 ... ... : ... .. . ... ... ... : ... .. . ... ... ... : ... .. . ... ... ... : ... .. 4 P82 ... ... : ... .. . ... ... ... : ... .. . ... ... ... : ... .. . ... ... ... : ... .. . ... ... ... : ... .. . P89 ... ... : ... .. . ... ... ... : ... .. . ... ... ...
ROW DA : ... .. . P7E ... ... : ... .. . P7E ... ... : ... .. . ... ... ... : ... .. . ... ... ... : ... .. . ... ... ... : ... .. . P81 ... ... : ... .. . P81 ... ... : ... .. . ... ... ... : ... .. . ... ... ... : ... .. . ... ... ... : ... .. . P83 ... ... : ... .. . ... ... ... : ... .. . ... ... ...
ROW DB : ... .. . P7D ... ... : ... .. . P7D ... ... : ... .. . ... ... ... : --- .. . ... ... ... : ... .. . ... ... ... : ... .. . P80 ... ... : ... .. . P80 ... ... : ... .. 5 ... ... ... : ... .. . ... ... ... : ... .. . ... ... ... : ... .. . P7E ... ... : ... .. . ... ... ... : ... .. . ... ... ...
ROW DC : --- .. . ... ... ... : --- .. . ... ... ... : ... .. . ... ... ... : ... .. . ... ... ... : ... .. . ... ... ... : --- .. . ... ... ... : ... .. . ... ... ... : C#6 0A B ... ... ... : G#5 0A 8 ... ... ... : ... .. . ... ... ... : ... .. . P79 ... ... : ... .. . ... ... ... : ... .. . ... ... ...
ROW DD : ... .. . P80 ... ... : ... .. . P80 ... ... : ... .. . ... ... ... : ... .. . ... ... ... : ... .. . ... ... ... : ... .. . ... ... ... : ... .. . ... ... ... : C#6 0B . ... ... ... : G#5 0B . ... ... ... : ... .. . ... ... ... : ... .. . P76 ... ... : ... .. . ... ... ... : ... .. . ... ... ...
ROW DE : ... .. . ... ... ... : ... .. . ... ... ... : ... .. . ... ... ... : ... .. . ... ... ... : ... .. . ... ... ... : ... .. . ... ... ... : ... .. . P81 ... ... : C#6 0D . ... ... ... : G#5 0D . ... ... ... : ... .. . ... ... ... : ... .. . P77 ... ... : ... .. . ... ... ... : ... .. . ... ... ...
ROW DF : ... .. . ... ... ... : ... .. . ... ... ... : ... .. . ... ... ... : ... .. . ... ... ... : ... .. . ... ... ... : ... .. . ... ... ... : ... .. . P80 ... ... : C#6 0E . ... ... ... : G#5 0E . ... ... ... : ... .. . ... ... ... : ... .. . P7B ... ... : ... .. . ... ... ... : ... .. . ... ... ...
ROW E0 : ... .. . ... ... ... : ... .. . ... ... ... : ... .. . ... ... ... : ... .. . ... ... ... : ... .. . ... ... ... : ... .. . ... ... ... : ... .. . ... ... ... : ... .. A ... ... ... : ... .. 7 ... ... ... : ... .. . ... ... ... : ... .. . P80 ... ... : ... .. . ... ... ... : ... .. . ... ... ...
ROW E1 : ... .. . ... ... ... : ... .. . ... ... ... : ... .. . ... ... ... : ... .. . ... ... ... : ... .. . ... ... ... : ... .. . ... ... ... : ... .. . ... ... ... : C#6 0F . ... ... ... : G#5 0F . ... ... ... : ... .. . ... ... ... : ... .. . P86 ... ... : ... .. . ... ... ... : ... .. . ... ... ...
ROW E2 : ... .. . ... ... ... : ... .. . ... ... ... : ... .. . ... ... ... : ... .. . ... ... ... : ... .. . ... ... ... : ... .. . ... ... ... : ... .. . P81 ... ... : ... .. . ... ... ... : ... .. . ... ... ... : ... .. . ... ... ... : ... .. . P8A ... ... : ... .. . ... ... ... : ... .. . ... ... ...
ROW E3 : ... .. . ... ... ... : ... .. . ... ... ... : ... .. . ... ... ... : ... .. . ... ... ... : ... .. . ... ... ... : ... .. . ... ... ... : ... .. . P80 ... ... : ... .. . ... ... ... : ... .. . ... ... ... : ... .. . ... ... ... : ... .. . P8B ... ... : ... .. . ... ... ... : ... .. . ... ... ...
ROW E4 : ... .. . ... ... ... : ... .. . ... ... ... : ... .. . ... ... ... : ... .. . ... ... ... : ... .. . ... ... ... : ... .. . ... ... ... : ... .. . ... ... ... : C#6 10 9 ... ... ... : G#5 10 6 ... ... ... : ... .. . ... ... ... : ... .. . P87 ... ... : ... .. . ... ... ... : ... .. . ... ... ...
ROW E5 : ... .. . ... ... ... : ... .. . ... ... ... : ... .. . ... ... ... : ... .. . ... ... ... : ... .. . ... ... ... : ... .. . ... ... ... : ... .. . ... ... ... : ... .. . ... ... ... : ... .. . ... ... ... : ... .. . ... ... ... : ... .. . P81 ... ... : ... .. . ... ... ... : ... .. . ... ... ...
ROW E6 : ... .. . ... ... ... : ... .. . ... ... ... : ... .. . ... ... ... : ... .. . ... ... ... : ... .. . ... ... ... : ... .. . ... ... ... : ... .. . P81 ... ... : ... .. . ... ... ... : ... .. . ... ... ... : ... .. . ... ... ... : ... .. . P7C ... ... : ... .. . ... ... ... : ... .. . ... ... ...
ROW E7 : ... .. . ... ... ... : ... .. . ... ... ... : ... .. . ... ... ... : ... .. . ... ... ... : ... .. . ... ... ... : ... .. . ... ... ... : ... .. . P80 ... ... : ... .. . ... ... ... : ... .. . ... ... ... : ... .. . ... ... ... : ... .. . P77 ... ... : ... .. . ... ... ... : ... .. . ... ... ...
ROW E8 : ... .. . ... ... ... : ... .. . ... ... ... : ... .. . ... ... ... : ... .. . ... ... ... : ... .. . ... ... ... : ... .. . ... ... ... : ... .. . ... ... ... : C#6 11 8 ... ... ... : G#5 11 5 ... ... ... : ... .. . ... ... ... : ... .. . P76 ... ... : ... .. . ... ... ... : ... .. . ... ... ...
ROW E9 : ... .. . ... ... ... : ... .. . ... ... ... : ... .. . ... ... ... : ... .. . ... ... ... : ... .. . ... ... ... : ... .. . ... ... ... : ... .. . ... ... ... : ... .. . ... ... ... : ... .. . ... ... ... : ... .. . ... ... ... : F#5 03 . P78 ... ... : ... .. . ... ... ... : ... .. . ... ... ...
ROW EA : G#3 02 1 P7E ... ... : D#3 02 1 P7E ... ... : ... .. . ... ... ... : ... .. . ... ... ... : ... .. . ... ... ... : B-3 0C 1 P81 ... ... : ... .. . ... ... ... : ... .. . ... ... ... : ... .. . ... ... ... : ... .. . ... ... ... : ... .. . P7D ... ... : ... .. . ... ... ... : ... .. . ... ... ...
ROW EB : ... .. . P7D ... ... : ... .. . P7D ... ... : ... .. . ... ... ... : ... .. . ... ... ... : ... .. . ... ... ... : ... .. . P80 ... ... : ... .. . P81 ... ... : ... .. . ... ... ... : ... .. . ... ... ... : ... .. . ... ... ... : ... .. . P82 ... ... : ... .. . ... ... ... : ... .. . ... ... ...
ROW EC : ... .. . P7E ... ... : ... .. . P7E ... ... : ... .. . ... ... ... : ... .. . ... ... ... : ... .. . ... ... ... : ... .. . P7F ... ... : ... .. . P80 ... ... : ... .. 7 ... ... ... : ... .. 4 ... ... ... : ... .. . ... ... ... : ... .. . P88 ... ... : ... .. . ... ... ... : ... .. . ... ... ...
ROW ED : ... .. 2 P80 ... ... : ... .. 2 P80 ... ... : ... .. . ... ... ... : ... .. . ... ... ... : ... .. . ... ... ... : ... .. 2 ... ... ... : ... .. . ... ... ... : ... .. . ... ... ... : ... .. . ... ... ... : ... .. . ... ... ... : ... .. . P8B ... ... : ... .. . ... ... ... : ... .. . ... ... ...
ROW EE : ... .. . P82 ... ... : ... .. . P82 ... ... : ... .. . ... ... ... : ... .. . ... ... ... : ... .. . ... ... ... : ... .. . ... ... ... : ... .. . ... ... ... : ... .. . ... ... ... : ... .. . ... ... ... : ... .. . ... ... ... : ... .. . P8A ... ... : ... .. . ... ... ... : ... .. . ... ... ...
ROW EF : ... .. 3 P83 ... ... : ... .. 3 P83 ... ... : ... .. . ... ... ... : ... .. . ... ... ... : ... .. . ... ... ... : ... .. 3 P80 ... ... : ... .. . P81 ... ... : ... .. . ... ... ... : ... .. . ... ... ... : ... .. . ... ... ... : ... .. . P85 ... ... : ... .. . ... ... ... : ... .. . ... ... ...
ROW F0 : ... .. . P82 ... ... : ... .. . P82 ... ... : ... .. . ... ... ... : ... .. . ... ... ... : ... .. . ... ... ... : ... .. . P81 ... ... : ... .. . P80 ... ... : ... .. 6 ... ... ... : ... .. 3 ... ... ... : ... .. . ... ... ... : ... .. . P80 ... ... : ... .. . ... ... ... : ... .. . ... ... ...
ROW F1 : ... .. . P80 ... ... : ... .. . P80 ... ... : ... .. . ... ... ... : ... .. . ... ... ... : ... .. . ... ... ... : ... .. . P82 ... ... : ... .. . ... ... ... : ... .. . ... ... ... : ... .. . ... ... ... : ... .. . ... ... ... : ... .. . P7A ... ... : ... .. . ... ... ... : ... .. . ... ... ...
ROW F2 : ... .. 4 P7E ... ... : ... .. 4 P7E ... ... : ... .. . ... ... ... : ... .. . ... ... ... : ... .. . ... ... ... : ... .. 4 P81 ... ... : ... .. . ... ... ... : ... .. . ... ... ... : ... .. . ... ... ... : ... .. . ... ... ... : ... .. . P76 ... ... : ... .. . ... ... ... : ... .. . ... ... ...
ROW F3 : ... .. . P7D ... ... : ... .. . P7D ... ... : ... .. . ... ... ... : ... .. . ... ... ... : ... .. . ... ... ... : ... .. . P80 ... ... : ... .. . P81 ... ... : ... .. . ... ... ... : ... .. . ... ... ... : ... .. . ... ... ... : ... .. . ... ... ... : ... .. . ... ... ... : ... .. . ... ... ...
ROW F4 : ... .. . P7E ... ... : ... .. . P7E ... ... : ... .. . ... ... ... : ... .. . ... ... ... : ... .. . ... ... ... : ... .. . P7F ... ... : ... .. . P80 ... ... : ... .. 5 ... ... ... : ... .. 2 ... ... ... : ... .. . ... ... ... : ... .. . P7A ... ... : ... .. . ... ... ... : ... .. . ... ... ...
ROW F5 : --- .. . ... ... ... : --- .. . ... ... ... : F#3 00 . P78 ... ... : 1-# 00 F ... ... ... : C-1 12 . ... ... ... : --- .. . ... ... ... : E-2 03 . P7F ... ... : B-5 0A B ... ... ... : G#5 0A 8 ... ... ... : ... .. . ... ... ... : ... .. . P7F ... ... : ... .. . ... ... ... : ... .. . ... ... ...
ROW F6 : ... .. . P80 ... ... : ... .. . P80 ... ... : C#3 00 . P7E ... ... : 2-# 00 7 ... ... ... : ... .. . ... ... ... : ... .. . P80 ... ... : ... .. . P80 ... ... : B-5 0B . ... ... ... : G#5 0B . ... ... ... : ... .. . ... ... ... : ... .. . P84 ... ... : ... .. . ... ... ... : ... .. . ... ... ...
ROW F7 : ... .. . ... ... ... : ... .. . ... ... ... : A-2 00 . P86 ... ... : 1-# 00 4 ... ... ... : ... .. . ... ... ... : ... .. . ... ... ... : ... .. . P81 ... ... : B-5 0D . ... ... ... : G#5 0D . ... ... ... : ... .. . ... ... ... : ... .. . P89 ... ... : ... .. . ... ... ... : ... .. . ... ... ...
ROW F8 : ... .. . ... ... ... : ... .. . ... ... ... : F#2 00 . P87 ... ... : ... .. 2 ... ... ... : ... .. . ... ... ... : ... .. . ... ... ... : ... .. . ... ... ... : B-5 0E . ... ... ... : G#5 0E . ... ... ... : ... .. . ... ... ... : ... .. . P8B ... ... : ... .. . ... ... ... : ... .. . ... ... ...
ROW F9 : ... .. . ... ... ... : ... .. . ... ... ... : E-2 00 . P71 ... ... : ... .. 1 ... ... ... : ... .. . ... ... ... : ... .. . ... ... ... : ... .. . P80 ... ... : ... .. A ... ... ... : ... .. 7 ... ... ... : ... .. . ... ... ... : ... .. . P89 ... ... : ... .. . ... ... ... : ... .. . ... ... ...
ROW FA : ... .. . ... ... ... : ... .. . ... ... ... : C#2 00 . P91 ... ... : --- .. . ... ... ... : ... .. . ... ... ... : ... .. . ... ... ... : ... .. . P7F ... ... : B-5 0F . ... ... ... : G#5 0F . ... ... ... : ... .. . ... ... ... : ... .. . P83 ... ... : ... .. . ... ... ... : ... .. . ... ... ...
ROW FB : ... .. . ... ... ... : ... .. . ... ... ... : --- .. . ... ... ... : ... .. . ... ... ... : ... .. . ... ... ... : ... .. . ... ... ... : ... .. . P80 ... ... : ... .. . ... ... ... : ... .. . ... ... ... : ... .. . ... ... ... : ... .. . P7E ... ... : ... .. . ... ... ... : ... .. . ... ... ...
ROW FC : ... .. . ... ... ... : ... .. . ... ... ... : ... .. . ... ... ... : ... .. . ... ... ... : ... .. . ... ... ... : ... .. . ... ... ... : ... .. . P81 ... ... : ... .. . ... ... ... : ... .. . ... ... ... : ... .. . ... ... ... : ... .. . P79 ... ... : ... .. . ... ... ... : ... .. . ... ... ...
ROW FD : ... .. . ... ... ... : ... .. . ... ... ... : ... .. . ... ... ... : ... .. . ... ... ... : ... .. . ... ... ... : ... .. . ... ... ... : ... .. . P80 ... ... : B-5 10 9 ... ... ... : G#5 10 6 ... ... ... : ... .. . ... ... ... : ... .. . P76 ... ... : ... .. . ... ... ... : ... .. . ... ... ...
ROW FE : ... .. . ... ... ... : ... .. . ... ... ... : ... .. . ... ... ... : ... .. . ... ... ... : ... .. . ... ... ... : ... .. . ... ... ... : ... .. . P7F ... ... : ... .. . ... ... ... : ... .. . ... ... ... : ... .. . ... ... ... : ... .. . P77 ... ... : ... .. . ... ... ... : ... .. . ... ... ...
ROW FF : ... .. . ... ... ... : ... .. . ... ... ... : ... .. . ... ... ... : ... .. . ... ... ... : ... .. . ... ... ... : ... .. . ... ... ... : ... .. . P80 ... ... : ... .. . ... ... ... : ... .. . ... ... ... : ... .. . ... ... ... : ... .. . P7B ... ... : ... .. . ... ... ... : ... .. . ... ... ...

PATTERN 02
ROW 00 : ... .. . ... ... ... : ... .. . ... ... ... : ... .. . ... ... ... : ... .. . ... ... ... : ... .. . ... ... ... : ... .. . ... ... ... : ... .. . P81 ... ... : ... .. . ... ... ... : ... .. . ... ... ... : ... .. . ... ... ... : ... .. . P80 ... ... : ... .. . ... ... ... : ... .. . ... ... ...
ROW 01 : ... .. . ... ... ... : ... .. . ... ... ... : ... .. . ... ... ... : ... .. . ... ... ... : ... .. . ... ... ... : ... .. . ... ... ... : ... .. . P80 ... ... : G#5 0A B ... ... ... : E-5 0A 8 ... ... ... : ... .. . ... ... ... : ... .. . P86 ... ... : ... .. . ... ... ... : ... .. . ... ... ...
ROW 02 : ... .. . ... ... ... : ... .. . ... ... ... : ... .. . ... ... ... : ... .. . ... ... ... : ... .. . ... ... ... : ... .. . ... ... ... : ... .. . P7F ... ... : G#5 0B . ... ... ... : E-5 0B . ... ... ... : ... .. . ... ... ... : ... .. . P8A ... ... : ... .. . ... ... ... : ... .. . ... ... ...
ROW 03 : E-3 02 1 P7D ... ... : B-2 02 1 P7D ... ... : ... .. . ... ... ... : ... .. . ... ... ... : ... .. . ... ... ... : G#3 0C 1 ... ... ... : ... .. . P80 ... ... : G#5 0D . ... ... ... : E-5 0D . ... ... ... : ... .. . ... ... ... : ... .. . P8B ... ... : ... .. . ... ... ... : ... .. . ... ... ...
ROW 04 : ... .. . P7E ... ... : ... .. . P7E ... ... : ... .. . ... ... ... : ... .. . ... ... ... : ... .. . ... ... ... : ... .. . P7F ... ... : ... .. . P81 ... ... : G#5 0E . ... ... ... : E-5 0E . ... ... ... : ... .. . ... ... ... : ... .. . P87 ... ... : ... .. . ... ... ... : ... .. . ... ... ...
ROW 05 : ... .. . P80 ... ... : ... .. . P80 ... ... : ... .. . ... ... ... : ... .. . ... ... ... : ... .. . ... ... ... : ... .. . ... ... ... : ... .. . ... ... ... : ... .. A ... ... ... : ... .. 7 ... ... ... : ... .. . ... ... ... : ... .. . P81 ... ... : ... .. . ... ... ... : ... .. . ... ... ...
ROW 06 : ... .. 2 P82 ... ... : ... .. 2 P82 ... ... : ... .. . ... ... ... : ... .. . ... ... ... : ... .. . ... ... ... : ... .. 2 ... ... ... : ... .. . P80 ... ... : G#5 0F . ... ... ... : E-5 0F . ... ... ... : ... .. . ... ... ... : ... .. . P7C ... ... : ... .. . ... ... ... : ... .. . ... ... ...
ROW 07 : ... .. . P83 ... ... : ... .. . P83 ... ... : ... .. . ... ... ... : ... .. . ... ... ... : ... .. . ... ... ... : ... .. . P80 ... ... : ... .. . ... ... ... : ... .. . ... ... ... : ... .. . ... ... ... : ... .. . ... ... ... : ... .. . P77 ... ... : ... .. . ... ... ... : ... .. . ... ... ...
ROW 08 : ... .. 3 P82 ... ... : ... .. 3 P82 ... ... : ... .. . ... ... ... : ... .. . ... ... ... : ... .. . ... ... ... : ... .. 3 P81 ... ... : ... .. . P81 ... ... : ... .. . ... ... ... : ... .. . ... ... ... : ... .. . ... ... ... : ... .. . P76 ... ... : ... .. . ... ... ... : ... .. . ... ... ...
ROW 09 : ... .. . P80 ... ... : ... .. . P80 ... ... : ... .. . ... ... ... : ... .. . ... ... ... : ... .. . ... ... ... : ... .. . P82 ... ... : ... .. . ... ... ... : G#5 10 9 ... ... ... : E-5 10 6 ... ... ... : ... .. . ... ... ... : ... .. . P78 ... ... : ... .. . ... ... ... : ... .. . ... ... ...
ROW 0A : ... .. . P7E ... ... : ... .. . P7E ... ... : ... .. . ... ... ... : ... .. . ... ... ... : ... .. . ... ... ... : ... .. . P81 ... ... : ... .. . P80 ... ... : ... .. . ... ... ... : ... .. . ... ... ... : ... .. . ... ... ... : ... .. . P7D ... ... : ... .. . ... ... ... : ... .. . ... ... ...
ROW 0B : ... .. 4 P7D ... ... : ... .. 4 P7D ... ... : ... .. . ... ... ... : ... .. . ... ... ... : ... .. . ... ... ... : ... .. 4 P80 ... ... : ... .. . P7F ... ... : ... .. . ... ... ... : ... .. . ... ... ... : ... .. . ... ... ... : ... .. . P82 ... ... : ... .. . ... ... ... : ... .. . ... ... ...
ROW 0C : ... .. . P7E ... ... : ... .. . P7E ... ... : ... .. . ... ... ... : ... .. . ... ... ... : ... .. . ... ... ... : ... .. . P7F ... ... : ... .. . P80 ... ... : ... .. . ... ... ... : ... .. . ... ... ... : ... .. . ... ... ... : ... .. . P88 ... ... : ... .. . ... ... ... : ... .. . ... ... ...
ROW 0D : ... .. . P80 ... ... : ... .. . P80 ... ... : ... .. . ... ... ... : ... .. . ... ... ... : ... .. . ... ... ... : ... .. . ... ... ... : ... .. . P81 ... ... : G#5 11 8 ... ... ... : E-5 11 5 ... ... ... : ... .. . ... ... ... : ... .. . P8B ... ... : ... .. . ... ... ... : ... .. . ... ... ...
ROW 0E : --- .. . ... ... ... : --- .. . ... ... ... : ... .. . ... ... ... : ... .. . ... ... ... : ... .. . ... ... ... : --- .. . ... ... ... : ... .. . P80 ... ... : F#5 0A B ... ... ... : E-5 0A 8 ... ... ... : ... .. . ... ... ... : ... .. . P8A ... ... : ... .. . ... ... ... : ... .. . ... ... ...
ROW 0F : ... .. . ... ... ... : ... .. . ... ... ... : ... .. . ... ... ... : ... .. . ... ... ... : ... .. . ... ... ... : ... .. . P80 ... ... : ... .. . P7F ... ... : F#5 0B . ... ... ... : E-5 0B . ... ... ... : ... .. . ... ... ... : ... .. . P85 ... ... : ... .. . ... ... ... : ... .. . ... ... ...
ROW 10 : ... .. . ... ... ... : ... .. . ... ... ... : ... .. . ... ... ... : ... .. . ... ... ... : ... .. . ... ... ... : ... .. . ... ... ... : ... .. . P80 ... ... : F#5 0D . ... ... ... : E-5 0D . ... ... ... : ... .. . ... ... ... : ... .. . P80 ... ... : ... .. . ... ... ... : ... .. . ... ... ...
ROW 11 : ... .. . ... ... ... : ... .. . ... ... ... : ... .. . ... ... ... : ... .. . ... ... ... : ... .. . ... ... ... : ... .. . ... ... ... : ... .. . P81 ... ... : F#5 0E . ... ... ... : E-5 0E . ... ... ... : ... .. . ... ... ... : ... .. . P7A ... ... : ... .. . ... ... ... : ... .. . ... ... ...
ROW 12 : ... .. . ... ... ... : ... .. . ... ... ... : ... .. . ... ... ... : ... .. . ... ... ... : ... .. . ... ... ... : ... .. . ... ... ... : ... .. . P80 ... ... : ... .. A ... ... ... : ... .. 7 ... ... ... : ... .. . ... ... ... : ... .. . P76 ... ... : ... .. . ... ... ... : ... .. . ... ... ...
ROW 13 : ... .. . ... ... ... : ... .. . ... ... ... : ... .. . ... ... ... : ... .. . ... ... ... : ... .. . ... ... ... : ... .. . ... ... ... : ... .. . P7F ... ... : F#5 0F . ... ... ... : E-5 0F . ... ... ... : ... .. . ... ... ... : ... .. . ... ... ... : ... .. . ... ... ... : ... .. . ... ... ...
ROW 14 : ... .. . ... ... ... : ... .. . ... ... ... : ... .. . ... ... ... : ... .. . ... ... ... : ... .. . ... ... ... : ... .. . ... ... ... : ... .. . P80 ... ... : ... .. . ... ... ... : ... .. . ... ... ... : ... .. . ... ... ... : ... .. . P7A ... ... : ... .. . ... ... ... : ... .. . ... ... ...
ROW 15 : ... .. . ... ... ... : ... .. . ... ... ... : ... .. . ... ... ... : ... .. . ... ... ... : ... .. . ... ... ... : ... .. . ... ... ... : ... .. . P81 ... ... : ... .. . ... ... ... : ... .. . ... ... ... : ... .. . ... ... ... : ... .. . P7F ... ... : ... .. . ... ... ... : ... .. . ... ... ...
ROW 16 : ... .. . ... ... ... : ... .. . ... ... ... : ... .. . ... ... ... : ... .. . ... ... ... : ... .. . ... ... ... : ... .. . ... ... ... : ... .. . ... ... ... : F#5 10 9 ... ... ... : E-5 10 6 ... ... ... : ... .. . ... ... ... : ... .. . P84 ... ... : ... .. . ... ... ... : ... .. . ... ... ...
ROW 17 : ... .. . ... ... ... : ... .. . ... ... ... : ... .. . ... ... ... : ... .. . ... ... ... : ... .. . ... ... ... : ... .. . ... ... ... : ... .. . P80 ... ... : ... .. . ... ... ... : ... .. . ... ... ... : ... .. . ... ... ... : ... .. . P89 ... ... : ... .. . ... ... ... : ... .. . ... ... ...
ROW 18 : ... .. . ... ... ... : ... .. . ... ... ... : ... .. . ... ... ... : ... .. . ... ... ... : ... .. . ... ... ... : ... .. . ... ... ... : ... .. . ... ... ... : ... .. . ... ... ... : ... .. . ... ... ... : ... .. . ... ... ... : ... .. . P8B ... ... : ... .. . ... ... ... : ... .. . ... ... ...
ROW 19 : ... .. . ... ... ... : ... .. . ... ... ... : ... .. . ... ... ... : ... .. . ... ... ... : ... .. . ... ... ... : ... .. . ... ... ... : ... .. . P81 ... ... : ... .. . ... ... ... : ... .. . ... ... ... : ... .. . ... ... ... : ... .. . P89 ... ... : ... .. . ... ... ... : ... .. . ... ... ...
ROW 1A : ... .. . ... ... ... : ... .. . ... ... ... : F#3 00 . P78 ... ... : 1-# 00 F ... ... ... : C-1 12 . ... ... ... : ... .. . ... ... ... : ... .. . ... ... ... : G#5 0A B ... ... ... : E-5 0A 8 ... ... ... : ... .. . ... ... ... : ... .. . P83 ... ... : ... .. . ... ... ... : ... .. . ... ... ...
ROW 1B : ... .. . ... ... ... : ... .. . ... ... ... : C#3 00 . P7E ... ... : 2-# 00 7 ... ... ... : ... .. . ... ... ... : ... .. . ... ... ... : ... .. . P80 ... ... : G#5 0B . ... ... ... : E-5 0B . ... ... ... : ... .. . ... ... ... : ... .. . P7E ... ... : ... .. . ... ... ... : ... .. . ... ... ...
ROW 1C : E-3 02 1 P7E ... ... : B-2 02 1 P7E ... ... : A-2 00 . P86 ... ... : 1-# 00 4 ... ... ... : ... .. . ... ... ... : G#3 0C 1 P7F ... ... : ... .. . P7F ... ... : G#5 0D . ... ... ... : E-5 0D . ... ... ... : ... .. . ... ... ... : ... .. . P79 ... ... : ... .. . ... ... ... : ... .. . ... ... ...
ROW 1D : ... .. . P80 ... ... : ... .. . P80 ... ... : F#2 00 . P87 ... ... : ... .. 2 ... ... ... : ... .. . ... ... ... : ... .. . ... ... ... : ... .. . P80 ... ... : G#5 0E . ... ... ... : E-5 0E . ... ... ... : ... .. . ... ... ... : ... .. . P76 ... ... : ... .. . ... ... ... : ... .. . ... ... ...
ROW 1E : ... .. . P82 ... ... : ... .. . P82 ... ... : E-2 00 . P71 ... ... : ... .. 1 ... ... ... : ... .. . ... ... ... : ... .. . ... ... ... : ... .. . P81 ... ... : ... .. A ... ... ... : ... .. 7 ... ... ... : ... .. . ... ... ... : ... .. . P77 ... ... : ... .. . ... ... ... : ... .. . ... ... ...
ROW 1F : ... .. 2 P83 ... ... : ... .. 2 P83 ... ... : C#2 00 . P91 ... ... : --- .. . ... ... ... : ... .. . ... ... ... : ... .. 2 P80 ... ... : ... .. . P80 ... ... : G#5 0F . ... ... ... : E-5 0F . ... ... ... : ... .. . ... ... ... : ... .. . P7B ... ... : ... .. . ... ... ... : ... .. . ... ... ...
ROW 20 : ... .. . P82 ... ... : ... .. . P82 ... ... : --- .. . ... ... ... : ... .. . ... ... ... : ... .. . ... ... ... : ... .. . P81 ... ... : ... .. . P7F ... ... : ... .. . ... ... ... : ... .. . ... ... ... : ... .. . ... ... ... : ... .. . P80 ... ... : ... .. . ... ... ... : ... .. . ... ... ...
ROW 21 : ... .. 3 P80 ... ... : ... .. 3 P80 ... ... : ... .. . ... ... ... : ... .. . ... ... ... : ... .. . ... ... ... : ... .. 3 P82 ... ... : ... .. . P80 ... ... : ... .. . ... ... ... : ... .. . ... ... ... : ... .. . ... ... ... : ... .. . P86 ... ... : ... .. . ... ... ... : ... .. . ... ... ...
ROW 22 : ... .. . P7E ... ... : ... .. . P7E ... ... : ... .. . ... ... ... : ... .. . ... ... ... : ... .. . ... ... ... : ... .. . P81 ... ... : ... .. . P81 ... ... : G#5 10 9 ... ... ... : E-5 10 6 ... ... ... : ... .. . ... ... ... : ... .. . P8A ... ... : ... .. . ... ... ... : ... .. . ... ... ...
ROW 23 : ... .. . P7D ... ... : ... .. . P7D ... ... : ... .. . ... ... ... : ... .. . ... ... ... : ... .. . ... ... ... : ... .. . P80 ... ... : ... .. . P80 ... ... : ... .. . ... ... ... : ... .. . ... ... ... : ... .. . ... ... ... : ... .. . P8B ... ... : ... .. . ... ... ... : ... .. . ... ... ...
ROW 24 : ... .. 4 P7E ... ... : ... .. 4 P7E ... ... : ... .. . ... ... ... : ... .. . ... ... ... : ... .. . ... ... ... : ... .. 4 P7F ... ... : ... .. . P7F ... ... : ... .. . ... ... ... : ... .. . ... ... ... : ... .. . ... ... ... : ... .. . P87 ... ... : ... .. . ... ... ... : ... .. . ... ... ...
ROW 25 : ... .. . P80 ... ... : ... .. . P80 ... ... : ... .. . ... ... ... : ... .. . ... ... ... : ... .. . ... ... ... : ... .. . ... ... ... : ... .. . P80 ... ... : ... .. . ... ... ... : ... .. . ... ... ... : ... .. . ... ... ... : ... .. . P81 ... ... : ... .. . ... ... ... : ... .. . ... ... ...
ROW 26 : ... .. . P82 ... ... : ... .. . P82 ... ... : ... .. . ... ... ... : ... .. . ... ... ... : ... .. . ... ... ... : ... .. . ... ... ... : ... .. . P81 ... ... : G#5 11 8 ... ... ... : E-5 11 5 ... ... ... : ... .. . ... ... ... : ... .. . P7C ... ... : ... .. . ... ... ... : ... .. . ... ... ...
ROW 27 : --- .. . ... ... ... : --- .. . ... ... ... : C#4 00 . P7F ... ... : 9-# 00 F ... ... ... : C#1 12 . ... ... ... : --- .. . ... ... ... : ... .. . ... ... ... : ... .. . ... ... ... : ... .. . ... ... ... : ... .. . ... ... ... : ... .. . P77 ... ... : ... .. . ... ... ... : ... .. . ... ... ...
ROW 28 : ... .. . P80 ... ... : ... .. . P80 ... ... : F#3 00 . P83 ... ... : 2-# 00 7 ... ... ... : ... .. . ... ... ... : ... .. . P80 ... ... : ... .. . P80 ... ... : ... .. . ... ... ... : ... .. . ... ... ... : ... .. . ... ... ... : ... .. . P76 ... ... : ... .. . ... ... ... : ... .. . ... ... ...
ROW 29 : ... .. . ... ... ... : ... .. . ... ... ... : C#3 00 . P89 ... ... : 6-# 00 C ... ... ... : ... .. . ... ... ... : ... .. . ... ... ... : ... .. . ... ... ... : ... .. . ... ... ... : ... .. . ... ... ... : ... .. . ... ... ... : ... .. . P78 ... ... : ... .. . ... ... ... : ... .. . ... ... ...
ROW 2A : ... .. . ... ... ... : ... .. . ... ... ... : A#2 00 . P75 ... ... : 7-# 00 8 ... ... ... : ... .. . ... ... ... : ... .. . ... ... ... : ... .. . P81 ... ... : ... .. 7 ... ... ... : ... .. 4 ... ... ... : ... .. . ... ... ... : ... .. . P7D ... ... : ... .. . ... ... ... : ... .. . ... ... ...
ROW 2B : ... .. . ... ... ... : ... .. . ... ... ... : G-2 00 . P70 ... ... : 8-# 00 7 ... ... ... : ... .. . ... ... ... : ... .. . ... ... ... : ... .. . ... ... ... : ... .. . ... ... ... : ... .. . ... ... ... : ... .. . ... ... ... : ... .. . P82 ... ... : ... .. . ... ... ... : ... .. . ... ... ...
ROW 2C : ... .. . ... ... ... : ... .. . ... ... ... : E-2 00 . P7C ... ... : ... .. 6 ... ... ... : ... .. . ... ... ... : ... .. . ... ... ... : ... .. . P80 ... ... : ... .. . ... ... ... : ... .. . ... ... ... : ... .. . ... ... ... : ... .. . P88 ... ... : ... .. . ... ... ... : ... .. . ... ... ...
ROW 2D : ... .. . ... ... ... : ... .. . ... ... ... : D-2 00 . P6F ... ... : ... .. . ... ... ... : ... .. . ... ... ... : ... .. . ... ... ... : ... .. . P7F ... ... : ... .. . ... ... ... : ... .. . ... ... ... : ... .. . ... ... ... : ... .. . P8B ... ... : ... .. . ... ... ... : ... .. . ... ... ...
ROW 2E : ... .. . ... ... ... : ... .. . ... ... ... : C-2 00 . P6C ... ... : ... .. 5 ... ... ... : ... .. . ... ... ... : ... .. . ... ... ... : ... .. . P80 ... ... : ... .. 6 ... ... ... : ... .. 3 ... ... ... : ... .. . ... ... ... : ... .. . P8A ... ... : ... .. . ... ... ... : ... .. . ... ... ...
ROW 2F : ... .. . ... ... ... : ... .. . ... ... ... : A#1 00 . P75 ... ... : ... .. . ... ... ... : ... .. . ... ... ... : ... .. . ... ... ... : ... .. . P81 ... ... : ... .. . ... ... ... : ... .. . ... ... ... : ... .. . ... ... ... : ... .. . P85 ... ... : ... .. . ... ... ... : ... .. . ... ... ...
ROW 30 : ... .. . ... ... ... : ... .. . ... ... ... : G#1 00 . P8A ... ... : ... .. 4 ... ... ... : ... .. . ... ... ... : ... .. . ... ... ... : ... .. . P80 ... ... : ... .. . ... ... ... : ... .. . ... ... ... : ... .. . ... ... ... : ... .. . P80 ... ... : ... .. . ... ... ... : ... .. . ... ... ...
ROW 31 : ... .. . ... ... ... : ... .. . ... ... ... : G-1 00 . P6A ... ... : ... .. . ... ... ... : ... .. . ... ... ... : ... .. . ... ... ... : ... .. . P7F ... ... : ... .. . ... ... ... : ... .. . ... ... ... : ... .. . ... ... ... : ... .. . P7A ... ... : ... .. . ... ... ... : ... .. . ... ... ...
ROW 32 : ... .. . ... ... ... : ... .. . ... ... ... : F-1 00 . P96 ... ... : ... .. 3 ... ... ... : ... .. . ... ... ... : ... .. . ... ... ... : ... .. . P80 ... ... : ... .. 5 ... ... ... : ... .. 2 ... ... ... : ... .. . ... ... ... : ... .. . P76 ... ... : ... .. . ... ... ... : ... .. . ... ... ...
ROW 33 : ... .. . ... ... ... : ... .. . ... ... ... : --- .. . ... ... ... : ... .. . ... ... ... : ... .. . ... ... ... : ... .. . ... ... ... : ... .. . P81 ... ... : ... .. . ... ... ... : ... .. . ... ... ... : ... .. . ... ... ... : ... .. . ... ... ... : ... .. . ... ... ... : ... .. . ... ... ...
ROW 34 : ... .. . ... ... ... : ... .. . ... ... ... : ... .. . ... ... ... : ... .. . ... ... ... : ... .. . ... ... ... : ... .. . ... ... ... : ... .. . P80 ... ... : ... .. . ... ... ... : ... .. . ... ... ... : ... .. . ... ... ... : C#5 03 . P7A ... ... : ... .. . ... ... ... : ... .. . ... ... ...
ROW 35 : E-3 02 1 ... ... ... : B-2 02 1 ... ... ... : ... .. . ... ... ... : ... .. . ... ... ... : ... .. . ... ... ... : G#3 0C 1 P7F ... ... : ... .. . P7F ... ... : ... .. . ... ... ... : ... .. . ... ... ... : ... .. . ... ... ... : ... .. . P7F ... ... : ... .. . ... ... ... : ... .. . ... ... ...
ROW 36 : ... .. . P82 ... ... : ... .. . P82 ... ... : ... .. . ... ... ... : ... .. 2 ... ... ... : ... .. . ... ... ... : ... .. . ... ... ... : ... .. . P80 ... ... : ... .. 4 ... ... ... : ... .. 1 ... ... ... : ... .. . ... ... ... : ... .. . P84 ... ... : ... .. . ... ... ... : ... .. . ... ... ...
ROW 37 : ... .. . P83 ... ... : ... .. . P83 ... ... : ... .. . ... ... ... : ... .. . ... ... ... : ... .. . ... ... ... : ... .. . P80 ... ... : ... .. . P81 ... ... : ... .. . ... ... ... : ... .. . ... ... ... : ... .. . ... ... ... : ... .. . P89 ... ... : ... .. . ... ... ... : ... .. . ... ... ...
ROW 38 : ... .. 2 P82 ... ... : ... .. 2 P82 ... ... : ... .. . ... ... ... : ... .. . ... ... ... : ... .. . ... ... ... : ... .. 2 P81 ... ... : ... .. . ... ... ... : ... .. . ... ... ... : ... .. . ... ... ... : ... .. . ... ... ... : ... .. . P8B ... ... : ... .. . ... ... ... : ... .. . ... ... ...
ROW 39 : ... .. . P80 ... ... : ... .. . P80 ... ... : ... .. . ... ... ... : ... .. . ... ... ... : ... .. . ... ... ... : ... .. . P82 ... ... : ... .. . P80 ... ... : ... .. . ... ... ... : ... .. . ... ... ... : ... .. . ... ... ... : ... .. . P89 ... ... : ... .. . ... ... ... : ... .. . ... ... ...
ROW 3A : ... .. 3 P7E ... ... : ... .. 3 P7E ... ... : ... .. . ... ... ... : ... .. 1 ... ... ... : ... .. . ... ... ... : ... .. 3 P81 ... ... : ... .. . P7F ... ... : ... .. 3 ... ... ... : --- .. . ... ... ... : ... .. . ... ... ... : ... .. . P83 ... ... : ... .. . ... ... ... : ... .. . ... ... ...
ROW 3B : ... .. . P7D ... ... : ... .. . P7D ... ... : ... .. . ... ... ... : ... .. . ... ... ... : ... .. . ... ... ... : ... .. . P80 ... ... : ... .. . P80 ... ... : ... .. . ... ... ... : ... .. . ... ... ... : ... .. . ... ... ... : ... .. . P7E ... ... : ... .. . ... ... ... : ... .. . ... ... ...
ROW 3C : ... .. . P7E ... ... : ... .. . P7E ... ... : ... .. . ... ... ... : ... .. . ... ... ... : ... .. . ... ... ... : ... .. . P7F ... ... : ... .. . P81 ... ... : ... .. . ... ... ... : ... .. . ... ... ... : ... .. . ... ... ... : ... .. . P79 ... ... : ... .. . ... ... ... : ... .. . ... ... ...
ROW 3D : ... .. 4 P80 ... ... : ... .. 4 P80 ... ... : ... .. . ... ... ... : ... .. . ... ... ... : ... .. . ... ... ... : ... .. 4 ... ... ... : ... .. . P80 ... ... : ... .. . ... ... ... : ... .. . ... ... ... : ... .. . ... ... ... : ... .. . P76 ... ... : ... .. . ... ... ... : ... .. . ... ... ...
ROW 3E : ... .. . P82 ... ... : ... .. . P82 ... ... : ... .. . ... ... ... : ... .. . ... ... ... : ... .. . ... ... ... : ... .. . ... ... ... : ... .. . P7F ... ... : ... .. 2 ... ... ... : ... .. . ... ... ... : ... .. . ... ... ... : ... .. . P77 ... ... : ... .. . ... ... ... : ... .. . ... ... ...
ROW 3F : ... .. . P83 ... ... : ... .. . P83 ... ... : ... .. . ... ... ... : --- .. . ... ... ... : ... .. . ... ... ... : ... .. . P80 ... ... : ... .. . P80 ... ... : ... .. . ... ... ... : ... .. . ... ... ... : ... .. . ... ... ... : ... .. . P7B ... ... : ... .. . ... ... ... : ... .. . ... ... ...
ROW 40 : --- .. . ... ... ... : --- .. . ... ... ... : F#3 00 . P78 ... ... : 1-# 00 F ... ... ... : C-1 12 . ... ... ... : --- .. . ... ... ... : ... .. . P81 ... ... : G#5 0A . ... ... ... : C-5 0A 8 ... ... ... : ... .. . ... ... ... : ... .. . P80 ... ... : ... .. . ... ... ... : ... .. . ... ... ...
ROW 41 : ... .. . P80 ... ... : ... .. . P80 ... ... : C#3 00 . P7E ... ... : 2-# 00 7 ... ... ... : ... .. . ... ... ... : ... .. . ... ... ... : ... .. . P80 ... ... : G#5 0B . ... ... ... : C-5 0B . ... ... ... : ... .. . ... ... ... : ... .. . P86 ... ... : ... .. . ... ... ... : ... .. . ... ... ...
ROW 42 : ... .. . ... ... ... : ... .. . ... ... ... : A-2 00 . P86 ... ... : 1-# 00 4 ... ... ... : ... .. . ... ... ... : ... .. . ... ... ... : ... .. . P7F ... ... : G#5 0D 1 ... ... ... : C-5 0D . ... ... ... : ... .. . ... ... ... : ... .. . P8A ... ... : ... .. . ... ... ... : ... .. . ... ... ...
ROW 43 : ... .. . ... ... ... : ... .. . ... ... ... : F#2 00 . P87 ... ... : ... .. 2 ... ... ... : ... .. . ... ... ... : ... .. . ... ... ... : ... .. . P80 ... ... : G#5 0E . ... ... ... : C-5 0E . ... ... ... : ... .. . ... ... ... : ... .. . P8B ... ... : ... .. . ... ... ... : ... .. . ... ... ...
ROW 44 : ... .. . ... ... ... : ... .. . ... ... ... : E-2 00 . P71 ... ... : ... .. 1 ... ... ... : ... .. . ... ... ... : ... .. . ... ... ... : ... .. . P81 ... ... : ... .. . ... ... ... : ... .. . ... ... ... : ... .. . ... ... ... : ... .. . P87 ... ... : ... .. . ... ... ... : ... .. . ... ... ...
ROW 45 : ... .. . ... ... ... : ... .. . ... ... ... : C#2 00 . P91 ... ... : --- .. . ... ... ... : ... .. . ... ... ... : ... .. . ... ... ... : ... .. . ... ... ... : G#5 0F . ... ... ... : C-5 0F . ... ... ... : ... .. . ... ... ... : ... .. . P81 ... ... : ... .. . ... ... ... : ... .. . ... ... ...
ROW 46 : ... .. . ... ... ... : ... .. . ... ... ... : --- .. . ... ... ... : ... .. . ... ... ... : ... .. . ... ... ... : ... .. . ... ... ... : ... .. . P80 ... ... : --- .. . ... ... ... : ... .. . ... ... ... : ... .. . ... ... ... : ... .. . P7C ... ... : ... .. . ... ... ... : ... .. . ... ... ...
ROW 47 : ... .. . ... ... ... : ... .. . ... ... ... : ... .. . ... ... ... : ... .. . ... ... ... : ... .. . ... ... ... : ... .. . ... ... ... : ... .. . ... ... ... : ... .. . ... ... ... : ... .. . ... ... ... : ... .. . ... ... ... : ... .. . P77 ... ... : ... .. . ... ... ... : ... .. . ... ... ...
ROW 48 : ... .. . ... ... ... : ... .. . ... ... ... : ... .. . ... ... ... : ... .. . ... ... ... : ... .. . ... ... ... : ... .. . ... ... ... : ... .. . P81 ... ... : ... .. . ... ... ... : C-5 10 7 ... ... ... : ... .. . ... ... ... : ... .. . P76 ... ... : ... .. . ... ... ... : ... .. . ... ... ...
ROW 49 : ... .. . ... ... ... : ... .. . ... ... ... : ... .. . ... ... ... : ... .. . ... ... ... : ... .. . ... ... ... : ... .. . ... ... ... : ... .. . ... ... ... : ... .. . ... ... ... : ... .. . ... ... ... : ... .. . ... ... ... : ... .. . P78 ... ... : ... .. . ... ... ... : ... .. . ... ... ...
ROW 4A : ... .. . ... ... ... : ... .. . ... ... ... : ... .. . ... ... ... : ... .. . ... ... ... : ... .. . ... ... ... : ... .. . ... ... ... : ... .. . P80 ... ... : ... .. . ... ... ... : ... .. . ... ... ... : ... .. . ... ... ... : ... .. . P7D ... ... : ... .. . ... ... ... : ... .. . ... ... ...
ROW 4B : ... .. . ... ... ... : ... .. . ... ... ... : ... .. . ... ... ... : ... .. . ... ... ... : ... .. . ... ... ... : ... .. . ... ... ... : ... .. . P7F ... ... : ... .. . ... ... ... : ... .. . ... ... ... : ... .. . ... ... ... : ... .. . P82 ... ... : ... .. . ... ... ... : ... .. . ... ... ...
ROW 4C : ... .. . ... ... ... : ... .. . ... ... ... : ... .. . ... ... ... : ... .. . ... ... ... : ... .. . ... ... ... : ... .. . ... ... ... : ... .. . P80 ... ... : ... .. . ... ... ... : C-5 11 . ... ... ... : ... .. . ... ... ... : ... .. . P88 ... ... : ... .. . ... ... ... : ... .. . ... ... ...
ROW 4D : ... .. . ... ... ... : ... .. . ... ... ... : ... .. . ... ... ... : ... .. . ... ... ... : ... .. . ... ... ... : ... .. . ... ... ... : ... .. . P81 ... ... : ... .. . ... ... ... : ... .. . ... ... ... : ... .. . ... ... ... : D#5 03 . P8B ... ... : ... .. . ... ... ... : ... .. . ... ... ...
ROW 4E : E-3 02 1 P82 ... ... : B-2 02 1 P82 ... ... : ... .. . ... ... ... : ... .. . ... ... ... : ... .. . ... ... ... : G#3 0C 1 P7F ... ... : ... .. . P80 ... ... : ... .. . ... ... ... : ... .. . ... ... ... : ... .. . ... ... ... : ... .. . P8A ... ... : ... .. . ... ... ... : ... .. . ... ... ...
ROW 4F : ... .. . P83 ... ... : ... .. . P83 ... ... : ... .. . ... ... ... : ... .. . ... ... ... : ... .. . ... ... ... : ... .. . P80 ... ... : ... .. . P7F ... ... : ... .. . ... ... ... : ... .. . ... ... ... : ... .. . ... ... ... : ... .. . P85 ... ... : ... .. . ... ... ... : ... .. . ... ... ...
ROW 50 : ... .. . P82 ... ... : ... .. . P82 ... ... : ... .. . ... ... ... : ... .. . ... ... ... : ... .. . ... ... ... : ... .. . P81 ... ... : ... .. . P80 ... ... : ... .. . ... ... ... : ... .. 6 ... ... ... : ... .. . ... ... ... : ... .. . P80 ... ... : ... .. . ... ... ... : ... .. . ... ... ...
ROW 51 : ... .. 2 P80 ... ... : ... .. 2 P80 ... ... : ... .. . ... ... ... : ... .. . ... ... ... : ... .. . ... ... ... : ... .. 2 P82 ... ... : ... .. . P81 ... ... : ... .. . ... ... ... : ... .. . ... ... ... : ... .. . ... ... ... : ... .. . P7A ... ... : ... .. . ... ... ... : ... .. . ... ... ...
ROW 52 : ... .. . P7E ... ... : ... .. . P7E ... ... : ... .. . ... ... ... : ... .. . ... ... ... : ... .. . ... ... ... : ... .. . P81 ... ... : ... .. . P80 ... ... : ... .. . ... ... ... : ... .. . ... ... ... : ... .. . ... ... ... : ... .. . P76 ... ... : ... .. . ... ... ... : ... .. . ... ... ...
ROW 53 : ... .. 3 P7D ... ... : ... .. 3 P7D ... ... : ... .. . ... ... ... : ... .. . ... ... ... : ... .. . ... ... ... : ... .. 3 P80 ... ... : ... .. . P7F ... ... : ... .. . ... ... ... : ... .. . ... ... ... : ... .. . ... ... ... : ... .. . ... ... ... : ... .. . ... ... ... : ... .. . ... ... ...
ROW 54 : ... .. . P7E ... ... : ... .. . P7E ... ... : ... .. . ... ... ... : ... .. . ... ... ... : ... .. . ... ... ... : ... .. . P7F ... ... : ... .. . P80 ... ... : ... .. . ... ... ... : ... .. . ... ... ... : ... .. . ... ... ... : ... .. . P7A ... ... : ... .. . ... ... ... : ... .. . ... ... ...
ROW 55 : ... .. . P80 ... ... : ... .. . P80 ... ... : ... .. . ... ... ... : ... .. . ... ... ... : ... .. . ... ... ... : ... .. . ... ... ... : ... .. . P81 ... ... : ... .. . ... ... ... : ... .. . ... ... ... : ... .. . ... ... ... : ... .. . P7F ... ... : ... .. . ... ... ... : ... .. . ... ... ...
ROW 56 : ... .. 4 P82 ... ... : ... .. 4 P82 ... ... : ... .. . ... ... ... : ... .. . ... ... ... : ... .. . ... ... ... : ... .. 4 ... ... ... : ... .. . ... ... ... : ... .. . ... ... ... : ... .. . ... ... ... : ... .. . ... ... ... : ... .. . P84 ... ... : ... .. . ... ... ... : ... .. . ... ... ...
ROW 57 : ... .. . P83 ... ... : ... .. . P83 ... ... : ... .. . ... ... ... : ... .. . ... ... ... : ... .. . ... ... ... : ... .. . P80 ... ... : ... .. . P80 ... ... : ... .. . ... ... ... : ... .. . ... ... ... : ... .. . ... ... ... : ... .. . P89 ... ... : ... .. . ... ... ... : ... .. . ... ... ...
ROW 58 : ... .. . P82 ... ... : ... .. . P82 ... ... : ... .. . ... ... ... : ... .. . ... ... ... : ... .. . ... ... ... : ... .. . P81 ... ... : ... .. . ... ... ... : ... .. . ... ... ... : ... .. 5 ... ... ... : ... .. . ... ... ... : ... .. . P8B ... ... : ... .. . ... ... ... : ... .. . ... ... ...
ROW 59 : --- .. . ... ... ... : --- .. . ... ... ... : F#3 00 . P78 ... ... : 1-# 00 F ... ... ... : C-1 12 . ... ... ... : --- .. . ... ... ... : F#2 03 . P81 ... ... : ... .. . ... ... ... : C#5 0A 8 ... ... ... : ... .. . ... ... ... : ... .. . P89 ... ... : ... .. . ... ... ... : ... .. . ... ... ...
ROW 5A : ... .. . P80 ... ... : ... .. . P80 ... ... : C#3 00 . P7E ... ... : 2-# 00 7 ... ... ... : ... .. . ... ... ... : ... .. . P80 ... ... : ... .. . ... ... ... : ... .. . ... ... ... : C#5 0B . ... ... ... : ... .. . ... ... ... : ... .. . P83 ... ... : ... .. . ... ... ... : ... .. . ... ... ...
ROW 5B : ... .. . ... ... ... : ... .. . ... ... ... : A-2 00 . P86 ... ... : 1-# 00 4 ... ... ... : ... .. . ... ... ... : ... .. . ... ... ... : ... .. . P80 ... ... : ... .. . ... ... ... : C#5 0D . ... ... ... : ... .. . ... ... ... : ... .. . P7E ... ... : ... .. . ... ... ... : ... .. . ... ... ...
ROW 5C : ... .. . ... ... ... : ... .. . ... ... ... : F#2 00 . P87 ... ... : ... .. 2 ... ... ... : ... .. . ... ... ... : ... .. . ... ... ... : ... .. . P7F ... ... : ... .. . ... ... ... : C#5 0E . ... ... ... : ... .. . ... ... ... : ... .. . P79 ... ... : ... .. . ... ... ... : ... .. . ... ... ...
ROW 5D : ... .. . ... ... ... : ... .. . ... ... ... : E-2 00 . P71 ... ... : ... .. 1 ... ... ... : ... .. . ... ... ... : ... .. . ... ... ... : ... .. . P80 ... ... : ... .. . ... ... ... : ... .. . ... ... ... : ... .. . ... ... ... : ... .. . P76 ... ... : ... .. . ... ... ... : ... .. . ... ... ...
ROW 5E : ... .. . ... ... ... : ... .. . ... ... ... : C#2 00 . P91 ... ... : --- .. . ... ... ... : ... .. . ... ... ... : ... .. . ... ... ... : ... .. . P81 ... ... : ... .. . ... ... ... : C#5 0F . ... ... ... : ... .. . ... ... ... : ... .. . P77 ... ... : ... .. . ... ... ... : ... .. . ... ... ...
ROW 5F : ... .. . ... ... ... : ... .. . ... ... ... : --- .. . ... ... ... : ... .. . ... ... ... : ... .. . ... ... ... : ... .. . ... ... ... : ... .. . P80 ... ... : ... .. . ... ... ... : ... .. . ... ... ... : ... .. . ... ... ... : ... .. . P7B ... ... : ... .. . ... ... ... : ... .. . ... ... ...
ROW 60 : ... .. . ... ... ... : ... .. . ... ... ... : ... .. . ... ... ... : ... .. . ... ... ... : ... .. . ... ... ... : ... .. . ... ... ... : ... .. . P7F ... ... : ... .. . ... ... ... : ... .. . ... ... ... : ... .. . ... ... ... : ... .. . P80 ... ... : ... .. . ... ... ... : ... .. . ... ... ...
ROW 61 : ... .. . ... ... ... : ... .. . ... ... ... : ... .. . ... ... ... : ... .. . ... ... ... : ... .. . ... ... ... : ... .. . ... ... ... : ... .. . P80 ... ... : ... .. . ... ... ... : C#5 10 7 ... ... ... : ... .. . ... ... ... : ... .. . P86 ... ... : ... .. . ... ... ... : ... .. . ... ... ...
ROW 62 : ... .. . ... ... ... : ... .. . ... ... ... : ... .. . ... ... ... : ... .. . ... ... ... : ... .. . ... ... ... : ... .. . ... ... ... : ... .. . P81 ... ... : ... .. . ... ... ... : ... .. . ... ... ... : ... .. . ... ... ... : ... .. . P8A ... ... : ... .. . ... ... ... : ... .. . ... ... ...
ROW 63 : ... .. . ... ... ... : ... .. . ... ... ... : ... .. . ... ... ... : ... .. . ... ... ... : ... .. . ... ... ... : ... .. . ... ... ... : ... .. . P80 ... ... : ... .. . ... ... ... : ... .. . ... ... ... : ... .. . ... ... ... : ... .. . P8B ... ... : ... .. . ... ... ... : ... .. . ... ... ...
ROW 64 : ... .. . ... ... ... : ... .. . ... ... ... : ... .. . ... ... ... : ... .. . ... ... ... : ... .. . ... ... ... : ... .. . ... ... ... : ... .. . P7F ... ... : ... .. . ... ... ... : ... .. . ... ... ... : ... .. . ... ... ... : ... .. . P87 ... ... : ... .. . ... ... ... : ... .. . ... ... ...
ROW 65 : ... .. . ... ... ... : ... .. . ... ... ... : ... .. . ... ... ... : ... .. . ... ... ... : ... .. . ... ... ... : ... .. . ... ... ... : ... .. . P80 ... ... : G#5 11 B ... ... ... : C#5 11 . ... ... ... : ... .. . ... ... ... : ... .. . P81 ... ... : ... .. . ... ... ... : ... .. . ... ... ...
ROW 66 : ... .. . ... ... ... : ... .. . ... ... ... : ... .. . ... ... ... : ... .. . ... ... ... : ... .. . ... ... ... : ... .. . ... ... ... : ... .. . P81 ... ... : ... .. . ... ... ... : ... .. . ... ... ... : ... .. . ... ... ... : ... .. . P7C ... ... : ... .. . ... ... ... : ... .. . ... ... ...
ROW 67 : F#3 02 1 P83 ... ... : C#3 02 1 P83 ... ... : ... .. . ... ... ... : ... .. . ... ... ... : ... .. . ... ... ... : A#3 0C 1 ... ... ... : ... .. . ... ... ... : ... .. . ... ... ... : ... .. . ... ... ... : ... .. . ... ... ... : ... .. . P77 ... ... : ... .. . ... ... ... : ... .. . ... ... ...
ROW 68 : ... .. . P82 ... ... : ... .. . P82 ... ... : ... .. . ... ... ... : ... .. . ... ... ... : ... .. . ... ... ... : ... .. . P81 ... ... : ... .. . P80 ... ... : ... .. . ... ... ... : ... .. . ... ... ... : ... .. . ... ... ... : ... .. . P76 ... ... : ... .. . ... ... ... : ... .. . ... ... ...
ROW 69 : ... .. . P80 ... ... : ... .. . P80 ... ... : ... .. . ... ... ... : ... .. . ... ... ... : ... .. . ... ... ... : ... .. . P82 ... ... : ... .. . ... ... ... : G#5 0E A ... ... ... : C#5 0E 6 ... ... ... : ... .. . ... ... ... : ... .. . P78 ... ... : ... .. . ... ... ... : ... .. . ... ... ...
ROW 6A : ... .. 2 P7E ... ... : ... .. 2 P7E ... ... : ... .. . ... ... ... : ... .. . ... ... ... : ... .. . ... ... ... : ... .. 2 P81 ... ... : ... .. . P81 ... ... : G#5 0F . ... ... ... : C#5 0F . ... ... ... : ... .. . ... ... ... : ... .. . P7D ... ... : ... .. . ... ... ... : ... .. . ... ... ...
ROW 6B : ... .. . P7D ... ... : ... .. . P7D ... ... : ... .. . ... ... ... : ... .. . ... ... ... : ... .. . ... ... ... : ... .. . P80 ... ... : ... .. . ... ... ... : ... .. . ... ... ... : ... .. . ... ... ... : ... .. . ... ... ... : ... .. . P82 ... ... : ... .. . ... ... ... : ... .. . ... ... ...
ROW 6C : ... .. 3 P7E ... ... : ... .. 3 P7E ... ... : ... .. . ... ... ... : ... .. . ... ... ... : ... .. . ... ... ... : ... .. 3 P7F ... ... : ... .. . P80 ... ... : ... .. . ... ... ... : ... .. . ... ... ... : ... .. . ... ... ... : ... .. . P88 ... ... : ... .. . ... ... ... : ... .. . ... ... ...
ROW 6D : ... .. . P80 ... ... : ... .. . P80 ... ... : ... .. . ... ... ... : ... .. . ... ... ... : ... .. . ... ... ... : ... .. . ... ... ... : ... .. . P7F ... ... : G#5 10 9 ... ... ... : C#5 10 . ... ... ... : ... .. . ... ... ... : ... .. . P8B ... ... : ... .. . ... ... ... : ... .. . ... ... ...
ROW 6E : ... .. . P82 ... ... : ... .. . P82 ... ... : ... .. . ... ... ... : ... .. . ... ... ... : ... .. . ... ... ... : ... .. . ... ... ... : ... .. . P80 ... ... : ... .. . ... ... ... : ... .. . ... ... ... : ... .. . ... ... ... : ... .. . P8A ... ... : ... .. . ... ... ... : ... .. . ... ... ...
ROW 6F : ... .. 4 P83 ... ... : ... .. 4 P83 ... ... : ... .. . ... ... ... : ... .. . ... ... ... : ... .. . ... ... ... : ... .. 4 P80 ... ... : ... .. . P81 ... ... : ... .. . ... ... ... : ... .. . ... ... ... : ... .. . ... ... ... : ... .. . P85 ... ... : ... .. . ... ... ... : ... .. . ... ... ...
ROW 70 : ... .. . P82 ... ... : ... .. . P82 ... ... : ... .. . ... ... ... : ... .. . ... ... ... : ... .. . ... ... ... : ... .. . P81 ... ... : ... .. . P80 ... ... : ... .. . ... ... ... : ... .. . ... ... ... : ... .. . ... ... ... : ... .. . P80 ... ... : ... .. . ... ... ... : ... .. . ... ... ...
ROW 71 : ... .. . P80 ... ... : ... .. . P80 ... ... : ... .. . ... ... ... : ... .. . ... ... ... : ... .. . ... ... ... : ... .. . P82 ... ... : ... .. . P7F ... ... : G#5 11 8 ... ... ... : C#5 11 5 ... ... ... : ... .. . ... ... ... : ... .. . P7A ... ... : ... .. . ... ... ... : ... .. . ... ... ...
ROW 72 : --- .. . ... ... ... : --- .. . ... ... ... : ... .. . ... ... ... : ... .. . ... ... ... : ... .. . ... ... ... : --- .. . ... ... ... : ... .. . P80 ... ... : F#5 0A B ... ... ... : C#5 0A . ... ... ... : ... .. . ... ... ... : ... .. . P76 ... ... : ... .. . ... ... ... : ... .. . ... ... ...
ROW 73 : ... .. . ... ... ... : ... .. . ... ... ... : ... .. . ... ... ... : ... .. . ... ... ... : ... .. . ... ... ... : ... .. . P80 ... ... : ... .. . P81 ... ... : F#5 0B . ... ... ... : C#5 0B . ... ... ... : ... .. . ... ... ... : ... .. . ... ... ... : ... .. . ... ... ... : ... .. . ... ... ...
ROW 74 : ... .. . ... ... ... : ... .. . ... ... ... : ... .. . ... ... ... : ... .. . ... ... ... : ... .. . ... ... ... : ... .. . ... ... ... : ... .. . P80 ... ... : F#5 0D . ... ... ... : C#5 0D . ... ... ... : ... .. . ... ... ... : ... .. . P7A ... ... : ... .. . ... ... ... : ... .. . ... ... ...
ROW 75 : ... .. . ... ... ... : ... .. . ... ... ... : ... .. . ... ... ... : ... .. . ... ... ... : ... .. . ... ... ... : ... .. . ... ... ... : ... .. . P7F ... ... : F#5 0E . ... ... ... : C#5 0E . ... ... ... : ... .. . ... ... ... : ... .. . P7F ... ... : ... .. . ... ... ... : ... .. . ... ... ...
ROW 76 : ... .. . ... ... ... : ... .. . ... ... ... : ... .. . ... ... ... : ... .. . ... ... ... : ... .. . ... ... ... : ... .. . ... ... ... : ... .. . P80 ... ... : ... .. A ... ... ... : ... .. . ... ... ... : ... .. . ... ... ... : ... .. . P84 ... ... : ... .. . ... ... ... : ... .. . ... ... ...
ROW 77 : ... .. . ... ... ... : ... .. . ... ... ... : ... .. . ... ... ... : ... .. . ... ... ... : ... .. . ... ... ... : ... .. . ... ... ... : ... .. . P81 ... ... : F#5 0F . ... ... ... : C#5 0F . ... ... ... : ... .. . ... ... ... : ... .. . P89 ... ... : ... .. . ... ... ... : ... .. . ... ... ...
ROW 78 : ... .. . ... ... ... : ... .. . ... ... ... : ... .. . ... ... ... : ... .. . ... ... ... : ... .. . ... ... ... : ... .. . ... ... ... : ... .. . ... ... ... : ... .. . ... ... ... : ... .. . ... ... ... : ... .. . ... ... ... : ... .. . P8B ... ... : ... .. . ... ... ... : ... .. . ... ... ...
ROW 79 : ... .. . ... ... ... : ... .. . ... ... ... : ... .. . ... ... ... : ... .. . ... ... ... : ... .. . ... ... ... : ... .. . ... ... ... : ... .. . P80 ... ... : ... .. . ... ... ... : ... .. 4 ... ... ... : ... .. . ... ... ... : ... .. . P89 ... ... : ... .. . ... ... ... : ... .. . ... ... ...
ROW 7A : ... .. . ... ... ... : ... .. . ... ... ... : ... .. . ... ... ... : ... .. . ... ... ... : ... .. . ... ... ... : ... .. . ... ... ... : ... .. . P7F ... ... : F#5 10 9 ... ... ... : C#5 10 . ... ... ... : ... .. . ... ... ... : ... .. . P83 ... ... : ... .. . ... ... ... : ... .. . ... ... ...
ROW 7B : ... .. . ... ... ... : ... .. . ... ... ... : ... .. . ... ... ... : ... .. . ... ... ... : ... .. . ... ... ... : ... .. . ... ... ... : ... .. . P80 ... ... : ... .. . ... ... ... : ... .. . ... ... ... : ... .. . ... ... ... : ... .. . P7E ... ... : ... .. . ... ... ... : ... .. . ... ... ...
ROW 7C : ... .. . ... ... ... : ... .. . ... ... ... : ... .. . ... ... ... : ... .. . ... ... ... : ... .. . ... ... ... : ... .. . ... ... ... : ... .. . P81 ... ... : ... .. . ... ... ... : ... .. . ... ... ... : ... .. . ... ... ... : ... .. . P79 ... ... : ... .. . ... ... ... : ... .. . ... ... ...
ROW 7D : ... .. . ... ... ... : ... .. . ... ... ... : ... .. . ... ... ... : ... .. . ... ... ... : ... .. . ... ... ... : ... .. . ... ... ... : ... .. . P80 ... ... : ... .. . ... ... ... : ... .. . ... ... ... : ... .. . ... ... ... : ... .. . P76 ... ... : ... .. . ... ... ... : ... .. . ... ... ...
ROW 7E : ... .. . ... ... ... : ... .. . ... ... ... : F#3 00 . P78 ... ... : 1-# 00 F ... ... ... : C-1 12 . ... ... ... : ... .. . ... ... ... : ... .. . P7F ... ... : G#5 0A B ... ... ... : C#5 0A . ... ... ... : ... .. . ... ... ... : ... .. . P77 ... ... : ... .. . ... ... ... : ... .. . ... ... ...
ROW 7F : ... .. . ... ... ... : ... .. . ... ... ... : C#3 00 . P7E ... ... : 2-# 00 7 ... ... ... : ... .. . ... ... ... : ... .. . ... ... ... : ... .. . P80 ... ... : G#5 0B . ... ... ... : C#5 0B . ... ... ... : ... .. . ... ... ... : ... .. . P7B ... ... : ... .. . ... ... ... : ... .. . ... ... ...
ROW 80 : F#3 02 1 P82 ... ... : C#3 02 1 P82 ... ... : A-2 00 . P86 ... ... : 1-# 00 4 ... ... ... : ... .. . ... ... ... : A#3 0C 1 P81 ... ... : ... .. . P81 ... ... : G#5 0D . ... ... ... : C#5 0D . ... ... ... : ... .. . ... ... ... : ... .. . P80 ... ... : ... .. . ... ... ... : ... .. . ... ... ...
ROW 81 : ... .. . P80 ... ... : ... .. . P80 ... ... : F#2 00 . P87 ... ... : ... .. 2 ... ... ... : ... .. . ... ... ... : ... .. . P82 ... ... : ... .. . P80 ... ... : G#5 0E . ... ... ... : C#5 0E 3 ... ... ... : ... .. . ... ... ... : ... .. . P86 ... ... : ... .. . ... ... ... : ... .. . ... ... ...
ROW 82 : ... .. . P7E ... ... : ... .. . P7E ... ... : E-2 00 . P71 ... ... : ... .. 1 ... ... ... : ... .. . ... ... ... : ... .. . P81 ... ... : ... .. . P7F ... ... : ... .. A ... ... ... : ... .. . ... ... ... : ... .. . ... ... ... : ... .. . P8A ... ... : ... .. . ... ... ... : ... .. . ... ... ...
ROW 83 : ... .. 2 P7D ... ... : ... .. 2 P7D ... ... : C#2 00 . P91 ... ... : --- .. . ... ... ... : ... .. . ... ... ... : ... .. 2 P80 ... ... : ... .. . P80 ... ... : G#5 0F . ... ... ... : C#5 0F . ... ... ... : ... .. . ... ... ... : ... .. . P8B ... ... : ... .. . ... ... ... : ... .. . ... ... ...
ROW 84 : ... .. . P7E ... ... : ... .. . P7E ... ... : --- .. . ... ... ... : ... .. . ... ... ... : ... .. . ... ... ... : ... .. . P7F ... ... : ... .. . P81 ... ... : ... .. . ... ... ... : ... .. . ... ... ... : ... .. . ... ... ... : ... .. . P87 ... ... : ... .. . ... ... ... : ... .. . ... ... ...
ROW 85 : ... .. 3 P80 ... ... : ... .. 3 P80 ... ... : ... .. . ... ... ... : ... .. . ... ... ... : ... .. . ... ... ... : ... .. 3 ... ... ... : ... .. . ... ... ... : ... .. . ... ... ... : ... .. . ... ... ... : ... .. . ... ... ... : ... .. . P81 ... ... : ... .. . ... ... ... : ... .. . ... ... ...
ROW 86 : ... .. . P82 ... ... : ... .. . P82 ... ... : ... .. . ... ... ... : ... .. . ... ... ... : ... .. . ... ... ... : ... .. . ... ... ... : ... .. . P80 ... ... : G#5 10 9 ... ... ... : C#5 10 . ... ... ... : ... .. . ... ... ... : ... .. . P7C ... ... : ... .. . ... ... ... : ... .. . ... ... ...
ROW 87 : ... .. . P83 ... ... : ... .. . P83 ... ... : ... .. . ... ... ... : ... .. . ... ... ... : ... .. . ... ... ... : ... .. . P80 ... ... : ... .. . ... ... ... : ... .. . ... ... ... : ... .. . ... ... ... : ... .. . ... ... ... : ... .. . P77 ... ... : ... .. . ... ... ... : ... .. . ... ... ...
ROW 88 : ... .. 4 P82 ... ... : ... .. 4 P82 ... ... : ... .. . ... ... ... : ... .. . ... ... ... : ... .. . ... ... ... : ... .. 4 P81 ... ... : ... .. . P81 ... ... : ... .. . ... ... ... : ... .. . ... ... ... : ... .. . ... ... ... : ... .. . P76 ... ... : ... .. . ... ... ... : ... .. . ... ... ...
ROW 89 : ... .. . P80 ... ... : ... .. . P80 ... ... : ... .. . ... ... ... : ... .. . ... ... ... : ... .. . ... ... ... : ... .. . P82 ... ... : ... .. . ... ... ... : ... .. . ... ... ... : ... .. 2 ... ... ... : ... .. . ... ... ... : ... .. . P78 ... ... : ... .. . ... ... ... : ... .. . ... ... ...
ROW 8A : ... .. . P7E ... ... : ... .. . P7E ... ... : ... .. . ... ... ... : ... .. . ... ... ... : ... .. . ... ... ... : ... .. . P81 ... ... : ... .. . P80 ... ... : G#5 11 8 ... ... ... : C#5 11 . ... ... ... : ... .. . ... ... ... : ... .. . P7D ... ... : ... .. . ... ... ... : ... .. . ... ... ...
ROW 8B : --- .. . ... ... ... : --- .. . ... ... ... : C#4 00 . P7F ... ... : 9-# 00 F ... ... ... : C#1 12 . ... ... ... : --- .. . ... ... ... : ... .. . P7F ... ... : B-5 0A B ... ... ... : F#5 0A 8 ... ... ... : ... .. . ... ... ... : ... .. . P82 ... ... : ... .. . ... ... ... : ... .. . ... ... ...
ROW 8C : ... .. . P80 ... ... : ... .. . P80 ... ... : F#3 00 . P83 ... ... : 2-# 00 7 ... ... ... : ... .. . ... ... ... : ... .. . P80 ... ... : ... .. . P80 ... ... : B-5 0B . ... ... ... : F#5 0B . ... ... ... : ... .. . ... ... ... : ... .. . P88 ... ... : ... .. . ... ... ... : ... .. . ... ... ...
ROW 8D : ... .. . ... ... ... : ... .. . ... ... ... : C#3 00 . P89 ... ... : 6-# 00 C ... ... ... : ... .. . ... ... ... : ... .. . ... ... ... : ... .. . P81 ... ... : B-5 0D . ... ... ... : F#5 0D . ... ... ... : ... .. . ... ... ... : ... .. . P8B ... ... : ... .. . ... ... ... : ... .. . ... ... ...
ROW 8E : ... .. . ... ... ... : ... .. . ... ... ... : A#2 00 . P75 ... ... : 7-# 00 8 ... ... ... : ... .. . ... ... ... : ... .. . ... ... ... : ... .. . P80 ... ... : B-5 0E . ... ... ... : F#5 0E . ... ... ... : ... .. . ... ... ... : ... .. . P8A ... ... : ... .. . ... ... ... : ... .. . ... ... ...
ROW 8F : ... .. . ... ... ... : ... .. . ... ... ... : G-2 00 . P70 ... ... : 8-# 00 7 ... ... ... : ... .. . ... ... ... : ... .. . ... ... ... : ... .. . P7F ... ... : ... .. A ... ... ... : ... .. . ... ... ... : ... .. . ... ... ... : ... .. . P85 ... ... : ... .. . ... ... ... : ... .. . ... ... ...
ROW 90 : ... .. . ... ... ... : ... .. . ... ... ... : E-2 00 . P7C ... ... : ... .. 6 ... ... ... : ... .. . ... ... ... : ... .. . ... ... ... : ... .. . P80 ... ... : B-5 0F . ... ... ... : F#5 0F . ... ... ... : ... .. . ... ... ... : ... .. . P80 ... ... : ... .. . ... ... ... : ... .. . ... ... ...
ROW 91 : ... .. . ... ... ... : ... .. . ... ... ... : D-2 00 . P6F ... ... : ... .. . ... ... ... : ... .. . ... ... ... : ... .. . ... ... ... : ... .. . P81 ... ... : ... .. . ... ... ... : ... .. . ... ... ... : ... .. . ... ... ... : ... .. . P7A ... ... : ... .. . ... ... ... : ... .. . ... ... ...
ROW 92 : ... .. . ... ... ... : ... .. . ... ... ... : C-2 00 . P6C ... ... : ... .. 5 ... ... ... : ... .. . ... ... ... : ... .. . ... ... ... : ... .. . P80 ... ... : ... .. . ... ... ... : ... .. . ... ... ... : ... .. . ... ... ... : ... .. . P76 ... ... : ... .. . ... ... ... : ... .. . ... ... ...
ROW 93 : ... .. . ... ... ... : ... .. . ... ... ... : A#1 00 . P75 ... ... : ... .. . ... ... ... : ... .. . ... ... ... : ... .. . ... ... ... : ... .. . P7F ... ... : B-5 10 9 ... ... ... : F#5 10 7 ... ... ... : ... .. . ... ... ... : ... .. . ... ... ... : ... .. . ... ... ... : ... .. . ... ... ...
ROW 94 : ... .. . ... ... ... : ... .. . ... ... ... : G#1 00 . P8A ... ... : ... .. 4 ... ... ... : ... .. . ... ... ... : ... .. . ... ... ... : ... .. . P80 ... ... : ... .. . ... ... ... : ... .. . ... ... ... : ... .. . ... ... ... : ... .. . P7A ... ... : ... .. . ... ... ... : ... .. . ... ... ...
ROW 95 : ... .. . ... ... ... : ... .. . ... ... ... : G-1 00 . P6A ... ... : ... .. . ... ... ... : ... .. . ... ... ... : ... .. . ... ... ... : ... .. . P81 ... ... : ... .. . ... ... ... : ... .. . ... ... ... : ... .. . ... ... ... : ... .. . P7F ... ... : ... .. . ... ... ... : ... .. . ... ... ...
ROW 96 : ... .. . ... ... ... : ... .. . ... ... ... : F-1 00 . P96 ... ... : ... .. 3 ... ... ... : ... .. . ... ... ... : ... .. . ... ... ... : ... .. . ... ... ... : ... .. . ... ... ... : ... .. . ... ... ... : ... .. . ... ... ... : ... .. . P84 ... ... : ... .. . ... ... ... : ... .. . ... ... ...
ROW 97 : ... .. . ... ... ... : ... .. . ... ... ... : --- .. . ... ... ... : ... .. . ... ... ... : ... .. . ... ... ... : ... .. . ... ... ... : ... .. . P80 ... ... : B-5 11 8 ... ... ... : F#5 11 . ... ... ... : ... .. . ... ... ... : ... .. . P89 ... ... : ... .. . ... ... ... : ... .. . ... ... ...
ROW 98 : ... .. . ... ... ... : ... .. . ... ... ... : ... .. . ... ... ... : ... .. . ... ... ... : ... .. . ... ... ... : ... .. . ... ... ... : ... .. . ... ... ... : ... .. . ... ... ... : ... .. . ... ... ... : ... .. . ... ... ... : G-4 03 . P88 ... ... : ... .. . ... ... ... : ... .. . ... ... ...
ROW 99 : F#3 02 1 ... ... ... : C#3 02 1 ... ... ... : ... .. . ... ... ... : ... .. . ... ... ... : ... .. . ... ... ... : A#3 0C 1 P82 ... ... : ... .. . P81 ... ... : ... .. . ... ... ... : ... .. . ... ... ... : ... .. . ... ... ... : ... .. . P87 ... ... : ... .. . ... ... ... : ... .. . ... ... ...
ROW 9A : ... .. . P7E ... ... : ... .. . P7E ... ... : ... .. . ... ... ... : ... .. 2 ... ... ... : ... .. . ... ... ... : ... .. . P81 ... ... : ... .. . ... ... ... : ... .. . ... ... ... : ... .. . ... ... ... : ... .. . ... ... ... : ... .. . P82 ... ... : ... .. . ... ... ... : ... .. . ... ... ...
ROW 9B : ... .. . P7D ... ... : ... .. . P7D ... ... : ... .. . ... ... ... : ... .. . ... ... ... : ... .. . ... ... ... : ... .. . P80 ... ... : ... .. . P80 ... ... : ... .. 7 ... ... ... : ... .. 6 ... ... ... : ... .. . ... ... ... : ... .. . P7F ... ... : ... .. . ... ... ... : ... .. . ... ... ...
ROW 9C : ... .. 2 P7E ... ... : ... .. 2 P7E ... ... : ... .. . ... ... ... : ... .. . ... ... ... : ... .. . ... ... ... : ... .. 2 P7F ... ... : ... .. . P7F ... ... : ... .. . ... ... ... : ... .. . ... ... ... : ... .. . ... ... ... : ... .. . P7A ... ... : ... .. . ... ... ... : ... .. . ... ... ...
ROW 9D : ... .. . P80 ... ... : ... .. . P80 ... ... : ... .. . ... ... ... : ... .. . ... ... ... : ... .. . ... ... ... : ... .. . ... ... ... : ... .. . P80 ... ... : ... .. . ... ... ... : ... .. . ... ... ... : ... .. . ... ... ... : ... .. . P78 ... ... : ... .. . ... ... ... : ... .. . ... ... ...
ROW 9E : ... .. 3 P82 ... ... : ... .. 3 P82 ... ... : ... .. . ... ... ... : ... .. 1 ... ... ... : ... .. . ... ... ... : ... .. 3 ... ... ... : ... .. . P81 ... ... : ... .. . ... ... ... : ... .. . ... ... ... : ... .. . ... ... ... : ... .. . P79 ... ... : ... .. . ... ... ... : ... .. . ... ... ...
ROW 9F : ... .. . P83 ... ... : ... .. . P83 ... ... : ... .. . ... ... ... : ... .. . ... ... ... : ... .. . ... ... ... : ... .. . P80 ... ... : ... .. . P80 ... ... : ... .. 6 ... ... ... : ... .. . ... ... ... : ... .. . ... ... ... : ... .. . P7C ... ... : ... .. . ... ... ... : ... .. . ... ... ...
ROW A0 : ... .. . P82 ... ... : ... .. . P82 ... ... : ... .. . ... ... ... : ... .. . ... ... ... : ... .. . ... ... ... : ... .. . P81 ... ... : ... .. . P7F ... ... : ... .. . ... ... ... : ... .. . ... ... ... : ... .. . ... ... ... : ... .. . P80 ... ... : ... .. . ... ... ... : ... .. . ... ... ...
ROW A1 : ... .. 4 P80 ... ... : ... .. 4 P80 ... ... : ... .. . ... ... ... : ... .. . ... ... ... : ... .. . ... ... ... : ... .. 4 P82 ... ... : ... .. . P80 ... ... : ... .. . ... ... ... : ... .. . ... ... ... : ... .. . ... ... ... : ... .. . P85 ... ... : ... .. . ... ... ... : ... .. . ... ... ...
ROW A2 : ... .. . P7E ... ... : ... .. . P7E ... ... : ... .. . ... ... ... : ... .. . ... ... ... : ... .. . ... ... ... : ... .. . P81 ... ... : ... .. . P81 ... ... : ... .. . ... ... ... : ... .. . ... ... ... : ... .. . ... ... ... : ... .. . P88 ... ... : ... .. . ... ... ... : ... .. . ... ... ...
ROW A3 : ... .. . P7D ... ... : ... .. . P7D ... ... : ... .. . ... ... ... : --- .. . ... ... ... : ... .. . ... ... ... : ... .. . P80 ... ... : ... .. . P80 ... ... : ... .. 5 ... ... ... : ... .. 5 ... ... ... : ... .. . ... ... ... : ... .. . ... ... ... : ... .. . ... ... ... : ... .. . ... ... ...
ROW A4 : --- .. . ... ... ... : --- .. . ... ... ... : ... .. . ... ... ... : ... .. . ... ... ... : ... .. . ... ... ... : --- .. . ... ... ... : ... .. . P7F ... ... : A#5 0A B ... ... ... : F#5 0A 8 ... ... ... : ... .. . ... ... ... : ... .. . P85 ... ... : ... .. . ... ... ... : ... .. . ... ... ...
ROW A5 : ... .. . P80 ... ... : ... .. . P80 ... ... : ... .. . ... ... ... : ... .. . ... ... ... : ... .. . ... ... ... : ... .. . ... ... ... : ... .. . P80 ... ... : A#5 0B . ... ... ... : F#5 0B . ... ... ... : ... .. . ... ... ... : ... .. . P81 ... ... : ... .. . ... ... ... : ... .. . ... ... ...
ROW A6 : ... .. . ... ... ... : ... .. . ... ... ... : ... .. . ... ... ... : ... .. . ... ... ... : ... .. . ... ... ... : ... .. . ... ... ... : ... .. . P81 ... ... : A#5 0D . ... ... ... : F#5 0D . ... ... ... : ... .. . ... ... ... : ... .. . P7D ... ... : ... .. . ... ... ... : ... .. . ... ... ...
ROW A7 : ... .. . ... ... ... : ... .. . ... ... ... : ... .. . ... ... ... : ... .. . ... ... ... : ... .. . ... ... ... : ... .. . ... ... ... : ... .. . ... ... ... : A#5 0E . ... ... ... : F#5 0E . ... ... ... : ... .. . ... ... ... : ... .. . P79 ... ... : ... .. . ... ... ... : ... .. . ... ... ...
ROW A8 : ... .. . ... ... ... : ... .. . ... ... ... : ... .. . ... ... ... : ... .. . ... ... ... : ... .. . ... ... ... : ... .. . ... ... ... : ... .. . P80 ... ... : ... .. A ... ... ... : ... .. . ... ... ... : ... .. . ... ... ... : ... .. . P78 ... ... : ... .. . ... ... ... : ... .. . ... ... ...
ROW A9 : ... .. . ... ... ... : ... .. . ... ... ... : ... .. . ... ... ... : ... .. . ... ... ... : ... .. . ... ... ... : ... .. . ... ... ... : ... .. . ... ... ... : A#5 0F . ... ... ... : F#5 0F . ... ... ... : ... .. . ... ... ... : ... .. . P7A ... ... : ... .. . ... ... ... : ... .. . ... ... ...
ROW AA : ... .. . ... ... ... : ... .. . ... ... ... : ... .. . ... ... ... : ... .. . ... ... ... : ... .. . ... ... ... : ... .. . ... ... ... : ... .. . P81 ... ... : ... .. . ... ... ... : ... .. . ... ... ... : ... .. . ... ... ... : ... .. . P7E ... ... : ... .. . ... ... ... : ... .. . ... ... ...
ROW AB : ... .. . ... ... ... : ... .. . ... ... ... : ... .. . ... ... ... : ... .. . ... ... ... : ... .. . ... ... ... : ... .. . ... ... ... : ... .. . ... ... ... : ... .. . ... ... ... : ... .. . ... ... ... : ... .. . ... ... ... : ... .. . P82 ... ... : ... .. . ... ... ... : ... .. . ... ... ...
ROW AC : ... .. . ... ... ... : ... .. . ... ... ... : ... .. . ... ... ... : ... .. . ... ... ... : ... .. . ... ... ... : ... .. . ... ... ... : ... .. . P80 ... ... : A#5 10 9 ... ... ... : F#5 10 7 ... ... ... : ... .. . ... ... ... : ... .. . P86 ... ... : ... .. . ... ... ... : ... .. . ... ... ...
ROW AD : ... .. . ... ... ... : ... .. . ... ... ... : ... .. . ... ... ... : ... .. . ... ... ... : ... .. . ... ... ... : ... .. . ... ... ... : ... .. . P7F ... ... : ... .. . ... ... ... : ... .. . ... ... ... : ... .. . ... ... ... : ... .. . P88 ... ... : ... .. . ... ... ... : ... .. . ... ... ...
ROW AE : ... .. . ... ... ... : ... .. . ... ... ... : ... .. . ... ... ... : ... .. . ... ... ... : ... .. . ... ... ... : ... .. . ... ... ... : ... .. . P80 ... ... : ... .. . ... ... ... : ... .. . ... ... ... : ... .. . ... ... ... : ... .. . P87 ... ... : ... .. . ... ... ... : ... .. . ... ... ...
ROW AF : ... .. . ... ... ... : ... .. . ... ... ... : ... .. . ... ... ... : ... .. . ... ... ... : ... .. . ... ... ... : ... .. . ... ... ... : ... .. . P81 ... ... : ... .. . ... ... ... : ... .. . ... ... ... : ... .. . ... ... ... : ... .. . P84 ... ... : ... .. . ... ... ... : ... .. . ... ... ...
ROW B0 : ... .. . ... ... ... : ... .. . ... ... ... : ... .. . ... ... ... : ... .. . ... ... ... : ... .. . ... ... ... : ... .. . ... ... ... : ... .. . P80 ... ... : A#5 11 8 ... ... ... : F#5 11 . ... ... ... : ... .. . ... ... ... : ... .. . P80 ... ... : ... .. . ... ... ... : ... .. . ... ... ...
ROW B1 : ... .. . ... ... ... : ... .. . ... ... ... : ... .. . ... ... ... : ... .. . ... ... ... : ... .. . ... ... ... : ... .. . ... ... ... : ... .. . P7F ... ... : ... .. . ... ... ... : ... .. . ... ... ... : ... .. . ... ... ... : G#4 03 . P7C ... ... : ... .. . ... ... ... : ... .. . ... ... ...
ROW B2 : F#3 02 1 P7E ... ... : C#3 02 1 P7E ... ... : ... .. . ... ... ... : ... .. . ... ... ... : ... .. . ... ... ... : A#3 0C 1 P81 ... ... : ... .. . P80 ... ... : ... .. . ... ... ... : ... .. . ... ... ... : ... .. . ... ... ... : ... .. . P79 ... ... : ... .. . ... ... ... : ... .. . ... ... ...
ROW B3 : ... .. . P7D ... ... : ... .. . P7D ... ... : ... .. . ... ... ... : ... .. . ... ... ... : ... .. . ... ... ... : ... .. . P80 ... ... : ... .. . P81 ... ... : ... .. . ... ... ... : ... .. . ... ... ... : ... .. . ... ... ... : ... .. . P78 ... ... : ... .. . ... ... ... : ... .. . ... ... ...
ROW B4 : ... .. . P7E ... ... : ... .. . P7E ... ... : ... .. . ... ... ... : ... .. . ... ... ... : ... .. . ... ... ... : ... .. . P7F ... ... : ... .. . P80 ... ... : ... .. 7 ... ... ... : ... .. 6 ... ... ... : ... .. . ... ... ... : ... .. . P7B ... ... : ... .. . ... ... ... : ... .. . ... ... ...
ROW B5 : ... .. 2 P80 ... ... : ... .. 2 P80 ... ... : ... .. . ... ... ... : ... .. . ... ... ... : ... .. . ... ... ... : ... .. 2 ... ... ... : ... .. . P7F ... ... : ... .. . ... ... ... : ... .. . ... ... ... : ... .. . ... ... ... : ... .. . P80 ... ... : ... .. . ... ... ... : ... .. . ... ... ...
ROW B6 : ... .. . P82 ... ... : ... .. . P82 ... ... : ... .. . ... ... ... : ... .. . ... ... ... : ... .. . ... ... ... : ... .. . ... ... ... : ... .. . P80 ... ... : ... .. . ... ... ... : ... .. . ... ... ... : ... .. . ... ... ... : ... .. . P83 ... ... : ... .. . ... ... ... : ... .. . ... ... ...
ROW B7 : ... .. 3 P83 ... ... : ... .. 3 P83 ... ... : ... .. . ... ... ... : ... .. . ... ... ... : ... .. . ... ... ... : ... .. 3 P80 ... ... : ... .. . P81 ... ... : ... .. . ... ... ... : ... .. . ... ... ... : ... .. . ... ... ... : ... .. . P87 ... ... : ... .. . ... ... ... : ... .. . ... ... ...
ROW B8 : ... .. . P82 ... ... : ... .. . P82 ... ... : ... .. . ... ... ... : ... .. . ... ... ... : ... .. . ... ... ... : ... .. . P81 ... ... : ... .. . ... ... ... : ... .. 6 ... ... ... : ... .. . ... ... ... : ... .. . ... ... ... : ... .. . P88 ... ... : ... .. . ... ... ... : ... .. . ... ... ...
ROW B9 : ... .. . P80 ... ... : ... .. . P80 ... ... : ... .. . ... ... ... : ... .. . ... ... ... : ... .. . ... ... ... : ... .. . P82 ... ... : ... .. . P80 ... ... : ... .. . ... ... ... : ... .. . ... ... ... : ... .. . ... ... ... : ... .. . P87 ... ... : ... .. . ... ... ... : ... .. . ... ... ...
ROW BA : ... .. 4 P7E ... ... : ... .. 4 P7E ... ... : ... .. . ... ... ... : ... .. . ... ... ... : ... .. . ... ... ... : ... .. 4 P81 ... ... : ... .. . P7F ... ... : ... .. . ... ... ... : ... .. . ... ... ... : ... .. . ... ... ... : ... .. . P82 ... ... : ... .. . ... ... ... : ... .. . ... ... ...
ROW BB : ... .. . P7D ... ... : ... .. . P7D ... ... : ... .. . ... ... ... : ... .. . ... ... ... : ... .. . ... ... ... : ... .. . P80 ... ... : ... .. . P80 ... ... : ... .. . ... ... ... : ... .. . ... ... ... : ... .. . ... ... ... : ... .. . P7F ... ... : ... .. . ... ... ... : ... .. . ... ... ...
ROW BC : ... .. . P7E ... ... : ... .. . P7E ... ... : ... .. . ... ... ... : ... .. . ... ... ... : ... .. . ... ... ... : ... .. . P7F ... ... : ... .. . P81 ... ... : ... .. 5 ... ... ... : ... .. 5 ... ... ... : ... .. . ... ... ... : ... .. . P7A ... ... : ... .. . ... ... ... : ... .. . ... ... ...
ROW BD : --- .. . ... ... ... : --- .. . ... ... ... : F#3 00 . P78 ... ... : 1-# 00 F ... ... ... : C-1 12 . ... ... ... : --- .. . ... ... ... : D#2 03 . P80 ... ... : F#5 0A B ... ... ... : D#5 0A 8 ... ... ... : A#4 0A 8 ... ... ... : ... .. . P78 ... ... : ... .. . ... ... ... : ... .. . ... ... ...
ROW BE : ... .. . P80 ... ... : ... .. . P80 ... ... : C#3 00 . P7E ... ... : 2-# 00 7 ... ... ... : ... .. . ... ... ... : ... .. . P80 ... ... : ... .. . P7F ... ... : F#5 0B . ... ... ... : D#5 0B . ... ... ... : A#4 0B . ... ... ... : ... .. . P79 ... ... : ... .. . ... ... ... : ... .. . ... ... ...
ROW BF : ... .. . ... ... ... : ... .. . ... ... ... : A-2 00 . P86 ... ... : 1-# 00 4 ... ... ... : ... .. . ... ... ... : ... .. . ... ... ... : ... .. . P80 ... ... : F#5 0D . ... ... ... : D#5 0D . ... ... ... : A#4 0D . ... ... ... : ... .. . P7C ... ... : ... .. . ... ... ... : ... .. . ... ... ...
ROW C0 : ... .. . ... ... ... : ... .. . ... ... ... : F#2 00 . P87 ... ... : ... .. 2 ... ... ... : ... .. . ... ... ... : ... .. . ... ... ... : ... .. . P81 ... ... : F#5 0E . ... ... ... : D#5 0E . ... ... ... : A#4 0E . ... ... ... : ... .. . P80 ... ... : ... .. . ... ... ... : ... .. . ... ... ...
ROW C1 : ... .. . ... ... ... : ... .. . ... ... ... : E-2 00 . P71 ... ... : ... .. 1 ... ... ... : ... .. . ... ... ... : ... .. . ... ... ... : ... .. . P80 ... ... : ... .. A ... ... ... : ... .. . ... ... ... : ... .. 7 ... ... ... : ... .. . P85 ... ... : ... .. . ... ... ... : ... .. . ... ... ...
ROW C2 : ... .. . ... ... ... : ... .. . ... ... ... : C#2 00 . P91 ... ... : --- .. . ... ... ... : ... .. . ... ... ... : ... .. . ... ... ... : ... .. . P7F ... ... : F#5 0F . ... ... ... : D#5 0F . ... ... ... : A#4 0F . ... ... ... : ... .. . P88 ... ... : ... .. . ... ... ... : ... .. . ... ... ...
ROW C3 : ... .. . ... ... ... : ... .. . ... ... ... : --- .. . ... ... ... : ... .. . ... ... ... : ... .. . ... ... ... : ... .. . ... ... ... : ... .. . P80 ... ... : ... .. . ... ... ... : ... .. . ... ... ... : ... .. . ... ... ... : ... .. . ... ... ... : ... .. . ... ... ... : ... .. . ... ... ...
ROW C4 : ... .. . ... ... ... : ... .. . ... ... ... : ... .. . ... ... ... : ... .. . ... ... ... : ... .. . ... ... ... : ... .. . ... ... ... : ... .. . P81 ... ... : ... .. . ... ... ... : ... .. . ... ... ... : ... .. . ... ... ... : ... .. . P85 ... ... : ... .. . ... ... ... : ... .. . ... ... ...
ROW C5 : ... .. . ... ... ... : ... .. . ... ... ... : ... .. . ... ... ... : ... .. . ... ... ... : ... .. . ... ... ... : ... .. . ... ... ... : ... .. . ... ... ... : F#5 10 9 ... ... ... : D#5 10 7 ... ... ... : A#4 10 6 ... ... ... : ... .. . P81 ... ... : ... .. . ... ... ... : ... .. . ... ... ...
ROW C6 : ... .. . ... ... ... : ... .. . ... ... ... : ... .. . ... ... ... : ... .. . ... ... ... : ... .. . ... ... ... : ... .. . ... ... ... : ... .. . P80 ... ... : ... .. . ... ... ... : ... .. . ... ... ... : ... .. . ... ... ... : ... .. . P7D ... ... : ... .. . ... ... ... : ... .. . ... ... ...
ROW C7 : ... .. . ... ... ... : ... .. . ... ... ... : ... .. . ... ... ... : ... .. . ... ... ... : ... .. . ... ... ... : ... .. . ... ... ... : ... .. . ... ... ... : ... .. . ... ... ... : ... .. . ... ... ... : ... .. . ... ... ... : ... .. . P79 ... ... : ... .. . ... ... ... : ... .. . ... ... ...
ROW C8 : ... .. . ... ... ... : ... .. . ... ... ... : ... .. . ... ... ... : ... .. . ... ... ... : ... .. . ... ... ... : ... .. . ... ... ... : ... .. . P81 ... ... : ... .. . ... ... ... : ... .. . ... ... ... : ... .. . ... ... ... : ... .. . P78 ... ... : ... .. . ... ... ... : ... .. . ... ... ...
ROW C9 : ... .. . ... ... ... : ... .. . ... ... ... : ... .. . ... ... ... : ... .. . ... ... ... : ... .. . ... ... ... : ... .. . ... ... ... : ... .. . ... ... ... : F#5 11 8 ... ... ... : D#5 11 . ... ... ... : A#4 11 5 ... ... ... : ... .. . P7A ... ... : ... .. . ... ... ... : ... .. . ... ... ...
ROW CA : ... .. . ... ... ... : ... .. . ... ... ... : ... .. . ... ... ... : ... .. . ... ... ... : ... .. . ... ... ... : ... .. . ... ... ... : ... .. . P80 ... ... : ... .. . ... ... ... : ... .. . ... ... ... : ... .. . ... ... ... : ... .. . P7E ... ... : ... .. . ... ... ... : ... .. . ... ... ...
ROW CB : D#3 02 1 P7D ... ... : A#2 02 1 P7D ... ... : ... .. . ... ... ... : ... .. . ... ... ... : ... .. . ... ... ... : G-3 0C 1 ... ... ... : ... .. . P7F ... ... : ... .. . ... ... ... : ... .. . ... ... ... : ... .. . ... ... ... : ... .. . P82 ... ... : ... .. . ... ... ... : ... .. . ... ... ...
ROW CC : ... .. . P7E ... ... : ... .. . P7E ... ... : ... .. . ... ... ... : ... .. . ... ... ... : ... .. . ... ... ... : ... .. . P7F ... ... : ... .. . P80 ... ... : ... .. . ... ... ... : ... .. . ... ... ... : ... .. . ... ... ... : ... .. . P86 ... ... : ... .. . ... ... ... : ... .. . ... ... ...
ROW CD : ... .. . P80 ... ... : ... .. . P80 ... ... : ... .. . ... ... ... : ... .. . ... ... ... : ... .. . ... ... ... : ... .. . ... ... ... : ... .. . P81 ... ... : ... .. 7 ... ... ... : ... .. 6 ... ... ... : ... .. 4 ... ... ... : ... .. . P88 ... ... : ... .. . ... ... ... : ... .. . ... ... ...
ROW CE : ... .. 2 P82 ... ... : ... .. 2 P82 ... ... : ... .. . ... ... ... : ... .. . ... ... ... : ... .. . ... ... ... : ... .. 2 ... ... ... : ... .. . P80 ... ... : ... .. . ... ... ... : ... .. . ... ... ... : ... .. . ... ... ... : ... .. . P87 ... ... : ... .. . ... ... ... : ... .. . ... ... ...
ROW CF : ... .. . P83 ... ... : ... .. . P83 ... ... : ... .. . ... ... ... : ... .. . ... ... ... : ... .. . ... ... ... : ... .. . P80 ... ... : ... .. . P7F ... ... : ... .. . ... ... ... : ... .. . ... ... ... : ... .. . ... ... ... : ... .. . P84 ... ... : ... .. . ... ... ... : ... .. . ... ... ...
ROW D0 : ... .. 3 P82 ... ... : ... .. 3 P82 ... ... : ... .. . ... ... ... : ... .. . ... ... ... : ... .. . ... ... ... : ... .. 3 P81 ... ... : ... .. . P80 ... ... : ... .. . ... ... ... : ... .. . ... ... ... : ... .. . ... ... ... : ... .. . P80 ... ... : ... .. . ... ... ... : ... .. . ... ... ...
ROW D1 : ... .. . P80 ... ... : ... .. . P80 ... ... : ... .. . ... ... ... : ... .. . ... ... ... : ... .. . ... ... ... : ... .. . P82 ... ... : ... .. . P81 ... ... : ... .. 6 ... ... ... : ... .. . ... ... ... : ... .. 3 ... ... ... : ... .. . P7C ... ... : ... .. . ... ... ... : ... .. . ... ... ...
ROW D2 : ... .. . P7E ... ... : ... .. . P7E ... ... : ... .. . ... ... ... : ... .. . ... ... ... : ... .. . ... ... ... : ... .. . P81 ... ... : ... .. . P80 ... ... : ... .. . ... ... ... : ... .. . ... ... ... : ... .. . ... ... ... : ... .. . P79 ... ... : ... .. . ... ... ... : ... .. . ... ... ...
ROW D3 : ... .. 4 P7D ... ... : ... .. 4 P7D ... ... : ... .. . ... ... ... : ... .. . ... ... ... : ... .. . ... ... ... : ... .. 4 P80 ... ... : ... .. . P7F ... ... : ... .. . ... ... ... : ... .. . ... ... ... : ... .. . ... ... ... : ... .. . P78 ... ... : ... .. . ... ... ... : ... .. . ... ... ...
ROW D4 : ... .. . P7E ... ... : ... .. . P7E ... ... : ... .. . ... ... ... : ... .. . ... ... ... : ... .. . ... ... ... : ... .. . P7F ... ... : ... .. . P80 ... ... : ... .. . ... ... ... : ... .. . ... ... ... : ... .. . ... ... ... : ... .. . P7B ... ... : ... .. . ... ... ... : ... .. . ... ... ...
ROW D5 : ... .. . P80 ... ... : ... .. . P80 ... ... : ... .. . ... ... ... : ... .. . ... ... ... : ... .. . ... ... ... : ... .. . ... ... ... : ... .. . P81 ... ... : ... .. 5 ... ... ... : ... .. 5 ... ... ... : ... .. 2 ... ... ... : ... .. . P80 ... ... : ... .. . ... ... ... : ... .. . ... ... ...
ROW D6 : --- .. . ... ... ... : --- .. . ... ... ... : ... .. . ... ... ... : ... .. . ... ... ... : ... .. . ... ... ... : --- .. . ... ... ... : ... .. . ... ... ... : --- .. . ... ... ... : A#4 0A 8 ... ... ... : A#4 0A . ... ... ... : ... .. . P83 ... ... : ... .. . ... ... ... : ... .. . ... ... ...
ROW D7 : ... .. . ... ... ... : ... .. . ... ... ... : ... .. . ... ... ... : ... .. . ... ... ... : ... .. . ... ... ... : ... .. . P80 ... ... : ... .. . P80 ... ... : ... .. . ... ... ... : A#4 0B . ... ... ... : A#4 0B . ... ... ... : ... .. . P87 ... ... : ... .. . ... ... ... : ... .. . ... ... ...
ROW D8 : ... .. . ... ... ... : ... .. . ... ... ... : ... .. . ... ... ... : ... .. . ... ... ... : ... .. . ... ... ... : ... .. . ... ... ... : ... .. . ... ... ... : ... .. . ... ... ... : A#4 0D . ... ... ... : A#4 0D . ... ... ... : ... .. . P88 ... ... : ... .. . ... ... ... : ... .. . ... ... ...
ROW D9 : ... .. . ... ... ... : ... .. . ... ... ... : ... .. . ... ... ... : ... .. . ... ... ... : ... .. . ... ... ... : ... .. . ... ... ... : ... .. . P81 ... ... : ... .. . ... ... ... : A#4 0E . ... ... ... : A#4 0E 1 ... ... ... : ... .. . P87 ... ... : ... .. . ... ... ... : ... .. . ... ... ...
ROW DA : ... .. . ... ... ... : ... .. . ... ... ... : ... .. . ... ... ... : ... .. . ... ... ... : ... .. . ... ... ... : ... .. . ... ... ... : ... .. . ... ... ... : ... .. . ... ... ... : ... .. . ... ... ... : ... .. . ... ... ... : ... .. . P82 ... ... : ... .. . ... ... ... : ... .. . ... ... ...
ROW DB : ... .. . ... ... ... : ... .. . ... ... ... : ... .. . ... ... ... : ... .. . ... ... ... : ... .. . ... ... ... : ... .. . ... ... ... : ... .. . P80 ... ... : ... .. . ... ... ... : A#4 0F . ... ... ... : A#4 0F . ... ... ... : ... .. . P7F ... ... : ... .. . ... ... ... : ... .. . ... ... ...
ROW DC : ... .. . ... ... ... : ... .. . ... ... ... : ... .. . ... ... ... : ... .. . ... ... ... : ... .. . ... ... ... : ... .. . ... ... ... : ... .. . P7F ... ... : ... .. . ... ... ... : ... .. . ... ... ... : ... .. . ... ... ... : ... .. . P7A ... ... : ... .. . ... ... ... : ... .. . ... ... ...
ROW DD : ... .. . ... ... ... : ... .. . ... ... ... : ... .. . ... ... ... : ... .. . ... ... ... : ... .. . ... ... ... : ... .. . ... ... ... : ... .. . P80 ... ... : ... .. . ... ... ... : ... .. . ... ... ... : --- .. . ... ... ... : ... .. . P78 ... ... : ... .. . ... ... ... : ... .. . ... ... ...
ROW DE : ... .. . ... ... ... : ... .. . ... ... ... : ... .. . ... ... ... : ... .. . ... ... ... : ... .. . ... ... ... : ... .. . ... ... ... : ... .. . P81 ... ... : ... .. . ... ... ... : A#4 10 7 ... ... ... : ... .. . ... ... ... : ... .. . P79 ... ... : ... .. . ... ... ... : ... .. . ... ... ...
ROW DF : ... .. . ... ... ... : ... .. . ... ... ... : ... .. . ... ... ... : ... .. . ... ... ... : ... .. . ... ... ... : ... .. . ... ... ... : ... .. . P80 ... ... : ... .. . ... ... ... : ... .. . ... ... ... : ... .. . ... ... ... : ... .. . P7C ... ... : ... .. . ... ... ... : ... .. . ... ... ...
ROW E0 : ... .. . ... ... ... : ... .. . ... ... ... : ... .. . ... ... ... : ... .. . ... ... ... : ... .. . ... ... ... : ... .. . ... ... ... : ... .. . P7F ... ... : ... .. . ... ... ... : ... .. . ... ... ... : ... .. . ... ... ... : ... .. . P80 ... ... : ... .. . ... ... ... : ... .. . ... ... ...
ROW E1 : ... .. . ... ... ... : ... .. . ... ... ... : ... .. . ... ... ... : ... .. . ... ... ... : ... .. . ... ... ... : ... .. . ... ... ... : ... .. . P80 ... ... : ... .. . ... ... ... : ... .. . ... ... ... : ... .. . ... ... ... : ... .. . P85 ... ... : ... .. . ... ... ... : ... .. . ... ... ...
ROW E2 : ... .. . ... ... ... : ... .. . ... ... ... : F#3 00 . P78 ... ... : 1-# 00 F ... ... ... : C-1 12 . ... ... ... : ... .. . ... ... ... : ... .. . P81 ... ... : G-5 0A B ... ... ... : D#5 0A 8 ... ... ... : A#4 0A 8 ... ... ... : ... .. . P88 ... ... : ... .. . ... ... ... : ... .. . ... ... ...
ROW E3 : ... .. . ... ... ... : ... .. . ... ... ... : C#3 00 . P7E ... ... : 2-# 00 7 ... ... ... : ... .. . ... ... ... : ... .. . ... ... ... : ... .. . P80 ... ... : G-5 0B . ... ... ... : D#5 0B . ... ... ... : A#4 0B . ... ... ... : ... .. . ... ... ... : ... .. . ... ... ... : ... .. . ... ... ...
ROW E4 : D#3 02 1 P7E ... ... : A#2 02 1 P7E ... ... : A-2 00 . P86 ... ... : 1-# 00 4 ... ... ... : ... .. . ... ... ... : G-3 0C 1 P7F ... ... : ... .. . P7F ... ... : G-5 0D . ... ... ... : D#5 0D . ... ... ... : A#4 0D . ... ... ... : ... .. . P85 ... ... : ... .. . ... ... ... : ... .. . ... ... ...
ROW E5 : ... .. . P80 ... ... : ... .. . P80 ... ... : F#2 00 . P87 ... ... : ... .. 2 ... ... ... : ... .. . ... ... ... : ... .. . ... ... ... : ... .. . P80 ... ... : G-5 0E . ... ... ... : D#5 0E . ... ... ... : A#4 0E . ... ... ... : ... .. . P81 ... ... : ... .. . ... ... ... : ... .. . ... ... ...
ROW E6 : ... .. . P82 ... ... : ... .. . P82 ... ... : E-2 00 . P71 ... ... : ... .. 1 ... ... ... : ... .. . ... ... ... : ... .. . ... ... ... : ... .. . P81 ... ... : ... .. A ... ... ... : ... .. . ... ... ... : ... .. 7 ... ... ... : ... .. . P7D ... ... : ... .. . ... ... ... : ... .. . ... ... ...
ROW E7 : ... .. 2 P83 ... ... : ... .. 2 P83 ... ... : C#2 00 . P91 ... ... : --- .. . ... ... ... : ... .. . ... ... ... : ... .. 2 P80 ... ... : ... .. . ... ... ... : G-5 0F . ... ... ... : D#5 0F . ... ... ... : A#4 0F . ... ... ... : ... .. . P79 ... ... : ... .. . ... ... ... : ... .. . ... ... ...
ROW E8 : ... .. . P82 ... ... : ... .. . P82 ... ... : --- .. . ... ... ... : ... .. . ... ... ... : ... .. . ... ... ... : ... .. . P81 ... ... : ... .. . P80 ... ... : ... .. . ... ... ... : ... .. . ... ... ... : ... .. . ... ... ... : ... .. . P78 ... ... : ... .. . ... ... ... : ... .. . ... ... ...
ROW E9 : ... .. 3 P80 ... ... : ... .. 3 P80 ... ... : ... .. . ... ... ... : ... .. . ... ... ... : ... .. . ... ... ... : ... .. 3 P82 ... ... : ... .. . ... ... ... : ... .. . ... ... ... : ... .. . ... ... ... : ... .. . ... ... ... : ... .. . P7A ... ... : ... .. . ... ... ... : ... .. . ... ... ...
ROW EA : ... .. . P7E ... ... : ... .. . P7E ... ... : ... .. . ... ... ... : ... .. . ... ... ... : ... .. . ... ... ... : ... .. . P81 ... ... : ... .. . P81 ... ... : G-5 10 9 ... ... ... : D#5 10 7 ... ... ... : A#4 10 6 ... ... ... : ... .. . P7E ... ... : ... .. . ... ... ... : ... .. . ... ... ...
ROW EB : ... .. . P7D ... ... : ... .. . P7D ... ... : ... .. . ... ... ... : ... .. . ... ... ... : ... .. . ... ... ... : ... .. . P80 ... ... : ... .. . ... ... ... : ... .. . ... ... ... : ... .. . ... ... ... : ... .. . ... ... ... : ... .. . P82 ... ... : ... .. . ... ... ... : ... .. . ... ... ...
ROW EC : ... .. 4 P7E ... ... : ... .. 4 P7E ... ... : ... .. . ... ... ... : ... .. . ... ... ... : ... .. . ... ... ... : ... .. 4 P7F ... ... : ... .. . P80 ... ... : ... .. . ... ... ... : ... .. . ... ... ... : ... .. . ... ... ... : ... .. . P86 ... ... : ... .. . ... ... ... : ... .. . ... ... ...
ROW ED : ... .. . P80 ... ... : ... .. . P80 ... ... : ... .. . ... ... ... : ... .. . ... ... ... : ... .. . ... ... ... : ... .. . ... ... ... : ... .. . P7F ... ... : ... .. . ... ... ... : ... .. . ... ... ... : ... .. . ... ... ... : ... .. . P88 ... ... : ... .. . ... ... ... : ... .. . ... ... ...
ROW EE : ... .. . P82 ... ... : ... .. . P82 ... ... : ... .. . ... ... ... : ... .. . ... ... ... : ... .. . ... ... ... : ... .. . ... ... ... : ... .. . P80 ... ... : G-5 11 8 ... ... ... : D#5 11 . ... ... ... : A#4 11 5 ... ... ... : ... .. . P87 ... ... : ... .. . ... ... ... : ... .. . ... ... ...
ROW EF : --- .. . ... ... ... : --- .. . ... ... ... : C#4 00 . P7F ... ... : 9-# 00 F ... ... ... : C#1 12 . ... ... ... : --- .. . ... ... ... : ... .. . P81 ... ... : ... .. . ... ... ... : ... .. . ... ... ... : ... .. . ... ... ... : ... .. . P84 ... ... : ... .. . ... ... ... : ... .. . ... ... ...
ROW F0 : ... .. . P80 ... ... : ... .. . P80 ... ... : F#3 00 . P83 ... ... : 2-# 00 7 ... ... ... : ... .. . ... ... ... : ... .. . P80 ... ... : ... .. . P80 ... ... : ... .. . ... ... ... : ... .. . ... ... ... : ... .. . ... ... ... : ... .. . P80 ... ... : ... .. . ... ... ... : ... .. . ... ... ...
ROW F1 : ... .. . ... ... ... : ... .. . ... ... ... : C#3 00 . P89 ... ... : 6-# 00 C ... ... ... : ... .. . ... ... ... : ... .. . ... ... ... : ... .. . P7F ... ... : ... .. . ... ... ... : ... .. . ... ... ... : ... .. . ... ... ... : ... .. . P7C ... ... : ... .. . ... ... ... : ... .. . ... ... ...
ROW F2 : ... .. . ... ... ... : ... .. . ... ... ... : A#2 00 . P75 ... ... : 7-# 00 8 ... ... ... : ... .. . ... ... ... : ... .. . ... ... ... : ... .. . P80 ... ... : ... .. 7 ... ... ... : ... .. 6 ... ... ... : ... .. 4 ... ... ... : ... .. . P79 ... ... : ... .. . ... ... ... : ... .. . ... ... ...
ROW F3 : ... .. . ... ... ... : ... .. . ... ... ... : G-2 00 . P70 ... ... : 8-# 00 7 ... ... ... : ... .. . ... ... ... : ... .. . ... ... ... : ... .. . P81 ... ... : ... .. . ... ... ... : ... .. . ... ... ... : ... .. . ... ... ... : ... .. . P78 ... ... : ... .. . ... ... ... : ... .. . ... ... ...
ROW F4 : ... .. . ... ... ... : ... .. . ... ... ... : E-2 00 . P7C ... ... : ... .. 6 ... ... ... : ... .. . ... ... ... : ... .. . ... ... ... : ... .. . P80 ... ... : ... .. . ... ... ... : ... .. . ... ... ... : ... .. . ... ... ... : ... .. . P7B ... ... : ... .. . ... ... ... : ... .. . ... ... ...
ROW F5 : ... .. . ... ... ... : ... .. . ... ... ... : D-2 00 . P6F ... ... : ... .. . ... ... ... : ... .. . ... ... ... : ... .. . ... ... ... : ... .. . P7F ... ... : ... .. . ... ... ... : ... .. . ... ... ... : ... .. . ... ... ... : ... .. . P80 ... ... : ... .. . ... ... ... : ... .. . ... ... ...
ROW F6 : ... .. . ... ... ... : ... .. . ... ... ... : C-2 00 . P6C ... ... : ... .. 5 ... ... ... : ... .. . ... ... ... : ... .. . ... ... ... : ... .. . P80 ... ... : ... .. 6 ... ... ... : ... .. . ... ... ... : ... .. 3 ... ... ... : ... .. . P83 ... ... : ... .. . ... ... ... : ... .. . ... ... ...
ROW F7 : ... .. . ... ... ... : ... .. . ... ... ... : A#1 00 . P75 ... ... : ... .. . ... ... ... : ... .. . ... ... ... : ... .. . ... ... ... : ... .. . P81 ... ... : ... .. . ... ... ... : ... .. . ... ... ... : ... .. . ... ... ... : ... .. . P87 ... ... : ... .. . ... ... ... : ... .. . ... ... ...
ROW F8 : ... .. . ... ... ... : ... .. . ... ... ... : G#1 00 . P8A ... ... : ... .. 4 ... ... ... : ... .. . ... ... ... : ... .. . ... ... ... : ... .. . ... ... ... : ... .. . ... ... ... : ... .. . ... ... ... : ... .. . ... ... ... : ... .. . P88 ... ... : ... .. . ... ... ... : ... .. . ... ... ...
ROW F9 : ... .. . ... ... ... : ... .. . ... ... ... : G-1 00 . P6A ... ... : ... .. . ... ... ... : ... .. . ... ... ... : ... .. . ... ... ... : ... .. . P80 ... ... : ... .. . ... ... ... : ... .. . ... ... ... : ... .. . ... ... ... : ... .. . P87 ... ... : ... .. . ... ... ... : ... .. . ... ... ...
ROW FA : ... .. . ... ... ... : ... .. . ... ... ... : F-1 00 . P96 ... ... : ... .. 3 ... ... ... : ... .. . ... ... ... : ... .. . ... ... ... : ... .. . P7F ... ... : ... .. 5 ... ... ... : ... .. 5 ... ... ... : ... .. 2 ... ... ... : ... .. . P82 ... ... : ... .. . ... ... ... : ... .. . ... ... ...
ROW FB : ... .. . ... ... ... : ... .. . ... ... ... : --- .. . ... ... ... : ... .. . ... ... ... : ... .. . ... ... ... : ... .. . ... ... ... : ... .. . P80 ... ... : ... .. . ... ... ... : ... .. . ... ... ... : ... .. . ... ... ... : ... .. . P7F ... ... : ... .. . ... ... ... : ... .. . ... ... ...
ROW FC : ... .. . ... ... ... : ... .. . ... ... ... : ... .. . ... ... ... : ... .. . ... ... ... : ... .. . ... ... ... : ... .. . ... ... ... : ... .. . P81 ... ... : ... .. . ... ... ... : ... .. . ... ... ... : ... .. . ... ... ... : A#4 03 . P7A ... ... : ... .. . ... ... ... : ... .. . ... ... ...
ROW FD : D#3 02 1 ... ... ... : A#2 02 1 ... ... ... : ... .. . ... ... ... : ... .. . ... ... ... : ... .. . ... ... ... : G-3 0C 1 P7F ... ... : ... .. . P80 ... ... : ... .. . ... ... ... : ... .. . ... ... ... : ... .. . ... ... ... : ... .. . P78 ... ... : ... .. . ... ... ... : ... .. . ... ... ...
ROW FE : ... .. . P82 ... ... : ... .. . P82 ... ... : ... .. . ... ... ... : ... .. 2 ... ... ... : ... .. . ... ... ... : ... .. . ... ... ... : ... .. . P7F ... ... : ... .. 4 ... ... ... : ... .. . ... ... ... : ... .. 1 ... ... ... : ... .. . P79 ... ... : ... .. . ... ... ... : ... .. . ... ... ...
ROW FF : ... .. . P83 ... ... : ... .. . P83 ... ... : ... .. . ... ... ... : ... .. . ... ... ... : ... .. . ... ... ... : ... .. . P80 ... ... : ... .. . P80 ... ... : ... .. . ... ... ... : ... .. . ... ... ... : ... .. . ... ... ... : ... .. . P7C ... ... : ... .. . ... ... ... : ... .. . ... ... ...

PATTERN 03
ROW 00 : ... .. 2 P82 ... ... : ... .. 2 P82 ... ... : ... .. . ... ... ... : ... .. . ... ... ... : ... .. . ... ... ... : ... .. 2 P81 ... ... : ... .. . P81 ... ... : ... .. . ... ... ... : ... .. . ... ... ... : ... .. . ... ... ... : ... .. . P80 ... ... : ... .. . ... ... ... : ... .. . ... ... ...
ROW 01 : ... .. . P80 ... ... : ... .. . P80 ... ... : ... .. . ... ... ... : ... .. . ... ... ... : ... .. . ... ... ... : ... .. . P82 ... ... : ... .. . P80 ... ... : ... .. . ... ... ... : ... .. . ... ... ... : ... .. . ... ... ... : ... .. . P85 ... ... : ... .. . ... ... ... : ... .. . ... ... ...
ROW 02 : ... .. 3 P7E ... ... : ... .. 3 P7E ... ... : ... .. . ... ... ... : ... .. 1 ... ... ... : ... .. . ... ... ... : ... .. 3 P81 ... ... : ... .. . P7F ... ... : ... .. 3 ... ... ... : ... .. 4 ... ... ... : --- .. . ... ... ... : ... .. . P88 ... ... : ... .. . ... ... ... : ... .. . ... ... ...
ROW 03 : ... .. . P7D ... ... : ... .. . P7D ... ... : ... .. . ... ... ... : ... .. . ... ... ... : ... .. . ... ... ... : ... .. . P80 ... ... : ... .. . P80 ... ... : ... .. . ... ... ... : ... .. . ... ... ... : ... .. . ... ... ... : ... .. . ... ... ... : ... .. . ... ... ... : ... .. . ... ... ...
ROW 04 : ... .. . P7E ... ... : ... .. . P7E ... ... : ... .. . ... ... ... : ... .. . ... ... ... : ... .. . ... ... ... : ... .. . P7F ... ... : ... .. . P81 ... ... : ... .. . ... ... ... : ... .. . ... ... ... : ... .. . ... ... ... : ... .. . P85 ... ... : ... .. . ... ... ... : ... .. . ... ... ...
ROW 05 : ... .. 4 P80 ... ... : ... .. 4 P80 ... ... : ... .. . ... ... ... : ... .. . ... ... ... : ... .. . ... ... ... : ... .. 4 ... ... ... : ... .. . ... ... ... : ... .. . ... ... ... : ... .. . ... ... ... : ... .. . ... ... ... : ... .. . P81 ... ... : ... .. . ... ... ... : ... .. . ... ... ...
ROW 06 : ... .. . P82 ... ... : ... .. . P82 ... ... : ... .. . ... ... ... : ... .. . ... ... ... : ... .. . ... ... ... : ... .. . ... ... ... : ... .. . P80 ... ... : ... .. 2 ... ... ... : ... .. . ... ... ... : ... .. . ... ... ... : ... .. . P7D ... ... : ... .. . ... ... ... : ... .. . ... ... ...
ROW 07 : ... .. . P83 ... ... : ... .. . P83 ... ... : ... .. . ... ... ... : --- .. . ... ... ... : ... .. . ... ... ... : ... .. . P80 ... ... : ... .. . ... ... ... : ... .. . ... ... ... : ... .. . ... ... ... : ... .. . ... ... ... : ... .. . P79 ... ... : ... .. . ... ... ... : ... .. . ... ... ...
ROW 08 : --- .. . ... ... ... : --- .. . ... ... ... : F#3 00 . P78 ... ... : 1-# 00 F ... ... ... : C-1 12 . ... ... ... : --- .. . ... ... ... : ... .. . P81 ... ... : ... .. . ... ... ... : ... .. . ... ... ... : ... .. . ... ... ... : ... .. . P78 ... ... : ... .. . ... ... ... : ... .. . ... ... ...
ROW 09 : ... .. . P80 ... ... : ... .. . P80 ... ... : C#3 00 . P7E ... ... : 2-# 00 7 ... ... ... : ... .. . ... ... ... : ... .. . ... ... ... : ... .. . ... ... ... : ... .. . ... ... ... : ... .. . ... ... ... : ... .. . ... ... ... : ... .. . P7A ... ... : ... .. . ... ... ... : ... .. . ... ... ...
ROW 0A : ... .. . ... ... ... : ... .. . ... ... ... : A-2 00 . P86 ... ... : 1-# 00 4 ... ... ... : ... .. . ... ... ... : ... .. . ... ... ... : ... .. . P80 ... ... : ... .. 1 ... ... ... : ... .. 3 ... ... ... : ... .. . ... ... ... : ... .. . P7E ... ... : ... .. . ... ... ... : ... .. . ... ... ...
ROW 0B : ... .. . ... ... ... : ... .. . ... ... ... : F#2 00 . P87 ... ... : ... .. 2 ... ... ... : ... .. . ... ... ... : ... .. . ... ... ... : ... .. . P7F ... ... : ... .. . ... ... ... : ... .. . ... ... ... : ... .. . ... ... ... : ... .. . P82 ... ... : ... .. . ... ... ... : ... .. . ... ... ...
ROW 0C : ... .. . ... ... ... : ... .. . ... ... ... : E-2 00 . P71 ... ... : ... .. 1 ... ... ... : ... .. . ... ... ... : ... .. . ... ... ... : ... .. . P80 ... ... : ... .. . ... ... ... : ... .. . ... ... ... : ... .. . ... ... ... : ... .. . P86 ... ... : ... .. . ... ... ... : ... .. . ... ... ...
ROW 0D : ... .. . ... ... ... : ... .. . ... ... ... : C#2 00 . P91 ... ... : --- .. . ... ... ... : ... .. . ... ... ... : ... .. . ... ... ... : ... .. . P81 ... ... : ... .. . ... ... ... : ... .. . ... ... ... : ... .. . ... ... ... : ... .. . P88 ... ... : ... .. . ... ... ... : ... .. . ... ... ...
ROW 0E : ... .. . ... ... ... : ... .. . ... ... ... : --- .. . ... ... ... : ... .. . ... ... ... : ... .. . ... ... ... : ... .. . ... ... ... : ... .. . P80 ... ... : --- .. . ... ... ... : ... .. . ... ... ... : ... .. . ... ... ... : ... .. . P87 ... ... : ... .. . ... ... ... : ... .. . ... ... ...
ROW 0F : ... .. . ... ... ... : ... .. . ... ... ... : ... .. . ... ... ... : ... .. . ... ... ... : ... .. . ... ... ... : ... .. . ... ... ... : ... .. . P7F ... ... : ... .. . ... ... ... : ... .. . ... ... ... : ... .. . ... ... ... : ... .. . P84 ... ... : ... .. . ... ... ... : ... .. . ... ... ...
ROW 10 : ... .. . ... ... ... : ... .. . ... ... ... : ... .. . ... ... ... : ... .. . ... ... ... : ... .. . ... ... ... : ... .. . ... ... ... : ... .. . P80 ... ... : ... .. . ... ... ... : ... .. . ... ... ... : ... .. . ... ... ... : ... .. . P80 ... ... : ... .. . ... ... ... : ... .. . ... ... ...
ROW 11 : ... .. . ... ... ... : ... .. . ... ... ... : ... .. . ... ... ... : ... .. . ... ... ... : ... .. . ... ... ... : ... .. . ... ... ... : ... .. . P81 ... ... : ... .. . ... ... ... : ... .. . ... ... ... : ... .. . ... ... ... : ... .. . P7C ... ... : ... .. . ... ... ... : ... .. . ... ... ...
ROW 12 : ... .. . ... ... ... : ... .. . ... ... ... : ... .. . ... ... ... : ... .. . ... ... ... : ... .. . ... ... ... : ... .. . ... ... ... : ... .. . P80 ... ... : ... .. . ... ... ... : ... .. 2 ... ... ... : ... .. . ... ... ... : ... .. . P79 ... ... : ... .. . ... ... ... : ... .. . ... ... ...
ROW 13 : ... .. . ... ... ... : ... .. . ... ... ... : ... .. . ... ... ... : ... .. . ... ... ... : ... .. . ... ... ... : ... .. . ... ... ... : ... .. . P7F ... ... : ... .. . ... ... ... : ... .. . ... ... ... : ... .. . ... ... ... : ... .. . P78 ... ... : ... .. . ... ... ... : ... .. . ... ... ...
ROW 14 : ... .. . ... ... ... : ... .. . ... ... ... : ... .. . ... ... ... : ... .. . ... ... ... : ... .. . ... ... ... : ... .. . ... ... ... : ... .. . P80 ... ... : ... .. . ... ... ... : ... .. . ... ... ... : ... .. . ... ... ... : ... .. . P7B ... ... : ... .. . ... ... ... : ... .. . ... ... ...
ROW 15 : ... .. . ... ... ... : ... .. . ... ... ... : ... .. . ... ... ... : ... .. . ... ... ... : ... .. . ... ... ... : ... .. . ... ... ... : ... .. . P81 ... ... : ... .. . ... ... ... : ... .. . ... ... ... : ... .. . ... ... ... : B-4 03 . P7F ... ... : ... .. . ... ... ... : ... .. . ... ... ...
ROW 16 : D#3 02 1 P82 ... ... : A#2 02 1 P82 ... ... : ... .. . ... ... ... : ... .. . ... ... ... : ... .. . ... ... ... : G-3 0C 1 P7F ... ... : ... .. . ... ... ... : ... .. . ... ... ... : ... .. . ... ... ... : ... .. . ... ... ... : ... .. . P84 ... ... : ... .. . ... ... ... : ... .. . ... ... ...
ROW 17 : ... .. . P83 ... ... : ... .. . P83 ... ... : ... .. . ... ... ... : ... .. . ... ... ... : ... .. . ... ... ... : ... .. . P80 ... ... : ... .. . P80 ... ... : ... .. . ... ... ... : ... .. . ... ... ... : ... .. . ... ... ... : ... .. . P89 ... ... : ... .. . ... ... ... : ... .. . ... ... ...
ROW 18 : ... .. . P82 ... ... : ... .. . P82 ... ... : ... .. . ... ... ... : ... .. . ... ... ... : ... .. . ... ... ... : ... .. . P81 ... ... : ... .. . ... ... ... : ... .. . ... ... ... : ... .. . ... ... ... : ... .. . ... ... ... : ... .. . P8B ... ... : ... .. . ... ... ... : ... .. . ... ... ...
ROW 19 : ... .. 2 P80 ... ... : ... .. 2 P80 ... ... : ... .. . ... ... ... : ... .. . ... ... ... : ... .. . ... ... ... : ... .. 2 P82 ... ... : ... .. . P81 ... ... : ... .. . ... ... ... : ... .. . ... ... ... : ... .. . ... ... ... : ... .. . P89 ... ... : ... .. . ... ... ... : ... .. . ... ... ...
ROW 1A : ... .. . P7E ... ... : ... .. . P7E ... ... : ... .. . ... ... ... : ... .. . ... ... ... : ... .. . ... ... ... : ... .. . P81 ... ... : ... .. . ... ... ... : ... .. . ... ... ... : ... .. 1 ... ... ... : ... .. . ... ... ... : ... .. . P83 ... ... : ... .. . ... ... ... : ... .. . ... ... ...
ROW 1B : ... .. 3 P7D ... ... : ... .. 3 P7D ... ... : ... .. . ... ... ... : ... .. . ... ... ... : ... .. . ... ... ... : ... .. 3 P80 ... ... : ... .. . P80 ... ... : ... .. . ... ... ... : ... .. . ... ... ... : ... .. . ... ... ... : ... .. . P7E ... ... : ... .. . ... ... ... : ... .. . ... ... ...
ROW 1C : ... .. . P7E ... ... : ... .. . P7E ... ... : ... .. . ... ... ... : ... .. . ... ... ... : ... .. . ... ... ... : ... .. . P7F ... ... : ... .. . P7F ... ... : ... .. . ... ... ... : ... .. . ... ... ... : ... .. . ... ... ... : ... .. . P79 ... ... : ... .. . ... ... ... : ... .. . ... ... ...
ROW 1D : ... .. . P80 ... ... : ... .. . P80 ... ... : ... .. . ... ... ... : ... .. . ... ... ... : ... .. . ... ... ... : ... .. . ... ... ... : ... .. . P80 ... ... : ... .. . ... ... ... : ... .. . ... ... ... : ... .. . ... ... ... : ... .. . P76 ... ... : ... .. . ... ... ... : ... .. . ... ... ...
ROW 1E : ... .. 4 P82 ... ... : ... .. 4 P82 ... ... : ... .. . ... ... ... : ... .. . ... ... ... : ... .. . ... ... ... : ... .. 4 ... ... ... : ... .. . P81 ... ... : ... .. . ... ... ... : ... .. . ... ... ... : ... .. . ... ... ... : ... .. . P77 ... ... : ... .. . ... ... ... : ... .. . ... ... ...
ROW 1F : ... .. . P83 ... ... : ... .. . P83 ... ... : ... .. . ... ... ... : ... .. . ... ... ... : ... .. . ... ... ... : ... .. . P80 ... ... : ... .. . P80 ... ... : ... .. . ... ... ... : ... .. . ... ... ... : ... .. . ... ... ... : ... .. . P7B ... ... : ... .. . ... ... ... : ... .. . ... ... ...
ROW 20 : ... .. . P82 ... ... : ... .. . P82 ... ... : ... .. . ... ... ... : ... .. . ... ... ... : ... .. . ... ... ... : ... .. . P81 ... ... : ... .. . P7F ... ... : ... .. . ... ... ... : ... .. . ... ... ... : ... .. . ... ... ... : ... .. . P80 ... ... : ... .. . ... ... ... : ... .. . ... ... ...
ROW 21 : --- .. . ... ... ... : --- .. . ... ... ... : F#3 00 . P78 ... ... : 1-# 00 F ... ... ... : C-1 12 . ... ... ... : --- .. . ... ... ... : G#1 03 . P80 ... ... : ... .. . ... ... ... : ... .. . ... ... ... : ... .. . ... ... ... : ... .. . P86 ... ... : ... .. . ... ... ... : ... .. . ... ... ...
ROW 22 : ... .. . P80 ... ... : ... .. . P80 ... ... : C#3 00 . P7E ... ... : 2-# 00 7 ... ... ... : ... .. . ... ... ... : ... .. . P80 ... ... : ... .. . P81 ... ... : ... .. . ... ... ... : --- .. . ... ... ... : ... .. . ... ... ... : ... .. . P8A ... ... : ... .. . ... ... ... : ... .. . ... ... ...
ROW 23 : ... .. . ... ... ... : ... .. . ... ... ... : A-2 00 . P86 ... ... : 1-# 00 4 ... ... ... : ... .. . ... ... ... : ... .. . ... ... ... : ... .. . P80 ... ... : ... .. . ... ... ... : ... .. . ... ... ... : ... .. . ... ... ... : ... .. . P8B ... ... : ... .. . ... ... ... : ... .. . ... ... ...
ROW 24 : ... .. . ... ... ... : ... .. . ... ... ... : F#2 00 . P87 ... ... : ... .. 2 ... ... ... : ... .. . ... ... ... : ... .. . ... ... ... : ... .. . ... ... ... : ... .. . ... ... ... : ... .. . ... ... ... : ... .. . ... ... ... : ... .. . P87 ... ... : ... .. . ... ... ... : ... .. . ... ... ...
ROW 25 : ... .. . ... ... ... : ... .. . ... ... ... : E-2 00 . P71 ... ... : ... .. 1 ... ... ... : ... .. . ... ... ... : ... .. . ... ... ... : ... .. . ... ... ... : ... .. . ... ... ... : ... .. . ... ... ... : ... .. . ... ... ... : ... .. . P81 ... ... : ... .. . ... ... ... : ... .. . ... ... ...
ROW 26 : ... .. . ... ... ... : ... .. . ... ... ... : C#2 00 . P91 ... ... : --- .. . ... ... ... : ... .. . ... ... ... : ... .. . ... ... ... : ... .. . P81 ... ... : ... .. . ... ... ... : ... .. . ... ... ... : ... .. . ... ... ... : ... .. . P7C ... ... : ... .. . ... ... ... : ... .. . ... ... ...
ROW 27 : ... .. . ... ... ... : ... .. . ... ... ... : --- .. . ... ... ... : ... .. . ... ... ... : ... .. . ... ... ... : ... .. . ... ... ... : ... .. . P80 ... ... : ... .. . ... ... ... : ... .. . ... ... ... : ... .. . ... ... ... : ... .. . P77 ... ... : ... .. . ... ... ... : ... .. . ... ... ...
ROW 28 : ... .. . ... ... ... : ... .. . ... ... ... : ... .. . ... ... ... : ... .. . ... ... ... : ... .. . ... ... ... : ... .. . ... ... ... : ... .. . ... ... ... : ... .. . ... ... ... : ... .. . ... ... ... : ... .. . ... ... ... : ... .. . P76 ... ... : ... .. . ... ... ... : ... .. . ... ... ...
ROW 29 : ... .. . ... ... ... : ... .. . ... ... ... : ... .. . ... ... ... : ... .. . ... ... ... : ... .. . ... ... ... : ... .. . ... ... ... : ... .. . ... ... ... : ... .. . ... ... ... : ... .. . ... ... ... : ... .. . ... ... ... : ... .. . P78 ... ... : ... .. . ... ... ... : ... .. . ... ... ...
ROW 2A : ... .. . ... ... ... : ... .. . ... ... ... : ... .. . ... ... ... : ... .. . ... ... ... : ... .. . ... ... ... : ... .. . ... ... ... : ... .. . ... ... ... : ... .. . ... ... ... : ... .. . ... ... ... : ... .. . ... ... ... : ... .. . P7D ... ... : ... .. . ... ... ... : ... .. . ... ... ...
ROW 2B : ... .. . ... ... ... : ... .. . ... ... ... : ... .. . ... ... ... : ... .. . ... ... ... : ... .. . ... ... ... : ... .. . ... ... ... : ... .. . P81 ... ... : ... .. . ... ... ... : ... .. . ... ... ... : ... .. . ... ... ... : ... .. . P82 ... ... : ... .. . ... ... ... : ... .. . ... ... ...
ROW 2C : ... .. . ... ... ... : ... .. . ... ... ... : ... .. . ... ... ... : ... .. . ... ... ... : ... .. . ... ... ... : ... .. . ... ... ... : ... .. . P80 ... ... : ... .. . ... ... ... : ... .. . ... ... ... : ... .. . ... ... ... : ... .. . P88 ... ... : ... .. . ... ... ... : ... .. . ... ... ...
ROW 2D : ... .. . ... ... ... : ... .. . ... ... ... : ... .. . ... ... ... : ... .. . ... ... ... : ... .. . ... ... ... : ... .. . ... ... ... : ... .. . ... ... ... : G#4 0A B ... ... ... : ... .. . ... ... ... : ... .. . ... ... ... : ... .. . P8B ... ... : ... .. . ... ... ... : ... .. . ... ... ...
ROW 2E : ... .. . ... ... ... : ... .. . ... ... ... : ... .. . ... ... ... : ... .. . ... ... ... : ... .. . ... ... ... : ... .. . ... ... ... : ... .. . ... ... ... : G#4 0B . ... ... ... : ... .. . ... ... ... : ... .. . ... ... ... : ... .. . P8A ... ... : ... .. . ... ... ... : ... .. . ... ... ...
ROW 2F : G#3 02 1 P83 ... ... : D#3 02 1 P83 ... ... : ... .. . ... ... ... : ... .. . ... ... ... : ... .. . ... ... ... : B-3 0C 1 ... ... ... : ... .. . P81 ... ... : G#4 0D . ... ... ... : ... .. . ... ... ... : ... .. . ... ... ... : ... .. . P85 ... ... : ... .. . ... ... ... : ... .. . ... ... ...
ROW 30 : ... .. . P82 ... ... : ... .. . P82 ... ... : ... .. . ... ... ... : ... .. . ... ... ... : ... .. . ... ... ... : ... .. . P81 ... ... : ... .. . P80 ... ... : G#4 0E . ... ... ... : ... .. . ... ... ... : ... .. . ... ... ... : ... .. . P80 ... ... : ... .. . ... ... ... : ... .. . ... ... ...
ROW 31 : ... .. . P80 ... ... : ... .. . P80 ... ... : ... .. . ... ... ... : ... .. . ... ... ... : ... .. . ... ... ... : ... .. . P82 ... ... : ... .. . ... ... ... : ... .. A ... ... ... : ... .. . ... ... ... : ... .. . ... ... ... : ... .. . P7A ... ... : ... .. . ... ... ... : ... .. . ... ... ...
ROW 32 : ... .. 2 P7E ... ... : ... .. 2 P7E ... ... : ... .. . ... ... ... : ... .. . ... ... ... : ... .. . ... ... ... : ... .. 2 P81 ... ... : ... .. . ... ... ... : G#4 0F . ... ... ... : ... .. . ... ... ... : ... .. . ... ... ... : ... .. . P76 ... ... : ... .. . ... ... ... : ... .. . ... ... ...
ROW 33 : ... .. . P7D ... ... : ... .. . P7D ... ... : ... .. . ... ... ... : ... .. . ... ... ... : ... .. . ... ... ... : ... .. . P80 ... ... : ... .. . P81 ... ... : ... .. . ... ... ... : ... .. . ... ... ... : ... .. . ... ... ... : ... .. . ... ... ... : ... .. . ... ... ... : ... .. . ... ... ...
ROW 34 : ... .. 3 P7E ... ... : ... .. 3 P7E ... ... : ... .. . ... ... ... : ... .. . ... ... ... : ... .. . ... ... ... : ... .. 3 P7F ... ... : ... .. . P80 ... ... : ... .. . ... ... ... : ... .. . ... ... ... : ... .. . ... ... ... : ... .. . P7A ... ... : ... .. . ... ... ... : ... .. . ... ... ...
ROW 35 : ... .. . P80 ... ... : ... .. . P80 ... ... : ... .. . ... ... ... : ... .. . ... ... ... : ... .. . ... ... ... : ... .. . ... ... ... : ... .. . ... ... ... : G#4 10 9 ... ... ... : ... .. . ... ... ... : ... .. . ... ... ... : ... .. . P7F ... ... : ... .. . ... ... ... : ... .. . ... ... ...
ROW 36 : ... .. . P82 ... ... : ... .. . P82 ... ... : ... .. . ... ... ... : ... .. . ... ... ... : ... .. . ... ... ... : ... .. . ... ... ... : ... .. . ... ... ... : ... .. . ... ... ... : ... .. . ... ... ... : ... .. . ... ... ... : ... .. . P84 ... ... : ... .. . ... ... ... : ... .. . ... ... ...
ROW 37 : ... .. 4 P83 ... ... : ... .. 4 P83 ... ... : ... .. . ... ... ... : ... .. . ... ... ... : ... .. . ... ... ... : ... .. 4 P80 ... ... : ... .. . P81 ... ... : ... .. . ... ... ... : ... .. . ... ... ... : ... .. . ... ... ... : ... .. . P89 ... ... : ... .. . ... ... ... : ... .. . ... ... ...
ROW 38 : ... .. . P82 ... ... : ... .. . P82 ... ... : ... .. . ... ... ... : ... .. . ... ... ... : ... .. . ... ... ... : ... .. . P81 ... ... : ... .. . ... ... ... : ... .. . ... ... ... : ... .. . ... ... ... : ... .. . ... ... ... : ... .. . P8B ... ... : ... .. . ... ... ... : ... .. . ... ... ...
ROW 39 : ... .. . P80 ... ... : ... .. . P80 ... ... : ... .. . ... ... ... : ... .. . ... ... ... : ... .. . ... ... ... : ... .. . P82 ... ... : ... .. . P80 ... ... : G#4 11 8 ... ... ... : ... .. . ... ... ... : ... .. . ... ... ... : ... .. . P89 ... ... : ... .. . ... ... ... : ... .. . ... ... ...
ROW 3A : --- .. . ... ... ... : --- .. . ... ... ... : ... .. . ... ... ... : ... .. . ... ... ... : ... .. . ... ... ... : --- .. . ... ... ... : ... .. . ... ... ... : F#4 0A B ... ... ... : ... .. . ... ... ... : ... .. . ... ... ... : ... .. . P83 ... ... : ... .. . ... ... ... : ... .. . ... ... ...
ROW 3B : ... .. . ... ... ... : ... .. . ... ... ... : ... .. . ... ... ... : ... .. . ... ... ... : ... .. . ... ... ... : ... .. . P80 ... ... : ... .. . ... ... ... : F#4 0B . ... ... ... : ... .. . ... ... ... : ... .. . ... ... ... : ... .. . P7E ... ... : ... .. . ... ... ... : ... .. . ... ... ...
ROW 3C : ... .. . ... ... ... : ... .. . ... ... ... : ... .. . ... ... ... : ... .. . ... ... ... : ... .. . ... ... ... : ... .. . ... ... ... : ... .. . P81 ... ... : F#4 0D . ... ... ... : ... .. . ... ... ... : ... .. . ... ... ... : ... .. . P79 ... ... : ... .. . ... ... ... : ... .. . ... ... ...
ROW 3D : ... .. . ... ... ... : ... .. . ... ... ... : ... .. . ... ... ... : ... .. . ... ... ... : ... .. . ... ... ... : ... .. . ... ... ... : ... .. . P80 ... ... : F#4 0E . ... ... ... : ... .. . ... ... ... : ... .. . ... ... ... : ... .. . P76 ... ... : ... .. . ... ... ... : ... .. . ... ... ...
ROW 3E : ... .. . ... ... ... : ... .. . ... ... ... : ... .. . ... ... ... : ... .. . ... ... ... : ... .. . ... ... ... : ... .. . ... ... ... : ... .. . ... ... ... : ... .. A ... ... ... : ... .. . ... ... ... : ... .. . ... ... ... : ... .. . P77 ... ... : ... .. . ... ... ... : ... .. . ... ... ...
ROW 3F : ... .. . ... ... ... : ... .. . ... ... ... : ... .. . ... ... ... : ... .. . ... ... ... : ... .. . ... ... ... : ... .. . ... ... ... : ... .. . ... ... ... : F#4 0F . ... ... ... : ... .. . ... ... ... : ... .. . ... ... ... : ... .. . P7B ... ... : ... .. . ... ... ... : ... .. . ... ... ...
ROW 40 : ... .. . ... ... ... : ... .. . ... ... ... : ... .. . ... ... ... : ... .. . ... ... ... : ... .. . ... ... ... : ... .. . ... ... ... : ... .. . P81 ... ... : ... .. . ... ... ... : ... .. . ... ... ... : ... .. . ... ... ... : ... .. . P80 ... ... : ... .. . ... ... ... : ... .. . ... ... ...
ROW 41 : ... .. . ... ... ... : ... .. . ... ... ... : ... .. . ... ... ... : ... .. . ... ... ... : ... .. . ... ... ... : ... .. . ... ... ... : ... .. . P80 ... ... : ... .. . ... ... ... : ... .. . ... ... ... : ... .. . ... ... ... : ... .. . P86 ... ... : ... .. . ... ... ... : ... .. . ... ... ...
ROW 42 : ... .. . ... ... ... : ... .. . ... ... ... : ... .. . ... ... ... : ... .. . ... ... ... : ... .. . ... ... ... : ... .. . ... ... ... : ... .. . ... ... ... : F#4 10 9 ... ... ... : ... .. . ... ... ... : ... .. . ... ... ... : ... .. . P8A ... ... : ... .. . ... ... ... : ... .. . ... ... ...
ROW 43 : ... .. . ... ... ... : ... .. . ... ... ... : ... .. . ... ... ... : ... .. . ... ... ... : ... .. . ... ... ... : ... .. . ... ... ... : ... .. . ... ... ... : ... .. . ... ... ... : ... .. . ... ... ... : ... .. . ... ... ... : ... .. . P8B ... ... : ... .. . ... ... ... : ... .. . ... ... ...
ROW 44 : ... .. . ... ... ... : ... .. . ... ... ... : ... .. . ... ... ... : ... .. . ... ... ... : ... .. . ... ... ... : ... .. . ... ... ... : ... .. . P81 ... ... : ... .. . ... ... ... : ... .. . ... ... ... : ... .. . ... ... ... : ... .. . P87 ... ... : ... .. . ... ... ... : ... .. . ... ... ...
ROW 45 : ... .. . ... ... ... : ... .. . ... ... ... : ... .. . ... ... ... : ... .. . ... ... ... : ... .. . ... ... ... : ... .. . ... ... ... : ... .. . P80 ... ... : ... .. . ... ... ... : ... .. . ... ... ... : ... .. . ... ... ... : ... .. . P81 ... ... : ... .. . ... ... ... : ... .. . ... ... ...
ROW 46 : ... .. . ... ... ... : ... .. . ... ... ... : F#3 00 . P78 ... ... : 1-# 00 F ... ... ... : C-1 12 . ... ... ... : ... .. . ... ... ... : ... .. . ... ... ... : G#4 0A B ... ... ... : ... .. . ... ... ... : ... .. . ... ... ... : ... .. . P7C ... ... : ... .. . ... ... ... : ... .. . ... ... ...
ROW 47 : ... .. . ... ... ... : ... .. . ... ... ... : C#3 00 . P7E ... ... : 2-# 00 7 ... ... ... : ... .. . ... ... ... : ... .. . ... ... ... : ... .. . ... ... ... : G#4 0B . ... ... ... : ... .. . ... ... ... : ... .. . ... ... ... : ... .. . P77 ... ... : ... .. . ... ... ... : ... .. . ... ... ...
ROW 48 : G#3 02 1 P82 ... ... : D#3 02 1 P82 ... ... : A-2 00 . P86 ... ... : 1-# 00 4 ... ... ... : ... .. . ... ... ... : B-3 0C 1 P81 ... ... : ... .. . ... ... ... : G#4 0D . ... ... ... : ... .. . ... ... ... : ... .. . ... ... ... : ... .. . P76 ... ... : ... .. . ... ... ... : ... .. . ... ... ...
ROW 49 : ... .. . P80 ... ... : ... .. . P80 ... ... : F#2 00 . P87 ... ... : ... .. 2 ... ... ... : ... .. . ... ... ... : ... .. . P82 ... ... : ... .. . P81 ... ... : G#4 0E . ... ... ... : ... .. . ... ... ... : ... .. . ... ... ... : ... .. . P78 ... ... : ... .. . ... ... ... : ... .. . ... ... ...
ROW 4A : ... .. . P7E ... ... : ... .. . P7E ... ... : E-2 00 . P71 ... ... : ... .. 1 ... ... ... : ... .. . ... ... ... : ... .. . P81 ... ... : ... .. . P80 ... ... : ... .. A ... ... ... : ... .. . ... ... ... : ... .. . ... ... ... : ... .. . P7D ... ... : ... .. . ... ... ... : ... .. . ... ... ...
ROW 4B : ... .. 2 P7D ... ... : ... .. 2 P7D ... ... : C#2 00 . P91 ... ... : --- .. . ... ... ... : ... .. . ... ... ... : ... .. 2 P80 ... ... : ... .. . ... ... ... : G#4 0F . ... ... ... : ... .. . ... ... ... : ... .. . ... ... ... : ... .. . P82 ... ... : ... .. . ... ... ... : ... .. . ... ... ...
ROW 4C : ... .. . P7E ... ... : ... .. . P7E ... ... : --- .. . ... ... ... : ... .. . ... ... ... : ... .. . ... ... ... : ... .. . P7F ... ... : ... .. . ... ... ... : ... .. . ... ... ... : ... .. . ... ... ... : ... .. . ... ... ... : ... .. . P88 ... ... : ... .. . ... ... ... : ... .. . ... ... ...
ROW 4D : ... .. 3 P80 ... ... : ... .. 3 P80 ... ... : ... .. . ... ... ... : ... .. . ... ... ... : ... .. . ... ... ... : ... .. 3 ... ... ... : ... .. . P81 ... ... : ... .. . ... ... ... : ... .. . ... ... ... : ... .. . ... ... ... : ... .. . P8B ... ... : ... .. . ... ... ... : ... .. . ... ... ...
ROW 4E : ... .. . P82 ... ... : ... .. . P82 ... ... : ... .. . ... ... ... : ... .. . ... ... ... : ... .. . ... ... ... : ... .. . ... ... ... : ... .. . P80 ... ... : G#4 10 9 ... ... ... : ... .. . ... ... ... : ... .. . ... ... ... : ... .. . P8A ... ... : ... .. . ... ... ... : ... .. . ... ... ...
ROW 4F : ... .. . P83 ... ... : ... .. . P83 ... ... : ... .. . ... ... ... : ... .. . ... ... ... : ... .. . ... ... ... : ... .. . P80 ... ... : ... .. . ... ... ... : ... .. . ... ... ... : ... .. . ... ... ... : ... .. . ... ... ... : ... .. . P85 ... ... : ... .. . ... ... ... : ... .. . ... ... ...
ROW 50 : ... .. 4 P82 ... ... : ... .. 4 P82 ... ... : ... .. . ... ... ... : ... .. . ... ... ... : ... .. . ... ... ... : ... .. 4 P81 ... ... : ... .. . ... ... ... : ... .. . ... ... ... : ... .. . ... ... ... : ... .. . ... ... ... : ... .. . P80 ... ... : ... .. . ... ... ... : ... .. . ... ... ...
ROW 51 : ... .. . P80 ... ... : ... .. . P80 ... ... : ... .. . ... ... ... : ... .. . ... ... ... : ... .. . ... ... ... : ... .. . P82 ... ... : ... .. . P81 ... ... : ... .. . ... ... ... : ... .. . ... ... ... : ... .. . ... ... ... : ... .. . P7A ... ... : ... .. . ... ... ... : ... .. . ... ... ...
ROW 52 : ... .. . P7E ... ... : ... .. . P7E ... ... : ... .. . ... ... ... : ... .. . ... ... ... : ... .. . ... ... ... : ... .. . P81 ... ... : ... .. . P80 ... ... : G#4 11 8 ... ... ... : ... .. . ... ... ... : ... .. . ... ... ... : ... .. . P76 ... ... : ... .. . ... ... ... : ... .. . ... ... ...
ROW 53 : --- .. . ... ... ... : --- .. . ... ... ... : C#4 00 . P7F ... ... : 9-# 00 F ... ... ... : C#1 12 . ... ... ... : --- .. . ... ... ... : ... .. . ... ... ... : B-4 0A B ... ... ... : ... .. . ... ... ... : ... .. . ... ... ... : ... .. . ... ... ... : ... .. . ... ... ... : ... .. . ... ... ...
ROW 54 : ... .. . P80 ... ... : ... .. . P80 ... ... : F#3 00 . P83 ... ... : 2-# 00 7 ... ... ... : ... .. . ... ... ... : ... .. . P80 ... ... : ... .. . ... ... ... : B-4 0B . ... ... ... : ... .. . ... ... ... : ... .. . ... ... ... : ... .. . P7A ... ... : ... .. . ... ... ... : ... .. . ... ... ...
ROW 55 : ... .. . ... ... ... : ... .. . ... ... ... : C#3 00 . P89 ... ... : 6-# 00 C ... ... ... : ... .. . ... ... ... : ... .. . ... ... ... : ... .. . P81 ... ... : B-4 0D . ... ... ... : ... .. . ... ... ... : ... .. . ... ... ... : ... .. . P7F ... ... : ... .. . ... ... ... : ... .. . ... ... ...
ROW 56 : ... .. . ... ... ... : ... .. . ... ... ... : A#2 00 . P75 ... ... : 7-# 00 8 ... ... ... : ... .. . ... ... ... : ... .. . ... ... ... : ... .. . P80 ... ... : B-4 0E . ... ... ... : ... .. . ... ... ... : ... .. . ... ... ... : ... .. . P84 ... ... : ... .. . ... ... ... : ... .. . ... ... ...
ROW 57 : ... .. . ... ... ... : ... .. . ... ... ... : G-2 00 . P70 ... ... : 8-# 00 7 ... ... ... : ... .. . ... ... ... : ... .. . ... ... ... : ... .. . ... ... ... : ... .. A ... ... ... : ... .. . ... ... ... : ... .. . ... ... ... : ... .. . P89 ... ... : ... .. . ... ... ... : ... .. . ... ... ...
ROW 58 : ... .. . ... ... ... : ... .. . ... ... ... : E-2 00 . P7C ... ... : ... .. 6 ... ... ... : ... .. . ... ... ... : ... .. . ... ... ... : ... .. . ... ... ... : B-4 0F . ... ... ... : ... .. . ... ... ... : ... .. . ... ... ... : ... .. . P8B ... ... : ... .. . ... ... ... : ... .. . ... ... ...
ROW 59 : ... .. . ... ... ... : ... .. . ... ... ... : D-2 00 . P6F ... ... : ... .. . ... ... ... : ... .. . ... ... ... : ... .. . ... ... ... : ... .. . ... ... ... : ... .. . ... ... ... : ... .. . ... ... ... : ... .. . ... ... ... : ... .. . P89 ... ... : ... .. . ... ... ... : ... .. . ... ... ...
ROW 5A : ... .. . ... ... ... : ... .. . ... ... ... : C-2 00 . P6C ... ... : ... .. 5 ... ... ... : ... .. . ... ... ... : ... .. . ... ... ... : ... .. . P81 ... ... : ... .. . ... ... ... : ... .. . ... ... ... : ... .. . ... ... ... : ... .. . P83 ... ... : ... .. . ... ... ... : ... .. . ... ... ...
ROW 5B : ... .. . ... ... ... : ... .. . ... ... ... : A#1 00 . P75 ... ... : ... .. . ... ... ... : ... .. . ... ... ... : ... .. . ... ... ... : ... .. . P80 ... ... : B-4 10 9 ... ... ... : ... .. . ... ... ... : ... .. . ... ... ... : ... .. . P7E ... ... : ... .. . ... ... ... : ... .. . ... ... ...
ROW 5C : ... .. . ... ... ... : ... .. . ... ... ... : G#1 00 . P8A ... ... : ... .. 4 ... ... ... : ... .. . ... ... ... : ... .. . ... ... ... : ... .. . ... ... ... : ... .. . ... ... ... : ... .. . ... ... ... : ... .. . ... ... ... : ... .. . P79 ... ... : ... .. . ... ... ... : ... .. . ... ... ...
ROW 5D : ... .. . ... ... ... : ... .. . ... ... ... : G-1 00 . P6A ... ... : ... .. . ... ... ... : ... .. . ... ... ... : ... .. . ... ... ... : ... .. . ... ... ... : ... .. . ... ... ... : ... .. . ... ... ... : ... .. . ... ... ... : ... .. . P76 ... ... : ... .. . ... ... ... : ... .. . ... ... ...
ROW 5E : ... .. . ... ... ... : ... .. . ... ... ... : F-1 00 . P96 ... ... : ... .. 3 ... ... ... : ... .. . ... ... ... : ... .. . ... ... ... : ... .. . P81 ... ... : ... .. . ... ... ... : ... .. . ... ... ... : ... .. . ... ... ... : ... .. . P77 ... ... : ... .. . ... ... ... : ... .. . ... ... ...
ROW 5F : ... .. . ... ... ... : ... .. . ... ... ... : --- .. . ... ... ... : ... .. . ... ... ... : ... .. . ... ... ... : ... .. . ... ... ... : ... .. . P80 ... ... : B-4 11 8 ... ... ... : ... .. . ... ... ... : ... .. . ... ... ... : ... .. . P7B ... ... : ... .. . ... ... ... : ... .. . ... ... ...
ROW 60 : ... .. . ... ... ... : ... .. . ... ... ... : ... .. . ... ... ... : ... .. . ... ... ... : ... .. . ... ... ... : ... .. . ... ... ... : ... .. . ... ... ... : ... .. . ... ... ... : ... .. . ... ... ... : ... .. . ... ... ... : ... .. . P80 ... ... : ... .. . ... ... ... : ... .. . ... ... ...
ROW 61 : G#3 02 1 ... ... ... : D#3 02 1 ... ... ... : ... .. . ... ... ... : ... .. . ... ... ... : ... .. . ... ... ... : B-3 0C 1 P82 ... ... : ... .. . ... ... ... : ... .. . ... ... ... : ... .. . ... ... ... : ... .. . ... ... ... : ... .. . P86 ... ... : ... .. . ... ... ... : ... .. . ... ... ...
ROW 62 : ... .. . P7E ... ... : ... .. . P7E ... ... : ... .. . ... ... ... : ... .. 2 ... ... ... : ... .. . ... ... ... : ... .. . P81 ... ... : ... .. . P81 ... ... : ... .. . ... ... ... : ... .. . ... ... ... : ... .. . ... ... ... : ... .. . P8A ... ... : ... .. . ... ... ... : ... .. . ... ... ...
ROW 63 : ... .. . P7D ... ... : ... .. . P7D ... ... : ... .. . ... ... ... : ... .. . ... ... ... : ... .. . ... ... ... : ... .. . P80 ... ... : ... .. . P80 ... ... : ... .. 7 ... ... ... : ... .. . ... ... ... : ... .. . ... ... ... : ... .. . P8B ... ... : ... .. . ... ... ... : ... .. . ... ... ...
ROW 64 : ... .. 2 P7E ... ... : ... .. 2 P7E ... ... : ... .. . ... ... ... : ... .. . ... ... ... : ... .. . ... ... ... : ... .. 2 P7F ... ... : ... .. . ... ... ... : ... .. . ... ... ... : ... .. . ... ... ... : ... .. . ... ... ... : ... .. . P87 ... ... : ... .. . ... ... ... : ... .. . ... ... ...
ROW 65 : ... .. . P80 ... ... : ... .. . P80 ... ... : ... .. . ... ... ... : ... .. . ... ... ... : ... .. . ... ... ... : ... .. . ... ... ... : ... .. . ... ... ... : ... .. . ... ... ... : ... .. . ... ... ... : ... .. . ... ... ... : ... .. . P81 ... ... : ... .. . ... ... ... : ... .. . ... ... ...
ROW 66 : ... .. 3 P82 ... ... : ... .. 3 P82 ... ... : ... .. . ... ... ... : ... .. 1 ... ... ... : ... .. . ... ... ... : ... .. 3 ... ... ... : ... .. . P81 ... ... : ... .. . ... ... ... : ... .. . ... ... ... : ... .. . ... ... ... : ... .. . P7C ... ... : ... .. . ... ... ... : ... .. . ... ... ...
ROW 67 : ... .. . P83 ... ... : ... .. . P83 ... ... : ... .. . ... ... ... : ... .. . ... ... ... : ... .. . ... ... ... : ... .. . P80 ... ... : ... .. . P80 ... ... : ... .. 6 ... ... ... : ... .. . ... ... ... : ... .. . ... ... ... : ... .. . P77 ... ... : ... .. . ... ... ... : ... .. . ... ... ...
ROW 68 : ... .. . P82 ... ... : ... .. . P82 ... ... : ... .. . ... ... ... : ... .. . ... ... ... : ... .. . ... ... ... : ... .. . P81 ... ... : ... .. . ... ... ... : ... .. . ... ... ... : ... .. . ... ... ... : ... .. . ... ... ... : ... .. . P76 ... ... : ... .. . ... ... ... : ... .. . ... ... ...
ROW 69 : ... .. 4 P80 ... ... : ... .. 4 P80 ... ... : ... .. . ... ... ... : ... .. . ... ... ... : ... .. . ... ... ... : ... .. 4 P82 ... ... : ... .. . ... ... ... : ... .. . ... ... ... : ... .. . ... ... ... : ... .. . ... ... ... : ... .. . P78 ... ... : ... .. . ... ... ... : ... .. . ... ... ...
ROW 6A : ... .. . P7E ... ... : ... .. . P7E ... ... : ... .. . ... ... ... : ... .. . ... ... ... : ... .. . ... ... ... : ... .. . P81 ... ... : ... .. . ... ... ... : ... .. . ... ... ... : ... .. . ... ... ... : ... .. . ... ... ... : ... .. . P7D ... ... : ... .. . ... ... ... : ... .. . ... ... ...
ROW 6B : ... .. . P7D ... ... : ... .. . P7D ... ... : ... .. . ... ... ... : --- .. . ... ... ... : ... .. . ... ... ... : ... .. . P80 ... ... : ... .. . P81 ... ... : ... .. 5 ... ... ... : ... .. . ... ... ... : ... .. . ... ... ... : ... .. . P82 ... ... : ... .. . ... ... ... : ... .. . ... ... ...
ROW 6C : --- .. . ... ... ... : --- .. . ... ... ... : ... .. . ... ... ... : ... .. . ... ... ... : ... .. . ... ... ... : --- .. . ... ... ... : ... .. . P80 ... ... : C#5 0A B ... ... ... : G#4 0A 8 ... ... ... : ... .. . ... ... ... : ... .. . P88 ... ... : ... .. . ... ... ... : ... .. . ... ... ...
ROW 6D : ... .. . P80 ... ... : ... .. . P80 ... ... : ... .. . ... ... ... : ... .. . ... ... ... : ... .. . ... ... ... : ... .. . ... ... ... : ... .. . ... ... ... : C#5 0B . ... ... ... : G#4 0B . ... ... ... : ... .. . ... ... ... : ... .. . P8B ... ... : ... .. . ... ... ... : ... .. . ... ... ...
ROW 6E : ... .. . ... ... ... : ... .. . ... ... ... : ... .. . ... ... ... : ... .. . ... ... ... : ... .. . ... ... ... : ... .. . ... ... ... : ... .. . ... ... ... : C#5 0D . ... ... ... : G#4 0D . ... ... ... : ... .. . ... ... ... : ... .. . P8A ... ... : ... .. . ... ... ... : ... .. . ... ... ...
ROW 6F : ... .. . ... ... ... : ... .. . ... ... ... : ... .. . ... ... ... : ... .. . ... ... ... : ... .. . ... ... ... : ... .. . ... ... ... : ... .. . P81 ... ... : C#5 0E . ... ... ... : G#4 0E . ... ... ... : ... .. . ... ... ... : ... .. . P85 ... ... : ... .. . ... ... ... : ... .. . ... ... ...
ROW 70 : ... .. . ... ... ... : ... .. . ... ... ... : ... .. . ... ... ... : ... .. . ... ... ... : ... .. . ... ... ... : ... .. . ... ... ... : ... .. . P80 ... ... : ... .. A ... ... ... : ... .. 7 ... ... ... : ... .. . ... ... ... : ... .. . P80 ... ... : ... .. . ... ... ... : ... .. . ... ... ...
ROW 71 : ... .. . ... ... ... : ... .. . ... ... ... : ... .. . ... ... ... : ... .. . ... ... ... : ... .. . ... ... ... : ... .. . ... ... ... : ... .. . ... ... ... : C#5 0F . ... ... ... : G#4 0F . ... ... ... : ... .. . ... ... ... : ... .. . P7A ... ... : ... .. . ... ... ... : ... .. . ... ... ...
ROW 72 : ... .. . ... ... ... : ... .. . ... ... ... : ... .. . ... ... ... : ... .. . ... ... ... : ... .. . ... ... ... : ... .. . ... ... ... : ... .. . ... ... ... : ... .. . ... ... ... : ... .. . ... ... ... : ... .. . ... ... ... : ... .. . P76 ... ... : ... .. . ... ... ... : ... .. . ... ... ...
ROW 73 : ... .. . ... ... ... : ... .. . ... ... ... : ... .. . ... ... ... : ... .. . ... ... ... : ... .. . ... ... ... : ... .. . ... ... ... : ... .. . P81 ... ... : ... .. . ... ... ... : ... .. . ... ... ... : ... .. . ... ... ... : ... .. . ... ... ... : ... .. . ... ... ... : ... .. . ... ... ...
ROW 74 : ... .. . ... ... ... : ... .. . ... ... ... : ... .. . ... ... ... : ... .. . ... ... ... : ... .. . ... ... ... : ... .. . ... ... ... : ... .. . P80 ... ... : C#5 10 9 ... ... ... : G#4 10 6 ... ... ... : ... .. . ... ... ... : ... .. . P7A ... ... : ... .. . ... ... ... : ... .. . ... ... ...
ROW 75 : ... .. . ... ... ... : ... .. . ... ... ... : ... .. . ... ... ... : ... .. . ... ... ... : ... .. . ... ... ... : ... .. . ... ... ... : ... .. . ... ... ... : ... .. . ... ... ... : ... .. . ... ... ... : ... .. . ... ... ... : ... .. . P7F ... ... : ... .. . ... ... ... : ... .. . ... ... ...
ROW 76 : ... .. . ... ... ... : ... .. . ... ... ... : ... .. . ... ... ... : ... .. . ... ... ... : ... .. . ... ... ... : ... .. . ... ... ... : ... .. . ... ... ... : ... .. . ... ... ... : ... .. . ... ... ... : ... .. . ... ... ... : ... .. . P84 ... ... : ... .. . ... ... ... : ... .. . ... ... ...
ROW 77 : ... .. . ... ... ... : ... .. . ... ... ... : ... .. . ... ... ... : ... .. . ... ... ... : ... .. . ... ... ... : ... .. . ... ... ... : ... .. . P81 ... ... : ... .. . ... ... ... : ... .. . ... ... ... : ... .. . ... ... ... : ... .. . P89 ... ... : ... .. . ... ... ... : ... .. . ... ... ...
ROW 78 : ... .. . ... ... ... : ... .. . ... ... ... : ... .. . ... ... ... : ... .. . ... ... ... : ... .. . ... ... ... : ... .. . ... ... ... : ... .. . ... ... ... : C#5 11 8 ... ... ... : G#4 11 5 ... ... ... : ... .. . ... ... ... : ... .. . P8B ... ... : ... .. . ... ... ... : ... .. . ... ... ...
ROW 79 : ... .. . ... ... ... : ... .. . ... ... ... : ... .. . ... ... ... : ... .. . ... ... ... : ... .. . ... ... ... : ... .. . ... ... ... : ... .. . P80 ... ... : ... .. . ... ... ... : ... .. . ... ... ... : ... .. . ... ... ... : F#5 03 . P89 ... ... : ... .. . ... ... ... : ... .. . ... ... ...
ROW 7A : G#3 02 1 P7E ... ... : D#3 02 1 P7E ... ... : ... .. . ... ... ... : ... .. . ... ... ... : ... .. . ... ... ... : B-3 0C 1 P81 ... ... : ... .. . ... ... ... : ... .. . ... ... ... : ... .. . ... ... ... : ... .. . ... ... ... : ... .. . P83 ... ... : ... .. . ... ... ... : ... .. . ... ... ...
ROW 7B : ... .. . P7D ... ... : ... .. . P7D ... ... : ... .. . ... ... ... : ... .. . ... ... ... : ... .. . ... ... ... : ... .. . P80 ... ... : ... .. . ... ... ... : ... .. . ... ... ... : ... .. . ... ... ... : ... .. . ... ... ... : ... .. . P7E ... ... : ... .. . ... ... ... : ... .. . ... ... ...
ROW 7C : ... .. . P7E ... ... : ... .. . P7E ... ... : ... .. . ... ... ... : ... .. . ... ... ... : ... .. . ... ... ... : ... .. . P7F ... ... : ... .. . P81 ... ... : ... .. 7 ... ... ... : ... .. 4 ... ... ... : ... .. . ... ... ... : ... .. . P79 ... ... : ... .. . ... ... ... : ... .. . ... ... ...
ROW 7D : ... .. 2 P80 ... ... : ... .. 2 P80 ... ... : ... .. . ... ... ... : ... .. . ... ... ... : ... .. . ... ... ... : ... .. 2 ... ... ... : ... .. . P80 ... ... : ... .. . ... ... ... : ... .. . ... ... ... : ... .. . ... ... ... : ... .. . P76 ... ... : ... .. . ... ... ... : ... .. . ... ... ...
ROW 7E : ... .. . P82 ... ... : ... .. . P82 ... ... : ... .. . ... ... ... : ... .. . ... ... ... : ... .. . ... ... ... : ... .. . ... ... ... : ... .. . ... ... ... : ... .. . ... ... ... : ... .. . ... ... ... : ... .. . ... ... ... : ... .. . P77 ... ... : ... .. . ... ... ... : ... .. . ... ... ...
ROW 7F : ... .. 3 P83 ... ... : ... .. 3 P83 ... ... : ... .. . ... ... ... : ... .. . ... ... ... : ... .. . ... ... ... : ... .. 3 P80 ... ... : ... .. . ... ... ... : ... .. . ... ... ... : ... .. . ... ... ... : ... .. . ... ... ... : ... .. . P7B ... ... : ... .. . ... ... ... : ... .. . ... ... ...
ROW 80 : ... .. . P82 ... ... : ... .. . P82 ... ... : ... .. . ... ... ... : ... .. . ... ... ... : ... .. . ... ... ... : ... .. . P81 ... ... : ... .. . P81 ... ... : ... .. 6 ... ... ... : ... .. 3 ... ... ... : ... .. . ... ... ... : ... .. . P80 ... ... : ... .. . ... ... ... : ... .. . ... ... ...
ROW 81 : ... .. . P80 ... ... : ... .. . P80 ... ... : ... .. . ... ... ... : ... .. . ... ... ... : ... .. . ... ... ... : ... .. . P82 ... ... : ... .. . P80 ... ... : ... .. . ... ... ... : ... .. . ... ... ... : ... .. . ... ... ... : ... .. . P86 ... ... : ... .. . ... ... ... : ... .. . ... ... ...
ROW 82 : ... .. 4 P7E ... ... : ... .. 4 P7E ... ... : ... .. . ... ... ... : ... .. . ... ... ... : ... .. . ... ... ... : ... .. 4 P81 ... ... : ... .. . ... ... ... : ... .. . ... ... ... : ... .. . ... ... ... : ... .. . ... ... ... : ... .. . P8A ... ... : ... .. . ... ... ... : ... .. . ... ... ...
ROW 83 : ... .. . P7D ... ... : ... .. . P7D ... ... : ... .. . ... ... ... : ... .. . ... ... ... : ... .. . ... ... ... : ... .. . P80 ... ... : ... .. . ... ... ... : ... .. . ... ... ... : ... .. . ... ... ... : ... .. . ... ... ... : ... .. . P8B ... ... : ... .. . ... ... ... : ... .. . ... ... ...
ROW 84 : ... .. . P7E ... ... : ... .. . P7E ... ... : ... .. . ... ... ... : ... .. . ... ... ... : ... .. . ... ... ... : ... .. . P7F ... ... : ... .. . P81 ... ... : ... .. 5 ... ... ... : ... .. 2 ... ... ... : ... .. . ... ... ... : ... .. . P87 ... ... : ... .. . ... ... ... : ... .. . ... ... ...
ROW 85 : --- .. . ... ... ... : --- .. . ... ... ... : F#3 00 . P78 ... ... : 1-# 00 F ... ... ... : C-1 12 . ... ... ... : --- .. . ... ... ... : E-2 03 . ... ... ... : B-4 0A B ... ... ... : G#4 0A 8 ... ... ... : ... .. . ... ... ... : ... .. . P81 ... ... : ... .. . ... ... ... : ... .. . ... ... ...
ROW 86 : ... .. . P80 ... ... : ... .. . P80 ... ... : C#3 00 . P7E ... ... : 2-# 00 7 ... ... ... : ... .. . ... ... ... : ... .. . P80 ... ... : ... .. . P80 ... ... : B-4 0B . ... ... ... : G#4 0B . ... ... ... : ... .. . ... ... ... : ... .. . P7C ... ... : ... .. . ... ... ... : ... .. . ... ... ...
ROW 87 : ... .. . ... ... ... : ... .. . ... ... ... : A-2 00 . P86 ... ... : 1-# 00 4 ... ... ... : ... .. . ... ... ... : ... .. . ... ... ... : ... .. . ... ... ... : B-4 0D . ... ... ... : G#4 0D . ... ... ... : ... .. . ... ... ... : ... .. . P77 ... ... : ... .. . ... ... ... : ... .. . ... ... ...
ROW 88 : ... .. . ... ... ... : ... .. . ... ... ... : F#2 00 . P87 ... ... : ... .. 2 ... ... ... : ... .. . ... ... ... : ... .. . ... ... ... : ... .. . P81 ... ... : B-4 0E . ... ... ... : G#4 0E . ... ... ... : ... .. . ... ... ... : ... .. . P76 ... ... : ... .. . ... ... ... : ... .. . ... ... ...
ROW 89 : ... .. . ... ... ... : ... .. . ... ... ... : E-2 00 . P71 ... ... : ... .. 1 ... ... ... : ... .. . ... ... ... : ... .. . ... ... ... : ... .. . ... ... ... : ... .. A ... ... ... : ... .. 7 ... ... ... : ... .. . ... ... ... : ... .. . P78 ... ... : ... .. . ... ... ... : ... .. . ... ... ...
ROW 8A : ... .. . ... ... ... : ... .. . ... ... ... : C#2 00 . P91 ... ... : --- .. . ... ... ... : ... .. . ... ... ... : ... .. . ... ... ... : ... .. . P80 ... ... : B-4 0F . ... ... ... : G#4 0F . ... ... ... : ... .. . ... ... ... : ... .. . P7D ... ... : ... .. . ... ... ... : ... .. . ... ... ...
ROW 8B : ... .. . ... ... ... : ... .. . ... ... ... : --- .. . ... ... ... : ... .. . ... ... ... : ... .. . ... ... ... : ... .. . ... ... ... : ... .. . P7F ... ... : ... .. . ... ... ... : ... .. . ... ... ... : ... .. . ... ... ... : ... .. . P82 ... ... : ... .. . ... ... ... : ... .. . ... ... ...
ROW 8C : ... .. . ... ... ... : ... .. . ... ... ... : ... .. . ... ... ... : ... .. . ... ... ... : ... .. . ... ... ... : ... .. . ... ... ... : ... .. . P80 ... ... : ... .. . ... ... ... : ... .. . ... ... ... : ... .. . ... ... ... : ... .. . P88 ... ... : ... .. . ... ... ... : ... .. . ... ... ...
ROW 8D : ... .. . ... ... ... : ... .. . ... ... ... : ... .. . ... ... ... : ... .. . ... ... ... : ... .. . ... ... ... : ... .. . ... ... ... : ... .. . P81 ... ... : B-4 10 9 ... ... ... : G#4 10 6 ... ... ... : ... .. . ... ... ... : ... .. . P8B ... ... : ... .. . ... ... ... : ... .. . ... ... ...
ROW 8E : ... .. . ... ... ... : ... .. . ... ... ... : ... .. . ... ... ... : ... .. . ... ... ... : ... .. . ... ... ... : ... .. . ... ... ... : ... .. . P80 ... ... : ... .. . ... ... ... : ... .. . ... ... ... : ... .. . ... ... ... : ... .. . P8A ... ... : ... .. . ... ... ... : ... .. . ... ... ...
ROW 8F : ... .. . ... ... ... : ... .. . ... ... ... : ... .. . ... ... ... : ... .. . ... ... ... : ... .. . ... ... ... : ... .. . ... ... ... : ... .. . P7F ... ... : ... .. . ... ... ... : ... .. . ... ... ... : ... .. . ... ... ... : ... .. . P85 ... ... : ... .. . ... ... ... : ... .. . ... ... ...
ROW 90 : ... .. . ... ... ... : ... .. . ... ... ... : ... .. . ... ... ... : ... .. . ... ... ... : ... .. . ... ... ... : ... .. . ... ... ... : ... .. . P80 ... ... : ... .. . ... ... ... : ... .. . ... ... ... : ... .. . ... ... ... : ... .. . P80 ... ... : ... .. . ... ... ... : ... .. . ... ... ...
ROW 91 : ... .. . ... ... ... : ... .. . ... ... ... : ... .. . ... ... ... : ... .. . ... ... ... : ... .. . ... ... ... : ... .. . ... ... ... : ... .. . P81 ... ... : G#4 0A B ... ... ... : E-4 0A 8 ... ... ... : ... .. . ... ... ... : ... .. . P7A ... ... : ... .. . ... ... ... : ... .. . ... ... ...
ROW 92 : ... .. . ... ... ... : ... .. . ... ... ... : ... .. . ... ... ... : ... .. . ... ... ... : ... .. . ... ... ... : ... .. . ... ... ... : ... .. . P80 ... ... : G#4 0B . ... ... ... : E-4 0B . ... ... ... : ... .. . ... ... ... : ... .. . P76 ... ... : ... .. . ... ... ... : ... .. . ... ... ...
ROW 93 : E-3 02 1 P7D ... ... : B-2 02 1 P7D ... ... : ... .. . ... ... ... : ... .. . ... ... ... : ... .. . ... ... ... : G#3 0C 1 ... ... ... : ... .. . P7F ... ... : G#4 0D . ... ... ... : E-4 0D . ... ... ... : ... .. . ... ... ... : ... .. . ... ... ... : ... .. . ... ... ... : ... .. . ... ... ...
ROW 94 : ... .. . P7E ... ... : ... .. . P7E ... ... : ... .. . ... ... ... : ... .. . ... ... ... : ... .. . ... ... ... : ... .. . P7F ... ... : ... .. . P80 ... ... : G#4 0E . ... ... ... : E-4 0E . ... ... ... : ... .. . ... ... ... : ... .. . P7A ... ... : ... .. . ... ... ... : ... .. . ... ... ...
ROW 95 : ... .. . P80 ... ... : ... .. . P80 ... ... : ... .. . ... ... ... : ... .. . ... ... ... : ... .. . ... ... ... : ... .. . ... ... ... : ... .. . P81 ... ... : ... .. A ... ... ... : ... .. 7 ... ... ... : ... .. . ... ... ... : ... .. . P7F ... ... : ... .. . ... ... ... : ... .. . ... ... ...
ROW 96 : ... .. 2 P82 ... ... : ... .. 2 P82 ... ... : ... .. . ... ... ... : ... .. . ... ... ... : ... .. . ... ... ... : ... .. 2 ... ... ... : ... .. . ... ... ... : G#4 0F . ... ... ... : E-4 0F . ... ... ... : ... .. . ... ... ... : ... .. . P84 ... ... : ... .. . ... ... ... : ... .. . ... ... ...
ROW 97 : ... .. . P83 ... ... : ... .. . P83 ... ... : ... .. . ... ... ... : ... .. . ... ... ... : ... .. . ... ... ... : ... .. . P80 ... ... : ... .. . P80 ... ... : ... .. . ... ... ... : ... .. . ... ... ... : ... .. . ... ... ... : ... .. . P89 ... ... : ... .. . ... ... ... : ... .. . ... ... ...
ROW 98 : ... .. 3 P82 ... ... : ... .. 3 P82 ... ... : ... .. . ... ... ... : ... .. . ... ... ... : ... .. . ... ... ... : ... .. 3 P81 ... ... : ... .. . ... ... ... : ... .. . ... ... ... : ... .. . ... ... ... : ... .. . ... ... ... : ... .. . P8B ... ... : ... .. . ... ... ... : ... .. . ... ... ...
ROW 99 : ... .. . P80 ... ... : ... .. . P80 ... ... : ... .. . ... ... ... : ... .. . ... ... ... : ... .. . ... ... ... : ... .. . P82 ... ... : ... .. . P81 ... ... : G#4 10 9 ... ... ... : E-4 10 6 ... ... ... : ... .. . ... ... ... : ... .. . P89 ... ... : ... .. . ... ... ... : ... .. . ... ... ...
ROW 9A : ... .. . P7E ... ... : ... .. . P7E ... ... : ... .. . ... ... ... : ... .. . ... ... ... : ... .. . ... ... ... : ... .. . P81 ... ... : ... .. . ... ... ... : ... .. . ... ... ... : ... .. . ... ... ... : ... .. . ... ... ... : ... .. . P83 ... ... : ... .. . ... ... ... : ... .. . ... ... ...
ROW 9B : ... .. 4 P7D ... ... : ... .. 4 P7D ... ... : ... .. . ... ... ... : ... .. . ... ... ... : ... .. . ... ... ... : ... .. 4 P80 ... ... : ... .. . P80 ... ... : ... .. . ... ... ... : ... .. . ... ... ... : ... .. . ... ... ... : ... .. . P7E ... ... : ... .. . ... ... ... : ... .. . ... ... ...
ROW 9C : ... .. . P7E ... ... : ... .. . P7E ... ... : ... .. . ... ... ... : ... .. . ... ... ... : ... .. . ... ... ... : ... .. . P7F ... ... : ... .. . P7F ... ... : ... .. . ... ... ... : ... .. . ... ... ... : ... .. . ... ... ... : ... .. . P79 ... ... : ... .. . ... ... ... : ... .. . ... ... ...
ROW 9D : ... .. . P80 ... ... : ... .. . P80 ... ... : ... .. . ... ... ... : ... .. . ... ... ... : ... .. . ... ... ... : ... .. . ... ... ... : ... .. . P80 ... ... : G#4 11 8 ... ... ... : E-4 11 5 ... ... ... : ... .. . ... ... ... : ... .. . P76 ... ... : ... .. . ... ... ... : ... .. . ... ... ...
ROW 9E : --- .. . ... ... ... : --- .. . ... ... ... : ... .. . ... ... ... : ... .. . ... ... ... : ... .. . ... ... ... : --- .. . ... ... ... : ... .. . P81 ... ... : F#4 0A B ... ... ... : E-4 0A 8 ... ... ... : ... .. . ... ... ... : ... .. . P77 ... ... : ... .. . ... ... ... : ... .. . ... ... ...
ROW 9F : ... .. . ... ... ... : ... .. . ... ... ... : ... .. . ... ... ... : ... .. . ... ... ... : ... .. . ... ... ... : ... .. . P80 ... ... : ... .. . P80 ... ... : F#4 0B . ... ... ... : E-4 0B . ... ... ... : ... .. . ... ... ... : ... .. . P7B ... ... : ... .. . ... ... ... : ... .. . ... ... ...
ROW A0 : ... .. . ... ... ... : ... .. . ... ... ... : ... .. . ... ... ... : ... .. . ... ... ... : ... .. . ... ... ... : ... .. . ... ... ... : ... .. . P7F ... ... : F#4 0D . ... ... ... : E-4 0D . ... ... ... : ... .. . ... ... ... : ... .. . P80 ... ... : ... .. . ... ... ... : ... .. . ... ... ...
ROW A1 : ... .. . ... ... ... : ... .. . ... ... ... : ... .. . ... ... ... : ... .. . ... ... ... : ... .. . ... ... ... : ... .. . ... ... ... : ... .. . P80 ... ... : F#4 0E . ... ... ... : E-4 0E . ... ... ... : ... .. . ... ... ... : ... .. . P86 ... ... : ... .. . ... ... ... : ... .. . ... ... ...
ROW A2 : ... .. . ... ... ... : ... .. . ... ... ... : ... .. . ... ... ... : ... .. . ... ... ... : ... .. . ... ... ... : ... .. . ... ... ... : ... .. . P81 ... ... : ... .. A ... ... ... : ... .. 7 ... ... ... : ... .. . ... ... ... : ... .. . P8A ... ... : ... .. . ... ... ... : ... .. . ... ... ...
ROW A3 : ... .. . ... ... ... : ... .. . ... ... ... : ... .. . ... ... ... : ... .. . ... ... ... : ... .. . ... ... ... : ... .. . ... ... ... : ... .. . P80 ... ... : F#4 0F . ... ... ... : E-4 0F . ... ... ... : ... .. . ... ... ... : ... .. . P8B ... ... : ... .. . ... ... ... : ... .. . ... ... ...
ROW A4 : ... .. . ... ... ... : ... .. . ... ... ... : ... .. . ... ... ... : ... .. . ... ... ... : ... .. . ... ... ... : ... .. . ... ... ... : ... .. . P7F ... ... : ... .. . ... ... ... : ... .. . ... ... ... : ... .. . ... ... ... : ... .. . P87 ... ... : ... .. . ... ... ... : ... .. . ... ... ...
ROW A5 : ... .. . ... ... ... : ... .. . ... ... ... : ... .. . ... ... ... : ... .. . ... ... ... : ... .. . ... ... ... : ... .. . ... ... ... : ... .. . P80 ... ... : ... .. . ... ... ... : ... .. . ... ... ... : ... .. . ... ... ... : ... .. . P81 ... ... : ... .. . ... ... ... : ... .. . ... ... ...
ROW A6 : ... .. . ... ... ... : ... .. . ... ... ... : ... .. . ... ... ... : ... .. . ... ... ... : ... .. . ... ... ... : ... .. . ... ... ... : ... .. . P81 ... ... : F#4 10 9 ... ... ... : E-4 10 6 ... ... ... : ... .. . ... ... ... : ... .. . P7C ... ... : ... .. . ... ... ... : ... .. . ... ... ...
ROW A7 : ... .. . ... ... ... : ... .. . ... ... ... : ... .. . ... ... ... : ... .. . ... ... ... : ... .. . ... ... ... : ... .. . ... ... ... : ... .. . ... ... ... : ... .. . ... ... ... : ... .. . ... ... ... : ... .. . ... ... ... : ... .. . P77 ... ... : ... .. . ... ... ... : ... .. . ... ... ...
ROW A8 : ... .. . ... ... ... : ... .. . ... ... ... : ... .. . ... ... ... : ... .. . ... ... ... : ... .. . ... ... ... : ... .. . ... ... ... : ... .. . P80 ... ... : ... .. . ... ... ... : ... .. . ... ... ... : ... .. . ... ... ... : ... .. . P76 ... ... : ... .. . ... ... ... : ... .. . ... ... ...
ROW A9 : ... .. . ... ... ... : ... .. . ... ... ... : ... .. . ... ... ... : ... .. . ... ... ... : ... .. . ... ... ... : ... .. . ... ... ... : ... .. . ... ... ... : ... .. . ... ... ... : ... .. . ... ... ... : ... .. . ... ... ... : ... .. . P78 ... ... : ... .. . ... ... ... : ... .. . ... ... ...
ROW AA : ... .. . ... ... ... : ... .. . ... ... ... : F#3 00 . P78 ... ... : 1-# 00 F ... ... ... : C-1 12 . ... ... ... : ... .. . ... ... ... : ... .. . P81 ... ... : G#4 0A B ... ... ... : E-4 0A 8 ... ... ... : ... .. . ... ... ... : ... .. . P7D ... ... : ... .. . ... ... ... : ... .. . ... ... ...
ROW AB : ... .. . ... ... ... : ... .. . ... ... ... : C#3 00 . P7E ... ... : 2-# 00 7 ... ... ... : ... .. . ... ... ... : ... .. . ... ... ... : ... .. . ... ... ... : G#4 0B . ... ... ... : E-4 0B . ... ... ... : ... .. . ... ... ... : ... .. . P82 ... ... : ... .. . ... ... ... : ... .. . ... ... ...
ROW AC : E-3 02 1 P7E ... ... : B-2 02 1 P7E ... ... : A-2 00 . P86 ... ... : 1-# 00 4 ... ... ... : ... .. . ... ... ... : G#3 0C 1 P7F ... ... : ... .. . P80 ... ... : G#4 0D . ... ... ... : E-4 0D . ... ... ... : ... .. . ... ... ... : ... .. . P88 ... ... : ... .. . ... ... ... : ... .. . ... ... ...
ROW AD : ... .. . P80 ... ... : ... .. . P80 ... ... : F#2 00 . P87 ... ... : ... .. 2 ... ... ... : ... .. . ... ... ... : ... .. . ... ... ... : ... .. . P7F ... ... : G#4 0E . ... ... ... : E-4 0E . ... ... ... : ... .. . ... ... ... : ... .. . P8B ... ... : ... .. . ... ... ... : ... .. . ... ... ...
ROW AE : ... .. . P82 ... ... : ... .. . P82 ... ... : E-2 00 . P71 ... ... : ... .. 1 ... ... ... : ... .. . ... ... ... : ... .. . ... ... ... : ... .. . P80 ... ... : ... .. A ... ... ... : ... .. 7 ... ... ... : ... .. . ... ... ... : ... .. . P8A ... ... : ... .. . ... ... ... : ... .. . ... ... ...
ROW AF : ... .. 2 P83 ... ... : ... .. 2 P83 ... ... : C#2 00 . P91 ... ... : --- .. . ... ... ... : ... .. . ... ... ... : ... .. 2 P80 ... ... : ... .. . P81 ... ... : G#4 0F . ... ... ... : E-4 0F . ... ... ... : ... .. . ... ... ... : ... .. . P85 ... ... : ... .. . ... ... ... : ... .. . ... ... ...
ROW B0 : ... .. . P82 ... ... : ... .. . P82 ... ... : --- .. . ... ... ... : ... .. . ... ... ... : ... .. . ... ... ... : ... .. . P81 ... ... : ... .. . P80 ... ... : ... .. . ... ... ... : ... .. . ... ... ... : ... .. . ... ... ... : ... .. . P80 ... ... : ... .. . ... ... ... : ... .. . ... ... ...
ROW B1 : ... .. 3 P80 ... ... : ... .. 3 P80 ... ... : ... .. . ... ... ... : ... .. . ... ... ... : ... .. . ... ... ... : ... .. 3 P82 ... ... : ... .. . P7F ... ... : ... .. . ... ... ... : ... .. . ... ... ... : ... .. . ... ... ... : ... .. . P7A ... ... : ... .. . ... ... ... : ... .. . ... ... ...
ROW B2 : ... .. . P7E ... ... : ... .. . P7E ... ... : ... .. . ... ... ... : ... .. . ... ... ... : ... .. . ... ... ... : ... .. . P81 ... ... : ... .. . P80 ... ... : G#4 10 9 ... ... ... : E-4 10 6 ... ... ... : ... .. . ... ... ... : ... .. . P76 ... ... : ... .. . ... ... ... : ... .. . ... ... ...
ROW B3 : ... .. . P7D ... ... : ... .. . P7D ... ... : ... .. . ... ... ... : ... .. . ... ... ... : ... .. . ... ... ... : ... .. . P80 ... ... : ... .. . P81 ... ... : ... .. . ... ... ... : ... .. . ... ... ... : ... .. . ... ... ... : ... .. . ... ... ... : ... .. . ... ... ... : ... .. . ... ... ...
ROW B4 : ... .. 4 P7E ... ... : ... .. 4 P7E ... ... : ... .. . ... ... ... : ... .. . ... ... ... : ... .. . ... ... ... : ... .. 4 P7F ... ... : ... .. . P80 ... ... : ... .. . ... ... ... : ... .. . ... ... ... : ... .. . ... ... ... : ... .. . P7A ... ... : ... .. . ... ... ... : ... .. . ... ... ...
ROW B5 : ... .. . P80 ... ... : ... .. . P80 ... ... : ... .. . ... ... ... : ... .. . ... ... ... : ... .. . ... ... ... : ... .. . ... ... ... : ... .. . P7F ... ... : ... .. . ... ... ... : ... .. . ... ... ... : ... .. . ... ... ... : ... .. . P7F ... ... : ... .. . ... ... ... : ... .. . ... ... ...
ROW B6 : ... .. . P82 ... ... : ... .. . P82 ... ... : ... .. . ... ... ... : ... .. . ... ... ... : ... .. . ... ... ... : ... .. . ... ... ... : ... .. . P80 ... ... : G#4 11 8 ... ... ... : E-4 11 5 ... ... ... : ... .. . ... ... ... : ... .. . P84 ... ... : ... .. . ... ... ... : ... .. . ... ... ...
ROW B7 : --- .. . ... ... ... : --- .. . ... ... ... : C#4 00 . P7F ... ... : 9-# 00 F ... ... ... : C#1 12 . ... ... ... : --- .. . ... ... ... : ... .. . P81 ... ... : ... .. . ... ... ... : ... .. . ... ... ... : ... .. . ... ... ... : ... .. . P89 ... ... : ... .. . ... ... ... : ... .. . ... ... ...
ROW B8 : ... .. . P80 ... ... : ... .. . P80 ... ... : F#3 00 . P83 ... ... : 2-# 00 7 ... ... ... : ... .. . ... ... ... : ... .. . P80 ... ... : ... .. . ... ... ... : ... .. . ... ... ... : ... .. . ... ... ... : ... .. . ... ... ... : ... .. . P8B ... ... : ... .. . ... ... ... : ... .. . ... ... ...
ROW B9 : ... .. . ... ... ... : ... .. . ... ... ... : C#3 00 . P89 ... ... : 6-# 00 C ... ... ... : ... .. . ... ... ... : ... .. . ... ... ... : ... .. . P80 ... ... : ... .. . ... ... ... : ... .. . ... ... ... : ... .. . ... ... ... : ... .. . P89 ... ... : ... .. . ... ... ... : ... .. . ... ... ...
ROW BA : ... .. . ... ... ... : ... .. . ... ... ... : A#2 00 . P75 ... ... : 7-# 00 8 ... ... ... : ... .. . ... ... ... : ... .. . ... ... ... : ... .. . P7F ... ... : ... .. 7 ... ... ... : ... .. 4 ... ... ... : ... .. . ... ... ... : ... .. . P83 ... ... : ... .. . ... ... ... : ... .. . ... ... ...
ROW BB : ... .. . ... ... ... : ... .. . ... ... ... : G-2 00 . P70 ... ... : 8-# 00 7 ... ... ... : ... .. . ... ... ... : ... .. . ... ... ... : ... .. . P80 ... ... : ... .. . ... ... ... : ... .. . ... ... ... : ... .. . ... ... ... : ... .. . P7E ... ... : ... .. . ... ... ... : ... .. . ... ... ...
ROW BC : ... .. . ... ... ... : ... .. . ... ... ... : E-2 00 . P7C ... ... : ... .. 6 ... ... ... : ... .. . ... ... ... : ... .. . ... ... ... : ... .. . P81 ... ... : ... .. . ... ... ... : ... .. . ... ... ... : ... .. . ... ... ... : ... .. . P79 ... ... : ... .. . ... ... ... : ... .. . ... ... ...
ROW BD : ... .. . ... ... ... : ... .. . ... ... ... : D-2 00 . P6F ... ... : ... .. . ... ... ... : ... .. . ... ... ... : ... .. . ... ... ... : ... .. . P80 ... ... : ... .. . ... ... ... : ... .. . ... ... ... : ... .. . ... ... ... : ... .. . P76 ... ... : ... .. . ... ... ... : ... .. . ... ... ...
ROW BE : ... .. . ... ... ... : ... .. . ... ... ... : C-2 00 . P6C ... ... : ... .. 5 ... ... ... : ... .. . ... ... ... : ... .. . ... ... ... : ... .. . P7F ... ... : ... .. 6 ... ... ... : ... .. 3 ... ... ... : ... .. . ... ... ... : ... .. . P77 ... ... : ... .. . ... ... ... : ... .. . ... ... ...
ROW BF : ... .. . ... ... ... : ... .. . ... ... ... : A#1 00 . P75 ... ... : ... .. . ... ... ... : ... .. . ... ... ... : ... .. . ... ... ... : ... .. . P80 ... ... : ... .. . ... ... ... : ... .. . ... ... ... : ... .. . ... ... ... : ... .. . P7B ... ... : ... .. . ... ... ... : ... .. . ... ... ...
ROW C0 : ... .. . ... ... ... : ... .. . ... ... ... : G#1 00 . P8A ... ... : ... .. 4 ... ... ... : ... .. . ... ... ... : ... .. . ... ... ... : ... .. . P81 ... ... : ... .. . ... ... ... : ... .. . ... ... ... : ... .. . ... ... ... : ... .. . P80 ... ... : ... .. . ... ... ... : ... .. . ... ... ...
ROW C1 : ... .. . ... ... ... : ... .. . ... ... ... : G-1 00 . P6A ... ... : ... .. . ... ... ... : ... .. . ... ... ... : ... .. . ... ... ... : ... .. . P80 ... ... : ... .. . ... ... ... : ... .. . ... ... ... : ... .. . ... ... ... : ... .. . P86 ... ... : ... .. . ... ... ... : ... .. . ... ... ...
ROW C2 : ... .. . ... ... ... : ... .. . ... ... ... : F-1 00 . P96 ... ... : ... .. 3 ... ... ... : ... .. . ... ... ... : ... .. . ... ... ... : ... .. . P7F ... ... : ... .. 5 ... ... ... : ... .. 2 ... ... ... : ... .. . ... ... ... : ... .. . P8A ... ... : ... .. . ... ... ... : ... .. . ... ... ...
ROW C3 : ... .. . ... ... ... : ... .. . ... ... ... : --- .. . ... ... ... : ... .. . ... ... ... : ... .. . ... ... ... : ... .. . ... ... ... : ... .. . P80 ... ... : ... .. . ... ... ... : ... .. . ... ... ... : ... .. . ... ... ... : ... .. . P8B ... ... : ... .. . ... ... ... : ... .. . ... ... ...
ROW C4 : ... .. . ... ... ... : ... .. . ... ... ... : ... .. . ... ... ... : ... .. . ... ... ... : ... .. . ... ... ... : ... .. . ... ... ... : ... .. . P81 ... ... : ... .. . ... ... ... : ... .. . ... ... ... : ... .. . ... ... ... : C#5 03 . P87 ... ... : ... .. . ... ... ... : ... .. . ... ... ...
ROW C5 : E-3 02 1 ... ... ... : B-2 02 1 ... ... ... : ... .. . ... ... ... : ... .. . ... ... ... : ... .. . ... ... ... : G#3 0C 1 P7F ... ... : ... .. . ... ... ... : ... .. . ... ... ... : ... .. . ... ... ... : ... .. . ... ... ... : ... .. . P81 ... ... : ... .. . ... ... ... : ... .. . ... ... ...
ROW C6 : ... .. . P82 ... ... : ... .. . P82 ... ... : ... .. . ... ... ... : ... .. 2 ... ... ... : ... .. . ... ... ... : ... .. . ... ... ... : ... .. . P80 ... ... : ... .. 4 ... ... ... : ... .. 1 ... ... ... : ... .. . ... ... ... : ... .. . P7C ... ... : ... .. . ... ... ... : ... .. . ... ... ...
ROW C7 : ... .. . P83 ... ... : ... .. . P83 ... ... : ... .. . ... ... ... : ... .. . ... ... ... : ... .. . ... ... ... : ... .. . P80 ... ... : ... .. . ... ... ... : ... .. . ... ... ... : ... .. . ... ... ... : ... .. . ... ... ... : ... .. . P77 ... ... : ... .. . ... ... ... : ... .. . ... ... ...
ROW C8 : ... .. 2 P82 ... ... : ... .. 2 P82 ... ... : ... .. . ... ... ... : ... .. . ... ... ... : ... .. . ... ... ... : ... .. 2 P81 ... ... : ... .. . P81 ... ... : ... .. . ... ... ... : ... .. . ... ... ... : ... .. . ... ... ... : ... .. . P76 ... ... : ... .. . ... ... ... : ... .. . ... ... ...
ROW C9 : ... .. . P80 ... ... : ... .. . P80 ... ... : ... .. . ... ... ... : ... .. . ... ... ... : ... .. . ... ... ... : ... .. . P82 ... ... : ... .. . ... ... ... : ... .. . ... ... ... : ... .. . ... ... ... : ... .. . ... ... ... : ... .. . P78 ... ... : ... .. . ... ... ... : ... .. . ... ... ...
ROW CA : ... .. 3 P7E ... ... : ... .. 3 P7E ... ... : ... .. . ... ... ... : ... .. 1 ... ... ... : ... .. . ... ... ... : ... .. 3 P81 ... ... : ... .. . P80 ... ... : ... .. 3 ... ... ... : --- .. . ... ... ... : ... .. . ... ... ... : ... .. . P7D ... ... : ... .. . ... ... ... : ... .. . ... ... ...
ROW CB : ... .. . P7D ... ... : ... .. . P7D ... ... : ... .. . ... ... ... : ... .. . ... ... ... : ... .. . ... ... ... : ... .. . P80 ... ... : ... .. . P7F ... ... : ... .. . ... ... ... : ... .. . ... ... ... : ... .. . ... ... ... : ... .. . P82 ... ... : ... .. . ... ... ... : ... .. . ... ... ...
ROW CC : ... .. . P7E ... ... : ... .. . P7E ... ... : ... .. . ... ... ... : ... .. . ... ... ... : ... .. . ... ... ... : ... .. . P7F ... ... : ... .. . P80 ... ... : ... .. . ... ... ... : ... .. . ... ... ... : ... .. . ... ... ... : ... .. . P88 ... ... : ... .. . ... ... ... : ... .. . ... ... ...
ROW CD : ... .. 4 P80 ... ... : ... .. 4 P80 ... ... : ... .. . ... ... ... : ... .. . ... ... ... : ... .. . ... ... ... : ... .. 4 ... ... ... : ... .. . P81 ... ... : ... .. . ... ... ... : ... .. . ... ... ... : ... .. . ... ... ... : ... .. . P8B ... ... : ... .. . ... ... ... : ... .. . ... ... ...
ROW CE : ... .. . P82 ... ... : ... .. . P82 ... ... : ... .. . ... ... ... : ... .. . ... ... ... : ... .. . ... ... ... : ... .. . ... ... ... : ... .. . P80 ... ... : ... .. 2 ... ... ... : ... .. . ... ... ... : ... .. . ... ... ... : ... .. . P8A ... ... : ... .. . ... ... ... : ... .. . ... ... ...
ROW CF : ... .. . P83 ... ... : ... .. . P83 ... ... : ... .. . ... ... ... : --- .. . ... ... ... : ... .. . ... ... ... : ... .. . P80 ... ... : ... .. . P7F ... ... : ... .. . ... ... ... : ... .. . ... ... ... : ... .. . ... ... ... : ... .. . P85 ... ... : ... .. . ... ... ... : ... .. . ... ... ...
ROW D0 : --- .. . ... ... ... : --- .. . ... ... ... : F#3 00 . P78 ... ... : 1-# 00 F ... ... ... : C-1 12 . ... ... ... : --- .. . ... ... ... : ... .. . P80 ... ... : G#4 0A . ... ... ... : C-4 0A 8 ... ... ... : ... .. . ... ... ... : ... .. . P80 ... ... : ... .. . ... ... ... : ... .. . ... ... ...
ROW D1 : ... .. . P80 ... ... : ... .. . P80 ... ... : C#3 00 . P7E ... ... : 2-# 00 7 ... ... ... : ... .. . ... ... ... : ... .. . ... ... ... : ... .. . P81 ... ... : G#4 0B . ... ... ... : C-4 0B . ... ... ... : ... .. . ... ... ... : ... .. . P7A ... ... : ... .. . ... ... ... : ... .. . ... ... ...
ROW D2 : ... .. . ... ... ... : ... .. . ... ... ... : A-2 00 . P86 ... ... : 1-# 00 4 ... ... ... : ... .. . ... ... ... : ... .. . ... ... ... : ... .. . P80 ... ... : G#4 0D 1 ... ... ... : C-4 0D . ... ... ... : ... .. . ... ... ... : ... .. . P76 ... ... : ... .. . ... ... ... : ... .. . ... ... ...
ROW D3 : ... .. . ... ... ... : ... .. . ... ... ... : F#2 00 . P87 ... ... : ... .. 2 ... ... ... : ... .. . ... ... ... : ... .. . ... ... ... : ... .. . P7F ... ... : G#4 0E . ... ... ... : C-4 0E . ... ... ... : ... .. . ... ... ... : ... .. . ... ... ... : ... .. . ... ... ... : ... .. . ... ... ...
ROW D4 : ... .. . ... ... ... : ... .. . ... ... ... : E-2 00 . P71 ... ... : ... .. 1 ... ... ... : ... .. . ... ... ... : ... .. . ... ... ... : ... .. . P80 ... ... : ... .. . ... ... ... : ... .. . ... ... ... : ... .. . ... ... ... : ... .. . P7A ... ... : ... .. . ... ... ... : ... .. . ... ... ...
ROW D5 : ... .. . ... ... ... : ... .. . ... ... ... : C#2 00 . P91 ... ... : --- .. . ... ... ... : ... .. . ... ... ... : ... .. . ... ... ... : ... .. . P81 ... ... : G#4 0F . ... ... ... : C-4 0F . ... ... ... : ... .. . ... ... ... : ... .. . P7F ... ... : ... .. . ... ... ... : ... .. . ... ... ...
ROW D6 : ... .. . ... ... ... : ... .. . ... ... ... : --- .. . ... ... ... : ... .. . ... ... ... : ... .. . ... ... ... : ... .. . ... ... ... : ... .. . ... ... ... : --- .. . ... ... ... : ... .. . ... ... ... : ... .. . ... ... ... : ... .. . P84 ... ... : ... .. . ... ... ... : ... .. . ... ... ...
ROW D7 : ... .. . ... ... ... : ... .. . ... ... ... : ... .. . ... ... ... : ... .. . ... ... ... : ... .. . ... ... ... : ... .. . ... ... ... : ... .. . P80 ... ... : ... .. . ... ... ... : ... .. . ... ... ... : ... .. . ... ... ... : ... .. . P89 ... ... : ... .. . ... ... ... : ... .. . ... ... ...
ROW D8 : ... .. . ... ... ... : ... .. . ... ... ... : ... .. . ... ... ... : ... .. . ... ... ... : ... .. . ... ... ... : ... .. . ... ... ... : ... .. . ... ... ... : ... .. . ... ... ... : C-4 10 7 ... ... ... : ... .. . ... ... ... : ... .. . P8B ... ... : ... .. . ... ... ... : ... .. . ... ... ...
ROW D9 : ... .. . ... ... ... : ... .. . ... ... ... : ... .. . ... ... ... : ... .. . ... ... ... : ... .. . ... ... ... : ... .. . ... ... ... : ... .. . P81 ... ... : ... .. . ... ... ... : ... .. . ... ... ... : ... .. . ... ... ... : ... .. . P89 ... ... : ... .. . ... ... ... : ... .. . ... ... ...
ROW DA : ... .. . ... ... ... : ... .. . ... ... ... : ... .. . ... ... ... : ... .. . ... ... ... : ... .. . ... ... ... : ... .. . ... ... ... : ... .. . ... ... ... : ... .. . ... ... ... : ... .. . ... ... ... : ... .. . ... ... ... : ... .. . P83 ... ... : ... .. . ... ... ... : ... .. . ... ... ...
ROW DB : ... .. . ... ... ... : ... .. . ... ... ... : ... .. . ... ... ... : ... .. . ... ... ... : ... .. . ... ... ... : ... .. . ... ... ... : ... .. . P80 ... ... : ... .. . ... ... ... : ... .. . ... ... ... : ... .. . ... ... ... : ... .. . P7E ... ... : ... .. . ... ... ... : ... .. . ... ... ...
ROW DC : ... .. . ... ... ... : ... .. . ... ... ... : ... .. . ... ... ... : ... .. . ... ... ... : ... .. . ... ... ... : ... .. . ... ... ... : ... .. . P7F ... ... : ... .. . ... ... ... : C-4 11 . ... ... ... : ... .. . ... ... ... : ... .. . P79 ... ... : ... .. . ... ... ... : ... .. . ... ... ...
ROW DD : ... .. . ... ... ... : ... .. . ... ... ... : ... .. . ... ... ... : ... .. . ... ... ... : ... .. . ... ... ... : ... .. . ... ... ... : ... .. . P80 ... ... : ... .. . ... ... ... : ... .. . ... ... ... : ... .. . ... ... ... : D#5 03 . P76 ... ... : ... .. . ... ... ... : ... .. . ... ... ...
ROW DE : E-3 02 1 P82 ... ... : B-2 02 1 P82 ... ... : ... .. . ... ... ... : ... .. . ... ... ... : ... .. . ... ... ... : G#3 0C 1 P7F ... ... : ... .. . P81 ... ... : ... .. . ... ... ... : ... .. . ... ... ... : ... .. . ... ... ... : ... .. . P77 ... ... : ... .. . ... ... ... : ... .. . ... ... ...
ROW DF : ... .. . P83 ... ... : ... .. . P83 ... ... : ... .. . ... ... ... : ... .. . ... ... ... : ... .. . ... ... ... : ... .. . P80 ... ... : ... .. . P80 ... ... : ... .. . ... ... ... : ... .. . ... ... ... : ... .. . ... ... ... : ... .. . P7B ... ... : ... .. . ... ... ... : ... .. . ... ... ...
ROW E0 : ... .. . P82 ... ... : ... .. . P82 ... ... : ... .. . ... ... ... : ... .. . ... ... ... : ... .. . ... ... ... : ... .. . P81 ... ... : ... .. . P7F ... ... : ... .. . ... ... ... : ... .. 6 ... ... ... : ... .. . ... ... ... : ... .. . P80 ... ... : ... .. . ... ... ... : ... .. . ... ... ...
ROW E1 : ... .. 2 P80 ... ... : ... .. 2 P80 ... ... : ... .. . ... ... ... : ... .. . ... ... ... : ... .. . ... ... ... : ... .. 2 P82 ... ... : ... .. . P80 ... ... : ... .. . ... ... ... : ... .. . ... ... ... : ... .. . ... ... ... : ... .. . P86 ... ... : ... .. . ... ... ... : ... .. . ... ... ...
ROW E2 : ... .. . P7E ... ... : ... .. . P7E ... ... : ... .. . ... ... ... : ... .. . ... ... ... : ... .. . ... ... ... : ... .. . P81 ... ... : ... .. . P81 ... ... : ... .. . ... ... ... : ... .. . ... ... ... : ... .. . ... ... ... : ... .. . P8A ... ... : ... .. . ... ... ... : ... .. . ... ... ...
ROW E3 : ... .. 3 P7D ... ... : ... .. 3 P7D ... ... : ... .. . ... ... ... : ... .. . ... ... ... : ... .. . ... ... ... : ... .. 3 P80 ... ... : ... .. . P80 ... ... : ... .. . ... ... ... : ... .. . ... ... ... : ... .. . ... ... ... : ... .. . P8B ... ... : ... .. . ... ... ... : ... .. . ... ... ...
ROW E4 : ... .. . P7E ... ... : ... .. . P7E ... ... : ... .. . ... ... ... : ... .. . ... ... ... : ... .. . ... ... ... : ... .. . P7F ... ... : ... .. . P7F ... ... : ... .. . ... ... ... : ... .. . ... ... ... : ... .. . ... ... ... : ... .. . P87 ... ... : ... .. . ... ... ... : ... .. . ... ... ...
ROW E5 : ... .. . P80 ... ... : ... .. . P80 ... ... : ... .. . ... ... ... : ... .. . ... ... ... : ... .. . ... ... ... : ... .. . ... ... ... : ... .. . P80 ... ... : ... .. . ... ... ... : ... .. . ... ... ... : ... .. . ... ... ... : ... .. . P81 ... ... : ... .. . ... ... ... : ... .. . ... ... ...
ROW E6 : ... .. 4 P82 ... ... : ... .. 4 P82 ... ... : ... .. . ... ... ... : ... .. . ... ... ... : ... .. . ... ... ... : ... .. 4 ... ... ... : ... .. . P81 ... ... : ... .. . ... ... ... : ... .. . ... ... ... : ... .. . ... ... ... : ... .. . P7C ... ... : ... .. . ... ... ... : ... .. . ... ... ...
ROW E7 : ... .. . P83 ... ... : ... .. . P83 ... ... : ... .. . ... ... ... : ... .. . ... ... ... : ... .. . ... ... ... : ... .. . P80 ... ... : ... .. . ... ... ... : ... .. . ... ... ... : ... .. . ... ... ... : ... .. . ... ... ... : ... .. . P77 ... ... : ... .. . ... ... ... : ... .. . ... ... ...
ROW E8 : ... .. . P82 ... ... : ... .. . P82 ... ... : ... .. . ... ... ... : ... .. . ... ... ... : ... .. . ... ... ... : ... .. . P81 ... ... : ... .. . P80 ... ... : ... .. . ... ... ... : ... .. 5 ... ... ... : ... .. . ... ... ... : ... .. . P76 ... ... : ... .. . ... ... ... : ... .. . ... ... ...
ROW E9 : --- .. . ... ... ... : --- .. . ... ... ... : F#3 00 . P78 ... ... : 1-# 00 F ... ... ... : C-1 12 . ... ... ... : --- .. . ... ... ... : F#2 03 . ... ... ... : ... .. . ... ... ... : C#4 0A 8 ... ... ... : ... .. . ... ... ... : ... .. . P78 ... ... : ... .. . ... ... ... : ... .. . ... ... ...
ROW EA : ... .. . P80 ... ... : ... .. . P80 ... ... : C#3 00 . P7E ... ... : 2-# 00 7 ... ... ... : ... .. . ... ... ... : ... .. . P80 ... ... : ... .. . P81 ... ... : ... .. . ... ... ... : C#4 0B . ... ... ... : ... .. . ... ... ... : ... .. . P7D ... ... : ... .. . ... ... ... : ... .. . ... ... ...
ROW EB : ... .. . ... ... ... : ... .. . ... ... ... : A-2 00 . P86 ... ... : 1-# 00 4 ... ... ... : ... .. . ... ... ... : ... .. . ... ... ... : ... .. . ... ... ... : ... .. . ... ... ... : C#4 0D . ... ... ... : ... .. . ... ... ... : ... .. . P82 ... ... : ... .. . ... ... ... : ... .. . ... ... ...
ROW EC : ... .. . ... ... ... : ... .. . ... ... ... : F#2 00 . P87 ... ... : ... .. 2 ... ... ... : ... .. . ... ... ... : ... .. . ... ... ... : ... .. . P80 ... ... : ... .. . ... ... ... : C#4 0E . ... ... ... : ... .. . ... ... ... : ... .. . P88 ... ... : ... .. . ... ... ... : ... .. . ... ... ...
ROW ED : ... .. . ... ... ... : ... .. . ... ... ... : E-2 00 . P71 ... ... : ... .. 1 ... ... ... : ... .. . ... ... ... : ... .. . ... ... ... : ... .. . P7F ... ... : ... .. . ... ... ... : ... .. . ... ... ... : ... .. . ... ... ... : ... .. . P8B ... ... : ... .. . ... ... ... : ... .. . ... ... ...
ROW EE : ... .. . ... ... ... : ... .. . ... ... ... : C#2 00 . P91 ... ... : --- .. . ... ... ... : ... .. . ... ... ... : ... .. . ... ... ... : ... .. . P80 ... ... : ... .. . ... ... ... : C#4 0F . ... ... ... : ... .. . ... ... ... : ... .. . P8A ... ... : ... .. . ... ... ... : ... .. . ... ... ...
ROW EF : ... .. . ... ... ... : ... .. . ... ... ... : --- .. . ... ... ... : ... .. . ... ... ... : ... .. . ... ... ... : ... .. . ... ... ... : ... .. . P81 ... ... : ... .. . ... ... ... : ... .. . ... ... ... : ... .. . ... ... ... : ... .. . P85 ... ... : ... .. . ... ... ... : ... .. . ... ... ...
ROW F0 : ... .. . ... ... ... : ... .. . ... ... ... : ... .. . ... ... ... : ... .. . ... ... ... : ... .. . ... ... ... : ... .. . ... ... ... : ... .. . P80 ... ... : ... .. . ... ... ... : ... .. . ... ... ... : ... .. . ... ... ... : ... .. . P80 ... ... : ... .. . ... ... ... : ... .. . ... ... ...
ROW F1 : ... .. . ... ... ... : ... .. . ... ... ... : ... .. . ... ... ... : ... .. . ... ... ... : ... .. . ... ... ... : ... .. . ... ... ... : ... .. . P7F ... ... : ... .. . ... ... ... : C#4 10 7 ... ... ... : ... .. . ... ... ... : ... .. . P7A ... ... : ... .. . ... ... ... : ... .. . ... ... ...
ROW F2 : ... .. . ... ... ... : ... .. . ... ... ... : ... .. . ... ... ... : ... .. . ... ... ... : ... .. . ... ... ... : ... .. . ... ... ... : ... .. . P80 ... ... : ... .. . ... ... ... : ... .. . ... ... ... : ... .. . ... ... ... : ... .. . P76 ... ... : ... .. . ... ... ... : ... .. . ... ... ...
ROW F3 : ... .. . ... ... ... : ... .. . ... ... ... : ... .. . ... ... ... : ... .. . ... ... ... : ... .. . ... ... ... : ... .. . ... ... ... : ... .. . P81 ... ... : ... .. . ... ... ... : ... .. . ... ... ... : ... .. . ... ... ... : ... .. . ... ... ... : ... .. . ... ... ... : ... .. . ... ... ...
ROW F4 : ... .. . ... ... ... : ... .. . ... ... ... : ... .. . ... ... ... : ... .. . ... ... ... : ... .. . ... ... ... : ... .. . ... ... ... : ... .. . P80 ... ... : ... .. . ... ... ... : ... .. . ... ... ... : ... .. . ... ... ... : ... .. . P7A ... ... : ... .. . ... ... ... : ... .. . ... ... ...
ROW F5 : ... .. . ... ... ... : ... .. . ... ... ... : ... .. . ... ... ... : ... .. . ... ... ... : ... .. . ... ... ... : ... .. . ... ... ... : ... .. . P7F ... ... : G#4 11 B ... ... ... : C#4 11 . ... ... ... : ... .. . ... ... ... : ... .. . P7F ... ... : ... .. . ... ... ... : ... .. . ... ... ...
ROW F6 : ... .. . ... ... ... : ... .. . ... ... ... : ... .. . ... ... ... : ... .. . ... ... ... : ... .. . ... ... ... : ... .. . ... ... ... : ... .. . P80 ... ... : ... .. . ... ... ... : ... .. . ... ... ... : ... .. . ... ... ... : ... .. . P84 ... ... : ... .. . ... ... ... : ... .. . ... ... ...
ROW F7 : F#3 02 1 P83 ... ... : C#3 02 1 P83 ... ... : ... .. . ... ... ... : ... .. . ... ... ... : ... .. . ... ... ... : A#3 0C 1 ... ... ... : ... .. . P81 ... ... : ... .. . ... ... ... : ... .. . ... ... ... : ... .. . ... ... ... : ... .. . P89 ... ... : ... .. . ... ... ... : ... .. . ... ... ...
ROW F8 : ... .. . P82 ... ... : ... .. . P82 ... ... : ... .. . ... ... ... : ... .. . ... ... ... : ... .. . ... ... ... : ... .. . P81 ... ... : ... .. . ... ... ... : ... .. . ... ... ... : ... .. . ... ... ... : ... .. . ... ... ... : ... .. . P8B ... ... : ... .. . ... ... ... : ... .. . ... ... ...
ROW F9 : ... .. . P80 ... ... : ... .. . P80 ... ... : ... .. . ... ... ... : ... .. . ... ... ... : ... .. . ... ... ... : ... .. . P82 ... ... : ... .. . P80 ... ... : G#4 0E A ... ... ... : C#4 0E 6 ... ... ... : ... .. . ... ... ... : ... .. . P89 ... ... : ... .. . ... ... ... : ... .. . ... ... ...
ROW FA : ... .. 2 P7E ... ... : ... .. 2 P7E ... ... : ... .. . ... ... ... : ... .. . ... ... ... : ... .. . ... ... ... : ... .. 2 P81 ... ... : ... .. . P7F ... ... : G#4 0F . ... ... ... : C#4 0F . ... ... ... : ... .. . ... ... ... : ... .. . P83 ... ... : ... .. . ... ... ... : ... .. . ... ... ...
ROW FB : ... .. . P7D ... ... : ... .. . P7D ... ... : ... .. . ... ... ... : ... .. . ... ... ... : ... .. . ... ... ... : ... .. . P80 ... ... : ... .. . P80 ... ... : ... .. . ... ... ... : ... .. . ... ... ... : ... .. . ... ... ... : ... .. . P7E ... ... : ... .. . ... ... ... : ... .. . ... ... ...
ROW FC : ... .. 3 P7E ... ... : ... .. 3 P7E ... ... : ... .. . ... ... ... : ... .. . ... ... ... : ... .. . ... ... ... : ... .. 3 P7F ... ... : ... .. . P81 ... ... : ... .. . ... ... ... : ... .. . ... ... ... : ... .. . ... ... ... : ... .. . P79 ... ... : ... .. . ... ... ... : ... .. . ... ... ...
ROW FD : ... .. . P80 ... ... : ... .. . P80 ... ... : ... .. . ... ... ... : ... .. . ... ... ... : ... .. . ... ... ... : ... .. . ... ... ... : ... .. . P80 ... ... : G#4 10 9 ... ... ... : C#4 10 . ... ... ... : ... .. . ... ... ... : ... .. . P76 ... ... : ... .. . ... ... ... : ... .. . ... ... ...
ROW FE : ... .. . P82 ... ... : ... .. . P82 ... ... : ... .. . ... ... ... : ... .. . ... ... ... : ... .. . ... ... ... : ... .. . ... ... ... : ... .. . P7F ... ... : ... .. . ... ... ... : ... .. . ... ... ... : ... .. . ... ... ... : ... .. . P77 ... ... : ... .. . ... ... ... : ... .. . ... ... ...
ROW FF : ... .. 4 P83 ... ... : ... .. 4 P83 ... ... : ... .. . ... ... ... : ... .. . ... ... ... : ... .. . ... ... ... : ... .. 4 P80 ... ... : ... .. . P80 ... ... : ... .. . ... ... ... : ... .. . ... ... ... : ... .. . ... ... ... : ... .. . P7B ... ... : ... .. . ... ... ... : ... .. . ... ... ...

PATTERN 04
ROW 00 : ... .. . P82 ... ... : ... .. . P82 ... ... : ... .. . ... ... ... : ... .. . ... ... ... : ... .. . ... ... ... : ... .. . P81 ... ... : ... .. . P81 ... ... : ... .. . ... ... ... : ... .. . ... ... ... : ... .. . ... ... ... : ... .. . P80 ... ... : ... .. . ... ... ... : ... .. . ... ... ...
ROW 01 : ... .. . P80 ... ... : ... .. . P80 ... ... : ... .. . ... ... ... : ... .. . ... ... ... : ... .. . ... ... ... : ... .. . P82 ... ... : ... .. . P80 ... ... : G#4 11 8 ... ... ... : C#4 11 5 ... ... ... : ... .. . ... ... ... : ... .. . P86 ... ... : ... .. . ... ... ... : ... .. . ... ... ...
ROW 02 : --- .. . ... ... ... : --- .. . ... ... ... : ... .. . ... ... ... : ... .. . ... ... ... : ... .. . ... ... ... : --- .. . ... ... ... : ... .. . P7F ... ... : F#4 0A B ... ... ... : C#4 0A . ... ... ... : ... .. . ... ... ... : ... .. . P8A ... ... : ... .. . ... ... ... : ... .. . ... ... ...
ROW 03 : ... .. . ... ... ... : ... .. . ... ... ... : ... .. . ... ... ... : ... .. . ... ... ... : ... .. . ... ... ... : ... .. . P80 ... ... : ... .. . P80 ... ... : F#4 0B . ... ... ... : C#4 0B . ... ... ... : ... .. . ... ... ... : ... .. . P8B ... ... : ... .. . ... ... ... : ... .. . ... ... ...
ROW 04 : ... .. . ... ... ... : ... .. . ... ... ... : ... .. . ... ... ... : ... .. . ... ... ... : ... .. . ... ... ... : ... .. . ... ... ... : ... .. . P81 ... ... : F#4 0D . ... ... ... : C#4 0D . ... ... ... : ... .. . ... ... ... : ... .. . P87 ... ... : ... .. . ... ... ... : ... .. . ... ... ...
ROW 05 : ... .. . ... ... ... : ... .. . ... ... ... : ... .. . ... ... ... : ... .. . ... ... ... : ... .. . ... ... ... : ... .. . ... ... ... : ... .. . ... ... ... : F#4 0E . ... ... ... : C#4 0E . ... ... ... : ... .. . ... ... ... : ... .. . P81 ... ... : ... .. . ... ... ... : ... .. . ... ... ...
ROW 06 : ... .. . ... ... ... : ... .. . ... ... ... : ... .. . ... ... ... : ... .. . ... ... ... : ... .. . ... ... ... : ... .. . ... ... ... : ... .. . P80 ... ... : ... .. A ... ... ... : ... .. . ... ... ... : ... .. . ... ... ... : ... .. . P7C ... ... : ... .. . ... ... ... : ... .. . ... ... ...
ROW 07 : ... .. . ... ... ... : ... .. . ... ... ... : ... .. . ... ... ... : ... .. . ... ... ... : ... .. . ... ... ... : ... .. . ... ... ... : ... .. . ... ... ... : F#4 0F . ... ... ... : C#4 0F . ... ... ... : ... .. . ... ... ... : ... .. . P77 ... ... : ... .. . ... ... ... : ... .. . ... ... ...
ROW 08 : ... .. . ... ... ... : ... .. . ... ... ... : ... .. . ... ... ... : ... .. . ... ... ... : ... .. . ... ... ... : ... .. . ... ... ... : ... .. . P81 ... ... : ... .. . ... ... ... : ... .. . ... ... ... : ... .. . ... ... ... : ... .. . P76 ... ... : ... .. . ... ... ... : ... .. . ... ... ...
ROW 09 : ... .. . ... ... ... : ... .. . ... ... ... : ... .. . ... ... ... : ... .. . ... ... ... : ... .. . ... ... ... : ... .. . ... ... ... : ... .. . ... ... ... : ... .. . ... ... ... : ... .. 4 ... ... ... : ... .. . ... ... ... : ... .. . P78 ... ... : ... .. . ... ... ... : ... .. . ... ... ...
ROW 0A : ... .. . ... ... ... : ... .. . ... ... ... : ... .. . ... ... ... : ... .. . ... ... ... : ... .. . ... ... ... : ... .. . ... ... ... : ... .. . P80 ... ... : F#4 10 9 ... ... ... : C#4 10 . ... ... ... : ... .. . ... ... ... : ... .. . P7D ... ... : ... .. . ... ... ... : ... .. . ... ... ...
ROW 0B : ... .. . ... ... ... : ... .. . ... ... ... : ... .. . ... ... ... : ... .. . ... ... ... : ... .. . ... ... ... : ... .. . ... ... ... : ... .. . P7F ... ... : ... .. . ... ... ... : ... .. . ... ... ... : ... .. . ... ... ... : ... .. . P82 ... ... : ... .. . ... ... ... : ... .. . ... ... ...
ROW 0C : ... .. . ... ... ... : ... .. . ... ... ... : ... .. . ... ... ... : ... .. . ... ... ... : ... .. . ... ... ... : ... .. . ... ... ... : ... .. . P80 ... ... : ... .. . ... ... ... : ... .. . ... ... ... : ... .. . ... ... ... : ... .. . P88 ... ... : ... .. . ... ... ... : ... .. . ... ... ...
ROW 0D : ... .. . ... ... ... : ... .. . ... ... ... : ... .. . ... ... ... : ... .. . ... ... ... : ... .. . ... ... ... : ... .. . ... ... ... : ... .. . P81 ... ... : ... .. . ... ... ... : ... .. . ... ... ... : ... .. . ... ... ... : ... .. . P8B ... ... : ... .. . ... ... ... : ... .. . ... ... ...
ROW 0E : ... .. . ... ... ... : ... .. . ... ... ... : F#3 00 . P78 ... ... : 1-# 00 F ... ... ... : C-1 12 . ... ... ... : ... .. . ... ... ... : ... .. . P80 ... ... : G#4 0A B ... ... ... : C#4 0A . ... ... ... : ... .. . ... ... ... : ... .. . P8A ... ... : ... .. . ... ... ... : ... .. . ... ... ...
ROW 0F : ... .. . ... ... ... : ... .. . ... ... ... : C#3 00 . P7E ... ... : 2-# 00 7 ... ... ... : ... .. . ... ... ... : ... .. . ... ... ... : ... .. . P7F ... ... : G#4 0B . ... ... ... : C#4 0B . ... ... ... : ... .. . ... ... ... : ... .. . P85 ... ... : ... .. . ... ... ... : ... .. . ... ... ...
ROW 10 : F#3 02 1 P82 ... ... : C#3 02 1 P82 ... ... : A-2 00 . P86 ... ... : 1-# 00 4 ... ... ... : ... .. . ... ... ... : A#3 0C 1 P81 ... ... : ... .. . P80 ... ... : G#4 0D . ... ... ... : C#4 0D . ... ... ... : ... .. . ... ... ... : ... .. . P80 ... ... : ... .. . ... ... ... : ... .. . ... ... ...
ROW 11 : ... .. . P80 ... ... : ... .. . P80 ... ... : F#2 00 . P87 ... ... : ... .. 2 ... ... ... : ... .. . ... ... ... : ... .. . P82 ... ... : ... .. . P81 ... ... : G#4 0E . ... ... ... : C#4 0E 3 ... ... ... : ... .. . ... ... ... : ... .. . P7A ... ... : ... .. . ... ... ... : ... .. . ... ... ...
ROW 12 : ... .. . P7E ... ... : ... .. . P7E ... ... : E-2 00 . P71 ... ... : ... .. 1 ... ... ... : ... .. . ... ... ... : ... .. . P81 ... ... : ... .. . P80 ... ... : ... .. A ... ... ... : ... .. . ... ... ... : ... .. . ... ... ... : ... .. . P76 ... ... : ... .. . ... ... ... : ... .. . ... ... ...
ROW 13 : ... .. 2 P7D ... ... : ... .. 2 P7D ... ... : C#2 00 . P91 ... ... : --- .. . ... ... ... : ... .. . ... ... ... : ... .. 2 P80 ... ... : ... .. . P7F ... ... : G#4 0F . ... ... ... : C#4 0F . ... ... ... : ... .. . ... ... ... : ... .. . ... ... ... : ... .. . ... ... ... : ... .. . ... ... ...
ROW 14 : ... .. . P7E ... ... : ... .. . P7E ... ... : --- .. . ... ... ... : ... .. . ... ... ... : ... .. . ... ... ... : ... .. . P7F ... ... : ... .. . P80 ... ... : ... .. . ... ... ... : ... .. . ... ... ... : ... .. . ... ... ... : ... .. . P7A ... ... : ... .. . ... ... ... : ... .. . ... ... ...
ROW 15 : ... .. 3 P80 ... ... : ... .. 3 P80 ... ... : ... .. . ... ... ... : ... .. . ... ... ... : ... .. . ... ... ... : ... .. 3 ... ... ... : ... .. . P81 ... ... : ... .. . ... ... ... : ... .. . ... ... ... : ... .. . ... ... ... : ... .. . P7F ... ... : ... .. . ... ... ... : ... .. . ... ... ...
ROW 16 : ... .. . P82 ... ... : ... .. . P82 ... ... : ... .. . ... ... ... : ... .. . ... ... ... : ... .. . ... ... ... : ... .. . ... ... ... : ... .. . ... ... ... : G#4 10 9 ... ... ... : C#4 10 . ... ... ... : ... .. . ... ... ... : ... .. . P84 ... ... : ... .. . ... ... ... : ... .. . ... ... ...
ROW 17 : ... .. . P83 ... ... : ... .. . P83 ... ... : ... .. . ... ... ... : ... .. . ... ... ... : ... .. . ... ... ... : ... .. . P80 ... ... : ... .. . P80 ... ... : ... .. . ... ... ... : ... .. . ... ... ... : ... .. . ... ... ... : ... .. . P89 ... ... : ... .. . ... ... ... : ... .. . ... ... ...
ROW 18 : ... .. 4 P82 ... ... : ... .. 4 P82 ... ... : ... .. . ... ... ... : ... .. . ... ... ... : ... .. . ... ... ... : ... .. 4 P81 ... ... : ... .. . ... ... ... : ... .. . ... ... ... : ... .. . ... ... ... : ... .. . ... ... ... : ... .. . P8B ... ... : ... .. . ... ... ... : ... .. . ... ... ...
ROW 19 : ... .. . P80 ... ... : ... .. . P80 ... ... : ... .. . ... ... ... : ... .. . ... ... ... : ... .. . ... ... ... : ... .. . P82 ... ... : ... .. . P81 ... ... : ... .. . ... ... ... : ... .. 2 ... ... ... : ... .. . ... ... ... : ... .. . P89 ... ... : ... .. . ... ... ... : ... .. . ... ... ...
ROW 1A : ... .. . P7E ... ... : ... .. . P7E ... ... : ... .. . ... ... ... : ... .. . ... ... ... : ... .. . ... ... ... : ... .. . P81 ... ... : ... .. . ... ... ... : G#4 11 8 ... ... ... : C#4 11 . ... ... ... : ... .. . ... ... ... : ... .. . P83 ... ... : ... .. . ... ... ... : ... .. . ... ... ...
ROW 1B : --- .. . ... ... ... : --- .. . ... ... ... : C#4 00 . P7F ... ... : 9-# 00 F ... ... ... : C#1 12 . ... ... ... : --- .. . ... ... ... : ... .. . P80 ... ... : B-4 0A B ... ... ... : F#4 0A 8 ... ... ... : ... .. . ... ... ... : ... .. . P7E ... ... : ... .. . ... ... ... : ... .. . ... ... ...
ROW 1C : ... .. . P80 ... ... : ... .. . P80 ... ... : F#3 00 . P83 ... ... : 2-# 00 7 ... ... ... : ... .. . ... ... ... : ... .. . P80 ... ... : ... .. . P7F ... ... : B-4 0B . ... ... ... : F#4 0B . ... ... ... : ... .. . ... ... ... : ... .. . P79 ... ... : ... .. . ... ... ... : ... .. . ... ... ...
ROW 1D : ... .. . ... ... ... : ... .. . ... ... ... : C#3 00 . P89 ... ... : 6-# 00 C ... ... ... : ... .. . ... ... ... : ... .. . ... ... ... : ... .. . P80 ... ... : B-4 0D . ... ... ... : F#4 0D . ... ... ... : ... .. . ... ... ... : ... .. . P76 ... ... : ... .. . ... ... ... : ... .. . ... ... ...
ROW 1E : ... .. . ... ... ... : ... .. . ... ... ... : A#2 00 . P75 ... ... : 7-# 00 8 ... ... ... : ... .. . ... ... ... : ... .. . ... ... ... : ... .. . P81 ... ... : B-4 0E . ... ... ... : F#4 0E . ... ... ... : ... .. . ... ... ... : ... .. . P77 ... ... : ... .. . ... ... ... : ... .. . ... ... ...
ROW 1F : ... .. . ... ... ... : ... .. . ... ... ... : G-2 00 . P70 ... ... : 8-# 00 7 ... ... ... : ... .. . ... ... ... : ... .. . ... ... ... : ... .. . P80 ... ... : ... .. A ... ... ... : ... .. . ... ... ... : ... .. . ... ... ... : ... .. . P7B ... ... : ... .. . ... ... ... : ... .. . ... ... ...
ROW 20 : ... .. . ... ... ... : ... .. . ... ... ... : E-2 00 . P7C ... ... : ... .. 6 ... ... ... : ... .. . ... ... ... : ... .. . ... ... ... : ... .. . P7F ... ... : B-4 0F . ... ... ... : F#4 0F . ... ... ... : ... .. . ... ... ... : ... .. . P80 ... ... : ... .. . ... ... ... : ... .. . ... ... ...
ROW 21 : ... .. . ... ... ... : ... .. . ... ... ... : D-2 00 . P6F ... ... : ... .. . ... ... ... : ... .. . ... ... ... : ... .. . ... ... ... : ... .. . P80 ... ... : ... .. . ... ... ... : ... .. . ... ... ... : ... .. . ... ... ... : ... .. . P86 ... ... : ... .. . ... ... ... : ... .. . ... ... ...
ROW 22 : ... .. . ... ... ... : ... .. . ... ... ... : C-2 00 . P6C ... ... : ... .. 5 ... ... ... : ... .. . ... ... ... : ... .. . ... ... ... : ... .. . P81 ... ... : ... .. . ... ... ... : ... .. . ... ... ... : ... .. . ... ... ... : ... .. . P8A ... ... : ... .. . ... ... ... : ... .. . ... ... ...
ROW 23 : ... .. . ... ... ... : ... .. . ... ... ... : A#1 00 . P75 ... ... : ... .. . ... ... ... : ... .. . ... ... ... : ... .. . ... ... ... : ... .. . P80 ... ... : B-4 10 9 ... ... ... : F#4 10 7 ... ... ... : ... .. . ... ... ... : ... .. . P8B ... ... : ... .. . ... ... ... : ... .. . ... ... ...
ROW 24 : ... .. . ... ... ... : ... .. . ... ... ... : G#1 00 . P8A ... ... : ... .. 4 ... ... ... : ... .. . ... ... ... : ... .. . ... ... ... : ... .. . P7F ... ... : ... .. . ... ... ... : ... .. . ... ... ... : ... .. . ... ... ... : ... .. . P87 ... ... : ... .. . ... ... ... : ... .. . ... ... ...
ROW 25 : ... .. . ... ... ... : ... .. . ... ... ... : G-1 00 . P6A ... ... : ... .. . ... ... ... : ... .. . ... ... ... : ... .. . ... ... ... : ... .. . P80 ... ... : ... .. . ... ... ... : ... .. . ... ... ... : ... .. . ... ... ... : ... .. . P81 ... ... : ... .. . ... ... ... : ... .. . ... ... ...
ROW 26 : ... .. . ... ... ... : ... .. . ... ... ... : F-1 00 . P96 ... ... : ... .. 3 ... ... ... : ... .. . ... ... ... : ... .. . ... ... ... : ... .. . P81 ... ... : ... .. . ... ... ... : ... .. . ... ... ... : ... .. . ... ... ... : ... .. . P7C ... ... : ... .. . ... ... ... : ... .. . ... ... ...
ROW 27 : ... .. . ... ... ... : ... .. . ... ... ... : --- .. . ... ... ... : ... .. . ... ... ... : ... .. . ... ... ... : ... .. . ... ... ... : ... .. . ... ... ... : B-4 11 8 ... ... ... : F#4 11 . ... ... ... : ... .. . ... ... ... : ... .. . P77 ... ... : ... .. . ... ... ... : ... .. . ... ... ...
ROW 28 : ... .. . ... ... ... : ... .. . ... ... ... : ... .. . ... ... ... : ... .. . ... ... ... : ... .. . ... ... ... : ... .. . ... ... ... : ... .. . P80 ... ... : ... .. . ... ... ... : ... .. . ... ... ... : ... .. . ... ... ... : G-4 03 . P78 ... ... : ... .. . ... ... ... : ... .. . ... ... ...
ROW 29 : F#3 02 1 ... ... ... : C#3 02 1 ... ... ... : ... .. . ... ... ... : ... .. . ... ... ... : ... .. . ... ... ... : A#3 0C 1 P82 ... ... : ... .. . ... ... ... : ... .. . ... ... ... : ... .. . ... ... ... : ... .. . ... ... ... : ... .. . P7A ... ... : ... .. . ... ... ... : ... .. . ... ... ...
ROW 2A : ... .. . P7E ... ... : ... .. . P7E ... ... : ... .. . ... ... ... : ... .. 2 ... ... ... : ... .. . ... ... ... : ... .. . P81 ... ... : ... .. . P81 ... ... : ... .. . ... ... ... : ... .. . ... ... ... : ... .. . ... ... ... : ... .. . P7E ... ... : ... .. . ... ... ... : ... .. . ... ... ...
ROW 2B : ... .. . P7D ... ... : ... .. . P7D ... ... : ... .. . ... ... ... : ... .. . ... ... ... : ... .. . ... ... ... : ... .. . P80 ... ... : ... .. . ... ... ... : ... .. 7 ... ... ... : ... .. 6 ... ... ... : ... .. . ... ... ... : ... .. . P82 ... ... : ... .. . ... ... ... : ... .. . ... ... ...
ROW 2C : ... .. 2 P7E ... ... : ... .. 2 P7E ... ... : ... .. . ... ... ... : ... .. . ... ... ... : ... .. . ... ... ... : ... .. 2 P7F ... ... : ... .. . P80 ... ... : ... .. . ... ... ... : ... .. . ... ... ... : ... .. . ... ... ... : ... .. . P86 ... ... : ... .. . ... ... ... : ... .. . ... ... ...
ROW 2D : ... .. . P80 ... ... : ... .. . P80 ... ... : ... .. . ... ... ... : ... .. . ... ... ... : ... .. . ... ... ... : ... .. . ... ... ... : ... .. . P7F ... ... : ... .. . ... ... ... : ... .. . ... ... ... : ... .. . ... ... ... : ... .. . P88 ... ... : ... .. . ... ... ... : ... .. . ... ... ...
ROW 2E : ... .. 3 P82 ... ... : ... .. 3 P82 ... ... : ... .. . ... ... ... : ... .. 1 ... ... ... : ... .. . ... ... ... : ... .. 3 ... ... ... : ... .. . P80 ... ... : ... .. . ... ... ... : ... .. . ... ... ... : ... .. . ... ... ... : ... .. . P87 ... ... : ... .. . ... ... ... : ... .. . ... ... ...
ROW 2F : ... .. . P83 ... ... : ... .. . P83 ... ... : ... .. . ... ... ... : ... .. . ... ... ... : ... .. . ... ... ... : ... .. . P80 ... ... : ... .. . P81 ... ... : ... .. 6 ... ... ... : ... .. . ... ... ... : ... .. . ... ... ... : ... .. . P84 ... ... : ... .. . ... ... ... : ... .. . ... ... ...
ROW 30 : ... .. . P82 ... ... : ... .. . P82 ... ... : ... .. . ... ... ... : ... .. . ... ... ... : ... .. . ... ... ... : ... .. . P81 ... ... : ... .. . P80 ... ... : ... .. . ... ... ... : ... .. . ... ... ... : ... .. . ... ... ... : ... .. . P80 ... ... : ... .. . ... ... ... : ... .. . ... ... ...
ROW 31 : ... .. 4 P80 ... ... : ... .. 4 P80 ... ... : ... .. . ... ... ... : ... .. . ... ... ... : ... .. . ... ... ... : ... .. 4 P82 ... ... : ... .. . P7F ... ... : ... .. . ... ... ... : ... .. . ... ... ... : ... .. . ... ... ... : ... .. . P7C ... ... : ... .. . ... ... ... : ... .. . ... ... ...
ROW 32 : ... .. . P7E ... ... : ... .. . P7E ... ... : ... .. . ... ... ... : ... .. . ... ... ... : ... .. . ... ... ... : ... .. . P81 ... ... : ... .. . P80 ... ... : ... .. . ... ... ... : ... .. . ... ... ... : ... .. . ... ... ... : ... .. . P79 ... ... : ... .. . ... ... ... : ... .. . ... ... ...
ROW 33 : ... .. . P7D ... ... : ... .. . P7D ... ... : ... .. . ... ... ... : --- .. . ... ... ... : ... .. . ... ... ... : ... .. . P80 ... ... : ... .. . P81 ... ... : ... .. 5 ... ... ... : ... .. 5 ... ... ... : ... .. . ... ... ... : ... .. . P78 ... ... : ... .. . ... ... ... : ... .. . ... ... ...
ROW 34 : --- .. . ... ... ... : --- .. . ... ... ... : ... .. . ... ... ... : ... .. . ... ... ... : ... .. . ... ... ... : --- .. . ... ... ... : ... .. . P80 ... ... : A#4 0A B ... ... ... : F#4 0A 8 ... ... ... : ... .. . ... ... ... : ... .. . P7B ... ... : ... .. . ... ... ... : ... .. . ... ... ...
ROW 35 : ... .. . P80 ... ... : ... .. . P80 ... ... : ... .. . ... ... ... : ... .. . ... ... ... : ... .. . ... ... ... : ... .. . ... ... ... : ... .. . P7F ... ... : A#4 0B . ... ... ... : F#4 0B . ... ... ... : ... .. . ... ... ... : ... .. . P80 ... ... : ... .. . ... ... ... : ... .. . ... ... ...
ROW 36 : ... .. . ... ... ... : ... .. . ... ... ... : ... .. . ... ... ... : ... .. . ... ... ... : ... .. . ... ... ... : ... .. . ... ... ... : ... .. . P80 ... ... : A#4 0D . ... ... ... : F#4 0D . ... ... ... : ... .. . ... ... ... : ... .. . P83 ... ... : ... .. . ... ... ... : ... .. . ... ... ...
ROW 37 : ... .. . ... ... ... : ... .. . ... ... ... : ... .. . ... ... ... : ... .. . ... ... ... : ... .. . ... ... ... : ... .. . ... ... ... : ... .. . P81 ... ... : A#4 0E . ... ... ... : F#4 0E . ... ... ... : ... .. . ... ... ... : ... .. . P87 ... ... : ... .. . ... ... ... : ... .. . ... ... ...
ROW 38 : ... .. . ... ... ... : ... .. . ... ... ... : ... .. . ... ... ... : ... .. . ... ... ... : ... .. . ... ... ... : ... .. . ... ... ... : ... .. . ... ... ... : ... .. A ... ... ... : ... .. . ... ... ... : ... .. . ... ... ... : ... .. . P88 ... ... : ... .. . ... ... ... : ... .. . ... ... ...
ROW 39 : ... .. . ... ... ... : ... .. . ... ... ... : ... .. . ... ... ... : ... .. . ... ... ... : ... .. . ... ... ... : ... .. . ... ... ... : ... .. . P80 ... ... : A#4 0F . ... ... ... : F#4 0F . ... ... ... : ... .. . ... ... ... : ... .. . P87 ... ... : ... .. . ... ... ... : ... .. . ... ... ...
ROW 3A : ... .. . ... ... ... : ... .. . ... ... ... : ... .. . ... ... ... : ... .. . ... ... ... : ... .. . ... ... ... : ... .. . ... ... ... : ... .. . P7F ... ... : ... .. . ... ... ... : ... .. . ... ... ... : ... .. . ... ... ... : ... .. . P82 ... ... : ... .. . ... ... ... : ... .. . ... ... ...
ROW 3B : ... .. . ... ... ... : ... .. . ... ... ... : ... .. . ... ... ... : ... .. . ... ... ... : ... .. . ... ... ... : ... .. . ... ... ... : ... .. . P80 ... ... : ... .. . ... ... ... : ... .. . ... ... ... : ... .. . ... ... ... : ... .. . P7F ... ... : ... .. . ... ... ... : ... .. . ... ... ...
ROW 3C : ... .. . ... ... ... : ... .. . ... ... ... : ... .. . ... ... ... : ... .. . ... ... ... : ... .. . ... ... ... : ... .. . ... ... ... : ... .. . P81 ... ... : A#4 10 9 ... ... ... : F#4 10 7 ... ... ... : ... .. . ... ... ... : ... .. . P7A ... ... : ... .. . ... ... ... : ... .. . ... ... ...
ROW 3D : ... .. . ... ... ... : ... .. . ... ... ... : ... .. . ... ... ... : ... .. . ... ... ... : ... .. . ... ... ... : ... .. . ... ... ... : ... .. . P80 ... ... : ... .. . ... ... ... : ... .. . ... ... ... : ... .. . ... ... ... : ... .. . P78 ... ... : ... .. . ... ... ... : ... .. . ... ... ...
ROW 3E : ... .. . ... ... ... : ... .. . ... ... ... : ... .. . ... ... ... : ... .. . ... ... ... : ... .. . ... ... ... : ... .. . ... ... ... : ... .. . P7F ... ... : ... .. . ... ... ... : ... .. . ... ... ... : ... .. . ... ... ... : ... .. . P79 ... ... : ... .. . ... ... ... : ... .. . ... ... ...
ROW 3F : ... .. . ... ... ... : ... .. . ... ... ... : ... .. . ... ... ... : ... .. . ... ... ... : ... .. . ... ... ... : ... .. . ... ... ... : ... .. . P80 ... ... : ... .. . ... ... ... : ... .. . ... ... ... : ... .. . ... ... ... : ... .. . P7C ... ... : ... .. . ... ... ... : ... .. . ... ... ...
ROW 40 : ... .. . ... ... ... : ... .. . ... ... ... : ... .. . ... ... ... : ... .. . ... ... ... : ... .. . ... ... ... : ... .. . ... ... ... : ... .. . P81 ... ... : A#4 11 8 ... ... ... : F#4 11 . ... ... ... : ... .. . ... ... ... : ... .. . P80 ... ... : ... .. . ... ... ... : ... .. . ... ... ...
ROW 41 : ... .. . ... ... ... : ... .. . ... ... ... : ... .. . ... ... ... : ... .. . ... ... ... : ... .. . ... ... ... : ... .. . ... ... ... : ... .. . P80 ... ... : ... .. . ... ... ... : ... .. . ... ... ... : ... .. . ... ... ... : --- .. . ... ... ... : ... .. . ... ... ... : ... .. . ... ... ...
ROW 42 : F#3 02 1 P7E ... ... : C#3 02 1 P7E ... ... : ... .. . ... ... ... : ... .. . ... ... ... : ... .. . ... ... ... : A#3 0C 1 P81 ... ... : ... .. . P7F ... ... : ... .. . ... ... ... : ... .. . ... ... ... : ... .. . ... ... ... : ... .. . ... ... ... : ... .. . ... ... ... : ... .. . ... ... ...
ROW 43 : ... .. . P7D ... ... : ... .. . P7D ... ... : ... .. . ... ... ... : ... .. . ... ... ... : ... .. . ... ... ... : ... .. . P80 ... ... : ... .. . P80 ... ... : ... .. . ... ... ... : ... .. . ... ... ... : ... .. . ... ... ... : ... .. . ... ... ... : ... .. . ... ... ... : ... .. . ... ... ...
ROW 44 : ... .. . P7E ... ... : ... .. . P7E ... ... : ... .. . ... ... ... : ... .. . ... ... ... : ... .. . ... ... ... : ... .. . P7F ... ... : ... .. . P81 ... ... : ... .. 7 ... ... ... : ... .. 6 ... ... ... : ... .. . ... ... ... : ... .. . ... ... ... : ... .. . ... ... ... : ... .. . ... ... ...
ROW 45 : ... .. 2 P80 ... ... : ... .. 2 P80 ... ... : ... .. . ... ... ... : ... .. . ... ... ... : ... .. . ... ... ... : ... .. 2 ... ... ... : ... .. . ... ... ... : ... .. . ... ... ... : ... .. . ... ... ... : ... .. . ... ... ... : ... .. . ... ... ... : ... .. . ... ... ... : ... .. . ... ... ...
ROW 46 : ... .. . P82 ... ... : ... .. . P82 ... ... : ... .. . ... ... ... : ... .. . ... ... ... : ... .. . ... ... ... : ... .. . ... ... ... : ... .. . P80 ... ... : ... .. . ... ... ... : ... .. . ... ... ... : ... .. . ... ... ... : ... .. . ... ... ... : ... .. . ... ... ... : ... .. . ... ... ...
ROW 47 : ... .. 3 P83 ... ... : ... .. 3 P83 ... ... : ... .. . ... ... ... : ... .. . ... ... ... : ... .. . ... ... ... : ... .. 3 P80 ... ... : ... .. . ... ... ... : ... .. . ... ... ... : ... .. . ... ... ... : ... .. . ... ... ... : ... .. . ... ... ... : ... .. . ... ... ... : ... .. . ... ... ...
ROW 48 : ... .. . P82 ... ... : ... .. . P82 ... ... : ... .. . ... ... ... : ... .. . ... ... ... : ... .. . ... ... ... : ... .. . P81 ... ... : ... .. . P81 ... ... : ... .. 6 ... ... ... : ... .. . ... ... ... : ... .. . ... ... ... : ... .. . ... ... ... : ... .. . ... ... ... : ... .. . ... ... ...
ROW 49 : ... .. . P80 ... ... : ... .. . P80 ... ... : ... .. . ... ... ... : ... .. . ... ... ... : ... .. . ... ... ... : ... .. . P82 ... ... : ... .. . ... ... ... : ... .. . ... ... ... : ... .. . ... ... ... : ... .. . ... ... ... : ... .. . ... ... ... : ... .. . ... ... ... : ... .. . ... ... ...
ROW 4A : ... .. 4 P7E ... ... : ... .. 4 P7E ... ... : ... .. . ... ... ... : ... .. . ... ... ... : ... .. . ... ... ... : ... .. 4 P81 ... ... : ... .. . P80 ... ... : ... .. . ... ... ... : ... .. . ... ... ... : ... .. . ... ... ... : ... .. . ... ... ... : ... .. . ... ... ... : ... .. . ... ... ...
ROW 4B : ... .. . P7D ... ... : ... .. . P7D ... ... : ... .. . ... ... ... : ... .. . ... ... ... : ... .. . ... ... ... : ... .. . P80 ... ... : ... .. . P7F ... ... : ... .. . ... ... ... : ... .. . ... ... ... : ... .. . ... ... ... : ... .. . ... ... ... : ... .. . ... ... ... : ... .. . ... ... ...
ROW 4C : ... .. . P7E ... ... : ... .. . P7E ... ... : ... .. . ... ... ... : ... .. . ... ... ... : ... .. . ... ... ... : ... .. . P7F ... ... : ... .. . P80 ... ... : ... .. 5 ... ... ... : ... .. 5 ... ... ... : ... .. . ... ... ... : ... .. . ... ... ... : ... .. . ... ... ... : ... .. . ... ... ...
ROW 4D : --- .. . ... ... ... : --- .. . ... ... ... : F#3 00 . P78 ... ... : 1-# 00 F ... ... ... : C-1 12 . ... ... ... : --- .. . ... ... ... : D#2 03 . P81 ... ... : F#4 0A B ... ... ... : D#4 0A 8 ... ... ... : A#3 0A 8 ... ... ... : ... .. . ... ... ... : ... .. . ... ... ... : ... .. . ... ... ...
ROW 4E : ... .. . P80 ... ... : ... .. . P80 ... ... : C#3 00 . P7E ... ... : 2-# 00 7 ... ... ... : ... .. . ... ... ... : ... .. . P80 ... ... : ... .. . P80 ... ... : F#4 0B . ... ... ... : D#4 0B . ... ... ... : A#3 0B . ... ... ... : ... .. . ... ... ... : ... .. . ... ... ... : ... .. . ... ... ...
ROW 4F : ... .. . ... ... ... : ... .. . ... ... ... : A-2 00 . P86 ... ... : 1-# 00 4 ... ... ... : ... .. . ... ... ... : ... .. . ... ... ... : ... .. . P7F ... ... : F#4 0D . ... ... ... : D#4 0D . ... ... ... : A#3 0D . ... ... ... : ... .. . ... ... ... : ... .. . ... ... ... : ... .. . ... ... ...
ROW 50 : ... .. . ... ... ... : ... .. . ... ... ... : F#2 00 . P87 ... ... : ... .. 2 ... ... ... : ... .. . ... ... ... : ... .. . ... ... ... : ... .. . P80 ... ... : F#4 0E . ... ... ... : D#4 0E . ... ... ... : A#3 0E . ... ... ... : ... .. . ... ... ... : ... .. . ... ... ... : ... .. . ... ... ...
ROW 51 : ... .. . ... ... ... : ... .. . ... ... ... : E-2 00 . P71 ... ... : ... .. 1 ... ... ... : ... .. . ... ... ... : ... .. . ... ... ... : ... .. . P81 ... ... : ... .. A ... ... ... : ... .. . ... ... ... : ... .. 7 ... ... ... : ... .. . ... ... ... : ... .. . ... ... ... : ... .. . ... ... ...
ROW 52 : ... .. . ... ... ... : ... .. . ... ... ... : C#2 00 . P91 ... ... : --- .. . ... ... ... : ... .. . ... ... ... : ... .. . ... ... ... : ... .. . P80 ... ... : F#4 0F . ... ... ... : D#4 0F . ... ... ... : A#3 0F . ... ... ... : ... .. . ... ... ... : ... .. . ... ... ... : ... .. . ... ... ...
ROW 53 : ... .. . ... ... ... : ... .. . ... ... ... : --- .. . ... ... ... : ... .. . ... ... ... : ... .. . ... ... ... : ... .. . ... ... ... : ... .. . P7F ... ... : ... .. . ... ... ... : ... .. . ... ... ... : ... .. . ... ... ... : ... .. . ... ... ... : ... .. . ... ... ... : ... .. . ... ... ...
ROW 54 : ... .. . ... ... ... : ... .. . ... ... ... : ... .. . ... ... ... : ... .. . ... ... ... : ... .. . ... ... ... : ... .. . ... ... ... : ... .. . P80 ... ... : ... .. . ... ... ... : ... .. . ... ... ... : ... .. . ... ... ... : ... .. . ... ... ... : ... .. . ... ... ... : ... .. . ... ... ...
ROW 55 : ... .. . ... ... ... : ... .. . ... ... ... : ... .. . ... ... ... : ... .. . ... ... ... : ... .. . ... ... ... : ... .. . ... ... ... : ... .. . P81 ... ... : F#4 10 9 ... ... ... : D#4 10 7 ... ... ... : A#3 10 6 ... ... ... : ... .. . ... ... ... : ... .. . ... ... ... : ... .. . ... ... ...
ROW 56 : ... .. . ... ... ... : ... .. . ... ... ... : ... .. . ... ... ... : ... .. . ... ... ... : ... .. . ... ... ... : ... .. . ... ... ... : ... .. . ... ... ... : ... .. . ... ... ... : ... .. . ... ... ... : ... .. . ... ... ... : ... .. . ... ... ... : ... .. . ... ... ... : ... .. . ... ... ...
ROW 57 : ... .. . ... ... ... : ... .. . ... ... ... : ... .. . ... ... ... : ... .. . ... ... ... : ... .. . ... ... ... : ... .. . ... ... ... : ... .. . P80 ... ... : ... .. . ... ... ... : ... .. . ... ... ... : ... .. . ... ... ... : ... .. . ... ... ... : ... .. . ... ... ... : ... .. . ... ... ...
ROW 58 : ... .. . ... ... ... : ... .. . ... ... ... : ... .. . ... ... ... : ... .. . ... ... ... : ... .. . ... ... ... : ... .. . ... ... ... : ... .. . ... ... ... : ... .. . ... ... ... : ... .. . ... ... ... : ... .. . ... ... ... : ... .. . ... ... ... : ... .. . ... ... ... : ... .. . ... ... ...
ROW 59 : ... .. . ... ... ... : ... .. . ... ... ... : ... .. . ... ... ... : ... .. . ... ... ... : ... .. . ... ... ... : ... .. . ... ... ... : ... .. . P81 ... ... : F#4 11 8 ... ... ... : D#4 11 . ... ... ... : A#3 11 5 ... ... ... : ... .. . ... ... ... : ... .. . ... ... ... : ... .. . ... ... ...
ROW 5A : ... .. . ... ... ... : ... .. . ... ... ... : ... .. . ... ... ... : ... .. . ... ... ... : ... .. . ... ... ... : ... .. . ... ... ... : ... .. . ... ... ... : ... .. . ... ... ... : ... .. . ... ... ... : ... .. . ... ... ... : ... .. . ... ... ... : ... .. . ... ... ... : ... .. . ... ... ...
ROW 5B : D#3 02 1 P7D ... ... : A#2 02 1 P7D ... ... : ... .. . ... ... ... : ... .. . ... ... ... : ... .. . ... ... ... : G-3 0C 1 ... ... ... : ... .. . P80 ... ... : ... .. . ... ... ... : ... .. . ... ... ... : ... .. . ... ... ... : ... .. . ... ... ... : ... .. . ... ... ... : ... .. . ... ... ...
ROW 5C : ... .. . P7E ... ... : ... .. . P7E ... ... : ... .. . ... ... ... : ... .. . ... ... ... : ... .. . ... ... ... : ... .. . P7F ... ... : ... .. . P7F ... ... : ... .. . ... ... ... : ... .. . ... ... ... : ... .. . ... ... ... : ... .. . ... ... ... : ... .. . ... ... ... : ... .. . ... ... ...
ROW 5D : ... .. . P80 ... ... : ... .. . P80 ... ... : ... .. . ... ... ... : ... .. . ... ... ... : ... .. . ... ... ... : ... .. . ... ... ... : ... .. . P80 ... ... : ... .. 7 ... ... ... : ... .. 6 ... ... ... : ... .. 4 ... ... ... : ... .. . ... ... ... : ... .. . ... ... ... : ... .. . ... ... ...
ROW 5E : ... .. 2 P82 ... ... : ... .. 2 P82 ... ... : ... .. . ... ... ... : ... .. . ... ... ... : ... .. . ... ... ... : ... .. 2 ... ... ... : ... .. . P81 ... ... : ... .. . ... ... ... : ... .. . ... ... ... : ... .. . ... ... ... : ... .. . ... ... ... : ... .. . ... ... ... : ... .. . ... ... ...
ROW 5F : ... .. . P83 ... ... : ... .. . P83 ... ... : ... .. . ... ... ... : ... .. . ... ... ... : ... .. . ... ... ... : ... .. . P80 ... ... : ... .. . P80 ... ... : ... .. . ... ... ... : ... .. . ... ... ... : ... .. . ... ... ... : ... .. . ... ... ... : ... .. . ... ... ... : ... .. . ... ... ...
ROW 60 : ... .. 3 P82 ... ... : ... .. 3 P82 ... ... : ... .. . ... ... ... : ... .. . ... ... ... : ... .. . ... ... ... : ... .. 3 P81 ... ... : ... .. . P7F ... ... : ... .. . ... ... ... : ... .. . ... ... ... : ... .. . ... ... ... : ... .. . ... ... ... : ... .. . ... ... ... : ... .. . ... ... ...
ROW 61 : ... .. . P80 ... ... : ... .. . P80 ... ... : ... .. . ... ... ... : ... .. . ... ... ... : ... .. . ... ... ... : ... .. . P82 ... ... : ... .. . P80 ... ... : ... .. 6 ... ... ... : ... .. . ... ... ... : ... .. 3 ... ... ... : ... .. . ... ... ... : ... .. . ... ... ... : ... .. . ... ... ...
ROW 62 : ... .. . P7E ... ... : ... .. . P7E ... ... : ... .. . ... ... ... : ... .. . ... ... ... : ... .. . ... ... ... : ... .. . P81 ... ... : ... .. . P81 ... ... : ... .. . ... ... ... : ... .. . ... ... ... : ... .. . ... ... ... : ... .. . ... ... ... : ... .. . ... ... ... : ... .. . ... ... ...
ROW 63 : ... .. 4 P7D ... ... : ... .. 4 P7D ... ... : ... .. . ... ... ... : ... .. . ... ... ... : ... .. . ... ... ... : ... .. 4 P80 ... ... : ... .. . P80 ... ... : ... .. . ... ... ... : ... .. . ... ... ... : ... .. . ... ... ... : ... .. . ... ... ... : ... .. . ... ... ... : ... .. . ... ... ...
ROW 64 : ... .. . P7E ... ... : ... .. . P7E ... ... : ... .. . ... ... ... : ... .. . ... ... ... : ... .. . ... ... ... : ... .. . P7F ... ... : ... .. . P7F ... ... : ... .. . ... ... ... : ... .. . ... ... ... : ... .. . ... ... ... : ... .. . ... ... ... : ... .. . ... ... ... : ... .. . ... ... ...
ROW 65 : ... .. . P80 ... ... : ... .. . P80 ... ... : ... .. . ... ... ... : ... .. . ... ... ... : ... .. . ... ... ... : ... .. . ... ... ... : ... .. . P80 ... ... : ... .. 5 ... ... ... : ... .. 5 ... ... ... : ... .. 2 ... ... ... : ... .. . ... ... ... : ... .. . ... ... ... : ... .. . ... ... ...
ROW 66 : --- .. . ... ... ... : --- .. . ... ... ... : ... .. . ... ... ... : ... .. . ... ... ... : ... .. . ... ... ... : --- .. . ... ... ... : ... .. . P81 ... ... : --- .. . ... ... ... : A#3 0A 8 ... ... ... : A#3 0A . ... ... ... : ... .. . ... ... ... : ... .. . ... ... ... : ... .. . ... ... ...
ROW 67 : ... .. . ... ... ... : ... .. . ... ... ... : ... .. . ... ... ... : ... .. . ... ... ... : ... .. . ... ... ... : ... .. . P80 ... ... : ... .. . ... ... ... : ... .. . ... ... ... : A#3 0B . ... ... ... : A#3 0B . ... ... ... : ... .. . ... ... ... : ... .. . ... ... ... : ... .. . ... ... ...
ROW 68 : ... .. . ... ... ... : ... .. . ... ... ... : ... .. . ... ... ... : ... .. . ... ... ... : ... .. . ... ... ... : ... .. . ... ... ... : ... .. . P80 ... ... : ... .. . ... ... ... : A#3 0D . ... ... ... : A#3 0D . ... ... ... : ... .. . ... ... ... : ... .. . ... ... ... : ... .. . ... ... ...
ROW 69 : ... .. . ... ... ... : ... .. . ... ... ... : ... .. . ... ... ... : ... .. . ... ... ... : ... .. . ... ... ... : ... .. . ... ... ... : ... .. . ... ... ... : ... .. . ... ... ... : A#3 0E . ... ... ... : A#3 0E 1 ... ... ... : ... .. . ... ... ... : ... .. . ... ... ... : ... .. . ... ... ...
ROW 6A : ... .. . ... ... ... : ... .. . ... ... ... : ... .. . ... ... ... : ... .. . ... ... ... : ... .. . ... ... ... : ... .. . ... ... ... : ... .. . P81 ... ... : ... .. . ... ... ... : ... .. . ... ... ... : ... .. . ... ... ... : ... .. . ... ... ... : ... .. . ... ... ... : ... .. . ... ... ...
ROW 6B : ... .. . ... ... ... : ... .. . ... ... ... : ... .. . ... ... ... : ... .. . ... ... ... : ... .. . ... ... ... : ... .. . ... ... ... : ... .. . ... ... ... : ... .. . ... ... ... : A#3 0F . ... ... ... : A#3 0F . ... ... ... : ... .. . ... ... ... : ... .. . ... ... ... : ... .. . ... ... ...
ROW 6C : ... .. . ... ... ... : ... .. . ... ... ... : ... .. . ... ... ... : ... .. . ... ... ... : ... .. . ... ... ... : ... .. . ... ... ... : ... .. . P80 ... ... : ... .. . ... ... ... : ... .. . ... ... ... : ... .. . ... ... ... : ... .. . ... ... ... : ... .. . ... ... ... : ... .. . ... ... ...
ROW 6D : ... .. . ... ... ... : ... .. . ... ... ... : ... .. . ... ... ... : ... .. . ... ... ... : ... .. . ... ... ... : ... .. . ... ... ... : ... .. . P7F ... ... : ... .. . ... ... ... : ... .. . ... ... ... : --- .. . ... ... ... : ... .. . ... ... ... : ... .. . ... ... ... : ... .. . ... ... ...
ROW 6E : ... .. . ... ... ... : ... .. . ... ... ... : ... .. . ... ... ... : ... .. . ... ... ... : ... .. . ... ... ... : ... .. . ... ... ... : ... .. . P80 ... ... : ... .. . ... ... ... : A#3 10 7 ... ... ... : ... .. . ... ... ... : ... .. . ... ... ... : ... .. . ... ... ... : ... .. . ... ... ...
ROW 6F : ... .. . ... ... ... : ... .. . ... ... ... : ... .. . ... ... ... : ... .. . ... ... ... : ... .. . ... ... ... : ... .. . ... ... ... : ... .. . P81 ... ... : ... .. . ... ... ... : ... .. . ... ... ... : ... .. . ... ... ... : ... .. . ... ... ... : ... .. . ... ... ... : ... .. . ... ... ...
ROW 70 : ... .. . ... ... ... : ... .. . ... ... ... : ... .. . ... ... ... : ... .. . ... ... ... : ... .. . ... ... ... : ... .. . ... ... ... : ... .. . P80 ... ... : ... .. . ... ... ... : ... .. . ... ... ... : ... .. . ... ... ... : ... .. . ... ... ... : ... .. . ... ... ... : ... .. . ... ... ...
ROW 71 : ... .. . ... ... ... : ... .. . ... ... ... : ... .. . ... ... ... : ... .. . ... ... ... : ... .. . ... ... ... : ... .. . ... ... ... : ... .. . P7F ... ... : ... .. . ... ... ... : ... .. . ... ... ... : ... .. . ... ... ... : ... .. . ... ... ... : ... .. . ... ... ... : ... .. . ... ... ...
ROW 72 : ... .. . ... ... ... : ... .. . ... ... ... : F#3 00 . P78 ... ... : 1-# 00 F ... ... ... : C-1 12 . ... ... ... : ... .. . ... ... ... : ... .. . P80 ... ... : G-4 0A B ... ... ... : D#4 0A 8 ... ... ... : A#3 0A 8 ... ... ... : ... .. . ... ... ... : ... .. . ... ... ... : ... .. . ... ... ...
ROW 73 : ... .. . ... ... ... : ... .. . ... ... ... : C#3 00 . P7E ... ... : 2-# 00 7 ... ... ... : ... .. . ... ... ... : ... .. . ... ... ... : ... .. . P81 ... ... : G-4 0B . ... ... ... : D#4 0B . ... ... ... : A#3 0B . ... ... ... : ... .. . ... ... ... : ... .. . ... ... ... : ... .. . ... ... ...
ROW 74 : D#3 02 1 P7E ... ... : A#2 02 1 P7E ... ... : A-2 00 . P86 ... ... : 1-# 00 4 ... ... ... : ... .. . ... ... ... : G-3 0C 1 P7F ... ... : ... .. . P80 ... ... : G-4 0D . ... ... ... : D#4 0D . ... ... ... : A#3 0D . ... ... ... : ... .. . ... ... ... : ... .. . ... ... ... : ... .. . ... ... ...
ROW 75 : ... .. . P80 ... ... : ... .. . P80 ... ... : F#2 00 . P87 ... ... : ... .. 2 ... ... ... : ... .. . ... ... ... : ... .. . ... ... ... : ... .. . P7F ... ... : G-4 0E . ... ... ... : D#4 0E . ... ... ... : A#3 0E . ... ... ... : ... .. . ... ... ... : ... .. . ... ... ... : ... .. . ... ... ...
ROW 76 : ... .. . P82 ... ... : ... .. . P82 ... ... : E-2 00 . P71 ... ... : ... .. 1 ... ... ... : ... .. . ... ... ... : ... .. . ... ... ... : ... .. . P80 ... ... : ... .. A ... ... ... : ... .. . ... ... ... : ... .. 7 ... ... ... : ... .. . ... ... ... : ... .. . ... ... ... : ... .. . ... ... ...
ROW 77 : ... .. 2 P83 ... ... : ... .. 2 P83 ... ... : C#2 00 . P91 ... ... : --- .. . ... ... ... : ... .. . ... ... ... : ... .. 2 P80 ... ... : ... .. . P81 ... ... : G-4 0F . ... ... ... : D#4 0F . ... ... ... : A#3 0F . ... ... ... : ... .. . ... ... ... : ... .. . ... ... ... : ... .. . ... ... ...
ROW 78 : ... .. . P82 ... ... : ... .. . P82 ... ... : --- .. . ... ... ... : ... .. . ... ... ... : ... .. . ... ... ... : ... .. . P81 ... ... : ... .. . ... ... ... : ... .. . ... ... ... : ... .. . ... ... ... : ... .. . ... ... ... : ... .. . ... ... ... : ... .. . ... ... ... : ... .. . ... ... ...
ROW 79 : ... .. 3 P80 ... ... : ... .. 3 P80 ... ... : ... .. . ... ... ... : ... .. . ... ... ... : ... .. . ... ... ... : ... .. 3 P82 ... ... : ... .. . P80 ... ... : ... .. . ... ... ... : ... .. . ... ... ... : ... .. . ... ... ... : ... .. . ... ... ... : ... .. . ... ... ... : ... .. . ... ... ...
ROW 7A : ... .. . P7E ... ... : ... .. . P7E ... ... : ... .. . ... ... ... : ... .. . ... ... ... : ... .. . ... ... ... : ... .. . P81 ... ... : ... .. . P7F ... ... : G-4 10 9 ... ... ... : D#4 10 7 ... ... ... : A#3 10 6 ... ... ... : ... .. . ... ... ... : ... .. . ... ... ... : ... .. . ... ... ...
ROW 7B : ... .. . P7D ... ... : ... .. . P7D ... ... : ... .. . ... ... ... : ... .. . ... ... ... : ... .. . ... ... ... : ... .. . P80 ... ... : ... .. . P80 ... ... : ... .. . ... ... ... : ... .. . ... ... ... : ... .. . ... ... ... : ... .. . ... ... ... : ... .. . ... ... ... : ... .. . ... ... ...
ROW 7C : ... .. 4 P7E ... ... : ... .. 4 P7E ... ... : ... .. . ... ... ... : ... .. . ... ... ... : ... .. . ... ... ... : ... .. 4 P7F ... ... : ... .. . P81 ... ... : ... .. . ... ... ... : ... .. . ... ... ... : ... .. . ... ... ... : ... .. . ... ... ... : ... .. . ... ... ... : ... .. . ... ... ...
ROW 7D : ... .. . P80 ... ... : ... .. . P80 ... ... : ... .. . ... ... ... : ... .. . ... ... ... : ... .. . ... ... ... : ... .. . ... ... ... : ... .. . P80 ... ... : ... .. . ... ... ... : ... .. . ... ... ... : ... .. . ... ... ... : ... .. . ... ... ... : ... .. . ... ... ... : ... .. . ... ... ...
ROW 7E : ... .. . P82 ... ... : ... .. . P82 ... ... : ... .. . ... ... ... : ... .. . ... ... ... : ... .. . ... ... ... : ... .. . ... ... ... : ... .. . P7F ... ... : G-4 11 8 ... ... ... : D#4 11 . ... ... ... : A#3 11 5 ... ... ... : ... .. . ... ... ... : ... .. . ... ... ... : ... .. . ... ... ...
ROW 7F : --- .. . ... ... ... : --- .. . ... ... ... : C#4 00 . P7F ... ... : 9-# 00 F ... ... ... : C#1 12 . ... ... ... : --- .. . ... ... ... : ... .. . P80 ... ... : ... .. . ... ... ... : ... .. . ... ... ... : ... .. . ... ... ... : ... .. . ... ... ... : ... .. . ... ... ... : ... .. . ... ... ...
ROW 80 : ... .. . P80 ... ... : ... .. . P80 ... ... : F#3 00 . P83 ... ... : 2-# 00 7 ... ... ... : ... .. . ... ... ... : ... .. . P80 ... ... : ... .. . P81 ... ... : ... .. . ... ... ... : ... .. . ... ... ... : ... .. . ... ... ... : ... .. . ... ... ... : ... .. . ... ... ... : ... .. . ... ... ...
ROW 81 : ... .. . ... ... ... : ... .. . ... ... ... : C#3 00 . P89 ... ... : 6-# 00 C ... ... ... : ... .. . ... ... ... : ... .. . ... ... ... : ... .. . P80 ... ... : ... .. . ... ... ... : ... .. . ... ... ... : ... .. . ... ... ... : ... .. . ... ... ... : ... .. . ... ... ... : ... .. . ... ... ...
ROW 82 : ... .. . ... ... ... : ... .. . ... ... ... : A#2 00 . P75 ... ... : 7-# 00 8 ... ... ... : ... .. . ... ... ... : ... .. . ... ... ... : ... .. . P7F ... ... : ... .. 7 ... ... ... : ... .. 6 ... ... ... : ... .. 4 ... ... ... : ... .. . ... ... ... : ... .. . ... ... ... : ... .. . ... ... ...
ROW 83 : ... .. . ... ... ... : ... .. . ... ... ... : G-2 00 . P70 ... ... : 8-# 00 7 ... ... ... : ... .. . ... ... ... : ... .. . ... ... ... : ... .. . P80 ... ... : ... .. . ... ... ... : ... .. . ... ... ... : ... .. . ... ... ... : ... .. . ... ... ... : ... .. . ... ... ... : ... .. . ... ... ...
ROW 84 : ... .. . ... ... ... : ... .. . ... ... ... : E-2 00 . P7C ... ... : ... .. 6 ... ... ... : ... .. . ... ... ... : ... .. . ... ... ... : ... .. . P81 ... ... : ... .. . ... ... ... : ... .. . ... ... ... : ... .. . ... ... ... : ... .. . ... ... ... : ... .. . ... ... ... : ... .. . ... ... ...
ROW 85 : ... .. . ... ... ... : ... .. . ... ... ... : D-2 00 . P6F ... ... : ... .. . ... ... ... : ... .. . ... ... ... : ... .. . ... ... ... : ... .. . ... ... ... : ... .. . ... ... ... : ... .. . ... ... ... : ... .. . ... ... ... : ... .. . ... ... ... : ... .. . ... ... ... : ... .. . ... ... ...
ROW 86 : ... .. . ... ... ... : ... .. . ... ... ... : C-2 00 . P6C ... ... : ... .. 5 ... ... ... : ... .. . ... ... ... : ... .. . ... ... ... : ... .. . P80 ... ... : ... .. 6 ... ... ... : ... .. . ... ... ... : ... .. 3 ... ... ... : ... .. . ... ... ... : ... .. . ... ... ... : ... .. . ... ... ...
ROW 87 : ... .. . ... ... ... : ... .. . ... ... ... : A#1 00 . P75 ... ... : ... .. . ... ... ... : ... .. . ... ... ... : ... .. . ... ... ... : ... .. . ... ... ... : ... .. . ... ... ... : ... .. . ... ... ... : ... .. . ... ... ... : ... .. . ... ... ... : ... .. . ... ... ... : ... .. . ... ... ...
ROW 88 : ... .. . ... ... ... : ... .. . ... ... ... : G#1 00 . P8A ... ... : ... .. 4 ... ... ... : ... .. . ... ... ... : ... .. . ... ... ... : ... .. . P81 ... ... : ... .. . ... ... ... : ... .. . ... ... ... : ... .. . ... ... ... : ... .. . ... ... ... : ... .. . ... ... ... : ... .. . ... ... ...
ROW 89 : ... .. . ... ... ... : ... .. . ... ... ... : G-1 00 . P6A ... ... : ... .. . ... ... ... : ... .. . ... ... ... : ... .. . ... ... ... : ... .. . ... ... ... : ... .. . ... ... ... : ... .. . ... ... ... : ... .. . ... ... ... : ... .. . ... ... ... : ... .. . ... ... ... : ... .. . ... ... ...
ROW 8A : ... .. . ... ... ... : ... .. . ... ... ... : F-1 00 . P96 ... ... : ... .. 3 ... ... ... : ... .. . ... ... ... : ... .. . ... ... ... : ... .. . P80 ... ... : ... .. 5 ... ... ... : ... .. 5 ... ... ... : ... .. 2 ... ... ... : ... .. . ... ... ... : ... .. . ... ... ... : ... .. . ... ... ...
ROW 8B : ... .. . ... ... ... : ... .. . ... ... ... : --- .. . ... ... ... : ... .. . ... ... ... : ... .. . ... ... ... : ... .. . ... ... ... : ... .. . P7F ... ... : ... .. . ... ... ... : ... .. . ... ... ... : ... .. . ... ... ... : ... .. . ... ... ... : ... .. . ... ... ... : ... .. . ... ... ...
ROW 8C : ... .. . ... ... ... : ... .. . ... ... ... : ... .. . ... ... ... : ... .. . ... ... ... : ... .. . ... ... ... : ... .. . ... ... ... : ... .. . P80 ... ... : ... .. . ... ... ... : ... .. . ... ... ... : ... .. . ... ... ... : ... .. . ... ... ... : ... .. . ... ... ... : ... .. . ... ... ...
ROW 8D : D#3 02 1 ... ... ... : A#2 02 1 ... ... ... : ... .. . ... ... ... : ... .. . ... ... ... : ... .. . ... ... ... : G-3 0C 1 P7F ... ... : ... .. . P81 ... ... : ... .. . ... ... ... : ... .. . ... ... ... : ... .. . ... ... ... : ... .. . ... ... ... : ... .. . ... ... ... : ... .. . ... ... ...
ROW 8E : ... .. . P82 ... ... : ... .. . P82 ... ... : ... .. . ... ... ... : ... .. 2 ... ... ... : ... .. . ... ... ... : ... .. . ... ... ... : ... .. . P80 ... ... : ... .. 4 ... ... ... : ... .. . ... ... ... : ... .. 1 ... ... ... : ... .. . ... ... ... : ... .. . ... ... ... : ... .. . ... ... ...
ROW 8F : ... .. . P83 ... ... : ... .. . P83 ... ... : ... .. . ... ... ... : ... .. . ... ... ... : ... .. . ... ... ... : ... .. . P80 ... ... : ... .. . P7F ... ... : ... .. . ... ... ... : ... .. . ... ... ... : ... .. . ... ... ... : ... .. . ... ... ... : ... .. . ... ... ... : ... .. . ... ... ...
ROW 90 : ... .. 2 P82 ... ... : ... .. 2 P82 ... ... : ... .. . ... ... ... : ... .. . ... ... ... : ... .. . ... ... ... : ... .. 2 P81 ... ... : ... .. . P80 ... ... : ... .. . ... ... ... : ... .. . ... ... ... : ... .. . ... ... ... : ... .. . ... ... ... : ... .. . ... ... ... : ... .. . ... ... ...
ROW 91 : ... .. . P80 ... ... : ... .. . P80 ... ... : ... .. . ... ... ... : ... .. . ... ... ... : ... .. . ... ... ... : ... .. . P82 ... ... : ... .. . P81 ... ... : ... .. . ... ... ... : ... .. . ... ... ... : ... .. . ... ... ... : ... .. . ... ... ... : ... .. . ... ... ... : ... .. . ... ... ...
ROW 92 : ... .. 3 P7E ... ... : ... .. 3 P7E ... ... : ... .. . ... ... ... : ... .. 1 ... ... ... : ... .. . ... ... ... : ... .. 3 P81 ... ... : ... .. . P80 ... ... : ... .. 3 ... ... ... : ... .. 4 ... ... ... : --- .. . ... ... ... : ... .. . ... ... ... : ... .. . ... ... ... : ... .. . ... ... ...
ROW 93 : ... .. . P7D ... ... : ... .. . P7D ... ... : ... .. . ... ... ... : ... .. . ... ... ... : ... .. . ... ... ... : ... .. . P80 ... ... : ... .. . P7F ... ... : ... .. . ... ... ... : ... .. . ... ... ... : ... .. . ... ... ... : ... .. . ... ... ... : ... .. . ... ... ... : ... .. . ... ... ...
ROW 94 : ... .. . P7E ... ... : ... .. . P7E ... ... : ... .. . ... ... ... : ... .. . ... ... ... : ... .. . ... ... ... : ... .. . P7F ... ... : ... .. . P80 ... ... : ... .. . ... ... ... : ... .. . ... ... ... : ... .. . ... ... ... : ... .. . ... ... ... : ... .. . ... ... ... : ... .. . ... ... ...
ROW 95 : ... .. 4 P80 ... ... : ... .. 4 P80 ... ... : ... .. . ... ... ... : ... .. . ... ... ... : ... .. . ... ... ... : ... .. 4 ... ... ... : ... .. . P81 ... ... : ... .. . ... ... ... : ... .. . ... ... ... : ... .. . ... ... ... : ... .. . ... ... ... : ... .. . ... ... ... : ... .. . ... ... ...
ROW 96 : ... .. . P82 ... ... : ... .. . P82 ... ... : ... .. . ... ... ... : ... .. . ... ... ... : ... .. . ... ... ... : ... .. . ... ... ... : ... .. . ... ... ... : ... .. 2 ... ... ... : ... .. . ... ... ... : ... .. . ... ... ... : ... .. . ... ... ... : ... .. . ... ... ... : ... .. . ... ... ...
ROW 97 : ... .. . P83 ... ... : ... .. . P83 ... ... : ... .. . ... ... ... : --- .. . ... ... ... : ... .. . ... ... ... : ... .. . P80 ... ... : ... .. . P80 ... ... : ... .. . ... ... ... : ... .. . ... ... ... : ... .. . ... ... ... : ... .. . ... ... ... : ... .. . ... ... ... : ... .. . ... ... ...
ROW 98 : --- .. . ... ... ... : --- .. . ... ... ... : F#3 00 . P78 ... ... : 1-# 00 F ... ... ... : C-1 12 . ... ... ... : --- .. . ... ... ... : ... .. . ... ... ... : ... .. . ... ... ... : ... .. . ... ... ... : ... .. . ... ... ... : ... .. . ... ... ... : ... .. . ... ... ... : ... .. . ... ... ...
ROW 99 : ... .. . P80 ... ... : ... .. . P80 ... ... : C#3 00 . P7E ... ... : 2-# 00 7 ... ... ... : ... .. . ... ... ... : ... .. . ... ... ... : ... .. . P81 ... ... : ... .. . ... ... ... : ... .. . ... ... ... : ... .. . ... ... ... : ... .. . ... ... ... : ... .. . ... ... ... : ... .. . ... ... ...
ROW 9A : ... .. . ... ... ... : ... .. . ... ... ... : A-2 00 . P86 ... ... : 1-# 00 4 ... ... ... : ... .. . ... ... ... : ... .. . ... ... ... : ... .. . ... ... ... : ... .. 1 ... ... ... : ... .. 3 ... ... ... : ... .. . ... ... ... : ... .. . ... ... ... : ... .. . ... ... ... : ... .. . ... ... ...
ROW 9B : ... .. . ... ... ... : ... .. . ... ... ... : F#2 00 . P87 ... ... : ... .. 2 ... ... ... : ... .. . ... ... ... : ... .. . ... ... ... : ... .. . P80 ... ... : ... .. . ... ... ... : ... .. . ... ... ... : ... .. . ... ... ... : ... .. . ... ... ... : ... .. . ... ... ... : ... .. . ... ... ...
ROW 9C : ... .. . ... ... ... : ... .. . ... ... ... : E-2 00 . P71 ... ... : ... .. 1 ... ... ... : ... .. . ... ... ... : ... .. . ... ... ... : ... .. . P7F ... ... : ... .. . ... ... ... : ... .. . ... ... ... : ... .. . ... ... ... : ... .. . ... ... ... : ... .. . ... ... ... : ... .. . ... ... ...
ROW 9D : ... .. . ... ... ... : ... .. . ... ... ... : C#2 00 . P91 ... ... : --- .. . ... ... ... : ... .. . ... ... ... : ... .. . ... ... ... : ... .. . P80 ... ... : ... .. . ... ... ... : ... .. . ... ... ... : ... .. . ... ... ... : ... .. . ... ... ... : ... .. . ... ... ... : ... .. . ... ... ...
ROW 9E : ... .. . ... ... ... : ... .. . ... ... ... : --- .. . ... ... ... : ... .. . ... ... ... : ... .. . ... ... ... : ... .. . ... ... ... : ... .. . P81 ... ... : --- .. . ... ... ... : ... .. . ... ... ... : ... .. . ... ... ... : ... .. . ... ... ... : ... .. . ... ... ... : ... .. . ... ... ...
ROW 9F : ... .. . ... ... ... : ... .. . ... ... ... : ... .. . ... ... ... : ... .. . ... ... ... : ... .. . ... ... ... : ... .. . ... ... ... : ... .. . P80 ... ... : ... .. . ... ... ... : ... .. . ... ... ... : ... .. . ... ... ... : ... .. . ... ... ... : ... .. . ... ... ... : ... .. . ... ... ...
ROW A0 : ... .. . ... ... ... : ... .. . ... ... ... : ... .. . ... ... ... : ... .. . ... ... ... : ... .. . ... ... ... : ... .. . ... ... ... : ... .. . P7F ... ... : ... .. . ... ... ... : ... .. . ... ... ... : ... .. . ... ... ... : ... .. . ... ... ... : ... .. . ... ... ... : ... .. . ... ... ...
ROW A1 : ... .. . ... ... ... : ... .. . ... ... ... : ... .. . ... ... ... : ... .. . ... ... ... : ... .. . ... ... ... : ... .. . ... ... ... : ... .. . P80 ... ... : ... .. . ... ... ... : ... .. . ... ... ... : ... .. . ... ... ... : ... .. . ... ... ... : ... .. . ... ... ... : ... .. . ... ... ...
ROW A2 : ... .. . ... ... ... : ... .. . ... ... ... : ... .. . ... ... ... : ... .. . ... ... ... : ... .. . ... ... ... : ... .. . ... ... ... : ... .. . P81 ... ... : ... .. . ... ... ... : ... .. 2 ... ... ... : ... .. . ... ... ... : ... .. . ... ... ... : ... .. . ... ... ... : ... .. . ... ... ...
ROW A3 : ... .. . ... ... ... : ... .. . ... ... ... : ... .. . ... ... ... : ... .. . ... ... ... : ... .. . ... ... ... : ... .. . ... ... ... : ... .. . P80 ... ... : ... .. . ... ... ... : ... .. . ... ... ... : ... .. . ... ... ... : ... .. . ... ... ... : ... .. . ... ... ... : ... .. . ... ... ...
ROW A4 : ... .. . ... ... ... : ... .. . ... ... ... : ... .. . ... ... ... : ... .. . ... ... ... : ... .. . ... ... ... : ... .. . ... ... ... : ... .. . P7F ... ... : ... .. . ... ... ... : ... .. . ... ... ... : ... .. . ... ... ... : ... .. . ... ... ... : ... .. . ... ... ... : ... .. . ... ... ...
ROW A5 : ... .. . ... ... ... : ... .. . ... ... ... : ... .. . ... ... ... : ... .. . ... ... ... : ... .. . ... ... ... : ... .. . ... ... ... : ... .. . P80 ... ... : ... .. . ... ... ... : ... .. . ... ... ... : ... .. . ... ... ... : ... .. . ... ... ... : ... .. . ... ... ... : ... .. . ... ... ...
ROW A6 : D#3 02 1 P82 ... ... : A#2 02 1 P82 ... ... : ... .. . ... ... ... : ... .. . ... ... ... : ... .. . ... ... ... : G-3 0C 1 P7F ... ... : ... .. . P81 ... ... : ... .. . ... ... ... : ... .. . ... ... ... : ... .. . ... ... ... : ... .. . ... ... ... : ... .. . ... ... ... : ... .. . ... ... ...
ROW A7 : ... .. . P83 ... ... : ... .. . P83 ... ... : ... .. . ... ... ... : ... .. . ... ... ... : ... .. . ... ... ... : ... .. . P80 ... ... : ... .. . ... ... ... : ... .. . ... ... ... : ... .. . ... ... ... : ... .. . ... ... ... : ... .. . ... ... ... : ... .. . ... ... ... : ... .. . ... ... ...
ROW A8 : ... .. . P82 ... ... : ... .. . P82 ... ... : ... .. . ... ... ... : ... .. . ... ... ... : ... .. . ... ... ... : ... .. . P81 ... ... : ... .. . P80 ... ... : ... .. . ... ... ... : ... .. . ... ... ... : ... .. . ... ... ... : ... .. . ... ... ... : ... .. . ... ... ... : ... .. . ... ... ...
ROW A9 : ... .. 2 P80 ... ... : ... .. 2 P80 ... ... : ... .. . ... ... ... : ... .. . ... ... ... : ... .. . ... ... ... : ... .. 2 P82 ... ... : ... .. . ... ... ... : ... .. . ... ... ... : ... .. . ... ... ... : ... .. . ... ... ... : ... .. . ... ... ... : ... .. . ... ... ... : ... .. . ... ... ...
ROW AA : ... .. . P7E ... ... : ... .. . P7E ... ... : ... .. . ... ... ... : ... .. . ... ... ... : ... .. . ... ... ... : ... .. . P81 ... ... : ... .. . P81 ... ... : ... .. . ... ... ... : ... .. 1 ... ... ... : ... .. . ... ... ... : ... .. . ... ... ... : ... .. . ... ... ... : ... .. . ... ... ...
ROW AB : ... .. 3 P7D ... ... : ... .. 3 P7D ... ... : ... .. . ... ... ... : ... .. . ... ... ... : ... .. . ... ... ... : ... .. 3 P80 ... ... : ... .. . ... ... ... : ... .. . ... ... ... : ... .. . ... ... ... : ... .. . ... ... ... : ... .. . ... ... ... : ... .. . ... ... ... : ... .. . ... ... ...
ROW AC : ... .. . P7E ... ... : ... .. . P7E ... ... : ... .. . ... ... ... : ... .. . ... ... ... : ... .. . ... ... ... : ... .. . P7F ... ... : ... .. . P80 ... ... : ... .. . ... ... ... : ... .. . ... ... ... : ... .. . ... ... ... : ... .. . ... ... ... : ... .. . ... ... ... : ... .. . ... ... ...
ROW AD : ... .. . P80 ... ... : ... .. . P80 ... ... : ... .. . ... ... ... : ... .. . ... ... ... : ... .. . ... ... ... : ... .. . ... ... ... : ... .. . P7F ... ... : ... .. . ... ... ... : ... .. . ... ... ... : ... .. . ... ... ... : ... .. . ... ... ... : ... .. . ... ... ... : ... .. . ... ... ...
ROW AE : ... .. 4 P82 ... ... : ... .. 4 P82 ... ... : ... .. . ... ... ... : ... .. . ... ... ... : ... .. . ... ... ... : ... .. 4 ... ... ... : ... .. . P80 ... ... : ... .. . ... ... ... : ... .. . ... ... ... : ... .. . ... ... ... : ... .. . ... ... ... : ... .. . ... ... ... : ... .. . ... ... ...
ROW AF : ... .. . P83 ... ... : ... .. . P83 ... ... : ... .. . ... ... ... : ... .. . ... ... ... : ... .. . ... ... ... : ... .. . P80 ... ... : ... .. . P81 ... ... : ... .. . ... ... ... : ... .. . ... ... ... : ... .. . ... ... ... : ... .. . ... ... ... : ... .. . ... ... ... : ... .. . ... ... ...
ROW B0 : ... .. . P82 ... ... : ... .. . P82 ... ... : ... .. . ... ... ... : ... .. . ... ... ... : ... .. . ... ... ... : ... .. . P81 ... ... : ... .. . P80 ... ... : ... .. . ... ... ... : ... .. . ... ... ... : ... .. . ... ... ... : ... .. . ... ... ... : ... .. . ... ... ... : ... .. . ... ... ...
ROW B1 : --- .. . ... ... ... : --- .. . ... ... ... : F#3 00 . P78 ... ... : 1-# 00 F ... ... ... : C-1 12 . ... ... ... : --- .. . ... ... ... : G#1 03 . ... ... ... : ... .. . ... ... ... : ... .. . ... ... ... : ... .. . ... ... ... : ... .. . ... ... ... : ... .. . ... ... ... : ... .. . ... ... ...
ROW B2 : ... .. . P80 ... ... : ... .. . P80 ... ... : C#3 00 . P7E ... ... : 2-# 00 7 ... ... ... : ... .. . ... ... ... : ... .. . P80 ... ... : ... .. . ... ... ... : ... .. . ... ... ... : --- .. . ... ... ... : ... .. . ... ... ... : ... .. . ... ... ... : ... .. . ... ... ... : ... .. . ... ... ...
ROW B3 : ... .. . ... ... ... : ... .. . ... ... ... : A-2 00 . P86 ... ... : 1-# 00 4 ... ... ... : ... .. . ... ... ... : ... .. . ... ... ... : ... .. . P81 ... ... : ... .. . ... ... ... : ... .. . ... ... ... : ... .. . ... ... ... : ... .. . ... ... ... : ... .. . ... ... ... : ... .. . ... ... ...
ROW B4 : ... .. . ... ... ... : ... .. . ... ... ... : F#2 00 . P87 ... ... : ... .. 2 ... ... ... : ... .. . ... ... ... : ... .. . ... ... ... : ... .. . P80 ... ... : ... .. . ... ... ... : ... .. . ... ... ... : ... .. . ... ... ... : ... .. . ... ... ... : ... .. . ... ... ... : ... .. . ... ... ...
ROW B5 : ... .. . ... ... ... : ... .. . ... ... ... : E-2 00 . P71 ... ... : ... .. 1 ... ... ... : ... .. . ... ... ... : ... .. . ... ... ... : ... .. . ... ... ... : ... .. . ... ... ... : ... .. . ... ... ... : ... .. . ... ... ... : ... .. . ... ... ... : ... .. . ... ... ... : ... .. . ... ... ...
ROW B6 : ... .. . ... ... ... : ... .. . ... ... ... : C#2 00 . P91 ... ... : --- .. . ... ... ... : ... .. . ... ... ... : ... .. . ... ... ... : ... .. . ... ... ... : ... .. . ... ... ... : ... .. . ... ... ... : ... .. . ... ... ... : ... .. . ... ... ... : ... .. . ... ... ... : ... .. . ... ... ...
ROW B7 : ... .. . ... ... ... : ... .. . ... ... ... : --- .. . ... ... ... : ... .. . ... ... ... : ... .. . ... ... ... : ... .. . ... ... ... : ... .. . P81 ... ... : ... .. . ... ... ... : ... .. . ... ... ... : ... .. . ... ... ... : ... .. . ... ... ... : ... .. . ... ... ... : ... .. . ... ... ...
ROW B8 : ... .. . ... ... ... : ... .. . ... ... ... : ... .. . ... ... ... : ... .. . ... ... ... : ... .. . ... ... ... : ... .. . ... ... ... : ... .. . ... ... ... : ... .. . ... ... ... : ... .. . ... ... ... : ... .. . ... ... ... : ... .. . ... ... ... : ... .. . ... ... ... : ... .. . ... ... ...
ROW B9 : ... .. . ... ... ... : ... .. . ... ... ... : ... .. . ... ... ... : ... .. . ... ... ... : ... .. . ... ... ... : ... .. . ... ... ... : ... .. . P80 ... ... : ... .. . ... ... ... : ... .. . ... ... ... : ... .. . ... ... ... : ... .. . ... ... ... : ... .. . ... ... ... : ... .. . ... ... ...
ROW BA : ... .. . ... ... ... : ... .. . ... ... ... : ... .. . ... ... ... : ... .. . ... ... ... : ... .. . ... ... ... : ... .. . ... ... ... : ... .. . ... ... ... : ... .. . ... ... ... : ... .. . ... ... ... : ... .. . ... ... ... : ... .. . ... ... ... : ... .. . ... ... ... : ... .. . ... ... ...
ROW BB : ... .. . ... ... ... : ... .. . ... ... ... : ... .. . ... ... ... : ... .. . ... ... ... : ... .. . ... ... ... : ... .. . ... ... ... : ... .. . ... ... ... : ... .. . ... ... ... : ... .. . ... ... ... : ... .. . ... ... ... : ... .. . ... ... ... : ... .. . ... ... ... : ... .. . ... ... ...
ROW BC : ... .. . ... ... ... : ... .. . ... ... ... : ... .. . ... ... ... : ... .. . ... ... ... : ... .. . ... ... ... : ... .. . ... ... ... : ... .. . P81 ... ... : ... .. . ... ... ... : ... .. . ... ... ... : ... .. . ... ... ... : ... .. . ... ... ... : ... .. . ... ... ... : ... .. . ... ... ...
ROW BD : ... .. . ... ... ... : ... .. . ... ... ... : ... .. . ... ... ... : ... .. . ... ... ... : ... .. . ... ... ... : ... .. . ... ... ... : ... .. . P80 ... ... : G#5 0A B ... ... ... : ... .. . ... ... ... : ... .. . ... ... ... : ... .. . ... ... ... : ... .. . ... ... ... : ... .. . ... ... ...
ROW BE : ... .. . ... ... ... : ... .. . ... ... ... : ... .. . ... ... ... : ... .. . ... ... ... : ... .. . ... ... ... : ... .. . ... ... ... : ... .. . ... ... ... : G#5 0B . ... ... ... : ... .. . ... ... ... : ... .. . ... ... ... : ... .. . ... ... ... : ... .. . ... ... ... : ... .. . ... ... ...
ROW BF : G#3 02 1 P83 ... ... : D#3 02 1 P83 ... ... : ... .. . ... ... ... : ... .. . ... ... ... : ... .. . ... ... ... : B-3 0C 1 ... ... ... : ... .. . ... ... ... : G#5 0D . ... ... ... : ... .. . ... ... ... : ... .. . ... ... ... : ... .. . ... ... ... : ... .. . ... ... ... : ... .. . ... ... ...
ROW C0 : ... .. . P82 ... ... : ... .. . P82 ... ... : ... .. . ... ... ... : ... .. . ... ... ... : ... .. . ... ... ... : ... .. . P81 ... ... : ... .. . P81 ... ... : G#5 0E . ... ... ... : ... .. . ... ... ... : ... .. . ... ... ... : ... .. . ... ... ... : ... .. . ... ... ... : ... .. . ... ... ...
ROW C1 : ... .. . P80 ... ... : ... .. . P80 ... ... : ... .. . ... ... ... : ... .. . ... ... ... : ... .. . ... ... ... : ... .. . P82 ... ... : ... .. . P80 ... ... : ... .. A ... ... ... : ... .. . ... ... ... : ... .. . ... ... ... : ... .. . ... ... ... : ... .. . ... ... ... : ... .. . ... ... ...
ROW C2 : ... .. 2 P7E ... ... : ... .. 2 P7E ... ... : ... .. . ... ... ... : ... .. . ... ... ... : ... .. . ... ... ... : ... .. 2 P81 ... ... : ... .. . ... ... ... : G#5 0F . ... ... ... : ... .. . ... ... ... : ... .. . ... ... ... : ... .. . ... ... ... : ... .. . ... ... ... : ... .. . ... ... ...
ROW C3 : ... .. . P7D ... ... : ... .. . P7D ... ... : ... .. . ... ... ... : ... .. . ... ... ... : ... .. . ... ... ... : ... .. . P80 ... ... : ... .. . ... ... ... : ... .. . ... ... ... : ... .. . ... ... ... : ... .. . ... ... ... : ... .. . ... ... ... : ... .. . ... ... ... : ... .. . ... ... ...
ROW C4 : ... .. 3 P7E ... ... : ... .. 3 P7E ... ... : ... .. . ... ... ... : ... .. . ... ... ... : ... .. . ... ... ... : ... .. 3 P7F ... ... : ... .. . P81 ... ... : ... .. . ... ... ... : ... .. . ... ... ... : ... .. . ... ... ... : ... .. . ... ... ... : ... .. . ... ... ... : ... .. . ... ... ...
ROW C5 : ... .. . P80 ... ... : ... .. . P80 ... ... : ... .. . ... ... ... : ... .. . ... ... ... : ... .. . ... ... ... : ... .. . ... ... ... : ... .. . P80 ... ... : G#5 10 9 ... ... ... : ... .. . ... ... ... : ... .. . ... ... ... : ... .. . ... ... ... : ... .. . ... ... ... : ... .. . ... ... ...
ROW C6 : ... .. . P82 ... ... : ... .. . P82 ... ... : ... .. . ... ... ... : ... .. . ... ... ... : ... .. . ... ... ... : ... .. . ... ... ... : ... .. . ... ... ... : ... .. . ... ... ... : ... .. . ... ... ... : ... .. . ... ... ... : ... .. . ... ... ... : ... .. . ... ... ... : ... .. . ... ... ...
ROW C7 : ... .. 4 P83 ... ... : ... .. 4 P83 ... ... : ... .. . ... ... ... : ... .. . ... ... ... : ... .. . ... ... ... : ... .. 4 P80 ... ... : ... .. . ... ... ... : ... .. . ... ... ... : ... .. . ... ... ... : ... .. . ... ... ... : ... .. . ... ... ... : ... .. . ... ... ... : ... .. . ... ... ...
ROW C8 : ... .. . P82 ... ... : ... .. . P82 ... ... : ... .. . ... ... ... : ... .. . ... ... ... : ... .. . ... ... ... : ... .. . P81 ... ... : ... .. . ... ... ... : ... .. . ... ... ... : ... .. . ... ... ... : ... .. . ... ... ... : ... .. . ... ... ... : ... .. . ... ... ... : ... .. . ... ... ...
ROW C9 : ... .. . P80 ... ... : ... .. . P80 ... ... : ... .. . ... ... ... : ... .. . ... ... ... : ... .. . ... ... ... : ... .. . P82 ... ... : ... .. . P81 ... ... : G#5 11 8 ... ... ... : ... .. . ... ... ... : ... .. . ... ... ... : ... .. . ... ... ... : ... .. . ... ... ... : ... .. . ... ... ...
ROW CA : --- .. . ... ... ... : --- .. . ... ... ... : C#4 00 . P7F ... ... : 9-# 00 F ... ... ... : C#1 12 . ... ... ... : --- .. . ... ... ... : ... .. . P80 ... ... : F#5 0A B ... ... ... : ... .. . ... ... ... : ... .. . ... ... ... : ... .. . ... ... ... : ... .. . ... ... ... : ... .. . ... ... ...
ROW CB : ... .. . ... ... ... : ... .. . ... ... ... : F#3 00 . P83 ... ... : 2-# 00 7 ... ... ... : ... .. . ... ... ... : ... .. . P80 ... ... : ... .. . ... ... ... : F#5 0B . ... ... ... : ... .. . ... ... ... : ... .. . ... ... ... : ... .. . ... ... ... : ... .. . ... ... ... : ... .. . ... ... ...
ROW CC : ... .. . ... ... ... : ... .. . ... ... ... : C#3 00 . P89 ... ... : 6-# 00 C ... ... ... : ... .. . ... ... ... : ... .. . ... ... ... : ... .. . ... ... ... : F#5 0D . ... ... ... : ... .. . ... ... ... : ... .. . ... ... ... : ... .. . ... ... ... : ... .. . ... ... ... : ... .. . ... ... ...
ROW CD : ... .. . ... ... ... : ... .. . ... ... ... : A#2 00 . P75 ... ... : 7-# 00 8 ... ... ... : ... .. . ... ... ... : ... .. . ... ... ... : ... .. . P81 ... ... : F#5 0E . ... ... ... : ... .. . ... ... ... : ... .. . ... ... ... : ... .. . ... ... ... : ... .. . ... ... ... : ... .. . ... ... ...
ROW CE : ... .. . ... ... ... : ... .. . ... ... ... : G-2 00 . P70 ... ... : 8-# 00 7 ... ... ... : ... .. . ... ... ... : ... .. . ... ... ... : ... .. . P80 ... ... : ... .. A ... ... ... : ... .. . ... ... ... : ... .. . ... ... ... : ... .. . ... ... ... : ... .. . ... ... ... : ... .. . ... ... ...
ROW CF : ... .. . ... ... ... : ... .. . ... ... ... : E-2 00 . P7C ... ... : ... .. 6 ... ... ... : ... .. . ... ... ... : ... .. . ... ... ... : ... .. . ... ... ... : F#5 0F . ... ... ... : ... .. . ... ... ... : ... .. . ... ... ... : ... .. . ... ... ... : ... .. . ... ... ... : ... .. . ... ... ...
ROW D0 : ... .. . ... ... ... : ... .. . ... ... ... : D-2 00 . P6F ... ... : ... .. . ... ... ... : ... .. . ... ... ... : ... .. . ... ... ... : ... .. . ... ... ... : ... .. . ... ... ... : ... .. . ... ... ... : ... .. . ... ... ... : ... .. . ... ... ... : ... .. . ... ... ... : ... .. . ... ... ...
ROW D1 : ... .. . ... ... ... : ... .. . ... ... ... : C-2 00 . P6C ... ... : ... .. 5 ... ... ... : ... .. . ... ... ... : ... .. . ... ... ... : ... .. . P81 ... ... : ... .. . ... ... ... : ... .. . ... ... ... : ... .. . ... ... ... : ... .. . ... ... ... : ... .. . ... ... ... : ... .. . ... ... ...
ROW D2 : ... .. . ... ... ... : ... .. . ... ... ... : A#1 00 . P75 ... ... : ... .. . ... ... ... : ... .. . ... ... ... : ... .. . ... ... ... : ... .. . P80 ... ... : F#5 10 9 ... ... ... : ... .. . ... ... ... : ... .. . ... ... ... : ... .. . ... ... ... : ... .. . ... ... ... : ... .. . ... ... ...
ROW D3 : ... .. . ... ... ... : ... .. . ... ... ... : G#1 00 . P8A ... ... : ... .. 4 ... ... ... : ... .. . ... ... ... : ... .. . ... ... ... : ... .. . ... ... ... : ... .. . ... ... ... : ... .. . ... ... ... : ... .. . ... ... ... : ... .. . ... ... ... : ... .. . ... ... ... : ... .. . ... ... ...
ROW D4 : ... .. . ... ... ... : ... .. . ... ... ... : G-1 00 . P6A ... ... : ... .. . ... ... ... : ... .. . ... ... ... : ... .. . ... ... ... : ... .. . ... ... ... : ... .. . ... ... ... : ... .. . ... ... ... : ... .. . ... ... ... : ... .. . ... ... ... : ... .. . ... ... ... : ... .. . ... ... ...
ROW D5 : ... .. . ... ... ... : ... .. . ... ... ... : F-1 00 . P96 ... ... : ... .. 3 ... ... ... : ... .. . ... ... ... : ... .. . ... ... ... : ... .. . P81 ... ... : ... .. . ... ... ... : ... .. . ... ... ... : ... .. . ... ... ... : ... .. . ... ... ... : ... .. . ... ... ... : ... .. . ... ... ...
ROW D6 : ... .. . ... ... ... : ... .. . ... ... ... : F#3 00 . P78 ... ... : 1-# 00 F ... ... ... : C-1 12 . ... ... ... : ... .. . ... ... ... : ... .. . P80 ... ... : G#5 0A B ... ... ... : ... .. . ... ... ... : ... .. . ... ... ... : ... .. . ... ... ... : ... .. . ... ... ... : ... .. . ... ... ...
ROW D7 : ... .. . ... ... ... : ... .. . ... ... ... : C#3 00 . P7E ... ... : 2-# 00 7 ... ... ... : ... .. . ... ... ... : ... .. . ... ... ... : ... .. . ... ... ... : G#5 0B . ... ... ... : ... .. . ... ... ... : ... .. . ... ... ... : ... .. . ... ... ... : ... .. . ... ... ... : ... .. . ... ... ...
ROW D8 : G#3 02 1 P82 ... ... : D#3 02 1 P82 ... ... : A-2 00 . P86 ... ... : 1-# 00 4 ... ... ... : ... .. . ... ... ... : B-3 0C 1 P81 ... ... : ... .. . ... ... ... : G#5 0D . ... ... ... : ... .. . ... ... ... : ... .. . ... ... ... : ... .. . ... ... ... : ... .. . ... ... ... : ... .. . ... ... ...
ROW D9 : ... .. . P80 ... ... : ... .. . P80 ... ... : F#2 00 . P87 ... ... : ... .. 2 ... ... ... : ... .. . ... ... ... : ... .. . P82 ... ... : ... .. . ... ... ... : G#5 0E . ... ... ... : ... .. . ... ... ... : ... .. . ... ... ... : ... .. . ... ... ... : ... .. . ... ... ... : ... .. . ... ... ...
ROW DA : ... .. . P7E ... ... : ... .. . P7E ... ... : E-2 00 . P71 ... ... : ... .. 1 ... ... ... : ... .. . ... ... ... : ... .. . P81 ... ... : ... .. . P81 ... ... : ... .. A ... ... ... : ... .. . ... ... ... : ... .. . ... ... ... : ... .. . ... ... ... : ... .. . ... ... ... : ... .. . ... ... ...
ROW DB : ... .. 2 P7D ... ... : ... .. 2 P7D ... ... : C#2 00 . P91 ... ... : --- .. . ... ... ... : ... .. . ... ... ... : ... .. 2 P80 ... ... : ... .. . P80 ... ... : G#5 0F . ... ... ... : ... .. . ... ... ... : ... .. . ... ... ... : ... .. . ... ... ... : ... .. . ... ... ... : ... .. . ... ... ...
ROW DC : ... .. . P7E ... ... : ... .. . P7E ... ... : --- .. . ... ... ... : ... .. . ... ... ... : ... .. . ... ... ... : ... .. . P7F ... ... : ... .. . ... ... ... : ... .. . ... ... ... : ... .. . ... ... ... : ... .. . ... ... ... : ... .. . ... ... ... : ... .. . ... ... ... : ... .. . ... ... ...
ROW DD : ... .. 3 P80 ... ... : ... .. 3 P80 ... ... : ... .. . ... ... ... : ... .. . ... ... ... : ... .. . ... ... ... : ... .. 3 ... ... ... : ... .. . ... ... ... : ... .. . ... ... ... : ... .. . ... ... ... : ... .. . ... ... ... : ... .. . ... ... ... : ... .. . ... ... ... : ... .. . ... ... ...
ROW DE : ... .. . P82 ... ... : ... .. . P82 ... ... : ... .. . ... ... ... : ... .. . ... ... ... : ... .. . ... ... ... : ... .. . ... ... ... : ... .. . P81 ... ... : G#5 10 9 ... ... ... : ... .. . ... ... ... : ... .. . ... ... ... : ... .. . ... ... ... : ... .. . ... ... ... : ... .. . ... ... ...
ROW DF : ... .. . P83 ... ... : ... .. . P83 ... ... : ... .. . ... ... ... : ... .. . ... ... ... : ... .. . ... ... ... : ... .. . P80 ... ... : ... .. . P80 ... ... : ... .. . ... ... ... : ... .. . ... ... ... : ... .. . ... ... ... : ... .. . ... ... ... : ... .. . ... ... ... : ... .. . ... ... ...
ROW E0 : ... .. 4 P82 ... ... : ... .. 4 P82 ... ... : ... .. . ... ... ... : ... .. . ... ... ... : ... .. . ... ... ... : ... .. 4 P81 ... ... : ... .. . ... ... ... : ... .. . ... ... ... : ... .. . ... ... ... : ... .. . ... ... ... : ... .. . ... ... ... : ... .. . ... ... ... : ... .. . ... ... ...
ROW E1 : ... .. . P80 ... ... : ... .. . P80 ... ... : ... .. . ... ... ... : ... .. . ... ... ... : ... .. . ... ... ... : ... .. . P82 ... ... : ... .. . ... ... ... : ... .. . ... ... ... : ... .. . ... ... ... : ... .. . ... ... ... : ... .. . ... ... ... : ... .. . ... ... ... : ... .. . ... ... ...
ROW E2 : ... .. . P7E ... ... : ... .. . P7E ... ... : ... .. . ... ... ... : ... .. . ... ... ... : ... .. . ... ... ... : ... .. . P81 ... ... : ... .. . P81 ... ... : G#5 11 8 ... ... ... : ... .. . ... ... ... : ... .. . ... ... ... : ... .. . ... ... ... : ... .. . ... ... ... : ... .. . ... ... ...
ROW E3 : --- .. . ... ... ... : --- .. . ... ... ... : F#3 00 . P78 ... ... : 1-# 00 F ... ... ... : C-1 12 . ... ... ... : --- .. . ... ... ... : ... .. . P80 ... ... : B-5 0A B ... ... ... : ... .. . ... ... ... : ... .. . ... ... ... : ... .. . ... ... ... : ... .. . ... ... ... : ... .. . ... ... ...
ROW E4 : ... .. . P80 ... ... : ... .. . P80 ... ... : C#3 00 . P7E ... ... : 2-# 00 7 ... ... ... : ... .. . ... ... ... : ... .. . P80 ... ... : ... .. . ... ... ... : B-5 0B . ... ... ... : ... .. . ... ... ... : ... .. . ... ... ... : ... .. . ... ... ... : ... .. . ... ... ... : ... .. . ... ... ...
ROW E5 : ... .. . ... ... ... : ... .. . ... ... ... : A-2 00 . P86 ... ... : 1-# 00 4 ... ... ... : ... .. . ... ... ... : ... .. . ... ... ... : ... .. . ... ... ... : B-5 0D . ... ... ... : ... .. . ... ... ... : ... .. . ... ... ... : ... .. . ... ... ... : ... .. . ... ... ... : ... .. . ... ... ...
ROW E6 : ... .. . ... ... ... : ... .. . ... ... ... : F#2 00 . P87 ... ... : ... .. 2 ... ... ... : ... .. . ... ... ... : ... .. . ... ... ... : ... .. . P81 ... ... : B-5 0E . ... ... ... : ... .. . ... ... ... : ... .. . ... ... ... : ... .. . ... ... ... : ... .. . ... ... ... : ... .. . ... ... ...
ROW E7 : ... .. . ... ... ... : ... .. . ... ... ... : E-2 00 . P71 ... ... : ... .. 1 ... ... ... : ... .. . ... ... ... : ... .. . ... ... ... : ... .. . P80 ... ... : ... .. A ... ... ... : ... .. . ... ... ... : ... .. . ... ... ... : ... .. . ... ... ... : ... .. . ... ... ... : ... .. . ... ... ...
ROW E8 : ... .. . ... ... ... : ... .. . ... ... ... : C#2 00 . P91 ... ... : --- .. . ... ... ... : ... .. . ... ... ... : ... .. . ... ... ... : ... .. . ... ... ... : B-5 0F . ... ... ... : ... .. . ... ... ... : ... .. . ... ... ... : ... .. . ... ... ... : ... .. . ... ... ... : ... .. . ... ... ...
ROW E9 : ... .. . ... ... ... : ... .. . ... ... ... : --- .. . ... ... ... : ... .. . ... ... ... : ... .. . ... ... ... : ... .. . ... ... ... : ... .. . ... ... ... : ... .. . ... ... ... : ... .. . ... ... ... : ... .. . ... ... ... : ... .. . ... ... ... : ... .. . ... ... ... : ... .. . ... ... ...
ROW EA : ... .. . ... ... ... : ... .. . ... ... ... : ... .. . ... ... ... : ... .. . ... ... ... : ... .. . ... ... ... : ... .. . ... ... ... : ... .. . ... ... ... : ... .. . ... ... ... : ... .. . ... ... ... : ... .. . ... ... ... : ... .. . ... ... ... : ... .. . ... ... ... : ... .. . ... ... ...
ROW EB : ... .. . ... ... ... : ... .. . ... ... ... : ... .. . ... ... ... : ... .. . ... ... ... : ... .. . ... ... ... : ... .. . ... ... ... : ... .. . P81 ... ... : B-5 10 9 ... ... ... : ... .. . ... ... ... : ... .. . ... ... ... : ... .. . ... ... ... : ... .. . ... ... ... : ... .. . ... ... ...
ROW EC : ... .. . ... ... ... : ... .. . ... ... ... : ... .. . ... ... ... : ... .. . ... ... ... : ... .. . ... ... ... : ... .. . ... ... ... : ... .. . P80 ... ... : ... .. . ... ... ... : ... .. . ... ... ... : ... .. . ... ... ... : ... .. . ... ... ... : ... .. . ... ... ... : ... .. . ... ... ...
ROW ED : ... .. . ... ... ... : ... .. . ... ... ... : ... .. . ... ... ... : ... .. . ... ... ... : ... .. . ... ... ... : ... .. . ... ... ... : ... .. . ... ... ... : ... .. . ... ... ... : ... .. . ... ... ... : ... .. . ... ... ... : ... .. . ... ... ... : ... .. . ... ... ... : ... .. . ... ... ...
ROW EE : ... .. . ... ... ... : ... .. . ... ... ... : ... .. . ... ... ... : ... .. . ... ... ... : ... .. . ... ... ... : ... .. . ... ... ... : ... .. . ... ... ... : ... .. . ... ... ... : ... .. . ... ... ... : ... .. . ... ... ... : ... .. . ... ... ... : ... .. . ... ... ... : ... .. . ... ... ...
ROW EF : ... .. . ... ... ... : ... .. . ... ... ... : ... .. . ... ... ... : ... .. . ... ... ... : ... .. . ... ... ... : ... .. . ... ... ... : ... .. . P81 ... ... : B-5 11 8 ... ... ... : ... .. . ... ... ... : ... .. . ... ... ... : ... .. . ... ... ... : ... .. . ... ... ... : ... .. . ... ... ...
ROW F0 : ... .. . ... ... ... : ... .. . ... ... ... : ... .. . ... ... ... : ... .. . ... ... ... : ... .. . ... ... ... : ... .. . ... ... ... : ... .. . P80 ... ... : ... .. . ... ... ... : ... .. . ... ... ... : ... .. . ... ... ... : ... .. . ... ... ... : ... .. . ... ... ... : ... .. . ... ... ...
ROW F1 : G#3 02 1 ... ... ... : D#3 02 1 ... ... ... : ... .. . ... ... ... : ... .. . ... ... ... : ... .. . ... ... ... : B-3 0C 1 P82 ... ... : ... .. . ... ... ... : ... .. . ... ... ... : ... .. . ... ... ... : ... .. . ... ... ... : ... .. . ... ... ... : ... .. . ... ... ... : ... .. . ... ... ...
ROW F2 : ... .. . P7E ... ... : ... .. . P7E ... ... : ... .. . ... ... ... : ... .. . ... ... ... : ... .. . ... ... ... : ... .. . P81 ... ... : ... .. . ... ... ... : ... .. . ... ... ... : ... .. . ... ... ... : ... .. . ... ... ... : ... .. . ... ... ... : ... .. . ... ... ... : ... .. . ... ... ...
ROW F3 : ... .. . P7D ... ... : ... .. . P7D ... ... : ... .. . ... ... ... : ... .. . ... ... ... : ... .. . ... ... ... : ... .. . P80 ... ... : ... .. . P81 ... ... : ... .. 7 ... ... ... : ... .. . ... ... ... : ... .. . ... ... ... : ... .. . ... ... ... : ... .. . ... ... ... : ... .. . ... ... ...
ROW F4 : ... .. 2 P7E ... ... : ... .. 2 P7E ... ... : ... .. . ... ... ... : ... .. . ... ... ... : ... .. . ... ... ... : ... .. 2 P7F ... ... : ... .. . P80 ... ... : ... .. . ... ... ... : ... .. . ... ... ... : ... .. . ... ... ... : ... .. . ... ... ... : ... .. . ... ... ... : ... .. . ... ... ...
ROW F5 : ... .. . P80 ... ... : ... .. . P80 ... ... : ... .. . ... ... ... : ... .. . ... ... ... : ... .. . ... ... ... : ... .. . ... ... ... : ... .. . ... ... ... : ... .. . ... ... ... : ... .. . ... ... ... : ... .. . ... ... ... : ... .. . ... ... ... : ... .. . ... ... ... : ... .. . ... ... ...
ROW F6 : ... .. 3 P82 ... ... : ... .. 3 P82 ... ... : ... .. . ... ... ... : ... .. . ... ... ... : ... .. . ... ... ... : ... .. 3 ... ... ... : ... .. . ... ... ... : ... .. . ... ... ... : ... .. . ... ... ... : ... .. . ... ... ... : ... .. . ... ... ... : ... .. . ... ... ... : ... .. . ... ... ...
ROW F7 : ... .. . P83 ... ... : ... .. . P83 ... ... : ... .. . ... ... ... : ... .. . ... ... ... : ... .. . ... ... ... : ... .. . P80 ... ... : ... .. . P81 ... ... : ... .. 6 ... ... ... : ... .. . ... ... ... : ... .. . ... ... ... : ... .. . ... ... ... : ... .. . ... ... ... : ... .. . ... ... ...
ROW F8 : ... .. . P82 ... ... : ... .. . P82 ... ... : ... .. . ... ... ... : ... .. . ... ... ... : ... .. . ... ... ... : ... .. . P81 ... ... : ... .. . ... ... ... : ... .. . ... ... ... : ... .. . ... ... ... : ... .. . ... ... ... : ... .. . ... ... ... : ... .. . ... ... ... : ... .. . ... ... ...
ROW F9 : ... .. 4 P80 ... ... : ... .. 4 P80 ... ... : ... .. . ... ... ... : ... .. . ... ... ... : ... .. . ... ... ... : ... .. 4 P82 ... ... : ... .. . P80 ... ... : ... .. . ... ... ... : ... .. . ... ... ... : ... .. . ... ... ... : ... .. . ... ... ... : ... .. . ... ... ... : ... .. . ... ... ...
ROW FA : ... .. . P7E ... ... : ... .. . P7E ... ... : ... .. . ... ... ... : ... .. . ... ... ... : ... .. . ... ... ... : ... .. . P81 ... ... : ... .. . ... ... ... : ... .. . ... ... ... : ... .. . ... ... ... : ... .. . ... ... ... : ... .. . ... ... ... : ... .. . ... ... ... : ... .. . ... ... ...
ROW FB : ... .. . P7D ... ... : ... .. . P7D ... ... : ... .. . ... ... ... : ... .. . ... ... ... : ... .. . ... ... ... : ... .. . P80 ... ... : ... .. . ... ... ... : ... .. 5 ... ... ... : ... .. . ... ... ... : ... .. . ... ... ... : ... .. . ... ... ... : ... .. . ... ... ... : ... .. . ... ... ...
ROW FC : --- .. . ... ... ... : --- .. . ... ... ... : C#4 00 . P7F ... ... : 9-# 00 F ... ... ... : C#1 12 . ... ... ... : --- .. . ... ... ... : ... .. . P81 ... ... : C#6 0A B ... ... ... : G#5 0A 8 ... ... ... : ... .. . ... ... ... : ... .. . ... ... ... : ... .. . ... ... ... : ... .. . ... ... ...
ROW FD : ... .. . P80 ... ... : ... .. . P80 ... ... : F#3 00 . P83 ... ... : 2-# 00 7 ... ... ... : ... .. . ... ... ... : ... .. . ... ... ... : ... .. . P80 ... ... : C#6 0B . ... ... ... : G#5 0B . ... ... ... : ... .. . ... ... ... : ... .. . ... ... ... : ... .. . ... ... ... : ... .. . ... ... ...
ROW FE : ... .. . ... ... ... : ... .. . ... ... ... : C#3 00 . P89 ... ... : 6-# 00 C ... ... ... : ... .. . ... ... ... : ... .. . ... ... ... : ... .. . ... ... ... : C#6 0D . ... ... ... : G#5 0D . ... ... ... : ... .. . ... ... ... : ... .. . ... ... ... : ... .. . ... ... ... : ... .. . ... ... ...
ROW FF : ... .. . ... ... ... : ... .. . ... ... ... : A#2 00 . P75 ... ... : 7-# 00 8 ... ... ... : ... .. . ... ... ... : ... .. . ... ... ... : ... .. . ... ... ... : C#6 0E . ... ... ... : G#5 0E . ... ... ... : ... .. . ... ... ... : ... .. . ... ... ... : ... .. . ... ... ... : ... .. . ... ... ...

PATTERN 05
ROW 00 : ... .. . ... ... ... : ... .. . ... ... ... : G-2 00 . P70 ... ... : 8-# 00 7 ... ... ... : ... .. . ... ... ... : ... .. . ... ... ... : ... .. . P81 ... ... : ... .. A ... ... ... : ... .. 7 ... ... ... : ... .. . ... ... ... : ... .. . ... ... ... : ... .. . ... ... ... : ... .. . ... ... ...
ROW 01 : ... .. . ... ... ... : ... .. . ... ... ... : E-2 00 . P7C ... ... : ... .. 6 ... ... ... : ... .. . ... ... ... : ... .. . ... ... ... : ... .. . P80 ... ... : C#6 0F . ... ... ... : G#5 0F . ... ... ... : ... .. . ... ... ... : ... .. . ... ... ... : ... .. . ... ... ... : ... .. . ... ... ...
ROW 02 : ... .. . ... ... ... : ... .. . ... ... ... : D-2 00 . P6F ... ... : ... .. . ... ... ... : ... .. . ... ... ... : ... .. . ... ... ... : ... .. . ... ... ... : ... .. . ... ... ... : ... .. . ... ... ... : ... .. . ... ... ... : ... .. . ... ... ... : ... .. . ... ... ... : ... .. . ... ... ...
ROW 03 : ... .. . ... ... ... : ... .. . ... ... ... : C-2 00 . P6C ... ... : ... .. 5 ... ... ... : ... .. . ... ... ... : ... .. . ... ... ... : ... .. . ... ... ... : ... .. . ... ... ... : ... .. . ... ... ... : ... .. . ... ... ... : ... .. . ... ... ... : ... .. . ... ... ... : ... .. . ... ... ...
ROW 04 : ... .. . ... ... ... : ... .. . ... ... ... : A#1 00 . P75 ... ... : ... .. . ... ... ... : ... .. . ... ... ... : ... .. . ... ... ... : ... .. . P81 ... ... : C#6 10 9 ... ... ... : G#5 10 6 ... ... ... : ... .. . ... ... ... : ... .. . ... ... ... : ... .. . ... ... ... : ... .. . ... ... ...
ROW 05 : ... .. . ... ... ... : ... .. . ... ... ... : G#1 00 . P8A ... ... : ... .. 4 ... ... ... : ... .. . ... ... ... : ... .. . ... ... ... : ... .. . P80 ... ... : ... .. . ... ... ... : ... .. . ... ... ... : ... .. . ... ... ... : ... .. . ... ... ... : ... .. . ... ... ... : ... .. . ... ... ...
ROW 06 : ... .. . ... ... ... : ... .. . ... ... ... : G-1 00 . P6A ... ... : ... .. . ... ... ... : ... .. . ... ... ... : ... .. . ... ... ... : ... .. . ... ... ... : ... .. . ... ... ... : ... .. . ... ... ... : ... .. . ... ... ... : ... .. . ... ... ... : ... .. . ... ... ... : ... .. . ... ... ...
ROW 07 : ... .. . ... ... ... : ... .. . ... ... ... : F-1 00 . P96 ... ... : ... .. 3 ... ... ... : ... .. . ... ... ... : ... .. . ... ... ... : ... .. . ... ... ... : ... .. . ... ... ... : ... .. . ... ... ... : ... .. . ... ... ... : ... .. . ... ... ... : ... .. . ... ... ... : ... .. . ... ... ...
ROW 08 : ... .. . ... ... ... : ... .. . ... ... ... : --- .. . ... ... ... : ... .. . ... ... ... : ... .. . ... ... ... : ... .. . ... ... ... : ... .. . ... ... ... : C#6 11 8 ... ... ... : G#5 11 5 ... ... ... : ... .. . ... ... ... : ... .. . ... ... ... : ... .. . ... ... ... : ... .. . ... ... ...
ROW 09 : ... .. . ... ... ... : ... .. . ... ... ... : ... .. . ... ... ... : ... .. . ... ... ... : ... .. . ... ... ... : ... .. . ... ... ... : ... .. . P81 ... ... : ... .. . ... ... ... : ... .. . ... ... ... : ... .. . ... ... ... : ... .. . ... ... ... : ... .. . ... ... ... : ... .. . ... ... ...
ROW 0A : G#3 02 1 P7E ... ... : D#3 02 1 P7E ... ... : ... .. . ... ... ... : ... .. . ... ... ... : ... .. . ... ... ... : B-3 0C 1 P81 ... ... : ... .. . P80 ... ... : ... .. . ... ... ... : ... .. . ... ... ... : ... .. . ... ... ... : ... .. . ... ... ... : ... .. . ... ... ... : ... .. . ... ... ...
ROW 0B : ... .. . P7D ... ... : ... .. . P7D ... ... : ... .. . ... ... ... : ... .. 2 ... ... ... : ... .. . ... ... ... : ... .. . P80 ... ... : ... .. . ... ... ... : ... .. . ... ... ... : ... .. . ... ... ... : ... .. . ... ... ... : ... .. . ... ... ... : ... .. . ... ... ... : ... .. . ... ... ...
ROW 0C : ... .. . P7E ... ... : ... .. . P7E ... ... : ... .. . ... ... ... : ... .. . ... ... ... : ... .. . ... ... ... : ... .. . P7F ... ... : ... .. . ... ... ... : ... .. 7 ... ... ... : ... .. 4 ... ... ... : ... .. . ... ... ... : ... .. . ... ... ... : ... .. . ... ... ... : ... .. . ... ... ...
ROW 0D : ... .. 2 P80 ... ... : ... .. 2 P80 ... ... : ... .. . ... ... ... : ... .. . ... ... ... : ... .. . ... ... ... : ... .. 2 ... ... ... : ... .. . P81 ... ... : ... .. . ... ... ... : ... .. . ... ... ... : ... .. . ... ... ... : ... .. . ... ... ... : ... .. . ... ... ... : ... .. . ... ... ...
ROW 0E : ... .. . P82 ... ... : ... .. . P82 ... ... : ... .. . ... ... ... : ... .. . ... ... ... : ... .. . ... ... ... : ... .. . ... ... ... : ... .. . P80 ... ... : ... .. . ... ... ... : ... .. . ... ... ... : ... .. . ... ... ... : ... .. . ... ... ... : ... .. . ... ... ... : ... .. . ... ... ...
ROW 0F : ... .. 3 P83 ... ... : ... .. 3 P83 ... ... : ... .. . ... ... ... : ... .. 1 ... ... ... : ... .. . ... ... ... : ... .. 3 P80 ... ... : ... .. . ... ... ... : ... .. . ... ... ... : ... .. . ... ... ... : ... .. . ... ... ... : ... .. . ... ... ... : ... .. . ... ... ... : ... .. . ... ... ...
ROW 10 : ... .. . P82 ... ... : ... .. . P82 ... ... : ... .. . ... ... ... : ... .. . ... ... ... : ... .. . ... ... ... : ... .. . P81 ... ... : ... .. . ... ... ... : ... .. 6 ... ... ... : ... .. 3 ... ... ... : ... .. . ... ... ... : ... .. . ... ... ... : ... .. . ... ... ... : ... .. . ... ... ...
ROW 11 : ... .. . P80 ... ... : ... .. . P80 ... ... : ... .. . ... ... ... : ... .. . ... ... ... : ... .. . ... ... ... : ... .. . P82 ... ... : ... .. . P81 ... ... : ... .. . ... ... ... : ... .. . ... ... ... : ... .. . ... ... ... : ... .. . ... ... ... : ... .. . ... ... ... : ... .. . ... ... ...
ROW 12 : ... .. 4 P7E ... ... : ... .. 4 P7E ... ... : ... .. . ... ... ... : ... .. . ... ... ... : ... .. . ... ... ... : ... .. 4 P81 ... ... : ... .. . P80 ... ... : ... .. . ... ... ... : ... .. . ... ... ... : ... .. . ... ... ... : ... .. . ... ... ... : ... .. . ... ... ... : ... .. . ... ... ...
ROW 13 : ... .. . P7D ... ... : ... .. . P7D ... ... : ... .. . ... ... ... : ... .. . ... ... ... : ... .. . ... ... ... : ... .. . P80 ... ... : ... .. . ... ... ... : ... .. . ... ... ... : ... .. . ... ... ... : ... .. . ... ... ... : ... .. . ... ... ... : ... .. . ... ... ... : ... .. . ... ... ...
ROW 14 : ... .. . P7E ... ... : ... .. . P7E ... ... : ... .. . ... ... ... : --- .. . ... ... ... : ... .. . ... ... ... : ... .. . P7F ... ... : ... .. . ... ... ... : ... .. 5 ... ... ... : ... .. 2 ... ... ... : ... .. . ... ... ... : ... .. . ... ... ... : ... .. . ... ... ... : ... .. . ... ... ...
ROW 15 : --- .. . ... ... ... : --- .. . ... ... ... : F#3 00 . P78 ... ... : 1-# 00 F ... ... ... : C-1 12 . ... ... ... : --- .. . ... ... ... : E-2 03 . P81 ... ... : B-5 0A B ... ... ... : G#5 0A 8 ... ... ... : ... .. . ... ... ... : ... .. . ... ... ... : ... .. . ... ... ... : ... .. . ... ... ...
ROW 16 : ... .. . P80 ... ... : ... .. . P80 ... ... : C#3 00 . P7E ... ... : 2-# 00 7 ... ... ... : ... .. . ... ... ... : ... .. . P80 ... ... : ... .. . ... ... ... : B-5 0B . ... ... ... : G#5 0B . ... ... ... : ... .. . ... ... ... : ... .. . ... ... ... : ... .. . ... ... ... : ... .. . ... ... ...
ROW 17 : ... .. . ... ... ... : ... .. . ... ... ... : A-2 00 . P86 ... ... : 1-# 00 4 ... ... ... : ... .. . ... ... ... : ... .. . ... ... ... : ... .. . P80 ... ... : B-5 0D . ... ... ... : G#5 0D . ... ... ... : ... .. . ... ... ... : ... .. . ... ... ... : ... .. . ... ... ... : ... .. . ... ... ...
ROW 18 : ... .. . ... ... ... : ... .. . ... ... ... : F#2 00 . P87 ... ... : ... .. 2 ... ... ... : ... .. . ... ... ... : ... .. . ... ... ... : ... .. . ... ... ... : B-5 0E . ... ... ... : G#5 0E . ... ... ... : ... .. . ... ... ... : ... .. . ... ... ... : ... .. . ... ... ... : ... .. . ... ... ...
ROW 19 : ... .. . ... ... ... : ... .. . ... ... ... : E-2 00 . P71 ... ... : ... .. 1 ... ... ... : ... .. . ... ... ... : ... .. . ... ... ... : ... .. . P81 ... ... : ... .. A ... ... ... : ... .. 7 ... ... ... : ... .. . ... ... ... : ... .. . ... ... ... : ... .. . ... ... ... : ... .. . ... ... ...
ROW 1A : ... .. . ... ... ... : ... .. . ... ... ... : C#2 00 . P91 ... ... : --- .. . ... ... ... : ... .. . ... ... ... : ... .. . ... ... ... : ... .. . ... ... ... : B-5 0F . ... ... ... : G#5 0F . ... ... ... : ... .. . ... ... ... : ... .. . ... ... ... : ... .. . ... ... ... : ... .. . ... ... ...
ROW 1B : ... .. . ... ... ... : ... .. . ... ... ... : --- .. . ... ... ... : ... .. . ... ... ... : ... .. . ... ... ... : ... .. . ... ... ... : ... .. . P80 ... ... : ... .. . ... ... ... : ... .. . ... ... ... : ... .. . ... ... ... : ... .. . ... ... ... : ... .. . ... ... ... : ... .. . ... ... ...
ROW 1C : ... .. . ... ... ... : ... .. . ... ... ... : ... .. . ... ... ... : ... .. . ... ... ... : ... .. . ... ... ... : ... .. . ... ... ... : ... .. . P7F ... ... : ... .. . ... ... ... : ... .. . ... ... ... : ... .. . ... ... ... : ... .. . ... ... ... : ... .. . ... ... ... : ... .. . ... ... ...
ROW 1D : ... .. . ... ... ... : ... .. . ... ... ... : ... .. . ... ... ... : ... .. . ... ... ... : ... .. . ... ... ... : ... .. . ... ... ... : ... .. . P80 ... ... : B-5 10 9 ... ... ... : G#5 10 6 ... ... ... : ... .. . ... ... ... : ... .. . ... ... ... : ... .. . ... ... ... : ... .. . ... ... ...
ROW 1E : ... .. . ... ... ... : ... .. . ... ... ... : ... .. . ... ... ... : ... .. . ... ... ... : ... .. . ... ... ... : ... .. . ... ... ... : ... .. . P81 ... ... : ... .. . ... ... ... : ... .. . ... ... ... : ... .. . ... ... ... : ... .. . ... ... ... : ... .. . ... ... ... : ... .. . ... ... ...
ROW 1F : ... .. . ... ... ... : ... .. . ... ... ... : ... .. . ... ... ... : ... .. . ... ... ... : ... .. . ... ... ... : ... .. . ... ... ... : ... .. . P80 ... ... : ... .. . ... ... ... : ... .. . ... ... ... : ... .. . ... ... ... : ... .. . ... ... ... : ... .. . ... ... ... : ... .. . ... ... ...
ROW 20 : ... .. . ... ... ... : ... .. . ... ... ... : ... .. . ... ... ... : ... .. . ... ... ... : ... .. . ... ... ... : ... .. . ... ... ... : ... .. . P7F ... ... : ... .. . ... ... ... : ... .. . ... ... ... : ... .. . ... ... ... : ... .. . ... ... ... : ... .. . ... ... ... : ... .. . ... ... ...
ROW 21 : ... .. . ... ... ... : ... .. . ... ... ... : ... .. . ... ... ... : ... .. . ... ... ... : ... .. . ... ... ... : ... .. . ... ... ... : ... .. . P80 ... ... : G#5 0A B ... ... ... : E-5 0A 8 ... ... ... : ... .. . ... ... ... : ... .. . ... ... ... : ... .. . ... ... ... : ... .. . ... ... ...
ROW 22 : ... .. . ... ... ... : ... .. . ... ... ... : ... .. . ... ... ... : ... .. . ... ... ... : ... .. . ... ... ... : ... .. . ... ... ... : ... .. . P81 ... ... : G#5 0B . ... ... ... : E-5 0B . ... ... ... : ... .. . ... ... ... : ... .. . ... ... ... : ... .. . ... ... ... : ... .. . ... ... ...
ROW 23 : E-3 02 1 P7D ... ... : B-2 02 1 P7D ... ... : ... .. . ... ... ... : ... .. . ... ... ... : ... .. . ... ... ... : G#3 0C 1 ... ... ... : ... .. . P80 ... ... : G#5 0D . ... ... ... : E-5 0D . ... ... ... : ... .. . ... ... ... : ... .. . ... ... ... : ... .. . ... ... ... : ... .. . ... ... ...
ROW 24 : ... .. . P7E ... ... : ... .. . P7E ... ... : ... .. . ... ... ... : ... .. . ... ... ... : ... .. . ... ... ... : ... .. . P7F ... ... : ... .. . P7F ... ... : G#5 0E . ... ... ... : E-5 0E . ... ... ... : ... .. . ... ... ... : ... .. . ... ... ... : ... .. . ... ... ... : ... .. . ... ... ...
ROW 25 : ... .. . P80 ... ... : ... .. . P80 ... ... : ... .. . ... ... ... : ... .. . ... ... ... : ... .. . ... ... ... : ... .. . ... ... ... : ... .. . P80 ... ... : ... .. A ... ... ... : ... .. 7 ... ... ... : ... .. . ... ... ... : ... .. . ... ... ... : ... .. . ... ... ... : ... .. . ... ... ...
ROW 26 : ... .. 2 P82 ... ... : ... .. 2 P82 ... ... : ... .. . ... ... ... : ... .. . ... ... ... : ... .. . ... ... ... : ... .. 2 ... ... ... : ... .. . P81 ... ... : G#5 0F . ... ... ... : E-5 0F . ... ... ... : ... .. . ... ... ... : ... .. . ... ... ... : ... .. . ... ... ... : ... .. . ... ... ...
ROW 27 : ... .. . P83 ... ... : ... .. . P83 ... ... : ... .. . ... ... ... : ... .. . ... ... ... : ... .. . ... ... ... : ... .. . P80 ... ... : ... .. . ... ... ... : ... .. . ... ... ... : ... .. . ... ... ... : ... .. . ... ... ... : ... .. . ... ... ... : ... .. . ... ... ... : ... .. . ... ... ...
ROW 28 : ... .. 3 P82 ... ... : ... .. 3 P82 ... ... : ... .. . ... ... ... : ... .. . ... ... ... : ... .. . ... ... ... : ... .. 3 P81 ... ... : ... .. . P80 ... ... : ... .. . ... ... ... : ... .. . ... ... ... : ... .. . ... ... ... : ... .. . ... ... ... : ... .. . ... ... ... : ... .. . ... ... ...
ROW 29 : ... .. . P80 ... ... : ... .. . P80 ... ... : ... .. . ... ... ... : ... .. . ... ... ... : ... .. . ... ... ... : ... .. . P82 ... ... : ... .. . ... ... ... : G#5 10 9 ... ... ... : E-5 10 6 ... ... ... : ... .. . ... ... ... : ... .. . ... ... ... : ... .. . ... ... ... : ... .. . ... ... ...
ROW 2A : ... .. . P7E ... ... : ... .. . P7E ... ... : ... .. . ... ... ... : ... .. . ... ... ... : ... .. . ... ... ... : ... .. . P81 ... ... : ... .. . P81 ... ... : ... .. . ... ... ... : ... .. . ... ... ... : ... .. . ... ... ... : ... .. . ... ... ... : ... .. . ... ... ... : ... .. . ... ... ...
ROW 2B : ... .. 4 P7D ... ... : ... .. 4 P7D ... ... : ... .. . ... ... ... : ... .. . ... ... ... : ... .. . ... ... ... : ... .. 4 P80 ... ... : ... .. . ... ... ... : ... .. . ... ... ... : ... .. . ... ... ... : ... .. . ... ... ... : ... .. . ... ... ... : ... .. . ... ... ... : ... .. . ... ... ...
ROW 2C : ... .. . P7E ... ... : ... .. . P7E ... ... : ... .. . ... ... ... : ... .. . ... ... ... : ... .. . ... ... ... : ... .. . P7F ... ... : ... .. . P80 ... ... : ... .. . ... ... ... : ... .. . ... ... ... : ... .. . ... ... ... : ... .. . ... ... ... : ... .. . ... ... ... : ... .. . ... ... ...
ROW 2D : ... .. . P80 ... ... : ... .. . P80 ... ... : ... .. . ... ... ... : ... .. . ... ... ... : ... .. . ... ... ... : ... .. . ... ... ... : ... .. . P7F ... ... : G#5 11 8 ... ... ... : E-5 11 5 ... ... ... : ... .. . ... ... ... : ... .. . ... ... ... : ... .. . ... ... ... : ... .. . ... ... ...
ROW 2E : --- .. . ... ... ... : --- .. . ... ... ... : C#4 00 . P7F ... ... : 9-# 00 F ... ... ... : C#1 12 . ... ... ... : --- .. . ... ... ... : ... .. . P80 ... ... : F#5 0A B ... ... ... : E-5 0A 8 ... ... ... : ... .. . ... ... ... : ... .. . ... ... ... : ... .. . ... ... ... : ... .. . ... ... ...
ROW 2F : ... .. . ... ... ... : ... .. . ... ... ... : F#3 00 . P83 ... ... : 2-# 00 7 ... ... ... : ... .. . ... ... ... : ... .. . P80 ... ... : ... .. . P81 ... ... : F#5 0B . ... ... ... : E-5 0B . ... ... ... : ... .. . ... ... ... : ... .. . ... ... ... : ... .. . ... ... ... : ... .. . ... ... ...
ROW 30 : ... .. . ... ... ... : ... .. . ... ... ... : C#3 00 . P89 ... ... : 6-# 00 C ... ... ... : ... .. . ... ... ... : ... .. . ... ... ... : ... .. . P80 ... ... : F#5 0D . ... ... ... : E-5 0D . ... ... ... : ... .. . ... ... ... : ... .. . ... ... ... : ... .. . ... ... ... : ... .. . ... ... ...
ROW 31 : ... .. . ... ... ... : ... .. . ... ... ... : A#2 00 . P75 ... ... : 7-# 00 8 ... ... ... : ... .. . ... ... ... : ... .. . ... ... ... : ... .. . P7F ... ... : F#5 0E . ... ... ... : E-5 0E . ... ... ... : ... .. . ... ... ... : ... .. . ... ... ... : ... .. . ... ... ... : ... .. . ... ... ...
ROW 32 : ... .. . ... ... ... : ... .. . ... ... ... : G-2 00 . P70 ... ... : 8-# 00 7 ... ... ... : ... .. . ... ... ... : ... .. . ... ... ... : ... .. . P80 ... ... : ... .. A ... ... ... : ... .. 7 ... ... ... : ... .. . ... ... ... : ... .. . ... ... ... : ... .. . ... ... ... : ... .. . ... ... ...
ROW 33 : ... .. . ... ... ... : ... .. . ... ... ... : E-2 00 . P7C ... ... : ... .. 6 ... ... ... : ... .. . ... ... ... : ... .. . ... ... ... : ... .. . P81 ... ... : F#5 0F . ... ... ... : E-5 0F . ... ... ... : ... .. . ... ... ... : ... .. . ... ... ... : ... .. . ... ... ... : ... .. . ... ... ...
ROW 34 : ... .. . ... ... ... : ... .. . ... ... ... : D-2 00 . P6F ... ... : ... .. . ... ... ... : ... .. . ... ... ... : ... .. . ... ... ... : ... .. . P80 ... ... : ... .. . ... ... ... : ... .. . ... ... ... : ... .. . ... ... ... : ... .. . ... ... ... : ... .. . ... ... ... : ... .. . ... ... ...
ROW 35 : ... .. . ... ... ... : ... .. . ... ... ... : C-2 00 . P6C ... ... : ... .. 5 ... ... ... : ... .. . ... ... ... : ... .. . ... ... ... : ... .. . P7F ... ... : ... .. . ... ... ... : ... .. . ... ... ... : ... .. . ... ... ... : ... .. . ... ... ... : ... .. . ... ... ... : ... .. . ... ... ...
ROW 36 : ... .. . ... ... ... : ... .. . ... ... ... : A#1 00 . P75 ... ... : ... .. . ... ... ... : ... .. . ... ... ... : ... .. . ... ... ... : ... .. . P80 ... ... : F#5 10 9 ... ... ... : E-5 10 6 ... ... ... : ... .. . ... ... ... : ... .. . ... ... ... : ... .. . ... ... ... : ... .. . ... ... ...
ROW 37 : ... .. . ... ... ... : ... .. . ... ... ... : G#1 00 . P8A ... ... : ... .. 4 ... ... ... : ... .. . ... ... ... : ... .. . ... ... ... : ... .. . P81 ... ... : ... .. . ... ... ... : ... .. . ... ... ... : ... .. . ... ... ... : ... .. . ... ... ... : ... .. . ... ... ... : ... .. . ... ... ...
ROW 38 : ... .. . ... ... ... : ... .. . ... ... ... : G-1 00 . P6A ... ... : ... .. . ... ... ... : ... .. . ... ... ... : ... .. . ... ... ... : ... .. . ... ... ... : ... .. . ... ... ... : ... .. . ... ... ... : ... .. . ... ... ... : ... .. . ... ... ... : ... .. . ... ... ... : ... .. . ... ... ...
ROW 39 : ... .. . ... ... ... : ... .. . ... ... ... : F-1 00 . P96 ... ... : ... .. 3 ... ... ... : ... .. . ... ... ... : ... .. . ... ... ... : ... .. . P80 ... ... : ... .. . ... ... ... : ... .. . ... ... ... : ... .. . ... ... ... : ... .. . ... ... ... : ... .. . ... ... ... : ... .. . ... ... ...
ROW 3A : ... .. . ... ... ... : ... .. . ... ... ... : F#3 00 . P78 ... ... : 1-# 00 F ... ... ... : C-1 12 . ... ... ... : ... .. . ... ... ... : ... .. . P7F ... ... : G#5 0A B ... ... ... : E-5 0A 8 ... ... ... : ... .. . ... ... ... : ... .. . ... ... ... : ... .. . ... ... ... : ... .. . ... ... ...
ROW 3B : ... .. . ... ... ... : ... .. . ... ... ... : C#3 00 . P7E ... ... : 2-# 00 7 ... ... ... : ... .. . ... ... ... : ... .. . ... ... ... : ... .. . P80 ... ... : G#5 0B . ... ... ... : E-5 0B . ... ... ... : ... .. . ... ... ... : ... .. . ... ... ... : ... .. . ... ... ... : ... .. . ... ... ...
ROW 3C : E-3 02 1 P7E ... ... : B-2 02 1 P7E ... ... : A-2 00 . P86 ... ... : 1-# 00 4 ... ... ... : ... .. . ... ... ... : G#3 0C 1 P7F ... ... : ... .. . P81 ... ... : G#5 0D . ... ... ... : E-5 0D . ... ... ... : ... .. . ... ... ... : ... .. . ... ... ... : ... .. . ... ... ... : ... .. . ... ... ...
ROW 3D : ... .. . P80 ... ... : ... .. . P80 ... ... : F#2 00 . P87 ... ... : ... .. 2 ... ... ... : ... .. . ... ... ... : ... .. . ... ... ... : ... .. . P80 ... ... : G#5 0E . ... ... ... : E-5 0E . ... ... ... : ... .. . ... ... ... : ... .. . ... ... ... : ... .. . ... ... ... : ... .. . ... ... ...
ROW 3E : ... .. . P82 ... ... : ... .. . P82 ... ... : E-2 00 . P71 ... ... : ... .. 1 ... ... ... : ... .. . ... ... ... : ... .. . ... ... ... : ... .. . P7F ... ... : ... .. A ... ... ... : ... .. 7 ... ... ... : ... .. . ... ... ... : ... .. . ... ... ... : ... .. . ... ... ... : ... .. . ... ... ...
ROW 3F : ... .. 2 P83 ... ... : ... .. 2 P83 ... ... : C#2 00 . P91 ... ... : --- .. . ... ... ... : ... .. . ... ... ... : ... .. 2 P80 ... ... : ... .. . P80 ... ... : G#5 0F . ... ... ... : E-5 0F . ... ... ... : ... .. . ... ... ... : ... .. . ... ... ... : ... .. . ... ... ... : ... .. . ... ... ...
ROW 40 : ... .. . P82 ... ... : ... .. . P82 ... ... : --- .. . ... ... ... : ... .. . ... ... ... : ... .. . ... ... ... : ... .. . P81 ... ... : ... .. . P81 ... ... : ... .. . ... ... ... : ... .. . ... ... ... : ... .. . ... ... ... : ... .. . ... ... ... : ... .. . ... ... ... : ... .. . ... ... ...
ROW 41 : ... .. 3 P80 ... ... : ... .. 3 P80 ... ... : ... .. . ... ... ... : ... .. . ... ... ... : ... .. . ... ... ... : ... .. 3 P82 ... ... : ... .. . P80 ... ... : ... .. . ... ... ... : ... .. . ... ... ... : ... .. . ... ... ... : ... .. . ... ... ... : ... .. . ... ... ... : ... .. . ... ... ...
ROW 42 : ... .. . P7E ... ... : ... .. . P7E ... ... : ... .. . ... ... ... : ... .. . ... ... ... : ... .. . ... ... ... : ... .. . P81 ... ... : ... .. . P7F ... ... : G#5 10 9 ... ... ... : E-5 10 6 ... ... ... : ... .. . ... ... ... : ... .. . ... ... ... : ... .. . ... ... ... : ... .. . ... ... ...
ROW 43 : ... .. . P7D ... ... : ... .. . P7D ... ... : ... .. . ... ... ... : ... .. . ... ... ... : ... .. . ... ... ... : ... .. . P80 ... ... : ... .. . P80 ... ... : ... .. . ... ... ... : ... .. . ... ... ... : ... .. . ... ... ... : ... .. . ... ... ... : ... .. . ... ... ... : ... .. . ... ... ...
ROW 44 : ... .. 4 P7E ... ... : ... .. 4 P7E ... ... : ... .. . ... ... ... : ... .. . ... ... ... : ... .. . ... ... ... : ... .. 4 P7F ... ... : ... .. . P81 ... ... : ... .. . ... ... ... : ... .. . ... ... ... : ... .. . ... ... ... : ... .. . ... ... ... : ... .. . ... ... ... : ... .. . ... ... ...
ROW 45 : ... .. . P80 ... ... : ... .. . P80 ... ... : ... .. . ... ... ... : ... .. . ... ... ... : ... .. . ... ... ... : ... .. . ... ... ... : ... .. . ... ... ... : ... .. . ... ... ... : ... .. . ... ... ... : ... .. . ... ... ... : ... .. . ... ... ... : ... .. . ... ... ... : ... .. . ... ... ...
ROW 46 : ... .. . P82 ... ... : ... .. . P82 ... ... : ... .. . ... ... ... : ... .. . ... ... ... : ... .. . ... ... ... : ... .. . ... ... ... : ... .. . P80 ... ... : G#5 11 8 ... ... ... : E-5 11 5 ... ... ... : ... .. . ... ... ... : ... .. . ... ... ... : ... .. . ... ... ... : ... .. . ... ... ...
ROW 47 : --- .. . ... ... ... : --- .. . ... ... ... : F#3 00 . P78 ... ... : 1-# 00 F ... ... ... : C-1 12 . ... ... ... : --- .. . ... ... ... : ... .. . ... ... ... : ... .. . ... ... ... : ... .. . ... ... ... : ... .. . ... ... ... : ... .. . ... ... ... : ... .. . ... ... ... : ... .. . ... ... ...
ROW 48 : ... .. . P80 ... ... : ... .. . P80 ... ... : C#3 00 . P7E ... ... : 2-# 00 7 ... ... ... : ... .. . ... ... ... : ... .. . P80 ... ... : ... .. . P81 ... ... : ... .. . ... ... ... : ... .. . ... ... ... : ... .. . ... ... ... : ... .. . ... ... ... : ... .. . ... ... ... : ... .. . ... ... ...
ROW 49 : ... .. . ... ... ... : ... .. . ... ... ... : A-2 00 . P86 ... ... : 1-# 00 4 ... ... ... : ... .. . ... ... ... : ... .. . ... ... ... : ... .. . ... ... ... : ... .. . ... ... ... : ... .. . ... ... ... : ... .. . ... ... ... : ... .. . ... ... ... : ... .. . ... ... ... : ... .. . ... ... ...
ROW 4A : ... .. . ... ... ... : ... .. . ... ... ... : F#2 00 . P87 ... ... : ... .. 2 ... ... ... : ... .. . ... ... ... : ... .. . ... ... ... : ... .. . P80 ... ... : ... .. 7 ... ... ... : ... .. 4 ... ... ... : ... .. . ... ... ... : ... .. . ... ... ... : ... .. . ... ... ... : ... .. . ... ... ...
ROW 4B : ... .. . ... ... ... : ... .. . ... ... ... : E-2 00 . P71 ... ... : ... .. 1 ... ... ... : ... .. . ... ... ... : ... .. . ... ... ... : ... .. . P7F ... ... : ... .. . ... ... ... : ... .. . ... ... ... : ... .. . ... ... ... : ... .. . ... ... ... : ... .. . ... ... ... : ... .. . ... ... ...
ROW 4C : ... .. . ... ... ... : ... .. . ... ... ... : C#2 00 . P91 ... ... : --- .. . ... ... ... : ... .. . ... ... ... : ... .. . ... ... ... : ... .. . P80 ... ... : ... .. . ... ... ... : ... .. . ... ... ... : ... .. . ... ... ... : ... .. . ... ... ... : ... .. . ... ... ... : ... .. . ... ... ...
ROW 4D : ... .. . ... ... ... : ... .. . ... ... ... : --- .. . ... ... ... : ... .. . ... ... ... : ... .. . ... ... ... : ... .. . ... ... ... : ... .. . P81 ... ... : ... .. . ... ... ... : ... .. . ... ... ... : ... .. . ... ... ... : ... .. . ... ... ... : ... .. . ... ... ... : ... .. . ... ... ...
ROW 4E : ... .. . ... ... ... : ... .. . ... ... ... : ... .. . ... ... ... : ... .. . ... ... ... : ... .. . ... ... ... : ... .. . ... ... ... : ... .. . P80 ... ... : ... .. 6 ... ... ... : ... .. 3 ... ... ... : ... .. . ... ... ... : ... .. . ... ... ... : ... .. . ... ... ... : ... .. . ... ... ...
ROW 4F : ... .. . ... ... ... : ... .. . ... ... ... : ... .. . ... ... ... : ... .. . ... ... ... : ... .. . ... ... ... : ... .. . ... ... ... : ... .. . P7F ... ... : ... .. . ... ... ... : ... .. . ... ... ... : ... .. . ... ... ... : ... .. . ... ... ... : ... .. . ... ... ... : ... .. . ... ... ...
ROW 50 : ... .. . ... ... ... : ... .. . ... ... ... : ... .. . ... ... ... : ... .. . ... ... ... : ... .. . ... ... ... : ... .. . ... ... ... : ... .. . P80 ... ... : ... .. . ... ... ... : ... .. . ... ... ... : ... .. . ... ... ... : ... .. . ... ... ... : ... .. . ... ... ... : ... .. . ... ... ...
ROW 51 : ... .. . ... ... ... : ... .. . ... ... ... : ... .. . ... ... ... : ... .. . ... ... ... : ... .. . ... ... ... : ... .. . ... ... ... : ... .. . P81 ... ... : ... .. . ... ... ... : ... .. . ... ... ... : ... .. . ... ... ... : ... .. . ... ... ... : ... .. . ... ... ... : ... .. . ... ... ...
ROW 52 : ... .. . ... ... ... : ... .. . ... ... ... : ... .. . ... ... ... : ... .. . ... ... ... : ... .. . ... ... ... : ... .. . ... ... ... : ... .. . P80 ... ... : ... .. 5 ... ... ... : ... .. 2 ... ... ... : ... .. . ... ... ... : ... .. . ... ... ... : ... .. . ... ... ... : ... .. . ... ... ...
ROW 53 : ... .. . ... ... ... : ... .. . ... ... ... : ... .. . ... ... ... : ... .. . ... ... ... : ... .. . ... ... ... : ... .. . ... ... ... : ... .. . P7F ... ... : ... .. . ... ... ... : ... .. . ... ... ... : ... .. . ... ... ... : ... .. . ... ... ... : ... .. . ... ... ... : ... .. . ... ... ...
ROW 54 : ... .. . ... ... ... : ... .. . ... ... ... : ... .. . ... ... ... : ... .. . ... ... ... : ... .. . ... ... ... : ... .. . ... ... ... : ... .. . P80 ... ... : ... .. . ... ... ... : ... .. . ... ... ... : ... .. . ... ... ... : ... .. . ... ... ... : ... .. . ... ... ... : ... .. . ... ... ...
ROW 55 : E-3 02 1 ... ... ... : B-2 02 1 ... ... ... : ... .. . ... ... ... : ... .. . ... ... ... : ... .. . ... ... ... : G#3 0C 1 P7F ... ... : ... .. . P81 ... ... : ... .. . ... ... ... : ... .. . ... ... ... : ... .. . ... ... ... : ... .. . ... ... ... : ... .. . ... ... ... : ... .. . ... ... ...
ROW 56 : ... .. . P82 ... ... : ... .. . P82 ... ... : ... .. . ... ... ... : ... .. . ... ... ... : ... .. . ... ... ... : ... .. . ... ... ... : ... .. . ... ... ... : ... .. 4 ... ... ... : ... .. 1 ... ... ... : ... .. . ... ... ... : ... .. . ... ... ... : ... .. . ... ... ... : ... .. . ... ... ...
ROW 57 : ... .. . P83 ... ... : ... .. . P83 ... ... : ... .. . ... ... ... : ... .. . ... ... ... : ... .. . ... ... ... : ... .. . P80 ... ... : ... .. . P80 ... ... : ... .. . ... ... ... : ... .. . ... ... ... : ... .. . ... ... ... : ... .. . ... ... ... : ... .. . ... ... ... : ... .. . ... ... ...
ROW 58 : ... .. 2 P82 ... ... : ... .. 2 P82 ... ... : ... .. . ... ... ... : ... .. . ... ... ... : ... .. . ... ... ... : ... .. 2 P81 ... ... : ... .. . ... ... ... : ... .. . ... ... ... : ... .. . ... ... ... : ... .. . ... ... ... : ... .. . ... ... ... : ... .. . ... ... ... : ... .. . ... ... ...
ROW 59 : ... .. . P80 ... ... : ... .. . P80 ... ... : ... .. . ... ... ... : ... .. . ... ... ... : ... .. . ... ... ... : ... .. . P82 ... ... : ... .. . P81 ... ... : ... .. . ... ... ... : ... .. . ... ... ... : ... .. . ... ... ... : ... .. . ... ... ... : ... .. . ... ... ... : ... .. . ... ... ...
ROW 5A : ... .. 3 P7E ... ... : ... .. 3 P7E ... ... : ... .. . ... ... ... : ... .. . ... ... ... : ... .. . ... ... ... : ... .. 3 P81 ... ... : ... .. . ... ... ... : ... .. 3 ... ... ... : --- .. . ... ... ... : ... .. . ... ... ... : ... .. . ... ... ... : ... .. . ... ... ... : ... .. . ... ... ...
ROW 5B : ... .. . P7D ... ... : ... .. . P7D ... ... : ... .. . ... ... ... : ... .. . ... ... ... : ... .. . ... ... ... : ... .. . P80 ... ... : ... .. . P80 ... ... : ... .. . ... ... ... : ... .. . ... ... ... : ... .. . ... ... ... : ... .. . ... ... ... : ... .. . ... ... ... : ... .. . ... ... ...
ROW 5C : ... .. . P7E ... ... : ... .. . P7E ... ... : ... .. . ... ... ... : ... .. . ... ... ... : ... .. . ... ... ... : ... .. . P7F ... ... : ... .. . P7F ... ... : ... .. . ... ... ... : ... .. . ... ... ... : ... .. . ... ... ... : ... .. . ... ... ... : ... .. . ... ... ... : ... .. . ... ... ...
ROW 5D : ... .. 4 P80 ... ... : ... .. 4 P80 ... ... : ... .. . ... ... ... : ... .. . ... ... ... : ... .. . ... ... ... : ... .. 4 ... ... ... : ... .. . P80 ... ... : ... .. . ... ... ... : ... .. . ... ... ... : ... .. . ... ... ... : ... .. . ... ... ... : ... .. . ... ... ... : ... .. . ... ... ...
ROW 5E : ... .. . P82 ... ... : ... .. . P82 ... ... : ... .. . ... ... ... : ... .. . ... ... ... : ... .. . ... ... ... : ... .. . ... ... ... : ... .. . P81 ... ... : ... .. 2 ... ... ... : ... .. . ... ... ... : ... .. . ... ... ... : ... .. . ... ... ... : ... .. . ... ... ... : ... .. . ... ... ...
ROW 5F : ... .. . P83 ... ... : ... .. . P83 ... ... : ... .. . ... ... ... : ... .. . ... ... ... : ... .. . ... ... ... : ... .. . P80 ... ... : ... .. . P80 ... ... : ... .. . ... ... ... : ... .. . ... ... ... : ... .. . ... ... ... : ... .. . ... ... ... : ... .. . ... ... ... : ... .. . ... ... ...
ROW 60 : --- .. . ... ... ... : --- .. . ... ... ... : C#4 00 . P7F ... ... : 9-# 00 F ... ... ... : C#1 12 . ... ... ... : --- .. . ... ... ... : ... .. . P7F ... ... : G#5 0A . ... ... ... : C-5 0A 8 ... ... ... : ... .. . ... ... ... : ... .. . ... ... ... : ... .. . ... ... ... : ... .. . ... ... ...
ROW 61 : ... .. . P80 ... ... : ... .. . P80 ... ... : F#3 00 . P83 ... ... : 2-# 00 7 ... ... ... : ... .. . ... ... ... : ... .. . ... ... ... : ... .. . P80 ... ... : G#5 0B . ... ... ... : C-5 0B . ... ... ... : ... .. . ... ... ... : ... .. . ... ... ... : ... .. . ... ... ... : ... .. . ... ... ...
ROW 62 : ... .. . ... ... ... : ... .. . ... ... ... : C#3 00 . P89 ... ... : 6-# 00 C ... ... ... : ... .. . ... ... ... : ... .. . ... ... ... : ... .. . P81 ... ... : G#5 0D 1 ... ... ... : C-5 0D . ... ... ... : ... .. . ... ... ... : ... .. . ... ... ... : ... .. . ... ... ... : ... .. . ... ... ...
ROW 63 : ... .. . ... ... ... : ... .. . ... ... ... : A#2 00 . P75 ... ... : 7-# 00 8 ... ... ... : ... .. . ... ... ... : ... .. . ... ... ... : ... .. . P80 ... ... : G#5 0E . ... ... ... : C-5 0E . ... ... ... : ... .. . ... ... ... : ... .. . ... ... ... : ... .. . ... ... ... : ... .. . ... ... ...
ROW 64 : ... .. . ... ... ... : ... .. . ... ... ... : G-2 00 . P70 ... ... : 8-# 00 7 ... ... ... : ... .. . ... ... ... : ... .. . ... ... ... : ... .. . P7F ... ... : ... .. . ... ... ... : ... .. . ... ... ... : ... .. . ... ... ... : ... .. . ... ... ... : ... .. . ... ... ... : ... .. . ... ... ...
ROW 65 : ... .. . ... ... ... : ... .. . ... ... ... : E-2 00 . P7C ... ... : ... .. 6 ... ... ... : ... .. . ... ... ... : ... .. . ... ... ... : ... .. . P80 ... ... : G#5 0F . ... ... ... : C-5 0F . ... ... ... : ... .. . ... ... ... : ... .. . ... ... ... : ... .. . ... ... ... : ... .. . ... ... ...
ROW 66 : ... .. . ... ... ... : ... .. . ... ... ... : D-2 00 . P6F ... ... : ... .. . ... ... ... : ... .. . ... ... ... : ... .. . ... ... ... : ... .. . P81 ... ... : --- .. . ... ... ... : ... .. . ... ... ... : ... .. . ... ... ... : ... .. . ... ... ... : ... .. . ... ... ... : ... .. . ... ... ...
ROW 67 : ... .. . ... ... ... : ... .. . ... ... ... : C-2 00 . P6C ... ... : ... .. 5 ... ... ... : ... .. . ... ... ... : ... .. . ... ... ... : ... .. . ... ... ... : ... .. . ... ... ... : ... .. . ... ... ... : ... .. . ... ... ... : ... .. . ... ... ... : ... .. . ... ... ... : ... .. . ... ... ...
ROW 68 : ... .. . ... ... ... : ... .. . ... ... ... : A#1 00 . P75 ... ... : ... .. . ... ... ... : ... .. . ... ... ... : ... .. . ... ... ... : ... .. . P80 ... ... : ... .. . ... ... ... : C-5 10 7 ... ... ... : ... .. . ... ... ... : ... .. . ... ... ... : ... .. . ... ... ... : ... .. . ... ... ...
ROW 69 : ... .. . ... ... ... : ... .. . ... ... ... : G#1 00 . P8A ... ... : ... .. 4 ... ... ... : ... .. . ... ... ... : ... .. . ... ... ... : ... .. . ... ... ... : ... .. . ... ... ... : ... .. . ... ... ... : ... .. . ... ... ... : ... .. . ... ... ... : ... .. . ... ... ... : ... .. . ... ... ...
ROW 6A : ... .. . ... ... ... : ... .. . ... ... ... : G-1 00 . P6A ... ... : ... .. . ... ... ... : ... .. . ... ... ... : ... .. . ... ... ... : ... .. . P81 ... ... : ... .. . ... ... ... : ... .. . ... ... ... : ... .. . ... ... ... : ... .. . ... ... ... : ... .. . ... ... ... : ... .. . ... ... ...
ROW 6B : ... .. . ... ... ... : ... .. . ... ... ... : F-1 00 . P96 ... ... : ... .. 3 ... ... ... : ... .. . ... ... ... : ... .. . ... ... ... : ... .. . ... ... ... : ... .. . ... ... ... : ... .. . ... ... ... : ... .. . ... ... ... : ... .. . ... ... ... : ... .. . ... ... ... : ... .. . ... ... ...
ROW 6C : ... .. . ... ... ... : ... .. . ... ... ... : --- .. . ... ... ... : ... .. . ... ... ... : ... .. . ... ... ... : ... .. . ... ... ... : ... .. . P80 ... ... : ... .. . ... ... ... : C-5 11 . ... ... ... : ... .. . ... ... ... : ... .. . ... ... ... : ... .. . ... ... ... : ... .. . ... ... ...
ROW 6D : ... .. . ... ... ... : ... .. . ... ... ... : ... .. . ... ... ... : ... .. . ... ... ... : ... .. . ... ... ... : ... .. . ... ... ... : ... .. . P7F ... ... : ... .. . ... ... ... : ... .. . ... ... ... : ... .. . ... ... ... : ... .. . ... ... ... : ... .. . ... ... ... : ... .. . ... ... ...
ROW 6E : E-3 02 1 P82 ... ... : B-2 02 1 P82 ... ... : ... .. . ... ... ... : ... .. . ... ... ... : ... .. . ... ... ... : G#3 0C 1 P7F ... ... : ... .. . P80 ... ... : ... .. . ... ... ... : ... .. . ... ... ... : ... .. . ... ... ... : ... .. . ... ... ... : ... .. . ... ... ... : ... .. . ... ... ...
ROW 6F : ... .. . P83 ... ... : ... .. . P83 ... ... : ... .. . ... ... ... : ... .. 2 ... ... ... : ... .. . ... ... ... : ... .. . P80 ... ... : ... .. . P81 ... ... : ... .. . ... ... ... : ... .. . ... ... ... : ... .. . ... ... ... : ... .. . ... ... ... : ... .. . ... ... ... : ... .. . ... ... ...
ROW 70 : ... .. . P82 ... ... : ... .. . P82 ... ... : ... .. . ... ... ... : ... .. . ... ... ... : ... .. . ... ... ... : ... .. . P81 ... ... : ... .. . P80 ... ... : ... .. . ... ... ... : ... .. 6 ... ... ... : ... .. . ... ... ... : ... .. . ... ... ... : ... .. . ... ... ... : ... .. . ... ... ...
ROW 71 : ... .. 2 P80 ... ... : ... .. 2 P80 ... ... : ... .. . ... ... ... : ... .. . ... ... ... : ... .. . ... ... ... : ... .. 2 P82 ... ... : ... .. . P7F ... ... : ... .. . ... ... ... : ... .. . ... ... ... : ... .. . ... ... ... : ... .. . ... ... ... : ... .. . ... ... ... : ... .. . ... ... ...
ROW 72 : ... .. . P7E ... ... : ... .. . P7E ... ... : ... .. . ... ... ... : ... .. . ... ... ... : ... .. . ... ... ... : ... .. . P81 ... ... : ... .. . P80 ... ... : ... .. . ... ... ... : ... .. . ... ... ... : ... .. . ... ... ... : ... .. . ... ... ... : ... .. . ... ... ... : ... .. . ... ... ...
ROW 73 : ... .. 3 P7D ... ... : ... .. 3 P7D ... ... : ... .. . ... ... ... : ... .. 1 ... ... ... : ... .. . ... ... ... : ... .. 3 P80 ... ... : ... .. . P81 ... ... : ... .. . ... ... ... : ... .. . ... ... ... : ... .. . ... ... ... : ... .. . ... ... ... : ... .. . ... ... ... : ... .. . ... ... ...
ROW 74 : ... .. . P7E ... ... : ... .. . P7E ... ... : ... .. . ... ... ... : ... .. . ... ... ... : ... .. . ... ... ... : ... .. . P7F ... ... : ... .. . P80 ... ... : ... .. . ... ... ... : ... .. . ... ... ... : ... .. . ... ... ... : ... .. . ... ... ... : ... .. . ... ... ... : ... .. . ... ... ...
ROW 75 : ... .. . P80 ... ... : ... .. . P80 ... ... : ... .. . ... ... ... : ... .. . ... ... ... : ... .. . ... ... ... : ... .. . ... ... ... : ... .. . P7F ... ... : ... .. . ... ... ... : ... .. . ... ... ... : ... .. . ... ... ... : ... .. . ... ... ... : ... .. . ... ... ... : ... .. . ... ... ...
ROW 76 : ... .. 4 P82 ... ... : ... .. 4 P82 ... ... : ... .. . ... ... ... : ... .. . ... ... ... : ... .. . ... ... ... : ... .. 4 ... ... ... : ... .. . P80 ... ... : ... .. . ... ... ... : ... .. . ... ... ... : ... .. . ... ... ... : ... .. . ... ... ... : ... .. . ... ... ... : ... .. . ... ... ...
ROW 77 : ... .. . P83 ... ... : ... .. . P83 ... ... : ... .. . ... ... ... : ... .. . ... ... ... : ... .. . ... ... ... : ... .. . P80 ... ... : ... .. . P81 ... ... : ... .. . ... ... ... : ... .. . ... ... ... : ... .. . ... ... ... : ... .. . ... ... ... : ... .. . ... ... ... : ... .. . ... ... ...
ROW 78 : ... .. . P82 ... ... : ... .. . P82 ... ... : ... .. . ... ... ... : --- .. . ... ... ... : ... .. . ... ... ... : ... .. . P81 ... ... : ... .. . ... ... ... : ... .. . ... ... ... : ... .. 5 ... ... ... : ... .. . ... ... ... : ... .. . ... ... ... : ... .. . ... ... ... : ... .. . ... ... ...
ROW 79 : --- .. . ... ... ... : --- .. . ... ... ... : C#4 00 . P7F ... ... : 9-# 00 F ... ... ... : C#1 12 . ... ... ... : --- .. . ... ... ... : F#2 03 . P80 ... ... : ... .. . ... ... ... : C#5 0A 8 ... ... ... : ... .. . ... ... ... : ... .. . ... ... ... : ... .. . ... ... ... : ... .. . ... ... ...
ROW 7A : ... .. . P80 ... ... : ... .. . P80 ... ... : F#3 00 . P83 ... ... : 2-# 00 7 ... ... ... : ... .. . ... ... ... : ... .. . P80 ... ... : ... .. . P7F ... ... : ... .. . ... ... ... : C#5 0B . ... ... ... : ... .. . ... ... ... : ... .. . ... ... ... : ... .. . ... ... ... : ... .. . ... ... ...
ROW 7B : ... .. . ... ... ... : ... .. . ... ... ... : C#3 00 . P89 ... ... : 6-# 00 C ... ... ... : ... .. . ... ... ... : ... .. . ... ... ... : ... .. . P80 ... ... : ... .. . ... ... ... : C#5 0D . ... ... ... : ... .. . ... ... ... : ... .. . ... ... ... : ... .. . ... ... ... : ... .. . ... ... ...
ROW 7C : ... .. . ... ... ... : ... .. . ... ... ... : A#2 00 . P75 ... ... : 7-# 00 8 ... ... ... : ... .. . ... ... ... : ... .. . ... ... ... : ... .. . P81 ... ... : ... .. . ... ... ... : C#5 0E . ... ... ... : ... .. . ... ... ... : ... .. . ... ... ... : ... .. . ... ... ... : ... .. . ... ... ...
ROW 7D : ... .. . ... ... ... : ... .. . ... ... ... : G-2 00 . P70 ... ... : 8-# 00 7 ... ... ... : ... .. . ... ... ... : ... .. . ... ... ... : ... .. . P80 ... ... : ... .. . ... ... ... : ... .. . ... ... ... : ... .. . ... ... ... : ... .. . ... ... ... : ... .. . ... ... ... : ... .. . ... ... ...
ROW 7E : ... .. . ... ... ... : ... .. . ... ... ... : E-2 00 . P7C ... ... : ... .. 6 ... ... ... : ... .. . ... ... ... : ... .. . ... ... ... : ... .. . P7F ... ... : ... .. . ... ... ... : C#5 0F . ... ... ... : ... .. . ... ... ... : ... .. . ... ... ... : ... .. . ... ... ... : ... .. . ... ... ...
ROW 7F : ... .. . ... ... ... : ... .. . ... ... ... : D-2 00 . P6F ... ... : ... .. . ... ... ... : ... .. . ... ... ... : ... .. . ... ... ... : ... .. . P80 ... ... : ... .. . ... ... ... : ... .. . ... ... ... : ... .. . ... ... ... : ... .. . ... ... ... : ... .. . ... ... ... : ... .. . ... ... ...
ROW 80 : ... .. . ... ... ... : ... .. . ... ... ... : C-2 00 . P6C ... ... : ... .. 5 ... ... ... : ... .. . ... ... ... : ... .. . ... ... ... : ... .. . P81 ... ... : ... .. . ... ... ... : ... .. . ... ... ... : ... .. . ... ... ... : ... .. . ... ... ... : ... .. . ... ... ... : ... .. . ... ... ...
ROW 81 : ... .. . ... ... ... : ... .. . ... ... ... : A#1 00 . P75 ... ... : ... .. . ... ... ... : ... .. . ... ... ... : ... .. . ... ... ... : ... .. . P80 ... ... : ... .. . ... ... ... : C#5 10 7 ... ... ... : ... .. . ... ... ... : ... .. . ... ... ... : ... .. . ... ... ... : ... .. . ... ... ...
ROW 82 : ... .. . ... ... ... : ... .. . ... ... ... : G#1 00 . P8A ... ... : ... .. 4 ... ... ... : ... .. . ... ... ... : ... .. . ... ... ... : ... .. . P7F ... ... : ... .. . ... ... ... : ... .. . ... ... ... : ... .. . ... ... ... : ... .. . ... ... ... : ... .. . ... ... ... : ... .. . ... ... ...
ROW 83 : ... .. . ... ... ... : ... .. . ... ... ... : G-1 00 . P6A ... ... : ... .. . ... ... ... : ... .. . ... ... ... : ... .. . ... ... ... : ... .. . P80 ... ... : ... .. . ... ... ... : ... .. . ... ... ... : ... .. . ... ... ... : ... .. . ... ... ... : ... .. . ... ... ... : ... .. . ... ... ...
ROW 84 : ... .. . ... ... ... : ... .. . ... ... ... : F-1 00 . P96 ... ... : ... .. 3 ... ... ... : ... .. . ... ... ... : ... .. . ... ... ... : ... .. . P81 ... ... : ... .. . ... ... ... : ... .. . ... ... ... : ... .. . ... ... ... : ... .. . ... ... ... : ... .. . ... ... ... : ... .. . ... ... ...
ROW 85 : ... .. . ... ... ... : ... .. . ... ... ... : C#4 00 . P7F ... ... : 9-# 00 F ... ... ... : C#1 12 . ... ... ... : ... .. . ... ... ... : ... .. . ... ... ... : G#5 11 B ... ... ... : C#5 11 . ... ... ... : ... .. . ... ... ... : ... .. . ... ... ... : ... .. . ... ... ... : ... .. . ... ... ...
ROW 86 : ... .. . ... ... ... : ... .. . ... ... ... : F#3 00 . P83 ... ... : 2-# 00 7 ... ... ... : ... .. . ... ... ... : ... .. . ... ... ... : ... .. . P80 ... ... : ... .. . ... ... ... : ... .. . ... ... ... : ... .. . ... ... ... : ... .. . ... ... ... : ... .. . ... ... ... : ... .. . ... ... ...
ROW 87 : F#3 02 1 P83 ... ... : C#3 02 1 P83 ... ... : C#3 00 . P89 ... ... : 6-# 00 C ... ... ... : ... .. . ... ... ... : A#3 0C 1 ... ... ... : ... .. . ... ... ... : ... .. . ... ... ... : ... .. . ... ... ... : ... .. . ... ... ... : ... .. . ... ... ... : ... .. . ... ... ... : ... .. . ... ... ...
ROW 88 : ... .. . P82 ... ... : ... .. . P82 ... ... : A#2 00 . P75 ... ... : 7-# 00 8 ... ... ... : ... .. . ... ... ... : ... .. . P81 ... ... : ... .. . P81 ... ... : ... .. . ... ... ... : ... .. . ... ... ... : ... .. . ... ... ... : ... .. . ... ... ... : ... .. . ... ... ... : ... .. . ... ... ...
ROW 89 : ... .. . P80 ... ... : ... .. . P80 ... ... : G-2 00 . P70 ... ... : 8-# 00 7 ... ... ... : ... .. . ... ... ... : ... .. . P82 ... ... : ... .. . ... ... ... : G#5 0E A ... ... ... : C#5 0E 6 ... ... ... : ... .. . ... ... ... : ... .. . ... ... ... : ... .. . ... ... ... : ... .. . ... ... ...
ROW 8A : ... .. 2 P7E ... ... : ... .. 2 P7E ... ... : E-2 00 . P7C ... ... : ... .. 6 ... ... ... : ... .. . ... ... ... : ... .. 2 P81 ... ... : ... .. . P80 ... ... : G#5 0F . ... ... ... : C#5 0F . ... ... ... : ... .. . ... ... ... : ... .. . ... ... ... : ... .. . ... ... ... : ... .. . ... ... ...
ROW 8B : ... .. . P7D ... ... : ... .. . P7D ... ... : D-2 00 . P6F ... ... : ... .. . ... ... ... : ... .. . ... ... ... : ... .. . P80 ... ... : ... .. . P7F ... ... : ... .. . ... ... ... : ... .. . ... ... ... : ... .. . ... ... ... : ... .. . ... ... ... : ... .. . ... ... ... : ... .. . ... ... ...
ROW 8C : ... .. 3 P7E ... ... : ... .. 3 P7E ... ... : C-2 00 . P6C ... ... : ... .. 5 ... ... ... : ... .. . ... ... ... : ... .. 3 P7F ... ... : ... .. . P80 ... ... : ... .. . ... ... ... : ... .. . ... ... ... : ... .. . ... ... ... : ... .. . ... ... ... : ... .. . ... ... ... : ... .. . ... ... ...
ROW 8D : ... .. . P80 ... ... : ... .. . P80 ... ... : A#1 00 . P75 ... ... : ... .. . ... ... ... : ... .. . ... ... ... : ... .. . ... ... ... : ... .. . P81 ... ... : G#5 10 9 ... ... ... : C#5 10 . ... ... ... : ... .. . ... ... ... : ... .. . ... ... ... : ... .. . ... ... ... : ... .. . ... ... ...
ROW 8E : ... .. . P82 ... ... : ... .. . P82 ... ... : G#1 00 . P8A ... ... : ... .. 4 ... ... ... : ... .. . ... ... ... : ... .. . ... ... ... : ... .. . P80 ... ... : ... .. . ... ... ... : ... .. . ... ... ... : ... .. . ... ... ... : ... .. . ... ... ... : ... .. . ... ... ... : ... .. . ... ... ...
ROW 8F : ... .. 4 P83 ... ... : ... .. 4 P83 ... ... : G-1 00 . P6A ... ... : ... .. . ... ... ... : ... .. . ... ... ... : ... .. 4 P80 ... ... : ... .. . P7F ... ... : ... .. . ... ... ... : ... .. . ... ... ... : ... .. . ... ... ... : ... .. . ... ... ... : ... .. . ... ... ... : ... .. . ... ... ...
ROW 90 : ... .. . P82 ... ... : ... .. . P82 ... ... : F-1 00 . P96 ... ... : ... .. 3 ... ... ... : ... .. . ... ... ... : ... .. . P81 ... ... : ... .. . P80 ... ... : ... .. . ... ... ... : ... .. . ... ... ... : ... .. . ... ... ... : ... .. . ... ... ... : ... .. . ... ... ... : ... .. . ... ... ...
ROW 91 : ... .. . P80 ... ... : ... .. . P80 ... ... : E-1 00 . P82 ... ... : ... .. . ... ... ... : ... .. . ... ... ... : ... .. . P82 ... ... : ... .. . P81 ... ... : G#5 11 8 ... ... ... : C#5 11 5 ... ... ... : ... .. . ... ... ... : ... .. . ... ... ... : ... .. . ... ... ... : ... .. . ... ... ...
ROW 92 : --- .. . ... ... ... : --- .. . ... ... ... : C#4 00 . P7F ... ... : 9-# 00 F ... ... ... : C#1 12 . ... ... ... : --- .. . ... ... ... : ... .. . P80 ... ... : F#5 0A B ... ... ... : C#5 0A . ... ... ... : ... .. . ... ... ... : ... .. . ... ... ... : ... .. . ... ... ... : ... .. . ... ... ...
ROW 93 : ... .. . ... ... ... : ... .. . ... ... ... : F#3 00 . P83 ... ... : 2-# 00 7 ... ... ... : ... .. . ... ... ... : ... .. . P80 ... ... : ... .. . P7F ... ... : F#5 0B . ... ... ... : C#5 0B . ... ... ... : ... .. . ... ... ... : ... .. . ... ... ... : ... .. . ... ... ... : ... .. . ... ... ...
ROW 94 : ... .. . ... ... ... : ... .. . ... ... ... : C#3 00 . P89 ... ... : 6-# 00 C ... ... ... : ... .. . ... ... ... : ... .. . ... ... ... : ... .. . P80 ... ... : F#5 0D . ... ... ... : C#5 0D . ... ... ... : ... .. . ... ... ... : ... .. . ... ... ... : ... .. . ... ... ... : ... .. . ... ... ...
ROW 95 : ... .. . ... ... ... : ... .. . ... ... ... : A#2 00 . P75 ... ... : 7-# 00 8 ... ... ... : ... .. . ... ... ... : ... .. . ... ... ... : ... .. . P81 ... ... : F#5 0E . ... ... ... : C#5 0E . ... ... ... : ... .. . ... ... ... : ... .. . ... ... ... : ... .. . ... ... ... : ... .. . ... ... ...
ROW 96 : ... .. . ... ... ... : ... .. . ... ... ... : G-2 00 . P70 ... ... : 8-# 00 7 ... ... ... : ... .. . ... ... ... : ... .. . ... ... ... : ... .. . ... ... ... : ... .. A ... ... ... : ... .. . ... ... ... : ... .. . ... ... ... : ... .. . ... ... ... : ... .. . ... ... ... : ... .. . ... ... ...
ROW 97 : ... .. . ... ... ... : ... .. . ... ... ... : E-2 00 . P7C ... ... : ... .. 6 ... ... ... : ... .. . ... ... ... : ... .. . ... ... ... : ... .. . P80 ... ... : F#5 0F . ... ... ... : C#5 0F . ... ... ... : ... .. . ... ... ... : ... .. . ... ... ... : ... .. . ... ... ... : ... .. . ... ... ...
ROW 98 : ... .. . ... ... ... : ... .. . ... ... ... : D-2 00 . P6F ... ... : ... .. . ... ... ... : ... .. . ... ... ... : ... .. . ... ... ... : ... .. . ... ... ... : ... .. . ... ... ... : ... .. . ... ... ... : ... .. . ... ... ... : ... .. . ... ... ... : ... .. . ... ... ... : ... .. . ... ... ...
ROW 99 : ... .. . ... ... ... : ... .. . ... ... ... : C-2 00 . P6C ... ... : ... .. 5 ... ... ... : ... .. . ... ... ... : ... .. . ... ... ... : ... .. . P81 ... ... : ... .. . ... ... ... : ... .. 4 ... ... ... : ... .. . ... ... ... : ... .. . ... ... ... : ... .. . ... ... ... : ... .. . ... ... ...
ROW 9A : ... .. . ... ... ... : ... .. . ... ... ... : A#1 00 . P75 ... ... : ... .. . ... ... ... : ... .. . ... ... ... : ... .. . ... ... ... : ... .. . ... ... ... : F#5 10 9 ... ... ... : C#5 10 . ... ... ... : ... .. . ... ... ... : ... .. . ... ... ... : ... .. . ... ... ... : ... .. . ... ... ...
ROW 9B : ... .. . ... ... ... : ... .. . ... ... ... : G#1 00 . P8A ... ... : ... .. 4 ... ... ... : ... .. . ... ... ... : ... .. . ... ... ... : ... .. . P80 ... ... : ... .. . ... ... ... : ... .. . ... ... ... : ... .. . ... ... ... : ... .. . ... ... ... : ... .. . ... ... ... : ... .. . ... ... ...
ROW 9C : ... .. . ... ... ... : ... .. . ... ... ... : G-1 00 . P6A ... ... : ... .. . ... ... ... : ... .. . ... ... ... : ... .. . ... ... ... : ... .. . P7F ... ... : ... .. . ... ... ... : ... .. . ... ... ... : ... .. . ... ... ... : ... .. . ... ... ... : ... .. . ... ... ... : ... .. . ... ... ...
ROW 9D : ... .. . ... ... ... : ... .. . ... ... ... : F-1 00 . P96 ... ... : ... .. 3 ... ... ... : ... .. . ... ... ... : ... .. . ... ... ... : ... .. . P80 ... ... : ... .. . ... ... ... : ... .. . ... ... ... : ... .. . ... ... ... : ... .. . ... ... ... : ... .. . ... ... ... : ... .. . ... ... ...
ROW 9E : ... .. . ... ... ... : ... .. . ... ... ... : C#4 00 . P7F ... ... : 9-# 00 F ... ... ... : C#1 12 . ... ... ... : ... .. . ... ... ... : ... .. . P81 ... ... : G#5 0A B ... ... ... : C#5 0A . ... ... ... : ... .. . ... ... ... : ... .. . ... ... ... : ... .. . ... ... ... : ... .. . ... ... ...
ROW 9F : ... .. . ... ... ... : ... .. . ... ... ... : F#3 00 . P83 ... ... : 2-# 00 7 ... ... ... : ... .. . ... ... ... : ... .. . ... ... ... : ... .. . P80 ... ... : G#5 0B . ... ... ... : C#5 0B . ... ... ... : ... .. . ... ... ... : ... .. . ... ... ... : ... .. . ... ... ... : ... .. . ... ... ...
ROW A0 : F#3 02 1 P82 ... ... : C#3 02 1 P82 ... ... : C#3 00 . P89 ... ... : 6-# 00 C ... ... ... : ... .. . ... ... ... : A#3 0C 1 P81 ... ... : ... .. . P7F ... ... : G#5 0D . ... ... ... : C#5 0D . ... ... ... : ... .. . ... ... ... : ... .. . ... ... ... : ... .. . ... ... ... : ... .. . ... ... ...
ROW A1 : ... .. . P80 ... ... : ... .. . P80 ... ... : A#2 00 . P75 ... ... : 7-# 00 8 ... ... ... : ... .. . ... ... ... : ... .. . P82 ... ... : ... .. . P80 ... ... : G#5 0E . ... ... ... : C#5 0E 3 ... ... ... : ... .. . ... ... ... : ... .. . ... ... ... : ... .. . ... ... ... : ... .. . ... ... ...
ROW A2 : ... .. . P7E ... ... : ... .. . P7E ... ... : G-2 00 . P70 ... ... : 8-# 00 7 ... ... ... : ... .. . ... ... ... : ... .. . P81 ... ... : ... .. . P81 ... ... : ... .. A ... ... ... : ... .. . ... ... ... : ... .. . ... ... ... : ... .. . ... ... ... : ... .. . ... ... ... : ... .. . ... ... ...
ROW A3 : ... .. 2 P7D ... ... : ... .. 2 P7D ... ... : E-2 00 . P7C ... ... : ... .. 6 ... ... ... : ... .. . ... ... ... : ... .. 2 P80 ... ... : ... .. . P80 ... ... : G#5 0F . ... ... ... : C#5 0F . ... ... ... : ... .. . ... ... ... : ... .. . ... ... ... : ... .. . ... ... ... : ... .. . ... ... ...
ROW A4 : ... .. . P7E ... ... : ... .. . P7E ... ... : D-2 00 . P6F ... ... : ... .. . ... ... ... : ... .. . ... ... ... : ... .. . P7F ... ... : ... .. . P7F ... ... : ... .. . ... ... ... : ... .. . ... ... ... : ... .. . ... ... ... : ... .. . ... ... ... : ... .. . ... ... ... : ... .. . ... ... ...
ROW A5 : ... .. 3 P80 ... ... : ... .. 3 P80 ... ... : C-2 00 . P6C ... ... : ... .. 5 ... ... ... : ... .. . ... ... ... : ... .. 3 ... ... ... : ... .. . P80 ... ... : ... .. . ... ... ... : ... .. . ... ... ... : ... .. . ... ... ... : ... .. . ... ... ... : ... .. . ... ... ... : ... .. . ... ... ...
ROW A6 : ... .. . P82 ... ... : ... .. . P82 ... ... : A#1 00 . P75 ... ... : ... .. . ... ... ... : ... .. . ... ... ... : ... .. . ... ... ... : ... .. . P81 ... ... : G#5 10 9 ... ... ... : C#5 10 . ... ... ... : ... .. . ... ... ... : ... .. . ... ... ... : ... .. . ... ... ... : ... .. . ... ... ...
ROW A7 : ... .. . P83 ... ... : ... .. . P83 ... ... : G#1 00 . P8A ... ... : ... .. 4 ... ... ... : ... .. . ... ... ... : ... .. . P80 ... ... : ... .. . ... ... ... : ... .. . ... ... ... : ... .. . ... ... ... : ... .. . ... ... ... : ... .. . ... ... ... : ... .. . ... ... ... : ... .. . ... ... ...
ROW A8 : ... .. 4 P82 ... ... : ... .. 4 P82 ... ... : G-1 00 . P6A ... ... : ... .. . ... ... ... : ... .. . ... ... ... : ... .. 4 P81 ... ... : ... .. . P80 ... ... : ... .. . ... ... ... : ... .. . ... ... ... : ... .. . ... ... ... : ... .. . ... ... ... : ... .. . ... ... ... : ... .. . ... ... ...
ROW A9 : ... .. . P80 ... ... : ... .. . P80 ... ... : F-1 00 . P96 ... ... : ... .. 3 ... ... ... : ... .. . ... ... ... : ... .. . P82 ... ... : ... .. . ... ... ... : ... .. . ... ... ... : ... .. 2 ... ... ... : ... .. . ... ... ... : ... .. . ... ... ... : ... .. . ... ... ... : ... .. . ... ... ...
ROW AA : ... .. . P7E ... ... : ... .. . P7E ... ... : E-1 00 . P82 ... ... : ... .. . ... ... ... : ... .. . ... ... ... : ... .. . P81 ... ... : ... .. . P81 ... ... : G#5 11 8 ... ... ... : C#5 11 . ... ... ... : ... .. . ... ... ... : ... .. . ... ... ... : ... .. . ... ... ... : ... .. . ... ... ...
ROW AB : --- .. . ... ... ... : --- .. . ... ... ... : C#4 00 . P7F ... ... : 9-# 00 F ... ... ... : C#1 12 . ... ... ... : --- .. . ... ... ... : ... .. . ... ... ... : B-5 0A B ... ... ... : F#5 0A 8 ... ... ... : ... .. . ... ... ... : ... .. . ... ... ... : ... .. . ... ... ... : ... .. . ... ... ...
ROW AC : ... .. . P80 ... ... : ... .. . P80 ... ... : F#3 00 . P83 ... ... : 2-# 00 7 ... ... ... : ... .. . ... ... ... : ... .. . P80 ... ... : ... .. . P80 ... ... : B-5 0B . ... ... ... : F#5 0B . ... ... ... : ... .. . ... ... ... : ... .. . ... ... ... : ... .. . ... ... ... : ... .. . ... ... ...
ROW AD : ... .. . ... ... ... : ... .. . ... ... ... : C#3 00 . P89 ... ... : 6-# 00 C ... ... ... : ... .. . ... ... ... : ... .. . ... ... ... : ... .. . P7F ... ... : B-5 0D . ... ... ... : F#5 0D . ... ... ... : ... .. . ... ... ... : ... .. . ... ... ... : ... .. . ... ... ... : ... .. . ... ... ...
ROW AE : ... .. . ... ... ... : ... .. . ... ... ... : A#2 00 . P75 ... ... : 7-# 00 8 ... ... ... : ... .. . ... ... ... : ... .. . ... ... ... : ... .. . P80 ... ... : B-5 0E . ... ... ... : F#5 0E . ... ... ... : ... .. . ... ... ... : ... .. . ... ... ... : ... .. . ... ... ... : ... .. . ... ... ...
ROW AF : ... .. . ... ... ... : ... .. . ... ... ... : G-2 00 . P70 ... ... : 8-# 00 7 ... ... ... : ... .. . ... ... ... : ... .. . ... ... ... : ... .. . P81 ... ... : ... .. A ... ... ... : ... .. . ... ... ... : ... .. . ... ... ... : ... .. . ... ... ... : ... .. . ... ... ... : ... .. . ... ... ...
ROW B0 : ... .. . ... ... ... : ... .. . ... ... ... : E-2 00 . P7C ... ... : ... .. 6 ... ... ... : ... .. . ... ... ... : ... .. . ... ... ... : ... .. . P80 ... ... : B-5 0F . ... ... ... : F#5 0F . ... ... ... : ... .. . ... ... ... : ... .. . ... ... ... : ... .. . ... ... ... : ... .. . ... ... ...
ROW B1 : ... .. . ... ... ... : ... .. . ... ... ... : D-2 00 . P6F ... ... : ... .. . ... ... ... : ... .. . ... ... ... : ... .. . ... ... ... : ... .. . P7F ... ... : ... .. . ... ... ... : ... .. . ... ... ... : ... .. . ... ... ... : ... .. . ... ... ... : ... .. . ... ... ... : ... .. . ... ... ...
ROW B2 : ... .. . ... ... ... : ... .. . ... ... ... : C-2 00 . P6C ... ... : ... .. 5 ... ... ... : ... .. . ... ... ... : ... .. . ... ... ... : ... .. . P80 ... ... : ... .. . ... ... ... : ... .. . ... ... ... : ... .. . ... ... ... : ... .. . ... ... ... : ... .. . ... ... ... : ... .. . ... ... ...
ROW B3 : ... .. . ... ... ... : ... .. . ... ... ... : A#1 00 . P75 ... ... : ... .. . ... ... ... : ... .. . ... ... ... : ... .. . ... ... ... : ... .. . P81 ... ... : B-5 10 9 ... ... ... : F#5 10 7 ... ... ... : ... .. . ... ... ... : ... .. . ... ... ... : ... .. . ... ... ... : ... .. . ... ... ...
ROW B4 : ... .. . ... ... ... : ... .. . ... ... ... : G#1 00 . P8A ... ... : ... .. 4 ... ... ... : ... .. . ... ... ... : ... .. . ... ... ... : ... .. . P80 ... ... : ... .. . ... ... ... : ... .. . ... ... ... : ... .. . ... ... ... : ... .. . ... ... ... : ... .. . ... ... ... : ... .. . ... ... ...
ROW B5 : ... .. . ... ... ... : ... .. . ... ... ... : G-1 00 . P6A ... ... : ... .. . ... ... ... : ... .. . ... ... ... : ... .. . ... ... ... : ... .. . P7F ... ... : ... .. . ... ... ... : ... .. . ... ... ... : ... .. . ... ... ... : ... .. . ... ... ... : ... .. . ... ... ... : ... .. . ... ... ...
ROW B6 : ... .. . ... ... ... : ... .. . ... ... ... : F-1 00 . P96 ... ... : ... .. 3 ... ... ... : ... .. . ... ... ... : ... .. . ... ... ... : ... .. . P80 ... ... : ... .. . ... ... ... : ... .. . ... ... ... : ... .. . ... ... ... : ... .. . ... ... ... : ... .. . ... ... ... : ... .. . ... ... ...
ROW B7 : ... .. . ... ... ... : ... .. . ... ... ... : C#4 00 . P7F ... ... : 9-# 00 F ... ... ... : C#1 12 . ... ... ... : ... .. . ... ... ... : ... .. . P81 ... ... : B-5 11 8 ... ... ... : F#5 11 . ... ... ... : ... .. . ... ... ... : ... .. . ... ... ... : ... .. . ... ... ... : ... .. . ... ... ...
ROW B8 : ... .. . ... ... ... : ... .. . ... ... ... : F#3 00 . P83 ... ... : 2-# 00 7 ... ... ... : ... .. . ... ... ... : ... .. . ... ... ... : ... .. . ... ... ... : ... .. . ... ... ... : ... .. . ... ... ... : ... .. . ... ... ... : ... .. . ... ... ... : ... .. . ... ... ... : ... .. . ... ... ...
ROW B9 : F#3 02 1 ... ... ... : C#3 02 1 ... ... ... : C#3 00 . P89 ... ... : 6-# 00 C ... ... ... : ... .. . ... ... ... : A#3 0C 1 P82 ... ... : ... .. . P80 ... ... : ... .. . ... ... ... : ... .. . ... ... ... : ... .. . ... ... ... : ... .. . ... ... ... : ... .. . ... ... ... : ... .. . ... ... ...
ROW BA : ... .. . P7E ... ... : ... .. . P7E ... ... : A#2 00 . P75 ... ... : 7-# 00 8 ... ... ... : ... .. . ... ... ... : ... .. . P81 ... ... : ... .. . P7F ... ... : ... .. . ... ... ... : ... .. . ... ... ... : ... .. . ... ... ... : ... .. . ... ... ... : ... .. . ... ... ... : ... .. . ... ... ...
ROW BB : ... .. . P7D ... ... : ... .. . P7D ... ... : G-2 00 . P70 ... ... : 8-# 00 7 ... ... ... : ... .. . ... ... ... : ... .. . P80 ... ... : ... .. . P80 ... ... : ... .. 7 ... ... ... : ... .. 6 ... ... ... : ... .. . ... ... ... : ... .. . ... ... ... : ... .. . ... ... ... : ... .. . ... ... ...
ROW BC : ... .. 2 P7E ... ... : ... .. 2 P7E ... ... : E-2 00 . P7C ... ... : ... .. 6 ... ... ... : ... .. . ... ... ... : ... .. 2 P7F ... ... : ... .. . P81 ... ... : ... .. . ... ... ... : ... .. . ... ... ... : ... .. . ... ... ... : ... .. . ... ... ... : ... .. . ... ... ... : ... .. . ... ... ...
ROW BD : ... .. . P80 ... ... : ... .. . P80 ... ... : D-2 00 . P6F ... ... : ... .. . ... ... ... : ... .. . ... ... ... : ... .. . ... ... ... : ... .. . P80 ... ... : ... .. . ... ... ... : ... .. . ... ... ... : ... .. . ... ... ... : ... .. . ... ... ... : ... .. . ... ... ... : ... .. . ... ... ...
ROW BE : ... .. 3 P82 ... ... : ... .. 3 P82 ... ... : C-2 00 . P6C ... ... : ... .. 5 ... ... ... : ... .. . ... ... ... : ... .. 3 ... ... ... : ... .. . P7F ... ... : ... .. . ... ... ... : ... .. . ... ... ... : ... .. . ... ... ... : ... .. . ... ... ... : ... .. . ... ... ... : ... .. . ... ... ...
ROW BF : ... .. . P83 ... ... : ... .. . P83 ... ... : A#1 00 . P75 ... ... : ... .. . ... ... ... : ... .. . ... ... ... : ... .. . P80 ... ... : ... .. . P80 ... ... : ... .. 6 ... ... ... : ... .. . ... ... ... : ... .. . ... ... ... : ... .. . ... ... ... : ... .. . ... ... ... : ... .. . ... ... ...
ROW C0 : ... .. . P82 ... ... : ... .. . P82 ... ... : G#1 00 . P8A ... ... : ... .. 4 ... ... ... : ... .. . ... ... ... : ... .. . P81 ... ... : ... .. . P81 ... ... : ... .. . ... ... ... : ... .. . ... ... ... : ... .. . ... ... ... : ... .. . ... ... ... : ... .. . ... ... ... : ... .. . ... ... ...
ROW C1 : ... .. 4 P80 ... ... : ... .. 4 P80 ... ... : G-1 00 . P6A ... ... : ... .. . ... ... ... : ... .. . ... ... ... : ... .. 4 P82 ... ... : ... .. . P80 ... ... : ... .. . ... ... ... : ... .. . ... ... ... : ... .. . ... ... ... : ... .. . ... ... ... : ... .. . ... ... ... : ... .. . ... ... ...
ROW C2 : ... .. . P7E ... ... : ... .. . P7E ... ... : F-1 00 . P96 ... ... : ... .. 3 ... ... ... : ... .. . ... ... ... : ... .. . P81 ... ... : ... .. . P7F ... ... : ... .. . ... ... ... : ... .. . ... ... ... : ... .. . ... ... ... : ... .. . ... ... ... : ... .. . ... ... ... : ... .. . ... ... ...
ROW C3 : ... .. . P7D ... ... : ... .. . P7D ... ... : E-1 00 . P82 ... ... : ... .. . ... ... ... : ... .. . ... ... ... : ... .. . P80 ... ... : ... .. . P80 ... ... : ... .. 5 ... ... ... : ... .. 5 ... ... ... : ... .. . ... ... ... : ... .. . ... ... ... : ... .. . ... ... ... : ... .. . ... ... ...
ROW C4 : --- .. . ... ... ... : --- .. . ... ... ... : C#4 00 . P7F ... ... : 9-# 00 F ... ... ... : C#1 12 . ... ... ... : --- .. . ... ... ... : ... .. . P81 ... ... : A#5 0A B ... ... ... : F#5 0A 8 ... ... ... : ... .. . ... ... ... : ... .. . ... ... ... : ... .. . ... ... ... : ... .. . ... ... ...
ROW C5 : ... .. . P80 ... ... : ... .. . P80 ... ... : F#3 00 . P83 ... ... : 2-# 00 7 ... ... ... : ... .. . ... ... ... : ... .. . ... ... ... : ... .. . ... ... ... : A#5 0B . ... ... ... : F#5 0B . ... ... ... : ... .. . ... ... ... : ... .. . ... ... ... : ... .. . ... ... ... : ... .. . ... ... ...
ROW C6 : ... .. . ... ... ... : ... .. . ... ... ... : C#3 00 . P89 ... ... : 6-# 00 C ... ... ... : ... .. . ... ... ... : ... .. . ... ... ... : ... .. . P80 ... ... : A#5 0D . ... ... ... : F#5 0D . ... ... ... : ... .. . ... ... ... : ... .. . ... ... ... : ... .. . ... ... ... : ... .. . ... ... ...
ROW C7 : ... .. . ... ... ... : ... .. . ... ... ... : A#2 00 . P75 ... ... : 7-# 00 8 ... ... ... : ... .. . ... ... ... : ... .. . ... ... ... : ... .. . ... ... ... : A#5 0E . ... ... ... : F#5 0E . ... ... ... : ... .. . ... ... ... : ... .. . ... ... ... : ... .. . ... ... ... : ... .. . ... ... ...
ROW C8 : ... .. . ... ... ... : ... .. . ... ... ... : G-2 00 . P70 ... ... : 8-# 00 7 ... ... ... : ... .. . ... ... ... : ... .. . ... ... ... : ... .. . P81 ... ... : ... .. A ... ... ... : ... .. . ... ... ... : ... .. . ... ... ... : ... .. . ... ... ... : ... .. . ... ... ... : ... .. . ... ... ...
ROW C9 : ... .. . ... ... ... : ... .. . ... ... ... : E-2 00 . P7C ... ... : ... .. 6 ... ... ... : ... .. . ... ... ... : ... .. . ... ... ... : ... .. . ... ... ... : A#5 0F . ... ... ... : F#5 0F . ... ... ... : ... .. . ... ... ... : ... .. . ... ... ... : ... .. . ... ... ... : ... .. . ... ... ...
ROW CA : ... .. . ... ... ... : ... .. . ... ... ... : D-2 00 . P6F ... ... : ... .. . ... ... ... : ... .. . ... ... ... : ... .. . ... ... ... : ... .. . P80 ... ... : ... .. . ... ... ... : ... .. . ... ... ... : ... .. . ... ... ... : ... .. . ... ... ... : ... .. . ... ... ... : ... .. . ... ... ...
ROW CB : ... .. . ... ... ... : ... .. . ... ... ... : C-2 00 . P6C ... ... : ... .. 5 ... ... ... : ... .. . ... ... ... : ... .. . ... ... ... : ... .. . P7F ... ... : ... .. . ... ... ... : ... .. . ... ... ... : ... .. . ... ... ... : ... .. . ... ... ... : ... .. . ... ... ... : ... .. . ... ... ...
ROW CC : ... .. . ... ... ... : ... .. . ... ... ... : A#1 00 . P75 ... ... : ... .. . ... ... ... : ... .. . ... ... ... : ... .. . ... ... ... : ... .. . P80 ... ... : A#5 10 9 ... ... ... : F#5 10 7 ... ... ... : ... .. . ... ... ... : ... .. . ... ... ... : ... .. . ... ... ... : ... .. . ... ... ...
ROW CD : ... .. . ... ... ... : ... .. . ... ... ... : G#1 00 . P8A ... ... : ... .. 4 ... ... ... : ... .. . ... ... ... : ... .. . ... ... ... : ... .. . P81 ... ... : ... .. . ... ... ... : ... .. . ... ... ... : ... .. . ... ... ... : ... .. . ... ... ... : ... .. . ... ... ... : ... .. . ... ... ...
ROW CE : ... .. . ... ... ... : ... .. . ... ... ... : G-1 00 . P6A ... ... : ... .. . ... ... ... : ... .. . ... ... ... : ... .. . ... ... ... : ... .. . P80 ... ... : ... .. . ... ... ... : ... .. . ... ... ... : ... .. . ... ... ... : ... .. . ... ... ... : ... .. . ... ... ... : ... .. . ... ... ...
ROW CF : ... .. . ... ... ... : ... .. . ... ... ... : F-1 00 . P96 ... ... : ... .. 3 ... ... ... : ... .. . ... ... ... : ... .. . ... ... ... : ... .. . P7F ... ... : ... .. . ... ... ... : ... .. . ... ... ... : ... .. . ... ... ... : ... .. . ... ... ... : ... .. . ... ... ... : ... .. . ... ... ...
ROW D0 : ... .. . ... ... ... : ... .. . ... ... ... : C#4 00 . P7F ... ... : 9-# 00 F ... ... ... : C#1 12 . ... ... ... : ... .. . ... ... ... : ... .. . P80 ... ... : A#5 11 8 ... ... ... : F#5 11 . ... ... ... : ... .. . ... ... ... : ... .. . ... ... ... : ... .. . ... ... ... : ... .. . ... ... ...
ROW D1 : ... .. . ... ... ... : ... .. . ... ... ... : F#3 00 . P83 ... ... : 2-# 00 7 ... ... ... : ... .. . ... ... ... : ... .. . ... ... ... : ... .. . P81 ... ... : ... .. . ... ... ... : ... .. . ... ... ... : ... .. . ... ... ... : ... .. . ... ... ... : ... .. . ... ... ... : ... .. . ... ... ...
ROW D2 : F#3 02 1 P7E ... ... : C#3 02 1 P7E ... ... : C#3 00 . P89 ... ... : 6-# 00 C ... ... ... : ... .. . ... ... ... : A#3 0C 1 P81 ... ... : ... .. . P80 ... ... : ... .. . ... ... ... : ... .. . ... ... ... : ... .. . ... ... ... : ... .. . ... ... ... : ... .. . ... ... ... : ... .. . ... ... ...
ROW D3 : ... .. . P7D ... ... : ... .. . P7D ... ... : A#2 00 . P75 ... ... : 7-# 00 8 ... ... ... : ... .. . ... ... ... : ... .. . P80 ... ... : ... .. . P7F ... ... : ... .. . ... ... ... : ... .. . ... ... ... : ... .. . ... ... ... : ... .. . ... ... ... : ... .. . ... ... ... : ... .. . ... ... ...
ROW D4 : ... .. . P7E ... ... : ... .. . P7E ... ... : G-2 00 . P70 ... ... : 8-# 00 7 ... ... ... : ... .. . ... ... ... : ... .. . P7F ... ... : ... .. . P80 ... ... : ... .. 7 ... ... ... : ... .. 6 ... ... ... : ... .. . ... ... ... : ... .. . ... ... ... : ... .. . ... ... ... : ... .. . ... ... ...
ROW D5 : ... .. 2 P80 ... ... : ... .. 2 P80 ... ... : E-2 00 . P7C ... ... : ... .. 6 ... ... ... : ... .. . ... ... ... : ... .. 2 ... ... ... : ... .. . P81 ... ... : ... .. . ... ... ... : ... .. . ... ... ... : ... .. . ... ... ... : ... .. . ... ... ... : ... .. . ... ... ... : ... .. . ... ... ...
ROW D6 : ... .. . P82 ... ... : ... .. . P82 ... ... : D-2 00 . P6F ... ... : ... .. . ... ... ... : ... .. . ... ... ... : ... .. . ... ... ... : ... .. . ... ... ... : ... .. . ... ... ... : ... .. . ... ... ... : ... .. . ... ... ... : ... .. . ... ... ... : ... .. . ... ... ... : ... .. . ... ... ...
ROW D7 : ... .. 3 P83 ... ... : ... .. 3 P83 ... ... : C-2 00 . P6C ... ... : ... .. 5 ... ... ... : ... .. . ... ... ... : ... .. 3 P80 ... ... : ... .. . P80 ... ... : ... .. . ... ... ... : ... .. . ... ... ... : ... .. . ... ... ... : ... .. . ... ... ... : ... .. . ... ... ... : ... .. . ... ... ...
ROW D8 : ... .. . P82 ... ... : ... .. . P82 ... ... : A#1 00 . P75 ... ... : ... .. . ... ... ... : ... .. . ... ... ... : ... .. . P81 ... ... : ... .. . ... ... ... : ... .. 6 ... ... ... : ... .. . ... ... ... : ... .. . ... ... ... : ... .. . ... ... ... : ... .. . ... ... ... : ... .. . ... ... ...
ROW D9 : ... .. . P80 ... ... : ... .. . P80 ... ... : G#1 00 . P8A ... ... : ... .. 4 ... ... ... : ... .. . ... ... ... : ... .. . P82 ... ... : ... .. . P81 ... ... : ... .. . ... ... ... : ... .. . ... ... ... : ... .. . ... ... ... : ... .. . ... ... ... : ... .. . ... ... ... : ... .. . ... ... ...
ROW DA : ... .. 4 P7E ... ... : ... .. 4 P7E ... ... : G-1 00 . P6A ... ... : ... .. . ... ... ... : ... .. . ... ... ... : ... .. 4 P81 ... ... : ... .. . ... ... ... : ... .. . ... ... ... : ... .. . ... ... ... : ... .. . ... ... ... : ... .. . ... ... ... : ... .. . ... ... ... : ... .. . ... ... ...
ROW DB : ... .. . P7D ... ... : ... .. . P7D ... ... : F-1 00 . P96 ... ... : ... .. 3 ... ... ... : ... .. . ... ... ... : ... .. . P80 ... ... : ... .. . P80 ... ... : ... .. . ... ... ... : ... .. . ... ... ... : ... .. . ... ... ... : ... .. . ... ... ... : ... .. . ... ... ... : ... .. . ... ... ...
ROW DC : ... .. . P7E ... ... : ... .. . P7E ... ... : E-1 00 . P82 ... ... : ... .. . ... ... ... : ... .. . ... ... ... : ... .. . P7F ... ... : ... .. . P7F ... ... : ... .. 5 ... ... ... : ... .. 5 ... ... ... : ... .. . ... ... ... : ... .. . ... ... ... : ... .. . ... ... ... : ... .. . ... ... ...
ROW DD : --- .. . ... ... ... : --- .. . ... ... ... : C#4 00 . P7F ... ... : 9-# 00 F ... ... ... : C#1 12 . ... ... ... : --- .. . ... ... ... : D#2 03 . P80 ... ... : F#5 0A B ... ... ... : D#5 0A 8 ... ... ... : ... .. . ... ... ... : ... .. . ... ... ... : ... .. . ... ... ... : ... .. . ... ... ...
ROW DE : ... .. . P80 ... ... : ... .. . P80 ... ... : F#3 00 . P83 ... ... : 2-# 00 7 ... ... ... : ... .. . ... ... ... : ... .. . P80 ... ... : ... .. . P81 ... ... : F#5 0B . ... ... ... : D#5 0B . ... ... ... : ... .. . ... ... ... : ... .. . ... ... ... : ... .. . ... ... ... : ... .. . ... ... ...
ROW DF : ... .. . ... ... ... : ... .. . ... ... ... : C#3 00 . P89 ... ... : 6-# 00 C ... ... ... : ... .. . ... ... ... : ... .. . ... ... ... : ... .. . P80 ... ... : F#5 0D . ... ... ... : D#5 0D . ... ... ... : ... .. . ... ... ... : ... .. . ... ... ... : ... .. . ... ... ... : ... .. . ... ... ...
ROW E0 : ... .. . ... ... ... : ... .. . ... ... ... : A#2 00 . P75 ... ... : 7-# 00 8 ... ... ... : ... .. . ... ... ... : ... .. . ... ... ... : ... .. . P7F ... ... : F#5 0E . ... ... ... : D#5 0E . ... ... ... : ... .. . ... ... ... : ... .. . ... ... ... : ... .. . ... ... ... : ... .. . ... ... ...
ROW E1 : ... .. . ... ... ... : ... .. . ... ... ... : G-2 00 . P70 ... ... : 8-# 00 7 ... ... ... : ... .. . ... ... ... : ... .. . ... ... ... : ... .. . P80 ... ... : ... .. A ... ... ... : ... .. . ... ... ... : ... .. . ... ... ... : ... .. . ... ... ... : ... .. . ... ... ... : ... .. . ... ... ...
ROW E2 : ... .. . ... ... ... : ... .. . ... ... ... : E-2 00 . P7C ... ... : ... .. 6 ... ... ... : ... .. . ... ... ... : ... .. . ... ... ... : ... .. . P81 ... ... : F#5 0F . ... ... ... : D#5 0F . ... ... ... : ... .. . ... ... ... : ... .. . ... ... ... : ... .. . ... ... ... : ... .. . ... ... ...
ROW E3 : ... .. . ... ... ... : ... .. . ... ... ... : C#4 00 . P7F ... ... : 9-# 00 F ... ... ... : C#1 12 . ... ... ... : ... .. . ... ... ... : ... .. . P80 ... ... : ... .. . ... ... ... : ... .. . ... ... ... : G#4 0C . P84 ... ... : ... .. . ... ... ... : ... .. . ... ... ... : ... .. . ... ... ...
ROW E4 : ... .. . ... ... ... : ... .. . ... ... ... : F#3 00 . P83 ... ... : 2-# 00 7 ... ... ... : ... .. . ... ... ... : ... .. . ... ... ... : ... .. . P7F ... ... : ... .. . ... ... ... : ... .. . ... ... ... : ... .. . P82 ... ... : ... .. . ... ... ... : ... .. . ... ... ... : ... .. . ... ... ...
ROW E5 : ... .. . ... ... ... : ... .. . ... ... ... : C#3 00 . P89 ... ... : 6-# 00 C ... ... ... : ... .. . ... ... ... : ... .. . ... ... ... : ... .. . P80 ... ... : F#5 10 9 ... ... ... : D#5 10 7 ... ... ... : ... .. . P7F ... ... : ... .. . ... ... ... : ... .. . ... ... ... : ... .. . ... ... ...
ROW E6 : ... .. . ... ... ... : ... .. . ... ... ... : A#2 00 . P75 ... ... : 7-# 00 8 ... ... ... : ... .. . ... ... ... : ... .. . ... ... ... : ... .. . P81 ... ... : ... .. . ... ... ... : ... .. . ... ... ... : ... .. . P7D ... ... : ... .. . ... ... ... : ... .. . ... ... ... : ... .. . ... ... ...
ROW E7 : ... .. . ... ... ... : ... .. . ... ... ... : G-2 00 . P70 ... ... : 8-# 00 7 ... ... ... : ... .. . ... ... ... : ... .. . ... ... ... : ... .. . ... ... ... : ... .. . ... ... ... : ... .. . ... ... ... : --- .. . ... ... ... : ... .. . ... ... ... : ... .. . ... ... ... : ... .. . ... ... ...
ROW E8 : ... .. . ... ... ... : ... .. . ... ... ... : E-2 00 . P7C ... ... : ... .. 6 ... ... ... : ... .. . ... ... ... : ... .. . ... ... ... : ... .. . P80 ... ... : ... .. . ... ... ... : ... .. . ... ... ... : ... .. . P80 ... ... : ... .. . ... ... ... : ... .. . ... ... ... : ... .. . ... ... ...
ROW E9 : ... .. . ... ... ... : ... .. . ... ... ... : C#4 00 . P7F ... ... : 9-# 00 F ... ... ... : C#1 12 . ... ... ... : ... .. . ... ... ... : ... .. . ... ... ... : F#5 11 8 ... ... ... : D#5 11 . ... ... ... : G#4 0C 2 P76 ... ... : ... .. . ... ... ... : ... .. . ... ... ... : ... .. . ... ... ...
ROW EA : ... .. . ... ... ... : ... .. . ... ... ... : F#3 00 . P83 ... ... : 2-# 00 7 ... ... ... : ... .. . ... ... ... : ... .. . ... ... ... : ... .. . P81 ... ... : ... .. . ... ... ... : ... .. . ... ... ... : A-4 0C . P89 ... ... : ... .. . ... ... ... : ... .. . ... ... ... : ... .. . ... ... ...
ROW EB : D#3 02 1 P7D ... ... : A#2 02 1 P7D ... ... : C#3 00 . P89 ... ... : 6-# 00 C ... ... ... : ... .. . ... ... ... : G-3 0C 1 ... ... ... : ... .. . ... ... ... : ... .. . ... ... ... : ... .. . ... ... ... : ... .. . P86 ... ... : ... .. . ... ... ... : ... .. . ... ... ... : ... .. . ... ... ...
ROW EC : ... .. . P7E ... ... : ... .. . P7E ... ... : A#2 00 . P75 ... ... : 7-# 00 8 ... ... ... : ... .. . ... ... ... : ... .. . P7F ... ... : ... .. . P80 ... ... : ... .. . ... ... ... : ... .. . ... ... ... : ... .. . P84 ... ... : ... .. . ... ... ... : ... .. . ... ... ... : ... .. . ... ... ...
ROW ED : ... .. . P80 ... ... : ... .. . P80 ... ... : G-2 00 . P70 ... ... : 8-# 00 7 ... ... ... : ... .. . ... ... ... : ... .. . ... ... ... : ... .. . P7F ... ... : ... .. 7 ... ... ... : ... .. 6 ... ... ... : ... .. 1 P82 ... ... : ... .. . ... ... ... : ... .. . ... ... ... : ... .. . ... ... ...
ROW EE : ... .. 2 P82 ... ... : ... .. 2 P82 ... ... : E-2 00 . P7C ... ... : ... .. 6 ... ... ... : ... .. . ... ... ... : ... .. 2 ... ... ... : ... .. . P80 ... ... : ... .. . ... ... ... : ... .. . ... ... ... : ... .. . P80 ... ... : ... .. . ... ... ... : ... .. . ... ... ... : ... .. . ... ... ...
ROW EF : ... .. . P83 ... ... : ... .. . P83 ... ... : C#4 00 . P7F ... ... : 9-# 00 F ... ... ... : C#1 12 . ... ... ... : ... .. . P80 ... ... : ... .. . P81 ... ... : ... .. . ... ... ... : ... .. . ... ... ... : ... .. 3 P7D ... ... : ... .. . ... ... ... : ... .. . ... ... ... : ... .. . ... ... ...
ROW F0 : ... .. 3 P82 ... ... : ... .. 3 P82 ... ... : F#3 00 . P83 ... ... : 2-# 00 7 ... ... ... : ... .. . ... ... ... : ... .. 3 P81 ... ... : ... .. . P80 ... ... : ... .. . ... ... ... : ... .. . ... ... ... : ... .. . P7B ... ... : ... .. . ... ... ... : ... .. . ... ... ... : ... .. . ... ... ...
ROW F1 : ... .. . P80 ... ... : ... .. . P80 ... ... : C#3 00 . P89 ... ... : 6-# 00 C ... ... ... : ... .. . ... ... ... : ... .. . P82 ... ... : ... .. . P7F ... ... : ... .. 6 ... ... ... : ... .. . ... ... ... : ... .. . P79 ... ... : ... .. . ... ... ... : ... .. . ... ... ... : ... .. . ... ... ...
ROW F2 : ... .. . P7E ... ... : ... .. . P7E ... ... : A#2 00 . P75 ... ... : 7-# 00 8 ... ... ... : ... .. . ... ... ... : ... .. . P81 ... ... : ... .. . P80 ... ... : ... .. . ... ... ... : ... .. . ... ... ... : ... .. . P77 ... ... : ... .. . ... ... ... : ... .. . ... ... ... : ... .. . ... ... ...
ROW F3 : ... .. 4 P7D ... ... : ... .. 4 P7D ... ... : G-2 00 . P70 ... ... : 8-# 00 7 ... ... ... : ... .. . ... ... ... : ... .. 4 P80 ... ... : ... .. . P81 ... ... : ... .. . ... ... ... : ... .. . ... ... ... : A#4 0C 2 P8A ... ... : ... .. . ... ... ... : ... .. . ... ... ... : ... .. . ... ... ...
ROW F4 : ... .. . P7E ... ... : ... .. . P7E ... ... : E-2 00 . P7C ... ... : ... .. 6 ... ... ... : ... .. . ... ... ... : ... .. . P7F ... ... : ... .. . P80 ... ... : ... .. . ... ... ... : ... .. . ... ... ... : ... .. . P88 ... ... : ... .. . ... ... ... : ... .. . ... ... ... : ... .. . ... ... ...
ROW F5 : ... .. . P80 ... ... : ... .. . P80 ... ... : D-2 00 . P6F ... ... : ... .. . ... ... ... : ... .. . ... ... ... : ... .. . ... ... ... : ... .. . P7F ... ... : ... .. 5 ... ... ... : ... .. 5 ... ... ... : ... .. . P85 ... ... : ... .. . ... ... ... : ... .. . ... ... ... : ... .. . ... ... ...
ROW F6 : --- .. . ... ... ... : --- .. . ... ... ... : C#4 00 . P7F ... ... : 9-# 00 F ... ... ... : C#1 12 . ... ... ... : --- .. . ... ... ... : ... .. . P80 ... ... : --- .. . ... ... ... : A#4 0A 8 ... ... ... : ... .. 4 P83 ... ... : ... .. . ... ... ... : ... .. . ... ... ... : ... .. . ... ... ...
ROW F7 : ... .. . ... ... ... : ... .. . ... ... ... : F#3 00 . P83 ... ... : 2-# 00 7 ... ... ... : ... .. . ... ... ... : ... .. . P80 ... ... : ... .. . P81 ... ... : ... .. . ... ... ... : A#4 0B . ... ... ... : ... .. . P81 ... ... : ... .. . ... ... ... : ... .. . ... ... ... : ... .. . ... ... ...
ROW F8 : ... .. . ... ... ... : ... .. . ... ... ... : C#3 00 . P89 ... ... : 6-# 00 C ... ... ... : ... .. . ... ... ... : ... .. . ... ... ... : ... .. . ... ... ... : ... .. . ... ... ... : A#4 0D . ... ... ... : ... .. . P7F ... ... : ... .. . ... ... ... : ... .. . ... ... ... : ... .. . ... ... ...
ROW F9 : ... .. . ... ... ... : ... .. . ... ... ... : A#2 00 . P75 ... ... : 7-# 00 8 ... ... ... : ... .. . ... ... ... : ... .. . ... ... ... : ... .. . P80 ... ... : ... .. . ... ... ... : A#4 0E . ... ... ... : ... .. . P7C ... ... : ... .. . ... ... ... : ... .. . ... ... ... : ... .. . ... ... ...
ROW FA : ... .. . ... ... ... : ... .. . ... ... ... : G-2 00 . P70 ... ... : 8-# 00 7 ... ... ... : ... .. . ... ... ... : ... .. . ... ... ... : ... .. . P7F ... ... : ... .. . ... ... ... : ... .. . ... ... ... : ... .. 3 P7A ... ... : ... .. . ... ... ... : ... .. . ... ... ... : ... .. . ... ... ...
ROW FB : ... .. . ... ... ... : ... .. . ... ... ... : E-2 00 . P7C ... ... : ... .. 6 ... ... ... : ... .. . ... ... ... : ... .. . ... ... ... : ... .. . P80 ... ... : ... .. . ... ... ... : A#4 0F . ... ... ... : ... .. . P78 ... ... : ... .. . ... ... ... : ... .. . ... ... ... : ... .. . ... ... ...
ROW FC : ... .. . ... ... ... : ... .. . ... ... ... : C#4 00 . P7F ... ... : 9-# 00 F ... ... ... : C#1 12 . ... ... ... : ... .. . ... ... ... : ... .. . P81 ... ... : ... .. . ... ... ... : ... .. . ... ... ... : ... .. . P76 ... ... : ... .. . ... ... ... : ... .. . ... ... ... : ... .. . ... ... ...
ROW FD : ... .. . ... ... ... : ... .. . ... ... ... : F#3 00 . P83 ... ... : 2-# 00 7 ... ... ... : ... .. . ... ... ... : ... .. . ... ... ... : ... .. . P80 ... ... : ... .. . ... ... ... : ... .. . ... ... ... : B-4 0C . P8A ... ... : ... .. . ... ... ... : ... .. . ... ... ... : ... .. . ... ... ...
ROW FE : ... .. . ... ... ... : ... .. . ... ... ... : C#3 00 . P89 ... ... : 6-# 00 C ... ... ... : ... .. . ... ... ... : ... .. . ... ... ... : ... .. . P7F ... ... : ... .. . ... ... ... : A#4 10 7 ... ... ... : ... .. 2 P88 ... ... : ... .. . ... ... ... : ... .. . ... ... ... : ... .. . ... ... ...
ROW FF : ... .. . ... ... ... : ... .. . ... ... ... : A#2 00 . P75 ... ... : 7-# 00 8 ... ... ... : ... .. . ... ... ... : ... .. . ... ... ... : ... .. . P80 ... ... : ... .. . ... ... ... : ... .. . ... ... ... : ... .. . P86 ... ... : ... .. . ... ... ... : ... .. . ... ... ... : ... .. . ... ... ...

PATTERN 06
ROW 00 : ... .. . ... ... ... : ... .. . ... ... ... : G-2 00 . P70 ... ... : 8-# 00 7 ... ... ... : ... .. . ... ... ... : ... .. . ... ... ... : ... .. . P81 ... ... : ... .. . ... ... ... : ... .. . ... ... ... : ... .. . P83 ... ... : ... .. . ... ... ... : ... .. . ... ... ... : ... .. . ... ... ...
ROW 01 : ... .. . ... ... ... : ... .. . ... ... ... : E-2 00 . P7C ... ... : ... .. 6 ... ... ... : ... .. . ... ... ... : ... .. . ... ... ... : ... .. . P80 ... ... : ... .. . ... ... ... : ... .. . ... ... ... : ... .. . P81 ... ... : ... .. . ... ... ... : ... .. . ... ... ... : ... .. . ... ... ...
ROW 02 : ... .. . ... ... ... : ... .. . ... ... ... : C#4 00 . P7F ... ... : 9-# 00 F ... ... ... : C#1 12 . ... ... ... : ... .. . ... ... ... : ... .. . P7F ... ... : G-5 0A B ... ... ... : D#5 0A 8 ... ... ... : ... .. 5 P7F ... ... : ... .. . ... ... ... : ... .. . ... ... ... : ... .. . ... ... ...
ROW 03 : ... .. . ... ... ... : ... .. . ... ... ... : F#3 00 . P83 ... ... : 2-# 00 7 ... ... ... : ... .. . ... ... ... : ... .. . ... ... ... : ... .. . P80 ... ... : G-5 0B . ... ... ... : D#5 0B . ... ... ... : ... .. . P7D ... ... : ... .. . ... ... ... : ... .. . ... ... ... : ... .. . ... ... ...
ROW 04 : D#3 02 1 P7E ... ... : A#2 02 1 P7E ... ... : C#3 00 . P89 ... ... : 6-# 00 C ... ... ... : ... .. . ... ... ... : G-3 0C 1 P7F ... ... : ... .. . P81 ... ... : G-5 0D . ... ... ... : D#5 0D . ... ... ... : ... .. . P7A ... ... : ... .. . ... ... ... : ... .. . ... ... ... : ... .. . ... ... ...
ROW 05 : ... .. . P80 ... ... : ... .. . P80 ... ... : A#2 00 . P75 ... ... : 7-# 00 8 ... ... ... : ... .. . ... ... ... : ... .. . ... ... ... : ... .. . ... ... ... : G-5 0E . ... ... ... : D#5 0E . ... ... ... : ... .. . P78 ... ... : ... .. . ... ... ... : ... .. . ... ... ... : ... .. . ... ... ...
ROW 06 : ... .. . P82 ... ... : ... .. . P82 ... ... : G-2 00 . P70 ... ... : 8-# 00 7 ... ... ... : ... .. . ... ... ... : ... .. . ... ... ... : ... .. . P80 ... ... : ... .. A ... ... ... : ... .. . ... ... ... : ... .. 4 P76 ... ... : ... .. . ... ... ... : ... .. . ... ... ... : ... .. . ... ... ...
ROW 07 : ... .. 2 P83 ... ... : ... .. 2 P83 ... ... : E-2 00 . P7C ... ... : ... .. 6 ... ... ... : ... .. . ... ... ... : ... .. 2 P80 ... ... : ... .. . ... ... ... : G-5 0F . ... ... ... : D#5 0F . ... ... ... : C-5 0C . P8C ... ... : ... .. . ... ... ... : ... .. . ... ... ... : ... .. . ... ... ...
ROW 08 : ... .. . P82 ... ... : ... .. . P82 ... ... : C#4 00 . P7F ... ... : 9-# 00 F ... ... ... : C#1 12 . ... ... ... : ... .. . P81 ... ... : ... .. . P81 ... ... : ... .. . ... ... ... : ... .. . ... ... ... : ... .. . P8A ... ... : ... .. . ... ... ... : ... .. . ... ... ... : ... .. . ... ... ...
ROW 09 : ... .. 3 P80 ... ... : ... .. 3 P80 ... ... : F#3 00 . P83 ... ... : 2-# 00 7 ... ... ... : ... .. . ... ... ... : ... .. 3 P82 ... ... : ... .. . ... ... ... : ... .. . ... ... ... : ... .. . ... ... ... : ... .. . P87 ... ... : ... .. . ... ... ... : ... .. . ... ... ... : ... .. . ... ... ...
ROW 0A : ... .. . P7E ... ... : ... .. . P7E ... ... : C#3 00 . P89 ... ... : 6-# 00 C ... ... ... : ... .. . ... ... ... : ... .. . P81 ... ... : ... .. . P80 ... ... : G-5 10 9 ... ... ... : D#5 10 7 ... ... ... : ... .. 3 P85 ... ... : ... .. . ... ... ... : ... .. . ... ... ... : ... .. . ... ... ...
ROW 0B : ... .. . P7D ... ... : ... .. . P7D ... ... : A#2 00 . P75 ... ... : 7-# 00 8 ... ... ... : ... .. . ... ... ... : ... .. . P80 ... ... : ... .. . P7F ... ... : ... .. . ... ... ... : ... .. . ... ... ... : ... .. . P83 ... ... : ... .. . ... ... ... : ... .. . ... ... ... : ... .. . ... ... ...
ROW 0C : ... .. 4 P7E ... ... : ... .. 4 P7E ... ... : G-2 00 . P70 ... ... : 8-# 00 7 ... ... ... : ... .. . ... ... ... : ... .. 4 P7F ... ... : ... .. . P80 ... ... : ... .. . ... ... ... : ... .. . ... ... ... : ... .. . P81 ... ... : ... .. . ... ... ... : ... .. . ... ... ... : ... .. . ... ... ...
ROW 0D : ... .. . P80 ... ... : ... .. . P80 ... ... : E-2 00 . P7C ... ... : ... .. 6 ... ... ... : ... .. . ... ... ... : ... .. . ... ... ... : ... .. . P81 ... ... : ... .. . ... ... ... : ... .. . ... ... ... : ... .. . P7E ... ... : ... .. . ... ... ... : ... .. . ... ... ... : ... .. . ... ... ...
ROW 0E : ... .. . P82 ... ... : ... .. . P82 ... ... : D-2 00 . P6F ... ... : ... .. . ... ... ... : ... .. . ... ... ... : ... .. . ... ... ... : ... .. . P80 ... ... : G-5 11 8 ... ... ... : D#5 11 . ... ... ... : ... .. 2 P7C ... ... : ... .. . ... ... ... : ... .. . ... ... ... : ... .. . ... ... ...
ROW 0F : --- .. . ... ... ... : --- .. . ... ... ... : C#4 00 . P7F ... ... : 9-# 00 F ... ... ... : C#1 12 . ... ... ... : --- .. . ... ... ... : ... .. . P7F ... ... : ... .. . ... ... ... : ... .. . ... ... ... : ... .. 6 P7A ... ... : ... .. . ... ... ... : ... .. . ... ... ... : ... .. . ... ... ...
ROW 10 : ... .. . P80 ... ... : ... .. . P80 ... ... : F#3 00 . P83 ... ... : 2-# 00 7 ... ... ... : ... .. . ... ... ... : ... .. . P80 ... ... : ... .. . P80 ... ... : ... .. . ... ... ... : ... .. . ... ... ... : ... .. . P78 ... ... : ... .. . ... ... ... : ... .. . ... ... ... : ... .. . ... ... ...
ROW 11 : ... .. . ... ... ... : ... .. . ... ... ... : C#3 00 . P89 ... ... : 6-# 00 C ... ... ... : ... .. . ... ... ... : ... .. . ... ... ... : ... .. . P81 ... ... : ... .. . ... ... ... : ... .. . ... ... ... : ... .. . P75 ... ... : ... .. . ... ... ... : ... .. . ... ... ... : ... .. . ... ... ...
ROW 12 : ... .. . ... ... ... : ... .. . ... ... ... : A#2 00 . P75 ... ... : 7-# 00 8 ... ... ... : C#1 12 . ... ... ... : ... .. . ... ... ... : ... .. . P80 ... ... : ... .. 7 ... ... ... : ... .. 6 ... ... ... : C#5 0C . P8D ... ... : ... .. . ... ... ... : ... .. . ... ... ... : ... .. . ... ... ...
ROW 13 : ... .. . ... ... ... : ... .. . ... ... ... : G-2 00 . P70 ... ... : 8-# 00 7 ... ... ... : ... .. . ... ... ... : ... .. . ... ... ... : ... .. . P7F ... ... : ... .. . ... ... ... : ... .. . ... ... ... : ... .. 5 P8B ... ... : ... .. . ... ... ... : ... .. . ... ... ... : ... .. . ... ... ...
ROW 14 : ... .. . ... ... ... : ... .. . ... ... ... : E-2 00 . P7C ... ... : ... .. 6 ... ... ... : ... .. . ... ... ... : ... .. . ... ... ... : ... .. . P80 ... ... : ... .. . ... ... ... : ... .. . ... ... ... : ... .. . P88 ... ... : ... .. . ... ... ... : ... .. . ... ... ... : ... .. . ... ... ...
ROW 15 : ... .. . ... ... ... : ... .. . ... ... ... : C#4 00 . P7F ... ... : 9-# 00 F ... ... ... : C#1 12 . ... ... ... : ... .. . ... ... ... : ... .. . P81 ... ... : ... .. . ... ... ... : ... .. . ... ... ... : ... .. . P86 ... ... : ... .. . ... ... ... : ... .. . ... ... ... : ... .. . ... ... ...
ROW 16 : ... .. . ... ... ... : ... .. . ... ... ... : F#3 00 . P83 ... ... : 2-# 00 7 ... ... ... : C#1 12 . ... ... ... : ... .. . ... ... ... : ... .. . ... ... ... : ... .. 6 ... ... ... : ... .. . ... ... ... : ... .. . P84 ... ... : ... .. . ... ... ... : ... .. . ... ... ... : ... .. . ... ... ...
ROW 17 : ... .. . ... ... ... : ... .. . ... ... ... : C#3 00 . P89 ... ... : 6-# 00 C ... ... ... : ... .. . ... ... ... : ... .. . ... ... ... : ... .. . P80 ... ... : ... .. . ... ... ... : ... .. . ... ... ... : ... .. 4 P82 ... ... : ... .. . ... ... ... : ... .. . ... ... ... : ... .. . ... ... ...
ROW 18 : ... .. . ... ... ... : ... .. . ... ... ... : A#2 00 . P75 ... ... : 7-# 00 8 ... ... ... : ... .. . ... ... ... : ... .. . ... ... ... : ... .. . ... ... ... : ... .. . ... ... ... : ... .. . ... ... ... : ... .. . P7F ... ... : ... .. . ... ... ... : ... .. . ... ... ... : ... .. . ... ... ...
ROW 19 : ... .. . ... ... ... : ... .. . ... ... ... : G-2 00 . P70 ... ... : 8-# 00 7 ... ... ... : ... .. . ... ... ... : ... .. . ... ... ... : ... .. . P81 ... ... : ... .. . ... ... ... : ... .. . ... ... ... : ... .. . P7D ... ... : ... .. . ... ... ... : ... .. . ... ... ... : ... .. . ... ... ...
ROW 1A : ... .. . ... ... ... : ... .. . ... ... ... : E-2 00 . P7C ... ... : ... .. 6 ... ... ... : C#1 12 . ... ... ... : ... .. . ... ... ... : ... .. . ... ... ... : ... .. 5 ... ... ... : ... .. 5 ... ... ... : ... .. . P7B ... ... : ... .. . ... ... ... : ... .. . ... ... ... : ... .. . ... ... ...
ROW 1B : ... .. . ... ... ... : ... .. . ... ... ... : C#4 00 . P7F ... ... : 9-# 00 F ... ... ... : C#1 12 . ... ... ... : ... .. . ... ... ... : ... .. . P80 ... ... : ... .. . ... ... ... : ... .. . ... ... ... : ... .. 7 P79 ... ... : ... .. . ... ... ... : ... .. . ... ... ... : ... .. . ... ... ...
ROW 1C : ... .. . ... ... ... : ... .. . ... ... ... : F#3 00 . P83 ... ... : 2-# 00 7 ... ... ... : ... .. . ... ... ... : ... .. . ... ... ... : ... .. . P7F ... ... : ... .. . ... ... ... : ... .. . ... ... ... : ... .. . P76 ... ... : ... .. . ... ... ... : ... .. . ... ... ... : ... .. . ... ... ...
ROW 1D : D#3 02 1 ... ... ... : A#2 02 1 ... ... ... : C#3 00 . P89 ... ... : 6-# 00 C ... ... ... : ... .. . ... ... ... : G-3 0C 1 P7F ... ... : ... .. . P80 ... ... : ... .. . ... ... ... : ... .. . ... ... ... : ... .. . P74 ... ... : ... .. . ... ... ... : ... .. . ... ... ... : ... .. . ... ... ...
ROW 1E : ... .. . P82 ... ... : ... .. . P82 ... ... : A#2 00 . P75 ... ... : 7-# 00 8 ... ... ... : C#1 12 . ... ... ... : ... .. . ... ... ... : ... .. . P81 ... ... : ... .. 4 ... ... ... : ... .. . ... ... ... : D-5 0C . P8D ... ... : ... .. . ... ... ... : ... .. . ... ... ... : ... .. . ... ... ...
ROW 1F : ... .. . P83 ... ... : ... .. . P83 ... ... : G-2 00 . P70 ... ... : 8-# 00 7 ... ... ... : ... .. . ... ... ... : ... .. . P80 ... ... : ... .. . P80 ... ... : ... .. . ... ... ... : ... .. . ... ... ... : ... .. 6 P8B ... ... : ... .. . ... ... ... : ... .. . ... ... ... : ... .. . ... ... ...
ROW 20 : ... .. 2 P82 ... ... : ... .. 2 P82 ... ... : E-2 00 . P7C ... ... : ... .. 6 ... ... ... : ... .. . ... ... ... : ... .. 2 P81 ... ... : ... .. . P7F ... ... : ... .. . ... ... ... : ... .. . ... ... ... : ... .. . P88 ... ... : ... .. . ... ... ... : ... .. . ... ... ... : ... .. . ... ... ...
ROW 21 : ... .. . P80 ... ... : ... .. . P80 ... ... : C#4 00 . P7F ... ... : 9-# 00 F ... ... ... : C#1 12 . ... ... ... : ... .. . P82 ... ... : ... .. . P80 ... ... : ... .. . ... ... ... : ... .. . ... ... ... : ... .. . P86 ... ... : ... .. . ... ... ... : ... .. . ... ... ... : ... .. . ... ... ...
ROW 22 : ... .. 3 P7E ... ... : ... .. 3 P7E ... ... : F#3 00 . P83 ... ... : 2-# 00 7 ... ... ... : C#1 12 . ... ... ... : ... .. 3 P81 ... ... : ... .. . P81 ... ... : ... .. 3 ... ... ... : ... .. 4 ... ... ... : ... .. . P84 ... ... : ... .. . ... ... ... : ... .. . ... ... ... : ... .. . ... ... ...
ROW 23 : ... .. . P7D ... ... : ... .. . P7D ... ... : C#3 00 . P89 ... ... : 6-# 00 C ... ... ... : ... .. . ... ... ... : ... .. . P80 ... ... : ... .. . P80 ... ... : ... .. . ... ... ... : ... .. . ... ... ... : ... .. 5 P82 ... ... : ... .. . ... ... ... : ... .. . ... ... ... : ... .. . ... ... ...
ROW 24 : ... .. . P7E ... ... : ... .. . P7E ... ... : A#2 00 . P75 ... ... : 7-# 00 8 ... ... ... : ... .. . ... ... ... : ... .. . P7F ... ... : ... .. . P7F ... ... : ... .. . ... ... ... : ... .. . ... ... ... : ... .. . P7F ... ... : ... .. . ... ... ... : ... .. . ... ... ... : ... .. . ... ... ...
ROW 25 : ... .. 4 P80 ... ... : ... .. 4 P80 ... ... : G-2 00 . P70 ... ... : 8-# 00 7 ... ... ... : ... .. . ... ... ... : ... .. 4 ... ... ... : ... .. . P80 ... ... : ... .. . ... ... ... : ... .. . ... ... ... : ... .. . P7D ... ... : ... .. . ... ... ... : ... .. . ... ... ... : ... .. . ... ... ...
ROW 26 : ... .. . P82 ... ... : ... .. . P82 ... ... : E-2 00 . P7C ... ... : ... .. 6 ... ... ... : C#1 12 . ... ... ... : ... .. . ... ... ... : ... .. . P81 ... ... : ... .. 2 ... ... ... : ... .. . ... ... ... : ... .. . P7B ... ... : ... .. . ... ... ... : ... .. . ... ... ... : ... .. . ... ... ...
ROW 27 : ... .. . P83 ... ... : ... .. . P83 ... ... : D-2 00 . P6F ... ... : ... .. . ... ... ... : ... .. . ... ... ... : ... .. . P80 ... ... : ... .. . ... ... ... : ... .. . ... ... ... : ... .. . ... ... ... : ... .. 4 P79 ... ... : ... .. . ... ... ... : ... .. . ... ... ... : ... .. . ... ... ...
ROW 28 : --- .. . ... ... ... : --- .. . ... ... ... : C#4 00 . P7F ... ... : 9-# 00 F ... ... ... : C#1 12 . ... ... ... : --- .. . ... ... ... : ... .. . P80 ... ... : ... .. . ... ... ... : ... .. . ... ... ... : ... .. 8 P76 ... ... : ... .. . ... ... ... : ... .. . ... ... ... : ... .. . ... ... ...
ROW 29 : ... .. . P80 ... ... : ... .. . P80 ... ... : F#3 00 . P83 ... ... : 2-# 00 7 ... ... ... : ... .. . ... ... ... : ... .. . ... ... ... : ... .. . ... ... ... : ... .. . ... ... ... : ... .. . ... ... ... : ... .. . P74 ... ... : ... .. . ... ... ... : ... .. . ... ... ... : ... .. . ... ... ...
ROW 2A : ... .. . ... ... ... : ... .. . ... ... ... : C#3 00 . P89 ... ... : 6-# 00 C ... ... ... : C#1 12 . ... ... ... : ... .. . ... ... ... : ... .. . P81 ... ... : ... .. 1 ... ... ... : ... .. 3 ... ... ... : D#5 0C . P8F ... ... : ... .. . ... ... ... : ... .. . ... ... ... : ... .. . ... ... ...
ROW 2B : ... .. . ... ... ... : ... .. . ... ... ... : A#2 00 . P75 ... ... : 7-# 00 8 ... ... ... : ... .. . ... ... ... : ... .. . ... ... ... : ... .. . ... ... ... : ... .. . ... ... ... : ... .. . ... ... ... : ... .. . P8C ... ... : ... .. . ... ... ... : ... .. . ... ... ... : ... .. . ... ... ...
ROW 2C : ... .. . ... ... ... : ... .. . ... ... ... : G-2 00 . P70 ... ... : 8-# 00 7 ... ... ... : C#1 12 . ... ... ... : ... .. . ... ... ... : ... .. . P80 ... ... : ... .. . ... ... ... : ... .. . ... ... ... : ... .. 7 P8A ... ... : ... .. . ... ... ... : ... .. . ... ... ... : ... .. . ... ... ...
ROW 2D : ... .. . ... ... ... : ... .. . ... ... ... : E-2 00 . P7C ... ... : ... .. 6 ... ... ... : ... .. . ... ... ... : ... .. . ... ... ... : ... .. . P7F ... ... : ... .. . ... ... ... : ... .. . ... ... ... : ... .. . P88 ... ... : ... .. . ... ... ... : ... .. . ... ... ... : ... .. . ... ... ...
ROW 2E : ... .. . ... ... ... : ... .. . ... ... ... : C#4 00 . P7F ... ... : 9-# 00 F ... ... ... : C#1 12 . ... ... ... : ... .. . ... ... ... : ... .. . P80 ... ... : --- .. . ... ... ... : ... .. . ... ... ... : ... .. . P86 ... ... : ... .. . ... ... ... : ... .. . ... ... ... : ... .. . ... ... ...
ROW 2F : ... .. . ... ... ... : ... .. . ... ... ... : F#3 00 . P83 ... ... : 2-# 00 7 ... ... ... : ... .. . ... ... ... : ... .. . ... ... ... : ... .. . P81 ... ... : ... .. . ... ... ... : ... .. . ... ... ... : ... .. . P83 ... ... : ... .. . ... ... ... : ... .. . ... ... ... : ... .. . ... ... ...
ROW 30 : ... .. . ... ... ... : ... .. . ... ... ... : C#3 00 . P89 ... ... : 6-# 00 C ... ... ... : C#1 12 . ... ... ... : ... .. . ... ... ... : ... .. . P80 ... ... : ... .. . ... ... ... : ... .. . ... ... ... : ... .. 6 P81 ... ... : ... .. . ... ... ... : ... .. . ... ... ... : ... .. . ... ... ...
ROW 31 : ... .. . ... ... ... : ... .. . ... ... ... : A#2 00 . P75 ... ... : 7-# 00 8 ... ... ... : ... .. . ... ... ... : ... .. . ... ... ... : ... .. . P7F ... ... : ... .. . ... ... ... : ... .. . ... ... ... : ... .. . P7F ... ... : ... .. . ... ... ... : ... .. . ... ... ... : ... .. . ... ... ...
ROW 32 : ... .. . ... ... ... : ... .. . ... ... ... : G-2 00 . P70 ... ... : 8-# 00 7 ... ... ... : C#1 12 . ... ... ... : ... .. . ... ... ... : ... .. . P80 ... ... : ... .. . ... ... ... : ... .. 2 ... ... ... : ... .. . P7D ... ... : ... .. . ... ... ... : ... .. . ... ... ... : ... .. . ... ... ...
ROW 33 : ... .. . ... ... ... : ... .. . ... ... ... : E-2 00 . P7C ... ... : ... .. 6 ... ... ... : ... .. . ... ... ... : ... .. . ... ... ... : ... .. . P81 ... ... : ... .. . ... ... ... : ... .. . ... ... ... : ... .. . P7A ... ... : ... .. . ... ... ... : ... .. . ... ... ... : ... .. . ... ... ...
ROW 34 : ... .. . ... ... ... : ... .. . ... ... ... : C#4 00 . P7F ... ... : 9-# 00 F ... ... ... : C#1 12 . ... ... ... : ... .. . ... ... ... : ... .. . P80 ... ... : ... .. . ... ... ... : ... .. . ... ... ... : ... .. 9 P78 ... ... : ... .. . ... ... ... : ... .. . ... ... ... : ... .. . ... ... ...
ROW 35 : ... .. . ... ... ... : ... .. . ... ... ... : F#3 00 . P83 ... ... : 2-# 00 7 ... ... ... : ... .. . ... ... ... : ... .. . ... ... ... : ... .. . P7F ... ... : ... .. . ... ... ... : ... .. . ... ... ... : ... .. . P76 ... ... : ... .. . ... ... ... : ... .. . ... ... ... : ... .. . ... ... ...
ROW 36 : D#3 02 1 P82 ... ... : A#2 02 1 P82 ... ... : C#3 00 . P89 ... ... : 6-# 00 C ... ... ... : C#1 12 . ... ... ... : G-3 0C 1 P7F ... ... : ... .. . P80 ... ... : ... .. . ... ... ... : ... .. . ... ... ... : ... .. . P74 ... ... : ... .. . ... ... ... : ... .. . ... ... ... : ... .. . ... ... ...
ROW 37 : ... .. . P83 ... ... : ... .. . P83 ... ... : A#2 00 . P75 ... ... : 7-# 00 8 ... ... ... : ... .. . ... ... ... : ... .. . P80 ... ... : ... .. . P81 ... ... : ... .. . ... ... ... : ... .. . ... ... ... : ... .. . P71 ... ... : ... .. . ... ... ... : ... .. . ... ... ... : ... .. . ... ... ...
ROW 38 : ... .. . P82 ... ... : ... .. . P82 ... ... : G-2 00 . P70 ... ... : 8-# 00 7 ... ... ... : C#1 12 . ... ... ... : ... .. . P81 ... ... : ... .. . ... ... ... : ... .. . ... ... ... : ... .. . ... ... ... : E-5 0C 8 P8E ... ... : ... .. . ... ... ... : ... .. . ... ... ... : ... .. . ... ... ...
ROW 39 : ... .. 2 P80 ... ... : ... .. 2 P80 ... ... : E-2 00 . P7C ... ... : ... .. 6 ... ... ... : ... .. . ... ... ... : ... .. 2 P82 ... ... : ... .. . P80 ... ... : ... .. . ... ... ... : ... .. . ... ... ... : ... .. . P8B ... ... : ... .. . ... ... ... : ... .. . ... ... ... : ... .. . ... ... ...
ROW 3A : ... .. . P7E ... ... : ... .. . P7E ... ... : C#4 00 . P7F ... ... : 9-# 00 F ... ... ... : C#1 12 . ... ... ... : ... .. . P81 ... ... : ... .. . P7F ... ... : ... .. . ... ... ... : ... .. 1 ... ... ... : ... .. . P89 ... ... : ... .. . ... ... ... : ... .. . ... ... ... : ... .. . ... ... ...
ROW 3B : ... .. 3 P7D ... ... : ... .. 3 P7D ... ... : F#3 00 . P83 ... ... : 2-# 00 7 ... ... ... : ... .. . ... ... ... : ... .. 3 P80 ... ... : ... .. . P80 ... ... : ... .. . ... ... ... : ... .. . ... ... ... : ... .. . P87 ... ... : ... .. . ... ... ... : ... .. . ... ... ... : ... .. . ... ... ...
ROW 3C : ... .. . P7E ... ... : ... .. . P7E ... ... : C#3 00 . P89 ... ... : 6-# 00 C ... ... ... : C#1 12 . ... ... ... : ... .. . P7F ... ... : ... .. . P81 ... ... : ... .. . ... ... ... : ... .. . ... ... ... : ... .. 7 P85 ... ... : ... .. . ... ... ... : ... .. . ... ... ... : ... .. . ... ... ...
ROW 3D : ... .. . P80 ... ... : ... .. . P80 ... ... : A#2 00 . P75 ... ... : 7-# 00 8 ... ... ... : ... .. . ... ... ... : ... .. . ... ... ... : ... .. . P80 ... ... : ... .. . ... ... ... : ... .. . ... ... ... : ... .. . P82 ... ... : ... .. . ... ... ... : ... .. . ... ... ... : ... .. . ... ... ...
ROW 3E : ... .. 4 P82 ... ... : ... .. 4 P82 ... ... : G-2 00 . P70 ... ... : 8-# 00 7 ... ... ... : C#1 12 . ... ... ... : ... .. 4 ... ... ... : ... .. . P7F ... ... : ... .. . ... ... ... : ... .. . ... ... ... : ... .. . P80 ... ... : ... .. . ... ... ... : ... .. . ... ... ... : ... .. . ... ... ...
ROW 3F : ... .. . P83 ... ... : ... .. . P83 ... ... : E-2 00 . P7C ... ... : ... .. 6 ... ... ... : ... .. . ... ... ... : ... .. . P80 ... ... : ... .. . P80 ... ... : ... .. . ... ... ... : ... .. . ... ... ... : ... .. . P7E ... ... : ... .. . ... ... ... : ... .. . ... ... ... : ... .. . ... ... ...
ROW 40 : ... .. . P82 ... ... : ... .. . P82 ... ... : D-2 00 . P6F ... ... : ... .. . ... ... ... : C#1 12 . ... ... ... : ... .. . P81 ... ... : ... .. . P81 ... ... : ... .. . ... ... ... : ... .. . ... ... ... : ... .. 6 P7C ... ... : ... .. . ... ... ... : ... .. . ... ... ... : ... .. . ... ... ...
ROW 41 : --- .. . ... ... ... : --- .. . ... ... ... : F#3 00 . P78 ... ... : 9-# 00 F ... ... ... : C-1 12 . ... ... ... : --- .. . ... ... ... : --- .. . ... ... ... : ... .. . ... ... ... : --- .. . ... ... ... : --- .. . ... ... ... : ... .. . ... ... ... : ... .. . ... ... ... : ... .. . ... ... ...
ROW 42 : ... .. . P80 ... ... : ... .. . P80 ... ... : C#3 00 . P7E ... ... : 5-# 00 9 ... ... ... : ... .. . ... ... ... : ... .. . P80 ... ... : ... .. . P80 ... ... : ... .. . ... ... ... : ... .. . ... ... ... : ... .. . P80 ... ... : ... .. . ... ... ... : ... .. . ... ... ... : ... .. . ... ... ...
ROW 43 : ... .. . ... ... ... : ... .. . ... ... ... : A-2 00 . P86 ... ... : 6-# 00 C ... ... ... : ... .. . ... ... ... : ... .. . ... ... ... : ... .. . ... ... ... : ... .. . ... ... ... : ... .. . ... ... ... : ... .. . ... ... ... : ... .. . ... ... ... : ... .. . ... ... ... : ... .. . ... ... ...
ROW 44 : ... .. . ... ... ... : ... .. . ... ... ... : F#2 00 . P87 ... ... : ... .. 8 ... ... ... : ... .. . ... ... ... : ... .. . ... ... ... : ... .. . ... ... ... : ... .. . ... ... ... : ... .. . ... ... ... : ... .. . ... ... ... : ... .. . ... ... ... : ... .. . ... ... ... : ... .. . ... ... ...
ROW 45 : ... .. . ... ... ... : ... .. . ... ... ... : E-2 00 . P71 ... ... : 7-# 00 7 ... ... ... : ... .. . ... ... ... : ... .. . ... ... ... : ... .. . ... ... ... : ... .. . ... ... ... : ... .. . ... ... ... : ... .. . ... ... ... : ... .. . ... ... ... : ... .. . ... ... ... : ... .. . ... ... ...
ROW 46 : ... .. . ... ... ... : ... .. . ... ... ... : C#2 00 . P91 ... ... : ... .. 8 ... ... ... : ... .. . ... ... ... : ... .. . ... ... ... : ... .. . ... ... ... : ... .. . ... ... ... : ... .. . ... ... ... : ... .. . ... ... ... : ... .. . ... ... ... : ... .. . ... ... ... : ... .. . ... ... ...
ROW 47 : ... .. . ... ... ... : ... .. . ... ... ... : B-1 00 . P94 ... ... : 8-# 00 7 ... ... ... : ... .. . ... ... ... : ... .. . ... ... ... : ... .. . ... ... ... : ... .. . ... ... ... : ... .. . ... ... ... : ... .. . ... ... ... : ... .. . ... ... ... : ... .. . ... ... ... : ... .. . ... ... ...
ROW 48 : ... .. . ... ... ... : ... .. . ... ... ... : A#1 00 . P6A ... ... : ... .. 6 ... ... ... : ... .. . ... ... ... : ... .. . ... ... ... : ... .. . ... ... ... : ... .. . ... ... ... : ... .. . ... ... ... : ... .. . ... ... ... : ... .. . ... ... ... : ... .. . ... ... ... : ... .. . ... ... ...
ROW 49 : ... .. . ... ... ... : ... .. . ... ... ... : G#1 00 . P7F ... ... : ... .. 5 ... ... ... : ... .. . ... ... ... : ... .. . ... ... ... : ... .. . ... ... ... : ... .. . ... ... ... : ... .. . ... ... ... : ... .. . ... ... ... : ... .. . ... ... ... : ... .. . ... ... ... : ... .. . ... ... ...
ROW 4A : ... .. . ... ... ... : ... .. . ... ... ... : G-1 00 . P5F ... ... : ... .. . ... ... ... : ... .. . ... ... ... : ... .. . ... ... ... : ... .. . ... ... ... : ... .. . ... ... ... : ... .. . ... ... ... : ... .. . ... ... ... : ... .. . ... ... ... : ... .. . ... ... ... : ... .. . ... ... ...
ROW 4B : ... .. . ... ... ... : ... .. . ... ... ... : F-1 00 . P8B ... ... : ... .. . ... ... ... : ... .. . ... ... ... : ... .. . ... ... ... : ... .. . ... ... ... : ... .. . ... ... ... : ... .. . ... ... ... : ... .. . ... ... ... : ... .. . ... ... ... : ... .. . ... ... ... : ... .. . ... ... ...
ROW 4C : ... .. . ... ... ... : ... .. . ... ... ... : E-1 00 . P77 ... ... : ... .. . ... ... ... : ... .. . ... ... ... : ... .. . ... ... ... : ... .. . ... ... ... : ... .. . ... ... ... : ... .. . ... ... ... : ... .. . ... ... ... : ... .. . ... ... ... : ... .. . ... ... ... : ... .. . ... ... ...
ROW 4D : ... .. . ... ... ... : ... .. . ... ... ... : ... .. . P6F ... ... : ... .. . ... ... ... : ... .. . ... ... ... : ... .. . ... ... ... : ... .. . ... ... ... : ... .. . ... ... ... : ... .. . ... ... ... : ... .. . ... ... ... : ... .. . ... ... ... : ... .. . ... ... ... : ... .. . ... ... ...
ROW 4E : ... .. . ... ... ... : ... .. . ... ... ... : ... .. . P67 ... ... : ... .. 4 ... ... ... : ... .. . ... ... ... : ... .. . ... ... ... : ... .. . ... ... ... : ... .. . ... ... ... : ... .. . ... ... ... : ... .. . ... ... ... : ... .. . ... ... ... : ... .. . ... ... ... : ... .. . ... ... ...
ROW 4F : ... .. . ... ... ... : ... .. . ... ... ... : ... .. . P5F ... ... : ... .. . ... ... ... : ... .. . ... ... ... : ... .. . ... ... ... : ... .. . ... ... ... : ... .. . ... ... ... : ... .. . ... ... ... : ... .. . ... ... ... : ... .. . ... ... ... : ... .. . ... ... ... : ... .. . ... ... ...
ROW 50 : ... .. . ... ... ... : ... .. . ... ... ... : D#1 00 . PA8 ... ... : ... .. . ... ... ... : ... .. . ... ... ... : ... .. . ... ... ... : ... .. . ... ... ... : ... .. . ... ... ... : ... .. . ... ... ... : ... .. . ... ... ... : ... .. . ... ... ... : ... .. . ... ... ... : ... .. . ... ... ...
ROW 51 : ... .. . ... ... ... : ... .. . ... ... ... : ... .. . PA0 ... ... : ... .. 3 ... ... ... : ... .. . ... ... ... : ... .. . ... ... ... : ... .. . ... ... ... : ... .. . ... ... ... : ... .. . ... ... ... : ... .. . ... ... ... : ... .. . ... ... ... : ... .. . ... ... ... : ... .. . ... ... ...
ROW 52 : ... .. . ... ... ... : ... .. . ... ... ... : ... .. . P98 ... ... : ... .. . ... ... ... : ... .. . ... ... ... : ... .. . ... ... ... : ... .. . ... ... ... : ... .. . ... ... ... : ... .. . ... ... ... : ... .. . ... ... ... : ... .. . ... ... ... : ... .. . ... ... ... : ... .. . ... ... ...
ROW 53 : ... .. . ... ... ... : ... .. . ... ... ... : ... .. . P90 ... ... : ... .. . ... ... ... : ... .. . ... ... ... : ... .. . ... ... ... : ... .. . ... ... ... : ... .. . ... ... ... : ... .. . ... ... ... : ... .. . ... ... ... : ... .. . ... ... ... : ... .. . ... ... ... : ... .. . ... ... ...
ROW 54 : ... .. . ... ... ... : ... .. . ... ... ... : ... .. . P88 ... ... : ... .. . ... ... ... : ... .. . ... ... ... : ... .. . ... ... ... : ... .. . ... ... ... : ... .. . ... ... ... : ... .. . ... ... ... : ... .. . ... ... ... : ... .. . ... ... ... : ... .. . ... ... ... : ... .. . ... ... ...
ROW 55 : ... .. . ... ... ... : ... .. . ... ... ... : ... .. . P80 ... ... : ... .. 2 ... ... ... : ... .. . ... ... ... : ... .. . ... ... ... : ... .. . ... ... ... : ... .. . ... ... ... : ... .. . ... ... ... : ... .. . ... ... ... : ... .. . ... ... ... : ... .. . ... ... ... : ... .. . ... ... ...
ROW 56 : ... .. . ... ... ... : ... .. . ... ... ... : ... .. . P78 ... ... : ... .. . ... ... ... : ... .. . ... ... ... : ... .. . ... ... ... : ... .. . ... ... ... : ... .. . ... ... ... : ... .. . ... ... ... : ... .. . ... ... ... : ... .. . ... ... ... : ... .. . ... ... ... : ... .. . ... ... ...
ROW 57 : ... .. . ... ... ... : ... .. . ... ... ... : ... .. . P70 ... ... : ... .. . ... ... ... : ... .. . ... ... ... : ... .. . ... ... ... : ... .. . ... ... ... : ... .. . ... ... ... : ... .. . ... ... ... : ... .. . ... ... ... : ... .. . ... ... ... : ... .. . ... ... ... : ... .. . ... ... ...
ROW 58 : ... .. . ... ... ... : ... .. . ... ... ... : ... .. . P68 ... ... : ... .. . ... ... ... : ... .. . ... ... ... : ... .. . ... ... ... : ... .. . ... ... ... : ... .. . ... ... ... : ... .. . ... ... ... : ... .. . ... ... ... : ... .. . ... ... ... : ... .. . ... ... ... : ... .. . ... ... ...
ROW 59 : ... .. . ... ... ... : ... .. . ... ... ... : ... .. . P60 ... ... : ... .. 1 ... ... ... : ... .. . ... ... ... : ... .. . ... ... ... : ... .. . ... ... ... : ... .. . ... ... ... : ... .. . ... ... ... : ... .. . ... ... ... : ... .. . ... ... ... : ... .. . ... ... ... : ... .. . ... ... ...
ROW 5A : ... .. . ... ... ... : ... .. . ... ... ... : D-1 00 . PA6 ... ... : 9-# 00 A ... ... ... : ... .. . ... ... ... : ... .. . ... ... ... : ... .. . ... ... ... : ... .. . ... ... ... : ... .. . ... ... ... : ... .. . ... ... ... : ... .. . ... ... ... : ... .. . ... ... ... : ... .. . ... ... ...
ROW 5B : ... .. . ... ... ... : ... .. . ... ... ... : ... .. . P96 ... ... : 5-# 00 6 ... ... ... : ... .. . ... ... ... : ... .. . ... ... ... : ... .. . ... ... ... : ... .. . ... ... ... : ... .. . ... ... ... : ... .. . ... ... ... : ... .. . ... ... ... : ... .. . ... ... ... : ... .. . ... ... ...
ROW 5C : ... .. . ... ... ... : ... .. . ... ... ... : ... .. . P86 ... ... : 6-# 00 8 ... ... ... : ... .. . ... ... ... : ... .. . ... ... ... : ... .. . ... ... ... : ... .. . ... ... ... : ... .. . ... ... ... : ... .. . ... ... ... : ... .. . ... ... ... : ... .. . ... ... ... : ... .. . ... ... ...
ROW 5D : ... .. . ... ... ... : ... .. . ... ... ... : ... .. . P76 ... ... : ... .. 5 ... ... ... : ... .. . ... ... ... : ... .. . ... ... ... : ... .. . ... ... ... : ... .. . ... ... ... : ... .. . ... ... ... : ... .. . ... ... ... : ... .. . ... ... ... : ... .. . ... ... ... : ... .. . ... ... ...
ROW 5E : ... .. . ... ... ... : ... .. . ... ... ... : ... .. . P66 ... ... : 7-# 00 4 ... ... ... : ... .. . ... ... ... : ... .. . ... ... ... : ... .. . ... ... ... : ... .. . ... ... ... : ... .. . ... ... ... : ... .. . ... ... ... : ... .. . ... ... ... : ... .. . ... ... ... : ... .. . ... ... ...
ROW 5F : ... .. . ... ... ... : ... .. . ... ... ... : ... .. . P56 ... ... : ... .. 5 ... ... ... : ... .. . ... ... ... : ... .. . ... ... ... : ... .. . ... ... ... : ... .. . ... ... ... : ... .. . ... ... ... : ... .. . ... ... ... : ... .. . ... ... ... : ... .. . ... ... ... : ... .. . ... ... ...
ROW 60 : ... .. . ... ... ... : ... .. . ... ... ... : C#1 00 . PA0 ... ... : 8-# 00 4 ... ... ... : ... .. . ... ... ... : ... .. . ... ... ... : ... .. . ... ... ... : ... .. . ... ... ... : ... .. . ... ... ... : ... .. . ... ... ... : ... .. . ... ... ... : ... .. . ... ... ... : ... .. . ... ... ...
ROW 61 : ... .. . ... ... ... : ... .. . ... ... ... : ... .. . P90 ... ... : ... .. . ... ... ... : ... .. . ... ... ... : ... .. . ... ... ... : ... .. . ... ... ... : ... .. . ... ... ... : ... .. . ... ... ... : ... .. . ... ... ... : ... .. . ... ... ... : ... .. . ... ... ... : ... .. . ... ... ...
ROW 62 : ... .. . ... ... ... : ... .. . ... ... ... : ... .. . P80 ... ... : ... .. 3 ... ... ... : ... .. . ... ... ... : ... .. . ... ... ... : ... .. . ... ... ... : ... .. . ... ... ... : ... .. . ... ... ... : ... .. . ... ... ... : ... .. . ... ... ... : ... .. . ... ... ... : ... .. . ... ... ...
ROW 63 : ... .. . ... ... ... : ... .. . ... ... ... : ... .. . P70 ... ... : ... .. . ... ... ... : ... .. . ... ... ... : ... .. . ... ... ... : ... .. . ... ... ... : ... .. . ... ... ... : ... .. . ... ... ... : ... .. . ... ... ... : ... .. . ... ... ... : ... .. . ... ... ... : ... .. . ... ... ...
ROW 64 : ... .. . ... ... ... : ... .. . ... ... ... : ... .. . P60 ... ... : ... .. . ... ... ... : ... .. . ... ... ... : ... .. . ... ... ... : ... .. . ... ... ... : ... .. . ... ... ... : ... .. . ... ... ... : ... .. . ... ... ... : ... .. . ... ... ... : ... .. . ... ... ... : ... .. . ... ... ...
ROW 65 : ... .. . ... ... ... : ... .. . ... ... ... : C-1 00 . PB0 ... ... : ... .. . ... ... ... : ... .. . ... ... ... : ... .. . ... ... ... : ... .. . ... ... ... : ... .. . ... ... ... : ... .. . ... ... ... : ... .. . ... ... ... : ... .. . ... ... ... : ... .. . ... ... ... : ... .. . ... ... ...
ROW 66 : ... .. . ... ... ... : ... .. . ... ... ... : ... .. . PA0 ... ... : ... .. . ... ... ... : ... .. . ... ... ... : ... .. . ... ... ... : ... .. . ... ... ... : ... .. . ... ... ... : ... .. . ... ... ... : ... .. . ... ... ... : ... .. . ... ... ... : ... .. . ... ... ... : ... .. . ... ... ...
ROW 67 : ... .. . ... ... ... : ... .. . ... ... ... : ... .. . P90 ... ... : ... .. 2 ... ... ... : ... .. . ... ... ... : ... .. . ... ... ... : ... .. . ... ... ... : ... .. . ... ... ... : ... .. . ... ... ... : ... .. . ... ... ... : ... .. . ... ... ... : ... .. . ... ... ... : ... .. . ... ... ...
ROW 68 : ... .. . ... ... ... : ... .. . ... ... ... : ... .. . P80 ... ... : ... .. . ... ... ... : ... .. . ... ... ... : ... .. . ... ... ... : ... .. . ... ... ... : ... .. . ... ... ... : ... .. . ... ... ... : ... .. . ... ... ... : ... .. . ... ... ... : ... .. . ... ... ... : ... .. . ... ... ...
ROW 69 : ... .. . ... ... ... : ... .. . ... ... ... : ... .. . P70 ... ... : ... .. . ... ... ... : ... .. . ... ... ... : ... .. . ... ... ... : ... .. . ... ... ... : ... .. . ... ... ... : ... .. . ... ... ... : ... .. . ... ... ... : ... .. . ... ... ... : ... .. . ... ... ... : ... .. . ... ... ...
ROW 6A : ... .. . ... ... ... : ... .. . ... ... ... : ... .. . P60 ... ... : ... .. . ... ... ... : ... .. . ... ... ... : ... .. . ... ... ... : ... .. . ... ... ... : ... .. . ... ... ... : ... .. . ... ... ... : ... .. . ... ... ... : ... .. . ... ... ... : ... .. . ... ... ... : ... .. . ... ... ...
ROW 6B : ... .. . ... ... ... : ... .. . ... ... ... : ... .. . P50 ... ... : ... .. . ... ... ... : ... .. . ... ... ... : ... .. . ... ... ... : ... .. . ... ... ... : ... .. . ... ... ... : ... .. . ... ... ... : ... .. . ... ... ... : ... .. . ... ... ... : ... .. . ... ... ... : ... .. . ... ... ...
ROW 6C : ... .. . ... ... ... : ... .. . ... ... ... : B-0 00 . PA6 ... ... : ... .. . ... ... ... : ... .. . ... ... ... : ... .. . ... ... ... : ... .. . ... ... ... : ... .. . ... ... ... : ... .. . ... ... ... : ... .. . ... ... ... : ... .. . ... ... ... : ... .. . ... ... ... : ... .. . ... ... ...
ROW 6D : ... .. . ... ... ... : ... .. . ... ... ... : ... .. . P96 ... ... : ... .. . ... ... ... : ... .. . ... ... ... : ... .. . ... ... ... : ... .. . ... ... ... : ... .. . ... ... ... : ... .. . ... ... ... : ... .. . ... ... ... : ... .. . ... ... ... : ... .. . ... ... ... : ... .. . ... ... ...
ROW 6E : ... .. . ... ... ... : ... .. . ... ... ... : ... .. . P86 ... ... : ... .. 1 ... ... ... : ... .. . ... ... ... : ... .. . ... ... ... : ... .. . ... ... ... : ... .. . ... ... ... : ... .. . ... ... ... : ... .. . ... ... ... : ... .. . ... ... ... : ... .. . ... ... ... : ... .. . ... ... ...
ROW 6F : ... .. . ... ... ... : ... .. . ... ... ... : ... .. . P76 ... ... : ... .. . ... ... ... : ... .. . ... ... ... : ... .. . ... ... ... : ... .. . ... ... ... : ... .. . ... ... ... : ... .. . ... ... ... : ... .. . ... ... ... : ... .. . ... ... ... : ... .. . ... ... ... : ... .. . ... ... ...
ROW 70 : ... .. . ... ... ... : ... .. . ... ... ... : ... .. . P66 ... ... : ... .. . ... ... ... : ... .. . ... ... ... : ... .. . ... ... ... : ... .. . ... ... ... : ... .. . ... ... ... : ... .. . ... ... ... : ... .. . ... ... ... : ... .. . ... ... ... : ... .. . ... ... ... : ... .. . ... ... ...
ROW 71 : ... .. . ... ... ... : ... .. . ... ... ... : ... .. . P56 ... ... : ... .. . ... ... ... : ... .. . ... ... ... : ... .. . ... ... ... : ... .. . ... ... ... : ... .. . ... ... ... : ... .. . ... ... ... : ... .. . ... ... ... : ... .. . ... ... ... : ... .. . ... ... ... : ... .. . ... ... ...
ROW 72 : ... .. . ... ... ... : ... .. . ... ... ... : A#0 00 . PB2 ... ... : ... .. . ... ... ... : ... .. . ... ... ... : ... .. . ... ... ... : ... .. . ... ... ... : ... .. . ... ... ... : ... .. . ... ... ... : ... .. . ... ... ... : ... .. . ... ... ... : ... .. . ... ... ... : ... .. . ... ... ...
ROW 73 : ... .. . ... ... ... : ... .. . ... ... ... : ... .. . PA2 ... ... : 9-# 00 4 ... ... ... : ... .. . ... ... ... : ... .. . ... ... ... : ... .. . ... ... ... : ... .. . ... ... ... : ... .. . ... ... ... : ... .. . ... ... ... : ... .. . ... ... ... : ... .. . ... ... ... : ... .. . ... ... ...
ROW 74 : ... .. . ... ... ... : ... .. . ... ... ... : ... .. . P92 ... ... : 5-# 00 2 ... ... ... : ... .. . ... ... ... : ... .. . ... ... ... : ... .. . ... ... ... : ... .. . ... ... ... : ... .. . ... ... ... : ... .. . ... ... ... : ... .. . ... ... ... : ... .. . ... ... ... : ... .. . ... ... ...
ROW 75 : ... .. . ... ... ... : ... .. . ... ... ... : ... .. . P82 ... ... : 6-# 00 3 ... ... ... : ... .. . ... ... ... : ... .. . ... ... ... : ... .. . ... ... ... : ... .. . ... ... ... : ... .. . ... ... ... : ... .. . ... ... ... : ... .. . ... ... ... : ... .. . ... ... ... : ... .. . ... ... ...
ROW 76 : ... .. . ... ... ... : ... .. . ... ... ... : ... .. . P72 ... ... : ... .. 2 ... ... ... : ... .. . ... ... ... : ... .. . ... ... ... : ... .. . ... ... ... : ... .. . ... ... ... : ... .. . ... ... ... : ... .. . ... ... ... : ... .. . ... ... ... : ... .. . ... ... ... : ... .. . ... ... ...
ROW 77 : ... .. . ... ... ... : ... .. . ... ... ... : ... .. . P62 ... ... : 7-# 00 1 ... ... ... : ... .. . ... ... ... : ... .. . ... ... ... : ... .. . ... ... ... : ... .. . ... ... ... : ... .. . ... ... ... : ... .. . ... ... ... : ... .. . ... ... ... : ... .. . ... ... ... : ... .. . ... ... ...
ROW 78 : ... .. . ... ... ... : ... .. . ... ... ... : ... .. . P52 ... ... : ... .. 2 ... ... ... : ... .. . ... ... ... : ... .. . ... ... ... : ... .. . ... ... ... : ... .. . ... ... ... : ... .. . ... ... ... : ... .. . ... ... ... : ... .. . ... ... ... : ... .. . ... ... ... : ... .. . ... ... ...
ROW 79 : ... .. . ... ... ... : ... .. . ... ... ... : A-0 00 . PB4 ... ... : 8-# 00 1 ... ... ... : ... .. . ... ... ... : ... .. . ... ... ... : ... .. . ... ... ... : ... .. . ... ... ... : ... .. . ... ... ... : ... .. . ... ... ... : ... .. . ... ... ... : ... .. . ... ... ... : ... .. . ... ... ...
ROW 7A : ... .. . ... ... ... : ... .. . ... ... ... : ... .. . PA4 ... ... : ... .. . ... ... ... : ... .. . ... ... ... : ... .. . ... ... ... : ... .. . ... ... ... : ... .. . ... ... ... : ... .. . ... ... ... : ... .. . ... ... ... : ... .. . ... ... ... : ... .. . ... ... ... : ... .. . ... ... ...
ROW 7B : ... .. . ... ... ... : ... .. . ... ... ... : ... .. . P94 ... ... : ... .. . ... ... ... : ... .. . ... ... ... : ... .. . ... ... ... : ... .. . ... ... ... : ... .. . ... ... ... : ... .. . ... ... ... : ... .. . ... ... ... : ... .. . ... ... ... : ... .. . ... ... ... : ... .. . ... ... ...
ROW 7C : ... .. . ... ... ... : ... .. . ... ... ... : ... .. . P84 ... ... : ... .. . ... ... ... : ... .. . ... ... ... : ... .. . ... ... ... : ... .. . ... ... ... : ... .. . ... ... ... : ... .. . ... ... ... : ... .. . ... ... ... : ... .. . ... ... ... : ... .. . ... ... ... : ... .. . ... ... ...
ROW 7D : ... .. . ... ... ... : ... .. . ... ... ... : ... .. . P74 ... ... : ... .. . ... ... ... : ... .. . ... ... ... : ... .. . ... ... ... : ... .. . ... ... ... : ... .. . ... ... ... : ... .. . ... ... ... : ... .. . ... ... ... : ... .. . ... ... ... : ... .. . ... ... ... : ... .. . ... ... ...
ROW 7E : ... .. . ... ... ... : ... .. . ... ... ... : ... .. . P72 ... ... : ... .. . ... ... ... : ... .. . ... ... ... : ... .. . ... ... ... : ... .. . ... ... ... : ... .. . ... ... ... : ... .. . ... ... ... : ... .. . ... ... ... : ... .. . ... ... ... : ... .. . ... ... ... : ... .. . ... ... ...
ROW 7F : ... .. . ... ... ... : ... .. . ... ... ... : ... .. . ... ... ... : ... .. . ... ... ... : ... .. . ... ... ... : ... .. . ... ... ... : ... .. . ... ... ... : ... .. . ... ... ... : ... .. . ... ... ... : ... .. . ... ... ... : ... .. . ... ... ... : ... .. . ... ... ... : ... .. . ... ... ...
ROW 80 : ... .. . ... ... ... : ... .. . ... ... ... : ... .. . ... ... ... : ... .. . ... ... ... : ... .. . ... ... ... : ... .. . ... ... ... : ... .. . ... ... ... : ... .. . ... ... ... : ... .. . ... ... ... : ... .. . ... ... ... : ... .. . ... ... ... : ... .. . ... ... ... : ... .. . ... ... ...
ROW 81 : ... .. . ... ... ... : ... .. . ... ... ... : ... .. . ... ... ... : ... .. . ... ... ... : ... .. . ... ... ... : ... .. . ... ... ... : ... .. . ... ... ... : ... .. . ... ... ... : ... .. . ... ... ... : ... .. . ... ... ... : ... .. . ... ... ... : ... .. . ... ... ... : ... .. . ... ... ...
ROW 82 : ... .. . ... ... ... : ... .. . ... ... ... : ... .. . ... ... ... : ... .. . ... ... ... : ... .. . ... ... ... : ... .. . ... ... ... : ... .. . ... ... ... : ... .. . ... ... ... : ... .. . ... ... ... : ... .. . ... ... ... : ... .. . ... ... ... : ... .. . ... ... ... : ... .. . ... ... ...
ROW 83 : ... .. . ... ... ... : ... .. . ... ... ... : ... .. . ... ... ... : ... .. . ... ... ... : ... .. . ... ... ... : ... .. . ... ... ... : ... .. . ... ... ... : ... .. . ... ... ... : ... .. . ... ... ... : ... .. . ... ... ... : ... .. . ... ... ... : ... .. . ... ... ... : ... .. . ... ... ...
ROW 84 : ... .. . ... ... ... : ... .. . ... ... ... : ... .. . ... ... ... : ... .. . ... ... ... : ... .. . ... ... ... : ... .. . ... ... ... : ... .. . ... ... ... : ... .. . ... ... ... : ... .. . ... ... ... : ... .. . ... ... ... : ... .. . ... ... ... : ... .. . ... ... ... : ... .. . ... ... ...
ROW 85 : ... .. . ... ... ... : ... .. . ... ... ... : ... .. . ... ... ... : ... .. . ... ... ... : ... .. . ... ... ... : ... .. . ... ... ... : ... .. . ... ... ... : ... .. . ... ... ... : ... .. . ... ... ... : ... .. . ... ... ... : ... .. . ... ... ... : ... .. . ... ... ... : ... .. . ... ... ...
ROW 86 : ... .. . ... ... ... : ... .. . ... ... ... : ... .. . ... ... ... : ... .. . ... ... ... : ... .. . ... ... ... : ... .. . ... ... ... : ... .. . ... ... ... : ... .. . ... ... ... : ... .. . ... ... ... : ... .. . ... ... ... : ... .. . ... ... ... : ... .. . ... ... ... : ... .. . ... ... ...
ROW 87 : ... .. . ... ... ... : ... .. . ... ... ... : ... .. . ... ... ... : ... .. . ... ... ... : ... .. . ... ... ... : ... .. . ... ... ... : ... .. . ... ... ... : ... .. . ... ... ... : ... .. . ... ... ... : ... .. . ... ... ... : ... .. . ... ... ... : ... .. . ... ... ... : ... .. . ... ... ...
ROW 88 : ... .. . ... ... ... : ... .. . ... ... ... : ... .. . ... ... ... : ... .. . ... ... ... : ... .. . ... ... ... : ... .. . ... ... ... : ... .. . ... ... ... : ... .. . ... ... ... : ... .. . ... ... ... : ... .. . ... ... ... : ... .. . ... ... ... : ... .. . ... ... ... : ... .. . ... ... ...
ROW 89 : ... .. . ... ... ... : ... .. . ... ... ... : ... .. . ... ... ... : ... .. . ... ... ... : ... .. . ... ... ... : ... .. . ... ... ... : ... .. . ... ... ... : ... .. . ... ... ... : ... .. . ... ... ... : ... .. . ... ... ... : ... .. . ... ... ... : ... .. . ... ... ... : ... .. . ... ... ...
ROW 8A : ... .. . ... ... ... : ... .. . ... ... ... : ... .. . ... ... ... : ... .. . ... ... ... : ... .. . ... ... ... : ... .. . ... ... ... : ... .. . ... ... ... : ... .. . ... ... ... : ... .. . ... ... ... : ... .. . ... ... ... : ... .. . ... ... ... : ... .. . ... ... ... : ... .. . ... ... ...
ROW 8B : ... .. . ... ... ... : ... .. . ... ... ... : ... .. . ... ... ... : ... .. . ... ... ... : ... .. . ... ... ... : ... .. . ... ... ... : ... .. . ... ... ... : ... .. . ... ... ... : ... .. . ... ... ... : ... .. . ... ... ... : ... .. . ... ... ... : ... .. . ... ... ... : ... .. . ... ... ...
ROW 8C : ... .. . ... ... ... : ... .. . ... ... ... : --- .. . ... ... ... : --- .. . ... ... ... : D-1 12 . ... ... ... : ... .. . ... ... ... : ... .. . ... ... ... : ... .. . ... ... ... : ... .. . ... ... ... : ... .. . ... ... ... : ... .. . ... ... ... : ... .. . ... ... ... : ... .. . ... ... ...
ROW 8D : ... .. . ... ... ... : ... .. . ... ... ... : ... .. . ... ... ... : ... .. . ... ... ... : ... .. . ... ... ... : ... .. . ... ... ... : ... .. . ... ... ... : ... .. . ... ... ... : ... .. . ... ... ... : ... .. . ... ... ... : ... .. . ... ... ... : ... .. . ... ... ... : ... .. . ... ... ...
ROW 8E : ... .. . ... ... ... : ... .. . ... ... ... : ... .. . ... ... ... : ... .. . ... ... ... : ... .. . ... ... ... : ... .. . ... ... ... : ... .. . ... ... ... : ... .. . ... ... ... : ... .. . ... ... ... : ... .. . ... ... ... : ... .. . ... ... ... : ... .. . ... ... ... : ... .. . ... ... ...
ROW 8F : ... .. . ... ... ... : ... .. . ... ... ... : ... .. . ... ... ... : ... .. . ... ... ... : ... .. . ... ... ... : ... .. . ... ... ... : ... .. . ... ... ... : ... .. . ... ... ... : ... .. . ... ... ... : ... .. . ... ... ... : ... .. . ... ... ... : ... .. . ... ... ... : ... .. . ... ... ...
ROW 90 : ... .. . ... ... ... : ... .. . ... ... ... : ... .. . ... ... ... : ... .. . ... ... ... : ... .. . ... ... ... : ... .. . ... ... ... : ... .. . ... ... ... : ... .. . ... ... ... : ... .. . ... ... ... : ... .. . ... ... ... : ... .. . ... ... ... : ... .. . ... ... ... : ... .. . ... ... ...
ROW 91 : ... .. . ... ... ... : ... .. . ... ... ... : ... .. . ... ... ... : ... .. . ... ... ... : ... .. . ... ... ... : ... .. . ... ... ... : ... .. . ... ... ... : ... .. . ... ... ... : ... .. . ... ... ... : ... .. . ... ... ... : ... .. . ... ... ... : ... .. . ... ... ... : ... .. . ... ... ...
ROW 92 : ... .. . ... ... ... : ... .. . ... ... ... : ... .. . ... ... ... : ... .. . ... ... ... : ... .. . ... ... ... : ... .. . ... ... ... : ... .. . ... ... ... : ... .. . ... ... ... : ... .. . ... ... ... : ... .. . ... ... ... : ... .. . ... ... ... : ... .. . ... ... ... : ... .. . ... ... ...
ROW 93 : ... .. . ... ... ... : ... .. . ... ... ... : ... .. . ... ... ... : ... .. . ... ... ... : ... .. . ... ... ... : ... .. . ... ... ... : ... .. . ... ... ... : ... .. . ... ... ... : ... .. . ... ... ... : ... .. . ... ... ... : ... .. . ... ... ... : ... .. . ... ... ... : ... .. . ... ... ...
ROW 94 : ... .. . ... ... ... : ... .. . ... ... ... : ... .. . ... ... ... : ... .. . ... ... ... : ... .. . ... ... ... : ... .. . ... ... ... : ... .. . ... ... ... : ... .. . ... ... ... : ... .. . ... ... ... : ... .. . ... ... ... : ... .. . ... ... ... : ... .. . ... ... ... : ... .. . ... ... ...
ROW 95 : ... .. . ... ... ... : ... .. . ... ... ... : ... .. . ... ... ... : ... .. . ... ... ... : ... .. . ... ... ... : ... .. . ... ... ... : ... .. . ... ... ... : ... .. . ... ... ... : ... .. . ... ... ... : ... .. . ... ... ... : ... .. . ... ... ... : ... .. . ... ... ... : ... .. . ... ... ...
ROW 96 : ... .. . ... ... ... : ... .. . ... ... ... : ... .. . ... ... ... : ... .. . ... ... ... : ... .. . ... ... ... : ... .. . ... ... ... : ... .. . ... ... ... : ... .. . ... ... ... : ... .. . ... ... ... : ... .. . ... ... ... : ... .. . ... ... ... : ... .. . ... ... ... : ... .. . ... ... ...
ROW 97 : ... .. . ... ... ... : ... .. . ... ... ... : ... .. . ... ... ... : ... .. . ... ... ... : ... .. . ... ... ... : ... .. . ... ... ... : ... .. . ... ... ... : ... .. . ... ... ... : ... .. . ... ... ... : ... .. . ... ... ... : ... .. . ... ... ... : ... .. . ... ... ... : ... .. . ... ... ...
ROW 98 : ... .. . ... ... ... : ... .. . ... ... ... : ... .. . ... ... ... : ... .. . ... ... ... : ... .. . ... ... ... : ... .. . ... ... ... : ... .. . ... ... ... : ... .. . ... ... ... : ... .. . ... ... ... : ... .. . ... ... ... : ... .. . ... ... ... : ... .. . ... ... ... : ... .. . ... ... ...
ROW 99 : ... .. . ... ... ... : ... .. . ... ... ... : ... .. . ... ... ... : ... .. . ... ... ... : ... .. . ... ... ... : ... .. . ... ... ... : ... .. . ... ... ... : ... .. . ... ... ... : ... .. . ... ... ... : ... .. . ... ... ... : ... .. . ... ... ... : ... .. . ... ... ... : ... .. . ... ... ...
ROW 9A : ... .. . ... ... ... : ... .. . ... ... ... : ... .. . ... ... ... : ... .. . ... ... ... : ... .. . ... ... ... : ... .. . ... ... ... : ... .. . ... ... ... : ... .. . ... ... ... : ... .. . ... ... ... : ... .. . ... ... ... : ... .. . ... ... ... : ... .. . ... ... ... : ... .. . ... ... ...
ROW 9B : ... .. . ... ... ... : ... .. . ... ... ... : ... .. . ... ... ... : ... .. . ... ... ... : ... .. . ... ... ... : ... .. . ... ... ... : ... .. . ... ... ... : ... .. . ... ... ... : ... .. . ... ... ... : ... .. . ... ... ... : ... .. . ... ... ... : ... .. . ... ... ... : ... .. . ... ... ...
ROW 9C : ... .. . ... ... ... : ... .. . ... ... ... : ... .. . ... ... ... : ... .. . ... ... ... : ... .. . ... ... ... : ... .. . ... ... ... : ... .. . ... ... ... : ... .. . ... ... ... : ... .. . ... ... ... : ... .. . ... ... ... : ... .. . ... ... ... : ... .. . ... ... ... : ... .. . ... ... ...
ROW 9D : ... .. . ... ... ... : ... .. . ... ... ... : ... .. . ... ... ... : ... .. . ... ... ... : ... .. . ... ... ... : ... .. . ... ... ... : ... .. . ... ... ... : ... .. . ... ... ... : ... .. . ... ... ... : ... .. . ... ... ... : ... .. . ... ... ... : ... .. . ... ... ... : ... .. . ... ... ...
ROW 9E : ... .. . ... ... ... : ... .. . ... ... ... : ... .. . ... ... ... : ... .. . ... ... ... : ... .. . ... ... ... : ... .. . ... ... ... : ... .. . ... ... ... : ... .. . ... ... ... : ... .. . ... ... ... : ... .. . ... ... ... : ... .. . ... ... ... : ... .. . ... ... ... : ... .. . ... ... ...
ROW 9F : ... .. . ... ... ... : ... .. . ... ... ... : ... .. . ... ... ... : ... .. . ... ... ... : ... .. . ... ... ... : ... .. . ... ... ... : ... .. . ... ... ... : ... .. . ... ... ... : ... .. . ... ... ... : ... .. . ... ... ... : ... .. . ... ... ... : ... .. . ... ... ... : ... .. . ... ... ...
ROW A0 : ... .. . ... ... ... : ... .. . ... ... ... : ... .. . ... ... ... : ... .. . ... ... ... : ... .. . ... ... ... : ... .. . ... ... ... : ... .. . ... ... ... : ... .. . ... ... ... : ... .. . ... ... ... : ... .. . ... ... ... : ... .. . ... ... ... : ... .. . ... ... ... : ... .. . ... ... ...
ROW A1 : ... .. . ... ... ... : ... .. . ... ... ... : ... .. . ... ... ... : ... .. . ... ... ... : ... .. . ... ... ... : ... .. . ... ... ... : ... .. . ... ... ... : ... .. . ... ... ... : ... .. . ... ... ... : ... .. . ... ... ... : ... .. . ... ... ... : ... .. . ... ... ... : ... .. . ... ... ...
ROW A2 : ... .. . ... ... ... : ... .. . ... ... ... : ... .. . ... ... ... : ... .. . ... ... ... : ... .. . ... ... ... : ... .. . ... ... ... : ... .. . ... ... ... : ... .. . ... ... ... : ... .. . ... ... ... : ... .. . ... ... ... : ... .. . ... ... ... : ... .. . ... ... ... : ... .. . ... ... ...
ROW A3 : ... .. . ... ... ... : ... .. . ... ... ... : ... .. . ... ... ... : ... .. . ... ... ... : ... .. . ... ... ... : ... .. . ... ... ... : ... .. . ... ... ... : ... .. . ... ... ... : ... .. . ... ... ... : ... .. . ... ... ... : ... .. . ... ... ... : ... .. . ... ... ... : ... .. . ... ... ...
ROW A4 : ... .. . ... ... ... : ... .. . ... ... ... : ... .. . ... ... ... : ... .. . ... ... ... : ... .. . ... ... ... : ... .. . ... ... ... : ... .. . ... ... ... : ... .. . ... ... ... : ... .. . ... ... ... : ... .. . ... ... ... : ... .. . ... ... ... : ... .. . ... ... ... : ... .. . ... ... ...
ROW A5 : ... .. . ... ... ... : C-4 02 8 ... ... ... : F#3 00 . P78 ... ... : 1-# 00 F ... ... ... : C-1 12 . ... ... ... : G-4 04 A P78 ... ... : A-4 04 A ... ... ... : ... .. . ... ... ... : F-4 04 9 P78 ... ... : G-4 04 9 ... ... ... : ... .. . ... ... ... : ... .. . ... ... ... : ... .. . ... ... ...
ROW A6 : ... .. . ... ... ... : F-3 02 . ... ... ... : C#3 00 . P7E ... ... : 2-# 00 7 ... ... ... : ... .. . ... ... ... : G#4 04 . P84 ... ... : ... .. . P81 ... ... : ... .. . ... ... ... : F#4 04 . P82 ... ... : ... .. . ... ... ... : ... .. . ... ... ... : ... .. . ... ... ... : ... .. . ... ... ...
ROW A7 : ... .. . ... ... ... : A#2 02 . P81 ... ... : A-2 00 . P86 ... ... : 1-# 00 4 ... ... ... : ... .. . ... ... ... : ... .. . P7C ... ... : ... .. . ... ... ... : ... .. . ... ... ... : ... .. . P7A ... ... : ... .. . ... ... ... : ... .. . ... ... ... : ... .. . ... ... ... : ... .. . ... ... ...
ROW A8 : ... .. . ... ... ... : D#2 02 . ... ... ... : --- .. . ... ... ... : ... .. 2 ... ... ... : ... .. . ... ... ... : A-4 04 . P88 ... ... : ... .. . P80 ... ... : ... .. . ... ... ... : G-4 04 . P84 ... ... : ... .. . ... ... ... : ... .. . ... ... ... : ... .. . ... ... ... : ... .. . ... ... ...
ROW A9 : ... .. . ... ... ... : G#1 02 . ... ... ... : ... .. . ... ... ... : ... .. 1 ... ... ... : ... .. . ... ... ... : ... .. . P80 ... ... : ... .. . ... ... ... : ... .. . ... ... ... : ... .. . P7C ... ... : ... .. 8 ... ... ... : ... .. . ... ... ... : ... .. . ... ... ... : ... .. . ... ... ...
ROW AA : ... .. . ... ... ... : C#1 02 . ... ... ... : ... .. . ... ... ... : --- .. . ... ... ... : ... .. . ... ... ... : ... .. . P78 ... ... : ... .. . P81 ... ... : ... .. . ... ... ... : G#4 04 . P87 ... ... : ... .. . ... ... ... : ... .. . ... ... ... : ... .. . ... ... ... : ... .. . ... ... ...
ROW AB : ... .. . ... ... ... : ... .. . ... ... ... : ... .. . ... ... ... : ... .. . ... ... ... : ... .. . ... ... ... : ... .. . P7A ... ... : ... .. . P83 ... ... : ... .. . ... ... ... : ... .. . P89 ... ... : ... .. . P82 ... ... : ... .. . ... ... ... : ... .. . ... ... ... : ... .. . ... ... ...
ROW AC : ... .. . ... ... ... : ... .. . ... ... ... : ... .. . ... ... ... : ... .. . ... ... ... : ... .. . ... ... ... : ... .. . P7C ... ... : ... .. . P84 ... ... : ... .. . ... ... ... : G-4 04 . P78 ... ... : ... .. . P84 ... ... : ... .. . ... ... ... : ... .. . ... ... ... : ... .. . ... ... ...
ROW AD : ... .. . ... ... ... : ... .. . ... ... ... : ... .. . ... ... ... : ... .. . ... ... ... : ... .. . ... ... ... : ... .. . P7E ... ... : ... .. . P85 ... ... : ... .. . ... ... ... : ... .. 8 P7A ... ... : ... .. 7 P86 ... ... : ... .. . ... ... ... : ... .. . ... ... ... : ... .. . ... ... ...
ROW AE : ... .. . ... ... ... : ... .. . ... ... ... : ... .. . ... ... ... : ... .. . ... ... ... : ... .. . ... ... ... : ... .. . P80 ... ... : ... .. . P88 ... ... : ... .. . ... ... ... : ... .. . P7C ... ... : ... .. . P88 ... ... : ... .. . ... ... ... : ... .. . ... ... ... : ... .. . ... ... ...
ROW AF : ... .. . ... ... ... : ... .. . ... ... ... : ... .. . ... ... ... : ... .. . ... ... ... : ... .. . ... ... ... : ... .. . P82 ... ... : G#4 04 . P77 ... ... : ... .. . ... ... ... : ... .. . P7E ... ... : F#4 04 . P78 ... ... : ... .. . ... ... ... : ... .. . ... ... ... : ... .. . ... ... ...
ROW B0 : ... .. . ... ... ... : ... .. . ... ... ... : ... .. . ... ... ... : ... .. . ... ... ... : ... .. . ... ... ... : ... .. . P84 ... ... : ... .. . P78 ... ... : ... .. . ... ... ... : ... .. . P80 ... ... : ... .. . P7A ... ... : ... .. . ... ... ... : ... .. . ... ... ... : ... .. . ... ... ...
ROW B1 : ... .. . ... ... ... : ... .. . ... ... ... : ... .. . ... ... ... : D-# 00 A ... ... ... : ... .. . ... ... ... : G#4 04 . P7E ... ... : ... .. . P85 ... ... : ... .. . ... ... ... : F#4 04 . P7C ... ... : ... .. 6 P88 ... ... : ... .. . ... ... ... : ... .. . ... ... ... : ... .. . ... ... ...
ROW B2 : ... .. . ... ... ... : ... .. . ... ... ... : ... .. . ... ... ... : E-# 00 4 ... ... ... : ... .. . ... ... ... : G-4 04 . P78 ... ... : G-4 04 . P81 ... ... : ... .. . ... ... ... : F-4 04 . P78 ... ... : F-4 04 . P85 ... ... : ... .. . ... ... ... : ... .. . ... ... ... : ... .. . ... ... ...
ROW B3 : ... .. . ... ... ... : ... .. . ... ... ... : ... .. . ... ... ... : D-# 00 2 ... ... ... : ... .. . ... ... ... : ... .. . P86 ... ... : F#4 04 . P7E ... ... : ... .. . ... ... ... : ... .. . P86 ... ... : E-4 04 . P83 ... ... : ... .. . ... ... ... : ... .. . ... ... ... : ... .. . ... ... ...
ROW B4 : ... .. . ... ... ... : ... .. . ... ... ... : ... .. . ... ... ... : ... .. 1 ... ... ... : ... .. . ... ... ... : F#4 04 . P82 ... ... : F-4 04 . P7A ... ... : ... .. . ... ... ... : E-4 04 . P84 ... ... : D#4 04 . P82 ... ... : ... .. . ... ... ... : ... .. . ... ... ... : ... .. . ... ... ...
ROW B5 : ... .. . ... ... ... : ... .. . ... ... ... : ... .. . ... ... ... : ... .. . ... ... ... : ... .. . ... ... ... : F-4 04 . P7F ... ... : ... .. . P87 ... ... : ... .. . ... ... ... : D#4 04 7 P83 ... ... : D-4 04 5 P81 ... ... : ... .. . ... ... ... : ... .. . ... ... ... : ... .. . ... ... ...
ROW B6 : ... .. . ... ... ... : ... .. . ... ... ... : ... .. . ... ... ... : --- .. . ... ... ... : ... .. . ... ... ... : E-4 04 . P7D ... ... : E-4 04 . P85 ... ... : ... .. . ... ... ... : D-4 04 . ... ... ... : C#4 04 . P82 ... ... : ... .. . ... ... ... : ... .. . ... ... ... : ... .. . ... ... ...
ROW B7 : ... .. . ... ... ... : ... .. . ... ... ... : ... .. . ... ... ... : D-# 00 A ... ... ... : ... .. . ... ... ... : D#4 04 . P7C ... ... : D#4 04 . ... ... ... : ... .. . ... ... ... : C#4 04 . ... ... ... : C-4 04 . P83 ... ... : ... .. . ... ... ... : ... .. . ... ... ... : ... .. . ... ... ...
ROW B8 : ... .. . ... ... ... : ... .. . ... ... ... : ... .. . ... ... ... : E-# 00 4 ... ... ... : ... .. . ... ... ... : D-4 04 . P7B ... ... : D-4 04 . P84 ... ... : ... .. . ... ... ... : C-4 04 . P84 ... ... : B-3 04 . P85 ... ... : ... .. . ... ... ... : ... .. . ... ... ... : ... .. . ... ... ...
ROW B9 : ... .. . ... ... ... : ... .. . ... ... ... : ... .. . ... ... ... : D-# 00 2 ... ... ... : ... .. . ... ... ... : C#4 04 . P7C ... ... : C#4 04 . ... ... ... : ... .. . ... ... ... : A#3 04 . P7B ... ... : A-3 04 4 P7D ... ... : ... .. . ... ... ... : ... .. . ... ... ... : ... .. . ... ... ...
ROW BA : ... .. . ... ... ... : ... .. . ... ... ... : ... .. . ... ... ... : ... .. 1 ... ... ... : ... .. . ... ... ... : C-4 04 . P7D ... ... : C-4 04 . P85 ... ... : ... .. . ... ... ... : A-3 04 . P7E ... ... : G#3 04 . P81 ... ... : ... .. . ... ... ... : ... .. . ... ... ... : ... .. . ... ... ...
ROW BB : ... .. . ... ... ... : ... .. . ... ... ... : ... .. . ... ... ... : ... .. . ... ... ... : ... .. . ... ... ... : B-3 04 . P7F ... ... : A#3 04 . P7C ... ... : ... .. . ... ... ... : G#3 04 . P82 ... ... : F#3 04 . P7C ... ... : ... .. . ... ... ... : ... .. . ... ... ... : ... .. . ... ... ...
ROW BC : ... .. . ... ... ... : ... .. . ... ... ... : ... .. . ... ... ... : --- .. . ... ... ... : ... .. . ... ... ... : A#3 04 . P82 ... ... : A-3 04 . P80 ... ... : ... .. . ... ... ... : F#3 04 . P7D ... ... : F-3 04 . P81 ... ... : ... .. . ... ... ... : ... .. . ... ... ... : ... .. . ... ... ...
ROW BD : ... .. . ... ... ... : ... .. . ... ... ... : ... .. . ... ... ... : ... .. . ... ... ... : ... .. . ... ... ... : A-3 04 . P85 ... ... : G#3 04 . P83 ... ... : ... .. . ... ... ... : F-3 04 6 P83 ... ... : D#3 04 3 P80 ... ... : ... .. . ... ... ... : ... .. . ... ... ... : ... .. . ... ... ...
ROW BE : ... .. . ... ... ... : C-4 02 . P80 ... ... : C#4 00 . P7F ... ... : 9-# 00 F ... ... ... : C#1 12 . ... ... ... : G#1 04 F P80 ... ... : F#3 04 . P7D ... ... : G-1 04 9 ... ... ... : A-1 04 9 P82 ... ... : C#3 04 . ... ... ... : ... .. . ... ... ... : ... .. . ... ... ... : ... .. . ... ... ...
ROW BF : ... .. . ... ... ... : F-3 02 . ... ... ... : F#3 00 . P83 ... ... : 2-# 00 7 ... ... ... : ... .. . ... ... ... : ... .. . ... ... ... : F-3 04 . P84 ... ... : ... .. . ... ... ... : ... .. . ... ... ... : B-2 04 . P81 ... ... : ... .. . ... ... ... : ... .. . ... ... ... : ... .. . ... ... ...
ROW C0 : ... .. . ... ... ... : A#2 02 . P81 ... ... : C#3 00 . P89 ... ... : 6-# 00 C ... ... ... : ... .. . ... ... ... : ... .. . ... ... ... : D#3 04 . P83 ... ... : ... .. . ... ... ... : ... .. . ... ... ... : G#2 04 . P7F ... ... : ... .. . ... ... ... : ... .. . ... ... ... : ... .. . ... ... ...
ROW C1 : ... .. . ... ... ... : D#2 02 . ... ... ... : A#2 00 . P75 ... ... : 7-# 00 8 ... ... ... : ... .. . ... ... ... : ... .. . ... ... ... : C#3 04 . P82 ... ... : ... .. . ... ... ... : ... .. . ... ... ... : F-2 04 2 ... ... ... : ... .. . ... ... ... : ... .. . ... ... ... : ... .. . ... ... ...
ROW C2 : ... .. . ... ... ... : G#1 02 . ... ... ... : G-2 00 . P70 ... ... : 8-# 00 7 ... ... ... : ... .. . ... ... ... : ... .. . ... ... ... : B-2 04 . P83 ... ... : ... .. 8 ... ... ... : ... .. . ... ... ... : D-2 04 . P82 ... ... : ... .. . ... ... ... : ... .. . ... ... ... : ... .. . ... ... ...
ROW C3 : ... .. . ... ... ... : C#1 02 . ... ... ... : E-2 00 . P7C ... ... : ... .. 6 ... ... ... : ... .. . ... ... ... : ... .. . ... ... ... : G#2 04 . P82 ... ... : ... .. . ... ... ... : ... .. . ... ... ... : A-1 04 . P81 ... ... : ... .. . ... ... ... : ... .. . ... ... ... : ... .. . ... ... ...
ROW C4 : ... .. . ... ... ... : ... .. . ... ... ... : --- .. . ... ... ... : ... .. . ... ... ... : ... .. . ... ... ... : G#2 04 . ... ... ... : E-2 04 . P7F ... ... : G#2 04 . P82 ... ... : G#2 04 . P7F ... ... : D-1 04 . P80 ... ... : ... .. . ... ... ... : ... .. . ... ... ... : ... .. . ... ... ...
ROW C5 : ... .. . ... ... ... : ... .. . ... ... ... : ... .. . ... ... ... : ... .. 5 ... ... ... : ... .. . ... ... ... : ... .. . ... ... ... : C#2 04 . P82 ... ... : ... .. . ... ... ... : ... .. . ... ... ... : E-0 04 1 P81 ... ... : ... .. . ... ... ... : ... .. . ... ... ... : ... .. . ... ... ...
ROW C6 : ... .. . ... ... ... : ... .. . ... ... ... : ... .. . ... ... ... : ... .. . ... ... ... : ... .. . ... ... ... : ... .. . ... ... ... : G#1 04 . P80 ... ... : ... .. 7 ... ... ... : ... .. 8 ... ... ... : --- .. . P7E ... ... : ... .. . ... ... ... : ... .. . ... ... ... : ... .. . ... ... ...
ROW C7 : ... .. . ... ... ... : ... .. . ... ... ... : ... .. . ... ... ... : ... .. 4 ... ... ... : ... .. . ... ... ... : ... .. . ... ... ... : C#1 04 . ... ... ... : ... .. . ... ... ... : ... .. . ... ... ... : ... .. . ... ... ... : ... .. . ... ... ... : ... .. . ... ... ... : ... .. . ... ... ...
ROW C8 : ... .. . ... ... ... : ... .. . ... ... ... : ... .. . ... ... ... : ... .. . ... ... ... : ... .. . ... ... ... : ... .. . ... ... ... : C#0 04 . P81 ... ... : ... .. . ... ... ... : ... .. . ... ... ... : ... .. . ... ... ... : ... .. . ... ... ... : ... .. . ... ... ... : ... .. . ... ... ...
ROW C9 : ... .. . ... ... ... : ... .. . ... ... ... : ... .. . ... ... ... : ... .. 3 ... ... ... : ... .. . ... ... ... : ... .. . ... ... ... : --- .. . ... ... ... : ... .. . ... ... ... : ... .. . ... ... ... : ... .. . P80 ... ... : ... .. . ... ... ... : ... .. . ... ... ... : ... .. . ... ... ...
ROW CA : ... .. . ... ... ... : ... .. . ... ... ... : ... .. . ... ... ... : D-# 00 A ... ... ... : ... .. . ... ... ... : G#1 04 . ... ... ... : ... .. . P80 ... ... : G-1 04 6 P80 ... ... : A-1 04 . P82 ... ... : ... .. . ... ... ... : ... .. . ... ... ... : ... .. . ... ... ... : ... .. . ... ... ...
ROW CB : ... .. . ... ... ... : ... .. . ... ... ... : ... .. . ... ... ... : E-# 00 4 ... ... ... : ... .. . ... ... ... : ... .. . ... ... ... : ... .. . ... ... ... : ... .. . ... ... ... : ... .. . ... ... ... : ... .. . ... ... ... : ... .. . ... ... ... : ... .. . ... ... ... : ... .. . ... ... ...
ROW CC : ... .. . ... ... ... : ... .. . ... ... ... : ... .. . ... ... ... : D-# 00 2 ... ... ... : ... .. . ... ... ... : ... .. . ... ... ... : ... .. . ... ... ... : ... .. . ... ... ... : ... .. . ... ... ... : ... .. . ... ... ... : ... .. . ... ... ... : ... .. . ... ... ... : ... .. . ... ... ...
ROW CD : ... .. . ... ... ... : ... .. . ... ... ... : ... .. . ... ... ... : ... .. 1 ... ... ... : ... .. . ... ... ... : ... .. . ... ... ... : ... .. . ... ... ... : ... .. . ... ... ... : ... .. . ... ... ... : ... .. . ... ... ... : ... .. . ... ... ... : ... .. . ... ... ... : ... .. . ... ... ...
ROW CE : ... .. . ... ... ... : ... .. . ... ... ... : ... .. . ... ... ... : ... .. . ... ... ... : ... .. . ... ... ... : ... .. . ... ... ... : ... .. . ... ... ... : ... .. 5 ... ... ... : ... .. 7 ... ... ... : ... .. . ... ... ... : ... .. . ... ... ... : ... .. . ... ... ... : ... .. . ... ... ...
ROW CF : ... .. . ... ... ... : ... .. . ... ... ... : ... .. . ... ... ... : --- .. . ... ... ... : ... .. . ... ... ... : ... .. . ... ... ... : ... .. . ... ... ... : ... .. . ... ... ... : ... .. . ... ... ... : ... .. . ... ... ... : ... .. . ... ... ... : ... .. . ... ... ... : ... .. . ... ... ...
ROW D0 : ... .. . ... ... ... : ... .. . ... ... ... : ... .. . ... ... ... : D-# 00 A ... ... ... : ... .. . ... ... ... : G#2 04 . ... ... ... : ... .. . ... ... ... : G#2 04 . P82 ... ... : G#2 04 . P7F ... ... : ... .. . ... ... ... : ... .. . ... ... ... : ... .. . ... ... ... : ... .. . ... ... ...
ROW D1 : ... .. . ... ... ... : ... .. . ... ... ... : ... .. . ... ... ... : E-# 00 4 ... ... ... : ... .. . ... ... ... : ... .. . ... ... ... : ... .. . ... ... ... : ... .. . ... ... ... : ... .. . ... ... ... : ... .. . ... ... ... : ... .. . ... ... ... : ... .. . ... ... ... : ... .. . ... ... ...
ROW D2 : ... .. . ... ... ... : ... .. . ... ... ... : ... .. . ... ... ... : D-# 00 2 ... ... ... : ... .. . ... ... ... : ... .. . ... ... ... : ... .. . ... ... ... : ... .. 4 ... ... ... : ... .. . ... ... ... : ... .. . ... ... ... : ... .. . ... ... ... : ... .. . ... ... ... : ... .. . ... ... ...
ROW D3 : ... .. . ... ... ... : ... .. . ... ... ... : ... .. . ... ... ... : ... .. 1 ... ... ... : ... .. . ... ... ... : ... .. . ... ... ... : ... .. . ... ... ... : ... .. . ... ... ... : ... .. . ... ... ... : ... .. . ... ... ... : ... .. . ... ... ... : ... .. . ... ... ... : ... .. . ... ... ...
ROW D4 : ... .. . ... ... ... : ... .. . ... ... ... : ... .. . ... ... ... : ... .. . ... ... ... : ... .. . ... ... ... : ... .. . ... ... ... : ... .. . ... ... ... : ... .. . ... ... ... : ... .. . ... ... ... : ... .. . ... ... ... : ... .. . ... ... ... : ... .. . ... ... ... : ... .. . ... ... ...
ROW D5 : ... .. . ... ... ... : ... .. . ... ... ... : ... .. . ... ... ... : --- .. . ... ... ... : ... .. . ... ... ... : ... .. . ... ... ... : ... .. . ... ... ... : ... .. . ... ... ... : ... .. . ... ... ... : ... .. . ... ... ... : ... .. . ... ... ... : ... .. . ... ... ... : ... .. . ... ... ...
ROW D6 : ... .. . ... ... ... : ... .. . ... ... ... : ... .. . ... ... ... : ... .. . ... ... ... : ... .. . ... ... ... : ... .. . ... ... ... : ... .. . ... ... ... : ... .. 3 ... ... ... : ... .. 6 ... ... ... : ... .. . ... ... ... : ... .. . ... ... ... : ... .. . ... ... ... : ... .. . ... ... ...
ROW D7 : ... .. . ... ... ... : C-4 02 . P80 ... ... : F#3 00 . P78 ... ... : 1-# 00 F ... ... ... : C-1 12 . ... ... ... : B-4 0C 7 P7C ... ... : ... .. . ... ... ... : --- .. . ... ... ... : A#3 0C 1 P85 ... ... : ... .. . ... ... ... : ... .. . ... ... ... : ... .. . ... ... ... : ... .. . ... ... ...
ROW D8 : ... .. . ... ... ... : F-3 02 . ... ... ... : C#3 00 . P7E ... ... : 2-# 00 7 ... ... ... : ... .. . ... ... ... : A#4 0C . P79 ... ... : ... .. . ... ... ... : ... .. . P80 ... ... : G-3 0C . ... ... ... : ... .. . ... ... ... : ... .. . ... ... ... : ... .. . ... ... ... : ... .. . ... ... ...
ROW D9 : ... .. . ... ... ... : A#2 02 . P81 ... ... : A-2 00 . P86 ... ... : 1-# 00 4 ... ... ... : ... .. . ... ... ... : A-4 0C . P78 ... ... : ... .. . ... ... ... : ... .. . ... ... ... : D#3 0C . P82 ... ... : ... .. . ... ... ... : ... .. . ... ... ... : ... .. . ... ... ... : ... .. . ... ... ...
ROW DA : ... .. . ... ... ... : D#2 02 . ... ... ... : --- .. . ... ... ... : ... .. 2 ... ... ... : ... .. . ... ... ... : G#4 0C . ... ... ... : ... .. . ... ... ... : ... .. . ... ... ... : A#2 0C . P7F ... ... : ... .. . ... ... ... : ... .. . ... ... ... : ... .. . ... ... ... : ... .. . ... ... ...
ROW DB : ... .. . ... ... ... : G#1 02 . ... ... ... : ... .. . ... ... ... : ... .. 1 ... ... ... : ... .. . ... ... ... : G-4 0C . ... ... ... : ... .. . ... ... ... : ... .. . ... ... ... : E-2 0C . P81 ... ... : ... .. . ... ... ... : ... .. . ... ... ... : ... .. . ... ... ... : ... .. . ... ... ...
ROW DC : ... .. . ... ... ... : C#1 02 . ... ... ... : ... .. . ... ... ... : --- .. . ... ... ... : ... .. . ... ... ... : --- .. . ... ... ... : ... .. . ... ... ... : ... .. . ... ... ... : --- .. . ... ... ... : ... .. . ... ... ... : ... .. . ... ... ... : ... .. . ... ... ... : ... .. . ... ... ...
ROW DD : ... .. . ... ... ... : ... .. . ... ... ... : ... .. . ... ... ... : ... .. . ... ... ... : ... .. . ... ... ... : B-4 0C . P7C ... ... : ... .. . ... ... ... : ... .. . ... ... ... : A#3 0C . P85 ... ... : ... .. . ... ... ... : ... .. . ... ... ... : ... .. . ... ... ... : ... .. . ... ... ...
ROW DE : ... .. . ... ... ... : ... .. . ... ... ... : ... .. . ... ... ... : ... .. . ... ... ... : ... .. . ... ... ... : A#4 0C . P79 ... ... : ... .. . ... ... ... : ... .. . ... ... ... : G-3 0C . ... ... ... : ... .. . ... ... ... : ... .. . ... ... ... : ... .. . ... ... ... : ... .. . ... ... ...
ROW DF : ... .. . ... ... ... : ... .. . ... ... ... : ... .. . ... ... ... : ... .. . ... ... ... : ... .. . ... ... ... : A-4 0C . P78 ... ... : ... .. . ... ... ... : ... .. . ... ... ... : --- .. . ... ... ... : ... .. . ... ... ... : ... .. . ... ... ... : ... .. . ... ... ... : ... .. . ... ... ...
ROW E0 : ... .. . ... ... ... : ... .. . ... ... ... : ... .. . ... ... ... : ... .. . ... ... ... : ... .. . ... ... ... : G#4 0C . ... ... ... : ... .. . ... ... ... : ... .. . ... ... ... : ... .. . P80 ... ... : ... .. . ... ... ... : ... .. . ... ... ... : ... .. . ... ... ... : ... .. . ... ... ...
ROW E1 : ... .. . ... ... ... : ... .. . ... ... ... : ... .. . ... ... ... : ... .. . ... ... ... : ... .. . ... ... ... : G-4 0C . ... ... ... : ... .. . ... ... ... : ... .. . ... ... ... : ... .. . ... ... ... : ... .. . ... ... ... : ... .. . ... ... ... : ... .. . ... ... ... : ... .. . ... ... ...
ROW E2 : ... .. . ... ... ... : ... .. . ... ... ... : ... .. . ... ... ... : ... .. . ... ... ... : ... .. . ... ... ... : --- .. . ... ... ... : ... .. . ... ... ... : ... .. . ... ... ... : ... .. . ... ... ... : ... .. . ... ... ... : ... .. . ... ... ... : ... .. . ... ... ... : ... .. . ... ... ...
ROW E3 : ... .. . ... ... ... : ... .. . ... ... ... : ... .. . ... ... ... : D-# 00 A ... ... ... : ... .. . ... ... ... : B-2 05 A P80 ... ... : A#2 05 . P7E ... ... : B-2 05 9 P7E ... ... : G#2 05 9 P81 ... ... : ... .. . ... ... ... : ... .. . ... ... ... : ... .. . ... ... ... : ... .. . ... ... ...
ROW E4 : ... .. . ... ... ... : ... .. . ... ... ... : ... .. . ... ... ... : E-# 00 4 ... ... ... : ... .. . ... ... ... : ... .. . ... ... ... : B-2 05 . P82 ... ... : ... .. . ... ... ... : ... .. . ... ... ... : ... .. . ... ... ... : ... .. . ... ... ... : ... .. . ... ... ... : ... .. . ... ... ...
ROW E5 : ... .. . ... ... ... : ... .. . ... ... ... : ... .. . ... ... ... : D-# 00 2 ... ... ... : ... .. . ... ... ... : ... .. . ... ... ... : ... .. . P83 ... ... : ... .. . ... ... ... : ... .. . ... ... ... : ... .. . ... ... ... : ... .. . ... ... ... : ... .. . ... ... ... : ... .. . ... ... ...
ROW E6 : ... .. . ... ... ... : ... .. . ... ... ... : ... .. . ... ... ... : ... .. 1 ... ... ... : ... .. . ... ... ... : ... .. . ... ... ... : A#2 05 . P7E ... ... : ... .. . ... ... ... : ... .. . ... ... ... : ... .. . ... ... ... : ... .. . ... ... ... : ... .. . ... ... ... : ... .. . ... ... ...
ROW E7 : ... .. . ... ... ... : ... .. . ... ... ... : ... .. . ... ... ... : ... .. . ... ... ... : ... .. . ... ... ... : --- .. . ... ... ... : --- .. . ... ... ... : --- .. . ... ... ... : --- .. . ... ... ... : ... .. . ... ... ... : ... .. . ... ... ... : ... .. . ... ... ... : ... .. . ... ... ...
ROW E8 : ... .. . ... ... ... : ... .. . ... ... ... : ... .. . ... ... ... : --- .. . ... ... ... : ... .. . ... ... ... : ... .. . ... ... ... : ... .. . P80 ... ... : ... .. . P80 ... ... : ... .. . P80 ... ... : ... .. . ... ... ... : ... .. . ... ... ... : ... .. . ... ... ... : ... .. . ... ... ...
ROW E9 : ... .. . ... ... ... : ... .. . ... ... ... : ... .. . ... ... ... : D-# 00 A ... ... ... : ... .. . ... ... ... : B-2 05 4 ... ... ... : B-2 05 4 P83 ... ... : B-2 05 3 P7E ... ... : G#2 05 3 P81 ... ... : ... .. . ... ... ... : ... .. . ... ... ... : ... .. . ... ... ... : ... .. . ... ... ...
ROW EA : ... .. . ... ... ... : ... .. . ... ... ... : ... .. . ... ... ... : E-# 00 4 ... ... ... : ... .. . ... ... ... : ... .. . ... ... ... : A#2 05 . P7E ... ... : ... .. . ... ... ... : ... .. . ... ... ... : ... .. . ... ... ... : ... .. . ... ... ... : ... .. . ... ... ... : ... .. . ... ... ...
ROW EB : ... .. . ... ... ... : ... .. . ... ... ... : ... .. . ... ... ... : D-# 00 2 ... ... ... : ... .. . ... ... ... : ... .. . ... ... ... : ... .. . P7F ... ... : ... .. . ... ... ... : ... .. . ... ... ... : ... .. . ... ... ... : ... .. . ... ... ... : ... .. . ... ... ... : ... .. . ... ... ...
ROW EC : ... .. . ... ... ... : ... .. . ... ... ... : ... .. . ... ... ... : ... .. 1 ... ... ... : ... .. . ... ... ... : ... .. . ... ... ... : ... .. . P7E ... ... : ... .. . ... ... ... : ... .. . ... ... ... : ... .. . ... ... ... : ... .. . ... ... ... : ... .. . ... ... ... : ... .. . ... ... ...
ROW ED : ... .. . ... ... ... : ... .. . ... ... ... : ... .. . ... ... ... : ... .. . ... ... ... : ... .. . ... ... ... : ... .. . ... ... ... : B-2 05 . P82 ... ... : ... .. 2 ... ... ... : ... .. . ... ... ... : ... .. . ... ... ... : ... .. . ... ... ... : ... .. . ... ... ... : ... .. . ... ... ...
ROW EE : ... .. . ... ... ... : ... .. . ... ... ... : ... .. . ... ... ... : --- .. . ... ... ... : ... .. . ... ... ... : --- .. . ... ... ... : --- .. . ... ... ... : --- .. . ... ... ... : --- .. . ... ... ... : ... .. . ... ... ... : ... .. . ... ... ... : ... .. . ... ... ... : ... .. . ... ... ...
ROW EF : ... .. . ... ... ... : ... .. . ... ... ... : ... .. . ... ... ... : ... .. . ... ... ... : ... .. . ... ... ... : ... .. . ... ... ... : ... .. . P80 ... ... : ... .. . P80 ... ... : ... .. . P80 ... ... : ... .. . ... ... ... : ... .. . ... ... ... : ... .. . ... ... ... : ... .. . ... ... ...
ROW F0 : ... .. . ... ... ... : C-4 02 . P80 ... ... : C#4 00 . P7F ... ... : 9-# 00 F ... ... ... : C#1 12 . ... ... ... : C#3 05 A ... ... ... : C#3 05 A P83 ... ... : C#3 05 9 P7E ... ... : B-2 05 9 P81 ... ... : ... .. . ... ... ... : ... .. . ... ... ... : ... .. . ... ... ... : ... .. . ... ... ...
ROW F1 : ... .. . ... ... ... : F-3 02 . ... ... ... : F#3 00 . P83 ... ... : 2-# 00 7 ... ... ... : ... .. . ... ... ... : ... .. . ... ... ... : ... .. . P82 ... ... : ... .. . ... ... ... : ... .. . ... ... ... : ... .. . ... ... ... : ... .. . ... ... ... : ... .. . ... ... ... : ... .. . ... ... ...
ROW F2 : ... .. . ... ... ... : A#2 02 . P81 ... ... : C#3 00 . P89 ... ... : 6-# 00 C ... ... ... : ... .. . ... ... ... : ... .. . ... ... ... : ... .. . P83 ... ... : ... .. . ... ... ... : ... .. . ... ... ... : ... .. . ... ... ... : ... .. . ... ... ... : ... .. . ... ... ... : ... .. . ... ... ...
ROW F3 : ... .. . ... ... ... : D#2 02 . ... ... ... : A#2 00 . P75 ... ... : 7-# 00 8 ... ... ... : ... .. . ... ... ... : ... .. . ... ... ... : C-3 05 . P7E ... ... : ... .. . ... ... ... : ... .. . ... ... ... : ... .. . ... ... ... : ... .. . ... ... ... : ... .. . ... ... ... : ... .. . ... ... ...
ROW F4 : ... .. . ... ... ... : G#1 02 . ... ... ... : G-2 00 . P70 ... ... : 8-# 00 7 ... ... ... : ... .. . ... ... ... : --- .. . ... ... ... : --- .. . ... ... ... : --- .. . ... ... ... : --- .. . ... ... ... : ... .. . ... ... ... : ... .. . ... ... ... : ... .. . ... ... ... : ... .. . ... ... ...
ROW F5 : ... .. . ... ... ... : C#1 02 . ... ... ... : E-2 00 . P7C ... ... : ... .. 6 ... ... ... : ... .. . ... ... ... : ... .. . ... ... ... : ... .. . P80 ... ... : ... .. . P80 ... ... : ... .. . P80 ... ... : ... .. . ... ... ... : ... .. . ... ... ... : ... .. . ... ... ... : ... .. . ... ... ...
ROW F6 : ... .. . ... ... ... : ... .. . ... ... ... : --- .. . ... ... ... : ... .. . ... ... ... : ... .. . ... ... ... : C#3 05 4 ... ... ... : C#3 05 4 P83 ... ... : C#3 05 3 P7E ... ... : B-2 05 3 P81 ... ... : ... .. . ... ... ... : ... .. . ... ... ... : ... .. . ... ... ... : ... .. . ... ... ...
ROW F7 : ... .. . ... ... ... : ... .. . ... ... ... : ... .. . ... ... ... : ... .. 5 ... ... ... : ... .. . ... ... ... : ... .. . ... ... ... : C-3 05 . P7E ... ... : ... .. . ... ... ... : ... .. . ... ... ... : ... .. . ... ... ... : ... .. . ... ... ... : ... .. . ... ... ... : ... .. . ... ... ...
ROW F8 : ... .. . ... ... ... : ... .. . ... ... ... : ... .. . ... ... ... : ... .. . ... ... ... : ... .. . ... ... ... : ... .. . ... ... ... : ... .. . ... ... ... : ... .. . ... ... ... : ... .. . ... ... ... : ... .. . ... ... ... : ... .. . ... ... ... : ... .. . ... ... ... : ... .. . ... ... ...
ROW F9 : ... .. . ... ... ... : ... .. . ... ... ... : ... .. . ... ... ... : ... .. 4 ... ... ... : ... .. . ... ... ... : ... .. . ... ... ... : C#3 05 . P83 ... ... : ... .. . ... ... ... : ... .. . ... ... ... : ... .. . ... ... ... : ... .. . ... ... ... : ... .. . ... ... ... : ... .. . ... ... ...
ROW FA : ... .. . ... ... ... : ... .. . ... ... ... : ... .. . ... ... ... : ... .. . ... ... ... : ... .. . ... ... ... : --- .. . ... ... ... : --- .. . ... ... ... : --- .. . ... ... ... : --- .. . ... ... ... : ... .. . ... ... ... : ... .. . ... ... ... : ... .. . ... ... ... : ... .. . ... ... ...
ROW FB : ... .. . ... ... ... : ... .. . ... ... ... : ... .. . ... ... ... : ... .. 3 ... ... ... : ... .. . ... ... ... : ... .. . ... ... ... : ... .. . P80 ... ... : ... .. . P80 ... ... : ... .. . P80 ... ... : ... .. . ... ... ... : ... .. . ... ... ... : ... .. . ... ... ... : ... .. . ... ... ...
ROW FC : ... .. . ... ... ... : ... .. . ... ... ... : ... .. . ... ... ... : D-# 00 A ... ... ... : ... .. . ... ... ... : G#3 05 A ... ... ... : G#3 05 A P84 ... ... : G#3 05 9 P7E ... ... : D#3 05 9 P81 ... ... : ... .. . ... ... ... : ... .. . ... ... ... : ... .. . ... ... ... : ... .. . ... ... ...
ROW FD : ... .. . ... ... ... : ... .. . ... ... ... : ... .. . ... ... ... : E-# 00 4 ... ... ... : ... .. . ... ... ... : ... .. . ... ... ... : ... .. . P83 ... ... : ... .. . ... ... ... : ... .. . ... ... ... : ... .. . ... ... ... : ... .. . ... ... ... : ... .. . ... ... ... : ... .. . ... ... ...
ROW FE : ... .. . ... ... ... : ... .. . ... ... ... : ... .. . ... ... ... : D-# 00 2 ... ... ... : ... .. . ... ... ... : ... .. . ... ... ... : ... .. . P82 ... ... : ... .. . ... ... ... : ... .. . ... ... ... : ... .. . ... ... ... : ... .. . ... ... ... : ... .. . ... ... ... : ... .. . ... ... ...
ROW FF : ... .. . ... ... ... : ... .. . ... ... ... : ... .. . ... ... ... : ... .. 1 ... ... ... : ... .. . ... ... ... : ... .. . ... ... ... : ... .. . P83 ... ... : ... .. . ... ... ... : ... .. . ... ... ... : ... .. . ... ... ... : ... .. . ... ... ... : ... .. . ... ... ... : ... .. . ... ... ...

PATTERN 07
ROW 00 : ... .. . ... ... ... : ... .. . ... ... ... : ... .. . ... ... ... : ... .. . ... ... ... : ... .. . ... ... ... : --- .. . ... ... ... : --- .. . ... ... ... : --- .. . ... ... ... : --- .. . ... ... ... : ... .. . ... ... ... : ... .. . ... ... ... : ... .. . ... ... ... : ... .. . ... ... ...
ROW 01 : ... .. . ... ... ... : ... .. . ... ... ... : ... .. . ... ... ... : --- .. . ... ... ... : ... .. . ... ... ... : ... .. . ... ... ... : ... .. . P80 ... ... : ... .. . P80 ... ... : ... .. . P80 ... ... : ... .. . ... ... ... : ... .. . ... ... ... : ... .. . ... ... ... : ... .. . ... ... ...
ROW 02 : ... .. . ... ... ... : ... .. . ... ... ... : ... .. . ... ... ... : D-# 00 A ... ... ... : ... .. . ... ... ... : G#3 05 4 ... ... ... : G#3 05 . P82 ... ... : G#3 05 . P7E ... ... : D#3 05 . P81 ... ... : ... .. . ... ... ... : ... .. . ... ... ... : ... .. . ... ... ... : ... .. . ... ... ...
ROW 03 : ... .. . ... ... ... : ... .. . ... ... ... : ... .. . ... ... ... : E-# 00 4 ... ... ... : ... .. . ... ... ... : ... .. . ... ... ... : ... .. . P83 ... ... : ... .. . ... ... ... : ... .. . ... ... ... : ... .. . ... ... ... : ... .. . ... ... ... : ... .. . ... ... ... : ... .. . ... ... ...
ROW 04 : ... .. . ... ... ... : ... .. . ... ... ... : ... .. . ... ... ... : D-# 00 2 ... ... ... : ... .. . ... ... ... : ... .. . ... ... ... : ... .. . P84 ... ... : ... .. . ... ... ... : ... .. . ... ... ... : ... .. . ... ... ... : ... .. . ... ... ... : ... .. . ... ... ... : ... .. . ... ... ...
ROW 05 : ... .. . ... ... ... : ... .. . ... ... ... : ... .. . ... ... ... : ... .. 1 ... ... ... : ... .. . ... ... ... : ... .. . ... ... ... : ... .. . ... ... ... : ... .. . ... ... ... : ... .. . ... ... ... : ... .. . ... ... ... : ... .. . ... ... ... : ... .. . ... ... ... : ... .. . ... ... ...
ROW 06 : ... .. . ... ... ... : ... .. . ... ... ... : ... .. . ... ... ... : ... .. . ... ... ... : ... .. . ... ... ... : ... .. . ... ... ... : ... .. . P83 ... ... : ... .. 8 ... ... ... : ... .. . ... ... ... : ... .. . ... ... ... : ... .. . ... ... ... : ... .. . ... ... ... : ... .. . ... ... ...
ROW 07 : ... .. . ... ... ... : ... .. . ... ... ... : ... .. . ... ... ... : --- .. . ... ... ... : ... .. . ... ... ... : --- .. . ... ... ... : --- .. . ... ... ... : --- .. . ... ... ... : --- .. . ... ... ... : ... .. . ... ... ... : ... .. . ... ... ... : ... .. . ... ... ... : ... .. . ... ... ...
ROW 08 : ... .. . ... ... ... : ... .. . ... ... ... : ... .. . ... ... ... : ... .. . ... ... ... : ... .. . ... ... ... : ... .. . ... ... ... : ... .. . P80 ... ... : ... .. . P80 ... ... : ... .. . P80 ... ... : ... .. . ... ... ... : ... .. . ... ... ... : ... .. . ... ... ... : ... .. . ... ... ...
ROW 09 : ... .. . ... ... ... : C-4 02 . P80 ... ... : F#3 00 . P78 ... ... : 1-# 00 F ... ... ... : C-1 12 . ... ... ... : G#1 06 F ... ... ... : G-1 06 F ... ... ... : ... .. . ... ... ... : G#1 06 E P7F ... ... : G#2 06 B P81 ... ... : ... .. . ... ... ... : ... .. . ... ... ... : ... .. . ... ... ...
ROW 0A : ... .. . ... ... ... : F-3 02 . ... ... ... : C#3 00 . P7E ... ... : 2-# 00 7 ... ... ... : ... .. . ... ... ... : ... .. . ... ... ... : G#1 06 . P81 ... ... : ... .. . ... ... ... : ... .. . ... ... ... : ... .. . ... ... ... : ... .. . ... ... ... : ... .. . ... ... ... : ... .. . ... ... ...
ROW 0B : ... .. . ... ... ... : A#2 02 . P81 ... ... : A-2 00 . P86 ... ... : 1-# 00 4 ... ... ... : ... .. . ... ... ... : ... .. . ... ... ... : ... .. . P80 ... ... : ... .. . ... ... ... : ... .. . ... ... ... : ... .. . ... ... ... : ... .. . ... ... ... : ... .. . ... ... ... : ... .. . ... ... ...
ROW 0C : ... .. . ... ... ... : D#2 02 . ... ... ... : --- .. . ... ... ... : ... .. 2 ... ... ... : ... .. . ... ... ... : G#1 07 . ... ... ... : G#1 07 . P81 ... ... : ... .. . ... ... ... : G#1 07 . ... ... ... : G#2 07 . ... ... ... : ... .. . ... ... ... : ... .. . ... ... ... : ... .. . ... ... ...
ROW 0D : ... .. . ... ... ... : G#1 02 . ... ... ... : ... .. . ... ... ... : ... .. 1 ... ... ... : ... .. . ... ... ... : ... .. . ... ... ... : G-1 07 . P80 ... ... : ... .. . ... ... ... : ... .. . ... ... ... : ... .. A ... ... ... : ... .. . ... ... ... : ... .. . ... ... ... : ... .. . ... ... ...
ROW 0E : ... .. . ... ... ... : C#1 02 . ... ... ... : ... .. . ... ... ... : --- .. . ... ... ... : ... .. . ... ... ... : ... .. . ... ... ... : G#1 07 . P81 ... ... : ... .. . ... ... ... : ... .. . ... ... ... : ... .. . ... ... ... : ... .. . ... ... ... : ... .. . ... ... ... : ... .. . ... ... ...
ROW 0F : ... .. . ... ... ... : ... .. . ... ... ... : ... .. . ... ... ... : ... .. . ... ... ... : ... .. . ... ... ... : G#1 08 . ... ... ... : G#1 08 . P80 ... ... : ... .. . ... ... ... : G#1 08 . ... ... ... : G#2 08 . ... ... ... : ... .. . ... ... ... : ... .. . ... ... ... : ... .. . ... ... ...
ROW 10 : ... .. . ... ... ... : ... .. . ... ... ... : ... .. . ... ... ... : ... .. . ... ... ... : ... .. . ... ... ... : ... .. . ... ... ... : ... .. . P81 ... ... : ... .. . ... ... ... : ... .. . ... ... ... : ... .. . ... ... ... : ... .. . ... ... ... : ... .. . ... ... ... : ... .. . ... ... ...
ROW 11 : ... .. . ... ... ... : ... .. . ... ... ... : ... .. . ... ... ... : ... .. . ... ... ... : ... .. . ... ... ... : ... .. . ... ... ... : G-1 08 . P80 ... ... : ... .. . ... ... ... : ... .. D ... ... ... : ... .. 9 ... ... ... : ... .. . ... ... ... : ... .. . ... ... ... : ... .. . ... ... ...
ROW 12 : ... .. . ... ... ... : ... .. . ... ... ... : ... .. . ... ... ... : ... .. . ... ... ... : ... .. . ... ... ... : G#1 09 . ... ... ... : G#1 09 . P81 ... ... : ... .. . ... ... ... : G#1 09 . ... ... ... : G#2 09 . ... ... ... : ... .. . ... ... ... : ... .. . ... ... ... : ... .. . ... ... ...
ROW 13 : ... .. . ... ... ... : ... .. . ... ... ... : ... .. . ... ... ... : ... .. . ... ... ... : ... .. . ... ... ... : ... .. . ... ... ... : ... .. . P80 ... ... : ... .. . ... ... ... : ... .. . ... ... ... : ... .. . ... ... ... : ... .. . ... ... ... : ... .. . ... ... ... : ... .. . ... ... ...
ROW 14 : ... .. . ... ... ... : ... .. . ... ... ... : ... .. . ... ... ... : ... .. . ... ... ... : ... .. . ... ... ... : ... .. . ... ... ... : ... .. . P81 ... ... : ... .. . ... ... ... : ... .. . ... ... ... : ... .. . ... ... ... : ... .. . ... ... ... : ... .. . ... ... ... : ... .. . ... ... ...
ROW 15 : ... .. . ... ... ... : ... .. . ... ... ... : ... .. . ... ... ... : D-# 00 A ... ... ... : ... .. . ... ... ... : ... .. . ... ... ... : G-1 09 . P80 ... ... : ... .. . ... ... ... : ... .. . ... ... ... : ... .. 8 ... ... ... : ... .. . ... ... ... : ... .. . ... ... ... : ... .. . ... ... ...
ROW 16 : ... .. . ... ... ... : ... .. . ... ... ... : ... .. . ... ... ... : E-# 00 4 ... ... ... : ... .. . ... ... ... : ... .. . ... ... ... : ... .. . ... ... ... : ... .. . ... ... ... : ... .. . ... ... ... : ... .. . ... ... ... : ... .. . ... ... ... : ... .. . ... ... ... : ... .. . ... ... ...
ROW 17 : ... .. . ... ... ... : ... .. . ... ... ... : ... .. . ... ... ... : D-# 00 2 ... ... ... : ... .. . ... ... ... : ... .. . ... ... ... : G#1 09 . P81 ... ... : ... .. . ... ... ... : ... .. . ... ... ... : ... .. . ... ... ... : ... .. . ... ... ... : ... .. . ... ... ... : ... .. . ... ... ...
ROW 18 : ... .. . ... ... ... : ... .. . ... ... ... : ... .. . ... ... ... : ... .. 1 ... ... ... : ... .. . ... ... ... : G#1 08 . ... ... ... : G#1 08 . ... ... ... : ... .. . ... ... ... : G#1 08 . ... ... ... : G#2 08 . ... ... ... : ... .. . ... ... ... : ... .. . ... ... ... : ... .. . ... ... ...
ROW 19 : ... .. . ... ... ... : ... .. . ... ... ... : ... .. . ... ... ... : ... .. . ... ... ... : ... .. . ... ... ... : ... .. . ... ... ... : G-1 08 . P80 ... ... : ... .. . ... ... ... : ... .. C ... ... ... : ... .. 7 ... ... ... : ... .. . ... ... ... : ... .. . ... ... ... : ... .. . ... ... ...
ROW 1A : ... .. . ... ... ... : ... .. . ... ... ... : ... .. . ... ... ... : --- .. . ... ... ... : ... .. . ... ... ... : ... .. . ... ... ... : ... .. . ... ... ... : ... .. . ... ... ... : ... .. . ... ... ... : ... .. . ... ... ... : ... .. . ... ... ... : ... .. . ... ... ... : ... .. . ... ... ...
ROW 1B : ... .. . ... ... ... : ... .. . ... ... ... : ... .. . ... ... ... : D-# 00 A ... ... ... : ... .. . ... ... ... : G#1 07 . ... ... ... : G#1 07 . P81 ... ... : ... .. . ... ... ... : G#1 07 . ... ... ... : G#2 07 . ... ... ... : ... .. . ... ... ... : ... .. . ... ... ... : ... .. . ... ... ...
ROW 1C : ... .. . ... ... ... : ... .. . ... ... ... : ... .. . ... ... ... : E-# 00 4 ... ... ... : ... .. . ... ... ... : ... .. . ... ... ... : ... .. . P80 ... ... : ... .. . ... ... ... : ... .. . ... ... ... : ... .. . ... ... ... : ... .. . ... ... ... : ... .. . ... ... ... : ... .. . ... ... ...
ROW 1D : ... .. . ... ... ... : ... .. . ... ... ... : ... .. . ... ... ... : D-# 00 2 ... ... ... : ... .. . ... ... ... : ... .. . ... ... ... : ... .. . P81 ... ... : ... .. . ... ... ... : ... .. . ... ... ... : ... .. 6 ... ... ... : ... .. . ... ... ... : ... .. . ... ... ... : ... .. . ... ... ...
ROW 1E : ... .. . ... ... ... : ... .. . ... ... ... : ... .. . ... ... ... : ... .. 1 ... ... ... : ... .. . ... ... ... : G#1 06 . ... ... ... : G-1 06 . P80 ... ... : ... .. . ... ... ... : G#1 06 . ... ... ... : G#2 06 . ... ... ... : ... .. . ... ... ... : ... .. . ... ... ... : ... .. . ... ... ...
ROW 1F : ... .. . ... ... ... : ... .. . ... ... ... : ... .. . ... ... ... : ... .. . ... ... ... : ... .. . ... ... ... : ... .. . ... ... ... : G#1 06 . P81 ... ... : ... .. . ... ... ... : ... .. . ... ... ... : ... .. . ... ... ... : ... .. . ... ... ... : ... .. . ... ... ... : ... .. . ... ... ...
ROW 20 : ... .. . ... ... ... : ... .. . ... ... ... : ... .. . ... ... ... : --- .. . ... ... ... : ... .. . ... ... ... : ... .. . ... ... ... : ... .. . P80 ... ... : ... .. . ... ... ... : ... .. . ... ... ... : ... .. . ... ... ... : ... .. . ... ... ... : ... .. . ... ... ... : ... .. . ... ... ...
ROW 21 : ... .. . ... ... ... : ... .. . ... ... ... : ... .. . ... ... ... : ... .. . ... ... ... : ... .. . ... ... ... : ... .. . ... ... ... : ... .. . P81 ... ... : ... .. . ... ... ... : ... .. B ... ... ... : ... .. 5 ... ... ... : ... .. . ... ... ... : ... .. . ... ... ... : ... .. . ... ... ...
ROW 22 : ... .. . ... ... ... : C-4 02 . P80 ... ... : C#4 00 . P7F ... ... : 9-# 00 F ... ... ... : C#1 12 . ... ... ... : D-2 06 . ... ... ... : C#2 06 . P7F ... ... : ... .. . ... ... ... : D-2 06 . ... ... ... : D-3 06 . ... ... ... : ... .. . ... ... ... : ... .. . ... ... ... : ... .. . ... ... ...
ROW 23 : ... .. . ... ... ... : F-3 02 . ... ... ... : F#3 00 . P83 ... ... : 2-# 00 7 ... ... ... : ... .. . ... ... ... : ... .. . ... ... ... : D-2 06 . P81 ... ... : ... .. . ... ... ... : ... .. . ... ... ... : ... .. . ... ... ... : ... .. . ... ... ... : ... .. . ... ... ... : ... .. . ... ... ...
ROW 24 : ... .. . ... ... ... : A#2 02 . P81 ... ... : C#3 00 . P89 ... ... : 6-# 00 C ... ... ... : ... .. . ... ... ... : ... .. . ... ... ... : ... .. . P80 ... ... : ... .. . ... ... ... : ... .. . ... ... ... : ... .. . ... ... ... : ... .. . ... ... ... : ... .. . ... ... ... : ... .. . ... ... ...
ROW 25 : ... .. . ... ... ... : D#2 02 . ... ... ... : A#2 00 . P75 ... ... : 7-# 00 8 ... ... ... : ... .. . ... ... ... : D-2 08 . ... ... ... : D-2 08 . P81 ... ... : ... .. . ... ... ... : D-2 08 . ... ... ... : D-3 08 4 ... ... ... : ... .. . ... ... ... : ... .. . ... ... ... : ... .. . ... ... ...
ROW 26 : ... .. . ... ... ... : G#1 02 . ... ... ... : G-2 00 . P70 ... ... : 8-# 00 7 ... ... ... : ... .. . ... ... ... : ... .. . ... ... ... : ... .. . P82 ... ... : ... .. . ... ... ... : ... .. . ... ... ... : ... .. . ... ... ... : ... .. . ... ... ... : ... .. . ... ... ... : ... .. . ... ... ...
ROW 27 : ... .. . ... ... ... : C#1 02 . ... ... ... : E-2 00 . P7C ... ... : ... .. 6 ... ... ... : ... .. . ... ... ... : ... .. . ... ... ... : ... .. . ... ... ... : ... .. . ... ... ... : ... .. . ... ... ... : ... .. . ... ... ... : ... .. . ... ... ... : ... .. . ... ... ... : ... .. . ... ... ...
ROW 28 : ... .. . ... ... ... : ... .. . ... ... ... : --- .. . ... ... ... : ... .. . ... ... ... : ... .. . ... ... ... : D-2 09 . ... ... ... : D-2 09 . P81 ... ... : ... .. . ... ... ... : D-2 09 . ... ... ... : D-3 09 . ... ... ... : ... .. . ... ... ... : ... .. . ... ... ... : ... .. . ... ... ...
ROW 29 : ... .. . ... ... ... : ... .. . ... ... ... : ... .. . ... ... ... : ... .. 5 ... ... ... : ... .. . ... ... ... : ... .. . ... ... ... : ... .. . ... ... ... : ... .. . ... ... ... : ... .. A ... ... ... : ... .. 3 ... ... ... : ... .. . ... ... ... : ... .. . ... ... ... : ... .. . ... ... ...
ROW 2A : ... .. . ... ... ... : ... .. . ... ... ... : ... .. . ... ... ... : ... .. . ... ... ... : ... .. . ... ... ... : ... .. . ... ... ... : ... .. . P82 ... ... : ... .. . ... ... ... : ... .. . ... ... ... : ... .. . ... ... ... : ... .. . ... ... ... : ... .. . ... ... ... : ... .. . ... ... ...
ROW 2B : ... .. . ... ... ... : ... .. . ... ... ... : ... .. . ... ... ... : ... .. 4 ... ... ... : ... .. . ... ... ... : D-2 07 . ... ... ... : C#2 07 . P7F ... ... : ... .. . ... ... ... : D-2 07 . ... ... ... : D-3 07 . ... ... ... : ... .. . ... ... ... : ... .. . ... ... ... : ... .. . ... ... ...
ROW 2C : ... .. . ... ... ... : ... .. . ... ... ... : ... .. . ... ... ... : ... .. . ... ... ... : ... .. . ... ... ... : ... .. . ... ... ... : D-2 07 . P81 ... ... : ... .. . ... ... ... : ... .. . ... ... ... : ... .. . ... ... ... : ... .. . ... ... ... : ... .. . ... ... ... : ... .. . ... ... ...
ROW 2D : ... .. . ... ... ... : ... .. . ... ... ... : ... .. . ... ... ... : ... .. 3 ... ... ... : ... .. . ... ... ... : ... .. . ... ... ... : ... .. . P80 ... ... : ... .. . ... ... ... : ... .. . ... ... ... : ... .. 2 ... ... ... : ... .. . ... ... ... : ... .. . ... ... ... : ... .. . ... ... ...
ROW 2E : ... .. . ... ... ... : ... .. . ... ... ... : ... .. . ... ... ... : D-# 00 A ... ... ... : ... .. . ... ... ... : D-2 06 . ... ... ... : D-2 06 . P81 ... ... : ... .. . ... ... ... : D-2 06 . ... ... ... : D-3 06 . ... ... ... : ... .. . ... ... ... : ... .. . ... ... ... : ... .. . ... ... ...
ROW 2F : ... .. . ... ... ... : ... .. . ... ... ... : ... .. . ... ... ... : E-# 00 4 ... ... ... : ... .. . ... ... ... : ... .. . ... ... ... : C#2 06 . P7F ... ... : ... .. . ... ... ... : ... .. . ... ... ... : ... .. . ... ... ... : ... .. . ... ... ... : ... .. . ... ... ... : ... .. . ... ... ...
ROW 30 : ... .. . ... ... ... : ... .. . ... ... ... : ... .. . ... ... ... : D-# 00 2 ... ... ... : ... .. . ... ... ... : ... .. . ... ... ... : D-2 06 . P81 ... ... : ... .. . ... ... ... : ... .. . ... ... ... : ... .. . ... ... ... : ... .. . ... ... ... : ... .. . ... ... ... : ... .. . ... ... ...
ROW 31 : ... .. . ... ... ... : ... .. . ... ... ... : ... .. . ... ... ... : ... .. 1 ... ... ... : ... .. . ... ... ... : D-2 08 . ... ... ... : D-2 08 . P80 ... ... : ... .. . ... ... ... : D-2 08 9 ... ... ... : D-3 08 1 ... ... ... : ... .. . ... ... ... : ... .. . ... ... ... : ... .. . ... ... ...
ROW 32 : ... .. . ... ... ... : ... .. . ... ... ... : ... .. . ... ... ... : ... .. . ... ... ... : ... .. . ... ... ... : ... .. . ... ... ... : ... .. . P81 ... ... : ... .. . ... ... ... : ... .. . ... ... ... : ... .. . ... ... ... : ... .. . ... ... ... : ... .. . ... ... ... : ... .. . ... ... ...
ROW 33 : ... .. . ... ... ... : ... .. . ... ... ... : ... .. . ... ... ... : --- .. . ... ... ... : ... .. . ... ... ... : ... .. . ... ... ... : C#2 08 . P7F ... ... : ... .. . ... ... ... : ... .. . ... ... ... : ... .. . ... ... ... : ... .. . ... ... ... : ... .. . ... ... ... : ... .. . ... ... ...
ROW 34 : ... .. . ... ... ... : ... .. . ... ... ... : ... .. . ... ... ... : D-# 00 A ... ... ... : ... .. . ... ... ... : D-2 09 . ... ... ... : D-2 09 . P81 ... ... : ... .. . ... ... ... : D-2 09 . ... ... ... : D-3 09 . ... ... ... : ... .. . ... ... ... : ... .. . ... ... ... : ... .. . ... ... ...
ROW 35 : ... .. . ... ... ... : ... .. . ... ... ... : ... .. . ... ... ... : E-# 00 4 ... ... ... : ... .. . ... ... ... : ... .. . ... ... ... : ... .. . P80 ... ... : ... .. . ... ... ... : ... .. . ... ... ... : --- .. . ... ... ... : ... .. . ... ... ... : ... .. . ... ... ... : ... .. . ... ... ...
ROW 36 : ... .. . ... ... ... : ... .. . ... ... ... : ... .. . ... ... ... : D-# 00 2 ... ... ... : ... .. . ... ... ... : ... .. . ... ... ... : ... .. . P81 ... ... : ... .. . ... ... ... : ... .. . ... ... ... : ... .. . P80 ... ... : ... .. . ... ... ... : ... .. . ... ... ... : ... .. . ... ... ...
ROW 37 : ... .. . ... ... ... : ... .. . ... ... ... : ... .. . ... ... ... : ... .. 1 ... ... ... : ... .. . ... ... ... : D-2 07 . ... ... ... : D-2 07 . P82 ... ... : ... .. . ... ... ... : D-2 07 . ... ... ... : ... .. . ... ... ... : ... .. . ... ... ... : ... .. . ... ... ... : ... .. . ... ... ...
ROW 38 : ... .. . ... ... ... : ... .. . ... ... ... : ... .. . ... ... ... : ... .. . ... ... ... : ... .. . ... ... ... : ... .. . ... ... ... : ... .. . ... ... ... : ... .. . ... ... ... : ... .. . ... ... ... : ... .. . ... ... ... : ... .. . ... ... ... : ... .. . ... ... ... : ... .. . ... ... ...
ROW 39 : ... .. . ... ... ... : ... .. . ... ... ... : ... .. . ... ... ... : --- .. . ... ... ... : ... .. . ... ... ... : ... .. . ... ... ... : ... .. . P81 ... ... : ... .. . ... ... ... : ... .. 8 ... ... ... : ... .. . ... ... ... : ... .. . ... ... ... : ... .. . ... ... ... : ... .. . ... ... ...
ROW 3A : ... .. . ... ... ... : ... .. . ... ... ... : ... .. . ... ... ... : ... .. . ... ... ... : ... .. . ... ... ... : ... .. . ... ... ... : ... .. . P80 ... ... : ... .. . ... ... ... : ... .. . ... ... ... : ... .. . ... ... ... : ... .. . ... ... ... : ... .. . ... ... ... : ... .. . ... ... ...
ROW 3B : ... .. . ... ... ... : C-4 02 . P80 ... ... : F#3 00 . P78 ... ... : 1-# 00 F ... ... ... : C-1 12 . ... ... ... : C#2 06 . ... ... ... : C#2 06 . P81 ... ... : ... .. . ... ... ... : C#2 06 . ... ... ... : ... .. . ... ... ... : ... .. . ... ... ... : ... .. . ... ... ... : ... .. . ... ... ...
ROW 3C : ... .. . ... ... ... : F-3 02 . ... ... ... : C#3 00 . P7E ... ... : 2-# 00 7 ... ... ... : ... .. . ... ... ... : ... .. . ... ... ... : C-2 06 . P7F ... ... : ... .. . ... ... ... : ... .. . ... ... ... : ... .. . ... ... ... : ... .. . ... ... ... : ... .. . ... ... ... : ... .. . ... ... ...
ROW 3D : ... .. . ... ... ... : A#2 02 . P81 ... ... : A-2 00 . P86 ... ... : 1-# 00 4 ... ... ... : ... .. . ... ... ... : ... .. . ... ... ... : C#2 06 . P81 ... ... : ... .. . ... ... ... : ... .. . ... ... ... : ... .. . ... ... ... : ... .. . ... ... ... : ... .. . ... ... ... : ... .. . ... ... ...
ROW 3E : ... .. . ... ... ... : D#2 02 . ... ... ... : --- .. . ... ... ... : ... .. 2 ... ... ... : ... .. . ... ... ... : C#2 09 . ... ... ... : C#2 09 . P80 ... ... : ... .. . ... ... ... : C#2 09 . ... ... ... : ... .. . ... ... ... : ... .. . ... ... ... : ... .. . ... ... ... : ... .. . ... ... ...
ROW 3F : ... .. . ... ... ... : G#1 02 . ... ... ... : ... .. . ... ... ... : ... .. 1 ... ... ... : ... .. . ... ... ... : ... .. . ... ... ... : ... .. . P81 ... ... : ... .. . ... ... ... : ... .. . ... ... ... : ... .. . ... ... ... : ... .. . ... ... ... : ... .. . ... ... ... : ... .. . ... ... ...
ROW 40 : ... .. . ... ... ... : C#1 02 . ... ... ... : ... .. . ... ... ... : --- .. . ... ... ... : ... .. . ... ... ... : ... .. . ... ... ... : C-2 09 . P7F ... ... : ... .. . ... ... ... : ... .. . ... ... ... : ... .. . ... ... ... : ... .. . ... ... ... : ... .. . ... ... ... : ... .. . ... ... ...
ROW 41 : ... .. . ... ... ... : ... .. . ... ... ... : ... .. . ... ... ... : ... .. . ... ... ... : ... .. . ... ... ... : C#2 06 . ... ... ... : C#2 06 . P81 ... ... : ... .. . ... ... ... : C#2 06 7 ... ... ... : ... .. . ... ... ... : ... .. . ... ... ... : ... .. . ... ... ... : ... .. . ... ... ...
ROW 42 : ... .. . ... ... ... : ... .. . ... ... ... : ... .. . ... ... ... : ... .. . ... ... ... : ... .. . ... ... ... : ... .. . ... ... ... : ... .. . P80 ... ... : ... .. . ... ... ... : ... .. . ... ... ... : ... .. . ... ... ... : ... .. . ... ... ... : ... .. . ... ... ... : ... .. . ... ... ...
ROW 43 : ... .. . ... ... ... : ... .. . ... ... ... : ... .. . ... ... ... : ... .. . ... ... ... : ... .. . ... ... ... : ... .. . ... ... ... : ... .. . P81 ... ... : ... .. . ... ... ... : ... .. . ... ... ... : ... .. . ... ... ... : ... .. . ... ... ... : ... .. . ... ... ... : ... .. . ... ... ...
ROW 44 : ... .. . ... ... ... : ... .. . ... ... ... : ... .. . ... ... ... : ... .. . ... ... ... : ... .. . ... ... ... : C#2 09 . ... ... ... : C-2 09 . P7F ... ... : ... .. . ... ... ... : C#2 09 . ... ... ... : ... .. . ... ... ... : ... .. . ... ... ... : ... .. . ... ... ... : ... .. . ... ... ...
ROW 45 : ... .. . ... ... ... : ... .. . ... ... ... : ... .. . ... ... ... : ... .. . ... ... ... : ... .. . ... ... ... : ... .. . ... ... ... : C#2 09 . P82 ... ... : ... .. . ... ... ... : ... .. . ... ... ... : ... .. . ... ... ... : ... .. . ... ... ... : ... .. . ... ... ... : ... .. . ... ... ...
ROW 46 : ... .. . ... ... ... : ... .. . ... ... ... : ... .. . ... ... ... : ... .. . ... ... ... : ... .. . ... ... ... : ... .. . ... ... ... : ... .. . P81 ... ... : ... .. . ... ... ... : ... .. . ... ... ... : ... .. . ... ... ... : ... .. . ... ... ... : ... .. . ... ... ... : ... .. . ... ... ...
ROW 47 : ... .. . ... ... ... : ... .. . ... ... ... : ... .. . ... ... ... : D-# 00 A ... ... ... : ... .. . ... ... ... : C#2 06 . ... ... ... : C#2 06 . ... ... ... : ... .. . ... ... ... : C#2 06 . ... ... ... : ... .. . ... ... ... : ... .. . ... ... ... : ... .. . ... ... ... : ... .. . ... ... ...
ROW 48 : ... .. . ... ... ... : ... .. . ... ... ... : ... .. . ... ... ... : E-# 00 4 ... ... ... : ... .. . ... ... ... : ... .. . ... ... ... : ... .. . P82 ... ... : ... .. . ... ... ... : ... .. . ... ... ... : ... .. . ... ... ... : ... .. . ... ... ... : ... .. . ... ... ... : ... .. . ... ... ...
ROW 49 : ... .. . ... ... ... : ... .. . ... ... ... : ... .. . ... ... ... : D-# 00 2 ... ... ... : ... .. . ... ... ... : ... .. . ... ... ... : ... .. . ... ... ... : ... .. . ... ... ... : ... .. 6 ... ... ... : ... .. . ... ... ... : ... .. . ... ... ... : ... .. . ... ... ... : ... .. . ... ... ...
ROW 4A : ... .. . ... ... ... : ... .. . ... ... ... : ... .. . ... ... ... : ... .. 1 ... ... ... : ... .. . ... ... ... : C#2 09 . ... ... ... : C#2 09 . P81 ... ... : ... .. . ... ... ... : C#2 09 . ... ... ... : ... .. . ... ... ... : ... .. . ... ... ... : ... .. . ... ... ... : ... .. . ... ... ...
ROW 4B : ... .. . ... ... ... : ... .. . ... ... ... : ... .. . ... ... ... : ... .. . ... ... ... : ... .. . ... ... ... : ... .. . ... ... ... : ... .. . P80 ... ... : ... .. . ... ... ... : ... .. . ... ... ... : ... .. . ... ... ... : ... .. . ... ... ... : ... .. . ... ... ... : ... .. . ... ... ...
ROW 4C : ... .. . ... ... ... : ... .. . ... ... ... : ... .. . ... ... ... : --- .. . ... ... ... : ... .. . ... ... ... : ... .. . ... ... ... : ... .. . P81 ... ... : ... .. . ... ... ... : ... .. . ... ... ... : ... .. . ... ... ... : ... .. . ... ... ... : ... .. . ... ... ... : ... .. . ... ... ...
ROW 4D : ... .. . ... ... ... : ... .. . ... ... ... : ... .. . ... ... ... : D-# 00 A ... ... ... : ... .. . ... ... ... : C#2 06 . ... ... ... : C-2 06 . P7F ... ... : ... .. . ... ... ... : C#2 06 . ... ... ... : ... .. . ... ... ... : ... .. . ... ... ... : ... .. . ... ... ... : ... .. . ... ... ...
ROW 4E : ... .. . ... ... ... : ... .. . ... ... ... : ... .. . ... ... ... : E-# 00 4 ... ... ... : ... .. . ... ... ... : ... .. . ... ... ... : C#2 06 . P81 ... ... : ... .. . ... ... ... : ... .. . ... ... ... : ... .. . ... ... ... : ... .. . ... ... ... : ... .. . ... ... ... : ... .. . ... ... ...
ROW 4F : ... .. . ... ... ... : ... .. . ... ... ... : ... .. . ... ... ... : D-# 00 2 ... ... ... : ... .. . ... ... ... : ... .. . ... ... ... : ... .. . P80 ... ... : ... .. . ... ... ... : ... .. . ... ... ... : ... .. . ... ... ... : ... .. . ... ... ... : ... .. . ... ... ... : ... .. . ... ... ...
ROW 50 : ... .. . ... ... ... : ... .. . ... ... ... : ... .. . ... ... ... : ... .. 1 ... ... ... : ... .. . ... ... ... : C#2 09 . ... ... ... : C#2 09 . P81 ... ... : ... .. . ... ... ... : C#2 09 . ... ... ... : ... .. . ... ... ... : ... .. . ... ... ... : ... .. . ... ... ... : ... .. . ... ... ...
ROW 51 : ... .. . ... ... ... : ... .. . ... ... ... : ... .. . ... ... ... : ... .. . ... ... ... : ... .. . ... ... ... : ... .. . ... ... ... : C-2 09 . P7F ... ... : ... .. . ... ... ... : ... .. 5 ... ... ... : ... .. . ... ... ... : ... .. . ... ... ... : ... .. . ... ... ... : ... .. . ... ... ...
ROW 52 : ... .. . ... ... ... : ... .. . ... ... ... : ... .. . ... ... ... : --- .. . ... ... ... : ... .. . ... ... ... : ... .. . ... ... ... : C#2 09 . P81 ... ... : ... .. . ... ... ... : ... .. . ... ... ... : ... .. . ... ... ... : ... .. . ... ... ... : ... .. . ... ... ... : ... .. . ... ... ...
ROW 53 : ... .. . ... ... ... : ... .. . ... ... ... : ... .. . ... ... ... : ... .. . ... ... ... : ... .. . ... ... ... : ... .. . ... ... ... : ... .. . P80 ... ... : ... .. . ... ... ... : ... .. . ... ... ... : ... .. . ... ... ... : ... .. . ... ... ... : ... .. . ... ... ... : ... .. . ... ... ...
ROW 54 : ... .. . ... ... ... : C-4 02 . P80 ... ... : C#4 00 . P7F ... ... : 9-# 00 F ... ... ... : C#1 12 . ... ... ... : F#1 06 . ... ... ... : F#1 06 . P81 ... ... : ... .. . ... ... ... : F#1 06 . ... ... ... : ... .. . ... ... ... : ... .. . ... ... ... : ... .. . ... ... ... : ... .. . ... ... ...
ROW 55 : ... .. . ... ... ... : F-3 02 . ... ... ... : F#3 00 . P83 ... ... : 2-# 00 7 ... ... ... : ... .. . ... ... ... : ... .. . ... ... ... : F-1 06 . P80 ... ... : ... .. . ... ... ... : ... .. . ... ... ... : ... .. . ... ... ... : ... .. . ... ... ... : ... .. . ... ... ... : ... .. . ... ... ...
ROW 56 : ... .. . ... ... ... : A#2 02 . P81 ... ... : C#3 00 . P89 ... ... : 6-# 00 C ... ... ... : ... .. . ... ... ... : ... .. . ... ... ... : ... .. . ... ... ... : ... .. . ... ... ... : ... .. . ... ... ... : ... .. . ... ... ... : ... .. . ... ... ... : ... .. . ... ... ... : ... .. . ... ... ...
ROW 57 : ... .. . ... ... ... : D#2 02 . ... ... ... : A#2 00 . P75 ... ... : 7-# 00 8 ... ... ... : ... .. . ... ... ... : ... .. . ... ... ... : F#1 06 . P81 ... ... : ... .. . ... ... ... : ... .. . ... ... ... : ... .. . ... ... ... : ... .. . ... ... ... : ... .. . ... ... ... : ... .. . ... ... ...
ROW 58 : ... .. . ... ... ... : G#1 02 . ... ... ... : G-2 00 . P70 ... ... : 8-# 00 7 ... ... ... : ... .. . ... ... ... : ... .. . ... ... ... : ... .. . ... ... ... : ... .. . ... ... ... : ... .. . ... ... ... : ... .. . ... ... ... : ... .. . ... ... ... : ... .. . ... ... ... : ... .. . ... ... ...
ROW 59 : ... .. . ... ... ... : C#1 02 . ... ... ... : E-2 00 . P7C ... ... : ... .. 6 ... ... ... : ... .. . ... ... ... : ... .. . ... ... ... : F-1 06 . P80 ... ... : ... .. . ... ... ... : ... .. 4 ... ... ... : ... .. . ... ... ... : ... .. . ... ... ... : ... .. . ... ... ... : ... .. . ... ... ...
ROW 5A : ... .. . ... ... ... : ... .. . ... ... ... : --- .. . ... ... ... : ... .. . ... ... ... : ... .. . ... ... ... : F#1 07 . ... ... ... : F-1 07 . ... ... ... : ... .. . ... ... ... : F#1 07 . ... ... ... : ... .. . ... ... ... : ... .. . ... ... ... : ... .. . ... ... ... : ... .. . ... ... ...
ROW 5B : ... .. . ... ... ... : ... .. . ... ... ... : ... .. . ... ... ... : ... .. 5 ... ... ... : ... .. . ... ... ... : ... .. . ... ... ... : F#1 07 . P81 ... ... : ... .. . ... ... ... : ... .. . ... ... ... : ... .. . ... ... ... : ... .. . ... ... ... : ... .. . ... ... ... : ... .. . ... ... ...
ROW 5C : ... .. . ... ... ... : ... .. . ... ... ... : ... .. . ... ... ... : ... .. . ... ... ... : ... .. . ... ... ... : ... .. . ... ... ... : ... .. . P80 ... ... : ... .. . ... ... ... : ... .. . ... ... ... : ... .. . ... ... ... : ... .. . ... ... ... : ... .. . ... ... ... : ... .. . ... ... ...
ROW 5D : ... .. . ... ... ... : ... .. . ... ... ... : ... .. . ... ... ... : ... .. 4 ... ... ... : ... .. . ... ... ... : F-1 07 . ... ... ... : F-1 07 . P81 ... ... : ... .. . ... ... ... : ... .. . P81 ... ... : ... .. . ... ... ... : ... .. . ... ... ... : ... .. . ... ... ... : ... .. . ... ... ...
ROW 5E : ... .. . ... ... ... : ... .. . ... ... ... : ... .. . ... ... ... : ... .. . ... ... ... : ... .. . ... ... ... : E-1 07 . ... ... ... : D#1 07 . P80 ... ... : ... .. . ... ... ... : F-1 07 . ... ... ... : ... .. . ... ... ... : ... .. . ... ... ... : ... .. . ... ... ... : ... .. . ... ... ...
ROW 5F : ... .. . ... ... ... : ... .. . ... ... ... : ... .. . ... ... ... : ... .. 3 ... ... ... : ... .. . ... ... ... : D#1 07 . ... ... ... : D-1 07 . ... ... ... : ... .. . ... ... ... : E-1 07 . ... ... ... : ... .. . ... ... ... : ... .. . ... ... ... : ... .. . ... ... ... : ... .. . ... ... ...
ROW 60 : ... .. . ... ... ... : ... .. . ... ... ... : ... .. . ... ... ... : 6-# 01 F ... ... ... : ... .. . ... ... ... : D-1 08 . P81 ... ... : D-1 08 . P81 ... ... : ... .. . ... ... ... : D-1 08 . P80 ... ... : ... .. . ... ... ... : ... .. . ... ... ... : ... .. . ... ... ... : ... .. . ... ... ...
ROW 61 : ... .. . ... ... ... : ... .. . ... ... ... : ... .. . ... ... ... : ... .. 9 ... ... ... : ... .. . ... ... ... : C#1 08 . ... ... ... : C-1 08 . P80 ... ... : ... .. . ... ... ... : C#1 08 3 ... ... ... : ... .. . ... ... ... : ... .. . ... ... ... : ... .. . ... ... ... : ... .. . ... ... ...
ROW 62 : ... .. . ... ... ... : ... .. . ... ... ... : ... .. . ... ... ... : ... .. 4 ... ... ... : ... .. . ... ... ... : B-0 08 . P80 ... ... : A#0 08 . ... ... ... : ... .. . ... ... ... : C-1 08 . ... ... ... : ... .. . ... ... ... : ... .. . ... ... ... : ... .. . ... ... ... : ... .. . ... ... ...
ROW 63 : ... .. . ... ... ... : ... .. . ... ... ... : ... .. . ... ... ... : ... .. 7 ... ... ... : ... .. . ... ... ... : A#0 08 . ... ... ... : A-0 08 . ... ... ... : ... .. . ... ... ... : B-0 08 . P81 ... ... : ... .. . ... ... ... : ... .. . ... ... ... : ... .. . ... ... ... : ... .. . ... ... ...
ROW 64 : ... .. . ... ... ... : ... .. . ... ... ... : ... .. . ... ... ... : ... .. 5 ... ... ... : ... .. . ... ... ... : A-0 08 . P81 ... ... : ... .. . P81 ... ... : ... .. . ... ... ... : A-0 08 . P80 ... ... : ... .. . ... ... ... : ... .. . ... ... ... : ... .. . ... ... ... : ... .. . ... ... ...
ROW 65 : ... .. . ... ... ... : ... .. . ... ... ... : ... .. . ... ... ... : ... .. . ... ... ... : ... .. . ... ... ... : G-0 08 . ... ... ... : F#0 08 . P80 ... ... : ... .. . ... ... ... : G#0 08 . P81 ... ... : ... .. . ... ... ... : ... .. . ... ... ... : ... .. . ... ... ... : ... .. . ... ... ...
ROW 66 : ... .. . ... ... ... : ... .. . ... ... ... : ... .. . ... ... ... : ... .. 4 ... ... ... : ... .. . ... ... ... : F-0 09 . P80 ... ... : E-0 09 . P81 ... ... : ... .. . ... ... ... : F#0 09 . P80 ... ... : ... .. . ... ... ... : ... .. . ... ... ... : ... .. . ... ... ... : ... .. . ... ... ...
ROW 67 : ... .. . ... ... ... : ... .. . ... ... ... : ... .. . ... ... ... : ... .. . ... ... ... : ... .. . ... ... ... : D#0 09 . ... ... ... : C#0 09 . P80 ... ... : ... .. . ... ... ... : E-0 09 . ... ... ... : ... .. . ... ... ... : ... .. . ... ... ... : ... .. . ... ... ... : ... .. . ... ... ...
ROW 68 : ... .. . ... ... ... : ... .. . ... ... ... : ... .. . ... ... ... : ... .. 3 ... ... ... : ... .. . ... ... ... : C#0 09 . P81 ... ... : C-0 09 . ... ... ... : ... .. . ... ... ... : D-0 09 . ... ... ... : ... .. . ... ... ... : ... .. . ... ... ... : ... .. . ... ... ... : ... .. . ... ... ...
ROW 69 : ... .. . ... ... ... : ... .. . ... ... ... : ... .. . ... ... ... : ... .. 2 ... ... ... : ... .. . ... ... ... : C-0 09 . P82 ... ... : ... .. . P82 ... ... : ... .. . ... ... ... : C-0 09 2 P81 ... ... : ... .. . ... ... ... : ... .. . ... ... ... : ... .. . ... ... ... : ... .. . ... ... ...
ROW 6A : ... .. . ... ... ... : ... .. . ... ... ... : ... .. . ... ... ... : ... .. . ... ... ... : ... .. . ... ... ... : ... .. . P84 ... ... : ... .. . P85 ... ... : ... .. . ... ... ... : ... .. . P83 ... ... : ... .. . ... ... ... : ... .. . ... ... ... : ... .. . ... ... ... : ... .. . ... ... ...
ROW 6B : ... .. . ... ... ... : ... .. . ... ... ... : ... .. . ... ... ... : ... .. 1 ... ... ... : ... .. . ... ... ... : ... .. . P86 ... ... : --- .. . P7A ... ... : ... .. . ... ... ... : ... .. . P85 ... ... : ... .. . ... ... ... : ... .. . ... ... ... : ... .. . ... ... ... : ... .. . ... ... ...
ROW 6C : ... .. . ... ... ... : ... .. . ... ... ... : ... .. . ... ... ... : ... .. . ... ... ... : ... .. . ... ... ... : --- .. . P7A ... ... : ... .. . P7B ... ... : ... .. . ... ... ... : ... .. . P87 ... ... : ... .. . ... ... ... : ... .. . ... ... ... : ... .. . ... ... ... : ... .. . ... ... ...
ROW 6D : ... .. . ... ... ... : C-4 02 . P80 ... ... : F#3 00 . P78 ... ... : 1-# 00 F ... ... ... : C-1 12 . ... ... ... : G-4 04 A P78 ... ... : A-4 04 A P80 ... ... : ... .. . ... ... ... : F#4 04 9 P89 ... ... : G-4 04 9 P81 ... ... : ... .. . ... ... ... : ... .. . ... ... ... : ... .. . ... ... ...
ROW 6E : ... .. . ... ... ... : F-3 02 . ... ... ... : C#3 00 . P7E ... ... : 2-# 00 7 ... ... ... : ... .. . ... ... ... : G#4 04 . P84 ... ... : ... .. . P81 ... ... : ... .. . ... ... ... : ... .. . P81 ... ... : ... .. . ... ... ... : ... .. . ... ... ... : ... .. . ... ... ... : ... .. . ... ... ...
ROW 6F : ... .. . ... ... ... : A#2 02 . P81 ... ... : A-2 00 . P86 ... ... : 1-# 00 4 ... ... ... : ... .. . ... ... ... : ... .. . P7C ... ... : ... .. . P82 ... ... : ... .. . ... ... ... : ... .. . P79 ... ... : ... .. . ... ... ... : ... .. . ... ... ... : ... .. . ... ... ... : ... .. . ... ... ...
ROW 70 : ... .. . ... ... ... : D#2 02 . ... ... ... : --- .. . ... ... ... : ... .. 2 ... ... ... : ... .. . ... ... ... : --- .. . ... ... ... : --- .. . ... ... ... : ... .. . ... ... ... : --- .. . ... ... ... : --- .. . ... ... ... : ... .. . ... ... ... : ... .. . ... ... ... : ... .. . ... ... ...
ROW 71 : ... .. . ... ... ... : G#1 02 . ... ... ... : ... .. . ... ... ... : ... .. 1 ... ... ... : ... .. . ... ... ... : ... .. . P80 ... ... : ... .. . P80 ... ... : ... .. . ... ... ... : ... .. . P80 ... ... : ... .. . P80 ... ... : ... .. . ... ... ... : ... .. . ... ... ... : ... .. . ... ... ...
ROW 72 : ... .. . ... ... ... : C#1 02 . ... ... ... : ... .. . ... ... ... : --- .. . ... ... ... : ... .. . ... ... ... : ... .. . ... ... ... : ... .. . ... ... ... : ... .. . ... ... ... : ... .. . ... ... ... : ... .. . ... ... ... : ... .. . ... ... ... : ... .. . ... ... ... : ... .. . ... ... ...
ROW 73 : ... .. . ... ... ... : ... .. . ... ... ... : ... .. . ... ... ... : 1-# 00 F ... ... ... : C-1 12 . ... ... ... : A-4 04 . P7A ... ... : A-4 04 . P84 ... ... : ... .. . ... ... ... : G#4 04 . P88 ... ... : G-4 04 . P83 ... ... : ... .. . ... ... ... : ... .. . ... ... ... : ... .. . ... ... ...
ROW 74 : ... .. . ... ... ... : ... .. . ... ... ... : ... .. . ... ... ... : 2-# 00 7 ... ... ... : ... .. . ... ... ... : ... .. . P7C ... ... : ... .. . P85 ... ... : ... .. . ... ... ... : ... .. . P8A ... ... : ... .. . P85 ... ... : ... .. . ... ... ... : ... .. . ... ... ... : ... .. . ... ... ...
ROW 75 : ... .. . ... ... ... : ... .. . ... ... ... : ... .. . ... ... ... : 1-# 00 4 ... ... ... : ... .. . ... ... ... : ... .. . P7E ... ... : ... .. . P86 ... ... : ... .. . ... ... ... : G-4 04 . P79 ... ... : ... .. . P87 ... ... : ... .. . ... ... ... : ... .. . ... ... ... : ... .. . ... ... ...
ROW 76 : ... .. . ... ... ... : ... .. . ... ... ... : ... .. . ... ... ... : ... .. 2 ... ... ... : ... .. . ... ... ... : --- .. . ... ... ... : --- .. . ... ... ... : ... .. . ... ... ... : --- .. . ... ... ... : --- .. . ... ... ... : ... .. . ... ... ... : ... .. . ... ... ... : ... .. . ... ... ...
ROW 77 : ... .. . ... ... ... : ... .. . ... ... ... : ... .. . ... ... ... : ... .. 1 ... ... ... : ... .. . ... ... ... : ... .. . P80 ... ... : ... .. . P80 ... ... : ... .. . ... ... ... : ... .. . P80 ... ... : ... .. . P80 ... ... : ... .. . ... ... ... : ... .. . ... ... ... : ... .. . ... ... ...
ROW 78 : ... .. . ... ... ... : ... .. . ... ... ... : ... .. . ... ... ... : --- .. . ... ... ... : ... .. . ... ... ... : ... .. . ... ... ... : ... .. . ... ... ... : ... .. . ... ... ... : ... .. . ... ... ... : ... .. . ... ... ... : ... .. . ... ... ... : ... .. . ... ... ... : ... .. . ... ... ...
ROW 79 : ... .. . ... ... ... : ... .. . ... ... ... : ... .. . ... ... ... : A-# 00 F ... ... ... : C-1 12 . ... ... ... : G#4 04 . P7E ... ... : G#4 04 . P87 ... ... : ... .. . ... ... ... : F#4 04 . P7B ... ... : F-4 04 . P78 ... ... : ... .. . ... ... ... : ... .. . ... ... ... : ... .. . ... ... ...
ROW 7A : ... .. . ... ... ... : ... .. . ... ... ... : ... .. . ... ... ... : 6-# 00 9 ... ... ... : ... .. . ... ... ... : G-4 04 . P78 ... ... : G-4 04 . P81 ... ... : ... .. . ... ... ... : ... .. . P89 ... ... : ... .. . P86 ... ... : ... .. . ... ... ... : ... .. . ... ... ... : ... .. . ... ... ...
ROW 7B : ... .. . ... ... ... : ... .. . ... ... ... : ... .. . ... ... ... : 7-# 00 C ... ... ... : ... .. . ... ... ... : ... .. . P86 ... ... : F#4 04 . P7E ... ... : ... .. . ... ... ... : F-4 04 . P85 ... ... : E-4 04 . P84 ... ... : ... .. . ... ... ... : ... .. . ... ... ... : ... .. . ... ... ...
ROW 7C : ... .. . ... ... ... : ... .. . ... ... ... : ... .. . ... ... ... : ... .. 8 ... ... ... : ... .. . ... ... ... : F#4 04 . P82 ... ... : F-4 04 . P7C ... ... : ... .. . ... ... ... : E-4 04 . P83 ... ... : D#4 04 . P83 ... ... : ... .. . ... ... ... : ... .. . ... ... ... : ... .. . ... ... ...
ROW 7D : ... .. . ... ... ... : ... .. . ... ... ... : ... .. . ... ... ... : 8-# 00 7 ... ... ... : ... .. . ... ... ... : F-4 04 . P7F ... ... : E-4 04 . P79 ... ... : ... .. . ... ... ... : D#4 04 . P82 ... ... : D-4 04 8 P82 ... ... : ... .. . ... ... ... : ... .. . ... ... ... : ... .. . ... ... ...
ROW 7E : ... .. . ... ... ... : ... .. . ... ... ... : ... .. . ... ... ... : ... .. 8 ... ... ... : ... .. . ... ... ... : E-4 04 . P7D ... ... : ... .. . P86 ... ... : ... .. . ... ... ... : D-4 04 . ... ... ... : C#4 04 . P83 ... ... : ... .. . ... ... ... : ... .. . ... ... ... : ... .. . ... ... ...
ROW 7F : ... .. . ... ... ... : ... .. . ... ... ... : ... .. . ... ... ... : 9-# 00 7 ... ... ... : ... .. . ... ... ... : D#4 04 . P7C ... ... : D#4 04 . P85 ... ... : ... .. . ... ... ... : C#4 04 . ... ... ... : C-4 04 . P84 ... ... : ... .. . ... ... ... : ... .. . ... ... ... : ... .. . ... ... ...
ROW 80 : ... .. . ... ... ... : ... .. . ... ... ... : ... .. . ... ... ... : ... .. 6 ... ... ... : ... .. . ... ... ... : D-4 04 . P7B ... ... : D-4 04 . P86 ... ... : ... .. . ... ... ... : C-4 04 . P83 ... ... : B-3 04 . P86 ... ... : ... .. . ... ... ... : ... .. . ... ... ... : ... .. . ... ... ...
ROW 81 : ... .. . ... ... ... : ... .. . ... ... ... : ... .. . ... ... ... : ... .. 5 ... ... ... : ... .. . ... ... ... : C#4 04 . P7C ... ... : C#4 04 . P85 ... ... : ... .. . ... ... ... : B-3 04 8 P85 ... ... : A-3 04 7 P7E ... ... : ... .. . ... ... ... : ... .. . ... ... ... : ... .. . ... ... ...
ROW 82 : ... .. . ... ... ... : ... .. . ... ... ... : ... .. . ... ... ... : ... .. . ... ... ... : ... .. . ... ... ... : C-4 04 . P7D ... ... : C-4 04 . P86 ... ... : ... .. . ... ... ... : A-3 04 . P7D ... ... : G#3 04 . P82 ... ... : ... .. . ... ... ... : ... .. . ... ... ... : ... .. . ... ... ...
ROW 83 : ... .. . ... ... ... : ... .. . ... ... ... : ... .. . ... ... ... : ... .. . ... ... ... : ... .. . ... ... ... : B-3 04 . P7F ... ... : A#3 04 . P7D ... ... : ... .. . ... ... ... : G#3 04 . P81 ... ... : F#3 04 . P7D ... ... : ... .. . ... ... ... : ... .. . ... ... ... : ... .. . ... ... ...
ROW 84 : ... .. . ... ... ... : ... .. . ... ... ... : ... .. . ... ... ... : ... .. . ... ... ... : ... .. . ... ... ... : A#3 04 . P82 ... ... : A-3 04 . P81 ... ... : ... .. . ... ... ... : F#3 04 . P7C ... ... : F-3 04 . P82 ... ... : ... .. . ... ... ... : ... .. . ... ... ... : ... .. . ... ... ...
ROW 85 : ... .. . ... ... ... : ... .. . ... ... ... : ... .. . ... ... ... : ... .. . ... ... ... : ... .. . ... ... ... : A-3 04 . P85 ... ... : G#3 04 . P85 ... ... : ... .. . ... ... ... : F-3 04 . P82 ... ... : D#3 04 6 P81 ... ... : ... .. . ... ... ... : ... .. . ... ... ... : ... .. . ... ... ...
ROW 86 : ... .. . ... ... ... : C-4 02 . P80 ... ... : C#4 00 . P7F ... ... : ... .. F ... ... ... : C#1 12 . ... ... ... : G#1 04 F P80 ... ... : F#3 04 . P7F ... ... : G-1 04 9 ... ... ... : A-1 04 9 ... ... ... : C#3 04 . ... ... ... : ... .. . ... ... ... : ... .. . ... ... ... : ... .. . ... ... ...
ROW 87 : ... .. . ... ... ... : F-3 02 . ... ... ... : F#3 00 . P83 ... ... : 2-# 00 7 ... ... ... : ... .. . ... ... ... : ... .. . ... ... ... : F-3 04 . P84 ... ... : ... .. . ... ... ... : ... .. . ... ... ... : B-2 04 . P82 ... ... : ... .. . ... ... ... : ... .. . ... ... ... : ... .. . ... ... ...
ROW 88 : ... .. . ... ... ... : A#2 02 . P81 ... ... : C#3 00 . P89 ... ... : 6-# 00 C ... ... ... : ... .. . ... ... ... : ... .. . ... ... ... : D#3 04 . ... ... ... : ... .. . ... ... ... : ... .. . ... ... ... : G#2 04 . P80 ... ... : ... .. . ... ... ... : ... .. . ... ... ... : ... .. . ... ... ...
ROW 89 : ... .. . ... ... ... : D#2 02 . ... ... ... : A#2 00 . P75 ... ... : 7-# 00 8 ... ... ... : ... .. . ... ... ... : ... .. . ... ... ... : C#3 04 . ... ... ... : ... .. . ... ... ... : ... .. . ... ... ... : F-2 04 5 ... ... ... : ... .. . ... ... ... : ... .. . ... ... ... : ... .. . ... ... ...
ROW 8A : ... .. . ... ... ... : G#1 02 . ... ... ... : G-2 00 . P70 ... ... : 8-# 00 7 ... ... ... : ... .. . ... ... ... : ... .. . ... ... ... : A#2 04 . P7E ... ... : ... .. 8 ... ... ... : ... .. . ... ... ... : C#2 04 . ... ... ... : ... .. . ... ... ... : ... .. . ... ... ... : ... .. . ... ... ...
ROW 8B : ... .. . ... ... ... : C#1 02 . ... ... ... : E-2 00 . P7C ... ... : ... .. 6 ... ... ... : ... .. . ... ... ... : ... .. . ... ... ... : G#2 04 . P82 ... ... : ... .. . ... ... ... : ... .. . ... ... ... : G#1 04 . P7F ... ... : ... .. . ... ... ... : ... .. . ... ... ... : ... .. . ... ... ...
ROW 8C : ... .. . ... ... ... : ... .. . ... ... ... : --- .. . ... ... ... : ... .. . ... ... ... : ... .. . ... ... ... : G#2 04 . ... ... ... : E-2 04 . P7F ... ... : G#2 04 . P82 ... ... : G#2 04 . P7F ... ... : D-1 04 . P81 ... ... : ... .. . ... ... ... : ... .. . ... ... ... : ... .. . ... ... ...
ROW 8D : ... .. . ... ... ... : ... .. . ... ... ... : ... .. . ... ... ... : ... .. 5 ... ... ... : ... .. . ... ... ... : ... .. . ... ... ... : C-2 04 . P80 ... ... : ... .. . ... ... ... : ... .. . ... ... ... : D#0 04 4 ... ... ... : ... .. . ... ... ... : ... .. . ... ... ... : ... .. . ... ... ...
ROW 8E : ... .. . ... ... ... : ... .. . ... ... ... : ... .. . ... ... ... : ... .. . ... ... ... : ... .. . ... ... ... : ... .. . ... ... ... : G-1 04 . P7F ... ... : ... .. 7 ... ... ... : ... .. 8 ... ... ... : --- .. . P7F ... ... : ... .. . ... ... ... : ... .. . ... ... ... : ... .. . ... ... ...
ROW 8F : ... .. . ... ... ... : ... .. . ... ... ... : ... .. . ... ... ... : ... .. 4 ... ... ... : ... .. . ... ... ... : ... .. . ... ... ... : C#1 04 . P81 ... ... : ... .. . ... ... ... : ... .. . ... ... ... : D#7 04 . P81 ... ... : ... .. . ... ... ... : ... .. . ... ... ... : ... .. . ... ... ...
ROW 90 : ... .. . ... ... ... : ... .. . ... ... ... : ... .. . ... ... ... : ... .. . ... ... ... : ... .. . ... ... ... : ... .. . ... ... ... : C-0 04 . P80 ... ... : ... .. . ... ... ... : ... .. . ... ... ... : ... .. . ... ... ... : ... .. . ... ... ... : ... .. . ... ... ... : ... .. . ... ... ...
ROW 91 : ... .. . ... ... ... : ... .. . ... ... ... : ... .. . ... ... ... : ... .. 3 ... ... ... : ... .. . ... ... ... : ... .. . ... ... ... : D#7 04 . P82 ... ... : ... .. . ... ... ... : ... .. . ... ... ... : ... .. 3 ... ... ... : ... .. . ... ... ... : ... .. . ... ... ... : ... .. . ... ... ...
ROW 92 : ... .. . ... ... ... : ... .. . ... ... ... : ... .. . ... ... ... : D-# 00 A ... ... ... : ... .. . ... ... ... : C#2 04 . ... ... ... : --- .. . ... ... ... : C#2 04 6 ... ... ... : C#2 04 . ... ... ... : ... .. . ... ... ... : ... .. . ... ... ... : ... .. . ... ... ... : ... .. . ... ... ...
ROW 93 : ... .. . ... ... ... : ... .. . ... ... ... : ... .. . ... ... ... : E-# 00 4 ... ... ... : ... .. . ... ... ... : ... .. . ... ... ... : ... .. . P80 ... ... : ... .. . ... ... ... : ... .. . ... ... ... : ... .. . ... ... ... : ... .. . ... ... ... : ... .. . ... ... ... : ... .. . ... ... ...
ROW 94 : ... .. . ... ... ... : ... .. . ... ... ... : ... .. . ... ... ... : D-# 00 2 ... ... ... : ... .. . ... ... ... : ... .. . ... ... ... : ... .. . ... ... ... : ... .. . ... ... ... : ... .. . ... ... ... : ... .. . ... ... ... : ... .. . ... ... ... : ... .. . ... ... ... : ... .. . ... ... ...
ROW 95 : ... .. . ... ... ... : ... .. . ... ... ... : ... .. . ... ... ... : ... .. 1 ... ... ... : ... .. . ... ... ... : ... .. . ... ... ... : ... .. . ... ... ... : ... .. . ... ... ... : ... .. . ... ... ... : ... .. 2 ... ... ... : ... .. . ... ... ... : ... .. . ... ... ... : ... .. . ... ... ...
ROW 96 : ... .. . ... ... ... : ... .. . ... ... ... : ... .. . ... ... ... : ... .. . ... ... ... : ... .. . ... ... ... : ... .. . ... ... ... : ... .. . ... ... ... : ... .. 5 ... ... ... : ... .. 7 ... ... ... : ... .. . ... ... ... : ... .. . ... ... ... : ... .. . ... ... ... : ... .. . ... ... ...
ROW 97 : ... .. . ... ... ... : ... .. . ... ... ... : ... .. . ... ... ... : --- .. . ... ... ... : ... .. . ... ... ... : ... .. . ... ... ... : ... .. . ... ... ... : ... .. . ... ... ... : ... .. . ... ... ... : ... .. . ... ... ... : ... .. . ... ... ... : ... .. . ... ... ... : ... .. . ... ... ...
ROW 98 : ... .. . ... ... ... : ... .. . ... ... ... : ... .. . ... ... ... : D-# 00 A ... ... ... : ... .. . ... ... ... : C#3 04 . ... ... ... : ... .. . ... ... ... : C#3 04 . ... ... ... : C#3 04 . ... ... ... : --- .. . ... ... ... : ... .. . ... ... ... : ... .. . ... ... ... : ... .. . ... ... ...
ROW 99 : ... .. . ... ... ... : ... .. . ... ... ... : ... .. . ... ... ... : E-# 00 4 ... ... ... : ... .. . ... ... ... : ... .. . ... ... ... : ... .. . ... ... ... : ... .. . ... ... ... : ... .. . ... ... ... : ... .. . P80 ... ... : ... .. . ... ... ... : ... .. . ... ... ... : ... .. . ... ... ...
ROW 9A : ... .. . ... ... ... : ... .. . ... ... ... : ... .. . ... ... ... : D-# 00 2 ... ... ... : ... .. . ... ... ... : ... .. . ... ... ... : ... .. . ... ... ... : ... .. 4 ... ... ... : ... .. . ... ... ... : ... .. . ... ... ... : ... .. . ... ... ... : ... .. . ... ... ... : ... .. . ... ... ...
ROW 9B : ... .. . ... ... ... : ... .. . ... ... ... : ... .. . ... ... ... : ... .. 1 ... ... ... : ... .. . ... ... ... : ... .. . ... ... ... : ... .. . ... ... ... : ... .. . ... ... ... : ... .. . ... ... ... : ... .. . ... ... ... : ... .. . ... ... ... : ... .. . ... ... ... : ... .. . ... ... ...
ROW 9C : ... .. . ... ... ... : ... .. . ... ... ... : ... .. . ... ... ... : ... .. . ... ... ... : ... .. . ... ... ... : ... .. . ... ... ... : ... .. . ... ... ... : ... .. . ... ... ... : ... .. . ... ... ... : ... .. . ... ... ... : ... .. . ... ... ... : ... .. . ... ... ... : ... .. . ... ... ...
ROW 9D : ... .. . ... ... ... : ... .. . ... ... ... : ... .. . ... ... ... : --- .. . ... ... ... : ... .. . ... ... ... : ... .. . ... ... ... : ... .. . ... ... ... : ... .. . ... ... ... : ... .. . ... ... ... : ... .. . ... ... ... : ... .. . ... ... ... : ... .. . ... ... ... : ... .. . ... ... ...
ROW 9E : ... .. . ... ... ... : ... .. . ... ... ... : ... .. . ... ... ... : ... .. . ... ... ... : ... .. . ... ... ... : ... .. . ... ... ... : ... .. . ... ... ... : ... .. 3 ... ... ... : ... .. 6 ... ... ... : ... .. . ... ... ... : ... .. . ... ... ... : ... .. . ... ... ... : ... .. . ... ... ...
ROW 9F : ... .. . ... ... ... : C-4 02 . P80 ... ... : F#3 00 . P78 ... ... : 1-# 00 F ... ... ... : C-1 12 . ... ... ... : B-4 0C 7 P7C ... ... : ... .. . ... ... ... : --- .. . ... ... ... : A#3 0C 1 P85 ... ... : ... .. . ... ... ... : ... .. . ... ... ... : ... .. . ... ... ... : ... .. . ... ... ...
ROW A0 : ... .. . ... ... ... : F-3 02 . ... ... ... : C#3 00 . P7E ... ... : 2-# 00 7 ... ... ... : ... .. . ... ... ... : A#4 0C . P79 ... ... : ... .. . ... ... ... : ... .. . P80 ... ... : G-3 0C . ... ... ... : ... .. . ... ... ... : ... .. . ... ... ... : ... .. . ... ... ... : ... .. . ... ... ...
ROW A1 : ... .. . ... ... ... : A#2 02 . P81 ... ... : A-2 00 . P86 ... ... : 1-# 00 4 ... ... ... : ... .. . ... ... ... : A-4 0C . P78 ... ... : ... .. . ... ... ... : ... .. . ... ... ... : D#3 0C . P82 ... ... : ... .. . ... ... ... : ... .. . ... ... ... : ... .. . ... ... ... : ... .. . ... ... ...
ROW A2 : ... .. . ... ... ... : D#2 02 . ... ... ... : --- .. . ... ... ... : ... .. 2 ... ... ... : ... .. . ... ... ... : G#4 0C . ... ... ... : ... .. . ... ... ... : ... .. . ... ... ... : A#2 0C . P7F ... ... : ... .. . ... ... ... : ... .. . ... ... ... : ... .. . ... ... ... : ... .. . ... ... ...
ROW A3 : ... .. . ... ... ... : G#1 02 . ... ... ... : ... .. . ... ... ... : ... .. 1 ... ... ... : ... .. . ... ... ... : G-4 0C . ... ... ... : ... .. . ... ... ... : ... .. . ... ... ... : E-2 0C . P81 ... ... : ... .. . ... ... ... : ... .. . ... ... ... : ... .. . ... ... ... : ... .. . ... ... ...
ROW A4 : ... .. . ... ... ... : C#1 02 . ... ... ... : ... .. . ... ... ... : --- .. . ... ... ... : ... .. . ... ... ... : --- .. . ... ... ... : ... .. . ... ... ... : ... .. . ... ... ... : --- .. . ... ... ... : ... .. . ... ... ... : ... .. . ... ... ... : ... .. . ... ... ... : ... .. . ... ... ...
ROW A5 : ... .. . ... ... ... : ... .. . ... ... ... : ... .. . ... ... ... : ... .. . ... ... ... : ... .. . ... ... ... : B-4 0C . P7C ... ... : ... .. . ... ... ... : ... .. . ... ... ... : A#3 0C . P85 ... ... : ... .. . ... ... ... : ... .. . ... ... ... : ... .. . ... ... ... : ... .. . ... ... ...
ROW A6 : ... .. . ... ... ... : ... .. . ... ... ... : ... .. . ... ... ... : ... .. . ... ... ... : ... .. . ... ... ... : A#4 0C . P79 ... ... : ... .. . ... ... ... : ... .. . ... ... ... : G-3 0C . ... ... ... : ... .. . ... ... ... : ... .. . ... ... ... : ... .. . ... ... ... : ... .. . ... ... ...
ROW A7 : ... .. . ... ... ... : ... .. . ... ... ... : ... .. . ... ... ... : ... .. . ... ... ... : ... .. . ... ... ... : A-4 0C . P78 ... ... : ... .. . ... ... ... : ... .. . ... ... ... : --- .. . ... ... ... : ... .. . ... ... ... : ... .. . ... ... ... : ... .. . ... ... ... : ... .. . ... ... ...
ROW A8 : ... .. . ... ... ... : ... .. . ... ... ... : ... .. . ... ... ... : ... .. . ... ... ... : ... .. . ... ... ... : G#4 0C . ... ... ... : ... .. . ... ... ... : ... .. . ... ... ... : ... .. . P80 ... ... : ... .. . ... ... ... : ... .. . ... ... ... : ... .. . ... ... ... : ... .. . ... ... ...
ROW A9 : ... .. . ... ... ... : ... .. . ... ... ... : ... .. . ... ... ... : ... .. . ... ... ... : ... .. . ... ... ... : G-4 0C . ... ... ... : ... .. . ... ... ... : ... .. . ... ... ... : ... .. . ... ... ... : ... .. . ... ... ... : ... .. . ... ... ... : ... .. . ... ... ... : ... .. . ... ... ...
ROW AA : ... .. . ... ... ... : ... .. . ... ... ... : ... .. . ... ... ... : ... .. . ... ... ... : ... .. . ... ... ... : --- .. . ... ... ... : ... .. . ... ... ... : ... .. . ... ... ... : ... .. . ... ... ... : ... .. . ... ... ... : ... .. . ... ... ... : ... .. . ... ... ... : ... .. . ... ... ...
ROW AB : ... .. . ... ... ... : ... .. . ... ... ... : ... .. . ... ... ... : D-# 00 A ... ... ... : ... .. . ... ... ... : C#3 05 A P80 ... ... : C-3 05 . P7E ... ... : C#3 05 9 P7E ... ... : G#2 05 9 P81 ... ... : ... .. . ... ... ... : ... .. . ... ... ... : ... .. . ... ... ... : ... .. . ... ... ...
ROW AC : ... .. . ... ... ... : ... .. . ... ... ... : ... .. . ... ... ... : E-# 00 4 ... ... ... : ... .. . ... ... ... : ... .. . ... ... ... : C#3 05 . P83 ... ... : ... .. . ... ... ... : ... .. . ... ... ... : ... .. . ... ... ... : ... .. . ... ... ... : ... .. . ... ... ... : ... .. . ... ... ...
ROW AD : ... .. . ... ... ... : ... .. . ... ... ... : ... .. . ... ... ... : D-# 00 2 ... ... ... : ... .. . ... ... ... : ... .. . ... ... ... : ... .. . P82 ... ... : ... .. . ... ... ... : ... .. . ... ... ... : ... .. . ... ... ... : ... .. . ... ... ... : ... .. . ... ... ... : ... .. . ... ... ...
ROW AE : ... .. . ... ... ... : ... .. . ... ... ... : ... .. . ... ... ... : ... .. 1 ... ... ... : ... .. . ... ... ... : ... .. . ... ... ... : ... .. . P83 ... ... : ... .. . ... ... ... : ... .. . ... ... ... : ... .. . ... ... ... : ... .. . ... ... ... : ... .. . ... ... ... : ... .. . ... ... ...
ROW AF : ... .. . ... ... ... : ... .. . ... ... ... : ... .. . ... ... ... : ... .. . ... ... ... : ... .. . ... ... ... : --- .. . ... ... ... : --- .. . ... ... ... : --- .. . ... ... ... : --- .. . ... ... ... : ... .. . ... ... ... : ... .. . ... ... ... : ... .. . ... ... ... : ... .. . ... ... ...
ROW B0 : ... .. . ... ... ... : ... .. . ... ... ... : ... .. . ... ... ... : --- .. . ... ... ... : ... .. . ... ... ... : ... .. . ... ... ... : ... .. . P80 ... ... : ... .. . P80 ... ... : ... .. . P80 ... ... : ... .. . ... ... ... : ... .. . ... ... ... : ... .. . ... ... ... : ... .. . ... ... ...
ROW B1 : ... .. . ... ... ... : ... .. . ... ... ... : ... .. . ... ... ... : D-# 00 A ... ... ... : ... .. . ... ... ... : C#3 05 4 ... ... ... : C#3 05 4 P82 ... ... : C#3 05 3 P7E ... ... : G#2 05 3 P81 ... ... : ... .. . ... ... ... : ... .. . ... ... ... : ... .. . ... ... ... : ... .. . ... ... ...
ROW B2 : ... .. . ... ... ... : ... .. . ... ... ... : ... .. . ... ... ... : E-# 00 4 ... ... ... : ... .. . ... ... ... : ... .. . ... ... ... : ... .. . P83 ... ... : ... .. . ... ... ... : ... .. . ... ... ... : ... .. . ... ... ... : ... .. . ... ... ... : ... .. . ... ... ... : ... .. . ... ... ...
ROW B3 : ... .. . ... ... ... : ... .. . ... ... ... : ... .. . ... ... ... : D-# 00 2 ... ... ... : ... .. . ... ... ... : ... .. . ... ... ... : C-3 05 . P7E ... ... : ... .. . ... ... ... : ... .. . ... ... ... : ... .. . ... ... ... : ... .. . ... ... ... : ... .. . ... ... ... : ... .. . ... ... ...
ROW B4 : ... .. . ... ... ... : ... .. . ... ... ... : ... .. . ... ... ... : ... .. 1 ... ... ... : ... .. . ... ... ... : ... .. . ... ... ... : C#3 05 . P83 ... ... : ... .. . ... ... ... : ... .. . ... ... ... : ... .. . ... ... ... : ... .. . ... ... ... : ... .. . ... ... ... : ... .. . ... ... ...
ROW B5 : ... .. . ... ... ... : ... .. . ... ... ... : ... .. . ... ... ... : ... .. . ... ... ... : ... .. . ... ... ... : ... .. . ... ... ... : ... .. . P82 ... ... : ... .. 2 ... ... ... : ... .. . ... ... ... : ... .. . ... ... ... : ... .. . ... ... ... : ... .. . ... ... ... : ... .. . ... ... ...
ROW B6 : ... .. . ... ... ... : ... .. . ... ... ... : ... .. . ... ... ... : --- .. . ... ... ... : ... .. . ... ... ... : --- .. . ... ... ... : --- .. . ... ... ... : --- .. . ... ... ... : --- .. . ... ... ... : ... .. . ... ... ... : ... .. . ... ... ... : ... .. . ... ... ... : ... .. . ... ... ...
ROW B7 : ... .. . ... ... ... : ... .. . ... ... ... : ... .. . ... ... ... : ... .. . ... ... ... : ... .. . ... ... ... : ... .. . ... ... ... : ... .. . P80 ... ... : ... .. . P80 ... ... : ... .. . P80 ... ... : ... .. . ... ... ... : ... .. . ... ... ... : ... .. . ... ... ... : ... .. . ... ... ...
ROW B8 : ... .. . ... ... ... : C-4 02 . P80 ... ... : C#4 00 . P7F ... ... : 9-# 00 F ... ... ... : C#1 12 . ... ... ... : F#3 05 A ... ... ... : F#3 05 A P84 ... ... : F#3 05 9 P7E ... ... : D#3 05 9 P81 ... ... : ... .. . ... ... ... : ... .. . ... ... ... : ... .. . ... ... ... : ... .. . ... ... ...
ROW B9 : ... .. . ... ... ... : F-3 02 . ... ... ... : F#3 00 . P83 ... ... : 2-# 00 7 ... ... ... : ... .. . ... ... ... : ... .. . ... ... ... : ... .. . P83 ... ... : ... .. . ... ... ... : ... .. . ... ... ... : ... .. . ... ... ... : ... .. . ... ... ... : ... .. . ... ... ... : ... .. . ... ... ...
ROW BA : ... .. . ... ... ... : A#2 02 . P81 ... ... : C#3 00 . P89 ... ... : 6-# 00 C ... ... ... : ... .. . ... ... ... : ... .. . ... ... ... : ... .. . P82 ... ... : ... .. . ... ... ... : ... .. . ... ... ... : ... .. . ... ... ... : ... .. . ... ... ... : ... .. . ... ... ... : ... .. . ... ... ...
ROW BB : ... .. . ... ... ... : D#2 02 . ... ... ... : A#2 00 . P75 ... ... : 7-# 00 8 ... ... ... : ... .. . ... ... ... : ... .. . ... ... ... : ... .. . P83 ... ... : ... .. . ... ... ... : ... .. . ... ... ... : ... .. . ... ... ... : ... .. . ... ... ... : ... .. . ... ... ... : ... .. . ... ... ...
ROW BC : ... .. . ... ... ... : G#1 02 . ... ... ... : G-2 00 . P70 ... ... : 8-# 00 7 ... ... ... : ... .. . ... ... ... : --- .. . ... ... ... : --- .. . ... ... ... : --- .. . ... ... ... : --- .. . ... ... ... : ... .. . ... ... ... : ... .. . ... ... ... : ... .. . ... ... ... : ... .. . ... ... ...
ROW BD : ... .. . ... ... ... : C#1 02 . ... ... ... : E-2 00 . P7C ... ... : ... .. 6 ... ... ... : ... .. . ... ... ... : ... .. . ... ... ... : ... .. . P80 ... ... : ... .. . P80 ... ... : ... .. . P80 ... ... : ... .. . ... ... ... : ... .. . ... ... ... : ... .. . ... ... ... : ... .. . ... ... ...
ROW BE : ... .. . ... ... ... : ... .. . ... ... ... : --- .. . ... ... ... : ... .. . ... ... ... : ... .. . ... ... ... : F#3 05 4 ... ... ... : F#3 05 4 P82 ... ... : F#3 05 3 P7E ... ... : D#3 05 3 P81 ... ... : ... .. . ... ... ... : ... .. . ... ... ... : ... .. . ... ... ... : ... .. . ... ... ...
ROW BF : ... .. . ... ... ... : ... .. . ... ... ... : ... .. . ... ... ... : ... .. 5 ... ... ... : ... .. . ... ... ... : ... .. . ... ... ... : ... .. . P83 ... ... : ... .. . ... ... ... : ... .. . ... ... ... : ... .. . ... ... ... : ... .. . ... ... ... : ... .. . ... ... ... : ... .. . ... ... ...
ROW C0 : ... .. . ... ... ... : ... .. . ... ... ... : ... .. . ... ... ... : ... .. . ... ... ... : ... .. . ... ... ... : ... .. . ... ... ... : ... .. . P84 ... ... : ... .. . ... ... ... : ... .. . ... ... ... : ... .. . ... ... ... : ... .. . ... ... ... : ... .. . ... ... ... : ... .. . ... ... ...
ROW C1 : ... .. . ... ... ... : ... .. . ... ... ... : ... .. . ... ... ... : ... .. 4 ... ... ... : ... .. . ... ... ... : ... .. . ... ... ... : ... .. . P83 ... ... : ... .. . ... ... ... : ... .. . ... ... ... : ... .. . ... ... ... : ... .. . ... ... ... : ... .. . ... ... ... : ... .. . ... ... ...
ROW C2 : ... .. . ... ... ... : ... .. . ... ... ... : ... .. . ... ... ... : ... .. . ... ... ... : ... .. . ... ... ... : --- .. . ... ... ... : --- .. . ... ... ... : --- .. . ... ... ... : --- .. . ... ... ... : ... .. . ... ... ... : ... .. . ... ... ... : ... .. . ... ... ... : ... .. . ... ... ...
ROW C3 : ... .. . ... ... ... : ... .. . ... ... ... : ... .. . ... ... ... : ... .. 3 ... ... ... : ... .. . ... ... ... : ... .. . ... ... ... : ... .. . P80 ... ... : ... .. . P80 ... ... : ... .. . P80 ... ... : ... .. . ... ... ... : ... .. . ... ... ... : ... .. . ... ... ... : ... .. . ... ... ...
ROW C4 : ... .. . ... ... ... : ... .. . ... ... ... : ... .. . ... ... ... : D-# 00 A ... ... ... : ... .. . ... ... ... : B-3 05 A ... ... ... : B-3 05 A P84 ... ... : B-3 05 9 P7E ... ... : F#3 05 9 P81 ... ... : ... .. . ... ... ... : ... .. . ... ... ... : ... .. . ... ... ... : ... .. . ... ... ...
ROW C5 : ... .. . ... ... ... : ... .. . ... ... ... : ... .. . ... ... ... : E-# 00 4 ... ... ... : ... .. . ... ... ... : ... .. . ... ... ... : ... .. . ... ... ... : ... .. . ... ... ... : ... .. . ... ... ... : ... .. . ... ... ... : ... .. . ... ... ... : ... .. . ... ... ... : ... .. . ... ... ...
ROW C6 : ... .. . ... ... ... : ... .. . ... ... ... : ... .. . ... ... ... : D-# 00 2 ... ... ... : ... .. . ... ... ... : ... .. . ... ... ... : ... .. . P83 ... ... : ... .. . ... ... ... : ... .. . ... ... ... : ... .. . ... ... ... : ... .. . ... ... ... : ... .. . ... ... ... : ... .. . ... ... ...
ROW C7 : ... .. . ... ... ... : ... .. . ... ... ... : ... .. . ... ... ... : ... .. 1 ... ... ... : ... .. . ... ... ... : ... .. . ... ... ... : ... .. . ... ... ... : ... .. . ... ... ... : ... .. . ... ... ... : ... .. . ... ... ... : ... .. . ... ... ... : ... .. . ... ... ... : ... .. . ... ... ...
ROW C8 : ... .. . ... ... ... : ... .. . ... ... ... : ... .. . ... ... ... : ... .. . ... ... ... : ... .. . ... ... ... : --- .. . ... ... ... : --- .. . ... ... ... : --- .. . ... ... ... : --- .. . ... ... ... : ... .. . ... ... ... : ... .. . ... ... ... : ... .. . ... ... ... : ... .. . ... ... ...
ROW C9 : ... .. . ... ... ... : ... .. . ... ... ... : ... .. . ... ... ... : --- .. . ... ... ... : ... .. . ... ... ... : ... .. . ... ... ... : ... .. . P80 ... ... : ... .. . P80 ... ... : ... .. . P80 ... ... : ... .. . ... ... ... : ... .. . ... ... ... : ... .. . ... ... ... : ... .. . ... ... ...
ROW CA : ... .. . ... ... ... : ... .. . ... ... ... : ... .. . ... ... ... : D-# 00 A ... ... ... : ... .. . ... ... ... : B-3 05 4 ... ... ... : B-3 05 . P83 ... ... : B-3 05 . P7E ... ... : F#3 05 . P81 ... ... : ... .. . ... ... ... : ... .. . ... ... ... : ... .. . ... ... ... : ... .. . ... ... ...
ROW CB : ... .. . ... ... ... : ... .. . ... ... ... : ... .. . ... ... ... : E-# 00 4 ... ... ... : ... .. . ... ... ... : ... .. . ... ... ... : ... .. . P82 ... ... : ... .. . ... ... ... : ... .. . ... ... ... : ... .. . ... ... ... : ... .. . ... ... ... : ... .. . ... ... ... : ... .. . ... ... ...
ROW CC : ... .. . ... ... ... : ... .. . ... ... ... : ... .. . ... ... ... : D-# 00 2 ... ... ... : ... .. . ... ... ... : ... .. . ... ... ... : ... .. . P83 ... ... : ... .. . ... ... ... : ... .. . ... ... ... : ... .. . ... ... ... : ... .. . ... ... ... : ... .. . ... ... ... : ... .. . ... ... ...
ROW CD : ... .. . ... ... ... : ... .. . ... ... ... : ... .. . ... ... ... : ... .. 1 ... ... ... : ... .. . ... ... ... : ... .. . ... ... ... : ... .. . P84 ... ... : ... .. . ... ... ... : ... .. . ... ... ... : ... .. . ... ... ... : ... .. . ... ... ... : ... .. . ... ... ... : ... .. . ... ... ...
ROW CE : ... .. . ... ... ... : ... .. . ... ... ... : ... .. . ... ... ... : ... .. . ... ... ... : ... .. . ... ... ... : ... .. . ... ... ... : ... .. . P83 ... ... : ... .. 8 ... ... ... : ... .. . ... ... ... : ... .. . ... ... ... : ... .. . ... ... ... : ... .. . ... ... ... : ... .. . ... ... ...
ROW CF : ... .. . ... ... ... : ... .. . ... ... ... : ... .. . ... ... ... : --- .. . ... ... ... : ... .. . ... ... ... : --- .. . ... ... ... : --- .. . ... ... ... : --- .. . ... ... ... : --- .. . ... ... ... : ... .. . ... ... ... : ... .. . ... ... ... : ... .. . ... ... ... : ... .. . ... ... ...
ROW D0 : ... .. . ... ... ... : ... .. . ... ... ... : ... .. . ... ... ... : ... .. . ... ... ... : ... .. . ... ... ... : ... .. . ... ... ... : ... .. . P80 ... ... : ... .. . P80 ... ... : ... .. . P80 ... ... : ... .. . ... ... ... : ... .. . ... ... ... : ... .. . ... ... ... : ... .. . ... ... ...
ROW D1 : ... .. . ... ... ... : C-4 02 . P80 ... ... : F#3 00 . P78 ... ... : 1-# 00 F ... ... ... : C-1 12 . ... ... ... : D#2 06 F ... ... ... : D-2 06 F P7F ... ... : ... .. . ... ... ... : D#2 06 E P7F ... ... : D#3 06 B P81 ... ... : ... .. . ... ... ... : ... .. . ... ... ... : ... .. . ... ... ...
ROW D2 : ... .. . ... ... ... : F-3 02 . ... ... ... : C#3 00 . P7E ... ... : 2-# 00 7 ... ... ... : ... .. . ... ... ... : ... .. . ... ... ... : D#2 06 . P81 ... ... : ... .. . ... ... ... : ... .. . ... ... ... : ... .. . ... ... ... : ... .. . ... ... ... : ... .. . ... ... ... : ... .. . ... ... ...
ROW D3 : ... .. . ... ... ... : A#2 02 . P81 ... ... : A-2 00 . P86 ... ... : 1-# 00 4 ... ... ... : ... .. . ... ... ... : ... .. . ... ... ... : ... .. . P80 ... ... : ... .. . ... ... ... : ... .. . ... ... ... : ... .. . ... ... ... : ... .. . ... ... ... : ... .. . ... ... ... : ... .. . ... ... ...
ROW D4 : ... .. . ... ... ... : D#2 02 . ... ... ... : --- .. . ... ... ... : ... .. 2 ... ... ... : ... .. . ... ... ... : D#2 09 . ... ... ... : D#2 09 . P81 ... ... : ... .. . ... ... ... : D#2 09 . ... ... ... : D#3 09 . ... ... ... : ... .. . ... ... ... : ... .. . ... ... ... : ... .. . ... ... ...
ROW D5 : ... .. . ... ... ... : G#1 02 . ... ... ... : ... .. . ... ... ... : ... .. 1 ... ... ... : ... .. . ... ... ... : ... .. . ... ... ... : D-2 09 . P7F ... ... : ... .. . ... ... ... : ... .. . ... ... ... : ... .. A ... ... ... : ... .. . ... ... ... : ... .. . ... ... ... : ... .. . ... ... ...
ROW D6 : ... .. . ... ... ... : C#1 02 . ... ... ... : ... .. . ... ... ... : --- .. . ... ... ... : ... .. . ... ... ... : ... .. . ... ... ... : D#2 09 . P82 ... ... : ... .. . ... ... ... : ... .. . ... ... ... : ... .. . ... ... ... : ... .. . ... ... ... : ... .. . ... ... ... : ... .. . ... ... ...
ROW D7 : ... .. . ... ... ... : ... .. . ... ... ... : ... .. . ... ... ... : ... .. . ... ... ... : ... .. . ... ... ... : D#2 06 . ... ... ... : D#2 06 . P81 ... ... : ... .. . ... ... ... : D#2 06 . ... ... ... : D#3 06 . ... ... ... : ... .. . ... ... ... : ... .. . ... ... ... : ... .. . ... ... ...
ROW D8 : ... .. . ... ... ... : ... .. . ... ... ... : ... .. . ... ... ... : ... .. . ... ... ... : ... .. . ... ... ... : ... .. . ... ... ... : ... .. . ... ... ... : ... .. . ... ... ... : ... .. . ... ... ... : ... .. . ... ... ... : ... .. . ... ... ... : ... .. . ... ... ... : ... .. . ... ... ...
ROW D9 : ... .. . ... ... ... : ... .. . ... ... ... : ... .. . ... ... ... : ... .. . ... ... ... : ... .. . ... ... ... : ... .. . ... ... ... : ... .. . P82 ... ... : ... .. . ... ... ... : ... .. D ... ... ... : ... .. 9 ... ... ... : ... .. . ... ... ... : ... .. . ... ... ... : ... .. . ... ... ...
ROW DA : ... .. . ... ... ... : ... .. . ... ... ... : ... .. . ... ... ... : ... .. . ... ... ... : ... .. . ... ... ... : D#2 09 . ... ... ... : D-2 09 . P7F ... ... : ... .. . ... ... ... : D#2 09 . ... ... ... : D#3 09 . ... ... ... : ... .. . ... ... ... : ... .. . ... ... ... : ... .. . ... ... ...
ROW DB : ... .. . ... ... ... : ... .. . ... ... ... : ... .. . ... ... ... : ... .. . ... ... ... : ... .. . ... ... ... : ... .. . ... ... ... : D#2 09 . P81 ... ... : ... .. . ... ... ... : ... .. . ... ... ... : ... .. . ... ... ... : ... .. . ... ... ... : ... .. . ... ... ... : ... .. . ... ... ...
ROW DC : ... .. . ... ... ... : ... .. . ... ... ... : ... .. . ... ... ... : ... .. . ... ... ... : ... .. . ... ... ... : ... .. . ... ... ... : ... .. . P80 ... ... : ... .. . ... ... ... : ... .. . ... ... ... : ... .. . ... ... ... : ... .. . ... ... ... : ... .. . ... ... ... : ... .. . ... ... ...
ROW DD : ... .. . ... ... ... : ... .. . ... ... ... : ... .. . ... ... ... : D-# 00 A ... ... ... : ... .. . ... ... ... : D#2 06 . ... ... ... : D#2 06 . P81 ... ... : ... .. . ... ... ... : D#2 06 . ... ... ... : D#3 06 8 ... ... ... : ... .. . ... ... ... : ... .. . ... ... ... : ... .. . ... ... ...
ROW DE : ... .. . ... ... ... : ... .. . ... ... ... : ... .. . ... ... ... : E-# 00 4 ... ... ... : ... .. . ... ... ... : ... .. . ... ... ... : D-2 06 . P7F ... ... : ... .. . ... ... ... : ... .. . ... ... ... : ... .. . ... ... ... : ... .. . ... ... ... : ... .. . ... ... ... : ... .. . ... ... ...
ROW DF : ... .. . ... ... ... : ... .. . ... ... ... : ... .. . ... ... ... : D-# 00 2 ... ... ... : ... .. . ... ... ... : ... .. . ... ... ... : D#2 06 . P81 ... ... : ... .. . ... ... ... : ... .. . ... ... ... : ... .. . ... ... ... : ... .. . ... ... ... : ... .. . ... ... ... : ... .. . ... ... ...
ROW E0 : ... .. . ... ... ... : ... .. . ... ... ... : ... .. . ... ... ... : ... .. 1 ... ... ... : ... .. . ... ... ... : D#2 09 . ... ... ... : D#2 09 . P80 ... ... : ... .. . ... ... ... : D#2 09 . ... ... ... : D#3 09 . ... ... ... : ... .. . ... ... ... : ... .. . ... ... ... : ... .. . ... ... ...
ROW E1 : ... .. . ... ... ... : ... .. . ... ... ... : ... .. . ... ... ... : ... .. . ... ... ... : ... .. . ... ... ... : ... .. . ... ... ... : ... .. . P81 ... ... : ... .. . ... ... ... : ... .. C ... ... ... : ... .. 7 ... ... ... : ... .. . ... ... ... : ... .. . ... ... ... : ... .. . ... ... ...
ROW E2 : ... .. . ... ... ... : ... .. . ... ... ... : ... .. . ... ... ... : --- .. . ... ... ... : ... .. . ... ... ... : ... .. . ... ... ... : D-2 09 . P7F ... ... : ... .. . ... ... ... : ... .. . ... ... ... : ... .. . ... ... ... : ... .. . ... ... ... : ... .. . ... ... ... : ... .. . ... ... ...
ROW E3 : ... .. . ... ... ... : ... .. . ... ... ... : ... .. . ... ... ... : D-# 00 A ... ... ... : ... .. . ... ... ... : D#2 06 . ... ... ... : D#2 06 . P81 ... ... : ... .. . ... ... ... : D#2 06 . ... ... ... : D#3 06 . ... ... ... : ... .. . ... ... ... : ... .. . ... ... ... : ... .. . ... ... ...
ROW E4 : ... .. . ... ... ... : ... .. . ... ... ... : ... .. . ... ... ... : E-# 00 4 ... ... ... : ... .. . ... ... ... : ... .. . ... ... ... : ... .. . P80 ... ... : ... .. . ... ... ... : ... .. . ... ... ... : ... .. . ... ... ... : ... .. . ... ... ... : ... .. . ... ... ... : ... .. . ... ... ...
ROW E5 : ... .. . ... ... ... : ... .. . ... ... ... : ... .. . ... ... ... : D-# 00 2 ... ... ... : ... .. . ... ... ... : ... .. . ... ... ... : ... .. . P81 ... ... : ... .. . ... ... ... : ... .. . ... ... ... : ... .. 6 ... ... ... : ... .. . ... ... ... : ... .. . ... ... ... : ... .. . ... ... ...
ROW E6 : ... .. . ... ... ... : ... .. . ... ... ... : ... .. . ... ... ... : ... .. 1 ... ... ... : ... .. . ... ... ... : D#2 09 . ... ... ... : D#2 09 . P82 ... ... : ... .. . ... ... ... : D#2 09 . ... ... ... : D#3 09 . ... ... ... : ... .. . ... ... ... : ... .. . ... ... ... : ... .. . ... ... ...
ROW E7 : ... .. . ... ... ... : ... .. . ... ... ... : ... .. . ... ... ... : ... .. . ... ... ... : ... .. . ... ... ... : ... .. . ... ... ... : ... .. . ... ... ... : ... .. . ... ... ... : ... .. . ... ... ... : ... .. . ... ... ... : ... .. . ... ... ... : ... .. . ... ... ... : ... .. . ... ... ...
ROW E8 : ... .. . ... ... ... : ... .. . ... ... ... : ... .. . ... ... ... : --- .. . ... ... ... : ... .. . ... ... ... : ... .. . ... ... ... : ... .. . P81 ... ... : ... .. . ... ... ... : ... .. . ... ... ... : ... .. . ... ... ... : ... .. . ... ... ... : ... .. . ... ... ... : ... .. . ... ... ...
ROW E9 : ... .. . ... ... ... : ... .. . ... ... ... : ... .. . ... ... ... : ... .. . ... ... ... : ... .. . ... ... ... : ... .. . ... ... ... : ... .. . ... ... ... : ... .. . ... ... ... : ... .. B ... ... ... : ... .. 5 ... ... ... : ... .. . ... ... ... : ... .. . ... ... ... : ... .. . ... ... ...
ROW EA : ... .. . ... ... ... : C-4 02 . P80 ... ... : C#4 00 . P7F ... ... : 9-# 00 F ... ... ... : C#1 12 . ... ... ... : D-2 06 . ... ... ... : D-2 06 . P82 ... ... : ... .. . ... ... ... : D-2 06 . ... ... ... : D-3 06 . ... ... ... : ... .. . ... ... ... : ... .. . ... ... ... : ... .. . ... ... ...
ROW EB : ... .. . ... ... ... : F-3 02 . ... ... ... : F#3 00 . P83 ... ... : 2-# 00 7 ... ... ... : ... .. . ... ... ... : ... .. . ... ... ... : C#2 06 . P7F ... ... : ... .. . ... ... ... : ... .. . ... ... ... : ... .. . ... ... ... : ... .. . ... ... ... : ... .. . ... ... ... : ... .. . ... ... ...
ROW EC : ... .. . ... ... ... : A#2 02 . P81 ... ... : C#3 00 . P89 ... ... : 6-# 00 C ... ... ... : ... .. . ... ... ... : ... .. . ... ... ... : D-2 06 . P81 ... ... : ... .. . ... ... ... : ... .. . ... ... ... : ... .. . ... ... ... : ... .. . ... ... ... : ... .. . ... ... ... : ... .. . ... ... ...
ROW ED : ... .. . ... ... ... : D#2 02 . ... ... ... : A#2 00 . P75 ... ... : 7-# 00 8 ... ... ... : ... .. . ... ... ... : D-2 07 . ... ... ... : D-2 07 . P80 ... ... : ... .. . ... ... ... : D-2 07 . ... ... ... : D-3 07 4 ... ... ... : ... .. . ... ... ... : ... .. . ... ... ... : ... .. . ... ... ...
ROW EE : ... .. . ... ... ... : G#1 02 . ... ... ... : G-2 00 . P70 ... ... : 8-# 00 7 ... ... ... : ... .. . ... ... ... : ... .. . ... ... ... : ... .. . P81 ... ... : ... .. . ... ... ... : ... .. . ... ... ... : ... .. . ... ... ... : ... .. . ... ... ... : ... .. . ... ... ... : ... .. . ... ... ...
ROW EF : ... .. . ... ... ... : C#1 02 . ... ... ... : E-2 00 . P7C ... ... : ... .. 6 ... ... ... : ... .. . ... ... ... : ... .. . ... ... ... : C#2 07 . P7F ... ... : ... .. . ... ... ... : ... .. . ... ... ... : ... .. . ... ... ... : ... .. . ... ... ... : ... .. . ... ... ... : ... .. . ... ... ...
ROW F0 : ... .. . ... ... ... : ... .. . ... ... ... : --- .. . ... ... ... : ... .. . ... ... ... : ... .. . ... ... ... : D-2 08 . ... ... ... : D-2 08 . P81 ... ... : ... .. . ... ... ... : D-2 08 . ... ... ... : D-3 08 . ... ... ... : ... .. . ... ... ... : ... .. . ... ... ... : ... .. . ... ... ...
ROW F1 : ... .. . ... ... ... : ... .. . ... ... ... : ... .. . ... ... ... : ... .. 5 ... ... ... : ... .. . ... ... ... : ... .. . ... ... ... : ... .. . P80 ... ... : ... .. . ... ... ... : ... .. A ... ... ... : ... .. 3 ... ... ... : ... .. . ... ... ... : ... .. . ... ... ... : ... .. . ... ... ...
ROW F2 : ... .. . ... ... ... : ... .. . ... ... ... : ... .. . ... ... ... : ... .. . ... ... ... : ... .. . ... ... ... : ... .. . ... ... ... : ... .. . P81 ... ... : ... .. . ... ... ... : ... .. . ... ... ... : ... .. . ... ... ... : ... .. . ... ... ... : ... .. . ... ... ... : ... .. . ... ... ...
ROW F3 : ... .. . ... ... ... : ... .. . ... ... ... : ... .. . ... ... ... : ... .. 4 ... ... ... : ... .. . ... ... ... : D-2 09 . ... ... ... : C#2 09 . P7F ... ... : ... .. . ... ... ... : D-2 09 . ... ... ... : D-3 09 . ... ... ... : ... .. . ... ... ... : ... .. . ... ... ... : ... .. . ... ... ...
ROW F4 : ... .. . ... ... ... : ... .. . ... ... ... : ... .. . ... ... ... : ... .. . ... ... ... : ... .. . ... ... ... : ... .. . ... ... ... : D-2 09 . P81 ... ... : ... .. . ... ... ... : ... .. . ... ... ... : ... .. . ... ... ... : ... .. . ... ... ... : ... .. . ... ... ... : ... .. . ... ... ...
ROW F5 : ... .. . ... ... ... : ... .. . ... ... ... : ... .. . ... ... ... : ... .. 3 ... ... ... : ... .. . ... ... ... : ... .. . ... ... ... : ... .. . P80 ... ... : ... .. . ... ... ... : ... .. . ... ... ... : ... .. 2 ... ... ... : ... .. . ... ... ... : ... .. . ... ... ... : ... .. . ... ... ...
ROW F6 : ... .. . ... ... ... : F-3 02 . P80 ... ... : C#4 00 . P7F ... ... : 1-# 00 F ... ... ... : C-1 12 . ... ... ... : --- .. . ... ... ... : --- .. . ... ... ... : ... .. . ... ... ... : --- .. . ... ... ... : --- .. . ... ... ... : ... .. . ... ... ... : ... .. . ... ... ... : ... .. . ... ... ...
ROW F7 : ... .. . ... ... ... : A#2 02 . P81 ... ... : F#3 00 . P83 ... ... : 2-# 00 7 ... ... ... : ... .. . ... ... ... : ... .. . ... ... ... : ... .. . ... ... ... : ... .. . ... ... ... : ... .. . P80 ... ... : ... .. . P80 ... ... : ... .. . ... ... ... : ... .. . ... ... ... : ... .. . ... ... ...
ROW F8 : ... .. . ... ... ... : D#2 02 . ... ... ... : C#3 00 . P89 ... ... : 1-# 00 4 ... ... ... : ... .. . ... ... ... : ... .. . ... ... ... : ... .. . ... ... ... : ... .. . ... ... ... : ... .. . ... ... ... : ... .. . ... ... ... : ... .. . ... ... ... : ... .. . ... ... ... : ... .. . ... ... ...
ROW F9 : ... .. . ... ... ... : G#1 02 . ... ... ... : A#2 00 . P75 ... ... : ... .. 2 ... ... ... : ... .. . ... ... ... : ... .. . ... ... ... : ... .. . ... ... ... : ... .. . ... ... ... : ... .. . ... ... ... : ... .. . ... ... ... : ... .. . ... ... ... : ... .. . ... ... ... : ... .. . ... ... ...
ROW FA : ... .. . ... ... ... : C#1 02 . ... ... ... : G-2 00 . P70 ... ... : ... .. 1 ... ... ... : ... .. . ... ... ... : ... .. . ... ... ... : ... .. . ... ... ... : ... .. . ... ... ... : ... .. . ... ... ... : ... .. . ... ... ... : ... .. . ... ... ... : ... .. . ... ... ... : ... .. . ... ... ...
ROW FB : ... .. . ... ... ... : ... .. . ... ... ... : E-2 00 . P7C ... ... : --- .. . ... ... ... : ... .. . ... ... ... : ... .. . ... ... ... : ... .. . ... ... ... : ... .. . ... ... ... : ... .. . ... ... ... : ... .. . ... ... ... : ... .. . ... ... ... : ... .. . ... ... ... : ... .. . ... ... ...
ROW FC : ... .. . ... ... ... : ... .. . ... ... ... : D-2 00 . P6F ... ... : ... .. . ... ... ... : ... .. . ... ... ... : ... .. . ... ... ... : ... .. . ... ... ... : ... .. . ... ... ... : ... .. . ... ... ... : ... .. . ... ... ... : ... .. . ... ... ... : ... .. . ... ... ... : ... .. . ... ... ...
ROW FD : ... .. . ... ... ... : ... .. . ... ... ... : C-2 00 . P6C ... ... : ... .. . ... ... ... : ... .. . ... ... ... : ... .. . ... ... ... : ... .. . ... ... ... : ... .. . ... ... ... : ... .. . ... ... ... : ... .. . ... ... ... : ... .. . ... ... ... : ... .. . ... ... ... : ... .. . ... ... ...
ROW FE : ... .. . ... ... ... : ... .. . ... ... ... : A#1 00 . P75 ... ... : ... .. . ... ... ... : ... .. . ... ... ... : ... .. . ... ... ... : ... .. . ... ... ... : ... .. . ... ... ... : ... .. . ... ... ... : ... .. . ... ... ... : ... .. . ... ... ... : ... .. . ... ... ... : ... .. . ... ... ...
ROW FF : ... .. . ... ... ... : ... .. . ... ... ... : G#1 00 . P8A ... ... : ... .. . ... ... ... : ... .. . ... ... ... : C-2 07 . ... ... ... : C-2 07 . P81 ... ... : ... .. . ... ... ... : ... .. . ... ... ... : ... .. . ... ... ... : ... .. . ... ... ... : ... .. . ... ... ... : ... .. . ... ... ...

PATTERN 08
ROW 00 : ... .. . ... ... ... : ... .. . ... ... ... : G-1 00 . P6A ... ... : ... .. . ... ... ... : ... .. . ... ... ... : ... .. . ... ... ... : B-1 07 . P7F ... ... : ... .. . ... ... ... : ... .. . ... ... ... : ... .. . ... ... ... : ... .. . ... ... ... : ... .. . ... ... ... : ... .. . ... ... ...
ROW 01 : ... .. . ... ... ... : ... .. . ... ... ... : F-1 00 . P96 ... ... : ... .. . ... ... ... : ... .. . ... ... ... : ... .. . ... ... ... : C-2 07 . P81 ... ... : ... .. . ... ... ... : ... .. . ... ... ... : ... .. . ... ... ... : ... .. . ... ... ... : ... .. . ... ... ... : ... .. . ... ... ...
ROW 02 : ... .. . ... ... ... : ... .. . ... ... ... : E-1 00 . P82 ... ... : ... .. . ... ... ... : ... .. . ... ... ... : ... .. . ... ... ... : ... .. . P80 ... ... : ... .. . ... ... ... : ... .. . ... ... ... : ... .. . ... ... ... : ... .. . ... ... ... : ... .. . ... ... ... : ... .. . ... ... ...
ROW 03 : ... .. . ... ... ... : C-4 02 . P80 ... ... : F#3 00 . P78 ... ... : 1-# 00 F ... ... ... : C-1 12 . ... ... ... : C#2 06 . ... ... ... : C#2 06 . P81 ... ... : ... .. . ... ... ... : C#2 06 8 P7F ... ... : ... .. . ... ... ... : ... .. . ... ... ... : ... .. . ... ... ... : ... .. . ... ... ...
ROW 04 : ... .. . ... ... ... : F-3 02 . ... ... ... : C#3 00 . P7E ... ... : 2-# 00 7 ... ... ... : ... .. . ... ... ... : ... .. . ... ... ... : C-2 06 . P7F ... ... : ... .. . ... ... ... : ... .. . ... ... ... : ... .. . ... ... ... : ... .. . ... ... ... : ... .. . ... ... ... : ... .. . ... ... ...
ROW 05 : ... .. . ... ... ... : A#2 02 . P81 ... ... : A-2 00 . P86 ... ... : 1-# 00 4 ... ... ... : ... .. . ... ... ... : ... .. . ... ... ... : C#2 06 . P82 ... ... : ... .. . ... ... ... : ... .. . ... ... ... : ... .. . ... ... ... : ... .. . ... ... ... : ... .. . ... ... ... : ... .. . ... ... ...
ROW 06 : ... .. . ... ... ... : D#2 02 . ... ... ... : --- .. . ... ... ... : ... .. 2 ... ... ... : ... .. . ... ... ... : C#2 09 . ... ... ... : C#2 09 . P81 ... ... : ... .. . ... ... ... : C#2 09 . ... ... ... : ... .. . ... ... ... : ... .. . ... ... ... : ... .. . ... ... ... : ... .. . ... ... ...
ROW 07 : ... .. . ... ... ... : G#1 02 . ... ... ... : ... .. . ... ... ... : ... .. 1 ... ... ... : ... .. . ... ... ... : ... .. . ... ... ... : ... .. . ... ... ... : ... .. . ... ... ... : ... .. . ... ... ... : ... .. . ... ... ... : ... .. . ... ... ... : ... .. . ... ... ... : ... .. . ... ... ...
ROW 08 : ... .. . ... ... ... : C#1 02 . ... ... ... : ... .. . ... ... ... : --- .. . ... ... ... : ... .. . ... ... ... : ... .. . ... ... ... : ... .. . P82 ... ... : ... .. . ... ... ... : ... .. . ... ... ... : ... .. . ... ... ... : ... .. . ... ... ... : ... .. . ... ... ... : ... .. . ... ... ...
ROW 09 : ... .. . ... ... ... : ... .. . ... ... ... : ... .. . ... ... ... : ... .. . ... ... ... : ... .. . ... ... ... : C#2 06 . ... ... ... : C#2 06 . ... ... ... : ... .. . ... ... ... : C#2 06 7 ... ... ... : ... .. . ... ... ... : ... .. . ... ... ... : ... .. . ... ... ... : ... .. . ... ... ...
ROW 0A : ... .. . ... ... ... : ... .. . ... ... ... : ... .. . ... ... ... : ... .. . ... ... ... : ... .. . ... ... ... : ... .. . ... ... ... : ... .. . P81 ... ... : ... .. . ... ... ... : ... .. . ... ... ... : ... .. . ... ... ... : ... .. . ... ... ... : ... .. . ... ... ... : ... .. . ... ... ...
ROW 0B : ... .. . ... ... ... : ... .. . ... ... ... : ... .. . ... ... ... : ... .. . ... ... ... : ... .. . ... ... ... : ... .. . ... ... ... : ... .. . P80 ... ... : ... .. . ... ... ... : ... .. . ... ... ... : ... .. . ... ... ... : ... .. . ... ... ... : ... .. . ... ... ... : ... .. . ... ... ...
ROW 0C : ... .. . ... ... ... : ... .. . ... ... ... : ... .. . ... ... ... : ... .. . ... ... ... : ... .. . ... ... ... : C#2 09 . ... ... ... : C#2 09 . P81 ... ... : ... .. . ... ... ... : C#2 09 . ... ... ... : ... .. . ... ... ... : ... .. . ... ... ... : ... .. . ... ... ... : ... .. . ... ... ...
ROW 0D : ... .. . ... ... ... : ... .. . ... ... ... : ... .. . ... ... ... : ... .. . ... ... ... : ... .. . ... ... ... : ... .. . ... ... ... : C-2 09 . P7F ... ... : ... .. . ... ... ... : ... .. . ... ... ... : ... .. . ... ... ... : ... .. . ... ... ... : ... .. . ... ... ... : ... .. . ... ... ...
ROW 0E : ... .. . ... ... ... : ... .. . ... ... ... : ... .. . ... ... ... : ... .. . ... ... ... : ... .. . ... ... ... : ... .. . ... ... ... : C#2 09 . P81 ... ... : ... .. . ... ... ... : ... .. . ... ... ... : ... .. . ... ... ... : ... .. . ... ... ... : ... .. . ... ... ... : ... .. . ... ... ...
ROW 0F : ... .. . ... ... ... : ... .. . ... ... ... : ... .. . ... ... ... : D-# 00 A ... ... ... : ... .. . ... ... ... : C#2 06 . ... ... ... : C#2 06 . P80 ... ... : ... .. . ... ... ... : C#2 06 . ... ... ... : ... .. . ... ... ... : ... .. . ... ... ... : ... .. . ... ... ... : ... .. . ... ... ...
ROW 10 : ... .. . ... ... ... : ... .. . ... ... ... : ... .. . ... ... ... : E-# 00 4 ... ... ... : ... .. . ... ... ... : ... .. . ... ... ... : ... .. . P81 ... ... : ... .. . ... ... ... : ... .. . ... ... ... : ... .. . ... ... ... : ... .. . ... ... ... : ... .. . ... ... ... : ... .. . ... ... ...
ROW 11 : ... .. . ... ... ... : ... .. . ... ... ... : ... .. . ... ... ... : D-# 00 2 ... ... ... : ... .. . ... ... ... : ... .. . ... ... ... : C-2 06 . P7F ... ... : ... .. . ... ... ... : ... .. 6 ... ... ... : ... .. . ... ... ... : ... .. . ... ... ... : ... .. . ... ... ... : ... .. . ... ... ...
ROW 12 : ... .. . ... ... ... : ... .. . ... ... ... : ... .. . ... ... ... : ... .. 1 ... ... ... : ... .. . ... ... ... : C#2 09 . ... ... ... : C#2 09 . P81 ... ... : ... .. . ... ... ... : C#2 09 . ... ... ... : ... .. . ... ... ... : ... .. . ... ... ... : ... .. . ... ... ... : ... .. . ... ... ...
ROW 13 : ... .. . ... ... ... : ... .. . ... ... ... : ... .. . ... ... ... : ... .. . ... ... ... : ... .. . ... ... ... : ... .. . ... ... ... : ... .. . P80 ... ... : ... .. . ... ... ... : ... .. . ... ... ... : ... .. . ... ... ... : ... .. . ... ... ... : ... .. . ... ... ... : ... .. . ... ... ...
ROW 14 : ... .. . ... ... ... : ... .. . ... ... ... : ... .. . ... ... ... : --- .. . ... ... ... : ... .. . ... ... ... : ... .. . ... ... ... : ... .. . P81 ... ... : ... .. . ... ... ... : ... .. . ... ... ... : ... .. . ... ... ... : ... .. . ... ... ... : ... .. . ... ... ... : ... .. . ... ... ...
ROW 15 : ... .. . ... ... ... : ... .. . ... ... ... : ... .. . ... ... ... : D-# 00 A ... ... ... : ... .. . ... ... ... : C#2 06 . ... ... ... : C-2 06 . P7F ... ... : ... .. . ... ... ... : C#2 06 . ... ... ... : ... .. . ... ... ... : ... .. . ... ... ... : ... .. . ... ... ... : ... .. . ... ... ...
ROW 16 : ... .. . ... ... ... : ... .. . ... ... ... : ... .. . ... ... ... : E-# 00 4 ... ... ... : ... .. . ... ... ... : ... .. . ... ... ... : C#2 06 . P82 ... ... : ... .. . ... ... ... : ... .. . ... ... ... : ... .. . ... ... ... : ... .. . ... ... ... : ... .. . ... ... ... : ... .. . ... ... ...
ROW 17 : ... .. . ... ... ... : ... .. . ... ... ... : ... .. . ... ... ... : D-# 00 2 ... ... ... : ... .. . ... ... ... : ... .. . ... ... ... : ... .. . P81 ... ... : ... .. . ... ... ... : ... .. . ... ... ... : ... .. . ... ... ... : ... .. . ... ... ... : ... .. . ... ... ... : ... .. . ... ... ...
ROW 18 : ... .. . ... ... ... : ... .. . ... ... ... : ... .. . ... ... ... : ... .. 1 ... ... ... : ... .. . ... ... ... : C#2 09 . ... ... ... : C#2 09 . ... ... ... : ... .. . ... ... ... : C#2 09 . ... ... ... : ... .. . ... ... ... : ... .. . ... ... ... : ... .. . ... ... ... : ... .. . ... ... ...
ROW 19 : ... .. . ... ... ... : ... .. . ... ... ... : ... .. . ... ... ... : ... .. . ... ... ... : ... .. . ... ... ... : ... .. . ... ... ... : ... .. . P82 ... ... : ... .. . ... ... ... : ... .. 5 ... ... ... : ... .. . ... ... ... : ... .. . ... ... ... : ... .. . ... ... ... : ... .. . ... ... ...
ROW 1A : ... .. . ... ... ... : ... .. . ... ... ... : ... .. . ... ... ... : --- .. . ... ... ... : ... .. . ... ... ... : ... .. . ... ... ... : C-2 09 . P7F ... ... : ... .. . ... ... ... : ... .. . ... ... ... : ... .. . ... ... ... : ... .. . ... ... ... : ... .. . ... ... ... : ... .. . ... ... ...
ROW 1B : ... .. . ... ... ... : ... .. . ... ... ... : ... .. . ... ... ... : ... .. . ... ... ... : ... .. . ... ... ... : ... .. . ... ... ... : C#2 09 . P81 ... ... : ... .. . ... ... ... : ... .. . ... ... ... : ... .. . ... ... ... : ... .. . ... ... ... : ... .. . ... ... ... : ... .. . ... ... ...
ROW 1C : ... .. . ... ... ... : C-4 02 . P80 ... ... : C#4 00 . P7F ... ... : 9-# 00 F ... ... ... : C#1 12 . ... ... ... : G-1 06 . ... ... ... : G-1 06 . P80 ... ... : ... .. . ... ... ... : G-1 06 . ... ... ... : ... .. . ... ... ... : ... .. . ... ... ... : ... .. . ... ... ... : ... .. . ... ... ...
ROW 1D : ... .. . ... ... ... : F-3 02 . ... ... ... : F#3 00 . P83 ... ... : 2-# 00 7 ... ... ... : ... .. . ... ... ... : ... .. . ... ... ... : ... .. . P81 ... ... : ... .. . ... ... ... : ... .. . ... ... ... : ... .. . ... ... ... : ... .. . ... ... ... : ... .. . ... ... ... : ... .. . ... ... ...
ROW 1E : ... .. . ... ... ... : A#2 02 . P81 ... ... : C#3 00 . P89 ... ... : 6-# 00 C ... ... ... : ... .. . ... ... ... : ... .. . ... ... ... : F#1 06 . P80 ... ... : ... .. . ... ... ... : ... .. . ... ... ... : ... .. . ... ... ... : ... .. . ... ... ... : ... .. . ... ... ... : ... .. . ... ... ...
ROW 1F : ... .. . ... ... ... : D#2 02 . ... ... ... : A#2 00 . P75 ... ... : 7-# 00 8 ... ... ... : ... .. . ... ... ... : ... .. . ... ... ... : G-1 06 . P81 ... ... : ... .. . ... ... ... : ... .. . ... ... ... : ... .. . ... ... ... : ... .. . ... ... ... : ... .. . ... ... ... : ... .. . ... ... ...
ROW 20 : ... .. . ... ... ... : G#1 02 . ... ... ... : G-2 00 . P70 ... ... : 8-# 00 7 ... ... ... : ... .. . ... ... ... : ... .. . ... ... ... : ... .. . P80 ... ... : ... .. . ... ... ... : ... .. . ... ... ... : ... .. . ... ... ... : ... .. . ... ... ... : ... .. . ... ... ... : ... .. . ... ... ...
ROW 21 : ... .. . ... ... ... : C#1 02 . ... ... ... : E-2 00 . P7C ... ... : ... .. 6 ... ... ... : ... .. . ... ... ... : ... .. . ... ... ... : ... .. . P81 ... ... : ... .. . ... ... ... : ... .. 4 ... ... ... : ... .. . ... ... ... : ... .. . ... ... ... : ... .. . ... ... ... : ... .. . ... ... ...
ROW 22 : ... .. . ... ... ... : ... .. . ... ... ... : --- .. . ... ... ... : ... .. . ... ... ... : ... .. . ... ... ... : G-1 07 . ... ... ... : F#1 07 . P80 ... ... : ... .. . ... ... ... : G-1 07 . ... ... ... : ... .. . ... ... ... : ... .. . ... ... ... : ... .. . ... ... ... : ... .. . ... ... ...
ROW 23 : ... .. . ... ... ... : ... .. . ... ... ... : ... .. . ... ... ... : ... .. 5 ... ... ... : ... .. . ... ... ... : ... .. . ... ... ... : G-1 07 . P81 ... ... : ... .. . ... ... ... : ... .. . ... ... ... : ... .. . ... ... ... : ... .. . ... ... ... : ... .. . ... ... ... : ... .. . ... ... ...
ROW 24 : ... .. . ... ... ... : ... .. . ... ... ... : ... .. . ... ... ... : ... .. . ... ... ... : ... .. . ... ... ... : ... .. . ... ... ... : ... .. . P80 ... ... : ... .. . ... ... ... : ... .. . ... ... ... : ... .. . ... ... ... : ... .. . ... ... ... : ... .. . ... ... ... : ... .. . ... ... ...
ROW 25 : ... .. . ... ... ... : ... .. . ... ... ... : ... .. . ... ... ... : ... .. 4 ... ... ... : ... .. . ... ... ... : G-1 08 . ... ... ... : G-1 08 . P81 ... ... : ... .. . ... ... ... : G-1 08 . ... ... ... : ... .. . ... ... ... : ... .. . ... ... ... : ... .. . ... ... ... : ... .. . ... ... ...
ROW 26 : ... .. . ... ... ... : ... .. . ... ... ... : ... .. . ... ... ... : ... .. . ... ... ... : ... .. . ... ... ... : ... .. . ... ... ... : F#1 08 . P80 ... ... : ... .. . ... ... ... : ... .. . ... ... ... : ... .. . ... ... ... : ... .. . ... ... ... : ... .. . ... ... ... : ... .. . ... ... ...
ROW 27 : ... .. . ... ... ... : ... .. . ... ... ... : ... .. . ... ... ... : ... .. 3 ... ... ... : ... .. . ... ... ... : ... .. . ... ... ... : ... .. . ... ... ... : ... .. . ... ... ... : ... .. . ... ... ... : ... .. . ... ... ... : ... .. . ... ... ... : ... .. . ... ... ... : ... .. . ... ... ...
ROW 28 : ... .. . ... ... ... : ... .. . ... ... ... : ... .. . ... ... ... : 6-# 01 F ... ... ... : ... .. . ... ... ... : B-1 06 . ... ... ... : B-1 06 . P81 ... ... : ... .. . ... ... ... : B-1 06 . ... ... ... : ... .. . ... ... ... : ... .. . ... ... ... : ... .. . ... ... ... : ... .. . ... ... ...
ROW 29 : ... .. . ... ... ... : ... .. . ... ... ... : ... .. . ... ... ... : ... .. 9 ... ... ... : ... .. . ... ... ... : ... .. . ... ... ... : ... .. . ... ... ... : ... .. . ... ... ... : ... .. 3 ... ... ... : ... .. . ... ... ... : ... .. . ... ... ... : ... .. . ... ... ... : ... .. . ... ... ...
ROW 2A : ... .. . ... ... ... : ... .. . ... ... ... : ... .. . ... ... ... : ... .. 4 ... ... ... : ... .. . ... ... ... : ... .. . ... ... ... : A#1 06 . P7F ... ... : ... .. . ... ... ... : ... .. . ... ... ... : ... .. . ... ... ... : ... .. . ... ... ... : ... .. . ... ... ... : ... .. . ... ... ...
ROW 2B : ... .. . ... ... ... : ... .. . ... ... ... : ... .. . ... ... ... : ... .. 7 ... ... ... : ... .. . ... ... ... : ... .. . ... ... ... : ... .. . P80 ... ... : ... .. . ... ... ... : ... .. . ... ... ... : ... .. . ... ... ... : ... .. . ... ... ... : ... .. . ... ... ... : ... .. . ... ... ...
ROW 2C : ... .. . ... ... ... : ... .. . ... ... ... : ... .. . ... ... ... : ... .. 5 ... ... ... : ... .. . ... ... ... : ... .. . ... ... ... : B-1 06 . P81 ... ... : ... .. . ... ... ... : ... .. . ... ... ... : ... .. . ... ... ... : ... .. . ... ... ... : ... .. . ... ... ... : ... .. . ... ... ...
ROW 2D : ... .. . ... ... ... : ... .. . ... ... ... : ... .. . ... ... ... : ... .. . ... ... ... : ... .. . ... ... ... : ... .. . ... ... ... : ... .. . P80 ... ... : ... .. . ... ... ... : ... .. . ... ... ... : ... .. . ... ... ... : ... .. . ... ... ... : ... .. . ... ... ... : ... .. . ... ... ...
ROW 2E : ... .. . ... ... ... : ... .. . ... ... ... : ... .. . ... ... ... : ... .. 4 ... ... ... : ... .. . ... ... ... : B-1 07 . ... ... ... : B-1 07 . P81 ... ... : ... .. . ... ... ... : B-1 07 . ... ... ... : ... .. . ... ... ... : ... .. . ... ... ... : ... .. . ... ... ... : ... .. . ... ... ...
ROW 2F : ... .. . ... ... ... : ... .. . ... ... ... : ... .. . ... ... ... : ... .. . ... ... ... : ... .. . ... ... ... : ... .. . ... ... ... : A#1 07 . P80 ... ... : ... .. . ... ... ... : ... .. . ... ... ... : ... .. . ... ... ... : ... .. . ... ... ... : ... .. . ... ... ... : ... .. . ... ... ...
ROW 30 : ... .. . ... ... ... : ... .. . ... ... ... : ... .. . ... ... ... : ... .. 3 ... ... ... : ... .. . ... ... ... : ... .. . ... ... ... : B-1 07 . P81 ... ... : ... .. . ... ... ... : ... .. . ... ... ... : ... .. . ... ... ... : ... .. . ... ... ... : ... .. . ... ... ... : ... .. . ... ... ...
ROW 31 : ... .. . ... ... ... : ... .. . ... ... ... : ... .. . ... ... ... : ... .. 2 ... ... ... : ... .. . ... ... ... : B-1 08 . ... ... ... : B-1 08 . P80 ... ... : ... .. . ... ... ... : B-1 08 2 ... ... ... : ... .. . ... ... ... : ... .. . ... ... ... : ... .. . ... ... ... : ... .. . ... ... ...
ROW 32 : ... .. . ... ... ... : ... .. . ... ... ... : ... .. . ... ... ... : ... .. . ... ... ... : ... .. . ... ... ... : ... .. . ... ... ... : ... .. . P81 ... ... : ... .. . ... ... ... : ... .. . ... ... ... : ... .. . ... ... ... : ... .. . ... ... ... : ... .. . ... ... ... : ... .. . ... ... ...
ROW 33 : ... .. . ... ... ... : ... .. . ... ... ... : ... .. . ... ... ... : ... .. 1 ... ... ... : ... .. . ... ... ... : ... .. . ... ... ... : A#1 08 . P80 ... ... : ... .. . ... ... ... : ... .. . ... ... ... : ... .. . ... ... ... : ... .. . ... ... ... : ... .. . ... ... ... : ... .. . ... ... ...
ROW 34 : ... .. . ... ... ... : ... .. . ... ... ... : ... .. . ... ... ... : ... .. . ... ... ... : ... .. . ... ... ... : ... .. . ... ... ... : B-1 08 . P81 ... ... : ... .. . ... ... ... : ... .. . ... ... ... : ... .. . ... ... ... : ... .. . ... ... ... : ... .. . ... ... ... : ... .. . ... ... ...
ROW 35 : ... .. . ... ... ... : C-4 02 . P80 ... ... : F#3 00 . P78 ... ... : 1-# 00 F ... ... ... : C-1 12 . ... ... ... : G#1 06 . ... ... ... : G#1 06 . P80 ... ... : ... .. . ... ... ... : G#1 06 . ... ... ... : ... .. . ... ... ... : ... .. . ... ... ... : ... .. . ... ... ... : ... .. . ... ... ...
ROW 36 : ... .. . ... ... ... : F-3 02 . ... ... ... : C#3 00 . P7E ... ... : 2-# 00 7 ... ... ... : ... .. . ... ... ... : ... .. . ... ... ... : ... .. . P81 ... ... : ... .. . ... ... ... : ... .. . ... ... ... : ... .. . ... ... ... : ... .. . ... ... ... : ... .. . ... ... ... : ... .. . ... ... ...
ROW 37 : ... .. . ... ... ... : A#2 02 . P81 ... ... : A-2 00 . P86 ... ... : 1-# 00 4 ... ... ... : ... .. . ... ... ... : ... .. . ... ... ... : G-1 06 . P80 ... ... : ... .. . ... ... ... : ... .. . ... ... ... : ... .. . ... ... ... : ... .. . ... ... ... : ... .. . ... ... ... : ... .. . ... ... ...
ROW 38 : ... .. . ... ... ... : D#2 02 . ... ... ... : --- .. . ... ... ... : ... .. 2 ... ... ... : ... .. . ... ... ... : ... .. . ... ... ... : ... .. . ... ... ... : ... .. . ... ... ... : ... .. . ... ... ... : ... .. . ... ... ... : ... .. . ... ... ... : ... .. . ... ... ... : ... .. . ... ... ...
ROW 39 : ... .. . ... ... ... : G#1 02 . ... ... ... : ... .. . ... ... ... : ... .. 1 ... ... ... : ... .. . ... ... ... : ... .. . ... ... ... : G#1 06 . P81 ... ... : ... .. . ... ... ... : ... .. 1 ... ... ... : ... .. . ... ... ... : ... .. . ... ... ... : ... .. . ... ... ... : ... .. . ... ... ...
ROW 3A : ... .. . ... ... ... : C#1 02 . ... ... ... : ... .. . ... ... ... : --- .. . ... ... ... : ... .. . ... ... ... : ... .. . ... ... ... : ... .. . P80 ... ... : ... .. . ... ... ... : ... .. . ... ... ... : ... .. . ... ... ... : ... .. . ... ... ... : ... .. . ... ... ... : ... .. . ... ... ...
ROW 3B : ... .. . ... ... ... : ... .. . ... ... ... : ... .. . ... ... ... : ... .. . ... ... ... : ... .. . ... ... ... : G#1 07 . ... ... ... : G#1 07 . P81 ... ... : ... .. . ... ... ... : G#1 07 . ... ... ... : ... .. . ... ... ... : ... .. . ... ... ... : ... .. . ... ... ... : ... .. . ... ... ...
ROW 3C : ... .. . ... ... ... : ... .. . ... ... ... : ... .. . ... ... ... : ... .. . ... ... ... : ... .. . ... ... ... : ... .. . ... ... ... : G-1 07 . P80 ... ... : ... .. . ... ... ... : ... .. . ... ... ... : ... .. . ... ... ... : ... .. . ... ... ... : ... .. . ... ... ... : ... .. . ... ... ...
ROW 3D : ... .. . ... ... ... : ... .. . ... ... ... : ... .. . ... ... ... : ... .. . ... ... ... : ... .. . ... ... ... : ... .. . ... ... ... : G#1 07 . P81 ... ... : ... .. . ... ... ... : ... .. . ... ... ... : ... .. . ... ... ... : ... .. . ... ... ... : ... .. . ... ... ... : ... .. . ... ... ...
ROW 3E : ... .. . ... ... ... : ... .. . ... ... ... : ... .. . ... ... ... : ... .. . ... ... ... : ... .. . ... ... ... : G-1 07 . ... ... ... : G-1 07 . P80 ... ... : ... .. . ... ... ... : ... .. . P81 ... ... : ... .. . ... ... ... : ... .. . ... ... ... : ... .. . ... ... ... : ... .. . ... ... ...
ROW 3F : ... .. . ... ... ... : ... .. . ... ... ... : ... .. . ... ... ... : ... .. . ... ... ... : ... .. . ... ... ... : F#1 07 . ... ... ... : F#1 07 . P81 ... ... : ... .. . ... ... ... : G-1 07 . ... ... ... : ... .. . ... ... ... : ... .. . ... ... ... : ... .. . ... ... ... : ... .. . ... ... ...
ROW 40 : ... .. . ... ... ... : ... .. . ... ... ... : ... .. . ... ... ... : ... .. . ... ... ... : ... .. . ... ... ... : F-1 07 . ... ... ... : E-1 07 . P80 ... ... : ... .. . ... ... ... : F#1 07 . ... ... ... : ... .. . ... ... ... : ... .. . ... ... ... : ... .. . ... ... ... : ... .. . ... ... ...
ROW 41 : ... .. . ... ... ... : ... .. . ... ... ... : ... .. . ... ... ... : D-# 00 A ... ... ... : ... .. . ... ... ... : E-1 08 . ... ... ... : E-1 08 . P81 ... ... : G#6 03 7 ... ... ... : --- .. . ... ... ... : ... .. . ... ... ... : ... .. . ... ... ... : ... .. . ... ... ... : ... .. . ... ... ...
ROW 42 : ... .. . ... ... ... : ... .. . ... ... ... : ... .. . ... ... ... : E-# 00 4 ... ... ... : ... .. . ... ... ... : D#1 08 . ... ... ... : D#1 08 . P80 ... ... : ... .. . ... ... ... : ... .. . P80 ... ... : ... .. . ... ... ... : ... .. . ... ... ... : ... .. . ... ... ... : ... .. . ... ... ...
ROW 43 : ... .. . ... ... ... : ... .. . ... ... ... : ... .. . ... ... ... : D-# 00 2 ... ... ... : ... .. . ... ... ... : D-1 08 . ... ... ... : D-1 08 . P81 ... ... : ... .. . ... ... ... : ... .. . ... ... ... : ... .. . ... ... ... : ... .. . ... ... ... : ... .. . ... ... ... : ... .. . ... ... ...
ROW 44 : ... .. . ... ... ... : ... .. . ... ... ... : ... .. . ... ... ... : ... .. 1 ... ... ... : ... .. . ... ... ... : C#1 08 . ... ... ... : C-1 08 . ... ... ... : ... .. 5 ... ... ... : ... .. . ... ... ... : ... .. . ... ... ... : ... .. . ... ... ... : ... .. . ... ... ... : ... .. . ... ... ...
ROW 45 : ... .. . ... ... ... : ... .. . ... ... ... : ... .. . ... ... ... : ... .. . ... ... ... : ... .. . ... ... ... : C-1 08 . P81 ... ... : B-0 08 . ... ... ... : ... .. . ... ... ... : ... .. . ... ... ... : ... .. . ... ... ... : ... .. . ... ... ... : ... .. . ... ... ... : ... .. . ... ... ...
ROW 46 : ... .. . ... ... ... : ... .. . ... ... ... : ... .. . ... ... ... : --- .. . ... ... ... : ... .. . ... ... ... : B-0 08 . ... ... ... : A#0 08 . P80 ... ... : ... .. . ... ... ... : ... .. . ... ... ... : ... .. . ... ... ... : ... .. . ... ... ... : ... .. . ... ... ... : ... .. . ... ... ...
ROW 47 : ... .. . ... ... ... : ... .. . ... ... ... : ... .. . ... ... ... : D-# 00 A ... ... ... : ... .. . ... ... ... : A-0 09 . P80 ... ... : A-0 09 . P81 ... ... : ... .. 3 ... ... ... : ... .. . ... ... ... : ... .. . ... ... ... : ... .. . ... ... ... : ... .. . ... ... ... : ... .. . ... ... ...
ROW 48 : ... .. . ... ... ... : ... .. . ... ... ... : ... .. . ... ... ... : E-# 00 4 ... ... ... : ... .. . ... ... ... : G-0 09 . ... ... ... : F#0 09 . P80 ... ... : ... .. . ... ... ... : ... .. . ... ... ... : ... .. . ... ... ... : ... .. . ... ... ... : ... .. . ... ... ... : ... .. . ... ... ...
ROW 49 : ... .. . ... ... ... : ... .. . ... ... ... : ... .. . ... ... ... : D-# 00 2 ... ... ... : ... .. . ... ... ... : F#0 09 . P81 ... ... : E-0 09 . ... ... ... : ... .. . ... ... ... : ... .. . ... ... ... : ... .. . ... ... ... : ... .. . ... ... ... : ... .. . ... ... ... : ... .. . ... ... ...
ROW 4A : ... .. . ... ... ... : ... .. . ... ... ... : ... .. . ... ... ... : ... .. 1 ... ... ... : ... .. . ... ... ... : E-0 09 . ... ... ... : D#0 09 . ... ... ... : ... .. 1 ... ... ... : ... .. . ... ... ... : ... .. . ... ... ... : ... .. . ... ... ... : ... .. . ... ... ... : ... .. . ... ... ...
ROW 4B : ... .. . ... ... ... : ... .. . ... ... ... : ... .. . ... ... ... : ... .. . ... ... ... : ... .. . ... ... ... : D-0 09 . ... ... ... : D-0 09 . P81 ... ... : ... .. . ... ... ... : ... .. . ... ... ... : ... .. . ... ... ... : ... .. . ... ... ... : ... .. . ... ... ... : ... .. . ... ... ...
ROW 4C : ... .. . ... ... ... : ... .. . ... ... ... : ... .. . ... ... ... : --- .. . ... ... ... : ... .. . ... ... ... : C-0 09 . ... ... ... : C-0 09 . P82 ... ... : ... .. . ... ... ... : ... .. . ... ... ... : ... .. . ... ... ... : ... .. . ... ... ... : ... .. . ... ... ... : ... .. . ... ... ...
ROW 4D : ... .. . ... ... ... : ... .. . ... ... ... : ... .. . ... ... ... : ... .. . ... ... ... : ... .. . ... ... ... : ... .. . P83 ... ... : ... .. . P85 ... ... : ... .. . ... ... ... : ... .. . ... ... ... : ... .. . ... ... ... : ... .. . ... ... ... : ... .. . ... ... ... : ... .. . ... ... ...
ROW 4E : ... .. . ... ... ... : C-4 02 . P80 ... ... : C#4 00 . P7F ... ... : 9-# 00 F ... ... ... : C#1 12 . ... ... ... : G#1 04 . P80 ... ... : C-0 04 . P86 ... ... : G-1 04 9 ... ... ... : A-1 04 9 P82 ... ... : ... .. . ... ... ... : ... .. . ... ... ... : ... .. . ... ... ... : ... .. . ... ... ...
ROW 4F : ... .. . ... ... ... : F-3 02 . ... ... ... : F#3 00 . P83 ... ... : 2-# 00 7 ... ... ... : ... .. . ... ... ... : ... .. . ... ... ... : ... .. . P87 ... ... : ... .. . ... ... ... : ... .. . ... ... ... : ... .. . ... ... ... : ... .. . ... ... ... : ... .. . ... ... ... : ... .. . ... ... ...
ROW 50 : ... .. . ... ... ... : A#2 02 . P81 ... ... : C#3 00 . P89 ... ... : 6-# 00 C ... ... ... : ... .. . ... ... ... : ... .. . ... ... ... : --- .. . P7D ... ... : ... .. . ... ... ... : ... .. . ... ... ... : ... .. . ... ... ... : ... .. . ... ... ... : ... .. . ... ... ... : ... .. . ... ... ...
ROW 51 : ... .. . ... ... ... : D#2 02 . ... ... ... : A#2 00 . P75 ... ... : 7-# 00 8 ... ... ... : ... .. . ... ... ... : ... .. . ... ... ... : ... .. . P80 ... ... : ... .. . ... ... ... : ... .. . ... ... ... : ... .. . ... ... ... : ... .. . ... ... ... : ... .. . ... ... ... : ... .. . ... ... ...
ROW 52 : ... .. . ... ... ... : G#1 02 . ... ... ... : G-2 00 . P70 ... ... : 8-# 00 7 ... ... ... : ... .. . ... ... ... : ... .. . ... ... ... : D#7 04 . P81 ... ... : ... .. 8 ... ... ... : ... .. . ... ... ... : ... .. . ... ... ... : ... .. . ... ... ... : ... .. . ... ... ... : ... .. . ... ... ...
ROW 53 : ... .. . ... ... ... : C#1 02 . ... ... ... : E-2 00 . P7C ... ... : ... .. 6 ... ... ... : ... .. . ... ... ... : ... .. . ... ... ... : --- .. . ... ... ... : ... .. . ... ... ... : ... .. . ... ... ... : ... .. . ... ... ... : ... .. . ... ... ... : ... .. . ... ... ... : ... .. . ... ... ...
ROW 54 : ... .. . ... ... ... : ... .. . ... ... ... : --- .. . ... ... ... : ... .. . ... ... ... : ... .. . ... ... ... : G#2 04 . ... ... ... : D#7 04 . ... ... ... : G#2 04 . P82 ... ... : G#2 04 . P7F ... ... : ... .. . ... ... ... : ... .. . ... ... ... : ... .. . ... ... ... : ... .. . ... ... ...
ROW 55 : ... .. . ... ... ... : ... .. . ... ... ... : ... .. . ... ... ... : ... .. 5 ... ... ... : ... .. . ... ... ... : ... .. . ... ... ... : ... .. . P82 ... ... : ... .. . ... ... ... : ... .. . ... ... ... : ... .. . ... ... ... : ... .. . ... ... ... : ... .. . ... ... ... : ... .. . ... ... ...
ROW 56 : ... .. . ... ... ... : ... .. . ... ... ... : ... .. . ... ... ... : ... .. . ... ... ... : ... .. . ... ... ... : ... .. . ... ... ... : ... .. . ... ... ... : ... .. 7 ... ... ... : ... .. 8 ... ... ... : ... .. . ... ... ... : ... .. . ... ... ... : ... .. . ... ... ... : ... .. . ... ... ...
ROW 57 : ... .. . ... ... ... : ... .. . ... ... ... : ... .. . ... ... ... : ... .. 4 ... ... ... : ... .. . ... ... ... : ... .. . ... ... ... : ... .. . P81 ... ... : ... .. . ... ... ... : ... .. . ... ... ... : ... .. . ... ... ... : ... .. . ... ... ... : ... .. . ... ... ... : ... .. . ... ... ...
ROW 58 : ... .. . ... ... ... : ... .. . ... ... ... : ... .. . ... ... ... : ... .. . ... ... ... : ... .. . ... ... ... : ... .. . ... ... ... : ... .. . ... ... ... : ... .. . ... ... ... : ... .. . ... ... ... : ... .. . ... ... ... : ... .. . ... ... ... : ... .. . ... ... ... : ... .. . ... ... ...
ROW 59 : ... .. . ... ... ... : ... .. . ... ... ... : ... .. . ... ... ... : ... .. 3 ... ... ... : ... .. . ... ... ... : ... .. . ... ... ... : ... .. . P82 ... ... : ... .. . ... ... ... : ... .. . ... ... ... : ... .. . ... ... ... : ... .. . ... ... ... : ... .. . ... ... ... : ... .. . ... ... ...
ROW 5A : ... .. . ... ... ... : ... .. . ... ... ... : ... .. . ... ... ... : D-# 00 A ... ... ... : ... .. . ... ... ... : G#1 04 . ... ... ... : --- .. . ... ... ... : G-1 04 6 P80 ... ... : A-1 04 . P82 ... ... : ... .. . ... ... ... : ... .. . ... ... ... : ... .. . ... ... ... : ... .. . ... ... ...
ROW 5B : ... .. . ... ... ... : ... .. . ... ... ... : ... .. . ... ... ... : E-# 00 4 ... ... ... : ... .. . ... ... ... : ... .. . ... ... ... : ... .. . P80 ... ... : ... .. . ... ... ... : ... .. . ... ... ... : ... .. . ... ... ... : ... .. . ... ... ... : ... .. . ... ... ... : ... .. . ... ... ...
ROW 5C : ... .. . ... ... ... : ... .. . ... ... ... : ... .. . ... ... ... : D-# 00 2 ... ... ... : ... .. . ... ... ... : ... .. . ... ... ... : ... .. . ... ... ... : ... .. . ... ... ... : ... .. . ... ... ... : ... .. . ... ... ... : ... .. . ... ... ... : ... .. . ... ... ... : ... .. . ... ... ...
ROW 5D : ... .. . ... ... ... : ... .. . ... ... ... : ... .. . ... ... ... : ... .. 1 ... ... ... : ... .. . ... ... ... : ... .. . ... ... ... : ... .. . ... ... ... : ... .. . ... ... ... : ... .. . ... ... ... : ... .. . ... ... ... : ... .. . ... ... ... : ... .. . ... ... ... : ... .. . ... ... ...
ROW 5E : ... .. . ... ... ... : ... .. . ... ... ... : ... .. . ... ... ... : ... .. . ... ... ... : ... .. . ... ... ... : ... .. . ... ... ... : ... .. . ... ... ... : ... .. 5 ... ... ... : ... .. 7 ... ... ... : ... .. . ... ... ... : ... .. . ... ... ... : ... .. . ... ... ... : ... .. . ... ... ...
ROW 5F : ... .. . ... ... ... : ... .. . ... ... ... : ... .. . ... ... ... : --- .. . ... ... ... : ... .. . ... ... ... : ... .. . ... ... ... : ... .. . ... ... ... : ... .. . ... ... ... : ... .. . ... ... ... : ... .. . ... ... ... : ... .. . ... ... ... : ... .. . ... ... ... : ... .. . ... ... ...
ROW 60 : ... .. . ... ... ... : ... .. . ... ... ... : ... .. . ... ... ... : D-# 00 A ... ... ... : ... .. . ... ... ... : G#2 04 . ... ... ... : ... .. . ... ... ... : G#2 04 . P82 ... ... : G#2 04 . P7F ... ... : ... .. . ... ... ... : ... .. . ... ... ... : ... .. . ... ... ... : ... .. . ... ... ...
ROW 61 : ... .. . ... ... ... : ... .. . ... ... ... : ... .. . ... ... ... : E-# 00 4 ... ... ... : ... .. . ... ... ... : ... .. . ... ... ... : ... .. . ... ... ... : ... .. . ... ... ... : ... .. . ... ... ... : ... .. . ... ... ... : ... .. . ... ... ... : ... .. . ... ... ... : ... .. . ... ... ...
ROW 62 : ... .. . ... ... ... : ... .. . ... ... ... : ... .. . ... ... ... : D-# 00 2 ... ... ... : ... .. . ... ... ... : ... .. . ... ... ... : ... .. . ... ... ... : ... .. 4 ... ... ... : ... .. . ... ... ... : ... .. . ... ... ... : ... .. . ... ... ... : ... .. . ... ... ... : ... .. . ... ... ...
ROW 63 : ... .. . ... ... ... : ... .. . ... ... ... : ... .. . ... ... ... : ... .. 1 ... ... ... : ... .. . ... ... ... : ... .. . ... ... ... : ... .. . ... ... ... : ... .. . ... ... ... : ... .. . ... ... ... : ... .. . ... ... ... : ... .. . ... ... ... : ... .. . ... ... ... : ... .. . ... ... ...
ROW 64 : ... .. . ... ... ... : ... .. . ... ... ... : ... .. . ... ... ... : ... .. . ... ... ... : ... .. . ... ... ... : ... .. . ... ... ... : ... .. . ... ... ... : ... .. . ... ... ... : ... .. . ... ... ... : ... .. . ... ... ... : ... .. . ... ... ... : ... .. . ... ... ... : ... .. . ... ... ...
ROW 65 : ... .. . ... ... ... : ... .. . ... ... ... : ... .. . ... ... ... : --- .. . ... ... ... : ... .. . ... ... ... : ... .. . ... ... ... : ... .. . ... ... ... : ... .. . ... ... ... : ... .. . ... ... ... : ... .. . ... ... ... : ... .. . ... ... ... : ... .. . ... ... ... : ... .. . ... ... ...
ROW 66 : ... .. . ... ... ... : ... .. . ... ... ... : ... .. . ... ... ... : ... .. . ... ... ... : ... .. . ... ... ... : ... .. . ... ... ... : ... .. . ... ... ... : ... .. 3 ... ... ... : ... .. 6 ... ... ... : ... .. . ... ... ... : ... .. . ... ... ... : ... .. . ... ... ... : ... .. . ... ... ...
ROW 67 : ... .. . ... ... ... : C-4 02 . P80 ... ... : F#3 00 . P78 ... ... : 1-# 00 F ... ... ... : C-1 12 . ... ... ... : B-4 0C 7 P7C ... ... : ... .. . ... ... ... : --- .. . ... ... ... : A#3 0C 1 P85 ... ... : ... .. . ... ... ... : ... .. . ... ... ... : ... .. . ... ... ... : ... .. . ... ... ...
ROW 68 : ... .. . ... ... ... : F-3 02 . ... ... ... : C#3 00 . P7E ... ... : 2-# 00 7 ... ... ... : ... .. . ... ... ... : A#4 0C . P79 ... ... : ... .. . ... ... ... : ... .. . P80 ... ... : G-3 0C . ... ... ... : ... .. . ... ... ... : ... .. . ... ... ... : ... .. . ... ... ... : ... .. . ... ... ...
ROW 69 : ... .. . ... ... ... : A#2 02 . P81 ... ... : A-2 00 . P86 ... ... : 1-# 00 4 ... ... ... : ... .. . ... ... ... : A-4 0C . P78 ... ... : ... .. . ... ... ... : ... .. . ... ... ... : D#3 0C . P82 ... ... : ... .. . ... ... ... : ... .. . ... ... ... : ... .. . ... ... ... : ... .. . ... ... ...
ROW 6A : ... .. . ... ... ... : D#2 02 . ... ... ... : --- .. . ... ... ... : ... .. 2 ... ... ... : ... .. . ... ... ... : G#4 0C . ... ... ... : ... .. . ... ... ... : ... .. . ... ... ... : A#2 0C . P7F ... ... : ... .. . ... ... ... : ... .. . ... ... ... : ... .. . ... ... ... : ... .. . ... ... ...
ROW 6B : ... .. . ... ... ... : G#1 02 . ... ... ... : ... .. . ... ... ... : ... .. 1 ... ... ... : ... .. . ... ... ... : G-4 0C . ... ... ... : ... .. . ... ... ... : ... .. . ... ... ... : E-2 0C . P81 ... ... : ... .. . ... ... ... : ... .. . ... ... ... : ... .. . ... ... ... : ... .. . ... ... ...
ROW 6C : ... .. . ... ... ... : C#1 02 . ... ... ... : ... .. . ... ... ... : --- .. . ... ... ... : ... .. . ... ... ... : --- .. . ... ... ... : ... .. . ... ... ... : ... .. . ... ... ... : --- .. . ... ... ... : ... .. . ... ... ... : ... .. . ... ... ... : ... .. . ... ... ... : ... .. . ... ... ...
ROW 6D : ... .. . ... ... ... : ... .. . ... ... ... : ... .. . ... ... ... : ... .. . ... ... ... : ... .. . ... ... ... : B-4 0C . P7C ... ... : ... .. . ... ... ... : ... .. . ... ... ... : A#3 0C . P85 ... ... : ... .. . ... ... ... : ... .. . ... ... ... : ... .. . ... ... ... : ... .. . ... ... ...
ROW 6E : ... .. . ... ... ... : ... .. . ... ... ... : ... .. . ... ... ... : ... .. . ... ... ... : ... .. . ... ... ... : A#4 0C . P79 ... ... : ... .. . ... ... ... : ... .. . ... ... ... : G-3 0C . ... ... ... : ... .. . ... ... ... : ... .. . ... ... ... : ... .. . ... ... ... : ... .. . ... ... ...
ROW 6F : ... .. . ... ... ... : ... .. . ... ... ... : ... .. . ... ... ... : ... .. . ... ... ... : ... .. . ... ... ... : A-4 0C . P78 ... ... : ... .. . ... ... ... : ... .. . ... ... ... : --- .. . ... ... ... : ... .. . ... ... ... : ... .. . ... ... ... : ... .. . ... ... ... : ... .. . ... ... ...
ROW 70 : ... .. . ... ... ... : ... .. . ... ... ... : ... .. . ... ... ... : ... .. . ... ... ... : ... .. . ... ... ... : G#4 0C . ... ... ... : ... .. . ... ... ... : ... .. . ... ... ... : ... .. . P80 ... ... : ... .. . ... ... ... : ... .. . ... ... ... : ... .. . ... ... ... : ... .. . ... ... ...
ROW 71 : ... .. . ... ... ... : ... .. . ... ... ... : ... .. . ... ... ... : ... .. . ... ... ... : ... .. . ... ... ... : G-4 0C . ... ... ... : ... .. . ... ... ... : ... .. . ... ... ... : ... .. . ... ... ... : ... .. . ... ... ... : ... .. . ... ... ... : ... .. . ... ... ... : ... .. . ... ... ...
ROW 72 : ... .. . ... ... ... : ... .. . ... ... ... : ... .. . ... ... ... : ... .. . ... ... ... : ... .. . ... ... ... : --- .. . ... ... ... : ... .. . ... ... ... : ... .. . ... ... ... : ... .. . ... ... ... : ... .. . ... ... ... : ... .. . ... ... ... : ... .. . ... ... ... : ... .. . ... ... ...
ROW 73 : ... .. . ... ... ... : ... .. . ... ... ... : ... .. . ... ... ... : D-# 00 A ... ... ... : ... .. . ... ... ... : B-2 05 A P80 ... ... : A#2 05 A P7F ... ... : B-2 05 9 P7E ... ... : G#2 05 9 P81 ... ... : ... .. . ... ... ... : ... .. . ... ... ... : ... .. . ... ... ... : ... .. . ... ... ...
ROW 74 : ... .. . ... ... ... : ... .. . ... ... ... : ... .. . ... ... ... : E-# 00 4 ... ... ... : ... .. . ... ... ... : ... .. . ... ... ... : ... .. . P7E ... ... : ... .. . ... ... ... : ... .. . ... ... ... : ... .. . ... ... ... : ... .. . ... ... ... : ... .. . ... ... ... : ... .. . ... ... ...
ROW 75 : ... .. . ... ... ... : ... .. . ... ... ... : ... .. . ... ... ... : D-# 00 2 ... ... ... : ... .. . ... ... ... : ... .. . ... ... ... : B-2 05 . P82 ... ... : ... .. . ... ... ... : ... .. . ... ... ... : ... .. . ... ... ... : ... .. . ... ... ... : ... .. . ... ... ... : ... .. . ... ... ...
ROW 76 : ... .. . ... ... ... : ... .. . ... ... ... : ... .. . ... ... ... : ... .. 1 ... ... ... : ... .. . ... ... ... : ... .. . ... ... ... : ... .. . P83 ... ... : ... .. . ... ... ... : ... .. . ... ... ... : ... .. . ... ... ... : ... .. . ... ... ... : ... .. . ... ... ... : ... .. . ... ... ...
ROW 77 : ... .. . ... ... ... : ... .. . ... ... ... : ... .. . ... ... ... : ... .. . ... ... ... : ... .. . ... ... ... : --- .. . ... ... ... : --- .. . ... ... ... : --- .. . ... ... ... : --- .. . ... ... ... : ... .. . ... ... ... : ... .. . ... ... ... : ... .. . ... ... ... : ... .. . ... ... ...
ROW 78 : ... .. . ... ... ... : ... .. . ... ... ... : ... .. . ... ... ... : --- .. . ... ... ... : ... .. . ... ... ... : ... .. . ... ... ... : ... .. . P80 ... ... : ... .. . P80 ... ... : ... .. . P80 ... ... : ... .. . ... ... ... : ... .. . ... ... ... : ... .. . ... ... ... : ... .. . ... ... ...
ROW 79 : ... .. . ... ... ... : ... .. . ... ... ... : ... .. . ... ... ... : D-# 00 A ... ... ... : ... .. . ... ... ... : B-2 05 4 ... ... ... : B-2 05 4 P83 ... ... : B-2 05 3 P7E ... ... : G#2 05 3 P81 ... ... : ... .. . ... ... ... : ... .. . ... ... ... : ... .. . ... ... ... : ... .. . ... ... ...
ROW 7A : ... .. . ... ... ... : ... .. . ... ... ... : ... .. . ... ... ... : E-# 00 4 ... ... ... : ... .. . ... ... ... : ... .. . ... ... ... : ... .. . P82 ... ... : ... .. . ... ... ... : ... .. . ... ... ... : ... .. . ... ... ... : ... .. . ... ... ... : ... .. . ... ... ... : ... .. . ... ... ...
ROW 7B : ... .. . ... ... ... : ... .. . ... ... ... : ... .. . ... ... ... : D-# 00 2 ... ... ... : ... .. . ... ... ... : ... .. . ... ... ... : A#2 05 . P7E ... ... : ... .. . ... ... ... : ... .. . ... ... ... : ... .. . ... ... ... : ... .. . ... ... ... : ... .. . ... ... ... : ... .. . ... ... ...
ROW 7C : ... .. . ... ... ... : ... .. . ... ... ... : ... .. . ... ... ... : ... .. 1 ... ... ... : ... .. . ... ... ... : ... .. . ... ... ... : ... .. . P7F ... ... : ... .. . ... ... ... : ... .. . ... ... ... : ... .. . ... ... ... : ... .. . ... ... ... : ... .. . ... ... ... : ... .. . ... ... ...
ROW 7D : ... .. . ... ... ... : ... .. . ... ... ... : ... .. . ... ... ... : ... .. . ... ... ... : ... .. . ... ... ... : ... .. . ... ... ... : ... .. . P7E ... ... : ... .. 2 ... ... ... : ... .. . ... ... ... : ... .. . ... ... ... : ... .. . ... ... ... : ... .. . ... ... ... : ... .. . ... ... ...
ROW 7E : ... .. . ... ... ... : ... .. . ... ... ... : ... .. . ... ... ... : --- .. . ... ... ... : ... .. . ... ... ... : --- .. . ... ... ... : --- .. . ... ... ... : --- .. . ... ... ... : --- .. . ... ... ... : ... .. . ... ... ... : ... .. . ... ... ... : ... .. . ... ... ... : ... .. . ... ... ...
ROW 7F : ... .. . ... ... ... : ... .. . ... ... ... : ... .. . ... ... ... : ... .. . ... ... ... : ... .. . ... ... ... : ... .. . ... ... ... : ... .. . P80 ... ... : ... .. . P80 ... ... : ... .. . P80 ... ... : ... .. . ... ... ... : ... .. . ... ... ... : ... .. . ... ... ... : ... .. . ... ... ...
ROW 80 : ... .. . ... ... ... : C-4 02 . P80 ... ... : C#4 00 . P7F ... ... : 9-# 00 F ... ... ... : C#1 12 . ... ... ... : C#3 05 A ... ... ... : C-3 05 A P7E ... ... : C#3 05 9 P7E ... ... : B-2 05 9 P81 ... ... : ... .. . ... ... ... : ... .. . ... ... ... : ... .. . ... ... ... : ... .. . ... ... ...
ROW 81 : ... .. . ... ... ... : F-3 02 . ... ... ... : F#3 00 . P83 ... ... : 2-# 00 7 ... ... ... : ... .. . ... ... ... : ... .. . ... ... ... : C#3 05 . P83 ... ... : ... .. . ... ... ... : ... .. . ... ... ... : ... .. . ... ... ... : ... .. . ... ... ... : ... .. . ... ... ... : ... .. . ... ... ...
ROW 82 : ... .. . ... ... ... : A#2 02 . P81 ... ... : C#3 00 . P89 ... ... : 6-# 00 C ... ... ... : ... .. . ... ... ... : ... .. . ... ... ... : ... .. . P82 ... ... : ... .. . ... ... ... : ... .. . ... ... ... : ... .. . ... ... ... : ... .. . ... ... ... : ... .. . ... ... ... : ... .. . ... ... ...
ROW 83 : ... .. . ... ... ... : D#2 02 . ... ... ... : A#2 00 . P75 ... ... : 7-# 00 8 ... ... ... : ... .. . ... ... ... : ... .. . ... ... ... : ... .. . P83 ... ... : ... .. . ... ... ... : ... .. . ... ... ... : ... .. . ... ... ... : ... .. . ... ... ... : ... .. . ... ... ... : ... .. . ... ... ...
ROW 84 : ... .. . ... ... ... : G#1 02 . ... ... ... : G-2 00 . P70 ... ... : 8-# 00 7 ... ... ... : ... .. . ... ... ... : --- .. . ... ... ... : --- .. . ... ... ... : --- .. . ... ... ... : --- .. . ... ... ... : ... .. . ... ... ... : ... .. . ... ... ... : ... .. . ... ... ... : ... .. . ... ... ...
ROW 85 : ... .. . ... ... ... : C#1 02 . ... ... ... : E-2 00 . P7C ... ... : ... .. 6 ... ... ... : ... .. . ... ... ... : ... .. . ... ... ... : ... .. . P80 ... ... : ... .. . P80 ... ... : ... .. . P80 ... ... : ... .. . ... ... ... : ... .. . ... ... ... : ... .. . ... ... ... : ... .. . ... ... ...
ROW 86 : ... .. . ... ... ... : ... .. . ... ... ... : --- .. . ... ... ... : ... .. . ... ... ... : ... .. . ... ... ... : C#3 05 4 ... ... ... : C#3 05 4 P83 ... ... : C#3 05 3 P7E ... ... : B-2 05 3 P81 ... ... : ... .. . ... ... ... : ... .. . ... ... ... : ... .. . ... ... ... : ... .. . ... ... ...
ROW 87 : ... .. . ... ... ... : ... .. . ... ... ... : ... .. . ... ... ... : ... .. 5 ... ... ... : ... .. . ... ... ... : ... .. . ... ... ... : ... .. . ... ... ... : ... .. . ... ... ... : ... .. . ... ... ... : ... .. . ... ... ... : ... .. . ... ... ... : ... .. . ... ... ... : ... .. . ... ... ...
ROW 88 : ... .. . ... ... ... : ... .. . ... ... ... : ... .. . ... ... ... : ... .. . ... ... ... : ... .. . ... ... ... : ... .. . ... ... ... : C-3 05 . P7E ... ... : ... .. . ... ... ... : ... .. . ... ... ... : ... .. . ... ... ... : ... .. . ... ... ... : ... .. . ... ... ... : ... .. . ... ... ...
ROW 89 : ... .. . ... ... ... : ... .. . ... ... ... : ... .. . ... ... ... : ... .. 4 ... ... ... : ... .. . ... ... ... : ... .. . ... ... ... : ... .. . ... ... ... : ... .. . ... ... ... : ... .. . ... ... ... : ... .. . ... ... ... : ... .. . ... ... ... : ... .. . ... ... ... : ... .. . ... ... ...
ROW 8A : ... .. . ... ... ... : ... .. . ... ... ... : ... .. . ... ... ... : ... .. . ... ... ... : ... .. . ... ... ... : --- .. . ... ... ... : --- .. . ... ... ... : --- .. . ... ... ... : --- .. . ... ... ... : ... .. . ... ... ... : ... .. . ... ... ... : ... .. . ... ... ... : ... .. . ... ... ...
ROW 8B : ... .. . ... ... ... : ... .. . ... ... ... : ... .. . ... ... ... : ... .. 3 ... ... ... : ... .. . ... ... ... : ... .. . ... ... ... : ... .. . P80 ... ... : ... .. . P80 ... ... : ... .. . P80 ... ... : ... .. . ... ... ... : ... .. . ... ... ... : ... .. . ... ... ... : ... .. . ... ... ...
ROW 8C : ... .. . ... ... ... : ... .. . ... ... ... : ... .. . ... ... ... : D-# 00 A ... ... ... : ... .. . ... ... ... : G#3 05 A ... ... ... : G#3 05 A P83 ... ... : G#3 05 9 P7E ... ... : D#3 05 9 P81 ... ... : ... .. . ... ... ... : ... .. . ... ... ... : ... .. . ... ... ... : ... .. . ... ... ...
ROW 8D : ... .. . ... ... ... : ... .. . ... ... ... : ... .. . ... ... ... : E-# 00 4 ... ... ... : ... .. . ... ... ... : ... .. . ... ... ... : ... .. . P84 ... ... : ... .. . ... ... ... : ... .. . ... ... ... : ... .. . ... ... ... : ... .. . ... ... ... : ... .. . ... ... ... : ... .. . ... ... ...
ROW 8E : ... .. . ... ... ... : ... .. . ... ... ... : ... .. . ... ... ... : D-# 00 2 ... ... ... : ... .. . ... ... ... : ... .. . ... ... ... : ... .. . P83 ... ... : ... .. . ... ... ... : ... .. . ... ... ... : ... .. . ... ... ... : ... .. . ... ... ... : ... .. . ... ... ... : ... .. . ... ... ...
ROW 8F : ... .. . ... ... ... : ... .. . ... ... ... : ... .. . ... ... ... : ... .. 1 ... ... ... : ... .. . ... ... ... : ... .. . ... ... ... : ... .. . P82 ... ... : ... .. . ... ... ... : ... .. . ... ... ... : ... .. . ... ... ... : ... .. . ... ... ... : ... .. . ... ... ... : ... .. . ... ... ...
ROW 90 : ... .. . ... ... ... : ... .. . ... ... ... : ... .. . ... ... ... : ... .. . ... ... ... : ... .. . ... ... ... : --- .. . ... ... ... : --- .. . ... ... ... : --- .. . ... ... ... : --- .. . ... ... ... : ... .. . ... ... ... : ... .. . ... ... ... : ... .. . ... ... ... : ... .. . ... ... ...
ROW 91 : ... .. . ... ... ... : ... .. . ... ... ... : ... .. . ... ... ... : --- .. . ... ... ... : ... .. . ... ... ... : ... .. . ... ... ... : ... .. . P80 ... ... : ... .. . P80 ... ... : ... .. . P80 ... ... : ... .. . ... ... ... : ... .. . ... ... ... : ... .. . ... ... ... : ... .. . ... ... ...
ROW 92 : ... .. . ... ... ... : ... .. . ... ... ... : ... .. . ... ... ... : D-# 00 A ... ... ... : ... .. . ... ... ... : G#3 05 4 ... ... ... : G#3 05 . P83 ... ... : G#3 05 . P7E ... ... : D#3 05 . P81 ... ... : ... .. . ... ... ... : ... .. . ... ... ... : ... .. . ... ... ... : ... .. . ... ... ...
ROW 93 : ... .. . ... ... ... : ... .. . ... ... ... : ... .. . ... ... ... : E-# 00 4 ... ... ... : ... .. . ... ... ... : ... .. . ... ... ... : ... .. . P82 ... ... : ... .. . ... ... ... : ... .. . ... ... ... : ... .. . ... ... ... : ... .. . ... ... ... : ... .. . ... ... ... : ... .. . ... ... ...
ROW 94 : ... .. . ... ... ... : ... .. . ... ... ... : ... .. . ... ... ... : D-# 00 2 ... ... ... : ... .. . ... ... ... : ... .. . ... ... ... : ... .. . P83 ... ... : ... .. . ... ... ... : ... .. . ... ... ... : ... .. . ... ... ... : ... .. . ... ... ... : ... .. . ... ... ... : ... .. . ... ... ...
ROW 95 : ... .. . ... ... ... : ... .. . ... ... ... : ... .. . ... ... ... : ... .. 1 ... ... ... : ... .. . ... ... ... : ... .. . ... ... ... : ... .. . P84 ... ... : ... .. . ... ... ... : ... .. . ... ... ... : ... .. . ... ... ... : ... .. . ... ... ... : ... .. . ... ... ... : ... .. . ... ... ...
ROW 96 : ... .. . ... ... ... : ... .. . ... ... ... : ... .. . ... ... ... : ... .. . ... ... ... : ... .. . ... ... ... : ... .. . ... ... ... : ... .. . ... ... ... : ... .. 8 ... ... ... : ... .. . ... ... ... : ... .. . ... ... ... : ... .. . ... ... ... : ... .. . ... ... ... : ... .. . ... ... ...
ROW 97 : ... .. . ... ... ... : ... .. . ... ... ... : ... .. . ... ... ... : --- .. . ... ... ... : ... .. . ... ... ... : --- .. . ... ... ... : --- .. . ... ... ... : --- .. . ... ... ... : --- .. . ... ... ... : ... .. . ... ... ... : ... .. . ... ... ... : ... .. . ... ... ... : ... .. . ... ... ...
ROW 98 : ... .. . ... ... ... : ... .. . ... ... ... : ... .. . ... ... ... : ... .. . ... ... ... : ... .. . ... ... ... : ... .. . ... ... ... : ... .. . P80 ... ... : ... .. . P80 ... ... : ... .. . P80 ... ... : ... .. . ... ... ... : ... .. . ... ... ... : ... .. . ... ... ... : ... .. . ... ... ...
ROW 99 : ... .. . ... ... ... : C-4 02 . P80 ... ... : F#3 00 . P78 ... ... : 1-# 00 F ... ... ... : C-1 12 . ... ... ... : G#1 06 F ... ... ... : G-1 06 F ... ... ... : ... .. . ... ... ... : G#1 06 E P7F ... ... : G#2 06 B P81 ... ... : ... .. . ... ... ... : ... .. . ... ... ... : ... .. . ... ... ...
ROW 9A : ... .. . ... ... ... : F-3 02 . ... ... ... : C#3 00 . P7E ... ... : 2-# 00 7 ... ... ... : ... .. . ... ... ... : ... .. . ... ... ... : ... .. . ... ... ... : ... .. . ... ... ... : ... .. . ... ... ... : ... .. . ... ... ... : ... .. . ... ... ... : ... .. . ... ... ... : ... .. . ... ... ...
ROW 9B : ... .. . ... ... ... : A#2 02 . P81 ... ... : A-2 00 . P86 ... ... : 1-# 00 4 ... ... ... : ... .. . ... ... ... : ... .. . ... ... ... : G#1 06 . P81 ... ... : ... .. . ... ... ... : ... .. . ... ... ... : ... .. . ... ... ... : ... .. . ... ... ... : ... .. . ... ... ... : ... .. . ... ... ...
ROW 9C : ... .. . ... ... ... : D#2 02 . ... ... ... : --- .. . ... ... ... : ... .. 2 ... ... ... : ... .. . ... ... ... : G#1 07 . ... ... ... : G#1 07 . P80 ... ... : ... .. . ... ... ... : G#1 07 . ... ... ... : G#2 07 . ... ... ... : ... .. . ... ... ... : ... .. . ... ... ... : ... .. . ... ... ...
ROW 9D : ... .. . ... ... ... : G#1 02 . ... ... ... : ... .. . ... ... ... : ... .. 1 ... ... ... : ... .. . ... ... ... : ... .. . ... ... ... : ... .. . P81 ... ... : ... .. . ... ... ... : ... .. . ... ... ... : ... .. A ... ... ... : ... .. . ... ... ... : ... .. . ... ... ... : ... .. . ... ... ...
ROW 9E : ... .. . ... ... ... : C#1 02 . ... ... ... : ... .. . ... ... ... : --- .. . ... ... ... : ... .. . ... ... ... : ... .. . ... ... ... : G-1 07 . P80 ... ... : ... .. . ... ... ... : ... .. . ... ... ... : ... .. . ... ... ... : ... .. . ... ... ... : ... .. . ... ... ... : ... .. . ... ... ...
ROW 9F : ... .. . ... ... ... : ... .. . ... ... ... : ... .. . ... ... ... : ... .. . ... ... ... : ... .. . ... ... ... : G#1 08 . ... ... ... : G#1 08 . P81 ... ... : ... .. . ... ... ... : G#1 08 . ... ... ... : G#2 08 . ... ... ... : ... .. . ... ... ... : ... .. . ... ... ... : ... .. . ... ... ...
ROW A0 : ... .. . ... ... ... : ... .. . ... ... ... : ... .. . ... ... ... : ... .. . ... ... ... : ... .. . ... ... ... : ... .. . ... ... ... : ... .. . P80 ... ... : ... .. . ... ... ... : ... .. . ... ... ... : ... .. . ... ... ... : ... .. . ... ... ... : ... .. . ... ... ... : ... .. . ... ... ...
ROW A1 : ... .. . ... ... ... : ... .. . ... ... ... : ... .. . ... ... ... : ... .. . ... ... ... : ... .. . ... ... ... : ... .. . ... ... ... : ... .. . P81 ... ... : ... .. . ... ... ... : ... .. D ... ... ... : ... .. 9 ... ... ... : ... .. . ... ... ... : ... .. . ... ... ... : ... .. . ... ... ...
ROW A2 : ... .. . ... ... ... : ... .. . ... ... ... : ... .. . ... ... ... : ... .. . ... ... ... : ... .. . ... ... ... : G#1 09 . ... ... ... : G-1 09 . P80 ... ... : ... .. . ... ... ... : G#1 09 . ... ... ... : G#2 09 . ... ... ... : ... .. . ... ... ... : ... .. . ... ... ... : ... .. . ... ... ...
ROW A3 : ... .. . ... ... ... : ... .. . ... ... ... : ... .. . ... ... ... : ... .. . ... ... ... : ... .. . ... ... ... : ... .. . ... ... ... : G#1 09 . P81 ... ... : ... .. . ... ... ... : ... .. . ... ... ... : ... .. . ... ... ... : ... .. . ... ... ... : ... .. . ... ... ... : ... .. . ... ... ...
ROW A4 : ... .. . ... ... ... : ... .. . ... ... ... : ... .. . ... ... ... : ... .. . ... ... ... : ... .. . ... ... ... : ... .. . ... ... ... : ... .. . P80 ... ... : ... .. . ... ... ... : ... .. . ... ... ... : ... .. . ... ... ... : ... .. . ... ... ... : ... .. . ... ... ... : ... .. . ... ... ...
ROW A5 : ... .. . ... ... ... : ... .. . ... ... ... : ... .. . ... ... ... : D-# 00 A ... ... ... : ... .. . ... ... ... : ... .. . ... ... ... : ... .. . P81 ... ... : ... .. . ... ... ... : ... .. . ... ... ... : ... .. 8 ... ... ... : ... .. . ... ... ... : ... .. . ... ... ... : ... .. . ... ... ...
ROW A6 : ... .. . ... ... ... : ... .. . ... ... ... : ... .. . ... ... ... : E-# 00 4 ... ... ... : ... .. . ... ... ... : ... .. . ... ... ... : G-1 09 . P80 ... ... : ... .. . ... ... ... : ... .. . ... ... ... : ... .. . ... ... ... : ... .. . ... ... ... : ... .. . ... ... ... : ... .. . ... ... ...
ROW A7 : ... .. . ... ... ... : ... .. . ... ... ... : ... .. . ... ... ... : D-# 00 2 ... ... ... : ... .. . ... ... ... : ... .. . ... ... ... : ... .. . ... ... ... : ... .. . ... ... ... : ... .. . ... ... ... : ... .. . ... ... ... : ... .. . ... ... ... : ... .. . ... ... ... : ... .. . ... ... ...
ROW A8 : ... .. . ... ... ... : ... .. . ... ... ... : ... .. . ... ... ... : ... .. 1 ... ... ... : ... .. . ... ... ... : G#1 08 . ... ... ... : G#1 08 . P81 ... ... : ... .. . ... ... ... : G#1 08 . ... ... ... : G#2 08 . ... ... ... : ... .. . ... ... ... : ... .. . ... ... ... : ... .. . ... ... ...
ROW A9 : ... .. . ... ... ... : ... .. . ... ... ... : ... .. . ... ... ... : ... .. . ... ... ... : ... .. . ... ... ... : ... .. . ... ... ... : ... .. . ... ... ... : ... .. . ... ... ... : ... .. C ... ... ... : ... .. 7 ... ... ... : ... .. . ... ... ... : ... .. . ... ... ... : ... .. . ... ... ...
ROW AA : ... .. . ... ... ... : ... .. . ... ... ... : ... .. . ... ... ... : --- .. . ... ... ... : ... .. . ... ... ... : ... .. . ... ... ... : G-1 08 . P80 ... ... : ... .. . ... ... ... : ... .. . ... ... ... : ... .. . ... ... ... : ... .. . ... ... ... : ... .. . ... ... ... : ... .. . ... ... ...
ROW AB : ... .. . ... ... ... : ... .. . ... ... ... : ... .. . ... ... ... : D-# 00 A ... ... ... : ... .. . ... ... ... : G#1 07 . ... ... ... : G-1 07 . ... ... ... : ... .. . ... ... ... : G#1 07 . ... ... ... : G#2 07 . ... ... ... : ... .. . ... ... ... : ... .. . ... ... ... : ... .. . ... ... ...
ROW AC : ... .. . ... ... ... : ... .. . ... ... ... : ... .. . ... ... ... : E-# 00 4 ... ... ... : ... .. . ... ... ... : ... .. . ... ... ... : G#1 07 . P81 ... ... : ... .. . ... ... ... : ... .. . ... ... ... : ... .. . ... ... ... : ... .. . ... ... ... : ... .. . ... ... ... : ... .. . ... ... ...
ROW AD : ... .. . ... ... ... : ... .. . ... ... ... : ... .. . ... ... ... : D-# 00 2 ... ... ... : ... .. . ... ... ... : ... .. . ... ... ... : ... .. . P80 ... ... : ... .. . ... ... ... : ... .. . ... ... ... : ... .. 6 ... ... ... : ... .. . ... ... ... : ... .. . ... ... ... : ... .. . ... ... ...
ROW AE : ... .. . ... ... ... : ... .. . ... ... ... : ... .. . ... ... ... : ... .. 1 ... ... ... : ... .. . ... ... ... : G#1 06 . ... ... ... : G#1 06 . P81 ... ... : ... .. . ... ... ... : G#1 06 . ... ... ... : G#2 06 . ... ... ... : ... .. . ... ... ... : ... .. . ... ... ... : ... .. . ... ... ...
ROW AF : ... .. . ... ... ... : ... .. . ... ... ... : ... .. . ... ... ... : ... .. . ... ... ... : ... .. . ... ... ... : ... .. . ... ... ... : G-1 06 . P80 ... ... : ... .. . ... ... ... : ... .. . ... ... ... : ... .. . ... ... ... : ... .. . ... ... ... : ... .. . ... ... ... : ... .. . ... ... ...
ROW B0 : ... .. . ... ... ... : ... .. . ... ... ... : ... .. . ... ... ... : --- .. . ... ... ... : ... .. . ... ... ... : ... .. . ... ... ... : G#1 06 . P81 ... ... : ... .. . ... ... ... : ... .. . ... ... ... : ... .. . ... ... ... : ... .. . ... ... ... : ... .. . ... ... ... : ... .. . ... ... ...
ROW B1 : ... .. . ... ... ... : ... .. . ... ... ... : ... .. . ... ... ... : ... .. . ... ... ... : ... .. . ... ... ... : ... .. . ... ... ... : ... .. . P80 ... ... : ... .. . ... ... ... : ... .. B ... ... ... : ... .. 5 ... ... ... : ... .. . ... ... ... : ... .. . ... ... ... : ... .. . ... ... ...
ROW B2 : ... .. . ... ... ... : C-4 02 . P80 ... ... : C#4 00 . P7F ... ... : 9-# 00 F ... ... ... : C#1 12 . ... ... ... : D-2 06 . ... ... ... : D-2 06 . P81 ... ... : ... .. . ... ... ... : D-2 06 . ... ... ... : D-3 06 . ... ... ... : ... .. . ... ... ... : ... .. . ... ... ... : ... .. . ... ... ...
ROW B3 : ... .. . ... ... ... : F-3 02 . ... ... ... : F#3 00 . P83 ... ... : 2-# 00 7 ... ... ... : ... .. . ... ... ... : ... .. . ... ... ... : C#2 06 . P7F ... ... : ... .. . ... ... ... : ... .. . ... ... ... : ... .. . ... ... ... : ... .. . ... ... ... : ... .. . ... ... ... : ... .. . ... ... ...
ROW B4 : ... .. . ... ... ... : A#2 02 . P81 ... ... : C#3 00 . P89 ... ... : 6-# 00 C ... ... ... : ... .. . ... ... ... : ... .. . ... ... ... : D-2 06 . P81 ... ... : ... .. . ... ... ... : ... .. . ... ... ... : ... .. . ... ... ... : ... .. . ... ... ... : ... .. . ... ... ... : ... .. . ... ... ...
ROW B5 : ... .. . ... ... ... : D#2 02 . ... ... ... : A#2 00 . P75 ... ... : 7-# 00 8 ... ... ... : ... .. . ... ... ... : D-2 08 . ... ... ... : D-2 08 . P80 ... ... : ... .. . ... ... ... : D-2 08 . ... ... ... : D-3 08 4 ... ... ... : ... .. . ... ... ... : ... .. . ... ... ... : ... .. . ... ... ...
ROW B6 : ... .. . ... ... ... : G#1 02 . ... ... ... : G-2 00 . P70 ... ... : 8-# 00 7 ... ... ... : ... .. . ... ... ... : ... .. . ... ... ... : ... .. . P81 ... ... : ... .. . ... ... ... : ... .. . ... ... ... : ... .. . ... ... ... : ... .. . ... ... ... : ... .. . ... ... ... : ... .. . ... ... ...
ROW B7 : ... .. . ... ... ... : C#1 02 . ... ... ... : E-2 00 . P7C ... ... : ... .. 6 ... ... ... : ... .. . ... ... ... : ... .. . ... ... ... : ... .. . P82 ... ... : ... .. . ... ... ... : ... .. . ... ... ... : ... .. . ... ... ... : ... .. . ... ... ... : ... .. . ... ... ... : ... .. . ... ... ...
ROW B8 : ... .. . ... ... ... : ... .. . ... ... ... : --- .. . ... ... ... : ... .. . ... ... ... : ... .. . ... ... ... : D-2 09 . ... ... ... : D-2 09 . ... ... ... : ... .. . ... ... ... : D-2 09 . ... ... ... : D-3 09 . ... ... ... : ... .. . ... ... ... : ... .. . ... ... ... : ... .. . ... ... ...
ROW B9 : ... .. . ... ... ... : ... .. . ... ... ... : ... .. . ... ... ... : ... .. 5 ... ... ... : ... .. . ... ... ... : ... .. . ... ... ... : ... .. . P81 ... ... : ... .. . ... ... ... : ... .. A ... ... ... : ... .. 3 ... ... ... : ... .. . ... ... ... : ... .. . ... ... ... : ... .. . ... ... ...
ROW BA : ... .. . ... ... ... : ... .. . ... ... ... : ... .. . ... ... ... : ... .. . ... ... ... : ... .. . ... ... ... : ... .. . ... ... ... : ... .. . P80 ... ... : ... .. . ... ... ... : ... .. . ... ... ... : ... .. . ... ... ... : ... .. . ... ... ... : ... .. . ... ... ... : ... .. . ... ... ...
ROW BB : ... .. . ... ... ... : ... .. . ... ... ... : ... .. . ... ... ... : ... .. 4 ... ... ... : ... .. . ... ... ... : D-2 07 . ... ... ... : D-2 07 . P81 ... ... : ... .. . ... ... ... : D-2 07 . ... ... ... : D-3 07 . ... ... ... : ... .. . ... ... ... : ... .. . ... ... ... : ... .. . ... ... ...
ROW BC : ... .. . ... ... ... : ... .. . ... ... ... : ... .. . ... ... ... : ... .. . ... ... ... : ... .. . ... ... ... : ... .. . ... ... ... : C#2 07 . P7F ... ... : ... .. . ... ... ... : ... .. . ... ... ... : ... .. . ... ... ... : ... .. . ... ... ... : ... .. . ... ... ... : ... .. . ... ... ...
ROW BD : ... .. . ... ... ... : ... .. . ... ... ... : ... .. . ... ... ... : ... .. 3 ... ... ... : ... .. . ... ... ... : ... .. . ... ... ... : D-2 07 . P81 ... ... : ... .. . ... ... ... : ... .. . ... ... ... : ... .. 2 ... ... ... : ... .. . ... ... ... : ... .. . ... ... ... : ... .. . ... ... ...
ROW BE : ... .. . ... ... ... : ... .. . ... ... ... : ... .. . ... ... ... : D-# 00 A ... ... ... : ... .. . ... ... ... : D-2 06 . ... ... ... : D-2 06 . P80 ... ... : ... .. . ... ... ... : D-2 06 . ... ... ... : D-3 06 . ... ... ... : ... .. . ... ... ... : ... .. . ... ... ... : ... .. . ... ... ...
ROW BF : ... .. . ... ... ... : ... .. . ... ... ... : ... .. . ... ... ... : E-# 00 4 ... ... ... : ... .. . ... ... ... : ... .. . ... ... ... : ... .. . P81 ... ... : ... .. . ... ... ... : ... .. . ... ... ... : ... .. . ... ... ... : ... .. . ... ... ... : ... .. . ... ... ... : ... .. . ... ... ...
ROW C0 : ... .. . ... ... ... : ... .. . ... ... ... : ... .. . ... ... ... : D-# 00 2 ... ... ... : ... .. . ... ... ... : ... .. . ... ... ... : C#2 06 . P7F ... ... : ... .. . ... ... ... : ... .. . ... ... ... : ... .. . ... ... ... : ... .. . ... ... ... : ... .. . ... ... ... : ... .. . ... ... ...
ROW C1 : ... .. . ... ... ... : ... .. . ... ... ... : ... .. . ... ... ... : ... .. 1 ... ... ... : ... .. . ... ... ... : D-2 08 . ... ... ... : D-2 08 . P81 ... ... : ... .. . ... ... ... : D-2 08 9 ... ... ... : D-3 08 1 ... ... ... : ... .. . ... ... ... : ... .. . ... ... ... : ... .. . ... ... ...
ROW C2 : ... .. . ... ... ... : ... .. . ... ... ... : ... .. . ... ... ... : ... .. . ... ... ... : ... .. . ... ... ... : ... .. . ... ... ... : ... .. . P80 ... ... : ... .. . ... ... ... : ... .. . ... ... ... : ... .. . ... ... ... : ... .. . ... ... ... : ... .. . ... ... ... : ... .. . ... ... ...
ROW C3 : ... .. . ... ... ... : ... .. . ... ... ... : ... .. . ... ... ... : --- .. . ... ... ... : ... .. . ... ... ... : ... .. . ... ... ... : ... .. . P81 ... ... : ... .. . ... ... ... : ... .. . ... ... ... : ... .. . ... ... ... : ... .. . ... ... ... : ... .. . ... ... ... : ... .. . ... ... ...
ROW C4 : ... .. . ... ... ... : ... .. . ... ... ... : ... .. . ... ... ... : D-# 00 A ... ... ... : ... .. . ... ... ... : D-2 09 . ... ... ... : C#2 09 . P7F ... ... : ... .. . ... ... ... : D-2 09 . ... ... ... : D-3 09 . ... ... ... : ... .. . ... ... ... : ... .. . ... ... ... : ... .. . ... ... ...
ROW C5 : ... .. . ... ... ... : ... .. . ... ... ... : ... .. . ... ... ... : E-# 00 4 ... ... ... : ... .. . ... ... ... : ... .. . ... ... ... : D-2 09 . P82 ... ... : ... .. . ... ... ... : ... .. . ... ... ... : --- .. . ... ... ... : ... .. . ... ... ... : ... .. . ... ... ... : ... .. . ... ... ...
ROW C6 : ... .. . ... ... ... : ... .. . ... ... ... : ... .. . ... ... ... : D-# 00 2 ... ... ... : ... .. . ... ... ... : ... .. . ... ... ... : ... .. . P81 ... ... : ... .. . ... ... ... : ... .. . ... ... ... : ... .. . P80 ... ... : ... .. . ... ... ... : ... .. . ... ... ... : ... .. . ... ... ...
ROW C7 : ... .. . ... ... ... : ... .. . ... ... ... : ... .. . ... ... ... : ... .. 1 ... ... ... : ... .. . ... ... ... : D-2 07 . ... ... ... : D-2 07 . ... ... ... : ... .. . ... ... ... : D-2 07 . ... ... ... : ... .. . ... ... ... : ... .. . ... ... ... : ... .. . ... ... ... : ... .. . ... ... ...
ROW C8 : ... .. . ... ... ... : ... .. . ... ... ... : ... .. . ... ... ... : ... .. . ... ... ... : ... .. . ... ... ... : ... .. . ... ... ... : ... .. . P82 ... ... : ... .. . ... ... ... : ... .. . ... ... ... : ... .. . ... ... ... : ... .. . ... ... ... : ... .. . ... ... ... : ... .. . ... ... ...
ROW C9 : ... .. . ... ... ... : ... .. . ... ... ... : ... .. . ... ... ... : --- .. . ... ... ... : ... .. . ... ... ... : ... .. . ... ... ... : ... .. . ... ... ... : ... .. . ... ... ... : ... .. 8 ... ... ... : ... .. . ... ... ... : ... .. . ... ... ... : ... .. . ... ... ... : ... .. . ... ... ...
ROW CA : ... .. . ... ... ... : ... .. . ... ... ... : ... .. . ... ... ... : ... .. . ... ... ... : ... .. . ... ... ... : ... .. . ... ... ... : ... .. . P81 ... ... : ... .. . ... ... ... : ... .. . ... ... ... : ... .. . ... ... ... : ... .. . ... ... ... : ... .. . ... ... ... : ... .. . ... ... ...
ROW CB : ... .. . ... ... ... : C-4 02 . P80 ... ... : F#3 00 . P78 ... ... : 1-# 00 F ... ... ... : C-1 12 . ... ... ... : C#2 06 . ... ... ... : C#2 06 . P80 ... ... : ... .. . ... ... ... : C#2 06 . ... ... ... : ... .. . ... ... ... : ... .. . ... ... ... : ... .. . ... ... ... : ... .. . ... ... ...
ROW CC : ... .. . ... ... ... : F-3 02 . ... ... ... : C#3 00 . P7E ... ... : 2-# 00 7 ... ... ... : ... .. . ... ... ... : ... .. . ... ... ... : ... .. . P81 ... ... : ... .. . ... ... ... : ... .. . ... ... ... : ... .. . ... ... ... : ... .. . ... ... ... : ... .. . ... ... ... : ... .. . ... ... ...
ROW CD : ... .. . ... ... ... : A#2 02 . P81 ... ... : A-2 00 . P86 ... ... : 1-# 00 4 ... ... ... : ... .. . ... ... ... : ... .. . ... ... ... : C-2 06 . P7F ... ... : ... .. . ... ... ... : ... .. . ... ... ... : ... .. . ... ... ... : ... .. . ... ... ... : ... .. . ... ... ... : ... .. . ... ... ...
ROW CE : ... .. . ... ... ... : D#2 02 . ... ... ... : --- .. . ... ... ... : ... .. 2 ... ... ... : ... .. . ... ... ... : C#2 09 . ... ... ... : C#2 09 . P81 ... ... : ... .. . ... ... ... : C#2 09 . ... ... ... : ... .. . ... ... ... : ... .. . ... ... ... : ... .. . ... ... ... : ... .. . ... ... ...
ROW CF : ... .. . ... ... ... : G#1 02 . ... ... ... : ... .. . ... ... ... : ... .. 1 ... ... ... : ... .. . ... ... ... : ... .. . ... ... ... : ... .. . P80 ... ... : ... .. . ... ... ... : ... .. . ... ... ... : ... .. . ... ... ... : ... .. . ... ... ... : ... .. . ... ... ... : ... .. . ... ... ...
ROW D0 : ... .. . ... ... ... : C#1 02 . ... ... ... : ... .. . ... ... ... : --- .. . ... ... ... : ... .. . ... ... ... : ... .. . ... ... ... : ... .. . P81 ... ... : ... .. . ... ... ... : ... .. . ... ... ... : ... .. . ... ... ... : ... .. . ... ... ... : ... .. . ... ... ... : ... .. . ... ... ...
ROW D1 : ... .. . ... ... ... : ... .. . ... ... ... : ... .. . ... ... ... : ... .. . ... ... ... : ... .. . ... ... ... : C#2 06 . ... ... ... : C-2 06 . P7F ... ... : ... .. . ... ... ... : C#2 06 7 ... ... ... : ... .. . ... ... ... : ... .. . ... ... ... : ... .. . ... ... ... : ... .. . ... ... ...
ROW D2 : ... .. . ... ... ... : ... .. . ... ... ... : ... .. . ... ... ... : ... .. . ... ... ... : ... .. . ... ... ... : ... .. . ... ... ... : C#2 06 . P81 ... ... : ... .. . ... ... ... : ... .. . ... ... ... : ... .. . ... ... ... : ... .. . ... ... ... : ... .. . ... ... ... : ... .. . ... ... ...
ROW D3 : ... .. . ... ... ... : ... .. . ... ... ... : ... .. . ... ... ... : ... .. . ... ... ... : ... .. . ... ... ... : ... .. . ... ... ... : ... .. . P80 ... ... : ... .. . ... ... ... : ... .. . ... ... ... : ... .. . ... ... ... : ... .. . ... ... ... : ... .. . ... ... ... : ... .. . ... ... ...
ROW D4 : ... .. . ... ... ... : ... .. . ... ... ... : ... .. . ... ... ... : ... .. . ... ... ... : ... .. . ... ... ... : C#2 09 . ... ... ... : C#2 09 . P81 ... ... : ... .. . ... ... ... : C#2 09 . ... ... ... : ... .. . ... ... ... : ... .. . ... ... ... : ... .. . ... ... ... : ... .. . ... ... ...
ROW D5 : ... .. . ... ... ... : ... .. . ... ... ... : ... .. . ... ... ... : ... .. . ... ... ... : ... .. . ... ... ... : ... .. . ... ... ... : C-2 09 . P7F ... ... : ... .. . ... ... ... : ... .. . ... ... ... : ... .. . ... ... ... : ... .. . ... ... ... : ... .. . ... ... ... : ... .. . ... ... ...
ROW D6 : ... .. . ... ... ... : ... .. . ... ... ... : ... .. . ... ... ... : ... .. . ... ... ... : ... .. . ... ... ... : ... .. . ... ... ... : C#2 09 . P82 ... ... : ... .. . ... ... ... : ... .. . ... ... ... : ... .. . ... ... ... : ... .. . ... ... ... : ... .. . ... ... ... : ... .. . ... ... ...
ROW D7 : ... .. . ... ... ... : ... .. . ... ... ... : ... .. . ... ... ... : D-# 00 A ... ... ... : ... .. . ... ... ... : C#2 06 . ... ... ... : C#2 06 . P81 ... ... : ... .. . ... ... ... : C#2 06 . ... ... ... : ... .. . ... ... ... : ... .. . ... ... ... : ... .. . ... ... ... : ... .. . ... ... ...
ROW D8 : ... .. . ... ... ... : ... .. . ... ... ... : ... .. . ... ... ... : E-# 00 4 ... ... ... : ... .. . ... ... ... : ... .. . ... ... ... : ... .. . ... ... ... : ... .. . ... ... ... : ... .. . ... ... ... : ... .. . ... ... ... : ... .. . ... ... ... : ... .. . ... ... ... : ... .. . ... ... ...
ROW D9 : ... .. . ... ... ... : ... .. . ... ... ... : ... .. . ... ... ... : D-# 00 2 ... ... ... : ... .. . ... ... ... : ... .. . ... ... ... : ... .. . P82 ... ... : ... .. . ... ... ... : ... .. 6 ... ... ... : ... .. . ... ... ... : ... .. . ... ... ... : ... .. . ... ... ... : ... .. . ... ... ...
ROW DA : ... .. . ... ... ... : ... .. . ... ... ... : ... .. . ... ... ... : ... .. 1 ... ... ... : ... .. . ... ... ... : C#2 09 . ... ... ... : C-2 09 . P7F ... ... : ... .. . ... ... ... : C#2 09 . ... ... ... : ... .. . ... ... ... : ... .. . ... ... ... : ... .. . ... ... ... : ... .. . ... ... ...
ROW DB : ... .. . ... ... ... : ... .. . ... ... ... : ... .. . ... ... ... : ... .. . ... ... ... : ... .. . ... ... ... : ... .. . ... ... ... : C#2 09 . P81 ... ... : ... .. . ... ... ... : ... .. . ... ... ... : ... .. . ... ... ... : ... .. . ... ... ... : ... .. . ... ... ... : ... .. . ... ... ...
ROW DC : ... .. . ... ... ... : ... .. . ... ... ... : ... .. . ... ... ... : --- .. . ... ... ... : ... .. . ... ... ... : ... .. . ... ... ... : ... .. . P80 ... ... : ... .. . ... ... ... : ... .. . ... ... ... : ... .. . ... ... ... : ... .. . ... ... ... : ... .. . ... ... ... : ... .. . ... ... ...
ROW DD : ... .. . ... ... ... : ... .. . ... ... ... : ... .. . ... ... ... : D-# 00 A ... ... ... : ... .. . ... ... ... : C#2 06 . ... ... ... : C#2 06 . P81 ... ... : ... .. . ... ... ... : C#2 06 . ... ... ... : ... .. . ... ... ... : ... .. . ... ... ... : ... .. . ... ... ... : ... .. . ... ... ...
ROW DE : ... .. . ... ... ... : ... .. . ... ... ... : ... .. . ... ... ... : E-# 00 4 ... ... ... : ... .. . ... ... ... : ... .. . ... ... ... : C-2 06 . P7F ... ... : ... .. . ... ... ... : ... .. . ... ... ... : ... .. . ... ... ... : ... .. . ... ... ... : ... .. . ... ... ... : ... .. . ... ... ...
ROW DF : ... .. . ... ... ... : ... .. . ... ... ... : ... .. . ... ... ... : D-# 00 2 ... ... ... : ... .. . ... ... ... : ... .. . ... ... ... : C#2 06 . P81 ... ... : ... .. . ... ... ... : ... .. . ... ... ... : ... .. . ... ... ... : ... .. . ... ... ... : ... .. . ... ... ... : ... .. . ... ... ...
ROW E0 : ... .. . ... ... ... : ... .. . ... ... ... : ... .. . ... ... ... : ... .. 1 ... ... ... : ... .. . ... ... ... : C#2 09 . ... ... ... : C#2 09 . P80 ... ... : ... .. . ... ... ... : C#2 09 . ... ... ... : ... .. . ... ... ... : ... .. . ... ... ... : ... .. . ... ... ... : ... .. . ... ... ...
ROW E1 : ... .. . ... ... ... : ... .. . ... ... ... : ... .. . ... ... ... : ... .. . ... ... ... : ... .. . ... ... ... : ... .. . ... ... ... : ... .. . P81 ... ... : ... .. . ... ... ... : ... .. 5 ... ... ... : ... .. . ... ... ... : ... .. . ... ... ... : ... .. . ... ... ... : ... .. . ... ... ...
ROW E2 : ... .. . ... ... ... : ... .. . ... ... ... : ... .. . ... ... ... : --- .. . ... ... ... : ... .. . ... ... ... : ... .. . ... ... ... : C-2 09 . P7F ... ... : ... .. . ... ... ... : ... .. . ... ... ... : ... .. . ... ... ... : ... .. . ... ... ... : ... .. . ... ... ... : ... .. . ... ... ...
ROW E3 : ... .. . ... ... ... : ... .. . ... ... ... : ... .. . ... ... ... : ... .. . ... ... ... : ... .. . ... ... ... : ... .. . ... ... ... : C#2 09 . P81 ... ... : ... .. . ... ... ... : ... .. . ... ... ... : ... .. . ... ... ... : ... .. . ... ... ... : ... .. . ... ... ... : ... .. . ... ... ...
ROW E4 : ... .. . ... ... ... : C-4 02 . P80 ... ... : C#4 00 . P7F ... ... : 9-# 00 F ... ... ... : C#1 12 . ... ... ... : F#1 06 . ... ... ... : F#1 06 . P80 ... ... : ... .. . ... ... ... : F#1 06 . ... ... ... : ... .. . ... ... ... : ... .. . ... ... ... : ... .. . ... ... ... : ... .. . ... ... ...
ROW E5 : ... .. . ... ... ... : F-3 02 . ... ... ... : F#3 00 . P83 ... ... : 2-# 00 7 ... ... ... : ... .. . ... ... ... : ... .. . ... ... ... : ... .. . P81 ... ... : ... .. . ... ... ... : ... .. . ... ... ... : ... .. . ... ... ... : ... .. . ... ... ... : ... .. . ... ... ... : ... .. . ... ... ...
ROW E6 : ... .. . ... ... ... : A#2 02 . P81 ... ... : C#3 00 . P89 ... ... : 6-# 00 C ... ... ... : ... .. . ... ... ... : ... .. . ... ... ... : F-1 06 . P80 ... ... : ... .. . ... ... ... : ... .. . ... ... ... : ... .. . ... ... ... : ... .. . ... ... ... : ... .. . ... ... ... : ... .. . ... ... ...
ROW E7 : ... .. . ... ... ... : D#2 02 . ... ... ... : A#2 00 . P75 ... ... : 7-# 00 8 ... ... ... : ... .. . ... ... ... : ... .. . ... ... ... : ... .. . ... ... ... : ... .. . ... ... ... : ... .. . ... ... ... : ... .. . ... ... ... : ... .. . ... ... ... : ... .. . ... ... ... : ... .. . ... ... ...
ROW E8 : ... .. . ... ... ... : G#1 02 . ... ... ... : G-2 00 . P70 ... ... : 8-# 00 7 ... ... ... : ... .. . ... ... ... : ... .. . ... ... ... : F#1 06 . P81 ... ... : ... .. . ... ... ... : ... .. . ... ... ... : ... .. . ... ... ... : ... .. . ... ... ... : ... .. . ... ... ... : ... .. . ... ... ...
ROW E9 : ... .. . ... ... ... : C#1 02 . ... ... ... : E-2 00 . P7C ... ... : ... .. 6 ... ... ... : ... .. . ... ... ... : ... .. . ... ... ... : ... .. . ... ... ... : ... .. . ... ... ... : ... .. 4 ... ... ... : ... .. . ... ... ... : ... .. . ... ... ... : ... .. . ... ... ... : ... .. . ... ... ...
ROW EA : ... .. . ... ... ... : ... .. . ... ... ... : --- .. . ... ... ... : ... .. . ... ... ... : ... .. . ... ... ... : F#1 07 . ... ... ... : F-1 07 . P80 ... ... : ... .. . ... ... ... : F#1 07 . ... ... ... : ... .. . ... ... ... : ... .. . ... ... ... : ... .. . ... ... ... : ... .. . ... ... ...
ROW EB : ... .. . ... ... ... : ... .. . ... ... ... : ... .. . ... ... ... : ... .. 5 ... ... ... : ... .. . ... ... ... : ... .. . ... ... ... : ... .. . ... ... ... : ... .. . ... ... ... : ... .. . ... ... ... : ... .. . ... ... ... : ... .. . ... ... ... : ... .. . ... ... ... : ... .. . ... ... ...
ROW EC : ... .. . ... ... ... : ... .. . ... ... ... : ... .. . ... ... ... : ... .. . ... ... ... : ... .. . ... ... ... : ... .. . ... ... ... : F#1 07 . P81 ... ... : ... .. . ... ... ... : ... .. . ... ... ... : ... .. . ... ... ... : ... .. . ... ... ... : ... .. . ... ... ... : ... .. . ... ... ...
ROW ED : ... .. . ... ... ... : ... .. . ... ... ... : ... .. . ... ... ... : ... .. 4 ... ... ... : ... .. . ... ... ... : F-1 07 . ... ... ... : F-1 07 . P80 ... ... : ... .. . ... ... ... : ... .. . P81 ... ... : ... .. . ... ... ... : ... .. . ... ... ... : ... .. . ... ... ... : ... .. . ... ... ...
ROW EE : ... .. . ... ... ... : ... .. . ... ... ... : ... .. . ... ... ... : ... .. . ... ... ... : ... .. . ... ... ... : E-1 07 . ... ... ... : E-1 07 . P81 ... ... : ... .. . ... ... ... : F-1 07 . ... ... ... : ... .. . ... ... ... : ... .. . ... ... ... : ... .. . ... ... ... : ... .. . ... ... ...
ROW EF : ... .. . ... ... ... : ... .. . ... ... ... : ... .. . ... ... ... : ... .. 3 ... ... ... : ... .. . ... ... ... : D#1 07 . ... ... ... : D-1 07 . ... ... ... : ... .. . ... ... ... : E-1 07 . ... ... ... : ... .. . ... ... ... : ... .. . ... ... ... : ... .. . ... ... ... : ... .. . ... ... ...
ROW F0 : ... .. . ... ... ... : ... .. . ... ... ... : ... .. . ... ... ... : 6-# 01 F ... ... ... : ... .. . ... ... ... : D-1 08 . P81 ... ... : C#1 08 . P80 ... ... : ... .. . ... ... ... : D-1 08 . P80 ... ... : ... .. . ... ... ... : ... .. . ... ... ... : ... .. . ... ... ... : ... .. . ... ... ...
ROW F1 : ... .. . ... ... ... : ... .. . ... ... ... : ... .. . ... ... ... : ... .. 9 ... ... ... : ... .. . ... ... ... : C#1 08 . ... ... ... : ... .. . P81 ... ... : ... .. . ... ... ... : C#1 08 3 ... ... ... : ... .. . ... ... ... : ... .. . ... ... ... : ... .. . ... ... ... : ... .. . ... ... ...
ROW F2 : ... .. . ... ... ... : ... .. . ... ... ... : ... .. . ... ... ... : ... .. 4 ... ... ... : ... .. . ... ... ... : B-0 08 . P80 ... ... : B-0 08 . ... ... ... : ... .. . ... ... ... : C-1 08 . ... ... ... : ... .. . ... ... ... : ... .. . ... ... ... : ... .. . ... ... ... : ... .. . ... ... ...
ROW F3 : ... .. . ... ... ... : ... .. . ... ... ... : ... .. . ... ... ... : ... .. 7 ... ... ... : ... .. . ... ... ... : A#0 08 . ... ... ... : A-0 08 . ... ... ... : ... .. . ... ... ... : B-0 08 . P81 ... ... : ... .. . ... ... ... : ... .. . ... ... ... : ... .. . ... ... ... : ... .. . ... ... ...
ROW F4 : ... .. . ... ... ... : ... .. . ... ... ... : ... .. . ... ... ... : ... .. 5 ... ... ... : ... .. . ... ... ... : A-0 08 . P81 ... ... : G#0 08 . ... ... ... : ... .. . ... ... ... : A-0 08 . P80 ... ... : ... .. . ... ... ... : ... .. . ... ... ... : ... .. . ... ... ... : ... .. . ... ... ...
ROW F5 : ... .. . ... ... ... : ... .. . ... ... ... : ... .. . ... ... ... : ... .. . ... ... ... : ... .. . ... ... ... : G-0 08 . ... ... ... : G-0 08 . ... ... ... : ... .. . ... ... ... : G#0 08 . P81 ... ... : ... .. . ... ... ... : ... .. . ... ... ... : ... .. . ... ... ... : ... .. . ... ... ...
ROW F6 : ... .. . ... ... ... : ... .. . ... ... ... : ... .. . ... ... ... : ... .. 4 ... ... ... : ... .. . ... ... ... : F-0 09 . P80 ... ... : F-0 09 . ... ... ... : ... .. . ... ... ... : F#0 09 . P80 ... ... : ... .. . ... ... ... : ... .. . ... ... ... : ... .. . ... ... ... : ... .. . ... ... ...
ROW F7 : ... .. . ... ... ... : ... .. . ... ... ... : ... .. . ... ... ... : ... .. . ... ... ... : ... .. . ... ... ... : D#0 09 . ... ... ... : C#0 09 . P80 ... ... : ... .. . ... ... ... : E-0 09 . ... ... ... : ... .. . ... ... ... : ... .. . ... ... ... : ... .. . ... ... ... : ... .. . ... ... ...
ROW F8 : ... .. . ... ... ... : ... .. . ... ... ... : ... .. . ... ... ... : ... .. 3 ... ... ... : ... .. . ... ... ... : C#0 09 . P81 ... ... : C-0 09 . P81 ... ... : ... .. . ... ... ... : D-0 09 . ... ... ... : ... .. . ... ... ... : ... .. . ... ... ... : ... .. . ... ... ... : ... .. . ... ... ...
ROW F9 : ... .. . ... ... ... : ... .. . ... ... ... : ... .. . ... ... ... : ... .. 2 ... ... ... : ... .. . ... ... ... : C-0 09 . P82 ... ... : ... .. . P82 ... ... : ... .. . ... ... ... : C-0 09 2 P81 ... ... : ... .. . ... ... ... : ... .. . ... ... ... : ... .. . ... ... ... : ... .. . ... ... ...
ROW FA : ... .. . ... ... ... : ... .. . ... ... ... : ... .. . ... ... ... : ... .. . ... ... ... : ... .. . ... ... ... : ... .. . P84 ... ... : ... .. . P84 ... ... : ... .. . ... ... ... : ... .. . P83 ... ... : ... .. . ... ... ... : ... .. . ... ... ... : ... .. . ... ... ... : ... .. . ... ... ...
ROW FB : ... .. . ... ... ... : ... .. . ... ... ... : ... .. . ... ... ... : ... .. 1 ... ... ... : ... .. . ... ... ... : ... .. . P86 ... ... : ... .. . P87 ... ... : ... .. . ... ... ... : ... .. . P85 ... ... : ... .. . ... ... ... : ... .. . ... ... ... : ... .. . ... ... ... : ... .. . ... ... ...
ROW FC : ... .. . ... ... ... : ... .. . ... ... ... : ... .. . ... ... ... : ... .. . ... ... ... : ... .. . ... ... ... : --- .. . P7A ... ... : --- .. . P7C ... ... : ... .. . ... ... ... : ... .. . P87 ... ... : ... .. . ... ... ... : ... .. . ... ... ... : ... .. . ... ... ... : ... .. . ... ... ...
ROW FD : ... .. . ... ... ... : C-4 02 . P80 ... ... : F#3 00 . P78 ... ... : 1-# 00 F ... ... ... : C-1 12 . ... ... ... : G-4 04 A P78 ... ... : A-4 04 A P81 ... ... : ... .. . ... ... ... : F#4 04 9 P89 ... ... : G-4 04 9 P81 ... ... : ... .. . ... ... ... : ... .. . ... ... ... : ... .. . ... ... ...
ROW FE : ... .. . ... ... ... : F-3 02 . ... ... ... : C#3 00 . P7E ... ... : 2-# 00 7 ... ... ... : ... .. . ... ... ... : G#4 04 . P84 ... ... : ... .. . P80 ... ... : ... .. . ... ... ... : ... .. . P81 ... ... : ... .. . ... ... ... : ... .. . ... ... ... : ... .. . ... ... ... : ... .. . ... ... ...
ROW FF : ... .. . ... ... ... : A#2 02 . P81 ... ... : A-2 00 . P86 ... ... : 1-# 00 4 ... ... ... : ... .. . ... ... ... : ... .. . P7C ... ... : ... .. . P81 ... ... : ... .. . ... ... ... : ... .. . P79 ... ... : ... .. . ... ... ... : ... .. . ... ... ... : ... .. . ... ... ... : ... .. . ... ... ...

PATTERN 09
ROW 00 : ... .. . ... ... ... : D#2 02 . ... ... ... : --- .. . ... ... ... : ... .. 2 ... ... ... : ... .. . ... ... ... : --- .. . ... ... ... : --- .. . ... ... ... : ... .. . ... ... ... : --- .. . ... ... ... : --- .. . ... ... ... : ... .. . ... ... ... : ... .. . ... ... ... : ... .. . ... ... ...
ROW 01 : ... .. . ... ... ... : G#1 02 . ... ... ... : ... .. . ... ... ... : ... .. 1 ... ... ... : ... .. . ... ... ... : ... .. . P80 ... ... : ... .. . P80 ... ... : ... .. . ... ... ... : ... .. . P80 ... ... : ... .. . P80 ... ... : ... .. . ... ... ... : ... .. . ... ... ... : ... .. . ... ... ...
ROW 02 : ... .. . ... ... ... : C#1 02 . ... ... ... : ... .. . ... ... ... : --- .. . ... ... ... : ... .. . ... ... ... : ... .. . ... ... ... : ... .. . ... ... ... : ... .. . ... ... ... : ... .. . ... ... ... : ... .. . ... ... ... : ... .. . ... ... ... : ... .. . ... ... ... : ... .. . ... ... ...
ROW 03 : ... .. . ... ... ... : ... .. . ... ... ... : ... .. . ... ... ... : 1-# 00 F ... ... ... : C-1 12 . ... ... ... : A-4 04 . P7A ... ... : A-4 04 . P83 ... ... : ... .. . ... ... ... : G#4 04 . P88 ... ... : G-4 04 . P83 ... ... : ... .. . ... ... ... : ... .. . ... ... ... : ... .. . ... ... ...
ROW 04 : ... .. . ... ... ... : ... .. . ... ... ... : ... .. . ... ... ... : 2-# 00 7 ... ... ... : ... .. . ... ... ... : ... .. . P7C ... ... : ... .. . P86 ... ... : ... .. . ... ... ... : ... .. . P8A ... ... : ... .. . P85 ... ... : ... .. . ... ... ... : ... .. . ... ... ... : ... .. . ... ... ...
ROW 05 : ... .. . ... ... ... : ... .. . ... ... ... : ... .. . ... ... ... : 1-# 00 4 ... ... ... : ... .. . ... ... ... : ... .. . P7E ... ... : ... .. . P88 ... ... : ... .. . ... ... ... : G-4 04 . P79 ... ... : ... .. . P87 ... ... : ... .. . ... ... ... : ... .. . ... ... ... : ... .. . ... ... ...
ROW 06 : ... .. . ... ... ... : ... .. . ... ... ... : ... .. . ... ... ... : ... .. 2 ... ... ... : ... .. . ... ... ... : --- .. . ... ... ... : --- .. . ... ... ... : ... .. . ... ... ... : --- .. . ... ... ... : --- .. . ... ... ... : ... .. . ... ... ... : ... .. . ... ... ... : ... .. . ... ... ...
ROW 07 : ... .. . ... ... ... : ... .. . ... ... ... : ... .. . ... ... ... : ... .. 1 ... ... ... : ... .. . ... ... ... : ... .. . P80 ... ... : ... .. . P80 ... ... : ... .. . ... ... ... : ... .. . P80 ... ... : ... .. . P80 ... ... : ... .. . ... ... ... : ... .. . ... ... ... : ... .. . ... ... ...
ROW 08 : ... .. . ... ... ... : ... .. . ... ... ... : ... .. . ... ... ... : --- .. . ... ... ... : ... .. . ... ... ... : ... .. . ... ... ... : ... .. . ... ... ... : ... .. . ... ... ... : ... .. . ... ... ... : ... .. . ... ... ... : ... .. . ... ... ... : ... .. . ... ... ... : ... .. . ... ... ...
ROW 09 : ... .. . ... ... ... : ... .. . ... ... ... : ... .. . ... ... ... : A-# 00 F ... ... ... : C-1 12 . ... ... ... : G#4 04 . P7E ... ... : G#4 04 . P88 ... ... : ... .. . ... ... ... : F#4 04 . P7B ... ... : F-4 04 . P78 ... ... : ... .. . ... ... ... : ... .. . ... ... ... : ... .. . ... ... ...
ROW 0A : ... .. . ... ... ... : ... .. . ... ... ... : ... .. . ... ... ... : 6-# 00 9 ... ... ... : ... .. . ... ... ... : G-4 04 . P78 ... ... : G-4 04 . P81 ... ... : ... .. . ... ... ... : ... .. . P89 ... ... : ... .. . P86 ... ... : ... .. . ... ... ... : ... .. . ... ... ... : ... .. . ... ... ...
ROW 0B : ... .. . ... ... ... : ... .. . ... ... ... : ... .. . ... ... ... : 7-# 00 C ... ... ... : ... .. . ... ... ... : ... .. . P86 ... ... : F#4 04 . P7D ... ... : ... .. . ... ... ... : F-4 04 . P85 ... ... : E-4 04 . P84 ... ... : ... .. . ... ... ... : ... .. . ... ... ... : ... .. . ... ... ...
ROW 0C : ... .. . ... ... ... : ... .. . ... ... ... : ... .. . ... ... ... : ... .. 8 ... ... ... : ... .. . ... ... ... : F#4 04 . P82 ... ... : F-4 04 . P7B ... ... : ... .. . ... ... ... : E-4 04 . P83 ... ... : D#4 04 . P83 ... ... : ... .. . ... ... ... : ... .. . ... ... ... : ... .. . ... ... ...
ROW 0D : ... .. . ... ... ... : ... .. . ... ... ... : ... .. . ... ... ... : 8-# 00 7 ... ... ... : ... .. . ... ... ... : F-4 04 . P7F ... ... : E-4 04 . P7A ... ... : ... .. . ... ... ... : D#4 04 . P82 ... ... : D-4 04 8 P82 ... ... : ... .. . ... ... ... : ... .. . ... ... ... : ... .. . ... ... ...
ROW 0E : ... .. . ... ... ... : ... .. . ... ... ... : ... .. . ... ... ... : ... .. 8 ... ... ... : ... .. . ... ... ... : E-4 04 . P7D ... ... : ... .. . P87 ... ... : ... .. . ... ... ... : D-4 04 . ... ... ... : C#4 04 . P83 ... ... : ... .. . ... ... ... : ... .. . ... ... ... : ... .. . ... ... ...
ROW 0F : ... .. . ... ... ... : ... .. . ... ... ... : ... .. . ... ... ... : 9-# 00 7 ... ... ... : ... .. . ... ... ... : D#4 04 . P7C ... ... : D#4 04 . P84 ... ... : ... .. . ... ... ... : C#4 04 . ... ... ... : C-4 04 . P84 ... ... : ... .. . ... ... ... : ... .. . ... ... ... : ... .. . ... ... ...
ROW 10 : ... .. . ... ... ... : ... .. . ... ... ... : ... .. . ... ... ... : ... .. 6 ... ... ... : ... .. . ... ... ... : D-4 04 . P7B ... ... : D-4 04 . P85 ... ... : ... .. . ... ... ... : C-4 04 . P83 ... ... : B-3 04 . P86 ... ... : ... .. . ... ... ... : ... .. . ... ... ... : ... .. . ... ... ...
ROW 11 : ... .. . ... ... ... : ... .. . ... ... ... : ... .. . ... ... ... : ... .. 5 ... ... ... : ... .. . ... ... ... : C#4 04 . P7C ... ... : C#4 04 . P86 ... ... : ... .. . ... ... ... : B-3 04 8 P85 ... ... : A-3 04 7 P7E ... ... : ... .. . ... ... ... : ... .. . ... ... ... : ... .. . ... ... ...
ROW 12 : ... .. . ... ... ... : ... .. . ... ... ... : ... .. . ... ... ... : ... .. . ... ... ... : ... .. . ... ... ... : C-4 04 . P7D ... ... : C-4 04 . P87 ... ... : ... .. . ... ... ... : A-3 04 . P7D ... ... : G#3 04 . P82 ... ... : ... .. . ... ... ... : ... .. . ... ... ... : ... .. . ... ... ...
ROW 13 : ... .. . ... ... ... : ... .. . ... ... ... : ... .. . ... ... ... : ... .. . ... ... ... : ... .. . ... ... ... : B-3 04 . P7F ... ... : A#3 04 . P7C ... ... : ... .. . ... ... ... : G#3 04 . P81 ... ... : F#3 04 . P7D ... ... : ... .. . ... ... ... : ... .. . ... ... ... : ... .. . ... ... ...
ROW 14 : ... .. . ... ... ... : ... .. . ... ... ... : ... .. . ... ... ... : ... .. . ... ... ... : ... .. . ... ... ... : A#3 04 . P82 ... ... : A-3 04 . P80 ... ... : ... .. . ... ... ... : F#3 04 . P7C ... ... : F-3 04 . P82 ... ... : ... .. . ... ... ... : ... .. . ... ... ... : ... .. . ... ... ...
ROW 15 : ... .. . ... ... ... : ... .. . ... ... ... : ... .. . ... ... ... : ... .. . ... ... ... : ... .. . ... ... ... : A-3 04 . P85 ... ... : G#3 04 . P85 ... ... : ... .. . ... ... ... : F-3 04 . P82 ... ... : D#3 04 6 P81 ... ... : ... .. . ... ... ... : ... .. . ... ... ... : ... .. . ... ... ...
ROW 16 : ... .. . ... ... ... : C-4 02 . P80 ... ... : C#4 00 . P7F ... ... : ... .. F ... ... ... : C#1 12 . ... ... ... : G#1 04 F P80 ... ... : F#3 04 . P80 ... ... : G-1 04 9 ... ... ... : A-1 04 9 ... ... ... : C#3 04 . ... ... ... : ... .. . ... ... ... : ... .. . ... ... ... : ... .. . ... ... ...
ROW 17 : ... .. . ... ... ... : F-3 02 . ... ... ... : F#3 00 . P83 ... ... : 2-# 00 7 ... ... ... : ... .. . ... ... ... : ... .. . ... ... ... : F-3 04 . P84 ... ... : ... .. . ... ... ... : ... .. . ... ... ... : B-2 04 . P82 ... ... : ... .. . ... ... ... : ... .. . ... ... ... : ... .. . ... ... ...
ROW 18 : ... .. . ... ... ... : A#2 02 . P81 ... ... : C#3 00 . P89 ... ... : 6-# 00 C ... ... ... : ... .. . ... ... ... : ... .. . ... ... ... : D#3 04 . P83 ... ... : ... .. . ... ... ... : ... .. . ... ... ... : G#2 04 . P80 ... ... : ... .. . ... ... ... : ... .. . ... ... ... : ... .. . ... ... ...
ROW 19 : ... .. . ... ... ... : D#2 02 . ... ... ... : A#2 00 . P75 ... ... : 7-# 00 8 ... ... ... : ... .. . ... ... ... : ... .. . ... ... ... : C#3 04 . P84 ... ... : ... .. . ... ... ... : ... .. . ... ... ... : F-2 04 5 ... ... ... : ... .. . ... ... ... : ... .. . ... ... ... : ... .. . ... ... ...
ROW 1A : ... .. . ... ... ... : G#1 02 . ... ... ... : G-2 00 . P70 ... ... : 8-# 00 7 ... ... ... : ... .. . ... ... ... : ... .. . ... ... ... : A#2 04 . P80 ... ... : ... .. 8 ... ... ... : ... .. . ... ... ... : C#2 04 . ... ... ... : ... .. . ... ... ... : ... .. . ... ... ... : ... .. . ... ... ...
ROW 1B : ... .. . ... ... ... : C#1 02 . ... ... ... : E-2 00 . P7C ... ... : ... .. 6 ... ... ... : ... .. . ... ... ... : ... .. . ... ... ... : G#2 04 . P83 ... ... : ... .. . ... ... ... : ... .. . ... ... ... : G#1 04 . P7F ... ... : ... .. . ... ... ... : ... .. . ... ... ... : ... .. . ... ... ...
ROW 1C : ... .. . ... ... ... : ... .. . ... ... ... : --- .. . ... ... ... : ... .. . ... ... ... : ... .. . ... ... ... : G#2 04 . ... ... ... : F-2 04 . P82 ... ... : G#2 04 . P82 ... ... : G#2 04 . P7F ... ... : D-1 04 . P81 ... ... : ... .. . ... ... ... : ... .. . ... ... ... : ... .. . ... ... ...
ROW 1D : ... .. . ... ... ... : ... .. . ... ... ... : ... .. . ... ... ... : ... .. 5 ... ... ... : ... .. . ... ... ... : ... .. . ... ... ... : C#2 04 . ... ... ... : ... .. . ... ... ... : ... .. . ... ... ... : D#0 04 4 ... ... ... : ... .. . ... ... ... : ... .. . ... ... ... : ... .. . ... ... ...
ROW 1E : ... .. . ... ... ... : ... .. . ... ... ... : ... .. . ... ... ... : ... .. . ... ... ... : ... .. . ... ... ... : ... .. . ... ... ... : G-1 04 . P80 ... ... : ... .. 7 ... ... ... : ... .. 8 ... ... ... : --- .. . P7F ... ... : ... .. . ... ... ... : ... .. . ... ... ... : ... .. . ... ... ...
ROW 1F : ... .. . ... ... ... : ... .. . ... ... ... : ... .. . ... ... ... : ... .. 4 ... ... ... : ... .. . ... ... ... : ... .. . ... ... ... : C-1 04 . ... ... ... : ... .. . ... ... ... : ... .. . ... ... ... : D#7 04 . P81 ... ... : ... .. . ... ... ... : ... .. . ... ... ... : ... .. . ... ... ...
ROW 20 : ... .. . ... ... ... : ... .. . ... ... ... : ... .. . ... ... ... : ... .. . ... ... ... : ... .. . ... ... ... : ... .. . ... ... ... : C#0 04 . ... ... ... : ... .. . ... ... ... : ... .. . ... ... ... : ... .. . ... ... ... : ... .. . ... ... ... : ... .. . ... ... ... : ... .. . ... ... ...
ROW 21 : ... .. . ... ... ... : ... .. . ... ... ... : ... .. . ... ... ... : ... .. 3 ... ... ... : ... .. . ... ... ... : ... .. . ... ... ... : D#7 04 . P81 ... ... : ... .. . ... ... ... : ... .. . ... ... ... : ... .. 3 ... ... ... : ... .. . ... ... ... : ... .. . ... ... ... : ... .. . ... ... ...
ROW 22 : ... .. . ... ... ... : ... .. . ... ... ... : ... .. . ... ... ... : D-# 00 A ... ... ... : ... .. . ... ... ... : C#2 04 . ... ... ... : --- .. . ... ... ... : C#2 04 6 ... ... ... : C#2 04 . ... ... ... : ... .. . ... ... ... : ... .. . ... ... ... : ... .. . ... ... ... : ... .. . ... ... ...
ROW 23 : ... .. . ... ... ... : ... .. . ... ... ... : ... .. . ... ... ... : E-# 00 4 ... ... ... : ... .. . ... ... ... : ... .. . ... ... ... : ... .. . P80 ... ... : ... .. . ... ... ... : ... .. . ... ... ... : ... .. . ... ... ... : ... .. . ... ... ... : ... .. . ... ... ... : ... .. . ... ... ...
ROW 24 : ... .. . ... ... ... : ... .. . ... ... ... : ... .. . ... ... ... : D-# 00 2 ... ... ... : ... .. . ... ... ... : ... .. . ... ... ... : ... .. . ... ... ... : ... .. . ... ... ... : ... .. . ... ... ... : ... .. . ... ... ... : ... .. . ... ... ... : ... .. . ... ... ... : ... .. . ... ... ...
ROW 25 : ... .. . ... ... ... : ... .. . ... ... ... : ... .. . ... ... ... : ... .. 1 ... ... ... : ... .. . ... ... ... : ... .. . ... ... ... : ... .. . ... ... ... : ... .. . ... ... ... : ... .. . ... ... ... : ... .. 2 ... ... ... : ... .. . ... ... ... : ... .. . ... ... ... : ... .. . ... ... ...
ROW 26 : ... .. . ... ... ... : ... .. . ... ... ... : ... .. . ... ... ... : ... .. . ... ... ... : ... .. . ... ... ... : ... .. . ... ... ... : ... .. . ... ... ... : ... .. 5 ... ... ... : ... .. 7 ... ... ... : ... .. . ... ... ... : ... .. . ... ... ... : ... .. . ... ... ... : ... .. . ... ... ...
ROW 27 : ... .. . ... ... ... : ... .. . ... ... ... : ... .. . ... ... ... : --- .. . ... ... ... : ... .. . ... ... ... : ... .. . ... ... ... : ... .. . ... ... ... : ... .. . ... ... ... : ... .. . ... ... ... : ... .. . ... ... ... : ... .. . ... ... ... : ... .. . ... ... ... : ... .. . ... ... ...
ROW 28 : ... .. . ... ... ... : ... .. . ... ... ... : ... .. . ... ... ... : D-# 00 A ... ... ... : ... .. . ... ... ... : C#3 04 . ... ... ... : ... .. . ... ... ... : C#3 04 . ... ... ... : C#3 04 . ... ... ... : --- .. . ... ... ... : ... .. . ... ... ... : ... .. . ... ... ... : ... .. . ... ... ...
ROW 29 : ... .. . ... ... ... : ... .. . ... ... ... : ... .. . ... ... ... : E-# 00 4 ... ... ... : ... .. . ... ... ... : ... .. . ... ... ... : ... .. . ... ... ... : ... .. . ... ... ... : ... .. . ... ... ... : ... .. . P80 ... ... : ... .. . ... ... ... : ... .. . ... ... ... : ... .. . ... ... ...
ROW 2A : ... .. . ... ... ... : ... .. . ... ... ... : ... .. . ... ... ... : D-# 00 2 ... ... ... : ... .. . ... ... ... : ... .. . ... ... ... : ... .. . ... ... ... : ... .. 4 ... ... ... : ... .. . ... ... ... : ... .. . ... ... ... : ... .. . ... ... ... : ... .. . ... ... ... : ... .. . ... ... ...
ROW 2B : ... .. . ... ... ... : ... .. . ... ... ... : ... .. . ... ... ... : ... .. 1 ... ... ... : ... .. . ... ... ... : ... .. . ... ... ... : ... .. . ... ... ... : ... .. . ... ... ... : ... .. . ... ... ... : ... .. . ... ... ... : ... .. . ... ... ... : ... .. . ... ... ... : ... .. . ... ... ...
ROW 2C : ... .. . ... ... ... : ... .. . ... ... ... : ... .. . ... ... ... : ... .. . ... ... ... : ... .. . ... ... ... : ... .. . ... ... ... : ... .. . ... ... ... : ... .. . ... ... ... : ... .. . ... ... ... : ... .. . ... ... ... : ... .. . ... ... ... : ... .. . ... ... ... : ... .. . ... ... ...
ROW 2D : ... .. . ... ... ... : ... .. . ... ... ... : ... .. . ... ... ... : --- .. . ... ... ... : ... .. . ... ... ... : ... .. . ... ... ... : ... .. . ... ... ... : ... .. . ... ... ... : ... .. . ... ... ... : ... .. . ... ... ... : ... .. . ... ... ... : ... .. . ... ... ... : ... .. . ... ... ...
ROW 2E : ... .. . ... ... ... : ... .. . ... ... ... : ... .. . ... ... ... : ... .. . ... ... ... : ... .. . ... ... ... : ... .. . ... ... ... : ... .. . ... ... ... : ... .. 3 ... ... ... : ... .. 6 ... ... ... : ... .. . ... ... ... : ... .. . ... ... ... : ... .. . ... ... ... : ... .. . ... ... ...
ROW 2F : ... .. . ... ... ... : C-4 02 . P80 ... ... : F#3 00 . P78 ... ... : 1-# 00 F ... ... ... : C-1 12 . ... ... ... : B-4 0C 7 P7C ... ... : ... .. . ... ... ... : --- .. . ... ... ... : A#3 0C 1 P85 ... ... : ... .. . ... ... ... : ... .. . ... ... ... : ... .. . ... ... ... : ... .. . ... ... ...
ROW 30 : ... .. . ... ... ... : F-3 02 . ... ... ... : C#3 00 . P7E ... ... : 2-# 00 7 ... ... ... : ... .. . ... ... ... : A#4 0C . P79 ... ... : ... .. . ... ... ... : ... .. . P80 ... ... : G-3 0C . ... ... ... : ... .. . ... ... ... : ... .. . ... ... ... : ... .. . ... ... ... : ... .. . ... ... ...
ROW 31 : ... .. . ... ... ... : A#2 02 . P81 ... ... : A-2 00 . P86 ... ... : 1-# 00 4 ... ... ... : ... .. . ... ... ... : A-4 0C . P78 ... ... : ... .. . ... ... ... : ... .. . ... ... ... : D#3 0C . P82 ... ... : ... .. . ... ... ... : ... .. . ... ... ... : ... .. . ... ... ... : ... .. . ... ... ...
ROW 32 : ... .. . ... ... ... : D#2 02 . ... ... ... : --- .. . ... ... ... : ... .. 2 ... ... ... : ... .. . ... ... ... : G#4 0C . ... ... ... : ... .. . ... ... ... : ... .. . ... ... ... : A#2 0C . P7F ... ... : ... .. . ... ... ... : ... .. . ... ... ... : ... .. . ... ... ... : ... .. . ... ... ...
ROW 33 : ... .. . ... ... ... : G#1 02 . ... ... ... : ... .. . ... ... ... : ... .. 1 ... ... ... : ... .. . ... ... ... : G-4 0C . ... ... ... : ... .. . ... ... ... : ... .. . ... ... ... : E-2 0C . P81 ... ... : ... .. . ... ... ... : ... .. . ... ... ... : ... .. . ... ... ... : ... .. . ... ... ...
ROW 34 : ... .. . ... ... ... : C#1 02 . ... ... ... : ... .. . ... ... ... : --- .. . ... ... ... : ... .. . ... ... ... : --- .. . ... ... ... : ... .. . ... ... ... : ... .. . ... ... ... : --- .. . ... ... ... : ... .. . ... ... ... : ... .. . ... ... ... : ... .. . ... ... ... : ... .. . ... ... ...
ROW 35 : ... .. . ... ... ... : ... .. . ... ... ... : ... .. . ... ... ... : ... .. . ... ... ... : ... .. . ... ... ... : B-4 0C . P7C ... ... : ... .. . ... ... ... : ... .. . ... ... ... : A#3 0C . P85 ... ... : ... .. . ... ... ... : ... .. . ... ... ... : ... .. . ... ... ... : ... .. . ... ... ...
ROW 36 : ... .. . ... ... ... : ... .. . ... ... ... : ... .. . ... ... ... : ... .. . ... ... ... : ... .. . ... ... ... : A#4 0C . P79 ... ... : ... .. . ... ... ... : ... .. . ... ... ... : G-3 0C . ... ... ... : ... .. . ... ... ... : ... .. . ... ... ... : ... .. . ... ... ... : ... .. . ... ... ...
ROW 37 : ... .. . ... ... ... : ... .. . ... ... ... : ... .. . ... ... ... : ... .. . ... ... ... : ... .. . ... ... ... : A-4 0C . P78 ... ... : ... .. . ... ... ... : ... .. . ... ... ... : --- .. . ... ... ... : ... .. . ... ... ... : ... .. . ... ... ... : ... .. . ... ... ... : ... .. . ... ... ...
ROW 38 : ... .. . ... ... ... : ... .. . ... ... ... : ... .. . ... ... ... : ... .. . ... ... ... : ... .. . ... ... ... : G#4 0C . ... ... ... : ... .. . ... ... ... : ... .. . ... ... ... : ... .. . P80 ... ... : ... .. . ... ... ... : ... .. . ... ... ... : ... .. . ... ... ... : ... .. . ... ... ...
ROW 39 : ... .. . ... ... ... : ... .. . ... ... ... : ... .. . ... ... ... : ... .. . ... ... ... : ... .. . ... ... ... : G-4 0C . ... ... ... : ... .. . ... ... ... : ... .. . ... ... ... : ... .. . ... ... ... : ... .. . ... ... ... : ... .. . ... ... ... : ... .. . ... ... ... : ... .. . ... ... ...
ROW 3A : ... .. . ... ... ... : ... .. . ... ... ... : ... .. . ... ... ... : ... .. . ... ... ... : ... .. . ... ... ... : --- .. . ... ... ... : ... .. . ... ... ... : ... .. . ... ... ... : ... .. . ... ... ... : ... .. . ... ... ... : ... .. . ... ... ... : ... .. . ... ... ... : ... .. . ... ... ...
ROW 3B : ... .. . ... ... ... : ... .. . ... ... ... : ... .. . ... ... ... : D-# 00 A ... ... ... : ... .. . ... ... ... : C#3 05 A P80 ... ... : C#3 05 . P83 ... ... : C#3 05 9 P7E ... ... : G#2 05 9 P81 ... ... : ... .. . ... ... ... : ... .. . ... ... ... : ... .. . ... ... ... : ... .. . ... ... ...
ROW 3C : ... .. . ... ... ... : ... .. . ... ... ... : ... .. . ... ... ... : E-# 00 4 ... ... ... : ... .. . ... ... ... : ... .. . ... ... ... : C-3 05 . P7E ... ... : ... .. . ... ... ... : ... .. . ... ... ... : ... .. . ... ... ... : ... .. . ... ... ... : ... .. . ... ... ... : ... .. . ... ... ...
ROW 3D : ... .. . ... ... ... : ... .. . ... ... ... : ... .. . ... ... ... : D-# 00 2 ... ... ... : ... .. . ... ... ... : ... .. . ... ... ... : C#3 05 . P83 ... ... : ... .. . ... ... ... : ... .. . ... ... ... : ... .. . ... ... ... : ... .. . ... ... ... : ... .. . ... ... ... : ... .. . ... ... ...
ROW 3E : ... .. . ... ... ... : ... .. . ... ... ... : ... .. . ... ... ... : ... .. 1 ... ... ... : ... .. . ... ... ... : ... .. . ... ... ... : ... .. . P82 ... ... : ... .. . ... ... ... : ... .. . ... ... ... : ... .. . ... ... ... : ... .. . ... ... ... : ... .. . ... ... ... : ... .. . ... ... ...
ROW 3F : ... .. . ... ... ... : ... .. . ... ... ... : ... .. . ... ... ... : ... .. . ... ... ... : ... .. . ... ... ... : --- .. . ... ... ... : --- .. . ... ... ... : --- .. . ... ... ... : --- .. . ... ... ... : ... .. . ... ... ... : ... .. . ... ... ... : ... .. . ... ... ... : ... .. . ... ... ...
ROW 40 : ... .. . ... ... ... : ... .. . ... ... ... : ... .. . ... ... ... : --- .. . ... ... ... : ... .. . ... ... ... : ... .. . ... ... ... : ... .. . P80 ... ... : ... .. . P80 ... ... : ... .. . P80 ... ... : ... .. . ... ... ... : ... .. . ... ... ... : ... .. . ... ... ... : ... .. . ... ... ...
ROW 41 : ... .. . ... ... ... : ... .. . ... ... ... : ... .. . ... ... ... : D-# 00 A ... ... ... : ... .. . ... ... ... : C#3 05 4 ... ... ... : C#3 05 4 P83 ... ... : C#3 05 3 P7E ... ... : G#2 05 3 P81 ... ... : ... .. . ... ... ... : ... .. . ... ... ... : ... .. . ... ... ... : ... .. . ... ... ...
ROW 42 : ... .. . ... ... ... : ... .. . ... ... ... : ... .. . ... ... ... : E-# 00 4 ... ... ... : ... .. . ... ... ... : ... .. . ... ... ... : ... .. . P82 ... ... : ... .. . ... ... ... : ... .. . ... ... ... : ... .. . ... ... ... : ... .. . ... ... ... : ... .. . ... ... ... : ... .. . ... ... ...
ROW 43 : ... .. . ... ... ... : ... .. . ... ... ... : ... .. . ... ... ... : D-# 00 2 ... ... ... : ... .. . ... ... ... : ... .. . ... ... ... : ... .. . P83 ... ... : ... .. . ... ... ... : ... .. . ... ... ... : ... .. . ... ... ... : ... .. . ... ... ... : ... .. . ... ... ... : ... .. . ... ... ...
ROW 44 : ... .. . ... ... ... : ... .. . ... ... ... : ... .. . ... ... ... : ... .. 1 ... ... ... : ... .. . ... ... ... : ... .. . ... ... ... : C-3 05 . P7E ... ... : ... .. . ... ... ... : ... .. . ... ... ... : ... .. . ... ... ... : ... .. . ... ... ... : ... .. . ... ... ... : ... .. . ... ... ...
ROW 45 : ... .. . ... ... ... : ... .. . ... ... ... : ... .. . ... ... ... : ... .. . ... ... ... : ... .. . ... ... ... : ... .. . ... ... ... : ... .. . ... ... ... : ... .. 2 ... ... ... : ... .. . ... ... ... : ... .. . ... ... ... : ... .. . ... ... ... : ... .. . ... ... ... : ... .. . ... ... ...
ROW 46 : ... .. . ... ... ... : ... .. . ... ... ... : ... .. . ... ... ... : --- .. . ... ... ... : ... .. . ... ... ... : --- .. . ... ... ... : --- .. . ... ... ... : --- .. . ... ... ... : --- .. . ... ... ... : ... .. . ... ... ... : ... .. . ... ... ... : ... .. . ... ... ... : ... .. . ... ... ...
ROW 47 : ... .. . ... ... ... : ... .. . ... ... ... : ... .. . ... ... ... : ... .. . ... ... ... : ... .. . ... ... ... : ... .. . ... ... ... : ... .. . P80 ... ... : ... .. . P80 ... ... : ... .. . P80 ... ... : ... .. . ... ... ... : ... .. . ... ... ... : ... .. . ... ... ... : ... .. . ... ... ...
ROW 48 : ... .. . ... ... ... : C-4 02 . P80 ... ... : C#4 00 . P7F ... ... : 9-# 00 F ... ... ... : C#1 12 . ... ... ... : F#3 05 A ... ... ... : F#3 05 A P84 ... ... : F#3 05 9 P7E ... ... : D#3 05 9 P81 ... ... : ... .. . ... ... ... : ... .. . ... ... ... : ... .. . ... ... ... : ... .. . ... ... ...
ROW 49 : ... .. . ... ... ... : F-3 02 . ... ... ... : F#3 00 . P83 ... ... : 2-# 00 7 ... ... ... : ... .. . ... ... ... : ... .. . ... ... ... : ... .. . ... ... ... : ... .. . ... ... ... : ... .. . ... ... ... : ... .. . ... ... ... : ... .. . ... ... ... : ... .. . ... ... ... : ... .. . ... ... ...
ROW 4A : ... .. . ... ... ... : A#2 02 . P81 ... ... : C#3 00 . P89 ... ... : 6-# 00 C ... ... ... : ... .. . ... ... ... : ... .. . ... ... ... : ... .. . P83 ... ... : ... .. . ... ... ... : ... .. . ... ... ... : ... .. . ... ... ... : ... .. . ... ... ... : ... .. . ... ... ... : ... .. . ... ... ...
ROW 4B : ... .. . ... ... ... : D#2 02 . ... ... ... : A#2 00 . P75 ... ... : 7-# 00 8 ... ... ... : ... .. . ... ... ... : ... .. . ... ... ... : ... .. . P82 ... ... : ... .. . ... ... ... : ... .. . ... ... ... : ... .. . ... ... ... : ... .. . ... ... ... : ... .. . ... ... ... : ... .. . ... ... ...
ROW 4C : ... .. . ... ... ... : G#1 02 . ... ... ... : G-2 00 . P70 ... ... : 8-# 00 7 ... ... ... : ... .. . ... ... ... : --- .. . ... ... ... : --- .. . ... ... ... : --- .. . ... ... ... : --- .. . ... ... ... : ... .. . ... ... ... : ... .. . ... ... ... : ... .. . ... ... ... : ... .. . ... ... ...
ROW 4D : ... .. . ... ... ... : C#1 02 . ... ... ... : E-2 00 . P7C ... ... : ... .. 6 ... ... ... : ... .. . ... ... ... : ... .. . ... ... ... : ... .. . P80 ... ... : ... .. . P80 ... ... : ... .. . P80 ... ... : ... .. . ... ... ... : ... .. . ... ... ... : ... .. . ... ... ... : ... .. . ... ... ...
ROW 4E : ... .. . ... ... ... : ... .. . ... ... ... : --- .. . ... ... ... : ... .. . ... ... ... : ... .. . ... ... ... : F#3 05 4 ... ... ... : F#3 05 4 P83 ... ... : F#3 05 3 P7E ... ... : D#3 05 3 P81 ... ... : ... .. . ... ... ... : ... .. . ... ... ... : ... .. . ... ... ... : ... .. . ... ... ...
ROW 4F : ... .. . ... ... ... : ... .. . ... ... ... : ... .. . ... ... ... : ... .. 5 ... ... ... : ... .. . ... ... ... : ... .. . ... ... ... : ... .. . P82 ... ... : ... .. . ... ... ... : ... .. . ... ... ... : ... .. . ... ... ... : ... .. . ... ... ... : ... .. . ... ... ... : ... .. . ... ... ...
ROW 50 : ... .. . ... ... ... : ... .. . ... ... ... : ... .. . ... ... ... : ... .. . ... ... ... : ... .. . ... ... ... : ... .. . ... ... ... : ... .. . P83 ... ... : ... .. . ... ... ... : ... .. . ... ... ... : ... .. . ... ... ... : ... .. . ... ... ... : ... .. . ... ... ... : ... .. . ... ... ...
ROW 51 : ... .. . ... ... ... : ... .. . ... ... ... : ... .. . ... ... ... : ... .. 4 ... ... ... : ... .. . ... ... ... : ... .. . ... ... ... : ... .. . P84 ... ... : ... .. . ... ... ... : ... .. . ... ... ... : ... .. . ... ... ... : ... .. . ... ... ... : ... .. . ... ... ... : ... .. . ... ... ...
ROW 52 : ... .. . ... ... ... : ... .. . ... ... ... : ... .. . ... ... ... : ... .. . ... ... ... : ... .. . ... ... ... : --- .. . ... ... ... : --- .. . ... ... ... : --- .. . ... ... ... : --- .. . ... ... ... : ... .. . ... ... ... : ... .. . ... ... ... : ... .. . ... ... ... : ... .. . ... ... ...
ROW 53 : ... .. . ... ... ... : ... .. . ... ... ... : ... .. . ... ... ... : ... .. 3 ... ... ... : ... .. . ... ... ... : ... .. . ... ... ... : ... .. . P80 ... ... : ... .. . P80 ... ... : ... .. . P80 ... ... : ... .. . ... ... ... : ... .. . ... ... ... : ... .. . ... ... ... : ... .. . ... ... ...
ROW 54 : ... .. . ... ... ... : ... .. . ... ... ... : ... .. . ... ... ... : D-# 00 A ... ... ... : ... .. . ... ... ... : B-3 05 A ... ... ... : B-3 05 A P83 ... ... : B-3 05 9 P7E ... ... : F#3 05 9 P81 ... ... : ... .. . ... ... ... : ... .. . ... ... ... : ... .. . ... ... ... : ... .. . ... ... ...
ROW 55 : ... .. . ... ... ... : ... .. . ... ... ... : ... .. . ... ... ... : E-# 00 4 ... ... ... : ... .. . ... ... ... : ... .. . ... ... ... : ... .. . P84 ... ... : ... .. . ... ... ... : ... .. . ... ... ... : ... .. . ... ... ... : ... .. . ... ... ... : ... .. . ... ... ... : ... .. . ... ... ...
ROW 56 : ... .. . ... ... ... : ... .. . ... ... ... : ... .. . ... ... ... : D-# 00 2 ... ... ... : ... .. . ... ... ... : ... .. . ... ... ... : ... .. . ... ... ... : ... .. . ... ... ... : ... .. . ... ... ... : ... .. . ... ... ... : ... .. . ... ... ... : ... .. . ... ... ... : ... .. . ... ... ...
ROW 57 : ... .. . ... ... ... : ... .. . ... ... ... : ... .. . ... ... ... : ... .. 1 ... ... ... : ... .. . ... ... ... : ... .. . ... ... ... : ... .. . P83 ... ... : ... .. . ... ... ... : ... .. . ... ... ... : ... .. . ... ... ... : ... .. . ... ... ... : ... .. . ... ... ... : ... .. . ... ... ...
ROW 58 : ... .. . ... ... ... : ... .. . ... ... ... : ... .. . ... ... ... : ... .. . ... ... ... : ... .. . ... ... ... : --- .. . ... ... ... : --- .. . ... ... ... : --- .. . ... ... ... : --- .. . ... ... ... : ... .. . ... ... ... : ... .. . ... ... ... : ... .. . ... ... ... : ... .. . ... ... ...
ROW 59 : ... .. . ... ... ... : ... .. . ... ... ... : ... .. . ... ... ... : --- .. . ... ... ... : ... .. . ... ... ... : ... .. . ... ... ... : ... .. . P80 ... ... : ... .. . P80 ... ... : ... .. . P80 ... ... : ... .. . ... ... ... : ... .. . ... ... ... : ... .. . ... ... ... : ... .. . ... ... ...
ROW 5A : ... .. . ... ... ... : ... .. . ... ... ... : ... .. . ... ... ... : D-# 00 A ... ... ... : ... .. . ... ... ... : B-3 05 4 ... ... ... : B-3 05 . P84 ... ... : B-3 05 . P7E ... ... : F#3 05 . P81 ... ... : ... .. . ... ... ... : ... .. . ... ... ... : ... .. . ... ... ... : ... .. . ... ... ...
ROW 5B : ... .. . ... ... ... : ... .. . ... ... ... : ... .. . ... ... ... : E-# 00 4 ... ... ... : ... .. . ... ... ... : ... .. . ... ... ... : ... .. . P83 ... ... : ... .. . ... ... ... : ... .. . ... ... ... : ... .. . ... ... ... : ... .. . ... ... ... : ... .. . ... ... ... : ... .. . ... ... ...
ROW 5C : ... .. . ... ... ... : ... .. . ... ... ... : ... .. . ... ... ... : D-# 00 2 ... ... ... : ... .. . ... ... ... : ... .. . ... ... ... : ... .. . P82 ... ... : ... .. . ... ... ... : ... .. . ... ... ... : ... .. . ... ... ... : ... .. . ... ... ... : ... .. . ... ... ... : ... .. . ... ... ...
ROW 5D : ... .. . ... ... ... : ... .. . ... ... ... : ... .. . ... ... ... : ... .. 1 ... ... ... : ... .. . ... ... ... : ... .. . ... ... ... : ... .. . P83 ... ... : ... .. . ... ... ... : ... .. . ... ... ... : ... .. . ... ... ... : ... .. . ... ... ... : ... .. . ... ... ... : ... .. . ... ... ...
ROW 5E : ... .. . ... ... ... : ... .. . ... ... ... : ... .. . ... ... ... : ... .. . ... ... ... : ... .. . ... ... ... : ... .. . ... ... ... : ... .. . P84 ... ... : ... .. 8 ... ... ... : ... .. . ... ... ... : ... .. . ... ... ... : ... .. . ... ... ... : ... .. . ... ... ... : ... .. . ... ... ...
ROW 5F : ... .. . ... ... ... : ... .. . ... ... ... : ... .. . ... ... ... : --- .. . ... ... ... : ... .. . ... ... ... : --- .. . ... ... ... : --- .. . ... ... ... : --- .. . ... ... ... : --- .. . ... ... ... : ... .. . ... ... ... : ... .. . ... ... ... : ... .. . ... ... ... : ... .. . ... ... ...
ROW 60 : ... .. . ... ... ... : ... .. . ... ... ... : ... .. . ... ... ... : ... .. . ... ... ... : ... .. . ... ... ... : ... .. . ... ... ... : ... .. . P80 ... ... : ... .. . P80 ... ... : ... .. . P80 ... ... : ... .. . ... ... ... : ... .. . ... ... ... : ... .. . ... ... ... : ... .. . ... ... ...
ROW 61 : ... .. . ... ... ... : C-4 02 . P80 ... ... : F#3 00 . P78 ... ... : 1-# 00 F ... ... ... : C-1 12 . ... ... ... : D#2 06 F ... ... ... : D#2 06 F P81 ... ... : ... .. . ... ... ... : D#2 06 E P7F ... ... : D#3 06 B P81 ... ... : ... .. . ... ... ... : ... .. . ... ... ... : ... .. . ... ... ...
ROW 62 : ... .. . ... ... ... : F-3 02 . ... ... ... : C#3 00 . P7E ... ... : 2-# 00 7 ... ... ... : ... .. . ... ... ... : ... .. . ... ... ... : D-2 06 . P7F ... ... : ... .. . ... ... ... : ... .. . ... ... ... : ... .. . ... ... ... : ... .. . ... ... ... : ... .. . ... ... ... : ... .. . ... ... ...
ROW 63 : ... .. . ... ... ... : A#2 02 . P81 ... ... : A-2 00 . P86 ... ... : 1-# 00 4 ... ... ... : ... .. . ... ... ... : ... .. . ... ... ... : D#2 06 . P81 ... ... : ... .. . ... ... ... : ... .. . ... ... ... : ... .. . ... ... ... : ... .. . ... ... ... : ... .. . ... ... ... : ... .. . ... ... ...
ROW 64 : ... .. . ... ... ... : D#2 02 . ... ... ... : --- .. . ... ... ... : ... .. 2 ... ... ... : ... .. . ... ... ... : D#2 09 . ... ... ... : D#2 09 . P80 ... ... : ... .. . ... ... ... : D#2 09 . ... ... ... : D#3 09 . ... ... ... : ... .. . ... ... ... : ... .. . ... ... ... : ... .. . ... ... ...
ROW 65 : ... .. . ... ... ... : G#1 02 . ... ... ... : ... .. . ... ... ... : ... .. 1 ... ... ... : ... .. . ... ... ... : ... .. . ... ... ... : ... .. . P81 ... ... : ... .. . ... ... ... : ... .. . ... ... ... : ... .. A ... ... ... : ... .. . ... ... ... : ... .. . ... ... ... : ... .. . ... ... ...
ROW 66 : ... .. . ... ... ... : C#1 02 . ... ... ... : ... .. . ... ... ... : --- .. . ... ... ... : ... .. . ... ... ... : ... .. . ... ... ... : ... .. . P82 ... ... : ... .. . ... ... ... : ... .. . ... ... ... : ... .. . ... ... ... : ... .. . ... ... ... : ... .. . ... ... ... : ... .. . ... ... ...
ROW 67 : ... .. . ... ... ... : ... .. . ... ... ... : ... .. . ... ... ... : ... .. . ... ... ... : ... .. . ... ... ... : D#2 06 . ... ... ... : D#2 06 . ... ... ... : ... .. . ... ... ... : D#2 06 . ... ... ... : D#3 06 . ... ... ... : ... .. . ... ... ... : ... .. . ... ... ... : ... .. . ... ... ...
ROW 68 : ... .. . ... ... ... : ... .. . ... ... ... : ... .. . ... ... ... : ... .. . ... ... ... : ... .. . ... ... ... : ... .. . ... ... ... : ... .. . P81 ... ... : ... .. . ... ... ... : ... .. . ... ... ... : ... .. . ... ... ... : ... .. . ... ... ... : ... .. . ... ... ... : ... .. . ... ... ...
ROW 69 : ... .. . ... ... ... : ... .. . ... ... ... : ... .. . ... ... ... : ... .. . ... ... ... : ... .. . ... ... ... : ... .. . ... ... ... : ... .. . ... ... ... : ... .. . ... ... ... : ... .. D ... ... ... : ... .. 9 ... ... ... : ... .. . ... ... ... : ... .. . ... ... ... : ... .. . ... ... ...
ROW 6A : ... .. . ... ... ... : ... .. . ... ... ... : ... .. . ... ... ... : ... .. . ... ... ... : ... .. . ... ... ... : D#2 09 . ... ... ... : D#2 09 . P82 ... ... : ... .. . ... ... ... : D#2 09 . ... ... ... : D#3 09 . ... ... ... : ... .. . ... ... ... : ... .. . ... ... ... : ... .. . ... ... ...
ROW 6B : ... .. . ... ... ... : ... .. . ... ... ... : ... .. . ... ... ... : ... .. . ... ... ... : ... .. . ... ... ... : ... .. . ... ... ... : D-2 09 . P7F ... ... : ... .. . ... ... ... : ... .. . ... ... ... : ... .. . ... ... ... : ... .. . ... ... ... : ... .. . ... ... ... : ... .. . ... ... ...
ROW 6C : ... .. . ... ... ... : ... .. . ... ... ... : ... .. . ... ... ... : ... .. . ... ... ... : ... .. . ... ... ... : ... .. . ... ... ... : D#2 09 . P81 ... ... : ... .. . ... ... ... : ... .. . ... ... ... : ... .. . ... ... ... : ... .. . ... ... ... : ... .. . ... ... ... : ... .. . ... ... ...
ROW 6D : ... .. . ... ... ... : ... .. . ... ... ... : ... .. . ... ... ... : D-# 00 A ... ... ... : ... .. . ... ... ... : D#2 06 . ... ... ... : D#2 06 . P80 ... ... : ... .. . ... ... ... : D#2 06 . ... ... ... : D#3 06 8 ... ... ... : ... .. . ... ... ... : ... .. . ... ... ... : ... .. . ... ... ...
ROW 6E : ... .. . ... ... ... : ... .. . ... ... ... : ... .. . ... ... ... : E-# 00 4 ... ... ... : ... .. . ... ... ... : ... .. . ... ... ... : ... .. . P81 ... ... : ... .. . ... ... ... : ... .. . ... ... ... : ... .. . ... ... ... : ... .. . ... ... ... : ... .. . ... ... ... : ... .. . ... ... ...
ROW 6F : ... .. . ... ... ... : ... .. . ... ... ... : ... .. . ... ... ... : D-# 00 2 ... ... ... : ... .. . ... ... ... : ... .. . ... ... ... : D-2 06 . P7F ... ... : ... .. . ... ... ... : ... .. . ... ... ... : ... .. . ... ... ... : ... .. . ... ... ... : ... .. . ... ... ... : ... .. . ... ... ...
ROW 70 : ... .. . ... ... ... : ... .. . ... ... ... : ... .. . ... ... ... : ... .. 1 ... ... ... : ... .. . ... ... ... : D#2 09 . ... ... ... : D#2 09 . P81 ... ... : ... .. . ... ... ... : D#2 09 . ... ... ... : D#3 09 . ... ... ... : ... .. . ... ... ... : ... .. . ... ... ... : ... .. . ... ... ...
ROW 71 : ... .. . ... ... ... : ... .. . ... ... ... : ... .. . ... ... ... : ... .. . ... ... ... : ... .. . ... ... ... : ... .. . ... ... ... : ... .. . P80 ... ... : ... .. . ... ... ... : ... .. C ... ... ... : ... .. 7 ... ... ... : ... .. . ... ... ... : ... .. . ... ... ... : ... .. . ... ... ...
ROW 72 : ... .. . ... ... ... : ... .. . ... ... ... : ... .. . ... ... ... : --- .. . ... ... ... : ... .. . ... ... ... : ... .. . ... ... ... : ... .. . P81 ... ... : ... .. . ... ... ... : ... .. . ... ... ... : ... .. . ... ... ... : ... .. . ... ... ... : ... .. . ... ... ... : ... .. . ... ... ...
ROW 73 : ... .. . ... ... ... : ... .. . ... ... ... : ... .. . ... ... ... : D-# 00 A ... ... ... : ... .. . ... ... ... : D#2 06 . ... ... ... : D-2 06 . P7F ... ... : ... .. . ... ... ... : D#2 06 . ... ... ... : D#3 06 . ... ... ... : ... .. . ... ... ... : ... .. . ... ... ... : ... .. . ... ... ...
ROW 74 : ... .. . ... ... ... : ... .. . ... ... ... : ... .. . ... ... ... : E-# 00 4 ... ... ... : ... .. . ... ... ... : ... .. . ... ... ... : D#2 06 . P81 ... ... : ... .. . ... ... ... : ... .. . ... ... ... : ... .. . ... ... ... : ... .. . ... ... ... : ... .. . ... ... ... : ... .. . ... ... ...
ROW 75 : ... .. . ... ... ... : ... .. . ... ... ... : ... .. . ... ... ... : D-# 00 2 ... ... ... : ... .. . ... ... ... : ... .. . ... ... ... : ... .. . P80 ... ... : ... .. . ... ... ... : ... .. . ... ... ... : ... .. 6 ... ... ... : ... .. . ... ... ... : ... .. . ... ... ... : ... .. . ... ... ...
ROW 76 : ... .. . ... ... ... : ... .. . ... ... ... : ... .. . ... ... ... : ... .. 1 ... ... ... : ... .. . ... ... ... : D#2 09 . ... ... ... : D#2 09 . P81 ... ... : ... .. . ... ... ... : D#2 09 . ... ... ... : D#3 09 . ... ... ... : ... .. . ... ... ... : ... .. . ... ... ... : ... .. . ... ... ...
ROW 77 : ... .. . ... ... ... : ... .. . ... ... ... : ... .. . ... ... ... : ... .. . ... ... ... : ... .. . ... ... ... : ... .. . ... ... ... : ... .. . P82 ... ... : ... .. . ... ... ... : ... .. . ... ... ... : ... .. . ... ... ... : ... .. . ... ... ... : ... .. . ... ... ... : ... .. . ... ... ...
ROW 78 : ... .. . ... ... ... : ... .. . ... ... ... : ... .. . ... ... ... : --- .. . ... ... ... : ... .. . ... ... ... : ... .. . ... ... ... : ... .. . ... ... ... : ... .. . ... ... ... : ... .. . ... ... ... : ... .. . ... ... ... : ... .. . ... ... ... : ... .. . ... ... ... : ... .. . ... ... ...
ROW 79 : ... .. . ... ... ... : ... .. . ... ... ... : ... .. . ... ... ... : ... .. . ... ... ... : ... .. . ... ... ... : ... .. . ... ... ... : ... .. . P81 ... ... : ... .. . ... ... ... : ... .. B ... ... ... : ... .. 5 ... ... ... : ... .. . ... ... ... : ... .. . ... ... ... : ... .. . ... ... ...
ROW 7A : ... .. . ... ... ... : C-4 02 . P80 ... ... : C#4 00 . P7F ... ... : 9-# 00 F ... ... ... : C#1 12 . ... ... ... : D-2 06 . ... ... ... : D-2 06 . P80 ... ... : ... .. . ... ... ... : D-2 06 . ... ... ... : D-3 06 . ... ... ... : ... .. . ... ... ... : ... .. . ... ... ... : ... .. . ... ... ...
ROW 7B : ... .. . ... ... ... : F-3 02 . ... ... ... : F#3 00 . P83 ... ... : 2-# 00 7 ... ... ... : ... .. . ... ... ... : ... .. . ... ... ... : ... .. . P81 ... ... : ... .. . ... ... ... : ... .. . ... ... ... : ... .. . ... ... ... : ... .. . ... ... ... : ... .. . ... ... ... : ... .. . ... ... ...
ROW 7C : ... .. . ... ... ... : A#2 02 . P81 ... ... : C#3 00 . P89 ... ... : 6-# 00 C ... ... ... : ... .. . ... ... ... : ... .. . ... ... ... : C#2 06 . P7F ... ... : ... .. . ... ... ... : ... .. . ... ... ... : ... .. . ... ... ... : ... .. . ... ... ... : ... .. . ... ... ... : ... .. . ... ... ...
ROW 7D : ... .. . ... ... ... : D#2 02 . ... ... ... : A#2 00 . P75 ... ... : 7-# 00 8 ... ... ... : ... .. . ... ... ... : D-2 07 . ... ... ... : D-2 07 . P81 ... ... : ... .. . ... ... ... : D-2 07 . ... ... ... : D-3 07 4 ... ... ... : ... .. . ... ... ... : ... .. . ... ... ... : ... .. . ... ... ...
ROW 7E : ... .. . ... ... ... : G#1 02 . ... ... ... : G-2 00 . P70 ... ... : 8-# 00 7 ... ... ... : ... .. . ... ... ... : ... .. . ... ... ... : ... .. . P80 ... ... : ... .. . ... ... ... : ... .. . ... ... ... : ... .. . ... ... ... : ... .. . ... ... ... : ... .. . ... ... ... : ... .. . ... ... ...
ROW 7F : ... .. . ... ... ... : C#1 02 . ... ... ... : E-2 00 . P7C ... ... : ... .. 6 ... ... ... : ... .. . ... ... ... : ... .. . ... ... ... : ... .. . P81 ... ... : ... .. . ... ... ... : ... .. . ... ... ... : ... .. . ... ... ... : ... .. . ... ... ... : ... .. . ... ... ... : ... .. . ... ... ...
ROW 80 : ... .. . ... ... ... : ... .. . ... ... ... : --- .. . ... ... ... : ... .. . ... ... ... : ... .. . ... ... ... : D-2 08 . ... ... ... : C#2 08 . P7F ... ... : ... .. . ... ... ... : D-2 08 . ... ... ... : D-3 08 . ... ... ... : ... .. . ... ... ... : ... .. . ... ... ... : ... .. . ... ... ...
ROW 81 : ... .. . ... ... ... : ... .. . ... ... ... : ... .. . ... ... ... : ... .. 5 ... ... ... : ... .. . ... ... ... : ... .. . ... ... ... : D-2 08 . P81 ... ... : ... .. . ... ... ... : ... .. A ... ... ... : ... .. 3 ... ... ... : ... .. . ... ... ... : ... .. . ... ... ... : ... .. . ... ... ...
ROW 82 : ... .. . ... ... ... : ... .. . ... ... ... : ... .. . ... ... ... : ... .. . ... ... ... : ... .. . ... ... ... : ... .. . ... ... ... : ... .. . P80 ... ... : ... .. . ... ... ... : ... .. . ... ... ... : ... .. . ... ... ... : ... .. . ... ... ... : ... .. . ... ... ... : ... .. . ... ... ...
ROW 83 : ... .. . ... ... ... : ... .. . ... ... ... : ... .. . ... ... ... : ... .. 4 ... ... ... : ... .. . ... ... ... : D-2 09 . ... ... ... : D-2 09 . P81 ... ... : ... .. . ... ... ... : D-2 09 . ... ... ... : D-3 09 . ... ... ... : ... .. . ... ... ... : ... .. . ... ... ... : ... .. . ... ... ...
ROW 84 : ... .. . ... ... ... : ... .. . ... ... ... : ... .. . ... ... ... : ... .. . ... ... ... : ... .. . ... ... ... : ... .. . ... ... ... : C#2 09 . P7F ... ... : ... .. . ... ... ... : ... .. . ... ... ... : ... .. . ... ... ... : ... .. . ... ... ... : ... .. . ... ... ... : ... .. . ... ... ...
ROW 85 : ... .. . ... ... ... : ... .. . ... ... ... : ... .. . ... ... ... : ... .. 3 ... ... ... : ... .. . ... ... ... : ... .. . ... ... ... : D-2 09 . P82 ... ... : ... .. . ... ... ... : ... .. . ... ... ... : ... .. 2 ... ... ... : ... .. . ... ... ... : ... .. . ... ... ... : ... .. . ... ... ...
ROW 86 : ... .. . ... ... ... : F-3 02 . P80 ... ... : C#4 00 . P7F ... ... : 1-# 00 F ... ... ... : C-1 12 . ... ... ... : --- .. . ... ... ... : --- .. . ... ... ... : ... .. . ... ... ... : --- .. . ... ... ... : --- .. . ... ... ... : ... .. . ... ... ... : ... .. . ... ... ... : ... .. . ... ... ...
ROW 87 : ... .. . ... ... ... : A#2 02 . P81 ... ... : F#3 00 . P83 ... ... : 2-# 00 7 ... ... ... : ... .. . ... ... ... : ... .. . ... ... ... : ... .. . P80 ... ... : ... .. . ... ... ... : ... .. . P80 ... ... : ... .. . P80 ... ... : ... .. . ... ... ... : ... .. . ... ... ... : ... .. . ... ... ...
ROW 88 : ... .. . ... ... ... : D#2 02 . ... ... ... : C#3 00 . P89 ... ... : 1-# 00 4 ... ... ... : ... .. . ... ... ... : ... .. . ... ... ... : ... .. . ... ... ... : ... .. . ... ... ... : ... .. . ... ... ... : ... .. . ... ... ... : ... .. . ... ... ... : ... .. . ... ... ... : ... .. . ... ... ...
ROW 89 : ... .. . ... ... ... : G#1 02 . ... ... ... : A#2 00 . P75 ... ... : ... .. 2 ... ... ... : ... .. . ... ... ... : ... .. . ... ... ... : ... .. . ... ... ... : ... .. . ... ... ... : ... .. . ... ... ... : ... .. . ... ... ... : ... .. . ... ... ... : ... .. . ... ... ... : ... .. . ... ... ...
ROW 8A : ... .. . ... ... ... : C#1 02 . ... ... ... : G-2 00 . P70 ... ... : ... .. 1 ... ... ... : ... .. . ... ... ... : ... .. . ... ... ... : ... .. . ... ... ... : ... .. . ... ... ... : ... .. . ... ... ... : ... .. . ... ... ... : ... .. . ... ... ... : ... .. . ... ... ... : ... .. . ... ... ...
ROW 8B : ... .. . ... ... ... : ... .. . ... ... ... : E-2 00 . P7C ... ... : --- .. . ... ... ... : ... .. . ... ... ... : ... .. . ... ... ... : ... .. . ... ... ... : ... .. . ... ... ... : ... .. . ... ... ... : ... .. . ... ... ... : ... .. . ... ... ... : ... .. . ... ... ... : ... .. . ... ... ...
ROW 8C : ... .. . ... ... ... : ... .. . ... ... ... : D-2 00 . P6F ... ... : ... .. . ... ... ... : ... .. . ... ... ... : ... .. . ... ... ... : ... .. . ... ... ... : ... .. . ... ... ... : ... .. . ... ... ... : ... .. . ... ... ... : ... .. . ... ... ... : ... .. . ... ... ... : ... .. . ... ... ...
ROW 8D : ... .. . ... ... ... : ... .. . ... ... ... : C-2 00 . P6C ... ... : ... .. . ... ... ... : ... .. . ... ... ... : ... .. . ... ... ... : ... .. . ... ... ... : ... .. . ... ... ... : ... .. . ... ... ... : ... .. . ... ... ... : ... .. . ... ... ... : ... .. . ... ... ... : ... .. . ... ... ...
ROW 8E : ... .. . ... ... ... : ... .. . ... ... ... : A#1 00 . P75 ... ... : ... .. . ... ... ... : ... .. . ... ... ... : ... .. . ... ... ... : ... .. . ... ... ... : ... .. . ... ... ... : ... .. . ... ... ... : ... .. . ... ... ... : ... .. . ... ... ... : ... .. . ... ... ... : ... .. . ... ... ...
ROW 8F : ... .. . ... ... ... : ... .. . ... ... ... : G#1 00 . P8A ... ... : ... .. . ... ... ... : ... .. . ... ... ... : C-2 07 . ... ... ... : C-2 07 . ... ... ... : ... .. . ... ... ... : ... .. . ... ... ... : ... .. . ... ... ... : ... .. . ... ... ... : ... .. . ... ... ... : ... .. . ... ... ...
ROW 90 : ... .. . ... ... ... : ... .. . ... ... ... : G-1 00 . P6A ... ... : ... .. . ... ... ... : ... .. . ... ... ... : ... .. . ... ... ... : ... .. . P81 ... ... : ... .. . ... ... ... : ... .. . ... ... ... : ... .. . ... ... ... : ... .. . ... ... ... : ... .. . ... ... ... : ... .. . ... ... ...
ROW 91 : ... .. . ... ... ... : ... .. . ... ... ... : F-1 00 . P96 ... ... : ... .. . ... ... ... : ... .. . ... ... ... : ... .. . ... ... ... : B-1 07 . P7F ... ... : ... .. . ... ... ... : ... .. . ... ... ... : ... .. . ... ... ... : ... .. . ... ... ... : ... .. . ... ... ... : ... .. . ... ... ...
ROW 92 : ... .. . ... ... ... : ... .. . ... ... ... : E-1 00 . P82 ... ... : ... .. . ... ... ... : ... .. . ... ... ... : ... .. . ... ... ... : C-2 07 . P81 ... ... : ... .. . ... ... ... : ... .. . ... ... ... : ... .. . ... ... ... : ... .. . ... ... ... : ... .. . ... ... ... : ... .. . ... ... ...
ROW 93 : ... .. . ... ... ... : C-4 02 . P80 ... ... : F#3 00 . P78 ... ... : 1-# 00 F ... ... ... : C-1 12 . ... ... ... : C#2 06 . ... ... ... : C#2 06 . P80 ... ... : ... .. . ... ... ... : C#2 06 8 P7F ... ... : ... .. . ... ... ... : ... .. . ... ... ... : ... .. . ... ... ... : ... .. . ... ... ...
ROW 94 : ... .. . ... ... ... : F-3 02 . ... ... ... : C#3 00 . P7E ... ... : 2-# 00 7 ... ... ... : ... .. . ... ... ... : ... .. . ... ... ... : ... .. . P81 ... ... : ... .. . ... ... ... : ... .. . ... ... ... : ... .. . ... ... ... : ... .. . ... ... ... : ... .. . ... ... ... : ... .. . ... ... ...
ROW 95 : ... .. . ... ... ... : A#2 02 . P81 ... ... : A-2 00 . P86 ... ... : 1-# 00 4 ... ... ... : ... .. . ... ... ... : ... .. . ... ... ... : C-2 06 . P7F ... ... : ... .. . ... ... ... : ... .. . ... ... ... : ... .. . ... ... ... : ... .. . ... ... ... : ... .. . ... ... ... : ... .. . ... ... ...
ROW 96 : ... .. . ... ... ... : D#2 02 . ... ... ... : --- .. . ... ... ... : ... .. 2 ... ... ... : ... .. . ... ... ... : C#2 09 . ... ... ... : C#2 09 . P82 ... ... : ... .. . ... ... ... : C#2 09 . ... ... ... : ... .. . ... ... ... : ... .. . ... ... ... : ... .. . ... ... ... : ... .. . ... ... ...
ROW 97 : ... .. . ... ... ... : G#1 02 . ... ... ... : ... .. . ... ... ... : ... .. 1 ... ... ... : ... .. . ... ... ... : ... .. . ... ... ... : ... .. . P81 ... ... : ... .. . ... ... ... : ... .. . ... ... ... : ... .. . ... ... ... : ... .. . ... ... ... : ... .. . ... ... ... : ... .. . ... ... ...
ROW 98 : ... .. . ... ... ... : C#1 02 . ... ... ... : ... .. . ... ... ... : --- .. . ... ... ... : ... .. . ... ... ... : ... .. . ... ... ... : ... .. . ... ... ... : ... .. . ... ... ... : ... .. . ... ... ... : ... .. . ... ... ... : ... .. . ... ... ... : ... .. . ... ... ... : ... .. . ... ... ...
ROW 99 : ... .. . ... ... ... : ... .. . ... ... ... : ... .. . ... ... ... : ... .. . ... ... ... : ... .. . ... ... ... : C#2 06 . ... ... ... : C#2 06 . P82 ... ... : ... .. . ... ... ... : C#2 06 7 ... ... ... : ... .. . ... ... ... : ... .. . ... ... ... : ... .. . ... ... ... : ... .. . ... ... ...
ROW 9A : ... .. . ... ... ... : ... .. . ... ... ... : ... .. . ... ... ... : ... .. . ... ... ... : ... .. . ... ... ... : ... .. . ... ... ... : C-2 06 . P7F ... ... : ... .. . ... ... ... : ... .. . ... ... ... : ... .. . ... ... ... : ... .. . ... ... ... : ... .. . ... ... ... : ... .. . ... ... ...
ROW 9B : ... .. . ... ... ... : ... .. . ... ... ... : ... .. . ... ... ... : ... .. . ... ... ... : ... .. . ... ... ... : ... .. . ... ... ... : C#2 06 . P81 ... ... : ... .. . ... ... ... : ... .. . ... ... ... : ... .. . ... ... ... : ... .. . ... ... ... : ... .. . ... ... ... : ... .. . ... ... ...
ROW 9C : ... .. . ... ... ... : ... .. . ... ... ... : ... .. . ... ... ... : ... .. . ... ... ... : ... .. . ... ... ... : C#2 09 . ... ... ... : C#2 09 . P80 ... ... : ... .. . ... ... ... : C#2 09 . ... ... ... : ... .. . ... ... ... : ... .. . ... ... ... : ... .. . ... ... ... : ... .. . ... ... ...
ROW 9D : ... .. . ... ... ... : ... .. . ... ... ... : ... .. . ... ... ... : ... .. . ... ... ... : ... .. . ... ... ... : ... .. . ... ... ... : ... .. . P81 ... ... : ... .. . ... ... ... : ... .. . ... ... ... : ... .. . ... ... ... : ... .. . ... ... ... : ... .. . ... ... ... : ... .. . ... ... ...
ROW 9E : ... .. . ... ... ... : ... .. . ... ... ... : ... .. . ... ... ... : ... .. . ... ... ... : ... .. . ... ... ... : ... .. . ... ... ... : C-2 09 . P7F ... ... : ... .. . ... ... ... : ... .. . ... ... ... : ... .. . ... ... ... : ... .. . ... ... ... : ... .. . ... ... ... : ... .. . ... ... ...
ROW 9F : ... .. . ... ... ... : ... .. . ... ... ... : ... .. . ... ... ... : D-# 00 A ... ... ... : ... .. . ... ... ... : C#2 06 . ... ... ... : C#2 06 . P81 ... ... : ... .. . ... ... ... : C#2 06 . ... ... ... : ... .. . ... ... ... : ... .. . ... ... ... : ... .. . ... ... ... : ... .. . ... ... ...
ROW A0 : ... .. . ... ... ... : ... .. . ... ... ... : ... .. . ... ... ... : E-# 00 4 ... ... ... : ... .. . ... ... ... : ... .. . ... ... ... : ... .. . P80 ... ... : ... .. . ... ... ... : ... .. . ... ... ... : ... .. . ... ... ... : ... .. . ... ... ... : ... .. . ... ... ... : ... .. . ... ... ...
ROW A1 : ... .. . ... ... ... : ... .. . ... ... ... : ... .. . ... ... ... : D-# 00 2 ... ... ... : ... .. . ... ... ... : ... .. . ... ... ... : ... .. . P81 ... ... : ... .. . ... ... ... : ... .. 6 ... ... ... : ... .. . ... ... ... : ... .. . ... ... ... : ... .. . ... ... ... : ... .. . ... ... ...
ROW A2 : ... .. . ... ... ... : ... .. . ... ... ... : ... .. . ... ... ... : ... .. 1 ... ... ... : ... .. . ... ... ... : C#2 09 . ... ... ... : C-2 09 . P7F ... ... : ... .. . ... ... ... : C#2 09 . ... ... ... : ... .. . ... ... ... : ... .. . ... ... ... : ... .. . ... ... ... : ... .. . ... ... ...
ROW A3 : ... .. . ... ... ... : ... .. . ... ... ... : ... .. . ... ... ... : ... .. . ... ... ... : ... .. . ... ... ... : ... .. . ... ... ... : C#2 09 . P81 ... ... : ... .. . ... ... ... : ... .. . ... ... ... : ... .. . ... ... ... : ... .. . ... ... ... : ... .. . ... ... ... : ... .. . ... ... ...
ROW A4 : ... .. . ... ... ... : ... .. . ... ... ... : ... .. . ... ... ... : --- .. . ... ... ... : ... .. . ... ... ... : ... .. . ... ... ... : ... .. . P80 ... ... : ... .. . ... ... ... : ... .. . ... ... ... : ... .. . ... ... ... : ... .. . ... ... ... : ... .. . ... ... ... : ... .. . ... ... ...
ROW A5 : ... .. . ... ... ... : ... .. . ... ... ... : ... .. . ... ... ... : D-# 00 A ... ... ... : ... .. . ... ... ... : C#2 06 . ... ... ... : C#2 06 . P81 ... ... : ... .. . ... ... ... : C#2 06 . ... ... ... : ... .. . ... ... ... : ... .. . ... ... ... : ... .. . ... ... ... : ... .. . ... ... ...
ROW A6 : ... .. . ... ... ... : ... .. . ... ... ... : ... .. . ... ... ... : E-# 00 4 ... ... ... : ... .. . ... ... ... : ... .. . ... ... ... : ... .. . P82 ... ... : ... .. . ... ... ... : ... .. . ... ... ... : ... .. . ... ... ... : ... .. . ... ... ... : ... .. . ... ... ... : ... .. . ... ... ...
ROW A7 : ... .. . ... ... ... : ... .. . ... ... ... : ... .. . ... ... ... : D-# 00 2 ... ... ... : ... .. . ... ... ... : ... .. . ... ... ... : ... .. . ... ... ... : ... .. . ... ... ... : ... .. . ... ... ... : ... .. . ... ... ... : ... .. . ... ... ... : ... .. . ... ... ... : ... .. . ... ... ...
ROW A8 : ... .. . ... ... ... : ... .. . ... ... ... : ... .. . ... ... ... : ... .. 1 ... ... ... : ... .. . ... ... ... : C#2 09 . ... ... ... : C#2 09 . P81 ... ... : ... .. . ... ... ... : C#2 09 . ... ... ... : ... .. . ... ... ... : ... .. . ... ... ... : ... .. . ... ... ... : ... .. . ... ... ...
ROW A9 : ... .. . ... ... ... : ... .. . ... ... ... : ... .. . ... ... ... : ... .. . ... ... ... : ... .. . ... ... ... : ... .. . ... ... ... : ... .. . ... ... ... : ... .. . ... ... ... : ... .. 5 ... ... ... : ... .. . ... ... ... : ... .. . ... ... ... : ... .. . ... ... ... : ... .. . ... ... ...
ROW AA : ... .. . ... ... ... : ... .. . ... ... ... : ... .. . ... ... ... : --- .. . ... ... ... : ... .. . ... ... ... : ... .. . ... ... ... : ... .. . P82 ... ... : ... .. . ... ... ... : ... .. . ... ... ... : ... .. . ... ... ... : ... .. . ... ... ... : ... .. . ... ... ... : ... .. . ... ... ...
ROW AB : ... .. . ... ... ... : ... .. . ... ... ... : ... .. . ... ... ... : ... .. . ... ... ... : ... .. . ... ... ... : ... .. . ... ... ... : C-2 09 . P7F ... ... : ... .. . ... ... ... : ... .. . ... ... ... : ... .. . ... ... ... : ... .. . ... ... ... : ... .. . ... ... ... : ... .. . ... ... ...
ROW AC : ... .. . ... ... ... : C-4 02 . P80 ... ... : C#4 00 . P7F ... ... : 9-# 00 F ... ... ... : C#1 12 . ... ... ... : G-1 06 . ... ... ... : G-1 06 . P81 ... ... : ... .. . ... ... ... : G-1 06 . ... ... ... : ... .. . ... ... ... : ... .. . ... ... ... : ... .. . ... ... ... : ... .. . ... ... ...
ROW AD : ... .. . ... ... ... : F-3 02 . ... ... ... : F#3 00 . P83 ... ... : 2-# 00 7 ... ... ... : ... .. . ... ... ... : ... .. . ... ... ... : ... .. . P80 ... ... : ... .. . ... ... ... : ... .. . ... ... ... : ... .. . ... ... ... : ... .. . ... ... ... : ... .. . ... ... ... : ... .. . ... ... ...
ROW AE : ... .. . ... ... ... : A#2 02 . P81 ... ... : C#3 00 . P89 ... ... : 6-# 00 C ... ... ... : ... .. . ... ... ... : ... .. . ... ... ... : ... .. . P81 ... ... : ... .. . ... ... ... : ... .. . ... ... ... : ... .. . ... ... ... : ... .. . ... ... ... : ... .. . ... ... ... : ... .. . ... ... ...
ROW AF : ... .. . ... ... ... : D#2 02 . ... ... ... : A#2 00 . P75 ... ... : 7-# 00 8 ... ... ... : ... .. . ... ... ... : ... .. . ... ... ... : F#1 06 . P80 ... ... : ... .. . ... ... ... : ... .. . ... ... ... : ... .. . ... ... ... : ... .. . ... ... ... : ... .. . ... ... ... : ... .. . ... ... ...
ROW B0 : ... .. . ... ... ... : G#1 02 . ... ... ... : G-2 00 . P70 ... ... : 8-# 00 7 ... ... ... : ... .. . ... ... ... : ... .. . ... ... ... : G-1 06 . P81 ... ... : ... .. . ... ... ... : ... .. . ... ... ... : ... .. . ... ... ... : ... .. . ... ... ... : ... .. . ... ... ... : ... .. . ... ... ...
ROW B1 : ... .. . ... ... ... : C#1 02 . ... ... ... : E-2 00 . P7C ... ... : ... .. 6 ... ... ... : ... .. . ... ... ... : ... .. . ... ... ... : ... .. . P80 ... ... : ... .. . ... ... ... : ... .. 4 ... ... ... : ... .. . ... ... ... : ... .. . ... ... ... : ... .. . ... ... ... : ... .. . ... ... ...
ROW B2 : ... .. . ... ... ... : ... .. . ... ... ... : --- .. . ... ... ... : ... .. . ... ... ... : ... .. . ... ... ... : G-1 07 . ... ... ... : G-1 07 . P81 ... ... : ... .. . ... ... ... : G-1 07 . ... ... ... : ... .. . ... ... ... : ... .. . ... ... ... : ... .. . ... ... ... : ... .. . ... ... ...
ROW B3 : ... .. . ... ... ... : ... .. . ... ... ... : ... .. . ... ... ... : ... .. 5 ... ... ... : ... .. . ... ... ... : ... .. . ... ... ... : F#1 07 . P80 ... ... : ... .. . ... ... ... : ... .. . ... ... ... : ... .. . ... ... ... : ... .. . ... ... ... : ... .. . ... ... ... : ... .. . ... ... ...
ROW B4 : ... .. . ... ... ... : ... .. . ... ... ... : ... .. . ... ... ... : ... .. . ... ... ... : ... .. . ... ... ... : ... .. . ... ... ... : G-1 07 . P81 ... ... : ... .. . ... ... ... : ... .. . ... ... ... : ... .. . ... ... ... : ... .. . ... ... ... : ... .. . ... ... ... : ... .. . ... ... ...
ROW B5 : ... .. . ... ... ... : ... .. . ... ... ... : ... .. . ... ... ... : ... .. 4 ... ... ... : ... .. . ... ... ... : G-1 08 . ... ... ... : G-1 08 . P80 ... ... : ... .. . ... ... ... : G-1 08 . ... ... ... : ... .. . ... ... ... : ... .. . ... ... ... : ... .. . ... ... ... : ... .. . ... ... ...
ROW B6 : ... .. . ... ... ... : ... .. . ... ... ... : ... .. . ... ... ... : ... .. . ... ... ... : ... .. . ... ... ... : ... .. . ... ... ... : ... .. . P81 ... ... : ... .. . ... ... ... : ... .. . ... ... ... : ... .. . ... ... ... : ... .. . ... ... ... : ... .. . ... ... ... : ... .. . ... ... ...
ROW B7 : ... .. . ... ... ... : ... .. . ... ... ... : ... .. . ... ... ... : ... .. 3 ... ... ... : ... .. . ... ... ... : ... .. . ... ... ... : F#1 08 . P80 ... ... : ... .. . ... ... ... : ... .. . ... ... ... : ... .. . ... ... ... : ... .. . ... ... ... : ... .. . ... ... ... : ... .. . ... ... ...
ROW B8 : ... .. . ... ... ... : ... .. . ... ... ... : ... .. . ... ... ... : 6-# 01 F ... ... ... : ... .. . ... ... ... : B-1 06 . ... ... ... : A#1 06 . P7F ... ... : ... .. . ... ... ... : B-1 06 . ... ... ... : ... .. . ... ... ... : ... .. . ... ... ... : ... .. . ... ... ... : ... .. . ... ... ...
ROW B9 : ... .. . ... ... ... : ... .. . ... ... ... : ... .. . ... ... ... : ... .. 9 ... ... ... : ... .. . ... ... ... : ... .. . ... ... ... : B-1 06 . P81 ... ... : ... .. . ... ... ... : ... .. 3 ... ... ... : ... .. . ... ... ... : ... .. . ... ... ... : ... .. . ... ... ... : ... .. . ... ... ...
ROW BA : ... .. . ... ... ... : ... .. . ... ... ... : ... .. . ... ... ... : ... .. 4 ... ... ... : ... .. . ... ... ... : ... .. . ... ... ... : ... .. . P80 ... ... : ... .. . ... ... ... : ... .. . ... ... ... : ... .. . ... ... ... : ... .. . ... ... ... : ... .. . ... ... ... : ... .. . ... ... ...
ROW BB : ... .. . ... ... ... : ... .. . ... ... ... : ... .. . ... ... ... : ... .. 7 ... ... ... : ... .. . ... ... ... : ... .. . ... ... ... : ... .. . P81 ... ... : ... .. . ... ... ... : ... .. . ... ... ... : ... .. . ... ... ... : ... .. . ... ... ... : ... .. . ... ... ... : ... .. . ... ... ...
ROW BC : ... .. . ... ... ... : ... .. . ... ... ... : ... .. . ... ... ... : ... .. 5 ... ... ... : ... .. . ... ... ... : ... .. . ... ... ... : A#1 06 . P80 ... ... : ... .. . ... ... ... : ... .. . ... ... ... : ... .. . ... ... ... : ... .. . ... ... ... : ... .. . ... ... ... : ... .. . ... ... ...
ROW BD : ... .. . ... ... ... : ... .. . ... ... ... : ... .. . ... ... ... : ... .. . ... ... ... : ... .. . ... ... ... : ... .. . ... ... ... : B-1 06 . P81 ... ... : ... .. . ... ... ... : ... .. . ... ... ... : ... .. . ... ... ... : ... .. . ... ... ... : ... .. . ... ... ... : ... .. . ... ... ...
ROW BE : ... .. . ... ... ... : ... .. . ... ... ... : ... .. . ... ... ... : ... .. 4 ... ... ... : ... .. . ... ... ... : B-1 07 . ... ... ... : B-1 07 . P80 ... ... : ... .. . ... ... ... : B-1 07 . ... ... ... : ... .. . ... ... ... : ... .. . ... ... ... : ... .. . ... ... ... : ... .. . ... ... ...
ROW BF : ... .. . ... ... ... : ... .. . ... ... ... : ... .. . ... ... ... : ... .. . ... ... ... : ... .. . ... ... ... : ... .. . ... ... ... : ... .. . P81 ... ... : ... .. . ... ... ... : ... .. . ... ... ... : ... .. . ... ... ... : ... .. . ... ... ... : ... .. . ... ... ... : ... .. . ... ... ...
ROW C0 : ... .. . ... ... ... : ... .. . ... ... ... : ... .. . ... ... ... : ... .. 3 ... ... ... : ... .. . ... ... ... : ... .. . ... ... ... : A#1 07 . P80 ... ... : ... .. . ... ... ... : ... .. . ... ... ... : ... .. . ... ... ... : ... .. . ... ... ... : ... .. . ... ... ... : ... .. . ... ... ...
ROW C1 : ... .. . ... ... ... : ... .. . ... ... ... : ... .. . ... ... ... : ... .. 2 ... ... ... : ... .. . ... ... ... : B-1 08 . ... ... ... : B-1 08 . P81 ... ... : ... .. . ... ... ... : B-1 08 2 ... ... ... : ... .. . ... ... ... : ... .. . ... ... ... : ... .. . ... ... ... : ... .. . ... ... ...
ROW C2 : ... .. . ... ... ... : ... .. . ... ... ... : ... .. . ... ... ... : ... .. . ... ... ... : ... .. . ... ... ... : ... .. . ... ... ... : ... .. . P80 ... ... : ... .. . ... ... ... : ... .. . ... ... ... : ... .. . ... ... ... : ... .. . ... ... ... : ... .. . ... ... ... : ... .. . ... ... ...
ROW C3 : ... .. . ... ... ... : ... .. . ... ... ... : ... .. . ... ... ... : ... .. 1 ... ... ... : ... .. . ... ... ... : ... .. . ... ... ... : ... .. . P81 ... ... : ... .. . ... ... ... : ... .. . ... ... ... : ... .. . ... ... ... : ... .. . ... ... ... : ... .. . ... ... ... : ... .. . ... ... ...
ROW C4 : ... .. . ... ... ... : ... .. . ... ... ... : ... .. . ... ... ... : ... .. . ... ... ... : ... .. . ... ... ... : ... .. . ... ... ... : A#1 08 . P80 ... ... : ... .. . ... ... ... : ... .. . ... ... ... : ... .. . ... ... ... : ... .. . ... ... ... : ... .. . ... ... ... : ... .. . ... ... ...
ROW C5 : ... .. . ... ... ... : C-4 02 . P80 ... ... : F#3 00 . P78 ... ... : 1-# 00 F ... ... ... : C-1 12 . ... ... ... : G-4 04 A P78 ... ... : A-4 04 A P82 ... ... : ... .. . ... ... ... : F#4 04 9 P89 ... ... : G-4 04 9 P81 ... ... : ... .. . ... ... ... : ... .. . ... ... ... : ... .. . ... ... ...
ROW C6 : ... .. . ... ... ... : F-3 02 . ... ... ... : C#3 00 . P7E ... ... : 2-# 00 7 ... ... ... : ... .. . ... ... ... : G#4 04 . P84 ... ... : ... .. . P81 ... ... : ... .. . ... ... ... : ... .. . P81 ... ... : ... .. . ... ... ... : ... .. . ... ... ... : ... .. . ... ... ... : ... .. . ... ... ...
ROW C7 : ... .. . ... ... ... : A#2 02 . P81 ... ... : A-2 00 . P86 ... ... : 1-# 00 4 ... ... ... : ... .. . ... ... ... : ... .. . P7C ... ... : ... .. . ... ... ... : ... .. . ... ... ... : ... .. . P79 ... ... : ... .. . ... ... ... : ... .. . ... ... ... : ... .. . ... ... ... : ... .. . ... ... ...
ROW C8 : ... .. . ... ... ... : D#2 02 . ... ... ... : --- .. . ... ... ... : ... .. 2 ... ... ... : ... .. . ... ... ... : A-4 04 . P88 ... ... : ... .. . P82 ... ... : ... .. . ... ... ... : G-4 04 . P83 ... ... : ... .. . ... ... ... : ... .. . ... ... ... : ... .. . ... ... ... : ... .. . ... ... ...
ROW C9 : ... .. . ... ... ... : G#1 02 . ... ... ... : ... .. . ... ... ... : ... .. 1 ... ... ... : ... .. . ... ... ... : ... .. . P80 ... ... : ... .. . ... ... ... : ... .. . ... ... ... : ... .. . P7B ... ... : ... .. 8 ... ... ... : ... .. . ... ... ... : ... .. . ... ... ... : ... .. . ... ... ...
ROW CA : ... .. . ... ... ... : C#1 02 . ... ... ... : ... .. . ... ... ... : --- .. . ... ... ... : ... .. . ... ... ... : ... .. . P78 ... ... : ... .. . P81 ... ... : ... .. . ... ... ... : G#4 04 . P86 ... ... : ... .. . ... ... ... : ... .. . ... ... ... : ... .. . ... ... ... : ... .. . ... ... ...
ROW CB : ... .. . ... ... ... : ... .. . ... ... ... : ... .. . ... ... ... : ... .. . ... ... ... : ... .. . ... ... ... : ... .. . P7A ... ... : ... .. . P82 ... ... : ... .. . ... ... ... : ... .. . P88 ... ... : ... .. . P83 ... ... : ... .. . ... ... ... : ... .. . ... ... ... : ... .. . ... ... ...
ROW CC : ... .. . ... ... ... : ... .. . ... ... ... : ... .. . ... ... ... : ... .. . ... ... ... : ... .. . ... ... ... : ... .. . P7C ... ... : ... .. . P85 ... ... : ... .. . ... ... ... : ... .. . P8A ... ... : ... .. . P85 ... ... : ... .. . ... ... ... : ... .. . ... ... ... : ... .. . ... ... ...
ROW CD : ... .. . ... ... ... : ... .. . ... ... ... : ... .. . ... ... ... : ... .. . ... ... ... : ... .. . ... ... ... : ... .. . P7E ... ... : ... .. . P88 ... ... : ... .. . ... ... ... : G-4 04 8 P79 ... ... : ... .. 7 P87 ... ... : ... .. . ... ... ... : ... .. . ... ... ... : ... .. . ... ... ...
ROW CE : ... .. . ... ... ... : ... .. . ... ... ... : ... .. . ... ... ... : ... .. . ... ... ... : ... .. . ... ... ... : ... .. . P80 ... ... : ... .. . P89 ... ... : ... .. . ... ... ... : ... .. . P7B ... ... : ... .. . P89 ... ... : ... .. . ... ... ... : ... .. . ... ... ... : ... .. . ... ... ...
ROW CF : ... .. . ... ... ... : ... .. . ... ... ... : ... .. . ... ... ... : ... .. . ... ... ... : ... .. . ... ... ... : ... .. . P82 ... ... : ... .. . P8A ... ... : ... .. . ... ... ... : ... .. . P7D ... ... : F#4 04 . P79 ... ... : ... .. . ... ... ... : ... .. . ... ... ... : ... .. . ... ... ...
ROW D0 : ... .. . ... ... ... : ... .. . ... ... ... : ... .. . ... ... ... : ... .. . ... ... ... : ... .. . ... ... ... : ... .. . P84 ... ... : G#4 04 . P79 ... ... : ... .. . ... ... ... : ... .. . P7F ... ... : ... .. . P7B ... ... : ... .. . ... ... ... : ... .. . ... ... ... : ... .. . ... ... ...
ROW D1 : ... .. . ... ... ... : ... .. . ... ... ... : ... .. . ... ... ... : D-# 00 A ... ... ... : ... .. . ... ... ... : G#4 04 . P7E ... ... : ... .. . P88 ... ... : ... .. . ... ... ... : F#4 04 . P7B ... ... : F-4 04 6 P78 ... ... : ... .. . ... ... ... : ... .. . ... ... ... : ... .. . ... ... ...
ROW D2 : ... .. . ... ... ... : ... .. . ... ... ... : ... .. . ... ... ... : E-# 00 4 ... ... ... : ... .. . ... ... ... : G-4 04 . P78 ... ... : G-4 04 . P82 ... ... : ... .. . ... ... ... : ... .. . P89 ... ... : ... .. . P86 ... ... : ... .. . ... ... ... : ... .. . ... ... ... : ... .. . ... ... ...
ROW D3 : ... .. . ... ... ... : ... .. . ... ... ... : ... .. . ... ... ... : D-# 00 2 ... ... ... : ... .. . ... ... ... : ... .. . P86 ... ... : F#4 04 . P7D ... ... : ... .. . ... ... ... : F-4 04 . P85 ... ... : E-4 04 . P84 ... ... : ... .. . ... ... ... : ... .. . ... ... ... : ... .. . ... ... ...
ROW D4 : ... .. . ... ... ... : ... .. . ... ... ... : ... .. . ... ... ... : ... .. 1 ... ... ... : ... .. . ... ... ... : F#4 04 . P82 ... ... : F-4 04 . P7B ... ... : ... .. . ... ... ... : E-4 04 . P83 ... ... : D#4 04 . P83 ... ... : ... .. . ... ... ... : ... .. . ... ... ... : ... .. . ... ... ...
ROW D5 : ... .. . ... ... ... : ... .. . ... ... ... : ... .. . ... ... ... : ... .. . ... ... ... : ... .. . ... ... ... : F-4 04 . P7F ... ... : E-4 04 . P7A ... ... : ... .. . ... ... ... : D#4 04 7 P82 ... ... : D-4 04 5 P82 ... ... : ... .. . ... ... ... : ... .. . ... ... ... : ... .. . ... ... ...
ROW D6 : ... .. . ... ... ... : ... .. . ... ... ... : ... .. . ... ... ... : --- .. . ... ... ... : ... .. . ... ... ... : E-4 04 . P7D ... ... : ... .. . P87 ... ... : ... .. . ... ... ... : D-4 04 . ... ... ... : C#4 04 . P83 ... ... : ... .. . ... ... ... : ... .. . ... ... ... : ... .. . ... ... ...
ROW D7 : ... .. . ... ... ... : ... .. . ... ... ... : ... .. . ... ... ... : D-# 00 A ... ... ... : ... .. . ... ... ... : D#4 04 . P7C ... ... : D#4 04 . P85 ... ... : ... .. . ... ... ... : C#4 04 . ... ... ... : C-4 04 . P84 ... ... : ... .. . ... ... ... : ... .. . ... ... ... : ... .. . ... ... ...
ROW D8 : ... .. . ... ... ... : ... .. . ... ... ... : ... .. . ... ... ... : E-# 00 4 ... ... ... : ... .. . ... ... ... : D-4 04 . P7B ... ... : D-4 04 . P84 ... ... : ... .. . ... ... ... : C-4 04 . P83 ... ... : B-3 04 . P86 ... ... : ... .. . ... ... ... : ... .. . ... ... ... : ... .. . ... ... ...
ROW D9 : ... .. . ... ... ... : ... .. . ... ... ... : ... .. . ... ... ... : D-# 00 2 ... ... ... : ... .. . ... ... ... : C#4 04 . P7C ... ... : C#4 04 . P86 ... ... : ... .. . ... ... ... : B-3 04 . P85 ... ... : A-3 04 4 P7E ... ... : ... .. . ... ... ... : ... .. . ... ... ... : ... .. . ... ... ...
ROW DA : ... .. . ... ... ... : ... .. . ... ... ... : ... .. . ... ... ... : ... .. 1 ... ... ... : ... .. . ... ... ... : C-4 04 . P7D ... ... : B-3 04 . P7B ... ... : ... .. . ... ... ... : A-3 04 . P7D ... ... : G#3 04 . P82 ... ... : ... .. . ... ... ... : ... .. . ... ... ... : ... .. . ... ... ...
ROW DB : ... .. . ... ... ... : ... .. . ... ... ... : ... .. . ... ... ... : ... .. . ... ... ... : ... .. . ... ... ... : B-3 04 . P7F ... ... : A#3 04 . P7D ... ... : ... .. . ... ... ... : G#3 04 . P81 ... ... : F#3 04 . P7D ... ... : ... .. . ... ... ... : ... .. . ... ... ... : ... .. . ... ... ...
ROW DC : ... .. . ... ... ... : ... .. . ... ... ... : ... .. . ... ... ... : --- .. . ... ... ... : ... .. . ... ... ... : A#3 04 . P82 ... ... : A-3 04 . P7F ... ... : ... .. . ... ... ... : F#3 04 . P7C ... ... : F-3 04 . P82 ... ... : ... .. . ... ... ... : ... .. . ... ... ... : ... .. . ... ... ...
ROW DD : ... .. . ... ... ... : ... .. . ... ... ... : ... .. . ... ... ... : ... .. . ... ... ... : ... .. . ... ... ... : A-3 04 . P85 ... ... : G#3 04 . P84 ... ... : ... .. . ... ... ... : F-3 04 6 P82 ... ... : D#3 04 3 P81 ... ... : ... .. . ... ... ... : ... .. . ... ... ... : ... .. . ... ... ...
ROW DE : ... .. . ... ... ... : C-4 02 . P80 ... ... : C#4 00 . P7F ... ... : 9-# 00 F ... ... ... : C#1 12 . ... ... ... : G#1 04 F P80 ... ... : F#3 04 . P80 ... ... : G-1 04 9 ... ... ... : A-1 04 9 ... ... ... : C#3 04 . ... ... ... : ... .. . ... ... ... : ... .. . ... ... ... : ... .. . ... ... ...
ROW DF : ... .. . ... ... ... : F-3 02 . ... ... ... : F#3 00 . P83 ... ... : 2-# 00 7 ... ... ... : ... .. . ... ... ... : ... .. . ... ... ... : E-3 04 . P7D ... ... : ... .. . ... ... ... : ... .. . ... ... ... : B-2 04 . P82 ... ... : ... .. . ... ... ... : ... .. . ... ... ... : ... .. . ... ... ...
ROW E0 : ... .. . ... ... ... : A#2 02 . P81 ... ... : C#3 00 . P89 ... ... : 6-# 00 C ... ... ... : ... .. . ... ... ... : ... .. . ... ... ... : D#3 04 . P82 ... ... : ... .. . ... ... ... : ... .. . ... ... ... : G#2 04 . P80 ... ... : ... .. . ... ... ... : ... .. . ... ... ... : ... .. . ... ... ...
ROW E1 : ... .. . ... ... ... : D#2 02 . ... ... ... : A#2 00 . P75 ... ... : 7-# 00 8 ... ... ... : ... .. . ... ... ... : ... .. . ... ... ... : C#3 04 . P83 ... ... : ... .. . ... ... ... : ... .. . ... ... ... : F-2 04 2 ... ... ... : ... .. . ... ... ... : ... .. . ... ... ... : ... .. . ... ... ...
ROW E2 : ... .. . ... ... ... : G#1 02 . ... ... ... : G-2 00 . P70 ... ... : 8-# 00 7 ... ... ... : ... .. . ... ... ... : ... .. . ... ... ... : A#2 04 . P80 ... ... : ... .. 8 ... ... ... : ... .. . ... ... ... : C#2 04 . ... ... ... : ... .. . ... ... ... : ... .. . ... ... ... : ... .. . ... ... ...
ROW E3 : ... .. . ... ... ... : C#1 02 . ... ... ... : E-2 00 . P7C ... ... : ... .. 6 ... ... ... : ... .. . ... ... ... : ... .. . ... ... ... : G#2 04 . P83 ... ... : ... .. . ... ... ... : ... .. . ... ... ... : G#1 04 . P7F ... ... : ... .. . ... ... ... : ... .. . ... ... ... : ... .. . ... ... ...
ROW E4 : ... .. . ... ... ... : ... .. . ... ... ... : --- .. . ... ... ... : ... .. . ... ... ... : ... .. . ... ... ... : G#2 04 . ... ... ... : F-2 04 . P82 ... ... : G#2 04 . P82 ... ... : G#2 04 . P7F ... ... : D-1 04 . P81 ... ... : ... .. . ... ... ... : ... .. . ... ... ... : ... .. . ... ... ...
ROW E5 : ... .. . ... ... ... : ... .. . ... ... ... : ... .. . ... ... ... : ... .. 5 ... ... ... : ... .. . ... ... ... : ... .. . ... ... ... : C#2 04 . ... ... ... : ... .. . ... ... ... : ... .. . ... ... ... : D#0 04 1 ... ... ... : ... .. . ... ... ... : ... .. . ... ... ... : ... .. . ... ... ...
ROW E6 : ... .. . ... ... ... : ... .. . ... ... ... : ... .. . ... ... ... : ... .. . ... ... ... : ... .. . ... ... ... : ... .. . ... ... ... : G-1 04 . P80 ... ... : ... .. 7 ... ... ... : ... .. 8 ... ... ... : --- .. . P7F ... ... : ... .. . ... ... ... : ... .. . ... ... ... : ... .. . ... ... ...
ROW E7 : ... .. . ... ... ... : ... .. . ... ... ... : ... .. . ... ... ... : ... .. 4 ... ... ... : ... .. . ... ... ... : ... .. . ... ... ... : C-1 04 . ... ... ... : ... .. . ... ... ... : ... .. . ... ... ... : D#7 04 . P81 ... ... : ... .. . ... ... ... : ... .. . ... ... ... : ... .. . ... ... ...
ROW E8 : ... .. . ... ... ... : ... .. . ... ... ... : ... .. . ... ... ... : ... .. . ... ... ... : ... .. . ... ... ... : ... .. . ... ... ... : C#0 04 . P81 ... ... : ... .. . ... ... ... : ... .. . ... ... ... : ... .. . ... ... ... : ... .. . ... ... ... : ... .. . ... ... ... : ... .. . ... ... ...
ROW E9 : ... .. . ... ... ... : ... .. . ... ... ... : ... .. . ... ... ... : ... .. 3 ... ... ... : ... .. . ... ... ... : ... .. . ... ... ... : --- .. . ... ... ... : ... .. . ... ... ... : ... .. . ... ... ... : --- .. . ... ... ... : ... .. . ... ... ... : ... .. . ... ... ... : ... .. . ... ... ...
ROW EA : ... .. . ... ... ... : ... .. . ... ... ... : ... .. . ... ... ... : D-# 00 A ... ... ... : ... .. . ... ... ... : G#1 04 . ... ... ... : ... .. . P80 ... ... : G-1 04 6 P80 ... ... : A-1 04 . P82 ... ... : ... .. . P80 ... ... : ... .. . ... ... ... : ... .. . ... ... ... : ... .. . ... ... ...
ROW EB : ... .. . ... ... ... : ... .. . ... ... ... : ... .. . ... ... ... : E-# 00 4 ... ... ... : ... .. . ... ... ... : ... .. . ... ... ... : ... .. . ... ... ... : ... .. . ... ... ... : ... .. . ... ... ... : ... .. . ... ... ... : ... .. . ... ... ... : ... .. . ... ... ... : ... .. . ... ... ...
ROW EC : ... .. . ... ... ... : ... .. . ... ... ... : ... .. . ... ... ... : D-# 00 2 ... ... ... : ... .. . ... ... ... : ... .. . ... ... ... : ... .. . ... ... ... : ... .. . ... ... ... : ... .. . ... ... ... : ... .. . ... ... ... : ... .. . ... ... ... : ... .. . ... ... ... : ... .. . ... ... ...
ROW ED : ... .. . ... ... ... : ... .. . ... ... ... : ... .. . ... ... ... : ... .. 1 ... ... ... : ... .. . ... ... ... : ... .. . ... ... ... : ... .. . ... ... ... : ... .. . ... ... ... : ... .. . ... ... ... : ... .. . ... ... ... : ... .. . ... ... ... : ... .. . ... ... ... : ... .. . ... ... ...
ROW EE : ... .. . ... ... ... : ... .. . ... ... ... : ... .. . ... ... ... : ... .. . ... ... ... : ... .. . ... ... ... : ... .. . ... ... ... : ... .. . ... ... ... : ... .. 5 ... ... ... : ... .. 7 ... ... ... : ... .. . ... ... ... : ... .. . ... ... ... : ... .. . ... ... ... : ... .. . ... ... ...
ROW EF : ... .. . ... ... ... : ... .. . ... ... ... : ... .. . ... ... ... : --- .. . ... ... ... : ... .. . ... ... ... : ... .. . ... ... ... : ... .. . ... ... ... : ... .. . ... ... ... : ... .. . ... ... ... : ... .. . ... ... ... : ... .. . ... ... ... : ... .. . ... ... ... : ... .. . ... ... ...
ROW F0 : ... .. . ... ... ... : ... .. . ... ... ... : ... .. . ... ... ... : D-# 00 A ... ... ... : ... .. . ... ... ... : G#2 04 . ... ... ... : ... .. . ... ... ... : G#2 04 . P82 ... ... : G#2 04 . P7F ... ... : ... .. . ... ... ... : ... .. . ... ... ... : ... .. . ... ... ... : ... .. . ... ... ...
ROW F1 : ... .. . ... ... ... : ... .. . ... ... ... : ... .. . ... ... ... : E-# 00 4 ... ... ... : ... .. . ... ... ... : ... .. . ... ... ... : ... .. . ... ... ... : ... .. . ... ... ... : ... .. . ... ... ... : ... .. . ... ... ... : ... .. . ... ... ... : ... .. . ... ... ... : ... .. . ... ... ...
ROW F2 : ... .. . ... ... ... : ... .. . ... ... ... : ... .. . ... ... ... : D-# 00 2 ... ... ... : ... .. . ... ... ... : ... .. . ... ... ... : ... .. . ... ... ... : ... .. 4 ... ... ... : ... .. . ... ... ... : ... .. . ... ... ... : ... .. . ... ... ... : ... .. . ... ... ... : ... .. . ... ... ...
ROW F3 : ... .. . ... ... ... : ... .. . ... ... ... : ... .. . ... ... ... : ... .. 1 ... ... ... : ... .. . ... ... ... : ... .. . ... ... ... : ... .. . ... ... ... : ... .. . ... ... ... : ... .. . ... ... ... : ... .. . ... ... ... : ... .. . ... ... ... : ... .. . ... ... ... : ... .. . ... ... ...
ROW F4 : ... .. . ... ... ... : ... .. . ... ... ... : ... .. . ... ... ... : ... .. . ... ... ... : ... .. . ... ... ... : ... .. . ... ... ... : ... .. . ... ... ... : ... .. . ... ... ... : ... .. . ... ... ... : ... .. . ... ... ... : ... .. . ... ... ... : ... .. . ... ... ... : ... .. . ... ... ...
ROW F5 : ... .. . ... ... ... : ... .. . ... ... ... : ... .. . ... ... ... : --- .. . ... ... ... : ... .. . ... ... ... : ... .. . ... ... ... : ... .. . ... ... ... : ... .. . ... ... ... : ... .. . ... ... ... : ... .. . ... ... ... : ... .. . ... ... ... : ... .. . ... ... ... : ... .. . ... ... ...
ROW F6 : ... .. . ... ... ... : ... .. . ... ... ... : ... .. . ... ... ... : ... .. . ... ... ... : ... .. . ... ... ... : ... .. . ... ... ... : ... .. . ... ... ... : ... .. 3 ... ... ... : ... .. 6 ... ... ... : ... .. . ... ... ... : ... .. . ... ... ... : ... .. . ... ... ... : ... .. . ... ... ...
ROW F7 : ... .. . ... ... ... : C-4 02 . P80 ... ... : F#3 00 . P78 ... ... : 1-# 00 F ... ... ... : C-1 12 . ... ... ... : B-4 0C 7 P7C ... ... : ... .. . ... ... ... : --- .. . ... ... ... : A#3 0C 1 P85 ... ... : ... .. . ... ... ... : ... .. . ... ... ... : ... .. . ... ... ... : ... .. . ... ... ...
ROW F8 : ... .. . ... ... ... : F-3 02 . ... ... ... : C#3 00 . P7E ... ... : 2-# 00 7 ... ... ... : ... .. . ... ... ... : A#4 0C . P79 ... ... : ... .. . ... ... ... : ... .. . P80 ... ... : G-3 0C . ... ... ... : ... .. . ... ... ... : ... .. . ... ... ... : ... .. . ... ... ... : ... .. . ... ... ...
ROW F9 : ... .. . ... ... ... : A#2 02 . P81 ... ... : A-2 00 . P86 ... ... : 1-# 00 4 ... ... ... : ... .. . ... ... ... : A-4 0C . P78 ... ... : ... .. . ... ... ... : ... .. . ... ... ... : D#3 0C . P82 ... ... : ... .. . ... ... ... : ... .. . ... ... ... : ... .. . ... ... ... : ... .. . ... ... ...
ROW FA : ... .. . ... ... ... : D#2 02 . ... ... ... : --- .. . ... ... ... : ... .. 2 ... ... ... : ... .. . ... ... ... : G#4 0C . ... ... ... : ... .. . ... ... ... : ... .. . ... ... ... : A#2 0C . P7F ... ... : ... .. . ... ... ... : ... .. . ... ... ... : ... .. . ... ... ... : ... .. . ... ... ...
ROW FB : ... .. . ... ... ... : G#1 02 . ... ... ... : ... .. . ... ... ... : ... .. 1 ... ... ... : ... .. . ... ... ... : G-4 0C . ... ... ... : ... .. . ... ... ... : ... .. . ... ... ... : E-2 0C . P81 ... ... : ... .. . ... ... ... : ... .. . ... ... ... : ... .. . ... ... ... : ... .. . ... ... ...
ROW FC : ... .. . ... ... ... : C#1 02 . ... ... ... : ... .. . ... ... ... : --- .. . ... ... ... : ... .. . ... ... ... : --- .. . ... ... ... : ... .. . ... ... ... : ... .. . ... ... ... : --- .. . ... ... ... : ... .. . ... ... ... : ... .. . ... ... ... : ... .. . ... ... ... : ... .. . ... ... ...
ROW FD : ... .. . ... ... ... : ... .. . ... ... ... : ... .. . ... ... ... : ... .. . ... ... ... : ... .. . ... ... ... : B-4 0C . P7C ... ... : ... .. . ... ... ... : ... .. . ... ... ... : A#3 0C . P85 ... ... : ... .. . ... ... ... : ... .. . ... ... ... : ... .. . ... ... ... : ... .. . ... ... ...
ROW FE : ... .. . ... ... ... : ... .. . ... ... ... : ... .. . ... ... ... : ... .. . ... ... ... : ... .. . ... ... ... : A#4 0C . P79 ... ... : ... .. . ... ... ... : ... .. . ... ... ... : G-3 0C . ... ... ... : ... .. . ... ... ... : ... .. . ... ... ... : ... .. . ... ... ... : ... .. . ... ... ...
ROW FF : ... .. . ... ... ... : ... .. . ... ... ... : ... .. . ... ... ... : ... .. . ... ... ... : ... .. . ... ... ... : A-4 0C . P78 ... ... : ... .. . ... ... ... : ... .. . ... ... ... : --- .. . ... ... ... : ... .. . ... ... ... : ... .. . ... ... ... : ... .. . ... ... ... : ... .. . ... ... ...

PATTERN 0A
ROW 00 : ... .. . ... ... ... : ... .. . ... ... ... : ... .. . ... ... ... : ... .. . ... ... ... : ... .. . ... ... ... : G#4 0C . ... ... ... : ... .. . ... ... ... : ... .. . ... ... ... : ... .. . P80 ... ... : ... .. . ... ... ... : ... .. . ... ... ... : ... .. . ... ... ... : ... .. . ... ... ...
ROW 01 : ... .. . ... ... ... : ... .. . ... ... ... : ... .. . ... ... ... : ... .. . ... ... ... : ... .. . ... ... ... : G-4 0C . ... ... ... : ... .. . ... ... ... : ... .. . ... ... ... : ... .. . ... ... ... : ... .. . ... ... ... : ... .. . ... ... ... : ... .. . ... ... ... : ... .. . ... ... ...
ROW 02 : ... .. . ... ... ... : ... .. . ... ... ... : ... .. . ... ... ... : ... .. . ... ... ... : ... .. . ... ... ... : --- .. . ... ... ... : ... .. . ... ... ... : ... .. . ... ... ... : ... .. . ... ... ... : ... .. . ... ... ... : ... .. . ... ... ... : ... .. . ... ... ... : ... .. . ... ... ...
ROW 03 : ... .. . ... ... ... : ... .. . ... ... ... : ... .. . ... ... ... : D-# 00 A ... ... ... : ... .. . ... ... ... : B-2 05 A P80 ... ... : A#2 05 . P7E ... ... : B-2 05 9 P7E ... ... : G#2 05 9 P81 ... ... : ... .. . ... ... ... : ... .. . ... ... ... : ... .. . ... ... ... : ... .. . ... ... ...
ROW 04 : ... .. . ... ... ... : ... .. . ... ... ... : ... .. . ... ... ... : E-# 00 4 ... ... ... : ... .. . ... ... ... : ... .. . ... ... ... : ... .. . P7F ... ... : ... .. . ... ... ... : ... .. . ... ... ... : ... .. . ... ... ... : ... .. . ... ... ... : ... .. . ... ... ... : ... .. . ... ... ...
ROW 05 : ... .. . ... ... ... : ... .. . ... ... ... : ... .. . ... ... ... : D-# 00 2 ... ... ... : ... .. . ... ... ... : ... .. . ... ... ... : ... .. . P7E ... ... : ... .. . ... ... ... : ... .. . ... ... ... : ... .. . ... ... ... : ... .. . ... ... ... : ... .. . ... ... ... : ... .. . ... ... ...
ROW 06 : ... .. . ... ... ... : ... .. . ... ... ... : ... .. . ... ... ... : ... .. 1 ... ... ... : ... .. . ... ... ... : ... .. . ... ... ... : B-2 05 . P83 ... ... : ... .. . ... ... ... : ... .. . ... ... ... : ... .. . ... ... ... : ... .. . ... ... ... : ... .. . ... ... ... : ... .. . ... ... ...
ROW 07 : ... .. . ... ... ... : ... .. . ... ... ... : ... .. . ... ... ... : ... .. . ... ... ... : ... .. . ... ... ... : --- .. . ... ... ... : --- .. . ... ... ... : --- .. . ... ... ... : --- .. . ... ... ... : ... .. . ... ... ... : ... .. . ... ... ... : ... .. . ... ... ... : ... .. . ... ... ...
ROW 08 : ... .. . ... ... ... : ... .. . ... ... ... : ... .. . ... ... ... : --- .. . ... ... ... : ... .. . ... ... ... : ... .. . ... ... ... : ... .. . P80 ... ... : ... .. . P80 ... ... : ... .. . P80 ... ... : ... .. . ... ... ... : ... .. . ... ... ... : ... .. . ... ... ... : ... .. . ... ... ...
ROW 09 : ... .. . ... ... ... : ... .. . ... ... ... : ... .. . ... ... ... : D-# 00 A ... ... ... : ... .. . ... ... ... : B-2 05 4 ... ... ... : A#2 05 4 P7E ... ... : B-2 05 3 P7E ... ... : G#2 05 3 P81 ... ... : ... .. . ... ... ... : ... .. . ... ... ... : ... .. . ... ... ... : ... .. . ... ... ...
ROW 0A : ... .. . ... ... ... : ... .. . ... ... ... : ... .. . ... ... ... : E-# 00 4 ... ... ... : ... .. . ... ... ... : ... .. . ... ... ... : B-2 05 . P83 ... ... : ... .. . ... ... ... : ... .. . ... ... ... : ... .. . ... ... ... : ... .. . ... ... ... : ... .. . ... ... ... : ... .. . ... ... ...
ROW 0B : ... .. . ... ... ... : ... .. . ... ... ... : ... .. . ... ... ... : D-# 00 2 ... ... ... : ... .. . ... ... ... : ... .. . ... ... ... : ... .. . P82 ... ... : ... .. . ... ... ... : ... .. . ... ... ... : ... .. . ... ... ... : ... .. . ... ... ... : ... .. . ... ... ... : ... .. . ... ... ...
ROW 0C : ... .. . ... ... ... : ... .. . ... ... ... : ... .. . ... ... ... : ... .. 1 ... ... ... : ... .. . ... ... ... : ... .. . ... ... ... : A#2 05 . P7E ... ... : ... .. . ... ... ... : ... .. . ... ... ... : ... .. . ... ... ... : ... .. . ... ... ... : ... .. . ... ... ... : ... .. . ... ... ...
ROW 0D : ... .. . ... ... ... : ... .. . ... ... ... : ... .. . ... ... ... : ... .. . ... ... ... : ... .. . ... ... ... : ... .. . ... ... ... : ... .. . P7F ... ... : ... .. 2 ... ... ... : ... .. . ... ... ... : ... .. . ... ... ... : ... .. . ... ... ... : ... .. . ... ... ... : ... .. . ... ... ...
ROW 0E : ... .. . ... ... ... : ... .. . ... ... ... : ... .. . ... ... ... : --- .. . ... ... ... : ... .. . ... ... ... : --- .. . ... ... ... : --- .. . ... ... ... : --- .. . ... ... ... : --- .. . ... ... ... : ... .. . ... ... ... : ... .. . ... ... ... : ... .. . ... ... ... : ... .. . ... ... ...
ROW 0F : ... .. . ... ... ... : ... .. . ... ... ... : ... .. . ... ... ... : ... .. . ... ... ... : ... .. . ... ... ... : ... .. . ... ... ... : ... .. . P80 ... ... : ... .. . P80 ... ... : ... .. . P80 ... ... : ... .. . ... ... ... : ... .. . ... ... ... : ... .. . ... ... ... : ... .. . ... ... ...
ROW 10 : ... .. . ... ... ... : C-4 02 . P80 ... ... : C#4 00 . P7F ... ... : 9-# 00 F ... ... ... : C#1 12 . ... ... ... : C#3 05 A ... ... ... : C#3 05 A P83 ... ... : C#3 05 9 P7E ... ... : B-2 05 9 P81 ... ... : ... .. . ... ... ... : ... .. . ... ... ... : ... .. . ... ... ... : ... .. . ... ... ...
ROW 11 : ... .. . ... ... ... : F-3 02 . ... ... ... : F#3 00 . P83 ... ... : 2-# 00 7 ... ... ... : ... .. . ... ... ... : ... .. . ... ... ... : C-3 05 . P7E ... ... : ... .. . ... ... ... : ... .. . ... ... ... : ... .. . ... ... ... : ... .. . ... ... ... : ... .. . ... ... ... : ... .. . ... ... ...
ROW 12 : ... .. . ... ... ... : A#2 02 . P81 ... ... : C#3 00 . P89 ... ... : 6-# 00 C ... ... ... : ... .. . ... ... ... : ... .. . ... ... ... : C#3 05 . P83 ... ... : ... .. . ... ... ... : ... .. . ... ... ... : ... .. . ... ... ... : ... .. . ... ... ... : ... .. . ... ... ... : ... .. . ... ... ...
ROW 13 : ... .. . ... ... ... : D#2 02 . ... ... ... : A#2 00 . P75 ... ... : 7-# 00 8 ... ... ... : ... .. . ... ... ... : ... .. . ... ... ... : ... .. . P82 ... ... : ... .. . ... ... ... : ... .. . ... ... ... : ... .. . ... ... ... : ... .. . ... ... ... : ... .. . ... ... ... : ... .. . ... ... ...
ROW 14 : ... .. . ... ... ... : G#1 02 . ... ... ... : G-2 00 . P70 ... ... : 8-# 00 7 ... ... ... : ... .. . ... ... ... : --- .. . ... ... ... : --- .. . ... ... ... : --- .. . ... ... ... : --- .. . ... ... ... : ... .. . ... ... ... : ... .. . ... ... ... : ... .. . ... ... ... : ... .. . ... ... ...
ROW 15 : ... .. . ... ... ... : C#1 02 . ... ... ... : E-2 00 . P7C ... ... : ... .. 6 ... ... ... : ... .. . ... ... ... : ... .. . ... ... ... : ... .. . P80 ... ... : ... .. . P80 ... ... : ... .. . P80 ... ... : ... .. . ... ... ... : ... .. . ... ... ... : ... .. . ... ... ... : ... .. . ... ... ...
ROW 16 : ... .. . ... ... ... : ... .. . ... ... ... : --- .. . ... ... ... : ... .. . ... ... ... : ... .. . ... ... ... : C#3 05 4 ... ... ... : C-3 05 4 P7E ... ... : C#3 05 3 P7E ... ... : B-2 05 3 P81 ... ... : ... .. . ... ... ... : ... .. . ... ... ... : ... .. . ... ... ... : ... .. . ... ... ...
ROW 17 : ... .. . ... ... ... : ... .. . ... ... ... : ... .. . ... ... ... : ... .. 5 ... ... ... : ... .. . ... ... ... : ... .. . ... ... ... : C#3 05 . P83 ... ... : ... .. . ... ... ... : ... .. . ... ... ... : ... .. . ... ... ... : ... .. . ... ... ... : ... .. . ... ... ... : ... .. . ... ... ...
ROW 18 : ... .. . ... ... ... : ... .. . ... ... ... : ... .. . ... ... ... : ... .. . ... ... ... : ... .. . ... ... ... : ... .. . ... ... ... : ... .. . ... ... ... : ... .. . ... ... ... : ... .. . ... ... ... : ... .. . ... ... ... : ... .. . ... ... ... : ... .. . ... ... ... : ... .. . ... ... ...
ROW 19 : ... .. . ... ... ... : ... .. . ... ... ... : ... .. . ... ... ... : ... .. 4 ... ... ... : ... .. . ... ... ... : ... .. . ... ... ... : C-3 05 . P7E ... ... : ... .. . ... ... ... : ... .. . ... ... ... : ... .. . ... ... ... : ... .. . ... ... ... : ... .. . ... ... ... : ... .. . ... ... ...
ROW 1A : ... .. . ... ... ... : ... .. . ... ... ... : ... .. . ... ... ... : ... .. . ... ... ... : ... .. . ... ... ... : --- .. . ... ... ... : --- .. . ... ... ... : --- .. . ... ... ... : --- .. . ... ... ... : ... .. . ... ... ... : ... .. . ... ... ... : ... .. . ... ... ... : ... .. . ... ... ...
ROW 1B : ... .. . ... ... ... : ... .. . ... ... ... : ... .. . ... ... ... : ... .. 3 ... ... ... : ... .. . ... ... ... : ... .. . ... ... ... : ... .. . P80 ... ... : ... .. . P80 ... ... : ... .. . P80 ... ... : ... .. . ... ... ... : ... .. . ... ... ... : ... .. . ... ... ... : ... .. . ... ... ...
ROW 1C : ... .. . ... ... ... : ... .. . ... ... ... : ... .. . ... ... ... : D-# 00 A ... ... ... : ... .. . ... ... ... : G#3 05 A ... ... ... : G#3 05 A P82 ... ... : G#3 05 9 P7E ... ... : D#3 05 9 P81 ... ... : ... .. . ... ... ... : ... .. . ... ... ... : ... .. . ... ... ... : ... .. . ... ... ...
ROW 1D : ... .. . ... ... ... : ... .. . ... ... ... : ... .. . ... ... ... : E-# 00 4 ... ... ... : ... .. . ... ... ... : ... .. . ... ... ... : ... .. . P83 ... ... : ... .. . ... ... ... : ... .. . ... ... ... : ... .. . ... ... ... : ... .. . ... ... ... : ... .. . ... ... ... : ... .. . ... ... ...
ROW 1E : ... .. . ... ... ... : ... .. . ... ... ... : ... .. . ... ... ... : D-# 00 2 ... ... ... : ... .. . ... ... ... : ... .. . ... ... ... : ... .. . P84 ... ... : ... .. . ... ... ... : ... .. . ... ... ... : ... .. . ... ... ... : ... .. . ... ... ... : ... .. . ... ... ... : ... .. . ... ... ...
ROW 1F : ... .. . ... ... ... : ... .. . ... ... ... : ... .. . ... ... ... : ... .. 1 ... ... ... : ... .. . ... ... ... : ... .. . ... ... ... : ... .. . P83 ... ... : ... .. . ... ... ... : ... .. . ... ... ... : ... .. . ... ... ... : ... .. . ... ... ... : ... .. . ... ... ... : ... .. . ... ... ...
ROW 20 : ... .. . ... ... ... : ... .. . ... ... ... : ... .. . ... ... ... : ... .. . ... ... ... : ... .. . ... ... ... : --- .. . ... ... ... : --- .. . ... ... ... : --- .. . ... ... ... : --- .. . ... ... ... : ... .. . ... ... ... : ... .. . ... ... ... : ... .. . ... ... ... : ... .. . ... ... ...
ROW 21 : ... .. . ... ... ... : ... .. . ... ... ... : ... .. . ... ... ... : --- .. . ... ... ... : ... .. . ... ... ... : ... .. . ... ... ... : ... .. . P80 ... ... : ... .. . P80 ... ... : ... .. . P80 ... ... : ... .. . ... ... ... : ... .. . ... ... ... : ... .. . ... ... ... : ... .. . ... ... ...
ROW 22 : ... .. . ... ... ... : ... .. . ... ... ... : ... .. . ... ... ... : D-# 00 A ... ... ... : ... .. . ... ... ... : G#3 05 4 ... ... ... : G#3 05 . P84 ... ... : G#3 05 . P7E ... ... : D#3 05 . P81 ... ... : ... .. . ... ... ... : ... .. . ... ... ... : ... .. . ... ... ... : ... .. . ... ... ...
ROW 23 : ... .. . ... ... ... : ... .. . ... ... ... : ... .. . ... ... ... : E-# 00 4 ... ... ... : ... .. . ... ... ... : ... .. . ... ... ... : ... .. . P83 ... ... : ... .. . ... ... ... : ... .. . ... ... ... : ... .. . ... ... ... : ... .. . ... ... ... : ... .. . ... ... ... : ... .. . ... ... ...
ROW 24 : ... .. . ... ... ... : ... .. . ... ... ... : ... .. . ... ... ... : D-# 00 2 ... ... ... : ... .. . ... ... ... : ... .. . ... ... ... : ... .. . P82 ... ... : ... .. . ... ... ... : ... .. . ... ... ... : ... .. . ... ... ... : ... .. . ... ... ... : ... .. . ... ... ... : ... .. . ... ... ...
ROW 25 : ... .. . ... ... ... : ... .. . ... ... ... : ... .. . ... ... ... : ... .. 1 ... ... ... : ... .. . ... ... ... : ... .. . ... ... ... : ... .. . P83 ... ... : ... .. . ... ... ... : ... .. . ... ... ... : ... .. . ... ... ... : ... .. . ... ... ... : ... .. . ... ... ... : ... .. . ... ... ...
ROW 26 : ... .. . ... ... ... : ... .. . ... ... ... : ... .. . ... ... ... : ... .. . ... ... ... : ... .. . ... ... ... : ... .. . ... ... ... : ... .. . P84 ... ... : ... .. 8 ... ... ... : ... .. . ... ... ... : ... .. . ... ... ... : ... .. . ... ... ... : ... .. . ... ... ... : ... .. . ... ... ...
ROW 27 : ... .. . ... ... ... : ... .. . ... ... ... : ... .. . ... ... ... : --- .. . ... ... ... : ... .. . ... ... ... : --- .. . ... ... ... : --- .. . ... ... ... : --- .. . ... ... ... : --- .. . ... ... ... : ... .. . ... ... ... : ... .. . ... ... ... : ... .. . ... ... ... : ... .. . ... ... ...
ROW 28 : ... .. . ... ... ... : ... .. . ... ... ... : ... .. . ... ... ... : ... .. . ... ... ... : ... .. . ... ... ... : ... .. . ... ... ... : ... .. . P80 ... ... : ... .. . P80 ... ... : ... .. . P80 ... ... : ... .. . ... ... ... : ... .. . ... ... ... : ... .. . ... ... ... : ... .. . ... ... ...
ROW 29 : ... .. . ... ... ... : C-4 02 . P80 ... ... : F#3 00 . P78 ... ... : 1-# 00 F ... ... ... : C-1 12 . ... ... ... : G#1 06 F ... ... ... : G#1 06 F P81 ... ... : ... .. . ... ... ... : G#1 06 E P7F ... ... : G#2 06 B P81 ... ... : ... .. . ... ... ... : ... .. . ... ... ... : ... .. . ... ... ...
ROW 2A : ... .. . ... ... ... : F-3 02 . ... ... ... : C#3 00 . P7E ... ... : 2-# 00 7 ... ... ... : ... .. . ... ... ... : ... .. . ... ... ... : G-1 06 . P80 ... ... : ... .. . ... ... ... : ... .. . ... ... ... : ... .. . ... ... ... : ... .. . ... ... ... : ... .. . ... ... ... : ... .. . ... ... ...
ROW 2B : ... .. . ... ... ... : A#2 02 . P81 ... ... : A-2 00 . P86 ... ... : 1-# 00 4 ... ... ... : ... .. . ... ... ... : ... .. . ... ... ... : ... .. . ... ... ... : ... .. . ... ... ... : ... .. . ... ... ... : ... .. . ... ... ... : ... .. . ... ... ... : ... .. . ... ... ... : ... .. . ... ... ...
ROW 2C : ... .. . ... ... ... : D#2 02 . ... ... ... : --- .. . ... ... ... : ... .. 2 ... ... ... : ... .. . ... ... ... : G#1 07 . ... ... ... : G#1 07 . P81 ... ... : ... .. . ... ... ... : G#1 07 . ... ... ... : G#2 07 . ... ... ... : ... .. . ... ... ... : ... .. . ... ... ... : ... .. . ... ... ...
ROW 2D : ... .. . ... ... ... : G#1 02 . ... ... ... : ... .. . ... ... ... : ... .. 1 ... ... ... : ... .. . ... ... ... : ... .. . ... ... ... : ... .. . P80 ... ... : ... .. . ... ... ... : ... .. . ... ... ... : ... .. A ... ... ... : ... .. . ... ... ... : ... .. . ... ... ... : ... .. . ... ... ...
ROW 2E : ... .. . ... ... ... : C#1 02 . ... ... ... : ... .. . ... ... ... : --- .. . ... ... ... : ... .. . ... ... ... : ... .. . ... ... ... : ... .. . P81 ... ... : ... .. . ... ... ... : ... .. . ... ... ... : ... .. . ... ... ... : ... .. . ... ... ... : ... .. . ... ... ... : ... .. . ... ... ...
ROW 2F : ... .. . ... ... ... : ... .. . ... ... ... : ... .. . ... ... ... : ... .. . ... ... ... : ... .. . ... ... ... : G#1 08 . ... ... ... : G-1 08 . P80 ... ... : ... .. . ... ... ... : G#1 08 . ... ... ... : G#2 08 . ... ... ... : ... .. . ... ... ... : ... .. . ... ... ... : ... .. . ... ... ...
ROW 30 : ... .. . ... ... ... : ... .. . ... ... ... : ... .. . ... ... ... : ... .. . ... ... ... : ... .. . ... ... ... : ... .. . ... ... ... : G#1 08 . P81 ... ... : ... .. . ... ... ... : ... .. . ... ... ... : ... .. . ... ... ... : ... .. . ... ... ... : ... .. . ... ... ... : ... .. . ... ... ...
ROW 31 : ... .. . ... ... ... : ... .. . ... ... ... : ... .. . ... ... ... : ... .. . ... ... ... : ... .. . ... ... ... : ... .. . ... ... ... : ... .. . P80 ... ... : ... .. . ... ... ... : ... .. D ... ... ... : ... .. 9 ... ... ... : ... .. . ... ... ... : ... .. . ... ... ... : ... .. . ... ... ...
ROW 32 : ... .. . ... ... ... : ... .. . ... ... ... : ... .. . ... ... ... : ... .. . ... ... ... : ... .. . ... ... ... : G#1 09 . ... ... ... : G#1 09 . P81 ... ... : ... .. . ... ... ... : G#1 09 . ... ... ... : G#2 09 . ... ... ... : ... .. . ... ... ... : ... .. . ... ... ... : ... .. . ... ... ...
ROW 33 : ... .. . ... ... ... : ... .. . ... ... ... : ... .. . ... ... ... : ... .. . ... ... ... : ... .. . ... ... ... : ... .. . ... ... ... : G-1 09 . P80 ... ... : ... .. . ... ... ... : ... .. . ... ... ... : ... .. . ... ... ... : ... .. . ... ... ... : ... .. . ... ... ... : ... .. . ... ... ...
ROW 34 : ... .. . ... ... ... : ... .. . ... ... ... : ... .. . ... ... ... : ... .. . ... ... ... : ... .. . ... ... ... : ... .. . ... ... ... : G#1 09 . P81 ... ... : ... .. . ... ... ... : ... .. . ... ... ... : ... .. . ... ... ... : ... .. . ... ... ... : ... .. . ... ... ... : ... .. . ... ... ...
ROW 35 : ... .. . ... ... ... : ... .. . ... ... ... : ... .. . ... ... ... : D-# 00 A ... ... ... : ... .. . ... ... ... : ... .. . ... ... ... : ... .. . P80 ... ... : ... .. . ... ... ... : ... .. . ... ... ... : ... .. 8 ... ... ... : ... .. . ... ... ... : ... .. . ... ... ... : ... .. . ... ... ...
ROW 36 : ... .. . ... ... ... : ... .. . ... ... ... : ... .. . ... ... ... : E-# 00 4 ... ... ... : ... .. . ... ... ... : ... .. . ... ... ... : ... .. . P81 ... ... : ... .. . ... ... ... : ... .. . ... ... ... : ... .. . ... ... ... : ... .. . ... ... ... : ... .. . ... ... ... : ... .. . ... ... ...
ROW 37 : ... .. . ... ... ... : ... .. . ... ... ... : ... .. . ... ... ... : D-# 00 2 ... ... ... : ... .. . ... ... ... : ... .. . ... ... ... : G-1 09 . P80 ... ... : ... .. . ... ... ... : ... .. . ... ... ... : ... .. . ... ... ... : ... .. . ... ... ... : ... .. . ... ... ... : ... .. . ... ... ...
ROW 38 : ... .. . ... ... ... : ... .. . ... ... ... : ... .. . ... ... ... : ... .. 1 ... ... ... : ... .. . ... ... ... : G#1 08 . ... ... ... : G-1 08 . ... ... ... : ... .. . ... ... ... : G#1 08 . ... ... ... : G#2 08 . ... ... ... : ... .. . ... ... ... : ... .. . ... ... ... : ... .. . ... ... ...
ROW 39 : ... .. . ... ... ... : ... .. . ... ... ... : ... .. . ... ... ... : ... .. . ... ... ... : ... .. . ... ... ... : ... .. . ... ... ... : G#1 08 . P81 ... ... : ... .. . ... ... ... : ... .. C ... ... ... : ... .. 7 ... ... ... : ... .. . ... ... ... : ... .. . ... ... ... : ... .. . ... ... ...
ROW 3A : ... .. . ... ... ... : ... .. . ... ... ... : ... .. . ... ... ... : --- .. . ... ... ... : ... .. . ... ... ... : ... .. . ... ... ... : ... .. . P80 ... ... : ... .. . ... ... ... : ... .. . ... ... ... : ... .. . ... ... ... : ... .. . ... ... ... : ... .. . ... ... ... : ... .. . ... ... ...
ROW 3B : ... .. . ... ... ... : ... .. . ... ... ... : ... .. . ... ... ... : D-# 00 A ... ... ... : ... .. . ... ... ... : G#1 07 . ... ... ... : G#1 07 . P81 ... ... : ... .. . ... ... ... : G#1 07 . ... ... ... : G#2 07 . ... ... ... : ... .. . ... ... ... : ... .. . ... ... ... : ... .. . ... ... ...
ROW 3C : ... .. . ... ... ... : ... .. . ... ... ... : ... .. . ... ... ... : E-# 00 4 ... ... ... : ... .. . ... ... ... : ... .. . ... ... ... : G-1 07 . P80 ... ... : ... .. . ... ... ... : ... .. . ... ... ... : ... .. . ... ... ... : ... .. . ... ... ... : ... .. . ... ... ... : ... .. . ... ... ...
ROW 3D : ... .. . ... ... ... : ... .. . ... ... ... : ... .. . ... ... ... : D-# 00 2 ... ... ... : ... .. . ... ... ... : ... .. . ... ... ... : G#1 07 . P81 ... ... : ... .. . ... ... ... : ... .. . ... ... ... : ... .. 6 ... ... ... : ... .. . ... ... ... : ... .. . ... ... ... : ... .. . ... ... ...
ROW 3E : ... .. . ... ... ... : ... .. . ... ... ... : ... .. . ... ... ... : ... .. 1 ... ... ... : ... .. . ... ... ... : G#1 06 . ... ... ... : G#1 06 . P80 ... ... : ... .. . ... ... ... : G#1 06 . ... ... ... : G#2 06 . ... ... ... : ... .. . ... ... ... : ... .. . ... ... ... : ... .. . ... ... ...
ROW 3F : ... .. . ... ... ... : ... .. . ... ... ... : ... .. . ... ... ... : ... .. . ... ... ... : ... .. . ... ... ... : ... .. . ... ... ... : ... .. . P81 ... ... : ... .. . ... ... ... : ... .. . ... ... ... : ... .. . ... ... ... : ... .. . ... ... ... : ... .. . ... ... ... : ... .. . ... ... ...
ROW 40 : ... .. . ... ... ... : ... .. . ... ... ... : ... .. . ... ... ... : --- .. . ... ... ... : ... .. . ... ... ... : ... .. . ... ... ... : G-1 06 . P80 ... ... : ... .. . ... ... ... : ... .. . ... ... ... : ... .. . ... ... ... : ... .. . ... ... ... : ... .. . ... ... ... : ... .. . ... ... ...
ROW 41 : ... .. . ... ... ... : ... .. . ... ... ... : ... .. . ... ... ... : ... .. . ... ... ... : ... .. . ... ... ... : ... .. . ... ... ... : G#1 06 . P81 ... ... : ... .. . ... ... ... : ... .. B ... ... ... : ... .. 5 ... ... ... : ... .. . ... ... ... : ... .. . ... ... ... : ... .. . ... ... ...
ROW 42 : ... .. . ... ... ... : C-4 02 . P80 ... ... : C#4 00 . P7F ... ... : 9-# 00 F ... ... ... : C#1 12 . ... ... ... : D-2 06 . ... ... ... : D-2 06 . P80 ... ... : ... .. . ... ... ... : D-2 06 . ... ... ... : D-3 06 . ... ... ... : ... .. . ... ... ... : ... .. . ... ... ... : ... .. . ... ... ...
ROW 43 : ... .. . ... ... ... : F-3 02 . ... ... ... : F#3 00 . P83 ... ... : 2-# 00 7 ... ... ... : ... .. . ... ... ... : ... .. . ... ... ... : ... .. . P81 ... ... : ... .. . ... ... ... : ... .. . ... ... ... : ... .. . ... ... ... : ... .. . ... ... ... : ... .. . ... ... ... : ... .. . ... ... ...
ROW 44 : ... .. . ... ... ... : A#2 02 . P81 ... ... : C#3 00 . P89 ... ... : 6-# 00 C ... ... ... : ... .. . ... ... ... : ... .. . ... ... ... : C#2 06 . P7F ... ... : ... .. . ... ... ... : ... .. . ... ... ... : ... .. . ... ... ... : ... .. . ... ... ... : ... .. . ... ... ... : ... .. . ... ... ...
ROW 45 : ... .. . ... ... ... : D#2 02 . ... ... ... : A#2 00 . P75 ... ... : 7-# 00 8 ... ... ... : ... .. . ... ... ... : D-2 08 . ... ... ... : D-2 08 . P82 ... ... : ... .. . ... ... ... : D-2 08 . ... ... ... : D-3 08 4 ... ... ... : ... .. . ... ... ... : ... .. . ... ... ... : ... .. . ... ... ...
ROW 46 : ... .. . ... ... ... : G#1 02 . ... ... ... : G-2 00 . P70 ... ... : 8-# 00 7 ... ... ... : ... .. . ... ... ... : ... .. . ... ... ... : ... .. . P81 ... ... : ... .. . ... ... ... : ... .. . ... ... ... : ... .. . ... ... ... : ... .. . ... ... ... : ... .. . ... ... ... : ... .. . ... ... ...
ROW 47 : ... .. . ... ... ... : C#1 02 . ... ... ... : E-2 00 . P7C ... ... : ... .. 6 ... ... ... : ... .. . ... ... ... : ... .. . ... ... ... : ... .. . ... ... ... : ... .. . ... ... ... : ... .. . ... ... ... : ... .. . ... ... ... : ... .. . ... ... ... : ... .. . ... ... ... : ... .. . ... ... ...
ROW 48 : ... .. . ... ... ... : ... .. . ... ... ... : --- .. . ... ... ... : ... .. . ... ... ... : ... .. . ... ... ... : D-2 09 . ... ... ... : D-2 09 . P82 ... ... : ... .. . ... ... ... : D-2 09 . ... ... ... : D-3 09 . ... ... ... : ... .. . ... ... ... : ... .. . ... ... ... : ... .. . ... ... ...
ROW 49 : ... .. . ... ... ... : ... .. . ... ... ... : ... .. . ... ... ... : ... .. 5 ... ... ... : ... .. . ... ... ... : ... .. . ... ... ... : ... .. . ... ... ... : ... .. . ... ... ... : ... .. A ... ... ... : ... .. 3 ... ... ... : ... .. . ... ... ... : ... .. . ... ... ... : ... .. . ... ... ...
ROW 4A : ... .. . ... ... ... : ... .. . ... ... ... : ... .. . ... ... ... : ... .. . ... ... ... : ... .. . ... ... ... : ... .. . ... ... ... : ... .. . P81 ... ... : ... .. . ... ... ... : ... .. . ... ... ... : ... .. . ... ... ... : ... .. . ... ... ... : ... .. . ... ... ... : ... .. . ... ... ...
ROW 4B : ... .. . ... ... ... : ... .. . ... ... ... : ... .. . ... ... ... : ... .. 4 ... ... ... : ... .. . ... ... ... : D-2 07 . ... ... ... : D-2 07 . P80 ... ... : ... .. . ... ... ... : D-2 07 . ... ... ... : D-3 07 . ... ... ... : ... .. . ... ... ... : ... .. . ... ... ... : ... .. . ... ... ...
ROW 4C : ... .. . ... ... ... : ... .. . ... ... ... : ... .. . ... ... ... : ... .. . ... ... ... : ... .. . ... ... ... : ... .. . ... ... ... : ... .. . P81 ... ... : ... .. . ... ... ... : ... .. . ... ... ... : ... .. . ... ... ... : ... .. . ... ... ... : ... .. . ... ... ... : ... .. . ... ... ...
ROW 4D : ... .. . ... ... ... : ... .. . ... ... ... : ... .. . ... ... ... : ... .. 3 ... ... ... : ... .. . ... ... ... : ... .. . ... ... ... : C#2 07 . P7F ... ... : ... .. . ... ... ... : ... .. . ... ... ... : ... .. 2 ... ... ... : ... .. . ... ... ... : ... .. . ... ... ... : ... .. . ... ... ...
ROW 4E : ... .. . ... ... ... : ... .. . ... ... ... : ... .. . ... ... ... : D-# 00 A ... ... ... : ... .. . ... ... ... : D-2 06 . ... ... ... : D-2 06 . P81 ... ... : ... .. . ... ... ... : D-2 06 . ... ... ... : D-3 06 . ... ... ... : ... .. . ... ... ... : ... .. . ... ... ... : ... .. . ... ... ...
ROW 4F : ... .. . ... ... ... : ... .. . ... ... ... : ... .. . ... ... ... : E-# 00 4 ... ... ... : ... .. . ... ... ... : ... .. . ... ... ... : ... .. . P80 ... ... : ... .. . ... ... ... : ... .. . ... ... ... : ... .. . ... ... ... : ... .. . ... ... ... : ... .. . ... ... ... : ... .. . ... ... ...
ROW 50 : ... .. . ... ... ... : ... .. . ... ... ... : ... .. . ... ... ... : D-# 00 2 ... ... ... : ... .. . ... ... ... : ... .. . ... ... ... : ... .. . P81 ... ... : ... .. . ... ... ... : ... .. . ... ... ... : ... .. . ... ... ... : ... .. . ... ... ... : ... .. . ... ... ... : ... .. . ... ... ...
ROW 51 : ... .. . ... ... ... : ... .. . ... ... ... : ... .. . ... ... ... : ... .. 1 ... ... ... : ... .. . ... ... ... : D-2 08 . ... ... ... : C#2 08 . P7F ... ... : ... .. . ... ... ... : D-2 08 9 ... ... ... : D-3 08 1 ... ... ... : ... .. . ... ... ... : ... .. . ... ... ... : ... .. . ... ... ...
ROW 52 : ... .. . ... ... ... : ... .. . ... ... ... : ... .. . ... ... ... : ... .. . ... ... ... : ... .. . ... ... ... : ... .. . ... ... ... : D-2 08 . P81 ... ... : ... .. . ... ... ... : ... .. . ... ... ... : ... .. . ... ... ... : ... .. . ... ... ... : ... .. . ... ... ... : ... .. . ... ... ...
ROW 53 : ... .. . ... ... ... : ... .. . ... ... ... : ... .. . ... ... ... : --- .. . ... ... ... : ... .. . ... ... ... : ... .. . ... ... ... : ... .. . P80 ... ... : ... .. . ... ... ... : ... .. . ... ... ... : ... .. . ... ... ... : ... .. . ... ... ... : ... .. . ... ... ... : ... .. . ... ... ...
ROW 54 : ... .. . ... ... ... : ... .. . ... ... ... : ... .. . ... ... ... : D-# 00 A ... ... ... : ... .. . ... ... ... : D-2 09 . ... ... ... : D-2 09 . P81 ... ... : ... .. . ... ... ... : D-2 09 . ... ... ... : D-3 09 . ... ... ... : ... .. . ... ... ... : ... .. . ... ... ... : ... .. . ... ... ...
ROW 55 : ... .. . ... ... ... : ... .. . ... ... ... : ... .. . ... ... ... : E-# 00 4 ... ... ... : ... .. . ... ... ... : ... .. . ... ... ... : C#2 09 . P7F ... ... : ... .. . ... ... ... : ... .. . ... ... ... : --- .. . ... ... ... : ... .. . ... ... ... : ... .. . ... ... ... : ... .. . ... ... ...
ROW 56 : ... .. . ... ... ... : ... .. . ... ... ... : ... .. . ... ... ... : D-# 00 2 ... ... ... : ... .. . ... ... ... : ... .. . ... ... ... : D-2 09 . P82 ... ... : ... .. . ... ... ... : ... .. . ... ... ... : ... .. . P80 ... ... : ... .. . ... ... ... : ... .. . ... ... ... : ... .. . ... ... ...
ROW 57 : ... .. . ... ... ... : ... .. . ... ... ... : ... .. . ... ... ... : ... .. 1 ... ... ... : ... .. . ... ... ... : D-2 07 . ... ... ... : D-2 07 . P81 ... ... : ... .. . ... ... ... : D-2 07 . ... ... ... : ... .. . ... ... ... : ... .. . ... ... ... : ... .. . ... ... ... : ... .. . ... ... ...
ROW 58 : ... .. . ... ... ... : ... .. . ... ... ... : ... .. . ... ... ... : ... .. . ... ... ... : ... .. . ... ... ... : ... .. . ... ... ... : ... .. . ... ... ... : ... .. . ... ... ... : ... .. . ... ... ... : ... .. . ... ... ... : ... .. . ... ... ... : ... .. . ... ... ... : ... .. . ... ... ...
ROW 59 : ... .. . ... ... ... : ... .. . ... ... ... : ... .. . ... ... ... : --- .. . ... ... ... : ... .. . ... ... ... : ... .. . ... ... ... : ... .. . P82 ... ... : ... .. . ... ... ... : ... .. 8 ... ... ... : ... .. . ... ... ... : ... .. . ... ... ... : ... .. . ... ... ... : ... .. . ... ... ...
ROW 5A : ... .. . ... ... ... : ... .. . ... ... ... : ... .. . ... ... ... : ... .. . ... ... ... : ... .. . ... ... ... : ... .. . ... ... ... : C#2 07 . P7F ... ... : ... .. . ... ... ... : ... .. . ... ... ... : ... .. . ... ... ... : ... .. . ... ... ... : ... .. . ... ... ... : ... .. . ... ... ...
ROW 5B : ... .. . ... ... ... : C-4 02 . P80 ... ... : F#3 00 . P78 ... ... : 1-# 00 F ... ... ... : C-1 12 . ... ... ... : C#2 06 . ... ... ... : C#2 06 . P81 ... ... : ... .. . ... ... ... : C#2 06 . ... ... ... : ... .. . ... ... ... : ... .. . ... ... ... : ... .. . ... ... ... : ... .. . ... ... ...
ROW 5C : ... .. . ... ... ... : F-3 02 . ... ... ... : C#3 00 . P7E ... ... : 2-# 00 7 ... ... ... : ... .. . ... ... ... : ... .. . ... ... ... : ... .. . P80 ... ... : ... .. . ... ... ... : ... .. . ... ... ... : ... .. . ... ... ... : ... .. . ... ... ... : ... .. . ... ... ... : ... .. . ... ... ...
ROW 5D : ... .. . ... ... ... : A#2 02 . P81 ... ... : A-2 00 . P86 ... ... : 1-# 00 4 ... ... ... : ... .. . ... ... ... : ... .. . ... ... ... : ... .. . P81 ... ... : ... .. . ... ... ... : ... .. . ... ... ... : ... .. . ... ... ... : ... .. . ... ... ... : ... .. . ... ... ... : ... .. . ... ... ...
ROW 5E : ... .. . ... ... ... : D#2 02 . ... ... ... : --- .. . ... ... ... : ... .. 2 ... ... ... : ... .. . ... ... ... : C#2 09 . ... ... ... : C-2 09 . P7F ... ... : ... .. . ... ... ... : C#2 09 . ... ... ... : ... .. . ... ... ... : ... .. . ... ... ... : ... .. . ... ... ... : ... .. . ... ... ...
ROW 5F : ... .. . ... ... ... : G#1 02 . ... ... ... : ... .. . ... ... ... : ... .. 1 ... ... ... : ... .. . ... ... ... : ... .. . ... ... ... : C#2 09 . P81 ... ... : ... .. . ... ... ... : ... .. . ... ... ... : ... .. . ... ... ... : ... .. . ... ... ... : ... .. . ... ... ... : ... .. . ... ... ...
ROW 60 : ... .. . ... ... ... : C#1 02 . ... ... ... : ... .. . ... ... ... : --- .. . ... ... ... : ... .. . ... ... ... : ... .. . ... ... ... : ... .. . P80 ... ... : ... .. . ... ... ... : ... .. . ... ... ... : ... .. . ... ... ... : ... .. . ... ... ... : ... .. . ... ... ... : ... .. . ... ... ...
ROW 61 : ... .. . ... ... ... : ... .. . ... ... ... : ... .. . ... ... ... : ... .. . ... ... ... : ... .. . ... ... ... : C#2 06 . ... ... ... : C#2 06 . P81 ... ... : ... .. . ... ... ... : C#2 06 7 ... ... ... : ... .. . ... ... ... : ... .. . ... ... ... : ... .. . ... ... ... : ... .. . ... ... ...
ROW 62 : ... .. . ... ... ... : ... .. . ... ... ... : ... .. . ... ... ... : ... .. . ... ... ... : ... .. . ... ... ... : ... .. . ... ... ... : C-2 06 . P7F ... ... : ... .. . ... ... ... : ... .. . ... ... ... : ... .. . ... ... ... : ... .. . ... ... ... : ... .. . ... ... ... : ... .. . ... ... ...
ROW 63 : ... .. . ... ... ... : ... .. . ... ... ... : ... .. . ... ... ... : ... .. . ... ... ... : ... .. . ... ... ... : ... .. . ... ... ... : C#2 06 . P81 ... ... : ... .. . ... ... ... : ... .. . ... ... ... : ... .. . ... ... ... : ... .. . ... ... ... : ... .. . ... ... ... : ... .. . ... ... ...
ROW 64 : ... .. . ... ... ... : ... .. . ... ... ... : ... .. . ... ... ... : ... .. . ... ... ... : ... .. . ... ... ... : C#2 09 . ... ... ... : C#2 09 . P80 ... ... : ... .. . ... ... ... : C#2 09 . ... ... ... : ... .. . ... ... ... : ... .. . ... ... ... : ... .. . ... ... ... : ... .. . ... ... ...
ROW 65 : ... .. . ... ... ... : ... .. . ... ... ... : ... .. . ... ... ... : ... .. . ... ... ... : ... .. . ... ... ... : ... .. . ... ... ... : ... .. . P81 ... ... : ... .. . ... ... ... : ... .. . ... ... ... : ... .. . ... ... ... : ... .. . ... ... ... : ... .. . ... ... ... : ... .. . ... ... ...
ROW 66 : ... .. . ... ... ... : ... .. . ... ... ... : ... .. . ... ... ... : ... .. . ... ... ... : ... .. . ... ... ... : ... .. . ... ... ... : ... .. . P82 ... ... : ... .. . ... ... ... : ... .. . ... ... ... : ... .. . ... ... ... : ... .. . ... ... ... : ... .. . ... ... ... : ... .. . ... ... ...
ROW 67 : ... .. . ... ... ... : ... .. . ... ... ... : ... .. . ... ... ... : D-# 00 A ... ... ... : ... .. . ... ... ... : C#2 06 . ... ... ... : C#2 06 . ... ... ... : ... .. . ... ... ... : C#2 06 . ... ... ... : ... .. . ... ... ... : ... .. . ... ... ... : ... .. . ... ... ... : ... .. . ... ... ...
ROW 68 : ... .. . ... ... ... : ... .. . ... ... ... : ... .. . ... ... ... : E-# 00 4 ... ... ... : ... .. . ... ... ... : ... .. . ... ... ... : ... .. . P81 ... ... : ... .. . ... ... ... : ... .. . ... ... ... : ... .. . ... ... ... : ... .. . ... ... ... : ... .. . ... ... ... : ... .. . ... ... ...
ROW 69 : ... .. . ... ... ... : ... .. . ... ... ... : ... .. . ... ... ... : D-# 00 2 ... ... ... : ... .. . ... ... ... : ... .. . ... ... ... : ... .. . ... ... ... : ... .. . ... ... ... : ... .. 6 ... ... ... : ... .. . ... ... ... : ... .. . ... ... ... : ... .. . ... ... ... : ... .. . ... ... ...
ROW 6A : ... .. . ... ... ... : ... .. . ... ... ... : ... .. . ... ... ... : ... .. 1 ... ... ... : ... .. . ... ... ... : C#2 09 . ... ... ... : C#2 09 . P82 ... ... : ... .. . ... ... ... : C#2 09 . ... ... ... : ... .. . ... ... ... : ... .. . ... ... ... : ... .. . ... ... ... : ... .. . ... ... ...
ROW 6B : ... .. . ... ... ... : ... .. . ... ... ... : ... .. . ... ... ... : ... .. . ... ... ... : ... .. . ... ... ... : ... .. . ... ... ... : C-2 09 . P7F ... ... : ... .. . ... ... ... : ... .. . ... ... ... : ... .. . ... ... ... : ... .. . ... ... ... : ... .. . ... ... ... : ... .. . ... ... ...
ROW 6C : ... .. . ... ... ... : ... .. . ... ... ... : ... .. . ... ... ... : --- .. . ... ... ... : ... .. . ... ... ... : ... .. . ... ... ... : C#2 09 . P81 ... ... : ... .. . ... ... ... : ... .. . ... ... ... : ... .. . ... ... ... : ... .. . ... ... ... : ... .. . ... ... ... : ... .. . ... ... ...
ROW 6D : ... .. . ... ... ... : ... .. . ... ... ... : ... .. . ... ... ... : D-# 00 A ... ... ... : ... .. . ... ... ... : C#2 06 . ... ... ... : C#2 06 . P80 ... ... : ... .. . ... ... ... : C#2 06 . ... ... ... : ... .. . ... ... ... : ... .. . ... ... ... : ... .. . ... ... ... : ... .. . ... ... ...
ROW 6E : ... .. . ... ... ... : ... .. . ... ... ... : ... .. . ... ... ... : E-# 00 4 ... ... ... : ... .. . ... ... ... : ... .. . ... ... ... : ... .. . P81 ... ... : ... .. . ... ... ... : ... .. . ... ... ... : ... .. . ... ... ... : ... .. . ... ... ... : ... .. . ... ... ... : ... .. . ... ... ...
ROW 6F : ... .. . ... ... ... : ... .. . ... ... ... : ... .. . ... ... ... : D-# 00 2 ... ... ... : ... .. . ... ... ... : ... .. . ... ... ... : C-2 06 . P7F ... ... : ... .. . ... ... ... : ... .. . ... ... ... : ... .. . ... ... ... : ... .. . ... ... ... : ... .. . ... ... ... : ... .. . ... ... ...
ROW 70 : ... .. . ... ... ... : ... .. . ... ... ... : ... .. . ... ... ... : ... .. 1 ... ... ... : ... .. . ... ... ... : C#2 09 . ... ... ... : C#2 09 . P81 ... ... : ... .. . ... ... ... : C#2 09 . ... ... ... : ... .. . ... ... ... : ... .. . ... ... ... : ... .. . ... ... ... : ... .. . ... ... ...
ROW 71 : ... .. . ... ... ... : ... .. . ... ... ... : ... .. . ... ... ... : ... .. . ... ... ... : ... .. . ... ... ... : ... .. . ... ... ... : ... .. . P80 ... ... : ... .. . ... ... ... : ... .. 5 ... ... ... : ... .. . ... ... ... : ... .. . ... ... ... : ... .. . ... ... ... : ... .. . ... ... ...
ROW 72 : ... .. . ... ... ... : ... .. . ... ... ... : ... .. . ... ... ... : --- .. . ... ... ... : ... .. . ... ... ... : ... .. . ... ... ... : ... .. . P81 ... ... : ... .. . ... ... ... : ... .. . ... ... ... : ... .. . ... ... ... : ... .. . ... ... ... : ... .. . ... ... ... : ... .. . ... ... ...
ROW 73 : ... .. . ... ... ... : ... .. . ... ... ... : ... .. . ... ... ... : ... .. . ... ... ... : ... .. . ... ... ... : ... .. . ... ... ... : C-2 09 . P7F ... ... : ... .. . ... ... ... : ... .. . ... ... ... : ... .. . ... ... ... : ... .. . ... ... ... : ... .. . ... ... ... : ... .. . ... ... ...
ROW 74 : ... .. . ... ... ... : C-4 02 . P80 ... ... : C#4 00 . P7F ... ... : 9-# 00 F ... ... ... : C#1 12 . ... ... ... : F#1 06 . ... ... ... : F#1 06 . P81 ... ... : ... .. . ... ... ... : F#1 06 . ... ... ... : ... .. . ... ... ... : ... .. . ... ... ... : ... .. . ... ... ... : ... .. . ... ... ...
ROW 75 : ... .. . ... ... ... : F-3 02 . ... ... ... : F#3 00 . P83 ... ... : 2-# 00 7 ... ... ... : ... .. . ... ... ... : ... .. . ... ... ... : ... .. . P80 ... ... : ... .. . ... ... ... : ... .. . ... ... ... : ... .. . ... ... ... : ... .. . ... ... ... : ... .. . ... ... ... : ... .. . ... ... ...
ROW 76 : ... .. . ... ... ... : A#2 02 . P81 ... ... : C#3 00 . P89 ... ... : 6-# 00 C ... ... ... : ... .. . ... ... ... : ... .. . ... ... ... : ... .. . P81 ... ... : ... .. . ... ... ... : ... .. . ... ... ... : ... .. . ... ... ... : ... .. . ... ... ... : ... .. . ... ... ... : ... .. . ... ... ...
ROW 77 : ... .. . ... ... ... : D#2 02 . ... ... ... : A#2 00 . P75 ... ... : 7-# 00 8 ... ... ... : ... .. . ... ... ... : ... .. . ... ... ... : F-1 06 . P80 ... ... : ... .. . ... ... ... : ... .. . ... ... ... : ... .. . ... ... ... : ... .. . ... ... ... : ... .. . ... ... ... : ... .. . ... ... ...
ROW 78 : ... .. . ... ... ... : G#1 02 . ... ... ... : G-2 00 . P70 ... ... : 8-# 00 7 ... ... ... : ... .. . ... ... ... : ... .. . ... ... ... : ... .. . ... ... ... : ... .. . ... ... ... : ... .. . ... ... ... : ... .. . ... ... ... : ... .. . ... ... ... : ... .. . ... ... ... : ... .. . ... ... ...
ROW 79 : ... .. . ... ... ... : C#1 02 . ... ... ... : E-2 00 . P7C ... ... : ... .. 6 ... ... ... : ... .. . ... ... ... : ... .. . ... ... ... : F#1 06 . P81 ... ... : ... .. . ... ... ... : ... .. 4 ... ... ... : ... .. . ... ... ... : ... .. . ... ... ... : ... .. . ... ... ... : ... .. . ... ... ...
ROW 7A : ... .. . ... ... ... : ... .. . ... ... ... : --- .. . ... ... ... : ... .. . ... ... ... : ... .. . ... ... ... : F#1 07 . ... ... ... : F#1 07 . P80 ... ... : ... .. . ... ... ... : F#1 07 . ... ... ... : ... .. . ... ... ... : ... .. . ... ... ... : ... .. . ... ... ... : ... .. . ... ... ...
ROW 7B : ... .. . ... ... ... : ... .. . ... ... ... : ... .. . ... ... ... : ... .. 5 ... ... ... : ... .. . ... ... ... : ... .. . ... ... ... : ... .. . P81 ... ... : ... .. . ... ... ... : ... .. . ... ... ... : ... .. . ... ... ... : ... .. . ... ... ... : ... .. . ... ... ... : ... .. . ... ... ...
ROW 7C : ... .. . ... ... ... : ... .. . ... ... ... : ... .. . ... ... ... : ... .. . ... ... ... : ... .. . ... ... ... : ... .. . ... ... ... : F-1 07 . P80 ... ... : ... .. . ... ... ... : ... .. . ... ... ... : ... .. . ... ... ... : ... .. . ... ... ... : ... .. . ... ... ... : ... .. . ... ... ...
ROW 7D : ... .. . ... ... ... : ... .. . ... ... ... : ... .. . ... ... ... : ... .. 4 ... ... ... : ... .. . ... ... ... : F-1 07 . ... ... ... : ... .. . P81 ... ... : ... .. . ... ... ... : ... .. . P81 ... ... : ... .. . ... ... ... : ... .. . ... ... ... : ... .. . ... ... ... : ... .. . ... ... ...
ROW 7E : ... .. . ... ... ... : ... .. . ... ... ... : ... .. . ... ... ... : ... .. . ... ... ... : ... .. . ... ... ... : E-1 07 . ... ... ... : E-1 07 . P80 ... ... : ... .. . ... ... ... : F-1 07 . ... ... ... : ... .. . ... ... ... : ... .. . ... ... ... : ... .. . ... ... ... : ... .. . ... ... ...
ROW 7F : ... .. . ... ... ... : ... .. . ... ... ... : ... .. . ... ... ... : ... .. 3 ... ... ... : ... .. . ... ... ... : D#1 07 . ... ... ... : D-1 07 . ... ... ... : ... .. . ... ... ... : E-1 07 . ... ... ... : ... .. . ... ... ... : ... .. . ... ... ... : ... .. . ... ... ... : ... .. . ... ... ...
ROW 80 : ... .. . ... ... ... : ... .. . ... ... ... : ... .. . ... ... ... : 6-# 01 F ... ... ... : ... .. . ... ... ... : D-1 08 . P81 ... ... : C#1 08 . P81 ... ... : ... .. . ... ... ... : D-1 08 . P80 ... ... : ... .. . ... ... ... : ... .. . ... ... ... : ... .. . ... ... ... : ... .. . ... ... ...
ROW 81 : ... .. . ... ... ... : ... .. . ... ... ... : ... .. . ... ... ... : ... .. 9 ... ... ... : ... .. . ... ... ... : C#1 08 . ... ... ... : C-1 08 . P80 ... ... : ... .. . ... ... ... : C#1 08 3 ... ... ... : ... .. . ... ... ... : ... .. . ... ... ... : ... .. . ... ... ... : ... .. . ... ... ...
ROW 82 : ... .. . ... ... ... : ... .. . ... ... ... : ... .. . ... ... ... : ... .. 4 ... ... ... : ... .. . ... ... ... : B-0 08 . P80 ... ... : B-0 08 . ... ... ... : ... .. . ... ... ... : C-1 08 . ... ... ... : ... .. . ... ... ... : ... .. . ... ... ... : ... .. . ... ... ... : ... .. . ... ... ...
ROW 83 : ... .. . ... ... ... : ... .. . ... ... ... : ... .. . ... ... ... : ... .. 7 ... ... ... : ... .. . ... ... ... : A#0 08 . ... ... ... : A-0 08 . ... ... ... : ... .. . ... ... ... : B-0 08 . P81 ... ... : ... .. . ... ... ... : ... .. . ... ... ... : ... .. . ... ... ... : ... .. . ... ... ...
ROW 84 : ... .. . ... ... ... : ... .. . ... ... ... : ... .. . ... ... ... : ... .. 5 ... ... ... : ... .. . ... ... ... : A-0 08 . P81 ... ... : G-0 08 . P81 ... ... : ... .. . ... ... ... : A-0 08 . P80 ... ... : ... .. . ... ... ... : ... .. . ... ... ... : ... .. . ... ... ... : ... .. . ... ... ...
ROW 85 : ... .. . ... ... ... : ... .. . ... ... ... : ... .. . ... ... ... : ... .. . ... ... ... : ... .. . ... ... ... : G-0 08 . ... ... ... : F#0 08 . ... ... ... : ... .. . ... ... ... : G#0 08 . P81 ... ... : ... .. . ... ... ... : ... .. . ... ... ... : ... .. . ... ... ... : ... .. . ... ... ...
ROW 86 : ... .. . ... ... ... : ... .. . ... ... ... : ... .. . ... ... ... : ... .. 4 ... ... ... : ... .. . ... ... ... : F-0 09 . P80 ... ... : F-0 09 . ... ... ... : ... .. . ... ... ... : F#0 09 . P80 ... ... : ... .. . ... ... ... : ... .. . ... ... ... : ... .. . ... ... ... : ... .. . ... ... ...
ROW 87 : ... .. . ... ... ... : ... .. . ... ... ... : ... .. . ... ... ... : ... .. . ... ... ... : ... .. . ... ... ... : D#0 09 . ... ... ... : D#0 09 . ... ... ... : ... .. . ... ... ... : E-0 09 . ... ... ... : ... .. . ... ... ... : ... .. . ... ... ... : ... .. . ... ... ... : ... .. . ... ... ...
ROW 88 : ... .. . ... ... ... : ... .. . ... ... ... : ... .. . ... ... ... : ... .. 3 ... ... ... : ... .. . ... ... ... : C#0 09 . P81 ... ... : C-0 09 . ... ... ... : ... .. . ... ... ... : D-0 09 . ... ... ... : ... .. . ... ... ... : ... .. . ... ... ... : ... .. . ... ... ... : ... .. . ... ... ...
ROW 89 : ... .. . ... ... ... : ... .. . ... ... ... : ... .. . ... ... ... : ... .. 2 ... ... ... : ... .. . ... ... ... : C-0 09 . P82 ... ... : ... .. . P83 ... ... : ... .. . ... ... ... : C-0 09 2 P81 ... ... : ... .. . ... ... ... : ... .. . ... ... ... : ... .. . ... ... ... : ... .. . ... ... ...
ROW 8A : ... .. . ... ... ... : ... .. . ... ... ... : ... .. . ... ... ... : ... .. . ... ... ... : ... .. . ... ... ... : ... .. . P84 ... ... : ... .. . P84 ... ... : ... .. . ... ... ... : ... .. . P83 ... ... : ... .. . ... ... ... : ... .. . ... ... ... : ... .. . ... ... ... : ... .. . ... ... ...
ROW 8B : ... .. . ... ... ... : ... .. . ... ... ... : ... .. . ... ... ... : ... .. 1 ... ... ... : ... .. . ... ... ... : ... .. . P86 ... ... : ... .. . P86 ... ... : ... .. . ... ... ... : ... .. . P85 ... ... : ... .. . ... ... ... : ... .. . ... ... ... : ... .. . ... ... ... : ... .. . ... ... ...
ROW 8C : ... .. . ... ... ... : ... .. . ... ... ... : ... .. . ... ... ... : ... .. . ... ... ... : ... .. . ... ... ... : --- .. . P7A ... ... : --- .. . P7B ... ... : ... .. . ... ... ... : ... .. . P87 ... ... : ... .. . ... ... ... : ... .. . ... ... ... : ... .. . ... ... ... : ... .. . ... ... ...
ROW 8D : ... .. . ... ... ... : C-4 02 . P80 ... ... : F#3 00 . P78 ... ... : 1-# 00 F ... ... ... : C-1 12 . ... ... ... : G-4 04 A P78 ... ... : A-4 04 A P82 ... ... : ... .. . ... ... ... : F#4 04 9 P89 ... ... : G-4 04 9 P81 ... ... : ... .. . ... ... ... : ... .. . ... ... ... : ... .. . ... ... ...
ROW 8E : ... .. . ... ... ... : F-3 02 . ... ... ... : C#3 00 . P7E ... ... : 2-# 00 7 ... ... ... : ... .. . ... ... ... : G#4 04 . P84 ... ... : ... .. . P81 ... ... : ... .. . ... ... ... : ... .. . P81 ... ... : ... .. . ... ... ... : ... .. . ... ... ... : ... .. . ... ... ... : ... .. . ... ... ...
ROW 8F : ... .. . ... ... ... : A#2 02 . P81 ... ... : A-2 00 . P86 ... ... : 1-# 00 4 ... ... ... : ... .. . ... ... ... : ... .. . P7C ... ... : ... .. . P80 ... ... : ... .. . ... ... ... : ... .. . P79 ... ... : ... .. . ... ... ... : ... .. . ... ... ... : ... .. . ... ... ... : ... .. . ... ... ...
ROW 90 : ... .. . ... ... ... : D#2 02 . ... ... ... : --- .. . ... ... ... : ... .. 2 ... ... ... : ... .. . ... ... ... : --- .. . ... ... ... : --- .. . ... ... ... : ... .. . ... ... ... : --- .. . ... ... ... : --- .. . ... ... ... : ... .. . ... ... ... : ... .. . ... ... ... : ... .. . ... ... ...
ROW 91 : ... .. . ... ... ... : G#1 02 . ... ... ... : ... .. . ... ... ... : ... .. 1 ... ... ... : ... .. . ... ... ... : ... .. . P80 ... ... : ... .. . ... ... ... : ... .. . ... ... ... : ... .. . P80 ... ... : ... .. . P80 ... ... : ... .. . ... ... ... : ... .. . ... ... ... : ... .. . ... ... ...
ROW 92 : ... .. . ... ... ... : C#1 02 . ... ... ... : ... .. . ... ... ... : --- .. . ... ... ... : ... .. . ... ... ... : ... .. . ... ... ... : ... .. . ... ... ... : ... .. . ... ... ... : ... .. . ... ... ... : ... .. . ... ... ... : ... .. . ... ... ... : ... .. . ... ... ... : ... .. . ... ... ...
ROW 93 : ... .. . ... ... ... : ... .. . ... ... ... : ... .. . ... ... ... : 1-# 00 F ... ... ... : C-1 12 . ... ... ... : A-4 04 . P7A ... ... : A-4 04 . P82 ... ... : ... .. . ... ... ... : G#4 04 . P88 ... ... : G-4 04 . P83 ... ... : ... .. . ... ... ... : ... .. . ... ... ... : ... .. . ... ... ...
ROW 94 : ... .. . ... ... ... : ... .. . ... ... ... : ... .. . ... ... ... : 2-# 00 7 ... ... ... : ... .. . ... ... ... : ... .. . P7C ... ... : ... .. . P85 ... ... : ... .. . ... ... ... : ... .. . P8A ... ... : ... .. . P85 ... ... : ... .. . ... ... ... : ... .. . ... ... ... : ... .. . ... ... ...
ROW 95 : ... .. . ... ... ... : ... .. . ... ... ... : ... .. . ... ... ... : 1-# 00 4 ... ... ... : ... .. . ... ... ... : ... .. . P7E ... ... : ... .. . P88 ... ... : ... .. . ... ... ... : G-4 04 . P79 ... ... : ... .. . P87 ... ... : ... .. . ... ... ... : ... .. . ... ... ... : ... .. . ... ... ...
ROW 96 : ... .. . ... ... ... : ... .. . ... ... ... : ... .. . ... ... ... : ... .. 2 ... ... ... : ... .. . ... ... ... : --- .. . ... ... ... : --- .. . ... ... ... : ... .. . ... ... ... : --- .. . ... ... ... : --- .. . ... ... ... : ... .. . ... ... ... : ... .. . ... ... ... : ... .. . ... ... ...
ROW 97 : ... .. . ... ... ... : ... .. . ... ... ... : ... .. . ... ... ... : ... .. 1 ... ... ... : ... .. . ... ... ... : ... .. . P80 ... ... : ... .. . P80 ... ... : ... .. . ... ... ... : ... .. . P80 ... ... : ... .. . P80 ... ... : ... .. . ... ... ... : ... .. . ... ... ... : ... .. . ... ... ...
ROW 98 : ... .. . ... ... ... : ... .. . ... ... ... : ... .. . ... ... ... : --- .. . ... ... ... : ... .. . ... ... ... : ... .. . ... ... ... : ... .. . ... ... ... : ... .. . ... ... ... : ... .. . ... ... ... : ... .. . ... ... ... : ... .. . ... ... ... : ... .. . ... ... ... : ... .. . ... ... ...
ROW 99 : ... .. . ... ... ... : ... .. . ... ... ... : ... .. . ... ... ... : A-# 00 F ... ... ... : C-1 12 . ... ... ... : G#4 04 . P7E ... ... : G#4 04 . P88 ... ... : ... .. . ... ... ... : F#4 04 . P7B ... ... : F-4 04 . P78 ... ... : ... .. . ... ... ... : ... .. . ... ... ... : ... .. . ... ... ...
ROW 9A : ... .. . ... ... ... : ... .. . ... ... ... : ... .. . ... ... ... : 6-# 00 9 ... ... ... : ... .. . ... ... ... : G-4 04 . P78 ... ... : G-4 04 . P83 ... ... : ... .. . ... ... ... : ... .. . P89 ... ... : ... .. . P86 ... ... : ... .. . ... ... ... : ... .. . ... ... ... : ... .. . ... ... ...
ROW 9B : ... .. . ... ... ... : ... .. . ... ... ... : ... .. . ... ... ... : 7-# 00 C ... ... ... : ... .. . ... ... ... : ... .. . P86 ... ... : F#4 04 . P7E ... ... : ... .. . ... ... ... : F-4 04 . P85 ... ... : E-4 04 . P84 ... ... : ... .. . ... ... ... : ... .. . ... ... ... : ... .. . ... ... ...
ROW 9C : ... .. . ... ... ... : ... .. . ... ... ... : ... .. . ... ... ... : ... .. 8 ... ... ... : ... .. . ... ... ... : F#4 04 . P82 ... ... : F-4 04 . P7A ... ... : ... .. . ... ... ... : E-4 04 . P83 ... ... : D#4 04 . P83 ... ... : ... .. . ... ... ... : ... .. . ... ... ... : ... .. . ... ... ...
ROW 9D : ... .. . ... ... ... : ... .. . ... ... ... : ... .. . ... ... ... : 8-# 00 7 ... ... ... : ... .. . ... ... ... : F-4 04 . P7F ... ... : E-4 04 . P79 ... ... : ... .. . ... ... ... : D#4 04 . P82 ... ... : D-4 04 8 P82 ... ... : ... .. . ... ... ... : ... .. . ... ... ... : ... .. . ... ... ...
ROW 9E : ... .. . ... ... ... : ... .. . ... ... ... : ... .. . ... ... ... : ... .. 8 ... ... ... : ... .. . ... ... ... : E-4 04 . P7D ... ... : ... .. . P88 ... ... : ... .. . ... ... ... : D-4 04 . ... ... ... : C#4 04 . P83 ... ... : ... .. . ... ... ... : ... .. . ... ... ... : ... .. . ... ... ...
ROW 9F : ... .. . ... ... ... : ... .. . ... ... ... : ... .. . ... ... ... : 9-# 00 7 ... ... ... : ... .. . ... ... ... : D#4 04 . P7C ... ... : D#4 04 . P85 ... ... : ... .. . ... ... ... : C#4 04 . ... ... ... : C-4 04 . P84 ... ... : ... .. . ... ... ... : ... .. . ... ... ... : ... .. . ... ... ...
ROW A0 : ... .. . ... ... ... : ... .. . ... ... ... : ... .. . ... ... ... : ... .. 6 ... ... ... : ... .. . ... ... ... : D-4 04 . P7B ... ... : D-4 04 . P84 ... ... : ... .. . ... ... ... : C-4 04 . P83 ... ... : B-3 04 . P86 ... ... : ... .. . ... ... ... : ... .. . ... ... ... : ... .. . ... ... ...
ROW A1 : ... .. . ... ... ... : ... .. . ... ... ... : ... .. . ... ... ... : ... .. 5 ... ... ... : ... .. . ... ... ... : C#4 04 . P7C ... ... : C#4 04 . P85 ... ... : ... .. . ... ... ... : B-3 04 8 P85 ... ... : A-3 04 7 P7E ... ... : ... .. . ... ... ... : ... .. . ... ... ... : ... .. . ... ... ...
ROW A2 : ... .. . ... ... ... : ... .. . ... ... ... : ... .. . ... ... ... : ... .. . ... ... ... : ... .. . ... ... ... : C-4 04 . P7D ... ... : B-3 04 . P7B ... ... : ... .. . ... ... ... : A-3 04 . P7D ... ... : G#3 04 . P82 ... ... : ... .. . ... ... ... : ... .. . ... ... ... : ... .. . ... ... ...
ROW A3 : ... .. . ... ... ... : ... .. . ... ... ... : ... .. . ... ... ... : ... .. . ... ... ... : ... .. . ... ... ... : B-3 04 . P7F ... ... : A#3 04 . P7D ... ... : ... .. . ... ... ... : G#3 04 . P81 ... ... : F#3 04 . P7D ... ... : ... .. . ... ... ... : ... .. . ... ... ... : ... .. . ... ... ...
ROW A4 : ... .. . ... ... ... : ... .. . ... ... ... : ... .. . ... ... ... : ... .. . ... ... ... : ... .. . ... ... ... : A#3 04 . P82 ... ... : A-3 04 . P7F ... ... : ... .. . ... ... ... : F#3 04 . P7C ... ... : F-3 04 . P82 ... ... : ... .. . ... ... ... : ... .. . ... ... ... : ... .. . ... ... ...
ROW A5 : ... .. . ... ... ... : ... .. . ... ... ... : ... .. . ... ... ... : ... .. . ... ... ... : ... .. . ... ... ... : A-3 04 . P85 ... ... : G#3 04 . P84 ... ... : ... .. . ... ... ... : F-3 04 . P82 ... ... : D#3 04 6 P81 ... ... : ... .. . ... ... ... : ... .. . ... ... ... : ... .. . ... ... ...
ROW A6 : ... .. . ... ... ... : C-4 02 . P80 ... ... : C#4 00 . P7F ... ... : ... .. F ... ... ... : C#1 12 . ... ... ... : G#1 04 F P80 ... ... : F#3 04 . P80 ... ... : G-1 04 9 ... ... ... : A-1 04 9 ... ... ... : C#3 04 . ... ... ... : ... .. . ... ... ... : ... .. . ... ... ... : ... .. . ... ... ...
ROW A7 : ... .. . ... ... ... : F-3 02 . ... ... ... : F#3 00 . P83 ... ... : 2-# 00 7 ... ... ... : ... .. . ... ... ... : ... .. . ... ... ... : E-3 04 . P7D ... ... : ... .. . ... ... ... : ... .. . ... ... ... : B-2 04 . P82 ... ... : ... .. . ... ... ... : ... .. . ... ... ... : ... .. . ... ... ...
ROW A8 : ... .. . ... ... ... : A#2 02 . P81 ... ... : C#3 00 . P89 ... ... : 6-# 00 C ... ... ... : ... .. . ... ... ... : ... .. . ... ... ... : D#3 04 . P83 ... ... : ... .. . ... ... ... : ... .. . ... ... ... : G#2 04 . P80 ... ... : ... .. . ... ... ... : ... .. . ... ... ... : ... .. . ... ... ...
ROW A9 : ... .. . ... ... ... : D#2 02 . ... ... ... : A#2 00 . P75 ... ... : 7-# 00 8 ... ... ... : ... .. . ... ... ... : ... .. . ... ... ... : C#3 04 . ... ... ... : ... .. . ... ... ... : ... .. . ... ... ... : F-2 04 5 ... ... ... : ... .. . ... ... ... : ... .. . ... ... ... : ... .. . ... ... ...
ROW AA : ... .. . ... ... ... : G#1 02 . ... ... ... : G-2 00 . P70 ... ... : 8-# 00 7 ... ... ... : ... .. . ... ... ... : ... .. . ... ... ... : A#2 04 . P7F ... ... : ... .. 8 ... ... ... : ... .. . ... ... ... : C#2 04 . ... ... ... : ... .. . ... ... ... : ... .. . ... ... ... : ... .. . ... ... ...
ROW AB : ... .. . ... ... ... : C#1 02 . ... ... ... : E-2 00 . P7C ... ... : ... .. 6 ... ... ... : ... .. . ... ... ... : ... .. . ... ... ... : G-2 04 . ... ... ... : ... .. . ... ... ... : ... .. . ... ... ... : G#1 04 . P7F ... ... : ... .. . ... ... ... : ... .. . ... ... ... : ... .. . ... ... ...
ROW AC : ... .. . ... ... ... : ... .. . ... ... ... : --- .. . ... ... ... : ... .. . ... ... ... : ... .. . ... ... ... : G#2 04 . ... ... ... : E-2 04 . ... ... ... : G#2 04 . P82 ... ... : G#2 04 . P7F ... ... : D-1 04 . P81 ... ... : ... .. . ... ... ... : ... .. . ... ... ... : ... .. . ... ... ...
ROW AD : ... .. . ... ... ... : ... .. . ... ... ... : ... .. . ... ... ... : ... .. 5 ... ... ... : ... .. . ... ... ... : ... .. . ... ... ... : C#2 04 . P81 ... ... : ... .. . ... ... ... : ... .. . ... ... ... : D#0 04 4 ... ... ... : ... .. . ... ... ... : ... .. . ... ... ... : ... .. . ... ... ...
ROW AE : ... .. . ... ... ... : ... .. . ... ... ... : ... .. . ... ... ... : ... .. . ... ... ... : ... .. . ... ... ... : ... .. . ... ... ... : G-1 04 . P7F ... ... : ... .. 7 ... ... ... : ... .. 8 ... ... ... : --- .. . P7F ... ... : ... .. . ... ... ... : ... .. . ... ... ... : ... .. . ... ... ...
ROW AF : ... .. . ... ... ... : ... .. . ... ... ... : ... .. . ... ... ... : ... .. 4 ... ... ... : ... .. . ... ... ... : ... .. . ... ... ... : C-1 04 . P81 ... ... : ... .. . ... ... ... : ... .. . ... ... ... : D#7 04 . P81 ... ... : ... .. . ... ... ... : ... .. . ... ... ... : ... .. . ... ... ...
ROW B0 : ... .. . ... ... ... : ... .. . ... ... ... : ... .. . ... ... ... : ... .. . ... ... ... : ... .. . ... ... ... : ... .. . ... ... ... : C-0 04 . P80 ... ... : ... .. . ... ... ... : ... .. . ... ... ... : ... .. . ... ... ... : ... .. . ... ... ... : ... .. . ... ... ... : ... .. . ... ... ...
ROW B1 : ... .. . ... ... ... : ... .. . ... ... ... : ... .. . ... ... ... : ... .. 3 ... ... ... : ... .. . ... ... ... : ... .. . ... ... ... : --- .. . ... ... ... : ... .. . ... ... ... : ... .. . ... ... ... : ... .. 3 ... ... ... : ... .. . ... ... ... : ... .. . ... ... ... : ... .. . ... ... ...
ROW B2 : ... .. . ... ... ... : ... .. . ... ... ... : ... .. . ... ... ... : D-# 00 A ... ... ... : ... .. . ... ... ... : C#2 04 . ... ... ... : ... .. . ... ... ... : C#2 04 6 ... ... ... : C#2 04 . ... ... ... : ... .. . ... ... ... : ... .. . ... ... ... : ... .. . ... ... ... : ... .. . ... ... ...
ROW B3 : ... .. . ... ... ... : ... .. . ... ... ... : ... .. . ... ... ... : E-# 00 4 ... ... ... : ... .. . ... ... ... : ... .. . ... ... ... : ... .. . ... ... ... : ... .. . ... ... ... : ... .. . ... ... ... : ... .. . ... ... ... : ... .. . ... ... ... : ... .. . ... ... ... : ... .. . ... ... ...
ROW B4 : ... .. . ... ... ... : ... .. . ... ... ... : ... .. . ... ... ... : D-# 00 2 ... ... ... : ... .. . ... ... ... : ... .. . ... ... ... : ... .. . ... ... ... : ... .. . ... ... ... : ... .. . ... ... ... : ... .. . ... ... ... : ... .. . ... ... ... : ... .. . ... ... ... : ... .. . ... ... ...
ROW B5 : ... .. . ... ... ... : ... .. . ... ... ... : ... .. . ... ... ... : ... .. 1 ... ... ... : ... .. . ... ... ... : ... .. . ... ... ... : ... .. . ... ... ... : ... .. . ... ... ... : ... .. . ... ... ... : ... .. 2 ... ... ... : ... .. . ... ... ... : ... .. . ... ... ... : ... .. . ... ... ...
ROW B6 : ... .. . ... ... ... : ... .. . ... ... ... : ... .. . ... ... ... : ... .. . ... ... ... : ... .. . ... ... ... : ... .. . ... ... ... : ... .. . ... ... ... : ... .. 5 ... ... ... : ... .. 7 ... ... ... : ... .. . ... ... ... : ... .. . ... ... ... : ... .. . ... ... ... : ... .. . ... ... ...
ROW B7 : ... .. . ... ... ... : ... .. . ... ... ... : ... .. . ... ... ... : --- .. . ... ... ... : ... .. . ... ... ... : ... .. . ... ... ... : ... .. . ... ... ... : ... .. . ... ... ... : ... .. . ... ... ... : ... .. . ... ... ... : ... .. . ... ... ... : ... .. . ... ... ... : ... .. . ... ... ...
ROW B8 : ... .. . ... ... ... : ... .. . ... ... ... : ... .. . ... ... ... : D-# 00 A ... ... ... : ... .. . ... ... ... : C#3 04 . ... ... ... : ... .. . ... ... ... : C#3 04 . ... ... ... : C#3 04 . ... ... ... : --- .. . ... ... ... : ... .. . ... ... ... : ... .. . ... ... ... : ... .. . ... ... ...
ROW B9 : ... .. . ... ... ... : ... .. . ... ... ... : ... .. . ... ... ... : E-# 00 4 ... ... ... : ... .. . ... ... ... : ... .. . ... ... ... : ... .. . ... ... ... : ... .. . ... ... ... : ... .. . ... ... ... : ... .. . P80 ... ... : ... .. . ... ... ... : ... .. . ... ... ... : ... .. . ... ... ...
ROW BA : ... .. . ... ... ... : ... .. . ... ... ... : ... .. . ... ... ... : D-# 00 2 ... ... ... : ... .. . ... ... ... : ... .. . ... ... ... : ... .. . ... ... ... : ... .. 4 ... ... ... : ... .. . ... ... ... : ... .. . ... ... ... : ... .. . ... ... ... : ... .. . ... ... ... : ... .. . ... ... ...
ROW BB : ... .. . ... ... ... : ... .. . ... ... ... : ... .. . ... ... ... : ... .. 1 ... ... ... : ... .. . ... ... ... : ... .. . ... ... ... : ... .. . ... ... ... : ... .. . ... ... ... : ... .. . ... ... ... : ... .. . ... ... ... : ... .. . ... ... ... : ... .. . ... ... ... : ... .. . ... ... ...
ROW BC : ... .. . ... ... ... : ... .. . ... ... ... : ... .. . ... ... ... : ... .. . ... ... ... : ... .. . ... ... ... : ... .. . ... ... ... : ... .. . ... ... ... : ... .. . ... ... ... : ... .. . ... ... ... : ... .. . ... ... ... : ... .. . ... ... ... : ... .. . ... ... ... : ... .. . ... ... ...
ROW BD : ... .. . ... ... ... : ... .. . ... ... ... : ... .. . ... ... ... : --- .. . ... ... ... : ... .. . ... ... ... : ... .. . ... ... ... : ... .. . ... ... ... : ... .. . ... ... ... : ... .. . ... ... ... : ... .. . ... ... ... : ... .. . ... ... ... : ... .. . ... ... ... : ... .. . ... ... ...
ROW BE : ... .. . ... ... ... : ... .. . ... ... ... : ... .. . ... ... ... : ... .. . ... ... ... : ... .. . ... ... ... : ... .. . ... ... ... : ... .. . ... ... ... : ... .. 3 ... ... ... : ... .. 6 ... ... ... : ... .. . ... ... ... : ... .. . ... ... ... : ... .. . ... ... ... : ... .. . ... ... ...
ROW BF : ... .. . ... ... ... : C-4 02 . P80 ... ... : F#3 00 . P78 ... ... : 1-# 00 F ... ... ... : C-1 12 . ... ... ... : B-4 0C 7 P7C ... ... : ... .. . ... ... ... : --- .. . ... ... ... : A#3 0C 1 P85 ... ... : ... .. . ... ... ... : ... .. . ... ... ... : ... .. . ... ... ... : ... .. . ... ... ...
ROW C0 : ... .. . ... ... ... : F-3 02 . ... ... ... : C#3 00 . P7E ... ... : 2-# 00 7 ... ... ... : ... .. . ... ... ... : A#4 0C . P79 ... ... : ... .. . ... ... ... : ... .. . P80 ... ... : G-3 0C . ... ... ... : ... .. . ... ... ... : ... .. . ... ... ... : ... .. . ... ... ... : ... .. . ... ... ...
ROW C1 : ... .. . ... ... ... : A#2 02 . P81 ... ... : A-2 00 . P86 ... ... : 1-# 00 4 ... ... ... : ... .. . ... ... ... : A-4 0C . P78 ... ... : ... .. . ... ... ... : ... .. . ... ... ... : D#3 0C . P82 ... ... : ... .. . ... ... ... : ... .. . ... ... ... : ... .. . ... ... ... : ... .. . ... ... ...
ROW C2 : ... .. . ... ... ... : D#2 02 . ... ... ... : --- .. . ... ... ... : ... .. 2 ... ... ... : ... .. . ... ... ... : G#4 0C . ... ... ... : ... .. . ... ... ... : ... .. . ... ... ... : A#2 0C . P7F ... ... : ... .. . ... ... ... : ... .. . ... ... ... : ... .. . ... ... ... : ... .. . ... ... ...
ROW C3 : ... .. . ... ... ... : G#1 02 . ... ... ... : ... .. . ... ... ... : ... .. 1 ... ... ... : ... .. . ... ... ... : G-4 0C . ... ... ... : ... .. . ... ... ... : ... .. . ... ... ... : E-2 0C . P81 ... ... : ... .. . ... ... ... : ... .. . ... ... ... : ... .. . ... ... ... : ... .. . ... ... ...
ROW C4 : ... .. . ... ... ... : C#1 02 . ... ... ... : ... .. . ... ... ... : --- .. . ... ... ... : ... .. . ... ... ... : --- .. . ... ... ... : ... .. . ... ... ... : ... .. . ... ... ... : --- .. . ... ... ... : ... .. . ... ... ... : ... .. . ... ... ... : ... .. . ... ... ... : ... .. . ... ... ...
ROW C5 : ... .. . ... ... ... : ... .. . ... ... ... : ... .. . ... ... ... : ... .. . ... ... ... : ... .. . ... ... ... : B-4 0C . P7C ... ... : ... .. . ... ... ... : ... .. . ... ... ... : A#3 0C . P85 ... ... : ... .. . ... ... ... : ... .. . ... ... ... : ... .. . ... ... ... : ... .. . ... ... ...
ROW C6 : ... .. . ... ... ... : ... .. . ... ... ... : ... .. . ... ... ... : ... .. . ... ... ... : ... .. . ... ... ... : A#4 0C . P79 ... ... : ... .. . ... ... ... : ... .. . ... ... ... : G-3 0C . ... ... ... : ... .. . ... ... ... : ... .. . ... ... ... : ... .. . ... ... ... : ... .. . ... ... ...
ROW C7 : ... .. . ... ... ... : ... .. . ... ... ... : ... .. . ... ... ... : ... .. . ... ... ... : ... .. . ... ... ... : A-4 0C . P78 ... ... : ... .. . ... ... ... : ... .. . ... ... ... : --- .. . ... ... ... : ... .. . ... ... ... : ... .. . ... ... ... : ... .. . ... ... ... : ... .. . ... ... ...
ROW C8 : ... .. . ... ... ... : ... .. . ... ... ... : ... .. . ... ... ... : ... .. . ... ... ... : ... .. . ... ... ... : G#4 0C . ... ... ... : ... .. . ... ... ... : ... .. . ... ... ... : ... .. . P80 ... ... : ... .. . ... ... ... : ... .. . ... ... ... : ... .. . ... ... ... : ... .. . ... ... ...
ROW C9 : ... .. . ... ... ... : ... .. . ... ... ... : ... .. . ... ... ... : ... .. . ... ... ... : ... .. . ... ... ... : G-4 0C . ... ... ... : ... .. . ... ... ... : ... .. . ... ... ... : ... .. . ... ... ... : ... .. . ... ... ... : ... .. . ... ... ... : ... .. . ... ... ... : ... .. . ... ... ...
ROW CA : ... .. . ... ... ... : ... .. . ... ... ... : ... .. . ... ... ... : ... .. . ... ... ... : ... .. . ... ... ... : --- .. . ... ... ... : ... .. . ... ... ... : ... .. . ... ... ... : ... .. . ... ... ... : ... .. . ... ... ... : ... .. . ... ... ... : ... .. . ... ... ... : ... .. . ... ... ...
ROW CB : ... .. . ... ... ... : ... .. . ... ... ... : ... .. . ... ... ... : D-# 00 A ... ... ... : ... .. . ... ... ... : C#3 05 A P80 ... ... : C#3 05 . P82 ... ... : C#3 05 9 P7E ... ... : G#2 05 9 P81 ... ... : ... .. . ... ... ... : ... .. . ... ... ... : ... .. . ... ... ... : ... .. . ... ... ...
ROW CC : ... .. . ... ... ... : ... .. . ... ... ... : ... .. . ... ... ... : E-# 00 4 ... ... ... : ... .. . ... ... ... : ... .. . ... ... ... : ... .. . P83 ... ... : ... .. . ... ... ... : ... .. . ... ... ... : ... .. . ... ... ... : ... .. . ... ... ... : ... .. . ... ... ... : ... .. . ... ... ...
ROW CD : ... .. . ... ... ... : ... .. . ... ... ... : ... .. . ... ... ... : D-# 00 2 ... ... ... : ... .. . ... ... ... : ... .. . ... ... ... : C-3 05 . P7E ... ... : ... .. . ... ... ... : ... .. . ... ... ... : ... .. . ... ... ... : ... .. . ... ... ... : ... .. . ... ... ... : ... .. . ... ... ...
ROW CE : ... .. . ... ... ... : ... .. . ... ... ... : ... .. . ... ... ... : ... .. 1 ... ... ... : ... .. . ... ... ... : ... .. . ... ... ... : C#3 05 . P83 ... ... : ... .. . ... ... ... : ... .. . ... ... ... : ... .. . ... ... ... : ... .. . ... ... ... : ... .. . ... ... ... : ... .. . ... ... ...
ROW CF : ... .. . ... ... ... : ... .. . ... ... ... : ... .. . ... ... ... : ... .. . ... ... ... : ... .. . ... ... ... : --- .. . ... ... ... : --- .. . ... ... ... : --- .. . ... ... ... : --- .. . ... ... ... : ... .. . ... ... ... : ... .. . ... ... ... : ... .. . ... ... ... : ... .. . ... ... ...
ROW D0 : ... .. . ... ... ... : ... .. . ... ... ... : ... .. . ... ... ... : --- .. . ... ... ... : ... .. . ... ... ... : ... .. . ... ... ... : ... .. . P80 ... ... : ... .. . P80 ... ... : ... .. . P80 ... ... : ... .. . ... ... ... : ... .. . ... ... ... : ... .. . ... ... ... : ... .. . ... ... ...
ROW D1 : ... .. . ... ... ... : ... .. . ... ... ... : ... .. . ... ... ... : D-# 00 A ... ... ... : ... .. . ... ... ... : C#3 05 4 ... ... ... : C-3 05 4 P7E ... ... : C#3 05 3 P7E ... ... : G#2 05 3 P81 ... ... : ... .. . ... ... ... : ... .. . ... ... ... : ... .. . ... ... ... : ... .. . ... ... ...
ROW D2 : ... .. . ... ... ... : ... .. . ... ... ... : ... .. . ... ... ... : E-# 00 4 ... ... ... : ... .. . ... ... ... : ... .. . ... ... ... : C#3 05 . P83 ... ... : ... .. . ... ... ... : ... .. . ... ... ... : ... .. . ... ... ... : ... .. . ... ... ... : ... .. . ... ... ... : ... .. . ... ... ...
ROW D3 : ... .. . ... ... ... : ... .. . ... ... ... : ... .. . ... ... ... : D-# 00 2 ... ... ... : ... .. . ... ... ... : ... .. . ... ... ... : ... .. . P82 ... ... : ... .. . ... ... ... : ... .. . ... ... ... : ... .. . ... ... ... : ... .. . ... ... ... : ... .. . ... ... ... : ... .. . ... ... ...
ROW D4 : ... .. . ... ... ... : ... .. . ... ... ... : ... .. . ... ... ... : ... .. 1 ... ... ... : ... .. . ... ... ... : ... .. . ... ... ... : ... .. . P83 ... ... : ... .. . ... ... ... : ... .. . ... ... ... : ... .. . ... ... ... : ... .. . ... ... ... : ... .. . ... ... ... : ... .. . ... ... ...
ROW D5 : ... .. . ... ... ... : ... .. . ... ... ... : ... .. . ... ... ... : ... .. . ... ... ... : ... .. . ... ... ... : ... .. . ... ... ... : C-3 05 . P7E ... ... : ... .. 2 ... ... ... : ... .. . ... ... ... : ... .. . ... ... ... : ... .. . ... ... ... : ... .. . ... ... ... : ... .. . ... ... ...
ROW D6 : ... .. . ... ... ... : ... .. . ... ... ... : ... .. . ... ... ... : --- .. . ... ... ... : ... .. . ... ... ... : --- .. . ... ... ... : --- .. . ... ... ... : --- .. . ... ... ... : --- .. . ... ... ... : ... .. . ... ... ... : ... .. . ... ... ... : ... .. . ... ... ... : ... .. . ... ... ...
ROW D7 : ... .. . ... ... ... : ... .. . ... ... ... : ... .. . ... ... ... : ... .. . ... ... ... : ... .. . ... ... ... : ... .. . ... ... ... : ... .. . P80 ... ... : ... .. . P80 ... ... : ... .. . P80 ... ... : ... .. . ... ... ... : ... .. . ... ... ... : ... .. . ... ... ... : ... .. . ... ... ...
ROW D8 : ... .. . ... ... ... : C-4 02 . P80 ... ... : C#4 00 . P7F ... ... : 9-# 00 F ... ... ... : C#1 12 . ... ... ... : F#3 05 A ... ... ... : F#3 05 A P83 ... ... : F#3 05 9 P7E ... ... : D#3 05 9 P81 ... ... : ... .. . ... ... ... : ... .. . ... ... ... : ... .. . ... ... ... : ... .. . ... ... ...
ROW D9 : ... .. . ... ... ... : F-3 02 . ... ... ... : F#3 00 . P83 ... ... : 2-# 00 7 ... ... ... : ... .. . ... ... ... : ... .. . ... ... ... : ... .. . P84 ... ... : ... .. . ... ... ... : ... .. . ... ... ... : ... .. . ... ... ... : ... .. . ... ... ... : ... .. . ... ... ... : ... .. . ... ... ...
ROW DA : ... .. . ... ... ... : A#2 02 . P81 ... ... : C#3 00 . P89 ... ... : 6-# 00 C ... ... ... : ... .. . ... ... ... : ... .. . ... ... ... : ... .. . ... ... ... : ... .. . ... ... ... : ... .. . ... ... ... : ... .. . ... ... ... : ... .. . ... ... ... : ... .. . ... ... ... : ... .. . ... ... ...
ROW DB : ... .. . ... ... ... : D#2 02 . ... ... ... : A#2 00 . P75 ... ... : 7-# 00 8 ... ... ... : ... .. . ... ... ... : ... .. . ... ... ... : ... .. . P83 ... ... : ... .. . ... ... ... : ... .. . ... ... ... : ... .. . ... ... ... : ... .. . ... ... ... : ... .. . ... ... ... : ... .. . ... ... ...
ROW DC : ... .. . ... ... ... : G#1 02 . ... ... ... : G-2 00 . P70 ... ... : 8-# 00 7 ... ... ... : ... .. . ... ... ... : --- .. . ... ... ... : --- .. . ... ... ... : --- .. . ... ... ... : --- .. . ... ... ... : ... .. . ... ... ... : ... .. . ... ... ... : ... .. . ... ... ... : ... .. . ... ... ...
ROW DD : ... .. . ... ... ... : C#1 02 . ... ... ... : E-2 00 . P7C ... ... : ... .. 6 ... ... ... : ... .. . ... ... ... : ... .. . ... ... ... : ... .. . P80 ... ... : ... .. . P80 ... ... : ... .. . P80 ... ... : ... .. . ... ... ... : ... .. . ... ... ... : ... .. . ... ... ... : ... .. . ... ... ...
ROW DE : ... .. . ... ... ... : ... .. . ... ... ... : --- .. . ... ... ... : ... .. . ... ... ... : ... .. . ... ... ... : F#3 05 4 ... ... ... : F#3 05 4 P84 ... ... : F#3 05 3 P7E ... ... : D#3 05 3 P81 ... ... : ... .. . ... ... ... : ... .. . ... ... ... : ... .. . ... ... ... : ... .. . ... ... ...
ROW DF : ... .. . ... ... ... : ... .. . ... ... ... : ... .. . ... ... ... : ... .. 5 ... ... ... : ... .. . ... ... ... : ... .. . ... ... ... : ... .. . P83 ... ... : ... .. . ... ... ... : ... .. . ... ... ... : ... .. . ... ... ... : ... .. . ... ... ... : ... .. . ... ... ... : ... .. . ... ... ...
ROW E0 : ... .. . ... ... ... : ... .. . ... ... ... : ... .. . ... ... ... : ... .. . ... ... ... : ... .. . ... ... ... : ... .. . ... ... ... : ... .. . P82 ... ... : ... .. . ... ... ... : ... .. . ... ... ... : ... .. . ... ... ... : ... .. . ... ... ... : ... .. . ... ... ... : ... .. . ... ... ...
ROW E1 : ... .. . ... ... ... : ... .. . ... ... ... : ... .. . ... ... ... : ... .. 4 ... ... ... : ... .. . ... ... ... : ... .. . ... ... ... : ... .. . P83 ... ... : ... .. . ... ... ... : ... .. . ... ... ... : ... .. . ... ... ... : ... .. . ... ... ... : ... .. . ... ... ... : ... .. . ... ... ...
ROW E2 : ... .. . ... ... ... : ... .. . ... ... ... : ... .. . ... ... ... : ... .. . ... ... ... : ... .. . ... ... ... : --- .. . ... ... ... : --- .. . ... ... ... : --- .. . ... ... ... : --- .. . ... ... ... : ... .. . ... ... ... : ... .. . ... ... ... : ... .. . ... ... ... : ... .. . ... ... ...
ROW E3 : ... .. . ... ... ... : ... .. . ... ... ... : ... .. . ... ... ... : ... .. 3 ... ... ... : ... .. . ... ... ... : ... .. . ... ... ... : ... .. . P80 ... ... : ... .. . P80 ... ... : ... .. . P80 ... ... : ... .. . ... ... ... : ... .. . ... ... ... : ... .. . ... ... ... : ... .. . ... ... ...
ROW E4 : ... .. . ... ... ... : ... .. . ... ... ... : ... .. . ... ... ... : D-# 00 A ... ... ... : ... .. . ... ... ... : B-3 05 A ... ... ... : B-3 05 A P82 ... ... : B-3 05 9 P7E ... ... : F#3 05 9 P81 ... ... : ... .. . ... ... ... : ... .. . ... ... ... : ... .. . ... ... ... : ... .. . ... ... ...
ROW E5 : ... .. . ... ... ... : ... .. . ... ... ... : ... .. . ... ... ... : E-# 00 4 ... ... ... : ... .. . ... ... ... : ... .. . ... ... ... : ... .. . P83 ... ... : ... .. . ... ... ... : ... .. . ... ... ... : ... .. . ... ... ... : ... .. . ... ... ... : ... .. . ... ... ... : ... .. . ... ... ...
ROW E6 : ... .. . ... ... ... : ... .. . ... ... ... : ... .. . ... ... ... : D-# 00 2 ... ... ... : ... .. . ... ... ... : ... .. . ... ... ... : ... .. . P84 ... ... : ... .. . ... ... ... : ... .. . ... ... ... : ... .. . ... ... ... : ... .. . ... ... ... : ... .. . ... ... ... : ... .. . ... ... ...
ROW E7 : ... .. . ... ... ... : ... .. . ... ... ... : ... .. . ... ... ... : ... .. 1 ... ... ... : ... .. . ... ... ... : ... .. . ... ... ... : ... .. . ... ... ... : ... .. . ... ... ... : ... .. . ... ... ... : ... .. . ... ... ... : ... .. . ... ... ... : ... .. . ... ... ... : ... .. . ... ... ...
ROW E8 : ... .. . ... ... ... : ... .. . ... ... ... : ... .. . ... ... ... : ... .. . ... ... ... : ... .. . ... ... ... : --- .. . ... ... ... : --- .. . ... ... ... : --- .. . ... ... ... : --- .. . ... ... ... : ... .. . ... ... ... : ... .. . ... ... ... : ... .. . ... ... ... : ... .. . ... ... ...
ROW E9 : ... .. . ... ... ... : ... .. . ... ... ... : ... .. . ... ... ... : --- .. . ... ... ... : ... .. . ... ... ... : ... .. . ... ... ... : ... .. . P80 ... ... : ... .. . P80 ... ... : ... .. . P80 ... ... : ... .. . ... ... ... : ... .. . ... ... ... : ... .. . ... ... ... : ... .. . ... ... ...
ROW EA : ... .. . ... ... ... : ... .. . ... ... ... : ... .. . ... ... ... : D-# 00 A ... ... ... : ... .. . ... ... ... : B-3 05 4 ... ... ... : B-3 05 . P84 ... ... : B-3 05 . P7E ... ... : F#3 05 . P81 ... ... : ... .. . ... ... ... : ... .. . ... ... ... : ... .. . ... ... ... : ... .. . ... ... ...
ROW EB : ... .. . ... ... ... : ... .. . ... ... ... : ... .. . ... ... ... : E-# 00 4 ... ... ... : ... .. . ... ... ... : ... .. . ... ... ... : ... .. . ... ... ... : ... .. . ... ... ... : ... .. . ... ... ... : ... .. . ... ... ... : ... .. . ... ... ... : ... .. . ... ... ... : ... .. . ... ... ...
ROW EC : ... .. . ... ... ... : ... .. . ... ... ... : ... .. . ... ... ... : D-# 00 2 ... ... ... : ... .. . ... ... ... : ... .. . ... ... ... : ... .. . P83 ... ... : ... .. . ... ... ... : ... .. . ... ... ... : ... .. . ... ... ... : ... .. . ... ... ... : ... .. . ... ... ... : ... .. . ... ... ...
ROW ED : ... .. . ... ... ... : ... .. . ... ... ... : ... .. . ... ... ... : ... .. 1 ... ... ... : ... .. . ... ... ... : ... .. . ... ... ... : ... .. . P82 ... ... : ... .. . ... ... ... : ... .. . ... ... ... : ... .. . ... ... ... : ... .. . ... ... ... : ... .. . ... ... ... : ... .. . ... ... ...
ROW EE : ... .. . ... ... ... : ... .. . ... ... ... : ... .. . ... ... ... : ... .. . ... ... ... : ... .. . ... ... ... : ... .. . ... ... ... : ... .. . P83 ... ... : ... .. 8 ... ... ... : ... .. . ... ... ... : ... .. . ... ... ... : ... .. . ... ... ... : ... .. . ... ... ... : ... .. . ... ... ...
ROW EF : ... .. . ... ... ... : ... .. . ... ... ... : ... .. . ... ... ... : --- .. . ... ... ... : ... .. . ... ... ... : --- .. . ... ... ... : --- .. . ... ... ... : --- .. . ... ... ... : --- .. . ... ... ... : ... .. . ... ... ... : ... .. . ... ... ... : ... .. . ... ... ... : ... .. . ... ... ...
ROW F0 : ... .. . ... ... ... : ... .. . ... ... ... : ... .. . ... ... ... : ... .. . ... ... ... : ... .. . ... ... ... : ... .. . ... ... ... : ... .. . P80 ... ... : ... .. . P80 ... ... : ... .. . P80 ... ... : ... .. . ... ... ... : ... .. . ... ... ... : ... .. . ... ... ... : ... .. . ... ... ...
ROW F1 : ... .. . ... ... ... : C-4 02 . P80 ... ... : F#3 00 . P78 ... ... : 1-# 00 F ... ... ... : C-1 12 . ... ... ... : D#2 06 F ... ... ... : D#2 06 F ... ... ... : ... .. . ... ... ... : D#2 06 E P7F ... ... : D#3 06 B P81 ... ... : ... .. . ... ... ... : ... .. . ... ... ... : ... .. . ... ... ...
ROW F2 : ... .. . ... ... ... : F-3 02 . ... ... ... : C#3 00 . P7E ... ... : 2-# 00 7 ... ... ... : ... .. . ... ... ... : ... .. . ... ... ... : ... .. . P81 ... ... : ... .. . ... ... ... : ... .. . ... ... ... : ... .. . ... ... ... : ... .. . ... ... ... : ... .. . ... ... ... : ... .. . ... ... ...
ROW F3 : ... .. . ... ... ... : A#2 02 . P81 ... ... : A-2 00 . P86 ... ... : 1-# 00 4 ... ... ... : ... .. . ... ... ... : ... .. . ... ... ... : D-2 06 . P7F ... ... : ... .. . ... ... ... : ... .. . ... ... ... : ... .. . ... ... ... : ... .. . ... ... ... : ... .. . ... ... ... : ... .. . ... ... ...
ROW F4 : ... .. . ... ... ... : D#2 02 . ... ... ... : --- .. . ... ... ... : ... .. 2 ... ... ... : ... .. . ... ... ... : D#2 09 . ... ... ... : D#2 09 . P81 ... ... : ... .. . ... ... ... : D#2 09 . ... ... ... : D#3 09 . ... ... ... : ... .. . ... ... ... : ... .. . ... ... ... : ... .. . ... ... ...
ROW F5 : ... .. . ... ... ... : G#1 02 . ... ... ... : ... .. . ... ... ... : ... .. 1 ... ... ... : ... .. . ... ... ... : ... .. . ... ... ... : ... .. . P80 ... ... : ... .. . ... ... ... : ... .. . ... ... ... : ... .. A ... ... ... : ... .. . ... ... ... : ... .. . ... ... ... : ... .. . ... ... ...
ROW F6 : ... .. . ... ... ... : C#1 02 . ... ... ... : ... .. . ... ... ... : --- .. . ... ... ... : ... .. . ... ... ... : ... .. . ... ... ... : ... .. . P81 ... ... : ... .. . ... ... ... : ... .. . ... ... ... : ... .. . ... ... ... : ... .. . ... ... ... : ... .. . ... ... ... : ... .. . ... ... ...
ROW F7 : ... .. . ... ... ... : ... .. . ... ... ... : ... .. . ... ... ... : ... .. . ... ... ... : ... .. . ... ... ... : D#2 06 . ... ... ... : D#2 06 . P82 ... ... : ... .. . ... ... ... : D#2 06 . ... ... ... : D#3 06 . ... ... ... : ... .. . ... ... ... : ... .. . ... ... ... : ... .. . ... ... ...
ROW F8 : ... .. . ... ... ... : ... .. . ... ... ... : ... .. . ... ... ... : ... .. . ... ... ... : ... .. . ... ... ... : ... .. . ... ... ... : ... .. . ... ... ... : ... .. . ... ... ... : ... .. . ... ... ... : ... .. . ... ... ... : ... .. . ... ... ... : ... .. . ... ... ... : ... .. . ... ... ...
ROW F9 : ... .. . ... ... ... : ... .. . ... ... ... : ... .. . ... ... ... : ... .. . ... ... ... : ... .. . ... ... ... : ... .. . ... ... ... : ... .. . P81 ... ... : ... .. . ... ... ... : ... .. D ... ... ... : ... .. 9 ... ... ... : ... .. . ... ... ... : ... .. . ... ... ... : ... .. . ... ... ...
ROW FA : ... .. . ... ... ... : ... .. . ... ... ... : ... .. . ... ... ... : ... .. . ... ... ... : ... .. . ... ... ... : D#2 09 . ... ... ... : D#2 09 . P80 ... ... : ... .. . ... ... ... : D#2 09 . ... ... ... : D#3 09 . ... ... ... : ... .. . ... ... ... : ... .. . ... ... ... : ... .. . ... ... ...
ROW FB : ... .. . ... ... ... : ... .. . ... ... ... : ... .. . ... ... ... : ... .. . ... ... ... : ... .. . ... ... ... : ... .. . ... ... ... : ... .. . P81 ... ... : ... .. . ... ... ... : ... .. . ... ... ... : ... .. . ... ... ... : ... .. . ... ... ... : ... .. . ... ... ... : ... .. . ... ... ...
ROW FC : ... .. . ... ... ... : ... .. . ... ... ... : ... .. . ... ... ... : ... .. . ... ... ... : ... .. . ... ... ... : ... .. . ... ... ... : D-2 09 . P7F ... ... : ... .. . ... ... ... : ... .. . ... ... ... : ... .. . ... ... ... : ... .. . ... ... ... : ... .. . ... ... ... : ... .. . ... ... ...
ROW FD : ... .. . ... ... ... : ... .. . ... ... ... : ... .. . ... ... ... : D-# 00 A ... ... ... : ... .. . ... ... ... : D#2 06 . ... ... ... : D#2 06 . P81 ... ... : ... .. . ... ... ... : D#2 06 . ... ... ... : D#3 06 8 ... ... ... : ... .. . ... ... ... : ... .. . ... ... ... : ... .. . ... ... ...
ROW FE : ... .. . ... ... ... : ... .. . ... ... ... : ... .. . ... ... ... : E-# 00 4 ... ... ... : ... .. . ... ... ... : ... .. . ... ... ... : ... .. . P80 ... ... : ... .. . ... ... ... : ... .. . ... ... ... : ... .. . ... ... ... : ... .. . ... ... ... : ... .. . ... ... ... : ... .. . ... ... ...
ROW FF : ... .. . ... ... ... : ... .. . ... ... ... : ... .. . ... ... ... : D-# 00 2 ... ... ... : ... .. . ... ... ... : ... .. . ... ... ... : ... .. . P81 ... ... : ... .. . ... ... ... : ... .. . ... ... ... : ... .. . ... ... ... : ... .. . ... ... ... : ... .. . ... ... ... : ... .. . ... ... ...

PATTERN 0B
ROW 00 : ... .. . ... ... ... : ... .. . ... ... ... : ... .. . ... ... ... : ... .. 1 ... ... ... : ... .. . ... ... ... : D#2 09 . ... ... ... : D-2 09 . P7F ... ... : ... .. . ... ... ... : D#2 09 . ... ... ... : D#3 09 . ... ... ... : ... .. . ... ... ... : ... .. . ... ... ... : ... .. . ... ... ...
ROW 01 : ... .. . ... ... ... : ... .. . ... ... ... : ... .. . ... ... ... : ... .. . ... ... ... : ... .. . ... ... ... : ... .. . ... ... ... : D#2 09 . P81 ... ... : ... .. . ... ... ... : ... .. C ... ... ... : ... .. 7 ... ... ... : ... .. . ... ... ... : ... .. . ... ... ... : ... .. . ... ... ...
ROW 02 : ... .. . ... ... ... : ... .. . ... ... ... : ... .. . ... ... ... : --- .. . ... ... ... : ... .. . ... ... ... : ... .. . ... ... ... : ... .. . P80 ... ... : ... .. . ... ... ... : ... .. . ... ... ... : ... .. . ... ... ... : ... .. . ... ... ... : ... .. . ... ... ... : ... .. . ... ... ...
ROW 03 : ... .. . ... ... ... : ... .. . ... ... ... : ... .. . ... ... ... : D-# 00 A ... ... ... : ... .. . ... ... ... : D#2 06 . ... ... ... : D#2 06 . P81 ... ... : ... .. . ... ... ... : D#2 06 . ... ... ... : D#3 06 . ... ... ... : ... .. . ... ... ... : ... .. . ... ... ... : ... .. . ... ... ...
ROW 04 : ... .. . ... ... ... : ... .. . ... ... ... : ... .. . ... ... ... : E-# 00 4 ... ... ... : ... .. . ... ... ... : ... .. . ... ... ... : D-2 06 . P7F ... ... : ... .. . ... ... ... : ... .. . ... ... ... : ... .. . ... ... ... : ... .. . ... ... ... : ... .. . ... ... ... : ... .. . ... ... ...
ROW 05 : ... .. . ... ... ... : ... .. . ... ... ... : ... .. . ... ... ... : D-# 00 2 ... ... ... : ... .. . ... ... ... : ... .. . ... ... ... : D#2 06 . P82 ... ... : ... .. . ... ... ... : ... .. . ... ... ... : ... .. 6 ... ... ... : ... .. . ... ... ... : ... .. . ... ... ... : ... .. . ... ... ...
ROW 06 : ... .. . ... ... ... : ... .. . ... ... ... : ... .. . ... ... ... : ... .. 1 ... ... ... : ... .. . ... ... ... : D#2 09 . ... ... ... : D#2 09 . P81 ... ... : ... .. . ... ... ... : D#2 09 . ... ... ... : D#3 09 . ... ... ... : ... .. . ... ... ... : ... .. . ... ... ... : ... .. . ... ... ...
ROW 07 : ... .. . ... ... ... : ... .. . ... ... ... : ... .. . ... ... ... : ... .. . ... ... ... : ... .. . ... ... ... : ... .. . ... ... ... : ... .. . ... ... ... : ... .. . ... ... ... : ... .. . ... ... ... : ... .. . ... ... ... : ... .. . ... ... ... : ... .. . ... ... ... : ... .. . ... ... ...
ROW 08 : ... .. . ... ... ... : ... .. . ... ... ... : ... .. . ... ... ... : --- .. . ... ... ... : ... .. . ... ... ... : ... .. . ... ... ... : ... .. . P82 ... ... : ... .. . ... ... ... : ... .. . ... ... ... : ... .. . ... ... ... : ... .. . ... ... ... : ... .. . ... ... ... : ... .. . ... ... ...
ROW 09 : ... .. . ... ... ... : ... .. . ... ... ... : ... .. . ... ... ... : ... .. . ... ... ... : ... .. . ... ... ... : ... .. . ... ... ... : ... .. . ... ... ... : ... .. . ... ... ... : ... .. B ... ... ... : ... .. 5 ... ... ... : ... .. . ... ... ... : ... .. . ... ... ... : ... .. . ... ... ...
ROW 0A : ... .. . ... ... ... : C-4 02 . P80 ... ... : C#4 00 . P7F ... ... : 9-# 00 F ... ... ... : C#1 12 . ... ... ... : D-2 06 . ... ... ... : D-2 06 . P81 ... ... : ... .. . ... ... ... : D-2 06 . ... ... ... : D-3 06 . ... ... ... : ... .. . ... ... ... : ... .. . ... ... ... : ... .. . ... ... ...
ROW 0B : ... .. . ... ... ... : F-3 02 . ... ... ... : F#3 00 . P83 ... ... : 2-# 00 7 ... ... ... : ... .. . ... ... ... : ... .. . ... ... ... : ... .. . P80 ... ... : ... .. . ... ... ... : ... .. . ... ... ... : ... .. . ... ... ... : ... .. . ... ... ... : ... .. . ... ... ... : ... .. . ... ... ...
ROW 0C : ... .. . ... ... ... : A#2 02 . P81 ... ... : C#3 00 . P89 ... ... : 6-# 00 C ... ... ... : ... .. . ... ... ... : ... .. . ... ... ... : ... .. . P81 ... ... : ... .. . ... ... ... : ... .. . ... ... ... : ... .. . ... ... ... : ... .. . ... ... ... : ... .. . ... ... ... : ... .. . ... ... ...
ROW 0D : ... .. . ... ... ... : D#2 02 . ... ... ... : A#2 00 . P75 ... ... : 7-# 00 8 ... ... ... : ... .. . ... ... ... : D-2 07 . ... ... ... : C#2 07 . P7F ... ... : ... .. . ... ... ... : D-2 07 . ... ... ... : D-3 07 4 ... ... ... : ... .. . ... ... ... : ... .. . ... ... ... : ... .. . ... ... ...
ROW 0E : ... .. . ... ... ... : G#1 02 . ... ... ... : G-2 00 . P70 ... ... : 8-# 00 7 ... ... ... : ... .. . ... ... ... : ... .. . ... ... ... : D-2 07 . P81 ... ... : ... .. . ... ... ... : ... .. . ... ... ... : ... .. . ... ... ... : ... .. . ... ... ... : ... .. . ... ... ... : ... .. . ... ... ...
ROW 0F : ... .. . ... ... ... : C#1 02 . ... ... ... : E-2 00 . P7C ... ... : ... .. 6 ... ... ... : ... .. . ... ... ... : ... .. . ... ... ... : ... .. . P80 ... ... : ... .. . ... ... ... : ... .. . ... ... ... : ... .. . ... ... ... : ... .. . ... ... ... : ... .. . ... ... ... : ... .. . ... ... ...
ROW 10 : ... .. . ... ... ... : ... .. . ... ... ... : --- .. . ... ... ... : ... .. . ... ... ... : ... .. . ... ... ... : D-2 08 . ... ... ... : D-2 08 . P81 ... ... : ... .. . ... ... ... : D-2 08 . ... ... ... : D-3 08 . ... ... ... : ... .. . ... ... ... : ... .. . ... ... ... : ... .. . ... ... ...
ROW 11 : ... .. . ... ... ... : ... .. . ... ... ... : ... .. . ... ... ... : ... .. 5 ... ... ... : ... .. . ... ... ... : ... .. . ... ... ... : C#2 08 . P7F ... ... : ... .. . ... ... ... : ... .. A ... ... ... : ... .. 3 ... ... ... : ... .. . ... ... ... : ... .. . ... ... ... : ... .. . ... ... ...
ROW 12 : ... .. . ... ... ... : ... .. . ... ... ... : ... .. . ... ... ... : ... .. . ... ... ... : ... .. . ... ... ... : ... .. . ... ... ... : D-2 08 . P81 ... ... : ... .. . ... ... ... : ... .. . ... ... ... : ... .. . ... ... ... : ... .. . ... ... ... : ... .. . ... ... ... : ... .. . ... ... ...
ROW 13 : ... .. . ... ... ... : ... .. . ... ... ... : ... .. . ... ... ... : ... .. 4 ... ... ... : ... .. . ... ... ... : D-2 09 . ... ... ... : D-2 09 . P80 ... ... : ... .. . ... ... ... : D-2 09 . ... ... ... : D-3 09 . ... ... ... : ... .. . ... ... ... : ... .. . ... ... ... : ... .. . ... ... ...
ROW 14 : ... .. . ... ... ... : ... .. . ... ... ... : ... .. . ... ... ... : ... .. . ... ... ... : ... .. . ... ... ... : ... .. . ... ... ... : ... .. . P81 ... ... : ... .. . ... ... ... : ... .. . ... ... ... : ... .. . ... ... ... : ... .. . ... ... ... : ... .. . ... ... ... : ... .. . ... ... ...
ROW 15 : ... .. . ... ... ... : ... .. . ... ... ... : ... .. . ... ... ... : ... .. 3 ... ... ... : ... .. . ... ... ... : ... .. . ... ... ... : C#2 09 . P7F ... ... : ... .. . ... ... ... : ... .. . ... ... ... : ... .. 2 ... ... ... : ... .. . ... ... ... : ... .. . ... ... ... : ... .. . ... ... ...
ROW 16 : ... .. . ... ... ... : F-3 02 . P80 ... ... : C#4 00 . P7F ... ... : 1-# 00 F ... ... ... : C-1 12 . ... ... ... : --- .. . ... ... ... : --- .. . ... ... ... : ... .. . ... ... ... : --- .. . ... ... ... : --- .. . ... ... ... : ... .. . ... ... ... : ... .. . ... ... ... : ... .. . ... ... ...
ROW 17 : ... .. . ... ... ... : A#2 02 . P81 ... ... : F#3 00 . P83 ... ... : 2-# 00 7 ... ... ... : ... .. . ... ... ... : ... .. . ... ... ... : ... .. . P80 ... ... : ... .. . ... ... ... : ... .. . P80 ... ... : ... .. . P80 ... ... : ... .. . ... ... ... : ... .. . ... ... ... : ... .. . ... ... ...
ROW 18 : ... .. . ... ... ... : D#2 02 . ... ... ... : C#3 00 . P89 ... ... : 1-# 00 4 ... ... ... : ... .. . ... ... ... : ... .. . ... ... ... : ... .. . ... ... ... : ... .. . ... ... ... : ... .. . ... ... ... : ... .. . ... ... ... : ... .. . ... ... ... : ... .. . ... ... ... : ... .. . ... ... ...
ROW 19 : ... .. . ... ... ... : G#1 02 . ... ... ... : A#2 00 . P75 ... ... : ... .. 2 ... ... ... : ... .. . ... ... ... : ... .. . ... ... ... : ... .. . ... ... ... : ... .. . ... ... ... : ... .. . ... ... ... : ... .. . ... ... ... : ... .. . ... ... ... : ... .. . ... ... ... : ... .. . ... ... ...
ROW 1A : ... .. . ... ... ... : C#1 02 . ... ... ... : G-2 00 . P70 ... ... : ... .. 1 ... ... ... : ... .. . ... ... ... : ... .. . ... ... ... : ... .. . ... ... ... : ... .. . ... ... ... : ... .. . ... ... ... : ... .. . ... ... ... : ... .. . ... ... ... : ... .. . ... ... ... : ... .. . ... ... ...
ROW 1B : ... .. . ... ... ... : ... .. . ... ... ... : E-2 00 . P7C ... ... : --- .. . ... ... ... : ... .. . ... ... ... : ... .. . ... ... ... : ... .. . ... ... ... : ... .. . ... ... ... : ... .. . ... ... ... : ... .. . ... ... ... : ... .. . ... ... ... : ... .. . ... ... ... : ... .. . ... ... ...
ROW 1C : ... .. . ... ... ... : ... .. . ... ... ... : D-2 00 . P6F ... ... : ... .. . ... ... ... : ... .. . ... ... ... : ... .. . ... ... ... : ... .. . ... ... ... : ... .. . ... ... ... : ... .. . ... ... ... : ... .. . ... ... ... : ... .. . ... ... ... : ... .. . ... ... ... : ... .. . ... ... ...
ROW 1D : ... .. . ... ... ... : ... .. . ... ... ... : C-2 00 . P6C ... ... : ... .. . ... ... ... : ... .. . ... ... ... : ... .. . ... ... ... : ... .. . ... ... ... : ... .. . ... ... ... : ... .. . ... ... ... : ... .. . ... ... ... : ... .. . ... ... ... : ... .. . ... ... ... : ... .. . ... ... ...
ROW 1E : ... .. . ... ... ... : ... .. . ... ... ... : A#1 00 . P75 ... ... : ... .. . ... ... ... : ... .. . ... ... ... : ... .. . ... ... ... : ... .. . ... ... ... : ... .. . ... ... ... : ... .. . ... ... ... : ... .. . ... ... ... : ... .. . ... ... ... : ... .. . ... ... ... : ... .. . ... ... ...
ROW 1F : ... .. . ... ... ... : ... .. . ... ... ... : G#1 00 . P8A ... ... : ... .. . ... ... ... : ... .. . ... ... ... : C-2 07 . ... ... ... : C-2 07 . P81 ... ... : ... .. . ... ... ... : ... .. . ... ... ... : ... .. . ... ... ... : ... .. . ... ... ... : ... .. . ... ... ... : ... .. . ... ... ...
ROW 20 : ... .. . ... ... ... : ... .. . ... ... ... : G-1 00 . P6A ... ... : ... .. . ... ... ... : ... .. . ... ... ... : ... .. . ... ... ... : ... .. . P80 ... ... : ... .. . ... ... ... : ... .. . ... ... ... : ... .. . ... ... ... : ... .. . ... ... ... : ... .. . ... ... ... : ... .. . ... ... ...
ROW 21 : ... .. . ... ... ... : ... .. . ... ... ... : F-1 00 . P96 ... ... : ... .. . ... ... ... : ... .. . ... ... ... : ... .. . ... ... ... : ... .. . P81 ... ... : ... .. . ... ... ... : ... .. . ... ... ... : ... .. . ... ... ... : ... .. . ... ... ... : ... .. . ... ... ... : ... .. . ... ... ...
ROW 22 : ... .. . ... ... ... : ... .. . ... ... ... : E-1 00 . P82 ... ... : ... .. . ... ... ... : ... .. . ... ... ... : ... .. . ... ... ... : B-1 07 . P7F ... ... : ... .. . ... ... ... : ... .. . ... ... ... : ... .. . ... ... ... : ... .. . ... ... ... : ... .. . ... ... ... : ... .. . ... ... ...
ROW 23 : ... .. . ... ... ... : C-4 02 . P80 ... ... : F#3 00 . P78 ... ... : 1-# 00 F ... ... ... : C-1 12 . ... ... ... : C#2 06 . ... ... ... : C#2 06 . P81 ... ... : ... .. . ... ... ... : C#2 06 8 P7F ... ... : ... .. . ... ... ... : ... .. . ... ... ... : ... .. . ... ... ... : ... .. . ... ... ...
ROW 24 : ... .. . ... ... ... : F-3 02 . ... ... ... : C#3 00 . P7E ... ... : 2-# 00 7 ... ... ... : ... .. . ... ... ... : ... .. . ... ... ... : ... .. . P80 ... ... : ... .. . ... ... ... : ... .. . ... ... ... : ... .. . ... ... ... : ... .. . ... ... ... : ... .. . ... ... ... : ... .. . ... ... ...
ROW 25 : ... .. . ... ... ... : A#2 02 . P81 ... ... : A-2 00 . P86 ... ... : 1-# 00 4 ... ... ... : ... .. . ... ... ... : ... .. . ... ... ... : ... .. . P81 ... ... : ... .. . ... ... ... : ... .. . ... ... ... : ... .. . ... ... ... : ... .. . ... ... ... : ... .. . ... ... ... : ... .. . ... ... ...
ROW 26 : ... .. . ... ... ... : D#2 02 . ... ... ... : --- .. . ... ... ... : ... .. 2 ... ... ... : ... .. . ... ... ... : C#2 09 . ... ... ... : C#2 09 . P82 ... ... : ... .. . ... ... ... : C#2 09 . ... ... ... : ... .. . ... ... ... : ... .. . ... ... ... : ... .. . ... ... ... : ... .. . ... ... ...
ROW 27 : ... .. . ... ... ... : G#1 02 . ... ... ... : ... .. . ... ... ... : ... .. 1 ... ... ... : ... .. . ... ... ... : ... .. . ... ... ... : ... .. . ... ... ... : ... .. . ... ... ... : ... .. . ... ... ... : ... .. . ... ... ... : ... .. . ... ... ... : ... .. . ... ... ... : ... .. . ... ... ...
ROW 28 : ... .. . ... ... ... : C#1 02 . ... ... ... : ... .. . ... ... ... : --- .. . ... ... ... : ... .. . ... ... ... : ... .. . ... ... ... : ... .. . P81 ... ... : ... .. . ... ... ... : ... .. . ... ... ... : ... .. . ... ... ... : ... .. . ... ... ... : ... .. . ... ... ... : ... .. . ... ... ...
ROW 29 : ... .. . ... ... ... : ... .. . ... ... ... : ... .. . ... ... ... : ... .. . ... ... ... : ... .. . ... ... ... : C#2 06 . ... ... ... : C#2 06 . ... ... ... : ... .. . ... ... ... : C#2 06 7 ... ... ... : ... .. . ... ... ... : ... .. . ... ... ... : ... .. . ... ... ... : ... .. . ... ... ...
ROW 2A : ... .. . ... ... ... : ... .. . ... ... ... : ... .. . ... ... ... : ... .. . ... ... ... : ... .. . ... ... ... : ... .. . ... ... ... : ... .. . P82 ... ... : ... .. . ... ... ... : ... .. . ... ... ... : ... .. . ... ... ... : ... .. . ... ... ... : ... .. . ... ... ... : ... .. . ... ... ...
ROW 2B : ... .. . ... ... ... : ... .. . ... ... ... : ... .. . ... ... ... : ... .. . ... ... ... : ... .. . ... ... ... : ... .. . ... ... ... : C-2 06 . P7F ... ... : ... .. . ... ... ... : ... .. . ... ... ... : ... .. . ... ... ... : ... .. . ... ... ... : ... .. . ... ... ... : ... .. . ... ... ...
ROW 2C : ... .. . ... ... ... : ... .. . ... ... ... : ... .. . ... ... ... : ... .. . ... ... ... : ... .. . ... ... ... : C#2 09 . ... ... ... : C#2 09 . P81 ... ... : ... .. . ... ... ... : C#2 09 . ... ... ... : ... .. . ... ... ... : ... .. . ... ... ... : ... .. . ... ... ... : ... .. . ... ... ...
ROW 2D : ... .. . ... ... ... : ... .. . ... ... ... : ... .. . ... ... ... : ... .. . ... ... ... : ... .. . ... ... ... : ... .. . ... ... ... : ... .. . P80 ... ... : ... .. . ... ... ... : ... .. . ... ... ... : ... .. . ... ... ... : ... .. . ... ... ... : ... .. . ... ... ... : ... .. . ... ... ...
ROW 2E : ... .. . ... ... ... : ... .. . ... ... ... : ... .. . ... ... ... : ... .. . ... ... ... : ... .. . ... ... ... : ... .. . ... ... ... : ... .. . P81 ... ... : ... .. . ... ... ... : ... .. . ... ... ... : ... .. . ... ... ... : ... .. . ... ... ... : ... .. . ... ... ... : ... .. . ... ... ...
ROW 2F : ... .. . ... ... ... : ... .. . ... ... ... : ... .. . ... ... ... : D-# 00 A ... ... ... : ... .. . ... ... ... : C#2 06 . ... ... ... : C-2 06 . P7F ... ... : ... .. . ... ... ... : C#2 06 . ... ... ... : ... .. . ... ... ... : ... .. . ... ... ... : ... .. . ... ... ... : ... .. . ... ... ...
ROW 30 : ... .. . ... ... ... : ... .. . ... ... ... : ... .. . ... ... ... : E-# 00 4 ... ... ... : ... .. . ... ... ... : ... .. . ... ... ... : C#2 06 . P81 ... ... : ... .. . ... ... ... : ... .. . ... ... ... : ... .. . ... ... ... : ... .. . ... ... ... : ... .. . ... ... ... : ... .. . ... ... ...
ROW 31 : ... .. . ... ... ... : ... .. . ... ... ... : ... .. . ... ... ... : D-# 00 2 ... ... ... : ... .. . ... ... ... : ... .. . ... ... ... : ... .. . P80 ... ... : ... .. . ... ... ... : ... .. 6 ... ... ... : ... .. . ... ... ... : ... .. . ... ... ... : ... .. . ... ... ... : ... .. . ... ... ...
ROW 32 : ... .. . ... ... ... : ... .. . ... ... ... : ... .. . ... ... ... : ... .. 1 ... ... ... : ... .. . ... ... ... : C#2 09 . ... ... ... : C#2 09 . P81 ... ... : ... .. . ... ... ... : C#2 09 . ... ... ... : ... .. . ... ... ... : ... .. . ... ... ... : ... .. . ... ... ... : ... .. . ... ... ...
ROW 33 : ... .. . ... ... ... : ... .. . ... ... ... : ... .. . ... ... ... : ... .. . ... ... ... : ... .. . ... ... ... : ... .. . ... ... ... : C-2 09 . P7F ... ... : ... .. . ... ... ... : ... .. . ... ... ... : ... .. . ... ... ... : ... .. . ... ... ... : ... .. . ... ... ... : ... .. . ... ... ...
ROW 34 : ... .. . ... ... ... : ... .. . ... ... ... : ... .. . ... ... ... : --- .. . ... ... ... : ... .. . ... ... ... : ... .. . ... ... ... : C#2 09 . P81 ... ... : ... .. . ... ... ... : ... .. . ... ... ... : ... .. . ... ... ... : ... .. . ... ... ... : ... .. . ... ... ... : ... .. . ... ... ...
ROW 35 : ... .. . ... ... ... : ... .. . ... ... ... : ... .. . ... ... ... : D-# 00 A ... ... ... : ... .. . ... ... ... : C#2 06 . ... ... ... : C#2 06 . P80 ... ... : ... .. . ... ... ... : C#2 06 . ... ... ... : ... .. . ... ... ... : ... .. . ... ... ... : ... .. . ... ... ... : ... .. . ... ... ...
ROW 36 : ... .. . ... ... ... : ... .. . ... ... ... : ... .. . ... ... ... : E-# 00 4 ... ... ... : ... .. . ... ... ... : ... .. . ... ... ... : ... .. . P81 ... ... : ... .. . ... ... ... : ... .. . ... ... ... : ... .. . ... ... ... : ... .. . ... ... ... : ... .. . ... ... ... : ... .. . ... ... ...
ROW 37 : ... .. . ... ... ... : ... .. . ... ... ... : ... .. . ... ... ... : D-# 00 2 ... ... ... : ... .. . ... ... ... : ... .. . ... ... ... : ... .. . P82 ... ... : ... .. . ... ... ... : ... .. . ... ... ... : ... .. . ... ... ... : ... .. . ... ... ... : ... .. . ... ... ... : ... .. . ... ... ...
ROW 38 : ... .. . ... ... ... : ... .. . ... ... ... : ... .. . ... ... ... : ... .. 1 ... ... ... : ... .. . ... ... ... : C#2 09 . ... ... ... : C#2 09 . ... ... ... : ... .. . ... ... ... : C#2 09 . ... ... ... : ... .. . ... ... ... : ... .. . ... ... ... : ... .. . ... ... ... : ... .. . ... ... ...
ROW 39 : ... .. . ... ... ... : ... .. . ... ... ... : ... .. . ... ... ... : ... .. . ... ... ... : ... .. . ... ... ... : ... .. . ... ... ... : ... .. . P81 ... ... : ... .. . ... ... ... : ... .. 5 ... ... ... : ... .. . ... ... ... : ... .. . ... ... ... : ... .. . ... ... ... : ... .. . ... ... ...
ROW 3A : ... .. . ... ... ... : ... .. . ... ... ... : ... .. . ... ... ... : --- .. . ... ... ... : ... .. . ... ... ... : ... .. . ... ... ... : ... .. . P80 ... ... : ... .. . ... ... ... : ... .. . ... ... ... : ... .. . ... ... ... : ... .. . ... ... ... : ... .. . ... ... ... : ... .. . ... ... ...
ROW 3B : ... .. . ... ... ... : ... .. . ... ... ... : ... .. . ... ... ... : ... .. . ... ... ... : ... .. . ... ... ... : ... .. . ... ... ... : ... .. . P81 ... ... : ... .. . ... ... ... : ... .. . ... ... ... : ... .. . ... ... ... : ... .. . ... ... ... : ... .. . ... ... ... : ... .. . ... ... ...
ROW 3C : ... .. . ... ... ... : C-4 02 . P80 ... ... : C#4 00 . P7F ... ... : 9-# 00 F ... ... ... : C#1 12 . ... ... ... : G-1 06 . ... ... ... : F#1 06 . P80 ... ... : ... .. . ... ... ... : G-1 06 . ... ... ... : ... .. . ... ... ... : ... .. . ... ... ... : ... .. . ... ... ... : ... .. . ... ... ...
ROW 3D : ... .. . ... ... ... : F-3 02 . ... ... ... : F#3 00 . P83 ... ... : 2-# 00 7 ... ... ... : ... .. . ... ... ... : ... .. . ... ... ... : G-1 06 . P81 ... ... : ... .. . ... ... ... : ... .. . ... ... ... : ... .. . ... ... ... : ... .. . ... ... ... : ... .. . ... ... ... : ... .. . ... ... ...
ROW 3E : ... .. . ... ... ... : A#2 02 . P81 ... ... : C#3 00 . P89 ... ... : 6-# 00 C ... ... ... : ... .. . ... ... ... : ... .. . ... ... ... : ... .. . P80 ... ... : ... .. . ... ... ... : ... .. . ... ... ... : ... .. . ... ... ... : ... .. . ... ... ... : ... .. . ... ... ... : ... .. . ... ... ...
ROW 3F : ... .. . ... ... ... : D#2 02 . ... ... ... : A#2 00 . P75 ... ... : 7-# 00 8 ... ... ... : ... .. . ... ... ... : ... .. . ... ... ... : ... .. . P81 ... ... : ... .. . ... ... ... : ... .. . ... ... ... : ... .. . ... ... ... : ... .. . ... ... ... : ... .. . ... ... ... : ... .. . ... ... ...
ROW 40 : ... .. . ... ... ... : G#1 02 . ... ... ... : G-2 00 . P70 ... ... : 8-# 00 7 ... ... ... : ... .. . ... ... ... : ... .. . ... ... ... : F#1 06 . P80 ... ... : ... .. . ... ... ... : ... .. . ... ... ... : ... .. . ... ... ... : ... .. . ... ... ... : ... .. . ... ... ... : ... .. . ... ... ...
ROW 41 : ... .. . ... ... ... : C#1 02 . ... ... ... : E-2 00 . P7C ... ... : ... .. 6 ... ... ... : ... .. . ... ... ... : ... .. . ... ... ... : G-1 06 . P81 ... ... : ... .. . ... ... ... : ... .. 4 ... ... ... : ... .. . ... ... ... : ... .. . ... ... ... : ... .. . ... ... ... : ... .. . ... ... ...
ROW 42 : ... .. . ... ... ... : ... .. . ... ... ... : --- .. . ... ... ... : ... .. . ... ... ... : ... .. . ... ... ... : G-1 07 . ... ... ... : G-1 07 . P80 ... ... : ... .. . ... ... ... : G-1 07 . ... ... ... : ... .. . ... ... ... : ... .. . ... ... ... : ... .. . ... ... ... : ... .. . ... ... ...
ROW 43 : ... .. . ... ... ... : ... .. . ... ... ... : ... .. . ... ... ... : ... .. 5 ... ... ... : ... .. . ... ... ... : ... .. . ... ... ... : ... .. . P81 ... ... : ... .. . ... ... ... : ... .. . ... ... ... : ... .. . ... ... ... : ... .. . ... ... ... : ... .. . ... ... ... : ... .. . ... ... ...
ROW 44 : ... .. . ... ... ... : ... .. . ... ... ... : ... .. . ... ... ... : ... .. . ... ... ... : ... .. . ... ... ... : ... .. . ... ... ... : F#1 07 . P80 ... ... : ... .. . ... ... ... : ... .. . ... ... ... : ... .. . ... ... ... : ... .. . ... ... ... : ... .. . ... ... ... : ... .. . ... ... ...
ROW 45 : ... .. . ... ... ... : ... .. . ... ... ... : ... .. . ... ... ... : ... .. 4 ... ... ... : ... .. . ... ... ... : G-1 08 . ... ... ... : F#1 08 . ... ... ... : ... .. . ... ... ... : G-1 08 . ... ... ... : ... .. . ... ... ... : ... .. . ... ... ... : ... .. . ... ... ... : ... .. . ... ... ...
ROW 46 : ... .. . ... ... ... : ... .. . ... ... ... : ... .. . ... ... ... : ... .. . ... ... ... : ... .. . ... ... ... : ... .. . ... ... ... : G-1 08 . P81 ... ... : ... .. . ... ... ... : ... .. . ... ... ... : ... .. . ... ... ... : ... .. . ... ... ... : ... .. . ... ... ... : ... .. . ... ... ...
ROW 47 : ... .. . ... ... ... : ... .. . ... ... ... : ... .. . ... ... ... : ... .. 3 ... ... ... : ... .. . ... ... ... : ... .. . ... ... ... : ... .. . ... ... ... : ... .. . ... ... ... : ... .. . ... ... ... : ... .. . ... ... ... : ... .. . ... ... ... : ... .. . ... ... ... : ... .. . ... ... ...
ROW 48 : ... .. . ... ... ... : ... .. . ... ... ... : ... .. . ... ... ... : 6-# 01 F ... ... ... : ... .. . ... ... ... : B-1 06 . ... ... ... : A#1 06 . P7F ... ... : ... .. . ... ... ... : B-1 06 . ... ... ... : ... .. . ... ... ... : ... .. . ... ... ... : ... .. . ... ... ... : ... .. . ... ... ...
ROW 49 : ... .. . ... ... ... : ... .. . ... ... ... : ... .. . ... ... ... : ... .. 9 ... ... ... : ... .. . ... ... ... : ... .. . ... ... ... : ... .. . ... ... ... : ... .. . ... ... ... : ... .. 3 ... ... ... : ... .. . ... ... ... : ... .. . ... ... ... : ... .. . ... ... ... : ... .. . ... ... ...
ROW 4A : ... .. . ... ... ... : ... .. . ... ... ... : ... .. . ... ... ... : ... .. 4 ... ... ... : ... .. . ... ... ... : ... .. . ... ... ... : B-1 06 . P81 ... ... : ... .. . ... ... ... : ... .. . ... ... ... : ... .. . ... ... ... : ... .. . ... ... ... : ... .. . ... ... ... : ... .. . ... ... ...
ROW 4B : ... .. . ... ... ... : ... .. . ... ... ... : ... .. . ... ... ... : ... .. 7 ... ... ... : ... .. . ... ... ... : ... .. . ... ... ... : ... .. . P80 ... ... : ... .. . ... ... ... : ... .. . ... ... ... : ... .. . ... ... ... : ... .. . ... ... ... : ... .. . ... ... ... : ... .. . ... ... ...
ROW 4C : ... .. . ... ... ... : ... .. . ... ... ... : ... .. . ... ... ... : ... .. 5 ... ... ... : ... .. . ... ... ... : ... .. . ... ... ... : ... .. . P81 ... ... : ... .. . ... ... ... : ... .. . ... ... ... : ... .. . ... ... ... : ... .. . ... ... ... : ... .. . ... ... ... : ... .. . ... ... ...
ROW 4D : ... .. . ... ... ... : ... .. . ... ... ... : ... .. . ... ... ... : ... .. . ... ... ... : ... .. . ... ... ... : ... .. . ... ... ... : A#1 06 . P80 ... ... : ... .. . ... ... ... : ... .. . ... ... ... : ... .. . ... ... ... : ... .. . ... ... ... : ... .. . ... ... ... : ... .. . ... ... ...
ROW 4E : ... .. . ... ... ... : ... .. . ... ... ... : ... .. . ... ... ... : ... .. 4 ... ... ... : ... .. . ... ... ... : B-1 07 . ... ... ... : B-1 07 . P81 ... ... : ... .. . ... ... ... : B-1 07 . ... ... ... : ... .. . ... ... ... : ... .. . ... ... ... : ... .. . ... ... ... : ... .. . ... ... ...
ROW 4F : ... .. . ... ... ... : ... .. . ... ... ... : ... .. . ... ... ... : ... .. . ... ... ... : ... .. . ... ... ... : ... .. . ... ... ... : ... .. . P80 ... ... : ... .. . ... ... ... : ... .. . ... ... ... : ... .. . ... ... ... : ... .. . ... ... ... : ... .. . ... ... ... : ... .. . ... ... ...
ROW 50 : ... .. . ... ... ... : ... .. . ... ... ... : ... .. . ... ... ... : ... .. 3 ... ... ... : ... .. . ... ... ... : ... .. . ... ... ... : ... .. . P81 ... ... : ... .. . ... ... ... : ... .. . ... ... ... : ... .. . ... ... ... : ... .. . ... ... ... : ... .. . ... ... ... : ... .. . ... ... ...
ROW 51 : ... .. . ... ... ... : ... .. . ... ... ... : ... .. . ... ... ... : ... .. 2 ... ... ... : ... .. . ... ... ... : B-1 08 . ... ... ... : A#1 08 . P80 ... ... : ... .. . ... ... ... : B-1 08 2 ... ... ... : ... .. . ... ... ... : ... .. . ... ... ... : ... .. . ... ... ... : ... .. . ... ... ...
ROW 52 : ... .. . ... ... ... : ... .. . ... ... ... : ... .. . ... ... ... : ... .. . ... ... ... : ... .. . ... ... ... : ... .. . ... ... ... : B-1 08 . P81 ... ... : ... .. . ... ... ... : ... .. . ... ... ... : ... .. . ... ... ... : ... .. . ... ... ... : ... .. . ... ... ... : ... .. . ... ... ...
ROW 53 : ... .. . ... ... ... : ... .. . ... ... ... : ... .. . ... ... ... : ... .. 1 ... ... ... : ... .. . ... ... ... : ... .. . ... ... ... : ... .. . P80 ... ... : ... .. . ... ... ... : ... .. . ... ... ... : ... .. . ... ... ... : ... .. . ... ... ... : ... .. . ... ... ... : ... .. . ... ... ...
ROW 54 : ... .. . ... ... ... : ... .. . ... ... ... : ... .. . ... ... ... : ... .. . ... ... ... : ... .. . ... ... ... : ... .. . ... ... ... : ... .. . P81 ... ... : ... .. . ... ... ... : ... .. . ... ... ... : ... .. . ... ... ... : ... .. . ... ... ... : ... .. . ... ... ... : ... .. . ... ... ...
ROW 55 : ... .. . ... ... ... : C-4 02 . P80 ... ... : F#3 00 . P78 ... ... : 1-# 00 F ... ... ... : C-1 12 . ... ... ... : G#1 06 . ... ... ... : G-1 06 . P80 ... ... : ... .. . ... ... ... : G#1 06 . ... ... ... : ... .. . ... ... ... : ... .. . ... ... ... : ... .. . ... ... ... : ... .. . ... ... ...
ROW 56 : ... .. . ... ... ... : F-3 02 . ... ... ... : C#3 00 . P7E ... ... : 2-# 00 7 ... ... ... : ... .. . ... ... ... : ... .. . ... ... ... : ... .. . ... ... ... : ... .. . ... ... ... : ... .. . ... ... ... : ... .. . ... ... ... : ... .. . ... ... ... : ... .. . ... ... ... : ... .. . ... ... ...
ROW 57 : ... .. . ... ... ... : A#2 02 . P81 ... ... : A-2 00 . P86 ... ... : 1-# 00 4 ... ... ... : ... .. . ... ... ... : ... .. . ... ... ... : G#1 06 . P81 ... ... : ... .. . ... ... ... : ... .. . ... ... ... : ... .. . ... ... ... : ... .. . ... ... ... : ... .. . ... ... ... : ... .. . ... ... ...
ROW 58 : ... .. . ... ... ... : D#2 02 . ... ... ... : --- .. . ... ... ... : ... .. 2 ... ... ... : ... .. . ... ... ... : ... .. . ... ... ... : ... .. . ... ... ... : ... .. . ... ... ... : ... .. . ... ... ... : ... .. . ... ... ... : ... .. . ... ... ... : ... .. . ... ... ... : ... .. . ... ... ...
ROW 59 : ... .. . ... ... ... : G#1 02 . ... ... ... : ... .. . ... ... ... : ... .. 1 ... ... ... : ... .. . ... ... ... : ... .. . ... ... ... : G-1 06 . P80 ... ... : ... .. . ... ... ... : ... .. 1 ... ... ... : ... .. . ... ... ... : ... .. . ... ... ... : ... .. . ... ... ... : ... .. . ... ... ...
ROW 5A : ... .. . ... ... ... : C#1 02 . ... ... ... : ... .. . ... ... ... : --- .. . ... ... ... : ... .. . ... ... ... : ... .. . ... ... ... : ... .. . ... ... ... : ... .. . ... ... ... : ... .. . ... ... ... : ... .. . ... ... ... : ... .. . ... ... ... : ... .. . ... ... ... : ... .. . ... ... ...
ROW 5B : ... .. . ... ... ... : ... .. . ... ... ... : ... .. . ... ... ... : ... .. . ... ... ... : ... .. . ... ... ... : G#1 07 . ... ... ... : G#1 07 . P81 ... ... : ... .. . ... ... ... : G#1 07 . ... ... ... : ... .. . ... ... ... : ... .. . ... ... ... : ... .. . ... ... ... : ... .. . ... ... ...
ROW 5C : ... .. . ... ... ... : ... .. . ... ... ... : ... .. . ... ... ... : ... .. . ... ... ... : ... .. . ... ... ... : ... .. . ... ... ... : ... .. . P80 ... ... : ... .. . ... ... ... : ... .. . ... ... ... : ... .. . ... ... ... : ... .. . ... ... ... : ... .. . ... ... ... : ... .. . ... ... ...
ROW 5D : ... .. . ... ... ... : ... .. . ... ... ... : ... .. . ... ... ... : ... .. . ... ... ... : ... .. . ... ... ... : ... .. . ... ... ... : ... .. . P81 ... ... : ... .. . ... ... ... : ... .. . ... ... ... : ... .. . ... ... ... : ... .. . ... ... ... : ... .. . ... ... ... : ... .. . ... ... ...
ROW 5E : ... .. . ... ... ... : ... .. . ... ... ... : ... .. . ... ... ... : ... .. . ... ... ... : ... .. . ... ... ... : G-1 07 . ... ... ... : F#1 07 . P80 ... ... : ... .. . ... ... ... : ... .. . P81 ... ... : ... .. . ... ... ... : ... .. . ... ... ... : ... .. . ... ... ... : ... .. . ... ... ...
ROW 5F : ... .. . ... ... ... : ... .. . ... ... ... : ... .. . ... ... ... : ... .. . ... ... ... : ... .. . ... ... ... : F#1 07 . ... ... ... : ... .. . P81 ... ... : ... .. . ... ... ... : G-1 07 . ... ... ... : ... .. . ... ... ... : ... .. . ... ... ... : ... .. . ... ... ... : ... .. . ... ... ...
ROW 60 : ... .. . ... ... ... : ... .. . ... ... ... : ... .. . ... ... ... : ... .. . ... ... ... : ... .. . ... ... ... : F-1 07 . ... ... ... : F-1 07 . P80 ... ... : ... .. . ... ... ... : F#1 07 . ... ... ... : ... .. . ... ... ... : ... .. . ... ... ... : ... .. . ... ... ... : ... .. . ... ... ...
ROW 61 : ... .. . ... ... ... : ... .. . ... ... ... : ... .. . ... ... ... : D-# 00 A ... ... ... : ... .. . ... ... ... : E-1 08 . ... ... ... : E-1 08 . P81 ... ... : G#6 03 7 ... ... ... : --- .. . ... ... ... : ... .. . ... ... ... : ... .. . ... ... ... : ... .. . ... ... ... : ... .. . ... ... ...
ROW 62 : ... .. . ... ... ... : ... .. . ... ... ... : ... .. . ... ... ... : E-# 00 4 ... ... ... : ... .. . ... ... ... : D#1 08 . ... ... ... : D-1 08 . P80 ... ... : ... .. . ... ... ... : ... .. . P80 ... ... : ... .. . ... ... ... : ... .. . ... ... ... : ... .. . ... ... ... : ... .. . ... ... ...
ROW 63 : ... .. . ... ... ... : ... .. . ... ... ... : ... .. . ... ... ... : D-# 00 2 ... ... ... : ... .. . ... ... ... : D-1 08 . ... ... ... : ... .. . P81 ... ... : ... .. . ... ... ... : ... .. . ... ... ... : ... .. . ... ... ... : ... .. . ... ... ... : ... .. . ... ... ... : ... .. . ... ... ...
ROW 64 : ... .. . ... ... ... : ... .. . ... ... ... : ... .. . ... ... ... : ... .. 1 ... ... ... : ... .. . ... ... ... : C#1 08 . ... ... ... : C#1 08 . P80 ... ... : ... .. 5 ... ... ... : ... .. . ... ... ... : ... .. . ... ... ... : ... .. . ... ... ... : ... .. . ... ... ... : ... .. . ... ... ...
ROW 65 : ... .. . ... ... ... : ... .. . ... ... ... : ... .. . ... ... ... : ... .. . ... ... ... : ... .. . ... ... ... : C-1 08 . P81 ... ... : C-1 08 . P81 ... ... : ... .. . ... ... ... : ... .. . ... ... ... : ... .. . ... ... ... : ... .. . ... ... ... : ... .. . ... ... ... : ... .. . ... ... ...
ROW 66 : ... .. . ... ... ... : ... .. . ... ... ... : ... .. . ... ... ... : --- .. . ... ... ... : ... .. . ... ... ... : B-0 08 . ... ... ... : A-0 08 . P80 ... ... : ... .. . ... ... ... : ... .. . ... ... ... : ... .. . ... ... ... : ... .. . ... ... ... : ... .. . ... ... ... : ... .. . ... ... ...
ROW 67 : ... .. . ... ... ... : ... .. . ... ... ... : ... .. . ... ... ... : D-# 00 A ... ... ... : ... .. . ... ... ... : A-0 09 . P80 ... ... : G#0 09 . P81 ... ... : ... .. 3 ... ... ... : ... .. . ... ... ... : ... .. . ... ... ... : ... .. . ... ... ... : ... .. . ... ... ... : ... .. . ... ... ...
ROW 68 : ... .. . ... ... ... : ... .. . ... ... ... : ... .. . ... ... ... : E-# 00 4 ... ... ... : ... .. . ... ... ... : G-0 09 . ... ... ... : G-0 09 . P80 ... ... : ... .. . ... ... ... : ... .. . ... ... ... : ... .. . ... ... ... : ... .. . ... ... ... : ... .. . ... ... ... : ... .. . ... ... ...
ROW 69 : ... .. . ... ... ... : ... .. . ... ... ... : ... .. . ... ... ... : D-# 00 2 ... ... ... : ... .. . ... ... ... : F#0 09 . P81 ... ... : F-0 09 . ... ... ... : ... .. . ... ... ... : ... .. . ... ... ... : ... .. . ... ... ... : ... .. . ... ... ... : ... .. . ... ... ... : ... .. . ... ... ...
ROW 6A : ... .. . ... ... ... : ... .. . ... ... ... : ... .. . ... ... ... : ... .. 1 ... ... ... : ... .. . ... ... ... : E-0 09 . ... ... ... : D-0 09 . ... ... ... : ... .. 1 ... ... ... : ... .. . ... ... ... : ... .. . ... ... ... : ... .. . ... ... ... : ... .. . ... ... ... : ... .. . ... ... ...
ROW 6B : ... .. . ... ... ... : ... .. . ... ... ... : ... .. . ... ... ... : ... .. . ... ... ... : ... .. . ... ... ... : D-0 09 . ... ... ... : C-0 09 . P81 ... ... : ... .. . ... ... ... : ... .. . ... ... ... : ... .. . ... ... ... : ... .. . ... ... ... : ... .. . ... ... ... : ... .. . ... ... ...
ROW 6C : ... .. . ... ... ... : ... .. . ... ... ... : ... .. . ... ... ... : --- .. . ... ... ... : ... .. . ... ... ... : C-0 09 . ... ... ... : ... .. . P82 ... ... : ... .. . ... ... ... : ... .. . ... ... ... : ... .. . ... ... ... : ... .. . ... ... ... : ... .. . ... ... ... : ... .. . ... ... ...
ROW 6D : ... .. . ... ... ... : ... .. . ... ... ... : ... .. . ... ... ... : ... .. . ... ... ... : ... .. . ... ... ... : ... .. . P83 ... ... : ... .. . P83 ... ... : ... .. . ... ... ... : ... .. . ... ... ... : ... .. . ... ... ... : ... .. . ... ... ... : ... .. . ... ... ... : ... .. . ... ... ...
ROW 6E : ... .. . ... ... ... : C-4 02 . P80 ... ... : C#4 00 . P7F ... ... : 9-# 00 F ... ... ... : C#1 12 . ... ... ... : G#1 04 . P80 ... ... : C-0 04 . P86 ... ... : G-1 04 9 ... ... ... : A-1 04 9 P82 ... ... : ... .. . ... ... ... : ... .. . ... ... ... : ... .. . ... ... ... : ... .. . ... ... ...
ROW 6F : ... .. . ... ... ... : F-3 02 . ... ... ... : F#3 00 . P83 ... ... : 2-# 00 7 ... ... ... : ... .. . ... ... ... : ... .. . ... ... ... : --- .. . P7C ... ... : ... .. . ... ... ... : ... .. . ... ... ... : ... .. . ... ... ... : ... .. . ... ... ... : ... .. . ... ... ... : ... .. . ... ... ...
ROW 70 : ... .. . ... ... ... : A#2 02 . P81 ... ... : C#3 00 . P89 ... ... : 6-# 00 C ... ... ... : ... .. . ... ... ... : ... .. . ... ... ... : ... .. . P7D ... ... : ... .. . ... ... ... : ... .. . ... ... ... : ... .. . ... ... ... : ... .. . ... ... ... : ... .. . ... ... ... : ... .. . ... ... ...
ROW 71 : ... .. . ... ... ... : D#2 02 . ... ... ... : A#2 00 . P75 ... ... : 7-# 00 8 ... ... ... : ... .. . ... ... ... : ... .. . ... ... ... : ... .. . P7E ... ... : ... .. . ... ... ... : ... .. . ... ... ... : ... .. . ... ... ... : ... .. . ... ... ... : ... .. . ... ... ... : ... .. . ... ... ...
ROW 72 : ... .. . ... ... ... : G#1 02 . ... ... ... : G-2 00 . P70 ... ... : 8-# 00 7 ... ... ... : ... .. . ... ... ... : ... .. . ... ... ... : D#7 04 . P81 ... ... : ... .. 8 ... ... ... : ... .. . ... ... ... : ... .. . ... ... ... : ... .. . ... ... ... : ... .. . ... ... ... : ... .. . ... ... ...
ROW 73 : ... .. . ... ... ... : C#1 02 . ... ... ... : E-2 00 . P7C ... ... : ... .. 6 ... ... ... : ... .. . ... ... ... : ... .. . ... ... ... : ... .. . P82 ... ... : ... .. . ... ... ... : ... .. . ... ... ... : ... .. . ... ... ... : ... .. . ... ... ... : ... .. . ... ... ... : ... .. . ... ... ...
ROW 74 : ... .. . ... ... ... : ... .. . ... ... ... : --- .. . ... ... ... : ... .. . ... ... ... : ... .. . ... ... ... : G#2 04 . ... ... ... : ... .. . P81 ... ... : G#2 04 . P82 ... ... : G#2 04 . P7F ... ... : ... .. . ... ... ... : ... .. . ... ... ... : ... .. . ... ... ... : ... .. . ... ... ...
ROW 75 : ... .. . ... ... ... : ... .. . ... ... ... : ... .. . ... ... ... : ... .. 5 ... ... ... : ... .. . ... ... ... : ... .. . ... ... ... : --- .. . ... ... ... : ... .. . ... ... ... : ... .. . ... ... ... : ... .. . ... ... ... : ... .. . ... ... ... : ... .. . ... ... ... : ... .. . ... ... ...
ROW 76 : ... .. . ... ... ... : ... .. . ... ... ... : ... .. . ... ... ... : ... .. . ... ... ... : ... .. . ... ... ... : ... .. . ... ... ... : D#7 04 . ... ... ... : ... .. 7 ... ... ... : ... .. 8 ... ... ... : ... .. . ... ... ... : ... .. . ... ... ... : ... .. . ... ... ... : ... .. . ... ... ...
ROW 77 : ... .. . ... ... ... : ... .. . ... ... ... : ... .. . ... ... ... : ... .. 4 ... ... ... : ... .. . ... ... ... : ... .. . ... ... ... : ... .. . P82 ... ... : ... .. . ... ... ... : ... .. . ... ... ... : ... .. . ... ... ... : ... .. . ... ... ... : ... .. . ... ... ... : ... .. . ... ... ...
ROW 78 : ... .. . ... ... ... : ... .. . ... ... ... : ... .. . ... ... ... : ... .. . ... ... ... : ... .. . ... ... ... : ... .. . ... ... ... : ... .. . ... ... ... : ... .. . ... ... ... : ... .. . ... ... ... : ... .. . ... ... ... : ... .. . ... ... ... : ... .. . ... ... ... : ... .. . ... ... ...
ROW 79 : ... .. . ... ... ... : ... .. . ... ... ... : ... .. . ... ... ... : ... .. 3 ... ... ... : ... .. . ... ... ... : ... .. . ... ... ... : ... .. . P81 ... ... : ... .. . ... ... ... : ... .. . ... ... ... : ... .. . ... ... ... : ... .. . ... ... ... : ... .. . ... ... ... : ... .. . ... ... ...
ROW 7A : ... .. . ... ... ... : ... .. . ... ... ... : ... .. . ... ... ... : D-# 00 A ... ... ... : ... .. . ... ... ... : G#1 04 . ... ... ... : --- .. . ... ... ... : G-1 04 6 P80 ... ... : A-1 04 . P82 ... ... : ... .. . ... ... ... : ... .. . ... ... ... : ... .. . ... ... ... : ... .. . ... ... ...
ROW 7B : ... .. . ... ... ... : ... .. . ... ... ... : ... .. . ... ... ... : E-# 00 4 ... ... ... : ... .. . ... ... ... : ... .. . ... ... ... : ... .. . P80 ... ... : ... .. . ... ... ... : ... .. . ... ... ... : ... .. . ... ... ... : ... .. . ... ... ... : ... .. . ... ... ... : ... .. . ... ... ...
ROW 7C : ... .. . ... ... ... : ... .. . ... ... ... : ... .. . ... ... ... : D-# 00 2 ... ... ... : ... .. . ... ... ... : ... .. . ... ... ... : ... .. . ... ... ... : ... .. . ... ... ... : ... .. . ... ... ... : ... .. . ... ... ... : ... .. . ... ... ... : ... .. . ... ... ... : ... .. . ... ... ...
ROW 7D : ... .. . ... ... ... : ... .. . ... ... ... : ... .. . ... ... ... : ... .. 1 ... ... ... : ... .. . ... ... ... : ... .. . ... ... ... : ... .. . ... ... ... : ... .. . ... ... ... : ... .. . ... ... ... : ... .. . ... ... ... : ... .. . ... ... ... : ... .. . ... ... ... : ... .. . ... ... ...
ROW 7E : ... .. . ... ... ... : ... .. . ... ... ... : ... .. . ... ... ... : ... .. . ... ... ... : ... .. . ... ... ... : ... .. . ... ... ... : ... .. . ... ... ... : ... .. 5 ... ... ... : ... .. 7 ... ... ... : ... .. . ... ... ... : ... .. . ... ... ... : ... .. . ... ... ... : ... .. . ... ... ...
ROW 7F : ... .. . ... ... ... : ... .. . ... ... ... : ... .. . ... ... ... : --- .. . ... ... ... : ... .. . ... ... ... : ... .. . ... ... ... : ... .. . ... ... ... : ... .. . ... ... ... : ... .. . ... ... ... : ... .. . ... ... ... : ... .. . ... ... ... : ... .. . ... ... ... : ... .. . ... ... ...
ROW 80 : ... .. . ... ... ... : ... .. . ... ... ... : ... .. . ... ... ... : D-# 00 A ... ... ... : ... .. . ... ... ... : G#2 04 . ... ... ... : ... .. . ... ... ... : G#2 04 . P82 ... ... : G#2 04 . P7F ... ... : ... .. . ... ... ... : ... .. . ... ... ... : ... .. . ... ... ... : ... .. . ... ... ...
ROW 81 : ... .. . ... ... ... : ... .. . ... ... ... : ... .. . ... ... ... : E-# 00 4 ... ... ... : ... .. . ... ... ... : ... .. . ... ... ... : ... .. . ... ... ... : ... .. . ... ... ... : ... .. . ... ... ... : ... .. . ... ... ... : ... .. . ... ... ... : ... .. . ... ... ... : ... .. . ... ... ...
ROW 82 : ... .. . ... ... ... : ... .. . ... ... ... : ... .. . ... ... ... : D-# 00 2 ... ... ... : ... .. . ... ... ... : ... .. . ... ... ... : ... .. . ... ... ... : ... .. 4 ... ... ... : ... .. . ... ... ... : ... .. . ... ... ... : ... .. . ... ... ... : ... .. . ... ... ... : ... .. . ... ... ...
ROW 83 : ... .. . ... ... ... : ... .. . ... ... ... : ... .. . ... ... ... : ... .. 1 ... ... ... : ... .. . ... ... ... : ... .. . ... ... ... : ... .. . ... ... ... : ... .. . ... ... ... : ... .. . ... ... ... : ... .. . ... ... ... : ... .. . ... ... ... : ... .. . ... ... ... : ... .. . ... ... ...
ROW 84 : ... .. . ... ... ... : ... .. . ... ... ... : ... .. . ... ... ... : ... .. . ... ... ... : ... .. . ... ... ... : ... .. . ... ... ... : ... .. . ... ... ... : ... .. . ... ... ... : ... .. . ... ... ... : ... .. . ... ... ... : ... .. . ... ... ... : ... .. . ... ... ... : ... .. . ... ... ...
ROW 85 : ... .. . ... ... ... : ... .. . ... ... ... : ... .. . ... ... ... : --- .. . ... ... ... : ... .. . ... ... ... : ... .. . ... ... ... : ... .. . ... ... ... : ... .. . ... ... ... : ... .. . ... ... ... : ... .. . ... ... ... : ... .. . ... ... ... : ... .. . ... ... ... : ... .. . ... ... ...
ROW 86 : ... .. . ... ... ... : ... .. . ... ... ... : ... .. . ... ... ... : ... .. . ... ... ... : ... .. . ... ... ... : ... .. . ... ... ... : ... .. . ... ... ... : ... .. 3 ... ... ... : ... .. 6 ... ... ... : ... .. . ... ... ... : ... .. . ... ... ... : ... .. . ... ... ... : ... .. . ... ... ...
ROW 87 : ... .. . ... ... ... : C-4 02 . P80 ... ... : F#3 00 . P78 ... ... : 1-# 00 F ... ... ... : C-1 12 . ... ... ... : B-4 0C 7 P7C ... ... : ... .. . ... ... ... : --- .. . ... ... ... : A#3 0C 1 P85 ... ... : ... .. . ... ... ... : ... .. . ... ... ... : ... .. . ... ... ... : ... .. . ... ... ...
ROW 88 : ... .. . ... ... ... : F-3 02 . ... ... ... : C#3 00 . P7E ... ... : 2-# 00 7 ... ... ... : ... .. . ... ... ... : A#4 0C . P79 ... ... : ... .. . ... ... ... : ... .. . P80 ... ... : G-3 0C . ... ... ... : ... .. . ... ... ... : ... .. . ... ... ... : ... .. . ... ... ... : ... .. . ... ... ...
ROW 89 : ... .. . ... ... ... : A#2 02 . P81 ... ... : A-2 00 . P86 ... ... : 1-# 00 4 ... ... ... : ... .. . ... ... ... : A-4 0C . P78 ... ... : ... .. . ... ... ... : ... .. . ... ... ... : D#3 0C . P82 ... ... : ... .. . ... ... ... : ... .. . ... ... ... : ... .. . ... ... ... : ... .. . ... ... ...
ROW 8A : ... .. . ... ... ... : D#2 02 . ... ... ... : --- .. . ... ... ... : ... .. 2 ... ... ... : ... .. . ... ... ... : G#4 0C . ... ... ... : ... .. . ... ... ... : ... .. . ... ... ... : A#2 0C . P7F ... ... : ... .. . ... ... ... : ... .. . ... ... ... : ... .. . ... ... ... : ... .. . ... ... ...
ROW 8B : ... .. . ... ... ... : G#1 02 . ... ... ... : ... .. . ... ... ... : ... .. 1 ... ... ... : ... .. . ... ... ... : G-4 0C . ... ... ... : ... .. . ... ... ... : ... .. . ... ... ... : E-2 0C . P81 ... ... : ... .. . ... ... ... : ... .. . ... ... ... : ... .. . ... ... ... : ... .. . ... ... ...
ROW 8C : ... .. . ... ... ... : C#1 02 . ... ... ... : ... .. . ... ... ... : --- .. . ... ... ... : ... .. . ... ... ... : --- .. . ... ... ... : ... .. . ... ... ... : ... .. . ... ... ... : --- .. . ... ... ... : ... .. . ... ... ... : ... .. . ... ... ... : ... .. . ... ... ... : ... .. . ... ... ...
ROW 8D : ... .. . ... ... ... : ... .. . ... ... ... : ... .. . ... ... ... : ... .. . ... ... ... : ... .. . ... ... ... : B-4 0C . P7C ... ... : ... .. . ... ... ... : ... .. . ... ... ... : A#3 0C . P85 ... ... : ... .. . ... ... ... : ... .. . ... ... ... : ... .. . ... ... ... : ... .. . ... ... ...
ROW 8E : ... .. . ... ... ... : ... .. . ... ... ... : ... .. . ... ... ... : ... .. . ... ... ... : ... .. . ... ... ... : A#4 0C . P79 ... ... : ... .. . ... ... ... : ... .. . ... ... ... : G-3 0C . ... ... ... : ... .. . ... ... ... : ... .. . ... ... ... : ... .. . ... ... ... : ... .. . ... ... ...
ROW 8F : ... .. . ... ... ... : ... .. . ... ... ... : ... .. . ... ... ... : ... .. . ... ... ... : ... .. . ... ... ... : A-4 0C . P78 ... ... : ... .. . ... ... ... : ... .. . ... ... ... : --- .. . ... ... ... : ... .. . ... ... ... : ... .. . ... ... ... : ... .. . ... ... ... : ... .. . ... ... ...
ROW 90 : ... .. . ... ... ... : ... .. . ... ... ... : ... .. . ... ... ... : ... .. . ... ... ... : ... .. . ... ... ... : G#4 0C . ... ... ... : ... .. . ... ... ... : ... .. . ... ... ... : ... .. . P80 ... ... : ... .. . ... ... ... : ... .. . ... ... ... : ... .. . ... ... ... : ... .. . ... ... ...
ROW 91 : ... .. . ... ... ... : ... .. . ... ... ... : ... .. . ... ... ... : ... .. . ... ... ... : ... .. . ... ... ... : G-4 0C . ... ... ... : ... .. . ... ... ... : ... .. . ... ... ... : ... .. . ... ... ... : ... .. . ... ... ... : ... .. . ... ... ... : ... .. . ... ... ... : ... .. . ... ... ...
ROW 92 : ... .. . ... ... ... : ... .. . ... ... ... : ... .. . ... ... ... : ... .. . ... ... ... : ... .. . ... ... ... : --- .. . ... ... ... : ... .. . ... ... ... : ... .. . ... ... ... : ... .. . ... ... ... : ... .. . ... ... ... : ... .. . ... ... ... : ... .. . ... ... ... : ... .. . ... ... ...
ROW 93 : ... .. . ... ... ... : ... .. . ... ... ... : ... .. . ... ... ... : D-# 00 A ... ... ... : ... .. . ... ... ... : B-2 05 A P80 ... ... : B-2 05 A P82 ... ... : B-2 05 9 P7E ... ... : G#2 05 9 P81 ... ... : ... .. . ... ... ... : ... .. . ... ... ... : ... .. . ... ... ... : ... .. . ... ... ...
ROW 94 : ... .. . ... ... ... : ... .. . ... ... ... : ... .. . ... ... ... : E-# 00 4 ... ... ... : ... .. . ... ... ... : ... .. . ... ... ... : A#2 05 . P7E ... ... : ... .. . ... ... ... : ... .. . ... ... ... : ... .. . ... ... ... : ... .. . ... ... ... : ... .. . ... ... ... : ... .. . ... ... ...
ROW 95 : ... .. . ... ... ... : ... .. . ... ... ... : ... .. . ... ... ... : D-# 00 2 ... ... ... : ... .. . ... ... ... : ... .. . ... ... ... : ... .. . P7F ... ... : ... .. . ... ... ... : ... .. . ... ... ... : ... .. . ... ... ... : ... .. . ... ... ... : ... .. . ... ... ... : ... .. . ... ... ...
ROW 96 : ... .. . ... ... ... : ... .. . ... ... ... : ... .. . ... ... ... : ... .. 1 ... ... ... : ... .. . ... ... ... : ... .. . ... ... ... : ... .. . P7E ... ... : ... .. . ... ... ... : ... .. . ... ... ... : ... .. . ... ... ... : ... .. . ... ... ... : ... .. . ... ... ... : ... .. . ... ... ...
ROW 97 : ... .. . ... ... ... : ... .. . ... ... ... : ... .. . ... ... ... : ... .. . ... ... ... : ... .. . ... ... ... : --- .. . ... ... ... : --- .. . ... ... ... : --- .. . ... ... ... : --- .. . ... ... ... : ... .. . ... ... ... : ... .. . ... ... ... : ... .. . ... ... ... : ... .. . ... ... ...
ROW 98 : ... .. . ... ... ... : ... .. . ... ... ... : ... .. . ... ... ... : --- .. . ... ... ... : ... .. . ... ... ... : ... .. . ... ... ... : ... .. . P80 ... ... : ... .. . P80 ... ... : ... .. . P80 ... ... : ... .. . ... ... ... : ... .. . ... ... ... : ... .. . ... ... ... : ... .. . ... ... ...
ROW 99 : ... .. . ... ... ... : ... .. . ... ... ... : ... .. . ... ... ... : D-# 00 A ... ... ... : ... .. . ... ... ... : B-2 05 4 ... ... ... : A#2 05 4 P7E ... ... : B-2 05 3 P7E ... ... : G#2 05 3 P81 ... ... : ... .. . ... ... ... : ... .. . ... ... ... : ... .. . ... ... ... : ... .. . ... ... ...
ROW 9A : ... .. . ... ... ... : ... .. . ... ... ... : ... .. . ... ... ... : E-# 00 4 ... ... ... : ... .. . ... ... ... : ... .. . ... ... ... : ... .. . P7F ... ... : ... .. . ... ... ... : ... .. . ... ... ... : ... .. . ... ... ... : ... .. . ... ... ... : ... .. . ... ... ... : ... .. . ... ... ...
ROW 9B : ... .. . ... ... ... : ... .. . ... ... ... : ... .. . ... ... ... : D-# 00 2 ... ... ... : ... .. . ... ... ... : ... .. . ... ... ... : ... .. . P7E ... ... : ... .. . ... ... ... : ... .. . ... ... ... : ... .. . ... ... ... : ... .. . ... ... ... : ... .. . ... ... ... : ... .. . ... ... ...
ROW 9C : ... .. . ... ... ... : ... .. . ... ... ... : ... .. . ... ... ... : ... .. 1 ... ... ... : ... .. . ... ... ... : ... .. . ... ... ... : B-2 05 . P82 ... ... : ... .. . ... ... ... : ... .. . ... ... ... : ... .. . ... ... ... : ... .. . ... ... ... : ... .. . ... ... ... : ... .. . ... ... ...
ROW 9D : ... .. . ... ... ... : ... .. . ... ... ... : ... .. . ... ... ... : ... .. . ... ... ... : ... .. . ... ... ... : ... .. . ... ... ... : A#2 05 . P7E ... ... : ... .. 2 ... ... ... : ... .. . ... ... ... : ... .. . ... ... ... : ... .. . ... ... ... : ... .. . ... ... ... : ... .. . ... ... ...
ROW 9E : ... .. . ... ... ... : ... .. . ... ... ... : ... .. . ... ... ... : --- .. . ... ... ... : ... .. . ... ... ... : --- .. . ... ... ... : --- .. . ... ... ... : --- .. . ... ... ... : --- .. . ... ... ... : ... .. . ... ... ... : ... .. . ... ... ... : ... .. . ... ... ... : ... .. . ... ... ...
ROW 9F : ... .. . ... ... ... : ... .. . ... ... ... : ... .. . ... ... ... : ... .. . ... ... ... : ... .. . ... ... ... : ... .. . ... ... ... : ... .. . P80 ... ... : ... .. . P80 ... ... : ... .. . P80 ... ... : ... .. . ... ... ... : ... .. . ... ... ... : ... .. . ... ... ... : ... .. . ... ... ...
ROW A0 : ... .. . ... ... ... : C-4 02 . P80 ... ... : C#4 00 . P7F ... ... : 9-# 00 F ... ... ... : C#1 12 . ... ... ... : C#3 05 A ... ... ... : C#3 05 A P82 ... ... : C#3 05 9 P7E ... ... : B-2 05 9 P81 ... ... : ... .. . ... ... ... : ... .. . ... ... ... : ... .. . ... ... ... : ... .. . ... ... ...
ROW A1 : ... .. . ... ... ... : F-3 02 . ... ... ... : F#3 00 . P83 ... ... : 2-# 00 7 ... ... ... : ... .. . ... ... ... : ... .. . ... ... ... : ... .. . P83 ... ... : ... .. . ... ... ... : ... .. . ... ... ... : ... .. . ... ... ... : ... .. . ... ... ... : ... .. . ... ... ... : ... .. . ... ... ...
ROW A2 : ... .. . ... ... ... : A#2 02 . P81 ... ... : C#3 00 . P89 ... ... : 6-# 00 C ... ... ... : ... .. . ... ... ... : ... .. . ... ... ... : C-3 05 . P7E ... ... : ... .. . ... ... ... : ... .. . ... ... ... : ... .. . ... ... ... : ... .. . ... ... ... : ... .. . ... ... ... : ... .. . ... ... ...
ROW A3 : ... .. . ... ... ... : D#2 02 . ... ... ... : A#2 00 . P75 ... ... : 7-# 00 8 ... ... ... : ... .. . ... ... ... : ... .. . ... ... ... : C#3 05 . P83 ... ... : ... .. . ... ... ... : ... .. . ... ... ... : ... .. . ... ... ... : ... .. . ... ... ... : ... .. . ... ... ... : ... .. . ... ... ...
ROW A4 : ... .. . ... ... ... : G#1 02 . ... ... ... : G-2 00 . P70 ... ... : 8-# 00 7 ... ... ... : ... .. . ... ... ... : --- .. . ... ... ... : --- .. . ... ... ... : --- .. . ... ... ... : --- .. . ... ... ... : ... .. . ... ... ... : ... .. . ... ... ... : ... .. . ... ... ... : ... .. . ... ... ...
ROW A5 : ... .. . ... ... ... : C#1 02 . ... ... ... : E-2 00 . P7C ... ... : ... .. 6 ... ... ... : ... .. . ... ... ... : ... .. . ... ... ... : ... .. . P80 ... ... : ... .. . P80 ... ... : ... .. . P80 ... ... : ... .. . ... ... ... : ... .. . ... ... ... : ... .. . ... ... ... : ... .. . ... ... ...
ROW A6 : ... .. . ... ... ... : ... .. . ... ... ... : --- .. . ... ... ... : ... .. . ... ... ... : ... .. . ... ... ... : C#3 05 4 ... ... ... : C-3 05 4 P7E ... ... : C#3 05 3 P7E ... ... : B-2 05 3 P81 ... ... : ... .. . ... ... ... : ... .. . ... ... ... : ... .. . ... ... ... : ... .. . ... ... ...
ROW A7 : ... .. . ... ... ... : ... .. . ... ... ... : ... .. . ... ... ... : ... .. 5 ... ... ... : ... .. . ... ... ... : ... .. . ... ... ... : ... .. . ... ... ... : ... .. . ... ... ... : ... .. . ... ... ... : ... .. . ... ... ... : ... .. . ... ... ... : ... .. . ... ... ... : ... .. . ... ... ...
ROW A8 : ... .. . ... ... ... : ... .. . ... ... ... : ... .. . ... ... ... : ... .. . ... ... ... : ... .. . ... ... ... : ... .. . ... ... ... : C#3 05 . P83 ... ... : ... .. . ... ... ... : ... .. . ... ... ... : ... .. . ... ... ... : ... .. . ... ... ... : ... .. . ... ... ... : ... .. . ... ... ...
ROW A9 : ... .. . ... ... ... : ... .. . ... ... ... : ... .. . ... ... ... : ... .. 4 ... ... ... : ... .. . ... ... ... : ... .. . ... ... ... : ... .. . ... ... ... : ... .. . ... ... ... : ... .. . ... ... ... : ... .. . ... ... ... : ... .. . ... ... ... : ... .. . ... ... ... : ... .. . ... ... ...
ROW AA : ... .. . ... ... ... : ... .. . ... ... ... : ... .. . ... ... ... : ... .. . ... ... ... : ... .. . ... ... ... : --- .. . ... ... ... : --- .. . ... ... ... : --- .. . ... ... ... : --- .. . ... ... ... : ... .. . ... ... ... : ... .. . ... ... ... : ... .. . ... ... ... : ... .. . ... ... ...
ROW AB : ... .. . ... ... ... : ... .. . ... ... ... : ... .. . ... ... ... : ... .. 3 ... ... ... : ... .. . ... ... ... : ... .. . ... ... ... : ... .. . P80 ... ... : ... .. . P80 ... ... : ... .. . P80 ... ... : ... .. . ... ... ... : ... .. . ... ... ... : ... .. . ... ... ... : ... .. . ... ... ...
ROW AC : ... .. . ... ... ... : ... .. . ... ... ... : ... .. . ... ... ... : D-# 00 A ... ... ... : ... .. . ... ... ... : G#3 05 A ... ... ... : G#3 05 A P83 ... ... : G#3 05 9 P7E ... ... : D#3 05 9 P81 ... ... : ... .. . ... ... ... : ... .. . ... ... ... : ... .. . ... ... ... : ... .. . ... ... ...
ROW AD : ... .. . ... ... ... : ... .. . ... ... ... : ... .. . ... ... ... : E-# 00 4 ... ... ... : ... .. . ... ... ... : ... .. . ... ... ... : ... .. . P82 ... ... : ... .. . ... ... ... : ... .. . ... ... ... : ... .. . ... ... ... : ... .. . ... ... ... : ... .. . ... ... ... : ... .. . ... ... ...
ROW AE : ... .. . ... ... ... : ... .. . ... ... ... : ... .. . ... ... ... : D-# 00 2 ... ... ... : ... .. . ... ... ... : ... .. . ... ... ... : ... .. . P83 ... ... : ... .. . ... ... ... : ... .. . ... ... ... : ... .. . ... ... ... : ... .. . ... ... ... : ... .. . ... ... ... : ... .. . ... ... ...
ROW AF : ... .. . ... ... ... : ... .. . ... ... ... : ... .. . ... ... ... : ... .. 1 ... ... ... : ... .. . ... ... ... : ... .. . ... ... ... : ... .. . P84 ... ... : ... .. . ... ... ... : ... .. . ... ... ... : ... .. . ... ... ... : ... .. . ... ... ... : ... .. . ... ... ... : ... .. . ... ... ...
ROW B0 : ... .. . ... ... ... : ... .. . ... ... ... : ... .. . ... ... ... : ... .. . ... ... ... : ... .. . ... ... ... : --- .. . ... ... ... : --- .. . ... ... ... : --- .. . ... ... ... : --- .. . ... ... ... : ... .. . ... ... ... : ... .. . ... ... ... : ... .. . ... ... ... : ... .. . ... ... ...
ROW B1 : ... .. . ... ... ... : ... .. . ... ... ... : ... .. . ... ... ... : --- .. . ... ... ... : ... .. . ... ... ... : ... .. . ... ... ... : ... .. . P80 ... ... : ... .. . P80 ... ... : ... .. . P80 ... ... : ... .. . ... ... ... : ... .. . ... ... ... : ... .. . ... ... ... : ... .. . ... ... ...
ROW B2 : ... .. . ... ... ... : ... .. . ... ... ... : ... .. . ... ... ... : D-# 00 A ... ... ... : ... .. . ... ... ... : G#3 05 4 ... ... ... : G#3 05 . P83 ... ... : G#3 05 . P7E ... ... : D#3 05 . P81 ... ... : ... .. . ... ... ... : ... .. . ... ... ... : ... .. . ... ... ... : ... .. . ... ... ...
ROW B3 : ... .. . ... ... ... : ... .. . ... ... ... : ... .. . ... ... ... : E-# 00 4 ... ... ... : ... .. . ... ... ... : ... .. . ... ... ... : ... .. . P84 ... ... : ... .. . ... ... ... : ... .. . ... ... ... : ... .. . ... ... ... : ... .. . ... ... ... : ... .. . ... ... ... : ... .. . ... ... ...
ROW B4 : ... .. . ... ... ... : ... .. . ... ... ... : ... .. . ... ... ... : D-# 00 2 ... ... ... : ... .. . ... ... ... : ... .. . ... ... ... : ... .. . P83 ... ... : ... .. . ... ... ... : ... .. . ... ... ... : ... .. . ... ... ... : ... .. . ... ... ... : ... .. . ... ... ... : ... .. . ... ... ...
ROW B5 : ... .. . ... ... ... : ... .. . ... ... ... : ... .. . ... ... ... : ... .. 1 ... ... ... : ... .. . ... ... ... : ... .. . ... ... ... : ... .. . P82 ... ... : ... .. . ... ... ... : ... .. . ... ... ... : ... .. . ... ... ... : ... .. . ... ... ... : ... .. . ... ... ... : ... .. . ... ... ...
ROW B6 : ... .. . ... ... ... : ... .. . ... ... ... : ... .. . ... ... ... : ... .. . ... ... ... : ... .. . ... ... ... : ... .. . ... ... ... : ... .. . P83 ... ... : ... .. 8 ... ... ... : ... .. . ... ... ... : ... .. . ... ... ... : ... .. . ... ... ... : ... .. . ... ... ... : ... .. . ... ... ...
ROW B7 : ... .. . ... ... ... : ... .. . ... ... ... : ... .. . ... ... ... : --- .. . ... ... ... : ... .. . ... ... ... : --- .. . ... ... ... : --- .. . ... ... ... : --- .. . ... ... ... : --- .. . ... ... ... : ... .. . ... ... ... : ... .. . ... ... ... : ... .. . ... ... ... : ... .. . ... ... ...
ROW B8 : ... .. . ... ... ... : ... .. . ... ... ... : ... .. . ... ... ... : ... .. . ... ... ... : ... .. . ... ... ... : ... .. . ... ... ... : ... .. . P80 ... ... : ... .. . P80 ... ... : ... .. . P80 ... ... : ... .. . ... ... ... : ... .. . ... ... ... : ... .. . ... ... ... : ... .. . ... ... ...
ROW B9 : ... .. . ... ... ... : C-4 02 . P80 ... ... : F#3 00 . P78 ... ... : 1-# 00 F ... ... ... : C-1 12 . ... ... ... : G#1 06 F ... ... ... : G#1 06 F P81 ... ... : ... .. . ... ... ... : G#1 06 E P7F ... ... : G#2 06 B P81 ... ... : ... .. . ... ... ... : ... .. . ... ... ... : ... .. . ... ... ...
ROW BA : ... .. . ... ... ... : F-3 02 . ... ... ... : C#3 00 . P7E ... ... : 2-# 00 7 ... ... ... : ... .. . ... ... ... : ... .. . ... ... ... : ... .. . P80 ... ... : ... .. . ... ... ... : ... .. . ... ... ... : ... .. . ... ... ... : ... .. . ... ... ... : ... .. . ... ... ... : ... .. . ... ... ...
ROW BB : ... .. . ... ... ... : A#2 02 . P81 ... ... : A-2 00 . P86 ... ... : 1-# 00 4 ... ... ... : ... .. . ... ... ... : ... .. . ... ... ... : ... .. . P81 ... ... : ... .. . ... ... ... : ... .. . ... ... ... : ... .. . ... ... ... : ... .. . ... ... ... : ... .. . ... ... ... : ... .. . ... ... ...
ROW BC : ... .. . ... ... ... : D#2 02 . ... ... ... : --- .. . ... ... ... : ... .. 2 ... ... ... : ... .. . ... ... ... : G#1 07 . ... ... ... : G-1 07 . P80 ... ... : ... .. . ... ... ... : G#1 07 . ... ... ... : G#2 07 . ... ... ... : ... .. . ... ... ... : ... .. . ... ... ... : ... .. . ... ... ...
ROW BD : ... .. . ... ... ... : G#1 02 . ... ... ... : ... .. . ... ... ... : ... .. 1 ... ... ... : ... .. . ... ... ... : ... .. . ... ... ... : G#1 07 . P81 ... ... : ... .. . ... ... ... : ... .. . ... ... ... : ... .. A ... ... ... : ... .. . ... ... ... : ... .. . ... ... ... : ... .. . ... ... ...
ROW BE : ... .. . ... ... ... : C#1 02 . ... ... ... : ... .. . ... ... ... : --- .. . ... ... ... : ... .. . ... ... ... : ... .. . ... ... ... : ... .. . P80 ... ... : ... .. . ... ... ... : ... .. . ... ... ... : ... .. . ... ... ... : ... .. . ... ... ... : ... .. . ... ... ... : ... .. . ... ... ...
ROW BF : ... .. . ... ... ... : ... .. . ... ... ... : ... .. . ... ... ... : ... .. . ... ... ... : ... .. . ... ... ... : G#1 08 . ... ... ... : G#1 08 . P81 ... ... : ... .. . ... ... ... : G#1 08 . ... ... ... : G#2 08 . ... ... ... : ... .. . ... ... ... : ... .. . ... ... ... : ... .. . ... ... ...
ROW C0 : ... .. . ... ... ... : ... .. . ... ... ... : ... .. . ... ... ... : ... .. . ... ... ... : ... .. . ... ... ... : ... .. . ... ... ... : G-1 08 . P80 ... ... : ... .. . ... ... ... : ... .. . ... ... ... : ... .. . ... ... ... : ... .. . ... ... ... : ... .. . ... ... ... : ... .. . ... ... ...
ROW C1 : ... .. . ... ... ... : ... .. . ... ... ... : ... .. . ... ... ... : ... .. . ... ... ... : ... .. . ... ... ... : ... .. . ... ... ... : G#1 08 . P81 ... ... : ... .. . ... ... ... : ... .. D ... ... ... : ... .. 9 ... ... ... : ... .. . ... ... ... : ... .. . ... ... ... : ... .. . ... ... ...
ROW C2 : ... .. . ... ... ... : ... .. . ... ... ... : ... .. . ... ... ... : ... .. . ... ... ... : ... .. . ... ... ... : G#1 09 . ... ... ... : G#1 09 . P80 ... ... : ... .. . ... ... ... : G#1 09 . ... ... ... : G#2 09 . ... ... ... : ... .. . ... ... ... : ... .. . ... ... ... : ... .. . ... ... ...
ROW C3 : ... .. . ... ... ... : ... .. . ... ... ... : ... .. . ... ... ... : ... .. . ... ... ... : ... .. . ... ... ... : ... .. . ... ... ... : ... .. . P81 ... ... : ... .. . ... ... ... : ... .. . ... ... ... : ... .. . ... ... ... : ... .. . ... ... ... : ... .. . ... ... ... : ... .. . ... ... ...
ROW C4 : ... .. . ... ... ... : ... .. . ... ... ... : ... .. . ... ... ... : ... .. . ... ... ... : ... .. . ... ... ... : ... .. . ... ... ... : G-1 09 . P80 ... ... : ... .. . ... ... ... : ... .. . ... ... ... : ... .. . ... ... ... : ... .. . ... ... ... : ... .. . ... ... ... : ... .. . ... ... ...
ROW C5 : ... .. . ... ... ... : ... .. . ... ... ... : ... .. . ... ... ... : D-# 00 A ... ... ... : ... .. . ... ... ... : ... .. . ... ... ... : ... .. . ... ... ... : ... .. . ... ... ... : ... .. . ... ... ... : ... .. 8 ... ... ... : ... .. . ... ... ... : ... .. . ... ... ... : ... .. . ... ... ...
ROW C6 : ... .. . ... ... ... : ... .. . ... ... ... : ... .. . ... ... ... : E-# 00 4 ... ... ... : ... .. . ... ... ... : ... .. . ... ... ... : G#1 09 . P81 ... ... : ... .. . ... ... ... : ... .. . ... ... ... : ... .. . ... ... ... : ... .. . ... ... ... : ... .. . ... ... ... : ... .. . ... ... ...
ROW C7 : ... .. . ... ... ... : ... .. . ... ... ... : ... .. . ... ... ... : D-# 00 2 ... ... ... : ... .. . ... ... ... : ... .. . ... ... ... : ... .. . ... ... ... : ... .. . ... ... ... : ... .. . ... ... ... : ... .. . ... ... ... : ... .. . ... ... ... : ... .. . ... ... ... : ... .. . ... ... ...
ROW C8 : ... .. . ... ... ... : ... .. . ... ... ... : ... .. . ... ... ... : ... .. 1 ... ... ... : ... .. . ... ... ... : G#1 08 . ... ... ... : G-1 08 . P80 ... ... : ... .. . ... ... ... : G#1 08 . ... ... ... : G#2 08 . ... ... ... : ... .. . ... ... ... : ... .. . ... ... ... : ... .. . ... ... ...
ROW C9 : ... .. . ... ... ... : ... .. . ... ... ... : ... .. . ... ... ... : ... .. . ... ... ... : ... .. . ... ... ... : ... .. . ... ... ... : ... .. . ... ... ... : ... .. . ... ... ... : ... .. C ... ... ... : ... .. 7 ... ... ... : ... .. . ... ... ... : ... .. . ... ... ... : ... .. . ... ... ...
ROW CA : ... .. . ... ... ... : ... .. . ... ... ... : ... .. . ... ... ... : --- .. . ... ... ... : ... .. . ... ... ... : ... .. . ... ... ... : G#1 08 . P81 ... ... : ... .. . ... ... ... : ... .. . ... ... ... : ... .. . ... ... ... : ... .. . ... ... ... : ... .. . ... ... ... : ... .. . ... ... ...
ROW CB : ... .. . ... ... ... : ... .. . ... ... ... : ... .. . ... ... ... : D-# 00 A ... ... ... : ... .. . ... ... ... : G#1 07 . ... ... ... : G#1 07 . P80 ... ... : ... .. . ... ... ... : G#1 07 . ... ... ... : G#2 07 . ... ... ... : ... .. . ... ... ... : ... .. . ... ... ... : ... .. . ... ... ...
ROW CC : ... .. . ... ... ... : ... .. . ... ... ... : ... .. . ... ... ... : E-# 00 4 ... ... ... : ... .. . ... ... ... : ... .. . ... ... ... : ... .. . P81 ... ... : ... .. . ... ... ... : ... .. . ... ... ... : ... .. . ... ... ... : ... .. . ... ... ... : ... .. . ... ... ... : ... .. . ... ... ...
ROW CD : ... .. . ... ... ... : ... .. . ... ... ... : ... .. . ... ... ... : D-# 00 2 ... ... ... : ... .. . ... ... ... : ... .. . ... ... ... : G-1 07 . P80 ... ... : ... .. . ... ... ... : ... .. . ... ... ... : ... .. 6 ... ... ... : ... .. . ... ... ... : ... .. . ... ... ... : ... .. . ... ... ...
ROW CE : ... .. . ... ... ... : ... .. . ... ... ... : ... .. . ... ... ... : ... .. 1 ... ... ... : ... .. . ... ... ... : G#1 06 . ... ... ... : G#1 06 . P81 ... ... : ... .. . ... ... ... : G#1 06 . ... ... ... : G#2 06 . ... ... ... : ... .. . ... ... ... : ... .. . ... ... ... : ... .. . ... ... ...
ROW CF : ... .. . ... ... ... : ... .. . ... ... ... : ... .. . ... ... ... : ... .. . ... ... ... : ... .. . ... ... ... : ... .. . ... ... ... : ... .. . P80 ... ... : ... .. . ... ... ... : ... .. . ... ... ... : ... .. . ... ... ... : ... .. . ... ... ... : ... .. . ... ... ... : ... .. . ... ... ...
ROW D0 : ... .. . ... ... ... : ... .. . ... ... ... : ... .. . ... ... ... : --- .. . ... ... ... : ... .. . ... ... ... : ... .. . ... ... ... : ... .. . P81 ... ... : ... .. . ... ... ... : ... .. . ... ... ... : ... .. . ... ... ... : ... .. . ... ... ... : ... .. . ... ... ... : ... .. . ... ... ...
ROW D1 : ... .. . ... ... ... : ... .. . ... ... ... : ... .. . ... ... ... : ... .. . ... ... ... : ... .. . ... ... ... : ... .. . ... ... ... : G-1 06 . P80 ... ... : ... .. . ... ... ... : ... .. B ... ... ... : ... .. 5 ... ... ... : ... .. . ... ... ... : ... .. . ... ... ... : ... .. . ... ... ...
ROW D2 : ... .. . ... ... ... : C-4 02 . P80 ... ... : C#4 00 . P7F ... ... : 9-# 00 F ... ... ... : C#1 12 . ... ... ... : D-2 06 . ... ... ... : D-2 06 . P81 ... ... : ... .. . ... ... ... : D-2 06 . ... ... ... : D-3 06 . ... ... ... : ... .. . ... ... ... : ... .. . ... ... ... : ... .. . ... ... ...
ROW D3 : ... .. . ... ... ... : F-3 02 . ... ... ... : F#3 00 . P83 ... ... : 2-# 00 7 ... ... ... : ... .. . ... ... ... : ... .. . ... ... ... : ... .. . P80 ... ... : ... .. . ... ... ... : ... .. . ... ... ... : ... .. . ... ... ... : ... .. . ... ... ... : ... .. . ... ... ... : ... .. . ... ... ...
ROW D4 : ... .. . ... ... ... : A#2 02 . P81 ... ... : C#3 00 . P89 ... ... : 6-# 00 C ... ... ... : ... .. . ... ... ... : ... .. . ... ... ... : ... .. . P81 ... ... : ... .. . ... ... ... : ... .. . ... ... ... : ... .. . ... ... ... : ... .. . ... ... ... : ... .. . ... ... ... : ... .. . ... ... ...
ROW D5 : ... .. . ... ... ... : D#2 02 . ... ... ... : A#2 00 . P75 ... ... : 7-# 00 8 ... ... ... : ... .. . ... ... ... : D-2 08 . ... ... ... : C#2 08 . P7F ... ... : ... .. . ... ... ... : D-2 08 . ... ... ... : D-3 08 4 ... ... ... : ... .. . ... ... ... : ... .. . ... ... ... : ... .. . ... ... ...
ROW D6 : ... .. . ... ... ... : G#1 02 . ... ... ... : G-2 00 . P70 ... ... : 8-# 00 7 ... ... ... : ... .. . ... ... ... : ... .. . ... ... ... : D-2 08 . P82 ... ... : ... .. . ... ... ... : ... .. . ... ... ... : ... .. . ... ... ... : ... .. . ... ... ... : ... .. . ... ... ... : ... .. . ... ... ...
ROW D7 : ... .. . ... ... ... : C#1 02 . ... ... ... : E-2 00 . P7C ... ... : ... .. 6 ... ... ... : ... .. . ... ... ... : ... .. . ... ... ... : ... .. . P81 ... ... : ... .. . ... ... ... : ... .. . ... ... ... : ... .. . ... ... ... : ... .. . ... ... ... : ... .. . ... ... ... : ... .. . ... ... ...
ROW D8 : ... .. . ... ... ... : ... .. . ... ... ... : --- .. . ... ... ... : ... .. . ... ... ... : ... .. . ... ... ... : D-2 09 . ... ... ... : D-2 09 . ... ... ... : ... .. . ... ... ... : D-2 09 . ... ... ... : D-3 09 . ... ... ... : ... .. . ... ... ... : ... .. . ... ... ... : ... .. . ... ... ...
ROW D9 : ... .. . ... ... ... : ... .. . ... ... ... : ... .. . ... ... ... : ... .. 5 ... ... ... : ... .. . ... ... ... : ... .. . ... ... ... : ... .. . P82 ... ... : ... .. . ... ... ... : ... .. A ... ... ... : ... .. 3 ... ... ... : ... .. . ... ... ... : ... .. . ... ... ... : ... .. . ... ... ...
ROW DA : ... .. . ... ... ... : ... .. . ... ... ... : ... .. . ... ... ... : ... .. . ... ... ... : ... .. . ... ... ... : ... .. . ... ... ... : C#2 09 . P7F ... ... : ... .. . ... ... ... : ... .. . ... ... ... : ... .. . ... ... ... : ... .. . ... ... ... : ... .. . ... ... ... : ... .. . ... ... ...
ROW DB : ... .. . ... ... ... : ... .. . ... ... ... : ... .. . ... ... ... : ... .. 4 ... ... ... : ... .. . ... ... ... : D-2 07 . ... ... ... : D-2 07 . P81 ... ... : ... .. . ... ... ... : D-2 07 . ... ... ... : D-3 07 . ... ... ... : ... .. . ... ... ... : ... .. . ... ... ... : ... .. . ... ... ...
ROW DC : ... .. . ... ... ... : ... .. . ... ... ... : ... .. . ... ... ... : ... .. . ... ... ... : ... .. . ... ... ... : ... .. . ... ... ... : ... .. . P80 ... ... : ... .. . ... ... ... : ... .. . ... ... ... : ... .. . ... ... ... : ... .. . ... ... ... : ... .. . ... ... ... : ... .. . ... ... ...
ROW DD : ... .. . ... ... ... : ... .. . ... ... ... : ... .. . ... ... ... : ... .. 3 ... ... ... : ... .. . ... ... ... : ... .. . ... ... ... : ... .. . P81 ... ... : ... .. . ... ... ... : ... .. . ... ... ... : ... .. 2 ... ... ... : ... .. . ... ... ... : ... .. . ... ... ... : ... .. . ... ... ...
ROW DE : ... .. . ... ... ... : ... .. . ... ... ... : ... .. . ... ... ... : D-# 00 A ... ... ... : ... .. . ... ... ... : D-2 06 . ... ... ... : C#2 06 . P7F ... ... : ... .. . ... ... ... : D-2 06 . ... ... ... : D-3 06 . ... ... ... : ... .. . ... ... ... : ... .. . ... ... ... : ... .. . ... ... ...
ROW DF : ... .. . ... ... ... : ... .. . ... ... ... : ... .. . ... ... ... : E-# 00 4 ... ... ... : ... .. . ... ... ... : ... .. . ... ... ... : D-2 06 . P81 ... ... : ... .. . ... ... ... : ... .. . ... ... ... : ... .. . ... ... ... : ... .. . ... ... ... : ... .. . ... ... ... : ... .. . ... ... ...
ROW E0 : ... .. . ... ... ... : ... .. . ... ... ... : ... .. . ... ... ... : D-# 00 2 ... ... ... : ... .. . ... ... ... : ... .. . ... ... ... : ... .. . P80 ... ... : ... .. . ... ... ... : ... .. . ... ... ... : ... .. . ... ... ... : ... .. . ... ... ... : ... .. . ... ... ... : ... .. . ... ... ...
ROW E1 : ... .. . ... ... ... : ... .. . ... ... ... : ... .. . ... ... ... : ... .. 1 ... ... ... : ... .. . ... ... ... : D-2 08 . ... ... ... : D-2 08 . P81 ... ... : ... .. . ... ... ... : D-2 08 9 ... ... ... : D-3 08 1 ... ... ... : ... .. . ... ... ... : ... .. . ... ... ... : ... .. . ... ... ...
ROW E2 : ... .. . ... ... ... : ... .. . ... ... ... : ... .. . ... ... ... : ... .. . ... ... ... : ... .. . ... ... ... : ... .. . ... ... ... : C#2 08 . P7F ... ... : ... .. . ... ... ... : ... .. . ... ... ... : ... .. . ... ... ... : ... .. . ... ... ... : ... .. . ... ... ... : ... .. . ... ... ...
ROW E3 : ... .. . ... ... ... : ... .. . ... ... ... : ... .. . ... ... ... : --- .. . ... ... ... : ... .. . ... ... ... : ... .. . ... ... ... : D-2 08 . P81 ... ... : ... .. . ... ... ... : ... .. . ... ... ... : ... .. . ... ... ... : ... .. . ... ... ... : ... .. . ... ... ... : ... .. . ... ... ...
ROW E4 : ... .. . ... ... ... : ... .. . ... ... ... : ... .. . ... ... ... : D-# 00 A ... ... ... : ... .. . ... ... ... : D-2 09 . ... ... ... : D-2 09 . P80 ... ... : ... .. . ... ... ... : D-2 09 . ... ... ... : D-3 09 . ... ... ... : ... .. . ... ... ... : ... .. . ... ... ... : ... .. . ... ... ...
ROW E5 : ... .. . ... ... ... : ... .. . ... ... ... : ... .. . ... ... ... : E-# 00 4 ... ... ... : ... .. . ... ... ... : ... .. . ... ... ... : ... .. . P81 ... ... : ... .. . ... ... ... : ... .. . ... ... ... : --- .. . ... ... ... : ... .. . ... ... ... : ... .. . ... ... ... : ... .. . ... ... ...
ROW E6 : ... .. . ... ... ... : ... .. . ... ... ... : ... .. . ... ... ... : D-# 00 2 ... ... ... : ... .. . ... ... ... : ... .. . ... ... ... : ... .. . P82 ... ... : ... .. . ... ... ... : ... .. . ... ... ... : ... .. . P80 ... ... : ... .. . ... ... ... : ... .. . ... ... ... : ... .. . ... ... ...
ROW E7 : ... .. . ... ... ... : ... .. . ... ... ... : ... .. . ... ... ... : ... .. 1 ... ... ... : ... .. . ... ... ... : D-2 07 . ... ... ... : D-2 07 . ... ... ... : ... .. . ... ... ... : D-2 07 . ... ... ... : ... .. . ... ... ... : ... .. . ... ... ... : ... .. . ... ... ... : ... .. . ... ... ...
ROW E8 : ... .. . ... ... ... : ... .. . ... ... ... : ... .. . ... ... ... : ... .. . ... ... ... : ... .. . ... ... ... : ... .. . ... ... ... : ... .. . P81 ... ... : ... .. . ... ... ... : ... .. . ... ... ... : ... .. . ... ... ... : ... .. . ... ... ... : ... .. . ... ... ... : ... .. . ... ... ...
ROW E9 : ... .. . ... ... ... : ... .. . ... ... ... : ... .. . ... ... ... : --- .. . ... ... ... : ... .. . ... ... ... : ... .. . ... ... ... : ... .. . ... ... ... : ... .. . ... ... ... : ... .. 8 ... ... ... : ... .. . ... ... ... : ... .. . ... ... ... : ... .. . ... ... ... : ... .. . ... ... ...
ROW EA : ... .. . ... ... ... : ... .. . ... ... ... : ... .. . ... ... ... : ... .. . ... ... ... : ... .. . ... ... ... : ... .. . ... ... ... : ... .. . P82 ... ... : ... .. . ... ... ... : ... .. . ... ... ... : ... .. . ... ... ... : ... .. . ... ... ... : ... .. . ... ... ... : ... .. . ... ... ...
ROW EB : ... .. . ... ... ... : C-4 02 . P80 ... ... : F#3 00 . P78 ... ... : 1-# 00 F ... ... ... : C-1 12 . ... ... ... : C#2 06 . ... ... ... : C-2 06 . P7F ... ... : ... .. . ... ... ... : C#2 06 . ... ... ... : ... .. . ... ... ... : ... .. . ... ... ... : ... .. . ... ... ... : ... .. . ... ... ...
ROW EC : ... .. . ... ... ... : F-3 02 . ... ... ... : C#3 00 . P7E ... ... : 2-# 00 7 ... ... ... : ... .. . ... ... ... : ... .. . ... ... ... : C#2 06 . P81 ... ... : ... .. . ... ... ... : ... .. . ... ... ... : ... .. . ... ... ... : ... .. . ... ... ... : ... .. . ... ... ... : ... .. . ... ... ...
ROW ED : ... .. . ... ... ... : A#2 02 . P81 ... ... : A-2 00 . P86 ... ... : 1-# 00 4 ... ... ... : ... .. . ... ... ... : ... .. . ... ... ... : ... .. . P80 ... ... : ... .. . ... ... ... : ... .. . ... ... ... : ... .. . ... ... ... : ... .. . ... ... ... : ... .. . ... ... ... : ... .. . ... ... ...
ROW EE : ... .. . ... ... ... : D#2 02 . ... ... ... : --- .. . ... ... ... : ... .. 2 ... ... ... : ... .. . ... ... ... : C#2 09 . ... ... ... : C#2 09 . P81 ... ... : ... .. . ... ... ... : C#2 09 . ... ... ... : ... .. . ... ... ... : ... .. . ... ... ... : ... .. . ... ... ... : ... .. . ... ... ...
ROW EF : ... .. . ... ... ... : G#1 02 . ... ... ... : ... .. . ... ... ... : ... .. 1 ... ... ... : ... .. . ... ... ... : ... .. . ... ... ... : C-2 09 . P7F ... ... : ... .. . ... ... ... : ... .. . ... ... ... : ... .. . ... ... ... : ... .. . ... ... ... : ... .. . ... ... ... : ... .. . ... ... ...
ROW F0 : ... .. . ... ... ... : C#1 02 . ... ... ... : ... .. . ... ... ... : --- .. . ... ... ... : ... .. . ... ... ... : ... .. . ... ... ... : C#2 09 . P81 ... ... : ... .. . ... ... ... : ... .. . ... ... ... : ... .. . ... ... ... : ... .. . ... ... ... : ... .. . ... ... ... : ... .. . ... ... ...
ROW F1 : ... .. . ... ... ... : ... .. . ... ... ... : ... .. . ... ... ... : ... .. . ... ... ... : ... .. . ... ... ... : C#2 06 . ... ... ... : C#2 06 . P80 ... ... : ... .. . ... ... ... : C#2 06 7 ... ... ... : ... .. . ... ... ... : ... .. . ... ... ... : ... .. . ... ... ... : ... .. . ... ... ...
ROW F2 : ... .. . ... ... ... : ... .. . ... ... ... : ... .. . ... ... ... : ... .. . ... ... ... : ... .. . ... ... ... : ... .. . ... ... ... : ... .. . P81 ... ... : ... .. . ... ... ... : ... .. . ... ... ... : ... .. . ... ... ... : ... .. . ... ... ... : ... .. . ... ... ... : ... .. . ... ... ...
ROW F3 : ... .. . ... ... ... : ... .. . ... ... ... : ... .. . ... ... ... : ... .. . ... ... ... : ... .. . ... ... ... : ... .. . ... ... ... : C-2 06 . P7F ... ... : ... .. . ... ... ... : ... .. . ... ... ... : ... .. . ... ... ... : ... .. . ... ... ... : ... .. . ... ... ... : ... .. . ... ... ...
ROW F4 : ... .. . ... ... ... : ... .. . ... ... ... : ... .. . ... ... ... : ... .. . ... ... ... : ... .. . ... ... ... : C#2 09 . ... ... ... : C#2 09 . P81 ... ... : ... .. . ... ... ... : C#2 09 . ... ... ... : ... .. . ... ... ... : ... .. . ... ... ... : ... .. . ... ... ... : ... .. . ... ... ...
ROW F5 : ... .. . ... ... ... : ... .. . ... ... ... : ... .. . ... ... ... : ... .. . ... ... ... : ... .. . ... ... ... : ... .. . ... ... ... : ... .. . P80 ... ... : ... .. . ... ... ... : ... .. . ... ... ... : ... .. . ... ... ... : ... .. . ... ... ... : ... .. . ... ... ... : ... .. . ... ... ...
ROW F6 : ... .. . ... ... ... : ... .. . ... ... ... : ... .. . ... ... ... : ... .. . ... ... ... : ... .. . ... ... ... : ... .. . ... ... ... : ... .. . P81 ... ... : ... .. . ... ... ... : ... .. . ... ... ... : ... .. . ... ... ... : ... .. . ... ... ... : ... .. . ... ... ... : ... .. . ... ... ...
ROW F7 : ... .. . ... ... ... : ... .. . ... ... ... : ... .. . ... ... ... : D-# 00 A ... ... ... : ... .. . ... ... ... : C#2 06 . ... ... ... : C#2 06 . P82 ... ... : ... .. . ... ... ... : C#2 06 . ... ... ... : ... .. . ... ... ... : ... .. . ... ... ... : ... .. . ... ... ... : ... .. . ... ... ...
ROW F8 : ... .. . ... ... ... : ... .. . ... ... ... : ... .. . ... ... ... : E-# 00 4 ... ... ... : ... .. . ... ... ... : ... .. . ... ... ... : ... .. . ... ... ... : ... .. . ... ... ... : ... .. . ... ... ... : ... .. . ... ... ... : ... .. . ... ... ... : ... .. . ... ... ... : ... .. . ... ... ...
ROW F9 : ... .. . ... ... ... : ... .. . ... ... ... : ... .. . ... ... ... : D-# 00 2 ... ... ... : ... .. . ... ... ... : ... .. . ... ... ... : ... .. . P81 ... ... : ... .. . ... ... ... : ... .. 6 ... ... ... : ... .. . ... ... ... : ... .. . ... ... ... : ... .. . ... ... ... : ... .. . ... ... ...
ROW FA : ... .. . ... ... ... : ... .. . ... ... ... : ... .. . ... ... ... : ... .. 1 ... ... ... : ... .. . ... ... ... : C#2 09 . ... ... ... : C#2 09 . P80 ... ... : ... .. . ... ... ... : C#2 09 . ... ... ... : ... .. . ... ... ... : ... .. . ... ... ... : ... .. . ... ... ... : ... .. . ... ... ...
ROW FB : ... .. . ... ... ... : ... .. . ... ... ... : ... .. . ... ... ... : ... .. . ... ... ... : ... .. . ... ... ... : ... .. . ... ... ... : ... .. . P81 ... ... : ... .. . ... ... ... : ... .. . ... ... ... : ... .. . ... ... ... : ... .. . ... ... ... : ... .. . ... ... ... : ... .. . ... ... ...
ROW FC : ... .. . ... ... ... : ... .. . ... ... ... : ... .. . ... ... ... : --- .. . ... ... ... : ... .. . ... ... ... : ... .. . ... ... ... : C-2 09 . P7F ... ... : ... .. . ... ... ... : ... .. . ... ... ... : ... .. . ... ... ... : ... .. . ... ... ... : ... .. . ... ... ... : ... .. . ... ... ...
ROW FD : ... .. . ... ... ... : ... .. . ... ... ... : ... .. . ... ... ... : D-# 00 A ... ... ... : ... .. . ... ... ... : C#2 06 . ... ... ... : C#2 06 . P81 ... ... : ... .. . ... ... ... : C#2 06 . ... ... ... : ... .. . ... ... ... : ... .. . ... ... ... : ... .. . ... ... ... : ... .. . ... ... ...
ROW FE : ... .. . ... ... ... : ... .. . ... ... ... : ... .. . ... ... ... : E-# 00 4 ... ... ... : ... .. . ... ... ... : ... .. . ... ... ... : ... .. . P80 ... ... : ... .. . ... ... ... : ... .. . ... ... ... : ... .. . ... ... ... : ... .. . ... ... ... : ... .. . ... ... ... : ... .. . ... ... ...
ROW FF : ... .. . ... ... ... : ... .. . ... ... ... : ... .. . ... ... ... : D-# 00 2 ... ... ... : ... .. . ... ... ... : ... .. . ... ... ... : ... .. . P81 ... ... : ... .. . ... ... ... : ... .. . ... ... ... : ... .. . ... ... ... : ... .. . ... ... ... : ... .. . ... ... ... : ... .. . ... ... ...

PATTERN 0C
ROW 00 : ... .. . ... ... ... : ... .. . ... ... ... : ... .. . ... ... ... : ... .. 1 ... ... ... : ... .. . ... ... ... : C#2 09 . ... ... ... : C-2 09 . P7F ... ... : ... .. . ... ... ... : C#2 09 . ... ... ... : ... .. . ... ... ... : ... .. . ... ... ... : ... .. . ... ... ... : ... .. . ... ... ...
ROW 01 : ... .. . ... ... ... : ... .. . ... ... ... : ... .. . ... ... ... : ... .. . ... ... ... : ... .. . ... ... ... : ... .. . ... ... ... : C#2 09 . P81 ... ... : ... .. . ... ... ... : ... .. 5 ... ... ... : ... .. . ... ... ... : ... .. . ... ... ... : ... .. . ... ... ... : ... .. . ... ... ...
ROW 02 : ... .. . ... ... ... : ... .. . ... ... ... : ... .. . ... ... ... : --- .. . ... ... ... : ... .. . ... ... ... : ... .. . ... ... ... : ... .. . P80 ... ... : ... .. . ... ... ... : ... .. . ... ... ... : ... .. . ... ... ... : ... .. . ... ... ... : ... .. . ... ... ... : ... .. . ... ... ...
ROW 03 : ... .. . ... ... ... : ... .. . ... ... ... : ... .. . ... ... ... : ... .. . ... ... ... : ... .. . ... ... ... : ... .. . ... ... ... : ... .. . P81 ... ... : ... .. . ... ... ... : ... .. . ... ... ... : ... .. . ... ... ... : ... .. . ... ... ... : ... .. . ... ... ... : ... .. . ... ... ...
ROW 04 : ... .. . ... ... ... : C-4 02 . P80 ... ... : C#4 00 . P7F ... ... : 9-# 00 F ... ... ... : C#1 12 . ... ... ... : F#1 06 . ... ... ... : F-1 06 . P80 ... ... : ... .. . ... ... ... : F#1 06 . ... ... ... : ... .. . ... ... ... : ... .. . ... ... ... : ... .. . ... ... ... : ... .. . ... ... ...
ROW 05 : ... .. . ... ... ... : F-3 02 . ... ... ... : F#3 00 . P83 ... ... : 2-# 00 7 ... ... ... : ... .. . ... ... ... : ... .. . ... ... ... : ... .. . ... ... ... : ... .. . ... ... ... : ... .. . ... ... ... : ... .. . ... ... ... : ... .. . ... ... ... : ... .. . ... ... ... : ... .. . ... ... ...
ROW 06 : ... .. . ... ... ... : A#2 02 . P81 ... ... : C#3 00 . P89 ... ... : 6-# 00 C ... ... ... : ... .. . ... ... ... : ... .. . ... ... ... : F#1 06 . P81 ... ... : ... .. . ... ... ... : ... .. . ... ... ... : ... .. . ... ... ... : ... .. . ... ... ... : ... .. . ... ... ... : ... .. . ... ... ...
ROW 07 : ... .. . ... ... ... : D#2 02 . ... ... ... : A#2 00 . P75 ... ... : 7-# 00 8 ... ... ... : ... .. . ... ... ... : ... .. . ... ... ... : ... .. . ... ... ... : ... .. . ... ... ... : ... .. . ... ... ... : ... .. . ... ... ... : ... .. . ... ... ... : ... .. . ... ... ... : ... .. . ... ... ...
ROW 08 : ... .. . ... ... ... : G#1 02 . ... ... ... : G-2 00 . P70 ... ... : 8-# 00 7 ... ... ... : ... .. . ... ... ... : ... .. . ... ... ... : F-1 06 . P80 ... ... : ... .. . ... ... ... : ... .. . ... ... ... : ... .. . ... ... ... : ... .. . ... ... ... : ... .. . ... ... ... : ... .. . ... ... ...
ROW 09 : ... .. . ... ... ... : C#1 02 . ... ... ... : E-2 00 . P7C ... ... : ... .. 6 ... ... ... : ... .. . ... ... ... : ... .. . ... ... ... : ... .. . ... ... ... : ... .. . ... ... ... : ... .. 4 ... ... ... : ... .. . ... ... ... : ... .. . ... ... ... : ... .. . ... ... ... : ... .. . ... ... ...
ROW 0A : ... .. . ... ... ... : ... .. . ... ... ... : --- .. . ... ... ... : ... .. . ... ... ... : ... .. . ... ... ... : F#1 07 . ... ... ... : F#1 07 . P81 ... ... : ... .. . ... ... ... : F#1 07 . ... ... ... : ... .. . ... ... ... : ... .. . ... ... ... : ... .. . ... ... ... : ... .. . ... ... ...
ROW 0B : ... .. . ... ... ... : ... .. . ... ... ... : ... .. . ... ... ... : ... .. 5 ... ... ... : ... .. . ... ... ... : ... .. . ... ... ... : ... .. . P80 ... ... : ... .. . ... ... ... : ... .. . ... ... ... : ... .. . ... ... ... : ... .. . ... ... ... : ... .. . ... ... ... : ... .. . ... ... ...
ROW 0C : ... .. . ... ... ... : ... .. . ... ... ... : ... .. . ... ... ... : ... .. . ... ... ... : ... .. . ... ... ... : ... .. . ... ... ... : ... .. . P81 ... ... : ... .. . ... ... ... : ... .. . ... ... ... : ... .. . ... ... ... : ... .. . ... ... ... : ... .. . ... ... ... : ... .. . ... ... ...
ROW 0D : ... .. . ... ... ... : ... .. . ... ... ... : ... .. . ... ... ... : ... .. 4 ... ... ... : ... .. . ... ... ... : F-1 07 . ... ... ... : E-1 07 . P80 ... ... : ... .. . ... ... ... : ... .. . P81 ... ... : ... .. . ... ... ... : ... .. . ... ... ... : ... .. . ... ... ... : ... .. . ... ... ...
ROW 0E : ... .. . ... ... ... : ... .. . ... ... ... : ... .. . ... ... ... : ... .. . ... ... ... : ... .. . ... ... ... : E-1 07 . ... ... ... : ... .. . P81 ... ... : ... .. . ... ... ... : F-1 07 . ... ... ... : ... .. . ... ... ... : ... .. . ... ... ... : ... .. . ... ... ... : ... .. . ... ... ...
ROW 0F : ... .. . ... ... ... : ... .. . ... ... ... : ... .. . ... ... ... : ... .. 3 ... ... ... : ... .. . ... ... ... : D#1 07 . ... ... ... : D#1 07 . P80 ... ... : ... .. . ... ... ... : E-1 07 . ... ... ... : ... .. . ... ... ... : ... .. . ... ... ... : ... .. . ... ... ... : ... .. . ... ... ...
ROW 10 : ... .. . ... ... ... : ... .. . ... ... ... : ... .. . ... ... ... : 6-# 01 F ... ... ... : ... .. . ... ... ... : D-1 08 . P81 ... ... : C#1 08 . ... ... ... : ... .. . ... ... ... : D-1 08 . P80 ... ... : ... .. . ... ... ... : ... .. . ... ... ... : ... .. . ... ... ... : ... .. . ... ... ...
ROW 11 : ... .. . ... ... ... : ... .. . ... ... ... : ... .. . ... ... ... : ... .. 9 ... ... ... : ... .. . ... ... ... : C#1 08 . ... ... ... : B-0 08 . ... ... ... : ... .. . ... ... ... : C#1 08 3 ... ... ... : ... .. . ... ... ... : ... .. . ... ... ... : ... .. . ... ... ... : ... .. . ... ... ...
ROW 12 : ... .. . ... ... ... : ... .. . ... ... ... : ... .. . ... ... ... : ... .. 4 ... ... ... : ... .. . ... ... ... : B-0 08 . P80 ... ... : ... .. . P81 ... ... : ... .. . ... ... ... : C-1 08 . ... ... ... : ... .. . ... ... ... : ... .. . ... ... ... : ... .. . ... ... ... : ... .. . ... ... ...
ROW 13 : ... .. . ... ... ... : ... .. . ... ... ... : ... .. . ... ... ... : ... .. 7 ... ... ... : ... .. . ... ... ... : A#0 08 . ... ... ... : A#0 08 . P80 ... ... : ... .. . ... ... ... : B-0 08 . P81 ... ... : ... .. . ... ... ... : ... .. . ... ... ... : ... .. . ... ... ... : ... .. . ... ... ...
ROW 14 : ... .. . ... ... ... : ... .. . ... ... ... : ... .. . ... ... ... : ... .. 5 ... ... ... : ... .. . ... ... ... : A-0 08 . P81 ... ... : G#0 08 . P81 ... ... : ... .. . ... ... ... : A-0 08 . P80 ... ... : ... .. . ... ... ... : ... .. . ... ... ... : ... .. . ... ... ... : ... .. . ... ... ...
ROW 15 : ... .. . ... ... ... : ... .. . ... ... ... : ... .. . ... ... ... : ... .. . ... ... ... : ... .. . ... ... ... : G-0 08 . ... ... ... : F-0 08 . P80 ... ... : ... .. . ... ... ... : G#0 08 . P81 ... ... : ... .. . ... ... ... : ... .. . ... ... ... : ... .. . ... ... ... : ... .. . ... ... ...
ROW 16 : ... .. . ... ... ... : ... .. . ... ... ... : ... .. . ... ... ... : ... .. 4 ... ... ... : ... .. . ... ... ... : F-0 09 . P80 ... ... : E-0 09 . P81 ... ... : ... .. . ... ... ... : F#0 09 . P80 ... ... : ... .. . ... ... ... : ... .. . ... ... ... : ... .. . ... ... ... : ... .. . ... ... ...
ROW 17 : ... .. . ... ... ... : ... .. . ... ... ... : ... .. . ... ... ... : ... .. . ... ... ... : ... .. . ... ... ... : D#0 09 . ... ... ... : D#0 09 . ... ... ... : ... .. . ... ... ... : E-0 09 . ... ... ... : ... .. . ... ... ... : ... .. . ... ... ... : ... .. . ... ... ... : ... .. . ... ... ...
ROW 18 : ... .. . ... ... ... : ... .. . ... ... ... : ... .. . ... ... ... : ... .. 3 ... ... ... : ... .. . ... ... ... : C#0 09 . P81 ... ... : C-0 09 . P80 ... ... : ... .. . ... ... ... : D-0 09 . ... ... ... : ... .. . ... ... ... : ... .. . ... ... ... : ... .. . ... ... ... : ... .. . ... ... ...
ROW 19 : ... .. . ... ... ... : ... .. . ... ... ... : ... .. . ... ... ... : ... .. 2 ... ... ... : ... .. . ... ... ... : C-0 09 . P82 ... ... : ... .. . P83 ... ... : ... .. . ... ... ... : C-0 09 2 P81 ... ... : ... .. . ... ... ... : ... .. . ... ... ... : ... .. . ... ... ... : ... .. . ... ... ...
ROW 1A : ... .. . ... ... ... : ... .. . ... ... ... : ... .. . ... ... ... : ... .. . ... ... ... : ... .. . ... ... ... : ... .. . P84 ... ... : ... .. . P86 ... ... : ... .. . ... ... ... : ... .. . P83 ... ... : ... .. . ... ... ... : ... .. . ... ... ... : ... .. . ... ... ... : ... .. . ... ... ...
ROW 1B : ... .. . ... ... ... : ... .. . ... ... ... : ... .. . ... ... ... : ... .. 1 ... ... ... : ... .. . ... ... ... : ... .. . P86 ... ... : ... .. . P87 ... ... : ... .. . ... ... ... : ... .. . P85 ... ... : ... .. . ... ... ... : ... .. . ... ... ... : ... .. . ... ... ... : ... .. . ... ... ...
ROW 1C : ... .. . ... ... ... : ... .. . ... ... ... : ... .. . ... ... ... : ... .. . ... ... ... : ... .. . ... ... ... : --- .. . P7A ... ... : --- .. . P7A ... ... : ... .. . ... ... ... : ... .. . P87 ... ... : ... .. . ... ... ... : ... .. . ... ... ... : ... .. . ... ... ... : ... .. . ... ... ...
ROW 1D : ... .. . ... ... ... : C-4 02 . P80 ... ... : F#3 00 . P78 ... ... : 1-# 00 F ... ... ... : C-1 12 . ... ... ... : G-4 04 A P78 ... ... : A-4 04 A P81 ... ... : ... .. . ... ... ... : F#4 04 9 P89 ... ... : G-4 04 9 P81 ... ... : ... .. . ... ... ... : ... .. . ... ... ... : ... .. . ... ... ...
ROW 1E : ... .. . ... ... ... : F-3 02 . ... ... ... : C#3 00 . P7E ... ... : 2-# 00 7 ... ... ... : ... .. . ... ... ... : G#4 04 . P84 ... ... : ... .. . P82 ... ... : ... .. . ... ... ... : ... .. . P81 ... ... : ... .. . ... ... ... : ... .. . ... ... ... : ... .. . ... ... ... : ... .. . ... ... ...
ROW 1F : ... .. . ... ... ... : A#2 02 . P81 ... ... : A-2 00 . P86 ... ... : 1-# 00 4 ... ... ... : ... .. . ... ... ... : ... .. . P7C ... ... : ... .. . P81 ... ... : ... .. . ... ... ... : ... .. . P79 ... ... : ... .. . ... ... ... : ... .. . ... ... ... : ... .. . ... ... ... : ... .. . ... ... ...
ROW 20 : ... .. . ... ... ... : D#2 02 . ... ... ... : --- .. . ... ... ... : ... .. 2 ... ... ... : ... .. . ... ... ... : --- .. . ... ... ... : --- .. . ... ... ... : ... .. . ... ... ... : --- .. . ... ... ... : --- .. . ... ... ... : ... .. . ... ... ... : ... .. . ... ... ... : ... .. . ... ... ...
ROW 21 : ... .. . ... ... ... : G#1 02 . ... ... ... : ... .. . ... ... ... : ... .. 1 ... ... ... : ... .. . ... ... ... : ... .. . P80 ... ... : ... .. . P80 ... ... : ... .. . ... ... ... : ... .. . P80 ... ... : ... .. . P80 ... ... : ... .. . ... ... ... : ... .. . ... ... ... : ... .. . ... ... ...
ROW 22 : ... .. . ... ... ... : C#1 02 . ... ... ... : ... .. . ... ... ... : --- .. . ... ... ... : ... .. . ... ... ... : ... .. . ... ... ... : ... .. . ... ... ... : ... .. . ... ... ... : ... .. . ... ... ... : ... .. . ... ... ... : ... .. . ... ... ... : ... .. . ... ... ... : ... .. . ... ... ...
ROW 23 : ... .. . ... ... ... : ... .. . ... ... ... : ... .. . ... ... ... : 1-# 00 F ... ... ... : C-1 12 . ... ... ... : A-4 04 . P7A ... ... : A-4 04 . P83 ... ... : ... .. . ... ... ... : G#4 04 . P88 ... ... : G-4 04 . P83 ... ... : ... .. . ... ... ... : ... .. . ... ... ... : ... .. . ... ... ...
ROW 24 : ... .. . ... ... ... : ... .. . ... ... ... : ... .. . ... ... ... : 2-# 00 7 ... ... ... : ... .. . ... ... ... : ... .. . P7C ... ... : ... .. . P84 ... ... : ... .. . ... ... ... : ... .. . P8A ... ... : ... .. . P85 ... ... : ... .. . ... ... ... : ... .. . ... ... ... : ... .. . ... ... ...
ROW 25 : ... .. . ... ... ... : ... .. . ... ... ... : ... .. . ... ... ... : 1-# 00 4 ... ... ... : ... .. . ... ... ... : ... .. . P7E ... ... : ... .. . P87 ... ... : ... .. . ... ... ... : G-4 04 . P79 ... ... : ... .. . P87 ... ... : ... .. . ... ... ... : ... .. . ... ... ... : ... .. . ... ... ...
ROW 26 : ... .. . ... ... ... : ... .. . ... ... ... : ... .. . ... ... ... : ... .. 2 ... ... ... : ... .. . ... ... ... : --- .. . ... ... ... : --- .. . ... ... ... : ... .. . ... ... ... : --- .. . ... ... ... : --- .. . ... ... ... : ... .. . ... ... ... : ... .. . ... ... ... : ... .. . ... ... ...
ROW 27 : ... .. . ... ... ... : ... .. . ... ... ... : ... .. . ... ... ... : ... .. 1 ... ... ... : ... .. . ... ... ... : ... .. . P80 ... ... : ... .. . P80 ... ... : ... .. . ... ... ... : ... .. . P80 ... ... : ... .. . P80 ... ... : ... .. . ... ... ... : ... .. . ... ... ... : ... .. . ... ... ...
ROW 28 : ... .. . ... ... ... : ... .. . ... ... ... : ... .. . ... ... ... : --- .. . ... ... ... : ... .. . ... ... ... : ... .. . ... ... ... : ... .. . ... ... ... : ... .. . ... ... ... : ... .. . ... ... ... : ... .. . ... ... ... : ... .. . ... ... ... : ... .. . ... ... ... : ... .. . ... ... ...
ROW 29 : ... .. . ... ... ... : ... .. . ... ... ... : ... .. . ... ... ... : A-# 00 F ... ... ... : C-1 12 . ... ... ... : G#4 04 . P7E ... ... : G#4 04 . P87 ... ... : ... .. . ... ... ... : F#4 04 . P7B ... ... : F-4 04 . P78 ... ... : ... .. . ... ... ... : ... .. . ... ... ... : ... .. . ... ... ...
ROW 2A : ... .. . ... ... ... : ... .. . ... ... ... : ... .. . ... ... ... : 6-# 00 9 ... ... ... : ... .. . ... ... ... : G-4 04 . P78 ... ... : G-4 04 . P82 ... ... : ... .. . ... ... ... : ... .. . P89 ... ... : ... .. . P86 ... ... : ... .. . ... ... ... : ... .. . ... ... ... : ... .. . ... ... ...
ROW 2B : ... .. . ... ... ... : ... .. . ... ... ... : ... .. . ... ... ... : 7-# 00 C ... ... ... : ... .. . ... ... ... : ... .. . P86 ... ... : F#4 04 . P7F ... ... : ... .. . ... ... ... : F-4 04 . P85 ... ... : E-4 04 . P84 ... ... : ... .. . ... ... ... : ... .. . ... ... ... : ... .. . ... ... ...
ROW 2C : ... .. . ... ... ... : ... .. . ... ... ... : ... .. . ... ... ... : ... .. 8 ... ... ... : ... .. . ... ... ... : F#4 04 . P82 ... ... : F-4 04 . P7B ... ... : ... .. . ... ... ... : E-4 04 . P83 ... ... : D#4 04 . P83 ... ... : ... .. . ... ... ... : ... .. . ... ... ... : ... .. . ... ... ...
ROW 2D : ... .. . ... ... ... : ... .. . ... ... ... : ... .. . ... ... ... : 8-# 00 7 ... ... ... : ... .. . ... ... ... : F-4 04 . P7F ... ... : ... .. . P88 ... ... : ... .. . ... ... ... : D#4 04 . P82 ... ... : D-4 04 8 P82 ... ... : ... .. . ... ... ... : ... .. . ... ... ... : ... .. . ... ... ...
ROW 2E : ... .. . ... ... ... : ... .. . ... ... ... : ... .. . ... ... ... : ... .. 8 ... ... ... : ... .. . ... ... ... : E-4 04 . P7D ... ... : E-4 04 . P87 ... ... : ... .. . ... ... ... : D-4 04 . ... ... ... : C#4 04 . P83 ... ... : ... .. . ... ... ... : ... .. . ... ... ... : ... .. . ... ... ...
ROW 2F : ... .. . ... ... ... : ... .. . ... ... ... : ... .. . ... ... ... : 9-# 00 7 ... ... ... : ... .. . ... ... ... : D#4 04 . P7C ... ... : D#4 04 . P86 ... ... : ... .. . ... ... ... : C#4 04 . ... ... ... : C-4 04 . P84 ... ... : ... .. . ... ... ... : ... .. . ... ... ... : ... .. . ... ... ...
ROW 30 : ... .. . ... ... ... : ... .. . ... ... ... : ... .. . ... ... ... : ... .. 6 ... ... ... : ... .. . ... ... ... : D-4 04 . P7B ... ... : D-4 04 . P85 ... ... : ... .. . ... ... ... : C-4 04 . P83 ... ... : B-3 04 . P86 ... ... : ... .. . ... ... ... : ... .. . ... ... ... : ... .. . ... ... ...
ROW 31 : ... .. . ... ... ... : ... .. . ... ... ... : ... .. . ... ... ... : ... .. 5 ... ... ... : ... .. . ... ... ... : C#4 04 . P7C ... ... : C#4 04 . P84 ... ... : ... .. . ... ... ... : B-3 04 8 P85 ... ... : A-3 04 7 P7E ... ... : ... .. . ... ... ... : ... .. . ... ... ... : ... .. . ... ... ...
ROW 32 : ... .. . ... ... ... : ... .. . ... ... ... : ... .. . ... ... ... : ... .. . ... ... ... : ... .. . ... ... ... : C-4 04 . P7D ... ... : C-4 04 . P87 ... ... : ... .. . ... ... ... : A-3 04 . P7D ... ... : G#3 04 . P82 ... ... : ... .. . ... ... ... : ... .. . ... ... ... : ... .. . ... ... ...
ROW 33 : ... .. . ... ... ... : ... .. . ... ... ... : ... .. . ... ... ... : ... .. . ... ... ... : ... .. . ... ... ... : B-3 04 . P7F ... ... : A#3 04 . P7E ... ... : ... .. . ... ... ... : G#3 04 . P81 ... ... : F#3 04 . P7D ... ... : ... .. . ... ... ... : ... .. . ... ... ... : ... .. . ... ... ...
ROW 34 : ... .. . ... ... ... : ... .. . ... ... ... : ... .. . ... ... ... : ... .. . ... ... ... : ... .. . ... ... ... : A#3 04 . P82 ... ... : A-3 04 . P80 ... ... : ... .. . ... ... ... : F#3 04 . P7C ... ... : F-3 04 . P82 ... ... : ... .. . ... ... ... : ... .. . ... ... ... : ... .. . ... ... ...
ROW 35 : ... .. . ... ... ... : ... .. . ... ... ... : ... .. . ... ... ... : ... .. . ... ... ... : ... .. . ... ... ... : A-3 04 . P85 ... ... : G#3 04 . P83 ... ... : ... .. . ... ... ... : F-3 04 . P82 ... ... : D#3 04 6 P81 ... ... : ... .. . ... ... ... : ... .. . ... ... ... : ... .. . ... ... ...
ROW 36 : ... .. . ... ... ... : C-4 02 . P80 ... ... : C#4 00 . P7F ... ... : ... .. F ... ... ... : C#1 12 . ... ... ... : G#1 04 F P80 ... ... : F#3 04 . P7F ... ... : G-1 04 9 ... ... ... : A-1 04 9 ... ... ... : C#3 04 . ... ... ... : ... .. . ... ... ... : ... .. . ... ... ... : ... .. . ... ... ...
ROW 37 : ... .. . ... ... ... : F-3 02 . ... ... ... : F#3 00 . P83 ... ... : 2-# 00 7 ... ... ... : ... .. . ... ... ... : ... .. . ... ... ... : E-3 04 . P7D ... ... : ... .. . ... ... ... : ... .. . ... ... ... : B-2 04 . P82 ... ... : ... .. . ... ... ... : ... .. . ... ... ... : ... .. . ... ... ...
ROW 38 : ... .. . ... ... ... : A#2 02 . P81 ... ... : C#3 00 . P89 ... ... : 6-# 00 C ... ... ... : ... .. . ... ... ... : ... .. . ... ... ... : D#3 04 . P84 ... ... : ... .. . ... ... ... : ... .. . ... ... ... : G#2 04 . P80 ... ... : ... .. . ... ... ... : ... .. . ... ... ... : ... .. . ... ... ...
ROW 39 : ... .. . ... ... ... : D#2 02 . ... ... ... : A#2 00 . P75 ... ... : 7-# 00 8 ... ... ... : ... .. . ... ... ... : ... .. . ... ... ... : C#3 04 . P83 ... ... : ... .. . ... ... ... : ... .. . ... ... ... : F-2 04 5 ... ... ... : ... .. . ... ... ... : ... .. . ... ... ... : ... .. . ... ... ...
ROW 3A : ... .. . ... ... ... : G#1 02 . ... ... ... : G-2 00 . P70 ... ... : 8-# 00 7 ... ... ... : ... .. . ... ... ... : ... .. . ... ... ... : A#2 04 . P7E ... ... : ... .. 8 ... ... ... : ... .. . ... ... ... : C#2 04 . ... ... ... : ... .. . ... ... ... : ... .. . ... ... ... : ... .. . ... ... ...
ROW 3B : ... .. . ... ... ... : C#1 02 . ... ... ... : E-2 00 . P7C ... ... : ... .. 6 ... ... ... : ... .. . ... ... ... : ... .. . ... ... ... : G#2 04 . P83 ... ... : ... .. . ... ... ... : ... .. . ... ... ... : G#1 04 . P7F ... ... : ... .. . ... ... ... : ... .. . ... ... ... : ... .. . ... ... ...
ROW 3C : ... .. . ... ... ... : ... .. . ... ... ... : --- .. . ... ... ... : ... .. . ... ... ... : ... .. . ... ... ... : G#2 04 . ... ... ... : E-2 04 . P80 ... ... : G#2 04 . P82 ... ... : G#2 04 . P7F ... ... : D-1 04 . P81 ... ... : ... .. . ... ... ... : ... .. . ... ... ... : ... .. . ... ... ...
ROW 3D : ... .. . ... ... ... : ... .. . ... ... ... : ... .. . ... ... ... : ... .. 5 ... ... ... : ... .. . ... ... ... : ... .. . ... ... ... : C#2 04 . P82 ... ... : ... .. . ... ... ... : ... .. . ... ... ... : D#0 04 4 ... ... ... : ... .. . ... ... ... : ... .. . ... ... ... : ... .. . ... ... ...
ROW 3E : ... .. . ... ... ... : ... .. . ... ... ... : ... .. . ... ... ... : ... .. . ... ... ... : ... .. . ... ... ... : ... .. . ... ... ... : G#1 04 . P81 ... ... : ... .. 7 ... ... ... : ... .. 8 ... ... ... : --- .. . P7F ... ... : ... .. . ... ... ... : ... .. . ... ... ... : ... .. . ... ... ...
ROW 3F : ... .. . ... ... ... : ... .. . ... ... ... : ... .. . ... ... ... : ... .. 4 ... ... ... : ... .. . ... ... ... : ... .. . ... ... ... : C-1 04 . P80 ... ... : ... .. . ... ... ... : ... .. . ... ... ... : D#7 04 . P81 ... ... : ... .. . ... ... ... : ... .. . ... ... ... : ... .. . ... ... ...
ROW 40 : ... .. . ... ... ... : ... .. . ... ... ... : ... .. . ... ... ... : ... .. . ... ... ... : ... .. . ... ... ... : ... .. . ... ... ... : C-0 04 . P81 ... ... : ... .. . ... ... ... : ... .. . ... ... ... : ... .. . ... ... ... : ... .. . ... ... ... : ... .. . ... ... ... : ... .. . ... ... ...
ROW 41 : ... .. . ... ... ... : ... .. . ... ... ... : ... .. . ... ... ... : ... .. 3 ... ... ... : ... .. . ... ... ... : ... .. . ... ... ... : D#7 04 . ... ... ... : ... .. . ... ... ... : ... .. . ... ... ... : ... .. 3 ... ... ... : ... .. . ... ... ... : ... .. . ... ... ... : ... .. . ... ... ...
ROW 42 : ... .. . ... ... ... : ... .. . ... ... ... : ... .. . ... ... ... : D-# 00 A ... ... ... : ... .. . ... ... ... : C#2 04 . ... ... ... : --- .. . ... ... ... : C#2 04 6 ... ... ... : C#2 04 . ... ... ... : ... .. . ... ... ... : ... .. . ... ... ... : ... .. . ... ... ... : ... .. . ... ... ...
ROW 43 : ... .. . ... ... ... : ... .. . ... ... ... : ... .. . ... ... ... : E-# 00 4 ... ... ... : ... .. . ... ... ... : ... .. . ... ... ... : ... .. . P80 ... ... : ... .. . ... ... ... : ... .. . ... ... ... : ... .. . ... ... ... : ... .. . ... ... ... : ... .. . ... ... ... : ... .. . ... ... ...
ROW 44 : ... .. . ... ... ... : ... .. . ... ... ... : ... .. . ... ... ... : D-# 00 2 ... ... ... : ... .. . ... ... ... : ... .. . ... ... ... : ... .. . ... ... ... : ... .. . ... ... ... : ... .. . ... ... ... : ... .. . ... ... ... : ... .. . ... ... ... : ... .. . ... ... ... : ... .. . ... ... ...
ROW 45 : ... .. . ... ... ... : ... .. . ... ... ... : ... .. . ... ... ... : ... .. 1 ... ... ... : ... .. . ... ... ... : ... .. . ... ... ... : ... .. . ... ... ... : ... .. . ... ... ... : ... .. . ... ... ... : ... .. 2 ... ... ... : ... .. . ... ... ... : ... .. . ... ... ... : ... .. . ... ... ...
ROW 46 : ... .. . ... ... ... : ... .. . ... ... ... : ... .. . ... ... ... : ... .. . ... ... ... : ... .. . ... ... ... : ... .. . ... ... ... : ... .. . ... ... ... : ... .. 5 ... ... ... : ... .. 7 ... ... ... : ... .. . ... ... ... : ... .. . ... ... ... : ... .. . ... ... ... : ... .. . ... ... ...
ROW 47 : ... .. . ... ... ... : ... .. . ... ... ... : ... .. . ... ... ... : --- .. . ... ... ... : ... .. . ... ... ... : ... .. . ... ... ... : ... .. . ... ... ... : ... .. . ... ... ... : ... .. . ... ... ... : ... .. . ... ... ... : ... .. . ... ... ... : ... .. . ... ... ... : ... .. . ... ... ...
ROW 48 : ... .. . ... ... ... : ... .. . ... ... ... : ... .. . ... ... ... : D-# 00 A ... ... ... : ... .. . ... ... ... : C#3 04 . ... ... ... : ... .. . ... ... ... : C#3 04 . ... ... ... : C#3 04 . ... ... ... : --- .. . ... ... ... : ... .. . ... ... ... : ... .. . ... ... ... : ... .. . ... ... ...
ROW 49 : ... .. . ... ... ... : ... .. . ... ... ... : ... .. . ... ... ... : E-# 00 4 ... ... ... : ... .. . ... ... ... : ... .. . ... ... ... : ... .. . ... ... ... : ... .. . ... ... ... : ... .. . ... ... ... : ... .. . P80 ... ... : ... .. . ... ... ... : ... .. . ... ... ... : ... .. . ... ... ...
ROW 4A : ... .. . ... ... ... : ... .. . ... ... ... : ... .. . ... ... ... : D-# 00 2 ... ... ... : ... .. . ... ... ... : ... .. . ... ... ... : ... .. . ... ... ... : ... .. 4 ... ... ... : ... .. . ... ... ... : ... .. . ... ... ... : ... .. . ... ... ... : ... .. . ... ... ... : ... .. . ... ... ...
ROW 4B : ... .. . ... ... ... : ... .. . ... ... ... : ... .. . ... ... ... : ... .. 1 ... ... ... : ... .. . ... ... ... : ... .. . ... ... ... : ... .. . ... ... ... : ... .. . ... ... ... : ... .. . ... ... ... : ... .. . ... ... ... : ... .. . ... ... ... : ... .. . ... ... ... : ... .. . ... ... ...
ROW 4C : ... .. . ... ... ... : ... .. . ... ... ... : ... .. . ... ... ... : ... .. . ... ... ... : ... .. . ... ... ... : ... .. . ... ... ... : ... .. . ... ... ... : ... .. . ... ... ... : ... .. . ... ... ... : ... .. . ... ... ... : ... .. . ... ... ... : ... .. . ... ... ... : ... .. . ... ... ...
ROW 4D : ... .. . ... ... ... : ... .. . ... ... ... : ... .. . ... ... ... : --- .. . ... ... ... : ... .. . ... ... ... : ... .. . ... ... ... : ... .. . ... ... ... : ... .. . ... ... ... : ... .. . ... ... ... : ... .. . ... ... ... : ... .. . ... ... ... : ... .. . ... ... ... : ... .. . ... ... ...
ROW 4E : ... .. . ... ... ... : ... .. . ... ... ... : ... .. . ... ... ... : ... .. . ... ... ... : ... .. . ... ... ... : ... .. . ... ... ... : ... .. . ... ... ... : ... .. 3 ... ... ... : ... .. 6 ... ... ... : ... .. . ... ... ... : ... .. . ... ... ... : ... .. . ... ... ... : ... .. . ... ... ...
ROW 4F : ... .. . ... ... ... : C-4 02 . P80 ... ... : F#3 00 . P78 ... ... : 1-# 00 F ... ... ... : C-1 12 . ... ... ... : B-4 0C 7 P7C ... ... : ... .. . ... ... ... : --- .. . ... ... ... : A#3 0C 1 P85 ... ... : ... .. . ... ... ... : ... .. . ... ... ... : ... .. . ... ... ... : ... .. . ... ... ...
ROW 50 : ... .. . ... ... ... : F-3 02 . ... ... ... : C#3 00 . P7E ... ... : 2-# 00 7 ... ... ... : ... .. . ... ... ... : A#4 0C . P79 ... ... : ... .. . ... ... ... : ... .. . P80 ... ... : G-3 0C . ... ... ... : ... .. . ... ... ... : ... .. . ... ... ... : ... .. . ... ... ... : ... .. . ... ... ...
ROW 51 : ... .. . ... ... ... : A#2 02 . P81 ... ... : A-2 00 . P86 ... ... : 1-# 00 4 ... ... ... : ... .. . ... ... ... : A-4 0C . P78 ... ... : ... .. . ... ... ... : ... .. . ... ... ... : D#3 0C . P82 ... ... : ... .. . ... ... ... : ... .. . ... ... ... : ... .. . ... ... ... : ... .. . ... ... ...
ROW 52 : ... .. . ... ... ... : D#2 02 . ... ... ... : --- .. . ... ... ... : ... .. 2 ... ... ... : ... .. . ... ... ... : G#4 0C . ... ... ... : ... .. . ... ... ... : ... .. . ... ... ... : A#2 0C . P7F ... ... : ... .. . ... ... ... : ... .. . ... ... ... : ... .. . ... ... ... : ... .. . ... ... ...
ROW 53 : ... .. . ... ... ... : G#1 02 . ... ... ... : ... .. . ... ... ... : ... .. 1 ... ... ... : ... .. . ... ... ... : G-4 0C . ... ... ... : ... .. . ... ... ... : ... .. . ... ... ... : E-2 0C . P81 ... ... : ... .. . ... ... ... : ... .. . ... ... ... : ... .. . ... ... ... : ... .. . ... ... ...
ROW 54 : ... .. . ... ... ... : C#1 02 . ... ... ... : ... .. . ... ... ... : --- .. . ... ... ... : ... .. . ... ... ... : --- .. . ... ... ... : ... .. . ... ... ... : ... .. . ... ... ... : --- .. . ... ... ... : ... .. . ... ... ... : ... .. . ... ... ... : ... .. . ... ... ... : ... .. . ... ... ...
ROW 55 : ... .. . ... ... ... : ... .. . ... ... ... : ... .. . ... ... ... : ... .. . ... ... ... : ... .. . ... ... ... : B-4 0C . P7C ... ... : ... .. . ... ... ... : ... .. . ... ... ... : A#3 0C . P85 ... ... : ... .. . ... ... ... : ... .. . ... ... ... : ... .. . ... ... ... : ... .. . ... ... ...
ROW 56 : ... .. . ... ... ... : ... .. . ... ... ... : ... .. . ... ... ... : ... .. . ... ... ... : ... .. . ... ... ... : A#4 0C . P79 ... ... : ... .. . ... ... ... : ... .. . ... ... ... : G-3 0C . ... ... ... : ... .. . ... ... ... : ... .. . ... ... ... : ... .. . ... ... ... : ... .. . ... ... ...
ROW 57 : ... .. . ... ... ... : ... .. . ... ... ... : ... .. . ... ... ... : ... .. . ... ... ... : ... .. . ... ... ... : A-4 0C . P78 ... ... : ... .. . ... ... ... : ... .. . ... ... ... : --- .. . ... ... ... : ... .. . ... ... ... : ... .. . ... ... ... : ... .. . ... ... ... : ... .. . ... ... ...
ROW 58 : ... .. . ... ... ... : ... .. . ... ... ... : ... .. . ... ... ... : ... .. . ... ... ... : ... .. . ... ... ... : G#4 0C . ... ... ... : ... .. . ... ... ... : ... .. . ... ... ... : ... .. . P80 ... ... : ... .. . ... ... ... : ... .. . ... ... ... : ... .. . ... ... ... : ... .. . ... ... ...
ROW 59 : ... .. . ... ... ... : ... .. . ... ... ... : ... .. . ... ... ... : ... .. . ... ... ... : ... .. . ... ... ... : G-4 0C . ... ... ... : ... .. . ... ... ... : ... .. . ... ... ... : ... .. . ... ... ... : ... .. . ... ... ... : ... .. . ... ... ... : ... .. . ... ... ... : ... .. . ... ... ...
ROW 5A : ... .. . ... ... ... : ... .. . ... ... ... : ... .. . ... ... ... : ... .. . ... ... ... : ... .. . ... ... ... : --- .. . ... ... ... : ... .. . ... ... ... : ... .. . ... ... ... : ... .. . ... ... ... : ... .. . ... ... ... : ... .. . ... ... ... : ... .. . ... ... ... : ... .. . ... ... ...
ROW 5B : ... .. . ... ... ... : ... .. . ... ... ... : ... .. . ... ... ... : D-# 00 A ... ... ... : ... .. . ... ... ... : C#3 05 A P80 ... ... : C#3 05 . P83 ... ... : C#3 05 9 P7E ... ... : G#2 05 9 P81 ... ... : ... .. . ... ... ... : ... .. . ... ... ... : ... .. . ... ... ... : ... .. . ... ... ...
ROW 5C : ... .. . ... ... ... : ... .. . ... ... ... : ... .. . ... ... ... : E-# 00 4 ... ... ... : ... .. . ... ... ... : ... .. . ... ... ... : ... .. . P82 ... ... : ... .. . ... ... ... : ... .. . ... ... ... : ... .. . ... ... ... : ... .. . ... ... ... : ... .. . ... ... ... : ... .. . ... ... ...
ROW 5D : ... .. . ... ... ... : ... .. . ... ... ... : ... .. . ... ... ... : D-# 00 2 ... ... ... : ... .. . ... ... ... : ... .. . ... ... ... : ... .. . P83 ... ... : ... .. . ... ... ... : ... .. . ... ... ... : ... .. . ... ... ... : ... .. . ... ... ... : ... .. . ... ... ... : ... .. . ... ... ...
ROW 5E : ... .. . ... ... ... : ... .. . ... ... ... : ... .. . ... ... ... : ... .. 1 ... ... ... : ... .. . ... ... ... : ... .. . ... ... ... : C-3 05 . P7E ... ... : ... .. . ... ... ... : ... .. . ... ... ... : ... .. . ... ... ... : ... .. . ... ... ... : ... .. . ... ... ... : ... .. . ... ... ...
ROW 5F : ... .. . ... ... ... : ... .. . ... ... ... : ... .. . ... ... ... : ... .. . ... ... ... : ... .. . ... ... ... : --- .. . ... ... ... : --- .. . ... ... ... : --- .. . ... ... ... : --- .. . ... ... ... : ... .. . ... ... ... : ... .. . ... ... ... : ... .. . ... ... ... : ... .. . ... ... ...
ROW 60 : ... .. . ... ... ... : ... .. . ... ... ... : ... .. . ... ... ... : --- .. . ... ... ... : ... .. . ... ... ... : ... .. . ... ... ... : ... .. . P80 ... ... : ... .. . P80 ... ... : ... .. . P80 ... ... : ... .. . ... ... ... : ... .. . ... ... ... : ... .. . ... ... ... : ... .. . ... ... ...
ROW 61 : ... .. . ... ... ... : ... .. . ... ... ... : ... .. . ... ... ... : D-# 00 A ... ... ... : ... .. . ... ... ... : C#3 05 4 ... ... ... : C#3 05 4 P83 ... ... : C#3 05 3 P7E ... ... : G#2 05 3 P81 ... ... : ... .. . ... ... ... : ... .. . ... ... ... : ... .. . ... ... ... : ... .. . ... ... ...
ROW 62 : ... .. . ... ... ... : ... .. . ... ... ... : ... .. . ... ... ... : E-# 00 4 ... ... ... : ... .. . ... ... ... : ... .. . ... ... ... : C-3 05 . P7E ... ... : ... .. . ... ... ... : ... .. . ... ... ... : ... .. . ... ... ... : ... .. . ... ... ... : ... .. . ... ... ... : ... .. . ... ... ...
ROW 63 : ... .. . ... ... ... : ... .. . ... ... ... : ... .. . ... ... ... : D-# 00 2 ... ... ... : ... .. . ... ... ... : ... .. . ... ... ... : C#3 05 . P83 ... ... : ... .. . ... ... ... : ... .. . ... ... ... : ... .. . ... ... ... : ... .. . ... ... ... : ... .. . ... ... ... : ... .. . ... ... ...
ROW 64 : ... .. . ... ... ... : ... .. . ... ... ... : ... .. . ... ... ... : ... .. 1 ... ... ... : ... .. . ... ... ... : ... .. . ... ... ... : ... .. . P82 ... ... : ... .. . ... ... ... : ... .. . ... ... ... : ... .. . ... ... ... : ... .. . ... ... ... : ... .. . ... ... ... : ... .. . ... ... ...
ROW 65 : ... .. . ... ... ... : ... .. . ... ... ... : ... .. . ... ... ... : ... .. . ... ... ... : ... .. . ... ... ... : ... .. . ... ... ... : ... .. . P83 ... ... : ... .. 2 ... ... ... : ... .. . ... ... ... : ... .. . ... ... ... : ... .. . ... ... ... : ... .. . ... ... ... : ... .. . ... ... ...
ROW 66 : ... .. . ... ... ... : ... .. . ... ... ... : ... .. . ... ... ... : --- .. . ... ... ... : ... .. . ... ... ... : --- .. . ... ... ... : --- .. . ... ... ... : --- .. . ... ... ... : --- .. . ... ... ... : ... .. . ... ... ... : ... .. . ... ... ... : ... .. . ... ... ... : ... .. . ... ... ...
ROW 67 : ... .. . ... ... ... : ... .. . ... ... ... : ... .. . ... ... ... : ... .. . ... ... ... : ... .. . ... ... ... : ... .. . ... ... ... : ... .. . P80 ... ... : ... .. . P80 ... ... : ... .. . P80 ... ... : ... .. . ... ... ... : ... .. . ... ... ... : ... .. . ... ... ... : ... .. . ... ... ...
ROW 68 : ... .. . ... ... ... : C-4 02 . P80 ... ... : C#4 00 . P7F ... ... : 9-# 00 F ... ... ... : C#1 12 . ... ... ... : F#3 05 A ... ... ... : F#3 05 A P83 ... ... : F#3 05 9 P7E ... ... : D#3 05 9 P81 ... ... : ... .. . ... ... ... : ... .. . ... ... ... : ... .. . ... ... ... : ... .. . ... ... ...
ROW 69 : ... .. . ... ... ... : F-3 02 . ... ... ... : F#3 00 . P83 ... ... : 2-# 00 7 ... ... ... : ... .. . ... ... ... : ... .. . ... ... ... : ... .. . ... ... ... : ... .. . ... ... ... : ... .. . ... ... ... : ... .. . ... ... ... : ... .. . ... ... ... : ... .. . ... ... ... : ... .. . ... ... ...
ROW 6A : ... .. . ... ... ... : A#2 02 . P81 ... ... : C#3 00 . P89 ... ... : 6-# 00 C ... ... ... : ... .. . ... ... ... : ... .. . ... ... ... : ... .. . P84 ... ... : ... .. . ... ... ... : ... .. . ... ... ... : ... .. . ... ... ... : ... .. . ... ... ... : ... .. . ... ... ... : ... .. . ... ... ...
ROW 6B : ... .. . ... ... ... : D#2 02 . ... ... ... : A#2 00 . P75 ... ... : 7-# 00 8 ... ... ... : ... .. . ... ... ... : ... .. . ... ... ... : ... .. . ... ... ... : ... .. . ... ... ... : ... .. . ... ... ... : ... .. . ... ... ... : ... .. . ... ... ... : ... .. . ... ... ... : ... .. . ... ... ...
ROW 6C : ... .. . ... ... ... : G#1 02 . ... ... ... : G-2 00 . P70 ... ... : 8-# 00 7 ... ... ... : ... .. . ... ... ... : --- .. . ... ... ... : --- .. . ... ... ... : --- .. . ... ... ... : --- .. . ... ... ... : ... .. . ... ... ... : ... .. . ... ... ... : ... .. . ... ... ... : ... .. . ... ... ...
ROW 6D : ... .. . ... ... ... : C#1 02 . ... ... ... : E-2 00 . P7C ... ... : ... .. 6 ... ... ... : ... .. . ... ... ... : ... .. . ... ... ... : ... .. . P80 ... ... : ... .. . P80 ... ... : ... .. . P80 ... ... : ... .. . ... ... ... : ... .. . ... ... ... : ... .. . ... ... ... : ... .. . ... ... ...
ROW 6E : ... .. . ... ... ... : ... .. . ... ... ... : --- .. . ... ... ... : ... .. . ... ... ... : ... .. . ... ... ... : F#3 05 4 ... ... ... : F#3 05 4 P83 ... ... : F#3 05 3 P7E ... ... : D#3 05 3 P81 ... ... : ... .. . ... ... ... : ... .. . ... ... ... : ... .. . ... ... ... : ... .. . ... ... ...
ROW 6F : ... .. . ... ... ... : ... .. . ... ... ... : ... .. . ... ... ... : ... .. 5 ... ... ... : ... .. . ... ... ... : ... .. . ... ... ... : ... .. . P84 ... ... : ... .. . ... ... ... : ... .. . ... ... ... : ... .. . ... ... ... : ... .. . ... ... ... : ... .. . ... ... ... : ... .. . ... ... ...
ROW 70 : ... .. . ... ... ... : ... .. . ... ... ... : ... .. . ... ... ... : ... .. . ... ... ... : ... .. . ... ... ... : ... .. . ... ... ... : ... .. . P83 ... ... : ... .. . ... ... ... : ... .. . ... ... ... : ... .. . ... ... ... : ... .. . ... ... ... : ... .. . ... ... ... : ... .. . ... ... ...
ROW 71 : ... .. . ... ... ... : ... .. . ... ... ... : ... .. . ... ... ... : ... .. 4 ... ... ... : ... .. . ... ... ... : ... .. . ... ... ... : ... .. . P82 ... ... : ... .. . ... ... ... : ... .. . ... ... ... : ... .. . ... ... ... : ... .. . ... ... ... : ... .. . ... ... ... : ... .. . ... ... ...
ROW 72 : ... .. . ... ... ... : ... .. . ... ... ... : ... .. . ... ... ... : ... .. . ... ... ... : ... .. . ... ... ... : --- .. . ... ... ... : --- .. . ... ... ... : --- .. . ... ... ... : --- .. . ... ... ... : ... .. . ... ... ... : ... .. . ... ... ... : ... .. . ... ... ... : ... .. . ... ... ...
ROW 73 : ... .. . ... ... ... : ... .. . ... ... ... : ... .. . ... ... ... : ... .. 3 ... ... ... : ... .. . ... ... ... : ... .. . ... ... ... : ... .. . P80 ... ... : ... .. . P80 ... ... : ... .. . P80 ... ... : ... .. . ... ... ... : ... .. . ... ... ... : ... .. . ... ... ... : ... .. . ... ... ...
ROW 74 : ... .. . ... ... ... : ... .. . ... ... ... : ... .. . ... ... ... : D-# 00 A ... ... ... : ... .. . ... ... ... : B-3 05 A ... ... ... : B-3 05 A P83 ... ... : B-3 05 9 P7E ... ... : F#3 05 9 P81 ... ... : ... .. . ... ... ... : ... .. . ... ... ... : ... .. . ... ... ... : ... .. . ... ... ...
ROW 75 : ... .. . ... ... ... : ... .. . ... ... ... : ... .. . ... ... ... : E-# 00 4 ... ... ... : ... .. . ... ... ... : ... .. . ... ... ... : ... .. . P82 ... ... : ... .. . ... ... ... : ... .. . ... ... ... : ... .. . ... ... ... : ... .. . ... ... ... : ... .. . ... ... ... : ... .. . ... ... ...
ROW 76 : ... .. . ... ... ... : ... .. . ... ... ... : ... .. . ... ... ... : D-# 00 2 ... ... ... : ... .. . ... ... ... : ... .. . ... ... ... : ... .. . P83 ... ... : ... .. . ... ... ... : ... .. . ... ... ... : ... .. . ... ... ... : ... .. . ... ... ... : ... .. . ... ... ... : ... .. . ... ... ...
ROW 77 : ... .. . ... ... ... : ... .. . ... ... ... : ... .. . ... ... ... : ... .. 1 ... ... ... : ... .. . ... ... ... : ... .. . ... ... ... : ... .. . P84 ... ... : ... .. . ... ... ... : ... .. . ... ... ... : ... .. . ... ... ... : ... .. . ... ... ... : ... .. . ... ... ... : ... .. . ... ... ...
ROW 78 : ... .. . ... ... ... : ... .. . ... ... ... : ... .. . ... ... ... : ... .. . ... ... ... : ... .. . ... ... ... : --- .. . ... ... ... : --- .. . ... ... ... : --- .. . ... ... ... : --- .. . ... ... ... : ... .. . ... ... ... : ... .. . ... ... ... : ... .. . ... ... ... : ... .. . ... ... ...
ROW 79 : ... .. . ... ... ... : ... .. . ... ... ... : ... .. . ... ... ... : --- .. . ... ... ... : ... .. . ... ... ... : ... .. . ... ... ... : ... .. . P80 ... ... : ... .. . P80 ... ... : ... .. . P80 ... ... : ... .. . ... ... ... : ... .. . ... ... ... : ... .. . ... ... ... : ... .. . ... ... ...
ROW 7A : ... .. . ... ... ... : ... .. . ... ... ... : ... .. . ... ... ... : D-# 00 A ... ... ... : ... .. . ... ... ... : B-3 05 4 ... ... ... : B-3 05 . P82 ... ... : B-3 05 . P7E ... ... : F#3 05 . P81 ... ... : ... .. . ... ... ... : ... .. . ... ... ... : ... .. . ... ... ... : ... .. . ... ... ...
ROW 7B : ... .. . ... ... ... : ... .. . ... ... ... : ... .. . ... ... ... : E-# 00 4 ... ... ... : ... .. . ... ... ... : ... .. . ... ... ... : ... .. . P83 ... ... : ... .. . ... ... ... : ... .. . ... ... ... : ... .. . ... ... ... : ... .. . ... ... ... : ... .. . ... ... ... : ... .. . ... ... ...
ROW 7C : ... .. . ... ... ... : ... .. . ... ... ... : ... .. . ... ... ... : D-# 00 2 ... ... ... : ... .. . ... ... ... : ... .. . ... ... ... : ... .. . P84 ... ... : ... .. . ... ... ... : ... .. . ... ... ... : ... .. . ... ... ... : ... .. . ... ... ... : ... .. . ... ... ... : ... .. . ... ... ...
ROW 7D : ... .. . ... ... ... : ... .. . ... ... ... : ... .. . ... ... ... : ... .. 1 ... ... ... : ... .. . ... ... ... : ... .. . ... ... ... : ... .. . P83 ... ... : ... .. . ... ... ... : ... .. . ... ... ... : ... .. . ... ... ... : ... .. . ... ... ... : ... .. . ... ... ... : ... .. . ... ... ...
ROW 7E : ... .. . ... ... ... : ... .. . ... ... ... : ... .. . ... ... ... : ... .. . ... ... ... : ... .. . ... ... ... : ... .. . ... ... ... : ... .. . P82 ... ... : ... .. 8 ... ... ... : ... .. . ... ... ... : ... .. . ... ... ... : ... .. . ... ... ... : ... .. . ... ... ... : ... .. . ... ... ...
ROW 7F : ... .. . ... ... ... : ... .. . ... ... ... : ... .. . ... ... ... : --- .. . ... ... ... : ... .. . ... ... ... : --- .. . ... ... ... : --- .. . ... ... ... : --- .. . ... ... ... : --- .. . ... ... ... : ... .. . ... ... ... : ... .. . ... ... ... : ... .. . ... ... ... : ... .. . ... ... ...
ROW 80 : ... .. . ... ... ... : ... .. . ... ... ... : ... .. . ... ... ... : ... .. . ... ... ... : ... .. . ... ... ... : ... .. . ... ... ... : ... .. . P80 ... ... : ... .. . P80 ... ... : ... .. . P80 ... ... : ... .. . ... ... ... : ... .. . ... ... ... : ... .. . ... ... ... : ... .. . ... ... ...
ROW 81 : ... .. . ... ... ... : C-4 02 . P80 ... ... : F#3 00 . P78 ... ... : 1-# 00 F ... ... ... : C-1 12 . ... ... ... : D#2 06 F ... ... ... : D#2 06 F P81 ... ... : ... .. . ... ... ... : D#2 06 E P7F ... ... : D#3 06 B P81 ... ... : ... .. . ... ... ... : ... .. . ... ... ... : ... .. . ... ... ...
ROW 82 : ... .. . ... ... ... : F-3 02 . ... ... ... : C#3 00 . P7E ... ... : 2-# 00 7 ... ... ... : ... .. . ... ... ... : ... .. . ... ... ... : ... .. . P80 ... ... : ... .. . ... ... ... : ... .. . ... ... ... : ... .. . ... ... ... : ... .. . ... ... ... : ... .. . ... ... ... : ... .. . ... ... ...
ROW 83 : ... .. . ... ... ... : A#2 02 . P81 ... ... : A-2 00 . P86 ... ... : 1-# 00 4 ... ... ... : ... .. . ... ... ... : ... .. . ... ... ... : ... .. . P81 ... ... : ... .. . ... ... ... : ... .. . ... ... ... : ... .. . ... ... ... : ... .. . ... ... ... : ... .. . ... ... ... : ... .. . ... ... ...
ROW 84 : ... .. . ... ... ... : D#2 02 . ... ... ... : --- .. . ... ... ... : ... .. 2 ... ... ... : ... .. . ... ... ... : D#2 09 . ... ... ... : D-2 09 . P7F ... ... : ... .. . ... ... ... : D#2 09 . ... ... ... : D#3 09 . ... ... ... : ... .. . ... ... ... : ... .. . ... ... ... : ... .. . ... ... ...
ROW 85 : ... .. . ... ... ... : G#1 02 . ... ... ... : ... .. . ... ... ... : ... .. 1 ... ... ... : ... .. . ... ... ... : ... .. . ... ... ... : D#2 09 . P82 ... ... : ... .. . ... ... ... : ... .. . ... ... ... : ... .. A ... ... ... : ... .. . ... ... ... : ... .. . ... ... ... : ... .. . ... ... ...
ROW 86 : ... .. . ... ... ... : C#1 02 . ... ... ... : ... .. . ... ... ... : --- .. . ... ... ... : ... .. . ... ... ... : ... .. . ... ... ... : ... .. . P81 ... ... : ... .. . ... ... ... : ... .. . ... ... ... : ... .. . ... ... ... : ... .. . ... ... ... : ... .. . ... ... ... : ... .. . ... ... ...
ROW 87 : ... .. . ... ... ... : ... .. . ... ... ... : ... .. . ... ... ... : ... .. . ... ... ... : ... .. . ... ... ... : D#2 06 . ... ... ... : D#2 06 . ... ... ... : ... .. . ... ... ... : D#2 06 . ... ... ... : D#3 06 . ... ... ... : ... .. . ... ... ... : ... .. . ... ... ... : ... .. . ... ... ...
ROW 88 : ... .. . ... ... ... : ... .. . ... ... ... : ... .. . ... ... ... : ... .. . ... ... ... : ... .. . ... ... ... : ... .. . ... ... ... : ... .. . P82 ... ... : ... .. . ... ... ... : ... .. . ... ... ... : ... .. . ... ... ... : ... .. . ... ... ... : ... .. . ... ... ... : ... .. . ... ... ...
ROW 89 : ... .. . ... ... ... : ... .. . ... ... ... : ... .. . ... ... ... : ... .. . ... ... ... : ... .. . ... ... ... : ... .. . ... ... ... : ... .. . ... ... ... : ... .. . ... ... ... : ... .. D ... ... ... : ... .. 9 ... ... ... : ... .. . ... ... ... : ... .. . ... ... ... : ... .. . ... ... ...
ROW 8A : ... .. . ... ... ... : ... .. . ... ... ... : ... .. . ... ... ... : ... .. . ... ... ... : ... .. . ... ... ... : D#2 09 . ... ... ... : D#2 09 . P81 ... ... : ... .. . ... ... ... : D#2 09 . ... ... ... : D#3 09 . ... ... ... : ... .. . ... ... ... : ... .. . ... ... ... : ... .. . ... ... ...
ROW 8B : ... .. . ... ... ... : ... .. . ... ... ... : ... .. . ... ... ... : ... .. . ... ... ... : ... .. . ... ... ... : ... .. . ... ... ... : ... .. . P80 ... ... : ... .. . ... ... ... : ... .. . ... ... ... : ... .. . ... ... ... : ... .. . ... ... ... : ... .. . ... ... ... : ... .. . ... ... ...
ROW 8C : ... .. . ... ... ... : ... .. . ... ... ... : ... .. . ... ... ... : ... .. . ... ... ... : ... .. . ... ... ... : ... .. . ... ... ... : ... .. . P81 ... ... : ... .. . ... ... ... : ... .. . ... ... ... : ... .. . ... ... ... : ... .. . ... ... ... : ... .. . ... ... ... : ... .. . ... ... ...
ROW 8D : ... .. . ... ... ... : ... .. . ... ... ... : ... .. . ... ... ... : D-# 00 A ... ... ... : ... .. . ... ... ... : D#2 06 . ... ... ... : D-2 06 . P7F ... ... : ... .. . ... ... ... : D#2 06 . ... ... ... : D#3 06 8 ... ... ... : ... .. . ... ... ... : ... .. . ... ... ... : ... .. . ... ... ...
ROW 8E : ... .. . ... ... ... : ... .. . ... ... ... : ... .. . ... ... ... : E-# 00 4 ... ... ... : ... .. . ... ... ... : ... .. . ... ... ... : D#2 06 . P81 ... ... : ... .. . ... ... ... : ... .. . ... ... ... : ... .. . ... ... ... : ... .. . ... ... ... : ... .. . ... ... ... : ... .. . ... ... ...
ROW 8F : ... .. . ... ... ... : ... .. . ... ... ... : ... .. . ... ... ... : D-# 00 2 ... ... ... : ... .. . ... ... ... : ... .. . ... ... ... : ... .. . P80 ... ... : ... .. . ... ... ... : ... .. . ... ... ... : ... .. . ... ... ... : ... .. . ... ... ... : ... .. . ... ... ... : ... .. . ... ... ...
ROW 90 : ... .. . ... ... ... : ... .. . ... ... ... : ... .. . ... ... ... : ... .. 1 ... ... ... : ... .. . ... ... ... : D#2 09 . ... ... ... : D#2 09 . P81 ... ... : ... .. . ... ... ... : D#2 09 . ... ... ... : D#3 09 . ... ... ... : ... .. . ... ... ... : ... .. . ... ... ... : ... .. . ... ... ...
ROW 91 : ... .. . ... ... ... : ... .. . ... ... ... : ... .. . ... ... ... : ... .. . ... ... ... : ... .. . ... ... ... : ... .. . ... ... ... : D-2 09 . P7F ... ... : ... .. . ... ... ... : ... .. C ... ... ... : ... .. 7 ... ... ... : ... .. . ... ... ... : ... .. . ... ... ... : ... .. . ... ... ...
ROW 92 : ... .. . ... ... ... : ... .. . ... ... ... : ... .. . ... ... ... : --- .. . ... ... ... : ... .. . ... ... ... : ... .. . ... ... ... : D#2 09 . P81 ... ... : ... .. . ... ... ... : ... .. . ... ... ... : ... .. . ... ... ... : ... .. . ... ... ... : ... .. . ... ... ... : ... .. . ... ... ...
ROW 93 : ... .. . ... ... ... : ... .. . ... ... ... : ... .. . ... ... ... : D-# 00 A ... ... ... : ... .. . ... ... ... : D#2 06 . ... ... ... : D#2 06 . P80 ... ... : ... .. . ... ... ... : D#2 06 . ... ... ... : D#3 06 . ... ... ... : ... .. . ... ... ... : ... .. . ... ... ... : ... .. . ... ... ...
ROW 94 : ... .. . ... ... ... : ... .. . ... ... ... : ... .. . ... ... ... : E-# 00 4 ... ... ... : ... .. . ... ... ... : ... .. . ... ... ... : ... .. . P81 ... ... : ... .. . ... ... ... : ... .. . ... ... ... : ... .. . ... ... ... : ... .. . ... ... ... : ... .. . ... ... ... : ... .. . ... ... ...
ROW 95 : ... .. . ... ... ... : ... .. . ... ... ... : ... .. . ... ... ... : D-# 00 2 ... ... ... : ... .. . ... ... ... : ... .. . ... ... ... : D-2 06 . P7F ... ... : ... .. . ... ... ... : ... .. . ... ... ... : ... .. 6 ... ... ... : ... .. . ... ... ... : ... .. . ... ... ... : ... .. . ... ... ...
ROW 96 : ... .. . ... ... ... : ... .. . ... ... ... : ... .. . ... ... ... : ... .. 1 ... ... ... : ... .. . ... ... ... : D#2 09 . ... ... ... : D#2 09 . P82 ... ... : ... .. . ... ... ... : D#2 09 . ... ... ... : D#3 09 . ... ... ... : ... .. . ... ... ... : ... .. . ... ... ... : ... .. . ... ... ...
ROW 97 : ... .. . ... ... ... : ... .. . ... ... ... : ... .. . ... ... ... : ... .. . ... ... ... : ... .. . ... ... ... : ... .. . ... ... ... : ... .. . P81 ... ... : ... .. . ... ... ... : ... .. . ... ... ... : ... .. . ... ... ... : ... .. . ... ... ... : ... .. . ... ... ... : ... .. . ... ... ...
ROW 98 : ... .. . ... ... ... : ... .. . ... ... ... : ... .. . ... ... ... : --- .. . ... ... ... : ... .. . ... ... ... : ... .. . ... ... ... : ... .. . ... ... ... : ... .. . ... ... ... : ... .. . ... ... ... : ... .. . ... ... ... : ... .. . ... ... ... : ... .. . ... ... ... : ... .. . ... ... ...
ROW 99 : ... .. . ... ... ... : ... .. . ... ... ... : ... .. . ... ... ... : ... .. . ... ... ... : ... .. . ... ... ... : ... .. . ... ... ... : ... .. . P82 ... ... : ... .. . ... ... ... : ... .. B ... ... ... : ... .. 5 ... ... ... : ... .. . ... ... ... : ... .. . ... ... ... : ... .. . ... ... ...
ROW 9A : ... .. . ... ... ... : C-4 02 . P80 ... ... : C#4 00 . P7F ... ... : 9-# 00 F ... ... ... : C#1 12 . ... ... ... : D-2 06 . ... ... ... : C#2 06 . P7F ... ... : ... .. . ... ... ... : D-2 06 . ... ... ... : D-3 06 . ... ... ... : ... .. . ... ... ... : ... .. . ... ... ... : ... .. . ... ... ...
ROW 9B : ... .. . ... ... ... : F-3 02 . ... ... ... : F#3 00 . P83 ... ... : 2-# 00 7 ... ... ... : ... .. . ... ... ... : ... .. . ... ... ... : D-2 06 . P81 ... ... : ... .. . ... ... ... : ... .. . ... ... ... : ... .. . ... ... ... : ... .. . ... ... ... : ... .. . ... ... ... : ... .. . ... ... ...
ROW 9C : ... .. . ... ... ... : A#2 02 . P81 ... ... : C#3 00 . P89 ... ... : 6-# 00 C ... ... ... : ... .. . ... ... ... : ... .. . ... ... ... : ... .. . P80 ... ... : ... .. . ... ... ... : ... .. . ... ... ... : ... .. . ... ... ... : ... .. . ... ... ... : ... .. . ... ... ... : ... .. . ... ... ...
ROW 9D : ... .. . ... ... ... : D#2 02 . ... ... ... : A#2 00 . P75 ... ... : 7-# 00 8 ... ... ... : ... .. . ... ... ... : D-2 07 . ... ... ... : D-2 07 . P81 ... ... : ... .. . ... ... ... : D-2 07 . ... ... ... : D-3 07 4 ... ... ... : ... .. . ... ... ... : ... .. . ... ... ... : ... .. . ... ... ...
ROW 9E : ... .. . ... ... ... : G#1 02 . ... ... ... : G-2 00 . P70 ... ... : 8-# 00 7 ... ... ... : ... .. . ... ... ... : ... .. . ... ... ... : C#2 07 . P7F ... ... : ... .. . ... ... ... : ... .. . ... ... ... : ... .. . ... ... ... : ... .. . ... ... ... : ... .. . ... ... ... : ... .. . ... ... ...
ROW 9F : ... .. . ... ... ... : C#1 02 . ... ... ... : E-2 00 . P7C ... ... : ... .. 6 ... ... ... : ... .. . ... ... ... : ... .. . ... ... ... : D-2 07 . P81 ... ... : ... .. . ... ... ... : ... .. . ... ... ... : ... .. . ... ... ... : ... .. . ... ... ... : ... .. . ... ... ... : ... .. . ... ... ...
ROW A0 : ... .. . ... ... ... : ... .. . ... ... ... : --- .. . ... ... ... : ... .. . ... ... ... : ... .. . ... ... ... : D-2 08 . ... ... ... : D-2 08 . P80 ... ... : ... .. . ... ... ... : D-2 08 . ... ... ... : D-3 08 . ... ... ... : ... .. . ... ... ... : ... .. . ... ... ... : ... .. . ... ... ...
ROW A1 : ... .. . ... ... ... : ... .. . ... ... ... : ... .. . ... ... ... : ... .. 5 ... ... ... : ... .. . ... ... ... : ... .. . ... ... ... : ... .. . P81 ... ... : ... .. . ... ... ... : ... .. A ... ... ... : ... .. 3 ... ... ... : ... .. . ... ... ... : ... .. . ... ... ... : ... .. . ... ... ...
ROW A2 : ... .. . ... ... ... : ... .. . ... ... ... : ... .. . ... ... ... : ... .. . ... ... ... : ... .. . ... ... ... : ... .. . ... ... ... : C#2 08 . P7F ... ... : ... .. . ... ... ... : ... .. . ... ... ... : ... .. . ... ... ... : ... .. . ... ... ... : ... .. . ... ... ... : ... .. . ... ... ...
ROW A3 : ... .. . ... ... ... : ... .. . ... ... ... : ... .. . ... ... ... : ... .. 4 ... ... ... : ... .. . ... ... ... : D-2 09 . ... ... ... : D-2 09 . P81 ... ... : ... .. . ... ... ... : D-2 09 . ... ... ... : D-3 09 . ... ... ... : ... .. . ... ... ... : ... .. . ... ... ... : ... .. . ... ... ...
ROW A4 : ... .. . ... ... ... : ... .. . ... ... ... : ... .. . ... ... ... : ... .. . ... ... ... : ... .. . ... ... ... : ... .. . ... ... ... : ... .. . P80 ... ... : ... .. . ... ... ... : ... .. . ... ... ... : ... .. . ... ... ... : ... .. . ... ... ... : ... .. . ... ... ... : ... .. . ... ... ...
ROW A5 : ... .. . ... ... ... : ... .. . ... ... ... : ... .. . ... ... ... : ... .. 3 ... ... ... : ... .. . ... ... ... : ... .. . ... ... ... : ... .. . P81 ... ... : ... .. . ... ... ... : ... .. . ... ... ... : ... .. 2 ... ... ... : ... .. . ... ... ... : ... .. . ... ... ... : ... .. . ... ... ...
ROW A6 : ... .. . ... ... ... : F-3 02 . P80 ... ... : C#4 00 . P7F ... ... : 1-# 00 F ... ... ... : C-1 12 . ... ... ... : --- .. . ... ... ... : --- .. . ... ... ... : ... .. . ... ... ... : --- .. . ... ... ... : --- .. . ... ... ... : ... .. . ... ... ... : ... .. . ... ... ... : ... .. . ... ... ...
ROW A7 : ... .. . ... ... ... : A#2 02 . P81 ... ... : F#3 00 . P83 ... ... : 2-# 00 7 ... ... ... : ... .. . ... ... ... : ... .. . ... ... ... : ... .. . P80 ... ... : ... .. . ... ... ... : ... .. . P80 ... ... : ... .. . P80 ... ... : ... .. . ... ... ... : ... .. . ... ... ... : ... .. . ... ... ...
ROW A8 : ... .. . ... ... ... : D#2 02 . ... ... ... : C#3 00 . P89 ... ... : 1-# 00 4 ... ... ... : ... .. . ... ... ... : ... .. . ... ... ... : ... .. . ... ... ... : ... .. . ... ... ... : ... .. . ... ... ... : ... .. . ... ... ... : ... .. . ... ... ... : ... .. . ... ... ... : ... .. . ... ... ...
ROW A9 : ... .. . ... ... ... : G#1 02 . ... ... ... : A#2 00 . P75 ... ... : ... .. 2 ... ... ... : ... .. . ... ... ... : ... .. . ... ... ... : ... .. . ... ... ... : ... .. . ... ... ... : ... .. . ... ... ... : ... .. . ... ... ... : ... .. . ... ... ... : ... .. . ... ... ... : ... .. . ... ... ...
ROW AA : ... .. . ... ... ... : C#1 02 . ... ... ... : G-2 00 . P70 ... ... : ... .. 1 ... ... ... : ... .. . ... ... ... : ... .. . ... ... ... : ... .. . ... ... ... : ... .. . ... ... ... : ... .. . ... ... ... : ... .. . ... ... ... : ... .. . ... ... ... : ... .. . ... ... ... : ... .. . ... ... ...
ROW AB : ... .. . ... ... ... : ... .. . ... ... ... : E-2 00 . P7C ... ... : --- .. . ... ... ... : ... .. . ... ... ... : ... .. . ... ... ... : ... .. . ... ... ... : ... .. . ... ... ... : ... .. . ... ... ... : ... .. . ... ... ... : ... .. . ... ... ... : ... .. . ... ... ... : ... .. . ... ... ...
ROW AC : ... .. . ... ... ... : ... .. . ... ... ... : D-2 00 . P6F ... ... : ... .. . ... ... ... : ... .. . ... ... ... : ... .. . ... ... ... : ... .. . ... ... ... : ... .. . ... ... ... : ... .. . ... ... ... : ... .. . ... ... ... : ... .. . ... ... ... : ... .. . ... ... ... : ... .. . ... ... ...
ROW AD : ... .. . ... ... ... : ... .. . ... ... ... : C-2 00 . P6C ... ... : ... .. . ... ... ... : ... .. . ... ... ... : ... .. . ... ... ... : ... .. . ... ... ... : ... .. . ... ... ... : ... .. . ... ... ... : ... .. . ... ... ... : ... .. . ... ... ... : ... .. . ... ... ... : ... .. . ... ... ...
ROW AE : ... .. . ... ... ... : ... .. . ... ... ... : A#1 00 . P75 ... ... : ... .. . ... ... ... : ... .. . ... ... ... : ... .. . ... ... ... : ... .. . ... ... ... : ... .. . ... ... ... : ... .. . ... ... ... : ... .. . ... ... ... : ... .. . ... ... ... : ... .. . ... ... ... : ... .. . ... ... ...
ROW AF : ... .. . ... ... ... : ... .. . ... ... ... : G#1 00 . P8A ... ... : ... .. . ... ... ... : ... .. . ... ... ... : C-2 07 . ... ... ... : B-1 07 . P7F ... ... : ... .. . ... ... ... : ... .. . ... ... ... : ... .. . ... ... ... : ... .. . ... ... ... : ... .. . ... ... ... : ... .. . ... ... ...
ROW B0 : ... .. . ... ... ... : ... .. . ... ... ... : G-1 00 . P6A ... ... : ... .. . ... ... ... : ... .. . ... ... ... : ... .. . ... ... ... : C-2 07 . P81 ... ... : ... .. . ... ... ... : ... .. . ... ... ... : ... .. . ... ... ... : ... .. . ... ... ... : ... .. . ... ... ... : ... .. . ... ... ...
ROW B1 : ... .. . ... ... ... : ... .. . ... ... ... : F-1 00 . P96 ... ... : ... .. . ... ... ... : ... .. . ... ... ... : ... .. . ... ... ... : ... .. . P80 ... ... : ... .. . ... ... ... : ... .. . ... ... ... : ... .. . ... ... ... : ... .. . ... ... ... : ... .. . ... ... ... : ... .. . ... ... ...
ROW B2 : ... .. . ... ... ... : ... .. . ... ... ... : E-1 00 . P82 ... ... : ... .. . ... ... ... : ... .. . ... ... ... : ... .. . ... ... ... : ... .. . P81 ... ... : ... .. . ... ... ... : ... .. . ... ... ... : ... .. . ... ... ... : ... .. . ... ... ... : ... .. . ... ... ... : ... .. . ... ... ...
ROW B3 : ... .. . ... ... ... : C-4 02 . P80 ... ... : F#3 00 . P78 ... ... : 1-# 00 F ... ... ... : C-1 12 . ... ... ... : C#2 06 . ... ... ... : C-2 06 . P7F ... ... : ... .. . ... ... ... : C#2 06 8 P7F ... ... : ... .. . ... ... ... : ... .. . ... ... ... : ... .. . ... ... ... : ... .. . ... ... ...
ROW B4 : ... .. . ... ... ... : F-3 02 . ... ... ... : C#3 00 . P7E ... ... : 2-# 00 7 ... ... ... : ... .. . ... ... ... : ... .. . ... ... ... : C#2 06 . P81 ... ... : ... .. . ... ... ... : ... .. . ... ... ... : ... .. . ... ... ... : ... .. . ... ... ... : ... .. . ... ... ... : ... .. . ... ... ...
ROW B5 : ... .. . ... ... ... : A#2 02 . P81 ... ... : A-2 00 . P86 ... ... : 1-# 00 4 ... ... ... : ... .. . ... ... ... : ... .. . ... ... ... : ... .. . P80 ... ... : ... .. . ... ... ... : ... .. . ... ... ... : ... .. . ... ... ... : ... .. . ... ... ... : ... .. . ... ... ... : ... .. . ... ... ...
ROW B6 : ... .. . ... ... ... : D#2 02 . ... ... ... : --- .. . ... ... ... : ... .. 2 ... ... ... : ... .. . ... ... ... : C#2 09 . ... ... ... : C#2 09 . P81 ... ... : ... .. . ... ... ... : C#2 09 . ... ... ... : ... .. . ... ... ... : ... .. . ... ... ... : ... .. . ... ... ... : ... .. . ... ... ...
ROW B7 : ... .. . ... ... ... : G#1 02 . ... ... ... : ... .. . ... ... ... : ... .. 1 ... ... ... : ... .. . ... ... ... : ... .. . ... ... ... : ... .. . P82 ... ... : ... .. . ... ... ... : ... .. . ... ... ... : ... .. . ... ... ... : ... .. . ... ... ... : ... .. . ... ... ... : ... .. . ... ... ...
ROW B8 : ... .. . ... ... ... : C#1 02 . ... ... ... : ... .. . ... ... ... : --- .. . ... ... ... : ... .. . ... ... ... : ... .. . ... ... ... : ... .. . ... ... ... : ... .. . ... ... ... : ... .. . ... ... ... : ... .. . ... ... ... : ... .. . ... ... ... : ... .. . ... ... ... : ... .. . ... ... ...
ROW B9 : ... .. . ... ... ... : ... .. . ... ... ... : ... .. . ... ... ... : ... .. . ... ... ... : ... .. . ... ... ... : C#2 06 . ... ... ... : C#2 06 . P81 ... ... : ... .. . ... ... ... : C#2 06 7 ... ... ... : ... .. . ... ... ... : ... .. . ... ... ... : ... .. . ... ... ... : ... .. . ... ... ...
ROW BA : ... .. . ... ... ... : ... .. . ... ... ... : ... .. . ... ... ... : ... .. . ... ... ... : ... .. . ... ... ... : ... .. . ... ... ... : ... .. . P80 ... ... : ... .. . ... ... ... : ... .. . ... ... ... : ... .. . ... ... ... : ... .. . ... ... ... : ... .. . ... ... ... : ... .. . ... ... ...
ROW BB : ... .. . ... ... ... : ... .. . ... ... ... : ... .. . ... ... ... : ... .. . ... ... ... : ... .. . ... ... ... : ... .. . ... ... ... : ... .. . P81 ... ... : ... .. . ... ... ... : ... .. . ... ... ... : ... .. . ... ... ... : ... .. . ... ... ... : ... .. . ... ... ... : ... .. . ... ... ...
ROW BC : ... .. . ... ... ... : ... .. . ... ... ... : ... .. . ... ... ... : ... .. . ... ... ... : ... .. . ... ... ... : C#2 09 . ... ... ... : C-2 09 . P7F ... ... : ... .. . ... ... ... : C#2 09 . ... ... ... : ... .. . ... ... ... : ... .. . ... ... ... : ... .. . ... ... ... : ... .. . ... ... ...
ROW BD : ... .. . ... ... ... : ... .. . ... ... ... : ... .. . ... ... ... : ... .. . ... ... ... : ... .. . ... ... ... : ... .. . ... ... ... : C#2 09 . P81 ... ... : ... .. . ... ... ... : ... .. . ... ... ... : ... .. . ... ... ... : ... .. . ... ... ... : ... .. . ... ... ... : ... .. . ... ... ...
ROW BE : ... .. . ... ... ... : ... .. . ... ... ... : ... .. . ... ... ... : ... .. . ... ... ... : ... .. . ... ... ... : ... .. . ... ... ... : ... .. . P80 ... ... : ... .. . ... ... ... : ... .. . ... ... ... : ... .. . ... ... ... : ... .. . ... ... ... : ... .. . ... ... ... : ... .. . ... ... ...
ROW BF : ... .. . ... ... ... : ... .. . ... ... ... : ... .. . ... ... ... : D-# 00 A ... ... ... : ... .. . ... ... ... : C#2 06 . ... ... ... : C#2 06 . P81 ... ... : ... .. . ... ... ... : C#2 06 . ... ... ... : ... .. . ... ... ... : ... .. . ... ... ... : ... .. . ... ... ... : ... .. . ... ... ...
ROW C0 : ... .. . ... ... ... : ... .. . ... ... ... : ... .. . ... ... ... : E-# 00 4 ... ... ... : ... .. . ... ... ... : ... .. . ... ... ... : C-2 06 . P7F ... ... : ... .. . ... ... ... : ... .. . ... ... ... : ... .. . ... ... ... : ... .. . ... ... ... : ... .. . ... ... ... : ... .. . ... ... ...
ROW C1 : ... .. . ... ... ... : ... .. . ... ... ... : ... .. . ... ... ... : D-# 00 2 ... ... ... : ... .. . ... ... ... : ... .. . ... ... ... : C#2 06 . P81 ... ... : ... .. . ... ... ... : ... .. 6 ... ... ... : ... .. . ... ... ... : ... .. . ... ... ... : ... .. . ... ... ... : ... .. . ... ... ...
ROW C2 : ... .. . ... ... ... : ... .. . ... ... ... : ... .. . ... ... ... : ... .. 1 ... ... ... : ... .. . ... ... ... : C#2 09 . ... ... ... : C#2 09 . P80 ... ... : ... .. . ... ... ... : C#2 09 . ... ... ... : ... .. . ... ... ... : ... .. . ... ... ... : ... .. . ... ... ... : ... .. . ... ... ...
ROW C3 : ... .. . ... ... ... : ... .. . ... ... ... : ... .. . ... ... ... : ... .. . ... ... ... : ... .. . ... ... ... : ... .. . ... ... ... : ... .. . P81 ... ... : ... .. . ... ... ... : ... .. . ... ... ... : ... .. . ... ... ... : ... .. . ... ... ... : ... .. . ... ... ... : ... .. . ... ... ...
ROW C4 : ... .. . ... ... ... : ... .. . ... ... ... : ... .. . ... ... ... : --- .. . ... ... ... : ... .. . ... ... ... : ... .. . ... ... ... : C-2 09 . P7F ... ... : ... .. . ... ... ... : ... .. . ... ... ... : ... .. . ... ... ... : ... .. . ... ... ... : ... .. . ... ... ... : ... .. . ... ... ...
ROW C5 : ... .. . ... ... ... : ... .. . ... ... ... : ... .. . ... ... ... : D-# 00 A ... ... ... : ... .. . ... ... ... : C#2 06 . ... ... ... : C#2 06 . P82 ... ... : ... .. . ... ... ... : C#2 06 . ... ... ... : ... .. . ... ... ... : ... .. . ... ... ... : ... .. . ... ... ... : ... .. . ... ... ...
ROW C6 : ... .. . ... ... ... : ... .. . ... ... ... : ... .. . ... ... ... : E-# 00 4 ... ... ... : ... .. . ... ... ... : ... .. . ... ... ... : ... .. . P81 ... ... : ... .. . ... ... ... : ... .. . ... ... ... : ... .. . ... ... ... : ... .. . ... ... ... : ... .. . ... ... ... : ... .. . ... ... ...
ROW C7 : ... .. . ... ... ... : ... .. . ... ... ... : ... .. . ... ... ... : D-# 00 2 ... ... ... : ... .. . ... ... ... : ... .. . ... ... ... : ... .. . ... ... ... : ... .. . ... ... ... : ... .. . ... ... ... : ... .. . ... ... ... : ... .. . ... ... ... : ... .. . ... ... ... : ... .. . ... ... ...
ROW C8 : ... .. . ... ... ... : ... .. . ... ... ... : ... .. . ... ... ... : ... .. 1 ... ... ... : ... .. . ... ... ... : C#2 09 . ... ... ... : C#2 09 . P82 ... ... : ... .. . ... ... ... : C#2 09 . ... ... ... : ... .. . ... ... ... : ... .. . ... ... ... : ... .. . ... ... ... : ... .. . ... ... ...
ROW C9 : ... .. . ... ... ... : ... .. . ... ... ... : ... .. . ... ... ... : ... .. . ... ... ... : ... .. . ... ... ... : ... .. . ... ... ... : ... .. . ... ... ... : ... .. . ... ... ... : ... .. 5 ... ... ... : ... .. . ... ... ... : ... .. . ... ... ... : ... .. . ... ... ... : ... .. . ... ... ...
ROW CA : ... .. . ... ... ... : ... .. . ... ... ... : ... .. . ... ... ... : --- .. . ... ... ... : ... .. . ... ... ... : ... .. . ... ... ... : ... .. . P81 ... ... : ... .. . ... ... ... : ... .. . ... ... ... : ... .. . ... ... ... : ... .. . ... ... ... : ... .. . ... ... ... : ... .. . ... ... ...
ROW CB : ... .. . ... ... ... : ... .. . ... ... ... : ... .. . ... ... ... : ... .. . ... ... ... : ... .. . ... ... ... : ... .. . ... ... ... : ... .. . P80 ... ... : ... .. . ... ... ... : ... .. . ... ... ... : ... .. . ... ... ... : ... .. . ... ... ... : ... .. . ... ... ... : ... .. . ... ... ...
ROW CC : ... .. . ... ... ... : C-4 02 . P80 ... ... : C#4 00 . P7F ... ... : 9-# 00 F ... ... ... : C#1 12 . ... ... ... : G-1 06 . ... ... ... : G-1 06 . P81 ... ... : ... .. . ... ... ... : G-1 06 . ... ... ... : ... .. . ... ... ... : ... .. . ... ... ... : ... .. . ... ... ... : ... .. . ... ... ...
ROW CD : ... .. . ... ... ... : F-3 02 . ... ... ... : F#3 00 . P83 ... ... : 2-# 00 7 ... ... ... : ... .. . ... ... ... : ... .. . ... ... ... : F#1 06 . P80 ... ... : ... .. . ... ... ... : ... .. . ... ... ... : ... .. . ... ... ... : ... .. . ... ... ... : ... .. . ... ... ... : ... .. . ... ... ...
ROW CE : ... .. . ... ... ... : A#2 02 . P81 ... ... : C#3 00 . P89 ... ... : 6-# 00 C ... ... ... : ... .. . ... ... ... : ... .. . ... ... ... : G-1 06 . P81 ... ... : ... .. . ... ... ... : ... .. . ... ... ... : ... .. . ... ... ... : ... .. . ... ... ... : ... .. . ... ... ... : ... .. . ... ... ...
ROW CF : ... .. . ... ... ... : D#2 02 . ... ... ... : A#2 00 . P75 ... ... : 7-# 00 8 ... ... ... : ... .. . ... ... ... : ... .. . ... ... ... : ... .. . P80 ... ... : ... .. . ... ... ... : ... .. . ... ... ... : ... .. . ... ... ... : ... .. . ... ... ... : ... .. . ... ... ... : ... .. . ... ... ...
ROW D0 : ... .. . ... ... ... : G#1 02 . ... ... ... : G-2 00 . P70 ... ... : 8-# 00 7 ... ... ... : ... .. . ... ... ... : ... .. . ... ... ... : ... .. . P81 ... ... : ... .. . ... ... ... : ... .. . ... ... ... : ... .. . ... ... ... : ... .. . ... ... ... : ... .. . ... ... ... : ... .. . ... ... ...
ROW D1 : ... .. . ... ... ... : C#1 02 . ... ... ... : E-2 00 . P7C ... ... : ... .. 6 ... ... ... : ... .. . ... ... ... : ... .. . ... ... ... : F#1 06 . P80 ... ... : ... .. . ... ... ... : ... .. 4 ... ... ... : ... .. . ... ... ... : ... .. . ... ... ... : ... .. . ... ... ... : ... .. . ... ... ...
ROW D2 : ... .. . ... ... ... : ... .. . ... ... ... : --- .. . ... ... ... : ... .. . ... ... ... : ... .. . ... ... ... : G-1 07 . ... ... ... : G-1 07 . P81 ... ... : ... .. . ... ... ... : G-1 07 . ... ... ... : ... .. . ... ... ... : ... .. . ... ... ... : ... .. . ... ... ... : ... .. . ... ... ...
ROW D3 : ... .. . ... ... ... : ... .. . ... ... ... : ... .. . ... ... ... : ... .. 5 ... ... ... : ... .. . ... ... ... : ... .. . ... ... ... : ... .. . P80 ... ... : ... .. . ... ... ... : ... .. . ... ... ... : ... .. . ... ... ... : ... .. . ... ... ... : ... .. . ... ... ... : ... .. . ... ... ...
ROW D4 : ... .. . ... ... ... : ... .. . ... ... ... : ... .. . ... ... ... : ... .. . ... ... ... : ... .. . ... ... ... : ... .. . ... ... ... : ... .. . P81 ... ... : ... .. . ... ... ... : ... .. . ... ... ... : ... .. . ... ... ... : ... .. . ... ... ... : ... .. . ... ... ... : ... .. . ... ... ...
ROW D5 : ... .. . ... ... ... : ... .. . ... ... ... : ... .. . ... ... ... : ... .. 4 ... ... ... : ... .. . ... ... ... : G-1 08 . ... ... ... : F#1 08 . P80 ... ... : ... .. . ... ... ... : G-1 08 . ... ... ... : ... .. . ... ... ... : ... .. . ... ... ... : ... .. . ... ... ... : ... .. . ... ... ...
ROW D6 : ... .. . ... ... ... : ... .. . ... ... ... : ... .. . ... ... ... : ... .. . ... ... ... : ... .. . ... ... ... : ... .. . ... ... ... : ... .. . ... ... ... : ... .. . ... ... ... : ... .. . ... ... ... : ... .. . ... ... ... : ... .. . ... ... ... : ... .. . ... ... ... : ... .. . ... ... ...
ROW D7 : ... .. . ... ... ... : ... .. . ... ... ... : ... .. . ... ... ... : ... .. 3 ... ... ... : ... .. . ... ... ... : ... .. . ... ... ... : G-1 08 . P81 ... ... : ... .. . ... ... ... : ... .. . ... ... ... : ... .. . ... ... ... : ... .. . ... ... ... : ... .. . ... ... ... : ... .. . ... ... ...
ROW D8 : ... .. . ... ... ... : ... .. . ... ... ... : ... .. . ... ... ... : 6-# 01 F ... ... ... : ... .. . ... ... ... : B-1 06 . ... ... ... : B-1 06 . ... ... ... : ... .. . ... ... ... : B-1 06 . ... ... ... : ... .. . ... ... ... : ... .. . ... ... ... : ... .. . ... ... ... : ... .. . ... ... ...
ROW D9 : ... .. . ... ... ... : ... .. . ... ... ... : ... .. . ... ... ... : ... .. 9 ... ... ... : ... .. . ... ... ... : ... .. . ... ... ... : A#1 06 . P7F ... ... : ... .. . ... ... ... : ... .. 3 ... ... ... : ... .. . ... ... ... : ... .. . ... ... ... : ... .. . ... ... ... : ... .. . ... ... ...
ROW DA : ... .. . ... ... ... : ... .. . ... ... ... : ... .. . ... ... ... : ... .. 4 ... ... ... : ... .. . ... ... ... : ... .. . ... ... ... : ... .. . P80 ... ... : ... .. . ... ... ... : ... .. . ... ... ... : ... .. . ... ... ... : ... .. . ... ... ... : ... .. . ... ... ... : ... .. . ... ... ...
ROW DB : ... .. . ... ... ... : ... .. . ... ... ... : ... .. . ... ... ... : ... .. 7 ... ... ... : ... .. . ... ... ... : ... .. . ... ... ... : B-1 06 . P81 ... ... : ... .. . ... ... ... : ... .. . ... ... ... : ... .. . ... ... ... : ... .. . ... ... ... : ... .. . ... ... ... : ... .. . ... ... ...
ROW DC : ... .. . ... ... ... : ... .. . ... ... ... : ... .. . ... ... ... : ... .. 5 ... ... ... : ... .. . ... ... ... : ... .. . ... ... ... : ... .. . P80 ... ... : ... .. . ... ... ... : ... .. . ... ... ... : ... .. . ... ... ... : ... .. . ... ... ... : ... .. . ... ... ... : ... .. . ... ... ...
ROW DD : ... .. . ... ... ... : ... .. . ... ... ... : ... .. . ... ... ... : ... .. . ... ... ... : ... .. . ... ... ... : ... .. . ... ... ... : ... .. . P81 ... ... : ... .. . ... ... ... : ... .. . ... ... ... : ... .. . ... ... ... : ... .. . ... ... ... : ... .. . ... ... ... : ... .. . ... ... ...
ROW DE : ... .. . ... ... ... : ... .. . ... ... ... : ... .. . ... ... ... : ... .. 4 ... ... ... : ... .. . ... ... ... : B-1 07 . ... ... ... : A#1 07 . P80 ... ... : ... .. . ... ... ... : B-1 07 . ... ... ... : ... .. . ... ... ... : ... .. . ... ... ... : ... .. . ... ... ... : ... .. . ... ... ...
ROW DF : ... .. . ... ... ... : ... .. . ... ... ... : ... .. . ... ... ... : ... .. . ... ... ... : ... .. . ... ... ... : ... .. . ... ... ... : B-1 07 . P81 ... ... : ... .. . ... ... ... : ... .. . ... ... ... : ... .. . ... ... ... : ... .. . ... ... ... : ... .. . ... ... ... : ... .. . ... ... ...
ROW E0 : ... .. . ... ... ... : ... .. . ... ... ... : ... .. . ... ... ... : ... .. 3 ... ... ... : ... .. . ... ... ... : ... .. . ... ... ... : ... .. . P80 ... ... : ... .. . ... ... ... : ... .. . ... ... ... : ... .. . ... ... ... : ... .. . ... ... ... : ... .. . ... ... ... : ... .. . ... ... ...
ROW E1 : ... .. . ... ... ... : ... .. . ... ... ... : ... .. . ... ... ... : ... .. 2 ... ... ... : ... .. . ... ... ... : B-1 08 . ... ... ... : B-1 08 . P81 ... ... : ... .. . ... ... ... : B-1 08 2 ... ... ... : ... .. . ... ... ... : ... .. . ... ... ... : ... .. . ... ... ... : ... .. . ... ... ...
ROW E2 : ... .. . ... ... ... : ... .. . ... ... ... : ... .. . ... ... ... : ... .. . ... ... ... : ... .. . ... ... ... : ... .. . ... ... ... : A#1 08 . P80 ... ... : ... .. . ... ... ... : ... .. . ... ... ... : ... .. . ... ... ... : ... .. . ... ... ... : ... .. . ... ... ... : ... .. . ... ... ...
ROW E3 : ... .. . ... ... ... : ... .. . ... ... ... : ... .. . ... ... ... : ... .. 1 ... ... ... : ... .. . ... ... ... : ... .. . ... ... ... : B-1 08 . P81 ... ... : ... .. . ... ... ... : ... .. . ... ... ... : ... .. . ... ... ... : ... .. . ... ... ... : ... .. . ... ... ... : ... .. . ... ... ...
ROW E4 : ... .. . ... ... ... : ... .. . ... ... ... : ... .. . ... ... ... : ... .. . ... ... ... : ... .. . ... ... ... : ... .. . ... ... ... : ... .. . P80 ... ... : ... .. . ... ... ... : ... .. . ... ... ... : ... .. . ... ... ... : ... .. . ... ... ... : ... .. . ... ... ... : ... .. . ... ... ...
ROW E5 : ... .. . ... ... ... : C-4 02 . P80 ... ... : F#3 00 . P78 ... ... : 1-# 00 F ... ... ... : C-1 12 . ... ... ... : G-4 04 A P78 ... ... : A-4 04 A P81 ... ... : ... .. . ... ... ... : F#4 04 9 P89 ... ... : G-4 04 9 P81 ... ... : ... .. . ... ... ... : ... .. . ... ... ... : ... .. . ... ... ...
ROW E6 : ... .. . ... ... ... : F-3 02 . ... ... ... : C#3 00 . P7E ... ... : 2-# 00 7 ... ... ... : ... .. . ... ... ... : G#4 04 . P84 ... ... : ... .. . P82 ... ... : ... .. . ... ... ... : ... .. . P81 ... ... : ... .. . ... ... ... : ... .. . ... ... ... : ... .. . ... ... ... : ... .. . ... ... ...
ROW E7 : ... .. . ... ... ... : A#2 02 . P81 ... ... : A-2 00 . P86 ... ... : 1-# 00 4 ... ... ... : ... .. . ... ... ... : ... .. . P7C ... ... : ... .. . ... ... ... : ... .. . ... ... ... : ... .. . P79 ... ... : ... .. . ... ... ... : ... .. . ... ... ... : ... .. . ... ... ... : ... .. . ... ... ...
ROW E8 : ... .. . ... ... ... : D#2 02 . ... ... ... : --- .. . ... ... ... : ... .. 2 ... ... ... : ... .. . ... ... ... : A-4 04 . P88 ... ... : ... .. . P81 ... ... : ... .. . ... ... ... : G-4 04 . P83 ... ... : ... .. . ... ... ... : ... .. . ... ... ... : ... .. . ... ... ... : ... .. . ... ... ...
ROW E9 : ... .. . ... ... ... : G#1 02 . ... ... ... : ... .. . ... ... ... : ... .. 1 ... ... ... : ... .. . ... ... ... : ... .. . P80 ... ... : ... .. . ... ... ... : ... .. . ... ... ... : ... .. . P7B ... ... : ... .. 8 ... ... ... : ... .. . ... ... ... : ... .. . ... ... ... : ... .. . ... ... ...
ROW EA : ... .. . ... ... ... : C#1 02 . ... ... ... : ... .. . ... ... ... : --- .. . ... ... ... : ... .. . ... ... ... : ... .. . P78 ... ... : ... .. . P82 ... ... : ... .. . ... ... ... : G#4 04 . P86 ... ... : ... .. . ... ... ... : ... .. . ... ... ... : ... .. . ... ... ... : ... .. . ... ... ...
ROW EB : ... .. . ... ... ... : ... .. . ... ... ... : ... .. . ... ... ... : ... .. . ... ... ... : ... .. . ... ... ... : ... .. . P7A ... ... : ... .. . P84 ... ... : ... .. . ... ... ... : ... .. . P88 ... ... : ... .. . P83 ... ... : ... .. . ... ... ... : ... .. . ... ... ... : ... .. . ... ... ...
ROW EC : ... .. . ... ... ... : ... .. . ... ... ... : ... .. . ... ... ... : ... .. . ... ... ... : ... .. . ... ... ... : ... .. . P7C ... ... : ... .. . P85 ... ... : ... .. . ... ... ... : ... .. . P8A ... ... : ... .. . P85 ... ... : ... .. . ... ... ... : ... .. . ... ... ... : ... .. . ... ... ...
ROW ED : ... .. . ... ... ... : ... .. . ... ... ... : ... .. . ... ... ... : ... .. . ... ... ... : ... .. . ... ... ... : ... .. . P7E ... ... : ... .. . P86 ... ... : ... .. . ... ... ... : G-4 04 8 P79 ... ... : ... .. 7 P87 ... ... : ... .. . ... ... ... : ... .. . ... ... ... : ... .. . ... ... ...
ROW EE : ... .. . ... ... ... : ... .. . ... ... ... : ... .. . ... ... ... : ... .. . ... ... ... : ... .. . ... ... ... : ... .. . P80 ... ... : ... .. . P89 ... ... : ... .. . ... ... ... : ... .. . P7B ... ... : ... .. . P89 ... ... : ... .. . ... ... ... : ... .. . ... ... ... : ... .. . ... ... ...
ROW EF : ... .. . ... ... ... : ... .. . ... ... ... : ... .. . ... ... ... : ... .. . ... ... ... : ... .. . ... ... ... : ... .. . P82 ... ... : G#4 04 . P78 ... ... : ... .. . ... ... ... : ... .. . P7D ... ... : F#4 04 . P79 ... ... : ... .. . ... ... ... : ... .. . ... ... ... : ... .. . ... ... ...
ROW F0 : ... .. . ... ... ... : ... .. . ... ... ... : ... .. . ... ... ... : ... .. . ... ... ... : ... .. . ... ... ... : ... .. . P84 ... ... : ... .. . P79 ... ... : ... .. . ... ... ... : ... .. . P7F ... ... : ... .. . P7B ... ... : ... .. . ... ... ... : ... .. . ... ... ... : ... .. . ... ... ...
ROW F1 : ... .. . ... ... ... : ... .. . ... ... ... : ... .. . ... ... ... : D-# 00 A ... ... ... : ... .. . ... ... ... : G#4 04 . P7E ... ... : ... .. . P86 ... ... : ... .. . ... ... ... : F#4 04 . P7B ... ... : F-4 04 6 P78 ... ... : ... .. . ... ... ... : ... .. . ... ... ... : ... .. . ... ... ...
ROW F2 : ... .. . ... ... ... : ... .. . ... ... ... : ... .. . ... ... ... : E-# 00 4 ... ... ... : ... .. . ... ... ... : G-4 04 . P78 ... ... : G-4 04 . P82 ... ... : ... .. . ... ... ... : ... .. . P89 ... ... : ... .. . P86 ... ... : ... .. . ... ... ... : ... .. . ... ... ... : ... .. . ... ... ...
ROW F3 : ... .. . ... ... ... : ... .. . ... ... ... : ... .. . ... ... ... : D-# 00 2 ... ... ... : ... .. . ... ... ... : ... .. . P86 ... ... : F#4 04 . P7F ... ... : ... .. . ... ... ... : F-4 04 . P85 ... ... : E-4 04 . P84 ... ... : ... .. . ... ... ... : ... .. . ... ... ... : ... .. . ... ... ...
ROW F4 : ... .. . ... ... ... : ... .. . ... ... ... : ... .. . ... ... ... : ... .. 1 ... ... ... : ... .. . ... ... ... : F#4 04 . P82 ... ... : F-4 04 . P7B ... ... : ... .. . ... ... ... : E-4 04 . P83 ... ... : D#4 04 . P83 ... ... : ... .. . ... ... ... : ... .. . ... ... ... : ... .. . ... ... ...
ROW F5 : ... .. . ... ... ... : ... .. . ... ... ... : ... .. . ... ... ... : ... .. . ... ... ... : ... .. . ... ... ... : F-4 04 . P7F ... ... : ... .. . P88 ... ... : ... .. . ... ... ... : D#4 04 7 P82 ... ... : D-4 04 5 P82 ... ... : ... .. . ... ... ... : ... .. . ... ... ... : ... .. . ... ... ...
ROW F6 : ... .. . ... ... ... : ... .. . ... ... ... : ... .. . ... ... ... : --- .. . ... ... ... : ... .. . ... ... ... : E-4 04 . P7D ... ... : E-4 04 . P86 ... ... : ... .. . ... ... ... : D-4 04 . ... ... ... : C#4 04 . P83 ... ... : ... .. . ... ... ... : ... .. . ... ... ... : ... .. . ... ... ...
ROW F7 : ... .. . ... ... ... : ... .. . ... ... ... : ... .. . ... ... ... : D-# 00 A ... ... ... : ... .. . ... ... ... : D#4 04 . P7C ... ... : D#4 04 . ... ... ... : ... .. . ... ... ... : C#4 04 . ... ... ... : C-4 04 . P84 ... ... : ... .. . ... ... ... : ... .. . ... ... ... : ... .. . ... ... ...
ROW F8 : ... .. . ... ... ... : ... .. . ... ... ... : ... .. . ... ... ... : E-# 00 4 ... ... ... : ... .. . ... ... ... : D-4 04 . P7B ... ... : D-4 04 . P85 ... ... : ... .. . ... ... ... : C-4 04 . P83 ... ... : B-3 04 . P86 ... ... : ... .. . ... ... ... : ... .. . ... ... ... : ... .. . ... ... ...
ROW F9 : ... .. . ... ... ... : ... .. . ... ... ... : ... .. . ... ... ... : D-# 00 2 ... ... ... : ... .. . ... ... ... : C#4 04 . P7C ... ... : C#4 04 . ... ... ... : ... .. . ... ... ... : B-3 04 . P85 ... ... : A-3 04 4 P7E ... ... : ... .. . ... ... ... : ... .. . ... ... ... : ... .. . ... ... ...
ROW FA : ... .. . ... ... ... : ... .. . ... ... ... : ... .. . ... ... ... : ... .. 1 ... ... ... : ... .. . ... ... ... : C-4 04 . P7D ... ... : C-4 04 . P86 ... ... : ... .. . ... ... ... : A-3 04 . P7D ... ... : G#3 04 . P82 ... ... : ... .. . ... ... ... : ... .. . ... ... ... : ... .. . ... ... ...
ROW FB : ... .. . ... ... ... : ... .. . ... ... ... : ... .. . ... ... ... : ... .. . ... ... ... : ... .. . ... ... ... : B-3 04 . P7F ... ... : A#3 04 . P7D ... ... : ... .. . ... ... ... : G#3 04 . P81 ... ... : F#3 04 . P7D ... ... : ... .. . ... ... ... : ... .. . ... ... ... : ... .. . ... ... ...
ROW FC : ... .. . ... ... ... : ... .. . ... ... ... : ... .. . ... ... ... : --- .. . ... ... ... : ... .. . ... ... ... : A#3 04 . P82 ... ... : A-3 04 . P81 ... ... : ... .. . ... ... ... : F#3 04 . P7C ... ... : F-3 04 . P82 ... ... : ... .. . ... ... ... : ... .. . ... ... ... : ... .. . ... ... ...
ROW FD : ... .. . ... ... ... : ... .. . ... ... ... : ... .. . ... ... ... : ... .. . ... ... ... : ... .. . ... ... ... : A-3 04 . P85 ... ... : G#3 04 . P84 ... ... : ... .. . ... ... ... : F-3 04 6 P82 ... ... : D#3 04 3 P81 ... ... : ... .. . ... ... ... : ... .. . ... ... ... : ... .. . ... ... ...
ROW FE : ... .. . ... ... ... : C-4 02 . P80 ... ... : C#4 00 . P7F ... ... : 9-# 00 F ... ... ... : C#1 12 . ... ... ... : G#1 04 F P80 ... ... : F#3 04 . P7E ... ... : G-1 04 9 ... ... ... : A-1 04 9 ... ... ... : C#3 04 . ... ... ... : ... .. . ... ... ... : ... .. . ... ... ... : ... .. . ... ... ...
ROW FF : ... .. . ... ... ... : F-3 02 . ... ... ... : F#3 00 . P83 ... ... : 2-# 00 7 ... ... ... : ... .. . ... ... ... : ... .. . ... ... ... : E-3 04 . P7D ... ... : ... .. . ... ... ... : ... .. . ... ... ... : B-2 04 . P82 ... ... : ... .. . ... ... ... : ... .. . ... ... ... : ... .. . ... ... ...

PATTERN 0D
ROW 00 : ... .. . ... ... ... : A#2 02 . P81 ... ... : C#3 00 . P89 ... ... : 6-# 00 C ... ... ... : ... .. . ... ... ... : ... .. . ... ... ... : D-3 04 . ... ... ... : ... .. . ... ... ... : ... .. . ... ... ... : G#2 04 . P80 ... ... : ... .. . ... ... ... : ... .. . ... ... ... : ... .. . ... ... ...
ROW 01 : ... .. . ... ... ... : D#2 02 . ... ... ... : A#2 00 . P75 ... ... : 7-# 00 8 ... ... ... : ... .. . ... ... ... : ... .. . ... ... ... : C#3 04 . P83 ... ... : ... .. . ... ... ... : ... .. . ... ... ... : F-2 04 2 ... ... ... : ... .. . ... ... ... : ... .. . ... ... ... : ... .. . ... ... ...
ROW 02 : ... .. . ... ... ... : G#1 02 . ... ... ... : G-2 00 . P70 ... ... : 8-# 00 7 ... ... ... : ... .. . ... ... ... : ... .. . ... ... ... : A#2 04 . P7E ... ... : ... .. 8 ... ... ... : ... .. . ... ... ... : C#2 04 . ... ... ... : ... .. . ... ... ... : ... .. . ... ... ... : ... .. . ... ... ...
ROW 03 : ... .. . ... ... ... : C#1 02 . ... ... ... : E-2 00 . P7C ... ... : ... .. 6 ... ... ... : ... .. . ... ... ... : ... .. . ... ... ... : G#2 04 . P83 ... ... : ... .. . ... ... ... : ... .. . ... ... ... : G#1 04 . P7F ... ... : ... .. . ... ... ... : ... .. . ... ... ... : ... .. . ... ... ...
ROW 04 : ... .. . ... ... ... : ... .. . ... ... ... : --- .. . ... ... ... : ... .. . ... ... ... : ... .. . ... ... ... : G#2 04 . ... ... ... : E-2 04 . P80 ... ... : G#2 04 . P82 ... ... : G#2 04 . P7F ... ... : D-1 04 . P81 ... ... : ... .. . ... ... ... : ... .. . ... ... ... : ... .. . ... ... ...
ROW 05 : ... .. . ... ... ... : ... .. . ... ... ... : ... .. . ... ... ... : ... .. 5 ... ... ... : ... .. . ... ... ... : ... .. . ... ... ... : C-2 04 . P7F ... ... : ... .. . ... ... ... : ... .. . ... ... ... : D#0 04 1 ... ... ... : ... .. . ... ... ... : ... .. . ... ... ... : ... .. . ... ... ...
ROW 06 : ... .. . ... ... ... : ... .. . ... ... ... : ... .. . ... ... ... : ... .. . ... ... ... : ... .. . ... ... ... : ... .. . ... ... ... : G#1 04 . P81 ... ... : ... .. 7 ... ... ... : ... .. 8 ... ... ... : --- .. . P7F ... ... : ... .. . ... ... ... : ... .. . ... ... ... : ... .. . ... ... ...
ROW 07 : ... .. . ... ... ... : ... .. . ... ... ... : ... .. . ... ... ... : ... .. 4 ... ... ... : ... .. . ... ... ... : ... .. . ... ... ... : C#1 04 . ... ... ... : ... .. . ... ... ... : ... .. . ... ... ... : D#7 04 . P81 ... ... : ... .. . ... ... ... : ... .. . ... ... ... : ... .. . ... ... ...
ROW 08 : ... .. . ... ... ... : ... .. . ... ... ... : ... .. . ... ... ... : ... .. . ... ... ... : ... .. . ... ... ... : ... .. . ... ... ... : C-0 04 . ... ... ... : ... .. . ... ... ... : ... .. . ... ... ... : ... .. . ... ... ... : ... .. . ... ... ... : ... .. . ... ... ... : ... .. . ... ... ...
ROW 09 : ... .. . ... ... ... : ... .. . ... ... ... : ... .. . ... ... ... : ... .. 3 ... ... ... : ... .. . ... ... ... : ... .. . ... ... ... : D#7 04 . ... ... ... : ... .. . ... ... ... : ... .. . ... ... ... : --- .. . ... ... ... : ... .. . ... ... ... : ... .. . ... ... ... : ... .. . ... ... ...
ROW 0A : ... .. . ... ... ... : ... .. . ... ... ... : ... .. . ... ... ... : D-# 00 A ... ... ... : ... .. . ... ... ... : G#1 04 . ... ... ... : --- .. . ... ... ... : G-1 04 6 P80 ... ... : A-1 04 . P82 ... ... : ... .. . P80 ... ... : ... .. . ... ... ... : ... .. . ... ... ... : ... .. . ... ... ...
ROW 0B : ... .. . ... ... ... : ... .. . ... ... ... : ... .. . ... ... ... : E-# 00 4 ... ... ... : ... .. . ... ... ... : ... .. . ... ... ... : ... .. . P80 ... ... : ... .. . ... ... ... : ... .. . ... ... ... : ... .. . ... ... ... : ... .. . ... ... ... : ... .. . ... ... ... : ... .. . ... ... ...
ROW 0C : ... .. . ... ... ... : ... .. . ... ... ... : ... .. . ... ... ... : D-# 00 2 ... ... ... : ... .. . ... ... ... : ... .. . ... ... ... : ... .. . ... ... ... : ... .. . ... ... ... : ... .. . ... ... ... : ... .. . ... ... ... : ... .. . ... ... ... : ... .. . ... ... ... : ... .. . ... ... ...
ROW 0D : ... .. . ... ... ... : ... .. . ... ... ... : ... .. . ... ... ... : ... .. 1 ... ... ... : ... .. . ... ... ... : ... .. . ... ... ... : ... .. . ... ... ... : ... .. . ... ... ... : ... .. . ... ... ... : ... .. . ... ... ... : ... .. . ... ... ... : ... .. . ... ... ... : ... .. . ... ... ...
ROW 0E : ... .. . ... ... ... : ... .. . ... ... ... : ... .. . ... ... ... : ... .. . ... ... ... : ... .. . ... ... ... : ... .. . ... ... ... : ... .. . ... ... ... : ... .. 5 ... ... ... : ... .. 7 ... ... ... : ... .. . ... ... ... : ... .. . ... ... ... : ... .. . ... ... ... : ... .. . ... ... ...
ROW 0F : ... .. . ... ... ... : ... .. . ... ... ... : ... .. . ... ... ... : --- .. . ... ... ... : ... .. . ... ... ... : ... .. . ... ... ... : ... .. . ... ... ... : ... .. . ... ... ... : ... .. . ... ... ... : ... .. . ... ... ... : ... .. . ... ... ... : ... .. . ... ... ... : ... .. . ... ... ...
ROW 10 : ... .. . ... ... ... : ... .. . ... ... ... : ... .. . ... ... ... : D-# 00 A ... ... ... : ... .. . ... ... ... : G#2 04 . ... ... ... : ... .. . ... ... ... : G#2 04 . P82 ... ... : G#2 04 . P7F ... ... : ... .. . ... ... ... : ... .. . ... ... ... : ... .. . ... ... ... : ... .. . ... ... ...
ROW 11 : ... .. . ... ... ... : ... .. . ... ... ... : ... .. . ... ... ... : E-# 00 4 ... ... ... : ... .. . ... ... ... : ... .. . ... ... ... : ... .. . ... ... ... : ... .. . ... ... ... : ... .. . ... ... ... : ... .. . ... ... ... : ... .. . ... ... ... : ... .. . ... ... ... : ... .. . ... ... ...
ROW 12 : ... .. . ... ... ... : ... .. . ... ... ... : ... .. . ... ... ... : D-# 00 2 ... ... ... : ... .. . ... ... ... : ... .. . ... ... ... : ... .. . ... ... ... : ... .. 4 ... ... ... : ... .. . ... ... ... : ... .. . ... ... ... : ... .. . ... ... ... : ... .. . ... ... ... : ... .. . ... ... ...
ROW 13 : ... .. . ... ... ... : ... .. . ... ... ... : ... .. . ... ... ... : ... .. 1 ... ... ... : ... .. . ... ... ... : ... .. . ... ... ... : ... .. . ... ... ... : ... .. . ... ... ... : ... .. . ... ... ... : ... .. . ... ... ... : ... .. . ... ... ... : ... .. . ... ... ... : ... .. . ... ... ...
ROW 14 : ... .. . ... ... ... : ... .. . ... ... ... : ... .. . ... ... ... : ... .. . ... ... ... : ... .. . ... ... ... : ... .. . ... ... ... : ... .. . ... ... ... : ... .. . ... ... ... : ... .. . ... ... ... : ... .. . ... ... ... : ... .. . ... ... ... : ... .. . ... ... ... : ... .. . ... ... ...
ROW 15 : ... .. . ... ... ... : ... .. . ... ... ... : ... .. . ... ... ... : --- .. . ... ... ... : ... .. . ... ... ... : ... .. . ... ... ... : ... .. . ... ... ... : ... .. . ... ... ... : ... .. . ... ... ... : ... .. . ... ... ... : ... .. . ... ... ... : ... .. . ... ... ... : ... .. . ... ... ...
ROW 16 : ... .. . ... ... ... : ... .. . ... ... ... : ... .. . ... ... ... : ... .. . ... ... ... : ... .. . ... ... ... : ... .. . ... ... ... : ... .. . ... ... ... : ... .. 3 ... ... ... : ... .. 6 ... ... ... : ... .. . ... ... ... : ... .. . ... ... ... : ... .. . ... ... ... : ... .. . ... ... ...
ROW 17 : ... .. . ... ... ... : C-4 02 . P80 ... ... : F#3 00 . P78 ... ... : 1-# 00 F ... ... ... : C-1 12 . ... ... ... : B-4 0C 7 P7C ... ... : ... .. . ... ... ... : --- .. . ... ... ... : A#3 0C 1 P85 ... ... : ... .. . ... ... ... : ... .. . ... ... ... : ... .. . ... ... ... : ... .. . ... ... ...
ROW 18 : ... .. . ... ... ... : F-3 02 . ... ... ... : C#3 00 . P7E ... ... : 2-# 00 7 ... ... ... : ... .. . ... ... ... : A#4 0C . P79 ... ... : ... .. . ... ... ... : ... .. . P80 ... ... : G-3 0C . ... ... ... : ... .. . ... ... ... : ... .. . ... ... ... : ... .. . ... ... ... : ... .. . ... ... ...
ROW 19 : ... .. . ... ... ... : A#2 02 . P81 ... ... : A-2 00 . P86 ... ... : 1-# 00 4 ... ... ... : ... .. . ... ... ... : A-4 0C . P78 ... ... : ... .. . ... ... ... : ... .. . ... ... ... : D#3 0C . P82 ... ... : ... .. . ... ... ... : ... .. . ... ... ... : ... .. . ... ... ... : ... .. . ... ... ...
ROW 1A : ... .. . ... ... ... : D#2 02 . ... ... ... : --- .. . ... ... ... : ... .. 2 ... ... ... : ... .. . ... ... ... : G#4 0C . ... ... ... : ... .. . ... ... ... : ... .. . ... ... ... : A#2 0C . P7F ... ... : ... .. . ... ... ... : ... .. . ... ... ... : ... .. . ... ... ... : ... .. . ... ... ...
ROW 1B : ... .. . ... ... ... : G#1 02 . ... ... ... : ... .. . ... ... ... : ... .. 1 ... ... ... : ... .. . ... ... ... : G-4 0C . ... ... ... : ... .. . ... ... ... : ... .. . ... ... ... : E-2 0C . P81 ... ... : ... .. . ... ... ... : ... .. . ... ... ... : ... .. . ... ... ... : ... .. . ... ... ...
ROW 1C : ... .. . ... ... ... : C#1 02 . ... ... ... : ... .. . ... ... ... : --- .. . ... ... ... : ... .. . ... ... ... : --- .. . ... ... ... : ... .. . ... ... ... : ... .. . ... ... ... : --- .. . ... ... ... : ... .. . ... ... ... : ... .. . ... ... ... : ... .. . ... ... ... : ... .. . ... ... ...
ROW 1D : ... .. . ... ... ... : ... .. . ... ... ... : ... .. . ... ... ... : ... .. . ... ... ... : ... .. . ... ... ... : B-4 0C . P7C ... ... : ... .. . ... ... ... : ... .. . ... ... ... : A#3 0C . P85 ... ... : ... .. . ... ... ... : ... .. . ... ... ... : ... .. . ... ... ... : ... .. . ... ... ...
ROW 1E : ... .. . ... ... ... : ... .. . ... ... ... : ... .. . ... ... ... : ... .. . ... ... ... : ... .. . ... ... ... : A#4 0C . P79 ... ... : ... .. . ... ... ... : ... .. . ... ... ... : G-3 0C . ... ... ... : ... .. . ... ... ... : ... .. . ... ... ... : ... .. . ... ... ... : ... .. . ... ... ...
ROW 1F : ... .. . ... ... ... : ... .. . ... ... ... : ... .. . ... ... ... : ... .. . ... ... ... : ... .. . ... ... ... : A-4 0C . P78 ... ... : ... .. . ... ... ... : ... .. . ... ... ... : --- .. . ... ... ... : ... .. . ... ... ... : ... .. . ... ... ... : ... .. . ... ... ... : ... .. . ... ... ...
ROW 20 : ... .. . ... ... ... : ... .. . ... ... ... : ... .. . ... ... ... : ... .. . ... ... ... : ... .. . ... ... ... : G#4 0C . ... ... ... : ... .. . ... ... ... : ... .. . ... ... ... : ... .. . P80 ... ... : ... .. . ... ... ... : ... .. . ... ... ... : ... .. . ... ... ... : ... .. . ... ... ...
ROW 21 : ... .. . ... ... ... : ... .. . ... ... ... : ... .. . ... ... ... : ... .. . ... ... ... : ... .. . ... ... ... : G-4 0C . ... ... ... : ... .. . ... ... ... : ... .. . ... ... ... : ... .. . ... ... ... : ... .. . ... ... ... : ... .. . ... ... ... : ... .. . ... ... ... : ... .. . ... ... ...
ROW 22 : ... .. . ... ... ... : ... .. . ... ... ... : ... .. . ... ... ... : ... .. . ... ... ... : ... .. . ... ... ... : --- .. . ... ... ... : ... .. . ... ... ... : ... .. . ... ... ... : ... .. . ... ... ... : ... .. . ... ... ... : ... .. . ... ... ... : ... .. . ... ... ... : ... .. . ... ... ...
ROW 23 : ... .. . ... ... ... : ... .. . ... ... ... : ... .. . ... ... ... : D-# 00 A ... ... ... : ... .. . ... ... ... : B-2 05 A P80 ... ... : A#2 05 . P7E ... ... : B-2 05 9 P7E ... ... : G#2 05 9 P81 ... ... : ... .. . ... ... ... : ... .. . ... ... ... : ... .. . ... ... ... : ... .. . ... ... ...
ROW 24 : ... .. . ... ... ... : ... .. . ... ... ... : ... .. . ... ... ... : E-# 00 4 ... ... ... : ... .. . ... ... ... : ... .. . ... ... ... : B-2 05 . P82 ... ... : ... .. . ... ... ... : ... .. . ... ... ... : ... .. . ... ... ... : ... .. . ... ... ... : ... .. . ... ... ... : ... .. . ... ... ...
ROW 25 : ... .. . ... ... ... : ... .. . ... ... ... : ... .. . ... ... ... : D-# 00 2 ... ... ... : ... .. . ... ... ... : ... .. . ... ... ... : ... .. . P83 ... ... : ... .. . ... ... ... : ... .. . ... ... ... : ... .. . ... ... ... : ... .. . ... ... ... : ... .. . ... ... ... : ... .. . ... ... ...
ROW 26 : ... .. . ... ... ... : ... .. . ... ... ... : ... .. . ... ... ... : ... .. 1 ... ... ... : ... .. . ... ... ... : ... .. . ... ... ... : A#2 05 . P7E ... ... : ... .. . ... ... ... : ... .. . ... ... ... : ... .. . ... ... ... : ... .. . ... ... ... : ... .. . ... ... ... : ... .. . ... ... ...
ROW 27 : ... .. . ... ... ... : ... .. . ... ... ... : ... .. . ... ... ... : ... .. . ... ... ... : ... .. . ... ... ... : --- .. . ... ... ... : --- .. . ... ... ... : --- .. . ... ... ... : --- .. . ... ... ... : ... .. . ... ... ... : ... .. . ... ... ... : ... .. . ... ... ... : ... .. . ... ... ...
ROW 28 : ... .. . ... ... ... : ... .. . ... ... ... : ... .. . ... ... ... : --- .. . ... ... ... : ... .. . ... ... ... : ... .. . ... ... ... : ... .. . P80 ... ... : ... .. . P80 ... ... : ... .. . P80 ... ... : ... .. . ... ... ... : ... .. . ... ... ... : ... .. . ... ... ... : ... .. . ... ... ...
ROW 29 : ... .. . ... ... ... : ... .. . ... ... ... : ... .. . ... ... ... : D-# 00 A ... ... ... : ... .. . ... ... ... : B-2 05 4 ... ... ... : B-2 05 4 P83 ... ... : B-2 05 3 P7E ... ... : G#2 05 3 P81 ... ... : ... .. . ... ... ... : ... .. . ... ... ... : ... .. . ... ... ... : ... .. . ... ... ...
ROW 2A : ... .. . ... ... ... : ... .. . ... ... ... : ... .. . ... ... ... : E-# 00 4 ... ... ... : ... .. . ... ... ... : ... .. . ... ... ... : A#2 05 . P7E ... ... : ... .. . ... ... ... : ... .. . ... ... ... : ... .. . ... ... ... : ... .. . ... ... ... : ... .. . ... ... ... : ... .. . ... ... ...
ROW 2B : ... .. . ... ... ... : ... .. . ... ... ... : ... .. . ... ... ... : D-# 00 2 ... ... ... : ... .. . ... ... ... : ... .. . ... ... ... : ... .. . P7F ... ... : ... .. . ... ... ... : ... .. . ... ... ... : ... .. . ... ... ... : ... .. . ... ... ... : ... .. . ... ... ... : ... .. . ... ... ...
ROW 2C : ... .. . ... ... ... : ... .. . ... ... ... : ... .. . ... ... ... : ... .. 1 ... ... ... : ... .. . ... ... ... : ... .. . ... ... ... : ... .. . P7E ... ... : ... .. . ... ... ... : ... .. . ... ... ... : ... .. . ... ... ... : ... .. . ... ... ... : ... .. . ... ... ... : ... .. . ... ... ...
ROW 2D : ... .. . ... ... ... : ... .. . ... ... ... : ... .. . ... ... ... : ... .. . ... ... ... : ... .. . ... ... ... : ... .. . ... ... ... : B-2 05 . P82 ... ... : ... .. 2 ... ... ... : ... .. . ... ... ... : ... .. . ... ... ... : ... .. . ... ... ... : ... .. . ... ... ... : ... .. . ... ... ...
ROW 2E : ... .. . ... ... ... : ... .. . ... ... ... : ... .. . ... ... ... : --- .. . ... ... ... : ... .. . ... ... ... : --- .. . ... ... ... : --- .. . ... ... ... : --- .. . ... ... ... : --- .. . ... ... ... : ... .. . ... ... ... : ... .. . ... ... ... : ... .. . ... ... ... : ... .. . ... ... ...
ROW 2F : ... .. . ... ... ... : ... .. . ... ... ... : ... .. . ... ... ... : ... .. . ... ... ... : ... .. . ... ... ... : ... .. . ... ... ... : ... .. . P80 ... ... : ... .. . P80 ... ... : ... .. . P80 ... ... : ... .. . ... ... ... : ... .. . ... ... ... : ... .. . ... ... ... : ... .. . ... ... ...
ROW 30 : ... .. . ... ... ... : C-4 02 . P80 ... ... : C#4 00 . P7F ... ... : 9-# 00 F ... ... ... : C#1 12 . ... ... ... : C#3 05 A ... ... ... : C#3 05 A P83 ... ... : C#3 05 9 P7E ... ... : B-2 05 9 P81 ... ... : ... .. . ... ... ... : ... .. . ... ... ... : ... .. . ... ... ... : ... .. . ... ... ...
ROW 31 : ... .. . ... ... ... : F-3 02 . ... ... ... : F#3 00 . P83 ... ... : 2-# 00 7 ... ... ... : ... .. . ... ... ... : ... .. . ... ... ... : ... .. . P82 ... ... : ... .. . ... ... ... : ... .. . ... ... ... : ... .. . ... ... ... : ... .. . ... ... ... : ... .. . ... ... ... : ... .. . ... ... ...
ROW 32 : ... .. . ... ... ... : A#2 02 . P81 ... ... : C#3 00 . P89 ... ... : 6-# 00 C ... ... ... : ... .. . ... ... ... : ... .. . ... ... ... : ... .. . P83 ... ... : ... .. . ... ... ... : ... .. . ... ... ... : ... .. . ... ... ... : ... .. . ... ... ... : ... .. . ... ... ... : ... .. . ... ... ...
ROW 33 : ... .. . ... ... ... : D#2 02 . ... ... ... : A#2 00 . P75 ... ... : 7-# 00 8 ... ... ... : ... .. . ... ... ... : ... .. . ... ... ... : C-3 05 . P7E ... ... : ... .. . ... ... ... : ... .. . ... ... ... : ... .. . ... ... ... : ... .. . ... ... ... : ... .. . ... ... ... : ... .. . ... ... ...
ROW 34 : ... .. . ... ... ... : G#1 02 . ... ... ... : G-2 00 . P70 ... ... : 8-# 00 7 ... ... ... : ... .. . ... ... ... : --- .. . ... ... ... : --- .. . ... ... ... : --- .. . ... ... ... : --- .. . ... ... ... : ... .. . ... ... ... : ... .. . ... ... ... : ... .. . ... ... ... : ... .. . ... ... ...
ROW 35 : ... .. . ... ... ... : C#1 02 . ... ... ... : E-2 00 . P7C ... ... : ... .. 6 ... ... ... : ... .. . ... ... ... : ... .. . ... ... ... : ... .. . P80 ... ... : ... .. . P80 ... ... : ... .. . P80 ... ... : ... .. . ... ... ... : ... .. . ... ... ... : ... .. . ... ... ... : ... .. . ... ... ...
ROW 36 : ... .. . ... ... ... : ... .. . ... ... ... : --- .. . ... ... ... : ... .. . ... ... ... : ... .. . ... ... ... : C#3 05 4 ... ... ... : C#3 05 4 P83 ... ... : C#3 05 3 P7E ... ... : B-2 05 3 P81 ... ... : ... .. . ... ... ... : ... .. . ... ... ... : ... .. . ... ... ... : ... .. . ... ... ...
ROW 37 : ... .. . ... ... ... : ... .. . ... ... ... : ... .. . ... ... ... : ... .. 5 ... ... ... : ... .. . ... ... ... : ... .. . ... ... ... : C-3 05 . P7E ... ... : ... .. . ... ... ... : ... .. . ... ... ... : ... .. . ... ... ... : ... .. . ... ... ... : ... .. . ... ... ... : ... .. . ... ... ...
ROW 38 : ... .. . ... ... ... : ... .. . ... ... ... : ... .. . ... ... ... : ... .. . ... ... ... : ... .. . ... ... ... : ... .. . ... ... ... : ... .. . ... ... ... : ... .. . ... ... ... : ... .. . ... ... ... : ... .. . ... ... ... : ... .. . ... ... ... : ... .. . ... ... ... : ... .. . ... ... ...
ROW 39 : ... .. . ... ... ... : ... .. . ... ... ... : ... .. . ... ... ... : ... .. 4 ... ... ... : ... .. . ... ... ... : ... .. . ... ... ... : C#3 05 . P83 ... ... : ... .. . ... ... ... : ... .. . ... ... ... : ... .. . ... ... ... : ... .. . ... ... ... : ... .. . ... ... ... : ... .. . ... ... ...
ROW 3A : ... .. . ... ... ... : ... .. . ... ... ... : ... .. . ... ... ... : ... .. . ... ... ... : ... .. . ... ... ... : --- .. . ... ... ... : --- .. . ... ... ... : --- .. . ... ... ... : --- .. . ... ... ... : ... .. . ... ... ... : ... .. . ... ... ... : ... .. . ... ... ... : ... .. . ... ... ...
ROW 3B : ... .. . ... ... ... : ... .. . ... ... ... : ... .. . ... ... ... : ... .. 3 ... ... ... : ... .. . ... ... ... : ... .. . ... ... ... : ... .. . P80 ... ... : ... .. . P80 ... ... : ... .. . P80 ... ... : ... .. . ... ... ... : ... .. . ... ... ... : ... .. . ... ... ... : ... .. . ... ... ...
ROW 3C : ... .. . ... ... ... : ... .. . ... ... ... : ... .. . ... ... ... : D-# 00 A ... ... ... : ... .. . ... ... ... : G#3 05 A ... ... ... : G#3 05 A P84 ... ... : G#3 05 9 P7E ... ... : D#3 05 9 P81 ... ... : ... .. . ... ... ... : ... .. . ... ... ... : ... .. . ... ... ... : ... .. . ... ... ...
ROW 3D : ... .. . ... ... ... : ... .. . ... ... ... : ... .. . ... ... ... : E-# 00 4 ... ... ... : ... .. . ... ... ... : ... .. . ... ... ... : ... .. . P83 ... ... : ... .. . ... ... ... : ... .. . ... ... ... : ... .. . ... ... ... : ... .. . ... ... ... : ... .. . ... ... ... : ... .. . ... ... ...
ROW 3E : ... .. . ... ... ... : ... .. . ... ... ... : ... .. . ... ... ... : D-# 00 2 ... ... ... : ... .. . ... ... ... : ... .. . ... ... ... : ... .. . P82 ... ... : ... .. . ... ... ... : ... .. . ... ... ... : ... .. . ... ... ... : ... .. . ... ... ... : ... .. . ... ... ... : ... .. . ... ... ...
ROW 3F : ... .. . ... ... ... : ... .. . ... ... ... : ... .. . ... ... ... : ... .. 1 ... ... ... : ... .. . ... ... ... : ... .. . ... ... ... : ... .. . P83 ... ... : ... .. . ... ... ... : ... .. . ... ... ... : ... .. . ... ... ... : ... .. . ... ... ... : ... .. . ... ... ... : ... .. . ... ... ...
ROW 40 : ... .. . ... ... ... : ... .. . ... ... ... : ... .. . ... ... ... : ... .. . ... ... ... : ... .. . ... ... ... : --- .. . ... ... ... : --- .. . ... ... ... : --- .. . ... ... ... : --- .. . ... ... ... : ... .. . ... ... ... : ... .. . ... ... ... : ... .. . ... ... ... : ... .. . ... ... ...
ROW 41 : ... .. . ... ... ... : ... .. . ... ... ... : ... .. . ... ... ... : --- .. . ... ... ... : ... .. . ... ... ... : ... .. . ... ... ... : ... .. . P80 ... ... : ... .. . P80 ... ... : ... .. . P80 ... ... : ... .. . ... ... ... : ... .. . ... ... ... : ... .. . ... ... ... : ... .. . ... ... ...
ROW 42 : ... .. . ... ... ... : ... .. . ... ... ... : ... .. . ... ... ... : D-# 00 A ... ... ... : ... .. . ... ... ... : G#3 05 4 ... ... ... : G#3 05 . P82 ... ... : G#3 05 . P7E ... ... : D#3 05 . P81 ... ... : ... .. . ... ... ... : ... .. . ... ... ... : ... .. . ... ... ... : ... .. . ... ... ...
ROW 43 : ... .. . ... ... ... : ... .. . ... ... ... : ... .. . ... ... ... : E-# 00 4 ... ... ... : ... .. . ... ... ... : ... .. . ... ... ... : ... .. . P83 ... ... : ... .. . ... ... ... : ... .. . ... ... ... : ... .. . ... ... ... : ... .. . ... ... ... : ... .. . ... ... ... : ... .. . ... ... ...
ROW 44 : ... .. . ... ... ... : ... .. . ... ... ... : ... .. . ... ... ... : D-# 00 2 ... ... ... : ... .. . ... ... ... : ... .. . ... ... ... : ... .. . P84 ... ... : ... .. . ... ... ... : ... .. . ... ... ... : ... .. . ... ... ... : ... .. . ... ... ... : ... .. . ... ... ... : ... .. . ... ... ...
ROW 45 : ... .. . ... ... ... : ... .. . ... ... ... : ... .. . ... ... ... : ... .. 1 ... ... ... : ... .. . ... ... ... : ... .. . ... ... ... : ... .. . ... ... ... : ... .. . ... ... ... : ... .. . ... ... ... : ... .. . ... ... ... : ... .. . ... ... ... : ... .. . ... ... ... : ... .. . ... ... ...
ROW 46 : ... .. . ... ... ... : ... .. . ... ... ... : ... .. . ... ... ... : ... .. . ... ... ... : ... .. . ... ... ... : ... .. . ... ... ... : ... .. . P83 ... ... : ... .. 8 ... ... ... : ... .. . ... ... ... : ... .. . ... ... ... : ... .. . ... ... ... : ... .. . ... ... ... : ... .. . ... ... ...
ROW 47 : ... .. . ... ... ... : ... .. . ... ... ... : ... .. . ... ... ... : --- .. . ... ... ... : ... .. . ... ... ... : --- .. . ... ... ... : --- .. . ... ... ... : --- .. . ... ... ... : --- .. . ... ... ... : ... .. . ... ... ... : ... .. . ... ... ... : ... .. . ... ... ... : ... .. . ... ... ...
ROW 48 : ... .. . ... ... ... : ... .. . ... ... ... : ... .. . ... ... ... : ... .. . ... ... ... : ... .. . ... ... ... : ... .. . ... ... ... : ... .. . P80 ... ... : ... .. . P80 ... ... : ... .. . P80 ... ... : ... .. . ... ... ... : ... .. . ... ... ... : ... .. . ... ... ... : ... .. . ... ... ...
ROW 49 : ... .. . ... ... ... : C-4 02 . P80 ... ... : F#3 00 . P78 ... ... : 1-# 00 F ... ... ... : C-1 12 . ... ... ... : G#1 06 F ... ... ... : G-1 06 F ... ... ... : ... .. . ... ... ... : G#1 06 E P7F ... ... : G#2 06 B P81 ... ... : ... .. . ... ... ... : ... .. . ... ... ... : ... .. . ... ... ...
ROW 4A : ... .. . ... ... ... : F-3 02 . ... ... ... : C#3 00 . P7E ... ... : 2-# 00 7 ... ... ... : ... .. . ... ... ... : ... .. . ... ... ... : G#1 06 . P81 ... ... : ... .. . ... ... ... : ... .. . ... ... ... : ... .. . ... ... ... : ... .. . ... ... ... : ... .. . ... ... ... : ... .. . ... ... ...
ROW 4B : ... .. . ... ... ... : A#2 02 . P81 ... ... : A-2 00 . P86 ... ... : 1-# 00 4 ... ... ... : ... .. . ... ... ... : ... .. . ... ... ... : ... .. . P80 ... ... : ... .. . ... ... ... : ... .. . ... ... ... : ... .. . ... ... ... : ... .. . ... ... ... : ... .. . ... ... ... : ... .. . ... ... ...
ROW 4C : ... .. . ... ... ... : D#2 02 . ... ... ... : --- .. . ... ... ... : ... .. 2 ... ... ... : ... .. . ... ... ... : G#1 07 . ... ... ... : G#1 07 . P81 ... ... : ... .. . ... ... ... : G#1 07 . ... ... ... : G#2 07 . ... ... ... : ... .. . ... ... ... : ... .. . ... ... ... : ... .. . ... ... ...
ROW 4D : ... .. . ... ... ... : G#1 02 . ... ... ... : ... .. . ... ... ... : ... .. 1 ... ... ... : ... .. . ... ... ... : ... .. . ... ... ... : G-1 07 . P80 ... ... : ... .. . ... ... ... : ... .. . ... ... ... : ... .. A ... ... ... : ... .. . ... ... ... : ... .. . ... ... ... : ... .. . ... ... ...
ROW 4E : ... .. . ... ... ... : C#1 02 . ... ... ... : ... .. . ... ... ... : --- .. . ... ... ... : ... .. . ... ... ... : ... .. . ... ... ... : G#1 07 . P81 ... ... : ... .. . ... ... ... : ... .. . ... ... ... : ... .. . ... ... ... : ... .. . ... ... ... : ... .. . ... ... ... : ... .. . ... ... ...
ROW 4F : ... .. . ... ... ... : ... .. . ... ... ... : ... .. . ... ... ... : ... .. . ... ... ... : ... .. . ... ... ... : G#1 08 . ... ... ... : G#1 08 . P80 ... ... : ... .. . ... ... ... : G#1 08 . ... ... ... : G#2 08 . ... ... ... : ... .. . ... ... ... : ... .. . ... ... ... : ... .. . ... ... ...
ROW 50 : ... .. . ... ... ... : ... .. . ... ... ... : ... .. . ... ... ... : ... .. . ... ... ... : ... .. . ... ... ... : ... .. . ... ... ... : ... .. . P81 ... ... : ... .. . ... ... ... : ... .. . ... ... ... : ... .. . ... ... ... : ... .. . ... ... ... : ... .. . ... ... ... : ... .. . ... ... ...
ROW 51 : ... .. . ... ... ... : ... .. . ... ... ... : ... .. . ... ... ... : ... .. . ... ... ... : ... .. . ... ... ... : ... .. . ... ... ... : G-1 08 . P80 ... ... : ... .. . ... ... ... : ... .. D ... ... ... : ... .. 9 ... ... ... : ... .. . ... ... ... : ... .. . ... ... ... : ... .. . ... ... ...
ROW 52 : ... .. . ... ... ... : ... .. . ... ... ... : ... .. . ... ... ... : ... .. . ... ... ... : ... .. . ... ... ... : G#1 09 . ... ... ... : G#1 09 . P81 ... ... : ... .. . ... ... ... : G#1 09 . ... ... ... : G#2 09 . ... ... ... : ... .. . ... ... ... : ... .. . ... ... ... : ... .. . ... ... ...
ROW 53 : ... .. . ... ... ... : ... .. . ... ... ... : ... .. . ... ... ... : ... .. . ... ... ... : ... .. . ... ... ... : ... .. . ... ... ... : ... .. . P80 ... ... : ... .. . ... ... ... : ... .. . ... ... ... : ... .. . ... ... ... : ... .. . ... ... ... : ... .. . ... ... ... : ... .. . ... ... ...
ROW 54 : ... .. . ... ... ... : ... .. . ... ... ... : ... .. . ... ... ... : ... .. . ... ... ... : ... .. . ... ... ... : ... .. . ... ... ... : ... .. . P81 ... ... : ... .. . ... ... ... : ... .. . ... ... ... : ... .. . ... ... ... : ... .. . ... ... ... : ... .. . ... ... ... : ... .. . ... ... ...
ROW 55 : ... .. . ... ... ... : ... .. . ... ... ... : ... .. . ... ... ... : D-# 00 A ... ... ... : ... .. . ... ... ... : ... .. . ... ... ... : G-1 09 . P80 ... ... : ... .. . ... ... ... : ... .. . ... ... ... : ... .. 8 ... ... ... : ... .. . ... ... ... : ... .. . ... ... ... : ... .. . ... ... ...
ROW 56 : ... .. . ... ... ... : ... .. . ... ... ... : ... .. . ... ... ... : E-# 00 4 ... ... ... : ... .. . ... ... ... : ... .. . ... ... ... : ... .. . ... ... ... : ... .. . ... ... ... : ... .. . ... ... ... : ... .. . ... ... ... : ... .. . ... ... ... : ... .. . ... ... ... : ... .. . ... ... ...
ROW 57 : ... .. . ... ... ... : ... .. . ... ... ... : ... .. . ... ... ... : D-# 00 2 ... ... ... : ... .. . ... ... ... : ... .. . ... ... ... : G#1 09 . P81 ... ... : ... .. . ... ... ... : ... .. . ... ... ... : ... .. . ... ... ... : ... .. . ... ... ... : ... .. . ... ... ... : ... .. . ... ... ...
ROW 58 : ... .. . ... ... ... : ... .. . ... ... ... : ... .. . ... ... ... : ... .. 1 ... ... ... : ... .. . ... ... ... : G#1 08 . ... ... ... : G#1 08 . ... ... ... : ... .. . ... ... ... : G#1 08 . ... ... ... : G#2 08 . ... ... ... : ... .. . ... ... ... : ... .. . ... ... ... : ... .. . ... ... ...
ROW 59 : ... .. . ... ... ... : ... .. . ... ... ... : ... .. . ... ... ... : ... .. . ... ... ... : ... .. . ... ... ... : ... .. . ... ... ... : G-1 08 . P80 ... ... : ... .. . ... ... ... : ... .. C ... ... ... : ... .. 7 ... ... ... : ... .. . ... ... ... : ... .. . ... ... ... : ... .. . ... ... ...
ROW 5A : ... .. . ... ... ... : ... .. . ... ... ... : ... .. . ... ... ... : --- .. . ... ... ... : ... .. . ... ... ... : ... .. . ... ... ... : ... .. . ... ... ... : ... .. . ... ... ... : ... .. . ... ... ... : ... .. . ... ... ... : ... .. . ... ... ... : ... .. . ... ... ... : ... .. . ... ... ...
ROW 5B : ... .. . ... ... ... : ... .. . ... ... ... : ... .. . ... ... ... : D-# 00 A ... ... ... : ... .. . ... ... ... : G#1 07 . ... ... ... : G#1 07 . P81 ... ... : ... .. . ... ... ... : G#1 07 . ... ... ... : G#2 07 . ... ... ... : ... .. . ... ... ... : ... .. . ... ... ... : ... .. . ... ... ...
ROW 5C : ... .. . ... ... ... : ... .. . ... ... ... : ... .. . ... ... ... : E-# 00 4 ... ... ... : ... .. . ... ... ... : ... .. . ... ... ... : ... .. . P80 ... ... : ... .. . ... ... ... : ... .. . ... ... ... : ... .. . ... ... ... : ... .. . ... ... ... : ... .. . ... ... ... : ... .. . ... ... ...
ROW 5D : ... .. . ... ... ... : ... .. . ... ... ... : ... .. . ... ... ... : D-# 00 2 ... ... ... : ... .. . ... ... ... : ... .. . ... ... ... : ... .. . P81 ... ... : ... .. . ... ... ... : ... .. . ... ... ... : ... .. 6 ... ... ... : ... .. . ... ... ... : ... .. . ... ... ... : ... .. . ... ... ...
ROW 5E : ... .. . ... ... ... : ... .. . ... ... ... : ... .. . ... ... ... : ... .. 1 ... ... ... : ... .. . ... ... ... : G#1 06 . ... ... ... : G-1 06 . P80 ... ... : ... .. . ... ... ... : G#1 06 . ... ... ... : G#2 06 . ... ... ... : ... .. . ... ... ... : ... .. . ... ... ... : ... .. . ... ... ...
ROW 5F : ... .. . ... ... ... : ... .. . ... ... ... : ... .. . ... ... ... : ... .. . ... ... ... : ... .. . ... ... ... : ... .. . ... ... ... : G#1 06 . P81 ... ... : ... .. . ... ... ... : ... .. . ... ... ... : ... .. . ... ... ... : ... .. . ... ... ... : ... .. . ... ... ... : ... .. . ... ... ...
ROW 60 : ... .. . ... ... ... : ... .. . ... ... ... : ... .. . ... ... ... : --- .. . ... ... ... : ... .. . ... ... ... : ... .. . ... ... ... : ... .. . P80 ... ... : ... .. . ... ... ... : ... .. . ... ... ... : ... .. . ... ... ... : ... .. . ... ... ... : ... .. . ... ... ... : ... .. . ... ... ...
ROW 61 : ... .. . ... ... ... : ... .. . ... ... ... : ... .. . ... ... ... : ... .. . ... ... ... : ... .. . ... ... ... : ... .. . ... ... ... : ... .. . P81 ... ... : ... .. . ... ... ... : ... .. B ... ... ... : ... .. 5 ... ... ... : ... .. . ... ... ... : ... .. . ... ... ... : ... .. . ... ... ...
ROW 62 : ... .. . ... ... ... : C-4 02 . P80 ... ... : C#4 00 . P7F ... ... : 9-# 00 F ... ... ... : C#1 12 . ... ... ... : D-2 06 . ... ... ... : C#2 06 . P7F ... ... : ... .. . ... ... ... : D-2 06 . ... ... ... : D-3 06 . ... ... ... : ... .. . ... ... ... : ... .. . ... ... ... : ... .. . ... ... ...
ROW 63 : ... .. . ... ... ... : F-3 02 . ... ... ... : F#3 00 . P83 ... ... : 2-# 00 7 ... ... ... : ... .. . ... ... ... : ... .. . ... ... ... : D-2 06 . P81 ... ... : ... .. . ... ... ... : ... .. . ... ... ... : ... .. . ... ... ... : ... .. . ... ... ... : ... .. . ... ... ... : ... .. . ... ... ...
ROW 64 : ... .. . ... ... ... : A#2 02 . P81 ... ... : C#3 00 . P89 ... ... : 6-# 00 C ... ... ... : ... .. . ... ... ... : ... .. . ... ... ... : ... .. . P80 ... ... : ... .. . ... ... ... : ... .. . ... ... ... : ... .. . ... ... ... : ... .. . ... ... ... : ... .. . ... ... ... : ... .. . ... ... ...
ROW 65 : ... .. . ... ... ... : D#2 02 . ... ... ... : A#2 00 . P75 ... ... : 7-# 00 8 ... ... ... : ... .. . ... ... ... : D-2 08 . ... ... ... : D-2 08 . P81 ... ... : ... .. . ... ... ... : D-2 08 . ... ... ... : D-3 08 4 ... ... ... : ... .. . ... ... ... : ... .. . ... ... ... : ... .. . ... ... ...
ROW 66 : ... .. . ... ... ... : G#1 02 . ... ... ... : G-2 00 . P70 ... ... : 8-# 00 7 ... ... ... : ... .. . ... ... ... : ... .. . ... ... ... : ... .. . P82 ... ... : ... .. . ... ... ... : ... .. . ... ... ... : ... .. . ... ... ... : ... .. . ... ... ... : ... .. . ... ... ... : ... .. . ... ... ...
ROW 67 : ... .. . ... ... ... : C#1 02 . ... ... ... : E-2 00 . P7C ... ... : ... .. 6 ... ... ... : ... .. . ... ... ... : ... .. . ... ... ... : ... .. . ... ... ... : ... .. . ... ... ... : ... .. . ... ... ... : ... .. . ... ... ... : ... .. . ... ... ... : ... .. . ... ... ... : ... .. . ... ... ...
ROW 68 : ... .. . ... ... ... : ... .. . ... ... ... : --- .. . ... ... ... : ... .. . ... ... ... : ... .. . ... ... ... : D-2 09 . ... ... ... : D-2 09 . P81 ... ... : ... .. . ... ... ... : D-2 09 . ... ... ... : D-3 09 . ... ... ... : ... .. . ... ... ... : ... .. . ... ... ... : ... .. . ... ... ...
ROW 69 : ... .. . ... ... ... : ... .. . ... ... ... : ... .. . ... ... ... : ... .. 5 ... ... ... : ... .. . ... ... ... : ... .. . ... ... ... : ... .. . ... ... ... : ... .. . ... ... ... : ... .. A ... ... ... : ... .. 3 ... ... ... : ... .. . ... ... ... : ... .. . ... ... ... : ... .. . ... ... ...
ROW 6A : ... .. . ... ... ... : ... .. . ... ... ... : ... .. . ... ... ... : ... .. . ... ... ... : ... .. . ... ... ... : ... .. . ... ... ... : ... .. . P82 ... ... : ... .. . ... ... ... : ... .. . ... ... ... : ... .. . ... ... ... : ... .. . ... ... ... : ... .. . ... ... ... : ... .. . ... ... ...
ROW 6B : ... .. . ... ... ... : ... .. . ... ... ... : ... .. . ... ... ... : ... .. 4 ... ... ... : ... .. . ... ... ... : D-2 07 . ... ... ... : C#2 07 . P7F ... ... : ... .. . ... ... ... : D-2 07 . ... ... ... : D-3 07 . ... ... ... : ... .. . ... ... ... : ... .. . ... ... ... : ... .. . ... ... ...
ROW 6C : ... .. . ... ... ... : ... .. . ... ... ... : ... .. . ... ... ... : ... .. . ... ... ... : ... .. . ... ... ... : ... .. . ... ... ... : D-2 07 . P81 ... ... : ... .. . ... ... ... : ... .. . ... ... ... : ... .. . ... ... ... : ... .. . ... ... ... : ... .. . ... ... ... : ... .. . ... ... ...
ROW 6D : ... .. . ... ... ... : ... .. . ... ... ... : ... .. . ... ... ... : ... .. 3 ... ... ... : ... .. . ... ... ... : ... .. . ... ... ... : ... .. . P80 ... ... : ... .. . ... ... ... : ... .. . ... ... ... : ... .. 2 ... ... ... : ... .. . ... ... ... : ... .. . ... ... ... : ... .. . ... ... ...
ROW 6E : ... .. . ... ... ... : ... .. . ... ... ... : ... .. . ... ... ... : D-# 00 A ... ... ... : ... .. . ... ... ... : D-2 06 . ... ... ... : D-2 06 . P81 ... ... : ... .. . ... ... ... : D-2 06 . ... ... ... : D-3 06 . ... ... ... : ... .. . ... ... ... : ... .. . ... ... ... : ... .. . ... ... ...
ROW 6F : ... .. . ... ... ... : ... .. . ... ... ... : ... .. . ... ... ... : E-# 00 4 ... ... ... : ... .. . ... ... ... : ... .. . ... ... ... : C#2 06 . P7F ... ... : ... .. . ... ... ... : ... .. . ... ... ... : ... .. . ... ... ... : ... .. . ... ... ... : ... .. . ... ... ... : ... .. . ... ... ...
ROW 70 : ... .. . ... ... ... : ... .. . ... ... ... : ... .. . ... ... ... : D-# 00 2 ... ... ... : ... .. . ... ... ... : ... .. . ... ... ... : D-2 06 . P81 ... ... : ... .. . ... ... ... : ... .. . ... ... ... : ... .. . ... ... ... : ... .. . ... ... ... : ... .. . ... ... ... : ... .. . ... ... ...
ROW 71 : ... .. . ... ... ... : ... .. . ... ... ... : ... .. . ... ... ... : ... .. 1 ... ... ... : ... .. . ... ... ... : D-2 08 . ... ... ... : D-2 08 . P80 ... ... : ... .. . ... ... ... : D-2 08 9 ... ... ... : D-3 08 1 ... ... ... : ... .. . ... ... ... : ... .. . ... ... ... : ... .. . ... ... ...
ROW 72 : ... .. . ... ... ... : ... .. . ... ... ... : ... .. . ... ... ... : ... .. . ... ... ... : ... .. . ... ... ... : ... .. . ... ... ... : ... .. . P81 ... ... : ... .. . ... ... ... : ... .. . ... ... ... : ... .. . ... ... ... : ... .. . ... ... ... : ... .. . ... ... ... : ... .. . ... ... ...
ROW 73 : ... .. . ... ... ... : ... .. . ... ... ... : ... .. . ... ... ... : --- .. . ... ... ... : ... .. . ... ... ... : ... .. . ... ... ... : C#2 08 . P7F ... ... : ... .. . ... ... ... : ... .. . ... ... ... : ... .. . ... ... ... : ... .. . ... ... ... : ... .. . ... ... ... : ... .. . ... ... ...
ROW 74 : ... .. . ... ... ... : ... .. . ... ... ... : ... .. . ... ... ... : D-# 00 A ... ... ... : ... .. . ... ... ... : D-2 09 . ... ... ... : D-2 09 . P81 ... ... : ... .. . ... ... ... : D-2 09 . ... ... ... : D-3 09 . ... ... ... : ... .. . ... ... ... : ... .. . ... ... ... : ... .. . ... ... ...
ROW 75 : ... .. . ... ... ... : ... .. . ... ... ... : ... .. . ... ... ... : E-# 00 4 ... ... ... : ... .. . ... ... ... : ... .. . ... ... ... : ... .. . P80 ... ... : ... .. . ... ... ... : ... .. . ... ... ... : --- .. . ... ... ... : ... .. . ... ... ... : ... .. . ... ... ... : ... .. . ... ... ...
ROW 76 : ... .. . ... ... ... : ... .. . ... ... ... : ... .. . ... ... ... : D-# 00 2 ... ... ... : ... .. . ... ... ... : ... .. . ... ... ... : ... .. . P81 ... ... : ... .. . ... ... ... : ... .. . ... ... ... : ... .. . P80 ... ... : ... .. . ... ... ... : ... .. . ... ... ... : ... .. . ... ... ...
ROW 77 : ... .. . ... ... ... : ... .. . ... ... ... : ... .. . ... ... ... : ... .. 1 ... ... ... : ... .. . ... ... ... : D-2 07 . ... ... ... : D-2 07 . P82 ... ... : ... .. . ... ... ... : D-2 07 . ... ... ... : ... .. . ... ... ... : ... .. . ... ... ... : ... .. . ... ... ... : ... .. . ... ... ...
ROW 78 : ... .. . ... ... ... : ... .. . ... ... ... : ... .. . ... ... ... : ... .. . ... ... ... : ... .. . ... ... ... : ... .. . ... ... ... : ... .. . ... ... ... : ... .. . ... ... ... : ... .. . ... ... ... : ... .. . ... ... ... : ... .. . ... ... ... : ... .. . ... ... ... : ... .. . ... ... ...
ROW 79 : ... .. . ... ... ... : ... .. . ... ... ... : ... .. . ... ... ... : --- .. . ... ... ... : ... .. . ... ... ... : ... .. . ... ... ... : ... .. . P81 ... ... : ... .. . ... ... ... : ... .. 8 ... ... ... : ... .. . ... ... ... : ... .. . ... ... ... : ... .. . ... ... ... : ... .. . ... ... ...
ROW 7A : ... .. . ... ... ... : ... .. . ... ... ... : ... .. . ... ... ... : ... .. . ... ... ... : ... .. . ... ... ... : ... .. . ... ... ... : ... .. . P80 ... ... : ... .. . ... ... ... : ... .. . ... ... ... : ... .. . ... ... ... : ... .. . ... ... ... : ... .. . ... ... ... : ... .. . ... ... ...
ROW 7B : ... .. . ... ... ... : C-4 02 . P80 ... ... : F#3 00 . P78 ... ... : 1-# 00 F ... ... ... : C-1 12 . ... ... ... : C#2 06 . ... ... ... : C#2 06 . P81 ... ... : ... .. . ... ... ... : C#2 06 . ... ... ... : ... .. . ... ... ... : ... .. . ... ... ... : ... .. . ... ... ... : ... .. . ... ... ...
ROW 7C : ... .. . ... ... ... : F-3 02 . ... ... ... : C#3 00 . P7E ... ... : 2-# 00 7 ... ... ... : ... .. . ... ... ... : ... .. . ... ... ... : C-2 06 . P7F ... ... : ... .. . ... ... ... : ... .. . ... ... ... : ... .. . ... ... ... : ... .. . ... ... ... : ... .. . ... ... ... : ... .. . ... ... ...
ROW 7D : ... .. . ... ... ... : A#2 02 . P81 ... ... : A-2 00 . P86 ... ... : 1-# 00 4 ... ... ... : ... .. . ... ... ... : ... .. . ... ... ... : C#2 06 . P81 ... ... : ... .. . ... ... ... : ... .. . ... ... ... : ... .. . ... ... ... : ... .. . ... ... ... : ... .. . ... ... ... : ... .. . ... ... ...
ROW 7E : ... .. . ... ... ... : D#2 02 . ... ... ... : --- .. . ... ... ... : ... .. 2 ... ... ... : ... .. . ... ... ... : C#2 09 . ... ... ... : C#2 09 . P80 ... ... : ... .. . ... ... ... : C#2 09 . ... ... ... : ... .. . ... ... ... : ... .. . ... ... ... : ... .. . ... ... ... : ... .. . ... ... ...
ROW 7F : ... .. . ... ... ... : G#1 02 . ... ... ... : ... .. . ... ... ... : ... .. 1 ... ... ... : ... .. . ... ... ... : ... .. . ... ... ... : ... .. . P81 ... ... : ... .. . ... ... ... : ... .. . ... ... ... : ... .. . ... ... ... : ... .. . ... ... ... : ... .. . ... ... ... : ... .. . ... ... ...
ROW 80 : ... .. . ... ... ... : C#1 02 . ... ... ... : ... .. . ... ... ... : --- .. . ... ... ... : ... .. . ... ... ... : ... .. . ... ... ... : C-2 09 . P7F ... ... : ... .. . ... ... ... : ... .. . ... ... ... : ... .. . ... ... ... : ... .. . ... ... ... : ... .. . ... ... ... : ... .. . ... ... ...
ROW 81 : ... .. . ... ... ... : ... .. . ... ... ... : ... .. . ... ... ... : ... .. . ... ... ... : ... .. . ... ... ... : C#2 06 . ... ... ... : C#2 06 . P81 ... ... : ... .. . ... ... ... : C#2 06 7 ... ... ... : ... .. . ... ... ... : ... .. . ... ... ... : ... .. . ... ... ... : ... .. . ... ... ...
ROW 82 : ... .. . ... ... ... : ... .. . ... ... ... : ... .. . ... ... ... : ... .. . ... ... ... : ... .. . ... ... ... : ... .. . ... ... ... : ... .. . P80 ... ... : ... .. . ... ... ... : ... .. . ... ... ... : ... .. . ... ... ... : ... .. . ... ... ... : ... .. . ... ... ... : ... .. . ... ... ...
ROW 83 : ... .. . ... ... ... : ... .. . ... ... ... : ... .. . ... ... ... : ... .. . ... ... ... : ... .. . ... ... ... : ... .. . ... ... ... : ... .. . P81 ... ... : ... .. . ... ... ... : ... .. . ... ... ... : ... .. . ... ... ... : ... .. . ... ... ... : ... .. . ... ... ... : ... .. . ... ... ...
ROW 84 : ... .. . ... ... ... : ... .. . ... ... ... : ... .. . ... ... ... : ... .. . ... ... ... : ... .. . ... ... ... : C#2 09 . ... ... ... : C-2 09 . P7F ... ... : ... .. . ... ... ... : C#2 09 . ... ... ... : ... .. . ... ... ... : ... .. . ... ... ... : ... .. . ... ... ... : ... .. . ... ... ...
ROW 85 : ... .. . ... ... ... : ... .. . ... ... ... : ... .. . ... ... ... : ... .. . ... ... ... : ... .. . ... ... ... : ... .. . ... ... ... : C#2 09 . P82 ... ... : ... .. . ... ... ... : ... .. . ... ... ... : ... .. . ... ... ... : ... .. . ... ... ... : ... .. . ... ... ... : ... .. . ... ... ...
ROW 86 : ... .. . ... ... ... : ... .. . ... ... ... : ... .. . ... ... ... : ... .. . ... ... ... : ... .. . ... ... ... : ... .. . ... ... ... : ... .. . P81 ... ... : ... .. . ... ... ... : ... .. . ... ... ... : ... .. . ... ... ... : ... .. . ... ... ... : ... .. . ... ... ... : ... .. . ... ... ...
ROW 87 : ... .. . ... ... ... : ... .. . ... ... ... : ... .. . ... ... ... : D-# 00 A ... ... ... : ... .. . ... ... ... : C#2 06 . ... ... ... : C#2 06 . ... ... ... : ... .. . ... ... ... : C#2 06 . ... ... ... : ... .. . ... ... ... : ... .. . ... ... ... : ... .. . ... ... ... : ... .. . ... ... ...
ROW 88 : ... .. . ... ... ... : ... .. . ... ... ... : ... .. . ... ... ... : E-# 00 4 ... ... ... : ... .. . ... ... ... : ... .. . ... ... ... : ... .. . P82 ... ... : ... .. . ... ... ... : ... .. . ... ... ... : ... .. . ... ... ... : ... .. . ... ... ... : ... .. . ... ... ... : ... .. . ... ... ...
ROW 89 : ... .. . ... ... ... : ... .. . ... ... ... : ... .. . ... ... ... : D-# 00 2 ... ... ... : ... .. . ... ... ... : ... .. . ... ... ... : ... .. . ... ... ... : ... .. . ... ... ... : ... .. 6 ... ... ... : ... .. . ... ... ... : ... .. . ... ... ... : ... .. . ... ... ... : ... .. . ... ... ...
ROW 8A : ... .. . ... ... ... : ... .. . ... ... ... : ... .. . ... ... ... : ... .. 1 ... ... ... : ... .. . ... ... ... : C#2 09 . ... ... ... : C#2 09 . P81 ... ... : ... .. . ... ... ... : C#2 09 . ... ... ... : ... .. . ... ... ... : ... .. . ... ... ... : ... .. . ... ... ... : ... .. . ... ... ...
ROW 8B : ... .. . ... ... ... : ... .. . ... ... ... : ... .. . ... ... ... : ... .. . ... ... ... : ... .. . ... ... ... : ... .. . ... ... ... : ... .. . P80 ... ... : ... .. . ... ... ... : ... .. . ... ... ... : ... .. . ... ... ... : ... .. . ... ... ... : ... .. . ... ... ... : ... .. . ... ... ...
ROW 8C : ... .. . ... ... ... : ... .. . ... ... ... : ... .. . ... ... ... : --- .. . ... ... ... : ... .. . ... ... ... : ... .. . ... ... ... : ... .. . P81 ... ... : ... .. . ... ... ... : ... .. . ... ... ... : ... .. . ... ... ... : ... .. . ... ... ... : ... .. . ... ... ... : ... .. . ... ... ...
ROW 8D : ... .. . ... ... ... : ... .. . ... ... ... : ... .. . ... ... ... : D-# 00 A ... ... ... : ... .. . ... ... ... : C#2 06 . ... ... ... : C-2 06 . P7F ... ... : ... .. . ... ... ... : C#2 06 . ... ... ... : ... .. . ... ... ... : ... .. . ... ... ... : ... .. . ... ... ... : ... .. . ... ... ...
ROW 8E : ... .. . ... ... ... : ... .. . ... ... ... : ... .. . ... ... ... : E-# 00 4 ... ... ... : ... .. . ... ... ... : ... .. . ... ... ... : C#2 06 . P81 ... ... : ... .. . ... ... ... : ... .. . ... ... ... : ... .. . ... ... ... : ... .. . ... ... ... : ... .. . ... ... ... : ... .. . ... ... ...
ROW 8F : ... .. . ... ... ... : ... .. . ... ... ... : ... .. . ... ... ... : D-# 00 2 ... ... ... : ... .. . ... ... ... : ... .. . ... ... ... : ... .. . P80 ... ... : ... .. . ... ... ... : ... .. . ... ... ... : ... .. . ... ... ... : ... .. . ... ... ... : ... .. . ... ... ... : ... .. . ... ... ...
ROW 90 : ... .. . ... ... ... : ... .. . ... ... ... : ... .. . ... ... ... : ... .. 1 ... ... ... : ... .. . ... ... ... : C#2 09 . ... ... ... : C#2 09 . P81 ... ... : ... .. . ... ... ... : C#2 09 . ... ... ... : ... .. . ... ... ... : ... .. . ... ... ... : ... .. . ... ... ... : ... .. . ... ... ...
ROW 91 : ... .. . ... ... ... : ... .. . ... ... ... : ... .. . ... ... ... : ... .. . ... ... ... : ... .. . ... ... ... : ... .. . ... ... ... : C-2 09 . P7F ... ... : ... .. . ... ... ... : ... .. 5 ... ... ... : ... .. . ... ... ... : ... .. . ... ... ... : ... .. . ... ... ... : ... .. . ... ... ...
ROW 92 : ... .. . ... ... ... : ... .. . ... ... ... : ... .. . ... ... ... : --- .. . ... ... ... : ... .. . ... ... ... : ... .. . ... ... ... : C#2 09 . P81 ... ... : ... .. . ... ... ... : ... .. . ... ... ... : ... .. . ... ... ... : ... .. . ... ... ... : ... .. . ... ... ... : ... .. . ... ... ...
ROW 93 : ... .. . ... ... ... : ... .. . ... ... ... : ... .. . ... ... ... : ... .. . ... ... ... : ... .. . ... ... ... : ... .. . ... ... ... : ... .. . P80 ... ... : ... .. . ... ... ... : ... .. . ... ... ... : ... .. . ... ... ... : ... .. . ... ... ... : ... .. . ... ... ... : ... .. . ... ... ...
ROW 94 : ... .. . ... ... ... : C-4 02 . P80 ... ... : C#4 00 . P7F ... ... : 9-# 00 F ... ... ... : C#1 12 . ... ... ... : F#1 06 . ... ... ... : F#1 06 . P81 ... ... : ... .. . ... ... ... : F#1 06 . ... ... ... : ... .. . ... ... ... : ... .. . ... ... ... : ... .. . ... ... ... : ... .. . ... ... ...
ROW 95 : ... .. . ... ... ... : F-3 02 . ... ... ... : F#3 00 . P83 ... ... : 2-# 00 7 ... ... ... : ... .. . ... ... ... : ... .. . ... ... ... : F-1 06 . P80 ... ... : ... .. . ... ... ... : ... .. . ... ... ... : ... .. . ... ... ... : ... .. . ... ... ... : ... .. . ... ... ... : ... .. . ... ... ...
ROW 96 : ... .. . ... ... ... : A#2 02 . P81 ... ... : C#3 00 . P89 ... ... : 6-# 00 C ... ... ... : ... .. . ... ... ... : ... .. . ... ... ... : ... .. . ... ... ... : ... .. . ... ... ... : ... .. . ... ... ... : ... .. . ... ... ... : ... .. . ... ... ... : ... .. . ... ... ... : ... .. . ... ... ...
ROW 97 : ... .. . ... ... ... : D#2 02 . ... ... ... : A#2 00 . P75 ... ... : 7-# 00 8 ... ... ... : ... .. . ... ... ... : ... .. . ... ... ... : F#1 06 . P81 ... ... : ... .. . ... ... ... : ... .. . ... ... ... : ... .. . ... ... ... : ... .. . ... ... ... : ... .. . ... ... ... : ... .. . ... ... ...
ROW 98 : ... .. . ... ... ... : G#1 02 . ... ... ... : G-2 00 . P70 ... ... : 8-# 00 7 ... ... ... : ... .. . ... ... ... : ... .. . ... ... ... : ... .. . ... ... ... : ... .. . ... ... ... : ... .. . ... ... ... : ... .. . ... ... ... : ... .. . ... ... ... : ... .. . ... ... ... : ... .. . ... ... ...
ROW 99 : ... .. . ... ... ... : C#1 02 . ... ... ... : E-2 00 . P7C ... ... : ... .. 6 ... ... ... : ... .. . ... ... ... : ... .. . ... ... ... : F-1 06 . P80 ... ... : ... .. . ... ... ... : ... .. 4 ... ... ... : ... .. . ... ... ... : ... .. . ... ... ... : ... .. . ... ... ... : ... .. . ... ... ...
ROW 9A : ... .. . ... ... ... : ... .. . ... ... ... : --- .. . ... ... ... : ... .. . ... ... ... : ... .. . ... ... ... : F#1 07 . ... ... ... : F-1 07 . ... ... ... : ... .. . ... ... ... : F#1 07 . ... ... ... : ... .. . ... ... ... : ... .. . ... ... ... : ... .. . ... ... ... : ... .. . ... ... ...
ROW 9B : ... .. . ... ... ... : ... .. . ... ... ... : ... .. . ... ... ... : ... .. 5 ... ... ... : ... .. . ... ... ... : ... .. . ... ... ... : F#1 07 . P81 ... ... : ... .. . ... ... ... : ... .. . ... ... ... : ... .. . ... ... ... : ... .. . ... ... ... : ... .. . ... ... ... : ... .. . ... ... ...
ROW 9C : ... .. . ... ... ... : ... .. . ... ... ... : ... .. . ... ... ... : ... .. . ... ... ... : ... .. . ... ... ... : ... .. . ... ... ... : ... .. . P80 ... ... : ... .. . ... ... ... : ... .. . ... ... ... : ... .. . ... ... ... : ... .. . ... ... ... : ... .. . ... ... ... : ... .. . ... ... ...
ROW 9D : ... .. . ... ... ... : ... .. . ... ... ... : ... .. . ... ... ... : ... .. 4 ... ... ... : ... .. . ... ... ... : F-1 07 . ... ... ... : F-1 07 . P81 ... ... : ... .. . ... ... ... : ... .. . P81 ... ... : ... .. . ... ... ... : ... .. . ... ... ... : ... .. . ... ... ... : ... .. . ... ... ...
ROW 9E : ... .. . ... ... ... : ... .. . ... ... ... : ... .. . ... ... ... : ... .. . ... ... ... : ... .. . ... ... ... : E-1 07 . ... ... ... : D#1 07 . P80 ... ... : ... .. . ... ... ... : F-1 07 . ... ... ... : ... .. . ... ... ... : ... .. . ... ... ... : ... .. . ... ... ... : ... .. . ... ... ...
ROW 9F : ... .. . ... ... ... : ... .. . ... ... ... : ... .. . ... ... ... : ... .. 3 ... ... ... : ... .. . ... ... ... : D#1 07 . ... ... ... : D-1 07 . ... ... ... : ... .. . ... ... ... : E-1 07 . ... ... ... : ... .. . ... ... ... : ... .. . ... ... ... : ... .. . ... ... ... : ... .. . ... ... ...
ROW A0 : ... .. . ... ... ... : ... .. . ... ... ... : ... .. . ... ... ... : 6-# 01 F ... ... ... : ... .. . ... ... ... : D-1 08 . P81 ... ... : D-1 08 . P81 ... ... : ... .. . ... ... ... : D-1 08 . P80 ... ... : ... .. . ... ... ... : ... .. . ... ... ... : ... .. . ... ... ... : ... .. . ... ... ...
ROW A1 : ... .. . ... ... ... : ... .. . ... ... ... : ... .. . ... ... ... : ... .. 9 ... ... ... : ... .. . ... ... ... : C#1 08 . ... ... ... : C-1 08 . P80 ... ... : ... .. . ... ... ... : C#1 08 3 ... ... ... : ... .. . ... ... ... : ... .. . ... ... ... : ... .. . ... ... ... : ... .. . ... ... ...
ROW A2 : ... .. . ... ... ... : ... .. . ... ... ... : ... .. . ... ... ... : ... .. 4 ... ... ... : ... .. . ... ... ... : B-0 08 . P80 ... ... : A#0 08 . ... ... ... : ... .. . ... ... ... : C-1 08 . ... ... ... : ... .. . ... ... ... : ... .. . ... ... ... : ... .. . ... ... ... : ... .. . ... ... ...
ROW A3 : ... .. . ... ... ... : ... .. . ... ... ... : ... .. . ... ... ... : ... .. 7 ... ... ... : ... .. . ... ... ... : A#0 08 . ... ... ... : A-0 08 . ... ... ... : ... .. . ... ... ... : B-0 08 . P81 ... ... : ... .. . ... ... ... : ... .. . ... ... ... : ... .. . ... ... ... : ... .. . ... ... ...
ROW A4 : ... .. . ... ... ... : ... .. . ... ... ... : ... .. . ... ... ... : ... .. 5 ... ... ... : ... .. . ... ... ... : A-0 08 . P81 ... ... : ... .. . P81 ... ... : ... .. . ... ... ... : A-0 08 . P80 ... ... : ... .. . ... ... ... : ... .. . ... ... ... : ... .. . ... ... ... : ... .. . ... ... ...
ROW A5 : ... .. . ... ... ... : ... .. . ... ... ... : ... .. . ... ... ... : ... .. . ... ... ... : ... .. . ... ... ... : G-0 08 . ... ... ... : F#0 08 . P80 ... ... : ... .. . ... ... ... : G#0 08 . P81 ... ... : ... .. . ... ... ... : ... .. . ... ... ... : ... .. . ... ... ... : ... .. . ... ... ...
ROW A6 : ... .. . ... ... ... : ... .. . ... ... ... : ... .. . ... ... ... : ... .. 4 ... ... ... : ... .. . ... ... ... : F-0 09 . P80 ... ... : E-0 09 . P81 ... ... : ... .. . ... ... ... : F#0 09 . P80 ... ... : ... .. . ... ... ... : ... .. . ... ... ... : ... .. . ... ... ... : ... .. . ... ... ...
ROW A7 : ... .. . ... ... ... : ... .. . ... ... ... : ... .. . ... ... ... : ... .. . ... ... ... : ... .. . ... ... ... : D#0 09 . ... ... ... : C#0 09 . P80 ... ... : ... .. . ... ... ... : E-0 09 . ... ... ... : ... .. . ... ... ... : ... .. . ... ... ... : ... .. . ... ... ... : ... .. . ... ... ...
ROW A8 : ... .. . ... ... ... : ... .. . ... ... ... : ... .. . ... ... ... : ... .. 3 ... ... ... : ... .. . ... ... ... : C#0 09 . P81 ... ... : C-0 09 . ... ... ... : ... .. . ... ... ... : D-0 09 . ... ... ... : ... .. . ... ... ... : ... .. . ... ... ... : ... .. . ... ... ... : ... .. . ... ... ...
ROW A9 : ... .. . ... ... ... : ... .. . ... ... ... : ... .. . ... ... ... : ... .. 2 ... ... ... : ... .. . ... ... ... : C-0 09 . P82 ... ... : ... .. . P82 ... ... : ... .. . ... ... ... : C-0 09 2 P81 ... ... : ... .. . ... ... ... : ... .. . ... ... ... : ... .. . ... ... ... : ... .. . ... ... ...
ROW AA : ... .. . ... ... ... : ... .. . ... ... ... : ... .. . ... ... ... : ... .. . ... ... ... : ... .. . ... ... ... : ... .. . P84 ... ... : ... .. . P85 ... ... : ... .. . ... ... ... : ... .. . P83 ... ... : ... .. . ... ... ... : ... .. . ... ... ... : ... .. . ... ... ... : ... .. . ... ... ...
ROW AB : ... .. . ... ... ... : ... .. . ... ... ... : ... .. . ... ... ... : ... .. 1 ... ... ... : ... .. . ... ... ... : ... .. . P86 ... ... : --- .. . P7A ... ... : ... .. . ... ... ... : ... .. . P85 ... ... : ... .. . ... ... ... : ... .. . ... ... ... : ... .. . ... ... ... : ... .. . ... ... ...
ROW AC : ... .. . ... ... ... : ... .. . ... ... ... : ... .. . ... ... ... : ... .. . ... ... ... : ... .. . ... ... ... : --- .. . P7A ... ... : ... .. . P7B ... ... : ... .. . ... ... ... : ... .. . P87 ... ... : ... .. . ... ... ... : ... .. . ... ... ... : ... .. . ... ... ... : ... .. . ... ... ...
ROW AD : ... .. . ... ... ... : C-4 02 . P80 ... ... : F#3 00 . P78 ... ... : 1-# 00 F ... ... ... : C-1 12 . ... ... ... : G-4 04 A P78 ... ... : A-4 04 A P80 ... ... : ... .. . ... ... ... : F#4 04 9 P89 ... ... : G-4 04 9 P81 ... ... : ... .. . ... ... ... : ... .. . ... ... ... : ... .. . ... ... ...
ROW AE : ... .. . ... ... ... : F-3 02 . ... ... ... : C#3 00 . P7E ... ... : 2-# 00 7 ... ... ... : ... .. . ... ... ... : G#4 04 . P84 ... ... : ... .. . P81 ... ... : ... .. . ... ... ... : ... .. . P81 ... ... : ... .. . ... ... ... : ... .. . ... ... ... : ... .. . ... ... ... : ... .. . ... ... ...
ROW AF : ... .. . ... ... ... : A#2 02 . P81 ... ... : A-2 00 . P86 ... ... : 1-# 00 4 ... ... ... : ... .. . ... ... ... : ... .. . P7C ... ... : ... .. . P82 ... ... : ... .. . ... ... ... : ... .. . P79 ... ... : ... .. . ... ... ... : ... .. . ... ... ... : ... .. . ... ... ... : ... .. . ... ... ...
ROW B0 : ... .. . ... ... ... : D#2 02 . ... ... ... : --- .. . ... ... ... : ... .. 2 ... ... ... : ... .. . ... ... ... : --- .. . ... ... ... : --- .. . ... ... ... : ... .. . ... ... ... : --- .. . ... ... ... : --- .. . ... ... ... : ... .. . ... ... ... : ... .. . ... ... ... : ... .. . ... ... ...
ROW B1 : ... .. . ... ... ... : G#1 02 . ... ... ... : ... .. . ... ... ... : ... .. 1 ... ... ... : ... .. . ... ... ... : ... .. . P80 ... ... : ... .. . P80 ... ... : ... .. . ... ... ... : ... .. . P80 ... ... : ... .. . P80 ... ... : ... .. . ... ... ... : ... .. . ... ... ... : ... .. . ... ... ...
ROW B2 : ... .. . ... ... ... : C#1 02 . ... ... ... : ... .. . ... ... ... : --- .. . ... ... ... : ... .. . ... ... ... : ... .. . ... ... ... : ... .. . ... ... ... : ... .. . ... ... ... : ... .. . ... ... ... : ... .. . ... ... ... : ... .. . ... ... ... : ... .. . ... ... ... : ... .. . ... ... ...
ROW B3 : ... .. . ... ... ... : ... .. . ... ... ... : ... .. . ... ... ... : 1-# 00 F ... ... ... : C-1 12 . ... ... ... : A-4 04 . P7A ... ... : A-4 04 . P84 ... ... : ... .. . ... ... ... : G#4 04 . P88 ... ... : G-4 04 . P83 ... ... : ... .. . ... ... ... : ... .. . ... ... ... : ... .. . ... ... ...
ROW B4 : ... .. . ... ... ... : ... .. . ... ... ... : ... .. . ... ... ... : 2-# 00 7 ... ... ... : ... .. . ... ... ... : ... .. . P7C ... ... : ... .. . P85 ... ... : ... .. . ... ... ... : ... .. . P8A ... ... : ... .. . P85 ... ... : ... .. . ... ... ... : ... .. . ... ... ... : ... .. . ... ... ...
ROW B5 : ... .. . ... ... ... : ... .. . ... ... ... : ... .. . ... ... ... : 1-# 00 4 ... ... ... : ... .. . ... ... ... : ... .. . P7E ... ... : ... .. . P86 ... ... : ... .. . ... ... ... : G-4 04 . P79 ... ... : ... .. . P87 ... ... : ... .. . ... ... ... : ... .. . ... ... ... : ... .. . ... ... ...
ROW B6 : ... .. . ... ... ... : ... .. . ... ... ... : ... .. . ... ... ... : ... .. 2 ... ... ... : ... .. . ... ... ... : --- .. . ... ... ... : --- .. . ... ... ... : ... .. . ... ... ... : --- .. . ... ... ... : --- .. . ... ... ... : ... .. . ... ... ... : ... .. . ... ... ... : ... .. . ... ... ...
ROW B7 : ... .. . ... ... ... : ... .. . ... ... ... : ... .. . ... ... ... : ... .. 1 ... ... ... : ... .. . ... ... ... : ... .. . P80 ... ... : ... .. . P80 ... ... : ... .. . ... ... ... : ... .. . P80 ... ... : ... .. . P80 ... ... : ... .. . ... ... ... : ... .. . ... ... ... : ... .. . ... ... ...
ROW B8 : ... .. . ... ... ... : ... .. . ... ... ... : ... .. . ... ... ... : --- .. . ... ... ... : ... .. . ... ... ... : ... .. . ... ... ... : ... .. . ... ... ... : ... .. . ... ... ... : ... .. . ... ... ... : ... .. . ... ... ... : ... .. . ... ... ... : ... .. . ... ... ... : ... .. . ... ... ...
ROW B9 : ... .. . ... ... ... : ... .. . ... ... ... : ... .. . ... ... ... : A-# 00 F ... ... ... : C-1 12 . ... ... ... : G#4 04 . P7E ... ... : G#4 04 . P87 ... ... : ... .. . ... ... ... : F#4 04 . P7B ... ... : F-4 04 . P78 ... ... : ... .. . ... ... ... : ... .. . ... ... ... : ... .. . ... ... ...
ROW BA : ... .. . ... ... ... : ... .. . ... ... ... : ... .. . ... ... ... : 6-# 00 9 ... ... ... : ... .. . ... ... ... : G-4 04 . P78 ... ... : G-4 04 . P81 ... ... : ... .. . ... ... ... : ... .. . P89 ... ... : ... .. . P86 ... ... : ... .. . ... ... ... : ... .. . ... ... ... : ... .. . ... ... ...
ROW BB : ... .. . ... ... ... : ... .. . ... ... ... : ... .. . ... ... ... : 7-# 00 C ... ... ... : ... .. . ... ... ... : ... .. . P86 ... ... : F#4 04 . P7E ... ... : ... .. . ... ... ... : F-4 04 . P85 ... ... : E-4 04 . P84 ... ... : ... .. . ... ... ... : ... .. . ... ... ... : ... .. . ... ... ...
ROW BC : ... .. . ... ... ... : ... .. . ... ... ... : ... .. . ... ... ... : ... .. 8 ... ... ... : ... .. . ... ... ... : F#4 04 . P82 ... ... : F-4 04 . P7C ... ... : ... .. . ... ... ... : E-4 04 . P83 ... ... : D#4 04 . P83 ... ... : ... .. . ... ... ... : ... .. . ... ... ... : ... .. . ... ... ...
ROW BD : ... .. . ... ... ... : ... .. . ... ... ... : ... .. . ... ... ... : 8-# 00 7 ... ... ... : ... .. . ... ... ... : F-4 04 . P7F ... ... : E-4 04 . P79 ... ... : ... .. . ... ... ... : D#4 04 . P82 ... ... : D-4 04 8 P82 ... ... : ... .. . ... ... ... : ... .. . ... ... ... : ... .. . ... ... ...
ROW BE : ... .. . ... ... ... : ... .. . ... ... ... : ... .. . ... ... ... : ... .. 8 ... ... ... : ... .. . ... ... ... : E-4 04 . P7D ... ... : ... .. . P86 ... ... : ... .. . ... ... ... : D-4 04 . ... ... ... : C#4 04 . P83 ... ... : ... .. . ... ... ... : ... .. . ... ... ... : ... .. . ... ... ...
ROW BF : ... .. . ... ... ... : ... .. . ... ... ... : ... .. . ... ... ... : 9-# 00 7 ... ... ... : ... .. . ... ... ... : D#4 04 . P7C ... ... : D#4 04 . P85 ... ... : ... .. . ... ... ... : C#4 04 . ... ... ... : C-4 04 . P84 ... ... : ... .. . ... ... ... : ... .. . ... ... ... : ... .. . ... ... ...
ROW C0 : ... .. . ... ... ... : ... .. . ... ... ... : ... .. . ... ... ... : ... .. 6 ... ... ... : ... .. . ... ... ... : D-4 04 . P7B ... ... : D-4 04 . P86 ... ... : ... .. . ... ... ... : C-4 04 . P83 ... ... : B-3 04 . P86 ... ... : ... .. . ... ... ... : ... .. . ... ... ... : ... .. . ... ... ...
ROW C1 : ... .. . ... ... ... : ... .. . ... ... ... : ... .. . ... ... ... : ... .. 5 ... ... ... : ... .. . ... ... ... : C#4 04 . P7C ... ... : C#4 04 . P85 ... ... : ... .. . ... ... ... : B-3 04 8 P85 ... ... : A-3 04 7 P7E ... ... : ... .. . ... ... ... : ... .. . ... ... ... : ... .. . ... ... ...
ROW C2 : ... .. . ... ... ... : ... .. . ... ... ... : ... .. . ... ... ... : ... .. . ... ... ... : ... .. . ... ... ... : C-4 04 . P7D ... ... : C-4 04 . P86 ... ... : ... .. . ... ... ... : A-3 04 . P7D ... ... : G#3 04 . P82 ... ... : ... .. . ... ... ... : ... .. . ... ... ... : ... .. . ... ... ...
ROW C3 : ... .. . ... ... ... : ... .. . ... ... ... : ... .. . ... ... ... : ... .. . ... ... ... : ... .. . ... ... ... : B-3 04 . P7F ... ... : A#3 04 . P7D ... ... : ... .. . ... ... ... : G#3 04 . P81 ... ... : F#3 04 . P7D ... ... : ... .. . ... ... ... : ... .. . ... ... ... : ... .. . ... ... ...
ROW C4 : ... .. . ... ... ... : ... .. . ... ... ... : ... .. . ... ... ... : ... .. . ... ... ... : ... .. . ... ... ... : A#3 04 . P82 ... ... : A-3 04 . P81 ... ... : ... .. . ... ... ... : F#3 04 . P7C ... ... : F-3 04 . P82 ... ... : ... .. . ... ... ... : ... .. . ... ... ... : ... .. . ... ... ...
ROW C5 : ... .. . ... ... ... : ... .. . ... ... ... : ... .. . ... ... ... : ... .. . ... ... ... : ... .. . ... ... ... : A-3 04 . P85 ... ... : G#3 04 . P85 ... ... : ... .. . ... ... ... : F-3 04 . P82 ... ... : D#3 04 6 P81 ... ... : ... .. . ... ... ... : ... .. . ... ... ... : ... .. . ... ... ...
ROW C6 : ... .. . ... ... ... : C-4 02 . P80 ... ... : C#4 00 . P7F ... ... : ... .. F ... ... ... : C#1 12 . ... ... ... : G#1 04 F P80 ... ... : F#3 04 . P7F ... ... : G-1 04 9 ... ... ... : A-1 04 9 ... ... ... : C#3 04 . ... ... ... : ... .. . ... ... ... : ... .. . ... ... ... : ... .. . ... ... ...
ROW C7 : ... .. . ... ... ... : F-3 02 . ... ... ... : F#3 00 . P83 ... ... : 2-# 00 7 ... ... ... : ... .. . ... ... ... : ... .. . ... ... ... : F-3 04 . P84 ... ... : ... .. . ... ... ... : ... .. . ... ... ... : B-2 04 . P82 ... ... : ... .. . ... ... ... : ... .. . ... ... ... : ... .. . ... ... ...
ROW C8 : ... .. . ... ... ... : A#2 02 . P81 ... ... : C#3 00 . P89 ... ... : 6-# 00 C ... ... ... : ... .. . ... ... ... : ... .. . ... ... ... : D#3 04 . ... ... ... : ... .. . ... ... ... : ... .. . ... ... ... : G#2 04 . P80 ... ... : ... .. . ... ... ... : ... .. . ... ... ... : ... .. . ... ... ...
ROW C9 : ... .. . ... ... ... : D#2 02 . ... ... ... : A#2 00 . P75 ... ... : 7-# 00 8 ... ... ... : ... .. . ... ... ... : ... .. . ... ... ... : C#3 04 . ... ... ... : ... .. . ... ... ... : ... .. . ... ... ... : F-2 04 5 ... ... ... : ... .. . ... ... ... : ... .. . ... ... ... : ... .. . ... ... ...
ROW CA : ... .. . ... ... ... : G#1 02 . ... ... ... : G-2 00 . P70 ... ... : 8-# 00 7 ... ... ... : ... .. . ... ... ... : ... .. . ... ... ... : A#2 04 . P7E ... ... : ... .. 8 ... ... ... : ... .. . ... ... ... : C#2 04 . ... ... ... : ... .. . ... ... ... : ... .. . ... ... ... : ... .. . ... ... ...
ROW CB : ... .. . ... ... ... : C#1 02 . ... ... ... : E-2 00 . P7C ... ... : ... .. 6 ... ... ... : ... .. . ... ... ... : ... .. . ... ... ... : G#2 04 . P82 ... ... : ... .. . ... ... ... : ... .. . ... ... ... : G#1 04 . P7F ... ... : ... .. . ... ... ... : ... .. . ... ... ... : ... .. . ... ... ...
ROW CC : ... .. . ... ... ... : ... .. . ... ... ... : --- .. . ... ... ... : ... .. . ... ... ... : ... .. . ... ... ... : G#2 04 . ... ... ... : E-2 04 . P7F ... ... : G#2 04 . P82 ... ... : G#2 04 . P7F ... ... : D-1 04 . P81 ... ... : ... .. . ... ... ... : ... .. . ... ... ... : ... .. . ... ... ...
ROW CD : ... .. . ... ... ... : ... .. . ... ... ... : ... .. . ... ... ... : ... .. 5 ... ... ... : ... .. . ... ... ... : ... .. . ... ... ... : C-2 04 . P80 ... ... : ... .. . ... ... ... : ... .. . ... ... ... : D#0 04 4 ... ... ... : ... .. . ... ... ... : ... .. . ... ... ... : ... .. . ... ... ...
ROW CE : ... .. . ... ... ... : ... .. . ... ... ... : ... .. . ... ... ... : ... .. . ... ... ... : ... .. . ... ... ... : ... .. . ... ... ... : G-1 04 . P7F ... ... : ... .. 7 ... ... ... : ... .. 8 ... ... ... : --- .. . P7F ... ... : ... .. . ... ... ... : ... .. . ... ... ... : ... .. . ... ... ...
ROW CF : ... .. . ... ... ... : ... .. . ... ... ... : ... .. . ... ... ... : ... .. 4 ... ... ... : ... .. . ... ... ... : ... .. . ... ... ... : C#1 04 . P81 ... ... : ... .. . ... ... ... : ... .. . ... ... ... : D#7 04 . P81 ... ... : ... .. . ... ... ... : ... .. . ... ... ... : ... .. . ... ... ...
ROW D0 : ... .. . ... ... ... : ... .. . ... ... ... : ... .. . ... ... ... : ... .. . ... ... ... : ... .. . ... ... ... : ... .. . ... ... ... : C-0 04 . P80 ... ... : ... .. . ... ... ... : ... .. . ... ... ... : ... .. . ... ... ... : ... .. . ... ... ... : ... .. . ... ... ... : ... .. . ... ... ...
ROW D1 : ... .. . ... ... ... : ... .. . ... ... ... : ... .. . ... ... ... : ... .. 3 ... ... ... : ... .. . ... ... ... : ... .. . ... ... ... : D#7 04 . P82 ... ... : ... .. . ... ... ... : ... .. . ... ... ... : ... .. 3 ... ... ... : ... .. . ... ... ... : ... .. . ... ... ... : ... .. . ... ... ...
ROW D2 : ... .. . ... ... ... : ... .. . ... ... ... : ... .. . ... ... ... : D-# 00 A ... ... ... : ... .. . ... ... ... : C#2 04 . ... ... ... : --- .. . ... ... ... : C#2 04 6 ... ... ... : C#2 04 . ... ... ... : ... .. . ... ... ... : ... .. . ... ... ... : ... .. . ... ... ... : ... .. . ... ... ...
ROW D3 : ... .. . ... ... ... : ... .. . ... ... ... : ... .. . ... ... ... : E-# 00 4 ... ... ... : ... .. . ... ... ... : ... .. . ... ... ... : ... .. . P80 ... ... : ... .. . ... ... ... : ... .. . ... ... ... : ... .. . ... ... ... : ... .. . ... ... ... : ... .. . ... ... ... : ... .. . ... ... ...
ROW D4 : ... .. . ... ... ... : ... .. . ... ... ... : ... .. . ... ... ... : D-# 00 2 ... ... ... : ... .. . ... ... ... : ... .. . ... ... ... : ... .. . ... ... ... : ... .. . ... ... ... : ... .. . ... ... ... : ... .. . ... ... ... : ... .. . ... ... ... : ... .. . ... ... ... : ... .. . ... ... ...
ROW D5 : ... .. . ... ... ... : ... .. . ... ... ... : ... .. . ... ... ... : ... .. 1 ... ... ... : ... .. . ... ... ... : ... .. . ... ... ... : ... .. . ... ... ... : ... .. . ... ... ... : ... .. . ... ... ... : ... .. 2 ... ... ... : ... .. . ... ... ... : ... .. . ... ... ... : ... .. . ... ... ...
ROW D6 : ... .. . ... ... ... : ... .. . ... ... ... : ... .. . ... ... ... : ... .. . ... ... ... : ... .. . ... ... ... : ... .. . ... ... ... : ... .. . ... ... ... : ... .. 5 ... ... ... : ... .. 7 ... ... ... : ... .. . ... ... ... : ... .. . ... ... ... : ... .. . ... ... ... : ... .. . ... ... ...
ROW D7 : ... .. . ... ... ... : ... .. . ... ... ... : ... .. . ... ... ... : --- .. . ... ... ... : ... .. . ... ... ... : ... .. . ... ... ... : ... .. . ... ... ... : ... .. . ... ... ... : ... .. . ... ... ... : ... .. . ... ... ... : ... .. . ... ... ... : ... .. . ... ... ... : ... .. . ... ... ...
ROW D8 : ... .. . ... ... ... : ... .. . ... ... ... : ... .. . ... ... ... : D-# 00 A ... ... ... : ... .. . ... ... ... : C#3 04 . ... ... ... : ... .. . ... ... ... : C#3 04 . ... ... ... : C#3 04 . ... ... ... : --- .. . ... ... ... : ... .. . ... ... ... : ... .. . ... ... ... : ... .. . ... ... ...
ROW D9 : ... .. . ... ... ... : ... .. . ... ... ... : ... .. . ... ... ... : E-# 00 4 ... ... ... : ... .. . ... ... ... : ... .. . ... ... ... : ... .. . ... ... ... : ... .. . ... ... ... : ... .. . ... ... ... : ... .. . P80 ... ... : ... .. . ... ... ... : ... .. . ... ... ... : ... .. . ... ... ...
ROW DA : ... .. . ... ... ... : ... .. . ... ... ... : ... .. . ... ... ... : D-# 00 2 ... ... ... : ... .. . ... ... ... : ... .. . ... ... ... : ... .. . ... ... ... : ... .. 4 ... ... ... : ... .. . ... ... ... : ... .. . ... ... ... : ... .. . ... ... ... : ... .. . ... ... ... : ... .. . ... ... ...
ROW DB : ... .. . ... ... ... : ... .. . ... ... ... : ... .. . ... ... ... : ... .. 1 ... ... ... : ... .. . ... ... ... : ... .. . ... ... ... : ... .. . ... ... ... : ... .. . ... ... ... : ... .. . ... ... ... : ... .. . ... ... ... : ... .. . ... ... ... : ... .. . ... ... ... : ... .. . ... ... ...
ROW DC : ... .. . ... ... ... : ... .. . ... ... ... : ... .. . ... ... ... : ... .. . ... ... ... : ... .. . ... ... ... : ... .. . ... ... ... : ... .. . ... ... ... : ... .. . ... ... ... : ... .. . ... ... ... : ... .. . ... ... ... : ... .. . ... ... ... : ... .. . ... ... ... : ... .. . ... ... ...
ROW DD : ... .. . ... ... ... : ... .. . ... ... ... : ... .. . ... ... ... : --- .. . ... ... ... : ... .. . ... ... ... : ... .. . ... ... ... : ... .. . ... ... ... : ... .. . ... ... ... : ... .. . ... ... ... : ... .. . ... ... ... : ... .. . ... ... ... : ... .. . ... ... ... : ... .. . ... ... ...
ROW DE : ... .. . ... ... ... : ... .. . ... ... ... : ... .. . ... ... ... : ... .. . ... ... ... : ... .. . ... ... ... : ... .. . ... ... ... : ... .. . ... ... ... : ... .. 3 ... ... ... : ... .. 6 ... ... ... : ... .. . ... ... ... : ... .. . ... ... ... : ... .. . ... ... ... : ... .. . ... ... ...
ROW DF : ... .. . ... ... ... : C-4 02 . P80 ... ... : F#3 00 . P78 ... ... : 1-# 00 F ... ... ... : C-1 12 . ... ... ... : B-4 0C 7 P7C ... ... : ... .. . ... ... ... : --- .. . ... ... ... : A#3 0C 1 P85 ... ... : ... .. . ... ... ... : ... .. . ... ... ... : ... .. . ... ... ... : ... .. . ... ... ...
ROW E0 : ... .. . ... ... ... : F-3 02 . ... ... ... : C#3 00 . P7E ... ... : 2-# 00 7 ... ... ... : ... .. . ... ... ... : A#4 0C . P79 ... ... : ... .. . ... ... ... : ... .. . P80 ... ... : G-3 0C . ... ... ... : ... .. . ... ... ... : ... .. . ... ... ... : ... .. . ... ... ... : ... .. . ... ... ...
ROW E1 : ... .. . ... ... ... : A#2 02 . P81 ... ... : A-2 00 . P86 ... ... : 1-# 00 4 ... ... ... : ... .. . ... ... ... : A-4 0C . P78 ... ... : ... .. . ... ... ... : ... .. . ... ... ... : D#3 0C . P82 ... ... : ... .. . ... ... ... : ... .. . ... ... ... : ... .. . ... ... ... : ... .. . ... ... ...
ROW E2 : ... .. . ... ... ... : D#2 02 . ... ... ... : --- .. . ... ... ... : ... .. 2 ... ... ... : ... .. . ... ... ... : G#4 0C . ... ... ... : ... .. . ... ... ... : ... .. . ... ... ... : A#2 0C . P7F ... ... : ... .. . ... ... ... : ... .. . ... ... ... : ... .. . ... ... ... : ... .. . ... ... ...
ROW E3 : ... .. . ... ... ... : G#1 02 . ... ... ... : ... .. . ... ... ... : ... .. 1 ... ... ... : ... .. . ... ... ... : G-4 0C . ... ... ... : ... .. . ... ... ... : ... .. . ... ... ... : E-2 0C . P81 ... ... : ... .. . ... ... ... : ... .. . ... ... ... : ... .. . ... ... ... : ... .. . ... ... ...
ROW E4 : ... .. . ... ... ... : C#1 02 . ... ... ... : ... .. . ... ... ... : --- .. . ... ... ... : ... .. . ... ... ... : --- .. . ... ... ... : ... .. . ... ... ... : ... .. . ... ... ... : --- .. . ... ... ... : ... .. . ... ... ... : ... .. . ... ... ... : ... .. . ... ... ... : ... .. . ... ... ...
ROW E5 : ... .. . ... ... ... : ... .. . ... ... ... : ... .. . ... ... ... : ... .. . ... ... ... : ... .. . ... ... ... : B-4 0C . P7C ... ... : ... .. . ... ... ... : ... .. . ... ... ... : A#3 0C . P85 ... ... : ... .. . ... ... ... : ... .. . ... ... ... : ... .. . ... ... ... : ... .. . ... ... ...
ROW E6 : ... .. . ... ... ... : ... .. . ... ... ... : ... .. . ... ... ... : ... .. . ... ... ... : ... .. . ... ... ... : A#4 0C . P79 ... ... : ... .. . ... ... ... : ... .. . ... ... ... : G-3 0C . ... ... ... : ... .. . ... ... ... : ... .. . ... ... ... : ... .. . ... ... ... : ... .. . ... ... ...
ROW E7 : ... .. . ... ... ... : ... .. . ... ... ... : ... .. . ... ... ... : ... .. . ... ... ... : ... .. . ... ... ... : A-4 0C . P78 ... ... : ... .. . ... ... ... : ... .. . ... ... ... : --- .. . ... ... ... : ... .. . ... ... ... : ... .. . ... ... ... : ... .. . ... ... ... : ... .. . ... ... ...
ROW E8 : ... .. . ... ... ... : ... .. . ... ... ... : ... .. . ... ... ... : ... .. . ... ... ... : ... .. . ... ... ... : G#4 0C . ... ... ... : ... .. . ... ... ... : ... .. . ... ... ... : ... .. . P80 ... ... : ... .. . ... ... ... : ... .. . ... ... ... : ... .. . ... ... ... : ... .. . ... ... ...
ROW E9 : ... .. . ... ... ... : ... .. . ... ... ... : ... .. . ... ... ... : ... .. . ... ... ... : ... .. . ... ... ... : G-4 0C . ... ... ... : ... .. . ... ... ... : ... .. . ... ... ... : ... .. . ... ... ... : ... .. . ... ... ... : ... .. . ... ... ... : ... .. . ... ... ... : ... .. . ... ... ...
ROW EA : ... .. . ... ... ... : ... .. . ... ... ... : ... .. . ... ... ... : ... .. . ... ... ... : ... .. . ... ... ... : --- .. . ... ... ... : ... .. . ... ... ... : ... .. . ... ... ... : ... .. . ... ... ... : ... .. . ... ... ... : ... .. . ... ... ... : ... .. . ... ... ... : ... .. . ... ... ...
ROW EB : ... .. . ... ... ... : ... .. . ... ... ... : ... .. . ... ... ... : D-# 00 A ... ... ... : ... .. . ... ... ... : C#3 05 A P80 ... ... : C-3 05 . P7E ... ... : C#3 05 9 P7E ... ... : G#2 05 9 P81 ... ... : ... .. . ... ... ... : ... .. . ... ... ... : ... .. . ... ... ... : ... .. . ... ... ...
ROW EC : ... .. . ... ... ... : ... .. . ... ... ... : ... .. . ... ... ... : E-# 00 4 ... ... ... : ... .. . ... ... ... : ... .. . ... ... ... : C#3 05 . P83 ... ... : ... .. . ... ... ... : ... .. . ... ... ... : ... .. . ... ... ... : ... .. . ... ... ... : ... .. . ... ... ... : ... .. . ... ... ...
ROW ED : ... .. . ... ... ... : ... .. . ... ... ... : ... .. . ... ... ... : D-# 00 2 ... ... ... : ... .. . ... ... ... : ... .. . ... ... ... : ... .. . P82 ... ... : ... .. . ... ... ... : ... .. . ... ... ... : ... .. . ... ... ... : ... .. . ... ... ... : ... .. . ... ... ... : ... .. . ... ... ...
ROW EE : ... .. . ... ... ... : ... .. . ... ... ... : ... .. . ... ... ... : ... .. 1 ... ... ... : ... .. . ... ... ... : ... .. . ... ... ... : ... .. . P83 ... ... : ... .. . ... ... ... : ... .. . ... ... ... : ... .. . ... ... ... : ... .. . ... ... ... : ... .. . ... ... ... : ... .. . ... ... ...
ROW EF : ... .. . ... ... ... : ... .. . ... ... ... : ... .. . ... ... ... : ... .. . ... ... ... : ... .. . ... ... ... : --- .. . ... ... ... : --- .. . ... ... ... : --- .. . ... ... ... : --- .. . ... ... ... : ... .. . ... ... ... : ... .. . ... ... ... : ... .. . ... ... ... : ... .. . ... ... ...
ROW F0 : ... .. . ... ... ... : ... .. . ... ... ... : ... .. . ... ... ... : --- .. . ... ... ... : ... .. . ... ... ... : ... .. . ... ... ... : ... .. . P80 ... ... : ... .. . P80 ... ... : ... .. . P80 ... ... : ... .. . ... ... ... : ... .. . ... ... ... : ... .. . ... ... ... : ... .. . ... ... ...
ROW F1 : ... .. . ... ... ... : ... .. . ... ... ... : ... .. . ... ... ... : D-# 00 A ... ... ... : ... .. . ... ... ... : C#3 05 4 ... ... ... : C#3 05 4 P82 ... ... : C#3 05 3 P7E ... ... : G#2 05 3 P81 ... ... : ... .. . ... ... ... : ... .. . ... ... ... : ... .. . ... ... ... : ... .. . ... ... ...
ROW F2 : ... .. . ... ... ... : ... .. . ... ... ... : ... .. . ... ... ... : E-# 00 4 ... ... ... : ... .. . ... ... ... : ... .. . ... ... ... : ... .. . P83 ... ... : ... .. . ... ... ... : ... .. . ... ... ... : ... .. . ... ... ... : ... .. . ... ... ... : ... .. . ... ... ... : ... .. . ... ... ...
ROW F3 : ... .. . ... ... ... : ... .. . ... ... ... : ... .. . ... ... ... : D-# 00 2 ... ... ... : ... .. . ... ... ... : ... .. . ... ... ... : C-3 05 . P7E ... ... : ... .. . ... ... ... : ... .. . ... ... ... : ... .. . ... ... ... : ... .. . ... ... ... : ... .. . ... ... ... : ... .. . ... ... ...
ROW F4 : ... .. . ... ... ... : ... .. . ... ... ... : ... .. . ... ... ... : ... .. 1 ... ... ... : ... .. . ... ... ... : ... .. . ... ... ... : C#3 05 . P83 ... ... : ... .. . ... ... ... : ... .. . ... ... ... : ... .. . ... ... ... : ... .. . ... ... ... : ... .. . ... ... ... : ... .. . ... ... ...
ROW F5 : ... .. . ... ... ... : ... .. . ... ... ... : ... .. . ... ... ... : ... .. . ... ... ... : ... .. . ... ... ... : ... .. . ... ... ... : ... .. . P82 ... ... : ... .. 2 ... ... ... : ... .. . ... ... ... : ... .. . ... ... ... : ... .. . ... ... ... : ... .. . ... ... ... : ... .. . ... ... ...
ROW F6 : ... .. . ... ... ... : ... .. . ... ... ... : ... .. . ... ... ... : --- .. . ... ... ... : ... .. . ... ... ... : --- .. . ... ... ... : --- .. . ... ... ... : --- .. . ... ... ... : --- .. . ... ... ... : ... .. . ... ... ... : ... .. . ... ... ... : ... .. . ... ... ... : ... .. . ... ... ...
ROW F7 : ... .. . ... ... ... : ... .. . ... ... ... : ... .. . ... ... ... : ... .. . ... ... ... : ... .. . ... ... ... : ... .. . ... ... ... : ... .. . P80 ... ... : ... .. . P80 ... ... : ... .. . P80 ... ... : ... .. . ... ... ... : ... .. . ... ... ... : ... .. . ... ... ... : ... .. . ... ... ...
ROW F8 : ... .. . ... ... ... : C-4 02 . P80 ... ... : C#4 00 . P7F ... ... : 9-# 00 F ... ... ... : C#1 12 . ... ... ... : F#3 05 A ... ... ... : F#3 05 A P84 ... ... : F#3 05 9 P7E ... ... : D#3 05 9 P81 ... ... : ... .. . ... ... ... : ... .. . ... ... ... : ... .. . ... ... ... : ... .. . ... ... ...
ROW F9 : ... .. . ... ... ... : F-3 02 . ... ... ... : F#3 00 . P83 ... ... : 2-# 00 7 ... ... ... : ... .. . ... ... ... : ... .. . ... ... ... : ... .. . P83 ... ... : ... .. . ... ... ... : ... .. . ... ... ... : ... .. . ... ... ... : ... .. . ... ... ... : ... .. . ... ... ... : ... .. . ... ... ...
ROW FA : ... .. . ... ... ... : A#2 02 . P81 ... ... : C#3 00 . P89 ... ... : 6-# 00 C ... ... ... : ... .. . ... ... ... : ... .. . ... ... ... : ... .. . P82 ... ... : ... .. . ... ... ... : ... .. . ... ... ... : ... .. . ... ... ... : ... .. . ... ... ... : ... .. . ... ... ... : ... .. . ... ... ...
ROW FB : ... .. . ... ... ... : D#2 02 . ... ... ... : A#2 00 . P75 ... ... : 7-# 00 8 ... ... ... : ... .. . ... ... ... : ... .. . ... ... ... : ... .. . P83 ... ... : ... .. . ... ... ... : ... .. . ... ... ... : ... .. . ... ... ... : ... .. . ... ... ... : ... .. . ... ... ... : ... .. . ... ... ...
ROW FC : ... .. . ... ... ... : G#1 02 . ... ... ... : G-2 00 . P70 ... ... : 8-# 00 7 ... ... ... : ... .. . ... ... ... : --- .. . ... ... ... : --- .. . ... ... ... : --- .. . ... ... ... : --- .. . ... ... ... : ... .. . ... ... ... : ... .. . ... ... ... : ... .. . ... ... ... : ... .. . ... ... ...
ROW FD : ... .. . ... ... ... : C#1 02 . ... ... ... : E-2 00 . P7C ... ... : ... .. 6 ... ... ... : ... .. . ... ... ... : ... .. . ... ... ... : ... .. . P80 ... ... : ... .. . P80 ... ... : ... .. . P80 ... ... : ... .. . ... ... ... : ... .. . ... ... ... : ... .. . ... ... ... : ... .. . ... ... ...
ROW FE : ... .. . ... ... ... : ... .. . ... ... ... : --- .. . ... ... ... : ... .. . ... ... ... : ... .. . ... ... ... : F#3 05 4 ... ... ... : F#3 05 4 P82 ... ... : F#3 05 3 P7E ... ... : D#3 05 3 P81 ... ... : ... .. . ... ... ... : ... .. . ... ... ... : ... .. . ... ... ... : ... .. . ... ... ...
ROW FF : ... .. . ... ... ... : ... .. . ... ... ... : ... .. . ... ... ... : ... .. 5 ... ... ... : ... .. . ... ... ... : ... .. . ... ... ... : ... .. . P83 ... ... : ... .. . ... ... ... : ... .. . ... ... ... : ... .. . ... ... ... : ... .. . ... ... ... : ... .. . ... ... ... : ... .. . ... ... ...

PATTERN 0E
ROW 00 : ... .. . ... ... ... : ... .. . ... ... ... : ... .. . ... ... ... : ... .. . ... ... ... : ... .. . ... ... ... : ... .. . ... ... ... : ... .. . P84 ... ... : ... .. . ... ... ... : ... .. . ... ... ... : ... .. . ... ... ... : ... .. . ... ... ... : ... .. . ... ... ... : ... .. . ... ... ...
ROW 01 : ... .. . ... ... ... : ... .. . ... ... ... : ... .. . ... ... ... : ... .. 4 ... ... ... : ... .. . ... ... ... : ... .. . ... ... ... : ... .. . P83 ... ... : ... .. . ... ... ... : ... .. . ... ... ... : ... .. . ... ... ... : ... .. . ... ... ... : ... .. . ... ... ... : ... .. . ... ... ...
ROW 02 : ... .. . ... ... ... : ... .. . ... ... ... : ... .. . ... ... ... : ... .. . ... ... ... : ... .. . ... ... ... : --- .. . ... ... ... : --- .. . ... ... ... : --- .. . ... ... ... : --- .. . ... ... ... : ... .. . ... ... ... : ... .. . ... ... ... : ... .. . ... ... ... : ... .. . ... ... ...
ROW 03 : ... .. . ... ... ... : ... .. . ... ... ... : ... .. . ... ... ... : ... .. 3 ... ... ... : ... .. . ... ... ... : ... .. . ... ... ... : ... .. . P80 ... ... : ... .. . P80 ... ... : ... .. . P80 ... ... : ... .. . ... ... ... : ... .. . ... ... ... : ... .. . ... ... ... : ... .. . ... ... ...
ROW 04 : ... .. . ... ... ... : ... .. . ... ... ... : ... .. . ... ... ... : D-# 00 A ... ... ... : ... .. . ... ... ... : B-3 05 A ... ... ... : B-3 05 A P84 ... ... : B-3 05 9 P7E ... ... : F#3 05 9 P81 ... ... : ... .. . ... ... ... : ... .. . ... ... ... : ... .. . ... ... ... : ... .. . ... ... ...
ROW 05 : ... .. . ... ... ... : ... .. . ... ... ... : ... .. . ... ... ... : E-# 00 4 ... ... ... : ... .. . ... ... ... : ... .. . ... ... ... : ... .. . ... ... ... : ... .. . ... ... ... : ... .. . ... ... ... : ... .. . ... ... ... : ... .. . ... ... ... : ... .. . ... ... ... : ... .. . ... ... ...
ROW 06 : ... .. . ... ... ... : ... .. . ... ... ... : ... .. . ... ... ... : D-# 00 2 ... ... ... : ... .. . ... ... ... : ... .. . ... ... ... : ... .. . P83 ... ... : ... .. . ... ... ... : ... .. . ... ... ... : ... .. . ... ... ... : ... .. . ... ... ... : ... .. . ... ... ... : ... .. . ... ... ...
ROW 07 : ... .. . ... ... ... : ... .. . ... ... ... : ... .. . ... ... ... : ... .. 1 ... ... ... : ... .. . ... ... ... : ... .. . ... ... ... : ... .. . ... ... ... : ... .. . ... ... ... : ... .. . ... ... ... : ... .. . ... ... ... : ... .. . ... ... ... : ... .. . ... ... ... : ... .. . ... ... ...
ROW 08 : ... .. . ... ... ... : ... .. . ... ... ... : ... .. . ... ... ... : ... .. . ... ... ... : ... .. . ... ... ... : --- .. . ... ... ... : --- .. . ... ... ... : --- .. . ... ... ... : --- .. . ... ... ... : ... .. . ... ... ... : ... .. . ... ... ... : ... .. . ... ... ... : ... .. . ... ... ...
ROW 09 : ... .. . ... ... ... : ... .. . ... ... ... : ... .. . ... ... ... : --- .. . ... ... ... : ... .. . ... ... ... : ... .. . ... ... ... : ... .. . P80 ... ... : ... .. . P80 ... ... : ... .. . P80 ... ... : ... .. . ... ... ... : ... .. . ... ... ... : ... .. . ... ... ... : ... .. . ... ... ...
ROW 0A : ... .. . ... ... ... : ... .. . ... ... ... : ... .. . ... ... ... : D-# 00 A ... ... ... : ... .. . ... ... ... : B-3 05 4 ... ... ... : B-3 05 . P83 ... ... : B-3 05 . P7E ... ... : F#3 05 . P81 ... ... : ... .. . ... ... ... : ... .. . ... ... ... : ... .. . ... ... ... : ... .. . ... ... ...
ROW 0B : ... .. . ... ... ... : ... .. . ... ... ... : ... .. . ... ... ... : E-# 00 4 ... ... ... : ... .. . ... ... ... : ... .. . ... ... ... : ... .. . P82 ... ... : ... .. . ... ... ... : ... .. . ... ... ... : ... .. . ... ... ... : ... .. . ... ... ... : ... .. . ... ... ... : ... .. . ... ... ...
ROW 0C : ... .. . ... ... ... : ... .. . ... ... ... : ... .. . ... ... ... : D-# 00 2 ... ... ... : ... .. . ... ... ... : ... .. . ... ... ... : ... .. . P83 ... ... : ... .. . ... ... ... : ... .. . ... ... ... : ... .. . ... ... ... : ... .. . ... ... ... : ... .. . ... ... ... : ... .. . ... ... ...
ROW 0D : ... .. . ... ... ... : ... .. . ... ... ... : ... .. . ... ... ... : ... .. 1 ... ... ... : ... .. . ... ... ... : ... .. . ... ... ... : ... .. . P84 ... ... : ... .. . ... ... ... : ... .. . ... ... ... : ... .. . ... ... ... : ... .. . ... ... ... : ... .. . ... ... ... : ... .. . ... ... ...
ROW 0E : ... .. . ... ... ... : ... .. . ... ... ... : ... .. . ... ... ... : ... .. . ... ... ... : ... .. . ... ... ... : ... .. . ... ... ... : ... .. . P83 ... ... : ... .. 8 ... ... ... : ... .. . ... ... ... : ... .. . ... ... ... : ... .. . ... ... ... : ... .. . ... ... ... : ... .. . ... ... ...
ROW 0F : ... .. . ... ... ... : ... .. . ... ... ... : ... .. . ... ... ... : --- .. . ... ... ... : ... .. . ... ... ... : --- .. . ... ... ... : --- .. . ... ... ... : --- .. . ... ... ... : --- .. . ... ... ... : ... .. . ... ... ... : ... .. . ... ... ... : ... .. . ... ... ... : ... .. . ... ... ...
ROW 10 : ... .. . ... ... ... : ... .. . ... ... ... : ... .. . ... ... ... : ... .. . ... ... ... : ... .. . ... ... ... : ... .. . ... ... ... : ... .. . P80 ... ... : ... .. . P80 ... ... : ... .. . P80 ... ... : ... .. . ... ... ... : ... .. . ... ... ... : ... .. . ... ... ... : ... .. . ... ... ...
ROW 11 : ... .. . ... ... ... : C-4 02 . P80 ... ... : F#3 00 . P78 ... ... : 1-# 00 F ... ... ... : C-1 12 . ... ... ... : D#2 06 F ... ... ... : D-2 06 F P7F ... ... : ... .. . ... ... ... : D#2 06 E P7F ... ... : D#3 06 B P81 ... ... : ... .. . ... ... ... : ... .. . ... ... ... : ... .. . ... ... ...
ROW 12 : ... .. . ... ... ... : F-3 02 . ... ... ... : C#3 00 . P7E ... ... : 2-# 00 7 ... ... ... : ... .. . ... ... ... : ... .. . ... ... ... : D#2 06 . P81 ... ... : ... .. . ... ... ... : ... .. . ... ... ... : ... .. . ... ... ... : ... .. . ... ... ... : ... .. . ... ... ... : ... .. . ... ... ...
ROW 13 : ... .. . ... ... ... : A#2 02 . P81 ... ... : A-2 00 . P86 ... ... : 1-# 00 4 ... ... ... : ... .. . ... ... ... : ... .. . ... ... ... : ... .. . P80 ... ... : ... .. . ... ... ... : ... .. . ... ... ... : ... .. . ... ... ... : ... .. . ... ... ... : ... .. . ... ... ... : ... .. . ... ... ...
ROW 14 : ... .. . ... ... ... : D#2 02 . ... ... ... : --- .. . ... ... ... : ... .. 2 ... ... ... : ... .. . ... ... ... : D#2 09 . ... ... ... : D#2 09 . P81 ... ... : ... .. . ... ... ... : D#2 09 . ... ... ... : D#3 09 . ... ... ... : ... .. . ... ... ... : ... .. . ... ... ... : ... .. . ... ... ...
ROW 15 : ... .. . ... ... ... : G#1 02 . ... ... ... : ... .. . ... ... ... : ... .. 1 ... ... ... : ... .. . ... ... ... : ... .. . ... ... ... : D-2 09 . P7F ... ... : ... .. . ... ... ... : ... .. . ... ... ... : ... .. A ... ... ... : ... .. . ... ... ... : ... .. . ... ... ... : ... .. . ... ... ...
ROW 16 : ... .. . ... ... ... : C#1 02 . ... ... ... : ... .. . ... ... ... : --- .. . ... ... ... : ... .. . ... ... ... : ... .. . ... ... ... : D#2 09 . P82 ... ... : ... .. . ... ... ... : ... .. . ... ... ... : ... .. . ... ... ... : ... .. . ... ... ... : ... .. . ... ... ... : ... .. . ... ... ...
ROW 17 : ... .. . ... ... ... : ... .. . ... ... ... : ... .. . ... ... ... : ... .. . ... ... ... : ... .. . ... ... ... : D#2 06 . ... ... ... : D#2 06 . P81 ... ... : ... .. . ... ... ... : D#2 06 . ... ... ... : D#3 06 . ... ... ... : ... .. . ... ... ... : ... .. . ... ... ... : ... .. . ... ... ...
ROW 18 : ... .. . ... ... ... : ... .. . ... ... ... : ... .. . ... ... ... : ... .. . ... ... ... : ... .. . ... ... ... : ... .. . ... ... ... : ... .. . ... ... ... : ... .. . ... ... ... : ... .. . ... ... ... : ... .. . ... ... ... : ... .. . ... ... ... : ... .. . ... ... ... : ... .. . ... ... ...
ROW 19 : ... .. . ... ... ... : ... .. . ... ... ... : ... .. . ... ... ... : ... .. . ... ... ... : ... .. . ... ... ... : ... .. . ... ... ... : ... .. . P82 ... ... : ... .. . ... ... ... : ... .. D ... ... ... : ... .. 9 ... ... ... : ... .. . ... ... ... : ... .. . ... ... ... : ... .. . ... ... ...
ROW 1A : ... .. . ... ... ... : ... .. . ... ... ... : ... .. . ... ... ... : ... .. . ... ... ... : ... .. . ... ... ... : D#2 09 . ... ... ... : D-2 09 . P7F ... ... : ... .. . ... ... ... : D#2 09 . ... ... ... : D#3 09 . ... ... ... : ... .. . ... ... ... : ... .. . ... ... ... : ... .. . ... ... ...
ROW 1B : ... .. . ... ... ... : ... .. . ... ... ... : ... .. . ... ... ... : ... .. . ... ... ... : ... .. . ... ... ... : ... .. . ... ... ... : D#2 09 . P81 ... ... : ... .. . ... ... ... : ... .. . ... ... ... : ... .. . ... ... ... : ... .. . ... ... ... : ... .. . ... ... ... : ... .. . ... ... ...
ROW 1C : ... .. . ... ... ... : ... .. . ... ... ... : ... .. . ... ... ... : ... .. . ... ... ... : ... .. . ... ... ... : ... .. . ... ... ... : ... .. . P80 ... ... : ... .. . ... ... ... : ... .. . ... ... ... : ... .. . ... ... ... : ... .. . ... ... ... : ... .. . ... ... ... : ... .. . ... ... ...
ROW 1D : ... .. . ... ... ... : ... .. . ... ... ... : ... .. . ... ... ... : D-# 00 A ... ... ... : ... .. . ... ... ... : D#2 06 . ... ... ... : D#2 06 . P81 ... ... : ... .. . ... ... ... : D#2 06 . ... ... ... : D#3 06 8 ... ... ... : ... .. . ... ... ... : ... .. . ... ... ... : ... .. . ... ... ...
ROW 1E : ... .. . ... ... ... : ... .. . ... ... ... : ... .. . ... ... ... : E-# 00 4 ... ... ... : ... .. . ... ... ... : ... .. . ... ... ... : D-2 06 . P7F ... ... : ... .. . ... ... ... : ... .. . ... ... ... : ... .. . ... ... ... : ... .. . ... ... ... : ... .. . ... ... ... : ... .. . ... ... ...
ROW 1F : ... .. . ... ... ... : ... .. . ... ... ... : ... .. . ... ... ... : D-# 00 2 ... ... ... : ... .. . ... ... ... : ... .. . ... ... ... : D#2 06 . P81 ... ... : ... .. . ... ... ... : ... .. . ... ... ... : ... .. . ... ... ... : ... .. . ... ... ... : ... .. . ... ... ... : ... .. . ... ... ...
ROW 20 : ... .. . ... ... ... : ... .. . ... ... ... : ... .. . ... ... ... : ... .. 1 ... ... ... : ... .. . ... ... ... : D#2 09 . ... ... ... : D#2 09 . P80 ... ... : ... .. . ... ... ... : D#2 09 . ... ... ... : D#3 09 . ... ... ... : ... .. . ... ... ... : ... .. . ... ... ... : ... .. . ... ... ...
ROW 21 : ... .. . ... ... ... : ... .. . ... ... ... : ... .. . ... ... ... : ... .. . ... ... ... : ... .. . ... ... ... : ... .. . ... ... ... : ... .. . P81 ... ... : ... .. . ... ... ... : ... .. C ... ... ... : ... .. 7 ... ... ... : ... .. . ... ... ... : ... .. . ... ... ... : ... .. . ... ... ...
ROW 22 : ... .. . ... ... ... : ... .. . ... ... ... : ... .. . ... ... ... : --- .. . ... ... ... : ... .. . ... ... ... : ... .. . ... ... ... : D-2 09 . P7F ... ... : ... .. . ... ... ... : ... .. . ... ... ... : ... .. . ... ... ... : ... .. . ... ... ... : ... .. . ... ... ... : ... .. . ... ... ...
ROW 23 : ... .. . ... ... ... : ... .. . ... ... ... : ... .. . ... ... ... : D-# 00 A ... ... ... : ... .. . ... ... ... : D#2 06 . ... ... ... : D#2 06 . P81 ... ... : ... .. . ... ... ... : D#2 06 . ... ... ... : D#3 06 . ... ... ... : ... .. . ... ... ... : ... .. . ... ... ... : ... .. . ... ... ...
ROW 24 : ... .. . ... ... ... : ... .. . ... ... ... : ... .. . ... ... ... : E-# 00 4 ... ... ... : ... .. . ... ... ... : ... .. . ... ... ... : ... .. . P80 ... ... : ... .. . ... ... ... : ... .. . ... ... ... : ... .. . ... ... ... : ... .. . ... ... ... : ... .. . ... ... ... : ... .. . ... ... ...
ROW 25 : ... .. . ... ... ... : ... .. . ... ... ... : ... .. . ... ... ... : D-# 00 2 ... ... ... : ... .. . ... ... ... : ... .. . ... ... ... : ... .. . P81 ... ... : ... .. . ... ... ... : ... .. . ... ... ... : ... .. 6 ... ... ... : ... .. . ... ... ... : ... .. . ... ... ... : ... .. . ... ... ...
ROW 26 : ... .. . ... ... ... : ... .. . ... ... ... : ... .. . ... ... ... : ... .. 1 ... ... ... : ... .. . ... ... ... : D#2 09 . ... ... ... : D#2 09 . P82 ... ... : ... .. . ... ... ... : D#2 09 . ... ... ... : D#3 09 . ... ... ... : ... .. . ... ... ... : ... .. . ... ... ... : ... .. . ... ... ...
ROW 27 : ... .. . ... ... ... : ... .. . ... ... ... : ... .. . ... ... ... : ... .. . ... ... ... : ... .. . ... ... ... : ... .. . ... ... ... : ... .. . ... ... ... : ... .. . ... ... ... : ... .. . ... ... ... : ... .. . ... ... ... : ... .. . ... ... ... : ... .. . ... ... ... : ... .. . ... ... ...
ROW 28 : ... .. . ... ... ... : ... .. . ... ... ... : ... .. . ... ... ... : --- .. . ... ... ... : ... .. . ... ... ... : ... .. . ... ... ... : ... .. . P81 ... ... : ... .. . ... ... ... : ... .. . ... ... ... : ... .. . ... ... ... : ... .. . ... ... ... : ... .. . ... ... ... : ... .. . ... ... ...
ROW 29 : ... .. . ... ... ... : ... .. . ... ... ... : ... .. . ... ... ... : ... .. . ... ... ... : ... .. . ... ... ... : ... .. . ... ... ... : ... .. . ... ... ... : ... .. . ... ... ... : ... .. B ... ... ... : ... .. 5 ... ... ... : ... .. . ... ... ... : ... .. . ... ... ... : ... .. . ... ... ...
ROW 2A : ... .. . ... ... ... : C-4 02 . P80 ... ... : C#4 00 . P7F ... ... : 9-# 00 F ... ... ... : C#1 12 . ... ... ... : D-2 06 . ... ... ... : D-2 06 . P82 ... ... : ... .. . ... ... ... : D-2 06 . ... ... ... : D-3 06 . ... ... ... : ... .. . ... ... ... : ... .. . ... ... ... : ... .. . ... ... ...
ROW 2B : ... .. . ... ... ... : F-3 02 . ... ... ... : F#3 00 . P83 ... ... : 2-# 00 7 ... ... ... : ... .. . ... ... ... : ... .. . ... ... ... : C#2 06 . P7F ... ... : ... .. . ... ... ... : ... .. . ... ... ... : ... .. . ... ... ... : ... .. . ... ... ... : ... .. . ... ... ... : ... .. . ... ... ...
ROW 2C : ... .. . ... ... ... : A#2 02 . P81 ... ... : C#3 00 . P89 ... ... : 6-# 00 C ... ... ... : ... .. . ... ... ... : ... .. . ... ... ... : D-2 06 . P81 ... ... : ... .. . ... ... ... : ... .. . ... ... ... : ... .. . ... ... ... : ... .. . ... ... ... : ... .. . ... ... ... : ... .. . ... ... ...
ROW 2D : ... .. . ... ... ... : D#2 02 . ... ... ... : A#2 00 . P75 ... ... : 7-# 00 8 ... ... ... : ... .. . ... ... ... : D-2 07 . ... ... ... : D-2 07 . P80 ... ... : ... .. . ... ... ... : D-2 07 . ... ... ... : D-3 07 4 ... ... ... : ... .. . ... ... ... : ... .. . ... ... ... : ... .. . ... ... ...
ROW 2E : ... .. . ... ... ... : G#1 02 . ... ... ... : G-2 00 . P70 ... ... : 8-# 00 7 ... ... ... : ... .. . ... ... ... : ... .. . ... ... ... : ... .. . P81 ... ... : ... .. . ... ... ... : ... .. . ... ... ... : ... .. . ... ... ... : ... .. . ... ... ... : ... .. . ... ... ... : ... .. . ... ... ...
ROW 2F : ... .. . ... ... ... : C#1 02 . ... ... ... : E-2 00 . P7C ... ... : ... .. 6 ... ... ... : ... .. . ... ... ... : ... .. . ... ... ... : C#2 07 . P7F ... ... : ... .. . ... ... ... : ... .. . ... ... ... : ... .. . ... ... ... : ... .. . ... ... ... : ... .. . ... ... ... : ... .. . ... ... ...
ROW 30 : ... .. . ... ... ... : ... .. . ... ... ... : --- .. . ... ... ... : ... .. . ... ... ... : ... .. . ... ... ... : D-2 08 . ... ... ... : D-2 08 . P81 ... ... : ... .. . ... ... ... : D-2 08 . ... ... ... : D-3 08 . ... ... ... : ... .. . ... ... ... : ... .. . ... ... ... : ... .. . ... ... ...
ROW 31 : ... .. . ... ... ... : ... .. . ... ... ... : ... .. . ... ... ... : ... .. 5 ... ... ... : ... .. . ... ... ... : ... .. . ... ... ... : ... .. . P80 ... ... : ... .. . ... ... ... : ... .. A ... ... ... : ... .. 3 ... ... ... : ... .. . ... ... ... : ... .. . ... ... ... : ... .. . ... ... ...
ROW 32 : ... .. . ... ... ... : ... .. . ... ... ... : ... .. . ... ... ... : ... .. . ... ... ... : ... .. . ... ... ... : ... .. . ... ... ... : ... .. . P81 ... ... : ... .. . ... ... ... : ... .. . ... ... ... : ... .. . ... ... ... : ... .. . ... ... ... : ... .. . ... ... ... : ... .. . ... ... ...
ROW 33 : ... .. . ... ... ... : ... .. . ... ... ... : ... .. . ... ... ... : ... .. 4 ... ... ... : ... .. . ... ... ... : D-2 09 . ... ... ... : C#2 09 . P7F ... ... : ... .. . ... ... ... : D-2 09 . ... ... ... : D-3 09 . ... ... ... : ... .. . ... ... ... : ... .. . ... ... ... : ... .. . ... ... ...
ROW 34 : ... .. . ... ... ... : ... .. . ... ... ... : ... .. . ... ... ... : ... .. . ... ... ... : ... .. . ... ... ... : ... .. . ... ... ... : D-2 09 . P81 ... ... : ... .. . ... ... ... : ... .. . ... ... ... : ... .. . ... ... ... : ... .. . ... ... ... : ... .. . ... ... ... : ... .. . ... ... ...
ROW 35 : ... .. . ... ... ... : ... .. . ... ... ... : ... .. . ... ... ... : ... .. 3 ... ... ... : ... .. . ... ... ... : ... .. . ... ... ... : ... .. . P80 ... ... : ... .. . ... ... ... : ... .. . ... ... ... : ... .. 2 ... ... ... : ... .. . ... ... ... : ... .. . ... ... ... : ... .. . ... ... ...
ROW 36 : ... .. . ... ... ... : F-3 02 . P80 ... ... : C#4 00 . P7F ... ... : 1-# 00 F ... ... ... : C-1 12 . ... ... ... : --- .. . ... ... ... : --- .. . ... ... ... : ... .. . ... ... ... : --- .. . ... ... ... : --- .. . ... ... ... : ... .. . ... ... ... : ... .. . ... ... ... : ... .. . ... ... ...
ROW 37 : ... .. . ... ... ... : A#2 02 . P81 ... ... : F#3 00 . P83 ... ... : 2-# 00 7 ... ... ... : ... .. . ... ... ... : ... .. . ... ... ... : ... .. . ... ... ... : ... .. . ... ... ... : ... .. . P80 ... ... : ... .. . P80 ... ... : ... .. . ... ... ... : ... .. . ... ... ... : ... .. . ... ... ...
ROW 38 : ... .. . ... ... ... : D#2 02 . ... ... ... : C#3 00 . P89 ... ... : 1-# 00 4 ... ... ... : ... .. . ... ... ... : ... .. . ... ... ... : ... .. . ... ... ... : ... .. . ... ... ... : ... .. . ... ... ... : ... .. . ... ... ... : ... .. . ... ... ... : ... .. . ... ... ... : ... .. . ... ... ...
ROW 39 : ... .. . ... ... ... : G#1 02 . ... ... ... : A#2 00 . P75 ... ... : ... .. 2 ... ... ... : ... .. . ... ... ... : ... .. . ... ... ... : ... .. . ... ... ... : ... .. . ... ... ... : ... .. . ... ... ... : ... .. . ... ... ... : ... .. . ... ... ... : ... .. . ... ... ... : ... .. . ... ... ...
ROW 3A : ... .. . ... ... ... : C#1 02 . ... ... ... : G-2 00 . P70 ... ... : ... .. 1 ... ... ... : ... .. . ... ... ... : ... .. . ... ... ... : ... .. . ... ... ... : ... .. . ... ... ... : ... .. . ... ... ... : ... .. . ... ... ... : ... .. . ... ... ... : ... .. . ... ... ... : ... .. . ... ... ...
ROW 3B : ... .. . ... ... ... : ... .. . ... ... ... : E-2 00 . P7C ... ... : --- .. . ... ... ... : ... .. . ... ... ... : ... .. . ... ... ... : ... .. . ... ... ... : ... .. . ... ... ... : ... .. . ... ... ... : ... .. . ... ... ... : ... .. . ... ... ... : ... .. . ... ... ... : ... .. . ... ... ...
ROW 3C : ... .. . ... ... ... : ... .. . ... ... ... : D-2 00 . P6F ... ... : ... .. . ... ... ... : ... .. . ... ... ... : ... .. . ... ... ... : ... .. . ... ... ... : ... .. . ... ... ... : ... .. . ... ... ... : ... .. . ... ... ... : ... .. . ... ... ... : ... .. . ... ... ... : ... .. . ... ... ...
ROW 3D : ... .. . ... ... ... : ... .. . ... ... ... : C-2 00 . P6C ... ... : ... .. . ... ... ... : ... .. . ... ... ... : ... .. . ... ... ... : ... .. . ... ... ... : ... .. . ... ... ... : ... .. . ... ... ... : ... .. . ... ... ... : ... .. . ... ... ... : ... .. . ... ... ... : ... .. . ... ... ...
ROW 3E : ... .. . ... ... ... : ... .. . ... ... ... : A#1 00 . P75 ... ... : ... .. . ... ... ... : ... .. . ... ... ... : ... .. . ... ... ... : ... .. . ... ... ... : ... .. . ... ... ... : ... .. . ... ... ... : ... .. . ... ... ... : ... .. . ... ... ... : ... .. . ... ... ... : ... .. . ... ... ...
ROW 3F : ... .. . ... ... ... : ... .. . ... ... ... : G#1 00 . P8A ... ... : ... .. . ... ... ... : ... .. . ... ... ... : C-2 07 . ... ... ... : C-2 07 . P81 ... ... : ... .. . ... ... ... : ... .. . ... ... ... : ... .. . ... ... ... : ... .. . ... ... ... : ... .. . ... ... ... : ... .. . ... ... ...
ROW 40 : ... .. . ... ... ... : ... .. . ... ... ... : G-1 00 . P6A ... ... : ... .. . ... ... ... : ... .. . ... ... ... : ... .. . ... ... ... : B-1 07 . P7F ... ... : ... .. . ... ... ... : ... .. . ... ... ... : ... .. . ... ... ... : ... .. . ... ... ... : ... .. . ... ... ... : ... .. . ... ... ...
ROW 41 : ... .. . ... ... ... : ... .. . ... ... ... : F-1 00 . P96 ... ... : ... .. . ... ... ... : ... .. . ... ... ... : ... .. . ... ... ... : C-2 07 . P81 ... ... : ... .. . ... ... ... : ... .. . ... ... ... : ... .. . ... ... ... : ... .. . ... ... ... : ... .. . ... ... ... : ... .. . ... ... ...
ROW 42 : ... .. . ... ... ... : ... .. . ... ... ... : E-1 00 . P82 ... ... : ... .. . ... ... ... : ... .. . ... ... ... : ... .. . ... ... ... : ... .. . P80 ... ... : ... .. . ... ... ... : ... .. . ... ... ... : ... .. . ... ... ... : ... .. . ... ... ... : ... .. . ... ... ... : ... .. . ... ... ...
ROW 43 : ... .. . ... ... ... : C-4 02 . P80 ... ... : F#3 00 . P78 ... ... : 1-# 00 F ... ... ... : C-1 12 . ... ... ... : C#2 06 . ... ... ... : C#2 06 . P81 ... ... : ... .. . ... ... ... : C#2 06 8 P7F ... ... : ... .. . ... ... ... : ... .. . ... ... ... : ... .. . ... ... ... : ... .. . ... ... ...
ROW 44 : ... .. . ... ... ... : F-3 02 . ... ... ... : C#3 00 . P7E ... ... : 2-# 00 7 ... ... ... : ... .. . ... ... ... : ... .. . ... ... ... : C-2 06 . P7F ... ... : ... .. . ... ... ... : ... .. . ... ... ... : ... .. . ... ... ... : ... .. . ... ... ... : ... .. . ... ... ... : ... .. . ... ... ...
ROW 45 : ... .. . ... ... ... : A#2 02 . P81 ... ... : A-2 00 . P86 ... ... : 1-# 00 4 ... ... ... : ... .. . ... ... ... : ... .. . ... ... ... : C#2 06 . P82 ... ... : ... .. . ... ... ... : ... .. . ... ... ... : ... .. . ... ... ... : ... .. . ... ... ... : ... .. . ... ... ... : ... .. . ... ... ...
ROW 46 : ... .. . ... ... ... : D#2 02 . ... ... ... : --- .. . ... ... ... : ... .. 2 ... ... ... : ... .. . ... ... ... : C#2 09 . ... ... ... : C#2 09 . P81 ... ... : ... .. . ... ... ... : C#2 09 . ... ... ... : ... .. . ... ... ... : ... .. . ... ... ... : ... .. . ... ... ... : ... .. . ... ... ...
ROW 47 : ... .. . ... ... ... : G#1 02 . ... ... ... : ... .. . ... ... ... : ... .. 1 ... ... ... : ... .. . ... ... ... : ... .. . ... ... ... : ... .. . ... ... ... : ... .. . ... ... ... : ... .. . ... ... ... : ... .. . ... ... ... : ... .. . ... ... ... : ... .. . ... ... ... : ... .. . ... ... ...
ROW 48 : ... .. . ... ... ... : C#1 02 . ... ... ... : ... .. . ... ... ... : --- .. . ... ... ... : ... .. . ... ... ... : ... .. . ... ... ... : ... .. . P82 ... ... : ... .. . ... ... ... : ... .. . ... ... ... : ... .. . ... ... ... : ... .. . ... ... ... : ... .. . ... ... ... : ... .. . ... ... ...
ROW 49 : ... .. . ... ... ... : ... .. . ... ... ... : ... .. . ... ... ... : ... .. . ... ... ... : ... .. . ... ... ... : C#2 06 . ... ... ... : C#2 06 . ... ... ... : ... .. . ... ... ... : C#2 06 7 ... ... ... : ... .. . ... ... ... : ... .. . ... ... ... : ... .. . ... ... ... : ... .. . ... ... ...
ROW 4A : ... .. . ... ... ... : ... .. . ... ... ... : ... .. . ... ... ... : ... .. . ... ... ... : ... .. . ... ... ... : ... .. . ... ... ... : ... .. . P81 ... ... : ... .. . ... ... ... : ... .. . ... ... ... : ... .. . ... ... ... : ... .. . ... ... ... : ... .. . ... ... ... : ... .. . ... ... ...
ROW 4B : ... .. . ... ... ... : ... .. . ... ... ... : ... .. . ... ... ... : ... .. . ... ... ... : ... .. . ... ... ... : ... .. . ... ... ... : ... .. . P80 ... ... : ... .. . ... ... ... : ... .. . ... ... ... : ... .. . ... ... ... : ... .. . ... ... ... : ... .. . ... ... ... : ... .. . ... ... ...
ROW 4C : ... .. . ... ... ... : ... .. . ... ... ... : ... .. . ... ... ... : ... .. . ... ... ... : ... .. . ... ... ... : C#2 09 . ... ... ... : C#2 09 . P81 ... ... : ... .. . ... ... ... : C#2 09 . ... ... ... : ... .. . ... ... ... : ... .. . ... ... ... : ... .. . ... ... ... : ... .. . ... ... ...
ROW 4D : ... .. . ... ... ... : ... .. . ... ... ... : ... .. . ... ... ... : ... .. . ... ... ... : ... .. . ... ... ... : ... .. . ... ... ... : C-2 09 . P7F ... ... : ... .. . ... ... ... : ... .. . ... ... ... : ... .. . ... ... ... : ... .. . ... ... ... : ... .. . ... ... ... : ... .. . ... ... ...
ROW 4E : ... .. . ... ... ... : ... .. . ... ... ... : ... .. . ... ... ... : ... .. . ... ... ... : ... .. . ... ... ... : ... .. . ... ... ... : C#2 09 . P81 ... ... : ... .. . ... ... ... : ... .. . ... ... ... : ... .. . ... ... ... : ... .. . ... ... ... : ... .. . ... ... ... : ... .. . ... ... ...
ROW 4F : ... .. . ... ... ... : ... .. . ... ... ... : ... .. . ... ... ... : D-# 00 A ... ... ... : ... .. . ... ... ... : C#2 06 . ... ... ... : C#2 06 . P80 ... ... : ... .. . ... ... ... : C#2 06 . ... ... ... : ... .. . ... ... ... : ... .. . ... ... ... : ... .. . ... ... ... : ... .. . ... ... ...
ROW 50 : ... .. . ... ... ... : ... .. . ... ... ... : ... .. . ... ... ... : E-# 00 4 ... ... ... : ... .. . ... ... ... : ... .. . ... ... ... : ... .. . P81 ... ... : ... .. . ... ... ... : ... .. . ... ... ... : ... .. . ... ... ... : ... .. . ... ... ... : ... .. . ... ... ... : ... .. . ... ... ...
ROW 51 : ... .. . ... ... ... : ... .. . ... ... ... : ... .. . ... ... ... : D-# 00 2 ... ... ... : ... .. . ... ... ... : ... .. . ... ... ... : C-2 06 . P7F ... ... : ... .. . ... ... ... : ... .. 6 ... ... ... : ... .. . ... ... ... : ... .. . ... ... ... : ... .. . ... ... ... : ... .. . ... ... ...
ROW 52 : ... .. . ... ... ... : ... .. . ... ... ... : ... .. . ... ... ... : ... .. 1 ... ... ... : ... .. . ... ... ... : C#2 09 . ... ... ... : C#2 09 . P81 ... ... : ... .. . ... ... ... : C#2 09 . ... ... ... : ... .. . ... ... ... : ... .. . ... ... ... : ... .. . ... ... ... : ... .. . ... ... ...
ROW 53 : ... .. . ... ... ... : ... .. . ... ... ... : ... .. . ... ... ... : ... .. . ... ... ... : ... .. . ... ... ... : ... .. . ... ... ... : ... .. . P80 ... ... : ... .. . ... ... ... : ... .. . ... ... ... : ... .. . ... ... ... : ... .. . ... ... ... : ... .. . ... ... ... : ... .. . ... ... ...
ROW 54 : ... .. . ... ... ... : ... .. . ... ... ... : ... .. . ... ... ... : --- .. . ... ... ... : ... .. . ... ... ... : ... .. . ... ... ... : ... .. . P81 ... ... : ... .. . ... ... ... : ... .. . ... ... ... : ... .. . ... ... ... : ... .. . ... ... ... : ... .. . ... ... ... : ... .. . ... ... ...
ROW 55 : ... .. . ... ... ... : ... .. . ... ... ... : ... .. . ... ... ... : D-# 00 A ... ... ... : ... .. . ... ... ... : C#2 06 . ... ... ... : C-2 06 . P7F ... ... : ... .. . ... ... ... : C#2 06 . ... ... ... : ... .. . ... ... ... : ... .. . ... ... ... : ... .. . ... ... ... : ... .. . ... ... ...
ROW 56 : ... .. . ... ... ... : ... .. . ... ... ... : ... .. . ... ... ... : E-# 00 4 ... ... ... : ... .. . ... ... ... : ... .. . ... ... ... : C#2 06 . P82 ... ... : ... .. . ... ... ... : ... .. . ... ... ... : ... .. . ... ... ... : ... .. . ... ... ... : ... .. . ... ... ... : ... .. . ... ... ...
ROW 57 : ... .. . ... ... ... : ... .. . ... ... ... : ... .. . ... ... ... : D-# 00 2 ... ... ... : ... .. . ... ... ... : ... .. . ... ... ... : ... .. . P81 ... ... : ... .. . ... ... ... : ... .. . ... ... ... : ... .. . ... ... ... : ... .. . ... ... ... : ... .. . ... ... ... : ... .. . ... ... ...
ROW 58 : ... .. . ... ... ... : ... .. . ... ... ... : ... .. . ... ... ... : ... .. 1 ... ... ... : ... .. . ... ... ... : C#2 09 . ... ... ... : C#2 09 . ... ... ... : ... .. . ... ... ... : C#2 09 . ... ... ... : ... .. . ... ... ... : ... .. . ... ... ... : ... .. . ... ... ... : ... .. . ... ... ...
ROW 59 : ... .. . ... ... ... : ... .. . ... ... ... : ... .. . ... ... ... : ... .. . ... ... ... : ... .. . ... ... ... : ... .. . ... ... ... : ... .. . P82 ... ... : ... .. . ... ... ... : ... .. 5 ... ... ... : ... .. . ... ... ... : ... .. . ... ... ... : ... .. . ... ... ... : ... .. . ... ... ...
ROW 5A : ... .. . ... ... ... : ... .. . ... ... ... : ... .. . ... ... ... : --- .. . ... ... ... : ... .. . ... ... ... : ... .. . ... ... ... : C-2 09 . P7F ... ... : ... .. . ... ... ... : ... .. . ... ... ... : ... .. . ... ... ... : ... .. . ... ... ... : ... .. . ... ... ... : ... .. . ... ... ...
ROW 5B : ... .. . ... ... ... : ... .. . ... ... ... : ... .. . ... ... ... : ... .. . ... ... ... : ... .. . ... ... ... : ... .. . ... ... ... : C#2 09 . P81 ... ... : ... .. . ... ... ... : ... .. . ... ... ... : ... .. . ... ... ... : ... .. . ... ... ... : ... .. . ... ... ... : ... .. . ... ... ...
ROW 5C : ... .. . ... ... ... : C-4 02 . P80 ... ... : C#4 00 . P7F ... ... : 9-# 00 F ... ... ... : C#1 12 . ... ... ... : G-1 06 . ... ... ... : G-1 06 . P80 ... ... : ... .. . ... ... ... : G-1 06 . ... ... ... : ... .. . ... ... ... : ... .. . ... ... ... : ... .. . ... ... ... : ... .. . ... ... ...
ROW 5D : ... .. . ... ... ... : F-3 02 . ... ... ... : F#3 00 . P83 ... ... : 2-# 00 7 ... ... ... : ... .. . ... ... ... : ... .. . ... ... ... : ... .. . P81 ... ... : ... .. . ... ... ... : ... .. . ... ... ... : ... .. . ... ... ... : ... .. . ... ... ... : ... .. . ... ... ... : ... .. . ... ... ...
ROW 5E : ... .. . ... ... ... : A#2 02 . P81 ... ... : C#3 00 . P89 ... ... : 6-# 00 C ... ... ... : ... .. . ... ... ... : ... .. . ... ... ... : F#1 06 . P80 ... ... : ... .. . ... ... ... : ... .. . ... ... ... : ... .. . ... ... ... : ... .. . ... ... ... : ... .. . ... ... ... : ... .. . ... ... ...
ROW 5F : ... .. . ... ... ... : D#2 02 . ... ... ... : A#2 00 . P75 ... ... : 7-# 00 8 ... ... ... : ... .. . ... ... ... : ... .. . ... ... ... : G-1 06 . P81 ... ... : ... .. . ... ... ... : ... .. . ... ... ... : ... .. . ... ... ... : ... .. . ... ... ... : ... .. . ... ... ... : ... .. . ... ... ...
ROW 60 : ... .. . ... ... ... : G#1 02 . ... ... ... : G-2 00 . P70 ... ... : 8-# 00 7 ... ... ... : ... .. . ... ... ... : ... .. . ... ... ... : ... .. . P80 ... ... : ... .. . ... ... ... : ... .. . ... ... ... : ... .. . ... ... ... : ... .. . ... ... ... : ... .. . ... ... ... : ... .. . ... ... ...
ROW 61 : ... .. . ... ... ... : C#1 02 . ... ... ... : E-2 00 . P7C ... ... : ... .. 6 ... ... ... : ... .. . ... ... ... : ... .. . ... ... ... : ... .. . P81 ... ... : ... .. . ... ... ... : ... .. 4 ... ... ... : ... .. . ... ... ... : ... .. . ... ... ... : ... .. . ... ... ... : ... .. . ... ... ...
ROW 62 : ... .. . ... ... ... : ... .. . ... ... ... : --- .. . ... ... ... : ... .. . ... ... ... : ... .. . ... ... ... : G-1 07 . ... ... ... : F#1 07 . P80 ... ... : ... .. . ... ... ... : G-1 07 . ... ... ... : ... .. . ... ... ... : ... .. . ... ... ... : ... .. . ... ... ... : ... .. . ... ... ...
ROW 63 : ... .. . ... ... ... : ... .. . ... ... ... : ... .. . ... ... ... : ... .. 5 ... ... ... : ... .. . ... ... ... : ... .. . ... ... ... : G-1 07 . P81 ... ... : ... .. . ... ... ... : ... .. . ... ... ... : ... .. . ... ... ... : ... .. . ... ... ... : ... .. . ... ... ... : ... .. . ... ... ...
ROW 64 : ... .. . ... ... ... : ... .. . ... ... ... : ... .. . ... ... ... : ... .. . ... ... ... : ... .. . ... ... ... : ... .. . ... ... ... : ... .. . P80 ... ... : ... .. . ... ... ... : ... .. . ... ... ... : ... .. . ... ... ... : ... .. . ... ... ... : ... .. . ... ... ... : ... .. . ... ... ...
ROW 65 : ... .. . ... ... ... : ... .. . ... ... ... : ... .. . ... ... ... : ... .. 4 ... ... ... : ... .. . ... ... ... : G-1 08 . ... ... ... : G-1 08 . P81 ... ... : ... .. . ... ... ... : G-1 08 . ... ... ... : ... .. . ... ... ... : ... .. . ... ... ... : ... .. . ... ... ... : ... .. . ... ... ...
ROW 66 : ... .. . ... ... ... : ... .. . ... ... ... : ... .. . ... ... ... : ... .. . ... ... ... : ... .. . ... ... ... : ... .. . ... ... ... : F#1 08 . P80 ... ... : ... .. . ... ... ... : ... .. . ... ... ... : ... .. . ... ... ... : ... .. . ... ... ... : ... .. . ... ... ... : ... .. . ... ... ...
ROW 67 : ... .. . ... ... ... : ... .. . ... ... ... : ... .. . ... ... ... : ... .. 3 ... ... ... : ... .. . ... ... ... : ... .. . ... ... ... : ... .. . ... ... ... : ... .. . ... ... ... : ... .. . ... ... ... : ... .. . ... ... ... : ... .. . ... ... ... : ... .. . ... ... ... : ... .. . ... ... ...
ROW 68 : ... .. . ... ... ... : ... .. . ... ... ... : ... .. . ... ... ... : 6-# 01 F ... ... ... : ... .. . ... ... ... : B-1 06 . ... ... ... : B-1 06 . P81 ... ... : ... .. . ... ... ... : B-1 06 . ... ... ... : ... .. . ... ... ... : ... .. . ... ... ... : ... .. . ... ... ... : ... .. . ... ... ...
ROW 69 : ... .. . ... ... ... : ... .. . ... ... ... : ... .. . ... ... ... : ... .. 9 ... ... ... : ... .. . ... ... ... : ... .. . ... ... ... : ... .. . ... ... ... : ... .. . ... ... ... : ... .. 3 ... ... ... : ... .. . ... ... ... : ... .. . ... ... ... : ... .. . ... ... ... : ... .. . ... ... ...
ROW 6A : ... .. . ... ... ... : ... .. . ... ... ... : ... .. . ... ... ... : ... .. 4 ... ... ... : ... .. . ... ... ... : ... .. . ... ... ... : A#1 06 . P7F ... ... : ... .. . ... ... ... : ... .. . ... ... ... : ... .. . ... ... ... : ... .. . ... ... ... : ... .. . ... ... ... : ... .. . ... ... ...
ROW 6B : ... .. . ... ... ... : ... .. . ... ... ... : ... .. . ... ... ... : ... .. 7 ... ... ... : ... .. . ... ... ... : ... .. . ... ... ... : ... .. . P80 ... ... : ... .. . ... ... ... : ... .. . ... ... ... : ... .. . ... ... ... : ... .. . ... ... ... : ... .. . ... ... ... : ... .. . ... ... ...
ROW 6C : ... .. . ... ... ... : ... .. . ... ... ... : ... .. . ... ... ... : ... .. 5 ... ... ... : ... .. . ... ... ... : ... .. . ... ... ... : B-1 06 . P81 ... ... : ... .. . ... ... ... : ... .. . ... ... ... : ... .. . ... ... ... : ... .. . ... ... ... : ... .. . ... ... ... : ... .. . ... ... ...
ROW 6D : ... .. . ... ... ... : ... .. . ... ... ... : ... .. . ... ... ... : ... .. . ... ... ... : ... .. . ... ... ... : ... .. . ... ... ... : ... .. . P80 ... ... : ... .. . ... ... ... : ... .. . ... ... ... : ... .. . ... ... ... : ... .. . ... ... ... : ... .. . ... ... ... : ... .. . ... ... ...
ROW 6E : ... .. . ... ... ... : ... .. . ... ... ... : ... .. . ... ... ... : ... .. 4 ... ... ... : ... .. . ... ... ... : B-1 07 . ... ... ... : B-1 07 . P81 ... ... : ... .. . ... ... ... : B-1 07 . ... ... ... : ... .. . ... ... ... : ... .. . ... ... ... : ... .. . ... ... ... : ... .. . ... ... ...
ROW 6F : ... .. . ... ... ... : ... .. . ... ... ... : ... .. . ... ... ... : ... .. . ... ... ... : ... .. . ... ... ... : ... .. . ... ... ... : A#1 07 . P80 ... ... : ... .. . ... ... ... : ... .. . ... ... ... : ... .. . ... ... ... : ... .. . ... ... ... : ... .. . ... ... ... : ... .. . ... ... ...
ROW 70 : ... .. . ... ... ... : ... .. . ... ... ... : ... .. . ... ... ... : ... .. 3 ... ... ... : ... .. . ... ... ... : ... .. . ... ... ... : B-1 07 . P81 ... ... : ... .. . ... ... ... : ... .. . ... ... ... : ... .. . ... ... ... : ... .. . ... ... ... : ... .. . ... ... ... : ... .. . ... ... ...
ROW 71 : ... .. . ... ... ... : ... .. . ... ... ... : ... .. . ... ... ... : ... .. 2 ... ... ... : ... .. . ... ... ... : B-1 08 . ... ... ... : B-1 08 . P80 ... ... : ... .. . ... ... ... : B-1 08 2 ... ... ... : ... .. . ... ... ... : ... .. . ... ... ... : ... .. . ... ... ... : ... .. . ... ... ...
ROW 72 : ... .. . ... ... ... : ... .. . ... ... ... : ... .. . ... ... ... : ... .. . ... ... ... : ... .. . ... ... ... : ... .. . ... ... ... : ... .. . P81 ... ... : ... .. . ... ... ... : ... .. . ... ... ... : ... .. . ... ... ... : ... .. . ... ... ... : ... .. . ... ... ... : ... .. . ... ... ...
ROW 73 : ... .. . ... ... ... : ... .. . ... ... ... : ... .. . ... ... ... : ... .. 1 ... ... ... : ... .. . ... ... ... : ... .. . ... ... ... : A#1 08 . P80 ... ... : ... .. . ... ... ... : ... .. . ... ... ... : ... .. . ... ... ... : ... .. . ... ... ... : ... .. . ... ... ... : ... .. . ... ... ...
ROW 74 : ... .. . ... ... ... : ... .. . ... ... ... : ... .. . ... ... ... : ... .. . ... ... ... : ... .. . ... ... ... : ... .. . ... ... ... : B-1 08 . P81 ... ... : ... .. . ... ... ... : ... .. . ... ... ... : ... .. . ... ... ... : ... .. . ... ... ... : ... .. . ... ... ... : ... .. . ... ... ...
ROW 75 : ... .. . ... ... ... : C-4 02 . P80 ... ... : F#3 00 . P78 ... ... : 1-# 00 F ... ... ... : C-1 12 . ... ... ... : G#1 06 . ... ... ... : G#1 06 . P80 ... ... : ... .. . ... ... ... : G#1 06 . ... ... ... : ... .. . ... ... ... : ... .. . ... ... ... : ... .. . ... ... ... : ... .. . ... ... ...
ROW 76 : ... .. . ... ... ... : F-3 02 . ... ... ... : C#3 00 . P7E ... ... : 2-# 00 7 ... ... ... : ... .. . ... ... ... : ... .. . ... ... ... : ... .. . P81 ... ... : ... .. . ... ... ... : ... .. . ... ... ... : ... .. . ... ... ... : ... .. . ... ... ... : ... .. . ... ... ... : ... .. . ... ... ...
ROW 77 : ... .. . ... ... ... : A#2 02 . P81 ... ... : A-2 00 . P86 ... ... : 1-# 00 4 ... ... ... : ... .. . ... ... ... : ... .. . ... ... ... : G-1 06 . P80 ... ... : ... .. . ... ... ... : ... .. . ... ... ... : ... .. . ... ... ... : ... .. . ... ... ... : ... .. . ... ... ... : ... .. . ... ... ...
ROW 78 : ... .. . ... ... ... : D#2 02 . ... ... ... : --- .. . ... ... ... : ... .. 2 ... ... ... : ... .. . ... ... ... : ... .. . ... ... ... : ... .. . ... ... ... : ... .. . ... ... ... : ... .. . ... ... ... : ... .. . ... ... ... : ... .. . ... ... ... : ... .. . ... ... ... : ... .. . ... ... ...
ROW 79 : ... .. . ... ... ... : G#1 02 . ... ... ... : ... .. . ... ... ... : ... .. 1 ... ... ... : ... .. . ... ... ... : ... .. . ... ... ... : G#1 06 . P81 ... ... : ... .. . ... ... ... : ... .. 1 ... ... ... : ... .. . ... ... ... : ... .. . ... ... ... : ... .. . ... ... ... : ... .. . ... ... ...
ROW 7A : ... .. . ... ... ... : C#1 02 . ... ... ... : ... .. . ... ... ... : --- .. . ... ... ... : ... .. . ... ... ... : ... .. . ... ... ... : ... .. . P80 ... ... : ... .. . ... ... ... : ... .. . ... ... ... : ... .. . ... ... ... : ... .. . ... ... ... : ... .. . ... ... ... : ... .. . ... ... ...
ROW 7B : ... .. . ... ... ... : ... .. . ... ... ... : ... .. . ... ... ... : ... .. . ... ... ... : ... .. . ... ... ... : G#1 07 . ... ... ... : G#1 07 . P81 ... ... : ... .. . ... ... ... : G#1 07 . ... ... ... : ... .. . ... ... ... : ... .. . ... ... ... : ... .. . ... ... ... : ... .. . ... ... ...
ROW 7C : ... .. . ... ... ... : ... .. . ... ... ... : ... .. . ... ... ... : ... .. . ... ... ... : ... .. . ... ... ... : ... .. . ... ... ... : G-1 07 . P80 ... ... : ... .. . ... ... ... : ... .. . ... ... ... : ... .. . ... ... ... : ... .. . ... ... ... : ... .. . ... ... ... : ... .. . ... ... ...
ROW 7D : ... .. . ... ... ... : ... .. . ... ... ... : ... .. . ... ... ... : ... .. . ... ... ... : ... .. . ... ... ... : ... .. . ... ... ... : G#1 07 . P81 ... ... : ... .. . ... ... ... : ... .. . ... ... ... : ... .. . ... ... ... : ... .. . ... ... ... : ... .. . ... ... ... : ... .. . ... ... ...
ROW 7E : ... .. . ... ... ... : ... .. . ... ... ... : ... .. . ... ... ... : ... .. . ... ... ... : ... .. . ... ... ... : G-1 07 . ... ... ... : G-1 07 . P80 ... ... : ... .. . ... ... ... : ... .. . P81 ... ... : ... .. . ... ... ... : ... .. . ... ... ... : ... .. . ... ... ... : ... .. . ... ... ...
ROW 7F : ... .. . ... ... ... : ... .. . ... ... ... : ... .. . ... ... ... : ... .. . ... ... ... : ... .. . ... ... ... : F#1 07 . ... ... ... : F#1 07 . P81 ... ... : ... .. . ... ... ... : G-1 07 . ... ... ... : ... .. . ... ... ... : ... .. . ... ... ... : ... .. . ... ... ... : ... .. . ... ... ...
ROW 80 : ... .. . ... ... ... : ... .. . ... ... ... : ... .. . ... ... ... : ... .. . ... ... ... : ... .. . ... ... ... : F-1 07 . ... ... ... : E-1 07 . P80 ... ... : ... .. . ... ... ... : F#1 07 . ... ... ... : ... .. . ... ... ... : ... .. . ... ... ... : ... .. . ... ... ... : ... .. . ... ... ...
ROW 81 : ... .. . ... ... ... : ... .. . ... ... ... : ... .. . ... ... ... : D-# 00 A ... ... ... : ... .. . ... ... ... : E-1 08 . ... ... ... : E-1 08 . P81 ... ... : G#6 03 7 ... ... ... : --- .. . ... ... ... : ... .. . ... ... ... : ... .. . ... ... ... : ... .. . ... ... ... : ... .. . ... ... ...
ROW 82 : ... .. . ... ... ... : ... .. . ... ... ... : ... .. . ... ... ... : E-# 00 4 ... ... ... : ... .. . ... ... ... : D#1 08 . ... ... ... : D#1 08 . P80 ... ... : ... .. . ... ... ... : ... .. . P80 ... ... : ... .. . ... ... ... : ... .. . ... ... ... : ... .. . ... ... ... : ... .. . ... ... ...
ROW 83 : ... .. . ... ... ... : ... .. . ... ... ... : ... .. . ... ... ... : D-# 00 2 ... ... ... : ... .. . ... ... ... : D-1 08 . ... ... ... : D-1 08 . P81 ... ... : ... .. . ... ... ... : ... .. . ... ... ... : ... .. . ... ... ... : ... .. . ... ... ... : ... .. . ... ... ... : ... .. . ... ... ...
ROW 84 : ... .. . ... ... ... : ... .. . ... ... ... : ... .. . ... ... ... : ... .. 1 ... ... ... : ... .. . ... ... ... : C#1 08 . ... ... ... : C-1 08 . ... ... ... : ... .. 5 ... ... ... : ... .. . ... ... ... : ... .. . ... ... ... : ... .. . ... ... ... : ... .. . ... ... ... : ... .. . ... ... ...
ROW 85 : ... .. . ... ... ... : ... .. . ... ... ... : ... .. . ... ... ... : ... .. . ... ... ... : ... .. . ... ... ... : C-1 08 . P81 ... ... : B-0 08 . ... ... ... : ... .. . ... ... ... : ... .. . ... ... ... : ... .. . ... ... ... : ... .. . ... ... ... : ... .. . ... ... ... : ... .. . ... ... ...
ROW 86 : ... .. . ... ... ... : ... .. . ... ... ... : ... .. . ... ... ... : --- .. . ... ... ... : ... .. . ... ... ... : B-0 08 . ... ... ... : A#0 08 . P80 ... ... : ... .. . ... ... ... : ... .. . ... ... ... : ... .. . ... ... ... : ... .. . ... ... ... : ... .. . ... ... ... : ... .. . ... ... ...
ROW 87 : ... .. . ... ... ... : ... .. . ... ... ... : ... .. . ... ... ... : D-# 00 A ... ... ... : ... .. . ... ... ... : A-0 09 . P80 ... ... : A-0 09 . P81 ... ... : ... .. 3 ... ... ... : ... .. . ... ... ... : ... .. . ... ... ... : ... .. . ... ... ... : ... .. . ... ... ... : ... .. . ... ... ...
ROW 88 : ... .. . ... ... ... : ... .. . ... ... ... : ... .. . ... ... ... : E-# 00 4 ... ... ... : ... .. . ... ... ... : G-0 09 . ... ... ... : F#0 09 . P80 ... ... : ... .. . ... ... ... : ... .. . ... ... ... : ... .. . ... ... ... : ... .. . ... ... ... : ... .. . ... ... ... : ... .. . ... ... ...
ROW 89 : ... .. . ... ... ... : ... .. . ... ... ... : ... .. . ... ... ... : D-# 00 2 ... ... ... : ... .. . ... ... ... : F#0 09 . P81 ... ... : E-0 09 . ... ... ... : ... .. . ... ... ... : ... .. . ... ... ... : ... .. . ... ... ... : ... .. . ... ... ... : ... .. . ... ... ... : ... .. . ... ... ...
ROW 8A : ... .. . ... ... ... : ... .. . ... ... ... : ... .. . ... ... ... : ... .. 1 ... ... ... : ... .. . ... ... ... : E-0 09 . ... ... ... : D#0 09 . ... ... ... : ... .. 1 ... ... ... : ... .. . ... ... ... : ... .. . ... ... ... : ... .. . ... ... ... : ... .. . ... ... ... : ... .. . ... ... ...
ROW 8B : ... .. . ... ... ... : ... .. . ... ... ... : ... .. . ... ... ... : ... .. . ... ... ... : ... .. . ... ... ... : D-0 09 . ... ... ... : D-0 09 . P81 ... ... : ... .. . ... ... ... : ... .. . ... ... ... : ... .. . ... ... ... : ... .. . ... ... ... : ... .. . ... ... ... : ... .. . ... ... ...
ROW 8C : ... .. . ... ... ... : ... .. . ... ... ... : ... .. . ... ... ... : --- .. . ... ... ... : ... .. . ... ... ... : C-0 09 . ... ... ... : C-0 09 . P82 ... ... : ... .. . ... ... ... : ... .. . ... ... ... : ... .. . ... ... ... : ... .. . ... ... ... : ... .. . ... ... ... : ... .. . ... ... ...
ROW 8D : ... .. . ... ... ... : ... .. . ... ... ... : ... .. . ... ... ... : ... .. . ... ... ... : ... .. . ... ... ... : ... .. . P83 ... ... : ... .. . P85 ... ... : ... .. . ... ... ... : ... .. . ... ... ... : ... .. . ... ... ... : ... .. . ... ... ... : ... .. . ... ... ... : ... .. . ... ... ...
ROW 8E : ... .. . ... ... ... : C-4 02 . P80 ... ... : C#4 00 . P7F ... ... : 9-# 00 F ... ... ... : C#1 12 . ... ... ... : G#1 04 . P80 ... ... : C-0 04 . P86 ... ... : G-1 04 9 ... ... ... : A-1 04 9 P82 ... ... : ... .. . ... ... ... : ... .. . ... ... ... : ... .. . ... ... ... : ... .. . ... ... ...
ROW 8F : ... .. . ... ... ... : F-3 02 . ... ... ... : F#3 00 . P83 ... ... : 2-# 00 7 ... ... ... : ... .. . ... ... ... : ... .. . ... ... ... : ... .. . P87 ... ... : ... .. . ... ... ... : ... .. . ... ... ... : ... .. . ... ... ... : ... .. . ... ... ... : ... .. . ... ... ... : ... .. . ... ... ...
ROW 90 : ... .. . ... ... ... : A#2 02 . P81 ... ... : C#3 00 . P89 ... ... : 6-# 00 C ... ... ... : ... .. . ... ... ... : ... .. . ... ... ... : --- .. . P7D ... ... : ... .. . ... ... ... : ... .. . ... ... ... : ... .. . ... ... ... : ... .. . ... ... ... : ... .. . ... ... ... : ... .. . ... ... ...
ROW 91 : ... .. . ... ... ... : D#2 02 . ... ... ... : A#2 00 . P75 ... ... : 7-# 00 8 ... ... ... : ... .. . ... ... ... : ... .. . ... ... ... : ... .. . P80 ... ... : ... .. . ... ... ... : ... .. . ... ... ... : ... .. . ... ... ... : ... .. . ... ... ... : ... .. . ... ... ... : ... .. . ... ... ...
ROW 92 : ... .. . ... ... ... : G#1 02 . ... ... ... : G-2 00 . P70 ... ... : 8-# 00 7 ... ... ... : ... .. . ... ... ... : ... .. . ... ... ... : D#7 04 . P81 ... ... : ... .. 8 ... ... ... : ... .. . ... ... ... : ... .. . ... ... ... : ... .. . ... ... ... : ... .. . ... ... ... : ... .. . ... ... ...
ROW 93 : ... .. . ... ... ... : C#1 02 . ... ... ... : E-2 00 . P7C ... ... : ... .. 6 ... ... ... : ... .. . ... ... ... : ... .. . ... ... ... : --- .. . ... ... ... : ... .. . ... ... ... : ... .. . ... ... ... : ... .. . ... ... ... : ... .. . ... ... ... : ... .. . ... ... ... : ... .. . ... ... ...
ROW 94 : ... .. . ... ... ... : ... .. . ... ... ... : --- .. . ... ... ... : ... .. . ... ... ... : ... .. . ... ... ... : G#2 04 . ... ... ... : D#7 04 . ... ... ... : G#2 04 . P82 ... ... : G#2 04 . P7F ... ... : ... .. . ... ... ... : ... .. . ... ... ... : ... .. . ... ... ... : ... .. . ... ... ...
ROW 95 : ... .. . ... ... ... : ... .. . ... ... ... : ... .. . ... ... ... : ... .. 5 ... ... ... : ... .. . ... ... ... : ... .. . ... ... ... : ... .. . P82 ... ... : ... .. . ... ... ... : ... .. . ... ... ... : ... .. . ... ... ... : ... .. . ... ... ... : ... .. . ... ... ... : ... .. . ... ... ...
ROW 96 : ... .. . ... ... ... : ... .. . ... ... ... : ... .. . ... ... ... : ... .. . ... ... ... : ... .. . ... ... ... : ... .. . ... ... ... : ... .. . ... ... ... : ... .. 7 ... ... ... : ... .. 8 ... ... ... : ... .. . ... ... ... : ... .. . ... ... ... : ... .. . ... ... ... : ... .. . ... ... ...
ROW 97 : ... .. . ... ... ... : ... .. . ... ... ... : ... .. . ... ... ... : ... .. 4 ... ... ... : ... .. . ... ... ... : ... .. . ... ... ... : ... .. . P81 ... ... : ... .. . ... ... ... : ... .. . ... ... ... : ... .. . ... ... ... : ... .. . ... ... ... : ... .. . ... ... ... : ... .. . ... ... ...
ROW 98 : ... .. . ... ... ... : ... .. . ... ... ... : ... .. . ... ... ... : ... .. . ... ... ... : ... .. . ... ... ... : ... .. . ... ... ... : ... .. . ... ... ... : ... .. . ... ... ... : ... .. . ... ... ... : ... .. . ... ... ... : ... .. . ... ... ... : ... .. . ... ... ... : ... .. . ... ... ...
ROW 99 : ... .. . ... ... ... : ... .. . ... ... ... : ... .. . ... ... ... : ... .. 3 ... ... ... : ... .. . ... ... ... : ... .. . ... ... ... : ... .. . P82 ... ... : ... .. . ... ... ... : ... .. . ... ... ... : ... .. . ... ... ... : ... .. . ... ... ... : ... .. . ... ... ... : ... .. . ... ... ...
ROW 9A : ... .. . ... ... ... : ... .. . ... ... ... : ... .. . ... ... ... : D-# 00 A ... ... ... : ... .. . ... ... ... : G#1 04 . ... ... ... : --- .. . ... ... ... : G-1 04 6 P80 ... ... : A-1 04 . P82 ... ... : ... .. . ... ... ... : ... .. . ... ... ... : ... .. . ... ... ... : ... .. . ... ... ...
ROW 9B : ... .. . ... ... ... : ... .. . ... ... ... : ... .. . ... ... ... : E-# 00 4 ... ... ... : ... .. . ... ... ... : ... .. . ... ... ... : ... .. . P80 ... ... : ... .. . ... ... ... : ... .. . ... ... ... : ... .. . ... ... ... : ... .. . ... ... ... : ... .. . ... ... ... : ... .. . ... ... ...
ROW 9C : ... .. . ... ... ... : ... .. . ... ... ... : ... .. . ... ... ... : D-# 00 2 ... ... ... : ... .. . ... ... ... : ... .. . ... ... ... : ... .. . ... ... ... : ... .. . ... ... ... : ... .. . ... ... ... : ... .. . ... ... ... : ... .. . ... ... ... : ... .. . ... ... ... : ... .. . ... ... ...
ROW 9D : ... .. . ... ... ... : ... .. . ... ... ... : ... .. . ... ... ... : ... .. 1 ... ... ... : ... .. . ... ... ... : ... .. . ... ... ... : ... .. . ... ... ... : ... .. . ... ... ... : ... .. . ... ... ... : ... .. . ... ... ... : ... .. . ... ... ... : ... .. . ... ... ... : ... .. . ... ... ...
ROW 9E : ... .. . ... ... ... : ... .. . ... ... ... : ... .. . ... ... ... : ... .. . ... ... ... : ... .. . ... ... ... : ... .. . ... ... ... : ... .. . ... ... ... : ... .. 5 ... ... ... : ... .. 7 ... ... ... : ... .. . ... ... ... : ... .. . ... ... ... : ... .. . ... ... ... : ... .. . ... ... ...
ROW 9F : ... .. . ... ... ... : ... .. . ... ... ... : ... .. . ... ... ... : --- .. . ... ... ... : ... .. . ... ... ... : ... .. . ... ... ... : ... .. . ... ... ... : ... .. . ... ... ... : ... .. . ... ... ... : ... .. . ... ... ... : ... .. . ... ... ... : ... .. . ... ... ... : ... .. . ... ... ...
ROW A0 : ... .. . ... ... ... : ... .. . ... ... ... : ... .. . ... ... ... : D-# 00 A ... ... ... : ... .. . ... ... ... : G#2 04 . ... ... ... : ... .. . ... ... ... : G#2 04 . P82 ... ... : G#2 04 . P7F ... ... : ... .. . ... ... ... : ... .. . ... ... ... : ... .. . ... ... ... : ... .. . ... ... ...
ROW A1 : ... .. . ... ... ... : ... .. . ... ... ... : ... .. . ... ... ... : E-# 00 4 ... ... ... : ... .. . ... ... ... : ... .. . ... ... ... : ... .. . ... ... ... : ... .. . ... ... ... : ... .. . ... ... ... : ... .. . ... ... ... : ... .. . ... ... ... : ... .. . ... ... ... : ... .. . ... ... ...
ROW A2 : ... .. . ... ... ... : ... .. . ... ... ... : ... .. . ... ... ... : D-# 00 2 ... ... ... : ... .. . ... ... ... : ... .. . ... ... ... : ... .. . ... ... ... : ... .. 4 ... ... ... : ... .. . ... ... ... : ... .. . ... ... ... : ... .. . ... ... ... : ... .. . ... ... ... : ... .. . ... ... ...
ROW A3 : ... .. . ... ... ... : ... .. . ... ... ... : ... .. . ... ... ... : ... .. 1 ... ... ... : ... .. . ... ... ... : ... .. . ... ... ... : ... .. . ... ... ... : ... .. . ... ... ... : ... .. . ... ... ... : ... .. . ... ... ... : ... .. . ... ... ... : ... .. . ... ... ... : ... .. . ... ... ...
ROW A4 : ... .. . ... ... ... : ... .. . ... ... ... : ... .. . ... ... ... : ... .. . ... ... ... : ... .. . ... ... ... : ... .. . ... ... ... : ... .. . ... ... ... : ... .. . ... ... ... : ... .. . ... ... ... : ... .. . ... ... ... : ... .. . ... ... ... : ... .. . ... ... ... : ... .. . ... ... ...
ROW A5 : ... .. . ... ... ... : ... .. . ... ... ... : ... .. . ... ... ... : --- .. . ... ... ... : ... .. . ... ... ... : ... .. . ... ... ... : ... .. . ... ... ... : ... .. . ... ... ... : ... .. . ... ... ... : ... .. . ... ... ... : ... .. . ... ... ... : ... .. . ... ... ... : ... .. . ... ... ...
ROW A6 : ... .. . ... ... ... : ... .. . ... ... ... : ... .. . ... ... ... : ... .. . ... ... ... : ... .. . ... ... ... : ... .. . ... ... ... : ... .. . ... ... ... : ... .. 3 ... ... ... : ... .. 6 ... ... ... : ... .. . ... ... ... : ... .. . ... ... ... : ... .. . ... ... ... : ... .. . ... ... ...
ROW A7 : ... .. . ... ... ... : C-4 02 . P80 ... ... : F#3 00 . P78 ... ... : 1-# 00 F ... ... ... : C-1 12 . ... ... ... : B-4 0C 7 P7C ... ... : ... .. . ... ... ... : --- .. . ... ... ... : A#3 0C 1 P85 ... ... : ... .. . ... ... ... : ... .. . ... ... ... : ... .. . ... ... ... : ... .. . ... ... ...
ROW A8 : ... .. . ... ... ... : F-3 02 . ... ... ... : C#3 00 . P7E ... ... : 2-# 00 7 ... ... ... : ... .. . ... ... ... : A#4 0C . P79 ... ... : ... .. . ... ... ... : ... .. . P80 ... ... : G-3 0C . ... ... ... : ... .. . ... ... ... : ... .. . ... ... ... : ... .. . ... ... ... : ... .. . ... ... ...
ROW A9 : ... .. . ... ... ... : A#2 02 . P81 ... ... : A-2 00 . P86 ... ... : 1-# 00 4 ... ... ... : ... .. . ... ... ... : A-4 0C . P78 ... ... : ... .. . ... ... ... : ... .. . ... ... ... : D#3 0C . P82 ... ... : ... .. . ... ... ... : ... .. . ... ... ... : ... .. . ... ... ... : ... .. . ... ... ...
ROW AA : ... .. . ... ... ... : D#2 02 . ... ... ... : --- .. . ... ... ... : ... .. 2 ... ... ... : ... .. . ... ... ... : G#4 0C . ... ... ... : ... .. . ... ... ... : ... .. . ... ... ... : A#2 0C . P7F ... ... : ... .. . ... ... ... : ... .. . ... ... ... : ... .. . ... ... ... : ... .. . ... ... ...
ROW AB : ... .. . ... ... ... : G#1 02 . ... ... ... : ... .. . ... ... ... : ... .. 1 ... ... ... : ... .. . ... ... ... : G-4 0C . ... ... ... : ... .. . ... ... ... : ... .. . ... ... ... : E-2 0C . P81 ... ... : ... .. . ... ... ... : ... .. . ... ... ... : ... .. . ... ... ... : ... .. . ... ... ...
ROW AC : ... .. . ... ... ... : C#1 02 . ... ... ... : ... .. . ... ... ... : --- .. . ... ... ... : ... .. . ... ... ... : --- .. . ... ... ... : ... .. . ... ... ... : ... .. . ... ... ... : --- .. . ... ... ... : ... .. . ... ... ... : ... .. . ... ... ... : ... .. . ... ... ... : ... .. . ... ... ...
ROW AD : ... .. . ... ... ... : ... .. . ... ... ... : ... .. . ... ... ... : ... .. . ... ... ... : ... .. . ... ... ... : B-4 0C . P7C ... ... : ... .. . ... ... ... : ... .. . ... ... ... : A#3 0C . P85 ... ... : ... .. . ... ... ... : ... .. . ... ... ... : ... .. . ... ... ... : ... .. . ... ... ...
ROW AE : ... .. . ... ... ... : ... .. . ... ... ... : ... .. . ... ... ... : ... .. . ... ... ... : ... .. . ... ... ... : A#4 0C . P79 ... ... : ... .. . ... ... ... : ... .. . ... ... ... : G-3 0C . ... ... ... : ... .. . ... ... ... : ... .. . ... ... ... : ... .. . ... ... ... : ... .. . ... ... ...
ROW AF : ... .. . ... ... ... : ... .. . ... ... ... : ... .. . ... ... ... : ... .. . ... ... ... : ... .. . ... ... ... : A-4 0C . P78 ... ... : ... .. . ... ... ... : ... .. . ... ... ... : --- .. . ... ... ... : ... .. . ... ... ... : ... .. . ... ... ... : ... .. . ... ... ... : ... .. . ... ... ...
ROW B0 : ... .. . ... ... ... : ... .. . ... ... ... : ... .. . ... ... ... : ... .. . ... ... ... : ... .. . ... ... ... : G#4 0C . ... ... ... : ... .. . ... ... ... : ... .. . ... ... ... : ... .. . P80 ... ... : ... .. . ... ... ... : ... .. . ... ... ... : ... .. . ... ... ... : ... .. . ... ... ...
ROW B1 : ... .. . ... ... ... : ... .. . ... ... ... : ... .. . ... ... ... : ... .. . ... ... ... : ... .. . ... ... ... : G-4 0C . ... ... ... : ... .. . ... ... ... : ... .. . ... ... ... : ... .. . ... ... ... : ... .. . ... ... ... : ... .. . ... ... ... : ... .. . ... ... ... : ... .. . ... ... ...
ROW B2 : ... .. . ... ... ... : ... .. . ... ... ... : ... .. . ... ... ... : ... .. . ... ... ... : ... .. . ... ... ... : --- .. . ... ... ... : ... .. . ... ... ... : ... .. . ... ... ... : ... .. . ... ... ... : ... .. . ... ... ... : ... .. . ... ... ... : ... .. . ... ... ... : ... .. . ... ... ...
ROW B3 : ... .. . ... ... ... : ... .. . ... ... ... : ... .. . ... ... ... : D-# 00 A ... ... ... : ... .. . ... ... ... : B-2 05 A P80 ... ... : A#2 05 A P7F ... ... : B-2 05 9 P7E ... ... : G#2 05 9 P81 ... ... : ... .. . ... ... ... : ... .. . ... ... ... : ... .. . ... ... ... : ... .. . ... ... ...
ROW B4 : ... .. . ... ... ... : ... .. . ... ... ... : ... .. . ... ... ... : E-# 00 4 ... ... ... : ... .. . ... ... ... : ... .. . ... ... ... : ... .. . P7E ... ... : ... .. . ... ... ... : ... .. . ... ... ... : ... .. . ... ... ... : ... .. . ... ... ... : ... .. . ... ... ... : ... .. . ... ... ...
ROW B5 : ... .. . ... ... ... : ... .. . ... ... ... : ... .. . ... ... ... : D-# 00 2 ... ... ... : ... .. . ... ... ... : ... .. . ... ... ... : B-2 05 . P82 ... ... : ... .. . ... ... ... : ... .. . ... ... ... : ... .. . ... ... ... : ... .. . ... ... ... : ... .. . ... ... ... : ... .. . ... ... ...
ROW B6 : ... .. . ... ... ... : ... .. . ... ... ... : ... .. . ... ... ... : ... .. 1 ... ... ... : ... .. . ... ... ... : ... .. . ... ... ... : ... .. . P83 ... ... : ... .. . ... ... ... : ... .. . ... ... ... : ... .. . ... ... ... : ... .. . ... ... ... : ... .. . ... ... ... : ... .. . ... ... ...
ROW B7 : ... .. . ... ... ... : ... .. . ... ... ... : ... .. . ... ... ... : ... .. . ... ... ... : ... .. . ... ... ... : --- .. . ... ... ... : --- .. . ... ... ... : --- .. . ... ... ... : --- .. . ... ... ... : ... .. . ... ... ... : ... .. . ... ... ... : ... .. . ... ... ... : ... .. . ... ... ...
ROW B8 : ... .. . ... ... ... : ... .. . ... ... ... : ... .. . ... ... ... : --- .. . ... ... ... : ... .. . ... ... ... : ... .. . ... ... ... : ... .. . P80 ... ... : ... .. . P80 ... ... : ... .. . P80 ... ... : ... .. . ... ... ... : ... .. . ... ... ... : ... .. . ... ... ... : ... .. . ... ... ...
ROW B9 : ... .. . ... ... ... : ... .. . ... ... ... : ... .. . ... ... ... : D-# 00 A ... ... ... : ... .. . ... ... ... : B-2 05 4 ... ... ... : B-2 05 4 P83 ... ... : B-2 05 3 P7E ... ... : G#2 05 3 P81 ... ... : ... .. . ... ... ... : ... .. . ... ... ... : ... .. . ... ... ... : ... .. . ... ... ...
ROW BA : ... .. . ... ... ... : ... .. . ... ... ... : ... .. . ... ... ... : E-# 00 4 ... ... ... : ... .. . ... ... ... : ... .. . ... ... ... : ... .. . P82 ... ... : ... .. . ... ... ... : ... .. . ... ... ... : ... .. . ... ... ... : ... .. . ... ... ... : ... .. . ... ... ... : ... .. . ... ... ...
ROW BB : ... .. . ... ... ... : ... .. . ... ... ... : ... .. . ... ... ... : D-# 00 2 ... ... ... : ... .. . ... ... ... : ... .. . ... ... ... : A#2 05 . P7E ... ... : ... .. . ... ... ... : ... .. . ... ... ... : ... .. . ... ... ... : ... .. . ... ... ... : ... .. . ... ... ... : ... .. . ... ... ...
ROW BC : ... .. . ... ... ... : ... .. . ... ... ... : ... .. . ... ... ... : ... .. 1 ... ... ... : ... .. . ... ... ... : ... .. . ... ... ... : ... .. . P7F ... ... : ... .. . ... ... ... : ... .. . ... ... ... : ... .. . ... ... ... : ... .. . ... ... ... : ... .. . ... ... ... : ... .. . ... ... ...
ROW BD : ... .. . ... ... ... : ... .. . ... ... ... : ... .. . ... ... ... : ... .. . ... ... ... : ... .. . ... ... ... : ... .. . ... ... ... : ... .. . P7E ... ... : ... .. 2 ... ... ... : ... .. . ... ... ... : ... .. . ... ... ... : ... .. . ... ... ... : ... .. . ... ... ... : ... .. . ... ... ...
ROW BE : ... .. . ... ... ... : ... .. . ... ... ... : ... .. . ... ... ... : --- .. . ... ... ... : ... .. . ... ... ... : --- .. . ... ... ... : --- .. . ... ... ... : --- .. . ... ... ... : --- .. . ... ... ... : ... .. . ... ... ... : ... .. . ... ... ... : ... .. . ... ... ... : ... .. . ... ... ...
ROW BF : ... .. . ... ... ... : ... .. . ... ... ... : ... .. . ... ... ... : ... .. . ... ... ... : ... .. . ... ... ... : ... .. . ... ... ... : ... .. . P80 ... ... : ... .. . P80 ... ... : ... .. . P80 ... ... : ... .. . ... ... ... : ... .. . ... ... ... : ... .. . ... ... ... : ... .. . ... ... ...
ROW C0 : ... .. . ... ... ... : C-4 02 . P80 ... ... : C#4 00 . P7F ... ... : 9-# 00 F ... ... ... : C#1 12 . ... ... ... : C#3 05 A ... ... ... : C-3 05 A P7E ... ... : C#3 05 9 P7E ... ... : B-2 05 9 P81 ... ... : ... .. . ... ... ... : ... .. . ... ... ... : ... .. . ... ... ... : ... .. . ... ... ...
ROW C1 : ... .. . ... ... ... : F-3 02 . ... ... ... : F#3 00 . P83 ... ... : 2-# 00 7 ... ... ... : ... .. . ... ... ... : ... .. . ... ... ... : C#3 05 . P83 ... ... : ... .. . ... ... ... : ... .. . ... ... ... : ... .. . ... ... ... : ... .. . ... ... ... : ... .. . ... ... ... : ... .. . ... ... ...
ROW C2 : ... .. . ... ... ... : A#2 02 . P81 ... ... : C#3 00 . P89 ... ... : 6-# 00 C ... ... ... : ... .. . ... ... ... : ... .. . ... ... ... : ... .. . P82 ... ... : ... .. . ... ... ... : ... .. . ... ... ... : ... .. . ... ... ... : ... .. . ... ... ... : ... .. . ... ... ... : ... .. . ... ... ...
ROW C3 : ... .. . ... ... ... : D#2 02 . ... ... ... : A#2 00 . P75 ... ... : 7-# 00 8 ... ... ... : ... .. . ... ... ... : ... .. . ... ... ... : ... .. . P83 ... ... : ... .. . ... ... ... : ... .. . ... ... ... : ... .. . ... ... ... : ... .. . ... ... ... : ... .. . ... ... ... : ... .. . ... ... ...
ROW C4 : ... .. . ... ... ... : G#1 02 . ... ... ... : G-2 00 . P70 ... ... : 8-# 00 7 ... ... ... : ... .. . ... ... ... : --- .. . ... ... ... : --- .. . ... ... ... : --- .. . ... ... ... : --- .. . ... ... ... : ... .. . ... ... ... : ... .. . ... ... ... : ... .. . ... ... ... : ... .. . ... ... ...
ROW C5 : ... .. . ... ... ... : C#1 02 . ... ... ... : E-2 00 . P7C ... ... : ... .. 6 ... ... ... : ... .. . ... ... ... : ... .. . ... ... ... : ... .. . P80 ... ... : ... .. . P80 ... ... : ... .. . P80 ... ... : ... .. . ... ... ... : ... .. . ... ... ... : ... .. . ... ... ... : ... .. . ... ... ...
ROW C6 : ... .. . ... ... ... : ... .. . ... ... ... : --- .. . ... ... ... : ... .. . ... ... ... : ... .. . ... ... ... : C#3 05 4 ... ... ... : C#3 05 4 P83 ... ... : C#3 05 3 P7E ... ... : B-2 05 3 P81 ... ... : ... .. . ... ... ... : ... .. . ... ... ... : ... .. . ... ... ... : ... .. . ... ... ...
ROW C7 : ... .. . ... ... ... : ... .. . ... ... ... : ... .. . ... ... ... : ... .. 5 ... ... ... : ... .. . ... ... ... : ... .. . ... ... ... : ... .. . ... ... ... : ... .. . ... ... ... : ... .. . ... ... ... : ... .. . ... ... ... : ... .. . ... ... ... : ... .. . ... ... ... : ... .. . ... ... ...
ROW C8 : ... .. . ... ... ... : ... .. . ... ... ... : ... .. . ... ... ... : ... .. . ... ... ... : ... .. . ... ... ... : ... .. . ... ... ... : C-3 05 . P7E ... ... : ... .. . ... ... ... : ... .. . ... ... ... : ... .. . ... ... ... : ... .. . ... ... ... : ... .. . ... ... ... : ... .. . ... ... ...
ROW C9 : ... .. . ... ... ... : ... .. . ... ... ... : ... .. . ... ... ... : ... .. 4 ... ... ... : ... .. . ... ... ... : ... .. . ... ... ... : ... .. . ... ... ... : ... .. . ... ... ... : ... .. . ... ... ... : ... .. . ... ... ... : ... .. . ... ... ... : ... .. . ... ... ... : ... .. . ... ... ...
ROW CA : ... .. . ... ... ... : ... .. . ... ... ... : ... .. . ... ... ... : ... .. . ... ... ... : ... .. . ... ... ... : --- .. . ... ... ... : --- .. . ... ... ... : --- .. . ... ... ... : --- .. . ... ... ... : ... .. . ... ... ... : ... .. . ... ... ... : ... .. . ... ... ... : ... .. . ... ... ...
ROW CB : ... .. . ... ... ... : ... .. . ... ... ... : ... .. . ... ... ... : ... .. 3 ... ... ... : ... .. . ... ... ... : ... .. . ... ... ... : ... .. . P80 ... ... : ... .. . P80 ... ... : ... .. . P80 ... ... : ... .. . ... ... ... : ... .. . ... ... ... : ... .. . ... ... ... : ... .. . ... ... ...
ROW CC : ... .. . ... ... ... : ... .. . ... ... ... : ... .. . ... ... ... : D-# 00 A ... ... ... : ... .. . ... ... ... : G#3 05 A ... ... ... : G#3 05 A P83 ... ... : G#3 05 9 P7E ... ... : D#3 05 9 P81 ... ... : ... .. . ... ... ... : ... .. . ... ... ... : ... .. . ... ... ... : ... .. . ... ... ...
ROW CD : ... .. . ... ... ... : ... .. . ... ... ... : ... .. . ... ... ... : E-# 00 4 ... ... ... : ... .. . ... ... ... : ... .. . ... ... ... : ... .. . P84 ... ... : ... .. . ... ... ... : ... .. . ... ... ... : ... .. . ... ... ... : ... .. . ... ... ... : ... .. . ... ... ... : ... .. . ... ... ...
ROW CE : ... .. . ... ... ... : ... .. . ... ... ... : ... .. . ... ... ... : D-# 00 2 ... ... ... : ... .. . ... ... ... : ... .. . ... ... ... : ... .. . P83 ... ... : ... .. . ... ... ... : ... .. . ... ... ... : ... .. . ... ... ... : ... .. . ... ... ... : ... .. . ... ... ... : ... .. . ... ... ...
ROW CF : ... .. . ... ... ... : ... .. . ... ... ... : ... .. . ... ... ... : ... .. 1 ... ... ... : ... .. . ... ... ... : ... .. . ... ... ... : ... .. . P82 ... ... : ... .. . ... ... ... : ... .. . ... ... ... : ... .. . ... ... ... : ... .. . ... ... ... : ... .. . ... ... ... : ... .. . ... ... ...
ROW D0 : ... .. . ... ... ... : ... .. . ... ... ... : ... .. . ... ... ... : ... .. . ... ... ... : ... .. . ... ... ... : --- .. . ... ... ... : --- .. . ... ... ... : --- .. . ... ... ... : --- .. . ... ... ... : ... .. . ... ... ... : ... .. . ... ... ... : ... .. . ... ... ... : ... .. . ... ... ...
ROW D1 : ... .. . ... ... ... : ... .. . ... ... ... : ... .. . ... ... ... : --- .. . ... ... ... : ... .. . ... ... ... : ... .. . ... ... ... : ... .. . P80 ... ... : ... .. . P80 ... ... : ... .. . P80 ... ... : ... .. . ... ... ... : ... .. . ... ... ... : ... .. . ... ... ... : ... .. . ... ... ...
ROW D2 : ... .. . ... ... ... : ... .. . ... ... ... : ... .. . ... ... ... : D-# 00 A ... ... ... : ... .. . ... ... ... : G#3 05 4 ... ... ... : G#3 05 . P83 ... ... : G#3 05 . P7E ... ... : D#3 05 . P81 ... ... : ... .. . ... ... ... : ... .. . ... ... ... : ... .. . ... ... ... : ... .. . ... ... ...
ROW D3 : ... .. . ... ... ... : ... .. . ... ... ... : ... .. . ... ... ... : E-# 00 4 ... ... ... : ... .. . ... ... ... : ... .. . ... ... ... : ... .. . P82 ... ... : ... .. . ... ... ... : ... .. . ... ... ... : ... .. . ... ... ... : ... .. . ... ... ... : ... .. . ... ... ... : ... .. . ... ... ...
ROW D4 : ... .. . ... ... ... : ... .. . ... ... ... : ... .. . ... ... ... : D-# 00 2 ... ... ... : ... .. . ... ... ... : ... .. . ... ... ... : ... .. . P83 ... ... : ... .. . ... ... ... : ... .. . ... ... ... : ... .. . ... ... ... : ... .. . ... ... ... : ... .. . ... ... ... : ... .. . ... ... ...
ROW D5 : ... .. . ... ... ... : ... .. . ... ... ... : ... .. . ... ... ... : ... .. 1 ... ... ... : ... .. . ... ... ... : ... .. . ... ... ... : ... .. . P84 ... ... : ... .. . ... ... ... : ... .. . ... ... ... : ... .. . ... ... ... : ... .. . ... ... ... : ... .. . ... ... ... : ... .. . ... ... ...
ROW D6 : ... .. . ... ... ... : ... .. . ... ... ... : ... .. . ... ... ... : ... .. . ... ... ... : ... .. . ... ... ... : ... .. . ... ... ... : ... .. . ... ... ... : ... .. 8 ... ... ... : ... .. . ... ... ... : ... .. . ... ... ... : ... .. . ... ... ... : ... .. . ... ... ... : ... .. . ... ... ...
ROW D7 : ... .. . ... ... ... : ... .. . ... ... ... : ... .. . ... ... ... : --- .. . ... ... ... : ... .. . ... ... ... : --- .. . ... ... ... : --- .. . ... ... ... : --- .. . ... ... ... : --- .. . ... ... ... : ... .. . ... ... ... : ... .. . ... ... ... : ... .. . ... ... ... : ... .. . ... ... ...
ROW D8 : ... .. . ... ... ... : ... .. . ... ... ... : ... .. . ... ... ... : ... .. . ... ... ... : ... .. . ... ... ... : ... .. . ... ... ... : ... .. . P80 ... ... : ... .. . P80 ... ... : ... .. . P80 ... ... : ... .. . ... ... ... : ... .. . ... ... ... : ... .. . ... ... ... : ... .. . ... ... ...
ROW D9 : ... .. . ... ... ... : C-4 02 . P80 ... ... : F#3 00 . P78 ... ... : 1-# 00 F ... ... ... : C-1 12 . ... ... ... : G#1 06 F ... ... ... : G-1 06 F ... ... ... : ... .. . ... ... ... : G#1 06 E P7F ... ... : G#2 06 B P81 ... ... : ... .. . ... ... ... : ... .. . ... ... ... : ... .. . ... ... ...
ROW DA : ... .. . ... ... ... : F-3 02 . ... ... ... : C#3 00 . P7E ... ... : 2-# 00 7 ... ... ... : ... .. . ... ... ... : ... .. . ... ... ... : ... .. . ... ... ... : ... .. . ... ... ... : ... .. . ... ... ... : ... .. . ... ... ... : ... .. . ... ... ... : ... .. . ... ... ... : ... .. . ... ... ...
ROW DB : ... .. . ... ... ... : A#2 02 . P81 ... ... : A-2 00 . P86 ... ... : 1-# 00 4 ... ... ... : ... .. . ... ... ... : ... .. . ... ... ... : G#1 06 . P81 ... ... : ... .. . ... ... ... : ... .. . ... ... ... : ... .. . ... ... ... : ... .. . ... ... ... : ... .. . ... ... ... : ... .. . ... ... ...
ROW DC : ... .. . ... ... ... : D#2 02 . ... ... ... : --- .. . ... ... ... : ... .. 2 ... ... ... : ... .. . ... ... ... : G#1 07 . ... ... ... : G#1 07 . P80 ... ... : ... .. . ... ... ... : G#1 07 . ... ... ... : G#2 07 . ... ... ... : ... .. . ... ... ... : ... .. . ... ... ... : ... .. . ... ... ...
ROW DD : ... .. . ... ... ... : G#1 02 . ... ... ... : ... .. . ... ... ... : ... .. 1 ... ... ... : ... .. . ... ... ... : ... .. . ... ... ... : ... .. . P81 ... ... : ... .. . ... ... ... : ... .. . ... ... ... : ... .. A ... ... ... : ... .. . ... ... ... : ... .. . ... ... ... : ... .. . ... ... ...
ROW DE : ... .. . ... ... ... : C#1 02 . ... ... ... : ... .. . ... ... ... : --- .. . ... ... ... : ... .. . ... ... ... : ... .. . ... ... ... : G-1 07 . P80 ... ... : ... .. . ... ... ... : ... .. . ... ... ... : ... .. . ... ... ... : ... .. . ... ... ... : ... .. . ... ... ... : ... .. . ... ... ...
ROW DF : ... .. . ... ... ... : ... .. . ... ... ... : ... .. . ... ... ... : ... .. . ... ... ... : ... .. . ... ... ... : G#1 08 . ... ... ... : G#1 08 . P81 ... ... : ... .. . ... ... ... : G#1 08 . ... ... ... : G#2 08 . ... ... ... : ... .. . ... ... ... : ... .. . ... ... ... : ... .. . ... ... ...
ROW E0 : ... .. . ... ... ... : ... .. . ... ... ... : ... .. . ... ... ... : ... .. . ... ... ... : ... .. . ... ... ... : ... .. . ... ... ... : ... .. . P80 ... ... : ... .. . ... ... ... : ... .. . ... ... ... : ... .. . ... ... ... : ... .. . ... ... ... : ... .. . ... ... ... : ... .. . ... ... ...
ROW E1 : ... .. . ... ... ... : ... .. . ... ... ... : ... .. . ... ... ... : ... .. . ... ... ... : ... .. . ... ... ... : ... .. . ... ... ... : ... .. . P81 ... ... : ... .. . ... ... ... : ... .. D ... ... ... : ... .. 9 ... ... ... : ... .. . ... ... ... : ... .. . ... ... ... : ... .. . ... ... ...
ROW E2 : ... .. . ... ... ... : ... .. . ... ... ... : ... .. . ... ... ... : ... .. . ... ... ... : ... .. . ... ... ... : G#1 09 . ... ... ... : G-1 09 . P80 ... ... : ... .. . ... ... ... : G#1 09 . ... ... ... : G#2 09 . ... ... ... : ... .. . ... ... ... : ... .. . ... ... ... : ... .. . ... ... ...
ROW E3 : ... .. . ... ... ... : ... .. . ... ... ... : ... .. . ... ... ... : ... .. . ... ... ... : ... .. . ... ... ... : ... .. . ... ... ... : G#1 09 . P81 ... ... : ... .. . ... ... ... : ... .. . ... ... ... : ... .. . ... ... ... : ... .. . ... ... ... : ... .. . ... ... ... : ... .. . ... ... ...
ROW E4 : ... .. . ... ... ... : ... .. . ... ... ... : ... .. . ... ... ... : ... .. . ... ... ... : ... .. . ... ... ... : ... .. . ... ... ... : ... .. . P80 ... ... : ... .. . ... ... ... : ... .. . ... ... ... : ... .. . ... ... ... : ... .. . ... ... ... : ... .. . ... ... ... : ... .. . ... ... ...
ROW E5 : ... .. . ... ... ... : ... .. . ... ... ... : ... .. . ... ... ... : D-# 00 A ... ... ... : ... .. . ... ... ... : ... .. . ... ... ... : ... .. . P81 ... ... : ... .. . ... ... ... : ... .. . ... ... ... : ... .. 8 ... ... ... : ... .. . ... ... ... : ... .. . ... ... ... : ... .. . ... ... ...
ROW E6 : ... .. . ... ... ... : ... .. . ... ... ... : ... .. . ... ... ... : E-# 00 4 ... ... ... : ... .. . ... ... ... : ... .. . ... ... ... : G-1 09 . P80 ... ... : ... .. . ... ... ... : ... .. . ... ... ... : ... .. . ... ... ... : ... .. . ... ... ... : ... .. . ... ... ... : ... .. . ... ... ...
ROW E7 : ... .. . ... ... ... : ... .. . ... ... ... : ... .. . ... ... ... : D-# 00 2 ... ... ... : ... .. . ... ... ... : ... .. . ... ... ... : ... .. . ... ... ... : ... .. . ... ... ... : ... .. . ... ... ... : ... .. . ... ... ... : ... .. . ... ... ... : ... .. . ... ... ... : ... .. . ... ... ...
ROW E8 : ... .. . ... ... ... : ... .. . ... ... ... : ... .. . ... ... ... : ... .. 1 ... ... ... : ... .. . ... ... ... : G#1 08 . ... ... ... : G#1 08 . P81 ... ... : ... .. . ... ... ... : G#1 08 . ... ... ... : G#2 08 . ... ... ... : ... .. . ... ... ... : ... .. . ... ... ... : ... .. . ... ... ...
ROW E9 : ... .. . ... ... ... : ... .. . ... ... ... : ... .. . ... ... ... : ... .. . ... ... ... : ... .. . ... ... ... : ... .. . ... ... ... : ... .. . ... ... ... : ... .. . ... ... ... : ... .. C ... ... ... : ... .. 7 ... ... ... : ... .. . ... ... ... : ... .. . ... ... ... : ... .. . ... ... ...
ROW EA : ... .. . ... ... ... : ... .. . ... ... ... : ... .. . ... ... ... : --- .. . ... ... ... : ... .. . ... ... ... : ... .. . ... ... ... : G-1 08 . P80 ... ... : ... .. . ... ... ... : ... .. . ... ... ... : ... .. . ... ... ... : ... .. . ... ... ... : ... .. . ... ... ... : ... .. . ... ... ...
ROW EB : ... .. . ... ... ... : ... .. . ... ... ... : ... .. . ... ... ... : D-# 00 A ... ... ... : ... .. . ... ... ... : G#1 07 . ... ... ... : G-1 07 . ... ... ... : ... .. . ... ... ... : G#1 07 . ... ... ... : G#2 07 . ... ... ... : ... .. . ... ... ... : ... .. . ... ... ... : ... .. . ... ... ...
ROW EC : ... .. . ... ... ... : ... .. . ... ... ... : ... .. . ... ... ... : E-# 00 4 ... ... ... : ... .. . ... ... ... : ... .. . ... ... ... : G#1 07 . P81 ... ... : ... .. . ... ... ... : ... .. . ... ... ... : ... .. . ... ... ... : ... .. . ... ... ... : ... .. . ... ... ... : ... .. . ... ... ...
ROW ED : ... .. . ... ... ... : ... .. . ... ... ... : ... .. . ... ... ... : D-# 00 2 ... ... ... : ... .. . ... ... ... : ... .. . ... ... ... : ... .. . P80 ... ... : ... .. . ... ... ... : ... .. . ... ... ... : ... .. 6 ... ... ... : ... .. . ... ... ... : ... .. . ... ... ... : ... .. . ... ... ...
ROW EE : ... .. . ... ... ... : ... .. . ... ... ... : ... .. . ... ... ... : ... .. 1 ... ... ... : ... .. . ... ... ... : G#1 06 . ... ... ... : G#1 06 . P81 ... ... : ... .. . ... ... ... : G#1 06 . ... ... ... : G#2 06 . ... ... ... : ... .. . ... ... ... : ... .. . ... ... ... : ... .. . ... ... ...
ROW EF : ... .. . ... ... ... : ... .. . ... ... ... : ... .. . ... ... ... : ... .. . ... ... ... : ... .. . ... ... ... : ... .. . ... ... ... : G-1 06 . P80 ... ... : ... .. . ... ... ... : ... .. . ... ... ... : ... .. . ... ... ... : ... .. . ... ... ... : ... .. . ... ... ... : ... .. . ... ... ...
ROW F0 : ... .. . ... ... ... : ... .. . ... ... ... : ... .. . ... ... ... : --- .. . ... ... ... : ... .. . ... ... ... : ... .. . ... ... ... : G#1 06 . P81 ... ... : ... .. . ... ... ... : ... .. . ... ... ... : ... .. . ... ... ... : ... .. . ... ... ... : ... .. . ... ... ... : ... .. . ... ... ...
ROW F1 : ... .. . ... ... ... : ... .. . ... ... ... : ... .. . ... ... ... : ... .. . ... ... ... : ... .. . ... ... ... : ... .. . ... ... ... : ... .. . P80 ... ... : ... .. . ... ... ... : ... .. B ... ... ... : ... .. 5 ... ... ... : ... .. . ... ... ... : ... .. . ... ... ... : ... .. . ... ... ...
ROW F2 : ... .. . ... ... ... : C-4 02 . P80 ... ... : C#4 00 . P7F ... ... : 9-# 00 F ... ... ... : C#1 12 . ... ... ... : D-2 06 . ... ... ... : D-2 06 . P81 ... ... : ... .. . ... ... ... : D-2 06 . ... ... ... : D-3 06 . ... ... ... : ... .. . ... ... ... : ... .. . ... ... ... : ... .. . ... ... ...
ROW F3 : ... .. . ... ... ... : F-3 02 . ... ... ... : F#3 00 . P83 ... ... : 2-# 00 7 ... ... ... : ... .. . ... ... ... : ... .. . ... ... ... : C#2 06 . P7F ... ... : ... .. . ... ... ... : ... .. . ... ... ... : ... .. . ... ... ... : ... .. . ... ... ... : ... .. . ... ... ... : ... .. . ... ... ...
ROW F4 : ... .. . ... ... ... : A#2 02 . P81 ... ... : C#3 00 . P89 ... ... : 6-# 00 C ... ... ... : ... .. . ... ... ... : ... .. . ... ... ... : D-2 06 . P81 ... ... : ... .. . ... ... ... : ... .. . ... ... ... : ... .. . ... ... ... : ... .. . ... ... ... : ... .. . ... ... ... : ... .. . ... ... ...
ROW F5 : ... .. . ... ... ... : D#2 02 . ... ... ... : A#2 00 . P75 ... ... : 7-# 00 8 ... ... ... : ... .. . ... ... ... : D-2 08 . ... ... ... : D-2 08 . P80 ... ... : ... .. . ... ... ... : D-2 08 . ... ... ... : D-3 08 4 ... ... ... : ... .. . ... ... ... : ... .. . ... ... ... : ... .. . ... ... ...
ROW F6 : ... .. . ... ... ... : G#1 02 . ... ... ... : G-2 00 . P70 ... ... : 8-# 00 7 ... ... ... : ... .. . ... ... ... : ... .. . ... ... ... : ... .. . P81 ... ... : ... .. . ... ... ... : ... .. . ... ... ... : ... .. . ... ... ... : ... .. . ... ... ... : ... .. . ... ... ... : ... .. . ... ... ...
ROW F7 : ... .. . ... ... ... : C#1 02 . ... ... ... : E-2 00 . P7C ... ... : ... .. 6 ... ... ... : ... .. . ... ... ... : ... .. . ... ... ... : ... .. . P82 ... ... : ... .. . ... ... ... : ... .. . ... ... ... : ... .. . ... ... ... : ... .. . ... ... ... : ... .. . ... ... ... : ... .. . ... ... ...
ROW F8 : ... .. . ... ... ... : ... .. . ... ... ... : --- .. . ... ... ... : ... .. . ... ... ... : ... .. . ... ... ... : D-2 09 . ... ... ... : D-2 09 . ... ... ... : ... .. . ... ... ... : D-2 09 . ... ... ... : D-3 09 . ... ... ... : ... .. . ... ... ... : ... .. . ... ... ... : ... .. . ... ... ...
ROW F9 : ... .. . ... ... ... : ... .. . ... ... ... : ... .. . ... ... ... : ... .. 5 ... ... ... : ... .. . ... ... ... : ... .. . ... ... ... : ... .. . P81 ... ... : ... .. . ... ... ... : ... .. A ... ... ... : ... .. 3 ... ... ... : ... .. . ... ... ... : ... .. . ... ... ... : ... .. . ... ... ...
ROW FA : ... .. . ... ... ... : ... .. . ... ... ... : ... .. . ... ... ... : ... .. . ... ... ... : ... .. . ... ... ... : ... .. . ... ... ... : ... .. . P80 ... ... : ... .. . ... ... ... : ... .. . ... ... ... : ... .. . ... ... ... : ... .. . ... ... ... : ... .. . ... ... ... : ... .. . ... ... ...
ROW FB : ... .. . ... ... ... : ... .. . ... ... ... : ... .. . ... ... ... : ... .. 4 ... ... ... : ... .. . ... ... ... : D-2 07 . ... ... ... : D-2 07 . P81 ... ... : ... .. . ... ... ... : D-2 07 . ... ... ... : D-3 07 . ... ... ... : ... .. . ... ... ... : ... .. . ... ... ... : ... .. . ... ... ...
ROW FC : ... .. . ... ... ... : ... .. . ... ... ... : ... .. . ... ... ... : ... .. . ... ... ... : ... .. . ... ... ... : ... .. . ... ... ... : C#2 07 . P7F ... ... : ... .. . ... ... ... : ... .. . ... ... ... : ... .. . ... ... ... : ... .. . ... ... ... : ... .. . ... ... ... : ... .. . ... ... ...
ROW FD : ... .. . ... ... ... : ... .. . ... ... ... : ... .. . ... ... ... : ... .. 3 ... ... ... : ... .. . ... ... ... : ... .. . ... ... ... : D-2 07 . P81 ... ... : ... .. . ... ... ... : ... .. . ... ... ... : ... .. 2 ... ... ... : ... .. . ... ... ... : ... .. . ... ... ... : ... .. . ... ... ...
ROW FE : ... .. . ... ... ... : ... .. . ... ... ... : ... .. . ... ... ... : D-# 00 A ... ... ... : ... .. . ... ... ... : D-2 06 . ... ... ... : D-2 06 . P80 ... ... : ... .. . ... ... ... : D-2 06 . ... ... ... : D-3 06 . ... ... ... : ... .. . ... ... ... : ... .. . ... ... ... : ... .. . ... ... ...
ROW FF : ... .. . ... ... ... : ... .. . ... ... ... : ... .. . ... ... ... : E-# 00 4 ... ... ... : ... .. . ... ... ... : ... .. . ... ... ... : ... .. . P81 ... ... : ... .. . ... ... ... : ... .. . ... ... ... : ... .. . ... ... ... : ... .. . ... ... ... : ... .. . ... ... ... : ... .. . ... ... ...

PATTERN 0F
ROW 00 : ... .. . ... ... ... : ... .. . ... ... ... : ... .. . ... ... ... : D-# 00 2 ... ... ... : ... .. . ... ... ... : ... .. . ... ... ... : C#2 06 . P7F ... ... : ... .. . ... ... ... : ... .. . ... ... ... : ... .. . ... ... ... : ... .. . ... ... ... : ... .. . ... ... ... : ... .. . ... ... ...
ROW 01 : ... .. . ... ... ... : ... .. . ... ... ... : ... .. . ... ... ... : ... .. 1 ... ... ... : ... .. . ... ... ... : D-2 08 . ... ... ... : D-2 08 . P81 ... ... : ... .. . ... ... ... : D-2 08 9 ... ... ... : D-3 08 1 ... ... ... : ... .. . ... ... ... : ... .. . ... ... ... : ... .. . ... ... ...
ROW 02 : ... .. . ... ... ... : ... .. . ... ... ... : ... .. . ... ... ... : ... .. . ... ... ... : ... .. . ... ... ... : ... .. . ... ... ... : ... .. . P80 ... ... : ... .. . ... ... ... : ... .. . ... ... ... : ... .. . ... ... ... : ... .. . ... ... ... : ... .. . ... ... ... : ... .. . ... ... ...
ROW 03 : ... .. . ... ... ... : ... .. . ... ... ... : ... .. . ... ... ... : --- .. . ... ... ... : ... .. . ... ... ... : ... .. . ... ... ... : ... .. . P81 ... ... : ... .. . ... ... ... : ... .. . ... ... ... : ... .. . ... ... ... : ... .. . ... ... ... : ... .. . ... ... ... : ... .. . ... ... ...
ROW 04 : ... .. . ... ... ... : ... .. . ... ... ... : ... .. . ... ... ... : D-# 00 A ... ... ... : ... .. . ... ... ... : D-2 09 . ... ... ... : C#2 09 . P7F ... ... : ... .. . ... ... ... : D-2 09 . ... ... ... : D-3 09 . ... ... ... : ... .. . ... ... ... : ... .. . ... ... ... : ... .. . ... ... ...
ROW 05 : ... .. . ... ... ... : ... .. . ... ... ... : ... .. . ... ... ... : E-# 00 4 ... ... ... : ... .. . ... ... ... : ... .. . ... ... ... : D-2 09 . P82 ... ... : ... .. . ... ... ... : ... .. . ... ... ... : --- .. . ... ... ... : ... .. . ... ... ... : ... .. . ... ... ... : ... .. . ... ... ...
ROW 06 : ... .. . ... ... ... : ... .. . ... ... ... : ... .. . ... ... ... : D-# 00 2 ... ... ... : ... .. . ... ... ... : ... .. . ... ... ... : ... .. . P81 ... ... : ... .. . ... ... ... : ... .. . ... ... ... : ... .. . P80 ... ... : ... .. . ... ... ... : ... .. . ... ... ... : ... .. . ... ... ...
ROW 07 : ... .. . ... ... ... : ... .. . ... ... ... : ... .. . ... ... ... : ... .. 1 ... ... ... : ... .. . ... ... ... : D-2 07 . ... ... ... : D-2 07 . ... ... ... : ... .. . ... ... ... : D-2 07 . ... ... ... : ... .. . ... ... ... : ... .. . ... ... ... : ... .. . ... ... ... : ... .. . ... ... ...
ROW 08 : ... .. . ... ... ... : ... .. . ... ... ... : ... .. . ... ... ... : ... .. . ... ... ... : ... .. . ... ... ... : ... .. . ... ... ... : ... .. . P82 ... ... : ... .. . ... ... ... : ... .. . ... ... ... : ... .. . ... ... ... : ... .. . ... ... ... : ... .. . ... ... ... : ... .. . ... ... ...
ROW 09 : ... .. . ... ... ... : ... .. . ... ... ... : ... .. . ... ... ... : --- .. . ... ... ... : ... .. . ... ... ... : ... .. . ... ... ... : ... .. . ... ... ... : ... .. . ... ... ... : ... .. 8 ... ... ... : ... .. . ... ... ... : ... .. . ... ... ... : ... .. . ... ... ... : ... .. . ... ... ...
ROW 0A : ... .. . ... ... ... : ... .. . ... ... ... : ... .. . ... ... ... : ... .. . ... ... ... : ... .. . ... ... ... : ... .. . ... ... ... : ... .. . P81 ... ... : ... .. . ... ... ... : ... .. . ... ... ... : ... .. . ... ... ... : ... .. . ... ... ... : ... .. . ... ... ... : ... .. . ... ... ...
ROW 0B : ... .. . ... ... ... : C-4 02 . P80 ... ... : F#3 00 . P78 ... ... : 1-# 00 F ... ... ... : C-1 12 . ... ... ... : C#2 06 . ... ... ... : C#2 06 . P80 ... ... : ... .. . ... ... ... : C#2 06 . ... ... ... : ... .. . ... ... ... : ... .. . ... ... ... : ... .. . ... ... ... : ... .. . ... ... ...
ROW 0C : ... .. . ... ... ... : F-3 02 . ... ... ... : C#3 00 . P7E ... ... : 2-# 00 7 ... ... ... : ... .. . ... ... ... : ... .. . ... ... ... : ... .. . P81 ... ... : ... .. . ... ... ... : ... .. . ... ... ... : ... .. . ... ... ... : ... .. . ... ... ... : ... .. . ... ... ... : ... .. . ... ... ...
ROW 0D : ... .. . ... ... ... : A#2 02 . P81 ... ... : A-2 00 . P86 ... ... : 1-# 00 4 ... ... ... : ... .. . ... ... ... : ... .. . ... ... ... : C-2 06 . P7F ... ... : ... .. . ... ... ... : ... .. . ... ... ... : ... .. . ... ... ... : ... .. . ... ... ... : ... .. . ... ... ... : ... .. . ... ... ...
ROW 0E : ... .. . ... ... ... : D#2 02 . ... ... ... : --- .. . ... ... ... : ... .. 2 ... ... ... : ... .. . ... ... ... : C#2 09 . ... ... ... : C#2 09 . P81 ... ... : ... .. . ... ... ... : C#2 09 . ... ... ... : ... .. . ... ... ... : ... .. . ... ... ... : ... .. . ... ... ... : ... .. . ... ... ...
ROW 0F : ... .. . ... ... ... : G#1 02 . ... ... ... : ... .. . ... ... ... : ... .. 1 ... ... ... : ... .. . ... ... ... : ... .. . ... ... ... : ... .. . P80 ... ... : ... .. . ... ... ... : ... .. . ... ... ... : ... .. . ... ... ... : ... .. . ... ... ... : ... .. . ... ... ... : ... .. . ... ... ...
ROW 10 : ... .. . ... ... ... : C#1 02 . ... ... ... : ... .. . ... ... ... : --- .. . ... ... ... : ... .. . ... ... ... : ... .. . ... ... ... : ... .. . P81 ... ... : ... .. . ... ... ... : ... .. . ... ... ... : ... .. . ... ... ... : ... .. . ... ... ... : ... .. . ... ... ... : ... .. . ... ... ...
ROW 11 : ... .. . ... ... ... : ... .. . ... ... ... : ... .. . ... ... ... : ... .. . ... ... ... : ... .. . ... ... ... : C#2 06 . ... ... ... : C-2 06 . P7F ... ... : ... .. . ... ... ... : C#2 06 7 ... ... ... : ... .. . ... ... ... : ... .. . ... ... ... : ... .. . ... ... ... : ... .. . ... ... ...
ROW 12 : ... .. . ... ... ... : ... .. . ... ... ... : ... .. . ... ... ... : ... .. . ... ... ... : ... .. . ... ... ... : ... .. . ... ... ... : C#2 06 . P81 ... ... : ... .. . ... ... ... : ... .. . ... ... ... : ... .. . ... ... ... : ... .. . ... ... ... : ... .. . ... ... ... : ... .. . ... ... ...
ROW 13 : ... .. . ... ... ... : ... .. . ... ... ... : ... .. . ... ... ... : ... .. . ... ... ... : ... .. . ... ... ... : ... .. . ... ... ... : ... .. . P80 ... ... : ... .. . ... ... ... : ... .. . ... ... ... : ... .. . ... ... ... : ... .. . ... ... ... : ... .. . ... ... ... : ... .. . ... ... ...
ROW 14 : ... .. . ... ... ... : ... .. . ... ... ... : ... .. . ... ... ... : ... .. . ... ... ... : ... .. . ... ... ... : C#2 09 . ... ... ... : C#2 09 . P81 ... ... : ... .. . ... ... ... : C#2 09 . ... ... ... : ... .. . ... ... ... : ... .. . ... ... ... : ... .. . ... ... ... : ... .. . ... ... ...
ROW 15 : ... .. . ... ... ... : ... .. . ... ... ... : ... .. . ... ... ... : ... .. . ... ... ... : ... .. . ... ... ... : ... .. . ... ... ... : C-2 09 . P7F ... ... : ... .. . ... ... ... : ... .. . ... ... ... : ... .. . ... ... ... : ... .. . ... ... ... : ... .. . ... ... ... : ... .. . ... ... ...
ROW 16 : ... .. . ... ... ... : ... .. . ... ... ... : ... .. . ... ... ... : ... .. . ... ... ... : ... .. . ... ... ... : ... .. . ... ... ... : C#2 09 . P82 ... ... : ... .. . ... ... ... : ... .. . ... ... ... : ... .. . ... ... ... : ... .. . ... ... ... : ... .. . ... ... ... : ... .. . ... ... ...
ROW 17 : ... .. . ... ... ... : ... .. . ... ... ... : ... .. . ... ... ... : D-# 00 A ... ... ... : ... .. . ... ... ... : C#2 06 . ... ... ... : C#2 06 . P81 ... ... : ... .. . ... ... ... : C#2 06 . ... ... ... : ... .. . ... ... ... : ... .. . ... ... ... : ... .. . ... ... ... : ... .. . ... ... ...
ROW 18 : ... .. . ... ... ... : ... .. . ... ... ... : ... .. . ... ... ... : E-# 00 4 ... ... ... : ... .. . ... ... ... : ... .. . ... ... ... : ... .. . ... ... ... : ... .. . ... ... ... : ... .. . ... ... ... : ... .. . ... ... ... : ... .. . ... ... ... : ... .. . ... ... ... : ... .. . ... ... ...
ROW 19 : ... .. . ... ... ... : ... .. . ... ... ... : ... .. . ... ... ... : D-# 00 2 ... ... ... : ... .. . ... ... ... : ... .. . ... ... ... : ... .. . P82 ... ... : ... .. . ... ... ... : ... .. 6 ... ... ... : ... .. . ... ... ... : ... .. . ... ... ... : ... .. . ... ... ... : ... .. . ... ... ...
ROW 1A : ... .. . ... ... ... : ... .. . ... ... ... : ... .. . ... ... ... : ... .. 1 ... ... ... : ... .. . ... ... ... : C#2 09 . ... ... ... : C-2 09 . P7F ... ... : ... .. . ... ... ... : C#2 09 . ... ... ... : ... .. . ... ... ... : ... .. . ... ... ... : ... .. . ... ... ... : ... .. . ... ... ...
ROW 1B : ... .. . ... ... ... : ... .. . ... ... ... : ... .. . ... ... ... : ... .. . ... ... ... : ... .. . ... ... ... : ... .. . ... ... ... : C#2 09 . P81 ... ... : ... .. . ... ... ... : ... .. . ... ... ... : ... .. . ... ... ... : ... .. . ... ... ... : ... .. . ... ... ... : ... .. . ... ... ...
ROW 1C : ... .. . ... ... ... : ... .. . ... ... ... : ... .. . ... ... ... : --- .. . ... ... ... : ... .. . ... ... ... : ... .. . ... ... ... : ... .. . P80 ... ... : ... .. . ... ... ... : ... .. . ... ... ... : ... .. . ... ... ... : ... .. . ... ... ... : ... .. . ... ... ... : ... .. . ... ... ...
ROW 1D : ... .. . ... ... ... : ... .. . ... ... ... : ... .. . ... ... ... : D-# 00 A ... ... ... : ... .. . ... ... ... : C#2 06 . ... ... ... : C#2 06 . P81 ... ... : ... .. . ... ... ... : C#2 06 . ... ... ... : ... .. . ... ... ... : ... .. . ... ... ... : ... .. . ... ... ... : ... .. . ... ... ...
ROW 1E : ... .. . ... ... ... : ... .. . ... ... ... : ... .. . ... ... ... : E-# 00 4 ... ... ... : ... .. . ... ... ... : ... .. . ... ... ... : C-2 06 . P7F ... ... : ... .. . ... ... ... : ... .. . ... ... ... : ... .. . ... ... ... : ... .. . ... ... ... : ... .. . ... ... ... : ... .. . ... ... ...
ROW 1F : ... .. . ... ... ... : ... .. . ... ... ... : ... .. . ... ... ... : D-# 00 2 ... ... ... : ... .. . ... ... ... : ... .. . ... ... ... : C#2 06 . P81 ... ... : ... .. . ... ... ... : ... .. . ... ... ... : ... .. . ... ... ... : ... .. . ... ... ... : ... .. . ... ... ... : ... .. . ... ... ...
ROW 20 : ... .. . ... ... ... : ... .. . ... ... ... : ... .. . ... ... ... : ... .. 1 ... ... ... : ... .. . ... ... ... : C#2 09 . ... ... ... : C#2 09 . P80 ... ... : ... .. . ... ... ... : C#2 09 . ... ... ... : ... .. . ... ... ... : ... .. . ... ... ... : ... .. . ... ... ... : ... .. . ... ... ...
ROW 21 : ... .. . ... ... ... : ... .. . ... ... ... : ... .. . ... ... ... : ... .. . ... ... ... : ... .. . ... ... ... : ... .. . ... ... ... : ... .. . P81 ... ... : ... .. . ... ... ... : ... .. 5 ... ... ... : ... .. . ... ... ... : ... .. . ... ... ... : ... .. . ... ... ... : ... .. . ... ... ...
ROW 22 : ... .. . ... ... ... : ... .. . ... ... ... : ... .. . ... ... ... : --- .. . ... ... ... : ... .. . ... ... ... : ... .. . ... ... ... : C-2 09 . P7F ... ... : ... .. . ... ... ... : ... .. . ... ... ... : ... .. . ... ... ... : ... .. . ... ... ... : ... .. . ... ... ... : ... .. . ... ... ...
ROW 23 : ... .. . ... ... ... : ... .. . ... ... ... : ... .. . ... ... ... : ... .. . ... ... ... : ... .. . ... ... ... : ... .. . ... ... ... : C#2 09 . P81 ... ... : ... .. . ... ... ... : ... .. . ... ... ... : ... .. . ... ... ... : ... .. . ... ... ... : ... .. . ... ... ... : ... .. . ... ... ...
ROW 24 : ... .. . ... ... ... : C-4 02 . P80 ... ... : C#4 00 . P7F ... ... : 9-# 00 F ... ... ... : C#1 12 . ... ... ... : F#1 06 . ... ... ... : F#1 06 . P80 ... ... : ... .. . ... ... ... : F#1 06 . ... ... ... : ... .. . ... ... ... : ... .. . ... ... ... : ... .. . ... ... ... : ... .. . ... ... ...
ROW 25 : ... .. . ... ... ... : F-3 02 . ... ... ... : F#3 00 . P83 ... ... : 2-# 00 7 ... ... ... : ... .. . ... ... ... : ... .. . ... ... ... : ... .. . P81 ... ... : ... .. . ... ... ... : ... .. . ... ... ... : ... .. . ... ... ... : ... .. . ... ... ... : ... .. . ... ... ... : ... .. . ... ... ...
ROW 26 : ... .. . ... ... ... : A#2 02 . P81 ... ... : C#3 00 . P89 ... ... : 6-# 00 C ... ... ... : ... .. . ... ... ... : ... .. . ... ... ... : F-1 06 . P80 ... ... : ... .. . ... ... ... : ... .. . ... ... ... : ... .. . ... ... ... : ... .. . ... ... ... : ... .. . ... ... ... : ... .. . ... ... ...
ROW 27 : ... .. . ... ... ... : D#2 02 . ... ... ... : A#2 00 . P75 ... ... : 7-# 00 8 ... ... ... : ... .. . ... ... ... : ... .. . ... ... ... : ... .. . ... ... ... : ... .. . ... ... ... : ... .. . ... ... ... : ... .. . ... ... ... : ... .. . ... ... ... : ... .. . ... ... ... : ... .. . ... ... ...
ROW 28 : ... .. . ... ... ... : G#1 02 . ... ... ... : G-2 00 . P70 ... ... : 8-# 00 7 ... ... ... : ... .. . ... ... ... : ... .. . ... ... ... : F#1 06 . P81 ... ... : ... .. . ... ... ... : ... .. . ... ... ... : ... .. . ... ... ... : ... .. . ... ... ... : ... .. . ... ... ... : ... .. . ... ... ...
ROW 29 : ... .. . ... ... ... : C#1 02 . ... ... ... : E-2 00 . P7C ... ... : ... .. 6 ... ... ... : ... .. . ... ... ... : ... .. . ... ... ... : ... .. . ... ... ... : ... .. . ... ... ... : ... .. 4 ... ... ... : ... .. . ... ... ... : ... .. . ... ... ... : ... .. . ... ... ... : ... .. . ... ... ...
ROW 2A : ... .. . ... ... ... : ... .. . ... ... ... : --- .. . ... ... ... : ... .. . ... ... ... : ... .. . ... ... ... : F#1 07 . ... ... ... : F-1 07 . P80 ... ... : ... .. . ... ... ... : F#1 07 . ... ... ... : ... .. . ... ... ... : ... .. . ... ... ... : ... .. . ... ... ... : ... .. . ... ... ...
ROW 2B : ... .. . ... ... ... : ... .. . ... ... ... : ... .. . ... ... ... : ... .. 5 ... ... ... : ... .. . ... ... ... : ... .. . ... ... ... : ... .. . ... ... ... : ... .. . ... ... ... : ... .. . ... ... ... : ... .. . ... ... ... : ... .. . ... ... ... : ... .. . ... ... ... : ... .. . ... ... ...
ROW 2C : ... .. . ... ... ... : ... .. . ... ... ... : ... .. . ... ... ... : ... .. . ... ... ... : ... .. . ... ... ... : ... .. . ... ... ... : F#1 07 . P81 ... ... : ... .. . ... ... ... : ... .. . ... ... ... : ... .. . ... ... ... : ... .. . ... ... ... : ... .. . ... ... ... : ... .. . ... ... ...
ROW 2D : ... .. . ... ... ... : ... .. . ... ... ... : ... .. . ... ... ... : ... .. 4 ... ... ... : ... .. . ... ... ... : F-1 07 . ... ... ... : F-1 07 . P80 ... ... : ... .. . ... ... ... : ... .. . P81 ... ... : ... .. . ... ... ... : ... .. . ... ... ... : ... .. . ... ... ... : ... .. . ... ... ...
ROW 2E : ... .. . ... ... ... : ... .. . ... ... ... : ... .. . ... ... ... : ... .. . ... ... ... : ... .. . ... ... ... : E-1 07 . ... ... ... : E-1 07 . P81 ... ... : ... .. . ... ... ... : F-1 07 . ... ... ... : ... .. . ... ... ... : ... .. . ... ... ... : ... .. . ... ... ... : ... .. . ... ... ...
ROW 2F : ... .. . ... ... ... : ... .. . ... ... ... : ... .. . ... ... ... : ... .. 3 ... ... ... : ... .. . ... ... ... : D#1 07 . ... ... ... : D-1 07 . ... ... ... : ... .. . ... ... ... : E-1 07 . ... ... ... : ... .. . ... ... ... : ... .. . ... ... ... : ... .. . ... ... ... : ... .. . ... ... ...
ROW 30 : ... .. . ... ... ... : ... .. . ... ... ... : ... .. . ... ... ... : 6-# 01 F ... ... ... : ... .. . ... ... ... : D-1 08 . P81 ... ... : C#1 08 . P80 ... ... : ... .. . ... ... ... : D-1 08 . P80 ... ... : ... .. . ... ... ... : ... .. . ... ... ... : ... .. . ... ... ... : ... .. . ... ... ...
ROW 31 : ... .. . ... ... ... : ... .. . ... ... ... : ... .. . ... ... ... : ... .. 9 ... ... ... : ... .. . ... ... ... : C#1 08 . ... ... ... : ... .. . P81 ... ... : ... .. . ... ... ... : C#1 08 3 ... ... ... : ... .. . ... ... ... : ... .. . ... ... ... : ... .. . ... ... ... : ... .. . ... ... ...
ROW 32 : ... .. . ... ... ... : ... .. . ... ... ... : ... .. . ... ... ... : ... .. 4 ... ... ... : ... .. . ... ... ... : B-0 08 . P80 ... ... : B-0 08 . ... ... ... : ... .. . ... ... ... : C-1 08 . ... ... ... : ... .. . ... ... ... : ... .. . ... ... ... : ... .. . ... ... ... : ... .. . ... ... ...
ROW 33 : ... .. . ... ... ... : ... .. . ... ... ... : ... .. . ... ... ... : ... .. 7 ... ... ... : ... .. . ... ... ... : A#0 08 . ... ... ... : A-0 08 . ... ... ... : ... .. . ... ... ... : B-0 08 . P81 ... ... : ... .. . ... ... ... : ... .. . ... ... ... : ... .. . ... ... ... : ... .. . ... ... ...
ROW 34 : ... .. . ... ... ... : ... .. . ... ... ... : ... .. . ... ... ... : ... .. 5 ... ... ... : ... .. . ... ... ... : A-0 08 . P81 ... ... : G#0 08 . ... ... ... : ... .. . ... ... ... : A-0 08 . P80 ... ... : ... .. . ... ... ... : ... .. . ... ... ... : ... .. . ... ... ... : ... .. . ... ... ...
ROW 35 : ... .. . ... ... ... : ... .. . ... ... ... : ... .. . ... ... ... : ... .. . ... ... ... : ... .. . ... ... ... : G-0 08 . ... ... ... : G-0 08 . ... ... ... : ... .. . ... ... ... : G#0 08 . P81 ... ... : ... .. . ... ... ... : ... .. . ... ... ... : ... .. . ... ... ... : ... .. . ... ... ...
ROW 36 : ... .. . ... ... ... : ... .. . ... ... ... : ... .. . ... ... ... : ... .. 4 ... ... ... : ... .. . ... ... ... : F-0 09 . P80 ... ... : F-0 09 . ... ... ... : ... .. . ... ... ... : F#0 09 . P80 ... ... : ... .. . ... ... ... : ... .. . ... ... ... : ... .. . ... ... ... : ... .. . ... ... ...
ROW 37 : ... .. . ... ... ... : ... .. . ... ... ... : ... .. . ... ... ... : ... .. . ... ... ... : ... .. . ... ... ... : D#0 09 . ... ... ... : C#0 09 . P80 ... ... : ... .. . ... ... ... : E-0 09 . ... ... ... : ... .. . ... ... ... : ... .. . ... ... ... : ... .. . ... ... ... : ... .. . ... ... ...
ROW 38 : ... .. . ... ... ... : ... .. . ... ... ... : ... .. . ... ... ... : ... .. 3 ... ... ... : ... .. . ... ... ... : C#0 09 . P81 ... ... : C-0 09 . P81 ... ... : ... .. . ... ... ... : D-0 09 . ... ... ... : ... .. . ... ... ... : ... .. . ... ... ... : ... .. . ... ... ... : ... .. . ... ... ...
ROW 39 : ... .. . ... ... ... : ... .. . ... ... ... : ... .. . ... ... ... : ... .. 2 ... ... ... : ... .. . ... ... ... : C-0 09 . P82 ... ... : ... .. . P82 ... ... : ... .. . ... ... ... : C-0 09 2 P81 ... ... : ... .. . ... ... ... : ... .. . ... ... ... : ... .. . ... ... ... : ... .. . ... ... ...
ROW 3A : ... .. . ... ... ... : ... .. . ... ... ... : ... .. . ... ... ... : ... .. . ... ... ... : ... .. . ... ... ... : ... .. . P84 ... ... : ... .. . P84 ... ... : ... .. . ... ... ... : ... .. . P83 ... ... : ... .. . ... ... ... : ... .. . ... ... ... : ... .. . ... ... ... : ... .. . ... ... ...
ROW 3B : ... .. . ... ... ... : ... .. . ... ... ... : ... .. . ... ... ... : ... .. 1 ... ... ... : ... .. . ... ... ... : ... .. . P86 ... ... : ... .. . P87 ... ... : ... .. . ... ... ... : ... .. . P85 ... ... : ... .. . ... ... ... : ... .. . ... ... ... : ... .. . ... ... ... : ... .. . ... ... ...
ROW 3C : ... .. . ... ... ... : ... .. . ... ... ... : ... .. . ... ... ... : ... .. . ... ... ... : ... .. . ... ... ... : --- .. . P7A ... ... : --- .. . P7C ... ... : ... .. . ... ... ... : ... .. . P87 ... ... : ... .. . ... ... ... : ... .. . ... ... ... : ... .. . ... ... ... : ... .. . ... ... ...
ROW 3D : ... .. . ... ... ... : C-4 02 . P80 ... ... : F#3 00 . P78 ... ... : 1-# 00 F ... ... ... : C-1 12 . ... ... ... : G-4 04 A P78 ... ... : A-4 04 A P81 ... ... : ... .. . ... ... ... : F#4 04 9 P89 ... ... : G-4 04 9 P81 ... ... : ... .. . ... ... ... : ... .. . ... ... ... : ... .. . ... ... ...
ROW 3E : ... .. . ... ... ... : F-3 02 . ... ... ... : C#3 00 . P7E ... ... : 2-# 00 7 ... ... ... : ... .. . ... ... ... : G#4 04 . P84 ... ... : ... .. . P80 ... ... : ... .. . ... ... ... : ... .. . P81 ... ... : ... .. . ... ... ... : ... .. . ... ... ... : ... .. . ... ... ... : ... .. . ... ... ...
ROW 3F : ... .. . ... ... ... : A#2 02 . P81 ... ... : A-2 00 . P86 ... ... : 1-# 00 4 ... ... ... : ... .. . ... ... ... : ... .. . P7C ... ... : ... .. . P81 ... ... : ... .. . ... ... ... : ... .. . P79 ... ... : ... .. . ... ... ... : ... .. . ... ... ... : ... .. . ... ... ... : ... .. . ... ... ...
ROW 40 : ... .. . ... ... ... : D#2 02 . ... ... ... : --- .. . ... ... ... : ... .. 2 ... ... ... : ... .. . ... ... ... : --- .. . ... ... ... : --- .. . ... ... ... : ... .. . ... ... ... : --- .. . ... ... ... : --- .. . ... ... ... : ... .. . ... ... ... : ... .. . ... ... ... : ... .. . ... ... ...
ROW 41 : ... .. . ... ... ... : G#1 02 . ... ... ... : ... .. . ... ... ... : ... .. 1 ... ... ... : ... .. . ... ... ... : ... .. . P80 ... ... : ... .. . P80 ... ... : ... .. . ... ... ... : ... .. . P80 ... ... : ... .. . P80 ... ... : ... .. . ... ... ... : ... .. . ... ... ... : ... .. . ... ... ...
ROW 42 : ... .. . ... ... ... : C#1 02 . ... ... ... : ... .. . ... ... ... : --- .. . ... ... ... : ... .. . ... ... ... : ... .. . ... ... ... : ... .. . ... ... ... : ... .. . ... ... ... : ... .. . ... ... ... : ... .. . ... ... ... : ... .. . ... ... ... : ... .. . ... ... ... : ... .. . ... ... ...
ROW 43 : ... .. . ... ... ... : ... .. . ... ... ... : ... .. . ... ... ... : 1-# 00 F ... ... ... : C-1 12 . ... ... ... : A-4 04 . P7A ... ... : A-4 04 . P83 ... ... : ... .. . ... ... ... : G#4 04 . P88 ... ... : G-4 04 . P83 ... ... : ... .. . ... ... ... : ... .. . ... ... ... : ... .. . ... ... ...
ROW 44 : ... .. . ... ... ... : ... .. . ... ... ... : ... .. . ... ... ... : 2-# 00 7 ... ... ... : ... .. . ... ... ... : ... .. . P7C ... ... : ... .. . P86 ... ... : ... .. . ... ... ... : ... .. . P8A ... ... : ... .. . P85 ... ... : ... .. . ... ... ... : ... .. . ... ... ... : ... .. . ... ... ...
ROW 45 : ... .. . ... ... ... : ... .. . ... ... ... : ... .. . ... ... ... : 1-# 00 4 ... ... ... : ... .. . ... ... ... : ... .. . P7E ... ... : ... .. . P88 ... ... : ... .. . ... ... ... : G-4 04 . P79 ... ... : ... .. . P87 ... ... : ... .. . ... ... ... : ... .. . ... ... ... : ... .. . ... ... ...
ROW 46 : ... .. . ... ... ... : ... .. . ... ... ... : ... .. . ... ... ... : ... .. 2 ... ... ... : ... .. . ... ... ... : --- .. . ... ... ... : --- .. . ... ... ... : ... .. . ... ... ... : --- .. . ... ... ... : --- .. . ... ... ... : ... .. . ... ... ... : ... .. . ... ... ... : ... .. . ... ... ...
ROW 47 : ... .. . ... ... ... : ... .. . ... ... ... : ... .. . ... ... ... : ... .. 1 ... ... ... : ... .. . ... ... ... : ... .. . P80 ... ... : ... .. . P80 ... ... : ... .. . ... ... ... : ... .. . P80 ... ... : ... .. . P80 ... ... : ... .. . ... ... ... : ... .. . ... ... ... : ... .. . ... ... ...
ROW 48 : ... .. . ... ... ... : ... .. . ... ... ... : ... .. . ... ... ... : --- .. . ... ... ... : ... .. . ... ... ... : ... .. . ... ... ... : ... .. . ... ... ... : ... .. . ... ... ... : ... .. . ... ... ... : ... .. . ... ... ... : ... .. . ... ... ... : ... .. . ... ... ... : ... .. . ... ... ...
ROW 49 : ... .. . ... ... ... : ... .. . ... ... ... : ... .. . ... ... ... : A-# 00 F ... ... ... : C-1 12 . ... ... ... : G#4 04 . P7E ... ... : G#4 04 . P88 ... ... : ... .. . ... ... ... : F#4 04 . P7B ... ... : F-4 04 . P78 ... ... : ... .. . ... ... ... : ... .. . ... ... ... : ... .. . ... ... ...
ROW 4A : ... .. . ... ... ... : ... .. . ... ... ... : ... .. . ... ... ... : 6-# 00 9 ... ... ... : ... .. . ... ... ... : G-4 04 . P78 ... ... : G-4 04 . P81 ... ... : ... .. . ... ... ... : ... .. . P89 ... ... : ... .. . P86 ... ... : ... .. . ... ... ... : ... .. . ... ... ... : ... .. . ... ... ...
ROW 4B : ... .. . ... ... ... : ... .. . ... ... ... : ... .. . ... ... ... : 7-# 00 C ... ... ... : ... .. . ... ... ... : ... .. . P86 ... ... : F#4 04 . P7D ... ... : ... .. . ... ... ... : F-4 04 . P85 ... ... : E-4 04 . P84 ... ... : ... .. . ... ... ... : ... .. . ... ... ... : ... .. . ... ... ...
ROW 4C : ... .. . ... ... ... : ... .. . ... ... ... : ... .. . ... ... ... : ... .. 8 ... ... ... : ... .. . ... ... ... : F#4 04 . P82 ... ... : F-4 04 . P7B ... ... : ... .. . ... ... ... : E-4 04 . P83 ... ... : D#4 04 . P83 ... ... : ... .. . ... ... ... : ... .. . ... ... ... : ... .. . ... ... ...
ROW 4D : ... .. . ... ... ... : ... .. . ... ... ... : ... .. . ... ... ... : 8-# 00 7 ... ... ... : ... .. . ... ... ... : F-4 04 . P7F ... ... : E-4 04 . P7A ... ... : ... .. . ... ... ... : D#4 04 . P82 ... ... : D-4 04 8 P82 ... ... : ... .. . ... ... ... : ... .. . ... ... ... : ... .. . ... ... ...
ROW 4E : ... .. . ... ... ... : ... .. . ... ... ... : ... .. . ... ... ... : ... .. 8 ... ... ... : ... .. . ... ... ... : E-4 04 . P7D ... ... : ... .. . P87 ... ... : ... .. . ... ... ... : D-4 04 . ... ... ... : C#4 04 . P83 ... ... : ... .. . ... ... ... : ... .. . ... ... ... : ... .. . ... ... ...
ROW 4F : ... .. . ... ... ... : ... .. . ... ... ... : ... .. . ... ... ... : 9-# 00 7 ... ... ... : ... .. . ... ... ... : D#4 04 . P7C ... ... : D#4 04 . P84 ... ... : ... .. . ... ... ... : C#4 04 . ... ... ... : C-4 04 . P84 ... ... : ... .. . ... ... ... : ... .. . ... ... ... : ... .. . ... ... ...
ROW 50 : ... .. . ... ... ... : ... .. . ... ... ... : ... .. . ... ... ... : ... .. 6 ... ... ... : ... .. . ... ... ... : D-4 04 . P7B ... ... : D-4 04 . P85 ... ... : ... .. . ... ... ... : C-4 04 . P83 ... ... : B-3 04 . P86 ... ... : ... .. . ... ... ... : ... .. . ... ... ... : ... .. . ... ... ...
ROW 51 : ... .. . ... ... ... : ... .. . ... ... ... : ... .. . ... ... ... : ... .. 5 ... ... ... : ... .. . ... ... ... : C#4 04 . P7C ... ... : C#4 04 . P86 ... ... : ... .. . ... ... ... : B-3 04 8 P85 ... ... : A-3 04 7 P7E ... ... : ... .. . ... ... ... : ... .. . ... ... ... : ... .. . ... ... ...
ROW 52 : ... .. . ... ... ... : ... .. . ... ... ... : ... .. . ... ... ... : ... .. . ... ... ... : ... .. . ... ... ... : C-4 04 . P7D ... ... : C-4 04 . P87 ... ... : ... .. . ... ... ... : A-3 04 . P7D ... ... : G#3 04 . P82 ... ... : ... .. . ... ... ... : ... .. . ... ... ... : ... .. . ... ... ...
ROW 53 : ... .. . ... ... ... : ... .. . ... ... ... : ... .. . ... ... ... : ... .. . ... ... ... : ... .. . ... ... ... : B-3 04 . P7F ... ... : A#3 04 . P7C ... ... : ... .. . ... ... ... : G#3 04 . P81 ... ... : F#3 04 . P7D ... ... : ... .. . ... ... ... : ... .. . ... ... ... : ... .. . ... ... ...
ROW 54 : ... .. . ... ... ... : ... .. . ... ... ... : ... .. . ... ... ... : ... .. . ... ... ... : ... .. . ... ... ... : A#3 04 . P82 ... ... : A-3 04 . P80 ... ... : ... .. . ... ... ... : F#3 04 . P7C ... ... : F-3 04 . P82 ... ... : ... .. . ... ... ... : ... .. . ... ... ... : ... .. . ... ... ...
ROW 55 : ... .. . ... ... ... : ... .. . ... ... ... : ... .. . ... ... ... : ... .. . ... ... ... : ... .. . ... ... ... : A-3 04 . P85 ... ... : G#3 04 . P85 ... ... : ... .. . ... ... ... : F-3 04 . P82 ... ... : D#3 04 6 P81 ... ... : ... .. . ... ... ... : ... .. . ... ... ... : ... .. . ... ... ...
ROW 56 : ... .. . ... ... ... : C-4 02 . P80 ... ... : C#4 00 . P7F ... ... : ... .. F ... ... ... : C#1 12 . ... ... ... : G#1 04 F P80 ... ... : F#3 04 . P80 ... ... : G-1 04 9 ... ... ... : A-1 04 9 ... ... ... : C#3 04 . ... ... ... : ... .. . ... ... ... : ... .. . ... ... ... : ... .. . ... ... ...
ROW 57 : ... .. . ... ... ... : F-3 02 . ... ... ... : F#3 00 . P83 ... ... : 2-# 00 7 ... ... ... : ... .. . ... ... ... : ... .. . ... ... ... : F-3 04 . P84 ... ... : ... .. . ... ... ... : ... .. . ... ... ... : B-2 04 . P82 ... ... : ... .. . ... ... ... : ... .. . ... ... ... : ... .. . ... ... ...
ROW 58 : ... .. . ... ... ... : A#2 02 . P81 ... ... : C#3 00 . P89 ... ... : 6-# 00 C ... ... ... : ... .. . ... ... ... : ... .. . ... ... ... : D#3 04 . P83 ... ... : ... .. . ... ... ... : ... .. . ... ... ... : G#2 04 . P80 ... ... : ... .. . ... ... ... : ... .. . ... ... ... : ... .. . ... ... ...
ROW 59 : ... .. . ... ... ... : D#2 02 . ... ... ... : A#2 00 . P75 ... ... : 7-# 00 8 ... ... ... : ... .. . ... ... ... : ... .. . ... ... ... : C#3 04 . P84 ... ... : ... .. . ... ... ... : ... .. . ... ... ... : F-2 04 5 ... ... ... : ... .. . ... ... ... : ... .. . ... ... ... : ... .. . ... ... ...
ROW 5A : ... .. . ... ... ... : G#1 02 . ... ... ... : G-2 00 . P70 ... ... : 8-# 00 7 ... ... ... : ... .. . ... ... ... : ... .. . ... ... ... : A#2 04 . P80 ... ... : ... .. 8 ... ... ... : ... .. . ... ... ... : C#2 04 . ... ... ... : ... .. . ... ... ... : ... .. . ... ... ... : ... .. . ... ... ...
ROW 5B : ... .. . ... ... ... : C#1 02 . ... ... ... : E-2 00 . P7C ... ... : ... .. 6 ... ... ... : ... .. . ... ... ... : ... .. . ... ... ... : G#2 04 . P83 ... ... : ... .. . ... ... ... : ... .. . ... ... ... : G#1 04 . P7F ... ... : ... .. . ... ... ... : ... .. . ... ... ... : ... .. . ... ... ...
ROW 5C : ... .. . ... ... ... : ... .. . ... ... ... : --- .. . ... ... ... : ... .. . ... ... ... : ... .. . ... ... ... : G#2 04 . ... ... ... : F-2 04 . P82 ... ... : G#2 04 . P82 ... ... : G#2 04 . P7F ... ... : D-1 04 . P81 ... ... : ... .. . ... ... ... : ... .. . ... ... ... : ... .. . ... ... ...
ROW 5D : ... .. . ... ... ... : ... .. . ... ... ... : ... .. . ... ... ... : ... .. 5 ... ... ... : ... .. . ... ... ... : ... .. . ... ... ... : C#2 04 . ... ... ... : ... .. . ... ... ... : ... .. . ... ... ... : D#0 04 4 ... ... ... : ... .. . ... ... ... : ... .. . ... ... ... : ... .. . ... ... ...
ROW 5E : ... .. . ... ... ... : ... .. . ... ... ... : ... .. . ... ... ... : ... .. . ... ... ... : ... .. . ... ... ... : ... .. . ... ... ... : G-1 04 . P80 ... ... : ... .. 7 ... ... ... : ... .. 8 ... ... ... : --- .. . P7F ... ... : ... .. . ... ... ... : ... .. . ... ... ... : ... .. . ... ... ...
ROW 5F : ... .. . ... ... ... : ... .. . ... ... ... : ... .. . ... ... ... : ... .. 4 ... ... ... : ... .. . ... ... ... : ... .. . ... ... ... : C-1 04 . ... ... ... : ... .. . ... ... ... : ... .. . ... ... ... : D#7 04 . P81 ... ... : ... .. . ... ... ... : ... .. . ... ... ... : ... .. . ... ... ...
ROW 60 : ... .. . ... ... ... : ... .. . ... ... ... : ... .. . ... ... ... : ... .. . ... ... ... : ... .. . ... ... ... : ... .. . ... ... ... : C#0 04 . ... ... ... : ... .. . ... ... ... : ... .. . ... ... ... : ... .. . ... ... ... : ... .. . ... ... ... : ... .. . ... ... ... : ... .. . ... ... ...
ROW 61 : ... .. . ... ... ... : ... .. . ... ... ... : ... .. . ... ... ... : ... .. 3 ... ... ... : ... .. . ... ... ... : ... .. . ... ... ... : D#7 04 . P81 ... ... : ... .. . ... ... ... : ... .. . ... ... ... : ... .. 3 ... ... ... : ... .. . ... ... ... : ... .. . ... ... ... : ... .. . ... ... ...
ROW 62 : ... .. . ... ... ... : ... .. . ... ... ... : ... .. . ... ... ... : D-# 00 A ... ... ... : ... .. . ... ... ... : C#2 04 . ... ... ... : --- .. . ... ... ... : C#2 04 6 ... ... ... : C#2 04 . ... ... ... : ... .. . ... ... ... : ... .. . ... ... ... : ... .. . ... ... ... : ... .. . ... ... ...
ROW 63 : ... .. . ... ... ... : ... .. . ... ... ... : ... .. . ... ... ... : E-# 00 4 ... ... ... : ... .. . ... ... ... : ... .. . ... ... ... : ... .. . P80 ... ... : ... .. . ... ... ... : ... .. . ... ... ... : ... .. . ... ... ... : ... .. . ... ... ... : ... .. . ... ... ... : ... .. . ... ... ...
ROW 64 : ... .. . ... ... ... : ... .. . ... ... ... : ... .. . ... ... ... : D-# 00 2 ... ... ... : ... .. . ... ... ... : ... .. . ... ... ... : ... .. . ... ... ... : ... .. . ... ... ... : ... .. . ... ... ... : ... .. . ... ... ... : ... .. . ... ... ... : ... .. . ... ... ... : ... .. . ... ... ...
ROW 65 : ... .. . ... ... ... : ... .. . ... ... ... : ... .. . ... ... ... : ... .. 1 ... ... ... : ... .. . ... ... ... : ... .. . ... ... ... : ... .. . ... ... ... : ... .. . ... ... ... : ... .. . ... ... ... : ... .. 2 ... ... ... : ... .. . ... ... ... : ... .. . ... ... ... : ... .. . ... ... ...
ROW 66 : ... .. . ... ... ... : ... .. . ... ... ... : ... .. . ... ... ... : ... .. . ... ... ... : ... .. . ... ... ... : ... .. . ... ... ... : ... .. . ... ... ... : ... .. 5 ... ... ... : ... .. 7 ... ... ... : ... .. . ... ... ... : ... .. . ... ... ... : ... .. . ... ... ... : ... .. . ... ... ...
ROW 67 : ... .. . ... ... ... : ... .. . ... ... ... : ... .. . ... ... ... : --- .. . ... ... ... : ... .. . ... ... ... : ... .. . ... ... ... : ... .. . ... ... ... : ... .. . ... ... ... : ... .. . ... ... ... : ... .. . ... ... ... : ... .. . ... ... ... : ... .. . ... ... ... : ... .. . ... ... ...
ROW 68 : ... .. . ... ... ... : ... .. . ... ... ... : ... .. . ... ... ... : D-# 00 A ... ... ... : ... .. . ... ... ... : C#3 04 . ... ... ... : ... .. . ... ... ... : C#3 04 . ... ... ... : C#3 04 . ... ... ... : --- .. . ... ... ... : ... .. . ... ... ... : ... .. . ... ... ... : ... .. . ... ... ...
ROW 69 : ... .. . ... ... ... : ... .. . ... ... ... : ... .. . ... ... ... : E-# 00 4 ... ... ... : ... .. . ... ... ... : ... .. . ... ... ... : ... .. . ... ... ... : ... .. . ... ... ... : ... .. . ... ... ... : ... .. . P80 ... ... : ... .. . ... ... ... : ... .. . ... ... ... : ... .. . ... ... ...
ROW 6A : ... .. . ... ... ... : ... .. . ... ... ... : ... .. . ... ... ... : D-# 00 2 ... ... ... : ... .. . ... ... ... : ... .. . ... ... ... : ... .. . ... ... ... : ... .. 4 ... ... ... : ... .. . ... ... ... : ... .. . ... ... ... : ... .. . ... ... ... : ... .. . ... ... ... : ... .. . ... ... ...
ROW 6B : ... .. . ... ... ... : ... .. . ... ... ... : ... .. . ... ... ... : ... .. 1 ... ... ... : ... .. . ... ... ... : ... .. . ... ... ... : ... .. . ... ... ... : ... .. . ... ... ... : ... .. . ... ... ... : ... .. . ... ... ... : ... .. . ... ... ... : ... .. . ... ... ... : ... .. . ... ... ...
ROW 6C : ... .. . ... ... ... : ... .. . ... ... ... : ... .. . ... ... ... : ... .. . ... ... ... : ... .. . ... ... ... : ... .. . ... ... ... : ... .. . ... ... ... : ... .. . ... ... ... : ... .. . ... ... ... : ... .. . ... ... ... : ... .. . ... ... ... : ... .. . ... ... ... : ... .. . ... ... ...
ROW 6D : ... .. . ... ... ... : ... .. . ... ... ... : ... .. . ... ... ... : --- .. . ... ... ... : ... .. . ... ... ... : ... .. . ... ... ... : ... .. . ... ... ... : ... .. . ... ... ... : ... .. . ... ... ... : ... .. . ... ... ... : ... .. . ... ... ... : ... .. . ... ... ... : ... .. . ... ... ...
ROW 6E : ... .. . ... ... ... : ... .. . ... ... ... : ... .. . ... ... ... : ... .. . ... ... ... : ... .. . ... ... ... : ... .. . ... ... ... : ... .. . ... ... ... : ... .. 3 ... ... ... : ... .. 6 ... ... ... : ... .. . ... ... ... : ... .. . ... ... ... : ... .. . ... ... ... : ... .. . ... ... ...
ROW 6F : ... .. . ... ... ... : C-4 02 . P80 ... ... : F#3 00 . P78 ... ... : 1-# 00 F ... ... ... : C-1 12 . ... ... ... : B-4 0C 7 P7C ... ... : ... .. . ... ... ... : --- .. . ... ... ... : A#3 0C 1 P85 ... ... : ... .. . ... ... ... : ... .. . ... ... ... : ... .. . ... ... ... : ... .. . ... ... ...
ROW 70 : ... .. . ... ... ... : F-3 02 . ... ... ... : C#3 00 . P7E ... ... : 2-# 00 7 ... ... ... : ... .. . ... ... ... : A#4 0C . P79 ... ... : ... .. . ... ... ... : ... .. . P80 ... ... : G-3 0C . ... ... ... : ... .. . ... ... ... : ... .. . ... ... ... : ... .. . ... ... ... : ... .. . ... ... ...
ROW 71 : ... .. . ... ... ... : A#2 02 . P81 ... ... : A-2 00 . P86 ... ... : 1-# 00 4 ... ... ... : ... .. . ... ... ... : A-4 0C . P78 ... ... : ... .. . ... ... ... : ... .. . ... ... ... : D#3 0C . P82 ... ... : ... .. . ... ... ... : ... .. . ... ... ... : ... .. . ... ... ... : ... .. . ... ... ...
ROW 72 : ... .. . ... ... ... : D#2 02 . ... ... ... : --- .. . ... ... ... : ... .. 2 ... ... ... : ... .. . ... ... ... : G#4 0C . ... ... ... : ... .. . ... ... ... : ... .. . ... ... ... : A#2 0C . P7F ... ... : ... .. . ... ... ... : ... .. . ... ... ... : ... .. . ... ... ... : ... .. . ... ... ...
ROW 73 : ... .. . ... ... ... : G#1 02 . ... ... ... : ... .. . ... ... ... : ... .. 1 ... ... ... : ... .. . ... ... ... : G-4 0C . ... ... ... : ... .. . ... ... ... : ... .. . ... ... ... : E-2 0C . P81 ... ... : ... .. . ... ... ... : ... .. . ... ... ... : ... .. . ... ... ... : ... .. . ... ... ...
ROW 74 : ... .. . ... ... ... : C#1 02 . ... ... ... : ... .. . ... ... ... : --- .. . ... ... ... : ... .. . ... ... ... : --- .. . ... ... ... : ... .. . ... ... ... : ... .. . ... ... ... : --- .. . ... ... ... : ... .. . ... ... ... : ... .. . ... ... ... : ... .. . ... ... ... : ... .. . ... ... ...
ROW 75 : ... .. . ... ... ... : ... .. . ... ... ... : ... .. . ... ... ... : ... .. . ... ... ... : ... .. . ... ... ... : B-4 0C . P7C ... ... : ... .. . ... ... ... : ... .. . ... ... ... : A#3 0C . P85 ... ... : ... .. . ... ... ... : ... .. . ... ... ... : ... .. . ... ... ... : ... .. . ... ... ...
ROW 76 : ... .. . ... ... ... : ... .. . ... ... ... : ... .. . ... ... ... : ... .. . ... ... ... : ... .. . ... ... ... : A#4 0C . P79 ... ... : ... .. . ... ... ... : ... .. . ... ... ... : G-3 0C . ... ... ... : ... .. . ... ... ... : ... .. . ... ... ... : ... .. . ... ... ... : ... .. . ... ... ...
ROW 77 : ... .. . ... ... ... : ... .. . ... ... ... : ... .. . ... ... ... : ... .. . ... ... ... : ... .. . ... ... ... : A-4 0C . P78 ... ... : ... .. . ... ... ... : ... .. . ... ... ... : --- .. . ... ... ... : ... .. . ... ... ... : ... .. . ... ... ... : ... .. . ... ... ... : ... .. . ... ... ...
ROW 78 : ... .. . ... ... ... : ... .. . ... ... ... : ... .. . ... ... ... : ... .. . ... ... ... : ... .. . ... ... ... : G#4 0C . ... ... ... : ... .. . ... ... ... : ... .. . ... ... ... : ... .. . P80 ... ... : ... .. . ... ... ... : ... .. . ... ... ... : ... .. . ... ... ... : ... .. . ... ... ...
ROW 79 : ... .. . ... ... ... : ... .. . ... ... ... : ... .. . ... ... ... : ... .. . ... ... ... : ... .. . ... ... ... : G-4 0C . ... ... ... : ... .. . ... ... ... : ... .. . ... ... ... : ... .. . ... ... ... : ... .. . ... ... ... : ... .. . ... ... ... : ... .. . ... ... ... : ... .. . ... ... ...
ROW 7A : ... .. . ... ... ... : ... .. . ... ... ... : ... .. . ... ... ... : ... .. . ... ... ... : ... .. . ... ... ... : --- .. . ... ... ... : ... .. . ... ... ... : ... .. . ... ... ... : ... .. . ... ... ... : ... .. . ... ... ... : ... .. . ... ... ... : ... .. . ... ... ... : ... .. . ... ... ...
ROW 7B : ... .. . ... ... ... : ... .. . ... ... ... : ... .. . ... ... ... : D-# 00 A ... ... ... : ... .. . ... ... ... : C#3 05 A P80 ... ... : C#3 05 . P83 ... ... : C#3 05 9 P7E ... ... : G#2 05 9 P81 ... ... : ... .. . ... ... ... : ... .. . ... ... ... : ... .. . ... ... ... : ... .. . ... ... ...
ROW 7C : ... .. . ... ... ... : ... .. . ... ... ... : ... .. . ... ... ... : E-# 00 4 ... ... ... : ... .. . ... ... ... : ... .. . ... ... ... : C-3 05 . P7E ... ... : ... .. . ... ... ... : ... .. . ... ... ... : ... .. . ... ... ... : ... .. . ... ... ... : ... .. . ... ... ... : ... .. . ... ... ...
ROW 7D : ... .. . ... ... ... : ... .. . ... ... ... : ... .. . ... ... ... : D-# 00 2 ... ... ... : ... .. . ... ... ... : ... .. . ... ... ... : C#3 05 . P83 ... ... : ... .. . ... ... ... : ... .. . ... ... ... : ... .. . ... ... ... : ... .. . ... ... ... : ... .. . ... ... ... : ... .. . ... ... ...
ROW 7E : ... .. . ... ... ... : ... .. . ... ... ... : ... .. . ... ... ... : ... .. 1 ... ... ... : ... .. . ... ... ... : ... .. . ... ... ... : ... .. . P82 ... ... : ... .. . ... ... ... : ... .. . ... ... ... : ... .. . ... ... ... : ... .. . ... ... ... : ... .. . ... ... ... : ... .. . ... ... ...
ROW 7F : ... .. . ... ... ... : ... .. . ... ... ... : ... .. . ... ... ... : ... .. . ... ... ... : ... .. . ... ... ... : --- .. . ... ... ... : --- .. . ... ... ... : --- .. . ... ... ... : --- .. . ... ... ... : ... .. . ... ... ... : ... .. . ... ... ... : ... .. . ... ... ... : ... .. . ... ... ...
ROW 80 : ... .. . ... ... ... : ... .. . ... ... ... : ... .. . ... ... ... : --- .. . ... ... ... : ... .. . ... ... ... : ... .. . ... ... ... : ... .. . P80 ... ... : ... .. . P80 ... ... : ... .. . P80 ... ... : ... .. . ... ... ... : ... .. . ... ... ... : ... .. . ... ... ... : ... .. . ... ... ...
ROW 81 : ... .. . ... ... ... : ... .. . ... ... ... : ... .. . ... ... ... : D-# 00 A ... ... ... : ... .. . ... ... ... : C#3 05 4 ... ... ... : C#3 05 4 P83 ... ... : C#3 05 3 P7E ... ... : G#2 05 3 P81 ... ... : ... .. . ... ... ... : ... .. . ... ... ... : ... .. . ... ... ... : ... .. . ... ... ...
ROW 82 : ... .. . ... ... ... : ... .. . ... ... ... : ... .. . ... ... ... : E-# 00 4 ... ... ... : ... .. . ... ... ... : ... .. . ... ... ... : ... .. . P82 ... ... : ... .. . ... ... ... : ... .. . ... ... ... : ... .. . ... ... ... : ... .. . ... ... ... : ... .. . ... ... ... : ... .. . ... ... ...
ROW 83 : ... .. . ... ... ... : ... .. . ... ... ... : ... .. . ... ... ... : D-# 00 2 ... ... ... : ... .. . ... ... ... : ... .. . ... ... ... : ... .. . P83 ... ... : ... .. . ... ... ... : ... .. . ... ... ... : ... .. . ... ... ... : ... .. . ... ... ... : ... .. . ... ... ... : ... .. . ... ... ...
ROW 84 : ... .. . ... ... ... : ... .. . ... ... ... : ... .. . ... ... ... : ... .. 1 ... ... ... : ... .. . ... ... ... : ... .. . ... ... ... : C-3 05 . P7E ... ... : ... .. . ... ... ... : ... .. . ... ... ... : ... .. . ... ... ... : ... .. . ... ... ... : ... .. . ... ... ... : ... .. . ... ... ...
ROW 85 : ... .. . ... ... ... : ... .. . ... ... ... : ... .. . ... ... ... : ... .. . ... ... ... : ... .. . ... ... ... : ... .. . ... ... ... : ... .. . ... ... ... : ... .. 2 ... ... ... : ... .. . ... ... ... : ... .. . ... ... ... : ... .. . ... ... ... : ... .. . ... ... ... : ... .. . ... ... ...
ROW 86 : ... .. . ... ... ... : ... .. . ... ... ... : ... .. . ... ... ... : --- .. . ... ... ... : ... .. . ... ... ... : --- .. . ... ... ... : --- .. . ... ... ... : --- .. . ... ... ... : --- .. . ... ... ... : ... .. . ... ... ... : ... .. . ... ... ... : ... .. . ... ... ... : ... .. . ... ... ...
ROW 87 : ... .. . ... ... ... : ... .. . ... ... ... : ... .. . ... ... ... : ... .. . ... ... ... : ... .. . ... ... ... : ... .. . ... ... ... : ... .. . P80 ... ... : ... .. . P80 ... ... : ... .. . P80 ... ... : ... .. . ... ... ... : ... .. . ... ... ... : ... .. . ... ... ... : ... .. . ... ... ...
ROW 88 : ... .. . ... ... ... : C-4 02 . P80 ... ... : C#4 00 . P7F ... ... : 9-# 00 F ... ... ... : C#1 12 . ... ... ... : F#3 05 A ... ... ... : F#3 05 A P84 ... ... : F#3 05 9 P7E ... ... : D#3 05 9 P81 ... ... : ... .. . ... ... ... : ... .. . ... ... ... : ... .. . ... ... ... : ... .. . ... ... ...
ROW 89 : ... .. . ... ... ... : F-3 02 . ... ... ... : F#3 00 . P83 ... ... : 2-# 00 7 ... ... ... : ... .. . ... ... ... : ... .. . ... ... ... : ... .. . ... ... ... : ... .. . ... ... ... : ... .. . ... ... ... : ... .. . ... ... ... : ... .. . ... ... ... : ... .. . ... ... ... : ... .. . ... ... ...
ROW 8A : ... .. . ... ... ... : A#2 02 . P81 ... ... : C#3 00 . P89 ... ... : 6-# 00 C ... ... ... : ... .. . ... ... ... : ... .. . ... ... ... : ... .. . P83 ... ... : ... .. . ... ... ... : ... .. . ... ... ... : ... .. . ... ... ... : ... .. . ... ... ... : ... .. . ... ... ... : ... .. . ... ... ...
ROW 8B : ... .. . ... ... ... : D#2 02 . ... ... ... : A#2 00 . P75 ... ... : 7-# 00 8 ... ... ... : ... .. . ... ... ... : ... .. . ... ... ... : ... .. . P82 ... ... : ... .. . ... ... ... : ... .. . ... ... ... : ... .. . ... ... ... : ... .. . ... ... ... : ... .. . ... ... ... : ... .. . ... ... ...
ROW 8C : ... .. . ... ... ... : G#1 02 . ... ... ... : G-2 00 . P70 ... ... : 8-# 00 7 ... ... ... : ... .. . ... ... ... : --- .. . ... ... ... : --- .. . ... ... ... : --- .. . ... ... ... : --- .. . ... ... ... : ... .. . ... ... ... : ... .. . ... ... ... : ... .. . ... ... ... : ... .. . ... ... ...
ROW 8D : ... .. . ... ... ... : C#1 02 . ... ... ... : E-2 00 . P7C ... ... : ... .. 6 ... ... ... : ... .. . ... ... ... : ... .. . ... ... ... : ... .. . P80 ... ... : ... .. . P80 ... ... : ... .. . P80 ... ... : ... .. . ... ... ... : ... .. . ... ... ... : ... .. . ... ... ... : ... .. . ... ... ...
ROW 8E : ... .. . ... ... ... : ... .. . ... ... ... : --- .. . ... ... ... : ... .. . ... ... ... : ... .. . ... ... ... : F#3 05 4 ... ... ... : F#3 05 4 P83 ... ... : F#3 05 3 P7E ... ... : D#3 05 3 P81 ... ... : ... .. . ... ... ... : ... .. . ... ... ... : ... .. . ... ... ... : ... .. . ... ... ...
ROW 8F : ... .. . ... ... ... : ... .. . ... ... ... : ... .. . ... ... ... : ... .. 5 ... ... ... : ... .. . ... ... ... : ... .. . ... ... ... : ... .. . P82 ... ... : ... .. . ... ... ... : ... .. . ... ... ... : ... .. . ... ... ... : ... .. . ... ... ... : ... .. . ... ... ... : ... .. . ... ... ...
ROW 90 : ... .. . ... ... ... : ... .. . ... ... ... : ... .. . ... ... ... : ... .. . ... ... ... : ... .. . ... ... ... : ... .. . ... ... ... : ... .. . P83 ... ... : ... .. . ... ... ... : ... .. . ... ... ... : ... .. . ... ... ... : ... .. . ... ... ... : ... .. . ... ... ... : ... .. . ... ... ...
ROW 91 : ... .. . ... ... ... : ... .. . ... ... ... : ... .. . ... ... ... : ... .. 4 ... ... ... : ... .. . ... ... ... : ... .. . ... ... ... : ... .. . P84 ... ... : ... .. . ... ... ... : ... .. . ... ... ... : ... .. . ... ... ... : ... .. . ... ... ... : ... .. . ... ... ... : ... .. . ... ... ...
ROW 92 : ... .. . ... ... ... : ... .. . ... ... ... : ... .. . ... ... ... : ... .. . ... ... ... : ... .. . ... ... ... : --- .. . ... ... ... : --- .. . ... ... ... : --- .. . ... ... ... : --- .. . ... ... ... : ... .. . ... ... ... : ... .. . ... ... ... : ... .. . ... ... ... : ... .. . ... ... ...
ROW 93 : ... .. . ... ... ... : ... .. . ... ... ... : ... .. . ... ... ... : ... .. 3 ... ... ... : ... .. . ... ... ... : ... .. . ... ... ... : ... .. . P80 ... ... : ... .. . P80 ... ... : ... .. . P80 ... ... : ... .. . ... ... ... : ... .. . ... ... ... : ... .. . ... ... ... : ... .. . ... ... ...
ROW 94 : ... .. . ... ... ... : ... .. . ... ... ... : ... .. . ... ... ... : D-# 00 A ... ... ... : ... .. . ... ... ... : B-3 05 A ... ... ... : B-3 05 A P83 ... ... : B-3 05 9 P7E ... ... : F#3 05 9 P81 ... ... : ... .. . ... ... ... : ... .. . ... ... ... : ... .. . ... ... ... : ... .. . ... ... ...
ROW 95 : ... .. . ... ... ... : ... .. . ... ... ... : ... .. . ... ... ... : E-# 00 4 ... ... ... : ... .. . ... ... ... : ... .. . ... ... ... : ... .. . P84 ... ... : ... .. . ... ... ... : ... .. . ... ... ... : ... .. . ... ... ... : ... .. . ... ... ... : ... .. . ... ... ... : ... .. . ... ... ...
ROW 96 : ... .. . ... ... ... : ... .. . ... ... ... : ... .. . ... ... ... : D-# 00 2 ... ... ... : ... .. . ... ... ... : ... .. . ... ... ... : ... .. . ... ... ... : ... .. . ... ... ... : ... .. . ... ... ... : ... .. . ... ... ... : ... .. . ... ... ... : ... .. . ... ... ... : ... .. . ... ... ...
ROW 97 : ... .. . ... ... ... : ... .. . ... ... ... : ... .. . ... ... ... : ... .. 1 ... ... ... : ... .. . ... ... ... : ... .. . ... ... ... : ... .. . P83 ... ... : ... .. . ... ... ... : ... .. . ... ... ... : ... .. . ... ... ... : ... .. . ... ... ... : ... .. . ... ... ... : ... .. . ... ... ...
ROW 98 : ... .. . ... ... ... : ... .. . ... ... ... : ... .. . ... ... ... : ... .. . ... ... ... : ... .. . ... ... ... : --- .. . ... ... ... : --- .. . ... ... ... : --- .. . ... ... ... : --- .. . ... ... ... : ... .. . ... ... ... : ... .. . ... ... ... : ... .. . ... ... ... : ... .. . ... ... ...
ROW 99 : ... .. . ... ... ... : ... .. . ... ... ... : ... .. . ... ... ... : --- .. . ... ... ... : ... .. . ... ... ... : ... .. . ... ... ... : ... .. . P80 ... ... : ... .. . P80 ... ... : ... .. . P80 ... ... : ... .. . ... ... ... : ... .. . ... ... ... : ... .. . ... ... ... : ... .. . ... ... ...
ROW 9A : ... .. . ... ... ... : ... .. . ... ... ... : ... .. . ... ... ... : D-# 00 A ... ... ... : ... .. . ... ... ... : B-3 05 4 ... ... ... : B-3 05 . P84 ... ... : B-3 05 . P7E ... ... : F#3 05 . P81 ... ... : ... .. . ... ... ... : ... .. . ... ... ... : ... .. . ... ... ... : ... .. . ... ... ...
ROW 9B : ... .. . ... ... ... : ... .. . ... ... ... : ... .. . ... ... ... : E-# 00 4 ... ... ... : ... .. . ... ... ... : ... .. . ... ... ... : ... .. . P83 ... ... : ... .. . ... ... ... : ... .. . ... ... ... : ... .. . ... ... ... : ... .. . ... ... ... : ... .. . ... ... ... : ... .. . ... ... ...
ROW 9C : ... .. . ... ... ... : ... .. . ... ... ... : ... .. . ... ... ... : D-# 00 2 ... ... ... : ... .. . ... ... ... : ... .. . ... ... ... : ... .. . P82 ... ... : ... .. . ... ... ... : ... .. . ... ... ... : ... .. . ... ... ... : ... .. . ... ... ... : ... .. . ... ... ... : ... .. . ... ... ...
ROW 9D : ... .. . ... ... ... : ... .. . ... ... ... : ... .. . ... ... ... : ... .. 1 ... ... ... : ... .. . ... ... ... : ... .. . ... ... ... : ... .. . P83 ... ... : ... .. . ... ... ... : ... .. . ... ... ... : ... .. . ... ... ... : ... .. . ... ... ... : ... .. . ... ... ... : ... .. . ... ... ...
ROW 9E : ... .. . ... ... ... : ... .. . ... ... ... : ... .. . ... ... ... : ... .. . ... ... ... : ... .. . ... ... ... : ... .. . ... ... ... : ... .. . P84 ... ... : ... .. 8 ... ... ... : ... .. . ... ... ... : ... .. . ... ... ... : ... .. . ... ... ... : ... .. . ... ... ... : ... .. . ... ... ...
ROW 9F : ... .. . ... ... ... : ... .. . ... ... ... : ... .. . ... ... ... : --- .. . ... ... ... : ... .. . ... ... ... : --- .. . ... ... ... : --- .. . ... ... ... : --- .. . ... ... ... : --- .. . ... ... ... : ... .. . ... ... ... : ... .. . ... ... ... : ... .. . ... ... ... : ... .. . ... ... ...
ROW A0 : ... .. . ... ... ... : ... .. . ... ... ... : ... .. . ... ... ... : ... .. . ... ... ... : ... .. . ... ... ... : ... .. . ... ... ... : ... .. . P80 ... ... : ... .. . P80 ... ... : ... .. . P80 ... ... : ... .. . ... ... ... : ... .. . ... ... ... : ... .. . ... ... ... : ... .. . ... ... ...
ROW A1 : ... .. . ... ... ... : C-4 02 . P80 ... ... : F#3 00 . P78 ... ... : 1-# 00 F ... ... ... : C-1 12 . ... ... ... : D#2 06 F ... ... ... : D#2 06 F P81 ... ... : ... .. . ... ... ... : D#2 06 E P7F ... ... : D#3 06 B P81 ... ... : ... .. . ... ... ... : ... .. . ... ... ... : ... .. . ... ... ...
ROW A2 : ... .. . ... ... ... : F-3 02 . ... ... ... : C#3 00 . P7E ... ... : 2-# 00 7 ... ... ... : ... .. . ... ... ... : ... .. . ... ... ... : D-2 06 . P7F ... ... : ... .. . ... ... ... : ... .. . ... ... ... : ... .. . ... ... ... : ... .. . ... ... ... : ... .. . ... ... ... : ... .. . ... ... ...
ROW A3 : ... .. . ... ... ... : A#2 02 . P81 ... ... : A-2 00 . P86 ... ... : 1-# 00 4 ... ... ... : ... .. . ... ... ... : ... .. . ... ... ... : D#2 06 . P81 ... ... : ... .. . ... ... ... : ... .. . ... ... ... : ... .. . ... ... ... : ... .. . ... ... ... : ... .. . ... ... ... : ... .. . ... ... ...
ROW A4 : ... .. . ... ... ... : D#2 02 . ... ... ... : --- .. . ... ... ... : ... .. 2 ... ... ... : ... .. . ... ... ... : D#2 09 . ... ... ... : D#2 09 . P80 ... ... : ... .. . ... ... ... : D#2 09 . ... ... ... : D#3 09 . ... ... ... : ... .. . ... ... ... : ... .. . ... ... ... : ... .. . ... ... ...
ROW A5 : ... .. . ... ... ... : G#1 02 . ... ... ... : ... .. . ... ... ... : ... .. 1 ... ... ... : ... .. . ... ... ... : ... .. . ... ... ... : ... .. . P81 ... ... : ... .. . ... ... ... : ... .. . ... ... ... : ... .. A ... ... ... : ... .. . ... ... ... : ... .. . ... ... ... : ... .. . ... ... ...
ROW A6 : ... .. . ... ... ... : C#1 02 . ... ... ... : ... .. . ... ... ... : --- .. . ... ... ... : ... .. . ... ... ... : ... .. . ... ... ... : ... .. . P82 ... ... : ... .. . ... ... ... : ... .. . ... ... ... : ... .. . ... ... ... : ... .. . ... ... ... : ... .. . ... ... ... : ... .. . ... ... ...
ROW A7 : ... .. . ... ... ... : ... .. . ... ... ... : ... .. . ... ... ... : ... .. . ... ... ... : ... .. . ... ... ... : D#2 06 . ... ... ... : D#2 06 . ... ... ... : ... .. . ... ... ... : D#2 06 . ... ... ... : D#3 06 . ... ... ... : ... .. . ... ... ... : ... .. . ... ... ... : ... .. . ... ... ...
ROW A8 : ... .. . ... ... ... : ... .. . ... ... ... : ... .. . ... ... ... : ... .. . ... ... ... : ... .. . ... ... ... : ... .. . ... ... ... : ... .. . P81 ... ... : ... .. . ... ... ... : ... .. . ... ... ... : ... .. . ... ... ... : ... .. . ... ... ... : ... .. . ... ... ... : ... .. . ... ... ...
ROW A9 : ... .. . ... ... ... : ... .. . ... ... ... : ... .. . ... ... ... : ... .. . ... ... ... : ... .. . ... ... ... : ... .. . ... ... ... : ... .. . ... ... ... : ... .. . ... ... ... : ... .. D ... ... ... : ... .. 9 ... ... ... : ... .. . ... ... ... : ... .. . ... ... ... : ... .. . ... ... ...
ROW AA : ... .. . ... ... ... : ... .. . ... ... ... : ... .. . ... ... ... : ... .. . ... ... ... : ... .. . ... ... ... : D#2 09 . ... ... ... : D#2 09 . P82 ... ... : ... .. . ... ... ... : D#2 09 . ... ... ... : D#3 09 . ... ... ... : ... .. . ... ... ... : ... .. . ... ... ... : ... .. . ... ... ...
ROW AB : ... .. . ... ... ... : ... .. . ... ... ... : ... .. . ... ... ... : ... .. . ... ... ... : ... .. . ... ... ... : ... .. . ... ... ... : D-2 09 . P7F ... ... : ... .. . ... ... ... : ... .. . ... ... ... : ... .. . ... ... ... : ... .. . ... ... ... : ... .. . ... ... ... : ... .. . ... ... ...
ROW AC : ... .. . ... ... ... : ... .. . ... ... ... : ... .. . ... ... ... : ... .. . ... ... ... : ... .. . ... ... ... : ... .. . ... ... ... : D#2 09 . P81 ... ... : ... .. . ... ... ... : ... .. . ... ... ... : ... .. . ... ... ... : ... .. . ... ... ... : ... .. . ... ... ... : ... .. . ... ... ...
ROW AD : ... .. . ... ... ... : ... .. . ... ... ... : ... .. . ... ... ... : D-# 00 A ... ... ... : ... .. . ... ... ... : D#2 06 . ... ... ... : D#2 06 . P80 ... ... : ... .. . ... ... ... : D#2 06 . ... ... ... : D#3 06 8 ... ... ... : ... .. . ... ... ... : ... .. . ... ... ... : ... .. . ... ... ...
ROW AE : ... .. . ... ... ... : ... .. . ... ... ... : ... .. . ... ... ... : E-# 00 4 ... ... ... : ... .. . ... ... ... : ... .. . ... ... ... : ... .. . P81 ... ... : ... .. . ... ... ... : ... .. . ... ... ... : ... .. . ... ... ... : ... .. . ... ... ... : ... .. . ... ... ... : ... .. . ... ... ...
ROW AF : ... .. . ... ... ... : ... .. . ... ... ... : ... .. . ... ... ... : D-# 00 2 ... ... ... : ... .. . ... ... ... : ... .. . ... ... ... : D-2 06 . P7F ... ... : ... .. . ... ... ... : ... .. . ... ... ... : ... .. . ... ... ... : ... .. . ... ... ... : ... .. . ... ... ... : ... .. . ... ... ...
ROW B0 : ... .. . ... ... ... : ... .. . ... ... ... : ... .. . ... ... ... : ... .. 1 ... ... ... : ... .. . ... ... ... : D#2 09 . ... ... ... : D#2 09 . P81 ... ... : ... .. . ... ... ... : D#2 09 . ... ... ... : D#3 09 . ... ... ... : ... .. . ... ... ... : ... .. . ... ... ... : ... .. . ... ... ...
ROW B1 : ... .. . ... ... ... : ... .. . ... ... ... : ... .. . ... ... ... : ... .. . ... ... ... : ... .. . ... ... ... : ... .. . ... ... ... : ... .. . P80 ... ... : ... .. . ... ... ... : ... .. C ... ... ... : ... .. 7 ... ... ... : ... .. . ... ... ... : ... .. . ... ... ... : ... .. . ... ... ...
ROW B2 : ... .. . ... ... ... : ... .. . ... ... ... : ... .. . ... ... ... : --- .. . ... ... ... : ... .. . ... ... ... : ... .. . ... ... ... : ... .. . P81 ... ... : ... .. . ... ... ... : ... .. . ... ... ... : ... .. . ... ... ... : ... .. . ... ... ... : ... .. . ... ... ... : ... .. . ... ... ...
ROW B3 : ... .. . ... ... ... : ... .. . ... ... ... : ... .. . ... ... ... : D-# 00 A ... ... ... : ... .. . ... ... ... : D#2 06 . ... ... ... : D-2 06 . P7F ... ... : ... .. . ... ... ... : D#2 06 . ... ... ... : D#3 06 . ... ... ... : ... .. . ... ... ... : ... .. . ... ... ... : ... .. . ... ... ...
ROW B4 : ... .. . ... ... ... : ... .. . ... ... ... : ... .. . ... ... ... : E-# 00 4 ... ... ... : ... .. . ... ... ... : ... .. . ... ... ... : D#2 06 . P81 ... ... : ... .. . ... ... ... : ... .. . ... ... ... : ... .. . ... ... ... : ... .. . ... ... ... : ... .. . ... ... ... : ... .. . ... ... ...
ROW B5 : ... .. . ... ... ... : ... .. . ... ... ... : ... .. . ... ... ... : D-# 00 2 ... ... ... : ... .. . ... ... ... : ... .. . ... ... ... : ... .. . P80 ... ... : ... .. . ... ... ... : ... .. . ... ... ... : ... .. 6 ... ... ... : ... .. . ... ... ... : ... .. . ... ... ... : ... .. . ... ... ...
ROW B6 : ... .. . ... ... ... : ... .. . ... ... ... : ... .. . ... ... ... : ... .. 1 ... ... ... : ... .. . ... ... ... : D#2 09 . ... ... ... : D#2 09 . P81 ... ... : ... .. . ... ... ... : D#2 09 . ... ... ... : D#3 09 . ... ... ... : ... .. . ... ... ... : ... .. . ... ... ... : ... .. . ... ... ...
ROW B7 : ... .. . ... ... ... : ... .. . ... ... ... : ... .. . ... ... ... : ... .. . ... ... ... : ... .. . ... ... ... : ... .. . ... ... ... : ... .. . P82 ... ... : ... .. . ... ... ... : ... .. . ... ... ... : ... .. . ... ... ... : ... .. . ... ... ... : ... .. . ... ... ... : ... .. . ... ... ...
ROW B8 : ... .. . ... ... ... : ... .. . ... ... ... : ... .. . ... ... ... : --- .. . ... ... ... : ... .. . ... ... ... : ... .. . ... ... ... : ... .. . ... ... ... : ... .. . ... ... ... : ... .. . ... ... ... : ... .. . ... ... ... : ... .. . ... ... ... : ... .. . ... ... ... : ... .. . ... ... ...
ROW B9 : ... .. . ... ... ... : ... .. . ... ... ... : ... .. . ... ... ... : ... .. . ... ... ... : ... .. . ... ... ... : ... .. . ... ... ... : ... .. . P81 ... ... : ... .. . ... ... ... : ... .. B ... ... ... : ... .. 5 ... ... ... : ... .. . ... ... ... : ... .. . ... ... ... : ... .. . ... ... ...
ROW BA : ... .. . ... ... ... : C-4 02 . P80 ... ... : C#4 00 . P7F ... ... : 9-# 00 F ... ... ... : C#1 12 . ... ... ... : D-2 06 . ... ... ... : D-2 06 . P80 ... ... : ... .. . ... ... ... : D-2 06 . ... ... ... : D-3 06 . ... ... ... : ... .. . ... ... ... : ... .. . ... ... ... : ... .. . ... ... ...
ROW BB : ... .. . ... ... ... : F-3 02 . ... ... ... : F#3 00 . P83 ... ... : 2-# 00 7 ... ... ... : ... .. . ... ... ... : ... .. . ... ... ... : ... .. . P81 ... ... : ... .. . ... ... ... : ... .. . ... ... ... : ... .. . ... ... ... : ... .. . ... ... ... : ... .. . ... ... ... : ... .. . ... ... ...
ROW BC : ... .. . ... ... ... : A#2 02 . P81 ... ... : C#3 00 . P89 ... ... : 6-# 00 C ... ... ... : ... .. . ... ... ... : ... .. . ... ... ... : C#2 06 . P7F ... ... : ... .. . ... ... ... : ... .. . ... ... ... : ... .. . ... ... ... : ... .. . ... ... ... : ... .. . ... ... ... : ... .. . ... ... ...
ROW BD : ... .. . ... ... ... : D#2 02 . ... ... ... : A#2 00 . P75 ... ... : 7-# 00 8 ... ... ... : ... .. . ... ... ... : D-2 07 . ... ... ... : D-2 07 . P81 ... ... : ... .. . ... ... ... : D-2 07 . ... ... ... : D-3 07 4 ... ... ... : ... .. . ... ... ... : ... .. . ... ... ... : ... .. . ... ... ...
ROW BE : ... .. . ... ... ... : G#1 02 . ... ... ... : G-2 00 . P70 ... ... : 8-# 00 7 ... ... ... : ... .. . ... ... ... : ... .. . ... ... ... : ... .. . P80 ... ... : ... .. . ... ... ... : ... .. . ... ... ... : ... .. . ... ... ... : ... .. . ... ... ... : ... .. . ... ... ... : ... .. . ... ... ...
ROW BF : ... .. . ... ... ... : C#1 02 . ... ... ... : E-2 00 . P7C ... ... : ... .. 6 ... ... ... : ... .. . ... ... ... : ... .. . ... ... ... : ... .. . P81 ... ... : ... .. . ... ... ... : ... .. . ... ... ... : ... .. . ... ... ... : ... .. . ... ... ... : ... .. . ... ... ... : ... .. . ... ... ...
ROW C0 : ... .. . ... ... ... : ... .. . ... ... ... : --- .. . ... ... ... : ... .. . ... ... ... : ... .. . ... ... ... : D-2 08 . ... ... ... : C#2 08 . P7F ... ... : ... .. . ... ... ... : D-2 08 . ... ... ... : D-3 08 . ... ... ... : ... .. . ... ... ... : ... .. . ... ... ... : ... .. . ... ... ...
ROW C1 : ... .. . ... ... ... : ... .. . ... ... ... : ... .. . ... ... ... : ... .. 5 ... ... ... : ... .. . ... ... ... : ... .. . ... ... ... : D-2 08 . P81 ... ... : ... .. . ... ... ... : ... .. A ... ... ... : ... .. 3 ... ... ... : ... .. . ... ... ... : ... .. . ... ... ... : ... .. . ... ... ...
ROW C2 : ... .. . ... ... ... : ... .. . ... ... ... : ... .. . ... ... ... : ... .. . ... ... ... : ... .. . ... ... ... : ... .. . ... ... ... : ... .. . P80 ... ... : ... .. . ... ... ... : ... .. . ... ... ... : ... .. . ... ... ... : ... .. . ... ... ... : ... .. . ... ... ... : ... .. . ... ... ...
ROW C3 : ... .. . ... ... ... : ... .. . ... ... ... : ... .. . ... ... ... : ... .. 4 ... ... ... : ... .. . ... ... ... : D-2 09 . ... ... ... : D-2 09 . P81 ... ... : ... .. . ... ... ... : D-2 09 . ... ... ... : D-3 09 . ... ... ... : ... .. . ... ... ... : ... .. . ... ... ... : ... .. . ... ... ...
ROW C4 : ... .. . ... ... ... : ... .. . ... ... ... : ... .. . ... ... ... : ... .. . ... ... ... : ... .. . ... ... ... : ... .. . ... ... ... : C#2 09 . P7F ... ... : ... .. . ... ... ... : ... .. . ... ... ... : ... .. . ... ... ... : ... .. . ... ... ... : ... .. . ... ... ... : ... .. . ... ... ...
ROW C5 : ... .. . ... ... ... : ... .. . ... ... ... : ... .. . ... ... ... : ... .. 3 ... ... ... : ... .. . ... ... ... : ... .. . ... ... ... : D-2 09 . P82 ... ... : ... .. . ... ... ... : ... .. . ... ... ... : ... .. 2 ... ... ... : ... .. . ... ... ... : ... .. . ... ... ... : ... .. . ... ... ...
ROW C6 : ... .. . ... ... ... : F-3 02 . P80 ... ... : C#4 00 . P7F ... ... : 1-# 00 F ... ... ... : C-1 12 . ... ... ... : --- .. . ... ... ... : --- .. . ... ... ... : ... .. . ... ... ... : --- .. . ... ... ... : --- .. . ... ... ... : ... .. . ... ... ... : ... .. . ... ... ... : ... .. . ... ... ...
ROW C7 : ... .. . ... ... ... : A#2 02 . P81 ... ... : F#3 00 . P83 ... ... : 2-# 00 7 ... ... ... : ... .. . ... ... ... : ... .. . ... ... ... : ... .. . P80 ... ... : ... .. . ... ... ... : ... .. . P80 ... ... : ... .. . P80 ... ... : ... .. . ... ... ... : ... .. . ... ... ... : ... .. . ... ... ...
ROW C8 : ... .. . ... ... ... : D#2 02 . ... ... ... : C#3 00 . P89 ... ... : 1-# 00 4 ... ... ... : ... .. . ... ... ... : ... .. . ... ... ... : ... .. . ... ... ... : ... .. . ... ... ... : ... .. . ... ... ... : ... .. . ... ... ... : ... .. . ... ... ... : ... .. . ... ... ... : ... .. . ... ... ...
ROW C9 : ... .. . ... ... ... : G#1 02 . ... ... ... : A#2 00 . P75 ... ... : ... .. 2 ... ... ... : ... .. . ... ... ... : ... .. . ... ... ... : ... .. . ... ... ... : ... .. . ... ... ... : ... .. . ... ... ... : ... .. . ... ... ... : ... .. . ... ... ... : ... .. . ... ... ... : ... .. . ... ... ...
ROW CA : ... .. . ... ... ... : C#1 02 . ... ... ... : G-2 00 . P70 ... ... : ... .. 1 ... ... ... : ... .. . ... ... ... : ... .. . ... ... ... : ... .. . ... ... ... : ... .. . ... ... ... : ... .. . ... ... ... : ... .. . ... ... ... : ... .. . ... ... ... : ... .. . ... ... ... : ... .. . ... ... ...
ROW CB : ... .. . ... ... ... : ... .. . ... ... ... : E-2 00 . P7C ... ... : --- .. . ... ... ... : ... .. . ... ... ... : ... .. . ... ... ... : ... .. . ... ... ... : ... .. . ... ... ... : ... .. . ... ... ... : ... .. . ... ... ... : ... .. . ... ... ... : ... .. . ... ... ... : ... .. . ... ... ...
ROW CC : ... .. . ... ... ... : ... .. . ... ... ... : D-2 00 . P6F ... ... : ... .. . ... ... ... : ... .. . ... ... ... : ... .. . ... ... ... : ... .. . ... ... ... : ... .. . ... ... ... : ... .. . ... ... ... : ... .. . ... ... ... : ... .. . ... ... ... : ... .. . ... ... ... : ... .. . ... ... ...
ROW CD : ... .. . ... ... ... : ... .. . ... ... ... : C-2 00 . P6C ... ... : ... .. . ... ... ... : ... .. . ... ... ... : ... .. . ... ... ... : ... .. . ... ... ... : ... .. . ... ... ... : ... .. . ... ... ... : ... .. . ... ... ... : ... .. . ... ... ... : ... .. . ... ... ... : ... .. . ... ... ...
ROW CE : ... .. . ... ... ... : ... .. . ... ... ... : A#1 00 . P75 ... ... : ... .. . ... ... ... : ... .. . ... ... ... : ... .. . ... ... ... : ... .. . ... ... ... : ... .. . ... ... ... : ... .. . ... ... ... : ... .. . ... ... ... : ... .. . ... ... ... : ... .. . ... ... ... : ... .. . ... ... ...
ROW CF : ... .. . ... ... ... : ... .. . ... ... ... : G#1 00 . P8A ... ... : ... .. . ... ... ... : ... .. . ... ... ... : C-2 07 . ... ... ... : C-2 07 . ... ... ... : ... .. . ... ... ... : ... .. . ... ... ... : ... .. . ... ... ... : ... .. . ... ... ... : ... .. . ... ... ... : ... .. . ... ... ...
ROW D0 : ... .. . ... ... ... : ... .. . ... ... ... : G-1 00 . P6A ... ... : ... .. . ... ... ... : ... .. . ... ... ... : ... .. . ... ... ... : ... .. . P81 ... ... : ... .. . ... ... ... : ... .. . ... ... ... : ... .. . ... ... ... : ... .. . ... ... ... : ... .. . ... ... ... : ... .. . ... ... ...
ROW D1 : ... .. . ... ... ... : ... .. . ... ... ... : F-1 00 . P96 ... ... : ... .. . ... ... ... : ... .. . ... ... ... : ... .. . ... ... ... : B-1 07 . P7F ... ... : ... .. . ... ... ... : ... .. . ... ... ... : ... .. . ... ... ... : ... .. . ... ... ... : ... .. . ... ... ... : ... .. . ... ... ...
ROW D2 : ... .. . ... ... ... : ... .. . ... ... ... : E-1 00 . P82 ... ... : ... .. . ... ... ... : ... .. . ... ... ... : ... .. . ... ... ... : C-2 07 . P81 ... ... : ... .. . ... ... ... : ... .. . ... ... ... : ... .. . ... ... ... : ... .. . ... ... ... : ... .. . ... ... ... : ... .. . ... ... ...
ROW D3 : ... .. . ... ... ... : C-4 02 . P80 ... ... : F#3 00 . P78 ... ... : 1-# 00 F ... ... ... : C-1 12 . ... ... ... : C#2 06 . ... ... ... : C#2 06 . P80 ... ... : ... .. . ... ... ... : C#2 06 8 P7F ... ... : ... .. . ... ... ... : ... .. . ... ... ... : ... .. . ... ... ... : ... .. . ... ... ...
ROW D4 : ... .. . ... ... ... : F-3 02 . ... ... ... : C#3 00 . P7E ... ... : 2-# 00 7 ... ... ... : ... .. . ... ... ... : ... .. . ... ... ... : ... .. . P81 ... ... : ... .. . ... ... ... : ... .. . ... ... ... : ... .. . ... ... ... : ... .. . ... ... ... : ... .. . ... ... ... : ... .. . ... ... ...
ROW D5 : ... .. . ... ... ... : A#2 02 . P81 ... ... : A-2 00 . P86 ... ... : 1-# 00 4 ... ... ... : ... .. . ... ... ... : ... .. . ... ... ... : C-2 06 . P7F ... ... : ... .. . ... ... ... : ... .. . ... ... ... : ... .. . ... ... ... : ... .. . ... ... ... : ... .. . ... ... ... : ... .. . ... ... ...
ROW D6 : ... .. . ... ... ... : D#2 02 . ... ... ... : --- .. . ... ... ... : ... .. 2 ... ... ... : ... .. . ... ... ... : C#2 09 . ... ... ... : C#2 09 . P82 ... ... : ... .. . ... ... ... : C#2 09 . ... ... ... : ... .. . ... ... ... : ... .. . ... ... ... : ... .. . ... ... ... : ... .. . ... ... ...
ROW D7 : ... .. . ... ... ... : G#1 02 . ... ... ... : ... .. . ... ... ... : ... .. 1 ... ... ... : ... .. . ... ... ... : ... .. . ... ... ... : ... .. . P81 ... ... : ... .. . ... ... ... : ... .. . ... ... ... : ... .. . ... ... ... : ... .. . ... ... ... : ... .. . ... ... ... : ... .. . ... ... ...
ROW D8 : ... .. . ... ... ... : C#1 02 . ... ... ... : ... .. . ... ... ... : --- .. . ... ... ... : ... .. . ... ... ... : ... .. . ... ... ... : ... .. . ... ... ... : ... .. . ... ... ... : ... .. . ... ... ... : ... .. . ... ... ... : ... .. . ... ... ... : ... .. . ... ... ... : ... .. . ... ... ...
ROW D9 : ... .. . ... ... ... : ... .. . ... ... ... : ... .. . ... ... ... : ... .. . ... ... ... : ... .. . ... ... ... : C#2 06 . ... ... ... : C#2 06 . P82 ... ... : ... .. . ... ... ... : C#2 06 7 ... ... ... : ... .. . ... ... ... : ... .. . ... ... ... : ... .. . ... ... ... : ... .. . ... ... ...
ROW DA : ... .. . ... ... ... : ... .. . ... ... ... : ... .. . ... ... ... : ... .. . ... ... ... : ... .. . ... ... ... : ... .. . ... ... ... : C-2 06 . P7F ... ... : ... .. . ... ... ... : ... .. . ... ... ... : ... .. . ... ... ... : ... .. . ... ... ... : ... .. . ... ... ... : ... .. . ... ... ...
ROW DB : ... .. . ... ... ... : ... .. . ... ... ... : ... .. . ... ... ... : ... .. . ... ... ... : ... .. . ... ... ... : ... .. . ... ... ... : C#2 06 . P81 ... ... : ... .. . ... ... ... : ... .. . ... ... ... : ... .. . ... ... ... : ... .. . ... ... ... : ... .. . ... ... ... : ... .. . ... ... ...
ROW DC : ... .. . ... ... ... : ... .. . ... ... ... : ... .. . ... ... ... : ... .. . ... ... ... : ... .. . ... ... ... : C#2 09 . ... ... ... : C#2 09 . P80 ... ... : ... .. . ... ... ... : C#2 09 . ... ... ... : ... .. . ... ... ... : ... .. . ... ... ... : ... .. . ... ... ... : ... .. . ... ... ...
ROW DD : ... .. . ... ... ... : ... .. . ... ... ... : ... .. . ... ... ... : ... .. . ... ... ... : ... .. . ... ... ... : ... .. . ... ... ... : ... .. . P81 ... ... : ... .. . ... ... ... : ... .. . ... ... ... : ... .. . ... ... ... : ... .. . ... ... ... : ... .. . ... ... ... : ... .. . ... ... ...
ROW DE : ... .. . ... ... ... : ... .. . ... ... ... : ... .. . ... ... ... : ... .. . ... ... ... : ... .. . ... ... ... : ... .. . ... ... ... : C-2 09 . P7F ... ... : ... .. . ... ... ... : ... .. . ... ... ... : ... .. . ... ... ... : ... .. . ... ... ... : ... .. . ... ... ... : ... .. . ... ... ...
ROW DF : ... .. . ... ... ... : ... .. . ... ... ... : ... .. . ... ... ... : D-# 00 A ... ... ... : ... .. . ... ... ... : C#2 06 . ... ... ... : C#2 06 . P81 ... ... : ... .. . ... ... ... : C#2 06 . ... ... ... : ... .. . ... ... ... : ... .. . ... ... ... : ... .. . ... ... ... : ... .. . ... ... ...
ROW E0 : ... .. . ... ... ... : ... .. . ... ... ... : ... .. . ... ... ... : E-# 00 4 ... ... ... : ... .. . ... ... ... : ... .. . ... ... ... : ... .. . P80 ... ... : ... .. . ... ... ... : ... .. . ... ... ... : ... .. . ... ... ... : ... .. . ... ... ... : ... .. . ... ... ... : ... .. . ... ... ...
ROW E1 : ... .. . ... ... ... : ... .. . ... ... ... : ... .. . ... ... ... : D-# 00 2 ... ... ... : ... .. . ... ... ... : ... .. . ... ... ... : ... .. . P81 ... ... : ... .. . ... ... ... : ... .. 6 ... ... ... : ... .. . ... ... ... : ... .. . ... ... ... : ... .. . ... ... ... : ... .. . ... ... ...
ROW E2 : ... .. . ... ... ... : ... .. . ... ... ... : ... .. . ... ... ... : ... .. 1 ... ... ... : ... .. . ... ... ... : C#2 09 . ... ... ... : C-2 09 . P7F ... ... : ... .. . ... ... ... : C#2 09 . ... ... ... : ... .. . ... ... ... : ... .. . ... ... ... : ... .. . ... ... ... : ... .. . ... ... ...
ROW E3 : ... .. . ... ... ... : ... .. . ... ... ... : ... .. . ... ... ... : ... .. . ... ... ... : ... .. . ... ... ... : ... .. . ... ... ... : C#2 09 . P81 ... ... : ... .. . ... ... ... : ... .. . ... ... ... : ... .. . ... ... ... : ... .. . ... ... ... : ... .. . ... ... ... : ... .. . ... ... ...
ROW E4 : ... .. . ... ... ... : ... .. . ... ... ... : ... .. . ... ... ... : --- .. . ... ... ... : ... .. . ... ... ... : ... .. . ... ... ... : ... .. . P80 ... ... : ... .. . ... ... ... : ... .. . ... ... ... : ... .. . ... ... ... : ... .. . ... ... ... : ... .. . ... ... ... : ... .. . ... ... ...
ROW E5 : ... .. . ... ... ... : ... .. . ... ... ... : ... .. . ... ... ... : D-# 00 A ... ... ... : ... .. . ... ... ... : C#2 06 . ... ... ... : C#2 06 . P81 ... ... : ... .. . ... ... ... : C#2 06 . ... ... ... : ... .. . ... ... ... : ... .. . ... ... ... : ... .. . ... ... ... : ... .. . ... ... ...
ROW E6 : ... .. . ... ... ... : ... .. . ... ... ... : ... .. . ... ... ... : E-# 00 4 ... ... ... : ... .. . ... ... ... : ... .. . ... ... ... : ... .. . P82 ... ... : ... .. . ... ... ... : ... .. . ... ... ... : ... .. . ... ... ... : ... .. . ... ... ... : ... .. . ... ... ... : ... .. . ... ... ...
ROW E7 : ... .. . ... ... ... : ... .. . ... ... ... : ... .. . ... ... ... : D-# 00 2 ... ... ... : ... .. . ... ... ... : ... .. . ... ... ... : ... .. . ... ... ... : ... .. . ... ... ... : ... .. . ... ... ... : ... .. . ... ... ... : ... .. . ... ... ... : ... .. . ... ... ... : ... .. . ... ... ...
ROW E8 : ... .. . ... ... ... : ... .. . ... ... ... : ... .. . ... ... ... : ... .. 1 ... ... ... : ... .. . ... ... ... : C#2 09 . ... ... ... : C#2 09 . P81 ... ... : ... .. . ... ... ... : C#2 09 . ... ... ... : ... .. . ... ... ... : ... .. . ... ... ... : ... .. . ... ... ... : ... .. . ... ... ...
ROW E9 : ... .. . ... ... ... : ... .. . ... ... ... : ... .. . ... ... ... : ... .. . ... ... ... : ... .. . ... ... ... : ... .. . ... ... ... : ... .. . ... ... ... : ... .. . ... ... ... : ... .. 5 ... ... ... : ... .. . ... ... ... : ... .. . ... ... ... : ... .. . ... ... ... : ... .. . ... ... ...
ROW EA : ... .. . ... ... ... : ... .. . ... ... ... : ... .. . ... ... ... : --- .. . ... ... ... : ... .. . ... ... ... : ... .. . ... ... ... : ... .. . P82 ... ... : ... .. . ... ... ... : ... .. . ... ... ... : ... .. . ... ... ... : ... .. . ... ... ... : ... .. . ... ... ... : ... .. . ... ... ...
ROW EB : ... .. . ... ... ... : ... .. . ... ... ... : ... .. . ... ... ... : ... .. . ... ... ... : ... .. . ... ... ... : ... .. . ... ... ... : C-2 09 . P7F ... ... : ... .. . ... ... ... : ... .. . ... ... ... : ... .. . ... ... ... : ... .. . ... ... ... : ... .. . ... ... ... : ... .. . ... ... ...
ROW EC : ... .. . ... ... ... : C-4 02 . P80 ... ... : C#4 00 . P7F ... ... : 9-# 00 F ... ... ... : C#1 12 . ... ... ... : G-1 06 . ... ... ... : G-1 06 . P81 ... ... : ... .. . ... ... ... : G-1 06 . ... ... ... : ... .. . ... ... ... : ... .. . ... ... ... : ... .. . ... ... ... : ... .. . ... ... ...
ROW ED : ... .. . ... ... ... : F-3 02 . ... ... ... : F#3 00 . P83 ... ... : 2-# 00 7 ... ... ... : ... .. . ... ... ... : ... .. . ... ... ... : ... .. . P80 ... ... : ... .. . ... ... ... : ... .. . ... ... ... : ... .. . ... ... ... : ... .. . ... ... ... : ... .. . ... ... ... : ... .. . ... ... ...
ROW EE : ... .. . ... ... ... : A#2 02 . P81 ... ... : C#3 00 . P89 ... ... : 6-# 00 C ... ... ... : ... .. . ... ... ... : ... .. . ... ... ... : ... .. . P81 ... ... : ... .. . ... ... ... : ... .. . ... ... ... : ... .. . ... ... ... : ... .. . ... ... ... : ... .. . ... ... ... : ... .. . ... ... ...
ROW EF : ... .. . ... ... ... : D#2 02 . ... ... ... : A#2 00 . P75 ... ... : 7-# 00 8 ... ... ... : ... .. . ... ... ... : ... .. . ... ... ... : F#1 06 . P80 ... ... : ... .. . ... ... ... : ... .. . ... ... ... : ... .. . ... ... ... : ... .. . ... ... ... : ... .. . ... ... ... : ... .. . ... ... ...
ROW F0 : ... .. . ... ... ... : G#1 02 . ... ... ... : G-2 00 . P70 ... ... : 8-# 00 7 ... ... ... : ... .. . ... ... ... : ... .. . ... ... ... : G-1 06 . P81 ... ... : ... .. . ... ... ... : ... .. . ... ... ... : ... .. . ... ... ... : ... .. . ... ... ... : ... .. . ... ... ... : ... .. . ... ... ...
ROW F1 : ... .. . ... ... ... : C#1 02 . ... ... ... : E-2 00 . P7C ... ... : ... .. 6 ... ... ... : ... .. . ... ... ... : ... .. . ... ... ... : ... .. . P80 ... ... : ... .. . ... ... ... : ... .. 4 ... ... ... : ... .. . ... ... ... : ... .. . ... ... ... : ... .. . ... ... ... : ... .. . ... ... ...
ROW F2 : ... .. . ... ... ... : ... .. . ... ... ... : --- .. . ... ... ... : ... .. . ... ... ... : ... .. . ... ... ... : G-1 07 . ... ... ... : G-1 07 . P81 ... ... : ... .. . ... ... ... : G-1 07 . ... ... ... : ... .. . ... ... ... : ... .. . ... ... ... : ... .. . ... ... ... : ... .. . ... ... ...
ROW F3 : ... .. . ... ... ... : ... .. . ... ... ... : ... .. . ... ... ... : ... .. 5 ... ... ... : ... .. . ... ... ... : ... .. . ... ... ... : F#1 07 . P80 ... ... : ... .. . ... ... ... : ... .. . ... ... ... : ... .. . ... ... ... : ... .. . ... ... ... : ... .. . ... ... ... : ... .. . ... ... ...
ROW F4 : ... .. . ... ... ... : ... .. . ... ... ... : ... .. . ... ... ... : ... .. . ... ... ... : ... .. . ... ... ... : ... .. . ... ... ... : G-1 07 . P81 ... ... : ... .. . ... ... ... : ... .. . ... ... ... : ... .. . ... ... ... : ... .. . ... ... ... : ... .. . ... ... ... : ... .. . ... ... ...
ROW F5 : ... .. . ... ... ... : ... .. . ... ... ... : ... .. . ... ... ... : ... .. 4 ... ... ... : ... .. . ... ... ... : G-1 08 . ... ... ... : G-1 08 . P80 ... ... : ... .. . ... ... ... : G-1 08 . ... ... ... : ... .. . ... ... ... : ... .. . ... ... ... : ... .. . ... ... ... : ... .. . ... ... ...
ROW F6 : ... .. . ... ... ... : ... .. . ... ... ... : ... .. . ... ... ... : ... .. . ... ... ... : ... .. . ... ... ... : ... .. . ... ... ... : ... .. . P81 ... ... : ... .. . ... ... ... : ... .. . ... ... ... : ... .. . ... ... ... : ... .. . ... ... ... : ... .. . ... ... ... : ... .. . ... ... ...
ROW F7 : ... .. . ... ... ... : ... .. . ... ... ... : ... .. . ... ... ... : ... .. 3 ... ... ... : ... .. . ... ... ... : ... .. . ... ... ... : F#1 08 . P80 ... ... : ... .. . ... ... ... : ... .. . ... ... ... : ... .. . ... ... ... : ... .. . ... ... ... : ... .. . ... ... ... : ... .. . ... ... ...
ROW F8 : ... .. . ... ... ... : ... .. . ... ... ... : ... .. . ... ... ... : 6-# 01 F ... ... ... : ... .. . ... ... ... : B-1 06 . ... ... ... : A#1 06 . P7F ... ... : ... .. . ... ... ... : B-1 06 . ... ... ... : ... .. . ... ... ... : ... .. . ... ... ... : ... .. . ... ... ... : ... .. . ... ... ...
ROW F9 : ... .. . ... ... ... : ... .. . ... ... ... : ... .. . ... ... ... : ... .. 9 ... ... ... : ... .. . ... ... ... : ... .. . ... ... ... : B-1 06 . P81 ... ... : ... .. . ... ... ... : ... .. 3 ... ... ... : ... .. . ... ... ... : ... .. . ... ... ... : ... .. . ... ... ... : ... .. . ... ... ...
ROW FA : ... .. . ... ... ... : ... .. . ... ... ... : ... .. . ... ... ... : ... .. 4 ... ... ... : ... .. . ... ... ... : ... .. . ... ... ... : ... .. . P80 ... ... : ... .. . ... ... ... : ... .. . ... ... ... : ... .. . ... ... ... : ... .. . ... ... ... : ... .. . ... ... ... : ... .. . ... ... ...
ROW FB : ... .. . ... ... ... : ... .. . ... ... ... : ... .. . ... ... ... : ... .. 7 ... ... ... : ... .. . ... ... ... : ... .. . ... ... ... : ... .. . P81 ... ... : ... .. . ... ... ... : ... .. . ... ... ... : ... .. . ... ... ... : ... .. . ... ... ... : ... .. . ... ... ... : ... .. . ... ... ...
ROW FC : ... .. . ... ... ... : ... .. . ... ... ... : ... .. . ... ... ... : ... .. 5 ... ... ... : ... .. . ... ... ... : ... .. . ... ... ... : A#1 06 . P80 ... ... : ... .. . ... ... ... : ... .. . ... ... ... : ... .. . ... ... ... : ... .. . ... ... ... : ... .. . ... ... ... : ... .. . ... ... ...
ROW FD : ... .. . ... ... ... : ... .. . ... ... ... : ... .. . ... ... ... : ... .. . ... ... ... : ... .. . ... ... ... : ... .. . ... ... ... : B-1 06 . P81 ... ... : ... .. . ... ... ... : ... .. . ... ... ... : ... .. . ... ... ... : ... .. . ... ... ... : ... .. . ... ... ... : ... .. . ... ... ...
ROW FE : ... .. . ... ... ... : ... .. . ... ... ... : ... .. . ... ... ... : ... .. 4 ... ... ... : ... .. . ... ... ... : B-1 07 . ... ... ... : B-1 07 . P80 ... ... : ... .. . ... ... ... : B-1 07 . ... ... ... : ... .. . ... ... ... : ... .. . ... ... ... : ... .. . ... ... ... : ... .. . ... ... ...
ROW FF : ... .. . ... ... ... : ... .. . ... ... ... : ... .. . ... ... ... : ... .. . ... ... ... : ... .. . ... ... ... : ... .. . ... ... ... : ... .. . P81 ... ... : ... .. . ... ... ... : ... .. . ... ... ... : ... .. . ... ... ... : ... .. . ... ... ... : ... .. . ... ... ... : ... .. . ... ... ...

PATTERN 10
ROW 00 : ... .. . ... ... ... : ... .. . ... ... ... : ... .. . ... ... ... : ... .. 3 ... ... ... : ... .. . ... ... ... : ... .. . ... ... ... : A#1 07 . P80 ... ... : ... .. . ... ... ... : ... .. . ... ... ... : ... .. . ... ... ... : ... .. . ... ... ... : ... .. . ... ... ... : ... .. . ... ... ...
ROW 01 : ... .. . ... ... ... : ... .. . ... ... ... : ... .. . ... ... ... : ... .. 2 ... ... ... : ... .. . ... ... ... : B-1 08 . ... ... ... : B-1 08 . P81 ... ... : ... .. . ... ... ... : B-1 08 2 ... ... ... : ... .. . ... ... ... : ... .. . ... ... ... : ... .. . ... ... ... : ... .. . ... ... ...
ROW 02 : ... .. . ... ... ... : ... .. . ... ... ... : ... .. . ... ... ... : ... .. . ... ... ... : ... .. . ... ... ... : ... .. . ... ... ... : ... .. . P80 ... ... : ... .. . ... ... ... : ... .. . ... ... ... : ... .. . ... ... ... : ... .. . ... ... ... : ... .. . ... ... ... : ... .. . ... ... ...
ROW 03 : ... .. . ... ... ... : ... .. . ... ... ... : ... .. . ... ... ... : ... .. 1 ... ... ... : ... .. . ... ... ... : ... .. . ... ... ... : ... .. . P81 ... ... : ... .. . ... ... ... : ... .. . ... ... ... : ... .. . ... ... ... : ... .. . ... ... ... : ... .. . ... ... ... : ... .. . ... ... ...
ROW 04 : ... .. . ... ... ... : ... .. . ... ... ... : ... .. . ... ... ... : ... .. . ... ... ... : ... .. . ... ... ... : ... .. . ... ... ... : A#1 08 . P80 ... ... : ... .. . ... ... ... : ... .. . ... ... ... : ... .. . ... ... ... : ... .. . ... ... ... : ... .. . ... ... ... : ... .. . ... ... ...
ROW 05 : ... .. . ... ... ... : C-4 02 . P80 ... ... : F#3 00 . P78 ... ... : 1-# 00 F ... ... ... : C-1 12 . ... ... ... : G-4 04 A P78 ... ... : A-4 04 A P82 ... ... : ... .. . ... ... ... : F#4 04 9 P89 ... ... : G-4 04 9 P81 ... ... : ... .. . ... ... ... : ... .. . ... ... ... : ... .. . ... ... ...
ROW 06 : ... .. . ... ... ... : F-3 02 . ... ... ... : C#3 00 . P7E ... ... : 2-# 00 7 ... ... ... : ... .. . ... ... ... : G#4 04 . P84 ... ... : ... .. . P81 ... ... : ... .. . ... ... ... : ... .. . P81 ... ... : ... .. . ... ... ... : ... .. . ... ... ... : ... .. . ... ... ... : ... .. . ... ... ...
ROW 07 : ... .. . ... ... ... : A#2 02 . P81 ... ... : A-2 00 . P86 ... ... : 1-# 00 4 ... ... ... : ... .. . ... ... ... : ... .. . P7C ... ... : ... .. . ... ... ... : ... .. . ... ... ... : ... .. . P79 ... ... : ... .. . ... ... ... : ... .. . ... ... ... : ... .. . ... ... ... : ... .. . ... ... ...
ROW 08 : ... .. . ... ... ... : D#2 02 . ... ... ... : --- .. . ... ... ... : ... .. 2 ... ... ... : ... .. . ... ... ... : A-4 04 . P88 ... ... : ... .. . P82 ... ... : ... .. . ... ... ... : G-4 04 . P83 ... ... : ... .. . ... ... ... : ... .. . ... ... ... : ... .. . ... ... ... : ... .. . ... ... ...
ROW 09 : ... .. . ... ... ... : G#1 02 . ... ... ... : ... .. . ... ... ... : ... .. 1 ... ... ... : ... .. . ... ... ... : ... .. . P80 ... ... : ... .. . ... ... ... : ... .. . ... ... ... : ... .. . P7B ... ... : ... .. 8 ... ... ... : ... .. . ... ... ... : ... .. . ... ... ... : ... .. . ... ... ...
ROW 0A : ... .. . ... ... ... : C#1 02 . ... ... ... : ... .. . ... ... ... : --- .. . ... ... ... : ... .. . ... ... ... : ... .. . P78 ... ... : ... .. . P81 ... ... : ... .. . ... ... ... : G#4 04 . P86 ... ... : ... .. . ... ... ... : ... .. . ... ... ... : ... .. . ... ... ... : ... .. . ... ... ...
ROW 0B : ... .. . ... ... ... : ... .. . ... ... ... : ... .. . ... ... ... : ... .. . ... ... ... : ... .. . ... ... ... : ... .. . P7A ... ... : ... .. . P82 ... ... : ... .. . ... ... ... : ... .. . P88 ... ... : ... .. . P83 ... ... : ... .. . ... ... ... : ... .. . ... ... ... : ... .. . ... ... ...
ROW 0C : ... .. . ... ... ... : ... .. . ... ... ... : ... .. . ... ... ... : ... .. . ... ... ... : ... .. . ... ... ... : ... .. . P7C ... ... : ... .. . P85 ... ... : ... .. . ... ... ... : ... .. . P8A ... ... : ... .. . P85 ... ... : ... .. . ... ... ... : ... .. . ... ... ... : ... .. . ... ... ...
ROW 0D : ... .. . ... ... ... : ... .. . ... ... ... : ... .. . ... ... ... : ... .. . ... ... ... : ... .. . ... ... ... : ... .. . P7E ... ... : ... .. . P88 ... ... : ... .. . ... ... ... : G-4 04 8 P79 ... ... : ... .. 7 P87 ... ... : ... .. . ... ... ... : ... .. . ... ... ... : ... .. . ... ... ...
ROW 0E : ... .. . ... ... ... : ... .. . ... ... ... : ... .. . ... ... ... : ... .. . ... ... ... : ... .. . ... ... ... : ... .. . P80 ... ... : ... .. . P89 ... ... : ... .. . ... ... ... : ... .. . P7B ... ... : ... .. . P89 ... ... : ... .. . ... ... ... : ... .. . ... ... ... : ... .. . ... ... ...
ROW 0F : ... .. . ... ... ... : ... .. . ... ... ... : ... .. . ... ... ... : ... .. . ... ... ... : ... .. . ... ... ... : ... .. . P82 ... ... : ... .. . P8A ... ... : ... .. . ... ... ... : ... .. . P7D ... ... : F#4 04 . P79 ... ... : ... .. . ... ... ... : ... .. . ... ... ... : ... .. . ... ... ...
ROW 10 : ... .. . ... ... ... : ... .. . ... ... ... : ... .. . ... ... ... : ... .. . ... ... ... : ... .. . ... ... ... : ... .. . P84 ... ... : G#4 04 . P79 ... ... : ... .. . ... ... ... : ... .. . P7F ... ... : ... .. . P7B ... ... : ... .. . ... ... ... : ... .. . ... ... ... : ... .. . ... ... ...
ROW 11 : ... .. . ... ... ... : ... .. . ... ... ... : ... .. . ... ... ... : D-# 00 A ... ... ... : ... .. . ... ... ... : G#4 04 . P7E ... ... : ... .. . P88 ... ... : ... .. . ... ... ... : F#4 04 . P7B ... ... : F-4 04 6 P78 ... ... : ... .. . ... ... ... : ... .. . ... ... ... : ... .. . ... ... ...
ROW 12 : ... .. . ... ... ... : ... .. . ... ... ... : ... .. . ... ... ... : E-# 00 4 ... ... ... : ... .. . ... ... ... : G-4 04 . P78 ... ... : G-4 04 . P82 ... ... : ... .. . ... ... ... : ... .. . P89 ... ... : ... .. . P86 ... ... : ... .. . ... ... ... : ... .. . ... ... ... : ... .. . ... ... ...
ROW 13 : ... .. . ... ... ... : ... .. . ... ... ... : ... .. . ... ... ... : D-# 00 2 ... ... ... : ... .. . ... ... ... : ... .. . P86 ... ... : F#4 04 . P7D ... ... : ... .. . ... ... ... : F-4 04 . P85 ... ... : E-4 04 . P84 ... ... : ... .. . ... ... ... : ... .. . ... ... ... : ... .. . ... ... ...
ROW 14 : ... .. . ... ... ... : ... .. . ... ... ... : ... .. . ... ... ... : ... .. 1 ... ... ... : ... .. . ... ... ... : F#4 04 . P82 ... ... : F-4 04 . P7B ... ... : ... .. . ... ... ... : E-4 04 . P83 ... ... : D#4 04 . P83 ... ... : ... .. . ... ... ... : ... .. . ... ... ... : ... .. . ... ... ...
ROW 15 : ... .. . ... ... ... : ... .. . ... ... ... : ... .. . ... ... ... : ... .. . ... ... ... : ... .. . ... ... ... : F-4 04 . P7F ... ... : E-4 04 . P7A ... ... : ... .. . ... ... ... : D#4 04 7 P82 ... ... : D-4 04 5 P82 ... ... : ... .. . ... ... ... : ... .. . ... ... ... : ... .. . ... ... ...
ROW 16 : ... .. . ... ... ... : ... .. . ... ... ... : ... .. . ... ... ... : --- .. . ... ... ... : ... .. . ... ... ... : E-4 04 . P7D ... ... : ... .. . P87 ... ... : ... .. . ... ... ... : D-4 04 . ... ... ... : C#4 04 . P83 ... ... : ... .. . ... ... ... : ... .. . ... ... ... : ... .. . ... ... ...
ROW 17 : ... .. . ... ... ... : ... .. . ... ... ... : ... .. . ... ... ... : D-# 00 A ... ... ... : ... .. . ... ... ... : D#4 04 . P7C ... ... : D#4 04 . P85 ... ... : ... .. . ... ... ... : C#4 04 . ... ... ... : C-4 04 . P84 ... ... : ... .. . ... ... ... : ... .. . ... ... ... : ... .. . ... ... ...
ROW 18 : ... .. . ... ... ... : ... .. . ... ... ... : ... .. . ... ... ... : E-# 00 4 ... ... ... : ... .. . ... ... ... : D-4 04 . P7B ... ... : D-4 04 . P84 ... ... : ... .. . ... ... ... : C-4 04 . P83 ... ... : B-3 04 . P86 ... ... : ... .. . ... ... ... : ... .. . ... ... ... : ... .. . ... ... ...
ROW 19 : ... .. . ... ... ... : ... .. . ... ... ... : ... .. . ... ... ... : D-# 00 2 ... ... ... : ... .. . ... ... ... : C#4 04 . P7C ... ... : C#4 04 . P86 ... ... : ... .. . ... ... ... : B-3 04 . P85 ... ... : A-3 04 4 P7E ... ... : ... .. . ... ... ... : ... .. . ... ... ... : ... .. . ... ... ...
ROW 1A : ... .. . ... ... ... : ... .. . ... ... ... : ... .. . ... ... ... : ... .. 1 ... ... ... : ... .. . ... ... ... : C-4 04 . P7D ... ... : B-3 04 . P7B ... ... : ... .. . ... ... ... : A-3 04 . P7D ... ... : G#3 04 . P82 ... ... : ... .. . ... ... ... : ... .. . ... ... ... : ... .. . ... ... ...
ROW 1B : ... .. . ... ... ... : ... .. . ... ... ... : ... .. . ... ... ... : ... .. . ... ... ... : ... .. . ... ... ... : B-3 04 . P7F ... ... : A#3 04 . P7D ... ... : ... .. . ... ... ... : G#3 04 . P81 ... ... : F#3 04 . P7D ... ... : ... .. . ... ... ... : ... .. . ... ... ... : ... .. . ... ... ...
ROW 1C : ... .. . ... ... ... : ... .. . ... ... ... : ... .. . ... ... ... : --- .. . ... ... ... : ... .. . ... ... ... : A#3 04 . P82 ... ... : A-3 04 . P7F ... ... : ... .. . ... ... ... : F#3 04 . P7C ... ... : F-3 04 . P82 ... ... : ... .. . ... ... ... : ... .. . ... ... ... : ... .. . ... ... ...
ROW 1D : ... .. . ... ... ... : ... .. . ... ... ... : ... .. . ... ... ... : ... .. . ... ... ... : ... .. . ... ... ... : A-3 04 . P85 ... ... : G#3 04 . P84 ... ... : ... .. . ... ... ... : F-3 04 6 P82 ... ... : D#3 04 3 P81 ... ... : ... .. . ... ... ... : ... .. . ... ... ... : ... .. . ... ... ...
ROW 1E : ... .. . ... ... ... : C-4 02 . P80 ... ... : C#4 00 . P7F ... ... : 9-# 00 F ... ... ... : C#1 12 . ... ... ... : G#1 04 F P80 ... ... : F#3 04 . P80 ... ... : G-1 04 9 ... ... ... : A-1 04 9 ... ... ... : C#3 04 . ... ... ... : ... .. . ... ... ... : ... .. . ... ... ... : ... .. . ... ... ...
ROW 1F : ... .. . ... ... ... : F-3 02 . ... ... ... : F#3 00 . P83 ... ... : 2-# 00 7 ... ... ... : ... .. . ... ... ... : ... .. . ... ... ... : E-3 04 . P7D ... ... : ... .. . ... ... ... : ... .. . ... ... ... : B-2 04 . P82 ... ... : ... .. . ... ... ... : ... .. . ... ... ... : ... .. . ... ... ...
ROW 20 : ... .. . ... ... ... : A#2 02 . P81 ... ... : C#3 00 . P89 ... ... : 6-# 00 C ... ... ... : ... .. . ... ... ... : ... .. . ... ... ... : D#3 04 . P82 ... ... : ... .. . ... ... ... : ... .. . ... ... ... : G#2 04 . P80 ... ... : ... .. . ... ... ... : ... .. . ... ... ... : ... .. . ... ... ...
ROW 21 : ... .. . ... ... ... : D#2 02 . ... ... ... : A#2 00 . P75 ... ... : 7-# 00 8 ... ... ... : ... .. . ... ... ... : ... .. . ... ... ... : C#3 04 . P83 ... ... : ... .. . ... ... ... : ... .. . ... ... ... : F-2 04 2 ... ... ... : ... .. . ... ... ... : ... .. . ... ... ... : ... .. . ... ... ...
ROW 22 : ... .. . ... ... ... : G#1 02 . ... ... ... : G-2 00 . P70 ... ... : 8-# 00 7 ... ... ... : ... .. . ... ... ... : ... .. . ... ... ... : A#2 04 . P80 ... ... : ... .. 8 ... ... ... : ... .. . ... ... ... : C#2 04 . ... ... ... : ... .. . ... ... ... : ... .. . ... ... ... : ... .. . ... ... ...
ROW 23 : ... .. . ... ... ... : C#1 02 . ... ... ... : E-2 00 . P7C ... ... : ... .. 6 ... ... ... : ... .. . ... ... ... : ... .. . ... ... ... : G#2 04 . P83 ... ... : ... .. . ... ... ... : ... .. . ... ... ... : G#1 04 . P7F ... ... : ... .. . ... ... ... : ... .. . ... ... ... : ... .. . ... ... ...
ROW 24 : ... .. . ... ... ... : ... .. . ... ... ... : --- .. . ... ... ... : ... .. . ... ... ... : ... .. . ... ... ... : G#2 04 . ... ... ... : F-2 04 . P82 ... ... : G#2 04 . P82 ... ... : G#2 04 . P7F ... ... : D-1 04 . P81 ... ... : ... .. . ... ... ... : ... .. . ... ... ... : ... .. . ... ... ...
ROW 25 : ... .. . ... ... ... : ... .. . ... ... ... : ... .. . ... ... ... : ... .. 5 ... ... ... : ... .. . ... ... ... : ... .. . ... ... ... : C#2 04 . ... ... ... : ... .. . ... ... ... : ... .. . ... ... ... : D#0 04 1 ... ... ... : ... .. . ... ... ... : ... .. . ... ... ... : ... .. . ... ... ...
ROW 26 : ... .. . ... ... ... : ... .. . ... ... ... : ... .. . ... ... ... : ... .. . ... ... ... : ... .. . ... ... ... : ... .. . ... ... ... : G-1 04 . P80 ... ... : ... .. 7 ... ... ... : ... .. 8 ... ... ... : --- .. . P7F ... ... : ... .. . ... ... ... : ... .. . ... ... ... : ... .. . ... ... ...
ROW 27 : ... .. . ... ... ... : ... .. . ... ... ... : ... .. . ... ... ... : ... .. 4 ... ... ... : ... .. . ... ... ... : ... .. . ... ... ... : C-1 04 . ... ... ... : ... .. . ... ... ... : ... .. . ... ... ... : D#7 04 . P81 ... ... : ... .. . ... ... ... : ... .. . ... ... ... : ... .. . ... ... ...
ROW 28 : ... .. . ... ... ... : ... .. . ... ... ... : ... .. . ... ... ... : ... .. . ... ... ... : ... .. . ... ... ... : ... .. . ... ... ... : C#0 04 . P81 ... ... : ... .. . ... ... ... : ... .. . ... ... ... : ... .. . ... ... ... : ... .. . ... ... ... : ... .. . ... ... ... : ... .. . ... ... ...
ROW 29 : ... .. . ... ... ... : ... .. . ... ... ... : ... .. . ... ... ... : ... .. 3 ... ... ... : ... .. . ... ... ... : ... .. . ... ... ... : --- .. . ... ... ... : ... .. . ... ... ... : ... .. . ... ... ... : --- .. . ... ... ... : ... .. . ... ... ... : ... .. . ... ... ... : ... .. . ... ... ...
ROW 2A : ... .. . ... ... ... : ... .. . ... ... ... : ... .. . ... ... ... : D-# 00 A ... ... ... : ... .. . ... ... ... : G#1 04 . ... ... ... : ... .. . P80 ... ... : G-1 04 6 P80 ... ... : A-1 04 . P82 ... ... : ... .. . P80 ... ... : ... .. . ... ... ... : ... .. . ... ... ... : ... .. . ... ... ...
ROW 2B : ... .. . ... ... ... : ... .. . ... ... ... : ... .. . ... ... ... : E-# 00 4 ... ... ... : ... .. . ... ... ... : ... .. . ... ... ... : ... .. . ... ... ... : ... .. . ... ... ... : ... .. . ... ... ... : ... .. . ... ... ... : ... .. . ... ... ... : ... .. . ... ... ... : ... .. . ... ... ...
ROW 2C : ... .. . ... ... ... : ... .. . ... ... ... : ... .. . ... ... ... : D-# 00 2 ... ... ... : ... .. . ... ... ... : ... .. . ... ... ... : ... .. . ... ... ... : ... .. . ... ... ... : ... .. . ... ... ... : ... .. . ... ... ... : ... .. . ... ... ... : ... .. . ... ... ... : ... .. . ... ... ...
ROW 2D : ... .. . ... ... ... : ... .. . ... ... ... : ... .. . ... ... ... : ... .. 1 ... ... ... : ... .. . ... ... ... : ... .. . ... ... ... : ... .. . ... ... ... : ... .. . ... ... ... : ... .. . ... ... ... : ... .. . ... ... ... : ... .. . ... ... ... : ... .. . ... ... ... : ... .. . ... ... ...
ROW 2E : ... .. . ... ... ... : ... .. . ... ... ... : ... .. . ... ... ... : ... .. . ... ... ... : ... .. . ... ... ... : ... .. . ... ... ... : ... .. . ... ... ... : ... .. 5 ... ... ... : ... .. 7 ... ... ... : ... .. . ... ... ... : ... .. . ... ... ... : ... .. . ... ... ... : ... .. . ... ... ...
ROW 2F : ... .. . ... ... ... : ... .. . ... ... ... : ... .. . ... ... ... : --- .. . ... ... ... : ... .. . ... ... ... : ... .. . ... ... ... : ... .. . ... ... ... : ... .. . ... ... ... : ... .. . ... ... ... : ... .. . ... ... ... : ... .. . ... ... ... : ... .. . ... ... ... : ... .. . ... ... ...
ROW 30 : ... .. . ... ... ... : ... .. . ... ... ... : ... .. . ... ... ... : D-# 00 A ... ... ... : ... .. . ... ... ... : G#2 04 . ... ... ... : ... .. . ... ... ... : G#2 04 . P82 ... ... : G#2 04 . P7F ... ... : ... .. . ... ... ... : ... .. . ... ... ... : ... .. . ... ... ... : ... .. . ... ... ...
ROW 31 : ... .. . ... ... ... : ... .. . ... ... ... : ... .. . ... ... ... : E-# 00 4 ... ... ... : ... .. . ... ... ... : ... .. . ... ... ... : ... .. . ... ... ... : ... .. . ... ... ... : ... .. . ... ... ... : ... .. . ... ... ... : ... .. . ... ... ... : ... .. . ... ... ... : ... .. . ... ... ...
ROW 32 : ... .. . ... ... ... : ... .. . ... ... ... : ... .. . ... ... ... : D-# 00 2 ... ... ... : ... .. . ... ... ... : ... .. . ... ... ... : ... .. . ... ... ... : ... .. 4 ... ... ... : ... .. . ... ... ... : ... .. . ... ... ... : ... .. . ... ... ... : ... .. . ... ... ... : ... .. . ... ... ...
ROW 33 : ... .. . ... ... ... : ... .. . ... ... ... : ... .. . ... ... ... : ... .. 1 ... ... ... : ... .. . ... ... ... : ... .. . ... ... ... : ... .. . ... ... ... : ... .. . ... ... ... : ... .. . ... ... ... : ... .. . ... ... ... : ... .. . ... ... ... : ... .. . ... ... ... : ... .. . ... ... ...
ROW 34 : ... .. . ... ... ... : ... .. . ... ... ... : ... .. . ... ... ... : ... .. . ... ... ... : ... .. . ... ... ... : ... .. . ... ... ... : ... .. . ... ... ... : ... .. . ... ... ... : ... .. . ... ... ... : ... .. . ... ... ... : ... .. . ... ... ... : ... .. . ... ... ... : ... .. . ... ... ...
ROW 35 : ... .. . ... ... ... : ... .. . ... ... ... : ... .. . ... ... ... : --- .. . ... ... ... : ... .. . ... ... ... : ... .. . ... ... ... : ... .. . ... ... ... : ... .. . ... ... ... : ... .. . ... ... ... : ... .. . ... ... ... : ... .. . ... ... ... : ... .. . ... ... ... : ... .. . ... ... ...
ROW 36 : ... .. . ... ... ... : ... .. . ... ... ... : ... .. . ... ... ... : ... .. . ... ... ... : ... .. . ... ... ... : ... .. . ... ... ... : ... .. . ... ... ... : ... .. 3 ... ... ... : ... .. 6 ... ... ... : ... .. . ... ... ... : ... .. . ... ... ... : ... .. . ... ... ... : ... .. . ... ... ...
ROW 37 : ... .. . ... ... ... : C-4 02 . P80 ... ... : F#3 00 . P78 ... ... : 1-# 00 F ... ... ... : C-1 12 . ... ... ... : B-4 0C 7 P7C ... ... : ... .. . ... ... ... : --- .. . ... ... ... : A#3 0C 1 P85 ... ... : ... .. . ... ... ... : ... .. . ... ... ... : ... .. . ... ... ... : ... .. . ... ... ...
ROW 38 : ... .. . ... ... ... : F-3 02 . ... ... ... : C#3 00 . P7E ... ... : 2-# 00 7 ... ... ... : ... .. . ... ... ... : A#4 0C . P79 ... ... : ... .. . ... ... ... : ... .. . P80 ... ... : G-3 0C . ... ... ... : ... .. . ... ... ... : ... .. . ... ... ... : ... .. . ... ... ... : ... .. . ... ... ...
ROW 39 : ... .. . ... ... ... : A#2 02 . P81 ... ... : A-2 00 . P86 ... ... : 1-# 00 4 ... ... ... : ... .. . ... ... ... : A-4 0C . P78 ... ... : ... .. . ... ... ... : ... .. . ... ... ... : D#3 0C . P82 ... ... : ... .. . ... ... ... : ... .. . ... ... ... : ... .. . ... ... ... : ... .. . ... ... ...
ROW 3A : ... .. . ... ... ... : D#2 02 . ... ... ... : --- .. . ... ... ... : ... .. 2 ... ... ... : ... .. . ... ... ... : G#4 0C . ... ... ... : ... .. . ... ... ... : ... .. . ... ... ... : A#2 0C . P7F ... ... : ... .. . ... ... ... : ... .. . ... ... ... : ... .. . ... ... ... : ... .. . ... ... ...
ROW 3B : ... .. . ... ... ... : G#1 02 . ... ... ... : ... .. . ... ... ... : ... .. 1 ... ... ... : ... .. . ... ... ... : G-4 0C . ... ... ... : ... .. . ... ... ... : ... .. . ... ... ... : E-2 0C . P81 ... ... : ... .. . ... ... ... : ... .. . ... ... ... : ... .. . ... ... ... : ... .. . ... ... ...
ROW 3C : ... .. . ... ... ... : C#1 02 . ... ... ... : ... .. . ... ... ... : --- .. . ... ... ... : ... .. . ... ... ... : --- .. . ... ... ... : ... .. . ... ... ... : ... .. . ... ... ... : --- .. . ... ... ... : ... .. . ... ... ... : ... .. . ... ... ... : ... .. . ... ... ... : ... .. . ... ... ...
ROW 3D : ... .. . ... ... ... : ... .. . ... ... ... : ... .. . ... ... ... : ... .. . ... ... ... : ... .. . ... ... ... : B-4 0C . P7C ... ... : ... .. . ... ... ... : ... .. . ... ... ... : A#3 0C . P85 ... ... : ... .. . ... ... ... : ... .. . ... ... ... : ... .. . ... ... ... : ... .. . ... ... ...
ROW 3E : ... .. . ... ... ... : ... .. . ... ... ... : ... .. . ... ... ... : ... .. . ... ... ... : ... .. . ... ... ... : A#4 0C . P79 ... ... : ... .. . ... ... ... : ... .. . ... ... ... : G-3 0C . ... ... ... : ... .. . ... ... ... : ... .. . ... ... ... : ... .. . ... ... ... : ... .. . ... ... ...
ROW 3F : ... .. . ... ... ... : ... .. . ... ... ... : ... .. . ... ... ... : ... .. . ... ... ... : ... .. . ... ... ... : A-4 0C . P78 ... ... : ... .. . ... ... ... : ... .. . ... ... ... : --- .. . ... ... ... : ... .. . ... ... ... : ... .. . ... ... ... : ... .. . ... ... ... : ... .. . ... ... ...
ROW 40 : ... .. . ... ... ... : ... .. . ... ... ... : ... .. . ... ... ... : ... .. . ... ... ... : ... .. . ... ... ... : G#4 0C . ... ... ... : ... .. . ... ... ... : ... .. . ... ... ... : ... .. . P80 ... ... : ... .. . ... ... ... : ... .. . ... ... ... : ... .. . ... ... ... : ... .. . ... ... ...
ROW 41 : ... .. . ... ... ... : ... .. . ... ... ... : ... .. . ... ... ... : ... .. . ... ... ... : ... .. . ... ... ... : G-4 0C . ... ... ... : ... .. . ... ... ... : ... .. . ... ... ... : ... .. . ... ... ... : ... .. . ... ... ... : ... .. . ... ... ... : ... .. . ... ... ... : ... .. . ... ... ...
ROW 42 : ... .. . ... ... ... : ... .. . ... ... ... : ... .. . ... ... ... : ... .. . ... ... ... : ... .. . ... ... ... : --- .. . ... ... ... : ... .. . ... ... ... : ... .. . ... ... ... : ... .. . ... ... ... : ... .. . ... ... ... : ... .. . ... ... ... : ... .. . ... ... ... : ... .. . ... ... ...
ROW 43 : ... .. . ... ... ... : ... .. . ... ... ... : ... .. . ... ... ... : D-# 00 A ... ... ... : ... .. . ... ... ... : B-2 05 A P80 ... ... : A#2 05 . P7E ... ... : B-2 05 9 P7E ... ... : G#2 05 9 P81 ... ... : ... .. . ... ... ... : ... .. . ... ... ... : ... .. . ... ... ... : ... .. . ... ... ...
ROW 44 : ... .. . ... ... ... : ... .. . ... ... ... : ... .. . ... ... ... : E-# 00 4 ... ... ... : ... .. . ... ... ... : ... .. . ... ... ... : ... .. . P7F ... ... : ... .. . ... ... ... : ... .. . ... ... ... : ... .. . ... ... ... : ... .. . ... ... ... : ... .. . ... ... ... : ... .. . ... ... ...
ROW 45 : ... .. . ... ... ... : ... .. . ... ... ... : ... .. . ... ... ... : D-# 00 2 ... ... ... : ... .. . ... ... ... : ... .. . ... ... ... : ... .. . P7E ... ... : ... .. . ... ... ... : ... .. . ... ... ... : ... .. . ... ... ... : ... .. . ... ... ... : ... .. . ... ... ... : ... .. . ... ... ...
ROW 46 : ... .. . ... ... ... : ... .. . ... ... ... : ... .. . ... ... ... : ... .. 1 ... ... ... : ... .. . ... ... ... : ... .. . ... ... ... : B-2 05 . P83 ... ... : ... .. . ... ... ... : ... .. . ... ... ... : ... .. . ... ... ... : ... .. . ... ... ... : ... .. . ... ... ... : ... .. . ... ... ...
ROW 47 : ... .. . ... ... ... : ... .. . ... ... ... : ... .. . ... ... ... : ... .. . ... ... ... : ... .. . ... ... ... : --- .. . ... ... ... : --- .. . ... ... ... : --- .. . ... ... ... : --- .. . ... ... ... : ... .. . ... ... ... : ... .. . ... ... ... : ... .. . ... ... ... : ... .. . ... ... ...
ROW 48 : ... .. . ... ... ... : ... .. . ... ... ... : ... .. . ... ... ... : --- .. . ... ... ... : ... .. . ... ... ... : ... .. . ... ... ... : ... .. . P80 ... ... : ... .. . P80 ... ... : ... .. . P80 ... ... : ... .. . ... ... ... : ... .. . ... ... ... : ... .. . ... ... ... : ... .. . ... ... ...
ROW 49 : ... .. . ... ... ... : ... .. . ... ... ... : ... .. . ... ... ... : D-# 00 A ... ... ... : ... .. . ... ... ... : B-2 05 4 ... ... ... : A#2 05 4 P7E ... ... : B-2 05 3 P7E ... ... : G#2 05 3 P81 ... ... : ... .. . ... ... ... : ... .. . ... ... ... : ... .. . ... ... ... : ... .. . ... ... ...
ROW 4A : ... .. . ... ... ... : ... .. . ... ... ... : ... .. . ... ... ... : E-# 00 4 ... ... ... : ... .. . ... ... ... : ... .. . ... ... ... : B-2 05 . P83 ... ... : ... .. . ... ... ... : ... .. . ... ... ... : ... .. . ... ... ... : ... .. . ... ... ... : ... .. . ... ... ... : ... .. . ... ... ...
ROW 4B : ... .. . ... ... ... : ... .. . ... ... ... : ... .. . ... ... ... : D-# 00 2 ... ... ... : ... .. . ... ... ... : ... .. . ... ... ... : ... .. . P82 ... ... : ... .. . ... ... ... : ... .. . ... ... ... : ... .. . ... ... ... : ... .. . ... ... ... : ... .. . ... ... ... : ... .. . ... ... ...
ROW 4C : ... .. . ... ... ... : ... .. . ... ... ... : ... .. . ... ... ... : ... .. 1 ... ... ... : ... .. . ... ... ... : ... .. . ... ... ... : A#2 05 . P7E ... ... : ... .. . ... ... ... : ... .. . ... ... ... : ... .. . ... ... ... : ... .. . ... ... ... : ... .. . ... ... ... : ... .. . ... ... ...
ROW 4D : ... .. . ... ... ... : ... .. . ... ... ... : ... .. . ... ... ... : ... .. . ... ... ... : ... .. . ... ... ... : ... .. . ... ... ... : ... .. . P7F ... ... : ... .. 2 ... ... ... : ... .. . ... ... ... : ... .. . ... ... ... : ... .. . ... ... ... : ... .. . ... ... ... : ... .. . ... ... ...
ROW 4E : ... .. . ... ... ... : ... .. . ... ... ... : ... .. . ... ... ... : --- .. . ... ... ... : ... .. . ... ... ... : --- .. . ... ... ... : --- .. . ... ... ... : --- .. . ... ... ... : --- .. . ... ... ... : ... .. . ... ... ... : ... .. . ... ... ... : ... .. . ... ... ... : ... .. . ... ... ...
ROW 4F : ... .. . ... ... ... : ... .. . ... ... ... : ... .. . ... ... ... : ... .. . ... ... ... : ... .. . ... ... ... : ... .. . ... ... ... : ... .. . P80 ... ... : ... .. . P80 ... ... : ... .. . P80 ... ... : ... .. . ... ... ... : ... .. . ... ... ... : ... .. . ... ... ... : ... .. . ... ... ...
ROW 50 : ... .. . ... ... ... : C-4 02 . P80 ... ... : C#4 00 . P7F ... ... : 9-# 00 F ... ... ... : C#1 12 . ... ... ... : C#3 05 A ... ... ... : C#3 05 A P83 ... ... : C#3 05 9 P7E ... ... : B-2 05 9 P81 ... ... : ... .. . ... ... ... : ... .. . ... ... ... : ... .. . ... ... ... : ... .. . ... ... ...
ROW 51 : ... .. . ... ... ... : F-3 02 . ... ... ... : F#3 00 . P83 ... ... : 2-# 00 7 ... ... ... : ... .. . ... ... ... : ... .. . ... ... ... : C-3 05 . P7E ... ... : ... .. . ... ... ... : ... .. . ... ... ... : ... .. . ... ... ... : ... .. . ... ... ... : ... .. . ... ... ... : ... .. . ... ... ...
ROW 52 : ... .. . ... ... ... : A#2 02 . P81 ... ... : C#3 00 . P89 ... ... : 6-# 00 C ... ... ... : ... .. . ... ... ... : ... .. . ... ... ... : C#3 05 . P83 ... ... : ... .. . ... ... ... : ... .. . ... ... ... : ... .. . ... ... ... : ... .. . ... ... ... : ... .. . ... ... ... : ... .. . ... ... ...
ROW 53 : ... .. . ... ... ... : D#2 02 . ... ... ... : A#2 00 . P75 ... ... : 7-# 00 8 ... ... ... : ... .. . ... ... ... : ... .. . ... ... ... : ... .. . P82 ... ... : ... .. . ... ... ... : ... .. . ... ... ... : ... .. . ... ... ... : ... .. . ... ... ... : ... .. . ... ... ... : ... .. . ... ... ...
ROW 54 : ... .. . ... ... ... : G#1 02 . ... ... ... : G-2 00 . P70 ... ... : 8-# 00 7 ... ... ... : ... .. . ... ... ... : --- .. . ... ... ... : --- .. . ... ... ... : --- .. . ... ... ... : --- .. . ... ... ... : ... .. . ... ... ... : ... .. . ... ... ... : ... .. . ... ... ... : ... .. . ... ... ...
ROW 55 : ... .. . ... ... ... : C#1 02 . ... ... ... : E-2 00 . P7C ... ... : ... .. 6 ... ... ... : ... .. . ... ... ... : ... .. . ... ... ... : ... .. . P80 ... ... : ... .. . P80 ... ... : ... .. . P80 ... ... : ... .. . ... ... ... : ... .. . ... ... ... : ... .. . ... ... ... : ... .. . ... ... ...
ROW 56 : ... .. . ... ... ... : ... .. . ... ... ... : --- .. . ... ... ... : ... .. . ... ... ... : ... .. . ... ... ... : C#3 05 4 ... ... ... : C-3 05 4 P7E ... ... : C#3 05 3 P7E ... ... : B-2 05 3 P81 ... ... : ... .. . ... ... ... : ... .. . ... ... ... : ... .. . ... ... ... : ... .. . ... ... ...
ROW 57 : ... .. . ... ... ... : ... .. . ... ... ... : ... .. . ... ... ... : ... .. 5 ... ... ... : ... .. . ... ... ... : ... .. . ... ... ... : C#3 05 . P83 ... ... : ... .. . ... ... ... : ... .. . ... ... ... : ... .. . ... ... ... : ... .. . ... ... ... : ... .. . ... ... ... : ... .. . ... ... ...
ROW 58 : ... .. . ... ... ... : ... .. . ... ... ... : ... .. . ... ... ... : ... .. . ... ... ... : ... .. . ... ... ... : ... .. . ... ... ... : ... .. . ... ... ... : ... .. . ... ... ... : ... .. . ... ... ... : ... .. . ... ... ... : ... .. . ... ... ... : ... .. . ... ... ... : ... .. . ... ... ...
ROW 59 : ... .. . ... ... ... : ... .. . ... ... ... : ... .. . ... ... ... : ... .. 4 ... ... ... : ... .. . ... ... ... : ... .. . ... ... ... : C-3 05 . P7E ... ... : ... .. . ... ... ... : ... .. . ... ... ... : ... .. . ... ... ... : ... .. . ... ... ... : ... .. . ... ... ... : ... .. . ... ... ...
ROW 5A : ... .. . ... ... ... : ... .. . ... ... ... : ... .. . ... ... ... : ... .. . ... ... ... : ... .. . ... ... ... : --- .. . ... ... ... : --- .. . ... ... ... : --- .. . ... ... ... : --- .. . ... ... ... : ... .. . ... ... ... : ... .. . ... ... ... : ... .. . ... ... ... : ... .. . ... ... ...
ROW 5B : ... .. . ... ... ... : ... .. . ... ... ... : ... .. . ... ... ... : ... .. 3 ... ... ... : ... .. . ... ... ... : ... .. . ... ... ... : ... .. . P80 ... ... : ... .. . P80 ... ... : ... .. . P80 ... ... : ... .. . ... ... ... : ... .. . ... ... ... : ... .. . ... ... ... : ... .. . ... ... ...
ROW 5C : ... .. . ... ... ... : ... .. . ... ... ... : ... .. . ... ... ... : D-# 00 A ... ... ... : ... .. . ... ... ... : G#3 05 A ... ... ... : G#3 05 A P82 ... ... : G#3 05 9 P7E ... ... : D#3 05 9 P81 ... ... : ... .. . ... ... ... : ... .. . ... ... ... : ... .. . ... ... ... : ... .. . ... ... ...
ROW 5D : ... .. . ... ... ... : ... .. . ... ... ... : ... .. . ... ... ... : E-# 00 4 ... ... ... : ... .. . ... ... ... : ... .. . ... ... ... : ... .. . P83 ... ... : ... .. . ... ... ... : ... .. . ... ... ... : ... .. . ... ... ... : ... .. . ... ... ... : ... .. . ... ... ... : ... .. . ... ... ...
ROW 5E : ... .. . ... ... ... : ... .. . ... ... ... : ... .. . ... ... ... : D-# 00 2 ... ... ... : ... .. . ... ... ... : ... .. . ... ... ... : ... .. . P84 ... ... : ... .. . ... ... ... : ... .. . ... ... ... : ... .. . ... ... ... : ... .. . ... ... ... : ... .. . ... ... ... : ... .. . ... ... ...
ROW 5F : ... .. . ... ... ... : ... .. . ... ... ... : ... .. . ... ... ... : ... .. 1 ... ... ... : ... .. . ... ... ... : ... .. . ... ... ... : ... .. . P83 ... ... : ... .. . ... ... ... : ... .. . ... ... ... : ... .. . ... ... ... : ... .. . ... ... ... : ... .. . ... ... ... : ... .. . ... ... ...
ROW 60 : ... .. . ... ... ... : ... .. . ... ... ... : ... .. . ... ... ... : ... .. . ... ... ... : ... .. . ... ... ... : --- .. . ... ... ... : --- .. . ... ... ... : --- .. . ... ... ... : --- .. . ... ... ... : ... .. . ... ... ... : ... .. . ... ... ... : ... .. . ... ... ... : ... .. . ... ... ...
ROW 61 : ... .. . ... ... ... : ... .. . ... ... ... : ... .. . ... ... ... : --- .. . ... ... ... : ... .. . ... ... ... : ... .. . ... ... ... : ... .. . P80 ... ... : ... .. . P80 ... ... : ... .. . P80 ... ... : ... .. . ... ... ... : ... .. . ... ... ... : ... .. . ... ... ... : ... .. . ... ... ...
ROW 62 : ... .. . ... ... ... : ... .. . ... ... ... : ... .. . ... ... ... : D-# 00 A ... ... ... : ... .. . ... ... ... : G#3 05 4 ... ... ... : G#3 05 . P84 ... ... : G#3 05 . P7E ... ... : D#3 05 . P81 ... ... : ... .. . ... ... ... : ... .. . ... ... ... : ... .. . ... ... ... : ... .. . ... ... ...
ROW 63 : ... .. . ... ... ... : ... .. . ... ... ... : ... .. . ... ... ... : E-# 00 4 ... ... ... : ... .. . ... ... ... : ... .. . ... ... ... : ... .. . P83 ... ... : ... .. . ... ... ... : ... .. . ... ... ... : ... .. . ... ... ... : ... .. . ... ... ... : ... .. . ... ... ... : ... .. . ... ... ...
ROW 64 : ... .. . ... ... ... : ... .. . ... ... ... : ... .. . ... ... ... : D-# 00 2 ... ... ... : ... .. . ... ... ... : ... .. . ... ... ... : ... .. . P82 ... ... : ... .. . ... ... ... : ... .. . ... ... ... : ... .. . ... ... ... : ... .. . ... ... ... : ... .. . ... ... ... : ... .. . ... ... ...
ROW 65 : ... .. . ... ... ... : ... .. . ... ... ... : ... .. . ... ... ... : ... .. 1 ... ... ... : ... .. . ... ... ... : ... .. . ... ... ... : ... .. . P83 ... ... : ... .. . ... ... ... : ... .. . ... ... ... : ... .. . ... ... ... : ... .. . ... ... ... : ... .. . ... ... ... : ... .. . ... ... ...
ROW 66 : ... .. . ... ... ... : ... .. . ... ... ... : ... .. . ... ... ... : ... .. . ... ... ... : ... .. . ... ... ... : ... .. . ... ... ... : ... .. . P84 ... ... : ... .. 8 ... ... ... : ... .. . ... ... ... : ... .. . ... ... ... : ... .. . ... ... ... : ... .. . ... ... ... : ... .. . ... ... ...
ROW 67 : ... .. . ... ... ... : ... .. . ... ... ... : ... .. . ... ... ... : --- .. . ... ... ... : ... .. . ... ... ... : --- .. . ... ... ... : --- .. . ... ... ... : --- .. . ... ... ... : --- .. . ... ... ... : ... .. . ... ... ... : ... .. . ... ... ... : ... .. . ... ... ... : ... .. . ... ... ...
ROW 68 : ... .. . ... ... ... : ... .. . ... ... ... : ... .. . ... ... ... : ... .. . ... ... ... : ... .. . ... ... ... : ... .. . ... ... ... : ... .. . P80 ... ... : ... .. . P80 ... ... : ... .. . P80 ... ... : ... .. . ... ... ... : ... .. . ... ... ... : ... .. . ... ... ... : ... .. . ... ... ...
ROW 69 : ... .. . ... ... ... : C-4 02 . P80 ... ... : F#3 00 . P78 ... ... : 1-# 00 F ... ... ... : C-1 12 . ... ... ... : G#1 06 F ... ... ... : G#1 06 F P81 ... ... : ... .. . ... ... ... : G#1 06 E P7F ... ... : G#2 06 B P81 ... ... : ... .. . ... ... ... : ... .. . ... ... ... : ... .. . ... ... ...
ROW 6A : ... .. . ... ... ... : F-3 02 . ... ... ... : C#3 00 . P7E ... ... : 2-# 00 7 ... ... ... : ... .. . ... ... ... : ... .. . ... ... ... : G-1 06 . P80 ... ... : ... .. . ... ... ... : ... .. . ... ... ... : ... .. . ... ... ... : ... .. . ... ... ... : ... .. . ... ... ... : ... .. . ... ... ...
ROW 6B : ... .. . ... ... ... : A#2 02 . P81 ... ... : A-2 00 . P86 ... ... : 1-# 00 4 ... ... ... : ... .. . ... ... ... : ... .. . ... ... ... : ... .. . ... ... ... : ... .. . ... ... ... : ... .. . ... ... ... : ... .. . ... ... ... : ... .. . ... ... ... : ... .. . ... ... ... : ... .. . ... ... ...
ROW 6C : ... .. . ... ... ... : D#2 02 . ... ... ... : --- .. . ... ... ... : ... .. 2 ... ... ... : ... .. . ... ... ... : G#1 07 . ... ... ... : G#1 07 . P81 ... ... : ... .. . ... ... ... : G#1 07 . ... ... ... : G#2 07 . ... ... ... : ... .. . ... ... ... : ... .. . ... ... ... : ... .. . ... ... ...
ROW 6D : ... .. . ... ... ... : G#1 02 . ... ... ... : ... .. . ... ... ... : ... .. 1 ... ... ... : ... .. . ... ... ... : ... .. . ... ... ... : ... .. . P80 ... ... : ... .. . ... ... ... : ... .. . ... ... ... : ... .. A ... ... ... : ... .. . ... ... ... : ... .. . ... ... ... : ... .. . ... ... ...
ROW 6E : ... .. . ... ... ... : C#1 02 . ... ... ... : ... .. . ... ... ... : --- .. . ... ... ... : ... .. . ... ... ... : ... .. . ... ... ... : ... .. . P81 ... ... : ... .. . ... ... ... : ... .. . ... ... ... : ... .. . ... ... ... : ... .. . ... ... ... : ... .. . ... ... ... : ... .. . ... ... ...
ROW 6F : ... .. . ... ... ... : ... .. . ... ... ... : ... .. . ... ... ... : ... .. . ... ... ... : ... .. . ... ... ... : G#1 08 . ... ... ... : G-1 08 . P80 ... ... : ... .. . ... ... ... : G#1 08 . ... ... ... : G#2 08 . ... ... ... : ... .. . ... ... ... : ... .. . ... ... ... : ... .. . ... ... ...
ROW 70 : ... .. . ... ... ... : ... .. . ... ... ... : ... .. . ... ... ... : ... .. . ... ... ... : ... .. . ... ... ... : ... .. . ... ... ... : G#1 08 . P81 ... ... : ... .. . ... ... ... : ... .. . ... ... ... : ... .. . ... ... ... : ... .. . ... ... ... : ... .. . ... ... ... : ... .. . ... ... ...
ROW 71 : ... .. . ... ... ... : ... .. . ... ... ... : ... .. . ... ... ... : ... .. . ... ... ... : ... .. . ... ... ... : ... .. . ... ... ... : ... .. . P80 ... ... : ... .. . ... ... ... : ... .. D ... ... ... : ... .. 9 ... ... ... : ... .. . ... ... ... : ... .. . ... ... ... : ... .. . ... ... ...
ROW 72 : ... .. . ... ... ... : ... .. . ... ... ... : ... .. . ... ... ... : ... .. . ... ... ... : ... .. . ... ... ... : G#1 09 . ... ... ... : G#1 09 . P81 ... ... : ... .. . ... ... ... : G#1 09 . ... ... ... : G#2 09 . ... ... ... : ... .. . ... ... ... : ... .. . ... ... ... : ... .. . ... ... ...
ROW 73 : ... .. . ... ... ... : ... .. . ... ... ... : ... .. . ... ... ... : ... .. . ... ... ... : ... .. . ... ... ... : ... .. . ... ... ... : G-1 09 . P80 ... ... : ... .. . ... ... ... : ... .. . ... ... ... : ... .. . ... ... ... : ... .. . ... ... ... : ... .. . ... ... ... : ... .. . ... ... ...
ROW 74 : ... .. . ... ... ... : ... .. . ... ... ... : ... .. . ... ... ... : ... .. . ... ... ... : ... .. . ... ... ... : ... .. . ... ... ... : G#1 09 . P81 ... ... : ... .. . ... ... ... : ... .. . ... ... ... : ... .. . ... ... ... : ... .. . ... ... ... : ... .. . ... ... ... : ... .. . ... ... ...
ROW 75 : ... .. . ... ... ... : ... .. . ... ... ... : ... .. . ... ... ... : D-# 00 A ... ... ... : ... .. . ... ... ... : ... .. . ... ... ... : ... .. . P80 ... ... : ... .. . ... ... ... : ... .. . ... ... ... : ... .. 8 ... ... ... : ... .. . ... ... ... : ... .. . ... ... ... : ... .. . ... ... ...
ROW 76 : ... .. . ... ... ... : ... .. . ... ... ... : ... .. . ... ... ... : E-# 00 4 ... ... ... : ... .. . ... ... ... : ... .. . ... ... ... : ... .. . P81 ... ... : ... .. . ... ... ... : ... .. . ... ... ... : ... .. . ... ... ... : ... .. . ... ... ... : ... .. . ... ... ... : ... .. . ... ... ...
ROW 77 : ... .. . ... ... ... : ... .. . ... ... ... : ... .. . ... ... ... : D-# 00 2 ... ... ... : ... .. . ... ... ... : ... .. . ... ... ... : G-1 09 . P80 ... ... : ... .. . ... ... ... : ... .. . ... ... ... : ... .. . ... ... ... : ... .. . ... ... ... : ... .. . ... ... ... : ... .. . ... ... ...
ROW 78 : ... .. . ... ... ... : ... .. . ... ... ... : ... .. . ... ... ... : ... .. 1 ... ... ... : ... .. . ... ... ... : G#1 08 . ... ... ... : G-1 08 . ... ... ... : ... .. . ... ... ... : G#1 08 . ... ... ... : G#2 08 . ... ... ... : ... .. . ... ... ... : ... .. . ... ... ... : ... .. . ... ... ...
ROW 79 : ... .. . ... ... ... : ... .. . ... ... ... : ... .. . ... ... ... : ... .. . ... ... ... : ... .. . ... ... ... : ... .. . ... ... ... : G#1 08 . P81 ... ... : ... .. . ... ... ... : ... .. C ... ... ... : ... .. 7 ... ... ... : ... .. . ... ... ... : ... .. . ... ... ... : ... .. . ... ... ...
ROW 7A : ... .. . ... ... ... : ... .. . ... ... ... : ... .. . ... ... ... : --- .. . ... ... ... : ... .. . ... ... ... : ... .. . ... ... ... : ... .. . P80 ... ... : ... .. . ... ... ... : ... .. . ... ... ... : ... .. . ... ... ... : ... .. . ... ... ... : ... .. . ... ... ... : ... .. . ... ... ...
ROW 7B : ... .. . ... ... ... : ... .. . ... ... ... : ... .. . ... ... ... : D-# 00 A ... ... ... : ... .. . ... ... ... : G#1 07 . ... ... ... : G#1 07 . P81 ... ... : ... .. . ... ... ... : G#1 07 . ... ... ... : G#2 07 . ... ... ... : ... .. . ... ... ... : ... .. . ... ... ... : ... .. . ... ... ...
ROW 7C : ... .. . ... ... ... : ... .. . ... ... ... : ... .. . ... ... ... : E-# 00 4 ... ... ... : ... .. . ... ... ... : ... .. . ... ... ... : G-1 07 . P80 ... ... : ... .. . ... ... ... : ... .. . ... ... ... : ... .. . ... ... ... : ... .. . ... ... ... : ... .. . ... ... ... : ... .. . ... ... ...
ROW 7D : ... .. . ... ... ... : ... .. . ... ... ... : ... .. . ... ... ... : D-# 00 2 ... ... ... : ... .. . ... ... ... : ... .. . ... ... ... : G#1 07 . P81 ... ... : ... .. . ... ... ... : ... .. . ... ... ... : ... .. 6 ... ... ... : ... .. . ... ... ... : ... .. . ... ... ... : ... .. . ... ... ...
ROW 7E : ... .. . ... ... ... : ... .. . ... ... ... : ... .. . ... ... ... : ... .. 1 ... ... ... : ... .. . ... ... ... : G#1 06 . ... ... ... : G#1 06 . P80 ... ... : ... .. . ... ... ... : G#1 06 . ... ... ... : G#2 06 . ... ... ... : ... .. . ... ... ... : ... .. . ... ... ... : ... .. . ... ... ...
ROW 7F : ... .. . ... ... ... : ... .. . ... ... ... : ... .. . ... ... ... : ... .. . ... ... ... : ... .. . ... ... ... : ... .. . ... ... ... : ... .. . P81 ... ... : ... .. . ... ... ... : ... .. . ... ... ... : ... .. . ... ... ... : ... .. . ... ... ... : ... .. . ... ... ... : ... .. . ... ... ...
ROW 80 : ... .. . ... ... ... : ... .. . ... ... ... : ... .. . ... ... ... : --- .. . ... ... ... : ... .. . ... ... ... : ... .. . ... ... ... : G-1 06 . P80 ... ... : ... .. . ... ... ... : ... .. . ... ... ... : ... .. . ... ... ... : ... .. . ... ... ... : ... .. . ... ... ... : ... .. . ... ... ...
ROW 81 : ... .. . ... ... ... : ... .. . ... ... ... : ... .. . ... ... ... : ... .. . ... ... ... : ... .. . ... ... ... : ... .. . ... ... ... : G#1 06 . P81 ... ... : ... .. . ... ... ... : ... .. B ... ... ... : ... .. 5 ... ... ... : ... .. . ... ... ... : ... .. . ... ... ... : ... .. . ... ... ...
ROW 82 : ... .. . ... ... ... : C-4 02 . P80 ... ... : C#4 00 . P7F ... ... : 9-# 00 F ... ... ... : C#1 12 . ... ... ... : D-2 06 . ... ... ... : D-2 06 . P80 ... ... : ... .. . ... ... ... : D-2 06 . ... ... ... : D-3 06 . ... ... ... : ... .. . ... ... ... : ... .. . ... ... ... : ... .. . ... ... ...
ROW 83 : ... .. . ... ... ... : F-3 02 . ... ... ... : F#3 00 . P83 ... ... : 2-# 00 7 ... ... ... : ... .. . ... ... ... : ... .. . ... ... ... : ... .. . P81 ... ... : ... .. . ... ... ... : ... .. . ... ... ... : ... .. . ... ... ... : ... .. . ... ... ... : ... .. . ... ... ... : ... .. . ... ... ...
ROW 84 : ... .. . ... ... ... : A#2 02 . P81 ... ... : C#3 00 . P89 ... ... : 6-# 00 C ... ... ... : ... .. . ... ... ... : ... .. . ... ... ... : C#2 06 . P7F ... ... : ... .. . ... ... ... : ... .. . ... ... ... : ... .. . ... ... ... : ... .. . ... ... ... : ... .. . ... ... ... : ... .. . ... ... ...
ROW 85 : ... .. . ... ... ... : D#2 02 . ... ... ... : A#2 00 . P75 ... ... : 7-# 00 8 ... ... ... : ... .. . ... ... ... : D-2 08 . ... ... ... : D-2 08 . P82 ... ... : ... .. . ... ... ... : D-2 08 . ... ... ... : D-3 08 4 ... ... ... : ... .. . ... ... ... : ... .. . ... ... ... : ... .. . ... ... ...
ROW 86 : ... .. . ... ... ... : G#1 02 . ... ... ... : G-2 00 . P70 ... ... : 8-# 00 7 ... ... ... : ... .. . ... ... ... : ... .. . ... ... ... : ... .. . P81 ... ... : ... .. . ... ... ... : ... .. . ... ... ... : ... .. . ... ... ... : ... .. . ... ... ... : ... .. . ... ... ... : ... .. . ... ... ...
ROW 87 : ... .. . ... ... ... : C#1 02 . ... ... ... : E-2 00 . P7C ... ... : ... .. 6 ... ... ... : ... .. . ... ... ... : ... .. . ... ... ... : ... .. . ... ... ... : ... .. . ... ... ... : ... .. . ... ... ... : ... .. . ... ... ... : ... .. . ... ... ... : ... .. . ... ... ... : ... .. . ... ... ...
ROW 88 : ... .. . ... ... ... : ... .. . ... ... ... : --- .. . ... ... ... : ... .. . ... ... ... : ... .. . ... ... ... : D-2 09 . ... ... ... : D-2 09 . P82 ... ... : ... .. . ... ... ... : D-2 09 . ... ... ... : D-3 09 . ... ... ... : ... .. . ... ... ... : ... .. . ... ... ... : ... .. . ... ... ...
ROW 89 : ... .. . ... ... ... : ... .. . ... ... ... : ... .. . ... ... ... : ... .. 5 ... ... ... : ... .. . ... ... ... : ... .. . ... ... ... : ... .. . ... ... ... : ... .. . ... ... ... : ... .. A ... ... ... : ... .. 3 ... ... ... : ... .. . ... ... ... : ... .. . ... ... ... : ... .. . ... ... ...
ROW 8A : ... .. . ... ... ... : ... .. . ... ... ... : ... .. . ... ... ... : ... .. . ... ... ... : ... .. . ... ... ... : ... .. . ... ... ... : ... .. . P81 ... ... : ... .. . ... ... ... : ... .. . ... ... ... : ... .. . ... ... ... : ... .. . ... ... ... : ... .. . ... ... ... : ... .. . ... ... ...
ROW 8B : ... .. . ... ... ... : ... .. . ... ... ... : ... .. . ... ... ... : ... .. 4 ... ... ... : ... .. . ... ... ... : D-2 07 . ... ... ... : D-2 07 . P80 ... ... : ... .. . ... ... ... : D-2 07 . ... ... ... : D-3 07 . ... ... ... : ... .. . ... ... ... : ... .. . ... ... ... : ... .. . ... ... ...
ROW 8C : ... .. . ... ... ... : ... .. . ... ... ... : ... .. . ... ... ... : ... .. . ... ... ... : ... .. . ... ... ... : ... .. . ... ... ... : ... .. . P81 ... ... : ... .. . ... ... ... : ... .. . ... ... ... : ... .. . ... ... ... : ... .. . ... ... ... : ... .. . ... ... ... : ... .. . ... ... ...
ROW 8D : ... .. . ... ... ... : ... .. . ... ... ... : ... .. . ... ... ... : ... .. 3 ... ... ... : ... .. . ... ... ... : ... .. . ... ... ... : C#2 07 . P7F ... ... : ... .. . ... ... ... : ... .. . ... ... ... : ... .. 2 ... ... ... : ... .. . ... ... ... : ... .. . ... ... ... : ... .. . ... ... ...
ROW 8E : ... .. . ... ... ... : ... .. . ... ... ... : ... .. . ... ... ... : D-# 00 A ... ... ... : ... .. . ... ... ... : D-2 06 . ... ... ... : D-2 06 . P81 ... ... : ... .. . ... ... ... : D-2 06 . ... ... ... : D-3 06 . ... ... ... : ... .. . ... ... ... : ... .. . ... ... ... : ... .. . ... ... ...
ROW 8F : ... .. . ... ... ... : ... .. . ... ... ... : ... .. . ... ... ... : E-# 00 4 ... ... ... : ... .. . ... ... ... : ... .. . ... ... ... : ... .. . P80 ... ... : ... .. . ... ... ... : ... .. . ... ... ... : ... .. . ... ... ... : ... .. . ... ... ... : ... .. . ... ... ... : ... .. . ... ... ...
ROW 90 : ... .. . ... ... ... : ... .. . ... ... ... : ... .. . ... ... ... : D-# 00 2 ... ... ... : ... .. . ... ... ... : ... .. . ... ... ... : ... .. . P81 ... ... : ... .. . ... ... ... : ... .. . ... ... ... : ... .. . ... ... ... : ... .. . ... ... ... : ... .. . ... ... ... : ... .. . ... ... ...
ROW 91 : ... .. . ... ... ... : ... .. . ... ... ... : ... .. . ... ... ... : ... .. 1 ... ... ... : ... .. . ... ... ... : D-2 08 . ... ... ... : C#2 08 . P7F ... ... : ... .. . ... ... ... : D-2 08 9 ... ... ... : D-3 08 1 ... ... ... : ... .. . ... ... ... : ... .. . ... ... ... : ... .. . ... ... ...
ROW 92 : ... .. . ... ... ... : ... .. . ... ... ... : ... .. . ... ... ... : ... .. . ... ... ... : ... .. . ... ... ... : ... .. . ... ... ... : D-2 08 . P81 ... ... : ... .. . ... ... ... : ... .. . ... ... ... : ... .. . ... ... ... : ... .. . ... ... ... : ... .. . ... ... ... : ... .. . ... ... ...
ROW 93 : ... .. . ... ... ... : ... .. . ... ... ... : ... .. . ... ... ... : --- .. . ... ... ... : ... .. . ... ... ... : ... .. . ... ... ... : ... .. . P80 ... ... : ... .. . ... ... ... : ... .. . ... ... ... : ... .. . ... ... ... : ... .. . ... ... ... : ... .. . ... ... ... : ... .. . ... ... ...
ROW 94 : ... .. . ... ... ... : ... .. . ... ... ... : ... .. . ... ... ... : D-# 00 A ... ... ... : ... .. . ... ... ... : D-2 09 . ... ... ... : D-2 09 . P81 ... ... : ... .. . ... ... ... : D-2 09 . ... ... ... : D-3 09 . ... ... ... : ... .. . ... ... ... : ... .. . ... ... ... : ... .. . ... ... ...
ROW 95 : ... .. . ... ... ... : ... .. . ... ... ... : ... .. . ... ... ... : E-# 00 4 ... ... ... : ... .. . ... ... ... : ... .. . ... ... ... : C#2 09 . P7F ... ... : ... .. . ... ... ... : ... .. . ... ... ... : --- .. . ... ... ... : ... .. . ... ... ... : ... .. . ... ... ... : ... .. . ... ... ...
ROW 96 : ... .. . ... ... ... : ... .. . ... ... ... : ... .. . ... ... ... : D-# 00 2 ... ... ... : ... .. . ... ... ... : ... .. . ... ... ... : D-2 09 . P82 ... ... : ... .. . ... ... ... : ... .. . ... ... ... : ... .. . P80 ... ... : ... .. . ... ... ... : ... .. . ... ... ... : ... .. . ... ... ...
ROW 97 : ... .. . ... ... ... : ... .. . ... ... ... : ... .. . ... ... ... : ... .. 1 ... ... ... : ... .. . ... ... ... : D-2 07 . ... ... ... : D-2 07 . P81 ... ... : ... .. . ... ... ... : D-2 07 . ... ... ... : ... .. . ... ... ... : ... .. . ... ... ... : ... .. . ... ... ... : ... .. . ... ... ...
ROW 98 : ... .. . ... ... ... : ... .. . ... ... ... : ... .. . ... ... ... : ... .. . ... ... ... : ... .. . ... ... ... : ... .. . ... ... ... : ... .. . ... ... ... : ... .. . ... ... ... : ... .. . ... ... ... : ... .. . ... ... ... : ... .. . ... ... ... : ... .. . ... ... ... : ... .. . ... ... ...
ROW 99 : ... .. . ... ... ... : ... .. . ... ... ... : ... .. . ... ... ... : --- .. . ... ... ... : ... .. . ... ... ... : ... .. . ... ... ... : ... .. . P82 ... ... : ... .. . ... ... ... : ... .. 8 ... ... ... : ... .. . ... ... ... : ... .. . ... ... ... : ... .. . ... ... ... : ... .. . ... ... ...
ROW 9A : ... .. . ... ... ... : ... .. . ... ... ... : ... .. . ... ... ... : ... .. . ... ... ... : ... .. . ... ... ... : ... .. . ... ... ... : C#2 07 . P7F ... ... : ... .. . ... ... ... : ... .. . ... ... ... : ... .. . ... ... ... : ... .. . ... ... ... : ... .. . ... ... ... : ... .. . ... ... ...
ROW 9B : ... .. . ... ... ... : C-4 02 . P80 ... ... : F#3 00 . P78 ... ... : 1-# 00 F ... ... ... : C-1 12 . ... ... ... : C#2 06 . ... ... ... : C#2 06 . P81 ... ... : ... .. . ... ... ... : C#2 06 . ... ... ... : ... .. . ... ... ... : ... .. . ... ... ... : ... .. . ... ... ... : ... .. . ... ... ...
ROW 9C : ... .. . ... ... ... : F-3 02 . ... ... ... : C#3 00 . P7E ... ... : 2-# 00 7 ... ... ... : ... .. . ... ... ... : ... .. . ... ... ... : ... .. . P80 ... ... : ... .. . ... ... ... : ... .. . ... ... ... : ... .. . ... ... ... : ... .. . ... ... ... : ... .. . ... ... ... : ... .. . ... ... ...
ROW 9D : ... .. . ... ... ... : A#2 02 . P81 ... ... : A-2 00 . P86 ... ... : 1-# 00 4 ... ... ... : ... .. . ... ... ... : ... .. . ... ... ... : ... .. . P81 ... ... : ... .. . ... ... ... : ... .. . ... ... ... : ... .. . ... ... ... : ... .. . ... ... ... : ... .. . ... ... ... : ... .. . ... ... ...
ROW 9E : ... .. . ... ... ... : D#2 02 . ... ... ... : --- .. . ... ... ... : ... .. 2 ... ... ... : ... .. . ... ... ... : C#2 09 . ... ... ... : C-2 09 . P7F ... ... : ... .. . ... ... ... : C#2 09 . ... ... ... : ... .. . ... ... ... : ... .. . ... ... ... : ... .. . ... ... ... : ... .. . ... ... ...
ROW 9F : ... .. . ... ... ... : G#1 02 . ... ... ... : ... .. . ... ... ... : ... .. 1 ... ... ... : ... .. . ... ... ... : ... .. . ... ... ... : C#2 09 . P81 ... ... : ... .. . ... ... ... : ... .. . ... ... ... : ... .. . ... ... ... : ... .. . ... ... ... : ... .. . ... ... ... : ... .. . ... ... ...
ROW A0 : ... .. . ... ... ... : C#1 02 . ... ... ... : ... .. . ... ... ... : --- .. . ... ... ... : ... .. . ... ... ... : ... .. . ... ... ... : ... .. . P80 ... ... : ... .. . ... ... ... : ... .. . ... ... ... : ... .. . ... ... ... : ... .. . ... ... ... : ... .. . ... ... ... : ... .. . ... ... ...
ROW A1 : ... .. . ... ... ... : ... .. . ... ... ... : ... .. . ... ... ... : ... .. . ... ... ... : ... .. . ... ... ... : C#2 06 . ... ... ... : C#2 06 . P81 ... ... : ... .. . ... ... ... : C#2 06 7 ... ... ... : ... .. . ... ... ... : ... .. . ... ... ... : ... .. . ... ... ... : ... .. . ... ... ...
ROW A2 : ... .. . ... ... ... : ... .. . ... ... ... : ... .. . ... ... ... : ... .. . ... ... ... : ... .. . ... ... ... : ... .. . ... ... ... : C-2 06 . P7F ... ... : ... .. . ... ... ... : ... .. . ... ... ... : ... .. . ... ... ... : ... .. . ... ... ... : ... .. . ... ... ... : ... .. . ... ... ...
ROW A3 : ... .. . ... ... ... : ... .. . ... ... ... : ... .. . ... ... ... : ... .. . ... ... ... : ... .. . ... ... ... : ... .. . ... ... ... : C#2 06 . P81 ... ... : ... .. . ... ... ... : ... .. . ... ... ... : ... .. . ... ... ... : ... .. . ... ... ... : ... .. . ... ... ... : ... .. . ... ... ...
ROW A4 : ... .. . ... ... ... : ... .. . ... ... ... : ... .. . ... ... ... : ... .. . ... ... ... : ... .. . ... ... ... : C#2 09 . ... ... ... : C#2 09 . P80 ... ... : ... .. . ... ... ... : C#2 09 . ... ... ... : ... .. . ... ... ... : ... .. . ... ... ... : ... .. . ... ... ... : ... .. . ... ... ...
ROW A5 : ... .. . ... ... ... : ... .. . ... ... ... : ... .. . ... ... ... : ... .. . ... ... ... : ... .. . ... ... ... : ... .. . ... ... ... : ... .. . P81 ... ... : ... .. . ... ... ... : ... .. . ... ... ... : ... .. . ... ... ... : ... .. . ... ... ... : ... .. . ... ... ... : ... .. . ... ... ...
ROW A6 : ... .. . ... ... ... : ... .. . ... ... ... : ... .. . ... ... ... : ... .. . ... ... ... : ... .. . ... ... ... : ... .. . ... ... ... : ... .. . P82 ... ... : ... .. . ... ... ... : ... .. . ... ... ... : ... .. . ... ... ... : ... .. . ... ... ... : ... .. . ... ... ... : ... .. . ... ... ...
ROW A7 : ... .. . ... ... ... : ... .. . ... ... ... : ... .. . ... ... ... : D-# 00 A ... ... ... : ... .. . ... ... ... : C#2 06 . ... ... ... : C#2 06 . ... ... ... : ... .. . ... ... ... : C#2 06 . ... ... ... : ... .. . ... ... ... : ... .. . ... ... ... : ... .. . ... ... ... : ... .. . ... ... ...
ROW A8 : ... .. . ... ... ... : ... .. . ... ... ... : ... .. . ... ... ... : E-# 00 4 ... ... ... : ... .. . ... ... ... : ... .. . ... ... ... : ... .. . P81 ... ... : ... .. . ... ... ... : ... .. . ... ... ... : ... .. . ... ... ... : ... .. . ... ... ... : ... .. . ... ... ... : ... .. . ... ... ...
ROW A9 : ... .. . ... ... ... : ... .. . ... ... ... : ... .. . ... ... ... : D-# 00 2 ... ... ... : ... .. . ... ... ... : ... .. . ... ... ... : ... .. . ... ... ... : ... .. . ... ... ... : ... .. 6 ... ... ... : ... .. . ... ... ... : ... .. . ... ... ... : ... .. . ... ... ... : ... .. . ... ... ...
ROW AA : ... .. . ... ... ... : ... .. . ... ... ... : ... .. . ... ... ... : ... .. 1 ... ... ... : ... .. . ... ... ... : C#2 09 . ... ... ... : C#2 09 . P82 ... ... : ... .. . ... ... ... : C#2 09 . ... ... ... : ... .. . ... ... ... : ... .. . ... ... ... : ... .. . ... ... ... : ... .. . ... ... ...
ROW AB : ... .. . ... ... ... : ... .. . ... ... ... : ... .. . ... ... ... : ... .. . ... ... ... : ... .. . ... ... ... : ... .. . ... ... ... : C-2 09 . P7F ... ... : ... .. . ... ... ... : ... .. . ... ... ... : ... .. . ... ... ... : ... .. . ... ... ... : ... .. . ... ... ... : ... .. . ... ... ...
ROW AC : ... .. . ... ... ... : ... .. . ... ... ... : ... .. . ... ... ... : --- .. . ... ... ... : ... .. . ... ... ... : ... .. . ... ... ... : C#2 09 . P81 ... ... : ... .. . ... ... ... : ... .. . ... ... ... : ... .. . ... ... ... : ... .. . ... ... ... : ... .. . ... ... ... : ... .. . ... ... ...
ROW AD : ... .. . ... ... ... : ... .. . ... ... ... : ... .. . ... ... ... : D-# 00 A ... ... ... : ... .. . ... ... ... : C#2 06 . ... ... ... : C#2 06 . P80 ... ... : ... .. . ... ... ... : C#2 06 . ... ... ... : ... .. . ... ... ... : ... .. . ... ... ... : ... .. . ... ... ... : ... .. . ... ... ...
ROW AE : ... .. . ... ... ... : ... .. . ... ... ... : ... .. . ... ... ... : E-# 00 4 ... ... ... : ... .. . ... ... ... : ... .. . ... ... ... : ... .. . P81 ... ... : ... .. . ... ... ... : ... .. . ... ... ... : ... .. . ... ... ... : ... .. . ... ... ... : ... .. . ... ... ... : ... .. . ... ... ...
ROW AF : ... .. . ... ... ... : ... .. . ... ... ... : ... .. . ... ... ... : D-# 00 2 ... ... ... : ... .. . ... ... ... : ... .. . ... ... ... : C-2 06 . P7F ... ... : ... .. . ... ... ... : ... .. . ... ... ... : ... .. . ... ... ... : ... .. . ... ... ... : ... .. . ... ... ... : ... .. . ... ... ...
ROW B0 : ... .. . ... ... ... : ... .. . ... ... ... : ... .. . ... ... ... : ... .. 1 ... ... ... : ... .. . ... ... ... : C#2 09 . ... ... ... : C#2 09 . P81 ... ... : ... .. . ... ... ... : C#2 09 . ... ... ... : ... .. . ... ... ... : ... .. . ... ... ... : ... .. . ... ... ... : ... .. . ... ... ...
ROW B1 : ... .. . ... ... ... : ... .. . ... ... ... : ... .. . ... ... ... : ... .. . ... ... ... : ... .. . ... ... ... : ... .. . ... ... ... : ... .. . P80 ... ... : ... .. . ... ... ... : ... .. 5 ... ... ... : ... .. . ... ... ... : ... .. . ... ... ... : ... .. . ... ... ... : ... .. . ... ... ...
ROW B2 : ... .. . ... ... ... : ... .. . ... ... ... : ... .. . ... ... ... : --- .. . ... ... ... : ... .. . ... ... ... : ... .. . ... ... ... : ... .. . P81 ... ... : ... .. . ... ... ... : ... .. . ... ... ... : ... .. . ... ... ... : ... .. . ... ... ... : ... .. . ... ... ... : ... .. . ... ... ...
ROW B3 : ... .. . ... ... ... : ... .. . ... ... ... : ... .. . ... ... ... : ... .. . ... ... ... : ... .. . ... ... ... : ... .. . ... ... ... : C-2 09 . P7F ... ... : ... .. . ... ... ... : ... .. . ... ... ... : ... .. . ... ... ... : ... .. . ... ... ... : ... .. . ... ... ... : ... .. . ... ... ...
ROW B4 : ... .. . ... ... ... : C-4 02 . P80 ... ... : C#4 00 . P7F ... ... : 9-# 00 F ... ... ... : C#1 12 . ... ... ... : F#1 06 . ... ... ... : F#1 06 . P81 ... ... : ... .. . ... ... ... : F#1 06 . ... ... ... : ... .. . ... ... ... : ... .. . ... ... ... : ... .. . ... ... ... : ... .. . ... ... ...
ROW B5 : ... .. . ... ... ... : F-3 02 . ... ... ... : F#3 00 . P83 ... ... : 2-# 00 7 ... ... ... : ... .. . ... ... ... : ... .. . ... ... ... : ... .. . P80 ... ... : ... .. . ... ... ... : ... .. . ... ... ... : ... .. . ... ... ... : ... .. . ... ... ... : ... .. . ... ... ... : ... .. . ... ... ...
ROW B6 : ... .. . ... ... ... : A#2 02 . P81 ... ... : C#3 00 . P89 ... ... : 6-# 00 C ... ... ... : ... .. . ... ... ... : ... .. . ... ... ... : ... .. . P81 ... ... : ... .. . ... ... ... : ... .. . ... ... ... : ... .. . ... ... ... : ... .. . ... ... ... : ... .. . ... ... ... : ... .. . ... ... ...
ROW B7 : ... .. . ... ... ... : D#2 02 . ... ... ... : A#2 00 . P75 ... ... : 7-# 00 8 ... ... ... : ... .. . ... ... ... : ... .. . ... ... ... : F-1 06 . P80 ... ... : ... .. . ... ... ... : ... .. . ... ... ... : ... .. . ... ... ... : ... .. . ... ... ... : ... .. . ... ... ... : ... .. . ... ... ...
ROW B8 : ... .. . ... ... ... : G#1 02 . ... ... ... : G-2 00 . P70 ... ... : 8-# 00 7 ... ... ... : ... .. . ... ... ... : ... .. . ... ... ... : ... .. . ... ... ... : ... .. . ... ... ... : ... .. . ... ... ... : ... .. . ... ... ... : ... .. . ... ... ... : ... .. . ... ... ... : ... .. . ... ... ...
ROW B9 : ... .. . ... ... ... : C#1 02 . ... ... ... : E-2 00 . P7C ... ... : ... .. 6 ... ... ... : ... .. . ... ... ... : ... .. . ... ... ... : F#1 06 . P81 ... ... : ... .. . ... ... ... : ... .. 4 ... ... ... : ... .. . ... ... ... : ... .. . ... ... ... : ... .. . ... ... ... : ... .. . ... ... ...
ROW BA : ... .. . ... ... ... : ... .. . ... ... ... : --- .. . ... ... ... : ... .. . ... ... ... : ... .. . ... ... ... : F#1 07 . ... ... ... : F#1 07 . P80 ... ... : ... .. . ... ... ... : F#1 07 . ... ... ... : ... .. . ... ... ... : ... .. . ... ... ... : ... .. . ... ... ... : ... .. . ... ... ...
ROW BB : ... .. . ... ... ... : ... .. . ... ... ... : ... .. . ... ... ... : ... .. 5 ... ... ... : ... .. . ... ... ... : ... .. . ... ... ... : ... .. . P81 ... ... : ... .. . ... ... ... : ... .. . ... ... ... : ... .. . ... ... ... : ... .. . ... ... ... : ... .. . ... ... ... : ... .. . ... ... ...
ROW BC : ... .. . ... ... ... : ... .. . ... ... ... : ... .. . ... ... ... : ... .. . ... ... ... : ... .. . ... ... ... : ... .. . ... ... ... : F-1 07 . P80 ... ... : ... .. . ... ... ... : ... .. . ... ... ... : ... .. . ... ... ... : ... .. . ... ... ... : ... .. . ... ... ... : ... .. . ... ... ...
ROW BD : ... .. . ... ... ... : ... .. . ... ... ... : ... .. . ... ... ... : ... .. 4 ... ... ... : ... .. . ... ... ... : F-1 07 . ... ... ... : ... .. . P81 ... ... : ... .. . ... ... ... : ... .. . P81 ... ... : ... .. . ... ... ... : ... .. . ... ... ... : ... .. . ... ... ... : ... .. . ... ... ...
ROW BE : ... .. . ... ... ... : ... .. . ... ... ... : ... .. . ... ... ... : ... .. . ... ... ... : ... .. . ... ... ... : E-1 07 . ... ... ... : E-1 07 . P80 ... ... : ... .. . ... ... ... : F-1 07 . ... ... ... : ... .. . ... ... ... : ... .. . ... ... ... : ... .. . ... ... ... : ... .. . ... ... ...
ROW BF : ... .. . ... ... ... : ... .. . ... ... ... : ... .. . ... ... ... : ... .. 3 ... ... ... : ... .. . ... ... ... : D#1 07 . ... ... ... : D-1 07 . ... ... ... : ... .. . ... ... ... : E-1 07 . ... ... ... : ... .. . ... ... ... : ... .. . ... ... ... : ... .. . ... ... ... : ... .. . ... ... ...
ROW C0 : ... .. . ... ... ... : ... .. . ... ... ... : ... .. . ... ... ... : 6-# 01 F ... ... ... : ... .. . ... ... ... : D-1 08 . P81 ... ... : C#1 08 . P81 ... ... : ... .. . ... ... ... : D-1 08 . P80 ... ... : ... .. . ... ... ... : ... .. . ... ... ... : ... .. . ... ... ... : ... .. . ... ... ...
ROW C1 : ... .. . ... ... ... : ... .. . ... ... ... : ... .. . ... ... ... : ... .. 9 ... ... ... : ... .. . ... ... ... : C#1 08 . ... ... ... : C-1 08 . P80 ... ... : ... .. . ... ... ... : C#1 08 3 ... ... ... : ... .. . ... ... ... : ... .. . ... ... ... : ... .. . ... ... ... : ... .. . ... ... ...
ROW C2 : ... .. . ... ... ... : ... .. . ... ... ... : ... .. . ... ... ... : ... .. 4 ... ... ... : ... .. . ... ... ... : B-0 08 . P80 ... ... : B-0 08 . ... ... ... : ... .. . ... ... ... : C-1 08 . ... ... ... : ... .. . ... ... ... : ... .. . ... ... ... : ... .. . ... ... ... : ... .. . ... ... ...
ROW C3 : ... .. . ... ... ... : ... .. . ... ... ... : ... .. . ... ... ... : ... .. 7 ... ... ... : ... .. . ... ... ... : A#0 08 . ... ... ... : A-0 08 . ... ... ... : ... .. . ... ... ... : B-0 08 . P81 ... ... : ... .. . ... ... ... : ... .. . ... ... ... : ... .. . ... ... ... : ... .. . ... ... ...
ROW C4 : ... .. . ... ... ... : ... .. . ... ... ... : ... .. . ... ... ... : ... .. 5 ... ... ... : ... .. . ... ... ... : A-0 08 . P81 ... ... : G-0 08 . P81 ... ... : ... .. . ... ... ... : A-0 08 . P80 ... ... : ... .. . ... ... ... : ... .. . ... ... ... : ... .. . ... ... ... : ... .. . ... ... ...
ROW C5 : ... .. . ... ... ... : ... .. . ... ... ... : ... .. . ... ... ... : ... .. . ... ... ... : ... .. . ... ... ... : G-0 08 . ... ... ... : F#0 08 . ... ... ... : ... .. . ... ... ... : G#0 08 . P81 ... ... : ... .. . ... ... ... : ... .. . ... ... ... : ... .. . ... ... ... : ... .. . ... ... ...
ROW C6 : ... .. . ... ... ... : ... .. . ... ... ... : ... .. . ... ... ... : ... .. 4 ... ... ... : ... .. . ... ... ... : F-0 09 . P80 ... ... : F-0 09 . ... ... ... : ... .. . ... ... ... : F#0 09 . P80 ... ... : ... .. . ... ... ... : ... .. . ... ... ... : ... .. . ... ... ... : ... .. . ... ... ...
ROW C7 : ... .. . ... ... ... : ... .. . ... ... ... : ... .. . ... ... ... : ... .. . ... ... ... : ... .. . ... ... ... : D#0 09 . ... ... ... : D#0 09 . ... ... ... : ... .. . ... ... ... : E-0 09 . ... ... ... : ... .. . ... ... ... : ... .. . ... ... ... : ... .. . ... ... ... : ... .. . ... ... ...
ROW C8 : ... .. . ... ... ... : ... .. . ... ... ... : ... .. . ... ... ... : ... .. 3 ... ... ... : ... .. . ... ... ... : C#0 09 . P81 ... ... : C-0 09 . ... ... ... : ... .. . ... ... ... : D-0 09 . ... ... ... : ... .. . ... ... ... : ... .. . ... ... ... : ... .. . ... ... ... : ... .. . ... ... ...
ROW C9 : ... .. . ... ... ... : ... .. . ... ... ... : ... .. . ... ... ... : ... .. 2 ... ... ... : ... .. . ... ... ... : C-0 09 . P82 ... ... : ... .. . P83 ... ... : ... .. . ... ... ... : C-0 09 2 P81 ... ... : ... .. . ... ... ... : ... .. . ... ... ... : ... .. . ... ... ... : ... .. . ... ... ...
ROW CA : ... .. . ... ... ... : ... .. . ... ... ... : ... .. . ... ... ... : ... .. . ... ... ... : ... .. . ... ... ... : ... .. . P84 ... ... : ... .. . P84 ... ... : ... .. . ... ... ... : ... .. . P83 ... ... : ... .. . ... ... ... : ... .. . ... ... ... : ... .. . ... ... ... : ... .. . ... ... ...
ROW CB : ... .. . ... ... ... : ... .. . ... ... ... : ... .. . ... ... ... : ... .. 1 ... ... ... : ... .. . ... ... ... : ... .. . P86 ... ... : ... .. . P86 ... ... : ... .. . ... ... ... : ... .. . P85 ... ... : ... .. . ... ... ... : ... .. . ... ... ... : ... .. . ... ... ... : ... .. . ... ... ...
ROW CC : ... .. . ... ... ... : ... .. . ... ... ... : ... .. . ... ... ... : ... .. . ... ... ... : ... .. . ... ... ... : --- .. . P7A ... ... : --- .. . P7B ... ... : ... .. . ... ... ... : ... .. . P87 ... ... : ... .. . ... ... ... : ... .. . ... ... ... : ... .. . ... ... ... : ... .. . ... ... ...
ROW CD : ... .. . ... ... ... : C-4 02 . P80 ... ... : F#3 00 . P78 ... ... : 1-# 00 F ... ... ... : C-1 12 . ... ... ... : G-4 04 A P78 ... ... : A-4 04 A P82 ... ... : ... .. . ... ... ... : F#4 04 9 P89 ... ... : G-4 04 9 P81 ... ... : ... .. . ... ... ... : ... .. . ... ... ... : ... .. . ... ... ...
ROW CE : ... .. . ... ... ... : F-3 02 . ... ... ... : C#3 00 . P7E ... ... : 2-# 00 7 ... ... ... : ... .. . ... ... ... : G#4 04 . P84 ... ... : ... .. . P81 ... ... : ... .. . ... ... ... : ... .. . P81 ... ... : ... .. . ... ... ... : ... .. . ... ... ... : ... .. . ... ... ... : ... .. . ... ... ...
ROW CF : ... .. . ... ... ... : A#2 02 . P81 ... ... : A-2 00 . P86 ... ... : 1-# 00 4 ... ... ... : ... .. . ... ... ... : ... .. . P7C ... ... : ... .. . P80 ... ... : ... .. . ... ... ... : ... .. . P79 ... ... : ... .. . ... ... ... : ... .. . ... ... ... : ... .. . ... ... ... : ... .. . ... ... ...
ROW D0 : ... .. . ... ... ... : D#2 02 . ... ... ... : --- .. . ... ... ... : ... .. 2 ... ... ... : ... .. . ... ... ... : --- .. . ... ... ... : --- .. . ... ... ... : ... .. . ... ... ... : --- .. . ... ... ... : --- .. . ... ... ... : ... .. . ... ... ... : ... .. . ... ... ... : ... .. . ... ... ...
ROW D1 : ... .. . ... ... ... : G#1 02 . ... ... ... : ... .. . ... ... ... : ... .. 1 ... ... ... : ... .. . ... ... ... : ... .. . P80 ... ... : ... .. . ... ... ... : ... .. . ... ... ... : ... .. . P80 ... ... : ... .. . P80 ... ... : ... .. . ... ... ... : ... .. . ... ... ... : ... .. . ... ... ...
ROW D2 : ... .. . ... ... ... : C#1 02 . ... ... ... : ... .. . ... ... ... : --- .. . ... ... ... : ... .. . ... ... ... : ... .. . ... ... ... : ... .. . ... ... ... : ... .. . ... ... ... : ... .. . ... ... ... : ... .. . ... ... ... : ... .. . ... ... ... : ... .. . ... ... ... : ... .. . ... ... ...
ROW D3 : ... .. . ... ... ... : ... .. . ... ... ... : ... .. . ... ... ... : 1-# 00 F ... ... ... : C-1 12 . ... ... ... : A-4 04 . P7A ... ... : A-4 04 . P82 ... ... : ... .. . ... ... ... : G#4 04 . P88 ... ... : G-4 04 . P83 ... ... : ... .. . ... ... ... : ... .. . ... ... ... : ... .. . ... ... ...
ROW D4 : ... .. . ... ... ... : ... .. . ... ... ... : ... .. . ... ... ... : 2-# 00 7 ... ... ... : ... .. . ... ... ... : ... .. . P7C ... ... : ... .. . P85 ... ... : ... .. . ... ... ... : ... .. . P8A ... ... : ... .. . P85 ... ... : ... .. . ... ... ... : ... .. . ... ... ... : ... .. . ... ... ...
ROW D5 : ... .. . ... ... ... : ... .. . ... ... ... : ... .. . ... ... ... : 1-# 00 4 ... ... ... : ... .. . ... ... ... : ... .. . P7E ... ... : ... .. . P88 ... ... : ... .. . ... ... ... : G-4 04 . P79 ... ... : ... .. . P87 ... ... : ... .. . ... ... ... : ... .. . ... ... ... : ... .. . ... ... ...
ROW D6 : ... .. . ... ... ... : ... .. . ... ... ... : ... .. . ... ... ... : ... .. 2 ... ... ... : ... .. . ... ... ... : --- .. . ... ... ... : --- .. . ... ... ... : ... .. . ... ... ... : --- .. . ... ... ... : --- .. . ... ... ... : ... .. . ... ... ... : ... .. . ... ... ... : ... .. . ... ... ...
ROW D7 : ... .. . ... ... ... : ... .. . ... ... ... : ... .. . ... ... ... : ... .. 1 ... ... ... : ... .. . ... ... ... : ... .. . P80 ... ... : ... .. . P80 ... ... : ... .. . ... ... ... : ... .. . P80 ... ... : ... .. . P80 ... ... : ... .. . ... ... ... : ... .. . ... ... ... : ... .. . ... ... ...
ROW D8 : ... .. . ... ... ... : ... .. . ... ... ... : ... .. . ... ... ... : --- .. . ... ... ... : ... .. . ... ... ... : ... .. . ... ... ... : ... .. . ... ... ... : ... .. . ... ... ... : ... .. . ... ... ... : ... .. . ... ... ... : ... .. . ... ... ... : ... .. . ... ... ... : ... .. . ... ... ...
ROW D9 : ... .. . ... ... ... : ... .. . ... ... ... : ... .. . ... ... ... : A-# 00 F ... ... ... : C-1 12 . ... ... ... : G#4 04 . P7E ... ... : G#4 04 . P88 ... ... : ... .. . ... ... ... : F#4 04 . P7B ... ... : F-4 04 . P78 ... ... : ... .. . ... ... ... : ... .. . ... ... ... : ... .. . ... ... ...
ROW DA : ... .. . ... ... ... : ... .. . ... ... ... : ... .. . ... ... ... : 6-# 00 9 ... ... ... : ... .. . ... ... ... : G-4 04 . P78 ... ... : G-4 04 . P83 ... ... : ... .. . ... ... ... : ... .. . P89 ... ... : ... .. . P86 ... ... : ... .. . ... ... ... : ... .. . ... ... ... : ... .. . ... ... ...
ROW DB : ... .. . ... ... ... : ... .. . ... ... ... : ... .. . ... ... ... : 7-# 00 C ... ... ... : ... .. . ... ... ... : ... .. . P86 ... ... : F#4 04 . P7E ... ... : ... .. . ... ... ... : F-4 04 . P85 ... ... : E-4 04 . P84 ... ... : ... .. . ... ... ... : ... .. . ... ... ... : ... .. . ... ... ...
ROW DC : ... .. . ... ... ... : ... .. . ... ... ... : ... .. . ... ... ... : ... .. 8 ... ... ... : ... .. . ... ... ... : F#4 04 . P82 ... ... : F-4 04 . P7A ... ... : ... .. . ... ... ... : E-4 04 . P83 ... ... : D#4 04 . P83 ... ... : ... .. . ... ... ... : ... .. . ... ... ... : ... .. . ... ... ...
ROW DD : ... .. . ... ... ... : ... .. . ... ... ... : ... .. . ... ... ... : 8-# 00 7 ... ... ... : ... .. . ... ... ... : F-4 04 . P7F ... ... : E-4 04 . P79 ... ... : ... .. . ... ... ... : D#4 04 . P82 ... ... : D-4 04 8 P82 ... ... : ... .. . ... ... ... : ... .. . ... ... ... : ... .. . ... ... ...
ROW DE : ... .. . ... ... ... : ... .. . ... ... ... : ... .. . ... ... ... : ... .. 8 ... ... ... : ... .. . ... ... ... : E-4 04 . P7D ... ... : ... .. . P88 ... ... : ... .. . ... ... ... : D-4 04 . ... ... ... : C#4 04 . P83 ... ... : ... .. . ... ... ... : ... .. . ... ... ... : ... .. . ... ... ...
ROW DF : ... .. . ... ... ... : ... .. . ... ... ... : ... .. . ... ... ... : 9-# 00 7 ... ... ... : ... .. . ... ... ... : D#4 04 . P7C ... ... : D#4 04 . P85 ... ... : ... .. . ... ... ... : C#4 04 . ... ... ... : C-4 04 . P84 ... ... : ... .. . ... ... ... : ... .. . ... ... ... : ... .. . ... ... ...
ROW E0 : ... .. . ... ... ... : ... .. . ... ... ... : ... .. . ... ... ... : ... .. 6 ... ... ... : ... .. . ... ... ... : D-4 04 . P7B ... ... : D-4 04 . P84 ... ... : ... .. . ... ... ... : C-4 04 . P83 ... ... : B-3 04 . P86 ... ... : ... .. . ... ... ... : ... .. . ... ... ... : ... .. . ... ... ...
ROW E1 : ... .. . ... ... ... : ... .. . ... ... ... : ... .. . ... ... ... : ... .. 5 ... ... ... : ... .. . ... ... ... : C#4 04 . P7C ... ... : C#4 04 . P85 ... ... : ... .. . ... ... ... : B-3 04 8 P85 ... ... : A-3 04 7 P7E ... ... : ... .. . ... ... ... : ... .. . ... ... ... : ... .. . ... ... ...
ROW E2 : ... .. . ... ... ... : ... .. . ... ... ... : ... .. . ... ... ... : ... .. . ... ... ... : ... .. . ... ... ... : C-4 04 . P7D ... ... : B-3 04 . P7B ... ... : ... .. . ... ... ... : A-3 04 . P7D ... ... : G#3 04 . P82 ... ... : ... .. . ... ... ... : ... .. . ... ... ... : ... .. . ... ... ...
ROW E3 : ... .. . ... ... ... : ... .. . ... ... ... : ... .. . ... ... ... : ... .. . ... ... ... : ... .. . ... ... ... : B-3 04 . P7F ... ... : A#3 04 . P7D ... ... : ... .. . ... ... ... : G#3 04 . P81 ... ... : F#3 04 . P7D ... ... : ... .. . ... ... ... : ... .. . ... ... ... : ... .. . ... ... ...
ROW E4 : ... .. . ... ... ... : ... .. . ... ... ... : ... .. . ... ... ... : ... .. . ... ... ... : ... .. . ... ... ... : A#3 04 . P82 ... ... : A-3 04 . P7F ... ... : ... .. . ... ... ... : F#3 04 . P7C ... ... : F-3 04 . P82 ... ... : ... .. . ... ... ... : ... .. . ... ... ... : ... .. . ... ... ...
ROW E5 : ... .. . ... ... ... : ... .. . ... ... ... : ... .. . ... ... ... : ... .. . ... ... ... : ... .. . ... ... ... : A-3 04 . P85 ... ... : G#3 04 . P84 ... ... : ... .. . ... ... ... : F-3 04 . P82 ... ... : D#3 04 6 P81 ... ... : ... .. . ... ... ... : ... .. . ... ... ... : ... .. . ... ... ...
ROW E6 : ... .. . ... ... ... : C-4 02 . P80 ... ... : C#4 00 . P7F ... ... : ... .. F ... ... ... : C#1 12 . ... ... ... : G#1 04 F P80 ... ... : F#3 04 . P80 ... ... : G-1 04 9 ... ... ... : A-1 04 9 ... ... ... : C#3 04 . ... ... ... : ... .. . ... ... ... : ... .. . ... ... ... : ... .. . ... ... ...
ROW E7 : ... .. . ... ... ... : F-3 02 . ... ... ... : F#3 00 . P83 ... ... : 2-# 00 7 ... ... ... : ... .. . ... ... ... : ... .. . ... ... ... : E-3 04 . P7D ... ... : ... .. . ... ... ... : ... .. . ... ... ... : B-2 04 . P82 ... ... : ... .. . ... ... ... : ... .. . ... ... ... : ... .. . ... ... ...
ROW E8 : ... .. . ... ... ... : A#2 02 . P81 ... ... : C#3 00 . P89 ... ... : 6-# 00 C ... ... ... : ... .. . ... ... ... : ... .. . ... ... ... : D#3 04 . P83 ... ... : ... .. . ... ... ... : ... .. . ... ... ... : G#2 04 . P80 ... ... : ... .. . ... ... ... : ... .. . ... ... ... : ... .. . ... ... ...
ROW E9 : ... .. . ... ... ... : D#2 02 . ... ... ... : A#2 00 . P75 ... ... : 7-# 00 8 ... ... ... : ... .. . ... ... ... : ... .. . ... ... ... : C#3 04 . ... ... ... : ... .. . ... ... ... : ... .. . ... ... ... : F-2 04 5 ... ... ... : ... .. . ... ... ... : ... .. . ... ... ... : ... .. . ... ... ...
ROW EA : ... .. . ... ... ... : G#1 02 . ... ... ... : G-2 00 . P70 ... ... : 8-# 00 7 ... ... ... : ... .. . ... ... ... : ... .. . ... ... ... : A#2 04 . P7F ... ... : ... .. 8 ... ... ... : ... .. . ... ... ... : C#2 04 . ... ... ... : ... .. . ... ... ... : ... .. . ... ... ... : ... .. . ... ... ...
ROW EB : ... .. . ... ... ... : C#1 02 . ... ... ... : E-2 00 . P7C ... ... : ... .. 6 ... ... ... : ... .. . ... ... ... : ... .. . ... ... ... : G-2 04 . ... ... ... : ... .. . ... ... ... : ... .. . ... ... ... : G#1 04 . P7F ... ... : ... .. . ... ... ... : ... .. . ... ... ... : ... .. . ... ... ...
ROW EC : ... .. . ... ... ... : ... .. . ... ... ... : --- .. . ... ... ... : ... .. . ... ... ... : ... .. . ... ... ... : G#2 04 . ... ... ... : E-2 04 . ... ... ... : G#2 04 . P82 ... ... : G#2 04 . P7F ... ... : D-1 04 . P81 ... ... : ... .. . ... ... ... : ... .. . ... ... ... : ... .. . ... ... ...
ROW ED : ... .. . ... ... ... : ... .. . ... ... ... : ... .. . ... ... ... : ... .. 5 ... ... ... : ... .. . ... ... ... : ... .. . ... ... ... : C#2 04 . P81 ... ... : ... .. . ... ... ... : ... .. . ... ... ... : D#0 04 4 ... ... ... : ... .. . ... ... ... : ... .. . ... ... ... : ... .. . ... ... ...
ROW EE : ... .. . ... ... ... : ... .. . ... ... ... : ... .. . ... ... ... : ... .. . ... ... ... : ... .. . ... ... ... : ... .. . ... ... ... : G-1 04 . P7F ... ... : ... .. 7 ... ... ... : ... .. 8 ... ... ... : --- .. . P7F ... ... : ... .. . ... ... ... : ... .. . ... ... ... : ... .. . ... ... ...
ROW EF : ... .. . ... ... ... : ... .. . ... ... ... : ... .. . ... ... ... : ... .. 4 ... ... ... : ... .. . ... ... ... : ... .. . ... ... ... : C-1 04 . P81 ... ... : ... .. . ... ... ... : ... .. . ... ... ... : D#7 04 . P81 ... ... : ... .. . ... ... ... : ... .. . ... ... ... : ... .. . ... ... ...
ROW F0 : ... .. . ... ... ... : ... .. . ... ... ... : ... .. . ... ... ... : ... .. . ... ... ... : ... .. . ... ... ... : ... .. . ... ... ... : C-0 04 . P80 ... ... : ... .. . ... ... ... : ... .. . ... ... ... : ... .. . ... ... ... : ... .. . ... ... ... : ... .. . ... ... ... : ... .. . ... ... ...
ROW F1 : ... .. . ... ... ... : ... .. . ... ... ... : ... .. . ... ... ... : ... .. 3 ... ... ... : ... .. . ... ... ... : ... .. . ... ... ... : --- .. . ... ... ... : ... .. . ... ... ... : ... .. . ... ... ... : ... .. 3 ... ... ... : ... .. . ... ... ... : ... .. . ... ... ... : ... .. . ... ... ...
ROW F2 : ... .. . ... ... ... : ... .. . ... ... ... : ... .. . ... ... ... : D-# 00 A ... ... ... : ... .. . ... ... ... : C#2 04 . ... ... ... : ... .. . ... ... ... : C#2 04 6 ... ... ... : C#2 04 . ... ... ... : ... .. . ... ... ... : ... .. . ... ... ... : ... .. . ... ... ... : ... .. . ... ... ...
ROW F3 : ... .. . ... ... ... : ... .. . ... ... ... : ... .. . ... ... ... : E-# 00 4 ... ... ... : ... .. . ... ... ... : ... .. . ... ... ... : ... .. . ... ... ... : ... .. . ... ... ... : ... .. . ... ... ... : ... .. . ... ... ... : ... .. . ... ... ... : ... .. . ... ... ... : ... .. . ... ... ...
ROW F4 : ... .. . ... ... ... : ... .. . ... ... ... : ... .. . ... ... ... : D-# 00 2 ... ... ... : ... .. . ... ... ... : ... .. . ... ... ... : ... .. . ... ... ... : ... .. . ... ... ... : ... .. . ... ... ... : ... .. . ... ... ... : ... .. . ... ... ... : ... .. . ... ... ... : ... .. . ... ... ...
ROW F5 : ... .. . ... ... ... : ... .. . ... ... ... : ... .. . ... ... ... : ... .. 1 ... ... ... : ... .. . ... ... ... : ... .. . ... ... ... : ... .. . ... ... ... : ... .. . ... ... ... : ... .. . ... ... ... : ... .. 2 ... ... ... : ... .. . ... ... ... : ... .. . ... ... ... : ... .. . ... ... ...
ROW F6 : ... .. . ... ... ... : ... .. . ... ... ... : ... .. . ... ... ... : ... .. . ... ... ... : ... .. . ... ... ... : ... .. . ... ... ... : ... .. . ... ... ... : ... .. 5 ... ... ... : ... .. 7 ... ... ... : ... .. . ... ... ... : ... .. . ... ... ... : ... .. . ... ... ... : ... .. . ... ... ...
ROW F7 : ... .. . ... ... ... : ... .. . ... ... ... : ... .. . ... ... ... : --- .. . ... ... ... : ... .. . ... ... ... : ... .. . ... ... ... : ... .. . ... ... ... : ... .. . ... ... ... : ... .. . ... ... ... : ... .. . ... ... ... : ... .. . ... ... ... : ... .. . ... ... ... : ... .. . ... ... ...
ROW F8 : ... .. . ... ... ... : ... .. . ... ... ... : ... .. . ... ... ... : D-# 00 A ... ... ... : ... .. . ... ... ... : C#3 04 . ... ... ... : ... .. . ... ... ... : C#3 04 . ... ... ... : C#3 04 . ... ... ... : --- .. . ... ... ... : ... .. . ... ... ... : ... .. . ... ... ... : ... .. . ... ... ...
ROW F9 : ... .. . ... ... ... : ... .. . ... ... ... : ... .. . ... ... ... : E-# 00 4 ... ... ... : ... .. . ... ... ... : ... .. . ... ... ... : ... .. . ... ... ... : ... .. . ... ... ... : ... .. . ... ... ... : ... .. . P80 ... ... : ... .. . ... ... ... : ... .. . ... ... ... : ... .. . ... ... ...
ROW FA : ... .. . ... ... ... : ... .. . ... ... ... : ... .. . ... ... ... : D-# 00 2 ... ... ... : ... .. . ... ... ... : ... .. . ... ... ... : ... .. . ... ... ... : ... .. 4 ... ... ... : ... .. . ... ... ... : ... .. . ... ... ... : ... .. . ... ... ... : ... .. . ... ... ... : ... .. . ... ... ...
ROW FB : ... .. . ... ... ... : ... .. . ... ... ... : ... .. . ... ... ... : ... .. 1 ... ... ... : ... .. . ... ... ... : ... .. . ... ... ... : ... .. . ... ... ... : ... .. . ... ... ... : ... .. . ... ... ... : ... .. . ... ... ... : ... .. . ... ... ... : ... .. . ... ... ... : ... .. . ... ... ...
ROW FC : ... .. . ... ... ... : ... .. . ... ... ... : ... .. . ... ... ... : ... .. . ... ... ... : ... .. . ... ... ... : ... .. . ... ... ... : ... .. . ... ... ... : ... .. . ... ... ... : ... .. . ... ... ... : ... .. . ... ... ... : ... .. . ... ... ... : ... .. . ... ... ... : ... .. . ... ... ...
ROW FD : ... .. . ... ... ... : ... .. . ... ... ... : ... .. . ... ... ... : --- .. . ... ... ... : ... .. . ... ... ... : ... .. . ... ... ... : ... .. . ... ... ... : ... .. . ... ... ... : ... .. . ... ... ... : ... .. . ... ... ... : ... .. . ... ... ... : ... .. . ... ... ... : ... .. . ... ... ...
ROW FE : ... .. . ... ... ... : ... .. . ... ... ... : ... .. . ... ... ... : ... .. . ... ... ... : ... .. . ... ... ... : ... .. . ... ... ... : ... .. . ... ... ... : ... .. 3 ... ... ... : ... .. 6 ... ... ... : ... .. . ... ... ... : ... .. . ... ... ... : ... .. . ... ... ... : ... .. . ... ... ...
ROW FF : ... .. . ... ... ... : C-4 02 . P80 ... ... : F#3 00 . P78 ... ... : 1-# 00 F ... ... ... : C-1 12 . ... ... ... : B-4 0C 7 P7C ... ... : ... .. . ... ... ... : --- .. . ... ... ... : A#3 0C 1 P85 ... ... : ... .. . ... ... ... : ... .. . ... ... ... : ... .. . ... ... ... : ... .. . ... ... ...

PATTERN 11
ROW 00 : ... .. . ... ... ... : F-3 02 . ... ... ... : C#3 00 . P7E ... ... : 2-# 00 7 ... ... ... : ... .. . ... ... ... : A#4 0C . P79 ... ... : ... .. . ... ... ... : ... .. . P80 ... ... : G-3 0C . ... ... ... : ... .. . ... ... ... : ... .. . ... ... ... : ... .. . ... ... ... : ... .. . ... ... ...
ROW 01 : ... .. . ... ... ... : A#2 02 . P81 ... ... : A-2 00 . P86 ... ... : 1-# 00 4 ... ... ... : ... .. . ... ... ... : A-4 0C . P78 ... ... : ... .. . ... ... ... : ... .. . ... ... ... : D#3 0C . P82 ... ... : ... .. . ... ... ... : ... .. . ... ... ... : ... .. . ... ... ... : ... .. . ... ... ...
ROW 02 : ... .. . ... ... ... : D#2 02 . ... ... ... : --- .. . ... ... ... : ... .. 2 ... ... ... : ... .. . ... ... ... : G#4 0C . ... ... ... : ... .. . ... ... ... : ... .. . ... ... ... : A#2 0C . P7F ... ... : ... .. . ... ... ... : ... .. . ... ... ... : ... .. . ... ... ... : ... .. . ... ... ...
ROW 03 : ... .. . ... ... ... : G#1 02 . ... ... ... : ... .. . ... ... ... : ... .. 1 ... ... ... : ... .. . ... ... ... : G-4 0C . ... ... ... : ... .. . ... ... ... : ... .. . ... ... ... : E-2 0C . P81 ... ... : ... .. . ... ... ... : ... .. . ... ... ... : ... .. . ... ... ... : ... .. . ... ... ...
ROW 04 : ... .. . ... ... ... : C#1 02 . ... ... ... : ... .. . ... ... ... : --- .. . ... ... ... : ... .. . ... ... ... : --- .. . ... ... ... : ... .. . ... ... ... : ... .. . ... ... ... : --- .. . ... ... ... : ... .. . ... ... ... : ... .. . ... ... ... : ... .. . ... ... ... : ... .. . ... ... ...
ROW 05 : ... .. . ... ... ... : ... .. . ... ... ... : ... .. . ... ... ... : ... .. . ... ... ... : ... .. . ... ... ... : B-4 0C . P7C ... ... : ... .. . ... ... ... : ... .. . ... ... ... : A#3 0C . P85 ... ... : ... .. . ... ... ... : ... .. . ... ... ... : ... .. . ... ... ... : ... .. . ... ... ...
ROW 06 : ... .. . ... ... ... : ... .. . ... ... ... : ... .. . ... ... ... : ... .. . ... ... ... : ... .. . ... ... ... : A#4 0C . P79 ... ... : ... .. . ... ... ... : ... .. . ... ... ... : G-3 0C . ... ... ... : ... .. . ... ... ... : ... .. . ... ... ... : ... .. . ... ... ... : ... .. . ... ... ...
ROW 07 : ... .. . ... ... ... : ... .. . ... ... ... : ... .. . ... ... ... : ... .. . ... ... ... : ... .. . ... ... ... : A-4 0C . P78 ... ... : ... .. . ... ... ... : ... .. . ... ... ... : --- .. . ... ... ... : ... .. . ... ... ... : ... .. . ... ... ... : ... .. . ... ... ... : ... .. . ... ... ...
ROW 08 : ... .. . ... ... ... : ... .. . ... ... ... : ... .. . ... ... ... : ... .. . ... ... ... : ... .. . ... ... ... : G#4 0C . ... ... ... : ... .. . ... ... ... : ... .. . ... ... ... : ... .. . P80 ... ... : ... .. . ... ... ... : ... .. . ... ... ... : ... .. . ... ... ... : ... .. . ... ... ...
ROW 09 : ... .. . ... ... ... : ... .. . ... ... ... : ... .. . ... ... ... : ... .. . ... ... ... : ... .. . ... ... ... : G-4 0C . ... ... ... : ... .. . ... ... ... : ... .. . ... ... ... : ... .. . ... ... ... : ... .. . ... ... ... : ... .. . ... ... ... : ... .. . ... ... ... : ... .. . ... ... ...
ROW 0A : ... .. . ... ... ... : ... .. . ... ... ... : ... .. . ... ... ... : ... .. . ... ... ... : ... .. . ... ... ... : --- .. . ... ... ... : ... .. . ... ... ... : ... .. . ... ... ... : ... .. . ... ... ... : ... .. . ... ... ... : ... .. . ... ... ... : ... .. . ... ... ... : ... .. . ... ... ...
ROW 0B : ... .. . ... ... ... : ... .. . ... ... ... : ... .. . ... ... ... : D-# 00 A ... ... ... : ... .. . ... ... ... : C#3 05 A P80 ... ... : C#3 05 . P82 ... ... : C#3 05 9 P7E ... ... : G#2 05 9 P81 ... ... : ... .. . ... ... ... : ... .. . ... ... ... : ... .. . ... ... ... : ... .. . ... ... ...
ROW 0C : ... .. . ... ... ... : ... .. . ... ... ... : ... .. . ... ... ... : E-# 00 4 ... ... ... : ... .. . ... ... ... : ... .. . ... ... ... : ... .. . P83 ... ... : ... .. . ... ... ... : ... .. . ... ... ... : ... .. . ... ... ... : ... .. . ... ... ... : ... .. . ... ... ... : ... .. . ... ... ...
ROW 0D : ... .. . ... ... ... : ... .. . ... ... ... : ... .. . ... ... ... : D-# 00 2 ... ... ... : ... .. . ... ... ... : ... .. . ... ... ... : C-3 05 . P7E ... ... : ... .. . ... ... ... : ... .. . ... ... ... : ... .. . ... ... ... : ... .. . ... ... ... : ... .. . ... ... ... : ... .. . ... ... ...
ROW 0E : ... .. . ... ... ... : ... .. . ... ... ... : ... .. . ... ... ... : ... .. 1 ... ... ... : ... .. . ... ... ... : ... .. . ... ... ... : C#3 05 . P83 ... ... : ... .. . ... ... ... : ... .. . ... ... ... : ... .. . ... ... ... : ... .. . ... ... ... : ... .. . ... ... ... : ... .. . ... ... ...
ROW 0F : ... .. . ... ... ... : ... .. . ... ... ... : ... .. . ... ... ... : ... .. . ... ... ... : ... .. . ... ... ... : --- .. . ... ... ... : --- .. . ... ... ... : --- .. . ... ... ... : --- .. . ... ... ... : ... .. . ... ... ... : ... .. . ... ... ... : ... .. . ... ... ... : ... .. . ... ... ...
ROW 10 : ... .. . ... ... ... : ... .. . ... ... ... : ... .. . ... ... ... : --- .. . ... ... ... : ... .. . ... ... ... : ... .. . ... ... ... : ... .. . P80 ... ... : ... .. . P80 ... ... : ... .. . P80 ... ... : ... .. . ... ... ... : ... .. . ... ... ... : ... .. . ... ... ... : ... .. . ... ... ...
ROW 11 : ... .. . ... ... ... : ... .. . ... ... ... : ... .. . ... ... ... : D-# 00 A ... ... ... : ... .. . ... ... ... : C#3 05 4 ... ... ... : C-3 05 4 P7E ... ... : C#3 05 3 P7E ... ... : G#2 05 3 P81 ... ... : ... .. . ... ... ... : ... .. . ... ... ... : ... .. . ... ... ... : ... .. . ... ... ...
ROW 12 : ... .. . ... ... ... : ... .. . ... ... ... : ... .. . ... ... ... : E-# 00 4 ... ... ... : ... .. . ... ... ... : ... .. . ... ... ... : C#3 05 . P83 ... ... : ... .. . ... ... ... : ... .. . ... ... ... : ... .. . ... ... ... : ... .. . ... ... ... : ... .. . ... ... ... : ... .. . ... ... ...
ROW 13 : ... .. . ... ... ... : ... .. . ... ... ... : ... .. . ... ... ... : D-# 00 2 ... ... ... : ... .. . ... ... ... : ... .. . ... ... ... : ... .. . P82 ... ... : ... .. . ... ... ... : ... .. . ... ... ... : ... .. . ... ... ... : ... .. . ... ... ... : ... .. . ... ... ... : ... .. . ... ... ...
ROW 14 : ... .. . ... ... ... : ... .. . ... ... ... : ... .. . ... ... ... : ... .. 1 ... ... ... : ... .. . ... ... ... : ... .. . ... ... ... : ... .. . P83 ... ... : ... .. . ... ... ... : ... .. . ... ... ... : ... .. . ... ... ... : ... .. . ... ... ... : ... .. . ... ... ... : ... .. . ... ... ...
ROW 15 : ... .. . ... ... ... : ... .. . ... ... ... : ... .. . ... ... ... : ... .. . ... ... ... : ... .. . ... ... ... : ... .. . ... ... ... : C-3 05 . P7E ... ... : ... .. 2 ... ... ... : ... .. . ... ... ... : ... .. . ... ... ... : ... .. . ... ... ... : ... .. . ... ... ... : ... .. . ... ... ...
ROW 16 : ... .. . ... ... ... : ... .. . ... ... ... : ... .. . ... ... ... : --- .. . ... ... ... : ... .. . ... ... ... : --- .. . ... ... ... : --- .. . ... ... ... : --- .. . ... ... ... : --- .. . ... ... ... : ... .. . ... ... ... : ... .. . ... ... ... : ... .. . ... ... ... : ... .. . ... ... ...
ROW 17 : ... .. . ... ... ... : ... .. . ... ... ... : ... .. . ... ... ... : ... .. . ... ... ... : ... .. . ... ... ... : ... .. . ... ... ... : ... .. . P80 ... ... : ... .. . P80 ... ... : ... .. . P80 ... ... : ... .. . ... ... ... : ... .. . ... ... ... : ... .. . ... ... ... : ... .. . ... ... ...
ROW 18 : ... .. . ... ... ... : C-4 02 . P80 ... ... : C#4 00 . P7F ... ... : 9-# 00 F ... ... ... : C#1 12 . ... ... ... : F#3 05 A ... ... ... : F#3 05 A P83 ... ... : F#3 05 9 P7E ... ... : D#3 05 9 P81 ... ... : ... .. . ... ... ... : ... .. . ... ... ... : ... .. . ... ... ... : ... .. . ... ... ...
ROW 19 : ... .. . ... ... ... : F-3 02 . ... ... ... : F#3 00 . P83 ... ... : 2-# 00 7 ... ... ... : ... .. . ... ... ... : ... .. . ... ... ... : ... .. . P84 ... ... : ... .. . ... ... ... : ... .. . ... ... ... : ... .. . ... ... ... : ... .. . ... ... ... : ... .. . ... ... ... : ... .. . ... ... ...
ROW 1A : ... .. . ... ... ... : A#2 02 . P81 ... ... : C#3 00 . P89 ... ... : 6-# 00 C ... ... ... : ... .. . ... ... ... : ... .. . ... ... ... : ... .. . ... ... ... : ... .. . ... ... ... : ... .. . ... ... ... : ... .. . ... ... ... : ... .. . ... ... ... : ... .. . ... ... ... : ... .. . ... ... ...
ROW 1B : ... .. . ... ... ... : D#2 02 . ... ... ... : A#2 00 . P75 ... ... : 7-# 00 8 ... ... ... : ... .. . ... ... ... : ... .. . ... ... ... : ... .. . P83 ... ... : ... .. . ... ... ... : ... .. . ... ... ... : ... .. . ... ... ... : ... .. . ... ... ... : ... .. . ... ... ... : ... .. . ... ... ...
ROW 1C : ... .. . ... ... ... : G#1 02 . ... ... ... : G-2 00 . P70 ... ... : 8-# 00 7 ... ... ... : ... .. . ... ... ... : --- .. . ... ... ... : --- .. . ... ... ... : --- .. . ... ... ... : --- .. . ... ... ... : ... .. . ... ... ... : ... .. . ... ... ... : ... .. . ... ... ... : ... .. . ... ... ...
ROW 1D : ... .. . ... ... ... : C#1 02 . ... ... ... : E-2 00 . P7C ... ... : ... .. 6 ... ... ... : ... .. . ... ... ... : ... .. . ... ... ... : ... .. . P80 ... ... : ... .. . P80 ... ... : ... .. . P80 ... ... : ... .. . ... ... ... : ... .. . ... ... ... : ... .. . ... ... ... : ... .. . ... ... ...
ROW 1E : ... .. . ... ... ... : ... .. . ... ... ... : --- .. . ... ... ... : ... .. . ... ... ... : ... .. . ... ... ... : F#3 05 4 ... ... ... : F#3 05 4 P84 ... ... : F#3 05 3 P7E ... ... : D#3 05 3 P81 ... ... : ... .. . ... ... ... : ... .. . ... ... ... : ... .. . ... ... ... : ... .. . ... ... ...
ROW 1F : ... .. . ... ... ... : ... .. . ... ... ... : ... .. . ... ... ... : ... .. 5 ... ... ... : ... .. . ... ... ... : ... .. . ... ... ... : ... .. . P83 ... ... : ... .. . ... ... ... : ... .. . ... ... ... : ... .. . ... ... ... : ... .. . ... ... ... : ... .. . ... ... ... : ... .. . ... ... ...
ROW 20 : ... .. . ... ... ... : ... .. . ... ... ... : ... .. . ... ... ... : ... .. . ... ... ... : ... .. . ... ... ... : ... .. . ... ... ... : ... .. . P82 ... ... : ... .. . ... ... ... : ... .. . ... ... ... : ... .. . ... ... ... : ... .. . ... ... ... : ... .. . ... ... ... : ... .. . ... ... ...
ROW 21 : ... .. . ... ... ... : ... .. . ... ... ... : ... .. . ... ... ... : ... .. 4 ... ... ... : ... .. . ... ... ... : ... .. . ... ... ... : ... .. . P83 ... ... : ... .. . ... ... ... : ... .. . ... ... ... : ... .. . ... ... ... : ... .. . ... ... ... : ... .. . ... ... ... : ... .. . ... ... ...
ROW 22 : ... .. . ... ... ... : ... .. . ... ... ... : ... .. . ... ... ... : ... .. . ... ... ... : ... .. . ... ... ... : --- .. . ... ... ... : --- .. . ... ... ... : --- .. . ... ... ... : --- .. . ... ... ... : ... .. . ... ... ... : ... .. . ... ... ... : ... .. . ... ... ... : ... .. . ... ... ...
ROW 23 : ... .. . ... ... ... : ... .. . ... ... ... : ... .. . ... ... ... : ... .. 3 ... ... ... : ... .. . ... ... ... : ... .. . ... ... ... : ... .. . P80 ... ... : ... .. . P80 ... ... : ... .. . P80 ... ... : ... .. . ... ... ... : ... .. . ... ... ... : ... .. . ... ... ... : ... .. . ... ... ...
ROW 24 : ... .. . ... ... ... : ... .. . ... ... ... : ... .. . ... ... ... : D-# 00 A ... ... ... : ... .. . ... ... ... : B-3 05 A ... ... ... : B-3 05 A P82 ... ... : B-3 05 9 P7E ... ... : F#3 05 9 P81 ... ... : ... .. . ... ... ... : ... .. . ... ... ... : ... .. . ... ... ... : ... .. . ... ... ...
ROW 25 : ... .. . ... ... ... : ... .. . ... ... ... : ... .. . ... ... ... : E-# 00 4 ... ... ... : ... .. . ... ... ... : ... .. . ... ... ... : ... .. . P83 ... ... : ... .. . ... ... ... : ... .. . ... ... ... : ... .. . ... ... ... : ... .. . ... ... ... : ... .. . ... ... ... : ... .. . ... ... ...
ROW 26 : ... .. . ... ... ... : ... .. . ... ... ... : ... .. . ... ... ... : D-# 00 2 ... ... ... : ... .. . ... ... ... : ... .. . ... ... ... : ... .. . P84 ... ... : ... .. . ... ... ... : ... .. . ... ... ... : ... .. . ... ... ... : ... .. . ... ... ... : ... .. . ... ... ... : ... .. . ... ... ...
ROW 27 : ... .. . ... ... ... : ... .. . ... ... ... : ... .. . ... ... ... : ... .. 1 ... ... ... : ... .. . ... ... ... : ... .. . ... ... ... : ... .. . ... ... ... : ... .. . ... ... ... : ... .. . ... ... ... : ... .. . ... ... ... : ... .. . ... ... ... : ... .. . ... ... ... : ... .. . ... ... ...
ROW 28 : ... .. . ... ... ... : ... .. . ... ... ... : ... .. . ... ... ... : ... .. . ... ... ... : ... .. . ... ... ... : --- .. . ... ... ... : --- .. . ... ... ... : --- .. . ... ... ... : --- .. . ... ... ... : ... .. . ... ... ... : ... .. . ... ... ... : ... .. . ... ... ... : ... .. . ... ... ...
ROW 29 : ... .. . ... ... ... : ... .. . ... ... ... : ... .. . ... ... ... : --- .. . ... ... ... : ... .. . ... ... ... : ... .. . ... ... ... : ... .. . P80 ... ... : ... .. . P80 ... ... : ... .. . P80 ... ... : ... .. . ... ... ... : ... .. . ... ... ... : ... .. . ... ... ... : ... .. . ... ... ...
ROW 2A : ... .. . ... ... ... : ... .. . ... ... ... : ... .. . ... ... ... : D-# 00 A ... ... ... : ... .. . ... ... ... : B-3 05 4 ... ... ... : B-3 05 . P84 ... ... : B-3 05 . P7E ... ... : F#3 05 . P81 ... ... : ... .. . ... ... ... : ... .. . ... ... ... : ... .. . ... ... ... : ... .. . ... ... ...
ROW 2B : ... .. . ... ... ... : ... .. . ... ... ... : ... .. . ... ... ... : E-# 00 4 ... ... ... : ... .. . ... ... ... : ... .. . ... ... ... : ... .. . ... ... ... : ... .. . ... ... ... : ... .. . ... ... ... : ... .. . ... ... ... : ... .. . ... ... ... : ... .. . ... ... ... : ... .. . ... ... ...
ROW 2C : ... .. . ... ... ... : ... .. . ... ... ... : ... .. . ... ... ... : D-# 00 2 ... ... ... : ... .. . ... ... ... : ... .. . ... ... ... : ... .. . P83 ... ... : ... .. . ... ... ... : ... .. . ... ... ... : ... .. . ... ... ... : ... .. . ... ... ... : ... .. . ... ... ... : ... .. . ... ... ...
ROW 2D : ... .. . ... ... ... : ... .. . ... ... ... : ... .. . ... ... ... : ... .. 1 ... ... ... : ... .. . ... ... ... : ... .. . ... ... ... : ... .. . P82 ... ... : ... .. . ... ... ... : ... .. . ... ... ... : ... .. . ... ... ... : ... .. . ... ... ... : ... .. . ... ... ... : ... .. . ... ... ...
ROW 2E : ... .. . ... ... ... : ... .. . ... ... ... : ... .. . ... ... ... : ... .. . ... ... ... : ... .. . ... ... ... : ... .. . ... ... ... : ... .. . P83 ... ... : ... .. 8 ... ... ... : ... .. . ... ... ... : ... .. . ... ... ... : ... .. . ... ... ... : ... .. . ... ... ... : ... .. . ... ... ...
ROW 2F : ... .. . ... ... ... : ... .. . ... ... ... : ... .. . ... ... ... : --- .. . ... ... ... : ... .. . ... ... ... : --- .. . ... ... ... : --- .. . ... ... ... : --- .. . ... ... ... : --- .. . ... ... ... : ... .. . ... ... ... : ... .. . ... ... ... : ... .. . ... ... ... : ... .. . ... ... ...
ROW 30 : ... .. . ... ... ... : ... .. . ... ... ... : ... .. . ... ... ... : ... .. . ... ... ... : ... .. . ... ... ... : ... .. . ... ... ... : ... .. . P80 ... ... : ... .. . P80 ... ... : ... .. . P80 ... ... : ... .. . ... ... ... : ... .. . ... ... ... : ... .. . ... ... ... : ... .. . ... ... ...
ROW 31 : ... .. . ... ... ... : C-4 02 . P80 ... ... : F#3 00 . P78 ... ... : 1-# 00 F ... ... ... : C-1 12 . ... ... ... : D#2 06 F ... ... ... : D#2 06 F ... ... ... : ... .. . ... ... ... : D#2 06 E P7F ... ... : D#3 06 B P81 ... ... : ... .. . ... ... ... : ... .. . ... ... ... : ... .. . ... ... ...
ROW 32 : ... .. . ... ... ... : F-3 02 . ... ... ... : C#3 00 . P7E ... ... : 2-# 00 7 ... ... ... : ... .. . ... ... ... : ... .. . ... ... ... : ... .. . P81 ... ... : ... .. . ... ... ... : ... .. . ... ... ... : ... .. . ... ... ... : ... .. . ... ... ... : ... .. . ... ... ... : ... .. . ... ... ...
ROW 33 : ... .. . ... ... ... : A#2 02 . P81 ... ... : A-2 00 . P86 ... ... : 1-# 00 4 ... ... ... : ... .. . ... ... ... : ... .. . ... ... ... : D-2 06 . P7F ... ... : ... .. . ... ... ... : ... .. . ... ... ... : ... .. . ... ... ... : ... .. . ... ... ... : ... .. . ... ... ... : ... .. . ... ... ...
ROW 34 : ... .. . ... ... ... : D#2 02 . ... ... ... : --- .. . ... ... ... : ... .. 2 ... ... ... : ... .. . ... ... ... : D#2 09 . ... ... ... : D#2 09 . P81 ... ... : ... .. . ... ... ... : D#2 09 . ... ... ... : D#3 09 . ... ... ... : ... .. . ... ... ... : ... .. . ... ... ... : ... .. . ... ... ...
ROW 35 : ... .. . ... ... ... : G#1 02 . ... ... ... : ... .. . ... ... ... : ... .. 1 ... ... ... : ... .. . ... ... ... : ... .. . ... ... ... : ... .. . P80 ... ... : ... .. . ... ... ... : ... .. . ... ... ... : ... .. A ... ... ... : ... .. . ... ... ... : ... .. . ... ... ... : ... .. . ... ... ...
ROW 36 : ... .. . ... ... ... : C#1 02 . ... ... ... : ... .. . ... ... ... : --- .. . ... ... ... : ... .. . ... ... ... : ... .. . ... ... ... : ... .. . P81 ... ... : ... .. . ... ... ... : ... .. . ... ... ... : ... .. . ... ... ... : ... .. . ... ... ... : ... .. . ... ... ... : ... .. . ... ... ...
ROW 37 : ... .. . ... ... ... : ... .. . ... ... ... : ... .. . ... ... ... : ... .. . ... ... ... : ... .. . ... ... ... : D#2 06 . ... ... ... : D#2 06 . P82 ... ... : ... .. . ... ... ... : D#2 06 . ... ... ... : D#3 06 . ... ... ... : ... .. . ... ... ... : ... .. . ... ... ... : ... .. . ... ... ...
ROW 38 : ... .. . ... ... ... : ... .. . ... ... ... : ... .. . ... ... ... : ... .. . ... ... ... : ... .. . ... ... ... : ... .. . ... ... ... : ... .. . ... ... ... : ... .. . ... ... ... : ... .. . ... ... ... : ... .. . ... ... ... : ... .. . ... ... ... : ... .. . ... ... ... : ... .. . ... ... ...
ROW 39 : ... .. . ... ... ... : ... .. . ... ... ... : ... .. . ... ... ... : ... .. . ... ... ... : ... .. . ... ... ... : ... .. . ... ... ... : ... .. . P81 ... ... : ... .. . ... ... ... : ... .. D ... ... ... : ... .. 9 ... ... ... : ... .. . ... ... ... : ... .. . ... ... ... : ... .. . ... ... ...
ROW 3A : ... .. . ... ... ... : ... .. . ... ... ... : ... .. . ... ... ... : ... .. . ... ... ... : ... .. . ... ... ... : D#2 09 . ... ... ... : D#2 09 . P80 ... ... : ... .. . ... ... ... : D#2 09 . ... ... ... : D#3 09 . ... ... ... : ... .. . ... ... ... : ... .. . ... ... ... : ... .. . ... ... ...
ROW 3B : ... .. . ... ... ... : ... .. . ... ... ... : ... .. . ... ... ... : ... .. . ... ... ... : ... .. . ... ... ... : ... .. . ... ... ... : ... .. . P81 ... ... : ... .. . ... ... ... : ... .. . ... ... ... : ... .. . ... ... ... : ... .. . ... ... ... : ... .. . ... ... ... : ... .. . ... ... ...
ROW 3C : ... .. . ... ... ... : ... .. . ... ... ... : ... .. . ... ... ... : ... .. . ... ... ... : ... .. . ... ... ... : ... .. . ... ... ... : D-2 09 . P7F ... ... : ... .. . ... ... ... : ... .. . ... ... ... : ... .. . ... ... ... : ... .. . ... ... ... : ... .. . ... ... ... : ... .. . ... ... ...
ROW 3D : ... .. . ... ... ... : ... .. . ... ... ... : ... .. . ... ... ... : D-# 00 A ... ... ... : ... .. . ... ... ... : D#2 06 . ... ... ... : D#2 06 . P81 ... ... : ... .. . ... ... ... : D#2 06 . ... ... ... : D#3 06 8 ... ... ... : ... .. . ... ... ... : ... .. . ... ... ... : ... .. . ... ... ...
ROW 3E : ... .. . ... ... ... : ... .. . ... ... ... : ... .. . ... ... ... : E-# 00 4 ... ... ... : ... .. . ... ... ... : ... .. . ... ... ... : ... .. . P80 ... ... : ... .. . ... ... ... : ... .. . ... ... ... : ... .. . ... ... ... : ... .. . ... ... ... : ... .. . ... ... ... : ... .. . ... ... ...
ROW 3F : ... .. . ... ... ... : ... .. . ... ... ... : ... .. . ... ... ... : D-# 00 2 ... ... ... : ... .. . ... ... ... : ... .. . ... ... ... : ... .. . P81 ... ... : ... .. . ... ... ... : ... .. . ... ... ... : ... .. . ... ... ... : ... .. . ... ... ... : ... .. . ... ... ... : ... .. . ... ... ...
ROW 40 : ... .. . ... ... ... : ... .. . ... ... ... : ... .. . ... ... ... : ... .. 1 ... ... ... : ... .. . ... ... ... : D#2 09 . ... ... ... : D-2 09 . P7F ... ... : ... .. . ... ... ... : D#2 09 . ... ... ... : D#3 09 . ... ... ... : ... .. . ... ... ... : ... .. . ... ... ... : ... .. . ... ... ...
ROW 41 : ... .. . ... ... ... : ... .. . ... ... ... : ... .. . ... ... ... : ... .. . ... ... ... : ... .. . ... ... ... : ... .. . ... ... ... : D#2 09 . P81 ... ... : ... .. . ... ... ... : ... .. C ... ... ... : ... .. 7 ... ... ... : ... .. . ... ... ... : ... .. . ... ... ... : ... .. . ... ... ...
ROW 42 : ... .. . ... ... ... : ... .. . ... ... ... : ... .. . ... ... ... : --- .. . ... ... ... : ... .. . ... ... ... : ... .. . ... ... ... : ... .. . P80 ... ... : ... .. . ... ... ... : ... .. . ... ... ... : ... .. . ... ... ... : ... .. . ... ... ... : ... .. . ... ... ... : ... .. . ... ... ...
ROW 43 : ... .. . ... ... ... : ... .. . ... ... ... : ... .. . ... ... ... : D-# 00 A ... ... ... : ... .. . ... ... ... : D#2 06 . ... ... ... : D#2 06 . P81 ... ... : ... .. . ... ... ... : D#2 06 . ... ... ... : D#3 06 . ... ... ... : ... .. . ... ... ... : ... .. . ... ... ... : ... .. . ... ... ...
ROW 44 : ... .. . ... ... ... : ... .. . ... ... ... : ... .. . ... ... ... : E-# 00 4 ... ... ... : ... .. . ... ... ... : ... .. . ... ... ... : D-2 06 . P7F ... ... : ... .. . ... ... ... : ... .. . ... ... ... : ... .. . ... ... ... : ... .. . ... ... ... : ... .. . ... ... ... : ... .. . ... ... ...
ROW 45 : ... .. . ... ... ... : ... .. . ... ... ... : ... .. . ... ... ... : D-# 00 2 ... ... ... : ... .. . ... ... ... : ... .. . ... ... ... : D#2 06 . P82 ... ... : ... .. . ... ... ... : ... .. . ... ... ... : ... .. 6 ... ... ... : ... .. . ... ... ... : ... .. . ... ... ... : ... .. . ... ... ...
ROW 46 : ... .. . ... ... ... : ... .. . ... ... ... : ... .. . ... ... ... : ... .. 1 ... ... ... : ... .. . ... ... ... : D#2 09 . ... ... ... : D#2 09 . P81 ... ... : ... .. . ... ... ... : D#2 09 . ... ... ... : D#3 09 . ... ... ... : ... .. . ... ... ... : ... .. . ... ... ... : ... .. . ... ... ...
ROW 47 : ... .. . ... ... ... : ... .. . ... ... ... : ... .. . ... ... ... : ... .. . ... ... ... : ... .. . ... ... ... : ... .. . ... ... ... : ... .. . ... ... ... : ... .. . ... ... ... : ... .. . ... ... ... : ... .. . ... ... ... : ... .. . ... ... ... : ... .. . ... ... ... : ... .. . ... ... ...
ROW 48 : ... .. . ... ... ... : ... .. . ... ... ... : ... .. . ... ... ... : --- .. . ... ... ... : ... .. . ... ... ... : ... .. . ... ... ... : ... .. . P82 ... ... : ... .. . ... ... ... : ... .. . ... ... ... : ... .. . ... ... ... : ... .. . ... ... ... : ... .. . ... ... ... : ... .. . ... ... ...
ROW 49 : ... .. . ... ... ... : ... .. . ... ... ... : ... .. . ... ... ... : ... .. . ... ... ... : ... .. . ... ... ... : ... .. . ... ... ... : ... .. . ... ... ... : ... .. . ... ... ... : ... .. B ... ... ... : ... .. 5 ... ... ... : ... .. . ... ... ... : ... .. . ... ... ... : ... .. . ... ... ...
ROW 4A : ... .. . ... ... ... : C-4 02 . P80 ... ... : C#4 00 . P7F ... ... : 9-# 00 F ... ... ... : C#1 12 . ... ... ... : D-2 06 . ... ... ... : D-2 06 . P81 ... ... : ... .. . ... ... ... : D-2 06 . ... ... ... : D-3 06 . ... ... ... : ... .. . ... ... ... : ... .. . ... ... ... : ... .. . ... ... ...
ROW 4B : ... .. . ... ... ... : F-3 02 . ... ... ... : F#3 00 . P83 ... ... : 2-# 00 7 ... ... ... : ... .. . ... ... ... : ... .. . ... ... ... : ... .. . P80 ... ... : ... .. . ... ... ... : ... .. . ... ... ... : ... .. . ... ... ... : ... .. . ... ... ... : ... .. . ... ... ... : ... .. . ... ... ...
ROW 4C : ... .. . ... ... ... : A#2 02 . P81 ... ... : C#3 00 . P89 ... ... : 6-# 00 C ... ... ... : ... .. . ... ... ... : ... .. . ... ... ... : ... .. . P81 ... ... : ... .. . ... ... ... : ... .. . ... ... ... : ... .. . ... ... ... : ... .. . ... ... ... : ... .. . ... ... ... : ... .. . ... ... ...
ROW 4D : ... .. . ... ... ... : D#2 02 . ... ... ... : A#2 00 . P75 ... ... : 7-# 00 8 ... ... ... : ... .. . ... ... ... : D-2 07 . ... ... ... : C#2 07 . P7F ... ... : ... .. . ... ... ... : D-2 07 . ... ... ... : D-3 07 4 ... ... ... : ... .. . ... ... ... : ... .. . ... ... ... : ... .. . ... ... ...
ROW 4E : ... .. . ... ... ... : G#1 02 . ... ... ... : G-2 00 . P70 ... ... : 8-# 00 7 ... ... ... : ... .. . ... ... ... : ... .. . ... ... ... : D-2 07 . P81 ... ... : ... .. . ... ... ... : ... .. . ... ... ... : ... .. . ... ... ... : ... .. . ... ... ... : ... .. . ... ... ... : ... .. . ... ... ...
ROW 4F : ... .. . ... ... ... : C#1 02 . ... ... ... : E-2 00 . P7C ... ... : ... .. 6 ... ... ... : ... .. . ... ... ... : ... .. . ... ... ... : ... .. . P80 ... ... : ... .. . ... ... ... : ... .. . ... ... ... : ... .. . ... ... ... : ... .. . ... ... ... : ... .. . ... ... ... : ... .. . ... ... ...
ROW 50 : ... .. . ... ... ... : ... .. . ... ... ... : --- .. . ... ... ... : ... .. . ... ... ... : ... .. . ... ... ... : D-2 08 . ... ... ... : D-2 08 . P81 ... ... : ... .. . ... ... ... : D-2 08 . ... ... ... : D-3 08 . ... ... ... : ... .. . ... ... ... : ... .. . ... ... ... : ... .. . ... ... ...
ROW 51 : ... .. . ... ... ... : ... .. . ... ... ... : ... .. . ... ... ... : ... .. 5 ... ... ... : ... .. . ... ... ... : ... .. . ... ... ... : C#2 08 . P7F ... ... : ... .. . ... ... ... : ... .. A ... ... ... : ... .. 3 ... ... ... : ... .. . ... ... ... : ... .. . ... ... ... : ... .. . ... ... ...
ROW 52 : ... .. . ... ... ... : ... .. . ... ... ... : ... .. . ... ... ... : ... .. . ... ... ... : ... .. . ... ... ... : ... .. . ... ... ... : D-2 08 . P81 ... ... : ... .. . ... ... ... : ... .. . ... ... ... : ... .. . ... ... ... : ... .. . ... ... ... : ... .. . ... ... ... : ... .. . ... ... ...
ROW 53 : ... .. . ... ... ... : ... .. . ... ... ... : ... .. . ... ... ... : ... .. 4 ... ... ... : ... .. . ... ... ... : D-2 09 . ... ... ... : D-2 09 . P80 ... ... : ... .. . ... ... ... : D-2 09 . ... ... ... : D-3 09 . ... ... ... : ... .. . ... ... ... : ... .. . ... ... ... : ... .. . ... ... ...
ROW 54 : ... .. . ... ... ... : ... .. . ... ... ... : ... .. . ... ... ... : ... .. . ... ... ... : ... .. . ... ... ... : ... .. . ... ... ... : ... .. . P81 ... ... : ... .. . ... ... ... : ... .. . ... ... ... : ... .. . ... ... ... : ... .. . ... ... ... : ... .. . ... ... ... : ... .. . ... ... ...
ROW 55 : ... .. . ... ... ... : ... .. . ... ... ... : ... .. . ... ... ... : ... .. 3 ... ... ... : ... .. . ... ... ... : ... .. . ... ... ... : C#2 09 . P7F ... ... : ... .. . ... ... ... : ... .. . ... ... ... : ... .. 2 ... ... ... : ... .. . ... ... ... : ... .. . ... ... ... : ... .. . ... ... ...
ROW 56 : ... .. . ... ... ... : F-3 02 . P80 ... ... : C#4 00 . P7F ... ... : 1-# 00 F ... ... ... : C-1 12 . ... ... ... : --- .. . ... ... ... : --- .. . ... ... ... : ... .. . ... ... ... : --- .. . ... ... ... : --- .. . ... ... ... : ... .. . ... ... ... : ... .. . ... ... ... : ... .. . ... ... ...
ROW 57 : ... .. . ... ... ... : A#2 02 . P81 ... ... : F#3 00 . P83 ... ... : 2-# 00 7 ... ... ... : ... .. . ... ... ... : ... .. . ... ... ... : ... .. . P80 ... ... : ... .. . ... ... ... : ... .. . P80 ... ... : ... .. . P80 ... ... : ... .. . ... ... ... : ... .. . ... ... ... : ... .. . ... ... ...
ROW 58 : ... .. . ... ... ... : D#2 02 . ... ... ... : C#3 00 . P89 ... ... : 1-# 00 4 ... ... ... : ... .. . ... ... ... : ... .. . ... ... ... : ... .. . ... ... ... : ... .. . ... ... ... : ... .. . ... ... ... : ... .. . ... ... ... : ... .. . ... ... ... : ... .. . ... ... ... : ... .. . ... ... ...
ROW 59 : ... .. . ... ... ... : G#1 02 . ... ... ... : A#2 00 . P75 ... ... : ... .. 2 ... ... ... : ... .. . ... ... ... : ... .. . ... ... ... : ... .. . ... ... ... : ... .. . ... ... ... : ... .. . ... ... ... : ... .. . ... ... ... : ... .. . ... ... ... : ... .. . ... ... ... : ... .. . ... ... ...
ROW 5A : ... .. . ... ... ... : C#1 02 . ... ... ... : G-2 00 . P70 ... ... : ... .. 1 ... ... ... : ... .. . ... ... ... : ... .. . ... ... ... : ... .. . ... ... ... : ... .. . ... ... ... : ... .. . ... ... ... : ... .. . ... ... ... : ... .. . ... ... ... : ... .. . ... ... ... : ... .. . ... ... ...
ROW 5B : ... .. . ... ... ... : ... .. . ... ... ... : E-2 00 . P7C ... ... : --- .. . ... ... ... : ... .. . ... ... ... : ... .. . ... ... ... : ... .. . ... ... ... : ... .. . ... ... ... : ... .. . ... ... ... : ... .. . ... ... ... : ... .. . ... ... ... : ... .. . ... ... ... : ... .. . ... ... ...
ROW 5C : ... .. . ... ... ... : ... .. . ... ... ... : D-2 00 . P6F ... ... : ... .. . ... ... ... : ... .. . ... ... ... : ... .. . ... ... ... : ... .. . ... ... ... : ... .. . ... ... ... : ... .. . ... ... ... : ... .. . ... ... ... : ... .. . ... ... ... : ... .. . ... ... ... : ... .. . ... ... ...
ROW 5D : ... .. . ... ... ... : ... .. . ... ... ... : C-2 00 . P6C ... ... : ... .. . ... ... ... : ... .. . ... ... ... : ... .. . ... ... ... : ... .. . ... ... ... : ... .. . ... ... ... : ... .. . ... ... ... : ... .. . ... ... ... : ... .. . ... ... ... : ... .. . ... ... ... : ... .. . ... ... ...
ROW 5E : ... .. . ... ... ... : ... .. . ... ... ... : A#1 00 . P75 ... ... : ... .. . ... ... ... : ... .. . ... ... ... : ... .. . ... ... ... : ... .. . ... ... ... : ... .. . ... ... ... : ... .. . ... ... ... : ... .. . ... ... ... : ... .. . ... ... ... : ... .. . ... ... ... : ... .. . ... ... ...
ROW 5F : ... .. . ... ... ... : ... .. . ... ... ... : G#1 00 . P8A ... ... : ... .. . ... ... ... : ... .. . ... ... ... : C-2 07 . ... ... ... : C-2 07 . P81 ... ... : ... .. . ... ... ... : ... .. . ... ... ... : ... .. . ... ... ... : ... .. . ... ... ... : ... .. . ... ... ... : ... .. . ... ... ...
ROW 60 : ... .. . ... ... ... : ... .. . ... ... ... : G-1 00 . P6A ... ... : ... .. . ... ... ... : ... .. . ... ... ... : ... .. . ... ... ... : ... .. . P80 ... ... : ... .. . ... ... ... : ... .. . ... ... ... : ... .. . ... ... ... : ... .. . ... ... ... : ... .. . ... ... ... : ... .. . ... ... ...
ROW 61 : ... .. . ... ... ... : ... .. . ... ... ... : F-1 00 . P96 ... ... : ... .. . ... ... ... : ... .. . ... ... ... : ... .. . ... ... ... : ... .. . P81 ... ... : ... .. . ... ... ... : ... .. . ... ... ... : ... .. . ... ... ... : ... .. . ... ... ... : ... .. . ... ... ... : ... .. . ... ... ...
ROW 62 : ... .. . ... ... ... : ... .. . ... ... ... : E-1 00 . P82 ... ... : ... .. . ... ... ... : ... .. . ... ... ... : ... .. . ... ... ... : B-1 07 . P7F ... ... : ... .. . ... ... ... : ... .. . ... ... ... : ... .. . ... ... ... : ... .. . ... ... ... : ... .. . ... ... ... : ... .. . ... ... ...
ROW 63 : ... .. . ... ... ... : C-4 02 . P80 ... ... : F#3 00 . P78 ... ... : 1-# 00 F ... ... ... : C-1 12 . ... ... ... : C#2 06 . ... ... ... : C#2 06 . P81 ... ... : ... .. . ... ... ... : C#2 06 8 P7F ... ... : ... .. . ... ... ... : ... .. . ... ... ... : ... .. . ... ... ... : ... .. . ... ... ...
ROW 64 : ... .. . ... ... ... : F-3 02 . ... ... ... : C#3 00 . P7E ... ... : 2-# 00 7 ... ... ... : ... .. . ... ... ... : ... .. . ... ... ... : ... .. . P80 ... ... : ... .. . ... ... ... : ... .. . ... ... ... : ... .. . ... ... ... : ... .. . ... ... ... : ... .. . ... ... ... : ... .. . ... ... ...
ROW 65 : ... .. . ... ... ... : A#2 02 . P81 ... ... : A-2 00 . P86 ... ... : 1-# 00 4 ... ... ... : ... .. . ... ... ... : ... .. . ... ... ... : ... .. . P81 ... ... : ... .. . ... ... ... : ... .. . ... ... ... : ... .. . ... ... ... : ... .. . ... ... ... : ... .. . ... ... ... : ... .. . ... ... ...
ROW 66 : ... .. . ... ... ... : D#2 02 . ... ... ... : --- .. . ... ... ... : ... .. 2 ... ... ... : ... .. . ... ... ... : C#2 09 . ... ... ... : C#2 09 . P82 ... ... : ... .. . ... ... ... : C#2 09 . ... ... ... : ... .. . ... ... ... : ... .. . ... ... ... : ... .. . ... ... ... : ... .. . ... ... ...
ROW 67 : ... .. . ... ... ... : G#1 02 . ... ... ... : ... .. . ... ... ... : ... .. 1 ... ... ... : ... .. . ... ... ... : ... .. . ... ... ... : ... .. . ... ... ... : ... .. . ... ... ... : ... .. . ... ... ... : ... .. . ... ... ... : ... .. . ... ... ... : ... .. . ... ... ... : ... .. . ... ... ...
ROW 68 : ... .. . ... ... ... : C#1 02 . ... ... ... : ... .. . ... ... ... : --- .. . ... ... ... : ... .. . ... ... ... : ... .. . ... ... ... : ... .. . P81 ... ... : ... .. . ... ... ... : ... .. . ... ... ... : ... .. . ... ... ... : ... .. . ... ... ... : ... .. . ... ... ... : ... .. . ... ... ...
ROW 69 : ... .. . ... ... ... : ... .. . ... ... ... : ... .. . ... ... ... : ... .. . ... ... ... : ... .. . ... ... ... : C#2 06 . ... ... ... : C#2 06 . ... ... ... : ... .. . ... ... ... : C#2 06 7 ... ... ... : ... .. . ... ... ... : ... .. . ... ... ... : ... .. . ... ... ... : ... .. . ... ... ...
ROW 6A : ... .. . ... ... ... : ... .. . ... ... ... : ... .. . ... ... ... : ... .. . ... ... ... : ... .. . ... ... ... : ... .. . ... ... ... : ... .. . P82 ... ... : ... .. . ... ... ... : ... .. . ... ... ... : ... .. . ... ... ... : ... .. . ... ... ... : ... .. . ... ... ... : ... .. . ... ... ...
ROW 6B : ... .. . ... ... ... : ... .. . ... ... ... : ... .. . ... ... ... : ... .. . ... ... ... : ... .. . ... ... ... : ... .. . ... ... ... : C-2 06 . P7F ... ... : ... .. . ... ... ... : ... .. . ... ... ... : ... .. . ... ... ... : ... .. . ... ... ... : ... .. . ... ... ... : ... .. . ... ... ...
ROW 6C : ... .. . ... ... ... : ... .. . ... ... ... : ... .. . ... ... ... : ... .. . ... ... ... : ... .. . ... ... ... : C#2 09 . ... ... ... : C#2 09 . P81 ... ... : ... .. . ... ... ... : C#2 09 . ... ... ... : ... .. . ... ... ... : ... .. . ... ... ... : ... .. . ... ... ... : ... .. . ... ... ...
ROW 6D : ... .. . ... ... ... : ... .. . ... ... ... : ... .. . ... ... ... : ... .. . ... ... ... : ... .. . ... ... ... : ... .. . ... ... ... : ... .. . P80 ... ... : ... .. . ... ... ... : ... .. . ... ... ... : ... .. . ... ... ... : ... .. . ... ... ... : ... .. . ... ... ... : ... .. . ... ... ...
ROW 6E : ... .. . ... ... ... : ... .. . ... ... ... : ... .. . ... ... ... : ... .. . ... ... ... : ... .. . ... ... ... : ... .. . ... ... ... : ... .. . P81 ... ... : ... .. . ... ... ... : ... .. . ... ... ... : ... .. . ... ... ... : ... .. . ... ... ... : ... .. . ... ... ... : ... .. . ... ... ...
ROW 6F : ... .. . ... ... ... : ... .. . ... ... ... : ... .. . ... ... ... : D-# 00 A ... ... ... : ... .. . ... ... ... : C#2 06 . ... ... ... : C-2 06 . P7F ... ... : ... .. . ... ... ... : C#2 06 . ... ... ... : ... .. . ... ... ... : ... .. . ... ... ... : ... .. . ... ... ... : ... .. . ... ... ...
ROW 70 : ... .. . ... ... ... : ... .. . ... ... ... : ... .. . ... ... ... : E-# 00 4 ... ... ... : ... .. . ... ... ... : ... .. . ... ... ... : C#2 06 . P81 ... ... : ... .. . ... ... ... : ... .. . ... ... ... : ... .. . ... ... ... : ... .. . ... ... ... : ... .. . ... ... ... : ... .. . ... ... ...
ROW 71 : ... .. . ... ... ... : ... .. . ... ... ... : ... .. . ... ... ... : D-# 00 2 ... ... ... : ... .. . ... ... ... : ... .. . ... ... ... : ... .. . P80 ... ... : ... .. . ... ... ... : ... .. 6 ... ... ... : ... .. . ... ... ... : ... .. . ... ... ... : ... .. . ... ... ... : ... .. . ... ... ...
ROW 72 : ... .. . ... ... ... : ... .. . ... ... ... : ... .. . ... ... ... : ... .. 1 ... ... ... : ... .. . ... ... ... : C#2 09 . ... ... ... : C#2 09 . P81 ... ... : ... .. . ... ... ... : C#2 09 . ... ... ... : ... .. . ... ... ... : ... .. . ... ... ... : ... .. . ... ... ... : ... .. . ... ... ...
ROW 73 : ... .. . ... ... ... : ... .. . ... ... ... : ... .. . ... ... ... : ... .. . ... ... ... : ... .. . ... ... ... : ... .. . ... ... ... : C-2 09 . P7F ... ... : ... .. . ... ... ... : ... .. . ... ... ... : ... .. . ... ... ... : ... .. . ... ... ... : ... .. . ... ... ... : ... .. . ... ... ...
ROW 74 : ... .. . ... ... ... : ... .. . ... ... ... : ... .. . ... ... ... : --- .. . ... ... ... : ... .. . ... ... ... : ... .. . ... ... ... : C#2 09 . P81 ... ... : ... .. . ... ... ... : ... .. . ... ... ... : ... .. . ... ... ... : ... .. . ... ... ... : ... .. . ... ... ... : ... .. . ... ... ...
ROW 75 : ... .. . ... ... ... : ... .. . ... ... ... : ... .. . ... ... ... : D-# 00 A ... ... ... : ... .. . ... ... ... : C#2 06 . ... ... ... : C#2 06 . P80 ... ... : ... .. . ... ... ... : C#2 06 . ... ... ... : ... .. . ... ... ... : ... .. . ... ... ... : ... .. . ... ... ... : ... .. . ... ... ...
ROW 76 : ... .. . ... ... ... : ... .. . ... ... ... : ... .. . ... ... ... : E-# 00 4 ... ... ... : ... .. . ... ... ... : ... .. . ... ... ... : ... .. . P81 ... ... : ... .. . ... ... ... : ... .. . ... ... ... : ... .. . ... ... ... : ... .. . ... ... ... : ... .. . ... ... ... : ... .. . ... ... ...
ROW 77 : ... .. . ... ... ... : ... .. . ... ... ... : ... .. . ... ... ... : D-# 00 2 ... ... ... : ... .. . ... ... ... : ... .. . ... ... ... : ... .. . P82 ... ... : ... .. . ... ... ... : ... .. . ... ... ... : ... .. . ... ... ... : ... .. . ... ... ... : ... .. . ... ... ... : ... .. . ... ... ...
ROW 78 : ... .. . ... ... ... : ... .. . ... ... ... : ... .. . ... ... ... : ... .. 1 ... ... ... : ... .. . ... ... ... : C#2 09 . ... ... ... : C#2 09 . ... ... ... : ... .. . ... ... ... : C#2 09 . ... ... ... : ... .. . ... ... ... : ... .. . ... ... ... : ... .. . ... ... ... : ... .. . ... ... ...
ROW 79 : ... .. . ... ... ... : ... .. . ... ... ... : ... .. . ... ... ... : ... .. . ... ... ... : ... .. . ... ... ... : ... .. . ... ... ... : ... .. . P81 ... ... : ... .. . ... ... ... : ... .. 5 ... ... ... : ... .. . ... ... ... : ... .. . ... ... ... : ... .. . ... ... ... : ... .. . ... ... ...
ROW 7A : ... .. . ... ... ... : ... .. . ... ... ... : ... .. . ... ... ... : --- .. . ... ... ... : ... .. . ... ... ... : ... .. . ... ... ... : ... .. . P80 ... ... : ... .. . ... ... ... : ... .. . ... ... ... : ... .. . ... ... ... : ... .. . ... ... ... : ... .. . ... ... ... : ... .. . ... ... ...
ROW 7B : ... .. . ... ... ... : ... .. . ... ... ... : ... .. . ... ... ... : ... .. . ... ... ... : ... .. . ... ... ... : ... .. . ... ... ... : ... .. . P81 ... ... : ... .. . ... ... ... : ... .. . ... ... ... : ... .. . ... ... ... : ... .. . ... ... ... : ... .. . ... ... ... : ... .. . ... ... ...
ROW 7C : ... .. . ... ... ... : C-4 02 . P80 ... ... : C#4 00 . P7F ... ... : 9-# 00 F ... ... ... : C#1 12 . ... ... ... : G-1 06 . ... ... ... : F#1 06 . P80 ... ... : ... .. . ... ... ... : G-1 06 . ... ... ... : ... .. . ... ... ... : ... .. . ... ... ... : ... .. . ... ... ... : ... .. . ... ... ...
ROW 7D : ... .. . ... ... ... : F-3 02 . ... ... ... : F#3 00 . P83 ... ... : 2-# 00 7 ... ... ... : ... .. . ... ... ... : ... .. . ... ... ... : G-1 06 . P81 ... ... : ... .. . ... ... ... : ... .. . ... ... ... : ... .. . ... ... ... : ... .. . ... ... ... : ... .. . ... ... ... : ... .. . ... ... ...
ROW 7E : ... .. . ... ... ... : A#2 02 . P81 ... ... : C#3 00 . P89 ... ... : 6-# 00 C ... ... ... : ... .. . ... ... ... : ... .. . ... ... ... : ... .. . P80 ... ... : ... .. . ... ... ... : ... .. . ... ... ... : ... .. . ... ... ... : ... .. . ... ... ... : ... .. . ... ... ... : ... .. . ... ... ...
ROW 7F : ... .. . ... ... ... : D#2 02 . ... ... ... : A#2 00 . P75 ... ... : 7-# 00 8 ... ... ... : ... .. . ... ... ... : ... .. . ... ... ... : ... .. . P81 ... ... : ... .. . ... ... ... : ... .. . ... ... ... : ... .. . ... ... ... : ... .. . ... ... ... : ... .. . ... ... ... : ... .. . ... ... ...
ROW 80 : ... .. . ... ... ... : G#1 02 . ... ... ... : G-2 00 . P70 ... ... : 8-# 00 7 ... ... ... : ... .. . ... ... ... : ... .. . ... ... ... : F#1 06 . P80 ... ... : ... .. . ... ... ... : ... .. . ... ... ... : ... .. . ... ... ... : ... .. . ... ... ... : ... .. . ... ... ... : ... .. . ... ... ...
ROW 81 : ... .. . ... ... ... : C#1 02 . ... ... ... : E-2 00 . P7C ... ... : ... .. 6 ... ... ... : ... .. . ... ... ... : ... .. . ... ... ... : G-1 06 . P81 ... ... : ... .. . ... ... ... : ... .. 4 ... ... ... : ... .. . ... ... ... : ... .. . ... ... ... : ... .. . ... ... ... : ... .. . ... ... ...
ROW 82 : ... .. . ... ... ... : ... .. . ... ... ... : --- .. . ... ... ... : ... .. . ... ... ... : ... .. . ... ... ... : G-1 07 . ... ... ... : G-1 07 . P80 ... ... : ... .. . ... ... ... : G-1 07 . ... ... ... : ... .. . ... ... ... : ... .. . ... ... ... : ... .. . ... ... ... : ... .. . ... ... ...
ROW 83 : ... .. . ... ... ... : ... .. . ... ... ... : ... .. . ... ... ... : ... .. 5 ... ... ... : ... .. . ... ... ... : ... .. . ... ... ... : ... .. . P81 ... ... : ... .. . ... ... ... : ... .. . ... ... ... : ... .. . ... ... ... : ... .. . ... ... ... : ... .. . ... ... ... : ... .. . ... ... ...
ROW 84 : ... .. . ... ... ... : ... .. . ... ... ... : ... .. . ... ... ... : ... .. . ... ... ... : ... .. . ... ... ... : ... .. . ... ... ... : F#1 07 . P80 ... ... : ... .. . ... ... ... : ... .. . ... ... ... : ... .. . ... ... ... : ... .. . ... ... ... : ... .. . ... ... ... : ... .. . ... ... ...
ROW 85 : ... .. . ... ... ... : ... .. . ... ... ... : ... .. . ... ... ... : ... .. 4 ... ... ... : ... .. . ... ... ... : G-1 08 . ... ... ... : F#1 08 . ... ... ... : ... .. . ... ... ... : G-1 08 . ... ... ... : ... .. . ... ... ... : ... .. . ... ... ... : ... .. . ... ... ... : ... .. . ... ... ...
ROW 86 : ... .. . ... ... ... : ... .. . ... ... ... : ... .. . ... ... ... : ... .. . ... ... ... : ... .. . ... ... ... : ... .. . ... ... ... : G-1 08 . P81 ... ... : ... .. . ... ... ... : ... .. . ... ... ... : ... .. . ... ... ... : ... .. . ... ... ... : ... .. . ... ... ... : ... .. . ... ... ...
ROW 87 : ... .. . ... ... ... : ... .. . ... ... ... : ... .. . ... ... ... : ... .. 3 ... ... ... : ... .. . ... ... ... : ... .. . ... ... ... : ... .. . ... ... ... : ... .. . ... ... ... : ... .. . ... ... ... : ... .. . ... ... ... : ... .. . ... ... ... : ... .. . ... ... ... : ... .. . ... ... ...
ROW 88 : ... .. . ... ... ... : ... .. . ... ... ... : ... .. . ... ... ... : 6-# 01 F ... ... ... : ... .. . ... ... ... : B-1 06 . ... ... ... : A#1 06 . P7F ... ... : ... .. . ... ... ... : B-1 06 . ... ... ... : ... .. . ... ... ... : ... .. . ... ... ... : ... .. . ... ... ... : ... .. . ... ... ...
ROW 89 : ... .. . ... ... ... : ... .. . ... ... ... : ... .. . ... ... ... : ... .. 9 ... ... ... : ... .. . ... ... ... : ... .. . ... ... ... : ... .. . ... ... ... : ... .. . ... ... ... : ... .. 3 ... ... ... : ... .. . ... ... ... : ... .. . ... ... ... : ... .. . ... ... ... : ... .. . ... ... ...
ROW 8A : ... .. . ... ... ... : ... .. . ... ... ... : ... .. . ... ... ... : ... .. 4 ... ... ... : ... .. . ... ... ... : ... .. . ... ... ... : B-1 06 . P81 ... ... : ... .. . ... ... ... : ... .. . ... ... ... : ... .. . ... ... ... : ... .. . ... ... ... : ... .. . ... ... ... : ... .. . ... ... ...
ROW 8B : ... .. . ... ... ... : ... .. . ... ... ... : ... .. . ... ... ... : ... .. 7 ... ... ... : ... .. . ... ... ... : ... .. . ... ... ... : ... .. . P80 ... ... : ... .. . ... ... ... : ... .. . ... ... ... : ... .. . ... ... ... : ... .. . ... ... ... : ... .. . ... ... ... : ... .. . ... ... ...
ROW 8C : ... .. . ... ... ... : ... .. . ... ... ... : ... .. . ... ... ... : ... .. 5 ... ... ... : ... .. . ... ... ... : ... .. . ... ... ... : ... .. . P81 ... ... : ... .. . ... ... ... : ... .. . ... ... ... : ... .. . ... ... ... : ... .. . ... ... ... : ... .. . ... ... ... : ... .. . ... ... ...
ROW 8D : ... .. . ... ... ... : ... .. . ... ... ... : ... .. . ... ... ... : ... .. . ... ... ... : ... .. . ... ... ... : ... .. . ... ... ... : A#1 06 . P80 ... ... : ... .. . ... ... ... : ... .. . ... ... ... : ... .. . ... ... ... : ... .. . ... ... ... : ... .. . ... ... ... : ... .. . ... ... ...
ROW 8E : ... .. . ... ... ... : ... .. . ... ... ... : ... .. . ... ... ... : ... .. 4 ... ... ... : ... .. . ... ... ... : B-1 07 . ... ... ... : B-1 07 . P81 ... ... : ... .. . ... ... ... : B-1 07 . ... ... ... : ... .. . ... ... ... : ... .. . ... ... ... : ... .. . ... ... ... : ... .. . ... ... ...
ROW 8F : ... .. . ... ... ... : ... .. . ... ... ... : ... .. . ... ... ... : ... .. . ... ... ... : ... .. . ... ... ... : ... .. . ... ... ... : ... .. . P80 ... ... : ... .. . ... ... ... : ... .. . ... ... ... : ... .. . ... ... ... : ... .. . ... ... ... : ... .. . ... ... ... : ... .. . ... ... ...
ROW 90 : ... .. . ... ... ... : ... .. . ... ... ... : ... .. . ... ... ... : ... .. 3 ... ... ... : ... .. . ... ... ... : ... .. . ... ... ... : ... .. . P81 ... ... : ... .. . ... ... ... : ... .. . ... ... ... : ... .. . ... ... ... : ... .. . ... ... ... : ... .. . ... ... ... : ... .. . ... ... ...
ROW 91 : ... .. . ... ... ... : ... .. . ... ... ... : ... .. . ... ... ... : ... .. 2 ... ... ... : ... .. . ... ... ... : B-1 08 . ... ... ... : A#1 08 . P80 ... ... : ... .. . ... ... ... : B-1 08 2 ... ... ... : ... .. . ... ... ... : ... .. . ... ... ... : ... .. . ... ... ... : ... .. . ... ... ...
ROW 92 : ... .. . ... ... ... : ... .. . ... ... ... : ... .. . ... ... ... : ... .. . ... ... ... : ... .. . ... ... ... : ... .. . ... ... ... : B-1 08 . P81 ... ... : ... .. . ... ... ... : ... .. . ... ... ... : ... .. . ... ... ... : ... .. . ... ... ... : ... .. . ... ... ... : ... .. . ... ... ...
ROW 93 : ... .. . ... ... ... : ... .. . ... ... ... : ... .. . ... ... ... : ... .. 1 ... ... ... : ... .. . ... ... ... : ... .. . ... ... ... : ... .. . P80 ... ... : ... .. . ... ... ... : ... .. . ... ... ... : ... .. . ... ... ... : ... .. . ... ... ... : ... .. . ... ... ... : ... .. . ... ... ...
ROW 94 : ... .. . ... ... ... : ... .. . ... ... ... : ... .. . ... ... ... : ... .. . ... ... ... : ... .. . ... ... ... : ... .. . ... ... ... : ... .. . P81 ... ... : ... .. . ... ... ... : ... .. . ... ... ... : ... .. . ... ... ... : ... .. . ... ... ... : ... .. . ... ... ... : ... .. . ... ... ...
ROW 95 : ... .. . ... ... ... : C-4 02 . P80 ... ... : F#3 00 . P78 ... ... : 1-# 00 F ... ... ... : C-1 12 . ... ... ... : G#1 06 . ... ... ... : G-1 06 . P80 ... ... : ... .. . ... ... ... : G#1 06 . ... ... ... : ... .. . ... ... ... : ... .. . ... ... ... : ... .. . ... ... ... : ... .. . ... ... ...
ROW 96 : ... .. . ... ... ... : F-3 02 . ... ... ... : C#3 00 . P7E ... ... : 2-# 00 7 ... ... ... : ... .. . ... ... ... : ... .. . ... ... ... : ... .. . ... ... ... : ... .. . ... ... ... : ... .. . ... ... ... : ... .. . ... ... ... : ... .. . ... ... ... : ... .. . ... ... ... : ... .. . ... ... ...
ROW 97 : ... .. . ... ... ... : A#2 02 . P81 ... ... : A-2 00 . P86 ... ... : 1-# 00 4 ... ... ... : ... .. . ... ... ... : ... .. . ... ... ... : G#1 06 . P81 ... ... : ... .. . ... ... ... : ... .. . ... ... ... : ... .. . ... ... ... : ... .. . ... ... ... : ... .. . ... ... ... : ... .. . ... ... ...
ROW 98 : ... .. . ... ... ... : D#2 02 . ... ... ... : --- .. . ... ... ... : ... .. 2 ... ... ... : ... .. . ... ... ... : ... .. . ... ... ... : ... .. . ... ... ... : ... .. . ... ... ... : ... .. . ... ... ... : ... .. . ... ... ... : ... .. . ... ... ... : ... .. . ... ... ... : ... .. . ... ... ...
ROW 99 : ... .. . ... ... ... : G#1 02 . ... ... ... : ... .. . ... ... ... : ... .. 1 ... ... ... : ... .. . ... ... ... : ... .. . ... ... ... : G-1 06 . P80 ... ... : ... .. . ... ... ... : ... .. 1 ... ... ... : ... .. . ... ... ... : ... .. . ... ... ... : ... .. . ... ... ... : ... .. . ... ... ...
ROW 9A : ... .. . ... ... ... : C#1 02 . ... ... ... : ... .. . ... ... ... : --- .. . ... ... ... : ... .. . ... ... ... : ... .. . ... ... ... : ... .. . ... ... ... : ... .. . ... ... ... : ... .. . ... ... ... : ... .. . ... ... ... : ... .. . ... ... ... : ... .. . ... ... ... : ... .. . ... ... ...
ROW 9B : ... .. . ... ... ... : ... .. . ... ... ... : ... .. . ... ... ... : ... .. . ... ... ... : ... .. . ... ... ... : G#1 07 . ... ... ... : G#1 07 . P81 ... ... : ... .. . ... ... ... : G#1 07 . ... ... ... : ... .. . ... ... ... : ... .. . ... ... ... : ... .. . ... ... ... : ... .. . ... ... ...
ROW 9C : ... .. . ... ... ... : ... .. . ... ... ... : ... .. . ... ... ... : ... .. . ... ... ... : ... .. . ... ... ... : ... .. . ... ... ... : ... .. . P80 ... ... : ... .. . ... ... ... : ... .. . ... ... ... : ... .. . ... ... ... : ... .. . ... ... ... : ... .. . ... ... ... : ... .. . ... ... ...
ROW 9D : ... .. . ... ... ... : ... .. . ... ... ... : ... .. . ... ... ... : ... .. . ... ... ... : ... .. . ... ... ... : ... .. . ... ... ... : ... .. . P81 ... ... : ... .. . ... ... ... : ... .. . ... ... ... : ... .. . ... ... ... : ... .. . ... ... ... : ... .. . ... ... ... : ... .. . ... ... ...
ROW 9E : ... .. . ... ... ... : ... .. . ... ... ... : ... .. . ... ... ... : ... .. . ... ... ... : ... .. . ... ... ... : G-1 07 . ... ... ... : F#1 07 . P80 ... ... : ... .. . ... ... ... : ... .. . P81 ... ... : ... .. . ... ... ... : ... .. . ... ... ... : ... .. . ... ... ... : ... .. . ... ... ...
ROW 9F : ... .. . ... ... ... : ... .. . ... ... ... : ... .. . ... ... ... : ... .. . ... ... ... : ... .. . ... ... ... : F#1 07 . ... ... ... : ... .. . P81 ... ... : ... .. . ... ... ... : G-1 07 . ... ... ... : ... .. . ... ... ... : ... .. . ... ... ... : ... .. . ... ... ... : ... .. . ... ... ...
ROW A0 : ... .. . ... ... ... : ... .. . ... ... ... : ... .. . ... ... ... : ... .. . ... ... ... : ... .. . ... ... ... : F-1 07 . ... ... ... : F-1 07 . P80 ... ... : ... .. . ... ... ... : F#1 07 . ... ... ... : ... .. . ... ... ... : ... .. . ... ... ... : ... .. . ... ... ... : ... .. . ... ... ...
ROW A1 : ... .. . ... ... ... : ... .. . ... ... ... : ... .. . ... ... ... : D-# 00 A ... ... ... : ... .. . ... ... ... : E-1 08 . ... ... ... : E-1 08 . P81 ... ... : G#6 03 7 ... ... ... : --- .. . ... ... ... : ... .. . ... ... ... : ... .. . ... ... ... : ... .. . ... ... ... : ... .. . ... ... ...
ROW A2 : ... .. . ... ... ... : ... .. . ... ... ... : ... .. . ... ... ... : E-# 00 4 ... ... ... : ... .. . ... ... ... : D#1 08 . ... ... ... : D-1 08 . P80 ... ... : ... .. . ... ... ... : ... .. . P80 ... ... : ... .. . ... ... ... : ... .. . ... ... ... : ... .. . ... ... ... : ... .. . ... ... ...
ROW A3 : ... .. . ... ... ... : ... .. . ... ... ... : ... .. . ... ... ... : D-# 00 2 ... ... ... : ... .. . ... ... ... : D-1 08 . ... ... ... : ... .. . P81 ... ... : ... .. . ... ... ... : ... .. . ... ... ... : ... .. . ... ... ... : ... .. . ... ... ... : ... .. . ... ... ... : ... .. . ... ... ...
ROW A4 : ... .. . ... ... ... : ... .. . ... ... ... : ... .. . ... ... ... : ... .. 1 ... ... ... : ... .. . ... ... ... : C#1 08 . ... ... ... : C#1 08 . P80 ... ... : ... .. 5 ... ... ... : ... .. . ... ... ... : ... .. . ... ... ... : ... .. . ... ... ... : ... .. . ... ... ... : ... .. . ... ... ...
ROW A5 : ... .. . ... ... ... : ... .. . ... ... ... : ... .. . ... ... ... : ... .. . ... ... ... : ... .. . ... ... ... : C-1 08 . P81 ... ... : C-1 08 . P81 ... ... : ... .. . ... ... ... : ... .. . ... ... ... : ... .. . ... ... ... : ... .. . ... ... ... : ... .. . ... ... ... : ... .. . ... ... ...
ROW A6 : ... .. . ... ... ... : ... .. . ... ... ... : ... .. . ... ... ... : --- .. . ... ... ... : ... .. . ... ... ... : B-0 08 . ... ... ... : A-0 08 . P80 ... ... : ... .. . ... ... ... : ... .. . ... ... ... : ... .. . ... ... ... : ... .. . ... ... ... : ... .. . ... ... ... : ... .. . ... ... ...
ROW A7 : ... .. . ... ... ... : ... .. . ... ... ... : ... .. . ... ... ... : D-# 00 A ... ... ... : ... .. . ... ... ... : A-0 09 . P80 ... ... : G#0 09 . P81 ... ... : ... .. 3 ... ... ... : ... .. . ... ... ... : ... .. . ... ... ... : ... .. . ... ... ... : ... .. . ... ... ... : ... .. . ... ... ...
ROW A8 : ... .. . ... ... ... : ... .. . ... ... ... : ... .. . ... ... ... : E-# 00 4 ... ... ... : ... .. . ... ... ... : G-0 09 . ... ... ... : G-0 09 . P80 ... ... : ... .. . ... ... ... : ... .. . ... ... ... : ... .. . ... ... ... : ... .. . ... ... ... : ... .. . ... ... ... : ... .. . ... ... ...
ROW A9 : ... .. . ... ... ... : ... .. . ... ... ... : ... .. . ... ... ... : D-# 00 2 ... ... ... : ... .. . ... ... ... : F#0 09 . P81 ... ... : F-0 09 . ... ... ... : ... .. . ... ... ... : ... .. . ... ... ... : ... .. . ... ... ... : ... .. . ... ... ... : ... .. . ... ... ... : ... .. . ... ... ...
ROW AA : ... .. . ... ... ... : ... .. . ... ... ... : ... .. . ... ... ... : ... .. 1 ... ... ... : ... .. . ... ... ... : E-0 09 . ... ... ... : D-0 09 . ... ... ... : ... .. 1 ... ... ... : ... .. . ... ... ... : ... .. . ... ... ... : ... .. . ... ... ... : ... .. . ... ... ... : ... .. . ... ... ...
ROW AB : ... .. . ... ... ... : ... .. . ... ... ... : ... .. . ... ... ... : ... .. . ... ... ... : ... .. . ... ... ... : D-0 09 . ... ... ... : C-0 09 . P81 ... ... : ... .. . ... ... ... : ... .. . ... ... ... : ... .. . ... ... ... : ... .. . ... ... ... : ... .. . ... ... ... : ... .. . ... ... ...
ROW AC : ... .. . ... ... ... : ... .. . ... ... ... : ... .. . ... ... ... : --- .. . ... ... ... : ... .. . ... ... ... : C-0 09 . ... ... ... : ... .. . P82 ... ... : ... .. . ... ... ... : ... .. . ... ... ... : ... .. . ... ... ... : ... .. . ... ... ... : ... .. . ... ... ... : ... .. . ... ... ...
ROW AD : ... .. . ... ... ... : ... .. . ... ... ... : ... .. . ... ... ... : ... .. . ... ... ... : ... .. . ... ... ... : ... .. . P83 ... ... : ... .. . P83 ... ... : ... .. . ... ... ... : ... .. . ... ... ... : ... .. . ... ... ... : ... .. . ... ... ... : ... .. . ... ... ... : ... .. . ... ... ...
ROW AE : ... .. . ... ... ... : C-4 02 . P80 ... ... : C#4 00 . P7F ... ... : 9-# 00 F ... ... ... : C#1 12 . ... ... ... : G#1 04 . P80 ... ... : C-0 04 . P86 ... ... : G-1 04 9 ... ... ... : A-1 04 9 P82 ... ... : ... .. . ... ... ... : ... .. . ... ... ... : ... .. . ... ... ... : ... .. . ... ... ...
ROW AF : ... .. . ... ... ... : F-3 02 . ... ... ... : F#3 00 . P83 ... ... : 2-# 00 7 ... ... ... : ... .. . ... ... ... : ... .. . ... ... ... : --- .. . P7C ... ... : ... .. . ... ... ... : ... .. . ... ... ... : ... .. . ... ... ... : ... .. . ... ... ... : ... .. . ... ... ... : ... .. . ... ... ...
ROW B0 : ... .. . ... ... ... : A#2 02 . P81 ... ... : C#3 00 . P89 ... ... : 6-# 00 C ... ... ... : ... .. . ... ... ... : ... .. . ... ... ... : ... .. . P7D ... ... : ... .. . ... ... ... : ... .. . ... ... ... : ... .. . ... ... ... : ... .. . ... ... ... : ... .. . ... ... ... : ... .. . ... ... ...
ROW B1 : ... .. . ... ... ... : D#2 02 . ... ... ... : A#2 00 . P75 ... ... : 7-# 00 8 ... ... ... : ... .. . ... ... ... : ... .. . ... ... ... : ... .. . P7E ... ... : ... .. . ... ... ... : ... .. . ... ... ... : ... .. . ... ... ... : ... .. . ... ... ... : ... .. . ... ... ... : ... .. . ... ... ...
ROW B2 : ... .. . ... ... ... : G#1 02 . ... ... ... : G-2 00 . P70 ... ... : 8-# 00 7 ... ... ... : ... .. . ... ... ... : ... .. . ... ... ... : D#7 04 . P81 ... ... : ... .. 8 ... ... ... : ... .. . ... ... ... : ... .. . ... ... ... : ... .. . ... ... ... : ... .. . ... ... ... : ... .. . ... ... ...
ROW B3 : ... .. . ... ... ... : C#1 02 . ... ... ... : E-2 00 . P7C ... ... : ... .. 6 ... ... ... : ... .. . ... ... ... : ... .. . ... ... ... : ... .. . P82 ... ... : ... .. . ... ... ... : ... .. . ... ... ... : ... .. . ... ... ... : ... .. . ... ... ... : ... .. . ... ... ... : ... .. . ... ... ...
ROW B4 : ... .. . ... ... ... : ... .. . ... ... ... : --- .. . ... ... ... : ... .. . ... ... ... : ... .. . ... ... ... : G#2 04 . ... ... ... : ... .. . P81 ... ... : G#2 04 . P82 ... ... : G#2 04 . P7F ... ... : ... .. . ... ... ... : ... .. . ... ... ... : ... .. . ... ... ... : ... .. . ... ... ...
ROW B5 : ... .. . ... ... ... : ... .. . ... ... ... : ... .. . ... ... ... : ... .. 5 ... ... ... : ... .. . ... ... ... : ... .. . ... ... ... : --- .. . ... ... ... : ... .. . ... ... ... : ... .. . ... ... ... : ... .. . ... ... ... : ... .. . ... ... ... : ... .. . ... ... ... : ... .. . ... ... ...
ROW B6 : ... .. . ... ... ... : ... .. . ... ... ... : ... .. . ... ... ... : ... .. . ... ... ... : ... .. . ... ... ... : ... .. . ... ... ... : D#7 04 . ... ... ... : ... .. 7 ... ... ... : ... .. 8 ... ... ... : ... .. . ... ... ... : ... .. . ... ... ... : ... .. . ... ... ... : ... .. . ... ... ...
ROW B7 : ... .. . ... ... ... : ... .. . ... ... ... : ... .. . ... ... ... : ... .. 4 ... ... ... : ... .. . ... ... ... : ... .. . ... ... ... : ... .. . P82 ... ... : ... .. . ... ... ... : ... .. . ... ... ... : ... .. . ... ... ... : ... .. . ... ... ... : ... .. . ... ... ... : ... .. . ... ... ...
ROW B8 : ... .. . ... ... ... : ... .. . ... ... ... : ... .. . ... ... ... : ... .. . ... ... ... : ... .. . ... ... ... : ... .. . ... ... ... : ... .. . ... ... ... : ... .. . ... ... ... : ... .. . ... ... ... : ... .. . ... ... ... : ... .. . ... ... ... : ... .. . ... ... ... : ... .. . ... ... ...
ROW B9 : ... .. . ... ... ... : ... .. . ... ... ... : ... .. . ... ... ... : ... .. 3 ... ... ... : ... .. . ... ... ... : ... .. . ... ... ... : ... .. . P81 ... ... : ... .. . ... ... ... : ... .. . ... ... ... : ... .. . ... ... ... : ... .. . ... ... ... : ... .. . ... ... ... : ... .. . ... ... ...
ROW BA : ... .. . ... ... ... : ... .. . ... ... ... : ... .. . ... ... ... : D-# 00 A ... ... ... : ... .. . ... ... ... : G#1 04 . ... ... ... : --- .. . ... ... ... : G-1 04 6 P80 ... ... : A-1 04 . P82 ... ... : ... .. . ... ... ... : ... .. . ... ... ... : ... .. . ... ... ... : ... .. . ... ... ...
ROW BB : ... .. . ... ... ... : ... .. . ... ... ... : ... .. . ... ... ... : E-# 00 4 ... ... ... : ... .. . ... ... ... : ... .. . ... ... ... : ... .. . P80 ... ... : ... .. . ... ... ... : ... .. . ... ... ... : ... .. . ... ... ... : ... .. . ... ... ... : ... .. . ... ... ... : ... .. . ... ... ...
ROW BC : ... .. . ... ... ... : ... .. . ... ... ... : ... .. . ... ... ... : D-# 00 2 ... ... ... : ... .. . ... ... ... : ... .. . ... ... ... : ... .. . ... ... ... : ... .. . ... ... ... : ... .. . ... ... ... : ... .. . ... ... ... : ... .. . ... ... ... : ... .. . ... ... ... : ... .. . ... ... ...
ROW BD : ... .. . ... ... ... : ... .. . ... ... ... : ... .. . ... ... ... : ... .. 1 ... ... ... : ... .. . ... ... ... : ... .. . ... ... ... : ... .. . ... ... ... : ... .. . ... ... ... : ... .. . ... ... ... : ... .. . ... ... ... : ... .. . ... ... ... : ... .. . ... ... ... : ... .. . ... ... ...
ROW BE : ... .. . ... ... ... : ... .. . ... ... ... : ... .. . ... ... ... : ... .. . ... ... ... : ... .. . ... ... ... : ... .. . ... ... ... : ... .. . ... ... ... : ... .. 5 ... ... ... : ... .. 7 ... ... ... : ... .. . ... ... ... : ... .. . ... ... ... : ... .. . ... ... ... : ... .. . ... ... ...
ROW BF : ... .. . ... ... ... : ... .. . ... ... ... : ... .. . ... ... ... : --- .. . ... ... ... : ... .. . ... ... ... : ... .. . ... ... ... : ... .. . ... ... ... : ... .. . ... ... ... : ... .. . ... ... ... : ... .. . ... ... ... : ... .. . ... ... ... : ... .. . ... ... ... : ... .. . ... ... ...
ROW C0 : ... .. . ... ... ... : ... .. . ... ... ... : ... .. . ... ... ... : D-# 00 A ... ... ... : ... .. . ... ... ... : G#2 04 . ... ... ... : ... .. . ... ... ... : G#2 04 . P82 ... ... : G#2 04 . P7F ... ... : ... .. . ... ... ... : ... .. . ... ... ... : ... .. . ... ... ... : ... .. . ... ... ...
ROW C1 : ... .. . ... ... ... : ... .. . ... ... ... : ... .. . ... ... ... : E-# 00 4 ... ... ... : ... .. . ... ... ... : ... .. . ... ... ... : ... .. . ... ... ... : ... .. . ... ... ... : ... .. . ... ... ... : ... .. . ... ... ... : ... .. . ... ... ... : ... .. . ... ... ... : ... .. . ... ... ...
ROW C2 : ... .. . ... ... ... : ... .. . ... ... ... : ... .. . ... ... ... : D-# 00 2 ... ... ... : ... .. . ... ... ... : ... .. . ... ... ... : ... .. . ... ... ... : ... .. 4 ... ... ... : ... .. . ... ... ... : ... .. . ... ... ... : ... .. . ... ... ... : ... .. . ... ... ... : ... .. . ... ... ...
ROW C3 : ... .. . ... ... ... : ... .. . ... ... ... : ... .. . ... ... ... : ... .. 1 ... ... ... : ... .. . ... ... ... : ... .. . ... ... ... : ... .. . ... ... ... : ... .. . ... ... ... : ... .. . ... ... ... : ... .. . ... ... ... : ... .. . ... ... ... : ... .. . ... ... ... : ... .. . ... ... ...
ROW C4 : ... .. . ... ... ... : ... .. . ... ... ... : ... .. . ... ... ... : ... .. . ... ... ... : ... .. . ... ... ... : ... .. . ... ... ... : ... .. . ... ... ... : ... .. . ... ... ... : ... .. . ... ... ... : ... .. . ... ... ... : ... .. . ... ... ... : ... .. . ... ... ... : ... .. . ... ... ...
ROW C5 : ... .. . ... ... ... : ... .. . ... ... ... : ... .. . ... ... ... : --- .. . ... ... ... : ... .. . ... ... ... : ... .. . ... ... ... : ... .. . ... ... ... : ... .. . ... ... ... : ... .. . ... ... ... : ... .. . ... ... ... : ... .. . ... ... ... : ... .. . ... ... ... : ... .. . ... ... ...
ROW C6 : ... .. . ... ... ... : ... .. . ... ... ... : ... .. . ... ... ... : ... .. . ... ... ... : ... .. . ... ... ... : ... .. . ... ... ... : ... .. . ... ... ... : ... .. 3 ... ... ... : ... .. 6 ... ... ... : ... .. . ... ... ... : ... .. . ... ... ... : ... .. . ... ... ... : ... .. . ... ... ...
ROW C7 : ... .. . ... ... ... : C-4 02 . P80 ... ... : F#3 00 . P78 ... ... : 1-# 00 F ... ... ... : C-1 12 . ... ... ... : B-4 0C 7 P7C ... ... : ... .. . ... ... ... : --- .. . ... ... ... : A#3 0C 1 P85 ... ... : ... .. . ... ... ... : ... .. . ... ... ... : ... .. . ... ... ... : ... .. . ... ... ...
ROW C8 : ... .. . ... ... ... : F-3 02 . ... ... ... : C#3 00 . P7E ... ... : 2-# 00 7 ... ... ... : ... .. . ... ... ... : A#4 0C . P79 ... ... : ... .. . ... ... ... : ... .. . P80 ... ... : G-3 0C . ... ... ... : ... .. . ... ... ... : ... .. . ... ... ... : ... .. . ... ... ... : ... .. . ... ... ...
ROW C9 : ... .. . ... ... ... : A#2 02 . P81 ... ... : A-2 00 . P86 ... ... : 1-# 00 4 ... ... ... : ... .. . ... ... ... : A-4 0C . P78 ... ... : ... .. . ... ... ... : ... .. . ... ... ... : D#3 0C . P82 ... ... : ... .. . ... ... ... : ... .. . ... ... ... : ... .. . ... ... ... : ... .. . ... ... ...
ROW CA : ... .. . ... ... ... : D#2 02 . ... ... ... : --- .. . ... ... ... : ... .. 2 ... ... ... : ... .. . ... ... ... : G#4 0C . ... ... ... : ... .. . ... ... ... : ... .. . ... ... ... : A#2 0C . P7F ... ... : ... .. . ... ... ... : ... .. . ... ... ... : ... .. . ... ... ... : ... .. . ... ... ...
ROW CB : ... .. . ... ... ... : G#1 02 . ... ... ... : ... .. . ... ... ... : ... .. 1 ... ... ... : ... .. . ... ... ... : G-4 0C . ... ... ... : ... .. . ... ... ... : ... .. . ... ... ... : E-2 0C . P81 ... ... : ... .. . ... ... ... : ... .. . ... ... ... : ... .. . ... ... ... : ... .. . ... ... ...
ROW CC : ... .. . ... ... ... : C#1 02 . ... ... ... : ... .. . ... ... ... : --- .. . ... ... ... : ... .. . ... ... ... : --- .. . ... ... ... : ... .. . ... ... ... : ... .. . ... ... ... : --- .. . ... ... ... : ... .. . ... ... ... : ... .. . ... ... ... : ... .. . ... ... ... : ... .. . ... ... ...
ROW CD : ... .. . ... ... ... : ... .. . ... ... ... : ... .. . ... ... ... : ... .. . ... ... ... : ... .. . ... ... ... : B-4 0C . P7C ... ... : ... .. . ... ... ... : ... .. . ... ... ... : A#3 0C . P85 ... ... : ... .. . ... ... ... : ... .. . ... ... ... : ... .. . ... ... ... : ... .. . ... ... ...
ROW CE : ... .. . ... ... ... : ... .. . ... ... ... : ... .. . ... ... ... : ... .. . ... ... ... : ... .. . ... ... ... : A#4 0C . P79 ... ... : ... .. . ... ... ... : ... .. . ... ... ... : G-3 0C . ... ... ... : ... .. . ... ... ... : ... .. . ... ... ... : ... .. . ... ... ... : ... .. . ... ... ...
ROW CF : ... .. . ... ... ... : ... .. . ... ... ... : ... .. . ... ... ... : ... .. . ... ... ... : ... .. . ... ... ... : A-4 0C . P78 ... ... : ... .. . ... ... ... : ... .. . ... ... ... : --- .. . ... ... ... : ... .. . ... ... ... : ... .. . ... ... ... : ... .. . ... ... ... : ... .. . ... ... ...
ROW D0 : ... .. . ... ... ... : ... .. . ... ... ... : ... .. . ... ... ... : ... .. . ... ... ... : ... .. . ... ... ... : G#4 0C . ... ... ... : ... .. . ... ... ... : ... .. . ... ... ... : ... .. . P80 ... ... : ... .. . ... ... ... : ... .. . ... ... ... : ... .. . ... ... ... : ... .. . ... ... ...
ROW D1 : ... .. . ... ... ... : ... .. . ... ... ... : ... .. . ... ... ... : ... .. . ... ... ... : ... .. . ... ... ... : G-4 0C . ... ... ... : ... .. . ... ... ... : ... .. . ... ... ... : ... .. . ... ... ... : ... .. . ... ... ... : ... .. . ... ... ... : ... .. . ... ... ... : ... .. . ... ... ...
ROW D2 : ... .. . ... ... ... : ... .. . ... ... ... : ... .. . ... ... ... : ... .. . ... ... ... : ... .. . ... ... ... : --- .. . ... ... ... : ... .. . ... ... ... : ... .. . ... ... ... : ... .. . ... ... ... : ... .. . ... ... ... : ... .. . ... ... ... : ... .. . ... ... ... : ... .. . ... ... ...
ROW D3 : ... .. . ... ... ... : ... .. . ... ... ... : ... .. . ... ... ... : D-# 00 A ... ... ... : ... .. . ... ... ... : B-2 05 A P80 ... ... : B-2 05 A P82 ... ... : B-2 05 9 P7E ... ... : G#2 05 9 P81 ... ... : ... .. . ... ... ... : ... .. . ... ... ... : ... .. . ... ... ... : ... .. . ... ... ...
ROW D4 : ... .. . ... ... ... : ... .. . ... ... ... : ... .. . ... ... ... : E-# 00 4 ... ... ... : ... .. . ... ... ... : ... .. . ... ... ... : A#2 05 . P7E ... ... : ... .. . ... ... ... : ... .. . ... ... ... : ... .. . ... ... ... : ... .. . ... ... ... : ... .. . ... ... ... : ... .. . ... ... ...
ROW D5 : ... .. . ... ... ... : ... .. . ... ... ... : ... .. . ... ... ... : D-# 00 2 ... ... ... : ... .. . ... ... ... : ... .. . ... ... ... : ... .. . P7F ... ... : ... .. . ... ... ... : ... .. . ... ... ... : ... .. . ... ... ... : ... .. . ... ... ... : ... .. . ... ... ... : ... .. . ... ... ...
ROW D6 : ... .. . ... ... ... : ... .. . ... ... ... : ... .. . ... ... ... : ... .. 1 ... ... ... : ... .. . ... ... ... : ... .. . ... ... ... : ... .. . P7E ... ... : ... .. . ... ... ... : ... .. . ... ... ... : ... .. . ... ... ... : ... .. . ... ... ... : ... .. . ... ... ... : ... .. . ... ... ...
ROW D7 : ... .. . ... ... ... : ... .. . ... ... ... : ... .. . ... ... ... : ... .. . ... ... ... : ... .. . ... ... ... : --- .. . ... ... ... : --- .. . ... ... ... : --- .. . ... ... ... : --- .. . ... ... ... : ... .. . ... ... ... : ... .. . ... ... ... : ... .. . ... ... ... : ... .. . ... ... ...
ROW D8 : ... .. . ... ... ... : ... .. . ... ... ... : ... .. . ... ... ... : --- .. . ... ... ... : ... .. . ... ... ... : ... .. . ... ... ... : ... .. . P80 ... ... : ... .. . P80 ... ... : ... .. . P80 ... ... : ... .. . ... ... ... : ... .. . ... ... ... : ... .. . ... ... ... : ... .. . ... ... ...
ROW D9 : ... .. . ... ... ... : ... .. . ... ... ... : ... .. . ... ... ... : D-# 00 A ... ... ... : ... .. . ... ... ... : B-2 05 4 ... ... ... : A#2 05 4 P7E ... ... : B-2 05 3 P7E ... ... : G#2 05 3 P81 ... ... : ... .. . ... ... ... : ... .. . ... ... ... : ... .. . ... ... ... : ... .. . ... ... ...
ROW DA : ... .. . ... ... ... : ... .. . ... ... ... : ... .. . ... ... ... : E-# 00 4 ... ... ... : ... .. . ... ... ... : ... .. . ... ... ... : ... .. . P7F ... ... : ... .. . ... ... ... : ... .. . ... ... ... : ... .. . ... ... ... : ... .. . ... ... ... : ... .. . ... ... ... : ... .. . ... ... ...
ROW DB : ... .. . ... ... ... : ... .. . ... ... ... : ... .. . ... ... ... : D-# 00 2 ... ... ... : ... .. . ... ... ... : ... .. . ... ... ... : ... .. . P7E ... ... : ... .. . ... ... ... : ... .. . ... ... ... : ... .. . ... ... ... : ... .. . ... ... ... : ... .. . ... ... ... : ... .. . ... ... ...
ROW DC : ... .. . ... ... ... : ... .. . ... ... ... : ... .. . ... ... ... : ... .. 1 ... ... ... : ... .. . ... ... ... : ... .. . ... ... ... : B-2 05 . P82 ... ... : ... .. . ... ... ... : ... .. . ... ... ... : ... .. . ... ... ... : ... .. . ... ... ... : ... .. . ... ... ... : ... .. . ... ... ...
ROW DD : ... .. . ... ... ... : ... .. . ... ... ... : ... .. . ... ... ... : ... .. . ... ... ... : ... .. . ... ... ... : ... .. . ... ... ... : A#2 05 . P7E ... ... : ... .. 2 ... ... ... : ... .. . ... ... ... : ... .. . ... ... ... : ... .. . ... ... ... : ... .. . ... ... ... : ... .. . ... ... ...
ROW DE : ... .. . ... ... ... : ... .. . ... ... ... : ... .. . ... ... ... : --- .. . ... ... ... : ... .. . ... ... ... : --- .. . ... ... ... : --- .. . ... ... ... : --- .. . ... ... ... : --- .. . ... ... ... : ... .. . ... ... ... : ... .. . ... ... ... : ... .. . ... ... ... : ... .. . ... ... ...
ROW DF : ... .. . ... ... ... : ... .. . ... ... ... : ... .. . ... ... ... : ... .. . ... ... ... : ... .. . ... ... ... : ... .. . ... ... ... : ... .. . P80 ... ... : ... .. . P80 ... ... : ... .. . P80 ... ... : ... .. . ... ... ... : ... .. . ... ... ... : ... .. . ... ... ... : ... .. . ... ... ...
ROW E0 : ... .. . ... ... ... : C-4 02 . P80 ... ... : C#4 00 . P7F ... ... : 9-# 00 F ... ... ... : C#1 12 . ... ... ... : C#3 05 A ... ... ... : C#3 05 A P82 ... ... : C#3 05 9 P7E ... ... : B-2 05 9 P81 ... ... : ... .. . ... ... ... : ... .. . ... ... ... : ... .. . ... ... ... : ... .. . ... ... ...
ROW E1 : ... .. . ... ... ... : F-3 02 . ... ... ... : F#3 00 . P83 ... ... : 2-# 00 7 ... ... ... : ... .. . ... ... ... : ... .. . ... ... ... : ... .. . P83 ... ... : ... .. . ... ... ... : ... .. . ... ... ... : ... .. . ... ... ... : ... .. . ... ... ... : ... .. . ... ... ... : ... .. . ... ... ...
ROW E2 : ... .. . ... ... ... : A#2 02 . P81 ... ... : C#3 00 . P89 ... ... : 6-# 00 C ... ... ... : ... .. . ... ... ... : ... .. . ... ... ... : C-3 05 . P7E ... ... : ... .. . ... ... ... : ... .. . ... ... ... : ... .. . ... ... ... : ... .. . ... ... ... : ... .. . ... ... ... : ... .. . ... ... ...
ROW E3 : ... .. . ... ... ... : D#2 02 . ... ... ... : A#2 00 . P75 ... ... : 7-# 00 8 ... ... ... : ... .. . ... ... ... : ... .. . ... ... ... : C#3 05 . P83 ... ... : ... .. . ... ... ... : ... .. . ... ... ... : ... .. . ... ... ... : ... .. . ... ... ... : ... .. . ... ... ... : ... .. . ... ... ...
ROW E4 : ... .. . ... ... ... : G#1 02 . ... ... ... : G-2 00 . P70 ... ... : 8-# 00 7 ... ... ... : ... .. . ... ... ... : --- .. . ... ... ... : --- .. . ... ... ... : --- .. . ... ... ... : --- .. . ... ... ... : ... .. . ... ... ... : ... .. . ... ... ... : ... .. . ... ... ... : ... .. . ... ... ...
ROW E5 : ... .. . ... ... ... : C#1 02 . ... ... ... : E-2 00 . P7C ... ... : ... .. 6 ... ... ... : ... .. . ... ... ... : ... .. . ... ... ... : ... .. . P80 ... ... : ... .. . P80 ... ... : ... .. . P80 ... ... : ... .. . ... ... ... : ... .. . ... ... ... : ... .. . ... ... ... : ... .. . ... ... ...
ROW E6 : ... .. . ... ... ... : ... .. . ... ... ... : --- .. . ... ... ... : ... .. . ... ... ... : ... .. . ... ... ... : C#3 05 4 ... ... ... : C-3 05 4 P7E ... ... : C#3 05 3 P7E ... ... : B-2 05 3 P81 ... ... : ... .. . ... ... ... : ... .. . ... ... ... : ... .. . ... ... ... : ... .. . ... ... ...
ROW E7 : ... .. . ... ... ... : ... .. . ... ... ... : ... .. . ... ... ... : ... .. 5 ... ... ... : ... .. . ... ... ... : ... .. . ... ... ... : ... .. . ... ... ... : ... .. . ... ... ... : ... .. . ... ... ... : ... .. . ... ... ... : ... .. . ... ... ... : ... .. . ... ... ... : ... .. . ... ... ...
ROW E8 : ... .. . ... ... ... : ... .. . ... ... ... : ... .. . ... ... ... : ... .. . ... ... ... : ... .. . ... ... ... : ... .. . ... ... ... : C#3 05 . P83 ... ... : ... .. . ... ... ... : ... .. . ... ... ... : ... .. . ... ... ... : ... .. . ... ... ... : ... .. . ... ... ... : ... .. . ... ... ...
ROW E9 : ... .. . ... ... ... : ... .. . ... ... ... : ... .. . ... ... ... : ... .. 4 ... ... ... : ... .. . ... ... ... : ... .. . ... ... ... : ... .. . ... ... ... : ... .. . ... ... ... : ... .. . ... ... ... : ... .. . ... ... ... : ... .. . ... ... ... : ... .. . ... ... ... : ... .. . ... ... ...
ROW EA : ... .. . ... ... ... : ... .. . ... ... ... : ... .. . ... ... ... : ... .. . ... ... ... : ... .. . ... ... ... : --- .. . ... ... ... : --- .. . ... ... ... : --- .. . ... ... ... : --- .. . ... ... ... : ... .. . ... ... ... : ... .. . ... ... ... : ... .. . ... ... ... : ... .. . ... ... ...
ROW EB : ... .. . ... ... ... : ... .. . ... ... ... : ... .. . ... ... ... : ... .. 3 ... ... ... : ... .. . ... ... ... : ... .. . ... ... ... : ... .. . P80 ... ... : ... .. . P80 ... ... : ... .. . P80 ... ... : ... .. . ... ... ... : ... .. . ... ... ... : ... .. . ... ... ... : ... .. . ... ... ...
ROW EC : ... .. . ... ... ... : ... .. . ... ... ... : ... .. . ... ... ... : D-# 00 A ... ... ... : ... .. . ... ... ... : G#3 05 A ... ... ... : G#3 05 A P83 ... ... : G#3 05 9 P7E ... ... : D#3 05 9 P81 ... ... : ... .. . ... ... ... : ... .. . ... ... ... : ... .. . ... ... ... : ... .. . ... ... ...
ROW ED : ... .. . ... ... ... : ... .. . ... ... ... : ... .. . ... ... ... : E-# 00 4 ... ... ... : ... .. . ... ... ... : ... .. . ... ... ... : ... .. . P82 ... ... : ... .. . ... ... ... : ... .. . ... ... ... : ... .. . ... ... ... : ... .. . ... ... ... : ... .. . ... ... ... : ... .. . ... ... ...
ROW EE : ... .. . ... ... ... : ... .. . ... ... ... : ... .. . ... ... ... : D-# 00 2 ... ... ... : ... .. . ... ... ... : ... .. . ... ... ... : ... .. . P83 ... ... : ... .. . ... ... ... : ... .. . ... ... ... : ... .. . ... ... ... : ... .. . ... ... ... : ... .. . ... ... ... : ... .. . ... ... ...
ROW EF : ... .. . ... ... ... : ... .. . ... ... ... : ... .. . ... ... ... : ... .. 1 ... ... ... : ... .. . ... ... ... : ... .. . ... ... ... : ... .. . P84 ... ... : ... .. . ... ... ... : ... .. . ... ... ... : ... .. . ... ... ... : ... .. . ... ... ... : ... .. . ... ... ... : ... .. . ... ... ...
ROW F0 : ... .. . ... ... ... : ... .. . ... ... ... : ... .. . ... ... ... : ... .. . ... ... ... : ... .. . ... ... ... : --- .. . ... ... ... : --- .. . ... ... ... : --- .. . ... ... ... : --- .. . ... ... ... : ... .. . ... ... ... : ... .. . ... ... ... : ... .. . ... ... ... : ... .. . ... ... ...
ROW F1 : ... .. . ... ... ... : ... .. . ... ... ... : ... .. . ... ... ... : --- .. . ... ... ... : ... .. . ... ... ... : ... .. . ... ... ... : ... .. . P80 ... ... : ... .. . P80 ... ... : ... .. . P80 ... ... : ... .. . ... ... ... : ... .. . ... ... ... : ... .. . ... ... ... : ... .. . ... ... ...
ROW F2 : ... .. . ... ... ... : ... .. . ... ... ... : ... .. . ... ... ... : D-# 00 A ... ... ... : ... .. . ... ... ... : G#3 05 4 ... ... ... : G#3 05 . P83 ... ... : G#3 05 . P7E ... ... : D#3 05 . P81 ... ... : ... .. . ... ... ... : ... .. . ... ... ... : ... .. . ... ... ... : ... .. . ... ... ...
ROW F3 : ... .. . ... ... ... : ... .. . ... ... ... : ... .. . ... ... ... : E-# 00 4 ... ... ... : ... .. . ... ... ... : ... .. . ... ... ... : ... .. . P84 ... ... : ... .. . ... ... ... : ... .. . ... ... ... : ... .. . ... ... ... : ... .. . ... ... ... : ... .. . ... ... ... : ... .. . ... ... ...
ROW F4 : ... .. . ... ... ... : ... .. . ... ... ... : ... .. . ... ... ... : D-# 00 2 ... ... ... : ... .. . ... ... ... : ... .. . ... ... ... : ... .. . P83 ... ... : ... .. . ... ... ... : ... .. . ... ... ... : ... .. . ... ... ... : ... .. . ... ... ... : ... .. . ... ... ... : ... .. . ... ... ...
ROW F5 : ... .. . ... ... ... : ... .. . ... ... ... : ... .. . ... ... ... : ... .. 1 ... ... ... : ... .. . ... ... ... : ... .. . ... ... ... : ... .. . P82 ... ... : ... .. . ... ... ... : ... .. . ... ... ... : ... .. . ... ... ... : ... .. . ... ... ... : ... .. . ... ... ... : ... .. . ... ... ...
ROW F6 : ... .. . ... ... ... : ... .. . ... ... ... : ... .. . ... ... ... : ... .. . ... ... ... : ... .. . ... ... ... : ... .. . ... ... ... : ... .. . P83 ... ... : ... .. 8 ... ... ... : ... .. . ... ... ... : ... .. . ... ... ... : ... .. . ... ... ... : ... .. . ... ... ... : ... .. . ... ... ...
ROW F7 : ... .. . ... ... ... : ... .. . ... ... ... : ... .. . ... ... ... : --- .. . ... ... ... : ... .. . ... ... ... : --- .. . ... ... ... : --- .. . ... ... ... : --- .. . ... ... ... : --- .. . ... ... ... : ... .. . ... ... ... : ... .. . ... ... ... : ... .. . ... ... ... : ... .. . ... ... ...
ROW F8 : ... .. . ... ... ... : ... .. . ... ... ... : ... .. . ... ... ... : ... .. . ... ... ... : ... .. . ... ... ... : ... .. . ... ... ... : ... .. . P80 ... ... : ... .. . P80 ... ... : ... .. . P80 ... ... : ... .. . ... ... ... : ... .. . ... ... ... : ... .. . ... ... ... : ... .. . ... ... ...
ROW F9 : ... .. . ... ... ... : C-4 02 . P80 ... ... : F#3 00 . P78 ... ... : 1-# 00 F ... ... ... : C-1 12 . ... ... ... : G#1 06 F ... ... ... : G#1 06 F P81 ... ... : ... .. . ... ... ... : G#1 06 E P7F ... ... : G#2 06 B P81 ... ... : ... .. . ... ... ... : ... .. . ... ... ... : ... .. . ... ... ...
ROW FA : ... .. . ... ... ... : F-3 02 . ... ... ... : C#3 00 . P7E ... ... : 2-# 00 7 ... ... ... : ... .. . ... ... ... : ... .. . ... ... ... : ... .. . P80 ... ... : ... .. . ... ... ... : ... .. . ... ... ... : ... .. . ... ... ... : ... .. . ... ... ... : ... .. . ... ... ... : ... .. . ... ... ...
ROW FB : ... .. . ... ... ... : A#2 02 . P81 ... ... : A-2 00 . P86 ... ... : 1-# 00 4 ... ... ... : ... .. . ... ... ... : ... .. . ... ... ... : ... .. . P81 ... ... : ... .. . ... ... ... : ... .. . ... ... ... : ... .. . ... ... ... : ... .. . ... ... ... : ... .. . ... ... ... : ... .. . ... ... ...
ROW FC : ... .. . ... ... ... : D#2 02 . ... ... ... : --- .. . ... ... ... : ... .. 2 ... ... ... : ... .. . ... ... ... : G#1 07 . ... ... ... : G-1 07 . P80 ... ... : ... .. . ... ... ... : G#1 07 . ... ... ... : G#2 07 . ... ... ... : ... .. . ... ... ... : ... .. . ... ... ... : ... .. . ... ... ...
ROW FD : ... .. . ... ... ... : G#1 02 . ... ... ... : ... .. . ... ... ... : ... .. 1 ... ... ... : ... .. . ... ... ... : ... .. . ... ... ... : G#1 07 . P81 ... ... : ... .. . ... ... ... : ... .. . ... ... ... : ... .. A ... ... ... : ... .. . ... ... ... : ... .. . ... ... ... : ... .. . ... ... ...
ROW FE : ... .. . ... ... ... : C#1 02 . ... ... ... : ... .. . ... ... ... : --- .. . ... ... ... : ... .. . ... ... ... : ... .. . ... ... ... : ... .. . P80 ... ... : ... .. . ... ... ... : ... .. . ... ... ... : ... .. . ... ... ... : ... .. . ... ... ... : ... .. . ... ... ... : ... .. . ... ... ...
ROW FF : ... .. . ... ... ... : ... .. . ... ... ... : ... .. . ... ... ... : ... .. . ... ... ... : ... .. . ... ... ... : G#1 08 . ... ... ... : G#1 08 . P81 ... ... : ... .. . ... ... ... : G#1 08 . ... ... ... : G#2 08 . ... ... ... : ... .. . ... ... ... : ... .. . ... ... ... : ... .. . ... ... ...

PATTERN 12
ROW 00 : ... .. . ... ... ... : ... .. . ... ... ... : ... .. . ... ... ... : ... .. . ... ... ... : ... .. . ... ... ... : ... .. . ... ... ... : G-1 08 . P80 ... ... : ... .. . ... ... ... : ... .. . ... ... ... : ... .. . ... ... ... : ... .. . ... ... ... : ... .. . ... ... ... : ... .. . ... ... ...
ROW 01 : ... .. . ... ... ... : ... .. . ... ... ... : ... .. . ... ... ... : ... .. . ... ... ... : ... .. . ... ... ... : ... .. . ... ... ... : G#1 08 . P81 ... ... : ... .. . ... ... ... : ... .. D ... ... ... : ... .. 9 ... ... ... : ... .. . ... ... ... : ... .. . ... ... ... : ... .. . ... ... ...
ROW 02 : ... .. . ... ... ... : ... .. . ... ... ... : ... .. . ... ... ... : ... .. . ... ... ... : ... .. . ... ... ... : G#1 09 . ... ... ... : G#1 09 . P80 ... ... : ... .. . ... ... ... : G#1 09 . ... ... ... : G#2 09 . ... ... ... : ... .. . ... ... ... : ... .. . ... ... ... : ... .. . ... ... ...
ROW 03 : ... .. . ... ... ... : ... .. . ... ... ... : ... .. . ... ... ... : ... .. . ... ... ... : ... .. . ... ... ... : ... .. . ... ... ... : ... .. . P81 ... ... : ... .. . ... ... ... : ... .. . ... ... ... : ... .. . ... ... ... : ... .. . ... ... ... : ... .. . ... ... ... : ... .. . ... ... ...
ROW 04 : ... .. . ... ... ... : ... .. . ... ... ... : ... .. . ... ... ... : ... .. . ... ... ... : ... .. . ... ... ... : ... .. . ... ... ... : G-1 09 . P80 ... ... : ... .. . ... ... ... : ... .. . ... ... ... : ... .. . ... ... ... : ... .. . ... ... ... : ... .. . ... ... ... : ... .. . ... ... ...
ROW 05 : ... .. . ... ... ... : ... .. . ... ... ... : ... .. . ... ... ... : D-# 00 A ... ... ... : ... .. . ... ... ... : ... .. . ... ... ... : ... .. . ... ... ... : ... .. . ... ... ... : ... .. . ... ... ... : ... .. 8 ... ... ... : ... .. . ... ... ... : ... .. . ... ... ... : ... .. . ... ... ...
ROW 06 : ... .. . ... ... ... : ... .. . ... ... ... : ... .. . ... ... ... : E-# 00 4 ... ... ... : ... .. . ... ... ... : ... .. . ... ... ... : G#1 09 . P81 ... ... : ... .. . ... ... ... : ... .. . ... ... ... : ... .. . ... ... ... : ... .. . ... ... ... : ... .. . ... ... ... : ... .. . ... ... ...
ROW 07 : ... .. . ... ... ... : ... .. . ... ... ... : ... .. . ... ... ... : D-# 00 2 ... ... ... : ... .. . ... ... ... : ... .. . ... ... ... : ... .. . ... ... ... : ... .. . ... ... ... : ... .. . ... ... ... : ... .. . ... ... ... : ... .. . ... ... ... : ... .. . ... ... ... : ... .. . ... ... ...
ROW 08 : ... .. . ... ... ... : ... .. . ... ... ... : ... .. . ... ... ... : ... .. 1 ... ... ... : ... .. . ... ... ... : G#1 08 . ... ... ... : G-1 08 . P80 ... ... : ... .. . ... ... ... : G#1 08 . ... ... ... : G#2 08 . ... ... ... : ... .. . ... ... ... : ... .. . ... ... ... : ... .. . ... ... ...
ROW 09 : ... .. . ... ... ... : ... .. . ... ... ... : ... .. . ... ... ... : ... .. . ... ... ... : ... .. . ... ... ... : ... .. . ... ... ... : ... .. . ... ... ... : ... .. . ... ... ... : ... .. C ... ... ... : ... .. 7 ... ... ... : ... .. . ... ... ... : ... .. . ... ... ... : ... .. . ... ... ...
ROW 0A : ... .. . ... ... ... : ... .. . ... ... ... : ... .. . ... ... ... : --- .. . ... ... ... : ... .. . ... ... ... : ... .. . ... ... ... : G#1 08 . P81 ... ... : ... .. . ... ... ... : ... .. . ... ... ... : ... .. . ... ... ... : ... .. . ... ... ... : ... .. . ... ... ... : ... .. . ... ... ...
ROW 0B : ... .. . ... ... ... : ... .. . ... ... ... : ... .. . ... ... ... : D-# 00 A ... ... ... : ... .. . ... ... ... : G#1 07 . ... ... ... : G#1 07 . P80 ... ... : ... .. . ... ... ... : G#1 07 . ... ... ... : G#2 07 . ... ... ... : ... .. . ... ... ... : ... .. . ... ... ... : ... .. . ... ... ...
ROW 0C : ... .. . ... ... ... : ... .. . ... ... ... : ... .. . ... ... ... : E-# 00 4 ... ... ... : ... .. . ... ... ... : ... .. . ... ... ... : ... .. . P81 ... ... : ... .. . ... ... ... : ... .. . ... ... ... : ... .. . ... ... ... : ... .. . ... ... ... : ... .. . ... ... ... : ... .. . ... ... ...
ROW 0D : ... .. . ... ... ... : ... .. . ... ... ... : ... .. . ... ... ... : D-# 00 2 ... ... ... : ... .. . ... ... ... : ... .. . ... ... ... : G-1 07 . P80 ... ... : ... .. . ... ... ... : ... .. . ... ... ... : ... .. 6 ... ... ... : ... .. . ... ... ... : ... .. . ... ... ... : ... .. . ... ... ...
ROW 0E : ... .. . ... ... ... : ... .. . ... ... ... : ... .. . ... ... ... : ... .. 1 ... ... ... : ... .. . ... ... ... : G#1 06 . ... ... ... : G#1 06 . P81 ... ... : ... .. . ... ... ... : G#1 06 . ... ... ... : G#2 06 . ... ... ... : ... .. . ... ... ... : ... .. . ... ... ... : ... .. . ... ... ...
ROW 0F : ... .. . ... ... ... : ... .. . ... ... ... : ... .. . ... ... ... : ... .. . ... ... ... : ... .. . ... ... ... : ... .. . ... ... ... : ... .. . P80 ... ... : ... .. . ... ... ... : ... .. . ... ... ... : ... .. . ... ... ... : ... .. . ... ... ... : ... .. . ... ... ... : ... .. . ... ... ...
ROW 10 : ... .. . ... ... ... : ... .. . ... ... ... : ... .. . ... ... ... : --- .. . ... ... ... : ... .. . ... ... ... : ... .. . ... ... ... : ... .. . P81 ... ... : ... .. . ... ... ... : ... .. . ... ... ... : ... .. . ... ... ... : ... .. . ... ... ... : ... .. . ... ... ... : ... .. . ... ... ...
ROW 11 : ... .. . ... ... ... : ... .. . ... ... ... : ... .. . ... ... ... : ... .. . ... ... ... : ... .. . ... ... ... : ... .. . ... ... ... : G-1 06 . P80 ... ... : ... .. . ... ... ... : ... .. B ... ... ... : ... .. 5 ... ... ... : ... .. . ... ... ... : ... .. . ... ... ... : ... .. . ... ... ...
ROW 12 : ... .. . ... ... ... : C-4 02 . P80 ... ... : C#4 00 . P7F ... ... : 9-# 00 F ... ... ... : C#1 12 . ... ... ... : D-2 06 . ... ... ... : D-2 06 . P81 ... ... : ... .. . ... ... ... : D-2 06 . ... ... ... : D-3 06 . ... ... ... : ... .. . ... ... ... : ... .. . ... ... ... : ... .. . ... ... ...
ROW 13 : ... .. . ... ... ... : F-3 02 . ... ... ... : F#3 00 . P83 ... ... : 2-# 00 7 ... ... ... : ... .. . ... ... ... : ... .. . ... ... ... : ... .. . P80 ... ... : ... .. . ... ... ... : ... .. . ... ... ... : ... .. . ... ... ... : ... .. . ... ... ... : ... .. . ... ... ... : ... .. . ... ... ...
ROW 14 : ... .. . ... ... ... : A#2 02 . P81 ... ... : C#3 00 . P89 ... ... : 6-# 00 C ... ... ... : ... .. . ... ... ... : ... .. . ... ... ... : ... .. . P81 ... ... : ... .. . ... ... ... : ... .. . ... ... ... : ... .. . ... ... ... : ... .. . ... ... ... : ... .. . ... ... ... : ... .. . ... ... ...
ROW 15 : ... .. . ... ... ... : D#2 02 . ... ... ... : A#2 00 . P75 ... ... : 7-# 00 8 ... ... ... : ... .. . ... ... ... : D-2 08 . ... ... ... : C#2 08 . P7F ... ... : ... .. . ... ... ... : D-2 08 . ... ... ... : D-3 08 4 ... ... ... : ... .. . ... ... ... : ... .. . ... ... ... : ... .. . ... ... ...
ROW 16 : ... .. . ... ... ... : G#1 02 . ... ... ... : G-2 00 . P70 ... ... : 8-# 00 7 ... ... ... : ... .. . ... ... ... : ... .. . ... ... ... : D-2 08 . P82 ... ... : ... .. . ... ... ... : ... .. . ... ... ... : ... .. . ... ... ... : ... .. . ... ... ... : ... .. . ... ... ... : ... .. . ... ... ...
ROW 17 : ... .. . ... ... ... : C#1 02 . ... ... ... : E-2 00 . P7C ... ... : ... .. 6 ... ... ... : ... .. . ... ... ... : ... .. . ... ... ... : ... .. . P81 ... ... : ... .. . ... ... ... : ... .. . ... ... ... : ... .. . ... ... ... : ... .. . ... ... ... : ... .. . ... ... ... : ... .. . ... ... ...
ROW 18 : ... .. . ... ... ... : ... .. . ... ... ... : --- .. . ... ... ... : ... .. . ... ... ... : ... .. . ... ... ... : D-2 09 . ... ... ... : D-2 09 . ... ... ... : ... .. . ... ... ... : D-2 09 . ... ... ... : D-3 09 . ... ... ... : ... .. . ... ... ... : ... .. . ... ... ... : ... .. . ... ... ...
ROW 19 : ... .. . ... ... ... : ... .. . ... ... ... : ... .. . ... ... ... : ... .. 5 ... ... ... : ... .. . ... ... ... : ... .. . ... ... ... : ... .. . P82 ... ... : ... .. . ... ... ... : ... .. A ... ... ... : ... .. 3 ... ... ... : ... .. . ... ... ... : ... .. . ... ... ... : ... .. . ... ... ...
ROW 1A : ... .. . ... ... ... : ... .. . ... ... ... : ... .. . ... ... ... : ... .. . ... ... ... : ... .. . ... ... ... : ... .. . ... ... ... : C#2 09 . P7F ... ... : ... .. . ... ... ... : ... .. . ... ... ... : ... .. . ... ... ... : ... .. . ... ... ... : ... .. . ... ... ... : ... .. . ... ... ...
ROW 1B : ... .. . ... ... ... : ... .. . ... ... ... : ... .. . ... ... ... : ... .. 4 ... ... ... : ... .. . ... ... ... : D-2 07 . ... ... ... : D-2 07 . P81 ... ... : ... .. . ... ... ... : D-2 07 . ... ... ... : D-3 07 . ... ... ... : ... .. . ... ... ... : ... .. . ... ... ... : ... .. . ... ... ...
ROW 1C : ... .. . ... ... ... : ... .. . ... ... ... : ... .. . ... ... ... : ... .. . ... ... ... : ... .. . ... ... ... : ... .. . ... ... ... : ... .. . P80 ... ... : ... .. . ... ... ... : ... .. . ... ... ... : ... .. . ... ... ... : ... .. . ... ... ... : ... .. . ... ... ... : ... .. . ... ... ...
ROW 1D : ... .. . ... ... ... : ... .. . ... ... ... : ... .. . ... ... ... : ... .. 3 ... ... ... : ... .. . ... ... ... : ... .. . ... ... ... : ... .. . P81 ... ... : ... .. . ... ... ... : ... .. . ... ... ... : ... .. 2 ... ... ... : ... .. . ... ... ... : ... .. . ... ... ... : ... .. . ... ... ...
ROW 1E : ... .. . ... ... ... : ... .. . ... ... ... : ... .. . ... ... ... : D-# 00 A ... ... ... : ... .. . ... ... ... : D-2 06 . ... ... ... : C#2 06 . P7F ... ... : ... .. . ... ... ... : D-2 06 . ... ... ... : D-3 06 . ... ... ... : ... .. . ... ... ... : ... .. . ... ... ... : ... .. . ... ... ...
ROW 1F : ... .. . ... ... ... : ... .. . ... ... ... : ... .. . ... ... ... : E-# 00 4 ... ... ... : ... .. . ... ... ... : ... .. . ... ... ... : D-2 06 . P81 ... ... : ... .. . ... ... ... : ... .. . ... ... ... : ... .. . ... ... ... : ... .. . ... ... ... : ... .. . ... ... ... : ... .. . ... ... ...
ROW 20 : ... .. . ... ... ... : ... .. . ... ... ... : ... .. . ... ... ... : D-# 00 2 ... ... ... : ... .. . ... ... ... : ... .. . ... ... ... : ... .. . P80 ... ... : ... .. . ... ... ... : ... .. . ... ... ... : ... .. . ... ... ... : ... .. . ... ... ... : ... .. . ... ... ... : ... .. . ... ... ...
ROW 21 : ... .. . ... ... ... : ... .. . ... ... ... : ... .. . ... ... ... : ... .. 1 ... ... ... : ... .. . ... ... ... : D-2 08 . ... ... ... : D-2 08 . P81 ... ... : ... .. . ... ... ... : D-2 08 9 ... ... ... : D-3 08 1 ... ... ... : ... .. . ... ... ... : ... .. . ... ... ... : ... .. . ... ... ...
ROW 22 : ... .. . ... ... ... : ... .. . ... ... ... : ... .. . ... ... ... : ... .. . ... ... ... : ... .. . ... ... ... : ... .. . ... ... ... : C#2 08 . P7F ... ... : ... .. . ... ... ... : ... .. . ... ... ... : ... .. . ... ... ... : ... .. . ... ... ... : ... .. . ... ... ... : ... .. . ... ... ...
ROW 23 : ... .. . ... ... ... : ... .. . ... ... ... : ... .. . ... ... ... : --- .. . ... ... ... : ... .. . ... ... ... : ... .. . ... ... ... : D-2 08 . P81 ... ... : ... .. . ... ... ... : ... .. . ... ... ... : ... .. . ... ... ... : ... .. . ... ... ... : ... .. . ... ... ... : ... .. . ... ... ...
ROW 24 : ... .. . ... ... ... : ... .. . ... ... ... : ... .. . ... ... ... : D-# 00 A ... ... ... : ... .. . ... ... ... : D-2 09 . ... ... ... : D-2 09 . P80 ... ... : ... .. . ... ... ... : D-2 09 . ... ... ... : D-3 09 . ... ... ... : ... .. . ... ... ... : ... .. . ... ... ... : ... .. . ... ... ...
ROW 25 : ... .. . ... ... ... : ... .. . ... ... ... : ... .. . ... ... ... : E-# 00 4 ... ... ... : ... .. . ... ... ... : ... .. . ... ... ... : ... .. . P81 ... ... : ... .. . ... ... ... : ... .. . ... ... ... : --- .. . ... ... ... : ... .. . ... ... ... : ... .. . ... ... ... : ... .. . ... ... ...
ROW 26 : ... .. . ... ... ... : ... .. . ... ... ... : ... .. . ... ... ... : D-# 00 2 ... ... ... : ... .. . ... ... ... : ... .. . ... ... ... : ... .. . P82 ... ... : ... .. . ... ... ... : ... .. . ... ... ... : ... .. . P80 ... ... : ... .. . ... ... ... : ... .. . ... ... ... : ... .. . ... ... ...
ROW 27 : ... .. . ... ... ... : ... .. . ... ... ... : ... .. . ... ... ... : ... .. 1 ... ... ... : ... .. . ... ... ... : D-2 07 . ... ... ... : D-2 07 . ... ... ... : ... .. . ... ... ... : D-2 07 . ... ... ... : ... .. . ... ... ... : ... .. . ... ... ... : ... .. . ... ... ... : ... .. . ... ... ...
ROW 28 : ... .. . ... ... ... : ... .. . ... ... ... : ... .. . ... ... ... : ... .. . ... ... ... : ... .. . ... ... ... : ... .. . ... ... ... : ... .. . P81 ... ... : ... .. . ... ... ... : ... .. . ... ... ... : ... .. . ... ... ... : ... .. . ... ... ... : ... .. . ... ... ... : ... .. . ... ... ...
ROW 29 : ... .. . ... ... ... : ... .. . ... ... ... : ... .. . ... ... ... : --- .. . ... ... ... : ... .. . ... ... ... : ... .. . ... ... ... : ... .. . ... ... ... : ... .. . ... ... ... : ... .. 8 ... ... ... : ... .. . ... ... ... : ... .. . ... ... ... : ... .. . ... ... ... : ... .. . ... ... ...
ROW 2A : ... .. . ... ... ... : ... .. . ... ... ... : ... .. . ... ... ... : ... .. . ... ... ... : ... .. . ... ... ... : ... .. . ... ... ... : ... .. . P82 ... ... : ... .. . ... ... ... : ... .. . ... ... ... : ... .. . ... ... ... : ... .. . ... ... ... : ... .. . ... ... ... : ... .. . ... ... ...
ROW 2B : ... .. . ... ... ... : C-4 02 . P80 ... ... : F#3 00 . P78 ... ... : 1-# 00 F ... ... ... : C-1 12 . ... ... ... : C#2 06 . ... ... ... : C-2 06 . P7F ... ... : ... .. . ... ... ... : C#2 06 . ... ... ... : ... .. . ... ... ... : ... .. . ... ... ... : ... .. . ... ... ... : ... .. . ... ... ...
ROW 2C : ... .. . ... ... ... : F-3 02 . ... ... ... : C#3 00 . P7E ... ... : 2-# 00 7 ... ... ... : ... .. . ... ... ... : ... .. . ... ... ... : C#2 06 . P81 ... ... : ... .. . ... ... ... : ... .. . ... ... ... : ... .. . ... ... ... : ... .. . ... ... ... : ... .. . ... ... ... : ... .. . ... ... ...
ROW 2D : ... .. . ... ... ... : A#2 02 . P81 ... ... : A-2 00 . P86 ... ... : 1-# 00 4 ... ... ... : ... .. . ... ... ... : ... .. . ... ... ... : ... .. . P80 ... ... : ... .. . ... ... ... : ... .. . ... ... ... : ... .. . ... ... ... : ... .. . ... ... ... : ... .. . ... ... ... : ... .. . ... ... ...
ROW 2E : ... .. . ... ... ... : D#2 02 . ... ... ... : --- .. . ... ... ... : ... .. 2 ... ... ... : ... .. . ... ... ... : C#2 09 . ... ... ... : C#2 09 . P81 ... ... : ... .. . ... ... ... : C#2 09 . ... ... ... : ... .. . ... ... ... : ... .. . ... ... ... : ... .. . ... ... ... : ... .. . ... ... ...
ROW 2F : ... .. . ... ... ... : G#1 02 . ... ... ... : ... .. . ... ... ... : ... .. 1 ... ... ... : ... .. . ... ... ... : ... .. . ... ... ... : C-2 09 . P7F ... ... : ... .. . ... ... ... : ... .. . ... ... ... : ... .. . ... ... ... : ... .. . ... ... ... : ... .. . ... ... ... : ... .. . ... ... ...
ROW 30 : ... .. . ... ... ... : C#1 02 . ... ... ... : ... .. . ... ... ... : --- .. . ... ... ... : ... .. . ... ... ... : ... .. . ... ... ... : C#2 09 . P81 ... ... : ... .. . ... ... ... : ... .. . ... ... ... : ... .. . ... ... ... : ... .. . ... ... ... : ... .. . ... ... ... : ... .. . ... ... ...
ROW 31 : ... .. . ... ... ... : ... .. . ... ... ... : ... .. . ... ... ... : ... .. . ... ... ... : ... .. . ... ... ... : C#2 06 . ... ... ... : C#2 06 . P80 ... ... : ... .. . ... ... ... : C#2 06 7 ... ... ... : ... .. . ... ... ... : ... .. . ... ... ... : ... .. . ... ... ... : ... .. . ... ... ...
ROW 32 : ... .. . ... ... ... : ... .. . ... ... ... : ... .. . ... ... ... : ... .. . ... ... ... : ... .. . ... ... ... : ... .. . ... ... ... : ... .. . P81 ... ... : ... .. . ... ... ... : ... .. . ... ... ... : ... .. . ... ... ... : ... .. . ... ... ... : ... .. . ... ... ... : ... .. . ... ... ...
ROW 33 : ... .. . ... ... ... : ... .. . ... ... ... : ... .. . ... ... ... : ... .. . ... ... ... : ... .. . ... ... ... : ... .. . ... ... ... : C-2 06 . P7F ... ... : ... .. . ... ... ... : ... .. . ... ... ... : ... .. . ... ... ... : ... .. . ... ... ... : ... .. . ... ... ... : ... .. . ... ... ...
ROW 34 : ... .. . ... ... ... : ... .. . ... ... ... : ... .. . ... ... ... : ... .. . ... ... ... : ... .. . ... ... ... : C#2 09 . ... ... ... : C#2 09 . P81 ... ... : ... .. . ... ... ... : C#2 09 . ... ... ... : ... .. . ... ... ... : ... .. . ... ... ... : ... .. . ... ... ... : ... .. . ... ... ...
ROW 35 : ... .. . ... ... ... : ... .. . ... ... ... : ... .. . ... ... ... : ... .. . ... ... ... : ... .. . ... ... ... : ... .. . ... ... ... : ... .. . P80 ... ... : ... .. . ... ... ... : ... .. . ... ... ... : ... .. . ... ... ... : ... .. . ... ... ... : ... .. . ... ... ... : ... .. . ... ... ...
ROW 36 : ... .. . ... ... ... : ... .. . ... ... ... : ... .. . ... ... ... : ... .. . ... ... ... : ... .. . ... ... ... : ... .. . ... ... ... : ... .. . P81 ... ... : ... .. . ... ... ... : ... .. . ... ... ... : ... .. . ... ... ... : ... .. . ... ... ... : ... .. . ... ... ... : ... .. . ... ... ...
ROW 37 : ... .. . ... ... ... : ... .. . ... ... ... : ... .. . ... ... ... : D-# 00 A ... ... ... : ... .. . ... ... ... : C#2 06 . ... ... ... : C#2 06 . P82 ... ... : ... .. . ... ... ... : C#2 06 . ... ... ... : ... .. . ... ... ... : ... .. . ... ... ... : ... .. . ... ... ... : ... .. . ... ... ...
ROW 38 : ... .. . ... ... ... : ... .. . ... ... ... : ... .. . ... ... ... : E-# 00 4 ... ... ... : ... .. . ... ... ... : ... .. . ... ... ... : ... .. . ... ... ... : ... .. . ... ... ... : ... .. . ... ... ... : ... .. . ... ... ... : ... .. . ... ... ... : ... .. . ... ... ... : ... .. . ... ... ...
ROW 39 : ... .. . ... ... ... : ... .. . ... ... ... : ... .. . ... ... ... : D-# 00 2 ... ... ... : ... .. . ... ... ... : ... .. . ... ... ... : ... .. . P81 ... ... : ... .. . ... ... ... : ... .. 6 ... ... ... : ... .. . ... ... ... : ... .. . ... ... ... : ... .. . ... ... ... : ... .. . ... ... ...
ROW 3A : ... .. . ... ... ... : ... .. . ... ... ... : ... .. . ... ... ... : ... .. 1 ... ... ... : ... .. . ... ... ... : C#2 09 . ... ... ... : C#2 09 . P80 ... ... : ... .. . ... ... ... : C#2 09 . ... ... ... : ... .. . ... ... ... : ... .. . ... ... ... : ... .. . ... ... ... : ... .. . ... ... ...
ROW 3B : ... .. . ... ... ... : ... .. . ... ... ... : ... .. . ... ... ... : ... .. . ... ... ... : ... .. . ... ... ... : ... .. . ... ... ... : ... .. . P81 ... ... : ... .. . ... ... ... : ... .. . ... ... ... : ... .. . ... ... ... : ... .. . ... ... ... : ... .. . ... ... ... : ... .. . ... ... ...
ROW 3C : ... .. . ... ... ... : ... .. . ... ... ... : ... .. . ... ... ... : --- .. . ... ... ... : ... .. . ... ... ... : ... .. . ... ... ... : C-2 09 . P7F ... ... : ... .. . ... ... ... : ... .. . ... ... ... : ... .. . ... ... ... : ... .. . ... ... ... : ... .. . ... ... ... : ... .. . ... ... ...
ROW 3D : ... .. . ... ... ... : ... .. . ... ... ... : ... .. . ... ... ... : D-# 00 A ... ... ... : ... .. . ... ... ... : C#2 06 . ... ... ... : C#2 06 . P81 ... ... : ... .. . ... ... ... : C#2 06 . ... ... ... : ... .. . ... ... ... : ... .. . ... ... ... : ... .. . ... ... ... : ... .. . ... ... ...
ROW 3E : ... .. . ... ... ... : ... .. . ... ... ... : ... .. . ... ... ... : E-# 00 4 ... ... ... : ... .. . ... ... ... : ... .. . ... ... ... : ... .. . P80 ... ... : ... .. . ... ... ... : ... .. . ... ... ... : ... .. . ... ... ... : ... .. . ... ... ... : ... .. . ... ... ... : ... .. . ... ... ...
ROW 3F : ... .. . ... ... ... : ... .. . ... ... ... : ... .. . ... ... ... : D-# 00 2 ... ... ... : ... .. . ... ... ... : ... .. . ... ... ... : ... .. . P81 ... ... : ... .. . ... ... ... : ... .. . ... ... ... : ... .. . ... ... ... : ... .. . ... ... ... : ... .. . ... ... ... : ... .. . ... ... ...
ROW 40 : ... .. . ... ... ... : ... .. . ... ... ... : ... .. . ... ... ... : ... .. 1 ... ... ... : ... .. . ... ... ... : C#2 09 . ... ... ... : C-2 09 . P7F ... ... : ... .. . ... ... ... : C#2 09 . ... ... ... : ... .. . ... ... ... : ... .. . ... ... ... : ... .. . ... ... ... : ... .. . ... ... ...
ROW 41 : ... .. . ... ... ... : ... .. . ... ... ... : ... .. . ... ... ... : ... .. . ... ... ... : ... .. . ... ... ... : ... .. . ... ... ... : C#2 09 . P81 ... ... : ... .. . ... ... ... : ... .. 5 ... ... ... : ... .. . ... ... ... : ... .. . ... ... ... : ... .. . ... ... ... : ... .. . ... ... ...
ROW 42 : ... .. . ... ... ... : ... .. . ... ... ... : ... .. . ... ... ... : --- .. . ... ... ... : ... .. . ... ... ... : ... .. . ... ... ... : ... .. . P80 ... ... : ... .. . ... ... ... : ... .. . ... ... ... : ... .. . ... ... ... : ... .. . ... ... ... : ... .. . ... ... ... : ... .. . ... ... ...
ROW 43 : ... .. . ... ... ... : ... .. . ... ... ... : ... .. . ... ... ... : ... .. . ... ... ... : ... .. . ... ... ... : ... .. . ... ... ... : ... .. . P81 ... ... : ... .. . ... ... ... : ... .. . ... ... ... : ... .. . ... ... ... : ... .. . ... ... ... : ... .. . ... ... ... : ... .. . ... ... ...
ROW 44 : ... .. . ... ... ... : C-4 02 . P80 ... ... : C#4 00 . P7F ... ... : 9-# 00 F ... ... ... : C#1 12 . ... ... ... : F#1 06 . ... ... ... : F-1 06 . P80 ... ... : ... .. . ... ... ... : F#1 06 . ... ... ... : ... .. . ... ... ... : ... .. . ... ... ... : ... .. . ... ... ... : ... .. . ... ... ...
ROW 45 : ... .. . ... ... ... : F-3 02 . ... ... ... : F#3 00 . P83 ... ... : 2-# 00 7 ... ... ... : ... .. . ... ... ... : ... .. . ... ... ... : ... .. . ... ... ... : ... .. . ... ... ... : ... .. . ... ... ... : ... .. . ... ... ... : ... .. . ... ... ... : ... .. . ... ... ... : ... .. . ... ... ...
ROW 46 : ... .. . ... ... ... : A#2 02 . P81 ... ... : C#3 00 . P89 ... ... : 6-# 00 C ... ... ... : ... .. . ... ... ... : ... .. . ... ... ... : F#1 06 . P81 ... ... : ... .. . ... ... ... : ... .. . ... ... ... : ... .. . ... ... ... : ... .. . ... ... ... : ... .. . ... ... ... : ... .. . ... ... ...
ROW 47 : ... .. . ... ... ... : D#2 02 . ... ... ... : A#2 00 . P75 ... ... : 7-# 00 8 ... ... ... : ... .. . ... ... ... : ... .. . ... ... ... : ... .. . ... ... ... : ... .. . ... ... ... : ... .. . ... ... ... : ... .. . ... ... ... : ... .. . ... ... ... : ... .. . ... ... ... : ... .. . ... ... ...
ROW 48 : ... .. . ... ... ... : G#1 02 . ... ... ... : G-2 00 . P70 ... ... : 8-# 00 7 ... ... ... : ... .. . ... ... ... : ... .. . ... ... ... : F-1 06 . P80 ... ... : ... .. . ... ... ... : ... .. . ... ... ... : ... .. . ... ... ... : ... .. . ... ... ... : ... .. . ... ... ... : ... .. . ... ... ...
ROW 49 : ... .. . ... ... ... : C#1 02 . ... ... ... : E-2 00 . P7C ... ... : ... .. 6 ... ... ... : ... .. . ... ... ... : ... .. . ... ... ... : ... .. . ... ... ... : ... .. . ... ... ... : ... .. 4 ... ... ... : ... .. . ... ... ... : ... .. . ... ... ... : ... .. . ... ... ... : ... .. . ... ... ...
ROW 4A : ... .. . ... ... ... : ... .. . ... ... ... : --- .. . ... ... ... : ... .. . ... ... ... : ... .. . ... ... ... : F#1 07 . ... ... ... : F#1 07 . P81 ... ... : ... .. . ... ... ... : F#1 07 . ... ... ... : ... .. . ... ... ... : ... .. . ... ... ... : ... .. . ... ... ... : ... .. . ... ... ...
ROW 4B : ... .. . ... ... ... : ... .. . ... ... ... : ... .. . ... ... ... : ... .. 5 ... ... ... : ... .. . ... ... ... : ... .. . ... ... ... : ... .. . P80 ... ... : ... .. . ... ... ... : ... .. . ... ... ... : ... .. . ... ... ... : ... .. . ... ... ... : ... .. . ... ... ... : ... .. . ... ... ...
ROW 4C : ... .. . ... ... ... : ... .. . ... ... ... : ... .. . ... ... ... : ... .. . ... ... ... : ... .. . ... ... ... : ... .. . ... ... ... : ... .. . P81 ... ... : ... .. . ... ... ... : ... .. . ... ... ... : ... .. . ... ... ... : ... .. . ... ... ... : ... .. . ... ... ... : ... .. . ... ... ...
ROW 4D : ... .. . ... ... ... : ... .. . ... ... ... : ... .. . ... ... ... : ... .. 4 ... ... ... : ... .. . ... ... ... : F-1 07 . ... ... ... : E-1 07 . P80 ... ... : ... .. . ... ... ... : ... .. . P81 ... ... : ... .. . ... ... ... : ... .. . ... ... ... : ... .. . ... ... ... : ... .. . ... ... ...
ROW 4E : ... .. . ... ... ... : ... .. . ... ... ... : ... .. . ... ... ... : ... .. . ... ... ... : ... .. . ... ... ... : E-1 07 . ... ... ... : ... .. . P81 ... ... : ... .. . ... ... ... : F-1 07 . ... ... ... : ... .. . ... ... ... : ... .. . ... ... ... : ... .. . ... ... ... : ... .. . ... ... ...
ROW 4F : ... .. . ... ... ... : ... .. . ... ... ... : ... .. . ... ... ... : ... .. 3 ... ... ... : ... .. . ... ... ... : D#1 07 . ... ... ... : D#1 07 . P80 ... ... : ... .. . ... ... ... : E-1 07 . ... ... ... : ... .. . ... ... ... : ... .. . ... ... ... : ... .. . ... ... ... : ... .. . ... ... ...
ROW 50 : ... .. . ... ... ... : ... .. . ... ... ... : ... .. . ... ... ... : 6-# 01 F ... ... ... : ... .. . ... ... ... : D-1 08 . P81 ... ... : C#1 08 . ... ... ... : ... .. . ... ... ... : D-1 08 . P80 ... ... : ... .. . ... ... ... : ... .. . ... ... ... : ... .. . ... ... ... : ... .. . ... ... ...
ROW 51 : ... .. . ... ... ... : ... .. . ... ... ... : ... .. . ... ... ... : ... .. 9 ... ... ... : ... .. . ... ... ... : C#1 08 . ... ... ... : B-0 08 . ... ... ... : ... .. . ... ... ... : C#1 08 3 ... ... ... : ... .. . ... ... ... : ... .. . ... ... ... : ... .. . ... ... ... : ... .. . ... ... ...
ROW 52 : ... .. . ... ... ... : ... .. . ... ... ... : ... .. . ... ... ... : ... .. 4 ... ... ... : ... .. . ... ... ... : B-0 08 . P80 ... ... : ... .. . P81 ... ... : ... .. . ... ... ... : C-1 08 . ... ... ... : ... .. . ... ... ... : ... .. . ... ... ... : ... .. . ... ... ... : ... .. . ... ... ...
ROW 53 : ... .. . ... ... ... : ... .. . ... ... ... : ... .. . ... ... ... : ... .. 7 ... ... ... : ... .. . ... ... ... : A#0 08 . ... ... ... : A#0 08 . P80 ... ... : ... .. . ... ... ... : B-0 08 . P81 ... ... : ... .. . ... ... ... : ... .. . ... ... ... : ... .. . ... ... ... : ... .. . ... ... ...
ROW 54 : ... .. . ... ... ... : ... .. . ... ... ... : ... .. . ... ... ... : ... .. 5 ... ... ... : ... .. . ... ... ... : A-0 08 . P81 ... ... : G#0 08 . P81 ... ... : ... .. . ... ... ... : A-0 08 . P80 ... ... : ... .. . ... ... ... : ... .. . ... ... ... : ... .. . ... ... ... : ... .. . ... ... ...
ROW 55 : ... .. . ... ... ... : ... .. . ... ... ... : ... .. . ... ... ... : ... .. . ... ... ... : ... .. . ... ... ... : G-0 08 . ... ... ... : F-0 08 . P80 ... ... : ... .. . ... ... ... : G#0 08 . P81 ... ... : ... .. . ... ... ... : ... .. . ... ... ... : ... .. . ... ... ... : ... .. . ... ... ...
ROW 56 : ... .. . ... ... ... : ... .. . ... ... ... : ... .. . ... ... ... : ... .. 4 ... ... ... : ... .. . ... ... ... : F-0 09 . P80 ... ... : E-0 09 . P81 ... ... : ... .. . ... ... ... : F#0 09 . P80 ... ... : ... .. . ... ... ... : ... .. . ... ... ... : ... .. . ... ... ... : ... .. . ... ... ...
ROW 57 : ... .. . ... ... ... : ... .. . ... ... ... : ... .. . ... ... ... : ... .. . ... ... ... : ... .. . ... ... ... : D#0 09 . ... ... ... : D#0 09 . ... ... ... : ... .. . ... ... ... : E-0 09 . ... ... ... : ... .. . ... ... ... : ... .. . ... ... ... : ... .. . ... ... ... : ... .. . ... ... ...
ROW 58 : ... .. . ... ... ... : ... .. . ... ... ... : ... .. . ... ... ... : ... .. 3 ... ... ... : ... .. . ... ... ... : C#0 09 . P81 ... ... : C-0 09 . P80 ... ... : ... .. . ... ... ... : D-0 09 . ... ... ... : ... .. . ... ... ... : ... .. . ... ... ... : ... .. . ... ... ... : ... .. . ... ... ...
ROW 59 : ... .. . ... ... ... : ... .. . ... ... ... : ... .. . ... ... ... : ... .. 2 ... ... ... : ... .. . ... ... ... : C-0 09 . P82 ... ... : ... .. . P83 ... ... : ... .. . ... ... ... : C-0 09 2 P81 ... ... : ... .. . ... ... ... : ... .. . ... ... ... : ... .. . ... ... ... : ... .. . ... ... ...
ROW 5A : ... .. . ... ... ... : ... .. . ... ... ... : ... .. . ... ... ... : ... .. . ... ... ... : ... .. . ... ... ... : ... .. . P84 ... ... : ... .. . P86 ... ... : ... .. . ... ... ... : ... .. . P83 ... ... : ... .. . ... ... ... : ... .. . ... ... ... : ... .. . ... ... ... : ... .. . ... ... ...
ROW 5B : ... .. . ... ... ... : ... .. . ... ... ... : ... .. . ... ... ... : ... .. 1 ... ... ... : ... .. . ... ... ... : ... .. . P86 ... ... : ... .. . P87 ... ... : ... .. . ... ... ... : ... .. . P85 ... ... : ... .. . ... ... ... : ... .. . ... ... ... : ... .. . ... ... ... : ... .. . ... ... ...
ROW 5C : ... .. . ... ... ... : ... .. . ... ... ... : ... .. . ... ... ... : ... .. . ... ... ... : ... .. . ... ... ... : --- .. . P7A ... ... : --- .. . P7A ... ... : ... .. . ... ... ... : ... .. . P87 ... ... : ... .. . ... ... ... : ... .. . ... ... ... : ... .. . ... ... ... : ... .. . ... ... ...
ROW 5D : ... .. . ... ... ... : C-4 02 . P80 ... ... : F#3 00 . P78 ... ... : 1-# 00 F ... ... ... : C-1 12 . ... ... ... : G-4 04 A P78 ... ... : A-4 04 A P81 ... ... : ... .. . ... ... ... : F#4 04 9 P89 ... ... : G-4 04 9 P81 ... ... : ... .. . ... ... ... : ... .. . ... ... ... : ... .. . ... ... ...
ROW 5E : ... .. . ... ... ... : F-3 02 . ... ... ... : C#3 00 . P7E ... ... : 2-# 00 7 ... ... ... : ... .. . ... ... ... : G#4 04 . P84 ... ... : ... .. . P82 ... ... : ... .. . ... ... ... : ... .. . P81 ... ... : ... .. . ... ... ... : ... .. . ... ... ... : ... .. . ... ... ... : ... .. . ... ... ...
ROW 5F : ... .. . ... ... ... : A#2 02 . P81 ... ... : A-2 00 . P86 ... ... : 1-# 00 4 ... ... ... : ... .. . ... ... ... : ... .. . P7C ... ... : ... .. . P81 ... ... : ... .. . ... ... ... : ... .. . P79 ... ... : ... .. . ... ... ... : ... .. . ... ... ... : ... .. . ... ... ... : ... .. . ... ... ...
ROW 60 : ... .. . ... ... ... : D#2 02 . ... ... ... : --- .. . ... ... ... : ... .. 2 ... ... ... : ... .. . ... ... ... : --- .. . ... ... ... : --- .. . ... ... ... : ... .. . ... ... ... : --- .. . ... ... ... : --- .. . ... ... ... : ... .. . ... ... ... : ... .. . ... ... ... : ... .. . ... ... ...
ROW 61 : ... .. . ... ... ... : G#1 02 . ... ... ... : ... .. . ... ... ... : ... .. 1 ... ... ... : ... .. . ... ... ... : ... .. . P80 ... ... : ... .. . P80 ... ... : ... .. . ... ... ... : ... .. . P80 ... ... : ... .. . P80 ... ... : ... .. . ... ... ... : ... .. . ... ... ... : ... .. . ... ... ...
ROW 62 : ... .. . ... ... ... : C#1 02 . ... ... ... : ... .. . ... ... ... : --- .. . ... ... ... : ... .. . ... ... ... : ... .. . ... ... ... : ... .. . ... ... ... : ... .. . ... ... ... : ... .. . ... ... ... : ... .. . ... ... ... : ... .. . ... ... ... : ... .. . ... ... ... : ... .. . ... ... ...
ROW 63 : ... .. . ... ... ... : ... .. . ... ... ... : ... .. . ... ... ... : 1-# 00 F ... ... ... : C-1 12 . ... ... ... : A-4 04 . P7A ... ... : A-4 04 . P83 ... ... : ... .. . ... ... ... : G#4 04 . P88 ... ... : G-4 04 . P83 ... ... : ... .. . ... ... ... : ... .. . ... ... ... : ... .. . ... ... ...
ROW 64 : ... .. . ... ... ... : ... .. . ... ... ... : ... .. . ... ... ... : 2-# 00 7 ... ... ... : ... .. . ... ... ... : ... .. . P7C ... ... : ... .. . P84 ... ... : ... .. . ... ... ... : ... .. . P8A ... ... : ... .. . P85 ... ... : ... .. . ... ... ... : ... .. . ... ... ... : ... .. . ... ... ...
ROW 65 : ... .. . ... ... ... : ... .. . ... ... ... : ... .. . ... ... ... : 1-# 00 4 ... ... ... : ... .. . ... ... ... : ... .. . P7E ... ... : ... .. . P87 ... ... : ... .. . ... ... ... : G-4 04 . P79 ... ... : ... .. . P87 ... ... : ... .. . ... ... ... : ... .. . ... ... ... : ... .. . ... ... ...
ROW 66 : ... .. . ... ... ... : ... .. . ... ... ... : ... .. . ... ... ... : ... .. 2 ... ... ... : ... .. . ... ... ... : --- .. . ... ... ... : --- .. . ... ... ... : ... .. . ... ... ... : --- .. . ... ... ... : --- .. . ... ... ... : ... .. . ... ... ... : ... .. . ... ... ... : ... .. . ... ... ...
ROW 67 : ... .. . ... ... ... : ... .. . ... ... ... : ... .. . ... ... ... : ... .. 1 ... ... ... : ... .. . ... ... ... : ... .. . P80 ... ... : ... .. . P80 ... ... : ... .. . ... ... ... : ... .. . P80 ... ... : ... .. . P80 ... ... : ... .. . ... ... ... : ... .. . ... ... ... : ... .. . ... ... ...
ROW 68 : ... .. . ... ... ... : ... .. . ... ... ... : ... .. . ... ... ... : --- .. . ... ... ... : ... .. . ... ... ... : ... .. . ... ... ... : ... .. . ... ... ... : ... .. . ... ... ... : ... .. . ... ... ... : ... .. . ... ... ... : ... .. . ... ... ... : ... .. . ... ... ... : ... .. . ... ... ...
ROW 69 : ... .. . ... ... ... : ... .. . ... ... ... : ... .. . ... ... ... : A-# 00 F ... ... ... : C-1 12 . ... ... ... : G#4 04 . P7E ... ... : G#4 04 . P87 ... ... : ... .. . ... ... ... : F#4 04 . P7B ... ... : F-4 04 . P78 ... ... : ... .. . ... ... ... : ... .. . ... ... ... : ... .. . ... ... ...
ROW 6A : ... .. . ... ... ... : ... .. . ... ... ... : ... .. . ... ... ... : 6-# 00 9 ... ... ... : ... .. . ... ... ... : G-4 04 . P78 ... ... : G-4 04 . P82 ... ... : ... .. . ... ... ... : ... .. . P89 ... ... : ... .. . P86 ... ... : ... .. . ... ... ... : ... .. . ... ... ... : ... .. . ... ... ...
ROW 6B : ... .. . ... ... ... : ... .. . ... ... ... : ... .. . ... ... ... : 7-# 00 C ... ... ... : ... .. . ... ... ... : ... .. . P86 ... ... : F#4 04 . P7F ... ... : ... .. . ... ... ... : F-4 04 . P85 ... ... : E-4 04 . P84 ... ... : ... .. . ... ... ... : ... .. . ... ... ... : ... .. . ... ... ...
ROW 6C : ... .. . ... ... ... : ... .. . ... ... ... : ... .. . ... ... ... : ... .. 8 ... ... ... : ... .. . ... ... ... : F#4 04 . P82 ... ... : F-4 04 . P7B ... ... : ... .. . ... ... ... : E-4 04 . P83 ... ... : D#4 04 . P83 ... ... : ... .. . ... ... ... : ... .. . ... ... ... : ... .. . ... ... ...
ROW 6D : ... .. . ... ... ... : ... .. . ... ... ... : ... .. . ... ... ... : 8-# 00 7 ... ... ... : ... .. . ... ... ... : F-4 04 . P7F ... ... : ... .. . P88 ... ... : ... .. . ... ... ... : D#4 04 . P82 ... ... : D-4 04 8 P82 ... ... : ... .. . ... ... ... : ... .. . ... ... ... : ... .. . ... ... ...
ROW 6E : ... .. . ... ... ... : ... .. . ... ... ... : ... .. . ... ... ... : ... .. 8 ... ... ... : ... .. . ... ... ... : E-4 04 . P7D ... ... : E-4 04 . P87 ... ... : ... .. . ... ... ... : D-4 04 . ... ... ... : C#4 04 . P83 ... ... : ... .. . ... ... ... : ... .. . ... ... ... : ... .. . ... ... ...
ROW 6F : ... .. . ... ... ... : ... .. . ... ... ... : ... .. . ... ... ... : 9-# 00 7 ... ... ... : ... .. . ... ... ... : D#4 04 . P7C ... ... : D#4 04 . P86 ... ... : ... .. . ... ... ... : C#4 04 . ... ... ... : C-4 04 . P84 ... ... : ... .. . ... ... ... : ... .. . ... ... ... : ... .. . ... ... ...
ROW 70 : ... .. . ... ... ... : ... .. . ... ... ... : ... .. . ... ... ... : ... .. 6 ... ... ... : ... .. . ... ... ... : D-4 04 . P7B ... ... : D-4 04 . P85 ... ... : ... .. . ... ... ... : C-4 04 . P83 ... ... : B-3 04 . P86 ... ... : ... .. . ... ... ... : ... .. . ... ... ... : ... .. . ... ... ...
ROW 71 : ... .. . ... ... ... : ... .. . ... ... ... : ... .. . ... ... ... : ... .. 5 ... ... ... : ... .. . ... ... ... : C#4 04 . P7C ... ... : C#4 04 . P84 ... ... : ... .. . ... ... ... : B-3 04 8 P85 ... ... : A-3 04 7 P7E ... ... : ... .. . ... ... ... : ... .. . ... ... ... : ... .. . ... ... ...
ROW 72 : ... .. . ... ... ... : ... .. . ... ... ... : ... .. . ... ... ... : ... .. . ... ... ... : ... .. . ... ... ... : C-4 04 . P7D ... ... : C-4 04 . P87 ... ... : ... .. . ... ... ... : A-3 04 . P7D ... ... : G#3 04 . P82 ... ... : ... .. . ... ... ... : ... .. . ... ... ... : ... .. . ... ... ...
ROW 73 : ... .. . ... ... ... : ... .. . ... ... ... : ... .. . ... ... ... : ... .. . ... ... ... : ... .. . ... ... ... : B-3 04 . P7F ... ... : A#3 04 . P7E ... ... : ... .. . ... ... ... : G#3 04 . P81 ... ... : F#3 04 . P7D ... ... : ... .. . ... ... ... : ... .. . ... ... ... : ... .. . ... ... ...
ROW 74 : ... .. . ... ... ... : ... .. . ... ... ... : ... .. . ... ... ... : ... .. . ... ... ... : ... .. . ... ... ... : A#3 04 . P82 ... ... : A-3 04 . P80 ... ... : ... .. . ... ... ... : F#3 04 . P7C ... ... : F-3 04 . P82 ... ... : ... .. . ... ... ... : ... .. . ... ... ... : ... .. . ... ... ...
ROW 75 : ... .. . ... ... ... : ... .. . ... ... ... : ... .. . ... ... ... : ... .. . ... ... ... : ... .. . ... ... ... : A-3 04 . P85 ... ... : G#3 04 . P83 ... ... : ... .. . ... ... ... : F-3 04 . P82 ... ... : D#3 04 6 P81 ... ... : ... .. . ... ... ... : ... .. . ... ... ... : ... .. . ... ... ...
ROW 76 : ... .. . ... ... ... : C-4 02 . P80 ... ... : C#4 00 . P7F ... ... : ... .. F ... ... ... : C#1 12 . ... ... ... : G#1 04 F P80 ... ... : F#3 04 . P7F ... ... : G-1 04 9 ... ... ... : A-1 04 9 ... ... ... : C#3 04 . ... ... ... : ... .. . ... ... ... : ... .. . ... ... ... : ... .. . ... ... ...
ROW 77 : ... .. . ... ... ... : F-3 02 . ... ... ... : F#3 00 . P83 ... ... : 2-# 00 7 ... ... ... : ... .. . ... ... ... : ... .. . ... ... ... : E-3 04 . P7D ... ... : ... .. . ... ... ... : ... .. . ... ... ... : B-2 04 . P82 ... ... : ... .. . ... ... ... : ... .. . ... ... ... : ... .. . ... ... ...
ROW 78 : ... .. . ... ... ... : A#2 02 . P81 ... ... : C#3 00 . P89 ... ... : 6-# 00 C ... ... ... : ... .. . ... ... ... : ... .. . ... ... ... : D#3 04 . P84 ... ... : ... .. . ... ... ... : ... .. . ... ... ... : G#2 04 . P80 ... ... : ... .. . ... ... ... : ... .. . ... ... ... : ... .. . ... ... ...
ROW 79 : ... .. . ... ... ... : D#2 02 . ... ... ... : A#2 00 . P75 ... ... : 7-# 00 8 ... ... ... : ... .. . ... ... ... : ... .. . ... ... ... : C#3 04 . P83 ... ... : ... .. . ... ... ... : ... .. . ... ... ... : F-2 04 5 ... ... ... : ... .. . ... ... ... : ... .. . ... ... ... : ... .. . ... ... ...
ROW 7A : ... .. . ... ... ... : G#1 02 . ... ... ... : G-2 00 . P70 ... ... : 8-# 00 7 ... ... ... : ... .. . ... ... ... : ... .. . ... ... ... : A#2 04 . P7E ... ... : ... .. 8 ... ... ... : ... .. . ... ... ... : C#2 04 . ... ... ... : ... .. . ... ... ... : ... .. . ... ... ... : ... .. . ... ... ...
ROW 7B : ... .. . ... ... ... : C#1 02 . ... ... ... : E-2 00 . P7C ... ... : ... .. 6 ... ... ... : ... .. . ... ... ... : ... .. . ... ... ... : G#2 04 . P83 ... ... : ... .. . ... ... ... : ... .. . ... ... ... : G#1 04 . P7F ... ... : ... .. . ... ... ... : ... .. . ... ... ... : ... .. . ... ... ...
ROW 7C : ... .. . ... ... ... : ... .. . ... ... ... : --- .. . ... ... ... : ... .. . ... ... ... : ... .. . ... ... ... : G#2 04 . ... ... ... : E-2 04 . P80 ... ... : G#2 04 . P82 ... ... : G#2 04 . P7F ... ... : D-1 04 . P81 ... ... : ... .. . ... ... ... : ... .. . ... ... ... : ... .. . ... ... ...
ROW 7D : ... .. . ... ... ... : ... .. . ... ... ... : ... .. . ... ... ... : ... .. 5 ... ... ... : ... .. . ... ... ... : ... .. . ... ... ... : C#2 04 . P82 ... ... : ... .. . ... ... ... : ... .. . ... ... ... : D#0 04 4 ... ... ... : ... .. . ... ... ... : ... .. . ... ... ... : ... .. . ... ... ...
ROW 7E : ... .. . ... ... ... : ... .. . ... ... ... : ... .. . ... ... ... : ... .. . ... ... ... : ... .. . ... ... ... : ... .. . ... ... ... : G#1 04 . P81 ... ... : ... .. 7 ... ... ... : ... .. 8 ... ... ... : --- .. . P7F ... ... : ... .. . ... ... ... : ... .. . ... ... ... : ... .. . ... ... ...
ROW 7F : ... .. . ... ... ... : ... .. . ... ... ... : ... .. . ... ... ... : ... .. 4 ... ... ... : ... .. . ... ... ... : ... .. . ... ... ... : C-1 04 . P80 ... ... : ... .. . ... ... ... : ... .. . ... ... ... : D#7 04 . P81 ... ... : ... .. . ... ... ... : ... .. . ... ... ... : ... .. . ... ... ...
ROW 80 : ... .. . ... ... ... : ... .. . ... ... ... : ... .. . ... ... ... : ... .. . ... ... ... : ... .. . ... ... ... : ... .. . ... ... ... : C-0 04 . P81 ... ... : ... .. . ... ... ... : ... .. . ... ... ... : ... .. . ... ... ... : ... .. . ... ... ... : ... .. . ... ... ... : ... .. . ... ... ...
ROW 81 : ... .. . ... ... ... : ... .. . ... ... ... : ... .. . ... ... ... : ... .. 3 ... ... ... : ... .. . ... ... ... : ... .. . ... ... ... : D#7 04 . ... ... ... : ... .. . ... ... ... : ... .. . ... ... ... : ... .. 3 ... ... ... : ... .. . ... ... ... : ... .. . ... ... ... : ... .. . ... ... ...
ROW 82 : ... .. . ... ... ... : ... .. . ... ... ... : ... .. . ... ... ... : D-# 00 A ... ... ... : ... .. . ... ... ... : C#2 04 . ... ... ... : --- .. . ... ... ... : C#2 04 6 ... ... ... : C#2 04 . ... ... ... : ... .. . ... ... ... : ... .. . ... ... ... : ... .. . ... ... ... : ... .. . ... ... ...
ROW 83 : ... .. . ... ... ... : ... .. . ... ... ... : ... .. . ... ... ... : E-# 00 4 ... ... ... : ... .. . ... ... ... : ... .. . ... ... ... : ... .. . P80 ... ... : ... .. . ... ... ... : ... .. . ... ... ... : ... .. . ... ... ... : ... .. . ... ... ... : ... .. . ... ... ... : ... .. . ... ... ...
ROW 84 : ... .. . ... ... ... : ... .. . ... ... ... : ... .. . ... ... ... : D-# 00 2 ... ... ... : ... .. . ... ... ... : ... .. . ... ... ... : ... .. . ... ... ... : ... .. . ... ... ... : ... .. . ... ... ... : ... .. . ... ... ... : ... .. . ... ... ... : ... .. . ... ... ... : ... .. . ... ... ...
ROW 85 : ... .. . ... ... ... : ... .. . ... ... ... : ... .. . ... ... ... : ... .. 1 ... ... ... : ... .. . ... ... ... : ... .. . ... ... ... : ... .. . ... ... ... : ... .. . ... ... ... : ... .. . ... ... ... : ... .. 2 ... ... ... : ... .. . ... ... ... : ... .. . ... ... ... : ... .. . ... ... ...
ROW 86 : ... .. . ... ... ... : ... .. . ... ... ... : ... .. . ... ... ... : ... .. . ... ... ... : ... .. . ... ... ... : ... .. . ... ... ... : ... .. . ... ... ... : ... .. 5 ... ... ... : ... .. 7 ... ... ... : ... .. . ... ... ... : ... .. . ... ... ... : ... .. . ... ... ... : ... .. . ... ... ...
ROW 87 : ... .. . ... ... ... : ... .. . ... ... ... : ... .. . ... ... ... : --- .. . ... ... ... : ... .. . ... ... ... : ... .. . ... ... ... : ... .. . ... ... ... : ... .. . ... ... ... : ... .. . ... ... ... : ... .. . ... ... ... : ... .. . ... ... ... : ... .. . ... ... ... : ... .. . ... ... ...
ROW 88 : ... .. . ... ... ... : ... .. . ... ... ... : ... .. . ... ... ... : D-# 00 A ... ... ... : ... .. . ... ... ... : C#3 04 . ... ... ... : ... .. . ... ... ... : C#3 04 . ... ... ... : C#3 04 . ... ... ... : --- .. . ... ... ... : ... .. . ... ... ... : ... .. . ... ... ... : ... .. . ... ... ...
ROW 89 : ... .. . ... ... ... : ... .. . ... ... ... : ... .. . ... ... ... : E-# 00 4 ... ... ... : ... .. . ... ... ... : ... .. . ... ... ... : ... .. . ... ... ... : ... .. . ... ... ... : ... .. . ... ... ... : ... .. . P80 ... ... : ... .. . ... ... ... : ... .. . ... ... ... : ... .. . ... ... ...
ROW 8A : ... .. . ... ... ... : ... .. . ... ... ... : ... .. . ... ... ... : D-# 00 2 ... ... ... : ... .. . ... ... ... : ... .. . ... ... ... : ... .. . ... ... ... : ... .. 4 ... ... ... : ... .. . ... ... ... : ... .. . ... ... ... : ... .. . ... ... ... : ... .. . ... ... ... : ... .. . ... ... ...
ROW 8B : ... .. . ... ... ... : ... .. . ... ... ... : ... .. . ... ... ... : ... .. 1 ... ... ... : ... .. . ... ... ... : ... .. . ... ... ... : ... .. . ... ... ... : ... .. . ... ... ... : ... .. . ... ... ... : ... .. . ... ... ... : ... .. . ... ... ... : ... .. . ... ... ... : ... .. . ... ... ...
ROW 8C : ... .. . ... ... ... : ... .. . ... ... ... : ... .. . ... ... ... : ... .. . ... ... ... : ... .. . ... ... ... : ... .. . ... ... ... : ... .. . ... ... ... : ... .. . ... ... ... : ... .. . ... ... ... : ... .. . ... ... ... : ... .. . ... ... ... : ... .. . ... ... ... : ... .. . ... ... ...
ROW 8D : ... .. . ... ... ... : ... .. . ... ... ... : ... .. . ... ... ... : --- .. . ... ... ... : ... .. . ... ... ... : ... .. . ... ... ... : ... .. . ... ... ... : ... .. . ... ... ... : ... .. . ... ... ... : ... .. . ... ... ... : ... .. . ... ... ... : ... .. . ... ... ... : ... .. . ... ... ...
ROW 8E : ... .. . ... ... ... : ... .. . ... ... ... : ... .. . ... ... ... : ... .. . ... ... ... : ... .. . ... ... ... : ... .. . ... ... ... : ... .. . ... ... ... : ... .. 3 ... ... ... : ... .. 6 ... ... ... : ... .. . ... ... ... : ... .. . ... ... ... : ... .. . ... ... ... : ... .. . ... ... ...
ROW 8F : ... .. . ... ... ... : C-4 02 . P80 ... ... : F#3 00 . P78 ... ... : 1-# 00 F ... ... ... : C-1 12 . ... ... ... : B-4 0C 7 P7C ... ... : ... .. . ... ... ... : --- .. . ... ... ... : A#3 0C 1 P85 ... ... : ... .. . ... ... ... : ... .. . ... ... ... : ... .. . ... ... ... : ... .. . ... ... ...
ROW 90 : ... .. . ... ... ... : F-3 02 . ... ... ... : C#3 00 . P7E ... ... : 2-# 00 7 ... ... ... : ... .. . ... ... ... : A#4 0C . P79 ... ... : ... .. . ... ... ... : ... .. . P80 ... ... : G-3 0C . ... ... ... : ... .. . ... ... ... : ... .. . ... ... ... : ... .. . ... ... ... : ... .. . ... ... ...
ROW 91 : ... .. . ... ... ... : A#2 02 . P81 ... ... : A-2 00 . P86 ... ... : 1-# 00 4 ... ... ... : ... .. . ... ... ... : A-4 0C . P78 ... ... : ... .. . ... ... ... : ... .. . ... ... ... : D#3 0C . P82 ... ... : ... .. . ... ... ... : ... .. . ... ... ... : ... .. . ... ... ... : ... .. . ... ... ...
ROW 92 : ... .. . ... ... ... : D#2 02 . ... ... ... : --- .. . ... ... ... : ... .. 2 ... ... ... : ... .. . ... ... ... : G#4 0C . ... ... ... : ... .. . ... ... ... : ... .. . ... ... ... : A#2 0C . P7F ... ... : ... .. . ... ... ... : ... .. . ... ... ... : ... .. . ... ... ... : ... .. . ... ... ...
ROW 93 : ... .. . ... ... ... : G#1 02 . ... ... ... : ... .. . ... ... ... : ... .. 1 ... ... ... : ... .. . ... ... ... : G-4 0C . ... ... ... : ... .. . ... ... ... : ... .. . ... ... ... : E-2 0C . P81 ... ... : ... .. . ... ... ... : ... .. . ... ... ... : ... .. . ... ... ... : ... .. . ... ... ...
ROW 94 : ... .. . ... ... ... : C#1 02 . ... ... ... : ... .. . ... ... ... : --- .. . ... ... ... : ... .. . ... ... ... : --- .. . ... ... ... : ... .. . ... ... ... : ... .. . ... ... ... : --- .. . ... ... ... : ... .. . ... ... ... : ... .. . ... ... ... : ... .. . ... ... ... : ... .. . ... ... ...
ROW 95 : ... .. . ... ... ... : ... .. . ... ... ... : ... .. . ... ... ... : ... .. . ... ... ... : ... .. . ... ... ... : B-4 0C . P7C ... ... : ... .. . ... ... ... : ... .. . ... ... ... : A#3 0C . P85 ... ... : ... .. . ... ... ... : ... .. . ... ... ... : ... .. . ... ... ... : ... .. . ... ... ...
ROW 96 : ... .. . ... ... ... : ... .. . ... ... ... : ... .. . ... ... ... : ... .. . ... ... ... : ... .. . ... ... ... : A#4 0C . P79 ... ... : ... .. . ... ... ... : ... .. . ... ... ... : G-3 0C . ... ... ... : ... .. . ... ... ... : ... .. . ... ... ... : ... .. . ... ... ... : ... .. . ... ... ...
ROW 97 : ... .. . ... ... ... : ... .. . ... ... ... : ... .. . ... ... ... : ... .. . ... ... ... : ... .. . ... ... ... : A-4 0C . P78 ... ... : ... .. . ... ... ... : ... .. . ... ... ... : --- .. . ... ... ... : ... .. . ... ... ... : ... .. . ... ... ... : ... .. . ... ... ... : ... .. . ... ... ...
ROW 98 : ... .. . ... ... ... : ... .. . ... ... ... : ... .. . ... ... ... : ... .. . ... ... ... : ... .. . ... ... ... : G#4 0C . ... ... ... : ... .. . ... ... ... : ... .. . ... ... ... : ... .. . P80 ... ... : ... .. . ... ... ... : ... .. . ... ... ... : ... .. . ... ... ... : ... .. . ... ... ...
ROW 99 : ... .. . ... ... ... : ... .. . ... ... ... : ... .. . ... ... ... : ... .. . ... ... ... : ... .. . ... ... ... : G-4 0C . ... ... ... : ... .. . ... ... ... : ... .. . ... ... ... : ... .. . ... ... ... : ... .. . ... ... ... : ... .. . ... ... ... : ... .. . ... ... ... : ... .. . ... ... ...
ROW 9A : ... .. . ... ... ... : ... .. . ... ... ... : ... .. . ... ... ... : ... .. . ... ... ... : ... .. . ... ... ... : --- .. . ... ... ... : ... .. . ... ... ... : ... .. . ... ... ... : ... .. . ... ... ... : ... .. . ... ... ... : ... .. . ... ... ... : ... .. . ... ... ... : ... .. . ... ... ...
ROW 9B : ... .. . ... ... ... : ... .. . ... ... ... : ... .. . ... ... ... : D-# 00 A ... ... ... : ... .. . ... ... ... : C#3 05 A P80 ... ... : C#3 05 . P83 ... ... : C#3 05 9 P7E ... ... : G#2 05 9 P81 ... ... : ... .. . ... ... ... : ... .. . ... ... ... : ... .. . ... ... ... : ... .. . ... ... ...
ROW 9C : ... .. . ... ... ... : ... .. . ... ... ... : ... .. . ... ... ... : E-# 00 4 ... ... ... : ... .. . ... ... ... : ... .. . ... ... ... : ... .. . P82 ... ... : ... .. . ... ... ... : ... .. . ... ... ... : ... .. . ... ... ... : ... .. . ... ... ... : ... .. . ... ... ... : ... .. . ... ... ...
ROW 9D : ... .. . ... ... ... : ... .. . ... ... ... : ... .. . ... ... ... : D-# 00 2 ... ... ... : ... .. . ... ... ... : ... .. . ... ... ... : ... .. . P83 ... ... : ... .. . ... ... ... : ... .. . ... ... ... : ... .. . ... ... ... : ... .. . ... ... ... : ... .. . ... ... ... : ... .. . ... ... ...
ROW 9E : ... .. . ... ... ... : ... .. . ... ... ... : ... .. . ... ... ... : ... .. 1 ... ... ... : ... .. . ... ... ... : ... .. . ... ... ... : C-3 05 . P7E ... ... : ... .. . ... ... ... : ... .. . ... ... ... : ... .. . ... ... ... : ... .. . ... ... ... : ... .. . ... ... ... : ... .. . ... ... ...
ROW 9F : ... .. . ... ... ... : ... .. . ... ... ... : ... .. . ... ... ... : ... .. . ... ... ... : ... .. . ... ... ... : --- .. . ... ... ... : --- .. . ... ... ... : --- .. . ... ... ... : --- .. . ... ... ... : ... .. . ... ... ... : ... .. . ... ... ... : ... .. . ... ... ... : ... .. . ... ... ...
ROW A0 : ... .. . ... ... ... : ... .. . ... ... ... : ... .. . ... ... ... : --- .. . ... ... ... : ... .. . ... ... ... : ... .. . ... ... ... : ... .. . P80 ... ... : ... .. . P80 ... ... : ... .. . P80 ... ... : ... .. . ... ... ... : ... .. . ... ... ... : ... .. . ... ... ... : ... .. . ... ... ...
ROW A1 : ... .. . ... ... ... : ... .. . ... ... ... : ... .. . ... ... ... : D-# 00 A ... ... ... : ... .. . ... ... ... : C#3 05 4 ... ... ... : C#3 05 4 P83 ... ... : C#3 05 3 P7E ... ... : G#2 05 3 P81 ... ... : ... .. . ... ... ... : ... .. . ... ... ... : ... .. . ... ... ... : ... .. . ... ... ...
ROW A2 : ... .. . ... ... ... : ... .. . ... ... ... : ... .. . ... ... ... : E-# 00 4 ... ... ... : ... .. . ... ... ... : ... .. . ... ... ... : C-3 05 . P7E ... ... : ... .. . ... ... ... : ... .. . ... ... ... : ... .. . ... ... ... : ... .. . ... ... ... : ... .. . ... ... ... : ... .. . ... ... ...
ROW A3 : ... .. . ... ... ... : ... .. . ... ... ... : ... .. . ... ... ... : D-# 00 2 ... ... ... : ... .. . ... ... ... : ... .. . ... ... ... : C#3 05 . P83 ... ... : ... .. . ... ... ... : ... .. . ... ... ... : ... .. . ... ... ... : ... .. . ... ... ... : ... .. . ... ... ... : ... .. . ... ... ...
ROW A4 : ... .. . ... ... ... : ... .. . ... ... ... : ... .. . ... ... ... : ... .. 1 ... ... ... : ... .. . ... ... ... : ... .. . ... ... ... : ... .. . P82 ... ... : ... .. . ... ... ... : ... .. . ... ... ... : ... .. . ... ... ... : ... .. . ... ... ... : ... .. . ... ... ... : ... .. . ... ... ...
ROW A5 : ... .. . ... ... ... : ... .. . ... ... ... : ... .. . ... ... ... : ... .. . ... ... ... : ... .. . ... ... ... : ... .. . ... ... ... : ... .. . P83 ... ... : ... .. 2 ... ... ... : ... .. . ... ... ... : ... .. . ... ... ... : ... .. . ... ... ... : ... .. . ... ... ... : ... .. . ... ... ...
ROW A6 : ... .. . ... ... ... : ... .. . ... ... ... : ... .. . ... ... ... : --- .. . ... ... ... : ... .. . ... ... ... : --- .. . ... ... ... : --- .. . ... ... ... : --- .. . ... ... ... : --- .. . ... ... ... : ... .. . ... ... ... : ... .. . ... ... ... : ... .. . ... ... ... : ... .. . ... ... ...
ROW A7 : ... .. . ... ... ... : ... .. . ... ... ... : ... .. . ... ... ... : ... .. . ... ... ... : ... .. . ... ... ... : ... .. . ... ... ... : ... .. . P80 ... ... : ... .. . P80 ... ... : ... .. . P80 ... ... : ... .. . ... ... ... : ... .. . ... ... ... : ... .. . ... ... ... : ... .. . ... ... ...
ROW A8 : ... .. . ... ... ... : C-4 02 . P80 ... ... : C#4 00 . P7F ... ... : 9-# 00 F ... ... ... : C#1 12 . ... ... ... : F#3 05 A ... ... ... : F#3 05 A P83 ... ... : F#3 05 9 P7E ... ... : D#3 05 9 P81 ... ... : ... .. . ... ... ... : ... .. . ... ... ... : ... .. . ... ... ... : ... .. . ... ... ...
ROW A9 : ... .. . ... ... ... : F-3 02 . ... ... ... : F#3 00 . P83 ... ... : 2-# 00 7 ... ... ... : ... .. . ... ... ... : ... .. . ... ... ... : ... .. . ... ... ... : ... .. . ... ... ... : ... .. . ... ... ... : ... .. . ... ... ... : ... .. . ... ... ... : ... .. . ... ... ... : ... .. . ... ... ...
ROW AA : ... .. . ... ... ... : A#2 02 . P81 ... ... : C#3 00 . P89 ... ... : 6-# 00 C ... ... ... : ... .. . ... ... ... : ... .. . ... ... ... : ... .. . P84 ... ... : ... .. . ... ... ... : ... .. . ... ... ... : ... .. . ... ... ... : ... .. . ... ... ... : ... .. . ... ... ... : ... .. . ... ... ...
ROW AB : ... .. . ... ... ... : D#2 02 . ... ... ... : A#2 00 . P75 ... ... : 7-# 00 8 ... ... ... : ... .. . ... ... ... : ... .. . ... ... ... : ... .. . ... ... ... : ... .. . ... ... ... : ... .. . ... ... ... : ... .. . ... ... ... : ... .. . ... ... ... : ... .. . ... ... ... : ... .. . ... ... ...
ROW AC : ... .. . ... ... ... : G#1 02 . ... ... ... : G-2 00 . P70 ... ... : 8-# 00 7 ... ... ... : ... .. . ... ... ... : --- .. . ... ... ... : --- .. . ... ... ... : --- .. . ... ... ... : --- .. . ... ... ... : ... .. . ... ... ... : ... .. . ... ... ... : ... .. . ... ... ... : ... .. . ... ... ...
ROW AD : ... .. . ... ... ... : C#1 02 . ... ... ... : E-2 00 . P7C ... ... : ... .. 6 ... ... ... : ... .. . ... ... ... : ... .. . ... ... ... : ... .. . P80 ... ... : ... .. . P80 ... ... : ... .. . P80 ... ... : ... .. . ... ... ... : ... .. . ... ... ... : ... .. . ... ... ... : ... .. . ... ... ...
ROW AE : ... .. . ... ... ... : ... .. . ... ... ... : --- .. . ... ... ... : ... .. . ... ... ... : ... .. . ... ... ... : F#3 05 4 ... ... ... : F#3 05 4 P83 ... ... : F#3 05 3 P7E ... ... : D#3 05 3 P81 ... ... : ... .. . ... ... ... : ... .. . ... ... ... : ... .. . ... ... ... : ... .. . ... ... ...
ROW AF : ... .. . ... ... ... : ... .. . ... ... ... : ... .. . ... ... ... : ... .. 5 ... ... ... : ... .. . ... ... ... : ... .. . ... ... ... : ... .. . P84 ... ... : ... .. . ... ... ... : ... .. . ... ... ... : ... .. . ... ... ... : ... .. . ... ... ... : ... .. . ... ... ... : ... .. . ... ... ...
ROW B0 : ... .. . ... ... ... : ... .. . ... ... ... : ... .. . ... ... ... : ... .. . ... ... ... : ... .. . ... ... ... : ... .. . ... ... ... : ... .. . P83 ... ... : ... .. . ... ... ... : ... .. . ... ... ... : ... .. . ... ... ... : ... .. . ... ... ... : ... .. . ... ... ... : ... .. . ... ... ...
ROW B1 : ... .. . ... ... ... : ... .. . ... ... ... : ... .. . ... ... ... : ... .. 4 ... ... ... : ... .. . ... ... ... : ... .. . ... ... ... : ... .. . P82 ... ... : ... .. . ... ... ... : ... .. . ... ... ... : ... .. . ... ... ... : ... .. . ... ... ... : ... .. . ... ... ... : ... .. . ... ... ...
ROW B2 : ... .. . ... ... ... : ... .. . ... ... ... : ... .. . ... ... ... : ... .. . ... ... ... : ... .. . ... ... ... : --- .. . ... ... ... : --- .. . ... ... ... : --- .. . ... ... ... : --- .. . ... ... ... : ... .. . ... ... ... : ... .. . ... ... ... : ... .. . ... ... ... : ... .. . ... ... ...
ROW B3 : ... .. . ... ... ... : ... .. . ... ... ... : ... .. . ... ... ... : ... .. 3 ... ... ... : ... .. . ... ... ... : ... .. . ... ... ... : ... .. . P80 ... ... : ... .. . P80 ... ... : ... .. . P80 ... ... : ... .. . ... ... ... : ... .. . ... ... ... : ... .. . ... ... ... : ... .. . ... ... ...
ROW B4 : ... .. . ... ... ... : ... .. . ... ... ... : ... .. . ... ... ... : D-# 00 A ... ... ... : ... .. . ... ... ... : B-3 05 A ... ... ... : B-3 05 A P83 ... ... : B-3 05 9 P7E ... ... : F#3 05 9 P81 ... ... : ... .. . ... ... ... : ... .. . ... ... ... : ... .. . ... ... ... : ... .. . ... ... ...
ROW B5 : ... .. . ... ... ... : ... .. . ... ... ... : ... .. . ... ... ... : E-# 00 4 ... ... ... : ... .. . ... ... ... : ... .. . ... ... ... : ... .. . P82 ... ... : ... .. . ... ... ... : ... .. . ... ... ... : ... .. . ... ... ... : ... .. . ... ... ... : ... .. . ... ... ... : ... .. . ... ... ...
ROW B6 : ... .. . ... ... ... : ... .. . ... ... ... : ... .. . ... ... ... : D-# 00 2 ... ... ... : ... .. . ... ... ... : ... .. . ... ... ... : ... .. . P83 ... ... : ... .. . ... ... ... : ... .. . ... ... ... : ... .. . ... ... ... : ... .. . ... ... ... : ... .. . ... ... ... : ... .. . ... ... ...
ROW B7 : ... .. . ... ... ... : ... .. . ... ... ... : ... .. . ... ... ... : ... .. 1 ... ... ... : ... .. . ... ... ... : ... .. . ... ... ... : ... .. . P84 ... ... : ... .. . ... ... ... : ... .. . ... ... ... : ... .. . ... ... ... : ... .. . ... ... ... : ... .. . ... ... ... : ... .. . ... ... ...
ROW B8 : ... .. . ... ... ... : ... .. . ... ... ... : ... .. . ... ... ... : ... .. . ... ... ... : ... .. . ... ... ... : --- .. . ... ... ... : --- .. . ... ... ... : --- .. . ... ... ... : --- .. . ... ... ... : ... .. . ... ... ... : ... .. . ... ... ... : ... .. . ... ... ... : ... .. . ... ... ...
ROW B9 : ... .. . ... ... ... : ... .. . ... ... ... : ... .. . ... ... ... : --- .. . ... ... ... : ... .. . ... ... ... : ... .. . ... ... ... : ... .. . P80 ... ... : ... .. . P80 ... ... : ... .. . P80 ... ... : ... .. . ... ... ... : ... .. . ... ... ... : ... .. . ... ... ... : ... .. . ... ... ...
ROW BA : ... .. . ... ... ... : ... .. . ... ... ... : ... .. . ... ... ... : D-# 00 A ... ... ... : ... .. . ... ... ... : B-3 05 4 ... ... ... : B-3 05 . P82 ... ... : B-3 05 . P7E ... ... : F#3 05 . P81 ... ... : ... .. . ... ... ... : ... .. . ... ... ... : ... .. . ... ... ... : ... .. . ... ... ...
ROW BB : ... .. . ... ... ... : ... .. . ... ... ... : ... .. . ... ... ... : E-# 00 4 ... ... ... : ... .. . ... ... ... : ... .. . ... ... ... : ... .. . P83 ... ... : ... .. . ... ... ... : ... .. . ... ... ... : ... .. . ... ... ... : ... .. . ... ... ... : ... .. . ... ... ... : ... .. . ... ... ...
ROW BC : ... .. . ... ... ... : ... .. . ... ... ... : ... .. . ... ... ... : D-# 00 2 ... ... ... : ... .. . ... ... ... : ... .. . ... ... ... : ... .. . P84 ... ... : ... .. . ... ... ... : ... .. . ... ... ... : ... .. . ... ... ... : ... .. . ... ... ... : ... .. . ... ... ... : ... .. . ... ... ...
ROW BD : ... .. . ... ... ... : ... .. . ... ... ... : ... .. . ... ... ... : ... .. 1 ... ... ... : ... .. . ... ... ... : ... .. . ... ... ... : ... .. . P83 ... ... : ... .. . ... ... ... : ... .. . ... ... ... : ... .. . ... ... ... : ... .. . ... ... ... : ... .. . ... ... ... : ... .. . ... ... ...
ROW BE : ... .. . ... ... ... : ... .. . ... ... ... : ... .. . ... ... ... : ... .. . ... ... ... : ... .. . ... ... ... : ... .. . ... ... ... : ... .. . P82 ... ... : ... .. 8 ... ... ... : ... .. . ... ... ... : ... .. . ... ... ... : ... .. . ... ... ... : ... .. . ... ... ... : ... .. . ... ... ...
ROW BF : ... .. . ... ... ... : ... .. . ... ... ... : ... .. . ... ... ... : --- .. . ... ... ... : ... .. . ... ... ... : --- .. . ... ... ... : --- .. . ... ... ... : --- .. . ... ... ... : --- .. . ... ... ... : ... .. . ... ... ... : ... .. . ... ... ... : ... .. . ... ... ... : ... .. . ... ... ...
ROW C0 : ... .. . ... ... ... : ... .. . ... ... ... : ... .. . ... ... ... : ... .. . ... ... ... : ... .. . ... ... ... : ... .. . ... ... ... : ... .. . P80 ... ... : ... .. . P80 ... ... : ... .. . P80 ... ... : ... .. . ... ... ... : ... .. . ... ... ... : ... .. . ... ... ... : ... .. . ... ... ...
ROW C1 : ... .. . ... ... ... : C-4 02 . P80 ... ... : F#3 00 . P78 ... ... : 1-# 00 F ... ... ... : C-1 12 . ... ... ... : D#2 06 F ... ... ... : D#2 06 F P81 ... ... : ... .. . ... ... ... : D#2 06 E P7F ... ... : D#3 06 B P81 ... ... : ... .. . ... ... ... : ... .. . ... ... ... : ... .. . ... ... ...
ROW C2 : ... .. . ... ... ... : F-3 02 . ... ... ... : C#3 00 . P7E ... ... : 2-# 00 7 ... ... ... : ... .. . ... ... ... : ... .. . ... ... ... : ... .. . P80 ... ... : ... .. . ... ... ... : ... .. . ... ... ... : ... .. . ... ... ... : ... .. . ... ... ... : ... .. . ... ... ... : ... .. . ... ... ...
ROW C3 : ... .. . ... ... ... : A#2 02 . P81 ... ... : A-2 00 . P86 ... ... : 1-# 00 4 ... ... ... : ... .. . ... ... ... : ... .. . ... ... ... : ... .. . P81 ... ... : ... .. . ... ... ... : ... .. . ... ... ... : ... .. . ... ... ... : ... .. . ... ... ... : ... .. . ... ... ... : ... .. . ... ... ...
ROW C4 : ... .. . ... ... ... : D#2 02 . ... ... ... : --- .. . ... ... ... : ... .. 2 ... ... ... : ... .. . ... ... ... : D#2 09 . ... ... ... : D-2 09 . P7F ... ... : ... .. . ... ... ... : D#2 09 . ... ... ... : D#3 09 . ... ... ... : ... .. . ... ... ... : ... .. . ... ... ... : ... .. . ... ... ...
ROW C5 : ... .. . ... ... ... : G#1 02 . ... ... ... : ... .. . ... ... ... : ... .. 1 ... ... ... : ... .. . ... ... ... : ... .. . ... ... ... : D#2 09 . P82 ... ... : ... .. . ... ... ... : ... .. . ... ... ... : ... .. A ... ... ... : ... .. . ... ... ... : ... .. . ... ... ... : ... .. . ... ... ...
ROW C6 : ... .. . ... ... ... : C#1 02 . ... ... ... : ... .. . ... ... ... : --- .. . ... ... ... : ... .. . ... ... ... : ... .. . ... ... ... : ... .. . P81 ... ... : ... .. . ... ... ... : ... .. . ... ... ... : ... .. . ... ... ... : ... .. . ... ... ... : ... .. . ... ... ... : ... .. . ... ... ...
ROW C7 : ... .. . ... ... ... : ... .. . ... ... ... : ... .. . ... ... ... : ... .. . ... ... ... : ... .. . ... ... ... : D#2 06 . ... ... ... : D#2 06 . ... ... ... : ... .. . ... ... ... : D#2 06 . ... ... ... : D#3 06 . ... ... ... : ... .. . ... ... ... : ... .. . ... ... ... : ... .. . ... ... ...
ROW C8 : ... .. . ... ... ... : ... .. . ... ... ... : ... .. . ... ... ... : ... .. . ... ... ... : ... .. . ... ... ... : ... .. . ... ... ... : ... .. . P82 ... ... : ... .. . ... ... ... : ... .. . ... ... ... : ... .. . ... ... ... : ... .. . ... ... ... : ... .. . ... ... ... : ... .. . ... ... ...
ROW C9 : ... .. . ... ... ... : ... .. . ... ... ... : ... .. . ... ... ... : ... .. . ... ... ... : ... .. . ... ... ... : ... .. . ... ... ... : ... .. . ... ... ... : ... .. . ... ... ... : ... .. D ... ... ... : ... .. 9 ... ... ... : ... .. . ... ... ... : ... .. . ... ... ... : ... .. . ... ... ...
ROW CA : ... .. . ... ... ... : ... .. . ... ... ... : ... .. . ... ... ... : ... .. . ... ... ... : ... .. . ... ... ... : D#2 09 . ... ... ... : D#2 09 . P81 ... ... : ... .. . ... ... ... : D#2 09 . ... ... ... : D#3 09 . ... ... ... : ... .. . ... ... ... : ... .. . ... ... ... : ... .. . ... ... ...
ROW CB : ... .. . ... ... ... : ... .. . ... ... ... : ... .. . ... ... ... : ... .. . ... ... ... : ... .. . ... ... ... : ... .. . ... ... ... : ... .. . P80 ... ... : ... .. . ... ... ... : ... .. . ... ... ... : ... .. . ... ... ... : ... .. . ... ... ... : ... .. . ... ... ... : ... .. . ... ... ...
ROW CC : ... .. . ... ... ... : ... .. . ... ... ... : ... .. . ... ... ... : ... .. . ... ... ... : ... .. . ... ... ... : ... .. . ... ... ... : ... .. . P81 ... ... : ... .. . ... ... ... : ... .. . ... ... ... : ... .. . ... ... ... : ... .. . ... ... ... : ... .. . ... ... ... : ... .. . ... ... ...
ROW CD : ... .. . ... ... ... : ... .. . ... ... ... : ... .. . ... ... ... : D-# 00 A ... ... ... : ... .. . ... ... ... : D#2 06 . ... ... ... : D-2 06 . P7F ... ... : ... .. . ... ... ... : D#2 06 . ... ... ... : D#3 06 8 ... ... ... : ... .. . ... ... ... : ... .. . ... ... ... : ... .. . ... ... ...
ROW CE : ... .. . ... ... ... : ... .. . ... ... ... : ... .. . ... ... ... : E-# 00 4 ... ... ... : ... .. . ... ... ... : ... .. . ... ... ... : D#2 06 . P81 ... ... : ... .. . ... ... ... : ... .. . ... ... ... : ... .. . ... ... ... : ... .. . ... ... ... : ... .. . ... ... ... : ... .. . ... ... ...
ROW CF : ... .. . ... ... ... : ... .. . ... ... ... : ... .. . ... ... ... : D-# 00 2 ... ... ... : ... .. . ... ... ... : ... .. . ... ... ... : ... .. . P80 ... ... : ... .. . ... ... ... : ... .. . ... ... ... : ... .. . ... ... ... : ... .. . ... ... ... : ... .. . ... ... ... : ... .. . ... ... ...
ROW D0 : ... .. . ... ... ... : ... .. . ... ... ... : ... .. . ... ... ... : ... .. 1 ... ... ... : ... .. . ... ... ... : D#2 09 . ... ... ... : D#2 09 . P81 ... ... : ... .. . ... ... ... : D#2 09 . ... ... ... : D#3 09 . ... ... ... : ... .. . ... ... ... : ... .. . ... ... ... : ... .. . ... ... ...
ROW D1 : ... .. . ... ... ... : ... .. . ... ... ... : ... .. . ... ... ... : ... .. . ... ... ... : ... .. . ... ... ... : ... .. . ... ... ... : D-2 09 . P7F ... ... : ... .. . ... ... ... : ... .. C ... ... ... : ... .. 7 ... ... ... : ... .. . ... ... ... : ... .. . ... ... ... : ... .. . ... ... ...
ROW D2 : ... .. . ... ... ... : ... .. . ... ... ... : ... .. . ... ... ... : --- .. . ... ... ... : ... .. . ... ... ... : ... .. . ... ... ... : D#2 09 . P81 ... ... : ... .. . ... ... ... : ... .. . ... ... ... : ... .. . ... ... ... : ... .. . ... ... ... : ... .. . ... ... ... : ... .. . ... ... ...
ROW D3 : ... .. . ... ... ... : ... .. . ... ... ... : ... .. . ... ... ... : D-# 00 A ... ... ... : ... .. . ... ... ... : D#2 06 . ... ... ... : D#2 06 . P80 ... ... : ... .. . ... ... ... : D#2 06 . ... ... ... : D#3 06 . ... ... ... : ... .. . ... ... ... : ... .. . ... ... ... : ... .. . ... ... ...
ROW D4 : ... .. . ... ... ... : ... .. . ... ... ... : ... .. . ... ... ... : E-# 00 4 ... ... ... : ... .. . ... ... ... : ... .. . ... ... ... : ... .. . P81 ... ... : ... .. . ... ... ... : ... .. . ... ... ... : ... .. . ... ... ... : ... .. . ... ... ... : ... .. . ... ... ... : ... .. . ... ... ...
ROW D5 : ... .. . ... ... ... : ... .. . ... ... ... : ... .. . ... ... ... : D-# 00 2 ... ... ... : ... .. . ... ... ... : ... .. . ... ... ... : D-2 06 . P7F ... ... : ... .. . ... ... ... : ... .. . ... ... ... : ... .. 6 ... ... ... : ... .. . ... ... ... : ... .. . ... ... ... : ... .. . ... ... ...
ROW D6 : ... .. . ... ... ... : ... .. . ... ... ... : ... .. . ... ... ... : ... .. 1 ... ... ... : ... .. . ... ... ... : D#2 09 . ... ... ... : D#2 09 . P82 ... ... : ... .. . ... ... ... : D#2 09 . ... ... ... : D#3 09 . ... ... ... : ... .. . ... ... ... : ... .. . ... ... ... : ... .. . ... ... ...
ROW D7 : ... .. . ... ... ... : ... .. . ... ... ... : ... .. . ... ... ... : ... .. . ... ... ... : ... .. . ... ... ... : ... .. . ... ... ... : ... .. . P81 ... ... : ... .. . ... ... ... : ... .. . ... ... ... : ... .. . ... ... ... : ... .. . ... ... ... : ... .. . ... ... ... : ... .. . ... ... ...
ROW D8 : ... .. . ... ... ... : ... .. . ... ... ... : ... .. . ... ... ... : --- .. . ... ... ... : ... .. . ... ... ... : ... .. . ... ... ... : ... .. . ... ... ... : ... .. . ... ... ... : ... .. . ... ... ... : ... .. . ... ... ... : ... .. . ... ... ... : ... .. . ... ... ... : ... .. . ... ... ...
ROW D9 : ... .. . ... ... ... : ... .. . ... ... ... : ... .. . ... ... ... : ... .. . ... ... ... : ... .. . ... ... ... : ... .. . ... ... ... : ... .. . P82 ... ... : ... .. . ... ... ... : ... .. B ... ... ... : ... .. 5 ... ... ... : ... .. . ... ... ... : ... .. . ... ... ... : ... .. . ... ... ...
ROW DA : ... .. . ... ... ... : C-4 02 . P80 ... ... : C#4 00 . P7F ... ... : 9-# 00 F ... ... ... : C#1 12 . ... ... ... : D-2 06 . ... ... ... : C#2 06 . P7F ... ... : ... .. . ... ... ... : D-2 06 . ... ... ... : D-3 06 . ... ... ... : ... .. . ... ... ... : ... .. . ... ... ... : ... .. . ... ... ...
ROW DB : ... .. . ... ... ... : F-3 02 . ... ... ... : F#3 00 . P83 ... ... : 2-# 00 7 ... ... ... : ... .. . ... ... ... : ... .. . ... ... ... : D-2 06 . P81 ... ... : ... .. . ... ... ... : ... .. . ... ... ... : ... .. . ... ... ... : ... .. . ... ... ... : ... .. . ... ... ... : ... .. . ... ... ...
ROW DC : ... .. . ... ... ... : A#2 02 . P81 ... ... : C#3 00 . P89 ... ... : 6-# 00 C ... ... ... : ... .. . ... ... ... : ... .. . ... ... ... : ... .. . P80 ... ... : ... .. . ... ... ... : ... .. . ... ... ... : ... .. . ... ... ... : ... .. . ... ... ... : ... .. . ... ... ... : ... .. . ... ... ...
ROW DD : ... .. . ... ... ... : D#2 02 . ... ... ... : A#2 00 . P75 ... ... : 7-# 00 8 ... ... ... : ... .. . ... ... ... : D-2 07 . ... ... ... : D-2 07 . P81 ... ... : ... .. . ... ... ... : D-2 07 . ... ... ... : D-3 07 4 ... ... ... : ... .. . ... ... ... : ... .. . ... ... ... : ... .. . ... ... ...
ROW DE : ... .. . ... ... ... : G#1 02 . ... ... ... : G-2 00 . P70 ... ... : 8-# 00 7 ... ... ... : ... .. . ... ... ... : ... .. . ... ... ... : C#2 07 . P7F ... ... : ... .. . ... ... ... : ... .. . ... ... ... : ... .. . ... ... ... : ... .. . ... ... ... : ... .. . ... ... ... : ... .. . ... ... ...
ROW DF : ... .. . ... ... ... : C#1 02 . ... ... ... : E-2 00 . P7C ... ... : ... .. 6 ... ... ... : ... .. . ... ... ... : ... .. . ... ... ... : D-2 07 . P81 ... ... : ... .. . ... ... ... : ... .. . ... ... ... : ... .. . ... ... ... : ... .. . ... ... ... : ... .. . ... ... ... : ... .. . ... ... ...
ROW E0 : ... .. . ... ... ... : ... .. . ... ... ... : --- .. . ... ... ... : ... .. . ... ... ... : ... .. . ... ... ... : D-2 08 . ... ... ... : D-2 08 . P80 ... ... : ... .. . ... ... ... : D-2 08 . ... ... ... : D-3 08 . ... ... ... : ... .. . ... ... ... : ... .. . ... ... ... : ... .. . ... ... ...
ROW E1 : ... .. . ... ... ... : ... .. . ... ... ... : ... .. . ... ... ... : ... .. 5 ... ... ... : ... .. . ... ... ... : ... .. . ... ... ... : ... .. . P81 ... ... : ... .. . ... ... ... : ... .. A ... ... ... : ... .. 3 ... ... ... : ... .. . ... ... ... : ... .. . ... ... ... : ... .. . ... ... ...
ROW E2 : ... .. . ... ... ... : ... .. . ... ... ... : ... .. . ... ... ... : ... .. . ... ... ... : ... .. . ... ... ... : ... .. . ... ... ... : C#2 08 . P7F ... ... : ... .. . ... ... ... : ... .. . ... ... ... : ... .. . ... ... ... : ... .. . ... ... ... : ... .. . ... ... ... : ... .. . ... ... ...
ROW E3 : ... .. . ... ... ... : ... .. . ... ... ... : ... .. . ... ... ... : ... .. 4 ... ... ... : ... .. . ... ... ... : D-2 09 . ... ... ... : D-2 09 . P81 ... ... : ... .. . ... ... ... : D-2 09 . ... ... ... : D-3 09 . ... ... ... : ... .. . ... ... ... : ... .. . ... ... ... : ... .. . ... ... ...
ROW E4 : ... .. . ... ... ... : ... .. . ... ... ... : ... .. . ... ... ... : ... .. . ... ... ... : ... .. . ... ... ... : ... .. . ... ... ... : ... .. . P80 ... ... : ... .. . ... ... ... : ... .. . ... ... ... : ... .. . ... ... ... : ... .. . ... ... ... : ... .. . ... ... ... : ... .. . ... ... ...
ROW E5 : ... .. . ... ... ... : ... .. . ... ... ... : ... .. . ... ... ... : ... .. 3 ... ... ... : ... .. . ... ... ... : ... .. . ... ... ... : ... .. . P81 ... ... : ... .. . ... ... ... : ... .. . ... ... ... : ... .. 2 ... ... ... : ... .. . ... ... ... : ... .. . ... ... ... : ... .. . ... ... ...
ROW E6 : ... .. . ... ... ... : F-3 02 . P80 ... ... : C#4 00 . P7F ... ... : 1-# 00 F ... ... ... : C-1 12 . ... ... ... : --- .. . ... ... ... : --- .. . ... ... ... : ... .. . ... ... ... : --- .. . ... ... ... : --- .. . ... ... ... : ... .. . ... ... ... : ... .. . ... ... ... : ... .. . ... ... ...
ROW E7 : ... .. . ... ... ... : A#2 02 . P81 ... ... : F#3 00 . P83 ... ... : 2-# 00 7 ... ... ... : ... .. . ... ... ... : ... .. . ... ... ... : ... .. . P80 ... ... : ... .. . ... ... ... : ... .. . P80 ... ... : ... .. . P80 ... ... : ... .. . ... ... ... : ... .. . ... ... ... : ... .. . ... ... ...
ROW E8 : ... .. . ... ... ... : D#2 02 . ... ... ... : C#3 00 . P89 ... ... : 1-# 00 4 ... ... ... : ... .. . ... ... ... : ... .. . ... ... ... : ... .. . ... ... ... : ... .. . ... ... ... : ... .. . ... ... ... : ... .. . ... ... ... : ... .. . ... ... ... : ... .. . ... ... ... : ... .. . ... ... ...
ROW E9 : ... .. . ... ... ... : G#1 02 . ... ... ... : A#2 00 . P75 ... ... : ... .. 2 ... ... ... : ... .. . ... ... ... : ... .. . ... ... ... : ... .. . ... ... ... : ... .. . ... ... ... : ... .. . ... ... ... : ... .. . ... ... ... : ... .. . ... ... ... : ... .. . ... ... ... : ... .. . ... ... ...
ROW EA : ... .. . ... ... ... : C#1 02 . ... ... ... : G-2 00 . P70 ... ... : ... .. 1 ... ... ... : ... .. . ... ... ... : ... .. . ... ... ... : ... .. . ... ... ... : ... .. . ... ... ... : ... .. . ... ... ... : ... .. . ... ... ... : ... .. . ... ... ... : ... .. . ... ... ... : ... .. . ... ... ...
ROW EB : ... .. . ... ... ... : ... .. . ... ... ... : E-2 00 . P7C ... ... : --- .. . ... ... ... : ... .. . ... ... ... : ... .. . ... ... ... : ... .. . ... ... ... : ... .. . ... ... ... : ... .. . ... ... ... : ... .. . ... ... ... : ... .. . ... ... ... : ... .. . ... ... ... : ... .. . ... ... ...
ROW EC : ... .. . ... ... ... : ... .. . ... ... ... : D-2 00 . P6F ... ... : ... .. . ... ... ... : ... .. . ... ... ... : ... .. . ... ... ... : ... .. . ... ... ... : ... .. . ... ... ... : ... .. . ... ... ... : ... .. . ... ... ... : ... .. . ... ... ... : ... .. . ... ... ... : ... .. . ... ... ...
ROW ED : ... .. . ... ... ... : ... .. . ... ... ... : C-2 00 . P6C ... ... : ... .. . ... ... ... : ... .. . ... ... ... : ... .. . ... ... ... : ... .. . ... ... ... : ... .. . ... ... ... : ... .. . ... ... ... : ... .. . ... ... ... : ... .. . ... ... ... : ... .. . ... ... ... : ... .. . ... ... ...
ROW EE : ... .. . ... ... ... : ... .. . ... ... ... : A#1 00 . P75 ... ... : ... .. . ... ... ... : ... .. . ... ... ... : ... .. . ... ... ... : ... .. . ... ... ... : ... .. . ... ... ... : ... .. . ... ... ... : ... .. . ... ... ... : ... .. . ... ... ... : ... .. . ... ... ... : ... .. . ... ... ...
ROW EF : ... .. . ... ... ... : ... .. . ... ... ... : G#1 00 . P8A ... ... : ... .. . ... ... ... : ... .. . ... ... ... : C-2 07 . ... ... ... : B-1 07 . P7F ... ... : ... .. . ... ... ... : ... .. . ... ... ... : ... .. . ... ... ... : ... .. . ... ... ... : ... .. . ... ... ... : ... .. . ... ... ...
ROW F0 : ... .. . ... ... ... : ... .. . ... ... ... : G-1 00 . P6A ... ... : ... .. . ... ... ... : ... .. . ... ... ... : ... .. . ... ... ... : C-2 07 . P81 ... ... : ... .. . ... ... ... : ... .. . ... ... ... : ... .. . ... ... ... : ... .. . ... ... ... : ... .. . ... ... ... : ... .. . ... ... ...
ROW F1 : ... .. . ... ... ... : ... .. . ... ... ... : F-1 00 . P96 ... ... : ... .. . ... ... ... : ... .. . ... ... ... : ... .. . ... ... ... : ... .. . P80 ... ... : ... .. . ... ... ... : ... .. . ... ... ... : ... .. . ... ... ... : ... .. . ... ... ... : ... .. . ... ... ... : ... .. . ... ... ...
ROW F2 : ... .. . ... ... ... : ... .. . ... ... ... : E-1 00 . P82 ... ... : ... .. . ... ... ... : ... .. . ... ... ... : ... .. . ... ... ... : ... .. . P81 ... ... : ... .. . ... ... ... : ... .. . ... ... ... : ... .. . ... ... ... : ... .. . ... ... ... : ... .. . ... ... ... : ... .. . ... ... ...
ROW F3 : ... .. . ... ... ... : C-4 02 . P80 ... ... : F#3 00 . P78 ... ... : 1-# 00 F ... ... ... : C-1 12 . ... ... ... : C#2 06 . ... ... ... : C-2 06 . P7F ... ... : ... .. . ... ... ... : C#2 06 8 P7F ... ... : ... .. . ... ... ... : ... .. . ... ... ... : ... .. . ... ... ... : ... .. . ... ... ...
ROW F4 : ... .. . ... ... ... : F-3 02 . ... ... ... : C#3 00 . P7E ... ... : 2-# 00 7 ... ... ... : ... .. . ... ... ... : ... .. . ... ... ... : C#2 06 . P81 ... ... : ... .. . ... ... ... : ... .. . ... ... ... : ... .. . ... ... ... : ... .. . ... ... ... : ... .. . ... ... ... : ... .. . ... ... ...
ROW F5 : ... .. . ... ... ... : A#2 02 . P81 ... ... : A-2 00 . P86 ... ... : 1-# 00 4 ... ... ... : ... .. . ... ... ... : ... .. . ... ... ... : ... .. . P80 ... ... : ... .. . ... ... ... : ... .. . ... ... ... : ... .. . ... ... ... : ... .. . ... ... ... : ... .. . ... ... ... : ... .. . ... ... ...
ROW F6 : ... .. . ... ... ... : D#2 02 . ... ... ... : --- .. . ... ... ... : ... .. 2 ... ... ... : ... .. . ... ... ... : C#2 09 . ... ... ... : C#2 09 . P81 ... ... : ... .. . ... ... ... : C#2 09 . ... ... ... : ... .. . ... ... ... : ... .. . ... ... ... : ... .. . ... ... ... : ... .. . ... ... ...
ROW F7 : ... .. . ... ... ... : G#1 02 . ... ... ... : ... .. . ... ... ... : ... .. 1 ... ... ... : ... .. . ... ... ... : ... .. . ... ... ... : ... .. . P82 ... ... : ... .. . ... ... ... : ... .. . ... ... ... : ... .. . ... ... ... : ... .. . ... ... ... : ... .. . ... ... ... : ... .. . ... ... ...
ROW F8 : ... .. . ... ... ... : C#1 02 . ... ... ... : ... .. . ... ... ... : --- .. . ... ... ... : ... .. . ... ... ... : ... .. . ... ... ... : ... .. . ... ... ... : ... .. . ... ... ... : ... .. . ... ... ... : ... .. . ... ... ... : ... .. . ... ... ... : ... .. . ... ... ... : ... .. . ... ... ...
ROW F9 : ... .. . ... ... ... : ... .. . ... ... ... : ... .. . ... ... ... : ... .. . ... ... ... : ... .. . ... ... ... : C#2 06 . ... ... ... : C#2 06 . P81 ... ... : ... .. . ... ... ... : C#2 06 7 ... ... ... : ... .. . ... ... ... : ... .. . ... ... ... : ... .. . ... ... ... : ... .. . ... ... ...
ROW FA : ... .. . ... ... ... : ... .. . ... ... ... : ... .. . ... ... ... : ... .. . ... ... ... : ... .. . ... ... ... : ... .. . ... ... ... : ... .. . P80 ... ... : ... .. . ... ... ... : ... .. . ... ... ... : ... .. . ... ... ... : ... .. . ... ... ... : ... .. . ... ... ... : ... .. . ... ... ...
ROW FB : ... .. . ... ... ... : ... .. . ... ... ... : ... .. . ... ... ... : ... .. . ... ... ... : ... .. . ... ... ... : ... .. . ... ... ... : ... .. . P81 ... ... : ... .. . ... ... ... : ... .. . ... ... ... : ... .. . ... ... ... : ... .. . ... ... ... : ... .. . ... ... ... : ... .. . ... ... ...
ROW FC : ... .. . ... ... ... : ... .. . ... ... ... : ... .. . ... ... ... : ... .. . ... ... ... : ... .. . ... ... ... : C#2 09 . ... ... ... : C-2 09 . P7F ... ... : ... .. . ... ... ... : C#2 09 . ... ... ... : ... .. . ... ... ... : ... .. . ... ... ... : ... .. . ... ... ... : ... .. . ... ... ...
ROW FD : ... .. . ... ... ... : ... .. . ... ... ... : ... .. . ... ... ... : ... .. . ... ... ... : ... .. . ... ... ... : ... .. . ... ... ... : C#2 09 . P81 ... ... : ... .. . ... ... ... : ... .. . ... ... ... : ... .. . ... ... ... : ... .. . ... ... ... : ... .. . ... ... ... : ... .. . ... ... ...
ROW FE : ... .. . ... ... ... : ... .. . ... ... ... : ... .. . ... ... ... : ... .. . ... ... ... : ... .. . ... ... ... : ... .. . ... ... ... : ... .. . P80 ... ... : ... .. . ... ... ... : ... .. . ... ... ... : ... .. . ... ... ... : ... .. . ... ... ... : ... .. . ... ... ... : ... .. . ... ... ...
ROW FF : ... .. . ... ... ... : ... .. . ... ... ... : ... .. . ... ... ... : D-# 00 A ... ... ... : ... .. . ... ... ... : C#2 06 . ... ... ... : C#2 06 . P81 ... ... : ... .. . ... ... ... : C#2 06 . ... ... ... : ... .. . ... ... ... : ... .. . ... ... ... : ... .. . ... ... ... : ... .. . ... ... ...

PATTERN 13
ROW 00 : ... .. . ... ... ... : ... .. . ... ... ... : ... .. . ... ... ... : E-# 00 4 ... ... ... : ... .. . ... ... ... : ... .. . ... ... ... : C-2 06 . P7F ... ... : ... .. . ... ... ... : ... .. . ... ... ... : ... .. . ... ... ... : ... .. . ... ... ... : ... .. . ... ... ... : ... .. . ... ... ...
ROW 01 : ... .. . ... ... ... : ... .. . ... ... ... : ... .. . ... ... ... : D-# 00 2 ... ... ... : ... .. . ... ... ... : ... .. . ... ... ... : C#2 06 . P81 ... ... : ... .. . ... ... ... : ... .. 6 ... ... ... : ... .. . ... ... ... : ... .. . ... ... ... : ... .. . ... ... ... : ... .. . ... ... ...
ROW 02 : ... .. . ... ... ... : ... .. . ... ... ... : ... .. . ... ... ... : ... .. 1 ... ... ... : ... .. . ... ... ... : C#2 09 . ... ... ... : C#2 09 . P80 ... ... : ... .. . ... ... ... : C#2 09 . ... ... ... : ... .. . ... ... ... : ... .. . ... ... ... : ... .. . ... ... ... : ... .. . ... ... ...
ROW 03 : ... .. . ... ... ... : ... .. . ... ... ... : ... .. . ... ... ... : ... .. . ... ... ... : ... .. . ... ... ... : ... .. . ... ... ... : ... .. . P81 ... ... : ... .. . ... ... ... : ... .. . ... ... ... : ... .. . ... ... ... : ... .. . ... ... ... : ... .. . ... ... ... : ... .. . ... ... ...
ROW 04 : ... .. . ... ... ... : ... .. . ... ... ... : ... .. . ... ... ... : --- .. . ... ... ... : ... .. . ... ... ... : ... .. . ... ... ... : C-2 09 . P7F ... ... : ... .. . ... ... ... : ... .. . ... ... ... : ... .. . ... ... ... : ... .. . ... ... ... : ... .. . ... ... ... : ... .. . ... ... ...
ROW 05 : ... .. . ... ... ... : ... .. . ... ... ... : ... .. . ... ... ... : D-# 00 A ... ... ... : ... .. . ... ... ... : C#2 06 . ... ... ... : C#2 06 . P82 ... ... : ... .. . ... ... ... : C#2 06 . ... ... ... : ... .. . ... ... ... : ... .. . ... ... ... : ... .. . ... ... ... : ... .. . ... ... ...
ROW 06 : ... .. . ... ... ... : ... .. . ... ... ... : ... .. . ... ... ... : E-# 00 4 ... ... ... : ... .. . ... ... ... : ... .. . ... ... ... : ... .. . P81 ... ... : ... .. . ... ... ... : ... .. . ... ... ... : ... .. . ... ... ... : ... .. . ... ... ... : ... .. . ... ... ... : ... .. . ... ... ...
ROW 07 : ... .. . ... ... ... : ... .. . ... ... ... : ... .. . ... ... ... : D-# 00 2 ... ... ... : ... .. . ... ... ... : ... .. . ... ... ... : ... .. . ... ... ... : ... .. . ... ... ... : ... .. . ... ... ... : ... .. . ... ... ... : ... .. . ... ... ... : ... .. . ... ... ... : ... .. . ... ... ...
ROW 08 : ... .. . ... ... ... : ... .. . ... ... ... : ... .. . ... ... ... : ... .. 1 ... ... ... : ... .. . ... ... ... : C#2 09 . ... ... ... : C#2 09 . P82 ... ... : ... .. . ... ... ... : C#2 09 . ... ... ... : ... .. . ... ... ... : ... .. . ... ... ... : ... .. . ... ... ... : ... .. . ... ... ...
ROW 09 : ... .. . ... ... ... : ... .. . ... ... ... : ... .. . ... ... ... : ... .. . ... ... ... : ... .. . ... ... ... : ... .. . ... ... ... : ... .. . ... ... ... : ... .. . ... ... ... : ... .. 5 ... ... ... : ... .. . ... ... ... : ... .. . ... ... ... : ... .. . ... ... ... : ... .. . ... ... ...
ROW 0A : ... .. . ... ... ... : ... .. . ... ... ... : ... .. . ... ... ... : --- .. . ... ... ... : ... .. . ... ... ... : ... .. . ... ... ... : ... .. . P81 ... ... : ... .. . ... ... ... : ... .. . ... ... ... : ... .. . ... ... ... : ... .. . ... ... ... : ... .. . ... ... ... : ... .. . ... ... ...
ROW 0B : ... .. . ... ... ... : ... .. . ... ... ... : ... .. . ... ... ... : ... .. . ... ... ... : ... .. . ... ... ... : ... .. . ... ... ... : ... .. . P80 ... ... : ... .. . ... ... ... : ... .. . ... ... ... : ... .. . ... ... ... : ... .. . ... ... ... : ... .. . ... ... ... : ... .. . ... ... ...
ROW 0C : ... .. . ... ... ... : C-4 02 . P80 ... ... : C#4 00 . P7F ... ... : 9-# 00 F ... ... ... : C#1 12 . ... ... ... : G-1 06 . ... ... ... : G-1 06 . P81 ... ... : ... .. . ... ... ... : G-1 06 . ... ... ... : ... .. . ... ... ... : ... .. . ... ... ... : ... .. . ... ... ... : ... .. . ... ... ...
ROW 0D : ... .. . ... ... ... : F-3 02 . ... ... ... : F#3 00 . P83 ... ... : 2-# 00 7 ... ... ... : ... .. . ... ... ... : ... .. . ... ... ... : F#1 06 . P80 ... ... : ... .. . ... ... ... : ... .. . ... ... ... : ... .. . ... ... ... : ... .. . ... ... ... : ... .. . ... ... ... : ... .. . ... ... ...
ROW 0E : ... .. . ... ... ... : A#2 02 . P81 ... ... : C#3 00 . P89 ... ... : 6-# 00 C ... ... ... : ... .. . ... ... ... : ... .. . ... ... ... : G-1 06 . P81 ... ... : ... .. . ... ... ... : ... .. . ... ... ... : ... .. . ... ... ... : ... .. . ... ... ... : ... .. . ... ... ... : ... .. . ... ... ...
ROW 0F : ... .. . ... ... ... : D#2 02 . ... ... ... : A#2 00 . P75 ... ... : 7-# 00 8 ... ... ... : ... .. . ... ... ... : ... .. . ... ... ... : ... .. . P80 ... ... : ... .. . ... ... ... : ... .. . ... ... ... : ... .. . ... ... ... : ... .. . ... ... ... : ... .. . ... ... ... : ... .. . ... ... ...
ROW 10 : ... .. . ... ... ... : G#1 02 . ... ... ... : G-2 00 . P70 ... ... : 8-# 00 7 ... ... ... : ... .. . ... ... ... : ... .. . ... ... ... : ... .. . P81 ... ... : ... .. . ... ... ... : ... .. . ... ... ... : ... .. . ... ... ... : ... .. . ... ... ... : ... .. . ... ... ... : ... .. . ... ... ...
ROW 11 : ... .. . ... ... ... : C#1 02 . ... ... ... : E-2 00 . P7C ... ... : ... .. 6 ... ... ... : ... .. . ... ... ... : ... .. . ... ... ... : F#1 06 . P80 ... ... : ... .. . ... ... ... : ... .. 4 ... ... ... : ... .. . ... ... ... : ... .. . ... ... ... : ... .. . ... ... ... : ... .. . ... ... ...
ROW 12 : ... .. . ... ... ... : ... .. . ... ... ... : --- .. . ... ... ... : ... .. . ... ... ... : ... .. . ... ... ... : G-1 07 . ... ... ... : G-1 07 . P81 ... ... : ... .. . ... ... ... : G-1 07 . ... ... ... : ... .. . ... ... ... : ... .. . ... ... ... : ... .. . ... ... ... : ... .. . ... ... ...
ROW 13 : ... .. . ... ... ... : ... .. . ... ... ... : ... .. . ... ... ... : ... .. 5 ... ... ... : ... .. . ... ... ... : ... .. . ... ... ... : ... .. . P80 ... ... : ... .. . ... ... ... : ... .. . ... ... ... : ... .. . ... ... ... : ... .. . ... ... ... : ... .. . ... ... ... : ... .. . ... ... ...
ROW 14 : ... .. . ... ... ... : ... .. . ... ... ... : ... .. . ... ... ... : ... .. . ... ... ... : ... .. . ... ... ... : ... .. . ... ... ... : ... .. . P81 ... ... : ... .. . ... ... ... : ... .. . ... ... ... : ... .. . ... ... ... : ... .. . ... ... ... : ... .. . ... ... ... : ... .. . ... ... ...
ROW 15 : ... .. . ... ... ... : ... .. . ... ... ... : ... .. . ... ... ... : ... .. 4 ... ... ... : ... .. . ... ... ... : G-1 08 . ... ... ... : F#1 08 . P80 ... ... : ... .. . ... ... ... : G-1 08 . ... ... ... : ... .. . ... ... ... : ... .. . ... ... ... : ... .. . ... ... ... : ... .. . ... ... ...
ROW 16 : ... .. . ... ... ... : ... .. . ... ... ... : ... .. . ... ... ... : ... .. . ... ... ... : ... .. . ... ... ... : ... .. . ... ... ... : ... .. . ... ... ... : ... .. . ... ... ... : ... .. . ... ... ... : ... .. . ... ... ... : ... .. . ... ... ... : ... .. . ... ... ... : ... .. . ... ... ...
ROW 17 : ... .. . ... ... ... : ... .. . ... ... ... : ... .. . ... ... ... : ... .. 3 ... ... ... : ... .. . ... ... ... : ... .. . ... ... ... : G-1 08 . P81 ... ... : ... .. . ... ... ... : ... .. . ... ... ... : ... .. . ... ... ... : ... .. . ... ... ... : ... .. . ... ... ... : ... .. . ... ... ...
ROW 18 : ... .. . ... ... ... : ... .. . ... ... ... : ... .. . ... ... ... : 6-# 01 F ... ... ... : ... .. . ... ... ... : B-1 06 . ... ... ... : B-1 06 . ... ... ... : ... .. . ... ... ... : B-1 06 . ... ... ... : ... .. . ... ... ... : ... .. . ... ... ... : ... .. . ... ... ... : ... .. . ... ... ...
ROW 19 : ... .. . ... ... ... : ... .. . ... ... ... : ... .. . ... ... ... : ... .. 9 ... ... ... : ... .. . ... ... ... : ... .. . ... ... ... : A#1 06 . P7F ... ... : ... .. . ... ... ... : ... .. 3 ... ... ... : ... .. . ... ... ... : ... .. . ... ... ... : ... .. . ... ... ... : ... .. . ... ... ...
ROW 1A : ... .. . ... ... ... : ... .. . ... ... ... : ... .. . ... ... ... : ... .. 4 ... ... ... : ... .. . ... ... ... : ... .. . ... ... ... : ... .. . P80 ... ... : ... .. . ... ... ... : ... .. . ... ... ... : ... .. . ... ... ... : ... .. . ... ... ... : ... .. . ... ... ... : ... .. . ... ... ...
ROW 1B : ... .. . ... ... ... : ... .. . ... ... ... : ... .. . ... ... ... : ... .. 7 ... ... ... : ... .. . ... ... ... : ... .. . ... ... ... : B-1 06 . P81 ... ... : ... .. . ... ... ... : ... .. . ... ... ... : ... .. . ... ... ... : ... .. . ... ... ... : ... .. . ... ... ... : ... .. . ... ... ...
ROW 1C : ... .. . ... ... ... : ... .. . ... ... ... : ... .. . ... ... ... : ... .. 5 ... ... ... : ... .. . ... ... ... : ... .. . ... ... ... : ... .. . P80 ... ... : ... .. . ... ... ... : ... .. . ... ... ... : ... .. . ... ... ... : ... .. . ... ... ... : ... .. . ... ... ... : ... .. . ... ... ...
ROW 1D : ... .. . ... ... ... : ... .. . ... ... ... : ... .. . ... ... ... : ... .. . ... ... ... : ... .. . ... ... ... : ... .. . ... ... ... : ... .. . P81 ... ... : ... .. . ... ... ... : ... .. . ... ... ... : ... .. . ... ... ... : ... .. . ... ... ... : ... .. . ... ... ... : ... .. . ... ... ...
ROW 1E : ... .. . ... ... ... : ... .. . ... ... ... : ... .. . ... ... ... : ... .. 4 ... ... ... : ... .. . ... ... ... : B-1 07 . ... ... ... : A#1 07 . P80 ... ... : ... .. . ... ... ... : B-1 07 . ... ... ... : ... .. . ... ... ... : ... .. . ... ... ... : ... .. . ... ... ... : ... .. . ... ... ...
ROW 1F : ... .. . ... ... ... : ... .. . ... ... ... : ... .. . ... ... ... : ... .. . ... ... ... : ... .. . ... ... ... : ... .. . ... ... ... : B-1 07 . P81 ... ... : ... .. . ... ... ... : ... .. . ... ... ... : ... .. . ... ... ... : ... .. . ... ... ... : ... .. . ... ... ... : ... .. . ... ... ...
ROW 20 : ... .. . ... ... ... : ... .. . ... ... ... : ... .. . ... ... ... : ... .. 3 ... ... ... : ... .. . ... ... ... : ... .. . ... ... ... : ... .. . P80 ... ... : ... .. . ... ... ... : ... .. . ... ... ... : ... .. . ... ... ... : ... .. . ... ... ... : ... .. . ... ... ... : ... .. . ... ... ...
ROW 21 : ... .. . ... ... ... : ... .. . ... ... ... : ... .. . ... ... ... : ... .. 2 ... ... ... : ... .. . ... ... ... : B-1 08 . ... ... ... : B-1 08 . P81 ... ... : ... .. . ... ... ... : B-1 08 2 ... ... ... : ... .. . ... ... ... : ... .. . ... ... ... : ... .. . ... ... ... : ... .. . ... ... ...
ROW 22 : ... .. . ... ... ... : ... .. . ... ... ... : ... .. . ... ... ... : ... .. . ... ... ... : ... .. . ... ... ... : ... .. . ... ... ... : A#1 08 . P80 ... ... : ... .. . ... ... ... : ... .. . ... ... ... : ... .. . ... ... ... : ... .. . ... ... ... : ... .. . ... ... ... : ... .. . ... ... ...
ROW 23 : ... .. . ... ... ... : ... .. . ... ... ... : ... .. . ... ... ... : ... .. 1 ... ... ... : ... .. . ... ... ... : ... .. . ... ... ... : B-1 08 . P81 ... ... : ... .. . ... ... ... : ... .. . ... ... ... : ... .. . ... ... ... : ... .. . ... ... ... : ... .. . ... ... ... : ... .. . ... ... ...
ROW 24 : ... .. . ... ... ... : ... .. . ... ... ... : ... .. . ... ... ... : ... .. . ... ... ... : ... .. . ... ... ... : ... .. . ... ... ... : ... .. . P80 ... ... : ... .. . ... ... ... : ... .. . ... ... ... : ... .. . ... ... ... : ... .. . ... ... ... : ... .. . ... ... ... : ... .. . ... ... ...
ROW 25 : ... .. . ... ... ... : C-4 02 . P80 ... ... : F#3 00 . P78 ... ... : 1-# 00 F ... ... ... : C-1 12 . ... ... ... : G-4 04 A P78 ... ... : A-4 04 A P81 ... ... : ... .. . ... ... ... : F#4 04 9 P89 ... ... : G-4 04 9 P81 ... ... : ... .. . ... ... ... : ... .. . ... ... ... : ... .. . ... ... ...
ROW 26 : ... .. . ... ... ... : F-3 02 . ... ... ... : C#3 00 . P7E ... ... : 2-# 00 7 ... ... ... : ... .. . ... ... ... : G#4 04 . P84 ... ... : ... .. . P82 ... ... : ... .. . ... ... ... : ... .. . P81 ... ... : ... .. . ... ... ... : ... .. . ... ... ... : ... .. . ... ... ... : ... .. . ... ... ...
ROW 27 : ... .. . ... ... ... : A#2 02 . P81 ... ... : A-2 00 . P86 ... ... : 1-# 00 4 ... ... ... : ... .. . ... ... ... : ... .. . P7C ... ... : ... .. . ... ... ... : ... .. . ... ... ... : ... .. . P79 ... ... : ... .. . ... ... ... : ... .. . ... ... ... : ... .. . ... ... ... : ... .. . ... ... ...
ROW 28 : ... .. . ... ... ... : D#2 02 . ... ... ... : --- .. . ... ... ... : ... .. 2 ... ... ... : ... .. . ... ... ... : A-4 04 . P88 ... ... : ... .. . P81 ... ... : ... .. . ... ... ... : G-4 04 . P83 ... ... : ... .. . ... ... ... : ... .. . ... ... ... : ... .. . ... ... ... : ... .. . ... ... ...
ROW 29 : ... .. . ... ... ... : G#1 02 . ... ... ... : ... .. . ... ... ... : ... .. 1 ... ... ... : ... .. . ... ... ... : ... .. . P80 ... ... : ... .. . ... ... ... : ... .. . ... ... ... : ... .. . P7B ... ... : ... .. 8 ... ... ... : ... .. . ... ... ... : ... .. . ... ... ... : ... .. . ... ... ...
ROW 2A : ... .. . ... ... ... : C#1 02 . ... ... ... : ... .. . ... ... ... : --- .. . ... ... ... : ... .. . ... ... ... : ... .. . P78 ... ... : ... .. . P82 ... ... : ... .. . ... ... ... : G#4 04 . P86 ... ... : ... .. . ... ... ... : ... .. . ... ... ... : ... .. . ... ... ... : ... .. . ... ... ...
ROW 2B : ... .. . ... ... ... : ... .. . ... ... ... : ... .. . ... ... ... : ... .. . ... ... ... : ... .. . ... ... ... : ... .. . P7A ... ... : ... .. . P84 ... ... : ... .. . ... ... ... : ... .. . P88 ... ... : ... .. . P83 ... ... : ... .. . ... ... ... : ... .. . ... ... ... : ... .. . ... ... ...
ROW 2C : ... .. . ... ... ... : ... .. . ... ... ... : ... .. . ... ... ... : ... .. . ... ... ... : ... .. . ... ... ... : ... .. . P7C ... ... : ... .. . P85 ... ... : ... .. . ... ... ... : ... .. . P8A ... ... : ... .. . P85 ... ... : ... .. . ... ... ... : ... .. . ... ... ... : ... .. . ... ... ...
ROW 2D : ... .. . ... ... ... : ... .. . ... ... ... : ... .. . ... ... ... : ... .. . ... ... ... : ... .. . ... ... ... : ... .. . P7E ... ... : ... .. . P86 ... ... : ... .. . ... ... ... : G-4 04 8 P79 ... ... : ... .. 7 P87 ... ... : ... .. . ... ... ... : ... .. . ... ... ... : ... .. . ... ... ...
ROW 2E : ... .. . ... ... ... : ... .. . ... ... ... : ... .. . ... ... ... : ... .. . ... ... ... : ... .. . ... ... ... : ... .. . P80 ... ... : ... .. . P89 ... ... : ... .. . ... ... ... : ... .. . P7B ... ... : ... .. . P89 ... ... : ... .. . ... ... ... : ... .. . ... ... ... : ... .. . ... ... ...
ROW 2F : ... .. . ... ... ... : ... .. . ... ... ... : ... .. . ... ... ... : ... .. . ... ... ... : ... .. . ... ... ... : ... .. . P82 ... ... : G#4 04 . P78 ... ... : ... .. . ... ... ... : ... .. . P7D ... ... : F#4 04 . P79 ... ... : ... .. . ... ... ... : ... .. . ... ... ... : ... .. . ... ... ...
ROW 30 : ... .. . ... ... ... : ... .. . ... ... ... : ... .. . ... ... ... : ... .. . ... ... ... : ... .. . ... ... ... : ... .. . P84 ... ... : ... .. . P79 ... ... : ... .. . ... ... ... : ... .. . P7F ... ... : ... .. . P7B ... ... : ... .. . ... ... ... : ... .. . ... ... ... : ... .. . ... ... ...
ROW 31 : ... .. . ... ... ... : ... .. . ... ... ... : ... .. . ... ... ... : D-# 00 A ... ... ... : ... .. . ... ... ... : G#4 04 . P7E ... ... : ... .. . P86 ... ... : ... .. . ... ... ... : F#4 04 . P7B ... ... : F-4 04 6 P78 ... ... : ... .. . ... ... ... : ... .. . ... ... ... : ... .. . ... ... ...
ROW 32 : ... .. . ... ... ... : ... .. . ... ... ... : ... .. . ... ... ... : E-# 00 4 ... ... ... : ... .. . ... ... ... : G-4 04 . P78 ... ... : G-4 04 . P82 ... ... : ... .. . ... ... ... : ... .. . P89 ... ... : ... .. . P86 ... ... : ... .. . ... ... ... : ... .. . ... ... ... : ... .. . ... ... ...
ROW 33 : ... .. . ... ... ... : ... .. . ... ... ... : ... .. . ... ... ... : D-# 00 2 ... ... ... : ... .. . ... ... ... : ... .. . P86 ... ... : F#4 04 . P7F ... ... : ... .. . ... ... ... : F-4 04 . P85 ... ... : E-4 04 . P84 ... ... : ... .. . ... ... ... : ... .. . ... ... ... : ... .. . ... ... ...
ROW 34 : ... .. . ... ... ... : ... .. . ... ... ... : ... .. . ... ... ... : ... .. 1 ... ... ... : ... .. . ... ... ... : F#4 04 . P82 ... ... : F-4 04 . P7B ... ... : ... .. . ... ... ... : E-4 04 . P83 ... ... : D#4 04 . P83 ... ... : ... .. . ... ... ... : ... .. . ... ... ... : ... .. . ... ... ...
ROW 35 : ... .. . ... ... ... : ... .. . ... ... ... : ... .. . ... ... ... : ... .. . ... ... ... : ... .. . ... ... ... : F-4 04 . P7F ... ... : ... .. . P88 ... ... : ... .. . ... ... ... : D#4 04 7 P82 ... ... : D-4 04 5 P82 ... ... : ... .. . ... ... ... : ... .. . ... ... ... : ... .. . ... ... ...
ROW 36 : ... .. . ... ... ... : ... .. . ... ... ... : ... .. . ... ... ... : --- .. . ... ... ... : ... .. . ... ... ... : E-4 04 . P7D ... ... : E-4 04 . P86 ... ... : ... .. . ... ... ... : D-4 04 . ... ... ... : C#4 04 . P83 ... ... : ... .. . ... ... ... : ... .. . ... ... ... : ... .. . ... ... ...
ROW 37 : ... .. . ... ... ... : ... .. . ... ... ... : ... .. . ... ... ... : D-# 00 A ... ... ... : ... .. . ... ... ... : D#4 04 . P7C ... ... : D#4 04 . ... ... ... : ... .. . ... ... ... : C#4 04 . ... ... ... : C-4 04 . P84 ... ... : ... .. . ... ... ... : ... .. . ... ... ... : ... .. . ... ... ...
ROW 38 : ... .. . ... ... ... : ... .. . ... ... ... : ... .. . ... ... ... : E-# 00 4 ... ... ... : ... .. . ... ... ... : D-4 04 . P7B ... ... : D-4 04 . P85 ... ... : ... .. . ... ... ... : C-4 04 . P83 ... ... : B-3 04 . P86 ... ... : ... .. . ... ... ... : ... .. . ... ... ... : ... .. . ... ... ...
ROW 39 : ... .. . ... ... ... : ... .. . ... ... ... : ... .. . ... ... ... : D-# 00 2 ... ... ... : ... .. . ... ... ... : C#4 04 . P7C ... ... : C#4 04 . ... ... ... : ... .. . ... ... ... : B-3 04 . P85 ... ... : A-3 04 4 P7E ... ... : ... .. . ... ... ... : ... .. . ... ... ... : ... .. . ... ... ...
ROW 3A : ... .. . ... ... ... : ... .. . ... ... ... : ... .. . ... ... ... : ... .. 1 ... ... ... : ... .. . ... ... ... : C-4 04 . P7D ... ... : C-4 04 . P86 ... ... : ... .. . ... ... ... : A-3 04 . P7D ... ... : G#3 04 . P82 ... ... : ... .. . ... ... ... : ... .. . ... ... ... : ... .. . ... ... ...
ROW 3B : ... .. . ... ... ... : ... .. . ... ... ... : ... .. . ... ... ... : ... .. . ... ... ... : ... .. . ... ... ... : B-3 04 . P7F ... ... : A#3 04 . P7D ... ... : ... .. . ... ... ... : G#3 04 . P81 ... ... : F#3 04 . P7D ... ... : ... .. . ... ... ... : ... .. . ... ... ... : ... .. . ... ... ...
ROW 3C : ... .. . ... ... ... : ... .. . ... ... ... : ... .. . ... ... ... : --- .. . ... ... ... : ... .. . ... ... ... : A#3 04 . P82 ... ... : A-3 04 . P81 ... ... : ... .. . ... ... ... : F#3 04 . P7C ... ... : F-3 04 . P82 ... ... : ... .. . ... ... ... : ... .. . ... ... ... : ... .. . ... ... ...
ROW 3D : ... .. . ... ... ... : ... .. . ... ... ... : ... .. . ... ... ... : ... .. . ... ... ... : ... .. . ... ... ... : A-3 04 . P85 ... ... : G#3 04 . P84 ... ... : ... .. . ... ... ... : F-3 04 6 P82 ... ... : D#3 04 3 P81 ... ... : ... .. . ... ... ... : ... .. . ... ... ... : ... .. . ... ... ...
ROW 3E : ... .. . ... ... ... : C-4 02 . P80 ... ... : C#4 00 . P7F ... ... : 9-# 00 F ... ... ... : C#1 12 . ... ... ... : G#1 04 F P80 ... ... : F#3 04 . P7E ... ... : G-1 04 9 ... ... ... : A-1 04 9 ... ... ... : C#3 04 . ... ... ... : ... .. . ... ... ... : ... .. . ... ... ... : ... .. . ... ... ...
ROW 3F : ... .. . ... ... ... : F-3 02 . ... ... ... : F#3 00 . P83 ... ... : 2-# 00 7 ... ... ... : ... .. . ... ... ... : ... .. . ... ... ... : E-3 04 . P7D ... ... : ... .. . ... ... ... : ... .. . ... ... ... : B-2 04 . P82 ... ... : ... .. . ... ... ... : ... .. . ... ... ... : ... .. . ... ... ...
ROW 40 : ... .. . ... ... ... : A#2 02 . P81 ... ... : C#3 00 . P89 ... ... : 6-# 00 C ... ... ... : ... .. . ... ... ... : ... .. . ... ... ... : D-3 04 . ... ... ... : ... .. . ... ... ... : ... .. . ... ... ... : G#2 04 . P80 ... ... : ... .. . ... ... ... : ... .. . ... ... ... : ... .. . ... ... ...
ROW 41 : ... .. . ... ... ... : D#2 02 . ... ... ... : A#2 00 . P75 ... ... : 7-# 00 8 ... ... ... : ... .. . ... ... ... : ... .. . ... ... ... : C#3 04 . P83 ... ... : ... .. . ... ... ... : ... .. . ... ... ... : F-2 04 2 ... ... ... : ... .. . ... ... ... : ... .. . ... ... ... : ... .. . ... ... ...
ROW 42 : ... .. . ... ... ... : G#1 02 . ... ... ... : G-2 00 . P70 ... ... : 8-# 00 7 ... ... ... : ... .. . ... ... ... : ... .. . ... ... ... : A#2 04 . P7E ... ... : ... .. 8 ... ... ... : ... .. . ... ... ... : C#2 04 . ... ... ... : ... .. . ... ... ... : ... .. . ... ... ... : ... .. . ... ... ...
ROW 43 : ... .. . ... ... ... : C#1 02 . ... ... ... : E-2 00 . P7C ... ... : ... .. 6 ... ... ... : ... .. . ... ... ... : ... .. . ... ... ... : G#2 04 . P83 ... ... : ... .. . ... ... ... : ... .. . ... ... ... : G#1 04 . P7F ... ... : ... .. . ... ... ... : ... .. . ... ... ... : ... .. . ... ... ...
ROW 44 : ... .. . ... ... ... : ... .. . ... ... ... : --- .. . ... ... ... : ... .. . ... ... ... : ... .. . ... ... ... : G#2 04 . ... ... ... : E-2 04 . P80 ... ... : G#2 04 . P82 ... ... : G#2 04 . P7F ... ... : D-1 04 . P81 ... ... : ... .. . ... ... ... : ... .. . ... ... ... : ... .. . ... ... ...
ROW 45 : ... .. . ... ... ... : ... .. . ... ... ... : ... .. . ... ... ... : ... .. 5 ... ... ... : ... .. . ... ... ... : ... .. . ... ... ... : C-2 04 . P7F ... ... : ... .. . ... ... ... : ... .. . ... ... ... : D#0 04 1 ... ... ... : ... .. . ... ... ... : ... .. . ... ... ... : ... .. . ... ... ...
ROW 46 : ... .. . ... ... ... : ... .. . ... ... ... : ... .. . ... ... ... : ... .. . ... ... ... : ... .. . ... ... ... : ... .. . ... ... ... : G#1 04 . P81 ... ... : ... .. 7 ... ... ... : ... .. 8 ... ... ... : --- .. . P7F ... ... : ... .. . ... ... ... : ... .. . ... ... ... : ... .. . ... ... ...
ROW 47 : ... .. . ... ... ... : ... .. . ... ... ... : ... .. . ... ... ... : ... .. 4 ... ... ... : ... .. . ... ... ... : ... .. . ... ... ... : C#1 04 . ... ... ... : ... .. . ... ... ... : ... .. . ... ... ... : D#7 04 . P81 ... ... : ... .. . ... ... ... : ... .. . ... ... ... : ... .. . ... ... ...
ROW 48 : ... .. . ... ... ... : ... .. . ... ... ... : ... .. . ... ... ... : ... .. . ... ... ... : ... .. . ... ... ... : ... .. . ... ... ... : C-0 04 . ... ... ... : ... .. . ... ... ... : ... .. . ... ... ... : ... .. . ... ... ... : ... .. . ... ... ... : ... .. . ... ... ... : ... .. . ... ... ...
ROW 49 : ... .. . ... ... ... : ... .. . ... ... ... : ... .. . ... ... ... : ... .. 3 ... ... ... : ... .. . ... ... ... : ... .. . ... ... ... : D#7 04 . ... ... ... : ... .. . ... ... ... : ... .. . ... ... ... : --- .. . ... ... ... : ... .. . ... ... ... : ... .. . ... ... ... : ... .. . ... ... ...
ROW 4A : ... .. . ... ... ... : ... .. . ... ... ... : ... .. . ... ... ... : D-# 00 A ... ... ... : ... .. . ... ... ... : G#1 04 . ... ... ... : --- .. . ... ... ... : G-1 04 6 P80 ... ... : A-1 04 . P82 ... ... : ... .. . P80 ... ... : ... .. . ... ... ... : ... .. . ... ... ... : ... .. . ... ... ...
ROW 4B : ... .. . ... ... ... : ... .. . ... ... ... : ... .. . ... ... ... : E-# 00 4 ... ... ... : ... .. . ... ... ... : ... .. . ... ... ... : ... .. . P80 ... ... : ... .. . ... ... ... : ... .. . ... ... ... : ... .. . ... ... ... : ... .. . ... ... ... : ... .. . ... ... ... : ... .. . ... ... ...
ROW 4C : ... .. . ... ... ... : ... .. . ... ... ... : ... .. . ... ... ... : D-# 00 2 ... ... ... : ... .. . ... ... ... : ... .. . ... ... ... : ... .. . ... ... ... : ... .. . ... ... ... : ... .. . ... ... ... : ... .. . ... ... ... : ... .. . ... ... ... : ... .. . ... ... ... : ... .. . ... ... ...
ROW 4D : ... .. . ... ... ... : ... .. . ... ... ... : ... .. . ... ... ... : ... .. 1 ... ... ... : ... .. . ... ... ... : ... .. . ... ... ... : ... .. . ... ... ... : ... .. . ... ... ... : ... .. . ... ... ... : ... .. . ... ... ... : ... .. . ... ... ... : ... .. . ... ... ... : ... .. . ... ... ...
ROW 4E : ... .. . ... ... ... : ... .. . ... ... ... : ... .. . ... ... ... : ... .. . ... ... ... : ... .. . ... ... ... : ... .. . ... ... ... : ... .. . ... ... ... : ... .. 5 ... ... ... : ... .. 7 ... ... ... : ... .. . ... ... ... : ... .. . ... ... ... : ... .. . ... ... ... : ... .. . ... ... ...
ROW 4F : ... .. . ... ... ... : ... .. . ... ... ... : ... .. . ... ... ... : --- .. . ... ... ... : ... .. . ... ... ... : ... .. . ... ... ... : ... .. . ... ... ... : ... .. . ... ... ... : ... .. . ... ... ... : ... .. . ... ... ... : ... .. . ... ... ... : ... .. . ... ... ... : ... .. . ... ... ...
ROW 50 : ... .. . ... ... ... : ... .. . ... ... ... : ... .. . ... ... ... : D-# 00 A ... ... ... : ... .. . ... ... ... : G#2 04 . ... ... ... : ... .. . ... ... ... : G#2 04 . P82 ... ... : G#2 04 . P7F ... ... : ... .. . ... ... ... : ... .. . ... ... ... : ... .. . ... ... ... : ... .. . ... ... ...
ROW 51 : ... .. . ... ... ... : ... .. . ... ... ... : ... .. . ... ... ... : E-# 00 4 ... ... ... : ... .. . ... ... ... : ... .. . ... ... ... : ... .. . ... ... ... : ... .. . ... ... ... : ... .. . ... ... ... : ... .. . ... ... ... : ... .. . ... ... ... : ... .. . ... ... ... : ... .. . ... ... ...
ROW 52 : ... .. . ... ... ... : ... .. . ... ... ... : ... .. . ... ... ... : D-# 00 2 ... ... ... : ... .. . ... ... ... : ... .. . ... ... ... : ... .. . ... ... ... : ... .. 4 ... ... ... : ... .. . ... ... ... : ... .. . ... ... ... : ... .. . ... ... ... : ... .. . ... ... ... : ... .. . ... ... ...
ROW 53 : ... .. . ... ... ... : ... .. . ... ... ... : ... .. . ... ... ... : ... .. 1 ... ... ... : ... .. . ... ... ... : ... .. . ... ... ... : ... .. . ... ... ... : ... .. . ... ... ... : ... .. . ... ... ... : ... .. . ... ... ... : ... .. . ... ... ... : ... .. . ... ... ... : ... .. . ... ... ...
ROW 54 : ... .. . ... ... ... : ... .. . ... ... ... : ... .. . ... ... ... : ... .. . ... ... ... : ... .. . ... ... ... : ... .. . ... ... ... : ... .. . ... ... ... : ... .. . ... ... ... : ... .. . ... ... ... : ... .. . ... ... ... : ... .. . ... ... ... : ... .. . ... ... ... : ... .. . ... ... ...
ROW 55 : ... .. . ... ... ... : ... .. . ... ... ... : ... .. . ... ... ... : --- .. . ... ... ... : ... .. . ... ... ... : ... .. . ... ... ... : ... .. . ... ... ... : ... .. . ... ... ... : ... .. . ... ... ... : ... .. . ... ... ... : ... .. . ... ... ... : ... .. . ... ... ... : ... .. . ... ... ...
ROW 56 : ... .. . ... ... ... : ... .. . ... ... ... : ... .. . ... ... ... : ... .. . ... ... ... : ... .. . ... ... ... : ... .. . ... ... ... : ... .. . ... ... ... : ... .. 3 ... ... ... : ... .. 6 ... ... ... : ... .. . ... ... ... : ... .. . ... ... ... : ... .. . ... ... ... : ... .. . ... ... ...
ROW 57 : ... .. . ... ... ... : C-4 02 . P80 ... ... : F#3 00 . P78 ... ... : 1-# 00 F ... ... ... : C-1 12 . ... ... ... : B-4 0C 7 P7C ... ... : ... .. . ... ... ... : --- .. . ... ... ... : A#3 0C 1 P85 ... ... : ... .. . ... ... ... : ... .. . ... ... ... : ... .. . ... ... ... : ... .. . ... ... ...
ROW 58 : ... .. . ... ... ... : F-3 02 . ... ... ... : C#3 00 . P7E ... ... : 2-# 00 7 ... ... ... : ... .. . ... ... ... : A#4 0C . P79 ... ... : ... .. . ... ... ... : ... .. . P80 ... ... : G-3 0C . ... ... ... : ... .. . ... ... ... : ... .. . ... ... ... : ... .. . ... ... ... : ... .. . ... ... ...
ROW 59 : ... .. . ... ... ... : A#2 02 . P81 ... ... : A-2 00 . P86 ... ... : 1-# 00 4 ... ... ... : ... .. . ... ... ... : A-4 0C . P78 ... ... : ... .. . ... ... ... : ... .. . ... ... ... : D#3 0C . P82 ... ... : ... .. . ... ... ... : ... .. . ... ... ... : ... .. . ... ... ... : ... .. . ... ... ...
ROW 5A : ... .. . ... ... ... : D#2 02 . ... ... ... : --- .. . ... ... ... : ... .. 2 ... ... ... : ... .. . ... ... ... : G#4 0C . ... ... ... : ... .. . ... ... ... : ... .. . ... ... ... : A#2 0C . P7F ... ... : ... .. . ... ... ... : ... .. . ... ... ... : ... .. . ... ... ... : ... .. . ... ... ...
ROW 5B : ... .. . ... ... ... : G#1 02 . ... ... ... : ... .. . ... ... ... : ... .. 1 ... ... ... : ... .. . ... ... ... : G-4 0C . ... ... ... : ... .. . ... ... ... : ... .. . ... ... ... : E-2 0C . P81 ... ... : ... .. . ... ... ... : ... .. . ... ... ... : ... .. . ... ... ... : ... .. . ... ... ...
ROW 5C : ... .. . ... ... ... : C#1 02 . ... ... ... : ... .. . ... ... ... : --- .. . ... ... ... : ... .. . ... ... ... : --- .. . ... ... ... : ... .. . ... ... ... : ... .. . ... ... ... : --- .. . ... ... ... : ... .. . ... ... ... : ... .. . ... ... ... : ... .. . ... ... ... : ... .. . ... ... ...
ROW 5D : ... .. . ... ... ... : ... .. . ... ... ... : ... .. . ... ... ... : ... .. . ... ... ... : ... .. . ... ... ... : B-4 0C . P7C ... ... : ... .. . ... ... ... : ... .. . ... ... ... : A#3 0C . P85 ... ... : ... .. . ... ... ... : ... .. . ... ... ... : ... .. . ... ... ... : ... .. . ... ... ...
ROW 5E : ... .. . ... ... ... : ... .. . ... ... ... : ... .. . ... ... ... : ... .. . ... ... ... : ... .. . ... ... ... : A#4 0C . P79 ... ... : ... .. . ... ... ... : ... .. . ... ... ... : G-3 0C . ... ... ... : ... .. . ... ... ... : ... .. . ... ... ... : ... .. . ... ... ... : ... .. . ... ... ...
ROW 5F : ... .. . ... ... ... : ... .. . ... ... ... : ... .. . ... ... ... : ... .. . ... ... ... : ... .. . ... ... ... : A-4 0C . P78 ... ... : ... .. . ... ... ... : ... .. . ... ... ... : --- .. . ... ... ... : ... .. . ... ... ... : ... .. . ... ... ... : ... .. . ... ... ... : ... .. . ... ... ...
ROW 60 : ... .. . ... ... ... : ... .. . ... ... ... : ... .. . ... ... ... : ... .. . ... ... ... : ... .. . ... ... ... : G#4 0C . ... ... ... : ... .. . ... ... ... : ... .. . ... ... ... : ... .. . P80 ... ... : ... .. . ... ... ... : ... .. . ... ... ... : ... .. . ... ... ... : ... .. . ... ... ...
ROW 61 : ... .. . ... ... ... : ... .. . ... ... ... : ... .. . ... ... ... : ... .. . ... ... ... : ... .. . ... ... ... : G-4 0C . ... ... ... : ... .. . ... ... ... : ... .. . ... ... ... : ... .. . ... ... ... : ... .. . ... ... ... : ... .. . ... ... ... : ... .. . ... ... ... : ... .. . ... ... ...
ROW 62 : ... .. . ... ... ... : ... .. . ... ... ... : ... .. . ... ... ... : ... .. . ... ... ... : ... .. . ... ... ... : --- .. . ... ... ... : ... .. . ... ... ... : ... .. . ... ... ... : ... .. . ... ... ... : ... .. . ... ... ... : ... .. . ... ... ... : ... .. . ... ... ... : ... .. . ... ... ...
ROW 63 : ... .. . ... ... ... : ... .. . ... ... ... : ... .. . ... ... ... : D-# 00 A ... ... ... : ... .. . ... ... ... : B-2 05 A P80 ... ... : A#2 05 . P7E ... ... : B-2 05 9 P7E ... ... : G#2 05 9 P81 ... ... : ... .. . ... ... ... : ... .. . ... ... ... : ... .. . ... ... ... : ... .. . ... ... ...
ROW 64 : ... .. . ... ... ... : ... .. . ... ... ... : ... .. . ... ... ... : E-# 00 4 ... ... ... : ... .. . ... ... ... : ... .. . ... ... ... : B-2 05 . P82 ... ... : ... .. . ... ... ... : ... .. . ... ... ... : ... .. . ... ... ... : ... .. . ... ... ... : ... .. . ... ... ... : ... .. . ... ... ...
ROW 65 : ... .. . ... ... ... : ... .. . ... ... ... : ... .. . ... ... ... : D-# 00 2 ... ... ... : ... .. . ... ... ... : ... .. . ... ... ... : ... .. . P83 ... ... : ... .. . ... ... ... : ... .. . ... ... ... : ... .. . ... ... ... : ... .. . ... ... ... : ... .. . ... ... ... : ... .. . ... ... ...
ROW 66 : ... .. . ... ... ... : ... .. . ... ... ... : ... .. . ... ... ... : ... .. 1 ... ... ... : ... .. . ... ... ... : ... .. . ... ... ... : A#2 05 . P7E ... ... : ... .. . ... ... ... : ... .. . ... ... ... : ... .. . ... ... ... : ... .. . ... ... ... : ... .. . ... ... ... : ... .. . ... ... ...
ROW 67 : ... .. . ... ... ... : ... .. . ... ... ... : ... .. . ... ... ... : ... .. . ... ... ... : ... .. . ... ... ... : --- .. . ... ... ... : --- .. . ... ... ... : --- .. . ... ... ... : --- .. . ... ... ... : ... .. . ... ... ... : ... .. . ... ... ... : ... .. . ... ... ... : ... .. . ... ... ...
ROW 68 : ... .. . ... ... ... : ... .. . ... ... ... : ... .. . ... ... ... : --- .. . ... ... ... : ... .. . ... ... ... : ... .. . ... ... ... : ... .. . P80 ... ... : ... .. . P80 ... ... : ... .. . P80 ... ... : ... .. . ... ... ... : ... .. . ... ... ... : ... .. . ... ... ... : ... .. . ... ... ...
ROW 69 : ... .. . ... ... ... : ... .. . ... ... ... : ... .. . ... ... ... : D-# 00 A ... ... ... : ... .. . ... ... ... : B-2 05 4 ... ... ... : B-2 05 4 P83 ... ... : B-2 05 3 P7E ... ... : G#2 05 3 P81 ... ... : ... .. . ... ... ... : ... .. . ... ... ... : ... .. . ... ... ... : ... .. . ... ... ...
ROW 6A : ... .. . ... ... ... : ... .. . ... ... ... : ... .. . ... ... ... : E-# 00 4 ... ... ... : ... .. . ... ... ... : ... .. . ... ... ... : A#2 05 . P7E ... ... : ... .. . ... ... ... : ... .. . ... ... ... : ... .. . ... ... ... : ... .. . ... ... ... : ... .. . ... ... ... : ... .. . ... ... ...
ROW 6B : ... .. . ... ... ... : ... .. . ... ... ... : ... .. . ... ... ... : D-# 00 2 ... ... ... : ... .. . ... ... ... : ... .. . ... ... ... : ... .. . P7F ... ... : ... .. . ... ... ... : ... .. . ... ... ... : ... .. . ... ... ... : ... .. . ... ... ... : ... .. . ... ... ... : ... .. . ... ... ...
ROW 6C : ... .. . ... ... ... : ... .. . ... ... ... : ... .. . ... ... ... : ... .. 1 ... ... ... : ... .. . ... ... ... : ... .. . ... ... ... : ... .. . P7E ... ... : ... .. . ... ... ... : ... .. . ... ... ... : ... .. . ... ... ... : ... .. . ... ... ... : ... .. . ... ... ... : ... .. . ... ... ...
ROW 6D : ... .. . ... ... ... : ... .. . ... ... ... : ... .. . ... ... ... : ... .. . ... ... ... : ... .. . ... ... ... : ... .. . ... ... ... : B-2 05 . P82 ... ... : ... .. 2 ... ... ... : ... .. . ... ... ... : ... .. . ... ... ... : ... .. . ... ... ... : ... .. . ... ... ... : ... .. . ... ... ...
ROW 6E : ... .. . ... ... ... : ... .. . ... ... ... : ... .. . ... ... ... : --- .. . ... ... ... : ... .. . ... ... ... : --- .. . ... ... ... : --- .. . ... ... ... : --- .. . ... ... ... : --- .. . ... ... ... : ... .. . ... ... ... : ... .. . ... ... ... : ... .. . ... ... ... : ... .. . ... ... ...
ROW 6F : ... .. . ... ... ... : ... .. . ... ... ... : ... .. . ... ... ... : ... .. . ... ... ... : ... .. . ... ... ... : ... .. . ... ... ... : ... .. . P80 ... ... : ... .. . P80 ... ... : ... .. . P80 ... ... : ... .. . ... ... ... : ... .. . ... ... ... : ... .. . ... ... ... : ... .. . ... ... ...
ROW 70 : ... .. . ... ... ... : C-4 02 . P80 ... ... : C#4 00 . P7F ... ... : 9-# 00 F ... ... ... : C#1 12 . ... ... ... : C#3 05 A ... ... ... : C#3 05 A P83 ... ... : C#3 05 9 P7E ... ... : B-2 05 9 P81 ... ... : ... .. . ... ... ... : ... .. . ... ... ... : ... .. . ... ... ... : ... .. . ... ... ...
ROW 71 : ... .. . ... ... ... : F-3 02 . ... ... ... : F#3 00 . P83 ... ... : 2-# 00 7 ... ... ... : ... .. . ... ... ... : ... .. . ... ... ... : ... .. . P82 ... ... : ... .. . ... ... ... : ... .. . ... ... ... : ... .. . ... ... ... : ... .. . ... ... ... : ... .. . ... ... ... : ... .. . ... ... ...
ROW 72 : ... .. . ... ... ... : A#2 02 . P81 ... ... : C#3 00 . P89 ... ... : 6-# 00 C ... ... ... : ... .. . ... ... ... : ... .. . ... ... ... : ... .. . P83 ... ... : ... .. . ... ... ... : ... .. . ... ... ... : ... .. . ... ... ... : ... .. . ... ... ... : ... .. . ... ... ... : ... .. . ... ... ...
ROW 73 : ... .. . ... ... ... : D#2 02 . ... ... ... : A#2 00 . P75 ... ... : 7-# 00 8 ... ... ... : ... .. . ... ... ... : ... .. . ... ... ... : C-3 05 . P7E ... ... : ... .. . ... ... ... : ... .. . ... ... ... : ... .. . ... ... ... : ... .. . ... ... ... : ... .. . ... ... ... : ... .. . ... ... ...
ROW 74 : ... .. . ... ... ... : G#1 02 . ... ... ... : G-2 00 . P70 ... ... : 8-# 00 7 ... ... ... : ... .. . ... ... ... : --- .. . ... ... ... : --- .. . ... ... ... : --- .. . ... ... ... : --- .. . ... ... ... : ... .. . ... ... ... : ... .. . ... ... ... : ... .. . ... ... ... : ... .. . ... ... ...
ROW 75 : ... .. . ... ... ... : C#1 02 . ... ... ... : E-2 00 . P7C ... ... : ... .. 6 ... ... ... : ... .. . ... ... ... : ... .. . ... ... ... : ... .. . P80 ... ... : ... .. . P80 ... ... : ... .. . P80 ... ... : ... .. . ... ... ... : ... .. . ... ... ... : ... .. . ... ... ... : ... .. . ... ... ...
ROW 76 : ... .. . ... ... ... : ... .. . ... ... ... : --- .. . ... ... ... : ... .. . ... ... ... : ... .. . ... ... ... : C#3 05 4 ... ... ... : C#3 05 4 P83 ... ... : C#3 05 3 P7E ... ... : B-2 05 3 P81 ... ... : ... .. . ... ... ... : ... .. . ... ... ... : ... .. . ... ... ... : ... .. . ... ... ...
ROW 77 : ... .. . ... ... ... : ... .. . ... ... ... : ... .. . ... ... ... : ... .. 5 ... ... ... : ... .. . ... ... ... : ... .. . ... ... ... : C-3 05 . P7E ... ... : ... .. . ... ... ... : ... .. . ... ... ... : ... .. . ... ... ... : ... .. . ... ... ... : ... .. . ... ... ... : ... .. . ... ... ...
ROW 78 : ... .. . ... ... ... : ... .. . ... ... ... : ... .. . ... ... ... : ... .. . ... ... ... : ... .. . ... ... ... : ... .. . ... ... ... : ... .. . ... ... ... : ... .. . ... ... ... : ... .. . ... ... ... : ... .. . ... ... ... : ... .. . ... ... ... : ... .. . ... ... ... : ... .. . ... ... ...
ROW 79 : ... .. . ... ... ... : ... .. . ... ... ... : ... .. . ... ... ... : ... .. 4 ... ... ... : ... .. . ... ... ... : ... .. . ... ... ... : C#3 05 . P83 ... ... : ... .. . ... ... ... : ... .. . ... ... ... : ... .. . ... ... ... : ... .. . ... ... ... : ... .. . ... ... ... : ... .. . ... ... ...
ROW 7A : ... .. . ... ... ... : ... .. . ... ... ... : ... .. . ... ... ... : ... .. . ... ... ... : ... .. . ... ... ... : --- .. . ... ... ... : --- .. . ... ... ... : --- .. . ... ... ... : --- .. . ... ... ... : ... .. . ... ... ... : ... .. . ... ... ... : ... .. . ... ... ... : ... .. . ... ... ...
ROW 7B : ... .. . ... ... ... : ... .. . ... ... ... : ... .. . ... ... ... : ... .. 3 ... ... ... : ... .. . ... ... ... : ... .. . ... ... ... : ... .. . P80 ... ... : ... .. . P80 ... ... : ... .. . P80 ... ... : ... .. . ... ... ... : ... .. . ... ... ... : ... .. . ... ... ... : ... .. . ... ... ...
ROW 7C : ... .. . ... ... ... : ... .. . ... ... ... : ... .. . ... ... ... : D-# 00 A ... ... ... : ... .. . ... ... ... : G#3 05 A ... ... ... : G#3 05 A P84 ... ... : G#3 05 9 P7E ... ... : D#3 05 9 P81 ... ... : ... .. . ... ... ... : ... .. . ... ... ... : ... .. . ... ... ... : ... .. . ... ... ...
ROW 7D : ... .. . ... ... ... : ... .. . ... ... ... : ... .. . ... ... ... : E-# 00 4 ... ... ... : ... .. . ... ... ... : ... .. . ... ... ... : ... .. . P83 ... ... : ... .. . ... ... ... : ... .. . ... ... ... : ... .. . ... ... ... : ... .. . ... ... ... : ... .. . ... ... ... : ... .. . ... ... ...
ROW 7E : ... .. . ... ... ... : ... .. . ... ... ... : ... .. . ... ... ... : D-# 00 2 ... ... ... : ... .. . ... ... ... : ... .. . ... ... ... : ... .. . P82 ... ... : ... .. . ... ... ... : ... .. . ... ... ... : ... .. . ... ... ... : ... .. . ... ... ... : ... .. . ... ... ... : ... .. . ... ... ...
ROW 7F : ... .. . ... ... ... : ... .. . ... ... ... : ... .. . ... ... ... : ... .. 1 ... ... ... : ... .. . ... ... ... : ... .. . ... ... ... : ... .. . P83 ... ... : ... .. . ... ... ... : ... .. . ... ... ... : ... .. . ... ... ... : ... .. . ... ... ... : ... .. . ... ... ... : ... .. . ... ... ...
ROW 80 : ... .. . ... ... ... : ... .. . ... ... ... : ... .. . ... ... ... : ... .. . ... ... ... : ... .. . ... ... ... : --- .. . ... ... ... : --- .. . ... ... ... : --- .. . ... ... ... : --- .. . ... ... ... : ... .. . ... ... ... : ... .. . ... ... ... : ... .. . ... ... ... : ... .. . ... ... ...
ROW 81 : ... .. . ... ... ... : ... .. . ... ... ... : ... .. . ... ... ... : --- .. . ... ... ... : ... .. . ... ... ... : ... .. . ... ... ... : ... .. . P80 ... ... : ... .. . P80 ... ... : ... .. . P80 ... ... : ... .. . ... ... ... : ... .. . ... ... ... : ... .. . ... ... ... : ... .. . ... ... ...
ROW 82 : ... .. . ... ... ... : ... .. . ... ... ... : ... .. . ... ... ... : D-# 00 A ... ... ... : ... .. . ... ... ... : G#3 05 4 ... ... ... : G#3 05 . P82 ... ... : G#3 05 . P7E ... ... : D#3 05 . P81 ... ... : ... .. . ... ... ... : ... .. . ... ... ... : ... .. . ... ... ... : ... .. . ... ... ...
ROW 83 : ... .. . ... ... ... : ... .. . ... ... ... : ... .. . ... ... ... : E-# 00 4 ... ... ... : ... .. . ... ... ... : ... .. . ... ... ... : ... .. . P83 ... ... : ... .. . ... ... ... : ... .. . ... ... ... : ... .. . ... ... ... : ... .. . ... ... ... : ... .. . ... ... ... : ... .. . ... ... ...
ROW 84 : ... .. . ... ... ... : ... .. . ... ... ... : ... .. . ... ... ... : D-# 00 2 ... ... ... : ... .. . ... ... ... : ... .. . ... ... ... : ... .. . P84 ... ... : ... .. . ... ... ... : ... .. . ... ... ... : ... .. . ... ... ... : ... .. . ... ... ... : ... .. . ... ... ... : ... .. . ... ... ...
ROW 85 : ... .. . ... ... ... : ... .. . ... ... ... : ... .. . ... ... ... : ... .. 1 ... ... ... : ... .. . ... ... ... : ... .. . ... ... ... : ... .. . ... ... ... : ... .. . ... ... ... : ... .. . ... ... ... : ... .. . ... ... ... : ... .. . ... ... ... : ... .. . ... ... ... : ... .. . ... ... ...
ROW 86 : ... .. . ... ... ... : ... .. . ... ... ... : ... .. . ... ... ... : ... .. . ... ... ... : ... .. . ... ... ... : ... .. . ... ... ... : ... .. . P83 ... ... : ... .. 8 ... ... ... : ... .. . ... ... ... : ... .. . ... ... ... : ... .. . ... ... ... : ... .. . ... ... ... : ... .. . ... ... ...
ROW 87 : ... .. . ... ... ... : ... .. . ... ... ... : ... .. . ... ... ... : --- .. . ... ... ... : ... .. . ... ... ... : --- .. . ... ... ... : --- .. . ... ... ... : --- .. . ... ... ... : --- .. . ... ... ... : ... .. . ... ... ... : ... .. . ... ... ... : ... .. . ... ... ... : ... .. . ... ... ...
ROW 88 : ... .. . ... ... ... : ... .. . ... ... ... : ... .. . ... ... ... : ... .. . ... ... ... : ... .. . ... ... ... : ... .. . ... ... ... : ... .. . P80 ... ... : ... .. . P80 ... ... : ... .. . P80 ... ... : ... .. . ... ... ... : ... .. . ... ... ... : ... .. . ... ... ... : ... .. . ... ... ...
ROW 89 : ... .. . ... ... ... : C-4 02 . P80 ... ... : F#3 00 . P78 ... ... : 1-# 00 F ... ... ... : C-1 12 . ... ... ... : G#1 06 F ... ... ... : G-1 06 F ... ... ... : ... .. . ... ... ... : G#1 06 E P7F ... ... : G#2 06 B P81 ... ... : ... .. . ... ... ... : ... .. . ... ... ... : ... .. . ... ... ...
ROW 8A : ... .. . ... ... ... : F-3 02 . ... ... ... : C#3 00 . P7E ... ... : 2-# 00 7 ... ... ... : ... .. . ... ... ... : ... .. . ... ... ... : G#1 06 . P81 ... ... : ... .. . ... ... ... : ... .. . ... ... ... : ... .. . ... ... ... : ... .. . ... ... ... : ... .. . ... ... ... : ... .. . ... ... ...
ROW 8B : ... .. . ... ... ... : A#2 02 . P81 ... ... : A-2 00 . P86 ... ... : 1-# 00 4 ... ... ... : ... .. . ... ... ... : ... .. . ... ... ... : ... .. . P80 ... ... : ... .. . ... ... ... : ... .. . ... ... ... : ... .. . ... ... ... : ... .. . ... ... ... : ... .. . ... ... ... : ... .. . ... ... ...
ROW 8C : ... .. . ... ... ... : D#2 02 . ... ... ... : --- .. . ... ... ... : ... .. 2 ... ... ... : ... .. . ... ... ... : G#1 07 . ... ... ... : G#1 07 . P81 ... ... : ... .. . ... ... ... : G#1 07 . ... ... ... : G#2 07 . ... ... ... : ... .. . ... ... ... : ... .. . ... ... ... : ... .. . ... ... ...
ROW 8D : ... .. . ... ... ... : G#1 02 . ... ... ... : ... .. . ... ... ... : ... .. 1 ... ... ... : ... .. . ... ... ... : ... .. . ... ... ... : G-1 07 . P80 ... ... : ... .. . ... ... ... : ... .. . ... ... ... : ... .. A ... ... ... : ... .. . ... ... ... : ... .. . ... ... ... : ... .. . ... ... ...
ROW 8E : ... .. . ... ... ... : C#1 02 . ... ... ... : ... .. . ... ... ... : --- .. . ... ... ... : ... .. . ... ... ... : ... .. . ... ... ... : G#1 07 . P81 ... ... : ... .. . ... ... ... : ... .. . ... ... ... : ... .. . ... ... ... : ... .. . ... ... ... : ... .. . ... ... ... : ... .. . ... ... ...
ROW 8F : ... .. . ... ... ... : ... .. . ... ... ... : ... .. . ... ... ... : ... .. . ... ... ... : ... .. . ... ... ... : G#1 08 . ... ... ... : G#1 08 . P80 ... ... : ... .. . ... ... ... : G#1 08 . ... ... ... : G#2 08 . ... ... ... : ... .. . ... ... ... : ... .. . ... ... ... : ... .. . ... ... ...
ROW 90 : ... .. . ... ... ... : ... .. . ... ... ... : ... .. . ... ... ... : ... .. . ... ... ... : ... .. . ... ... ... : ... .. . ... ... ... : ... .. . P81 ... ... : ... .. . ... ... ... : ... .. . ... ... ... : ... .. . ... ... ... : ... .. . ... ... ... : ... .. . ... ... ... : ... .. . ... ... ...
ROW 91 : ... .. . ... ... ... : ... .. . ... ... ... : ... .. . ... ... ... : ... .. . ... ... ... : ... .. . ... ... ... : ... .. . ... ... ... : G-1 08 . P80 ... ... : ... .. . ... ... ... : ... .. D ... ... ... : ... .. 9 ... ... ... : ... .. . ... ... ... : ... .. . ... ... ... : ... .. . ... ... ...
ROW 92 : ... .. . ... ... ... : ... .. . ... ... ... : ... .. . ... ... ... : ... .. . ... ... ... : ... .. . ... ... ... : G#1 09 . ... ... ... : G#1 09 . P81 ... ... : ... .. . ... ... ... : G#1 09 . ... ... ... : G#2 09 . ... ... ... : ... .. . ... ... ... : ... .. . ... ... ... : ... .. . ... ... ...
ROW 93 : ... .. . ... ... ... : ... .. . ... ... ... : ... .. . ... ... ... : ... .. . ... ... ... : ... .. . ... ... ... : ... .. . ... ... ... : ... .. . P80 ... ... : ... .. . ... ... ... : ... .. . ... ... ... : ... .. . ... ... ... : ... .. . ... ... ... : ... .. . ... ... ... : ... .. . ... ... ...
ROW 94 : ... .. . ... ... ... : ... .. . ... ... ... : ... .. . ... ... ... : ... .. . ... ... ... : ... .. . ... ... ... : ... .. . ... ... ... : ... .. . P81 ... ... : ... .. . ... ... ... : ... .. . ... ... ... : ... .. . ... ... ... : ... .. . ... ... ... : ... .. . ... ... ... : ... .. . ... ... ...
ROW 95 : ... .. . ... ... ... : ... .. . ... ... ... : ... .. . ... ... ... : D-# 00 A ... ... ... : ... .. . ... ... ... : ... .. . ... ... ... : G-1 09 . P80 ... ... : ... .. . ... ... ... : ... .. . ... ... ... : ... .. 8 ... ... ... : ... .. . ... ... ... : ... .. . ... ... ... : ... .. . ... ... ...
ROW 96 : ... .. . ... ... ... : ... .. . ... ... ... : ... .. . ... ... ... : E-# 00 4 ... ... ... : ... .. . ... ... ... : ... .. . ... ... ... : ... .. . ... ... ... : ... .. . ... ... ... : ... .. . ... ... ... : ... .. . ... ... ... : ... .. . ... ... ... : ... .. . ... ... ... : ... .. . ... ... ...
ROW 97 : ... .. . ... ... ... : ... .. . ... ... ... : ... .. . ... ... ... : D-# 00 2 ... ... ... : ... .. . ... ... ... : ... .. . ... ... ... : G#1 09 . P81 ... ... : ... .. . ... ... ... : ... .. . ... ... ... : ... .. . ... ... ... : ... .. . ... ... ... : ... .. . ... ... ... : ... .. . ... ... ...
ROW 98 : ... .. . ... ... ... : ... .. . ... ... ... : ... .. . ... ... ... : ... .. 1 ... ... ... : ... .. . ... ... ... : G#1 08 . ... ... ... : G#1 08 . ... ... ... : ... .. . ... ... ... : G#1 08 . ... ... ... : G#2 08 . ... ... ... : ... .. . ... ... ... : ... .. . ... ... ... : ... .. . ... ... ...
ROW 99 : ... .. . ... ... ... : ... .. . ... ... ... : ... .. . ... ... ... : ... .. . ... ... ... : ... .. . ... ... ... : ... .. . ... ... ... : G-1 08 . P80 ... ... : ... .. . ... ... ... : ... .. C ... ... ... : ... .. 7 ... ... ... : ... .. . ... ... ... : ... .. . ... ... ... : ... .. . ... ... ...
ROW 9A : ... .. . ... ... ... : ... .. . ... ... ... : ... .. . ... ... ... : --- .. . ... ... ... : ... .. . ... ... ... : ... .. . ... ... ... : ... .. . ... ... ... : ... .. . ... ... ... : ... .. . ... ... ... : ... .. . ... ... ... : ... .. . ... ... ... : ... .. . ... ... ... : ... .. . ... ... ...
ROW 9B : ... .. . ... ... ... : ... .. . ... ... ... : ... .. . ... ... ... : D-# 00 A ... ... ... : ... .. . ... ... ... : G#1 07 . ... ... ... : G#1 07 . P81 ... ... : ... .. . ... ... ... : G#1 07 . ... ... ... : G#2 07 . ... ... ... : ... .. . ... ... ... : ... .. . ... ... ... : ... .. . ... ... ...
ROW 9C : ... .. . ... ... ... : ... .. . ... ... ... : ... .. . ... ... ... : E-# 00 4 ... ... ... : ... .. . ... ... ... : ... .. . ... ... ... : ... .. . P80 ... ... : ... .. . ... ... ... : ... .. . ... ... ... : ... .. . ... ... ... : ... .. . ... ... ... : ... .. . ... ... ... : ... .. . ... ... ...
ROW 9D : ... .. . ... ... ... : ... .. . ... ... ... : ... .. . ... ... ... : D-# 00 2 ... ... ... : ... .. . ... ... ... : ... .. . ... ... ... : ... .. . P81 ... ... : ... .. . ... ... ... : ... .. . ... ... ... : ... .. 6 ... ... ... : ... .. . ... ... ... : ... .. . ... ... ... : ... .. . ... ... ...
ROW 9E : ... .. . ... ... ... : ... .. . ... ... ... : ... .. . ... ... ... : ... .. 1 ... ... ... : ... .. . ... ... ... : G#1 06 . ... ... ... : G-1 06 . P80 ... ... : ... .. . ... ... ... : G#1 06 . ... ... ... : G#2 06 . ... ... ... : ... .. . ... ... ... : ... .. . ... ... ... : ... .. . ... ... ...
ROW 9F : ... .. . ... ... ... : ... .. . ... ... ... : ... .. . ... ... ... : ... .. . ... ... ... : ... .. . ... ... ... : ... .. . ... ... ... : G#1 06 . P81 ... ... : ... .. . ... ... ... : ... .. . ... ... ... : ... .. . ... ... ... : ... .. . ... ... ... : ... .. . ... ... ... : ... .. . ... ... ...
ROW A0 : ... .. . ... ... ... : ... .. . ... ... ... : ... .. . ... ... ... : --- .. . ... ... ... : ... .. . ... ... ... : ... .. . ... ... ... : ... .. . P80 ... ... : ... .. . ... ... ... : ... .. . ... ... ... : ... .. . ... ... ... : ... .. . ... ... ... : ... .. . ... ... ... : ... .. . ... ... ...
ROW A1 : ... .. . ... ... ... : ... .. . ... ... ... : ... .. . ... ... ... : ... .. . ... ... ... : ... .. . ... ... ... : ... .. . ... ... ... : ... .. . P81 ... ... : ... .. . ... ... ... : ... .. B ... ... ... : ... .. 5 ... ... ... : ... .. . ... ... ... : ... .. . ... ... ... : ... .. . ... ... ...
ROW A2 : ... .. . ... ... ... : C-4 02 . P80 ... ... : C#4 00 . P7F ... ... : 9-# 00 F ... ... ... : C#1 12 . ... ... ... : D-2 06 . ... ... ... : C#2 06 . P7F ... ... : ... .. . ... ... ... : D-2 06 . ... ... ... : D-3 06 . ... ... ... : ... .. . ... ... ... : ... .. . ... ... ... : ... .. . ... ... ...
ROW A3 : ... .. . ... ... ... : F-3 02 . ... ... ... : F#3 00 . P83 ... ... : 2-# 00 7 ... ... ... : ... .. . ... ... ... : ... .. . ... ... ... : D-2 06 . P81 ... ... : ... .. . ... ... ... : ... .. . ... ... ... : ... .. . ... ... ... : ... .. . ... ... ... : ... .. . ... ... ... : ... .. . ... ... ...
ROW A4 : ... .. . ... ... ... : A#2 02 . P81 ... ... : C#3 00 . P89 ... ... : 6-# 00 C ... ... ... : ... .. . ... ... ... : ... .. . ... ... ... : ... .. . P80 ... ... : ... .. . ... ... ... : ... .. . ... ... ... : ... .. . ... ... ... : ... .. . ... ... ... : ... .. . ... ... ... : ... .. . ... ... ...
ROW A5 : ... .. . ... ... ... : D#2 02 . ... ... ... : A#2 00 . P75 ... ... : 7-# 00 8 ... ... ... : ... .. . ... ... ... : D-2 08 . ... ... ... : D-2 08 . P81 ... ... : ... .. . ... ... ... : D-2 08 . ... ... ... : D-3 08 4 ... ... ... : ... .. . ... ... ... : ... .. . ... ... ... : ... .. . ... ... ...
ROW A6 : ... .. . ... ... ... : G#1 02 . ... ... ... : G-2 00 . P70 ... ... : 8-# 00 7 ... ... ... : ... .. . ... ... ... : ... .. . ... ... ... : ... .. . P82 ... ... : ... .. . ... ... ... : ... .. . ... ... ... : ... .. . ... ... ... : ... .. . ... ... ... : ... .. . ... ... ... : ... .. . ... ... ...
ROW A7 : ... .. . ... ... ... : C#1 02 . ... ... ... : E-2 00 . P7C ... ... : ... .. 6 ... ... ... : ... .. . ... ... ... : ... .. . ... ... ... : ... .. . ... ... ... : ... .. . ... ... ... : ... .. . ... ... ... : ... .. . ... ... ... : ... .. . ... ... ... : ... .. . ... ... ... : ... .. . ... ... ...
ROW A8 : ... .. . ... ... ... : ... .. . ... ... ... : --- .. . ... ... ... : ... .. . ... ... ... : ... .. . ... ... ... : D-2 09 . ... ... ... : D-2 09 . P81 ... ... : ... .. . ... ... ... : D-2 09 . ... ... ... : D-3 09 . ... ... ... : ... .. . ... ... ... : ... .. . ... ... ... : ... .. . ... ... ...
ROW A9 : ... .. . ... ... ... : ... .. . ... ... ... : ... .. . ... ... ... : ... .. 5 ... ... ... : ... .. . ... ... ... : ... .. . ... ... ... : ... .. . ... ... ... : ... .. . ... ... ... : ... .. A ... ... ... : ... .. 3 ... ... ... : ... .. . ... ... ... : ... .. . ... ... ... : ... .. . ... ... ...
ROW AA : ... .. . ... ... ... : ... .. . ... ... ... : ... .. . ... ... ... : ... .. . ... ... ... : ... .. . ... ... ... : ... .. . ... ... ... : ... .. . P82 ... ... : ... .. . ... ... ... : ... .. . ... ... ... : ... .. . ... ... ... : ... .. . ... ... ... : ... .. . ... ... ... : ... .. . ... ... ...
ROW AB : ... .. . ... ... ... : ... .. . ... ... ... : ... .. . ... ... ... : ... .. 4 ... ... ... : ... .. . ... ... ... : D-2 07 . ... ... ... : C#2 07 . P7F ... ... : ... .. . ... ... ... : D-2 07 . ... ... ... : D-3 07 . ... ... ... : ... .. . ... ... ... : ... .. . ... ... ... : ... .. . ... ... ...
ROW AC : ... .. . ... ... ... : ... .. . ... ... ... : ... .. . ... ... ... : ... .. . ... ... ... : ... .. . ... ... ... : ... .. . ... ... ... : D-2 07 . P81 ... ... : ... .. . ... ... ... : ... .. . ... ... ... : ... .. . ... ... ... : ... .. . ... ... ... : ... .. . ... ... ... : ... .. . ... ... ...
ROW AD : ... .. . ... ... ... : ... .. . ... ... ... : ... .. . ... ... ... : ... .. 3 ... ... ... : ... .. . ... ... ... : ... .. . ... ... ... : ... .. . P80 ... ... : ... .. . ... ... ... : ... .. . ... ... ... : ... .. 2 ... ... ... : ... .. . ... ... ... : ... .. . ... ... ... : ... .. . ... ... ...
ROW AE : ... .. . ... ... ... : ... .. . ... ... ... : ... .. . ... ... ... : D-# 00 A ... ... ... : ... .. . ... ... ... : D-2 06 . ... ... ... : D-2 06 . P81 ... ... : ... .. . ... ... ... : D-2 06 . ... ... ... : D-3 06 . ... ... ... : ... .. . ... ... ... : ... .. . ... ... ... : ... .. . ... ... ...
ROW AF : ... .. . ... ... ... : ... .. . ... ... ... : ... .. . ... ... ... : E-# 00 4 ... ... ... : ... .. . ... ... ... : ... .. . ... ... ... : C#2 06 . P7F ... ... : ... .. . ... ... ... : ... .. . ... ... ... : ... .. . ... ... ... : ... .. . ... ... ... : ... .. . ... ... ... : ... .. . ... ... ...
ROW B0 : ... .. . ... ... ... : ... .. . ... ... ... : ... .. . ... ... ... : D-# 00 2 ... ... ... : ... .. . ... ... ... : ... .. . ... ... ... : D-2 06 . P81 ... ... : ... .. . ... ... ... : ... .. . ... ... ... : ... .. . ... ... ... : ... .. . ... ... ... : ... .. . ... ... ... : ... .. . ... ... ...
ROW B1 : ... .. . ... ... ... : ... .. . ... ... ... : ... .. . ... ... ... : ... .. 1 ... ... ... : ... .. . ... ... ... : D-2 08 . ... ... ... : D-2 08 . P80 ... ... : ... .. . ... ... ... : D-2 08 9 ... ... ... : D-3 08 1 ... ... ... : ... .. . ... ... ... : ... .. . ... ... ... : ... .. . ... ... ...
ROW B2 : ... .. . ... ... ... : ... .. . ... ... ... : ... .. . ... ... ... : ... .. . ... ... ... : ... .. . ... ... ... : ... .. . ... ... ... : ... .. . P81 ... ... : ... .. . ... ... ... : ... .. . ... ... ... : ... .. . ... ... ... : ... .. . ... ... ... : ... .. . ... ... ... : ... .. . ... ... ...
ROW B3 : ... .. . ... ... ... : ... .. . ... ... ... : ... .. . ... ... ... : --- .. . ... ... ... : ... .. . ... ... ... : ... .. . ... ... ... : C#2 08 . P7F ... ... : ... .. . ... ... ... : ... .. . ... ... ... : ... .. . ... ... ... : ... .. . ... ... ... : ... .. . ... ... ... : ... .. . ... ... ...
ROW B4 : ... .. . ... ... ... : ... .. . ... ... ... : ... .. . ... ... ... : D-# 00 A ... ... ... : ... .. . ... ... ... : D-2 09 . ... ... ... : D-2 09 . P81 ... ... : ... .. . ... ... ... : D-2 09 . ... ... ... : D-3 09 . ... ... ... : ... .. . ... ... ... : ... .. . ... ... ... : ... .. . ... ... ...
ROW B5 : ... .. . ... ... ... : ... .. . ... ... ... : ... .. . ... ... ... : E-# 00 4 ... ... ... : ... .. . ... ... ... : ... .. . ... ... ... : ... .. . P80 ... ... : ... .. . ... ... ... : ... .. . ... ... ... : --- .. . ... ... ... : ... .. . ... ... ... : ... .. . ... ... ... : ... .. . ... ... ...
ROW B6 : ... .. . ... ... ... : ... .. . ... ... ... : ... .. . ... ... ... : D-# 00 2 ... ... ... : ... .. . ... ... ... : ... .. . ... ... ... : ... .. . P81 ... ... : ... .. . ... ... ... : ... .. . ... ... ... : ... .. . P80 ... ... : ... .. . ... ... ... : ... .. . ... ... ... : ... .. . ... ... ...
ROW B7 : ... .. . ... ... ... : ... .. . ... ... ... : ... .. . ... ... ... : ... .. 1 ... ... ... : ... .. . ... ... ... : D-2 07 . ... ... ... : D-2 07 . P82 ... ... : ... .. . ... ... ... : D-2 07 . ... ... ... : ... .. . ... ... ... : ... .. . ... ... ... : ... .. . ... ... ... : ... .. . ... ... ...
ROW B8 : ... .. . ... ... ... : ... .. . ... ... ... : ... .. . ... ... ... : ... .. . ... ... ... : ... .. . ... ... ... : ... .. . ... ... ... : ... .. . ... ... ... : ... .. . ... ... ... : ... .. . ... ... ... : ... .. . ... ... ... : ... .. . ... ... ... : ... .. . ... ... ... : ... .. . ... ... ...
ROW B9 : ... .. . ... ... ... : ... .. . ... ... ... : ... .. . ... ... ... : --- .. . ... ... ... : ... .. . ... ... ... : ... .. . ... ... ... : ... .. . P81 ... ... : ... .. . ... ... ... : ... .. 8 ... ... ... : ... .. . ... ... ... : ... .. . ... ... ... : ... .. . ... ... ... : ... .. . ... ... ...
ROW BA : ... .. . ... ... ... : ... .. . ... ... ... : ... .. . ... ... ... : ... .. . ... ... ... : ... .. . ... ... ... : ... .. . ... ... ... : ... .. . P80 ... ... : ... .. . ... ... ... : ... .. . ... ... ... : ... .. . ... ... ... : ... .. . ... ... ... : ... .. . ... ... ... : ... .. . ... ... ...
ROW BB : ... .. . ... ... ... : C-4 02 . P80 ... ... : F#3 00 . P78 ... ... : 1-# 00 F ... ... ... : C-1 12 . ... ... ... : C#2 06 . ... ... ... : C#2 06 . P81 ... ... : ... .. . ... ... ... : C#2 06 . ... ... ... : ... .. . ... ... ... : ... .. . ... ... ... : ... .. . ... ... ... : ... .. . ... ... ...
ROW BC : ... .. . ... ... ... : F-3 02 . ... ... ... : C#3 00 . P7E ... ... : 2-# 00 7 ... ... ... : ... .. . ... ... ... : ... .. . ... ... ... : C-2 06 . P7F ... ... : ... .. . ... ... ... : ... .. . ... ... ... : ... .. . ... ... ... : ... .. . ... ... ... : ... .. . ... ... ... : ... .. . ... ... ...
ROW BD : ... .. . ... ... ... : A#2 02 . P81 ... ... : A-2 00 . P86 ... ... : 1-# 00 4 ... ... ... : ... .. . ... ... ... : ... .. . ... ... ... : C#2 06 . P81 ... ... : ... .. . ... ... ... : ... .. . ... ... ... : ... .. . ... ... ... : ... .. . ... ... ... : ... .. . ... ... ... : ... .. . ... ... ...
ROW BE : ... .. . ... ... ... : D#2 02 . ... ... ... : --- .. . ... ... ... : ... .. 2 ... ... ... : ... .. . ... ... ... : C#2 09 . ... ... ... : C#2 09 . P80 ... ... : ... .. . ... ... ... : C#2 09 . ... ... ... : ... .. . ... ... ... : ... .. . ... ... ... : ... .. . ... ... ... : ... .. . ... ... ...
ROW BF : ... .. . ... ... ... : G#1 02 . ... ... ... : ... .. . ... ... ... : ... .. 1 ... ... ... : ... .. . ... ... ... : ... .. . ... ... ... : ... .. . P81 ... ... : ... .. . ... ... ... : ... .. . ... ... ... : ... .. . ... ... ... : ... .. . ... ... ... : ... .. . ... ... ... : ... .. . ... ... ...
ROW C0 : ... .. . ... ... ... : C#1 02 . ... ... ... : ... .. . ... ... ... : --- .. . ... ... ... : ... .. . ... ... ... : ... .. . ... ... ... : C-2 09 . P7F ... ... : ... .. . ... ... ... : ... .. . ... ... ... : ... .. . ... ... ... : ... .. . ... ... ... : ... .. . ... ... ... : ... .. . ... ... ...
ROW C1 : ... .. . ... ... ... : ... .. . ... ... ... : ... .. . ... ... ... : ... .. . ... ... ... : ... .. . ... ... ... : C#2 06 . ... ... ... : C#2 06 . P81 ... ... : ... .. . ... ... ... : C#2 06 7 ... ... ... : ... .. . ... ... ... : ... .. . ... ... ... : ... .. . ... ... ... : ... .. . ... ... ...
ROW C2 : ... .. . ... ... ... : ... .. . ... ... ... : ... .. . ... ... ... : ... .. . ... ... ... : ... .. . ... ... ... : ... .. . ... ... ... : ... .. . P80 ... ... : ... .. . ... ... ... : ... .. . ... ... ... : ... .. . ... ... ... : ... .. . ... ... ... : ... .. . ... ... ... : ... .. . ... ... ...
ROW C3 : ... .. . ... ... ... : ... .. . ... ... ... : ... .. . ... ... ... : ... .. . ... ... ... : ... .. . ... ... ... : ... .. . ... ... ... : ... .. . P81 ... ... : ... .. . ... ... ... : ... .. . ... ... ... : ... .. . ... ... ... : ... .. . ... ... ... : ... .. . ... ... ... : ... .. . ... ... ...
ROW C4 : ... .. . ... ... ... : ... .. . ... ... ... : ... .. . ... ... ... : ... .. . ... ... ... : ... .. . ... ... ... : C#2 09 . ... ... ... : C-2 09 . P7F ... ... : ... .. . ... ... ... : C#2 09 . ... ... ... : ... .. . ... ... ... : ... .. . ... ... ... : ... .. . ... ... ... : ... .. . ... ... ...
ROW C5 : ... .. . ... ... ... : ... .. . ... ... ... : ... .. . ... ... ... : ... .. . ... ... ... : ... .. . ... ... ... : ... .. . ... ... ... : C#2 09 . P82 ... ... : ... .. . ... ... ... : ... .. . ... ... ... : ... .. . ... ... ... : ... .. . ... ... ... : ... .. . ... ... ... : ... .. . ... ... ...
ROW C6 : ... .. . ... ... ... : ... .. . ... ... ... : ... .. . ... ... ... : ... .. . ... ... ... : ... .. . ... ... ... : ... .. . ... ... ... : ... .. . P81 ... ... : ... .. . ... ... ... : ... .. . ... ... ... : ... .. . ... ... ... : ... .. . ... ... ... : ... .. . ... ... ... : ... .. . ... ... ...
ROW C7 : ... .. . ... ... ... : ... .. . ... ... ... : ... .. . ... ... ... : D-# 00 A ... ... ... : ... .. . ... ... ... : C#2 06 . ... ... ... : C#2 06 . ... ... ... : ... .. . ... ... ... : C#2 06 . ... ... ... : ... .. . ... ... ... : ... .. . ... ... ... : ... .. . ... ... ... : ... .. . ... ... ...
ROW C8 : ... .. . ... ... ... : ... .. . ... ... ... : ... .. . ... ... ... : E-# 00 4 ... ... ... : ... .. . ... ... ... : ... .. . ... ... ... : ... .. . P82 ... ... : ... .. . ... ... ... : ... .. . ... ... ... : ... .. . ... ... ... : ... .. . ... ... ... : ... .. . ... ... ... : ... .. . ... ... ...
ROW C9 : ... .. . ... ... ... : ... .. . ... ... ... : ... .. . ... ... ... : D-# 00 2 ... ... ... : ... .. . ... ... ... : ... .. . ... ... ... : ... .. . ... ... ... : ... .. . ... ... ... : ... .. 6 ... ... ... : ... .. . ... ... ... : ... .. . ... ... ... : ... .. . ... ... ... : ... .. . ... ... ...
ROW CA : ... .. . ... ... ... : ... .. . ... ... ... : ... .. . ... ... ... : ... .. 1 ... ... ... : ... .. . ... ... ... : C#2 09 . ... ... ... : C#2 09 . P81 ... ... : ... .. . ... ... ... : C#2 09 . ... ... ... : ... .. . ... ... ... : ... .. . ... ... ... : ... .. . ... ... ... : ... .. . ... ... ...
ROW CB : ... .. . ... ... ... : ... .. . ... ... ... : ... .. . ... ... ... : ... .. . ... ... ... : ... .. . ... ... ... : ... .. . ... ... ... : ... .. . P80 ... ... : ... .. . ... ... ... : ... .. . ... ... ... : ... .. . ... ... ... : ... .. . ... ... ... : ... .. . ... ... ... : ... .. . ... ... ...
ROW CC : ... .. . ... ... ... : ... .. . ... ... ... : ... .. . ... ... ... : --- .. . ... ... ... : ... .. . ... ... ... : ... .. . ... ... ... : ... .. . P81 ... ... : ... .. . ... ... ... : ... .. . ... ... ... : ... .. . ... ... ... : ... .. . ... ... ... : ... .. . ... ... ... : ... .. . ... ... ...
ROW CD : ... .. . ... ... ... : ... .. . ... ... ... : ... .. . ... ... ... : D-# 00 A ... ... ... : ... .. . ... ... ... : C#2 06 . ... ... ... : C-2 06 . P7F ... ... : ... .. . ... ... ... : C#2 06 . ... ... ... : ... .. . ... ... ... : ... .. . ... ... ... : ... .. . ... ... ... : ... .. . ... ... ...
ROW CE : ... .. . ... ... ... : ... .. . ... ... ... : ... .. . ... ... ... : E-# 00 4 ... ... ... : ... .. . ... ... ... : ... .. . ... ... ... : C#2 06 . P81 ... ... : ... .. . ... ... ... : ... .. . ... ... ... : ... .. . ... ... ... : ... .. . ... ... ... : ... .. . ... ... ... : ... .. . ... ... ...
ROW CF : ... .. . ... ... ... : ... .. . ... ... ... : ... .. . ... ... ... : D-# 00 2 ... ... ... : ... .. . ... ... ... : ... .. . ... ... ... : ... .. . P80 ... ... : ... .. . ... ... ... : ... .. . ... ... ... : ... .. . ... ... ... : ... .. . ... ... ... : ... .. . ... ... ... : ... .. . ... ... ...
ROW D0 : ... .. . ... ... ... : ... .. . ... ... ... : ... .. . ... ... ... : ... .. 1 ... ... ... : ... .. . ... ... ... : C#2 09 . ... ... ... : C#2 09 . P81 ... ... : ... .. . ... ... ... : C#2 09 . ... ... ... : ... .. . ... ... ... : ... .. . ... ... ... : ... .. . ... ... ... : ... .. . ... ... ...
ROW D1 : ... .. . ... ... ... : ... .. . ... ... ... : ... .. . ... ... ... : ... .. . ... ... ... : ... .. . ... ... ... : ... .. . ... ... ... : C-2 09 . P7F ... ... : ... .. . ... ... ... : ... .. 5 ... ... ... : ... .. . ... ... ... : ... .. . ... ... ... : ... .. . ... ... ... : ... .. . ... ... ...
ROW D2 : ... .. . ... ... ... : ... .. . ... ... ... : ... .. . ... ... ... : --- .. . ... ... ... : ... .. . ... ... ... : ... .. . ... ... ... : C#2 09 . P81 ... ... : ... .. . ... ... ... : ... .. . ... ... ... : ... .. . ... ... ... : ... .. . ... ... ... : ... .. . ... ... ... : ... .. . ... ... ...
ROW D3 : ... .. . ... ... ... : ... .. . ... ... ... : ... .. . ... ... ... : ... .. . ... ... ... : ... .. . ... ... ... : ... .. . ... ... ... : ... .. . P80 ... ... : ... .. . ... ... ... : ... .. . ... ... ... : ... .. . ... ... ... : ... .. . ... ... ... : ... .. . ... ... ... : ... .. . ... ... ...
ROW D4 : ... .. . ... ... ... : C-4 02 . P80 ... ... : C#4 00 . P7F ... ... : 9-# 00 F ... ... ... : C#1 12 . ... ... ... : F#1 06 . ... ... ... : F#1 06 . P81 ... ... : ... .. . ... ... ... : F#1 06 . ... ... ... : ... .. . ... ... ... : ... .. . ... ... ... : ... .. . ... ... ... : ... .. . ... ... ...
ROW D5 : ... .. . ... ... ... : F-3 02 . ... ... ... : F#3 00 . P83 ... ... : 2-# 00 7 ... ... ... : ... .. . ... ... ... : ... .. . ... ... ... : F-1 06 . P80 ... ... : ... .. . ... ... ... : ... .. . ... ... ... : ... .. . ... ... ... : ... .. . ... ... ... : ... .. . ... ... ... : ... .. . ... ... ...
ROW D6 : ... .. . ... ... ... : A#2 02 . P81 ... ... : C#3 00 . P89 ... ... : 6-# 00 C ... ... ... : ... .. . ... ... ... : ... .. . ... ... ... : ... .. . ... ... ... : ... .. . ... ... ... : ... .. . ... ... ... : ... .. . ... ... ... : ... .. . ... ... ... : ... .. . ... ... ... : ... .. . ... ... ...
ROW D7 : ... .. . ... ... ... : D#2 02 . ... ... ... : A#2 00 . P75 ... ... : 7-# 00 8 ... ... ... : ... .. . ... ... ... : ... .. . ... ... ... : F#1 06 . P81 ... ... : ... .. . ... ... ... : ... .. . ... ... ... : ... .. . ... ... ... : ... .. . ... ... ... : ... .. . ... ... ... : ... .. . ... ... ...
ROW D8 : ... .. . ... ... ... : G#1 02 . ... ... ... : G-2 00 . P70 ... ... : 8-# 00 7 ... ... ... : ... .. . ... ... ... : ... .. . ... ... ... : ... .. . ... ... ... : ... .. . ... ... ... : ... .. . ... ... ... : ... .. . ... ... ... : ... .. . ... ... ... : ... .. . ... ... ... : ... .. . ... ... ...
ROW D9 : ... .. . ... ... ... : C#1 02 . ... ... ... : E-2 00 . P7C ... ... : ... .. 6 ... ... ... : ... .. . ... ... ... : ... .. . ... ... ... : F-1 06 . P80 ... ... : ... .. . ... ... ... : ... .. 4 ... ... ... : ... .. . ... ... ... : ... .. . ... ... ... : ... .. . ... ... ... : ... .. . ... ... ...
ROW DA : ... .. . ... ... ... : ... .. . ... ... ... : --- .. . ... ... ... : ... .. . ... ... ... : ... .. . ... ... ... : F#1 07 . ... ... ... : F-1 07 . ... ... ... : ... .. . ... ... ... : F#1 07 . ... ... ... : ... .. . ... ... ... : ... .. . ... ... ... : ... .. . ... ... ... : ... .. . ... ... ...
ROW DB : ... .. . ... ... ... : ... .. . ... ... ... : ... .. . ... ... ... : ... .. 5 ... ... ... : ... .. . ... ... ... : ... .. . ... ... ... : F#1 07 . P81 ... ... : ... .. . ... ... ... : ... .. . ... ... ... : ... .. . ... ... ... : ... .. . ... ... ... : ... .. . ... ... ... : ... .. . ... ... ...
ROW DC : ... .. . ... ... ... : ... .. . ... ... ... : ... .. . ... ... ... : ... .. . ... ... ... : ... .. . ... ... ... : ... .. . ... ... ... : ... .. . P80 ... ... : ... .. . ... ... ... : ... .. . ... ... ... : ... .. . ... ... ... : ... .. . ... ... ... : ... .. . ... ... ... : ... .. . ... ... ...
ROW DD : ... .. . ... ... ... : ... .. . ... ... ... : ... .. . ... ... ... : ... .. 4 ... ... ... : ... .. . ... ... ... : F-1 07 . ... ... ... : F-1 07 . P81 ... ... : ... .. . ... ... ... : ... .. . P81 ... ... : ... .. . ... ... ... : ... .. . ... ... ... : ... .. . ... ... ... : ... .. . ... ... ...
ROW DE : ... .. . ... ... ... : ... .. . ... ... ... : ... .. . ... ... ... : ... .. . ... ... ... : ... .. . ... ... ... : E-1 07 . ... ... ... : D#1 07 . P80 ... ... : ... .. . ... ... ... : F-1 07 . ... ... ... : ... .. . ... ... ... : ... .. . ... ... ... : ... .. . ... ... ... : ... .. . ... ... ...
ROW DF : ... .. . ... ... ... : ... .. . ... ... ... : ... .. . ... ... ... : ... .. 3 ... ... ... : ... .. . ... ... ... : D#1 07 . ... ... ... : D-1 07 . ... ... ... : ... .. . ... ... ... : E-1 07 . ... ... ... : ... .. . ... ... ... : ... .. . ... ... ... : ... .. . ... ... ... : ... .. . ... ... ...
ROW E0 : ... .. . ... ... ... : ... .. . ... ... ... : ... .. . ... ... ... : 6-# 01 F ... ... ... : ... .. . ... ... ... : D-1 08 . P81 ... ... : D-1 08 . P81 ... ... : ... .. . ... ... ... : D-1 08 . P80 ... ... : ... .. . ... ... ... : ... .. . ... ... ... : ... .. . ... ... ... : ... .. . ... ... ...
ROW E1 : ... .. . ... ... ... : ... .. . ... ... ... : ... .. . ... ... ... : ... .. 9 ... ... ... : ... .. . ... ... ... : C#1 08 . ... ... ... : C-1 08 . P80 ... ... : ... .. . ... ... ... : C#1 08 3 ... ... ... : ... .. . ... ... ... : ... .. . ... ... ... : ... .. . ... ... ... : ... .. . ... ... ...
ROW E2 : ... .. . ... ... ... : ... .. . ... ... ... : ... .. . ... ... ... : ... .. 4 ... ... ... : ... .. . ... ... ... : B-0 08 . P80 ... ... : A#0 08 . ... ... ... : ... .. . ... ... ... : C-1 08 . ... ... ... : ... .. . ... ... ... : ... .. . ... ... ... : ... .. . ... ... ... : ... .. . ... ... ...
ROW E3 : ... .. . ... ... ... : ... .. . ... ... ... : ... .. . ... ... ... : ... .. 7 ... ... ... : ... .. . ... ... ... : A#0 08 . ... ... ... : A-0 08 . ... ... ... : ... .. . ... ... ... : B-0 08 . P81 ... ... : ... .. . ... ... ... : ... .. . ... ... ... : ... .. . ... ... ... : ... .. . ... ... ...
ROW E4 : ... .. . ... ... ... : ... .. . ... ... ... : ... .. . ... ... ... : ... .. 5 ... ... ... : ... .. . ... ... ... : A-0 08 . P81 ... ... : ... .. . P81 ... ... : ... .. . ... ... ... : A-0 08 . P80 ... ... : ... .. . ... ... ... : ... .. . ... ... ... : ... .. . ... ... ... : ... .. . ... ... ...
ROW E5 : ... .. . ... ... ... : ... .. . ... ... ... : ... .. . ... ... ... : ... .. . ... ... ... : ... .. . ... ... ... : G-0 08 . ... ... ... : F#0 08 . P80 ... ... : ... .. . ... ... ... : G#0 08 . P81 ... ... : ... .. . ... ... ... : ... .. . ... ... ... : ... .. . ... ... ... : ... .. . ... ... ...
ROW E6 : ... .. . ... ... ... : ... .. . ... ... ... : ... .. . ... ... ... : ... .. 4 ... ... ... : ... .. . ... ... ... : F-0 09 . P80 ... ... : E-0 09 . P81 ... ... : ... .. . ... ... ... : F#0 09 . P80 ... ... : ... .. . ... ... ... : ... .. . ... ... ... : ... .. . ... ... ... : ... .. . ... ... ...
ROW E7 : ... .. . ... ... ... : ... .. . ... ... ... : ... .. . ... ... ... : ... .. . ... ... ... : ... .. . ... ... ... : D#0 09 . ... ... ... : C#0 09 . P80 ... ... : ... .. . ... ... ... : E-0 09 . ... ... ... : ... .. . ... ... ... : ... .. . ... ... ... : ... .. . ... ... ... : ... .. . ... ... ...
ROW E8 : ... .. . ... ... ... : ... .. . ... ... ... : ... .. . ... ... ... : ... .. 3 ... ... ... : ... .. . ... ... ... : C#0 09 . P81 ... ... : C-0 09 . ... ... ... : ... .. . ... ... ... : D-0 09 . ... ... ... : ... .. . ... ... ... : ... .. . ... ... ... : ... .. . ... ... ... : ... .. . ... ... ...
ROW E9 : ... .. . ... ... ... : ... .. . ... ... ... : ... .. . ... ... ... : ... .. 2 ... ... ... : ... .. . ... ... ... : C-0 09 . P82 ... ... : ... .. . P82 ... ... : ... .. . ... ... ... : C-0 09 2 P81 ... ... : ... .. . ... ... ... : ... .. . ... ... ... : ... .. . ... ... ... : ... .. . ... ... ...
ROW EA : ... .. . ... ... ... : ... .. . ... ... ... : ... .. . ... ... ... : ... .. . ... ... ... : ... .. . ... ... ... : ... .. . P84 ... ... : ... .. . P85 ... ... : ... .. . ... ... ... : ... .. . P83 ... ... : ... .. . ... ... ... : ... .. . ... ... ... : ... .. . ... ... ... : ... .. . ... ... ...
ROW EB : ... .. . ... ... ... : ... .. . ... ... ... : ... .. . ... ... ... : ... .. 1 ... ... ... : ... .. . ... ... ... : ... .. . P86 ... ... : --- .. . P7A ... ... : ... .. . ... ... ... : ... .. . P85 ... ... : ... .. . ... ... ... : ... .. . ... ... ... : ... .. . ... ... ... : ... .. . ... ... ...
ROW EC : ... .. . ... ... ... : ... .. . ... ... ... : ... .. . ... ... ... : ... .. . ... ... ... : ... .. . ... ... ... : --- .. . P7A ... ... : ... .. . P7B ... ... : ... .. . ... ... ... : ... .. . P87 ... ... : ... .. . ... ... ... : ... .. . ... ... ... : ... .. . ... ... ... : ... .. . ... ... ...
ROW ED : ... .. . ... ... ... : C-4 02 . P80 ... ... : F#3 00 . P78 ... ... : 1-# 00 F ... ... ... : C-1 12 . ... ... ... : G-4 04 A P78 ... ... : A-4 04 A P80 ... ... : ... .. . ... ... ... : F#4 04 9 P89 ... ... : G-4 04 9 P81 ... ... : ... .. . ... ... ... : ... .. . ... ... ... : ... .. . ... ... ...
ROW EE : ... .. . ... ... ... : F-3 02 . ... ... ... : C#3 00 . P7E ... ... : 2-# 00 7 ... ... ... : ... .. . ... ... ... : G#4 04 . P84 ... ... : ... .. . P81 ... ... : ... .. . ... ... ... : ... .. . P81 ... ... : ... .. . ... ... ... : ... .. . ... ... ... : ... .. . ... ... ... : ... .. . ... ... ...
ROW EF : ... .. . ... ... ... : A#2 02 . P81 ... ... : A-2 00 . P86 ... ... : 1-# 00 4 ... ... ... : ... .. . ... ... ... : ... .. . P7C ... ... : ... .. . P82 ... ... : ... .. . ... ... ... : ... .. . P79 ... ... : ... .. . ... ... ... : ... .. . ... ... ... : ... .. . ... ... ... : ... .. . ... ... ...
ROW F0 : ... .. . ... ... ... : D#2 02 . ... ... ... : --- .. . ... ... ... : ... .. 2 ... ... ... : ... .. . ... ... ... : --- .. . ... ... ... : --- .. . ... ... ... : ... .. . ... ... ... : --- .. . ... ... ... : --- .. . ... ... ... : ... .. . ... ... ... : ... .. . ... ... ... : ... .. . ... ... ...
ROW F1 : ... .. . ... ... ... : G#1 02 . ... ... ... : ... .. . ... ... ... : ... .. 1 ... ... ... : ... .. . ... ... ... : ... .. . P80 ... ... : ... .. . P80 ... ... : ... .. . ... ... ... : ... .. . P80 ... ... : ... .. . P80 ... ... : ... .. . ... ... ... : ... .. . ... ... ... : ... .. . ... ... ...
ROW F2 : ... .. . ... ... ... : C#1 02 . ... ... ... : ... .. . ... ... ... : --- .. . ... ... ... : ... .. . ... ... ... : ... .. . ... ... ... : ... .. . ... ... ... : ... .. . ... ... ... : ... .. . ... ... ... : ... .. . ... ... ... : ... .. . ... ... ... : ... .. . ... ... ... : ... .. . ... ... ...
ROW F3 : ... .. . ... ... ... : ... .. . ... ... ... : ... .. . ... ... ... : 1-# 00 F ... ... ... : C-1 12 . ... ... ... : A-4 04 . P7A ... ... : A-4 04 . P84 ... ... : ... .. . ... ... ... : G#4 04 . P88 ... ... : G-4 04 . P83 ... ... : ... .. . ... ... ... : ... .. . ... ... ... : ... .. . ... ... ...
ROW F4 : ... .. . ... ... ... : ... .. . ... ... ... : ... .. . ... ... ... : 2-# 00 7 ... ... ... : ... .. . ... ... ... : ... .. . P7C ... ... : ... .. . P85 ... ... : ... .. . ... ... ... : ... .. . P8A ... ... : ... .. . P85 ... ... : ... .. . ... ... ... : ... .. . ... ... ... : ... .. . ... ... ...
ROW F5 : ... .. . ... ... ... : ... .. . ... ... ... : ... .. . ... ... ... : 1-# 00 4 ... ... ... : ... .. . ... ... ... : ... .. . P7E ... ... : ... .. . P86 ... ... : ... .. . ... ... ... : G-4 04 . P79 ... ... : ... .. . P87 ... ... : ... .. . ... ... ... : ... .. . ... ... ... : ... .. . ... ... ...
ROW F6 : ... .. . ... ... ... : ... .. . ... ... ... : ... .. . ... ... ... : ... .. 2 ... ... ... : ... .. . ... ... ... : --- .. . ... ... ... : --- .. . ... ... ... : ... .. . ... ... ... : --- .. . ... ... ... : --- .. . ... ... ... : ... .. . ... ... ... : ... .. . ... ... ... : ... .. . ... ... ...
ROW F7 : ... .. . ... ... ... : ... .. . ... ... ... : ... .. . ... ... ... : ... .. 1 ... ... ... : ... .. . ... ... ... : ... .. . P80 ... ... : ... .. . P80 ... ... : ... .. . ... ... ... : ... .. . P80 ... ... : ... .. . P80 ... ... : ... .. . ... ... ... : ... .. . ... ... ... : ... .. . ... ... ...
ROW F8 : ... .. . ... ... ... : ... .. . ... ... ... : ... .. . ... ... ... : --- .. . ... ... ... : ... .. . ... ... ... : ... .. . ... ... ... : ... .. . ... ... ... : ... .. . ... ... ... : ... .. . ... ... ... : ... .. . ... ... ... : ... .. . ... ... ... : ... .. . ... ... ... : ... .. . ... ... ...
ROW F9 : ... .. . ... ... ... : ... .. . ... ... ... : ... .. . ... ... ... : A-# 00 F ... ... ... : C-1 12 . ... ... ... : G#4 04 . P7E ... ... : G#4 04 . P87 ... ... : ... .. . ... ... ... : F#4 04 . P7B ... ... : F-4 04 . P78 ... ... : ... .. . ... ... ... : ... .. . ... ... ... : ... .. . ... ... ...
ROW FA : ... .. . ... ... ... : ... .. . ... ... ... : ... .. . ... ... ... : 6-# 00 9 ... ... ... : ... .. . ... ... ... : G-4 04 . P78 ... ... : G-4 04 . P81 ... ... : ... .. . ... ... ... : ... .. . P89 ... ... : ... .. . P86 ... ... : ... .. . ... ... ... : ... .. . ... ... ... : ... .. . ... ... ...
ROW FB : ... .. . ... ... ... : ... .. . ... ... ... : ... .. . ... ... ... : 7-# 00 C ... ... ... : ... .. . ... ... ... : ... .. . P86 ... ... : F#4 04 . P7E ... ... : ... .. . ... ... ... : F-4 04 . P85 ... ... : E-4 04 . P84 ... ... : ... .. . ... ... ... : ... .. . ... ... ... : ... .. . ... ... ...
ROW FC : ... .. . ... ... ... : ... .. . ... ... ... : ... .. . ... ... ... : ... .. 8 ... ... ... : ... .. . ... ... ... : F#4 04 . P82 ... ... : F-4 04 . P7C ... ... : ... .. . ... ... ... : E-4 04 . P83 ... ... : D#4 04 . P83 ... ... : ... .. . ... ... ... : ... .. . ... ... ... : ... .. . ... ... ...
ROW FD : ... .. . ... ... ... : ... .. . ... ... ... : ... .. . ... ... ... : 8-# 00 7 ... ... ... : ... .. . ... ... ... : F-4 04 . P7F ... ... : E-4 04 . P79 ... ... : ... .. . ... ... ... : D#4 04 . P82 ... ... : D-4 04 8 P82 ... ... : ... .. . ... ... ... : ... .. . ... ... ... : ... .. . ... ... ...
ROW FE : ... .. . ... ... ... : ... .. . ... ... ... : ... .. . ... ... ... : ... .. 8 ... ... ... : ... .. . ... ... ... : E-4 04 . P7D ... ... : ... .. . P86 ... ... : ... .. . ... ... ... : D-4 04 . ... ... ... : C#4 04 . P83 ... ... : ... .. . ... ... ... : ... .. . ... ... ... : ... .. . ... ... ...
ROW FF : ... .. . ... ... ... : ... .. . ... ... ... : ... .. . ... ... ... : 9-# 00 7 ... ... ... : ... .. . ... ... ... : D#4 04 . P7C ... ... : D#4 04 . P85 ... ... : ... .. . ... ... ... : C#4 04 . ... ... ... : C-4 04 . P84 ... ... : ... .. . ... ... ... : ... .. . ... ... ... : ... .. . ... ... ...

PATTERN 14
ROW 00 : ... .. . ... ... ... : ... .. . ... ... ... : ... .. . ... ... ... : ... .. 6 ... ... ... : ... .. . ... ... ... : D-4 04 . P7B ... ... : D-4 04 . P86 ... ... : ... .. . ... ... ... : C-4 04 . P83 ... ... : B-3 04 . P86 ... ... : ... .. . ... ... ... : ... .. . ... ... ... : ... .. . ... ... ...
ROW 01 : ... .. . ... ... ... : ... .. . ... ... ... : ... .. . ... ... ... : ... .. 5 ... ... ... : ... .. . ... ... ... : C#4 04 . P7C ... ... : C#4 04 . P85 ... ... : ... .. . ... ... ... : B-3 04 8 P85 ... ... : A-3 04 7 P7E ... ... : ... .. . ... ... ... : ... .. . ... ... ... : ... .. . ... ... ...
ROW 02 : ... .. . ... ... ... : ... .. . ... ... ... : ... .. . ... ... ... : ... .. . ... ... ... : ... .. . ... ... ... : C-4 04 . P7D ... ... : C-4 04 . P86 ... ... : ... .. . ... ... ... : A-3 04 . P7D ... ... : G#3 04 . P82 ... ... : ... .. . ... ... ... : ... .. . ... ... ... : ... .. . ... ... ...
ROW 03 : ... .. . ... ... ... : ... .. . ... ... ... : ... .. . ... ... ... : ... .. . ... ... ... : ... .. . ... ... ... : B-3 04 . P7F ... ... : A#3 04 . P7D ... ... : ... .. . ... ... ... : G#3 04 . P81 ... ... : F#3 04 . P7D ... ... : ... .. . ... ... ... : ... .. . ... ... ... : ... .. . ... ... ...
ROW 04 : ... .. . ... ... ... : ... .. . ... ... ... : ... .. . ... ... ... : ... .. . ... ... ... : ... .. . ... ... ... : A#3 04 . P82 ... ... : A-3 04 . P81 ... ... : ... .. . ... ... ... : F#3 04 . P7C ... ... : F-3 04 . P82 ... ... : ... .. . ... ... ... : ... .. . ... ... ... : ... .. . ... ... ...
ROW 05 : ... .. . ... ... ... : ... .. . ... ... ... : ... .. . ... ... ... : ... .. . ... ... ... : ... .. . ... ... ... : A-3 04 . P85 ... ... : G#3 04 . P85 ... ... : ... .. . ... ... ... : F-3 04 . P82 ... ... : D#3 04 6 P81 ... ... : ... .. . ... ... ... : ... .. . ... ... ... : ... .. . ... ... ...
ROW 06 : ... .. . ... ... ... : C-4 02 . P80 ... ... : C#4 00 . P7F ... ... : ... .. F ... ... ... : C#1 12 . ... ... ... : G#1 04 F P80 ... ... : F#3 04 . P7F ... ... : G-1 04 9 ... ... ... : A-1 04 9 ... ... ... : C#3 04 . ... ... ... : ... .. . ... ... ... : ... .. . ... ... ... : ... .. . ... ... ...
ROW 07 : ... .. . ... ... ... : F-3 02 . ... ... ... : F#3 00 . P83 ... ... : 2-# 00 7 ... ... ... : ... .. . ... ... ... : ... .. . ... ... ... : F-3 04 . P84 ... ... : ... .. . ... ... ... : ... .. . ... ... ... : B-2 04 . P82 ... ... : ... .. . ... ... ... : ... .. . ... ... ... : ... .. . ... ... ...
ROW 08 : ... .. . ... ... ... : A#2 02 . P81 ... ... : C#3 00 . P89 ... ... : 6-# 00 C ... ... ... : ... .. . ... ... ... : ... .. . ... ... ... : D#3 04 . ... ... ... : ... .. . ... ... ... : ... .. . ... ... ... : G#2 04 . P80 ... ... : ... .. . ... ... ... : ... .. . ... ... ... : ... .. . ... ... ...
ROW 09 : ... .. . ... ... ... : D#2 02 . ... ... ... : A#2 00 . P75 ... ... : 7-# 00 8 ... ... ... : ... .. . ... ... ... : ... .. . ... ... ... : C#3 04 . ... ... ... : ... .. . ... ... ... : ... .. . ... ... ... : F-2 04 5 ... ... ... : ... .. . ... ... ... : ... .. . ... ... ... : ... .. . ... ... ...
ROW 0A : ... .. . ... ... ... : G#1 02 . ... ... ... : G-2 00 . P70 ... ... : 8-# 00 7 ... ... ... : ... .. . ... ... ... : ... .. . ... ... ... : A#2 04 . P7E ... ... : ... .. 8 ... ... ... : ... .. . ... ... ... : C#2 04 . ... ... ... : ... .. . ... ... ... : ... .. . ... ... ... : ... .. . ... ... ...
ROW 0B : ... .. . ... ... ... : C#1 02 . ... ... ... : E-2 00 . P7C ... ... : ... .. 6 ... ... ... : ... .. . ... ... ... : ... .. . ... ... ... : G#2 04 . P82 ... ... : ... .. . ... ... ... : ... .. . ... ... ... : G#1 04 . P7F ... ... : ... .. . ... ... ... : ... .. . ... ... ... : ... .. . ... ... ...
ROW 0C : ... .. . ... ... ... : ... .. . ... ... ... : --- .. . ... ... ... : ... .. . ... ... ... : ... .. . ... ... ... : G#2 04 . ... ... ... : E-2 04 . P7F ... ... : G#2 04 . P82 ... ... : G#2 04 . P7F ... ... : D-1 04 . P81 ... ... : ... .. . ... ... ... : ... .. . ... ... ... : ... .. . ... ... ...
ROW 0D : ... .. . ... ... ... : ... .. . ... ... ... : ... .. . ... ... ... : ... .. 5 ... ... ... : ... .. . ... ... ... : ... .. . ... ... ... : C-2 04 . P80 ... ... : ... .. . ... ... ... : ... .. . ... ... ... : D#0 04 4 ... ... ... : ... .. . ... ... ... : ... .. . ... ... ... : ... .. . ... ... ...
ROW 0E : ... .. . ... ... ... : ... .. . ... ... ... : ... .. . ... ... ... : ... .. . ... ... ... : ... .. . ... ... ... : ... .. . ... ... ... : G-1 04 . P7F ... ... : ... .. 7 ... ... ... : ... .. 8 ... ... ... : --- .. . P7F ... ... : ... .. . ... ... ... : ... .. . ... ... ... : ... .. . ... ... ...
ROW 0F : ... .. . ... ... ... : ... .. . ... ... ... : ... .. . ... ... ... : ... .. 4 ... ... ... : ... .. . ... ... ... : ... .. . ... ... ... : C#1 04 . P81 ... ... : ... .. . ... ... ... : ... .. . ... ... ... : D#7 04 . P81 ... ... : ... .. . ... ... ... : ... .. . ... ... ... : ... .. . ... ... ...
ROW 10 : ... .. . ... ... ... : ... .. . ... ... ... : ... .. . ... ... ... : ... .. . ... ... ... : ... .. . ... ... ... : ... .. . ... ... ... : C-0 04 . P80 ... ... : ... .. . ... ... ... : ... .. . ... ... ... : ... .. . ... ... ... : ... .. . ... ... ... : ... .. . ... ... ... : ... .. . ... ... ...
ROW 11 : ... .. . ... ... ... : ... .. . ... ... ... : ... .. . ... ... ... : ... .. 3 ... ... ... : ... .. . ... ... ... : ... .. . ... ... ... : D#7 04 . P82 ... ... : ... .. . ... ... ... : ... .. . ... ... ... : ... .. 3 ... ... ... : ... .. . ... ... ... : ... .. . ... ... ... : ... .. . ... ... ...
ROW 12 : ... .. . ... ... ... : ... .. . ... ... ... : ... .. . ... ... ... : D-# 00 A ... ... ... : ... .. . ... ... ... : C#2 04 . ... ... ... : --- .. . ... ... ... : C#2 04 6 ... ... ... : C#2 04 . ... ... ... : ... .. . ... ... ... : ... .. . ... ... ... : ... .. . ... ... ... : ... .. . ... ... ...
ROW 13 : ... .. . ... ... ... : ... .. . ... ... ... : ... .. . ... ... ... : E-# 00 4 ... ... ... : ... .. . ... ... ... : ... .. . ... ... ... : ... .. . P80 ... ... : ... .. . ... ... ... : ... .. . ... ... ... : ... .. . ... ... ... : ... .. . ... ... ... : ... .. . ... ... ... : ... .. . ... ... ...
ROW 14 : ... .. . ... ... ... : ... .. . ... ... ... : ... .. . ... ... ... : D-# 00 2 ... ... ... : ... .. . ... ... ... : ... .. . ... ... ... : ... .. . ... ... ... : ... .. . ... ... ... : ... .. . ... ... ... : ... .. . ... ... ... : ... .. . ... ... ... : ... .. . ... ... ... : ... .. . ... ... ...
ROW 15 : ... .. . ... ... ... : ... .. . ... ... ... : ... .. . ... ... ... : ... .. 1 ... ... ... : ... .. . ... ... ... : ... .. . ... ... ... : ... .. . ... ... ... : ... .. . ... ... ... : ... .. . ... ... ... : ... .. 2 ... ... ... : ... .. . ... ... ... : ... .. . ... ... ... : ... .. . ... ... ...
ROW 16 : ... .. . ... ... ... : ... .. . ... ... ... : ... .. . ... ... ... : ... .. . ... ... ... : ... .. . ... ... ... : ... .. . ... ... ... : ... .. . ... ... ... : ... .. 5 ... ... ... : ... .. 7 ... ... ... : ... .. . ... ... ... : ... .. . ... ... ... : ... .. . ... ... ... : ... .. . ... ... ...
ROW 17 : ... .. . ... ... ... : ... .. . ... ... ... : ... .. . ... ... ... : --- .. . ... ... ... : ... .. . ... ... ... : ... .. . ... ... ... : ... .. . ... ... ... : ... .. . ... ... ... : ... .. . ... ... ... : ... .. . ... ... ... : ... .. . ... ... ... : ... .. . ... ... ... : ... .. . ... ... ...
ROW 18 : ... .. . ... ... ... : ... .. . ... ... ... : ... .. . ... ... ... : D-# 00 A ... ... ... : ... .. . ... ... ... : C#3 04 . ... ... ... : ... .. . ... ... ... : C#3 04 . ... ... ... : C#3 04 . ... ... ... : --- .. . ... ... ... : ... .. . ... ... ... : ... .. . ... ... ... : ... .. . ... ... ...
ROW 19 : ... .. . ... ... ... : ... .. . ... ... ... : ... .. . ... ... ... : E-# 00 4 ... ... ... : ... .. . ... ... ... : ... .. . ... ... ... : ... .. . ... ... ... : ... .. . ... ... ... : ... .. . ... ... ... : ... .. . P80 ... ... : ... .. . ... ... ... : ... .. . ... ... ... : ... .. . ... ... ...
ROW 1A : ... .. . ... ... ... : ... .. . ... ... ... : ... .. . ... ... ... : D-# 00 2 ... ... ... : ... .. . ... ... ... : ... .. . ... ... ... : ... .. . ... ... ... : ... .. 4 ... ... ... : ... .. . ... ... ... : ... .. . ... ... ... : ... .. . ... ... ... : ... .. . ... ... ... : ... .. . ... ... ...
ROW 1B : ... .. . ... ... ... : ... .. . ... ... ... : ... .. . ... ... ... : ... .. 1 ... ... ... : ... .. . ... ... ... : ... .. . ... ... ... : ... .. . ... ... ... : ... .. . ... ... ... : ... .. . ... ... ... : ... .. . ... ... ... : ... .. . ... ... ... : ... .. . ... ... ... : ... .. . ... ... ...
ROW 1C : ... .. . ... ... ... : ... .. . ... ... ... : ... .. . ... ... ... : ... .. . ... ... ... : ... .. . ... ... ... : ... .. . ... ... ... : ... .. . ... ... ... : ... .. . ... ... ... : ... .. . ... ... ... : ... .. . ... ... ... : ... .. . ... ... ... : ... .. . ... ... ... : ... .. . ... ... ...
ROW 1D : ... .. . ... ... ... : ... .. . ... ... ... : ... .. . ... ... ... : --- .. . ... ... ... : ... .. . ... ... ... : ... .. . ... ... ... : ... .. . ... ... ... : ... .. . ... ... ... : ... .. . ... ... ... : ... .. . ... ... ... : ... .. . ... ... ... : ... .. . ... ... ... : ... .. . ... ... ...
ROW 1E : ... .. . ... ... ... : ... .. . ... ... ... : ... .. . ... ... ... : ... .. . ... ... ... : ... .. . ... ... ... : ... .. . ... ... ... : ... .. . ... ... ... : ... .. 3 ... ... ... : ... .. 6 ... ... ... : ... .. . ... ... ... : ... .. . ... ... ... : ... .. . ... ... ... : ... .. . ... ... ...
ROW 1F : ... .. . ... ... ... : C-4 02 . P80 ... ... : F#3 00 . P78 ... ... : 1-# 00 F ... ... ... : C-1 12 . ... ... ... : B-4 0C 7 P7C ... ... : ... .. . ... ... ... : --- .. . ... ... ... : A#3 0C 1 P85 ... ... : ... .. . ... ... ... : ... .. . ... ... ... : ... .. . ... ... ... : ... .. . ... ... ...
ROW 20 : ... .. . ... ... ... : F-3 02 . ... ... ... : C#3 00 . P7E ... ... : 2-# 00 7 ... ... ... : ... .. . ... ... ... : A#4 0C . P79 ... ... : ... .. . ... ... ... : ... .. . P80 ... ... : G-3 0C . ... ... ... : ... .. . ... ... ... : ... .. . ... ... ... : ... .. . ... ... ... : ... .. . ... ... ...
ROW 21 : ... .. . ... ... ... : A#2 02 . P81 ... ... : A-2 00 . P86 ... ... : 1-# 00 4 ... ... ... : ... .. . ... ... ... : A-4 0C . P78 ... ... : ... .. . ... ... ... : ... .. . ... ... ... : D#3 0C . P82 ... ... : ... .. . ... ... ... : ... .. . ... ... ... : ... .. . ... ... ... : ... .. . ... ... ...
ROW 22 : ... .. . ... ... ... : D#2 02 . ... ... ... : --- .. . ... ... ... : ... .. 2 ... ... ... : ... .. . ... ... ... : G#4 0C . ... ... ... : ... .. . ... ... ... : ... .. . ... ... ... : A#2 0C . P7F ... ... : ... .. . ... ... ... : ... .. . ... ... ... : ... .. . ... ... ... : ... .. . ... ... ...
ROW 23 : ... .. . ... ... ... : G#1 02 . ... ... ... : ... .. . ... ... ... : ... .. 1 ... ... ... : ... .. . ... ... ... : G-4 0C . ... ... ... : ... .. . ... ... ... : ... .. . ... ... ... : E-2 0C . P81 ... ... : ... .. . ... ... ... : ... .. . ... ... ... : ... .. . ... ... ... : ... .. . ... ... ...
ROW 24 : ... .. . ... ... ... : C#1 02 . ... ... ... : ... .. . ... ... ... : --- .. . ... ... ... : ... .. . ... ... ... : --- .. . ... ... ... : ... .. . ... ... ... : ... .. . ... ... ... : --- .. . ... ... ... : ... .. . ... ... ... : ... .. . ... ... ... : ... .. . ... ... ... : ... .. . ... ... ...
ROW 25 : ... .. . ... ... ... : ... .. . ... ... ... : ... .. . ... ... ... : ... .. . ... ... ... : ... .. . ... ... ... : B-4 0C . P7C ... ... : ... .. . ... ... ... : ... .. . ... ... ... : A#3 0C . P85 ... ... : ... .. . ... ... ... : ... .. . ... ... ... : ... .. . ... ... ... : ... .. . ... ... ...
ROW 26 : ... .. . ... ... ... : ... .. . ... ... ... : ... .. . ... ... ... : ... .. . ... ... ... : ... .. . ... ... ... : A#4 0C . P79 ... ... : ... .. . ... ... ... : ... .. . ... ... ... : G-3 0C . ... ... ... : ... .. . ... ... ... : ... .. . ... ... ... : ... .. . ... ... ... : ... .. . ... ... ...
ROW 27 : ... .. . ... ... ... : ... .. . ... ... ... : ... .. . ... ... ... : ... .. . ... ... ... : ... .. . ... ... ... : A-4 0C . P78 ... ... : ... .. . ... ... ... : ... .. . ... ... ... : --- .. . ... ... ... : ... .. . ... ... ... : ... .. . ... ... ... : ... .. . ... ... ... : ... .. . ... ... ...
ROW 28 : ... .. . ... ... ... : ... .. . ... ... ... : ... .. . ... ... ... : ... .. . ... ... ... : ... .. . ... ... ... : G#4 0C . ... ... ... : ... .. . ... ... ... : ... .. . ... ... ... : ... .. . P80 ... ... : ... .. . ... ... ... : ... .. . ... ... ... : ... .. . ... ... ... : ... .. . ... ... ...
ROW 29 : ... .. . ... ... ... : ... .. . ... ... ... : ... .. . ... ... ... : ... .. . ... ... ... : ... .. . ... ... ... : G-4 0C . ... ... ... : ... .. . ... ... ... : ... .. . ... ... ... : ... .. . ... ... ... : ... .. . ... ... ... : ... .. . ... ... ... : ... .. . ... ... ... : ... .. . ... ... ...
ROW 2A : ... .. . ... ... ... : ... .. . ... ... ... : ... .. . ... ... ... : ... .. . ... ... ... : ... .. . ... ... ... : --- .. . ... ... ... : ... .. . ... ... ... : ... .. . ... ... ... : ... .. . ... ... ... : ... .. . ... ... ... : ... .. . ... ... ... : ... .. . ... ... ... : ... .. . ... ... ...
ROW 2B : ... .. . ... ... ... : ... .. . ... ... ... : ... .. . ... ... ... : D-# 00 A ... ... ... : ... .. . ... ... ... : C#3 05 A P80 ... ... : C-3 05 . P7E ... ... : C#3 05 9 P7E ... ... : G#2 05 9 P81 ... ... : ... .. . ... ... ... : ... .. . ... ... ... : ... .. . ... ... ... : ... .. . ... ... ...
ROW 2C : ... .. . ... ... ... : ... .. . ... ... ... : ... .. . ... ... ... : E-# 00 4 ... ... ... : ... .. . ... ... ... : ... .. . ... ... ... : C#3 05 . P83 ... ... : ... .. . ... ... ... : ... .. . ... ... ... : ... .. . ... ... ... : ... .. . ... ... ... : ... .. . ... ... ... : ... .. . ... ... ...
ROW 2D : ... .. . ... ... ... : ... .. . ... ... ... : ... .. . ... ... ... : D-# 00 2 ... ... ... : ... .. . ... ... ... : ... .. . ... ... ... : ... .. . P82 ... ... : ... .. . ... ... ... : ... .. . ... ... ... : ... .. . ... ... ... : ... .. . ... ... ... : ... .. . ... ... ... : ... .. . ... ... ...
ROW 2E : ... .. . ... ... ... : ... .. . ... ... ... : ... .. . ... ... ... : ... .. 1 ... ... ... : ... .. . ... ... ... : ... .. . ... ... ... : ... .. . P83 ... ... : ... .. . ... ... ... : ... .. . ... ... ... : ... .. . ... ... ... : ... .. . ... ... ... : ... .. . ... ... ... : ... .. . ... ... ...
ROW 2F : ... .. . ... ... ... : ... .. . ... ... ... : ... .. . ... ... ... : ... .. . ... ... ... : ... .. . ... ... ... : --- .. . ... ... ... : --- .. . ... ... ... : --- .. . ... ... ... : --- .. . ... ... ... : ... .. . ... ... ... : ... .. . ... ... ... : ... .. . ... ... ... : ... .. . ... ... ...
ROW 30 : ... .. . ... ... ... : ... .. . ... ... ... : ... .. . ... ... ... : --- .. . ... ... ... : ... .. . ... ... ... : ... .. . ... ... ... : ... .. . P80 ... ... : ... .. . P80 ... ... : ... .. . P80 ... ... : ... .. . ... ... ... : ... .. . ... ... ... : ... .. . ... ... ... : ... .. . ... ... ...
ROW 31 : ... .. . ... ... ... : ... .. . ... ... ... : ... .. . ... ... ... : D-# 00 A ... ... ... : ... .. . ... ... ... : C#3 05 4 ... ... ... : C#3 05 4 P82 ... ... : C#3 05 3 P7E ... ... : G#2 05 3 P81 ... ... : ... .. . ... ... ... : ... .. . ... ... ... : ... .. . ... ... ... : ... .. . ... ... ...
ROW 32 : ... .. . ... ... ... : ... .. . ... ... ... : ... .. . ... ... ... : E-# 00 4 ... ... ... : ... .. . ... ... ... : ... .. . ... ... ... : ... .. . P83 ... ... : ... .. . ... ... ... : ... .. . ... ... ... : ... .. . ... ... ... : ... .. . ... ... ... : ... .. . ... ... ... : ... .. . ... ... ...
ROW 33 : ... .. . ... ... ... : ... .. . ... ... ... : ... .. . ... ... ... : D-# 00 2 ... ... ... : ... .. . ... ... ... : ... .. . ... ... ... : C-3 05 . P7E ... ... : ... .. . ... ... ... : ... .. . ... ... ... : ... .. . ... ... ... : ... .. . ... ... ... : ... .. . ... ... ... : ... .. . ... ... ...
ROW 34 : ... .. . ... ... ... : ... .. . ... ... ... : ... .. . ... ... ... : ... .. 1 ... ... ... : ... .. . ... ... ... : ... .. . ... ... ... : C#3 05 . P83 ... ... : ... .. . ... ... ... : ... .. . ... ... ... : ... .. . ... ... ... : ... .. . ... ... ... : ... .. . ... ... ... : ... .. . ... ... ...
ROW 35 : ... .. . ... ... ... : ... .. . ... ... ... : ... .. . ... ... ... : ... .. . ... ... ... : ... .. . ... ... ... : ... .. . ... ... ... : ... .. . P82 ... ... : ... .. 2 ... ... ... : ... .. . ... ... ... : ... .. . ... ... ... : ... .. . ... ... ... : ... .. . ... ... ... : ... .. . ... ... ...
ROW 36 : ... .. . ... ... ... : ... .. . ... ... ... : ... .. . ... ... ... : --- .. . ... ... ... : ... .. . ... ... ... : --- .. . ... ... ... : --- .. . ... ... ... : --- .. . ... ... ... : --- .. . ... ... ... : ... .. . ... ... ... : ... .. . ... ... ... : ... .. . ... ... ... : ... .. . ... ... ...
ROW 37 : ... .. . ... ... ... : ... .. . ... ... ... : ... .. . ... ... ... : ... .. . ... ... ... : ... .. . ... ... ... : ... .. . ... ... ... : ... .. . P80 ... ... : ... .. . P80 ... ... : ... .. . P80 ... ... : ... .. . ... ... ... : ... .. . ... ... ... : ... .. . ... ... ... : ... .. . ... ... ...
ROW 38 : ... .. . ... ... ... : C-4 02 . P80 ... ... : C#4 00 . P7F ... ... : 9-# 00 F ... ... ... : C#1 12 . ... ... ... : F#3 05 A ... ... ... : F#3 05 A P84 ... ... : F#3 05 9 P7E ... ... : D#3 05 9 P81 ... ... : ... .. . ... ... ... : ... .. . ... ... ... : ... .. . ... ... ... : ... .. . ... ... ...
ROW 39 : ... .. . ... ... ... : F-3 02 . ... ... ... : F#3 00 . P83 ... ... : 2-# 00 7 ... ... ... : ... .. . ... ... ... : ... .. . ... ... ... : ... .. . P83 ... ... : ... .. . ... ... ... : ... .. . ... ... ... : ... .. . ... ... ... : ... .. . ... ... ... : ... .. . ... ... ... : ... .. . ... ... ...
ROW 3A : ... .. . ... ... ... : A#2 02 . P81 ... ... : C#3 00 . P89 ... ... : 6-# 00 C ... ... ... : ... .. . ... ... ... : ... .. . ... ... ... : ... .. . P82 ... ... : ... .. . ... ... ... : ... .. . ... ... ... : ... .. . ... ... ... : ... .. . ... ... ... : ... .. . ... ... ... : ... .. . ... ... ...
ROW 3B : ... .. . ... ... ... : D#2 02 . ... ... ... : A#2 00 . P75 ... ... : 7-# 00 8 ... ... ... : ... .. . ... ... ... : ... .. . ... ... ... : ... .. . P83 ... ... : ... .. . ... ... ... : ... .. . ... ... ... : ... .. . ... ... ... : ... .. . ... ... ... : ... .. . ... ... ... : ... .. . ... ... ...
ROW 3C : ... .. . ... ... ... : G#1 02 . ... ... ... : G-2 00 . P70 ... ... : 8-# 00 7 ... ... ... : ... .. . ... ... ... : --- .. . ... ... ... : --- .. . ... ... ... : --- .. . ... ... ... : --- .. . ... ... ... : ... .. . ... ... ... : ... .. . ... ... ... : ... .. . ... ... ... : ... .. . ... ... ...
ROW 3D : ... .. . ... ... ... : C#1 02 . ... ... ... : E-2 00 . P7C ... ... : ... .. 6 ... ... ... : ... .. . ... ... ... : ... .. . ... ... ... : ... .. . P80 ... ... : ... .. . P80 ... ... : ... .. . P80 ... ... : ... .. . ... ... ... : ... .. . ... ... ... : ... .. . ... ... ... : ... .. . ... ... ...
ROW 3E : ... .. . ... ... ... : ... .. . ... ... ... : --- .. . ... ... ... : ... .. . ... ... ... : ... .. . ... ... ... : F#3 05 4 ... ... ... : F#3 05 4 P82 ... ... : F#3 05 3 P7E ... ... : D#3 05 3 P81 ... ... : ... .. . ... ... ... : ... .. . ... ... ... : ... .. . ... ... ... : ... .. . ... ... ...
ROW 3F : ... .. . ... ... ... : ... .. . ... ... ... : ... .. . ... ... ... : ... .. 5 ... ... ... : ... .. . ... ... ... : ... .. . ... ... ... : ... .. . P83 ... ... : ... .. . ... ... ... : ... .. . ... ... ... : ... .. . ... ... ... : ... .. . ... ... ... : ... .. . ... ... ... : ... .. . ... ... ...
ROW 40 : ... .. . ... ... ... : ... .. . ... ... ... : ... .. . ... ... ... : ... .. . ... ... ... : ... .. . ... ... ... : ... .. . ... ... ... : ... .. . P84 ... ... : ... .. . ... ... ... : ... .. . ... ... ... : ... .. . ... ... ... : ... .. . ... ... ... : ... .. . ... ... ... : ... .. . ... ... ...
ROW 41 : ... .. . ... ... ... : ... .. . ... ... ... : ... .. . ... ... ... : ... .. 4 ... ... ... : ... .. . ... ... ... : ... .. . ... ... ... : ... .. . P83 ... ... : ... .. . ... ... ... : ... .. . ... ... ... : ... .. . ... ... ... : ... .. . ... ... ... : ... .. . ... ... ... : ... .. . ... ... ...
ROW 42 : ... .. . ... ... ... : ... .. . ... ... ... : ... .. . ... ... ... : ... .. . ... ... ... : ... .. . ... ... ... : --- .. . ... ... ... : --- .. . ... ... ... : --- .. . ... ... ... : --- .. . ... ... ... : ... .. . ... ... ... : ... .. . ... ... ... : ... .. . ... ... ... : ... .. . ... ... ...
ROW 43 : ... .. . ... ... ... : ... .. . ... ... ... : ... .. . ... ... ... : ... .. 3 ... ... ... : ... .. . ... ... ... : ... .. . ... ... ... : ... .. . P80 ... ... : ... .. . P80 ... ... : ... .. . P80 ... ... : ... .. . ... ... ... : ... .. . ... ... ... : ... .. . ... ... ... : ... .. . ... ... ...
ROW 44 : ... .. . ... ... ... : ... .. . ... ... ... : ... .. . ... ... ... : D-# 00 A ... ... ... : ... .. . ... ... ... : B-3 05 A ... ... ... : B-3 05 A P84 ... ... : B-3 05 9 P7E ... ... : F#3 05 9 P81 ... ... : ... .. . ... ... ... : ... .. . ... ... ... : ... .. . ... ... ... : ... .. . ... ... ...
ROW 45 : ... .. . ... ... ... : ... .. . ... ... ... : ... .. . ... ... ... : E-# 00 4 ... ... ... : ... .. . ... ... ... : ... .. . ... ... ... : ... .. . ... ... ... : ... .. . ... ... ... : ... .. . ... ... ... : ... .. . ... ... ... : ... .. . ... ... ... : ... .. . ... ... ... : ... .. . ... ... ...
ROW 46 : ... .. . ... ... ... : ... .. . ... ... ... : ... .. . ... ... ... : D-# 00 2 ... ... ... : ... .. . ... ... ... : ... .. . ... ... ... : ... .. . P83 ... ... : ... .. . ... ... ... : ... .. . ... ... ... : ... .. . ... ... ... : ... .. . ... ... ... : ... .. . ... ... ... : ... .. . ... ... ...
ROW 47 : ... .. . ... ... ... : ... .. . ... ... ... : ... .. . ... ... ... : ... .. 1 ... ... ... : ... .. . ... ... ... : ... .. . ... ... ... : ... .. . ... ... ... : ... .. . ... ... ... : ... .. . ... ... ... : ... .. . ... ... ... : ... .. . ... ... ... : ... .. . ... ... ... : ... .. . ... ... ...
ROW 48 : ... .. . ... ... ... : ... .. . ... ... ... : ... .. . ... ... ... : ... .. . ... ... ... : ... .. . ... ... ... : --- .. . ... ... ... : --- .. . ... ... ... : --- .. . ... ... ... : --- .. . ... ... ... : ... .. . ... ... ... : ... .. . ... ... ... : ... .. . ... ... ... : ... .. . ... ... ...
ROW 49 : ... .. . ... ... ... : ... .. . ... ... ... : ... .. . ... ... ... : --- .. . ... ... ... : ... .. . ... ... ... : ... .. . ... ... ... : ... .. . P80 ... ... : ... .. . P80 ... ... : ... .. . P80 ... ... : ... .. . ... ... ... : ... .. . ... ... ... : ... .. . ... ... ... : ... .. . ... ... ...
ROW 4A : ... .. . ... ... ... : ... .. . ... ... ... : ... .. . ... ... ... : D-# 00 A ... ... ... : ... .. . ... ... ... : B-3 05 4 ... ... ... : B-3 05 . P83 ... ... : B-3 05 . P7E ... ... : F#3 05 . P81 ... ... : ... .. . ... ... ... : ... .. . ... ... ... : ... .. . ... ... ... : ... .. . ... ... ...
ROW 4B : ... .. . ... ... ... : ... .. . ... ... ... : ... .. . ... ... ... : E-# 00 4 ... ... ... : ... .. . ... ... ... : ... .. . ... ... ... : ... .. . P82 ... ... : ... .. . ... ... ... : ... .. . ... ... ... : ... .. . ... ... ... : ... .. . ... ... ... : ... .. . ... ... ... : ... .. . ... ... ...
ROW 4C : ... .. . ... ... ... : ... .. . ... ... ... : ... .. . ... ... ... : D-# 00 2 ... ... ... : ... .. . ... ... ... : ... .. . ... ... ... : ... .. . P83 ... ... : ... .. . ... ... ... : ... .. . ... ... ... : ... .. . ... ... ... : ... .. . ... ... ... : ... .. . ... ... ... : ... .. . ... ... ...
ROW 4D : ... .. . ... ... ... : ... .. . ... ... ... : ... .. . ... ... ... : ... .. 1 ... ... ... : ... .. . ... ... ... : ... .. . ... ... ... : ... .. . P84 ... ... : ... .. . ... ... ... : ... .. . ... ... ... : ... .. . ... ... ... : ... .. . ... ... ... : ... .. . ... ... ... : ... .. . ... ... ...
ROW 4E : ... .. . ... ... ... : ... .. . ... ... ... : ... .. . ... ... ... : ... .. . ... ... ... : ... .. . ... ... ... : ... .. . ... ... ... : ... .. . P83 ... ... : ... .. 8 ... ... ... : ... .. . ... ... ... : ... .. . ... ... ... : ... .. . ... ... ... : ... .. . ... ... ... : ... .. . ... ... ...
ROW 4F : ... .. . ... ... ... : ... .. . ... ... ... : ... .. . ... ... ... : --- .. . ... ... ... : ... .. . ... ... ... : --- .. . ... ... ... : --- .. . ... ... ... : --- .. . ... ... ... : --- .. . ... ... ... : ... .. . ... ... ... : ... .. . ... ... ... : ... .. . ... ... ... : ... .. . ... ... ...
ROW 50 : ... .. . ... ... ... : ... .. . ... ... ... : ... .. . ... ... ... : ... .. . ... ... ... : ... .. . ... ... ... : ... .. . ... ... ... : ... .. . P80 ... ... : ... .. . P80 ... ... : ... .. . P80 ... ... : ... .. . ... ... ... : ... .. . ... ... ... : ... .. . ... ... ... : ... .. . ... ... ...
ROW 51 : ... .. . ... ... ... : C-4 02 . P80 ... ... : F#3 00 . P78 ... ... : 1-# 00 F ... ... ... : C-1 12 . ... ... ... : D#2 06 F ... ... ... : D-2 06 F P7F ... ... : ... .. . ... ... ... : D#2 06 E P7F ... ... : D#3 06 B P81 ... ... : ... .. . ... ... ... : ... .. . ... ... ... : ... .. . ... ... ...
ROW 52 : ... .. . ... ... ... : F-3 02 . ... ... ... : C#3 00 . P7E ... ... : 2-# 00 7 ... ... ... : ... .. . ... ... ... : ... .. . ... ... ... : D#2 06 . P81 ... ... : ... .. . ... ... ... : ... .. . ... ... ... : ... .. . ... ... ... : ... .. . ... ... ... : ... .. . ... ... ... : ... .. . ... ... ...
ROW 53 : ... .. . ... ... ... : A#2 02 . P81 ... ... : A-2 00 . P86 ... ... : 1-# 00 4 ... ... ... : ... .. . ... ... ... : ... .. . ... ... ... : ... .. . P80 ... ... : ... .. . ... ... ... : ... .. . ... ... ... : ... .. . ... ... ... : ... .. . ... ... ... : ... .. . ... ... ... : ... .. . ... ... ...
ROW 54 : ... .. . ... ... ... : D#2 02 . ... ... ... : --- .. . ... ... ... : ... .. 2 ... ... ... : ... .. . ... ... ... : D#2 09 . ... ... ... : D#2 09 . P81 ... ... : ... .. . ... ... ... : D#2 09 . ... ... ... : D#3 09 . ... ... ... : ... .. . ... ... ... : ... .. . ... ... ... : ... .. . ... ... ...
ROW 55 : ... .. . ... ... ... : G#1 02 . ... ... ... : ... .. . ... ... ... : ... .. 1 ... ... ... : ... .. . ... ... ... : ... .. . ... ... ... : D-2 09 . P7F ... ... : ... .. . ... ... ... : ... .. . ... ... ... : ... .. A ... ... ... : ... .. . ... ... ... : ... .. . ... ... ... : ... .. . ... ... ...
ROW 56 : ... .. . ... ... ... : C#1 02 . ... ... ... : ... .. . ... ... ... : --- .. . ... ... ... : ... .. . ... ... ... : ... .. . ... ... ... : D#2 09 . P82 ... ... : ... .. . ... ... ... : ... .. . ... ... ... : ... .. . ... ... ... : ... .. . ... ... ... : ... .. . ... ... ... : ... .. . ... ... ...
ROW 57 : ... .. . ... ... ... : ... .. . ... ... ... : ... .. . ... ... ... : ... .. . ... ... ... : ... .. . ... ... ... : D#2 06 . ... ... ... : D#2 06 . P81 ... ... : ... .. . ... ... ... : D#2 06 . ... ... ... : D#3 06 . ... ... ... : ... .. . ... ... ... : ... .. . ... ... ... : ... .. . ... ... ...
ROW 58 : ... .. . ... ... ... : ... .. . ... ... ... : ... .. . ... ... ... : ... .. . ... ... ... : ... .. . ... ... ... : ... .. . ... ... ... : ... .. . ... ... ... : ... .. . ... ... ... : ... .. . ... ... ... : ... .. . ... ... ... : ... .. . ... ... ... : ... .. . ... ... ... : ... .. . ... ... ...
ROW 59 : ... .. . ... ... ... : ... .. . ... ... ... : ... .. . ... ... ... : ... .. . ... ... ... : ... .. . ... ... ... : ... .. . ... ... ... : ... .. . P82 ... ... : ... .. . ... ... ... : ... .. D ... ... ... : ... .. 9 ... ... ... : ... .. . ... ... ... : ... .. . ... ... ... : ... .. . ... ... ...
ROW 5A : ... .. . ... ... ... : ... .. . ... ... ... : ... .. . ... ... ... : ... .. . ... ... ... : ... .. . ... ... ... : D#2 09 . ... ... ... : D-2 09 . P7F ... ... : ... .. . ... ... ... : D#2 09 . ... ... ... : D#3 09 . ... ... ... : ... .. . ... ... ... : ... .. . ... ... ... : ... .. . ... ... ...
ROW 5B : ... .. . ... ... ... : ... .. . ... ... ... : ... .. . ... ... ... : ... .. . ... ... ... : ... .. . ... ... ... : ... .. . ... ... ... : D#2 09 . P81 ... ... : ... .. . ... ... ... : ... .. . ... ... ... : ... .. . ... ... ... : ... .. . ... ... ... : ... .. . ... ... ... : ... .. . ... ... ...
ROW 5C : ... .. . ... ... ... : ... .. . ... ... ... : ... .. . ... ... ... : ... .. . ... ... ... : ... .. . ... ... ... : ... .. . ... ... ... : ... .. . P80 ... ... : ... .. . ... ... ... : ... .. . ... ... ... : ... .. . ... ... ... : ... .. . ... ... ... : ... .. . ... ... ... : ... .. . ... ... ...
ROW 5D : ... .. . ... ... ... : ... .. . ... ... ... : ... .. . ... ... ... : D-# 00 A ... ... ... : ... .. . ... ... ... : D#2 06 . ... ... ... : D#2 06 . P81 ... ... : ... .. . ... ... ... : D#2 06 . ... ... ... : D#3 06 8 ... ... ... : ... .. . ... ... ... : ... .. . ... ... ... : ... .. . ... ... ...
ROW 5E : ... .. . ... ... ... : ... .. . ... ... ... : ... .. . ... ... ... : E-# 00 4 ... ... ... : ... .. . ... ... ... : ... .. . ... ... ... : D-2 06 . P7F ... ... : ... .. . ... ... ... : ... .. . ... ... ... : ... .. . ... ... ... : ... .. . ... ... ... : ... .. . ... ... ... : ... .. . ... ... ...
ROW 5F : ... .. . ... ... ... : ... .. . ... ... ... : ... .. . ... ... ... : D-# 00 2 ... ... ... : ... .. . ... ... ... : ... .. . ... ... ... : D#2 06 . P81 ... ... : ... .. . ... ... ... : ... .. . ... ... ... : ... .. . ... ... ... : ... .. . ... ... ... : ... .. . ... ... ... : ... .. . ... ... ...
ROW 60 : ... .. . ... ... ... : ... .. . ... ... ... : ... .. . ... ... ... : ... .. 1 ... ... ... : ... .. . ... ... ... : D#2 09 . ... ... ... : D#2 09 . P80 ... ... : ... .. . ... ... ... : D#2 09 . ... ... ... : D#3 09 . ... ... ... : ... .. . ... ... ... : ... .. . ... ... ... : ... .. . ... ... ...
ROW 61 : ... .. . ... ... ... : ... .. . ... ... ... : ... .. . ... ... ... : ... .. . ... ... ... : ... .. . ... ... ... : ... .. . ... ... ... : ... .. . P81 ... ... : ... .. . ... ... ... : ... .. C ... ... ... : ... .. 7 ... ... ... : ... .. . ... ... ... : ... .. . ... ... ... : ... .. . ... ... ...
ROW 62 : ... .. . ... ... ... : ... .. . ... ... ... : ... .. . ... ... ... : --- .. . ... ... ... : ... .. . ... ... ... : ... .. . ... ... ... : D-2 09 . P7F ... ... : ... .. . ... ... ... : ... .. . ... ... ... : ... .. . ... ... ... : ... .. . ... ... ... : ... .. . ... ... ... : ... .. . ... ... ...
ROW 63 : ... .. . ... ... ... : ... .. . ... ... ... : ... .. . ... ... ... : D-# 00 A ... ... ... : ... .. . ... ... ... : D#2 06 . ... ... ... : D#2 06 . P81 ... ... : ... .. . ... ... ... : D#2 06 . ... ... ... : D#3 06 . ... ... ... : ... .. . ... ... ... : ... .. . ... ... ... : ... .. . ... ... ...
ROW 64 : ... .. . ... ... ... : ... .. . ... ... ... : ... .. . ... ... ... : E-# 00 4 ... ... ... : ... .. . ... ... ... : ... .. . ... ... ... : ... .. . P80 ... ... : ... .. . ... ... ... : ... .. . ... ... ... : ... .. . ... ... ... : ... .. . ... ... ... : ... .. . ... ... ... : ... .. . ... ... ...
ROW 65 : ... .. . ... ... ... : ... .. . ... ... ... : ... .. . ... ... ... : D-# 00 2 ... ... ... : ... .. . ... ... ... : ... .. . ... ... ... : ... .. . P81 ... ... : ... .. . ... ... ... : ... .. . ... ... ... : ... .. 6 ... ... ... : ... .. . ... ... ... : ... .. . ... ... ... : ... .. . ... ... ...
ROW 66 : ... .. . ... ... ... : ... .. . ... ... ... : ... .. . ... ... ... : ... .. 1 ... ... ... : ... .. . ... ... ... : D#2 09 . ... ... ... : D#2 09 . P82 ... ... : ... .. . ... ... ... : D#2 09 . ... ... ... : D#3 09 . ... ... ... : ... .. . ... ... ... : ... .. . ... ... ... : ... .. . ... ... ...
ROW 67 : ... .. . ... ... ... : ... .. . ... ... ... : ... .. . ... ... ... : ... .. . ... ... ... : ... .. . ... ... ... : ... .. . ... ... ... : ... .. . ... ... ... : ... .. . ... ... ... : ... .. . ... ... ... : ... .. . ... ... ... : ... .. . ... ... ... : ... .. . ... ... ... : ... .. . ... ... ...
ROW 68 : ... .. . ... ... ... : ... .. . ... ... ... : ... .. . ... ... ... : --- .. . ... ... ... : ... .. . ... ... ... : ... .. . ... ... ... : ... .. . P81 ... ... : ... .. . ... ... ... : ... .. . ... ... ... : ... .. . ... ... ... : ... .. . ... ... ... : ... .. . ... ... ... : ... .. . ... ... ...
ROW 69 : ... .. . ... ... ... : ... .. . ... ... ... : ... .. . ... ... ... : ... .. . ... ... ... : ... .. . ... ... ... : ... .. . ... ... ... : ... .. . ... ... ... : ... .. . ... ... ... : ... .. B ... ... ... : ... .. 5 ... ... ... : ... .. . ... ... ... : ... .. . ... ... ... : ... .. . ... ... ...
ROW 6A : ... .. . ... ... ... : C-4 02 . P80 ... ... : C#4 00 . P7F ... ... : 9-# 00 F ... ... ... : C#1 12 . ... ... ... : D-2 06 . ... ... ... : D-2 06 . P82 ... ... : ... .. . ... ... ... : D-2 06 . ... ... ... : D-3 06 . ... ... ... : ... .. . ... ... ... : ... .. . ... ... ... : ... .. . ... ... ...
ROW 6B : ... .. . ... ... ... : F-3 02 . ... ... ... : F#3 00 . P83 ... ... : 2-# 00 7 ... ... ... : ... .. . ... ... ... : ... .. . ... ... ... : C#2 06 . P7F ... ... : ... .. . ... ... ... : ... .. . ... ... ... : ... .. . ... ... ... : ... .. . ... ... ... : ... .. . ... ... ... : ... .. . ... ... ...
ROW 6C : ... .. . ... ... ... : A#2 02 . P81 ... ... : C#3 00 . P89 ... ... : 6-# 00 C ... ... ... : ... .. . ... ... ... : ... .. . ... ... ... : D-2 06 . P81 ... ... : ... .. . ... ... ... : ... .. . ... ... ... : ... .. . ... ... ... : ... .. . ... ... ... : ... .. . ... ... ... : ... .. . ... ... ...
ROW 6D : ... .. . ... ... ... : D#2 02 . ... ... ... : A#2 00 . P75 ... ... : 7-# 00 8 ... ... ... : ... .. . ... ... ... : D-2 07 . ... ... ... : D-2 07 . P80 ... ... : ... .. . ... ... ... : D-2 07 . ... ... ... : D-3 07 4 ... ... ... : ... .. . ... ... ... : ... .. . ... ... ... : ... .. . ... ... ...
ROW 6E : ... .. . ... ... ... : G#1 02 . ... ... ... : G-2 00 . P70 ... ... : 8-# 00 7 ... ... ... : ... .. . ... ... ... : ... .. . ... ... ... : ... .. . P81 ... ... : ... .. . ... ... ... : ... .. . ... ... ... : ... .. . ... ... ... : ... .. . ... ... ... : ... .. . ... ... ... : ... .. . ... ... ...
ROW 6F : ... .. . ... ... ... : C#1 02 . ... ... ... : E-2 00 . P7C ... ... : ... .. 6 ... ... ... : ... .. . ... ... ... : ... .. . ... ... ... : C#2 07 . P7F ... ... : ... .. . ... ... ... : ... .. . ... ... ... : ... .. . ... ... ... : ... .. . ... ... ... : ... .. . ... ... ... : ... .. . ... ... ...
ROW 70 : ... .. . ... ... ... : ... .. . ... ... ... : --- .. . ... ... ... : ... .. . ... ... ... : ... .. . ... ... ... : D-2 08 . ... ... ... : D-2 08 . P81 ... ... : ... .. . ... ... ... : D-2 08 . ... ... ... : D-3 08 . ... ... ... : ... .. . ... ... ... : ... .. . ... ... ... : ... .. . ... ... ...
ROW 71 : ... .. . ... ... ... : ... .. . ... ... ... : ... .. . ... ... ... : ... .. 5 ... ... ... : ... .. . ... ... ... : ... .. . ... ... ... : ... .. . P80 ... ... : ... .. . ... ... ... : ... .. A ... ... ... : ... .. 3 ... ... ... : ... .. . ... ... ... : ... .. . ... ... ... : ... .. . ... ... ...
ROW 72 : ... .. . ... ... ... : ... .. . ... ... ... : ... .. . ... ... ... : ... .. . ... ... ... : ... .. . ... ... ... : ... .. . ... ... ... : ... .. . P81 ... ... : ... .. . ... ... ... : ... .. . ... ... ... : ... .. . ... ... ... : ... .. . ... ... ... : ... .. . ... ... ... : ... .. . ... ... ...
ROW 73 : ... .. . ... ... ... : ... .. . ... ... ... : ... .. . ... ... ... : ... .. 4 ... ... ... : ... .. . ... ... ... : D-2 09 . ... ... ... : C#2 09 . P7F ... ... : ... .. . ... ... ... : D-2 09 . ... ... ... : D-3 09 . ... ... ... : ... .. . ... ... ... : ... .. . ... ... ... : ... .. . ... ... ...
ROW 74 : ... .. . ... ... ... : ... .. . ... ... ... : ... .. . ... ... ... : ... .. . ... ... ... : ... .. . ... ... ... : ... .. . ... ... ... : D-2 09 . P81 ... ... : ... .. . ... ... ... : ... .. . ... ... ... : ... .. . ... ... ... : ... .. . ... ... ... : ... .. . ... ... ... : ... .. . ... ... ...
ROW 75 : ... .. . ... ... ... : ... .. . ... ... ... : ... .. . ... ... ... : ... .. 3 ... ... ... : ... .. . ... ... ... : ... .. . ... ... ... : ... .. . P80 ... ... : ... .. . ... ... ... : ... .. . ... ... ... : ... .. 2 ... ... ... : ... .. . ... ... ... : ... .. . ... ... ... : ... .. . ... ... ...
ROW 76 : ... .. . ... ... ... : F-3 02 . P80 ... ... : C#4 00 . P7F ... ... : 1-# 00 F ... ... ... : C-1 12 . ... ... ... : --- .. . ... ... ... : --- .. . ... ... ... : ... .. . ... ... ... : --- .. . ... ... ... : --- .. . ... ... ... : ... .. . ... ... ... : ... .. . ... ... ... : ... .. . ... ... ...
ROW 77 : ... .. . ... ... ... : A#2 02 . P81 ... ... : F#3 00 . P83 ... ... : 2-# 00 7 ... ... ... : ... .. . ... ... ... : ... .. . ... ... ... : ... .. . ... ... ... : ... .. . ... ... ... : ... .. . P80 ... ... : ... .. . P80 ... ... : ... .. . ... ... ... : ... .. . ... ... ... : ... .. . ... ... ...
ROW 78 : ... .. . ... ... ... : D#2 02 . ... ... ... : C#3 00 . P89 ... ... : 1-# 00 4 ... ... ... : ... .. . ... ... ... : ... .. . ... ... ... : ... .. . ... ... ... : ... .. . ... ... ... : ... .. . ... ... ... : ... .. . ... ... ... : ... .. . ... ... ... : ... .. . ... ... ... : ... .. . ... ... ...
ROW 79 : ... .. . ... ... ... : G#1 02 . ... ... ... : A#2 00 . P75 ... ... : ... .. 2 ... ... ... : ... .. . ... ... ... : ... .. . ... ... ... : ... .. . ... ... ... : ... .. . ... ... ... : ... .. . ... ... ... : ... .. . ... ... ... : ... .. . ... ... ... : ... .. . ... ... ... : ... .. . ... ... ...
ROW 7A : ... .. . ... ... ... : C#1 02 . ... ... ... : G-2 00 . P70 ... ... : ... .. 1 ... ... ... : ... .. . ... ... ... : ... .. . ... ... ... : ... .. . ... ... ... : ... .. . ... ... ... : ... .. . ... ... ... : ... .. . ... ... ... : ... .. . ... ... ... : ... .. . ... ... ... : ... .. . ... ... ...
ROW 7B : ... .. . ... ... ... : ... .. . ... ... ... : E-2 00 . P7C ... ... : --- .. . ... ... ... : ... .. . ... ... ... : ... .. . ... ... ... : ... .. . ... ... ... : ... .. . ... ... ... : ... .. . ... ... ... : ... .. . ... ... ... : ... .. . ... ... ... : ... .. . ... ... ... : ... .. . ... ... ...
ROW 7C : ... .. . ... ... ... : ... .. . ... ... ... : D-2 00 . P6F ... ... : ... .. . ... ... ... : ... .. . ... ... ... : ... .. . ... ... ... : ... .. . ... ... ... : ... .. . ... ... ... : ... .. . ... ... ... : ... .. . ... ... ... : ... .. . ... ... ... : ... .. . ... ... ... : ... .. . ... ... ...
ROW 7D : ... .. . ... ... ... : ... .. . ... ... ... : C-2 00 . P6C ... ... : ... .. . ... ... ... : ... .. . ... ... ... : ... .. . ... ... ... : ... .. . ... ... ... : ... .. . ... ... ... : ... .. . ... ... ... : ... .. . ... ... ... : ... .. . ... ... ... : ... .. . ... ... ... : ... .. . ... ... ...
ROW 7E : ... .. . ... ... ... : ... .. . ... ... ... : A#1 00 . P75 ... ... : ... .. . ... ... ... : ... .. . ... ... ... : ... .. . ... ... ... : ... .. . ... ... ... : ... .. . ... ... ... : ... .. . ... ... ... : ... .. . ... ... ... : ... .. . ... ... ... : ... .. . ... ... ... : ... .. . ... ... ...
ROW 7F : ... .. . ... ... ... : ... .. . ... ... ... : G#1 00 . P8A ... ... : ... .. . ... ... ... : ... .. . ... ... ... : C-2 07 . ... ... ... : C-2 07 . P81 ... ... : ... .. . ... ... ... : ... .. . ... ... ... : ... .. . ... ... ... : ... .. . ... ... ... : ... .. . ... ... ... : ... .. . ... ... ...
ROW 80 : ... .. . ... ... ... : ... .. . ... ... ... : G-1 00 . P6A ... ... : ... .. . ... ... ... : ... .. . ... ... ... : ... .. . ... ... ... : B-1 07 . P7F ... ... : ... .. . ... ... ... : ... .. . ... ... ... : ... .. . ... ... ... : ... .. . ... ... ... : ... .. . ... ... ... : ... .. . ... ... ...
ROW 81 : ... .. . ... ... ... : ... .. . ... ... ... : F-1 00 . P96 ... ... : ... .. . ... ... ... : ... .. . ... ... ... : ... .. . ... ... ... : C-2 07 . P81 ... ... : ... .. . ... ... ... : ... .. . ... ... ... : ... .. . ... ... ... : ... .. . ... ... ... : ... .. . ... ... ... : ... .. . ... ... ...
ROW 82 : ... .. . ... ... ... : ... .. . ... ... ... : E-1 00 . P82 ... ... : ... .. . ... ... ... : ... .. . ... ... ... : ... .. . ... ... ... : ... .. . P80 ... ... : ... .. . ... ... ... : ... .. . ... ... ... : ... .. . ... ... ... : ... .. . ... ... ... : ... .. . ... ... ... : ... .. . ... ... ...
ROW 83 : ... .. . ... ... ... : C-4 02 . P80 ... ... : F#3 00 . P78 ... ... : 1-# 00 F ... ... ... : C-1 12 . ... ... ... : C#2 06 . ... ... ... : C#2 06 . P81 ... ... : ... .. . ... ... ... : C#2 06 8 P7F ... ... : ... .. . ... ... ... : ... .. . ... ... ... : ... .. . ... ... ... : ... .. . ... ... ...
ROW 84 : ... .. . ... ... ... : F-3 02 . ... ... ... : C#3 00 . P7E ... ... : 2-# 00 7 ... ... ... : ... .. . ... ... ... : ... .. . ... ... ... : C-2 06 . P7F ... ... : ... .. . ... ... ... : ... .. . ... ... ... : ... .. . ... ... ... : ... .. . ... ... ... : ... .. . ... ... ... : ... .. . ... ... ...
ROW 85 : ... .. . ... ... ... : A#2 02 . P81 ... ... : A-2 00 . P86 ... ... : 1-# 00 4 ... ... ... : ... .. . ... ... ... : ... .. . ... ... ... : C#2 06 . P82 ... ... : ... .. . ... ... ... : ... .. . ... ... ... : ... .. . ... ... ... : ... .. . ... ... ... : ... .. . ... ... ... : ... .. . ... ... ...
ROW 86 : ... .. . ... ... ... : D#2 02 . ... ... ... : --- .. . ... ... ... : ... .. 2 ... ... ... : ... .. . ... ... ... : C#2 09 . ... ... ... : C#2 09 . P81 ... ... : ... .. . ... ... ... : C#2 09 . ... ... ... : ... .. . ... ... ... : ... .. . ... ... ... : ... .. . ... ... ... : ... .. . ... ... ...
ROW 87 : ... .. . ... ... ... : G#1 02 . ... ... ... : ... .. . ... ... ... : ... .. 1 ... ... ... : ... .. . ... ... ... : ... .. . ... ... ... : ... .. . ... ... ... : ... .. . ... ... ... : ... .. . ... ... ... : ... .. . ... ... ... : ... .. . ... ... ... : ... .. . ... ... ... : ... .. . ... ... ...
ROW 88 : ... .. . ... ... ... : C#1 02 . ... ... ... : ... .. . ... ... ... : --- .. . ... ... ... : ... .. . ... ... ... : ... .. . ... ... ... : ... .. . P82 ... ... : ... .. . ... ... ... : ... .. . ... ... ... : ... .. . ... ... ... : ... .. . ... ... ... : ... .. . ... ... ... : ... .. . ... ... ...
ROW 89 : ... .. . ... ... ... : ... .. . ... ... ... : ... .. . ... ... ... : ... .. . ... ... ... : ... .. . ... ... ... : C#2 06 . ... ... ... : C#2 06 . ... ... ... : ... .. . ... ... ... : C#2 06 7 ... ... ... : ... .. . ... ... ... : ... .. . ... ... ... : ... .. . ... ... ... : ... .. . ... ... ...
ROW 8A : ... .. . ... ... ... : ... .. . ... ... ... : ... .. . ... ... ... : ... .. . ... ... ... : ... .. . ... ... ... : ... .. . ... ... ... : ... .. . P81 ... ... : ... .. . ... ... ... : ... .. . ... ... ... : ... .. . ... ... ... : ... .. . ... ... ... : ... .. . ... ... ... : ... .. . ... ... ...
ROW 8B : ... .. . ... ... ... : ... .. . ... ... ... : ... .. . ... ... ... : ... .. . ... ... ... : ... .. . ... ... ... : ... .. . ... ... ... : ... .. . P80 ... ... : ... .. . ... ... ... : ... .. . ... ... ... : ... .. . ... ... ... : ... .. . ... ... ... : ... .. . ... ... ... : ... .. . ... ... ...
ROW 8C : ... .. . ... ... ... : ... .. . ... ... ... : ... .. . ... ... ... : ... .. . ... ... ... : ... .. . ... ... ... : C#2 09 . ... ... ... : C#2 09 . P81 ... ... : ... .. . ... ... ... : C#2 09 . ... ... ... : ... .. . ... ... ... : ... .. . ... ... ... : ... .. . ... ... ... : ... .. . ... ... ...
ROW 8D : ... .. . ... ... ... : ... .. . ... ... ... : ... .. . ... ... ... : ... .. . ... ... ... : ... .. . ... ... ... : ... .. . ... ... ... : C-2 09 . P7F ... ... : ... .. . ... ... ... : ... .. . ... ... ... : ... .. . ... ... ... : ... .. . ... ... ... : ... .. . ... ... ... : ... .. . ... ... ...
ROW 8E : ... .. . ... ... ... : ... .. . ... ... ... : ... .. . ... ... ... : ... .. . ... ... ... : ... .. . ... ... ... : ... .. . ... ... ... : C#2 09 . P81 ... ... : ... .. . ... ... ... : ... .. . ... ... ... : ... .. . ... ... ... : ... .. . ... ... ... : ... .. . ... ... ... : ... .. . ... ... ...
ROW 8F : ... .. . ... ... ... : ... .. . ... ... ... : ... .. . ... ... ... : D-# 00 A ... ... ... : ... .. . ... ... ... : C#2 06 . ... ... ... : C#2 06 . P80 ... ... : ... .. . ... ... ... : C#2 06 . ... ... ... : ... .. . ... ... ... : ... .. . ... ... ... : ... .. . ... ... ... : ... .. . ... ... ...
ROW 90 : ... .. . ... ... ... : ... .. . ... ... ... : ... .. . ... ... ... : E-# 00 4 ... ... ... : ... .. . ... ... ... : ... .. . ... ... ... : ... .. . P81 ... ... : ... .. . ... ... ... : ... .. . ... ... ... : ... .. . ... ... ... : ... .. . ... ... ... : ... .. . ... ... ... : ... .. . ... ... ...
ROW 91 : ... .. . ... ... ... : ... .. . ... ... ... : ... .. . ... ... ... : D-# 00 2 ... ... ... : ... .. . ... ... ... : ... .. . ... ... ... : C-2 06 . P7F ... ... : ... .. . ... ... ... : ... .. 6 ... ... ... : ... .. . ... ... ... : ... .. . ... ... ... : ... .. . ... ... ... : ... .. . ... ... ...
ROW 92 : ... .. . ... ... ... : ... .. . ... ... ... : ... .. . ... ... ... : ... .. 1 ... ... ... : ... .. . ... ... ... : C#2 09 . ... ... ... : C#2 09 . P81 ... ... : ... .. . ... ... ... : C#2 09 . ... ... ... : ... .. . ... ... ... : ... .. . ... ... ... : ... .. . ... ... ... : ... .. . ... ... ...
ROW 93 : ... .. . ... ... ... : ... .. . ... ... ... : ... .. . ... ... ... : ... .. . ... ... ... : ... .. . ... ... ... : ... .. . ... ... ... : ... .. . P80 ... ... : ... .. . ... ... ... : ... .. . ... ... ... : ... .. . ... ... ... : ... .. . ... ... ... : ... .. . ... ... ... : ... .. . ... ... ...
ROW 94 : ... .. . ... ... ... : ... .. . ... ... ... : ... .. . ... ... ... : --- .. . ... ... ... : ... .. . ... ... ... : ... .. . ... ... ... : ... .. . P81 ... ... : ... .. . ... ... ... : ... .. . ... ... ... : ... .. . ... ... ... : ... .. . ... ... ... : ... .. . ... ... ... : ... .. . ... ... ...
ROW 95 : ... .. . ... ... ... : ... .. . ... ... ... : ... .. . ... ... ... : D-# 00 A ... ... ... : ... .. . ... ... ... : C#2 06 . ... ... ... : C-2 06 . P7F ... ... : ... .. . ... ... ... : C#2 06 . ... ... ... : ... .. . ... ... ... : ... .. . ... ... ... : ... .. . ... ... ... : ... .. . ... ... ...
ROW 96 : ... .. . ... ... ... : ... .. . ... ... ... : ... .. . ... ... ... : E-# 00 4 ... ... ... : ... .. . ... ... ... : ... .. . ... ... ... : C#2 06 . P82 ... ... : ... .. . ... ... ... : ... .. . ... ... ... : ... .. . ... ... ... : ... .. . ... ... ... : ... .. . ... ... ... : ... .. . ... ... ...
ROW 97 : ... .. . ... ... ... : ... .. . ... ... ... : ... .. . ... ... ... : D-# 00 2 ... ... ... : ... .. . ... ... ... : ... .. . ... ... ... : ... .. . P81 ... ... : ... .. . ... ... ... : ... .. . ... ... ... : ... .. . ... ... ... : ... .. . ... ... ... : ... .. . ... ... ... : ... .. . ... ... ...
ROW 98 : ... .. . ... ... ... : ... .. . ... ... ... : ... .. . ... ... ... : ... .. 1 ... ... ... : ... .. . ... ... ... : C#2 09 . ... ... ... : C#2 09 . ... ... ... : ... .. . ... ... ... : C#2 09 . ... ... ... : ... .. . ... ... ... : ... .. . ... ... ... : ... .. . ... ... ... : ... .. . ... ... ...
ROW 99 : ... .. . ... ... ... : ... .. . ... ... ... : ... .. . ... ... ... : ... .. . ... ... ... : ... .. . ... ... ... : ... .. . ... ... ... : ... .. . P82 ... ... : ... .. . ... ... ... : ... .. 5 ... ... ... : ... .. . ... ... ... : ... .. . ... ... ... : ... .. . ... ... ... : ... .. . ... ... ...
ROW 9A : ... .. . ... ... ... : ... .. . ... ... ... : ... .. . ... ... ... : --- .. . ... ... ... : ... .. . ... ... ... : ... .. . ... ... ... : C-2 09 . P7F ... ... : ... .. . ... ... ... : ... .. . ... ... ... : ... .. . ... ... ... : ... .. . ... ... ... : ... .. . ... ... ... : ... .. . ... ... ...
ROW 9B : ... .. . ... ... ... : ... .. . ... ... ... : ... .. . ... ... ... : ... .. . ... ... ... : ... .. . ... ... ... : ... .. . ... ... ... : C#2 09 . P81 ... ... : ... .. . ... ... ... : ... .. . ... ... ... : ... .. . ... ... ... : ... .. . ... ... ... : ... .. . ... ... ... : ... .. . ... ... ...
ROW 9C : ... .. . ... ... ... : C-4 02 . P80 ... ... : C#4 00 . P7F ... ... : 9-# 00 F ... ... ... : C#1 12 . ... ... ... : G-1 06 . ... ... ... : G-1 06 . P80 ... ... : ... .. . ... ... ... : G-1 06 . ... ... ... : ... .. . ... ... ... : ... .. . ... ... ... : ... .. . ... ... ... : ... .. . ... ... ...
ROW 9D : ... .. . ... ... ... : F-3 02 . ... ... ... : F#3 00 . P83 ... ... : 2-# 00 7 ... ... ... : ... .. . ... ... ... : ... .. . ... ... ... : ... .. . P81 ... ... : ... .. . ... ... ... : ... .. . ... ... ... : ... .. . ... ... ... : ... .. . ... ... ... : ... .. . ... ... ... : ... .. . ... ... ...
ROW 9E : ... .. . ... ... ... : A#2 02 . P81 ... ... : C#3 00 . P89 ... ... : 6-# 00 C ... ... ... : ... .. . ... ... ... : ... .. . ... ... ... : F#1 06 . P80 ... ... : ... .. . ... ... ... : ... .. . ... ... ... : ... .. . ... ... ... : ... .. . ... ... ... : ... .. . ... ... ... : ... .. . ... ... ...
ROW 9F : ... .. . ... ... ... : D#2 02 . ... ... ... : A#2 00 . P75 ... ... : 7-# 00 8 ... ... ... : ... .. . ... ... ... : ... .. . ... ... ... : G-1 06 . P81 ... ... : ... .. . ... ... ... : ... .. . ... ... ... : ... .. . ... ... ... : ... .. . ... ... ... : ... .. . ... ... ... : ... .. . ... ... ...
ROW A0 : ... .. . ... ... ... : G#1 02 . ... ... ... : G-2 00 . P70 ... ... : 8-# 00 7 ... ... ... : ... .. . ... ... ... : ... .. . ... ... ... : ... .. . P80 ... ... : ... .. . ... ... ... : ... .. . ... ... ... : ... .. . ... ... ... : ... .. . ... ... ... : ... .. . ... ... ... : ... .. . ... ... ...
ROW A1 : ... .. . ... ... ... : C#1 02 . ... ... ... : E-2 00 . P7C ... ... : ... .. 6 ... ... ... : ... .. . ... ... ... : ... .. . ... ... ... : ... .. . P81 ... ... : ... .. . ... ... ... : ... .. 4 ... ... ... : ... .. . ... ... ... : ... .. . ... ... ... : ... .. . ... ... ... : ... .. . ... ... ...
ROW A2 : ... .. . ... ... ... : ... .. . ... ... ... : --- .. . ... ... ... : ... .. . ... ... ... : ... .. . ... ... ... : G-1 07 . ... ... ... : F#1 07 . P80 ... ... : ... .. . ... ... ... : G-1 07 . ... ... ... : ... .. . ... ... ... : ... .. . ... ... ... : ... .. . ... ... ... : ... .. . ... ... ...
ROW A3 : ... .. . ... ... ... : ... .. . ... ... ... : ... .. . ... ... ... : ... .. 5 ... ... ... : ... .. . ... ... ... : ... .. . ... ... ... : G-1 07 . P81 ... ... : ... .. . ... ... ... : ... .. . ... ... ... : ... .. . ... ... ... : ... .. . ... ... ... : ... .. . ... ... ... : ... .. . ... ... ...
ROW A4 : ... .. . ... ... ... : ... .. . ... ... ... : ... .. . ... ... ... : ... .. . ... ... ... : ... .. . ... ... ... : ... .. . ... ... ... : ... .. . P80 ... ... : ... .. . ... ... ... : ... .. . ... ... ... : ... .. . ... ... ... : ... .. . ... ... ... : ... .. . ... ... ... : ... .. . ... ... ...
ROW A5 : ... .. . ... ... ... : ... .. . ... ... ... : ... .. . ... ... ... : ... .. 4 ... ... ... : ... .. . ... ... ... : G-1 08 . ... ... ... : G-1 08 . P81 ... ... : ... .. . ... ... ... : G-1 08 . ... ... ... : ... .. . ... ... ... : ... .. . ... ... ... : ... .. . ... ... ... : ... .. . ... ... ...
ROW A6 : ... .. . ... ... ... : ... .. . ... ... ... : ... .. . ... ... ... : ... .. . ... ... ... : ... .. . ... ... ... : ... .. . ... ... ... : F#1 08 . P80 ... ... : ... .. . ... ... ... : ... .. . ... ... ... : ... .. . ... ... ... : ... .. . ... ... ... : ... .. . ... ... ... : ... .. . ... ... ...
ROW A7 : ... .. . ... ... ... : ... .. . ... ... ... : ... .. . ... ... ... : ... .. 3 ... ... ... : ... .. . ... ... ... : ... .. . ... ... ... : ... .. . ... ... ... : ... .. . ... ... ... : ... .. . ... ... ... : ... .. . ... ... ... : ... .. . ... ... ... : ... .. . ... ... ... : ... .. . ... ... ...
ROW A8 : ... .. . ... ... ... : ... .. . ... ... ... : ... .. . ... ... ... : 6-# 01 F ... ... ... : ... .. . ... ... ... : B-1 06 . ... ... ... : B-1 06 . P81 ... ... : ... .. . ... ... ... : B-1 06 . ... ... ... : ... .. . ... ... ... : ... .. . ... ... ... : ... .. . ... ... ... : ... .. . ... ... ...
ROW A9 : ... .. . ... ... ... : ... .. . ... ... ... : ... .. . ... ... ... : ... .. 9 ... ... ... : ... .. . ... ... ... : ... .. . ... ... ... : ... .. . ... ... ... : ... .. . ... ... ... : ... .. 3 ... ... ... : ... .. . ... ... ... : ... .. . ... ... ... : ... .. . ... ... ... : ... .. . ... ... ...
ROW AA : ... .. . ... ... ... : ... .. . ... ... ... : ... .. . ... ... ... : ... .. 4 ... ... ... : ... .. . ... ... ... : ... .. . ... ... ... : A#1 06 . P7F ... ... : ... .. . ... ... ... : ... .. . ... ... ... : ... .. . ... ... ... : ... .. . ... ... ... : ... .. . ... ... ... : ... .. . ... ... ...
ROW AB : ... .. . ... ... ... : ... .. . ... ... ... : ... .. . ... ... ... : ... .. 7 ... ... ... : ... .. . ... ... ... : ... .. . ... ... ... : ... .. . P80 ... ... : ... .. . ... ... ... : ... .. . ... ... ... : ... .. . ... ... ... : ... .. . ... ... ... : ... .. . ... ... ... : ... .. . ... ... ...
ROW AC : ... .. . ... ... ... : ... .. . ... ... ... : ... .. . ... ... ... : ... .. 5 ... ... ... : ... .. . ... ... ... : ... .. . ... ... ... : B-1 06 . P81 ... ... : ... .. . ... ... ... : ... .. . ... ... ... : ... .. . ... ... ... : ... .. . ... ... ... : ... .. . ... ... ... : ... .. . ... ... ...
ROW AD : ... .. . ... ... ... : ... .. . ... ... ... : ... .. . ... ... ... : ... .. . ... ... ... : ... .. . ... ... ... : ... .. . ... ... ... : ... .. . P80 ... ... : ... .. . ... ... ... : ... .. . ... ... ... : ... .. . ... ... ... : ... .. . ... ... ... : ... .. . ... ... ... : ... .. . ... ... ...
ROW AE : ... .. . ... ... ... : ... .. . ... ... ... : ... .. . ... ... ... : ... .. 4 ... ... ... : ... .. . ... ... ... : B-1 07 . ... ... ... : B-1 07 . P81 ... ... : ... .. . ... ... ... : B-1 07 . ... ... ... : ... .. . ... ... ... : ... .. . ... ... ... : ... .. . ... ... ... : ... .. . ... ... ...
ROW AF : ... .. . ... ... ... : ... .. . ... ... ... : ... .. . ... ... ... : ... .. . ... ... ... : ... .. . ... ... ... : ... .. . ... ... ... : A#1 07 . P80 ... ... : ... .. . ... ... ... : ... .. . ... ... ... : ... .. . ... ... ... : ... .. . ... ... ... : ... .. . ... ... ... : ... .. . ... ... ...
ROW B0 : ... .. . ... ... ... : ... .. . ... ... ... : ... .. . ... ... ... : ... .. 3 ... ... ... : ... .. . ... ... ... : ... .. . ... ... ... : B-1 07 . P81 ... ... : ... .. . ... ... ... : ... .. . ... ... ... : ... .. . ... ... ... : ... .. . ... ... ... : ... .. . ... ... ... : ... .. . ... ... ...
ROW B1 : ... .. . ... ... ... : ... .. . ... ... ... : ... .. . ... ... ... : ... .. 2 ... ... ... : ... .. . ... ... ... : B-1 08 . ... ... ... : B-1 08 . P80 ... ... : ... .. . ... ... ... : B-1 08 2 ... ... ... : ... .. . ... ... ... : ... .. . ... ... ... : ... .. . ... ... ... : ... .. . ... ... ...
ROW B2 : ... .. . ... ... ... : ... .. . ... ... ... : ... .. . ... ... ... : ... .. . ... ... ... : ... .. . ... ... ... : ... .. . ... ... ... : ... .. . P81 ... ... : ... .. . ... ... ... : ... .. . ... ... ... : ... .. . ... ... ... : ... .. . ... ... ... : ... .. . ... ... ... : ... .. . ... ... ...
ROW B3 : ... .. . ... ... ... : ... .. . ... ... ... : ... .. . ... ... ... : ... .. 1 ... ... ... : ... .. . ... ... ... : ... .. . ... ... ... : A#1 08 . P80 ... ... : ... .. . ... ... ... : ... .. . ... ... ... : ... .. . ... ... ... : ... .. . ... ... ... : ... .. . ... ... ... : ... .. . ... ... ...
ROW B4 : ... .. . ... ... ... : ... .. . ... ... ... : ... .. . ... ... ... : ... .. . ... ... ... : ... .. . ... ... ... : ... .. . ... ... ... : B-1 08 . P81 ... ... : ... .. . ... ... ... : ... .. . ... ... ... : ... .. . ... ... ... : ... .. . ... ... ... : ... .. . ... ... ... : ... .. . ... ... ...
ROW B5 : ... .. . ... ... ... : C-4 02 . P80 ... ... : F#3 00 . P78 ... ... : 1-# 00 F ... ... ... : C-1 12 . ... ... ... : G#1 06 . ... ... ... : G#1 06 . P80 ... ... : ... .. . ... ... ... : G#1 06 . ... ... ... : ... .. . ... ... ... : ... .. . ... ... ... : ... .. . ... ... ... : ... .. . ... ... ...
ROW B6 : ... .. . ... ... ... : F-3 02 . ... ... ... : C#3 00 . P7E ... ... : 2-# 00 7 ... ... ... : ... .. . ... ... ... : ... .. . ... ... ... : ... .. . P81 ... ... : ... .. . ... ... ... : ... .. . ... ... ... : ... .. . ... ... ... : ... .. . ... ... ... : ... .. . ... ... ... : ... .. . ... ... ...
ROW B7 : ... .. . ... ... ... : A#2 02 . P81 ... ... : A-2 00 . P86 ... ... : 1-# 00 4 ... ... ... : ... .. . ... ... ... : ... .. . ... ... ... : G-1 06 . P80 ... ... : ... .. . ... ... ... : ... .. . ... ... ... : ... .. . ... ... ... : ... .. . ... ... ... : ... .. . ... ... ... : ... .. . ... ... ...
ROW B8 : ... .. . ... ... ... : D#2 02 . ... ... ... : --- .. . ... ... ... : ... .. 2 ... ... ... : ... .. . ... ... ... : ... .. . ... ... ... : ... .. . ... ... ... : ... .. . ... ... ... : ... .. . ... ... ... : ... .. . ... ... ... : ... .. . ... ... ... : ... .. . ... ... ... : ... .. . ... ... ...
ROW B9 : ... .. . ... ... ... : G#1 02 . ... ... ... : ... .. . ... ... ... : ... .. 1 ... ... ... : ... .. . ... ... ... : ... .. . ... ... ... : G#1 06 . P81 ... ... : ... .. . ... ... ... : ... .. 1 ... ... ... : ... .. . ... ... ... : ... .. . ... ... ... : ... .. . ... ... ... : ... .. . ... ... ...
ROW BA : ... .. . ... ... ... : C#1 02 . ... ... ... : ... .. . ... ... ... : --- .. . ... ... ... : ... .. . ... ... ... : ... .. . ... ... ... : ... .. . P80 ... ... : ... .. . ... ... ... : ... .. . ... ... ... : ... .. . ... ... ... : ... .. . ... ... ... : ... .. . ... ... ... : ... .. . ... ... ...
ROW BB : ... .. . ... ... ... : ... .. . ... ... ... : ... .. . ... ... ... : ... .. . ... ... ... : ... .. . ... ... ... : G#1 07 . ... ... ... : G#1 07 . P81 ... ... : ... .. . ... ... ... : G#1 07 . ... ... ... : ... .. . ... ... ... : ... .. . ... ... ... : ... .. . ... ... ... : ... .. . ... ... ...
ROW BC : ... .. . ... ... ... : ... .. . ... ... ... : ... .. . ... ... ... : ... .. . ... ... ... : ... .. . ... ... ... : ... .. . ... ... ... : G-1 07 . P80 ... ... : ... .. . ... ... ... : ... .. . ... ... ... : ... .. . ... ... ... : ... .. . ... ... ... : ... .. . ... ... ... : ... .. . ... ... ...
ROW BD : ... .. . ... ... ... : ... .. . ... ... ... : ... .. . ... ... ... : ... .. . ... ... ... : ... .. . ... ... ... : ... .. . ... ... ... : G#1 07 . P81 ... ... : ... .. . ... ... ... : ... .. . ... ... ... : ... .. . ... ... ... : ... .. . ... ... ... : ... .. . ... ... ... : ... .. . ... ... ...
ROW BE : ... .. . ... ... ... : ... .. . ... ... ... : ... .. . ... ... ... : ... .. . ... ... ... : ... .. . ... ... ... : G-1 07 . ... ... ... : G-1 07 . P80 ... ... : ... .. . ... ... ... : ... .. . P81 ... ... : ... .. . ... ... ... : ... .. . ... ... ... : ... .. . ... ... ... : ... .. . ... ... ...
ROW BF : ... .. . ... ... ... : ... .. . ... ... ... : ... .. . ... ... ... : ... .. . ... ... ... : ... .. . ... ... ... : F#1 07 . ... ... ... : F#1 07 . P81 ... ... : ... .. . ... ... ... : G-1 07 . ... ... ... : ... .. . ... ... ... : ... .. . ... ... ... : ... .. . ... ... ... : ... .. . ... ... ...
ROW C0 : ... .. . ... ... ... : ... .. . ... ... ... : ... .. . ... ... ... : ... .. . ... ... ... : ... .. . ... ... ... : F-1 07 . ... ... ... : E-1 07 . P80 ... ... : ... .. . ... ... ... : F#1 07 . ... ... ... : ... .. . ... ... ... : ... .. . ... ... ... : ... .. . ... ... ... : ... .. . ... ... ...
ROW C1 : ... .. . ... ... ... : ... .. . ... ... ... : ... .. . ... ... ... : D-# 00 A ... ... ... : ... .. . ... ... ... : E-1 08 . ... ... ... : E-1 08 . P81 ... ... : G#6 03 7 ... ... ... : --- .. . ... ... ... : ... .. . ... ... ... : ... .. . ... ... ... : ... .. . ... ... ... : ... .. . ... ... ...
ROW C2 : ... .. . ... ... ... : ... .. . ... ... ... : ... .. . ... ... ... : E-# 00 4 ... ... ... : ... .. . ... ... ... : D#1 08 . ... ... ... : D#1 08 . P80 ... ... : ... .. . ... ... ... : ... .. . P80 ... ... : ... .. . ... ... ... : ... .. . ... ... ... : ... .. . ... ... ... : ... .. . ... ... ...
ROW C3 : ... .. . ... ... ... : ... .. . ... ... ... : ... .. . ... ... ... : D-# 00 2 ... ... ... : ... .. . ... ... ... : D-1 08 . ... ... ... : D-1 08 . P81 ... ... : ... .. . ... ... ... : ... .. . ... ... ... : ... .. . ... ... ... : ... .. . ... ... ... : ... .. . ... ... ... : ... .. . ... ... ...
ROW C4 : ... .. . ... ... ... : ... .. . ... ... ... : ... .. . ... ... ... : ... .. 1 ... ... ... : ... .. . ... ... ... : C#1 08 . ... ... ... : C-1 08 . ... ... ... : ... .. 5 ... ... ... : ... .. . ... ... ... : ... .. . ... ... ... : ... .. . ... ... ... : ... .. . ... ... ... : ... .. . ... ... ...
ROW C5 : ... .. . ... ... ... : ... .. . ... ... ... : ... .. . ... ... ... : ... .. . ... ... ... : ... .. . ... ... ... : C-1 08 . P81 ... ... : B-0 08 . ... ... ... : ... .. . ... ... ... : ... .. . ... ... ... : ... .. . ... ... ... : ... .. . ... ... ... : ... .. . ... ... ... : ... .. . ... ... ...
ROW C6 : ... .. . ... ... ... : ... .. . ... ... ... : ... .. . ... ... ... : --- .. . ... ... ... : ... .. . ... ... ... : B-0 08 . ... ... ... : A#0 08 . P80 ... ... : ... .. . ... ... ... : ... .. . ... ... ... : ... .. . ... ... ... : ... .. . ... ... ... : ... .. . ... ... ... : ... .. . ... ... ...
ROW C7 : ... .. . ... ... ... : ... .. . ... ... ... : ... .. . ... ... ... : D-# 00 A ... ... ... : ... .. . ... ... ... : A-0 09 . P80 ... ... : A-0 09 . P81 ... ... : ... .. 3 ... ... ... : ... .. . ... ... ... : ... .. . ... ... ... : ... .. . ... ... ... : ... .. . ... ... ... : ... .. . ... ... ...
ROW C8 : ... .. . ... ... ... : ... .. . ... ... ... : ... .. . ... ... ... : E-# 00 4 ... ... ... : ... .. . ... ... ... : G-0 09 . ... ... ... : F#0 09 . P80 ... ... : ... .. . ... ... ... : ... .. . ... ... ... : ... .. . ... ... ... : ... .. . ... ... ... : ... .. . ... ... ... : ... .. . ... ... ...
ROW C9 : ... .. . ... ... ... : ... .. . ... ... ... : ... .. . ... ... ... : D-# 00 2 ... ... ... : ... .. . ... ... ... : F#0 09 . P81 ... ... : E-0 09 . ... ... ... : ... .. . ... ... ... : ... .. . ... ... ... : ... .. . ... ... ... : ... .. . ... ... ... : ... .. . ... ... ... : ... .. . ... ... ...
ROW CA : ... .. . ... ... ... : ... .. . ... ... ... : ... .. . ... ... ... : ... .. 1 ... ... ... : ... .. . ... ... ... : E-0 09 . ... ... ... : D#0 09 . ... ... ... : ... .. 1 ... ... ... : ... .. . ... ... ... : ... .. . ... ... ... : ... .. . ... ... ... : ... .. . ... ... ... : ... .. . ... ... ...
ROW CB : ... .. . ... ... ... : ... .. . ... ... ... : ... .. . ... ... ... : ... .. . ... ... ... : ... .. . ... ... ... : D-0 09 . ... ... ... : D-0 09 . P81 ... ... : ... .. . ... ... ... : ... .. . ... ... ... : ... .. . ... ... ... : ... .. . ... ... ... : ... .. . ... ... ... : ... .. . ... ... ...
ROW CC : ... .. . ... ... ... : ... .. . ... ... ... : ... .. . ... ... ... : --- .. . ... ... ... : ... .. . ... ... ... : C-0 09 . ... ... ... : C-0 09 . P82 ... ... : ... .. . ... ... ... : ... .. . ... ... ... : ... .. . ... ... ... : ... .. . ... ... ... : ... .. . ... ... ... : ... .. . ... ... ...
ROW CD : ... .. . ... ... ... : ... .. . ... ... ... : ... .. . ... ... ... : ... .. . ... ... ... : ... .. . ... ... ... : ... .. . P83 ... ... : ... .. . P85 ... ... : ... .. . ... ... ... : ... .. . ... ... ... : ... .. . ... ... ... : ... .. . ... ... ... : ... .. . ... ... ... : ... .. . ... ... ...
ROW CE : ... .. . ... ... ... : C-4 02 . P80 ... ... : C#4 00 . P7F ... ... : 9-# 00 F ... ... ... : C#1 12 . ... ... ... : G#1 04 . P80 ... ... : C-0 04 . P86 ... ... : G-1 04 9 ... ... ... : A-1 04 9 P82 ... ... : ... .. . ... ... ... : ... .. . ... ... ... : ... .. . ... ... ... : ... .. . ... ... ...
ROW CF : ... .. . ... ... ... : F-3 02 . ... ... ... : F#3 00 . P83 ... ... : 2-# 00 7 ... ... ... : ... .. . ... ... ... : ... .. . ... ... ... : ... .. . P87 ... ... : ... .. . ... ... ... : ... .. . ... ... ... : ... .. . ... ... ... : ... .. . ... ... ... : ... .. . ... ... ... : ... .. . ... ... ...
ROW D0 : ... .. . ... ... ... : A#2 02 . P81 ... ... : C#3 00 . P89 ... ... : 6-# 00 C ... ... ... : ... .. . ... ... ... : ... .. . ... ... ... : --- .. . P7D ... ... : ... .. . ... ... ... : ... .. . ... ... ... : ... .. . ... ... ... : ... .. . ... ... ... : ... .. . ... ... ... : ... .. . ... ... ...
ROW D1 : ... .. . ... ... ... : D#2 02 . ... ... ... : A#2 00 . P75 ... ... : 7-# 00 8 ... ... ... : ... .. . ... ... ... : ... .. . ... ... ... : ... .. . P80 ... ... : ... .. . ... ... ... : ... .. . ... ... ... : ... .. . ... ... ... : ... .. . ... ... ... : ... .. . ... ... ... : ... .. . ... ... ...
ROW D2 : ... .. . ... ... ... : G#1 02 . ... ... ... : G-2 00 . P70 ... ... : 8-# 00 7 ... ... ... : ... .. . ... ... ... : ... .. . ... ... ... : D#7 04 . P81 ... ... : ... .. 8 ... ... ... : ... .. . ... ... ... : ... .. . ... ... ... : ... .. . ... ... ... : ... .. . ... ... ... : ... .. . ... ... ...
ROW D3 : ... .. . ... ... ... : C#1 02 . ... ... ... : E-2 00 . P7C ... ... : ... .. 6 ... ... ... : ... .. . ... ... ... : ... .. . ... ... ... : --- .. . ... ... ... : ... .. . ... ... ... : ... .. . ... ... ... : ... .. . ... ... ... : ... .. . ... ... ... : ... .. . ... ... ... : ... .. . ... ... ...
ROW D4 : ... .. . ... ... ... : ... .. . ... ... ... : --- .. . ... ... ... : ... .. . ... ... ... : ... .. . ... ... ... : G#2 04 . ... ... ... : D#7 04 . ... ... ... : G#2 04 . P82 ... ... : G#2 04 . P7F ... ... : ... .. . ... ... ... : ... .. . ... ... ... : ... .. . ... ... ... : ... .. . ... ... ...
ROW D5 : ... .. . ... ... ... : ... .. . ... ... ... : ... .. . ... ... ... : ... .. 5 ... ... ... : ... .. . ... ... ... : ... .. . ... ... ... : ... .. . P82 ... ... : ... .. . ... ... ... : ... .. . ... ... ... : ... .. . ... ... ... : ... .. . ... ... ... : ... .. . ... ... ... : ... .. . ... ... ...
ROW D6 : ... .. . ... ... ... : ... .. . ... ... ... : ... .. . ... ... ... : ... .. . ... ... ... : ... .. . ... ... ... : ... .. . ... ... ... : ... .. . ... ... ... : ... .. 7 ... ... ... : ... .. 8 ... ... ... : ... .. . ... ... ... : ... .. . ... ... ... : ... .. . ... ... ... : ... .. . ... ... ...
ROW D7 : ... .. . ... ... ... : ... .. . ... ... ... : ... .. . ... ... ... : ... .. 4 ... ... ... : ... .. . ... ... ... : ... .. . ... ... ... : ... .. . P81 ... ... : ... .. . ... ... ... : ... .. . ... ... ... : ... .. . ... ... ... : ... .. . ... ... ... : ... .. . ... ... ... : ... .. . ... ... ...
ROW D8 : ... .. . ... ... ... : ... .. . ... ... ... : ... .. . ... ... ... : ... .. . ... ... ... : ... .. . ... ... ... : ... .. . ... ... ... : ... .. . ... ... ... : ... .. . ... ... ... : ... .. . ... ... ... : ... .. . ... ... ... : ... .. . ... ... ... : ... .. . ... ... ... : ... .. . ... ... ...
ROW D9 : ... .. . ... ... ... : ... .. . ... ... ... : ... .. . ... ... ... : ... .. 3 ... ... ... : ... .. . ... ... ... : ... .. . ... ... ... : ... .. . P82 ... ... : ... .. . ... ... ... : ... .. . ... ... ... : ... .. . ... ... ... : ... .. . ... ... ... : ... .. . ... ... ... : ... .. . ... ... ...
ROW DA : ... .. . ... ... ... : ... .. . ... ... ... : ... .. . ... ... ... : D-# 00 A ... ... ... : ... .. . ... ... ... : G#1 04 . ... ... ... : --- .. . ... ... ... : G-1 04 6 P80 ... ... : A-1 04 . P82 ... ... : ... .. . ... ... ... : ... .. . ... ... ... : ... .. . ... ... ... : ... .. . ... ... ...
ROW DB : ... .. . ... ... ... : ... .. . ... ... ... : ... .. . ... ... ... : E-# 00 4 ... ... ... : ... .. . ... ... ... : ... .. . ... ... ... : ... .. . P80 ... ... : ... .. . ... ... ... : ... .. . ... ... ... : ... .. . ... ... ... : ... .. . ... ... ... : ... .. . ... ... ... : ... .. . ... ... ...
ROW DC : ... .. . ... ... ... : ... .. . ... ... ... : ... .. . ... ... ... : D-# 00 2 ... ... ... : ... .. . ... ... ... : ... .. . ... ... ... : ... .. . ... ... ... : ... .. . ... ... ... : ... .. . ... ... ... : ... .. . ... ... ... : ... .. . ... ... ... : ... .. . ... ... ... : ... .. . ... ... ...
ROW DD : ... .. . ... ... ... : ... .. . ... ... ... : ... .. . ... ... ... : ... .. 1 ... ... ... : ... .. . ... ... ... : ... .. . ... ... ... : ... .. . ... ... ... : ... .. . ... ... ... : ... .. . ... ... ... : ... .. . ... ... ... : ... .. . ... ... ... : ... .. . ... ... ... : ... .. . ... ... ...
ROW DE : ... .. . ... ... ... : ... .. . ... ... ... : ... .. . ... ... ... : ... .. . ... ... ... : ... .. . ... ... ... : ... .. . ... ... ... : ... .. . ... ... ... : ... .. 5 ... ... ... : ... .. 7 ... ... ... : ... .. . ... ... ... : ... .. . ... ... ... : ... .. . ... ... ... : ... .. . ... ... ...
ROW DF : ... .. . ... ... ... : ... .. . ... ... ... : ... .. . ... ... ... : --- .. . ... ... ... : ... .. . ... ... ... : ... .. . ... ... ... : ... .. . ... ... ... : ... .. . ... ... ... : ... .. . ... ... ... : ... .. . ... ... ... : ... .. . ... ... ... : ... .. . ... ... ... : ... .. . ... ... ...
ROW E0 : ... .. . ... ... ... : ... .. . ... ... ... : ... .. . ... ... ... : D-# 00 A ... ... ... : ... .. . ... ... ... : G#2 04 . ... ... ... : ... .. . ... ... ... : G#2 04 . P82 ... ... : G#2 04 . P7F ... ... : ... .. . ... ... ... : ... .. . ... ... ... : ... .. . ... ... ... : ... .. . ... ... ...
ROW E1 : ... .. . ... ... ... : ... .. . ... ... ... : ... .. . ... ... ... : E-# 00 4 ... ... ... : ... .. . ... ... ... : ... .. . ... ... ... : ... .. . ... ... ... : ... .. . ... ... ... : ... .. . ... ... ... : ... .. . ... ... ... : ... .. . ... ... ... : ... .. . ... ... ... : ... .. . ... ... ...
ROW E2 : ... .. . ... ... ... : ... .. . ... ... ... : ... .. . ... ... ... : D-# 00 2 ... ... ... : ... .. . ... ... ... : ... .. . ... ... ... : ... .. . ... ... ... : ... .. 4 ... ... ... : ... .. . ... ... ... : ... .. . ... ... ... : ... .. . ... ... ... : ... .. . ... ... ... : ... .. . ... ... ...
ROW E3 : ... .. . ... ... ... : ... .. . ... ... ... : ... .. . ... ... ... : ... .. 1 ... ... ... : ... .. . ... ... ... : ... .. . ... ... ... : ... .. . ... ... ... : ... .. . ... ... ... : ... .. . ... ... ... : ... .. . ... ... ... : ... .. . ... ... ... : ... .. . ... ... ... : ... .. . ... ... ...
ROW E4 : ... .. . ... ... ... : ... .. . ... ... ... : ... .. . ... ... ... : ... .. . ... ... ... : ... .. . ... ... ... : ... .. . ... ... ... : ... .. . ... ... ... : ... .. . ... ... ... : ... .. . ... ... ... : ... .. . ... ... ... : ... .. . ... ... ... : ... .. . ... ... ... : ... .. . ... ... ...
ROW E5 : ... .. . ... ... ... : ... .. . ... ... ... : ... .. . ... ... ... : --- .. . ... ... ... : ... .. . ... ... ... : ... .. . ... ... ... : ... .. . ... ... ... : ... .. . ... ... ... : ... .. . ... ... ... : ... .. . ... ... ... : ... .. . ... ... ... : ... .. . ... ... ... : ... .. . ... ... ...
ROW E6 : ... .. . ... ... ... : ... .. . ... ... ... : ... .. . ... ... ... : ... .. . ... ... ... : ... .. . ... ... ... : ... .. . ... ... ... : ... .. . ... ... ... : ... .. 3 ... ... ... : ... .. 6 ... ... ... : ... .. . ... ... ... : ... .. . ... ... ... : ... .. . ... ... ... : ... .. . ... ... ...
ROW E7 : ... .. . ... ... ... : C-4 02 . P80 ... ... : F#3 00 . P78 ... ... : 1-# 00 F ... ... ... : C-1 12 . ... ... ... : B-4 0C 7 P7C ... ... : ... .. . ... ... ... : --- .. . ... ... ... : A#3 0C 1 P85 ... ... : ... .. . ... ... ... : ... .. . ... ... ... : ... .. . ... ... ... : ... .. . ... ... ...
ROW E8 : ... .. . ... ... ... : F-3 02 . ... ... ... : C#3 00 . P7E ... ... : 2-# 00 7 ... ... ... : ... .. . ... ... ... : A#4 0C . P79 ... ... : ... .. . ... ... ... : ... .. . P80 ... ... : G-3 0C . ... ... ... : ... .. . ... ... ... : ... .. . ... ... ... : ... .. . ... ... ... : ... .. . ... ... ...
ROW E9 : ... .. . ... ... ... : A#2 02 . P81 ... ... : A-2 00 . P86 ... ... : 1-# 00 4 ... ... ... : ... .. . ... ... ... : A-4 0C . P78 ... ... : ... .. . ... ... ... : ... .. . ... ... ... : D#3 0C . P82 ... ... : ... .. . ... ... ... : ... .. . ... ... ... : ... .. . ... ... ... : ... .. . ... ... ...
ROW EA : ... .. . ... ... ... : D#2 02 . ... ... ... : --- .. . ... ... ... : ... .. 2 ... ... ... : ... .. . ... ... ... : G#4 0C . ... ... ... : ... .. . ... ... ... : ... .. . ... ... ... : A#2 0C . P7F ... ... : ... .. . ... ... ... : ... .. . ... ... ... : ... .. . ... ... ... : ... .. . ... ... ...
ROW EB : ... .. . ... ... ... : G#1 02 . ... ... ... : ... .. . ... ... ... : ... .. 1 ... ... ... : ... .. . ... ... ... : G-4 0C . ... ... ... : ... .. . ... ... ... : ... .. . ... ... ... : E-2 0C . P81 ... ... : ... .. . ... ... ... : ... .. . ... ... ... : ... .. . ... ... ... : ... .. . ... ... ...
ROW EC : ... .. . ... ... ... : C#1 02 . ... ... ... : ... .. . ... ... ... : --- .. . ... ... ... : ... .. . ... ... ... : --- .. . ... ... ... : ... .. . ... ... ... : ... .. . ... ... ... : --- .. . ... ... ... : ... .. . ... ... ... : ... .. . ... ... ... : ... .. . ... ... ... : ... .. . ... ... ...
ROW ED : ... .. . ... ... ... : ... .. . ... ... ... : ... .. . ... ... ... : ... .. . ... ... ... : ... .. . ... ... ... : B-4 0C . P7C ... ... : ... .. . ... ... ... : ... .. . ... ... ... : A#3 0C . P85 ... ... : ... .. . ... ... ... : ... .. . ... ... ... : ... .. . ... ... ... : ... .. . ... ... ...
ROW EE : ... .. . ... ... ... : ... .. . ... ... ... : ... .. . ... ... ... : ... .. . ... ... ... : ... .. . ... ... ... : A#4 0C . P79 ... ... : ... .. . ... ... ... : ... .. . ... ... ... : G-3 0C . ... ... ... : ... .. . ... ... ... : ... .. . ... ... ... : ... .. . ... ... ... : ... .. . ... ... ...
ROW EF : ... .. . ... ... ... : ... .. . ... ... ... : ... .. . ... ... ... : ... .. . ... ... ... : ... .. . ... ... ... : A-4 0C . P78 ... ... : ... .. . ... ... ... : ... .. . ... ... ... : --- .. . ... ... ... : ... .. . ... ... ... : ... .. . ... ... ... : ... .. . ... ... ... : ... .. . ... ... ...
ROW F0 : ... .. . ... ... ... : ... .. . ... ... ... : ... .. . ... ... ... : ... .. . ... ... ... : ... .. . ... ... ... : G#4 0C . ... ... ... : ... .. . ... ... ... : ... .. . ... ... ... : ... .. . P80 ... ... : ... .. . ... ... ... : ... .. . ... ... ... : ... .. . ... ... ... : ... .. . ... ... ...
ROW F1 : ... .. . ... ... ... : ... .. . ... ... ... : ... .. . ... ... ... : ... .. . ... ... ... : ... .. . ... ... ... : G-4 0C . ... ... ... : ... .. . ... ... ... : ... .. . ... ... ... : ... .. . ... ... ... : ... .. . ... ... ... : ... .. . ... ... ... : ... .. . ... ... ... : ... .. . ... ... ...
ROW F2 : ... .. . ... ... ... : ... .. . ... ... ... : ... .. . ... ... ... : ... .. . ... ... ... : ... .. . ... ... ... : --- .. . ... ... ... : ... .. . ... ... ... : ... .. . ... ... ... : ... .. . ... ... ... : ... .. . ... ... ... : ... .. . ... ... ... : ... .. . ... ... ... : ... .. . ... ... ...
ROW F3 : ... .. . ... ... ... : ... .. . ... ... ... : ... .. . ... ... ... : D-# 00 A ... ... ... : ... .. . ... ... ... : B-2 05 A P80 ... ... : A#2 05 A P7F ... ... : B-2 05 9 P7E ... ... : G#2 05 9 P81 ... ... : ... .. . ... ... ... : ... .. . ... ... ... : ... .. . ... ... ... : ... .. . ... ... ...
ROW F4 : ... .. . ... ... ... : ... .. . ... ... ... : ... .. . ... ... ... : E-# 00 4 ... ... ... : ... .. . ... ... ... : ... .. . ... ... ... : ... .. . P7E ... ... : ... .. . ... ... ... : ... .. . ... ... ... : ... .. . ... ... ... : ... .. . ... ... ... : ... .. . ... ... ... : ... .. . ... ... ...
ROW F5 : ... .. . ... ... ... : ... .. . ... ... ... : ... .. . ... ... ... : D-# 00 2 ... ... ... : ... .. . ... ... ... : ... .. . ... ... ... : B-2 05 . P82 ... ... : ... .. . ... ... ... : ... .. . ... ... ... : ... .. . ... ... ... : ... .. . ... ... ... : ... .. . ... ... ... : ... .. . ... ... ...
ROW F6 : ... .. . ... ... ... : ... .. . ... ... ... : ... .. . ... ... ... : ... .. 1 ... ... ... : ... .. . ... ... ... : ... .. . ... ... ... : ... .. . P83 ... ... : ... .. . ... ... ... : ... .. . ... ... ... : ... .. . ... ... ... : ... .. . ... ... ... : ... .. . ... ... ... : ... .. . ... ... ...
ROW F7 : ... .. . ... ... ... : ... .. . ... ... ... : ... .. . ... ... ... : ... .. . ... ... ... : ... .. . ... ... ... : --- .. . ... ... ... : --- .. . ... ... ... : --- .. . ... ... ... : --- .. . ... ... ... : ... .. . ... ... ... : ... .. . ... ... ... : ... .. . ... ... ... : ... .. . ... ... ...
ROW F8 : ... .. . ... ... ... : ... .. . ... ... ... : ... .. . ... ... ... : --- .. . ... ... ... : ... .. . ... ... ... : ... .. . ... ... ... : ... .. . P80 ... ... : ... .. . P80 ... ... : ... .. . P80 ... ... : ... .. . ... ... ... : ... .. . ... ... ... : ... .. . ... ... ... : ... .. . ... ... ...
ROW F9 : ... .. . ... ... ... : ... .. . ... ... ... : ... .. . ... ... ... : D-# 00 A ... ... ... : ... .. . ... ... ... : B-2 05 4 ... ... ... : B-2 05 4 P83 ... ... : B-2 05 3 P7E ... ... : G#2 05 3 P81 ... ... : ... .. . ... ... ... : ... .. . ... ... ... : ... .. . ... ... ... : ... .. . ... ... ...
ROW FA : ... .. . ... ... ... : ... .. . ... ... ... : ... .. . ... ... ... : E-# 00 4 ... ... ... : ... .. . ... ... ... : ... .. . ... ... ... : ... .. . P82 ... ... : ... .. . ... ... ... : ... .. . ... ... ... : ... .. . ... ... ... : ... .. . ... ... ... : ... .. . ... ... ... : ... .. . ... ... ...
ROW FB : ... .. . ... ... ... : ... .. . ... ... ... : ... .. . ... ... ... : D-# 00 2 ... ... ... : ... .. . ... ... ... : ... .. . ... ... ... : A#2 05 . P7E ... ... : ... .. . ... ... ... : ... .. . ... ... ... : ... .. . ... ... ... : ... .. . ... ... ... : ... .. . ... ... ... : ... .. . ... ... ...
ROW FC : ... .. . ... ... ... : ... .. . ... ... ... : ... .. . ... ... ... : ... .. 1 ... ... ... : ... .. . ... ... ... : ... .. . ... ... ... : ... .. . P7F ... ... : ... .. . ... ... ... : ... .. . ... ... ... : ... .. . ... ... ... : ... .. . ... ... ... : ... .. . ... ... ... : ... .. . ... ... ...
ROW FD : ... .. . ... ... ... : ... .. . ... ... ... : ... .. . ... ... ... : ... .. . ... ... ... : ... .. . ... ... ... : ... .. . ... ... ... : ... .. . P7E ... ... : ... .. 2 ... ... ... : ... .. . ... ... ... : ... .. . ... ... ... : ... .. . ... ... ... : ... .. . ... ... ... : ... .. . ... ... ...
ROW FE : ... .. . ... ... ... : ... .. . ... ... ... : ... .. . ... ... ... : --- .. . ... ... ... : ... .. . ... ... ... : --- .. . ... ... ... : --- .. . ... ... ... : --- .. . ... ... ... : --- .. . ... ... ... : ... .. . ... ... ... : ... .. . ... ... ... : ... .. . ... ... ... : ... .. . ... ... ...
ROW FF : ... .. . ... ... ... : ... .. . ... ... ... : ... .. . ... ... ... : ... .. . ... ... ... : ... .. . ... ... ... : ... .. . ... ... ... : ... .. . P80 ... ... : ... .. . P80 ... ... : ... .. . P80 ... ... : ... .. . ... ... ... : ... .. . ... ... ... : ... .. . ... ... ... : ... .. . ... ... ...

PATTERN 15
ROW 00 : ... .. . ... ... ... : C-4 02 . P80 ... ... : C#4 00 . P7F ... ... : 9-# 00 F ... ... ... : C#1 12 . ... ... ... : C#3 05 A ... ... ... : C-3 05 A P7E ... ... : C#3 05 9 P7E ... ... : B-2 05 9 P81 ... ... : ... .. . ... ... ... : ... .. . ... ... ... : ... .. . ... ... ... : ... .. . ... ... ...
ROW 01 : ... .. . ... ... ... : F-3 02 . ... ... ... : F#3 00 . P83 ... ... : 2-# 00 7 ... ... ... : ... .. . ... ... ... : ... .. . ... ... ... : C#3 05 . P83 ... ... : ... .. . ... ... ... : ... .. . ... ... ... : ... .. . ... ... ... : ... .. . ... ... ... : ... .. . ... ... ... : ... .. . ... ... ...
ROW 02 : ... .. . ... ... ... : A#2 02 . P81 ... ... : C#3 00 . P89 ... ... : 6-# 00 C ... ... ... : ... .. . ... ... ... : ... .. . ... ... ... : ... .. . P82 ... ... : ... .. . ... ... ... : ... .. . ... ... ... : ... .. . ... ... ... : ... .. . ... ... ... : ... .. . ... ... ... : ... .. . ... ... ...
ROW 03 : ... .. . ... ... ... : D#2 02 . ... ... ... : A#2 00 . P75 ... ... : 7-# 00 8 ... ... ... : ... .. . ... ... ... : ... .. . ... ... ... : ... .. . P83 ... ... : ... .. . ... ... ... : ... .. . ... ... ... : ... .. . ... ... ... : ... .. . ... ... ... : ... .. . ... ... ... : ... .. . ... ... ...
ROW 04 : ... .. . ... ... ... : G#1 02 . ... ... ... : G-2 00 . P70 ... ... : 8-# 00 7 ... ... ... : ... .. . ... ... ... : --- .. . ... ... ... : --- .. . ... ... ... : --- .. . ... ... ... : --- .. . ... ... ... : ... .. . ... ... ... : ... .. . ... ... ... : ... .. . ... ... ... : ... .. . ... ... ...
ROW 05 : ... .. . ... ... ... : C#1 02 . ... ... ... : E-2 00 . P7C ... ... : ... .. 6 ... ... ... : ... .. . ... ... ... : ... .. . ... ... ... : ... .. . P80 ... ... : ... .. . P80 ... ... : ... .. . P80 ... ... : ... .. . ... ... ... : ... .. . ... ... ... : ... .. . ... ... ... : ... .. . ... ... ...
ROW 06 : ... .. . ... ... ... : ... .. . ... ... ... : --- .. . ... ... ... : ... .. . ... ... ... : ... .. . ... ... ... : C#3 05 4 ... ... ... : C#3 05 4 P83 ... ... : C#3 05 3 P7E ... ... : B-2 05 3 P81 ... ... : ... .. . ... ... ... : ... .. . ... ... ... : ... .. . ... ... ... : ... .. . ... ... ...
ROW 07 : ... .. . ... ... ... : ... .. . ... ... ... : ... .. . ... ... ... : ... .. 5 ... ... ... : ... .. . ... ... ... : ... .. . ... ... ... : ... .. . ... ... ... : ... .. . ... ... ... : ... .. . ... ... ... : ... .. . ... ... ... : ... .. . ... ... ... : ... .. . ... ... ... : ... .. . ... ... ...
ROW 08 : ... .. . ... ... ... : ... .. . ... ... ... : ... .. . ... ... ... : ... .. . ... ... ... : ... .. . ... ... ... : ... .. . ... ... ... : C-3 05 . P7E ... ... : ... .. . ... ... ... : ... .. . ... ... ... : ... .. . ... ... ... : ... .. . ... ... ... : ... .. . ... ... ... : ... .. . ... ... ...
ROW 09 : ... .. . ... ... ... : ... .. . ... ... ... : ... .. . ... ... ... : ... .. 4 ... ... ... : ... .. . ... ... ... : ... .. . ... ... ... : ... .. . ... ... ... : ... .. . ... ... ... : ... .. . ... ... ... : ... .. . ... ... ... : ... .. . ... ... ... : ... .. . ... ... ... : ... .. . ... ... ...
ROW 0A : ... .. . ... ... ... : ... .. . ... ... ... : ... .. . ... ... ... : ... .. . ... ... ... : ... .. . ... ... ... : --- .. . ... ... ... : --- .. . ... ... ... : --- .. . ... ... ... : --- .. . ... ... ... : ... .. . ... ... ... : ... .. . ... ... ... : ... .. . ... ... ... : ... .. . ... ... ...
ROW 0B : ... .. . ... ... ... : ... .. . ... ... ... : ... .. . ... ... ... : ... .. 3 ... ... ... : ... .. . ... ... ... : ... .. . ... ... ... : ... .. . P80 ... ... : ... .. . P80 ... ... : ... .. . P80 ... ... : ... .. . ... ... ... : ... .. . ... ... ... : ... .. . ... ... ... : ... .. . ... ... ...
ROW 0C : ... .. . ... ... ... : ... .. . ... ... ... : ... .. . ... ... ... : D-# 00 A ... ... ... : ... .. . ... ... ... : G#3 05 A ... ... ... : G#3 05 A P83 ... ... : G#3 05 9 P7E ... ... : D#3 05 9 P81 ... ... : ... .. . ... ... ... : ... .. . ... ... ... : ... .. . ... ... ... : ... .. . ... ... ...
ROW 0D : ... .. . ... ... ... : ... .. . ... ... ... : ... .. . ... ... ... : E-# 00 4 ... ... ... : ... .. . ... ... ... : ... .. . ... ... ... : ... .. . P84 ... ... : ... .. . ... ... ... : ... .. . ... ... ... : ... .. . ... ... ... : ... .. . ... ... ... : ... .. . ... ... ... : ... .. . ... ... ...
ROW 0E : ... .. . ... ... ... : ... .. . ... ... ... : ... .. . ... ... ... : D-# 00 2 ... ... ... : ... .. . ... ... ... : ... .. . ... ... ... : ... .. . P83 ... ... : ... .. . ... ... ... : ... .. . ... ... ... : ... .. . ... ... ... : ... .. . ... ... ... : ... .. . ... ... ... : ... .. . ... ... ...
ROW 0F : ... .. . ... ... ... : ... .. . ... ... ... : ... .. . ... ... ... : ... .. 1 ... ... ... : ... .. . ... ... ... : ... .. . ... ... ... : ... .. . P82 ... ... : ... .. . ... ... ... : ... .. . ... ... ... : ... .. . ... ... ... : ... .. . ... ... ... : ... .. . ... ... ... : ... .. . ... ... ...
ROW 10 : ... .. . ... ... ... : ... .. . ... ... ... : ... .. . ... ... ... : ... .. . ... ... ... : ... .. . ... ... ... : --- .. . ... ... ... : --- .. . ... ... ... : --- .. . ... ... ... : --- .. . ... ... ... : ... .. . ... ... ... : ... .. . ... ... ... : ... .. . ... ... ... : ... .. . ... ... ...
ROW 11 : ... .. . ... ... ... : ... .. . ... ... ... : ... .. . ... ... ... : --- .. . ... ... ... : ... .. . ... ... ... : ... .. . ... ... ... : ... .. . P80 ... ... : ... .. . P80 ... ... : ... .. . P80 ... ... : ... .. . ... ... ... : ... .. . ... ... ... : ... .. . ... ... ... : ... .. . ... ... ...
ROW 12 : ... .. . ... ... ... : ... .. . ... ... ... : ... .. . ... ... ... : D-# 00 A ... ... ... : ... .. . ... ... ... : G#3 05 4 ... ... ... : G#3 05 . P83 ... ... : G#3 05 . P7E ... ... : D#3 05 . P81 ... ... : ... .. . ... ... ... : ... .. . ... ... ... : ... .. . ... ... ... : ... .. . ... ... ...
ROW 13 : ... .. . ... ... ... : ... .. . ... ... ... : ... .. . ... ... ... : E-# 00 4 ... ... ... : ... .. . ... ... ... : ... .. . ... ... ... : ... .. . P82 ... ... : ... .. . ... ... ... : ... .. . ... ... ... : ... .. . ... ... ... : ... .. . ... ... ... : ... .. . ... ... ... : ... .. . ... ... ...
ROW 14 : ... .. . ... ... ... : ... .. . ... ... ... : ... .. . ... ... ... : D-# 00 2 ... ... ... : ... .. . ... ... ... : ... .. . ... ... ... : ... .. . P83 ... ... : ... .. . ... ... ... : ... .. . ... ... ... : ... .. . ... ... ... : ... .. . ... ... ... : ... .. . ... ... ... : ... .. . ... ... ...
ROW 15 : ... .. . ... ... ... : ... .. . ... ... ... : ... .. . ... ... ... : ... .. 1 ... ... ... : ... .. . ... ... ... : ... .. . ... ... ... : ... .. . P84 ... ... : ... .. . ... ... ... : ... .. . ... ... ... : ... .. . ... ... ... : ... .. . ... ... ... : ... .. . ... ... ... : ... .. . ... ... ...
ROW 16 : ... .. . ... ... ... : ... .. . ... ... ... : ... .. . ... ... ... : ... .. . ... ... ... : ... .. . ... ... ... : ... .. . ... ... ... : ... .. . ... ... ... : ... .. 8 ... ... ... : ... .. . ... ... ... : ... .. . ... ... ... : ... .. . ... ... ... : ... .. . ... ... ... : ... .. . ... ... ...
ROW 17 : ... .. . ... ... ... : ... .. . ... ... ... : ... .. . ... ... ... : --- .. . ... ... ... : ... .. . ... ... ... : --- .. . ... ... ... : --- .. . ... ... ... : --- .. . ... ... ... : --- .. . ... ... ... : ... .. . ... ... ... : ... .. . ... ... ... : ... .. . ... ... ... : ... .. . ... ... ...
ROW 18 : ... .. . ... ... ... : ... .. . ... ... ... : ... .. . ... ... ... : ... .. . ... ... ... : ... .. . ... ... ... : ... .. . ... ... ... : ... .. . P80 ... ... : ... .. . P80 ... ... : ... .. . P80 ... ... : ... .. . ... ... ... : ... .. . ... ... ... : ... .. . ... ... ... : ... .. . ... ... ...
ROW 19 : ... .. . ... ... ... : C-4 02 . P80 ... ... : F#3 00 . P78 ... ... : 1-# 00 F ... ... ... : C-1 12 . ... ... ... : G#1 06 F ... ... ... : G-1 06 F ... ... ... : ... .. . ... ... ... : G#1 06 E P7F ... ... : G#2 06 B P81 ... ... : ... .. . ... ... ... : ... .. . ... ... ... : ... .. . ... ... ...
ROW 1A : ... .. . ... ... ... : F-3 02 . ... ... ... : C#3 00 . P7E ... ... : 2-# 00 7 ... ... ... : ... .. . ... ... ... : ... .. . ... ... ... : ... .. . ... ... ... : ... .. . ... ... ... : ... .. . ... ... ... : ... .. . ... ... ... : ... .. . ... ... ... : ... .. . ... ... ... : ... .. . ... ... ...
ROW 1B : ... .. . ... ... ... : A#2 02 . P81 ... ... : A-2 00 . P86 ... ... : 1-# 00 4 ... ... ... : ... .. . ... ... ... : ... .. . ... ... ... : G#1 06 . P81 ... ... : ... .. . ... ... ... : ... .. . ... ... ... : ... .. . ... ... ... : ... .. . ... ... ... : ... .. . ... ... ... : ... .. . ... ... ...
ROW 1C : ... .. . ... ... ... : D#2 02 . ... ... ... : --- .. . ... ... ... : ... .. 2 ... ... ... : ... .. . ... ... ... : G#1 07 . ... ... ... : G#1 07 . P80 ... ... : ... .. . ... ... ... : G#1 07 . ... ... ... : G#2 07 . ... ... ... : ... .. . ... ... ... : ... .. . ... ... ... : ... .. . ... ... ...
ROW 1D : ... .. . ... ... ... : G#1 02 . ... ... ... : ... .. . ... ... ... : ... .. 1 ... ... ... : ... .. . ... ... ... : ... .. . ... ... ... : ... .. . P81 ... ... : ... .. . ... ... ... : ... .. . ... ... ... : ... .. A ... ... ... : ... .. . ... ... ... : ... .. . ... ... ... : ... .. . ... ... ...
ROW 1E : ... .. . ... ... ... : C#1 02 . ... ... ... : ... .. . ... ... ... : --- .. . ... ... ... : ... .. . ... ... ... : ... .. . ... ... ... : G-1 07 . P80 ... ... : ... .. . ... ... ... : ... .. . ... ... ... : ... .. . ... ... ... : ... .. . ... ... ... : ... .. . ... ... ... : ... .. . ... ... ...
ROW 1F : ... .. . ... ... ... : ... .. . ... ... ... : ... .. . ... ... ... : ... .. . ... ... ... : ... .. . ... ... ... : G#1 08 . ... ... ... : G#1 08 . P81 ... ... : ... .. . ... ... ... : G#1 08 . ... ... ... : G#2 08 . ... ... ... : ... .. . ... ... ... : ... .. . ... ... ... : ... .. . ... ... ...
ROW 20 : ... .. . ... ... ... : ... .. . ... ... ... : ... .. . ... ... ... : ... .. . ... ... ... : ... .. . ... ... ... : ... .. . ... ... ... : ... .. . P80 ... ... : ... .. . ... ... ... : ... .. . ... ... ... : ... .. . ... ... ... : ... .. . ... ... ... : ... .. . ... ... ... : ... .. . ... ... ...
ROW 21 : ... .. . ... ... ... : ... .. . ... ... ... : ... .. . ... ... ... : ... .. . ... ... ... : ... .. . ... ... ... : ... .. . ... ... ... : ... .. . P81 ... ... : ... .. . ... ... ... : ... .. D ... ... ... : ... .. 9 ... ... ... : ... .. . ... ... ... : ... .. . ... ... ... : ... .. . ... ... ...
ROW 22 : ... .. . ... ... ... : ... .. . ... ... ... : ... .. . ... ... ... : ... .. . ... ... ... : ... .. . ... ... ... : G#1 09 . ... ... ... : G-1 09 . P80 ... ... : ... .. . ... ... ... : G#1 09 . ... ... ... : G#2 09 . ... ... ... : ... .. . ... ... ... : ... .. . ... ... ... : ... .. . ... ... ...
ROW 23 : ... .. . ... ... ... : ... .. . ... ... ... : ... .. . ... ... ... : ... .. . ... ... ... : ... .. . ... ... ... : ... .. . ... ... ... : G#1 09 . P81 ... ... : ... .. . ... ... ... : ... .. . ... ... ... : ... .. . ... ... ... : ... .. . ... ... ... : ... .. . ... ... ... : ... .. . ... ... ...
ROW 24 : ... .. . ... ... ... : ... .. . ... ... ... : ... .. . ... ... ... : ... .. . ... ... ... : ... .. . ... ... ... : ... .. . ... ... ... : ... .. . P80 ... ... : ... .. . ... ... ... : ... .. . ... ... ... : ... .. . ... ... ... : ... .. . ... ... ... : ... .. . ... ... ... : ... .. . ... ... ...
ROW 25 : ... .. . ... ... ... : ... .. . ... ... ... : ... .. . ... ... ... : D-# 00 A ... ... ... : ... .. . ... ... ... : ... .. . ... ... ... : ... .. . P81 ... ... : ... .. . ... ... ... : ... .. . ... ... ... : ... .. 8 ... ... ... : ... .. . ... ... ... : ... .. . ... ... ... : ... .. . ... ... ...
ROW 26 : ... .. . ... ... ... : ... .. . ... ... ... : ... .. . ... ... ... : E-# 00 4 ... ... ... : ... .. . ... ... ... : ... .. . ... ... ... : G-1 09 . P80 ... ... : ... .. . ... ... ... : ... .. . ... ... ... : ... .. . ... ... ... : ... .. . ... ... ... : ... .. . ... ... ... : ... .. . ... ... ...
ROW 27 : ... .. . ... ... ... : ... .. . ... ... ... : ... .. . ... ... ... : D-# 00 2 ... ... ... : ... .. . ... ... ... : ... .. . ... ... ... : ... .. . ... ... ... : ... .. . ... ... ... : ... .. . ... ... ... : ... .. . ... ... ... : ... .. . ... ... ... : ... .. . ... ... ... : ... .. . ... ... ...
ROW 28 : ... .. . ... ... ... : ... .. . ... ... ... : ... .. . ... ... ... : ... .. 1 ... ... ... : ... .. . ... ... ... : G#1 08 . ... ... ... : G#1 08 . P81 ... ... : ... .. . ... ... ... : G#1 08 . ... ... ... : G#2 08 . ... ... ... : ... .. . ... ... ... : ... .. . ... ... ... : ... .. . ... ... ...
ROW 29 : ... .. . ... ... ... : ... .. . ... ... ... : ... .. . ... ... ... : ... .. . ... ... ... : ... .. . ... ... ... : ... .. . ... ... ... : ... .. . ... ... ... : ... .. . ... ... ... : ... .. C ... ... ... : ... .. 7 ... ... ... : ... .. . ... ... ... : ... .. . ... ... ... : ... .. . ... ... ...
ROW 2A : ... .. . ... ... ... : ... .. . ... ... ... : ... .. . ... ... ... : --- .. . ... ... ... : ... .. . ... ... ... : ... .. . ... ... ... : G-1 08 . P80 ... ... : ... .. . ... ... ... : ... .. . ... ... ... : ... .. . ... ... ... : ... .. . ... ... ... : ... .. . ... ... ... : ... .. . ... ... ...
ROW 2B : ... .. . ... ... ... : ... .. . ... ... ... : ... .. . ... ... ... : D-# 00 A ... ... ... : ... .. . ... ... ... : G#1 07 . ... ... ... : G-1 07 . ... ... ... : ... .. . ... ... ... : G#1 07 . ... ... ... : G#2 07 . ... ... ... : ... .. . ... ... ... : ... .. . ... ... ... : ... .. . ... ... ...
ROW 2C : ... .. . ... ... ... : ... .. . ... ... ... : ... .. . ... ... ... : E-# 00 4 ... ... ... : ... .. . ... ... ... : ... .. . ... ... ... : G#1 07 . P81 ... ... : ... .. . ... ... ... : ... .. . ... ... ... : ... .. . ... ... ... : ... .. . ... ... ... : ... .. . ... ... ... : ... .. . ... ... ...
ROW 2D : ... .. . ... ... ... : ... .. . ... ... ... : ... .. . ... ... ... : D-# 00 2 ... ... ... : ... .. . ... ... ... : ... .. . ... ... ... : ... .. . P80 ... ... : ... .. . ... ... ... : ... .. . ... ... ... : ... .. 6 ... ... ... : ... .. . ... ... ... : ... .. . ... ... ... : ... .. . ... ... ...
ROW 2E : ... .. . ... ... ... : ... .. . ... ... ... : ... .. . ... ... ... : ... .. 1 ... ... ... : ... .. . ... ... ... : G#1 06 . ... ... ... : G#1 06 . P81 ... ... : ... .. . ... ... ... : G#1 06 . ... ... ... : G#2 06 . ... ... ... : ... .. . ... ... ... : ... .. . ... ... ... : ... .. . ... ... ...
ROW 2F : ... .. . ... ... ... : ... .. . ... ... ... : ... .. . ... ... ... : ... .. . ... ... ... : ... .. . ... ... ... : ... .. . ... ... ... : G-1 06 . P80 ... ... : ... .. . ... ... ... : ... .. . ... ... ... : ... .. . ... ... ... : ... .. . ... ... ... : ... .. . ... ... ... : ... .. . ... ... ...
ROW 30 : ... .. . ... ... ... : ... .. . ... ... ... : ... .. . ... ... ... : --- .. . ... ... ... : ... .. . ... ... ... : ... .. . ... ... ... : G#1 06 . P81 ... ... : ... .. . ... ... ... : ... .. . ... ... ... : ... .. . ... ... ... : ... .. . ... ... ... : ... .. . ... ... ... : ... .. . ... ... ...
ROW 31 : ... .. . ... ... ... : ... .. . ... ... ... : ... .. . ... ... ... : ... .. . ... ... ... : ... .. . ... ... ... : ... .. . ... ... ... : ... .. . P80 ... ... : ... .. . ... ... ... : ... .. B ... ... ... : ... .. 5 ... ... ... : ... .. . ... ... ... : ... .. . ... ... ... : ... .. . ... ... ...
ROW 32 : ... .. . ... ... ... : C-4 02 . P80 ... ... : C#4 00 . P7F ... ... : 9-# 00 F ... ... ... : C#1 12 . ... ... ... : D-2 06 . ... ... ... : D-2 06 . P81 ... ... : ... .. . ... ... ... : D-2 06 . ... ... ... : D-3 06 . ... ... ... : ... .. . ... ... ... : ... .. . ... ... ... : ... .. . ... ... ...
ROW 33 : ... .. . ... ... ... : F-3 02 . ... ... ... : F#3 00 . P83 ... ... : 2-# 00 7 ... ... ... : ... .. . ... ... ... : ... .. . ... ... ... : C#2 06 . P7F ... ... : ... .. . ... ... ... : ... .. . ... ... ... : ... .. . ... ... ... : ... .. . ... ... ... : ... .. . ... ... ... : ... .. . ... ... ...
ROW 34 : ... .. . ... ... ... : A#2 02 . P81 ... ... : C#3 00 . P89 ... ... : 6-# 00 C ... ... ... : ... .. . ... ... ... : ... .. . ... ... ... : D-2 06 . P81 ... ... : ... .. . ... ... ... : ... .. . ... ... ... : ... .. . ... ... ... : ... .. . ... ... ... : ... .. . ... ... ... : ... .. . ... ... ...
ROW 35 : ... .. . ... ... ... : D#2 02 . ... ... ... : A#2 00 . P75 ... ... : 7-# 00 8 ... ... ... : ... .. . ... ... ... : D-2 08 . ... ... ... : D-2 08 . P80 ... ... : ... .. . ... ... ... : D-2 08 . ... ... ... : D-3 08 4 ... ... ... : ... .. . ... ... ... : ... .. . ... ... ... : ... .. . ... ... ...
ROW 36 : ... .. . ... ... ... : G#1 02 . ... ... ... : G-2 00 . P70 ... ... : 8-# 00 7 ... ... ... : ... .. . ... ... ... : ... .. . ... ... ... : ... .. . P81 ... ... : ... .. . ... ... ... : ... .. . ... ... ... : ... .. . ... ... ... : ... .. . ... ... ... : ... .. . ... ... ... : ... .. . ... ... ...
ROW 37 : ... .. . ... ... ... : C#1 02 . ... ... ... : E-2 00 . P7C ... ... : ... .. 6 ... ... ... : ... .. . ... ... ... : ... .. . ... ... ... : ... .. . P82 ... ... : ... .. . ... ... ... : ... .. . ... ... ... : ... .. . ... ... ... : ... .. . ... ... ... : ... .. . ... ... ... : ... .. . ... ... ...
ROW 38 : ... .. . ... ... ... : ... .. . ... ... ... : --- .. . ... ... ... : ... .. . ... ... ... : ... .. . ... ... ... : D-2 09 . ... ... ... : D-2 09 . ... ... ... : ... .. . ... ... ... : D-2 09 . ... ... ... : D-3 09 . ... ... ... : ... .. . ... ... ... : ... .. . ... ... ... : ... .. . ... ... ...
ROW 39 : ... .. . ... ... ... : ... .. . ... ... ... : ... .. . ... ... ... : ... .. 5 ... ... ... : ... .. . ... ... ... : ... .. . ... ... ... : ... .. . P81 ... ... : ... .. . ... ... ... : ... .. A ... ... ... : ... .. 3 ... ... ... : ... .. . ... ... ... : ... .. . ... ... ... : ... .. . ... ... ...
ROW 3A : ... .. . ... ... ... : ... .. . ... ... ... : ... .. . ... ... ... : ... .. . ... ... ... : ... .. . ... ... ... : ... .. . ... ... ... : ... .. . P80 ... ... : ... .. . ... ... ... : ... .. . ... ... ... : ... .. . ... ... ... : ... .. . ... ... ... : ... .. . ... ... ... : ... .. . ... ... ...
ROW 3B : ... .. . ... ... ... : ... .. . ... ... ... : ... .. . ... ... ... : ... .. 4 ... ... ... : ... .. . ... ... ... : D-2 07 . ... ... ... : D-2 07 . P81 ... ... : ... .. . ... ... ... : D-2 07 . ... ... ... : D-3 07 . ... ... ... : ... .. . ... ... ... : ... .. . ... ... ... : ... .. . ... ... ...
ROW 3C : ... .. . ... ... ... : ... .. . ... ... ... : ... .. . ... ... ... : ... .. . ... ... ... : ... .. . ... ... ... : ... .. . ... ... ... : C#2 07 . P7F ... ... : ... .. . ... ... ... : ... .. . ... ... ... : ... .. . ... ... ... : ... .. . ... ... ... : ... .. . ... ... ... : ... .. . ... ... ...
ROW 3D : ... .. . ... ... ... : ... .. . ... ... ... : ... .. . ... ... ... : ... .. 3 ... ... ... : ... .. . ... ... ... : ... .. . ... ... ... : D-2 07 . P81 ... ... : ... .. . ... ... ... : ... .. . ... ... ... : ... .. 2 ... ... ... : ... .. . ... ... ... : ... .. . ... ... ... : ... .. . ... ... ...
ROW 3E : ... .. . ... ... ... : ... .. . ... ... ... : ... .. . ... ... ... : D-# 00 A ... ... ... : ... .. . ... ... ... : D-2 06 . ... ... ... : D-2 06 . P80 ... ... : ... .. . ... ... ... : D-2 06 . ... ... ... : D-3 06 . ... ... ... : ... .. . ... ... ... : ... .. . ... ... ... : ... .. . ... ... ...
ROW 3F : ... .. . ... ... ... : ... .. . ... ... ... : ... .. . ... ... ... : E-# 00 4 ... ... ... : ... .. . ... ... ... : ... .. . ... ... ... : ... .. . P81 ... ... : ... .. . ... ... ... : ... .. . ... ... ... : ... .. . ... ... ... : ... .. . ... ... ... : ... .. . ... ... ... : ... .. . ... ... ...
ROW 40 : ... .. . ... ... ... : ... .. . ... ... ... : ... .. . ... ... ... : D-# 00 2 ... ... ... : ... .. . ... ... ... : ... .. . ... ... ... : C#2 06 . P7F ... ... : ... .. . ... ... ... : ... .. . ... ... ... : ... .. . ... ... ... : ... .. . ... ... ... : ... .. . ... ... ... : ... .. . ... ... ...
ROW 41 : ... .. . ... ... ... : ... .. . ... ... ... : ... .. . ... ... ... : ... .. 1 ... ... ... : ... .. . ... ... ... : D-2 08 . ... ... ... : D-2 08 . P81 ... ... : ... .. . ... ... ... : D-2 08 9 ... ... ... : D-3 08 1 ... ... ... : ... .. . ... ... ... : ... .. . ... ... ... : ... .. . ... ... ...
ROW 42 : ... .. . ... ... ... : ... .. . ... ... ... : ... .. . ... ... ... : ... .. . ... ... ... : ... .. . ... ... ... : ... .. . ... ... ... : ... .. . P80 ... ... : ... .. . ... ... ... : ... .. . ... ... ... : ... .. . ... ... ... : ... .. . ... ... ... : ... .. . ... ... ... : ... .. . ... ... ...
ROW 43 : ... .. . ... ... ... : ... .. . ... ... ... : ... .. . ... ... ... : --- .. . ... ... ... : ... .. . ... ... ... : ... .. . ... ... ... : ... .. . P81 ... ... : ... .. . ... ... ... : ... .. . ... ... ... : ... .. . ... ... ... : ... .. . ... ... ... : ... .. . ... ... ... : ... .. . ... ... ...
ROW 44 : ... .. . ... ... ... : ... .. . ... ... ... : ... .. . ... ... ... : D-# 00 A ... ... ... : ... .. . ... ... ... : D-2 09 . ... ... ... : C#2 09 . P7F ... ... : ... .. . ... ... ... : D-2 09 . ... ... ... : D-3 09 . ... ... ... : ... .. . ... ... ... : ... .. . ... ... ... : ... .. . ... ... ...
ROW 45 : ... .. . ... ... ... : ... .. . ... ... ... : ... .. . ... ... ... : E-# 00 4 ... ... ... : ... .. . ... ... ... : ... .. . ... ... ... : D-2 09 . P82 ... ... : ... .. . ... ... ... : ... .. . ... ... ... : --- .. . ... ... ... : ... .. . ... ... ... : ... .. . ... ... ... : ... .. . ... ... ...
ROW 46 : ... .. . ... ... ... : ... .. . ... ... ... : ... .. . ... ... ... : D-# 00 2 ... ... ... : ... .. . ... ... ... : ... .. . ... ... ... : ... .. . P81 ... ... : ... .. . ... ... ... : ... .. . ... ... ... : ... .. . P80 ... ... : ... .. . ... ... ... : ... .. . ... ... ... : ... .. . ... ... ...
ROW 47 : ... .. . ... ... ... : ... .. . ... ... ... : ... .. . ... ... ... : ... .. 1 ... ... ... : ... .. . ... ... ... : D-2 07 . ... ... ... : D-2 07 . ... ... ... : ... .. . ... ... ... : D-2 07 . ... ... ... : ... .. . ... ... ... : ... .. . ... ... ... : ... .. . ... ... ... : ... .. . ... ... ...
ROW 48 : ... .. . ... ... ... : ... .. . ... ... ... : ... .. . ... ... ... : ... .. . ... ... ... : ... .. . ... ... ... : ... .. . ... ... ... : ... .. . P82 ... ... : ... .. . ... ... ... : ... .. . ... ... ... : ... .. . ... ... ... : ... .. . ... ... ... : ... .. . ... ... ... : ... .. . ... ... ...
ROW 49 : ... .. . ... ... ... : ... .. . ... ... ... : ... .. . ... ... ... : --- .. . ... ... ... : ... .. . ... ... ... : ... .. . ... ... ... : ... .. . ... ... ... : ... .. . ... ... ... : ... .. 8 ... ... ... : ... .. . ... ... ... : ... .. . ... ... ... : ... .. . ... ... ... : ... .. . ... ... ...
ROW 4A : ... .. . ... ... ... : ... .. . ... ... ... : ... .. . ... ... ... : ... .. . ... ... ... : ... .. . ... ... ... : ... .. . ... ... ... : ... .. . P81 ... ... : ... .. . ... ... ... : ... .. . ... ... ... : ... .. . ... ... ... : ... .. . ... ... ... : ... .. . ... ... ... : ... .. . ... ... ...
ROW 4B : ... .. . ... ... ... : C-4 02 . P80 ... ... : F#3 00 . P78 ... ... : 1-# 00 F ... ... ... : C-1 12 . ... ... ... : C#2 06 . ... ... ... : C#2 06 . P80 ... ... : ... .. . ... ... ... : C#2 06 . ... ... ... : ... .. . ... ... ... : ... .. . ... ... ... : ... .. . ... ... ... : ... .. . ... ... ...
ROW 4C : ... .. . ... ... ... : F-3 02 . ... ... ... : C#3 00 . P7E ... ... : 2-# 00 7 ... ... ... : ... .. . ... ... ... : ... .. . ... ... ... : ... .. . P81 ... ... : ... .. . ... ... ... : ... .. . ... ... ... : ... .. . ... ... ... : ... .. . ... ... ... : ... .. . ... ... ... : ... .. . ... ... ...
ROW 4D : ... .. . ... ... ... : A#2 02 . P81 ... ... : A-2 00 . P86 ... ... : 1-# 00 4 ... ... ... : ... .. . ... ... ... : ... .. . ... ... ... : C-2 06 . P7F ... ... : ... .. . ... ... ... : ... .. . ... ... ... : ... .. . ... ... ... : ... .. . ... ... ... : ... .. . ... ... ... : ... .. . ... ... ...
ROW 4E : ... .. . ... ... ... : D#2 02 . ... ... ... : --- .. . ... ... ... : ... .. 2 ... ... ... : ... .. . ... ... ... : C#2 09 . ... ... ... : C#2 09 . P81 ... ... : ... .. . ... ... ... : C#2 09 . ... ... ... : ... .. . ... ... ... : ... .. . ... ... ... : ... .. . ... ... ... : ... .. . ... ... ...
ROW 4F : ... .. . ... ... ... : G#1 02 . ... ... ... : ... .. . ... ... ... : ... .. 1 ... ... ... : ... .. . ... ... ... : ... .. . ... ... ... : ... .. . P80 ... ... : ... .. . ... ... ... : ... .. . ... ... ... : ... .. . ... ... ... : ... .. . ... ... ... : ... .. . ... ... ... : ... .. . ... ... ...
ROW 50 : ... .. . ... ... ... : C#1 02 . ... ... ... : ... .. . ... ... ... : --- .. . ... ... ... : ... .. . ... ... ... : ... .. . ... ... ... : ... .. . P81 ... ... : ... .. . ... ... ... : ... .. . ... ... ... : ... .. . ... ... ... : ... .. . ... ... ... : ... .. . ... ... ... : ... .. . ... ... ...
ROW 51 : ... .. . ... ... ... : ... .. . ... ... ... : ... .. . ... ... ... : ... .. . ... ... ... : ... .. . ... ... ... : C#2 06 . ... ... ... : C-2 06 . P7F ... ... : ... .. . ... ... ... : C#2 06 7 ... ... ... : ... .. . ... ... ... : ... .. . ... ... ... : ... .. . ... ... ... : ... .. . ... ... ...
ROW 52 : ... .. . ... ... ... : ... .. . ... ... ... : ... .. . ... ... ... : ... .. . ... ... ... : ... .. . ... ... ... : ... .. . ... ... ... : C#2 06 . P81 ... ... : ... .. . ... ... ... : ... .. . ... ... ... : ... .. . ... ... ... : ... .. . ... ... ... : ... .. . ... ... ... : ... .. . ... ... ...
ROW 53 : ... .. . ... ... ... : ... .. . ... ... ... : ... .. . ... ... ... : ... .. . ... ... ... : ... .. . ... ... ... : ... .. . ... ... ... : ... .. . P80 ... ... : ... .. . ... ... ... : ... .. . ... ... ... : ... .. . ... ... ... : ... .. . ... ... ... : ... .. . ... ... ... : ... .. . ... ... ...
ROW 54 : ... .. . ... ... ... : ... .. . ... ... ... : ... .. . ... ... ... : ... .. . ... ... ... : ... .. . ... ... ... : C#2 09 . ... ... ... : C#2 09 . P81 ... ... : ... .. . ... ... ... : C#2 09 . ... ... ... : ... .. . ... ... ... : ... .. . ... ... ... : ... .. . ... ... ... : ... .. . ... ... ...
ROW 55 : ... .. . ... ... ... : ... .. . ... ... ... : ... .. . ... ... ... : ... .. . ... ... ... : ... .. . ... ... ... : ... .. . ... ... ... : C-2 09 . P7F ... ... : ... .. . ... ... ... : ... .. . ... ... ... : ... .. . ... ... ... : ... .. . ... ... ... : ... .. . ... ... ... : ... .. . ... ... ...
ROW 56 : ... .. . ... ... ... : ... .. . ... ... ... : ... .. . ... ... ... : ... .. . ... ... ... : ... .. . ... ... ... : ... .. . ... ... ... : C#2 09 . P82 ... ... : ... .. . ... ... ... : ... .. . ... ... ... : ... .. . ... ... ... : ... .. . ... ... ... : ... .. . ... ... ... : ... .. . ... ... ...
ROW 57 : ... .. . ... ... ... : ... .. . ... ... ... : ... .. . ... ... ... : D-# 00 A ... ... ... : ... .. . ... ... ... : C#2 06 . ... ... ... : C#2 06 . P81 ... ... : ... .. . ... ... ... : C#2 06 . ... ... ... : ... .. . ... ... ... : ... .. . ... ... ... : ... .. . ... ... ... : ... .. . ... ... ...
ROW 58 : ... .. . ... ... ... : ... .. . ... ... ... : ... .. . ... ... ... : E-# 00 4 ... ... ... : ... .. . ... ... ... : ... .. . ... ... ... : ... .. . ... ... ... : ... .. . ... ... ... : ... .. . ... ... ... : ... .. . ... ... ... : ... .. . ... ... ... : ... .. . ... ... ... : ... .. . ... ... ...
ROW 59 : ... .. . ... ... ... : ... .. . ... ... ... : ... .. . ... ... ... : D-# 00 2 ... ... ... : ... .. . ... ... ... : ... .. . ... ... ... : ... .. . P82 ... ... : ... .. . ... ... ... : ... .. 6 ... ... ... : ... .. . ... ... ... : ... .. . ... ... ... : ... .. . ... ... ... : ... .. . ... ... ...
ROW 5A : ... .. . ... ... ... : ... .. . ... ... ... : ... .. . ... ... ... : ... .. 1 ... ... ... : ... .. . ... ... ... : C#2 09 . ... ... ... : C-2 09 . P7F ... ... : ... .. . ... ... ... : C#2 09 . ... ... ... : ... .. . ... ... ... : ... .. . ... ... ... : ... .. . ... ... ... : ... .. . ... ... ...
ROW 5B : ... .. . ... ... ... : ... .. . ... ... ... : ... .. . ... ... ... : ... .. . ... ... ... : ... .. . ... ... ... : ... .. . ... ... ... : C#2 09 . P81 ... ... : ... .. . ... ... ... : ... .. . ... ... ... : ... .. . ... ... ... : ... .. . ... ... ... : ... .. . ... ... ... : ... .. . ... ... ...
ROW 5C : ... .. . ... ... ... : ... .. . ... ... ... : ... .. . ... ... ... : --- .. . ... ... ... : ... .. . ... ... ... : ... .. . ... ... ... : ... .. . P80 ... ... : ... .. . ... ... ... : ... .. . ... ... ... : ... .. . ... ... ... : ... .. . ... ... ... : ... .. . ... ... ... : ... .. . ... ... ...
ROW 5D : ... .. . ... ... ... : ... .. . ... ... ... : ... .. . ... ... ... : D-# 00 A ... ... ... : ... .. . ... ... ... : C#2 06 . ... ... ... : C#2 06 . P81 ... ... : ... .. . ... ... ... : C#2 06 . ... ... ... : ... .. . ... ... ... : ... .. . ... ... ... : ... .. . ... ... ... : ... .. . ... ... ...
ROW 5E : ... .. . ... ... ... : ... .. . ... ... ... : ... .. . ... ... ... : E-# 00 4 ... ... ... : ... .. . ... ... ... : ... .. . ... ... ... : C-2 06 . P7F ... ... : ... .. . ... ... ... : ... .. . ... ... ... : ... .. . ... ... ... : ... .. . ... ... ... : ... .. . ... ... ... : ... .. . ... ... ...
ROW 5F : ... .. . ... ... ... : ... .. . ... ... ... : ... .. . ... ... ... : D-# 00 2 ... ... ... : ... .. . ... ... ... : ... .. . ... ... ... : C#2 06 . P81 ... ... : ... .. . ... ... ... : ... .. . ... ... ... : ... .. . ... ... ... : ... .. . ... ... ... : ... .. . ... ... ... : ... .. . ... ... ...
ROW 60 : ... .. . ... ... ... : ... .. . ... ... ... : ... .. . ... ... ... : ... .. 1 ... ... ... : ... .. . ... ... ... : C#2 09 . ... ... ... : C#2 09 . P80 ... ... : ... .. . ... ... ... : C#2 09 . ... ... ... : ... .. . ... ... ... : ... .. . ... ... ... : ... .. . ... ... ... : ... .. . ... ... ...
ROW 61 : ... .. . ... ... ... : ... .. . ... ... ... : ... .. . ... ... ... : ... .. . ... ... ... : ... .. . ... ... ... : ... .. . ... ... ... : ... .. . P81 ... ... : ... .. . ... ... ... : ... .. 5 ... ... ... : ... .. . ... ... ... : ... .. . ... ... ... : ... .. . ... ... ... : ... .. . ... ... ...
ROW 62 : ... .. . ... ... ... : ... .. . ... ... ... : ... .. . ... ... ... : --- .. . ... ... ... : ... .. . ... ... ... : ... .. . ... ... ... : C-2 09 . P7F ... ... : ... .. . ... ... ... : ... .. . ... ... ... : ... .. . ... ... ... : ... .. . ... ... ... : ... .. . ... ... ... : ... .. . ... ... ...
ROW 63 : ... .. . ... ... ... : ... .. . ... ... ... : ... .. . ... ... ... : ... .. . ... ... ... : ... .. . ... ... ... : ... .. . ... ... ... : C#2 09 . P81 ... ... : ... .. . ... ... ... : ... .. . ... ... ... : ... .. . ... ... ... : ... .. . ... ... ... : ... .. . ... ... ... : ... .. . ... ... ...
ROW 64 : ... .. . ... ... ... : C-4 02 . P80 ... ... : C#4 00 . P7F ... ... : 9-# 00 F ... ... ... : C#1 12 . ... ... ... : F#1 06 . ... ... ... : F#1 06 . P80 ... ... : ... .. . ... ... ... : F#1 06 . ... ... ... : ... .. . ... ... ... : ... .. . ... ... ... : ... .. . ... ... ... : ... .. . ... ... ...
ROW 65 : ... .. . ... ... ... : F-3 02 . ... ... ... : F#3 00 . P83 ... ... : 2-# 00 7 ... ... ... : ... .. . ... ... ... : ... .. . ... ... ... : ... .. . P81 ... ... : ... .. . ... ... ... : ... .. . ... ... ... : ... .. . ... ... ... : ... .. . ... ... ... : ... .. . ... ... ... : ... .. . ... ... ...
ROW 66 : ... .. . ... ... ... : A#2 02 . P81 ... ... : C#3 00 . P89 ... ... : 6-# 00 C ... ... ... : ... .. . ... ... ... : ... .. . ... ... ... : F-1 06 . P80 ... ... : ... .. . ... ... ... : ... .. . ... ... ... : ... .. . ... ... ... : ... .. . ... ... ... : ... .. . ... ... ... : ... .. . ... ... ...
ROW 67 : ... .. . ... ... ... : D#2 02 . ... ... ... : A#2 00 . P75 ... ... : 7-# 00 8 ... ... ... : ... .. . ... ... ... : ... .. . ... ... ... : ... .. . ... ... ... : ... .. . ... ... ... : ... .. . ... ... ... : ... .. . ... ... ... : ... .. . ... ... ... : ... .. . ... ... ... : ... .. . ... ... ...
ROW 68 : ... .. . ... ... ... : G#1 02 . ... ... ... : G-2 00 . P70 ... ... : 8-# 00 7 ... ... ... : ... .. . ... ... ... : ... .. . ... ... ... : F#1 06 . P81 ... ... : ... .. . ... ... ... : ... .. . ... ... ... : ... .. . ... ... ... : ... .. . ... ... ... : ... .. . ... ... ... : ... .. . ... ... ...
ROW 69 : ... .. . ... ... ... : C#1 02 . ... ... ... : E-2 00 . P7C ... ... : ... .. 6 ... ... ... : ... .. . ... ... ... : ... .. . ... ... ... : ... .. . ... ... ... : ... .. . ... ... ... : ... .. 4 ... ... ... : ... .. . ... ... ... : ... .. . ... ... ... : ... .. . ... ... ... : ... .. . ... ... ...
ROW 6A : ... .. . ... ... ... : ... .. . ... ... ... : --- .. . ... ... ... : ... .. . ... ... ... : ... .. . ... ... ... : F#1 07 . ... ... ... : F-1 07 . P80 ... ... : ... .. . ... ... ... : F#1 07 . ... ... ... : ... .. . ... ... ... : ... .. . ... ... ... : ... .. . ... ... ... : ... .. . ... ... ...
ROW 6B : ... .. . ... ... ... : ... .. . ... ... ... : ... .. . ... ... ... : ... .. 5 ... ... ... : ... .. . ... ... ... : ... .. . ... ... ... : ... .. . ... ... ... : ... .. . ... ... ... : ... .. . ... ... ... : ... .. . ... ... ... : ... .. . ... ... ... : ... .. . ... ... ... : ... .. . ... ... ...
ROW 6C : ... .. . ... ... ... : ... .. . ... ... ... : ... .. . ... ... ... : ... .. . ... ... ... : ... .. . ... ... ... : ... .. . ... ... ... : F#1 07 . P81 ... ... : ... .. . ... ... ... : ... .. . ... ... ... : ... .. . ... ... ... : ... .. . ... ... ... : ... .. . ... ... ... : ... .. . ... ... ...
ROW 6D : ... .. . ... ... ... : ... .. . ... ... ... : ... .. . ... ... ... : ... .. 4 ... ... ... : ... .. . ... ... ... : F-1 07 . ... ... ... : F-1 07 . P80 ... ... : ... .. . ... ... ... : ... .. . P81 ... ... : ... .. . ... ... ... : ... .. . ... ... ... : ... .. . ... ... ... : ... .. . ... ... ...
ROW 6E : ... .. . ... ... ... : ... .. . ... ... ... : ... .. . ... ... ... : ... .. . ... ... ... : ... .. . ... ... ... : E-1 07 . ... ... ... : E-1 07 . P81 ... ... : ... .. . ... ... ... : F-1 07 . ... ... ... : ... .. . ... ... ... : ... .. . ... ... ... : ... .. . ... ... ... : ... .. . ... ... ...
ROW 6F : ... .. . ... ... ... : ... .. . ... ... ... : ... .. . ... ... ... : ... .. 3 ... ... ... : ... .. . ... ... ... : D#1 07 . ... ... ... : D-1 07 . ... ... ... : ... .. . ... ... ... : E-1 07 . ... ... ... : ... .. . ... ... ... : ... .. . ... ... ... : ... .. . ... ... ... : ... .. . ... ... ...
ROW 70 : ... .. . ... ... ... : ... .. . ... ... ... : ... .. . ... ... ... : 6-# 01 F ... ... ... : ... .. . ... ... ... : D-1 08 . P81 ... ... : C#1 08 . P80 ... ... : ... .. . ... ... ... : D-1 08 . P80 ... ... : ... .. . ... ... ... : ... .. . ... ... ... : ... .. . ... ... ... : ... .. . ... ... ...
ROW 71 : ... .. . ... ... ... : ... .. . ... ... ... : ... .. . ... ... ... : ... .. 9 ... ... ... : ... .. . ... ... ... : C#1 08 . ... ... ... : ... .. . P81 ... ... : ... .. . ... ... ... : C#1 08 3 ... ... ... : ... .. . ... ... ... : ... .. . ... ... ... : ... .. . ... ... ... : ... .. . ... ... ...
ROW 72 : ... .. . ... ... ... : ... .. . ... ... ... : ... .. . ... ... ... : ... .. 4 ... ... ... : ... .. . ... ... ... : B-0 08 . P80 ... ... : B-0 08 . ... ... ... : ... .. . ... ... ... : C-1 08 . ... ... ... : ... .. . ... ... ... : ... .. . ... ... ... : ... .. . ... ... ... : ... .. . ... ... ...
ROW 73 : ... .. . ... ... ... : ... .. . ... ... ... : ... .. . ... ... ... : ... .. 7 ... ... ... : ... .. . ... ... ... : A#0 08 . ... ... ... : A-0 08 . ... ... ... : ... .. . ... ... ... : B-0 08 . P81 ... ... : ... .. . ... ... ... : ... .. . ... ... ... : ... .. . ... ... ... : ... .. . ... ... ...
ROW 74 : ... .. . ... ... ... : ... .. . ... ... ... : ... .. . ... ... ... : ... .. 5 ... ... ... : ... .. . ... ... ... : A-0 08 . P81 ... ... : G#0 08 . ... ... ... : ... .. . ... ... ... : A-0 08 . P80 ... ... : ... .. . ... ... ... : ... .. . ... ... ... : ... .. . ... ... ... : ... .. . ... ... ...
ROW 75 : ... .. . ... ... ... : ... .. . ... ... ... : ... .. . ... ... ... : ... .. . ... ... ... : ... .. . ... ... ... : G-0 08 . ... ... ... : G-0 08 . ... ... ... : ... .. . ... ... ... : G#0 08 . P81 ... ... : ... .. . ... ... ... : ... .. . ... ... ... : ... .. . ... ... ... : ... .. . ... ... ...
ROW 76 : ... .. . ... ... ... : ... .. . ... ... ... : ... .. . ... ... ... : ... .. 4 ... ... ... : ... .. . ... ... ... : F-0 09 . P80 ... ... : F-0 09 . ... ... ... : ... .. . ... ... ... : F#0 09 . P80 ... ... : ... .. . ... ... ... : ... .. . ... ... ... : ... .. . ... ... ... : ... .. . ... ... ...
ROW 77 : ... .. . ... ... ... : ... .. . ... ... ... : ... .. . ... ... ... : ... .. . ... ... ... : ... .. . ... ... ... : D#0 09 . ... ... ... : C#0 09 . P80 ... ... : ... .. . ... ... ... : E-0 09 . ... ... ... : ... .. . ... ... ... : ... .. . ... ... ... : ... .. . ... ... ... : ... .. . ... ... ...
ROW 78 : ... .. . ... ... ... : ... .. . ... ... ... : ... .. . ... ... ... : ... .. 3 ... ... ... : ... .. . ... ... ... : C#0 09 . P81 ... ... : C-0 09 . P81 ... ... : ... .. . ... ... ... : D-0 09 . ... ... ... : ... .. . ... ... ... : ... .. . ... ... ... : ... .. . ... ... ... : ... .. . ... ... ...
ROW 79 : ... .. . ... ... ... : ... .. . ... ... ... : ... .. . ... ... ... : ... .. 2 ... ... ... : ... .. . ... ... ... : C-0 09 . P82 ... ... : ... .. . P82 ... ... : ... .. . ... ... ... : C-0 09 2 P81 ... ... : ... .. . ... ... ... : ... .. . ... ... ... : ... .. . ... ... ... : ... .. . ... ... ...
ROW 7A : ... .. . ... ... ... : ... .. . ... ... ... : ... .. . ... ... ... : ... .. . ... ... ... : ... .. . ... ... ... : ... .. . P84 ... ... : ... .. . P84 ... ... : ... .. . ... ... ... : ... .. . P83 ... ... : ... .. . ... ... ... : ... .. . ... ... ... : ... .. . ... ... ... : ... .. . ... ... ...
ROW 7B : ... .. . ... ... ... : ... .. . ... ... ... : ... .. . ... ... ... : ... .. 1 ... ... ... : ... .. . ... ... ... : ... .. . P86 ... ... : ... .. . P87 ... ... : ... .. . ... ... ... : ... .. . P85 ... ... : ... .. . ... ... ... : ... .. . ... ... ... : ... .. . ... ... ... : ... .. . ... ... ...
ROW 7C : ... .. . ... ... ... : ... .. . ... ... ... : ... .. . ... ... ... : ... .. . ... ... ... : ... .. . ... ... ... : --- .. . P7A ... ... : --- .. . P7C ... ... : ... .. . ... ... ... : ... .. . P87 ... ... : ... .. . ... ... ... : ... .. . ... ... ... : ... .. . ... ... ... : ... .. . ... ... ...
ROW 7D : ... .. . ... ... ... : C-4 02 . P80 ... ... : F#3 00 . P78 ... ... : 1-# 00 F ... ... ... : C-1 12 . ... ... ... : G-4 04 A P78 ... ... : A-4 04 A P81 ... ... : ... .. . ... ... ... : F#4 04 9 P89 ... ... : G-4 04 9 P81 ... ... : ... .. . ... ... ... : ... .. . ... ... ... : ... .. . ... ... ...
ROW 7E : ... .. . ... ... ... : F-3 02 . ... ... ... : C#3 00 . P7E ... ... : 2-# 00 7 ... ... ... : ... .. . ... ... ... : G#4 04 . P84 ... ... : ... .. . P80 ... ... : ... .. . ... ... ... : ... .. . P81 ... ... : ... .. . ... ... ... : ... .. . ... ... ... : ... .. . ... ... ... : ... .. . ... ... ...
ROW 7F : ... .. . ... ... ... : A#2 02 . P81 ... ... : A-2 00 . P86 ... ... : 1-# 00 4 ... ... ... : ... .. . ... ... ... : ... .. . P7C ... ... : ... .. . P81 ... ... : ... .. . ... ... ... : ... .. . P79 ... ... : ... .. . ... ... ... : ... .. . ... ... ... : ... .. . ... ... ... : ... .. . ... ... ...
ROW 80 : ... .. . ... ... ... : D#2 02 . ... ... ... : --- .. . ... ... ... : ... .. 2 ... ... ... : ... .. . ... ... ... : --- .. . ... ... ... : --- .. . ... ... ... : ... .. . ... ... ... : --- .. . ... ... ... : --- .. . ... ... ... : ... .. . ... ... ... : ... .. . ... ... ... : ... .. . ... ... ...
ROW 81 : ... .. . ... ... ... : G#1 02 . ... ... ... : ... .. . ... ... ... : ... .. 1 ... ... ... : ... .. . ... ... ... : ... .. . P80 ... ... : ... .. . P80 ... ... : ... .. . ... ... ... : ... .. . P80 ... ... : ... .. . P80 ... ... : ... .. . ... ... ... : ... .. . ... ... ... : ... .. . ... ... ...
ROW 82 : ... .. . ... ... ... : C#1 02 . ... ... ... : ... .. . ... ... ... : --- .. . ... ... ... : ... .. . ... ... ... : ... .. . ... ... ... : ... .. . ... ... ... : ... .. . ... ... ... : ... .. . ... ... ... : ... .. . ... ... ... : ... .. . ... ... ... : ... .. . ... ... ... : ... .. . ... ... ...
ROW 83 : ... .. . ... ... ... : ... .. . ... ... ... : ... .. . ... ... ... : 1-# 00 F ... ... ... : C-1 12 . ... ... ... : A-4 04 . P7A ... ... : A-4 04 . P83 ... ... : ... .. . ... ... ... : G#4 04 . P88 ... ... : G-4 04 . P83 ... ... : ... .. . ... ... ... : ... .. . ... ... ... : ... .. . ... ... ...
ROW 84 : ... .. . ... ... ... : ... .. . ... ... ... : ... .. . ... ... ... : 2-# 00 7 ... ... ... : ... .. . ... ... ... : ... .. . P7C ... ... : ... .. . P86 ... ... : ... .. . ... ... ... : ... .. . P8A ... ... : ... .. . P85 ... ... : ... .. . ... ... ... : ... .. . ... ... ... : ... .. . ... ... ...
ROW 85 : ... .. . ... ... ... : ... .. . ... ... ... : ... .. . ... ... ... : 1-# 00 4 ... ... ... : ... .. . ... ... ... : ... .. . P7E ... ... : ... .. . P88 ... ... : ... .. . ... ... ... : G-4 04 . P79 ... ... : ... .. . P87 ... ... : ... .. . ... ... ... : ... .. . ... ... ... : ... .. . ... ... ...
ROW 86 : ... .. . ... ... ... : ... .. . ... ... ... : ... .. . ... ... ... : ... .. 2 ... ... ... : ... .. . ... ... ... : --- .. . ... ... ... : --- .. . ... ... ... : ... .. . ... ... ... : --- .. . ... ... ... : --- .. . ... ... ... : ... .. . ... ... ... : ... .. . ... ... ... : ... .. . ... ... ...
ROW 87 : ... .. . ... ... ... : ... .. . ... ... ... : ... .. . ... ... ... : ... .. 1 ... ... ... : ... .. . ... ... ... : ... .. . P80 ... ... : ... .. . P80 ... ... : ... .. . ... ... ... : ... .. . P80 ... ... : ... .. . P80 ... ... : ... .. . ... ... ... : ... .. . ... ... ... : ... .. . ... ... ...
ROW 88 : ... .. . ... ... ... : ... .. . ... ... ... : ... .. . ... ... ... : --- .. . ... ... ... : ... .. . ... ... ... : ... .. . ... ... ... : ... .. . ... ... ... : ... .. . ... ... ... : ... .. . ... ... ... : ... .. . ... ... ... : ... .. . ... ... ... : ... .. . ... ... ... : ... .. . ... ... ...
ROW 89 : ... .. . ... ... ... : ... .. . ... ... ... : ... .. . ... ... ... : A-# 00 F ... ... ... : C-1 12 . ... ... ... : G#4 04 . P7E ... ... : G#4 04 . P88 ... ... : ... .. . ... ... ... : F#4 04 . P7B ... ... : F-4 04 . P78 ... ... : ... .. . ... ... ... : ... .. . ... ... ... : ... .. . ... ... ...
ROW 8A : ... .. . ... ... ... : ... .. . ... ... ... : ... .. . ... ... ... : 6-# 00 9 ... ... ... : ... .. . ... ... ... : G-4 04 . P78 ... ... : G-4 04 . P81 ... ... : ... .. . ... ... ... : ... .. . P89 ... ... : ... .. . P86 ... ... : ... .. . ... ... ... : ... .. . ... ... ... : ... .. . ... ... ...
ROW 8B : ... .. . ... ... ... : ... .. . ... ... ... : ... .. . ... ... ... : 7-# 00 C ... ... ... : ... .. . ... ... ... : ... .. . P86 ... ... : F#4 04 . P7D ... ... : ... .. . ... ... ... : F-4 04 . P85 ... ... : E-4 04 . P84 ... ... : ... .. . ... ... ... : ... .. . ... ... ... : ... .. . ... ... ...
ROW 8C : ... .. . ... ... ... : ... .. . ... ... ... : ... .. . ... ... ... : ... .. 8 ... ... ... : ... .. . ... ... ... : F#4 04 . P82 ... ... : F-4 04 . P7B ... ... : ... .. . ... ... ... : E-4 04 . P83 ... ... : D#4 04 . P83 ... ... : ... .. . ... ... ... : ... .. . ... ... ... : ... .. . ... ... ...
ROW 8D : ... .. . ... ... ... : ... .. . ... ... ... : ... .. . ... ... ... : 8-# 00 7 ... ... ... : ... .. . ... ... ... : F-4 04 . P7F ... ... : E-4 04 . P7A ... ... : ... .. . ... ... ... : D#4 04 . P82 ... ... : D-4 04 8 P82 ... ... : ... .. . ... ... ... : ... .. . ... ... ... : ... .. . ... ... ...
ROW 8E : ... .. . ... ... ... : ... .. . ... ... ... : ... .. . ... ... ... : ... .. 8 ... ... ... : ... .. . ... ... ... : E-4 04 . P7D ... ... : ... .. . P87 ... ... : ... .. . ... ... ... : D-4 04 . ... ... ... : C#4 04 . P83 ... ... : ... .. . ... ... ... : ... .. . ... ... ... : ... .. . ... ... ...
ROW 8F : ... .. . ... ... ... : ... .. . ... ... ... : ... .. . ... ... ... : 9-# 00 7 ... ... ... : ... .. . ... ... ... : D#4 04 . P7C ... ... : D#4 04 . P84 ... ... : ... .. . ... ... ... : C#4 04 . ... ... ... : C-4 04 . P84 ... ... : ... .. . ... ... ... : ... .. . ... ... ... : ... .. . ... ... ...
ROW 90 : ... .. . ... ... ... : ... .. . ... ... ... : ... .. . ... ... ... : ... .. 6 ... ... ... : ... .. . ... ... ... : D-4 04 . P7B ... ... : D-4 04 . P85 ... ... : ... .. . ... ... ... : C-4 04 . P83 ... ... : B-3 04 . P86 ... ... : ... .. . ... ... ... : ... .. . ... ... ... : ... .. . ... ... ...
ROW 91 : ... .. . ... ... ... : ... .. . ... ... ... : ... .. . ... ... ... : ... .. 5 ... ... ... : ... .. . ... ... ... : C#4 04 . P7C ... ... : C#4 04 . P86 ... ... : ... .. . ... ... ... : B-3 04 8 P85 ... ... : A-3 04 7 P7E ... ... : ... .. . ... ... ... : ... .. . ... ... ... : ... .. . ... ... ...
ROW 92 : ... .. . ... ... ... : ... .. . ... ... ... : ... .. . ... ... ... : ... .. . ... ... ... : ... .. . ... ... ... : C-4 04 . P7D ... ... : C-4 04 . P87 ... ... : ... .. . ... ... ... : A-3 04 . P7D ... ... : G#3 04 . P82 ... ... : ... .. . ... ... ... : ... .. . ... ... ... : ... .. . ... ... ...
ROW 93 : ... .. . ... ... ... : ... .. . ... ... ... : ... .. . ... ... ... : ... .. . ... ... ... : ... .. . ... ... ... : B-3 04 . P7F ... ... : A#3 04 . P7C ... ... : ... .. . ... ... ... : G#3 04 . P81 ... ... : F#3 04 . P7D ... ... : ... .. . ... ... ... : ... .. . ... ... ... : ... .. . ... ... ...
ROW 94 : ... .. . ... ... ... : ... .. . ... ... ... : ... .. . ... ... ... : ... .. . ... ... ... : ... .. . ... ... ... : A#3 04 . P82 ... ... : A-3 04 . P80 ... ... : ... .. . ... ... ... : F#3 04 . P7C ... ... : F-3 04 . P82 ... ... : ... .. . ... ... ... : ... .. . ... ... ... : ... .. . ... ... ...
ROW 95 : ... .. . ... ... ... : ... .. . ... ... ... : ... .. . ... ... ... : ... .. . ... ... ... : ... .. . ... ... ... : A-3 04 . P85 ... ... : G#3 04 . P85 ... ... : ... .. . ... ... ... : F-3 04 . P82 ... ... : D#3 04 6 P81 ... ... : ... .. . ... ... ... : ... .. . ... ... ... : ... .. . ... ... ...
ROW 96 : ... .. . ... ... ... : C-4 02 . P80 ... ... : C#4 00 . P7F ... ... : ... .. F ... ... ... : C#1 12 . ... ... ... : G#1 04 F P80 ... ... : F#3 04 . P80 ... ... : G-1 04 9 ... ... ... : A-1 04 9 ... ... ... : C#3 04 . ... ... ... : ... .. . ... ... ... : ... .. . ... ... ... : ... .. . ... ... ...
ROW 97 : ... .. . ... ... ... : F-3 02 . ... ... ... : F#3 00 . P83 ... ... : 2-# 00 7 ... ... ... : ... .. . ... ... ... : ... .. . ... ... ... : F-3 04 . P84 ... ... : ... .. . ... ... ... : ... .. . ... ... ... : B-2 04 . P82 ... ... : ... .. . ... ... ... : ... .. . ... ... ... : ... .. . ... ... ...
ROW 98 : ... .. . ... ... ... : A#2 02 . P81 ... ... : C#3 00 . P89 ... ... : 6-# 00 C ... ... ... : ... .. . ... ... ... : ... .. . ... ... ... : D#3 04 . P83 ... ... : ... .. . ... ... ... : ... .. . ... ... ... : G#2 04 . P80 ... ... : ... .. . ... ... ... : ... .. . ... ... ... : ... .. . ... ... ...
ROW 99 : ... .. . ... ... ... : D#2 02 . ... ... ... : A#2 00 . P75 ... ... : 7-# 00 8 ... ... ... : ... .. . ... ... ... : ... .. . ... ... ... : C#3 04 . P84 ... ... : ... .. . ... ... ... : ... .. . ... ... ... : F-2 04 5 ... ... ... : ... .. . ... ... ... : ... .. . ... ... ... : ... .. . ... ... ...
ROW 9A : ... .. . ... ... ... : G#1 02 . ... ... ... : G-2 00 . P70 ... ... : 8-# 00 7 ... ... ... : ... .. . ... ... ... : ... .. . ... ... ... : A#2 04 . P80 ... ... : ... .. 8 ... ... ... : ... .. . ... ... ... : C#2 04 . ... ... ... : ... .. . ... ... ... : ... .. . ... ... ... : ... .. . ... ... ...
ROW 9B : ... .. . ... ... ... : C#1 02 . ... ... ... : E-2 00 . P7C ... ... : ... .. 6 ... ... ... : ... .. . ... ... ... : ... .. . ... ... ... : G#2 04 . P83 ... ... : ... .. . ... ... ... : ... .. . ... ... ... : G#1 04 . P7F ... ... : ... .. . ... ... ... : ... .. . ... ... ... : ... .. . ... ... ...
ROW 9C : ... .. . ... ... ... : ... .. . ... ... ... : --- .. . ... ... ... : ... .. . ... ... ... : ... .. . ... ... ... : G#2 04 . ... ... ... : F-2 04 . P82 ... ... : G#2 04 . P82 ... ... : G#2 04 . P7F ... ... : D-1 04 . P81 ... ... : ... .. . ... ... ... : ... .. . ... ... ... : ... .. . ... ... ...
ROW 9D : ... .. . ... ... ... : ... .. . ... ... ... : ... .. . ... ... ... : ... .. 5 ... ... ... : ... .. . ... ... ... : ... .. . ... ... ... : C#2 04 . ... ... ... : ... .. . ... ... ... : ... .. . ... ... ... : D#0 04 4 ... ... ... : ... .. . ... ... ... : ... .. . ... ... ... : ... .. . ... ... ...
ROW 9E : ... .. . ... ... ... : ... .. . ... ... ... : ... .. . ... ... ... : ... .. . ... ... ... : ... .. . ... ... ... : ... .. . ... ... ... : G-1 04 . P80 ... ... : ... .. 7 ... ... ... : ... .. 8 ... ... ... : --- .. . P7F ... ... : ... .. . ... ... ... : ... .. . ... ... ... : ... .. . ... ... ...
ROW 9F : ... .. . ... ... ... : ... .. . ... ... ... : ... .. . ... ... ... : ... .. 4 ... ... ... : ... .. . ... ... ... : ... .. . ... ... ... : C-1 04 . ... ... ... : ... .. . ... ... ... : ... .. . ... ... ... : D#7 04 . P81 ... ... : ... .. . ... ... ... : ... .. . ... ... ... : ... .. . ... ... ...
ROW A0 : ... .. . ... ... ... : ... .. . ... ... ... : ... .. . ... ... ... : ... .. . ... ... ... : ... .. . ... ... ... : ... .. . ... ... ... : C#0 04 . ... ... ... : ... .. . ... ... ... : ... .. . ... ... ... : ... .. . ... ... ... : ... .. . ... ... ... : ... .. . ... ... ... : ... .. . ... ... ...
ROW A1 : ... .. . ... ... ... : ... .. . ... ... ... : ... .. . ... ... ... : ... .. 3 ... ... ... : ... .. . ... ... ... : ... .. . ... ... ... : D#7 04 . P81 ... ... : ... .. . ... ... ... : ... .. . ... ... ... : ... .. 3 ... ... ... : ... .. . ... ... ... : ... .. . ... ... ... : ... .. . ... ... ...
ROW A2 : ... .. . ... ... ... : ... .. . ... ... ... : ... .. . ... ... ... : D-# 00 A ... ... ... : ... .. . ... ... ... : C#2 04 . ... ... ... : --- .. . ... ... ... : C#2 04 6 ... ... ... : C#2 04 . ... ... ... : ... .. . ... ... ... : ... .. . ... ... ... : ... .. . ... ... ... : ... .. . ... ... ...
ROW A3 : ... .. . ... ... ... : ... .. . ... ... ... : ... .. . ... ... ... : E-# 00 4 ... ... ... : ... .. . ... ... ... : ... .. . ... ... ... : ... .. . P80 ... ... : ... .. . ... ... ... : ... .. . ... ... ... : ... .. . ... ... ... : ... .. . ... ... ... : ... .. . ... ... ... : ... .. . ... ... ...
ROW A4 : ... .. . ... ... ... : ... .. . ... ... ... : ... .. . ... ... ... : D-# 00 2 ... ... ... : ... .. . ... ... ... : ... .. . ... ... ... : ... .. . ... ... ... : ... .. . ... ... ... : ... .. . ... ... ... : ... .. . ... ... ... : ... .. . ... ... ... : ... .. . ... ... ... : ... .. . ... ... ...
ROW A5 : ... .. . ... ... ... : ... .. . ... ... ... : ... .. . ... ... ... : ... .. 1 ... ... ... : ... .. . ... ... ... : ... .. . ... ... ... : ... .. . ... ... ... : ... .. . ... ... ... : ... .. . ... ... ... : ... .. 2 ... ... ... : ... .. . ... ... ... : ... .. . ... ... ... : ... .. . ... ... ...
ROW A6 : ... .. . ... ... ... : ... .. . ... ... ... : ... .. . ... ... ... : ... .. . ... ... ... : ... .. . ... ... ... : ... .. . ... ... ... : ... .. . ... ... ... : ... .. 5 ... ... ... : ... .. 7 ... ... ... : ... .. . ... ... ... : ... .. . ... ... ... : ... .. . ... ... ... : ... .. . ... ... ...
ROW A7 : ... .. . ... ... ... : ... .. . ... ... ... : ... .. . ... ... ... : --- .. . ... ... ... : ... .. . ... ... ... : ... .. . ... ... ... : ... .. . ... ... ... : ... .. . ... ... ... : ... .. . ... ... ... : ... .. . ... ... ... : ... .. . ... ... ... : ... .. . ... ... ... : ... .. . ... ... ...
ROW A8 : ... .. . ... ... ... : ... .. . ... ... ... : ... .. . ... ... ... : D-# 00 A ... ... ... : ... .. . ... ... ... : C#3 04 . ... ... ... : ... .. . ... ... ... : C#3 04 . ... ... ... : C#3 04 . ... ... ... : --- .. . ... ... ... : ... .. . ... ... ... : ... .. . ... ... ... : ... .. . ... ... ...
ROW A9 : ... .. . ... ... ... : ... .. . ... ... ... : ... .. . ... ... ... : E-# 00 4 ... ... ... : ... .. . ... ... ... : ... .. . ... ... ... : ... .. . ... ... ... : ... .. . ... ... ... : ... .. . ... ... ... : ... .. . P80 ... ... : ... .. . ... ... ... : ... .. . ... ... ... : ... .. . ... ... ...
ROW AA : ... .. . ... ... ... : ... .. . ... ... ... : ... .. . ... ... ... : D-# 00 2 ... ... ... : ... .. . ... ... ... : ... .. . ... ... ... : ... .. . ... ... ... : ... .. 4 ... ... ... : ... .. . ... ... ... : ... .. . ... ... ... : ... .. . ... ... ... : ... .. . ... ... ... : ... .. . ... ... ...
ROW AB : ... .. . ... ... ... : ... .. . ... ... ... : ... .. . ... ... ... : ... .. 1 ... ... ... : ... .. . ... ... ... : ... .. . ... ... ... : ... .. . ... ... ... : ... .. . ... ... ... : ... .. . ... ... ... : ... .. . ... ... ... : ... .. . ... ... ... : ... .. . ... ... ... : ... .. . ... ... ...
ROW AC : ... .. . ... ... ... : ... .. . ... ... ... : ... .. . ... ... ... : ... .. . ... ... ... : ... .. . ... ... ... : ... .. . ... ... ... : ... .. . ... ... ... : ... .. . ... ... ... : ... .. . ... ... ... : ... .. . ... ... ... : ... .. . ... ... ... : ... .. . ... ... ... : ... .. . ... ... ...
ROW AD : ... .. . ... ... ... : ... .. . ... ... ... : ... .. . ... ... ... : --- .. . ... ... ... : ... .. . ... ... ... : ... .. . ... ... ... : ... .. . ... ... ... : ... .. . ... ... ... : ... .. . ... ... ... : ... .. . ... ... ... : ... .. . ... ... ... : ... .. . ... ... ... : ... .. . ... ... ...
ROW AE : ... .. . ... ... ... : ... .. . ... ... ... : ... .. . ... ... ... : ... .. . ... ... ... : ... .. . ... ... ... : ... .. . ... ... ... : ... .. . ... ... ... : ... .. 3 ... ... ... : ... .. 6 ... ... ... : ... .. . ... ... ... : ... .. . ... ... ... : ... .. . ... ... ... : ... .. . ... ... ...
ROW AF : ... .. . ... ... ... : C-4 02 . P80 ... ... : F#3 00 . P78 ... ... : 1-# 00 F ... ... ... : C-1 12 . ... ... ... : B-4 0C 7 P7C ... ... : ... .. . ... ... ... : --- .. . ... ... ... : A#3 0C 1 P85 ... ... : ... .. . ... ... ... : ... .. . ... ... ... : ... .. . ... ... ... : ... .. . ... ... ...
ROW B0 : ... .. . ... ... ... : F-3 02 . ... ... ... : C#3 00 . P7E ... ... : 2-# 00 7 ... ... ... : ... .. . ... ... ... : A#4 0C . P79 ... ... : ... .. . ... ... ... : ... .. . P80 ... ... : G-3 0C . ... ... ... : ... .. . ... ... ... : ... .. . ... ... ... : ... .. . ... ... ... : ... .. . ... ... ...
ROW B1 : ... .. . ... ... ... : A#2 02 . P81 ... ... : A-2 00 . P86 ... ... : 1-# 00 4 ... ... ... : ... .. . ... ... ... : A-4 0C . P78 ... ... : ... .. . ... ... ... : ... .. . ... ... ... : D#3 0C . P82 ... ... : ... .. . ... ... ... : ... .. . ... ... ... : ... .. . ... ... ... : ... .. . ... ... ...
ROW B2 : ... .. . ... ... ... : D#2 02 . ... ... ... : --- .. . ... ... ... : ... .. 2 ... ... ... : ... .. . ... ... ... : G#4 0C . ... ... ... : ... .. . ... ... ... : ... .. . ... ... ... : A#2 0C . P7F ... ... : ... .. . ... ... ... : ... .. . ... ... ... : ... .. . ... ... ... : ... .. . ... ... ...
ROW B3 : ... .. . ... ... ... : G#1 02 . ... ... ... : ... .. . ... ... ... : ... .. 1 ... ... ... : ... .. . ... ... ... : G-4 0C . ... ... ... : ... .. . ... ... ... : ... .. . ... ... ... : E-2 0C . P81 ... ... : ... .. . ... ... ... : ... .. . ... ... ... : ... .. . ... ... ... : ... .. . ... ... ...
ROW B4 : ... .. . ... ... ... : C#1 02 . ... ... ... : ... .. . ... ... ... : --- .. . ... ... ... : ... .. . ... ... ... : --- .. . ... ... ... : ... .. . ... ... ... : ... .. . ... ... ... : --- .. . ... ... ... : ... .. . ... ... ... : ... .. . ... ... ... : ... .. . ... ... ... : ... .. . ... ... ...
ROW B5 : ... .. . ... ... ... : ... .. . ... ... ... : ... .. . ... ... ... : ... .. . ... ... ... : ... .. . ... ... ... : B-4 0C . P7C ... ... : ... .. . ... ... ... : ... .. . ... ... ... : A#3 0C . P85 ... ... : ... .. . ... ... ... : ... .. . ... ... ... : ... .. . ... ... ... : ... .. . ... ... ...
ROW B6 : ... .. . ... ... ... : ... .. . ... ... ... : ... .. . ... ... ... : ... .. . ... ... ... : ... .. . ... ... ... : A#4 0C . P79 ... ... : ... .. . ... ... ... : ... .. . ... ... ... : G-3 0C . ... ... ... : ... .. . ... ... ... : ... .. . ... ... ... : ... .. . ... ... ... : ... .. . ... ... ...
ROW B7 : ... .. . ... ... ... : ... .. . ... ... ... : ... .. . ... ... ... : ... .. . ... ... ... : ... .. . ... ... ... : A-4 0C . P78 ... ... : ... .. . ... ... ... : ... .. . ... ... ... : --- .. . ... ... ... : ... .. . ... ... ... : ... .. . ... ... ... : ... .. . ... ... ... : ... .. . ... ... ...
ROW B8 : ... .. . ... ... ... : ... .. . ... ... ... : ... .. . ... ... ... : ... .. . ... ... ... : ... .. . ... ... ... : G#4 0C . ... ... ... : ... .. . ... ... ... : ... .. . ... ... ... : ... .. . P80 ... ... : ... .. . ... ... ... : ... .. . ... ... ... : ... .. . ... ... ... : ... .. . ... ... ...
ROW B9 : ... .. . ... ... ... : ... .. . ... ... ... : ... .. . ... ... ... : ... .. . ... ... ... : ... .. . ... ... ... : G-4 0C . ... ... ... : ... .. . ... ... ... : ... .. . ... ... ... : ... .. . ... ... ... : ... .. . ... ... ... : ... .. . ... ... ... : ... .. . ... ... ... : ... .. . ... ... ...
ROW BA : ... .. . ... ... ... : ... .. . ... ... ... : ... .. . ... ... ... : ... .. . ... ... ... : ... .. . ... ... ... : --- .. . ... ... ... : ... .. . ... ... ... : ... .. . ... ... ... : ... .. . ... ... ... : ... .. . ... ... ... : ... .. . ... ... ... : ... .. . ... ... ... : ... .. . ... ... ...
ROW BB : ... .. . ... ... ... : ... .. . ... ... ... : ... .. . ... ... ... : D-# 00 A ... ... ... : ... .. . ... ... ... : C#3 05 A P80 ... ... : C#3 05 . P83 ... ... : C#3 05 9 P7E ... ... : G#2 05 9 P81 ... ... : ... .. . ... ... ... : ... .. . ... ... ... : ... .. . ... ... ... : ... .. . ... ... ...
ROW BC : ... .. . ... ... ... : ... .. . ... ... ... : ... .. . ... ... ... : E-# 00 4 ... ... ... : ... .. . ... ... ... : ... .. . ... ... ... : C-3 05 . P7E ... ... : ... .. . ... ... ... : ... .. . ... ... ... : ... .. . ... ... ... : ... .. . ... ... ... : ... .. . ... ... ... : ... .. . ... ... ...
ROW BD : ... .. . ... ... ... : ... .. . ... ... ... : ... .. . ... ... ... : D-# 00 2 ... ... ... : ... .. . ... ... ... : ... .. . ... ... ... : C#3 05 . P83 ... ... : ... .. . ... ... ... : ... .. . ... ... ... : ... .. . ... ... ... : ... .. . ... ... ... : ... .. . ... ... ... : ... .. . ... ... ...
ROW BE : ... .. . ... ... ... : ... .. . ... ... ... : ... .. . ... ... ... : ... .. 1 ... ... ... : ... .. . ... ... ... : ... .. . ... ... ... : ... .. . P82 ... ... : ... .. . ... ... ... : ... .. . ... ... ... : ... .. . ... ... ... : ... .. . ... ... ... : ... .. . ... ... ... : ... .. . ... ... ...
ROW BF : ... .. . ... ... ... : ... .. . ... ... ... : ... .. . ... ... ... : ... .. . ... ... ... : ... .. . ... ... ... : --- .. . ... ... ... : --- .. . ... ... ... : --- .. . ... ... ... : --- .. . ... ... ... : ... .. . ... ... ... : ... .. . ... ... ... : ... .. . ... ... ... : ... .. . ... ... ...
ROW C0 : ... .. . ... ... ... : ... .. . ... ... ... : ... .. . ... ... ... : --- .. . ... ... ... : ... .. . ... ... ... : ... .. . ... ... ... : ... .. . P80 ... ... : ... .. . P80 ... ... : ... .. . P80 ... ... : ... .. . ... ... ... : ... .. . ... ... ... : ... .. . ... ... ... : ... .. . ... ... ...
ROW C1 : ... .. . ... ... ... : ... .. . ... ... ... : ... .. . ... ... ... : D-# 00 A ... ... ... : ... .. . ... ... ... : C#3 05 4 ... ... ... : C#3 05 4 P83 ... ... : C#3 05 3 P7E ... ... : G#2 05 3 P81 ... ... : ... .. . ... ... ... : ... .. . ... ... ... : ... .. . ... ... ... : ... .. . ... ... ...
ROW C2 : ... .. . ... ... ... : ... .. . ... ... ... : ... .. . ... ... ... : E-# 00 4 ... ... ... : ... .. . ... ... ... : ... .. . ... ... ... : ... .. . P82 ... ... : ... .. . ... ... ... : ... .. . ... ... ... : ... .. . ... ... ... : ... .. . ... ... ... : ... .. . ... ... ... : ... .. . ... ... ...
ROW C3 : ... .. . ... ... ... : ... .. . ... ... ... : ... .. . ... ... ... : D-# 00 2 ... ... ... : ... .. . ... ... ... : ... .. . ... ... ... : ... .. . P83 ... ... : ... .. . ... ... ... : ... .. . ... ... ... : ... .. . ... ... ... : ... .. . ... ... ... : ... .. . ... ... ... : ... .. . ... ... ...
ROW C4 : ... .. . ... ... ... : ... .. . ... ... ... : ... .. . ... ... ... : ... .. 1 ... ... ... : ... .. . ... ... ... : ... .. . ... ... ... : C-3 05 . P7E ... ... : ... .. . ... ... ... : ... .. . ... ... ... : ... .. . ... ... ... : ... .. . ... ... ... : ... .. . ... ... ... : ... .. . ... ... ...
ROW C5 : ... .. . ... ... ... : ... .. . ... ... ... : ... .. . ... ... ... : ... .. . ... ... ... : ... .. . ... ... ... : ... .. . ... ... ... : ... .. . ... ... ... : ... .. 2 ... ... ... : ... .. . ... ... ... : ... .. . ... ... ... : ... .. . ... ... ... : ... .. . ... ... ... : ... .. . ... ... ...
ROW C6 : ... .. . ... ... ... : ... .. . ... ... ... : ... .. . ... ... ... : --- .. . ... ... ... : ... .. . ... ... ... : --- .. . ... ... ... : --- .. . ... ... ... : --- .. . ... ... ... : --- .. . ... ... ... : ... .. . ... ... ... : ... .. . ... ... ... : ... .. . ... ... ... : ... .. . ... ... ...
ROW C7 : ... .. . ... ... ... : ... .. . ... ... ... : ... .. . ... ... ... : ... .. . ... ... ... : ... .. . ... ... ... : ... .. . ... ... ... : ... .. . P80 ... ... : ... .. . P80 ... ... : ... .. . P80 ... ... : ... .. . ... ... ... : ... .. . ... ... ... : ... .. . ... ... ... : ... .. . ... ... ...
ROW C8 : ... .. . ... ... ... : C-4 02 . P80 ... ... : C#4 00 . P7F ... ... : 9-# 00 F ... ... ... : C#1 12 . ... ... ... : F#3 05 A ... ... ... : F#3 05 A P84 ... ... : F#3 05 9 P7E ... ... : D#3 05 9 P81 ... ... : ... .. . ... ... ... : ... .. . ... ... ... : ... .. . ... ... ... : ... .. . ... ... ...
ROW C9 : ... .. . ... ... ... : F-3 02 . ... ... ... : F#3 00 . P83 ... ... : 2-# 00 7 ... ... ... : ... .. . ... ... ... : ... .. . ... ... ... : ... .. . ... ... ... : ... .. . ... ... ... : ... .. . ... ... ... : ... .. . ... ... ... : ... .. . ... ... ... : ... .. . ... ... ... : ... .. . ... ... ...
ROW CA : ... .. . ... ... ... : A#2 02 . P81 ... ... : C#3 00 . P89 ... ... : 6-# 00 C ... ... ... : ... .. . ... ... ... : ... .. . ... ... ... : ... .. . P83 ... ... : ... .. . ... ... ... : ... .. . ... ... ... : ... .. . ... ... ... : ... .. . ... ... ... : ... .. . ... ... ... : ... .. . ... ... ...
ROW CB : ... .. . ... ... ... : D#2 02 . ... ... ... : A#2 00 . P75 ... ... : 7-# 00 8 ... ... ... : ... .. . ... ... ... : ... .. . ... ... ... : ... .. . P82 ... ... : ... .. . ... ... ... : ... .. . ... ... ... : ... .. . ... ... ... : ... .. . ... ... ... : ... .. . ... ... ... : ... .. . ... ... ...
ROW CC : ... .. . ... ... ... : G#1 02 . ... ... ... : G-2 00 . P70 ... ... : 8-# 00 7 ... ... ... : ... .. . ... ... ... : --- .. . ... ... ... : --- .. . ... ... ... : --- .. . ... ... ... : --- .. . ... ... ... : ... .. . ... ... ... : ... .. . ... ... ... : ... .. . ... ... ... : ... .. . ... ... ...
ROW CD : ... .. . ... ... ... : C#1 02 . ... ... ... : E-2 00 . P7C ... ... : ... .. 6 ... ... ... : ... .. . ... ... ... : ... .. . ... ... ... : ... .. . P80 ... ... : ... .. . P80 ... ... : ... .. . P80 ... ... : ... .. . ... ... ... : ... .. . ... ... ... : ... .. . ... ... ... : ... .. . ... ... ...
ROW CE : ... .. . ... ... ... : ... .. . ... ... ... : --- .. . ... ... ... : ... .. . ... ... ... : ... .. . ... ... ... : F#3 05 4 ... ... ... : F#3 05 4 P83 ... ... : F#3 05 3 P7E ... ... : D#3 05 3 P81 ... ... : ... .. . ... ... ... : ... .. . ... ... ... : ... .. . ... ... ... : ... .. . ... ... ...
ROW CF : ... .. . ... ... ... : ... .. . ... ... ... : ... .. . ... ... ... : ... .. 5 ... ... ... : ... .. . ... ... ... : ... .. . ... ... ... : ... .. . P82 ... ... : ... .. . ... ... ... : ... .. . ... ... ... : ... .. . ... ... ... : ... .. . ... ... ... : ... .. . ... ... ... : ... .. . ... ... ...
ROW D0 : ... .. . ... ... ... : ... .. . ... ... ... : ... .. . ... ... ... : ... .. . ... ... ... : ... .. . ... ... ... : ... .. . ... ... ... : ... .. . P83 ... ... : ... .. . ... ... ... : ... .. . ... ... ... : ... .. . ... ... ... : ... .. . ... ... ... : ... .. . ... ... ... : ... .. . ... ... ...
ROW D1 : ... .. . ... ... ... : ... .. . ... ... ... : ... .. . ... ... ... : ... .. 4 ... ... ... : ... .. . ... ... ... : ... .. . ... ... ... : ... .. . P84 ... ... : ... .. . ... ... ... : ... .. . ... ... ... : ... .. . ... ... ... : ... .. . ... ... ... : ... .. . ... ... ... : ... .. . ... ... ...
ROW D2 : ... .. . ... ... ... : ... .. . ... ... ... : ... .. . ... ... ... : ... .. . ... ... ... : ... .. . ... ... ... : --- .. . ... ... ... : --- .. . ... ... ... : --- .. . ... ... ... : --- .. . ... ... ... : ... .. . ... ... ... : ... .. . ... ... ... : ... .. . ... ... ... : ... .. . ... ... ...
ROW D3 : ... .. . ... ... ... : ... .. . ... ... ... : ... .. . ... ... ... : ... .. 3 ... ... ... : ... .. . ... ... ... : ... .. . ... ... ... : ... .. . P80 ... ... : ... .. . P80 ... ... : ... .. . P80 ... ... : ... .. . ... ... ... : ... .. . ... ... ... : ... .. . ... ... ... : ... .. . ... ... ...
ROW D4 : ... .. . ... ... ... : ... .. . ... ... ... : ... .. . ... ... ... : D-# 00 A ... ... ... : ... .. . ... ... ... : B-3 05 A ... ... ... : B-3 05 A P83 ... ... : B-3 05 9 P7E ... ... : F#3 05 9 P81 ... ... : ... .. . ... ... ... : ... .. . ... ... ... : ... .. . ... ... ... : ... .. . ... ... ...
ROW D5 : ... .. . ... ... ... : ... .. . ... ... ... : ... .. . ... ... ... : E-# 00 4 ... ... ... : ... .. . ... ... ... : ... .. . ... ... ... : ... .. . P84 ... ... : ... .. . ... ... ... : ... .. . ... ... ... : ... .. . ... ... ... : ... .. . ... ... ... : ... .. . ... ... ... : ... .. . ... ... ...
ROW D6 : ... .. . ... ... ... : ... .. . ... ... ... : ... .. . ... ... ... : D-# 00 2 ... ... ... : ... .. . ... ... ... : ... .. . ... ... ... : ... .. . ... ... ... : ... .. . ... ... ... : ... .. . ... ... ... : ... .. . ... ... ... : ... .. . ... ... ... : ... .. . ... ... ... : ... .. . ... ... ...
ROW D7 : ... .. . ... ... ... : ... .. . ... ... ... : ... .. . ... ... ... : ... .. 1 ... ... ... : ... .. . ... ... ... : ... .. . ... ... ... : ... .. . P83 ... ... : ... .. . ... ... ... : ... .. . ... ... ... : ... .. . ... ... ... : ... .. . ... ... ... : ... .. . ... ... ... : ... .. . ... ... ...
ROW D8 : ... .. . ... ... ... : ... .. . ... ... ... : ... .. . ... ... ... : ... .. . ... ... ... : ... .. . ... ... ... : --- .. . ... ... ... : --- .. . ... ... ... : --- .. . ... ... ... : --- .. . ... ... ... : ... .. . ... ... ... : ... .. . ... ... ... : ... .. . ... ... ... : ... .. . ... ... ...
ROW D9 : ... .. . ... ... ... : ... .. . ... ... ... : ... .. . ... ... ... : --- .. . ... ... ... : ... .. . ... ... ... : ... .. . ... ... ... : ... .. . P80 ... ... : ... .. . P80 ... ... : ... .. . P80 ... ... : ... .. . ... ... ... : ... .. . ... ... ... : ... .. . ... ... ... : ... .. . ... ... ...
ROW DA : ... .. . ... ... ... : ... .. . ... ... ... : ... .. . ... ... ... : D-# 00 A ... ... ... : ... .. . ... ... ... : B-3 05 4 ... ... ... : B-3 05 . P84 ... ... : B-3 05 . P7E ... ... : F#3 05 . P81 ... ... : ... .. . ... ... ... : ... .. . ... ... ... : ... .. . ... ... ... : ... .. . ... ... ...
ROW DB : ... .. . ... ... ... : ... .. . ... ... ... : ... .. . ... ... ... : E-# 00 4 ... ... ... : ... .. . ... ... ... : ... .. . ... ... ... : ... .. . P83 ... ... : ... .. . ... ... ... : ... .. . ... ... ... : ... .. . ... ... ... : ... .. . ... ... ... : ... .. . ... ... ... : ... .. . ... ... ...
ROW DC : ... .. . ... ... ... : ... .. . ... ... ... : ... .. . ... ... ... : D-# 00 2 ... ... ... : ... .. . ... ... ... : ... .. . ... ... ... : ... .. . P82 ... ... : ... .. . ... ... ... : ... .. . ... ... ... : ... .. . ... ... ... : ... .. . ... ... ... : ... .. . ... ... ... : ... .. . ... ... ...
ROW DD : ... .. . ... ... ... : ... .. . ... ... ... : ... .. . ... ... ... : ... .. 1 ... ... ... : ... .. . ... ... ... : ... .. . ... ... ... : ... .. . P83 ... ... : ... .. . ... ... ... : ... .. . ... ... ... : ... .. . ... ... ... : ... .. . ... ... ... : ... .. . ... ... ... : ... .. . ... ... ...
ROW DE : ... .. . ... ... ... : ... .. . ... ... ... : ... .. . ... ... ... : ... .. . ... ... ... : ... .. . ... ... ... : ... .. . ... ... ... : ... .. . P84 ... ... : ... .. 8 ... ... ... : ... .. . ... ... ... : ... .. . ... ... ... : ... .. . ... ... ... : ... .. . ... ... ... : ... .. . ... ... ...
ROW DF : ... .. . ... ... ... : ... .. . ... ... ... : ... .. . ... ... ... : --- .. . ... ... ... : ... .. . ... ... ... : --- .. . ... ... ... : --- .. . ... ... ... : --- .. . ... ... ... : --- .. . ... ... ... : ... .. . ... ... ... : ... .. . ... ... ... : ... .. . ... ... ... : ... .. . ... ... ...
ROW E0 : ... .. . ... ... ... : ... .. . ... ... ... : ... .. . ... ... ... : ... .. . ... ... ... : ... .. . ... ... ... : ... .. . ... ... ... : ... .. . P80 ... ... : ... .. . P80 ... ... : ... .. . P80 ... ... : ... .. . ... ... ... : ... .. . ... ... ... : ... .. . ... ... ... : ... .. . ... ... ...
ROW E1 : ... .. . ... ... ... : C-4 02 . P80 ... ... : F#3 00 . P78 ... ... : 1-# 00 F ... ... ... : C-1 12 . ... ... ... : D#2 06 F ... ... ... : D#2 06 F P81 ... ... : ... .. . ... ... ... : D#2 06 E P7F ... ... : D#3 06 B P81 ... ... : ... .. . ... ... ... : ... .. . ... ... ... : ... .. . ... ... ...
ROW E2 : ... .. . ... ... ... : F-3 02 . ... ... ... : C#3 00 . P7E ... ... : 2-# 00 7 ... ... ... : ... .. . ... ... ... : ... .. . ... ... ... : D-2 06 . P7F ... ... : ... .. . ... ... ... : ... .. . ... ... ... : ... .. . ... ... ... : ... .. . ... ... ... : ... .. . ... ... ... : ... .. . ... ... ...
ROW E3 : ... .. . ... ... ... : A#2 02 . P81 ... ... : A-2 00 . P86 ... ... : 1-# 00 4 ... ... ... : ... .. . ... ... ... : ... .. . ... ... ... : D#2 06 . P81 ... ... : ... .. . ... ... ... : ... .. . ... ... ... : ... .. . ... ... ... : ... .. . ... ... ... : ... .. . ... ... ... : ... .. . ... ... ...
ROW E4 : ... .. . ... ... ... : D#2 02 . ... ... ... : --- .. . ... ... ... : ... .. 2 ... ... ... : ... .. . ... ... ... : D#2 09 . ... ... ... : D#2 09 . P80 ... ... : ... .. . ... ... ... : D#2 09 . ... ... ... : D#3 09 . ... ... ... : ... .. . ... ... ... : ... .. . ... ... ... : ... .. . ... ... ...
ROW E5 : ... .. . ... ... ... : G#1 02 . ... ... ... : ... .. . ... ... ... : ... .. 1 ... ... ... : ... .. . ... ... ... : ... .. . ... ... ... : ... .. . P81 ... ... : ... .. . ... ... ... : ... .. . ... ... ... : ... .. A ... ... ... : ... .. . ... ... ... : ... .. . ... ... ... : ... .. . ... ... ...
ROW E6 : ... .. . ... ... ... : C#1 02 . ... ... ... : ... .. . ... ... ... : --- .. . ... ... ... : ... .. . ... ... ... : ... .. . ... ... ... : ... .. . P82 ... ... : ... .. . ... ... ... : ... .. . ... ... ... : ... .. . ... ... ... : ... .. . ... ... ... : ... .. . ... ... ... : ... .. . ... ... ...
ROW E7 : ... .. . ... ... ... : ... .. . ... ... ... : ... .. . ... ... ... : ... .. . ... ... ... : ... .. . ... ... ... : D#2 06 . ... ... ... : D#2 06 . ... ... ... : ... .. . ... ... ... : D#2 06 . ... ... ... : D#3 06 . ... ... ... : ... .. . ... ... ... : ... .. . ... ... ... : ... .. . ... ... ...
ROW E8 : ... .. . ... ... ... : ... .. . ... ... ... : ... .. . ... ... ... : ... .. . ... ... ... : ... .. . ... ... ... : ... .. . ... ... ... : ... .. . P81 ... ... : ... .. . ... ... ... : ... .. . ... ... ... : ... .. . ... ... ... : ... .. . ... ... ... : ... .. . ... ... ... : ... .. . ... ... ...
ROW E9 : ... .. . ... ... ... : ... .. . ... ... ... : ... .. . ... ... ... : ... .. . ... ... ... : ... .. . ... ... ... : ... .. . ... ... ... : ... .. . ... ... ... : ... .. . ... ... ... : ... .. D ... ... ... : ... .. 9 ... ... ... : ... .. . ... ... ... : ... .. . ... ... ... : ... .. . ... ... ...
ROW EA : ... .. . ... ... ... : ... .. . ... ... ... : ... .. . ... ... ... : ... .. . ... ... ... : ... .. . ... ... ... : D#2 09 . ... ... ... : D#2 09 . P82 ... ... : ... .. . ... ... ... : D#2 09 . ... ... ... : D#3 09 . ... ... ... : ... .. . ... ... ... : ... .. . ... ... ... : ... .. . ... ... ...
ROW EB : ... .. . ... ... ... : ... .. . ... ... ... : ... .. . ... ... ... : ... .. . ... ... ... : ... .. . ... ... ... : ... .. . ... ... ... : D-2 09 . P7F ... ... : ... .. . ... ... ... : ... .. . ... ... ... : ... .. . ... ... ... : ... .. . ... ... ... : ... .. . ... ... ... : ... .. . ... ... ...
ROW EC : ... .. . ... ... ... : ... .. . ... ... ... : ... .. . ... ... ... : ... .. . ... ... ... : ... .. . ... ... ... : ... .. . ... ... ... : D#2 09 . P81 ... ... : ... .. . ... ... ... : ... .. . ... ... ... : ... .. . ... ... ... : ... .. . ... ... ... : ... .. . ... ... ... : ... .. . ... ... ...
ROW ED : ... .. . ... ... ... : ... .. . ... ... ... : ... .. . ... ... ... : D-# 00 A ... ... ... : ... .. . ... ... ... : D#2 06 . ... ... ... : D#2 06 . P80 ... ... : ... .. . ... ... ... : D#2 06 . ... ... ... : D#3 06 8 ... ... ... : ... .. . ... ... ... : ... .. . ... ... ... : ... .. . ... ... ...
ROW EE : ... .. . ... ... ... : ... .. . ... ... ... : ... .. . ... ... ... : E-# 00 4 ... ... ... : ... .. . ... ... ... : ... .. . ... ... ... : ... .. . P81 ... ... : ... .. . ... ... ... : ... .. . ... ... ... : ... .. . ... ... ... : ... .. . ... ... ... : ... .. . ... ... ... : ... .. . ... ... ...
ROW EF : ... .. . ... ... ... : ... .. . ... ... ... : ... .. . ... ... ... : D-# 00 2 ... ... ... : ... .. . ... ... ... : ... .. . ... ... ... : D-2 06 . P7F ... ... : ... .. . ... ... ... : ... .. . ... ... ... : ... .. . ... ... ... : ... .. . ... ... ... : ... .. . ... ... ... : ... .. . ... ... ...
ROW F0 : ... .. . ... ... ... : ... .. . ... ... ... : ... .. . ... ... ... : ... .. 1 ... ... ... : ... .. . ... ... ... : D#2 09 . ... ... ... : D#2 09 . P81 ... ... : ... .. . ... ... ... : D#2 09 . ... ... ... : D#3 09 . ... ... ... : ... .. . ... ... ... : ... .. . ... ... ... : ... .. . ... ... ...
ROW F1 : ... .. . ... ... ... : ... .. . ... ... ... : ... .. . ... ... ... : ... .. . ... ... ... : ... .. . ... ... ... : ... .. . ... ... ... : ... .. . P80 ... ... : ... .. . ... ... ... : ... .. C ... ... ... : ... .. 7 ... ... ... : ... .. . ... ... ... : ... .. . ... ... ... : ... .. . ... ... ...
ROW F2 : ... .. . ... ... ... : ... .. . ... ... ... : ... .. . ... ... ... : --- .. . ... ... ... : ... .. . ... ... ... : ... .. . ... ... ... : ... .. . P81 ... ... : ... .. . ... ... ... : ... .. . ... ... ... : ... .. . ... ... ... : ... .. . ... ... ... : ... .. . ... ... ... : ... .. . ... ... ...
ROW F3 : ... .. . ... ... ... : ... .. . ... ... ... : ... .. . ... ... ... : D-# 00 A ... ... ... : ... .. . ... ... ... : D#2 06 . ... ... ... : D-2 06 . P7F ... ... : ... .. . ... ... ... : D#2 06 . ... ... ... : D#3 06 . ... ... ... : ... .. . ... ... ... : ... .. . ... ... ... : ... .. . ... ... ...
ROW F4 : ... .. . ... ... ... : ... .. . ... ... ... : ... .. . ... ... ... : E-# 00 4 ... ... ... : ... .. . ... ... ... : ... .. . ... ... ... : D#2 06 . P81 ... ... : ... .. . ... ... ... : ... .. . ... ... ... : ... .. . ... ... ... : ... .. . ... ... ... : ... .. . ... ... ... : ... .. . ... ... ...
ROW F5 : ... .. . ... ... ... : ... .. . ... ... ... : ... .. . ... ... ... : D-# 00 2 ... ... ... : ... .. . ... ... ... : ... .. . ... ... ... : ... .. . P80 ... ... : ... .. . ... ... ... : ... .. . ... ... ... : ... .. 6 ... ... ... : ... .. . ... ... ... : ... .. . ... ... ... : ... .. . ... ... ...
ROW F6 : ... .. . ... ... ... : ... .. . ... ... ... : ... .. . ... ... ... : ... .. 1 ... ... ... : ... .. . ... ... ... : D#2 09 . ... ... ... : D#2 09 . P81 ... ... : ... .. . ... ... ... : D#2 09 . ... ... ... : D#3 09 . ... ... ... : ... .. . ... ... ... : ... .. . ... ... ... : ... .. . ... ... ...
ROW F7 : ... .. . ... ... ... : ... .. . ... ... ... : ... .. . ... ... ... : ... .. . ... ... ... : ... .. . ... ... ... : ... .. . ... ... ... : ... .. . P82 ... ... : ... .. . ... ... ... : ... .. . ... ... ... : ... .. . ... ... ... : ... .. . ... ... ... : ... .. . ... ... ... : ... .. . ... ... ...
ROW F8 : ... .. . ... ... ... : ... .. . ... ... ... : ... .. . ... ... ... : --- .. . ... ... ... : ... .. . ... ... ... : ... .. . ... ... ... : ... .. . ... ... ... : ... .. . ... ... ... : ... .. . ... ... ... : ... .. . ... ... ... : ... .. . ... ... ... : ... .. . ... ... ... : ... .. . ... ... ...
ROW F9 : ... .. . ... ... ... : ... .. . ... ... ... : ... .. . ... ... ... : ... .. . ... ... ... : ... .. . ... ... ... : ... .. . ... ... ... : ... .. . P81 ... ... : ... .. . ... ... ... : ... .. B ... ... ... : ... .. 5 ... ... ... : ... .. . ... ... ... : ... .. . ... ... ... : ... .. . ... ... ...
ROW FA : ... .. . ... ... ... : C-4 02 . P80 ... ... : C#4 00 . P7F ... ... : 9-# 00 F ... ... ... : C#1 12 . ... ... ... : D-2 06 . ... ... ... : D-2 06 . P80 ... ... : ... .. . ... ... ... : D-2 06 . ... ... ... : D-3 06 . ... ... ... : ... .. . ... ... ... : ... .. . ... ... ... : ... .. . ... ... ...
ROW FB : ... .. . ... ... ... : F-3 02 . ... ... ... : F#3 00 . P83 ... ... : 2-# 00 7 ... ... ... : ... .. . ... ... ... : ... .. . ... ... ... : ... .. . P81 ... ... : ... .. . ... ... ... : ... .. . ... ... ... : ... .. . ... ... ... : ... .. . ... ... ... : ... .. . ... ... ... : ... .. . ... ... ...
ROW FC : ... .. . ... ... ... : A#2 02 . P81 ... ... : C#3 00 . P89 ... ... : 6-# 00 C ... ... ... : ... .. . ... ... ... : ... .. . ... ... ... : C#2 06 . P7F ... ... : ... .. . ... ... ... : ... .. . ... ... ... : ... .. . ... ... ... : ... .. . ... ... ... : ... .. . ... ... ... : ... .. . ... ... ...
ROW FD : ... .. . ... ... ... : D#2 02 . ... ... ... : A#2 00 . P75 ... ... : 7-# 00 8 ... ... ... : ... .. . ... ... ... : D-2 07 . ... ... ... : D-2 07 . P81 ... ... : ... .. . ... ... ... : D-2 07 . ... ... ... : D-3 07 4 ... ... ... : ... .. . ... ... ... : ... .. . ... ... ... : ... .. . ... ... ...
ROW FE : ... .. . ... ... ... : G#1 02 . ... ... ... : G-2 00 . P70 ... ... : 8-# 00 7 ... ... ... : ... .. . ... ... ... : ... .. . ... ... ... : ... .. . P80 ... ... : ... .. . ... ... ... : ... .. . ... ... ... : ... .. . ... ... ... : ... .. . ... ... ... : ... .. . ... ... ... : ... .. . ... ... ...
ROW FF : ... .. . ... ... ... : C#1 02 . ... ... ... : E-2 00 . P7C ... ... : ... .. 6 ... ... ... : ... .. . ... ... ... : ... .. . ... ... ... : ... .. . P81 ... ... : ... .. . ... ... ... : ... .. . ... ... ... : ... .. . ... ... ... : ... .. . ... ... ... : ... .. . ... ... ... : ... .. . ... ... ...

PATTERN 16
ROW 00 : ... .. . ... ... ... : ... .. . ... ... ... : --- .. . ... ... ... : ... .. . ... ... ... : ... .. . ... ... ... : D-2 08 . ... ... ... : C#2 08 . P7F ... ... : ... .. . ... ... ... : D-2 08 . ... ... ... : D-3 08 . ... ... ... : ... .. . ... ... ... : ... .. . ... ... ... : ... .. . ... ... ...
ROW 01 : ... .. . ... ... ... : ... .. . ... ... ... : ... .. . ... ... ... : ... .. 5 ... ... ... : ... .. . ... ... ... : ... .. . ... ... ... : D-2 08 . P81 ... ... : ... .. . ... ... ... : ... .. A ... ... ... : ... .. 3 ... ... ... : ... .. . ... ... ... : ... .. . ... ... ... : ... .. . ... ... ...
ROW 02 : ... .. . ... ... ... : ... .. . ... ... ... : ... .. . ... ... ... : ... .. . ... ... ... : ... .. . ... ... ... : ... .. . ... ... ... : ... .. . P80 ... ... : ... .. . ... ... ... : ... .. . ... ... ... : ... .. . ... ... ... : ... .. . ... ... ... : ... .. . ... ... ... : ... .. . ... ... ...
ROW 03 : ... .. . ... ... ... : ... .. . ... ... ... : ... .. . ... ... ... : ... .. 4 ... ... ... : ... .. . ... ... ... : D-2 09 . ... ... ... : D-2 09 . P81 ... ... : ... .. . ... ... ... : D-2 09 . ... ... ... : D-3 09 . ... ... ... : ... .. . ... ... ... : ... .. . ... ... ... : ... .. . ... ... ...
ROW 04 : ... .. . ... ... ... : ... .. . ... ... ... : ... .. . ... ... ... : ... .. . ... ... ... : ... .. . ... ... ... : ... .. . ... ... ... : C#2 09 . P7F ... ... : ... .. . ... ... ... : ... .. . ... ... ... : ... .. . ... ... ... : ... .. . ... ... ... : ... .. . ... ... ... : ... .. . ... ... ...
ROW 05 : ... .. . ... ... ... : ... .. . ... ... ... : ... .. . ... ... ... : ... .. 3 ... ... ... : ... .. . ... ... ... : ... .. . ... ... ... : D-2 09 . P82 ... ... : ... .. . ... ... ... : ... .. . ... ... ... : ... .. 2 ... ... ... : ... .. . ... ... ... : ... .. . ... ... ... : ... .. . ... ... ...
ROW 06 : ... .. . ... ... ... : F-3 02 . P80 ... ... : C#4 00 . P7F ... ... : 1-# 00 F ... ... ... : C-1 12 . ... ... ... : --- .. . ... ... ... : --- .. . ... ... ... : ... .. . ... ... ... : --- .. . ... ... ... : --- .. . ... ... ... : ... .. . ... ... ... : ... .. . ... ... ... : ... .. . ... ... ...
ROW 07 : ... .. . ... ... ... : A#2 02 . P81 ... ... : F#3 00 . P83 ... ... : 2-# 00 7 ... ... ... : ... .. . ... ... ... : ... .. . ... ... ... : ... .. . P80 ... ... : ... .. . ... ... ... : ... .. . P80 ... ... : ... .. . P80 ... ... : ... .. . ... ... ... : ... .. . ... ... ... : ... .. . ... ... ...
ROW 08 : ... .. . ... ... ... : D#2 02 . ... ... ... : C#3 00 . P89 ... ... : 1-# 00 4 ... ... ... : ... .. . ... ... ... : ... .. . ... ... ... : ... .. . ... ... ... : ... .. . ... ... ... : ... .. . ... ... ... : ... .. . ... ... ... : ... .. . ... ... ... : ... .. . ... ... ... : ... .. . ... ... ...
ROW 09 : ... .. . ... ... ... : G#1 02 . ... ... ... : A#2 00 . P75 ... ... : ... .. 2 ... ... ... : ... .. . ... ... ... : ... .. . ... ... ... : ... .. . ... ... ... : ... .. . ... ... ... : ... .. . ... ... ... : ... .. . ... ... ... : ... .. . ... ... ... : ... .. . ... ... ... : ... .. . ... ... ...
ROW 0A : ... .. . ... ... ... : C#1 02 . ... ... ... : G-2 00 . P70 ... ... : ... .. 1 ... ... ... : ... .. . ... ... ... : ... .. . ... ... ... : ... .. . ... ... ... : ... .. . ... ... ... : ... .. . ... ... ... : ... .. . ... ... ... : ... .. . ... ... ... : ... .. . ... ... ... : ... .. . ... ... ...
ROW 0B : ... .. . ... ... ... : ... .. . ... ... ... : E-2 00 . P7C ... ... : --- .. . ... ... ... : ... .. . ... ... ... : ... .. . ... ... ... : ... .. . ... ... ... : ... .. . ... ... ... : ... .. . ... ... ... : ... .. . ... ... ... : ... .. . ... ... ... : ... .. . ... ... ... : ... .. . ... ... ...
ROW 0C : ... .. . ... ... ... : ... .. . ... ... ... : D-2 00 . P6F ... ... : ... .. . ... ... ... : ... .. . ... ... ... : ... .. . ... ... ... : ... .. . ... ... ... : ... .. . ... ... ... : ... .. . ... ... ... : ... .. . ... ... ... : ... .. . ... ... ... : ... .. . ... ... ... : ... .. . ... ... ...
ROW 0D : ... .. . ... ... ... : ... .. . ... ... ... : C-2 00 . P6C ... ... : ... .. . ... ... ... : ... .. . ... ... ... : ... .. . ... ... ... : ... .. . ... ... ... : ... .. . ... ... ... : ... .. . ... ... ... : ... .. . ... ... ... : ... .. . ... ... ... : ... .. . ... ... ... : ... .. . ... ... ...
ROW 0E : ... .. . ... ... ... : ... .. . ... ... ... : A#1 00 . P75 ... ... : ... .. . ... ... ... : ... .. . ... ... ... : ... .. . ... ... ... : ... .. . ... ... ... : ... .. . ... ... ... : ... .. . ... ... ... : ... .. . ... ... ... : ... .. . ... ... ... : ... .. . ... ... ... : ... .. . ... ... ...
ROW 0F : ... .. . ... ... ... : ... .. . ... ... ... : G#1 00 . P8A ... ... : ... .. . ... ... ... : ... .. . ... ... ... : C-2 07 . ... ... ... : C-2 07 . ... ... ... : ... .. . ... ... ... : ... .. . ... ... ... : ... .. . ... ... ... : ... .. . ... ... ... : ... .. . ... ... ... : ... .. . ... ... ...
ROW 10 : ... .. . ... ... ... : ... .. . ... ... ... : G-1 00 . P6A ... ... : ... .. . ... ... ... : ... .. . ... ... ... : ... .. . ... ... ... : ... .. . P81 ... ... : ... .. . ... ... ... : ... .. . ... ... ... : ... .. . ... ... ... : ... .. . ... ... ... : ... .. . ... ... ... : ... .. . ... ... ...
ROW 11 : ... .. . ... ... ... : ... .. . ... ... ... : F-1 00 . P96 ... ... : ... .. . ... ... ... : ... .. . ... ... ... : ... .. . ... ... ... : B-1 07 . P7F ... ... : ... .. . ... ... ... : ... .. . ... ... ... : ... .. . ... ... ... : ... .. . ... ... ... : ... .. . ... ... ... : ... .. . ... ... ...
ROW 12 : ... .. . ... ... ... : ... .. . ... ... ... : E-1 00 . P82 ... ... : ... .. . ... ... ... : ... .. . ... ... ... : ... .. . ... ... ... : C-2 07 . P81 ... ... : ... .. . ... ... ... : ... .. . ... ... ... : ... .. . ... ... ... : ... .. . ... ... ... : ... .. . ... ... ... : ... .. . ... ... ...
ROW 13 : ... .. . ... ... ... : C-4 02 . P80 ... ... : F#3 00 . P78 ... ... : 1-# 00 F ... ... ... : C-1 12 . ... ... ... : C#2 06 . ... ... ... : C#2 06 . P80 ... ... : ... .. . ... ... ... : C#2 06 8 P7F ... ... : ... .. . ... ... ... : ... .. . ... ... ... : ... .. . ... ... ... : ... .. . ... ... ...
ROW 14 : ... .. . ... ... ... : F-3 02 . ... ... ... : C#3 00 . P7E ... ... : 2-# 00 7 ... ... ... : ... .. . ... ... ... : ... .. . ... ... ... : ... .. . P81 ... ... : ... .. . ... ... ... : ... .. . ... ... ... : ... .. . ... ... ... : ... .. . ... ... ... : ... .. . ... ... ... : ... .. . ... ... ...
ROW 15 : ... .. . ... ... ... : A#2 02 . P81 ... ... : A-2 00 . P86 ... ... : 1-# 00 4 ... ... ... : ... .. . ... ... ... : ... .. . ... ... ... : C-2 06 . P7F ... ... : ... .. . ... ... ... : ... .. . ... ... ... : ... .. . ... ... ... : ... .. . ... ... ... : ... .. . ... ... ... : ... .. . ... ... ...
ROW 16 : ... .. . ... ... ... : D#2 02 . ... ... ... : --- .. . ... ... ... : ... .. 2 ... ... ... : ... .. . ... ... ... : C#2 09 . ... ... ... : C#2 09 . P82 ... ... : ... .. . ... ... ... : C#2 09 . ... ... ... : ... .. . ... ... ... : ... .. . ... ... ... : ... .. . ... ... ... : ... .. . ... ... ...
ROW 17 : ... .. . ... ... ... : G#1 02 . ... ... ... : ... .. . ... ... ... : ... .. 1 ... ... ... : ... .. . ... ... ... : ... .. . ... ... ... : ... .. . P81 ... ... : ... .. . ... ... ... : ... .. . ... ... ... : ... .. . ... ... ... : ... .. . ... ... ... : ... .. . ... ... ... : ... .. . ... ... ...
ROW 18 : ... .. . ... ... ... : C#1 02 . ... ... ... : ... .. . ... ... ... : --- .. . ... ... ... : ... .. . ... ... ... : ... .. . ... ... ... : ... .. . ... ... ... : ... .. . ... ... ... : ... .. . ... ... ... : ... .. . ... ... ... : ... .. . ... ... ... : ... .. . ... ... ... : ... .. . ... ... ...
ROW 19 : ... .. . ... ... ... : ... .. . ... ... ... : ... .. . ... ... ... : ... .. . ... ... ... : ... .. . ... ... ... : C#2 06 . ... ... ... : C#2 06 . P82 ... ... : ... .. . ... ... ... : C#2 06 7 ... ... ... : ... .. . ... ... ... : ... .. . ... ... ... : ... .. . ... ... ... : ... .. . ... ... ...
ROW 1A : ... .. . ... ... ... : ... .. . ... ... ... : ... .. . ... ... ... : ... .. . ... ... ... : ... .. . ... ... ... : ... .. . ... ... ... : C-2 06 . P7F ... ... : ... .. . ... ... ... : ... .. . ... ... ... : ... .. . ... ... ... : ... .. . ... ... ... : ... .. . ... ... ... : ... .. . ... ... ...
ROW 1B : ... .. . ... ... ... : ... .. . ... ... ... : ... .. . ... ... ... : ... .. . ... ... ... : ... .. . ... ... ... : ... .. . ... ... ... : C#2 06 . P81 ... ... : ... .. . ... ... ... : ... .. . ... ... ... : ... .. . ... ... ... : ... .. . ... ... ... : ... .. . ... ... ... : ... .. . ... ... ...
ROW 1C : ... .. . ... ... ... : ... .. . ... ... ... : ... .. . ... ... ... : ... .. . ... ... ... : ... .. . ... ... ... : C#2 09 . ... ... ... : C#2 09 . P80 ... ... : ... .. . ... ... ... : C#2 09 . ... ... ... : ... .. . ... ... ... : ... .. . ... ... ... : ... .. . ... ... ... : ... .. . ... ... ...
ROW 1D : ... .. . ... ... ... : ... .. . ... ... ... : ... .. . ... ... ... : ... .. . ... ... ... : ... .. . ... ... ... : ... .. . ... ... ... : ... .. . P81 ... ... : ... .. . ... ... ... : ... .. . ... ... ... : ... .. . ... ... ... : ... .. . ... ... ... : ... .. . ... ... ... : ... .. . ... ... ...
ROW 1E : ... .. . ... ... ... : ... .. . ... ... ... : ... .. . ... ... ... : ... .. . ... ... ... : ... .. . ... ... ... : ... .. . ... ... ... : C-2 09 . P7F ... ... : ... .. . ... ... ... : ... .. . ... ... ... : ... .. . ... ... ... : ... .. . ... ... ... : ... .. . ... ... ... : ... .. . ... ... ...
ROW 1F : ... .. . ... ... ... : ... .. . ... ... ... : ... .. . ... ... ... : D-# 00 A ... ... ... : ... .. . ... ... ... : C#2 06 . ... ... ... : C#2 06 . P81 ... ... : ... .. . ... ... ... : C#2 06 . ... ... ... : ... .. . ... ... ... : ... .. . ... ... ... : ... .. . ... ... ... : ... .. . ... ... ...
ROW 20 : ... .. . ... ... ... : ... .. . ... ... ... : ... .. . ... ... ... : E-# 00 4 ... ... ... : ... .. . ... ... ... : ... .. . ... ... ... : ... .. . P80 ... ... : ... .. . ... ... ... : ... .. . ... ... ... : ... .. . ... ... ... : ... .. . ... ... ... : ... .. . ... ... ... : ... .. . ... ... ...
ROW 21 : ... .. . ... ... ... : ... .. . ... ... ... : ... .. . ... ... ... : D-# 00 2 ... ... ... : ... .. . ... ... ... : ... .. . ... ... ... : ... .. . P81 ... ... : ... .. . ... ... ... : ... .. 6 ... ... ... : ... .. . ... ... ... : ... .. . ... ... ... : ... .. . ... ... ... : ... .. . ... ... ...
ROW 22 : ... .. . ... ... ... : ... .. . ... ... ... : ... .. . ... ... ... : ... .. 1 ... ... ... : ... .. . ... ... ... : C#2 09 . ... ... ... : C-2 09 . P7F ... ... : ... .. . ... ... ... : C#2 09 . ... ... ... : ... .. . ... ... ... : ... .. . ... ... ... : ... .. . ... ... ... : ... .. . ... ... ...
ROW 23 : ... .. . ... ... ... : ... .. . ... ... ... : ... .. . ... ... ... : ... .. . ... ... ... : ... .. . ... ... ... : ... .. . ... ... ... : C#2 09 . P81 ... ... : ... .. . ... ... ... : ... .. . ... ... ... : ... .. . ... ... ... : ... .. . ... ... ... : ... .. . ... ... ... : ... .. . ... ... ...
ROW 24 : ... .. . ... ... ... : ... .. . ... ... ... : ... .. . ... ... ... : --- .. . ... ... ... : ... .. . ... ... ... : ... .. . ... ... ... : ... .. . P80 ... ... : ... .. . ... ... ... : ... .. . ... ... ... : ... .. . ... ... ... : ... .. . ... ... ... : ... .. . ... ... ... : ... .. . ... ... ...
ROW 25 : ... .. . ... ... ... : ... .. . ... ... ... : ... .. . ... ... ... : D-# 00 A ... ... ... : ... .. . ... ... ... : C#2 06 . ... ... ... : C#2 06 . P81 ... ... : ... .. . ... ... ... : C#2 06 . ... ... ... : ... .. . ... ... ... : ... .. . ... ... ... : ... .. . ... ... ... : ... .. . ... ... ...
ROW 26 : ... .. . ... ... ... : ... .. . ... ... ... : ... .. . ... ... ... : E-# 00 4 ... ... ... : ... .. . ... ... ... : ... .. . ... ... ... : ... .. . P82 ... ... : ... .. . ... ... ... : ... .. . ... ... ... : ... .. . ... ... ... : ... .. . ... ... ... : ... .. . ... ... ... : ... .. . ... ... ...
ROW 27 : ... .. . ... ... ... : ... .. . ... ... ... : ... .. . ... ... ... : D-# 00 2 ... ... ... : ... .. . ... ... ... : ... .. . ... ... ... : ... .. . ... ... ... : ... .. . ... ... ... : ... .. . ... ... ... : ... .. . ... ... ... : ... .. . ... ... ... : ... .. . ... ... ... : ... .. . ... ... ...
ROW 28 : ... .. . ... ... ... : ... .. . ... ... ... : ... .. . ... ... ... : ... .. 1 ... ... ... : ... .. . ... ... ... : C#2 09 . ... ... ... : C#2 09 . P81 ... ... : ... .. . ... ... ... : C#2 09 . ... ... ... : ... .. . ... ... ... : ... .. . ... ... ... : ... .. . ... ... ... : ... .. . ... ... ...
ROW 29 : ... .. . ... ... ... : ... .. . ... ... ... : ... .. . ... ... ... : ... .. . ... ... ... : ... .. . ... ... ... : ... .. . ... ... ... : ... .. . ... ... ... : ... .. . ... ... ... : ... .. 5 ... ... ... : ... .. . ... ... ... : ... .. . ... ... ... : ... .. . ... ... ... : ... .. . ... ... ...
ROW 2A : ... .. . ... ... ... : ... .. . ... ... ... : ... .. . ... ... ... : --- .. . ... ... ... : ... .. . ... ... ... : ... .. . ... ... ... : ... .. . P82 ... ... : ... .. . ... ... ... : ... .. . ... ... ... : ... .. . ... ... ... : ... .. . ... ... ... : ... .. . ... ... ... : ... .. . ... ... ...
ROW 2B : ... .. . ... ... ... : ... .. . ... ... ... : ... .. . ... ... ... : ... .. . ... ... ... : ... .. . ... ... ... : ... .. . ... ... ... : C-2 09 . P7F ... ... : ... .. . ... ... ... : ... .. . ... ... ... : ... .. . ... ... ... : ... .. . ... ... ... : ... .. . ... ... ... : ... .. . ... ... ...
ROW 2C : ... .. . ... ... ... : C-4 02 . P80 ... ... : C#4 00 . P7F ... ... : 9-# 00 F ... ... ... : C#1 12 . ... ... ... : G-1 06 . ... ... ... : G-1 06 . P81 ... ... : ... .. . ... ... ... : G-1 06 . ... ... ... : ... .. . ... ... ... : ... .. . ... ... ... : ... .. . ... ... ... : ... .. . ... ... ...
ROW 2D : ... .. . ... ... ... : F-3 02 . ... ... ... : F#3 00 . P83 ... ... : 2-# 00 7 ... ... ... : ... .. . ... ... ... : ... .. . ... ... ... : ... .. . P80 ... ... : ... .. . ... ... ... : ... .. . ... ... ... : ... .. . ... ... ... : ... .. . ... ... ... : ... .. . ... ... ... : ... .. . ... ... ...
ROW 2E : ... .. . ... ... ... : A#2 02 . P81 ... ... : C#3 00 . P89 ... ... : 6-# 00 C ... ... ... : ... .. . ... ... ... : ... .. . ... ... ... : ... .. . P81 ... ... : ... .. . ... ... ... : ... .. . ... ... ... : ... .. . ... ... ... : ... .. . ... ... ... : ... .. . ... ... ... : ... .. . ... ... ...
ROW 2F : ... .. . ... ... ... : D#2 02 . ... ... ... : A#2 00 . P75 ... ... : 7-# 00 8 ... ... ... : ... .. . ... ... ... : ... .. . ... ... ... : F#1 06 . P80 ... ... : ... .. . ... ... ... : ... .. . ... ... ... : ... .. . ... ... ... : ... .. . ... ... ... : ... .. . ... ... ... : ... .. . ... ... ...
ROW 30 : ... .. . ... ... ... : G#1 02 . ... ... ... : G-2 00 . P70 ... ... : 8-# 00 7 ... ... ... : ... .. . ... ... ... : ... .. . ... ... ... : G-1 06 . P81 ... ... : ... .. . ... ... ... : ... .. . ... ... ... : ... .. . ... ... ... : ... .. . ... ... ... : ... .. . ... ... ... : ... .. . ... ... ...
ROW 31 : ... .. . ... ... ... : C#1 02 . ... ... ... : E-2 00 . P7C ... ... : ... .. 6 ... ... ... : ... .. . ... ... ... : ... .. . ... ... ... : ... .. . P80 ... ... : ... .. . ... ... ... : ... .. 4 ... ... ... : ... .. . ... ... ... : ... .. . ... ... ... : ... .. . ... ... ... : ... .. . ... ... ...
ROW 32 : ... .. . ... ... ... : ... .. . ... ... ... : --- .. . ... ... ... : ... .. . ... ... ... : ... .. . ... ... ... : G-1 07 . ... ... ... : G-1 07 . P81 ... ... : ... .. . ... ... ... : G-1 07 . ... ... ... : ... .. . ... ... ... : ... .. . ... ... ... : ... .. . ... ... ... : ... .. . ... ... ...
ROW 33 : ... .. . ... ... ... : ... .. . ... ... ... : ... .. . ... ... ... : ... .. 5 ... ... ... : ... .. . ... ... ... : ... .. . ... ... ... : F#1 07 . P80 ... ... : ... .. . ... ... ... : ... .. . ... ... ... : ... .. . ... ... ... : ... .. . ... ... ... : ... .. . ... ... ... : ... .. . ... ... ...
ROW 34 : ... .. . ... ... ... : ... .. . ... ... ... : ... .. . ... ... ... : ... .. . ... ... ... : ... .. . ... ... ... : ... .. . ... ... ... : G-1 07 . P81 ... ... : ... .. . ... ... ... : ... .. . ... ... ... : ... .. . ... ... ... : ... .. . ... ... ... : ... .. . ... ... ... : ... .. . ... ... ...
ROW 35 : ... .. . ... ... ... : ... .. . ... ... ... : ... .. . ... ... ... : ... .. 4 ... ... ... : ... .. . ... ... ... : G-1 08 . ... ... ... : G-1 08 . P80 ... ... : ... .. . ... ... ... : G-1 08 . ... ... ... : ... .. . ... ... ... : ... .. . ... ... ... : ... .. . ... ... ... : ... .. . ... ... ...
ROW 36 : ... .. . ... ... ... : ... .. . ... ... ... : ... .. . ... ... ... : ... .. . ... ... ... : ... .. . ... ... ... : ... .. . ... ... ... : ... .. . P81 ... ... : ... .. . ... ... ... : ... .. . ... ... ... : ... .. . ... ... ... : ... .. . ... ... ... : ... .. . ... ... ... : ... .. . ... ... ...
ROW 37 : ... .. . ... ... ... : ... .. . ... ... ... : ... .. . ... ... ... : ... .. 3 ... ... ... : ... .. . ... ... ... : ... .. . ... ... ... : F#1 08 . P80 ... ... : ... .. . ... ... ... : ... .. . ... ... ... : ... .. . ... ... ... : ... .. . ... ... ... : ... .. . ... ... ... : ... .. . ... ... ...
ROW 38 : ... .. . ... ... ... : ... .. . ... ... ... : ... .. . ... ... ... : 6-# 01 F ... ... ... : ... .. . ... ... ... : B-1 06 . ... ... ... : A#1 06 . P7F ... ... : ... .. . ... ... ... : B-1 06 . ... ... ... : ... .. . ... ... ... : ... .. . ... ... ... : ... .. . ... ... ... : ... .. . ... ... ...
ROW 39 : ... .. . ... ... ... : ... .. . ... ... ... : ... .. . ... ... ... : ... .. 9 ... ... ... : ... .. . ... ... ... : ... .. . ... ... ... : B-1 06 . P81 ... ... : ... .. . ... ... ... : ... .. 3 ... ... ... : ... .. . ... ... ... : ... .. . ... ... ... : ... .. . ... ... ... : ... .. . ... ... ...
ROW 3A : ... .. . ... ... ... : ... .. . ... ... ... : ... .. . ... ... ... : ... .. 4 ... ... ... : ... .. . ... ... ... : ... .. . ... ... ... : ... .. . P80 ... ... : ... .. . ... ... ... : ... .. . ... ... ... : ... .. . ... ... ... : ... .. . ... ... ... : ... .. . ... ... ... : ... .. . ... ... ...
ROW 3B : ... .. . ... ... ... : ... .. . ... ... ... : ... .. . ... ... ... : ... .. 7 ... ... ... : ... .. . ... ... ... : ... .. . ... ... ... : ... .. . P81 ... ... : ... .. . ... ... ... : ... .. . ... ... ... : ... .. . ... ... ... : ... .. . ... ... ... : ... .. . ... ... ... : ... .. . ... ... ...
ROW 3C : ... .. . ... ... ... : ... .. . ... ... ... : ... .. . ... ... ... : ... .. 5 ... ... ... : ... .. . ... ... ... : ... .. . ... ... ... : A#1 06 . P80 ... ... : ... .. . ... ... ... : ... .. . ... ... ... : ... .. . ... ... ... : ... .. . ... ... ... : ... .. . ... ... ... : ... .. . ... ... ...
ROW 3D : ... .. . ... ... ... : ... .. . ... ... ... : ... .. . ... ... ... : ... .. . ... ... ... : ... .. . ... ... ... : ... .. . ... ... ... : B-1 06 . P81 ... ... : ... .. . ... ... ... : ... .. . ... ... ... : ... .. . ... ... ... : ... .. . ... ... ... : ... .. . ... ... ... : ... .. . ... ... ...
ROW 3E : ... .. . ... ... ... : ... .. . ... ... ... : ... .. . ... ... ... : ... .. 4 ... ... ... : ... .. . ... ... ... : B-1 07 . ... ... ... : B-1 07 . P80 ... ... : ... .. . ... ... ... : B-1 07 . ... ... ... : ... .. . ... ... ... : ... .. . ... ... ... : ... .. . ... ... ... : ... .. . ... ... ...
ROW 3F : ... .. . ... ... ... : ... .. . ... ... ... : ... .. . ... ... ... : ... .. . ... ... ... : ... .. . ... ... ... : ... .. . ... ... ... : ... .. . P81 ... ... : ... .. . ... ... ... : ... .. . ... ... ... : ... .. . ... ... ... : ... .. . ... ... ... : ... .. . ... ... ... : ... .. . ... ... ...
ROW 40 : ... .. . ... ... ... : ... .. . ... ... ... : ... .. . ... ... ... : ... .. 3 ... ... ... : ... .. . ... ... ... : ... .. . ... ... ... : A#1 07 . P80 ... ... : ... .. . ... ... ... : ... .. . ... ... ... : ... .. . ... ... ... : ... .. . ... ... ... : ... .. . ... ... ... : ... .. . ... ... ...
ROW 41 : ... .. . ... ... ... : ... .. . ... ... ... : ... .. . ... ... ... : ... .. 2 ... ... ... : ... .. . ... ... ... : B-1 08 . ... ... ... : B-1 08 . P81 ... ... : ... .. . ... ... ... : B-1 08 2 ... ... ... : ... .. . ... ... ... : ... .. . ... ... ... : ... .. . ... ... ... : ... .. . ... ... ...
ROW 42 : ... .. . ... ... ... : ... .. . ... ... ... : ... .. . ... ... ... : ... .. . ... ... ... : ... .. . ... ... ... : ... .. . ... ... ... : ... .. . P80 ... ... : ... .. . ... ... ... : ... .. . ... ... ... : ... .. . ... ... ... : ... .. . ... ... ... : ... .. . ... ... ... : ... .. . ... ... ...
ROW 43 : ... .. . ... ... ... : ... .. . ... ... ... : ... .. . ... ... ... : ... .. 1 ... ... ... : ... .. . ... ... ... : ... .. . ... ... ... : ... .. . P81 ... ... : ... .. . ... ... ... : ... .. . ... ... ... : ... .. . ... ... ... : ... .. . ... ... ... : ... .. . ... ... ... : ... .. . ... ... ...
ROW 44 : ... .. . ... ... ... : ... .. . ... ... ... : ... .. . ... ... ... : ... .. . ... ... ... : ... .. . ... ... ... : ... .. . ... ... ... : A#1 08 . P80 ... ... : ... .. . ... ... ... : ... .. . ... ... ... : ... .. . ... ... ... : ... .. . ... ... ... : ... .. . ... ... ... : ... .. . ... ... ...
ROW 45 : ... .. . ... ... ... : C-4 02 . P80 ... ... : F#3 00 . P78 ... ... : 1-# 00 F ... ... ... : C-1 12 . ... ... ... : G-4 04 A P78 ... ... : A-4 04 A P82 ... ... : ... .. . ... ... ... : F#4 04 9 P89 ... ... : G-4 04 9 P81 ... ... : ... .. . ... ... ... : ... .. . ... ... ... : ... .. . ... ... ...
ROW 46 : ... .. . ... ... ... : F-3 02 . ... ... ... : C#3 00 . P7E ... ... : 2-# 00 7 ... ... ... : ... .. . ... ... ... : G#4 04 . P84 ... ... : ... .. . P81 ... ... : ... .. . ... ... ... : ... .. . P81 ... ... : ... .. . ... ... ... : ... .. . ... ... ... : ... .. . ... ... ... : ... .. . ... ... ...
ROW 47 : ... .. . ... ... ... : A#2 02 . P81 ... ... : A-2 00 . P86 ... ... : 1-# 00 4 ... ... ... : ... .. . ... ... ... : ... .. . P7C ... ... : ... .. . ... ... ... : ... .. . ... ... ... : ... .. . P79 ... ... : ... .. . ... ... ... : ... .. . ... ... ... : ... .. . ... ... ... : ... .. . ... ... ...
ROW 48 : ... .. . ... ... ... : D#2 02 . ... ... ... : --- .. . ... ... ... : ... .. 2 ... ... ... : ... .. . ... ... ... : A-4 04 . P88 ... ... : ... .. . P82 ... ... : ... .. . ... ... ... : G-4 04 . P83 ... ... : ... .. . ... ... ... : ... .. . ... ... ... : ... .. . ... ... ... : ... .. . ... ... ...
ROW 49 : ... .. . ... ... ... : G#1 02 . ... ... ... : ... .. . ... ... ... : ... .. 1 ... ... ... : ... .. . ... ... ... : ... .. . P80 ... ... : ... .. . ... ... ... : ... .. . ... ... ... : ... .. . P7B ... ... : ... .. 8 ... ... ... : ... .. . ... ... ... : ... .. . ... ... ... : ... .. . ... ... ...
ROW 4A : ... .. . ... ... ... : C#1 02 . ... ... ... : ... .. . ... ... ... : --- .. . ... ... ... : ... .. . ... ... ... : ... .. . P78 ... ... : ... .. . P81 ... ... : ... .. . ... ... ... : G#4 04 . P86 ... ... : ... .. . ... ... ... : ... .. . ... ... ... : ... .. . ... ... ... : ... .. . ... ... ...
ROW 4B : ... .. . ... ... ... : ... .. . ... ... ... : ... .. . ... ... ... : ... .. . ... ... ... : ... .. . ... ... ... : ... .. . P7A ... ... : ... .. . P82 ... ... : ... .. . ... ... ... : ... .. . P88 ... ... : ... .. . P83 ... ... : ... .. . ... ... ... : ... .. . ... ... ... : ... .. . ... ... ...
ROW 4C : ... .. . ... ... ... : ... .. . ... ... ... : ... .. . ... ... ... : ... .. . ... ... ... : ... .. . ... ... ... : ... .. . P7C ... ... : ... .. . P85 ... ... : ... .. . ... ... ... : ... .. . P8A ... ... : ... .. . P85 ... ... : ... .. . ... ... ... : ... .. . ... ... ... : ... .. . ... ... ...
ROW 4D : ... .. . ... ... ... : ... .. . ... ... ... : ... .. . ... ... ... : ... .. . ... ... ... : ... .. . ... ... ... : ... .. . P7E ... ... : ... .. . P88 ... ... : ... .. . ... ... ... : G-4 04 8 P79 ... ... : ... .. 7 P87 ... ... : ... .. . ... ... ... : ... .. . ... ... ... : ... .. . ... ... ...
ROW 4E : ... .. . ... ... ... : ... .. . ... ... ... : ... .. . ... ... ... : ... .. . ... ... ... : ... .. . ... ... ... : ... .. . P80 ... ... : ... .. . P89 ... ... : ... .. . ... ... ... : ... .. . P7B ... ... : ... .. . P89 ... ... : ... .. . ... ... ... : ... .. . ... ... ... : ... .. . ... ... ...
ROW 4F : ... .. . ... ... ... : ... .. . ... ... ... : ... .. . ... ... ... : ... .. . ... ... ... : ... .. . ... ... ... : ... .. . P82 ... ... : ... .. . P8A ... ... : ... .. . ... ... ... : ... .. . P7D ... ... : F#4 04 . P79 ... ... : ... .. . ... ... ... : ... .. . ... ... ... : ... .. . ... ... ...
ROW 50 : ... .. . ... ... ... : ... .. . ... ... ... : ... .. . ... ... ... : ... .. . ... ... ... : ... .. . ... ... ... : ... .. . P84 ... ... : G#4 04 . P79 ... ... : ... .. . ... ... ... : ... .. . P7F ... ... : ... .. . P7B ... ... : ... .. . ... ... ... : ... .. . ... ... ... : ... .. . ... ... ...
ROW 51 : ... .. . ... ... ... : ... .. . ... ... ... : ... .. . ... ... ... : D-# 00 A ... ... ... : ... .. . ... ... ... : G#4 04 . P7E ... ... : ... .. . P88 ... ... : ... .. . ... ... ... : F#4 04 . P7B ... ... : F-4 04 6 P78 ... ... : ... .. . ... ... ... : ... .. . ... ... ... : ... .. . ... ... ...
ROW 52 : ... .. . ... ... ... : ... .. . ... ... ... : ... .. . ... ... ... : E-# 00 4 ... ... ... : ... .. . ... ... ... : G-4 04 . P78 ... ... : G-4 04 . P82 ... ... : ... .. . ... ... ... : ... .. . P89 ... ... : ... .. . P86 ... ... : ... .. . ... ... ... : ... .. . ... ... ... : ... .. . ... ... ...
ROW 53 : ... .. . ... ... ... : ... .. . ... ... ... : ... .. . ... ... ... : D-# 00 2 ... ... ... : ... .. . ... ... ... : ... .. . P86 ... ... : F#4 04 . P7D ... ... : ... .. . ... ... ... : F-4 04 . P85 ... ... : E-4 04 . P84 ... ... : ... .. . ... ... ... : ... .. . ... ... ... : ... .. . ... ... ...
ROW 54 : ... .. . ... ... ... : ... .. . ... ... ... : ... .. . ... ... ... : ... .. 1 ... ... ... : ... .. . ... ... ... : F#4 04 . P82 ... ... : F-4 04 . P7B ... ... : ... .. . ... ... ... : E-4 04 . P83 ... ... : D#4 04 . P83 ... ... : ... .. . ... ... ... : ... .. . ... ... ... : ... .. . ... ... ...
ROW 55 : ... .. . ... ... ... : ... .. . ... ... ... : ... .. . ... ... ... : ... .. . ... ... ... : ... .. . ... ... ... : F-4 04 . P7F ... ... : E-4 04 . P7A ... ... : ... .. . ... ... ... : D#4 04 7 P82 ... ... : D-4 04 5 P82 ... ... : ... .. . ... ... ... : ... .. . ... ... ... : ... .. . ... ... ...
ROW 56 : ... .. . ... ... ... : ... .. . ... ... ... : ... .. . ... ... ... : --- .. . ... ... ... : ... .. . ... ... ... : E-4 04 . P7D ... ... : ... .. . P87 ... ... : ... .. . ... ... ... : D-4 04 . ... ... ... : C#4 04 . P83 ... ... : ... .. . ... ... ... : ... .. . ... ... ... : ... .. . ... ... ...
ROW 57 : ... .. . ... ... ... : ... .. . ... ... ... : ... .. . ... ... ... : D-# 00 A ... ... ... : ... .. . ... ... ... : D#4 04 . P7C ... ... : D#4 04 . P85 ... ... : ... .. . ... ... ... : C#4 04 . ... ... ... : C-4 04 . P84 ... ... : ... .. . ... ... ... : ... .. . ... ... ... : ... .. . ... ... ...
ROW 58 : ... .. . ... ... ... : ... .. . ... ... ... : ... .. . ... ... ... : E-# 00 4 ... ... ... : ... .. . ... ... ... : D-4 04 . P7B ... ... : D-4 04 . P84 ... ... : ... .. . ... ... ... : C-4 04 . P83 ... ... : B-3 04 . P86 ... ... : ... .. . ... ... ... : ... .. . ... ... ... : ... .. . ... ... ...
ROW 59 : ... .. . ... ... ... : ... .. . ... ... ... : ... .. . ... ... ... : D-# 00 2 ... ... ... : ... .. . ... ... ... : C#4 04 . P7C ... ... : C#4 04 . P86 ... ... : ... .. . ... ... ... : B-3 04 . P85 ... ... : A-3 04 4 P7E ... ... : ... .. . ... ... ... : ... .. . ... ... ... : ... .. . ... ... ...
ROW 5A : ... .. . ... ... ... : ... .. . ... ... ... : ... .. . ... ... ... : ... .. 1 ... ... ... : ... .. . ... ... ... : C-4 04 . P7D ... ... : B-3 04 . P7B ... ... : ... .. . ... ... ... : A-3 04 . P7D ... ... : G#3 04 . P82 ... ... : ... .. . ... ... ... : ... .. . ... ... ... : ... .. . ... ... ...
ROW 5B : ... .. . ... ... ... : ... .. . ... ... ... : ... .. . ... ... ... : ... .. . ... ... ... : ... .. . ... ... ... : B-3 04 . P7F ... ... : A#3 04 . P7D ... ... : ... .. . ... ... ... : G#3 04 . P81 ... ... : F#3 04 . P7D ... ... : ... .. . ... ... ... : ... .. . ... ... ... : ... .. . ... ... ...
ROW 5C : ... .. . ... ... ... : ... .. . ... ... ... : ... .. . ... ... ... : --- .. . ... ... ... : ... .. . ... ... ... : A#3 04 . P82 ... ... : A-3 04 . P7F ... ... : ... .. . ... ... ... : F#3 04 . P7C ... ... : F-3 04 . P82 ... ... : ... .. . ... ... ... : ... .. . ... ... ... : ... .. . ... ... ...
ROW 5D : ... .. . ... ... ... : ... .. . ... ... ... : ... .. . ... ... ... : ... .. . ... ... ... : ... .. . ... ... ... : A-3 04 . P85 ... ... : G#3 04 . P84 ... ... : ... .. . ... ... ... : F-3 04 6 P82 ... ... : D#3 04 3 P81 ... ... : ... .. . ... ... ... : ... .. . ... ... ... : ... .. . ... ... ...
ROW 5E : ... .. . ... ... ... : C-4 02 . P80 ... ... : C#4 00 . P7F ... ... : 9-# 00 F ... ... ... : C#1 12 . ... ... ... : G#1 04 F P80 ... ... : F#3 04 . P80 ... ... : G-1 04 9 ... ... ... : A-1 04 9 ... ... ... : C#3 04 . ... ... ... : ... .. . ... ... ... : ... .. . ... ... ... : ... .. . ... ... ...
ROW 5F : ... .. . ... ... ... : F-3 02 . ... ... ... : F#3 00 . P83 ... ... : 2-# 00 7 ... ... ... : ... .. . ... ... ... : ... .. . ... ... ... : E-3 04 . P7D ... ... : ... .. . ... ... ... : ... .. . ... ... ... : B-2 04 . P82 ... ... : ... .. . ... ... ... : ... .. . ... ... ... : ... .. . ... ... ...
ROW 60 : ... .. . ... ... ... : A#2 02 . P81 ... ... : C#3 00 . P89 ... ... : 6-# 00 C ... ... ... : ... .. . ... ... ... : ... .. . ... ... ... : D#3 04 . P82 ... ... : ... .. . ... ... ... : ... .. . ... ... ... : G#2 04 . P80 ... ... : ... .. . ... ... ... : ... .. . ... ... ... : ... .. . ... ... ...
ROW 61 : ... .. . ... ... ... : D#2 02 . ... ... ... : A#2 00 . P75 ... ... : 7-# 00 8 ... ... ... : ... .. . ... ... ... : ... .. . ... ... ... : C#3 04 . P83 ... ... : ... .. . ... ... ... : ... .. . ... ... ... : F-2 04 2 ... ... ... : ... .. . ... ... ... : ... .. . ... ... ... : ... .. . ... ... ...
ROW 62 : ... .. . ... ... ... : G#1 02 . ... ... ... : G-2 00 . P70 ... ... : 8-# 00 7 ... ... ... : ... .. . ... ... ... : ... .. . ... ... ... : A#2 04 . P80 ... ... : ... .. 8 ... ... ... : ... .. . ... ... ... : C#2 04 . ... ... ... : ... .. . ... ... ... : ... .. . ... ... ... : ... .. . ... ... ...
ROW 63 : ... .. . ... ... ... : C#1 02 . ... ... ... : E-2 00 . P7C ... ... : ... .. 6 ... ... ... : ... .. . ... ... ... : ... .. . ... ... ... : G#2 04 . P83 ... ... : ... .. . ... ... ... : ... .. . ... ... ... : G#1 04 . P7F ... ... : ... .. . ... ... ... : ... .. . ... ... ... : ... .. . ... ... ...
ROW 64 : ... .. . ... ... ... : ... .. . ... ... ... : --- .. . ... ... ... : ... .. . ... ... ... : ... .. . ... ... ... : G#2 04 . ... ... ... : F-2 04 . P82 ... ... : G#2 04 . P82 ... ... : G#2 04 . P7F ... ... : D-1 04 . P81 ... ... : ... .. . ... ... ... : ... .. . ... ... ... : ... .. . ... ... ...
ROW 65 : ... .. . ... ... ... : ... .. . ... ... ... : ... .. . ... ... ... : ... .. 5 ... ... ... : ... .. . ... ... ... : ... .. . ... ... ... : C#2 04 . ... ... ... : ... .. . ... ... ... : ... .. . ... ... ... : D#0 04 1 ... ... ... : ... .. . ... ... ... : ... .. . ... ... ... : ... .. . ... ... ...
ROW 66 : ... .. . ... ... ... : ... .. . ... ... ... : ... .. . ... ... ... : ... .. . ... ... ... : ... .. . ... ... ... : ... .. . ... ... ... : G-1 04 . P80 ... ... : ... .. 7 ... ... ... : ... .. 8 ... ... ... : --- .. . P7F ... ... : ... .. . ... ... ... : ... .. . ... ... ... : ... .. . ... ... ...
ROW 67 : ... .. . ... ... ... : ... .. . ... ... ... : ... .. . ... ... ... : ... .. 4 ... ... ... : ... .. . ... ... ... : ... .. . ... ... ... : C-1 04 . ... ... ... : ... .. . ... ... ... : ... .. . ... ... ... : D#7 04 . P81 ... ... : ... .. . ... ... ... : ... .. . ... ... ... : ... .. . ... ... ...
ROW 68 : ... .. . ... ... ... : ... .. . ... ... ... : ... .. . ... ... ... : ... .. . ... ... ... : ... .. . ... ... ... : ... .. . ... ... ... : C#0 04 . P81 ... ... : ... .. . ... ... ... : ... .. . ... ... ... : ... .. . ... ... ... : ... .. . ... ... ... : ... .. . ... ... ... : ... .. . ... ... ...
ROW 69 : ... .. . ... ... ... : ... .. . ... ... ... : ... .. . ... ... ... : ... .. 3 ... ... ... : ... .. . ... ... ... : ... .. . ... ... ... : --- .. . ... ... ... : ... .. . ... ... ... : ... .. . ... ... ... : --- .. . ... ... ... : ... .. . ... ... ... : ... .. . ... ... ... : ... .. . ... ... ...
ROW 6A : ... .. . ... ... ... : ... .. . ... ... ... : ... .. . ... ... ... : D-# 00 A ... ... ... : ... .. . ... ... ... : G#1 04 . ... ... ... : ... .. . P80 ... ... : G-1 04 6 P80 ... ... : A-1 04 . P82 ... ... : ... .. . P80 ... ... : ... .. . ... ... ... : ... .. . ... ... ... : ... .. . ... ... ...
ROW 6B : ... .. . ... ... ... : ... .. . ... ... ... : ... .. . ... ... ... : E-# 00 4 ... ... ... : ... .. . ... ... ... : ... .. . ... ... ... : ... .. . ... ... ... : ... .. . ... ... ... : ... .. . ... ... ... : ... .. . ... ... ... : ... .. . ... ... ... : ... .. . ... ... ... : ... .. . ... ... ...
ROW 6C : ... .. . ... ... ... : ... .. . ... ... ... : ... .. . ... ... ... : D-# 00 2 ... ... ... : ... .. . ... ... ... : ... .. . ... ... ... : ... .. . ... ... ... : ... .. . ... ... ... : ... .. . ... ... ... : ... .. . ... ... ... : ... .. . ... ... ... : ... .. . ... ... ... : ... .. . ... ... ...
ROW 6D : ... .. . ... ... ... : ... .. . ... ... ... : ... .. . ... ... ... : ... .. 1 ... ... ... : ... .. . ... ... ... : ... .. . ... ... ... : ... .. . ... ... ... : ... .. . ... ... ... : ... .. . ... ... ... : ... .. . ... ... ... : ... .. . ... ... ... : ... .. . ... ... ... : ... .. . ... ... ...
ROW 6E : ... .. . ... ... ... : ... .. . ... ... ... : ... .. . ... ... ... : ... .. . ... ... ... : ... .. . ... ... ... : ... .. . ... ... ... : ... .. . ... ... ... : ... .. 5 ... ... ... : ... .. 7 ... ... ... : ... .. . ... ... ... : ... .. . ... ... ... : ... .. . ... ... ... : ... .. . ... ... ...
ROW 6F : ... .. . ... ... ... : ... .. . ... ... ... : ... .. . ... ... ... : --- .. . ... ... ... : ... .. . ... ... ... : ... .. . ... ... ... : ... .. . ... ... ... : ... .. . ... ... ... : ... .. . ... ... ... : ... .. . ... ... ... : ... .. . ... ... ... : ... .. . ... ... ... : ... .. . ... ... ...
ROW 70 : ... .. . ... ... ... : ... .. . ... ... ... : ... .. . ... ... ... : D-# 00 A ... ... ... : ... .. . ... ... ... : G#2 04 . ... ... ... : ... .. . ... ... ... : G#2 04 . P82 ... ... : G#2 04 . P7F ... ... : ... .. . ... ... ... : ... .. . ... ... ... : ... .. . ... ... ... : ... .. . ... ... ...
ROW 71 : ... .. . ... ... ... : ... .. . ... ... ... : ... .. . ... ... ... : E-# 00 4 ... ... ... : ... .. . ... ... ... : ... .. . ... ... ... : ... .. . ... ... ... : ... .. . ... ... ... : ... .. . ... ... ... : ... .. . ... ... ... : ... .. . ... ... ... : ... .. . ... ... ... : ... .. . ... ... ...
ROW 72 : ... .. . ... ... ... : ... .. . ... ... ... : ... .. . ... ... ... : D-# 00 2 ... ... ... : ... .. . ... ... ... : ... .. . ... ... ... : ... .. . ... ... ... : ... .. 4 ... ... ... : ... .. . ... ... ... : ... .. . ... ... ... : ... .. . ... ... ... : ... .. . ... ... ... : ... .. . ... ... ...
ROW 73 : ... .. . ... ... ... : ... .. . ... ... ... : ... .. . ... ... ... : ... .. 1 ... ... ... : ... .. . ... ... ... : ... .. . ... ... ... : ... .. . ... ... ... : ... .. . ... ... ... : ... .. . ... ... ... : ... .. . ... ... ... : ... .. . ... ... ... : ... .. . ... ... ... : ... .. . ... ... ...
ROW 74 : ... .. . ... ... ... : ... .. . ... ... ... : ... .. . ... ... ... : ... .. . ... ... ... : ... .. . ... ... ... : ... .. . ... ... ... : ... .. . ... ... ... : ... .. . ... ... ... : ... .. . ... ... ... : ... .. . ... ... ... : ... .. . ... ... ... : ... .. . ... ... ... : ... .. . ... ... ...
ROW 75 : ... .. . ... ... ... : ... .. . ... ... ... : ... .. . ... ... ... : --- .. . ... ... ... : ... .. . ... ... ... : ... .. . ... ... ... : ... .. . ... ... ... : ... .. . ... ... ... : ... .. . ... ... ... : ... .. . ... ... ... : ... .. . ... ... ... : ... .. . ... ... ... : ... .. . ... ... ...
ROW 76 : ... .. . ... ... ... : ... .. . ... ... ... : ... .. . ... ... ... : ... .. . ... ... ... : ... .. . ... ... ... : ... .. . ... ... ... : ... .. . ... ... ... : ... .. 3 ... ... ... : ... .. 6 ... ... ... : ... .. . ... ... ... : ... .. . ... ... ... : ... .. . ... ... ... : ... .. . ... ... ...
ROW 77 : ... .. . ... ... ... : C-4 02 . P80 ... ... : F#3 00 . P78 ... ... : 1-# 00 F ... ... ... : C-1 12 . ... ... ... : B-4 0C 7 P7C ... ... : ... .. . ... ... ... : --- .. . ... ... ... : A#3 0C 1 P85 ... ... : ... .. . ... ... ... : ... .. . ... ... ... : ... .. . ... ... ... : ... .. . ... ... ...
ROW 78 : ... .. . ... ... ... : F-3 02 . ... ... ... : C#3 00 . P7E ... ... : 2-# 00 7 ... ... ... : ... .. . ... ... ... : A#4 0C . P79 ... ... : ... .. . ... ... ... : ... .. . P80 ... ... : G-3 0C . ... ... ... : ... .. . ... ... ... : ... .. . ... ... ... : ... .. . ... ... ... : ... .. . ... ... ...
ROW 79 : ... .. . ... ... ... : A#2 02 . P81 ... ... : A-2 00 . P86 ... ... : 1-# 00 4 ... ... ... : ... .. . ... ... ... : A-4 0C . P78 ... ... : ... .. . ... ... ... : ... .. . ... ... ... : D#3 0C . P82 ... ... : ... .. . ... ... ... : ... .. . ... ... ... : ... .. . ... ... ... : ... .. . ... ... ...
ROW 7A : ... .. . ... ... ... : D#2 02 . ... ... ... : --- .. . ... ... ... : ... .. 2 ... ... ... : ... .. . ... ... ... : G#4 0C . ... ... ... : ... .. . ... ... ... : ... .. . ... ... ... : A#2 0C . P7F ... ... : ... .. . ... ... ... : ... .. . ... ... ... : ... .. . ... ... ... : ... .. . ... ... ...
ROW 7B : ... .. . ... ... ... : G#1 02 . ... ... ... : ... .. . ... ... ... : ... .. 1 ... ... ... : ... .. . ... ... ... : G-4 0C . ... ... ... : ... .. . ... ... ... : ... .. . ... ... ... : E-2 0C . P81 ... ... : ... .. . ... ... ... : ... .. . ... ... ... : ... .. . ... ... ... : ... .. . ... ... ...
ROW 7C : ... .. . ... ... ... : C#1 02 . ... ... ... : ... .. . ... ... ... : --- .. . ... ... ... : ... .. . ... ... ... : --- .. . ... ... ... : ... .. . ... ... ... : ... .. . ... ... ... : --- .. . ... ... ... : ... .. . ... ... ... : ... .. . ... ... ... : ... .. . ... ... ... : ... .. . ... ... ...
ROW 7D : ... .. . ... ... ... : ... .. . ... ... ... : ... .. . ... ... ... : ... .. . ... ... ... : ... .. . ... ... ... : B-4 0C . P7C ... ... : ... .. . ... ... ... : ... .. . ... ... ... : A#3 0C . P85 ... ... : ... .. . ... ... ... : ... .. . ... ... ... : ... .. . ... ... ... : ... .. . ... ... ...
ROW 7E : ... .. . ... ... ... : ... .. . ... ... ... : ... .. . ... ... ... : ... .. . ... ... ... : ... .. . ... ... ... : A#4 0C . P79 ... ... : ... .. . ... ... ... : ... .. . ... ... ... : G-3 0C . ... ... ... : ... .. . ... ... ... : ... .. . ... ... ... : ... .. . ... ... ... : ... .. . ... ... ...
ROW 7F : ... .. . ... ... ... : ... .. . ... ... ... : ... .. . ... ... ... : ... .. . ... ... ... : ... .. . ... ... ... : A-4 0C . P78 ... ... : ... .. . ... ... ... : ... .. . ... ... ... : --- .. . ... ... ... : ... .. . ... ... ... : ... .. . ... ... ... : ... .. . ... ... ... : ... .. . ... ... ...
ROW 80 : ... .. . ... ... ... : ... .. . ... ... ... : ... .. . ... ... ... : ... .. . ... ... ... : ... .. . ... ... ... : G#4 0C . ... ... ... : ... .. . ... ... ... : ... .. . ... ... ... : ... .. . P80 ... ... : ... .. . ... ... ... : ... .. . ... ... ... : ... .. . ... ... ... : ... .. . ... ... ...
ROW 81 : ... .. . ... ... ... : ... .. . ... ... ... : ... .. . ... ... ... : ... .. . ... ... ... : ... .. . ... ... ... : G-4 0C . ... ... ... : ... .. . ... ... ... : ... .. . ... ... ... : ... .. . ... ... ... : ... .. . ... ... ... : ... .. . ... ... ... : ... .. . ... ... ... : ... .. . ... ... ...
ROW 82 : ... .. . ... ... ... : ... .. . ... ... ... : ... .. . ... ... ... : ... .. . ... ... ... : ... .. . ... ... ... : --- .. . ... ... ... : ... .. . ... ... ... : ... .. . ... ... ... : ... .. . ... ... ... : ... .. . ... ... ... : ... .. . ... ... ... : ... .. . ... ... ... : ... .. . ... ... ...
ROW 83 : ... .. . ... ... ... : ... .. . ... ... ... : ... .. . ... ... ... : D-# 00 A ... ... ... : ... .. . ... ... ... : B-2 05 A P80 ... ... : A#2 05 . P7E ... ... : B-2 05 9 P7E ... ... : G#2 05 9 P81 ... ... : ... .. . ... ... ... : ... .. . ... ... ... : ... .. . ... ... ... : ... .. . ... ... ...
ROW 84 : ... .. . ... ... ... : ... .. . ... ... ... : ... .. . ... ... ... : E-# 00 4 ... ... ... : ... .. . ... ... ... : ... .. . ... ... ... : ... .. . P7F ... ... : ... .. . ... ... ... : ... .. . ... ... ... : ... .. . ... ... ... : ... .. . ... ... ... : ... .. . ... ... ... : ... .. . ... ... ...
ROW 85 : ... .. . ... ... ... : ... .. . ... ... ... : ... .. . ... ... ... : D-# 00 2 ... ... ... : ... .. . ... ... ... : ... .. . ... ... ... : ... .. . P7E ... ... : ... .. . ... ... ... : ... .. . ... ... ... : ... .. . ... ... ... : ... .. . ... ... ... : ... .. . ... ... ... : ... .. . ... ... ...
ROW 86 : ... .. . ... ... ... : ... .. . ... ... ... : ... .. . ... ... ... : ... .. 1 ... ... ... : ... .. . ... ... ... : ... .. . ... ... ... : B-2 05 . P83 ... ... : ... .. . ... ... ... : ... .. . ... ... ... : ... .. . ... ... ... : ... .. . ... ... ... : ... .. . ... ... ... : ... .. . ... ... ...
ROW 87 : ... .. . ... ... ... : ... .. . ... ... ... : ... .. . ... ... ... : ... .. . ... ... ... : ... .. . ... ... ... : --- .. . ... ... ... : --- .. . ... ... ... : --- .. . ... ... ... : --- .. . ... ... ... : ... .. . ... ... ... : ... .. . ... ... ... : ... .. . ... ... ... : ... .. . ... ... ...
ROW 88 : ... .. . ... ... ... : ... .. . ... ... ... : ... .. . ... ... ... : --- .. . ... ... ... : ... .. . ... ... ... : ... .. . ... ... ... : ... .. . P80 ... ... : ... .. . P80 ... ... : ... .. . P80 ... ... : ... .. . ... ... ... : ... .. . ... ... ... : ... .. . ... ... ... : ... .. . ... ... ...
ROW 89 : ... .. . ... ... ... : ... .. . ... ... ... : ... .. . ... ... ... : D-# 00 A ... ... ... : ... .. . ... ... ... : B-2 05 4 ... ... ... : A#2 05 4 P7E ... ... : B-2 05 3 P7E ... ... : G#2 05 3 P81 ... ... : ... .. . ... ... ... : ... .. . ... ... ... : ... .. . ... ... ... : ... .. . ... ... ...
ROW 8A : ... .. . ... ... ... : ... .. . ... ... ... : ... .. . ... ... ... : E-# 00 4 ... ... ... : ... .. . ... ... ... : ... .. . ... ... ... : B-2 05 . P83 ... ... : ... .. . ... ... ... : ... .. . ... ... ... : ... .. . ... ... ... : ... .. . ... ... ... : ... .. . ... ... ... : ... .. . ... ... ...
ROW 8B : ... .. . ... ... ... : ... .. . ... ... ... : ... .. . ... ... ... : D-# 00 2 ... ... ... : ... .. . ... ... ... : ... .. . ... ... ... : ... .. . P82 ... ... : ... .. . ... ... ... : ... .. . ... ... ... : ... .. . ... ... ... : ... .. . ... ... ... : ... .. . ... ... ... : ... .. . ... ... ...
ROW 8C : ... .. . ... ... ... : ... .. . ... ... ... : ... .. . ... ... ... : ... .. 1 ... ... ... : ... .. . ... ... ... : ... .. . ... ... ... : A#2 05 . P7E ... ... : ... .. . ... ... ... : ... .. . ... ... ... : ... .. . ... ... ... : ... .. . ... ... ... : ... .. . ... ... ... : ... .. . ... ... ...
ROW 8D : ... .. . ... ... ... : ... .. . ... ... ... : ... .. . ... ... ... : ... .. . ... ... ... : ... .. . ... ... ... : ... .. . ... ... ... : ... .. . P7F ... ... : ... .. 2 ... ... ... : ... .. . ... ... ... : ... .. . ... ... ... : ... .. . ... ... ... : ... .. . ... ... ... : ... .. . ... ... ...
ROW 8E : ... .. . ... ... ... : ... .. . ... ... ... : ... .. . ... ... ... : --- .. . ... ... ... : ... .. . ... ... ... : --- .. . ... ... ... : --- .. . ... ... ... : --- .. . ... ... ... : --- .. . ... ... ... : ... .. . ... ... ... : ... .. . ... ... ... : ... .. . ... ... ... : ... .. . ... ... ...
ROW 8F : ... .. . ... ... ... : ... .. . ... ... ... : ... .. . ... ... ... : ... .. . ... ... ... : ... .. . ... ... ... : ... .. . ... ... ... : ... .. . P80 ... ... : ... .. . P80 ... ... : ... .. . P80 ... ... : ... .. . ... ... ... : ... .. . ... ... ... : ... .. . ... ... ... : ... .. . ... ... ...
ROW 90 : ... .. . ... ... ... : C-4 02 . P80 ... ... : C#4 00 . P7F ... ... : 9-# 00 F ... ... ... : C#1 12 . ... ... ... : C#3 05 A ... ... ... : C#3 05 A P83 ... ... : C#3 05 9 P7E ... ... : B-2 05 9 P81 ... ... : ... .. . ... ... ... : ... .. . ... ... ... : ... .. . ... ... ... : ... .. . ... ... ...
ROW 91 : ... .. . ... ... ... : F-3 02 . ... ... ... : F#3 00 . P83 ... ... : 2-# 00 7 ... ... ... : ... .. . ... ... ... : ... .. . ... ... ... : C-3 05 . P7E ... ... : ... .. . ... ... ... : ... .. . ... ... ... : ... .. . ... ... ... : ... .. . ... ... ... : ... .. . ... ... ... : ... .. . ... ... ...
ROW 92 : ... .. . ... ... ... : A#2 02 . P81 ... ... : C#3 00 . P89 ... ... : 6-# 00 C ... ... ... : ... .. . ... ... ... : ... .. . ... ... ... : C#3 05 . P83 ... ... : ... .. . ... ... ... : ... .. . ... ... ... : ... .. . ... ... ... : ... .. . ... ... ... : ... .. . ... ... ... : ... .. . ... ... ...
ROW 93 : ... .. . ... ... ... : D#2 02 . ... ... ... : A#2 00 . P75 ... ... : 7-# 00 8 ... ... ... : ... .. . ... ... ... : ... .. . ... ... ... : ... .. . P82 ... ... : ... .. . ... ... ... : ... .. . ... ... ... : ... .. . ... ... ... : ... .. . ... ... ... : ... .. . ... ... ... : ... .. . ... ... ...
ROW 94 : ... .. . ... ... ... : G#1 02 . ... ... ... : G-2 00 . P70 ... ... : 8-# 00 7 ... ... ... : ... .. . ... ... ... : --- .. . ... ... ... : --- .. . ... ... ... : --- .. . ... ... ... : --- .. . ... ... ... : ... .. . ... ... ... : ... .. . ... ... ... : ... .. . ... ... ... : ... .. . ... ... ...
ROW 95 : ... .. . ... ... ... : C#1 02 . ... ... ... : E-2 00 . P7C ... ... : ... .. 6 ... ... ... : ... .. . ... ... ... : ... .. . ... ... ... : ... .. . P80 ... ... : ... .. . P80 ... ... : ... .. . P80 ... ... : ... .. . ... ... ... : ... .. . ... ... ... : ... .. . ... ... ... : ... .. . ... ... ...
ROW 96 : ... .. . ... ... ... : ... .. . ... ... ... : --- .. . ... ... ... : ... .. . ... ... ... : ... .. . ... ... ... : C#3 05 4 ... ... ... : C-3 05 4 P7E ... ... : C#3 05 3 P7E ... ... : B-2 05 3 P81 ... ... : ... .. . ... ... ... : ... .. . ... ... ... : ... .. . ... ... ... : ... .. . ... ... ...
ROW 97 : ... .. . ... ... ... : ... .. . ... ... ... : ... .. . ... ... ... : ... .. 5 ... ... ... : ... .. . ... ... ... : ... .. . ... ... ... : C#3 05 . P83 ... ... : ... .. . ... ... ... : ... .. . ... ... ... : ... .. . ... ... ... : ... .. . ... ... ... : ... .. . ... ... ... : ... .. . ... ... ...
ROW 98 : ... .. . ... ... ... : ... .. . ... ... ... : ... .. . ... ... ... : ... .. . ... ... ... : ... .. . ... ... ... : ... .. . ... ... ... : ... .. . ... ... ... : ... .. . ... ... ... : ... .. . ... ... ... : ... .. . ... ... ... : ... .. . ... ... ... : ... .. . ... ... ... : ... .. . ... ... ...
ROW 99 : ... .. . ... ... ... : ... .. . ... ... ... : ... .. . ... ... ... : ... .. 4 ... ... ... : ... .. . ... ... ... : ... .. . ... ... ... : C-3 05 . P7E ... ... : ... .. . ... ... ... : ... .. . ... ... ... : ... .. . ... ... ... : ... .. . ... ... ... : ... .. . ... ... ... : ... .. . ... ... ...
ROW 9A : ... .. . ... ... ... : ... .. . ... ... ... : ... .. . ... ... ... : ... .. . ... ... ... : ... .. . ... ... ... : --- .. . ... ... ... : --- .. . ... ... ... : --- .. . ... ... ... : --- .. . ... ... ... : ... .. . ... ... ... : ... .. . ... ... ... : ... .. . ... ... ... : ... .. . ... ... ...
ROW 9B : ... .. . ... ... ... : ... .. . ... ... ... : ... .. . ... ... ... : ... .. 3 ... ... ... : ... .. . ... ... ... : ... .. . ... ... ... : ... .. . P80 ... ... : ... .. . P80 ... ... : ... .. . P80 ... ... : ... .. . ... ... ... : ... .. . ... ... ... : ... .. . ... ... ... : ... .. . ... ... ...
ROW 9C : ... .. . ... ... ... : ... .. . ... ... ... : ... .. . ... ... ... : D-# 00 A ... ... ... : ... .. . ... ... ... : G#3 05 A ... ... ... : G#3 05 A P82 ... ... : G#3 05 9 P7E ... ... : D#3 05 9 P81 ... ... : ... .. . ... ... ... : ... .. . ... ... ... : ... .. . ... ... ... : ... .. . ... ... ...
ROW 9D : ... .. . ... ... ... : ... .. . ... ... ... : ... .. . ... ... ... : E-# 00 4 ... ... ... : ... .. . ... ... ... : ... .. . ... ... ... : ... .. . P83 ... ... : ... .. . ... ... ... : ... .. . ... ... ... : ... .. . ... ... ... : ... .. . ... ... ... : ... .. . ... ... ... : ... .. . ... ... ...
ROW 9E : ... .. . ... ... ... : ... .. . ... ... ... : ... .. . ... ... ... : D-# 00 2 ... ... ... : ... .. . ... ... ... : ... .. . ... ... ... : ... .. . P84 ... ... : ... .. . ... ... ... : ... .. . ... ... ... : ... .. . ... ... ... : ... .. . ... ... ... : ... .. . ... ... ... : ... .. . ... ... ...
ROW 9F : ... .. . ... ... ... : ... .. . ... ... ... : ... .. . ... ... ... : ... .. 1 ... ... ... : ... .. . ... ... ... : ... .. . ... ... ... : ... .. . P83 ... ... : ... .. . ... ... ... : ... .. . ... ... ... : ... .. . ... ... ... : ... .. . ... ... ... : ... .. . ... ... ... : ... .. . ... ... ...
ROW A0 : ... .. . ... ... ... : ... .. . ... ... ... : ... .. . ... ... ... : ... .. . ... ... ... : ... .. . ... ... ... : --- .. . ... ... ... : --- .. . ... ... ... : --- .. . ... ... ... : --- .. . ... ... ... : ... .. . ... ... ... : ... .. . ... ... ... : ... .. . ... ... ... : ... .. . ... ... ...
ROW A1 : ... .. . ... ... ... : ... .. . ... ... ... : ... .. . ... ... ... : --- .. . ... ... ... : ... .. . ... ... ... : ... .. . ... ... ... : ... .. . P80 ... ... : ... .. . P80 ... ... : ... .. . P80 ... ... : ... .. . ... ... ... : ... .. . ... ... ... : ... .. . ... ... ... : ... .. . ... ... ...
ROW A2 : ... .. . ... ... ... : ... .. . ... ... ... : ... .. . ... ... ... : D-# 00 A ... ... ... : ... .. . ... ... ... : G#3 05 4 ... ... ... : G#3 05 . P84 ... ... : G#3 05 . P7E ... ... : D#3 05 . P81 ... ... : ... .. . ... ... ... : ... .. . ... ... ... : ... .. . ... ... ... : ... .. . ... ... ...
ROW A3 : ... .. . ... ... ... : ... .. . ... ... ... : ... .. . ... ... ... : E-# 00 4 ... ... ... : ... .. . ... ... ... : ... .. . ... ... ... : ... .. . P83 ... ... : ... .. . ... ... ... : ... .. . ... ... ... : ... .. . ... ... ... : ... .. . ... ... ... : ... .. . ... ... ... : ... .. . ... ... ...
ROW A4 : ... .. . ... ... ... : ... .. . ... ... ... : ... .. . ... ... ... : D-# 00 2 ... ... ... : ... .. . ... ... ... : ... .. . ... ... ... : ... .. . P82 ... ... : ... .. . ... ... ... : ... .. . ... ... ... : ... .. . ... ... ... : ... .. . ... ... ... : ... .. . ... ... ... : ... .. . ... ... ...
ROW A5 : ... .. . ... ... ... : ... .. . ... ... ... : ... .. . ... ... ... : ... .. 1 ... ... ... : ... .. . ... ... ... : ... .. . ... ... ... : ... .. . P83 ... ... : ... .. . ... ... ... : ... .. . ... ... ... : ... .. . ... ... ... : ... .. . ... ... ... : ... .. . ... ... ... : ... .. . ... ... ...
ROW A6 : ... .. . ... ... ... : ... .. . ... ... ... : ... .. . ... ... ... : ... .. . ... ... ... : ... .. . ... ... ... : ... .. . ... ... ... : ... .. . P84 ... ... : ... .. 8 ... ... ... : ... .. . ... ... ... : ... .. . ... ... ... : ... .. . ... ... ... : ... .. . ... ... ... : ... .. . ... ... ...
ROW A7 : ... .. . ... ... ... : ... .. . ... ... ... : ... .. . ... ... ... : --- .. . ... ... ... : ... .. . ... ... ... : --- .. . ... ... ... : --- .. . ... ... ... : --- .. . ... ... ... : --- .. . ... ... ... : ... .. . ... ... ... : ... .. . ... ... ... : ... .. . ... ... ... : ... .. . ... ... ...
ROW A8 : ... .. . ... ... ... : ... .. . ... ... ... : ... .. . ... ... ... : ... .. . ... ... ... : ... .. . ... ... ... : ... .. . ... ... ... : ... .. . P80 ... ... : ... .. . P80 ... ... : ... .. . P80 ... ... : ... .. . ... ... ... : ... .. . ... ... ... : ... .. . ... ... ... : ... .. . ... ... ...
ROW A9 : ... .. . ... ... ... : C-4 02 . P80 ... ... : F#3 00 . P78 ... ... : 1-# 00 F ... ... ... : C-1 12 . ... ... ... : G#1 06 F ... ... ... : G#1 06 F P81 ... ... : ... .. . ... ... ... : G#1 06 E P7F ... ... : G#2 06 B P81 ... ... : ... .. . ... ... ... : ... .. . ... ... ... : ... .. . ... ... ...
ROW AA : ... .. . ... ... ... : F-3 02 . ... ... ... : C#3 00 . P7E ... ... : 2-# 00 7 ... ... ... : ... .. . ... ... ... : ... .. . ... ... ... : G-1 06 . P80 ... ... : ... .. . ... ... ... : ... .. . ... ... ... : ... .. . ... ... ... : ... .. . ... ... ... : ... .. . ... ... ... : ... .. . ... ... ...
ROW AB : ... .. . ... ... ... : A#2 02 . P81 ... ... : A-2 00 . P86 ... ... : 1-# 00 4 ... ... ... : ... .. . ... ... ... : ... .. . ... ... ... : ... .. . ... ... ... : ... .. . ... ... ... : ... .. . ... ... ... : ... .. . ... ... ... : ... .. . ... ... ... : ... .. . ... ... ... : ... .. . ... ... ...
ROW AC : ... .. . ... ... ... : D#2 02 . ... ... ... : --- .. . ... ... ... : ... .. 2 ... ... ... : ... .. . ... ... ... : G#1 07 . ... ... ... : G#1 07 . P81 ... ... : ... .. . ... ... ... : G#1 07 . ... ... ... : G#2 07 . ... ... ... : ... .. . ... ... ... : ... .. . ... ... ... : ... .. . ... ... ...
ROW AD : ... .. . ... ... ... : G#1 02 . ... ... ... : ... .. . ... ... ... : ... .. 1 ... ... ... : ... .. . ... ... ... : ... .. . ... ... ... : ... .. . P80 ... ... : ... .. . ... ... ... : ... .. . ... ... ... : ... .. A ... ... ... : ... .. . ... ... ... : ... .. . ... ... ... : ... .. . ... ... ...
ROW AE : ... .. . ... ... ... : C#1 02 . ... ... ... : ... .. . ... ... ... : --- .. . ... ... ... : ... .. . ... ... ... : ... .. . ... ... ... : ... .. . P81 ... ... : ... .. . ... ... ... : ... .. . ... ... ... : ... .. . ... ... ... : ... .. . ... ... ... : ... .. . ... ... ... : ... .. . ... ... ...
ROW AF : ... .. . ... ... ... : ... .. . ... ... ... : ... .. . ... ... ... : ... .. . ... ... ... : ... .. . ... ... ... : G#1 08 . ... ... ... : G-1 08 . P80 ... ... : ... .. . ... ... ... : G#1 08 . ... ... ... : G#2 08 . ... ... ... : ... .. . ... ... ... : ... .. . ... ... ... : ... .. . ... ... ...
ROW B0 : ... .. . ... ... ... : ... .. . ... ... ... : ... .. . ... ... ... : ... .. . ... ... ... : ... .. . ... ... ... : ... .. . ... ... ... : G#1 08 . P81 ... ... : ... .. . ... ... ... : ... .. . ... ... ... : ... .. . ... ... ... : ... .. . ... ... ... : ... .. . ... ... ... : ... .. . ... ... ...
ROW B1 : ... .. . ... ... ... : ... .. . ... ... ... : ... .. . ... ... ... : ... .. . ... ... ... : ... .. . ... ... ... : ... .. . ... ... ... : ... .. . P80 ... ... : ... .. . ... ... ... : ... .. D ... ... ... : ... .. 9 ... ... ... : ... .. . ... ... ... : ... .. . ... ... ... : ... .. . ... ... ...
ROW B2 : ... .. . ... ... ... : ... .. . ... ... ... : ... .. . ... ... ... : ... .. . ... ... ... : ... .. . ... ... ... : G#1 09 . ... ... ... : G#1 09 . P81 ... ... : ... .. . ... ... ... : G#1 09 . ... ... ... : G#2 09 . ... ... ... : ... .. . ... ... ... : ... .. . ... ... ... : ... .. . ... ... ...
ROW B3 : ... .. . ... ... ... : ... .. . ... ... ... : ... .. . ... ... ... : ... .. . ... ... ... : ... .. . ... ... ... : ... .. . ... ... ... : G-1 09 . P80 ... ... : ... .. . ... ... ... : ... .. . ... ... ... : ... .. . ... ... ... : ... .. . ... ... ... : ... .. . ... ... ... : ... .. . ... ... ...
ROW B4 : ... .. . ... ... ... : ... .. . ... ... ... : ... .. . ... ... ... : ... .. . ... ... ... : ... .. . ... ... ... : ... .. . ... ... ... : G#1 09 . P81 ... ... : ... .. . ... ... ... : ... .. . ... ... ... : ... .. . ... ... ... : ... .. . ... ... ... : ... .. . ... ... ... : ... .. . ... ... ...
ROW B5 : ... .. . ... ... ... : ... .. . ... ... ... : ... .. . ... ... ... : D-# 00 A ... ... ... : ... .. . ... ... ... : ... .. . ... ... ... : ... .. . P80 ... ... : ... .. . ... ... ... : ... .. . ... ... ... : ... .. 8 ... ... ... : ... .. . ... ... ... : ... .. . ... ... ... : ... .. . ... ... ...
ROW B6 : ... .. . ... ... ... : ... .. . ... ... ... : ... .. . ... ... ... : E-# 00 4 ... ... ... : ... .. . ... ... ... : ... .. . ... ... ... : ... .. . P81 ... ... : ... .. . ... ... ... : ... .. . ... ... ... : ... .. . ... ... ... : ... .. . ... ... ... : ... .. . ... ... ... : ... .. . ... ... ...
ROW B7 : ... .. . ... ... ... : ... .. . ... ... ... : ... .. . ... ... ... : D-# 00 2 ... ... ... : ... .. . ... ... ... : ... .. . ... ... ... : G-1 09 . P80 ... ... : ... .. . ... ... ... : ... .. . ... ... ... : ... .. . ... ... ... : ... .. . ... ... ... : ... .. . ... ... ... : ... .. . ... ... ...
ROW B8 : ... .. . ... ... ... : ... .. . ... ... ... : ... .. . ... ... ... : ... .. 1 ... ... ... : ... .. . ... ... ... : G#1 08 . ... ... ... : G-1 08 . ... ... ... : ... .. . ... ... ... : G#1 08 . ... ... ... : G#2 08 . ... ... ... : ... .. . ... ... ... : ... .. . ... ... ... : ... .. . ... ... ...
ROW B9 : ... .. . ... ... ... : ... .. . ... ... ... : ... .. . ... ... ... : ... .. . ... ... ... : ... .. . ... ... ... : ... .. . ... ... ... : G#1 08 . P81 ... ... : ... .. . ... ... ... : ... .. C ... ... ... : ... .. 7 ... ... ... : ... .. . ... ... ... : ... .. . ... ... ... : ... .. . ... ... ...
ROW BA : ... .. . ... ... ... : ... .. . ... ... ... : ... .. . ... ... ... : --- .. . ... ... ... : ... .. . ... ... ... : ... .. . ... ... ... : ... .. . P80 ... ... : ... .. . ... ... ... : ... .. . ... ... ... : ... .. . ... ... ... : ... .. . ... ... ... : ... .. . ... ... ... : ... .. . ... ... ...
ROW BB : ... .. . ... ... ... : ... .. . ... ... ... : ... .. . ... ... ... : D-# 00 A ... ... ... : ... .. . ... ... ... : G#1 07 . ... ... ... : G#1 07 . P81 ... ... : ... .. . ... ... ... : G#1 07 . ... ... ... : G#2 07 . ... ... ... : ... .. . ... ... ... : ... .. . ... ... ... : ... .. . ... ... ...
ROW BC : ... .. . ... ... ... : ... .. . ... ... ... : ... .. . ... ... ... : E-# 00 4 ... ... ... : ... .. . ... ... ... : ... .. . ... ... ... : G-1 07 . P80 ... ... : ... .. . ... ... ... : ... .. . ... ... ... : ... .. . ... ... ... : ... .. . ... ... ... : ... .. . ... ... ... : ... .. . ... ... ...
ROW BD : ... .. . ... ... ... : ... .. . ... ... ... : ... .. . ... ... ... : D-# 00 2 ... ... ... : ... .. . ... ... ... : ... .. . ... ... ... : G#1 07 . P81 ... ... : ... .. . ... ... ... : ... .. . ... ... ... : ... .. 6 ... ... ... : ... .. . ... ... ... : ... .. . ... ... ... : ... .. . ... ... ...
ROW BE : ... .. . ... ... ... : ... .. . ... ... ... : ... .. . ... ... ... : ... .. 1 ... ... ... : ... .. . ... ... ... : G#1 06 . ... ... ... : G#1 06 . P80 ... ... : ... .. . ... ... ... : G#1 06 . ... ... ... : G#2 06 . ... ... ... : ... .. . ... ... ... : ... .. . ... ... ... : ... .. . ... ... ...
ROW BF : ... .. . ... ... ... : ... .. . ... ... ... : ... .. . ... ... ... : ... .. . ... ... ... : ... .. . ... ... ... : ... .. . ... ... ... : ... .. . P81 ... ... : ... .. . ... ... ... : ... .. . ... ... ... : ... .. . ... ... ... : ... .. . ... ... ... : ... .. . ... ... ... : ... .. . ... ... ...
ROW C0 : ... .. . ... ... ... : ... .. . ... ... ... : ... .. . ... ... ... : --- .. . ... ... ... : ... .. . ... ... ... : ... .. . ... ... ... : G-1 06 . P80 ... ... : ... .. . ... ... ... : ... .. . ... ... ... : ... .. . ... ... ... : ... .. . ... ... ... : ... .. . ... ... ... : ... .. . ... ... ...
ROW C1 : ... .. . ... ... ... : ... .. . ... ... ... : ... .. . ... ... ... : ... .. . ... ... ... : ... .. . ... ... ... : ... .. . ... ... ... : G#1 06 . P81 ... ... : ... .. . ... ... ... : ... .. B ... ... ... : ... .. 5 ... ... ... : ... .. . ... ... ... : ... .. . ... ... ... : ... .. . ... ... ...
ROW C2 : ... .. . ... ... ... : C-4 02 . P80 ... ... : C#4 00 . P7F ... ... : 9-# 00 F ... ... ... : C#1 12 . ... ... ... : D-2 06 . ... ... ... : D-2 06 . P80 ... ... : ... .. . ... ... ... : D-2 06 . ... ... ... : D-3 06 . ... ... ... : ... .. . ... ... ... : ... .. . ... ... ... : ... .. . ... ... ...
ROW C3 : ... .. . ... ... ... : F-3 02 . ... ... ... : F#3 00 . P83 ... ... : 2-# 00 7 ... ... ... : ... .. . ... ... ... : ... .. . ... ... ... : ... .. . P81 ... ... : ... .. . ... ... ... : ... .. . ... ... ... : ... .. . ... ... ... : ... .. . ... ... ... : ... .. . ... ... ... : ... .. . ... ... ...
ROW C4 : ... .. . ... ... ... : A#2 02 . P81 ... ... : C#3 00 . P89 ... ... : 6-# 00 C ... ... ... : ... .. . ... ... ... : ... .. . ... ... ... : C#2 06 . P7F ... ... : ... .. . ... ... ... : ... .. . ... ... ... : ... .. . ... ... ... : ... .. . ... ... ... : ... .. . ... ... ... : ... .. . ... ... ...
ROW C5 : ... .. . ... ... ... : D#2 02 . ... ... ... : A#2 00 . P75 ... ... : 7-# 00 8 ... ... ... : ... .. . ... ... ... : D-2 08 . ... ... ... : D-2 08 . P82 ... ... : ... .. . ... ... ... : D-2 08 . ... ... ... : D-3 08 4 ... ... ... : ... .. . ... ... ... : ... .. . ... ... ... : ... .. . ... ... ...
ROW C6 : ... .. . ... ... ... : G#1 02 . ... ... ... : G-2 00 . P70 ... ... : 8-# 00 7 ... ... ... : ... .. . ... ... ... : ... .. . ... ... ... : ... .. . P81 ... ... : ... .. . ... ... ... : ... .. . ... ... ... : ... .. . ... ... ... : ... .. . ... ... ... : ... .. . ... ... ... : ... .. . ... ... ...
ROW C7 : ... .. . ... ... ... : C#1 02 . ... ... ... : E-2 00 . P7C ... ... : ... .. 6 ... ... ... : ... .. . ... ... ... : ... .. . ... ... ... : ... .. . ... ... ... : ... .. . ... ... ... : ... .. . ... ... ... : ... .. . ... ... ... : ... .. . ... ... ... : ... .. . ... ... ... : ... .. . ... ... ...
ROW C8 : ... .. . ... ... ... : ... .. . ... ... ... : --- .. . ... ... ... : ... .. . ... ... ... : ... .. . ... ... ... : D-2 09 . ... ... ... : D-2 09 . P82 ... ... : ... .. . ... ... ... : D-2 09 . ... ... ... : D-3 09 . ... ... ... : ... .. . ... ... ... : ... .. . ... ... ... : ... .. . ... ... ...
ROW C9 : ... .. . ... ... ... : ... .. . ... ... ... : ... .. . ... ... ... : ... .. 5 ... ... ... : ... .. . ... ... ... : ... .. . ... ... ... : ... .. . ... ... ... : ... .. . ... ... ... : ... .. A ... ... ... : ... .. 3 ... ... ... : ... .. . ... ... ... : ... .. . ... ... ... : ... .. . ... ... ...
ROW CA : ... .. . ... ... ... : ... .. . ... ... ... : ... .. . ... ... ... : ... .. . ... ... ... : ... .. . ... ... ... : ... .. . ... ... ... : ... .. . P81 ... ... : ... .. . ... ... ... : ... .. . ... ... ... : ... .. . ... ... ... : ... .. . ... ... ... : ... .. . ... ... ... : ... .. . ... ... ...
ROW CB : ... .. . ... ... ... : ... .. . ... ... ... : ... .. . ... ... ... : ... .. 4 ... ... ... : ... .. . ... ... ... : D-2 07 . ... ... ... : D-2 07 . P80 ... ... : ... .. . ... ... ... : D-2 07 . ... ... ... : D-3 07 . ... ... ... : ... .. . ... ... ... : ... .. . ... ... ... : ... .. . ... ... ...
ROW CC : ... .. . ... ... ... : ... .. . ... ... ... : ... .. . ... ... ... : ... .. . ... ... ... : ... .. . ... ... ... : ... .. . ... ... ... : ... .. . P81 ... ... : ... .. . ... ... ... : ... .. . ... ... ... : ... .. . ... ... ... : ... .. . ... ... ... : ... .. . ... ... ... : ... .. . ... ... ...
ROW CD : ... .. . ... ... ... : ... .. . ... ... ... : ... .. . ... ... ... : ... .. 3 ... ... ... : ... .. . ... ... ... : ... .. . ... ... ... : C#2 07 . P7F ... ... : ... .. . ... ... ... : ... .. . ... ... ... : ... .. 2 ... ... ... : ... .. . ... ... ... : ... .. . ... ... ... : ... .. . ... ... ...
ROW CE : ... .. . ... ... ... : ... .. . ... ... ... : ... .. . ... ... ... : D-# 00 A ... ... ... : ... .. . ... ... ... : D-2 06 . ... ... ... : D-2 06 . P81 ... ... : ... .. . ... ... ... : D-2 06 . ... ... ... : D-3 06 . ... ... ... : ... .. . ... ... ... : ... .. . ... ... ... : ... .. . ... ... ...
ROW CF : ... .. . ... ... ... : ... .. . ... ... ... : ... .. . ... ... ... : E-# 00 4 ... ... ... : ... .. . ... ... ... : ... .. . ... ... ... : ... .. . P80 ... ... : ... .. . ... ... ... : ... .. . ... ... ... : ... .. . ... ... ... : ... .. . ... ... ... : ... .. . ... ... ... : ... .. . ... ... ...
ROW D0 : ... .. . ... ... ... : ... .. . ... ... ... : ... .. . ... ... ... : D-# 00 2 ... ... ... : ... .. . ... ... ... : ... .. . ... ... ... : ... .. . P81 ... ... : ... .. . ... ... ... : ... .. . ... ... ... : ... .. . ... ... ... : ... .. . ... ... ... : ... .. . ... ... ... : ... .. . ... ... ...
ROW D1 : ... .. . ... ... ... : ... .. . ... ... ... : ... .. . ... ... ... : ... .. 1 ... ... ... : ... .. . ... ... ... : D-2 08 . ... ... ... : C#2 08 . P7F ... ... : ... .. . ... ... ... : D-2 08 9 ... ... ... : D-3 08 1 ... ... ... : ... .. . ... ... ... : ... .. . ... ... ... : ... .. . ... ... ...
ROW D2 : ... .. . ... ... ... : ... .. . ... ... ... : ... .. . ... ... ... : ... .. . ... ... ... : ... .. . ... ... ... : ... .. . ... ... ... : D-2 08 . P81 ... ... : ... .. . ... ... ... : ... .. . ... ... ... : ... .. . ... ... ... : ... .. . ... ... ... : ... .. . ... ... ... : ... .. . ... ... ...
ROW D3 : ... .. . ... ... ... : ... .. . ... ... ... : ... .. . ... ... ... : --- .. . ... ... ... : ... .. . ... ... ... : ... .. . ... ... ... : ... .. . P80 ... ... : ... .. . ... ... ... : ... .. . ... ... ... : ... .. . ... ... ... : ... .. . ... ... ... : ... .. . ... ... ... : ... .. . ... ... ...
ROW D4 : ... .. . ... ... ... : ... .. . ... ... ... : ... .. . ... ... ... : D-# 00 A ... ... ... : ... .. . ... ... ... : D-2 09 . ... ... ... : D-2 09 . P81 ... ... : ... .. . ... ... ... : D-2 09 . ... ... ... : D-3 09 . ... ... ... : ... .. . ... ... ... : ... .. . ... ... ... : ... .. . ... ... ...
ROW D5 : ... .. . ... ... ... : ... .. . ... ... ... : ... .. . ... ... ... : E-# 00 4 ... ... ... : ... .. . ... ... ... : ... .. . ... ... ... : C#2 09 . P7F ... ... : ... .. . ... ... ... : ... .. . ... ... ... : --- .. . ... ... ... : ... .. . ... ... ... : ... .. . ... ... ... : ... .. . ... ... ...
ROW D6 : ... .. . ... ... ... : ... .. . ... ... ... : ... .. . ... ... ... : D-# 00 2 ... ... ... : ... .. . ... ... ... : ... .. . ... ... ... : D-2 09 . P82 ... ... : ... .. . ... ... ... : ... .. . ... ... ... : ... .. . P80 ... ... : ... .. . ... ... ... : ... .. . ... ... ... : ... .. . ... ... ...
ROW D7 : ... .. . ... ... ... : ... .. . ... ... ... : ... .. . ... ... ... : ... .. 1 ... ... ... : ... .. . ... ... ... : D-2 07 . ... ... ... : D-2 07 . P81 ... ... : ... .. . ... ... ... : D-2 07 . ... ... ... : ... .. . ... ... ... : ... .. . ... ... ... : ... .. . ... ... ... : ... .. . ... ... ...
ROW D8 : ... .. . ... ... ... : ... .. . ... ... ... : ... .. . ... ... ... : ... .. . ... ... ... : ... .. . ... ... ... : ... .. . ... ... ... : ... .. . ... ... ... : ... .. . ... ... ... : ... .. . ... ... ... : ... .. . ... ... ... : ... .. . ... ... ... : ... .. . ... ... ... : ... .. . ... ... ...
ROW D9 : ... .. . ... ... ... : ... .. . ... ... ... : ... .. . ... ... ... : --- .. . ... ... ... : ... .. . ... ... ... : ... .. . ... ... ... : ... .. . P82 ... ... : ... .. . ... ... ... : ... .. 8 ... ... ... : ... .. . ... ... ... : ... .. . ... ... ... : ... .. . ... ... ... : ... .. . ... ... ...
ROW DA : ... .. . ... ... ... : ... .. . ... ... ... : ... .. . ... ... ... : ... .. . ... ... ... : ... .. . ... ... ... : ... .. . ... ... ... : C#2 07 . P7F ... ... : ... .. . ... ... ... : ... .. . ... ... ... : ... .. . ... ... ... : ... .. . ... ... ... : ... .. . ... ... ... : ... .. . ... ... ...
ROW DB : ... .. . ... ... ... : C-4 02 . P80 ... ... : F#3 00 . P78 ... ... : 1-# 00 F ... ... ... : C-1 12 . ... ... ... : C#2 06 . ... ... ... : C#2 06 . P81 ... ... : ... .. . ... ... ... : C#2 06 . ... ... ... : ... .. . ... ... ... : ... .. . ... ... ... : ... .. . ... ... ... : ... .. . ... ... ...
ROW DC : ... .. . ... ... ... : F-3 02 . ... ... ... : C#3 00 . P7E ... ... : 2-# 00 7 ... ... ... : ... .. . ... ... ... : ... .. . ... ... ... : ... .. . P80 ... ... : ... .. . ... ... ... : ... .. . ... ... ... : ... .. . ... ... ... : ... .. . ... ... ... : ... .. . ... ... ... : ... .. . ... ... ...
ROW DD : ... .. . ... ... ... : A#2 02 . P81 ... ... : A-2 00 . P86 ... ... : 1-# 00 4 ... ... ... : ... .. . ... ... ... : ... .. . ... ... ... : ... .. . P81 ... ... : ... .. . ... ... ... : ... .. . ... ... ... : ... .. . ... ... ... : ... .. . ... ... ... : ... .. . ... ... ... : ... .. . ... ... ...
ROW DE : ... .. . ... ... ... : D#2 02 . ... ... ... : --- .. . ... ... ... : ... .. 2 ... ... ... : ... .. . ... ... ... : C#2 09 . ... ... ... : C-2 09 . P7F ... ... : ... .. . ... ... ... : C#2 09 . ... ... ... : ... .. . ... ... ... : ... .. . ... ... ... : ... .. . ... ... ... : ... .. . ... ... ...
ROW DF : ... .. . ... ... ... : G#1 02 . ... ... ... : ... .. . ... ... ... : ... .. 1 ... ... ... : ... .. . ... ... ... : ... .. . ... ... ... : C#2 09 . P81 ... ... : ... .. . ... ... ... : ... .. . ... ... ... : ... .. . ... ... ... : ... .. . ... ... ... : ... .. . ... ... ... : ... .. . ... ... ...
ROW E0 : ... .. . ... ... ... : C#1 02 . ... ... ... : ... .. . ... ... ... : --- .. . ... ... ... : ... .. . ... ... ... : ... .. . ... ... ... : ... .. . P80 ... ... : ... .. . ... ... ... : ... .. . ... ... ... : ... .. . ... ... ... : ... .. . ... ... ... : ... .. . ... ... ... : ... .. . ... ... ...
ROW E1 : ... .. . ... ... ... : ... .. . ... ... ... : ... .. . ... ... ... : ... .. . ... ... ... : ... .. . ... ... ... : C#2 06 . ... ... ... : C#2 06 . P81 ... ... : ... .. . ... ... ... : C#2 06 7 ... ... ... : ... .. . ... ... ... : ... .. . ... ... ... : ... .. . ... ... ... : ... .. . ... ... ...
ROW E2 : ... .. . ... ... ... : ... .. . ... ... ... : ... .. . ... ... ... : ... .. . ... ... ... : ... .. . ... ... ... : ... .. . ... ... ... : C-2 06 . P7F ... ... : ... .. . ... ... ... : ... .. . ... ... ... : ... .. . ... ... ... : ... .. . ... ... ... : ... .. . ... ... ... : ... .. . ... ... ...
ROW E3 : ... .. . ... ... ... : ... .. . ... ... ... : ... .. . ... ... ... : ... .. . ... ... ... : ... .. . ... ... ... : ... .. . ... ... ... : C#2 06 . P81 ... ... : ... .. . ... ... ... : ... .. . ... ... ... : ... .. . ... ... ... : ... .. . ... ... ... : ... .. . ... ... ... : ... .. . ... ... ...
ROW E4 : ... .. . ... ... ... : ... .. . ... ... ... : ... .. . ... ... ... : ... .. . ... ... ... : ... .. . ... ... ... : C#2 09 . ... ... ... : C#2 09 . P80 ... ... : ... .. . ... ... ... : C#2 09 . ... ... ... : ... .. . ... ... ... : ... .. . ... ... ... : ... .. . ... ... ... : ... .. . ... ... ...
ROW E5 : ... .. . ... ... ... : ... .. . ... ... ... : ... .. . ... ... ... : ... .. . ... ... ... : ... .. . ... ... ... : ... .. . ... ... ... : ... .. . P81 ... ... : ... .. . ... ... ... : ... .. . ... ... ... : ... .. . ... ... ... : ... .. . ... ... ... : ... .. . ... ... ... : ... .. . ... ... ...
ROW E6 : ... .. . ... ... ... : ... .. . ... ... ... : ... .. . ... ... ... : ... .. . ... ... ... : ... .. . ... ... ... : ... .. . ... ... ... : ... .. . P82 ... ... : ... .. . ... ... ... : ... .. . ... ... ... : ... .. . ... ... ... : ... .. . ... ... ... : ... .. . ... ... ... : ... .. . ... ... ...
ROW E7 : ... .. . ... ... ... : ... .. . ... ... ... : ... .. . ... ... ... : D-# 00 A ... ... ... : ... .. . ... ... ... : C#2 06 . ... ... ... : C#2 06 . ... ... ... : ... .. . ... ... ... : C#2 06 . ... ... ... : ... .. . ... ... ... : ... .. . ... ... ... : ... .. . ... ... ... : ... .. . ... ... ...
ROW E8 : ... .. . ... ... ... : ... .. . ... ... ... : ... .. . ... ... ... : E-# 00 4 ... ... ... : ... .. . ... ... ... : ... .. . ... ... ... : ... .. . P81 ... ... : ... .. . ... ... ... : ... .. . ... ... ... : ... .. . ... ... ... : ... .. . ... ... ... : ... .. . ... ... ... : ... .. . ... ... ...
ROW E9 : ... .. . ... ... ... : ... .. . ... ... ... : ... .. . ... ... ... : D-# 00 2 ... ... ... : ... .. . ... ... ... : ... .. . ... ... ... : ... .. . ... ... ... : ... .. . ... ... ... : ... .. 6 ... ... ... : ... .. . ... ... ... : ... .. . ... ... ... : ... .. . ... ... ... : ... .. . ... ... ...
ROW EA : ... .. . ... ... ... : ... .. . ... ... ... : ... .. . ... ... ... : ... .. 1 ... ... ... : ... .. . ... ... ... : C#2 09 . ... ... ... : C#2 09 . P82 ... ... : ... .. . ... ... ... : C#2 09 . ... ... ... : ... .. . ... ... ... : ... .. . ... ... ... : ... .. . ... ... ... : ... .. . ... ... ...
ROW EB : ... .. . ... ... ... : ... .. . ... ... ... : ... .. . ... ... ... : ... .. . ... ... ... : ... .. . ... ... ... : ... .. . ... ... ... : C-2 09 . P7F ... ... : ... .. . ... ... ... : ... .. . ... ... ... : ... .. . ... ... ... : ... .. . ... ... ... : ... .. . ... ... ... : ... .. . ... ... ...
ROW EC : ... .. . ... ... ... : ... .. . ... ... ... : ... .. . ... ... ... : --- .. . ... ... ... : ... .. . ... ... ... : ... .. . ... ... ... : C#2 09 . P81 ... ... : ... .. . ... ... ... : ... .. . ... ... ... : ... .. . ... ... ... : ... .. . ... ... ... : ... .. . ... ... ... : ... .. . ... ... ...
ROW ED : ... .. . ... ... ... : ... .. . ... ... ... : ... .. . ... ... ... : D-# 00 A ... ... ... : ... .. . ... ... ... : C#2 06 . ... ... ... : C#2 06 . P80 ... ... : ... .. . ... ... ... : C#2 06 . ... ... ... : ... .. . ... ... ... : ... .. . ... ... ... : ... .. . ... ... ... : ... .. . ... ... ...
ROW EE : ... .. . ... ... ... : ... .. . ... ... ... : ... .. . ... ... ... : E-# 00 4 ... ... ... : ... .. . ... ... ... : ... .. . ... ... ... : ... .. . P81 ... ... : ... .. . ... ... ... : ... .. . ... ... ... : ... .. . ... ... ... : ... .. . ... ... ... : ... .. . ... ... ... : ... .. . ... ... ...
ROW EF : ... .. . ... ... ... : ... .. . ... ... ... : ... .. . ... ... ... : D-# 00 2 ... ... ... : ... .. . ... ... ... : ... .. . ... ... ... : C-2 06 . P7F ... ... : ... .. . ... ... ... : ... .. . ... ... ... : ... .. . ... ... ... : ... .. . ... ... ... : ... .. . ... ... ... : ... .. . ... ... ...
ROW F0 : ... .. . ... ... ... : ... .. . ... ... ... : ... .. . ... ... ... : ... .. 1 ... ... ... : ... .. . ... ... ... : C#2 09 . ... ... ... : C#2 09 . P81 ... ... : ... .. . ... ... ... : C#2 09 . ... ... ... : ... .. . ... ... ... : ... .. . ... ... ... : ... .. . ... ... ... : ... .. . ... ... ...
ROW F1 : ... .. . ... ... ... : ... .. . ... ... ... : ... .. . ... ... ... : ... .. . ... ... ... : ... .. . ... ... ... : ... .. . ... ... ... : ... .. . P80 ... ... : ... .. . ... ... ... : ... .. 5 ... ... ... : ... .. . ... ... ... : ... .. . ... ... ... : ... .. . ... ... ... : ... .. . ... ... ...
ROW F2 : ... .. . ... ... ... : ... .. . ... ... ... : ... .. . ... ... ... : --- .. . ... ... ... : ... .. . ... ... ... : ... .. . ... ... ... : ... .. . P81 ... ... : ... .. . ... ... ... : ... .. . ... ... ... : ... .. . ... ... ... : ... .. . ... ... ... : ... .. . ... ... ... : ... .. . ... ... ...
ROW F3 : ... .. . ... ... ... : ... .. . ... ... ... : ... .. . ... ... ... : ... .. . ... ... ... : ... .. . ... ... ... : ... .. . ... ... ... : C-2 09 . P7F ... ... : ... .. . ... ... ... : ... .. . ... ... ... : ... .. . ... ... ... : ... .. . ... ... ... : ... .. . ... ... ... : ... .. . ... ... ...
ROW F4 : ... .. . ... ... ... : C-4 02 . P80 ... ... : C#4 00 . P7F ... ... : 9-# 00 F ... ... ... : C#1 12 . ... ... ... : F#1 06 . ... ... ... : F#1 06 . P81 ... ... : ... .. . ... ... ... : F#1 06 . ... ... ... : ... .. . ... ... ... : ... .. . ... ... ... : ... .. . ... ... ... : ... .. . ... ... ...
ROW F5 : ... .. . ... ... ... : F-3 02 . ... ... ... : F#3 00 . P83 ... ... : 2-# 00 7 ... ... ... : ... .. . ... ... ... : ... .. . ... ... ... : ... .. . P80 ... ... : ... .. . ... ... ... : ... .. . ... ... ... : ... .. . ... ... ... : ... .. . ... ... ... : ... .. . ... ... ... : ... .. . ... ... ...
ROW F6 : ... .. . ... ... ... : A#2 02 . P81 ... ... : C#3 00 . P89 ... ... : 6-# 00 C ... ... ... : ... .. . ... ... ... : ... .. . ... ... ... : ... .. . P81 ... ... : ... .. . ... ... ... : ... .. . ... ... ... : ... .. . ... ... ... : ... .. . ... ... ... : ... .. . ... ... ... : ... .. . ... ... ...
ROW F7 : ... .. . ... ... ... : D#2 02 . ... ... ... : A#2 00 . P75 ... ... : 7-# 00 8 ... ... ... : ... .. . ... ... ... : ... .. . ... ... ... : F-1 06 . P80 ... ... : ... .. . ... ... ... : ... .. . ... ... ... : ... .. . ... ... ... : ... .. . ... ... ... : ... .. . ... ... ... : ... .. . ... ... ...
ROW F8 : ... .. . ... ... ... : G#1 02 . ... ... ... : G-2 00 . P70 ... ... : 8-# 00 7 ... ... ... : ... .. . ... ... ... : ... .. . ... ... ... : ... .. . ... ... ... : ... .. . ... ... ... : ... .. . ... ... ... : ... .. . ... ... ... : ... .. . ... ... ... : ... .. . ... ... ... : ... .. . ... ... ...
ROW F9 : ... .. . ... ... ... : C#1 02 . ... ... ... : E-2 00 . P7C ... ... : ... .. 6 ... ... ... : ... .. . ... ... ... : ... .. . ... ... ... : F#1 06 . P81 ... ... : ... .. . ... ... ... : ... .. 4 ... ... ... : ... .. . ... ... ... : ... .. . ... ... ... : ... .. . ... ... ... : ... .. . ... ... ...
ROW FA : ... .. . ... ... ... : ... .. . ... ... ... : --- .. . ... ... ... : ... .. . ... ... ... : ... .. . ... ... ... : F#1 07 . ... ... ... : F#1 07 . P80 ... ... : ... .. . ... ... ... : F#1 07 . ... ... ... : ... .. . ... ... ... : ... .. . ... ... ... : ... .. . ... ... ... : ... .. . ... ... ...
ROW FB : ... .. . ... ... ... : ... .. . ... ... ... : ... .. . ... ... ... : ... .. 5 ... ... ... : ... .. . ... ... ... : ... .. . ... ... ... : ... .. . P81 ... ... : ... .. . ... ... ... : ... .. . ... ... ... : ... .. . ... ... ... : ... .. . ... ... ... : ... .. . ... ... ... : ... .. . ... ... ...
ROW FC : ... .. . ... ... ... : ... .. . ... ... ... : ... .. . ... ... ... : ... .. . ... ... ... : ... .. . ... ... ... : ... .. . ... ... ... : F-1 07 . P80 ... ... : ... .. . ... ... ... : ... .. . ... ... ... : ... .. . ... ... ... : ... .. . ... ... ... : ... .. . ... ... ... : ... .. . ... ... ...
ROW FD : ... .. . ... ... ... : ... .. . ... ... ... : ... .. . ... ... ... : ... .. 4 ... ... ... : ... .. . ... ... ... : F-1 07 . ... ... ... : ... .. . P81 ... ... : ... .. . ... ... ... : ... .. . P81 ... ... : ... .. . ... ... ... : ... .. . ... ... ... : ... .. . ... ... ... : ... .. . ... ... ...
ROW FE : ... .. . ... ... ... : ... .. . ... ... ... : ... .. . ... ... ... : ... .. . ... ... ... : ... .. . ... ... ... : E-1 07 . ... ... ... : E-1 07 . P80 ... ... : ... .. . ... ... ... : F-1 07 . ... ... ... : ... .. . ... ... ... : ... .. . ... ... ... : ... .. . ... ... ... : ... .. . ... ... ...
ROW FF : ... .. . ... ... ... : ... .. . ... ... ... : ... .. . ... ... ... : ... .. 3 ... ... ... : ... .. . ... ... ... : D#1 07 . ... ... ... : D-1 07 . ... ... ... : ... .. . ... ... ... : E-1 07 . ... ... ... : ... .. . ... ... ... : ... .. . ... ... ... : ... .. . ... ... ... : ... .. . ... ... ...

PATTERN 17
ROW 00 : ... .. . ... ... ... : ... .. . ... ... ... : ... .. . ... ... ... : 6-# 01 F ... ... ... : ... .. . ... ... ... : D-1 08 . P81 ... ... : C#1 08 . P81 ... ... : ... .. . ... ... ... : D-1 08 . P80 ... ... : ... .. . ... ... ... : ... .. . ... ... ... : ... .. . ... ... ... : ... .. . ... ... ...
ROW 01 : ... .. . ... ... ... : ... .. . ... ... ... : ... .. . ... ... ... : ... .. 9 ... ... ... : ... .. . ... ... ... : C#1 08 . ... ... ... : C-1 08 . P80 ... ... : ... .. . ... ... ... : C#1 08 3 ... ... ... : ... .. . ... ... ... : ... .. . ... ... ... : ... .. . ... ... ... : ... .. . ... ... ...
ROW 02 : ... .. . ... ... ... : ... .. . ... ... ... : ... .. . ... ... ... : ... .. 4 ... ... ... : ... .. . ... ... ... : B-0 08 . P80 ... ... : B-0 08 . ... ... ... : ... .. . ... ... ... : C-1 08 . ... ... ... : ... .. . ... ... ... : ... .. . ... ... ... : ... .. . ... ... ... : ... .. . ... ... ...
ROW 03 : ... .. . ... ... ... : ... .. . ... ... ... : ... .. . ... ... ... : ... .. 7 ... ... ... : ... .. . ... ... ... : A#0 08 . ... ... ... : A-0 08 . ... ... ... : ... .. . ... ... ... : B-0 08 . P81 ... ... : ... .. . ... ... ... : ... .. . ... ... ... : ... .. . ... ... ... : ... .. . ... ... ...
ROW 04 : ... .. . ... ... ... : ... .. . ... ... ... : ... .. . ... ... ... : ... .. 5 ... ... ... : ... .. . ... ... ... : A-0 08 . P81 ... ... : G-0 08 . P81 ... ... : ... .. . ... ... ... : A-0 08 . P80 ... ... : ... .. . ... ... ... : ... .. . ... ... ... : ... .. . ... ... ... : ... .. . ... ... ...
ROW 05 : ... .. . ... ... ... : ... .. . ... ... ... : ... .. . ... ... ... : ... .. . ... ... ... : ... .. . ... ... ... : G-0 08 . ... ... ... : F#0 08 . ... ... ... : ... .. . ... ... ... : G#0 08 . P81 ... ... : ... .. . ... ... ... : ... .. . ... ... ... : ... .. . ... ... ... : ... .. . ... ... ...
ROW 06 : ... .. . ... ... ... : ... .. . ... ... ... : ... .. . ... ... ... : ... .. 4 ... ... ... : ... .. . ... ... ... : F-0 09 . P80 ... ... : F-0 09 . ... ... ... : ... .. . ... ... ... : F#0 09 . P80 ... ... : ... .. . ... ... ... : ... .. . ... ... ... : ... .. . ... ... ... : ... .. . ... ... ...
ROW 07 : ... .. . ... ... ... : ... .. . ... ... ... : ... .. . ... ... ... : ... .. . ... ... ... : ... .. . ... ... ... : D#0 09 . ... ... ... : D#0 09 . ... ... ... : ... .. . ... ... ... : E-0 09 . ... ... ... : ... .. . ... ... ... : ... .. . ... ... ... : ... .. . ... ... ... : ... .. . ... ... ...
ROW 08 : ... .. . ... ... ... : ... .. . ... ... ... : ... .. . ... ... ... : ... .. 3 ... ... ... : ... .. . ... ... ... : C#0 09 . P81 ... ... : C-0 09 . ... ... ... : ... .. . ... ... ... : D-0 09 . ... ... ... : ... .. . ... ... ... : ... .. . ... ... ... : ... .. . ... ... ... : ... .. . ... ... ...
ROW 09 : ... .. . ... ... ... : ... .. . ... ... ... : ... .. . ... ... ... : ... .. 2 ... ... ... : ... .. . ... ... ... : C-0 09 . P82 ... ... : ... .. . P83 ... ... : ... .. . ... ... ... : C-0 09 2 P81 ... ... : ... .. . ... ... ... : ... .. . ... ... ... : ... .. . ... ... ... : ... .. . ... ... ...
ROW 0A : ... .. . ... ... ... : ... .. . ... ... ... : ... .. . ... ... ... : ... .. . ... ... ... : ... .. . ... ... ... : ... .. . P84 ... ... : ... .. . P84 ... ... : ... .. . ... ... ... : ... .. . P83 ... ... : ... .. . ... ... ... : ... .. . ... ... ... : ... .. . ... ... ... : ... .. . ... ... ...
ROW 0B : ... .. . ... ... ... : ... .. . ... ... ... : ... .. . ... ... ... : ... .. 1 ... ... ... : ... .. . ... ... ... : ... .. . P86 ... ... : ... .. . P86 ... ... : ... .. . ... ... ... : ... .. . P85 ... ... : ... .. . ... ... ... : ... .. . ... ... ... : ... .. . ... ... ... : ... .. . ... ... ...
ROW 0C : ... .. . ... ... ... : ... .. . ... ... ... : ... .. . ... ... ... : ... .. . ... ... ... : ... .. . ... ... ... : --- .. . P7A ... ... : --- .. . P7B ... ... : ... .. . ... ... ... : ... .. . P87 ... ... : ... .. . ... ... ... : ... .. . ... ... ... : ... .. . ... ... ... : ... .. . ... ... ...
ROW 0D : ... .. . ... ... ... : C-4 02 . P80 ... ... : F#3 00 . P78 ... ... : 1-# 00 F ... ... ... : C-1 12 . ... ... ... : G-4 04 A P78 ... ... : A-4 04 A P82 ... ... : ... .. . ... ... ... : F#4 04 9 P89 ... ... : G-4 04 9 P81 ... ... : ... .. . ... ... ... : ... .. . ... ... ... : ... .. . ... ... ...
ROW 0E : ... .. . ... ... ... : F-3 02 . ... ... ... : C#3 00 . P7E ... ... : 2-# 00 7 ... ... ... : ... .. . ... ... ... : G#4 04 . P84 ... ... : ... .. . P81 ... ... : ... .. . ... ... ... : ... .. . P81 ... ... : ... .. . ... ... ... : ... .. . ... ... ... : ... .. . ... ... ... : ... .. . ... ... ...
ROW 0F : ... .. . ... ... ... : A#2 02 . P81 ... ... : A-2 00 . P86 ... ... : 1-# 00 4 ... ... ... : ... .. . ... ... ... : ... .. . P7C ... ... : ... .. . P80 ... ... : ... .. . ... ... ... : ... .. . P79 ... ... : ... .. . ... ... ... : ... .. . ... ... ... : ... .. . ... ... ... : ... .. . ... ... ...
ROW 10 : ... .. . ... ... ... : D#2 02 . ... ... ... : --- .. . ... ... ... : ... .. 2 ... ... ... : ... .. . ... ... ... : --- .. . ... ... ... : --- .. . ... ... ... : ... .. . ... ... ... : --- .. . ... ... ... : --- .. . ... ... ... : ... .. . ... ... ... : ... .. . ... ... ... : ... .. . ... ... ...
ROW 11 : ... .. . ... ... ... : G#1 02 . ... ... ... : ... .. . ... ... ... : ... .. 1 ... ... ... : ... .. . ... ... ... : ... .. . P80 ... ... : ... .. . ... ... ... : ... .. . ... ... ... : ... .. . P80 ... ... : ... .. . P80 ... ... : ... .. . ... ... ... : ... .. . ... ... ... : ... .. . ... ... ...
ROW 12 : ... .. . ... ... ... : C#1 02 . ... ... ... : ... .. . ... ... ... : --- .. . ... ... ... : ... .. . ... ... ... : ... .. . ... ... ... : ... .. . ... ... ... : ... .. . ... ... ... : ... .. . ... ... ... : ... .. . ... ... ... : ... .. . ... ... ... : ... .. . ... ... ... : ... .. . ... ... ...
ROW 13 : ... .. . ... ... ... : ... .. . ... ... ... : ... .. . ... ... ... : 1-# 00 F ... ... ... : C-1 12 . ... ... ... : A-4 04 . P7A ... ... : A-4 04 . P82 ... ... : ... .. . ... ... ... : G#4 04 . P88 ... ... : G-4 04 . P83 ... ... : ... .. . ... ... ... : ... .. . ... ... ... : ... .. . ... ... ...
ROW 14 : ... .. . ... ... ... : ... .. . ... ... ... : ... .. . ... ... ... : 2-# 00 7 ... ... ... : ... .. . ... ... ... : ... .. . P7C ... ... : ... .. . P85 ... ... : ... .. . ... ... ... : ... .. . P8A ... ... : ... .. . P85 ... ... : ... .. . ... ... ... : ... .. . ... ... ... : ... .. . ... ... ...
ROW 15 : ... .. . ... ... ... : ... .. . ... ... ... : ... .. . ... ... ... : 1-# 00 4 ... ... ... : ... .. . ... ... ... : ... .. . P7E ... ... : ... .. . P88 ... ... : ... .. . ... ... ... : G-4 04 . P79 ... ... : ... .. . P87 ... ... : ... .. . ... ... ... : ... .. . ... ... ... : ... .. . ... ... ...
ROW 16 : ... .. . ... ... ... : ... .. . ... ... ... : ... .. . ... ... ... : ... .. 2 ... ... ... : ... .. . ... ... ... : --- .. . ... ... ... : --- .. . ... ... ... : ... .. . ... ... ... : --- .. . ... ... ... : --- .. . ... ... ... : ... .. . ... ... ... : ... .. . ... ... ... : ... .. . ... ... ...
ROW 17 : ... .. . ... ... ... : ... .. . ... ... ... : ... .. . ... ... ... : ... .. 1 ... ... ... : ... .. . ... ... ... : ... .. . P80 ... ... : ... .. . P80 ... ... : ... .. . ... ... ... : ... .. . P80 ... ... : ... .. . P80 ... ... : ... .. . ... ... ... : ... .. . ... ... ... : ... .. . ... ... ...
ROW 18 : ... .. . ... ... ... : ... .. . ... ... ... : ... .. . ... ... ... : --- .. . ... ... ... : ... .. . ... ... ... : ... .. . ... ... ... : ... .. . ... ... ... : ... .. . ... ... ... : ... .. . ... ... ... : ... .. . ... ... ... : ... .. . ... ... ... : ... .. . ... ... ... : ... .. . ... ... ...
ROW 19 : ... .. . ... ... ... : ... .. . ... ... ... : ... .. . ... ... ... : A-# 00 F ... ... ... : C-1 12 . ... ... ... : G#4 04 . P7E ... ... : G#4 04 . P88 ... ... : ... .. . ... ... ... : F#4 04 . P7B ... ... : F-4 04 . P78 ... ... : ... .. . ... ... ... : ... .. . ... ... ... : ... .. . ... ... ...
ROW 1A : ... .. . ... ... ... : ... .. . ... ... ... : ... .. . ... ... ... : 6-# 00 9 ... ... ... : ... .. . ... ... ... : G-4 04 . P78 ... ... : G-4 04 . P83 ... ... : ... .. . ... ... ... : ... .. . P89 ... ... : ... .. . P86 ... ... : ... .. . ... ... ... : ... .. . ... ... ... : ... .. . ... ... ...
ROW 1B : ... .. . ... ... ... : ... .. . ... ... ... : ... .. . ... ... ... : 7-# 00 C ... ... ... : ... .. . ... ... ... : ... .. . P86 ... ... : F#4 04 . P7E ... ... : ... .. . ... ... ... : F-4 04 . P85 ... ... : E-4 04 . P84 ... ... : ... .. . ... ... ... : ... .. . ... ... ... : ... .. . ... ... ...
ROW 1C : ... .. . ... ... ... : ... .. . ... ... ... : ... .. . ... ... ... : ... .. 8 ... ... ... : ... .. . ... ... ... : F#4 04 . P82 ... ... : F-4 04 . P7A ... ... : ... .. . ... ... ... : E-4 04 . P83 ... ... : D#4 04 . P83 ... ... : ... .. . ... ... ... : ... .. . ... ... ... : ... .. . ... ... ...
ROW 1D : ... .. . ... ... ... : ... .. . ... ... ... : ... .. . ... ... ... : 8-# 00 7 ... ... ... : ... .. . ... ... ... : F-4 04 . P7F ... ... : E-4 04 . P79 ... ... : ... .. . ... ... ... : D#4 04 . P82 ... ... : D-4 04 8 P82 ... ... : ... .. . ... ... ... : ... .. . ... ... ... : ... .. . ... ... ...
ROW 1E : ... .. . ... ... ... : ... .. . ... ... ... : ... .. . ... ... ... : ... .. 8 ... ... ... : ... .. . ... ... ... : E-4 04 . P7D ... ... : ... .. . P88 ... ... : ... .. . ... ... ... : D-4 04 . ... ... ... : C#4 04 . P83 ... ... : ... .. . ... ... ... : ... .. . ... ... ... : ... .. . ... ... ...
ROW 1F : ... .. . ... ... ... : ... .. . ... ... ... : ... .. . ... ... ... : 9-# 00 7 ... ... ... : ... .. . ... ... ... : D#4 04 . P7C ... ... : D#4 04 . P85 ... ... : ... .. . ... ... ... : C#4 04 . ... ... ... : C-4 04 . P84 ... ... : ... .. . ... ... ... : ... .. . ... ... ... : ... .. . ... ... ...
ROW 20 : ... .. . ... ... ... : ... .. . ... ... ... : ... .. . ... ... ... : ... .. 6 ... ... ... : ... .. . ... ... ... : D-4 04 . P7B ... ... : D-4 04 . P84 ... ... : ... .. . ... ... ... : C-4 04 . P83 ... ... : B-3 04 . P86 ... ... : ... .. . ... ... ... : ... .. . ... ... ... : ... .. . ... ... ...
ROW 21 : ... .. . ... ... ... : ... .. . ... ... ... : ... .. . ... ... ... : ... .. 5 ... ... ... : ... .. . ... ... ... : C#4 04 . P7C ... ... : C#4 04 . P85 ... ... : ... .. . ... ... ... : B-3 04 8 P85 ... ... : A-3 04 7 P7E ... ... : ... .. . ... ... ... : ... .. . ... ... ... : ... .. . ... ... ...
ROW 22 : ... .. . ... ... ... : ... .. . ... ... ... : ... .. . ... ... ... : ... .. . ... ... ... : ... .. . ... ... ... : C-4 04 . P7D ... ... : B-3 04 . P7B ... ... : ... .. . ... ... ... : A-3 04 . P7D ... ... : G#3 04 . P82 ... ... : ... .. . ... ... ... : ... .. . ... ... ... : ... .. . ... ... ...
ROW 23 : ... .. . ... ... ... : ... .. . ... ... ... : ... .. . ... ... ... : ... .. . ... ... ... : ... .. . ... ... ... : B-3 04 . P7F ... ... : A#3 04 . P7D ... ... : ... .. . ... ... ... : G#3 04 . P81 ... ... : F#3 04 . P7D ... ... : ... .. . ... ... ... : ... .. . ... ... ... : ... .. . ... ... ...
ROW 24 : ... .. . ... ... ... : ... .. . ... ... ... : ... .. . ... ... ... : ... .. . ... ... ... : ... .. . ... ... ... : A#3 04 . P82 ... ... : A-3 04 . P7F ... ... : ... .. . ... ... ... : F#3 04 . P7C ... ... : F-3 04 . P82 ... ... : ... .. . ... ... ... : ... .. . ... ... ... : ... .. . ... ... ...
ROW 25 : ... .. . ... ... ... : ... .. . ... ... ... : ... .. . ... ... ... : ... .. . ... ... ... : ... .. . ... ... ... : A-3 04 . P85 ... ... : G#3 04 . P84 ... ... : ... .. . ... ... ... : F-3 04 . P82 ... ... : D#3 04 6 P81 ... ... : ... .. . ... ... ... : ... .. . ... ... ... : ... .. . ... ... ...
ROW 26 : ... .. . ... ... ... : C-4 02 . P80 ... ... : C#4 00 . P7F ... ... : ... .. F ... ... ... : C#1 12 . ... ... ... : G#1 04 F P80 ... ... : F#3 04 . P80 ... ... : G-1 04 9 ... ... ... : A-1 04 9 ... ... ... : C#3 04 . ... ... ... : ... .. . ... ... ... : ... .. . ... ... ... : ... .. . ... ... ...
ROW 27 : ... .. . ... ... ... : F-3 02 . ... ... ... : F#3 00 . P83 ... ... : 2-# 00 7 ... ... ... : ... .. . ... ... ... : ... .. . ... ... ... : E-3 04 . P7D ... ... : ... .. . ... ... ... : ... .. . ... ... ... : B-2 04 . P82 ... ... : ... .. . ... ... ... : ... .. . ... ... ... : ... .. . ... ... ...
ROW 28 : ... .. . ... ... ... : A#2 02 . P81 ... ... : C#3 00 . P89 ... ... : 6-# 00 C ... ... ... : ... .. . ... ... ... : ... .. . ... ... ... : D#3 04 . P83 ... ... : ... .. . ... ... ... : ... .. . ... ... ... : G#2 04 . P80 ... ... : ... .. . ... ... ... : ... .. . ... ... ... : ... .. . ... ... ...
ROW 29 : ... .. . ... ... ... : D#2 02 . ... ... ... : A#2 00 . P75 ... ... : 7-# 00 8 ... ... ... : ... .. . ... ... ... : ... .. . ... ... ... : C#3 04 . ... ... ... : ... .. . ... ... ... : ... .. . ... ... ... : F-2 04 5 ... ... ... : ... .. . ... ... ... : ... .. . ... ... ... : ... .. . ... ... ...
ROW 2A : ... .. . ... ... ... : G#1 02 . ... ... ... : G-2 00 . P70 ... ... : 8-# 00 7 ... ... ... : ... .. . ... ... ... : ... .. . ... ... ... : A#2 04 . P7F ... ... : ... .. 8 ... ... ... : ... .. . ... ... ... : C#2 04 . ... ... ... : ... .. . ... ... ... : ... .. . ... ... ... : ... .. . ... ... ...
ROW 2B : ... .. . ... ... ... : C#1 02 . ... ... ... : E-2 00 . P7C ... ... : ... .. 6 ... ... ... : ... .. . ... ... ... : ... .. . ... ... ... : G-2 04 . ... ... ... : ... .. . ... ... ... : ... .. . ... ... ... : G#1 04 . P7F ... ... : ... .. . ... ... ... : ... .. . ... ... ... : ... .. . ... ... ...
ROW 2C : ... .. . ... ... ... : ... .. . ... ... ... : --- .. . ... ... ... : ... .. . ... ... ... : ... .. . ... ... ... : G#2 04 . ... ... ... : E-2 04 . ... ... ... : G#2 04 . P82 ... ... : G#2 04 . P7F ... ... : D-1 04 . P81 ... ... : ... .. . ... ... ... : ... .. . ... ... ... : ... .. . ... ... ...
ROW 2D : ... .. . ... ... ... : ... .. . ... ... ... : ... .. . ... ... ... : ... .. 5 ... ... ... : ... .. . ... ... ... : ... .. . ... ... ... : C#2 04 . P81 ... ... : ... .. . ... ... ... : ... .. . ... ... ... : D#0 04 4 ... ... ... : ... .. . ... ... ... : ... .. . ... ... ... : ... .. . ... ... ...
ROW 2E : ... .. . ... ... ... : ... .. . ... ... ... : ... .. . ... ... ... : ... .. . ... ... ... : ... .. . ... ... ... : ... .. . ... ... ... : G-1 04 . P7F ... ... : ... .. 7 ... ... ... : ... .. 8 ... ... ... : --- .. . P7F ... ... : ... .. . ... ... ... : ... .. . ... ... ... : ... .. . ... ... ...
ROW 2F : ... .. . ... ... ... : ... .. . ... ... ... : ... .. . ... ... ... : ... .. 4 ... ... ... : ... .. . ... ... ... : ... .. . ... ... ... : C-1 04 . P81 ... ... : ... .. . ... ... ... : ... .. . ... ... ... : D#7 04 . P81 ... ... : ... .. . ... ... ... : ... .. . ... ... ... : ... .. . ... ... ...
ROW 30 : ... .. . ... ... ... : ... .. . ... ... ... : ... .. . ... ... ... : ... .. . ... ... ... : ... .. . ... ... ... : ... .. . ... ... ... : C-0 04 . P80 ... ... : ... .. . ... ... ... : ... .. . ... ... ... : ... .. . ... ... ... : ... .. . ... ... ... : ... .. . ... ... ... : ... .. . ... ... ...
ROW 31 : ... .. . ... ... ... : ... .. . ... ... ... : ... .. . ... ... ... : ... .. 3 ... ... ... : ... .. . ... ... ... : ... .. . ... ... ... : --- .. . ... ... ... : ... .. . ... ... ... : ... .. . ... ... ... : ... .. 3 ... ... ... : ... .. . ... ... ... : ... .. . ... ... ... : ... .. . ... ... ...
ROW 32 : ... .. . ... ... ... : ... .. . ... ... ... : ... .. . ... ... ... : D-# 00 A ... ... ... : ... .. . ... ... ... : C#2 04 . ... ... ... : ... .. . ... ... ... : C#2 04 6 ... ... ... : C#2 04 . ... ... ... : ... .. . ... ... ... : ... .. . ... ... ... : ... .. . ... ... ... : ... .. . ... ... ...
ROW 33 : ... .. . ... ... ... : ... .. . ... ... ... : ... .. . ... ... ... : E-# 00 4 ... ... ... : ... .. . ... ... ... : ... .. . ... ... ... : ... .. . ... ... ... : ... .. . ... ... ... : ... .. . ... ... ... : ... .. . ... ... ... : ... .. . ... ... ... : ... .. . ... ... ... : ... .. . ... ... ...
ROW 34 : ... .. . ... ... ... : ... .. . ... ... ... : ... .. . ... ... ... : D-# 00 2 ... ... ... : ... .. . ... ... ... : ... .. . ... ... ... : ... .. . ... ... ... : ... .. . ... ... ... : ... .. . ... ... ... : ... .. . ... ... ... : ... .. . ... ... ... : ... .. . ... ... ... : ... .. . ... ... ...
ROW 35 : ... .. . ... ... ... : ... .. . ... ... ... : ... .. . ... ... ... : ... .. 1 ... ... ... : ... .. . ... ... ... : ... .. . ... ... ... : ... .. . ... ... ... : ... .. . ... ... ... : ... .. . ... ... ... : ... .. 2 ... ... ... : ... .. . ... ... ... : ... .. . ... ... ... : ... .. . ... ... ...
ROW 36 : ... .. . ... ... ... : ... .. . ... ... ... : ... .. . ... ... ... : ... .. . ... ... ... : ... .. . ... ... ... : ... .. . ... ... ... : ... .. . ... ... ... : ... .. 5 ... ... ... : ... .. 7 ... ... ... : ... .. . ... ... ... : ... .. . ... ... ... : ... .. . ... ... ... : ... .. . ... ... ...
ROW 37 : ... .. . ... ... ... : ... .. . ... ... ... : ... .. . ... ... ... : --- .. . ... ... ... : ... .. . ... ... ... : ... .. . ... ... ... : ... .. . ... ... ... : ... .. . ... ... ... : ... .. . ... ... ... : ... .. . ... ... ... : ... .. . ... ... ... : ... .. . ... ... ... : ... .. . ... ... ...
ROW 38 : ... .. . ... ... ... : ... .. . ... ... ... : ... .. . ... ... ... : D-# 00 A ... ... ... : ... .. . ... ... ... : C#3 04 . ... ... ... : ... .. . ... ... ... : C#3 04 . ... ... ... : C#3 04 . ... ... ... : --- .. . ... ... ... : ... .. . ... ... ... : ... .. . ... ... ... : ... .. . ... ... ...
ROW 39 : ... .. . ... ... ... : ... .. . ... ... ... : ... .. . ... ... ... : E-# 00 4 ... ... ... : ... .. . ... ... ... : ... .. . ... ... ... : ... .. . ... ... ... : ... .. . ... ... ... : ... .. . ... ... ... : ... .. . P80 ... ... : ... .. . ... ... ... : ... .. . ... ... ... : ... .. . ... ... ...
ROW 3A : ... .. . ... ... ... : ... .. . ... ... ... : ... .. . ... ... ... : D-# 00 2 ... ... ... : ... .. . ... ... ... : ... .. . ... ... ... : ... .. . ... ... ... : ... .. 4 ... ... ... : ... .. . ... ... ... : ... .. . ... ... ... : ... .. . ... ... ... : ... .. . ... ... ... : ... .. . ... ... ...
ROW 3B : ... .. . ... ... ... : ... .. . ... ... ... : ... .. . ... ... ... : ... .. 1 ... ... ... : ... .. . ... ... ... : ... .. . ... ... ... : ... .. . ... ... ... : ... .. . ... ... ... : ... .. . ... ... ... : ... .. . ... ... ... : ... .. . ... ... ... : ... .. . ... ... ... : ... .. . ... ... ...
ROW 3C : ... .. . ... ... ... : ... .. . ... ... ... : ... .. . ... ... ... : ... .. . ... ... ... : ... .. . ... ... ... : ... .. . ... ... ... : ... .. . ... ... ... : ... .. . ... ... ... : ... .. . ... ... ... : ... .. . ... ... ... : ... .. . ... ... ... : ... .. . ... ... ... : ... .. . ... ... ...
ROW 3D : ... .. . ... ... ... : ... .. . ... ... ... : ... .. . ... ... ... : --- .. . ... ... ... : ... .. . ... ... ... : ... .. . ... ... ... : ... .. . ... ... ... : ... .. . ... ... ... : ... .. . ... ... ... : ... .. . ... ... ... : ... .. . ... ... ... : ... .. . ... ... ... : ... .. . ... ... ...
ROW 3E : ... .. . ... ... ... : ... .. . ... ... ... : ... .. . ... ... ... : ... .. . ... ... ... : ... .. . ... ... ... : ... .. . ... ... ... : ... .. . ... ... ... : ... .. 3 ... ... ... : ... .. 6 ... ... ... : ... .. . ... ... ... : ... .. . ... ... ... : ... .. . ... ... ... : ... .. . ... ... ...
ROW 3F : ... .. . ... ... ... : C-4 02 . P80 ... ... : F#3 00 . P78 ... ... : 1-# 00 F ... ... ... : C-1 12 . ... ... ... : B-4 0C 7 P7C ... ... : ... .. . ... ... ... : --- .. . ... ... ... : A#3 0C 1 P85 ... ... : ... .. . ... ... ... : ... .. . ... ... ... : ... .. . ... ... ... : ... .. . ... ... ...
ROW 40 : ... .. . ... ... ... : F-3 02 . ... ... ... : C#3 00 . P7E ... ... : 2-# 00 7 ... ... ... : ... .. . ... ... ... : A#4 0C . P79 ... ... : ... .. . ... ... ... : ... .. . P80 ... ... : G-3 0C . ... ... ... : ... .. . ... ... ... : ... .. . ... ... ... : ... .. . ... ... ... : ... .. . ... ... ...
ROW 41 : ... .. . ... ... ... : A#2 02 . P81 ... ... : A-2 00 . P86 ... ... : 1-# 00 4 ... ... ... : ... .. . ... ... ... : A-4 0C . P78 ... ... : ... .. . ... ... ... : ... .. . ... ... ... : D#3 0C . P82 ... ... : ... .. . ... ... ... : ... .. . ... ... ... : ... .. . ... ... ... : ... .. . ... ... ...
ROW 42 : ... .. . ... ... ... : D#2 02 . ... ... ... : --- .. . ... ... ... : ... .. 2 ... ... ... : ... .. . ... ... ... : G#4 0C . ... ... ... : ... .. . ... ... ... : ... .. . ... ... ... : A#2 0C . P7F ... ... : ... .. . ... ... ... : ... .. . ... ... ... : ... .. . ... ... ... : ... .. . ... ... ...
ROW 43 : ... .. . ... ... ... : G#1 02 . ... ... ... : ... .. . ... ... ... : ... .. 1 ... ... ... : ... .. . ... ... ... : G-4 0C . ... ... ... : ... .. . ... ... ... : ... .. . ... ... ... : E-2 0C . P81 ... ... : ... .. . ... ... ... : ... .. . ... ... ... : ... .. . ... ... ... : ... .. . ... ... ...
ROW 44 : ... .. . ... ... ... : C#1 02 . ... ... ... : ... .. . ... ... ... : --- .. . ... ... ... : ... .. . ... ... ... : --- .. . ... ... ... : ... .. . ... ... ... : ... .. . ... ... ... : --- .. . ... ... ... : ... .. . ... ... ... : ... .. . ... ... ... : ... .. . ... ... ... : ... .. . ... ... ...
ROW 45 : ... .. . ... ... ... : ... .. . ... ... ... : ... .. . ... ... ... : ... .. . ... ... ... : ... .. . ... ... ... : B-4 0C . P7C ... ... : ... .. . ... ... ... : ... .. . ... ... ... : A#3 0C . P85 ... ... : ... .. . ... ... ... : ... .. . ... ... ... : ... .. . ... ... ... : ... .. . ... ... ...
ROW 46 : ... .. . ... ... ... : ... .. . ... ... ... : ... .. . ... ... ... : ... .. . ... ... ... : ... .. . ... ... ... : A#4 0C . P79 ... ... : ... .. . ... ... ... : ... .. . ... ... ... : G-3 0C . ... ... ... : ... .. . ... ... ... : ... .. . ... ... ... : ... .. . ... ... ... : ... .. . ... ... ...
ROW 47 : ... .. . ... ... ... : ... .. . ... ... ... : ... .. . ... ... ... : ... .. . ... ... ... : ... .. . ... ... ... : A-4 0C . P78 ... ... : ... .. . ... ... ... : ... .. . ... ... ... : --- .. . ... ... ... : ... .. . ... ... ... : ... .. . ... ... ... : ... .. . ... ... ... : ... .. . ... ... ...
ROW 48 : ... .. . ... ... ... : ... .. . ... ... ... : ... .. . ... ... ... : ... .. . ... ... ... : ... .. . ... ... ... : G#4 0C . ... ... ... : ... .. . ... ... ... : ... .. . ... ... ... : ... .. . P80 ... ... : ... .. . ... ... ... : ... .. . ... ... ... : ... .. . ... ... ... : ... .. . ... ... ...
ROW 49 : ... .. . ... ... ... : ... .. . ... ... ... : ... .. . ... ... ... : ... .. . ... ... ... : ... .. . ... ... ... : G-4 0C . ... ... ... : ... .. . ... ... ... : ... .. . ... ... ... : ... .. . ... ... ... : ... .. . ... ... ... : ... .. . ... ... ... : ... .. . ... ... ... : ... .. . ... ... ...
ROW 4A : ... .. . ... ... ... : ... .. . ... ... ... : ... .. . ... ... ... : ... .. . ... ... ... : ... .. . ... ... ... : --- .. . ... ... ... : ... .. . ... ... ... : ... .. . ... ... ... : ... .. . ... ... ... : ... .. . ... ... ... : ... .. . ... ... ... : ... .. . ... ... ... : ... .. . ... ... ...
ROW 4B : ... .. . ... ... ... : ... .. . ... ... ... : ... .. . ... ... ... : D-# 00 A ... ... ... : ... .. . ... ... ... : C#3 05 A P80 ... ... : C#3 05 . P82 ... ... : C#3 05 9 P7E ... ... : G#2 05 9 P81 ... ... : ... .. . ... ... ... : ... .. . ... ... ... : ... .. . ... ... ... : ... .. . ... ... ...
ROW 4C : ... .. . ... ... ... : ... .. . ... ... ... : ... .. . ... ... ... : E-# 00 4 ... ... ... : ... .. . ... ... ... : ... .. . ... ... ... : ... .. . P83 ... ... : ... .. . ... ... ... : ... .. . ... ... ... : ... .. . ... ... ... : ... .. . ... ... ... : ... .. . ... ... ... : ... .. . ... ... ...
ROW 4D : ... .. . ... ... ... : ... .. . ... ... ... : ... .. . ... ... ... : D-# 00 2 ... ... ... : ... .. . ... ... ... : ... .. . ... ... ... : C-3 05 . P7E ... ... : ... .. . ... ... ... : ... .. . ... ... ... : ... .. . ... ... ... : ... .. . ... ... ... : ... .. . ... ... ... : ... .. . ... ... ...
ROW 4E : ... .. . ... ... ... : ... .. . ... ... ... : ... .. . ... ... ... : ... .. 1 ... ... ... : ... .. . ... ... ... : ... .. . ... ... ... : C#3 05 . P83 ... ... : ... .. . ... ... ... : ... .. . ... ... ... : ... .. . ... ... ... : ... .. . ... ... ... : ... .. . ... ... ... : ... .. . ... ... ...
ROW 4F : ... .. . ... ... ... : ... .. . ... ... ... : ... .. . ... ... ... : ... .. . ... ... ... : ... .. . ... ... ... : --- .. . ... ... ... : --- .. . ... ... ... : --- .. . ... ... ... : --- .. . ... ... ... : ... .. . ... ... ... : ... .. . ... ... ... : ... .. . ... ... ... : ... .. . ... ... ...
ROW 50 : ... .. . ... ... ... : ... .. . ... ... ... : ... .. . ... ... ... : --- .. . ... ... ... : ... .. . ... ... ... : ... .. . ... ... ... : ... .. . P80 ... ... : ... .. . P80 ... ... : ... .. . P80 ... ... : ... .. . ... ... ... : ... .. . ... ... ... : ... .. . ... ... ... : ... .. . ... ... ...
ROW 51 : ... .. . ... ... ... : ... .. . ... ... ... : ... .. . ... ... ... : D-# 00 A ... ... ... : ... .. . ... ... ... : C#3 05 4 ... ... ... : C-3 05 4 P7E ... ... : C#3 05 3 P7E ... ... : G#2 05 3 P81 ... ... : ... .. . ... ... ... : ... .. . ... ... ... : ... .. . ... ... ... : ... .. . ... ... ...
ROW 52 : ... .. . ... ... ... : ... .. . ... ... ... : ... .. . ... ... ... : E-# 00 4 ... ... ... : ... .. . ... ... ... : ... .. . ... ... ... : C#3 05 . P83 ... ... : ... .. . ... ... ... : ... .. . ... ... ... : ... .. . ... ... ... : ... .. . ... ... ... : ... .. . ... ... ... : ... .. . ... ... ...
ROW 53 : ... .. . ... ... ... : ... .. . ... ... ... : ... .. . ... ... ... : D-# 00 2 ... ... ... : ... .. . ... ... ... : ... .. . ... ... ... : ... .. . P82 ... ... : ... .. . ... ... ... : ... .. . ... ... ... : ... .. . ... ... ... : ... .. . ... ... ... : ... .. . ... ... ... : ... .. . ... ... ...
ROW 54 : ... .. . ... ... ... : ... .. . ... ... ... : ... .. . ... ... ... : ... .. 1 ... ... ... : ... .. . ... ... ... : ... .. . ... ... ... : ... .. . P83 ... ... : ... .. . ... ... ... : ... .. . ... ... ... : ... .. . ... ... ... : ... .. . ... ... ... : ... .. . ... ... ... : ... .. . ... ... ...
ROW 55 : ... .. . ... ... ... : ... .. . ... ... ... : ... .. . ... ... ... : ... .. . ... ... ... : ... .. . ... ... ... : ... .. . ... ... ... : C-3 05 . P7E ... ... : ... .. 2 ... ... ... : ... .. . ... ... ... : ... .. . ... ... ... : ... .. . ... ... ... : ... .. . ... ... ... : ... .. . ... ... ...
ROW 56 : ... .. . ... ... ... : ... .. . ... ... ... : ... .. . ... ... ... : --- .. . ... ... ... : ... .. . ... ... ... : --- .. . ... ... ... : --- .. . ... ... ... : --- .. . ... ... ... : --- .. . ... ... ... : ... .. . ... ... ... : ... .. . ... ... ... : ... .. . ... ... ... : ... .. . ... ... ...
ROW 57 : ... .. . ... ... ... : ... .. . ... ... ... : ... .. . ... ... ... : ... .. . ... ... ... : ... .. . ... ... ... : ... .. . ... ... ... : ... .. . P80 ... ... : ... .. . P80 ... ... : ... .. . P80 ... ... : ... .. . ... ... ... : ... .. . ... ... ... : ... .. . ... ... ... : ... .. . ... ... ...
ROW 58 : ... .. . ... ... ... : C-4 02 . P80 ... ... : C#4 00 . P7F ... ... : 9-# 00 F ... ... ... : C#1 12 . ... ... ... : F#3 05 A ... ... ... : F#3 05 A P83 ... ... : F#3 05 9 P7E ... ... : D#3 05 9 P81 ... ... : ... .. . ... ... ... : ... .. . ... ... ... : ... .. . ... ... ... : ... .. . ... ... ...
ROW 59 : ... .. . ... ... ... : F-3 02 . ... ... ... : F#3 00 . P83 ... ... : 2-# 00 7 ... ... ... : ... .. . ... ... ... : ... .. . ... ... ... : ... .. . P84 ... ... : ... .. . ... ... ... : ... .. . ... ... ... : ... .. . ... ... ... : ... .. . ... ... ... : ... .. . ... ... ... : ... .. . ... ... ...
ROW 5A : ... .. . ... ... ... : A#2 02 . P81 ... ... : C#3 00 . P89 ... ... : 6-# 00 C ... ... ... : ... .. . ... ... ... : ... .. . ... ... ... : ... .. . ... ... ... : ... .. . ... ... ... : ... .. . ... ... ... : ... .. . ... ... ... : ... .. . ... ... ... : ... .. . ... ... ... : ... .. . ... ... ...
ROW 5B : ... .. . ... ... ... : D#2 02 . ... ... ... : A#2 00 . P75 ... ... : 7-# 00 8 ... ... ... : ... .. . ... ... ... : ... .. . ... ... ... : ... .. . P83 ... ... : ... .. . ... ... ... : ... .. . ... ... ... : ... .. . ... ... ... : ... .. . ... ... ... : ... .. . ... ... ... : ... .. . ... ... ...
ROW 5C : ... .. . ... ... ... : G#1 02 . ... ... ... : G-2 00 . P70 ... ... : 8-# 00 7 ... ... ... : ... .. . ... ... ... : --- .. . ... ... ... : --- .. . ... ... ... : --- .. . ... ... ... : --- .. . ... ... ... : ... .. . ... ... ... : ... .. . ... ... ... : ... .. . ... ... ... : ... .. . ... ... ...
ROW 5D : ... .. . ... ... ... : C#1 02 . ... ... ... : E-2 00 . P7C ... ... : ... .. 6 ... ... ... : ... .. . ... ... ... : ... .. . ... ... ... : ... .. . P80 ... ... : ... .. . P80 ... ... : ... .. . P80 ... ... : ... .. . ... ... ... : ... .. . ... ... ... : ... .. . ... ... ... : ... .. . ... ... ...
ROW 5E : ... .. . ... ... ... : ... .. . ... ... ... : --- .. . ... ... ... : ... .. . ... ... ... : ... .. . ... ... ... : F#3 05 4 ... ... ... : F#3 05 4 P84 ... ... : F#3 05 3 P7E ... ... : D#3 05 3 P81 ... ... : ... .. . ... ... ... : ... .. . ... ... ... : ... .. . ... ... ... : ... .. . ... ... ...
ROW 5F : ... .. . ... ... ... : ... .. . ... ... ... : ... .. . ... ... ... : ... .. 5 ... ... ... : ... .. . ... ... ... : ... .. . ... ... ... : ... .. . P83 ... ... : ... .. . ... ... ... : ... .. . ... ... ... : ... .. . ... ... ... : ... .. . ... ... ... : ... .. . ... ... ... : ... .. . ... ... ...
ROW 60 : ... .. . ... ... ... : ... .. . ... ... ... : ... .. . ... ... ... : ... .. . ... ... ... : ... .. . ... ... ... : ... .. . ... ... ... : ... .. . P82 ... ... : ... .. . ... ... ... : ... .. . ... ... ... : ... .. . ... ... ... : ... .. . ... ... ... : ... .. . ... ... ... : ... .. . ... ... ...
ROW 61 : ... .. . ... ... ... : ... .. . ... ... ... : ... .. . ... ... ... : ... .. 4 ... ... ... : ... .. . ... ... ... : ... .. . ... ... ... : ... .. . P83 ... ... : ... .. . ... ... ... : ... .. . ... ... ... : ... .. . ... ... ... : ... .. . ... ... ... : ... .. . ... ... ... : ... .. . ... ... ...
ROW 62 : ... .. . ... ... ... : ... .. . ... ... ... : ... .. . ... ... ... : ... .. . ... ... ... : ... .. . ... ... ... : --- .. . ... ... ... : --- .. . ... ... ... : --- .. . ... ... ... : --- .. . ... ... ... : ... .. . ... ... ... : ... .. . ... ... ... : ... .. . ... ... ... : ... .. . ... ... ...
ROW 63 : ... .. . ... ... ... : ... .. . ... ... ... : ... .. . ... ... ... : ... .. 3 ... ... ... : ... .. . ... ... ... : ... .. . ... ... ... : ... .. . P80 ... ... : ... .. . P80 ... ... : ... .. . P80 ... ... : ... .. . ... ... ... : ... .. . ... ... ... : ... .. . ... ... ... : ... .. . ... ... ...
ROW 64 : ... .. . ... ... ... : ... .. . ... ... ... : ... .. . ... ... ... : D-# 00 A ... ... ... : ... .. . ... ... ... : B-3 05 A ... ... ... : B-3 05 A P82 ... ... : B-3 05 9 P7E ... ... : F#3 05 9 P81 ... ... : ... .. . ... ... ... : ... .. . ... ... ... : ... .. . ... ... ... : ... .. . ... ... ...
ROW 65 : ... .. . ... ... ... : ... .. . ... ... ... : ... .. . ... ... ... : E-# 00 4 ... ... ... : ... .. . ... ... ... : ... .. . ... ... ... : ... .. . P83 ... ... : ... .. . ... ... ... : ... .. . ... ... ... : ... .. . ... ... ... : ... .. . ... ... ... : ... .. . ... ... ... : ... .. . ... ... ...
ROW 66 : ... .. . ... ... ... : ... .. . ... ... ... : ... .. . ... ... ... : D-# 00 2 ... ... ... : ... .. . ... ... ... : ... .. . ... ... ... : ... .. . P84 ... ... : ... .. . ... ... ... : ... .. . ... ... ... : ... .. . ... ... ... : ... .. . ... ... ... : ... .. . ... ... ... : ... .. . ... ... ...
ROW 67 : ... .. . ... ... ... : ... .. . ... ... ... : ... .. . ... ... ... : ... .. 1 ... ... ... : ... .. . ... ... ... : ... .. . ... ... ... : ... .. . ... ... ... : ... .. . ... ... ... : ... .. . ... ... ... : ... .. . ... ... ... : ... .. . ... ... ... : ... .. . ... ... ... : ... .. . ... ... ...
ROW 68 : ... .. . ... ... ... : ... .. . ... ... ... : ... .. . ... ... ... : ... .. . ... ... ... : ... .. . ... ... ... : --- .. . ... ... ... : --- .. . ... ... ... : --- .. . ... ... ... : --- .. . ... ... ... : ... .. . ... ... ... : ... .. . ... ... ... : ... .. . ... ... ... : ... .. . ... ... ...
ROW 69 : ... .. . ... ... ... : ... .. . ... ... ... : ... .. . ... ... ... : --- .. . ... ... ... : ... .. . ... ... ... : ... .. . ... ... ... : ... .. . P80 ... ... : ... .. . P80 ... ... : ... .. . P80 ... ... : ... .. . ... ... ... : ... .. . ... ... ... : ... .. . ... ... ... : ... .. . ... ... ...
ROW 6A : ... .. . ... ... ... : ... .. . ... ... ... : ... .. . ... ... ... : D-# 00 A ... ... ... : ... .. . ... ... ... : B-3 05 4 ... ... ... : B-3 05 . P84 ... ... : B-3 05 . P7E ... ... : F#3 05 . P81 ... ... : ... .. . ... ... ... : ... .. . ... ... ... : ... .. . ... ... ... : ... .. . ... ... ...
ROW 6B : ... .. . ... ... ... : ... .. . ... ... ... : ... .. . ... ... ... : E-# 00 4 ... ... ... : ... .. . ... ... ... : ... .. . ... ... ... : ... .. . ... ... ... : ... .. . ... ... ... : ... .. . ... ... ... : ... .. . ... ... ... : ... .. . ... ... ... : ... .. . ... ... ... : ... .. . ... ... ...
ROW 6C : ... .. . ... ... ... : ... .. . ... ... ... : ... .. . ... ... ... : D-# 00 2 ... ... ... : ... .. . ... ... ... : ... .. . ... ... ... : ... .. . P83 ... ... : ... .. . ... ... ... : ... .. . ... ... ... : ... .. . ... ... ... : ... .. . ... ... ... : ... .. . ... ... ... : ... .. . ... ... ...
ROW 6D : ... .. . ... ... ... : ... .. . ... ... ... : ... .. . ... ... ... : ... .. 1 ... ... ... : ... .. . ... ... ... : ... .. . ... ... ... : ... .. . P82 ... ... : ... .. . ... ... ... : ... .. . ... ... ... : ... .. . ... ... ... : ... .. . ... ... ... : ... .. . ... ... ... : ... .. . ... ... ...
ROW 6E : ... .. . ... ... ... : ... .. . ... ... ... : ... .. . ... ... ... : ... .. . ... ... ... : ... .. . ... ... ... : ... .. . ... ... ... : ... .. . P83 ... ... : ... .. 8 ... ... ... : ... .. . ... ... ... : ... .. . ... ... ... : ... .. . ... ... ... : ... .. . ... ... ... : ... .. . ... ... ...
ROW 6F : ... .. . ... ... ... : ... .. . ... ... ... : ... .. . ... ... ... : --- .. . ... ... ... : ... .. . ... ... ... : --- .. . ... ... ... : --- .. . ... ... ... : --- .. . ... ... ... : --- .. . ... ... ... : ... .. . ... ... ... : ... .. . ... ... ... : ... .. . ... ... ... : ... .. . ... ... ...
ROW 70 : ... .. . ... ... ... : ... .. . ... ... ... : ... .. . ... ... ... : ... .. . ... ... ... : ... .. . ... ... ... : ... .. . ... ... ... : ... .. . P80 ... ... : ... .. . P80 ... ... : ... .. . P80 ... ... : ... .. . ... ... ... : ... .. . ... ... ... : ... .. . ... ... ... : ... .. . ... ... ...
ROW 71 : ... .. . ... ... ... : C-4 02 . P80 ... ... : F#3 00 . P78 ... ... : 1-# 00 F ... ... ... : C-1 12 . ... ... ... : D#2 06 F ... ... ... : D#2 06 F ... ... ... : ... .. . ... ... ... : D#2 06 E P7F ... ... : D#3 06 B P81 ... ... : ... .. . ... ... ... : ... .. . ... ... ... : ... .. . ... ... ...
ROW 72 : ... .. . ... ... ... : F-3 02 . ... ... ... : C#3 00 . P7E ... ... : 2-# 00 7 ... ... ... : ... .. . ... ... ... : ... .. . ... ... ... : ... .. . P81 ... ... : ... .. . ... ... ... : ... .. . ... ... ... : ... .. . ... ... ... : ... .. . ... ... ... : ... .. . ... ... ... : ... .. . ... ... ...
ROW 73 : ... .. . ... ... ... : A#2 02 . P81 ... ... : A-2 00 . P86 ... ... : 1-# 00 4 ... ... ... : ... .. . ... ... ... : ... .. . ... ... ... : D-2 06 . P7F ... ... : ... .. . ... ... ... : ... .. . ... ... ... : ... .. . ... ... ... : ... .. . ... ... ... : ... .. . ... ... ... : ... .. . ... ... ...
ROW 74 : ... .. . ... ... ... : D#2 02 . ... ... ... : --- .. . ... ... ... : ... .. 2 ... ... ... : ... .. . ... ... ... : D#2 09 . ... ... ... : D#2 09 . P81 ... ... : ... .. . ... ... ... : D#2 09 . ... ... ... : D#3 09 . ... ... ... : ... .. . ... ... ... : ... .. . ... ... ... : ... .. . ... ... ...
ROW 75 : ... .. . ... ... ... : G#1 02 . ... ... ... : ... .. . ... ... ... : ... .. 1 ... ... ... : ... .. . ... ... ... : ... .. . ... ... ... : ... .. . P80 ... ... : ... .. . ... ... ... : ... .. . ... ... ... : ... .. A ... ... ... : ... .. . ... ... ... : ... .. . ... ... ... : ... .. . ... ... ...
ROW 76 : ... .. . ... ... ... : C#1 02 . ... ... ... : ... .. . ... ... ... : --- .. . ... ... ... : ... .. . ... ... ... : ... .. . ... ... ... : ... .. . P81 ... ... : ... .. . ... ... ... : ... .. . ... ... ... : ... .. . ... ... ... : ... .. . ... ... ... : ... .. . ... ... ... : ... .. . ... ... ...
ROW 77 : ... .. . ... ... ... : ... .. . ... ... ... : ... .. . ... ... ... : ... .. . ... ... ... : ... .. . ... ... ... : D#2 06 . ... ... ... : D#2 06 . P82 ... ... : ... .. . ... ... ... : D#2 06 . ... ... ... : D#3 06 . ... ... ... : ... .. . ... ... ... : ... .. . ... ... ... : ... .. . ... ... ...
ROW 78 : ... .. . ... ... ... : ... .. . ... ... ... : ... .. . ... ... ... : ... .. . ... ... ... : ... .. . ... ... ... : ... .. . ... ... ... : ... .. . ... ... ... : ... .. . ... ... ... : ... .. . ... ... ... : ... .. . ... ... ... : ... .. . ... ... ... : ... .. . ... ... ... : ... .. . ... ... ...
ROW 79 : ... .. . ... ... ... : ... .. . ... ... ... : ... .. . ... ... ... : ... .. . ... ... ... : ... .. . ... ... ... : ... .. . ... ... ... : ... .. . P81 ... ... : ... .. . ... ... ... : ... .. D ... ... ... : ... .. 9 ... ... ... : ... .. . ... ... ... : ... .. . ... ... ... : ... .. . ... ... ...
ROW 7A : ... .. . ... ... ... : ... .. . ... ... ... : ... .. . ... ... ... : ... .. . ... ... ... : ... .. . ... ... ... : D#2 09 . ... ... ... : D#2 09 . P80 ... ... : ... .. . ... ... ... : D#2 09 . ... ... ... : D#3 09 . ... ... ... : ... .. . ... ... ... : ... .. . ... ... ... : ... .. . ... ... ...
ROW 7B : ... .. . ... ... ... : ... .. . ... ... ... : ... .. . ... ... ... : ... .. . ... ... ... : ... .. . ... ... ... : ... .. . ... ... ... : ... .. . P81 ... ... : ... .. . ... ... ... : ... .. . ... ... ... : ... .. . ... ... ... : ... .. . ... ... ... : ... .. . ... ... ... : ... .. . ... ... ...
ROW 7C : ... .. . ... ... ... : ... .. . ... ... ... : ... .. . ... ... ... : ... .. . ... ... ... : ... .. . ... ... ... : ... .. . ... ... ... : D-2 09 . P7F ... ... : ... .. . ... ... ... : ... .. . ... ... ... : ... .. . ... ... ... : ... .. . ... ... ... : ... .. . ... ... ... : ... .. . ... ... ...
ROW 7D : ... .. . ... ... ... : ... .. . ... ... ... : ... .. . ... ... ... : D-# 00 A ... ... ... : ... .. . ... ... ... : D#2 06 . ... ... ... : D#2 06 . P81 ... ... : ... .. . ... ... ... : D#2 06 . ... ... ... : D#3 06 8 ... ... ... : ... .. . ... ... ... : ... .. . ... ... ... : ... .. . ... ... ...
ROW 7E : ... .. . ... ... ... : ... .. . ... ... ... : ... .. . ... ... ... : E-# 00 4 ... ... ... : ... .. . ... ... ... : ... .. . ... ... ... : ... .. . P80 ... ... : ... .. . ... ... ... : ... .. . ... ... ... : ... .. . ... ... ... : ... .. . ... ... ... : ... .. . ... ... ... : ... .. . ... ... ...
ROW 7F : ... .. . ... ... ... : ... .. . ... ... ... : ... .. . ... ... ... : D-# 00 2 ... ... ... : ... .. . ... ... ... : ... .. . ... ... ... : ... .. . P81 ... ... : ... .. . ... ... ... : ... .. . ... ... ... : ... .. . ... ... ... : ... .. . ... ... ... : ... .. . ... ... ... : ... .. . ... ... ...
ROW 80 : ... .. . ... ... ... : ... .. . ... ... ... : ... .. . ... ... ... : ... .. 1 ... ... ... : ... .. . ... ... ... : D#2 09 . ... ... ... : D-2 09 . P7F ... ... : ... .. . ... ... ... : D#2 09 . ... ... ... : D#3 09 . ... ... ... : ... .. . ... ... ... : ... .. . ... ... ... : ... .. . ... ... ...
ROW 81 : ... .. . ... ... ... : ... .. . ... ... ... : ... .. . ... ... ... : ... .. . ... ... ... : ... .. . ... ... ... : ... .. . ... ... ... : D#2 09 . P81 ... ... : ... .. . ... ... ... : ... .. C ... ... ... : ... .. 7 ... ... ... : ... .. . ... ... ... : ... .. . ... ... ... : ... .. . ... ... ...
ROW 82 : ... .. . ... ... ... : ... .. . ... ... ... : ... .. . ... ... ... : --- .. . ... ... ... : ... .. . ... ... ... : ... .. . ... ... ... : ... .. . P80 ... ... : ... .. . ... ... ... : ... .. . ... ... ... : ... .. . ... ... ... : ... .. . ... ... ... : ... .. . ... ... ... : ... .. . ... ... ...
ROW 83 : ... .. . ... ... ... : ... .. . ... ... ... : ... .. . ... ... ... : D-# 00 A ... ... ... : ... .. . ... ... ... : D#2 06 . ... ... ... : D#2 06 . P81 ... ... : ... .. . ... ... ... : D#2 06 . ... ... ... : D#3 06 . ... ... ... : ... .. . ... ... ... : ... .. . ... ... ... : ... .. . ... ... ...
ROW 84 : ... .. . ... ... ... : ... .. . ... ... ... : ... .. . ... ... ... : E-# 00 4 ... ... ... : ... .. . ... ... ... : ... .. . ... ... ... : D-2 06 . P7F ... ... : ... .. . ... ... ... : ... .. . ... ... ... : ... .. . ... ... ... : ... .. . ... ... ... : ... .. . ... ... ... : ... .. . ... ... ...
ROW 85 : ... .. . ... ... ... : ... .. . ... ... ... : ... .. . ... ... ... : D-# 00 2 ... ... ... : ... .. . ... ... ... : ... .. . ... ... ... : D#2 06 . P82 ... ... : ... .. . ... ... ... : ... .. . ... ... ... : ... .. 6 ... ... ... : ... .. . ... ... ... : ... .. . ... ... ... : ... .. . ... ... ...
ROW 86 : ... .. . ... ... ... : ... .. . ... ... ... : ... .. . ... ... ... : ... .. 1 ... ... ... : ... .. . ... ... ... : D#2 09 . ... ... ... : D#2 09 . P81 ... ... : ... .. . ... ... ... : D#2 09 . ... ... ... : D#3 09 . ... ... ... : ... .. . ... ... ... : ... .. . ... ... ... : ... .. . ... ... ...
ROW 87 : ... .. . ... ... ... : ... .. . ... ... ... : ... .. . ... ... ... : ... .. . ... ... ... : ... .. . ... ... ... : ... .. . ... ... ... : ... .. . ... ... ... : ... .. . ... ... ... : ... .. . ... ... ... : ... .. . ... ... ... : ... .. . ... ... ... : ... .. . ... ... ... : ... .. . ... ... ...
ROW 88 : ... .. . ... ... ... : ... .. . ... ... ... : ... .. . ... ... ... : --- .. . ... ... ... : ... .. . ... ... ... : ... .. . ... ... ... : ... .. . P82 ... ... : ... .. . ... ... ... : ... .. . ... ... ... : ... .. . ... ... ... : ... .. . ... ... ... : ... .. . ... ... ... : ... .. . ... ... ...
ROW 89 : ... .. . ... ... ... : ... .. . ... ... ... : ... .. . ... ... ... : ... .. . ... ... ... : ... .. . ... ... ... : ... .. . ... ... ... : ... .. . ... ... ... : ... .. . ... ... ... : ... .. B ... ... ... : ... .. 5 ... ... ... : ... .. . ... ... ... : ... .. . ... ... ... : ... .. . ... ... ...
ROW 8A : ... .. . ... ... ... : C-4 02 . P80 ... ... : C#4 00 . P7F ... ... : 9-# 00 F ... ... ... : C#1 12 . ... ... ... : D-2 06 . ... ... ... : D-2 06 . P81 ... ... : ... .. . ... ... ... : D-2 06 . ... ... ... : D-3 06 . ... ... ... : ... .. . ... ... ... : ... .. . ... ... ... : ... .. . ... ... ...
ROW 8B : ... .. . ... ... ... : F-3 02 . ... ... ... : F#3 00 . P83 ... ... : 2-# 00 7 ... ... ... : ... .. . ... ... ... : ... .. . ... ... ... : ... .. . P80 ... ... : ... .. . ... ... ... : ... .. . ... ... ... : ... .. . ... ... ... : ... .. . ... ... ... : ... .. . ... ... ... : ... .. . ... ... ...
ROW 8C : ... .. . ... ... ... : A#2 02 . P81 ... ... : C#3 00 . P89 ... ... : 6-# 00 C ... ... ... : ... .. . ... ... ... : ... .. . ... ... ... : ... .. . P81 ... ... : ... .. . ... ... ... : ... .. . ... ... ... : ... .. . ... ... ... : ... .. . ... ... ... : ... .. . ... ... ... : ... .. . ... ... ...
ROW 8D : ... .. . ... ... ... : D#2 02 . ... ... ... : A#2 00 . P75 ... ... : 7-# 00 8 ... ... ... : ... .. . ... ... ... : D-2 07 . ... ... ... : C#2 07 . P7F ... ... : ... .. . ... ... ... : D-2 07 . ... ... ... : D-3 07 4 ... ... ... : ... .. . ... ... ... : ... .. . ... ... ... : ... .. . ... ... ...
ROW 8E : ... .. . ... ... ... : G#1 02 . ... ... ... : G-2 00 . P70 ... ... : 8-# 00 7 ... ... ... : ... .. . ... ... ... : ... .. . ... ... ... : D-2 07 . P81 ... ... : ... .. . ... ... ... : ... .. . ... ... ... : ... .. . ... ... ... : ... .. . ... ... ... : ... .. . ... ... ... : ... .. . ... ... ...
ROW 8F : ... .. . ... ... ... : C#1 02 . ... ... ... : E-2 00 . P7C ... ... : ... .. 6 ... ... ... : ... .. . ... ... ... : ... .. . ... ... ... : ... .. . P80 ... ... : ... .. . ... ... ... : ... .. . ... ... ... : ... .. . ... ... ... : ... .. . ... ... ... : ... .. . ... ... ... : ... .. . ... ... ...
ROW 90 : ... .. . ... ... ... : ... .. . ... ... ... : --- .. . ... ... ... : ... .. . ... ... ... : ... .. . ... ... ... : D-2 08 . ... ... ... : D-2 08 . P81 ... ... : ... .. . ... ... ... : D-2 08 . ... ... ... : D-3 08 . ... ... ... : ... .. . ... ... ... : ... .. . ... ... ... : ... .. . ... ... ...
ROW 91 : ... .. . ... ... ... : ... .. . ... ... ... : ... .. . ... ... ... : ... .. 5 ... ... ... : ... .. . ... ... ... : ... .. . ... ... ... : C#2 08 . P7F ... ... : ... .. . ... ... ... : ... .. A ... ... ... : ... .. 3 ... ... ... : ... .. . ... ... ... : ... .. . ... ... ... : ... .. . ... ... ...
ROW 92 : ... .. . ... ... ... : ... .. . ... ... ... : ... .. . ... ... ... : ... .. . ... ... ... : ... .. . ... ... ... : ... .. . ... ... ... : D-2 08 . P81 ... ... : ... .. . ... ... ... : ... .. . ... ... ... : ... .. . ... ... ... : ... .. . ... ... ... : ... .. . ... ... ... : ... .. . ... ... ...
ROW 93 : ... .. . ... ... ... : ... .. . ... ... ... : ... .. . ... ... ... : ... .. 4 ... ... ... : ... .. . ... ... ... : D-2 09 . ... ... ... : D-2 09 . P80 ... ... : ... .. . ... ... ... : D-2 09 . ... ... ... : D-3 09 . ... ... ... : ... .. . ... ... ... : ... .. . ... ... ... : ... .. . ... ... ...
ROW 94 : ... .. . ... ... ... : ... .. . ... ... ... : ... .. . ... ... ... : ... .. . ... ... ... : ... .. . ... ... ... : ... .. . ... ... ... : ... .. . P81 ... ... : ... .. . ... ... ... : ... .. . ... ... ... : ... .. . ... ... ... : ... .. . ... ... ... : ... .. . ... ... ... : ... .. . ... ... ...
ROW 95 : ... .. . ... ... ... : ... .. . ... ... ... : ... .. . ... ... ... : ... .. 3 ... ... ... : ... .. . ... ... ... : ... .. . ... ... ... : C#2 09 . P7F ... ... : ... .. . ... ... ... : ... .. . ... ... ... : ... .. 2 ... ... ... : ... .. . ... ... ... : ... .. . ... ... ... : ... .. . ... ... ...
ROW 96 : ... .. . ... ... ... : F-3 02 . P80 ... ... : C#4 00 . P7F ... ... : 1-# 00 F ... ... ... : C-1 12 . ... ... ... : --- .. . ... ... ... : --- .. . ... ... ... : ... .. . ... ... ... : --- .. . ... ... ... : --- .. . ... ... ... : ... .. . ... ... ... : ... .. . ... ... ... : ... .. . ... ... ...
ROW 97 : ... .. . ... ... ... : A#2 02 . P81 ... ... : F#3 00 . P83 ... ... : 2-# 00 7 ... ... ... : ... .. . ... ... ... : ... .. . ... ... ... : ... .. . P80 ... ... : ... .. . ... ... ... : ... .. . P80 ... ... : ... .. . P80 ... ... : ... .. . ... ... ... : ... .. . ... ... ... : ... .. . ... ... ...
ROW 98 : ... .. . ... ... ... : D#2 02 . ... ... ... : C#3 00 . P89 ... ... : 1-# 00 4 ... ... ... : ... .. . ... ... ... : ... .. . ... ... ... : ... .. . ... ... ... : ... .. . ... ... ... : ... .. . ... ... ... : ... .. . ... ... ... : ... .. . ... ... ... : ... .. . ... ... ... : ... .. . ... ... ...
ROW 99 : ... .. . ... ... ... : G#1 02 . ... ... ... : A#2 00 . P75 ... ... : ... .. 2 ... ... ... : ... .. . ... ... ... : ... .. . ... ... ... : ... .. . ... ... ... : ... .. . ... ... ... : ... .. . ... ... ... : ... .. . ... ... ... : ... .. . ... ... ... : ... .. . ... ... ... : ... .. . ... ... ...
ROW 9A : ... .. . ... ... ... : C#1 02 . ... ... ... : G-2 00 . P70 ... ... : ... .. 1 ... ... ... : ... .. . ... ... ... : ... .. . ... ... ... : ... .. . ... ... ... : ... .. . ... ... ... : ... .. . ... ... ... : ... .. . ... ... ... : ... .. . ... ... ... : ... .. . ... ... ... : ... .. . ... ... ...
ROW 9B : ... .. . ... ... ... : ... .. . ... ... ... : E-2 00 . P7C ... ... : --- .. . ... ... ... : ... .. . ... ... ... : ... .. . ... ... ... : ... .. . ... ... ... : ... .. . ... ... ... : ... .. . ... ... ... : ... .. . ... ... ... : ... .. . ... ... ... : ... .. . ... ... ... : ... .. . ... ... ...
ROW 9C : ... .. . ... ... ... : ... .. . ... ... ... : D-2 00 . P6F ... ... : ... .. . ... ... ... : ... .. . ... ... ... : ... .. . ... ... ... : ... .. . ... ... ... : ... .. . ... ... ... : ... .. . ... ... ... : ... .. . ... ... ... : ... .. . ... ... ... : ... .. . ... ... ... : ... .. . ... ... ...
ROW 9D : ... .. . ... ... ... : ... .. . ... ... ... : C-2 00 . P6C ... ... : ... .. . ... ... ... : ... .. . ... ... ... : ... .. . ... ... ... : ... .. . ... ... ... : ... .. . ... ... ... : ... .. . ... ... ... : ... .. . ... ... ... : ... .. . ... ... ... : ... .. . ... ... ... : ... .. . ... ... ...
ROW 9E : ... .. . ... ... ... : ... .. . ... ... ... : A#1 00 . P75 ... ... : ... .. . ... ... ... : ... .. . ... ... ... : ... .. . ... ... ... : ... .. . ... ... ... : ... .. . ... ... ... : ... .. . ... ... ... : ... .. . ... ... ... : ... .. . ... ... ... : ... .. . ... ... ... : ... .. . ... ... ...
ROW 9F : ... .. . ... ... ... : ... .. . ... ... ... : G#1 00 . P8A ... ... : ... .. . ... ... ... : ... .. . ... ... ... : C-2 07 . ... ... ... : C-2 07 . P81 ... ... : ... .. . ... ... ... : ... .. . ... ... ... : ... .. . ... ... ... : ... .. . ... ... ... : ... .. . ... ... ... : ... .. . ... ... ...
ROW A0 : ... .. . ... ... ... : ... .. . ... ... ... : G-1 00 . P6A ... ... : ... .. . ... ... ... : ... .. . ... ... ... : ... .. . ... ... ... : ... .. . P80 ... ... : ... .. . ... ... ... : ... .. . ... ... ... : ... .. . ... ... ... : ... .. . ... ... ... : ... .. . ... ... ... : ... .. . ... ... ...
ROW A1 : ... .. . ... ... ... : ... .. . ... ... ... : F-1 00 . P96 ... ... : ... .. . ... ... ... : ... .. . ... ... ... : ... .. . ... ... ... : ... .. . P81 ... ... : ... .. . ... ... ... : ... .. . ... ... ... : ... .. . ... ... ... : ... .. . ... ... ... : ... .. . ... ... ... : ... .. . ... ... ...
ROW A2 : ... .. . ... ... ... : ... .. . ... ... ... : E-1 00 . P82 ... ... : ... .. . ... ... ... : ... .. . ... ... ... : ... .. . ... ... ... : B-1 07 . P7F ... ... : ... .. . ... ... ... : ... .. . ... ... ... : ... .. . ... ... ... : ... .. . ... ... ... : ... .. . ... ... ... : ... .. . ... ... ...
ROW A3 : ... .. . ... ... ... : C-4 02 . P80 ... ... : F#3 00 . P78 ... ... : 1-# 00 F ... ... ... : C-1 12 . ... ... ... : C#2 06 . ... ... ... : C#2 06 . P81 ... ... : ... .. . ... ... ... : C#2 06 8 P7F ... ... : ... .. . ... ... ... : ... .. . ... ... ... : ... .. . ... ... ... : ... .. . ... ... ...
ROW A4 : ... .. . ... ... ... : F-3 02 . ... ... ... : C#3 00 . P7E ... ... : 2-# 00 7 ... ... ... : ... .. . ... ... ... : ... .. . ... ... ... : ... .. . P80 ... ... : ... .. . ... ... ... : ... .. . ... ... ... : ... .. . ... ... ... : ... .. . ... ... ... : ... .. . ... ... ... : ... .. . ... ... ...
ROW A5 : ... .. . ... ... ... : A#2 02 . P81 ... ... : A-2 00 . P86 ... ... : 1-# 00 4 ... ... ... : ... .. . ... ... ... : ... .. . ... ... ... : ... .. . P81 ... ... : ... .. . ... ... ... : ... .. . ... ... ... : ... .. . ... ... ... : ... .. . ... ... ... : ... .. . ... ... ... : ... .. . ... ... ...
ROW A6 : ... .. . ... ... ... : D#2 02 . ... ... ... : --- .. . ... ... ... : ... .. 2 ... ... ... : ... .. . ... ... ... : C#2 09 . ... ... ... : C#2 09 . P82 ... ... : ... .. . ... ... ... : C#2 09 . ... ... ... : ... .. . ... ... ... : ... .. . ... ... ... : ... .. . ... ... ... : ... .. . ... ... ...
ROW A7 : ... .. . ... ... ... : G#1 02 . ... ... ... : ... .. . ... ... ... : ... .. 1 ... ... ... : ... .. . ... ... ... : ... .. . ... ... ... : ... .. . ... ... ... : ... .. . ... ... ... : ... .. . ... ... ... : ... .. . ... ... ... : ... .. . ... ... ... : ... .. . ... ... ... : ... .. . ... ... ...
ROW A8 : ... .. . ... ... ... : C#1 02 . ... ... ... : ... .. . ... ... ... : --- .. . ... ... ... : ... .. . ... ... ... : ... .. . ... ... ... : ... .. . P81 ... ... : ... .. . ... ... ... : ... .. . ... ... ... : ... .. . ... ... ... : ... .. . ... ... ... : ... .. . ... ... ... : ... .. . ... ... ...
ROW A9 : ... .. . ... ... ... : ... .. . ... ... ... : ... .. . ... ... ... : ... .. . ... ... ... : ... .. . ... ... ... : C#2 06 . ... ... ... : C#2 06 . ... ... ... : ... .. . ... ... ... : C#2 06 7 ... ... ... : ... .. . ... ... ... : ... .. . ... ... ... : ... .. . ... ... ... : ... .. . ... ... ...
ROW AA : ... .. . ... ... ... : ... .. . ... ... ... : ... .. . ... ... ... : ... .. . ... ... ... : ... .. . ... ... ... : ... .. . ... ... ... : ... .. . P82 ... ... : ... .. . ... ... ... : ... .. . ... ... ... : ... .. . ... ... ... : ... .. . ... ... ... : ... .. . ... ... ... : ... .. . ... ... ...
ROW AB : ... .. . ... ... ... : ... .. . ... ... ... : ... .. . ... ... ... : ... .. . ... ... ... : ... .. . ... ... ... : ... .. . ... ... ... : C-2 06 . P7F ... ... : ... .. . ... ... ... : ... .. . ... ... ... : ... .. . ... ... ... : ... .. . ... ... ... : ... .. . ... ... ... : ... .. . ... ... ...
ROW AC : ... .. . ... ... ... : ... .. . ... ... ... : ... .. . ... ... ... : ... .. . ... ... ... : ... .. . ... ... ... : C#2 09 . ... ... ... : C#2 09 . P81 ... ... : ... .. . ... ... ... : C#2 09 . ... ... ... : ... .. . ... ... ... : ... .. . ... ... ... : ... .. . ... ... ... : ... .. . ... ... ...
ROW AD : ... .. . ... ... ... : ... .. . ... ... ... : ... .. . ... ... ... : ... .. . ... ... ... : ... .. . ... ... ... : ... .. . ... ... ... : ... .. . P80 ... ... : ... .. . ... ... ... : ... .. . ... ... ... : ... .. . ... ... ... : ... .. . ... ... ... : ... .. . ... ... ... : ... .. . ... ... ...
ROW AE : ... .. . ... ... ... : ... .. . ... ... ... : ... .. . ... ... ... : ... .. . ... ... ... : ... .. . ... ... ... : ... .. . ... ... ... : ... .. . P81 ... ... : ... .. . ... ... ... : ... .. . ... ... ... : ... .. . ... ... ... : ... .. . ... ... ... : ... .. . ... ... ... : ... .. . ... ... ...
ROW AF : ... .. . ... ... ... : ... .. . ... ... ... : ... .. . ... ... ... : D-# 00 A ... ... ... : ... .. . ... ... ... : C#2 06 . ... ... ... : C-2 06 . P7F ... ... : ... .. . ... ... ... : C#2 06 . ... ... ... : ... .. . ... ... ... : ... .. . ... ... ... : ... .. . ... ... ... : ... .. . ... ... ...
ROW B0 : ... .. . ... ... ... : ... .. . ... ... ... : ... .. . ... ... ... : E-# 00 4 ... ... ... : ... .. . ... ... ... : ... .. . ... ... ... : C#2 06 . P81 ... ... : ... .. . ... ... ... : ... .. . ... ... ... : ... .. . ... ... ... : ... .. . ... ... ... : ... .. . ... ... ... : ... .. . ... ... ...
ROW B1 : ... .. . ... ... ... : ... .. . ... ... ... : ... .. . ... ... ... : D-# 00 2 ... ... ... : ... .. . ... ... ... : ... .. . ... ... ... : ... .. . P80 ... ... : ... .. . ... ... ... : ... .. 6 ... ... ... : ... .. . ... ... ... : ... .. . ... ... ... : ... .. . ... ... ... : ... .. . ... ... ...
ROW B2 : ... .. . ... ... ... : ... .. . ... ... ... : ... .. . ... ... ... : ... .. 1 ... ... ... : ... .. . ... ... ... : C#2 09 . ... ... ... : C#2 09 . P81 ... ... : ... .. . ... ... ... : C#2 09 . ... ... ... : ... .. . ... ... ... : ... .. . ... ... ... : ... .. . ... ... ... : ... .. . ... ... ...
ROW B3 : ... .. . ... ... ... : ... .. . ... ... ... : ... .. . ... ... ... : ... .. . ... ... ... : ... .. . ... ... ... : ... .. . ... ... ... : C-2 09 . P7F ... ... : ... .. . ... ... ... : ... .. . ... ... ... : ... .. . ... ... ... : ... .. . ... ... ... : ... .. . ... ... ... : ... .. . ... ... ...
ROW B4 : ... .. . ... ... ... : ... .. . ... ... ... : ... .. . ... ... ... : --- .. . ... ... ... : ... .. . ... ... ... : ... .. . ... ... ... : C#2 09 . P81 ... ... : ... .. . ... ... ... : ... .. . ... ... ... : ... .. . ... ... ... : ... .. . ... ... ... : ... .. . ... ... ... : ... .. . ... ... ...
ROW B5 : ... .. . ... ... ... : ... .. . ... ... ... : ... .. . ... ... ... : D-# 00 A ... ... ... : ... .. . ... ... ... : C#2 06 . ... ... ... : C#2 06 . P80 ... ... : ... .. . ... ... ... : C#2 06 . ... ... ... : ... .. . ... ... ... : ... .. . ... ... ... : ... .. . ... ... ... : ... .. . ... ... ...
ROW B6 : ... .. . ... ... ... : ... .. . ... ... ... : ... .. . ... ... ... : E-# 00 4 ... ... ... : ... .. . ... ... ... : ... .. . ... ... ... : ... .. . P81 ... ... : ... .. . ... ... ... : ... .. . ... ... ... : ... .. . ... ... ... : ... .. . ... ... ... : ... .. . ... ... ... : ... .. . ... ... ...
ROW B7 : ... .. . ... ... ... : ... .. . ... ... ... : ... .. . ... ... ... : D-# 00 2 ... ... ... : ... .. . ... ... ... : ... .. . ... ... ... : ... .. . P82 ... ... : ... .. . ... ... ... : ... .. . ... ... ... : ... .. . ... ... ... : ... .. . ... ... ... : ... .. . ... ... ... : ... .. . ... ... ...
ROW B8 : ... .. . ... ... ... : ... .. . ... ... ... : ... .. . ... ... ... : ... .. 1 ... ... ... : ... .. . ... ... ... : C#2 09 . ... ... ... : C#2 09 . ... ... ... : ... .. . ... ... ... : C#2 09 . ... ... ... : ... .. . ... ... ... : ... .. . ... ... ... : ... .. . ... ... ... : ... .. . ... ... ...
ROW B9 : ... .. . ... ... ... : ... .. . ... ... ... : ... .. . ... ... ... : ... .. . ... ... ... : ... .. . ... ... ... : ... .. . ... ... ... : ... .. . P81 ... ... : ... .. . ... ... ... : ... .. 5 ... ... ... : ... .. . ... ... ... : ... .. . ... ... ... : ... .. . ... ... ... : ... .. . ... ... ...
ROW BA : ... .. . ... ... ... : ... .. . ... ... ... : ... .. . ... ... ... : --- .. . ... ... ... : ... .. . ... ... ... : ... .. . ... ... ... : ... .. . P80 ... ... : ... .. . ... ... ... : ... .. . ... ... ... : ... .. . ... ... ... : ... .. . ... ... ... : ... .. . ... ... ... : ... .. . ... ... ...
ROW BB : ... .. . ... ... ... : ... .. . ... ... ... : ... .. . ... ... ... : ... .. . ... ... ... : ... .. . ... ... ... : ... .. . ... ... ... : ... .. . P81 ... ... : ... .. . ... ... ... : ... .. . ... ... ... : ... .. . ... ... ... : ... .. . ... ... ... : ... .. . ... ... ... : ... .. . ... ... ...
ROW BC : ... .. . ... ... ... : C-4 02 . P80 ... ... : C#4 00 . P7F ... ... : 9-# 00 F ... ... ... : C#1 12 . ... ... ... : G-1 06 . ... ... ... : F#1 06 . P80 ... ... : ... .. . ... ... ... : G-1 06 . ... ... ... : ... .. . ... ... ... : ... .. . ... ... ... : ... .. . ... ... ... : ... .. . ... ... ...
ROW BD : ... .. . ... ... ... : F-3 02 . ... ... ... : F#3 00 . P83 ... ... : 2-# 00 7 ... ... ... : ... .. . ... ... ... : ... .. . ... ... ... : G-1 06 . P81 ... ... : ... .. . ... ... ... : ... .. . ... ... ... : ... .. . ... ... ... : ... .. . ... ... ... : ... .. . ... ... ... : ... .. . ... ... ...
ROW BE : ... .. . ... ... ... : A#2 02 . P81 ... ... : C#3 00 . P89 ... ... : 6-# 00 C ... ... ... : ... .. . ... ... ... : ... .. . ... ... ... : ... .. . P80 ... ... : ... .. . ... ... ... : ... .. . ... ... ... : ... .. . ... ... ... : ... .. . ... ... ... : ... .. . ... ... ... : ... .. . ... ... ...
ROW BF : ... .. . ... ... ... : D#2 02 . ... ... ... : A#2 00 . P75 ... ... : 7-# 00 8 ... ... ... : ... .. . ... ... ... : ... .. . ... ... ... : ... .. . P81 ... ... : ... .. . ... ... ... : ... .. . ... ... ... : ... .. . ... ... ... : ... .. . ... ... ... : ... .. . ... ... ... : ... .. . ... ... ...
ROW C0 : ... .. . ... ... ... : G#1 02 . ... ... ... : G-2 00 . P70 ... ... : 8-# 00 7 ... ... ... : ... .. . ... ... ... : ... .. . ... ... ... : F#1 06 . P80 ... ... : ... .. . ... ... ... : ... .. . ... ... ... : ... .. . ... ... ... : ... .. . ... ... ... : ... .. . ... ... ... : ... .. . ... ... ...
ROW C1 : ... .. . ... ... ... : C#1 02 . ... ... ... : E-2 00 . P7C ... ... : ... .. 6 ... ... ... : ... .. . ... ... ... : ... .. . ... ... ... : G-1 06 . P81 ... ... : ... .. . ... ... ... : ... .. 4 ... ... ... : ... .. . ... ... ... : ... .. . ... ... ... : ... .. . ... ... ... : ... .. . ... ... ...
ROW C2 : ... .. . ... ... ... : ... .. . ... ... ... : --- .. . ... ... ... : ... .. . ... ... ... : ... .. . ... ... ... : G-1 07 . ... ... ... : G-1 07 . P80 ... ... : ... .. . ... ... ... : G-1 07 . ... ... ... : ... .. . ... ... ... : ... .. . ... ... ... : ... .. . ... ... ... : ... .. . ... ... ...
ROW C3 : ... .. . ... ... ... : ... .. . ... ... ... : ... .. . ... ... ... : ... .. 5 ... ... ... : ... .. . ... ... ... : ... .. . ... ... ... : ... .. . P81 ... ... : ... .. . ... ... ... : ... .. . ... ... ... : ... .. . ... ... ... : ... .. . ... ... ... : ... .. . ... ... ... : ... .. . ... ... ...
ROW C4 : ... .. . ... ... ... : ... .. . ... ... ... : ... .. . ... ... ... : ... .. . ... ... ... : ... .. . ... ... ... : ... .. . ... ... ... : F#1 07 . P80 ... ... : ... .. . ... ... ... : ... .. . ... ... ... : ... .. . ... ... ... : ... .. . ... ... ... : ... .. . ... ... ... : ... .. . ... ... ...
ROW C5 : ... .. . ... ... ... : ... .. . ... ... ... : ... .. . ... ... ... : ... .. 4 ... ... ... : ... .. . ... ... ... : G-1 08 . ... ... ... : F#1 08 . ... ... ... : ... .. . ... ... ... : G-1 08 . ... ... ... : ... .. . ... ... ... : ... .. . ... ... ... : ... .. . ... ... ... : ... .. . ... ... ...
ROW C6 : ... .. . ... ... ... : ... .. . ... ... ... : ... .. . ... ... ... : ... .. . ... ... ... : ... .. . ... ... ... : ... .. . ... ... ... : G-1 08 . P81 ... ... : ... .. . ... ... ... : ... .. . ... ... ... : ... .. . ... ... ... : ... .. . ... ... ... : ... .. . ... ... ... : ... .. . ... ... ...
ROW C7 : ... .. . ... ... ... : ... .. . ... ... ... : ... .. . ... ... ... : ... .. 3 ... ... ... : ... .. . ... ... ... : ... .. . ... ... ... : ... .. . ... ... ... : ... .. . ... ... ... : ... .. . ... ... ... : ... .. . ... ... ... : ... .. . ... ... ... : ... .. . ... ... ... : ... .. . ... ... ...
ROW C8 : ... .. . ... ... ... : ... .. . ... ... ... : ... .. . ... ... ... : 6-# 01 F ... ... ... : ... .. . ... ... ... : B-1 06 . ... ... ... : A#1 06 . P7F ... ... : ... .. . ... ... ... : B-1 06 . ... ... ... : ... .. . ... ... ... : ... .. . ... ... ... : ... .. . ... ... ... : ... .. . ... ... ...
ROW C9 : ... .. . ... ... ... : ... .. . ... ... ... : ... .. . ... ... ... : ... .. 9 ... ... ... : ... .. . ... ... ... : ... .. . ... ... ... : ... .. . ... ... ... : ... .. . ... ... ... : ... .. 3 ... ... ... : ... .. . ... ... ... : ... .. . ... ... ... : ... .. . ... ... ... : ... .. . ... ... ...
ROW CA : ... .. . ... ... ... : ... .. . ... ... ... : ... .. . ... ... ... : ... .. 4 ... ... ... : ... .. . ... ... ... : ... .. . ... ... ... : B-1 06 . P81 ... ... : ... .. . ... ... ... : ... .. . ... ... ... : ... .. . ... ... ... : ... .. . ... ... ... : ... .. . ... ... ... : ... .. . ... ... ...
ROW CB : ... .. . ... ... ... : ... .. . ... ... ... : ... .. . ... ... ... : ... .. 7 ... ... ... : ... .. . ... ... ... : ... .. . ... ... ... : ... .. . P80 ... ... : ... .. . ... ... ... : ... .. . ... ... ... : ... .. . ... ... ... : ... .. . ... ... ... : ... .. . ... ... ... : ... .. . ... ... ...
ROW CC : ... .. . ... ... ... : ... .. . ... ... ... : ... .. . ... ... ... : ... .. 5 ... ... ... : ... .. . ... ... ... : ... .. . ... ... ... : ... .. . P81 ... ... : ... .. . ... ... ... : ... .. . ... ... ... : ... .. . ... ... ... : ... .. . ... ... ... : ... .. . ... ... ... : ... .. . ... ... ...
ROW CD : ... .. . ... ... ... : ... .. . ... ... ... : ... .. . ... ... ... : ... .. . ... ... ... : ... .. . ... ... ... : ... .. . ... ... ... : A#1 06 . P80 ... ... : ... .. . ... ... ... : ... .. . ... ... ... : ... .. . ... ... ... : ... .. . ... ... ... : ... .. . ... ... ... : ... .. . ... ... ...
ROW CE : ... .. . ... ... ... : ... .. . ... ... ... : ... .. . ... ... ... : ... .. 4 ... ... ... : ... .. . ... ... ... : B-1 07 . ... ... ... : B-1 07 . P81 ... ... : ... .. . ... ... ... : B-1 07 . ... ... ... : ... .. . ... ... ... : ... .. . ... ... ... : ... .. . ... ... ... : ... .. . ... ... ...
ROW CF : ... .. . ... ... ... : ... .. . ... ... ... : ... .. . ... ... ... : ... .. . ... ... ... : ... .. . ... ... ... : ... .. . ... ... ... : ... .. . P80 ... ... : ... .. . ... ... ... : ... .. . ... ... ... : ... .. . ... ... ... : ... .. . ... ... ... : ... .. . ... ... ... : ... .. . ... ... ...
ROW D0 : ... .. . ... ... ... : ... .. . ... ... ... : ... .. . ... ... ... : ... .. 3 ... ... ... : ... .. . ... ... ... : ... .. . ... ... ... : ... .. . P81 ... ... : ... .. . ... ... ... : ... .. . ... ... ... : ... .. . ... ... ... : ... .. . ... ... ... : ... .. . ... ... ... : ... .. . ... ... ...
ROW D1 : ... .. . ... ... ... : ... .. . ... ... ... : ... .. . ... ... ... : ... .. 2 ... ... ... : ... .. . ... ... ... : B-1 08 . ... ... ... : A#1 08 . P80 ... ... : ... .. . ... ... ... : B-1 08 2 ... ... ... : ... .. . ... ... ... : ... .. . ... ... ... : ... .. . ... ... ... : ... .. . ... ... ...
ROW D2 : ... .. . ... ... ... : ... .. . ... ... ... : ... .. . ... ... ... : ... .. . ... ... ... : ... .. . ... ... ... : ... .. . ... ... ... : B-1 08 . P81 ... ... : ... .. . ... ... ... : ... .. . ... ... ... : ... .. . ... ... ... : ... .. . ... ... ... : ... .. . ... ... ... : ... .. . ... ... ...
ROW D3 : ... .. . ... ... ... : ... .. . ... ... ... : ... .. . ... ... ... : ... .. 1 ... ... ... : ... .. . ... ... ... : ... .. . ... ... ... : ... .. . P80 ... ... : ... .. . ... ... ... : ... .. . ... ... ... : ... .. . ... ... ... : ... .. . ... ... ... : ... .. . ... ... ... : ... .. . ... ... ...
ROW D4 : ... .. . ... ... ... : ... .. . ... ... ... : ... .. . ... ... ... : ... .. . ... ... ... : ... .. . ... ... ... : ... .. . ... ... ... : ... .. . P81 ... ... : ... .. . ... ... ... : ... .. . ... ... ... : ... .. . ... ... ... : ... .. . ... ... ... : ... .. . ... ... ... : ... .. . ... ... ...
ROW D5 : ... .. . ... ... ... : C-4 02 . P80 ... ... : F#3 00 . P78 ... ... : 1-# 00 F ... ... ... : C-1 12 . ... ... ... : G#1 06 . ... ... ... : G-1 06 . P80 ... ... : ... .. . ... ... ... : G#1 06 . ... ... ... : ... .. . ... ... ... : ... .. . ... ... ... : ... .. . ... ... ... : ... .. . ... ... ...
ROW D6 : ... .. . ... ... ... : F-3 02 . ... ... ... : C#3 00 . P7E ... ... : 2-# 00 7 ... ... ... : ... .. . ... ... ... : ... .. . ... ... ... : ... .. . ... ... ... : ... .. . ... ... ... : ... .. . ... ... ... : ... .. . ... ... ... : ... .. . ... ... ... : ... .. . ... ... ... : ... .. . ... ... ...
ROW D7 : ... .. . ... ... ... : A#2 02 . P81 ... ... : A-2 00 . P86 ... ... : 1-# 00 4 ... ... ... : ... .. . ... ... ... : ... .. . ... ... ... : G#1 06 . P81 ... ... : ... .. . ... ... ... : ... .. . ... ... ... : ... .. . ... ... ... : ... .. . ... ... ... : ... .. . ... ... ... : ... .. . ... ... ...
ROW D8 : ... .. . ... ... ... : D#2 02 . ... ... ... : --- .. . ... ... ... : ... .. 2 ... ... ... : ... .. . ... ... ... : ... .. . ... ... ... : ... .. . ... ... ... : ... .. . ... ... ... : ... .. . ... ... ... : ... .. . ... ... ... : ... .. . ... ... ... : ... .. . ... ... ... : ... .. . ... ... ...
ROW D9 : ... .. . ... ... ... : G#1 02 . ... ... ... : ... .. . ... ... ... : ... .. 1 ... ... ... : ... .. . ... ... ... : ... .. . ... ... ... : G-1 06 . P80 ... ... : ... .. . ... ... ... : ... .. 1 ... ... ... : ... .. . ... ... ... : ... .. . ... ... ... : ... .. . ... ... ... : ... .. . ... ... ...
ROW DA : ... .. . ... ... ... : C#1 02 . ... ... ... : ... .. . ... ... ... : --- .. . ... ... ... : ... .. . ... ... ... : ... .. . ... ... ... : ... .. . ... ... ... : ... .. . ... ... ... : ... .. . ... ... ... : ... .. . ... ... ... : ... .. . ... ... ... : ... .. . ... ... ... : ... .. . ... ... ...
ROW DB : ... .. . ... ... ... : ... .. . ... ... ... : ... .. . ... ... ... : ... .. . ... ... ... : ... .. . ... ... ... : G#1 07 . ... ... ... : G#1 07 . P81 ... ... : ... .. . ... ... ... : G#1 07 . ... ... ... : ... .. . ... ... ... : ... .. . ... ... ... : ... .. . ... ... ... : ... .. . ... ... ...
ROW DC : ... .. . ... ... ... : ... .. . ... ... ... : ... .. . ... ... ... : ... .. . ... ... ... : ... .. . ... ... ... : ... .. . ... ... ... : ... .. . P80 ... ... : ... .. . ... ... ... : ... .. . ... ... ... : ... .. . ... ... ... : ... .. . ... ... ... : ... .. . ... ... ... : ... .. . ... ... ...
ROW DD : ... .. . ... ... ... : ... .. . ... ... ... : ... .. . ... ... ... : ... .. . ... ... ... : ... .. . ... ... ... : ... .. . ... ... ... : ... .. . P81 ... ... : ... .. . ... ... ... : ... .. . ... ... ... : ... .. . ... ... ... : ... .. . ... ... ... : ... .. . ... ... ... : ... .. . ... ... ...
ROW DE : ... .. . ... ... ... : ... .. . ... ... ... : ... .. . ... ... ... : ... .. . ... ... ... : ... .. . ... ... ... : G-1 07 . ... ... ... : F#1 07 . P80 ... ... : ... .. . ... ... ... : ... .. . P81 ... ... : ... .. . ... ... ... : ... .. . ... ... ... : ... .. . ... ... ... : ... .. . ... ... ...
ROW DF : ... .. . ... ... ... : ... .. . ... ... ... : ... .. . ... ... ... : ... .. . ... ... ... : ... .. . ... ... ... : F#1 07 . ... ... ... : ... .. . P81 ... ... : ... .. . ... ... ... : G-1 07 . ... ... ... : ... .. . ... ... ... : ... .. . ... ... ... : ... .. . ... ... ... : ... .. . ... ... ...
ROW E0 : ... .. . ... ... ... : ... .. . ... ... ... : ... .. . ... ... ... : ... .. . ... ... ... : ... .. . ... ... ... : F-1 07 . ... ... ... : F-1 07 . P80 ... ... : ... .. . ... ... ... : F#1 07 . ... ... ... : ... .. . ... ... ... : ... .. . ... ... ... : ... .. . ... ... ... : ... .. . ... ... ...
ROW E1 : ... .. . ... ... ... : ... .. . ... ... ... : ... .. . ... ... ... : D-# 00 A ... ... ... : ... .. . ... ... ... : E-1 08 . ... ... ... : E-1 08 . P81 ... ... : G#6 03 7 ... ... ... : --- .. . ... ... ... : ... .. . ... ... ... : ... .. . ... ... ... : ... .. . ... ... ... : ... .. . ... ... ...
ROW E2 : ... .. . ... ... ... : ... .. . ... ... ... : ... .. . ... ... ... : E-# 00 4 ... ... ... : ... .. . ... ... ... : D#1 08 . ... ... ... : D-1 08 . P80 ... ... : ... .. . ... ... ... : ... .. . P80 ... ... : ... .. . ... ... ... : ... .. . ... ... ... : ... .. . ... ... ... : ... .. . ... ... ...
ROW E3 : ... .. . ... ... ... : ... .. . ... ... ... : ... .. . ... ... ... : D-# 00 2 ... ... ... : ... .. . ... ... ... : D-1 08 . ... ... ... : ... .. . P81 ... ... : ... .. . ... ... ... : ... .. . ... ... ... : ... .. . ... ... ... : ... .. . ... ... ... : ... .. . ... ... ... : ... .. . ... ... ...
ROW E4 : ... .. . ... ... ... : ... .. . ... ... ... : ... .. . ... ... ... : ... .. 1 ... ... ... : ... .. . ... ... ... : C#1 08 . ... ... ... : C#1 08 . P80 ... ... : ... .. 5 ... ... ... : ... .. . ... ... ... : ... .. . ... ... ... : ... .. . ... ... ... : ... .. . ... ... ... : ... .. . ... ... ...
ROW E5 : ... .. . ... ... ... : ... .. . ... ... ... : ... .. . ... ... ... : ... .. . ... ... ... : ... .. . ... ... ... : C-1 08 . P81 ... ... : C-1 08 . P81 ... ... : ... .. . ... ... ... : ... .. . ... ... ... : ... .. . ... ... ... : ... .. . ... ... ... : ... .. . ... ... ... : ... .. . ... ... ...
ROW E6 : ... .. . ... ... ... : ... .. . ... ... ... : ... .. . ... ... ... : --- .. . ... ... ... : ... .. . ... ... ... : B-0 08 . ... ... ... : A-0 08 . P80 ... ... : ... .. . ... ... ... : ... .. . ... ... ... : ... .. . ... ... ... : ... .. . ... ... ... : ... .. . ... ... ... : ... .. . ... ... ...
ROW E7 : ... .. . ... ... ... : ... .. . ... ... ... : ... .. . ... ... ... : D-# 00 A ... ... ... : ... .. . ... ... ... : A-0 09 . P80 ... ... : G#0 09 . P81 ... ... : ... .. 3 ... ... ... : ... .. . ... ... ... : ... .. . ... ... ... : ... .. . ... ... ... : ... .. . ... ... ... : ... .. . ... ... ...
ROW E8 : ... .. . ... ... ... : ... .. . ... ... ... : ... .. . ... ... ... : E-# 00 4 ... ... ... : ... .. . ... ... ... : G-0 09 . ... ... ... : G-0 09 . P80 ... ... : ... .. . ... ... ... : ... .. . ... ... ... : ... .. . ... ... ... : ... .. . ... ... ... : ... .. . ... ... ... : ... .. . ... ... ...
ROW E9 : ... .. . ... ... ... : ... .. . ... ... ... : ... .. . ... ... ... : D-# 00 2 ... ... ... : ... .. . ... ... ... : F#0 09 . P81 ... ... : F-0 09 . ... ... ... : ... .. . ... ... ... : ... .. . ... ... ... : ... .. . ... ... ... : ... .. . ... ... ... : ... .. . ... ... ... : ... .. . ... ... ...
ROW EA : ... .. . ... ... ... : ... .. . ... ... ... : ... .. . ... ... ... : ... .. 1 ... ... ... : ... .. . ... ... ... : E-0 09 . ... ... ... : D-0 09 . ... ... ... : ... .. 1 ... ... ... : ... .. . ... ... ... : ... .. . ... ... ... : ... .. . ... ... ... : ... .. . ... ... ... : ... .. . ... ... ...
ROW EB : ... .. . ... ... ... : ... .. . ... ... ... : ... .. . ... ... ... : ... .. . ... ... ... : ... .. . ... ... ... : D-0 09 . ... ... ... : C-0 09 . P81 ... ... : ... .. . ... ... ... : ... .. . ... ... ... : ... .. . ... ... ... : ... .. . ... ... ... : ... .. . ... ... ... : ... .. . ... ... ...
ROW EC : ... .. . ... ... ... : ... .. . ... ... ... : ... .. . ... ... ... : --- .. . ... ... ... : ... .. . ... ... ... : C-0 09 . ... ... ... : ... .. . P82 ... ... : ... .. . ... ... ... : ... .. . ... ... ... : ... .. . ... ... ... : ... .. . ... ... ... : ... .. . ... ... ... : ... .. . ... ... ...
ROW ED : ... .. . ... ... ... : ... .. . ... ... ... : ... .. . ... ... ... : ... .. . ... ... ... : ... .. . ... ... ... : ... .. . P83 ... ... : ... .. . P83 ... ... : ... .. . ... ... ... : ... .. . ... ... ... : ... .. . ... ... ... : ... .. . ... ... ... : ... .. . ... ... ... : ... .. . ... ... ...
ROW EE : ... .. . ... ... ... : C-4 02 . P80 ... ... : C#4 00 . P7F ... ... : 9-# 00 F ... ... ... : C#1 12 . ... ... ... : G#1 04 . P80 ... ... : C-0 04 . P86 ... ... : G-1 04 9 ... ... ... : A-1 04 9 P82 ... ... : ... .. . ... ... ... : ... .. . ... ... ... : ... .. . ... ... ... : ... .. . ... ... ...
ROW EF : ... .. . ... ... ... : F-3 02 . ... ... ... : F#3 00 . P83 ... ... : 2-# 00 7 ... ... ... : ... .. . ... ... ... : ... .. . ... ... ... : --- .. . P7C ... ... : ... .. . ... ... ... : ... .. . ... ... ... : ... .. . ... ... ... : ... .. . ... ... ... : ... .. . ... ... ... : ... .. . ... ... ...
ROW F0 : ... .. . ... ... ... : A#2 02 . P81 ... ... : C#3 00 . P89 ... ... : 6-# 00 C ... ... ... : ... .. . ... ... ... : ... .. . ... ... ... : ... .. . P7D ... ... : ... .. . ... ... ... : ... .. . ... ... ... : ... .. . ... ... ... : ... .. . ... ... ... : ... .. . ... ... ... : ... .. . ... ... ...
ROW F1 : ... .. . ... ... ... : D#2 02 . ... ... ... : A#2 00 . P75 ... ... : 7-# 00 8 ... ... ... : ... .. . ... ... ... : ... .. . ... ... ... : ... .. . P7E ... ... : ... .. . ... ... ... : ... .. . ... ... ... : ... .. . ... ... ... : ... .. . ... ... ... : ... .. . ... ... ... : ... .. . ... ... ...
ROW F2 : ... .. . ... ... ... : G#1 02 . ... ... ... : G-2 00 . P70 ... ... : 8-# 00 7 ... ... ... : ... .. . ... ... ... : ... .. . ... ... ... : D#7 04 . P81 ... ... : ... .. 8 ... ... ... : ... .. . ... ... ... : ... .. . ... ... ... : ... .. . ... ... ... : ... .. . ... ... ... : ... .. . ... ... ...
ROW F3 : ... .. . ... ... ... : C#1 02 . ... ... ... : E-2 00 . P7C ... ... : ... .. 6 ... ... ... : ... .. . ... ... ... : ... .. . ... ... ... : ... .. . P82 ... ... : ... .. . ... ... ... : ... .. . ... ... ... : ... .. . ... ... ... : ... .. . ... ... ... : ... .. . ... ... ... : ... .. . ... ... ...
ROW F4 : ... .. . ... ... ... : ... .. . ... ... ... : --- .. . ... ... ... : ... .. . ... ... ... : ... .. . ... ... ... : G#2 04 . ... ... ... : ... .. . P81 ... ... : G#2 04 . P82 ... ... : G#2 04 . P7F ... ... : ... .. . ... ... ... : ... .. . ... ... ... : ... .. . ... ... ... : ... .. . ... ... ...
ROW F5 : ... .. . ... ... ... : ... .. . ... ... ... : ... .. . ... ... ... : ... .. 5 ... ... ... : ... .. . ... ... ... : ... .. . ... ... ... : --- .. . ... ... ... : ... .. . ... ... ... : ... .. . ... ... ... : ... .. . ... ... ... : ... .. . ... ... ... : ... .. . ... ... ... : ... .. . ... ... ...
ROW F6 : ... .. . ... ... ... : ... .. . ... ... ... : ... .. . ... ... ... : ... .. . ... ... ... : ... .. . ... ... ... : ... .. . ... ... ... : D#7 04 . ... ... ... : ... .. 7 ... ... ... : ... .. 8 ... ... ... : ... .. . ... ... ... : ... .. . ... ... ... : ... .. . ... ... ... : ... .. . ... ... ...
ROW F7 : ... .. . ... ... ... : ... .. . ... ... ... : ... .. . ... ... ... : ... .. 4 ... ... ... : ... .. . ... ... ... : ... .. . ... ... ... : ... .. . P82 ... ... : ... .. . ... ... ... : ... .. . ... ... ... : ... .. . ... ... ... : ... .. . ... ... ... : ... .. . ... ... ... : ... .. . ... ... ...
ROW F8 : ... .. . ... ... ... : ... .. . ... ... ... : ... .. . ... ... ... : ... .. . ... ... ... : ... .. . ... ... ... : ... .. . ... ... ... : ... .. . ... ... ... : ... .. . ... ... ... : ... .. . ... ... ... : ... .. . ... ... ... : ... .. . ... ... ... : ... .. . ... ... ... : ... .. . ... ... ...
ROW F9 : ... .. . ... ... ... : ... .. . ... ... ... : ... .. . ... ... ... : ... .. 3 ... ... ... : ... .. . ... ... ... : ... .. . ... ... ... : ... .. . P81 ... ... : ... .. . ... ... ... : ... .. . ... ... ... : ... .. . ... ... ... : ... .. . ... ... ... : ... .. . ... ... ... : ... .. . ... ... ...
ROW FA : ... .. . ... ... ... : ... .. . ... ... ... : ... .. . ... ... ... : D-# 00 A ... ... ... : ... .. . ... ... ... : G#1 04 . ... ... ... : --- .. . ... ... ... : G-1 04 6 P80 ... ... : A-1 04 . P82 ... ... : ... .. . ... ... ... : ... .. . ... ... ... : ... .. . ... ... ... : ... .. . ... ... ...
ROW FB : ... .. . ... ... ... : ... .. . ... ... ... : ... .. . ... ... ... : E-# 00 4 ... ... ... : ... .. . ... ... ... : ... .. . ... ... ... : ... .. . P80 ... ... : ... .. . ... ... ... : ... .. . ... ... ... : ... .. . ... ... ... : ... .. . ... ... ... : ... .. . ... ... ... : ... .. . ... ... ...
ROW FC : ... .. . ... ... ... : ... .. . ... ... ... : ... .. . ... ... ... : D-# 00 2 ... ... ... : ... .. . ... ... ... : ... .. . ... ... ... : ... .. . ... ... ... : ... .. . ... ... ... : ... .. . ... ... ... : ... .. . ... ... ... : ... .. . ... ... ... : ... .. . ... ... ... : ... .. . ... ... ...
ROW FD : ... .. . ... ... ... : ... .. . ... ... ... : ... .. . ... ... ... : ... .. 1 ... ... ... : ... .. . ... ... ... : ... .. . ... ... ... : ... .. . ... ... ... : ... .. . ... ... ... : ... .. . ... ... ... : ... .. . ... ... ... : ... .. . ... ... ... : ... .. . ... ... ... : ... .. . ... ... ...
ROW FE : ... .. . ... ... ... : ... .. . ... ... ... : ... .. . ... ... ... : ... .. . ... ... ... : ... .. . ... ... ... : ... .. . ... ... ... : ... .. . ... ... ... : ... .. 5 ... ... ... : ... .. 7 ... ... ... : ... .. . ... ... ... : ... .. . ... ... ... : ... .. . ... ... ... : ... .. . ... ... ...
ROW FF : ... .. . ... ... ... : ... .. . ... ... ... : ... .. . ... ... ... : --- .. . ... ... ... : ... .. . ... ... ... : ... .. . ... ... ... : ... .. . ... ... ... : ... .. . ... ... ... : ... .. . ... ... ... : ... .. . ... ... ... : ... .. . ... ... ... : ... .. . ... ... ... : ... .. . ... ... ...

PATTERN 18
ROW 00 : ... .. . ... ... ... : ... .. . ... ... ... : ... .. . ... ... ... : D-# 00 A ... ... ... : ... .. . ... ... ... : G#2 04 . ... ... ... : ... .. . ... ... ... : G#2 04 . P82 ... ... : G#2 04 . P7F ... ... : ... .. . ... ... ... : ... .. . ... ... ... : ... .. . ... ... ... : ... .. . ... ... ...
ROW 01 : ... .. . ... ... ... : ... .. . ... ... ... : ... .. . ... ... ... : E-# 00 4 ... ... ... : ... .. . ... ... ... : ... .. . ... ... ... : ... .. . ... ... ... : ... .. . ... ... ... : ... .. . ... ... ... : ... .. . ... ... ... : ... .. . ... ... ... : ... .. . ... ... ... : ... .. . ... ... ...
ROW 02 : ... .. . ... ... ... : ... .. . ... ... ... : ... .. . ... ... ... : D-# 00 2 ... ... ... : ... .. . ... ... ... : ... .. . ... ... ... : ... .. . ... ... ... : ... .. 4 ... ... ... : ... .. . ... ... ... : ... .. . ... ... ... : ... .. . ... ... ... : ... .. . ... ... ... : ... .. . ... ... ...
ROW 03 : ... .. . ... ... ... : ... .. . ... ... ... : ... .. . ... ... ... : ... .. 1 ... ... ... : ... .. . ... ... ... : ... .. . ... ... ... : ... .. . ... ... ... : ... .. . ... ... ... : ... .. . ... ... ... : ... .. . ... ... ... : ... .. . ... ... ... : ... .. . ... ... ... : ... .. . ... ... ...
ROW 04 : ... .. . ... ... ... : ... .. . ... ... ... : ... .. . ... ... ... : ... .. . ... ... ... : ... .. . ... ... ... : ... .. . ... ... ... : ... .. . ... ... ... : ... .. . ... ... ... : ... .. . ... ... ... : ... .. . ... ... ... : ... .. . ... ... ... : ... .. . ... ... ... : ... .. . ... ... ...
ROW 05 : ... .. . ... ... ... : ... .. . ... ... ... : ... .. . ... ... ... : --- .. . ... ... ... : ... .. . ... ... ... : ... .. . ... ... ... : ... .. . ... ... ... : ... .. . ... ... ... : ... .. . ... ... ... : ... .. . ... ... ... : ... .. . ... ... ... : ... .. . ... ... ... : ... .. . ... ... ...
ROW 06 : ... .. . ... ... ... : ... .. . ... ... ... : ... .. . ... ... ... : ... .. . ... ... ... : ... .. . ... ... ... : ... .. . ... ... ... : ... .. . ... ... ... : ... .. 3 ... ... ... : ... .. 6 ... ... ... : ... .. . ... ... ... : ... .. . ... ... ... : ... .. . ... ... ... : ... .. . ... ... ...
ROW 07 : ... .. . ... ... ... : C-4 02 . P80 ... ... : F#3 00 . P78 ... ... : 1-# 00 F ... ... ... : C-1 12 . ... ... ... : B-4 0C 7 P7C ... ... : ... .. . ... ... ... : --- .. . ... ... ... : A#3 0C 1 P85 ... ... : ... .. . ... ... ... : ... .. . ... ... ... : ... .. . ... ... ... : ... .. . ... ... ...
ROW 08 : ... .. . ... ... ... : F-3 02 . ... ... ... : C#3 00 . P7E ... ... : 2-# 00 7 ... ... ... : ... .. . ... ... ... : A#4 0C . P79 ... ... : ... .. . ... ... ... : ... .. . P80 ... ... : G-3 0C . ... ... ... : ... .. . ... ... ... : ... .. . ... ... ... : ... .. . ... ... ... : ... .. . ... ... ...
ROW 09 : ... .. . ... ... ... : A#2 02 . P81 ... ... : A-2 00 . P86 ... ... : 1-# 00 4 ... ... ... : ... .. . ... ... ... : A-4 0C . P78 ... ... : ... .. . ... ... ... : ... .. . ... ... ... : D#3 0C . P82 ... ... : ... .. . ... ... ... : ... .. . ... ... ... : ... .. . ... ... ... : ... .. . ... ... ...
ROW 0A : ... .. . ... ... ... : D#2 02 . ... ... ... : --- .. . ... ... ... : ... .. 2 ... ... ... : ... .. . ... ... ... : G#4 0C . ... ... ... : ... .. . ... ... ... : ... .. . ... ... ... : A#2 0C . P7F ... ... : ... .. . ... ... ... : ... .. . ... ... ... : ... .. . ... ... ... : ... .. . ... ... ...
ROW 0B : ... .. . ... ... ... : G#1 02 . ... ... ... : ... .. . ... ... ... : ... .. 1 ... ... ... : ... .. . ... ... ... : G-4 0C . ... ... ... : ... .. . ... ... ... : ... .. . ... ... ... : E-2 0C . P81 ... ... : ... .. . ... ... ... : ... .. . ... ... ... : ... .. . ... ... ... : ... .. . ... ... ...
ROW 0C : ... .. . ... ... ... : C#1 02 . ... ... ... : ... .. . ... ... ... : --- .. . ... ... ... : ... .. . ... ... ... : --- .. . ... ... ... : ... .. . ... ... ... : ... .. . ... ... ... : --- .. . ... ... ... : ... .. . ... ... ... : ... .. . ... ... ... : ... .. . ... ... ... : ... .. . ... ... ...
ROW 0D : ... .. . ... ... ... : ... .. . ... ... ... : ... .. . ... ... ... : ... .. . ... ... ... : ... .. . ... ... ... : B-4 0C . P7C ... ... : ... .. . ... ... ... : ... .. . ... ... ... : A#3 0C . P85 ... ... : ... .. . ... ... ... : ... .. . ... ... ... : ... .. . ... ... ... : ... .. . ... ... ...
ROW 0E : ... .. . ... ... ... : ... .. . ... ... ... : ... .. . ... ... ... : ... .. . ... ... ... : ... .. . ... ... ... : A#4 0C . P79 ... ... : ... .. . ... ... ... : ... .. . ... ... ... : G-3 0C . ... ... ... : ... .. . ... ... ... : ... .. . ... ... ... : ... .. . ... ... ... : ... .. . ... ... ...
ROW 0F : ... .. . ... ... ... : ... .. . ... ... ... : ... .. . ... ... ... : ... .. . ... ... ... : ... .. . ... ... ... : A-4 0C . P78 ... ... : ... .. . ... ... ... : ... .. . ... ... ... : --- .. . ... ... ... : ... .. . ... ... ... : ... .. . ... ... ... : ... .. . ... ... ... : ... .. . ... ... ...
ROW 10 : ... .. . ... ... ... : ... .. . ... ... ... : ... .. . ... ... ... : ... .. . ... ... ... : ... .. . ... ... ... : G#4 0C . ... ... ... : ... .. . ... ... ... : ... .. . ... ... ... : ... .. . P80 ... ... : ... .. . ... ... ... : ... .. . ... ... ... : ... .. . ... ... ... : ... .. . ... ... ...
ROW 11 : ... .. . ... ... ... : ... .. . ... ... ... : ... .. . ... ... ... : ... .. . ... ... ... : ... .. . ... ... ... : G-4 0C . ... ... ... : ... .. . ... ... ... : ... .. . ... ... ... : ... .. . ... ... ... : ... .. . ... ... ... : ... .. . ... ... ... : ... .. . ... ... ... : ... .. . ... ... ...
ROW 12 : ... .. . ... ... ... : ... .. . ... ... ... : ... .. . ... ... ... : ... .. . ... ... ... : ... .. . ... ... ... : --- .. . ... ... ... : ... .. . ... ... ... : ... .. . ... ... ... : ... .. . ... ... ... : ... .. . ... ... ... : ... .. . ... ... ... : ... .. . ... ... ... : ... .. . ... ... ...
ROW 13 : ... .. . ... ... ... : ... .. . ... ... ... : ... .. . ... ... ... : D-# 00 A ... ... ... : ... .. . ... ... ... : B-2 05 A P80 ... ... : B-2 05 A P82 ... ... : B-2 05 9 P7E ... ... : G#2 05 9 P81 ... ... : ... .. . ... ... ... : ... .. . ... ... ... : ... .. . ... ... ... : ... .. . ... ... ...
ROW 14 : ... .. . ... ... ... : ... .. . ... ... ... : ... .. . ... ... ... : E-# 00 4 ... ... ... : ... .. . ... ... ... : ... .. . ... ... ... : A#2 05 . P7E ... ... : ... .. . ... ... ... : ... .. . ... ... ... : ... .. . ... ... ... : ... .. . ... ... ... : ... .. . ... ... ... : ... .. . ... ... ...
ROW 15 : ... .. . ... ... ... : ... .. . ... ... ... : ... .. . ... ... ... : D-# 00 2 ... ... ... : ... .. . ... ... ... : ... .. . ... ... ... : ... .. . P7F ... ... : ... .. . ... ... ... : ... .. . ... ... ... : ... .. . ... ... ... : ... .. . ... ... ... : ... .. . ... ... ... : ... .. . ... ... ...
ROW 16 : ... .. . ... ... ... : ... .. . ... ... ... : ... .. . ... ... ... : ... .. 1 ... ... ... : ... .. . ... ... ... : ... .. . ... ... ... : ... .. . P7E ... ... : ... .. . ... ... ... : ... .. . ... ... ... : ... .. . ... ... ... : ... .. . ... ... ... : ... .. . ... ... ... : ... .. . ... ... ...
ROW 17 : ... .. . ... ... ... : ... .. . ... ... ... : ... .. . ... ... ... : ... .. . ... ... ... : ... .. . ... ... ... : --- .. . ... ... ... : --- .. . ... ... ... : --- .. . ... ... ... : --- .. . ... ... ... : ... .. . ... ... ... : ... .. . ... ... ... : ... .. . ... ... ... : ... .. . ... ... ...
ROW 18 : ... .. . ... ... ... : ... .. . ... ... ... : ... .. . ... ... ... : --- .. . ... ... ... : ... .. . ... ... ... : ... .. . ... ... ... : ... .. . P80 ... ... : ... .. . P80 ... ... : ... .. . P80 ... ... : ... .. . ... ... ... : ... .. . ... ... ... : ... .. . ... ... ... : ... .. . ... ... ...
ROW 19 : ... .. . ... ... ... : ... .. . ... ... ... : ... .. . ... ... ... : D-# 00 A ... ... ... : ... .. . ... ... ... : B-2 05 4 ... ... ... : A#2 05 4 P7E ... ... : B-2 05 3 P7E ... ... : G#2 05 3 P81 ... ... : ... .. . ... ... ... : ... .. . ... ... ... : ... .. . ... ... ... : ... .. . ... ... ...
ROW 1A : ... .. . ... ... ... : ... .. . ... ... ... : ... .. . ... ... ... : E-# 00 4 ... ... ... : ... .. . ... ... ... : ... .. . ... ... ... : ... .. . P7F ... ... : ... .. . ... ... ... : ... .. . ... ... ... : ... .. . ... ... ... : ... .. . ... ... ... : ... .. . ... ... ... : ... .. . ... ... ...
ROW 1B : ... .. . ... ... ... : ... .. . ... ... ... : ... .. . ... ... ... : D-# 00 2 ... ... ... : ... .. . ... ... ... : ... .. . ... ... ... : ... .. . P7E ... ... : ... .. . ... ... ... : ... .. . ... ... ... : ... .. . ... ... ... : ... .. . ... ... ... : ... .. . ... ... ... : ... .. . ... ... ...
ROW 1C : ... .. . ... ... ... : ... .. . ... ... ... : ... .. . ... ... ... : ... .. 1 ... ... ... : ... .. . ... ... ... : ... .. . ... ... ... : B-2 05 . P82 ... ... : ... .. . ... ... ... : ... .. . ... ... ... : ... .. . ... ... ... : ... .. . ... ... ... : ... .. . ... ... ... : ... .. . ... ... ...
ROW 1D : ... .. . ... ... ... : ... .. . ... ... ... : ... .. . ... ... ... : ... .. . ... ... ... : ... .. . ... ... ... : ... .. . ... ... ... : A#2 05 . P7E ... ... : ... .. 2 ... ... ... : ... .. . ... ... ... : ... .. . ... ... ... : ... .. . ... ... ... : ... .. . ... ... ... : ... .. . ... ... ...
ROW 1E : ... .. . ... ... ... : ... .. . ... ... ... : ... .. . ... ... ... : --- .. . ... ... ... : ... .. . ... ... ... : --- .. . ... ... ... : --- .. . ... ... ... : --- .. . ... ... ... : --- .. . ... ... ... : ... .. . ... ... ... : ... .. . ... ... ... : ... .. . ... ... ... : ... .. . ... ... ...
ROW 1F : ... .. . ... ... ... : ... .. . ... ... ... : ... .. . ... ... ... : ... .. . ... ... ... : ... .. . ... ... ... : ... .. . ... ... ... : ... .. . P80 ... ... : ... .. . P80 ... ... : ... .. . P80 ... ... : ... .. . ... ... ... : ... .. . ... ... ... : ... .. . ... ... ... : ... .. . ... ... ...
ROW 20 : ... .. . ... ... ... : C-4 02 . P80 ... ... : C#4 00 . P7F ... ... : 9-# 00 F ... ... ... : C#1 12 . ... ... ... : C#3 05 A ... ... ... : C#3 05 A P82 ... ... : C#3 05 9 P7E ... ... : B-2 05 9 P81 ... ... : ... .. . ... ... ... : ... .. . ... ... ... : ... .. . ... ... ... : ... .. . ... ... ...
ROW 21 : ... .. . ... ... ... : F-3 02 . ... ... ... : F#3 00 . P83 ... ... : 2-# 00 7 ... ... ... : ... .. . ... ... ... : ... .. . ... ... ... : ... .. . P83 ... ... : ... .. . ... ... ... : ... .. . ... ... ... : ... .. . ... ... ... : ... .. . ... ... ... : ... .. . ... ... ... : ... .. . ... ... ...
ROW 22 : ... .. . ... ... ... : A#2 02 . P81 ... ... : C#3 00 . P89 ... ... : 6-# 00 C ... ... ... : ... .. . ... ... ... : ... .. . ... ... ... : C-3 05 . P7E ... ... : ... .. . ... ... ... : ... .. . ... ... ... : ... .. . ... ... ... : ... .. . ... ... ... : ... .. . ... ... ... : ... .. . ... ... ...
ROW 23 : ... .. . ... ... ... : D#2 02 . ... ... ... : A#2 00 . P75 ... ... : 7-# 00 8 ... ... ... : ... .. . ... ... ... : ... .. . ... ... ... : C#3 05 . P83 ... ... : ... .. . ... ... ... : ... .. . ... ... ... : ... .. . ... ... ... : ... .. . ... ... ... : ... .. . ... ... ... : ... .. . ... ... ...
ROW 24 : ... .. . ... ... ... : G#1 02 . ... ... ... : G-2 00 . P70 ... ... : 8-# 00 7 ... ... ... : ... .. . ... ... ... : --- .. . ... ... ... : --- .. . ... ... ... : --- .. . ... ... ... : --- .. . ... ... ... : ... .. . ... ... ... : ... .. . ... ... ... : ... .. . ... ... ... : ... .. . ... ... ...
ROW 25 : ... .. . ... ... ... : C#1 02 . ... ... ... : E-2 00 . P7C ... ... : ... .. 6 ... ... ... : ... .. . ... ... ... : ... .. . ... ... ... : ... .. . P80 ... ... : ... .. . P80 ... ... : ... .. . P80 ... ... : ... .. . ... ... ... : ... .. . ... ... ... : ... .. . ... ... ... : ... .. . ... ... ...
ROW 26 : ... .. . ... ... ... : ... .. . ... ... ... : --- .. . ... ... ... : ... .. . ... ... ... : ... .. . ... ... ... : C#3 05 4 ... ... ... : C-3 05 4 P7E ... ... : C#3 05 3 P7E ... ... : B-2 05 3 P81 ... ... : ... .. . ... ... ... : ... .. . ... ... ... : ... .. . ... ... ... : ... .. . ... ... ...
ROW 27 : ... .. . ... ... ... : ... .. . ... ... ... : ... .. . ... ... ... : ... .. 5 ... ... ... : ... .. . ... ... ... : ... .. . ... ... ... : ... .. . ... ... ... : ... .. . ... ... ... : ... .. . ... ... ... : ... .. . ... ... ... : ... .. . ... ... ... : ... .. . ... ... ... : ... .. . ... ... ...
ROW 28 : ... .. . ... ... ... : ... .. . ... ... ... : ... .. . ... ... ... : ... .. . ... ... ... : ... .. . ... ... ... : ... .. . ... ... ... : C#3 05 . P83 ... ... : ... .. . ... ... ... : ... .. . ... ... ... : ... .. . ... ... ... : ... .. . ... ... ... : ... .. . ... ... ... : ... .. . ... ... ...
ROW 29 : ... .. . ... ... ... : ... .. . ... ... ... : ... .. . ... ... ... : ... .. 4 ... ... ... : ... .. . ... ... ... : ... .. . ... ... ... : ... .. . ... ... ... : ... .. . ... ... ... : ... .. . ... ... ... : ... .. . ... ... ... : ... .. . ... ... ... : ... .. . ... ... ... : ... .. . ... ... ...
ROW 2A : ... .. . ... ... ... : ... .. . ... ... ... : ... .. . ... ... ... : ... .. . ... ... ... : ... .. . ... ... ... : --- .. . ... ... ... : --- .. . ... ... ... : --- .. . ... ... ... : --- .. . ... ... ... : ... .. . ... ... ... : ... .. . ... ... ... : ... .. . ... ... ... : ... .. . ... ... ...
ROW 2B : ... .. . ... ... ... : ... .. . ... ... ... : ... .. . ... ... ... : ... .. 3 ... ... ... : ... .. . ... ... ... : ... .. . ... ... ... : ... .. . P80 ... ... : ... .. . P80 ... ... : ... .. . P80 ... ... : ... .. . ... ... ... : ... .. . ... ... ... : ... .. . ... ... ... : ... .. . ... ... ...
ROW 2C : ... .. . ... ... ... : ... .. . ... ... ... : ... .. . ... ... ... : D-# 00 A ... ... ... : ... .. . ... ... ... : G#3 05 A ... ... ... : G#3 05 A P83 ... ... : G#3 05 9 P7E ... ... : D#3 05 9 P81 ... ... : ... .. . ... ... ... : ... .. . ... ... ... : ... .. . ... ... ... : ... .. . ... ... ...
ROW 2D : ... .. . ... ... ... : ... .. . ... ... ... : ... .. . ... ... ... : E-# 00 4 ... ... ... : ... .. . ... ... ... : ... .. . ... ... ... : ... .. . P82 ... ... : ... .. . ... ... ... : ... .. . ... ... ... : ... .. . ... ... ... : ... .. . ... ... ... : ... .. . ... ... ... : ... .. . ... ... ...
ROW 2E : ... .. . ... ... ... : ... .. . ... ... ... : ... .. . ... ... ... : D-# 00 2 ... ... ... : ... .. . ... ... ... : ... .. . ... ... ... : ... .. . P83 ... ... : ... .. . ... ... ... : ... .. . ... ... ... : ... .. . ... ... ... : ... .. . ... ... ... : ... .. . ... ... ... : ... .. . ... ... ...
ROW 2F : ... .. . ... ... ... : ... .. . ... ... ... : ... .. . ... ... ... : ... .. 1 ... ... ... : ... .. . ... ... ... : ... .. . ... ... ... : ... .. . P84 ... ... : ... .. . ... ... ... : ... .. . ... ... ... : ... .. . ... ... ... : ... .. . ... ... ... : ... .. . ... ... ... : ... .. . ... ... ...
ROW 30 : ... .. . ... ... ... : ... .. . ... ... ... : ... .. . ... ... ... : ... .. . ... ... ... : ... .. . ... ... ... : --- .. . ... ... ... : --- .. . ... ... ... : --- .. . ... ... ... : --- .. . ... ... ... : ... .. . ... ... ... : ... .. . ... ... ... : ... .. . ... ... ... : ... .. . ... ... ...
ROW 31 : ... .. . ... ... ... : ... .. . ... ... ... : ... .. . ... ... ... : --- .. . ... ... ... : ... .. . ... ... ... : ... .. . ... ... ... : ... .. . P80 ... ... : ... .. . P80 ... ... : ... .. . P80 ... ... : ... .. . ... ... ... : ... .. . ... ... ... : ... .. . ... ... ... : ... .. . ... ... ...
ROW 32 : ... .. . ... ... ... : ... .. . ... ... ... : ... .. . ... ... ... : D-# 00 A ... ... ... : ... .. . ... ... ... : G#3 05 4 ... ... ... : G#3 05 . P83 ... ... : G#3 05 . P7E ... ... : D#3 05 . P81 ... ... : ... .. . ... ... ... : ... .. . ... ... ... : ... .. . ... ... ... : ... .. . ... ... ...
ROW 33 : ... .. . ... ... ... : ... .. . ... ... ... : ... .. . ... ... ... : E-# 00 4 ... ... ... : ... .. . ... ... ... : ... .. . ... ... ... : ... .. . P84 ... ... : ... .. . ... ... ... : ... .. . ... ... ... : ... .. . ... ... ... : ... .. . ... ... ... : ... .. . ... ... ... : ... .. . ... ... ...
ROW 34 : ... .. . ... ... ... : ... .. . ... ... ... : ... .. . ... ... ... : D-# 00 2 ... ... ... : ... .. . ... ... ... : ... .. . ... ... ... : ... .. . P83 ... ... : ... .. . ... ... ... : ... .. . ... ... ... : ... .. . ... ... ... : ... .. . ... ... ... : ... .. . ... ... ... : ... .. . ... ... ...
ROW 35 : ... .. . ... ... ... : ... .. . ... ... ... : ... .. . ... ... ... : ... .. 1 ... ... ... : ... .. . ... ... ... : ... .. . ... ... ... : ... .. . P82 ... ... : ... .. . ... ... ... : ... .. . ... ... ... : ... .. . ... ... ... : ... .. . ... ... ... : ... .. . ... ... ... : ... .. . ... ... ...
ROW 36 : ... .. . ... ... ... : ... .. . ... ... ... : ... .. . ... ... ... : ... .. . ... ... ... : ... .. . ... ... ... : ... .. . ... ... ... : ... .. . P83 ... ... : ... .. 8 ... ... ... : ... .. . ... ... ... : ... .. . ... ... ... : ... .. . ... ... ... : ... .. . ... ... ... : ... .. . ... ... ...
ROW 37 : ... .. . ... ... ... : ... .. . ... ... ... : ... .. . ... ... ... : --- .. . ... ... ... : ... .. . ... ... ... : --- .. . ... ... ... : --- .. . ... ... ... : --- .. . ... ... ... : --- .. . ... ... ... : ... .. . ... ... ... : ... .. . ... ... ... : ... .. . ... ... ... : ... .. . ... ... ...
ROW 38 : ... .. . ... ... ... : ... .. . ... ... ... : ... .. . ... ... ... : ... .. . ... ... ... : ... .. . ... ... ... : ... .. . ... ... ... : ... .. . P80 ... ... : ... .. . P80 ... ... : ... .. . P80 ... ... : ... .. . ... ... ... : ... .. . ... ... ... : ... .. . ... ... ... : ... .. . ... ... ...
ROW 39 : ... .. . ... ... ... : C-4 02 . P80 ... ... : F#3 00 . P78 ... ... : 1-# 00 F ... ... ... : C-1 12 . ... ... ... : G#1 06 F ... ... ... : G#1 06 F P81 ... ... : ... .. . ... ... ... : G#1 06 E P7F ... ... : G#2 06 B P81 ... ... : ... .. . ... ... ... : ... .. . ... ... ... : ... .. . ... ... ...
ROW 3A : ... .. . ... ... ... : F-3 02 . ... ... ... : C#3 00 . P7E ... ... : 2-# 00 7 ... ... ... : ... .. . ... ... ... : ... .. . ... ... ... : ... .. . P80 ... ... : ... .. . ... ... ... : ... .. . ... ... ... : ... .. . ... ... ... : ... .. . ... ... ... : ... .. . ... ... ... : ... .. . ... ... ...
ROW 3B : ... .. . ... ... ... : A#2 02 . P81 ... ... : A-2 00 . P86 ... ... : 1-# 00 4 ... ... ... : ... .. . ... ... ... : ... .. . ... ... ... : ... .. . P81 ... ... : ... .. . ... ... ... : ... .. . ... ... ... : ... .. . ... ... ... : ... .. . ... ... ... : ... .. . ... ... ... : ... .. . ... ... ...
ROW 3C : ... .. . ... ... ... : D#2 02 . ... ... ... : --- .. . ... ... ... : ... .. 2 ... ... ... : ... .. . ... ... ... : G#1 07 . ... ... ... : G-1 07 . P80 ... ... : ... .. . ... ... ... : G#1 07 . ... ... ... : G#2 07 . ... ... ... : ... .. . ... ... ... : ... .. . ... ... ... : ... .. . ... ... ...
ROW 3D : ... .. . ... ... ... : G#1 02 . ... ... ... : ... .. . ... ... ... : ... .. 1 ... ... ... : ... .. . ... ... ... : ... .. . ... ... ... : G#1 07 . P81 ... ... : ... .. . ... ... ... : ... .. . ... ... ... : ... .. A ... ... ... : ... .. . ... ... ... : ... .. . ... ... ... : ... .. . ... ... ...
ROW 3E : ... .. . ... ... ... : C#1 02 . ... ... ... : ... .. . ... ... ... : --- .. . ... ... ... : ... .. . ... ... ... : ... .. . ... ... ... : ... .. . P80 ... ... : ... .. . ... ... ... : ... .. . ... ... ... : ... .. . ... ... ... : ... .. . ... ... ... : ... .. . ... ... ... : ... .. . ... ... ...
ROW 3F : ... .. . ... ... ... : ... .. . ... ... ... : ... .. . ... ... ... : ... .. . ... ... ... : ... .. . ... ... ... : G#1 08 . ... ... ... : G#1 08 . P81 ... ... : ... .. . ... ... ... : G#1 08 . ... ... ... : G#2 08 . ... ... ... : ... .. . ... ... ... : ... .. . ... ... ... : ... .. . ... ... ...
ROW 40 : ... .. . ... ... ... : ... .. . ... ... ... : ... .. . ... ... ... : ... .. . ... ... ... : ... .. . ... ... ... : ... .. . ... ... ... : G-1 08 . P80 ... ... : ... .. . ... ... ... : ... .. . ... ... ... : ... .. . ... ... ... : ... .. . ... ... ... : ... .. . ... ... ... : ... .. . ... ... ...
ROW 41 : ... .. . ... ... ... : ... .. . ... ... ... : ... .. . ... ... ... : ... .. . ... ... ... : ... .. . ... ... ... : ... .. . ... ... ... : G#1 08 . P81 ... ... : ... .. . ... ... ... : ... .. D ... ... ... : ... .. 9 ... ... ... : ... .. . ... ... ... : ... .. . ... ... ... : ... .. . ... ... ...
ROW 42 : ... .. . ... ... ... : ... .. . ... ... ... : ... .. . ... ... ... : ... .. . ... ... ... : ... .. . ... ... ... : G#1 09 . ... ... ... : G#1 09 . P80 ... ... : ... .. . ... ... ... : G#1 09 . ... ... ... : G#2 09 . ... ... ... : ... .. . ... ... ... : ... .. . ... ... ... : ... .. . ... ... ...
ROW 43 : ... .. . ... ... ... : ... .. . ... ... ... : ... .. . ... ... ... : ... .. . ... ... ... : ... .. . ... ... ... : ... .. . ... ... ... : ... .. . P81 ... ... : ... .. . ... ... ... : ... .. . ... ... ... : ... .. . ... ... ... : ... .. . ... ... ... : ... .. . ... ... ... : ... .. . ... ... ...
ROW 44 : ... .. . ... ... ... : ... .. . ... ... ... : ... .. . ... ... ... : ... .. . ... ... ... : ... .. . ... ... ... : ... .. . ... ... ... : G-1 09 . P80 ... ... : ... .. . ... ... ... : ... .. . ... ... ... : ... .. . ... ... ... : ... .. . ... ... ... : ... .. . ... ... ... : ... .. . ... ... ...
ROW 45 : ... .. . ... ... ... : ... .. . ... ... ... : ... .. . ... ... ... : D-# 00 A ... ... ... : ... .. . ... ... ... : ... .. . ... ... ... : ... .. . ... ... ... : ... .. . ... ... ... : ... .. . ... ... ... : ... .. 8 ... ... ... : ... .. . ... ... ... : ... .. . ... ... ... : ... .. . ... ... ...
ROW 46 : ... .. . ... ... ... : ... .. . ... ... ... : ... .. . ... ... ... : E-# 00 4 ... ... ... : ... .. . ... ... ... : ... .. . ... ... ... : G#1 09 . P81 ... ... : ... .. . ... ... ... : ... .. . ... ... ... : ... .. . ... ... ... : ... .. . ... ... ... : ... .. . ... ... ... : ... .. . ... ... ...
ROW 47 : ... .. . ... ... ... : ... .. . ... ... ... : ... .. . ... ... ... : D-# 00 2 ... ... ... : ... .. . ... ... ... : ... .. . ... ... ... : ... .. . ... ... ... : ... .. . ... ... ... : ... .. . ... ... ... : ... .. . ... ... ... : ... .. . ... ... ... : ... .. . ... ... ... : ... .. . ... ... ...
ROW 48 : ... .. . ... ... ... : ... .. . ... ... ... : ... .. . ... ... ... : ... .. 1 ... ... ... : ... .. . ... ... ... : G#1 08 . ... ... ... : G-1 08 . P80 ... ... : ... .. . ... ... ... : G#1 08 . ... ... ... : G#2 08 . ... ... ... : ... .. . ... ... ... : ... .. . ... ... ... : ... .. . ... ... ...
ROW 49 : ... .. . ... ... ... : ... .. . ... ... ... : ... .. . ... ... ... : ... .. . ... ... ... : ... .. . ... ... ... : ... .. . ... ... ... : ... .. . ... ... ... : ... .. . ... ... ... : ... .. C ... ... ... : ... .. 7 ... ... ... : ... .. . ... ... ... : ... .. . ... ... ... : ... .. . ... ... ...
ROW 4A : ... .. . ... ... ... : ... .. . ... ... ... : ... .. . ... ... ... : --- .. . ... ... ... : ... .. . ... ... ... : ... .. . ... ... ... : G#1 08 . P81 ... ... : ... .. . ... ... ... : ... .. . ... ... ... : ... .. . ... ... ... : ... .. . ... ... ... : ... .. . ... ... ... : ... .. . ... ... ...
ROW 4B : ... .. . ... ... ... : ... .. . ... ... ... : ... .. . ... ... ... : D-# 00 A ... ... ... : ... .. . ... ... ... : G#1 07 . ... ... ... : G#1 07 . P80 ... ... : ... .. . ... ... ... : G#1 07 . ... ... ... : G#2 07 . ... ... ... : ... .. . ... ... ... : ... .. . ... ... ... : ... .. . ... ... ...
ROW 4C : ... .. . ... ... ... : ... .. . ... ... ... : ... .. . ... ... ... : E-# 00 4 ... ... ... : ... .. . ... ... ... : ... .. . ... ... ... : ... .. . P81 ... ... : ... .. . ... ... ... : ... .. . ... ... ... : ... .. . ... ... ... : ... .. . ... ... ... : ... .. . ... ... ... : ... .. . ... ... ...
ROW 4D : ... .. . ... ... ... : ... .. . ... ... ... : ... .. . ... ... ... : D-# 00 2 ... ... ... : ... .. . ... ... ... : ... .. . ... ... ... : G-1 07 . P80 ... ... : ... .. . ... ... ... : ... .. . ... ... ... : ... .. 6 ... ... ... : ... .. . ... ... ... : ... .. . ... ... ... : ... .. . ... ... ...
ROW 4E : ... .. . ... ... ... : ... .. . ... ... ... : ... .. . ... ... ... : ... .. 1 ... ... ... : ... .. . ... ... ... : G#1 06 . ... ... ... : G#1 06 . P81 ... ... : ... .. . ... ... ... : G#1 06 . ... ... ... : G#2 06 . ... ... ... : ... .. . ... ... ... : ... .. . ... ... ... : ... .. . ... ... ...
ROW 4F : ... .. . ... ... ... : ... .. . ... ... ... : ... .. . ... ... ... : ... .. . ... ... ... : ... .. . ... ... ... : ... .. . ... ... ... : ... .. . P80 ... ... : ... .. . ... ... ... : ... .. . ... ... ... : ... .. . ... ... ... : ... .. . ... ... ... : ... .. . ... ... ... : ... .. . ... ... ...
ROW 50 : ... .. . ... ... ... : ... .. . ... ... ... : ... .. . ... ... ... : --- .. . ... ... ... : ... .. . ... ... ... : ... .. . ... ... ... : ... .. . P81 ... ... : ... .. . ... ... ... : ... .. . ... ... ... : ... .. . ... ... ... : ... .. . ... ... ... : ... .. . ... ... ... : ... .. . ... ... ...
ROW 51 : ... .. . ... ... ... : ... .. . ... ... ... : ... .. . ... ... ... : ... .. . ... ... ... : ... .. . ... ... ... : ... .. . ... ... ... : G-1 06 . P80 ... ... : ... .. . ... ... ... : ... .. B ... ... ... : ... .. 5 ... ... ... : ... .. . ... ... ... : ... .. . ... ... ... : ... .. . ... ... ...
ROW 52 : ... .. . ... ... ... : C-4 02 . P80 ... ... : C#4 00 . P7F ... ... : 9-# 00 F ... ... ... : C#1 12 . ... ... ... : D-2 06 . ... ... ... : D-2 06 . P81 ... ... : ... .. . ... ... ... : D-2 06 . ... ... ... : D-3 06 . ... ... ... : ... .. . ... ... ... : ... .. . ... ... ... : ... .. . ... ... ...
ROW 53 : ... .. . ... ... ... : F-3 02 . ... ... ... : F#3 00 . P83 ... ... : 2-# 00 7 ... ... ... : ... .. . ... ... ... : ... .. . ... ... ... : ... .. . P80 ... ... : ... .. . ... ... ... : ... .. . ... ... ... : ... .. . ... ... ... : ... .. . ... ... ... : ... .. . ... ... ... : ... .. . ... ... ...
ROW 54 : ... .. . ... ... ... : A#2 02 . P81 ... ... : C#3 00 . P89 ... ... : 6-# 00 C ... ... ... : ... .. . ... ... ... : ... .. . ... ... ... : ... .. . P81 ... ... : ... .. . ... ... ... : ... .. . ... ... ... : ... .. . ... ... ... : ... .. . ... ... ... : ... .. . ... ... ... : ... .. . ... ... ...
ROW 55 : ... .. . ... ... ... : D#2 02 . ... ... ... : A#2 00 . P75 ... ... : 7-# 00 8 ... ... ... : ... .. . ... ... ... : D-2 08 . ... ... ... : C#2 08 . P7F ... ... : ... .. . ... ... ... : D-2 08 . ... ... ... : D-3 08 4 ... ... ... : ... .. . ... ... ... : ... .. . ... ... ... : ... .. . ... ... ...
ROW 56 : ... .. . ... ... ... : G#1 02 . ... ... ... : G-2 00 . P70 ... ... : 8-# 00 7 ... ... ... : ... .. . ... ... ... : ... .. . ... ... ... : D-2 08 . P82 ... ... : ... .. . ... ... ... : ... .. . ... ... ... : ... .. . ... ... ... : ... .. . ... ... ... : ... .. . ... ... ... : ... .. . ... ... ...
ROW 57 : ... .. . ... ... ... : C#1 02 . ... ... ... : E-2 00 . P7C ... ... : ... .. 6 ... ... ... : ... .. . ... ... ... : ... .. . ... ... ... : ... .. . P81 ... ... : ... .. . ... ... ... : ... .. . ... ... ... : ... .. . ... ... ... : ... .. . ... ... ... : ... .. . ... ... ... : ... .. . ... ... ...
ROW 58 : ... .. . ... ... ... : ... .. . ... ... ... : --- .. . ... ... ... : ... .. . ... ... ... : ... .. . ... ... ... : D-2 09 . ... ... ... : D-2 09 . ... ... ... : ... .. . ... ... ... : D-2 09 . ... ... ... : D-3 09 . ... ... ... : ... .. . ... ... ... : ... .. . ... ... ... : ... .. . ... ... ...
ROW 59 : ... .. . ... ... ... : ... .. . ... ... ... : ... .. . ... ... ... : ... .. 5 ... ... ... : ... .. . ... ... ... : ... .. . ... ... ... : ... .. . P82 ... ... : ... .. . ... ... ... : ... .. A ... ... ... : ... .. 3 ... ... ... : ... .. . ... ... ... : ... .. . ... ... ... : ... .. . ... ... ...
ROW 5A : ... .. . ... ... ... : ... .. . ... ... ... : ... .. . ... ... ... : ... .. . ... ... ... : ... .. . ... ... ... : ... .. . ... ... ... : C#2 09 . P7F ... ... : ... .. . ... ... ... : ... .. . ... ... ... : ... .. . ... ... ... : ... .. . ... ... ... : ... .. . ... ... ... : ... .. . ... ... ...
ROW 5B : ... .. . ... ... ... : ... .. . ... ... ... : ... .. . ... ... ... : ... .. 4 ... ... ... : ... .. . ... ... ... : D-2 07 . ... ... ... : D-2 07 . P81 ... ... : ... .. . ... ... ... : D-2 07 . ... ... ... : D-3 07 . ... ... ... : ... .. . ... ... ... : ... .. . ... ... ... : ... .. . ... ... ...
ROW 5C : ... .. . ... ... ... : ... .. . ... ... ... : ... .. . ... ... ... : ... .. . ... ... ... : ... .. . ... ... ... : ... .. . ... ... ... : ... .. . P80 ... ... : ... .. . ... ... ... : ... .. . ... ... ... : ... .. . ... ... ... : ... .. . ... ... ... : ... .. . ... ... ... : ... .. . ... ... ...
ROW 5D : ... .. . ... ... ... : ... .. . ... ... ... : ... .. . ... ... ... : ... .. 3 ... ... ... : ... .. . ... ... ... : ... .. . ... ... ... : ... .. . P81 ... ... : ... .. . ... ... ... : ... .. . ... ... ... : ... .. 2 ... ... ... : ... .. . ... ... ... : ... .. . ... ... ... : ... .. . ... ... ...
ROW 5E : ... .. . ... ... ... : ... .. . ... ... ... : ... .. . ... ... ... : D-# 00 A ... ... ... : ... .. . ... ... ... : D-2 06 . ... ... ... : C#2 06 . P7F ... ... : ... .. . ... ... ... : D-2 06 . ... ... ... : D-3 06 . ... ... ... : ... .. . ... ... ... : ... .. . ... ... ... : ... .. . ... ... ...
ROW 5F : ... .. . ... ... ... : ... .. . ... ... ... : ... .. . ... ... ... : E-# 00 4 ... ... ... : ... .. . ... ... ... : ... .. . ... ... ... : D-2 06 . P81 ... ... : ... .. . ... ... ... : ... .. . ... ... ... : ... .. . ... ... ... : ... .. . ... ... ... : ... .. . ... ... ... : ... .. . ... ... ...
ROW 60 : ... .. . ... ... ... : ... .. . ... ... ... : ... .. . ... ... ... : D-# 00 2 ... ... ... : ... .. . ... ... ... : ... .. . ... ... ... : ... .. . P80 ... ... : ... .. . ... ... ... : ... .. . ... ... ... : ... .. . ... ... ... : ... .. . ... ... ... : ... .. . ... ... ... : ... .. . ... ... ...
ROW 61 : ... .. . ... ... ... : ... .. . ... ... ... : ... .. . ... ... ... : ... .. 1 ... ... ... : ... .. . ... ... ... : D-2 08 . ... ... ... : D-2 08 . P81 ... ... : ... .. . ... ... ... : D-2 08 9 ... ... ... : D-3 08 1 ... ... ... : ... .. . ... ... ... : ... .. . ... ... ... : ... .. . ... ... ...
ROW 62 : ... .. . ... ... ... : ... .. . ... ... ... : ... .. . ... ... ... : ... .. . ... ... ... : ... .. . ... ... ... : ... .. . ... ... ... : C#2 08 . P7F ... ... : ... .. . ... ... ... : ... .. . ... ... ... : ... .. . ... ... ... : ... .. . ... ... ... : ... .. . ... ... ... : ... .. . ... ... ...
ROW 63 : ... .. . ... ... ... : ... .. . ... ... ... : ... .. . ... ... ... : --- .. . ... ... ... : ... .. . ... ... ... : ... .. . ... ... ... : D-2 08 . P81 ... ... : ... .. . ... ... ... : ... .. . ... ... ... : ... .. . ... ... ... : ... .. . ... ... ... : ... .. . ... ... ... : ... .. . ... ... ...
ROW 64 : ... .. . ... ... ... : ... .. . ... ... ... : ... .. . ... ... ... : D-# 00 A ... ... ... : ... .. . ... ... ... : D-2 09 . ... ... ... : D-2 09 . P80 ... ... : ... .. . ... ... ... : D-2 09 . ... ... ... : D-3 09 . ... ... ... : ... .. . ... ... ... : ... .. . ... ... ... : ... .. . ... ... ...
ROW 65 : ... .. . ... ... ... : ... .. . ... ... ... : ... .. . ... ... ... : E-# 00 4 ... ... ... : ... .. . ... ... ... : ... .. . ... ... ... : ... .. . P81 ... ... : ... .. . ... ... ... : ... .. . ... ... ... : --- .. . ... ... ... : ... .. . ... ... ... : ... .. . ... ... ... : ... .. . ... ... ...
ROW 66 : ... .. . ... ... ... : ... .. . ... ... ... : ... .. . ... ... ... : D-# 00 2 ... ... ... : ... .. . ... ... ... : ... .. . ... ... ... : ... .. . P82 ... ... : ... .. . ... ... ... : ... .. . ... ... ... : ... .. . P80 ... ... : ... .. . ... ... ... : ... .. . ... ... ... : ... .. . ... ... ...
ROW 67 : ... .. . ... ... ... : ... .. . ... ... ... : ... .. . ... ... ... : ... .. 1 ... ... ... : ... .. . ... ... ... : D-2 07 . ... ... ... : D-2 07 . ... ... ... : ... .. . ... ... ... : D-2 07 . ... ... ... : ... .. . ... ... ... : ... .. . ... ... ... : ... .. . ... ... ... : ... .. . ... ... ...
ROW 68 : ... .. . ... ... ... : ... .. . ... ... ... : ... .. . ... ... ... : ... .. . ... ... ... : ... .. . ... ... ... : ... .. . ... ... ... : ... .. . P81 ... ... : ... .. . ... ... ... : ... .. . ... ... ... : ... .. . ... ... ... : ... .. . ... ... ... : ... .. . ... ... ... : ... .. . ... ... ...
ROW 69 : ... .. . ... ... ... : ... .. . ... ... ... : ... .. . ... ... ... : --- .. . ... ... ... : ... .. . ... ... ... : ... .. . ... ... ... : ... .. . ... ... ... : ... .. . ... ... ... : ... .. 8 ... ... ... : ... .. . ... ... ... : ... .. . ... ... ... : ... .. . ... ... ... : ... .. . ... ... ...
ROW 6A : ... .. . ... ... ... : ... .. . ... ... ... : ... .. . ... ... ... : ... .. . ... ... ... : ... .. . ... ... ... : ... .. . ... ... ... : ... .. . P82 ... ... : ... .. . ... ... ... : ... .. . ... ... ... : ... .. . ... ... ... : ... .. . ... ... ... : ... .. . ... ... ... : ... .. . ... ... ...
ROW 6B : ... .. . ... ... ... : C-4 02 . P80 ... ... : F#3 00 . P78 ... ... : 1-# 00 F ... ... ... : C-1 12 . ... ... ... : C#2 06 . ... ... ... : C-2 06 . P7F ... ... : ... .. . ... ... ... : C#2 06 . ... ... ... : ... .. . ... ... ... : ... .. . ... ... ... : ... .. . ... ... ... : ... .. . ... ... ...
ROW 6C : ... .. . ... ... ... : F-3 02 . ... ... ... : C#3 00 . P7E ... ... : 2-# 00 7 ... ... ... : ... .. . ... ... ... : ... .. . ... ... ... : C#2 06 . P81 ... ... : ... .. . ... ... ... : ... .. . ... ... ... : ... .. . ... ... ... : ... .. . ... ... ... : ... .. . ... ... ... : ... .. . ... ... ...
ROW 6D : ... .. . ... ... ... : A#2 02 . P81 ... ... : A-2 00 . P86 ... ... : 1-# 00 4 ... ... ... : ... .. . ... ... ... : ... .. . ... ... ... : ... .. . P80 ... ... : ... .. . ... ... ... : ... .. . ... ... ... : ... .. . ... ... ... : ... .. . ... ... ... : ... .. . ... ... ... : ... .. . ... ... ...
ROW 6E : ... .. . ... ... ... : D#2 02 . ... ... ... : --- .. . ... ... ... : ... .. 2 ... ... ... : ... .. . ... ... ... : C#2 09 . ... ... ... : C#2 09 . P81 ... ... : ... .. . ... ... ... : C#2 09 . ... ... ... : ... .. . ... ... ... : ... .. . ... ... ... : ... .. . ... ... ... : ... .. . ... ... ...
ROW 6F : ... .. . ... ... ... : G#1 02 . ... ... ... : ... .. . ... ... ... : ... .. 1 ... ... ... : ... .. . ... ... ... : ... .. . ... ... ... : C-2 09 . P7F ... ... : ... .. . ... ... ... : ... .. . ... ... ... : ... .. . ... ... ... : ... .. . ... ... ... : ... .. . ... ... ... : ... .. . ... ... ...
ROW 70 : ... .. . ... ... ... : C#1 02 . ... ... ... : ... .. . ... ... ... : --- .. . ... ... ... : ... .. . ... ... ... : ... .. . ... ... ... : C#2 09 . P81 ... ... : ... .. . ... ... ... : ... .. . ... ... ... : ... .. . ... ... ... : ... .. . ... ... ... : ... .. . ... ... ... : ... .. . ... ... ...
ROW 71 : ... .. . ... ... ... : ... .. . ... ... ... : ... .. . ... ... ... : ... .. . ... ... ... : ... .. . ... ... ... : C#2 06 . ... ... ... : C#2 06 . P80 ... ... : ... .. . ... ... ... : C#2 06 7 ... ... ... : ... .. . ... ... ... : ... .. . ... ... ... : ... .. . ... ... ... : ... .. . ... ... ...
ROW 72 : ... .. . ... ... ... : ... .. . ... ... ... : ... .. . ... ... ... : ... .. . ... ... ... : ... .. . ... ... ... : ... .. . ... ... ... : ... .. . P81 ... ... : ... .. . ... ... ... : ... .. . ... ... ... : ... .. . ... ... ... : ... .. . ... ... ... : ... .. . ... ... ... : ... .. . ... ... ...
ROW 73 : ... .. . ... ... ... : ... .. . ... ... ... : ... .. . ... ... ... : ... .. . ... ... ... : ... .. . ... ... ... : ... .. . ... ... ... : C-2 06 . P7F ... ... : ... .. . ... ... ... : ... .. . ... ... ... : ... .. . ... ... ... : ... .. . ... ... ... : ... .. . ... ... ... : ... .. . ... ... ...
ROW 74 : ... .. . ... ... ... : ... .. . ... ... ... : ... .. . ... ... ... : ... .. . ... ... ... : ... .. . ... ... ... : C#2 09 . ... ... ... : C#2 09 . P81 ... ... : ... .. . ... ... ... : C#2 09 . ... ... ... : ... .. . ... ... ... : ... .. . ... ... ... : ... .. . ... ... ... : ... .. . ... ... ...
ROW 75 : ... .. . ... ... ... : ... .. . ... ... ... : ... .. . ... ... ... : ... .. . ... ... ... : ... .. . ... ... ... : ... .. . ... ... ... : ... .. . P80 ... ... : ... .. . ... ... ... : ... .. . ... ... ... : ... .. . ... ... ... : ... .. . ... ... ... : ... .. . ... ... ... : ... .. . ... ... ...
ROW 76 : ... .. . ... ... ... : ... .. . ... ... ... : ... .. . ... ... ... : ... .. . ... ... ... : ... .. . ... ... ... : ... .. . ... ... ... : ... .. . P81 ... ... : ... .. . ... ... ... : ... .. . ... ... ... : ... .. . ... ... ... : ... .. . ... ... ... : ... .. . ... ... ... : ... .. . ... ... ...
ROW 77 : ... .. . ... ... ... : ... .. . ... ... ... : ... .. . ... ... ... : D-# 00 A ... ... ... : ... .. . ... ... ... : C#2 06 . ... ... ... : C#2 06 . P82 ... ... : ... .. . ... ... ... : C#2 06 . ... ... ... : ... .. . ... ... ... : ... .. . ... ... ... : ... .. . ... ... ... : ... .. . ... ... ...
ROW 78 : ... .. . ... ... ... : ... .. . ... ... ... : ... .. . ... ... ... : E-# 00 4 ... ... ... : ... .. . ... ... ... : ... .. . ... ... ... : ... .. . ... ... ... : ... .. . ... ... ... : ... .. . ... ... ... : ... .. . ... ... ... : ... .. . ... ... ... : ... .. . ... ... ... : ... .. . ... ... ...
ROW 79 : ... .. . ... ... ... : ... .. . ... ... ... : ... .. . ... ... ... : D-# 00 2 ... ... ... : ... .. . ... ... ... : ... .. . ... ... ... : ... .. . P81 ... ... : ... .. . ... ... ... : ... .. 6 ... ... ... : ... .. . ... ... ... : ... .. . ... ... ... : ... .. . ... ... ... : ... .. . ... ... ...
ROW 7A : ... .. . ... ... ... : ... .. . ... ... ... : ... .. . ... ... ... : ... .. 1 ... ... ... : ... .. . ... ... ... : C#2 09 . ... ... ... : C#2 09 . P80 ... ... : ... .. . ... ... ... : C#2 09 . ... ... ... : ... .. . ... ... ... : ... .. . ... ... ... : ... .. . ... ... ... : ... .. . ... ... ...
ROW 7B : ... .. . ... ... ... : ... .. . ... ... ... : ... .. . ... ... ... : ... .. . ... ... ... : ... .. . ... ... ... : ... .. . ... ... ... : ... .. . P81 ... ... : ... .. . ... ... ... : ... .. . ... ... ... : ... .. . ... ... ... : ... .. . ... ... ... : ... .. . ... ... ... : ... .. . ... ... ...
ROW 7C : ... .. . ... ... ... : ... .. . ... ... ... : ... .. . ... ... ... : --- .. . ... ... ... : ... .. . ... ... ... : ... .. . ... ... ... : C-2 09 . P7F ... ... : ... .. . ... ... ... : ... .. . ... ... ... : ... .. . ... ... ... : ... .. . ... ... ... : ... .. . ... ... ... : ... .. . ... ... ...
ROW 7D : ... .. . ... ... ... : ... .. . ... ... ... : ... .. . ... ... ... : D-# 00 A ... ... ... : ... .. . ... ... ... : C#2 06 . ... ... ... : C#2 06 . P81 ... ... : ... .. . ... ... ... : C#2 06 . ... ... ... : ... .. . ... ... ... : ... .. . ... ... ... : ... .. . ... ... ... : ... .. . ... ... ...
ROW 7E : ... .. . ... ... ... : ... .. . ... ... ... : ... .. . ... ... ... : E-# 00 4 ... ... ... : ... .. . ... ... ... : ... .. . ... ... ... : ... .. . P80 ... ... : ... .. . ... ... ... : ... .. . ... ... ... : ... .. . ... ... ... : ... .. . ... ... ... : ... .. . ... ... ... : ... .. . ... ... ...
ROW 7F : ... .. . ... ... ... : ... .. . ... ... ... : ... .. . ... ... ... : D-# 00 2 ... ... ... : ... .. . ... ... ... : ... .. . ... ... ... : ... .. . P81 ... ... : ... .. . ... ... ... : ... .. . ... ... ... : ... .. . ... ... ... : ... .. . ... ... ... : ... .. . ... ... ... : ... .. . ... ... ...
ROW 80 : ... .. . ... ... ... : ... .. . ... ... ... : ... .. . ... ... ... : ... .. 1 ... ... ... : ... .. . ... ... ... : C#2 09 . ... ... ... : C-2 09 . P7F ... ... : ... .. . ... ... ... : C#2 09 . ... ... ... : ... .. . ... ... ... : ... .. . ... ... ... : ... .. . ... ... ... : ... .. . ... ... ...
ROW 81 : ... .. . ... ... ... : ... .. . ... ... ... : ... .. . ... ... ... : ... .. . ... ... ... : ... .. . ... ... ... : ... .. . ... ... ... : C#2 09 . P81 ... ... : ... .. . ... ... ... : ... .. 5 ... ... ... : ... .. . ... ... ... : ... .. . ... ... ... : ... .. . ... ... ... : ... .. . ... ... ...
ROW 82 : ... .. . ... ... ... : ... .. . ... ... ... : ... .. . ... ... ... : --- .. . ... ... ... : ... .. . ... ... ... : ... .. . ... ... ... : ... .. . P80 ... ... : ... .. . ... ... ... : ... .. . ... ... ... : ... .. . ... ... ... : ... .. . ... ... ... : ... .. . ... ... ... : ... .. . ... ... ...
ROW 83 : ... .. . ... ... ... : ... .. . ... ... ... : ... .. . ... ... ... : ... .. . ... ... ... : ... .. . ... ... ... : ... .. . ... ... ... : ... .. . P81 ... ... : ... .. . ... ... ... : ... .. . ... ... ... : ... .. . ... ... ... : ... .. . ... ... ... : ... .. . ... ... ... : ... .. . ... ... ...
ROW 84 : ... .. . ... ... ... : C-4 02 . P80 ... ... : C#4 00 . P7F ... ... : 9-# 00 F ... ... ... : C#1 12 . ... ... ... : F#1 06 . ... ... ... : F-1 06 . P80 ... ... : ... .. . ... ... ... : F#1 06 . ... ... ... : ... .. . ... ... ... : ... .. . ... ... ... : ... .. . ... ... ... : ... .. . ... ... ...
ROW 85 : ... .. . ... ... ... : F-3 02 . ... ... ... : F#3 00 . P83 ... ... : 2-# 00 7 ... ... ... : ... .. . ... ... ... : ... .. . ... ... ... : ... .. . ... ... ... : ... .. . ... ... ... : ... .. . ... ... ... : ... .. . ... ... ... : ... .. . ... ... ... : ... .. . ... ... ... : ... .. . ... ... ...
ROW 86 : ... .. . ... ... ... : A#2 02 . P81 ... ... : C#3 00 . P89 ... ... : 6-# 00 C ... ... ... : ... .. . ... ... ... : ... .. . ... ... ... : F#1 06 . P81 ... ... : ... .. . ... ... ... : ... .. . ... ... ... : ... .. . ... ... ... : ... .. . ... ... ... : ... .. . ... ... ... : ... .. . ... ... ...
ROW 87 : ... .. . ... ... ... : D#2 02 . ... ... ... : A#2 00 . P75 ... ... : 7-# 00 8 ... ... ... : ... .. . ... ... ... : ... .. . ... ... ... : ... .. . ... ... ... : ... .. . ... ... ... : ... .. . ... ... ... : ... .. . ... ... ... : ... .. . ... ... ... : ... .. . ... ... ... : ... .. . ... ... ...
ROW 88 : ... .. . ... ... ... : G#1 02 . ... ... ... : G-2 00 . P70 ... ... : 8-# 00 7 ... ... ... : ... .. . ... ... ... : ... .. . ... ... ... : F-1 06 . P80 ... ... : ... .. . ... ... ... : ... .. . ... ... ... : ... .. . ... ... ... : ... .. . ... ... ... : ... .. . ... ... ... : ... .. . ... ... ...
ROW 89 : ... .. . ... ... ... : C#1 02 . ... ... ... : E-2 00 . P7C ... ... : ... .. 6 ... ... ... : ... .. . ... ... ... : ... .. . ... ... ... : ... .. . ... ... ... : ... .. . ... ... ... : ... .. 4 ... ... ... : ... .. . ... ... ... : ... .. . ... ... ... : ... .. . ... ... ... : ... .. . ... ... ...
ROW 8A : ... .. . ... ... ... : ... .. . ... ... ... : --- .. . ... ... ... : ... .. . ... ... ... : ... .. . ... ... ... : F#1 07 . ... ... ... : F#1 07 . P81 ... ... : ... .. . ... ... ... : F#1 07 . ... ... ... : ... .. . ... ... ... : ... .. . ... ... ... : ... .. . ... ... ... : ... .. . ... ... ...
ROW 8B : ... .. . ... ... ... : ... .. . ... ... ... : ... .. . ... ... ... : ... .. 5 ... ... ... : ... .. . ... ... ... : ... .. . ... ... ... : ... .. . P80 ... ... : ... .. . ... ... ... : ... .. . ... ... ... : ... .. . ... ... ... : ... .. . ... ... ... : ... .. . ... ... ... : ... .. . ... ... ...
ROW 8C : ... .. . ... ... ... : ... .. . ... ... ... : ... .. . ... ... ... : ... .. . ... ... ... : ... .. . ... ... ... : ... .. . ... ... ... : ... .. . P81 ... ... : ... .. . ... ... ... : ... .. . ... ... ... : ... .. . ... ... ... : ... .. . ... ... ... : ... .. . ... ... ... : ... .. . ... ... ...
ROW 8D : ... .. . ... ... ... : ... .. . ... ... ... : ... .. . ... ... ... : ... .. 4 ... ... ... : ... .. . ... ... ... : F-1 07 . ... ... ... : E-1 07 . P80 ... ... : ... .. . ... ... ... : ... .. . P81 ... ... : ... .. . ... ... ... : ... .. . ... ... ... : ... .. . ... ... ... : ... .. . ... ... ...
ROW 8E : ... .. . ... ... ... : ... .. . ... ... ... : ... .. . ... ... ... : ... .. . ... ... ... : ... .. . ... ... ... : E-1 07 . ... ... ... : ... .. . P81 ... ... : ... .. . ... ... ... : F-1 07 . ... ... ... : ... .. . ... ... ... : ... .. . ... ... ... : ... .. . ... ... ... : ... .. . ... ... ...
ROW 8F : ... .. . ... ... ... : ... .. . ... ... ... : ... .. . ... ... ... : ... .. 3 ... ... ... : ... .. . ... ... ... : D#1 07 . ... ... ... : D#1 07 . P80 ... ... : ... .. . ... ... ... : E-1 07 . ... ... ... : ... .. . ... ... ... : ... .. . ... ... ... : ... .. . ... ... ... : ... .. . ... ... ...
ROW 90 : ... .. . ... ... ... : ... .. . ... ... ... : ... .. . ... ... ... : 6-# 01 F ... ... ... : ... .. . ... ... ... : D-1 08 . P81 ... ... : C#1 08 . ... ... ... : ... .. . ... ... ... : D-1 08 . P80 ... ... : ... .. . ... ... ... : ... .. . ... ... ... : ... .. . ... ... ... : ... .. . ... ... ...
ROW 91 : ... .. . ... ... ... : ... .. . ... ... ... : ... .. . ... ... ... : ... .. 9 ... ... ... : ... .. . ... ... ... : C#1 08 . ... ... ... : B-0 08 . ... ... ... : ... .. . ... ... ... : C#1 08 3 ... ... ... : ... .. . ... ... ... : ... .. . ... ... ... : ... .. . ... ... ... : ... .. . ... ... ...
ROW 92 : ... .. . ... ... ... : ... .. . ... ... ... : ... .. . ... ... ... : ... .. 4 ... ... ... : ... .. . ... ... ... : B-0 08 . P80 ... ... : ... .. . P81 ... ... : ... .. . ... ... ... : C-1 08 . ... ... ... : ... .. . ... ... ... : ... .. . ... ... ... : ... .. . ... ... ... : ... .. . ... ... ...
ROW 93 : ... .. . ... ... ... : ... .. . ... ... ... : ... .. . ... ... ... : ... .. 7 ... ... ... : ... .. . ... ... ... : A#0 08 . ... ... ... : A#0 08 . P80 ... ... : ... .. . ... ... ... : B-0 08 . P81 ... ... : ... .. . ... ... ... : ... .. . ... ... ... : ... .. . ... ... ... : ... .. . ... ... ...
ROW 94 : ... .. . ... ... ... : ... .. . ... ... ... : ... .. . ... ... ... : ... .. 5 ... ... ... : ... .. . ... ... ... : A-0 08 . P81 ... ... : G#0 08 . P81 ... ... : ... .. . ... ... ... : A-0 08 . P80 ... ... : ... .. . ... ... ... : ... .. . ... ... ... : ... .. . ... ... ... : ... .. . ... ... ...
ROW 95 : ... .. . ... ... ... : ... .. . ... ... ... : ... .. . ... ... ... : ... .. . ... ... ... : ... .. . ... ... ... : G-0 08 . ... ... ... : F-0 08 . P80 ... ... : ... .. . ... ... ... : G#0 08 . P81 ... ... : ... .. . ... ... ... : ... .. . ... ... ... : ... .. . ... ... ... : ... .. . ... ... ...
ROW 96 : ... .. . ... ... ... : ... .. . ... ... ... : ... .. . ... ... ... : ... .. 4 ... ... ... : ... .. . ... ... ... : F-0 09 . P80 ... ... : E-0 09 . P81 ... ... : ... .. . ... ... ... : F#0 09 . P80 ... ... : ... .. . ... ... ... : ... .. . ... ... ... : ... .. . ... ... ... : ... .. . ... ... ...
ROW 97 : ... .. . ... ... ... : ... .. . ... ... ... : ... .. . ... ... ... : ... .. . ... ... ... : ... .. . ... ... ... : D#0 09 . ... ... ... : D#0 09 . ... ... ... : ... .. . ... ... ... : E-0 09 . ... ... ... : ... .. . ... ... ... : ... .. . ... ... ... : ... .. . ... ... ... : ... .. . ... ... ...
ROW 98 : ... .. . ... ... ... : ... .. . ... ... ... : ... .. . ... ... ... : ... .. 3 ... ... ... : ... .. . ... ... ... : C#0 09 . P81 ... ... : C-0 09 . P80 ... ... : ... .. . ... ... ... : D-0 09 . ... ... ... : ... .. . ... ... ... : ... .. . ... ... ... : ... .. . ... ... ... : ... .. . ... ... ...
ROW 99 : ... .. . ... ... ... : ... .. . ... ... ... : ... .. . ... ... ... : ... .. 2 ... ... ... : ... .. . ... ... ... : C-0 09 . P82 ... ... : ... .. . P83 ... ... : ... .. . ... ... ... : C-0 09 2 P81 ... ... : ... .. . ... ... ... : ... .. . ... ... ... : ... .. . ... ... ... : ... .. . ... ... ...
ROW 9A : ... .. . ... ... ... : ... .. . ... ... ... : ... .. . ... ... ... : ... .. . ... ... ... : ... .. . ... ... ... : ... .. . P84 ... ... : ... .. . P86 ... ... : ... .. . ... ... ... : ... .. . P83 ... ... : ... .. . ... ... ... : ... .. . ... ... ... : ... .. . ... ... ... : ... .. . ... ... ...
ROW 9B : ... .. . ... ... ... : ... .. . ... ... ... : ... .. . ... ... ... : ... .. 1 ... ... ... : ... .. . ... ... ... : ... .. . P86 ... ... : ... .. . P87 ... ... : ... .. . ... ... ... : ... .. . P85 ... ... : ... .. . ... ... ... : ... .. . ... ... ... : ... .. . ... ... ... : ... .. . ... ... ...
ROW 9C : ... .. . ... ... ... : ... .. . ... ... ... : ... .. . ... ... ... : ... .. . ... ... ... : ... .. . ... ... ... : --- .. . P7A ... ... : --- .. . P7A ... ... : ... .. . ... ... ... : ... .. . P87 ... ... : ... .. . ... ... ... : ... .. . ... ... ... : ... .. . ... ... ... : ... .. . ... ... ...
ROW 9D : ... .. . ... ... ... : C-4 02 . P80 ... ... : F#3 00 . P78 ... ... : 1-# 00 F ... ... ... : C-1 12 . ... ... ... : G-4 04 A P78 ... ... : A-4 04 A P81 ... ... : ... .. . ... ... ... : F#4 04 9 P89 ... ... : G-4 04 9 P81 ... ... : ... .. . ... ... ... : ... .. . ... ... ... : ... .. . ... ... ...
ROW 9E : ... .. . ... ... ... : F-3 02 . ... ... ... : C#3 00 . P7E ... ... : 2-# 00 7 ... ... ... : ... .. . ... ... ... : G#4 04 . P84 ... ... : ... .. . P82 ... ... : ... .. . ... ... ... : ... .. . P81 ... ... : ... .. . ... ... ... : ... .. . ... ... ... : ... .. . ... ... ... : ... .. . ... ... ...
ROW 9F : ... .. . ... ... ... : A#2 02 . P81 ... ... : A-2 00 . P86 ... ... : 1-# 00 4 ... ... ... : ... .. . ... ... ... : ... .. . P7C ... ... : ... .. . P81 ... ... : ... .. . ... ... ... : ... .. . P79 ... ... : ... .. . ... ... ... : ... .. . ... ... ... : ... .. . ... ... ... : ... .. . ... ... ...
ROW A0 : ... .. . ... ... ... : D#2 02 . ... ... ... : --- .. . ... ... ... : ... .. 2 ... ... ... : ... .. . ... ... ... : --- .. . ... ... ... : --- .. . ... ... ... : ... .. . ... ... ... : --- .. . ... ... ... : --- .. . ... ... ... : ... .. . ... ... ... : ... .. . ... ... ... : ... .. . ... ... ...
ROW A1 : ... .. . ... ... ... : G#1 02 . ... ... ... : ... .. . ... ... ... : ... .. 1 ... ... ... : ... .. . ... ... ... : ... .. . P80 ... ... : ... .. . P80 ... ... : ... .. . ... ... ... : ... .. . P80 ... ... : ... .. . P80 ... ... : ... .. . ... ... ... : ... .. . ... ... ... : ... .. . ... ... ...
ROW A2 : ... .. . ... ... ... : C#1 02 . ... ... ... : ... .. . ... ... ... : --- .. . ... ... ... : ... .. . ... ... ... : ... .. . ... ... ... : ... .. . ... ... ... : ... .. . ... ... ... : ... .. . ... ... ... : ... .. . ... ... ... : ... .. . ... ... ... : ... .. . ... ... ... : ... .. . ... ... ...
ROW A3 : ... .. . ... ... ... : ... .. . ... ... ... : ... .. . ... ... ... : 1-# 00 F ... ... ... : C-1 12 . ... ... ... : A-4 04 . P7A ... ... : A-4 04 . P83 ... ... : ... .. . ... ... ... : G#4 04 . P88 ... ... : G-4 04 . P83 ... ... : ... .. . ... ... ... : ... .. . ... ... ... : ... .. . ... ... ...
ROW A4 : ... .. . ... ... ... : ... .. . ... ... ... : ... .. . ... ... ... : 2-# 00 7 ... ... ... : ... .. . ... ... ... : ... .. . P7C ... ... : ... .. . P84 ... ... : ... .. . ... ... ... : ... .. . P8A ... ... : ... .. . P85 ... ... : ... .. . ... ... ... : ... .. . ... ... ... : ... .. . ... ... ...
ROW A5 : ... .. . ... ... ... : ... .. . ... ... ... : ... .. . ... ... ... : 1-# 00 4 ... ... ... : ... .. . ... ... ... : ... .. . P7E ... ... : ... .. . P87 ... ... : ... .. . ... ... ... : G-4 04 . P79 ... ... : ... .. . P87 ... ... : ... .. . ... ... ... : ... .. . ... ... ... : ... .. . ... ... ...
ROW A6 : ... .. . ... ... ... : ... .. . ... ... ... : ... .. . ... ... ... : ... .. 2 ... ... ... : ... .. . ... ... ... : --- .. . ... ... ... : --- .. . ... ... ... : ... .. . ... ... ... : --- .. . ... ... ... : --- .. . ... ... ... : ... .. . ... ... ... : ... .. . ... ... ... : ... .. . ... ... ...
ROW A7 : ... .. . ... ... ... : ... .. . ... ... ... : ... .. . ... ... ... : ... .. 1 ... ... ... : ... .. . ... ... ... : ... .. . P80 ... ... : ... .. . P80 ... ... : ... .. . ... ... ... : ... .. . P80 ... ... : ... .. . P80 ... ... : ... .. . ... ... ... : ... .. . ... ... ... : ... .. . ... ... ...
ROW A8 : ... .. . ... ... ... : ... .. . ... ... ... : ... .. . ... ... ... : --- .. . ... ... ... : ... .. . ... ... ... : ... .. . ... ... ... : ... .. . ... ... ... : ... .. . ... ... ... : ... .. . ... ... ... : ... .. . ... ... ... : ... .. . ... ... ... : ... .. . ... ... ... : ... .. . ... ... ...
ROW A9 : ... .. . ... ... ... : ... .. . ... ... ... : ... .. . ... ... ... : A-# 00 F ... ... ... : C-1 12 . ... ... ... : G#4 04 . P7E ... ... : G#4 04 . P87 ... ... : ... .. . ... ... ... : F#4 04 . P7B ... ... : F-4 04 . P78 ... ... : ... .. . ... ... ... : ... .. . ... ... ... : ... .. . ... ... ...
ROW AA : ... .. . ... ... ... : ... .. . ... ... ... : ... .. . ... ... ... : 6-# 00 9 ... ... ... : ... .. . ... ... ... : G-4 04 . P78 ... ... : G-4 04 . P82 ... ... : ... .. . ... ... ... : ... .. . P89 ... ... : ... .. . P86 ... ... : ... .. . ... ... ... : ... .. . ... ... ... : ... .. . ... ... ...
ROW AB : ... .. . ... ... ... : ... .. . ... ... ... : ... .. . ... ... ... : 7-# 00 C ... ... ... : ... .. . ... ... ... : ... .. . P86 ... ... : F#4 04 . P7F ... ... : ... .. . ... ... ... : F-4 04 . P85 ... ... : E-4 04 . P84 ... ... : ... .. . ... ... ... : ... .. . ... ... ... : ... .. . ... ... ...
ROW AC : ... .. . ... ... ... : ... .. . ... ... ... : ... .. . ... ... ... : ... .. 8 ... ... ... : ... .. . ... ... ... : F#4 04 . P82 ... ... : F-4 04 . P7B ... ... : ... .. . ... ... ... : E-4 04 . P83 ... ... : D#4 04 . P83 ... ... : ... .. . ... ... ... : ... .. . ... ... ... : ... .. . ... ... ...
ROW AD : ... .. . ... ... ... : ... .. . ... ... ... : ... .. . ... ... ... : 8-# 00 7 ... ... ... : ... .. . ... ... ... : F-4 04 . P7F ... ... : ... .. . P88 ... ... : ... .. . ... ... ... : D#4 04 . P82 ... ... : D-4 04 8 P82 ... ... : ... .. . ... ... ... : ... .. . ... ... ... : ... .. . ... ... ...
ROW AE : ... .. . ... ... ... : ... .. . ... ... ... : ... .. . ... ... ... : ... .. 8 ... ... ... : ... .. . ... ... ... : E-4 04 . P7D ... ... : E-4 04 . P87 ... ... : ... .. . ... ... ... : D-4 04 . ... ... ... : C#4 04 . P83 ... ... : ... .. . ... ... ... : ... .. . ... ... ... : ... .. . ... ... ...
ROW AF : ... .. . ... ... ... : ... .. . ... ... ... : ... .. . ... ... ... : 9-# 00 7 ... ... ... : ... .. . ... ... ... : D#4 04 . P7C ... ... : D#4 04 . P86 ... ... : ... .. . ... ... ... : C#4 04 . ... ... ... : C-4 04 . P84 ... ... : ... .. . ... ... ... : ... .. . ... ... ... : ... .. . ... ... ...
ROW B0 : ... .. . ... ... ... : ... .. . ... ... ... : ... .. . ... ... ... : ... .. 6 ... ... ... : ... .. . ... ... ... : D-4 04 . P7B ... ... : D-4 04 . P85 ... ... : ... .. . ... ... ... : C-4 04 . P83 ... ... : B-3 04 . P86 ... ... : ... .. . ... ... ... : ... .. . ... ... ... : ... .. . ... ... ...
ROW B1 : ... .. . ... ... ... : ... .. . ... ... ... : ... .. . ... ... ... : ... .. 5 ... ... ... : ... .. . ... ... ... : C#4 04 . P7C ... ... : C#4 04 . P84 ... ... : ... .. . ... ... ... : B-3 04 8 P85 ... ... : A-3 04 7 P7E ... ... : ... .. . ... ... ... : ... .. . ... ... ... : ... .. . ... ... ...
ROW B2 : ... .. . ... ... ... : ... .. . ... ... ... : ... .. . ... ... ... : ... .. . ... ... ... : ... .. . ... ... ... : C-4 04 . P7D ... ... : C-4 04 . P87 ... ... : ... .. . ... ... ... : A-3 04 . P7D ... ... : G#3 04 . P82 ... ... : ... .. . ... ... ... : ... .. . ... ... ... : ... .. . ... ... ...
ROW B3 : ... .. . ... ... ... : ... .. . ... ... ... : ... .. . ... ... ... : ... .. . ... ... ... : ... .. . ... ... ... : B-3 04 . P7F ... ... : A#3 04 . P7E ... ... : ... .. . ... ... ... : G#3 04 . P81 ... ... : F#3 04 . P7D ... ... : ... .. . ... ... ... : ... .. . ... ... ... : ... .. . ... ... ...
ROW B4 : ... .. . ... ... ... : ... .. . ... ... ... : ... .. . ... ... ... : ... .. . ... ... ... : ... .. . ... ... ... : A#3 04 . P82 ... ... : A-3 04 . P80 ... ... : ... .. . ... ... ... : F#3 04 . P7C ... ... : F-3 04 . P82 ... ... : ... .. . ... ... ... : ... .. . ... ... ... : ... .. . ... ... ...
ROW B5 : ... .. . ... ... ... : ... .. . ... ... ... : ... .. . ... ... ... : ... .. . ... ... ... : ... .. . ... ... ... : A-3 04 . P85 ... ... : G#3 04 . P83 ... ... : ... .. . ... ... ... : F-3 04 . P82 ... ... : D#3 04 6 P81 ... ... : ... .. . ... ... ... : ... .. . ... ... ... : ... .. . ... ... ...
ROW B6 : ... .. . ... ... ... : C-4 02 . P80 ... ... : C#4 00 . P7F ... ... : ... .. F ... ... ... : C#1 12 . ... ... ... : G#1 04 F P80 ... ... : F#3 04 . P7F ... ... : G-1 04 9 ... ... ... : A-1 04 9 ... ... ... : C#3 04 . ... ... ... : ... .. . ... ... ... : ... .. . ... ... ... : ... .. . ... ... ...
ROW B7 : ... .. . ... ... ... : F-3 02 . ... ... ... : F#3 00 . P83 ... ... : 2-# 00 7 ... ... ... : ... .. . ... ... ... : ... .. . ... ... ... : E-3 04 . P7D ... ... : ... .. . ... ... ... : ... .. . ... ... ... : B-2 04 . P82 ... ... : ... .. . ... ... ... : ... .. . ... ... ... : ... .. . ... ... ...
ROW B8 : ... .. . ... ... ... : A#2 02 . P81 ... ... : C#3 00 . P89 ... ... : 6-# 00 C ... ... ... : ... .. . ... ... ... : ... .. . ... ... ... : D#3 04 . P84 ... ... : ... .. . ... ... ... : ... .. . ... ... ... : G#2 04 . P80 ... ... : ... .. . ... ... ... : ... .. . ... ... ... : ... .. . ... ... ...
ROW B9 : ... .. . ... ... ... : D#2 02 . ... ... ... : A#2 00 . P75 ... ... : 7-# 00 8 ... ... ... : ... .. . ... ... ... : ... .. . ... ... ... : C#3 04 . P83 ... ... : ... .. . ... ... ... : ... .. . ... ... ... : F-2 04 5 ... ... ... : ... .. . ... ... ... : ... .. . ... ... ... : ... .. . ... ... ...
ROW BA : ... .. . ... ... ... : G#1 02 . ... ... ... : G-2 00 . P70 ... ... : 8-# 00 7 ... ... ... : ... .. . ... ... ... : ... .. . ... ... ... : A#2 04 . P7E ... ... : ... .. 8 ... ... ... : ... .. . ... ... ... : C#2 04 . ... ... ... : ... .. . ... ... ... : ... .. . ... ... ... : ... .. . ... ... ...
ROW BB : ... .. . ... ... ... : C#1 02 . ... ... ... : E-2 00 . P7C ... ... : ... .. 6 ... ... ... : ... .. . ... ... ... : ... .. . ... ... ... : G#2 04 . P83 ... ... : ... .. . ... ... ... : ... .. . ... ... ... : G#1 04 . P7F ... ... : ... .. . ... ... ... : ... .. . ... ... ... : ... .. . ... ... ...
ROW BC : ... .. . ... ... ... : ... .. . ... ... ... : --- .. . ... ... ... : ... .. . ... ... ... : ... .. . ... ... ... : G#2 04 . ... ... ... : E-2 04 . P80 ... ... : G#2 04 . P82 ... ... : G#2 04 . P7F ... ... : D-1 04 . P81 ... ... : ... .. . ... ... ... : ... .. . ... ... ... : ... .. . ... ... ...
ROW BD : ... .. . ... ... ... : ... .. . ... ... ... : ... .. . ... ... ... : ... .. 5 ... ... ... : ... .. . ... ... ... : ... .. . ... ... ... : C#2 04 . P82 ... ... : ... .. . ... ... ... : ... .. . ... ... ... : D#0 04 4 ... ... ... : ... .. . ... ... ... : ... .. . ... ... ... : ... .. . ... ... ...
ROW BE : ... .. . ... ... ... : ... .. . ... ... ... : ... .. . ... ... ... : ... .. . ... ... ... : ... .. . ... ... ... : ... .. . ... ... ... : G#1 04 . P81 ... ... : ... .. 7 ... ... ... : ... .. 8 ... ... ... : --- .. . P7F ... ... : ... .. . ... ... ... : ... .. . ... ... ... : ... .. . ... ... ...
ROW BF : ... .. . ... ... ... : ... .. . ... ... ... : ... .. . ... ... ... : ... .. 4 ... ... ... : ... .. . ... ... ... : ... .. . ... ... ... : C-1 04 . P80 ... ... : ... .. . ... ... ... : ... .. . ... ... ... : D#7 04 . P81 ... ... : ... .. . ... ... ... : ... .. . ... ... ... : ... .. . ... ... ...
ROW C0 : ... .. . ... ... ... : ... .. . ... ... ... : ... .. . ... ... ... : ... .. . ... ... ... : ... .. . ... ... ... : ... .. . ... ... ... : C-0 04 . P81 ... ... : ... .. . ... ... ... : ... .. . ... ... ... : ... .. . ... ... ... : ... .. . ... ... ... : ... .. . ... ... ... : ... .. . ... ... ...
ROW C1 : ... .. . ... ... ... : ... .. . ... ... ... : ... .. . ... ... ... : ... .. 3 ... ... ... : ... .. . ... ... ... : ... .. . ... ... ... : D#7 04 . ... ... ... : ... .. . ... ... ... : ... .. . ... ... ... : ... .. 3 ... ... ... : ... .. . ... ... ... : ... .. . ... ... ... : ... .. . ... ... ...
ROW C2 : ... .. . ... ... ... : ... .. . ... ... ... : ... .. . ... ... ... : D-# 00 A ... ... ... : ... .. . ... ... ... : C#2 04 . ... ... ... : --- .. . ... ... ... : C#2 04 6 ... ... ... : C#2 04 . ... ... ... : ... .. . ... ... ... : ... .. . ... ... ... : ... .. . ... ... ... : ... .. . ... ... ...
ROW C3 : ... .. . ... ... ... : ... .. . ... ... ... : ... .. . ... ... ... : E-# 00 4 ... ... ... : ... .. . ... ... ... : ... .. . ... ... ... : ... .. . P80 ... ... : ... .. . ... ... ... : ... .. . ... ... ... : ... .. . ... ... ... : ... .. . ... ... ... : ... .. . ... ... ... : ... .. . ... ... ...
ROW C4 : ... .. . ... ... ... : ... .. . ... ... ... : ... .. . ... ... ... : D-# 00 2 ... ... ... : ... .. . ... ... ... : ... .. . ... ... ... : ... .. . ... ... ... : ... .. . ... ... ... : ... .. . ... ... ... : ... .. . ... ... ... : ... .. . ... ... ... : ... .. . ... ... ... : ... .. . ... ... ...
ROW C5 : ... .. . ... ... ... : ... .. . ... ... ... : ... .. . ... ... ... : ... .. 1 ... ... ... : ... .. . ... ... ... : ... .. . ... ... ... : ... .. . ... ... ... : ... .. . ... ... ... : ... .. . ... ... ... : ... .. 2 ... ... ... : ... .. . ... ... ... : ... .. . ... ... ... : ... .. . ... ... ...
ROW C6 : ... .. . ... ... ... : ... .. . ... ... ... : ... .. . ... ... ... : ... .. . ... ... ... : ... .. . ... ... ... : ... .. . ... ... ... : ... .. . ... ... ... : ... .. 5 ... ... ... : ... .. 7 ... ... ... : ... .. . ... ... ... : ... .. . ... ... ... : ... .. . ... ... ... : ... .. . ... ... ...
ROW C7 : ... .. . ... ... ... : ... .. . ... ... ... : ... .. . ... ... ... : --- .. . ... ... ... : ... .. . ... ... ... : ... .. . ... ... ... : ... .. . ... ... ... : ... .. . ... ... ... : ... .. . ... ... ... : ... .. . ... ... ... : ... .. . ... ... ... : ... .. . ... ... ... : ... .. . ... ... ...
ROW C8 : ... .. . ... ... ... : ... .. . ... ... ... : ... .. . ... ... ... : D-# 00 A ... ... ... : ... .. . ... ... ... : C#3 04 . ... ... ... : ... .. . ... ... ... : C#3 04 . ... ... ... : C#3 04 . ... ... ... : --- .. . ... ... ... : ... .. . ... ... ... : ... .. . ... ... ... : ... .. . ... ... ...
ROW C9 : ... .. . ... ... ... : ... .. . ... ... ... : ... .. . ... ... ... : E-# 00 4 ... ... ... : ... .. . ... ... ... : ... .. . ... ... ... : ... .. . ... ... ... : ... .. . ... ... ... : ... .. . ... ... ... : ... .. . P80 ... ... : ... .. . ... ... ... : ... .. . ... ... ... : ... .. . ... ... ...
ROW CA : ... .. . ... ... ... : ... .. . ... ... ... : ... .. . ... ... ... : D-# 00 2 ... ... ... : ... .. . ... ... ... : ... .. . ... ... ... : ... .. . ... ... ... : ... .. 4 ... ... ... : ... .. . ... ... ... : ... .. . ... ... ... : ... .. . ... ... ... : ... .. . ... ... ... : ... .. . ... ... ...
ROW CB : ... .. . ... ... ... : ... .. . ... ... ... : ... .. . ... ... ... : ... .. 1 ... ... ... : ... .. . ... ... ... : ... .. . ... ... ... : ... .. . ... ... ... : ... .. . ... ... ... : ... .. . ... ... ... : ... .. . ... ... ... : ... .. . ... ... ... : ... .. . ... ... ... : ... .. . ... ... ...
ROW CC : ... .. . ... ... ... : ... .. . ... ... ... : ... .. . ... ... ... : ... .. . ... ... ... : ... .. . ... ... ... : ... .. . ... ... ... : ... .. . ... ... ... : ... .. . ... ... ... : ... .. . ... ... ... : ... .. . ... ... ... : ... .. . ... ... ... : ... .. . ... ... ... : ... .. . ... ... ...
ROW CD : ... .. . ... ... ... : ... .. . ... ... ... : ... .. . ... ... ... : --- .. . ... ... ... : ... .. . ... ... ... : ... .. . ... ... ... : ... .. . ... ... ... : ... .. . ... ... ... : ... .. . ... ... ... : ... .. . ... ... ... : ... .. . ... ... ... : ... .. . ... ... ... : ... .. . ... ... ...
ROW CE : ... .. . ... ... ... : ... .. . ... ... ... : ... .. . ... ... ... : ... .. . ... ... ... : ... .. . ... ... ... : ... .. . ... ... ... : ... .. . ... ... ... : ... .. 3 ... ... ... : ... .. 6 ... ... ... : ... .. . ... ... ... : ... .. . ... ... ... : ... .. . ... ... ... : ... .. . ... ... ...
ROW CF : ... .. . ... ... ... : C-4 02 . P80 ... ... : F#3 00 . P78 ... ... : 1-# 00 F ... ... ... : C-1 12 . ... ... ... : B-4 0C 7 P7C ... ... : ... .. . ... ... ... : --- .. . ... ... ... : A#3 0C 1 P85 ... ... : ... .. . ... ... ... : ... .. . ... ... ... : ... .. . ... ... ... : ... .. . ... ... ...
ROW D0 : ... .. . ... ... ... : F-3 02 . ... ... ... : C#3 00 . P7E ... ... : 2-# 00 7 ... ... ... : ... .. . ... ... ... : A#4 0C . P79 ... ... : ... .. . ... ... ... : ... .. . P80 ... ... : G-3 0C . ... ... ... : ... .. . ... ... ... : ... .. . ... ... ... : ... .. . ... ... ... : ... .. . ... ... ...
ROW D1 : ... .. . ... ... ... : A#2 02 . P81 ... ... : A-2 00 . P86 ... ... : 1-# 00 4 ... ... ... : ... .. . ... ... ... : A-4 0C . P78 ... ... : ... .. . ... ... ... : ... .. . ... ... ... : D#3 0C . P82 ... ... : ... .. . ... ... ... : ... .. . ... ... ... : ... .. . ... ... ... : ... .. . ... ... ...
ROW D2 : ... .. . ... ... ... : D#2 02 . ... ... ... : --- .. . ... ... ... : ... .. 2 ... ... ... : ... .. . ... ... ... : G#4 0C . ... ... ... : ... .. . ... ... ... : ... .. . ... ... ... : A#2 0C . P7F ... ... : ... .. . ... ... ... : ... .. . ... ... ... : ... .. . ... ... ... : ... .. . ... ... ...
ROW D3 : ... .. . ... ... ... : G#1 02 . ... ... ... : ... .. . ... ... ... : ... .. 1 ... ... ... : ... .. . ... ... ... : G-4 0C . ... ... ... : ... .. . ... ... ... : ... .. . ... ... ... : E-2 0C . P81 ... ... : ... .. . ... ... ... : ... .. . ... ... ... : ... .. . ... ... ... : ... .. . ... ... ...
ROW D4 : ... .. . ... ... ... : C#1 02 . ... ... ... : ... .. . ... ... ... : --- .. . ... ... ... : ... .. . ... ... ... : --- .. . ... ... ... : ... .. . ... ... ... : ... .. . ... ... ... : --- .. . ... ... ... : ... .. . ... ... ... : ... .. . ... ... ... : ... .. . ... ... ... : ... .. . ... ... ...
ROW D5 : ... .. . ... ... ... : ... .. . ... ... ... : ... .. . ... ... ... : ... .. . ... ... ... : ... .. . ... ... ... : B-4 0C . P7C ... ... : ... .. . ... ... ... : ... .. . ... ... ... : A#3 0C . P85 ... ... : ... .. . ... ... ... : ... .. . ... ... ... : ... .. . ... ... ... : ... .. . ... ... ...
ROW D6 : ... .. . ... ... ... : ... .. . ... ... ... : ... .. . ... ... ... : ... .. . ... ... ... : ... .. . ... ... ... : A#4 0C . P79 ... ... : ... .. . ... ... ... : ... .. . ... ... ... : G-3 0C . ... ... ... : ... .. . ... ... ... : ... .. . ... ... ... : ... .. . ... ... ... : ... .. . ... ... ...
ROW D7 : ... .. . ... ... ... : ... .. . ... ... ... : ... .. . ... ... ... : ... .. . ... ... ... : ... .. . ... ... ... : A-4 0C . P78 ... ... : ... .. . ... ... ... : ... .. . ... ... ... : --- .. . ... ... ... : ... .. . ... ... ... : ... .. . ... ... ... : ... .. . ... ... ... : ... .. . ... ... ...
ROW D8 : ... .. . ... ... ... : ... .. . ... ... ... : ... .. . ... ... ... : ... .. . ... ... ... : ... .. . ... ... ... : G#4 0C . ... ... ... : ... .. . ... ... ... : ... .. . ... ... ... : ... .. . P80 ... ... : ... .. . ... ... ... : ... .. . ... ... ... : ... .. . ... ... ... : ... .. . ... ... ...
ROW D9 : ... .. . ... ... ... : ... .. . ... ... ... : ... .. . ... ... ... : ... .. . ... ... ... : ... .. . ... ... ... : G-4 0C . ... ... ... : ... .. . ... ... ... : ... .. . ... ... ... : ... .. . ... ... ... : ... .. . ... ... ... : ... .. . ... ... ... : ... .. . ... ... ... : ... .. . ... ... ...
ROW DA : ... .. . ... ... ... : ... .. . ... ... ... : ... .. . ... ... ... : ... .. . ... ... ... : ... .. . ... ... ... : --- .. . ... ... ... : ... .. . ... ... ... : ... .. . ... ... ... : ... .. . ... ... ... : ... .. . ... ... ... : ... .. . ... ... ... : ... .. . ... ... ... : ... .. . ... ... ...
ROW DB : ... .. . ... ... ... : ... .. . ... ... ... : ... .. . ... ... ... : D-# 00 A ... ... ... : ... .. . ... ... ... : C#3 05 A P80 ... ... : C#3 05 . P83 ... ... : C#3 05 9 P7E ... ... : G#2 05 9 P81 ... ... : ... .. . ... ... ... : ... .. . ... ... ... : ... .. . ... ... ... : ... .. . ... ... ...
ROW DC : ... .. . ... ... ... : ... .. . ... ... ... : ... .. . ... ... ... : E-# 00 4 ... ... ... : ... .. . ... ... ... : ... .. . ... ... ... : ... .. . P82 ... ... : ... .. . ... ... ... : ... .. . ... ... ... : ... .. . ... ... ... : ... .. . ... ... ... : ... .. . ... ... ... : ... .. . ... ... ...
ROW DD : ... .. . ... ... ... : ... .. . ... ... ... : ... .. . ... ... ... : D-# 00 2 ... ... ... : ... .. . ... ... ... : ... .. . ... ... ... : ... .. . P83 ... ... : ... .. . ... ... ... : ... .. . ... ... ... : ... .. . ... ... ... : ... .. . ... ... ... : ... .. . ... ... ... : ... .. . ... ... ...
ROW DE : ... .. . ... ... ... : ... .. . ... ... ... : ... .. . ... ... ... : ... .. 1 ... ... ... : ... .. . ... ... ... : ... .. . ... ... ... : C-3 05 . P7E ... ... : ... .. . ... ... ... : ... .. . ... ... ... : ... .. . ... ... ... : ... .. . ... ... ... : ... .. . ... ... ... : ... .. . ... ... ...
ROW DF : ... .. . ... ... ... : ... .. . ... ... ... : ... .. . ... ... ... : ... .. . ... ... ... : ... .. . ... ... ... : --- .. . ... ... ... : --- .. . ... ... ... : --- .. . ... ... ... : --- .. . ... ... ... : ... .. . ... ... ... : ... .. . ... ... ... : ... .. . ... ... ... : ... .. . ... ... ...
ROW E0 : ... .. . ... ... ... : ... .. . ... ... ... : ... .. . ... ... ... : --- .. . ... ... ... : ... .. . ... ... ... : ... .. . ... ... ... : ... .. . P80 ... ... : ... .. . P80 ... ... : ... .. . P80 ... ... : ... .. . ... ... ... : ... .. . ... ... ... : ... .. . ... ... ... : ... .. . ... ... ...
ROW E1 : ... .. . ... ... ... : ... .. . ... ... ... : ... .. . ... ... ... : D-# 00 A ... ... ... : ... .. . ... ... ... : C#3 05 4 ... ... ... : C#3 05 4 P83 ... ... : C#3 05 3 P7E ... ... : G#2 05 3 P81 ... ... : ... .. . ... ... ... : ... .. . ... ... ... : ... .. . ... ... ... : ... .. . ... ... ...
ROW E2 : ... .. . ... ... ... : ... .. . ... ... ... : ... .. . ... ... ... : E-# 00 4 ... ... ... : ... .. . ... ... ... : ... .. . ... ... ... : C-3 05 . P7E ... ... : ... .. . ... ... ... : ... .. . ... ... ... : ... .. . ... ... ... : ... .. . ... ... ... : ... .. . ... ... ... : ... .. . ... ... ...
ROW E3 : ... .. . ... ... ... : ... .. . ... ... ... : ... .. . ... ... ... : D-# 00 2 ... ... ... : ... .. . ... ... ... : ... .. . ... ... ... : C#3 05 . P83 ... ... : ... .. . ... ... ... : ... .. . ... ... ... : ... .. . ... ... ... : ... .. . ... ... ... : ... .. . ... ... ... : ... .. . ... ... ...
ROW E4 : ... .. . ... ... ... : ... .. . ... ... ... : ... .. . ... ... ... : ... .. 1 ... ... ... : ... .. . ... ... ... : ... .. . ... ... ... : ... .. . P82 ... ... : ... .. . ... ... ... : ... .. . ... ... ... : ... .. . ... ... ... : ... .. . ... ... ... : ... .. . ... ... ... : ... .. . ... ... ...
ROW E5 : ... .. . ... ... ... : ... .. . ... ... ... : ... .. . ... ... ... : ... .. . ... ... ... : ... .. . ... ... ... : ... .. . ... ... ... : ... .. . P83 ... ... : ... .. 2 ... ... ... : ... .. . ... ... ... : ... .. . ... ... ... : ... .. . ... ... ... : ... .. . ... ... ... : ... .. . ... ... ...
ROW E6 : ... .. . ... ... ... : ... .. . ... ... ... : ... .. . ... ... ... : --- .. . ... ... ... : ... .. . ... ... ... : --- .. . ... ... ... : --- .. . ... ... ... : --- .. . ... ... ... : --- .. . ... ... ... : ... .. . ... ... ... : ... .. . ... ... ... : ... .. . ... ... ... : ... .. . ... ... ...
ROW E7 : ... .. . ... ... ... : ... .. . ... ... ... : ... .. . ... ... ... : ... .. . ... ... ... : ... .. . ... ... ... : ... .. . ... ... ... : ... .. . P80 ... ... : ... .. . P80 ... ... : ... .. . P80 ... ... : ... .. . ... ... ... : ... .. . ... ... ... : ... .. . ... ... ... : ... .. . ... ... ...
ROW E8 : ... .. . ... ... ... : C-4 02 . P80 ... ... : C#4 00 . P7F ... ... : 9-# 00 F ... ... ... : C#1 12 . ... ... ... : F#3 05 A ... ... ... : F#3 05 A P83 ... ... : F#3 05 9 P7E ... ... : D#3 05 9 P81 ... ... : ... .. . ... ... ... : ... .. . ... ... ... : ... .. . ... ... ... : ... .. . ... ... ...
ROW E9 : ... .. . ... ... ... : F-3 02 . ... ... ... : F#3 00 . P83 ... ... : 2-# 00 7 ... ... ... : ... .. . ... ... ... : ... .. . ... ... ... : ... .. . ... ... ... : ... .. . ... ... ... : ... .. . ... ... ... : ... .. . ... ... ... : ... .. . ... ... ... : ... .. . ... ... ... : ... .. . ... ... ...
ROW EA : ... .. . ... ... ... : A#2 02 . P81 ... ... : C#3 00 . P89 ... ... : 6-# 00 C ... ... ... : ... .. . ... ... ... : ... .. . ... ... ... : ... .. . P84 ... ... : ... .. . ... ... ... : ... .. . ... ... ... : ... .. . ... ... ... : ... .. . ... ... ... : ... .. . ... ... ... : ... .. . ... ... ...
ROW EB : ... .. . ... ... ... : D#2 02 . ... ... ... : A#2 00 . P75 ... ... : 7-# 00 8 ... ... ... : ... .. . ... ... ... : ... .. . ... ... ... : ... .. . ... ... ... : ... .. . ... ... ... : ... .. . ... ... ... : ... .. . ... ... ... : ... .. . ... ... ... : ... .. . ... ... ... : ... .. . ... ... ...
ROW EC : ... .. . ... ... ... : G#1 02 . ... ... ... : G-2 00 . P70 ... ... : 8-# 00 7 ... ... ... : ... .. . ... ... ... : --- .. . ... ... ... : --- .. . ... ... ... : --- .. . ... ... ... : --- .. . ... ... ... : ... .. . ... ... ... : ... .. . ... ... ... : ... .. . ... ... ... : ... .. . ... ... ...
ROW ED : ... .. . ... ... ... : C#1 02 . ... ... ... : E-2 00 . P7C ... ... : ... .. 6 ... ... ... : ... .. . ... ... ... : ... .. . ... ... ... : ... .. . P80 ... ... : ... .. . P80 ... ... : ... .. . P80 ... ... : ... .. . ... ... ... : ... .. . ... ... ... : ... .. . ... ... ... : ... .. . ... ... ...
ROW EE : ... .. . ... ... ... : ... .. . ... ... ... : --- .. . ... ... ... : ... .. . ... ... ... : ... .. . ... ... ... : F#3 05 4 ... ... ... : F#3 05 4 P83 ... ... : F#3 05 3 P7E ... ... : D#3 05 3 P81 ... ... : ... .. . ... ... ... : ... .. . ... ... ... : ... .. . ... ... ... : ... .. . ... ... ...
ROW EF : ... .. . ... ... ... : ... .. . ... ... ... : ... .. . ... ... ... : ... .. 5 ... ... ... : ... .. . ... ... ... : ... .. . ... ... ... : ... .. . P84 ... ... : ... .. . ... ... ... : ... .. . ... ... ... : ... .. . ... ... ... : ... .. . ... ... ... : ... .. . ... ... ... : ... .. . ... ... ...
ROW F0 : ... .. . ... ... ... : ... .. . ... ... ... : ... .. . ... ... ... : ... .. . ... ... ... : ... .. . ... ... ... : ... .. . ... ... ... : ... .. . P83 ... ... : ... .. . ... ... ... : ... .. . ... ... ... : ... .. . ... ... ... : ... .. . ... ... ... : ... .. . ... ... ... : ... .. . ... ... ...
ROW F1 : ... .. . ... ... ... : ... .. . ... ... ... : ... .. . ... ... ... : ... .. 4 ... ... ... : ... .. . ... ... ... : ... .. . ... ... ... : ... .. . P82 ... ... : ... .. . ... ... ... : ... .. . ... ... ... : ... .. . ... ... ... : ... .. . ... ... ... : ... .. . ... ... ... : ... .. . ... ... ...
ROW F2 : ... .. . ... ... ... : ... .. . ... ... ... : ... .. . ... ... ... : ... .. . ... ... ... : ... .. . ... ... ... : --- .. . ... ... ... : --- .. . ... ... ... : --- .. . ... ... ... : --- .. . ... ... ... : ... .. . ... ... ... : ... .. . ... ... ... : ... .. . ... ... ... : ... .. . ... ... ...
ROW F3 : ... .. . ... ... ... : ... .. . ... ... ... : ... .. . ... ... ... : ... .. 3 ... ... ... : ... .. . ... ... ... : ... .. . ... ... ... : ... .. . P80 ... ... : ... .. . P80 ... ... : ... .. . P80 ... ... : ... .. . ... ... ... : ... .. . ... ... ... : ... .. . ... ... ... : ... .. . ... ... ...
ROW F4 : ... .. . ... ... ... : ... .. . ... ... ... : ... .. . ... ... ... : D-# 00 A ... ... ... : ... .. . ... ... ... : B-3 05 A ... ... ... : B-3 05 A P83 ... ... : B-3 05 9 P7E ... ... : F#3 05 9 P81 ... ... : ... .. . ... ... ... : ... .. . ... ... ... : ... .. . ... ... ... : ... .. . ... ... ...
ROW F5 : ... .. . ... ... ... : ... .. . ... ... ... : ... .. . ... ... ... : E-# 00 4 ... ... ... : ... .. . ... ... ... : ... .. . ... ... ... : ... .. . P82 ... ... : ... .. . ... ... ... : ... .. . ... ... ... : ... .. . ... ... ... : ... .. . ... ... ... : ... .. . ... ... ... : ... .. . ... ... ...
ROW F6 : ... .. . ... ... ... : ... .. . ... ... ... : ... .. . ... ... ... : D-# 00 2 ... ... ... : ... .. . ... ... ... : ... .. . ... ... ... : ... .. . P83 ... ... : ... .. . ... ... ... : ... .. . ... ... ... : ... .. . ... ... ... : ... .. . ... ... ... : ... .. . ... ... ... : ... .. . ... ... ...
ROW F7 : ... .. . ... ... ... : ... .. . ... ... ... : ... .. . ... ... ... : ... .. 1 ... ... ... : ... .. . ... ... ... : ... .. . ... ... ... : ... .. . P84 ... ... : ... .. . ... ... ... : ... .. . ... ... ... : ... .. . ... ... ... : ... .. . ... ... ... : ... .. . ... ... ... : ... .. . ... ... ...
ROW F8 : ... .. . ... ... ... : ... .. . ... ... ... : ... .. . ... ... ... : ... .. . ... ... ... : ... .. . ... ... ... : --- .. . ... ... ... : --- .. . ... ... ... : --- .. . ... ... ... : --- .. . ... ... ... : ... .. . ... ... ... : ... .. . ... ... ... : ... .. . ... ... ... : ... .. . ... ... ...
ROW F9 : ... .. . ... ... ... : ... .. . ... ... ... : ... .. . ... ... ... : --- .. . ... ... ... : ... .. . ... ... ... : ... .. . ... ... ... : ... .. . P80 ... ... : ... .. . P80 ... ... : ... .. . P80 ... ... : ... .. . ... ... ... : ... .. . ... ... ... : ... .. . ... ... ... : ... .. . ... ... ...
ROW FA : ... .. . ... ... ... : ... .. . ... ... ... : ... .. . ... ... ... : D-# 00 A ... ... ... : ... .. . ... ... ... : B-3 05 4 ... ... ... : B-3 05 . P82 ... ... : B-3 05 . P7E ... ... : F#3 05 . P81 ... ... : ... .. . ... ... ... : ... .. . ... ... ... : ... .. . ... ... ... : ... .. . ... ... ...
ROW FB : ... .. . ... ... ... : ... .. . ... ... ... : ... .. . ... ... ... : E-# 00 4 ... ... ... : ... .. . ... ... ... : ... .. . ... ... ... : ... .. . P83 ... ... : ... .. . ... ... ... : ... .. . ... ... ... : ... .. . ... ... ... : ... .. . ... ... ... : ... .. . ... ... ... : ... .. . ... ... ...
ROW FC : ... .. . ... ... ... : ... .. . ... ... ... : ... .. . ... ... ... : D-# 00 2 ... ... ... : ... .. . ... ... ... : ... .. . ... ... ... : ... .. . P84 ... ... : ... .. . ... ... ... : ... .. . ... ... ... : ... .. . ... ... ... : ... .. . ... ... ... : ... .. . ... ... ... : ... .. . ... ... ...
ROW FD : ... .. . ... ... ... : ... .. . ... ... ... : ... .. . ... ... ... : ... .. 1 ... ... ... : ... .. . ... ... ... : ... .. . ... ... ... : ... .. . P83 ... ... : ... .. . ... ... ... : ... .. . ... ... ... : ... .. . ... ... ... : ... .. . ... ... ... : ... .. . ... ... ... : ... .. . ... ... ...
ROW FE : ... .. . ... ... ... : ... .. . ... ... ... : ... .. . ... ... ... : ... .. . ... ... ... : ... .. . ... ... ... : ... .. . ... ... ... : ... .. . P82 ... ... : ... .. 8 ... ... ... : ... .. . ... ... ... : ... .. . ... ... ... : ... .. . ... ... ... : ... .. . ... ... ... : ... .. . ... ... ...
ROW FF : ... .. . ... ... ... : ... .. . ... ... ... : ... .. . ... ... ... : --- .. . ... ... ... : ... .. . ... ... ... : --- .. . ... ... ... : --- .. . ... ... ... : --- .. . ... ... ... : --- .. . ... ... ... : ... .. . ... ... ... : ... .. . ... ... ... : ... .. . ... ... ... : ... .. . ... ... ...

PATTERN 19
ROW 00 : ... .. . ... ... ... : ... .. . ... ... ... : ... .. . ... ... ... : ... .. . ... ... ... : ... .. . ... ... ... : ... .. . ... ... ... : ... .. . P80 ... ... : ... .. . P80 ... ... : ... .. . P80 ... ... : ... .. . ... ... ... : ... .. . ... ... ... : ... .. . ... ... ... : ... .. . ... ... ...
ROW 01 : ... .. . ... ... ... : C-4 02 . P80 ... ... : F#3 00 . P78 ... ... : 1-# 00 F ... ... ... : C-1 12 . ... ... ... : D#2 06 F ... ... ... : D#2 06 F P81 ... ... : ... .. . ... ... ... : D#2 06 E P7F ... ... : D#3 06 B P81 ... ... : ... .. . ... ... ... : ... .. . ... ... ... : ... .. . ... ... ...
ROW 02 : ... .. . ... ... ... : F-3 02 . ... ... ... : C#3 00 . P7E ... ... : 2-# 00 7 ... ... ... : ... .. . ... ... ... : ... .. . ... ... ... : ... .. . P80 ... ... : ... .. . ... ... ... : ... .. . ... ... ... : ... .. . ... ... ... : ... .. . ... ... ... : ... .. . ... ... ... : ... .. . ... ... ...
ROW 03 : ... .. . ... ... ... : A#2 02 . P81 ... ... : A-2 00 . P86 ... ... : 1-# 00 4 ... ... ... : ... .. . ... ... ... : ... .. . ... ... ... : ... .. . P81 ... ... : ... .. . ... ... ... : ... .. . ... ... ... : ... .. . ... ... ... : ... .. . ... ... ... : ... .. . ... ... ... : ... .. . ... ... ...
ROW 04 : ... .. . ... ... ... : D#2 02 . ... ... ... : --- .. . ... ... ... : ... .. 2 ... ... ... : ... .. . ... ... ... : D#2 09 . ... ... ... : D-2 09 . P7F ... ... : ... .. . ... ... ... : D#2 09 . ... ... ... : D#3 09 . ... ... ... : ... .. . ... ... ... : ... .. . ... ... ... : ... .. . ... ... ...
ROW 05 : ... .. . ... ... ... : G#1 02 . ... ... ... : ... .. . ... ... ... : ... .. 1 ... ... ... : ... .. . ... ... ... : ... .. . ... ... ... : D#2 09 . P82 ... ... : ... .. . ... ... ... : ... .. . ... ... ... : ... .. A ... ... ... : ... .. . ... ... ... : ... .. . ... ... ... : ... .. . ... ... ...
ROW 06 : ... .. . ... ... ... : C#1 02 . ... ... ... : ... .. . ... ... ... : --- .. . ... ... ... : ... .. . ... ... ... : ... .. . ... ... ... : ... .. . P81 ... ... : ... .. . ... ... ... : ... .. . ... ... ... : ... .. . ... ... ... : ... .. . ... ... ... : ... .. . ... ... ... : ... .. . ... ... ...
ROW 07 : ... .. . ... ... ... : ... .. . ... ... ... : ... .. . ... ... ... : ... .. . ... ... ... : ... .. . ... ... ... : D#2 06 . ... ... ... : D#2 06 . ... ... ... : ... .. . ... ... ... : D#2 06 . ... ... ... : D#3 06 . ... ... ... : ... .. . ... ... ... : ... .. . ... ... ... : ... .. . ... ... ...
ROW 08 : ... .. . ... ... ... : ... .. . ... ... ... : ... .. . ... ... ... : ... .. . ... ... ... : ... .. . ... ... ... : ... .. . ... ... ... : ... .. . P82 ... ... : ... .. . ... ... ... : ... .. . ... ... ... : ... .. . ... ... ... : ... .. . ... ... ... : ... .. . ... ... ... : ... .. . ... ... ...
ROW 09 : ... .. . ... ... ... : ... .. . ... ... ... : ... .. . ... ... ... : ... .. . ... ... ... : ... .. . ... ... ... : ... .. . ... ... ... : ... .. . ... ... ... : ... .. . ... ... ... : ... .. D ... ... ... : ... .. 9 ... ... ... : ... .. . ... ... ... : ... .. . ... ... ... : ... .. . ... ... ...
ROW 0A : ... .. . ... ... ... : ... .. . ... ... ... : ... .. . ... ... ... : ... .. . ... ... ... : ... .. . ... ... ... : D#2 09 . ... ... ... : D#2 09 . P81 ... ... : ... .. . ... ... ... : D#2 09 . ... ... ... : D#3 09 . ... ... ... : ... .. . ... ... ... : ... .. . ... ... ... : ... .. . ... ... ...
ROW 0B : ... .. . ... ... ... : ... .. . ... ... ... : ... .. . ... ... ... : ... .. . ... ... ... : ... .. . ... ... ... : ... .. . ... ... ... : ... .. . P80 ... ... : ... .. . ... ... ... : ... .. . ... ... ... : ... .. . ... ... ... : ... .. . ... ... ... : ... .. . ... ... ... : ... .. . ... ... ...
ROW 0C : ... .. . ... ... ... : ... .. . ... ... ... : ... .. . ... ... ... : ... .. . ... ... ... : ... .. . ... ... ... : ... .. . ... ... ... : ... .. . P81 ... ... : ... .. . ... ... ... : ... .. . ... ... ... : ... .. . ... ... ... : ... .. . ... ... ... : ... .. . ... ... ... : ... .. . ... ... ...
ROW 0D : ... .. . ... ... ... : ... .. . ... ... ... : ... .. . ... ... ... : D-# 00 A ... ... ... : ... .. . ... ... ... : D#2 06 . ... ... ... : D-2 06 . P7F ... ... : ... .. . ... ... ... : D#2 06 . ... ... ... : D#3 06 8 ... ... ... : ... .. . ... ... ... : ... .. . ... ... ... : ... .. . ... ... ...
ROW 0E : ... .. . ... ... ... : ... .. . ... ... ... : ... .. . ... ... ... : E-# 00 4 ... ... ... : ... .. . ... ... ... : ... .. . ... ... ... : D#2 06 . P81 ... ... : ... .. . ... ... ... : ... .. . ... ... ... : ... .. . ... ... ... : ... .. . ... ... ... : ... .. . ... ... ... : ... .. . ... ... ...
ROW 0F : ... .. . ... ... ... : ... .. . ... ... ... : ... .. . ... ... ... : D-# 00 2 ... ... ... : ... .. . ... ... ... : ... .. . ... ... ... : ... .. . P80 ... ... : ... .. . ... ... ... : ... .. . ... ... ... : ... .. . ... ... ... : ... .. . ... ... ... : ... .. . ... ... ... : ... .. . ... ... ...
ROW 10 : ... .. . ... ... ... : ... .. . ... ... ... : ... .. . ... ... ... : ... .. 1 ... ... ... : ... .. . ... ... ... : D#2 09 . ... ... ... : D#2 09 . P81 ... ... : ... .. . ... ... ... : D#2 09 . ... ... ... : D#3 09 . ... ... ... : ... .. . ... ... ... : ... .. . ... ... ... : ... .. . ... ... ...
ROW 11 : ... .. . ... ... ... : ... .. . ... ... ... : ... .. . ... ... ... : ... .. . ... ... ... : ... .. . ... ... ... : ... .. . ... ... ... : D-2 09 . P7F ... ... : ... .. . ... ... ... : ... .. C ... ... ... : ... .. 7 ... ... ... : ... .. . ... ... ... : ... .. . ... ... ... : ... .. . ... ... ...
ROW 12 : ... .. . ... ... ... : ... .. . ... ... ... : ... .. . ... ... ... : --- .. . ... ... ... : ... .. . ... ... ... : ... .. . ... ... ... : D#2 09 . P81 ... ... : ... .. . ... ... ... : ... .. . ... ... ... : ... .. . ... ... ... : ... .. . ... ... ... : ... .. . ... ... ... : ... .. . ... ... ...
ROW 13 : ... .. . ... ... ... : ... .. . ... ... ... : ... .. . ... ... ... : D-# 00 A ... ... ... : ... .. . ... ... ... : D#2 06 . ... ... ... : D#2 06 . P80 ... ... : ... .. . ... ... ... : D#2 06 . ... ... ... : D#3 06 . ... ... ... : ... .. . ... ... ... : ... .. . ... ... ... : ... .. . ... ... ...
ROW 14 : ... .. . ... ... ... : ... .. . ... ... ... : ... .. . ... ... ... : E-# 00 4 ... ... ... : ... .. . ... ... ... : ... .. . ... ... ... : ... .. . P81 ... ... : ... .. . ... ... ... : ... .. . ... ... ... : ... .. . ... ... ... : ... .. . ... ... ... : ... .. . ... ... ... : ... .. . ... ... ...
ROW 15 : ... .. . ... ... ... : ... .. . ... ... ... : ... .. . ... ... ... : D-# 00 2 ... ... ... : ... .. . ... ... ... : ... .. . ... ... ... : D-2 06 . P7F ... ... : ... .. . ... ... ... : ... .. . ... ... ... : ... .. 6 ... ... ... : ... .. . ... ... ... : ... .. . ... ... ... : ... .. . ... ... ...
ROW 16 : ... .. . ... ... ... : ... .. . ... ... ... : ... .. . ... ... ... : ... .. 1 ... ... ... : ... .. . ... ... ... : D#2 09 . ... ... ... : D#2 09 . P82 ... ... : ... .. . ... ... ... : D#2 09 . ... ... ... : D#3 09 . ... ... ... : ... .. . ... ... ... : ... .. . ... ... ... : ... .. . ... ... ...
ROW 17 : ... .. . ... ... ... : ... .. . ... ... ... : ... .. . ... ... ... : ... .. . ... ... ... : ... .. . ... ... ... : ... .. . ... ... ... : ... .. . P81 ... ... : ... .. . ... ... ... : ... .. . ... ... ... : ... .. . ... ... ... : ... .. . ... ... ... : ... .. . ... ... ... : ... .. . ... ... ...
ROW 18 : ... .. . ... ... ... : ... .. . ... ... ... : ... .. . ... ... ... : --- .. . ... ... ... : ... .. . ... ... ... : ... .. . ... ... ... : ... .. . ... ... ... : ... .. . ... ... ... : ... .. . ... ... ... : ... .. . ... ... ... : ... .. . ... ... ... : ... .. . ... ... ... : ... .. . ... ... ...
ROW 19 : ... .. . ... ... ... : ... .. . ... ... ... : ... .. . ... ... ... : ... .. . ... ... ... : ... .. . ... ... ... : ... .. . ... ... ... : ... .. . P82 ... ... : ... .. . ... ... ... : ... .. B ... ... ... : ... .. 5 ... ... ... : ... .. . ... ... ... : ... .. . ... ... ... : ... .. . ... ... ...
ROW 1A : ... .. . ... ... ... : C-4 02 . P80 ... ... : C#4 00 . P7F ... ... : 9-# 00 F ... ... ... : C#1 12 . ... ... ... : D-2 06 . ... ... ... : C#2 06 . P7F ... ... : ... .. . ... ... ... : D-2 06 . ... ... ... : D-3 06 . ... ... ... : ... .. . ... ... ... : ... .. . ... ... ... : ... .. . ... ... ...
ROW 1B : ... .. . ... ... ... : F-3 02 . ... ... ... : F#3 00 . P83 ... ... : 2-# 00 7 ... ... ... : ... .. . ... ... ... : ... .. . ... ... ... : D-2 06 . P81 ... ... : ... .. . ... ... ... : ... .. . ... ... ... : ... .. . ... ... ... : ... .. . ... ... ... : ... .. . ... ... ... : ... .. . ... ... ...
ROW 1C : ... .. . ... ... ... : A#2 02 . P81 ... ... : C#3 00 . P89 ... ... : 6-# 00 C ... ... ... : ... .. . ... ... ... : ... .. . ... ... ... : ... .. . P80 ... ... : ... .. . ... ... ... : ... .. . ... ... ... : ... .. . ... ... ... : ... .. . ... ... ... : ... .. . ... ... ... : ... .. . ... ... ...
ROW 1D : ... .. . ... ... ... : D#2 02 . ... ... ... : A#2 00 . P75 ... ... : 7-# 00 8 ... ... ... : ... .. . ... ... ... : D-2 07 . ... ... ... : D-2 07 . P81 ... ... : ... .. . ... ... ... : D-2 07 . ... ... ... : D-3 07 4 ... ... ... : ... .. . ... ... ... : ... .. . ... ... ... : ... .. . ... ... ...
ROW 1E : ... .. . ... ... ... : G#1 02 . ... ... ... : G-2 00 . P70 ... ... : 8-# 00 7 ... ... ... : ... .. . ... ... ... : ... .. . ... ... ... : C#2 07 . P7F ... ... : ... .. . ... ... ... : ... .. . ... ... ... : ... .. . ... ... ... : ... .. . ... ... ... : ... .. . ... ... ... : ... .. . ... ... ...
ROW 1F : ... .. . ... ... ... : C#1 02 . ... ... ... : E-2 00 . P7C ... ... : ... .. 6 ... ... ... : ... .. . ... ... ... : ... .. . ... ... ... : D-2 07 . P81 ... ... : ... .. . ... ... ... : ... .. . ... ... ... : ... .. . ... ... ... : ... .. . ... ... ... : ... .. . ... ... ... : ... .. . ... ... ...
ROW 20 : ... .. . ... ... ... : ... .. . ... ... ... : --- .. . ... ... ... : ... .. . ... ... ... : ... .. . ... ... ... : D-2 08 . ... ... ... : D-2 08 . P80 ... ... : ... .. . ... ... ... : D-2 08 . ... ... ... : D-3 08 . ... ... ... : ... .. . ... ... ... : ... .. . ... ... ... : ... .. . ... ... ...
ROW 21 : ... .. . ... ... ... : ... .. . ... ... ... : ... .. . ... ... ... : ... .. 5 ... ... ... : ... .. . ... ... ... : ... .. . ... ... ... : ... .. . P81 ... ... : ... .. . ... ... ... : ... .. A ... ... ... : ... .. 3 ... ... ... : ... .. . ... ... ... : ... .. . ... ... ... : ... .. . ... ... ...
ROW 22 : ... .. . ... ... ... : ... .. . ... ... ... : ... .. . ... ... ... : ... .. . ... ... ... : ... .. . ... ... ... : ... .. . ... ... ... : C#2 08 . P7F ... ... : ... .. . ... ... ... : ... .. . ... ... ... : ... .. . ... ... ... : ... .. . ... ... ... : ... .. . ... ... ... : ... .. . ... ... ...
ROW 23 : ... .. . ... ... ... : ... .. . ... ... ... : ... .. . ... ... ... : ... .. 4 ... ... ... : ... .. . ... ... ... : D-2 09 . ... ... ... : D-2 09 . P81 ... ... : ... .. . ... ... ... : D-2 09 . ... ... ... : D-3 09 . ... ... ... : ... .. . ... ... ... : ... .. . ... ... ... : ... .. . ... ... ...
ROW 24 : ... .. . ... ... ... : ... .. . ... ... ... : ... .. . ... ... ... : ... .. . ... ... ... : ... .. . ... ... ... : ... .. . ... ... ... : ... .. . P80 ... ... : ... .. . ... ... ... : ... .. . ... ... ... : ... .. . ... ... ... : ... .. . ... ... ... : ... .. . ... ... ... : ... .. . ... ... ...
ROW 25 : ... .. . ... ... ... : ... .. . ... ... ... : ... .. . ... ... ... : ... .. 3 ... ... ... : ... .. . ... ... ... : ... .. . ... ... ... : ... .. . P81 ... ... : ... .. . ... ... ... : ... .. . ... ... ... : ... .. 2 ... ... ... : ... .. . ... ... ... : ... .. . ... ... ... : ... .. . ... ... ...
ROW 26 : ... .. . ... ... ... : F-3 02 . P80 ... ... : C#4 00 . P7F ... ... : 1-# 00 F ... ... ... : C-1 12 . ... ... ... : --- .. . ... ... ... : --- .. . ... ... ... : ... .. . ... ... ... : --- .. . ... ... ... : --- .. . ... ... ... : ... .. . ... ... ... : ... .. . ... ... ... : ... .. . ... ... ...
ROW 27 : ... .. . ... ... ... : A#2 02 . P81 ... ... : F#3 00 . P83 ... ... : 2-# 00 7 ... ... ... : ... .. . ... ... ... : ... .. . ... ... ... : ... .. . P80 ... ... : ... .. . ... ... ... : ... .. . P80 ... ... : ... .. . P80 ... ... : ... .. . ... ... ... : ... .. . ... ... ... : ... .. . ... ... ...
ROW 28 : ... .. . ... ... ... : D#2 02 . ... ... ... : C#3 00 . P89 ... ... : 1-# 00 4 ... ... ... : ... .. . ... ... ... : ... .. . ... ... ... : ... .. . ... ... ... : ... .. . ... ... ... : ... .. . ... ... ... : ... .. . ... ... ... : ... .. . ... ... ... : ... .. . ... ... ... : ... .. . ... ... ...
ROW 29 : ... .. . ... ... ... : G#1 02 . ... ... ... : A#2 00 . P75 ... ... : ... .. 2 ... ... ... : ... .. . ... ... ... : ... .. . ... ... ... : ... .. . ... ... ... : ... .. . ... ... ... : ... .. . ... ... ... : ... .. . ... ... ... : ... .. . ... ... ... : ... .. . ... ... ... : ... .. . ... ... ...
ROW 2A : ... .. . ... ... ... : C#1 02 . ... ... ... : G-2 00 . P70 ... ... : ... .. 1 ... ... ... : ... .. . ... ... ... : ... .. . ... ... ... : ... .. . ... ... ... : ... .. . ... ... ... : ... .. . ... ... ... : ... .. . ... ... ... : ... .. . ... ... ... : ... .. . ... ... ... : ... .. . ... ... ...
ROW 2B : ... .. . ... ... ... : ... .. . ... ... ... : E-2 00 . P7C ... ... : --- .. . ... ... ... : ... .. . ... ... ... : ... .. . ... ... ... : ... .. . ... ... ... : ... .. . ... ... ... : ... .. . ... ... ... : ... .. . ... ... ... : ... .. . ... ... ... : ... .. . ... ... ... : ... .. . ... ... ...
ROW 2C : ... .. . ... ... ... : ... .. . ... ... ... : D-2 00 . P6F ... ... : ... .. . ... ... ... : ... .. . ... ... ... : ... .. . ... ... ... : ... .. . ... ... ... : ... .. . ... ... ... : ... .. . ... ... ... : ... .. . ... ... ... : ... .. . ... ... ... : ... .. . ... ... ... : ... .. . ... ... ...
ROW 2D : ... .. . ... ... ... : ... .. . ... ... ... : C-2 00 . P6C ... ... : ... .. . ... ... ... : ... .. . ... ... ... : ... .. . ... ... ... : ... .. . ... ... ... : ... .. . ... ... ... : ... .. . ... ... ... : ... .. . ... ... ... : ... .. . ... ... ... : ... .. . ... ... ... : ... .. . ... ... ...
ROW 2E : ... .. . ... ... ... : ... .. . ... ... ... : A#1 00 . P75 ... ... : ... .. . ... ... ... : ... .. . ... ... ... : ... .. . ... ... ... : ... .. . ... ... ... : ... .. . ... ... ... : ... .. . ... ... ... : ... .. . ... ... ... : ... .. . ... ... ... : ... .. . ... ... ... : ... .. . ... ... ...
ROW 2F : ... .. . ... ... ... : ... .. . ... ... ... : G#1 00 . P8A ... ... : ... .. . ... ... ... : ... .. . ... ... ... : C-2 07 . ... ... ... : B-1 07 . P7F ... ... : ... .. . ... ... ... : ... .. . ... ... ... : ... .. . ... ... ... : ... .. . ... ... ... : ... .. . ... ... ... : ... .. . ... ... ...
ROW 30 : ... .. . ... ... ... : ... .. . ... ... ... : G-1 00 . P6A ... ... : ... .. . ... ... ... : ... .. . ... ... ... : ... .. . ... ... ... : C-2 07 . P81 ... ... : ... .. . ... ... ... : ... .. . ... ... ... : ... .. . ... ... ... : ... .. . ... ... ... : ... .. . ... ... ... : ... .. . ... ... ...
ROW 31 : ... .. . ... ... ... : ... .. . ... ... ... : F-1 00 . P96 ... ... : ... .. . ... ... ... : ... .. . ... ... ... : ... .. . ... ... ... : ... .. . P80 ... ... : ... .. . ... ... ... : ... .. . ... ... ... : ... .. . ... ... ... : ... .. . ... ... ... : ... .. . ... ... ... : ... .. . ... ... ...
ROW 32 : ... .. . ... ... ... : ... .. . ... ... ... : E-1 00 . P82 ... ... : ... .. . ... ... ... : ... .. . ... ... ... : ... .. . ... ... ... : ... .. . P81 ... ... : ... .. . ... ... ... : ... .. . ... ... ... : ... .. . ... ... ... : ... .. . ... ... ... : ... .. . ... ... ... : ... .. . ... ... ...
ROW 33 : ... .. . ... ... ... : C-4 02 . P80 ... ... : F#3 00 . P78 ... ... : 1-# 00 F ... ... ... : C-1 12 . ... ... ... : C#2 06 . ... ... ... : C-2 06 . P7F ... ... : ... .. . ... ... ... : C#2 06 8 P7F ... ... : ... .. . ... ... ... : ... .. . ... ... ... : ... .. . ... ... ... : ... .. . ... ... ...
ROW 34 : ... .. . ... ... ... : F-3 02 . ... ... ... : C#3 00 . P7E ... ... : 2-# 00 7 ... ... ... : ... .. . ... ... ... : ... .. . ... ... ... : C#2 06 . P81 ... ... : ... .. . ... ... ... : ... .. . ... ... ... : ... .. . ... ... ... : ... .. . ... ... ... : ... .. . ... ... ... : ... .. . ... ... ...
ROW 35 : ... .. . ... ... ... : A#2 02 . P81 ... ... : A-2 00 . P86 ... ... : 1-# 00 4 ... ... ... : ... .. . ... ... ... : ... .. . ... ... ... : ... .. . P80 ... ... : ... .. . ... ... ... : ... .. . ... ... ... : ... .. . ... ... ... : ... .. . ... ... ... : ... .. . ... ... ... : ... .. . ... ... ...
ROW 36 : ... .. . ... ... ... : D#2 02 . ... ... ... : --- .. . ... ... ... : ... .. 2 ... ... ... : ... .. . ... ... ... : C#2 09 . ... ... ... : C#2 09 . P81 ... ... : ... .. . ... ... ... : C#2 09 . ... ... ... : ... .. . ... ... ... : ... .. . ... ... ... : ... .. . ... ... ... : ... .. . ... ... ...
ROW 37 : ... .. . ... ... ... : G#1 02 . ... ... ... : ... .. . ... ... ... : ... .. 1 ... ... ... : ... .. . ... ... ... : ... .. . ... ... ... : ... .. . P82 ... ... : ... .. . ... ... ... : ... .. . ... ... ... : ... .. . ... ... ... : ... .. . ... ... ... : ... .. . ... ... ... : ... .. . ... ... ...
ROW 38 : ... .. . ... ... ... : C#1 02 . ... ... ... : ... .. . ... ... ... : --- .. . ... ... ... : ... .. . ... ... ... : ... .. . ... ... ... : ... .. . ... ... ... : ... .. . ... ... ... : ... .. . ... ... ... : ... .. . ... ... ... : ... .. . ... ... ... : ... .. . ... ... ... : ... .. . ... ... ...
ROW 39 : ... .. . ... ... ... : ... .. . ... ... ... : ... .. . ... ... ... : ... .. . ... ... ... : ... .. . ... ... ... : C#2 06 . ... ... ... : C#2 06 . P81 ... ... : ... .. . ... ... ... : C#2 06 7 ... ... ... : ... .. . ... ... ... : ... .. . ... ... ... : ... .. . ... ... ... : ... .. . ... ... ...
ROW 3A : ... .. . ... ... ... : ... .. . ... ... ... : ... .. . ... ... ... : ... .. . ... ... ... : ... .. . ... ... ... : ... .. . ... ... ... : ... .. . P80 ... ... : ... .. . ... ... ... : ... .. . ... ... ... : ... .. . ... ... ... : ... .. . ... ... ... : ... .. . ... ... ... : ... .. . ... ... ...
ROW 3B : ... .. . ... ... ... : ... .. . ... ... ... : ... .. . ... ... ... : ... .. . ... ... ... : ... .. . ... ... ... : ... .. . ... ... ... : ... .. . P81 ... ... : ... .. . ... ... ... : ... .. . ... ... ... : ... .. . ... ... ... : ... .. . ... ... ... : ... .. . ... ... ... : ... .. . ... ... ...
ROW 3C : ... .. . ... ... ... : ... .. . ... ... ... : ... .. . ... ... ... : ... .. . ... ... ... : ... .. . ... ... ... : C#2 09 . ... ... ... : C-2 09 . P7F ... ... : ... .. . ... ... ... : C#2 09 . ... ... ... : ... .. . ... ... ... : ... .. . ... ... ... : ... .. . ... ... ... : ... .. . ... ... ...
ROW 3D : ... .. . ... ... ... : ... .. . ... ... ... : ... .. . ... ... ... : ... .. . ... ... ... : ... .. . ... ... ... : ... .. . ... ... ... : C#2 09 . P81 ... ... : ... .. . ... ... ... : ... .. . ... ... ... : ... .. . ... ... ... : ... .. . ... ... ... : ... .. . ... ... ... : ... .. . ... ... ...
ROW 3E : ... .. . ... ... ... : ... .. . ... ... ... : ... .. . ... ... ... : ... .. . ... ... ... : ... .. . ... ... ... : ... .. . ... ... ... : ... .. . P80 ... ... : ... .. . ... ... ... : ... .. . ... ... ... : ... .. . ... ... ... : ... .. . ... ... ... : ... .. . ... ... ... : ... .. . ... ... ...
ROW 3F : ... .. . ... ... ... : ... .. . ... ... ... : ... .. . ... ... ... : D-# 00 A ... ... ... : ... .. . ... ... ... : C#2 06 . ... ... ... : C#2 06 . P81 ... ... : ... .. . ... ... ... : C#2 06 . ... ... ... : ... .. . ... ... ... : ... .. . ... ... ... : ... .. . ... ... ... : ... .. . ... ... ...
ROW 40 : ... .. . ... ... ... : ... .. . ... ... ... : ... .. . ... ... ... : E-# 00 4 ... ... ... : ... .. . ... ... ... : ... .. . ... ... ... : C-2 06 . P7F ... ... : ... .. . ... ... ... : ... .. . ... ... ... : ... .. . ... ... ... : ... .. . ... ... ... : ... .. . ... ... ... : ... .. . ... ... ...
ROW 41 : ... .. . ... ... ... : ... .. . ... ... ... : ... .. . ... ... ... : D-# 00 2 ... ... ... : ... .. . ... ... ... : ... .. . ... ... ... : C#2 06 . P81 ... ... : ... .. . ... ... ... : ... .. 6 ... ... ... : ... .. . ... ... ... : ... .. . ... ... ... : ... .. . ... ... ... : ... .. . ... ... ...
ROW 42 : ... .. . ... ... ... : ... .. . ... ... ... : ... .. . ... ... ... : ... .. 1 ... ... ... : ... .. . ... ... ... : C#2 09 . ... ... ... : C#2 09 . P80 ... ... : ... .. . ... ... ... : C#2 09 . ... ... ... : ... .. . ... ... ... : ... .. . ... ... ... : ... .. . ... ... ... : ... .. . ... ... ...
ROW 43 : ... .. . ... ... ... : ... .. . ... ... ... : ... .. . ... ... ... : ... .. . ... ... ... : ... .. . ... ... ... : ... .. . ... ... ... : ... .. . P81 ... ... : ... .. . ... ... ... : ... .. . ... ... ... : ... .. . ... ... ... : ... .. . ... ... ... : ... .. . ... ... ... : ... .. . ... ... ...
ROW 44 : ... .. . ... ... ... : ... .. . ... ... ... : ... .. . ... ... ... : --- .. . ... ... ... : ... .. . ... ... ... : ... .. . ... ... ... : C-2 09 . P7F ... ... : ... .. . ... ... ... : ... .. . ... ... ... : ... .. . ... ... ... : ... .. . ... ... ... : ... .. . ... ... ... : ... .. . ... ... ...
ROW 45 : ... .. . ... ... ... : ... .. . ... ... ... : ... .. . ... ... ... : D-# 00 A ... ... ... : ... .. . ... ... ... : C#2 06 . ... ... ... : C#2 06 . P82 ... ... : ... .. . ... ... ... : C#2 06 . ... ... ... : ... .. . ... ... ... : ... .. . ... ... ... : ... .. . ... ... ... : ... .. . ... ... ...
ROW 46 : ... .. . ... ... ... : ... .. . ... ... ... : ... .. . ... ... ... : E-# 00 4 ... ... ... : ... .. . ... ... ... : ... .. . ... ... ... : ... .. . P81 ... ... : ... .. . ... ... ... : ... .. . ... ... ... : ... .. . ... ... ... : ... .. . ... ... ... : ... .. . ... ... ... : ... .. . ... ... ...
ROW 47 : ... .. . ... ... ... : ... .. . ... ... ... : ... .. . ... ... ... : D-# 00 2 ... ... ... : ... .. . ... ... ... : ... .. . ... ... ... : ... .. . ... ... ... : ... .. . ... ... ... : ... .. . ... ... ... : ... .. . ... ... ... : ... .. . ... ... ... : ... .. . ... ... ... : ... .. . ... ... ...
ROW 48 : ... .. . ... ... ... : ... .. . ... ... ... : ... .. . ... ... ... : ... .. 1 ... ... ... : ... .. . ... ... ... : C#2 09 . ... ... ... : C#2 09 . P82 ... ... : ... .. . ... ... ... : C#2 09 . ... ... ... : ... .. . ... ... ... : ... .. . ... ... ... : ... .. . ... ... ... : ... .. . ... ... ...
ROW 49 : ... .. . ... ... ... : ... .. . ... ... ... : ... .. . ... ... ... : ... .. . ... ... ... : ... .. . ... ... ... : ... .. . ... ... ... : ... .. . ... ... ... : ... .. . ... ... ... : ... .. 5 ... ... ... : ... .. . ... ... ... : ... .. . ... ... ... : ... .. . ... ... ... : ... .. . ... ... ...
ROW 4A : ... .. . ... ... ... : ... .. . ... ... ... : ... .. . ... ... ... : --- .. . ... ... ... : ... .. . ... ... ... : ... .. . ... ... ... : ... .. . P81 ... ... : ... .. . ... ... ... : ... .. . ... ... ... : ... .. . ... ... ... : ... .. . ... ... ... : ... .. . ... ... ... : ... .. . ... ... ...
ROW 4B : ... .. . ... ... ... : ... .. . ... ... ... : ... .. . ... ... ... : ... .. . ... ... ... : ... .. . ... ... ... : ... .. . ... ... ... : ... .. . P80 ... ... : ... .. . ... ... ... : ... .. . ... ... ... : ... .. . ... ... ... : ... .. . ... ... ... : ... .. . ... ... ... : ... .. . ... ... ...
ROW 4C : ... .. . ... ... ... : C-4 02 . P80 ... ... : C#4 00 . P7F ... ... : 9-# 00 F ... ... ... : C#1 12 . ... ... ... : G-1 06 . ... ... ... : G-1 06 . P81 ... ... : ... .. . ... ... ... : G-1 06 . ... ... ... : ... .. . ... ... ... : ... .. . ... ... ... : ... .. . ... ... ... : ... .. . ... ... ...
ROW 4D : ... .. . ... ... ... : F-3 02 . ... ... ... : F#3 00 . P83 ... ... : 2-# 00 7 ... ... ... : ... .. . ... ... ... : ... .. . ... ... ... : F#1 06 . P80 ... ... : ... .. . ... ... ... : ... .. . ... ... ... : ... .. . ... ... ... : ... .. . ... ... ... : ... .. . ... ... ... : ... .. . ... ... ...
ROW 4E : ... .. . ... ... ... : A#2 02 . P81 ... ... : C#3 00 . P89 ... ... : 6-# 00 C ... ... ... : ... .. . ... ... ... : ... .. . ... ... ... : G-1 06 . P81 ... ... : ... .. . ... ... ... : ... .. . ... ... ... : ... .. . ... ... ... : ... .. . ... ... ... : ... .. . ... ... ... : ... .. . ... ... ...
ROW 4F : ... .. . ... ... ... : D#2 02 . ... ... ... : A#2 00 . P75 ... ... : 7-# 00 8 ... ... ... : ... .. . ... ... ... : ... .. . ... ... ... : ... .. . P80 ... ... : ... .. . ... ... ... : ... .. . ... ... ... : ... .. . ... ... ... : ... .. . ... ... ... : ... .. . ... ... ... : ... .. . ... ... ...
ROW 50 : ... .. . ... ... ... : G#1 02 . ... ... ... : G-2 00 . P70 ... ... : 8-# 00 7 ... ... ... : ... .. . ... ... ... : ... .. . ... ... ... : ... .. . P81 ... ... : ... .. . ... ... ... : ... .. . ... ... ... : ... .. . ... ... ... : ... .. . ... ... ... : ... .. . ... ... ... : ... .. . ... ... ...
ROW 51 : ... .. . ... ... ... : C#1 02 . ... ... ... : E-2 00 . P7C ... ... : ... .. 6 ... ... ... : ... .. . ... ... ... : ... .. . ... ... ... : F#1 06 . P80 ... ... : ... .. . ... ... ... : ... .. 4 ... ... ... : ... .. . ... ... ... : ... .. . ... ... ... : ... .. . ... ... ... : ... .. . ... ... ...
ROW 52 : ... .. . ... ... ... : ... .. . ... ... ... : --- .. . ... ... ... : ... .. . ... ... ... : ... .. . ... ... ... : G-1 07 . ... ... ... : G-1 07 . P81 ... ... : ... .. . ... ... ... : G-1 07 . ... ... ... : ... .. . ... ... ... : ... .. . ... ... ... : ... .. . ... ... ... : ... .. . ... ... ...
ROW 53 : ... .. . ... ... ... : ... .. . ... ... ... : ... .. . ... ... ... : ... .. 5 ... ... ... : ... .. . ... ... ... : ... .. . ... ... ... : ... .. . P80 ... ... : ... .. . ... ... ... : ... .. . ... ... ... : ... .. . ... ... ... : ... .. . ... ... ... : ... .. . ... ... ... : ... .. . ... ... ...
ROW 54 : ... .. . ... ... ... : ... .. . ... ... ... : ... .. . ... ... ... : ... .. . ... ... ... : ... .. . ... ... ... : ... .. . ... ... ... : ... .. . P81 ... ... : ... .. . ... ... ... : ... .. . ... ... ... : ... .. . ... ... ... : ... .. . ... ... ... : ... .. . ... ... ... : ... .. . ... ... ...
ROW 55 : ... .. . ... ... ... : ... .. . ... ... ... : ... .. . ... ... ... : ... .. 4 ... ... ... : ... .. . ... ... ... : G-1 08 . ... ... ... : F#1 08 . P80 ... ... : ... .. . ... ... ... : G-1 08 . ... ... ... : ... .. . ... ... ... : ... .. . ... ... ... : ... .. . ... ... ... : ... .. . ... ... ...
ROW 56 : ... .. . ... ... ... : ... .. . ... ... ... : ... .. . ... ... ... : ... .. . ... ... ... : ... .. . ... ... ... : ... .. . ... ... ... : ... .. . ... ... ... : ... .. . ... ... ... : ... .. . ... ... ... : ... .. . ... ... ... : ... .. . ... ... ... : ... .. . ... ... ... : ... .. . ... ... ...
ROW 57 : ... .. . ... ... ... : ... .. . ... ... ... : ... .. . ... ... ... : ... .. 3 ... ... ... : ... .. . ... ... ... : ... .. . ... ... ... : G-1 08 . P81 ... ... : ... .. . ... ... ... : ... .. . ... ... ... : ... .. . ... ... ... : ... .. . ... ... ... : ... .. . ... ... ... : ... .. . ... ... ...
ROW 58 : ... .. . ... ... ... : ... .. . ... ... ... : ... .. . ... ... ... : 6-# 01 F ... ... ... : ... .. . ... ... ... : B-1 06 . ... ... ... : B-1 06 . ... ... ... : ... .. . ... ... ... : B-1 06 . ... ... ... : ... .. . ... ... ... : ... .. . ... ... ... : ... .. . ... ... ... : ... .. . ... ... ...
ROW 59 : ... .. . ... ... ... : ... .. . ... ... ... : ... .. . ... ... ... : ... .. 9 ... ... ... : ... .. . ... ... ... : ... .. . ... ... ... : A#1 06 . P7F ... ... : ... .. . ... ... ... : ... .. 3 ... ... ... : ... .. . ... ... ... : ... .. . ... ... ... : ... .. . ... ... ... : ... .. . ... ... ...
ROW 5A : ... .. . ... ... ... : ... .. . ... ... ... : ... .. . ... ... ... : ... .. 4 ... ... ... : ... .. . ... ... ... : ... .. . ... ... ... : ... .. . P80 ... ... : ... .. . ... ... ... : ... .. . ... ... ... : ... .. . ... ... ... : ... .. . ... ... ... : ... .. . ... ... ... : ... .. . ... ... ...
ROW 5B : ... .. . ... ... ... : ... .. . ... ... ... : ... .. . ... ... ... : ... .. 7 ... ... ... : ... .. . ... ... ... : ... .. . ... ... ... : B-1 06 . P81 ... ... : ... .. . ... ... ... : ... .. . ... ... ... : ... .. . ... ... ... : ... .. . ... ... ... : ... .. . ... ... ... : ... .. . ... ... ...
ROW 5C : ... .. . ... ... ... : ... .. . ... ... ... : ... .. . ... ... ... : ... .. 5 ... ... ... : ... .. . ... ... ... : ... .. . ... ... ... : ... .. . P80 ... ... : ... .. . ... ... ... : ... .. . ... ... ... : ... .. . ... ... ... : ... .. . ... ... ... : ... .. . ... ... ... : ... .. . ... ... ...
ROW 5D : ... .. . ... ... ... : ... .. . ... ... ... : ... .. . ... ... ... : ... .. . ... ... ... : ... .. . ... ... ... : ... .. . ... ... ... : ... .. . P81 ... ... : ... .. . ... ... ... : ... .. . ... ... ... : ... .. . ... ... ... : ... .. . ... ... ... : ... .. . ... ... ... : ... .. . ... ... ...
ROW 5E : ... .. . ... ... ... : ... .. . ... ... ... : ... .. . ... ... ... : ... .. 4 ... ... ... : ... .. . ... ... ... : B-1 07 . ... ... ... : A#1 07 . P80 ... ... : ... .. . ... ... ... : B-1 07 . ... ... ... : ... .. . ... ... ... : ... .. . ... ... ... : ... .. . ... ... ... : ... .. . ... ... ...
ROW 5F : ... .. . ... ... ... : ... .. . ... ... ... : ... .. . ... ... ... : ... .. . ... ... ... : ... .. . ... ... ... : ... .. . ... ... ... : B-1 07 . P81 ... ... : ... .. . ... ... ... : ... .. . ... ... ... : ... .. . ... ... ... : ... .. . ... ... ... : ... .. . ... ... ... : ... .. . ... ... ...
ROW 60 : ... .. . ... ... ... : ... .. . ... ... ... : ... .. . ... ... ... : ... .. 3 ... ... ... : ... .. . ... ... ... : ... .. . ... ... ... : ... .. . P80 ... ... : ... .. . ... ... ... : ... .. . ... ... ... : ... .. . ... ... ... : ... .. . ... ... ... : ... .. . ... ... ... : ... .. . ... ... ...
ROW 61 : ... .. . ... ... ... : ... .. . ... ... ... : ... .. . ... ... ... : ... .. 2 ... ... ... : ... .. . ... ... ... : B-1 08 . ... ... ... : B-1 08 . P81 ... ... : ... .. . ... ... ... : B-1 08 2 ... ... ... : ... .. . ... ... ... : ... .. . ... ... ... : ... .. . ... ... ... : ... .. . ... ... ...
ROW 62 : ... .. . ... ... ... : ... .. . ... ... ... : ... .. . ... ... ... : ... .. . ... ... ... : ... .. . ... ... ... : ... .. . ... ... ... : A#1 08 . P80 ... ... : ... .. . ... ... ... : ... .. . ... ... ... : ... .. . ... ... ... : ... .. . ... ... ... : ... .. . ... ... ... : ... .. . ... ... ...
ROW 63 : ... .. . ... ... ... : ... .. . ... ... ... : ... .. . ... ... ... : ... .. 1 ... ... ... : ... .. . ... ... ... : ... .. . ... ... ... : B-1 08 . P81 ... ... : ... .. . ... ... ... : ... .. . ... ... ... : ... .. . ... ... ... : ... .. . ... ... ... : ... .. . ... ... ... : ... .. . ... ... ...
ROW 64 : ... .. . ... ... ... : ... .. . ... ... ... : ... .. . ... ... ... : ... .. . ... ... ... : ... .. . ... ... ... : ... .. . ... ... ... : ... .. . P80 ... ... : ... .. . ... ... ... : ... .. . ... ... ... : ... .. . ... ... ... : ... .. . ... ... ... : ... .. . ... ... ... : ... .. . ... ... ...
ROW 65 : ... .. . ... ... ... : C-4 02 . P80 ... ... : F#3 00 . P78 ... ... : 1-# 00 F ... ... ... : C-1 12 . ... ... ... : G-4 04 A P78 ... ... : A-4 04 A P81 ... ... : ... .. . ... ... ... : F#4 04 9 P89 ... ... : G-4 04 9 P81 ... ... : ... .. . ... ... ... : ... .. . ... ... ... : ... .. . ... ... ...
ROW 66 : ... .. . ... ... ... : F-3 02 . ... ... ... : C#3 00 . P7E ... ... : 2-# 00 7 ... ... ... : ... .. . ... ... ... : G#4 04 . P84 ... ... : ... .. . P82 ... ... : ... .. . ... ... ... : ... .. . P81 ... ... : ... .. . ... ... ... : ... .. . ... ... ... : ... .. . ... ... ... : ... .. . ... ... ...
ROW 67 : ... .. . ... ... ... : A#2 02 . P81 ... ... : A-2 00 . P86 ... ... : 1-# 00 4 ... ... ... : ... .. . ... ... ... : ... .. . P7C ... ... : ... .. . ... ... ... : ... .. . ... ... ... : ... .. . P79 ... ... : ... .. . ... ... ... : ... .. . ... ... ... : ... .. . ... ... ... : ... .. . ... ... ...
ROW 68 : ... .. . ... ... ... : D#2 02 . ... ... ... : --- .. . ... ... ... : ... .. 2 ... ... ... : ... .. . ... ... ... : A-4 04 . P88 ... ... : ... .. . P81 ... ... : ... .. . ... ... ... : G-4 04 . P83 ... ... : ... .. . ... ... ... : ... .. . ... ... ... : ... .. . ... ... ... : ... .. . ... ... ...
ROW 69 : ... .. . ... ... ... : G#1 02 . ... ... ... : ... .. . ... ... ... : ... .. 1 ... ... ... : ... .. . ... ... ... : ... .. . P80 ... ... : ... .. . ... ... ... : ... .. . ... ... ... : ... .. . P7B ... ... : ... .. 8 ... ... ... : ... .. . ... ... ... : ... .. . ... ... ... : ... .. . ... ... ...
ROW 6A : ... .. . ... ... ... : C#1 02 . ... ... ... : ... .. . ... ... ... : --- .. . ... ... ... : ... .. . ... ... ... : ... .. . P78 ... ... : ... .. . P82 ... ... : ... .. . ... ... ... : G#4 04 . P86 ... ... : ... .. . ... ... ... : ... .. . ... ... ... : ... .. . ... ... ... : ... .. . ... ... ...
ROW 6B : ... .. . ... ... ... : ... .. . ... ... ... : ... .. . ... ... ... : ... .. . ... ... ... : ... .. . ... ... ... : ... .. . P7A ... ... : ... .. . P84 ... ... : ... .. . ... ... ... : ... .. . P88 ... ... : ... .. . P83 ... ... : ... .. . ... ... ... : ... .. . ... ... ... : ... .. . ... ... ...
ROW 6C : ... .. . ... ... ... : ... .. . ... ... ... : ... .. . ... ... ... : ... .. . ... ... ... : ... .. . ... ... ... : ... .. . P7C ... ... : ... .. . P85 ... ... : ... .. . ... ... ... : ... .. . P8A ... ... : ... .. . P85 ... ... : ... .. . ... ... ... : ... .. . ... ... ... : ... .. . ... ... ...
ROW 6D : ... .. . ... ... ... : ... .. . ... ... ... : ... .. . ... ... ... : ... .. . ... ... ... : ... .. . ... ... ... : ... .. . P7E ... ... : ... .. . P86 ... ... : ... .. . ... ... ... : G-4 04 8 P79 ... ... : ... .. 7 P87 ... ... : ... .. . ... ... ... : ... .. . ... ... ... : ... .. . ... ... ...
ROW 6E : ... .. . ... ... ... : ... .. . ... ... ... : ... .. . ... ... ... : ... .. . ... ... ... : ... .. . ... ... ... : ... .. . P80 ... ... : ... .. . P89 ... ... : ... .. . ... ... ... : ... .. . P7B ... ... : ... .. . P89 ... ... : ... .. . ... ... ... : ... .. . ... ... ... : ... .. . ... ... ...
ROW 6F : ... .. . ... ... ... : ... .. . ... ... ... : ... .. . ... ... ... : ... .. . ... ... ... : ... .. . ... ... ... : ... .. . P82 ... ... : G#4 04 . P78 ... ... : ... .. . ... ... ... : ... .. . P7D ... ... : F#4 04 . P79 ... ... : ... .. . ... ... ... : ... .. . ... ... ... : ... .. . ... ... ...
ROW 70 : ... .. . ... ... ... : ... .. . ... ... ... : ... .. . ... ... ... : ... .. . ... ... ... : ... .. . ... ... ... : ... .. . P84 ... ... : ... .. . P79 ... ... : ... .. . ... ... ... : ... .. . P7F ... ... : ... .. . P7B ... ... : ... .. . ... ... ... : ... .. . ... ... ... : ... .. . ... ... ...
ROW 71 : ... .. . ... ... ... : ... .. . ... ... ... : ... .. . ... ... ... : D-# 00 A ... ... ... : ... .. . ... ... ... : G#4 04 . P7E ... ... : ... .. . P86 ... ... : ... .. . ... ... ... : F#4 04 . P7B ... ... : F-4 04 6 P78 ... ... : ... .. . ... ... ... : ... .. . ... ... ... : ... .. . ... ... ...
ROW 72 : ... .. . ... ... ... : ... .. . ... ... ... : ... .. . ... ... ... : E-# 00 4 ... ... ... : ... .. . ... ... ... : G-4 04 . P78 ... ... : G-4 04 . P82 ... ... : ... .. . ... ... ... : ... .. . P89 ... ... : ... .. . P86 ... ... : ... .. . ... ... ... : ... .. . ... ... ... : ... .. . ... ... ...
ROW 73 : ... .. . ... ... ... : ... .. . ... ... ... : ... .. . ... ... ... : D-# 00 2 ... ... ... : ... .. . ... ... ... : ... .. . P86 ... ... : F#4 04 . P7F ... ... : ... .. . ... ... ... : F-4 04 . P85 ... ... : E-4 04 . P84 ... ... : ... .. . ... ... ... : ... .. . ... ... ... : ... .. . ... ... ...
ROW 74 : ... .. . ... ... ... : ... .. . ... ... ... : ... .. . ... ... ... : ... .. 1 ... ... ... : ... .. . ... ... ... : F#4 04 . P82 ... ... : F-4 04 . P7B ... ... : ... .. . ... ... ... : E-4 04 . P83 ... ... : D#4 04 . P83 ... ... : ... .. . ... ... ... : ... .. . ... ... ... : ... .. . ... ... ...
ROW 75 : ... .. . ... ... ... : ... .. . ... ... ... : ... .. . ... ... ... : ... .. . ... ... ... : ... .. . ... ... ... : F-4 04 . P7F ... ... : ... .. . P88 ... ... : ... .. . ... ... ... : D#4 04 7 P82 ... ... : D-4 04 5 P82 ... ... : ... .. . ... ... ... : ... .. . ... ... ... : ... .. . ... ... ...
ROW 76 : ... .. . ... ... ... : ... .. . ... ... ... : ... .. . ... ... ... : --- .. . ... ... ... : ... .. . ... ... ... : E-4 04 . P7D ... ... : E-4 04 . P86 ... ... : ... .. . ... ... ... : D-4 04 . ... ... ... : C#4 04 . P83 ... ... : ... .. . ... ... ... : ... .. . ... ... ... : ... .. . ... ... ...
ROW 77 : ... .. . ... ... ... : ... .. . ... ... ... : ... .. . ... ... ... : D-# 00 A ... ... ... : ... .. . ... ... ... : D#4 04 . P7C ... ... : D#4 04 . ... ... ... : ... .. . ... ... ... : C#4 04 . ... ... ... : C-4 04 . P84 ... ... : ... .. . ... ... ... : ... .. . ... ... ... : ... .. . ... ... ...
ROW 78 : ... .. . ... ... ... : ... .. . ... ... ... : ... .. . ... ... ... : E-# 00 4 ... ... ... : ... .. . ... ... ... : D-4 04 . P7B ... ... : D-4 04 . P85 ... ... : ... .. . ... ... ... : C-4 04 . P83 ... ... : B-3 04 . P86 ... ... : ... .. . ... ... ... : ... .. . ... ... ... : ... .. . ... ... ...
ROW 79 : ... .. . ... ... ... : ... .. . ... ... ... : ... .. . ... ... ... : D-# 00 2 ... ... ... : ... .. . ... ... ... : C#4 04 . P7C ... ... : C#4 04 . ... ... ... : ... .. . ... ... ... : B-3 04 . P85 ... ... : A-3 04 4 P7E ... ... : ... .. . ... ... ... : ... .. . ... ... ... : ... .. . ... ... ...
ROW 7A : ... .. . ... ... ... : ... .. . ... ... ... : ... .. . ... ... ... : ... .. 1 ... ... ... : ... .. . ... ... ... : C-4 04 . P7D ... ... : C-4 04 . P86 ... ... : ... .. . ... ... ... : A-3 04 . P7D ... ... : G#3 04 . P82 ... ... : ... .. . ... ... ... : ... .. . ... ... ... : ... .. . ... ... ...
ROW 7B : ... .. . ... ... ... : ... .. . ... ... ... : ... .. . ... ... ... : ... .. . ... ... ... : ... .. . ... ... ... : B-3 04 . P7F ... ... : A#3 04 . P7D ... ... : ... .. . ... ... ... : G#3 04 . P81 ... ... : F#3 04 . P7D ... ... : ... .. . ... ... ... : ... .. . ... ... ... : ... .. . ... ... ...
ROW 7C : ... .. . ... ... ... : ... .. . ... ... ... : ... .. . ... ... ... : --- .. . ... ... ... : ... .. . ... ... ... : A#3 04 . P82 ... ... : A-3 04 . P81 ... ... : ... .. . ... ... ... : F#3 04 . P7C ... ... : F-3 04 . P82 ... ... : ... .. . ... ... ... : ... .. . ... ... ... : ... .. . ... ... ...
ROW 7D : ... .. . ... ... ... : ... .. . ... ... ... : ... .. . ... ... ... : ... .. . ... ... ... : ... .. . ... ... ... : A-3 04 . P85 ... ... : G#3 04 . P84 ... ... : ... .. . ... ... ... : F-3 04 6 P82 ... ... : D#3 04 3 P81 ... ... : ... .. . ... ... ... : ... .. . ... ... ... : ... .. . ... ... ...
ROW 7E : ... .. . ... ... ... : C-4 02 . P80 ... ... : C#4 00 . P7F ... ... : 9-# 00 F ... ... ... : C#1 12 . ... ... ... : G#1 04 F P80 ... ... : F#3 04 . P7E ... ... : G-1 04 9 ... ... ... : A-1 04 9 ... ... ... : C#3 04 . ... ... ... : ... .. . ... ... ... : ... .. . ... ... ... : ... .. . ... ... ...
ROW 7F : ... .. . ... ... ... : F-3 02 . ... ... ... : F#3 00 . P83 ... ... : 2-# 00 7 ... ... ... : ... .. . ... ... ... : ... .. . ... ... ... : E-3 04 . P7D ... ... : ... .. . ... ... ... : ... .. . ... ... ... : B-2 04 . P82 ... ... : ... .. . ... ... ... : ... .. . ... ... ... : ... .. . ... ... ...
ROW 80 : ... .. . ... ... ... : A#2 02 . P81 ... ... : C#3 00 . P89 ... ... : 6-# 00 C ... ... ... : ... .. . ... ... ... : ... .. . ... ... ... : D-3 04 . ... ... ... : ... .. . ... ... ... : ... .. . ... ... ... : G#2 04 . P80 ... ... : ... .. . ... ... ... : ... .. . ... ... ... : ... .. . ... ... ...
ROW 81 : ... .. . ... ... ... : D#2 02 . ... ... ... : A#2 00 . P75 ... ... : 7-# 00 8 ... ... ... : ... .. . ... ... ... : ... .. . ... ... ... : C#3 04 . P83 ... ... : ... .. . ... ... ... : ... .. . ... ... ... : F-2 04 2 ... ... ... : ... .. . ... ... ... : ... .. . ... ... ... : ... .. . ... ... ...
ROW 82 : ... .. . ... ... ... : G#1 02 . ... ... ... : G-2 00 . P70 ... ... : 8-# 00 7 ... ... ... : ... .. . ... ... ... : ... .. . ... ... ... : A#2 04 . P7E ... ... : ... .. 8 ... ... ... : ... .. . ... ... ... : C#2 04 . ... ... ... : ... .. . ... ... ... : ... .. . ... ... ... : ... .. . ... ... ...
ROW 83 : ... .. . ... ... ... : C#1 02 . ... ... ... : E-2 00 . P7C ... ... : ... .. 6 ... ... ... : ... .. . ... ... ... : ... .. . ... ... ... : G#2 04 . P83 ... ... : ... .. . ... ... ... : ... .. . ... ... ... : G#1 04 . P7F ... ... : ... .. . ... ... ... : ... .. . ... ... ... : ... .. . ... ... ...
ROW 84 : ... .. . ... ... ... : ... .. . ... ... ... : --- .. . ... ... ... : ... .. . ... ... ... : ... .. . ... ... ... : G#2 04 . ... ... ... : E-2 04 . P80 ... ... : G#2 04 . P82 ... ... : G#2 04 . P7F ... ... : D-1 04 . P81 ... ... : ... .. . ... ... ... : ... .. . ... ... ... : ... .. . ... ... ...
ROW 85 : ... .. . ... ... ... : ... .. . ... ... ... : ... .. . ... ... ... : ... .. 5 ... ... ... : ... .. . ... ... ... : ... .. . ... ... ... : C-2 04 . P7F ... ... : ... .. . ... ... ... : ... .. . ... ... ... : D#0 04 1 ... ... ... : ... .. . ... ... ... : ... .. . ... ... ... : ... .. . ... ... ...
ROW 86 : ... .. . ... ... ... : ... .. . ... ... ... : ... .. . ... ... ... : ... .. . ... ... ... : ... .. . ... ... ... : ... .. . ... ... ... : G#1 04 . P81 ... ... : ... .. 7 ... ... ... : ... .. 8 ... ... ... : --- .. . P7F ... ... : ... .. . ... ... ... : ... .. . ... ... ... : ... .. . ... ... ...
ROW 87 : ... .. . ... ... ... : ... .. . ... ... ... : ... .. . ... ... ... : ... .. 4 ... ... ... : ... .. . ... ... ... : ... .. . ... ... ... : C#1 04 . ... ... ... : ... .. . ... ... ... : ... .. . ... ... ... : D#7 04 . P81 ... ... : ... .. . ... ... ... : ... .. . ... ... ... : ... .. . ... ... ...
ROW 88 : ... .. . ... ... ... : ... .. . ... ... ... : ... .. . ... ... ... : ... .. . ... ... ... : ... .. . ... ... ... : ... .. . ... ... ... : C-0 04 . ... ... ... : ... .. . ... ... ... : ... .. . ... ... ... : ... .. . ... ... ... : ... .. . ... ... ... : ... .. . ... ... ... : ... .. . ... ... ...
ROW 89 : ... .. . ... ... ... : ... .. . ... ... ... : ... .. . ... ... ... : ... .. 3 ... ... ... : ... .. . ... ... ... : ... .. . ... ... ... : D#7 04 . ... ... ... : ... .. . ... ... ... : ... .. . ... ... ... : --- .. . ... ... ... : ... .. . ... ... ... : ... .. . ... ... ... : ... .. . ... ... ...
ROW 8A : ... .. . ... ... ... : ... .. . ... ... ... : ... .. . ... ... ... : D-# 00 A ... ... ... : ... .. . ... ... ... : G#1 04 . ... ... ... : --- .. . ... ... ... : G-1 04 6 P80 ... ... : A-1 04 . P82 ... ... : ... .. . P80 ... ... : ... .. . ... ... ... : ... .. . ... ... ... : ... .. . ... ... ...
ROW 8B : ... .. . ... ... ... : ... .. . ... ... ... : ... .. . ... ... ... : E-# 00 4 ... ... ... : ... .. . ... ... ... : ... .. . ... ... ... : ... .. . P80 ... ... : ... .. . ... ... ... : ... .. . ... ... ... : ... .. . ... ... ... : ... .. . ... ... ... : ... .. . ... ... ... : ... .. . ... ... ...
ROW 8C : ... .. . ... ... ... : ... .. . ... ... ... : ... .. . ... ... ... : D-# 00 2 ... ... ... : ... .. . ... ... ... : ... .. . ... ... ... : ... .. . ... ... ... : ... .. . ... ... ... : ... .. . ... ... ... : ... .. . ... ... ... : ... .. . ... ... ... : ... .. . ... ... ... : ... .. . ... ... ...
ROW 8D : ... .. . ... ... ... : ... .. . ... ... ... : ... .. . ... ... ... : ... .. 1 ... ... ... : ... .. . ... ... ... : ... .. . ... ... ... : ... .. . ... ... ... : ... .. . ... ... ... : ... .. . ... ... ... : ... .. . ... ... ... : ... .. . ... ... ... : ... .. . ... ... ... : ... .. . ... ... ...
ROW 8E : ... .. . ... ... ... : ... .. . ... ... ... : ... .. . ... ... ... : ... .. . ... ... ... : ... .. . ... ... ... : ... .. . ... ... ... : ... .. . ... ... ... : ... .. 5 ... ... ... : ... .. 7 ... ... ... : ... .. . ... ... ... : ... .. . ... ... ... : ... .. . ... ... ... : ... .. . ... ... ...
ROW 8F : ... .. . ... ... ... : ... .. . ... ... ... : ... .. . ... ... ... : --- .. . ... ... ... : ... .. . ... ... ... : ... .. . ... ... ... : ... .. . ... ... ... : ... .. . ... ... ... : ... .. . ... ... ... : ... .. . ... ... ... : ... .. . ... ... ... : ... .. . ... ... ... : ... .. . ... ... ...
ROW 90 : ... .. . ... ... ... : ... .. . ... ... ... : ... .. . ... ... ... : D-# 00 A ... ... ... : ... .. . ... ... ... : G#2 04 . ... ... ... : ... .. . ... ... ... : G#2 04 . P82 ... ... : G#2 04 . P7F ... ... : ... .. . ... ... ... : ... .. . ... ... ... : ... .. . ... ... ... : ... .. . ... ... ...
ROW 91 : ... .. . ... ... ... : ... .. . ... ... ... : ... .. . ... ... ... : E-# 00 4 ... ... ... : ... .. . ... ... ... : ... .. . ... ... ... : ... .. . ... ... ... : ... .. . ... ... ... : ... .. . ... ... ... : ... .. . ... ... ... : ... .. . ... ... ... : ... .. . ... ... ... : ... .. . ... ... ...
ROW 92 : ... .. . ... ... ... : ... .. . ... ... ... : ... .. . ... ... ... : D-# 00 2 ... ... ... : ... .. . ... ... ... : ... .. . ... ... ... : ... .. . ... ... ... : ... .. 4 ... ... ... : ... .. . ... ... ... : ... .. . ... ... ... : ... .. . ... ... ... : ... .. . ... ... ... : ... .. . ... ... ...
ROW 93 : ... .. . ... ... ... : ... .. . ... ... ... : ... .. . ... ... ... : ... .. 1 ... ... ... : ... .. . ... ... ... : ... .. . ... ... ... : ... .. . ... ... ... : ... .. . ... ... ... : ... .. . ... ... ... : ... .. . ... ... ... : ... .. . ... ... ... : ... .. . ... ... ... : ... .. . ... ... ...
ROW 94 : ... .. . ... ... ... : ... .. . ... ... ... : ... .. . ... ... ... : ... .. . ... ... ... : ... .. . ... ... ... : ... .. . ... ... ... : ... .. . ... ... ... : ... .. . ... ... ... : ... .. . ... ... ... : ... .. . ... ... ... : ... .. . ... ... ... : ... .. . ... ... ... : ... .. . ... ... ...
ROW 95 : ... .. . ... ... ... : ... .. . ... ... ... : ... .. . ... ... ... : --- .. . ... ... ... : ... .. . ... ... ... : ... .. . ... ... ... : ... .. . ... ... ... : ... .. . ... ... ... : ... .. . ... ... ... : ... .. . ... ... ... : ... .. . ... ... ... : ... .. . ... ... ... : ... .. . ... ... ...
ROW 96 : ... .. . ... ... ... : ... .. . ... ... ... : ... .. . ... ... ... : ... .. . ... ... ... : ... .. . ... ... ... : ... .. . ... ... ... : ... .. . ... ... ... : ... .. 3 ... ... ... : ... .. 6 ... ... ... : ... .. . ... ... ... : ... .. . ... ... ... : ... .. . ... ... ... : ... .. . ... ... ...
ROW 97 : ... .. . ... ... ... : C-4 02 . P80 ... ... : F#3 00 . P78 ... ... : 1-# 00 F ... ... ... : C-1 12 . ... ... ... : B-4 0C 7 P7C ... ... : ... .. . ... ... ... : --- .. . ... ... ... : A#3 0C 1 P85 ... ... : ... .. . ... ... ... : ... .. . ... ... ... : ... .. . ... ... ... : ... .. . ... ... ...
ROW 98 : ... .. . ... ... ... : F-3 02 . ... ... ... : C#3 00 . P7E ... ... : 2-# 00 7 ... ... ... : ... .. . ... ... ... : A#4 0C . P79 ... ... : ... .. . ... ... ... : ... .. . P80 ... ... : G-3 0C . ... ... ... : ... .. . ... ... ... : ... .. . ... ... ... : ... .. . ... ... ... : ... .. . ... ... ...
ROW 99 : ... .. . ... ... ... : A#2 02 . P81 ... ... : A-2 00 . P86 ... ... : 1-# 00 4 ... ... ... : ... .. . ... ... ... : A-4 0C . P78 ... ... : ... .. . ... ... ... : ... .. . ... ... ... : D#3 0C . P82 ... ... : ... .. . ... ... ... : ... .. . ... ... ... : ... .. . ... ... ... : ... .. . ... ... ...
ROW 9A : ... .. . ... ... ... : D#2 02 . ... ... ... : --- .. . ... ... ... : ... .. 2 ... ... ... : ... .. . ... ... ... : G#4 0C . ... ... ... : ... .. . ... ... ... : ... .. . ... ... ... : A#2 0C . P7F ... ... : ... .. . ... ... ... : ... .. . ... ... ... : ... .. . ... ... ... : ... .. . ... ... ...
ROW 9B : ... .. . ... ... ... : G#1 02 . ... ... ... : ... .. . ... ... ... : ... .. 1 ... ... ... : ... .. . ... ... ... : G-4 0C . ... ... ... : ... .. . ... ... ... : ... .. . ... ... ... : E-2 0C . P81 ... ... : ... .. . ... ... ... : ... .. . ... ... ... : ... .. . ... ... ... : ... .. . ... ... ...
ROW 9C : ... .. . ... ... ... : C#1 02 . ... ... ... : ... .. . ... ... ... : --- .. . ... ... ... : ... .. . ... ... ... : --- .. . ... ... ... : ... .. . ... ... ... : ... .. . ... ... ... : --- .. . ... ... ... : ... .. . ... ... ... : ... .. . ... ... ... : ... .. . ... ... ... : ... .. . ... ... ...
ROW 9D : ... .. . ... ... ... : ... .. . ... ... ... : ... .. . ... ... ... : ... .. . ... ... ... : ... .. . ... ... ... : B-4 0C . P7C ... ... : ... .. . ... ... ... : ... .. . ... ... ... : A#3 0C . P85 ... ... : ... .. . ... ... ... : ... .. . ... ... ... : ... .. . ... ... ... : ... .. . ... ... ...
ROW 9E : ... .. . ... ... ... : ... .. . ... ... ... : ... .. . ... ... ... : ... .. . ... ... ... : ... .. . ... ... ... : A#4 0C . P79 ... ... : ... .. . ... ... ... : ... .. . ... ... ... : G-3 0C . ... ... ... : ... .. . ... ... ... : ... .. . ... ... ... : ... .. . ... ... ... : ... .. . ... ... ...
ROW 9F : ... .. . ... ... ... : ... .. . ... ... ... : ... .. . ... ... ... : ... .. . ... ... ... : ... .. . ... ... ... : A-4 0C . P78 ... ... : ... .. . ... ... ... : ... .. . ... ... ... : --- .. . ... ... ... : ... .. . ... ... ... : ... .. . ... ... ... : ... .. . ... ... ... : ... .. . ... ... ...
ROW A0 : ... .. . ... ... ... : ... .. . ... ... ... : ... .. . ... ... ... : ... .. . ... ... ... : ... .. . ... ... ... : G#4 0C . ... ... ... : ... .. . ... ... ... : ... .. . ... ... ... : ... .. . P80 ... ... : ... .. . ... ... ... : ... .. . ... ... ... : ... .. . ... ... ... : ... .. . ... ... ...
ROW A1 : ... .. . ... ... ... : ... .. . ... ... ... : ... .. . ... ... ... : ... .. . ... ... ... : ... .. . ... ... ... : G-4 0C . ... ... ... : ... .. . ... ... ... : ... .. . ... ... ... : ... .. . ... ... ... : ... .. . ... ... ... : ... .. . ... ... ... : ... .. . ... ... ... : ... .. . ... ... ...
ROW A2 : ... .. . ... ... ... : ... .. . ... ... ... : ... .. . ... ... ... : ... .. . ... ... ... : ... .. . ... ... ... : --- .. . ... ... ... : ... .. . ... ... ... : ... .. . ... ... ... : ... .. . ... ... ... : ... .. . ... ... ... : ... .. . ... ... ... : ... .. . ... ... ... : ... .. . ... ... ...
ROW A3 : ... .. . ... ... ... : ... .. . ... ... ... : ... .. . ... ... ... : D-# 00 A ... ... ... : ... .. . ... ... ... : B-2 05 A P80 ... ... : A#2 05 . P7E ... ... : B-2 05 9 P7E ... ... : G#2 05 9 P81 ... ... : ... .. . ... ... ... : ... .. . ... ... ... : ... .. . ... ... ... : ... .. . ... ... ...
ROW A4 : ... .. . ... ... ... : ... .. . ... ... ... : ... .. . ... ... ... : E-# 00 4 ... ... ... : ... .. . ... ... ... : ... .. . ... ... ... : B-2 05 . P82 ... ... : ... .. . ... ... ... : ... .. . ... ... ... : ... .. . ... ... ... : ... .. . ... ... ... : ... .. . ... ... ... : ... .. . ... ... ...
ROW A5 : ... .. . ... ... ... : ... .. . ... ... ... : ... .. . ... ... ... : D-# 00 2 ... ... ... : ... .. . ... ... ... : ... .. . ... ... ... : ... .. . P83 ... ... : ... .. . ... ... ... : ... .. . ... ... ... : ... .. . ... ... ... : ... .. . ... ... ... : ... .. . ... ... ... : ... .. . ... ... ...
ROW A6 : ... .. . ... ... ... : ... .. . ... ... ... : ... .. . ... ... ... : ... .. 1 ... ... ... : ... .. . ... ... ... : ... .. . ... ... ... : A#2 05 . P7E ... ... : ... .. . ... ... ... : ... .. . ... ... ... : ... .. . ... ... ... : ... .. . ... ... ... : ... .. . ... ... ... : ... .. . ... ... ...
ROW A7 : ... .. . ... ... ... : ... .. . ... ... ... : ... .. . ... ... ... : ... .. . ... ... ... : ... .. . ... ... ... : --- .. . ... ... ... : --- .. . ... ... ... : --- .. . ... ... ... : --- .. . ... ... ... : ... .. . ... ... ... : ... .. . ... ... ... : ... .. . ... ... ... : ... .. . ... ... ...
ROW A8 : ... .. . ... ... ... : ... .. . ... ... ... : ... .. . ... ... ... : --- .. . ... ... ... : ... .. . ... ... ... : ... .. . ... ... ... : ... .. . P80 ... ... : ... .. . P80 ... ... : ... .. . P80 ... ... : ... .. . ... ... ... : ... .. . ... ... ... : ... .. . ... ... ... : ... .. . ... ... ...
ROW A9 : ... .. . ... ... ... : ... .. . ... ... ... : ... .. . ... ... ... : D-# 00 A ... ... ... : ... .. . ... ... ... : B-2 05 4 ... ... ... : B-2 05 4 P83 ... ... : B-2 05 3 P7E ... ... : G#2 05 3 P81 ... ... : ... .. . ... ... ... : ... .. . ... ... ... : ... .. . ... ... ... : ... .. . ... ... ...
ROW AA : ... .. . ... ... ... : ... .. . ... ... ... : ... .. . ... ... ... : E-# 00 4 ... ... ... : ... .. . ... ... ... : ... .. . ... ... ... : A#2 05 . P7E ... ... : ... .. . ... ... ... : ... .. . ... ... ... : ... .. . ... ... ... : ... .. . ... ... ... : ... .. . ... ... ... : ... .. . ... ... ...
ROW AB : ... .. . ... ... ... : ... .. . ... ... ... : ... .. . ... ... ... : D-# 00 2 ... ... ... : ... .. . ... ... ... : ... .. . ... ... ... : ... .. . P7F ... ... : ... .. . ... ... ... : ... .. . ... ... ... : ... .. . ... ... ... : ... .. . ... ... ... : ... .. . ... ... ... : ... .. . ... ... ...
ROW AC : ... .. . ... ... ... : ... .. . ... ... ... : ... .. . ... ... ... : ... .. 1 ... ... ... : ... .. . ... ... ... : ... .. . ... ... ... : ... .. . P7E ... ... : ... .. . ... ... ... : ... .. . ... ... ... : ... .. . ... ... ... : ... .. . ... ... ... : ... .. . ... ... ... : ... .. . ... ... ...
ROW AD : ... .. . ... ... ... : ... .. . ... ... ... : ... .. . ... ... ... : ... .. . ... ... ... : ... .. . ... ... ... : ... .. . ... ... ... : B-2 05 . P82 ... ... : ... .. 2 ... ... ... : ... .. . ... ... ... : ... .. . ... ... ... : ... .. . ... ... ... : ... .. . ... ... ... : ... .. . ... ... ...
ROW AE : ... .. . ... ... ... : ... .. . ... ... ... : ... .. . ... ... ... : --- .. . ... ... ... : ... .. . ... ... ... : --- .. . ... ... ... : --- .. . ... ... ... : --- .. . ... ... ... : --- .. . ... ... ... : ... .. . ... ... ... : ... .. . ... ... ... : ... .. . ... ... ... : ... .. . ... ... ...
ROW AF : ... .. . ... ... ... : ... .. . ... ... ... : ... .. . ... ... ... : ... .. . ... ... ... : ... .. . ... ... ... : ... .. . ... ... ... : ... .. . P80 ... ... : ... .. . P80 ... ... : ... .. . P80 ... ... : ... .. . ... ... ... : ... .. . ... ... ... : ... .. . ... ... ... : ... .. . ... ... ...
ROW B0 : ... .. . ... ... ... : C-4 02 . P80 ... ... : C#4 00 . P7F ... ... : 9-# 00 F ... ... ... : C#1 12 . ... ... ... : C#3 05 A ... ... ... : C#3 05 A P83 ... ... : C#3 05 9 P7E ... ... : B-2 05 9 P81 ... ... : ... .. . ... ... ... : ... .. . ... ... ... : ... .. . ... ... ... : ... .. . ... ... ...
ROW B1 : ... .. . ... ... ... : F-3 02 . ... ... ... : F#3 00 . P83 ... ... : 2-# 00 7 ... ... ... : ... .. . ... ... ... : ... .. . ... ... ... : ... .. . P82 ... ... : ... .. . ... ... ... : ... .. . ... ... ... : ... .. . ... ... ... : ... .. . ... ... ... : ... .. . ... ... ... : ... .. . ... ... ...
ROW B2 : ... .. . ... ... ... : A#2 02 . P81 ... ... : C#3 00 . P89 ... ... : 6-# 00 C ... ... ... : ... .. . ... ... ... : ... .. . ... ... ... : ... .. . P83 ... ... : ... .. . ... ... ... : ... .. . ... ... ... : ... .. . ... ... ... : ... .. . ... ... ... : ... .. . ... ... ... : ... .. . ... ... ...
ROW B3 : ... .. . ... ... ... : D#2 02 . ... ... ... : A#2 00 . P75 ... ... : 7-# 00 8 ... ... ... : ... .. . ... ... ... : ... .. . ... ... ... : C-3 05 . P7E ... ... : ... .. . ... ... ... : ... .. . ... ... ... : ... .. . ... ... ... : ... .. . ... ... ... : ... .. . ... ... ... : ... .. . ... ... ...
ROW B4 : ... .. . ... ... ... : G#1 02 . ... ... ... : G-2 00 . P70 ... ... : 8-# 00 7 ... ... ... : ... .. . ... ... ... : --- .. . ... ... ... : --- .. . ... ... ... : --- .. . ... ... ... : --- .. . ... ... ... : ... .. . ... ... ... : ... .. . ... ... ... : ... .. . ... ... ... : ... .. . ... ... ...
ROW B5 : ... .. . ... ... ... : C#1 02 . ... ... ... : E-2 00 . P7C ... ... : ... .. 6 ... ... ... : ... .. . ... ... ... : ... .. . ... ... ... : ... .. . P80 ... ... : ... .. . P80 ... ... : ... .. . P80 ... ... : ... .. . ... ... ... : ... .. . ... ... ... : ... .. . ... ... ... : ... .. . ... ... ...
ROW B6 : ... .. . ... ... ... : ... .. . ... ... ... : --- .. . ... ... ... : ... .. . ... ... ... : ... .. . ... ... ... : C#3 05 4 ... ... ... : C#3 05 4 P83 ... ... : C#3 05 3 P7E ... ... : B-2 05 3 P81 ... ... : ... .. . ... ... ... : ... .. . ... ... ... : ... .. . ... ... ... : ... .. . ... ... ...
ROW B7 : ... .. . ... ... ... : ... .. . ... ... ... : ... .. . ... ... ... : ... .. 5 ... ... ... : ... .. . ... ... ... : ... .. . ... ... ... : C-3 05 . P7E ... ... : ... .. . ... ... ... : ... .. . ... ... ... : ... .. . ... ... ... : ... .. . ... ... ... : ... .. . ... ... ... : ... .. . ... ... ...
ROW B8 : ... .. . ... ... ... : ... .. . ... ... ... : ... .. . ... ... ... : ... .. . ... ... ... : ... .. . ... ... ... : ... .. . ... ... ... : ... .. . ... ... ... : ... .. . ... ... ... : ... .. . ... ... ... : ... .. . ... ... ... : ... .. . ... ... ... : ... .. . ... ... ... : ... .. . ... ... ...
ROW B9 : ... .. . ... ... ... : ... .. . ... ... ... : ... .. . ... ... ... : ... .. 4 ... ... ... : ... .. . ... ... ... : ... .. . ... ... ... : C#3 05 . P83 ... ... : ... .. . ... ... ... : ... .. . ... ... ... : ... .. . ... ... ... : ... .. . ... ... ... : ... .. . ... ... ... : ... .. . ... ... ...
ROW BA : ... .. . ... ... ... : ... .. . ... ... ... : ... .. . ... ... ... : ... .. . ... ... ... : ... .. . ... ... ... : --- .. . ... ... ... : --- .. . ... ... ... : --- .. . ... ... ... : --- .. . ... ... ... : ... .. . ... ... ... : ... .. . ... ... ... : ... .. . ... ... ... : ... .. . ... ... ...
ROW BB : ... .. . ... ... ... : ... .. . ... ... ... : ... .. . ... ... ... : ... .. 3 ... ... ... : ... .. . ... ... ... : ... .. . ... ... ... : ... .. . P80 ... ... : ... .. . P80 ... ... : ... .. . P80 ... ... : ... .. . ... ... ... : ... .. . ... ... ... : ... .. . ... ... ... : ... .. . ... ... ...
ROW BC : ... .. . ... ... ... : ... .. . ... ... ... : ... .. . ... ... ... : D-# 00 A ... ... ... : ... .. . ... ... ... : G#3 05 A ... ... ... : G#3 05 A P84 ... ... : G#3 05 9 P7E ... ... : D#3 05 9 P81 ... ... : ... .. . ... ... ... : ... .. . ... ... ... : ... .. . ... ... ... : ... .. . ... ... ...
ROW BD : ... .. . ... ... ... : ... .. . ... ... ... : ... .. . ... ... ... : E-# 00 4 ... ... ... : ... .. . ... ... ... : ... .. . ... ... ... : ... .. . P83 ... ... : ... .. . ... ... ... : ... .. . ... ... ... : ... .. . ... ... ... : ... .. . ... ... ... : ... .. . ... ... ... : ... .. . ... ... ...
ROW BE : ... .. . ... ... ... : ... .. . ... ... ... : ... .. . ... ... ... : D-# 00 2 ... ... ... : ... .. . ... ... ... : ... .. . ... ... ... : ... .. . P82 ... ... : ... .. . ... ... ... : ... .. . ... ... ... : ... .. . ... ... ... : ... .. . ... ... ... : ... .. . ... ... ... : ... .. . ... ... ...
ROW BF : ... .. . ... ... ... : ... .. . ... ... ... : ... .. . ... ... ... : ... .. 1 ... ... ... : ... .. . ... ... ... : ... .. . ... ... ... : ... .. . P83 ... ... : ... .. . ... ... ... : ... .. . ... ... ... : ... .. . ... ... ... : ... .. . ... ... ... : ... .. . ... ... ... : ... .. . ... ... ...
ROW C0 : ... .. . ... ... ... : ... .. . ... ... ... : ... .. . ... ... ... : ... .. . ... ... ... : ... .. . ... ... ... : --- .. . ... ... ... : --- .. . ... ... ... : --- .. . ... ... ... : --- .. . ... ... ... : ... .. . ... ... ... : ... .. . ... ... ... : ... .. . ... ... ... : ... .. . ... ... ...
ROW C1 : ... .. . ... ... ... : ... .. . ... ... ... : ... .. . ... ... ... : --- .. . ... ... ... : ... .. . ... ... ... : ... .. . ... ... ... : ... .. . P80 ... ... : ... .. . P80 ... ... : ... .. . P80 ... ... : ... .. . ... ... ... : ... .. . ... ... ... : ... .. . ... ... ... : ... .. . ... ... ...
ROW C2 : ... .. . ... ... ... : ... .. . ... ... ... : ... .. . ... ... ... : D-# 00 A ... ... ... : ... .. . ... ... ... : G#3 05 4 ... ... ... : G#3 05 . P82 ... ... : G#3 05 . P7E ... ... : D#3 05 . P81 ... ... : ... .. . ... ... ... : ... .. . ... ... ... : ... .. . ... ... ... : ... .. . ... ... ...
ROW C3 : ... .. . ... ... ... : ... .. . ... ... ... : ... .. . ... ... ... : E-# 00 4 ... ... ... : ... .. . ... ... ... : ... .. . ... ... ... : ... .. . P83 ... ... : ... .. . ... ... ... : ... .. . ... ... ... : ... .. . ... ... ... : ... .. . ... ... ... : ... .. . ... ... ... : ... .. . ... ... ...
ROW C4 : ... .. . ... ... ... : ... .. . ... ... ... : ... .. . ... ... ... : D-# 00 2 ... ... ... : ... .. . ... ... ... : ... .. . ... ... ... : ... .. . P84 ... ... : ... .. . ... ... ... : ... .. . ... ... ... : ... .. . ... ... ... : ... .. . ... ... ... : ... .. . ... ... ... : ... .. . ... ... ...
ROW C5 : ... .. . ... ... ... : ... .. . ... ... ... : ... .. . ... ... ... : ... .. 1 ... ... ... : ... .. . ... ... ... : ... .. . ... ... ... : ... .. . ... ... ... : ... .. . ... ... ... : ... .. . ... ... ... : ... .. . ... ... ... : ... .. . ... ... ... : ... .. . ... ... ... : ... .. . ... ... ...
ROW C6 : ... .. . ... ... ... : ... .. . ... ... ... : ... .. . ... ... ... : ... .. . ... ... ... : ... .. . ... ... ... : ... .. . ... ... ... : ... .. . P83 ... ... : ... .. 8 ... ... ... : ... .. . ... ... ... : ... .. . ... ... ... : ... .. . ... ... ... : ... .. . ... ... ... : ... .. . ... ... ...
ROW C7 : ... .. . ... ... ... : ... .. . ... ... ... : ... .. . ... ... ... : --- .. . ... ... ... : ... .. . ... ... ... : --- .. . ... ... ... : --- .. . ... ... ... : --- .. . ... ... ... : --- .. . ... ... ... : ... .. . ... ... ... : ... .. . ... ... ... : ... .. . ... ... ... : ... .. . ... ... ...
ROW C8 : ... .. . ... ... ... : ... .. . ... ... ... : ... .. . ... ... ... : ... .. . ... ... ... : ... .. . ... ... ... : ... .. . ... ... ... : ... .. . P80 ... ... : ... .. . P80 ... ... : ... .. . P80 ... ... : ... .. . ... ... ... : ... .. . ... ... ... : ... .. . ... ... ... : ... .. . ... ... ...
ROW C9 : ... .. . ... ... ... : C-4 02 . P80 ... ... : F#3 00 . P78 ... ... : 1-# 00 F ... ... ... : C-1 12 . ... ... ... : G#1 06 F ... ... ... : G-1 06 F ... ... ... : ... .. . ... ... ... : G#1 06 E P7F ... ... : G#2 06 B P81 ... ... : ... .. . ... ... ... : ... .. . ... ... ... : ... .. . ... ... ...
ROW CA : ... .. . ... ... ... : F-3 02 . ... ... ... : C#3 00 . P7E ... ... : 2-# 00 7 ... ... ... : ... .. . ... ... ... : ... .. . ... ... ... : G#1 06 . P81 ... ... : ... .. . ... ... ... : ... .. . ... ... ... : ... .. . ... ... ... : ... .. . ... ... ... : ... .. . ... ... ... : ... .. . ... ... ...
ROW CB : ... .. . ... ... ... : A#2 02 . P81 ... ... : A-2 00 . P86 ... ... : 1-# 00 4 ... ... ... : ... .. . ... ... ... : ... .. . ... ... ... : ... .. . P80 ... ... : ... .. . ... ... ... : ... .. . ... ... ... : ... .. . ... ... ... : ... .. . ... ... ... : ... .. . ... ... ... : ... .. . ... ... ...
ROW CC : ... .. . ... ... ... : D#2 02 . ... ... ... : --- .. . ... ... ... : ... .. 2 ... ... ... : ... .. . ... ... ... : G#1 07 . ... ... ... : G#1 07 . P81 ... ... : ... .. . ... ... ... : G#1 07 . ... ... ... : G#2 07 . ... ... ... : ... .. . ... ... ... : ... .. . ... ... ... : ... .. . ... ... ...
ROW CD : ... .. . ... ... ... : G#1 02 . ... ... ... : ... .. . ... ... ... : ... .. 1 ... ... ... : ... .. . ... ... ... : ... .. . ... ... ... : G-1 07 . P80 ... ... : ... .. . ... ... ... : ... .. . ... ... ... : ... .. A ... ... ... : ... .. . ... ... ... : ... .. . ... ... ... : ... .. . ... ... ...
ROW CE : ... .. . ... ... ... : C#1 02 . ... ... ... : ... .. . ... ... ... : --- .. . ... ... ... : ... .. . ... ... ... : ... .. . ... ... ... : G#1 07 . P81 ... ... : ... .. . ... ... ... : ... .. . ... ... ... : ... .. . ... ... ... : ... .. . ... ... ... : ... .. . ... ... ... : ... .. . ... ... ...
ROW CF : ... .. . ... ... ... : ... .. . ... ... ... : ... .. . ... ... ... : ... .. . ... ... ... : ... .. . ... ... ... : G#1 08 . ... ... ... : G#1 08 . P80 ... ... : ... .. . ... ... ... : G#1 08 . ... ... ... : G#2 08 . ... ... ... : ... .. . ... ... ... : ... .. . ... ... ... : ... .. . ... ... ...
ROW D0 : ... .. . ... ... ... : ... .. . ... ... ... : ... .. . ... ... ... : ... .. . ... ... ... : ... .. . ... ... ... : ... .. . ... ... ... : ... .. . P81 ... ... : ... .. . ... ... ... : ... .. . ... ... ... : ... .. . ... ... ... : ... .. . ... ... ... : ... .. . ... ... ... : ... .. . ... ... ...
ROW D1 : ... .. . ... ... ... : ... .. . ... ... ... : ... .. . ... ... ... : ... .. . ... ... ... : ... .. . ... ... ... : ... .. . ... ... ... : G-1 08 . P80 ... ... : ... .. . ... ... ... : ... .. D ... ... ... : ... .. 9 ... ... ... : ... .. . ... ... ... : ... .. . ... ... ... : ... .. . ... ... ...
ROW D2 : ... .. . ... ... ... : ... .. . ... ... ... : ... .. . ... ... ... : ... .. . ... ... ... : ... .. . ... ... ... : G#1 09 . ... ... ... : G#1 09 . P81 ... ... : ... .. . ... ... ... : G#1 09 . ... ... ... : G#2 09 . ... ... ... : ... .. . ... ... ... : ... .. . ... ... ... : ... .. . ... ... ...
ROW D3 : ... .. . ... ... ... : ... .. . ... ... ... : ... .. . ... ... ... : ... .. . ... ... ... : ... .. . ... ... ... : ... .. . ... ... ... : ... .. . P80 ... ... : ... .. . ... ... ... : ... .. . ... ... ... : ... .. . ... ... ... : ... .. . ... ... ... : ... .. . ... ... ... : ... .. . ... ... ...
ROW D4 : ... .. . ... ... ... : ... .. . ... ... ... : ... .. . ... ... ... : ... .. . ... ... ... : ... .. . ... ... ... : ... .. . ... ... ... : ... .. . P81 ... ... : ... .. . ... ... ... : ... .. . ... ... ... : ... .. . ... ... ... : ... .. . ... ... ... : ... .. . ... ... ... : ... .. . ... ... ...
ROW D5 : ... .. . ... ... ... : ... .. . ... ... ... : ... .. . ... ... ... : D-# 00 A ... ... ... : ... .. . ... ... ... : ... .. . ... ... ... : G-1 09 . P80 ... ... : ... .. . ... ... ... : ... .. . ... ... ... : ... .. 8 ... ... ... : ... .. . ... ... ... : ... .. . ... ... ... : ... .. . ... ... ...
ROW D6 : ... .. . ... ... ... : ... .. . ... ... ... : ... .. . ... ... ... : E-# 00 4 ... ... ... : ... .. . ... ... ... : ... .. . ... ... ... : ... .. . ... ... ... : ... .. . ... ... ... : ... .. . ... ... ... : ... .. . ... ... ... : ... .. . ... ... ... : ... .. . ... ... ... : ... .. . ... ... ...
ROW D7 : ... .. . ... ... ... : ... .. . ... ... ... : ... .. . ... ... ... : D-# 00 2 ... ... ... : ... .. . ... ... ... : ... .. . ... ... ... : G#1 09 . P81 ... ... : ... .. . ... ... ... : ... .. . ... ... ... : ... .. . ... ... ... : ... .. . ... ... ... : ... .. . ... ... ... : ... .. . ... ... ...
ROW D8 : ... .. . ... ... ... : ... .. . ... ... ... : ... .. . ... ... ... : ... .. 1 ... ... ... : ... .. . ... ... ... : G#1 08 . ... ... ... : G#1 08 . ... ... ... : ... .. . ... ... ... : G#1 08 . ... ... ... : G#2 08 . ... ... ... : ... .. . ... ... ... : ... .. . ... ... ... : ... .. . ... ... ...
ROW D9 : ... .. . ... ... ... : ... .. . ... ... ... : ... .. . ... ... ... : ... .. . ... ... ... : ... .. . ... ... ... : ... .. . ... ... ... : G-1 08 . P80 ... ... : ... .. . ... ... ... : ... .. C ... ... ... : ... .. 7 ... ... ... : ... .. . ... ... ... : ... .. . ... ... ... : ... .. . ... ... ...
ROW DA : ... .. . ... ... ... : ... .. . ... ... ... : ... .. . ... ... ... : --- .. . ... ... ... : ... .. . ... ... ... : ... .. . ... ... ... : ... .. . ... ... ... : ... .. . ... ... ... : ... .. . ... ... ... : ... .. . ... ... ... : ... .. . ... ... ... : ... .. . ... ... ... : ... .. . ... ... ...
ROW DB : ... .. . ... ... ... : ... .. . ... ... ... : ... .. . ... ... ... : D-# 00 A ... ... ... : ... .. . ... ... ... : G#1 07 . ... ... ... : G#1 07 . P81 ... ... : ... .. . ... ... ... : G#1 07 . ... ... ... : G#2 07 . ... ... ... : ... .. . ... ... ... : ... .. . ... ... ... : ... .. . ... ... ...
ROW DC : ... .. . ... ... ... : ... .. . ... ... ... : ... .. . ... ... ... : E-# 00 4 ... ... ... : ... .. . ... ... ... : ... .. . ... ... ... : ... .. . P80 ... ... : ... .. . ... ... ... : ... .. . ... ... ... : ... .. . ... ... ... : ... .. . ... ... ... : ... .. . ... ... ... : ... .. . ... ... ...
ROW DD : ... .. . ... ... ... : ... .. . ... ... ... : ... .. . ... ... ... : D-# 00 2 ... ... ... : ... .. . ... ... ... : ... .. . ... ... ... : ... .. . P81 ... ... : ... .. . ... ... ... : ... .. . ... ... ... : ... .. 6 ... ... ... : ... .. . ... ... ... : ... .. . ... ... ... : ... .. . ... ... ...
ROW DE : ... .. . ... ... ... : ... .. . ... ... ... : ... .. . ... ... ... : ... .. 1 ... ... ... : ... .. . ... ... ... : G#1 06 . ... ... ... : G-1 06 . P80 ... ... : ... .. . ... ... ... : G#1 06 . ... ... ... : G#2 06 . ... ... ... : ... .. . ... ... ... : ... .. . ... ... ... : ... .. . ... ... ...
ROW DF : ... .. . ... ... ... : ... .. . ... ... ... : ... .. . ... ... ... : ... .. . ... ... ... : ... .. . ... ... ... : ... .. . ... ... ... : G#1 06 . P81 ... ... : ... .. . ... ... ... : ... .. . ... ... ... : ... .. . ... ... ... : ... .. . ... ... ... : ... .. . ... ... ... : ... .. . ... ... ...
ROW E0 : ... .. . ... ... ... : ... .. . ... ... ... : ... .. . ... ... ... : --- .. . ... ... ... : ... .. . ... ... ... : ... .. . ... ... ... : ... .. . P80 ... ... : ... .. . ... ... ... : ... .. . ... ... ... : ... .. . ... ... ... : ... .. . ... ... ... : ... .. . ... ... ... : ... .. . ... ... ...
ROW E1 : ... .. . ... ... ... : ... .. . ... ... ... : ... .. . ... ... ... : ... .. . ... ... ... : ... .. . ... ... ... : ... .. . ... ... ... : ... .. . P81 ... ... : ... .. . ... ... ... : ... .. B ... ... ... : ... .. 5 ... ... ... : ... .. . ... ... ... : ... .. . ... ... ... : ... .. . ... ... ...
ROW E2 : ... .. . ... ... ... : C-4 02 . P80 ... ... : C#4 00 . P7F ... ... : 9-# 00 F ... ... ... : C#1 12 . ... ... ... : D-2 06 . ... ... ... : C#2 06 . P7F ... ... : ... .. . ... ... ... : D-2 06 . ... ... ... : D-3 06 . ... ... ... : ... .. . ... ... ... : ... .. . ... ... ... : ... .. . ... ... ...
ROW E3 : ... .. . ... ... ... : F-3 02 . ... ... ... : F#3 00 . P83 ... ... : 2-# 00 7 ... ... ... : ... .. . ... ... ... : ... .. . ... ... ... : D-2 06 . P81 ... ... : ... .. . ... ... ... : ... .. . ... ... ... : ... .. . ... ... ... : ... .. . ... ... ... : ... .. . ... ... ... : ... .. . ... ... ...
ROW E4 : ... .. . ... ... ... : A#2 02 . P81 ... ... : C#3 00 . P89 ... ... : 6-# 00 C ... ... ... : ... .. . ... ... ... : ... .. . ... ... ... : ... .. . P80 ... ... : ... .. . ... ... ... : ... .. . ... ... ... : ... .. . ... ... ... : ... .. . ... ... ... : ... .. . ... ... ... : ... .. . ... ... ...
ROW E5 : ... .. . ... ... ... : D#2 02 . ... ... ... : A#2 00 . P75 ... ... : 7-# 00 8 ... ... ... : ... .. . ... ... ... : D-2 08 . ... ... ... : D-2 08 . P81 ... ... : ... .. . ... ... ... : D-2 08 . ... ... ... : D-3 08 4 ... ... ... : ... .. . ... ... ... : ... .. . ... ... ... : ... .. . ... ... ...
ROW E6 : ... .. . ... ... ... : G#1 02 . ... ... ... : G-2 00 . P70 ... ... : 8-# 00 7 ... ... ... : ... .. . ... ... ... : ... .. . ... ... ... : ... .. . P82 ... ... : ... .. . ... ... ... : ... .. . ... ... ... : ... .. . ... ... ... : ... .. . ... ... ... : ... .. . ... ... ... : ... .. . ... ... ...
ROW E7 : ... .. . ... ... ... : C#1 02 . ... ... ... : E-2 00 . P7C ... ... : ... .. 6 ... ... ... : ... .. . ... ... ... : ... .. . ... ... ... : ... .. . ... ... ... : ... .. . ... ... ... : ... .. . ... ... ... : ... .. . ... ... ... : ... .. . ... ... ... : ... .. . ... ... ... : ... .. . ... ... ...
ROW E8 : ... .. . ... ... ... : ... .. . ... ... ... : --- .. . ... ... ... : ... .. . ... ... ... : ... .. . ... ... ... : D-2 09 . ... ... ... : D-2 09 . P81 ... ... : ... .. . ... ... ... : D-2 09 . ... ... ... : D-3 09 . ... ... ... : ... .. . ... ... ... : ... .. . ... ... ... : ... .. . ... ... ...
ROW E9 : ... .. . ... ... ... : ... .. . ... ... ... : ... .. . ... ... ... : ... .. 5 ... ... ... : ... .. . ... ... ... : ... .. . ... ... ... : ... .. . ... ... ... : ... .. . ... ... ... : ... .. A ... ... ... : ... .. 3 ... ... ... : ... .. . ... ... ... : ... .. . ... ... ... : ... .. . ... ... ...
ROW EA : ... .. . ... ... ... : ... .. . ... ... ... : ... .. . ... ... ... : ... .. . ... ... ... : ... .. . ... ... ... : ... .. . ... ... ... : ... .. . P82 ... ... : ... .. . ... ... ... : ... .. . ... ... ... : ... .. . ... ... ... : ... .. . ... ... ... : ... .. . ... ... ... : ... .. . ... ... ...
ROW EB : ... .. . ... ... ... : ... .. . ... ... ... : ... .. . ... ... ... : ... .. 4 ... ... ... : ... .. . ... ... ... : D-2 07 . ... ... ... : C#2 07 . P7F ... ... : ... .. . ... ... ... : D-2 07 . ... ... ... : D-3 07 . ... ... ... : ... .. . ... ... ... : ... .. . ... ... ... : ... .. . ... ... ...
ROW EC : ... .. . ... ... ... : ... .. . ... ... ... : ... .. . ... ... ... : ... .. . ... ... ... : ... .. . ... ... ... : ... .. . ... ... ... : D-2 07 . P81 ... ... : ... .. . ... ... ... : ... .. . ... ... ... : ... .. . ... ... ... : ... .. . ... ... ... : ... .. . ... ... ... : ... .. . ... ... ...
ROW ED : ... .. . ... ... ... : ... .. . ... ... ... : ... .. . ... ... ... : ... .. 3 ... ... ... : ... .. . ... ... ... : ... .. . ... ... ... : ... .. . P80 ... ... : ... .. . ... ... ... : ... .. . ... ... ... : ... .. 2 ... ... ... : ... .. . ... ... ... : ... .. . ... ... ... : ... .. . ... ... ...
ROW EE : ... .. . ... ... ... : ... .. . ... ... ... : ... .. . ... ... ... : D-# 00 A ... ... ... : ... .. . ... ... ... : D-2 06 . ... ... ... : D-2 06 . P81 ... ... : ... .. . ... ... ... : D-2 06 . ... ... ... : D-3 06 . ... ... ... : ... .. . ... ... ... : ... .. . ... ... ... : ... .. . ... ... ...
ROW EF : ... .. . ... ... ... : ... .. . ... ... ... : ... .. . ... ... ... : E-# 00 4 ... ... ... : ... .. . ... ... ... : ... .. . ... ... ... : C#2 06 . P7F ... ... : ... .. . ... ... ... : ... .. . ... ... ... : ... .. . ... ... ... : ... .. . ... ... ... : ... .. . ... ... ... : ... .. . ... ... ...
ROW F0 : ... .. . ... ... ... : ... .. . ... ... ... : ... .. . ... ... ... : D-# 00 2 ... ... ... : ... .. . ... ... ... : ... .. . ... ... ... : D-2 06 . P81 ... ... : ... .. . ... ... ... : ... .. . ... ... ... : ... .. . ... ... ... : ... .. . ... ... ... : ... .. . ... ... ... : ... .. . ... ... ...
ROW F1 : ... .. . ... ... ... : ... .. . ... ... ... : ... .. . ... ... ... : ... .. 1 ... ... ... : ... .. . ... ... ... : D-2 08 . ... ... ... : D-2 08 . P80 ... ... : ... .. . ... ... ... : D-2 08 9 ... ... ... : D-3 08 1 ... ... ... : ... .. . ... ... ... : ... .. . ... ... ... : ... .. . ... ... ...
ROW F2 : ... .. . ... ... ... : ... .. . ... ... ... : ... .. . ... ... ... : ... .. . ... ... ... : ... .. . ... ... ... : ... .. . ... ... ... : ... .. . P81 ... ... : ... .. . ... ... ... : ... .. . ... ... ... : ... .. . ... ... ... : ... .. . ... ... ... : ... .. . ... ... ... : ... .. . ... ... ...
ROW F3 : ... .. . ... ... ... : ... .. . ... ... ... : ... .. . ... ... ... : --- .. . ... ... ... : ... .. . ... ... ... : ... .. . ... ... ... : C#2 08 . P7F ... ... : ... .. . ... ... ... : ... .. . ... ... ... : ... .. . ... ... ... : ... .. . ... ... ... : ... .. . ... ... ... : ... .. . ... ... ...
ROW F4 : ... .. . ... ... ... : ... .. . ... ... ... : ... .. . ... ... ... : D-# 00 A ... ... ... : ... .. . ... ... ... : D-2 09 . ... ... ... : D-2 09 . P81 ... ... : ... .. . ... ... ... : D-2 09 . ... ... ... : D-3 09 . ... ... ... : ... .. . ... ... ... : ... .. . ... ... ... : ... .. . ... ... ...
ROW F5 : ... .. . ... ... ... : ... .. . ... ... ... : ... .. . ... ... ... : E-# 00 4 ... ... ... : ... .. . ... ... ... : ... .. . ... ... ... : ... .. . P80 ... ... : ... .. . ... ... ... : ... .. . ... ... ... : --- .. . ... ... ... : ... .. . ... ... ... : ... .. . ... ... ... : ... .. . ... ... ...
ROW F6 : ... .. . ... ... ... : ... .. . ... ... ... : ... .. . ... ... ... : D-# 00 2 ... ... ... : ... .. . ... ... ... : ... .. . ... ... ... : ... .. . P81 ... ... : ... .. . ... ... ... : ... .. . ... ... ... : ... .. . P80 ... ... : ... .. . ... ... ... : ... .. . ... ... ... : ... .. . ... ... ...
ROW F7 : ... .. . ... ... ... : ... .. . ... ... ... : ... .. . ... ... ... : ... .. 1 ... ... ... : ... .. . ... ... ... : D-2 07 . ... ... ... : D-2 07 . P82 ... ... : ... .. . ... ... ... : D-2 07 . ... ... ... : ... .. . ... ... ... : ... .. . ... ... ... : ... .. . ... ... ... : ... .. . ... ... ...
ROW F8 : ... .. . ... ... ... : ... .. . ... ... ... : ... .. . ... ... ... : ... .. . ... ... ... : ... .. . ... ... ... : ... .. . ... ... ... : ... .. . ... ... ... : ... .. . ... ... ... : ... .. . ... ... ... : ... .. . ... ... ... : ... .. . ... ... ... : ... .. . ... ... ... : ... .. . ... ... ...
ROW F9 : ... .. . ... ... ... : ... .. . ... ... ... : ... .. . ... ... ... : --- .. . ... ... ... : ... .. . ... ... ... : ... .. . ... ... ... : ... .. . P81 ... ... : ... .. . ... ... ... : ... .. 8 ... ... ... : ... .. . ... ... ... : ... .. . ... ... ... : ... .. . ... ... ... : ... .. . ... ... ...
ROW FA : ... .. . ... ... ... : ... .. . ... ... ... : ... .. . ... ... ... : ... .. . ... ... ... : ... .. . ... ... ... : ... .. . ... ... ... : ... .. . P80 ... ... : ... .. . ... ... ... : ... .. . ... ... ... : ... .. . ... ... ... : ... .. . ... ... ... : ... .. . ... ... ... : ... .. . ... ... ...
ROW FB : ... .. . ... ... ... : C-4 02 . P80 ... ... : F#3 00 . P78 ... ... : 1-# 00 F ... ... ... : C-1 12 . ... ... ... : C#2 06 . ... ... ... : C#2 06 . P81 ... ... : ... .. . ... ... ... : C#2 06 . ... ... ... : ... .. . ... ... ... : ... .. . ... ... ... : ... .. . ... ... ... : ... .. . ... ... ...
ROW FC : ... .. . ... ... ... : F-3 02 . ... ... ... : C#3 00 . P7E ... ... : 2-# 00 7 ... ... ... : ... .. . ... ... ... : ... .. . ... ... ... : C-2 06 . P7F ... ... : ... .. . ... ... ... : ... .. . ... ... ... : ... .. . ... ... ... : ... .. . ... ... ... : ... .. . ... ... ... : ... .. . ... ... ...
ROW FD : ... .. . ... ... ... : A#2 02 . P81 ... ... : A-2 00 . P86 ... ... : 1-# 00 4 ... ... ... : ... .. . ... ... ... : ... .. . ... ... ... : C#2 06 . P81 ... ... : ... .. . ... ... ... : ... .. . ... ... ... : ... .. . ... ... ... : ... .. . ... ... ... : ... .. . ... ... ... : ... .. . ... ... ...
ROW FE : ... .. . ... ... ... : D#2 02 . ... ... ... : --- .. . ... ... ... : ... .. 2 ... ... ... : ... .. . ... ... ... : C#2 09 . ... ... ... : C#2 09 . P80 ... ... : ... .. . ... ... ... : C#2 09 . ... ... ... : ... .. . ... ... ... : ... .. . ... ... ... : ... .. . ... ... ... : ... .. . ... ... ...
ROW FF : ... .. . ... ... ... : G#1 02 . ... ... ... : ... .. . ... ... ... : ... .. 1 ... ... ... : ... .. . ... ... ... : ... .. . ... ... ... : ... .. . P81 ... ... : ... .. . ... ... ... : ... .. . ... ... ... : ... .. . ... ... ... : ... .. . ... ... ... : ... .. . ... ... ... : ... .. . ... ... ...

PATTERN 1A
ROW 00 : ... .. . ... ... ... : C#1 02 . ... ... ... : ... .. . ... ... ... : --- .. . ... ... ... : ... .. . ... ... ... : ... .. . ... ... ... : C-2 09 . P7F ... ... : ... .. . ... ... ... : ... .. . ... ... ... : ... .. . ... ... ... : ... .. . ... ... ... : ... .. . ... ... ... : ... .. . ... ... ...
ROW 01 : ... .. . ... ... ... : ... .. . ... ... ... : ... .. . ... ... ... : ... .. . ... ... ... : ... .. . ... ... ... : C#2 06 . ... ... ... : C#2 06 . P81 ... ... : ... .. . ... ... ... : C#2 06 7 ... ... ... : ... .. . ... ... ... : ... .. . ... ... ... : ... .. . ... ... ... : ... .. . ... ... ...
ROW 02 : ... .. . ... ... ... : ... .. . ... ... ... : ... .. . ... ... ... : ... .. . ... ... ... : ... .. . ... ... ... : ... .. . ... ... ... : ... .. . P80 ... ... : ... .. . ... ... ... : ... .. . ... ... ... : ... .. . ... ... ... : ... .. . ... ... ... : ... .. . ... ... ... : ... .. . ... ... ...
ROW 03 : ... .. . ... ... ... : ... .. . ... ... ... : ... .. . ... ... ... : ... .. . ... ... ... : ... .. . ... ... ... : ... .. . ... ... ... : ... .. . P81 ... ... : ... .. . ... ... ... : ... .. . ... ... ... : ... .. . ... ... ... : ... .. . ... ... ... : ... .. . ... ... ... : ... .. . ... ... ...
ROW 04 : ... .. . ... ... ... : ... .. . ... ... ... : ... .. . ... ... ... : ... .. . ... ... ... : ... .. . ... ... ... : C#2 09 . ... ... ... : C-2 09 . P7F ... ... : ... .. . ... ... ... : C#2 09 . ... ... ... : ... .. . ... ... ... : ... .. . ... ... ... : ... .. . ... ... ... : ... .. . ... ... ...
ROW 05 : ... .. . ... ... ... : ... .. . ... ... ... : ... .. . ... ... ... : ... .. . ... ... ... : ... .. . ... ... ... : ... .. . ... ... ... : C#2 09 . P82 ... ... : ... .. . ... ... ... : ... .. . ... ... ... : ... .. . ... ... ... : ... .. . ... ... ... : ... .. . ... ... ... : ... .. . ... ... ...
ROW 06 : ... .. . ... ... ... : ... .. . ... ... ... : ... .. . ... ... ... : ... .. . ... ... ... : ... .. . ... ... ... : ... .. . ... ... ... : ... .. . P81 ... ... : ... .. . ... ... ... : ... .. . ... ... ... : ... .. . ... ... ... : ... .. . ... ... ... : ... .. . ... ... ... : ... .. . ... ... ...
ROW 07 : ... .. . ... ... ... : ... .. . ... ... ... : ... .. . ... ... ... : D-# 00 A ... ... ... : ... .. . ... ... ... : C#2 06 . ... ... ... : C#2 06 . ... ... ... : ... .. . ... ... ... : C#2 06 . ... ... ... : ... .. . ... ... ... : ... .. . ... ... ... : ... .. . ... ... ... : ... .. . ... ... ...
ROW 08 : ... .. . ... ... ... : ... .. . ... ... ... : ... .. . ... ... ... : E-# 00 4 ... ... ... : ... .. . ... ... ... : ... .. . ... ... ... : ... .. . P82 ... ... : ... .. . ... ... ... : ... .. . ... ... ... : ... .. . ... ... ... : ... .. . ... ... ... : ... .. . ... ... ... : ... .. . ... ... ...
ROW 09 : ... .. . ... ... ... : ... .. . ... ... ... : ... .. . ... ... ... : D-# 00 2 ... ... ... : ... .. . ... ... ... : ... .. . ... ... ... : ... .. . ... ... ... : ... .. . ... ... ... : ... .. 6 ... ... ... : ... .. . ... ... ... : ... .. . ... ... ... : ... .. . ... ... ... : ... .. . ... ... ...
ROW 0A : ... .. . ... ... ... : ... .. . ... ... ... : ... .. . ... ... ... : ... .. 1 ... ... ... : ... .. . ... ... ... : C#2 09 . ... ... ... : C#2 09 . P81 ... ... : ... .. . ... ... ... : C#2 09 . ... ... ... : ... .. . ... ... ... : ... .. . ... ... ... : ... .. . ... ... ... : ... .. . ... ... ...
ROW 0B : ... .. . ... ... ... : ... .. . ... ... ... : ... .. . ... ... ... : ... .. . ... ... ... : ... .. . ... ... ... : ... .. . ... ... ... : ... .. . P80 ... ... : ... .. . ... ... ... : ... .. . ... ... ... : ... .. . ... ... ... : ... .. . ... ... ... : ... .. . ... ... ... : ... .. . ... ... ...
ROW 0C : ... .. . ... ... ... : ... .. . ... ... ... : ... .. . ... ... ... : --- .. . ... ... ... : ... .. . ... ... ... : ... .. . ... ... ... : ... .. . P81 ... ... : ... .. . ... ... ... : ... .. . ... ... ... : ... .. . ... ... ... : ... .. . ... ... ... : ... .. . ... ... ... : ... .. . ... ... ...
ROW 0D : ... .. . ... ... ... : ... .. . ... ... ... : ... .. . ... ... ... : D-# 00 A ... ... ... : ... .. . ... ... ... : C#2 06 . ... ... ... : C-2 06 . P7F ... ... : ... .. . ... ... ... : C#2 06 . ... ... ... : ... .. . ... ... ... : ... .. . ... ... ... : ... .. . ... ... ... : ... .. . ... ... ...
ROW 0E : ... .. . ... ... ... : ... .. . ... ... ... : ... .. . ... ... ... : E-# 00 4 ... ... ... : ... .. . ... ... ... : ... .. . ... ... ... : C#2 06 . P81 ... ... : ... .. . ... ... ... : ... .. . ... ... ... : ... .. . ... ... ... : ... .. . ... ... ... : ... .. . ... ... ... : ... .. . ... ... ...
ROW 0F : ... .. . ... ... ... : ... .. . ... ... ... : ... .. . ... ... ... : D-# 00 2 ... ... ... : ... .. . ... ... ... : ... .. . ... ... ... : ... .. . P80 ... ... : ... .. . ... ... ... : ... .. . ... ... ... : ... .. . ... ... ... : ... .. . ... ... ... : ... .. . ... ... ... : ... .. . ... ... ...
ROW 10 : ... .. . ... ... ... : ... .. . ... ... ... : ... .. . ... ... ... : ... .. 1 ... ... ... : ... .. . ... ... ... : C#2 09 . ... ... ... : C#2 09 . P81 ... ... : ... .. . ... ... ... : C#2 09 . ... ... ... : ... .. . ... ... ... : ... .. . ... ... ... : ... .. . ... ... ... : ... .. . ... ... ...
ROW 11 : ... .. . ... ... ... : ... .. . ... ... ... : ... .. . ... ... ... : ... .. . ... ... ... : ... .. . ... ... ... : ... .. . ... ... ... : C-2 09 . P7F ... ... : ... .. . ... ... ... : ... .. 5 ... ... ... : ... .. . ... ... ... : ... .. . ... ... ... : ... .. . ... ... ... : ... .. . ... ... ...
ROW 12 : ... .. . ... ... ... : ... .. . ... ... ... : ... .. . ... ... ... : --- .. . ... ... ... : ... .. . ... ... ... : ... .. . ... ... ... : C#2 09 . P81 ... ... : ... .. . ... ... ... : ... .. . ... ... ... : ... .. . ... ... ... : ... .. . ... ... ... : ... .. . ... ... ... : ... .. . ... ... ...
ROW 13 : ... .. . ... ... ... : ... .. . ... ... ... : ... .. . ... ... ... : ... .. . ... ... ... : ... .. . ... ... ... : ... .. . ... ... ... : ... .. . P80 ... ... : ... .. . ... ... ... : ... .. . ... ... ... : ... .. . ... ... ... : ... .. . ... ... ... : ... .. . ... ... ... : ... .. . ... ... ...
ROW 14 : ... .. . ... ... ... : C-4 02 . P80 ... ... : C#4 00 . P7F ... ... : 9-# 00 F ... ... ... : C#1 12 . ... ... ... : F#1 06 . ... ... ... : F#1 06 . P81 ... ... : ... .. . ... ... ... : F#1 06 . ... ... ... : ... .. . ... ... ... : ... .. . ... ... ... : ... .. . ... ... ... : ... .. . ... ... ...
ROW 15 : ... .. . ... ... ... : F-3 02 . ... ... ... : F#3 00 . P83 ... ... : 2-# 00 7 ... ... ... : ... .. . ... ... ... : ... .. . ... ... ... : F-1 06 . P80 ... ... : ... .. . ... ... ... : ... .. . ... ... ... : ... .. . ... ... ... : ... .. . ... ... ... : ... .. . ... ... ... : ... .. . ... ... ...
ROW 16 : ... .. . ... ... ... : A#2 02 . P81 ... ... : C#3 00 . P89 ... ... : 6-# 00 C ... ... ... : ... .. . ... ... ... : ... .. . ... ... ... : ... .. . ... ... ... : ... .. . ... ... ... : ... .. . ... ... ... : ... .. . ... ... ... : ... .. . ... ... ... : ... .. . ... ... ... : ... .. . ... ... ...
ROW 17 : ... .. . ... ... ... : D#2 02 . ... ... ... : A#2 00 . P75 ... ... : 7-# 00 8 ... ... ... : ... .. . ... ... ... : ... .. . ... ... ... : F#1 06 . P81 ... ... : ... .. . ... ... ... : ... .. . ... ... ... : ... .. . ... ... ... : ... .. . ... ... ... : ... .. . ... ... ... : ... .. . ... ... ...
ROW 18 : ... .. . ... ... ... : G#1 02 . ... ... ... : G-2 00 . P70 ... ... : 8-# 00 7 ... ... ... : ... .. . ... ... ... : ... .. . ... ... ... : ... .. . ... ... ... : ... .. . ... ... ... : ... .. . ... ... ... : ... .. . ... ... ... : ... .. . ... ... ... : ... .. . ... ... ... : ... .. . ... ... ...
ROW 19 : ... .. . ... ... ... : C#1 02 . ... ... ... : E-2 00 . P7C ... ... : ... .. 6 ... ... ... : ... .. . ... ... ... : ... .. . ... ... ... : F-1 06 . P80 ... ... : ... .. . ... ... ... : ... .. 4 ... ... ... : ... .. . ... ... ... : ... .. . ... ... ... : ... .. . ... ... ... : ... .. . ... ... ...
ROW 1A : ... .. . ... ... ... : ... .. . ... ... ... : --- .. . ... ... ... : ... .. . ... ... ... : ... .. . ... ... ... : F#1 07 . ... ... ... : F-1 07 . ... ... ... : ... .. . ... ... ... : F#1 07 . ... ... ... : ... .. . ... ... ... : ... .. . ... ... ... : ... .. . ... ... ... : ... .. . ... ... ...
ROW 1B : ... .. . ... ... ... : ... .. . ... ... ... : ... .. . ... ... ... : ... .. 5 ... ... ... : ... .. . ... ... ... : ... .. . ... ... ... : F#1 07 . P81 ... ... : ... .. . ... ... ... : ... .. . ... ... ... : ... .. . ... ... ... : ... .. . ... ... ... : ... .. . ... ... ... : ... .. . ... ... ...
ROW 1C : ... .. . ... ... ... : ... .. . ... ... ... : ... .. . ... ... ... : ... .. . ... ... ... : ... .. . ... ... ... : ... .. . ... ... ... : ... .. . P80 ... ... : ... .. . ... ... ... : ... .. . ... ... ... : ... .. . ... ... ... : ... .. . ... ... ... : ... .. . ... ... ... : ... .. . ... ... ...
ROW 1D : ... .. . ... ... ... : ... .. . ... ... ... : ... .. . ... ... ... : ... .. 4 ... ... ... : ... .. . ... ... ... : F-1 07 . ... ... ... : F-1 07 . P81 ... ... : ... .. . ... ... ... : ... .. . P81 ... ... : ... .. . ... ... ... : ... .. . ... ... ... : ... .. . ... ... ... : ... .. . ... ... ...
ROW 1E : ... .. . ... ... ... : ... .. . ... ... ... : ... .. . ... ... ... : ... .. . ... ... ... : ... .. . ... ... ... : E-1 07 . ... ... ... : D#1 07 . P80 ... ... : ... .. . ... ... ... : F-1 07 . ... ... ... : ... .. . ... ... ... : ... .. . ... ... ... : ... .. . ... ... ... : ... .. . ... ... ...
ROW 1F : ... .. . ... ... ... : ... .. . ... ... ... : ... .. . ... ... ... : ... .. 3 ... ... ... : ... .. . ... ... ... : D#1 07 . ... ... ... : D-1 07 . ... ... ... : ... .. . ... ... ... : E-1 07 . ... ... ... : ... .. . ... ... ... : ... .. . ... ... ... : ... .. . ... ... ... : ... .. . ... ... ...
ROW 20 : ... .. . ... ... ... : ... .. . ... ... ... : ... .. . ... ... ... : 6-# 01 F ... ... ... : ... .. . ... ... ... : D-1 08 . P81 ... ... : D-1 08 . P81 ... ... : ... .. . ... ... ... : D-1 08 . P80 ... ... : ... .. . ... ... ... : ... .. . ... ... ... : ... .. . ... ... ... : ... .. . ... ... ...
ROW 21 : ... .. . ... ... ... : ... .. . ... ... ... : ... .. . ... ... ... : ... .. 9 ... ... ... : ... .. . ... ... ... : C#1 08 . ... ... ... : C-1 08 . P80 ... ... : ... .. . ... ... ... : C#1 08 3 ... ... ... : ... .. . ... ... ... : ... .. . ... ... ... : ... .. . ... ... ... : ... .. . ... ... ...
ROW 22 : ... .. . ... ... ... : ... .. . ... ... ... : ... .. . ... ... ... : ... .. 4 ... ... ... : ... .. . ... ... ... : B-0 08 . P80 ... ... : A#0 08 . ... ... ... : ... .. . ... ... ... : C-1 08 . ... ... ... : ... .. . ... ... ... : ... .. . ... ... ... : ... .. . ... ... ... : ... .. . ... ... ...
ROW 23 : ... .. . ... ... ... : ... .. . ... ... ... : ... .. . ... ... ... : ... .. 7 ... ... ... : ... .. . ... ... ... : A#0 08 . ... ... ... : A-0 08 . ... ... ... : ... .. . ... ... ... : B-0 08 . P81 ... ... : ... .. . ... ... ... : ... .. . ... ... ... : ... .. . ... ... ... : ... .. . ... ... ...
ROW 24 : ... .. . ... ... ... : ... .. . ... ... ... : ... .. . ... ... ... : ... .. 5 ... ... ... : ... .. . ... ... ... : A-0 08 . P81 ... ... : ... .. . P81 ... ... : ... .. . ... ... ... : A-0 08 . P80 ... ... : ... .. . ... ... ... : ... .. . ... ... ... : ... .. . ... ... ... : ... .. . ... ... ...
ROW 25 : ... .. . ... ... ... : ... .. . ... ... ... : ... .. . ... ... ... : ... .. . ... ... ... : ... .. . ... ... ... : G-0 08 . ... ... ... : F#0 08 . P80 ... ... : ... .. . ... ... ... : G#0 08 . P81 ... ... : ... .. . ... ... ... : ... .. . ... ... ... : ... .. . ... ... ... : ... .. . ... ... ...
ROW 26 : ... .. . ... ... ... : ... .. . ... ... ... : ... .. . ... ... ... : ... .. 4 ... ... ... : ... .. . ... ... ... : F-0 09 . P80 ... ... : E-0 09 . P81 ... ... : ... .. . ... ... ... : F#0 09 . P80 ... ... : ... .. . ... ... ... : ... .. . ... ... ... : ... .. . ... ... ... : ... .. . ... ... ...
ROW 27 : ... .. . ... ... ... : ... .. . ... ... ... : ... .. . ... ... ... : ... .. . ... ... ... : ... .. . ... ... ... : D#0 09 . ... ... ... : C#0 09 . P80 ... ... : ... .. . ... ... ... : E-0 09 . ... ... ... : ... .. . ... ... ... : ... .. . ... ... ... : ... .. . ... ... ... : ... .. . ... ... ...
ROW 28 : ... .. . ... ... ... : ... .. . ... ... ... : ... .. . ... ... ... : ... .. 3 ... ... ... : ... .. . ... ... ... : C#0 09 . P81 ... ... : C-0 09 . ... ... ... : ... .. . ... ... ... : D-0 09 . ... ... ... : ... .. . ... ... ... : ... .. . ... ... ... : ... .. . ... ... ... : ... .. . ... ... ...
ROW 29 : ... .. . ... ... ... : ... .. . ... ... ... : ... .. . ... ... ... : ... .. 2 ... ... ... : ... .. . ... ... ... : C-0 09 . P82 ... ... : ... .. . P82 ... ... : ... .. . ... ... ... : C-0 09 2 P81 ... ... : ... .. . ... ... ... : ... .. . ... ... ... : ... .. . ... ... ... : ... .. . ... ... ...
ROW 2A : ... .. . ... ... ... : ... .. . ... ... ... : ... .. . ... ... ... : ... .. . ... ... ... : ... .. . ... ... ... : ... .. . P84 ... ... : ... .. . P85 ... ... : ... .. . ... ... ... : ... .. . P83 ... ... : ... .. . ... ... ... : ... .. . ... ... ... : ... .. . ... ... ... : ... .. . ... ... ...
ROW 2B : ... .. . ... ... ... : ... .. . ... ... ... : ... .. . ... ... ... : ... .. 1 ... ... ... : ... .. . ... ... ... : ... .. . P86 ... ... : --- .. . P7A ... ... : ... .. . ... ... ... : ... .. . P85 ... ... : ... .. . ... ... ... : ... .. . ... ... ... : ... .. . ... ... ... : ... .. . ... ... ...
ROW 2C : ... .. . ... ... ... : ... .. . ... ... ... : ... .. . ... ... ... : ... .. . ... ... ... : ... .. . ... ... ... : --- .. . P7A ... ... : ... .. . P7B ... ... : ... .. . ... ... ... : ... .. . P87 ... ... : ... .. . ... ... ... : ... .. . ... ... ... : ... .. . ... ... ... : ... .. . ... ... ...
ROW 2D : ... .. . ... ... ... : C-4 02 . P80 ... ... : F#3 00 . P78 ... ... : 1-# 00 F ... ... ... : C-1 12 . ... ... ... : G-4 04 A P78 ... ... : A-4 04 A P80 ... ... : ... .. . ... ... ... : F#4 04 9 P89 ... ... : G-4 04 9 P81 ... ... : ... .. . ... ... ... : ... .. . ... ... ... : ... .. . ... ... ...
ROW 2E : ... .. . ... ... ... : F-3 02 . ... ... ... : C#3 00 . P7E ... ... : 2-# 00 7 ... ... ... : ... .. . ... ... ... : G#4 04 . P84 ... ... : ... .. . P81 ... ... : ... .. . ... ... ... : ... .. . P81 ... ... : ... .. . ... ... ... : ... .. . ... ... ... : ... .. . ... ... ... : ... .. . ... ... ...
ROW 2F : ... .. . ... ... ... : A#2 02 . P81 ... ... : A-2 00 . P86 ... ... : 1-# 00 4 ... ... ... : ... .. . ... ... ... : ... .. . P7C ... ... : ... .. . P82 ... ... : ... .. . ... ... ... : ... .. . P79 ... ... : ... .. . ... ... ... : ... .. . ... ... ... : ... .. . ... ... ... : ... .. . ... ... ...
ROW 30 : ... .. . ... ... ... : D#2 02 . ... ... ... : --- .. . ... ... ... : ... .. 2 ... ... ... : ... .. . ... ... ... : --- .. . ... ... ... : --- .. . ... ... ... : ... .. . ... ... ... : --- .. . ... ... ... : --- .. . ... ... ... : ... .. . ... ... ... : ... .. . ... ... ... : ... .. . ... ... ...
ROW 31 : ... .. . ... ... ... : G#1 02 . ... ... ... : ... .. . ... ... ... : ... .. 1 ... ... ... : ... .. . ... ... ... : ... .. . P80 ... ... : ... .. . P80 ... ... : ... .. . ... ... ... : ... .. . P80 ... ... : ... .. . P80 ... ... : ... .. . ... ... ... : ... .. . ... ... ... : ... .. . ... ... ...
ROW 32 : ... .. . ... ... ... : C#1 02 . ... ... ... : ... .. . ... ... ... : --- .. . ... ... ... : ... .. . ... ... ... : ... .. . ... ... ... : ... .. . ... ... ... : ... .. . ... ... ... : ... .. . ... ... ... : ... .. . ... ... ... : ... .. . ... ... ... : ... .. . ... ... ... : ... .. . ... ... ...
ROW 33 : ... .. . ... ... ... : ... .. . ... ... ... : ... .. . ... ... ... : 1-# 00 F ... ... ... : C-1 12 . ... ... ... : A-4 04 . P7A ... ... : A-4 04 . P84 ... ... : ... .. . ... ... ... : G#4 04 . P88 ... ... : G-4 04 . P83 ... ... : ... .. . ... ... ... : ... .. . ... ... ... : ... .. . ... ... ...
ROW 34 : ... .. . ... ... ... : ... .. . ... ... ... : ... .. . ... ... ... : 2-# 00 7 ... ... ... : ... .. . ... ... ... : ... .. . P7C ... ... : ... .. . P85 ... ... : ... .. . ... ... ... : ... .. . P8A ... ... : ... .. . P85 ... ... : ... .. . ... ... ... : ... .. . ... ... ... : ... .. . ... ... ...
ROW 35 : ... .. . ... ... ... : ... .. . ... ... ... : ... .. . ... ... ... : 1-# 00 4 ... ... ... : ... .. . ... ... ... : ... .. . P7E ... ... : ... .. . P86 ... ... : ... .. . ... ... ... : G-4 04 . P79 ... ... : ... .. . P87 ... ... : ... .. . ... ... ... : ... .. . ... ... ... : ... .. . ... ... ...
ROW 36 : ... .. . ... ... ... : ... .. . ... ... ... : ... .. . ... ... ... : ... .. 2 ... ... ... : ... .. . ... ... ... : --- .. . ... ... ... : --- .. . ... ... ... : ... .. . ... ... ... : --- .. . ... ... ... : --- .. . ... ... ... : ... .. . ... ... ... : ... .. . ... ... ... : ... .. . ... ... ...
ROW 37 : ... .. . ... ... ... : ... .. . ... ... ... : ... .. . ... ... ... : ... .. 1 ... ... ... : ... .. . ... ... ... : ... .. . P80 ... ... : ... .. . P80 ... ... : ... .. . ... ... ... : ... .. . P80 ... ... : ... .. . P80 ... ... : ... .. . ... ... ... : ... .. . ... ... ... : ... .. . ... ... ...
ROW 38 : ... .. . ... ... ... : ... .. . ... ... ... : ... .. . ... ... ... : --- .. . ... ... ... : ... .. . ... ... ... : ... .. . ... ... ... : ... .. . ... ... ... : ... .. . ... ... ... : ... .. . ... ... ... : ... .. . ... ... ... : ... .. . ... ... ... : ... .. . ... ... ... : ... .. . ... ... ...
ROW 39 : ... .. . ... ... ... : ... .. . ... ... ... : ... .. . ... ... ... : A-# 00 F ... ... ... : C-1 12 . ... ... ... : G#4 04 . P7E ... ... : G#4 04 . P87 ... ... : ... .. . ... ... ... : F#4 04 . P7B ... ... : F-4 04 . P78 ... ... : ... .. . ... ... ... : ... .. . ... ... ... : ... .. . ... ... ...
ROW 3A : ... .. . ... ... ... : ... .. . ... ... ... : ... .. . ... ... ... : 6-# 00 9 ... ... ... : ... .. . ... ... ... : G-4 04 . P78 ... ... : G-4 04 . P81 ... ... : ... .. . ... ... ... : ... .. . P89 ... ... : ... .. . P86 ... ... : ... .. . ... ... ... : ... .. . ... ... ... : ... .. . ... ... ...
ROW 3B : ... .. . ... ... ... : ... .. . ... ... ... : ... .. . ... ... ... : 7-# 00 C ... ... ... : ... .. . ... ... ... : ... .. . P86 ... ... : F#4 04 . P7E ... ... : ... .. . ... ... ... : F-4 04 . P85 ... ... : E-4 04 . P84 ... ... : ... .. . ... ... ... : ... .. . ... ... ... : ... .. . ... ... ...
ROW 3C : ... .. . ... ... ... : ... .. . ... ... ... : ... .. . ... ... ... : ... .. 8 ... ... ... : ... .. . ... ... ... : F#4 04 . P82 ... ... : F-4 04 . P7C ... ... : ... .. . ... ... ... : E-4 04 . P83 ... ... : D#4 04 . P83 ... ... : ... .. . ... ... ... : ... .. . ... ... ... : ... .. . ... ... ...
ROW 3D : ... .. . ... ... ... : ... .. . ... ... ... : ... .. . ... ... ... : 8-# 00 7 ... ... ... : ... .. . ... ... ... : F-4 04 . P7F ... ... : E-4 04 . P79 ... ... : ... .. . ... ... ... : D#4 04 . P82 ... ... : D-4 04 8 P82 ... ... : ... .. . ... ... ... : ... .. . ... ... ... : ... .. . ... ... ...
ROW 3E : ... .. . ... ... ... : ... .. . ... ... ... : ... .. . ... ... ... : ... .. 8 ... ... ... : ... .. . ... ... ... : E-4 04 . P7D ... ... : ... .. . P86 ... ... : ... .. . ... ... ... : D-4 04 . ... ... ... : C#4 04 . P83 ... ... : ... .. . ... ... ... : ... .. . ... ... ... : ... .. . ... ... ...
ROW 3F : ... .. . ... ... ... : ... .. . ... ... ... : ... .. . ... ... ... : 9-# 00 7 ... ... ... : ... .. . ... ... ... : D#4 04 . P7C ... ... : D#4 04 . P85 ... ... : ... .. . ... ... ... : C#4 04 . ... ... ... : C-4 04 . P84 ... ... : ... .. . ... ... ... : ... .. . ... ... ... : ... .. . ... ... ...
ROW 40 : ... .. . ... ... ... : ... .. . ... ... ... : ... .. . ... ... ... : ... .. 6 ... ... ... : ... .. . ... ... ... : D-4 04 . P7B ... ... : D-4 04 . P86 ... ... : ... .. . ... ... ... : C-4 04 . P83 ... ... : B-3 04 . P86 ... ... : ... .. . ... ... ... : ... .. . ... ... ... : ... .. . ... ... ...
ROW 41 : ... .. . ... ... ... : ... .. . ... ... ... : ... .. . ... ... ... : ... .. 5 ... ... ... : ... .. . ... ... ... : C#4 04 . P7C ... ... : C#4 04 . P85 ... ... : ... .. . ... ... ... : B-3 04 8 P85 ... ... : A-3 04 7 P7E ... ... : ... .. . ... ... ... : ... .. . ... ... ... : ... .. . ... ... ...
ROW 42 : ... .. . ... ... ... : ... .. . ... ... ... : ... .. . ... ... ... : ... .. . ... ... ... : ... .. . ... ... ... : C-4 04 . P7D ... ... : C-4 04 . P86 ... ... : ... .. . ... ... ... : A-3 04 . P7D ... ... : G#3 04 . P82 ... ... : ... .. . ... ... ... : ... .. . ... ... ... : ... .. . ... ... ...
ROW 43 : ... .. . ... ... ... : ... .. . ... ... ... : ... .. . ... ... ... : ... .. . ... ... ... : ... .. . ... ... ... : B-3 04 . P7F ... ... : A#3 04 . P7D ... ... : ... .. . ... ... ... : G#3 04 . P81 ... ... : F#3 04 . P7D ... ... : ... .. . ... ... ... : ... .. . ... ... ... : ... .. . ... ... ...
ROW 44 : ... .. . ... ... ... : ... .. . ... ... ... : ... .. . ... ... ... : ... .. . ... ... ... : ... .. . ... ... ... : A#3 04 . P82 ... ... : A-3 04 . P81 ... ... : ... .. . ... ... ... : F#3 04 . P7C ... ... : F-3 04 . P82 ... ... : ... .. . ... ... ... : ... .. . ... ... ... : ... .. . ... ... ...
ROW 45 : ... .. . ... ... ... : ... .. . ... ... ... : ... .. . ... ... ... : ... .. . ... ... ... : ... .. . ... ... ... : A-3 04 . P85 ... ... : G#3 04 . P85 ... ... : ... .. . ... ... ... : F-3 04 . P82 ... ... : D#3 04 6 P81 ... ... : ... .. . ... ... ... : ... .. . ... ... ... : ... .. . ... ... ...
ROW 46 : ... .. . ... ... ... : C-4 02 . P80 ... ... : C#4 00 . P7F ... ... : ... .. F ... ... ... : C#1 12 . ... ... ... : G#1 04 F P80 ... ... : F#3 04 . P7F ... ... : G-1 04 9 ... ... ... : A-1 04 9 ... ... ... : C#3 04 . ... ... ... : ... .. . ... ... ... : ... .. . ... ... ... : ... .. . ... ... ...
ROW 47 : ... .. . ... ... ... : F-3 02 . ... ... ... : F#3 00 . P83 ... ... : 2-# 00 7 ... ... ... : ... .. . ... ... ... : ... .. . ... ... ... : F-3 04 . P84 ... ... : ... .. . ... ... ... : ... .. . ... ... ... : B-2 04 . P82 ... ... : ... .. . ... ... ... : ... .. . ... ... ... : ... .. . ... ... ...
ROW 48 : ... .. . ... ... ... : A#2 02 . P81 ... ... : C#3 00 . P89 ... ... : 6-# 00 C ... ... ... : ... .. . ... ... ... : ... .. . ... ... ... : D#3 04 . ... ... ... : ... .. . ... ... ... : ... .. . ... ... ... : G#2 04 . P80 ... ... : ... .. . ... ... ... : ... .. . ... ... ... : ... .. . ... ... ...
ROW 49 : ... .. . ... ... ... : D#2 02 . ... ... ... : A#2 00 . P75 ... ... : 7-# 00 8 ... ... ... : ... .. . ... ... ... : ... .. . ... ... ... : C#3 04 . ... ... ... : ... .. . ... ... ... : ... .. . ... ... ... : F-2 04 5 ... ... ... : ... .. . ... ... ... : ... .. . ... ... ... : ... .. . ... ... ...
ROW 4A : ... .. . ... ... ... : G#1 02 . ... ... ... : G-2 00 . P70 ... ... : 8-# 00 7 ... ... ... : ... .. . ... ... ... : ... .. . ... ... ... : A#2 04 . P7E ... ... : ... .. 8 ... ... ... : ... .. . ... ... ... : C#2 04 . ... ... ... : ... .. . ... ... ... : ... .. . ... ... ... : ... .. . ... ... ...
ROW 4B : ... .. . ... ... ... : C#1 02 . ... ... ... : E-2 00 . P7C ... ... : ... .. 6 ... ... ... : ... .. . ... ... ... : ... .. . ... ... ... : G#2 04 . P82 ... ... : ... .. . ... ... ... : ... .. . ... ... ... : G#1 04 . P7F ... ... : ... .. . ... ... ... : ... .. . ... ... ... : ... .. . ... ... ...
ROW 4C : ... .. . ... ... ... : ... .. . ... ... ... : --- .. . ... ... ... : ... .. . ... ... ... : ... .. . ... ... ... : G#2 04 . ... ... ... : E-2 04 . P7F ... ... : G#2 04 . P82 ... ... : G#2 04 . P7F ... ... : D-1 04 . P81 ... ... : ... .. . ... ... ... : ... .. . ... ... ... : ... .. . ... ... ...
ROW 4D : ... .. . ... ... ... : ... .. . ... ... ... : ... .. . ... ... ... : ... .. 5 ... ... ... : ... .. . ... ... ... : ... .. . ... ... ... : C-2 04 . P80 ... ... : ... .. . ... ... ... : ... .. . ... ... ... : D#0 04 4 ... ... ... : ... .. . ... ... ... : ... .. . ... ... ... : ... .. . ... ... ...
ROW 4E : ... .. . ... ... ... : ... .. . ... ... ... : ... .. . ... ... ... : ... .. . ... ... ... : ... .. . ... ... ... : ... .. . ... ... ... : G-1 04 . P7F ... ... : ... .. 7 ... ... ... : ... .. 8 ... ... ... : --- .. . P7F ... ... : ... .. . ... ... ... : ... .. . ... ... ... : ... .. . ... ... ...
ROW 4F : ... .. . ... ... ... : ... .. . ... ... ... : ... .. . ... ... ... : ... .. 4 ... ... ... : ... .. . ... ... ... : ... .. . ... ... ... : C#1 04 . P81 ... ... : ... .. . ... ... ... : ... .. . ... ... ... : D#7 04 . P81 ... ... : ... .. . ... ... ... : ... .. . ... ... ... : ... .. . ... ... ...
ROW 50 : ... .. . ... ... ... : ... .. . ... ... ... : ... .. . ... ... ... : ... .. . ... ... ... : ... .. . ... ... ... : ... .. . ... ... ... : C-0 04 . P80 ... ... : ... .. . ... ... ... : ... .. . ... ... ... : ... .. . ... ... ... : ... .. . ... ... ... : ... .. . ... ... ... : ... .. . ... ... ...
ROW 51 : ... .. . ... ... ... : ... .. . ... ... ... : ... .. . ... ... ... : ... .. 3 ... ... ... : ... .. . ... ... ... : ... .. . ... ... ... : D#7 04 . P82 ... ... : ... .. . ... ... ... : ... .. . ... ... ... : ... .. 3 ... ... ... : ... .. . ... ... ... : ... .. . ... ... ... : ... .. . ... ... ...
ROW 52 : ... .. . ... ... ... : ... .. . ... ... ... : ... .. . ... ... ... : D-# 00 A ... ... ... : ... .. . ... ... ... : C#2 04 . ... ... ... : --- .. . ... ... ... : C#2 04 6 ... ... ... : C#2 04 . ... ... ... : ... .. . ... ... ... : ... .. . ... ... ... : ... .. . ... ... ... : ... .. . ... ... ...
ROW 53 : ... .. . ... ... ... : ... .. . ... ... ... : ... .. . ... ... ... : E-# 00 4 ... ... ... : ... .. . ... ... ... : ... .. . ... ... ... : ... .. . P80 ... ... : ... .. . ... ... ... : ... .. . ... ... ... : ... .. . ... ... ... : ... .. . ... ... ... : ... .. . ... ... ... : ... .. . ... ... ...
ROW 54 : ... .. . ... ... ... : ... .. . ... ... ... : ... .. . ... ... ... : D-# 00 2 ... ... ... : ... .. . ... ... ... : ... .. . ... ... ... : ... .. . ... ... ... : ... .. . ... ... ... : ... .. . ... ... ... : ... .. . ... ... ... : ... .. . ... ... ... : ... .. . ... ... ... : ... .. . ... ... ...
ROW 55 : ... .. . ... ... ... : ... .. . ... ... ... : ... .. . ... ... ... : ... .. 1 ... ... ... : ... .. . ... ... ... : ... .. . ... ... ... : ... .. . ... ... ... : ... .. . ... ... ... : ... .. . ... ... ... : ... .. 2 ... ... ... : ... .. . ... ... ... : ... .. . ... ... ... : ... .. . ... ... ...
ROW 56 : ... .. . ... ... ... : ... .. . ... ... ... : ... .. . ... ... ... : ... .. . ... ... ... : ... .. . ... ... ... : ... .. . ... ... ... : ... .. . ... ... ... : ... .. 5 ... ... ... : ... .. 7 ... ... ... : ... .. . ... ... ... : ... .. . ... ... ... : ... .. . ... ... ... : ... .. . ... ... ...
ROW 57 : ... .. . ... ... ... : ... .. . ... ... ... : ... .. . ... ... ... : --- .. . ... ... ... : ... .. . ... ... ... : ... .. . ... ... ... : ... .. . ... ... ... : ... .. . ... ... ... : ... .. . ... ... ... : ... .. . ... ... ... : ... .. . ... ... ... : ... .. . ... ... ... : ... .. . ... ... ...
ROW 58 : ... .. . ... ... ... : ... .. . ... ... ... : ... .. . ... ... ... : D-# 00 A ... ... ... : ... .. . ... ... ... : C#3 04 . ... ... ... : ... .. . ... ... ... : C#3 04 . ... ... ... : C#3 04 . ... ... ... : --- .. . ... ... ... : ... .. . ... ... ... : ... .. . ... ... ... : ... .. . ... ... ...
ROW 59 : ... .. . ... ... ... : ... .. . ... ... ... : ... .. . ... ... ... : E-# 00 4 ... ... ... : ... .. . ... ... ... : ... .. . ... ... ... : ... .. . ... ... ... : ... .. . ... ... ... : ... .. . ... ... ... : ... .. . P80 ... ... : ... .. . ... ... ... : ... .. . ... ... ... : ... .. . ... ... ...
ROW 5A : ... .. . ... ... ... : ... .. . ... ... ... : ... .. . ... ... ... : D-# 00 2 ... ... ... : ... .. . ... ... ... : ... .. . ... ... ... : ... .. . ... ... ... : ... .. 4 ... ... ... : ... .. . ... ... ... : ... .. . ... ... ... : ... .. . ... ... ... : ... .. . ... ... ... : ... .. . ... ... ...
ROW 5B : ... .. . ... ... ... : ... .. . ... ... ... : ... .. . ... ... ... : ... .. 1 ... ... ... : ... .. . ... ... ... : ... .. . ... ... ... : ... .. . ... ... ... : ... .. . ... ... ... : ... .. . ... ... ... : ... .. . ... ... ... : ... .. . ... ... ... : ... .. . ... ... ... : ... .. . ... ... ...
ROW 5C : ... .. . ... ... ... : ... .. . ... ... ... : ... .. . ... ... ... : ... .. . ... ... ... : ... .. . ... ... ... : ... .. . ... ... ... : ... .. . ... ... ... : ... .. . ... ... ... : ... .. . ... ... ... : ... .. . ... ... ... : ... .. . ... ... ... : ... .. . ... ... ... : ... .. . ... ... ...
ROW 5D : ... .. . ... ... ... : ... .. . ... ... ... : ... .. . ... ... ... : --- .. . ... ... ... : ... .. . ... ... ... : ... .. . ... ... ... : ... .. . ... ... ... : ... .. . ... ... ... : ... .. . ... ... ... : ... .. . ... ... ... : ... .. . ... ... ... : ... .. . ... ... ... : ... .. . ... ... ...
ROW 5E : ... .. . ... ... ... : ... .. . ... ... ... : ... .. . ... ... ... : ... .. . ... ... ... : ... .. . ... ... ... : ... .. . ... ... ... : ... .. . ... ... ... : ... .. 3 ... ... ... : ... .. 6 ... ... ... : ... .. . ... ... ... : ... .. . ... ... ... : ... .. . ... ... ... : ... .. . ... ... ...
ROW 5F : ... .. . ... ... ... : C-4 02 . P80 ... ... : F#3 00 . P78 ... ... : 1-# 00 F ... ... ... : C-1 12 . ... ... ... : B-4 0C 7 P7C ... ... : ... .. . ... ... ... : --- .. . ... ... ... : A#3 0C 1 P85 ... ... : ... .. . ... ... ... : ... .. . ... ... ... : ... .. . ... ... ... : ... .. . ... ... ...
ROW 60 : ... .. . ... ... ... : F-3 02 . ... ... ... : C#3 00 . P7E ... ... : 2-# 00 7 ... ... ... : ... .. . ... ... ... : A#4 0C . P79 ... ... : ... .. . ... ... ... : ... .. . P80 ... ... : G-3 0C . ... ... ... : ... .. . ... ... ... : ... .. . ... ... ... : ... .. . ... ... ... : ... .. . ... ... ...
ROW 61 : ... .. . ... ... ... : A#2 02 . P81 ... ... : A-2 00 . P86 ... ... : 1-# 00 4 ... ... ... : ... .. . ... ... ... : A-4 0C . P78 ... ... : ... .. . ... ... ... : ... .. . ... ... ... : D#3 0C . P82 ... ... : ... .. . ... ... ... : ... .. . ... ... ... : ... .. . ... ... ... : ... .. . ... ... ...
ROW 62 : ... .. . ... ... ... : D#2 02 . ... ... ... : --- .. . ... ... ... : ... .. 2 ... ... ... : ... .. . ... ... ... : G#4 0C . ... ... ... : ... .. . ... ... ... : ... .. . ... ... ... : A#2 0C . P7F ... ... : ... .. . ... ... ... : ... .. . ... ... ... : ... .. . ... ... ... : ... .. . ... ... ...
ROW 63 : ... .. . ... ... ... : G#1 02 . ... ... ... : ... .. . ... ... ... : ... .. 1 ... ... ... : ... .. . ... ... ... : G-4 0C . ... ... ... : ... .. . ... ... ... : ... .. . ... ... ... : E-2 0C . P81 ... ... : ... .. . ... ... ... : ... .. . ... ... ... : ... .. . ... ... ... : ... .. . ... ... ...
ROW 64 : ... .. . ... ... ... : C#1 02 . ... ... ... : ... .. . ... ... ... : --- .. . ... ... ... : ... .. . ... ... ... : --- .. . ... ... ... : ... .. . ... ... ... : ... .. . ... ... ... : --- .. . ... ... ... : ... .. . ... ... ... : ... .. . ... ... ... : ... .. . ... ... ... : ... .. . ... ... ...
ROW 65 : ... .. . ... ... ... : ... .. . ... ... ... : ... .. . ... ... ... : ... .. . ... ... ... : ... .. . ... ... ... : B-4 0C . P7C ... ... : ... .. . ... ... ... : ... .. . ... ... ... : A#3 0C . P85 ... ... : ... .. . ... ... ... : ... .. . ... ... ... : ... .. . ... ... ... : ... .. . ... ... ...
ROW 66 : ... .. . ... ... ... : ... .. . ... ... ... : ... .. . ... ... ... : ... .. . ... ... ... : ... .. . ... ... ... : A#4 0C . P79 ... ... : ... .. . ... ... ... : ... .. . ... ... ... : G-3 0C . ... ... ... : ... .. . ... ... ... : ... .. . ... ... ... : ... .. . ... ... ... : ... .. . ... ... ...
ROW 67 : ... .. . ... ... ... : ... .. . ... ... ... : ... .. . ... ... ... : ... .. . ... ... ... : ... .. . ... ... ... : A-4 0C . P78 ... ... : ... .. . ... ... ... : ... .. . ... ... ... : --- .. . ... ... ... : ... .. . ... ... ... : ... .. . ... ... ... : ... .. . ... ... ... : ... .. . ... ... ...
ROW 68 : ... .. . ... ... ... : ... .. . ... ... ... : ... .. . ... ... ... : ... .. . ... ... ... : ... .. . ... ... ... : G#4 0C . ... ... ... : ... .. . ... ... ... : ... .. . ... ... ... : ... .. . P80 ... ... : ... .. . ... ... ... : ... .. . ... ... ... : ... .. . ... ... ... : ... .. . ... ... ...
ROW 69 : ... .. . ... ... ... : ... .. . ... ... ... : ... .. . ... ... ... : ... .. . ... ... ... : ... .. . ... ... ... : G-4 0C . ... ... ... : ... .. . ... ... ... : ... .. . ... ... ... : ... .. . ... ... ... : ... .. . ... ... ... : ... .. . ... ... ... : ... .. . ... ... ... : ... .. . ... ... ...
ROW 6A : ... .. . ... ... ... : ... .. . ... ... ... : ... .. . ... ... ... : ... .. . ... ... ... : ... .. . ... ... ... : --- .. . ... ... ... : ... .. . ... ... ... : ... .. . ... ... ... : ... .. . ... ... ... : ... .. . ... ... ... : ... .. . ... ... ... : ... .. . ... ... ... : ... .. . ... ... ...
ROW 6B : ... .. . ... ... ... : ... .. . ... ... ... : ... .. . ... ... ... : D-# 00 A ... ... ... : ... .. . ... ... ... : C#3 05 A P80 ... ... : C-3 05 . P7E ... ... : C#3 05 9 P7E ... ... : G#2 05 9 P81 ... ... : ... .. . ... ... ... : ... .. . ... ... ... : ... .. . ... ... ... : ... .. . ... ... ...
ROW 6C : ... .. . ... ... ... : ... .. . ... ... ... : ... .. . ... ... ... : E-# 00 4 ... ... ... : ... .. . ... ... ... : ... .. . ... ... ... : C#3 05 . P83 ... ... : ... .. . ... ... ... : ... .. . ... ... ... : ... .. . ... ... ... : ... .. . ... ... ... : ... .. . ... ... ... : ... .. . ... ... ...
ROW 6D : ... .. . ... ... ... : ... .. . ... ... ... : ... .. . ... ... ... : D-# 00 2 ... ... ... : ... .. . ... ... ... : ... .. . ... ... ... : ... .. . P82 ... ... : ... .. . ... ... ... : ... .. . ... ... ... : ... .. . ... ... ... : ... .. . ... ... ... : ... .. . ... ... ... : ... .. . ... ... ...
ROW 6E : ... .. . ... ... ... : ... .. . ... ... ... : ... .. . ... ... ... : ... .. 1 ... ... ... : ... .. . ... ... ... : ... .. . ... ... ... : ... .. . P83 ... ... : ... .. . ... ... ... : ... .. . ... ... ... : ... .. . ... ... ... : ... .. . ... ... ... : ... .. . ... ... ... : ... .. . ... ... ...
ROW 6F : ... .. . ... ... ... : ... .. . ... ... ... : ... .. . ... ... ... : ... .. . ... ... ... : ... .. . ... ... ... : --- .. . ... ... ... : --- .. . ... ... ... : --- .. . ... ... ... : --- .. . ... ... ... : ... .. . ... ... ... : ... .. . ... ... ... : ... .. . ... ... ... : ... .. . ... ... ...
ROW 70 : ... .. . ... ... ... : ... .. . ... ... ... : ... .. . ... ... ... : --- .. . ... ... ... : ... .. . ... ... ... : ... .. . ... ... ... : ... .. . P80 ... ... : ... .. . P80 ... ... : ... .. . P80 ... ... : ... .. . ... ... ... : ... .. . ... ... ... : ... .. . ... ... ... : ... .. . ... ... ...
ROW 71 : ... .. . ... ... ... : ... .. . ... ... ... : ... .. . ... ... ... : D-# 00 A ... ... ... : ... .. . ... ... ... : C#3 05 4 ... ... ... : C#3 05 4 P82 ... ... : C#3 05 3 P7E ... ... : G#2 05 3 P81 ... ... : ... .. . ... ... ... : ... .. . ... ... ... : ... .. . ... ... ... : ... .. . ... ... ...
ROW 72 : ... .. . ... ... ... : ... .. . ... ... ... : ... .. . ... ... ... : E-# 00 4 ... ... ... : ... .. . ... ... ... : ... .. . ... ... ... : ... .. . P83 ... ... : ... .. . ... ... ... : ... .. . ... ... ... : ... .. . ... ... ... : ... .. . ... ... ... : ... .. . ... ... ... : ... .. . ... ... ...
ROW 73 : ... .. . ... ... ... : ... .. . ... ... ... : ... .. . ... ... ... : D-# 00 2 ... ... ... : ... .. . ... ... ... : ... .. . ... ... ... : C-3 05 . P7E ... ... : ... .. . ... ... ... : ... .. . ... ... ... : ... .. . ... ... ... : ... .. . ... ... ... : ... .. . ... ... ... : ... .. . ... ... ...
ROW 74 : ... .. . ... ... ... : ... .. . ... ... ... : ... .. . ... ... ... : ... .. 1 ... ... ... : ... .. . ... ... ... : ... .. . ... ... ... : C#3 05 . P83 ... ... : ... .. . ... ... ... : ... .. . ... ... ... : ... .. . ... ... ... : ... .. . ... ... ... : ... .. . ... ... ... : ... .. . ... ... ...
ROW 75 : ... .. . ... ... ... : ... .. . ... ... ... : ... .. . ... ... ... : ... .. . ... ... ... : ... .. . ... ... ... : ... .. . ... ... ... : ... .. . P82 ... ... : ... .. 2 ... ... ... : ... .. . ... ... ... : ... .. . ... ... ... : ... .. . ... ... ... : ... .. . ... ... ... : ... .. . ... ... ...
ROW 76 : ... .. . ... ... ... : ... .. . ... ... ... : ... .. . ... ... ... : --- .. . ... ... ... : ... .. . ... ... ... : --- .. . ... ... ... : --- .. . ... ... ... : --- .. . ... ... ... : --- .. . ... ... ... : ... .. . ... ... ... : ... .. . ... ... ... : ... .. . ... ... ... : ... .. . ... ... ...
ROW 77 : ... .. . ... ... ... : ... .. . ... ... ... : ... .. . ... ... ... : ... .. . ... ... ... : ... .. . ... ... ... : ... .. . ... ... ... : ... .. . P80 ... ... : ... .. . P80 ... ... : ... .. . P80 ... ... : ... .. . ... ... ... : ... .. . ... ... ... : ... .. . ... ... ... : ... .. . ... ... ...
ROW 78 : ... .. . ... ... ... : C-4 02 . P80 ... ... : C#4 00 . P7F ... ... : 9-# 00 F ... ... ... : C#1 12 . ... ... ... : F#3 05 A ... ... ... : F#3 05 A P84 ... ... : F#3 05 9 P7E ... ... : D#3 05 9 P81 ... ... : ... .. . ... ... ... : ... .. . ... ... ... : ... .. . ... ... ... : ... .. . ... ... ...
ROW 79 : ... .. . ... ... ... : F-3 02 . ... ... ... : F#3 00 . P83 ... ... : 2-# 00 7 ... ... ... : ... .. . ... ... ... : ... .. . ... ... ... : ... .. . P83 ... ... : ... .. . ... ... ... : ... .. . ... ... ... : ... .. . ... ... ... : ... .. . ... ... ... : ... .. . ... ... ... : ... .. . ... ... ...
ROW 7A : ... .. . ... ... ... : A#2 02 . P81 ... ... : C#3 00 . P89 ... ... : 6-# 00 C ... ... ... : ... .. . ... ... ... : ... .. . ... ... ... : ... .. . P82 ... ... : ... .. . ... ... ... : ... .. . ... ... ... : ... .. . ... ... ... : ... .. . ... ... ... : ... .. . ... ... ... : ... .. . ... ... ...
ROW 7B : ... .. . ... ... ... : D#2 02 . ... ... ... : A#2 00 . P75 ... ... : 7-# 00 8 ... ... ... : ... .. . ... ... ... : ... .. . ... ... ... : ... .. . P83 ... ... : ... .. . ... ... ... : ... .. . ... ... ... : ... .. . ... ... ... : ... .. . ... ... ... : ... .. . ... ... ... : ... .. . ... ... ...
ROW 7C : ... .. . ... ... ... : G#1 02 . ... ... ... : G-2 00 . P70 ... ... : 8-# 00 7 ... ... ... : ... .. . ... ... ... : --- .. . ... ... ... : --- .. . ... ... ... : --- .. . ... ... ... : --- .. . ... ... ... : ... .. . ... ... ... : ... .. . ... ... ... : ... .. . ... ... ... : ... .. . ... ... ...
ROW 7D : ... .. . ... ... ... : C#1 02 . ... ... ... : E-2 00 . P7C ... ... : ... .. 6 ... ... ... : ... .. . ... ... ... : ... .. . ... ... ... : ... .. . P80 ... ... : ... .. . P80 ... ... : ... .. . P80 ... ... : ... .. . ... ... ... : ... .. . ... ... ... : ... .. . ... ... ... : ... .. . ... ... ...
ROW 7E : ... .. . ... ... ... : ... .. . ... ... ... : --- .. . ... ... ... : ... .. . ... ... ... : ... .. . ... ... ... : F#3 05 4 ... ... ... : F#3 05 4 P82 ... ... : F#3 05 3 P7E ... ... : D#3 05 3 P81 ... ... : ... .. . ... ... ... : ... .. . ... ... ... : ... .. . ... ... ... : ... .. . ... ... ...
ROW 7F : ... .. . ... ... ... : ... .. . ... ... ... : ... .. . ... ... ... : ... .. 5 ... ... ... : ... .. . ... ... ... : ... .. . ... ... ... : ... .. . P83 ... ... : ... .. . ... ... ... : ... .. . ... ... ... : ... .. . ... ... ... : ... .. . ... ... ... : ... .. . ... ... ... : ... .. . ... ... ...
ROW 80 : ... .. . ... ... ... : ... .. . ... ... ... : ... .. . ... ... ... : ... .. . ... ... ... : ... .. . ... ... ... : ... .. . ... ... ... : ... .. . P84 ... ... : ... .. . ... ... ... : ... .. . ... ... ... : ... .. . ... ... ... : ... .. . ... ... ... : ... .. . ... ... ... : ... .. . ... ... ...
ROW 81 : ... .. . ... ... ... : ... .. . ... ... ... : ... .. . ... ... ... : ... .. 4 ... ... ... : ... .. . ... ... ... : ... .. . ... ... ... : ... .. . P83 ... ... : ... .. . ... ... ... : ... .. . ... ... ... : ... .. . ... ... ... : ... .. . ... ... ... : ... .. . ... ... ... : ... .. . ... ... ...
ROW 82 : ... .. . ... ... ... : ... .. . ... ... ... : ... .. . ... ... ... : ... .. . ... ... ... : ... .. . ... ... ... : --- .. . ... ... ... : --- .. . ... ... ... : --- .. . ... ... ... : --- .. . ... ... ... : ... .. . ... ... ... : ... .. . ... ... ... : ... .. . ... ... ... : ... .. . ... ... ...
ROW 83 : ... .. . ... ... ... : ... .. . ... ... ... : ... .. . ... ... ... : ... .. 3 ... ... ... : ... .. . ... ... ... : ... .. . ... ... ... : ... .. . P80 ... ... : ... .. . P80 ... ... : ... .. . P80 ... ... : ... .. . ... ... ... : ... .. . ... ... ... : ... .. . ... ... ... : ... .. . ... ... ...
ROW 84 : ... .. . ... ... ... : ... .. . ... ... ... : ... .. . ... ... ... : D-# 00 A ... ... ... : ... .. . ... ... ... : B-3 05 A ... ... ... : B-3 05 A P84 ... ... : B-3 05 9 P7E ... ... : F#3 05 9 P81 ... ... : ... .. . ... ... ... : ... .. . ... ... ... : ... .. . ... ... ... : ... .. . ... ... ...
ROW 85 : ... .. . ... ... ... : ... .. . ... ... ... : ... .. . ... ... ... : E-# 00 4 ... ... ... : ... .. . ... ... ... : ... .. . ... ... ... : ... .. . ... ... ... : ... .. . ... ... ... : ... .. . ... ... ... : ... .. . ... ... ... : ... .. . ... ... ... : ... .. . ... ... ... : ... .. . ... ... ...
ROW 86 : ... .. . ... ... ... : ... .. . ... ... ... : ... .. . ... ... ... : D-# 00 2 ... ... ... : ... .. . ... ... ... : ... .. . ... ... ... : ... .. . P83 ... ... : ... .. . ... ... ... : ... .. . ... ... ... : ... .. . ... ... ... : ... .. . ... ... ... : ... .. . ... ... ... : ... .. . ... ... ...
ROW 87 : ... .. . ... ... ... : ... .. . ... ... ... : ... .. . ... ... ... : ... .. 1 ... ... ... : ... .. . ... ... ... : ... .. . ... ... ... : ... .. . ... ... ... : ... .. . ... ... ... : ... .. . ... ... ... : ... .. . ... ... ... : ... .. . ... ... ... : ... .. . ... ... ... : ... .. . ... ... ...
ROW 88 : ... .. . ... ... ... : ... .. . ... ... ... : ... .. . ... ... ... : ... .. . ... ... ... : ... .. . ... ... ... : --- .. . ... ... ... : --- .. . ... ... ... : --- .. . ... ... ... : --- .. . ... ... ... : ... .. . ... ... ... : ... .. . ... ... ... : ... .. . ... ... ... : ... .. . ... ... ...
ROW 89 : ... .. . ... ... ... : ... .. . ... ... ... : ... .. . ... ... ... : --- .. . ... ... ... : ... .. . ... ... ... : ... .. . ... ... ... : ... .. . P80 ... ... : ... .. . P80 ... ... : ... .. . P80 ... ... : ... .. . ... ... ... : ... .. . ... ... ... : ... .. . ... ... ... : ... .. . ... ... ...
ROW 8A : ... .. . ... ... ... : ... .. . ... ... ... : ... .. . ... ... ... : D-# 00 A ... ... ... : ... .. . ... ... ... : B-3 05 4 ... ... ... : B-3 05 . P83 ... ... : B-3 05 . P7E ... ... : F#3 05 . P81 ... ... : ... .. . ... ... ... : ... .. . ... ... ... : ... .. . ... ... ... : ... .. . ... ... ...
ROW 8B : ... .. . ... ... ... : ... .. . ... ... ... : ... .. . ... ... ... : E-# 00 4 ... ... ... : ... .. . ... ... ... : ... .. . ... ... ... : ... .. . P82 ... ... : ... .. . ... ... ... : ... .. . ... ... ... : ... .. . ... ... ... : ... .. . ... ... ... : ... .. . ... ... ... : ... .. . ... ... ...
ROW 8C : ... .. . ... ... ... : ... .. . ... ... ... : ... .. . ... ... ... : D-# 00 2 ... ... ... : ... .. . ... ... ... : ... .. . ... ... ... : ... .. . P83 ... ... : ... .. . ... ... ... : ... .. . ... ... ... : ... .. . ... ... ... : ... .. . ... ... ... : ... .. . ... ... ... : ... .. . ... ... ...
ROW 8D : ... .. . ... ... ... : ... .. . ... ... ... : ... .. . ... ... ... : ... .. 1 ... ... ... : ... .. . ... ... ... : ... .. . ... ... ... : ... .. . P84 ... ... : ... .. . ... ... ... : ... .. . ... ... ... : ... .. . ... ... ... : ... .. . ... ... ... : ... .. . ... ... ... : ... .. . ... ... ...
ROW 8E : ... .. . ... ... ... : ... .. . ... ... ... : ... .. . ... ... ... : ... .. . ... ... ... : ... .. . ... ... ... : ... .. . ... ... ... : ... .. . P83 ... ... : ... .. 8 ... ... ... : ... .. . ... ... ... : ... .. . ... ... ... : ... .. . ... ... ... : ... .. . ... ... ... : ... .. . ... ... ...
ROW 8F : ... .. . ... ... ... : ... .. . ... ... ... : ... .. . ... ... ... : --- .. . ... ... ... : ... .. . ... ... ... : --- .. . ... ... ... : --- .. . ... ... ... : --- .. . ... ... ... : --- .. . ... ... ... : ... .. . ... ... ... : ... .. . ... ... ... : ... .. . ... ... ... : ... .. . ... ... ...
ROW 90 : ... .. . ... ... ... : ... .. . ... ... ... : ... .. . ... ... ... : ... .. . ... ... ... : ... .. . ... ... ... : ... .. . ... ... ... : ... .. . P80 ... ... : ... .. . P80 ... ... : ... .. . P80 ... ... : ... .. . ... ... ... : ... .. . ... ... ... : ... .. . ... ... ... : ... .. . ... ... ...
ROW 91 : ... .. . ... ... ... : C-4 02 . P80 ... ... : F#3 00 . P78 ... ... : 1-# 00 F ... ... ... : C-1 12 . ... ... ... : D#2 06 F ... ... ... : D-2 06 F P7F ... ... : ... .. . ... ... ... : D#2 06 E P7F ... ... : D#3 06 B P81 ... ... : ... .. . ... ... ... : ... .. . ... ... ... : ... .. . ... ... ...
ROW 92 : ... .. . ... ... ... : F-3 02 . ... ... ... : C#3 00 . P7E ... ... : 2-# 00 7 ... ... ... : ... .. . ... ... ... : ... .. . ... ... ... : D#2 06 . P81 ... ... : ... .. . ... ... ... : ... .. . ... ... ... : ... .. . ... ... ... : ... .. . ... ... ... : ... .. . ... ... ... : ... .. . ... ... ...
ROW 93 : ... .. . ... ... ... : A#2 02 . P81 ... ... : A-2 00 . P86 ... ... : 1-# 00 4 ... ... ... : ... .. . ... ... ... : ... .. . ... ... ... : ... .. . P80 ... ... : ... .. . ... ... ... : ... .. . ... ... ... : ... .. . ... ... ... : ... .. . ... ... ... : ... .. . ... ... ... : ... .. . ... ... ...
ROW 94 : ... .. . ... ... ... : D#2 02 . ... ... ... : --- .. . ... ... ... : ... .. 2 ... ... ... : ... .. . ... ... ... : D#2 09 . ... ... ... : D#2 09 . P81 ... ... : ... .. . ... ... ... : D#2 09 . ... ... ... : D#3 09 . ... ... ... : ... .. . ... ... ... : ... .. . ... ... ... : ... .. . ... ... ...
ROW 95 : ... .. . ... ... ... : G#1 02 . ... ... ... : ... .. . ... ... ... : ... .. 1 ... ... ... : ... .. . ... ... ... : ... .. . ... ... ... : D-2 09 . P7F ... ... : ... .. . ... ... ... : ... .. . ... ... ... : ... .. A ... ... ... : ... .. . ... ... ... : ... .. . ... ... ... : ... .. . ... ... ...
ROW 96 : ... .. . ... ... ... : C#1 02 . ... ... ... : ... .. . ... ... ... : --- .. . ... ... ... : ... .. . ... ... ... : ... .. . ... ... ... : D#2 09 . P82 ... ... : ... .. . ... ... ... : ... .. . ... ... ... : ... .. . ... ... ... : ... .. . ... ... ... : ... .. . ... ... ... : ... .. . ... ... ...
ROW 97 : ... .. . ... ... ... : ... .. . ... ... ... : ... .. . ... ... ... : ... .. . ... ... ... : ... .. . ... ... ... : D#2 06 . ... ... ... : D#2 06 . P81 ... ... : ... .. . ... ... ... : D#2 06 . ... ... ... : D#3 06 . ... ... ... : ... .. . ... ... ... : ... .. . ... ... ... : ... .. . ... ... ...
ROW 98 : ... .. . ... ... ... : ... .. . ... ... ... : ... .. . ... ... ... : ... .. . ... ... ... : ... .. . ... ... ... : ... .. . ... ... ... : ... .. . ... ... ... : ... .. . ... ... ... : ... .. . ... ... ... : ... .. . ... ... ... : ... .. . ... ... ... : ... .. . ... ... ... : ... .. . ... ... ...
ROW 99 : ... .. . ... ... ... : ... .. . ... ... ... : ... .. . ... ... ... : ... .. . ... ... ... : ... .. . ... ... ... : ... .. . ... ... ... : ... .. . P82 ... ... : ... .. . ... ... ... : ... .. D ... ... ... : ... .. 9 ... ... ... : ... .. . ... ... ... : ... .. . ... ... ... : ... .. . ... ... ...
ROW 9A : ... .. . ... ... ... : ... .. . ... ... ... : ... .. . ... ... ... : ... .. . ... ... ... : ... .. . ... ... ... : D#2 09 . ... ... ... : D-2 09 . P7F ... ... : ... .. . ... ... ... : D#2 09 . ... ... ... : D#3 09 . ... ... ... : ... .. . ... ... ... : ... .. . ... ... ... : ... .. . ... ... ...
ROW 9B : ... .. . ... ... ... : ... .. . ... ... ... : ... .. . ... ... ... : ... .. . ... ... ... : ... .. . ... ... ... : ... .. . ... ... ... : D#2 09 . P81 ... ... : ... .. . ... ... ... : ... .. . ... ... ... : ... .. . ... ... ... : ... .. . ... ... ... : ... .. . ... ... ... : ... .. . ... ... ...
ROW 9C : ... .. . ... ... ... : ... .. . ... ... ... : ... .. . ... ... ... : ... .. . ... ... ... : ... .. . ... ... ... : ... .. . ... ... ... : ... .. . P80 ... ... : ... .. . ... ... ... : ... .. . ... ... ... : ... .. . ... ... ... : ... .. . ... ... ... : ... .. . ... ... ... : ... .. . ... ... ...
ROW 9D : ... .. . ... ... ... : ... .. . ... ... ... : ... .. . ... ... ... : D-# 00 A ... ... ... : ... .. . ... ... ... : D#2 06 . ... ... ... : D#2 06 . P81 ... ... : ... .. . ... ... ... : D#2 06 . ... ... ... : D#3 06 8 ... ... ... : ... .. . ... ... ... : ... .. . ... ... ... : ... .. . ... ... ...
ROW 9E : ... .. . ... ... ... : ... .. . ... ... ... : ... .. . ... ... ... : E-# 00 4 ... ... ... : ... .. . ... ... ... : ... .. . ... ... ... : D-2 06 . P7F ... ... : ... .. . ... ... ... : ... .. . ... ... ... : ... .. . ... ... ... : ... .. . ... ... ... : ... .. . ... ... ... : ... .. . ... ... ...
ROW 9F : ... .. . ... ... ... : ... .. . ... ... ... : ... .. . ... ... ... : D-# 00 2 ... ... ... : ... .. . ... ... ... : ... .. . ... ... ... : D#2 06 . P81 ... ... : ... .. . ... ... ... : ... .. . ... ... ... : ... .. . ... ... ... : ... .. . ... ... ... : ... .. . ... ... ... : ... .. . ... ... ...
ROW A0 : ... .. . ... ... ... : ... .. . ... ... ... : ... .. . ... ... ... : ... .. 1 ... ... ... : ... .. . ... ... ... : D#2 09 . ... ... ... : D#2 09 . P80 ... ... : ... .. . ... ... ... : D#2 09 . ... ... ... : D#3 09 . ... ... ... : ... .. . ... ... ... : ... .. . ... ... ... : ... .. . ... ... ...
ROW A1 : ... .. . ... ... ... : ... .. . ... ... ... : ... .. . ... ... ... : ... .. . ... ... ... : ... .. . ... ... ... : ... .. . ... ... ... : ... .. . P81 ... ... : ... .. . ... ... ... : ... .. C ... ... ... : ... .. 7 ... ... ... : ... .. . ... ... ... : ... .. . ... ... ... : ... .. . ... ... ...
ROW A2 : ... .. . ... ... ... : ... .. . ... ... ... : ... .. . ... ... ... : --- .. . ... ... ... : ... .. . ... ... ... : ... .. . ... ... ... : D-2 09 . P7F ... ... : ... .. . ... ... ... : ... .. . ... ... ... : ... .. . ... ... ... : ... .. . ... ... ... : ... .. . ... ... ... : ... .. . ... ... ...
ROW A3 : ... .. . ... ... ... : ... .. . ... ... ... : ... .. . ... ... ... : D-# 00 A ... ... ... : ... .. . ... ... ... : D#2 06 . ... ... ... : D#2 06 . P81 ... ... : ... .. . ... ... ... : D#2 06 . ... ... ... : D#3 06 . ... ... ... : ... .. . ... ... ... : ... .. . ... ... ... : ... .. . ... ... ...
ROW A4 : ... .. . ... ... ... : ... .. . ... ... ... : ... .. . ... ... ... : E-# 00 4 ... ... ... : ... .. . ... ... ... : ... .. . ... ... ... : ... .. . P80 ... ... : ... .. . ... ... ... : ... .. . ... ... ... : ... .. . ... ... ... : ... .. . ... ... ... : ... .. . ... ... ... : ... .. . ... ... ...
ROW A5 : ... .. . ... ... ... : ... .. . ... ... ... : ... .. . ... ... ... : D-# 00 2 ... ... ... : ... .. . ... ... ... : ... .. . ... ... ... : ... .. . P81 ... ... : ... .. . ... ... ... : ... .. . ... ... ... : ... .. 6 ... ... ... : ... .. . ... ... ... : ... .. . ... ... ... : ... .. . ... ... ...
ROW A6 : ... .. . ... ... ... : ... .. . ... ... ... : ... .. . ... ... ... : ... .. 1 ... ... ... : ... .. . ... ... ... : D#2 09 . ... ... ... : D#2 09 . P82 ... ... : ... .. . ... ... ... : D#2 09 . ... ... ... : D#3 09 . ... ... ... : ... .. . ... ... ... : ... .. . ... ... ... : ... .. . ... ... ...
ROW A7 : ... .. . ... ... ... : ... .. . ... ... ... : ... .. . ... ... ... : ... .. . ... ... ... : ... .. . ... ... ... : ... .. . ... ... ... : ... .. . ... ... ... : ... .. . ... ... ... : ... .. . ... ... ... : ... .. . ... ... ... : ... .. . ... ... ... : ... .. . ... ... ... : ... .. . ... ... ...
ROW A8 : ... .. . ... ... ... : ... .. . ... ... ... : ... .. . ... ... ... : --- .. . ... ... ... : ... .. . ... ... ... : ... .. . ... ... ... : ... .. . P81 ... ... : ... .. . ... ... ... : ... .. . ... ... ... : ... .. . ... ... ... : ... .. . ... ... ... : ... .. . ... ... ... : ... .. . ... ... ...
ROW A9 : ... .. . ... ... ... : ... .. . ... ... ... : ... .. . ... ... ... : ... .. . ... ... ... : ... .. . ... ... ... : ... .. . ... ... ... : ... .. . ... ... ... : ... .. . ... ... ... : ... .. B ... ... ... : ... .. 5 ... ... ... : ... .. . ... ... ... : ... .. . ... ... ... : ... .. . ... ... ...
ROW AA : ... .. . ... ... ... : C-4 02 . P80 ... ... : C#4 00 . P7F ... ... : 9-# 00 F ... ... ... : C#1 12 . ... ... ... : D-2 06 . ... ... ... : D-2 06 . P82 ... ... : ... .. . ... ... ... : D-2 06 . ... ... ... : D-3 06 . ... ... ... : ... .. . ... ... ... : ... .. . ... ... ... : ... .. . ... ... ...
ROW AB : ... .. . ... ... ... : F-3 02 . ... ... ... : F#3 00 . P83 ... ... : 2-# 00 7 ... ... ... : ... .. . ... ... ... : ... .. . ... ... ... : C#2 06 . P7F ... ... : ... .. . ... ... ... : ... .. . ... ... ... : ... .. . ... ... ... : ... .. . ... ... ... : ... .. . ... ... ... : ... .. . ... ... ...
ROW AC : ... .. . ... ... ... : A#2 02 . P81 ... ... : C#3 00 . P89 ... ... : 6-# 00 C ... ... ... : ... .. . ... ... ... : ... .. . ... ... ... : D-2 06 . P81 ... ... : ... .. . ... ... ... : ... .. . ... ... ... : ... .. . ... ... ... : ... .. . ... ... ... : ... .. . ... ... ... : ... .. . ... ... ...
ROW AD : ... .. . ... ... ... : D#2 02 . ... ... ... : A#2 00 . P75 ... ... : 7-# 00 8 ... ... ... : ... .. . ... ... ... : D-2 07 . ... ... ... : D-2 07 . P80 ... ... : ... .. . ... ... ... : D-2 07 . ... ... ... : D-3 07 4 ... ... ... : ... .. . ... ... ... : ... .. . ... ... ... : ... .. . ... ... ...
ROW AE : ... .. . ... ... ... : G#1 02 . ... ... ... : G-2 00 . P70 ... ... : 8-# 00 7 ... ... ... : ... .. . ... ... ... : ... .. . ... ... ... : ... .. . P81 ... ... : ... .. . ... ... ... : ... .. . ... ... ... : ... .. . ... ... ... : ... .. . ... ... ... : ... .. . ... ... ... : ... .. . ... ... ...
ROW AF : ... .. . ... ... ... : C#1 02 . ... ... ... : E-2 00 . P7C ... ... : ... .. 6 ... ... ... : ... .. . ... ... ... : ... .. . ... ... ... : C#2 07 . P7F ... ... : ... .. . ... ... ... : ... .. . ... ... ... : ... .. . ... ... ... : ... .. . ... ... ... : ... .. . ... ... ... : ... .. . ... ... ...
ROW B0 : ... .. . ... ... ... : ... .. . ... ... ... : --- .. . ... ... ... : ... .. . ... ... ... : ... .. . ... ... ... : D-2 08 . ... ... ... : D-2 08 . P81 ... ... : ... .. . ... ... ... : D-2 08 . ... ... ... : D-3 08 . ... ... ... : ... .. . ... ... ... : ... .. . ... ... ... : ... .. . ... ... ...
ROW B1 : ... .. . ... ... ... : ... .. . ... ... ... : ... .. . ... ... ... : ... .. 5 ... ... ... : ... .. . ... ... ... : ... .. . ... ... ... : ... .. . P80 ... ... : ... .. . ... ... ... : ... .. A ... ... ... : ... .. 3 ... ... ... : ... .. . ... ... ... : ... .. . ... ... ... : ... .. . ... ... ...
ROW B2 : ... .. . ... ... ... : ... .. . ... ... ... : ... .. . ... ... ... : ... .. . ... ... ... : ... .. . ... ... ... : ... .. . ... ... ... : ... .. . P81 ... ... : ... .. . ... ... ... : ... .. . ... ... ... : ... .. . ... ... ... : ... .. . ... ... ... : ... .. . ... ... ... : ... .. . ... ... ...
ROW B3 : ... .. . ... ... ... : ... .. . ... ... ... : ... .. . ... ... ... : ... .. 4 ... ... ... : ... .. . ... ... ... : D-2 09 . ... ... ... : C#2 09 . P7F ... ... : ... .. . ... ... ... : D-2 09 . ... ... ... : D-3 09 . ... ... ... : ... .. . ... ... ... : ... .. . ... ... ... : ... .. . ... ... ...
ROW B4 : ... .. . ... ... ... : ... .. . ... ... ... : ... .. . ... ... ... : ... .. . ... ... ... : ... .. . ... ... ... : ... .. . ... ... ... : D-2 09 . P81 ... ... : ... .. . ... ... ... : ... .. . ... ... ... : ... .. . ... ... ... : ... .. . ... ... ... : ... .. . ... ... ... : ... .. . ... ... ...
ROW B5 : ... .. . ... ... ... : ... .. . ... ... ... : ... .. . ... ... ... : ... .. 3 ... ... ... : ... .. . ... ... ... : ... .. . ... ... ... : ... .. . P80 ... ... : ... .. . ... ... ... : ... .. . ... ... ... : ... .. 2 ... ... ... : ... .. . ... ... ... : ... .. . ... ... ... : ... .. . ... ... ...
ROW B6 : ... .. . ... ... ... : F-3 02 . P80 ... ... : C#4 00 . P7F ... ... : 1-# 00 F ... ... ... : C-1 12 . ... ... ... : --- .. . ... ... ... : --- .. . ... ... ... : ... .. . ... ... ... : --- .. . ... ... ... : --- .. . ... ... ... : ... .. . ... ... ... : ... .. . ... ... ... : ... .. . ... ... ...
ROW B7 : ... .. . ... ... ... : A#2 02 . P81 ... ... : F#3 00 . P83 ... ... : 2-# 00 7 ... ... ... : ... .. . ... ... ... : ... .. . ... ... ... : ... .. . ... ... ... : ... .. . ... ... ... : ... .. . P80 ... ... : ... .. . P80 ... ... : ... .. . ... ... ... : ... .. . ... ... ... : ... .. . ... ... ...
ROW B8 : ... .. . ... ... ... : D#2 02 . ... ... ... : C#3 00 . P89 ... ... : 1-# 00 4 ... ... ... : ... .. . ... ... ... : ... .. . ... ... ... : ... .. . ... ... ... : ... .. . ... ... ... : ... .. . ... ... ... : ... .. . ... ... ... : ... .. . ... ... ... : ... .. . ... ... ... : ... .. . ... ... ...
ROW B9 : ... .. . ... ... ... : G#1 02 . ... ... ... : A#2 00 . P75 ... ... : ... .. 2 ... ... ... : ... .. . ... ... ... : ... .. . ... ... ... : ... .. . ... ... ... : ... .. . ... ... ... : ... .. . ... ... ... : ... .. . ... ... ... : ... .. . ... ... ... : ... .. . ... ... ... : ... .. . ... ... ...
ROW BA : ... .. . ... ... ... : C#1 02 . ... ... ... : G-2 00 . P70 ... ... : ... .. 1 ... ... ... : ... .. . ... ... ... : ... .. . ... ... ... : ... .. . ... ... ... : ... .. . ... ... ... : ... .. . ... ... ... : ... .. . ... ... ... : ... .. . ... ... ... : ... .. . ... ... ... : ... .. . ... ... ...
ROW BB : ... .. . ... ... ... : ... .. . ... ... ... : E-2 00 . P7C ... ... : --- .. . ... ... ... : ... .. . ... ... ... : ... .. . ... ... ... : ... .. . ... ... ... : ... .. . ... ... ... : ... .. . ... ... ... : ... .. . ... ... ... : ... .. . ... ... ... : ... .. . ... ... ... : ... .. . ... ... ...
ROW BC : ... .. . ... ... ... : ... .. . ... ... ... : D-2 00 . P6F ... ... : ... .. . ... ... ... : ... .. . ... ... ... : ... .. . ... ... ... : ... .. . ... ... ... : ... .. . ... ... ... : ... .. . ... ... ... : ... .. . ... ... ... : ... .. . ... ... ... : ... .. . ... ... ... : ... .. . ... ... ...
ROW BD : ... .. . ... ... ... : ... .. . ... ... ... : C-2 00 . P6C ... ... : ... .. . ... ... ... : ... .. . ... ... ... : ... .. . ... ... ... : ... .. . ... ... ... : ... .. . ... ... ... : ... .. . ... ... ... : ... .. . ... ... ... : ... .. . ... ... ... : ... .. . ... ... ... : ... .. . ... ... ...
ROW BE : ... .. . ... ... ... : ... .. . ... ... ... : A#1 00 . P75 ... ... : ... .. . ... ... ... : ... .. . ... ... ... : ... .. . ... ... ... : ... .. . ... ... ... : ... .. . ... ... ... : ... .. . ... ... ... : ... .. . ... ... ... : ... .. . ... ... ... : ... .. . ... ... ... : ... .. . ... ... ...
ROW BF : ... .. . ... ... ... : ... .. . ... ... ... : G#1 00 . P8A ... ... : ... .. . ... ... ... : ... .. . ... ... ... : C-2 07 . ... ... ... : C-2 07 . P81 ... ... : ... .. . ... ... ... : ... .. . ... ... ... : ... .. . ... ... ... : ... .. . ... ... ... : ... .. . ... ... ... : ... .. . ... ... ...
ROW C0 : ... .. . ... ... ... : ... .. . ... ... ... : G-1 00 . P6A ... ... : ... .. . ... ... ... : ... .. . ... ... ... : ... .. . ... ... ... : B-1 07 . P7F ... ... : ... .. . ... ... ... : ... .. . ... ... ... : ... .. . ... ... ... : ... .. . ... ... ... : ... .. . ... ... ... : ... .. . ... ... ...
ROW C1 : ... .. . ... ... ... : ... .. . ... ... ... : F-1 00 . P96 ... ... : ... .. . ... ... ... : ... .. . ... ... ... : ... .. . ... ... ... : C-2 07 . P81 ... ... : ... .. . ... ... ... : ... .. . ... ... ... : ... .. . ... ... ... : ... .. . ... ... ... : ... .. . ... ... ... : ... .. . ... ... ...
ROW C2 : ... .. . ... ... ... : ... .. . ... ... ... : E-1 00 . P82 ... ... : ... .. . ... ... ... : ... .. . ... ... ... : ... .. . ... ... ... : ... .. . P80 ... ... : ... .. . ... ... ... : ... .. . ... ... ... : ... .. . ... ... ... : ... .. . ... ... ... : ... .. . ... ... ... : ... .. . ... ... ...
ROW C3 : ... .. . ... ... ... : C-4 02 . P80 ... ... : F#3 00 . P78 ... ... : 1-# 00 F ... ... ... : C-1 12 . ... ... ... : C#2 06 . ... ... ... : C#2 06 . P81 ... ... : ... .. . ... ... ... : C#2 06 8 P7F ... ... : ... .. . ... ... ... : ... .. . ... ... ... : ... .. . ... ... ... : ... .. . ... ... ...
ROW C4 : ... .. . ... ... ... : F-3 02 . ... ... ... : C#3 00 . P7E ... ... : 2-# 00 7 ... ... ... : ... .. . ... ... ... : ... .. . ... ... ... : C-2 06 . P7F ... ... : ... .. . ... ... ... : ... .. . ... ... ... : ... .. . ... ... ... : ... .. . ... ... ... : ... .. . ... ... ... : ... .. . ... ... ...
ROW C5 : ... .. . ... ... ... : A#2 02 . P81 ... ... : A-2 00 . P86 ... ... : 1-# 00 4 ... ... ... : ... .. . ... ... ... : ... .. . ... ... ... : C#2 06 . P82 ... ... : ... .. . ... ... ... : ... .. . ... ... ... : ... .. . ... ... ... : ... .. . ... ... ... : ... .. . ... ... ... : ... .. . ... ... ...
ROW C6 : ... .. . ... ... ... : D#2 02 . ... ... ... : --- .. . ... ... ... : ... .. 2 ... ... ... : ... .. . ... ... ... : C#2 09 . ... ... ... : C#2 09 . P81 ... ... : ... .. . ... ... ... : C#2 09 . ... ... ... : ... .. . ... ... ... : ... .. . ... ... ... : ... .. . ... ... ... : ... .. . ... ... ...
ROW C7 : ... .. . ... ... ... : G#1 02 . ... ... ... : ... .. . ... ... ... : ... .. 1 ... ... ... : ... .. . ... ... ... : ... .. . ... ... ... : ... .. . ... ... ... : ... .. . ... ... ... : ... .. . ... ... ... : ... .. . ... ... ... : ... .. . ... ... ... : ... .. . ... ... ... : ... .. . ... ... ...
ROW C8 : ... .. . ... ... ... : C#1 02 . ... ... ... : ... .. . ... ... ... : --- .. . ... ... ... : ... .. . ... ... ... : ... .. . ... ... ... : ... .. . P82 ... ... : ... .. . ... ... ... : ... .. . ... ... ... : ... .. . ... ... ... : ... .. . ... ... ... : ... .. . ... ... ... : ... .. . ... ... ...
ROW C9 : ... .. . ... ... ... : ... .. . ... ... ... : ... .. . ... ... ... : ... .. . ... ... ... : ... .. . ... ... ... : C#2 06 . ... ... ... : C#2 06 . ... ... ... : ... .. . ... ... ... : C#2 06 7 ... ... ... : ... .. . ... ... ... : ... .. . ... ... ... : ... .. . ... ... ... : ... .. . ... ... ...
ROW CA : ... .. . ... ... ... : ... .. . ... ... ... : ... .. . ... ... ... : ... .. . ... ... ... : ... .. . ... ... ... : ... .. . ... ... ... : ... .. . P81 ... ... : ... .. . ... ... ... : ... .. . ... ... ... : ... .. . ... ... ... : ... .. . ... ... ... : ... .. . ... ... ... : ... .. . ... ... ...
ROW CB : ... .. . ... ... ... : ... .. . ... ... ... : ... .. . ... ... ... : ... .. . ... ... ... : ... .. . ... ... ... : ... .. . ... ... ... : ... .. . P80 ... ... : ... .. . ... ... ... : ... .. . ... ... ... : ... .. . ... ... ... : ... .. . ... ... ... : ... .. . ... ... ... : ... .. . ... ... ...
ROW CC : ... .. . ... ... ... : ... .. . ... ... ... : ... .. . ... ... ... : ... .. . ... ... ... : ... .. . ... ... ... : C#2 09 . ... ... ... : C#2 09 . P81 ... ... : ... .. . ... ... ... : C#2 09 . ... ... ... : ... .. . ... ... ... : ... .. . ... ... ... : ... .. . ... ... ... : ... .. . ... ... ...
ROW CD : ... .. . ... ... ... : ... .. . ... ... ... : ... .. . ... ... ... : ... .. . ... ... ... : ... .. . ... ... ... : ... .. . ... ... ... : C-2 09 . P7F ... ... : ... .. . ... ... ... : ... .. . ... ... ... : ... .. . ... ... ... : ... .. . ... ... ... : ... .. . ... ... ... : ... .. . ... ... ...
ROW CE : ... .. . ... ... ... : ... .. . ... ... ... : ... .. . ... ... ... : ... .. . ... ... ... : ... .. . ... ... ... : ... .. . ... ... ... : C#2 09 . P81 ... ... : ... .. . ... ... ... : ... .. . ... ... ... : ... .. . ... ... ... : ... .. . ... ... ... : ... .. . ... ... ... : ... .. . ... ... ...
ROW CF : ... .. . ... ... ... : ... .. . ... ... ... : ... .. . ... ... ... : D-# 00 A ... ... ... : ... .. . ... ... ... : C#2 06 . ... ... ... : C#2 06 . P80 ... ... : ... .. . ... ... ... : C#2 06 . ... ... ... : ... .. . ... ... ... : ... .. . ... ... ... : ... .. . ... ... ... : ... .. . ... ... ...
ROW D0 : ... .. . ... ... ... : ... .. . ... ... ... : ... .. . ... ... ... : E-# 00 4 ... ... ... : ... .. . ... ... ... : ... .. . ... ... ... : ... .. . P81 ... ... : ... .. . ... ... ... : ... .. . ... ... ... : ... .. . ... ... ... : ... .. . ... ... ... : ... .. . ... ... ... : ... .. . ... ... ...
ROW D1 : ... .. . ... ... ... : ... .. . ... ... ... : ... .. . ... ... ... : D-# 00 2 ... ... ... : ... .. . ... ... ... : ... .. . ... ... ... : C-2 06 . P7F ... ... : ... .. . ... ... ... : ... .. 6 ... ... ... : ... .. . ... ... ... : ... .. . ... ... ... : ... .. . ... ... ... : ... .. . ... ... ...
ROW D2 : ... .. . ... ... ... : ... .. . ... ... ... : ... .. . ... ... ... : ... .. 1 ... ... ... : ... .. . ... ... ... : C#2 09 . ... ... ... : C#2 09 . P81 ... ... : ... .. . ... ... ... : C#2 09 . ... ... ... : ... .. . ... ... ... : ... .. . ... ... ... : ... .. . ... ... ... : ... .. . ... ... ...
ROW D3 : ... .. . ... ... ... : ... .. . ... ... ... : ... .. . ... ... ... : ... .. . ... ... ... : ... .. . ... ... ... : ... .. . ... ... ... : ... .. . P80 ... ... : ... .. . ... ... ... : ... .. . ... ... ... : ... .. . ... ... ... : ... .. . ... ... ... : ... .. . ... ... ... : ... .. . ... ... ...
ROW D4 : ... .. . ... ... ... : ... .. . ... ... ... : ... .. . ... ... ... : --- .. . ... ... ... : ... .. . ... ... ... : ... .. . ... ... ... : ... .. . P81 ... ... : ... .. . ... ... ... : ... .. . ... ... ... : ... .. . ... ... ... : ... .. . ... ... ... : ... .. . ... ... ... : ... .. . ... ... ...
ROW D5 : ... .. . ... ... ... : ... .. . ... ... ... : ... .. . ... ... ... : D-# 00 A ... ... ... : ... .. . ... ... ... : C#2 06 . ... ... ... : C-2 06 . P7F ... ... : ... .. . ... ... ... : C#2 06 . ... ... ... : ... .. . ... ... ... : ... .. . ... ... ... : ... .. . ... ... ... : ... .. . ... ... ...
ROW D6 : ... .. . ... ... ... : ... .. . ... ... ... : ... .. . ... ... ... : E-# 00 4 ... ... ... : ... .. . ... ... ... : ... .. . ... ... ... : C#2 06 . P82 ... ... : ... .. . ... ... ... : ... .. . ... ... ... : ... .. . ... ... ... : ... .. . ... ... ... : ... .. . ... ... ... : ... .. . ... ... ...
ROW D7 : ... .. . ... ... ... : ... .. . ... ... ... : ... .. . ... ... ... : D-# 00 2 ... ... ... : ... .. . ... ... ... : ... .. . ... ... ... : ... .. . P81 ... ... : ... .. . ... ... ... : ... .. . ... ... ... : ... .. . ... ... ... : ... .. . ... ... ... : ... .. . ... ... ... : ... .. . ... ... ...
ROW D8 : ... .. . ... ... ... : ... .. . ... ... ... : ... .. . ... ... ... : ... .. 1 ... ... ... : ... .. . ... ... ... : C#2 09 . ... ... ... : C#2 09 . ... ... ... : ... .. . ... ... ... : C#2 09 . ... ... ... : ... .. . ... ... ... : ... .. . ... ... ... : ... .. . ... ... ... : ... .. . ... ... ...
ROW D9 : ... .. . ... ... ... : ... .. . ... ... ... : ... .. . ... ... ... : ... .. . ... ... ... : ... .. . ... ... ... : ... .. . ... ... ... : ... .. . P82 ... ... : ... .. . ... ... ... : ... .. 5 ... ... ... : ... .. . ... ... ... : ... .. . ... ... ... : ... .. . ... ... ... : ... .. . ... ... ...
ROW DA : ... .. . ... ... ... : ... .. . ... ... ... : ... .. . ... ... ... : --- .. . ... ... ... : ... .. . ... ... ... : ... .. . ... ... ... : C-2 09 . P7F ... ... : ... .. . ... ... ... : ... .. . ... ... ... : ... .. . ... ... ... : ... .. . ... ... ... : ... .. . ... ... ... : ... .. . ... ... ...
ROW DB : ... .. . ... ... ... : ... .. . ... ... ... : ... .. . ... ... ... : ... .. . ... ... ... : ... .. . ... ... ... : ... .. . ... ... ... : C#2 09 . P81 ... ... : ... .. . ... ... ... : ... .. . ... ... ... : ... .. . ... ... ... : ... .. . ... ... ... : ... .. . ... ... ... : ... .. . ... ... ...
ROW DC : ... .. . ... ... ... : C-4 02 . P80 ... ... : C#4 00 . P7F ... ... : 9-# 00 F ... ... ... : C#1 12 . ... ... ... : G-1 06 . ... ... ... : G-1 06 . P80 ... ... : ... .. . ... ... ... : G-1 06 . ... ... ... : ... .. . ... ... ... : ... .. . ... ... ... : ... .. . ... ... ... : ... .. . ... ... ...
ROW DD : ... .. . ... ... ... : F-3 02 . ... ... ... : F#3 00 . P83 ... ... : 2-# 00 7 ... ... ... : ... .. . ... ... ... : ... .. . ... ... ... : ... .. . P81 ... ... : ... .. . ... ... ... : ... .. . ... ... ... : ... .. . ... ... ... : ... .. . ... ... ... : ... .. . ... ... ... : ... .. . ... ... ...
ROW DE : ... .. . ... ... ... : A#2 02 . P81 ... ... : C#3 00 . P89 ... ... : 6-# 00 C ... ... ... : ... .. . ... ... ... : ... .. . ... ... ... : F#1 06 . P80 ... ... : ... .. . ... ... ... : ... .. . ... ... ... : ... .. . ... ... ... : ... .. . ... ... ... : ... .. . ... ... ... : ... .. . ... ... ...
ROW DF : ... .. . ... ... ... : D#2 02 . ... ... ... : A#2 00 . P75 ... ... : 7-# 00 8 ... ... ... : ... .. . ... ... ... : ... .. . ... ... ... : G-1 06 . P81 ... ... : ... .. . ... ... ... : ... .. . ... ... ... : ... .. . ... ... ... : ... .. . ... ... ... : ... .. . ... ... ... : ... .. . ... ... ...
ROW E0 : ... .. . ... ... ... : G#1 02 . ... ... ... : G-2 00 . P70 ... ... : 8-# 00 7 ... ... ... : ... .. . ... ... ... : ... .. . ... ... ... : ... .. . P80 ... ... : ... .. . ... ... ... : ... .. . ... ... ... : ... .. . ... ... ... : ... .. . ... ... ... : ... .. . ... ... ... : ... .. . ... ... ...
ROW E1 : ... .. . ... ... ... : C#1 02 . ... ... ... : E-2 00 . P7C ... ... : ... .. 6 ... ... ... : ... .. . ... ... ... : ... .. . ... ... ... : ... .. . P81 ... ... : ... .. . ... ... ... : ... .. 4 ... ... ... : ... .. . ... ... ... : ... .. . ... ... ... : ... .. . ... ... ... : ... .. . ... ... ...
ROW E2 : ... .. . ... ... ... : ... .. . ... ... ... : --- .. . ... ... ... : ... .. . ... ... ... : ... .. . ... ... ... : G-1 07 . ... ... ... : F#1 07 . P80 ... ... : ... .. . ... ... ... : G-1 07 . ... ... ... : ... .. . ... ... ... : ... .. . ... ... ... : ... .. . ... ... ... : ... .. . ... ... ...
ROW E3 : ... .. . ... ... ... : ... .. . ... ... ... : ... .. . ... ... ... : ... .. 5 ... ... ... : ... .. . ... ... ... : ... .. . ... ... ... : G-1 07 . P81 ... ... : ... .. . ... ... ... : ... .. . ... ... ... : ... .. . ... ... ... : ... .. . ... ... ... : ... .. . ... ... ... : ... .. . ... ... ...
ROW E4 : ... .. . ... ... ... : ... .. . ... ... ... : ... .. . ... ... ... : ... .. . ... ... ... : ... .. . ... ... ... : ... .. . ... ... ... : ... .. . P80 ... ... : ... .. . ... ... ... : ... .. . ... ... ... : ... .. . ... ... ... : ... .. . ... ... ... : ... .. . ... ... ... : ... .. . ... ... ...
ROW E5 : ... .. . ... ... ... : ... .. . ... ... ... : ... .. . ... ... ... : ... .. 4 ... ... ... : ... .. . ... ... ... : G-1 08 . ... ... ... : G-1 08 . P81 ... ... : ... .. . ... ... ... : G-1 08 . ... ... ... : ... .. . ... ... ... : ... .. . ... ... ... : ... .. . ... ... ... : ... .. . ... ... ...
ROW E6 : ... .. . ... ... ... : ... .. . ... ... ... : ... .. . ... ... ... : ... .. . ... ... ... : ... .. . ... ... ... : ... .. . ... ... ... : F#1 08 . P80 ... ... : ... .. . ... ... ... : ... .. . ... ... ... : ... .. . ... ... ... : ... .. . ... ... ... : ... .. . ... ... ... : ... .. . ... ... ...
ROW E7 : ... .. . ... ... ... : ... .. . ... ... ... : ... .. . ... ... ... : ... .. 3 ... ... ... : ... .. . ... ... ... : ... .. . ... ... ... : ... .. . ... ... ... : ... .. . ... ... ... : ... .. . ... ... ... : ... .. . ... ... ... : ... .. . ... ... ... : ... .. . ... ... ... : ... .. . ... ... ...
ROW E8 : ... .. . ... ... ... : ... .. . ... ... ... : ... .. . ... ... ... : 6-# 01 F ... ... ... : ... .. . ... ... ... : B-1 06 . ... ... ... : B-1 06 . P81 ... ... : ... .. . ... ... ... : B-1 06 . ... ... ... : ... .. . ... ... ... : ... .. . ... ... ... : ... .. . ... ... ... : ... .. . ... ... ...
ROW E9 : ... .. . ... ... ... : ... .. . ... ... ... : ... .. . ... ... ... : ... .. 9 ... ... ... : ... .. . ... ... ... : ... .. . ... ... ... : ... .. . ... ... ... : ... .. . ... ... ... : ... .. 3 ... ... ... : ... .. . ... ... ... : ... .. . ... ... ... : ... .. . ... ... ... : ... .. . ... ... ...
ROW EA : ... .. . ... ... ... : ... .. . ... ... ... : ... .. . ... ... ... : ... .. 4 ... ... ... : ... .. . ... ... ... : ... .. . ... ... ... : A#1 06 . P7F ... ... : ... .. . ... ... ... : ... .. . ... ... ... : ... .. . ... ... ... : ... .. . ... ... ... : ... .. . ... ... ... : ... .. . ... ... ...
ROW EB : ... .. . ... ... ... : ... .. . ... ... ... : ... .. . ... ... ... : ... .. 7 ... ... ... : ... .. . ... ... ... : ... .. . ... ... ... : ... .. . P80 ... ... : ... .. . ... ... ... : ... .. . ... ... ... : ... .. . ... ... ... : ... .. . ... ... ... : ... .. . ... ... ... : ... .. . ... ... ...
ROW EC : ... .. . ... ... ... : ... .. . ... ... ... : ... .. . ... ... ... : ... .. 5 ... ... ... : ... .. . ... ... ... : ... .. . ... ... ... : B-1 06 . P81 ... ... : ... .. . ... ... ... : ... .. . ... ... ... : ... .. . ... ... ... : ... .. . ... ... ... : ... .. . ... ... ... : ... .. . ... ... ...
ROW ED : ... .. . ... ... ... : ... .. . ... ... ... : ... .. . ... ... ... : ... .. . ... ... ... : ... .. . ... ... ... : ... .. . ... ... ... : ... .. . P80 ... ... : ... .. . ... ... ... : ... .. . ... ... ... : ... .. . ... ... ... : ... .. . ... ... ... : ... .. . ... ... ... : ... .. . ... ... ...
ROW EE : ... .. . ... ... ... : ... .. . ... ... ... : ... .. . ... ... ... : ... .. 4 ... ... ... : ... .. . ... ... ... : B-1 07 . ... ... ... : B-1 07 . P81 ... ... : ... .. . ... ... ... : B-1 07 . ... ... ... : ... .. . ... ... ... : ... .. . ... ... ... : ... .. . ... ... ... : ... .. . ... ... ...
ROW EF : ... .. . ... ... ... : ... .. . ... ... ... : ... .. . ... ... ... : ... .. . ... ... ... : ... .. . ... ... ... : ... .. . ... ... ... : A#1 07 . P80 ... ... : ... .. . ... ... ... : ... .. . ... ... ... : ... .. . ... ... ... : ... .. . ... ... ... : ... .. . ... ... ... : ... .. . ... ... ...
ROW F0 : ... .. . ... ... ... : ... .. . ... ... ... : ... .. . ... ... ... : ... .. 3 ... ... ... : ... .. . ... ... ... : ... .. . ... ... ... : B-1 07 . P81 ... ... : ... .. . ... ... ... : ... .. . ... ... ... : ... .. . ... ... ... : ... .. . ... ... ... : ... .. . ... ... ... : ... .. . ... ... ...
ROW F1 : ... .. . ... ... ... : ... .. . ... ... ... : ... .. . ... ... ... : ... .. 2 ... ... ... : ... .. . ... ... ... : B-1 08 . ... ... ... : B-1 08 . P80 ... ... : ... .. . ... ... ... : B-1 08 2 ... ... ... : ... .. . ... ... ... : ... .. . ... ... ... : ... .. . ... ... ... : ... .. . ... ... ...
ROW F2 : ... .. . ... ... ... : ... .. . ... ... ... : ... .. . ... ... ... : ... .. . ... ... ... : ... .. . ... ... ... : ... .. . ... ... ... : ... .. . P81 ... ... : ... .. . ... ... ... : ... .. . ... ... ... : ... .. . ... ... ... : ... .. . ... ... ... : ... .. . ... ... ... : ... .. . ... ... ...
ROW F3 : ... .. . ... ... ... : ... .. . ... ... ... : ... .. . ... ... ... : ... .. 1 ... ... ... : ... .. . ... ... ... : ... .. . ... ... ... : A#1 08 . P80 ... ... : ... .. . ... ... ... : ... .. . ... ... ... : ... .. . ... ... ... : ... .. . ... ... ... : ... .. . ... ... ... : ... .. . ... ... ...
ROW F4 : ... .. . ... ... ... : ... .. . ... ... ... : ... .. . ... ... ... : ... .. . ... ... ... : ... .. . ... ... ... : ... .. . ... ... ... : B-1 08 . P81 ... ... : ... .. . ... ... ... : ... .. . ... ... ... : ... .. . ... ... ... : ... .. . ... ... ... : ... .. . ... ... ... : ... .. . ... ... ...
ROW F5 : ... .. . ... ... ... : C-4 02 . P80 ... ... : F#3 00 . P78 ... ... : 1-# 00 F ... ... ... : C-1 12 . ... ... ... : G#1 06 . ... ... ... : G#1 06 . P80 ... ... : ... .. . ... ... ... : G#1 06 . ... ... ... : ... .. . ... ... ... : ... .. . ... ... ... : ... .. . ... ... ... : ... .. . ... ... ...
ROW F6 : ... .. . ... ... ... : F-3 02 . ... ... ... : C#3 00 . P7E ... ... : 2-# 00 7 ... ... ... : ... .. . ... ... ... : ... .. . ... ... ... : ... .. . P81 ... ... : ... .. . ... ... ... : ... .. . ... ... ... : ... .. . ... ... ... : ... .. . ... ... ... : ... .. . ... ... ... : ... .. . ... ... ...
ROW F7 : ... .. . ... ... ... : A#2 02 . P81 ... ... : A-2 00 . P86 ... ... : 1-# 00 4 ... ... ... : ... .. . ... ... ... : ... .. . ... ... ... : G-1 06 . P80 ... ... : ... .. . ... ... ... : ... .. . ... ... ... : ... .. . ... ... ... : ... .. . ... ... ... : ... .. . ... ... ... : ... .. . ... ... ...
ROW F8 : ... .. . ... ... ... : D#2 02 . ... ... ... : --- .. . ... ... ... : ... .. 2 ... ... ... : ... .. . ... ... ... : ... .. . ... ... ... : ... .. . ... ... ... : ... .. . ... ... ... : ... .. . ... ... ... : ... .. . ... ... ... : ... .. . ... ... ... : ... .. . ... ... ... : ... .. . ... ... ...
ROW F9 : ... .. . ... ... ... : G#1 02 . ... ... ... : ... .. . ... ... ... : ... .. 1 ... ... ... : ... .. . ... ... ... : ... .. . ... ... ... : G#1 06 . P81 ... ... : ... .. . ... ... ... : ... .. 1 ... ... ... : ... .. . ... ... ... : ... .. . ... ... ... : ... .. . ... ... ... : ... .. . ... ... ...
ROW FA : ... .. . ... ... ... : C#1 02 . ... ... ... : ... .. . ... ... ... : --- .. . ... ... ... : ... .. . ... ... ... : ... .. . ... ... ... : ... .. . P80 ... ... : ... .. . ... ... ... : ... .. . ... ... ... : ... .. . ... ... ... : ... .. . ... ... ... : ... .. . ... ... ... : ... .. . ... ... ...
ROW FB : ... .. . ... ... ... : ... .. . ... ... ... : ... .. . ... ... ... : ... .. . ... ... ... : ... .. . ... ... ... : G#1 07 . ... ... ... : G#1 07 . P81 ... ... : ... .. . ... ... ... : G#1 07 . ... ... ... : ... .. . ... ... ... : ... .. . ... ... ... : ... .. . ... ... ... : ... .. . ... ... ...
ROW FC : ... .. . ... ... ... : ... .. . ... ... ... : ... .. . ... ... ... : ... .. . ... ... ... : ... .. . ... ... ... : ... .. . ... ... ... : G-1 07 . P80 ... ... : ... .. . ... ... ... : ... .. . ... ... ... : ... .. . ... ... ... : ... .. . ... ... ... : ... .. . ... ... ... : ... .. . ... ... ...
ROW FD : ... .. . ... ... ... : ... .. . ... ... ... : ... .. . ... ... ... : ... .. . ... ... ... : ... .. . ... ... ... : ... .. . ... ... ... : G#1 07 . P81 ... ... : ... .. . ... ... ... : ... .. . ... ... ... : ... .. . ... ... ... : ... .. . ... ... ... : ... .. . ... ... ... : ... .. . ... ... ...
ROW FE : ... .. . ... ... ... : ... .. . ... ... ... : ... .. . ... ... ... : ... .. . ... ... ... : ... .. . ... ... ... : G-1 07 . ... ... ... : G-1 07 . P80 ... ... : ... .. . ... ... ... : ... .. . P81 ... ... : ... .. . ... ... ... : ... .. . ... ... ... : ... .. . ... ... ... : ... .. . ... ... ...
ROW FF : ... .. . ... ... ... : ... .. . ... ... ... : ... .. . ... ... ... : ... .. . ... ... ... : ... .. . ... ... ... : F#1 07 . ... ... ... : F#1 07 . P81 ... ... : ... .. . ... ... ... : G-1 07 . ... ... ... : ... .. . ... ... ... : ... .. . ... ... ... : ... .. . ... ... ... : ... .. . ... ... ...

PATTERN 1B
ROW 00 : ... .. . ... ... ... : ... .. . ... ... ... : ... .. . ... ... ... : ... .. . ... ... ... : ... .. . ... ... ... : F-1 07 . ... ... ... : E-1 07 . P80 ... ... : ... .. . ... ... ... : F#1 07 . ... ... ... : ... .. . ... ... ... : ... .. . ... ... ... : ... .. . ... ... ... : ... .. . ... ... ...
ROW 01 : ... .. . ... ... ... : ... .. . ... ... ... : ... .. . ... ... ... : D-# 00 A ... ... ... : ... .. . ... ... ... : E-1 08 . ... ... ... : E-1 08 . P81 ... ... : G#6 03 7 ... ... ... : --- .. . ... ... ... : ... .. . ... ... ... : ... .. . ... ... ... : ... .. . ... ... ... : ... .. . ... ... ...
ROW 02 : ... .. . ... ... ... : ... .. . ... ... ... : ... .. . ... ... ... : E-# 00 4 ... ... ... : ... .. . ... ... ... : D#1 08 . ... ... ... : D#1 08 . P80 ... ... : ... .. . ... ... ... : ... .. . P80 ... ... : ... .. . ... ... ... : ... .. . ... ... ... : ... .. . ... ... ... : ... .. . ... ... ...
ROW 03 : ... .. . ... ... ... : ... .. . ... ... ... : ... .. . ... ... ... : D-# 00 2 ... ... ... : ... .. . ... ... ... : D-1 08 . ... ... ... : D-1 08 . P81 ... ... : ... .. . ... ... ... : ... .. . ... ... ... : ... .. . ... ... ... : ... .. . ... ... ... : ... .. . ... ... ... : ... .. . ... ... ...
ROW 04 : ... .. . ... ... ... : ... .. . ... ... ... : ... .. . ... ... ... : ... .. 1 ... ... ... : ... .. . ... ... ... : C#1 08 . ... ... ... : C-1 08 . ... ... ... : ... .. 5 ... ... ... : ... .. . ... ... ... : ... .. . ... ... ... : ... .. . ... ... ... : ... .. . ... ... ... : ... .. . ... ... ...
ROW 05 : ... .. . ... ... ... : ... .. . ... ... ... : ... .. . ... ... ... : ... .. . ... ... ... : ... .. . ... ... ... : C-1 08 . P81 ... ... : B-0 08 . ... ... ... : ... .. . ... ... ... : ... .. . ... ... ... : ... .. . ... ... ... : ... .. . ... ... ... : ... .. . ... ... ... : ... .. . ... ... ...
ROW 06 : ... .. . ... ... ... : ... .. . ... ... ... : ... .. . ... ... ... : --- .. . ... ... ... : ... .. . ... ... ... : B-0 08 . ... ... ... : A#0 08 . P80 ... ... : ... .. . ... ... ... : ... .. . ... ... ... : ... .. . ... ... ... : ... .. . ... ... ... : ... .. . ... ... ... : ... .. . ... ... ...
ROW 07 : ... .. . ... ... ... : ... .. . ... ... ... : ... .. . ... ... ... : D-# 00 A ... ... ... : ... .. . ... ... ... : A-0 09 . P80 ... ... : A-0 09 . P81 ... ... : ... .. 3 ... ... ... : ... .. . ... ... ... : ... .. . ... ... ... : ... .. . ... ... ... : ... .. . ... ... ... : ... .. . ... ... ...
ROW 08 : ... .. . ... ... ... : ... .. . ... ... ... : ... .. . ... ... ... : E-# 00 4 ... ... ... : ... .. . ... ... ... : G-0 09 . ... ... ... : F#0 09 . P80 ... ... : ... .. . ... ... ... : ... .. . ... ... ... : ... .. . ... ... ... : ... .. . ... ... ... : ... .. . ... ... ... : ... .. . ... ... ...
ROW 09 : ... .. . ... ... ... : ... .. . ... ... ... : ... .. . ... ... ... : D-# 00 2 ... ... ... : ... .. . ... ... ... : F#0 09 . P81 ... ... : E-0 09 . ... ... ... : ... .. . ... ... ... : ... .. . ... ... ... : ... .. . ... ... ... : ... .. . ... ... ... : ... .. . ... ... ... : ... .. . ... ... ...
ROW 0A : ... .. . ... ... ... : ... .. . ... ... ... : ... .. . ... ... ... : ... .. 1 ... ... ... : ... .. . ... ... ... : E-0 09 . ... ... ... : D#0 09 . ... ... ... : ... .. 1 ... ... ... : ... .. . ... ... ... : ... .. . ... ... ... : ... .. . ... ... ... : ... .. . ... ... ... : ... .. . ... ... ...
ROW 0B : ... .. . ... ... ... : ... .. . ... ... ... : ... .. . ... ... ... : ... .. . ... ... ... : ... .. . ... ... ... : D-0 09 . ... ... ... : D-0 09 . P81 ... ... : ... .. . ... ... ... : ... .. . ... ... ... : ... .. . ... ... ... : ... .. . ... ... ... : ... .. . ... ... ... : ... .. . ... ... ...
ROW 0C : ... .. . ... ... ... : ... .. . ... ... ... : ... .. . ... ... ... : --- .. . ... ... ... : ... .. . ... ... ... : C-0 09 . ... ... ... : C-0 09 . P82 ... ... : ... .. . ... ... ... : ... .. . ... ... ... : ... .. . ... ... ... : ... .. . ... ... ... : ... .. . ... ... ... : ... .. . ... ... ...
ROW 0D : ... .. . ... ... ... : ... .. . ... ... ... : ... .. . ... ... ... : ... .. . ... ... ... : ... .. . ... ... ... : ... .. . P83 ... ... : ... .. . P85 ... ... : ... .. . ... ... ... : ... .. . ... ... ... : ... .. . ... ... ... : ... .. . ... ... ... : ... .. . ... ... ... : ... .. . ... ... ...
ROW 0E : ... .. . ... ... ... : C-4 02 . P80 ... ... : C#4 00 . P7F ... ... : 9-# 00 F ... ... ... : C#1 12 . ... ... ... : G#1 04 . P80 ... ... : C-0 04 . P86 ... ... : G-1 04 9 ... ... ... : A-1 04 9 P82 ... ... : ... .. . ... ... ... : ... .. . ... ... ... : ... .. . ... ... ... : ... .. . ... ... ...
ROW 0F : ... .. . ... ... ... : F-3 02 . ... ... ... : F#3 00 . P83 ... ... : 2-# 00 7 ... ... ... : ... .. . ... ... ... : ... .. . ... ... ... : ... .. . P87 ... ... : ... .. . ... ... ... : ... .. . ... ... ... : ... .. . ... ... ... : ... .. . ... ... ... : ... .. . ... ... ... : ... .. . ... ... ...
ROW 10 : ... .. . ... ... ... : A#2 02 . P81 ... ... : C#3 00 . P89 ... ... : 6-# 00 C ... ... ... : ... .. . ... ... ... : ... .. . ... ... ... : --- .. . P7D ... ... : ... .. . ... ... ... : ... .. . ... ... ... : ... .. . ... ... ... : ... .. . ... ... ... : ... .. . ... ... ... : ... .. . ... ... ...
ROW 11 : ... .. . ... ... ... : D#2 02 . ... ... ... : A#2 00 . P75 ... ... : 7-# 00 8 ... ... ... : ... .. . ... ... ... : ... .. . ... ... ... : ... .. . P80 ... ... : ... .. . ... ... ... : ... .. . ... ... ... : ... .. . ... ... ... : ... .. . ... ... ... : ... .. . ... ... ... : ... .. . ... ... ...
ROW 12 : ... .. . ... ... ... : G#1 02 . ... ... ... : G-2 00 . P70 ... ... : 8-# 00 7 ... ... ... : ... .. . ... ... ... : ... .. . ... ... ... : D#7 04 . P81 ... ... : ... .. 8 ... ... ... : ... .. . ... ... ... : ... .. . ... ... ... : ... .. . ... ... ... : ... .. . ... ... ... : ... .. . ... ... ...
ROW 13 : ... .. . ... ... ... : C#1 02 . ... ... ... : E-2 00 . P7C ... ... : ... .. 6 ... ... ... : ... .. . ... ... ... : ... .. . ... ... ... : --- .. . ... ... ... : ... .. . ... ... ... : ... .. . ... ... ... : ... .. . ... ... ... : ... .. . ... ... ... : ... .. . ... ... ... : ... .. . ... ... ...
ROW 14 : ... .. . ... ... ... : ... .. . ... ... ... : --- .. . ... ... ... : ... .. . ... ... ... : ... .. . ... ... ... : G#2 04 . ... ... ... : D#7 04 . ... ... ... : G#2 04 . P82 ... ... : G#2 04 . P7F ... ... : ... .. . ... ... ... : ... .. . ... ... ... : ... .. . ... ... ... : ... .. . ... ... ...
ROW 15 : ... .. . ... ... ... : ... .. . ... ... ... : ... .. . ... ... ... : ... .. 5 ... ... ... : ... .. . ... ... ... : ... .. . ... ... ... : ... .. . P82 ... ... : ... .. . ... ... ... : ... .. . ... ... ... : ... .. . ... ... ... : ... .. . ... ... ... : ... .. . ... ... ... : ... .. . ... ... ...
ROW 16 : ... .. . ... ... ... : ... .. . ... ... ... : ... .. . ... ... ... : ... .. . ... ... ... : ... .. . ... ... ... : ... .. . ... ... ... : ... .. . ... ... ... : ... .. 7 ... ... ... : ... .. 8 ... ... ... : ... .. . ... ... ... : ... .. . ... ... ... : ... .. . ... ... ... : ... .. . ... ... ...
ROW 17 : ... .. . ... ... ... : ... .. . ... ... ... : ... .. . ... ... ... : ... .. 4 ... ... ... : ... .. . ... ... ... : ... .. . ... ... ... : ... .. . P81 ... ... : ... .. . ... ... ... : ... .. . ... ... ... : ... .. . ... ... ... : ... .. . ... ... ... : ... .. . ... ... ... : ... .. . ... ... ...
ROW 18 : ... .. . ... ... ... : ... .. . ... ... ... : ... .. . ... ... ... : ... .. . ... ... ... : ... .. . ... ... ... : ... .. . ... ... ... : ... .. . ... ... ... : ... .. . ... ... ... : ... .. . ... ... ... : ... .. . ... ... ... : ... .. . ... ... ... : ... .. . ... ... ... : ... .. . ... ... ...
ROW 19 : ... .. . ... ... ... : ... .. . ... ... ... : ... .. . ... ... ... : ... .. 3 ... ... ... : ... .. . ... ... ... : ... .. . ... ... ... : ... .. . P82 ... ... : ... .. . ... ... ... : ... .. . ... ... ... : ... .. . ... ... ... : ... .. . ... ... ... : ... .. . ... ... ... : ... .. . ... ... ...
ROW 1A : ... .. . ... ... ... : ... .. . ... ... ... : ... .. . ... ... ... : D-# 00 A ... ... ... : ... .. . ... ... ... : G#1 04 . ... ... ... : --- .. . ... ... ... : G-1 04 6 P80 ... ... : A-1 04 . P82 ... ... : ... .. . ... ... ... : ... .. . ... ... ... : ... .. . ... ... ... : ... .. . ... ... ...
ROW 1B : ... .. . ... ... ... : ... .. . ... ... ... : ... .. . ... ... ... : E-# 00 4 ... ... ... : ... .. . ... ... ... : ... .. . ... ... ... : ... .. . P80 ... ... : ... .. . ... ... ... : ... .. . ... ... ... : ... .. . ... ... ... : ... .. . ... ... ... : ... .. . ... ... ... : ... .. . ... ... ...
ROW 1C : ... .. . ... ... ... : ... .. . ... ... ... : ... .. . ... ... ... : D-# 00 2 ... ... ... : ... .. . ... ... ... : ... .. . ... ... ... : ... .. . ... ... ... : ... .. . ... ... ... : ... .. . ... ... ... : ... .. . ... ... ... : ... .. . ... ... ... : ... .. . ... ... ... : ... .. . ... ... ...
ROW 1D : ... .. . ... ... ... : ... .. . ... ... ... : ... .. . ... ... ... : ... .. 1 ... ... ... : ... .. . ... ... ... : ... .. . ... ... ... : ... .. . ... ... ... : ... .. . ... ... ... : ... .. . ... ... ... : ... .. . ... ... ... : ... .. . ... ... ... : ... .. . ... ... ... : ... .. . ... ... ...
ROW 1E : ... .. . ... ... ... : ... .. . ... ... ... : ... .. . ... ... ... : ... .. . ... ... ... : ... .. . ... ... ... : ... .. . ... ... ... : ... .. . ... ... ... : ... .. 5 ... ... ... : ... .. 7 ... ... ... : ... .. . ... ... ... : ... .. . ... ... ... : ... .. . ... ... ... : ... .. . ... ... ...
ROW 1F : ... .. . ... ... ... : ... .. . ... ... ... : ... .. . ... ... ... : --- .. . ... ... ... : ... .. . ... ... ... : ... .. . ... ... ... : ... .. . ... ... ... : ... .. . ... ... ... : ... .. . ... ... ... : ... .. . ... ... ... : ... .. . ... ... ... : ... .. . ... ... ... : ... .. . ... ... ...
ROW 20 : ... .. . ... ... ... : ... .. . ... ... ... : ... .. . ... ... ... : D-# 00 A ... ... ... : ... .. . ... ... ... : G#2 04 . ... ... ... : ... .. . ... ... ... : G#2 04 . P82 ... ... : G#2 04 . P7F ... ... : ... .. . ... ... ... : ... .. . ... ... ... : ... .. . ... ... ... : ... .. . ... ... ...
ROW 21 : ... .. . ... ... ... : ... .. . ... ... ... : ... .. . ... ... ... : E-# 00 4 ... ... ... : ... .. . ... ... ... : ... .. . ... ... ... : ... .. . ... ... ... : ... .. . ... ... ... : ... .. . ... ... ... : ... .. . ... ... ... : ... .. . ... ... ... : ... .. . ... ... ... : ... .. . ... ... ...
ROW 22 : ... .. . ... ... ... : ... .. . ... ... ... : ... .. . ... ... ... : D-# 00 2 ... ... ... : ... .. . ... ... ... : ... .. . ... ... ... : ... .. . ... ... ... : ... .. 4 ... ... ... : ... .. . ... ... ... : ... .. . ... ... ... : ... .. . ... ... ... : ... .. . ... ... ... : ... .. . ... ... ...
ROW 23 : ... .. . ... ... ... : ... .. . ... ... ... : ... .. . ... ... ... : ... .. 1 ... ... ... : ... .. . ... ... ... : ... .. . ... ... ... : ... .. . ... ... ... : ... .. . ... ... ... : ... .. . ... ... ... : ... .. . ... ... ... : ... .. . ... ... ... : ... .. . ... ... ... : ... .. . ... ... ...
ROW 24 : ... .. . ... ... ... : ... .. . ... ... ... : ... .. . ... ... ... : ... .. . ... ... ... : ... .. . ... ... ... : ... .. . ... ... ... : ... .. . ... ... ... : ... .. . ... ... ... : ... .. . ... ... ... : ... .. . ... ... ... : ... .. . ... ... ... : ... .. . ... ... ... : ... .. . ... ... ...
ROW 25 : ... .. . ... ... ... : ... .. . ... ... ... : ... .. . ... ... ... : --- .. . ... ... ... : ... .. . ... ... ... : ... .. . ... ... ... : ... .. . ... ... ... : ... .. . ... ... ... : ... .. . ... ... ... : ... .. . ... ... ... : ... .. . ... ... ... : ... .. . ... ... ... : ... .. . ... ... ...
ROW 26 : ... .. . ... ... ... : ... .. . ... ... ... : ... .. . ... ... ... : ... .. . ... ... ... : ... .. . ... ... ... : ... .. . ... ... ... : ... .. . ... ... ... : ... .. 3 ... ... ... : ... .. 6 ... ... ... : ... .. . ... ... ... : ... .. . ... ... ... : ... .. . ... ... ... : ... .. . ... ... ...
ROW 27 : ... .. . ... ... ... : C-4 02 . P80 ... ... : F#3 00 . P78 ... ... : 1-# 00 F ... ... ... : C-1 12 . ... ... ... : B-4 0C 7 P7C ... ... : ... .. . ... ... ... : --- .. . ... ... ... : A#3 0C 1 P85 ... ... : ... .. . ... ... ... : ... .. . ... ... ... : ... .. . ... ... ... : ... .. . ... ... ...
ROW 28 : ... .. . ... ... ... : F-3 02 . ... ... ... : C#3 00 . P7E ... ... : 2-# 00 7 ... ... ... : ... .. . ... ... ... : A#4 0C . P79 ... ... : ... .. . ... ... ... : ... .. . P80 ... ... : G-3 0C . ... ... ... : ... .. . ... ... ... : ... .. . ... ... ... : ... .. . ... ... ... : ... .. . ... ... ...
ROW 29 : ... .. . ... ... ... : A#2 02 . P81 ... ... : A-2 00 . P86 ... ... : 1-# 00 4 ... ... ... : ... .. . ... ... ... : A-4 0C . P78 ... ... : ... .. . ... ... ... : ... .. . ... ... ... : D#3 0C . P82 ... ... : ... .. . ... ... ... : ... .. . ... ... ... : ... .. . ... ... ... : ... .. . ... ... ...
ROW 2A : ... .. . ... ... ... : D#2 02 . ... ... ... : --- .. . ... ... ... : ... .. 2 ... ... ... : ... .. . ... ... ... : G#4 0C . ... ... ... : ... .. . ... ... ... : ... .. . ... ... ... : A#2 0C . P7F ... ... : ... .. . ... ... ... : ... .. . ... ... ... : ... .. . ... ... ... : ... .. . ... ... ...
ROW 2B : ... .. . ... ... ... : G#1 02 . ... ... ... : ... .. . ... ... ... : ... .. 1 ... ... ... : ... .. . ... ... ... : G-4 0C . ... ... ... : ... .. . ... ... ... : ... .. . ... ... ... : E-2 0C . P81 ... ... : ... .. . ... ... ... : ... .. . ... ... ... : ... .. . ... ... ... : ... .. . ... ... ...
ROW 2C : ... .. . ... ... ... : C#1 02 . ... ... ... : ... .. . ... ... ... : --- .. . ... ... ... : ... .. . ... ... ... : --- .. . ... ... ... : ... .. . ... ... ... : ... .. . ... ... ... : --- .. . ... ... ... : ... .. . ... ... ... : ... .. . ... ... ... : ... .. . ... ... ... : ... .. . ... ... ...
ROW 2D : ... .. . ... ... ... : ... .. . ... ... ... : ... .. . ... ... ... : ... .. . ... ... ... : ... .. . ... ... ... : B-4 0C . P7C ... ... : ... .. . ... ... ... : ... .. . ... ... ... : A#3 0C . P85 ... ... : ... .. . ... ... ... : ... .. . ... ... ... : ... .. . ... ... ... : ... .. . ... ... ...
ROW 2E : ... .. . ... ... ... : ... .. . ... ... ... : ... .. . ... ... ... : ... .. . ... ... ... : ... .. . ... ... ... : A#4 0C . P79 ... ... : ... .. . ... ... ... : ... .. . ... ... ... : G-3 0C . ... ... ... : ... .. . ... ... ... : ... .. . ... ... ... : ... .. . ... ... ... : ... .. . ... ... ...
ROW 2F : ... .. . ... ... ... : ... .. . ... ... ... : ... .. . ... ... ... : ... .. . ... ... ... : ... .. . ... ... ... : A-4 0C . P78 ... ... : ... .. . ... ... ... : ... .. . ... ... ... : --- .. . ... ... ... : ... .. . ... ... ... : ... .. . ... ... ... : ... .. . ... ... ... : ... .. . ... ... ...
ROW 30 : ... .. . ... ... ... : ... .. . ... ... ... : ... .. . ... ... ... : ... .. . ... ... ... : ... .. . ... ... ... : G#4 0C . ... ... ... : ... .. . ... ... ... : ... .. . ... ... ... : ... .. . P80 ... ... : ... .. . ... ... ... : ... .. . ... ... ... : ... .. . ... ... ... : ... .. . ... ... ...
ROW 31 : ... .. . ... ... ... : ... .. . ... ... ... : ... .. . ... ... ... : ... .. . ... ... ... : ... .. . ... ... ... : G-4 0C . ... ... ... : ... .. . ... ... ... : ... .. . ... ... ... : ... .. . ... ... ... : ... .. . ... ... ... : ... .. . ... ... ... : ... .. . ... ... ... : ... .. . ... ... ...
ROW 32 : ... .. . ... ... ... : ... .. . ... ... ... : ... .. . ... ... ... : ... .. . ... ... ... : ... .. . ... ... ... : --- .. . ... ... ... : ... .. . ... ... ... : ... .. . ... ... ... : ... .. . ... ... ... : ... .. . ... ... ... : ... .. . ... ... ... : ... .. . ... ... ... : ... .. . ... ... ...
ROW 33 : ... .. . ... ... ... : ... .. . ... ... ... : ... .. . ... ... ... : D-# 00 A ... ... ... : ... .. . ... ... ... : B-2 05 A P80 ... ... : A#2 05 A P7F ... ... : B-2 05 9 P7E ... ... : G#2 05 9 P81 ... ... : ... .. . ... ... ... : ... .. . ... ... ... : ... .. . ... ... ... : ... .. . ... ... ...
ROW 34 : ... .. . ... ... ... : ... .. . ... ... ... : ... .. . ... ... ... : E-# 00 4 ... ... ... : ... .. . ... ... ... : ... .. . ... ... ... : ... .. . P7E ... ... : ... .. . ... ... ... : ... .. . ... ... ... : ... .. . ... ... ... : ... .. . ... ... ... : ... .. . ... ... ... : ... .. . ... ... ...
ROW 35 : ... .. . ... ... ... : ... .. . ... ... ... : ... .. . ... ... ... : D-# 00 2 ... ... ... : ... .. . ... ... ... : ... .. . ... ... ... : B-2 05 . P82 ... ... : ... .. . ... ... ... : ... .. . ... ... ... : ... .. . ... ... ... : ... .. . ... ... ... : ... .. . ... ... ... : ... .. . ... ... ...
ROW 36 : ... .. . ... ... ... : ... .. . ... ... ... : ... .. . ... ... ... : ... .. 1 ... ... ... : ... .. . ... ... ... : ... .. . ... ... ... : ... .. . P83 ... ... : ... .. . ... ... ... : ... .. . ... ... ... : ... .. . ... ... ... : ... .. . ... ... ... : ... .. . ... ... ... : ... .. . ... ... ...
ROW 37 : ... .. . ... ... ... : ... .. . ... ... ... : ... .. . ... ... ... : ... .. . ... ... ... : ... .. . ... ... ... : --- .. . ... ... ... : --- .. . ... ... ... : --- .. . ... ... ... : --- .. . ... ... ... : ... .. . ... ... ... : ... .. . ... ... ... : ... .. . ... ... ... : ... .. . ... ... ...
ROW 38 : ... .. . ... ... ... : ... .. . ... ... ... : ... .. . ... ... ... : --- .. . ... ... ... : ... .. . ... ... ... : ... .. . ... ... ... : ... .. . P80 ... ... : ... .. . P80 ... ... : ... .. . P80 ... ... : ... .. . ... ... ... : ... .. . ... ... ... : ... .. . ... ... ... : ... .. . ... ... ...
ROW 39 : ... .. . ... ... ... : ... .. . ... ... ... : ... .. . ... ... ... : D-# 00 A ... ... ... : ... .. . ... ... ... : B-2 05 4 ... ... ... : B-2 05 4 P83 ... ... : B-2 05 3 P7E ... ... : G#2 05 3 P81 ... ... : ... .. . ... ... ... : ... .. . ... ... ... : ... .. . ... ... ... : ... .. . ... ... ...
ROW 3A : ... .. . ... ... ... : ... .. . ... ... ... : ... .. . ... ... ... : E-# 00 4 ... ... ... : ... .. . ... ... ... : ... .. . ... ... ... : ... .. . P82 ... ... : ... .. . ... ... ... : ... .. . ... ... ... : ... .. . ... ... ... : ... .. . ... ... ... : ... .. . ... ... ... : ... .. . ... ... ...
ROW 3B : ... .. . ... ... ... : ... .. . ... ... ... : ... .. . ... ... ... : D-# 00 2 ... ... ... : ... .. . ... ... ... : ... .. . ... ... ... : A#2 05 . P7E ... ... : ... .. . ... ... ... : ... .. . ... ... ... : ... .. . ... ... ... : ... .. . ... ... ... : ... .. . ... ... ... : ... .. . ... ... ...
ROW 3C : ... .. . ... ... ... : ... .. . ... ... ... : ... .. . ... ... ... : ... .. 1 ... ... ... : ... .. . ... ... ... : ... .. . ... ... ... : ... .. . P7F ... ... : ... .. . ... ... ... : ... .. . ... ... ... : ... .. . ... ... ... : ... .. . ... ... ... : ... .. . ... ... ... : ... .. . ... ... ...
ROW 3D : ... .. . ... ... ... : ... .. . ... ... ... : ... .. . ... ... ... : ... .. . ... ... ... : ... .. . ... ... ... : ... .. . ... ... ... : ... .. . P7E ... ... : ... .. 2 ... ... ... : ... .. . ... ... ... : ... .. . ... ... ... : ... .. . ... ... ... : ... .. . ... ... ... : ... .. . ... ... ...
ROW 3E : ... .. . ... ... ... : ... .. . ... ... ... : ... .. . ... ... ... : --- .. . ... ... ... : ... .. . ... ... ... : --- .. . ... ... ... : --- .. . ... ... ... : --- .. . ... ... ... : --- .. . ... ... ... : ... .. . ... ... ... : ... .. . ... ... ... : ... .. . ... ... ... : ... .. . ... ... ...
ROW 3F : ... .. . ... ... ... : ... .. . ... ... ... : ... .. . ... ... ... : ... .. . ... ... ... : ... .. . ... ... ... : ... .. . ... ... ... : ... .. . P80 ... ... : ... .. . P80 ... ... : ... .. . P80 ... ... : ... .. . ... ... ... : ... .. . ... ... ... : ... .. . ... ... ... : ... .. . ... ... ...
ROW 40 : ... .. . ... ... ... : C-4 02 . P80 ... ... : C#4 00 . P7F ... ... : 9-# 00 F ... ... ... : C#1 12 . ... ... ... : C#3 05 A ... ... ... : C-3 05 A P7E ... ... : C#3 05 9 P7E ... ... : B-2 05 9 P81 ... ... : ... .. . ... ... ... : ... .. . ... ... ... : ... .. . ... ... ... : ... .. . ... ... ...
ROW 41 : ... .. . ... ... ... : F-3 02 . ... ... ... : F#3 00 . P83 ... ... : 2-# 00 7 ... ... ... : ... .. . ... ... ... : ... .. . ... ... ... : C#3 05 . P83 ... ... : ... .. . ... ... ... : ... .. . ... ... ... : ... .. . ... ... ... : ... .. . ... ... ... : ... .. . ... ... ... : ... .. . ... ... ...
ROW 42 : ... .. . ... ... ... : A#2 02 . P81 ... ... : C#3 00 . P89 ... ... : 6-# 00 C ... ... ... : ... .. . ... ... ... : ... .. . ... ... ... : ... .. . P82 ... ... : ... .. . ... ... ... : ... .. . ... ... ... : ... .. . ... ... ... : ... .. . ... ... ... : ... .. . ... ... ... : ... .. . ... ... ...
ROW 43 : ... .. . ... ... ... : D#2 02 . ... ... ... : A#2 00 . P75 ... ... : 7-# 00 8 ... ... ... : ... .. . ... ... ... : ... .. . ... ... ... : ... .. . P83 ... ... : ... .. . ... ... ... : ... .. . ... ... ... : ... .. . ... ... ... : ... .. . ... ... ... : ... .. . ... ... ... : ... .. . ... ... ...
ROW 44 : ... .. . ... ... ... : G#1 02 . ... ... ... : G-2 00 . P70 ... ... : 8-# 00 7 ... ... ... : ... .. . ... ... ... : --- .. . ... ... ... : --- .. . ... ... ... : --- .. . ... ... ... : --- .. . ... ... ... : ... .. . ... ... ... : ... .. . ... ... ... : ... .. . ... ... ... : ... .. . ... ... ...
ROW 45 : ... .. . ... ... ... : C#1 02 . ... ... ... : E-2 00 . P7C ... ... : ... .. 6 ... ... ... : ... .. . ... ... ... : ... .. . ... ... ... : ... .. . P80 ... ... : ... .. . P80 ... ... : ... .. . P80 ... ... : ... .. . ... ... ... : ... .. . ... ... ... : ... .. . ... ... ... : ... .. . ... ... ...
ROW 46 : ... .. . ... ... ... : ... .. . ... ... ... : --- .. . ... ... ... : ... .. . ... ... ... : ... .. . ... ... ... : C#3 05 4 ... ... ... : C#3 05 4 P83 ... ... : C#3 05 3 P7E ... ... : B-2 05 3 P81 ... ... : ... .. . ... ... ... : ... .. . ... ... ... : ... .. . ... ... ... : ... .. . ... ... ...
ROW 47 : ... .. . ... ... ... : ... .. . ... ... ... : ... .. . ... ... ... : ... .. 5 ... ... ... : ... .. . ... ... ... : ... .. . ... ... ... : ... .. . ... ... ... : ... .. . ... ... ... : ... .. . ... ... ... : ... .. . ... ... ... : ... .. . ... ... ... : ... .. . ... ... ... : ... .. . ... ... ...
ROW 48 : ... .. . ... ... ... : ... .. . ... ... ... : ... .. . ... ... ... : ... .. . ... ... ... : ... .. . ... ... ... : ... .. . ... ... ... : C-3 05 . P7E ... ... : ... .. . ... ... ... : ... .. . ... ... ... : ... .. . ... ... ... : ... .. . ... ... ... : ... .. . ... ... ... : ... .. . ... ... ...
ROW 49 : ... .. . ... ... ... : ... .. . ... ... ... : ... .. . ... ... ... : ... .. 4 ... ... ... : ... .. . ... ... ... : ... .. . ... ... ... : ... .. . ... ... ... : ... .. . ... ... ... : ... .. . ... ... ... : ... .. . ... ... ... : ... .. . ... ... ... : ... .. . ... ... ... : ... .. . ... ... ...
ROW 4A : ... .. . ... ... ... : ... .. . ... ... ... : ... .. . ... ... ... : ... .. . ... ... ... : ... .. . ... ... ... : --- .. . ... ... ... : --- .. . ... ... ... : --- .. . ... ... ... : --- .. . ... ... ... : ... .. . ... ... ... : ... .. . ... ... ... : ... .. . ... ... ... : ... .. . ... ... ...
ROW 4B : ... .. . ... ... ... : ... .. . ... ... ... : ... .. . ... ... ... : ... .. 3 ... ... ... : ... .. . ... ... ... : ... .. . ... ... ... : ... .. . P80 ... ... : ... .. . P80 ... ... : ... .. . P80 ... ... : ... .. . ... ... ... : ... .. . ... ... ... : ... .. . ... ... ... : ... .. . ... ... ...
ROW 4C : ... .. . ... ... ... : ... .. . ... ... ... : ... .. . ... ... ... : D-# 00 A ... ... ... : ... .. . ... ... ... : G#3 05 A ... ... ... : G#3 05 A P83 ... ... : G#3 05 9 P7E ... ... : D#3 05 9 P81 ... ... : ... .. . ... ... ... : ... .. . ... ... ... : ... .. . ... ... ... : ... .. . ... ... ...
ROW 4D : ... .. . ... ... ... : ... .. . ... ... ... : ... .. . ... ... ... : E-# 00 4 ... ... ... : ... .. . ... ... ... : ... .. . ... ... ... : ... .. . P84 ... ... : ... .. . ... ... ... : ... .. . ... ... ... : ... .. . ... ... ... : ... .. . ... ... ... : ... .. . ... ... ... : ... .. . ... ... ...
ROW 4E : ... .. . ... ... ... : ... .. . ... ... ... : ... .. . ... ... ... : D-# 00 2 ... ... ... : ... .. . ... ... ... : ... .. . ... ... ... : ... .. . P83 ... ... : ... .. . ... ... ... : ... .. . ... ... ... : ... .. . ... ... ... : ... .. . ... ... ... : ... .. . ... ... ... : ... .. . ... ... ...
ROW 4F : ... .. . ... ... ... : ... .. . ... ... ... : ... .. . ... ... ... : ... .. 1 ... ... ... : ... .. . ... ... ... : ... .. . ... ... ... : ... .. . P82 ... ... : ... .. . ... ... ... : ... .. . ... ... ... : ... .. . ... ... ... : ... .. . ... ... ... : ... .. . ... ... ... : ... .. . ... ... ...
ROW 50 : ... .. . ... ... ... : ... .. . ... ... ... : ... .. . ... ... ... : ... .. . ... ... ... : ... .. . ... ... ... : --- .. . ... ... ... : --- .. . ... ... ... : --- .. . ... ... ... : --- .. . ... ... ... : ... .. . ... ... ... : ... .. . ... ... ... : ... .. . ... ... ... : ... .. . ... ... ...
ROW 51 : ... .. . ... ... ... : ... .. . ... ... ... : ... .. . ... ... ... : --- .. . ... ... ... : ... .. . ... ... ... : ... .. . ... ... ... : ... .. . P80 ... ... : ... .. . P80 ... ... : ... .. . P80 ... ... : ... .. . ... ... ... : ... .. . ... ... ... : ... .. . ... ... ... : ... .. . ... ... ...
ROW 52 : ... .. . ... ... ... : ... .. . ... ... ... : ... .. . ... ... ... : D-# 00 A ... ... ... : ... .. . ... ... ... : G#3 05 4 ... ... ... : G#3 05 . P83 ... ... : G#3 05 . P7E ... ... : D#3 05 . P81 ... ... : ... .. . ... ... ... : ... .. . ... ... ... : ... .. . ... ... ... : ... .. . ... ... ...
ROW 53 : ... .. . ... ... ... : ... .. . ... ... ... : ... .. . ... ... ... : E-# 00 4 ... ... ... : ... .. . ... ... ... : ... .. . ... ... ... : ... .. . P82 ... ... : ... .. . ... ... ... : ... .. . ... ... ... : ... .. . ... ... ... : ... .. . ... ... ... : ... .. . ... ... ... : ... .. . ... ... ...
ROW 54 : ... .. . ... ... ... : ... .. . ... ... ... : ... .. . ... ... ... : D-# 00 2 ... ... ... : ... .. . ... ... ... : ... .. . ... ... ... : ... .. . P83 ... ... : ... .. . ... ... ... : ... .. . ... ... ... : ... .. . ... ... ... : ... .. . ... ... ... : ... .. . ... ... ... : ... .. . ... ... ...
ROW 55 : ... .. . ... ... ... : ... .. . ... ... ... : ... .. . ... ... ... : ... .. 1 ... ... ... : ... .. . ... ... ... : ... .. . ... ... ... : ... .. . P84 ... ... : ... .. . ... ... ... : ... .. . ... ... ... : ... .. . ... ... ... : ... .. . ... ... ... : ... .. . ... ... ... : ... .. . ... ... ...
ROW 56 : ... .. . ... ... ... : ... .. . ... ... ... : ... .. . ... ... ... : ... .. . ... ... ... : ... .. . ... ... ... : ... .. . ... ... ... : ... .. . ... ... ... : ... .. 8 ... ... ... : ... .. . ... ... ... : ... .. . ... ... ... : ... .. . ... ... ... : ... .. . ... ... ... : ... .. . ... ... ...
ROW 57 : ... .. . ... ... ... : ... .. . ... ... ... : ... .. . ... ... ... : --- .. . ... ... ... : ... .. . ... ... ... : --- .. . ... ... ... : --- .. . ... ... ... : --- .. . ... ... ... : --- .. . ... ... ... : ... .. . ... ... ... : ... .. . ... ... ... : ... .. . ... ... ... : ... .. . ... ... ...
ROW 58 : ... .. . ... ... ... : ... .. . ... ... ... : ... .. . ... ... ... : ... .. . ... ... ... : ... .. . ... ... ... : ... .. . ... ... ... : ... .. . P80 ... ... : ... .. . P80 ... ... : ... .. . P80 ... ... : ... .. . ... ... ... : ... .. . ... ... ... : ... .. . ... ... ... : ... .. . ... ... ...
ROW 59 : ... .. . ... ... ... : C-4 02 . P80 ... ... : F#3 00 . P78 ... ... : 1-# 00 F ... ... ... : C-1 12 . ... ... ... : G#1 06 F ... ... ... : G-1 06 F ... ... ... : ... .. . ... ... ... : G#1 06 E P7F ... ... : G#2 06 B P81 ... ... : ... .. . ... ... ... : ... .. . ... ... ... : ... .. . ... ... ...
ROW 5A : ... .. . ... ... ... : F-3 02 . ... ... ... : C#3 00 . P7E ... ... : 2-# 00 7 ... ... ... : ... .. . ... ... ... : ... .. . ... ... ... : ... .. . ... ... ... : ... .. . ... ... ... : ... .. . ... ... ... : ... .. . ... ... ... : ... .. . ... ... ... : ... .. . ... ... ... : ... .. . ... ... ...
ROW 5B : ... .. . ... ... ... : A#2 02 . P81 ... ... : A-2 00 . P86 ... ... : 1-# 00 4 ... ... ... : ... .. . ... ... ... : ... .. . ... ... ... : G#1 06 . P81 ... ... : ... .. . ... ... ... : ... .. . ... ... ... : ... .. . ... ... ... : ... .. . ... ... ... : ... .. . ... ... ... : ... .. . ... ... ...
ROW 5C : ... .. . ... ... ... : D#2 02 . ... ... ... : --- .. . ... ... ... : ... .. 2 ... ... ... : ... .. . ... ... ... : G#1 07 . ... ... ... : G#1 07 . P80 ... ... : ... .. . ... ... ... : G#1 07 . ... ... ... : G#2 07 . ... ... ... : ... .. . ... ... ... : ... .. . ... ... ... : ... .. . ... ... ...
ROW 5D : ... .. . ... ... ... : G#1 02 . ... ... ... : ... .. . ... ... ... : ... .. 1 ... ... ... : ... .. . ... ... ... : ... .. . ... ... ... : ... .. . P81 ... ... : ... .. . ... ... ... : ... .. . ... ... ... : ... .. A ... ... ... : ... .. . ... ... ... : ... .. . ... ... ... : ... .. . ... ... ...
ROW 5E : ... .. . ... ... ... : C#1 02 . ... ... ... : ... .. . ... ... ... : --- .. . ... ... ... : ... .. . ... ... ... : ... .. . ... ... ... : G-1 07 . P80 ... ... : ... .. . ... ... ... : ... .. . ... ... ... : ... .. . ... ... ... : ... .. . ... ... ... : ... .. . ... ... ... : ... .. . ... ... ...
ROW 5F : ... .. . ... ... ... : ... .. . ... ... ... : ... .. . ... ... ... : ... .. . ... ... ... : ... .. . ... ... ... : G#1 08 . ... ... ... : G#1 08 . P81 ... ... : ... .. . ... ... ... : G#1 08 . ... ... ... : G#2 08 . ... ... ... : ... .. . ... ... ... : ... .. . ... ... ... : ... .. . ... ... ...
ROW 60 : ... .. . ... ... ... : ... .. . ... ... ... : ... .. . ... ... ... : ... .. . ... ... ... : ... .. . ... ... ... : ... .. . ... ... ... : ... .. . P80 ... ... : ... .. . ... ... ... : ... .. . ... ... ... : ... .. . ... ... ... : ... .. . ... ... ... : ... .. . ... ... ... : ... .. . ... ... ...
ROW 61 : ... .. . ... ... ... : ... .. . ... ... ... : ... .. . ... ... ... : ... .. . ... ... ... : ... .. . ... ... ... : ... .. . ... ... ... : ... .. . P81 ... ... : ... .. . ... ... ... : ... .. D ... ... ... : ... .. 9 ... ... ... : ... .. . ... ... ... : ... .. . ... ... ... : ... .. . ... ... ...
ROW 62 : ... .. . ... ... ... : ... .. . ... ... ... : ... .. . ... ... ... : ... .. . ... ... ... : ... .. . ... ... ... : G#1 09 . ... ... ... : G-1 09 . P80 ... ... : ... .. . ... ... ... : G#1 09 . ... ... ... : G#2 09 . ... ... ... : ... .. . ... ... ... : ... .. . ... ... ... : ... .. . ... ... ...
ROW 63 : ... .. . ... ... ... : ... .. . ... ... ... : ... .. . ... ... ... : ... .. . ... ... ... : ... .. . ... ... ... : ... .. . ... ... ... : G#1 09 . P81 ... ... : ... .. . ... ... ... : ... .. . ... ... ... : ... .. . ... ... ... : ... .. . ... ... ... : ... .. . ... ... ... : ... .. . ... ... ...
ROW 64 : ... .. . ... ... ... : ... .. . ... ... ... : ... .. . ... ... ... : ... .. . ... ... ... : ... .. . ... ... ... : ... .. . ... ... ... : ... .. . P80 ... ... : ... .. . ... ... ... : ... .. . ... ... ... : ... .. . ... ... ... : ... .. . ... ... ... : ... .. . ... ... ... : ... .. . ... ... ...
ROW 65 : ... .. . ... ... ... : ... .. . ... ... ... : ... .. . ... ... ... : D-# 00 A ... ... ... : ... .. . ... ... ... : ... .. . ... ... ... : ... .. . P81 ... ... : ... .. . ... ... ... : ... .. . ... ... ... : ... .. 8 ... ... ... : ... .. . ... ... ... : ... .. . ... ... ... : ... .. . ... ... ...
ROW 66 : ... .. . ... ... ... : ... .. . ... ... ... : ... .. . ... ... ... : E-# 00 4 ... ... ... : ... .. . ... ... ... : ... .. . ... ... ... : G-1 09 . P80 ... ... : ... .. . ... ... ... : ... .. . ... ... ... : ... .. . ... ... ... : ... .. . ... ... ... : ... .. . ... ... ... : ... .. . ... ... ...
ROW 67 : ... .. . ... ... ... : ... .. . ... ... ... : ... .. . ... ... ... : D-# 00 2 ... ... ... : ... .. . ... ... ... : ... .. . ... ... ... : ... .. . ... ... ... : ... .. . ... ... ... : ... .. . ... ... ... : ... .. . ... ... ... : ... .. . ... ... ... : ... .. . ... ... ... : ... .. . ... ... ...
ROW 68 : ... .. . ... ... ... : ... .. . ... ... ... : ... .. . ... ... ... : ... .. 1 ... ... ... : ... .. . ... ... ... : G#1 08 . ... ... ... : G#1 08 . P81 ... ... : ... .. . ... ... ... : G#1 08 . ... ... ... : G#2 08 . ... ... ... : ... .. . ... ... ... : ... .. . ... ... ... : ... .. . ... ... ...
ROW 69 : ... .. . ... ... ... : ... .. . ... ... ... : ... .. . ... ... ... : ... .. . ... ... ... : ... .. . ... ... ... : ... .. . ... ... ... : ... .. . ... ... ... : ... .. . ... ... ... : ... .. C ... ... ... : ... .. 7 ... ... ... : ... .. . ... ... ... : ... .. . ... ... ... : ... .. . ... ... ...
ROW 6A : ... .. . ... ... ... : ... .. . ... ... ... : ... .. . ... ... ... : --- .. . ... ... ... : ... .. . ... ... ... : ... .. . ... ... ... : G-1 08 . P80 ... ... : ... .. . ... ... ... : ... .. . ... ... ... : ... .. . ... ... ... : ... .. . ... ... ... : ... .. . ... ... ... : ... .. . ... ... ...
ROW 6B : ... .. . ... ... ... : ... .. . ... ... ... : ... .. . ... ... ... : D-# 00 A ... ... ... : ... .. . ... ... ... : G#1 07 . ... ... ... : G-1 07 . ... ... ... : ... .. . ... ... ... : G#1 07 . ... ... ... : G#2 07 . ... ... ... : ... .. . ... ... ... : ... .. . ... ... ... : ... .. . ... ... ...
ROW 6C : ... .. . ... ... ... : ... .. . ... ... ... : ... .. . ... ... ... : E-# 00 4 ... ... ... : ... .. . ... ... ... : ... .. . ... ... ... : G#1 07 . P81 ... ... : ... .. . ... ... ... : ... .. . ... ... ... : ... .. . ... ... ... : ... .. . ... ... ... : ... .. . ... ... ... : ... .. . ... ... ...
ROW 6D : ... .. . ... ... ... : ... .. . ... ... ... : ... .. . ... ... ... : D-# 00 2 ... ... ... : ... .. . ... ... ... : ... .. . ... ... ... : ... .. . P80 ... ... : ... .. . ... ... ... : ... .. . ... ... ... : ... .. 6 ... ... ... : ... .. . ... ... ... : ... .. . ... ... ... : ... .. . ... ... ...
ROW 6E : ... .. . ... ... ... : ... .. . ... ... ... : ... .. . ... ... ... : ... .. 1 ... ... ... : ... .. . ... ... ... : G#1 06 . ... ... ... : G#1 06 . P81 ... ... : ... .. . ... ... ... : G#1 06 . ... ... ... : G#2 06 . ... ... ... : ... .. . ... ... ... : ... .. . ... ... ... : ... .. . ... ... ...
ROW 6F : ... .. . ... ... ... : ... .. . ... ... ... : ... .. . ... ... ... : ... .. . ... ... ... : ... .. . ... ... ... : ... .. . ... ... ... : G-1 06 . P80 ... ... : ... .. . ... ... ... : ... .. . ... ... ... : ... .. . ... ... ... : ... .. . ... ... ... : ... .. . ... ... ... : ... .. . ... ... ...
ROW 70 : ... .. . ... ... ... : ... .. . ... ... ... : ... .. . ... ... ... : --- .. . ... ... ... : ... .. . ... ... ... : ... .. . ... ... ... : G#1 06 . P81 ... ... : ... .. . ... ... ... : ... .. . ... ... ... : ... .. . ... ... ... : ... .. . ... ... ... : ... .. . ... ... ... : ... .. . ... ... ...
ROW 71 : ... .. . ... ... ... : ... .. . ... ... ... : ... .. . ... ... ... : ... .. . ... ... ... : ... .. . ... ... ... : ... .. . ... ... ... : ... .. . P80 ... ... : ... .. . ... ... ... : ... .. B ... ... ... : ... .. 5 ... ... ... : ... .. . ... ... ... : ... .. . ... ... ... : ... .. . ... ... ...
ROW 72 : ... .. . ... ... ... : C-4 02 . P80 ... ... : C#4 00 . P7F ... ... : 9-# 00 F ... ... ... : C#1 12 . ... ... ... : D-2 06 . ... ... ... : D-2 06 . P81 ... ... : ... .. . ... ... ... : D-2 06 . ... ... ... : D-3 06 . ... ... ... : ... .. . ... ... ... : ... .. . ... ... ... : ... .. . ... ... ...
ROW 73 : ... .. . ... ... ... : F-3 02 . ... ... ... : F#3 00 . P83 ... ... : 2-# 00 7 ... ... ... : ... .. . ... ... ... : ... .. . ... ... ... : C#2 06 . P7F ... ... : ... .. . ... ... ... : ... .. . ... ... ... : ... .. . ... ... ... : ... .. . ... ... ... : ... .. . ... ... ... : ... .. . ... ... ...
ROW 74 : ... .. . ... ... ... : A#2 02 . P81 ... ... : C#3 00 . P89 ... ... : 6-# 00 C ... ... ... : ... .. . ... ... ... : ... .. . ... ... ... : D-2 06 . P81 ... ... : ... .. . ... ... ... : ... .. . ... ... ... : ... .. . ... ... ... : ... .. . ... ... ... : ... .. . ... ... ... : ... .. . ... ... ...
ROW 75 : ... .. . ... ... ... : D#2 02 . ... ... ... : A#2 00 . P75 ... ... : 7-# 00 8 ... ... ... : ... .. . ... ... ... : D-2 08 . ... ... ... : D-2 08 . P80 ... ... : ... .. . ... ... ... : D-2 08 . ... ... ... : D-3 08 4 ... ... ... : ... .. . ... ... ... : ... .. . ... ... ... : ... .. . ... ... ...
ROW 76 : ... .. . ... ... ... : G#1 02 . ... ... ... : G-2 00 . P70 ... ... : 8-# 00 7 ... ... ... : ... .. . ... ... ... : ... .. . ... ... ... : ... .. . P81 ... ... : ... .. . ... ... ... : ... .. . ... ... ... : ... .. . ... ... ... : ... .. . ... ... ... : ... .. . ... ... ... : ... .. . ... ... ...
ROW 77 : ... .. . ... ... ... : C#1 02 . ... ... ... : E-2 00 . P7C ... ... : ... .. 6 ... ... ... : ... .. . ... ... ... : ... .. . ... ... ... : ... .. . P82 ... ... : ... .. . ... ... ... : ... .. . ... ... ... : ... .. . ... ... ... : ... .. . ... ... ... : ... .. . ... ... ... : ... .. . ... ... ...
ROW 78 : ... .. . ... ... ... : ... .. . ... ... ... : --- .. . ... ... ... : ... .. . ... ... ... : ... .. . ... ... ... : D-2 09 . ... ... ... : D-2 09 . ... ... ... : ... .. . ... ... ... : D-2 09 . ... ... ... : D-3 09 . ... ... ... : ... .. . ... ... ... : ... .. . ... ... ... : ... .. . ... ... ...
ROW 79 : ... .. . ... ... ... : ... .. . ... ... ... : ... .. . ... ... ... : ... .. 5 ... ... ... : ... .. . ... ... ... : ... .. . ... ... ... : ... .. . P81 ... ... : ... .. . ... ... ... : ... .. A ... ... ... : ... .. 3 ... ... ... : ... .. . ... ... ... : ... .. . ... ... ... : ... .. . ... ... ...
ROW 7A : ... .. . ... ... ... : ... .. . ... ... ... : ... .. . ... ... ... : ... .. . ... ... ... : ... .. . ... ... ... : ... .. . ... ... ... : ... .. . P80 ... ... : ... .. . ... ... ... : ... .. . ... ... ... : ... .. . ... ... ... : ... .. . ... ... ... : ... .. . ... ... ... : ... .. . ... ... ...
ROW 7B : ... .. . ... ... ... : ... .. . ... ... ... : ... .. . ... ... ... : ... .. 4 ... ... ... : ... .. . ... ... ... : D-2 07 . ... ... ... : D-2 07 . P81 ... ... : ... .. . ... ... ... : D-2 07 . ... ... ... : D-3 07 . ... ... ... : ... .. . ... ... ... : ... .. . ... ... ... : ... .. . ... ... ...
ROW 7C : ... .. . ... ... ... : ... .. . ... ... ... : ... .. . ... ... ... : ... .. . ... ... ... : ... .. . ... ... ... : ... .. . ... ... ... : C#2 07 . P7F ... ... : ... .. . ... ... ... : ... .. . ... ... ... : ... .. . ... ... ... : ... .. . ... ... ... : ... .. . ... ... ... : ... .. . ... ... ...
ROW 7D : ... .. . ... ... ... : ... .. . ... ... ... : ... .. . ... ... ... : ... .. 3 ... ... ... : ... .. . ... ... ... : ... .. . ... ... ... : D-2 07 . P81 ... ... : ... .. . ... ... ... : ... .. . ... ... ... : ... .. 2 ... ... ... : ... .. . ... ... ... : ... .. . ... ... ... : ... .. . ... ... ...
ROW 7E : ... .. . ... ... ... : ... .. . ... ... ... : ... .. . ... ... ... : D-# 00 A ... ... ... : ... .. . ... ... ... : D-2 06 . ... ... ... : D-2 06 . P80 ... ... : ... .. . ... ... ... : D-2 06 . ... ... ... : D-3 06 . ... ... ... : ... .. . ... ... ... : ... .. . ... ... ... : ... .. . ... ... ...
ROW 7F : ... .. . ... ... ... : ... .. . ... ... ... : ... .. . ... ... ... : E-# 00 4 ... ... ... : ... .. . ... ... ... : ... .. . ... ... ... : ... .. . P81 ... ... : ... .. . ... ... ... : ... .. . ... ... ... : ... .. . ... ... ... : ... .. . ... ... ... : ... .. . ... ... ... : ... .. . ... ... ...
ROW 80 : ... .. . ... ... ... : ... .. . ... ... ... : ... .. . ... ... ... : D-# 00 2 ... ... ... : ... .. . ... ... ... : ... .. . ... ... ... : C#2 06 . P7F ... ... : ... .. . ... ... ... : ... .. . ... ... ... : ... .. . ... ... ... : ... .. . ... ... ... : ... .. . ... ... ... : ... .. . ... ... ...
ROW 81 : ... .. . ... ... ... : ... .. . ... ... ... : ... .. . ... ... ... : ... .. 1 ... ... ... : ... .. . ... ... ... : D-2 08 . ... ... ... : D-2 08 . P81 ... ... : ... .. . ... ... ... : D-2 08 9 ... ... ... : D-3 08 1 ... ... ... : ... .. . ... ... ... : ... .. . ... ... ... : ... .. . ... ... ...
ROW 82 : ... .. . ... ... ... : ... .. . ... ... ... : ... .. . ... ... ... : ... .. . ... ... ... : ... .. . ... ... ... : ... .. . ... ... ... : ... .. . P80 ... ... : ... .. . ... ... ... : ... .. . ... ... ... : ... .. . ... ... ... : ... .. . ... ... ... : ... .. . ... ... ... : ... .. . ... ... ...
ROW 83 : ... .. . ... ... ... : ... .. . ... ... ... : ... .. . ... ... ... : --- .. . ... ... ... : ... .. . ... ... ... : ... .. . ... ... ... : ... .. . P81 ... ... : ... .. . ... ... ... : ... .. . ... ... ... : ... .. . ... ... ... : ... .. . ... ... ... : ... .. . ... ... ... : ... .. . ... ... ...
ROW 84 : ... .. . ... ... ... : ... .. . ... ... ... : ... .. . ... ... ... : D-# 00 A ... ... ... : ... .. . ... ... ... : D-2 09 . ... ... ... : C#2 09 . P7F ... ... : ... .. . ... ... ... : D-2 09 . ... ... ... : D-3 09 . ... ... ... : ... .. . ... ... ... : ... .. . ... ... ... : ... .. . ... ... ...
ROW 85 : ... .. . ... ... ... : ... .. . ... ... ... : ... .. . ... ... ... : E-# 00 4 ... ... ... : ... .. . ... ... ... : ... .. . ... ... ... : D-2 09 . P82 ... ... : ... .. . ... ... ... : ... .. . ... ... ... : --- .. . ... ... ... : ... .. . ... ... ... : ... .. . ... ... ... : ... .. . ... ... ...
ROW 86 : ... .. . ... ... ... : ... .. . ... ... ... : ... .. . ... ... ... : D-# 00 2 ... ... ... : ... .. . ... ... ... : ... .. . ... ... ... : ... .. . P81 ... ... : ... .. . ... ... ... : ... .. . ... ... ... : ... .. . P80 ... ... : ... .. . ... ... ... : ... .. . ... ... ... : ... .. . ... ... ...
ROW 87 : ... .. . ... ... ... : ... .. . ... ... ... : ... .. . ... ... ... : ... .. 1 ... ... ... : ... .. . ... ... ... : D-2 07 . ... ... ... : D-2 07 . ... ... ... : ... .. . ... ... ... : D-2 07 . ... ... ... : ... .. . ... ... ... : ... .. . ... ... ... : ... .. . ... ... ... : ... .. . ... ... ...
ROW 88 : ... .. . ... ... ... : ... .. . ... ... ... : ... .. . ... ... ... : ... .. . ... ... ... : ... .. . ... ... ... : ... .. . ... ... ... : ... .. . P82 ... ... : ... .. . ... ... ... : ... .. . ... ... ... : ... .. . ... ... ... : ... .. . ... ... ... : ... .. . ... ... ... : ... .. . ... ... ...
ROW 89 : ... .. . ... ... ... : ... .. . ... ... ... : ... .. . ... ... ... : --- .. . ... ... ... : ... .. . ... ... ... : ... .. . ... ... ... : ... .. . ... ... ... : ... .. . ... ... ... : ... .. 8 ... ... ... : ... .. . ... ... ... : ... .. . ... ... ... : ... .. . ... ... ... : ... .. . ... ... ...
ROW 8A : ... .. . ... ... ... : ... .. . ... ... ... : ... .. . ... ... ... : ... .. . ... ... ... : ... .. . ... ... ... : ... .. . ... ... ... : ... .. . P81 ... ... : ... .. . ... ... ... : ... .. . ... ... ... : ... .. . ... ... ... : ... .. . ... ... ... : ... .. . ... ... ... : ... .. . ... ... ...
ROW 8B : ... .. . ... ... ... : C-4 02 . P80 ... ... : F#3 00 . P78 ... ... : 1-# 00 F ... ... ... : C-1 12 . ... ... ... : C#2 06 . ... ... ... : C#2 06 . P80 ... ... : ... .. . ... ... ... : C#2 06 . ... ... ... : ... .. . ... ... ... : ... .. . ... ... ... : ... .. . ... ... ... : ... .. . ... ... ...
ROW 8C : ... .. . ... ... ... : F-3 02 . ... ... ... : C#3 00 . P7E ... ... : 2-# 00 7 ... ... ... : ... .. . ... ... ... : ... .. . ... ... ... : ... .. . P81 ... ... : ... .. . ... ... ... : ... .. . ... ... ... : ... .. . ... ... ... : ... .. . ... ... ... : ... .. . ... ... ... : ... .. . ... ... ...
ROW 8D : ... .. . ... ... ... : A#2 02 . P81 ... ... : A-2 00 . P86 ... ... : 1-# 00 4 ... ... ... : ... .. . ... ... ... : ... .. . ... ... ... : C-2 06 . P7F ... ... : ... .. . ... ... ... : ... .. . ... ... ... : ... .. . ... ... ... : ... .. . ... ... ... : ... .. . ... ... ... : ... .. . ... ... ...
ROW 8E : ... .. . ... ... ... : D#2 02 . ... ... ... : --- .. . ... ... ... : ... .. 2 ... ... ... : ... .. . ... ... ... : C#2 09 . ... ... ... : C#2 09 . P81 ... ... : ... .. . ... ... ... : C#2 09 . ... ... ... : ... .. . ... ... ... : ... .. . ... ... ... : ... .. . ... ... ... : ... .. . ... ... ...
ROW 8F : ... .. . ... ... ... : G#1 02 . ... ... ... : ... .. . ... ... ... : ... .. 1 ... ... ... : ... .. . ... ... ... : ... .. . ... ... ... : ... .. . P80 ... ... : ... .. . ... ... ... : ... .. . ... ... ... : ... .. . ... ... ... : ... .. . ... ... ... : ... .. . ... ... ... : ... .. . ... ... ...
ROW 90 : ... .. . ... ... ... : C#1 02 . ... ... ... : ... .. . ... ... ... : --- .. . ... ... ... : ... .. . ... ... ... : ... .. . ... ... ... : ... .. . P81 ... ... : ... .. . ... ... ... : ... .. . ... ... ... : ... .. . ... ... ... : ... .. . ... ... ... : ... .. . ... ... ... : ... .. . ... ... ...
ROW 91 : ... .. . ... ... ... : ... .. . ... ... ... : ... .. . ... ... ... : ... .. . ... ... ... : ... .. . ... ... ... : C#2 06 . ... ... ... : C-2 06 . P7F ... ... : ... .. . ... ... ... : C#2 06 7 ... ... ... : ... .. . ... ... ... : ... .. . ... ... ... : ... .. . ... ... ... : ... .. . ... ... ...
ROW 92 : ... .. . ... ... ... : ... .. . ... ... ... : ... .. . ... ... ... : ... .. . ... ... ... : ... .. . ... ... ... : ... .. . ... ... ... : C#2 06 . P81 ... ... : ... .. . ... ... ... : ... .. . ... ... ... : ... .. . ... ... ... : ... .. . ... ... ... : ... .. . ... ... ... : ... .. . ... ... ...
ROW 93 : ... .. . ... ... ... : ... .. . ... ... ... : ... .. . ... ... ... : ... .. . ... ... ... : ... .. . ... ... ... : ... .. . ... ... ... : ... .. . P80 ... ... : ... .. . ... ... ... : ... .. . ... ... ... : ... .. . ... ... ... : ... .. . ... ... ... : ... .. . ... ... ... : ... .. . ... ... ...
ROW 94 : ... .. . ... ... ... : ... .. . ... ... ... : ... .. . ... ... ... : ... .. . ... ... ... : ... .. . ... ... ... : C#2 09 . ... ... ... : C#2 09 . P81 ... ... : ... .. . ... ... ... : C#2 09 . ... ... ... : ... .. . ... ... ... : ... .. . ... ... ... : ... .. . ... ... ... : ... .. . ... ... ...
ROW 95 : ... .. . ... ... ... : ... .. . ... ... ... : ... .. . ... ... ... : ... .. . ... ... ... : ... .. . ... ... ... : ... .. . ... ... ... : C-2 09 . P7F ... ... : ... .. . ... ... ... : ... .. . ... ... ... : ... .. . ... ... ... : ... .. . ... ... ... : ... .. . ... ... ... : ... .. . ... ... ...
ROW 96 : ... .. . ... ... ... : ... .. . ... ... ... : ... .. . ... ... ... : ... .. . ... ... ... : ... .. . ... ... ... : ... .. . ... ... ... : C#2 09 . P82 ... ... : ... .. . ... ... ... : ... .. . ... ... ... : ... .. . ... ... ... : ... .. . ... ... ... : ... .. . ... ... ... : ... .. . ... ... ...
ROW 97 : ... .. . ... ... ... : ... .. . ... ... ... : ... .. . ... ... ... : D-# 00 A ... ... ... : ... .. . ... ... ... : C#2 06 . ... ... ... : C#2 06 . P81 ... ... : ... .. . ... ... ... : C#2 06 . ... ... ... : ... .. . ... ... ... : ... .. . ... ... ... : ... .. . ... ... ... : ... .. . ... ... ...
ROW 98 : ... .. . ... ... ... : ... .. . ... ... ... : ... .. . ... ... ... : E-# 00 4 ... ... ... : ... .. . ... ... ... : ... .. . ... ... ... : ... .. . ... ... ... : ... .. . ... ... ... : ... .. . ... ... ... : ... .. . ... ... ... : ... .. . ... ... ... : ... .. . ... ... ... : ... .. . ... ... ...
ROW 99 : ... .. . ... ... ... : ... .. . ... ... ... : ... .. . ... ... ... : D-# 00 2 ... ... ... : ... .. . ... ... ... : ... .. . ... ... ... : ... .. . P82 ... ... : ... .. . ... ... ... : ... .. 6 ... ... ... : ... .. . ... ... ... : ... .. . ... ... ... : ... .. . ... ... ... : ... .. . ... ... ...
ROW 9A : ... .. . ... ... ... : ... .. . ... ... ... : ... .. . ... ... ... : ... .. 1 ... ... ... : ... .. . ... ... ... : C#2 09 . ... ... ... : C-2 09 . P7F ... ... : ... .. . ... ... ... : C#2 09 . ... ... ... : ... .. . ... ... ... : ... .. . ... ... ... : ... .. . ... ... ... : ... .. . ... ... ...
ROW 9B : ... .. . ... ... ... : ... .. . ... ... ... : ... .. . ... ... ... : ... .. . ... ... ... : ... .. . ... ... ... : ... .. . ... ... ... : C#2 09 . P81 ... ... : ... .. . ... ... ... : ... .. . ... ... ... : ... .. . ... ... ... : ... .. . ... ... ... : ... .. . ... ... ... : ... .. . ... ... ...
ROW 9C : ... .. . ... ... ... : ... .. . ... ... ... : ... .. . ... ... ... : --- .. . ... ... ... : ... .. . ... ... ... : ... .. . ... ... ... : ... .. . P80 ... ... : ... .. . ... ... ... : ... .. . ... ... ... : ... .. . ... ... ... : ... .. . ... ... ... : ... .. . ... ... ... : ... .. . ... ... ...
ROW 9D : ... .. . ... ... ... : ... .. . ... ... ... : ... .. . ... ... ... : D-# 00 A ... ... ... : ... .. . ... ... ... : C#2 06 . ... ... ... : C#2 06 . P81 ... ... : ... .. . ... ... ... : C#2 06 . ... ... ... : ... .. . ... ... ... : ... .. . ... ... ... : ... .. . ... ... ... : ... .. . ... ... ...
ROW 9E : ... .. . ... ... ... : ... .. . ... ... ... : ... .. . ... ... ... : E-# 00 4 ... ... ... : ... .. . ... ... ... : ... .. . ... ... ... : C-2 06 . P7F ... ... : ... .. . ... ... ... : ... .. . ... ... ... : ... .. . ... ... ... : ... .. . ... ... ... : ... .. . ... ... ... : ... .. . ... ... ...
ROW 9F : ... .. . ... ... ... : ... .. . ... ... ... : ... .. . ... ... ... : D-# 00 2 ... ... ... : ... .. . ... ... ... : ... .. . ... ... ... : C#2 06 . P81 ... ... : ... .. . ... ... ... : ... .. . ... ... ... : ... .. . ... ... ... : ... .. . ... ... ... : ... .. . ... ... ... : ... .. . ... ... ...
ROW A0 : ... .. . ... ... ... : ... .. . ... ... ... : ... .. . ... ... ... : ... .. 1 ... ... ... : ... .. . ... ... ... : C#2 09 . ... ... ... : C#2 09 . P80 ... ... : ... .. . ... ... ... : C#2 09 . ... ... ... : ... .. . ... ... ... : ... .. . ... ... ... : ... .. . ... ... ... : ... .. . ... ... ...
ROW A1 : ... .. . ... ... ... : ... .. . ... ... ... : ... .. . ... ... ... : ... .. . ... ... ... : ... .. . ... ... ... : ... .. . ... ... ... : ... .. . P81 ... ... : ... .. . ... ... ... : ... .. 5 ... ... ... : ... .. . ... ... ... : ... .. . ... ... ... : ... .. . ... ... ... : ... .. . ... ... ...
ROW A2 : ... .. . ... ... ... : ... .. . ... ... ... : ... .. . ... ... ... : --- .. . ... ... ... : ... .. . ... ... ... : ... .. . ... ... ... : C-2 09 . P7F ... ... : ... .. . ... ... ... : ... .. . ... ... ... : ... .. . ... ... ... : ... .. . ... ... ... : ... .. . ... ... ... : ... .. . ... ... ...
ROW A3 : ... .. . ... ... ... : ... .. . ... ... ... : ... .. . ... ... ... : ... .. . ... ... ... : ... .. . ... ... ... : ... .. . ... ... ... : C#2 09 . P81 ... ... : ... .. . ... ... ... : ... .. . ... ... ... : ... .. . ... ... ... : ... .. . ... ... ... : ... .. . ... ... ... : ... .. . ... ... ...
ROW A4 : ... .. . ... ... ... : C-4 02 . P80 ... ... : C#4 00 . P7F ... ... : 9-# 00 F ... ... ... : C#1 12 . ... ... ... : F#1 06 . ... ... ... : F#1 06 . P80 ... ... : ... .. . ... ... ... : F#1 06 . ... ... ... : ... .. . ... ... ... : ... .. . ... ... ... : ... .. . ... ... ... : ... .. . ... ... ...
ROW A5 : ... .. . ... ... ... : F-3 02 . ... ... ... : F#3 00 . P83 ... ... : 2-# 00 7 ... ... ... : ... .. . ... ... ... : ... .. . ... ... ... : ... .. . P81 ... ... : ... .. . ... ... ... : ... .. . ... ... ... : ... .. . ... ... ... : ... .. . ... ... ... : ... .. . ... ... ... : ... .. . ... ... ...
ROW A6 : ... .. . ... ... ... : A#2 02 . P81 ... ... : C#3 00 . P89 ... ... : 6-# 00 C ... ... ... : ... .. . ... ... ... : ... .. . ... ... ... : F-1 06 . P80 ... ... : ... .. . ... ... ... : ... .. . ... ... ... : ... .. . ... ... ... : ... .. . ... ... ... : ... .. . ... ... ... : ... .. . ... ... ...
ROW A7 : ... .. . ... ... ... : D#2 02 . ... ... ... : A#2 00 . P75 ... ... : 7-# 00 8 ... ... ... : ... .. . ... ... ... : ... .. . ... ... ... : ... .. . ... ... ... : ... .. . ... ... ... : ... .. . ... ... ... : ... .. . ... ... ... : ... .. . ... ... ... : ... .. . ... ... ... : ... .. . ... ... ...
ROW A8 : ... .. . ... ... ... : G#1 02 . ... ... ... : G-2 00 . P70 ... ... : 8-# 00 7 ... ... ... : ... .. . ... ... ... : ... .. . ... ... ... : F#1 06 . P81 ... ... : ... .. . ... ... ... : ... .. . ... ... ... : ... .. . ... ... ... : ... .. . ... ... ... : ... .. . ... ... ... : ... .. . ... ... ...
ROW A9 : ... .. . ... ... ... : C#1 02 . ... ... ... : E-2 00 . P7C ... ... : ... .. 6 ... ... ... : ... .. . ... ... ... : ... .. . ... ... ... : ... .. . ... ... ... : ... .. . ... ... ... : ... .. 4 ... ... ... : ... .. . ... ... ... : ... .. . ... ... ... : ... .. . ... ... ... : ... .. . ... ... ...
ROW AA : ... .. . ... ... ... : ... .. . ... ... ... : --- .. . ... ... ... : ... .. . ... ... ... : ... .. . ... ... ... : F#1 07 . ... ... ... : F-1 07 . P80 ... ... : ... .. . ... ... ... : F#1 07 . ... ... ... : ... .. . ... ... ... : ... .. . ... ... ... : ... .. . ... ... ... : ... .. . ... ... ...
ROW AB : ... .. . ... ... ... : ... .. . ... ... ... : ... .. . ... ... ... : ... .. 5 ... ... ... : ... .. . ... ... ... : ... .. . ... ... ... : ... .. . ... ... ... : ... .. . ... ... ... : ... .. . ... ... ... : ... .. . ... ... ... : ... .. . ... ... ... : ... .. . ... ... ... : ... .. . ... ... ...
ROW AC : ... .. . ... ... ... : ... .. . ... ... ... : ... .. . ... ... ... : ... .. . ... ... ... : ... .. . ... ... ... : ... .. . ... ... ... : F#1 07 . P81 ... ... : ... .. . ... ... ... : ... .. . ... ... ... : ... .. . ... ... ... : ... .. . ... ... ... : ... .. . ... ... ... : ... .. . ... ... ...
ROW AD : ... .. . ... ... ... : ... .. . ... ... ... : ... .. . ... ... ... : ... .. 4 ... ... ... : ... .. . ... ... ... : F-1 07 . ... ... ... : F-1 07 . P80 ... ... : ... .. . ... ... ... : ... .. . P81 ... ... : ... .. . ... ... ... : ... .. . ... ... ... : ... .. . ... ... ... : ... .. . ... ... ...
ROW AE : ... .. . ... ... ... : ... .. . ... ... ... : ... .. . ... ... ... : ... .. . ... ... ... : ... .. . ... ... ... : E-1 07 . ... ... ... : E-1 07 . P81 ... ... : ... .. . ... ... ... : F-1 07 . ... ... ... : ... .. . ... ... ... : ... .. . ... ... ... : ... .. . ... ... ... : ... .. . ... ... ...
ROW AF : ... .. . ... ... ... : ... .. . ... ... ... : ... .. . ... ... ... : ... .. 3 ... ... ... : ... .. . ... ... ... : D#1 07 . ... ... ... : D-1 07 . ... ... ... : ... .. . ... ... ... : E-1 07 . ... ... ... : ... .. . ... ... ... : ... .. . ... ... ... : ... .. . ... ... ... : ... .. . ... ... ...
ROW B0 : ... .. . ... ... ... : ... .. . ... ... ... : ... .. . ... ... ... : 6-# 01 F ... ... ... : ... .. . ... ... ... : D-1 08 . P81 ... ... : C#1 08 . P80 ... ... : ... .. . ... ... ... : D-1 08 . P80 ... ... : ... .. . ... ... ... : ... .. . ... ... ... : ... .. . ... ... ... : ... .. . ... ... ...
ROW B1 : ... .. . ... ... ... : ... .. . ... ... ... : ... .. . ... ... ... : ... .. 9 ... ... ... : ... .. . ... ... ... : C#1 08 . ... ... ... : ... .. . P81 ... ... : ... .. . ... ... ... : C#1 08 3 ... ... ... : ... .. . ... ... ... : ... .. . ... ... ... : ... .. . ... ... ... : ... .. . ... ... ...
ROW B2 : ... .. . ... ... ... : ... .. . ... ... ... : ... .. . ... ... ... : ... .. 4 ... ... ... : ... .. . ... ... ... : B-0 08 . P80 ... ... : B-0 08 . ... ... ... : ... .. . ... ... ... : C-1 08 . ... ... ... : ... .. . ... ... ... : ... .. . ... ... ... : ... .. . ... ... ... : ... .. . ... ... ...
ROW B3 : ... .. . ... ... ... : ... .. . ... ... ... : ... .. . ... ... ... : ... .. 7 ... ... ... : ... .. . ... ... ... : A#0 08 . ... ... ... : A-0 08 . ... ... ... : ... .. . ... ... ... : B-0 08 . P81 ... ... : ... .. . ... ... ... : ... .. . ... ... ... : ... .. . ... ... ... : ... .. . ... ... ...
ROW B4 : ... .. . ... ... ... : ... .. . ... ... ... : ... .. . ... ... ... : ... .. 5 ... ... ... : ... .. . ... ... ... : A-0 08 . P81 ... ... : G#0 08 . ... ... ... : ... .. . ... ... ... : A-0 08 . P80 ... ... : ... .. . ... ... ... : ... .. . ... ... ... : ... .. . ... ... ... : ... .. . ... ... ...
ROW B5 : ... .. . ... ... ... : ... .. . ... ... ... : ... .. . ... ... ... : ... .. . ... ... ... : ... .. . ... ... ... : G-0 08 . ... ... ... : G-0 08 . ... ... ... : ... .. . ... ... ... : G#0 08 . P81 ... ... : ... .. . ... ... ... : ... .. . ... ... ... : ... .. . ... ... ... : ... .. . ... ... ...
ROW B6 : ... .. . ... ... ... : ... .. . ... ... ... : ... .. . ... ... ... : ... .. 4 ... ... ... : ... .. . ... ... ... : F-0 09 . P80 ... ... : F-0 09 . ... ... ... : ... .. . ... ... ... : F#0 09 . P80 ... ... : ... .. . ... ... ... : ... .. . ... ... ... : ... .. . ... ... ... : ... .. . ... ... ...
ROW B7 : ... .. . ... ... ... : ... .. . ... ... ... : ... .. . ... ... ... : ... .. . ... ... ... : ... .. . ... ... ... : D#0 09 . ... ... ... : C#0 09 . P80 ... ... : ... .. . ... ... ... : E-0 09 . ... ... ... : ... .. . ... ... ... : ... .. . ... ... ... : ... .. . ... ... ... : ... .. . ... ... ...
ROW B8 : ... .. . ... ... ... : ... .. . ... ... ... : ... .. . ... ... ... : ... .. 3 ... ... ... : ... .. . ... ... ... : C#0 09 . P81 ... ... : C-0 09 . P81 ... ... : ... .. . ... ... ... : D-0 09 . ... ... ... : ... .. . ... ... ... : ... .. . ... ... ... : ... .. . ... ... ... : ... .. . ... ... ...
ROW B9 : ... .. . ... ... ... : ... .. . ... ... ... : ... .. . ... ... ... : ... .. 2 ... ... ... : ... .. . ... ... ... : C-0 09 . P82 ... ... : ... .. . P82 ... ... : ... .. . ... ... ... : C-0 09 2 P81 ... ... : ... .. . ... ... ... : ... .. . ... ... ... : ... .. . ... ... ... : ... .. . ... ... ...
ROW BA : ... .. . ... ... ... : ... .. . ... ... ... : ... .. . ... ... ... : ... .. . ... ... ... : ... .. . ... ... ... : ... .. . P84 ... ... : ... .. . P84 ... ... : ... .. . ... ... ... : ... .. . P83 ... ... : ... .. . ... ... ... : ... .. . ... ... ... : ... .. . ... ... ... : ... .. . ... ... ...
ROW BB : ... .. . ... ... ... : ... .. . ... ... ... : ... .. . ... ... ... : ... .. 1 ... ... ... : ... .. . ... ... ... : ... .. . P86 ... ... : ... .. . P87 ... ... : ... .. . ... ... ... : ... .. . P85 ... ... : ... .. . ... ... ... : ... .. . ... ... ... : ... .. . ... ... ... : ... .. . ... ... ...
ROW BC : ... .. . ... ... ... : ... .. . ... ... ... : ... .. . ... ... ... : ... .. . ... ... ... : ... .. . ... ... ... : --- .. . P7A ... ... : --- .. . P7C ... ... : ... .. . ... ... ... : ... .. . P87 ... ... : ... .. . ... ... ... : ... .. . ... ... ... : ... .. . ... ... ... : ... .. . ... ... ...
ROW BD : ... .. . ... ... ... : C-4 02 . P80 ... ... : F#3 00 . P78 ... ... : 1-# 00 F ... ... ... : C-1 12 . ... ... ... : G-4 04 A P78 ... ... : A-4 04 A P81 ... ... : ... .. . ... ... ... : F#4 04 9 P89 ... ... : G-4 04 9 P81 ... ... : ... .. . ... ... ... : ... .. . ... ... ... : ... .. . ... ... ...
ROW BE : ... .. . ... ... ... : F-3 02 . ... ... ... : C#3 00 . P7E ... ... : 2-# 00 7 ... ... ... : ... .. . ... ... ... : G#4 04 . P84 ... ... : ... .. . P80 ... ... : ... .. . ... ... ... : ... .. . P81 ... ... : ... .. . ... ... ... : ... .. . ... ... ... : ... .. . ... ... ... : ... .. . ... ... ...
ROW BF : ... .. . ... ... ... : A#2 02 . P81 ... ... : A-2 00 . P86 ... ... : 1-# 00 4 ... ... ... : ... .. . ... ... ... : ... .. . P7C ... ... : ... .. . P81 ... ... : ... .. . ... ... ... : ... .. . P79 ... ... : ... .. . ... ... ... : ... .. . ... ... ... : ... .. . ... ... ... : ... .. . ... ... ...
ROW C0 : ... .. . ... ... ... : D#2 02 . ... ... ... : --- .. . ... ... ... : ... .. 2 ... ... ... : ... .. . ... ... ... : --- .. . ... ... ... : --- .. . ... ... ... : ... .. . ... ... ... : --- .. . ... ... ... : --- .. . ... ... ... : ... .. . ... ... ... : ... .. . ... ... ... : ... .. . ... ... ...
ROW C1 : ... .. . ... ... ... : G#1 02 . ... ... ... : ... .. . ... ... ... : ... .. 1 ... ... ... : ... .. . ... ... ... : ... .. . P80 ... ... : ... .. . P80 ... ... : ... .. . ... ... ... : ... .. . P80 ... ... : ... .. . P80 ... ... : ... .. . ... ... ... : ... .. . ... ... ... : ... .. . ... ... ...
ROW C2 : ... .. . ... ... ... : C#1 02 . ... ... ... : ... .. . ... ... ... : --- .. . ... ... ... : ... .. . ... ... ... : ... .. . ... ... ... : ... .. . ... ... ... : ... .. . ... ... ... : ... .. . ... ... ... : ... .. . ... ... ... : ... .. . ... ... ... : ... .. . ... ... ... : ... .. . ... ... ...
ROW C3 : ... .. . ... ... ... : ... .. . ... ... ... : ... .. . ... ... ... : 1-# 00 F ... ... ... : C-1 12 . ... ... ... : A-4 04 . P7A ... ... : A-4 04 . P83 ... ... : ... .. . ... ... ... : G#4 04 . P88 ... ... : G-4 04 . P83 ... ... : ... .. . ... ... ... : ... .. . ... ... ... : ... .. . ... ... ...
ROW C4 : ... .. . ... ... ... : ... .. . ... ... ... : ... .. . ... ... ... : 2-# 00 7 ... ... ... : ... .. . ... ... ... : ... .. . P7C ... ... : ... .. . P86 ... ... : ... .. . ... ... ... : ... .. . P8A ... ... : ... .. . P85 ... ... : ... .. . ... ... ... : ... .. . ... ... ... : ... .. . ... ... ...
ROW C5 : ... .. . ... ... ... : ... .. . ... ... ... : ... .. . ... ... ... : 1-# 00 4 ... ... ... : ... .. . ... ... ... : ... .. . P7E ... ... : ... .. . P88 ... ... : ... .. . ... ... ... : G-4 04 . P79 ... ... : ... .. . P87 ... ... : ... .. . ... ... ... : ... .. . ... ... ... : ... .. . ... ... ...
ROW C6 : ... .. . ... ... ... : ... .. . ... ... ... : ... .. . ... ... ... : ... .. 2 ... ... ... : ... .. . ... ... ... : --- .. . ... ... ... : --- .. . ... ... ... : ... .. . ... ... ... : --- .. . ... ... ... : --- .. . ... ... ... : ... .. . ... ... ... : ... .. . ... ... ... : ... .. . ... ... ...
ROW C7 : ... .. . ... ... ... : ... .. . ... ... ... : ... .. . ... ... ... : ... .. 1 ... ... ... : ... .. . ... ... ... : ... .. . P80 ... ... : ... .. . P80 ... ... : ... .. . ... ... ... : ... .. . P80 ... ... : ... .. . P80 ... ... : ... .. . ... ... ... : ... .. . ... ... ... : ... .. . ... ... ...
ROW C8 : ... .. . ... ... ... : ... .. . ... ... ... : ... .. . ... ... ... : --- .. . ... ... ... : ... .. . ... ... ... : ... .. . ... ... ... : ... .. . ... ... ... : ... .. . ... ... ... : ... .. . ... ... ... : ... .. . ... ... ... : ... .. . ... ... ... : ... .. . ... ... ... : ... .. . ... ... ...
ROW C9 : ... .. . ... ... ... : ... .. . ... ... ... : ... .. . ... ... ... : A-# 00 F ... ... ... : C-1 12 . ... ... ... : G#4 04 . P7E ... ... : G#4 04 . P88 ... ... : ... .. . ... ... ... : F#4 04 . P7B ... ... : F-4 04 . P78 ... ... : ... .. . ... ... ... : ... .. . ... ... ... : ... .. . ... ... ...
ROW CA : ... .. . ... ... ... : ... .. . ... ... ... : ... .. . ... ... ... : 6-# 00 9 ... ... ... : ... .. . ... ... ... : G-4 04 . P78 ... ... : G-4 04 . P81 ... ... : ... .. . ... ... ... : ... .. . P89 ... ... : ... .. . P86 ... ... : ... .. . ... ... ... : ... .. . ... ... ... : ... .. . ... ... ...
ROW CB : ... .. . ... ... ... : ... .. . ... ... ... : ... .. . ... ... ... : 7-# 00 C ... ... ... : ... .. . ... ... ... : ... .. . P86 ... ... : F#4 04 . P7D ... ... : ... .. . ... ... ... : F-4 04 . P85 ... ... : E-4 04 . P84 ... ... : ... .. . ... ... ... : ... .. . ... ... ... : ... .. . ... ... ...
ROW CC : ... .. . ... ... ... : ... .. . ... ... ... : ... .. . ... ... ... : ... .. 8 ... ... ... : ... .. . ... ... ... : F#4 04 . P82 ... ... : F-4 04 . P7B ... ... : ... .. . ... ... ... : E-4 04 . P83 ... ... : D#4 04 . P83 ... ... : ... .. . ... ... ... : ... .. . ... ... ... : ... .. . ... ... ...
ROW CD : ... .. . ... ... ... : ... .. . ... ... ... : ... .. . ... ... ... : 8-# 00 7 ... ... ... : ... .. . ... ... ... : F-4 04 . P7F ... ... : E-4 04 . P7A ... ... : ... .. . ... ... ... : D#4 04 . P82 ... ... : D-4 04 8 P82 ... ... : ... .. . ... ... ... : ... .. . ... ... ... : ... .. . ... ... ...
ROW CE : ... .. . ... ... ... : ... .. . ... ... ... : ... .. . ... ... ... : ... .. 8 ... ... ... : ... .. . ... ... ... : E-4 04 . P7D ... ... : ... .. . P87 ... ... : ... .. . ... ... ... : D-4 04 . ... ... ... : C#4 04 . P83 ... ... : ... .. . ... ... ... : ... .. . ... ... ... : ... .. . ... ... ...
ROW CF : ... .. . ... ... ... : ... .. . ... ... ... : ... .. . ... ... ... : 9-# 00 7 ... ... ... : ... .. . ... ... ... : D#4 04 . P7C ... ... : D#4 04 . P84 ... ... : ... .. . ... ... ... : C#4 04 . ... ... ... : C-4 04 . P84 ... ... : ... .. . ... ... ... : ... .. . ... ... ... : ... .. . ... ... ...
ROW D0 : ... .. . ... ... ... : ... .. . ... ... ... : ... .. . ... ... ... : ... .. 6 ... ... ... : ... .. . ... ... ... : D-4 04 . P7B ... ... : D-4 04 . P85 ... ... : ... .. . ... ... ... : C-4 04 . P83 ... ... : B-3 04 . P86 ... ... : ... .. . ... ... ... : ... .. . ... ... ... : ... .. . ... ... ...
ROW D1 : ... .. . ... ... ... : ... .. . ... ... ... : ... .. . ... ... ... : ... .. 5 ... ... ... : ... .. . ... ... ... : C#4 04 . P7C ... ... : C#4 04 . P86 ... ... : ... .. . ... ... ... : B-3 04 8 P85 ... ... : A-3 04 7 P7E ... ... : ... .. . ... ... ... : ... .. . ... ... ... : ... .. . ... ... ...
ROW D2 : ... .. . ... ... ... : ... .. . ... ... ... : ... .. . ... ... ... : ... .. . ... ... ... : ... .. . ... ... ... : C-4 04 . P7D ... ... : C-4 04 . P87 ... ... : ... .. . ... ... ... : A-3 04 . P7D ... ... : G#3 04 . P82 ... ... : ... .. . ... ... ... : ... .. . ... ... ... : ... .. . ... ... ...
ROW D3 : ... .. . ... ... ... : ... .. . ... ... ... : ... .. . ... ... ... : ... .. . ... ... ... : ... .. . ... ... ... : B-3 04 . P7F ... ... : A#3 04 . P7C ... ... : ... .. . ... ... ... : G#3 04 . P81 ... ... : F#3 04 . P7D ... ... : ... .. . ... ... ... : ... .. . ... ... ... : ... .. . ... ... ...
ROW D4 : ... .. . ... ... ... : ... .. . ... ... ... : ... .. . ... ... ... : ... .. . ... ... ... : ... .. . ... ... ... : A#3 04 . P82 ... ... : A-3 04 . P80 ... ... : ... .. . ... ... ... : F#3 04 . P7C ... ... : F-3 04 . P82 ... ... : ... .. . ... ... ... : ... .. . ... ... ... : ... .. . ... ... ...
ROW D5 : ... .. . ... ... ... : ... .. . ... ... ... : ... .. . ... ... ... : ... .. . ... ... ... : ... .. . ... ... ... : A-3 04 . P85 ... ... : G#3 04 . P85 ... ... : ... .. . ... ... ... : F-3 04 . P82 ... ... : D#3 04 6 P81 ... ... : ... .. . ... ... ... : ... .. . ... ... ... : ... .. . ... ... ...
ROW D6 : ... .. . ... ... ... : C-4 02 . P80 ... ... : C#4 00 . P7F ... ... : ... .. F ... ... ... : C#1 12 . ... ... ... : G#1 04 F P80 ... ... : F#3 04 . P80 ... ... : G-1 04 9 ... ... ... : A-1 04 9 ... ... ... : C#3 04 . ... ... ... : ... .. . ... ... ... : ... .. . ... ... ... : ... .. . ... ... ...
ROW D7 : ... .. . ... ... ... : F-3 02 . ... ... ... : F#3 00 . P83 ... ... : 2-# 00 7 ... ... ... : ... .. . ... ... ... : ... .. . ... ... ... : F-3 04 . P84 ... ... : ... .. . ... ... ... : ... .. . ... ... ... : B-2 04 . P82 ... ... : ... .. . ... ... ... : ... .. . ... ... ... : ... .. . ... ... ...
ROW D8 : ... .. . ... ... ... : A#2 02 . P81 ... ... : C#3 00 . P89 ... ... : 6-# 00 C ... ... ... : ... .. . ... ... ... : ... .. . ... ... ... : D#3 04 . P83 ... ... : ... .. . ... ... ... : ... .. . ... ... ... : G#2 04 . P80 ... ... : ... .. . ... ... ... : ... .. . ... ... ... : ... .. . ... ... ...
ROW D9 : ... .. . ... ... ... : D#2 02 . ... ... ... : A#2 00 . P75 ... ... : 7-# 00 8 ... ... ... : ... .. . ... ... ... : ... .. . ... ... ... : C#3 04 . P84 ... ... : ... .. . ... ... ... : ... .. . ... ... ... : F-2 04 5 ... ... ... : ... .. . ... ... ... : ... .. . ... ... ... : ... .. . ... ... ...
ROW DA : ... .. . ... ... ... : G#1 02 . ... ... ... : G-2 00 . P70 ... ... : 8-# 00 7 ... ... ... : ... .. . ... ... ... : ... .. . ... ... ... : A#2 04 . P80 ... ... : ... .. 8 ... ... ... : ... .. . ... ... ... : C#2 04 . ... ... ... : ... .. . ... ... ... : ... .. . ... ... ... : ... .. . ... ... ...
ROW DB : ... .. . ... ... ... : C#1 02 . ... ... ... : E-2 00 . P7C ... ... : ... .. 6 ... ... ... : ... .. . ... ... ... : ... .. . ... ... ... : G#2 04 . P83 ... ... : ... .. . ... ... ... : ... .. . ... ... ... : G#1 04 . P7F ... ... : ... .. . ... ... ... : ... .. . ... ... ... : ... .. . ... ... ...
ROW DC : ... .. . ... ... ... : ... .. . ... ... ... : --- .. . ... ... ... : ... .. . ... ... ... : ... .. . ... ... ... : G#2 04 . ... ... ... : F-2 04 . P82 ... ... : G#2 04 . P82 ... ... : G#2 04 . P7F ... ... : D-1 04 . P81 ... ... : ... .. . ... ... ... : ... .. . ... ... ... : ... .. . ... ... ...
ROW DD : ... .. . ... ... ... : ... .. . ... ... ... : ... .. . ... ... ... : ... .. 5 ... ... ... : ... .. . ... ... ... : ... .. . ... ... ... : C#2 04 . ... ... ... : ... .. . ... ... ... : ... .. . ... ... ... : D#0 04 4 ... ... ... : ... .. . ... ... ... : ... .. . ... ... ... : ... .. . ... ... ...
ROW DE : ... .. . ... ... ... : ... .. . ... ... ... : ... .. . ... ... ... : ... .. . ... ... ... : ... .. . ... ... ... : ... .. . ... ... ... : G-1 04 . P80 ... ... : ... .. 7 ... ... ... : ... .. 8 ... ... ... : --- .. . P7F ... ... : ... .. . ... ... ... : ... .. . ... ... ... : ... .. . ... ... ...
ROW DF : ... .. . ... ... ... : ... .. . ... ... ... : ... .. . ... ... ... : ... .. 4 ... ... ... : ... .. . ... ... ... : ... .. . ... ... ... : C-1 04 . ... ... ... : ... .. . ... ... ... : ... .. . ... ... ... : D#7 04 . P81 ... ... : ... .. . ... ... ... : ... .. . ... ... ... : ... .. . ... ... ...
ROW E0 : ... .. . ... ... ... : ... .. . ... ... ... : ... .. . ... ... ... : ... .. . ... ... ... : ... .. . ... ... ... : ... .. . ... ... ... : C#0 04 . ... ... ... : ... .. . ... ... ... : ... .. . ... ... ... : ... .. . ... ... ... : ... .. . ... ... ... : ... .. . ... ... ... : ... .. . ... ... ...
ROW E1 : ... .. . ... ... ... : ... .. . ... ... ... : ... .. . ... ... ... : ... .. 3 ... ... ... : ... .. . ... ... ... : ... .. . ... ... ... : D#7 04 . P81 ... ... : ... .. . ... ... ... : ... .. . ... ... ... : ... .. 3 ... ... ... : ... .. . ... ... ... : ... .. . ... ... ... : ... .. . ... ... ...
ROW E2 : ... .. . ... ... ... : ... .. . ... ... ... : ... .. . ... ... ... : D-# 00 A ... ... ... : ... .. . ... ... ... : C#2 04 . ... ... ... : --- .. . ... ... ... : C#2 04 6 ... ... ... : C#2 04 . ... ... ... : ... .. . ... ... ... : ... .. . ... ... ... : ... .. . ... ... ... : ... .. . ... ... ...
ROW E3 : ... .. . ... ... ... : ... .. . ... ... ... : ... .. . ... ... ... : E-# 00 4 ... ... ... : ... .. . ... ... ... : ... .. . ... ... ... : ... .. . P80 ... ... : ... .. . ... ... ... : ... .. . ... ... ... : ... .. . ... ... ... : ... .. . ... ... ... : ... .. . ... ... ... : ... .. . ... ... ...
ROW E4 : ... .. . ... ... ... : ... .. . ... ... ... : ... .. . ... ... ... : D-# 00 2 ... ... ... : ... .. . ... ... ... : ... .. . ... ... ... : ... .. . ... ... ... : ... .. . ... ... ... : ... .. . ... ... ... : ... .. . ... ... ... : ... .. . ... ... ... : ... .. . ... ... ... : ... .. . ... ... ...
ROW E5 : ... .. . ... ... ... : ... .. . ... ... ... : ... .. . ... ... ... : ... .. 1 ... ... ... : ... .. . ... ... ... : ... .. . ... ... ... : ... .. . ... ... ... : ... .. . ... ... ... : ... .. . ... ... ... : ... .. 2 ... ... ... : ... .. . ... ... ... : ... .. . ... ... ... : ... .. . ... ... ...
ROW E6 : ... .. . ... ... ... : ... .. . ... ... ... : ... .. . ... ... ... : ... .. . ... ... ... : ... .. . ... ... ... : ... .. . ... ... ... : ... .. . ... ... ... : ... .. 5 ... ... ... : ... .. 7 ... ... ... : ... .. . ... ... ... : ... .. . ... ... ... : ... .. . ... ... ... : ... .. . ... ... ...
ROW E7 : ... .. . ... ... ... : ... .. . ... ... ... : ... .. . ... ... ... : --- .. . ... ... ... : ... .. . ... ... ... : ... .. . ... ... ... : ... .. . ... ... ... : ... .. . ... ... ... : ... .. . ... ... ... : ... .. . ... ... ... : ... .. . ... ... ... : ... .. . ... ... ... : ... .. . ... ... ...
ROW E8 : ... .. . ... ... ... : ... .. . ... ... ... : ... .. . ... ... ... : D-# 00 A ... ... ... : ... .. . ... ... ... : C#3 04 . ... ... ... : ... .. . ... ... ... : C#3 04 . ... ... ... : C#3 04 . ... ... ... : --- .. . ... ... ... : ... .. . ... ... ... : ... .. . ... ... ... : ... .. . ... ... ...
ROW E9 : ... .. . ... ... ... : ... .. . ... ... ... : ... .. . ... ... ... : E-# 00 4 ... ... ... : ... .. . ... ... ... : ... .. . ... ... ... : ... .. . ... ... ... : ... .. . ... ... ... : ... .. . ... ... ... : ... .. . P80 ... ... : ... .. . ... ... ... : ... .. . ... ... ... : ... .. . ... ... ...
ROW EA : ... .. . ... ... ... : ... .. . ... ... ... : ... .. . ... ... ... : D-# 00 2 ... ... ... : ... .. . ... ... ... : ... .. . ... ... ... : ... .. . ... ... ... : ... .. 4 ... ... ... : ... .. . ... ... ... : ... .. . ... ... ... : ... .. . ... ... ... : ... .. . ... ... ... : ... .. . ... ... ...
ROW EB : ... .. . ... ... ... : ... .. . ... ... ... : ... .. . ... ... ... : ... .. 1 ... ... ... : ... .. . ... ... ... : ... .. . ... ... ... : ... .. . ... ... ... : ... .. . ... ... ... : ... .. . ... ... ... : ... .. . ... ... ... : ... .. . ... ... ... : ... .. . ... ... ... : ... .. . ... ... ...
ROW EC : ... .. . ... ... ... : ... .. . ... ... ... : ... .. . ... ... ... : ... .. . ... ... ... : ... .. . ... ... ... : ... .. . ... ... ... : ... .. . ... ... ... : ... .. . ... ... ... : ... .. . ... ... ... : ... .. . ... ... ... : ... .. . ... ... ... : ... .. . ... ... ... : ... .. . ... ... ...
ROW ED : ... .. . ... ... ... : ... .. . ... ... ... : ... .. . ... ... ... : --- .. . ... ... ... : ... .. . ... ... ... : ... .. . ... ... ... : ... .. . ... ... ... : ... .. . ... ... ... : ... .. . ... ... ... : ... .. . ... ... ... : ... .. . ... ... ... : ... .. . ... ... ... : ... .. . ... ... ...
ROW EE : ... .. . ... ... ... : ... .. . ... ... ... : ... .. . ... ... ... : ... .. . ... ... ... : ... .. . ... ... ... : ... .. . ... ... ... : ... .. . ... ... ... : ... .. 3 ... ... ... : ... .. 6 ... ... ... : ... .. . ... ... ... : ... .. . ... ... ... : ... .. . ... ... ... : ... .. . ... ... ...
ROW EF : ... .. . ... ... ... : C-4 02 . P80 ... ... : F#3 00 . P78 ... ... : 1-# 00 F ... ... ... : C-1 12 . ... ... ... : B-4 0C 7 P7C ... ... : ... .. . ... ... ... : --- .. . ... ... ... : A#3 0C 1 P85 ... ... : ... .. . ... ... ... : ... .. . ... ... ... : ... .. . ... ... ... : ... .. . ... ... ...
ROW F0 : ... .. . ... ... ... : F-3 02 . ... ... ... : C#3 00 . P7E ... ... : 2-# 00 7 ... ... ... : ... .. . ... ... ... : A#4 0C . P79 ... ... : ... .. . ... ... ... : ... .. . P80 ... ... : G-3 0C . ... ... ... : ... .. . ... ... ... : ... .. . ... ... ... : ... .. . ... ... ... : ... .. . ... ... ...
ROW F1 : ... .. . ... ... ... : A#2 02 . P81 ... ... : A-2 00 . P86 ... ... : 1-# 00 4 ... ... ... : ... .. . ... ... ... : A-4 0C . P78 ... ... : ... .. . ... ... ... : ... .. . ... ... ... : D#3 0C . P82 ... ... : ... .. . ... ... ... : ... .. . ... ... ... : ... .. . ... ... ... : ... .. . ... ... ...
ROW F2 : ... .. . ... ... ... : D#2 02 . ... ... ... : --- .. . ... ... ... : ... .. 2 ... ... ... : ... .. . ... ... ... : G#4 0C . ... ... ... : ... .. . ... ... ... : ... .. . ... ... ... : A#2 0C . P7F ... ... : ... .. . ... ... ... : ... .. . ... ... ... : ... .. . ... ... ... : ... .. . ... ... ...
ROW F3 : ... .. . ... ... ... : G#1 02 . ... ... ... : ... .. . ... ... ... : ... .. 1 ... ... ... : ... .. . ... ... ... : G-4 0C . ... ... ... : ... .. . ... ... ... : ... .. . ... ... ... : E-2 0C . P81 ... ... : ... .. . ... ... ... : ... .. . ... ... ... : ... .. . ... ... ... : ... .. . ... ... ...
ROW F4 : ... .. . ... ... ... : C#1 02 . ... ... ... : ... .. . ... ... ... : --- .. . ... ... ... : ... .. . ... ... ... : --- .. . ... ... ... : ... .. . ... ... ... : ... .. . ... ... ... : --- .. . ... ... ... : ... .. . ... ... ... : ... .. . ... ... ... : ... .. . ... ... ... : ... .. . ... ... ...
ROW F5 : ... .. . ... ... ... : ... .. . ... ... ... : ... .. . ... ... ... : ... .. . ... ... ... : ... .. . ... ... ... : B-4 0C . P7C ... ... : ... .. . ... ... ... : ... .. . ... ... ... : A#3 0C . P85 ... ... : ... .. . ... ... ... : ... .. . ... ... ... : ... .. . ... ... ... : ... .. . ... ... ...
ROW F6 : ... .. . ... ... ... : ... .. . ... ... ... : ... .. . ... ... ... : ... .. . ... ... ... : ... .. . ... ... ... : A#4 0C . P79 ... ... : ... .. . ... ... ... : ... .. . ... ... ... : G-3 0C . ... ... ... : ... .. . ... ... ... : ... .. . ... ... ... : ... .. . ... ... ... : ... .. . ... ... ...
ROW F7 : ... .. . ... ... ... : ... .. . ... ... ... : ... .. . ... ... ... : ... .. . ... ... ... : ... .. . ... ... ... : A-4 0C . P78 ... ... : ... .. . ... ... ... : ... .. . ... ... ... : --- .. . ... ... ... : ... .. . ... ... ... : ... .. . ... ... ... : ... .. . ... ... ... : ... .. . ... ... ...
ROW F8 : ... .. . ... ... ... : ... .. . ... ... ... : ... .. . ... ... ... : ... .. . ... ... ... : ... .. . ... ... ... : G#4 0C . ... ... ... : ... .. . ... ... ... : ... .. . ... ... ... : ... .. . P80 ... ... : ... .. . ... ... ... : ... .. . ... ... ... : ... .. . ... ... ... : ... .. . ... ... ...
ROW F9 : ... .. . ... ... ... : ... .. . ... ... ... : ... .. . ... ... ... : ... .. . ... ... ... : ... .. . ... ... ... : G-4 0C . ... ... ... : ... .. . ... ... ... : ... .. . ... ... ... : ... .. . ... ... ... : ... .. . ... ... ... : ... .. . ... ... ... : ... .. . ... ... ... : ... .. . ... ... ...
ROW FA : ... .. . ... ... ... : ... .. . ... ... ... : ... .. . ... ... ... : ... .. . ... ... ... : ... .. . ... ... ... : --- .. . ... ... ... : ... .. . ... ... ... : ... .. . ... ... ... : ... .. . ... ... ... : ... .. . ... ... ... : ... .. . ... ... ... : ... .. . ... ... ... : ... .. . ... ... ...
ROW FB : ... .. . ... ... ... : ... .. . ... ... ... : ... .. . ... ... ... : D-# 00 A ... ... ... : ... .. . ... ... ... : C#3 05 A P80 ... ... : C#3 05 . P83 ... ... : C#3 05 9 P7E ... ... : G#2 05 9 P81 ... ... : ... .. . ... ... ... : ... .. . ... ... ... : ... .. . ... ... ... : ... .. . ... ... ...
ROW FC : ... .. . ... ... ... : ... .. . ... ... ... : ... .. . ... ... ... : E-# 00 4 ... ... ... : ... .. . ... ... ... : ... .. . ... ... ... : C-3 05 . P7E ... ... : ... .. . ... ... ... : ... .. . ... ... ... : ... .. . ... ... ... : ... .. . ... ... ... : ... .. . ... ... ... : ... .. . ... ... ...
ROW FD : ... .. . ... ... ... : ... .. . ... ... ... : ... .. . ... ... ... : D-# 00 2 ... ... ... : ... .. . ... ... ... : ... .. . ... ... ... : C#3 05 . P83 ... ... : ... .. . ... ... ... : ... .. . ... ... ... : ... .. . ... ... ... : ... .. . ... ... ... : ... .. . ... ... ... : ... .. . ... ... ...
ROW FE : ... .. . ... ... ... : ... .. . ... ... ... : ... .. . ... ... ... : ... .. 1 ... ... ... : ... .. . ... ... ... : ... .. . ... ... ... : ... .. . P82 ... ... : ... .. . ... ... ... : ... .. . ... ... ... : ... .. . ... ... ... : ... .. . ... ... ... : ... .. . ... ... ... : ... .. . ... ... ...
ROW FF : ... .. . ... ... ... : ... .. . ... ... ... : ... .. . ... ... ... : ... .. . ... ... ... : ... .. . ... ... ... : --- .. . ... ... ... : --- .. . ... ... ... : --- .. . ... ... ... : --- .. . ... ... ... : ... .. . ... ... ... : ... .. . ... ... ... : ... .. . ... ... ... : ... .. . ... ... ...

PATTERN 1C
ROW 00 : ... .. . ... ... ... : ... .. . ... ... ... : ... .. . ... ... ... : --- .. . ... ... ... : ... .. . ... ... ... : ... .. . ... ... ... : ... .. . P80 ... ... : ... .. . P80 ... ... : ... .. . P80 ... ... : ... .. . ... ... ... : ... .. . ... ... ... : ... .. . ... ... ... : ... .. . ... ... ...
ROW 01 : ... .. . ... ... ... : ... .. . ... ... ... : ... .. . ... ... ... : D-# 00 A ... ... ... : ... .. . ... ... ... : C#3 05 4 ... ... ... : C#3 05 4 P83 ... ... : C#3 05 3 P7E ... ... : G#2 05 3 P81 ... ... : ... .. . ... ... ... : ... .. . ... ... ... : ... .. . ... ... ... : ... .. . ... ... ...
ROW 02 : ... .. . ... ... ... : ... .. . ... ... ... : ... .. . ... ... ... : E-# 00 4 ... ... ... : ... .. . ... ... ... : ... .. . ... ... ... : ... .. . P82 ... ... : ... .. . ... ... ... : ... .. . ... ... ... : ... .. . ... ... ... : ... .. . ... ... ... : ... .. . ... ... ... : ... .. . ... ... ...
ROW 03 : ... .. . ... ... ... : ... .. . ... ... ... : ... .. . ... ... ... : D-# 00 2 ... ... ... : ... .. . ... ... ... : ... .. . ... ... ... : ... .. . P83 ... ... : ... .. . ... ... ... : ... .. . ... ... ... : ... .. . ... ... ... : ... .. . ... ... ... : ... .. . ... ... ... : ... .. . ... ... ...
ROW 04 : ... .. . ... ... ... : ... .. . ... ... ... : ... .. . ... ... ... : ... .. 1 ... ... ... : ... .. . ... ... ... : ... .. . ... ... ... : C-3 05 . P7E ... ... : ... .. . ... ... ... : ... .. . ... ... ... : ... .. . ... ... ... : ... .. . ... ... ... : ... .. . ... ... ... : ... .. . ... ... ...
ROW 05 : ... .. . ... ... ... : ... .. . ... ... ... : ... .. . ... ... ... : ... .. . ... ... ... : ... .. . ... ... ... : ... .. . ... ... ... : ... .. . ... ... ... : ... .. 2 ... ... ... : ... .. . ... ... ... : ... .. . ... ... ... : ... .. . ... ... ... : ... .. . ... ... ... : ... .. . ... ... ...
ROW 06 : ... .. . ... ... ... : ... .. . ... ... ... : ... .. . ... ... ... : --- .. . ... ... ... : ... .. . ... ... ... : --- .. . ... ... ... : --- .. . ... ... ... : --- .. . ... ... ... : --- .. . ... ... ... : ... .. . ... ... ... : ... .. . ... ... ... : ... .. . ... ... ... : ... .. . ... ... ...
ROW 07 : ... .. . ... ... ... : ... .. . ... ... ... : ... .. . ... ... ... : ... .. . ... ... ... : ... .. . ... ... ... : ... .. . ... ... ... : ... .. . P80 ... ... : ... .. . P80 ... ... : ... .. . P80 ... ... : ... .. . ... ... ... : ... .. . ... ... ... : ... .. . ... ... ... : ... .. . ... ... ...
ROW 08 : ... .. . ... ... ... : C-4 02 . P80 ... ... : C#4 00 . P7F ... ... : 9-# 00 F ... ... ... : C#1 12 . ... ... ... : F#3 05 A ... ... ... : F#3 05 A P84 ... ... : F#3 05 9 P7E ... ... : D#3 05 9 P81 ... ... : ... .. . ... ... ... : ... .. . ... ... ... : ... .. . ... ... ... : ... .. . ... ... ...
ROW 09 : ... .. . ... ... ... : F-3 02 . ... ... ... : F#3 00 . P83 ... ... : 2-# 00 7 ... ... ... : ... .. . ... ... ... : ... .. . ... ... ... : ... .. . ... ... ... : ... .. . ... ... ... : ... .. . ... ... ... : ... .. . ... ... ... : ... .. . ... ... ... : ... .. . ... ... ... : ... .. . ... ... ...
ROW 0A : ... .. . ... ... ... : A#2 02 . P81 ... ... : C#3 00 . P89 ... ... : 6-# 00 C ... ... ... : ... .. . ... ... ... : ... .. . ... ... ... : ... .. . P83 ... ... : ... .. . ... ... ... : ... .. . ... ... ... : ... .. . ... ... ... : ... .. . ... ... ... : ... .. . ... ... ... : ... .. . ... ... ...
ROW 0B : ... .. . ... ... ... : D#2 02 . ... ... ... : A#2 00 . P75 ... ... : 7-# 00 8 ... ... ... : ... .. . ... ... ... : ... .. . ... ... ... : ... .. . P82 ... ... : ... .. . ... ... ... : ... .. . ... ... ... : ... .. . ... ... ... : ... .. . ... ... ... : ... .. . ... ... ... : ... .. . ... ... ...
ROW 0C : ... .. . ... ... ... : G#1 02 . ... ... ... : G-2 00 . P70 ... ... : 8-# 00 7 ... ... ... : ... .. . ... ... ... : --- .. . ... ... ... : --- .. . ... ... ... : --- .. . ... ... ... : --- .. . ... ... ... : ... .. . ... ... ... : ... .. . ... ... ... : ... .. . ... ... ... : ... .. . ... ... ...
ROW 0D : ... .. . ... ... ... : C#1 02 . ... ... ... : E-2 00 . P7C ... ... : ... .. 6 ... ... ... : ... .. . ... ... ... : ... .. . ... ... ... : ... .. . P80 ... ... : ... .. . P80 ... ... : ... .. . P80 ... ... : ... .. . ... ... ... : ... .. . ... ... ... : ... .. . ... ... ... : ... .. . ... ... ...
ROW 0E : ... .. . ... ... ... : ... .. . ... ... ... : --- .. . ... ... ... : ... .. . ... ... ... : ... .. . ... ... ... : F#3 05 4 ... ... ... : F#3 05 4 P83 ... ... : F#3 05 3 P7E ... ... : D#3 05 3 P81 ... ... : ... .. . ... ... ... : ... .. . ... ... ... : ... .. . ... ... ... : ... .. . ... ... ...
ROW 0F : ... .. . ... ... ... : ... .. . ... ... ... : ... .. . ... ... ... : ... .. 5 ... ... ... : ... .. . ... ... ... : ... .. . ... ... ... : ... .. . P82 ... ... : ... .. . ... ... ... : ... .. . ... ... ... : ... .. . ... ... ... : ... .. . ... ... ... : ... .. . ... ... ... : ... .. . ... ... ...
ROW 10 : ... .. . ... ... ... : ... .. . ... ... ... : ... .. . ... ... ... : ... .. . ... ... ... : ... .. . ... ... ... : ... .. . ... ... ... : ... .. . P83 ... ... : ... .. . ... ... ... : ... .. . ... ... ... : ... .. . ... ... ... : ... .. . ... ... ... : ... .. . ... ... ... : ... .. . ... ... ...
ROW 11 : ... .. . ... ... ... : ... .. . ... ... ... : ... .. . ... ... ... : ... .. 4 ... ... ... : ... .. . ... ... ... : ... .. . ... ... ... : ... .. . P84 ... ... : ... .. . ... ... ... : ... .. . ... ... ... : ... .. . ... ... ... : ... .. . ... ... ... : ... .. . ... ... ... : ... .. . ... ... ...
ROW 12 : ... .. . ... ... ... : ... .. . ... ... ... : ... .. . ... ... ... : ... .. . ... ... ... : ... .. . ... ... ... : --- .. . ... ... ... : --- .. . ... ... ... : --- .. . ... ... ... : --- .. . ... ... ... : ... .. . ... ... ... : ... .. . ... ... ... : ... .. . ... ... ... : ... .. . ... ... ...
ROW 13 : ... .. . ... ... ... : ... .. . ... ... ... : ... .. . ... ... ... : ... .. 3 ... ... ... : ... .. . ... ... ... : ... .. . ... ... ... : ... .. . P80 ... ... : ... .. . P80 ... ... : ... .. . P80 ... ... : ... .. . ... ... ... : ... .. . ... ... ... : ... .. . ... ... ... : ... .. . ... ... ...
ROW 14 : ... .. . ... ... ... : ... .. . ... ... ... : ... .. . ... ... ... : D-# 00 A ... ... ... : ... .. . ... ... ... : B-3 05 A ... ... ... : B-3 05 A P83 ... ... : B-3 05 9 P7E ... ... : F#3 05 9 P81 ... ... : ... .. . ... ... ... : ... .. . ... ... ... : ... .. . ... ... ... : ... .. . ... ... ...
ROW 15 : ... .. . ... ... ... : ... .. . ... ... ... : ... .. . ... ... ... : E-# 00 4 ... ... ... : ... .. . ... ... ... : ... .. . ... ... ... : ... .. . P84 ... ... : ... .. . ... ... ... : ... .. . ... ... ... : ... .. . ... ... ... : ... .. . ... ... ... : ... .. . ... ... ... : ... .. . ... ... ...
ROW 16 : ... .. . ... ... ... : ... .. . ... ... ... : ... .. . ... ... ... : D-# 00 2 ... ... ... : ... .. . ... ... ... : ... .. . ... ... ... : ... .. . ... ... ... : ... .. . ... ... ... : ... .. . ... ... ... : ... .. . ... ... ... : ... .. . ... ... ... : ... .. . ... ... ... : ... .. . ... ... ...
ROW 17 : ... .. . ... ... ... : ... .. . ... ... ... : ... .. . ... ... ... : ... .. 1 ... ... ... : ... .. . ... ... ... : ... .. . ... ... ... : ... .. . P83 ... ... : ... .. . ... ... ... : ... .. . ... ... ... : ... .. . ... ... ... : ... .. . ... ... ... : ... .. . ... ... ... : ... .. . ... ... ...
ROW 18 : ... .. . ... ... ... : ... .. . ... ... ... : ... .. . ... ... ... : ... .. . ... ... ... : ... .. . ... ... ... : --- .. . ... ... ... : --- .. . ... ... ... : --- .. . ... ... ... : --- .. . ... ... ... : ... .. . ... ... ... : ... .. . ... ... ... : ... .. . ... ... ... : ... .. . ... ... ...
ROW 19 : ... .. . ... ... ... : ... .. . ... ... ... : ... .. . ... ... ... : --- .. . ... ... ... : ... .. . ... ... ... : ... .. . ... ... ... : ... .. . P80 ... ... : ... .. . P80 ... ... : ... .. . P80 ... ... : ... .. . ... ... ... : ... .. . ... ... ... : ... .. . ... ... ... : ... .. . ... ... ...
ROW 1A : ... .. . ... ... ... : ... .. . ... ... ... : ... .. . ... ... ... : D-# 00 A ... ... ... : ... .. . ... ... ... : B-3 05 4 ... ... ... : B-3 05 . P84 ... ... : B-3 05 . P7E ... ... : F#3 05 . P81 ... ... : ... .. . ... ... ... : ... .. . ... ... ... : ... .. . ... ... ... : ... .. . ... ... ...
ROW 1B : ... .. . ... ... ... : ... .. . ... ... ... : ... .. . ... ... ... : E-# 00 4 ... ... ... : ... .. . ... ... ... : ... .. . ... ... ... : ... .. . P83 ... ... : ... .. . ... ... ... : ... .. . ... ... ... : ... .. . ... ... ... : ... .. . ... ... ... : ... .. . ... ... ... : ... .. . ... ... ...
ROW 1C : ... .. . ... ... ... : ... .. . ... ... ... : ... .. . ... ... ... : D-# 00 2 ... ... ... : ... .. . ... ... ... : ... .. . ... ... ... : ... .. . P82 ... ... : ... .. . ... ... ... : ... .. . ... ... ... : ... .. . ... ... ... : ... .. . ... ... ... : ... .. . ... ... ... : ... .. . ... ... ...
ROW 1D : ... .. . ... ... ... : ... .. . ... ... ... : ... .. . ... ... ... : ... .. 1 ... ... ... : ... .. . ... ... ... : ... .. . ... ... ... : ... .. . P83 ... ... : ... .. . ... ... ... : ... .. . ... ... ... : ... .. . ... ... ... : ... .. . ... ... ... : ... .. . ... ... ... : ... .. . ... ... ...
ROW 1E : ... .. . ... ... ... : ... .. . ... ... ... : ... .. . ... ... ... : ... .. . ... ... ... : ... .. . ... ... ... : ... .. . ... ... ... : ... .. . P84 ... ... : ... .. 8 ... ... ... : ... .. . ... ... ... : ... .. . ... ... ... : ... .. . ... ... ... : ... .. . ... ... ... : ... .. . ... ... ...
ROW 1F : ... .. . ... ... ... : ... .. . ... ... ... : ... .. . ... ... ... : --- .. . ... ... ... : ... .. . ... ... ... : --- .. . ... ... ... : --- .. . ... ... ... : --- .. . ... ... ... : --- .. . ... ... ... : ... .. . ... ... ... : ... .. . ... ... ... : ... .. . ... ... ... : ... .. . ... ... ...
ROW 20 : ... .. . ... ... ... : ... .. . ... ... ... : ... .. . ... ... ... : ... .. . ... ... ... : ... .. . ... ... ... : ... .. . ... ... ... : ... .. . ... ... ... : ... .. . ... ... ... : ... .. . ... ... ... : ... .. . ... ... ... : ... .. . ... ... ... : ... .. . ... ... ... : ... .. . ... ... ...
ROW 21 : ... .. . ... ... ... : ... .. . ... ... ... : ... .. . ... ... ... : ... .. . ... ... ... : ... .. . ... ... ... : ... .. . ... ... ... : ... .. . ... ... ... : ... .. . ... ... ... : ... .. . ... ... ... : ... .. . ... ... ... : ... .. . ... ... ... : ... .. . ... ... ... : ... .. . ... ... ...
ROW 22 : ... .. . ... ... ... : ... .. . ... ... ... : ... .. . ... ... ... : ... .. . ... ... ... : ... .. . ... ... ... : ... .. . ... ... ... : ... .. . ... ... ... : ... .. . ... ... ... : ... .. . ... ... ... : ... .. . ... ... ... : ... .. . ... ... ... : ... .. . ... ... ... : ... .. . ... ... ...
ROW 23 : ... .. . ... ... ... : ... .. . ... ... ... : ... .. . ... ... ... : ... .. . ... ... ... : ... .. . ... ... ... : ... .. . ... ... ... : ... .. . ... ... ... : ... .. . ... ... ... : ... .. . ... ... ... : ... .. . ... ... ... : ... .. . ... ... ... : ... .. . ... ... ... : ... .. . ... ... ...
ROW 24 : ... .. . ... ... ... : ... .. . ... ... ... : ... .. . ... ... ... : ... .. . ... ... ... : ... .. . ... ... ... : ... .. . ... ... ... : ... .. . ... ... ... : ... .. . ... ... ... : ... .. . ... ... ... : ... .. . ... ... ... : ... .. . ... ... ... : ... .. . ... ... ... : ... .. . ... ... ...
ROW 25 : ... .. . ... ... ... : ... .. . ... ... ... : ... .. . ... ... ... : ... .. . ... ... ... : ... .. . ... ... ... : ... .. . ... ... ... : ... .. . ... ... ... : ... .. . ... ... ... : ... .. . ... ... ... : ... .. . ... ... ... : ... .. . ... ... ... : ... .. . ... ... ... : ... .. . ... ... ...
ROW 26 : ... .. . ... ... ... : ... .. . ... ... ... : ... .. . ... ... ... : ... .. . ... ... ... : ... .. . ... ... ... : ... .. . ... ... ... : ... .. . ... ... ... : ... .. . ... ... ... : ... .. . ... ... ... : ... .. . ... ... ... : ... .. . ... ... ... : ... .. . ... ... ... : ... .. . ... ... ...
ROW 27 : ... .. . ... ... ... : ... .. . ... ... ... : ... .. . ... ... ... : ... .. . ... ... ... : ... .. . ... ... ... : ... .. . ... ... ... : ... .. . ... ... ... : ... .. . ... ... ... : ... .. . ... ... ... : ... .. . ... ... ... : ... .. . ... ... ... : ... .. . ... ... ... : ... .. . ... ... ...
ROW 28 : ... .. . ... ... ... : ... .. . ... ... ... : ... .. . ... ... ... : ... .. . ... ... ... : ... .. . ... ... ... : ... .. . ... ... ... : ... .. . ... ... ... : ... .. . ... ... ... : ... .. . ... ... ... : ... .. . ... ... ... : ... .. . ... ... ... : ... .. . ... ... ... : ... .. . ... ... ...
ROW 29 : ... .. . ... ... ... : ... .. . ... ... ... : ... .. . ... ... ... : ... .. . ... ... ... : ... .. . ... ... ... : ... .. . ... ... ... : ... .. . ... ... ... : ... .. . ... ... ... : ... .. . ... ... ... : ... .. . ... ... ... : ... .. . ... ... ... : ... .. . ... ... ... : ... .. . ... ... ...
ROW 2A : ... .. . ... ... ... : ... .. . ... ... ... : ... .. . ... ... ... : ... .. . ... ... ... : ... .. . ... ... ... : ... .. . ... ... ... : ... .. . ... ... ... : ... .. . ... ... ... : ... .. . ... ... ... : ... .. . ... ... ... : ... .. . ... ... ... : ... .. . ... ... ... : ... .. . ... ... ...
ROW 2B : ... .. . ... ... ... : ... .. . ... ... ... : ... .. . ... ... ... : ... .. . ... ... ... : ... .. . ... ... ... : ... .. . ... ... ... : ... .. . ... ... ... : ... .. . ... ... ... : ... .. . ... ... ... : ... .. . ... ... ... : ... .. . ... ... ... : ... .. . ... ... ... : ... .. . ... ... ...
ROW 2C : ... .. . ... ... ... : ... .. . ... ... ... : ... .. . ... ... ... : ... .. . ... ... ... : ... .. . ... ... ... : ... .. . ... ... ... : ... .. . ... ... ... : ... .. . ... ... ... : ... .. . ... ... ... : ... .. . ... ... ... : ... .. . ... ... ... : ... .. . ... ... ... : ... .. . ... ... ...
ROW 2D : ... .. . ... ... ... : ... .. . ... ... ... : ... .. . ... ... ... : ... .. . ... ... ... : ... .. . ... ... ... : ... .. . ... ... ... : ... .. . ... ... ... : ... .. . ... ... ... : ... .. . ... ... ... : ... .. . ... ... ... : ... .. . ... ... ... : ... .. . ... ... ... : ... .. . ... ... ...
ROW 2E : ... .. . ... ... ... : ... .. . ... ... ... : ... .. . ... ... ... : ... .. . ... ... ... : ... .. . ... ... ... : ... .. . ... ... ... : ... .. . ... ... ... : ... .. . ... ... ... : ... .. . ... ... ... : ... .. . ... ... ... : ... .. . ... ... ... : ... .. . ... ... ... : ... .. . ... ... ...
ROW 2F : ... .. . ... ... ... : ... .. . ... ... ... : ... .. . ... ... ... : ... .. . ... ... ... : ... .. . ... ... ... : ... .. . ... ... ... : ... .. . ... ... ... : ... .. . ... ... ... : ... .. . ... ... ... : ... .. . ... ... ... : ... .. . ... ... ... : ... .. . ... ... ... : ... .. . ... ... ...
ROW 30 : ... .. . ... ... ... : ... .. . ... ... ... : ... .. . ... ... ... : ... .. . ... ... ... : ... .. . ... ... ... : ... .. . ... ... ... : ... .. . ... ... ... : ... .. . ... ... ... : ... .. . ... ... ... : ... .. . ... ... ... : ... .. . ... ... ... : ... .. . ... ... ... : ... .. . ... ... ...
ROW 31 : ... .. . ... ... ... : ... .. . ... ... ... : ... .. . ... ... ... : ... .. . ... ... ... : ... .. . ... ... ... : ... .. . ... ... ... : ... .. . ... ... ... : ... .. . ... ... ... : ... .. . ... ... ... : ... .. . ... ... ... : ... .. . ... ... ... : ... .. . ... ... ... : ... .. . ... ... ...
ROW 32 : ... .. . ... ... ... : ... .. . ... ... ... : ... .. . ... ... ... : ... .. . ... ... ... : ... .. . ... ... ... : ... .. . ... ... ... : ... .. . ... ... ... : ... .. . ... ... ... : ... .. . ... ... ... : ... .. . ... ... ... : ... .. . ... ... ... : ... .. . ... ... ... : ... .. . ... ... ...
ROW 33 : ... .. . ... ... ... : ... .. . ... ... ... : ... .. . ... ... ... : ... .. . ... ... ... : ... .. . ... ... ... : ... .. . ... ... ... : ... .. . ... ... ... : ... .. . ... ... ... : ... .. . ... ... ... : ... .. . ... ... ... : ... .. . ... ... ... : ... .. . ... ... ... : ... .. . ... ... ...
ROW 34 : ... .. . ... ... ... : ... .. . ... ... ... : ... .. . ... ... ... : ... .. . ... ... ... : ... .. . ... ... ... : ... .. . ... ... ... : ... .. . ... ... ... : ... .. . ... ... ... : ... .. . ... ... ... : ... .. . ... ... ... : ... .. . ... ... ... : ... .. . ... ... ... : ... .. . ... ... ...
ROW 35 : ... .. . ... ... ... : ... .. . ... ... ... : ... .. . ... ... ... : ... .. . ... ... ... : ... .. . ... ... ... : ... .. . ... ... ... : ... .. . ... ... ... : ... .. . ... ... ... : ... .. . ... ... ... : ... .. . ... ... ... : ... .. . ... ... ... : ... .. . ... ... ... : ... .. . ... ... ...
ROW 36 : ... .. . ... ... ... : ... .. . ... ... ... : ... .. . ... ... ... : ... .. . ... ... ... : ... .. . ... ... ... : ... .. . ... ... ... : ... .. . ... ... ... : ... .. . ... ... ... : ... .. . ... ... ... : ... .. . ... ... ... : ... .. . ... ... ... : ... .. . ... ... ... : ... .. . ... ... ...
ROW 37 : ... .. . ... ... ... : ... .. . ... ... ... : ... .. . ... ... ... : ... .. . ... ... ... : ... .. . ... ... ... : ... .. . ... ... ... : ... .. . ... ... ... : ... .. . ... ... ... : ... .. . ... ... ... : ... .. . ... ... ... : ... .. . ... ... ... : ... .. . ... ... ... : ... .. . ... ... ...
ROW 38 : ... .. . ... ... ... : ... .. . ... ... ... : ... .. . ... ... ... : ... .. . ... ... ... : ... .. . ... ... ... : ... .. . ... ... ... : ... .. . ... ... ... : ... .. . ... ... ... : ... .. . ... ... ... : ... .. . ... ... ... : ... .. . ... ... ... : ... .. . ... ... ... : ... .. . ... ... ...
ROW 39 : ... .. . ... ... ... : ... .. . ... ... ... : ... .. . ... ... ... : ... .. . ... ... ... : ... .. . ... ... ... : ... .. . ... ... ... : ... .. . ... ... ... : ... .. . ... ... ... : ... .. . ... ... ... : ... .. . ... ... ... : ... .. . ... ... ... : ... .. . ... ... ... : ... .. . ... ... ...
ROW 3A : ... .. . ... ... ... : ... .. . ... ... ... : ... .. . ... ... ... : ... .. . ... ... ... : ... .. . ... ... ... : ... .. . ... ... ... : ... .. . ... ... ... : ... .. . ... ... ... : ... .. . ... ... ... : ... .. . ... ... ... : ... .. . ... ... ... : ... .. . ... ... ... : ... .. . ... ... ...
ROW 3B : ... .. . ... ... ... : ... .. . ... ... ... : ... .. . ... ... ... : ... .. . ... ... ... : ... .. . ... ... ... : ... .. . ... ... ... : ... .. . ... ... ... : ... .. . ... ... ... : ... .. . ... ... ... : ... .. . ... ... ... : ... .. . ... ... ... : ... .. . ... ... ... : ... .. . ... ... ...
ROW 3C : ... .. . ... ... ... : ... .. . ... ... ... : ... .. . ... ... ... : ... .. . ... ... ... : ... .. . ... ... ... : ... .. . ... ... ... : ... .. . ... ... ... : ... .. . ... ... ... : ... .. . ... ... ... : ... .. . ... ... ... : ... .. . ... ... ... : ... .. . ... ... ... : ... .. . ... ... ...
ROW 3D : ... .. . ... ... ... : ... .. . ... ... ... : ... .. . ... ... ... : ... .. . ... ... ... : ... .. . ... ... ... : ... .. . ... ... ... : ... .. . ... ... ... : ... .. . ... ... ... : ... .. . ... ... ... : ... .. . ... ... ... : ... .. . ... ... ... : ... .. . ... ... ... : ... .. . ... ... ...
ROW 3E : ... .. . ... ... ... : ... .. . ... ... ... : ... .. . ... ... ... : ... .. . ... ... ... : ... .. . ... ... ... : ... .. . ... ... ... : ... .. . ... ... ... : ... .. . ... ... ... : ... .. . ... ... ... : ... .. . ... ... ... : ... .. . ... ... ... : ... .. . ... ... ... : ... .. . ... ... ...
ROW 3F : ... .. . ... ... ... : ... .. . ... ... ... : ... .. . ... ... ... : ... .. . ... ... ... : ... .. . ... ... ... : ... .. . ... ... ... : ... .. . ... ... ... : ... .. . ... ... ... : ... .. . ... ... ... : ... .. . ... ... ... : ... .. . ... ... ... : ... .. . ... ... ... : ... .. . ... ... ...
ROW 40 : ... .. . ... ... ... : ... .. . ... ... ... : ... .. . ... ... ... : ... .. . ... ... ... : ... .. . ... ... ... : ... .. . ... ... ... : ... .. . ... ... ... : ... .. . ... ... ... : ... .. . ... ... ... : ... .. . ... ... ... : ... .. . ... ... ... : ... .. . ... ... ... : ... .. . ... ... ...
ROW 41 : ... .. . ... ... ... : ... .. . ... ... ... : ... .. . ... ... ... : ... .. . ... ... ... : ... .. . ... ... ... : ... .. . ... ... ... : ... .. . ... ... ... : ... .. . ... ... ... : ... .. . ... ... ... : ... .. . ... ... ... : ... .. . ... ... ... : ... .. . ... ... ... : ... .. . ... ... ...
ROW 42 : ... .. . ... ... ... : ... .. . ... ... ... : ... .. . ... ... ... : ... .. . ... ... ... : ... .. . ... ... ... : ... .. . ... ... ... : ... .. . ... ... ... : ... .. . ... ... ... : ... .. . ... ... ... : ... .. . ... ... ... : ... .. . ... ... ... : ... .. . ... ... ... : ... .. . ... ... ...
ROW 43 : ... .. . ... ... ... : ... .. . ... ... ... : ... .. . ... ... ... : ... .. . ... ... ... : ... .. . ... ... ... : ... .. . ... ... ... : ... .. . ... ... ... : ... .. . ... ... ... : ... .. . ... ... ... : ... .. . ... ... ... : ... .. . ... ... ... : ... .. . ... ... ... : ... .. . ... ... ...
ROW 44 : ... .. . ... ... ... : ... .. . ... ... ... : ... .. . ... ... ... : ... .. . ... ... ... : ... .. . ... ... ... : ... .. . ... ... ... : ... .. . ... ... ... : ... .. . ... ... ... : ... .. . ... ... ... : ... .. . ... ... ... : ... .. . ... ... ... : ... .. . ... ... ... : ... .. . ... ... ...
ROW 45 : ... .. . ... ... ... : ... .. . ... ... ... : ... .. . ... ... ... : ... .. . ... ... ... : ... .. . ... ... ... : ... .. . ... ... ... : ... .. . ... ... ... : ... .. . ... ... ... : ... .. . ... ... ... : ... .. . ... ... ... : ... .. . ... ... ... : ... .. . ... ... ... : ... .. . ... ... ...
ROW 46 : ... .. . ... ... ... : ... .. . ... ... ... : ... .. . ... ... ... : ... .. . ... ... ... : ... .. . ... ... ... : ... .. . ... ... ... : ... .. . ... ... ... : ... .. . ... ... ... : ... .. . ... ... ... : ... .. . ... ... ... : ... .. . ... ... ... : ... .. . ... ... ... : ... .. . ... ... ...
ROW 47 : ... .. . ... ... ... : ... .. . ... ... ... : ... .. . ... ... ... : ... .. . ... ... ... : ... .. . ... ... ... : ... .. . ... ... ... : ... .. . ... ... ... : ... .. . ... ... ... : ... .. . ... ... ... : ... .. . ... ... ... : ... .. . ... ... ... : ... .. . ... ... ... : ... .. . ... ... ...
ROW 48 : ... .. . ... ... ... : ... .. . ... ... ... : ... .. . ... ... ... : ... .. . ... ... ... : ... .. . ... ... ... : ... .. . ... ... ... : ... .. . ... ... ... : ... .. . ... ... ... : ... .. . ... ... ... : ... .. . ... ... ... : ... .. . ... ... ... : ... .. . ... ... ... : ... .. . ... ... ...
ROW 49 : ... .. . ... ... ... : ... .. . ... ... ... : ... .. . ... ... ... : ... .. . ... ... ... : ... .. . ... ... ... : ... .. . ... ... ... : ... .. . ... ... ... : ... .. . ... ... ... : ... .. . ... ... ... : ... .. . ... ... ... : ... .. . ... ... ... : ... .. . ... ... ... : ... .. . ... ... ...
ROW 4A : ... .. . ... ... ... : ... .. . ... ... ... : ... .. . ... ... ... : ... .. . ... ... ... : ... .. . ... ... ... : ... .. . ... ... ... : ... .. . ... ... ... : ... .. . ... ... ... : ... .. . ... ... ... : ... .. . ... ... ... : ... .. . ... ... ... : ... .. . ... ... ... : ... .. . ... ... ...
ROW 4B : ... .. . ... ... ... : ... .. . ... ... ... : ... .. . ... ... ... : ... .. . ... ... ... : ... .. . ... ... ... : ... .. . ... ... ... : ... .. . ... ... ... : ... .. . ... ... ... : ... .. . ... ... ... : ... .. . ... ... ... : ... .. . ... ... ... : ... .. . ... ... ... : ... .. . ... ... ...
ROW 4C : ... .. . ... ... ... : ... .. . ... ... ... : ... .. . ... ... ... : ... .. . ... ... ... : ... .. . ... ... ... : ... .. . ... ... ... : ... .. . ... ... ... : ... .. . ... ... ... : ... .. . ... ... ... : ... .. . ... ... ... : ... .. . ... ... ... : ... .. . ... ... ... : ... .. . ... ... ...
ROW 4D : ... .. . ... ... ... : ... .. . ... ... ... : ... .. . ... ... ... : ... .. . ... ... ... : ... .. . ... ... ... : ... .. . ... ... ... : ... .. . ... ... ... : ... .. . ... ... ... : ... .. . ... ... ... : ... .. . ... ... ... : ... .. . ... ... ... : ... .. . ... ... ... : ... .. . ... ... ...
ROW 4E : ... .. . ... ... ... : ... .. . ... ... ... : ... .. . ... ... ... : ... .. . ... ... ... : ... .. . ... ... ... : ... .. . ... ... ... : ... .. . ... ... ... : ... .. . ... ... ... : ... .. . ... ... ... : ... .. . ... ... ... : ... .. . ... ... ... : ... .. . ... ... ... : ... .. . ... ... ...
ROW 4F : ... .. . ... ... ... : ... .. . ... ... ... : ... .. . ... ... ... : ... .. . ... ... ... : ... .. . ... ... ... : ... .. . ... ... ... : ... .. . ... ... ... : ... .. . ... ... ... : ... .. . ... ... ... : ... .. . ... ... ... : ... .. . ... ... ... : ... .. . ... ... ... : ... .. . ... ... ...
ROW 50 : ... .. . ... ... ... : ... .. . ... ... ... : ... .. . ... ... ... : ... .. . ... ... ... : ... .. . ... ... ... : ... .. . ... ... ... : ... .. . ... ... ... : ... .. . ... ... ... : ... .. . ... ... ... : ... .. . ... ... ... : ... .. . ... ... ... : ... .. . ... ... ... : ... .. . ... ... ...
ROW 51 : ... .. . ... ... ... : ... .. . ... ... ... : ... .. . ... ... ... : ... .. . ... ... ... : ... .. . ... ... ... : ... .. . ... ... ... : ... .. . ... ... ... : ... .. . ... ... ... : ... .. . ... ... ... : ... .. . ... ... ... : ... .. . ... ... ... : ... .. . ... ... ... : ... .. . ... ... ...
ROW 52 : ... .. . ... ... ... : ... .. . ... ... ... : ... .. . ... ... ... : ... .. . ... ... ... : ... .. . ... ... ... : ... .. . ... ... ... : ... .. . ... ... ... : ... .. . ... ... ... : ... .. . ... ... ... : ... .. . ... ... ... : ... .. . ... ... ... : ... .. . ... ... ... : ... .. . ... ... ...
ROW 53 : ... .. . ... ... ... : ... .. . ... ... ... : ... .. . ... ... ... : ... .. . ... ... ... : ... .. . ... ... ... : ... .. . ... ... ... : ... .. . ... ... ... : ... .. . ... ... ... : ... .. . ... ... ... : ... .. . ... ... ... : ... .. . ... ... ... : ... .. . ... ... ... : ... .. . ... ... ...
ROW 54 : ... .. . ... ... ... : ... .. . ... ... ... : ... .. . ... ... ... : ... .. . ... ... ... : ... .. . ... ... ... : ... .. . ... ... ... : ... .. . ... ... ... : ... .. . ... ... ... : ... .. . ... ... ... : ... .. . ... ... ... : ... .. . ... ... ... : ... .. . ... ... ... : ... .. . ... ... ...
ROW 55 : ... .. . ... ... ... : ... .. . ... ... ... : ... .. . ... ... ... : ... .. . ... ... ... : ... .. . ... ... ... : ... .. . ... ... ... : ... .. . ... ... ... : ... .. . ... ... ... : ... .. . ... ... ... : ... .. . ... ... ... : ... .. . ... ... ... : ... .. . ... ... ... : ... .. . ... ... ...
ROW 56 : ... .. . ... ... ... : ... .. . ... ... ... : ... .. . ... ... ... : ... .. . ... ... ... : ... .. . ... ... ... : ... .. . ... ... ... : ... .. . ... ... ... : ... .. . ... ... ... : ... .. . ... ... ... : ... .. . ... ... ... : ... .. . ... ... ... : ... .. . ... ... ... : ... .. . ... ... ...
ROW 57 : ... .. . ... ... ... : ... .. . ... ... ... : ... .. . ... ... ... : ... .. . ... ... ... : ... .. . ... ... ... : ... .. . ... ... ... : ... .. . ... ... ... : ... .. . ... ... ... : ... .. . ... ... ... : ... .. . ... ... ... : ... .. . ... ... ... : ... .. . ... ... ... : ... .. . ... ... ...
ROW 58 : ... .. . ... ... ... : ... .. . ... ... ... : ... .. . ... ... ... : ... .. . ... ... ... : ... .. . ... ... ... : ... .. . ... ... ... : ... .. . ... ... ... : ... .. . ... ... ... : ... .. . ... ... ... : ... .. . ... ... ... : ... .. . ... ... ... : ... .. . ... ... ... : ... .. . ... ... ...
ROW 59 : ... .. . ... ... ... : ... .. . ... ... ... : ... .. . ... ... ... : ... .. . ... ... ... : ... .. . ... ... ... : ... .. . ... ... ... : ... .. . ... ... ... : ... .. . ... ... ... : ... .. . ... ... ... : ... .. . ... ... ... : ... .. . ... ... ... : ... .. . ... ... ... : ... .. . ... ... ...
ROW 5A : ... .. . ... ... ... : ... .. . ... ... ... : ... .. . ... ... ... : ... .. . ... ... ... : ... .. . ... ... ... : ... .. . ... ... ... : ... .. . ... ... ... : ... .. . ... ... ... : ... .. . ... ... ... : ... .. . ... ... ... : ... .. . ... ... ... : ... .. . ... ... ... : ... .. . ... ... ...
ROW 5B : ... .. . ... ... ... : ... .. . ... ... ... : ... .. . ... ... ... : ... .. . ... ... ... : ... .. . ... ... ... : ... .. . ... ... ... : ... .. . ... ... ... : ... .. . ... ... ... : ... .. . ... ... ... : ... .. . ... ... ... : ... .. . ... ... ... : ... .. . ... ... ... : ... .. . ... ... ...
ROW 5C : ... .. . ... ... ... : ... .. . ... ... ... : ... .. . ... ... ... : ... .. . ... ... ... : ... .. . ... ... ... : ... .. . ... ... ... : ... .. . ... ... ... : ... .. . ... ... ... : ... .. . ... ... ... : ... .. . ... ... ... : ... .. . ... ... ... : ... .. . ... ... ... : ... .. . ... ... ...
ROW 5D : ... .. . ... ... ... : ... .. . ... ... ... : ... .. . ... ... ... : ... .. . ... ... ... : ... .. . ... ... ... : ... .. . ... ... ... : ... .. . ... ... ... : ... .. . ... ... ... : ... .. . ... ... ... : ... .. . ... ... ... : ... .. . ... ... ... : ... .. . ... ... ... : ... .. . ... ... ...
ROW 5E : ... .. . ... ... ... : ... .. . ... ... ... : ... .. . ... ... ... : ... .. . ... ... ... : ... .. . ... ... ... : ... .. . ... ... ... : ... .. . ... ... ... : ... .. . ... ... ... : ... .. . ... ... ... : ... .. . ... ... ... : ... .. . ... ... ... : ... .. . ... ... ... : ... .. . ... ... ...
ROW 5F : ... .. . ... ... ... : ... .. . ... ... ... : ... .. . ... ... ... : ... .. . ... ... ... : ... .. . ... ... ... : ... .. . ... ... ... : ... .. . ... ... ... : ... .. . ... ... ... : ... .. . ... ... ... : ... .. . ... ... ... : ... .. . ... ... ... : ... .. . ... ... ... : ... .. . ... ... ...
ROW 60 : ... .. . ... ... ... : ... .. . ... ... ... : ... .. . ... ... ... : ... .. . ... ... ... : ... .. . ... ... ... : ... .. . ... ... ... : ... .. . ... ... ... : ... .. . ... ... ... : ... .. . ... ... ... : ... .. . ... ... ... : ... .. . ... ... ... : ... .. . ... ... ... : ... .. . ... ... ...
ROW 61 : ... .. . ... ... ... : ... .. . ... ... ... : ... .. . ... ... ... : ... .. . ... ... ... : ... .. . ... ... ... : ... .. . ... ... ... : ... .. . ... ... ... : ... .. . ... ... ... : ... .. . ... ... ... : ... .. . ... ... ... : ... .. . ... ... ... : ... .. . ... ... ... : ... .. . ... ... ...
ROW 62 : ... .. . ... ... ... : ... .. . ... ... ... : ... .. . ... ... ... : ... .. . ... ... ... : ... .. . ... ... ... : ... .. . ... ... ... : ... .. . ... ... ... : ... .. . ... ... ... : ... .. . ... ... ... : ... .. . ... ... ... : ... .. . ... ... ... : ... .. . ... ... ... : ... .. . ... ... ...
ROW 63 : ... .. . ... ... ... : ... .. . ... ... ... : ... .. . ... ... ... : ... .. . ... ... ... : ... .. . ... ... ... : ... .. . ... ... ... : ... .. . ... ... ... : ... .. . ... ... ... : ... .. . ... ... ... : ... .. . ... ... ... : ... .. . ... ... ... : ... .. . ... ... ... : ... .. . ... ... ...
ROW 64 : ... .. . ... ... ... : ... .. . ... ... ... : ... .. . ... ... ... : ... .. . ... ... ... : ... .. . ... ... ... : ... .. . ... ... ... : ... .. . ... ... ... : ... .. . ... ... ... : ... .. . ... ... ... : ... .. . ... ... ... : ... .. . ... ... ... : ... .. . ... ... ... : ... .. . ... ... ...
ROW 65 : ... .. . ... ... ... : ... .. . ... ... ... : ... .. . ... ... ... : ... .. . ... ... ... : ... .. . ... ... ... : ... .. . ... ... ... : ... .. . ... ... ... : ... .. . ... ... ... : ... .. . ... ... ... : ... .. . ... ... ... : ... .. . ... ... ... : ... .. . ... ... ... : ... .. . ... ... ...
ROW 66 : ... .. . ... ... ... : ... .. . ... ... ... : ... .. . ... ... ... : ... .. . ... ... ... : ... .. . ... ... ... : ... .. . ... ... ... : ... .. . ... ... ... : ... .. . ... ... ... : ... .. . ... ... ... : ... .. . ... ... ... : ... .. . ... ... ... : ... .. . ... ... ... : ... .. . ... ... ...
ROW 67 : ... .. . ... ... ... : ... .. . ... ... ... : ... .. . ... ... ... : ... .. . ... ... ... : ... .. . ... ... ... : ... .. . ... ... ... : ... .. . ... ... ... : ... .. . ... ... ... : ... .. . ... ... ... : ... .. . ... ... ... : ... .. . ... ... ... : ... .. . ... ... ... : ... .. . ... ... ...
ROW 68 : ... .. . ... ... ... : ... .. . ... ... ... : ... .. . ... ... ... : ... .. . ... ... ... : ... .. . ... ... ... : ... .. . ... ... ... : ... .. . ... ... ... : ... .. . ... ... ... : ... .. . ... ... ... : ... .. . ... ... ... : ... .. . ... ... ... : ... .. . ... ... ... : ... .. . ... ... ...
ROW 69 : ... .. . ... ... ... : ... .. . ... ... ... : ... .. . ... ... ... : ... .. . ... ... ... : ... .. . ... ... ... : ... .. . ... ... ... : ... .. . ... ... ... : ... .. . ... ... ... : ... .. . ... ... ... : ... .. . ... ... ... : ... .. . ... ... ... : ... .. . ... ... ... : ... .. . ... ... ...
ROW 6A : ... .. . ... ... ... : ... .. . ... ... ... : ... .. . ... ... ... : ... .. . ... ... ... : ... .. . ... ... ... : ... .. . ... ... ... : ... .. . ... ... ... : ... .. . ... ... ... : ... .. . ... ... ... : ... .. . ... ... ... : ... .. . ... ... ... : ... .. . ... ... ... : ... .. . ... ... ...
ROW 6B : ... .. . ... ... ... : ... .. . ... ... ... : ... .. . ... ... ... : ... .. . ... ... ... : ... .. . ... ... ... : ... .. . ... ... ... : ... .. . ... ... ... : ... .. . ... ... ... : ... .. . ... ... ... : ... .. . ... ... ... : ... .. . ... ... ... : ... .. . ... ... ... : ... .. . ... ... ...
ROW 6C : ... .. . ... ... ... : ... .. . ... ... ... : ... .. . ... ... ... : ... .. . ... ... ... : ... .. . ... ... ... : ... .. . ... ... ... : ... .. . ... ... ... : ... .. . ... ... ... : ... .. . ... ... ... : ... .. . ... ... ... : ... .. . ... ... ... : ... .. . ... ... ... : ... .. . ... ... ...
ROW 6D : ... .. . ... ... ... : ... .. . ... ... ... : ... .. . ... ... ... : ... .. . ... ... ... : ... .. . ... ... ... : ... .. . ... ... ... : ... .. . ... ... ... : ... .. . ... ... ... : ... .. . ... ... ... : ... .. . ... ... ... : ... .. . ... ... ... : ... .. . ... ... ... : ... .. . ... ... ...
ROW 6E : ... .. . ... ... ... : ... .. . ... ... ... : ... .. . ... ... ... : ... .. . ... ... ... : ... .. . ... ... ... : ... .. . ... ... ... : ... .. . ... ... ... : ... .. . ... ... ... : ... .. . ... ... ... : ... .. . ... ... ... : ... .. . ... ... ... : ... .. . ... ... ... : ... .. . ... ... ...
ROW 6F : ... .. . ... ... ... : ... .. . ... ... ... : ... .. . ... ... ... : ... .. . ... ... ... : ... .. . ... ... ... : ... .. . ... ... ... : ... .. . ... ... ... : ... .. . ... ... ... : ... .. . ... ... ... : ... .. . ... ... ... : ... .. . ... ... ... : ... .. . ... ... ... : ... .. . ... ... ...
ROW 70 : ... .. . ... ... ... : ... .. . ... ... ... : ... .. . ... ... ... : ... .. . ... ... ... : ... .. . ... ... ... : ... .. . ... ... ... : ... .. . ... ... ... : ... .. . ... ... ... : ... .. . ... ... ... : ... .. . ... ... ... : ... .. . ... ... ... : ... .. . ... ... ... : ... .. . ... ... ...
ROW 71 : ... .. . ... ... ... : ... .. . ... ... ... : ... .. . ... ... ... : ... .. . ... ... ... : ... .. . ... ... ... : ... .. . ... ... ... : ... .. . ... ... ... : ... .. . ... ... ... : ... .. . ... ... ... : ... .. . ... ... ... : ... .. . ... ... ... : ... .. . ... ... ... : ... .. . ... ... ...
ROW 72 : ... .. . ... ... ... : ... .. . ... ... ... : ... .. . ... ... ... : ... .. . ... ... ... : ... .. . ... ... ... : ... .. . ... ... ... : ... .. . ... ... ... : ... .. . ... ... ... : ... .. . ... ... ... : ... .. . ... ... ... : ... .. . ... ... ... : ... .. . ... ... ... : ... .. . ... ... ...
ROW 73 : ... .. . ... ... ... : ... .. . ... ... ... : ... .. . ... ... ... : ... .. . ... ... ... : ... .. . ... ... ... : ... .. . ... ... ... : ... .. . ... ... ... : ... .. . ... ... ... : ... .. . ... ... ... : ... .. . ... ... ... : ... .. . ... ... ... : ... .. . ... ... ... : ... .. . ... ... ...
ROW 74 : ... .. . ... ... ... : ... .. . ... ... ... : ... .. . ... ... ... : ... .. . ... ... ... : ... .. . ... ... ... : ... .. . ... ... ... : ... .. . ... ... ... : ... .. . ... ... ... : ... .. . ... ... ... : ... .. . ... ... ... : ... .. . ... ... ... : ... .. . ... ... ... : ... .. . ... ... ...
ROW 75 : ... .. . ... ... ... : ... .. . ... ... ... : ... .. . ... ... ... : ... .. . ... ... ... : ... .. . ... ... ... : ... .. . ... ... ... : ... .. . ... ... ... : ... .. . ... ... ... : ... .. . ... ... ... : ... .. . ... ... ... : ... .. . ... ... ... : ... .. . ... ... ... : ... .. . ... ... ...
ROW 76 : ... .. . ... ... ... : ... .. . ... ... ... : ... .. . ... ... ... : ... .. . ... ... ... : ... .. . ... ... ... : ... .. . ... ... ... : ... .. . ... ... ... : ... .. . ... ... ... : ... .. . ... ... ... : ... .. . ... ... ... : ... .. . ... ... ... : ... .. . ... ... ... : ... .. . ... ... ...
ROW 77 : ... .. . ... ... ... : ... .. . ... ... ... : ... .. . ... ... ... : ... .. . ... ... ... : ... .. . ... ... ... : ... .. . ... ... ... : ... .. . ... ... ... : ... .. . ... ... ... : ... .. . ... ... ... : ... .. . ... ... ... : ... .. . ... ... ... : ... .. . ... ... ... : ... .. . ... ... ...
ROW 78 : ... .. . ... ... ... : ... .. . ... ... ... : ... .. . ... ... ... : ... .. . ... ... ... : ... .. . ... ... ... : ... .. . ... ... ... : ... .. . ... ... ... : ... .. . ... ... ... : ... .. . ... ... ... : ... .. . ... ... ... : ... .. . ... ... ... : ... .. . ... ... ... : ... .. . ... ... ...
ROW 79 : ... .. . ... ... ... : ... .. . ... ... ... : ... .. . ... ... ... : ... .. . ... ... ... : ... .. . ... ... ... : ... .. . ... ... ... : ... .. . ... ... ... : ... .. . ... ... ... : ... .. . ... ... ... : ... .. . ... ... ... : ... .. . ... ... ... : ... .. . ... ... ... : ... .. . ... ... ...
ROW 7A : ... .. . ... ... ... : ... .. . ... ... ... : ... .. . ... ... ... : ... .. . ... ... ... : ... .. . ... ... ... : ... .. . ... ... ... : ... .. . ... ... ... : ... .. . ... ... ... : ... .. . ... ... ... : ... .. . ... ... ... : ... .. . ... ... ... : ... .. . ... ... ... : ... .. . ... ... ...
ROW 7B : ... .. . ... ... ... : ... .. . ... ... ... : ... .. . ... ... ... : ... .. . ... ... ... : ... .. . ... ... ... : ... .. . ... ... ... : ... .. . ... ... ... : ... .. . ... ... ... : ... .. . ... ... ... : ... .. . ... ... ... : ... .. . ... ... ... : ... .. . ... ... ... : ... .. . ... ... ...
ROW 7C : ... .. . ... ... ... : ... .. . ... ... ... : ... .. . ... ... ... : ... .. . ... ... ... : ... .. . ... ... ... : ... .. . ... ... ... : ... .. . ... ... ... : ... .. . ... ... ... : ... .. . ... ... ... : ... .. . ... ... ... : ... .. . ... ... ... : ... .. . ... ... ... : ... .. . ... ... ...
ROW 7D : ... .. . ... ... ... : ... .. . ... ... ... : ... .. . ... ... ... : ... .. . ... ... ... : ... .. . ... ... ... : ... .. . ... ... ... : ... .. . ... ... ... : ... .. . ... ... ... : ... .. . ... ... ... : ... .. . ... ... ... : ... .. . ... ... ... : ... .. . ... ... ... : ... .. . ... ... ...
ROW 7E : ... .. . ... ... ... : ... .. . ... ... ... : ... .. . ... ... ... : ... .. . ... ... ... : ... .. . ... ... ... : ... .. . ... ... ... : ... .. . ... ... ... : ... .. . ... ... ... : ... .. . ... ... ... : ... .. . ... ... ... : ... .. . ... ... ... : ... .. . ... ... ... : ... .. . ... ... ...
ROW 7F : ... .. . ... ... ... : ... .. . ... ... ... : ... .. . ... ... ... : ... .. . ... ... ... : ... .. . ... ... ... : ... .. . ... ... ... : ... .. . ... ... ... : ... .. . ... ... ... : ... .. . ... ... ... : ... .. . ... ... ... : ... .. . ... ... ... : ... .. . ... ... ... : ... .. . ... ... ...
ROW 80 : ... .. . ... ... ... : ... .. . ... ... ... : ... .. . ... ... ... : ... .. . ... ... ... : ... .. . ... ... ... : ... .. . ... ... ... : ... .. . ... ... ... : ... .. . ... ... ... : ... .. . ... ... ... : ... .. . ... ... ... : ... .. . ... ... ... : ... .. . ... ... ... : ... .. . ... ... ...
ROW 81 : ... .. . ... ... ... : ... .. . ... ... ... : ... .. . ... ... ... : ... .. . ... ... ... : ... .. . ... ... ... : ... .. . ... ... ... : ... .. . ... ... ... : ... .. . ... ... ... : ... .. . ... ... ... : ... .. . ... ... ... : ... .. . ... ... ... : ... .. . ... ... ... : ... .. . ... ... ...
ROW 82 : ... .. . ... ... ... : ... .. . ... ... ... : ... .. . ... ... ... : ... .. . ... ... ... : ... .. . ... ... ... : ... .. . ... ... ... : ... .. . ... ... ... : ... .. . ... ... ... : ... .. . ... ... ... : ... .. . ... ... ... : ... .. . ... ... ... : ... .. . ... ... ... : ... .. . ... ... ...
ROW 83 : ... .. . ... ... ... : ... .. . ... ... ... : ... .. . ... ... ... : ... .. . ... ... ... : ... .. . ... ... ... : ... .. . ... ... ... : ... .. . ... ... ... : ... .. . ... ... ... : ... .. . ... ... ... : ... .. . ... ... ... : ... .. . ... ... ... : ... .. . ... ... ... : ... .. . ... ... ...
ROW 84 : ... .. . ... ... ... : ... .. . ... ... ... : ... .. . ... ... ... : ... .. . ... ... ... : ... .. . ... ... ... : ... .. . ... ... ... : ... .. . ... ... ... : ... .. . ... ... ... : ... .. . ... ... ... : ... .. . ... ... ... : ... .. . ... ... ... : ... .. . ... ... ... : ... .. . ... ... ...
ROW 85 : ... .. . ... ... ... : ... .. . ... ... ... : ... .. . ... ... ... : ... .. . ... ... ... : ... .. . ... ... ... : ... .. . ... ... ... : ... .. . ... ... ... : ... .. . ... ... ... : ... .. . ... ... ... : ... .. . ... ... ... : ... .. . ... ... ... : ... .. . ... ... ... : ... .. . ... ... ...
ROW 86 : ... .. . ... ... ... : ... .. . ... ... ... : ... .. . ... ... ... : ... .. . ... ... ... : ... .. . ... ... ... : ... .. . ... ... ... : ... .. . ... ... ... : ... .. . ... ... ... : ... .. . ... ... ... : ... .. . ... ... ... : ... .. . ... ... ... : ... .. . ... ... ... : ... .. . ... ... ...
ROW 87 : ... .. . ... ... ... : ... .. . ... ... ... : ... .. . ... ... ... : ... .. . ... ... ... : ... .. . ... ... ... : ... .. . ... ... ... : ... .. . ... ... ... : ... .. . ... ... ... : ... .. . ... ... ... : ... .. . ... ... ... : ... .. . ... ... ... : ... .. . ... ... ... : ... .. . ... ... ...
ROW 88 : ... .. . ... ... ... : ... .. . ... ... ... : ... .. . ... ... ... : ... .. . ... ... ... : ... .. . ... ... ... : ... .. . ... ... ... : ... .. . ... ... ... : ... .. . ... ... ... : ... .. . ... ... ... : ... .. . ... ... ... : ... .. . ... ... ... : ... .. . ... ... ... : ... .. . ... ... ...
ROW 89 : ... .. . ... ... ... : ... .. . ... ... ... : ... .. . ... ... ... : ... .. . ... ... ... : ... .. . ... ... ... : ... .. . ... ... ... : ... .. . ... ... ... : ... .. . ... ... ... : ... .. . ... ... ... : ... .. . ... ... ... : ... .. . ... ... ... : ... .. . ... ... ... : ... .. . ... ... ...
ROW 8A : ... .. . ... ... ... : ... .. . ... ... ... : ... .. . ... ... ... : ... .. . ... ... ... : ... .. . ... ... ... : ... .. . ... ... ... : ... .. . ... ... ... : ... .. . ... ... ... : ... .. . ... ... ... : ... .. . ... ... ... : ... .. . ... ... ... : ... .. . ... ... ... : ... .. . ... ... ...
ROW 8B : ... .. . ... ... ... : ... .. . ... ... ... : ... .. . ... ... ... : ... .. . ... ... ... : ... .. . ... ... ... : ... .. . ... ... ... : ... .. . ... ... ... : ... .. . ... ... ... : ... .. . ... ... ... : ... .. . ... ... ... : ... .. . ... ... ... : ... .. . ... ... ... : ... .. . ... ... ...
ROW 8C : ... .. . ... ... ... : ... .. . ... ... ... : ... .. . ... ... ... : ... .. . ... ... ... : ... .. . ... ... ... : ... .. . ... ... ... : ... .. . ... ... ... : ... .. . ... ... ... : ... .. . ... ... ... : ... .. . ... ... ... : ... .. . ... ... ... : ... .. . ... ... ... : ... .. . ... ... ...
ROW 8D : ... .. . ... ... ... : ... .. . ... ... ... : ... .. . ... ... ... : ... .. . ... ... ... : ... .. . ... ... ... : ... .. . ... ... ... : ... .. . ... ... ... : ... .. . ... ... ... : ... .. . ... ... ... : ... .. . ... ... ... : ... .. . ... ... ... : ... .. . ... ... ... : ... .. . ... ... ...
ROW 8E : ... .. . ... ... ... : ... .. . ... ... ... : ... .. . ... ... ... : ... .. . ... ... ... : ... .. . ... ... ... : ... .. . ... ... ... : ... .. . ... ... ... : ... .. . ... ... ... : ... .. . ... ... ... : ... .. . ... ... ... : ... .. . ... ... ... : ... .. . ... ... ... : ... .. . ... ... ...
ROW 8F : ... .. . ... ... ... : ... .. . ... ... ... : ... .. . ... ... ... : ... .. . ... ... ... : ... .. . ... ... ... : ... .. . ... ... ... : ... .. . ... ... ... : ... .. . ... ... ... : ... .. . ... ... ... : ... .. . ... ... ... : ... .. . ... ... ... : ... .. . ... ... ... : ... .. . ... ... ...
ROW 90 : ... .. . ... ... ... : ... .. . ... ... ... : ... .. . ... ... ... : ... .. . ... ... ... : ... .. . ... ... ... : ... .. . ... ... ... : ... .. . ... ... ... : ... .. . ... ... ... : ... .. . ... ... ... : ... .. . ... ... ... : ... .. . ... ... ... : ... .. . ... ... ... : ... .. . ... ... ...
ROW 91 : ... .. . ... ... ... : ... .. . ... ... ... : ... .. . ... ... ... : ... .. . ... ... ... : ... .. . ... ... ... : ... .. . ... ... ... : ... .. . ... ... ... : ... .. . ... ... ... : ... .. . ... ... ... : ... .. . ... ... ... : ... .. . ... ... ... : ... .. . ... ... ... : ... .. . ... ... ...
ROW 92 : ... .. . ... ... ... : ... .. . ... ... ... : ... .. . ... ... ... : ... .. . ... ... ... : ... .. . ... ... ... : ... .. . ... ... ... : ... .. . ... ... ... : ... .. . ... ... ... : ... .. . ... ... ... : ... .. . ... ... ... : ... .. . ... ... ... : ... .. . ... ... ... : ... .. . ... ... ...
ROW 93 : ... .. . ... ... ... : ... .. . ... ... ... : ... .. . ... ... ... : ... .. . ... ... ... : ... .. . ... ... ... : ... .. . ... ... ... : ... .. . ... ... ... : ... .. . ... ... ... : ... .. . ... ... ... : ... .. . ... ... ... : ... .. . ... ... ... : ... .. . ... ... ... : ... .. . ... ... ...
ROW 94 : ... .. . ... ... ... : ... .. . ... ... ... : ... .. . ... ... ... : ... .. . ... ... ... : ... .. . ... ... ... : ... .. . ... ... ... : ... .. . ... ... ... : ... .. . ... ... ... : ... .. . ... ... ... : ... .. . ... ... ... : ... .. . ... ... ... : ... .. . ... ... ... : ... .. . ... ... ...
ROW 95 : ... .. . ... ... ... : ... .. . ... ... ... : ... .. . ... ... ... : ... .. . ... ... ... : ... .. . ... ... ... : ... .. . ... ... ... : ... .. . ... ... ... : ... .. . ... ... ... : ... .. . ... ... ... : ... .. . ... ... ... : ... .. . ... ... ... : ... .. . ... ... ... : ... .. . ... ... ...
ROW 96 : ... .. . ... ... ... : ... .. . ... ... ... : ... .. . ... ... ... : ... .. . ... ... ... : ... .. . ... ... ... : ... .. . ... ... ... : ... .. . ... ... ... : ... .. . ... ... ... : ... .. . ... ... ... : ... .. . ... ... ... : ... .. . ... ... ... : ... .. . ... ... ... : ... .. . ... ... ...
ROW 97 : ... .. . ... ... ... : ... .. . ... ... ... : ... .. . ... ... ... : ... .. . ... ... ... : ... .. . ... ... ... : ... .. . ... ... ... : ... .. . ... ... ... : ... .. . ... ... ... : ... .. . ... ... ... : ... .. . ... ... ... : ... .. . ... ... ... : ... .. . ... ... ... : ... .. . ... ... ...
ROW 98 : ... .. . ... ... ... : ... .. . ... ... ... : ... .. . ... ... ... : ... .. . ... ... ... : ... .. . ... ... ... : ... .. . ... ... ... : ... .. . ... ... ... : ... .. . ... ... ... : ... .. . ... ... ... : ... .. . ... ... ... : ... .. . ... ... ... : ... .. . ... ... ... : ... .. . ... ... ...
ROW 99 : ... .. . ... ... ... : ... .. . ... ... ... : ... .. . ... ... ... : ... .. . ... ... ... : ... .. . ... ... ... : ... .. . ... ... ... : ... .. . ... ... ... : ... .. . ... ... ... : ... .. . ... ... ... : ... .. . ... ... ... : ... .. . ... ... ... : ... .. . ... ... ... : ... .. . ... ... ...
ROW 9A : ... .. . ... ... ... : ... .. . ... ... ... : ... .. . ... ... ... : ... .. . ... ... ... : ... .. . ... ... ... : ... .. . ... ... ... : ... .. . ... ... ... : ... .. . ... ... ... : ... .. . ... ... ... : ... .. . ... ... ... : ... .. . ... ... ... : ... .. . ... ... ... : ... .. . ... ... ...
ROW 9B : ... .. . ... ... ... : ... .. . ... ... ... : ... .. . ... ... ... : ... .. . ... ... ... : ... .. . ... ... ... : ... .. . ... ... ... : ... .. . ... ... ... : ... .. . ... ... ... : ... .. . ... ... ... : ... .. . ... ... ... : ... .. . ... ... ... : ... .. . ... ... ... : ... .. . ... ... ...
ROW 9C : ... .. . ... ... ... : ... .. . ... ... ... : ... .. . ... ... ... : ... .. . ... ... ... : ... .. . ... ... ... : ... .. . ... ... ... : ... .. . ... ... ... : ... .. . ... ... ... : ... .. . ... ... ... : ... .. . ... ... ... : ... .. . ... ... ... : ... .. . ... ... ... : ... .. . ... ... ...
ROW 9D : ... .. . ... ... ... : ... .. . ... ... ... : ... .. . ... ... ... : ... .. . ... ... ... : ... .. . ... ... ... : ... .. . ... ... ... : ... .. . ... ... ... : ... .. . ... ... ... : ... .. . ... ... ... : ... .. . ... ... ... : ... .. . ... ... ... : ... .. . ... ... ... : ... .. . ... ... ...
ROW 9E : ... .. . ... ... ... : ... .. . ... ... ... : ... .. . ... ... ... : ... .. . ... ... ... : ... .. . ... ... ... : ... .. . ... ... ... : ... .. . ... ... ... : ... .. . ... ... ... : ... .. . ... ... ... : ... .. . ... ... ... : ... .. . ... ... ... : ... .. . ... ... ... : ... .. . ... ... ...
ROW 9F : ... .. . ... ... ... : ... .. . ... ... ... : ... .. . ... ... ... : ... .. . ... ... ... : ... .. . ... ... ... : ... .. . ... ... ... : ... .. . ... ... ... : ... .. . ... ... ... : ... .. . ... ... ... : ... .. . ... ... ... : ... .. . ... ... ... : ... .. . ... ... ... : ... .. . ... ... ...
ROW A0 : ... .. . ... ... ... : ... .. . ... ... ... : ... .. . ... ... ... : ... .. . ... ... ... : ... .. . ... ... ... : ... .. . ... ... ... : ... .. . ... ... ... : ... .. . ... ... ... : ... .. . ... ... ... : ... .. . ... ... ... : ... .. . ... ... ... : ... .. . ... ... ... : ... .. . ... ... ...
ROW A1 : ... .. . ... ... ... : ... .. . ... ... ... : ... .. . ... ... ... : ... .. . ... ... ... : ... .. . ... ... ... : ... .. . ... ... ... : ... .. . ... ... ... : ... .. . ... ... ... : ... .. . ... ... ... : ... .. . ... ... ... : ... .. . ... ... ... : ... .. . ... ... ... : ... .. . ... ... ...
ROW A2 : ... .. . ... ... ... : ... .. . ... ... ... : ... .. . ... ... ... : ... .. . ... ... ... : ... .. . ... ... ... : ... .. . ... ... ... : ... .. . ... ... ... : ... .. . ... ... ... : ... .. . ... ... ... : ... .. . ... ... ... : ... .. . ... ... ... : ... .. . ... ... ... : ... .. . ... ... ...
ROW A3 : ... .. . ... ... ... : ... .. . ... ... ... : ... .. . ... ... ... : ... .. . ... ... ... : ... .. . ... ... ... : ... .. . ... ... ... : ... .. . ... ... ... : ... .. . ... ... ... : ... .. . ... ... ... : ... .. . ... ... ... : ... .. . ... ... ... : ... .. . ... ... ... : ... .. . ... ... ...
ROW A4 : ... .. . ... ... ... : ... .. . ... ... ... : ... .. . ... ... ... : ... .. . ... ... ... : ... .. . ... ... ... : ... .. . ... ... ... : ... .. . ... ... ... : ... .. . ... ... ... : ... .. . ... ... ... : ... .. . ... ... ... : ... .. . ... ... ... : ... .. . ... ... ... : ... .. . ... ... ...
ROW A5 : ... .. . ... ... ... : ... .. . ... ... ... : ... .. . ... ... ... : ... .. . ... ... ... : ... .. . ... ... ... : ... .. . ... ... ... : ... .. . ... ... ... : ... .. . ... ... ... : ... .. . ... ... ... : ... .. . ... ... ... : ... .. . ... ... ... : ... .. . ... ... ... : ... .. . ... ... ...
ROW A6 : ... .. . ... ... ... : ... .. . ... ... ... : ... .. . ... ... ... : ... .. . ... ... ... : ... .. . ... ... ... : ... .. . ... ... ... : ... .. . ... ... ... : ... .. . ... ... ... : ... .. . ... ... ... : ... .. . ... ... ... : ... .. . ... ... ... : ... .. . ... ... ... : ... .. . ... ... ...
ROW A7 : ... .. . ... ... ... : ... .. . ... ... ... : ... .. . ... ... ... : ... .. . ... ... ... : ... .. . ... ... ... : ... .. . ... ... ... : ... .. . ... ... ... : ... .. . ... ... ... : ... .. . ... ... ... : ... .. . ... ... ... : ... .. . ... ... ... : ... .. . ... ... ... : ... .. . ... ... ...
ROW A8 : ... .. . ... ... ... : ... .. . ... ... ... : ... .. . ... ... ... : ... .. . ... ... ... : ... .. . ... ... ... : ... .. . ... ... ... : ... .. . ... ... ... : ... .. . ... ... ... : ... .. . ... ... ... : ... .. . ... ... ... : ... .. . ... ... ... : ... .. . ... ... ... : ... .. . ... ... ...
ROW A9 : ... .. . ... ... ... : ... .. . ... ... ... : ... .. . ... ... ... : ... .. . ... ... ... : ... .. . ... ... ... : ... .. . ... ... ... : ... .. . ... ... ... : ... .. . ... ... ... : ... .. . ... ... ... : ... .. . ... ... ... : ... .. . ... ... ... : ... .. . ... ... ... : ... .. . ... ... ...
ROW AA : ... .. . ... ... ... : ... .. . ... ... ... : ... .. . ... ... ... : ... .. . ... ... ... : ... .. . ... ... ... : ... .. . ... ... ... : ... .. . ... ... ... : ... .. . ... ... ... : ... .. . ... ... ... : ... .. . ... ... ... : ... .. . ... ... ... : ... .. . ... ... ... : ... .. . ... ... ...
ROW AB : ... .. . ... ... ... : ... .. . ... ... ... : ... .. . ... ... ... : ... .. . ... ... ... : ... .. . ... ... ... : ... .. . ... ... ... : ... .. . ... ... ... : ... .. . ... ... ... : ... .. . ... ... ... : ... .. . ... ... ... : ... .. . ... ... ... : ... .. . ... ... ... : ... .. . ... ... ...
ROW AC : ... .. . ... ... ... : ... .. . ... ... ... : ... .. . ... ... ... : ... .. . ... ... ... : ... .. . ... ... ... : ... .. . ... ... ... : ... .. . ... ... ... : ... .. . ... ... ... : ... .. . ... ... ... : ... .. . ... ... ... : ... .. . ... ... ... : ... .. . ... ... ... : ... .. . ... ... ...
ROW AD : ... .. . ... ... ... : ... .. . ... ... ... : ... .. . ... ... ... : ... .. . ... ... ... : ... .. . ... ... ... : ... .. . ... ... ... : ... .. . ... ... ... : ... .. . ... ... ... : ... .. . ... ... ... : ... .. . ... ... ... : ... .. . ... ... ... : ... .. . ... ... ... : ... .. . ... ... ...
ROW AE : ... .. . ... ... ... : ... .. . ... ... ... : ... .. . ... ... ... : ... .. . ... ... ... : ... .. . ... ... ... : ... .. . ... ... ... : ... .. . ... ... ... : ... .. . ... ... ... : ... .. . ... ... ... : ... .. . ... ... ... : ... .. . ... ... ... : ... .. . ... ... ... : ... .. . ... ... ...
ROW AF : ... .. . ... ... ... : ... .. . ... ... ... : ... .. . ... ... ... : ... .. . ... ... ... : ... .. . ... ... ... : ... .. . ... ... ... : ... .. . ... ... ... : ... .. . ... ... ... : ... .. . ... ... ... : ... .. . ... ... ... : ... .. . ... ... ... : ... .. . ... ... ... : ... .. . ... ... ...
ROW B0 : ... .. . ... ... ... : ... .. . ... ... ... : ... .. . ... ... ... : ... .. . ... ... ... : ... .. . ... ... ... : ... .. . ... ... ... : ... .. . ... ... ... : ... .. . ... ... ... : ... .. . ... ... ... : ... .. . ... ... ... : ... .. . ... ... ... : ... .. . ... ... ... : ... .. . ... ... ...
ROW B1 : ... .. . ... ... ... : ... .. . ... ... ... : ... .. . ... ... ... : ... .. . ... ... ... : ... .. . ... ... ... : ... .. . ... ... ... : ... .. . ... ... ... : ... .. . ... ... ... : ... .. . ... ... ... : ... .. . ... ... ... : ... .. . ... ... ... : ... .. . ... ... ... : ... .. . ... ... ...
ROW B2 : ... .. . ... ... ... : ... .. . ... ... ... : ... .. . ... ... ... : ... .. . ... ... ... : ... .. . ... ... ... : ... .. . ... ... ... : ... .. . ... ... ... : ... .. . ... ... ... : ... .. . ... ... ... : ... .. . ... ... ... : ... .. . ... ... ... : ... .. . ... ... ... : ... .. . ... ... ...
ROW B3 : ... .. . ... ... ... : ... .. . ... ... ... : ... .. . ... ... ... : ... .. . ... ... ... : ... .. . ... ... ... : ... .. . ... ... ... : ... .. . ... ... ... : ... .. . ... ... ... : ... .. . ... ... ... : ... .. . ... ... ... : ... .. . ... ... ... : ... .. . ... ... ... : ... .. . ... ... ...
ROW B4 : ... .. . ... ... ... : ... .. . ... ... ... : ... .. . ... ... ... : ... .. . ... ... ... : ... .. . ... ... ... : ... .. . ... ... ... : ... .. . ... ... ... : ... .. . ... ... ... : ... .. . ... ... ... : ... .. . ... ... ... : ... .. . ... ... ... : ... .. . ... ... ... : ... .. . ... ... ...
ROW B5 : ... .. . ... ... ... : ... .. . ... ... ... : ... .. . ... ... ... : ... .. . ... ... ... : ... .. . ... ... ... : ... .. . ... ... ... : ... .. . ... ... ... : ... .. . ... ... ... : ... .. . ... ... ... : ... .. . ... ... ... : ... .. . ... ... ... : ... .. . ... ... ... : ... .. . ... ... ...
ROW B6 : ... .. . ... ... ... : ... .. . ... ... ... : ... .. . ... ... ... : ... .. . ... ... ... : ... .. . ... ... ... : ... .. . ... ... ... : ... .. . ... ... ... : ... .. . ... ... ... : ... .. . ... ... ... : ... .. . ... ... ... : ... .. . ... ... ... : ... .. . ... ... ... : ... .. . ... ... ...
ROW B7 : ... .. . ... ... ... : ... .. . ... ... ... : ... .. . ... ... ... : ... .. . ... ... ... : ... .. . ... ... ... : ... .. . ... ... ... : ... .. . ... ... ... : ... .. . ... ... ... : ... .. . ... ... ... : ... .. . ... ... ... : ... .. . ... ... ... : ... .. . ... ... ... : ... .. . ... ... ...
ROW B8 : ... .. . ... ... ... : ... .. . ... ... ... : ... .. . ... ... ... : ... .. . ... ... ... : ... .. . ... ... ... : ... .. . ... ... ... : ... .. . ... ... ... : ... .. . ... ... ... : ... .. . ... ... ... : ... .. . ... ... ... : ... .. . ... ... ... : ... .. . ... ... ... : ... .. . ... ... ...
ROW B9 : ... .. . ... ... ... : ... .. . ... ... ... : ... .. . ... ... ... : ... .. . ... ... ... : ... .. . ... ... ... : ... .. . ... ... ... : ... .. . ... ... ... : ... .. . ... ... ... : ... .. . ... ... ... : ... .. . ... ... ... : ... .. . ... ... ... : ... .. . ... ... ... : ... .. . ... ... ...
ROW BA : ... .. . ... ... ... : ... .. . ... ... ... : ... .. . ... ... ... : ... .. . ... ... ... : ... .. . ... ... ... : ... .. . ... ... ... : ... .. . ... ... ... : ... .. . ... ... ... : ... .. . ... ... ... : ... .. . ... ... ... : ... .. . ... ... ... : ... .. . ... ... ... : ... .. . ... ... ...
ROW BB : ... .. . ... ... ... : ... .. . ... ... ... : ... .. . ... ... ... : ... .. . ... ... ... : ... .. . ... ... ... : ... .. . ... ... ... : ... .. . ... ... ... : ... .. . ... ... ... : ... .. . ... ... ... : ... .. . ... ... ... : ... .. . ... ... ... : ... .. . ... ... ... : ... .. . ... ... ...
ROW BC : ... .. . ... ... ... : ... .. . ... ... ... : ... .. . ... ... ... : ... .. . ... ... ... : ... .. . ... ... ... : ... .. . ... ... ... : ... .. . ... ... ... : ... .. . ... ... ... : ... .. . ... ... ... : ... .. . ... ... ... : ... .. . ... ... ... : ... .. . ... ... ... : ... .. . ... ... ...
ROW BD : ... .. . ... ... ... : ... .. . ... ... ... : ... .. . ... ... ... : ... .. . ... ... ... : ... .. . ... ... ... : ... .. . ... ... ... : ... .. . ... ... ... : ... .. . ... ... ... : ... .. . ... ... ... : ... .. . ... ... ... : ... .. . ... ... ... : ... .. . ... ... ... : ... .. . ... ... ...
ROW BE : ... .. . ... ... ... : ... .. . ... ... ... : ... .. . ... ... ... : ... .. . ... ... ... : ... .. . ... ... ... : ... .. . ... ... ... : ... .. . ... ... ... : ... .. . ... ... ... : ... .. . ... ... ... : ... .. . ... ... ... : ... .. . ... ... ... : ... .. . ... ... ... : ... .. . ... ... ...
ROW BF : ... .. . ... ... ... : ... .. . ... ... ... : ... .. . ... ... ... : ... .. . ... ... ... : ... .. . ... ... ... : ... .. . ... ... ... : ... .. . ... ... ... : ... .. . ... ... ... : ... .. . ... ... ... : ... .. . ... ... ... : ... .. . ... ... ... : ... .. . ... ... ... : ... .. . ... ... ...
ROW C0 : ... .. . ... ... ... : ... .. . ... ... ... : ... .. . ... ... ... : ... .. . ... ... ... : ... .. . ... ... ... : ... .. . ... ... ... : ... .. . ... ... ... : ... .. . ... ... ... : ... .. . ... ... ... : ... .. . ... ... ... : ... .. . ... ... ... : ... .. . ... ... ... : ... .. . ... ... ...
ROW C1 : ... .. . ... ... ... : ... .. . ... ... ... : ... .. . ... ... ... : ... .. . ... ... ... : ... .. . ... ... ... : ... .. . ... ... ... : ... .. . ... ... ... : ... .. . ... ... ... : ... .. . ... ... ... : ... .. . ... ... ... : ... .. . ... ... ... : ... .. . ... ... ... : ... .. . ... ... ...
ROW C2 : ... .. . ... ... ... : ... .. . ... ... ... : ... .. . ... ... ... : ... .. . ... ... ... : ... .. . ... ... ... : ... .. . ... ... ... : ... .. . ... ... ... : ... .. . ... ... ... : ... .. . ... ... ... : ... .. . ... ... ... : ... .. . ... ... ... : ... .. . ... ... ... : ... .. . ... ... ...
ROW C3 : ... .. . ... ... ... : ... .. . ... ... ... : ... .. . ... ... ... : ... .. . ... ... ... : ... .. . ... ... ... : ... .. . ... ... ... : ... .. . ... ... ... : ... .. . ... ... ... : ... .. . ... ... ... : ... .. . ... ... ... : ... .. . ... ... ... : ... .. . ... ... ... : ... .. . ... ... ...
ROW C4 : ... .. . ... ... ... : ... .. . ... ... ... : ... .. . ... ... ... : ... .. . ... ... ... : ... .. . ... ... ... : ... .. . ... ... ... : ... .. . ... ... ... : ... .. . ... ... ... : ... .. . ... ... ... : ... .. . ... ... ... : ... .. . ... ... ... : ... .. . ... ... ... : ... .. . ... ... ...
ROW C5 : ... .. . ... ... ... : ... .. . ... ... ... : ... .. . ... ... ... : ... .. . ... ... ... : ... .. . ... ... ... : ... .. . ... ... ... : ... .. . ... ... ... : ... .. . ... ... ... : ... .. . ... ... ... : ... .. . ... ... ... : ... .. . ... ... ... : ... .. . ... ... ... : ... .. . ... ... ...
ROW C6 : ... .. . ... ... ... : ... .. . ... ... ... : ... .. . ... ... ... : ... .. . ... ... ... : ... .. . ... ... ... : ... .. . ... ... ... : ... .. . ... ... ... : ... .. . ... ... ... : ... .. . ... ... ... : ... .. . ... ... ... : ... .. . ... ... ... : ... .. . ... ... ... : ... .. . ... ... ...
ROW C7 : ... .. . ... ... ... : ... .. . ... ... ... : ... .. . ... ... ... : ... .. . ... ... ... : ... .. . ... ... ... : ... .. . ... ... ... : ... .. . ... ... ... : ... .. . ... ... ... : ... .. . ... ... ... : ... .. . ... ... ... : ... .. . ... ... ... : ... .. . ... ... ... : ... .. . ... ... ...
ROW C8 : ... .. . ... ... ... : ... .. . ... ... ... : ... .. . ... ... ... : ... .. . ... ... ... : ... .. . ... ... ... : ... .. . ... ... ... : ... .. . ... ... ... : ... .. . ... ... ... : ... .. . ... ... ... : ... .. . ... ... ... : ... .. . ... ... ... : ... .. . ... ... ... : ... .. . ... ... ...
ROW C9 : ... .. . ... ... ... : ... .. . ... ... ... : ... .. . ... ... ... : ... .. . ... ... ... : ... .. . ... ... ... : ... .. . ... ... ... : ... .. . ... ... ... : ... .. . ... ... ... : ... .. . ... ... ... : ... .. . ... ... ... : ... .. . ... ... ... : ... .. . ... ... ... : ... .. . ... ... ...
ROW CA : ... .. . ... ... ... : ... .. . ... ... ... : ... .. . ... ... ... : ... .. . ... ... ... : ... .. . ... ... ... : ... .. . ... ... ... : ... .. . ... ... ... : ... .. . ... ... ... : ... .. . ... ... ... : ... .. . ... ... ... : ... .. . ... ... ... : ... .. . ... ... ... : ... .. . ... ... ...
ROW CB : ... .. . ... ... ... : ... .. . ... ... ... : ... .. . ... ... ... : ... .. . ... ... ... : ... .. . ... ... ... : ... .. . ... ... ... : ... .. . ... ... ... : ... .. . ... ... ... : ... .. . ... ... ... : ... .. . ... ... ... : ... .. . ... ... ... : ... .. . ... ... ... : ... .. . ... ... ...
ROW CC : ... .. . ... ... ... : ... .. . ... ... ... : ... .. . ... ... ... : ... .. . ... ... ... : ... .. . ... ... ... : ... .. . ... ... ... : ... .. . ... ... ... : ... .. . ... ... ... : ... .. . ... ... ... : ... .. . ... ... ... : ... .. . ... ... ... : ... .. . ... ... ... : ... .. . ... ... ...
ROW CD : ... .. . ... ... ... : ... .. . ... ... ... : ... .. . ... ... ... : ... .. . ... ... ... : ... .. . ... ... ... : ... .. . ... ... ... : ... .. . ... ... ... : ... .. . ... ... ... : ... .. . ... ... ... : ... .. . ... ... ... : ... .. . ... ... ... : ... .. . ... ... ... : ... .. . ... ... ...
ROW CE : ... .. . ... ... ... : ... .. . ... ... ... : ... .. . ... ... ... : ... .. . ... ... ... : ... .. . ... ... ... : ... .. . ... ... ... : ... .. . ... ... ... : ... .. . ... ... ... : ... .. . ... ... ... : ... .. . ... ... ... : ... .. . ... ... ... : ... .. . ... ... ... : ... .. . ... ... ...
ROW CF : ... .. . ... ... ... : ... .. . ... ... ... : ... .. . ... ... ... : ... .. . ... ... ... : ... .. . ... ... ... : ... .. . ... ... ... : ... .. . ... ... ... : ... .. . ... ... ... : ... .. . ... ... ... : ... .. . ... ... ... : ... .. . ... ... ... : ... .. . ... ... ... : ... .. . ... ... ...
ROW D0 : ... .. . ... ... ... : ... .. . ... ... ... : ... .. . ... ... ... : ... .. . ... ... ... : ... .. . ... ... ... : ... .. . ... ... ... : ... .. . ... ... ... : ... .. . ... ... ... : ... .. . ... ... ... : ... .. . ... ... ... : ... .. . ... ... ... : ... .. . ... ... ... : ... .. . ... ... ...
ROW D1 : ... .. . ... ... ... : ... .. . ... ... ... : ... .. . ... ... ... : ... .. . ... ... ... : ... .. . ... ... ... : ... .. . ... ... ... : ... .. . ... ... ... : ... .. . ... ... ... : ... .. . ... ... ... : ... .. . ... ... ... : ... .. . ... ... ... : ... .. . ... ... ... : ... .. . ... ... ...
ROW D2 : ... .. . ... ... ... : ... .. . ... ... ... : ... .. . ... ... ... : ... .. . ... ... ... : ... .. . ... ... ... : ... .. . ... ... ... : ... .. . ... ... ... : ... .. . ... ... ... : ... .. . ... ... ... : ... .. . ... ... ... : ... .. . ... ... ... : ... .. . ... ... ... : ... .. . ... ... ...
ROW D3 : ... .. . ... ... ... : ... .. . ... ... ... : ... .. . ... ... ... : ... .. . ... ... ... : ... .. . ... ... ... : ... .. . ... ... ... : ... .. . ... ... ... : ... .. . ... ... ... : ... .. . ... ... ... : ... .. . ... ... ... : ... .. . ... ... ... : ... .. . ... ... ... : ... .. . ... ... ...
ROW D4 : ... .. . ... ... ... : ... .. . ... ... ... : ... .. . ... ... ... : ... .. . ... ... ... : ... .. . ... ... ... : ... .. . ... ... ... : ... .. . ... ... ... : ... .. . ... ... ... : ... .. . ... ... ... : ... .. . ... ... ... : ... .. . ... ... ... : ... .. . ... ... ... : ... .. . ... ... ...
ROW D5 : ... .. . ... ... ... : ... .. . ... ... ... : ... .. . ... ... ... : ... .. . ... ... ... : ... .. . ... ... ... : ... .. . ... ... ... : ... .. . ... ... ... : ... .. . ... ... ... : ... .. . ... ... ... : ... .. . ... ... ... : ... .. . ... ... ... : ... .. . ... ... ... : ... .. . ... ... ...
ROW D6 : ... .. . ... ... ... : ... .. . ... ... ... : ... .. . ... ... ... : ... .. . ... ... ... : ... .. . ... ... ... : ... .. . ... ... ... : ... .. . ... ... ... : ... .. . ... ... ... : ... .. . ... ... ... : ... .. . ... ... ... : ... .. . ... ... ... : ... .. . ... ... ... : ... .. . ... ... ...
ROW D7 : ... .. . ... ... ... : ... .. . ... ... ... : ... .. . ... ... ... : ... .. . ... ... ... : ... .. . ... ... ... : ... .. . ... ... ... : ... .. . ... ... ... : ... .. . ... ... ... : ... .. . ... ... ... : ... .. . ... ... ... : ... .. . ... ... ... : ... .. . ... ... ... : ... .. . ... ... ...
ROW D8 : ... .. . ... ... ... : ... .. . ... ... ... : ... .. . ... ... ... : ... .. . ... ... ... : ... .. . ... ... ... : ... .. . ... ... ... : ... .. . ... ... ... : ... .. . ... ... ... : ... .. . ... ... ... : ... .. . ... ... ... : ... .. . ... ... ... : ... .. . ... ... ... : ... .. . ... ... ...
ROW D9 : ... .. . ... ... ... : ... .. . ... ... ... : ... .. . ... ... ... : ... .. . ... ... ... : ... .. . ... ... ... : ... .. . ... ... ... : ... .. . ... ... ... : ... .. . ... ... ... : ... .. . ... ... ... : ... .. . ... ... ... : ... .. . ... ... ... : ... .. . ... ... ... : ... .. . ... ... ...
ROW DA : ... .. . ... ... ... : ... .. . ... ... ... : ... .. . ... ... ... : ... .. . ... ... ... : ... .. . ... ... ... : ... .. . ... ... ... : ... .. . ... ... ... : ... .. . ... ... ... : ... .. . ... ... ... : ... .. . ... ... ... : ... .. . ... ... ... : ... .. . ... ... ... : ... .. . ... ... ...
ROW DB : ... .. . ... ... ... : ... .. . ... ... ... : ... .. . ... ... ... : ... .. . ... ... ... : ... .. . ... ... ... : ... .. . ... ... ... : ... .. . ... ... ... : ... .. . ... ... ... : ... .. . ... ... ... : ... .. . ... ... ... : ... .. . ... ... ... : ... .. . ... ... ... : ... .. . ... ... ...
ROW DC : ... .. . ... ... ... : ... .. . ... ... ... : ... .. . ... ... ... : ... .. . ... ... ... : ... .. . ... ... ... : ... .. . ... ... ... : ... .. . ... ... ... : ... .. . ... ... ... : ... .. . ... ... ... : ... .. . ... ... ... : ... .. . ... ... ... : ... .. . ... ... ... : ... .. . ... ... ...
ROW DD : ... .. . ... ... ... : ... .. . ... ... ... : ... .. . ... ... ... : ... .. . ... ... ... : ... .. . ... ... ... : ... .. . ... ... ... : ... .. . ... ... ... : ... .. . ... ... ... : ... .. . ... ... ... : ... .. . ... ... ... : ... .. . ... ... ... : ... .. . ... ... ... : ... .. . ... ... ...
ROW DE : ... .. . ... ... ... : ... .. . ... ... ... : ... .. . ... ... ... : ... .. . ... ... ... : ... .. . ... ... ... : ... .. . ... ... ... : ... .. . ... ... ... : ... .. . ... ... ... : ... .. . ... ... ... : ... .. . ... ... ... : ... .. . ... ... ... : ... .. . ... ... ... : ... .. . ... ... ...
ROW DF : ... .. . ... ... ... : ... .. . ... ... ... : ... .. . ... ... ... : ... .. . ... ... ... : ... .. . ... ... ... : ... .. . ... ... ... : ... .. . ... ... ... : ... .. . ... ... ... : ... .. . ... ... ... : ... .. . ... ... ... : ... .. . ... ... ... : ... .. . ... ... ... : ... .. . ... ... ...
ROW E0 : ... .. . ... ... ... : ... .. . ... ... ... : ... .. . ... ... ... : ... .. . ... ... ... : ... .. . ... ... ... : ... .. . ... ... ... : ... .. . ... ... ... : ... .. . ... ... ... : ... .. . ... ... ... : ... .. . ... ... ... : ... .. . ... ... ... : ... .. . ... ... ... : ... .. . ... ... ...
ROW E1 : ... .. . ... ... ... : ... .. . ... ... ... : ... .. . ... ... ... : ... .. . ... ... ... : ... .. . ... ... ... : ... .. . ... ... ... : ... .. . ... ... ... : ... .. . ... ... ... : ... .. . ... ... ... : ... .. . ... ... ... : ... .. . ... ... ... : ... .. . ... ... ... : ... .. . ... ... ...
ROW E2 : ... .. . ... ... ... : ... .. . ... ... ... : ... .. . ... ... ... : ... .. . ... ... ... : ... .. . ... ... ... : ... .. . ... ... ... : ... .. . ... ... ... : ... .. . ... ... ... : ... .. . ... ... ... : ... .. . ... ... ... : ... .. . ... ... ... : ... .. . ... ... ... : ... .. . ... ... ...
ROW E3 : ... .. . ... ... ... : ... .. . ... ... ... : ... .. . ... ... ... : ... .. . ... ... ... : ... .. . ... ... ... : ... .. . ... ... ... : ... .. . ... ... ... : ... .. . ... ... ... : ... .. . ... ... ... : ... .. . ... ... ... : ... .. . ... ... ... : ... .. . ... ... ... : ... .. . ... ... ...
ROW E4 : ... .. . ... ... ... : ... .. . ... ... ... : ... .. . ... ... ... : ... .. . ... ... ... : ... .. . ... ... ... : ... .. . ... ... ... : ... .. . ... ... ... : ... .. . ... ... ... : ... .. . ... ... ... : ... .. . ... ... ... : ... .. . ... ... ... : ... .. . ... ... ... : ... .. . ... ... ...
ROW E5 : ... .. . ... ... ... : ... .. . ... ... ... : ... .. . ... ... ... : ... .. . ... ... ... : ... .. . ... ... ... : ... .. . ... ... ... : ... .. . ... ... ... : ... .. . ... ... ... : ... .. . ... ... ... : ... .. . ... ... ... : ... .. . ... ... ... : ... .. . ... ... ... : ... .. . ... ... ...
ROW E6 : ... .. . ... ... ... : ... .. . ... ... ... : ... .. . ... ... ... : ... .. . ... ... ... : ... .. . ... ... ... : ... .. . ... ... ... : ... .. . ... ... ... : ... .. . ... ... ... : ... .. . ... ... ... : ... .. . ... ... ... : ... .. . ... ... ... : ... .. . ... ... ... : ... .. . ... ... ...
ROW E7 : ... .. . ... ... ... : ... .. . ... ... ... : ... .. . ... ... ... : ... .. . ... ... ... : ... .. . ... ... ... : ... .. . ... ... ... : ... .. . ... ... ... : ... .. . ... ... ... : ... .. . ... ... ... : ... .. . ... ... ... : ... .. . ... ... ... : ... .. . ... ... ... : ... .. . ... ... ...
ROW E8 : ... .. . ... ... ... : ... .. . ... ... ... : ... .. . ... ... ... : ... .. . ... ... ... : ... .. . ... ... ... : ... .. . ... ... ... : ... .. . ... ... ... : ... .. . ... ... ... : ... .. . ... ... ... : ... .. . ... ... ... : ... .. . ... ... ... : ... .. . ... ... ... : ... .. . ... ... ...
ROW E9 : ... .. . ... ... ... : ... .. . ... ... ... : ... .. . ... ... ... : ... .. . ... ... ... : ... .. . ... ... ... : ... .. . ... ... ... : ... .. . ... ... ... : ... .. . ... ... ... : ... .. . ... ... ... : ... .. . ... ... ... : ... .. . ... ... ... : ... .. . ... ... ... : ... .. . ... ... ...
ROW EA : ... .. . ... ... ... : ... .. . ... ... ... : ... .. . ... ... ... : ... .. . ... ... ... : ... .. . ... ... ... : ... .. . ... ... ... : ... .. . ... ... ... : ... .. . ... ... ... : ... .. . ... ... ... : ... .. . ... ... ... : ... .. . ... ... ... : ... .. . ... ... ... : ... .. . ... ... ...
ROW EB : ... .. . ... ... ... : ... .. . ... ... ... : ... .. . ... ... ... : ... .. . ... ... ... : ... .. . ... ... ... : ... .. . ... ... ... : ... .. . ... ... ... : ... .. . ... ... ... : ... .. . ... ... ... : ... .. . ... ... ... : ... .. . ... ... ... : ... .. . ... ... ... : ... .. . ... ... ...
ROW EC : ... .. . ... ... ... : ... .. . ... ... ... : ... .. . ... ... ... : ... .. . ... ... ... : ... .. . ... ... ... : ... .. . ... ... ... : ... .. . ... ... ... : ... .. . ... ... ... : ... .. . ... ... ... : ... .. . ... ... ... : ... .. . ... ... ... : ... .. . ... ... ... : ... .. . ... ... ...
ROW ED : ... .. . ... ... ... : ... .. . ... ... ... : ... .. . ... ... ... : ... .. . ... ... ... : ... .. . ... ... ... : ... .. . ... ... ... : ... .. . ... ... ... : ... .. . ... ... ... : ... .. . ... ... ... : ... .. . ... ... ... : ... .. . ... ... ... : ... .. . ... ... ... : ... .. . ... ... ...
ROW EE : ... .. . ... ... ... : ... .. . ... ... ... : ... .. . ... ... ... : ... .. . ... ... ... : ... .. . ... ... ... : ... .. . ... ... ... : ... .. . ... ... ... : ... .. . ... ... ... : ... .. . ... ... ... : ... .. . ... ... ... : ... .. . ... ... ... : ... .. . ... ... ... : ... .. . ... ... ...
ROW EF : ... .. . ... ... ... : ... .. . ... ... ... : ... .. . ... ... ... : ... .. . ... ... ... : ... .. . ... ... ... : ... .. . ... ... ... : ... .. . ... ... ... : ... .. . ... ... ... : ... .. . ... ... ... : ... .. . ... ... ... : ... .. . ... ... ... : ... .. . ... ... ... : ... .. . ... ... ...
ROW F0 : ... .. . ... ... ... : ... .. . ... ... ... : ... .. . ... ... ... : ... .. . ... ... ... : ... .. . ... ... ... : ... .. . ... ... ... : ... .. . ... ... ... : ... .. . ... ... ... : ... .. . ... ... ... : ... .. . ... ... ... : ... .. . ... ... ... : ... .. . ... ... ... : ... .. . ... ... ...
ROW F1 : ... .. . ... ... ... : ... .. . ... ... ... : ... .. . ... ... ... : ... .. . ... ... ... : ... .. . ... ... ... : ... .. . ... ... ... : ... .. . ... ... ... : ... .. . ... ... ... : ... .. . ... ... ... : ... .. . ... ... ... : ... .. . ... ... ... : ... .. . ... ... ... : ... .. . ... ... ...
ROW F2 : ... .. . ... ... ... : ... .. . ... ... ... : ... .. . ... ... ... : ... .. . ... ... ... : ... .. . ... ... ... : ... .. . ... ... ... : ... .. . ... ... ... : ... .. . ... ... ... : ... .. . ... ... ... : ... .. . ... ... ... : ... .. . ... ... ... : ... .. . ... ... ... : ... .. . ... ... ...
ROW F3 : ... .. . ... ... ... : ... .. . ... ... ... : ... .. . ... ... ... : ... .. . ... ... ... : ... .. . ... ... ... : ... .. . ... ... ... : ... .. . ... ... ... : ... .. . ... ... ... : ... .. . ... ... ... : ... .. . ... ... ... : ... .. . ... ... ... : ... .. . ... ... ... : ... .. . ... ... ...
ROW F4 : ... .. . ... ... ... : ... .. . ... ... ... : ... .. . ... ... ... : ... .. . ... ... ... : ... .. . ... ... ... : ... .. . ... ... ... : ... .. . ... ... ... : ... .. . ... ... ... : ... .. . ... ... ... : ... .. . ... ... ... : ... .. . ... ... ... : ... .. . ... ... ... : ... .. . ... ... ...
ROW F5 : ... .. . ... ... ... : ... .. . ... ... ... : ... .. . ... ... ... : ... .. . ... ... ... : ... .. . ... ... ... : ... .. . ... ... ... : ... .. . ... ... ... : ... .. . ... ... ... : ... .. . ... ... ... : ... .. . ... ... ... : ... .. . ... ... ... : ... .. . ... ... ... : ... .. . ... ... ...
ROW F6 : ... .. . ... ... ... : ... .. . ... ... ... : ... .. . ... ... ... : ... .. . ... ... ... : ... .. . ... ... ... : ... .. . ... ... ... : ... .. . ... ... ... : ... .. . ... ... ... : ... .. . ... ... ... : ... .. . ... ... ... : ... .. . ... ... ... : ... .. . ... ... ... : ... .. . ... ... ...
ROW F7 : ... .. . ... ... ... : ... .. . ... ... ... : ... .. . ... ... ... : ... .. . ... ... ... : ... .. . ... ... ... : ... .. . ... ... ... : ... .. . ... ... ... : ... .. . ... ... ... : ... .. . ... ... ... : ... .. . ... ... ... : ... .. . ... ... ... : ... .. . ... ... ... : ... .. . ... ... ...
ROW F8 : ... .. . ... ... ... : ... .. . ... ... ... : ... .. . ... ... ... : ... .. . ... ... ... : ... .. . ... ... ... : ... .. . ... ... ... : ... .. . ... ... ... : ... .. . ... ... ... : ... .. . ... ... ... : ... .. . ... ... ... : ... .. . ... ... ... : ... .. . ... ... ... : ... .. . ... ... ...
ROW F9 : ... .. . ... ... ... : ... .. . ... ... ... : ... .. . ... ... ... : ... .. . ... ... ... : ... .. . ... ... ... : ... .. . ... ... ... : ... .. . ... ... ... : ... .. . ... ... ... : ... .. . ... ... ... : ... .. . ... ... ... : ... .. . ... ... ... : ... .. . ... ... ... : ... .. . ... ... ...
ROW FA : ... .. . ... ... ... : ... .. . ... ... ... : ... .. . ... ... ... : ... .. . ... ... ... : ... .. . ... ... ... : ... .. . ... ... ... : ... .. . ... ... ... : ... .. . ... ... ... : ... .. . ... ... ... : ... .. . ... ... ... : ... .. . ... ... ... : ... .. . ... ... ... : ... .. . ... ... ...
ROW FB : ... .. . ... ... ... : ... .. . ... ... ... : ... .. . ... ... ... : ... .. . ... ... ... : ... .. . ... ... ... : ... .. . ... ... ... : ... .. . ... ... ... : ... .. . ... ... ... : ... .. . ... ... ... : ... .. . ... ... ... : ... .. . ... ... ... : ... .. . ... ... ... : ... .. . ... ... ...
ROW FC : ... .. . ... ... ... : ... .. . ... ... ... : ... .. . ... ... ... : ... .. . ... ... ... : ... .. . ... ... ... : ... .. . ... ... ... : ... .. . ... ... ... : ... .. . ... ... ... : ... .. . ... ... ... : ... .. . ... ... ... : ... .. . ... ... ... : ... .. . ... ... ... : ... .. . ... ... ...
ROW FD : ... .. . ... ... ... : ... .. . ... ... ... : ... .. . ... ... ... : ... .. . ... ... ... : ... .. . ... ... ... : ... .. . ... ... ... : ... .. . ... ... ... : ... .. . ... ... ... : ... .. . ... ... ... : ... .. . ... ... ... : ... .. . ... ... ... : ... .. . ... ... ... : ... .. . ... ... ...
ROW FE : ... .. . ... ... ... : ... .. . ... ... ... : ... .. . ... ... ... : ... .. . ... ... ... : ... .. . ... ... ... : ... .. . ... ... ... : ... .. . ... ... ... : ... .. . ... ... ... : ... .. . ... ... ... : ... .. . ... ... ... : ... .. . ... ... ... : ... .. . ... ... ... : ... .. . ... ... ...
ROW FF : ... .. . ... ... ... : ... .. . B00 ... ... : ... .. . B00 ... ... : ... .. . B00 ... ... : ... .. . B00 ... ... : ... .. . B00 ... ... : ... .. . B00 ... ... : ... .. . B00 ... ... : ... .. . B00 ... ... : ... .. . ... ... ... : ... .. . ... ... ... : ... .. . ... ... ... : ... .. . ... ... ...

# End of export
