# FamiTracker text export 0.4.2

# Song information
TITLE           "Macro"
AUTHOR          "ipi"
COPYRIGHT       "25/04/2015"

# Song comment
COMMENT         ""
# Global settings
MACHINE         0
FRAMERATE       0
EXPANSION       8
VIBRATO         1
SPLIT           32

# Macros
MACRO       4    0   -1   -1   0 : 1
MACRO       4    1   -1   -1   0 : 2

# Instruments
INST2A03   0    -1  -1  -1  -1  -1 "Duty 0"
INST2A03   1    -1  -1  -1  -1   0 "Duty 1"
INST2A03   2    -1  -1  -1  -1   1 "Duty 2"

# Tracks
TRACK 256   1 150 "Song 1"
COLUMNS : 3 3 3 3 3 3 3

ORDER 00 : 00 00 00 00 00 00 00
ORDER 01 : 01 01 01 01 00 01 01
ORDER 02 : 02 02 02 02 00 02 02
ORDER 03 : 03 03 03 03 00 03 03
ORDER 04 : 04 04 04 04 00 04 04
ORDER 05 : 05 05 05 05 00 05 05
ORDER 06 : 06 06 06 06 00 06 06
ORDER 07 : 07 07 07 07 00 07 07
ORDER 08 : 08 08 08 08 00 08 08
ORDER 09 : 09 09 09 09 00 09 09
ORDER 0A : 0A 0A 0A 0A 00 0A 0A
ORDER 0B : 0B 0B 0B 0B 00 0B 0B
ORDER 0C : 0C 0C 0C 0C 00 0B 0B

PATTERN 00
ROW 00 : D#3 02 7 ... ... ... : D#2 02 7 ... ... ... : E-4 00 . ... ... ... : A-# 00 C ... ... ... : ... .. . ... ... ... : ... .. . ... ... ... : A#2 00 3 P82 ... ...
ROW 01 : ... .. . ... ... ... : ... .. . ... ... ... : A#3 00 . P87 ... ... : B-# 00 . ... ... ... : ... .. . ... ... ... : ... .. . ... ... ... : ... .. 4 ... ... ...
ROW 02 : ... .. . ... ... ... : E-1 02 6 ... ... ... : F#3 00 . P86 ... ... : A-# 01 B ... ... ... : ... .. . ... ... ... : ... .. . ... ... ... : ... .. . ... ... ...
ROW 03 : ... .. 8 ... ... ... : D#1 02 . ... ... ... : D#2 00 . P80 ... ... : A-# 00 A ... ... ... : ... .. . ... ... ... : D#3 01 5 P81 ... ... : ... .. 5 ... ... ...
ROW 04 : D#3 00 . ... ... ... : ... .. . ... ... ... : ... .. . ... ... ... : ... .. . ... ... ... : ... .. . ... ... ... : D#3 02 . ... ... ... : ... .. . ... ... ...
ROW 05 : ... .. . ... ... ... : ... .. . ... ... ... : ... .. . ... ... ... : ... .. . ... ... ... : ... .. . ... ... ... : ... .. 4 ... ... ... : ... .. . ... ... ...
ROW 06 : ... .. . ... ... ... : ... .. 7 ... ... ... : --- .. . ... ... ... : A-# 01 9 ... ... ... : ... .. . ... ... ... : ... .. 5 ... ... ... : ... .. 6 ... ... ...
ROW 07 : ... .. . ... ... ... : ... .. . ... ... ... : ... .. . ... ... ... : A-# 00 . ... ... ... : ... .. . ... ... ... : ... .. . ... ... ... : ... .. . ... ... ...
ROW 08 : ... .. 9 ... ... ... : ... .. . ... ... ... : ... .. . ... ... ... : ... .. . ... ... ... : ... .. . ... ... ... : ... .. 4 ... ... ... : D#3 00 7 ... ... ...
ROW 09 : ... .. . ... ... ... : ... .. 6 ... ... ... : ... .. . ... ... ... : A-# 01 8 ... ... ... : ... .. . ... ... ... : ... .. . ... ... ... : ... .. . ... ... ...
ROW 0A : ... .. . ... ... ... : ... .. 5 ... ... ... : ... .. . ... ... ... : A-# 00 . ... ... ... : ... .. . ... ... ... : ... .. . ... ... ... : ... .. . ... ... ...
ROW 0B : ... .. . ... ... ... : D#2 01 9 ... ... ... : D#3 00 . ... ... ... : ... .. . ... ... ... : ... .. . ... ... ... : ... .. 3 ... ... ... : ... .. . ... ... ...
ROW 0C : ... .. . ... ... ... : ... .. . ... ... ... : D#2 00 . ... ... ... : ... .. 7 ... ... ... : ... .. . ... ... ... : ... .. . ... ... ... : ... .. . ... ... ...
ROW 0D : ... .. . ... ... ... : E-1 01 8 ... ... ... : ... .. . ... ... ... : A-# 01 . ... ... ... : ... .. . ... ... ... : ... .. . ... ... ... : ... .. 6 ... ... ...
ROW 0E : ... .. . ... ... ... : D#1 01 . ... ... ... : ... .. . ... ... ... : 9-# 00 . ... ... ... : ... .. . ... ... ... : ... .. 2 ... ... ... : ... .. . ... ... ...
ROW 0F : ... .. . ... ... ... : ... .. . ... ... ... : ... .. . ... ... ... : ... .. . ... ... ... : ... .. . ... ... ... : ... .. . ... ... ... : ... .. . ... ... ...
ROW 10 : ... .. . ... ... ... : ... .. 7 ... ... ... : --- .. . ... ... ... : 9-# 01 . ... ... ... : ... .. . ... ... ... : ... .. . ... ... ... : A#2 00 . ... ... ...
ROW 11 : ... .. . ... ... ... : ... .. 8 ... ... ... : ... .. . ... ... ... : 9-# 00 . ... ... ... : ... .. . ... ... ... : ... .. 1 ... ... ... : ... .. 5 ... ... ...
ROW 12 : ... .. . ... ... ... : ... .. 7 ... ... ... : ... .. . ... ... ... : ... .. 6 ... ... ... : ... .. . ... ... ... : ... .. . ... ... ... : ... .. . ... ... ...
ROW 13 : ... .. . ... ... ... : ... .. . ... ... ... : ... .. . ... ... ... : ... .. . ... ... ... : ... .. . ... ... ... : ... .. . ... ... ... : ... .. . ... ... ...
ROW 14 : ... .. . ... ... ... : ... .. 6 ... ... ... : ... .. . ... ... ... : 9-# 01 . ... ... ... : ... .. . ... ... ... : ... .. . ... ... ... : ... .. . ... ... ...
ROW 15 : ... .. 8 ... ... ... : D#2 00 7 ... ... ... : C-4 00 . P7F ... ... : A-# 00 A ... ... ... : ... .. . ... ... ... : F#3 01 4 ... ... ... : ... .. 3 ... ... ...
ROW 16 : ... .. . P82 ... ... : ... .. . ... ... ... : ... .. . ... ... ... : 5-# 01 9 ... ... ... : ... .. . ... ... ... : ... .. . ... ... ... : ... .. . ... ... ...
ROW 17 : ... .. . P83 ... ... : E-1 00 6 ... ... ... : A#2 00 . P88 ... ... : 6-# 01 8 ... ... ... : ... .. . ... ... ... : D#3 01 3 ... ... ... : ... .. . ... ... ...
ROW 18 : ... .. . P85 ... ... : D#1 00 7 ... ... ... : D#2 00 . P80 ... ... : 7-# 01 7 ... ... ... : ... .. . ... ... ... : ... .. . ... ... ... : D#3 00 . ... ... ...
ROW 19 : ... .. . P86 ... ... : ... .. . ... ... ... : ... .. . ... ... ... : 8-# 01 . ... ... ... : ... .. . ... ... ... : D#3 02 . ... ... ... : ... .. . ... ... ...
ROW 1A : ... .. 9 P87 ... ... : ... .. . ... ... ... : --- .. . ... ... ... : 9-# 00 . ... ... ... : ... .. . ... ... ... : A-3 01 5 ... ... ... : ... .. . ... ... ...
ROW 1B : ... .. . P88 ... ... : ... .. . ... ... ... : ... .. . ... ... ... : 9-# 01 . ... ... ... : ... .. . ... ... ... : ... .. . ... ... ... : ... .. . ... ... ...
ROW 1C : ... .. . P89 ... ... : ... .. . ... ... ... : ... .. . ... ... ... : 9-# 00 6 ... ... ... : ... .. . ... ... ... : F#3 01 4 ... ... ... : ... .. . ... ... ...
ROW 1D : ... .. . ... ... ... : ... .. . ... ... ... : ... .. . ... ... ... : 9-# 01 . ... ... ... : ... .. . ... ... ... : ... .. . ... ... ... : ... .. . ... ... ...
ROW 1E : ... .. . ... ... ... : ... .. 6 ... ... ... : ... .. . ... ... ... : 9-# 00 . ... ... ... : ... .. . ... ... ... : F#3 02 . ... ... ... : ... .. . ... ... ...
ROW 1F : ... .. . P88 ... ... : ... .. 5 ... ... ... : ... .. . ... ... ... : ... .. . ... ... ... : ... .. . ... ... ... : ... .. . ... ... ... : ... .. . ... ... ...
ROW 20 : ... .. 7 P87 ... ... : D#2 02 9 ... ... ... : D#3 00 . ... ... ... : E-# 00 7 ... ... ... : ... .. . ... ... ... : C#4 01 5 ... ... ... : A#2 00 . ... ... ...
ROW 21 : ... .. . P86 ... ... : ... .. . ... ... ... : D#2 00 . ... ... ... : B-# 01 . ... ... ... : ... .. . ... ... ... : ... .. . ... ... ... : ... .. 4 ... ... ...
ROW 22 : ... .. 6 P85 ... ... : E-1 02 8 ... ... ... : ... .. . ... ... ... : C-# 00 6 ... ... ... : ... .. . ... ... ... : A#3 01 4 ... ... ... : ... .. . ... ... ...
ROW 23 : ... .. . P83 ... ... : D#1 02 . ... ... ... : ... .. . ... ... ... : D-# 00 5 ... ... ... : ... .. . ... ... ... : ... .. . ... ... ... : ... .. . ... ... ...
ROW 24 : ... .. 5 P82 ... ... : ... .. . ... ... ... : ... .. . ... ... ... : C-# 00 4 ... ... ... : ... .. . ... ... ... : A#3 02 . ... ... ... : ... .. 5 ... ... ...
ROW 25 : ... .. 4 P80 ... ... : ... .. 7 ... ... ... : --- .. . ... ... ... : E-# 00 5 ... ... ... : ... .. . ... ... ... : F#4 01 5 ... ... ... : ... .. . ... ... ...
ROW 26 : ... .. . P7E ... ... : ... .. 8 ... ... ... : ... .. . ... ... ... : B-# 01 . ... ... ... : ... .. . ... ... ... : ... .. . ... ... ... : ... .. . ... ... ...
ROW 27 : ... .. 3 P7D ... ... : ... .. 7 ... ... ... : ... .. . ... ... ... : C-# 00 4 ... ... ... : ... .. . ... ... ... : D#4 01 4 ... ... ... : ... .. . ... ... ...
ROW 28 : ... .. . P7B ... ... : ... .. 6 ... ... ... : ... .. . ... ... ... : D-# 00 3 ... ... ... : ... .. . ... ... ... : ... .. . ... ... ... : D#3 00 4 ... ... ...
ROW 29 : ... .. 2 P7A ... ... : ... .. 5 ... ... ... : ... .. . ... ... ... : C-# 00 . ... ... ... : ... .. . ... ... ... : D#4 02 . ... ... ... : ... .. . ... ... ...
ROW 2A : A-3 02 A P80 ... ... : D#2 00 9 ... ... ... : D#3 00 . ... ... ... : E-# 00 7 ... ... ... : ... .. . ... ... ... : A-4 01 5 ... ... ... : ... .. . ... ... ...
ROW 2B : ... .. . ... ... ... : ... .. . ... ... ... : D#2 00 . ... ... ... : B-# 01 . ... ... ... : ... .. . ... ... ... : ... .. . ... ... ... : ... .. . ... ... ...
ROW 2C : ... .. . ... ... ... : E-1 00 8 ... ... ... : ... .. . ... ... ... : C-# 00 6 ... ... ... : ... .. . ... ... ... : F#4 01 4 ... ... ... : ... .. . ... ... ...
ROW 2D : ... .. . P81 ... ... : D#1 00 . ... ... ... : ... .. . ... ... ... : D-# 00 5 ... ... ... : ... .. . ... ... ... : ... .. . ... ... ... : ... .. 3 ... ... ...
ROW 2E : A-3 00 . P82 ... ... : ... .. . ... ... ... : ... .. . ... ... ... : C-# 00 4 ... ... ... : ... .. . ... ... ... : F#4 02 . ... ... ... : ... .. . ... ... ...
ROW 2F : ... .. . P83 ... ... : ... .. 7 ... ... ... : --- .. . ... ... ... : E-# 00 5 ... ... ... : ... .. . ... ... ... : F#4 01 5 ... ... ... : ... .. . ... ... ...
ROW 30 : ... .. 9 P84 ... ... : ... .. 8 ... ... ... : ... .. . ... ... ... : B-# 01 . ... ... ... : ... .. . ... ... ... : ... .. . ... ... ... : A#2 00 . ... ... ...
ROW 31 : ... .. . P85 ... ... : ... .. 7 ... ... ... : ... .. . ... ... ... : C-# 00 4 ... ... ... : ... .. . ... ... ... : D#4 01 4 ... ... ... : ... .. . ... ... ...
ROW 32 : ... .. . P86 ... ... : ... .. . ... ... ... : ... .. . ... ... ... : D-# 00 3 ... ... ... : ... .. . ... ... ... : ... .. . ... ... ... : ... .. . ... ... ...
ROW 33 : ... .. . P87 ... ... : ... .. 6 ... ... ... : ... .. . ... ... ... : C-# 00 . ... ... ... : ... .. . ... ... ... : D#4 02 . ... ... ... : ... .. . ... ... ...
ROW 34 : A#3 00 8 P7A ... ... : D#2 01 7 ... ... ... : E-4 00 . ... ... ... : D-# 00 6 ... ... ... : ... .. . ... ... ... : C#4 01 . ... ... ... : ... .. . ... ... ...
ROW 35 : ... .. . P7B ... ... : ... .. . ... ... ... : A#3 00 . P87 ... ... : 3-# 01 9 ... ... ... : ... .. . ... ... ... : ... .. . ... ... ... : ... .. . ... ... ...
ROW 36 : ... .. . P7C ... ... : E-1 01 6 ... ... ... : F#3 00 . P86 ... ... : 2-# 01 7 ... ... ... : ... .. . ... ... ... : A#3 01 3 ... ... ... : ... .. . ... ... ...
ROW 37 : ... .. 9 P7D ... ... : D#1 01 7 ... ... ... : D#2 00 . P80 ... ... : 2-# 00 6 ... ... ... : ... .. . ... ... ... : ... .. . ... ... ... : ... .. 4 ... ... ...
ROW 38 : ... .. . P7E ... ... : ... .. . ... ... ... : ... .. . ... ... ... : 1-# 00 . ... ... ... : ... .. . ... ... ... : A#3 02 . ... ... ... : D#3 00 . ... ... ...
ROW 39 : ... .. . P7F ... ... : ... .. . ... ... ... : --- .. . ... ... ... : E-# 00 2 ... ... ... : ... .. . ... ... ... : A-3 01 5 ... ... ... : ... .. 5 ... ... ...
ROW 3A : ... .. . P80 ... ... : ... .. 8 ... ... ... : ... .. . ... ... ... : B-# 01 . ... ... ... : ... .. . ... ... ... : ... .. . ... ... ... : ... .. . ... ... ...
ROW 3B : ... .. . ... ... ... : ... .. 7 ... ... ... : ... .. . ... ... ... : C-# 00 . ... ... ... : ... .. . ... ... ... : F#3 01 4 ... ... ... : ... .. 4 ... ... ...
ROW 3C : ... .. . ... ... ... : ... .. . ... ... ... : ... .. . ... ... ... : D-# 00 . ... ... ... : ... .. . ... ... ... : ... .. . ... ... ... : ... .. . ... ... ...
ROW 3D : ... .. . ... ... ... : ... .. 6 ... ... ... : ... .. . ... ... ... : C-# 00 1 ... ... ... : ... .. . ... ... ... : F#3 02 . ... ... ... : ... .. . ... ... ...
ROW 3E : ... .. . ... ... ... : ... .. 5 ... ... ... : ... .. . ... ... ... : D-# 00 . ... ... ... : ... .. . ... ... ... : ... .. . ... ... ... : ... .. . ... ... ...
ROW 3F : ... .. 8 ... ... ... : D#2 02 7 ... ... ... : C-4 00 . P7F ... ... : A-# 00 A ... ... ... : ... .. . ... ... ... : C#4 01 . ... ... ... : ... .. 3 ... ... ...
ROW 40 : ... .. . P82 ... ... : ... .. . ... ... ... : ... .. . ... ... ... : 5-# 01 9 ... ... ... : ... .. . ... ... ... : ... .. . ... ... ... : A#2 00 2 ... ... ...
ROW 41 : ... .. . P83 ... ... : E-1 02 . ... ... ... : D#2 00 . P80 ... ... : 6-# 01 8 ... ... ... : ... .. . ... ... ... : A#3 01 3 ... ... ... : ... .. 3 ... ... ...
ROW 42 : ... .. . P85 ... ... : D#1 02 . ... ... ... : ... .. . ... ... ... : 7-# 01 7 ... ... ... : ... .. . ... ... ... : ... .. . ... ... ... : ... .. . ... ... ...
ROW 43 : ... .. . P86 ... ... : ... .. . ... ... ... : ... .. . ... ... ... : 8-# 01 . ... ... ... : ... .. . ... ... ... : A#3 02 . ... ... ... : ... .. . ... ... ...
ROW 44 : ... .. 9 P87 ... ... : ... .. . ... ... ... : --- .. . ... ... ... : 9-# 00 . ... ... ... : ... .. . ... ... ... : A-3 01 5 ... ... ... : ... .. . ... ... ...
ROW 45 : B-3 00 . P7A ... ... : ... .. . ... ... ... : ... .. . ... ... ... : 9-# 01 . ... ... ... : ... .. . ... ... ... : ... .. . ... ... ... : ... .. . ... ... ...
ROW 46 : ... .. . P7B ... ... : ... .. . ... ... ... : ... .. . ... ... ... : 9-# 00 6 ... ... ... : ... .. . ... ... ... : F#3 01 4 ... ... ... : ... .. . ... ... ...
ROW 47 : ... .. . ... ... ... : ... .. 6 ... ... ... : ... .. . ... ... ... : 9-# 01 . ... ... ... : ... .. . ... ... ... : ... .. . ... ... ... : ... .. 4 ... ... ...
ROW 48 : ... .. . ... ... ... : ... .. 5 ... ... ... : ... .. . ... ... ... : 9-# 00 . ... ... ... : ... .. . ... ... ... : F#3 02 . ... ... ... : D#3 00 . ... ... ...
ROW 49 : ... .. 7 P7A ... ... : D#2 00 9 ... ... ... : D#3 00 . ... ... ... : E-# 00 7 ... ... ... : ... .. . ... ... ... : F#3 01 5 ... ... ... : ... .. . ... ... ...
ROW 4A : A#3 00 . P87 ... ... : ... .. . ... ... ... : D#2 00 . ... ... ... : B-# 01 . ... ... ... : ... .. . ... ... ... : ... .. . ... ... ... : ... .. 5 ... ... ...
ROW 4B : ... .. 6 P86 ... ... : E-1 00 8 ... ... ... : ... .. . ... ... ... : C-# 00 6 ... ... ... : ... .. . ... ... ... : D#3 01 4 ... ... ... : ... .. . ... ... ...
ROW 4C : ... .. . P85 ... ... : D#1 00 . ... ... ... : ... .. . ... ... ... : D-# 00 5 ... ... ... : ... .. . ... ... ... : ... .. . ... ... ... : ... .. . ... ... ...
ROW 4D : ... .. 5 P83 ... ... : ... .. . ... ... ... : ... .. . ... ... ... : C-# 00 4 ... ... ... : ... .. . ... ... ... : D#3 02 . ... ... ... : ... .. . ... ... ...
ROW 4E : ... .. 4 P82 ... ... : ... .. 7 ... ... ... : --- .. . ... ... ... : E-# 00 5 ... ... ... : ... .. . ... ... ... : C#3 01 5 ... ... ... : ... .. 4 ... ... ...
ROW 4F : ... .. . P80 ... ... : ... .. 8 ... ... ... : ... .. . ... ... ... : B-# 01 . ... ... ... : ... .. . ... ... ... : ... .. . ... ... ... : ... .. . ... ... ...
ROW 50 : ... .. 3 P7E ... ... : ... .. 7 ... ... ... : ... .. . ... ... ... : C-# 00 4 ... ... ... : ... .. . ... ... ... : A#2 01 4 ... ... ... : A#2 00 . ... ... ...
ROW 51 : ... .. . P7D ... ... : ... .. . ... ... ... : ... .. . ... ... ... : D-# 00 3 ... ... ... : ... .. . ... ... ... : ... .. . ... ... ... : ... .. . ... ... ...
ROW 52 : ... .. 2 P7B ... ... : ... .. 6 ... ... ... : ... .. . ... ... ... : C-# 00 . ... ... ... : ... .. . ... ... ... : A#2 02 . ... ... ... : ... .. . ... ... ...
ROW 53 : A-3 02 9 P80 ... ... : F-2 02 7 ... ... ... : E-4 00 . ... ... ... : D-# 00 6 ... ... ... : ... .. . ... ... ... : D#4 01 6 ... ... ... : C-3 00 3 ... ... ...
ROW 54 : ... .. . ... ... ... : ... .. . ... ... ... : A#3 00 . P87 ... ... : 3-# 01 9 ... ... ... : ... .. . ... ... ... : ... .. . ... ... ... : ... .. 4 ... ... ...
ROW 55 : ... .. . ... ... ... : F#1 02 6 ... ... ... : F#3 00 . P86 ... ... : 2-# 01 7 ... ... ... : ... .. . ... ... ... : ... .. 5 ... ... ... : ... .. . ... ... ...
ROW 56 : ... .. A ... ... ... : F-1 02 7 ... ... ... : F-2 00 . P80 ... ... : 2-# 00 6 ... ... ... : ... .. . ... ... ... : D#3 01 . ... ... ... : ... .. 5 ... ... ...
ROW 57 : A-3 00 . ... ... ... : ... .. . ... ... ... : ... .. . ... ... ... : 1-# 00 . ... ... ... : ... .. . ... ... ... : D#3 02 . ... ... ... : ... .. . ... ... ...
ROW 58 : ... .. . ... ... ... : ... .. 6 ... ... ... : ... .. . ... ... ... : ... .. 5 ... ... ... : ... .. . ... ... ... : ... .. 4 ... ... ... : ... .. . ... ... ...
ROW 59 : ... .. 9 ... ... ... : ... .. 8 ... ... ... : --- .. . ... ... ... : ... .. 4 ... ... ... : ... .. . ... ... ... : ... .. 5 ... ... ... : ... .. 6 ... ... ...
ROW 5A : ... .. . ... ... ... : ... .. 7 ... ... ... : ... .. . ... ... ... : ... .. . ... ... ... : ... .. . ... ... ... : ... .. . ... ... ... : ... .. . ... ... ...
ROW 5B : ... .. . ... ... ... : ... .. . ... ... ... : ... .. . ... ... ... : ... .. 3 ... ... ... : ... .. . ... ... ... : ... .. 4 ... ... ... : D#3 00 7 ... ... ...
ROW 5C : ... .. . ... ... ... : ... .. 6 ... ... ... : ... .. . ... ... ... : ... .. . ... ... ... : ... .. . ... ... ... : ... .. . ... ... ... : ... .. . ... ... ...
ROW 5D : ... .. . ... ... ... : ... .. 5 ... ... ... : ... .. . ... ... ... : ... .. . ... ... ... : ... .. . ... ... ... : ... .. . ... ... ... : ... .. . ... ... ...
ROW 5E : ... .. . ... ... ... : F-2 01 9 ... ... ... : F-3 00 . ... ... ... : E-# 00 7 ... ... ... : ... .. . ... ... ... : ... .. 3 ... ... ... : ... .. . ... ... ...
ROW 5F : ... .. . ... ... ... : ... .. . ... ... ... : F-2 00 . ... ... ... : B-# 01 . ... ... ... : ... .. . ... ... ... : ... .. . ... ... ... : ... .. . ... ... ...
ROW 60 : ... .. . ... ... ... : F#1 01 8 ... ... ... : ... .. . ... ... ... : C-# 00 6 ... ... ... : ... .. . ... ... ... : ... .. . ... ... ... : ... .. 6 ... ... ...
ROW 61 : ... .. . ... ... ... : F-1 01 . ... ... ... : ... .. . ... ... ... : D-# 00 5 ... ... ... : ... .. . ... ... ... : ... .. 2 ... ... ... : ... .. . ... ... ...
ROW 62 : ... .. . ... ... ... : ... .. . ... ... ... : ... .. . ... ... ... : C-# 00 4 ... ... ... : ... .. . ... ... ... : ... .. . ... ... ... : ... .. . ... ... ...
ROW 63 : ... .. . ... ... ... : ... .. 7 ... ... ... : --- .. . ... ... ... : E-# 00 2 ... ... ... : ... .. . ... ... ... : ... .. . ... ... ... : C-3 00 . ... ... ...
ROW 64 : ... .. . ... ... ... : ... .. 8 ... ... ... : ... .. . ... ... ... : B-# 01 . ... ... ... : ... .. . ... ... ... : ... .. 1 ... ... ... : ... .. 5 ... ... ...
ROW 65 : ... .. . ... ... ... : ... .. 7 ... ... ... : ... .. . ... ... ... : C-# 00 . ... ... ... : ... .. . ... ... ... : ... .. . ... ... ... : ... .. . ... ... ...
ROW 66 : ... .. . ... ... ... : ... .. 6 ... ... ... : ... .. . ... ... ... : D-# 00 . ... ... ... : ... .. . ... ... ... : ... .. . ... ... ... : ... .. . ... ... ...
ROW 67 : ... .. . ... ... ... : ... .. 5 ... ... ... : ... .. . ... ... ... : C-# 00 1 ... ... ... : ... .. . ... ... ... : ... .. . ... ... ... : ... .. . ... ... ...
ROW 68 : ... .. 8 ... ... ... : F-2 00 7 ... ... ... : C-4 00 . P7F ... ... : A-# 00 A ... ... ... : ... .. . ... ... ... : F#3 01 4 ... ... ... : ... .. 3 ... ... ...
ROW 69 : ... .. . P82 ... ... : ... .. . ... ... ... : ... .. . ... ... ... : 5-# 01 9 ... ... ... : ... .. . ... ... ... : ... .. . ... ... ... : ... .. . ... ... ...
ROW 6A : ... .. . P83 ... ... : F#1 00 6 ... ... ... : A#2 00 . P88 ... ... : 6-# 01 8 ... ... ... : ... .. . ... ... ... : D#3 01 3 ... ... ... : ... .. . ... ... ...
ROW 6B : ... .. . P85 ... ... : F-1 00 7 ... ... ... : F-2 00 . P80 ... ... : 7-# 01 7 ... ... ... : ... .. . ... ... ... : ... .. . ... ... ... : D#3 00 . ... ... ...
ROW 6C : ... .. . P86 ... ... : ... .. . ... ... ... : ... .. . ... ... ... : 8-# 01 . ... ... ... : ... .. . ... ... ... : D#3 02 . ... ... ... : ... .. . ... ... ...
ROW 6D : ... .. 9 P87 ... ... : ... .. . ... ... ... : --- .. . ... ... ... : 9-# 00 . ... ... ... : ... .. . ... ... ... : G#3 01 5 ... ... ... : ... .. . ... ... ...
ROW 6E : A#3 00 . P7A ... ... : ... .. . ... ... ... : ... .. . ... ... ... : 9-# 01 . ... ... ... : ... .. . ... ... ... : ... .. . ... ... ... : ... .. . ... ... ...
ROW 6F : ... .. . P7B ... ... : ... .. . ... ... ... : ... .. . ... ... ... : 9-# 00 6 ... ... ... : ... .. . ... ... ... : F-3 01 4 ... ... ... : ... .. . ... ... ...
ROW 70 : ... .. . ... ... ... : ... .. . ... ... ... : ... .. . ... ... ... : 9-# 01 . ... ... ... : ... .. . ... ... ... : ... .. . ... ... ... : ... .. . ... ... ...
ROW 71 : ... .. . ... ... ... : ... .. 6 ... ... ... : ... .. . ... ... ... : 9-# 00 . ... ... ... : ... .. . ... ... ... : F-3 02 . ... ... ... : ... .. . ... ... ...
ROW 72 : ... .. 7 P7A ... ... : F-2 02 9 ... ... ... : F-3 00 . ... ... ... : E-# 00 7 ... ... ... : ... .. . ... ... ... : C-4 01 5 ... ... ... : ... .. . ... ... ...
ROW 73 : A-3 00 . P87 ... ... : ... .. . ... ... ... : F-2 00 . ... ... ... : B-# 01 . ... ... ... : ... .. . ... ... ... : ... .. . ... ... ... : C-3 00 . ... ... ...
ROW 74 : ... .. 6 P86 ... ... : F#1 02 8 ... ... ... : ... .. . ... ... ... : C-# 00 6 ... ... ... : ... .. . ... ... ... : A-3 01 4 ... ... ... : ... .. 4 ... ... ...
ROW 75 : ... .. . P85 ... ... : F-1 02 . ... ... ... : ... .. . ... ... ... : D-# 00 5 ... ... ... : ... .. . ... ... ... : ... .. . ... ... ... : ... .. . ... ... ...
ROW 76 : ... .. 5 P83 ... ... : ... .. . ... ... ... : ... .. . ... ... ... : C-# 00 4 ... ... ... : ... .. . ... ... ... : A-3 02 . ... ... ... : ... .. . ... ... ...
ROW 77 : ... .. 4 P82 ... ... : ... .. 7 ... ... ... : ... .. . ... ... ... : D-# 00 . ... ... ... : ... .. . ... ... ... : ... .. . ... ... ... : ... .. 5 ... ... ...
ROW 78 : ... .. . P80 ... ... : ... .. 8 ... ... ... : --- .. . ... ... ... : E-# 00 5 ... ... ... : ... .. . ... ... ... : D#4 01 5 ... ... ... : ... .. . ... ... ...
ROW 79 : ... .. 3 P7E ... ... : ... .. 7 ... ... ... : ... .. . ... ... ... : B-# 01 . ... ... ... : ... .. . ... ... ... : ... .. . ... ... ... : ... .. . ... ... ...
ROW 7A : ... .. . P7D ... ... : ... .. . ... ... ... : ... .. . ... ... ... : C-# 00 4 ... ... ... : ... .. . ... ... ... : C-4 01 4 ... ... ... : ... .. . ... ... ...
ROW 7B : ... .. 2 P7B ... ... : ... .. 6 ... ... ... : ... .. . ... ... ... : D-# 00 3 ... ... ... : ... .. . ... ... ... : ... .. . ... ... ... : D#3 00 4 ... ... ...
ROW 7C : ... .. . P7A ... ... : ... .. 5 ... ... ... : ... .. . ... ... ... : C-# 00 . ... ... ... : ... .. . ... ... ... : C-4 02 . ... ... ... : ... .. . ... ... ...
ROW 7D : F-3 02 A P80 ... ... : F-2 00 9 ... ... ... : F-3 00 . ... ... ... : E-# 00 7 ... ... ... : ... .. . ... ... ... : G#4 01 5 ... ... ... : ... .. . ... ... ...
ROW 7E : ... .. . ... ... ... : ... .. . ... ... ... : F-2 00 . ... ... ... : B-# 01 . ... ... ... : ... .. . ... ... ... : ... .. . ... ... ... : ... .. . ... ... ...
ROW 7F : ... .. . ... ... ... : F#1 00 8 ... ... ... : ... .. . ... ... ... : C-# 00 6 ... ... ... : ... .. . ... ... ... : F-4 01 4 ... ... ... : ... .. . ... ... ...
ROW 80 : ... .. . ... ... ... : F-1 00 . ... ... ... : ... .. . ... ... ... : D-# 00 5 ... ... ... : ... .. . ... ... ... : ... .. . ... ... ... : ... .. 3 ... ... ...
ROW 81 : F-3 00 . ... ... ... : ... .. . ... ... ... : ... .. . ... ... ... : C-# 00 4 ... ... ... : ... .. . ... ... ... : F-4 02 . ... ... ... : ... .. . ... ... ...
ROW 82 : ... .. . ... ... ... : ... .. 7 ... ... ... : --- .. . ... ... ... : E-# 00 5 ... ... ... : ... .. . ... ... ... : F#4 01 5 ... ... ... : ... .. . ... ... ...
ROW 83 : ... .. 9 ... ... ... : ... .. 8 ... ... ... : ... .. . ... ... ... : B-# 01 . ... ... ... : ... .. . ... ... ... : ... .. . ... ... ... : C-3 00 . ... ... ...
ROW 84 : ... .. . ... ... ... : ... .. 7 ... ... ... : ... .. . ... ... ... : C-# 00 4 ... ... ... : ... .. . ... ... ... : D#4 01 4 ... ... ... : ... .. . ... ... ...
ROW 85 : ... .. . ... ... ... : ... .. . ... ... ... : ... .. . ... ... ... : D-# 00 3 ... ... ... : ... .. . ... ... ... : ... .. . ... ... ... : ... .. . ... ... ...
ROW 86 : ... .. . ... ... ... : ... .. 6 ... ... ... : ... .. . ... ... ... : C-# 00 . ... ... ... : ... .. . ... ... ... : D#4 02 . ... ... ... : ... .. . ... ... ...
ROW 87 : ... .. 8 ... ... ... : F-2 01 7 ... ... ... : E-4 00 . ... ... ... : D-# 00 6 ... ... ... : ... .. . ... ... ... : D#4 01 . ... ... ... : ... .. . ... ... ...
ROW 88 : ... .. . ... ... ... : ... .. . ... ... ... : A#3 00 . P87 ... ... : 3-# 01 9 ... ... ... : ... .. . ... ... ... : ... .. . ... ... ... : ... .. . ... ... ...
ROW 89 : ... .. . ... ... ... : F#1 01 6 ... ... ... : F#3 00 . P86 ... ... : 2-# 01 7 ... ... ... : ... .. . ... ... ... : C-4 01 3 ... ... ... : ... .. . ... ... ...
ROW 8A : ... .. 9 ... ... ... : F-1 01 7 ... ... ... : F-2 00 . P80 ... ... : 2-# 00 6 ... ... ... : ... .. . ... ... ... : ... .. . ... ... ... : ... .. 4 ... ... ...
ROW 8B : ... .. . ... ... ... : ... .. . ... ... ... : ... .. . ... ... ... : 1-# 00 . ... ... ... : ... .. . ... ... ... : C-4 02 . ... ... ... : D#3 00 . ... ... ...
ROW 8C : ... .. . ... ... ... : ... .. . ... ... ... : --- .. . ... ... ... : E-# 00 2 ... ... ... : ... .. . ... ... ... : C-4 01 5 ... ... ... : ... .. 5 ... ... ...
ROW 8D : ... .. . ... ... ... : ... .. 8 ... ... ... : ... .. . ... ... ... : B-# 01 . ... ... ... : ... .. . ... ... ... : ... .. . ... ... ... : ... .. . ... ... ...
ROW 8E : ... .. . ... ... ... : ... .. 7 ... ... ... : ... .. . ... ... ... : C-# 00 . ... ... ... : ... .. . ... ... ... : A-3 01 4 ... ... ... : ... .. 4 ... ... ...
ROW 8F : A-3 00 4 ... ... ... : ... .. . ... ... ... : ... .. . ... ... ... : D-# 00 . ... ... ... : ... .. . ... ... ... : ... .. . ... ... ... : ... .. . ... ... ...
ROW 90 : ... .. . ... ... ... : ... .. 6 ... ... ... : ... .. . ... ... ... : C-# 00 1 ... ... ... : ... .. . ... ... ... : A-3 02 . ... ... ... : ... .. . ... ... ...
ROW 91 : F#3 02 9 ... ... ... : F-2 02 7 ... ... ... : C-4 00 . P7F ... ... : A-# 00 A ... ... ... : ... .. . ... ... ... : F#4 01 . ... ... ... : ... .. 3 ... ... ...
ROW 92 : ... .. . ... ... ... : ... .. . ... ... ... : ... .. . ... ... ... : 5-# 01 9 ... ... ... : ... .. . ... ... ... : ... .. . ... ... ... : ... .. . ... ... ...
ROW 93 : ... .. . ... ... ... : F#1 02 6 ... ... ... : A#2 00 . P88 ... ... : 6-# 01 8 ... ... ... : ... .. . ... ... ... : D#4 01 3 ... ... ... : C-3 00 2 ... ... ...
ROW 94 : ... .. . ... ... ... : F-1 02 7 ... ... ... : F-2 00 . P80 ... ... : 7-# 01 7 ... ... ... : ... .. . ... ... ... : ... .. . ... ... ... : ... .. 3 ... ... ...
ROW 95 : F#3 00 . ... ... ... : ... .. . ... ... ... : ... .. . ... ... ... : 8-# 01 . ... ... ... : ... .. . ... ... ... : D#4 02 . ... ... ... : ... .. . ... ... ...
ROW 96 : ... .. . ... ... ... : ... .. 6 ... ... ... : ... .. . ... ... ... : 9-# 00 . ... ... ... : ... .. . ... ... ... : ... .. . ... ... ... : ... .. . ... ... ...
ROW 97 : ... .. . ... ... ... : ... .. 7 ... ... ... : --- .. . ... ... ... : 9-# 01 . ... ... ... : ... .. . ... ... ... : D#4 01 5 ... ... ... : ... .. . ... ... ...
ROW 98 : ... .. . ... ... ... : ... .. . ... ... ... : ... .. . ... ... ... : 9-# 00 6 ... ... ... : ... .. . ... ... ... : ... .. . ... ... ... : ... .. . ... ... ...
ROW 99 : ... .. . ... ... ... : ... .. . ... ... ... : ... .. . ... ... ... : 9-# 01 . ... ... ... : ... .. . ... ... ... : C-4 01 4 ... ... ... : ... .. . ... ... ...
ROW 9A : ... .. . ... ... ... : ... .. 6 ... ... ... : ... .. . ... ... ... : 9-# 00 . ... ... ... : ... .. . ... ... ... : ... .. . ... ... ... : ... .. 4 ... ... ...
ROW 9B : ... .. . ... ... ... : ... .. 5 ... ... ... : ... .. . ... ... ... : ... .. . ... ... ... : ... .. . ... ... ... : C-4 02 . ... ... ... : D#3 00 . ... ... ...
ROW 9C : F-3 00 4 ... ... ... : F-2 00 9 ... ... ... : F-3 00 . ... ... ... : E-# 00 7 ... ... ... : ... .. . ... ... ... : C-4 01 5 ... ... ... : ... .. . ... ... ...
ROW 9D : ... .. . ... ... ... : ... .. . ... ... ... : F-2 00 . ... ... ... : B-# 01 . ... ... ... : ... .. . ... ... ... : ... .. . ... ... ... : ... .. 5 ... ... ...
ROW 9E : ... .. . ... ... ... : F#1 00 8 ... ... ... : ... .. . ... ... ... : C-# 00 6 ... ... ... : ... .. . ... ... ... : A-3 01 4 ... ... ... : ... .. . ... ... ...
ROW 9F : ... .. . ... ... ... : F-1 00 . ... ... ... : ... .. . ... ... ... : D-# 00 5 ... ... ... : ... .. . ... ... ... : ... .. . ... ... ... : ... .. . ... ... ...
ROW A0 : ... .. . ... ... ... : ... .. . ... ... ... : ... .. . ... ... ... : C-# 00 4 ... ... ... : ... .. . ... ... ... : A-3 02 . ... ... ... : ... .. . ... ... ...
ROW A1 : ... .. . ... ... ... : ... .. 7 ... ... ... : --- .. . ... ... ... : E-# 00 5 ... ... ... : ... .. . ... ... ... : G#3 01 5 ... ... ... : ... .. 4 ... ... ...
ROW A2 : ... .. 3 ... ... ... : ... .. 8 ... ... ... : ... .. . ... ... ... : B-# 01 . ... ... ... : ... .. . ... ... ... : ... .. . ... ... ... : ... .. . ... ... ...
ROW A3 : ... .. . ... ... ... : ... .. 7 ... ... ... : ... .. . ... ... ... : C-# 00 4 ... ... ... : ... .. . ... ... ... : F-3 01 4 ... ... ... : C-3 00 . ... ... ...
ROW A4 : ... .. . ... ... ... : ... .. . ... ... ... : ... .. . ... ... ... : D-# 00 3 ... ... ... : ... .. . ... ... ... : ... .. . ... ... ... : ... .. . ... ... ...
ROW A5 : ... .. . ... ... ... : ... .. 6 ... ... ... : ... .. . ... ... ... : C-# 00 . ... ... ... : ... .. . ... ... ... : F-3 02 . ... ... ... : ... .. . ... ... ...
ROW A6 : G#3 02 9 ... ... ... : A#1 02 7 ... ... ... : E-4 00 . ... ... ... : D-# 00 6 ... ... ... : ... .. . ... ... ... : F-4 01 6 ... ... ... : A#2 00 3 ... ... ...
ROW A7 : ... .. . ... ... ... : ... .. . ... ... ... : A#3 00 . P87 ... ... : 3-# 01 9 ... ... ... : ... .. . ... ... ... : ... .. . ... ... ... : ... .. 4 ... ... ...
ROW A8 : ... .. . ... ... ... : B-0 02 6 ... ... ... : F#3 00 . P86 ... ... : 2-# 01 7 ... ... ... : ... .. . ... ... ... : ... .. 5 ... ... ... : ... .. . ... ... ...
ROW A9 : ... .. A ... ... ... : A#0 02 7 ... ... ... : A#1 00 . P80 ... ... : 2-# 00 6 ... ... ... : ... .. . ... ... ... : F-3 01 . ... ... ... : ... .. 5 ... ... ...
ROW AA : G#3 00 . ... ... ... : ... .. . ... ... ... : ... .. . ... ... ... : 1-# 00 . ... ... ... : ... .. . ... ... ... : F-3 02 . ... ... ... : ... .. . ... ... ...
ROW AB : ... .. . ... ... ... : ... .. . ... ... ... : --- .. . ... ... ... : ... .. 5 ... ... ... : ... .. . ... ... ... : ... .. . ... ... ... : ... .. 6 ... ... ...
ROW AC : ... .. 9 ... ... ... : ... .. 8 ... ... ... : ... .. . ... ... ... : ... .. 4 ... ... ... : ... .. . ... ... ... : ... .. . ... ... ... : ... .. . ... ... ...
ROW AD : ... .. . ... ... ... : ... .. 7 ... ... ... : ... .. . ... ... ... : ... .. . ... ... ... : ... .. . ... ... ... : ... .. . ... ... ... : ... .. . ... ... ...
ROW AE : ... .. . ... ... ... : ... .. . ... ... ... : ... .. . ... ... ... : ... .. 3 ... ... ... : ... .. . ... ... ... : ... .. 4 ... ... ... : C#3 00 7 ... ... ...
ROW AF : ... .. . ... ... ... : ... .. 6 ... ... ... : ... .. . ... ... ... : ... .. . ... ... ... : ... .. . ... ... ... : ... .. . ... ... ... : ... .. . ... ... ...
ROW B0 : ... .. . ... ... ... : ... .. 5 ... ... ... : ... .. . ... ... ... : ... .. . ... ... ... : ... .. . ... ... ... : ... .. . ... ... ... : ... .. . ... ... ...
ROW B1 : ... .. . ... ... ... : A#1 01 9 ... ... ... : A#2 00 . ... ... ... : E-# 00 7 ... ... ... : ... .. . ... ... ... : ... .. 3 ... ... ... : ... .. . ... ... ...
ROW B2 : ... .. . P82 ... ... : ... .. . ... ... ... : A#1 00 . ... ... ... : B-# 01 . ... ... ... : ... .. . ... ... ... : ... .. . ... ... ... : ... .. . ... ... ...
ROW B3 : ... .. . P83 ... ... : B-0 01 8 ... ... ... : ... .. . ... ... ... : C-# 00 6 ... ... ... : ... .. . ... ... ... : ... .. . ... ... ... : ... .. 6 ... ... ...
ROW B4 : ... .. . P85 ... ... : A#0 01 . ... ... ... : ... .. . ... ... ... : D-# 00 5 ... ... ... : ... .. . ... ... ... : ... .. 2 ... ... ... : ... .. . ... ... ...
ROW B5 : ... .. . P86 ... ... : ... .. . ... ... ... : ... .. . ... ... ... : C-# 00 4 ... ... ... : ... .. . ... ... ... : ... .. . ... ... ... : ... .. . ... ... ...
ROW B6 : ... .. . P87 ... ... : ... .. 7 ... ... ... : --- .. . ... ... ... : E-# 00 2 ... ... ... : ... .. . ... ... ... : ... .. . ... ... ... : A#2 00 . ... ... ...
ROW B7 : A-3 00 . P79 ... ... : ... .. 8 ... ... ... : ... .. . ... ... ... : B-# 01 . ... ... ... : ... .. . ... ... ... : ... .. 1 ... ... ... : ... .. 5 ... ... ...
ROW B8 : F#3 00 4 P80 ... ... : ... .. 7 ... ... ... : ... .. . ... ... ... : C-# 00 . ... ... ... : ... .. . ... ... ... : ... .. . ... ... ... : ... .. . ... ... ...
ROW B9 : ... .. . ... ... ... : ... .. 6 ... ... ... : ... .. . ... ... ... : D-# 00 . ... ... ... : ... .. . ... ... ... : ... .. . ... ... ... : ... .. . ... ... ...
ROW BA : ... .. . ... ... ... : ... .. 5 ... ... ... : ... .. . ... ... ... : C-# 00 1 ... ... ... : ... .. . ... ... ... : ... .. . ... ... ... : ... .. . ... ... ...
ROW BB : F#3 02 9 ... ... ... : A#1 00 7 ... ... ... : C-4 00 . P7F ... ... : A-# 00 A ... ... ... : ... .. . ... ... ... : E-3 01 4 ... ... ... : ... .. 3 ... ... ...
ROW BC : ... .. . ... ... ... : ... .. . ... ... ... : ... .. . ... ... ... : 5-# 01 9 ... ... ... : ... .. . ... ... ... : ... .. . ... ... ... : ... .. . ... ... ...
ROW BD : ... .. . ... ... ... : B-0 00 6 ... ... ... : A#2 00 . P88 ... ... : 6-# 01 8 ... ... ... : ... .. . ... ... ... : C#3 01 3 ... ... ... : ... .. . ... ... ...
ROW BE : ... .. . ... ... ... : A#0 00 7 ... ... ... : A#1 00 . P80 ... ... : 7-# 01 7 ... ... ... : ... .. . ... ... ... : ... .. . ... ... ... : C#3 00 . ... ... ...
ROW BF : F#3 00 . ... ... ... : ... .. . ... ... ... : ... .. . ... ... ... : 8-# 01 . ... ... ... : ... .. . ... ... ... : C#3 02 . ... ... ... : ... .. . ... ... ...
ROW C0 : ... .. A ... ... ... : ... .. . ... ... ... : --- .. . ... ... ... : 9-# 00 . ... ... ... : ... .. . ... ... ... : G#3 01 5 ... ... ... : ... .. . ... ... ...
ROW C1 : ... .. 9 ... ... ... : ... .. . ... ... ... : ... .. . ... ... ... : 9-# 01 . ... ... ... : ... .. . ... ... ... : ... .. . ... ... ... : ... .. . ... ... ...
ROW C2 : ... .. . ... ... ... : ... .. . ... ... ... : ... .. . ... ... ... : 9-# 00 6 ... ... ... : ... .. . ... ... ... : F-3 01 4 ... ... ... : ... .. . ... ... ...
ROW C3 : ... .. . ... ... ... : ... .. . ... ... ... : ... .. . ... ... ... : 9-# 01 . ... ... ... : ... .. . ... ... ... : ... .. . ... ... ... : ... .. . ... ... ...
ROW C4 : ... .. . ... ... ... : ... .. 6 ... ... ... : ... .. . ... ... ... : 9-# 00 . ... ... ... : ... .. . ... ... ... : F-3 02 . ... ... ... : ... .. . ... ... ...
ROW C5 : ... .. . ... ... ... : A#1 02 9 ... ... ... : A#2 00 . ... ... ... : E-# 00 7 ... ... ... : ... .. . ... ... ... : C#4 01 5 ... ... ... : ... .. . ... ... ...
ROW C6 : ... .. . ... ... ... : ... .. . ... ... ... : A#1 00 . ... ... ... : B-# 01 . ... ... ... : ... .. . ... ... ... : ... .. . ... ... ... : A#2 00 . ... ... ...
ROW C7 : ... .. . ... ... ... : B-0 02 8 ... ... ... : ... .. . ... ... ... : C-# 00 6 ... ... ... : ... .. . ... ... ... : A#3 01 4 ... ... ... : ... .. 4 ... ... ...
ROW C8 : G#3 00 4 ... ... ... : A#0 02 . ... ... ... : ... .. . ... ... ... : D-# 00 5 ... ... ... : ... .. . ... ... ... : ... .. . ... ... ... : ... .. . ... ... ...
ROW C9 : ... .. . ... ... ... : ... .. . ... ... ... : ... .. . ... ... ... : C-# 00 4 ... ... ... : ... .. . ... ... ... : A#3 02 . ... ... ... : ... .. . ... ... ...
ROW CA : ... .. . ... ... ... : ... .. 7 ... ... ... : --- .. . ... ... ... : E-# 00 5 ... ... ... : ... .. . ... ... ... : E-4 01 5 ... ... ... : ... .. 5 ... ... ...
ROW CB : ... .. . ... ... ... : ... .. 8 ... ... ... : ... .. . ... ... ... : B-# 01 . ... ... ... : ... .. . ... ... ... : ... .. . ... ... ... : ... .. . ... ... ...
ROW CC : ... .. . ... ... ... : ... .. 7 ... ... ... : ... .. . ... ... ... : C-# 00 4 ... ... ... : ... .. . ... ... ... : C#4 01 4 ... ... ... : ... .. . ... ... ...
ROW CD : ... .. . ... ... ... : ... .. . ... ... ... : ... .. . ... ... ... : D-# 00 3 ... ... ... : ... .. . ... ... ... : ... .. . ... ... ... : ... .. . ... ... ...
ROW CE : ... .. 3 ... ... ... : ... .. 6 ... ... ... : ... .. . ... ... ... : C-# 00 . ... ... ... : ... .. . ... ... ... : C#4 02 . ... ... ... : C#3 00 4 ... ... ...
ROW CF : ... .. . ... ... ... : ... .. 5 ... ... ... : ... .. . ... ... ... : D-# 00 . ... ... ... : ... .. . ... ... ... : ... .. . ... ... ... : ... .. . ... ... ...
ROW D0 : F-3 02 A ... ... ... : A#1 00 9 ... ... ... : A#2 00 . ... ... ... : E-# 00 7 ... ... ... : ... .. . ... ... ... : G#4 01 5 ... ... ... : ... .. . ... ... ...
ROW D1 : ... .. . ... ... ... : ... .. . ... ... ... : A#1 00 . ... ... ... : B-# 01 . ... ... ... : ... .. . ... ... ... : ... .. . ... ... ... : ... .. . ... ... ...
ROW D2 : ... .. . ... ... ... : B-0 00 8 ... ... ... : ... .. . ... ... ... : C-# 00 6 ... ... ... : ... .. . ... ... ... : F-4 01 4 ... ... ... : ... .. . ... ... ...
ROW D3 : ... .. . ... ... ... : A#0 00 . ... ... ... : ... .. . ... ... ... : D-# 00 5 ... ... ... : ... .. . ... ... ... : ... .. . ... ... ... : ... .. 3 ... ... ...
ROW D4 : F-3 00 . ... ... ... : ... .. . ... ... ... : ... .. . ... ... ... : C-# 00 4 ... ... ... : ... .. . ... ... ... : F-4 02 . ... ... ... : ... .. . ... ... ...
ROW D5 : ... .. . ... ... ... : ... .. 7 ... ... ... : --- .. . ... ... ... : E-# 00 5 ... ... ... : ... .. . ... ... ... : E-4 01 5 ... ... ... : ... .. . ... ... ...
ROW D6 : ... .. 9 ... ... ... : ... .. 8 ... ... ... : ... .. . ... ... ... : B-# 01 . ... ... ... : ... .. . ... ... ... : ... .. . ... ... ... : A#2 00 . ... ... ...
ROW D7 : ... .. . ... ... ... : ... .. 7 ... ... ... : ... .. . ... ... ... : C-# 00 4 ... ... ... : ... .. . ... ... ... : C#4 01 4 ... ... ... : ... .. . ... ... ...
ROW D8 : ... .. . ... ... ... : ... .. 6 ... ... ... : ... .. . ... ... ... : D-# 00 3 ... ... ... : ... .. . ... ... ... : ... .. . ... ... ... : ... .. . ... ... ...
ROW D9 : ... .. . ... ... ... : ... .. 5 ... ... ... : ... .. . ... ... ... : C-# 00 . ... ... ... : ... .. . ... ... ... : C#4 02 . ... ... ... : ... .. . ... ... ...
ROW DA : ... .. 8 ... ... ... : A#1 01 7 ... ... ... : E-4 00 . ... ... ... : D-# 00 6 ... ... ... : ... .. . ... ... ... : C#4 01 . ... ... ... : ... .. . ... ... ...
ROW DB : ... .. . P82 ... ... : ... .. . ... ... ... : A#3 00 . P87 ... ... : 3-# 01 9 ... ... ... : ... .. . ... ... ... : ... .. . ... ... ... : ... .. . ... ... ...
ROW DC : ... .. . P83 ... ... : B-0 01 6 ... ... ... : F#3 00 . P86 ... ... : 2-# 01 7 ... ... ... : ... .. . ... ... ... : A#3 01 3 ... ... ... : ... .. . ... ... ...
ROW DD : ... .. 9 P85 ... ... : A#0 01 7 ... ... ... : A#1 00 . P80 ... ... : 2-# 00 6 ... ... ... : ... .. . ... ... ... : ... .. . ... ... ... : ... .. 4 ... ... ...
ROW DE : ... .. . P86 ... ... : ... .. . ... ... ... : ... .. . ... ... ... : 1-# 00 . ... ... ... : ... .. . ... ... ... : A#3 02 . ... ... ... : C#3 00 . ... ... ...
ROW DF : ... .. . P87 ... ... : ... .. . ... ... ... : --- .. . ... ... ... : E-# 00 2 ... ... ... : ... .. . ... ... ... : B-3 01 5 ... ... ... : ... .. 5 ... ... ...
ROW E0 : ... .. . P88 ... ... : ... .. 8 ... ... ... : ... .. . ... ... ... : B-# 01 . ... ... ... : ... .. . ... ... ... : ... .. . ... ... ... : ... .. . ... ... ...
ROW E1 : ... .. . P89 ... ... : ... .. 7 ... ... ... : ... .. . ... ... ... : C-# 00 . ... ... ... : ... .. . ... ... ... : G#3 01 4 ... ... ... : ... .. 4 ... ... ...
ROW E2 : F#3 00 4 P80 ... ... : ... .. . ... ... ... : ... .. . ... ... ... : D-# 00 . ... ... ... : ... .. . ... ... ... : ... .. . ... ... ... : ... .. . ... ... ...
ROW E3 : ... .. . ... ... ... : ... .. 6 ... ... ... : ... .. . ... ... ... : C-# 00 1 ... ... ... : ... .. . ... ... ... : G#3 02 . ... ... ... : ... .. . ... ... ...
ROW E4 : D#3 02 9 ... ... ... : A#1 02 7 ... ... ... : C-4 00 . P7F ... ... : A-# 00 A ... ... ... : ... .. . ... ... ... : E-4 01 . ... ... ... : ... .. 3 ... ... ...
ROW E5 : ... .. . ... ... ... : ... .. . ... ... ... : ... .. . ... ... ... : 5-# 01 9 ... ... ... : ... .. . ... ... ... : ... .. . ... ... ... : ... .. . ... ... ...
ROW E6 : ... .. . ... ... ... : B-0 02 6 ... ... ... : A#2 00 . P88 ... ... : 6-# 01 8 ... ... ... : ... .. . ... ... ... : C#4 01 3 ... ... ... : A#2 00 2 ... ... ...
ROW E7 : ... .. . ... ... ... : A#0 02 7 ... ... ... : A#1 00 . P80 ... ... : 7-# 01 7 ... ... ... : ... .. . ... ... ... : ... .. . ... ... ... : ... .. 3 ... ... ...
ROW E8 : D#3 00 . ... ... ... : ... .. . ... ... ... : ... .. . ... ... ... : 8-# 01 . ... ... ... : ... .. . ... ... ... : C#4 02 . ... ... ... : ... .. . ... ... ...
ROW E9 : ... .. . ... ... ... : ... .. 6 ... ... ... : ... .. . ... ... ... : 9-# 00 . ... ... ... : ... .. . ... ... ... : ... .. . ... ... ... : ... .. . ... ... ...
ROW EA : ... .. . ... ... ... : ... .. 7 ... ... ... : --- .. . ... ... ... : 9-# 01 . ... ... ... : ... .. . ... ... ... : C#4 01 5 ... ... ... : ... .. . ... ... ...
ROW EB : ... .. . ... ... ... : ... .. . ... ... ... : ... .. . ... ... ... : 9-# 00 6 ... ... ... : ... .. . ... ... ... : ... .. . ... ... ... : ... .. . ... ... ...
ROW EC : ... .. . ... ... ... : ... .. . ... ... ... : ... .. . ... ... ... : 9-# 01 . ... ... ... : ... .. . ... ... ... : A#3 01 4 ... ... ... : ... .. . ... ... ...
ROW ED : ... .. . ... ... ... : ... .. 6 ... ... ... : ... .. . ... ... ... : 9-# 00 . ... ... ... : ... .. . ... ... ... : ... .. . ... ... ... : ... .. 4 ... ... ...
ROW EE : ... .. . ... ... ... : ... .. 5 ... ... ... : ... .. . ... ... ... : ... .. . ... ... ... : ... .. . ... ... ... : A#3 02 . ... ... ... : C#3 00 . ... ... ...
ROW EF : ... .. . ... ... ... : A#1 00 9 ... ... ... : A#2 00 . ... ... ... : E-# 00 7 ... ... ... : ... .. . ... ... ... : B-3 01 5 ... ... ... : ... .. . ... ... ...
ROW F0 : ... .. . ... ... ... : ... .. . ... ... ... : A#1 00 . ... ... ... : B-# 01 . ... ... ... : ... .. . ... ... ... : ... .. . ... ... ... : ... .. 5 ... ... ...
ROW F1 : F-3 00 4 ... ... ... : B-0 00 8 ... ... ... : ... .. . ... ... ... : C-# 00 6 ... ... ... : ... .. . ... ... ... : G#3 01 4 ... ... ... : ... .. . ... ... ...
ROW F2 : ... .. . ... ... ... : A#0 00 . ... ... ... : ... .. . ... ... ... : D-# 00 5 ... ... ... : ... .. . ... ... ... : ... .. . ... ... ... : ... .. . ... ... ...
ROW F3 : ... .. . ... ... ... : ... .. . ... ... ... : ... .. . ... ... ... : C-# 00 4 ... ... ... : ... .. . ... ... ... : G#3 02 . ... ... ... : ... .. . ... ... ...
ROW F4 : ... .. . ... ... ... : ... .. 7 ... ... ... : --- .. . ... ... ... : E-# 00 5 ... ... ... : ... .. . ... ... ... : G#3 01 5 ... ... ... : ... .. 4 ... ... ...
ROW F5 : ... .. . ... ... ... : ... .. 8 ... ... ... : ... .. . ... ... ... : B-# 01 . ... ... ... : ... .. . ... ... ... : ... .. . ... ... ... : ... .. . ... ... ...
ROW F6 : ... .. . ... ... ... : ... .. 7 ... ... ... : ... .. . ... ... ... : C-# 00 4 ... ... ... : ... .. . ... ... ... : F-3 01 4 ... ... ... : A#2 00 . ... ... ...
ROW F7 : ... .. 3 ... ... ... : ... .. 6 ... ... ... : ... .. . ... ... ... : D-# 00 3 ... ... ... : ... .. . ... ... ... : ... .. . ... ... ... : ... .. . ... ... ...
ROW F8 : ... .. . ... ... ... : ... .. 5 ... ... ... : ... .. . ... ... ... : C-# 00 . ... ... ... : ... .. . ... ... ... : F-3 02 . ... ... ... : ... .. . ... ... ...
ROW F9 : F-3 02 9 ... ... ... : D-2 02 7 ... ... ... : E-4 00 . ... ... ... : D-# 00 6 ... ... ... : ... .. . ... ... ... : G#4 01 . ... ... ... : G#2 00 3 ... ... ...
ROW FA : ... .. . ... ... ... : ... .. . ... ... ... : A#3 00 . P87 ... ... : 3-# 01 9 ... ... ... : ... .. . ... ... ... : ... .. . ... ... ... : ... .. 4 ... ... ...
ROW FB : ... .. . ... ... ... : D#1 02 6 ... ... ... : F#3 00 . P86 ... ... : 2-# 01 7 ... ... ... : ... .. . ... ... ... : F-4 01 3 ... ... ... : ... .. . ... ... ...
ROW FC : ... .. A ... ... ... : D-1 02 7 ... ... ... : D-2 00 . P80 ... ... : 2-# 00 6 ... ... ... : ... .. . ... ... ... : ... .. . ... ... ... : ... .. 5 ... ... ...
ROW FD : F-3 00 . ... ... ... : ... .. . ... ... ... : ... .. . ... ... ... : 1-# 00 . ... ... ... : ... .. . ... ... ... : F-4 02 . ... ... ... : ... .. . ... ... ...
ROW FE : ... .. . ... ... ... : ... .. . ... ... ... : --- .. . ... ... ... : ... .. 5 ... ... ... : ... .. . ... ... ... : F-4 01 5 ... ... ... : ... .. 6 ... ... ...
ROW FF : ... .. 9 ... ... ... : ... .. 8 ... ... ... : ... .. . ... ... ... : ... .. 4 ... ... ... : ... .. . ... ... ... : ... .. . ... ... ... : ... .. . ... ... ...

PATTERN 01
ROW 00 : ... .. . ... ... ... : ... .. 7 ... ... ... : ... .. . ... ... ... : ... .. . ... ... ... : ... .. . ... ... ... : D-4 01 4 ... ... ... : ... .. . ... ... ...
ROW 01 : ... .. . ... ... ... : ... .. . ... ... ... : ... .. . ... ... ... : ... .. 3 ... ... ... : ... .. . ... ... ... : ... .. . ... ... ... : D-3 00 7 ... ... ...
ROW 02 : ... .. . ... ... ... : ... .. 6 ... ... ... : ... .. . ... ... ... : ... .. . ... ... ... : ... .. . ... ... ... : D-4 02 . ... ... ... : ... .. . ... ... ...
ROW 03 : ... .. . ... ... ... : D-2 01 9 ... ... ... : D-3 00 . ... ... ... : E-# 00 7 ... ... ... : ... .. . ... ... ... : C#4 01 5 ... ... ... : ... .. . ... ... ...
ROW 04 : ... .. . ... ... ... : ... .. . ... ... ... : D-2 00 . ... ... ... : B-# 01 . ... ... ... : ... .. . ... ... ... : ... .. . ... ... ... : ... .. . ... ... ...
ROW 05 : ... .. . ... ... ... : D#1 01 8 ... ... ... : ... .. . ... ... ... : C-# 00 6 ... ... ... : ... .. . ... ... ... : A#3 01 4 ... ... ... : ... .. . ... ... ...
ROW 06 : ... .. . ... ... ... : D-1 01 . ... ... ... : ... .. . ... ... ... : D-# 00 5 ... ... ... : ... .. . ... ... ... : ... .. . ... ... ... : ... .. 6 ... ... ...
ROW 07 : ... .. . ... ... ... : ... .. . ... ... ... : ... .. . ... ... ... : C-# 00 4 ... ... ... : ... .. . ... ... ... : A#3 02 . ... ... ... : ... .. . ... ... ...
ROW 08 : ... .. . ... ... ... : ... .. 7 ... ... ... : ... .. . ... ... ... : D-# 00 . ... ... ... : ... .. . ... ... ... : ... .. . ... ... ... : ... .. . ... ... ...
ROW 09 : ... .. . ... ... ... : ... .. 8 ... ... ... : --- .. . ... ... ... : E-# 00 2 ... ... ... : ... .. . ... ... ... : B-3 01 5 ... ... ... : G#2 00 . ... ... ...
ROW 0A : ... .. . ... ... ... : ... .. 7 ... ... ... : ... .. . ... ... ... : B-# 01 . ... ... ... : ... .. . ... ... ... : ... .. . ... ... ... : ... .. 5 ... ... ...
ROW 0B : ... .. . ... ... ... : ... .. . ... ... ... : ... .. . ... ... ... : C-# 00 . ... ... ... : ... .. . ... ... ... : G#3 01 4 ... ... ... : ... .. . ... ... ...
ROW 0C : ... .. . ... ... ... : ... .. 6 ... ... ... : ... .. . ... ... ... : D-# 00 . ... ... ... : ... .. . ... ... ... : ... .. . ... ... ... : ... .. . ... ... ...
ROW 0D : ... .. . ... ... ... : ... .. 5 ... ... ... : ... .. . ... ... ... : C-# 00 1 ... ... ... : ... .. . ... ... ... : G#3 02 . ... ... ... : ... .. . ... ... ...
ROW 0E : ... .. 8 ... ... ... : D-2 00 7 ... ... ... : C-4 00 . P7F ... ... : A-# 00 A ... ... ... : ... .. . ... ... ... : F-4 01 . ... ... ... : ... .. 3 ... ... ...
ROW 0F : ... .. . P82 ... ... : ... .. . ... ... ... : ... .. . ... ... ... : 5-# 01 9 ... ... ... : ... .. . ... ... ... : ... .. . ... ... ... : ... .. . ... ... ...
ROW 10 : ... .. . P83 ... ... : D#1 00 . ... ... ... : D-2 00 . P80 ... ... : 6-# 01 8 ... ... ... : ... .. . ... ... ... : D-4 01 3 ... ... ... : ... .. . ... ... ...
ROW 11 : ... .. . P85 ... ... : D-1 00 . ... ... ... : ... .. . ... ... ... : 7-# 01 7 ... ... ... : ... .. . ... ... ... : ... .. . ... ... ... : D-3 00 . ... ... ...
ROW 12 : ... .. . P86 ... ... : ... .. . ... ... ... : ... .. . ... ... ... : 8-# 01 . ... ... ... : ... .. . ... ... ... : D-4 02 . ... ... ... : ... .. . ... ... ...
ROW 13 : ... .. 9 P87 ... ... : ... .. . ... ... ... : --- .. . ... ... ... : 9-# 00 . ... ... ... : ... .. . ... ... ... : C#4 01 5 ... ... ... : ... .. . ... ... ...
ROW 14 : ... .. . P88 ... ... : ... .. . ... ... ... : ... .. . ... ... ... : 9-# 01 . ... ... ... : ... .. . ... ... ... : ... .. . ... ... ... : ... .. . ... ... ...
ROW 15 : ... .. . P89 ... ... : ... .. . ... ... ... : ... .. . ... ... ... : 9-# 00 6 ... ... ... : ... .. . ... ... ... : A#3 01 4 ... ... ... : ... .. . ... ... ...
ROW 16 : ... .. . ... ... ... : ... .. . ... ... ... : ... .. . ... ... ... : 9-# 01 . ... ... ... : ... .. . ... ... ... : ... .. . ... ... ... : ... .. . ... ... ...
ROW 17 : ... .. . ... ... ... : ... .. 6 ... ... ... : ... .. . ... ... ... : 9-# 00 . ... ... ... : ... .. . ... ... ... : A#3 02 . ... ... ... : ... .. . ... ... ...
ROW 18 : ... .. . P88 ... ... : D-2 02 9 ... ... ... : D-3 00 . ... ... ... : E-# 00 7 ... ... ... : ... .. . ... ... ... : B-3 01 5 ... ... ... : ... .. . ... ... ...
ROW 19 : ... .. 8 P87 ... ... : ... .. . ... ... ... : D-2 00 . ... ... ... : B-# 01 . ... ... ... : ... .. . ... ... ... : ... .. . ... ... ... : G#2 00 . ... ... ...
ROW 1A : ... .. . P86 ... ... : D#1 02 8 ... ... ... : ... .. . ... ... ... : C-# 00 6 ... ... ... : ... .. . ... ... ... : G#3 01 4 ... ... ... : ... .. 4 ... ... ...
ROW 1B : ... .. . P85 ... ... : D-1 02 . ... ... ... : ... .. . ... ... ... : D-# 00 5 ... ... ... : ... .. . ... ... ... : ... .. . ... ... ... : ... .. . ... ... ...
ROW 1C : ... .. . P83 ... ... : ... .. . ... ... ... : ... .. . ... ... ... : C-# 00 4 ... ... ... : ... .. . ... ... ... : G#3 02 . ... ... ... : ... .. . ... ... ...
ROW 1D : ... .. . P82 ... ... : ... .. 7 ... ... ... : --- .. . ... ... ... : E-# 00 5 ... ... ... : ... .. . ... ... ... : G#3 01 5 ... ... ... : ... .. 5 ... ... ...
ROW 1E : ... .. . P80 ... ... : ... .. 8 ... ... ... : ... .. . ... ... ... : B-# 01 . ... ... ... : ... .. . ... ... ... : ... .. . ... ... ... : ... .. . ... ... ...
ROW 1F : ... .. . P7E ... ... : ... .. 7 ... ... ... : ... .. . ... ... ... : C-# 00 4 ... ... ... : ... .. . ... ... ... : F-3 01 4 ... ... ... : ... .. . ... ... ...
ROW 20 : ... .. . P7D ... ... : ... .. . ... ... ... : ... .. . ... ... ... : D-# 00 3 ... ... ... : ... .. . ... ... ... : ... .. . ... ... ... : ... .. . ... ... ...
ROW 21 : ... .. . P7B ... ... : ... .. 6 ... ... ... : ... .. . ... ... ... : C-# 00 . ... ... ... : ... .. . ... ... ... : F-3 02 . ... ... ... : D-3 00 4 ... ... ...
ROW 22 : D-3 02 A P80 ... ... : D-2 00 9 ... ... ... : D-3 00 . ... ... ... : E-# 00 7 ... ... ... : ... .. . ... ... ... : C#4 01 5 ... ... ... : ... .. . ... ... ...
ROW 23 : ... .. . ... ... ... : ... .. . ... ... ... : D-2 00 . ... ... ... : B-# 01 . ... ... ... : ... .. . ... ... ... : ... .. . ... ... ... : ... .. . ... ... ...
ROW 24 : ... .. . ... ... ... : D#1 00 8 ... ... ... : ... .. . ... ... ... : C-# 00 6 ... ... ... : ... .. . ... ... ... : A#3 01 4 ... ... ... : ... .. . ... ... ...
ROW 25 : ... .. . ... ... ... : D-1 00 . ... ... ... : ... .. . ... ... ... : D-# 00 5 ... ... ... : ... .. . ... ... ... : ... .. . ... ... ... : ... .. . ... ... ...
ROW 26 : D-3 00 . ... ... ... : ... .. . ... ... ... : ... .. . ... ... ... : C-# 00 4 ... ... ... : ... .. . ... ... ... : A#3 02 . ... ... ... : ... .. 3 ... ... ...
ROW 27 : ... .. . ... ... ... : ... .. 7 ... ... ... : ... .. . ... ... ... : D-# 00 . ... ... ... : ... .. . ... ... ... : ... .. . ... ... ... : ... .. . ... ... ...
ROW 28 : ... .. 9 ... ... ... : ... .. 8 ... ... ... : --- .. . ... ... ... : E-# 00 5 ... ... ... : ... .. . ... ... ... : B-3 01 5 ... ... ... : ... .. . ... ... ...
ROW 29 : ... .. . ... ... ... : ... .. 7 ... ... ... : ... .. . ... ... ... : B-# 01 . ... ... ... : ... .. . ... ... ... : ... .. . ... ... ... : G#2 00 . ... ... ...
ROW 2A : ... .. . ... ... ... : ... .. . ... ... ... : ... .. . ... ... ... : C-# 00 4 ... ... ... : ... .. . ... ... ... : G#3 01 4 ... ... ... : ... .. . ... ... ...
ROW 2B : ... .. . ... ... ... : ... .. 6 ... ... ... : ... .. . ... ... ... : D-# 00 3 ... ... ... : ... .. . ... ... ... : ... .. . ... ... ... : ... .. . ... ... ...
ROW 2C : ... .. . ... ... ... : ... .. 5 ... ... ... : ... .. . ... ... ... : C-# 00 . ... ... ... : ... .. . ... ... ... : G#3 02 . ... ... ... : ... .. . ... ... ...
ROW 2D : ... .. 8 ... ... ... : D-3 00 7 ... ... ... : E-4 00 . ... ... ... : D-# 00 6 ... ... ... : ... .. . ... ... ... : G#3 01 . ... ... ... : ... .. . ... ... ...
ROW 2E : ... .. . P83 ... ... : ... .. . ... ... ... : A#3 00 . P87 ... ... : 3-# 01 9 ... ... ... : ... .. . ... ... ... : ... .. . ... ... ... : ... .. . ... ... ...
ROW 2F : ... .. 9 P85 ... ... : D#2 00 . ... ... ... : D-3 00 . P80 ... ... : 2-# 01 7 ... ... ... : ... .. . ... ... ... : F-3 01 3 ... ... ... : ... .. . ... ... ...
ROW 30 : ... .. . P87 ... ... : D-2 00 . ... ... ... : ... .. . ... ... ... : 2-# 00 6 ... ... ... : ... .. . ... ... ... : ... .. . ... ... ... : ... .. 4 ... ... ...
ROW 31 : ... .. . P89 ... ... : ... .. . ... ... ... : ... .. . ... ... ... : 1-# 00 . ... ... ... : ... .. . ... ... ... : F-3 02 . ... ... ... : D-3 00 . ... ... ...
ROW 32 : D#3 00 . P76 ... ... : D-2 01 . ... ... ... : --- .. . ... ... ... : E-# 00 2 ... ... ... : ... .. . ... ... ... : F-3 01 5 ... ... ... : ... .. 5 ... ... ...
ROW 33 : ... .. . P77 ... ... : ... .. 8 ... ... ... : ... .. . ... ... ... : B-# 01 . ... ... ... : ... .. . ... ... ... : ... .. . ... ... ... : ... .. . ... ... ...
ROW 34 : ... .. . P78 ... ... : ... .. 7 ... ... ... : ... .. . ... ... ... : C-# 00 . ... ... ... : ... .. . ... ... ... : D-3 01 4 ... ... ... : ... .. 4 ... ... ...
ROW 35 : ... .. . ... ... ... : ... .. . ... ... ... : ... .. . ... ... ... : D-# 00 . ... ... ... : ... .. . ... ... ... : ... .. . ... ... ... : ... .. . ... ... ...
ROW 36 : ... .. . ... ... ... : ... .. 6 ... ... ... : ... .. . ... ... ... : C-# 00 1 ... ... ... : ... .. . ... ... ... : D-3 02 . ... ... ... : ... .. . ... ... ...
ROW 37 : ... .. 8 P77 ... ... : D-2 02 7 ... ... ... : C-4 00 . P7F ... ... : A-# 00 A ... ... ... : ... .. . ... ... ... : C#3 01 . ... ... ... : ... .. 3 ... ... ...
ROW 38 : ... .. . P76 ... ... : ... .. . ... ... ... : ... .. . ... ... ... : 5-# 01 9 ... ... ... : ... .. . ... ... ... : ... .. . ... ... ... : ... .. . ... ... ...
ROW 39 : D-3 00 . P89 ... ... : D#1 02 6 ... ... ... : A#2 00 . P88 ... ... : 6-# 01 8 ... ... ... : ... .. . ... ... ... : A#2 01 3 ... ... ... : G#2 00 2 ... ... ...
ROW 3A : ... .. . P87 ... ... : D-1 02 7 ... ... ... : D-2 00 . P80 ... ... : 7-# 01 7 ... ... ... : ... .. . ... ... ... : ... .. . ... ... ... : ... .. 3 ... ... ...
ROW 3B : ... .. . P85 ... ... : ... .. . ... ... ... : ... .. . ... ... ... : 8-# 01 . ... ... ... : ... .. . ... ... ... : A#2 02 . ... ... ... : ... .. . ... ... ...
ROW 3C : ... .. 9 P83 ... ... : ... .. . ... ... ... : --- .. . ... ... ... : 9-# 00 . ... ... ... : ... .. . ... ... ... : F-3 01 5 ... ... ... : ... .. . ... ... ...
ROW 3D : ... .. . P80 ... ... : ... .. . ... ... ... : ... .. . ... ... ... : 9-# 01 . ... ... ... : ... .. . ... ... ... : ... .. . ... ... ... : ... .. . ... ... ...
ROW 3E : ... .. . P7D ... ... : ... .. . ... ... ... : ... .. . ... ... ... : 9-# 00 6 ... ... ... : ... .. . ... ... ... : D-3 01 4 ... ... ... : ... .. . ... ... ...
ROW 3F : ... .. . P7B ... ... : ... .. . ... ... ... : ... .. . ... ... ... : 9-# 01 . ... ... ... : ... .. . ... ... ... : ... .. . ... ... ... : ... .. . ... ... ...
ROW 40 : ... .. . P79 ... ... : ... .. 6 ... ... ... : ... .. . ... ... ... : 9-# 00 . ... ... ... : ... .. . ... ... ... : D-3 02 . ... ... ... : ... .. 4 ... ... ...
ROW 41 : ... .. . P77 ... ... : ... .. 5 ... ... ... : ... .. . ... ... ... : ... .. . ... ... ... : ... .. . ... ... ... : ... .. . ... ... ... : D-3 00 . ... ... ...
ROW 42 : ... .. 8 P75 ... ... : D-2 01 9 ... ... ... : D-3 00 . ... ... ... : E-# 00 7 ... ... ... : ... .. . ... ... ... : G#3 01 5 ... ... ... : ... .. . ... ... ...
ROW 43 : C#3 00 . P8B ... ... : ... .. . ... ... ... : D-2 00 . ... ... ... : B-# 01 . ... ... ... : ... .. . ... ... ... : ... .. . ... ... ... : ... .. 5 ... ... ...
ROW 44 : ... .. . P8A ... ... : D#1 01 8 ... ... ... : ... .. . ... ... ... : C-# 00 6 ... ... ... : ... .. . ... ... ... : F-3 01 4 ... ... ... : ... .. . ... ... ...
ROW 45 : ... .. . ... ... ... : D-1 01 . ... ... ... : ... .. . ... ... ... : D-# 00 5 ... ... ... : ... .. . ... ... ... : ... .. . ... ... ... : ... .. . ... ... ...
ROW 46 : ... .. . ... ... ... : ... .. . ... ... ... : ... .. . ... ... ... : C-# 00 4 ... ... ... : ... .. . ... ... ... : F-3 02 . ... ... ... : ... .. . ... ... ...
ROW 47 : ... .. 7 P8B ... ... : ... .. 7 ... ... ... : --- .. . ... ... ... : E-# 00 5 ... ... ... : ... .. . ... ... ... : C#4 01 5 ... ... ... : ... .. 4 ... ... ...
ROW 48 : D-3 00 . P75 ... ... : ... .. 8 ... ... ... : ... .. . ... ... ... : B-# 01 . ... ... ... : ... .. . ... ... ... : ... .. . ... ... ... : ... .. . ... ... ...
ROW 49 : ... .. 6 P77 ... ... : ... .. 7 ... ... ... : ... .. . ... ... ... : C-# 00 4 ... ... ... : ... .. . ... ... ... : A#3 01 4 ... ... ... : G#2 00 . ... ... ...
ROW 4A : ... .. . P79 ... ... : ... .. 6 ... ... ... : ... .. . ... ... ... : D-# 00 3 ... ... ... : ... .. . ... ... ... : ... .. . ... ... ... : ... .. . ... ... ...
ROW 4B : ... .. 5 P7B ... ... : ... .. 5 ... ... ... : ... .. . ... ... ... : C-# 00 . ... ... ... : ... .. . ... ... ... : A#3 02 . ... ... ... : ... .. . ... ... ...
ROW 4C : D#3 02 9 P80 ... ... : D#2 02 7 ... ... ... : E-4 00 . ... ... ... : D-# 00 6 ... ... ... : ... .. . ... ... ... : D#4 01 6 ... ... ... : A#2 00 3 ... ... ...
ROW 4D : ... .. . ... ... ... : ... .. . ... ... ... : A#3 00 . P87 ... ... : 3-# 01 9 ... ... ... : ... .. . ... ... ... : ... .. . ... ... ... : ... .. 4 ... ... ...
ROW 4E : ... .. A ... ... ... : E-1 02 . ... ... ... : D#2 00 . P80 ... ... : 2-# 01 7 ... ... ... : ... .. . ... ... ... : ... .. 5 ... ... ... : ... .. . ... ... ...
ROW 4F : ... .. . ... ... ... : D#1 02 . ... ... ... : ... .. . ... ... ... : 2-# 00 6 ... ... ... : ... .. . ... ... ... : D#3 01 . ... ... ... : ... .. 5 ... ... ...
ROW 50 : D#3 00 . ... ... ... : ... .. . ... ... ... : ... .. . ... ... ... : 1-# 00 . ... ... ... : ... .. . ... ... ... : D#3 02 . ... ... ... : ... .. . ... ... ...
ROW 51 : ... .. . ... ... ... : ... .. . ... ... ... : --- .. . ... ... ... : ... .. 5 ... ... ... : ... .. . ... ... ... : ... .. . ... ... ... : ... .. 6 ... ... ...
ROW 52 : ... .. 9 ... ... ... : ... .. 8 ... ... ... : ... .. . ... ... ... : ... .. 4 ... ... ... : ... .. . ... ... ... : ... .. . ... ... ... : ... .. . ... ... ...
ROW 53 : ... .. . ... ... ... : ... .. 7 ... ... ... : ... .. . ... ... ... : ... .. . ... ... ... : ... .. . ... ... ... : ... .. . ... ... ... : ... .. . ... ... ...
ROW 54 : ... .. . ... ... ... : ... .. . ... ... ... : ... .. . ... ... ... : ... .. 3 ... ... ... : ... .. . ... ... ... : ... .. 4 ... ... ... : D#3 00 7 ... ... ...
ROW 55 : ... .. . ... ... ... : ... .. 6 ... ... ... : ... .. . ... ... ... : ... .. . ... ... ... : ... .. . ... ... ... : ... .. . ... ... ... : ... .. . ... ... ...
ROW 56 : ... .. . ... ... ... : D#2 01 9 ... ... ... : D#3 00 . ... ... ... : E-# 00 7 ... ... ... : ... .. . ... ... ... : ... .. . ... ... ... : ... .. . ... ... ...
ROW 57 : ... .. . ... ... ... : ... .. . ... ... ... : D#2 00 . ... ... ... : B-# 01 . ... ... ... : ... .. . ... ... ... : ... .. 3 ... ... ... : ... .. . ... ... ...
ROW 58 : ... .. . ... ... ... : E-1 01 8 ... ... ... : ... .. . ... ... ... : C-# 00 6 ... ... ... : ... .. . ... ... ... : ... .. . ... ... ... : ... .. . ... ... ...
ROW 59 : ... .. . ... ... ... : D#1 01 . ... ... ... : ... .. . ... ... ... : D-# 00 5 ... ... ... : ... .. . ... ... ... : ... .. . ... ... ... : ... .. 6 ... ... ...
ROW 5A : ... .. . ... ... ... : ... .. . ... ... ... : ... .. . ... ... ... : C-# 00 4 ... ... ... : ... .. . ... ... ... : ... .. 2 ... ... ... : ... .. . ... ... ...
ROW 5B : ... .. . ... ... ... : ... .. 7 ... ... ... : --- .. . ... ... ... : E-# 00 2 ... ... ... : ... .. . ... ... ... : ... .. . ... ... ... : ... .. . ... ... ...
ROW 5C : ... .. . ... ... ... : ... .. 8 ... ... ... : ... .. . ... ... ... : B-# 01 . ... ... ... : ... .. . ... ... ... : ... .. . ... ... ... : A#2 00 . ... ... ...
ROW 5D : ... .. . ... ... ... : ... .. 7 ... ... ... : ... .. . ... ... ... : C-# 00 . ... ... ... : ... .. . ... ... ... : ... .. 1 ... ... ... : ... .. 5 ... ... ...
ROW 5E : ... .. . ... ... ... : ... .. . ... ... ... : ... .. . ... ... ... : D-# 00 . ... ... ... : ... .. . ... ... ... : ... .. . ... ... ... : ... .. . ... ... ...
ROW 5F : ... .. . ... ... ... : ... .. 6 ... ... ... : ... .. . ... ... ... : C-# 00 1 ... ... ... : ... .. . ... ... ... : ... .. . ... ... ... : ... .. . ... ... ...
ROW 60 : ... .. . ... ... ... : ... .. 5 ... ... ... : ... .. . ... ... ... : D-# 00 . ... ... ... : ... .. . ... ... ... : ... .. . ... ... ... : ... .. . ... ... ...
ROW 61 : ... .. 8 ... ... ... : D#2 00 7 ... ... ... : C-4 00 . P7F ... ... : A-# 00 A ... ... ... : ... .. . ... ... ... : F#3 01 4 ... ... ... : ... .. 3 ... ... ...
ROW 62 : ... .. . P82 ... ... : ... .. . ... ... ... : ... .. . ... ... ... : 5-# 01 9 ... ... ... : ... .. . ... ... ... : ... .. . ... ... ... : ... .. . ... ... ...
ROW 63 : ... .. . P83 ... ... : E-1 00 . ... ... ... : D#2 00 . P80 ... ... : 6-# 01 8 ... ... ... : ... .. . ... ... ... : D#3 01 3 ... ... ... : ... .. . ... ... ...
ROW 64 : ... .. . P85 ... ... : D#1 00 . ... ... ... : ... .. . ... ... ... : 7-# 01 7 ... ... ... : ... .. . ... ... ... : ... .. . ... ... ... : D#3 00 . ... ... ...
ROW 65 : ... .. . P86 ... ... : ... .. . ... ... ... : ... .. . ... ... ... : 8-# 01 . ... ... ... : ... .. . ... ... ... : D#3 02 . ... ... ... : ... .. . ... ... ...
ROW 66 : ... .. 9 P87 ... ... : ... .. . ... ... ... : --- .. . ... ... ... : 9-# 00 . ... ... ... : ... .. . ... ... ... : A-3 01 5 ... ... ... : ... .. . ... ... ...
ROW 67 : ... .. . P88 ... ... : ... .. . ... ... ... : ... .. . ... ... ... : 9-# 01 . ... ... ... : ... .. . ... ... ... : ... .. . ... ... ... : ... .. . ... ... ...
ROW 68 : ... .. . P89 ... ... : ... .. . ... ... ... : ... .. . ... ... ... : 9-# 00 6 ... ... ... : ... .. . ... ... ... : F#3 01 4 ... ... ... : ... .. . ... ... ...
ROW 69 : ... .. . ... ... ... : ... .. 6 ... ... ... : ... .. . ... ... ... : 9-# 01 . ... ... ... : ... .. . ... ... ... : ... .. . ... ... ... : ... .. . ... ... ...
ROW 6A : ... .. . ... ... ... : ... .. 5 ... ... ... : ... .. . ... ... ... : 9-# 00 . ... ... ... : ... .. . ... ... ... : F#3 02 . ... ... ... : ... .. . ... ... ...
ROW 6B : ... .. 7 P88 ... ... : D#2 02 9 ... ... ... : D#3 00 . ... ... ... : E-# 00 7 ... ... ... : ... .. . ... ... ... : C#4 01 5 ... ... ... : ... .. . ... ... ...
ROW 6C : ... .. . P87 ... ... : ... .. . ... ... ... : D#2 00 . ... ... ... : B-# 01 . ... ... ... : ... .. . ... ... ... : ... .. . ... ... ... : A#2 00 . ... ... ...
ROW 6D : ... .. 6 P86 ... ... : E-1 02 8 ... ... ... : ... .. . ... ... ... : C-# 00 6 ... ... ... : ... .. . ... ... ... : A#3 01 4 ... ... ... : ... .. 4 ... ... ...
ROW 6E : ... .. . P85 ... ... : D#1 02 . ... ... ... : ... .. . ... ... ... : D-# 00 5 ... ... ... : ... .. . ... ... ... : ... .. . ... ... ... : ... .. . ... ... ...
ROW 6F : ... .. 5 P83 ... ... : ... .. . ... ... ... : ... .. . ... ... ... : C-# 00 4 ... ... ... : ... .. . ... ... ... : A#3 02 . ... ... ... : ... .. . ... ... ...
ROW 70 : ... .. 4 P82 ... ... : ... .. 7 ... ... ... : --- .. . ... ... ... : E-# 00 5 ... ... ... : ... .. . ... ... ... : F#4 01 5 ... ... ... : ... .. 5 ... ... ...
ROW 71 : ... .. . P80 ... ... : ... .. 8 ... ... ... : ... .. . ... ... ... : B-# 01 . ... ... ... : ... .. . ... ... ... : ... .. . ... ... ... : ... .. . ... ... ...
ROW 72 : ... .. 3 P7E ... ... : ... .. 7 ... ... ... : ... .. . ... ... ... : C-# 00 4 ... ... ... : ... .. . ... ... ... : D#4 01 4 ... ... ... : ... .. . ... ... ...
ROW 73 : ... .. . P7D ... ... : ... .. . ... ... ... : ... .. . ... ... ... : D-# 00 3 ... ... ... : ... .. . ... ... ... : ... .. . ... ... ... : ... .. . ... ... ...
ROW 74 : ... .. 2 P7B ... ... : ... .. 6 ... ... ... : ... .. . ... ... ... : C-# 00 . ... ... ... : ... .. . ... ... ... : D#4 02 . ... ... ... : D#3 00 4 ... ... ...
ROW 75 : A-3 02 A P80 ... ... : C#2 00 9 ... ... ... : C#3 00 . ... ... ... : E-# 00 7 ... ... ... : ... .. . ... ... ... : C#4 01 7 ... ... ... : A#2 00 . ... ... ...
ROW 76 : ... .. . ... ... ... : ... .. . ... ... ... : C#2 00 . ... ... ... : B-# 01 . ... ... ... : ... .. . ... ... ... : ... .. . ... ... ... : ... .. 5 ... ... ...
ROW 77 : ... .. . ... ... ... : D-1 00 8 ... ... ... : ... .. . ... ... ... : C-# 00 6 ... ... ... : ... .. . ... ... ... : ... .. 6 ... ... ... : ... .. . ... ... ...
ROW 78 : ... .. . P81 ... ... : C#1 00 . ... ... ... : ... .. . ... ... ... : D-# 00 5 ... ... ... : ... .. . ... ... ... : C#3 01 . ... ... ... : ... .. 6 ... ... ...
ROW 79 : A-3 00 . P82 ... ... : ... .. . ... ... ... : ... .. . ... ... ... : C-# 00 4 ... ... ... : ... .. . ... ... ... : C#3 02 . ... ... ... : ... .. . ... ... ...
ROW 7A : ... .. . P83 ... ... : ... .. 7 ... ... ... : ... .. . ... ... ... : D-# 00 . ... ... ... : ... .. . ... ... ... : ... .. 5 ... ... ... : ... .. . ... ... ...
ROW 7B : ... .. 9 P84 ... ... : ... .. 8 ... ... ... : --- .. . ... ... ... : E-# 00 5 ... ... ... : ... .. . ... ... ... : ... .. . ... ... ... : ... .. . ... ... ...
ROW 7C : ... .. . P85 ... ... : ... .. 7 ... ... ... : ... .. . ... ... ... : B-# 01 . ... ... ... : ... .. . ... ... ... : ... .. . ... ... ... : ... .. . ... ... ...
ROW 7D : ... .. . P86 ... ... : ... .. . ... ... ... : ... .. . ... ... ... : C-# 00 4 ... ... ... : ... .. . ... ... ... : ... .. 4 ... ... ... : D#3 00 7 ... ... ...
ROW 7E : ... .. . P87 ... ... : ... .. 6 ... ... ... : ... .. . ... ... ... : D-# 00 3 ... ... ... : ... .. . ... ... ... : ... .. . ... ... ... : ... .. . ... ... ...
ROW 7F : A#3 00 . P7A ... ... : ... .. 5 ... ... ... : ... .. . ... ... ... : C-# 00 . ... ... ... : ... .. . ... ... ... : ... .. . ... ... ... : ... .. . ... ... ...
ROW 80 : ... .. 8 P7B ... ... : C#2 01 7 ... ... ... : E-4 00 . ... ... ... : D-# 00 6 ... ... ... : ... .. . ... ... ... : ... .. 2 ... ... ... : ... .. 6 ... ... ...
ROW 81 : ... .. . P7C ... ... : ... .. . ... ... ... : A#3 00 . P87 ... ... : 3-# 01 9 ... ... ... : ... .. . ... ... ... : ... .. . ... ... ... : ... .. . ... ... ...
ROW 82 : ... .. 9 P7D ... ... : D-1 01 . ... ... ... : C#2 00 . P80 ... ... : 2-# 01 7 ... ... ... : ... .. . ... ... ... : ... .. 3 ... ... ... : ... .. 5 ... ... ...
ROW 83 : ... .. . P7E ... ... : C#1 01 . ... ... ... : ... .. . ... ... ... : 2-# 00 6 ... ... ... : ... .. . ... ... ... : ... .. 2 ... ... ... : ... .. . ... ... ...
ROW 84 : ... .. . P7F ... ... : ... .. . ... ... ... : ... .. . ... ... ... : 1-# 00 . ... ... ... : ... .. . ... ... ... : ... .. . ... ... ... : ... .. . ... ... ...
ROW 85 : ... .. . P80 ... ... : ... .. . ... ... ... : --- .. . ... ... ... : E-# 00 2 ... ... ... : ... .. . ... ... ... : ... .. . ... ... ... : A#2 00 6 ... ... ...
ROW 86 : ... .. . ... ... ... : ... .. 8 ... ... ... : ... .. . ... ... ... : B-# 01 . ... ... ... : ... .. . ... ... ... : ... .. 1 ... ... ... : ... .. 5 ... ... ...
ROW 87 : ... .. . ... ... ... : ... .. 7 ... ... ... : ... .. . ... ... ... : C-# 00 . ... ... ... : ... .. . ... ... ... : ... .. . ... ... ... : ... .. . ... ... ...
ROW 88 : ... .. . ... ... ... : ... .. 6 ... ... ... : ... .. . ... ... ... : D-# 00 . ... ... ... : ... .. . ... ... ... : ... .. . ... ... ... : ... .. . ... ... ...
ROW 89 : ... .. . ... ... ... : ... .. 5 ... ... ... : ... .. . ... ... ... : C-# 00 1 ... ... ... : ... .. . ... ... ... : ... .. . ... ... ... : ... .. . ... ... ...
ROW 8A : ... .. 8 ... ... ... : C#2 02 7 ... ... ... : C-4 00 . P7F ... ... : A-# 00 A ... ... ... : ... .. . ... ... ... : F#3 01 4 ... ... ... : ... .. 3 ... ... ...
ROW 8B : ... .. . P82 ... ... : ... .. . ... ... ... : ... .. . ... ... ... : 5-# 01 9 ... ... ... : ... .. . ... ... ... : ... .. . ... ... ... : ... .. . ... ... ...
ROW 8C : ... .. . P83 ... ... : D-1 02 6 ... ... ... : A#2 00 . P88 ... ... : 6-# 01 8 ... ... ... : ... .. . ... ... ... : D#3 01 3 ... ... ... : ... .. . ... ... ...
ROW 8D : ... .. . P85 ... ... : C#1 02 7 ... ... ... : C#2 00 . P80 ... ... : 7-# 01 7 ... ... ... : ... .. . ... ... ... : ... .. . ... ... ... : D#3 00 . ... ... ...
ROW 8E : ... .. . P86 ... ... : ... .. . ... ... ... : ... .. . ... ... ... : 8-# 01 . ... ... ... : ... .. . ... ... ... : D#3 02 . ... ... ... : ... .. . ... ... ...
ROW 8F : ... .. 9 P87 ... ... : ... .. . ... ... ... : --- .. . ... ... ... : 9-# 00 . ... ... ... : ... .. . ... ... ... : A-3 01 5 ... ... ... : ... .. . ... ... ...
ROW 90 : B-3 00 . P7A ... ... : ... .. . ... ... ... : ... .. . ... ... ... : 9-# 01 . ... ... ... : ... .. . ... ... ... : ... .. . ... ... ... : ... .. . ... ... ...
ROW 91 : ... .. . P7B ... ... : ... .. . ... ... ... : ... .. . ... ... ... : 9-# 00 6 ... ... ... : ... .. . ... ... ... : F#3 01 4 ... ... ... : ... .. . ... ... ...
ROW 92 : ... .. . ... ... ... : ... .. . ... ... ... : ... .. . ... ... ... : 9-# 01 . ... ... ... : ... .. . ... ... ... : ... .. . ... ... ... : ... .. . ... ... ...
ROW 93 : ... .. . ... ... ... : ... .. 6 ... ... ... : ... .. . ... ... ... : 9-# 00 . ... ... ... : ... .. . ... ... ... : F#3 02 . ... ... ... : ... .. . ... ... ...
ROW 94 : ... .. 7 P7A ... ... : C#2 00 9 ... ... ... : C#3 00 . ... ... ... : E-# 00 7 ... ... ... : ... .. . ... ... ... : C#4 01 5 ... ... ... : ... .. . ... ... ...
ROW 95 : A#3 00 . P87 ... ... : ... .. . ... ... ... : C#2 00 . ... ... ... : B-# 01 . ... ... ... : ... .. . ... ... ... : ... .. . ... ... ... : A#2 00 . ... ... ...
ROW 96 : ... .. 6 P86 ... ... : D-1 00 8 ... ... ... : ... .. . ... ... ... : C-# 00 6 ... ... ... : ... .. . ... ... ... : A#3 01 4 ... ... ... : ... .. 4 ... ... ...
ROW 97 : ... .. . P85 ... ... : C#1 00 . ... ... ... : ... .. . ... ... ... : D-# 00 5 ... ... ... : ... .. . ... ... ... : ... .. . ... ... ... : ... .. . ... ... ...
ROW 98 : ... .. 5 P83 ... ... : ... .. . ... ... ... : ... .. . ... ... ... : C-# 00 4 ... ... ... : ... .. . ... ... ... : A#3 02 . ... ... ... : ... .. . ... ... ...
ROW 99 : ... .. 4 P82 ... ... : ... .. 7 ... ... ... : ... .. . ... ... ... : D-# 00 . ... ... ... : ... .. . ... ... ... : ... .. . ... ... ... : ... .. 5 ... ... ...
ROW 9A : ... .. . P80 ... ... : ... .. 8 ... ... ... : --- .. . ... ... ... : E-# 00 5 ... ... ... : ... .. . ... ... ... : E-4 01 5 ... ... ... : ... .. . ... ... ...
ROW 9B : ... .. 3 P7E ... ... : ... .. 7 ... ... ... : ... .. . ... ... ... : B-# 01 . ... ... ... : ... .. . ... ... ... : ... .. . ... ... ... : ... .. . ... ... ...
ROW 9C : ... .. . P7D ... ... : ... .. . ... ... ... : ... .. . ... ... ... : C-# 00 4 ... ... ... : ... .. . ... ... ... : C#4 01 4 ... ... ... : ... .. . ... ... ...
ROW 9D : ... .. 2 P7B ... ... : ... .. 6 ... ... ... : ... .. . ... ... ... : D-# 00 3 ... ... ... : ... .. . ... ... ... : ... .. . ... ... ... : D#3 00 4 ... ... ...
ROW 9E : ... .. . P7A ... ... : ... .. 5 ... ... ... : ... .. . ... ... ... : C-# 00 . ... ... ... : ... .. . ... ... ... : C#4 02 . ... ... ... : ... .. . ... ... ...
ROW 9F : A-3 02 9 P80 ... ... : C-2 02 7 ... ... ... : E-4 00 . ... ... ... : D-# 00 6 ... ... ... : ... .. . ... ... ... : F#4 01 6 ... ... ... : C-3 00 3 ... ... ...
ROW A0 : ... .. . ... ... ... : ... .. . ... ... ... : A#3 00 . P87 ... ... : 3-# 01 9 ... ... ... : ... .. . ... ... ... : ... .. . ... ... ... : ... .. 4 ... ... ...
ROW A1 : ... .. A ... ... ... : C#1 02 . ... ... ... : C-2 00 . P80 ... ... : 2-# 01 7 ... ... ... : ... .. . ... ... ... : ... .. 5 ... ... ... : ... .. . ... ... ...
ROW A2 : ... .. . ... ... ... : C-1 02 . ... ... ... : ... .. . ... ... ... : 2-# 00 6 ... ... ... : ... .. . ... ... ... : F#3 01 . ... ... ... : ... .. 5 ... ... ...
ROW A3 : A-3 00 . ... ... ... : ... .. . ... ... ... : ... .. . ... ... ... : 1-# 00 . ... ... ... : ... .. . ... ... ... : F#3 02 . ... ... ... : ... .. . ... ... ...
ROW A4 : ... .. . ... ... ... : ... .. . ... ... ... : --- .. . ... ... ... : ... .. 5 ... ... ... : ... .. . ... ... ... : ... .. . ... ... ... : ... .. 6 ... ... ...
ROW A5 : ... .. 9 ... ... ... : ... .. 8 ... ... ... : ... .. . ... ... ... : ... .. 4 ... ... ... : ... .. . ... ... ... : ... .. . ... ... ... : ... .. . ... ... ...
ROW A6 : ... .. . ... ... ... : ... .. 7 ... ... ... : ... .. . ... ... ... : ... .. . ... ... ... : ... .. . ... ... ... : ... .. . ... ... ... : ... .. . ... ... ...
ROW A7 : ... .. . ... ... ... : ... .. . ... ... ... : ... .. . ... ... ... : ... .. 3 ... ... ... : ... .. . ... ... ... : ... .. 4 ... ... ... : F#3 00 7 ... ... ...
ROW A8 : ... .. . ... ... ... : ... .. 6 ... ... ... : ... .. . ... ... ... : ... .. . ... ... ... : ... .. . ... ... ... : ... .. . ... ... ... : ... .. . ... ... ...
ROW A9 : ... .. . ... ... ... : C-2 01 9 ... ... ... : C-3 00 . ... ... ... : E-# 00 7 ... ... ... : ... .. . ... ... ... : ... .. . ... ... ... : ... .. . ... ... ...
ROW AA : ... .. . ... ... ... : ... .. . ... ... ... : C-2 00 . ... ... ... : B-# 01 . ... ... ... : ... .. . ... ... ... : ... .. 3 ... ... ... : ... .. . ... ... ...
ROW AB : ... .. . ... ... ... : C#1 01 8 ... ... ... : ... .. . ... ... ... : C-# 00 6 ... ... ... : ... .. . ... ... ... : ... .. . ... ... ... : ... .. . ... ... ...
ROW AC : ... .. . ... ... ... : C-1 01 . ... ... ... : ... .. . ... ... ... : D-# 00 5 ... ... ... : ... .. . ... ... ... : ... .. . ... ... ... : ... .. 6 ... ... ...
ROW AD : ... .. . ... ... ... : ... .. . ... ... ... : ... .. . ... ... ... : C-# 00 4 ... ... ... : ... .. . ... ... ... : ... .. 2 ... ... ... : ... .. . ... ... ...
ROW AE : ... .. . ... ... ... : ... .. 7 ... ... ... : --- .. . ... ... ... : E-# 00 2 ... ... ... : ... .. . ... ... ... : ... .. . ... ... ... : ... .. . ... ... ...
ROW AF : ... .. . ... ... ... : ... .. 8 ... ... ... : ... .. . ... ... ... : B-# 01 . ... ... ... : ... .. . ... ... ... : ... .. . ... ... ... : C-3 00 . ... ... ...
ROW B0 : ... .. . ... ... ... : ... .. 7 ... ... ... : ... .. . ... ... ... : C-# 00 . ... ... ... : ... .. . ... ... ... : ... .. 1 ... ... ... : ... .. 5 ... ... ...
ROW B1 : ... .. . ... ... ... : ... .. . ... ... ... : ... .. . ... ... ... : D-# 00 . ... ... ... : ... .. . ... ... ... : ... .. . ... ... ... : ... .. . ... ... ...
ROW B2 : ... .. . ... ... ... : ... .. 6 ... ... ... : ... .. . ... ... ... : C-# 00 1 ... ... ... : ... .. . ... ... ... : ... .. . ... ... ... : ... .. . ... ... ...
ROW B3 : ... .. 8 ... ... ... : C-2 00 7 ... ... ... : C-4 00 . P7F ... ... : A-# 00 A ... ... ... : ... .. . ... ... ... : D#3 01 4 ... ... ... : ... .. 4 ... ... ...
ROW B4 : ... .. . P82 ... ... : ... .. . ... ... ... : ... .. . ... ... ... : 5-# 01 9 ... ... ... : ... .. . ... ... ... : ... .. . ... ... ... : ... .. 3 ... ... ...
ROW B5 : ... .. . P83 ... ... : C#1 00 6 ... ... ... : A#2 00 . P88 ... ... : 6-# 01 8 ... ... ... : ... .. . ... ... ... : C-3 01 3 ... ... ... : ... .. . ... ... ...
ROW B6 : ... .. . P85 ... ... : C-1 00 7 ... ... ... : C-2 00 . P80 ... ... : 7-# 01 7 ... ... ... : ... .. . ... ... ... : ... .. . ... ... ... : ... .. . ... ... ...
ROW B7 : ... .. . P86 ... ... : ... .. . ... ... ... : ... .. . ... ... ... : 8-# 01 . ... ... ... : ... .. . ... ... ... : C-3 02 . ... ... ... : F#3 00 . ... ... ...
ROW B8 : ... .. . P87 ... ... : ... .. 6 ... ... ... : ... .. . ... ... ... : 9-# 00 . ... ... ... : ... .. . ... ... ... : ... .. . ... ... ... : ... .. . ... ... ...
ROW B9 : A#3 00 9 P7A ... ... : ... .. 7 ... ... ... : --- .. . ... ... ... : 9-# 01 . ... ... ... : ... .. . ... ... ... : F#3 01 5 ... ... ... : ... .. . ... ... ...
ROW BA : ... .. . P7B ... ... : ... .. . ... ... ... : ... .. . ... ... ... : 9-# 00 6 ... ... ... : ... .. . ... ... ... : ... .. . ... ... ... : ... .. . ... ... ...
ROW BB : ... .. . ... ... ... : ... .. . ... ... ... : ... .. . ... ... ... : 9-# 01 . ... ... ... : ... .. . ... ... ... : D#3 01 4 ... ... ... : ... .. . ... ... ...
ROW BC : ... .. . ... ... ... : ... .. 6 ... ... ... : ... .. . ... ... ... : 9-# 00 . ... ... ... : ... .. . ... ... ... : ... .. . ... ... ... : ... .. . ... ... ...
ROW BD : ... .. . P7A ... ... : ... .. 5 ... ... ... : ... .. . ... ... ... : ... .. . ... ... ... : ... .. . ... ... ... : D#3 02 . ... ... ... : ... .. . ... ... ...
ROW BE : A-3 00 7 P87 ... ... : C-2 02 9 ... ... ... : C-3 00 . ... ... ... : E-# 00 7 ... ... ... : ... .. . ... ... ... : A-3 01 5 ... ... ... : ... .. . ... ... ...
ROW BF : ... .. . P86 ... ... : ... .. . ... ... ... : C-2 00 . ... ... ... : B-# 01 . ... ... ... : ... .. . ... ... ... : ... .. . ... ... ... : C-3 00 . ... ... ...
ROW C0 : ... .. 6 P85 ... ... : C#1 02 8 ... ... ... : ... .. . ... ... ... : C-# 00 6 ... ... ... : ... .. . ... ... ... : F#3 01 4 ... ... ... : ... .. 4 ... ... ...
ROW C1 : ... .. . P83 ... ... : C-1 02 . ... ... ... : ... .. . ... ... ... : D-# 00 5 ... ... ... : ... .. . ... ... ... : ... .. . ... ... ... : ... .. . ... ... ...
ROW C2 : ... .. 5 P82 ... ... : ... .. . ... ... ... : ... .. . ... ... ... : C-# 00 4 ... ... ... : ... .. . ... ... ... : F#3 02 . ... ... ... : ... .. . ... ... ...
ROW C3 : ... .. 4 P80 ... ... : ... .. 7 ... ... ... : --- .. . ... ... ... : E-# 00 5 ... ... ... : ... .. . ... ... ... : C-4 01 5 ... ... ... : ... .. 5 ... ... ...
ROW C4 : ... .. . P7E ... ... : ... .. 8 ... ... ... : ... .. . ... ... ... : B-# 01 . ... ... ... : ... .. . ... ... ... : ... .. . ... ... ... : ... .. . ... ... ...
ROW C5 : ... .. 3 P7D ... ... : ... .. 7 ... ... ... : ... .. . ... ... ... : C-# 00 4 ... ... ... : ... .. . ... ... ... : A-3 01 4 ... ... ... : ... .. . ... ... ...
ROW C6 : ... .. . P7B ... ... : ... .. . ... ... ... : ... .. . ... ... ... : D-# 00 3 ... ... ... : ... .. . ... ... ... : ... .. . ... ... ... : ... .. . ... ... ...
ROW C7 : ... .. 2 P7A ... ... : ... .. 6 ... ... ... : ... .. . ... ... ... : C-# 00 . ... ... ... : ... .. . ... ... ... : A-3 02 . ... ... ... : F#3 00 4 ... ... ...
ROW C8 : D#3 02 A P80 ... ... : C-2 00 9 ... ... ... : C-3 00 . ... ... ... : E-# 00 7 ... ... ... : ... .. . ... ... ... : F#4 01 5 ... ... ... : A-2 00 . ... ... ...
ROW C9 : ... .. . ... ... ... : ... .. . ... ... ... : C-2 00 . ... ... ... : B-# 01 . ... ... ... : ... .. . ... ... ... : ... .. . ... ... ... : ... .. 5 ... ... ...
ROW CA : ... .. . ... ... ... : C#1 00 8 ... ... ... : ... .. . ... ... ... : C-# 00 6 ... ... ... : ... .. . ... ... ... : D#4 01 4 ... ... ... : ... .. . ... ... ...
ROW CB : ... .. . ... ... ... : C-1 00 . ... ... ... : ... .. . ... ... ... : D-# 00 5 ... ... ... : ... .. . ... ... ... : ... .. . ... ... ... : ... .. 6 ... ... ...
ROW CC : D#3 00 . ... ... ... : ... .. . ... ... ... : ... .. . ... ... ... : C-# 00 4 ... ... ... : ... .. . ... ... ... : D#4 02 . ... ... ... : ... .. . ... ... ...
ROW CD : ... .. . ... ... ... : ... .. 7 ... ... ... : --- .. . ... ... ... : E-# 00 5 ... ... ... : ... .. . ... ... ... : D#4 01 5 ... ... ... : ... .. . ... ... ...
ROW CE : ... .. 9 ... ... ... : ... .. 8 ... ... ... : ... .. . ... ... ... : B-# 01 . ... ... ... : ... .. . ... ... ... : ... .. . ... ... ... : ... .. . ... ... ...
ROW CF : ... .. . ... ... ... : ... .. 7 ... ... ... : ... .. . ... ... ... : C-# 00 4 ... ... ... : ... .. . ... ... ... : C-4 01 4 ... ... ... : ... .. . ... ... ...
ROW D0 : ... .. . ... ... ... : ... .. . ... ... ... : ... .. . ... ... ... : D-# 00 3 ... ... ... : ... .. . ... ... ... : ... .. . ... ... ... : D#3 00 7 ... ... ...
ROW D1 : ... .. . ... ... ... : ... .. 6 ... ... ... : ... .. . ... ... ... : C-# 00 . ... ... ... : ... .. . ... ... ... : C-4 02 . ... ... ... : ... .. . ... ... ...
ROW D2 : ... .. . ... ... ... : ... .. 5 ... ... ... : ... .. . ... ... ... : D-# 00 . ... ... ... : ... .. . ... ... ... : ... .. . ... ... ... : ... .. . ... ... ...
ROW D3 : ... .. 8 ... ... ... : C-2 01 7 ... ... ... : E-4 00 . ... ... ... : ... .. 6 ... ... ... : ... .. . ... ... ... : C-4 01 . ... ... ... : ... .. 6 ... ... ...
ROW D4 : ... .. . ... ... ... : ... .. . ... ... ... : A#3 00 . P87 ... ... : 3-# 01 9 ... ... ... : ... .. . ... ... ... : ... .. . ... ... ... : ... .. . ... ... ...
ROW D5 : ... .. 9 ... ... ... : C#1 01 . ... ... ... : C-2 00 . P80 ... ... : 2-# 01 7 ... ... ... : ... .. . ... ... ... : A-3 01 3 ... ... ... : ... .. 5 ... ... ...
ROW D6 : ... .. . ... ... ... : C-1 01 . ... ... ... : ... .. . ... ... ... : 2-# 00 6 ... ... ... : ... .. . ... ... ... : ... .. . ... ... ... : ... .. . ... ... ...
ROW D7 : ... .. . ... ... ... : ... .. . ... ... ... : ... .. . ... ... ... : 1-# 00 . ... ... ... : ... .. . ... ... ... : A-3 02 . ... ... ... : ... .. . ... ... ...
ROW D8 : ... .. . ... ... ... : ... .. . ... ... ... : --- .. . ... ... ... : E-# 00 2 ... ... ... : ... .. . ... ... ... : A-3 01 5 ... ... ... : A-2 00 6 ... ... ...
ROW D9 : ... .. . ... ... ... : ... .. 8 ... ... ... : ... .. . ... ... ... : B-# 01 . ... ... ... : ... .. . ... ... ... : ... .. . ... ... ... : ... .. 5 ... ... ...
ROW DA : A-3 00 4 ... ... ... : ... .. 7 ... ... ... : ... .. . ... ... ... : C-# 00 . ... ... ... : ... .. . ... ... ... : F#3 01 4 ... ... ... : ... .. . ... ... ...
ROW DB : ... .. . ... ... ... : ... .. 6 ... ... ... : ... .. . ... ... ... : D-# 00 . ... ... ... : ... .. . ... ... ... : ... .. . ... ... ... : ... .. . ... ... ...
ROW DC : ... .. . ... ... ... : ... .. 5 ... ... ... : ... .. . ... ... ... : C-# 00 1 ... ... ... : ... .. . ... ... ... : F#3 02 . ... ... ... : ... .. . ... ... ...
ROW DD : F#3 02 9 ... ... ... : C-2 02 7 ... ... ... : C-4 00 . P7F ... ... : A-# 00 A ... ... ... : ... .. . ... ... ... : D#4 01 . ... ... ... : ... .. 3 ... ... ...
ROW DE : ... .. . ... ... ... : ... .. . ... ... ... : ... .. . ... ... ... : 5-# 01 9 ... ... ... : ... .. . ... ... ... : ... .. . ... ... ... : ... .. . ... ... ...
ROW DF : ... .. . ... ... ... : C#1 02 . ... ... ... : C-2 00 . P80 ... ... : 6-# 01 8 ... ... ... : ... .. . ... ... ... : C-4 01 3 ... ... ... : ... .. . ... ... ...
ROW E0 : ... .. . ... ... ... : C-1 02 . ... ... ... : ... .. . ... ... ... : 7-# 01 7 ... ... ... : ... .. . ... ... ... : ... .. . ... ... ... : D#3 00 . ... ... ...
ROW E1 : F#3 00 . ... ... ... : ... .. . ... ... ... : ... .. . ... ... ... : 8-# 01 . ... ... ... : ... .. . ... ... ... : C-4 02 . ... ... ... : ... .. . ... ... ...
ROW E2 : ... .. A ... ... ... : ... .. . ... ... ... : --- .. . ... ... ... : 9-# 00 . ... ... ... : ... .. . ... ... ... : C-4 01 5 ... ... ... : ... .. . ... ... ...
ROW E3 : ... .. 9 ... ... ... : ... .. . ... ... ... : ... .. . ... ... ... : 9-# 01 . ... ... ... : ... .. . ... ... ... : ... .. . ... ... ... : ... .. . ... ... ...
ROW E4 : ... .. . ... ... ... : ... .. . ... ... ... : ... .. . ... ... ... : 9-# 00 6 ... ... ... : ... .. . ... ... ... : A-3 01 4 ... ... ... : ... .. . ... ... ...
ROW E5 : ... .. . ... ... ... : ... .. . ... ... ... : ... .. . ... ... ... : 9-# 01 . ... ... ... : ... .. . ... ... ... : ... .. . ... ... ... : ... .. . ... ... ...
ROW E6 : ... .. . ... ... ... : ... .. 6 ... ... ... : ... .. . ... ... ... : 9-# 00 . ... ... ... : ... .. . ... ... ... : A-3 02 . ... ... ... : ... .. . ... ... ...
ROW E7 : D#3 00 4 ... ... ... : C-2 00 9 ... ... ... : C-3 00 . ... ... ... : E-# 00 7 ... ... ... : ... .. . ... ... ... : A-3 01 5 ... ... ... : ... .. . ... ... ...
ROW E8 : ... .. . ... ... ... : ... .. . ... ... ... : C-2 00 . ... ... ... : B-# 01 . ... ... ... : ... .. . ... ... ... : ... .. . ... ... ... : A-2 00 . ... ... ...
ROW E9 : ... .. . ... ... ... : C#1 00 8 ... ... ... : ... .. . ... ... ... : C-# 00 6 ... ... ... : ... .. . ... ... ... : F#3 01 4 ... ... ... : ... .. 4 ... ... ...
ROW EA : ... .. . ... ... ... : C-1 00 . ... ... ... : ... .. . ... ... ... : D-# 00 5 ... ... ... : ... .. . ... ... ... : ... .. . ... ... ... : ... .. . ... ... ...
ROW EB : ... .. . ... ... ... : ... .. . ... ... ... : ... .. . ... ... ... : C-# 00 4 ... ... ... : ... .. . ... ... ... : F#3 02 . ... ... ... : ... .. . ... ... ...
ROW EC : ... .. . ... ... ... : ... .. 7 ... ... ... : --- .. . ... ... ... : E-# 00 5 ... ... ... : ... .. . ... ... ... : F#3 01 5 ... ... ... : ... .. 5 ... ... ...
ROW ED : ... .. 3 ... ... ... : ... .. 8 ... ... ... : ... .. . ... ... ... : B-# 01 . ... ... ... : ... .. . ... ... ... : ... .. . ... ... ... : ... .. . ... ... ...
ROW EE : ... .. . ... ... ... : ... .. 7 ... ... ... : ... .. . ... ... ... : C-# 00 4 ... ... ... : ... .. . ... ... ... : D#3 01 4 ... ... ... : ... .. . ... ... ...
ROW EF : ... .. . ... ... ... : ... .. . ... ... ... : ... .. . ... ... ... : D-# 00 3 ... ... ... : ... .. . ... ... ... : ... .. . ... ... ... : ... .. . ... ... ...
ROW F0 : ... .. . ... ... ... : ... .. 6 ... ... ... : ... .. . ... ... ... : C-# 00 . ... ... ... : ... .. . ... ... ... : D#3 02 . ... ... ... : D#3 00 4 ... ... ...
ROW F1 : ... .. . ... ... ... : ... .. 5 ... ... ... : ... .. . ... ... ... : D-# 00 . ... ... ... : ... .. . ... ... ... : ... .. . ... ... ... : ... .. . ... ... ...
ROW F2 : G#3 02 9 ... ... ... : C#2 02 7 ... ... ... : E-4 00 . ... ... ... : ... .. 6 ... ... ... : ... .. . ... ... ... : C#4 01 6 ... ... ... : C#3 00 3 ... ... ...
ROW F3 : ... .. . ... ... ... : ... .. . ... ... ... : A#3 00 . P87 ... ... : 3-# 01 9 ... ... ... : ... .. . ... ... ... : ... .. . ... ... ... : ... .. 4 ... ... ...
ROW F4 : ... .. A ... ... ... : D-1 02 . ... ... ... : C#2 00 . P80 ... ... : 2-# 01 7 ... ... ... : ... .. . ... ... ... : ... .. 5 ... ... ... : ... .. . ... ... ...
ROW F5 : ... .. . ... ... ... : C#1 02 . ... ... ... : ... .. . ... ... ... : 2-# 00 6 ... ... ... : ... .. . ... ... ... : C#3 01 . ... ... ... : ... .. 5 ... ... ...
ROW F6 : G#3 00 . ... ... ... : ... .. . ... ... ... : ... .. . ... ... ... : 1-# 00 . ... ... ... : ... .. . ... ... ... : C#3 02 . ... ... ... : ... .. . ... ... ...
ROW F7 : ... .. . ... ... ... : ... .. . ... ... ... : --- .. . ... ... ... : ... .. 5 ... ... ... : ... .. . ... ... ... : ... .. . ... ... ... : ... .. 6 ... ... ...
ROW F8 : ... .. 9 ... ... ... : ... .. 8 ... ... ... : ... .. . ... ... ... : ... .. 4 ... ... ... : ... .. . ... ... ... : ... .. . ... ... ... : ... .. . ... ... ...
ROW F9 : ... .. . ... ... ... : ... .. 7 ... ... ... : ... .. . ... ... ... : ... .. . ... ... ... : ... .. . ... ... ... : ... .. . ... ... ... : ... .. . ... ... ...
ROW FA : ... .. . ... ... ... : ... .. 6 ... ... ... : ... .. . ... ... ... : ... .. 3 ... ... ... : ... .. . ... ... ... : ... .. 4 ... ... ... : F-3 00 7 ... ... ...
ROW FB : ... .. . ... ... ... : ... .. 5 ... ... ... : ... .. . ... ... ... : ... .. . ... ... ... : ... .. . ... ... ... : ... .. . ... ... ... : ... .. . ... ... ...
ROW FC : ... .. . ... ... ... : C#2 01 9 ... ... ... : C#3 00 . ... ... ... : E-# 00 7 ... ... ... : ... .. . ... ... ... : ... .. . ... ... ... : ... .. . ... ... ...
ROW FD : ... .. . P82 ... ... : ... .. . ... ... ... : C#2 00 . ... ... ... : B-# 01 . ... ... ... : ... .. . ... ... ... : ... .. 3 ... ... ... : ... .. . ... ... ...
ROW FE : ... .. . P83 ... ... : D-1 01 8 ... ... ... : ... .. . ... ... ... : C-# 00 6 ... ... ... : ... .. . ... ... ... : ... .. . ... ... ... : ... .. . ... ... ...
ROW FF : ... .. . P85 ... ... : C#1 01 . ... ... ... : ... .. . ... ... ... : D-# 00 5 ... ... ... : ... .. . ... ... ... : ... .. . ... ... ... : ... .. 6 ... ... ...

PATTERN 02
ROW 00 : ... .. . P86 ... ... : ... .. . ... ... ... : ... .. . ... ... ... : C-# 00 4 ... ... ... : ... .. . ... ... ... : ... .. 2 ... ... ... : ... .. . ... ... ...
ROW 01 : ... .. . P87 ... ... : ... .. 7 ... ... ... : --- .. . ... ... ... : E-# 00 2 ... ... ... : ... .. . ... ... ... : ... .. . ... ... ... : ... .. . ... ... ...
ROW 02 : A-3 00 . P79 ... ... : ... .. 8 ... ... ... : ... .. . ... ... ... : B-# 01 . ... ... ... : ... .. . ... ... ... : ... .. . ... ... ... : C#3 00 . ... ... ...
ROW 03 : ... .. . P7A ... ... : ... .. 7 ... ... ... : ... .. . ... ... ... : C-# 00 . ... ... ... : ... .. . ... ... ... : ... .. 1 ... ... ... : ... .. 5 ... ... ...
ROW 04 : D#3 00 4 P89 ... ... : ... .. . ... ... ... : ... .. . ... ... ... : D-# 00 . ... ... ... : ... .. . ... ... ... : ... .. . ... ... ... : ... .. . ... ... ...
ROW 05 : ... .. . ... ... ... : ... .. 6 ... ... ... : ... .. . ... ... ... : C-# 00 1 ... ... ... : ... .. . ... ... ... : ... .. . ... ... ... : ... .. . ... ... ...
ROW 06 : F#3 02 9 P80 ... ... : C#2 00 7 ... ... ... : C-4 00 . P7F ... ... : A-# 00 A ... ... ... : ... .. . ... ... ... : E-4 01 4 ... ... ... : ... .. 4 ... ... ...
ROW 07 : ... .. . ... ... ... : ... .. . ... ... ... : ... .. . ... ... ... : 5-# 01 9 ... ... ... : ... .. . ... ... ... : ... .. . ... ... ... : ... .. 3 ... ... ...
ROW 08 : ... .. . ... ... ... : D-1 00 6 ... ... ... : A#2 00 . P88 ... ... : 6-# 01 8 ... ... ... : ... .. . ... ... ... : C#4 01 3 ... ... ... : ... .. . ... ... ...
ROW 09 : ... .. . ... ... ... : C#1 00 7 ... ... ... : C#2 00 . P80 ... ... : 7-# 01 7 ... ... ... : ... .. . ... ... ... : ... .. . ... ... ... : ... .. . ... ... ...
ROW 0A : F#3 00 . ... ... ... : ... .. . ... ... ... : ... .. . ... ... ... : 8-# 01 . ... ... ... : ... .. . ... ... ... : C#4 02 . ... ... ... : F-3 00 . ... ... ...
ROW 0B : ... .. . ... ... ... : ... .. 6 ... ... ... : ... .. . ... ... ... : 9-# 00 . ... ... ... : ... .. . ... ... ... : ... .. . ... ... ... : ... .. . ... ... ...
ROW 0C : ... .. . P85 ... ... : ... .. 7 ... ... ... : --- .. . ... ... ... : 9-# 01 . ... ... ... : ... .. . ... ... ... : C#4 01 5 ... ... ... : ... .. . ... ... ...
ROW 0D : G-3 00 . P78 ... ... : ... .. . ... ... ... : ... .. . ... ... ... : 9-# 00 6 ... ... ... : ... .. . ... ... ... : ... .. . ... ... ... : ... .. . ... ... ...
ROW 0E : ... .. . P7D ... ... : ... .. . ... ... ... : ... .. . ... ... ... : 9-# 01 . ... ... ... : ... .. . ... ... ... : A#3 01 4 ... ... ... : ... .. . ... ... ...
ROW 0F : ... .. . P81 ... ... : ... .. 6 ... ... ... : ... .. . ... ... ... : 9-# 00 . ... ... ... : ... .. . ... ... ... : ... .. . ... ... ... : ... .. . ... ... ...
ROW 10 : ... .. . P86 ... ... : ... .. 5 ... ... ... : ... .. . ... ... ... : ... .. . ... ... ... : ... .. . ... ... ... : A#3 02 . ... ... ... : ... .. . ... ... ...
ROW 11 : G#3 00 . P7A ... ... : C#2 02 9 ... ... ... : C#3 00 . ... ... ... : E-# 00 7 ... ... ... : ... .. . ... ... ... : B-3 01 5 ... ... ... : ... .. . ... ... ...
ROW 12 : ... .. . P7F ... ... : ... .. . ... ... ... : C#2 00 . ... ... ... : B-# 01 . ... ... ... : ... .. . ... ... ... : ... .. . ... ... ... : C#3 00 . ... ... ...
ROW 13 : ... .. . P7D ... ... : D-1 02 8 ... ... ... : ... .. . ... ... ... : C-# 00 6 ... ... ... : ... .. . ... ... ... : G#3 01 4 ... ... ... : ... .. 4 ... ... ...
ROW 14 : ... .. . P79 ... ... : C#1 02 . ... ... ... : ... .. . ... ... ... : D-# 00 5 ... ... ... : ... .. . ... ... ... : ... .. . ... ... ... : ... .. . ... ... ...
ROW 15 : G-3 00 . P86 ... ... : ... .. . ... ... ... : ... .. . ... ... ... : C-# 00 4 ... ... ... : ... .. . ... ... ... : G#3 02 . ... ... ... : ... .. . ... ... ...
ROW 16 : ... .. . P82 ... ... : ... .. 7 ... ... ... : --- .. . ... ... ... : E-# 00 5 ... ... ... : ... .. . ... ... ... : G#3 01 5 ... ... ... : ... .. 5 ... ... ...
ROW 17 : ... .. . P80 ... ... : ... .. 8 ... ... ... : ... .. . ... ... ... : B-# 01 . ... ... ... : ... .. . ... ... ... : ... .. . ... ... ... : ... .. . ... ... ...
ROW 18 : G#3 00 4 ... ... ... : ... .. 7 ... ... ... : ... .. . ... ... ... : C-# 00 4 ... ... ... : ... .. . ... ... ... : F-3 01 4 ... ... ... : ... .. . ... ... ...
ROW 19 : ... .. . ... ... ... : ... .. 6 ... ... ... : ... .. . ... ... ... : D-# 00 3 ... ... ... : ... .. . ... ... ... : ... .. . ... ... ... : ... .. . ... ... ...
ROW 1A : ... .. . ... ... ... : ... .. 5 ... ... ... : ... .. . ... ... ... : C-# 00 . ... ... ... : ... .. . ... ... ... : F-3 02 . ... ... ... : F-3 00 4 ... ... ...
ROW 1B : F-3 02 A ... ... ... : C#2 00 9 ... ... ... : C#3 00 . ... ... ... : E-# 00 7 ... ... ... : ... .. . ... ... ... : E-3 01 5 ... ... ... : ... .. . ... ... ...
ROW 1C : ... .. . ... ... ... : ... .. . ... ... ... : C#2 00 . ... ... ... : B-# 01 . ... ... ... : ... .. . ... ... ... : ... .. . ... ... ... : ... .. . ... ... ...
ROW 1D : ... .. . ... ... ... : D-1 00 8 ... ... ... : ... .. . ... ... ... : C-# 00 6 ... ... ... : ... .. . ... ... ... : C#3 01 4 ... ... ... : ... .. . ... ... ...
ROW 1E : ... .. . ... ... ... : C#1 00 . ... ... ... : ... .. . ... ... ... : D-# 00 5 ... ... ... : ... .. . ... ... ... : ... .. . ... ... ... : ... .. . ... ... ...
ROW 1F : F-3 00 . ... ... ... : ... .. . ... ... ... : ... .. . ... ... ... : C-# 00 4 ... ... ... : ... .. . ... ... ... : C#3 02 . ... ... ... : ... .. 3 ... ... ...
ROW 20 : ... .. . ... ... ... : ... .. 7 ... ... ... : --- .. . ... ... ... : E-# 00 5 ... ... ... : ... .. . ... ... ... : G#3 01 5 ... ... ... : ... .. . ... ... ...
ROW 21 : ... .. 9 ... ... ... : ... .. 8 ... ... ... : ... .. . ... ... ... : B-# 01 . ... ... ... : ... .. . ... ... ... : ... .. . ... ... ... : ... .. . ... ... ...
ROW 22 : ... .. . ... ... ... : ... .. 7 ... ... ... : ... .. . ... ... ... : C-# 00 4 ... ... ... : ... .. . ... ... ... : F-3 01 4 ... ... ... : C#3 00 . ... ... ...
ROW 23 : ... .. . ... ... ... : ... .. . ... ... ... : ... .. . ... ... ... : D-# 00 3 ... ... ... : ... .. . ... ... ... : ... .. . ... ... ... : ... .. . ... ... ...
ROW 24 : ... .. . ... ... ... : ... .. 6 ... ... ... : ... .. . ... ... ... : C-# 00 . ... ... ... : ... .. . ... ... ... : F-3 02 . ... ... ... : ... .. . ... ... ...
ROW 25 : ... .. 8 ... ... ... : C#2 01 7 ... ... ... : E-4 00 . ... ... ... : D-# 00 6 ... ... ... : ... .. . ... ... ... : B-3 01 . ... ... ... : ... .. 2 ... ... ...
ROW 26 : ... .. . P82 ... ... : ... .. . ... ... ... : A#3 00 . P87 ... ... : 3-# 01 9 ... ... ... : ... .. . ... ... ... : ... .. . ... ... ... : ... .. 3 ... ... ...
ROW 27 : ... .. . P83 ... ... : D-1 01 6 ... ... ... : F#3 00 . P86 ... ... : 2-# 01 7 ... ... ... : ... .. . ... ... ... : G#3 01 3 ... ... ... : ... .. . ... ... ...
ROW 28 : ... .. 9 P85 ... ... : C#1 01 7 ... ... ... : C#2 00 . P80 ... ... : 2-# 00 6 ... ... ... : ... .. . ... ... ... : ... .. . ... ... ... : ... .. . ... ... ...
ROW 29 : ... .. . P86 ... ... : ... .. . ... ... ... : ... .. . ... ... ... : 1-# 00 . ... ... ... : ... .. . ... ... ... : G#3 02 . ... ... ... : ... .. 4 ... ... ...
ROW 2A : ... .. . P87 ... ... : ... .. 6 ... ... ... : ... .. . ... ... ... : ... .. 5 ... ... ... : ... .. . ... ... ... : ... .. . ... ... ... : F-3 00 . ... ... ...
ROW 2B : ... .. . P88 ... ... : ... .. 8 ... ... ... : --- .. . ... ... ... : E-# 00 2 ... ... ... : ... .. . ... ... ... : C#4 01 5 ... ... ... : ... .. 5 ... ... ...
ROW 2C : ... .. . P89 ... ... : ... .. 7 ... ... ... : ... .. . ... ... ... : B-# 01 . ... ... ... : ... .. . ... ... ... : ... .. . ... ... ... : ... .. . ... ... ...
ROW 2D : G-3 00 4 P78 ... ... : ... .. . ... ... ... : ... .. . ... ... ... : C-# 00 . ... ... ... : ... .. . ... ... ... : A#3 01 4 ... ... ... : ... .. 4 ... ... ...
ROW 2E : ... .. . ... ... ... : ... .. 6 ... ... ... : ... .. . ... ... ... : D-# 00 . ... ... ... : ... .. . ... ... ... : ... .. . ... ... ... : ... .. . ... ... ...
ROW 2F : F#3 00 . P88 ... ... : ... .. 5 ... ... ... : ... .. . ... ... ... : C-# 00 1 ... ... ... : ... .. . ... ... ... : A#3 02 . ... ... ... : ... .. . ... ... ...
ROW 30 : F#3 02 9 P80 ... ... : C#2 02 7 ... ... ... : C-4 00 . P7F ... ... : A-# 00 A ... ... ... : ... .. . ... ... ... : G#3 01 . ... ... ... : ... .. 3 ... ... ...
ROW 31 : ... .. . ... ... ... : ... .. . ... ... ... : ... .. . ... ... ... : 5-# 01 9 ... ... ... : ... .. . ... ... ... : ... .. . ... ... ... : ... .. . ... ... ...
ROW 32 : ... .. . ... ... ... : D-1 02 . ... ... ... : C#2 00 . P80 ... ... : 6-# 01 8 ... ... ... : ... .. . ... ... ... : F-3 01 3 ... ... ... : C#3 00 . ... ... ...
ROW 33 : ... .. . ... ... ... : C#1 02 . ... ... ... : ... .. . ... ... ... : 7-# 01 7 ... ... ... : ... .. . ... ... ... : ... .. . ... ... ... : ... .. . ... ... ...
ROW 34 : F#3 00 . ... ... ... : ... .. . ... ... ... : ... .. . ... ... ... : 8-# 01 . ... ... ... : ... .. . ... ... ... : F-3 02 . ... ... ... : ... .. . ... ... ...
ROW 35 : ... .. A ... ... ... : ... .. . ... ... ... : --- .. . ... ... ... : 9-# 00 . ... ... ... : ... .. . ... ... ... : B-3 01 5 ... ... ... : ... .. . ... ... ...
ROW 36 : ... .. 9 ... ... ... : ... .. . ... ... ... : ... .. . ... ... ... : 9-# 01 . ... ... ... : ... .. . ... ... ... : ... .. . ... ... ... : ... .. . ... ... ...
ROW 37 : ... .. . ... ... ... : ... .. . ... ... ... : ... .. . ... ... ... : 9-# 00 6 ... ... ... : ... .. . ... ... ... : G#3 01 4 ... ... ... : ... .. . ... ... ...
ROW 38 : ... .. . ... ... ... : ... .. . ... ... ... : ... .. . ... ... ... : 9-# 01 . ... ... ... : ... .. . ... ... ... : ... .. . ... ... ... : ... .. . ... ... ...
ROW 39 : ... .. . ... ... ... : ... .. 6 ... ... ... : ... .. . ... ... ... : 9-# 00 . ... ... ... : ... .. . ... ... ... : G#3 02 . ... ... ... : ... .. 4 ... ... ...
ROW 3A : ... .. . ... ... ... : C#2 00 9 ... ... ... : C#3 00 . ... ... ... : E-# 00 7 ... ... ... : ... .. . ... ... ... : C#4 01 5 ... ... ... : F-3 00 . ... ... ...
ROW 3B : ... .. . ... ... ... : ... .. . ... ... ... : C#2 00 . ... ... ... : B-# 01 . ... ... ... : ... .. . ... ... ... : ... .. . ... ... ... : ... .. . ... ... ...
ROW 3C : ... .. . ... ... ... : D-1 00 8 ... ... ... : ... .. . ... ... ... : C-# 00 6 ... ... ... : ... .. . ... ... ... : A#3 01 4 ... ... ... : ... .. 5 ... ... ...
ROW 3D : F-3 00 4 ... ... ... : C#1 00 . ... ... ... : ... .. . ... ... ... : D-# 00 5 ... ... ... : ... .. . ... ... ... : ... .. . ... ... ... : ... .. . ... ... ...
ROW 3E : ... .. . ... ... ... : ... .. . ... ... ... : ... .. . ... ... ... : C-# 00 4 ... ... ... : ... .. . ... ... ... : A#3 02 . ... ... ... : ... .. . ... ... ...
ROW 3F : ... .. . ... ... ... : ... .. 7 ... ... ... : --- .. . ... ... ... : E-# 00 5 ... ... ... : ... .. . ... ... ... : E-4 01 5 ... ... ... : ... .. . ... ... ...
ROW 40 : ... .. . ... ... ... : ... .. 8 ... ... ... : ... .. . ... ... ... : B-# 01 . ... ... ... : ... .. . ... ... ... : ... .. . ... ... ... : ... .. 4 ... ... ...
ROW 41 : ... .. . ... ... ... : ... .. 7 ... ... ... : ... .. . ... ... ... : C-# 00 4 ... ... ... : ... .. . ... ... ... : C#4 01 4 ... ... ... : ... .. . ... ... ...
ROW 42 : ... .. . ... ... ... : ... .. . ... ... ... : ... .. . ... ... ... : D-# 00 3 ... ... ... : ... .. . ... ... ... : ... .. . ... ... ... : C#3 00 . ... ... ...
ROW 43 : ... .. 3 ... ... ... : ... .. 6 ... ... ... : ... .. . ... ... ... : C-# 00 . ... ... ... : ... .. . ... ... ... : C#4 02 . ... ... ... : ... .. . ... ... ...
ROW 44 : G#3 02 9 ... ... ... : D-2 02 7 ... ... ... : E-4 00 . ... ... ... : D-# 00 6 ... ... ... : ... .. . ... ... ... : F#4 01 6 ... ... ... : D-3 00 3 ... ... ...
ROW 45 : ... .. . ... ... ... : ... .. . ... ... ... : A#3 00 . P87 ... ... : 3-# 01 9 ... ... ... : ... .. . ... ... ... : ... .. . ... ... ... : ... .. 4 ... ... ...
ROW 46 : ... .. . ... ... ... : D#1 02 6 ... ... ... : F#3 00 . P86 ... ... : 2-# 01 7 ... ... ... : ... .. . ... ... ... : ... .. 5 ... ... ... : ... .. . ... ... ...
ROW 47 : ... .. A ... ... ... : D-1 02 7 ... ... ... : D-2 00 . P80 ... ... : 2-# 00 6 ... ... ... : ... .. . ... ... ... : F#3 01 . ... ... ... : ... .. 5 ... ... ...
ROW 48 : G#3 00 . ... ... ... : ... .. . ... ... ... : ... .. . ... ... ... : 1-# 00 . ... ... ... : ... .. . ... ... ... : F#3 02 . ... ... ... : ... .. . ... ... ...
ROW 49 : ... .. . ... ... ... : ... .. 6 ... ... ... : ... .. . ... ... ... : ... .. 5 ... ... ... : ... .. . ... ... ... : ... .. 4 ... ... ... : ... .. . ... ... ...
ROW 4A : ... .. 9 ... ... ... : ... .. 8 ... ... ... : --- .. . ... ... ... : ... .. 4 ... ... ... : ... .. . ... ... ... : ... .. 5 ... ... ... : ... .. 6 ... ... ...
ROW 4B : ... .. . ... ... ... : ... .. 7 ... ... ... : ... .. . ... ... ... : ... .. . ... ... ... : ... .. . ... ... ... : ... .. . ... ... ... : ... .. . ... ... ...
ROW 4C : ... .. . ... ... ... : ... .. . ... ... ... : ... .. . ... ... ... : ... .. 3 ... ... ... : ... .. . ... ... ... : ... .. 4 ... ... ... : F-3 00 7 ... ... ...
ROW 4D : ... .. . ... ... ... : ... .. 6 ... ... ... : ... .. . ... ... ... : ... .. . ... ... ... : ... .. . ... ... ... : ... .. . ... ... ... : ... .. . ... ... ...
ROW 4E : ... .. . ... ... ... : ... .. 5 ... ... ... : ... .. . ... ... ... : ... .. . ... ... ... : ... .. . ... ... ... : ... .. . ... ... ... : ... .. . ... ... ...
ROW 4F : ... .. . ... ... ... : D-2 01 9 ... ... ... : D-3 00 . ... ... ... : E-# 00 6 ... ... ... : ... .. . ... ... ... : ... .. 3 ... ... ... : ... .. . ... ... ...
ROW 50 : ... .. . ... ... ... : ... .. . ... ... ... : D-2 00 . ... ... ... : B-# 01 . ... ... ... : ... .. . ... ... ... : ... .. . ... ... ... : ... .. . ... ... ...
ROW 51 : ... .. . ... ... ... : D#1 01 8 ... ... ... : ... .. . ... ... ... : C-# 01 . ... ... ... : ... .. . ... ... ... : ... .. . ... ... ... : ... .. 6 ... ... ...
ROW 52 : ... .. . ... ... ... : D-1 01 . ... ... ... : ... .. . ... ... ... : D-# 00 . ... ... ... : ... .. . ... ... ... : ... .. 2 ... ... ... : ... .. . ... ... ...
ROW 53 : ... .. . ... ... ... : ... .. . ... ... ... : ... .. . ... ... ... : C-# 00 5 ... ... ... : ... .. . ... ... ... : ... .. . ... ... ... : ... .. . ... ... ...
ROW 54 : ... .. . ... ... ... : ... .. 7 ... ... ... : --- .. . ... ... ... : D-# 00 . ... ... ... : ... .. . ... ... ... : ... .. . ... ... ... : D-3 00 . ... ... ...
ROW 55 : ... .. . ... ... ... : ... .. 8 ... ... ... : ... .. . ... ... ... : E-# 00 . ... ... ... : ... .. . ... ... ... : ... .. 1 ... ... ... : ... .. 5 ... ... ...
ROW 56 : ... .. . ... ... ... : ... .. 7 ... ... ... : ... .. . ... ... ... : ... .. . ... ... ... : ... .. . ... ... ... : ... .. . ... ... ... : ... .. . ... ... ...
ROW 57 : ... .. . ... ... ... : ... .. . ... ... ... : ... .. . ... ... ... : ... .. . ... ... ... : ... .. . ... ... ... : ... .. . ... ... ... : ... .. . ... ... ...
ROW 58 : ... .. . ... ... ... : ... .. 6 ... ... ... : ... .. . ... ... ... : ... .. . ... ... ... : ... .. . ... ... ... : ... .. . ... ... ... : ... .. . ... ... ...
ROW 59 : ... .. 8 ... ... ... : D-2 00 7 ... ... ... : C-4 00 . P7F ... ... : A-# 00 A ... ... ... : ... .. . ... ... ... : F-4 01 4 ... ... ... : ... .. 3 ... ... ...
ROW 5A : ... .. . P82 ... ... : ... .. . ... ... ... : ... .. . ... ... ... : 5-# 01 9 ... ... ... : ... .. . ... ... ... : ... .. . ... ... ... : ... .. . ... ... ...
ROW 5B : ... .. . P83 ... ... : D#1 00 6 ... ... ... : A#2 00 . P88 ... ... : 6-# 01 8 ... ... ... : ... .. . ... ... ... : D-4 01 3 ... ... ... : ... .. . ... ... ...
ROW 5C : ... .. . P85 ... ... : D-1 00 7 ... ... ... : D-2 00 . P80 ... ... : 7-# 01 7 ... ... ... : ... .. . ... ... ... : ... .. . ... ... ... : F-3 00 . ... ... ...
ROW 5D : ... .. . P86 ... ... : ... .. . ... ... ... : ... .. . ... ... ... : 8-# 01 . ... ... ... : ... .. . ... ... ... : D-4 02 . ... ... ... : ... .. . ... ... ...
ROW 5E : ... .. 9 P87 ... ... : ... .. . ... ... ... : --- .. . ... ... ... : 9-# 00 . ... ... ... : ... .. . ... ... ... : C#4 01 5 ... ... ... : ... .. . ... ... ...
ROW 5F : A-3 00 . P79 ... ... : ... .. . ... ... ... : ... .. . ... ... ... : 9-# 01 . ... ... ... : ... .. . ... ... ... : ... .. . ... ... ... : ... .. . ... ... ...
ROW 60 : ... .. . P7A ... ... : ... .. . ... ... ... : ... .. . ... ... ... : 9-# 00 6 ... ... ... : ... .. . ... ... ... : A#3 01 4 ... ... ... : ... .. . ... ... ...
ROW 61 : ... .. . ... ... ... : ... .. . ... ... ... : ... .. . ... ... ... : 9-# 01 . ... ... ... : ... .. . ... ... ... : ... .. . ... ... ... : ... .. . ... ... ...
ROW 62 : ... .. . ... ... ... : ... .. 6 ... ... ... : ... .. . ... ... ... : 9-# 00 . ... ... ... : ... .. . ... ... ... : A#3 02 . ... ... ... : ... .. . ... ... ...
ROW 63 : ... .. . P79 ... ... : ... .. 5 ... ... ... : ... .. . ... ... ... : ... .. . ... ... ... : ... .. . ... ... ... : ... .. . ... ... ... : ... .. . ... ... ...
ROW 64 : G#3 00 8 P87 ... ... : D-2 02 9 ... ... ... : D-3 00 . ... ... ... : E-# 00 . ... ... ... : ... .. . ... ... ... : B-3 01 5 ... ... ... : D-3 00 . ... ... ...
ROW 65 : ... .. . P86 ... ... : ... .. . ... ... ... : D-2 00 . ... ... ... : B-# 01 . ... ... ... : ... .. . ... ... ... : ... .. . ... ... ... : ... .. 4 ... ... ...
ROW 66 : ... .. . P80 ... ... : D#1 02 8 ... ... ... : ... .. . ... ... ... : C-# 01 . ... ... ... : ... .. . ... ... ... : G#3 01 4 ... ... ... : ... .. . ... ... ...
ROW 67 : ... .. . ... ... ... : D-1 02 . ... ... ... : ... .. . ... ... ... : D-# 00 . ... ... ... : ... .. . ... ... ... : ... .. . ... ... ... : ... .. . ... ... ...
ROW 68 : ... .. . ... ... ... : ... .. . ... ... ... : ... .. . ... ... ... : C-# 00 5 ... ... ... : ... .. . ... ... ... : G#3 02 . ... ... ... : ... .. 5 ... ... ...
ROW 69 : ... .. . ... ... ... : ... .. 7 ... ... ... : --- .. . ... ... ... : D-# 00 . ... ... ... : ... .. . ... ... ... : G#3 01 5 ... ... ... : ... .. . ... ... ...
ROW 6A : ... .. . ... ... ... : ... .. 8 ... ... ... : ... .. . ... ... ... : E-# 00 . ... ... ... : ... .. . ... ... ... : ... .. . ... ... ... : ... .. . ... ... ...
ROW 6B : ... .. . ... ... ... : ... .. 7 ... ... ... : ... .. . ... ... ... : ... .. . ... ... ... : ... .. . ... ... ... : F-3 01 4 ... ... ... : ... .. . ... ... ...
ROW 6C : ... .. . ... ... ... : ... .. 6 ... ... ... : ... .. . ... ... ... : ... .. . ... ... ... : ... .. . ... ... ... : ... .. . ... ... ... : F-3 00 4 ... ... ...
ROW 6D : ... .. . ... ... ... : ... .. 5 ... ... ... : ... .. . ... ... ... : ... .. . ... ... ... : ... .. . ... ... ... : F-3 02 . ... ... ... : ... .. . ... ... ...
ROW 6E : A#3 02 A ... ... ... : D-2 00 9 ... ... ... : D-3 00 . ... ... ... : ... .. 7 ... ... ... : ... .. . ... ... ... : F-4 01 7 ... ... ... : ... .. . ... ... ...
ROW 6F : ... .. . ... ... ... : ... .. . ... ... ... : D-2 00 . ... ... ... : B-# 01 . ... ... ... : ... .. . ... ... ... : ... .. . ... ... ... : ... .. . ... ... ...
ROW 70 : ... .. . ... ... ... : D#1 00 8 ... ... ... : ... .. . ... ... ... : C-# 00 6 ... ... ... : ... .. . ... ... ... : ... .. 6 ... ... ... : ... .. . ... ... ...
ROW 71 : ... .. . ... ... ... : D-1 00 . ... ... ... : ... .. . ... ... ... : D-# 00 5 ... ... ... : ... .. . ... ... ... : F-3 01 . ... ... ... : ... .. 3 ... ... ...
ROW 72 : A#3 00 . ... ... ... : ... .. . ... ... ... : ... .. . ... ... ... : C-# 00 4 ... ... ... : ... .. . ... ... ... : F-3 02 . ... ... ... : ... .. . ... ... ...
ROW 73 : ... .. . ... ... ... : ... .. 7 ... ... ... : --- .. . ... ... ... : E-# 00 5 ... ... ... : ... .. . ... ... ... : ... .. 5 ... ... ... : ... .. . ... ... ...
ROW 74 : ... .. 9 ... ... ... : ... .. 8 ... ... ... : ... .. . ... ... ... : B-# 01 . ... ... ... : ... .. . ... ... ... : ... .. . ... ... ... : D-3 00 . ... ... ...
ROW 75 : ... .. . ... ... ... : ... .. 7 ... ... ... : ... .. . ... ... ... : C-# 00 4 ... ... ... : ... .. . ... ... ... : ... .. . ... ... ... : ... .. . ... ... ...
ROW 76 : ... .. . ... ... ... : ... .. . ... ... ... : ... .. . ... ... ... : D-# 00 3 ... ... ... : ... .. . ... ... ... : ... .. 4 ... ... ... : ... .. . ... ... ...
ROW 77 : ... .. . ... ... ... : ... .. 6 ... ... ... : ... .. . ... ... ... : C-# 00 . ... ... ... : ... .. . ... ... ... : ... .. . ... ... ... : ... .. . ... ... ...
ROW 78 : ... .. 8 ... ... ... : D-3 00 7 ... ... ... : E-4 00 . ... ... ... : D-# 00 6 ... ... ... : ... .. . ... ... ... : ... .. 3 ... ... ... : ... .. . ... ... ...
ROW 79 : ... .. . P83 ... ... : ... .. . ... ... ... : A#3 00 . P87 ... ... : 3-# 01 9 ... ... ... : ... .. . ... ... ... : ... .. 2 ... ... ... : ... .. . ... ... ...
ROW 7A : ... .. . P85 ... ... : D#2 00 6 ... ... ... : F#3 00 . P86 ... ... : 2-# 01 7 ... ... ... : ... .. . ... ... ... : ... .. . ... ... ... : ... .. . ... ... ...
ROW 7B : ... .. 9 P87 ... ... : D-2 00 7 ... ... ... : D-3 00 . P80 ... ... : 2-# 00 6 ... ... ... : ... .. . ... ... ... : ... .. 3 ... ... ... : ... .. 4 ... ... ...
ROW 7C : B-3 00 . P7B ... ... : ... .. . ... ... ... : ... .. . ... ... ... : 1-# 00 . ... ... ... : ... .. . ... ... ... : ... .. 2 ... ... ... : F-3 00 . ... ... ...
ROW 7D : ... .. . P7D ... ... : D-2 01 . ... ... ... : G-4 00 . P7E ... ... : E-# 00 2 ... ... ... : ... .. . ... ... ... : ... .. . ... ... ... : ... .. 5 ... ... ...
ROW 7E : ... .. . P7E ... ... : ... .. 8 ... ... ... : F#4 00 . P84 ... ... : B-# 01 . ... ... ... : ... .. . ... ... ... : ... .. . ... ... ... : ... .. . ... ... ...
ROW 7F : ... .. . P7F ... ... : ... .. 7 ... ... ... : ... .. . P7C ... ... : C-# 00 . ... ... ... : ... .. . ... ... ... : ... .. 1 ... ... ... : ... .. 4 ... ... ...
ROW 80 : ... .. . ... ... ... : ... .. . ... ... ... : --- .. . ... ... ... : D-# 00 . ... ... ... : ... .. . ... ... ... : ... .. . ... ... ... : ... .. . ... ... ...
ROW 81 : ... .. . ... ... ... : ... .. 6 ... ... ... : ... .. . ... ... ... : C-# 00 1 ... ... ... : ... .. . ... ... ... : ... .. . ... ... ... : ... .. . ... ... ...
ROW 82 : ... .. . P7E ... ... : ... .. 5 ... ... ... : ... .. . ... ... ... : D-# 00 . ... ... ... : ... .. . ... ... ... : ... .. . ... ... ... : ... .. . ... ... ...
ROW 83 : ... .. 8 P7D ... ... : D-2 02 7 ... ... ... : C-4 00 . P7F ... ... : A-# 00 A ... ... ... : ... .. . ... ... ... : G#4 01 4 ... ... ... : ... .. 3 ... ... ...
ROW 84 : ... .. . P7B ... ... : ... .. . ... ... ... : ... .. . ... ... ... : 5-# 01 9 ... ... ... : ... .. . ... ... ... : ... .. . ... ... ... : D-3 00 2 ... ... ...
ROW 85 : A#3 00 . P87 ... ... : D#1 02 . ... ... ... : D-2 00 . P80 ... ... : 6-# 01 8 ... ... ... : ... .. . ... ... ... : F-4 01 3 ... ... ... : ... .. 3 ... ... ...
ROW 86 : ... .. . P85 ... ... : D-1 02 . ... ... ... : ... .. . ... ... ... : 7-# 01 7 ... ... ... : ... .. . ... ... ... : ... .. . ... ... ... : ... .. . ... ... ...
ROW 87 : ... .. . P83 ... ... : ... .. . ... ... ... : ... .. . ... ... ... : 8-# 01 . ... ... ... : ... .. . ... ... ... : F-4 02 . ... ... ... : ... .. . ... ... ...
ROW 88 : ... .. 9 P80 ... ... : ... .. . ... ... ... : --- .. . ... ... ... : 9-# 00 . ... ... ... : ... .. . ... ... ... : F-4 01 5 ... ... ... : ... .. . ... ... ...
ROW 89 : ... .. . P7D ... ... : ... .. . ... ... ... : ... .. . ... ... ... : 9-# 01 . ... ... ... : ... .. . ... ... ... : ... .. . ... ... ... : ... .. . ... ... ...
ROW 8A : ... .. . P7B ... ... : ... .. . ... ... ... : ... .. . ... ... ... : 9-# 00 6 ... ... ... : ... .. . ... ... ... : D-4 01 4 ... ... ... : ... .. . ... ... ...
ROW 8B : A-3 00 . P87 ... ... : ... .. 6 ... ... ... : ... .. . ... ... ... : 9-# 01 . ... ... ... : ... .. . ... ... ... : ... .. . ... ... ... : ... .. 4 ... ... ...
ROW 8C : ... .. . P85 ... ... : ... .. 5 ... ... ... : ... .. . ... ... ... : 9-# 00 . ... ... ... : ... .. . ... ... ... : D-4 02 . ... ... ... : F-3 00 . ... ... ...
ROW 8D : ... .. . P83 ... ... : D-2 01 9 ... ... ... : E-4 00 . ... ... ... : D-# 00 . ... ... ... : ... .. . ... ... ... : C#4 01 . ... ... ... : ... .. 3 ... ... ...
ROW 8E : ... .. 8 P82 ... ... : ... .. . ... ... ... : A#3 00 . P87 ... ... : 3-# 01 9 ... ... ... : ... .. . ... ... ... : ... .. . ... ... ... : ... .. 4 ... ... ...
ROW 8F : ... .. . P81 ... ... : D#1 01 8 ... ... ... : F#3 00 . P86 ... ... : 2-# 01 7 ... ... ... : ... .. . ... ... ... : A#3 01 3 ... ... ... : ... .. . ... ... ...
ROW 90 : ... .. . ... ... ... : D-1 01 . ... ... ... : D-2 00 . P80 ... ... : 2-# 00 6 ... ... ... : ... .. . ... ... ... : ... .. . ... ... ... : ... .. . ... ... ...
ROW 91 : ... .. . ... ... ... : ... .. . ... ... ... : ... .. . ... ... ... : 1-# 00 . ... ... ... : ... .. . ... ... ... : A#3 02 . ... ... ... : ... .. . ... ... ...
ROW 92 : ... .. 7 P82 ... ... : ... .. 7 ... ... ... : --- .. . ... ... ... : E-# 00 5 ... ... ... : ... .. . ... ... ... : B-3 01 5 ... ... ... : ... .. . ... ... ...
ROW 93 : ... .. . P83 ... ... : ... .. 8 ... ... ... : ... .. . ... ... ... : B-# 01 . ... ... ... : ... .. . ... ... ... : ... .. . ... ... ... : ... .. . ... ... ...
ROW 94 : ... .. 6 P85 ... ... : ... .. 7 ... ... ... : ... .. . ... ... ... : C-# 00 4 ... ... ... : ... .. . ... ... ... : G#3 01 4 ... ... ... : D-3 00 . ... ... ...
ROW 95 : ... .. . P87 ... ... : ... .. . ... ... ... : ... .. . ... ... ... : 7-# 00 3 ... ... ... : ... .. . ... ... ... : ... .. . ... ... ... : ... .. . ... ... ...
ROW 96 : A#3 00 5 P7B ... ... : ... .. 6 ... ... ... : ... .. . ... ... ... : ... .. 4 ... ... ... : ... .. . ... ... ... : G#3 02 . ... ... ... : ... .. . ... ... ...
ROW 97 : D#3 02 7 P80 ... ... : D#2 02 7 ... ... ... : E-4 00 . ... ... ... : A-# 00 A ... ... ... : ... .. . ... ... ... : D#4 01 5 ... ... ... : A#2 00 3 ... ... ...
ROW 98 : ... .. . ... ... ... : ... .. . ... ... ... : A#3 00 . P87 ... ... : B-# 00 . ... ... ... : ... .. . ... ... ... : ... .. . ... ... ... : ... .. 4 ... ... ...
ROW 99 : ... .. . ... ... ... : E-1 02 6 ... ... ... : F#3 00 . P86 ... ... : A-# 01 . ... ... ... : ... .. . ... ... ... : ... .. 4 ... ... ... : ... .. . ... ... ...
ROW 9A : ... .. 8 ... ... ... : D#1 02 . ... ... ... : D#2 00 . P80 ... ... : A-# 00 9 ... ... ... : ... .. . ... ... ... : D#3 01 5 ... ... ... : ... .. 5 ... ... ...
ROW 9B : D#3 00 . ... ... ... : ... .. . ... ... ... : ... .. . ... ... ... : ... .. . ... ... ... : ... .. . ... ... ... : D#3 02 . ... ... ... : ... .. . ... ... ...
ROW 9C : ... .. 9 ... ... ... : ... .. 7 ... ... ... : --- .. . ... ... ... : ... .. . ... ... ... : ... .. . ... ... ... : ... .. . ... ... ... : ... .. 6 ... ... ...
ROW 9D : ... .. 8 ... ... ... : ... .. . ... ... ... : ... .. . ... ... ... : A-# 01 8 ... ... ... : ... .. . ... ... ... : ... .. . ... ... ... : ... .. . ... ... ...
ROW 9E : ... .. . ... ... ... : ... .. . ... ... ... : ... .. . ... ... ... : A-# 00 . ... ... ... : ... .. . ... ... ... : ... .. . ... ... ... : ... .. . ... ... ...
ROW 9F : ... .. 9 ... ... ... : ... .. . ... ... ... : ... .. . ... ... ... : ... .. . ... ... ... : ... .. . ... ... ... : ... .. 4 ... ... ... : D#3 00 7 ... ... ...
ROW A0 : ... .. . ... ... ... : ... .. 6 ... ... ... : ... .. . ... ... ... : A-# 01 7 ... ... ... : ... .. . ... ... ... : ... .. . ... ... ... : ... .. . ... ... ...
ROW A1 : ... .. . ... ... ... : ... .. 5 ... ... ... : ... .. . ... ... ... : A-# 00 . ... ... ... : ... .. . ... ... ... : ... .. . ... ... ... : ... .. . ... ... ...
ROW A2 : ... .. . ... ... ... : D#2 01 9 ... ... ... : D#3 00 . ... ... ... : ... .. . ... ... ... : ... .. . ... ... ... : ... .. 3 ... ... ... : ... .. . ... ... ...
ROW A3 : ... .. . ... ... ... : ... .. . ... ... ... : D#2 00 . ... ... ... : ... .. 6 ... ... ... : ... .. . ... ... ... : ... .. . ... ... ... : ... .. . ... ... ...
ROW A4 : ... .. . ... ... ... : E-1 01 8 ... ... ... : ... .. . ... ... ... : A-# 01 . ... ... ... : ... .. . ... ... ... : ... .. . ... ... ... : ... .. 6 ... ... ...
ROW A5 : ... .. . ... ... ... : D#1 01 . ... ... ... : ... .. . ... ... ... : 9-# 00 . ... ... ... : ... .. . ... ... ... : ... .. 2 ... ... ... : ... .. . ... ... ...
ROW A6 : ... .. . ... ... ... : ... .. . ... ... ... : ... .. . ... ... ... : ... .. . ... ... ... : ... .. . ... ... ... : ... .. . ... ... ... : ... .. . ... ... ...
ROW A7 : ... .. . ... ... ... : ... .. 7 ... ... ... : --- .. . ... ... ... : 9-# 01 . ... ... ... : ... .. . ... ... ... : ... .. . ... ... ... : A#2 00 . ... ... ...
ROW A8 : ... .. . ... ... ... : ... .. 8 ... ... ... : ... .. . ... ... ... : 9-# 00 . ... ... ... : ... .. . ... ... ... : ... .. 1 ... ... ... : ... .. 5 ... ... ...
ROW A9 : ... .. . ... ... ... : ... .. 7 ... ... ... : ... .. . ... ... ... : ... .. 5 ... ... ... : ... .. . ... ... ... : ... .. . ... ... ... : ... .. . ... ... ...
ROW AA : ... .. . ... ... ... : ... .. 6 ... ... ... : ... .. . ... ... ... : ... .. . ... ... ... : ... .. . ... ... ... : ... .. . ... ... ... : ... .. . ... ... ...
ROW AB : ... .. . ... ... ... : ... .. 5 ... ... ... : ... .. . ... ... ... : 9-# 01 . ... ... ... : ... .. . ... ... ... : ... .. . ... ... ... : ... .. . ... ... ...
ROW AC : ... .. 8 ... ... ... : D#2 00 7 ... ... ... : C-4 00 . P7F ... ... : A-# 00 A ... ... ... : ... .. . ... ... ... : F#3 01 4 ... ... ... : ... .. 3 ... ... ...
ROW AD : ... .. . P82 ... ... : ... .. . ... ... ... : ... .. . ... ... ... : 5-# 01 9 ... ... ... : ... .. . ... ... ... : ... .. . ... ... ... : ... .. . ... ... ...
ROW AE : ... .. . P83 ... ... : E-1 00 6 ... ... ... : A#2 00 . P88 ... ... : 6-# 01 8 ... ... ... : ... .. . ... ... ... : D#3 01 3 ... ... ... : ... .. . ... ... ...
ROW AF : ... .. . P85 ... ... : D#1 00 7 ... ... ... : D#2 00 . P80 ... ... : 7-# 01 7 ... ... ... : ... .. . ... ... ... : ... .. . ... ... ... : D#3 00 . ... ... ...
ROW B0 : ... .. . P86 ... ... : ... .. . ... ... ... : ... .. . ... ... ... : 8-# 01 . ... ... ... : ... .. . ... ... ... : D#3 02 . ... ... ... : ... .. . ... ... ...
ROW B1 : ... .. 9 P87 ... ... : ... .. . ... ... ... : --- .. . ... ... ... : 9-# 00 . ... ... ... : ... .. . ... ... ... : A-3 01 5 ... ... ... : ... .. . ... ... ...
ROW B2 : ... .. . P88 ... ... : ... .. . ... ... ... : ... .. . ... ... ... : 9-# 01 . ... ... ... : ... .. . ... ... ... : ... .. . ... ... ... : ... .. . ... ... ...
ROW B3 : ... .. . P89 ... ... : ... .. . ... ... ... : ... .. . ... ... ... : 9-# 00 6 ... ... ... : ... .. . ... ... ... : F#3 01 4 ... ... ... : ... .. . ... ... ...
ROW B4 : ... .. . ... ... ... : ... .. . ... ... ... : ... .. . ... ... ... : 9-# 01 . ... ... ... : ... .. . ... ... ... : ... .. . ... ... ... : ... .. . ... ... ...
ROW B5 : ... .. . ... ... ... : ... .. 6 ... ... ... : ... .. . ... ... ... : 9-# 00 . ... ... ... : ... .. . ... ... ... : F#3 02 . ... ... ... : ... .. . ... ... ...
ROW B6 : ... .. 7 P88 ... ... : D#2 02 9 ... ... ... : D#3 00 . ... ... ... : E-# 00 7 ... ... ... : ... .. . ... ... ... : C#4 01 5 ... ... ... : ... .. . ... ... ...
ROW B7 : ... .. . P87 ... ... : ... .. . ... ... ... : D#2 00 . ... ... ... : B-# 01 . ... ... ... : ... .. . ... ... ... : ... .. . ... ... ... : A#2 00 . ... ... ...
ROW B8 : ... .. 6 P86 ... ... : E-1 02 8 ... ... ... : ... .. . ... ... ... : C-# 00 6 ... ... ... : ... .. . ... ... ... : A#3 01 4 ... ... ... : ... .. 4 ... ... ...
ROW B9 : ... .. . P85 ... ... : D#1 02 . ... ... ... : ... .. . ... ... ... : D-# 00 5 ... ... ... : ... .. . ... ... ... : ... .. . ... ... ... : ... .. . ... ... ...
ROW BA : ... .. 5 P83 ... ... : ... .. . ... ... ... : ... .. . ... ... ... : C-# 00 4 ... ... ... : ... .. . ... ... ... : A#3 02 . ... ... ... : ... .. . ... ... ...
ROW BB : ... .. 4 P82 ... ... : ... .. 7 ... ... ... : ... .. . ... ... ... : D-# 00 . ... ... ... : ... .. . ... ... ... : ... .. . ... ... ... : ... .. 5 ... ... ...
ROW BC : ... .. . P80 ... ... : ... .. 8 ... ... ... : --- .. . ... ... ... : E-# 00 5 ... ... ... : ... .. . ... ... ... : F#4 01 5 ... ... ... : ... .. . ... ... ...
ROW BD : ... .. 3 P7E ... ... : ... .. 7 ... ... ... : ... .. . ... ... ... : B-# 01 . ... ... ... : ... .. . ... ... ... : ... .. . ... ... ... : ... .. . ... ... ...
ROW BE : ... .. . P7D ... ... : ... .. . ... ... ... : ... .. . ... ... ... : C-# 00 4 ... ... ... : ... .. . ... ... ... : D#4 01 4 ... ... ... : ... .. . ... ... ...
ROW BF : ... .. 2 P7B ... ... : ... .. 6 ... ... ... : ... .. . ... ... ... : D-# 00 3 ... ... ... : ... .. . ... ... ... : ... .. . ... ... ... : D#3 00 4 ... ... ...
ROW C0 : ... .. . P7A ... ... : ... .. 5 ... ... ... : ... .. . ... ... ... : C-# 00 . ... ... ... : ... .. . ... ... ... : D#4 02 . ... ... ... : ... .. . ... ... ...
ROW C1 : A-3 02 A P80 ... ... : D#2 00 9 ... ... ... : D#3 00 . ... ... ... : E-# 00 7 ... ... ... : ... .. . ... ... ... : A-4 01 5 ... ... ... : ... .. . ... ... ...
ROW C2 : ... .. . ... ... ... : ... .. . ... ... ... : D#2 00 . ... ... ... : B-# 01 . ... ... ... : ... .. . ... ... ... : ... .. . ... ... ... : ... .. . ... ... ...
ROW C3 : ... .. . P81 ... ... : E-1 00 8 ... ... ... : ... .. . ... ... ... : C-# 00 6 ... ... ... : ... .. . ... ... ... : F#4 01 4 ... ... ... : ... .. . ... ... ...
ROW C4 : ... .. . P82 ... ... : D#1 00 . ... ... ... : ... .. . ... ... ... : D-# 00 5 ... ... ... : ... .. . ... ... ... : ... .. . ... ... ... : ... .. 3 ... ... ...
ROW C5 : A-3 00 . P83 ... ... : ... .. . ... ... ... : ... .. . ... ... ... : C-# 00 4 ... ... ... : ... .. . ... ... ... : F#4 02 . ... ... ... : ... .. . ... ... ...
ROW C6 : ... .. . P84 ... ... : ... .. 7 ... ... ... : --- .. . ... ... ... : E-# 00 5 ... ... ... : ... .. . ... ... ... : F#4 01 5 ... ... ... : ... .. . ... ... ...
ROW C7 : ... .. 9 P85 ... ... : ... .. 8 ... ... ... : ... .. . ... ... ... : B-# 01 . ... ... ... : ... .. . ... ... ... : ... .. . ... ... ... : A#2 00 . ... ... ...
ROW C8 : ... .. . P86 ... ... : ... .. 7 ... ... ... : ... .. . ... ... ... : C-# 00 4 ... ... ... : ... .. . ... ... ... : D#4 01 4 ... ... ... : ... .. . ... ... ...
ROW C9 : ... .. . P87 ... ... : ... .. . ... ... ... : ... .. . ... ... ... : D-# 00 3 ... ... ... : ... .. . ... ... ... : ... .. . ... ... ... : ... .. . ... ... ...
ROW CA : A#3 00 . P7A ... ... : ... .. 6 ... ... ... : ... .. . ... ... ... : C-# 00 . ... ... ... : ... .. . ... ... ... : D#4 02 . ... ... ... : ... .. . ... ... ...
ROW CB : ... .. 8 P7B ... ... : D#2 01 7 ... ... ... : E-4 00 . ... ... ... : D-# 00 6 ... ... ... : ... .. . ... ... ... : C#4 01 . ... ... ... : ... .. . ... ... ...
ROW CC : ... .. . P7C ... ... : ... .. . ... ... ... : A#3 00 . P87 ... ... : 3-# 01 9 ... ... ... : ... .. . ... ... ... : ... .. . ... ... ... : ... .. . ... ... ...
ROW CD : ... .. . P7D ... ... : E-1 01 6 ... ... ... : F#3 00 . P86 ... ... : 2-# 01 7 ... ... ... : ... .. . ... ... ... : A#3 01 3 ... ... ... : ... .. . ... ... ...
ROW CE : ... .. 9 P7E ... ... : D#1 01 7 ... ... ... : D#2 00 . P80 ... ... : 2-# 00 6 ... ... ... : ... .. . ... ... ... : ... .. . ... ... ... : ... .. 4 ... ... ...
ROW CF : ... .. . P7F ... ... : ... .. . ... ... ... : ... .. . ... ... ... : 1-# 00 . ... ... ... : ... .. . ... ... ... : A#3 02 . ... ... ... : D#3 00 . ... ... ...
ROW D0 : ... .. . P80 ... ... : ... .. . ... ... ... : --- .. . ... ... ... : E-# 00 2 ... ... ... : ... .. . ... ... ... : A-3 01 5 ... ... ... : ... .. 5 ... ... ...
ROW D1 : ... .. . ... ... ... : ... .. 8 ... ... ... : ... .. . ... ... ... : B-# 01 . ... ... ... : ... .. . ... ... ... : ... .. . ... ... ... : ... .. . ... ... ...
ROW D2 : ... .. . ... ... ... : ... .. 7 ... ... ... : ... .. . ... ... ... : C-# 00 . ... ... ... : ... .. . ... ... ... : F#3 01 4 ... ... ... : ... .. 4 ... ... ...
ROW D3 : ... .. . ... ... ... : ... .. . ... ... ... : ... .. . ... ... ... : D-# 00 . ... ... ... : ... .. . ... ... ... : ... .. . ... ... ... : ... .. . ... ... ...
ROW D4 : ... .. . ... ... ... : ... .. 6 ... ... ... : ... .. . ... ... ... : C-# 00 1 ... ... ... : ... .. . ... ... ... : F#3 02 . ... ... ... : ... .. . ... ... ...
ROW D5 : ... .. 8 ... ... ... : D#2 02 7 ... ... ... : C-4 00 . P7F ... ... : A-# 00 A ... ... ... : ... .. . ... ... ... : C#4 01 . ... ... ... : ... .. 3 ... ... ...
ROW D6 : ... .. . P82 ... ... : ... .. . ... ... ... : ... .. . ... ... ... : 5-# 01 9 ... ... ... : ... .. . ... ... ... : ... .. . ... ... ... : ... .. . ... ... ...
ROW D7 : ... .. . P83 ... ... : E-1 02 6 ... ... ... : A#2 00 . P88 ... ... : 6-# 01 8 ... ... ... : ... .. . ... ... ... : A#3 01 3 ... ... ... : A#2 00 2 ... ... ...
ROW D8 : ... .. . P85 ... ... : D#1 02 7 ... ... ... : D#2 00 . P80 ... ... : 7-# 01 7 ... ... ... : ... .. . ... ... ... : ... .. . ... ... ... : ... .. 3 ... ... ...
ROW D9 : ... .. . P86 ... ... : ... .. . ... ... ... : ... .. . ... ... ... : 8-# 01 . ... ... ... : ... .. . ... ... ... : A#3 02 . ... ... ... : ... .. . ... ... ...
ROW DA : ... .. . P87 ... ... : ... .. 6 ... ... ... : ... .. . ... ... ... : 9-# 00 . ... ... ... : ... .. . ... ... ... : ... .. . ... ... ... : ... .. . ... ... ...
ROW DB : B-3 00 9 P7A ... ... : ... .. 7 ... ... ... : --- .. . ... ... ... : 9-# 01 . ... ... ... : ... .. . ... ... ... : A-3 01 5 ... ... ... : ... .. . ... ... ...
ROW DC : ... .. . P7B ... ... : ... .. . ... ... ... : ... .. . ... ... ... : 9-# 00 6 ... ... ... : ... .. . ... ... ... : ... .. . ... ... ... : ... .. . ... ... ...
ROW DD : ... .. . ... ... ... : ... .. . ... ... ... : ... .. . ... ... ... : 9-# 01 . ... ... ... : ... .. . ... ... ... : F#3 01 4 ... ... ... : ... .. . ... ... ...
ROW DE : ... .. . ... ... ... : ... .. 6 ... ... ... : ... .. . ... ... ... : 9-# 00 . ... ... ... : ... .. . ... ... ... : ... .. . ... ... ... : ... .. 4 ... ... ...
ROW DF : ... .. . P7A ... ... : ... .. 5 ... ... ... : ... .. . ... ... ... : ... .. . ... ... ... : ... .. . ... ... ... : F#3 02 . ... ... ... : D#3 00 . ... ... ...
ROW E0 : A#3 00 7 P87 ... ... : D#2 00 9 ... ... ... : D#3 00 . ... ... ... : E-# 00 7 ... ... ... : ... .. . ... ... ... : F#3 01 5 ... ... ... : ... .. . ... ... ...
ROW E1 : ... .. . P86 ... ... : ... .. . ... ... ... : D#2 00 . ... ... ... : B-# 01 . ... ... ... : ... .. . ... ... ... : ... .. . ... ... ... : ... .. 5 ... ... ...
ROW E2 : ... .. 6 P85 ... ... : E-1 00 8 ... ... ... : ... .. . ... ... ... : C-# 00 6 ... ... ... : ... .. . ... ... ... : D#3 01 4 ... ... ... : ... .. . ... ... ...
ROW E3 : ... .. . P83 ... ... : D#1 00 . ... ... ... : ... .. . ... ... ... : D-# 00 5 ... ... ... : ... .. . ... ... ... : ... .. . ... ... ... : ... .. . ... ... ...
ROW E4 : ... .. 5 P82 ... ... : ... .. . ... ... ... : ... .. . ... ... ... : C-# 00 4 ... ... ... : ... .. . ... ... ... : D#3 02 . ... ... ... : ... .. . ... ... ...
ROW E5 : ... .. 4 P80 ... ... : ... .. 7 ... ... ... : --- .. . ... ... ... : E-# 00 5 ... ... ... : ... .. . ... ... ... : C#3 01 5 ... ... ... : ... .. 4 ... ... ...
ROW E6 : ... .. . P7E ... ... : ... .. 8 ... ... ... : ... .. . ... ... ... : B-# 01 . ... ... ... : ... .. . ... ... ... : ... .. . ... ... ... : ... .. . ... ... ...
ROW E7 : ... .. 3 P7D ... ... : ... .. 7 ... ... ... : ... .. . ... ... ... : C-# 00 4 ... ... ... : ... .. . ... ... ... : A#2 01 4 ... ... ... : A#2 00 . ... ... ...
ROW E8 : ... .. . P7B ... ... : ... .. . ... ... ... : ... .. . ... ... ... : D-# 00 3 ... ... ... : ... .. . ... ... ... : ... .. . ... ... ... : ... .. . ... ... ...
ROW E9 : ... .. 2 P7A ... ... : ... .. 6 ... ... ... : ... .. . ... ... ... : C-# 00 . ... ... ... : ... .. . ... ... ... : A#2 02 . ... ... ... : ... .. . ... ... ...
ROW EA : A-3 02 9 P80 ... ... : F-2 02 7 ... ... ... : E-4 00 . ... ... ... : D-# 00 6 ... ... ... : ... .. . ... ... ... : D#4 01 6 ... ... ... : C-3 00 3 ... ... ...
ROW EB : ... .. . ... ... ... : ... .. . ... ... ... : A#3 00 . P87 ... ... : 3-# 01 9 ... ... ... : ... .. . ... ... ... : ... .. . ... ... ... : ... .. 4 ... ... ...
ROW EC : ... .. . ... ... ... : F#1 02 6 ... ... ... : F#3 00 . P86 ... ... : 2-# 01 7 ... ... ... : ... .. . ... ... ... : ... .. 5 ... ... ... : ... .. . ... ... ...
ROW ED : ... .. A ... ... ... : F-1 02 7 ... ... ... : F-2 00 . P80 ... ... : 2-# 00 6 ... ... ... : ... .. . ... ... ... : D#3 01 . ... ... ... : ... .. 5 ... ... ...
ROW EE : A-3 00 . ... ... ... : ... .. . ... ... ... : ... .. . ... ... ... : 1-# 00 . ... ... ... : ... .. . ... ... ... : D#3 02 . ... ... ... : ... .. . ... ... ...
ROW EF : ... .. . ... ... ... : ... .. . ... ... ... : --- .. . ... ... ... : ... .. 5 ... ... ... : ... .. . ... ... ... : ... .. . ... ... ... : ... .. 6 ... ... ...
ROW F0 : ... .. 9 ... ... ... : ... .. 8 ... ... ... : ... .. . ... ... ... : ... .. 4 ... ... ... : ... .. . ... ... ... : ... .. . ... ... ... : ... .. . ... ... ...
ROW F1 : ... .. . ... ... ... : ... .. 7 ... ... ... : ... .. . ... ... ... : ... .. . ... ... ... : ... .. . ... ... ... : ... .. . ... ... ... : ... .. . ... ... ...
ROW F2 : ... .. . ... ... ... : ... .. . ... ... ... : ... .. . ... ... ... : ... .. 3 ... ... ... : ... .. . ... ... ... : ... .. 4 ... ... ... : D#3 00 7 ... ... ...
ROW F3 : ... .. . ... ... ... : ... .. 6 ... ... ... : ... .. . ... ... ... : ... .. . ... ... ... : ... .. . ... ... ... : ... .. . ... ... ... : ... .. . ... ... ...
ROW F4 : ... .. . ... ... ... : ... .. 5 ... ... ... : ... .. . ... ... ... : ... .. . ... ... ... : ... .. . ... ... ... : ... .. . ... ... ... : ... .. . ... ... ...
ROW F5 : ... .. . ... ... ... : F-2 01 9 ... ... ... : F-3 00 . ... ... ... : E-# 00 7 ... ... ... : ... .. . ... ... ... : ... .. 3 ... ... ... : ... .. . ... ... ...
ROW F6 : ... .. . ... ... ... : ... .. . ... ... ... : F-2 00 . ... ... ... : B-# 01 . ... ... ... : ... .. . ... ... ... : ... .. . ... ... ... : ... .. . ... ... ...
ROW F7 : ... .. . ... ... ... : F#1 01 8 ... ... ... : ... .. . ... ... ... : C-# 00 6 ... ... ... : ... .. . ... ... ... : ... .. . ... ... ... : ... .. 6 ... ... ...
ROW F8 : ... .. . ... ... ... : F-1 01 . ... ... ... : ... .. . ... ... ... : D-# 00 5 ... ... ... : ... .. . ... ... ... : ... .. 2 ... ... ... : ... .. . ... ... ...
ROW F9 : ... .. . ... ... ... : ... .. . ... ... ... : ... .. . ... ... ... : C-# 00 4 ... ... ... : ... .. . ... ... ... : ... .. . ... ... ... : ... .. . ... ... ...
ROW FA : ... .. . ... ... ... : ... .. 7 ... ... ... : --- .. . ... ... ... : E-# 00 2 ... ... ... : ... .. . ... ... ... : ... .. . ... ... ... : C-3 00 . ... ... ...
ROW FB : ... .. . ... ... ... : ... .. 8 ... ... ... : ... .. . ... ... ... : B-# 01 . ... ... ... : ... .. . ... ... ... : ... .. 1 ... ... ... : ... .. 5 ... ... ...
ROW FC : ... .. . ... ... ... : ... .. 7 ... ... ... : ... .. . ... ... ... : C-# 00 . ... ... ... : ... .. . ... ... ... : ... .. . ... ... ... : ... .. . ... ... ...
ROW FD : ... .. . ... ... ... : ... .. 6 ... ... ... : ... .. . ... ... ... : D-# 00 . ... ... ... : ... .. . ... ... ... : ... .. . ... ... ... : ... .. . ... ... ...
ROW FE : ... .. . ... ... ... : ... .. 5 ... ... ... : ... .. . ... ... ... : C-# 00 1 ... ... ... : ... .. . ... ... ... : ... .. . ... ... ... : ... .. . ... ... ...
ROW FF : ... .. 8 ... ... ... : F-2 00 7 ... ... ... : C-4 00 . P7F ... ... : A-# 00 A ... ... ... : ... .. . ... ... ... : F#3 01 4 ... ... ... : ... .. 3 ... ... ...

PATTERN 03
ROW 00 : ... .. . P82 ... ... : ... .. . ... ... ... : ... .. . ... ... ... : 5-# 01 9 ... ... ... : ... .. . ... ... ... : ... .. . ... ... ... : ... .. . ... ... ...
ROW 01 : ... .. . P83 ... ... : F#1 00 . ... ... ... : F-2 00 . P80 ... ... : 6-# 01 8 ... ... ... : ... .. . ... ... ... : D#3 01 3 ... ... ... : ... .. . ... ... ...
ROW 02 : ... .. . P85 ... ... : F-1 00 . ... ... ... : ... .. . ... ... ... : 7-# 01 7 ... ... ... : ... .. . ... ... ... : ... .. . ... ... ... : D#3 00 . ... ... ...
ROW 03 : ... .. . P86 ... ... : ... .. . ... ... ... : ... .. . ... ... ... : 8-# 01 . ... ... ... : ... .. . ... ... ... : D#3 02 . ... ... ... : ... .. . ... ... ...
ROW 04 : ... .. 9 P87 ... ... : ... .. . ... ... ... : --- .. . ... ... ... : 9-# 00 . ... ... ... : ... .. . ... ... ... : G#3 01 5 ... ... ... : ... .. . ... ... ...
ROW 05 : A#3 00 . P7A ... ... : ... .. . ... ... ... : ... .. . ... ... ... : 9-# 01 . ... ... ... : ... .. . ... ... ... : ... .. . ... ... ... : ... .. . ... ... ...
ROW 06 : ... .. . P7B ... ... : ... .. . ... ... ... : ... .. . ... ... ... : 9-# 00 6 ... ... ... : ... .. . ... ... ... : F-3 01 4 ... ... ... : ... .. . ... ... ...
ROW 07 : ... .. . ... ... ... : ... .. . ... ... ... : ... .. . ... ... ... : 9-# 01 . ... ... ... : ... .. . ... ... ... : ... .. . ... ... ... : ... .. . ... ... ...
ROW 08 : ... .. . ... ... ... : ... .. 6 ... ... ... : ... .. . ... ... ... : 9-# 00 . ... ... ... : ... .. . ... ... ... : F-3 02 . ... ... ... : ... .. . ... ... ...
ROW 09 : ... .. 7 P7A ... ... : F-2 02 9 ... ... ... : F-3 00 . ... ... ... : E-# 00 7 ... ... ... : ... .. . ... ... ... : C-4 01 5 ... ... ... : ... .. . ... ... ...
ROW 0A : A-3 00 . P87 ... ... : ... .. . ... ... ... : F-2 00 . ... ... ... : B-# 01 . ... ... ... : ... .. . ... ... ... : ... .. . ... ... ... : C-3 00 . ... ... ...
ROW 0B : ... .. 6 P86 ... ... : F#1 02 8 ... ... ... : ... .. . ... ... ... : C-# 00 6 ... ... ... : ... .. . ... ... ... : A-3 01 4 ... ... ... : ... .. 4 ... ... ...
ROW 0C : ... .. . P85 ... ... : F-1 02 . ... ... ... : ... .. . ... ... ... : D-# 00 5 ... ... ... : ... .. . ... ... ... : ... .. . ... ... ... : ... .. . ... ... ...
ROW 0D : ... .. 5 P83 ... ... : ... .. . ... ... ... : ... .. . ... ... ... : C-# 00 4 ... ... ... : ... .. . ... ... ... : A-3 02 . ... ... ... : ... .. . ... ... ...
ROW 0E : ... .. 4 P82 ... ... : ... .. 7 ... ... ... : --- .. . ... ... ... : E-# 00 5 ... ... ... : ... .. . ... ... ... : D#4 01 5 ... ... ... : ... .. 5 ... ... ...
ROW 0F : ... .. . P80 ... ... : ... .. 8 ... ... ... : ... .. . ... ... ... : B-# 01 . ... ... ... : ... .. . ... ... ... : ... .. . ... ... ... : ... .. . ... ... ...
ROW 10 : ... .. 3 P7E ... ... : ... .. 7 ... ... ... : ... .. . ... ... ... : C-# 00 4 ... ... ... : ... .. . ... ... ... : C-4 01 4 ... ... ... : ... .. . ... ... ...
ROW 11 : ... .. . P7D ... ... : ... .. . ... ... ... : ... .. . ... ... ... : D-# 00 3 ... ... ... : ... .. . ... ... ... : ... .. . ... ... ... : ... .. . ... ... ...
ROW 12 : ... .. 2 P7B ... ... : ... .. 6 ... ... ... : ... .. . ... ... ... : C-# 00 . ... ... ... : ... .. . ... ... ... : C-4 02 . ... ... ... : D#3 00 4 ... ... ...
ROW 13 : ... .. . P7A ... ... : ... .. 5 ... ... ... : ... .. . ... ... ... : D-# 00 . ... ... ... : ... .. . ... ... ... : ... .. . ... ... ... : ... .. . ... ... ...
ROW 14 : F-3 02 A P80 ... ... : F-2 00 9 ... ... ... : F-3 00 . ... ... ... : E-# 00 7 ... ... ... : ... .. . ... ... ... : G#4 01 5 ... ... ... : ... .. . ... ... ...
ROW 15 : ... .. . ... ... ... : ... .. . ... ... ... : F-2 00 . ... ... ... : B-# 01 . ... ... ... : ... .. . ... ... ... : ... .. . ... ... ... : ... .. . ... ... ...
ROW 16 : ... .. . ... ... ... : F#1 00 8 ... ... ... : ... .. . ... ... ... : C-# 00 6 ... ... ... : ... .. . ... ... ... : F-4 01 4 ... ... ... : ... .. . ... ... ...
ROW 17 : ... .. . ... ... ... : F-1 00 . ... ... ... : ... .. . ... ... ... : D-# 00 5 ... ... ... : ... .. . ... ... ... : ... .. . ... ... ... : ... .. 3 ... ... ...
ROW 18 : F-3 00 . ... ... ... : ... .. . ... ... ... : ... .. . ... ... ... : C-# 00 4 ... ... ... : ... .. . ... ... ... : F-4 02 . ... ... ... : ... .. . ... ... ...
ROW 19 : ... .. . ... ... ... : ... .. 7 ... ... ... : --- .. . ... ... ... : E-# 00 5 ... ... ... : ... .. . ... ... ... : F#4 01 5 ... ... ... : ... .. . ... ... ...
ROW 1A : ... .. 9 ... ... ... : ... .. 8 ... ... ... : ... .. . ... ... ... : B-# 01 . ... ... ... : ... .. . ... ... ... : ... .. . ... ... ... : C-3 00 . ... ... ...
ROW 1B : ... .. . ... ... ... : ... .. 7 ... ... ... : ... .. . ... ... ... : C-# 00 4 ... ... ... : ... .. . ... ... ... : D#4 01 4 ... ... ... : ... .. . ... ... ...
ROW 1C : ... .. . ... ... ... : ... .. 6 ... ... ... : ... .. . ... ... ... : D-# 00 3 ... ... ... : ... .. . ... ... ... : ... .. . ... ... ... : ... .. . ... ... ...
ROW 1D : ... .. . ... ... ... : ... .. 5 ... ... ... : ... .. . ... ... ... : C-# 00 . ... ... ... : ... .. . ... ... ... : D#4 02 . ... ... ... : ... .. . ... ... ...
ROW 1E : ... .. 8 ... ... ... : F-2 01 7 ... ... ... : E-4 00 . ... ... ... : D-# 00 6 ... ... ... : ... .. . ... ... ... : D#4 01 . ... ... ... : ... .. . ... ... ...
ROW 1F : ... .. . ... ... ... : ... .. . ... ... ... : A#3 00 . P87 ... ... : 3-# 01 9 ... ... ... : ... .. . ... ... ... : ... .. . ... ... ... : ... .. . ... ... ...
ROW 20 : ... .. . ... ... ... : F#1 01 6 ... ... ... : F#3 00 . P86 ... ... : 2-# 01 7 ... ... ... : ... .. . ... ... ... : C-4 01 3 ... ... ... : ... .. . ... ... ...
ROW 21 : ... .. 9 ... ... ... : F-1 01 7 ... ... ... : F-2 00 . P80 ... ... : 2-# 00 6 ... ... ... : ... .. . ... ... ... : ... .. . ... ... ... : ... .. 4 ... ... ...
ROW 22 : ... .. . ... ... ... : ... .. . ... ... ... : ... .. . ... ... ... : 1-# 00 . ... ... ... : ... .. . ... ... ... : C-4 02 . ... ... ... : D#3 00 . ... ... ...
ROW 23 : ... .. . ... ... ... : ... .. . ... ... ... : --- .. . ... ... ... : E-# 00 2 ... ... ... : ... .. . ... ... ... : C-4 01 5 ... ... ... : ... .. 5 ... ... ...
ROW 24 : ... .. . ... ... ... : ... .. 8 ... ... ... : ... .. . ... ... ... : B-# 01 . ... ... ... : ... .. . ... ... ... : ... .. . ... ... ... : ... .. . ... ... ...
ROW 25 : ... .. . ... ... ... : ... .. 7 ... ... ... : ... .. . ... ... ... : C-# 00 . ... ... ... : ... .. . ... ... ... : A-3 01 4 ... ... ... : ... .. 4 ... ... ...
ROW 26 : A-3 00 4 ... ... ... : ... .. . ... ... ... : ... .. . ... ... ... : D-# 00 . ... ... ... : ... .. . ... ... ... : ... .. . ... ... ... : ... .. . ... ... ...
ROW 27 : ... .. . ... ... ... : ... .. 6 ... ... ... : ... .. . ... ... ... : C-# 00 1 ... ... ... : ... .. . ... ... ... : A-3 02 . ... ... ... : ... .. . ... ... ...
ROW 28 : F#3 02 9 ... ... ... : F-2 02 7 ... ... ... : C-4 00 . P7F ... ... : A-# 00 A ... ... ... : ... .. . ... ... ... : F#4 01 . ... ... ... : ... .. 3 ... ... ...
ROW 29 : ... .. . ... ... ... : ... .. . ... ... ... : ... .. . ... ... ... : 5-# 01 9 ... ... ... : ... .. . ... ... ... : ... .. . ... ... ... : ... .. . ... ... ...
ROW 2A : ... .. . ... ... ... : F#1 02 6 ... ... ... : A#2 00 . P88 ... ... : 6-# 01 8 ... ... ... : ... .. . ... ... ... : D#4 01 3 ... ... ... : C-3 00 2 ... ... ...
ROW 2B : ... .. . ... ... ... : F-1 02 7 ... ... ... : F-2 00 . P80 ... ... : 7-# 01 7 ... ... ... : ... .. . ... ... ... : ... .. . ... ... ... : ... .. 3 ... ... ...
ROW 2C : F#3 00 . ... ... ... : ... .. . ... ... ... : ... .. . ... ... ... : 8-# 01 . ... ... ... : ... .. . ... ... ... : D#4 02 . ... ... ... : ... .. . ... ... ...
ROW 2D : ... .. A ... ... ... : ... .. . ... ... ... : --- .. . ... ... ... : 9-# 00 . ... ... ... : ... .. . ... ... ... : D#4 01 5 ... ... ... : ... .. . ... ... ...
ROW 2E : ... .. 9 ... ... ... : ... .. . ... ... ... : ... .. . ... ... ... : 9-# 01 . ... ... ... : ... .. . ... ... ... : ... .. . ... ... ... : ... .. . ... ... ...
ROW 2F : ... .. . ... ... ... : ... .. . ... ... ... : ... .. . ... ... ... : 9-# 00 6 ... ... ... : ... .. . ... ... ... : C-4 01 4 ... ... ... : ... .. . ... ... ...
ROW 30 : ... .. . ... ... ... : ... .. . ... ... ... : ... .. . ... ... ... : 9-# 01 . ... ... ... : ... .. . ... ... ... : ... .. . ... ... ... : ... .. . ... ... ...
ROW 31 : ... .. . ... ... ... : ... .. 6 ... ... ... : ... .. . ... ... ... : 9-# 00 . ... ... ... : ... .. . ... ... ... : C-4 02 . ... ... ... : ... .. 4 ... ... ...
ROW 32 : ... .. . ... ... ... : ... .. 5 ... ... ... : ... .. . ... ... ... : ... .. . ... ... ... : ... .. . ... ... ... : ... .. . ... ... ... : D#3 00 . ... ... ...
ROW 33 : F-3 00 4 ... ... ... : F-2 00 9 ... ... ... : F-3 00 . ... ... ... : E-# 00 7 ... ... ... : ... .. . ... ... ... : C-4 01 5 ... ... ... : ... .. . ... ... ...
ROW 34 : ... .. . ... ... ... : ... .. . ... ... ... : F-2 00 . ... ... ... : B-# 01 . ... ... ... : ... .. . ... ... ... : ... .. . ... ... ... : ... .. 5 ... ... ...
ROW 35 : ... .. . ... ... ... : F#1 00 8 ... ... ... : ... .. . ... ... ... : C-# 00 6 ... ... ... : ... .. . ... ... ... : A-3 01 4 ... ... ... : ... .. . ... ... ...
ROW 36 : ... .. . ... ... ... : F-1 00 . ... ... ... : ... .. . ... ... ... : D-# 00 5 ... ... ... : ... .. . ... ... ... : ... .. . ... ... ... : ... .. . ... ... ...
ROW 37 : ... .. . ... ... ... : ... .. . ... ... ... : ... .. . ... ... ... : C-# 00 4 ... ... ... : ... .. . ... ... ... : A-3 02 . ... ... ... : ... .. . ... ... ...
ROW 38 : ... .. . ... ... ... : ... .. 7 ... ... ... : --- .. . ... ... ... : E-# 00 5 ... ... ... : ... .. . ... ... ... : G#3 01 5 ... ... ... : ... .. 4 ... ... ...
ROW 39 : ... .. 3 ... ... ... : ... .. 8 ... ... ... : ... .. . ... ... ... : B-# 01 . ... ... ... : ... .. . ... ... ... : ... .. . ... ... ... : ... .. . ... ... ...
ROW 3A : ... .. . ... ... ... : ... .. 7 ... ... ... : ... .. . ... ... ... : C-# 00 4 ... ... ... : ... .. . ... ... ... : F-3 01 4 ... ... ... : C-3 00 . ... ... ...
ROW 3B : ... .. . ... ... ... : ... .. 6 ... ... ... : ... .. . ... ... ... : D-# 00 3 ... ... ... : ... .. . ... ... ... : ... .. . ... ... ... : ... .. . ... ... ...
ROW 3C : ... .. . ... ... ... : ... .. 5 ... ... ... : ... .. . ... ... ... : C-# 00 . ... ... ... : ... .. . ... ... ... : F-3 02 . ... ... ... : ... .. . ... ... ...
ROW 3D : G#3 02 9 ... ... ... : A#1 02 7 ... ... ... : E-4 00 . ... ... ... : D-# 00 6 ... ... ... : ... .. . ... ... ... : F-4 01 6 ... ... ... : A#2 00 3 ... ... ...
ROW 3E : ... .. . ... ... ... : ... .. . ... ... ... : A#3 00 . P87 ... ... : 3-# 01 9 ... ... ... : ... .. . ... ... ... : ... .. . ... ... ... : ... .. 4 ... ... ...
ROW 3F : ... .. . ... ... ... : B-0 02 6 ... ... ... : F#3 00 . P86 ... ... : 2-# 01 7 ... ... ... : ... .. . ... ... ... : ... .. 5 ... ... ... : ... .. . ... ... ...
ROW 40 : ... .. A ... ... ... : A#0 02 7 ... ... ... : A#1 00 . P80 ... ... : 2-# 00 6 ... ... ... : ... .. . ... ... ... : F-3 01 . ... ... ... : ... .. 5 ... ... ...
ROW 41 : G#3 00 . ... ... ... : ... .. . ... ... ... : ... .. . ... ... ... : 1-# 00 . ... ... ... : ... .. . ... ... ... : F-3 02 . ... ... ... : ... .. . ... ... ...
ROW 42 : ... .. . ... ... ... : ... .. . ... ... ... : --- .. . ... ... ... : ... .. 5 ... ... ... : ... .. . ... ... ... : ... .. . ... ... ... : ... .. 6 ... ... ...
ROW 43 : ... .. 9 ... ... ... : ... .. 8 ... ... ... : ... .. . ... ... ... : ... .. 4 ... ... ... : ... .. . ... ... ... : ... .. . ... ... ... : ... .. . ... ... ...
ROW 44 : ... .. . ... ... ... : ... .. 7 ... ... ... : ... .. . ... ... ... : ... .. . ... ... ... : ... .. . ... ... ... : ... .. . ... ... ... : ... .. . ... ... ...
ROW 45 : ... .. . ... ... ... : ... .. . ... ... ... : ... .. . ... ... ... : ... .. 3 ... ... ... : ... .. . ... ... ... : ... .. 4 ... ... ... : C#3 00 7 ... ... ...
ROW 46 : ... .. . ... ... ... : ... .. 6 ... ... ... : ... .. . ... ... ... : ... .. . ... ... ... : ... .. . ... ... ... : ... .. . ... ... ... : ... .. . ... ... ...
ROW 47 : ... .. . ... ... ... : A#1 01 9 ... ... ... : A#2 00 . ... ... ... : E-# 00 7 ... ... ... : ... .. . ... ... ... : ... .. . ... ... ... : ... .. . ... ... ...
ROW 48 : ... .. . ... ... ... : ... .. . ... ... ... : A#1 00 . ... ... ... : B-# 01 . ... ... ... : ... .. . ... ... ... : ... .. 3 ... ... ... : ... .. . ... ... ...
ROW 49 : ... .. . ... ... ... : B-0 01 8 ... ... ... : ... .. . ... ... ... : C-# 00 6 ... ... ... : ... .. . ... ... ... : ... .. . ... ... ... : ... .. . ... ... ...
ROW 4A : ... .. . ... ... ... : A#0 01 . ... ... ... : ... .. . ... ... ... : D-# 00 5 ... ... ... : ... .. . ... ... ... : ... .. . ... ... ... : ... .. 6 ... ... ...
ROW 4B : ... .. . ... ... ... : ... .. . ... ... ... : ... .. . ... ... ... : C-# 00 4 ... ... ... : ... .. . ... ... ... : ... .. 2 ... ... ... : ... .. . ... ... ...
ROW 4C : ... .. . ... ... ... : ... .. 7 ... ... ... : ... .. . ... ... ... : D-# 00 . ... ... ... : ... .. . ... ... ... : ... .. . ... ... ... : ... .. . ... ... ...
ROW 4D : ... .. . ... ... ... : ... .. 8 ... ... ... : --- .. . ... ... ... : E-# 00 2 ... ... ... : ... .. . ... ... ... : ... .. . ... ... ... : A#2 00 . ... ... ...
ROW 4E : ... .. . ... ... ... : ... .. 7 ... ... ... : ... .. . ... ... ... : B-# 01 . ... ... ... : ... .. . ... ... ... : ... .. 1 ... ... ... : ... .. 5 ... ... ...
ROW 4F : ... .. . ... ... ... : ... .. . ... ... ... : ... .. . ... ... ... : C-# 00 . ... ... ... : ... .. . ... ... ... : ... .. . ... ... ... : ... .. . ... ... ...
ROW 50 : ... .. . ... ... ... : ... .. 6 ... ... ... : ... .. . ... ... ... : D-# 00 . ... ... ... : ... .. . ... ... ... : ... .. . ... ... ... : ... .. . ... ... ...
ROW 51 : ... .. . ... ... ... : ... .. 5 ... ... ... : ... .. . ... ... ... : C-# 00 1 ... ... ... : ... .. . ... ... ... : ... .. . ... ... ... : ... .. . ... ... ...
ROW 52 : ... .. 8 ... ... ... : A#1 00 7 ... ... ... : C-4 00 . P7F ... ... : A-# 00 A ... ... ... : ... .. . ... ... ... : E-3 01 4 ... ... ... : ... .. 3 ... ... ...
ROW 53 : ... .. . P82 ... ... : ... .. . ... ... ... : ... .. . ... ... ... : 5-# 01 9 ... ... ... : ... .. . ... ... ... : ... .. . ... ... ... : ... .. . ... ... ...
ROW 54 : ... .. . P83 ... ... : B-0 00 . ... ... ... : A#1 00 . P80 ... ... : 6-# 01 8 ... ... ... : ... .. . ... ... ... : C#3 01 3 ... ... ... : ... .. . ... ... ...
ROW 55 : ... .. . P85 ... ... : A#0 00 . ... ... ... : ... .. . ... ... ... : 7-# 01 7 ... ... ... : ... .. . ... ... ... : ... .. . ... ... ... : C#3 00 . ... ... ...
ROW 56 : ... .. . P86 ... ... : ... .. . ... ... ... : ... .. . ... ... ... : 8-# 01 . ... ... ... : ... .. . ... ... ... : C#3 02 . ... ... ... : ... .. . ... ... ...
ROW 57 : ... .. 9 P87 ... ... : ... .. . ... ... ... : --- .. . ... ... ... : 9-# 00 . ... ... ... : ... .. . ... ... ... : G#3 01 5 ... ... ... : ... .. . ... ... ...
ROW 58 : A-3 00 . P79 ... ... : ... .. . ... ... ... : ... .. . ... ... ... : 9-# 01 . ... ... ... : ... .. . ... ... ... : ... .. . ... ... ... : ... .. . ... ... ...
ROW 59 : ... .. . P7A ... ... : ... .. . ... ... ... : ... .. . ... ... ... : 9-# 00 6 ... ... ... : ... .. . ... ... ... : F-3 01 4 ... ... ... : ... .. . ... ... ...
ROW 5A : ... .. . ... ... ... : ... .. . ... ... ... : ... .. . ... ... ... : 9-# 01 . ... ... ... : ... .. . ... ... ... : ... .. . ... ... ... : ... .. . ... ... ...
ROW 5B : ... .. . ... ... ... : ... .. 6 ... ... ... : ... .. . ... ... ... : 9-# 00 . ... ... ... : ... .. . ... ... ... : F-3 02 . ... ... ... : ... .. . ... ... ...
ROW 5C : ... .. 7 P79 ... ... : A#1 02 9 ... ... ... : A#2 00 . ... ... ... : E-# 00 7 ... ... ... : ... .. . ... ... ... : B-3 01 5 ... ... ... : ... .. . ... ... ...
ROW 5D : G#3 00 . P87 ... ... : ... .. . ... ... ... : A#1 00 . ... ... ... : B-# 01 . ... ... ... : ... .. . ... ... ... : ... .. . ... ... ... : A#2 00 . ... ... ...
ROW 5E : ... .. 6 P86 ... ... : B-0 02 8 ... ... ... : ... .. . ... ... ... : C-# 00 6 ... ... ... : ... .. . ... ... ... : G#3 01 4 ... ... ... : ... .. 4 ... ... ...
ROW 5F : ... .. . P85 ... ... : A#0 02 . ... ... ... : ... .. . ... ... ... : D-# 00 5 ... ... ... : ... .. . ... ... ... : ... .. . ... ... ... : ... .. . ... ... ...
ROW 60 : ... .. 5 P83 ... ... : ... .. . ... ... ... : ... .. . ... ... ... : C-# 00 4 ... ... ... : ... .. . ... ... ... : G#3 02 . ... ... ... : ... .. . ... ... ...
ROW 61 : ... .. 4 P82 ... ... : ... .. 7 ... ... ... : --- .. . ... ... ... : E-# 00 5 ... ... ... : ... .. . ... ... ... : E-4 01 5 ... ... ... : ... .. 5 ... ... ...
ROW 62 : ... .. . P80 ... ... : ... .. 8 ... ... ... : ... .. . ... ... ... : B-# 01 . ... ... ... : ... .. . ... ... ... : ... .. . ... ... ... : ... .. . ... ... ...
ROW 63 : ... .. 3 P7E ... ... : ... .. 7 ... ... ... : ... .. . ... ... ... : C-# 00 4 ... ... ... : ... .. . ... ... ... : C#4 01 4 ... ... ... : ... .. . ... ... ...
ROW 64 : ... .. . P7D ... ... : ... .. . ... ... ... : ... .. . ... ... ... : D-# 00 3 ... ... ... : ... .. . ... ... ... : ... .. . ... ... ... : ... .. . ... ... ...
ROW 65 : ... .. 2 P7B ... ... : ... .. 6 ... ... ... : ... .. . ... ... ... : C-# 00 . ... ... ... : ... .. . ... ... ... : C#4 02 . ... ... ... : C#3 00 4 ... ... ...
ROW 66 : D-4 02 A P80 ... ... : A#1 00 9 ... ... ... : A#2 00 . ... ... ... : E-# 00 7 ... ... ... : ... .. . ... ... ... : G#4 01 5 ... ... ... : ... .. . ... ... ...
ROW 67 : ... .. . ... ... ... : ... .. . ... ... ... : A#1 00 . ... ... ... : B-# 01 . ... ... ... : ... .. . ... ... ... : ... .. . ... ... ... : ... .. . ... ... ...
ROW 68 : ... .. . ... ... ... : B-0 00 8 ... ... ... : ... .. . ... ... ... : C-# 00 6 ... ... ... : ... .. . ... ... ... : F-4 01 4 ... ... ... : ... .. . ... ... ...
ROW 69 : ... .. . P81 ... ... : A#0 00 . ... ... ... : ... .. . ... ... ... : D-# 00 5 ... ... ... : ... .. . ... ... ... : ... .. . ... ... ... : ... .. . ... ... ...
ROW 6A : D-4 00 . P82 ... ... : ... .. . ... ... ... : ... .. . ... ... ... : C-# 00 4 ... ... ... : ... .. . ... ... ... : F-4 02 . ... ... ... : ... .. 3 ... ... ...
ROW 6B : ... .. . P83 ... ... : ... .. 7 ... ... ... : ... .. . ... ... ... : D-# 00 . ... ... ... : ... .. . ... ... ... : ... .. . ... ... ... : ... .. . ... ... ...
ROW 6C : ... .. 9 P84 ... ... : ... .. 8 ... ... ... : --- .. . ... ... ... : E-# 00 5 ... ... ... : ... .. . ... ... ... : E-4 01 5 ... ... ... : ... .. . ... ... ...
ROW 6D : ... .. . P85 ... ... : ... .. 7 ... ... ... : ... .. . ... ... ... : B-# 01 . ... ... ... : ... .. . ... ... ... : ... .. . ... ... ... : A#2 00 . ... ... ...
ROW 6E : D#4 00 . P7C ... ... : ... .. . ... ... ... : ... .. . ... ... ... : C-# 00 4 ... ... ... : ... .. . ... ... ... : C#4 01 4 ... ... ... : ... .. . ... ... ...
ROW 6F : ... .. . P7D ... ... : ... .. 6 ... ... ... : ... .. . ... ... ... : D-# 00 3 ... ... ... : ... .. . ... ... ... : ... .. . ... ... ... : ... .. . ... ... ...
ROW 70 : ... .. . P7E ... ... : ... .. 5 ... ... ... : ... .. . ... ... ... : C-# 00 . ... ... ... : ... .. . ... ... ... : C#4 02 . ... ... ... : ... .. . ... ... ...
ROW 71 : ... .. 8 P7F ... ... : A#1 01 7 ... ... ... : E-4 00 . ... ... ... : D-# 00 6 ... ... ... : ... .. . ... ... ... : C#4 01 . ... ... ... : ... .. . ... ... ...
ROW 72 : ... .. . P80 ... ... : ... .. . ... ... ... : A#3 00 . P87 ... ... : 3-# 01 9 ... ... ... : ... .. . ... ... ... : ... .. . ... ... ... : ... .. . ... ... ...
ROW 73 : ... .. 9 ... ... ... : B-0 01 . ... ... ... : A#1 00 . P80 ... ... : 2-# 01 7 ... ... ... : ... .. . ... ... ... : A#3 01 3 ... ... ... : ... .. . ... ... ...
ROW 74 : ... .. . ... ... ... : A#0 01 . ... ... ... : ... .. . ... ... ... : 2-# 00 6 ... ... ... : ... .. . ... ... ... : ... .. . ... ... ... : ... .. 4 ... ... ...
ROW 75 : ... .. . ... ... ... : ... .. . ... ... ... : ... .. . ... ... ... : 1-# 00 . ... ... ... : ... .. . ... ... ... : A#3 02 . ... ... ... : C#3 00 . ... ... ...
ROW 76 : ... .. . ... ... ... : ... .. . ... ... ... : --- .. . ... ... ... : E-# 00 2 ... ... ... : ... .. . ... ... ... : B-3 01 5 ... ... ... : ... .. 5 ... ... ...
ROW 77 : ... .. . ... ... ... : ... .. 8 ... ... ... : ... .. . ... ... ... : B-# 01 . ... ... ... : ... .. . ... ... ... : ... .. . ... ... ... : ... .. . ... ... ...
ROW 78 : ... .. . ... ... ... : ... .. 7 ... ... ... : ... .. . ... ... ... : C-# 00 . ... ... ... : ... .. . ... ... ... : G#3 01 4 ... ... ... : ... .. 4 ... ... ...
ROW 79 : ... .. . ... ... ... : ... .. . ... ... ... : ... .. . ... ... ... : D-# 00 . ... ... ... : ... .. . ... ... ... : ... .. . ... ... ... : ... .. . ... ... ...
ROW 7A : ... .. . ... ... ... : ... .. 6 ... ... ... : ... .. . ... ... ... : C-# 00 1 ... ... ... : ... .. . ... ... ... : G#3 02 . ... ... ... : ... .. . ... ... ...
ROW 7B : ... .. 8 ... ... ... : A#1 02 7 ... ... ... : C-4 00 . P7F ... ... : A-# 00 A ... ... ... : ... .. . ... ... ... : E-4 01 . ... ... ... : ... .. 3 ... ... ...
ROW 7C : ... .. . P82 ... ... : ... .. . ... ... ... : ... .. . ... ... ... : 5-# 01 9 ... ... ... : ... .. . ... ... ... : ... .. . ... ... ... : ... .. . ... ... ...
ROW 7D : ... .. . P83 ... ... : B-0 02 6 ... ... ... : A#2 00 . P88 ... ... : 6-# 01 8 ... ... ... : ... .. . ... ... ... : C#4 01 3 ... ... ... : A#2 00 2 ... ... ...
ROW 7E : ... .. . P85 ... ... : A#0 02 7 ... ... ... : A#1 00 . P80 ... ... : 7-# 01 7 ... ... ... : ... .. . ... ... ... : ... .. . ... ... ... : ... .. 3 ... ... ...
ROW 7F : E-4 00 . P7C ... ... : ... .. . ... ... ... : ... .. . ... ... ... : 8-# 01 . ... ... ... : ... .. . ... ... ... : C#4 02 . ... ... ... : ... .. . ... ... ...
ROW 80 : ... .. 9 P7D ... ... : ... .. . ... ... ... : --- .. . ... ... ... : 9-# 00 . ... ... ... : ... .. . ... ... ... : C#4 01 5 ... ... ... : ... .. . ... ... ...
ROW 81 : ... .. . P7E ... ... : ... .. . ... ... ... : ... .. . ... ... ... : 9-# 01 . ... ... ... : ... .. . ... ... ... : ... .. . ... ... ... : ... .. . ... ... ...
ROW 82 : ... .. . P7F ... ... : ... .. . ... ... ... : ... .. . ... ... ... : 9-# 00 6 ... ... ... : ... .. . ... ... ... : A#3 01 4 ... ... ... : ... .. . ... ... ...
ROW 83 : ... .. . ... ... ... : ... .. . ... ... ... : ... .. . ... ... ... : 9-# 01 . ... ... ... : ... .. . ... ... ... : ... .. . ... ... ... : ... .. . ... ... ...
ROW 84 : ... .. . ... ... ... : ... .. 6 ... ... ... : ... .. . ... ... ... : 9-# 00 . ... ... ... : ... .. . ... ... ... : A#3 02 . ... ... ... : ... .. 4 ... ... ...
ROW 85 : ... .. . P7E ... ... : ... .. 5 ... ... ... : ... .. . ... ... ... : ... .. . ... ... ... : ... .. . ... ... ... : ... .. . ... ... ... : C#3 00 . ... ... ...
ROW 86 : ... .. 7 P7D ... ... : A#1 00 9 ... ... ... : A#2 00 . ... ... ... : E-# 00 7 ... ... ... : ... .. . ... ... ... : B-3 01 5 ... ... ... : ... .. . ... ... ...
ROW 87 : ... .. . P7C ... ... : ... .. . ... ... ... : A#1 00 . ... ... ... : B-# 01 . ... ... ... : ... .. . ... ... ... : ... .. . ... ... ... : ... .. 5 ... ... ...
ROW 88 : D#4 00 6 P85 ... ... : B-0 00 8 ... ... ... : ... .. . ... ... ... : C-# 00 6 ... ... ... : ... .. . ... ... ... : G#3 01 4 ... ... ... : ... .. . ... ... ...
ROW 89 : ... .. . P83 ... ... : A#0 00 . ... ... ... : ... .. . ... ... ... : D-# 00 5 ... ... ... : ... .. . ... ... ... : ... .. . ... ... ... : ... .. . ... ... ...
ROW 8A : ... .. 5 P82 ... ... : ... .. . ... ... ... : ... .. . ... ... ... : C-# 00 4 ... ... ... : ... .. . ... ... ... : G#3 02 . ... ... ... : ... .. . ... ... ...
ROW 8B : ... .. 4 P80 ... ... : ... .. 7 ... ... ... : --- .. . ... ... ... : E-# 00 5 ... ... ... : ... .. . ... ... ... : G#3 01 5 ... ... ... : ... .. 4 ... ... ...
ROW 8C : ... .. . P7E ... ... : ... .. 8 ... ... ... : ... .. . ... ... ... : B-# 01 . ... ... ... : ... .. . ... ... ... : ... .. . ... ... ... : ... .. . ... ... ...
ROW 8D : ... .. 3 P7D ... ... : ... .. 7 ... ... ... : ... .. . ... ... ... : C-# 00 4 ... ... ... : ... .. . ... ... ... : F-3 01 4 ... ... ... : A#2 00 . ... ... ...
ROW 8E : D-4 00 . P85 ... ... : ... .. 6 ... ... ... : ... .. . ... ... ... : D-# 00 3 ... ... ... : ... .. . ... ... ... : ... .. . ... ... ... : ... .. . ... ... ...
ROW 8F : ... .. 2 P84 ... ... : ... .. 5 ... ... ... : ... .. . ... ... ... : C-# 00 . ... ... ... : ... .. . ... ... ... : F-3 02 . ... ... ... : ... .. . ... ... ...
ROW 90 : D-4 02 9 P80 ... ... : D-2 02 7 ... ... ... : E-4 00 . ... ... ... : D-# 00 6 ... ... ... : ... .. . ... ... ... : F-4 01 6 ... ... ... : G#2 00 3 ... ... ...
ROW 91 : ... .. . ... ... ... : ... .. . ... ... ... : A#3 00 . P87 ... ... : 3-# 01 9 ... ... ... : ... .. . ... ... ... : ... .. . ... ... ... : ... .. 4 ... ... ...
ROW 92 : ... .. A ... ... ... : D#1 02 . ... ... ... : D-2 00 . P80 ... ... : 2-# 01 7 ... ... ... : ... .. . ... ... ... : ... .. 5 ... ... ... : ... .. . ... ... ...
ROW 93 : ... .. . ... ... ... : D-1 02 . ... ... ... : ... .. . ... ... ... : 2-# 00 6 ... ... ... : ... .. . ... ... ... : F-3 01 . ... ... ... : ... .. 5 ... ... ...
ROW 94 : D-4 00 . ... ... ... : ... .. . ... ... ... : ... .. . ... ... ... : 1-# 00 . ... ... ... : ... .. . ... ... ... : F-3 02 . ... ... ... : ... .. . ... ... ...
ROW 95 : ... .. . ... ... ... : ... .. . ... ... ... : --- .. . ... ... ... : ... .. 5 ... ... ... : ... .. . ... ... ... : ... .. . ... ... ... : ... .. 6 ... ... ...
ROW 96 : ... .. 9 ... ... ... : ... .. 8 ... ... ... : ... .. . ... ... ... : ... .. 4 ... ... ... : ... .. . ... ... ... : ... .. . ... ... ... : ... .. . ... ... ...
ROW 97 : ... .. . ... ... ... : ... .. 7 ... ... ... : ... .. . ... ... ... : ... .. . ... ... ... : ... .. . ... ... ... : ... .. . ... ... ... : ... .. . ... ... ...
ROW 98 : ... .. . ... ... ... : ... .. . ... ... ... : ... .. . ... ... ... : ... .. 3 ... ... ... : ... .. . ... ... ... : ... .. 4 ... ... ... : D-3 00 7 ... ... ...
ROW 99 : ... .. . ... ... ... : ... .. 6 ... ... ... : ... .. . ... ... ... : ... .. . ... ... ... : ... .. . ... ... ... : ... .. . ... ... ... : ... .. . ... ... ...
ROW 9A : ... .. . ... ... ... : D-2 01 9 ... ... ... : D-3 00 . ... ... ... : E-# 00 7 ... ... ... : ... .. . ... ... ... : ... .. . ... ... ... : ... .. . ... ... ...
ROW 9B : ... .. . ... ... ... : ... .. . ... ... ... : D-2 00 . ... ... ... : B-# 01 . ... ... ... : ... .. . ... ... ... : ... .. 3 ... ... ... : ... .. . ... ... ...
ROW 9C : ... .. . ... ... ... : D#1 01 8 ... ... ... : ... .. . ... ... ... : C-# 00 6 ... ... ... : ... .. . ... ... ... : ... .. . ... ... ... : ... .. . ... ... ...
ROW 9D : ... .. . ... ... ... : D-1 01 . ... ... ... : ... .. . ... ... ... : D-# 00 5 ... ... ... : ... .. . ... ... ... : ... .. . ... ... ... : ... .. 6 ... ... ...
ROW 9E : ... .. . ... ... ... : ... .. . ... ... ... : ... .. . ... ... ... : C-# 00 4 ... ... ... : ... .. . ... ... ... : ... .. 2 ... ... ... : ... .. . ... ... ...
ROW 9F : ... .. . ... ... ... : ... .. 7 ... ... ... : --- .. . ... ... ... : E-# 00 2 ... ... ... : ... .. . ... ... ... : ... .. . ... ... ... : ... .. . ... ... ...
ROW A0 : ... .. . ... ... ... : ... .. 8 ... ... ... : ... .. . ... ... ... : B-# 01 . ... ... ... : ... .. . ... ... ... : ... .. . ... ... ... : G#2 00 . ... ... ...
ROW A1 : ... .. . ... ... ... : ... .. 7 ... ... ... : ... .. . ... ... ... : C-# 00 . ... ... ... : ... .. . ... ... ... : ... .. 1 ... ... ... : ... .. 5 ... ... ...
ROW A2 : ... .. . ... ... ... : ... .. . ... ... ... : ... .. . ... ... ... : D-# 00 . ... ... ... : ... .. . ... ... ... : ... .. . ... ... ... : ... .. . ... ... ...
ROW A3 : ... .. . ... ... ... : ... .. 6 ... ... ... : ... .. . ... ... ... : C-# 00 1 ... ... ... : ... .. . ... ... ... : ... .. . ... ... ... : ... .. . ... ... ...
ROW A4 : ... .. . ... ... ... : ... .. 5 ... ... ... : ... .. . ... ... ... : D-# 00 . ... ... ... : ... .. . ... ... ... : ... .. . ... ... ... : ... .. . ... ... ...
ROW A5 : ... .. 8 ... ... ... : D-2 00 7 ... ... ... : C-4 00 . P7F ... ... : A-# 00 A ... ... ... : ... .. . ... ... ... : F-3 01 4 ... ... ... : ... .. 3 ... ... ...
ROW A6 : ... .. . P82 ... ... : ... .. . ... ... ... : ... .. . ... ... ... : 5-# 01 9 ... ... ... : ... .. . ... ... ... : ... .. . ... ... ... : ... .. . ... ... ...
ROW A7 : ... .. . P83 ... ... : D#1 00 . ... ... ... : D-2 00 . P80 ... ... : 6-# 01 8 ... ... ... : ... .. . ... ... ... : D-3 01 3 ... ... ... : ... .. . ... ... ...
ROW A8 : ... .. . P85 ... ... : D-1 00 . ... ... ... : ... .. . ... ... ... : 7-# 01 7 ... ... ... : ... .. . ... ... ... : ... .. . ... ... ... : D-3 00 . ... ... ...
ROW A9 : D#4 00 . P7C ... ... : ... .. . ... ... ... : ... .. . ... ... ... : 8-# 01 . ... ... ... : ... .. . ... ... ... : D-3 02 . ... ... ... : ... .. . ... ... ...
ROW AA : ... .. 9 P7D ... ... : ... .. . ... ... ... : --- .. . ... ... ... : 9-# 00 . ... ... ... : ... .. . ... ... ... : G#3 01 5 ... ... ... : ... .. . ... ... ...
ROW AB : ... .. . P7E ... ... : ... .. . ... ... ... : ... .. . ... ... ... : 9-# 01 . ... ... ... : ... .. . ... ... ... : ... .. . ... ... ... : ... .. . ... ... ...
ROW AC : ... .. . P7F ... ... : ... .. . ... ... ... : ... .. . ... ... ... : 9-# 00 6 ... ... ... : ... .. . ... ... ... : F-3 01 4 ... ... ... : ... .. . ... ... ...
ROW AD : ... .. . ... ... ... : ... .. 6 ... ... ... : ... .. . ... ... ... : 9-# 01 . ... ... ... : ... .. . ... ... ... : ... .. . ... ... ... : ... .. . ... ... ...
ROW AE : ... .. . ... ... ... : ... .. 5 ... ... ... : ... .. . ... ... ... : 9-# 00 . ... ... ... : ... .. . ... ... ... : F-3 02 . ... ... ... : ... .. . ... ... ...
ROW AF : ... .. 7 P7E ... ... : D-2 02 9 ... ... ... : D-3 00 . ... ... ... : E-# 00 7 ... ... ... : ... .. . ... ... ... : B-3 01 5 ... ... ... : ... .. . ... ... ...
ROW B0 : ... .. . P7D ... ... : ... .. . ... ... ... : D-2 00 . ... ... ... : B-# 01 . ... ... ... : ... .. . ... ... ... : ... .. . ... ... ... : G#2 00 . ... ... ...
ROW B1 : ... .. 6 P7C ... ... : D#1 02 8 ... ... ... : ... .. . ... ... ... : C-# 00 6 ... ... ... : ... .. . ... ... ... : G#3 01 4 ... ... ... : ... .. 4 ... ... ...
ROW B2 : D-4 00 . P85 ... ... : D-1 02 . ... ... ... : ... .. . ... ... ... : D-# 00 5 ... ... ... : ... .. . ... ... ... : ... .. . ... ... ... : ... .. . ... ... ...
ROW B3 : ... .. 5 P83 ... ... : ... .. . ... ... ... : ... .. . ... ... ... : C-# 00 4 ... ... ... : ... .. . ... ... ... : G#3 02 . ... ... ... : ... .. . ... ... ...
ROW B4 : ... .. 4 P82 ... ... : ... .. 7 ... ... ... : --- .. . ... ... ... : E-# 00 5 ... ... ... : ... .. . ... ... ... : F-4 01 5 ... ... ... : ... .. 5 ... ... ...
ROW B5 : ... .. . P80 ... ... : ... .. 8 ... ... ... : ... .. . ... ... ... : B-# 01 . ... ... ... : ... .. . ... ... ... : ... .. . ... ... ... : ... .. . ... ... ...
ROW B6 : ... .. 3 P7E ... ... : ... .. 7 ... ... ... : ... .. . ... ... ... : C-# 00 4 ... ... ... : ... .. . ... ... ... : D-4 01 4 ... ... ... : ... .. . ... ... ...
ROW B7 : ... .. . P7D ... ... : ... .. . ... ... ... : ... .. . ... ... ... : D-# 00 3 ... ... ... : ... .. . ... ... ... : ... .. . ... ... ... : ... .. . ... ... ...
ROW B8 : ... .. 2 P7B ... ... : ... .. 6 ... ... ... : ... .. . ... ... ... : C-# 00 . ... ... ... : ... .. . ... ... ... : D-4 02 . ... ... ... : D-3 00 4 ... ... ...
ROW B9 : G#3 02 A P80 ... ... : D-2 00 9 ... ... ... : D-3 00 . ... ... ... : E-# 00 7 ... ... ... : ... .. . ... ... ... : G#4 01 5 ... ... ... : ... .. . ... ... ...
ROW BA : ... .. . ... ... ... : ... .. . ... ... ... : D-2 00 . ... ... ... : B-# 01 . ... ... ... : ... .. . ... ... ... : ... .. . ... ... ... : ... .. . ... ... ...
ROW BB : ... .. . ... ... ... : D#1 00 8 ... ... ... : ... .. . ... ... ... : C-# 00 6 ... ... ... : ... .. . ... ... ... : F-4 01 4 ... ... ... : ... .. . ... ... ...
ROW BC : ... .. . ... ... ... : D-1 00 . ... ... ... : ... .. . ... ... ... : D-# 00 5 ... ... ... : ... .. . ... ... ... : ... .. . ... ... ... : ... .. . ... ... ...
ROW BD : G#3 00 . ... ... ... : ... .. . ... ... ... : ... .. . ... ... ... : C-# 00 4 ... ... ... : ... .. . ... ... ... : F-4 02 . ... ... ... : ... .. 3 ... ... ...
ROW BE : ... .. . ... ... ... : ... .. 7 ... ... ... : --- .. . ... ... ... : E-# 00 5 ... ... ... : ... .. . ... ... ... : F-4 01 5 ... ... ... : ... .. . ... ... ...
ROW BF : ... .. 9 ... ... ... : ... .. 8 ... ... ... : ... .. . ... ... ... : B-# 01 . ... ... ... : ... .. . ... ... ... : ... .. . ... ... ... : ... .. . ... ... ...
ROW C0 : ... .. . ... ... ... : ... .. 7 ... ... ... : ... .. . ... ... ... : C-# 00 4 ... ... ... : ... .. . ... ... ... : D-4 01 4 ... ... ... : G#2 00 . ... ... ...
ROW C1 : ... .. . ... ... ... : ... .. . ... ... ... : ... .. . ... ... ... : D-# 00 3 ... ... ... : ... .. . ... ... ... : ... .. . ... ... ... : ... .. . ... ... ...
ROW C2 : ... .. . ... ... ... : ... .. 6 ... ... ... : ... .. . ... ... ... : C-# 00 . ... ... ... : ... .. . ... ... ... : D-4 02 . ... ... ... : ... .. . ... ... ...
ROW C3 : ... .. . ... ... ... : ... .. 5 ... ... ... : ... .. . ... ... ... : D-# 00 . ... ... ... : ... .. . ... ... ... : ... .. . ... ... ... : ... .. . ... ... ...
ROW C4 : ... .. 8 ... ... ... : D-3 00 7 ... ... ... : E-4 00 . ... ... ... : ... .. 6 ... ... ... : ... .. . ... ... ... : C#4 01 . ... ... ... : ... .. . ... ... ...
ROW C5 : ... .. . ... ... ... : ... .. . ... ... ... : A#3 00 . P87 ... ... : 3-# 01 9 ... ... ... : ... .. . ... ... ... : ... .. . ... ... ... : ... .. . ... ... ...
ROW C6 : ... .. 9 ... ... ... : D#2 00 . ... ... ... : D-3 00 . P80 ... ... : 2-# 01 7 ... ... ... : ... .. . ... ... ... : A#3 01 3 ... ... ... : ... .. . ... ... ...
ROW C7 : ... .. . ... ... ... : D-2 00 . ... ... ... : ... .. . ... ... ... : 2-# 00 6 ... ... ... : ... .. . ... ... ... : ... .. . ... ... ... : ... .. 4 ... ... ...
ROW C8 : ... .. . ... ... ... : ... .. . ... ... ... : ... .. . ... ... ... : 1-# 00 . ... ... ... : ... .. . ... ... ... : A#3 02 . ... ... ... : D-3 00 . ... ... ...
ROW C9 : ... .. . ... ... ... : D-2 01 . ... ... ... : --- .. . ... ... ... : E-# 00 2 ... ... ... : ... .. . ... ... ... : B-3 01 5 ... ... ... : ... .. 5 ... ... ...
ROW CA : ... .. . ... ... ... : ... .. 8 ... ... ... : ... .. . ... ... ... : B-# 01 . ... ... ... : ... .. . ... ... ... : ... .. . ... ... ... : ... .. . ... ... ...
ROW CB : D-4 00 4 ... ... ... : ... .. 7 ... ... ... : ... .. . ... ... ... : C-# 00 . ... ... ... : ... .. . ... ... ... : G#3 01 4 ... ... ... : ... .. 4 ... ... ...
ROW CC : ... .. . ... ... ... : ... .. 6 ... ... ... : ... .. . ... ... ... : D-# 00 . ... ... ... : ... .. . ... ... ... : ... .. . ... ... ... : ... .. . ... ... ...
ROW CD : ... .. . ... ... ... : ... .. 5 ... ... ... : ... .. . ... ... ... : C-# 00 1 ... ... ... : ... .. . ... ... ... : G#3 02 . ... ... ... : ... .. . ... ... ...
ROW CE : A#3 02 9 ... ... ... : D-2 02 7 ... ... ... : C-4 00 . P7F ... ... : A-# 00 A ... ... ... : ... .. . ... ... ... : F-4 01 . ... ... ... : ... .. 3 ... ... ...
ROW CF : ... .. . ... ... ... : ... .. . ... ... ... : ... .. . ... ... ... : 5-# 01 9 ... ... ... : ... .. . ... ... ... : ... .. . ... ... ... : ... .. . ... ... ...
ROW D0 : ... .. . ... ... ... : D#1 02 6 ... ... ... : A#2 00 . P88 ... ... : 6-# 01 8 ... ... ... : ... .. . ... ... ... : D-4 01 3 ... ... ... : G#2 00 2 ... ... ...
ROW D1 : ... .. . ... ... ... : D-1 02 7 ... ... ... : D-2 00 . P80 ... ... : 7-# 01 7 ... ... ... : ... .. . ... ... ... : ... .. . ... ... ... : ... .. 3 ... ... ...
ROW D2 : A#3 00 . ... ... ... : ... .. . ... ... ... : ... .. . ... ... ... : 8-# 01 . ... ... ... : ... .. . ... ... ... : D-4 02 . ... ... ... : ... .. . ... ... ...
ROW D3 : ... .. A ... ... ... : ... .. . ... ... ... : --- .. . ... ... ... : 9-# 00 . ... ... ... : ... .. . ... ... ... : C#4 01 5 ... ... ... : ... .. . ... ... ...
ROW D4 : ... .. 9 ... ... ... : ... .. . ... ... ... : ... .. . ... ... ... : 9-# 01 . ... ... ... : ... .. . ... ... ... : ... .. . ... ... ... : ... .. . ... ... ...
ROW D5 : ... .. . ... ... ... : ... .. . ... ... ... : ... .. . ... ... ... : 9-# 00 6 ... ... ... : ... .. . ... ... ... : A#3 01 4 ... ... ... : ... .. . ... ... ...
ROW D6 : ... .. . ... ... ... : ... .. . ... ... ... : ... .. . ... ... ... : 9-# 01 . ... ... ... : ... .. . ... ... ... : ... .. . ... ... ... : ... .. . ... ... ...
ROW D7 : ... .. . ... ... ... : ... .. 6 ... ... ... : ... .. . ... ... ... : 9-# 00 . ... ... ... : ... .. . ... ... ... : A#3 02 . ... ... ... : ... .. 4 ... ... ...
ROW D8 : G#3 00 4 ... ... ... : D-2 01 9 ... ... ... : D-3 00 . ... ... ... : E-# 00 7 ... ... ... : ... .. . ... ... ... : B-3 01 5 ... ... ... : D-3 00 . ... ... ...
ROW D9 : ... .. . ... ... ... : ... .. . ... ... ... : D-2 00 . ... ... ... : B-# 01 . ... ... ... : ... .. . ... ... ... : ... .. . ... ... ... : ... .. . ... ... ...
ROW DA : ... .. . ... ... ... : D#1 01 8 ... ... ... : ... .. . ... ... ... : C-# 00 6 ... ... ... : ... .. . ... ... ... : G#3 01 4 ... ... ... : ... .. 5 ... ... ...
ROW DB : ... .. . ... ... ... : D-1 01 . ... ... ... : ... .. . ... ... ... : D-# 00 5 ... ... ... : ... .. . ... ... ... : ... .. . ... ... ... : ... .. . ... ... ...
ROW DC : ... .. . ... ... ... : ... .. . ... ... ... : ... .. . ... ... ... : C-# 00 4 ... ... ... : ... .. . ... ... ... : G#3 02 . ... ... ... : ... .. . ... ... ...
ROW DD : ... .. . ... ... ... : ... .. 7 ... ... ... : ... .. . ... ... ... : D-# 00 . ... ... ... : ... .. . ... ... ... : ... .. . ... ... ... : ... .. . ... ... ...
ROW DE : ... .. 3 ... ... ... : ... .. 8 ... ... ... : --- .. . ... ... ... : E-# 00 5 ... ... ... : ... .. . ... ... ... : G#3 01 5 ... ... ... : ... .. 4 ... ... ...
ROW DF : ... .. . ... ... ... : ... .. 7 ... ... ... : ... .. . ... ... ... : B-# 01 . ... ... ... : ... .. . ... ... ... : ... .. . ... ... ... : ... .. . ... ... ...
ROW E0 : ... .. . ... ... ... : ... .. . ... ... ... : ... .. . ... ... ... : C-# 00 4 ... ... ... : ... .. . ... ... ... : F-3 01 4 ... ... ... : G#2 00 . ... ... ...
ROW E1 : ... .. . ... ... ... : ... .. 6 ... ... ... : ... .. . ... ... ... : D-# 00 3 ... ... ... : ... .. . ... ... ... : ... .. . ... ... ... : ... .. . ... ... ...
ROW E2 : ... .. . ... ... ... : ... .. 5 ... ... ... : ... .. . ... ... ... : C-# 00 . ... ... ... : ... .. . ... ... ... : F-3 02 . ... ... ... : ... .. . ... ... ...
ROW E3 : B-3 02 9 ... ... ... : B-1 02 7 ... ... ... : E-4 00 . ... ... ... : D-# 00 6 ... ... ... : ... .. . ... ... ... : D#4 01 6 ... ... ... : B-2 00 3 ... ... ...
ROW E4 : ... .. . ... ... ... : ... .. . ... ... ... : A#3 00 . P87 ... ... : 3-# 01 9 ... ... ... : ... .. . ... ... ... : ... .. . ... ... ... : ... .. 4 ... ... ...
ROW E5 : ... .. A ... ... ... : C-1 02 . ... ... ... : B-1 00 . P80 ... ... : 2-# 01 7 ... ... ... : ... .. . ... ... ... : ... .. 5 ... ... ... : ... .. . ... ... ...
ROW E6 : ... .. . ... ... ... : B-0 02 . ... ... ... : ... .. . ... ... ... : 2-# 00 6 ... ... ... : ... .. . ... ... ... : D#3 01 . ... ... ... : ... .. 5 ... ... ...
ROW E7 : B-3 00 . ... ... ... : ... .. . ... ... ... : ... .. . ... ... ... : 1-# 00 . ... ... ... : ... .. . ... ... ... : D#3 02 . ... ... ... : ... .. . ... ... ...
ROW E8 : ... .. . ... ... ... : ... .. . ... ... ... : --- .. . ... ... ... : ... .. 5 ... ... ... : ... .. . ... ... ... : ... .. . ... ... ... : ... .. 6 ... ... ...
ROW E9 : ... .. 9 ... ... ... : ... .. 8 ... ... ... : ... .. . ... ... ... : ... .. 4 ... ... ... : ... .. . ... ... ... : ... .. . ... ... ... : ... .. . ... ... ...
ROW EA : ... .. . ... ... ... : ... .. 7 ... ... ... : ... .. . ... ... ... : ... .. . ... ... ... : ... .. . ... ... ... : ... .. . ... ... ... : ... .. . ... ... ...
ROW EB : ... .. . ... ... ... : ... .. 6 ... ... ... : ... .. . ... ... ... : ... .. 3 ... ... ... : ... .. . ... ... ... : ... .. 4 ... ... ... : D#3 00 7 ... ... ...
ROW EC : ... .. . ... ... ... : ... .. 5 ... ... ... : ... .. . ... ... ... : ... .. . ... ... ... : ... .. . ... ... ... : ... .. . ... ... ... : ... .. . ... ... ...
ROW ED : ... .. . ... ... ... : B-1 01 9 ... ... ... : B-2 00 . ... ... ... : E-# 00 7 ... ... ... : ... .. . ... ... ... : ... .. . ... ... ... : ... .. . ... ... ...
ROW EE : ... .. . P82 ... ... : ... .. . ... ... ... : B-1 00 . ... ... ... : B-# 01 . ... ... ... : ... .. . ... ... ... : ... .. 3 ... ... ... : ... .. . ... ... ...
ROW EF : ... .. . P83 ... ... : C-1 01 8 ... ... ... : ... .. . ... ... ... : C-# 00 6 ... ... ... : ... .. . ... ... ... : ... .. . ... ... ... : ... .. . ... ... ...
ROW F0 : ... .. . P85 ... ... : B-0 01 . ... ... ... : ... .. . ... ... ... : D-# 00 5 ... ... ... : ... .. . ... ... ... : ... .. . ... ... ... : ... .. 6 ... ... ...
ROW F1 : ... .. . P86 ... ... : ... .. . ... ... ... : ... .. . ... ... ... : C-# 00 4 ... ... ... : ... .. . ... ... ... : ... .. 2 ... ... ... : ... .. . ... ... ...
ROW F2 : C-4 00 . P7B ... ... : ... .. 7 ... ... ... : --- .. . ... ... ... : E-# 00 2 ... ... ... : ... .. . ... ... ... : ... .. . ... ... ... : ... .. . ... ... ...
ROW F3 : ... .. . P7C ... ... : ... .. 8 ... ... ... : ... .. . ... ... ... : B-# 01 . ... ... ... : ... .. . ... ... ... : ... .. . ... ... ... : B-2 00 . ... ... ...
ROW F4 : ... .. . P7D ... ... : ... .. 7 ... ... ... : ... .. . ... ... ... : C-# 00 . ... ... ... : ... .. . ... ... ... : ... .. 1 ... ... ... : ... .. 5 ... ... ...
ROW F5 : A#3 00 4 P80 ... ... : ... .. . ... ... ... : ... .. . ... ... ... : D-# 00 . ... ... ... : ... .. . ... ... ... : ... .. . ... ... ... : ... .. . ... ... ...
ROW F6 : ... .. . ... ... ... : ... .. 6 ... ... ... : ... .. . ... ... ... : C-# 00 1 ... ... ... : ... .. . ... ... ... : ... .. . ... ... ... : ... .. . ... ... ...
ROW F7 : A#3 02 9 ... ... ... : B-1 00 7 ... ... ... : C-4 00 . P7F ... ... : A-# 00 A ... ... ... : ... .. . ... ... ... : F#3 01 4 ... ... ... : ... .. 4 ... ... ...
ROW F8 : ... .. . ... ... ... : ... .. . ... ... ... : ... .. . ... ... ... : 5-# 01 9 ... ... ... : ... .. . ... ... ... : ... .. . ... ... ... : ... .. 3 ... ... ...
ROW F9 : ... .. . ... ... ... : C-1 00 6 ... ... ... : A#2 00 . P88 ... ... : 6-# 01 8 ... ... ... : ... .. . ... ... ... : D#3 01 3 ... ... ... : ... .. . ... ... ...
ROW FA : ... .. . ... ... ... : B-0 00 7 ... ... ... : B-1 00 . P80 ... ... : 7-# 01 7 ... ... ... : ... .. . ... ... ... : ... .. . ... ... ... : ... .. . ... ... ...
ROW FB : A#3 00 . ... ... ... : ... .. . ... ... ... : ... .. . ... ... ... : 8-# 01 . ... ... ... : ... .. . ... ... ... : D#3 02 . ... ... ... : D#3 00 . ... ... ...
ROW FC : ... .. . ... ... ... : ... .. 6 ... ... ... : ... .. . ... ... ... : 9-# 00 . ... ... ... : ... .. . ... ... ... : ... .. . ... ... ... : ... .. . ... ... ...
ROW FD : ... .. . ... ... ... : ... .. 7 ... ... ... : --- .. . ... ... ... : 9-# 01 . ... ... ... : ... .. . ... ... ... : A-3 01 5 ... ... ... : ... .. . ... ... ...
ROW FE : ... .. . ... ... ... : ... .. . ... ... ... : ... .. . ... ... ... : 9-# 00 6 ... ... ... : ... .. . ... ... ... : ... .. . ... ... ... : ... .. . ... ... ...
ROW FF : ... .. . ... ... ... : ... .. . ... ... ... : ... .. . ... ... ... : 9-# 01 . ... ... ... : ... .. . ... ... ... : F#3 01 4 ... ... ... : ... .. . ... ... ...

PATTERN 04
ROW 00 : ... .. . ... ... ... : ... .. 6 ... ... ... : ... .. . ... ... ... : 9-# 00 . ... ... ... : ... .. . ... ... ... : ... .. . ... ... ... : ... .. . ... ... ...
ROW 01 : ... .. . ... ... ... : ... .. 5 ... ... ... : ... .. . ... ... ... : ... .. . ... ... ... : ... .. . ... ... ... : F#3 02 . ... ... ... : ... .. . ... ... ...
ROW 02 : ... .. . ... ... ... : B-1 02 9 ... ... ... : B-2 00 . ... ... ... : E-# 00 7 ... ... ... : ... .. . ... ... ... : D-4 01 5 ... ... ... : ... .. . ... ... ...
ROW 03 : ... .. . ... ... ... : ... .. . ... ... ... : B-1 00 . ... ... ... : B-# 01 . ... ... ... : ... .. . ... ... ... : ... .. . ... ... ... : B-2 00 . ... ... ...
ROW 04 : B-3 00 4 ... ... ... : C-1 02 8 ... ... ... : ... .. . ... ... ... : C-# 00 6 ... ... ... : ... .. . ... ... ... : B-3 01 4 ... ... ... : ... .. 4 ... ... ...
ROW 05 : ... .. . ... ... ... : B-0 02 . ... ... ... : ... .. . ... ... ... : D-# 00 5 ... ... ... : ... .. . ... ... ... : ... .. . ... ... ... : ... .. . ... ... ...
ROW 06 : ... .. . ... ... ... : ... .. . ... ... ... : ... .. . ... ... ... : C-# 00 4 ... ... ... : ... .. . ... ... ... : B-3 02 . ... ... ... : ... .. . ... ... ...
ROW 07 : ... .. . ... ... ... : ... .. 7 ... ... ... : --- .. . ... ... ... : E-# 00 5 ... ... ... : ... .. . ... ... ... : F#4 01 5 ... ... ... : ... .. 5 ... ... ...
ROW 08 : ... .. . ... ... ... : ... .. 8 ... ... ... : ... .. . ... ... ... : B-# 01 . ... ... ... : ... .. . ... ... ... : ... .. . ... ... ... : ... .. . ... ... ...
ROW 09 : ... .. . ... ... ... : ... .. 7 ... ... ... : ... .. . ... ... ... : C-# 00 4 ... ... ... : ... .. . ... ... ... : D#4 01 4 ... ... ... : ... .. . ... ... ...
ROW 0A : ... .. 3 ... ... ... : ... .. . ... ... ... : ... .. . ... ... ... : D-# 00 3 ... ... ... : ... .. . ... ... ... : ... .. . ... ... ... : ... .. . ... ... ...
ROW 0B : ... .. . ... ... ... : ... .. 6 ... ... ... : ... .. . ... ... ... : C-# 00 . ... ... ... : ... .. . ... ... ... : D#4 02 . ... ... ... : D#3 00 4 ... ... ...
ROW 0C : G#3 02 A ... ... ... : B-1 00 9 ... ... ... : B-2 00 . ... ... ... : E-# 00 7 ... ... ... : ... .. . ... ... ... : A-4 01 5 ... ... ... : ... .. . ... ... ...
ROW 0D : ... .. . ... ... ... : ... .. . ... ... ... : B-1 00 . ... ... ... : B-# 01 . ... ... ... : ... .. . ... ... ... : ... .. . ... ... ... : ... .. . ... ... ...
ROW 0E : ... .. . ... ... ... : C-1 00 8 ... ... ... : ... .. . ... ... ... : C-# 00 6 ... ... ... : ... .. . ... ... ... : F#4 01 4 ... ... ... : ... .. . ... ... ...
ROW 0F : ... .. . ... ... ... : B-0 00 . ... ... ... : ... .. . ... ... ... : D-# 00 5 ... ... ... : ... .. . ... ... ... : ... .. . ... ... ... : ... .. . ... ... ...
ROW 10 : G#3 00 . ... ... ... : ... .. . ... ... ... : ... .. . ... ... ... : C-# 00 4 ... ... ... : ... .. . ... ... ... : F#4 02 . ... ... ... : ... .. 3 ... ... ...
ROW 11 : ... .. . ... ... ... : ... .. 7 ... ... ... : --- .. . ... ... ... : E-# 00 5 ... ... ... : ... .. . ... ... ... : F#4 01 5 ... ... ... : ... .. . ... ... ...
ROW 12 : ... .. 9 ... ... ... : ... .. 8 ... ... ... : ... .. . ... ... ... : B-# 01 . ... ... ... : ... .. . ... ... ... : ... .. . ... ... ... : ... .. . ... ... ...
ROW 13 : ... .. . ... ... ... : ... .. 7 ... ... ... : ... .. . ... ... ... : C-# 00 4 ... ... ... : ... .. . ... ... ... : D#4 01 4 ... ... ... : B-2 00 . ... ... ...
ROW 14 : ... .. . ... ... ... : ... .. . ... ... ... : ... .. . ... ... ... : D-# 00 3 ... ... ... : ... .. . ... ... ... : ... .. . ... ... ... : ... .. . ... ... ...
ROW 15 : ... .. . ... ... ... : ... .. 6 ... ... ... : ... .. . ... ... ... : C-# 00 . ... ... ... : ... .. . ... ... ... : D#4 02 . ... ... ... : ... .. . ... ... ...
ROW 16 : ... .. . ... ... ... : ... .. 5 ... ... ... : ... .. . ... ... ... : D-# 00 . ... ... ... : ... .. . ... ... ... : ... .. . ... ... ... : ... .. . ... ... ...
ROW 17 : ... .. 8 ... ... ... : B-1 01 7 ... ... ... : E-4 00 . ... ... ... : ... .. 6 ... ... ... : ... .. . ... ... ... : D-4 01 . ... ... ... : ... .. . ... ... ...
ROW 18 : ... .. . P82 ... ... : ... .. . ... ... ... : A#3 00 . P87 ... ... : 3-# 01 9 ... ... ... : ... .. . ... ... ... : ... .. . ... ... ... : ... .. . ... ... ...
ROW 19 : ... .. 9 P83 ... ... : C-1 01 . ... ... ... : B-1 00 . P80 ... ... : 2-# 01 7 ... ... ... : ... .. . ... ... ... : B-3 01 3 ... ... ... : ... .. . ... ... ...
ROW 1A : ... .. . P85 ... ... : B-0 01 . ... ... ... : ... .. . ... ... ... : 2-# 00 6 ... ... ... : ... .. . ... ... ... : ... .. . ... ... ... : ... .. 4 ... ... ...
ROW 1B : ... .. . P86 ... ... : ... .. . ... ... ... : ... .. . ... ... ... : 1-# 00 . ... ... ... : ... .. . ... ... ... : B-3 02 . ... ... ... : D#3 00 . ... ... ...
ROW 1C : ... .. . P87 ... ... : ... .. . ... ... ... : --- .. . ... ... ... : E-# 00 2 ... ... ... : ... .. . ... ... ... : A-3 01 5 ... ... ... : ... .. 5 ... ... ...
ROW 1D : A-3 00 . P79 ... ... : ... .. 8 ... ... ... : ... .. . ... ... ... : B-# 01 . ... ... ... : ... .. . ... ... ... : ... .. . ... ... ... : ... .. . ... ... ...
ROW 1E : A#3 00 4 P80 ... ... : ... .. 7 ... ... ... : ... .. . ... ... ... : C-# 00 . ... ... ... : ... .. . ... ... ... : F#3 01 4 ... ... ... : ... .. 4 ... ... ...
ROW 1F : ... .. . ... ... ... : ... .. 6 ... ... ... : ... .. . ... ... ... : D-# 00 . ... ... ... : ... .. . ... ... ... : ... .. . ... ... ... : ... .. . ... ... ...
ROW 20 : ... .. . ... ... ... : ... .. 5 ... ... ... : ... .. . ... ... ... : C-# 00 1 ... ... ... : ... .. . ... ... ... : F#3 02 . ... ... ... : ... .. . ... ... ...
ROW 21 : F#3 02 9 ... ... ... : B-1 02 7 ... ... ... : C-4 00 . P7F ... ... : A-# 00 A ... ... ... : ... .. . ... ... ... : D-4 01 . ... ... ... : ... .. 3 ... ... ...
ROW 22 : ... .. . ... ... ... : ... .. . ... ... ... : ... .. . ... ... ... : 5-# 01 9 ... ... ... : ... .. . ... ... ... : ... .. . ... ... ... : ... .. . ... ... ...
ROW 23 : ... .. . ... ... ... : C-1 02 . ... ... ... : B-1 00 . P80 ... ... : 6-# 01 8 ... ... ... : ... .. . ... ... ... : B-3 01 3 ... ... ... : B-2 00 . ... ... ...
ROW 24 : ... .. . ... ... ... : B-0 02 . ... ... ... : ... .. . ... ... ... : 7-# 01 7 ... ... ... : ... .. . ... ... ... : ... .. . ... ... ... : ... .. . ... ... ...
ROW 25 : F#3 00 . ... ... ... : ... .. . ... ... ... : ... .. . ... ... ... : 8-# 01 . ... ... ... : ... .. . ... ... ... : B-3 02 . ... ... ... : ... .. . ... ... ...
ROW 26 : ... .. A ... ... ... : ... .. . ... ... ... : --- .. . ... ... ... : 9-# 00 . ... ... ... : ... .. . ... ... ... : A-3 01 5 ... ... ... : ... .. . ... ... ...
ROW 27 : ... .. 9 ... ... ... : ... .. . ... ... ... : ... .. . ... ... ... : 9-# 01 . ... ... ... : ... .. . ... ... ... : ... .. . ... ... ... : ... .. . ... ... ...
ROW 28 : ... .. . ... ... ... : ... .. . ... ... ... : ... .. . ... ... ... : 9-# 00 6 ... ... ... : ... .. . ... ... ... : F#3 01 4 ... ... ... : ... .. . ... ... ...
ROW 29 : ... .. . ... ... ... : ... .. . ... ... ... : ... .. . ... ... ... : 9-# 01 . ... ... ... : ... .. . ... ... ... : ... .. . ... ... ... : ... .. . ... ... ...
ROW 2A : ... .. . ... ... ... : ... .. 6 ... ... ... : ... .. . ... ... ... : 9-# 00 . ... ... ... : ... .. . ... ... ... : F#3 02 . ... ... ... : ... .. 4 ... ... ...
ROW 2B : ... .. . ... ... ... : B-1 00 9 ... ... ... : B-2 00 . ... ... ... : E-# 00 7 ... ... ... : ... .. . ... ... ... : F#3 01 5 ... ... ... : D#3 00 . ... ... ...
ROW 2C : ... .. . ... ... ... : ... .. . ... ... ... : B-1 00 . ... ... ... : B-# 01 . ... ... ... : ... .. . ... ... ... : ... .. . ... ... ... : ... .. . ... ... ...
ROW 2D : ... .. . ... ... ... : C-1 00 8 ... ... ... : ... .. . ... ... ... : C-# 00 6 ... ... ... : ... .. . ... ... ... : D#3 01 4 ... ... ... : ... .. 5 ... ... ...
ROW 2E : G#3 00 4 ... ... ... : B-0 00 . ... ... ... : ... .. . ... ... ... : D-# 00 5 ... ... ... : ... .. . ... ... ... : ... .. . ... ... ... : ... .. . ... ... ...
ROW 2F : ... .. . ... ... ... : ... .. . ... ... ... : ... .. . ... ... ... : C-# 00 4 ... ... ... : ... .. . ... ... ... : D#3 02 . ... ... ... : ... .. . ... ... ...
ROW 30 : ... .. . ... ... ... : ... .. 7 ... ... ... : --- .. . ... ... ... : E-# 00 5 ... ... ... : ... .. . ... ... ... : D-3 01 5 ... ... ... : ... .. . ... ... ...
ROW 31 : ... .. . ... ... ... : ... .. 8 ... ... ... : ... .. . ... ... ... : B-# 01 . ... ... ... : ... .. . ... ... ... : ... .. . ... ... ... : ... .. 4 ... ... ...
ROW 32 : ... .. . ... ... ... : ... .. 7 ... ... ... : ... .. . ... ... ... : C-# 00 4 ... ... ... : ... .. . ... ... ... : B-2 01 4 ... ... ... : ... .. . ... ... ...
ROW 33 : ... .. . ... ... ... : ... .. . ... ... ... : ... .. . ... ... ... : D-# 00 3 ... ... ... : ... .. . ... ... ... : ... .. . ... ... ... : B-2 00 . ... ... ...
ROW 34 : ... .. 3 ... ... ... : ... .. 6 ... ... ... : ... .. . ... ... ... : C-# 00 . ... ... ... : ... .. . ... ... ... : B-2 02 . ... ... ... : ... .. . ... ... ...
ROW 35 : ... .. . ... ... ... : ... .. 5 ... ... ... : ... .. . ... ... ... : D-# 00 . ... ... ... : ... .. . ... ... ... : ... .. . ... ... ... : ... .. . ... ... ...
ROW 36 : G#3 02 9 ... ... ... : C-2 02 7 ... ... ... : E-4 00 . ... ... ... : ... .. 6 ... ... ... : ... .. . ... ... ... : G#4 01 6 ... ... ... : G#2 00 3 ... ... ...
ROW 37 : ... .. . ... ... ... : ... .. . ... ... ... : A#3 00 . P87 ... ... : 3-# 01 9 ... ... ... : ... .. . ... ... ... : ... .. . ... ... ... : ... .. 4 ... ... ...
ROW 38 : ... .. A ... ... ... : C#1 02 . ... ... ... : C-2 00 . P80 ... ... : 2-# 01 7 ... ... ... : ... .. . ... ... ... : ... .. 5 ... ... ... : ... .. . ... ... ...
ROW 39 : ... .. . ... ... ... : C-1 02 . ... ... ... : ... .. . ... ... ... : 2-# 00 6 ... ... ... : ... .. . ... ... ... : G#3 01 . ... ... ... : ... .. 5 ... ... ...
ROW 3A : G#3 00 . ... ... ... : ... .. . ... ... ... : ... .. . ... ... ... : 1-# 00 . ... ... ... : ... .. . ... ... ... : G#3 02 . ... ... ... : ... .. . ... ... ...
ROW 3B : ... .. . ... ... ... : ... .. . ... ... ... : --- .. . ... ... ... : ... .. 5 ... ... ... : ... .. . ... ... ... : ... .. . ... ... ... : ... .. 6 ... ... ...
ROW 3C : ... .. 9 ... ... ... : ... .. 8 ... ... ... : ... .. . ... ... ... : ... .. 4 ... ... ... : ... .. . ... ... ... : ... .. . ... ... ... : ... .. . ... ... ...
ROW 3D : ... .. . ... ... ... : ... .. 7 ... ... ... : ... .. . ... ... ... : ... .. . ... ... ... : ... .. . ... ... ... : ... .. . ... ... ... : ... .. . ... ... ...
ROW 3E : ... .. . ... ... ... : ... .. 6 ... ... ... : ... .. . ... ... ... : ... .. 3 ... ... ... : ... .. . ... ... ... : ... .. 4 ... ... ... : D#3 00 7 ... ... ...
ROW 3F : ... .. . ... ... ... : ... .. 5 ... ... ... : ... .. . ... ... ... : ... .. . ... ... ... : ... .. . ... ... ... : ... .. . ... ... ... : ... .. . ... ... ...
ROW 40 : ... .. . ... ... ... : C-2 01 9 ... ... ... : C-3 00 . ... ... ... : E-# 00 7 ... ... ... : ... .. . ... ... ... : ... .. . ... ... ... : ... .. . ... ... ...
ROW 41 : ... .. . P82 ... ... : ... .. . ... ... ... : C-2 00 . ... ... ... : B-# 01 . ... ... ... : ... .. . ... ... ... : ... .. 3 ... ... ... : ... .. . ... ... ...
ROW 42 : ... .. . P83 ... ... : C#1 01 8 ... ... ... : ... .. . ... ... ... : C-# 00 6 ... ... ... : ... .. . ... ... ... : ... .. . ... ... ... : ... .. . ... ... ...
ROW 43 : ... .. . P85 ... ... : C-1 01 . ... ... ... : ... .. . ... ... ... : D-# 00 5 ... ... ... : ... .. . ... ... ... : ... .. . ... ... ... : ... .. 6 ... ... ...
ROW 44 : ... .. . P86 ... ... : ... .. . ... ... ... : ... .. . ... ... ... : C-# 00 4 ... ... ... : ... .. . ... ... ... : ... .. 2 ... ... ... : ... .. . ... ... ...
ROW 45 : ... .. . P87 ... ... : ... .. 7 ... ... ... : --- .. . ... ... ... : E-# 00 2 ... ... ... : ... .. . ... ... ... : ... .. . ... ... ... : ... .. . ... ... ...
ROW 46 : A-3 00 . P79 ... ... : ... .. 8 ... ... ... : ... .. . ... ... ... : B-# 01 . ... ... ... : ... .. . ... ... ... : ... .. . ... ... ... : G#2 00 . ... ... ...
ROW 47 : ... .. . P7A ... ... : ... .. 7 ... ... ... : ... .. . ... ... ... : C-# 00 . ... ... ... : ... .. . ... ... ... : ... .. 1 ... ... ... : ... .. 5 ... ... ...
ROW 48 : F#3 00 4 P80 ... ... : ... .. . ... ... ... : ... .. . ... ... ... : D-# 00 . ... ... ... : ... .. . ... ... ... : ... .. . ... ... ... : ... .. . ... ... ...
ROW 49 : ... .. . ... ... ... : ... .. 6 ... ... ... : ... .. . ... ... ... : C-# 00 1 ... ... ... : ... .. . ... ... ... : ... .. . ... ... ... : ... .. . ... ... ...
ROW 4A : D#3 02 9 ... ... ... : C-2 00 7 ... ... ... : C-4 00 . P7F ... ... : A-# 00 A ... ... ... : ... .. . ... ... ... : F#3 01 4 ... ... ... : ... .. 4 ... ... ...
ROW 4B : ... .. . ... ... ... : ... .. . ... ... ... : ... .. . ... ... ... : 5-# 01 9 ... ... ... : ... .. . ... ... ... : ... .. . ... ... ... : ... .. 3 ... ... ...
ROW 4C : ... .. . ... ... ... : C#1 00 6 ... ... ... : A#2 00 . P88 ... ... : 6-# 01 8 ... ... ... : ... .. . ... ... ... : D#3 01 3 ... ... ... : ... .. . ... ... ...
ROW 4D : ... .. . ... ... ... : C-1 00 7 ... ... ... : C-2 00 . P80 ... ... : 7-# 01 7 ... ... ... : ... .. . ... ... ... : ... .. . ... ... ... : ... .. . ... ... ...
ROW 4E : D#3 00 . ... ... ... : ... .. . ... ... ... : ... .. . ... ... ... : 8-# 01 . ... ... ... : ... .. . ... ... ... : D#3 02 . ... ... ... : D#3 00 . ... ... ...
ROW 4F : ... .. A ... ... ... : ... .. . ... ... ... : --- .. . ... ... ... : 9-# 00 . ... ... ... : ... .. . ... ... ... : B-3 01 5 ... ... ... : ... .. 4 ... ... ...
ROW 50 : ... .. 9 ... ... ... : ... .. . ... ... ... : ... .. . ... ... ... : 9-# 01 . ... ... ... : ... .. . ... ... ... : ... .. . ... ... ... : ... .. 3 ... ... ...
ROW 51 : ... .. . ... ... ... : ... .. . ... ... ... : ... .. . ... ... ... : 9-# 00 6 ... ... ... : ... .. . ... ... ... : G#3 01 4 ... ... ... : ... .. . ... ... ...
ROW 52 : ... .. . ... ... ... : ... .. . ... ... ... : ... .. . ... ... ... : 9-# 01 . ... ... ... : ... .. . ... ... ... : ... .. . ... ... ... : ... .. . ... ... ...
ROW 53 : ... .. . ... ... ... : ... .. 6 ... ... ... : ... .. . ... ... ... : 9-# 00 . ... ... ... : ... .. . ... ... ... : G#3 02 . ... ... ... : ... .. . ... ... ...
ROW 54 : ... .. . ... ... ... : ... .. 5 ... ... ... : ... .. . ... ... ... : ... .. . ... ... ... : ... .. . ... ... ... : ... .. . ... ... ... : ... .. . ... ... ...
ROW 55 : ... .. . ... ... ... : C-2 02 9 ... ... ... : C-3 00 . ... ... ... : E-# 00 7 ... ... ... : ... .. . ... ... ... : D#4 01 5 ... ... ... : ... .. . ... ... ...
ROW 56 : ... .. . ... ... ... : ... .. . ... ... ... : C-2 00 . ... ... ... : B-# 01 . ... ... ... : ... .. . ... ... ... : ... .. . ... ... ... : G#2 00 . ... ... ...
ROW 57 : G#3 00 4 ... ... ... : C#1 02 8 ... ... ... : ... .. . ... ... ... : C-# 00 6 ... ... ... : ... .. . ... ... ... : C-4 01 4 ... ... ... : ... .. 4 ... ... ...
ROW 58 : ... .. . ... ... ... : C-1 02 . ... ... ... : ... .. . ... ... ... : D-# 00 5 ... ... ... : ... .. . ... ... ... : ... .. . ... ... ... : ... .. . ... ... ...
ROW 59 : ... .. . ... ... ... : ... .. . ... ... ... : ... .. . ... ... ... : C-# 00 4 ... ... ... : ... .. . ... ... ... : C-4 02 . ... ... ... : ... .. . ... ... ...
ROW 5A : ... .. . ... ... ... : ... .. 7 ... ... ... : --- .. . ... ... ... : E-# 00 5 ... ... ... : ... .. . ... ... ... : F#4 01 5 ... ... ... : ... .. 5 ... ... ...
ROW 5B : ... .. . ... ... ... : ... .. 8 ... ... ... : ... .. . ... ... ... : B-# 01 . ... ... ... : ... .. . ... ... ... : ... .. . ... ... ... : ... .. . ... ... ...
ROW 5C : ... .. . ... ... ... : ... .. 7 ... ... ... : ... .. . ... ... ... : C-# 00 4 ... ... ... : ... .. . ... ... ... : D#4 01 4 ... ... ... : ... .. . ... ... ...
ROW 5D : ... .. 3 ... ... ... : ... .. 6 ... ... ... : ... .. . ... ... ... : D-# 00 3 ... ... ... : ... .. . ... ... ... : ... .. . ... ... ... : ... .. . ... ... ...
ROW 5E : ... .. . ... ... ... : ... .. 5 ... ... ... : ... .. . ... ... ... : C-# 00 . ... ... ... : ... .. . ... ... ... : D#4 02 . ... ... ... : D#3 00 4 ... ... ...
ROW 5F : D#3 02 A ... ... ... : C-2 00 9 ... ... ... : C-3 00 . ... ... ... : E-# 00 7 ... ... ... : ... .. . ... ... ... : B-4 01 5 ... ... ... : ... .. . ... ... ...
ROW 60 : ... .. . ... ... ... : ... .. . ... ... ... : C-2 00 . ... ... ... : B-# 01 . ... ... ... : ... .. . ... ... ... : ... .. . ... ... ... : ... .. . ... ... ...
ROW 61 : ... .. . ... ... ... : C#1 00 8 ... ... ... : ... .. . ... ... ... : C-# 00 6 ... ... ... : ... .. . ... ... ... : G#4 01 4 ... ... ... : ... .. . ... ... ...
ROW 62 : ... .. . ... ... ... : C-1 00 . ... ... ... : ... .. . ... ... ... : D-# 00 5 ... ... ... : ... .. . ... ... ... : ... .. . ... ... ... : ... .. . ... ... ...
ROW 63 : D#3 00 . ... ... ... : ... .. . ... ... ... : ... .. . ... ... ... : C-# 00 4 ... ... ... : ... .. . ... ... ... : G#4 02 . ... ... ... : ... .. 3 ... ... ...
ROW 64 : ... .. . ... ... ... : ... .. 7 ... ... ... : --- .. . ... ... ... : E-# 00 5 ... ... ... : ... .. . ... ... ... : F#4 01 5 ... ... ... : ... .. . ... ... ...
ROW 65 : ... .. 9 ... ... ... : ... .. 8 ... ... ... : ... .. . ... ... ... : B-# 01 . ... ... ... : ... .. . ... ... ... : ... .. . ... ... ... : ... .. . ... ... ...
ROW 66 : ... .. . ... ... ... : ... .. 7 ... ... ... : ... .. . ... ... ... : C-# 00 4 ... ... ... : ... .. . ... ... ... : D#4 01 4 ... ... ... : G#2 00 . ... ... ...
ROW 67 : ... .. . ... ... ... : ... .. . ... ... ... : ... .. . ... ... ... : D-# 00 3 ... ... ... : ... .. . ... ... ... : ... .. . ... ... ... : ... .. . ... ... ...
ROW 68 : ... .. . ... ... ... : ... .. 6 ... ... ... : ... .. . ... ... ... : C-# 00 . ... ... ... : ... .. . ... ... ... : D#4 02 . ... ... ... : ... .. . ... ... ...
ROW 69 : ... .. 8 ... ... ... : C-2 01 7 ... ... ... : E-4 00 . ... ... ... : D-# 00 6 ... ... ... : ... .. . ... ... ... : D#4 01 . ... ... ... : ... .. 2 ... ... ...
ROW 6A : ... .. . P82 ... ... : ... .. . ... ... ... : A#3 00 . P87 ... ... : 3-# 01 9 ... ... ... : ... .. . ... ... ... : ... .. . ... ... ... : ... .. 3 ... ... ...
ROW 6B : ... .. . P83 ... ... : C#1 01 6 ... ... ... : F#3 00 . P86 ... ... : 2-# 01 7 ... ... ... : ... .. . ... ... ... : C-4 01 3 ... ... ... : ... .. . ... ... ...
ROW 6C : ... .. 9 P85 ... ... : C-1 01 7 ... ... ... : C-2 00 . P80 ... ... : 2-# 00 6 ... ... ... : ... .. . ... ... ... : ... .. . ... ... ... : ... .. . ... ... ...
ROW 6D : ... .. . P86 ... ... : ... .. . ... ... ... : ... .. . ... ... ... : 1-# 00 . ... ... ... : ... .. . ... ... ... : C-4 02 . ... ... ... : ... .. 4 ... ... ...
ROW 6E : ... .. . P87 ... ... : ... .. 6 ... ... ... : ... .. . ... ... ... : ... .. 5 ... ... ... : ... .. . ... ... ... : ... .. . ... ... ... : D#3 00 . ... ... ...
ROW 6F : ... .. . P88 ... ... : ... .. 8 ... ... ... : --- .. . ... ... ... : E-# 00 2 ... ... ... : ... .. . ... ... ... : B-3 01 5 ... ... ... : ... .. 5 ... ... ...
ROW 70 : ... .. . P89 ... ... : ... .. 7 ... ... ... : ... .. . ... ... ... : B-# 01 . ... ... ... : ... .. . ... ... ... : ... .. . ... ... ... : ... .. . ... ... ...
ROW 71 : ... .. 4 P80 ... ... : ... .. . ... ... ... : ... .. . ... ... ... : C-# 00 . ... ... ... : ... .. . ... ... ... : G#3 01 4 ... ... ... : ... .. 4 ... ... ...
ROW 72 : ... .. . ... ... ... : ... .. 6 ... ... ... : ... .. . ... ... ... : D-# 00 . ... ... ... : ... .. . ... ... ... : ... .. . ... ... ... : ... .. . ... ... ...
ROW 73 : ... .. . ... ... ... : ... .. 5 ... ... ... : ... .. . ... ... ... : C-# 00 1 ... ... ... : ... .. . ... ... ... : G#3 02 . ... ... ... : ... .. . ... ... ...
ROW 74 : F#3 02 9 ... ... ... : C-2 02 7 ... ... ... : C-4 00 . P7F ... ... : A-# 00 A ... ... ... : ... .. . ... ... ... : F#4 01 . ... ... ... : ... .. 3 ... ... ...
ROW 75 : ... .. . ... ... ... : ... .. . ... ... ... : ... .. . ... ... ... : 5-# 01 9 ... ... ... : ... .. . ... ... ... : ... .. . ... ... ... : ... .. . ... ... ...
ROW 76 : ... .. . ... ... ... : C#1 02 . ... ... ... : C-2 00 . P80 ... ... : 6-# 01 8 ... ... ... : ... .. . ... ... ... : D#4 01 3 ... ... ... : G#2 00 . ... ... ...
ROW 77 : ... .. . ... ... ... : C-1 02 . ... ... ... : ... .. . ... ... ... : 7-# 01 7 ... ... ... : ... .. . ... ... ... : ... .. . ... ... ... : ... .. . ... ... ...
ROW 78 : F#3 00 . ... ... ... : ... .. . ... ... ... : ... .. . ... ... ... : 8-# 01 . ... ... ... : ... .. . ... ... ... : D#4 02 . ... ... ... : ... .. . ... ... ...
ROW 79 : ... .. A ... ... ... : ... .. . ... ... ... : --- .. . ... ... ... : 9-# 00 . ... ... ... : ... .. . ... ... ... : D#4 01 5 ... ... ... : ... .. . ... ... ...
ROW 7A : ... .. 9 ... ... ... : ... .. . ... ... ... : ... .. . ... ... ... : 9-# 01 . ... ... ... : ... .. . ... ... ... : ... .. . ... ... ... : ... .. . ... ... ...
ROW 7B : ... .. . ... ... ... : ... .. . ... ... ... : ... .. . ... ... ... : 9-# 00 6 ... ... ... : ... .. . ... ... ... : C-4 01 4 ... ... ... : ... .. . ... ... ...
ROW 7C : ... .. . ... ... ... : ... .. 6 ... ... ... : ... .. . ... ... ... : 9-# 01 . ... ... ... : ... .. . ... ... ... : ... .. . ... ... ... : ... .. . ... ... ...
ROW 7D : ... .. . ... ... ... : ... .. 5 ... ... ... : ... .. . ... ... ... : 9-# 00 . ... ... ... : ... .. . ... ... ... : C-4 02 . ... ... ... : ... .. 4 ... ... ...
ROW 7E : ... .. . ... ... ... : C-2 00 9 ... ... ... : C-3 00 . ... ... ... : E-# 00 7 ... ... ... : ... .. . ... ... ... : B-3 01 5 ... ... ... : D#3 00 . ... ... ...
ROW 7F : ... .. . ... ... ... : ... .. . ... ... ... : C-2 00 . ... ... ... : B-# 01 . ... ... ... : ... .. . ... ... ... : ... .. . ... ... ... : ... .. . ... ... ...
ROW 80 : ... .. . ... ... ... : C#1 00 8 ... ... ... : ... .. . ... ... ... : C-# 00 6 ... ... ... : ... .. . ... ... ... : G#3 01 4 ... ... ... : ... .. 5 ... ... ...
ROW 81 : D#3 00 4 ... ... ... : C-1 00 . ... ... ... : ... .. . ... ... ... : D-# 00 5 ... ... ... : ... .. . ... ... ... : ... .. . ... ... ... : ... .. . ... ... ...
ROW 82 : ... .. . ... ... ... : ... .. . ... ... ... : ... .. . ... ... ... : C-# 00 4 ... ... ... : ... .. . ... ... ... : G#3 02 . ... ... ... : ... .. . ... ... ...
ROW 83 : ... .. . ... ... ... : ... .. 7 ... ... ... : --- .. . ... ... ... : E-# 00 5 ... ... ... : ... .. . ... ... ... : E-3 01 5 ... ... ... : ... .. . ... ... ...
ROW 84 : ... .. . ... ... ... : ... .. 8 ... ... ... : ... .. . ... ... ... : B-# 01 . ... ... ... : ... .. . ... ... ... : ... .. . ... ... ... : ... .. 4 ... ... ...
ROW 85 : ... .. . ... ... ... : ... .. 7 ... ... ... : ... .. . ... ... ... : C-# 00 4 ... ... ... : ... .. . ... ... ... : C#3 01 4 ... ... ... : ... .. . ... ... ...
ROW 86 : ... .. . ... ... ... : ... .. . ... ... ... : ... .. . ... ... ... : D-# 00 3 ... ... ... : ... .. . ... ... ... : ... .. . ... ... ... : G#2 00 . ... ... ...
ROW 87 : ... .. 3 ... ... ... : ... .. 6 ... ... ... : ... .. . ... ... ... : C-# 00 . ... ... ... : ... .. . ... ... ... : C#3 02 . ... ... ... : ... .. . ... ... ...
ROW 88 : F-3 02 9 ... ... ... : C#2 02 7 ... ... ... : E-4 00 . ... ... ... : D-# 00 6 ... ... ... : ... .. . ... ... ... : B-4 01 . ... ... ... : C-3 00 3 P86 ... ...
ROW 89 : ... .. . ... ... ... : ... .. . ... ... ... : A#3 00 . P87 ... ... : 3-# 01 9 ... ... ... : ... .. . ... ... ... : ... .. . ... ... ... : B-2 00 4 P8B ... ...
ROW 8A : ... .. . ... ... ... : D-1 02 6 ... ... ... : F#3 00 . P86 ... ... : 2-# 01 7 ... ... ... : ... .. . ... ... ... : G#4 01 3 ... ... ... : ... .. . P77 ... ...
ROW 8B : ... .. A ... ... ... : C#1 02 7 ... ... ... : C#2 00 . P80 ... ... : 2-# 00 6 ... ... ... : ... .. . ... ... ... : ... .. . ... ... ... : A#2 00 5 P7E ... ...
ROW 8C : F-3 00 . ... ... ... : ... .. . ... ... ... : ... .. . ... ... ... : 1-# 00 . ... ... ... : ... .. . ... ... ... : G#4 02 . ... ... ... : A-2 00 . P86 ... ...
ROW 8D : ... .. . ... ... ... : ... .. 6 ... ... ... : ... .. . ... ... ... : ... .. 5 ... ... ... : ... .. . ... ... ... : ... .. . ... ... ... : ... .. . P72 ... ...
ROW 8E : ... .. 9 ... ... ... : ... .. 8 ... ... ... : --- .. . ... ... ... : ... .. 4 ... ... ... : ... .. . ... ... ... : G#4 01 5 ... ... ... : G#2 00 6 P7D ... ...
ROW 8F : ... .. . ... ... ... : ... .. 7 ... ... ... : ... .. . ... ... ... : ... .. . ... ... ... : ... .. . ... ... ... : ... .. . ... ... ... : G-2 00 . P89 ... ...
ROW 90 : ... .. . ... ... ... : ... .. . ... ... ... : ... .. . ... ... ... : ... .. 3 ... ... ... : ... .. . ... ... ... : F-4 01 4 ... ... ... : F-4 00 7 P7E ... ...
ROW 91 : ... .. . ... ... ... : ... .. 6 ... ... ... : ... .. . ... ... ... : ... .. . ... ... ... : ... .. . ... ... ... : ... .. . ... ... ... : D#4 00 . ... ... ...
ROW 92 : ... .. . ... ... ... : ... .. 5 ... ... ... : ... .. . ... ... ... : ... .. . ... ... ... : ... .. . ... ... ... : F-4 02 . ... ... ... : C#4 00 . P80 ... ...
ROW 93 : ... .. . ... ... ... : C#2 01 9 ... ... ... : C#3 00 . ... ... ... : E-# 00 7 ... ... ... : ... .. . ... ... ... : E-4 01 5 ... ... ... : B-3 00 . P84 ... ...
ROW 94 : ... .. . P82 ... ... : ... .. . ... ... ... : C#2 00 . ... ... ... : B-# 01 . ... ... ... : ... .. . ... ... ... : ... .. . ... ... ... : A#3 00 . P7E ... ...
ROW 95 : ... .. . P83 ... ... : D-1 01 8 ... ... ... : ... .. . ... ... ... : C-# 00 6 ... ... ... : ... .. . ... ... ... : C#4 01 4 ... ... ... : G#3 00 6 P87 ... ...
ROW 96 : ... .. . P85 ... ... : C#1 01 . ... ... ... : ... .. . ... ... ... : D-# 00 5 ... ... ... : ... .. . ... ... ... : ... .. . ... ... ... : G-3 00 . P83 ... ...
ROW 97 : ... .. . P86 ... ... : ... .. . ... ... ... : ... .. . ... ... ... : C-# 00 4 ... ... ... : ... .. . ... ... ... : C#4 02 . ... ... ... : F#3 00 . P80 ... ...
ROW 98 : ... .. . P87 ... ... : ... .. 7 ... ... ... : --- .. . ... ... ... : E-# 00 2 ... ... ... : ... .. . ... ... ... : B-3 01 5 ... ... ... : D-2 00 . P94 ... ...
ROW 99 : ... .. . P88 ... ... : ... .. 8 ... ... ... : ... .. . ... ... ... : B-# 01 . ... ... ... : ... .. . ... ... ... : ... .. . ... ... ... : ... .. 5 P80 ... ...
ROW 9A : ... .. . P89 ... ... : ... .. 7 ... ... ... : ... .. . ... ... ... : C-# 00 . ... ... ... : ... .. . ... ... ... : G#3 01 4 ... ... ... : ... .. . P6C ... ...
ROW 9B : ... .. . ... ... ... : ... .. . ... ... ... : ... .. . ... ... ... : D-# 00 . ... ... ... : ... .. . ... ... ... : ... .. . ... ... ... : C#2 00 . P85 ... ...
ROW 9C : ... .. . ... ... ... : ... .. 6 ... ... ... : ... .. . ... ... ... : C-# 00 1 ... ... ... : ... .. . ... ... ... : G#3 02 . ... ... ... : ... .. . P71 ... ...
ROW 9D : ... .. 8 P80 ... ... : C#2 00 7 ... ... ... : C-4 00 . P7F ... ... : A-# 00 A ... ... ... : ... .. . ... ... ... : G#4 01 . ... ... ... : C-2 00 3 P8D ... ...
ROW 9E : ... .. . P83 ... ... : ... .. . ... ... ... : ... .. . ... ... ... : 5-# 01 9 ... ... ... : ... .. . ... ... ... : ... .. . ... ... ... : ... .. . P79 ... ...
ROW 9F : ... .. . P85 ... ... : D-1 00 6 ... ... ... : A#2 00 . P88 ... ... : 6-# 01 8 ... ... ... : ... .. . ... ... ... : F-4 01 3 ... ... ... : B-1 00 . P98 ... ...
ROW A0 : ... .. . P87 ... ... : C#1 00 7 ... ... ... : C#2 00 . P80 ... ... : 7-# 01 7 ... ... ... : ... .. . ... ... ... : ... .. . ... ... ... : A#2 00 . P7E ... ...
ROW A1 : ... .. . P88 ... ... : ... .. . ... ... ... : ... .. . ... ... ... : 8-# 01 . ... ... ... : ... .. . ... ... ... : F-4 02 . ... ... ... : A-2 00 . P86 ... ...
ROW A2 : ... .. 9 P89 ... ... : ... .. . ... ... ... : --- .. . ... ... ... : 9-# 00 . ... ... ... : ... .. . ... ... ... : E-4 01 5 ... ... ... : ... .. . P72 ... ...
ROW A3 : ... .. . ... ... ... : ... .. . ... ... ... : ... .. . ... ... ... : 9-# 01 . ... ... ... : ... .. . ... ... ... : ... .. . ... ... ... : G#2 00 . P7D ... ...
ROW A4 : ... .. . P88 ... ... : ... .. . ... ... ... : ... .. . ... ... ... : 9-# 00 6 ... ... ... : ... .. . ... ... ... : C#4 01 4 ... ... ... : G-2 00 . P89 ... ...
ROW A5 : ... .. . P86 ... ... : ... .. . ... ... ... : ... .. . ... ... ... : 9-# 01 . ... ... ... : ... .. . ... ... ... : ... .. . ... ... ... : ... .. . P75 ... ...
ROW A6 : ... .. . P84 ... ... : ... .. 6 ... ... ... : ... .. . ... ... ... : 9-# 00 . ... ... ... : ... .. . ... ... ... : C#4 02 . ... ... ... : F#2 00 . P83 ... ...
ROW A7 : ... .. . P80 ... ... : C#2 02 9 ... ... ... : C#3 00 . ... ... ... : E-# 00 7 ... ... ... : ... .. . ... ... ... : B-3 01 5 ... ... ... : ... .. . P6F ... ...
ROW A8 : ... .. 8 P83 ... ... : ... .. . ... ... ... : C#2 00 . ... ... ... : B-# 01 . ... ... ... : ... .. . ... ... ... : ... .. . ... ... ... : G#1 00 . P8F ... ...
ROW A9 : ... .. . P86 ... ... : D-1 02 8 ... ... ... : ... .. . ... ... ... : C-# 00 6 ... ... ... : ... .. . ... ... ... : G#3 01 4 ... ... ... : ... .. 4 P7B ... ...
ROW AA : ... .. 7 P88 ... ... : C#1 02 . ... ... ... : ... .. . ... ... ... : D-# 00 5 ... ... ... : ... .. . ... ... ... : ... .. . ... ... ... : ... .. . P67 ... ...
ROW AB : ... .. . P89 ... ... : ... .. . ... ... ... : ... .. . ... ... ... : C-# 00 4 ... ... ... : ... .. . ... ... ... : G#3 02 . ... ... ... : G-1 00 . P93 ... ...
ROW AC : ... .. . P88 ... ... : ... .. 7 ... ... ... : ... .. . ... ... ... : D-# 00 . ... ... ... : ... .. . ... ... ... : ... .. . ... ... ... : ... .. 5 P7F ... ...
ROW AD : ... .. . P86 ... ... : ... .. 8 ... ... ... : --- .. . ... ... ... : E-# 00 5 ... ... ... : ... .. . ... ... ... : G#3 01 5 ... ... ... : ... .. . P6B ... ...
ROW AE : ... .. . P83 ... ... : ... .. 7 ... ... ... : ... .. . ... ... ... : B-# 01 . ... ... ... : ... .. . ... ... ... : ... .. . ... ... ... : F#1 00 . P9B ... ...
ROW AF : ... .. . P80 ... ... : ... .. . ... ... ... : ... .. . ... ... ... : C-# 00 4 ... ... ... : ... .. . ... ... ... : F-3 01 4 ... ... ... : ... .. . P87 ... ...
ROW B0 : ... .. . P7D ... ... : ... .. 6 ... ... ... : ... .. . ... ... ... : D-# 00 3 ... ... ... : ... .. . ... ... ... : ... .. . ... ... ... : C#2 00 4 P85 ... ...
ROW B1 : ... .. . P7A ... ... : ... .. 5 ... ... ... : ... .. . ... ... ... : C-# 00 . ... ... ... : ... .. . ... ... ... : F-3 02 . ... ... ... : ... .. . P71 ... ...
ROW B2 : ... .. . P80 ... ... : C#2 00 9 ... ... ... : C#3 00 . ... ... ... : E-# 00 7 ... ... ... : ... .. . ... ... ... : E-4 01 5 ... ... ... : C-2 00 . P8D ... ...
ROW B3 : ... .. . P86 ... ... : ... .. . ... ... ... : C#2 00 . ... ... ... : B-# 01 . ... ... ... : ... .. . ... ... ... : ... .. . ... ... ... : ... .. . P79 ... ...
ROW B4 : F#3 00 6 P78 ... ... : D-1 00 8 ... ... ... : ... .. . ... ... ... : C-# 00 6 ... ... ... : ... .. . ... ... ... : C#4 01 4 ... ... ... : B-1 00 . P98 ... ...
ROW B5 : ... .. . P79 ... ... : C#1 00 . ... ... ... : ... .. . ... ... ... : D-# 00 5 ... ... ... : ... .. . ... ... ... : ... .. . ... ... ... : ... .. 3 P84 ... ...
ROW B6 : F-3 00 . P88 ... ... : ... .. . ... ... ... : ... .. . ... ... ... : C-# 00 4 ... ... ... : ... .. . ... ... ... : C#4 02 . ... ... ... : ... .. . P70 ... ...
ROW B7 : ... .. . P80 ... ... : ... .. 7 ... ... ... : --- .. . ... ... ... : E-# 00 5 ... ... ... : ... .. . ... ... ... : B-3 01 5 ... ... ... : A#1 00 . P92 ... ...
ROW B8 : ... .. . P87 ... ... : ... .. 8 ... ... ... : ... .. . ... ... ... : B-# 01 . ... ... ... : ... .. . ... ... ... : ... .. . ... ... ... : E-1 00 . P67 ... ...
ROW B9 : F#3 00 . P79 ... ... : ... .. 7 ... ... ... : ... .. . ... ... ... : C-# 00 4 ... ... ... : ... .. . ... ... ... : G#3 01 4 ... ... ... : D#1 00 . PA4 ... ...
ROW BA : ... .. . P78 ... ... : ... .. . ... ... ... : ... .. . ... ... ... : D-# 00 3 ... ... ... : ... .. . ... ... ... : ... .. . ... ... ... : ... .. . P90 ... ...
ROW BB : F-3 00 . P84 ... ... : ... .. 6 ... ... ... : ... .. . ... ... ... : C-# 00 . ... ... ... : ... .. . ... ... ... : G#3 02 . ... ... ... : ... .. . P7C ... ...
ROW BC : ... .. . P80 ... ... : C#2 01 7 ... ... ... : E-4 00 . ... ... ... : D-# 00 6 ... ... ... : ... .. . ... ... ... : G#3 01 . ... ... ... : ... .. . P68 ... ...
ROW BD : ... .. . P89 ... ... : ... .. . ... ... ... : A#3 00 . P87 ... ... : 3-# 01 9 ... ... ... : ... .. . ... ... ... : ... .. . ... ... ... : D-1 00 . PAA ... ...
ROW BE : F#3 00 . P7B ... ... : D-1 01 6 ... ... ... : F#3 00 . P86 ... ... : 2-# 01 7 ... ... ... : ... .. . ... ... ... : F-3 01 3 ... ... ... : ... .. . P96 ... ...
ROW BF : F-3 00 5 P89 ... ... : C#1 01 7 ... ... ... : C#2 00 . P80 ... ... : 2-# 00 6 ... ... ... : ... .. . ... ... ... : ... .. . ... ... ... : ... .. 4 P82 ... ...
ROW C0 : ... .. . P80 ... ... : ... .. . ... ... ... : ... .. . ... ... ... : 1-# 00 . ... ... ... : ... .. . ... ... ... : F-3 02 . ... ... ... : G-1 00 . P93 ... ...
ROW C1 : ... .. . ... ... ... : ... .. . ... ... ... : --- .. . ... ... ... : E-# 00 2 ... ... ... : ... .. . ... ... ... : E-3 01 5 ... ... ... : ... .. 5 P7F ... ...
ROW C2 : F#3 00 . P78 ... ... : ... .. 8 ... ... ... : ... .. . ... ... ... : B-# 01 . ... ... ... : ... .. . ... ... ... : ... .. . ... ... ... : ... .. . P6B ... ...
ROW C3 : ... .. . P7B ... ... : ... .. 7 ... ... ... : ... .. . ... ... ... : C-# 00 . ... ... ... : ... .. . ... ... ... : C#3 01 4 ... ... ... : F#1 00 4 P9B ... ...
ROW C4 : F-3 00 . P86 ... ... : ... .. . ... ... ... : ... .. . ... ... ... : D-# 00 . ... ... ... : ... .. . ... ... ... : ... .. . ... ... ... : ... .. . P87 ... ...
ROW C5 : ... .. . P7A ... ... : ... .. 6 ... ... ... : ... .. . ... ... ... : C-# 00 1 ... ... ... : ... .. . ... ... ... : C#3 02 . ... ... ... : ... .. . P73 ... ...
ROW C6 : E-3 00 . P86 ... ... : ... .. 5 ... ... ... : ... .. . ... ... ... : D-# 00 . ... ... ... : ... .. . ... ... ... : ... .. . ... ... ... : ... .. . P5F ... ...
ROW C7 : F-3 00 . P80 ... ... : C#2 02 7 ... ... ... : C-4 00 . P7F ... ... : A-# 00 A ... ... ... : ... .. . ... ... ... : B-3 01 . ... ... ... : F-1 00 3 P93 ... ...
ROW C8 : F#3 00 . P7C ... ... : ... .. . ... ... ... : ... .. . ... ... ... : 5-# 01 9 ... ... ... : ... .. . ... ... ... : ... .. . ... ... ... : C-1 00 2 P88 ... ...
ROW C9 : ... .. . ... ... ... : D-1 02 . ... ... ... : C#2 00 . P80 ... ... : 6-# 01 8 ... ... ... : ... .. . ... ... ... : G#3 01 3 ... ... ... : ... .. 3 P74 ... ...
ROW CA : F-3 00 4 P80 ... ... : C#1 02 . ... ... ... : ... .. . ... ... ... : 7-# 01 7 ... ... ... : ... .. . ... ... ... : ... .. . ... ... ... : ... .. . P60 ... ...
ROW CB : E-3 00 . P85 ... ... : ... .. . ... ... ... : ... .. . ... ... ... : 8-# 01 . ... ... ... : ... .. . ... ... ... : G#3 02 . ... ... ... : B-0 00 . PB2 ... ...
ROW CC : F-3 00 . P80 ... ... : ... .. . ... ... ... : --- .. . ... ... ... : 9-# 00 . ... ... ... : ... .. . ... ... ... : G#3 01 5 ... ... ... : ... .. . P9E ... ...
ROW CD : F#3 00 . P7C ... ... : ... .. . ... ... ... : ... .. . ... ... ... : 9-# 01 . ... ... ... : ... .. . ... ... ... : ... .. . ... ... ... : ... .. . P8A ... ...
ROW CE : ... .. . ... ... ... : ... .. . ... ... ... : ... .. . ... ... ... : 9-# 00 6 ... ... ... : ... .. . ... ... ... : F-3 01 4 ... ... ... : ... .. . P76 ... ...
ROW CF : F-3 00 . P80 ... ... : ... .. 6 ... ... ... : ... .. . ... ... ... : 9-# 01 . ... ... ... : ... .. . ... ... ... : ... .. . ... ... ... : ... .. 4 P62 ... ...
ROW D0 : E-3 00 . P85 ... ... : ... .. 5 ... ... ... : ... .. . ... ... ... : 9-# 00 . ... ... ... : ... .. . ... ... ... : F-3 02 . ... ... ... : D#1 00 . P7C ... ...
ROW D1 : F-3 00 . P80 ... ... : C#2 00 9 ... ... ... : C#3 00 . ... ... ... : E-# 00 7 ... ... ... : ... .. . ... ... ... : E-3 01 5 ... ... ... : ... .. . P68 ... ...
ROW D2 : F#3 00 . P82 ... ... : ... .. . ... ... ... : C#2 00 . ... ... ... : B-# 01 . ... ... ... : ... .. . ... ... ... : ... .. . ... ... ... : D-1 00 5 PAA ... ...
ROW D3 : ... .. . P7A ... ... : D-1 00 8 ... ... ... : ... .. . ... ... ... : C-# 00 6 ... ... ... : ... .. . ... ... ... : C#3 01 4 ... ... ... : ... .. . P96 ... ...
ROW D4 : E-3 00 . P87 ... ... : C#1 00 . ... ... ... : ... .. . ... ... ... : D-# 00 5 ... ... ... : ... .. . ... ... ... : ... .. . ... ... ... : ... .. . P82 ... ...
ROW D5 : ... .. . P7F ... ... : ... .. . ... ... ... : ... .. . ... ... ... : C-# 00 4 ... ... ... : ... .. . ... ... ... : C#3 02 . ... ... ... : ... .. . P6E ... ...
ROW D6 : F-3 00 . P80 ... ... : ... .. 7 ... ... ... : --- .. . ... ... ... : E-# 00 5 ... ... ... : ... .. . ... ... ... : B-2 01 5 ... ... ... : ... .. 4 P5A ... ...
ROW D7 : F#3 00 . P82 ... ... : ... .. 8 ... ... ... : ... .. . ... ... ... : B-# 01 . ... ... ... : ... .. . ... ... ... : ... .. . ... ... ... : C#1 00 . PA0 ... ...
ROW D8 : ... .. . P7A ... ... : ... .. 7 ... ... ... : ... .. . ... ... ... : C-# 00 4 ... ... ... : ... .. . ... ... ... : G#2 01 4 ... ... ... : A-0 00 . P8C ... ...
ROW D9 : F-3 00 . P80 ... ... : ... .. . ... ... ... : ... .. . ... ... ... : D-# 00 3 ... ... ... : ... .. . ... ... ... : ... .. . ... ... ... : ... .. . P82 ... ...
ROW DA : ... .. . ... ... ... : ... .. 6 ... ... ... : ... .. . ... ... ... : C-# 00 . ... ... ... : ... .. . ... ... ... : G#2 02 . ... ... ... : ... .. . ... ... ...
ROW DB : D-3 02 9 ... ... ... : D-2 02 7 ... ... ... : E-4 00 . ... ... ... : D-# 00 6 ... ... ... : ... .. . ... ... ... : G#2 01 5 ... ... ... : C#3 00 3 P85 ... ...
ROW DC : ... .. . ... ... ... : ... .. . ... ... ... : A#3 00 . P87 ... ... : 3-# 01 9 ... ... ... : ... .. . ... ... ... : ... .. . ... ... ... : C-3 00 4 P89 ... ...
ROW DD : ... .. . ... ... ... : D#1 02 6 ... ... ... : F#3 00 . P86 ... ... : 2-# 01 7 ... ... ... : ... .. . ... ... ... : F-2 01 4 ... ... ... : ... .. . P75 ... ...
ROW DE : ... .. A ... ... ... : D-1 02 7 ... ... ... : D-2 00 . P80 ... ... : E-# 00 . ... ... ... : ... .. . ... ... ... : ... .. . ... ... ... : B-2 00 5 P7A ... ...
ROW DF : D-3 00 . ... ... ... : ... .. . ... ... ... : ... .. . ... ... ... : B-# 01 . ... ... ... : ... .. . ... ... ... : F-2 02 . ... ... ... : A#2 00 . P81 ... ...
ROW E0 : ... .. . ... ... ... : ... .. . ... ... ... : G-4 00 . P7E ... ... : C-# 01 . ... ... ... : ... .. . ... ... ... : B-2 01 5 ... ... ... : A-2 00 6 P89 ... ...
ROW E1 : ... .. 9 ... ... ... : ... .. 8 ... ... ... : F#4 00 . P84 ... ... : D-# 00 . ... ... ... : ... .. . ... ... ... : ... .. . ... ... ... : ... .. . P75 ... ...
ROW E2 : ... .. . ... ... ... : ... .. 7 ... ... ... : ... .. . P7C ... ... : C-# 00 6 ... ... ... : ... .. . ... ... ... : G#2 01 4 ... ... ... : G#2 00 . P80 ... ...
ROW E3 : ... .. . ... ... ... : ... .. . ... ... ... : --- .. . ... ... ... : D-# 00 . ... ... ... : ... .. . ... ... ... : C#3 01 5 ... ... ... : A#3 00 7 P85 ... ...
ROW E4 : ... .. . ... ... ... : ... .. 6 ... ... ... : ... .. . ... ... ... : E-# 00 . ... ... ... : ... .. . ... ... ... : ... .. . ... ... ... : A-3 00 . P7F ... ...
ROW E5 : ... .. . ... ... ... : ... .. 5 ... ... ... : ... .. . ... ... ... : ... .. . ... ... ... : ... .. . ... ... ... : A#2 01 4 ... ... ... : G#3 00 . P7A ... ...
ROW E6 : ... .. . ... ... ... : D-2 01 9 ... ... ... : C-4 00 . P7E ... ... : ... .. . ... ... ... : ... .. . ... ... ... : B-2 01 5 ... ... ... : F#3 00 . P87 ... ...
ROW E7 : ... .. . P82 ... ... : ... .. . ... ... ... : ... .. . P7C ... ... : ... .. . ... ... ... : ... .. . ... ... ... : ... .. . ... ... ... : F-3 00 . P85 ... ...
ROW E8 : ... .. . P83 ... ... : D#1 01 8 ... ... ... : B-3 00 . P80 ... ... : ... .. . ... ... ... : ... .. . ... ... ... : G#2 01 4 ... ... ... : E-3 00 6 P84 ... ...
ROW E9 : ... .. . P85 ... ... : D-1 01 . ... ... ... : A#3 00 . P86 ... ... : ... .. . ... ... ... : ... .. . ... ... ... : ... .. . ... ... ... : D#3 00 . P85 ... ...
ROW EA : ... .. . P86 ... ... : ... .. . ... ... ... : ... .. . P7E ... ... : ... .. . ... ... ... : ... .. . ... ... ... : G#2 02 . ... ... ... : D-3 00 . P86 ... ...
ROW EB : ... .. . P87 ... ... : ... .. 7 ... ... ... : D-2 00 . P80 ... ... : ... .. . ... ... ... : ... .. . ... ... ... : C#3 01 5 ... ... ... : D#2 00 . P80 ... ...
ROW EC : ... .. . P88 ... ... : ... .. 8 ... ... ... : ... .. . ... ... ... : ... .. 5 ... ... ... : ... .. . ... ... ... : ... .. . ... ... ... : ... .. 5 P6C ... ...
ROW ED : ... .. . P89 ... ... : ... .. 7 ... ... ... : --- .. . ... ... ... : ... .. . ... ... ... : ... .. . ... ... ... : F-3 01 . ... ... ... : D-2 00 . P83 ... ...
ROW EE : ... .. . ... ... ... : ... .. 6 ... ... ... : ... .. . ... ... ... : ... .. . ... ... ... : ... .. . ... ... ... : ... .. . ... ... ... : ... .. . P6F ... ...
ROW EF : ... .. . ... ... ... : ... .. 5 ... ... ... : ... .. . ... ... ... : ... .. . ... ... ... : ... .. . ... ... ... : D-3 01 4 ... ... ... : C#2 00 . P88 ... ...
ROW F0 : ... .. 8 P80 ... ... : D-2 00 7 ... ... ... : A-3 00 . ... ... ... : A-# 00 A ... ... ... : ... .. . ... ... ... : C#3 01 5 ... ... ... : ... .. 3 P74 ... ...
ROW F1 : ... .. . P83 ... ... : ... .. . ... ... ... : D#4 00 . ... ... ... : 5-# 01 9 ... ... ... : ... .. . ... ... ... : ... .. . ... ... ... : C-2 00 . P90 ... ...
ROW F2 : ... .. . P85 ... ... : D#1 00 6 ... ... ... : D-4 00 . ... ... ... : 6-# 01 8 ... ... ... : ... .. . ... ... ... : A#2 01 4 ... ... ... : ... .. . P7C ... ...
ROW F3 : ... .. . P87 ... ... : D-1 00 7 ... ... ... : D-2 00 . ... ... ... : 7-# 01 7 ... ... ... : ... .. . ... ... ... : ... .. . ... ... ... : G-2 00 . P90 ... ...
ROW F4 : ... .. . P88 ... ... : ... .. . ... ... ... : ... .. . ... ... ... : 8-# 01 . ... ... ... : ... .. . ... ... ... : A#2 02 . ... ... ... : ... .. . P7C ... ...
ROW F5 : ... .. 9 P89 ... ... : ... .. . ... ... ... : --- .. . ... ... ... : 9-# 00 . ... ... ... : ... .. . ... ... ... : F-3 01 5 ... ... ... : F#2 00 . P8A ... ...
ROW F6 : ... .. . ... ... ... : ... .. . ... ... ... : ... .. . ... ... ... : 9-# 01 . ... ... ... : ... .. . ... ... ... : ... .. . ... ... ... : ... .. . P76 ... ...
ROW F7 : ... .. . P88 ... ... : ... .. . ... ... ... : ... .. . ... ... ... : 9-# 00 6 ... ... ... : ... .. . ... ... ... : D-3 01 4 ... ... ... : F-2 00 . P86 ... ...
ROW F8 : ... .. . P86 ... ... : ... .. . ... ... ... : ... .. . ... ... ... : 9-# 01 . ... ... ... : ... .. . ... ... ... : G#3 01 5 ... ... ... : ... .. . P72 ... ...
ROW F9 : ... .. . P84 ... ... : ... .. 6 ... ... ... : ... .. . ... ... ... : 9-# 00 . ... ... ... : ... .. . ... ... ... : ... .. . ... ... ... : E-2 00 . P84 ... ...
ROW FA : ... .. . P80 ... ... : D-2 02 9 ... ... ... : E-4 00 . ... ... ... : D-# 00 . ... ... ... : ... .. . ... ... ... : F-3 01 . ... ... ... : ... .. . P70 ... ...
ROW FB : ... .. 8 P83 ... ... : ... .. . ... ... ... : A#3 00 . P87 ... ... : 3-# 01 9 ... ... ... : ... .. . ... ... ... : ... .. . ... ... ... : A-1 00 . P6A ... ...
ROW FC : ... .. . P86 ... ... : D#1 02 8 ... ... ... : F#3 00 . P86 ... ... : 2-# 01 7 ... ... ... : ... .. . ... ... ... : D-3 01 4 ... ... ... : G#1 00 4 P92 ... ...
ROW FD : ... .. 7 P88 ... ... : D-1 02 . ... ... ... : D-2 00 . P80 ... ... : E-# 00 . ... ... ... : ... .. . ... ... ... : ... .. . ... ... ... : ... .. . P7E ... ...
ROW FE : ... .. . P89 ... ... : ... .. . ... ... ... : ... .. . ... ... ... : B-# 01 . ... ... ... : ... .. . ... ... ... : D-3 02 . ... ... ... : ... .. . P6A ... ...
ROW FF : ... .. . P88 ... ... : ... .. 7 ... ... ... : ... .. . ... ... ... : C-# 01 . ... ... ... : ... .. . ... ... ... : ... .. . ... ... ... : G-1 00 5 P96 ... ...

PATTERN 05
ROW 00 : ... .. . P86 ... ... : ... .. 8 ... ... ... : G-4 00 . P7E ... ... : D-# 00 . ... ... ... : ... .. . ... ... ... : G#3 01 5 ... ... ... : ... .. . P82 ... ...
ROW 01 : ... .. . P83 ... ... : ... .. 7 ... ... ... : F#4 00 . P84 ... ... : C-# 00 6 ... ... ... : ... .. . ... ... ... : ... .. . ... ... ... : ... .. . P6E ... ...
ROW 02 : ... .. . P80 ... ... : ... .. . ... ... ... : --- .. . ... ... ... : D-# 00 . ... ... ... : ... .. . ... ... ... : B-3 01 . ... ... ... : F#1 00 . P9E ... ...
ROW 03 : ... .. . P7D ... ... : ... .. 6 ... ... ... : ... .. . ... ... ... : E-# 00 . ... ... ... : ... .. . ... ... ... : ... .. . ... ... ... : C-2 00 4 P6C ... ...
ROW 04 : ... .. . P7A ... ... : ... .. 5 ... ... ... : ... .. . ... ... ... : ... .. . ... ... ... : ... .. . ... ... ... : G#3 01 4 ... ... ... : B-1 00 . P8B ... ...
ROW 05 : ... .. . P80 ... ... : D-2 00 9 ... ... ... : C-4 00 . P7E ... ... : ... .. . ... ... ... : ... .. . ... ... ... : ... .. 5 ... ... ... : ... .. . P77 ... ...
ROW 06 : ... .. . P86 ... ... : ... .. . ... ... ... : ... .. . P7C ... ... : ... .. . ... ... ... : ... .. . ... ... ... : ... .. . ... ... ... : A#1 00 . P99 ... ...
ROW 07 : ... .. 6 P8A ... ... : D#1 00 8 ... ... ... : B-3 00 . P80 ... ... : ... .. . ... ... ... : ... .. . ... ... ... : F-3 01 4 ... ... ... : ... .. . P85 ... ...
ROW 08 : D#3 00 . P76 ... ... : D-1 00 . ... ... ... : A#3 00 . P86 ... ... : ... .. . ... ... ... : ... .. . ... ... ... : ... .. . ... ... ... : ... .. 3 P71 ... ...
ROW 09 : D-3 00 . P88 ... ... : ... .. . ... ... ... : ... .. . P7E ... ... : ... .. . ... ... ... : ... .. . ... ... ... : F-3 02 . ... ... ... : A-1 00 . P96 ... ...
ROW 0A : ... .. . P80 ... ... : ... .. 7 ... ... ... : D-2 00 . P80 ... ... : ... .. 5 ... ... ... : ... .. . ... ... ... : B-3 01 5 ... ... ... : ... .. . P82 ... ...
ROW 0B : ... .. . P87 ... ... : ... .. 8 ... ... ... : ... .. . ... ... ... : B-# 01 . ... ... ... : ... .. . ... ... ... : ... .. . ... ... ... : E-1 00 . P7E ... ...
ROW 0C : D#3 00 . P76 ... ... : ... .. 7 ... ... ... : --- .. . ... ... ... : C-# 00 4 ... ... ... : ... .. . ... ... ... : C#4 01 . ... ... ... : ... .. . P6A ... ...
ROW 0D : D-3 00 . P8A ... ... : ... .. 6 ... ... ... : ... .. . ... ... ... : D-# 00 3 ... ... ... : ... .. . ... ... ... : ... .. . ... ... ... : D#1 00 . PA7 ... ...
ROW 0E : ... .. . P84 ... ... : ... .. 5 ... ... ... : ... .. . ... ... ... : C-# 00 . ... ... ... : ... .. . ... ... ... : A#3 01 4 ... ... ... : ... .. . P93 ... ...
ROW 0F : ... .. . P80 ... ... : D-3 02 7 ... ... ... : E-4 00 . ... ... ... : D-# 00 6 ... ... ... : ... .. . ... ... ... : B-3 01 5 ... ... ... : ... .. . P7F ... ...
ROW 10 : ... .. . P89 ... ... : ... .. . ... ... ... : A#3 00 . P87 ... ... : 3-# 01 9 ... ... ... : ... .. . ... ... ... : ... .. . ... ... ... : ... .. . P6B ... ...
ROW 11 : D#3 00 . P78 ... ... : D#2 02 6 ... ... ... : F#3 00 . P86 ... ... : 2-# 01 7 ... ... ... : ... .. . ... ... ... : G#3 01 4 ... ... ... : ... .. . P57 ... ...
ROW 12 : D-3 00 5 P89 ... ... : D-2 02 7 ... ... ... : D-3 00 . P80 ... ... : 2-# 00 6 ... ... ... : ... .. . ... ... ... : ... .. . ... ... ... : D-1 00 4 P99 ... ...
ROW 13 : ... .. . P80 ... ... : ... .. . ... ... ... : ... .. . ... ... ... : 1-# 00 . ... ... ... : ... .. . ... ... ... : G#3 02 . ... ... ... : F#1 00 . P8E ... ...
ROW 14 : ... .. . ... ... ... : D-2 01 . ... ... ... : --- .. . ... ... ... : E-# 00 5 ... ... ... : ... .. . ... ... ... : C#4 01 5 ... ... ... : ... .. 5 P7A ... ...
ROW 15 : ... .. . P8A ... ... : ... .. 8 ... ... ... : ... .. . ... ... ... : B-# 01 . ... ... ... : ... .. . ... ... ... : ... .. . ... ... ... : ... .. . P66 ... ...
ROW 16 : D#3 00 . P78 ... ... : ... .. 7 ... ... ... : ... .. . ... ... ... : C-# 00 4 ... ... ... : ... .. . ... ... ... : A#3 01 4 ... ... ... : F-1 00 4 P9A ... ...
ROW 17 : D-3 00 . P86 ... ... : ... .. . ... ... ... : ... .. . ... ... ... : D-# 00 3 ... ... ... : ... .. . ... ... ... : F-4 01 5 ... ... ... : ... .. . P86 ... ...
ROW 18 : ... .. . P7A ... ... : ... .. 6 ... ... ... : ... .. . ... ... ... : C-# 00 . ... ... ... : ... .. . ... ... ... : ... .. . ... ... ... : ... .. . P72 ... ...
ROW 19 : ... .. . P80 ... ... : D-2 00 7 ... ... ... : C-5 00 . P7E ... ... : A-# 00 A ... ... ... : ... .. . ... ... ... : C#4 01 . ... ... ... : ... .. 3 P5E ... ...
ROW 1A : D#3 00 . P79 ... ... : ... .. . ... ... ... : B-4 00 . P82 ... ... : 5-# 01 9 ... ... ... : ... .. . ... ... ... : ... .. . ... ... ... : E-1 00 . P96 ... ...
ROW 1B : ... .. . ... ... ... : D#1 00 6 ... ... ... : A#4 00 . P81 ... ... : 6-# 01 8 ... ... ... : ... .. . ... ... ... : A#3 01 4 ... ... ... : C-1 00 2 P9F ... ...
ROW 1C : D-3 00 . P80 ... ... : D-1 00 7 ... ... ... : D-2 00 . P80 ... ... : 7-# 01 7 ... ... ... : ... .. . ... ... ... : ... .. . ... ... ... : ... .. 3 P8B ... ...
ROW 1D : C#3 00 . P89 ... ... : ... .. . ... ... ... : ... .. . ... ... ... : 8-# 01 . ... ... ... : ... .. . ... ... ... : A#3 02 . ... ... ... : ... .. . P77 ... ...
ROW 1E : ... .. . ... ... ... : ... .. 6 ... ... ... : ... .. . ... ... ... : 9-# 00 . ... ... ... : ... .. . ... ... ... : ... .. . ... ... ... : ... .. . P63 ... ...
ROW 1F : D-3 00 . P80 ... ... : ... .. 7 ... ... ... : C-5 00 . P7E ... ... : 9-# 01 . ... ... ... : ... .. . ... ... ... : F-4 01 5 ... ... ... : ... .. . P4F ... ...
ROW 20 : D#3 00 . P79 ... ... : ... .. . ... ... ... : B-4 00 . P82 ... ... : 9-# 00 6 ... ... ... : ... .. . ... ... ... : ... .. . ... ... ... : B-0 00 . PA1 ... ...
ROW 21 : ... .. . ... ... ... : ... .. . ... ... ... : D-2 00 . P80 ... ... : 9-# 01 . ... ... ... : ... .. . ... ... ... : G#4 01 . ... ... ... : ... .. . P8D ... ...
ROW 22 : D-3 00 . P80 ... ... : ... .. 6 ... ... ... : ... .. . ... ... ... : 9-# 00 . ... ... ... : ... .. . ... ... ... : ... .. . ... ... ... : ... .. 4 P79 ... ...
ROW 23 : C#3 00 . P89 ... ... : ... .. 5 ... ... ... : ... .. . ... ... ... : ... .. . ... ... ... : ... .. . ... ... ... : F-4 01 4 ... ... ... : D-1 00 . P89 ... ...
ROW 24 : D-3 00 . P80 ... ... : D-3 02 9 ... ... ... : F-4 00 . P7E ... ... : D-# 00 . ... ... ... : ... .. . ... ... ... : ... .. 5 ... ... ... : ... .. . P75 ... ...
ROW 25 : D#3 00 . P7F ... ... : ... .. . ... ... ... : ... .. . P7C ... ... : 3-# 01 9 ... ... ... : ... .. . ... ... ... : ... .. . ... ... ... : ... .. 5 P61 ... ...
ROW 26 : ... .. . P77 ... ... : D#2 02 8 ... ... ... : E-4 00 . P7E ... ... : 8-# 00 1 ... ... ... : ... .. . ... ... ... : D-4 01 4 ... ... ... : C#1 00 . PA7 ... ...
ROW 27 : C#3 00 . P8B ... ... : D-2 02 . ... ... ... : D#4 00 . P80 ... ... : ... .. 2 ... ... ... : ... .. . ... ... ... : ... .. . ... ... ... : ... .. . P93 ... ...
ROW 28 : ... .. . P83 ... ... : ... .. . ... ... ... : D-3 00 . ... ... ... : 8-# 01 . ... ... ... : ... .. . ... ... ... : D-4 02 . ... ... ... : ... .. . P7F ... ...
ROW 29 : D-3 00 . P80 ... ... : D-2 01 7 ... ... ... : ... .. . ... ... ... : 8-# 00 . ... ... ... : ... .. . ... ... ... : G#4 01 5 ... ... ... : ... .. 4 P6B ... ...
ROW 2A : D#3 00 . P7F ... ... : ... .. 8 ... ... ... : ... .. . ... ... ... : ... .. 3 ... ... ... : ... .. . ... ... ... : ... .. . ... ... ... : ... .. . P57 ... ...
ROW 2B : ... .. . P77 ... ... : ... .. 7 ... ... ... : ... .. . ... ... ... : 9-# 00 . ... ... ... : ... .. . ... ... ... : F-4 01 4 ... ... ... : A-0 00 . PA3 ... ...
ROW 2C : C#3 00 4 P8B ... ... : ... .. . ... ... ... : --- .. . ... ... ... : 9-# 01 4 ... ... ... : ... .. . ... ... ... : B-4 01 5 ... ... ... : ... .. . P8F ... ...
ROW 2D : ... .. . P83 ... ... : ... .. 6 ... ... ... : ... .. . ... ... ... : 9-# 00 . ... ... ... : ... .. . ... ... ... : ... .. . ... ... ... : ... .. . P82 ... ...
ROW 2E : D#4 02 7 P80 ... ... : D#2 02 7 ... ... ... : E-4 00 . ... ... ... : A-# 00 C ... ... ... : ... .. . ... ... ... : D#4 01 . ... ... ... : A-2 00 . P8B ... ...
ROW 2F : ... .. . ... ... ... : ... .. . ... ... ... : A#3 00 . P87 ... ... : B-# 00 . ... ... ... : ... .. . ... ... ... : ... .. . ... ... ... : ... .. . P78 ... ...
ROW 30 : ... .. . ... ... ... : E-1 02 6 ... ... ... : F#3 00 . P86 ... ... : A-# 01 B ... ... ... : ... .. . ... ... ... : ... .. 4 ... ... ... : G#2 00 . P84 ... ...
ROW 31 : ... .. 8 ... ... ... : D#1 02 . ... ... ... : D#2 00 . P80 ... ... : A-# 00 A ... ... ... : ... .. . ... ... ... : D#3 01 5 ... ... ... : ... .. 6 P71 ... ...
ROW 32 : D#4 00 . ... ... ... : ... .. . ... ... ... : ... .. . ... ... ... : ... .. . ... ... ... : ... .. . ... ... ... : D#3 02 . ... ... ... : G-2 00 . P7E ... ...
ROW 33 : ... .. 9 ... ... ... : ... .. 7 ... ... ... : --- .. . ... ... ... : ... .. . ... ... ... : ... .. . ... ... ... : ... .. . ... ... ... : F#2 00 7 P8D ... ...
ROW 34 : ... .. 8 ... ... ... : ... .. . ... ... ... : ... .. . ... ... ... : A-# 01 9 ... ... ... : ... .. . ... ... ... : ... .. . ... ... ... : C#5 00 . P80 ... ...
ROW 35 : ... .. . ... ... ... : ... .. . ... ... ... : ... .. . ... ... ... : A-# 00 . ... ... ... : ... .. . ... ... ... : ... .. . ... ... ... : A#4 00 . ... ... ...
ROW 36 : ... .. 9 ... ... ... : ... .. . ... ... ... : ... .. . ... ... ... : ... .. . ... ... ... : ... .. . ... ... ... : ... .. 4 ... ... ... : G-4 00 8 P84 ... ...
ROW 37 : ... .. . ... ... ... : ... .. 6 ... ... ... : ... .. . ... ... ... : A-# 01 8 ... ... ... : ... .. . ... ... ... : ... .. . ... ... ... : F-4 00 . P82 ... ...
ROW 38 : ... .. . ... ... ... : D#2 01 9 ... ... ... : D#3 00 . ... ... ... : A-# 00 . ... ... ... : ... .. . ... ... ... : ... .. . ... ... ... : A-0 00 . PB4 ... ...
ROW 39 : ... .. . ... ... ... : ... .. . ... ... ... : D#2 00 . ... ... ... : ... .. . ... ... ... : ... .. . ... ... ... : ... .. 3 ... ... ... : ... .. . PA1 ... ...
ROW 3A : ... .. . ... ... ... : E-1 01 8 ... ... ... : ... .. . ... ... ... : ... .. 7 ... ... ... : ... .. . ... ... ... : ... .. . ... ... ... : ... .. . P8E ... ...
ROW 3B : ... .. . ... ... ... : D#1 01 . ... ... ... : ... .. . ... ... ... : A-# 01 . ... ... ... : ... .. . ... ... ... : ... .. . ... ... ... : ... .. 7 P7B ... ...
ROW 3C : ... .. . ... ... ... : ... .. . ... ... ... : ... .. . ... ... ... : 9-# 00 . ... ... ... : ... .. . ... ... ... : ... .. 2 ... ... ... : B-7 00 . P84 ... ...
ROW 3D : ... .. . ... ... ... : ... .. 7 ... ... ... : ... .. . ... ... ... : ... .. . ... ... ... : ... .. . ... ... ... : ... .. . ... ... ... : A#6 00 . P81 ... ...
ROW 3E : ... .. . ... ... ... : ... .. 8 ... ... ... : --- .. . ... ... ... : 9-# 01 . ... ... ... : ... .. . ... ... ... : ... .. . ... ... ... : C#2 00 . P86 ... ...
ROW 3F : ... .. . ... ... ... : ... .. 7 ... ... ... : ... .. . ... ... ... : 9-# 00 . ... ... ... : ... .. . ... ... ... : ... .. 1 ... ... ... : ... .. 6 P73 ... ...
ROW 40 : ... .. . ... ... ... : ... .. . ... ... ... : ... .. . ... ... ... : ... .. 6 ... ... ... : ... .. . ... ... ... : ... .. . ... ... ... : C-2 00 . P90 ... ...
ROW 41 : ... .. . ... ... ... : ... .. 6 ... ... ... : ... .. . ... ... ... : ... .. . ... ... ... : ... .. . ... ... ... : ... .. . ... ... ... : ... .. . P7D ... ...
ROW 42 : ... .. . ... ... ... : ... .. 5 ... ... ... : ... .. . ... ... ... : 9-# 01 . ... ... ... : ... .. . ... ... ... : ... .. . ... ... ... : ... .. . P6A ... ...
ROW 43 : ... .. 8 ... ... ... : D#2 00 7 ... ... ... : C-4 00 . P7F ... ... : A-# 00 A ... ... ... : ... .. . ... ... ... : F#3 01 4 ... ... ... : B-1 00 4 P8A ... ...
ROW 44 : ... .. . P81 ... ... : ... .. . ... ... ... : ... .. . ... ... ... : 5-# 01 9 ... ... ... : ... .. . ... ... ... : ... .. . ... ... ... : C#3 00 . P7F ... ...
ROW 45 : ... .. . P82 ... ... : E-1 00 . ... ... ... : D#2 00 . P80 ... ... : 6-# 01 8 ... ... ... : ... .. . ... ... ... : D#3 01 3 ... ... ... : C-3 00 . P84 ... ...
ROW 46 : ... .. . P83 ... ... : D#1 00 . ... ... ... : ... .. . ... ... ... : 7-# 01 7 ... ... ... : ... .. . ... ... ... : ... .. . ... ... ... : B-2 00 . P8A ... ...
ROW 47 : ... .. . P84 ... ... : ... .. . ... ... ... : ... .. . ... ... ... : 8-# 01 . ... ... ... : ... .. . ... ... ... : D#3 02 . ... ... ... : ... .. . P77 ... ...
ROW 48 : ... .. 9 P85 ... ... : ... .. . ... ... ... : --- .. . ... ... ... : 9-# 00 . ... ... ... : ... .. . ... ... ... : A-3 01 5 ... ... ... : A#3 00 . P82 ... ...
ROW 49 : E-4 00 . P7C ... ... : ... .. . ... ... ... : ... .. . ... ... ... : 9-# 01 . ... ... ... : ... .. . ... ... ... : ... .. . ... ... ... : A-3 00 . P7D ... ...
ROW 4A : ... .. . ... ... ... : ... .. . ... ... ... : ... .. . ... ... ... : 9-# 00 6 ... ... ... : ... .. . ... ... ... : F#3 01 4 ... ... ... : G#3 00 . P79 ... ...
ROW 4B : ... .. . ... ... ... : ... .. . ... ... ... : ... .. . ... ... ... : 9-# 01 . ... ... ... : ... .. . ... ... ... : ... .. . ... ... ... : F#3 00 . P87 ... ...
ROW 4C : ... .. . ... ... ... : ... .. 6 ... ... ... : ... .. . ... ... ... : 9-# 00 . ... ... ... : ... .. . ... ... ... : F#3 02 . ... ... ... : F-3 00 . P86 ... ...
ROW 4D : ... .. 7 ... ... ... : D#2 02 9 ... ... ... : D#3 00 . ... ... ... : E-# 00 7 ... ... ... : ... .. . ... ... ... : C#4 01 5 ... ... ... : E-3 00 . ... ... ...
ROW 4E : D#4 00 . P85 ... ... : ... .. . ... ... ... : D#2 00 . ... ... ... : B-# 01 . ... ... ... : ... .. . ... ... ... : ... .. . ... ... ... : G#1 00 . P64 ... ...
ROW 4F : ... .. 6 P84 ... ... : E-1 02 8 ... ... ... : ... .. . ... ... ... : C-# 00 6 ... ... ... : ... .. . ... ... ... : A#3 01 4 ... ... ... : G-1 00 5 P91 ... ...
ROW 50 : ... .. . P83 ... ... : D#1 02 . ... ... ... : ... .. . ... ... ... : D-# 00 5 ... ... ... : ... .. . ... ... ... : ... .. . ... ... ... : ... .. . P7E ... ...
ROW 51 : ... .. 5 P82 ... ... : ... .. . ... ... ... : ... .. . ... ... ... : C-# 00 4 ... ... ... : ... .. . ... ... ... : A#3 02 . ... ... ... : ... .. . P6B ... ...
ROW 52 : ... .. 4 P81 ... ... : ... .. 7 ... ... ... : --- .. . ... ... ... : E-# 00 5 ... ... ... : ... .. . ... ... ... : F#4 01 5 ... ... ... : F#1 00 6 P9C ... ...
ROW 53 : ... .. . P80 ... ... : ... .. 8 ... ... ... : ... .. . ... ... ... : B-# 01 . ... ... ... : ... .. . ... ... ... : ... .. . ... ... ... : ... .. . P89 ... ...
ROW 54 : ... .. 3 P7F ... ... : ... .. 7 ... ... ... : ... .. . ... ... ... : C-# 00 4 ... ... ... : ... .. . ... ... ... : D#4 01 4 ... ... ... : D#2 00 . P8A ... ...
ROW 55 : ... .. . P7E ... ... : ... .. . ... ... ... : ... .. . ... ... ... : D-# 00 3 ... ... ... : ... .. . ... ... ... : ... .. . ... ... ... : ... .. . P77 ... ...
ROW 56 : ... .. 2 P7D ... ... : ... .. 6 ... ... ... : ... .. . ... ... ... : C-# 00 . ... ... ... : ... .. . ... ... ... : D#4 02 . ... ... ... : D-2 00 5 P8F ... ...
ROW 57 : ... .. . P7C ... ... : ... .. 5 ... ... ... : ... .. . ... ... ... : D-# 00 . ... ... ... : ... .. . ... ... ... : ... .. . ... ... ... : ... .. . P7C ... ...
ROW 58 : A-4 02 A P80 ... ... : D#2 00 9 ... ... ... : D#3 00 . ... ... ... : E-# 00 7 ... ... ... : ... .. . ... ... ... : A-4 01 5 ... ... ... : G#2 00 . P7D ... ...
ROW 59 : ... .. . ... ... ... : ... .. . ... ... ... : D#2 00 . ... ... ... : B-# 01 . ... ... ... : ... .. . ... ... ... : ... .. . ... ... ... : G-2 00 . P8A ... ...
ROW 5A : ... .. . P81 ... ... : E-1 00 8 ... ... ... : ... .. . ... ... ... : C-# 00 6 ... ... ... : ... .. . ... ... ... : F#4 01 4 ... ... ... : ... .. . P77 ... ...
ROW 5B : ... .. . P82 ... ... : D#1 00 . ... ... ... : ... .. . ... ... ... : D-# 00 5 ... ... ... : ... .. . ... ... ... : ... .. . ... ... ... : F#2 00 4 P86 ... ...
ROW 5C : A-4 00 . P83 ... ... : ... .. . ... ... ... : ... .. . ... ... ... : C-# 00 4 ... ... ... : ... .. . ... ... ... : F#4 02 . ... ... ... : ... .. . P73 ... ...
ROW 5D : A#4 00 . P7D ... ... : ... .. 7 ... ... ... : --- .. . ... ... ... : E-# 00 5 ... ... ... : ... .. . ... ... ... : F#4 01 5 ... ... ... : F-2 00 . P84 ... ...
ROW 5E : ... .. 9 P7E ... ... : ... .. 8 ... ... ... : ... .. . ... ... ... : B-# 01 . ... ... ... : ... .. . ... ... ... : ... .. . ... ... ... : D#1 00 . P9D ... ...
ROW 5F : ... .. . P7F ... ... : ... .. 7 ... ... ... : ... .. . ... ... ... : C-# 00 4 ... ... ... : ... .. . ... ... ... : D#4 01 4 ... ... ... : ... .. . P8A ... ...
ROW 60 : ... .. . P80 ... ... : ... .. 6 ... ... ... : ... .. . ... ... ... : D-# 00 3 ... ... ... : ... .. . ... ... ... : ... .. . ... ... ... : ... .. . P77 ... ...
ROW 61 : ... .. . ... ... ... : ... .. 5 ... ... ... : ... .. . ... ... ... : C-# 00 . ... ... ... : ... .. . ... ... ... : D#4 02 . ... ... ... : ... .. . P64 ... ...
ROW 62 : ... .. 8 ... ... ... : D#2 01 7 ... ... ... : E-4 00 . ... ... ... : D-# 00 6 ... ... ... : ... .. . ... ... ... : C#4 01 . ... ... ... : D-1 00 . PA7 ... ...
ROW 63 : ... .. . ... ... ... : ... .. . ... ... ... : A#3 00 . P87 ... ... : 3-# 01 9 ... ... ... : ... .. . ... ... ... : ... .. . ... ... ... : ... .. . P94 ... ...
ROW 64 : ... .. . ... ... ... : E-1 01 6 ... ... ... : F#3 00 . P86 ... ... : 2-# 01 7 ... ... ... : ... .. . ... ... ... : A#3 01 3 ... ... ... : A-1 00 . P84 ... ...
ROW 65 : ... .. 9 ... ... ... : D#1 01 7 ... ... ... : D#2 00 . P80 ... ... : 2-# 00 6 ... ... ... : ... .. . ... ... ... : ... .. . ... ... ... : ... .. 5 P71 ... ...
ROW 66 : ... .. . ... ... ... : ... .. . ... ... ... : ... .. . ... ... ... : 1-# 00 . ... ... ... : ... .. . ... ... ... : A#3 02 . ... ... ... : G#1 00 . P9A ... ...
ROW 67 : ... .. . ... ... ... : ... .. . ... ... ... : --- .. . ... ... ... : E-# 00 2 ... ... ... : ... .. . ... ... ... : A-3 01 5 ... ... ... : ... .. 6 P87 ... ...
ROW 68 : ... .. . ... ... ... : ... .. 8 ... ... ... : ... .. . ... ... ... : B-# 01 . ... ... ... : ... .. . ... ... ... : ... .. . ... ... ... : C-2 00 . P89 ... ...
ROW 69 : ... .. . ... ... ... : ... .. 7 ... ... ... : ... .. . ... ... ... : C-# 00 . ... ... ... : ... .. . ... ... ... : F#3 01 4 ... ... ... : ... .. 5 P76 ... ...
ROW 6A : ... .. . ... ... ... : ... .. . ... ... ... : ... .. . ... ... ... : D-# 00 . ... ... ... : ... .. . ... ... ... : ... .. . ... ... ... : B-1 00 . P96 ... ...
ROW 6B : ... .. . ... ... ... : ... .. 6 ... ... ... : ... .. . ... ... ... : C-# 00 1 ... ... ... : ... .. . ... ... ... : F#3 02 . ... ... ... : ... .. . P83 ... ...
ROW 6C : ... .. 8 ... ... ... : D#2 02 7 ... ... ... : C-4 00 . P7F ... ... : A-# 00 A ... ... ... : ... .. . ... ... ... : C#4 01 . ... ... ... : ... .. 4 P70 ... ...
ROW 6D : ... .. . P81 ... ... : ... .. . ... ... ... : ... .. . ... ... ... : 5-# 01 9 ... ... ... : ... .. . ... ... ... : ... .. . ... ... ... : A#1 00 . P93 ... ...
ROW 6E : ... .. . P82 ... ... : E-1 02 6 ... ... ... : A#2 00 . P88 ... ... : 6-# 01 8 ... ... ... : ... .. . ... ... ... : A#3 01 3 ... ... ... : C-1 00 3 P7D ... ...
ROW 6F : ... .. . ... ... ... : D#1 02 7 ... ... ... : D#2 00 . P80 ... ... : 7-# 01 7 ... ... ... : ... .. . ... ... ... : ... .. . ... ... ... : ... .. . P6A ... ...
ROW 70 : ... .. . P83 ... ... : ... .. . ... ... ... : ... .. . ... ... ... : 8-# 01 . ... ... ... : ... .. . ... ... ... : A#3 02 . ... ... ... : ... .. . P57 ... ...
ROW 71 : ... .. 9 ... ... ... : ... .. . ... ... ... : --- .. . ... ... ... : 9-# 00 . ... ... ... : ... .. . ... ... ... : A-3 01 5 ... ... ... : B-0 00 4 PAA ... ...
ROW 72 : B-4 00 . P7D ... ... : ... .. . ... ... ... : ... .. . ... ... ... : 9-# 01 . ... ... ... : ... .. . ... ... ... : ... .. . ... ... ... : ... .. . P97 ... ...
ROW 73 : ... .. . ... ... ... : ... .. . ... ... ... : ... .. . ... ... ... : 9-# 00 6 ... ... ... : ... .. . ... ... ... : F#3 01 4 ... ... ... : ... .. . P84 ... ...
ROW 74 : ... .. . ... ... ... : ... .. . ... ... ... : ... .. . ... ... ... : 9-# 01 . ... ... ... : ... .. . ... ... ... : ... .. . ... ... ... : F-1 00 . P5C ... ...
ROW 75 : ... .. . ... ... ... : ... .. 6 ... ... ... : ... .. . ... ... ... : 9-# 00 . ... ... ... : ... .. . ... ... ... : F#3 02 . ... ... ... : E-1 00 5 P95 ... ...
ROW 76 : ... .. . ... ... ... : ... .. 5 ... ... ... : ... .. . ... ... ... : ... .. . ... ... ... : ... .. . ... ... ... : ... .. . ... ... ... : ... .. . P82 ... ...
ROW 77 : A#4 00 7 P83 ... ... : D#2 00 9 ... ... ... : D#3 00 . ... ... ... : E-# 00 7 ... ... ... : ... .. . ... ... ... : F#3 01 5 ... ... ... : ... .. . P6F ... ...
ROW 78 : ... .. . ... ... ... : ... .. . ... ... ... : D#2 00 . ... ... ... : B-# 01 . ... ... ... : ... .. . ... ... ... : ... .. . ... ... ... : G-1 00 6 P77 ... ...
ROW 79 : ... .. 6 P82 ... ... : E-1 00 8 ... ... ... : ... .. . ... ... ... : C-# 00 6 ... ... ... : ... .. . ... ... ... : D#3 01 4 ... ... ... : ... .. . P64 ... ...
ROW 7A : ... .. . ... ... ... : D#1 00 . ... ... ... : ... .. . ... ... ... : D-# 00 5 ... ... ... : ... .. . ... ... ... : ... .. . ... ... ... : F#1 00 . P95 ... ...
ROW 7B : ... .. 5 P81 ... ... : ... .. . ... ... ... : ... .. . ... ... ... : C-# 00 4 ... ... ... : ... .. . ... ... ... : D#3 02 . ... ... ... : ... .. . P82 ... ...
ROW 7C : ... .. 4 P80 ... ... : ... .. 7 ... ... ... : --- .. . ... ... ... : E-# 00 5 ... ... ... : ... .. . ... ... ... : C#3 01 5 ... ... ... : ... .. 5 P6F ... ...
ROW 7D : ... .. . P7F ... ... : ... .. 8 ... ... ... : ... .. . ... ... ... : B-# 01 . ... ... ... : ... .. . ... ... ... : ... .. . ... ... ... : F-1 00 . PA4 ... ...
ROW 7E : ... .. 3 P7E ... ... : ... .. 7 ... ... ... : ... .. . ... ... ... : C-# 00 4 ... ... ... : ... .. . ... ... ... : A#2 01 4 ... ... ... : A-0 00 . P91 ... ...
ROW 7F : ... .. . ... ... ... : ... .. 6 ... ... ... : ... .. . ... ... ... : D-# 00 3 ... ... ... : ... .. . ... ... ... : ... .. . ... ... ... : ... .. . P82 ... ...
ROW 80 : ... .. 2 P7D ... ... : ... .. 5 ... ... ... : ... .. . ... ... ... : C-# 00 . ... ... ... : ... .. . ... ... ... : A#2 02 . ... ... ... : ... .. . ... ... ...
ROW 81 : A-4 02 9 P80 ... ... : F-2 02 7 ... ... ... : E-4 00 . ... ... ... : D-# 00 6 ... ... ... : ... .. . ... ... ... : D#4 01 6 ... ... ... : B-2 00 4 P88 ... ...
ROW 82 : ... .. . ... ... ... : ... .. . ... ... ... : A#3 00 . P87 ... ... : 3-# 01 9 ... ... ... : ... .. . ... ... ... : ... .. . ... ... ... : ... .. 5 P74 ... ...
ROW 83 : ... .. . ... ... ... : F#1 02 6 ... ... ... : F#3 00 . P86 ... ... : 2-# 01 7 ... ... ... : ... .. . ... ... ... : ... .. 5 ... ... ... : A#2 00 . P7C ... ...
ROW 84 : ... .. A ... ... ... : F-1 02 7 ... ... ... : F-2 00 . P80 ... ... : 2-# 00 6 ... ... ... : ... .. . ... ... ... : D#3 01 . ... ... ... : A-2 00 6 P84 ... ...
ROW 85 : A-4 00 . ... ... ... : ... .. . ... ... ... : ... .. . ... ... ... : 1-# 00 . ... ... ... : ... .. . ... ... ... : D#3 02 . ... ... ... : ... .. . P71 ... ...
ROW 86 : ... .. . ... ... ... : ... .. . ... ... ... : --- .. . ... ... ... : ... .. 5 ... ... ... : ... .. . ... ... ... : ... .. . ... ... ... : G#2 00 7 P7C ... ...
ROW 87 : ... .. 9 ... ... ... : ... .. 8 ... ... ... : ... .. . ... ... ... : ... .. 4 ... ... ... : ... .. . ... ... ... : ... .. . ... ... ... : A#3 00 . P82 ... ...
ROW 88 : ... .. . ... ... ... : ... .. 7 ... ... ... : ... .. . ... ... ... : ... .. . ... ... ... : ... .. . ... ... ... : ... .. . ... ... ... : A-3 00 . P7C ... ...
ROW 89 : ... .. . ... ... ... : ... .. . ... ... ... : ... .. . ... ... ... : ... .. 3 ... ... ... : ... .. . ... ... ... : ... .. 4 ... ... ... : G-3 00 8 P88 ... ...
ROW 8A : ... .. . ... ... ... : ... .. 6 ... ... ... : ... .. . ... ... ... : ... .. . ... ... ... : ... .. . ... ... ... : ... .. . ... ... ... : F#3 00 . P85 ... ...
ROW 8B : ... .. . ... ... ... : F-2 01 9 ... ... ... : F-3 00 . ... ... ... : E-# 00 7 ... ... ... : ... .. . ... ... ... : ... .. . ... ... ... : A-4 00 . P7D ... ...
ROW 8C : ... .. . ... ... ... : ... .. . ... ... ... : F-2 00 . ... ... ... : B-# 01 . ... ... ... : ... .. . ... ... ... : ... .. 3 ... ... ... : F#4 00 . P81 ... ...
ROW 8D : ... .. . ... ... ... : F#1 01 8 ... ... ... : ... .. . ... ... ... : C-# 00 6 ... ... ... : ... .. . ... ... ... : ... .. . ... ... ... : E-4 00 . ... ... ...
ROW 8E : ... .. . ... ... ... : F-1 01 . ... ... ... : ... .. . ... ... ... : D-# 00 5 ... ... ... : ... .. . ... ... ... : ... .. . ... ... ... : D-4 00 7 ... ... ...
ROW 8F : ... .. . ... ... ... : ... .. . ... ... ... : ... .. . ... ... ... : C-# 00 4 ... ... ... : ... .. . ... ... ... : ... .. 2 ... ... ... : C-4 00 . P86 ... ...
ROW 90 : ... .. . ... ... ... : ... .. 7 ... ... ... : ... .. . ... ... ... : D-# 00 . ... ... ... : ... .. . ... ... ... : ... .. . ... ... ... : B-3 00 . P7E ... ...
ROW 91 : ... .. . ... ... ... : ... .. 8 ... ... ... : --- .. . ... ... ... : E-# 00 2 ... ... ... : ... .. . ... ... ... : ... .. . ... ... ... : D-2 00 . P85 ... ...
ROW 92 : ... .. . ... ... ... : ... .. 7 ... ... ... : ... .. . ... ... ... : B-# 01 . ... ... ... : ... .. . ... ... ... : ... .. 1 ... ... ... : ... .. 6 P71 ... ...
ROW 93 : ... .. . ... ... ... : ... .. . ... ... ... : ... .. . ... ... ... : C-# 00 . ... ... ... : ... .. . ... ... ... : ... .. . ... ... ... : C#2 00 . P8B ... ...
ROW 94 : ... .. . ... ... ... : ... .. 6 ... ... ... : ... .. . ... ... ... : D-# 00 . ... ... ... : ... .. . ... ... ... : ... .. . ... ... ... : ... .. . P77 ... ...
ROW 95 : ... .. . ... ... ... : ... .. 5 ... ... ... : ... .. . ... ... ... : C-# 00 1 ... ... ... : ... .. . ... ... ... : ... .. . ... ... ... : C-2 00 . P94 ... ...
ROW 96 : ... .. 8 ... ... ... : F-2 00 7 ... ... ... : C-4 00 . P7F ... ... : A-# 00 A ... ... ... : ... .. . ... ... ... : F#3 01 4 ... ... ... : ... .. 4 P80 ... ...
ROW 97 : ... .. . P81 ... ... : ... .. . ... ... ... : ... .. . ... ... ... : 5-# 01 9 ... ... ... : ... .. . ... ... ... : ... .. . ... ... ... : G#2 00 . P75 ... ...
ROW 98 : ... .. . P82 ... ... : F#1 00 . ... ... ... : F-2 00 . P80 ... ... : 6-# 01 8 ... ... ... : ... .. . ... ... ... : D#3 01 3 ... ... ... : G-2 00 . P81 ... ...
ROW 99 : ... .. . ... ... ... : F-1 00 . ... ... ... : ... .. . ... ... ... : 7-# 01 7 ... ... ... : ... .. . ... ... ... : ... .. . ... ... ... : F#2 00 . P90 ... ...
ROW 9A : ... .. . P83 ... ... : ... .. . ... ... ... : ... .. . ... ... ... : 8-# 01 . ... ... ... : ... .. . ... ... ... : D#3 02 . ... ... ... : ... .. . P7C ... ...
ROW 9B : ... .. 9 ... ... ... : ... .. . ... ... ... : --- .. . ... ... ... : 9-# 00 . ... ... ... : ... .. . ... ... ... : G#3 01 5 ... ... ... : B-2 00 . P8B ... ...
ROW 9C : A#4 00 . P7D ... ... : ... .. . ... ... ... : ... .. . ... ... ... : 9-# 01 . ... ... ... : ... .. . ... ... ... : ... .. . ... ... ... : ... .. . P77 ... ...
ROW 9D : ... .. . ... ... ... : ... .. . ... ... ... : ... .. . ... ... ... : 9-# 00 6 ... ... ... : ... .. . ... ... ... : F-3 01 4 ... ... ... : A#2 00 . P7F ... ...
ROW 9E : ... .. . ... ... ... : ... .. 6 ... ... ... : ... .. . ... ... ... : 9-# 01 . ... ... ... : ... .. . ... ... ... : ... .. . ... ... ... : A-2 00 . P87 ... ...
ROW 9F : ... .. . ... ... ... : ... .. 5 ... ... ... : ... .. . ... ... ... : 9-# 00 . ... ... ... : ... .. . ... ... ... : F-3 02 . ... ... ... : ... .. . P74 ... ...
ROW A0 : ... .. 7 ... ... ... : F-2 02 9 ... ... ... : F-3 00 . ... ... ... : E-# 00 7 ... ... ... : ... .. . ... ... ... : C-4 01 5 ... ... ... : G#2 00 . P7F ... ...
ROW A1 : A-4 00 . P83 ... ... : ... .. . ... ... ... : F-2 00 . ... ... ... : B-# 01 . ... ... ... : ... .. . ... ... ... : ... .. . ... ... ... : G#1 00 . P88 ... ...
ROW A2 : ... .. 6 ... ... ... : F#1 02 8 ... ... ... : ... .. . ... ... ... : C-# 00 6 ... ... ... : ... .. . ... ... ... : A-3 01 4 ... ... ... : ... .. 5 P74 ... ...
ROW A3 : ... .. . P82 ... ... : F-1 02 . ... ... ... : ... .. . ... ... ... : D-# 00 5 ... ... ... : ... .. . ... ... ... : ... .. . ... ... ... : ... .. . P61 ... ...
ROW A4 : ... .. 5 ... ... ... : ... .. . ... ... ... : ... .. . ... ... ... : C-# 00 4 ... ... ... : ... .. . ... ... ... : A-3 02 . ... ... ... : G-1 00 . P8D ... ...
ROW A5 : ... .. 4 P81 ... ... : ... .. 7 ... ... ... : --- .. . ... ... ... : E-# 00 5 ... ... ... : ... .. . ... ... ... : D#4 01 5 ... ... ... : ... .. 6 P7A ... ...
ROW A6 : ... .. . P80 ... ... : ... .. 8 ... ... ... : ... .. . ... ... ... : B-# 01 . ... ... ... : ... .. . ... ... ... : ... .. . ... ... ... : ... .. . P66 ... ...
ROW A7 : ... .. 3 P7F ... ... : ... .. 7 ... ... ... : ... .. . ... ... ... : C-# 00 4 ... ... ... : ... .. . ... ... ... : C-4 01 4 ... ... ... : C-2 00 . P79 ... ...
ROW A8 : ... .. . P7E ... ... : ... .. . ... ... ... : ... .. . ... ... ... : D-# 00 3 ... ... ... : ... .. . ... ... ... : ... .. . ... ... ... : B-1 00 . P98 ... ...
ROW A9 : ... .. 2 ... ... ... : ... .. 6 ... ... ... : ... .. . ... ... ... : C-# 00 . ... ... ... : ... .. . ... ... ... : C-4 02 . ... ... ... : ... .. 5 P85 ... ...
ROW AA : F-4 02 A P80 ... ... : F-2 00 9 ... ... ... : F-3 00 . ... ... ... : E-# 00 7 ... ... ... : ... .. . ... ... ... : G#4 01 5 ... ... ... : ... .. . P71 ... ...
ROW AB : ... .. . ... ... ... : ... .. . ... ... ... : F-2 00 . ... ... ... : B-# 01 . ... ... ... : ... .. . ... ... ... : ... .. . ... ... ... : D-2 00 . P88 ... ...
ROW AC : ... .. . ... ... ... : F#1 00 8 ... ... ... : ... .. . ... ... ... : C-# 00 6 ... ... ... : ... .. . ... ... ... : F-4 01 4 ... ... ... : ... .. . P74 ... ...
ROW AD : ... .. . ... ... ... : F-1 00 . ... ... ... : ... .. . ... ... ... : D-# 00 5 ... ... ... : ... .. . ... ... ... : ... .. . ... ... ... : C#2 00 . P8E ... ...
ROW AE : F-4 00 . ... ... ... : ... .. . ... ... ... : ... .. . ... ... ... : C-# 00 4 ... ... ... : ... .. . ... ... ... : F-4 02 . ... ... ... : ... .. 4 P7A ... ...
ROW AF : ... .. . ... ... ... : ... .. 7 ... ... ... : ... .. . ... ... ... : D-# 00 . ... ... ... : ... .. . ... ... ... : ... .. . ... ... ... : C-2 00 . P97 ... ...
ROW B0 : ... .. 9 ... ... ... : ... .. 8 ... ... ... : --- .. . ... ... ... : E-# 00 5 ... ... ... : ... .. . ... ... ... : F#4 01 5 ... ... ... : ... .. . P83 ... ...
ROW B1 : ... .. . ... ... ... : ... .. 7 ... ... ... : ... .. . ... ... ... : B-# 01 . ... ... ... : ... .. . ... ... ... : ... .. . ... ... ... : E-1 00 . P68 ... ...
ROW B2 : ... .. . ... ... ... : ... .. . ... ... ... : ... .. . ... ... ... : C-# 00 4 ... ... ... : ... .. . ... ... ... : D#4 01 4 ... ... ... : D#1 00 . PA5 ... ...
ROW B3 : ... .. . ... ... ... : ... .. 6 ... ... ... : ... .. . ... ... ... : D-# 00 3 ... ... ... : ... .. . ... ... ... : ... .. . ... ... ... : ... .. . P92 ... ...
ROW B4 : ... .. . ... ... ... : ... .. 5 ... ... ... : ... .. . ... ... ... : C-# 00 . ... ... ... : ... .. . ... ... ... : D#4 02 . ... ... ... : ... .. . P7E ... ...
ROW B5 : ... .. 8 ... ... ... : F-2 01 7 ... ... ... : E-4 00 . ... ... ... : D-# 00 6 ... ... ... : ... .. . ... ... ... : D#4 01 . ... ... ... : ... .. . P6B ... ...
ROW B6 : ... .. . ... ... ... : ... .. . ... ... ... : A#3 00 . P87 ... ... : 3-# 01 9 ... ... ... : ... .. . ... ... ... : ... .. . ... ... ... : ... .. . P57 ... ...
ROW B7 : ... .. 9 ... ... ... : F#1 01 . ... ... ... : F-2 00 . P80 ... ... : 2-# 01 7 ... ... ... : ... .. . ... ... ... : C-4 01 3 ... ... ... : G-1 00 . P5F ... ...
ROW B8 : ... .. . ... ... ... : F-1 01 . ... ... ... : ... .. . ... ... ... : 2-# 00 6 ... ... ... : ... .. . ... ... ... : ... .. . ... ... ... : F#1 00 5 P8F ... ...
ROW B9 : ... .. . ... ... ... : ... .. . ... ... ... : ... .. . ... ... ... : 1-# 00 . ... ... ... : ... .. . ... ... ... : C-4 02 . ... ... ... : ... .. . P7C ... ...
ROW BA : ... .. . ... ... ... : ... .. . ... ... ... : --- .. . ... ... ... : E-# 00 2 ... ... ... : ... .. . ... ... ... : C-4 01 5 ... ... ... : ... .. 6 P68 ... ...
ROW BB : ... .. . ... ... ... : ... .. 8 ... ... ... : ... .. . ... ... ... : B-# 01 . ... ... ... : ... .. . ... ... ... : ... .. . ... ... ... : G#1 00 . P8B ... ...
ROW BC : ... .. . ... ... ... : ... .. 7 ... ... ... : ... .. . ... ... ... : C-# 00 . ... ... ... : ... .. . ... ... ... : A-3 01 4 ... ... ... : ... .. 5 P77 ... ...
ROW BD : A-4 00 4 ... ... ... : ... .. . ... ... ... : ... .. . ... ... ... : D-# 00 . ... ... ... : ... .. . ... ... ... : ... .. . ... ... ... : ... .. . P64 ... ...
ROW BE : ... .. . ... ... ... : ... .. 6 ... ... ... : ... .. . ... ... ... : C-# 00 1 ... ... ... : ... .. . ... ... ... : A-3 02 . ... ... ... : G-1 00 . P90 ... ...
ROW BF : F#4 02 9 ... ... ... : F-2 02 7 ... ... ... : C-4 00 . P7F ... ... : A-# 00 A ... ... ... : ... .. . ... ... ... : F#4 01 . ... ... ... : ... .. 4 P7D ... ...
ROW C0 : ... .. . ... ... ... : ... .. . ... ... ... : ... .. . ... ... ... : 5-# 01 9 ... ... ... : ... .. . ... ... ... : ... .. . ... ... ... : ... .. . P69 ... ...
ROW C1 : ... .. . ... ... ... : F#1 02 6 ... ... ... : A#2 00 . P88 ... ... : 6-# 01 8 ... ... ... : ... .. . ... ... ... : D#4 01 3 ... ... ... : C-1 00 3 P91 ... ...
ROW C2 : ... .. . ... ... ... : F-1 02 7 ... ... ... : F-2 00 . P80 ... ... : 7-# 01 7 ... ... ... : ... .. . ... ... ... : ... .. . ... ... ... : ... .. . P7D ... ...
ROW C3 : F#4 00 . ... ... ... : ... .. . ... ... ... : ... .. . ... ... ... : 8-# 01 . ... ... ... : ... .. . ... ... ... : D#4 02 . ... ... ... : ... .. . P6A ... ...
ROW C4 : ... .. A ... ... ... : ... .. . ... ... ... : --- .. . ... ... ... : 9-# 00 . ... ... ... : ... .. . ... ... ... : D#4 01 5 ... ... ... : ... .. 4 P56 ... ...
ROW C5 : ... .. 9 ... ... ... : ... .. . ... ... ... : ... .. . ... ... ... : 9-# 01 . ... ... ... : ... .. . ... ... ... : ... .. . ... ... ... : B-0 00 . PA9 ... ...
ROW C6 : ... .. . ... ... ... : ... .. . ... ... ... : ... .. . ... ... ... : 9-# 00 6 ... ... ... : ... .. . ... ... ... : C-4 01 4 ... ... ... : ... .. . P95 ... ...
ROW C7 : ... .. . ... ... ... : ... .. . ... ... ... : ... .. . ... ... ... : 9-# 01 . ... ... ... : ... .. . ... ... ... : ... .. . ... ... ... : D-1 00 . PA6 ... ...
ROW C8 : ... .. . ... ... ... : ... .. 6 ... ... ... : ... .. . ... ... ... : 9-# 00 . ... ... ... : ... .. . ... ... ... : C-4 02 . ... ... ... : ... .. 5 P92 ... ...
ROW C9 : F-4 00 4 ... ... ... : F-2 00 9 ... ... ... : F-3 00 . ... ... ... : E-# 00 7 ... ... ... : ... .. . ... ... ... : C-4 01 5 ... ... ... : ... .. . P7F ... ...
ROW CA : ... .. . ... ... ... : ... .. . ... ... ... : F-2 00 . ... ... ... : B-# 01 . ... ... ... : ... .. . ... ... ... : ... .. . ... ... ... : ... .. . P6B ... ...
ROW CB : ... .. . ... ... ... : F#1 00 8 ... ... ... : ... .. . ... ... ... : C-# 00 6 ... ... ... : ... .. . ... ... ... : A-3 01 4 ... ... ... : E-1 00 6 ... ... ...
ROW CC : ... .. . ... ... ... : F-1 00 . ... ... ... : ... .. . ... ... ... : D-# 00 5 ... ... ... : ... .. . ... ... ... : ... .. . ... ... ... : D#1 00 . PA8 ... ...
ROW CD : ... .. . ... ... ... : ... .. . ... ... ... : ... .. . ... ... ... : C-# 00 4 ... ... ... : ... .. . ... ... ... : A-3 02 . ... ... ... : ... .. . P95 ... ...
ROW CE : ... .. . ... ... ... : ... .. 7 ... ... ... : ... .. . ... ... ... : D-# 00 . ... ... ... : ... .. . ... ... ... : ... .. . ... ... ... : ... .. . P81 ... ...
ROW CF : ... .. 3 ... ... ... : ... .. 8 ... ... ... : --- .. . ... ... ... : E-# 00 5 ... ... ... : ... .. . ... ... ... : G#3 01 5 ... ... ... : ... .. 5 P6E ... ...
ROW D0 : ... .. . ... ... ... : ... .. 7 ... ... ... : ... .. . ... ... ... : B-# 01 . ... ... ... : ... .. . ... ... ... : ... .. . ... ... ... : ... .. . P5A ... ...
ROW D1 : ... .. . ... ... ... : ... .. . ... ... ... : ... .. . ... ... ... : C-# 00 4 ... ... ... : ... .. . ... ... ... : F-3 01 4 ... ... ... : A-0 00 . P9D ... ...
ROW D2 : ... .. . ... ... ... : ... .. 6 ... ... ... : ... .. . ... ... ... : D-# 00 3 ... ... ... : ... .. . ... ... ... : ... .. . ... ... ... : ... .. . P89 ... ...
ROW D3 : ... .. . ... ... ... : ... .. 5 ... ... ... : ... .. . ... ... ... : C-# 00 . ... ... ... : ... .. . ... ... ... : F-3 02 . ... ... ... : ... .. . P82 ... ...
ROW D4 : G#4 02 9 ... ... ... : A#1 02 7 ... ... ... : E-4 00 . ... ... ... : D-# 00 6 ... ... ... : ... .. . ... ... ... : F-4 01 6 ... ... ... : A-2 00 4 P8B ... ...
ROW D5 : ... .. . ... ... ... : ... .. . ... ... ... : A#3 00 . P87 ... ... : 3-# 01 9 ... ... ... : ... .. . ... ... ... : ... .. . ... ... ... : ... .. 5 P78 ... ...
ROW D6 : ... .. A ... ... ... : B-0 02 . ... ... ... : A#1 00 . P80 ... ... : 2-# 01 7 ... ... ... : ... .. . ... ... ... : ... .. 5 ... ... ... : G#2 00 . P84 ... ...
ROW D7 : ... .. . ... ... ... : A#0 02 . ... ... ... : ... .. . ... ... ... : 2-# 00 6 ... ... ... : ... .. . ... ... ... : F-3 01 . ... ... ... : ... .. 6 P71 ... ...
ROW D8 : G#4 00 . ... ... ... : ... .. . ... ... ... : ... .. . ... ... ... : 1-# 00 . ... ... ... : ... .. . ... ... ... : F-3 02 . ... ... ... : G-2 00 . P7E ... ...
ROW D9 : ... .. . ... ... ... : ... .. . ... ... ... : --- .. . ... ... ... : ... .. 5 ... ... ... : ... .. . ... ... ... : ... .. . ... ... ... : F#2 00 7 P8D ... ...
ROW DA : ... .. 9 ... ... ... : ... .. 8 ... ... ... : ... .. . ... ... ... : ... .. 4 ... ... ... : ... .. . ... ... ... : ... .. . ... ... ... : G-3 00 . P7E ... ...
ROW DB : ... .. . ... ... ... : ... .. 7 ... ... ... : ... .. . ... ... ... : ... .. . ... ... ... : ... .. . ... ... ... : ... .. . ... ... ... : F#3 00 . P7C ... ...
ROW DC : ... .. . ... ... ... : ... .. . ... ... ... : ... .. . ... ... ... : ... .. 3 ... ... ... : ... .. . ... ... ... : ... .. 4 ... ... ... : F-3 00 8 P7B ... ...
ROW DD : ... .. . ... ... ... : ... .. 6 ... ... ... : ... .. . ... ... ... : ... .. . ... ... ... : ... .. . ... ... ... : ... .. . ... ... ... : E-3 00 . ... ... ...
ROW DE : ... .. . ... ... ... : A#1 01 9 ... ... ... : A#2 00 . ... ... ... : E-# 00 7 ... ... ... : ... .. . ... ... ... : ... .. . ... ... ... : B-7 00 . P84 ... ...
ROW DF : ... .. . P81 ... ... : ... .. . ... ... ... : A#1 00 . ... ... ... : B-# 01 . ... ... ... : ... .. . ... ... ... : ... .. 3 ... ... ... : A#6 00 . P81 ... ...
ROW E0 : ... .. . P82 ... ... : B-0 01 8 ... ... ... : ... .. . ... ... ... : C-# 00 6 ... ... ... : ... .. . ... ... ... : ... .. . ... ... ... : D-6 00 . P80 ... ...
ROW E1 : ... .. . ... ... ... : A#0 01 . ... ... ... : ... .. . ... ... ... : D-# 00 5 ... ... ... : ... .. . ... ... ... : ... .. . ... ... ... : G#5 00 7 ... ... ...
ROW E2 : ... .. . P83 ... ... : ... .. . ... ... ... : ... .. . ... ... ... : C-# 00 4 ... ... ... : ... .. . ... ... ... : ... .. 2 ... ... ... : E-5 00 . P7F ... ...
ROW E3 : ... .. . ... ... ... : ... .. 7 ... ... ... : --- .. . ... ... ... : E-# 00 2 ... ... ... : ... .. . ... ... ... : ... .. . ... ... ... : C-5 00 . P82 ... ...
ROW E4 : ... .. . P84 ... ... : ... .. 8 ... ... ... : ... .. . ... ... ... : B-# 01 . ... ... ... : ... .. . ... ... ... : ... .. . ... ... ... : C#2 00 . P86 ... ...
ROW E5 : ... .. . ... ... ... : ... .. 7 ... ... ... : ... .. . ... ... ... : C-# 00 . ... ... ... : ... .. . ... ... ... : ... .. 1 ... ... ... : ... .. 6 P73 ... ...
ROW E6 : F#4 00 4 P80 ... ... : ... .. . ... ... ... : ... .. . ... ... ... : D-# 00 . ... ... ... : ... .. . ... ... ... : ... .. . ... ... ... : C-2 00 . P90 ... ...
ROW E7 : ... .. . ... ... ... : ... .. 6 ... ... ... : ... .. . ... ... ... : C-# 00 1 ... ... ... : ... .. . ... ... ... : ... .. . ... ... ... : ... .. . P7D ... ...
ROW E8 : ... .. . ... ... ... : ... .. 5 ... ... ... : ... .. . ... ... ... : D-# 00 . ... ... ... : ... .. . ... ... ... : ... .. . ... ... ... : ... .. . P6A ... ...
ROW E9 : F#4 02 9 ... ... ... : A#1 00 7 ... ... ... : C-4 00 . P7F ... ... : A-# 00 A ... ... ... : ... .. . ... ... ... : E-3 01 4 ... ... ... : B-1 00 4 P8A ... ...
ROW EA : ... .. . ... ... ... : ... .. . ... ... ... : ... .. . ... ... ... : 5-# 01 9 ... ... ... : ... .. . ... ... ... : ... .. . ... ... ... : F#2 00 . P8E ... ...
ROW EB : ... .. . ... ... ... : B-0 00 . ... ... ... : A#1 00 . P80 ... ... : 6-# 01 8 ... ... ... : ... .. . ... ... ... : C#3 01 3 ... ... ... : ... .. . P7B ... ...
ROW EC : ... .. . ... ... ... : A#0 00 . ... ... ... : ... .. . ... ... ... : 7-# 01 7 ... ... ... : ... .. . ... ... ... : ... .. . ... ... ... : F-2 00 . P8C ... ...
ROW ED : F#4 00 . ... ... ... : ... .. . ... ... ... : ... .. . ... ... ... : 8-# 01 . ... ... ... : ... .. . ... ... ... : C#3 02 . ... ... ... : ... .. . P79 ... ...
ROW EE : ... .. A ... ... ... : ... .. . ... ... ... : --- .. . ... ... ... : 9-# 00 . ... ... ... : ... .. . ... ... ... : G#3 01 5 ... ... ... : F-3 00 . P86 ... ...
ROW EF : ... .. 9 ... ... ... : ... .. . ... ... ... : ... .. . ... ... ... : 9-# 01 . ... ... ... : ... .. . ... ... ... : ... .. . ... ... ... : E-3 00 . ... ... ...
ROW F0 : ... .. . ... ... ... : ... .. . ... ... ... : ... .. . ... ... ... : 9-# 00 6 ... ... ... : ... .. . ... ... ... : F-3 01 4 ... ... ... : D#3 00 . P88 ... ...
ROW F1 : ... .. . ... ... ... : ... .. 6 ... ... ... : ... .. . ... ... ... : 9-# 01 . ... ... ... : ... .. . ... ... ... : ... .. . ... ... ... : D-3 00 . P8A ... ...
ROW F2 : ... .. . ... ... ... : ... .. 5 ... ... ... : ... .. . ... ... ... : 9-# 00 . ... ... ... : ... .. . ... ... ... : F-3 02 . ... ... ... : ... .. . P77 ... ...
ROW F3 : ... .. . ... ... ... : A#1 02 9 ... ... ... : A#2 00 . ... ... ... : E-# 00 7 ... ... ... : ... .. . ... ... ... : C#4 01 5 ... ... ... : C#3 00 . P7B ... ...
ROW F4 : ... .. . ... ... ... : ... .. . ... ... ... : A#1 00 . ... ... ... : B-# 01 . ... ... ... : ... .. . ... ... ... : ... .. . ... ... ... : G#1 00 . P64 ... ...
ROW F5 : G#4 00 4 ... ... ... : B-0 02 8 ... ... ... : ... .. . ... ... ... : C-# 00 6 ... ... ... : ... .. . ... ... ... : A#3 01 4 ... ... ... : G-1 00 5 P91 ... ...
ROW F6 : ... .. . ... ... ... : A#0 02 . ... ... ... : ... .. . ... ... ... : D-# 00 5 ... ... ... : ... .. . ... ... ... : ... .. . ... ... ... : ... .. . P7E ... ...
ROW F7 : ... .. . ... ... ... : ... .. . ... ... ... : ... .. . ... ... ... : C-# 00 4 ... ... ... : ... .. . ... ... ... : A#3 02 . ... ... ... : ... .. . P6B ... ...
ROW F8 : ... .. . ... ... ... : ... .. 7 ... ... ... : --- .. . ... ... ... : E-# 00 5 ... ... ... : ... .. . ... ... ... : E-4 01 5 ... ... ... : F#1 00 6 P9C ... ...
ROW F9 : ... .. . ... ... ... : ... .. 8 ... ... ... : ... .. . ... ... ... : B-# 01 . ... ... ... : ... .. . ... ... ... : ... .. . ... ... ... : ... .. . P89 ... ...
ROW FA : ... .. . ... ... ... : ... .. 7 ... ... ... : ... .. . ... ... ... : C-# 00 4 ... ... ... : ... .. . ... ... ... : C#4 01 4 ... ... ... : B-1 00 . P8B ... ...
ROW FB : ... .. 3 ... ... ... : ... .. . ... ... ... : ... .. . ... ... ... : D-# 00 3 ... ... ... : ... .. . ... ... ... : ... .. . ... ... ... : ... .. . P78 ... ...
ROW FC : ... .. . ... ... ... : ... .. 6 ... ... ... : ... .. . ... ... ... : C-# 00 . ... ... ... : ... .. . ... ... ... : C#4 02 . ... ... ... : A#1 00 5 P9B ... ...
ROW FD : F-4 02 A ... ... ... : A#1 00 9 ... ... ... : A#2 00 . ... ... ... : E-# 00 7 ... ... ... : ... .. . ... ... ... : G#4 01 5 ... ... ... : ... .. . P88 ... ...
ROW FE : ... .. . ... ... ... : ... .. . ... ... ... : A#1 00 . ... ... ... : B-# 01 . ... ... ... : ... .. . ... ... ... : ... .. . ... ... ... : F#2 00 . P73 ... ...
ROW FF : ... .. . ... ... ... : B-0 00 8 ... ... ... : ... .. . ... ... ... : C-# 00 6 ... ... ... : ... .. . ... ... ... : F-4 01 4 ... ... ... : F-2 00 . P84 ... ...

PATTERN 06
ROW 00 : ... .. . ... ... ... : A#0 00 . ... ... ... : ... .. . ... ... ... : D-# 00 5 ... ... ... : ... .. . ... ... ... : ... .. . ... ... ... : ... .. . P71 ... ...
ROW 01 : F-4 00 . ... ... ... : ... .. . ... ... ... : ... .. . ... ... ... : C-# 00 4 ... ... ... : ... .. . ... ... ... : F-4 02 . ... ... ... : E-2 00 4 P84 ... ...
ROW 02 : ... .. . ... ... ... : ... .. 7 ... ... ... : --- .. . ... ... ... : E-# 00 5 ... ... ... : ... .. . ... ... ... : E-4 01 5 ... ... ... : ... .. . P71 ... ...
ROW 03 : ... .. 9 ... ... ... : ... .. 8 ... ... ... : ... .. . ... ... ... : B-# 01 . ... ... ... : ... .. . ... ... ... : ... .. . ... ... ... : D#2 00 . P86 ... ...
ROW 04 : ... .. . ... ... ... : ... .. 7 ... ... ... : ... .. . ... ... ... : C-# 00 4 ... ... ... : ... .. . ... ... ... : C#4 01 4 ... ... ... : D#1 00 . P9D ... ...
ROW 05 : ... .. . ... ... ... : ... .. . ... ... ... : ... .. . ... ... ... : D-# 00 3 ... ... ... : ... .. . ... ... ... : ... .. . ... ... ... : ... .. . P8A ... ...
ROW 06 : ... .. . ... ... ... : ... .. 6 ... ... ... : ... .. . ... ... ... : C-# 00 . ... ... ... : ... .. . ... ... ... : C#4 02 . ... ... ... : ... .. . P77 ... ...
ROW 07 : ... .. . ... ... ... : ... .. 5 ... ... ... : ... .. . ... ... ... : D-# 00 . ... ... ... : ... .. . ... ... ... : ... .. . ... ... ... : ... .. . P64 ... ...
ROW 08 : ... .. 8 ... ... ... : A#1 01 7 ... ... ... : E-4 00 . ... ... ... : ... .. 6 ... ... ... : ... .. . ... ... ... : C#4 01 . ... ... ... : D-1 00 . PA7 ... ...
ROW 09 : ... .. . P81 ... ... : ... .. . ... ... ... : A#3 00 . P87 ... ... : 3-# 01 9 ... ... ... : ... .. . ... ... ... : ... .. . ... ... ... : ... .. . P94 ... ...
ROW 0A : ... .. 9 P82 ... ... : B-0 01 . ... ... ... : A#1 00 . P80 ... ... : 2-# 01 7 ... ... ... : ... .. . ... ... ... : A#3 01 3 ... ... ... : F#1 00 . P8A ... ...
ROW 0B : ... .. . ... ... ... : A#0 01 . ... ... ... : ... .. . ... ... ... : 2-# 00 6 ... ... ... : ... .. . ... ... ... : ... .. . ... ... ... : ... .. 5 P77 ... ...
ROW 0C : ... .. . P83 ... ... : ... .. . ... ... ... : ... .. . ... ... ... : 1-# 00 . ... ... ... : ... .. . ... ... ... : A#3 02 . ... ... ... : ... .. . P64 ... ...
ROW 0D : ... .. . ... ... ... : ... .. . ... ... ... : --- .. . ... ... ... : E-# 00 2 ... ... ... : ... .. . ... ... ... : B-3 01 5 ... ... ... : F-1 00 6 P99 ... ...
ROW 0E : ... .. . P84 ... ... : ... .. 8 ... ... ... : ... .. . ... ... ... : B-# 01 . ... ... ... : ... .. . ... ... ... : ... .. . ... ... ... : B-1 00 . P70 ... ...
ROW 0F : F#4 00 4 P80 ... ... : ... .. 7 ... ... ... : ... .. . ... ... ... : C-# 00 . ... ... ... : ... .. . ... ... ... : G#3 01 4 ... ... ... : A#1 00 5 P93 ... ...
ROW 10 : ... .. . ... ... ... : ... .. 6 ... ... ... : ... .. . ... ... ... : D-# 00 . ... ... ... : ... .. . ... ... ... : ... .. . ... ... ... : ... .. . P80 ... ...
ROW 11 : ... .. . ... ... ... : ... .. 5 ... ... ... : ... .. . ... ... ... : C-# 00 1 ... ... ... : ... .. . ... ... ... : G#3 02 . ... ... ... : ... .. . P6D ... ...
ROW 12 : D#4 02 9 ... ... ... : A#1 02 7 ... ... ... : C-4 00 . P7F ... ... : A-# 00 A ... ... ... : ... .. . ... ... ... : E-4 01 . ... ... ... : A-1 00 4 P93 ... ...
ROW 13 : ... .. . ... ... ... : ... .. . ... ... ... : ... .. . ... ... ... : 5-# 01 9 ... ... ... : ... .. . ... ... ... : ... .. . ... ... ... : ... .. . P80 ... ...
ROW 14 : ... .. . ... ... ... : B-0 02 6 ... ... ... : A#2 00 . P88 ... ... : 6-# 01 8 ... ... ... : ... .. . ... ... ... : C#4 01 3 ... ... ... : C-1 00 3 P7D ... ...
ROW 15 : ... .. . ... ... ... : A#0 02 7 ... ... ... : A#1 00 . P80 ... ... : 7-# 01 7 ... ... ... : ... .. . ... ... ... : ... .. . ... ... ... : ... .. . P6A ... ...
ROW 16 : D#4 00 . ... ... ... : ... .. . ... ... ... : ... .. . ... ... ... : 8-# 01 . ... ... ... : ... .. . ... ... ... : C#4 02 . ... ... ... : ... .. . P57 ... ...
ROW 17 : ... .. A ... ... ... : ... .. . ... ... ... : --- .. . ... ... ... : 9-# 00 . ... ... ... : ... .. . ... ... ... : C#4 01 5 ... ... ... : B-0 00 4 PAA ... ...
ROW 18 : ... .. 9 ... ... ... : ... .. . ... ... ... : ... .. . ... ... ... : 9-# 01 . ... ... ... : ... .. . ... ... ... : ... .. . ... ... ... : ... .. . P97 ... ...
ROW 19 : ... .. . ... ... ... : ... .. . ... ... ... : ... .. . ... ... ... : 9-# 00 6 ... ... ... : ... .. . ... ... ... : A#3 01 4 ... ... ... : ... .. . P84 ... ...
ROW 1A : ... .. . ... ... ... : ... .. . ... ... ... : ... .. . ... ... ... : 9-# 01 . ... ... ... : ... .. . ... ... ... : ... .. . ... ... ... : D-1 00 . P95 ... ...
ROW 1B : ... .. . ... ... ... : ... .. 6 ... ... ... : ... .. . ... ... ... : 9-# 00 . ... ... ... : ... .. . ... ... ... : A#3 02 . ... ... ... : ... .. 5 P82 ... ...
ROW 1C : ... .. . ... ... ... : A#1 00 9 ... ... ... : A#2 00 . ... ... ... : E-# 00 7 ... ... ... : ... .. . ... ... ... : B-3 01 5 ... ... ... : ... .. . P6F ... ...
ROW 1D : ... .. . ... ... ... : ... .. . ... ... ... : A#1 00 . ... ... ... : B-# 01 . ... ... ... : ... .. . ... ... ... : ... .. . ... ... ... : ... .. . P5C ... ...
ROW 1E : ... .. . ... ... ... : B-0 00 8 ... ... ... : ... .. . ... ... ... : C-# 00 6 ... ... ... : ... .. . ... ... ... : G#3 01 4 ... ... ... : F#1 00 6 P6F ... ...
ROW 1F : F-4 00 4 ... ... ... : A#0 00 . ... ... ... : ... .. . ... ... ... : D-# 00 5 ... ... ... : ... .. . ... ... ... : ... .. . ... ... ... : F-1 00 . PA4 ... ...
ROW 20 : ... .. . ... ... ... : ... .. . ... ... ... : ... .. . ... ... ... : C-# 00 4 ... ... ... : ... .. . ... ... ... : G#3 02 . ... ... ... : ... .. . P91 ... ...
ROW 21 : ... .. . ... ... ... : ... .. 7 ... ... ... : ... .. . ... ... ... : D-# 00 . ... ... ... : ... .. . ... ... ... : ... .. . ... ... ... : ... .. . P7E ... ...
ROW 22 : ... .. . ... ... ... : ... .. 8 ... ... ... : --- .. . ... ... ... : E-# 00 5 ... ... ... : ... .. . ... ... ... : G#3 01 5 ... ... ... : ... .. 5 P6B ... ...
ROW 23 : ... .. . ... ... ... : ... .. 7 ... ... ... : ... .. . ... ... ... : B-# 01 . ... ... ... : ... .. . ... ... ... : ... .. . ... ... ... : E-1 00 . PA4 ... ...
ROW 24 : ... .. . ... ... ... : ... .. . ... ... ... : ... .. . ... ... ... : C-# 00 4 ... ... ... : ... .. . ... ... ... : F-3 01 4 ... ... ... : A-0 00 . P91 ... ...
ROW 25 : ... .. 3 ... ... ... : ... .. 6 ... ... ... : ... .. . ... ... ... : D-# 00 3 ... ... ... : ... .. . ... ... ... : ... .. . ... ... ... : ... .. . P82 ... ...
ROW 26 : ... .. . ... ... ... : ... .. 5 ... ... ... : ... .. . ... ... ... : C-# 00 . ... ... ... : ... .. . ... ... ... : F-3 02 . ... ... ... : ... .. . ... ... ...
ROW 27 : F-4 02 9 ... ... ... : D-2 02 7 ... ... ... : E-4 00 . ... ... ... : D-# 00 6 ... ... ... : ... .. . ... ... ... : G#4 01 . ... ... ... : A-2 00 4 P8B ... ...
ROW 28 : ... .. . ... ... ... : ... .. . ... ... ... : A#3 00 . P87 ... ... : 3-# 01 9 ... ... ... : ... .. . ... ... ... : ... .. . ... ... ... : ... .. 5 P78 ... ...
ROW 29 : ... .. A ... ... ... : D#1 02 . ... ... ... : D-2 00 . P80 ... ... : 2-# 01 7 ... ... ... : ... .. . ... ... ... : F-4 01 3 ... ... ... : G#2 00 . P84 ... ...
ROW 2A : ... .. . ... ... ... : D-1 02 . ... ... ... : ... .. . ... ... ... : 2-# 00 6 ... ... ... : ... .. . ... ... ... : ... .. . ... ... ... : ... .. 6 P71 ... ...
ROW 2B : F-4 00 . ... ... ... : ... .. . ... ... ... : ... .. . ... ... ... : 1-# 00 . ... ... ... : ... .. . ... ... ... : F-4 02 . ... ... ... : G-2 00 . P7E ... ...
ROW 2C : ... .. . ... ... ... : ... .. . ... ... ... : --- .. . ... ... ... : ... .. 5 ... ... ... : ... .. . ... ... ... : F-4 01 5 ... ... ... : F#2 00 7 P8D ... ...
ROW 2D : ... .. 9 ... ... ... : ... .. 8 ... ... ... : ... .. . ... ... ... : ... .. 4 ... ... ... : ... .. . ... ... ... : ... .. . ... ... ... : D-4 00 . P7F ... ...
ROW 2E : ... .. . ... ... ... : ... .. 7 ... ... ... : ... .. . ... ... ... : ... .. . ... ... ... : ... .. . ... ... ... : D-4 01 4 ... ... ... : C-4 00 . P84 ... ...
ROW 2F : ... .. . ... ... ... : ... .. 6 ... ... ... : ... .. . ... ... ... : ... .. 3 ... ... ... : ... .. . ... ... ... : ... .. . ... ... ... : B-3 00 8 P7D ... ...
ROW 30 : ... .. . ... ... ... : ... .. 5 ... ... ... : ... .. . ... ... ... : ... .. . ... ... ... : ... .. . ... ... ... : D-4 02 . ... ... ... : A-3 00 . P86 ... ...
ROW 31 : ... .. . ... ... ... : D-2 01 9 ... ... ... : D-3 00 . ... ... ... : E-# 00 7 ... ... ... : ... .. . ... ... ... : C#4 01 5 ... ... ... : B-7 00 . P84 ... ...
ROW 32 : ... .. . ... ... ... : ... .. . ... ... ... : D-2 00 . ... ... ... : B-# 01 . ... ... ... : ... .. . ... ... ... : ... .. . ... ... ... : A#6 00 . P81 ... ...
ROW 33 : ... .. . ... ... ... : D#1 01 8 ... ... ... : ... .. . ... ... ... : C-# 00 6 ... ... ... : ... .. . ... ... ... : A#3 01 4 ... ... ... : D-6 00 . P80 ... ...
ROW 34 : ... .. . ... ... ... : D-1 01 . ... ... ... : ... .. . ... ... ... : D-# 00 5 ... ... ... : ... .. . ... ... ... : ... .. . ... ... ... : G#5 00 7 ... ... ...
ROW 35 : ... .. . ... ... ... : ... .. . ... ... ... : ... .. . ... ... ... : C-# 00 4 ... ... ... : ... .. . ... ... ... : A#3 02 . ... ... ... : E-5 00 . P7F ... ...
ROW 36 : ... .. . ... ... ... : ... .. 7 ... ... ... : --- .. . ... ... ... : E-# 00 2 ... ... ... : ... .. . ... ... ... : B-3 01 5 ... ... ... : C-5 00 . P82 ... ...
ROW 37 : ... .. . ... ... ... : ... .. 8 ... ... ... : ... .. . ... ... ... : B-# 01 . ... ... ... : ... .. . ... ... ... : ... .. . ... ... ... : C#2 00 . P86 ... ...
ROW 38 : ... .. . ... ... ... : ... .. 7 ... ... ... : ... .. . ... ... ... : C-# 00 . ... ... ... : ... .. . ... ... ... : G#3 01 4 ... ... ... : ... .. 6 P73 ... ...
ROW 39 : ... .. . ... ... ... : ... .. . ... ... ... : ... .. . ... ... ... : D-# 00 . ... ... ... : ... .. . ... ... ... : ... .. . ... ... ... : C-2 00 . P90 ... ...
ROW 3A : ... .. . ... ... ... : ... .. 6 ... ... ... : ... .. . ... ... ... : C-# 00 1 ... ... ... : ... .. . ... ... ... : G#3 02 . ... ... ... : ... .. . P7D ... ...
ROW 3B : ... .. 8 ... ... ... : D-2 00 7 ... ... ... : C-4 00 . P7F ... ... : A-# 00 A ... ... ... : ... .. . ... ... ... : F-4 01 . ... ... ... : ... .. 4 P6A ... ...
ROW 3C : ... .. . P81 ... ... : ... .. . ... ... ... : ... .. . ... ... ... : 5-# 01 9 ... ... ... : ... .. . ... ... ... : ... .. . ... ... ... : B-1 00 . P8A ... ...
ROW 3D : ... .. . P82 ... ... : D#1 00 6 ... ... ... : A#2 00 . P88 ... ... : 6-# 01 8 ... ... ... : ... .. . ... ... ... : D-4 01 3 ... ... ... : A-2 00 . P8D ... ...
ROW 3E : ... .. . ... ... ... : D-1 00 7 ... ... ... : D-2 00 . P80 ... ... : 7-# 01 7 ... ... ... : ... .. . ... ... ... : ... .. . ... ... ... : ... .. . P7A ... ...
ROW 3F : ... .. . P83 ... ... : ... .. . ... ... ... : ... .. . ... ... ... : 8-# 01 . ... ... ... : ... .. . ... ... ... : D-4 02 . ... ... ... : G#2 00 . P86 ... ...
ROW 40 : ... .. . ... ... ... : ... .. 6 ... ... ... : ... .. . ... ... ... : 9-# 00 . ... ... ... : ... .. . ... ... ... : ... .. . ... ... ... : ... .. . P73 ... ...
ROW 41 : ... .. 9 P84 ... ... : ... .. 7 ... ... ... : --- .. . ... ... ... : 9-# 01 . ... ... ... : ... .. . ... ... ... : C#4 01 5 ... ... ... : F-3 00 . P86 ... ...
ROW 42 : ... .. . ... ... ... : ... .. . ... ... ... : ... .. . ... ... ... : 9-# 00 6 ... ... ... : ... .. . ... ... ... : ... .. . ... ... ... : E-3 00 . ... ... ...
ROW 43 : ... .. . ... ... ... : ... .. . ... ... ... : ... .. . ... ... ... : 9-# 01 . ... ... ... : ... .. . ... ... ... : A#3 01 4 ... ... ... : D#3 00 . P88 ... ...
ROW 44 : ... .. . ... ... ... : ... .. 6 ... ... ... : ... .. . ... ... ... : 9-# 00 . ... ... ... : ... .. . ... ... ... : ... .. . ... ... ... : D-3 00 . P8A ... ...
ROW 45 : ... .. . ... ... ... : ... .. 5 ... ... ... : ... .. . ... ... ... : ... .. . ... ... ... : ... .. . ... ... ... : A#3 02 . ... ... ... : ... .. . P77 ... ...
ROW 46 : ... .. . P83 ... ... : D-2 02 9 ... ... ... : D-3 00 . ... ... ... : E-# 00 7 ... ... ... : ... .. . ... ... ... : B-3 01 5 ... ... ... : C#3 00 . P7B ... ...
ROW 47 : ... .. 8 ... ... ... : ... .. . ... ... ... : D-2 00 . ... ... ... : B-# 01 . ... ... ... : ... .. . ... ... ... : ... .. . ... ... ... : G#1 00 . P64 ... ...
ROW 48 : ... .. . P82 ... ... : D#1 02 8 ... ... ... : ... .. . ... ... ... : C-# 00 6 ... ... ... : ... .. . ... ... ... : G#3 01 4 ... ... ... : G-1 00 5 P91 ... ...
ROW 49 : ... .. . ... ... ... : D-1 02 . ... ... ... : ... .. . ... ... ... : D-# 00 5 ... ... ... : ... .. . ... ... ... : ... .. . ... ... ... : ... .. . P7E ... ...
ROW 4A : ... .. . P81 ... ... : ... .. . ... ... ... : ... .. . ... ... ... : C-# 00 4 ... ... ... : ... .. . ... ... ... : G#3 02 . ... ... ... : ... .. . P6B ... ...
ROW 4B : ... .. . P80 ... ... : ... .. 7 ... ... ... : --- .. . ... ... ... : E-# 00 5 ... ... ... : ... .. . ... ... ... : G#3 01 5 ... ... ... : F#1 00 6 P9C ... ...
ROW 4C : ... .. . P7F ... ... : ... .. 8 ... ... ... : ... .. . ... ... ... : B-# 01 . ... ... ... : ... .. . ... ... ... : ... .. . ... ... ... : ... .. . P89 ... ...
ROW 4D : ... .. . P7E ... ... : ... .. 7 ... ... ... : ... .. . ... ... ... : C-# 00 4 ... ... ... : ... .. . ... ... ... : F-3 01 4 ... ... ... : C#2 00 . P88 ... ...
ROW 4E : ... .. . ... ... ... : ... .. . ... ... ... : ... .. . ... ... ... : D-# 00 3 ... ... ... : ... .. . ... ... ... : ... .. . ... ... ... : ... .. . P75 ... ...
ROW 4F : ... .. . P7D ... ... : ... .. 6 ... ... ... : ... .. . ... ... ... : C-# 00 . ... ... ... : ... .. . ... ... ... : F-3 02 . ... ... ... : C-2 00 5 P92 ... ...
ROW 50 : D-4 02 A P80 ... ... : D-2 00 9 ... ... ... : D-3 00 . ... ... ... : E-# 00 7 ... ... ... : ... .. . ... ... ... : C#4 01 5 ... ... ... : ... .. . P7F ... ...
ROW 51 : ... .. . ... ... ... : ... .. . ... ... ... : D-2 00 . ... ... ... : B-# 01 . ... ... ... : ... .. . ... ... ... : ... .. . ... ... ... : F#2 00 . P73 ... ...
ROW 52 : ... .. . ... ... ... : D#1 00 8 ... ... ... : ... .. . ... ... ... : C-# 00 6 ... ... ... : ... .. . ... ... ... : A#3 01 4 ... ... ... : F-2 00 . P84 ... ...
ROW 53 : ... .. . ... ... ... : D-1 00 . ... ... ... : ... .. . ... ... ... : D-# 00 5 ... ... ... : ... .. . ... ... ... : ... .. . ... ... ... : ... .. . P71 ... ...
ROW 54 : D-4 00 . ... ... ... : ... .. . ... ... ... : ... .. . ... ... ... : C-# 00 4 ... ... ... : ... .. . ... ... ... : A#3 02 . ... ... ... : E-2 00 4 P84 ... ...
ROW 55 : ... .. . ... ... ... : ... .. 7 ... ... ... : --- .. . ... ... ... : E-# 00 5 ... ... ... : ... .. . ... ... ... : B-3 01 5 ... ... ... : ... .. . P71 ... ...
ROW 56 : ... .. 9 ... ... ... : ... .. 8 ... ... ... : ... .. . ... ... ... : B-# 01 . ... ... ... : ... .. . ... ... ... : ... .. . ... ... ... : D#2 00 . P86 ... ...
ROW 57 : ... .. . ... ... ... : ... .. 7 ... ... ... : ... .. . ... ... ... : C-# 00 4 ... ... ... : ... .. . ... ... ... : G#3 01 4 ... ... ... : D#1 00 . P9D ... ...
ROW 58 : ... .. . ... ... ... : ... .. . ... ... ... : ... .. . ... ... ... : D-# 00 3 ... ... ... : ... .. . ... ... ... : ... .. . ... ... ... : ... .. . P8A ... ...
ROW 59 : ... .. . ... ... ... : ... .. 6 ... ... ... : ... .. . ... ... ... : C-# 00 . ... ... ... : ... .. . ... ... ... : G#3 02 . ... ... ... : ... .. . P77 ... ...
ROW 5A : ... .. 8 ... ... ... : D-3 00 7 ... ... ... : E-4 00 . ... ... ... : D-# 00 6 ... ... ... : ... .. . ... ... ... : G#3 01 . ... ... ... : ... .. 3 P64 ... ...
ROW 5B : ... .. . P82 ... ... : ... .. . ... ... ... : A#3 00 . P87 ... ... : 3-# 01 9 ... ... ... : ... .. . ... ... ... : ... .. . ... ... ... : D-1 00 4 PA7 ... ...
ROW 5C : ... .. . P83 ... ... : D#2 00 6 ... ... ... : F#3 00 . P86 ... ... : 2-# 01 7 ... ... ... : ... .. . ... ... ... : F-3 01 3 ... ... ... : ... .. . P94 ... ...
ROW 5D : ... .. 9 P85 ... ... : D-2 00 7 ... ... ... : D-3 00 . P80 ... ... : 2-# 00 6 ... ... ... : ... .. . ... ... ... : ... .. . ... ... ... : G#1 00 . P66 ... ...
ROW 5E : D#4 00 . P7C ... ... : ... .. . ... ... ... : ... .. . ... ... ... : 1-# 00 . ... ... ... : ... .. . ... ... ... : F-3 02 . ... ... ... : G-1 00 5 P93 ... ...
ROW 5F : ... .. . P7D ... ... : ... .. 6 ... ... ... : ... .. . ... ... ... : ... .. 5 ... ... ... : ... .. . ... ... ... : ... .. . ... ... ... : ... .. . P80 ... ...
ROW 60 : ... .. . P7E ... ... : D-2 01 8 ... ... ... : --- .. . ... ... ... : E-# 00 2 ... ... ... : ... .. . ... ... ... : F-3 01 5 ... ... ... : ... .. 6 P6D ... ...
ROW 61 : ... .. . P7F ... ... : ... .. 7 ... ... ... : ... .. . ... ... ... : B-# 01 . ... ... ... : ... .. . ... ... ... : ... .. . ... ... ... : B-1 00 . P70 ... ...
ROW 62 : ... .. . ... ... ... : ... .. . ... ... ... : ... .. . ... ... ... : C-# 00 . ... ... ... : ... .. . ... ... ... : D-3 01 4 ... ... ... : A#1 00 5 P93 ... ...
ROW 63 : ... .. . ... ... ... : ... .. 6 ... ... ... : ... .. . ... ... ... : D-# 00 . ... ... ... : ... .. . ... ... ... : ... .. . ... ... ... : ... .. . P80 ... ...
ROW 64 : ... .. . P7E ... ... : ... .. 5 ... ... ... : ... .. . ... ... ... : C-# 00 1 ... ... ... : ... .. . ... ... ... : D-3 02 . ... ... ... : ... .. . P6D ... ...
ROW 65 : ... .. 8 P7D ... ... : D-2 02 7 ... ... ... : C-4 00 . P7F ... ... : A-# 00 A ... ... ... : ... .. . ... ... ... : C#3 01 . ... ... ... : A-1 00 4 P93 ... ...
ROW 66 : ... .. . P7C ... ... : ... .. . ... ... ... : ... .. . ... ... ... : 5-# 01 9 ... ... ... : ... .. . ... ... ... : ... .. . ... ... ... : ... .. . P80 ... ...
ROW 67 : D-4 00 . P85 ... ... : D#1 02 . ... ... ... : D-2 00 . P80 ... ... : 6-# 01 8 ... ... ... : ... .. . ... ... ... : A#2 01 3 ... ... ... : C-1 00 3 P7D ... ...
ROW 68 : ... .. . P83 ... ... : D-1 02 . ... ... ... : ... .. . ... ... ... : 7-# 01 7 ... ... ... : ... .. . ... ... ... : ... .. . ... ... ... : ... .. . P6A ... ...
ROW 69 : ... .. . P82 ... ... : ... .. . ... ... ... : ... .. . ... ... ... : 8-# 01 . ... ... ... : ... .. . ... ... ... : A#2 02 . ... ... ... : ... .. . P57 ... ...
ROW 6A : ... .. 9 P80 ... ... : ... .. . ... ... ... : --- .. . ... ... ... : 9-# 00 . ... ... ... : ... .. . ... ... ... : F-3 01 5 ... ... ... : B-0 00 4 PAA ... ...
ROW 6B : ... .. . P7E ... ... : ... .. . ... ... ... : ... .. . ... ... ... : 9-# 01 . ... ... ... : ... .. . ... ... ... : ... .. . ... ... ... : ... .. . P97 ... ...
ROW 6C : ... .. . P7D ... ... : ... .. . ... ... ... : ... .. . ... ... ... : 9-# 00 6 ... ... ... : ... .. . ... ... ... : D-3 01 4 ... ... ... : ... .. . P84 ... ...
ROW 6D : ... .. . P7B ... ... : ... .. . ... ... ... : ... .. . ... ... ... : 9-# 01 . ... ... ... : ... .. . ... ... ... : ... .. . ... ... ... : D#1 00 . P9F ... ...
ROW 6E : C#4 00 . P86 ... ... : ... .. 6 ... ... ... : ... .. . ... ... ... : 9-# 00 . ... ... ... : ... .. . ... ... ... : D-3 02 . ... ... ... : ... .. 5 P8C ... ...
ROW 6F : ... .. . P85 ... ... : D-2 01 9 ... ... ... : D-3 00 . ... ... ... : E-# 00 7 ... ... ... : ... .. . ... ... ... : G#3 01 5 ... ... ... : ... .. . P79 ... ...
ROW 70 : ... .. 8 P84 ... ... : ... .. . ... ... ... : D-2 00 . ... ... ... : B-# 01 . ... ... ... : ... .. . ... ... ... : ... .. . ... ... ... : ... .. . P66 ... ...
ROW 71 : ... .. . P83 ... ... : D#1 01 8 ... ... ... : ... .. . ... ... ... : C-# 00 6 ... ... ... : ... .. . ... ... ... : F-3 01 4 ... ... ... : F#1 00 6 P6F ... ...
ROW 72 : ... .. . ... ... ... : D-1 01 . ... ... ... : ... .. . ... ... ... : D-# 00 5 ... ... ... : ... .. . ... ... ... : ... .. . ... ... ... : F-1 00 . PA4 ... ...
ROW 73 : ... .. . ... ... ... : ... .. . ... ... ... : ... .. . ... ... ... : C-# 00 4 ... ... ... : ... .. . ... ... ... : F-3 02 . ... ... ... : ... .. . P91 ... ...
ROW 74 : ... .. 7 P84 ... ... : ... .. 7 ... ... ... : --- .. . ... ... ... : E-# 00 5 ... ... ... : ... .. . ... ... ... : C#4 01 5 ... ... ... : ... .. . P7E ... ...
ROW 75 : ... .. . P85 ... ... : ... .. 8 ... ... ... : ... .. . ... ... ... : B-# 01 . ... ... ... : ... .. . ... ... ... : ... .. . ... ... ... : ... .. 5 P6B ... ...
ROW 76 : ... .. 6 P86 ... ... : ... .. 7 ... ... ... : ... .. . ... ... ... : C-# 00 4 ... ... ... : ... .. . ... ... ... : A#3 01 4 ... ... ... : E-1 00 . PA4 ... ...
ROW 77 : D-4 00 . P7B ... ... : ... .. . ... ... ... : ... .. . ... ... ... : D-# 00 3 ... ... ... : ... .. . ... ... ... : ... .. . ... ... ... : A-0 00 . P91 ... ...
ROW 78 : ... .. 5 P7D ... ... : ... .. 6 ... ... ... : ... .. . ... ... ... : C-# 00 . ... ... ... : ... .. . ... ... ... : A#3 02 . ... ... ... : ... .. . P82 ... ...
ROW 79 : ... .. 4 P7E ... ... : ... .. 5 ... ... ... : ... .. . ... ... ... : D-# 00 . ... ... ... : ... .. . ... ... ... : ... .. . ... ... ... : ... .. . ... ... ...
ROW 7A : D#4 02 9 P80 ... ... : D#2 02 7 ... ... ... : E-4 00 . ... ... ... : ... .. 6 ... ... ... : ... .. . ... ... ... : D#4 01 6 ... ... ... : A-2 00 4 P78 ... ...
ROW 7B : ... .. . ... ... ... : ... .. . ... ... ... : A#3 00 . P87 ... ... : 3-# 01 9 ... ... ... : ... .. . ... ... ... : ... .. . ... ... ... : G#2 00 5 P71 ... ...
ROW 7C : ... .. A ... ... ... : E-1 02 . ... ... ... : D#2 00 . P80 ... ... : 2-# 01 7 ... ... ... : ... .. . ... ... ... : ... .. 5 ... ... ... : F#2 00 . P8D ... ...
ROW 7D : ... .. . ... ... ... : D#1 02 . ... ... ... : ... .. . ... ... ... : 2-# 00 6 ... ... ... : ... .. . ... ... ... : D#3 01 . ... ... ... : F-2 00 6 P8B ... ...
ROW 7E : D#4 00 . ... ... ... : ... .. . ... ... ... : ... .. . ... ... ... : 1-# 00 . ... ... ... : ... .. . ... ... ... : D#3 02 . ... ... ... : E-2 00 . ... ... ...
ROW 7F : ... .. . ... ... ... : ... .. . ... ... ... : --- .. . ... ... ... : ... .. 5 ... ... ... : ... .. . ... ... ... : ... .. . ... ... ... : D#2 00 7 P8D ... ...
ROW 80 : ... .. 9 ... ... ... : ... .. 8 ... ... ... : ... .. . ... ... ... : ... .. 4 ... ... ... : ... .. . ... ... ... : ... .. . ... ... ... : A#3 00 . P86 ... ...
ROW 81 : ... .. . ... ... ... : ... .. 7 ... ... ... : ... .. . ... ... ... : ... .. . ... ... ... : ... .. . ... ... ... : ... .. . ... ... ... : G#3 00 . P7D ... ...
ROW 82 : ... .. . ... ... ... : ... .. 6 ... ... ... : ... .. . ... ... ... : ... .. 3 ... ... ... : ... .. . ... ... ... : ... .. 4 ... ... ... : F#3 00 8 P78 ... ...
ROW 83 : ... .. . ... ... ... : ... .. 5 ... ... ... : ... .. . ... ... ... : ... .. . ... ... ... : ... .. . ... ... ... : ... .. . ... ... ... : E-3 00 . P77 ... ...
ROW 84 : ... .. . ... ... ... : D#2 01 9 ... ... ... : D#3 00 . ... ... ... : E-# 00 7 ... ... ... : ... .. . ... ... ... : ... .. . ... ... ... : G-4 00 . P80 ... ...
ROW 85 : ... .. . ... ... ... : ... .. . ... ... ... : D#2 00 . ... ... ... : B-# 01 . ... ... ... : ... .. . ... ... ... : ... .. 3 ... ... ... : D#4 00 . P7F ... ...
ROW 86 : ... .. . ... ... ... : E-1 01 8 ... ... ... : ... .. . ... ... ... : C-# 00 6 ... ... ... : ... .. . ... ... ... : ... .. . ... ... ... : C-4 00 . P7B ... ...
ROW 87 : ... .. . ... ... ... : D#1 01 . ... ... ... : ... .. . ... ... ... : D-# 00 5 ... ... ... : ... .. . ... ... ... : ... .. . ... ... ... : A-3 00 7 P7D ... ...
ROW 88 : ... .. . ... ... ... : ... .. . ... ... ... : ... .. . ... ... ... : C-# 00 4 ... ... ... : ... .. . ... ... ... : ... .. 2 ... ... ... : F#3 00 . P87 ... ...
ROW 89 : ... .. . ... ... ... : ... .. 7 ... ... ... : --- .. . ... ... ... : E-# 00 2 ... ... ... : ... .. . ... ... ... : ... .. . ... ... ... : E-3 00 . P86 ... ...
ROW 8A : ... .. . ... ... ... : ... .. 8 ... ... ... : ... .. . ... ... ... : B-# 01 . ... ... ... : ... .. . ... ... ... : ... .. . ... ... ... : G-1 00 . P91 ... ...
ROW 8B : ... .. . ... ... ... : ... .. 7 ... ... ... : ... .. . ... ... ... : C-# 00 . ... ... ... : ... .. . ... ... ... : ... .. 1 ... ... ... : ... .. 6 P6B ... ...
ROW 8C : ... .. . ... ... ... : ... .. . ... ... ... : ... .. . ... ... ... : D-# 00 . ... ... ... : ... .. . ... ... ... : ... .. . ... ... ... : F#1 00 . P89 ... ...
ROW 8D : ... .. . ... ... ... : ... .. 6 ... ... ... : ... .. . ... ... ... : C-# 00 1 ... ... ... : ... .. . ... ... ... : ... .. . ... ... ... : ... .. . P63 ... ...
ROW 8E : ... .. 8 ... ... ... : D#2 00 7 ... ... ... : C-4 00 . P7F ... ... : A-# 00 A ... ... ... : ... .. . ... ... ... : F#3 01 4 ... ... ... : F-1 00 4 P85 ... ...
ROW 8F : ... .. . P81 ... ... : ... .. . ... ... ... : ... .. . ... ... ... : 5-# 01 9 ... ... ... : ... .. . ... ... ... : ... .. . ... ... ... : ... .. . P5F ... ...
ROW 90 : ... .. . P82 ... ... : E-1 00 6 ... ... ... : A#2 00 . P88 ... ... : 6-# 01 8 ... ... ... : ... .. . ... ... ... : D#3 01 3 ... ... ... : C-2 00 . P8D ... ...
ROW 91 : ... .. . P83 ... ... : D#1 00 7 ... ... ... : D#2 00 . P80 ... ... : 7-# 01 7 ... ... ... : ... .. . ... ... ... : ... .. . ... ... ... : ... .. . P67 ... ...
ROW 92 : ... .. . P84 ... ... : ... .. . ... ... ... : ... .. . ... ... ... : 8-# 01 . ... ... ... : ... .. . ... ... ... : D#3 02 . ... ... ... : B-1 00 . P74 ... ...
ROW 93 : ... .. 9 P85 ... ... : ... .. . ... ... ... : --- .. . ... ... ... : 9-# 00 . ... ... ... : ... .. . ... ... ... : A-3 01 5 ... ... ... : A#1 00 5 P84 ... ...
ROW 94 : E-4 00 . P7C ... ... : ... .. . ... ... ... : ... .. . ... ... ... : 9-# 01 . ... ... ... : ... .. . ... ... ... : ... .. . ... ... ... : D-2 00 4 P8B ... ...
ROW 95 : ... .. . ... ... ... : ... .. . ... ... ... : ... .. . ... ... ... : 9-# 00 6 ... ... ... : ... .. . ... ... ... : F#3 01 4 ... ... ... : C#2 00 . P92 ... ...
ROW 96 : ... .. . ... ... ... : ... .. . ... ... ... : ... .. . ... ... ... : 9-# 01 . ... ... ... : ... .. . ... ... ... : ... .. . ... ... ... : ... .. . P6C ... ...
ROW 97 : ... .. . ... ... ... : ... .. 6 ... ... ... : ... .. . ... ... ... : 9-# 00 . ... ... ... : ... .. . ... ... ... : F#3 02 . ... ... ... : C-2 00 . P76 ... ...
ROW 98 : ... .. . ... ... ... : ... .. 5 ... ... ... : ... .. . ... ... ... : ... .. . ... ... ... : ... .. . ... ... ... : ... .. . ... ... ... : B-1 00 . P83 ... ...
ROW 99 : D#4 00 7 P85 ... ... : D#2 02 9 ... ... ... : D#3 00 . ... ... ... : E-# 00 7 ... ... ... : ... .. . ... ... ... : C#4 01 5 ... ... ... : A#1 00 . P93 ... ...
ROW 9A : ... .. . P84 ... ... : ... .. . ... ... ... : D#2 00 . ... ... ... : B-# 01 . ... ... ... : ... .. . ... ... ... : ... .. . ... ... ... : C-1 00 . P6A ... ...
ROW 9B : ... .. 6 P83 ... ... : E-1 02 8 ... ... ... : ... .. . ... ... ... : C-# 00 6 ... ... ... : ... .. . ... ... ... : A#3 01 4 ... ... ... : B-0 00 5 PAA ... ...
ROW 9C : ... .. . P82 ... ... : D#1 02 . ... ... ... : ... .. . ... ... ... : D-# 00 5 ... ... ... : ... .. . ... ... ... : ... .. . ... ... ... : ... .. . P84 ... ...
ROW 9D : ... .. 5 P81 ... ... : ... .. . ... ... ... : ... .. . ... ... ... : C-# 00 4 ... ... ... : ... .. . ... ... ... : A#3 02 . ... ... ... : ... .. . P5E ... ...
ROW 9E : ... .. 4 P80 ... ... : ... .. 7 ... ... ... : --- .. . ... ... ... : E-# 00 5 ... ... ... : ... .. . ... ... ... : F#4 01 5 ... ... ... : A#0 00 6 PA4 ... ...
ROW 9F : ... .. . P7F ... ... : ... .. 8 ... ... ... : ... .. . ... ... ... : B-# 01 . ... ... ... : ... .. . ... ... ... : ... .. . ... ... ... : ... .. . P7E ... ...
ROW A0 : ... .. 3 P7E ... ... : ... .. 7 ... ... ... : ... .. . ... ... ... : C-# 00 4 ... ... ... : ... .. . ... ... ... : D#4 01 4 ... ... ... : D#1 00 . P74 ... ...
ROW A1 : ... .. . P7D ... ... : ... .. 6 ... ... ... : ... .. . ... ... ... : D-# 00 3 ... ... ... : ... .. . ... ... ... : ... .. . ... ... ... : D-1 00 . PA4 ... ...
ROW A2 : ... .. 2 P7C ... ... : ... .. 5 ... ... ... : ... .. . ... ... ... : C-# 00 . ... ... ... : ... .. . ... ... ... : D#4 02 . ... ... ... : ... .. 5 P82 ... ...
ROW A3 : A-4 02 A P80 ... ... : C#2 00 9 ... ... ... : C#3 00 . ... ... ... : E-# 00 7 ... ... ... : ... .. . ... ... ... : C#4 01 7 ... ... ... : C#3 00 . P86 ... ...
ROW A4 : ... .. . ... ... ... : ... .. . ... ... ... : C#2 00 . ... ... ... : B-# 01 . ... ... ... : ... .. . ... ... ... : ... .. . ... ... ... : C-3 00 6 P75 ... ...
ROW A5 : ... .. . ... ... ... : D-1 00 8 ... ... ... : ... .. . ... ... ... : C-# 00 6 ... ... ... : ... .. . ... ... ... : ... .. 6 ... ... ... : A#2 00 . P81 ... ...
ROW A6 : ... .. . P81 ... ... : C#1 00 . ... ... ... : ... .. . ... ... ... : D-# 00 5 ... ... ... : ... .. . ... ... ... : C#3 01 . ... ... ... : A-2 00 7 P74 ... ...
ROW A7 : A-4 00 . P82 ... ... : ... .. . ... ... ... : ... .. . ... ... ... : C-# 00 4 ... ... ... : ... .. . ... ... ... : C#3 02 . ... ... ... : G-2 00 . P8B ... ...
ROW A8 : ... .. . P83 ... ... : ... .. 7 ... ... ... : --- .. . ... ... ... : E-# 00 5 ... ... ... : ... .. . ... ... ... : ... .. 5 ... ... ... : F#2 00 . P84 ... ...
ROW A9 : A#4 00 9 P7D ... ... : ... .. 8 ... ... ... : ... .. . ... ... ... : B-# 01 . ... ... ... : ... .. . ... ... ... : ... .. . ... ... ... : F-3 00 . P83 ... ...
ROW AA : ... .. . P7E ... ... : ... .. 7 ... ... ... : ... .. . ... ... ... : C-# 00 4 ... ... ... : ... .. . ... ... ... : ... .. . ... ... ... : D#3 00 . P82 ... ...
ROW AB : ... .. . P7F ... ... : ... .. . ... ... ... : ... .. . ... ... ... : D-# 00 3 ... ... ... : ... .. . ... ... ... : ... .. 4 ... ... ... : C#3 00 8 P86 ... ...
ROW AC : ... .. . P80 ... ... : ... .. 6 ... ... ... : ... .. . ... ... ... : C-# 00 . ... ... ... : ... .. . ... ... ... : ... .. . ... ... ... : C-3 00 . P75 ... ...
ROW AD : ... .. 8 ... ... ... : C#2 01 7 ... ... ... : E-4 00 . ... ... ... : D-# 00 6 ... ... ... : ... .. . ... ... ... : ... .. 3 ... ... ... : A-4 00 6 P81 ... ...
ROW AE : ... .. . ... ... ... : ... .. . ... ... ... : A#3 00 . P87 ... ... : 3-# 01 9 ... ... ... : ... .. . ... ... ... : ... .. 2 ... ... ... : E-4 00 . P83 ... ...
ROW AF : ... .. . ... ... ... : D-1 01 6 ... ... ... : F#3 00 . P86 ... ... : 2-# 01 7 ... ... ... : ... .. . ... ... ... : ... .. . ... ... ... : C#4 00 . P7B ... ...
ROW B0 : ... .. 9 ... ... ... : C#1 01 7 ... ... ... : C#2 00 . P80 ... ... : 2-# 00 6 ... ... ... : ... .. . ... ... ... : ... .. 3 ... ... ... : A-3 00 . P86 ... ...
ROW B1 : ... .. . ... ... ... : ... .. . ... ... ... : ... .. . ... ... ... : 1-# 00 . ... ... ... : ... .. . ... ... ... : ... .. 2 ... ... ... : G-3 00 . P7D ... ...
ROW B2 : ... .. . ... ... ... : ... .. 6 ... ... ... : ... .. . ... ... ... : ... .. 5 ... ... ... : ... .. . ... ... ... : ... .. . ... ... ... : F-3 00 . P77 ... ...
ROW B3 : ... .. . ... ... ... : ... .. 8 ... ... ... : --- .. . ... ... ... : E-# 00 2 ... ... ... : ... .. . ... ... ... : ... .. . ... ... ... : A-1 00 7 P63 ... ...
ROW B4 : ... .. . ... ... ... : ... .. 7 ... ... ... : ... .. . ... ... ... : B-# 01 . ... ... ... : ... .. . ... ... ... : ... .. 1 ... ... ... : G#1 00 6 P76 ... ...
ROW B5 : ... .. . ... ... ... : ... .. . ... ... ... : ... .. . ... ... ... : C-# 00 . ... ... ... : ... .. . ... ... ... : ... .. . ... ... ... : G-1 00 . P8E ... ...
ROW B6 : ... .. . ... ... ... : ... .. 6 ... ... ... : ... .. . ... ... ... : D-# 00 . ... ... ... : ... .. . ... ... ... : ... .. . ... ... ... : ... .. . P65 ... ...
ROW B7 : ... .. . ... ... ... : ... .. 5 ... ... ... : ... .. . ... ... ... : C-# 00 1 ... ... ... : ... .. . ... ... ... : ... .. . ... ... ... : F#1 00 . P81 ... ...
ROW B8 : ... .. 8 ... ... ... : C#2 02 7 ... ... ... : C-4 00 . P7F ... ... : A-# 00 A ... ... ... : ... .. . ... ... ... : F#3 01 4 ... ... ... : F-1 00 4 PA0 ... ...
ROW B9 : ... .. . P81 ... ... : ... .. . ... ... ... : ... .. . ... ... ... : 5-# 01 9 ... ... ... : ... .. . ... ... ... : ... .. . ... ... ... : A#1 00 . P7B ... ...
ROW BA : ... .. . P82 ... ... : D-1 02 . ... ... ... : C#2 00 . P80 ... ... : 6-# 01 8 ... ... ... : ... .. . ... ... ... : D#3 01 3 ... ... ... : A-1 00 . P8B ... ...
ROW BB : ... .. . ... ... ... : C#1 02 . ... ... ... : ... .. . ... ... ... : 7-# 01 7 ... ... ... : ... .. . ... ... ... : ... .. . ... ... ... : ... .. . P63 ... ...
ROW BC : ... .. . P83 ... ... : ... .. . ... ... ... : ... .. . ... ... ... : 8-# 01 . ... ... ... : ... .. . ... ... ... : D#3 02 . ... ... ... : G#1 00 . P76 ... ...
ROW BD : ... .. 9 ... ... ... : ... .. . ... ... ... : --- .. . ... ... ... : 9-# 00 . ... ... ... : ... .. . ... ... ... : A-3 01 5 ... ... ... : D-2 00 . P74 ... ...
ROW BE : B-4 00 . P7D ... ... : ... .. . ... ... ... : ... .. . ... ... ... : 9-# 01 . ... ... ... : ... .. . ... ... ... : ... .. . ... ... ... : C#2 00 . P78 ... ...
ROW BF : ... .. . ... ... ... : ... .. . ... ... ... : ... .. . ... ... ... : 9-# 00 6 ... ... ... : ... .. . ... ... ... : F#3 01 4 ... ... ... : C-2 00 . P80 ... ...
ROW C0 : ... .. . ... ... ... : ... .. 6 ... ... ... : ... .. . ... ... ... : 9-# 01 . ... ... ... : ... .. . ... ... ... : ... .. . ... ... ... : B-1 00 . P8A ... ...
ROW C1 : ... .. . ... ... ... : ... .. 5 ... ... ... : ... .. . ... ... ... : 9-# 00 . ... ... ... : ... .. . ... ... ... : F#3 02 . ... ... ... : A#1 00 . P98 ... ...
ROW C2 : ... .. 7 ... ... ... : C#2 00 9 ... ... ... : C#3 00 . ... ... ... : E-# 00 7 ... ... ... : ... .. . ... ... ... : C#4 01 5 ... ... ... : ... .. . P6F ... ...
ROW C3 : A#4 00 . P83 ... ... : ... .. . ... ... ... : C#2 00 . ... ... ... : B-# 01 . ... ... ... : ... .. . ... ... ... : ... .. . ... ... ... : C-1 00 . P90 ... ...
ROW C4 : ... .. 6 ... ... ... : D-1 00 8 ... ... ... : ... .. . ... ... ... : C-# 00 6 ... ... ... : ... .. . ... ... ... : A#3 01 4 ... ... ... : ... .. 5 P67 ... ...
ROW C5 : ... .. . P82 ... ... : C#1 00 . ... ... ... : ... .. . ... ... ... : D-# 00 5 ... ... ... : ... .. . ... ... ... : ... .. . ... ... ... : B-0 00 . PA5 ... ...
ROW C6 : ... .. 5 ... ... ... : ... .. . ... ... ... : ... .. . ... ... ... : C-# 00 4 ... ... ... : ... .. . ... ... ... : A#3 02 . ... ... ... : ... .. . P7C ... ...
ROW C7 : ... .. 4 P81 ... ... : ... .. 7 ... ... ... : --- .. . ... ... ... : E-# 00 5 ... ... ... : ... .. . ... ... ... : E-4 01 5 ... ... ... : ... .. 6 P54 ... ...
ROW C8 : ... .. . P80 ... ... : ... .. 8 ... ... ... : ... .. . ... ... ... : B-# 01 . ... ... ... : ... .. . ... ... ... : ... .. . ... ... ... : A#0 00 . P97 ... ...
ROW C9 : ... .. 3 P7F ... ... : ... .. 7 ... ... ... : ... .. . ... ... ... : C-# 00 4 ... ... ... : ... .. . ... ... ... : C#4 01 4 ... ... ... : C#1 00 . P81 ... ...
ROW CA : ... .. . P7E ... ... : ... .. . ... ... ... : ... .. . ... ... ... : D-# 00 3 ... ... ... : ... .. . ... ... ... : ... .. . ... ... ... : ... .. . P58 ... ...
ROW CB : ... .. 2 ... ... ... : ... .. 6 ... ... ... : ... .. . ... ... ... : C-# 00 . ... ... ... : ... .. . ... ... ... : C#4 02 . ... ... ... : C-1 00 5 P90 ... ...
ROW CC : A-4 02 9 P80 ... ... : C-2 02 7 ... ... ... : E-4 00 . ... ... ... : D-# 00 6 ... ... ... : ... .. . ... ... ... : F#4 01 6 ... ... ... : C#3 00 4 P86 ... ...
ROW CD : ... .. . ... ... ... : ... .. . ... ... ... : A#3 00 . P87 ... ... : 3-# 01 9 ... ... ... : ... .. . ... ... ... : ... .. . ... ... ... : C-3 00 5 P75 ... ...
ROW CE : ... .. . ... ... ... : C#1 02 6 ... ... ... : F#3 00 . P86 ... ... : 2-# 01 7 ... ... ... : ... .. . ... ... ... : ... .. 5 ... ... ... : A#2 00 . P81 ... ...
ROW CF : ... .. A ... ... ... : C-1 02 7 ... ... ... : C-2 00 . P80 ... ... : 2-# 00 6 ... ... ... : ... .. . ... ... ... : F#3 01 . ... ... ... : A-2 00 6 P74 ... ...
ROW D0 : A-4 00 . ... ... ... : ... .. . ... ... ... : ... .. . ... ... ... : 1-# 00 . ... ... ... : ... .. . ... ... ... : F#3 02 . ... ... ... : G-2 00 . P8B ... ...
ROW D1 : ... .. . ... ... ... : ... .. 6 ... ... ... : ... .. . ... ... ... : ... .. 5 ... ... ... : ... .. . ... ... ... : ... .. 4 ... ... ... : F#2 00 . P84 ... ...
ROW D2 : ... .. 9 ... ... ... : ... .. 8 ... ... ... : --- .. . ... ... ... : ... .. 4 ... ... ... : ... .. . ... ... ... : ... .. 5 ... ... ... : F-3 00 7 P83 ... ...
ROW D3 : ... .. . ... ... ... : ... .. 7 ... ... ... : ... .. . ... ... ... : ... .. . ... ... ... : ... .. . ... ... ... : ... .. . ... ... ... : D#3 00 . P82 ... ...
ROW D4 : ... .. . ... ... ... : ... .. . ... ... ... : ... .. . ... ... ... : ... .. 3 ... ... ... : ... .. . ... ... ... : ... .. 4 ... ... ... : C#3 00 8 P86 ... ...
ROW D5 : ... .. . ... ... ... : ... .. 6 ... ... ... : ... .. . ... ... ... : ... .. . ... ... ... : ... .. . ... ... ... : ... .. . ... ... ... : C-3 00 . P75 ... ...
ROW D6 : ... .. . ... ... ... : ... .. 5 ... ... ... : ... .. . ... ... ... : ... .. . ... ... ... : ... .. . ... ... ... : ... .. . ... ... ... : C#4 00 . P7B ... ...
ROW D7 : ... .. . ... ... ... : C-2 01 9 ... ... ... : C-3 00 . ... ... ... : E-# 00 7 ... ... ... : ... .. . ... ... ... : ... .. 3 ... ... ... : A-3 00 . P86 ... ...
ROW D8 : ... .. . ... ... ... : ... .. . ... ... ... : C-2 00 . ... ... ... : B-# 01 . ... ... ... : ... .. . ... ... ... : ... .. . ... ... ... : G-3 00 . P7D ... ...
ROW D9 : ... .. . ... ... ... : C#1 01 8 ... ... ... : ... .. . ... ... ... : C-# 00 6 ... ... ... : ... .. . ... ... ... : ... .. . ... ... ... : F-3 00 7 P77 ... ...
ROW DA : ... .. . ... ... ... : C-1 01 . ... ... ... : ... .. . ... ... ... : D-# 00 5 ... ... ... : ... .. . ... ... ... : ... .. 2 ... ... ... : D#3 00 . ... ... ...
ROW DB : ... .. . ... ... ... : ... .. . ... ... ... : ... .. . ... ... ... : C-# 00 4 ... ... ... : ... .. . ... ... ... : ... .. . ... ... ... : C#3 00 . P7A ... ...
ROW DC : ... .. . ... ... ... : ... .. 7 ... ... ... : --- .. . ... ... ... : E-# 00 2 ... ... ... : ... .. . ... ... ... : ... .. . ... ... ... : A-1 00 . P63 ... ...
ROW DD : ... .. . ... ... ... : ... .. 8 ... ... ... : ... .. . ... ... ... : B-# 01 . ... ... ... : ... .. . ... ... ... : ... .. 1 ... ... ... : G#1 00 6 P76 ... ...
ROW DE : ... .. . ... ... ... : ... .. 7 ... ... ... : ... .. . ... ... ... : C-# 00 . ... ... ... : ... .. . ... ... ... : ... .. . ... ... ... : G-1 00 . P8E ... ...
ROW DF : ... .. . ... ... ... : ... .. . ... ... ... : ... .. . ... ... ... : D-# 00 . ... ... ... : ... .. . ... ... ... : ... .. . ... ... ... : ... .. . P65 ... ...
ROW E0 : ... .. . ... ... ... : ... .. 6 ... ... ... : ... .. . ... ... ... : C-# 00 1 ... ... ... : ... .. . ... ... ... : ... .. . ... ... ... : F#1 00 . P81 ... ...
ROW E1 : ... .. 8 ... ... ... : C-2 00 7 ... ... ... : C-4 00 . P7F ... ... : A-# 00 A ... ... ... : ... .. . ... ... ... : D#3 01 4 ... ... ... : F-1 00 4 PA0 ... ...
ROW E2 : ... .. . P81 ... ... : ... .. . ... ... ... : ... .. . ... ... ... : 5-# 01 9 ... ... ... : ... .. . ... ... ... : ... .. . ... ... ... : A#1 00 . P7B ... ...
ROW E3 : ... .. . P82 ... ... : C#1 00 6 ... ... ... : A#2 00 . P88 ... ... : 6-# 01 8 ... ... ... : ... .. . ... ... ... : C-3 01 3 ... ... ... : A-1 00 . P8B ... ...
ROW E4 : ... .. . ... ... ... : C-1 00 7 ... ... ... : C-2 00 . P80 ... ... : 7-# 01 7 ... ... ... : ... .. . ... ... ... : ... .. . ... ... ... : ... .. . P63 ... ...
ROW E5 : ... .. . P83 ... ... : ... .. . ... ... ... : ... .. . ... ... ... : 8-# 01 . ... ... ... : ... .. . ... ... ... : C-3 02 . ... ... ... : G#1 00 . P76 ... ...
ROW E6 : ... .. 9 ... ... ... : ... .. . ... ... ... : --- .. . ... ... ... : 9-# 00 . ... ... ... : ... .. . ... ... ... : F#3 01 5 ... ... ... : C-2 00 . P80 ... ...
ROW E7 : A#4 00 . P7D ... ... : ... .. . ... ... ... : ... .. . ... ... ... : 9-# 01 . ... ... ... : ... .. . ... ... ... : ... .. . ... ... ... : B-1 00 . P8A ... ...
ROW E8 : ... .. . ... ... ... : ... .. . ... ... ... : ... .. . ... ... ... : 9-# 00 6 ... ... ... : ... .. . ... ... ... : D#3 01 4 ... ... ... : A#1 00 . P98 ... ...
ROW E9 : ... .. . ... ... ... : ... .. . ... ... ... : ... .. . ... ... ... : 9-# 01 . ... ... ... : ... .. . ... ... ... : ... .. . ... ... ... : ... .. . P6F ... ...
ROW EA : ... .. . ... ... ... : ... .. 6 ... ... ... : ... .. . ... ... ... : 9-# 00 . ... ... ... : ... .. . ... ... ... : D#3 02 . ... ... ... : A-1 00 . P80 ... ...
ROW EB : ... .. 7 ... ... ... : C-2 02 9 ... ... ... : C-3 00 . ... ... ... : E-# 00 7 ... ... ... : ... .. . ... ... ... : A-3 01 5 ... ... ... : G#1 00 . P93 ... ...
ROW EC : A-4 00 . P83 ... ... : ... .. . ... ... ... : C-2 00 . ... ... ... : B-# 01 . ... ... ... : ... .. . ... ... ... : ... .. . ... ... ... : C-1 00 . P90 ... ...
ROW ED : ... .. 6 ... ... ... : C#1 02 8 ... ... ... : ... .. . ... ... ... : C-# 00 6 ... ... ... : ... .. . ... ... ... : F#3 01 4 ... ... ... : ... .. 5 P67 ... ...
ROW EE : ... .. . P82 ... ... : C-1 02 . ... ... ... : ... .. . ... ... ... : D-# 00 5 ... ... ... : ... .. . ... ... ... : ... .. . ... ... ... : B-0 00 . PA5 ... ...
ROW EF : ... .. 5 ... ... ... : ... .. . ... ... ... : ... .. . ... ... ... : C-# 00 4 ... ... ... : ... .. . ... ... ... : F#3 02 . ... ... ... : ... .. . P7C ... ...
ROW F0 : ... .. 4 P81 ... ... : ... .. 7 ... ... ... : ... .. . ... ... ... : D-# 00 . ... ... ... : ... .. . ... ... ... : ... .. . ... ... ... : ... .. 6 P54 ... ...
ROW F1 : ... .. . P80 ... ... : ... .. 8 ... ... ... : --- .. . ... ... ... : E-# 00 5 ... ... ... : ... .. . ... ... ... : C-4 01 5 ... ... ... : A#0 00 . P97 ... ...
ROW F2 : ... .. 3 P7F ... ... : ... .. 7 ... ... ... : ... .. . ... ... ... : B-# 01 . ... ... ... : ... .. . ... ... ... : ... .. . ... ... ... : C#1 00 . P81 ... ...
ROW F3 : ... .. . P7E ... ... : ... .. . ... ... ... : ... .. . ... ... ... : C-# 00 4 ... ... ... : ... .. . ... ... ... : A-3 01 4 ... ... ... : ... .. . P58 ... ...
ROW F4 : ... .. 2 ... ... ... : ... .. 6 ... ... ... : ... .. . ... ... ... : D-# 00 3 ... ... ... : ... .. . ... ... ... : ... .. . ... ... ... : C-1 00 5 P90 ... ...
ROW F5 : ... .. . P7D ... ... : ... .. 5 ... ... ... : ... .. . ... ... ... : C-# 00 . ... ... ... : ... .. . ... ... ... : A-3 02 . ... ... ... : ... .. . P82 ... ...
ROW F6 : D#4 02 A P80 ... ... : C-2 00 9 ... ... ... : C-3 00 . ... ... ... : E-# 00 7 ... ... ... : ... .. . ... ... ... : F#4 01 5 ... ... ... : B-2 00 . P74 ... ...
ROW F7 : ... .. . ... ... ... : ... .. . ... ... ... : C-2 00 . ... ... ... : B-# 01 . ... ... ... : ... .. . ... ... ... : ... .. . ... ... ... : A-2 00 6 P84 ... ...
ROW F8 : ... .. . ... ... ... : C#1 00 8 ... ... ... : ... .. . ... ... ... : C-# 00 6 ... ... ... : ... .. . ... ... ... : D#4 01 4 ... ... ... : G#2 00 . P7C ... ...
ROW F9 : ... .. . ... ... ... : C-1 00 . ... ... ... : ... .. . ... ... ... : D-# 00 5 ... ... ... : ... .. . ... ... ... : ... .. . ... ... ... : G-2 00 7 P75 ... ...
ROW FA : D#4 00 . ... ... ... : ... .. . ... ... ... : ... .. . ... ... ... : C-# 00 4 ... ... ... : ... .. . ... ... ... : D#4 02 . ... ... ... : F#2 00 . P70 ... ...
ROW FB : ... .. . ... ... ... : ... .. 7 ... ... ... : --- .. . ... ... ... : E-# 00 5 ... ... ... : ... .. . ... ... ... : D#4 01 5 ... ... ... : E-2 00 . P93 ... ...
ROW FC : ... .. 9 ... ... ... : ... .. 8 ... ... ... : ... .. . ... ... ... : B-# 01 . ... ... ... : ... .. . ... ... ... : ... .. . ... ... ... : D-3 00 . P86 ... ...
ROW FD : ... .. . ... ... ... : ... .. 7 ... ... ... : ... .. . ... ... ... : C-# 00 4 ... ... ... : ... .. . ... ... ... : C-4 01 4 ... ... ... : C#3 00 . P76 ... ...
ROW FE : ... .. . ... ... ... : ... .. . ... ... ... : ... .. . ... ... ... : D-# 00 3 ... ... ... : ... .. . ... ... ... : ... .. . ... ... ... : B-2 00 8 P80 ... ...
ROW FF : ... .. . ... ... ... : ... .. 6 ... ... ... : ... .. . ... ... ... : C-# 00 . ... ... ... : ... .. . ... ... ... : C-4 02 . ... ... ... : A#2 00 . P74 ... ...

PATTERN 07
ROW 00 : ... .. 8 ... ... ... : C-2 01 7 ... ... ... : E-4 00 . ... ... ... : D-# 00 6 ... ... ... : ... .. . ... ... ... : C-4 01 . ... ... ... : A-3 00 6 P7B ... ...
ROW 01 : ... .. . ... ... ... : ... .. . ... ... ... : A#3 00 . P87 ... ... : 3-# 01 9 ... ... ... : ... .. . ... ... ... : ... .. . ... ... ... : F#3 00 . P84 ... ...
ROW 02 : ... .. . ... ... ... : C#1 01 6 ... ... ... : F#3 00 . P86 ... ... : 2-# 01 7 ... ... ... : ... .. . ... ... ... : A-3 01 3 ... ... ... : E-3 00 . P82 ... ...
ROW 03 : ... .. 9 ... ... ... : C-1 01 7 ... ... ... : C-2 00 . P80 ... ... : 2-# 00 6 ... ... ... : ... .. . ... ... ... : ... .. . ... ... ... : D-3 00 . P85 ... ...
ROW 04 : ... .. . ... ... ... : ... .. . ... ... ... : ... .. . ... ... ... : 1-# 00 . ... ... ... : ... .. . ... ... ... : A-3 02 . ... ... ... : C#3 00 . P75 ... ...
ROW 05 : ... .. . ... ... ... : ... .. . ... ... ... : --- .. . ... ... ... : E-# 00 2 ... ... ... : ... .. . ... ... ... : A-3 01 5 ... ... ... : B-2 00 7 P7F ... ...
ROW 06 : ... .. . ... ... ... : ... .. 8 ... ... ... : ... .. . ... ... ... : B-# 01 . ... ... ... : ... .. . ... ... ... : ... .. . ... ... ... : G#1 00 . P74 ... ...
ROW 07 : ... .. . ... ... ... : ... .. 7 ... ... ... : ... .. . ... ... ... : C-# 00 . ... ... ... : ... .. . ... ... ... : F#3 01 4 ... ... ... : G-1 00 6 P8D ... ...
ROW 08 : A-4 00 4 ... ... ... : ... .. . ... ... ... : ... .. . ... ... ... : D-# 00 . ... ... ... : ... .. . ... ... ... : ... .. . ... ... ... : ... .. . P66 ... ...
ROW 09 : ... .. . ... ... ... : ... .. 6 ... ... ... : ... .. . ... ... ... : C-# 00 1 ... ... ... : ... .. . ... ... ... : F#3 02 . ... ... ... : F#1 00 . P83 ... ...
ROW 0A : ... .. . ... ... ... : ... .. 5 ... ... ... : ... .. . ... ... ... : D-# 00 . ... ... ... : ... .. . ... ... ... : ... .. . ... ... ... : F-1 00 . PA4 ... ...
ROW 0B : F#4 02 9 ... ... ... : C-2 02 7 ... ... ... : C-4 00 . P7F ... ... : A-# 00 A ... ... ... : ... .. . ... ... ... : D#4 01 . ... ... ... : ... .. 4 P7D ... ...
ROW 0C : ... .. . ... ... ... : ... .. . ... ... ... : ... .. . ... ... ... : 5-# 01 9 ... ... ... : ... .. . ... ... ... : ... .. . ... ... ... : A-1 00 . P92 ... ...
ROW 0D : ... .. . ... ... ... : C#1 02 . ... ... ... : C-2 00 . P80 ... ... : 6-# 01 8 ... ... ... : ... .. . ... ... ... : C-4 01 3 ... ... ... : ... .. . P6B ... ...
ROW 0E : ... .. . ... ... ... : C-1 02 . ... ... ... : ... .. . ... ... ... : 7-# 01 7 ... ... ... : ... .. . ... ... ... : ... .. . ... ... ... : G#1 00 . P80 ... ...
ROW 0F : F#4 00 . ... ... ... : ... .. . ... ... ... : ... .. . ... ... ... : 8-# 01 . ... ... ... : ... .. . ... ... ... : C-4 02 . ... ... ... : G-1 00 . P99 ... ...
ROW 10 : ... .. A ... ... ... : ... .. . ... ... ... : --- .. . ... ... ... : 9-# 00 . ... ... ... : ... .. . ... ... ... : C-4 01 5 ... ... ... : B-1 00 . P97 ... ...
ROW 11 : ... .. 9 ... ... ... : ... .. . ... ... ... : ... .. . ... ... ... : 9-# 01 . ... ... ... : ... .. . ... ... ... : ... .. . ... ... ... : ... .. . P70 ... ...
ROW 12 : ... .. . ... ... ... : ... .. . ... ... ... : ... .. . ... ... ... : 9-# 00 6 ... ... ... : ... .. . ... ... ... : A-3 01 4 ... ... ... : A#1 00 . P7F ... ...
ROW 13 : ... .. . ... ... ... : ... .. 6 ... ... ... : ... .. . ... ... ... : 9-# 01 . ... ... ... : ... .. . ... ... ... : ... .. . ... ... ... : A-1 00 . P91 ... ...
ROW 14 : ... .. . ... ... ... : ... .. 5 ... ... ... : ... .. . ... ... ... : 9-# 00 . ... ... ... : ... .. . ... ... ... : A-3 02 . ... ... ... : ... .. . P6A ... ...
ROW 15 : D#4 00 4 ... ... ... : C-2 00 9 ... ... ... : C-3 00 . ... ... ... : E-# 00 7 ... ... ... : ... .. . ... ... ... : A-3 01 5 ... ... ... : G#1 00 . P7F ... ...
ROW 16 : ... .. . ... ... ... : ... .. . ... ... ... : C-2 00 . ... ... ... : B-# 01 . ... ... ... : ... .. . ... ... ... : ... .. . ... ... ... : C-1 00 . P7D ... ...
ROW 17 : ... .. . ... ... ... : C#1 00 8 ... ... ... : ... .. . ... ... ... : C-# 00 6 ... ... ... : ... .. . ... ... ... : F#3 01 4 ... ... ... : ... .. 5 P56 ... ...
ROW 18 : ... .. . ... ... ... : C-1 00 . ... ... ... : ... .. . ... ... ... : D-# 00 5 ... ... ... : ... .. . ... ... ... : ... .. . ... ... ... : B-0 00 . P95 ... ...
ROW 19 : ... .. . ... ... ... : ... .. . ... ... ... : ... .. . ... ... ... : C-# 00 4 ... ... ... : ... .. . ... ... ... : F#3 02 . ... ... ... : ... .. . P6E ... ...
ROW 1A : ... .. . ... ... ... : ... .. 7 ... ... ... : --- .. . ... ... ... : E-# 00 5 ... ... ... : ... .. . ... ... ... : F#3 01 5 ... ... ... : A#0 00 6 PB3 ... ...
ROW 1B : ... .. 3 ... ... ... : ... .. 8 ... ... ... : ... .. . ... ... ... : B-# 01 . ... ... ... : ... .. . ... ... ... : ... .. . ... ... ... : ... .. . P8C ... ...
ROW 1C : ... .. . ... ... ... : ... .. 7 ... ... ... : ... .. . ... ... ... : C-# 00 4 ... ... ... : ... .. . ... ... ... : D#3 01 4 ... ... ... : C#1 00 . P77 ... ...
ROW 1D : ... .. . ... ... ... : ... .. . ... ... ... : ... .. . ... ... ... : D-# 00 3 ... ... ... : ... .. . ... ... ... : ... .. . ... ... ... : C-1 00 . PB0 ... ...
ROW 1E : ... .. . ... ... ... : ... .. 6 ... ... ... : ... .. . ... ... ... : C-# 00 . ... ... ... : ... .. . ... ... ... : D#3 02 . ... ... ... : ... .. 5 P89 ... ...
ROW 1F : G#4 02 9 ... ... ... : C#2 02 7 ... ... ... : E-4 00 . ... ... ... : D-# 00 6 ... ... ... : ... .. . ... ... ... : C#4 01 6 ... ... ... : C-3 00 4 P86 ... ...
ROW 20 : ... .. . ... ... ... : ... .. . ... ... ... : A#3 00 . P87 ... ... : 3-# 01 9 ... ... ... : ... .. . ... ... ... : ... .. . ... ... ... : B-2 00 5 P8B ... ...
ROW 21 : ... .. . ... ... ... : D-1 02 6 ... ... ... : F#3 00 . P86 ... ... : 2-# 01 7 ... ... ... : ... .. . ... ... ... : ... .. 5 ... ... ... : ... .. . P77 ... ...
ROW 22 : ... .. A ... ... ... : C#1 02 7 ... ... ... : C#2 00 . P80 ... ... : 2-# 00 6 ... ... ... : ... .. . ... ... ... : C#3 01 . ... ... ... : A#2 00 6 P7E ... ...
ROW 23 : G#4 00 . ... ... ... : ... .. . ... ... ... : ... .. . ... ... ... : 1-# 00 . ... ... ... : ... .. . ... ... ... : C#3 02 . ... ... ... : A-2 00 . P86 ... ...
ROW 24 : ... .. . ... ... ... : ... .. . ... ... ... : --- .. . ... ... ... : ... .. 5 ... ... ... : ... .. . ... ... ... : ... .. . ... ... ... : ... .. 7 P72 ... ...
ROW 25 : ... .. 9 ... ... ... : ... .. 8 ... ... ... : ... .. . ... ... ... : ... .. 4 ... ... ... : ... .. . ... ... ... : ... .. . ... ... ... : A#4 00 . P7E ... ...
ROW 26 : ... .. . ... ... ... : ... .. 7 ... ... ... : ... .. . ... ... ... : ... .. . ... ... ... : ... .. . ... ... ... : ... .. . ... ... ... : G-4 00 . P81 ... ...
ROW 27 : ... .. . ... ... ... : ... .. . ... ... ... : ... .. . ... ... ... : ... .. 3 ... ... ... : ... .. . ... ... ... : ... .. 4 ... ... ... : F-4 00 8 P7E ... ...
ROW 28 : ... .. . ... ... ... : ... .. 6 ... ... ... : ... .. . ... ... ... : ... .. . ... ... ... : ... .. . ... ... ... : ... .. . ... ... ... : D#4 00 . ... ... ...
ROW 29 : ... .. . ... ... ... : ... .. 5 ... ... ... : ... .. . ... ... ... : ... .. . ... ... ... : ... .. . ... ... ... : ... .. . ... ... ... : A-0 00 . PA9 ... ...
ROW 2A : ... .. . ... ... ... : C#2 01 9 ... ... ... : C#3 00 . ... ... ... : E-# 00 7 ... ... ... : ... .. . ... ... ... : ... .. 3 ... ... ... : ... .. . P95 ... ...
ROW 2B : ... .. . P81 ... ... : ... .. . ... ... ... : C#2 00 . ... ... ... : B-# 01 . ... ... ... : ... .. . ... ... ... : ... .. . ... ... ... : ... .. . P81 ... ...
ROW 2C : ... .. . P82 ... ... : D-1 01 8 ... ... ... : ... .. . ... ... ... : C-# 00 6 ... ... ... : ... .. . ... ... ... : ... .. . ... ... ... : --- .. 7 P7C ... ...
ROW 2D : ... .. . ... ... ... : C#1 01 . ... ... ... : ... .. . ... ... ... : D-# 00 5 ... ... ... : ... .. . ... ... ... : ... .. 2 ... ... ... : C#7 00 . P80 ... ...
ROW 2E : ... .. . P83 ... ... : ... .. . ... ... ... : ... .. . ... ... ... : C-# 00 4 ... ... ... : ... .. . ... ... ... : ... .. . ... ... ... : D#6 00 . ... ... ...
ROW 2F : ... .. . ... ... ... : ... .. 7 ... ... ... : --- .. . ... ... ... : E-# 00 2 ... ... ... : ... .. . ... ... ... : ... .. . ... ... ... : D-2 00 . P94 ... ...
ROW 30 : ... .. . P84 ... ... : ... .. 8 ... ... ... : ... .. . ... ... ... : B-# 01 . ... ... ... : ... .. . ... ... ... : ... .. 1 ... ... ... : ... .. 6 P80 ... ...
ROW 31 : D#4 00 4 ... ... ... : ... .. 7 ... ... ... : ... .. . ... ... ... : C-# 00 . ... ... ... : ... .. . ... ... ... : ... .. . ... ... ... : ... .. . P6C ... ...
ROW 32 : ... .. . ... ... ... : ... .. 6 ... ... ... : ... .. . ... ... ... : D-# 00 . ... ... ... : ... .. . ... ... ... : ... .. . ... ... ... : C#2 00 . P85 ... ...
ROW 33 : ... .. . ... ... ... : ... .. 5 ... ... ... : ... .. . ... ... ... : C-# 00 1 ... ... ... : ... .. . ... ... ... : ... .. . ... ... ... : ... .. . P71 ... ...
ROW 34 : F#4 02 9 P80 ... ... : C#2 00 7 ... ... ... : C-4 00 . P7F ... ... : A-# 00 A ... ... ... : ... .. . ... ... ... : E-4 01 4 ... ... ... : C-2 00 4 P8D ... ...
ROW 35 : ... .. . ... ... ... : ... .. . ... ... ... : ... .. . ... ... ... : 5-# 01 9 ... ... ... : ... .. . ... ... ... : ... .. . ... ... ... : B-2 00 . P8B ... ...
ROW 36 : ... .. . ... ... ... : D-1 00 6 ... ... ... : A#2 00 . P88 ... ... : 6-# 01 8 ... ... ... : ... .. . ... ... ... : C#4 01 3 ... ... ... : ... .. . P77 ... ...
ROW 37 : ... .. . ... ... ... : C#1 00 7 ... ... ... : C#2 00 . P80 ... ... : 7-# 01 7 ... ... ... : ... .. . ... ... ... : ... .. . ... ... ... : A#2 00 . P7E ... ...
ROW 38 : F#4 00 . ... ... ... : ... .. . ... ... ... : ... .. . ... ... ... : 8-# 01 . ... ... ... : ... .. . ... ... ... : C#4 02 . ... ... ... : A-2 00 . P86 ... ...
ROW 39 : ... .. A P84 ... ... : ... .. . ... ... ... : --- .. . ... ... ... : 9-# 00 . ... ... ... : ... .. . ... ... ... : C#4 01 5 ... ... ... : G#3 00 . P84 ... ...
ROW 3A : G-4 00 9 P7F ... ... : ... .. . ... ... ... : ... .. . ... ... ... : 9-# 01 . ... ... ... : ... .. . ... ... ... : ... .. . ... ... ... : G-3 00 . P80 ... ...
ROW 3B : ... .. . P83 ... ... : ... .. . ... ... ... : ... .. . ... ... ... : 9-# 00 6 ... ... ... : ... .. . ... ... ... : A#3 01 4 ... ... ... : F#3 00 . P7D ... ...
ROW 3C : G#4 00 . P7E ... ... : ... .. . ... ... ... : ... .. . ... ... ... : 9-# 01 . ... ... ... : ... .. . ... ... ... : ... .. . ... ... ... : F-3 00 . P7B ... ...
ROW 3D : ... .. . P80 ... ... : ... .. 6 ... ... ... : ... .. . ... ... ... : 9-# 00 . ... ... ... : ... .. . ... ... ... : A#3 02 . ... ... ... : E-3 00 . P7A ... ...
ROW 3E : ... .. . ... ... ... : C#2 02 9 ... ... ... : C#3 00 . ... ... ... : E-# 00 7 ... ... ... : ... .. . ... ... ... : B-3 01 5 ... ... ... : D#3 00 . P7B ... ...
ROW 3F : ... .. . ... ... ... : ... .. . ... ... ... : C#2 00 . ... ... ... : B-# 01 . ... ... ... : ... .. . ... ... ... : ... .. . ... ... ... : G#1 00 . P8F ... ...
ROW 40 : ... .. . ... ... ... : D-1 02 8 ... ... ... : ... .. . ... ... ... : C-# 00 6 ... ... ... : ... .. . ... ... ... : G#3 01 4 ... ... ... : ... .. 5 P7B ... ...
ROW 41 : ... .. . P7D ... ... : C#1 02 . ... ... ... : ... .. . ... ... ... : D-# 00 5 ... ... ... : ... .. . ... ... ... : ... .. . ... ... ... : ... .. . P67 ... ...
ROW 42 : G-4 00 . P81 ... ... : ... .. . ... ... ... : ... .. . ... ... ... : C-# 00 4 ... ... ... : ... .. . ... ... ... : G#3 02 . ... ... ... : G-1 00 . P93 ... ...
ROW 43 : ... .. . P7E ... ... : ... .. 7 ... ... ... : --- .. . ... ... ... : E-# 00 5 ... ... ... : ... .. . ... ... ... : G#3 01 5 ... ... ... : ... .. 6 P7F ... ...
ROW 44 : F#4 00 . P82 ... ... : ... .. 8 ... ... ... : ... .. . ... ... ... : B-# 01 . ... ... ... : ... .. . ... ... ... : ... .. . ... ... ... : ... .. . P6B ... ...
ROW 45 : ... .. . P80 ... ... : ... .. 7 ... ... ... : ... .. . ... ... ... : C-# 00 4 ... ... ... : ... .. . ... ... ... : F-3 01 4 ... ... ... : D-2 00 . P80 ... ...
ROW 46 : G#4 00 4 ... ... ... : ... .. . ... ... ... : ... .. . ... ... ... : D-# 00 3 ... ... ... : ... .. . ... ... ... : ... .. . ... ... ... : ... .. . P6C ... ...
ROW 47 : ... .. . ... ... ... : ... .. 6 ... ... ... : ... .. . ... ... ... : C-# 00 . ... ... ... : ... .. . ... ... ... : F-3 02 . ... ... ... : C#2 00 5 P85 ... ...
ROW 48 : ... .. . ... ... ... : ... .. 5 ... ... ... : ... .. . ... ... ... : D-# 00 . ... ... ... : ... .. . ... ... ... : ... .. . ... ... ... : ... .. . P71 ... ...
ROW 49 : F-4 02 A ... ... ... : C#2 00 9 ... ... ... : C#3 00 . ... ... ... : E-# 00 7 ... ... ... : ... .. . ... ... ... : E-3 01 5 ... ... ... : G-2 00 . P72 ... ...
ROW 4A : ... .. . ... ... ... : ... .. . ... ... ... : C#2 00 . ... ... ... : B-# 01 . ... ... ... : ... .. . ... ... ... : ... .. . ... ... ... : F#2 00 . P80 ... ...
ROW 4B : ... .. . ... ... ... : D-1 00 8 ... ... ... : ... .. . ... ... ... : C-# 00 6 ... ... ... : ... .. . ... ... ... : C#3 01 4 ... ... ... : F-2 00 . P90 ... ...
ROW 4C : ... .. . ... ... ... : C#1 00 . ... ... ... : ... .. . ... ... ... : D-# 00 5 ... ... ... : ... .. . ... ... ... : ... .. . ... ... ... : ... .. 4 P7C ... ...
ROW 4D : F-4 00 . ... ... ... : ... .. . ... ... ... : ... .. . ... ... ... : C-# 00 4 ... ... ... : ... .. . ... ... ... : C#3 02 . ... ... ... : E-2 00 . P8E ... ...
ROW 4E : ... .. . ... ... ... : ... .. 7 ... ... ... : --- .. . ... ... ... : E-# 00 5 ... ... ... : ... .. . ... ... ... : G#3 01 5 ... ... ... : ... .. . P7A ... ...
ROW 4F : ... .. 9 ... ... ... : ... .. 8 ... ... ... : ... .. . ... ... ... : B-# 01 . ... ... ... : ... .. . ... ... ... : ... .. . ... ... ... : E-1 00 . P67 ... ...
ROW 50 : ... .. . ... ... ... : ... .. 7 ... ... ... : ... .. . ... ... ... : C-# 00 4 ... ... ... : ... .. . ... ... ... : F-3 01 4 ... ... ... : D#1 00 . PA4 ... ...
ROW 51 : ... .. . ... ... ... : ... .. 6 ... ... ... : ... .. . ... ... ... : D-# 00 3 ... ... ... : ... .. . ... ... ... : ... .. . ... ... ... : ... .. . P90 ... ...
ROW 52 : ... .. . ... ... ... : ... .. 5 ... ... ... : ... .. . ... ... ... : C-# 00 . ... ... ... : ... .. . ... ... ... : F-3 02 . ... ... ... : ... .. . P7C ... ...
ROW 53 : ... .. 8 ... ... ... : C#2 01 7 ... ... ... : E-4 00 . ... ... ... : D-# 00 6 ... ... ... : ... .. . ... ... ... : B-3 01 . ... ... ... : ... .. . P68 ... ...
ROW 54 : ... .. . P81 ... ... : ... .. . ... ... ... : A#3 00 . P87 ... ... : 3-# 01 9 ... ... ... : ... .. . ... ... ... : ... .. . ... ... ... : D-1 00 . PAA ... ...
ROW 55 : ... .. . P82 ... ... : D-1 01 6 ... ... ... : F#3 00 . P86 ... ... : 2-# 01 7 ... ... ... : ... .. . ... ... ... : G#3 01 3 ... ... ... : G#1 00 . P7B ... ...
ROW 56 : ... .. 9 ... ... ... : C#1 01 7 ... ... ... : C#2 00 . P80 ... ... : 2-# 00 6 ... ... ... : ... .. . ... ... ... : ... .. . ... ... ... : ... .. 5 P67 ... ...
ROW 57 : ... .. . P83 ... ... : ... .. . ... ... ... : ... .. . ... ... ... : 1-# 00 . ... ... ... : ... .. . ... ... ... : G#3 02 . ... ... ... : G-1 00 . P93 ... ...
ROW 58 : ... .. . ... ... ... : ... .. . ... ... ... : --- .. . ... ... ... : E-# 00 2 ... ... ... : ... .. . ... ... ... : C#4 01 5 ... ... ... : ... .. 6 P7F ... ...
ROW 59 : ... .. . P84 ... ... : ... .. 8 ... ... ... : ... .. . ... ... ... : B-# 01 . ... ... ... : ... .. . ... ... ... : ... .. . ... ... ... : B-1 00 . P81 ... ...
ROW 5A : ... .. . ... ... ... : ... .. 7 ... ... ... : ... .. . ... ... ... : C-# 00 . ... ... ... : ... .. . ... ... ... : A#3 01 4 ... ... ... : ... .. 5 P6D ... ...
ROW 5B : F#4 00 4 ... ... ... : ... .. . ... ... ... : ... .. . ... ... ... : D-# 00 . ... ... ... : ... .. . ... ... ... : ... .. . ... ... ... : A#1 00 . P8F ... ...
ROW 5C : ... .. . ... ... ... : ... .. 6 ... ... ... : ... .. . ... ... ... : C-# 00 1 ... ... ... : ... .. . ... ... ... : A#3 02 . ... ... ... : ... .. . P7B ... ...
ROW 5D : F#4 02 9 P80 ... ... : C#2 02 7 ... ... ... : C-4 00 . P7F ... ... : A-# 00 A ... ... ... : ... .. . ... ... ... : G#3 01 . ... ... ... : ... .. 4 P67 ... ...
ROW 5E : ... .. . ... ... ... : ... .. . ... ... ... : ... .. . ... ... ... : 5-# 01 9 ... ... ... : ... .. . ... ... ... : ... .. . ... ... ... : A-1 00 . P8C ... ...
ROW 5F : ... .. . ... ... ... : D-1 02 6 ... ... ... : A#2 00 . P88 ... ... : 6-# 01 8 ... ... ... : ... .. . ... ... ... : F-3 01 3 ... ... ... : C-1 00 3 P88 ... ...
ROW 60 : ... .. . ... ... ... : C#1 02 7 ... ... ... : C#2 00 . P80 ... ... : 7-# 01 7 ... ... ... : ... .. . ... ... ... : ... .. . ... ... ... : ... .. . P74 ... ...
ROW 61 : F#4 00 . ... ... ... : ... .. . ... ... ... : ... .. . ... ... ... : 8-# 01 . ... ... ... : ... .. . ... ... ... : F-3 02 . ... ... ... : ... .. . P60 ... ...
ROW 62 : ... .. . ... ... ... : ... .. 6 ... ... ... : ... .. . ... ... ... : 9-# 00 . ... ... ... : ... .. . ... ... ... : ... .. . ... ... ... : B-0 00 . PB2 ... ...
ROW 63 : ... .. . ... ... ... : ... .. 7 ... ... ... : --- .. . ... ... ... : 9-# 01 . ... ... ... : ... .. . ... ... ... : B-3 01 5 ... ... ... : ... .. 4 P9E ... ...
ROW 64 : ... .. . ... ... ... : ... .. . ... ... ... : ... .. . ... ... ... : 9-# 00 6 ... ... ... : ... .. . ... ... ... : ... .. . ... ... ... : ... .. . P8A ... ...
ROW 65 : ... .. . ... ... ... : ... .. . ... ... ... : ... .. . ... ... ... : 9-# 01 . ... ... ... : ... .. . ... ... ... : G#3 01 4 ... ... ... : D#1 00 . PA4 ... ...
ROW 66 : ... .. . ... ... ... : ... .. 6 ... ... ... : ... .. . ... ... ... : 9-# 00 . ... ... ... : ... .. . ... ... ... : ... .. . ... ... ... : ... .. 5 P90 ... ...
ROW 67 : ... .. . ... ... ... : ... .. 5 ... ... ... : ... .. . ... ... ... : ... .. . ... ... ... : ... .. . ... ... ... : G#3 02 . ... ... ... : ... .. . P7C ... ...
ROW 68 : ... .. . ... ... ... : C#2 00 9 ... ... ... : C#3 00 . ... ... ... : E-# 00 7 ... ... ... : ... .. . ... ... ... : C#4 01 5 ... ... ... : ... .. . P68 ... ...
ROW 69 : ... .. . ... ... ... : ... .. . ... ... ... : C#2 00 . ... ... ... : B-# 01 . ... ... ... : ... .. . ... ... ... : ... .. . ... ... ... : F#1 00 6 P70 ... ...
ROW 6A : F-4 00 4 ... ... ... : D-1 00 8 ... ... ... : ... .. . ... ... ... : C-# 00 6 ... ... ... : ... .. . ... ... ... : A#3 01 4 ... ... ... : F-1 00 . PA4 ... ...
ROW 6B : ... .. . ... ... ... : C#1 00 . ... ... ... : ... .. . ... ... ... : D-# 00 5 ... ... ... : ... .. . ... ... ... : ... .. . ... ... ... : ... .. . P90 ... ...
ROW 6C : ... .. . ... ... ... : ... .. . ... ... ... : ... .. . ... ... ... : C-# 00 4 ... ... ... : ... .. . ... ... ... : A#3 02 . ... ... ... : ... .. . P7C ... ...
ROW 6D : ... .. . ... ... ... : ... .. 7 ... ... ... : --- .. . ... ... ... : E-# 00 5 ... ... ... : ... .. . ... ... ... : E-4 01 5 ... ... ... : ... .. 5 P68 ... ...
ROW 6E : ... .. . ... ... ... : ... .. 8 ... ... ... : ... .. . ... ... ... : B-# 01 . ... ... ... : ... .. . ... ... ... : ... .. . ... ... ... : E-1 00 . PA0 ... ...
ROW 6F : ... .. . ... ... ... : ... .. 7 ... ... ... : ... .. . ... ... ... : C-# 00 4 ... ... ... : ... .. . ... ... ... : C#4 01 4 ... ... ... : A-0 00 . P8C ... ...
ROW 70 : ... .. 3 ... ... ... : ... .. . ... ... ... : ... .. . ... ... ... : D-# 00 3 ... ... ... : ... .. . ... ... ... : ... .. . ... ... ... : ... .. . P82 ... ...
ROW 71 : ... .. . ... ... ... : ... .. 6 ... ... ... : ... .. . ... ... ... : C-# 00 . ... ... ... : ... .. . ... ... ... : C#4 02 . ... ... ... : ... .. . ... ... ...
ROW 72 : G#4 02 9 ... ... ... : D-2 02 7 ... ... ... : E-4 00 . ... ... ... : D-# 00 6 ... ... ... : ... .. . ... ... ... : F#4 01 6 ... ... ... : C-3 00 4 P89 ... ...
ROW 73 : ... .. . ... ... ... : ... .. . ... ... ... : A#3 00 . P87 ... ... : 3-# 01 9 ... ... ... : ... .. . ... ... ... : ... .. . ... ... ... : B-2 00 5 P7A ... ...
ROW 74 : ... .. . ... ... ... : D#1 02 6 ... ... ... : F#3 00 . P86 ... ... : 2-# 01 7 ... ... ... : ... .. . ... ... ... : ... .. 5 ... ... ... : A-2 00 . P89 ... ...
ROW 75 : ... .. A ... ... ... : D-1 02 7 ... ... ... : D-2 00 . P80 ... ... : 2-# 00 6 ... ... ... : ... .. . ... ... ... : F#3 01 . ... ... ... : G#2 00 6 P80 ... ...
ROW 76 : G#4 00 . ... ... ... : ... .. . ... ... ... : ... .. . ... ... ... : 1-# 00 . ... ... ... : ... .. . ... ... ... : F#3 02 . ... ... ... : G-2 00 . P78 ... ...
ROW 77 : ... .. . ... ... ... : ... .. . ... ... ... : --- .. . ... ... ... : ... .. 5 ... ... ... : ... .. . ... ... ... : ... .. . ... ... ... : F#2 00 7 P72 ... ...
ROW 78 : ... .. 9 ... ... ... : ... .. 8 ... ... ... : ... .. . ... ... ... : ... .. 4 ... ... ... : ... .. . ... ... ... : ... .. . ... ... ... : E-3 00 . P84 ... ...
ROW 79 : ... .. . ... ... ... : ... .. 7 ... ... ... : ... .. . ... ... ... : ... .. . ... ... ... : ... .. . ... ... ... : ... .. . ... ... ... : D-3 00 . P86 ... ...
ROW 7A : ... .. . ... ... ... : ... .. . ... ... ... : ... .. . ... ... ... : ... .. 3 ... ... ... : ... .. . ... ... ... : ... .. 4 ... ... ... : C#3 00 8 P75 ... ...
ROW 7B : ... .. . ... ... ... : ... .. 6 ... ... ... : ... .. . ... ... ... : ... .. . ... ... ... : ... .. . ... ... ... : ... .. . ... ... ... : B-2 00 . P7E ... ...
ROW 7C : ... .. . ... ... ... : D-2 01 9 ... ... ... : D-3 00 . ... ... ... : E-# 00 6 ... ... ... : ... .. . ... ... ... : ... .. . ... ... ... : B-3 00 . P83 ... ...
ROW 7D : ... .. . ... ... ... : ... .. . ... ... ... : D-2 00 . ... ... ... : B-# 01 . ... ... ... : ... .. . ... ... ... : ... .. 3 ... ... ... : G#3 00 . P86 ... ...
ROW 7E : ... .. . ... ... ... : D#1 01 8 ... ... ... : ... .. . ... ... ... : C-# 01 . ... ... ... : ... .. . ... ... ... : ... .. . ... ... ... : F#3 00 . P7F ... ...
ROW 7F : ... .. . ... ... ... : D-1 01 . ... ... ... : ... .. . ... ... ... : D-# 00 . ... ... ... : ... .. . ... ... ... : ... .. . ... ... ... : E-3 00 7 P7C ... ...
ROW 80 : ... .. . ... ... ... : ... .. . ... ... ... : ... .. . ... ... ... : C-# 00 5 ... ... ... : ... .. . ... ... ... : ... .. 2 ... ... ... : D-3 00 . P7E ... ...
ROW 81 : ... .. . ... ... ... : ... .. 7 ... ... ... : ... .. . ... ... ... : D-# 00 . ... ... ... : ... .. . ... ... ... : ... .. . ... ... ... : C-3 00 . P85 ... ...
ROW 82 : ... .. . ... ... ... : ... .. 8 ... ... ... : --- .. . ... ... ... : E-# 00 . ... ... ... : ... .. . ... ... ... : ... .. . ... ... ... : G#1 00 . P92 ... ...
ROW 83 : ... .. . ... ... ... : ... .. 7 ... ... ... : ... .. . ... ... ... : ... .. . ... ... ... : ... .. . ... ... ... : ... .. 1 ... ... ... : ... .. 6 P6A ... ...
ROW 84 : ... .. . ... ... ... : ... .. . ... ... ... : ... .. . ... ... ... : ... .. . ... ... ... : ... .. . ... ... ... : ... .. . ... ... ... : G-1 00 . P82 ... ...
ROW 85 : ... .. . ... ... ... : ... .. 6 ... ... ... : ... .. . ... ... ... : ... .. . ... ... ... : ... .. . ... ... ... : ... .. . ... ... ... : F#1 00 . P9E ... ...
ROW 86 : ... .. . ... ... ... : ... .. 5 ... ... ... : ... .. . ... ... ... : ... .. . ... ... ... : ... .. . ... ... ... : ... .. . ... ... ... : ... .. . P76 ... ...
ROW 87 : ... .. 8 ... ... ... : D-2 00 7 ... ... ... : C-4 00 . P7F ... ... : A-# 00 A ... ... ... : ... .. . ... ... ... : F-4 01 4 ... ... ... : F-1 00 4 P96 ... ...
ROW 88 : ... .. . P81 ... ... : ... .. . ... ... ... : ... .. . ... ... ... : 5-# 01 9 ... ... ... : ... .. . ... ... ... : ... .. . ... ... ... : A#1 00 . P71 ... ...
ROW 89 : ... .. . P82 ... ... : D#1 00 . ... ... ... : D-2 00 . P80 ... ... : 6-# 01 8 ... ... ... : ... .. . ... ... ... : D-4 01 3 ... ... ... : A-1 00 . P82 ... ...
ROW 8A : ... .. . ... ... ... : D-1 00 . ... ... ... : ... .. . ... ... ... : 7-# 01 7 ... ... ... : ... .. . ... ... ... : ... .. . ... ... ... : G#1 00 . P96 ... ...
ROW 8B : ... .. . P83 ... ... : ... .. . ... ... ... : ... .. . ... ... ... : 8-# 01 . ... ... ... : ... .. . ... ... ... : D-4 02 . ... ... ... : ... .. . P6E ... ...
ROW 8C : ... .. 9 ... ... ... : ... .. . ... ... ... : --- .. . ... ... ... : 9-# 00 . ... ... ... : ... .. . ... ... ... : C#4 01 5 ... ... ... : C-2 00 . P78 ... ...
ROW 8D : ... .. . P84 ... ... : ... .. . ... ... ... : ... .. . ... ... ... : 9-# 01 . ... ... ... : ... .. . ... ... ... : ... .. . ... ... ... : B-1 00 . P83 ... ...
ROW 8E : ... .. . ... ... ... : ... .. . ... ... ... : ... .. . ... ... ... : 9-# 00 6 ... ... ... : ... .. . ... ... ... : A#3 01 4 ... ... ... : A#1 00 . P91 ... ...
ROW 8F : ... .. . ... ... ... : ... .. . ... ... ... : ... .. . ... ... ... : 9-# 01 . ... ... ... : ... .. . ... ... ... : ... .. . ... ... ... : ... .. . P69 ... ...
ROW 90 : ... .. . ... ... ... : ... .. 6 ... ... ... : ... .. . ... ... ... : 9-# 00 . ... ... ... : ... .. . ... ... ... : A#3 02 . ... ... ... : A-1 00 . P7A ... ...
ROW 91 : A-4 00 . P7D ... ... : D-2 02 9 ... ... ... : D-3 00 . ... ... ... : E-# 00 . ... ... ... : ... .. . ... ... ... : B-3 01 5 ... ... ... : G#1 00 . P8E ... ...
ROW 92 : ... .. 8 ... ... ... : ... .. . ... ... ... : D-2 00 . ... ... ... : B-# 01 . ... ... ... : ... .. . ... ... ... : ... .. . ... ... ... : C-1 00 . P8B ... ...
ROW 93 : ... .. . P7E ... ... : D#1 02 8 ... ... ... : ... .. . ... ... ... : C-# 01 . ... ... ... : ... .. . ... ... ... : G#3 01 4 ... ... ... : ... .. 5 P63 ... ...
ROW 94 : G#4 00 . P84 ... ... : D-1 02 . ... ... ... : ... .. . ... ... ... : D-# 00 . ... ... ... : ... .. . ... ... ... : ... .. . ... ... ... : B-0 00 . PA1 ... ...
ROW 95 : A-4 00 . P7D ... ... : ... .. . ... ... ... : ... .. . ... ... ... : C-# 00 5 ... ... ... : ... .. . ... ... ... : G#3 02 . ... ... ... : ... .. . P79 ... ...
ROW 96 : ... .. . P7E ... ... : ... .. 7 ... ... ... : --- .. . ... ... ... : D-# 00 . ... ... ... : ... .. . ... ... ... : G#3 01 5 ... ... ... : ... .. 6 P51 ... ...
ROW 97 : ... .. . P7F ... ... : ... .. 8 ... ... ... : ... .. . ... ... ... : E-# 00 . ... ... ... : ... .. . ... ... ... : ... .. . ... ... ... : A#0 00 . P95 ... ...
ROW 98 : ... .. . P80 ... ... : ... .. 7 ... ... ... : ... .. . ... ... ... : ... .. . ... ... ... : ... .. . ... ... ... : F-3 01 4 ... ... ... : C#1 00 . P7F ... ...
ROW 99 : ... .. . ... ... ... : ... .. . ... ... ... : ... .. . ... ... ... : ... .. . ... ... ... : ... .. . ... ... ... : ... .. . ... ... ... : ... .. . P57 ... ...
ROW 9A : ... .. . ... ... ... : ... .. 6 ... ... ... : ... .. . ... ... ... : ... .. . ... ... ... : ... .. . ... ... ... : F-3 02 . ... ... ... : C-1 00 5 P8F ... ...
ROW 9B : ... .. . ... ... ... : ... .. 5 ... ... ... : ... .. . ... ... ... : ... .. . ... ... ... : ... .. . ... ... ... : ... .. . ... ... ... : ... .. . P82 ... ...
ROW 9C : A#4 02 A ... ... ... : D-2 00 9 ... ... ... : D-3 00 . ... ... ... : ... .. 7 ... ... ... : ... .. . ... ... ... : F-4 01 7 ... ... ... : A-2 00 . P78 ... ...
ROW 9D : ... .. . ... ... ... : ... .. . ... ... ... : D-2 00 . ... ... ... : B-# 01 . ... ... ... : ... .. . ... ... ... : ... .. . ... ... ... : G#2 00 6 P71 ... ...
ROW 9E : ... .. . ... ... ... : D#1 00 8 ... ... ... : ... .. . ... ... ... : C-# 00 6 ... ... ... : ... .. . ... ... ... : ... .. 6 ... ... ... : F#2 00 . P8D ... ...
ROW 9F : ... .. . ... ... ... : D-1 00 . ... ... ... : ... .. . ... ... ... : D-# 00 5 ... ... ... : ... .. . ... ... ... : F-3 01 . ... ... ... : F-2 00 7 P8B ... ...
ROW A0 : A#4 00 . ... ... ... : ... .. . ... ... ... : ... .. . ... ... ... : C-# 00 4 ... ... ... : ... .. . ... ... ... : F-3 02 . ... ... ... : E-2 00 . ... ... ...
ROW A1 : ... .. . ... ... ... : ... .. 7 ... ... ... : --- .. . ... ... ... : E-# 00 5 ... ... ... : ... .. . ... ... ... : ... .. 5 ... ... ... : D#2 00 . P8D ... ...
ROW A2 : ... .. 9 ... ... ... : ... .. 8 ... ... ... : ... .. . ... ... ... : B-# 01 . ... ... ... : ... .. . ... ... ... : ... .. . ... ... ... : F-3 00 . P7C ... ...
ROW A3 : ... .. . ... ... ... : ... .. 7 ... ... ... : ... .. . ... ... ... : C-# 00 4 ... ... ... : ... .. . ... ... ... : ... .. . ... ... ... : D#3 00 . P7E ... ...
ROW A4 : ... .. . ... ... ... : ... .. 6 ... ... ... : ... .. . ... ... ... : D-# 00 3 ... ... ... : ... .. . ... ... ... : ... .. 4 ... ... ... : C#3 00 8 P84 ... ...
ROW A5 : ... .. . ... ... ... : ... .. 5 ... ... ... : ... .. . ... ... ... : C-# 00 . ... ... ... : ... .. . ... ... ... : ... .. . ... ... ... : C-3 00 . P76 ... ...
ROW A6 : ... .. 8 ... ... ... : D-3 00 7 ... ... ... : E-4 00 . ... ... ... : D-# 00 6 ... ... ... : ... .. . ... ... ... : ... .. 3 ... ... ... : C-4 00 6 P7B ... ...
ROW A7 : ... .. . P81 ... ... : ... .. . ... ... ... : A#3 00 . P87 ... ... : 3-# 01 9 ... ... ... : ... .. . ... ... ... : ... .. 2 ... ... ... : A-3 00 . P7D ... ...
ROW A8 : ... .. 9 P82 ... ... : D#2 00 . ... ... ... : D-3 00 . P80 ... ... : 2-# 01 7 ... ... ... : ... .. . ... ... ... : ... .. 3 ... ... ... : F#3 00 7 P87 ... ...
ROW A9 : ... .. . P83 ... ... : D-2 00 . ... ... ... : ... .. . ... ... ... : 2-# 00 6 ... ... ... : ... .. . ... ... ... : ... .. . ... ... ... : E-3 00 6 P86 ... ...
ROW AA : B-4 00 . P7D ... ... : ... .. . ... ... ... : ... .. . ... ... ... : 1-# 00 . ... ... ... : ... .. . ... ... ... : ... .. 2 ... ... ... : D-3 00 . P8A ... ...
ROW AB : ... .. . P7E ... ... : D-2 01 . ... ... ... : G-4 00 . P7E ... ... : E-# 00 2 ... ... ... : ... .. . ... ... ... : ... .. . ... ... ... : C#3 00 7 P7B ... ...
ROW AC : ... .. . P7F ... ... : ... .. 8 ... ... ... : F#4 00 . P84 ... ... : B-# 01 . ... ... ... : ... .. . ... ... ... : ... .. . ... ... ... : G-1 00 . P91 ... ...
ROW AD : ... .. . ... ... ... : ... .. 7 ... ... ... : ... .. . P7C ... ... : C-# 00 . ... ... ... : ... .. . ... ... ... : ... .. 1 ... ... ... : ... .. 6 P6B ... ...
ROW AE : ... .. . ... ... ... : ... .. . ... ... ... : --- .. . ... ... ... : D-# 00 . ... ... ... : ... .. . ... ... ... : ... .. . ... ... ... : F#1 00 . P89 ... ...
ROW AF : ... .. . ... ... ... : ... .. 6 ... ... ... : ... .. . ... ... ... : C-# 00 1 ... ... ... : ... .. . ... ... ... : ... .. . ... ... ... : ... .. . P63 ... ...
ROW B0 : ... .. 8 ... ... ... : D-2 02 7 ... ... ... : C-4 00 . P7F ... ... : A-# 00 A ... ... ... : ... .. . ... ... ... : G#4 01 4 ... ... ... : F-1 00 4 P85 ... ...
ROW B1 : ... .. . P7E ... ... : ... .. . ... ... ... : ... .. . ... ... ... : 5-# 01 9 ... ... ... : ... .. . ... ... ... : ... .. . ... ... ... : ... .. . P5F ... ...
ROW B2 : ... .. . P7D ... ... : D#1 02 6 ... ... ... : A#2 00 . P88 ... ... : 6-# 01 8 ... ... ... : ... .. . ... ... ... : F-4 01 3 ... ... ... : B-1 00 . P66 ... ...
ROW B3 : A#4 00 . P83 ... ... : D-1 02 7 ... ... ... : D-2 00 . P80 ... ... : 7-# 01 7 ... ... ... : ... .. . ... ... ... : ... .. . ... ... ... : A#1 00 . P76 ... ...
ROW B4 : ... .. . P82 ... ... : ... .. . ... ... ... : ... .. . ... ... ... : 8-# 01 . ... ... ... : ... .. . ... ... ... : F-4 02 . ... ... ... : A-1 00 . P89 ... ...
ROW B5 : ... .. 9 P81 ... ... : ... .. . ... ... ... : --- .. . ... ... ... : 9-# 00 . ... ... ... : ... .. . ... ... ... : F-4 01 5 ... ... ... : ... .. 5 P63 ... ...
ROW B6 : ... .. . P80 ... ... : ... .. . ... ... ... : ... .. . ... ... ... : 9-# 01 . ... ... ... : ... .. . ... ... ... : ... .. . ... ... ... : C#2 00 4 P6C ... ...
ROW B7 : ... .. . P7F ... ... : ... .. . ... ... ... : ... .. . ... ... ... : 9-# 00 6 ... ... ... : ... .. . ... ... ... : D-4 01 4 ... ... ... : C-2 00 . P76 ... ...
ROW B8 : ... .. . P7E ... ... : ... .. . ... ... ... : ... .. . ... ... ... : 9-# 01 . ... ... ... : ... .. . ... ... ... : ... .. . ... ... ... : B-1 00 . P83 ... ...
ROW B9 : ... .. . P7D ... ... : ... .. 6 ... ... ... : ... .. . ... ... ... : 9-# 00 . ... ... ... : ... .. . ... ... ... : D-4 02 . ... ... ... : A#1 00 . P93 ... ...
ROW BA : A-4 00 . P83 ... ... : ... .. 5 ... ... ... : ... .. . ... ... ... : ... .. . ... ... ... : ... .. . ... ... ... : ... .. . ... ... ... : ... .. . P6D ... ...
ROW BB : ... .. . P82 ... ... : D-2 01 9 ... ... ... : E-4 00 . ... ... ... : D-# 00 . ... ... ... : ... .. . ... ... ... : C#4 01 . ... ... ... : A-1 00 3 P80 ... ...
ROW BC : ... .. 8 P81 ... ... : ... .. . ... ... ... : A#3 00 . P87 ... ... : 3-# 01 9 ... ... ... : ... .. . ... ... ... : ... .. . ... ... ... : C-1 00 . P6A ... ...
ROW BD : ... .. . ... ... ... : D#1 01 8 ... ... ... : D-2 00 . P80 ... ... : 2-# 01 7 ... ... ... : ... .. . ... ... ... : A#3 01 3 ... ... ... : B-0 00 4 PAA ... ...
ROW BE : ... .. . ... ... ... : D-1 01 . ... ... ... : ... .. . ... ... ... : 2-# 00 6 ... ... ... : ... .. . ... ... ... : ... .. . ... ... ... : ... .. . P84 ... ...
ROW BF : ... .. . ... ... ... : ... .. . ... ... ... : ... .. . ... ... ... : 1-# 00 . ... ... ... : ... .. . ... ... ... : A#3 02 . ... ... ... : ... .. . P5E ... ...
ROW C0 : ... .. 7 ... ... ... : ... .. 7 ... ... ... : --- .. . ... ... ... : E-# 00 5 ... ... ... : ... .. . ... ... ... : B-3 01 5 ... ... ... : A#0 00 6 PA4 ... ...
ROW C1 : ... .. . P82 ... ... : ... .. 8 ... ... ... : ... .. . ... ... ... : B-# 01 . ... ... ... : ... .. . ... ... ... : ... .. . ... ... ... : ... .. . P7E ... ...
ROW C2 : ... .. 6 P83 ... ... : ... .. 7 ... ... ... : ... .. . ... ... ... : 7-# 00 3 ... ... ... : ... .. . ... ... ... : G#3 01 4 ... ... ... : D-1 00 . P70 ... ...
ROW C3 : A#4 00 . P7D ... ... : ... .. 6 ... ... ... : ... .. . ... ... ... : ... .. 4 ... ... ... : ... .. . ... ... ... : ... .. . ... ... ... : C#1 00 . PA4 ... ...
ROW C4 : ... .. 5 P7E ... ... : ... .. 5 ... ... ... : ... .. . ... ... ... : 7-# 01 5 ... ... ... : ... .. . ... ... ... : G#3 02 . ... ... ... : ... .. 5 P82 ... ...
ROW C5 : D#4 02 7 P80 ... ... : D#2 02 7 ... ... ... : E-4 00 . ... ... ... : A-# 00 A ... ... ... : ... .. . ... ... ... : D#4 01 5 ... ... ... : A-2 00 4 P8B ... ...
ROW C6 : ... .. . ... ... ... : ... .. . ... ... ... : A#3 00 . P87 ... ... : B-# 00 . ... ... ... : ... .. . ... ... ... : ... .. . ... ... ... : ... .. . P78 ... ...
ROW C7 : ... .. . ... ... ... : E-1 02 6 ... ... ... : F#3 00 . P86 ... ... : A-# 01 . ... ... ... : ... .. . ... ... ... : ... .. 4 ... ... ... : G#2 00 . P84 ... ...
ROW C8 : ... .. 8 ... ... ... : D#1 02 . ... ... ... : D#2 00 . P80 ... ... : A-# 00 9 ... ... ... : ... .. . ... ... ... : D#3 01 5 ... ... ... : ... .. 6 P71 ... ...
ROW C9 : D#4 00 . ... ... ... : ... .. . ... ... ... : ... .. . ... ... ... : ... .. . ... ... ... : ... .. . ... ... ... : D#3 02 . ... ... ... : G-2 00 . P7E ... ...
ROW CA : ... .. 9 ... ... ... : ... .. 7 ... ... ... : --- .. . ... ... ... : ... .. . ... ... ... : ... .. . ... ... ... : ... .. . ... ... ... : F#2 00 7 P8D ... ...
ROW CB : ... .. 8 ... ... ... : ... .. . ... ... ... : ... .. . ... ... ... : A-# 01 8 ... ... ... : ... .. . ... ... ... : ... .. . ... ... ... : C#5 00 . P80 ... ...
ROW CC : ... .. . ... ... ... : ... .. . ... ... ... : ... .. . ... ... ... : A-# 00 . ... ... ... : ... .. . ... ... ... : ... .. . ... ... ... : A#4 00 . ... ... ...
ROW CD : ... .. 9 ... ... ... : ... .. . ... ... ... : ... .. . ... ... ... : ... .. . ... ... ... : ... .. . ... ... ... : ... .. 4 ... ... ... : G-4 00 8 P84 ... ...
ROW CE : ... .. . ... ... ... : ... .. 6 ... ... ... : ... .. . ... ... ... : A-# 01 7 ... ... ... : ... .. . ... ... ... : ... .. . ... ... ... : F-4 00 . P82 ... ...
ROW CF : ... .. . ... ... ... : D#2 01 9 ... ... ... : D#3 00 . ... ... ... : A-# 00 . ... ... ... : ... .. . ... ... ... : ... .. . ... ... ... : A-0 00 . PB4 ... ...
ROW D0 : ... .. . ... ... ... : ... .. . ... ... ... : D#2 00 . ... ... ... : ... .. . ... ... ... : ... .. . ... ... ... : ... .. 3 ... ... ... : ... .. . PA1 ... ...
ROW D1 : ... .. . ... ... ... : E-1 01 8 ... ... ... : ... .. . ... ... ... : ... .. 6 ... ... ... : ... .. . ... ... ... : ... .. . ... ... ... : ... .. . P8E ... ...
ROW D2 : ... .. . ... ... ... : D#1 01 . ... ... ... : ... .. . ... ... ... : A-# 01 . ... ... ... : ... .. . ... ... ... : ... .. . ... ... ... : ... .. 7 P7B ... ...
ROW D3 : ... .. . ... ... ... : ... .. . ... ... ... : ... .. . ... ... ... : 9-# 00 . ... ... ... : ... .. . ... ... ... : ... .. 2 ... ... ... : B-7 00 . P84 ... ...
ROW D4 : ... .. . ... ... ... : ... .. 7 ... ... ... : --- .. . ... ... ... : ... .. . ... ... ... : ... .. . ... ... ... : ... .. . ... ... ... : A#6 00 . P81 ... ...
ROW D5 : ... .. . ... ... ... : ... .. 8 ... ... ... : ... .. . ... ... ... : 9-# 01 . ... ... ... : ... .. . ... ... ... : ... .. . ... ... ... : C#2 00 . P86 ... ...
ROW D6 : ... .. . ... ... ... : ... .. 7 ... ... ... : ... .. . ... ... ... : 9-# 00 . ... ... ... : ... .. . ... ... ... : ... .. 1 ... ... ... : ... .. 6 P73 ... ...
ROW D7 : ... .. . ... ... ... : ... .. . ... ... ... : ... .. . ... ... ... : ... .. 5 ... ... ... : ... .. . ... ... ... : ... .. . ... ... ... : C-2 00 . P90 ... ...
ROW D8 : ... .. . ... ... ... : ... .. 6 ... ... ... : ... .. . ... ... ... : ... .. . ... ... ... : ... .. . ... ... ... : ... .. . ... ... ... : ... .. . P7D ... ...
ROW D9 : ... .. . ... ... ... : ... .. 5 ... ... ... : ... .. . ... ... ... : 9-# 01 . ... ... ... : ... .. . ... ... ... : ... .. . ... ... ... : ... .. . P6A ... ...
ROW DA : ... .. 8 ... ... ... : D#2 00 7 ... ... ... : C-4 00 . P7F ... ... : A-# 00 A ... ... ... : ... .. . ... ... ... : F#3 01 4 ... ... ... : B-1 00 4 P8A ... ...
ROW DB : ... .. . P81 ... ... : ... .. . ... ... ... : ... .. . ... ... ... : 5-# 01 9 ... ... ... : ... .. . ... ... ... : ... .. . ... ... ... : C#3 00 . P7F ... ...
ROW DC : ... .. . P82 ... ... : E-1 00 . ... ... ... : D#2 00 . P80 ... ... : 6-# 01 8 ... ... ... : ... .. . ... ... ... : D#3 01 3 ... ... ... : C-3 00 . P84 ... ...
ROW DD : ... .. . P83 ... ... : D#1 00 . ... ... ... : ... .. . ... ... ... : 7-# 01 7 ... ... ... : ... .. . ... ... ... : ... .. . ... ... ... : B-2 00 . P8A ... ...
ROW DE : ... .. . P84 ... ... : ... .. . ... ... ... : ... .. . ... ... ... : 8-# 01 . ... ... ... : ... .. . ... ... ... : D#3 02 . ... ... ... : ... .. . P77 ... ...
ROW DF : ... .. 9 P85 ... ... : ... .. . ... ... ... : --- .. . ... ... ... : 9-# 00 . ... ... ... : ... .. . ... ... ... : A-3 01 5 ... ... ... : A#3 00 . P82 ... ...
ROW E0 : E-4 00 . P7C ... ... : ... .. . ... ... ... : ... .. . ... ... ... : 9-# 01 . ... ... ... : ... .. . ... ... ... : ... .. . ... ... ... : A-3 00 . P7D ... ...
ROW E1 : ... .. . ... ... ... : ... .. . ... ... ... : ... .. . ... ... ... : 9-# 00 6 ... ... ... : ... .. . ... ... ... : F#3 01 4 ... ... ... : G#3 00 . P79 ... ...
ROW E2 : ... .. . ... ... ... : ... .. 6 ... ... ... : ... .. . ... ... ... : 9-# 01 . ... ... ... : ... .. . ... ... ... : ... .. . ... ... ... : F#3 00 . P87 ... ...
ROW E3 : ... .. . ... ... ... : ... .. 5 ... ... ... : ... .. . ... ... ... : 9-# 00 . ... ... ... : ... .. . ... ... ... : F#3 02 . ... ... ... : F-3 00 . P86 ... ...
ROW E4 : ... .. 7 ... ... ... : D#2 02 9 ... ... ... : D#3 00 . ... ... ... : E-# 00 7 ... ... ... : ... .. . ... ... ... : C#4 01 5 ... ... ... : E-3 00 . ... ... ...
ROW E5 : D#4 00 . P85 ... ... : ... .. . ... ... ... : D#2 00 . ... ... ... : B-# 01 . ... ... ... : ... .. . ... ... ... : ... .. . ... ... ... : G#1 00 . P64 ... ...
ROW E6 : ... .. 6 P84 ... ... : E-1 02 8 ... ... ... : ... .. . ... ... ... : C-# 00 6 ... ... ... : ... .. . ... ... ... : A#3 01 4 ... ... ... : G-1 00 5 P91 ... ...
ROW E7 : ... .. . P83 ... ... : D#1 02 . ... ... ... : ... .. . ... ... ... : D-# 00 5 ... ... ... : ... .. . ... ... ... : ... .. . ... ... ... : ... .. . P7E ... ...
ROW E8 : ... .. 5 P82 ... ... : ... .. . ... ... ... : ... .. . ... ... ... : C-# 00 4 ... ... ... : ... .. . ... ... ... : A#3 02 . ... ... ... : ... .. . P6B ... ...
ROW E9 : ... .. 4 P81 ... ... : ... .. 7 ... ... ... : --- .. . ... ... ... : E-# 00 5 ... ... ... : ... .. . ... ... ... : F#4 01 5 ... ... ... : F#1 00 6 P9C ... ...
ROW EA : ... .. . P80 ... ... : ... .. 8 ... ... ... : ... .. . ... ... ... : B-# 01 . ... ... ... : ... .. . ... ... ... : ... .. . ... ... ... : ... .. . P89 ... ...
ROW EB : ... .. 3 P7F ... ... : ... .. 7 ... ... ... : ... .. . ... ... ... : C-# 00 4 ... ... ... : ... .. . ... ... ... : D#4 01 4 ... ... ... : D#2 00 . P8A ... ...
ROW EC : ... .. . P7E ... ... : ... .. . ... ... ... : ... .. . ... ... ... : D-# 00 3 ... ... ... : ... .. . ... ... ... : ... .. . ... ... ... : ... .. . P77 ... ...
ROW ED : ... .. 2 P7D ... ... : ... .. 6 ... ... ... : ... .. . ... ... ... : C-# 00 . ... ... ... : ... .. . ... ... ... : D#4 02 . ... ... ... : D-2 00 5 P8F ... ...
ROW EE : A-4 02 A P80 ... ... : D#2 00 9 ... ... ... : D#3 00 . ... ... ... : E-# 00 7 ... ... ... : ... .. . ... ... ... : A-4 01 5 ... ... ... : ... .. . P7C ... ...
ROW EF : ... .. . ... ... ... : ... .. . ... ... ... : D#2 00 . ... ... ... : B-# 01 . ... ... ... : ... .. . ... ... ... : ... .. . ... ... ... : G#2 00 . P7D ... ...
ROW F0 : ... .. . ... ... ... : E-1 00 8 ... ... ... : ... .. . ... ... ... : C-# 00 6 ... ... ... : ... .. . ... ... ... : F#4 01 4 ... ... ... : G-2 00 . P8A ... ...
ROW F1 : ... .. . P81 ... ... : D#1 00 . ... ... ... : ... .. . ... ... ... : D-# 00 5 ... ... ... : ... .. . ... ... ... : ... .. . ... ... ... : ... .. . P77 ... ...
ROW F2 : A-4 00 . P82 ... ... : ... .. . ... ... ... : ... .. . ... ... ... : C-# 00 4 ... ... ... : ... .. . ... ... ... : F#4 02 . ... ... ... : F#2 00 4 P86 ... ...
ROW F3 : ... .. . P83 ... ... : ... .. 7 ... ... ... : ... .. . ... ... ... : D-# 00 . ... ... ... : ... .. . ... ... ... : ... .. . ... ... ... : ... .. . P73 ... ...
ROW F4 : A#4 00 9 P7D ... ... : ... .. 8 ... ... ... : --- .. . ... ... ... : E-# 00 5 ... ... ... : ... .. . ... ... ... : F#4 01 5 ... ... ... : F-2 00 . P84 ... ...
ROW F5 : ... .. . P7E ... ... : ... .. 7 ... ... ... : ... .. . ... ... ... : B-# 01 . ... ... ... : ... .. . ... ... ... : ... .. . ... ... ... : D#1 00 . P9D ... ...
ROW F6 : ... .. . P7F ... ... : ... .. . ... ... ... : ... .. . ... ... ... : C-# 00 4 ... ... ... : ... .. . ... ... ... : D#4 01 4 ... ... ... : ... .. . P8A ... ...
ROW F7 : ... .. . P80 ... ... : ... .. 6 ... ... ... : ... .. . ... ... ... : D-# 00 3 ... ... ... : ... .. . ... ... ... : ... .. . ... ... ... : ... .. . P77 ... ...
ROW F8 : ... .. . ... ... ... : ... .. 5 ... ... ... : ... .. . ... ... ... : C-# 00 . ... ... ... : ... .. . ... ... ... : D#4 02 . ... ... ... : ... .. . P64 ... ...
ROW F9 : ... .. 8 ... ... ... : D#2 01 7 ... ... ... : E-4 00 . ... ... ... : D-# 00 6 ... ... ... : ... .. . ... ... ... : C#4 01 . ... ... ... : D-1 00 . PA7 ... ...
ROW FA : ... .. . ... ... ... : ... .. . ... ... ... : A#3 00 . P87 ... ... : 3-# 01 9 ... ... ... : ... .. . ... ... ... : ... .. . ... ... ... : ... .. . P94 ... ...
ROW FB : ... .. 9 ... ... ... : E-1 01 . ... ... ... : D#2 00 . P80 ... ... : 2-# 01 7 ... ... ... : ... .. . ... ... ... : A#3 01 3 ... ... ... : A-1 00 . P84 ... ...
ROW FC : ... .. . ... ... ... : D#1 01 . ... ... ... : ... .. . ... ... ... : 2-# 00 6 ... ... ... : ... .. . ... ... ... : ... .. . ... ... ... : ... .. 5 P71 ... ...
ROW FD : ... .. . ... ... ... : ... .. . ... ... ... : ... .. . ... ... ... : 1-# 00 . ... ... ... : ... .. . ... ... ... : A#3 02 . ... ... ... : G#1 00 . P9A ... ...
ROW FE : ... .. . ... ... ... : ... .. . ... ... ... : --- .. . ... ... ... : E-# 00 2 ... ... ... : ... .. . ... ... ... : A-3 01 5 ... ... ... : ... .. 6 P87 ... ...
ROW FF : ... .. . ... ... ... : ... .. 8 ... ... ... : ... .. . ... ... ... : B-# 01 . ... ... ... : ... .. . ... ... ... : ... .. . ... ... ... : C-2 00 . P89 ... ...

PATTERN 08
ROW 00 : ... .. . ... ... ... : ... .. 7 ... ... ... : ... .. . ... ... ... : C-# 00 . ... ... ... : ... .. . ... ... ... : F#3 01 4 ... ... ... : ... .. 5 P76 ... ...
ROW 01 : ... .. . ... ... ... : ... .. 6 ... ... ... : ... .. . ... ... ... : D-# 00 . ... ... ... : ... .. . ... ... ... : ... .. . ... ... ... : B-1 00 . P96 ... ...
ROW 02 : ... .. . ... ... ... : ... .. 5 ... ... ... : ... .. . ... ... ... : C-# 00 1 ... ... ... : ... .. . ... ... ... : F#3 02 . ... ... ... : ... .. . P83 ... ...
ROW 03 : ... .. 8 ... ... ... : D#2 02 7 ... ... ... : C-4 00 . P7F ... ... : A-# 00 A ... ... ... : ... .. . ... ... ... : C#4 01 . ... ... ... : ... .. 4 P70 ... ...
ROW 04 : ... .. . P81 ... ... : ... .. . ... ... ... : ... .. . ... ... ... : 5-# 01 9 ... ... ... : ... .. . ... ... ... : ... .. . ... ... ... : A#1 00 . P93 ... ...
ROW 05 : ... .. . P82 ... ... : E-1 02 6 ... ... ... : A#2 00 . P88 ... ... : 6-# 01 8 ... ... ... : ... .. . ... ... ... : A#3 01 3 ... ... ... : C-1 00 3 P7D ... ...
ROW 06 : ... .. . ... ... ... : D#1 02 7 ... ... ... : D#2 00 . P80 ... ... : 7-# 01 7 ... ... ... : ... .. . ... ... ... : ... .. . ... ... ... : ... .. . P6A ... ...
ROW 07 : ... .. . P83 ... ... : ... .. . ... ... ... : ... .. . ... ... ... : 8-# 01 . ... ... ... : ... .. . ... ... ... : A#3 02 . ... ... ... : ... .. . P57 ... ...
ROW 08 : ... .. 9 ... ... ... : ... .. . ... ... ... : --- .. . ... ... ... : 9-# 00 . ... ... ... : ... .. . ... ... ... : A-3 01 5 ... ... ... : B-0 00 4 PAA ... ...
ROW 09 : B-4 00 . P7D ... ... : ... .. . ... ... ... : ... .. . ... ... ... : 9-# 01 . ... ... ... : ... .. . ... ... ... : ... .. . ... ... ... : ... .. . P97 ... ...
ROW 0A : ... .. . ... ... ... : ... .. . ... ... ... : ... .. . ... ... ... : 9-# 00 6 ... ... ... : ... .. . ... ... ... : F#3 01 4 ... ... ... : ... .. . P84 ... ...
ROW 0B : ... .. . ... ... ... : ... .. . ... ... ... : ... .. . ... ... ... : 9-# 01 . ... ... ... : ... .. . ... ... ... : ... .. . ... ... ... : F-1 00 . P5C ... ...
ROW 0C : ... .. . ... ... ... : ... .. 6 ... ... ... : ... .. . ... ... ... : 9-# 00 . ... ... ... : ... .. . ... ... ... : F#3 02 . ... ... ... : E-1 00 5 P95 ... ...
ROW 0D : ... .. 7 ... ... ... : D#2 00 9 ... ... ... : D#3 00 . ... ... ... : E-# 00 7 ... ... ... : ... .. . ... ... ... : F#3 01 5 ... ... ... : ... .. . P82 ... ...
ROW 0E : A#4 00 . P83 ... ... : ... .. . ... ... ... : D#2 00 . ... ... ... : B-# 01 . ... ... ... : ... .. . ... ... ... : ... .. . ... ... ... : ... .. . P6F ... ...
ROW 0F : ... .. 6 ... ... ... : E-1 00 8 ... ... ... : ... .. . ... ... ... : C-# 00 6 ... ... ... : ... .. . ... ... ... : D#3 01 4 ... ... ... : G-1 00 6 P77 ... ...
ROW 10 : ... .. . P82 ... ... : D#1 00 . ... ... ... : ... .. . ... ... ... : D-# 00 5 ... ... ... : ... .. . ... ... ... : ... .. . ... ... ... : ... .. . P64 ... ...
ROW 11 : ... .. 5 ... ... ... : ... .. . ... ... ... : ... .. . ... ... ... : C-# 00 4 ... ... ... : ... .. . ... ... ... : D#3 02 . ... ... ... : F#1 00 . P95 ... ...
ROW 12 : ... .. 4 P81 ... ... : ... .. 7 ... ... ... : ... .. . ... ... ... : D-# 00 . ... ... ... : ... .. . ... ... ... : ... .. . ... ... ... : ... .. . P82 ... ...
ROW 13 : ... .. . P80 ... ... : ... .. 8 ... ... ... : --- .. . ... ... ... : E-# 00 5 ... ... ... : ... .. . ... ... ... : C#3 01 5 ... ... ... : ... .. 5 P6F ... ...
ROW 14 : ... .. 3 P7F ... ... : ... .. 7 ... ... ... : ... .. . ... ... ... : B-# 01 . ... ... ... : ... .. . ... ... ... : ... .. . ... ... ... : F-1 00 . PA4 ... ...
ROW 15 : ... .. . P7E ... ... : ... .. . ... ... ... : ... .. . ... ... ... : C-# 00 4 ... ... ... : ... .. . ... ... ... : A#2 01 4 ... ... ... : A-0 00 . P91 ... ...
ROW 16 : ... .. 2 ... ... ... : ... .. 6 ... ... ... : ... .. . ... ... ... : D-# 00 3 ... ... ... : ... .. . ... ... ... : ... .. . ... ... ... : ... .. . P82 ... ...
ROW 17 : ... .. . P7D ... ... : ... .. 5 ... ... ... : ... .. . ... ... ... : C-# 00 . ... ... ... : ... .. . ... ... ... : A#2 02 . ... ... ... : ... .. . ... ... ...
ROW 18 : A-4 02 9 P80 ... ... : F-2 02 7 ... ... ... : E-4 00 . ... ... ... : D-# 00 6 ... ... ... : ... .. . ... ... ... : D#4 01 6 ... ... ... : B-2 00 4 P88 ... ...
ROW 19 : ... .. . ... ... ... : ... .. . ... ... ... : A#3 00 . P87 ... ... : 3-# 01 9 ... ... ... : ... .. . ... ... ... : ... .. . ... ... ... : ... .. 5 P74 ... ...
ROW 1A : ... .. A ... ... ... : F#1 02 . ... ... ... : F-2 00 . P80 ... ... : 2-# 01 7 ... ... ... : ... .. . ... ... ... : ... .. 5 ... ... ... : A#2 00 . P7C ... ...
ROW 1B : ... .. . ... ... ... : F-1 02 . ... ... ... : ... .. . ... ... ... : 2-# 00 6 ... ... ... : ... .. . ... ... ... : D#3 01 . ... ... ... : A-2 00 6 P84 ... ...
ROW 1C : A-4 00 . ... ... ... : ... .. . ... ... ... : ... .. . ... ... ... : 1-# 00 . ... ... ... : ... .. . ... ... ... : D#3 02 . ... ... ... : ... .. . P71 ... ...
ROW 1D : ... .. . ... ... ... : ... .. . ... ... ... : --- .. . ... ... ... : ... .. 5 ... ... ... : ... .. . ... ... ... : ... .. . ... ... ... : G#2 00 7 P7C ... ...
ROW 1E : ... .. 9 ... ... ... : ... .. 8 ... ... ... : ... .. . ... ... ... : ... .. 4 ... ... ... : ... .. . ... ... ... : ... .. . ... ... ... : A#3 00 . P82 ... ...
ROW 1F : ... .. . ... ... ... : ... .. 7 ... ... ... : ... .. . ... ... ... : ... .. . ... ... ... : ... .. . ... ... ... : ... .. . ... ... ... : A-3 00 . P7C ... ...
ROW 20 : ... .. . ... ... ... : ... .. . ... ... ... : ... .. . ... ... ... : ... .. 3 ... ... ... : ... .. . ... ... ... : ... .. 4 ... ... ... : G-3 00 8 P88 ... ...
ROW 21 : ... .. . ... ... ... : ... .. 6 ... ... ... : ... .. . ... ... ... : ... .. . ... ... ... : ... .. . ... ... ... : ... .. . ... ... ... : F#3 00 . P85 ... ...
ROW 22 : ... .. . ... ... ... : F-2 01 9 ... ... ... : F-3 00 . ... ... ... : E-# 00 7 ... ... ... : ... .. . ... ... ... : ... .. . ... ... ... : A-4 00 . P7D ... ...
ROW 23 : ... .. . ... ... ... : ... .. . ... ... ... : F-2 00 . ... ... ... : B-# 01 . ... ... ... : ... .. . ... ... ... : ... .. 3 ... ... ... : F#4 00 . P81 ... ...
ROW 24 : ... .. . ... ... ... : F#1 01 8 ... ... ... : ... .. . ... ... ... : C-# 00 6 ... ... ... : ... .. . ... ... ... : ... .. . ... ... ... : E-4 00 . ... ... ...
ROW 25 : ... .. . ... ... ... : F-1 01 . ... ... ... : ... .. . ... ... ... : D-# 00 5 ... ... ... : ... .. . ... ... ... : ... .. . ... ... ... : D-4 00 7 ... ... ...
ROW 26 : ... .. . ... ... ... : ... .. . ... ... ... : ... .. . ... ... ... : C-# 00 4 ... ... ... : ... .. . ... ... ... : ... .. 2 ... ... ... : C-4 00 . P86 ... ...
ROW 27 : ... .. . ... ... ... : ... .. 7 ... ... ... : --- .. . ... ... ... : E-# 00 2 ... ... ... : ... .. . ... ... ... : ... .. . ... ... ... : B-3 00 . P7E ... ...
ROW 28 : ... .. . ... ... ... : ... .. 8 ... ... ... : ... .. . ... ... ... : B-# 01 . ... ... ... : ... .. . ... ... ... : ... .. . ... ... ... : D-2 00 . P85 ... ...
ROW 29 : ... .. . ... ... ... : ... .. 7 ... ... ... : ... .. . ... ... ... : C-# 00 . ... ... ... : ... .. . ... ... ... : ... .. 1 ... ... ... : ... .. 6 P71 ... ...
ROW 2A : ... .. . ... ... ... : ... .. . ... ... ... : ... .. . ... ... ... : D-# 00 . ... ... ... : ... .. . ... ... ... : ... .. . ... ... ... : C#2 00 . P8B ... ...
ROW 2B : ... .. . ... ... ... : ... .. 6 ... ... ... : ... .. . ... ... ... : C-# 00 1 ... ... ... : ... .. . ... ... ... : ... .. . ... ... ... : ... .. . P77 ... ...
ROW 2C : ... .. . ... ... ... : ... .. 5 ... ... ... : ... .. . ... ... ... : D-# 00 . ... ... ... : ... .. . ... ... ... : ... .. . ... ... ... : C-2 00 . P94 ... ...
ROW 2D : ... .. 8 ... ... ... : F-2 00 7 ... ... ... : C-4 00 . P7F ... ... : A-# 00 A ... ... ... : ... .. . ... ... ... : F#3 01 4 ... ... ... : ... .. 4 P80 ... ...
ROW 2E : ... .. . P81 ... ... : ... .. . ... ... ... : ... .. . ... ... ... : 5-# 01 9 ... ... ... : ... .. . ... ... ... : ... .. . ... ... ... : G#2 00 . P75 ... ...
ROW 2F : ... .. . P82 ... ... : F#1 00 . ... ... ... : F-2 00 . P80 ... ... : 6-# 01 8 ... ... ... : ... .. . ... ... ... : D#3 01 3 ... ... ... : G-2 00 . P81 ... ...
ROW 30 : ... .. . ... ... ... : F-1 00 . ... ... ... : ... .. . ... ... ... : 7-# 01 7 ... ... ... : ... .. . ... ... ... : ... .. . ... ... ... : F#2 00 . P90 ... ...
ROW 31 : ... .. . P83 ... ... : ... .. . ... ... ... : ... .. . ... ... ... : 8-# 01 . ... ... ... : ... .. . ... ... ... : D#3 02 . ... ... ... : ... .. . P7C ... ...
ROW 32 : ... .. 9 ... ... ... : ... .. . ... ... ... : --- .. . ... ... ... : 9-# 00 . ... ... ... : ... .. . ... ... ... : G#3 01 5 ... ... ... : B-2 00 . P8B ... ...
ROW 33 : A#4 00 . P7D ... ... : ... .. . ... ... ... : ... .. . ... ... ... : 9-# 01 . ... ... ... : ... .. . ... ... ... : ... .. . ... ... ... : ... .. . P77 ... ...
ROW 34 : ... .. . ... ... ... : ... .. . ... ... ... : ... .. . ... ... ... : 9-# 00 6 ... ... ... : ... .. . ... ... ... : F-3 01 4 ... ... ... : A#2 00 . P7F ... ...
ROW 35 : ... .. . ... ... ... : ... .. 6 ... ... ... : ... .. . ... ... ... : 9-# 01 . ... ... ... : ... .. . ... ... ... : ... .. . ... ... ... : A-2 00 . P87 ... ...
ROW 36 : ... .. . ... ... ... : ... .. 5 ... ... ... : ... .. . ... ... ... : 9-# 00 . ... ... ... : ... .. . ... ... ... : F-3 02 . ... ... ... : ... .. . P74 ... ...
ROW 37 : ... .. 7 ... ... ... : F-2 02 9 ... ... ... : F-3 00 . ... ... ... : E-# 00 7 ... ... ... : ... .. . ... ... ... : C-4 01 5 ... ... ... : G#2 00 . P7F ... ...
ROW 38 : A-4 00 . P83 ... ... : ... .. . ... ... ... : F-2 00 . ... ... ... : B-# 01 . ... ... ... : ... .. . ... ... ... : ... .. . ... ... ... : G#1 00 . P88 ... ...
ROW 39 : ... .. 6 ... ... ... : F#1 02 8 ... ... ... : ... .. . ... ... ... : C-# 00 6 ... ... ... : ... .. . ... ... ... : A-3 01 4 ... ... ... : ... .. 5 P74 ... ...
ROW 3A : ... .. . P82 ... ... : F-1 02 . ... ... ... : ... .. . ... ... ... : D-# 00 5 ... ... ... : ... .. . ... ... ... : ... .. . ... ... ... : ... .. . P61 ... ...
ROW 3B : ... .. 5 ... ... ... : ... .. . ... ... ... : ... .. . ... ... ... : C-# 00 4 ... ... ... : ... .. . ... ... ... : A-3 02 . ... ... ... : G-1 00 . P8D ... ...
ROW 3C : ... .. 4 P81 ... ... : ... .. 7 ... ... ... : --- .. . ... ... ... : E-# 00 5 ... ... ... : ... .. . ... ... ... : D#4 01 5 ... ... ... : ... .. 6 P7A ... ...
ROW 3D : ... .. . P80 ... ... : ... .. 8 ... ... ... : ... .. . ... ... ... : B-# 01 . ... ... ... : ... .. . ... ... ... : ... .. . ... ... ... : ... .. . P66 ... ...
ROW 3E : ... .. 3 P7F ... ... : ... .. 7 ... ... ... : ... .. . ... ... ... : C-# 00 4 ... ... ... : ... .. . ... ... ... : C-4 01 4 ... ... ... : C-2 00 . P79 ... ...
ROW 3F : ... .. . P7E ... ... : ... .. . ... ... ... : ... .. . ... ... ... : D-# 00 3 ... ... ... : ... .. . ... ... ... : ... .. . ... ... ... : B-1 00 . P98 ... ...
ROW 40 : ... .. 2 ... ... ... : ... .. 6 ... ... ... : ... .. . ... ... ... : C-# 00 . ... ... ... : ... .. . ... ... ... : C-4 02 . ... ... ... : ... .. 5 P85 ... ...
ROW 41 : F-4 02 A P80 ... ... : F-2 00 9 ... ... ... : F-3 00 . ... ... ... : E-# 00 7 ... ... ... : ... .. . ... ... ... : G#4 01 5 ... ... ... : ... .. . P71 ... ...
ROW 42 : ... .. . ... ... ... : ... .. . ... ... ... : F-2 00 . ... ... ... : B-# 01 . ... ... ... : ... .. . ... ... ... : ... .. . ... ... ... : D-2 00 . P88 ... ...
ROW 43 : ... .. . ... ... ... : F#1 00 8 ... ... ... : ... .. . ... ... ... : C-# 00 6 ... ... ... : ... .. . ... ... ... : F-4 01 4 ... ... ... : ... .. . P74 ... ...
ROW 44 : ... .. . ... ... ... : F-1 00 . ... ... ... : ... .. . ... ... ... : D-# 00 5 ... ... ... : ... .. . ... ... ... : ... .. . ... ... ... : C#2 00 . P8E ... ...
ROW 45 : F-4 00 . ... ... ... : ... .. . ... ... ... : ... .. . ... ... ... : C-# 00 4 ... ... ... : ... .. . ... ... ... : F-4 02 . ... ... ... : ... .. 4 P7A ... ...
ROW 46 : ... .. . ... ... ... : ... .. 7 ... ... ... : --- .. . ... ... ... : E-# 00 5 ... ... ... : ... .. . ... ... ... : F#4 01 5 ... ... ... : C-2 00 . P97 ... ...
ROW 47 : ... .. 9 ... ... ... : ... .. 8 ... ... ... : ... .. . ... ... ... : B-# 01 . ... ... ... : ... .. . ... ... ... : ... .. . ... ... ... : ... .. . P83 ... ...
ROW 48 : ... .. . ... ... ... : ... .. 7 ... ... ... : ... .. . ... ... ... : C-# 00 4 ... ... ... : ... .. . ... ... ... : D#4 01 4 ... ... ... : E-1 00 . P68 ... ...
ROW 49 : ... .. . ... ... ... : ... .. . ... ... ... : ... .. . ... ... ... : D-# 00 3 ... ... ... : ... .. . ... ... ... : ... .. . ... ... ... : D#1 00 . PA5 ... ...
ROW 4A : ... .. . ... ... ... : ... .. 6 ... ... ... : ... .. . ... ... ... : C-# 00 . ... ... ... : ... .. . ... ... ... : D#4 02 . ... ... ... : ... .. . P92 ... ...
ROW 4B : ... .. . ... ... ... : ... .. 5 ... ... ... : ... .. . ... ... ... : D-# 00 . ... ... ... : ... .. . ... ... ... : ... .. . ... ... ... : ... .. . P7E ... ...
ROW 4C : ... .. 8 ... ... ... : F-2 01 7 ... ... ... : E-4 00 . ... ... ... : ... .. 6 ... ... ... : ... .. . ... ... ... : D#4 01 . ... ... ... : ... .. . P6B ... ...
ROW 4D : ... .. . ... ... ... : ... .. . ... ... ... : A#3 00 . P87 ... ... : 3-# 01 9 ... ... ... : ... .. . ... ... ... : ... .. . ... ... ... : ... .. . P57 ... ...
ROW 4E : ... .. 9 ... ... ... : F#1 01 . ... ... ... : F-2 00 . P80 ... ... : 2-# 01 7 ... ... ... : ... .. . ... ... ... : C-4 01 3 ... ... ... : G-1 00 . P5F ... ...
ROW 4F : ... .. . ... ... ... : F-1 01 . ... ... ... : ... .. . ... ... ... : 2-# 00 6 ... ... ... : ... .. . ... ... ... : ... .. . ... ... ... : F#1 00 5 P8F ... ...
ROW 50 : ... .. . ... ... ... : ... .. . ... ... ... : ... .. . ... ... ... : 1-# 00 . ... ... ... : ... .. . ... ... ... : C-4 02 . ... ... ... : ... .. . P7C ... ...
ROW 51 : ... .. . ... ... ... : ... .. . ... ... ... : --- .. . ... ... ... : E-# 00 2 ... ... ... : ... .. . ... ... ... : C-4 01 5 ... ... ... : ... .. 6 P68 ... ...
ROW 52 : ... .. . ... ... ... : ... .. 8 ... ... ... : ... .. . ... ... ... : B-# 01 . ... ... ... : ... .. . ... ... ... : ... .. . ... ... ... : G#1 00 . P8B ... ...
ROW 53 : A-4 00 4 ... ... ... : ... .. 7 ... ... ... : ... .. . ... ... ... : C-# 00 . ... ... ... : ... .. . ... ... ... : A-3 01 4 ... ... ... : ... .. 5 P77 ... ...
ROW 54 : ... .. . ... ... ... : ... .. 6 ... ... ... : ... .. . ... ... ... : D-# 00 . ... ... ... : ... .. . ... ... ... : ... .. . ... ... ... : ... .. . P64 ... ...
ROW 55 : ... .. . ... ... ... : ... .. 5 ... ... ... : ... .. . ... ... ... : C-# 00 1 ... ... ... : ... .. . ... ... ... : A-3 02 . ... ... ... : G-1 00 . P90 ... ...
ROW 56 : F#4 02 9 ... ... ... : F-2 02 7 ... ... ... : C-4 00 . P7F ... ... : A-# 00 A ... ... ... : ... .. . ... ... ... : F#4 01 . ... ... ... : ... .. 4 P7D ... ...
ROW 57 : ... .. . ... ... ... : ... .. . ... ... ... : ... .. . ... ... ... : 5-# 01 9 ... ... ... : ... .. . ... ... ... : ... .. . ... ... ... : ... .. . P69 ... ...
ROW 58 : ... .. . ... ... ... : F#1 02 6 ... ... ... : A#2 00 . P88 ... ... : 6-# 01 8 ... ... ... : ... .. . ... ... ... : D#4 01 3 ... ... ... : C-1 00 3 P91 ... ...
ROW 59 : ... .. . ... ... ... : F-1 02 7 ... ... ... : F-2 00 . P80 ... ... : 7-# 01 7 ... ... ... : ... .. . ... ... ... : ... .. . ... ... ... : ... .. . P7D ... ...
ROW 5A : F#4 00 . ... ... ... : ... .. . ... ... ... : ... .. . ... ... ... : 8-# 01 . ... ... ... : ... .. . ... ... ... : D#4 02 . ... ... ... : ... .. . P6A ... ...
ROW 5B : ... .. A ... ... ... : ... .. . ... ... ... : --- .. . ... ... ... : 9-# 00 . ... ... ... : ... .. . ... ... ... : D#4 01 5 ... ... ... : ... .. 4 P56 ... ...
ROW 5C : ... .. 9 ... ... ... : ... .. . ... ... ... : ... .. . ... ... ... : 9-# 01 . ... ... ... : ... .. . ... ... ... : ... .. . ... ... ... : B-0 00 . PA9 ... ...
ROW 5D : ... .. . ... ... ... : ... .. . ... ... ... : ... .. . ... ... ... : 9-# 00 6 ... ... ... : ... .. . ... ... ... : C-4 01 4 ... ... ... : ... .. . P95 ... ...
ROW 5E : ... .. . ... ... ... : ... .. . ... ... ... : ... .. . ... ... ... : 9-# 01 . ... ... ... : ... .. . ... ... ... : ... .. . ... ... ... : D-1 00 . PA6 ... ...
ROW 5F : ... .. . ... ... ... : ... .. 6 ... ... ... : ... .. . ... ... ... : 9-# 00 . ... ... ... : ... .. . ... ... ... : C-4 02 . ... ... ... : ... .. 5 P92 ... ...
ROW 60 : F-4 00 4 ... ... ... : F-2 00 9 ... ... ... : F-3 00 . ... ... ... : E-# 00 7 ... ... ... : ... .. . ... ... ... : C-4 01 5 ... ... ... : ... .. . P7F ... ...
ROW 61 : ... .. . ... ... ... : ... .. . ... ... ... : F-2 00 . ... ... ... : B-# 01 . ... ... ... : ... .. . ... ... ... : ... .. . ... ... ... : ... .. . P6B ... ...
ROW 62 : ... .. . ... ... ... : F#1 00 8 ... ... ... : ... .. . ... ... ... : C-# 00 6 ... ... ... : ... .. . ... ... ... : A-3 01 4 ... ... ... : E-1 00 6 ... ... ...
ROW 63 : ... .. . ... ... ... : F-1 00 . ... ... ... : ... .. . ... ... ... : D-# 00 5 ... ... ... : ... .. . ... ... ... : ... .. . ... ... ... : D#1 00 . PA8 ... ...
ROW 64 : ... .. . ... ... ... : ... .. . ... ... ... : ... .. . ... ... ... : C-# 00 4 ... ... ... : ... .. . ... ... ... : A-3 02 . ... ... ... : ... .. . P95 ... ...
ROW 65 : ... .. . ... ... ... : ... .. 7 ... ... ... : --- .. . ... ... ... : E-# 00 5 ... ... ... : ... .. . ... ... ... : G#3 01 5 ... ... ... : ... .. . P81 ... ...
ROW 66 : ... .. 3 ... ... ... : ... .. 8 ... ... ... : ... .. . ... ... ... : B-# 01 . ... ... ... : ... .. . ... ... ... : ... .. . ... ... ... : ... .. 5 P6E ... ...
ROW 67 : ... .. . ... ... ... : ... .. 7 ... ... ... : ... .. . ... ... ... : C-# 00 4 ... ... ... : ... .. . ... ... ... : F-3 01 4 ... ... ... : ... .. . P5A ... ...
ROW 68 : ... .. . ... ... ... : ... .. . ... ... ... : ... .. . ... ... ... : D-# 00 3 ... ... ... : ... .. . ... ... ... : ... .. . ... ... ... : A-0 00 . P9D ... ...
ROW 69 : ... .. . ... ... ... : ... .. 6 ... ... ... : ... .. . ... ... ... : C-# 00 . ... ... ... : ... .. . ... ... ... : F-3 02 . ... ... ... : ... .. . P89 ... ...
ROW 6A : ... .. . ... ... ... : ... .. 5 ... ... ... : ... .. . ... ... ... : D-# 00 . ... ... ... : ... .. . ... ... ... : ... .. . ... ... ... : ... .. . P82 ... ...
ROW 6B : G#4 02 9 ... ... ... : A#1 02 7 ... ... ... : E-4 00 . ... ... ... : ... .. 6 ... ... ... : ... .. . ... ... ... : F-4 01 6 ... ... ... : A-2 00 4 P8B ... ...
ROW 6C : ... .. . ... ... ... : ... .. . ... ... ... : A#3 00 . P87 ... ... : 3-# 01 9 ... ... ... : ... .. . ... ... ... : ... .. . ... ... ... : ... .. 5 P78 ... ...
ROW 6D : ... .. A ... ... ... : B-0 02 . ... ... ... : A#1 00 . P80 ... ... : 2-# 01 7 ... ... ... : ... .. . ... ... ... : ... .. 5 ... ... ... : G#2 00 . P84 ... ...
ROW 6E : ... .. . ... ... ... : A#0 02 . ... ... ... : ... .. . ... ... ... : 2-# 00 6 ... ... ... : ... .. . ... ... ... : F-3 01 . ... ... ... : ... .. 6 P71 ... ...
ROW 6F : G#4 00 . ... ... ... : ... .. . ... ... ... : ... .. . ... ... ... : 1-# 00 . ... ... ... : ... .. . ... ... ... : F-3 02 . ... ... ... : G-2 00 . P7E ... ...
ROW 70 : ... .. . ... ... ... : ... .. . ... ... ... : --- .. . ... ... ... : ... .. 5 ... ... ... : ... .. . ... ... ... : ... .. . ... ... ... : F#2 00 7 P8D ... ...
ROW 71 : ... .. 9 ... ... ... : ... .. 8 ... ... ... : ... .. . ... ... ... : ... .. 4 ... ... ... : ... .. . ... ... ... : ... .. . ... ... ... : G-3 00 . P7E ... ...
ROW 72 : ... .. . ... ... ... : ... .. 7 ... ... ... : ... .. . ... ... ... : ... .. . ... ... ... : ... .. . ... ... ... : ... .. . ... ... ... : F#3 00 . P7C ... ...
ROW 73 : ... .. . ... ... ... : ... .. 6 ... ... ... : ... .. . ... ... ... : ... .. 3 ... ... ... : ... .. . ... ... ... : ... .. 4 ... ... ... : F-3 00 8 P7B ... ...
ROW 74 : ... .. . ... ... ... : ... .. 5 ... ... ... : ... .. . ... ... ... : ... .. . ... ... ... : ... .. . ... ... ... : ... .. . ... ... ... : E-3 00 . ... ... ...
ROW 75 : ... .. . ... ... ... : A#1 01 9 ... ... ... : A#2 00 . ... ... ... : E-# 00 7 ... ... ... : ... .. . ... ... ... : ... .. . ... ... ... : B-7 00 . P84 ... ...
ROW 76 : ... .. . ... ... ... : ... .. . ... ... ... : A#1 00 . ... ... ... : B-# 01 . ... ... ... : ... .. . ... ... ... : ... .. 3 ... ... ... : A#6 00 . P81 ... ...
ROW 77 : ... .. . ... ... ... : B-0 01 8 ... ... ... : ... .. . ... ... ... : C-# 00 6 ... ... ... : ... .. . ... ... ... : ... .. . ... ... ... : D-6 00 . P80 ... ...
ROW 78 : ... .. . ... ... ... : A#0 01 . ... ... ... : ... .. . ... ... ... : D-# 00 5 ... ... ... : ... .. . ... ... ... : ... .. . ... ... ... : G#5 00 7 ... ... ...
ROW 79 : ... .. . ... ... ... : ... .. . ... ... ... : ... .. . ... ... ... : C-# 00 4 ... ... ... : ... .. . ... ... ... : ... .. 2 ... ... ... : E-5 00 . P7F ... ...
ROW 7A : ... .. . ... ... ... : ... .. 7 ... ... ... : --- .. . ... ... ... : E-# 00 2 ... ... ... : ... .. . ... ... ... : ... .. . ... ... ... : C-5 00 . P82 ... ...
ROW 7B : ... .. . ... ... ... : ... .. 8 ... ... ... : ... .. . ... ... ... : B-# 01 . ... ... ... : ... .. . ... ... ... : ... .. . ... ... ... : C#2 00 . P86 ... ...
ROW 7C : ... .. . ... ... ... : ... .. 7 ... ... ... : ... .. . ... ... ... : C-# 00 . ... ... ... : ... .. . ... ... ... : ... .. 1 ... ... ... : ... .. 6 P73 ... ...
ROW 7D : ... .. . ... ... ... : ... .. . ... ... ... : ... .. . ... ... ... : D-# 00 . ... ... ... : ... .. . ... ... ... : ... .. . ... ... ... : C-2 00 . P90 ... ...
ROW 7E : ... .. . ... ... ... : ... .. 6 ... ... ... : ... .. . ... ... ... : C-# 00 1 ... ... ... : ... .. . ... ... ... : ... .. . ... ... ... : ... .. . P7D ... ...
ROW 7F : ... .. 8 ... ... ... : A#1 00 7 ... ... ... : C-4 00 . P7F ... ... : A-# 00 A ... ... ... : ... .. . ... ... ... : E-3 01 4 ... ... ... : ... .. 4 P6A ... ...
ROW 80 : ... .. . P81 ... ... : ... .. . ... ... ... : ... .. . ... ... ... : 5-# 01 9 ... ... ... : ... .. . ... ... ... : ... .. . ... ... ... : B-1 00 . P8A ... ...
ROW 81 : ... .. . P82 ... ... : B-0 00 6 ... ... ... : A#2 00 . P88 ... ... : 6-# 01 8 ... ... ... : ... .. . ... ... ... : C#3 01 3 ... ... ... : F#2 00 . P8E ... ...
ROW 82 : ... .. . P83 ... ... : A#0 00 7 ... ... ... : A#1 00 . P80 ... ... : 7-# 01 7 ... ... ... : ... .. . ... ... ... : ... .. . ... ... ... : ... .. . P7B ... ...
ROW 83 : ... .. . P84 ... ... : ... .. . ... ... ... : ... .. . ... ... ... : 8-# 01 . ... ... ... : ... .. . ... ... ... : C#3 02 . ... ... ... : F-2 00 . P8C ... ...
ROW 84 : A-4 00 . P7D ... ... : ... .. 6 ... ... ... : ... .. . ... ... ... : 9-# 00 . ... ... ... : ... .. . ... ... ... : ... .. . ... ... ... : ... .. . P79 ... ...
ROW 85 : ... .. 9 P7E ... ... : ... .. 7 ... ... ... : --- .. . ... ... ... : 9-# 01 . ... ... ... : ... .. . ... ... ... : G#3 01 5 ... ... ... : F-3 00 . P86 ... ...
ROW 86 : ... .. . ... ... ... : ... .. . ... ... ... : ... .. . ... ... ... : 9-# 00 6 ... ... ... : ... .. . ... ... ... : ... .. . ... ... ... : E-3 00 . ... ... ...
ROW 87 : ... .. . ... ... ... : ... .. . ... ... ... : ... .. . ... ... ... : 9-# 01 . ... ... ... : ... .. . ... ... ... : F-3 01 4 ... ... ... : D#3 00 . P88 ... ...
ROW 88 : ... .. . ... ... ... : ... .. 6 ... ... ... : ... .. . ... ... ... : 9-# 00 . ... ... ... : ... .. . ... ... ... : ... .. . ... ... ... : D-3 00 . P8A ... ...
ROW 89 : ... .. . ... ... ... : ... .. 5 ... ... ... : ... .. . ... ... ... : ... .. . ... ... ... : ... .. . ... ... ... : F-3 02 . ... ... ... : ... .. . P77 ... ...
ROW 8A : ... .. 7 P7D ... ... : A#1 02 9 ... ... ... : A#2 00 . ... ... ... : E-# 00 7 ... ... ... : ... .. . ... ... ... : B-3 01 5 ... ... ... : C#3 00 . P7B ... ...
ROW 8B : G#4 00 . P84 ... ... : ... .. . ... ... ... : A#1 00 . ... ... ... : B-# 01 . ... ... ... : ... .. . ... ... ... : ... .. . ... ... ... : G#1 00 . P64 ... ...
ROW 8C : ... .. 6 P83 ... ... : B-0 02 8 ... ... ... : ... .. . ... ... ... : C-# 00 6 ... ... ... : ... .. . ... ... ... : G#3 01 4 ... ... ... : G-1 00 5 P91 ... ...
ROW 8D : ... .. . P82 ... ... : A#0 02 . ... ... ... : ... .. . ... ... ... : D-# 00 5 ... ... ... : ... .. . ... ... ... : ... .. . ... ... ... : ... .. . P7E ... ...
ROW 8E : ... .. 5 P81 ... ... : ... .. . ... ... ... : ... .. . ... ... ... : C-# 00 4 ... ... ... : ... .. . ... ... ... : G#3 02 . ... ... ... : ... .. . P6B ... ...
ROW 8F : ... .. 4 P80 ... ... : ... .. 7 ... ... ... : --- .. . ... ... ... : E-# 00 5 ... ... ... : ... .. . ... ... ... : E-4 01 5 ... ... ... : F#1 00 6 P9C ... ...
ROW 90 : ... .. . P7F ... ... : ... .. 8 ... ... ... : ... .. . ... ... ... : B-# 01 . ... ... ... : ... .. . ... ... ... : ... .. . ... ... ... : ... .. . P89 ... ...
ROW 91 : ... .. 3 P7E ... ... : ... .. 7 ... ... ... : ... .. . ... ... ... : C-# 00 4 ... ... ... : ... .. . ... ... ... : C#4 01 4 ... ... ... : B-1 00 . P8B ... ...
ROW 92 : ... .. . P7D ... ... : ... .. 6 ... ... ... : ... .. . ... ... ... : D-# 00 3 ... ... ... : ... .. . ... ... ... : ... .. . ... ... ... : ... .. . P78 ... ...
ROW 93 : G-4 00 2 P84 ... ... : ... .. 5 ... ... ... : ... .. . ... ... ... : C-# 00 . ... ... ... : ... .. . ... ... ... : C#4 02 . ... ... ... : A#1 00 5 P9B ... ...
ROW 94 : D-5 02 A P80 ... ... : A#1 00 9 ... ... ... : A#2 00 . ... ... ... : E-# 00 7 ... ... ... : ... .. . ... ... ... : G#4 01 5 ... ... ... : ... .. . P88 ... ...
ROW 95 : ... .. . ... ... ... : ... .. . ... ... ... : A#1 00 . ... ... ... : B-# 01 . ... ... ... : ... .. . ... ... ... : ... .. . ... ... ... : F#2 00 . P73 ... ...
ROW 96 : ... .. . ... ... ... : B-0 00 8 ... ... ... : ... .. . ... ... ... : C-# 00 6 ... ... ... : ... .. . ... ... ... : F-4 01 4 ... ... ... : F-2 00 . P84 ... ...
ROW 97 : ... .. . P81 ... ... : A#0 00 . ... ... ... : ... .. . ... ... ... : D-# 00 5 ... ... ... : ... .. . ... ... ... : ... .. . ... ... ... : ... .. . P71 ... ...
ROW 98 : D-5 00 . P82 ... ... : ... .. . ... ... ... : ... .. . ... ... ... : C-# 00 4 ... ... ... : ... .. . ... ... ... : F-4 02 . ... ... ... : E-2 00 4 P84 ... ...
ROW 99 : D#5 00 . P7E ... ... : ... .. 7 ... ... ... : --- .. . ... ... ... : E-# 00 5 ... ... ... : ... .. . ... ... ... : E-4 01 5 ... ... ... : ... .. . P71 ... ...
ROW 9A : ... .. 9 P7F ... ... : ... .. 8 ... ... ... : ... .. . ... ... ... : B-# 01 . ... ... ... : ... .. . ... ... ... : ... .. . ... ... ... : D#2 00 . P86 ... ...
ROW 9B : ... .. . P80 ... ... : ... .. 7 ... ... ... : ... .. . ... ... ... : C-# 00 4 ... ... ... : ... .. . ... ... ... : C#4 01 4 ... ... ... : D#1 00 . P9D ... ...
ROW 9C : ... .. . ... ... ... : ... .. . ... ... ... : ... .. . ... ... ... : D-# 00 3 ... ... ... : ... .. . ... ... ... : ... .. . ... ... ... : ... .. . P8A ... ...
ROW 9D : ... .. . ... ... ... : ... .. 6 ... ... ... : ... .. . ... ... ... : C-# 00 . ... ... ... : ... .. . ... ... ... : C#4 02 . ... ... ... : ... .. . P77 ... ...
ROW 9E : ... .. 8 ... ... ... : A#1 01 7 ... ... ... : E-4 00 . ... ... ... : D-# 00 6 ... ... ... : ... .. . ... ... ... : C#4 01 . ... ... ... : ... .. 3 P64 ... ...
ROW 9F : ... .. . ... ... ... : ... .. . ... ... ... : A#3 00 . P87 ... ... : 3-# 01 9 ... ... ... : ... .. . ... ... ... : ... .. . ... ... ... : D-1 00 4 PA7 ... ...
ROW A0 : ... .. . ... ... ... : B-0 01 6 ... ... ... : F#3 00 . P86 ... ... : 2-# 01 7 ... ... ... : ... .. . ... ... ... : A#3 01 3 ... ... ... : ... .. . P94 ... ...
ROW A1 : ... .. 9 ... ... ... : A#0 01 7 ... ... ... : A#1 00 . P80 ... ... : 2-# 00 6 ... ... ... : ... .. . ... ... ... : ... .. . ... ... ... : F#1 00 . P8A ... ...
ROW A2 : ... .. . ... ... ... : ... .. . ... ... ... : ... .. . ... ... ... : 1-# 00 . ... ... ... : ... .. . ... ... ... : A#3 02 . ... ... ... : ... .. 5 P77 ... ...
ROW A3 : ... .. . ... ... ... : ... .. 6 ... ... ... : ... .. . ... ... ... : ... .. 5 ... ... ... : ... .. . ... ... ... : ... .. . ... ... ... : ... .. . P64 ... ...
ROW A4 : ... .. . ... ... ... : ... .. 8 ... ... ... : --- .. . ... ... ... : E-# 00 2 ... ... ... : ... .. . ... ... ... : B-3 01 5 ... ... ... : F-1 00 6 P99 ... ...
ROW A5 : ... .. . ... ... ... : ... .. 7 ... ... ... : ... .. . ... ... ... : B-# 01 . ... ... ... : ... .. . ... ... ... : ... .. . ... ... ... : B-1 00 . P70 ... ...
ROW A6 : ... .. . ... ... ... : ... .. . ... ... ... : ... .. . ... ... ... : C-# 00 . ... ... ... : ... .. . ... ... ... : G#3 01 4 ... ... ... : A#1 00 5 P93 ... ...
ROW A7 : ... .. . ... ... ... : ... .. 6 ... ... ... : ... .. . ... ... ... : D-# 00 . ... ... ... : ... .. . ... ... ... : ... .. . ... ... ... : ... .. . P80 ... ...
ROW A8 : ... .. . ... ... ... : ... .. 5 ... ... ... : ... .. . ... ... ... : C-# 00 1 ... ... ... : ... .. . ... ... ... : G#3 02 . ... ... ... : ... .. . P6D ... ...
ROW A9 : ... .. 8 ... ... ... : A#1 02 7 ... ... ... : C-4 00 . P7F ... ... : A-# 00 A ... ... ... : ... .. . ... ... ... : E-4 01 . ... ... ... : A-1 00 4 P93 ... ...
ROW AA : ... .. . P81 ... ... : ... .. . ... ... ... : ... .. . ... ... ... : 5-# 01 9 ... ... ... : ... .. . ... ... ... : ... .. . ... ... ... : ... .. . P80 ... ...
ROW AB : ... .. . ... ... ... : B-0 02 . ... ... ... : A#1 00 . P80 ... ... : 6-# 01 8 ... ... ... : ... .. . ... ... ... : C#4 01 3 ... ... ... : C-1 00 3 P7D ... ...
ROW AC : ... .. . P82 ... ... : A#0 02 . ... ... ... : ... .. . ... ... ... : 7-# 01 7 ... ... ... : ... .. . ... ... ... : ... .. . ... ... ... : ... .. . P6A ... ...
ROW AD : ... .. . ... ... ... : ... .. . ... ... ... : ... .. . ... ... ... : 8-# 01 . ... ... ... : ... .. . ... ... ... : C#4 02 . ... ... ... : ... .. . P57 ... ...
ROW AE : ... .. 9 ... ... ... : ... .. . ... ... ... : --- .. . ... ... ... : 9-# 00 . ... ... ... : ... .. . ... ... ... : C#4 01 5 ... ... ... : B-0 00 4 PAA ... ...
ROW AF : E-5 00 . P7E ... ... : ... .. . ... ... ... : ... .. . ... ... ... : 9-# 01 . ... ... ... : ... .. . ... ... ... : ... .. . ... ... ... : ... .. . P97 ... ...
ROW B0 : ... .. . ... ... ... : ... .. . ... ... ... : ... .. . ... ... ... : 9-# 00 6 ... ... ... : ... .. . ... ... ... : A#3 01 4 ... ... ... : ... .. . P84 ... ...
ROW B1 : ... .. . ... ... ... : ... .. . ... ... ... : ... .. . ... ... ... : 9-# 01 . ... ... ... : ... .. . ... ... ... : ... .. . ... ... ... : D-1 00 . P95 ... ...
ROW B2 : ... .. . ... ... ... : ... .. 6 ... ... ... : ... .. . ... ... ... : 9-# 00 . ... ... ... : ... .. . ... ... ... : A#3 02 . ... ... ... : ... .. 5 P82 ... ...
ROW B3 : ... .. 7 ... ... ... : A#1 00 9 ... ... ... : A#2 00 . ... ... ... : E-# 00 7 ... ... ... : ... .. . ... ... ... : B-3 01 5 ... ... ... : ... .. . P6F ... ...
ROW B4 : D#5 00 . P82 ... ... : ... .. . ... ... ... : A#1 00 . ... ... ... : B-# 01 . ... ... ... : ... .. . ... ... ... : ... .. . ... ... ... : ... .. . P5C ... ...
ROW B5 : ... .. 6 ... ... ... : B-0 00 8 ... ... ... : ... .. . ... ... ... : C-# 00 6 ... ... ... : ... .. . ... ... ... : G#3 01 4 ... ... ... : F#1 00 6 P6F ... ...
ROW B6 : ... .. . ... ... ... : A#0 00 . ... ... ... : ... .. . ... ... ... : D-# 00 5 ... ... ... : ... .. . ... ... ... : ... .. . ... ... ... : F-1 00 . PA4 ... ...
ROW B7 : ... .. 5 P81 ... ... : ... .. . ... ... ... : ... .. . ... ... ... : C-# 00 4 ... ... ... : ... .. . ... ... ... : G#3 02 . ... ... ... : ... .. . P91 ... ...
ROW B8 : ... .. 4 ... ... ... : ... .. 7 ... ... ... : --- .. . ... ... ... : E-# 00 5 ... ... ... : ... .. . ... ... ... : G#3 01 5 ... ... ... : ... .. . P7E ... ...
ROW B9 : ... .. . P80 ... ... : ... .. 8 ... ... ... : ... .. . ... ... ... : B-# 01 . ... ... ... : ... .. . ... ... ... : ... .. . ... ... ... : ... .. 5 P6B ... ...
ROW BA : ... .. 3 P7F ... ... : ... .. 7 ... ... ... : ... .. . ... ... ... : C-# 00 4 ... ... ... : ... .. . ... ... ... : F-3 01 4 ... ... ... : E-1 00 . PA4 ... ...
ROW BB : ... .. . ... ... ... : ... .. . ... ... ... : ... .. . ... ... ... : D-# 00 3 ... ... ... : ... .. . ... ... ... : ... .. . ... ... ... : A-0 00 . P91 ... ...
ROW BC : ... .. 2 P7E ... ... : ... .. 6 ... ... ... : ... .. . ... ... ... : C-# 00 . ... ... ... : ... .. . ... ... ... : F-3 02 . ... ... ... : ... .. . P82 ... ...
ROW BD : ... .. . ... ... ... : ... .. 5 ... ... ... : ... .. . ... ... ... : D-# 00 . ... ... ... : ... .. . ... ... ... : ... .. . ... ... ... : ... .. . ... ... ...
ROW BE : D-5 02 9 P80 ... ... : D-2 02 7 ... ... ... : E-4 00 . ... ... ... : ... .. 6 ... ... ... : ... .. . ... ... ... : F-4 01 6 ... ... ... : A-2 00 4 P8B ... ...
ROW BF : ... .. . ... ... ... : ... .. . ... ... ... : A#3 00 . P87 ... ... : 3-# 01 9 ... ... ... : ... .. . ... ... ... : ... .. . ... ... ... : ... .. 5 P78 ... ...
ROW C0 : ... .. A ... ... ... : D#1 02 . ... ... ... : D-2 00 . P80 ... ... : 2-# 01 7 ... ... ... : ... .. . ... ... ... : ... .. 5 ... ... ... : G#2 00 . P84 ... ...
ROW C1 : ... .. . ... ... ... : D-1 02 . ... ... ... : ... .. . ... ... ... : 2-# 00 6 ... ... ... : ... .. . ... ... ... : F-3 01 . ... ... ... : ... .. 6 P71 ... ...
ROW C2 : D-5 00 . ... ... ... : ... .. . ... ... ... : ... .. . ... ... ... : 1-# 00 . ... ... ... : ... .. . ... ... ... : F-3 02 . ... ... ... : G-2 00 . P7E ... ...
ROW C3 : ... .. . ... ... ... : ... .. . ... ... ... : --- .. . ... ... ... : ... .. 5 ... ... ... : ... .. . ... ... ... : ... .. . ... ... ... : F#2 00 7 P8D ... ...
ROW C4 : ... .. 9 ... ... ... : ... .. 8 ... ... ... : ... .. . ... ... ... : ... .. 4 ... ... ... : ... .. . ... ... ... : ... .. . ... ... ... : D-4 00 . P7F ... ...
ROW C5 : ... .. . ... ... ... : ... .. 7 ... ... ... : ... .. . ... ... ... : ... .. . ... ... ... : ... .. . ... ... ... : ... .. . ... ... ... : C-4 00 . P84 ... ...
ROW C6 : ... .. . ... ... ... : ... .. 6 ... ... ... : ... .. . ... ... ... : ... .. 3 ... ... ... : ... .. . ... ... ... : ... .. 4 ... ... ... : B-3 00 8 P7D ... ...
ROW C7 : ... .. . ... ... ... : ... .. 5 ... ... ... : ... .. . ... ... ... : ... .. . ... ... ... : ... .. . ... ... ... : ... .. . ... ... ... : A-3 00 . P86 ... ...
ROW C8 : ... .. . ... ... ... : D-2 01 9 ... ... ... : D-3 00 . ... ... ... : E-# 00 7 ... ... ... : ... .. . ... ... ... : ... .. . ... ... ... : B-7 00 . P84 ... ...
ROW C9 : ... .. . ... ... ... : ... .. . ... ... ... : D-2 00 . ... ... ... : B-# 01 . ... ... ... : ... .. . ... ... ... : ... .. 3 ... ... ... : A#6 00 . P81 ... ...
ROW CA : ... .. . ... ... ... : D#1 01 8 ... ... ... : ... .. . ... ... ... : C-# 00 6 ... ... ... : ... .. . ... ... ... : ... .. . ... ... ... : D-6 00 . P80 ... ...
ROW CB : ... .. . ... ... ... : D-1 01 . ... ... ... : ... .. . ... ... ... : D-# 00 5 ... ... ... : ... .. . ... ... ... : ... .. . ... ... ... : G#5 00 7 ... ... ...
ROW CC : ... .. . ... ... ... : ... .. . ... ... ... : ... .. . ... ... ... : C-# 00 4 ... ... ... : ... .. . ... ... ... : ... .. 2 ... ... ... : E-5 00 . P7F ... ...
ROW CD : ... .. . ... ... ... : ... .. 7 ... ... ... : --- .. . ... ... ... : E-# 00 2 ... ... ... : ... .. . ... ... ... : ... .. . ... ... ... : C-5 00 . P82 ... ...
ROW CE : ... .. . ... ... ... : ... .. 8 ... ... ... : ... .. . ... ... ... : B-# 01 . ... ... ... : ... .. . ... ... ... : ... .. . ... ... ... : C#2 00 . P86 ... ...
ROW CF : ... .. . ... ... ... : ... .. 7 ... ... ... : ... .. . ... ... ... : C-# 00 . ... ... ... : ... .. . ... ... ... : ... .. 1 ... ... ... : ... .. 6 P73 ... ...
ROW D0 : ... .. . ... ... ... : ... .. . ... ... ... : ... .. . ... ... ... : D-# 00 . ... ... ... : ... .. . ... ... ... : ... .. . ... ... ... : C-2 00 . P90 ... ...
ROW D1 : ... .. . ... ... ... : ... .. 6 ... ... ... : ... .. . ... ... ... : C-# 00 1 ... ... ... : ... .. . ... ... ... : ... .. . ... ... ... : ... .. . P7D ... ...
ROW D2 : ... .. 8 ... ... ... : D-2 00 7 ... ... ... : C-4 00 . P7F ... ... : A-# 00 A ... ... ... : ... .. . ... ... ... : F-3 01 4 ... ... ... : ... .. 4 P6A ... ...
ROW D3 : ... .. . P81 ... ... : ... .. . ... ... ... : ... .. . ... ... ... : 5-# 01 9 ... ... ... : ... .. . ... ... ... : ... .. . ... ... ... : B-1 00 . P8A ... ...
ROW D4 : ... .. . P82 ... ... : D#1 00 6 ... ... ... : A#2 00 . P88 ... ... : 6-# 01 8 ... ... ... : ... .. . ... ... ... : D-3 01 3 ... ... ... : A-2 00 . P8D ... ...
ROW D5 : ... .. . ... ... ... : D-1 00 7 ... ... ... : D-2 00 . P80 ... ... : 7-# 01 7 ... ... ... : ... .. . ... ... ... : ... .. . ... ... ... : ... .. . P7A ... ...
ROW D6 : D#5 00 . P7E ... ... : ... .. . ... ... ... : ... .. . ... ... ... : 8-# 01 . ... ... ... : ... .. . ... ... ... : D-3 02 . ... ... ... : G#2 00 . P86 ... ...
ROW D7 : ... .. 9 ... ... ... : ... .. . ... ... ... : --- .. . ... ... ... : 9-# 00 . ... ... ... : ... .. . ... ... ... : G#3 01 5 ... ... ... : ... .. 5 P73 ... ...
ROW D8 : ... .. . P7F ... ... : ... .. . ... ... ... : ... .. . ... ... ... : 9-# 01 . ... ... ... : ... .. . ... ... ... : ... .. . ... ... ... : F-3 00 4 P86 ... ...
ROW D9 : ... .. . ... ... ... : ... .. . ... ... ... : ... .. . ... ... ... : 9-# 00 6 ... ... ... : ... .. . ... ... ... : F-3 01 4 ... ... ... : E-3 00 . ... ... ...
ROW DA : ... .. . ... ... ... : ... .. . ... ... ... : ... .. . ... ... ... : 9-# 01 . ... ... ... : ... .. . ... ... ... : ... .. . ... ... ... : D#3 00 . P88 ... ...
ROW DB : ... .. . ... ... ... : ... .. 6 ... ... ... : ... .. . ... ... ... : 9-# 00 . ... ... ... : ... .. . ... ... ... : F-3 02 . ... ... ... : D-3 00 . P8A ... ...
ROW DC : ... .. . ... ... ... : ... .. 5 ... ... ... : ... .. . ... ... ... : ... .. . ... ... ... : ... .. . ... ... ... : ... .. . ... ... ... : ... .. . P77 ... ...
ROW DD : ... .. 7 P7E ... ... : D-2 02 9 ... ... ... : D-3 00 . ... ... ... : E-# 00 7 ... ... ... : ... .. . ... ... ... : B-3 01 5 ... ... ... : C#3 00 . P7B ... ...
ROW DE : ... .. . ... ... ... : ... .. . ... ... ... : D-2 00 . ... ... ... : B-# 01 . ... ... ... : ... .. . ... ... ... : ... .. . ... ... ... : G#1 00 . P64 ... ...
ROW DF : D-5 00 6 P82 ... ... : D#1 02 8 ... ... ... : ... .. . ... ... ... : C-# 00 6 ... ... ... : ... .. . ... ... ... : G#3 01 4 ... ... ... : G-1 00 5 P91 ... ...
ROW E0 : ... .. . ... ... ... : D-1 02 . ... ... ... : ... .. . ... ... ... : D-# 00 5 ... ... ... : ... .. . ... ... ... : ... .. . ... ... ... : ... .. . P7E ... ...
ROW E1 : ... .. 5 P81 ... ... : ... .. . ... ... ... : ... .. . ... ... ... : C-# 00 4 ... ... ... : ... .. . ... ... ... : G#3 02 . ... ... ... : ... .. . P6B ... ...
ROW E2 : ... .. 4 P80 ... ... : ... .. 7 ... ... ... : --- .. . ... ... ... : E-# 00 5 ... ... ... : ... .. . ... ... ... : F-4 01 5 ... ... ... : F#1 00 6 P9C ... ...
ROW E3 : ... .. . P7F ... ... : ... .. 8 ... ... ... : ... .. . ... ... ... : B-# 01 . ... ... ... : ... .. . ... ... ... : ... .. . ... ... ... : ... .. . P89 ... ...
ROW E4 : ... .. 3 P7E ... ... : ... .. 7 ... ... ... : ... .. . ... ... ... : C-# 00 4 ... ... ... : ... .. . ... ... ... : D-4 01 4 ... ... ... : C#2 00 . P88 ... ...
ROW E5 : ... .. . ... ... ... : ... .. 6 ... ... ... : ... .. . ... ... ... : D-# 00 3 ... ... ... : ... .. . ... ... ... : ... .. . ... ... ... : ... .. . P75 ... ...
ROW E6 : C#5 00 2 P83 ... ... : ... .. 5 ... ... ... : ... .. . ... ... ... : C-# 00 . ... ... ... : ... .. . ... ... ... : D-4 02 . ... ... ... : C-2 00 5 P92 ... ...
ROW E7 : G#4 02 A P80 ... ... : D-2 00 9 ... ... ... : D-3 00 . ... ... ... : E-# 00 7 ... ... ... : ... .. . ... ... ... : G#4 01 5 ... ... ... : ... .. . P7F ... ...
ROW E8 : ... .. . ... ... ... : ... .. . ... ... ... : D-2 00 . ... ... ... : B-# 01 . ... ... ... : ... .. . ... ... ... : ... .. . ... ... ... : F#2 00 . P73 ... ...
ROW E9 : ... .. . ... ... ... : D#1 00 8 ... ... ... : ... .. . ... ... ... : C-# 00 6 ... ... ... : ... .. . ... ... ... : F-4 01 4 ... ... ... : F-2 00 . P84 ... ...
ROW EA : ... .. . ... ... ... : D-1 00 . ... ... ... : ... .. . ... ... ... : D-# 00 5 ... ... ... : ... .. . ... ... ... : ... .. . ... ... ... : ... .. . P71 ... ...
ROW EB : G#4 00 . ... ... ... : ... .. . ... ... ... : ... .. . ... ... ... : C-# 00 4 ... ... ... : ... .. . ... ... ... : F-4 02 . ... ... ... : E-2 00 4 P84 ... ...
ROW EC : ... .. . ... ... ... : ... .. 7 ... ... ... : --- .. . ... ... ... : E-# 00 5 ... ... ... : ... .. . ... ... ... : F-4 01 5 ... ... ... : ... .. . P71 ... ...
ROW ED : ... .. 9 ... ... ... : ... .. 8 ... ... ... : ... .. . ... ... ... : B-# 01 . ... ... ... : ... .. . ... ... ... : ... .. . ... ... ... : D#2 00 . P86 ... ...
ROW EE : ... .. . ... ... ... : ... .. 7 ... ... ... : ... .. . ... ... ... : C-# 00 4 ... ... ... : ... .. . ... ... ... : D-4 01 4 ... ... ... : D#1 00 . P9D ... ...
ROW EF : ... .. . ... ... ... : ... .. . ... ... ... : ... .. . ... ... ... : D-# 00 3 ... ... ... : ... .. . ... ... ... : ... .. . ... ... ... : ... .. . P8A ... ...
ROW F0 : ... .. . ... ... ... : ... .. 6 ... ... ... : ... .. . ... ... ... : C-# 00 . ... ... ... : ... .. . ... ... ... : D-4 02 . ... ... ... : ... .. . P77 ... ...
ROW F1 : ... .. 8 ... ... ... : D-3 00 7 ... ... ... : E-4 00 . ... ... ... : D-# 00 6 ... ... ... : ... .. . ... ... ... : C#4 01 . ... ... ... : ... .. 3 P64 ... ...
ROW F2 : ... .. . ... ... ... : ... .. . ... ... ... : A#3 00 . P87 ... ... : 3-# 01 9 ... ... ... : ... .. . ... ... ... : ... .. . ... ... ... : D-1 00 4 PA7 ... ...
ROW F3 : ... .. . ... ... ... : D#2 00 6 ... ... ... : F#3 00 . P86 ... ... : 2-# 01 7 ... ... ... : ... .. . ... ... ... : A#3 01 3 ... ... ... : ... .. . P94 ... ...
ROW F4 : ... .. 9 ... ... ... : D-2 00 7 ... ... ... : D-3 00 . P80 ... ... : 2-# 00 6 ... ... ... : ... .. . ... ... ... : ... .. . ... ... ... : G#1 00 . P66 ... ...
ROW F5 : ... .. . ... ... ... : ... .. . ... ... ... : ... .. . ... ... ... : 1-# 00 . ... ... ... : ... .. . ... ... ... : A#3 02 . ... ... ... : G-1 00 5 P93 ... ...
ROW F6 : ... .. . ... ... ... : D-2 01 . ... ... ... : --- .. . ... ... ... : E-# 00 2 ... ... ... : ... .. . ... ... ... : B-3 01 5 ... ... ... : ... .. 6 P80 ... ...
ROW F7 : ... .. . ... ... ... : ... .. 8 ... ... ... : ... .. . ... ... ... : B-# 01 . ... ... ... : ... .. . ... ... ... : ... .. . ... ... ... : ... .. . P6D ... ...
ROW F8 : ... .. . ... ... ... : ... .. 7 ... ... ... : ... .. . ... ... ... : C-# 00 . ... ... ... : ... .. . ... ... ... : G#3 01 4 ... ... ... : B-1 00 . P70 ... ...
ROW F9 : D-5 00 4 ... ... ... : ... .. . ... ... ... : ... .. . ... ... ... : D-# 00 . ... ... ... : ... .. . ... ... ... : ... .. . ... ... ... : A#1 00 5 P93 ... ...
ROW FA : ... .. . ... ... ... : ... .. 6 ... ... ... : ... .. . ... ... ... : C-# 00 1 ... ... ... : ... .. . ... ... ... : G#3 02 . ... ... ... : ... .. . P80 ... ...
ROW FB : ... .. . ... ... ... : ... .. 5 ... ... ... : ... .. . ... ... ... : D-# 00 . ... ... ... : ... .. . ... ... ... : ... .. . ... ... ... : ... .. . P6D ... ...
ROW FC : A#4 02 9 ... ... ... : D-2 02 7 ... ... ... : C-4 00 . P7F ... ... : A-# 00 A ... ... ... : ... .. . ... ... ... : F-4 01 . ... ... ... : A-1 00 4 P93 ... ...
ROW FD : ... .. . ... ... ... : ... .. . ... ... ... : ... .. . ... ... ... : 5-# 01 9 ... ... ... : ... .. . ... ... ... : ... .. . ... ... ... : ... .. . P80 ... ...
ROW FE : ... .. . ... ... ... : D#1 02 . ... ... ... : D-2 00 . P80 ... ... : 6-# 01 8 ... ... ... : ... .. . ... ... ... : D-4 01 3 ... ... ... : C-1 00 3 P7D ... ...
ROW FF : ... .. . ... ... ... : D-1 02 . ... ... ... : ... .. . ... ... ... : 7-# 01 7 ... ... ... : ... .. . ... ... ... : ... .. . ... ... ... : ... .. . P6A ... ...

PATTERN 09
ROW 00 : A#4 00 . ... ... ... : ... .. . ... ... ... : ... .. . ... ... ... : 8-# 01 . ... ... ... : ... .. . ... ... ... : D-4 02 . ... ... ... : ... .. . P57 ... ...
ROW 01 : ... .. A ... ... ... : ... .. . ... ... ... : --- .. . ... ... ... : 9-# 00 . ... ... ... : ... .. . ... ... ... : C#4 01 5 ... ... ... : B-0 00 4 PAA ... ...
ROW 02 : ... .. 9 ... ... ... : ... .. . ... ... ... : ... .. . ... ... ... : 9-# 01 . ... ... ... : ... .. . ... ... ... : ... .. . ... ... ... : ... .. . P97 ... ...
ROW 03 : ... .. . ... ... ... : ... .. . ... ... ... : ... .. . ... ... ... : 9-# 00 6 ... ... ... : ... .. . ... ... ... : A#3 01 4 ... ... ... : ... .. . P84 ... ...
ROW 04 : ... .. . ... ... ... : ... .. 6 ... ... ... : ... .. . ... ... ... : 9-# 01 . ... ... ... : ... .. . ... ... ... : ... .. . ... ... ... : D#1 00 . P9F ... ...
ROW 05 : ... .. . ... ... ... : ... .. 5 ... ... ... : ... .. . ... ... ... : 9-# 00 . ... ... ... : ... .. . ... ... ... : A#3 02 . ... ... ... : ... .. 5 P8C ... ...
ROW 06 : G#4 00 4 ... ... ... : D-2 01 9 ... ... ... : D-3 00 . ... ... ... : E-# 00 7 ... ... ... : ... .. . ... ... ... : B-3 01 5 ... ... ... : ... .. . P79 ... ...
ROW 07 : ... .. . ... ... ... : ... .. . ... ... ... : D-2 00 . ... ... ... : B-# 01 . ... ... ... : ... .. . ... ... ... : ... .. . ... ... ... : ... .. . P66 ... ...
ROW 08 : ... .. . ... ... ... : D#1 01 8 ... ... ... : ... .. . ... ... ... : C-# 00 6 ... ... ... : ... .. . ... ... ... : G#3 01 4 ... ... ... : F#1 00 6 P6F ... ...
ROW 09 : ... .. . ... ... ... : D-1 01 . ... ... ... : ... .. . ... ... ... : D-# 00 5 ... ... ... : ... .. . ... ... ... : ... .. . ... ... ... : F-1 00 . PA4 ... ...
ROW 0A : ... .. . ... ... ... : ... .. . ... ... ... : ... .. . ... ... ... : C-# 00 4 ... ... ... : ... .. . ... ... ... : G#3 02 . ... ... ... : ... .. . P91 ... ...
ROW 0B : ... .. . ... ... ... : ... .. 7 ... ... ... : --- .. . ... ... ... : E-# 00 5 ... ... ... : ... .. . ... ... ... : G#3 01 5 ... ... ... : ... .. . P7E ... ...
ROW 0C : ... .. 3 ... ... ... : ... .. 8 ... ... ... : ... .. . ... ... ... : B-# 01 . ... ... ... : ... .. . ... ... ... : ... .. . ... ... ... : ... .. 5 P6B ... ...
ROW 0D : ... .. . ... ... ... : ... .. 7 ... ... ... : ... .. . ... ... ... : C-# 00 4 ... ... ... : ... .. . ... ... ... : F-3 01 4 ... ... ... : E-1 00 . PA4 ... ...
ROW 0E : ... .. . ... ... ... : ... .. . ... ... ... : ... .. . ... ... ... : D-# 00 3 ... ... ... : ... .. . ... ... ... : ... .. . ... ... ... : A-0 00 . P91 ... ...
ROW 0F : ... .. . ... ... ... : ... .. 6 ... ... ... : ... .. . ... ... ... : C-# 00 . ... ... ... : ... .. . ... ... ... : F-3 02 . ... ... ... : ... .. . P82 ... ...
ROW 10 : B-4 02 9 ... ... ... : B-1 02 7 ... ... ... : E-4 00 . ... ... ... : D-# 00 6 ... ... ... : ... .. . ... ... ... : D#4 01 6 ... ... ... : A#2 00 4 P8A ... ...
ROW 11 : ... .. . ... ... ... : ... .. . ... ... ... : A#3 00 . P87 ... ... : 3-# 01 9 ... ... ... : ... .. . ... ... ... : ... .. . ... ... ... : ... .. 5 P76 ... ...
ROW 12 : ... .. . ... ... ... : C-1 02 6 ... ... ... : F#3 00 . P86 ... ... : 2-# 01 7 ... ... ... : ... .. . ... ... ... : ... .. 5 ... ... ... : A-2 00 . P7F ... ...
ROW 13 : ... .. A ... ... ... : B-0 02 7 ... ... ... : B-1 00 . P80 ... ... : 2-# 00 6 ... ... ... : ... .. . ... ... ... : D#3 01 . ... ... ... : G#2 00 6 P8A ... ...
ROW 14 : B-4 00 . ... ... ... : ... .. . ... ... ... : ... .. . ... ... ... : 1-# 00 . ... ... ... : ... .. . ... ... ... : D#3 02 . ... ... ... : ... .. . P77 ... ...
ROW 15 : ... .. . ... ... ... : ... .. 6 ... ... ... : ... .. . ... ... ... : ... .. 5 ... ... ... : ... .. . ... ... ... : ... .. 4 ... ... ... : G-2 00 . P83 ... ...
ROW 16 : ... .. 9 ... ... ... : ... .. 8 ... ... ... : --- .. . ... ... ... : ... .. 4 ... ... ... : ... .. . ... ... ... : ... .. 5 ... ... ... : E-4 00 7 ... ... ...
ROW 17 : ... .. . ... ... ... : ... .. 7 ... ... ... : ... .. . ... ... ... : ... .. . ... ... ... : ... .. . ... ... ... : ... .. . ... ... ... : D-4 00 . ... ... ...
ROW 18 : ... .. . ... ... ... : ... .. . ... ... ... : ... .. . ... ... ... : ... .. 3 ... ... ... : ... .. . ... ... ... : ... .. 4 ... ... ... : C#4 00 8 P7C ... ...
ROW 19 : ... .. . ... ... ... : ... .. 6 ... ... ... : ... .. . ... ... ... : ... .. . ... ... ... : ... .. . ... ... ... : ... .. . ... ... ... : B-3 00 . P80 ... ...
ROW 1A : ... .. . ... ... ... : ... .. 5 ... ... ... : ... .. . ... ... ... : ... .. . ... ... ... : ... .. . ... ... ... : ... .. . ... ... ... : A-0 00 . P7E ... ...
ROW 1B : ... .. . ... ... ... : B-1 01 9 ... ... ... : B-2 00 . ... ... ... : E-# 00 7 ... ... ... : ... .. . ... ... ... : ... .. 3 ... ... ... : B-7 00 . P86 ... ...
ROW 1C : ... .. . P81 ... ... : ... .. . ... ... ... : B-1 00 . ... ... ... : B-# 01 . ... ... ... : ... .. . ... ... ... : ... .. . ... ... ... : C-7 00 . P80 ... ...
ROW 1D : ... .. . P82 ... ... : C-1 01 8 ... ... ... : ... .. . ... ... ... : C-# 00 6 ... ... ... : ... .. . ... ... ... : ... .. . ... ... ... : D-6 00 7 P81 ... ...
ROW 1E : ... .. . ... ... ... : B-0 01 . ... ... ... : ... .. . ... ... ... : D-# 00 5 ... ... ... : ... .. . ... ... ... : ... .. 2 ... ... ... : G#5 00 . ... ... ...
ROW 1F : ... .. . P83 ... ... : ... .. . ... ... ... : ... .. . ... ... ... : C-# 00 4 ... ... ... : ... .. . ... ... ... : ... .. . ... ... ... : E-5 00 . P7F ... ...
ROW 20 : ... .. . ... ... ... : ... .. 7 ... ... ... : --- .. . ... ... ... : E-# 00 2 ... ... ... : ... .. . ... ... ... : ... .. . ... ... ... : D-2 00 . P6C ... ...
ROW 21 : C-5 00 . P7E ... ... : ... .. 8 ... ... ... : ... .. . ... ... ... : B-# 01 . ... ... ... : ... .. . ... ... ... : ... .. 1 ... ... ... : C#2 00 6 P85 ... ...
ROW 22 : A#4 00 4 P80 ... ... : ... .. 7 ... ... ... : ... .. . ... ... ... : C-# 00 . ... ... ... : ... .. . ... ... ... : ... .. . ... ... ... : ... .. . P72 ... ...
ROW 23 : ... .. . ... ... ... : ... .. 6 ... ... ... : ... .. . ... ... ... : D-# 00 . ... ... ... : ... .. . ... ... ... : ... .. . ... ... ... : C-2 00 . P8E ... ...
ROW 24 : ... .. . ... ... ... : ... .. 5 ... ... ... : ... .. . ... ... ... : C-# 00 1 ... ... ... : ... .. . ... ... ... : ... .. . ... ... ... : ... .. . P7B ... ...
ROW 25 : A#4 02 9 ... ... ... : B-1 00 7 ... ... ... : C-4 00 . P7F ... ... : A-# 00 A ... ... ... : ... .. . ... ... ... : F#3 01 4 ... ... ... : ... .. 4 P67 ... ...
ROW 26 : ... .. . ... ... ... : ... .. . ... ... ... : ... .. . ... ... ... : 5-# 01 9 ... ... ... : ... .. . ... ... ... : ... .. . ... ... ... : A#2 00 . P81 ... ...
ROW 27 : ... .. . ... ... ... : C-1 00 6 ... ... ... : A#2 00 . P88 ... ... : 6-# 01 8 ... ... ... : ... .. . ... ... ... : D#3 01 3 ... ... ... : A-2 00 . P89 ... ...
ROW 28 : ... .. . ... ... ... : B-0 00 7 ... ... ... : B-1 00 . P80 ... ... : 7-# 01 7 ... ... ... : ... .. . ... ... ... : ... .. . ... ... ... : ... .. . P76 ... ...
ROW 29 : A#4 00 . ... ... ... : ... .. . ... ... ... : ... .. . ... ... ... : 8-# 01 . ... ... ... : ... .. . ... ... ... : D#3 02 . ... ... ... : G#2 00 . P81 ... ...
ROW 2A : ... .. A ... ... ... : ... .. . ... ... ... : --- .. . ... ... ... : 9-# 00 . ... ... ... : ... .. . ... ... ... : A-3 01 5 ... ... ... : F#3 00 . P82 ... ...
ROW 2B : ... .. 9 ... ... ... : ... .. . ... ... ... : ... .. . ... ... ... : 9-# 01 . ... ... ... : ... .. . ... ... ... : ... .. . ... ... ... : F-3 00 . P80 ... ...
ROW 2C : ... .. . ... ... ... : ... .. . ... ... ... : ... .. . ... ... ... : 9-# 00 6 ... ... ... : ... .. . ... ... ... : F#3 01 4 ... ... ... : E-3 00 . ... ... ...
ROW 2D : ... .. . ... ... ... : ... .. . ... ... ... : ... .. . ... ... ... : 9-# 01 . ... ... ... : ... .. . ... ... ... : ... .. . ... ... ... : D#3 00 . P81 ... ...
ROW 2E : ... .. . ... ... ... : ... .. 6 ... ... ... : ... .. . ... ... ... : 9-# 00 . ... ... ... : ... .. . ... ... ... : F#3 02 . ... ... ... : D-3 00 . P83 ... ...
ROW 2F : ... .. . ... ... ... : B-1 02 9 ... ... ... : B-2 00 . ... ... ... : E-# 00 7 ... ... ... : ... .. . ... ... ... : D-4 01 5 ... ... ... : C#3 00 . P86 ... ...
ROW 30 : ... .. . ... ... ... : ... .. . ... ... ... : B-1 00 . ... ... ... : B-# 01 . ... ... ... : ... .. . ... ... ... : ... .. . ... ... ... : G#1 00 . P6F ... ...
ROW 31 : ... .. . ... ... ... : C-1 02 8 ... ... ... : ... .. . ... ... ... : C-# 00 6 ... ... ... : ... .. . ... ... ... : B-3 01 4 ... ... ... : G-1 00 5 P9B ... ...
ROW 32 : B-4 00 4 ... ... ... : B-0 02 . ... ... ... : ... .. . ... ... ... : D-# 00 5 ... ... ... : ... .. . ... ... ... : ... .. . ... ... ... : ... .. . P88 ... ...
ROW 33 : ... .. . ... ... ... : ... .. . ... ... ... : ... .. . ... ... ... : C-# 00 4 ... ... ... : ... .. . ... ... ... : B-3 02 . ... ... ... : ... .. . P74 ... ...
ROW 34 : ... .. . ... ... ... : ... .. 7 ... ... ... : ... .. . ... ... ... : D-# 00 . ... ... ... : ... .. . ... ... ... : ... .. . ... ... ... : ... .. 6 P61 ... ...
ROW 35 : ... .. . ... ... ... : ... .. 8 ... ... ... : --- .. . ... ... ... : E-# 00 5 ... ... ... : ... .. . ... ... ... : F#4 01 5 ... ... ... : F#1 00 . P91 ... ...
ROW 36 : ... .. . ... ... ... : ... .. 7 ... ... ... : ... .. . ... ... ... : B-# 01 . ... ... ... : ... .. . ... ... ... : ... .. . ... ... ... : C#2 00 . P90 ... ...
ROW 37 : ... .. . ... ... ... : ... .. . ... ... ... : ... .. . ... ... ... : C-# 00 4 ... ... ... : ... .. . ... ... ... : D#4 01 4 ... ... ... : ... .. . P7C ... ...
ROW 38 : ... .. 3 ... ... ... : ... .. 6 ... ... ... : ... .. . ... ... ... : D-# 00 3 ... ... ... : ... .. . ... ... ... : ... .. . ... ... ... : ... .. 5 P69 ... ...
ROW 39 : ... .. . ... ... ... : ... .. 5 ... ... ... : ... .. . ... ... ... : C-# 00 . ... ... ... : ... .. . ... ... ... : D#4 02 . ... ... ... : C-2 00 . P85 ... ...
ROW 3A : G#4 02 A ... ... ... : B-1 00 9 ... ... ... : B-2 00 . ... ... ... : E-# 00 7 ... ... ... : ... .. . ... ... ... : A-4 01 5 ... ... ... : F#2 00 . P79 ... ...
ROW 3B : ... .. . ... ... ... : ... .. . ... ... ... : B-1 00 . ... ... ... : B-# 01 . ... ... ... : ... .. . ... ... ... : ... .. . ... ... ... : F-2 00 . P89 ... ...
ROW 3C : ... .. . ... ... ... : C-1 00 8 ... ... ... : ... .. . ... ... ... : C-# 00 6 ... ... ... : ... .. . ... ... ... : F#4 01 4 ... ... ... : ... .. . P76 ... ...
ROW 3D : ... .. . ... ... ... : B-0 00 . ... ... ... : ... .. . ... ... ... : D-# 00 5 ... ... ... : ... .. . ... ... ... : ... .. . ... ... ... : E-2 00 4 P88 ... ...
ROW 3E : G#4 00 . ... ... ... : ... .. . ... ... ... : ... .. . ... ... ... : C-# 00 4 ... ... ... : ... .. . ... ... ... : F#4 02 . ... ... ... : ... .. . P75 ... ...
ROW 3F : ... .. . ... ... ... : ... .. 7 ... ... ... : --- .. . ... ... ... : E-# 00 5 ... ... ... : ... .. . ... ... ... : F#4 01 5 ... ... ... : D#2 00 . P89 ... ...
ROW 40 : ... .. 9 ... ... ... : ... .. 8 ... ... ... : ... .. . ... ... ... : B-# 01 . ... ... ... : ... .. . ... ... ... : ... .. . ... ... ... : D#1 00 . PA0 ... ...
ROW 41 : ... .. . ... ... ... : ... .. 7 ... ... ... : ... .. . ... ... ... : C-# 00 4 ... ... ... : ... .. . ... ... ... : D#4 01 4 ... ... ... : ... .. . P8C ... ...
ROW 42 : ... .. . ... ... ... : ... .. . ... ... ... : ... .. . ... ... ... : D-# 00 3 ... ... ... : ... .. . ... ... ... : ... .. . ... ... ... : ... .. . P79 ... ...
ROW 43 : ... .. . ... ... ... : ... .. 6 ... ... ... : ... .. . ... ... ... : C-# 00 . ... ... ... : ... .. . ... ... ... : D#4 02 . ... ... ... : ... .. . P65 ... ...
ROW 44 : ... .. 8 ... ... ... : B-1 01 7 ... ... ... : E-4 00 . ... ... ... : D-# 00 6 ... ... ... : ... .. . ... ... ... : D-4 01 . ... ... ... : D-1 00 . PA8 ... ...
ROW 45 : ... .. . P81 ... ... : ... .. . ... ... ... : A#3 00 . P87 ... ... : 3-# 01 9 ... ... ... : ... .. . ... ... ... : ... .. . ... ... ... : ... .. . P94 ... ...
ROW 46 : ... .. . P82 ... ... : C-1 01 6 ... ... ... : F#3 00 . P86 ... ... : 2-# 01 7 ... ... ... : ... .. . ... ... ... : B-3 01 3 ... ... ... : G#1 00 . P66 ... ...
ROW 47 : ... .. 9 ... ... ... : B-0 01 7 ... ... ... : B-1 00 . P80 ... ... : 2-# 00 6 ... ... ... : ... .. . ... ... ... : ... .. . ... ... ... : G-1 00 5 P92 ... ...
ROW 48 : ... .. . P83 ... ... : ... .. . ... ... ... : ... .. . ... ... ... : 1-# 00 . ... ... ... : ... .. . ... ... ... : B-3 02 . ... ... ... : ... .. . P7F ... ...
ROW 49 : ... .. . ... ... ... : ... .. . ... ... ... : --- .. . ... ... ... : E-# 00 2 ... ... ... : ... .. . ... ... ... : A-3 01 5 ... ... ... : ... .. 6 P6B ... ...
ROW 4A : ... .. . P84 ... ... : ... .. 8 ... ... ... : ... .. . ... ... ... : B-# 01 . ... ... ... : ... .. . ... ... ... : ... .. . ... ... ... : B-1 00 . P6E ... ...
ROW 4B : ... .. . ... ... ... : ... .. 7 ... ... ... : ... .. . ... ... ... : C-# 00 . ... ... ... : ... .. . ... ... ... : F#3 01 4 ... ... ... : A#1 00 5 P90 ... ...
ROW 4C : A#4 00 4 P80 ... ... : ... .. . ... ... ... : ... .. . ... ... ... : D-# 00 . ... ... ... : ... .. . ... ... ... : ... .. . ... ... ... : ... .. . P7D ... ...
ROW 4D : ... .. . ... ... ... : ... .. 6 ... ... ... : ... .. . ... ... ... : C-# 00 1 ... ... ... : ... .. . ... ... ... : F#3 02 . ... ... ... : ... .. . P69 ... ...
ROW 4E : F#4 02 9 ... ... ... : B-1 02 7 ... ... ... : C-4 00 . P7F ... ... : A-# 00 A ... ... ... : ... .. . ... ... ... : D-4 01 . ... ... ... : A-1 00 4 P8F ... ...
ROW 4F : ... .. . ... ... ... : ... .. . ... ... ... : ... .. . ... ... ... : 5-# 01 9 ... ... ... : ... .. . ... ... ... : ... .. . ... ... ... : ... .. . P7B ... ...
ROW 50 : ... .. . ... ... ... : C-1 02 6 ... ... ... : A#2 00 . P88 ... ... : 6-# 01 8 ... ... ... : ... .. . ... ... ... : B-3 01 3 ... ... ... : C-1 00 3 P78 ... ...
ROW 51 : ... .. . ... ... ... : B-0 02 7 ... ... ... : B-1 00 . P80 ... ... : 7-# 01 7 ... ... ... : ... .. . ... ... ... : ... .. . ... ... ... : ... .. . P64 ... ...
ROW 52 : F#4 00 . ... ... ... : ... .. . ... ... ... : ... .. . ... ... ... : 8-# 01 . ... ... ... : ... .. . ... ... ... : B-3 02 . ... ... ... : ... .. . P51 ... ...
ROW 53 : ... .. . ... ... ... : ... .. 6 ... ... ... : ... .. . ... ... ... : 9-# 00 . ... ... ... : ... .. . ... ... ... : ... .. . ... ... ... : B-0 00 . PA3 ... ...
ROW 54 : ... .. . ... ... ... : ... .. 7 ... ... ... : --- .. . ... ... ... : 9-# 01 . ... ... ... : ... .. . ... ... ... : A-3 01 5 ... ... ... : ... .. 4 P90 ... ...
ROW 55 : ... .. . ... ... ... : ... .. . ... ... ... : ... .. . ... ... ... : 9-# 00 6 ... ... ... : ... .. . ... ... ... : ... .. . ... ... ... : ... .. . P7C ... ...
ROW 56 : ... .. . ... ... ... : ... .. . ... ... ... : ... .. . ... ... ... : 9-# 01 . ... ... ... : ... .. . ... ... ... : F#3 01 4 ... ... ... : D#1 00 . P97 ... ...
ROW 57 : ... .. . ... ... ... : ... .. 6 ... ... ... : ... .. . ... ... ... : 9-# 00 . ... ... ... : ... .. . ... ... ... : ... .. . ... ... ... : ... .. 5 P83 ... ...
ROW 58 : ... .. . ... ... ... : ... .. 5 ... ... ... : ... .. . ... ... ... : ... .. . ... ... ... : ... .. . ... ... ... : F#3 02 . ... ... ... : ... .. . P70 ... ...
ROW 59 : ... .. . ... ... ... : B-1 00 9 ... ... ... : B-2 00 . ... ... ... : E-# 00 7 ... ... ... : ... .. . ... ... ... : F#3 01 5 ... ... ... : ... .. . P5C ... ...
ROW 5A : ... .. . ... ... ... : ... .. . ... ... ... : B-1 00 . ... ... ... : B-# 01 . ... ... ... : ... .. . ... ... ... : ... .. . ... ... ... : F#1 00 6 P65 ... ...
ROW 5B : G#4 00 4 ... ... ... : C-1 00 8 ... ... ... : ... .. . ... ... ... : C-# 00 6 ... ... ... : ... .. . ... ... ... : D#3 01 4 ... ... ... : F-1 00 . P99 ... ...
ROW 5C : ... .. . ... ... ... : B-0 00 . ... ... ... : ... .. . ... ... ... : D-# 00 5 ... ... ... : ... .. . ... ... ... : ... .. . ... ... ... : ... .. . P86 ... ...
ROW 5D : ... .. . ... ... ... : ... .. . ... ... ... : ... .. . ... ... ... : C-# 00 4 ... ... ... : ... .. . ... ... ... : D#3 02 . ... ... ... : ... .. . P72 ... ...
ROW 5E : ... .. . ... ... ... : ... .. 7 ... ... ... : --- .. . ... ... ... : E-# 00 5 ... ... ... : ... .. . ... ... ... : D-3 01 5 ... ... ... : ... .. 5 P5F ... ...
ROW 5F : ... .. . ... ... ... : ... .. 8 ... ... ... : ... .. . ... ... ... : B-# 01 . ... ... ... : ... .. . ... ... ... : ... .. . ... ... ... : E-1 00 . P97 ... ...
ROW 60 : ... .. . ... ... ... : ... .. 7 ... ... ... : ... .. . ... ... ... : C-# 00 4 ... ... ... : ... .. . ... ... ... : B-2 01 4 ... ... ... : A-0 00 . P84 ... ...
ROW 61 : ... .. 3 ... ... ... : ... .. . ... ... ... : ... .. . ... ... ... : D-# 00 3 ... ... ... : ... .. . ... ... ... : ... .. . ... ... ... : ... .. . P82 ... ...
ROW 62 : ... .. . ... ... ... : ... .. 6 ... ... ... : ... .. . ... ... ... : C-# 00 . ... ... ... : ... .. . ... ... ... : B-2 02 . ... ... ... : ... .. . ... ... ...
ROW 63 : G#4 02 9 ... ... ... : C-2 02 7 ... ... ... : E-4 00 . ... ... ... : D-# 00 6 ... ... ... : ... .. . ... ... ... : G#4 01 6 ... ... ... : B-2 00 4 P88 ... ...
ROW 64 : ... .. . ... ... ... : ... .. . ... ... ... : A#3 00 . P87 ... ... : 3-# 01 9 ... ... ... : ... .. . ... ... ... : ... .. . ... ... ... : ... .. 5 P74 ... ...
ROW 65 : ... .. . ... ... ... : C#1 02 6 ... ... ... : F#3 00 . P86 ... ... : 2-# 01 7 ... ... ... : ... .. . ... ... ... : ... .. 5 ... ... ... : A#2 00 . P7C ... ...
ROW 66 : ... .. A ... ... ... : C-1 02 7 ... ... ... : C-2 00 . P80 ... ... : 2-# 00 6 ... ... ... : ... .. . ... ... ... : G#3 01 . ... ... ... : A-2 00 6 P84 ... ...
ROW 67 : G#4 00 . ... ... ... : ... .. . ... ... ... : ... .. . ... ... ... : 1-# 00 . ... ... ... : ... .. . ... ... ... : G#3 02 . ... ... ... : ... .. . P71 ... ...
ROW 68 : ... .. . ... ... ... : ... .. . ... ... ... : --- .. . ... ... ... : ... .. 5 ... ... ... : ... .. . ... ... ... : ... .. . ... ... ... : G#2 00 7 P7C ... ...
ROW 69 : ... .. 9 ... ... ... : ... .. 8 ... ... ... : ... .. . ... ... ... : ... .. 4 ... ... ... : ... .. . ... ... ... : ... .. . ... ... ... : A#3 00 . P82 ... ...
ROW 6A : ... .. . ... ... ... : ... .. 7 ... ... ... : ... .. . ... ... ... : ... .. . ... ... ... : ... .. . ... ... ... : ... .. . ... ... ... : A-3 00 . P7C ... ...
ROW 6B : ... .. . ... ... ... : ... .. . ... ... ... : ... .. . ... ... ... : ... .. 3 ... ... ... : ... .. . ... ... ... : ... .. 4 ... ... ... : G-3 00 8 P88 ... ...
ROW 6C : ... .. . ... ... ... : ... .. 6 ... ... ... : ... .. . ... ... ... : ... .. . ... ... ... : ... .. . ... ... ... : ... .. . ... ... ... : F#3 00 . P85 ... ...
ROW 6D : ... .. . ... ... ... : ... .. 5 ... ... ... : ... .. . ... ... ... : ... .. . ... ... ... : ... .. . ... ... ... : ... .. . ... ... ... : A#0 00 . P71 ... ...
ROW 6E : ... .. . ... ... ... : C-2 01 9 ... ... ... : C-3 00 . ... ... ... : E-# 00 7 ... ... ... : ... .. . ... ... ... : ... .. 3 ... ... ... : ... .. . P5D ... ...
ROW 6F : ... .. . P82 ... ... : ... .. . ... ... ... : C-2 00 . ... ... ... : B-# 01 . ... ... ... : ... .. . ... ... ... : ... .. . ... ... ... : ... .. . P4A ... ...
ROW 70 : ... .. . P83 ... ... : C#1 01 8 ... ... ... : ... .. . ... ... ... : C-# 00 6 ... ... ... : ... .. . ... ... ... : ... .. . ... ... ... : A-0 00 7 PA8 ... ...
ROW 71 : A-4 00 . P7D ... ... : C-1 01 . ... ... ... : ... .. . ... ... ... : D-# 00 5 ... ... ... : ... .. . ... ... ... : ... .. 2 ... ... ... : ... .. . P95 ... ...
ROW 72 : ... .. . P7E ... ... : ... .. . ... ... ... : ... .. . ... ... ... : C-# 00 4 ... ... ... : ... .. . ... ... ... : ... .. . ... ... ... : ... .. . P81 ... ...
ROW 73 : G#4 00 . P84 ... ... : ... .. 7 ... ... ... : --- .. . ... ... ... : E-# 00 2 ... ... ... : ... .. . ... ... ... : ... .. . ... ... ... : D-2 00 . P85 ... ...
ROW 74 : ... .. . P81 ... ... : ... .. 8 ... ... ... : ... .. . ... ... ... : B-# 01 . ... ... ... : ... .. . ... ... ... : ... .. 1 ... ... ... : ... .. 6 P71 ... ...
ROW 75 : F#4 00 4 P80 ... ... : ... .. 7 ... ... ... : ... .. . ... ... ... : C-# 00 . ... ... ... : ... .. . ... ... ... : ... .. . ... ... ... : C#2 00 . P8B ... ...
ROW 76 : ... .. . ... ... ... : ... .. 6 ... ... ... : ... .. . ... ... ... : D-# 00 . ... ... ... : ... .. . ... ... ... : ... .. . ... ... ... : ... .. . P77 ... ...
ROW 77 : ... .. . ... ... ... : ... .. 5 ... ... ... : ... .. . ... ... ... : C-# 00 1 ... ... ... : ... .. . ... ... ... : ... .. . ... ... ... : C-2 00 . P94 ... ...
ROW 78 : D#4 02 9 ... ... ... : C-2 00 7 ... ... ... : C-4 00 . P7F ... ... : A-# 00 A ... ... ... : ... .. . ... ... ... : F#3 01 4 ... ... ... : ... .. 4 P80 ... ...
ROW 79 : ... .. . ... ... ... : ... .. . ... ... ... : ... .. . ... ... ... : 5-# 01 9 ... ... ... : ... .. . ... ... ... : ... .. . ... ... ... : G#2 00 . P75 ... ...
ROW 7A : ... .. . ... ... ... : C#1 00 6 ... ... ... : A#2 00 . P88 ... ... : 6-# 01 8 ... ... ... : ... .. . ... ... ... : D#3 01 3 ... ... ... : G-2 00 . P81 ... ...
ROW 7B : ... .. . ... ... ... : C-1 00 7 ... ... ... : C-2 00 . P80 ... ... : 7-# 01 7 ... ... ... : ... .. . ... ... ... : ... .. . ... ... ... : F#2 00 . P90 ... ...
ROW 7C : D#4 00 . ... ... ... : ... .. . ... ... ... : ... .. . ... ... ... : 8-# 01 . ... ... ... : ... .. . ... ... ... : D#3 02 . ... ... ... : ... .. . P7C ... ...
ROW 7D : ... .. A ... ... ... : ... .. . ... ... ... : --- .. . ... ... ... : 9-# 00 . ... ... ... : ... .. . ... ... ... : B-3 01 5 ... ... ... : C#4 00 . P83 ... ...
ROW 7E : ... .. 9 ... ... ... : ... .. . ... ... ... : ... .. . ... ... ... : 9-# 01 . ... ... ... : ... .. . ... ... ... : ... .. . ... ... ... : C-4 00 . P7B ... ...
ROW 7F : ... .. . ... ... ... : ... .. . ... ... ... : ... .. . ... ... ... : 9-# 00 6 ... ... ... : ... .. . ... ... ... : G#3 01 4 ... ... ... : A#3 00 . P82 ... ...
ROW 80 : ... .. . ... ... ... : ... .. . ... ... ... : ... .. . ... ... ... : 9-# 01 . ... ... ... : ... .. . ... ... ... : ... .. . ... ... ... : A-3 00 . P7C ... ...
ROW 81 : ... .. . ... ... ... : ... .. 6 ... ... ... : ... .. . ... ... ... : 9-# 00 . ... ... ... : ... .. . ... ... ... : G#3 02 . ... ... ... : G-3 00 . P88 ... ...
ROW 82 : ... .. . ... ... ... : C-2 02 9 ... ... ... : C-3 00 . ... ... ... : E-# 00 7 ... ... ... : ... .. . ... ... ... : D#4 01 5 ... ... ... : F#3 00 . P85 ... ...
ROW 83 : ... .. . ... ... ... : ... .. . ... ... ... : C-2 00 . ... ... ... : B-# 01 . ... ... ... : ... .. . ... ... ... : ... .. . ... ... ... : G#1 00 . P88 ... ...
ROW 84 : ... .. . ... ... ... : C#1 02 8 ... ... ... : ... .. . ... ... ... : C-# 00 6 ... ... ... : ... .. . ... ... ... : C-4 01 4 ... ... ... : ... .. 5 P74 ... ...
ROW 85 : G#4 00 4 ... ... ... : C-1 02 . ... ... ... : ... .. . ... ... ... : D-# 00 5 ... ... ... : ... .. . ... ... ... : ... .. . ... ... ... : ... .. . P61 ... ...
ROW 86 : ... .. . ... ... ... : ... .. . ... ... ... : ... .. . ... ... ... : C-# 00 4 ... ... ... : ... .. . ... ... ... : C-4 02 . ... ... ... : G-1 00 . P8D ... ...
ROW 87 : ... .. . ... ... ... : ... .. 7 ... ... ... : --- .. . ... ... ... : E-# 00 5 ... ... ... : ... .. . ... ... ... : F#4 01 5 ... ... ... : ... .. 6 P7A ... ...
ROW 88 : ... .. . ... ... ... : ... .. 8 ... ... ... : ... .. . ... ... ... : B-# 01 . ... ... ... : ... .. . ... ... ... : ... .. . ... ... ... : ... .. . P66 ... ...
ROW 89 : ... .. . ... ... ... : ... .. 7 ... ... ... : ... .. . ... ... ... : C-# 00 4 ... ... ... : ... .. . ... ... ... : D#4 01 4 ... ... ... : C-2 00 . P79 ... ...
ROW 8A : ... .. . ... ... ... : ... .. . ... ... ... : ... .. . ... ... ... : D-# 00 3 ... ... ... : ... .. . ... ... ... : ... .. . ... ... ... : B-1 00 . P98 ... ...
ROW 8B : ... .. 3 ... ... ... : ... .. 6 ... ... ... : ... .. . ... ... ... : C-# 00 . ... ... ... : ... .. . ... ... ... : D#4 02 . ... ... ... : ... .. 5 P85 ... ...
ROW 8C : ... .. . ... ... ... : ... .. 5 ... ... ... : ... .. . ... ... ... : D-# 00 . ... ... ... : ... .. . ... ... ... : ... .. . ... ... ... : ... .. . P71 ... ...
ROW 8D : D#4 02 A ... ... ... : C-2 00 9 ... ... ... : C-3 00 . ... ... ... : E-# 00 7 ... ... ... : ... .. . ... ... ... : B-4 01 5 ... ... ... : A-2 00 . P7D ... ...
ROW 8E : ... .. . ... ... ... : ... .. . ... ... ... : C-2 00 . ... ... ... : B-# 01 . ... ... ... : ... .. . ... ... ... : ... .. . ... ... ... : G#2 00 . P88 ... ...
ROW 8F : ... .. . ... ... ... : C#1 00 8 ... ... ... : ... .. . ... ... ... : C-# 00 6 ... ... ... : ... .. . ... ... ... : G#4 01 4 ... ... ... : ... .. . P75 ... ...
ROW 90 : ... .. . ... ... ... : C-1 00 . ... ... ... : ... .. . ... ... ... : D-# 00 5 ... ... ... : ... .. . ... ... ... : ... .. . ... ... ... : G-2 00 4 P81 ... ...
ROW 91 : D#4 00 . ... ... ... : ... .. . ... ... ... : ... .. . ... ... ... : C-# 00 4 ... ... ... : ... .. . ... ... ... : G#4 02 . ... ... ... : F#2 00 . P90 ... ...
ROW 92 : ... .. . ... ... ... : ... .. 7 ... ... ... : --- .. . ... ... ... : E-# 00 5 ... ... ... : ... .. . ... ... ... : F#4 01 5 ... ... ... : ... .. . P7C ... ...
ROW 93 : ... .. 9 ... ... ... : ... .. 8 ... ... ... : ... .. . ... ... ... : B-# 01 . ... ... ... : ... .. . ... ... ... : ... .. . ... ... ... : E-1 00 . P68 ... ...
ROW 94 : ... .. . ... ... ... : ... .. 7 ... ... ... : ... .. . ... ... ... : C-# 00 4 ... ... ... : ... .. . ... ... ... : D#4 01 4 ... ... ... : D#1 00 . PA5 ... ...
ROW 95 : ... .. . ... ... ... : ... .. 6 ... ... ... : ... .. . ... ... ... : D-# 00 3 ... ... ... : ... .. . ... ... ... : ... .. . ... ... ... : ... .. . P92 ... ...
ROW 96 : ... .. . ... ... ... : ... .. 5 ... ... ... : ... .. . ... ... ... : C-# 00 . ... ... ... : ... .. . ... ... ... : D#4 02 . ... ... ... : ... .. . P7E ... ...
ROW 97 : ... .. 8 ... ... ... : C-2 01 7 ... ... ... : E-4 00 . ... ... ... : D-# 00 6 ... ... ... : ... .. . ... ... ... : D#4 01 . ... ... ... : ... .. . P6B ... ...
ROW 98 : ... .. . P81 ... ... : ... .. . ... ... ... : A#3 00 . P87 ... ... : 3-# 01 9 ... ... ... : ... .. . ... ... ... : ... .. . ... ... ... : ... .. . P57 ... ...
ROW 99 : ... .. . P82 ... ... : C#1 01 6 ... ... ... : F#3 00 . P86 ... ... : 2-# 01 7 ... ... ... : ... .. . ... ... ... : C-4 01 3 ... ... ... : G-1 00 . P5F ... ...
ROW 9A : ... .. 9 ... ... ... : C-1 01 7 ... ... ... : C-2 00 . P80 ... ... : 2-# 00 6 ... ... ... : ... .. . ... ... ... : ... .. . ... ... ... : F#1 00 5 P8F ... ...
ROW 9B : ... .. . P83 ... ... : ... .. . ... ... ... : ... .. . ... ... ... : 1-# 00 . ... ... ... : ... .. . ... ... ... : C-4 02 . ... ... ... : ... .. . P7C ... ...
ROW 9C : ... .. . ... ... ... : ... .. . ... ... ... : --- .. . ... ... ... : E-# 00 2 ... ... ... : ... .. . ... ... ... : B-3 01 5 ... ... ... : ... .. 6 P68 ... ...
ROW 9D : ... .. . P84 ... ... : ... .. 8 ... ... ... : ... .. . ... ... ... : B-# 01 . ... ... ... : ... .. . ... ... ... : ... .. . ... ... ... : C#2 00 . P70 ... ...
ROW 9E : ... .. . ... ... ... : ... .. 7 ... ... ... : ... .. . ... ... ... : C-# 00 . ... ... ... : ... .. . ... ... ... : G#3 01 4 ... ... ... : C-2 00 5 P8C ... ...
ROW 9F : ... .. 4 P80 ... ... : ... .. . ... ... ... : ... .. . ... ... ... : D-# 00 . ... ... ... : ... .. . ... ... ... : ... .. . ... ... ... : ... .. . P79 ... ...
ROW A0 : ... .. . ... ... ... : ... .. 6 ... ... ... : ... .. . ... ... ... : C-# 00 1 ... ... ... : ... .. . ... ... ... : G#3 02 . ... ... ... : B-1 00 . P98 ... ...
ROW A1 : F#4 02 9 ... ... ... : C-2 02 7 ... ... ... : C-4 00 . P7F ... ... : A-# 00 A ... ... ... : ... .. . ... ... ... : F#4 01 . ... ... ... : ... .. 4 P85 ... ...
ROW A2 : ... .. . ... ... ... : ... .. . ... ... ... : ... .. . ... ... ... : 5-# 01 9 ... ... ... : ... .. . ... ... ... : ... .. . ... ... ... : ... .. . P71 ... ...
ROW A3 : ... .. . ... ... ... : C#1 02 6 ... ... ... : A#2 00 . P88 ... ... : 6-# 01 8 ... ... ... : ... .. . ... ... ... : D#4 01 3 ... ... ... : C-1 00 3 P91 ... ...
ROW A4 : ... .. . ... ... ... : C-1 02 7 ... ... ... : C-2 00 . P80 ... ... : 7-# 01 7 ... ... ... : ... .. . ... ... ... : ... .. . ... ... ... : ... .. . P7D ... ...
ROW A5 : F#4 00 . ... ... ... : ... .. . ... ... ... : ... .. . ... ... ... : 8-# 01 . ... ... ... : ... .. . ... ... ... : D#4 02 . ... ... ... : ... .. . P6A ... ...
ROW A6 : ... .. . ... ... ... : ... .. 6 ... ... ... : ... .. . ... ... ... : 9-# 00 . ... ... ... : ... .. . ... ... ... : ... .. . ... ... ... : ... .. . P56 ... ...
ROW A7 : ... .. . ... ... ... : ... .. 7 ... ... ... : --- .. . ... ... ... : 9-# 01 . ... ... ... : ... .. . ... ... ... : D#4 01 5 ... ... ... : B-0 00 4 PA9 ... ...
ROW A8 : ... .. . ... ... ... : ... .. . ... ... ... : ... .. . ... ... ... : 9-# 00 6 ... ... ... : ... .. . ... ... ... : ... .. . ... ... ... : ... .. . P95 ... ...
ROW A9 : ... .. . ... ... ... : ... .. . ... ... ... : ... .. . ... ... ... : 9-# 01 . ... ... ... : ... .. . ... ... ... : C-4 01 4 ... ... ... : D-1 00 . PA6 ... ...
ROW AA : ... .. . ... ... ... : ... .. 6 ... ... ... : ... .. . ... ... ... : 9-# 00 . ... ... ... : ... .. . ... ... ... : ... .. . ... ... ... : ... .. 5 P92 ... ...
ROW AB : ... .. . ... ... ... : ... .. 5 ... ... ... : ... .. . ... ... ... : ... .. . ... ... ... : ... .. . ... ... ... : C-4 02 . ... ... ... : ... .. . P7F ... ...
ROW AC : ... .. . ... ... ... : C-2 00 9 ... ... ... : C-3 00 . ... ... ... : E-# 00 7 ... ... ... : ... .. . ... ... ... : B-3 01 5 ... ... ... : ... .. . P6B ... ...
ROW AD : ... .. . ... ... ... : ... .. . ... ... ... : C-2 00 . ... ... ... : B-# 01 . ... ... ... : ... .. . ... ... ... : ... .. . ... ... ... : G-1 00 6 P86 ... ...
ROW AE : D#4 00 4 ... ... ... : C#1 00 8 ... ... ... : ... .. . ... ... ... : C-# 00 6 ... ... ... : ... .. . ... ... ... : G#3 01 4 ... ... ... : ... .. . P72 ... ...
ROW AF : ... .. . ... ... ... : C-1 00 . ... ... ... : ... .. . ... ... ... : D-# 00 5 ... ... ... : ... .. . ... ... ... : ... .. . ... ... ... : ... .. . P5F ... ...
ROW B0 : ... .. . ... ... ... : ... .. . ... ... ... : ... .. . ... ... ... : C-# 00 4 ... ... ... : ... .. . ... ... ... : G#3 02 . ... ... ... : F#1 00 . P8F ... ...
ROW B1 : ... .. . ... ... ... : ... .. 7 ... ... ... : --- .. . ... ... ... : E-# 00 5 ... ... ... : ... .. . ... ... ... : E-3 01 5 ... ... ... : ... .. 5 P7C ... ...
ROW B2 : ... .. . ... ... ... : ... .. 8 ... ... ... : ... .. . ... ... ... : B-# 01 . ... ... ... : ... .. . ... ... ... : ... .. . ... ... ... : ... .. . P68 ... ...
ROW B3 : ... .. . ... ... ... : ... .. 7 ... ... ... : ... .. . ... ... ... : C-# 00 4 ... ... ... : ... .. . ... ... ... : C#3 01 4 ... ... ... : A-0 00 . P9D ... ...
ROW B4 : ... .. 3 ... ... ... : ... .. 6 ... ... ... : ... .. . ... ... ... : D-# 00 3 ... ... ... : ... .. . ... ... ... : ... .. . ... ... ... : ... .. . P89 ... ...
ROW B5 : ... .. . ... ... ... : ... .. 5 ... ... ... : ... .. . ... ... ... : C-# 00 . ... ... ... : ... .. . ... ... ... : C#3 02 . ... ... ... : ... .. . P82 ... ...
ROW B6 : F-4 02 9 ... ... ... : C#2 02 7 ... ... ... : E-4 00 . ... ... ... : D-# 00 6 ... ... ... : ... .. . ... ... ... : B-4 01 . ... ... ... : C-3 00 4 P86 ... ...
ROW B7 : ... .. . ... ... ... : ... .. . ... ... ... : A#3 00 . P87 ... ... : 3-# 01 9 ... ... ... : ... .. . ... ... ... : ... .. . ... ... ... : B-2 00 5 P8B ... ...
ROW B8 : ... .. . ... ... ... : D-1 02 6 ... ... ... : F#3 00 . P86 ... ... : 2-# 01 7 ... ... ... : ... .. . ... ... ... : G#4 01 3 ... ... ... : ... .. . P77 ... ...
ROW B9 : ... .. A ... ... ... : C#1 02 7 ... ... ... : C#2 00 . P80 ... ... : 2-# 00 6 ... ... ... : ... .. . ... ... ... : ... .. . ... ... ... : A#2 00 6 P7E ... ...
ROW BA : F-4 00 . ... ... ... : ... .. . ... ... ... : ... .. . ... ... ... : 1-# 00 . ... ... ... : ... .. . ... ... ... : G#4 02 . ... ... ... : A-2 00 . P86 ... ...
ROW BB : ... .. . ... ... ... : ... .. . ... ... ... : --- .. . ... ... ... : ... .. 5 ... ... ... : ... .. . ... ... ... : G#4 01 5 ... ... ... : ... .. 7 P72 ... ...
ROW BC : ... .. 9 ... ... ... : ... .. 8 ... ... ... : ... .. . ... ... ... : ... .. 4 ... ... ... : ... .. . ... ... ... : ... .. . ... ... ... : A#4 00 . P7E ... ...
ROW BD : ... .. . ... ... ... : ... .. 7 ... ... ... : ... .. . ... ... ... : ... .. . ... ... ... : ... .. . ... ... ... : F-4 01 4 ... ... ... : G-4 00 . P81 ... ...
ROW BE : ... .. . ... ... ... : ... .. . ... ... ... : ... .. . ... ... ... : ... .. 3 ... ... ... : ... .. . ... ... ... : ... .. . ... ... ... : F-4 00 8 P7E ... ...
ROW BF : ... .. . ... ... ... : ... .. 6 ... ... ... : ... .. . ... ... ... : ... .. . ... ... ... : ... .. . ... ... ... : F-4 02 . ... ... ... : D#4 00 . ... ... ...
ROW C0 : E-4 00 . P81 ... ... : C#2 01 9 ... ... ... : C#3 00 . ... ... ... : E-# 00 7 ... ... ... : ... .. . ... ... ... : E-4 01 5 ... ... ... : A-0 00 . PA9 ... ...
ROW C1 : D#4 00 . ... ... ... : ... .. . ... ... ... : C#2 00 . ... ... ... : B-# 01 . ... ... ... : ... .. . ... ... ... : ... .. . ... ... ... : ... .. . P95 ... ...
ROW C2 : D-4 00 . P82 ... ... : D-1 01 8 ... ... ... : ... .. . ... ... ... : C-# 00 6 ... ... ... : ... .. . ... ... ... : C#4 01 4 ... ... ... : ... .. . P81 ... ...
ROW C3 : C#4 00 . P84 ... ... : C#1 01 . ... ... ... : ... .. . ... ... ... : D-# 00 5 ... ... ... : ... .. . ... ... ... : ... .. . ... ... ... : --- .. 7 P7C ... ...
ROW C4 : ... .. . P7B ... ... : ... .. . ... ... ... : ... .. . ... ... ... : C-# 00 4 ... ... ... : ... .. . ... ... ... : C#4 02 . ... ... ... : C#7 00 . P80 ... ...
ROW C5 : C-4 00 . P7D ... ... : ... .. 7 ... ... ... : ... .. . ... ... ... : D-# 00 . ... ... ... : ... .. . ... ... ... : ... .. . ... ... ... : D#6 00 . ... ... ...
ROW C6 : B-3 00 . P80 ... ... : ... .. 8 ... ... ... : --- .. . ... ... ... : E-# 00 2 ... ... ... : ... .. . ... ... ... : B-3 01 5 ... ... ... : D-2 00 . P94 ... ...
ROW C7 : A#3 00 . P84 ... ... : ... .. 7 ... ... ... : ... .. . ... ... ... : B-# 01 . ... ... ... : ... .. . ... ... ... : ... .. . ... ... ... : ... .. 6 P80 ... ...
ROW C8 : ... .. 8 P7B ... ... : ... .. . ... ... ... : ... .. . ... ... ... : C-# 00 . ... ... ... : ... .. . ... ... ... : G#3 01 4 ... ... ... : ... .. . P6C ... ...
ROW C9 : A-3 00 . P80 ... ... : ... .. 6 ... ... ... : ... .. . ... ... ... : D-# 00 . ... ... ... : ... .. . ... ... ... : ... .. . ... ... ... : C#2 00 . P85 ... ...
ROW CA : ... .. . ... ... ... : ... .. 5 ... ... ... : ... .. . ... ... ... : C-# 00 1 ... ... ... : ... .. . ... ... ... : G#3 02 . ... ... ... : ... .. . P71 ... ...
ROW CB : F-4 02 9 ... ... ... : C#2 00 7 ... ... ... : C-4 00 . P7F ... ... : A-# 00 A ... ... ... : ... .. . ... ... ... : G#4 01 . ... ... ... : C-2 00 4 P8D ... ...
ROW CC : ... .. . ... ... ... : ... .. . ... ... ... : ... .. . ... ... ... : 5-# 01 9 ... ... ... : ... .. . ... ... ... : ... .. . ... ... ... : B-2 00 . P8B ... ...
ROW CD : ... .. . ... ... ... : D-1 00 . ... ... ... : C#2 00 . P80 ... ... : 6-# 01 8 ... ... ... : ... .. . ... ... ... : F-4 01 3 ... ... ... : ... .. . P77 ... ...
ROW CE : ... .. . ... ... ... : C#1 00 . ... ... ... : ... .. . ... ... ... : 7-# 01 7 ... ... ... : ... .. . ... ... ... : ... .. . ... ... ... : A#2 00 . P7E ... ...
ROW CF : F-4 00 . ... ... ... : ... .. . ... ... ... : ... .. . ... ... ... : 8-# 01 . ... ... ... : ... .. . ... ... ... : F-4 02 . ... ... ... : A-2 00 . P86 ... ...
ROW D0 : ... .. . ... ... ... : ... .. . ... ... ... : --- .. . ... ... ... : 9-# 00 . ... ... ... : ... .. . ... ... ... : E-4 01 5 ... ... ... : G#3 00 . P84 ... ...
ROW D1 : ... .. 8 ... ... ... : ... .. . ... ... ... : ... .. . ... ... ... : 9-# 01 . ... ... ... : ... .. . ... ... ... : ... .. . ... ... ... : G-3 00 . P80 ... ...
ROW D2 : ... .. . ... ... ... : ... .. . ... ... ... : ... .. . ... ... ... : 9-# 00 6 ... ... ... : ... .. . ... ... ... : C#4 01 4 ... ... ... : F#3 00 . P7D ... ...
ROW D3 : ... .. . ... ... ... : ... .. . ... ... ... : ... .. . ... ... ... : 9-# 01 . ... ... ... : ... .. . ... ... ... : ... .. . ... ... ... : F-3 00 . P7B ... ...
ROW D4 : ... .. . ... ... ... : ... .. 6 ... ... ... : ... .. . ... ... ... : 9-# 00 . ... ... ... : ... .. . ... ... ... : C#4 02 . ... ... ... : E-3 00 . P7A ... ...
ROW D5 : E-4 00 . P81 ... ... : C#2 02 9 ... ... ... : C#3 00 . ... ... ... : E-# 00 7 ... ... ... : ... .. . ... ... ... : B-3 01 5 ... ... ... : D#3 00 . P7B ... ...
ROW D6 : D#4 00 . ... ... ... : ... .. . ... ... ... : C#2 00 . ... ... ... : B-# 01 . ... ... ... : ... .. . ... ... ... : ... .. . ... ... ... : G#1 00 . P8F ... ...
ROW D7 : D-4 00 . P82 ... ... : D-1 02 8 ... ... ... : ... .. . ... ... ... : C-# 00 6 ... ... ... : ... .. . ... ... ... : G#3 01 4 ... ... ... : ... .. 5 P7B ... ...
ROW D8 : C#4 00 . P84 ... ... : C#1 02 . ... ... ... : ... .. . ... ... ... : D-# 00 5 ... ... ... : ... .. . ... ... ... : ... .. . ... ... ... : ... .. . P67 ... ...
ROW D9 : ... .. . P7B ... ... : ... .. . ... ... ... : ... .. . ... ... ... : C-# 00 4 ... ... ... : ... .. . ... ... ... : G#3 02 . ... ... ... : G-1 00 . P93 ... ...
ROW DA : C-4 00 . P7D ... ... : ... .. 7 ... ... ... : --- .. . ... ... ... : E-# 00 5 ... ... ... : ... .. . ... ... ... : G#3 01 5 ... ... ... : ... .. 6 P7F ... ...
ROW DB : B-3 00 . P80 ... ... : ... .. 8 ... ... ... : ... .. . ... ... ... : B-# 01 . ... ... ... : ... .. . ... ... ... : ... .. . ... ... ... : ... .. . P6B ... ...
ROW DC : A#3 00 . P84 ... ... : ... .. 7 ... ... ... : ... .. . ... ... ... : C-# 00 4 ... ... ... : ... .. . ... ... ... : F-3 01 4 ... ... ... : D-2 00 . P80 ... ...
ROW DD : ... .. . P7B ... ... : ... .. . ... ... ... : ... .. . ... ... ... : D-# 00 3 ... ... ... : ... .. . ... ... ... : ... .. . ... ... ... : ... .. . P6C ... ...
ROW DE : A-3 00 . P80 ... ... : ... .. 6 ... ... ... : ... .. . ... ... ... : C-# 00 . ... ... ... : ... .. . ... ... ... : F-3 02 . ... ... ... : C#2 00 5 P85 ... ...
ROW DF : F-4 02 9 ... ... ... : C#2 00 9 ... ... ... : C#3 00 . ... ... ... : E-# 00 7 ... ... ... : ... .. . ... ... ... : E-4 01 5 ... ... ... : ... .. . P71 ... ...
ROW E0 : ... .. . ... ... ... : ... .. . ... ... ... : C#2 00 . ... ... ... : B-# 01 . ... ... ... : ... .. . ... ... ... : ... .. . ... ... ... : G-2 00 . P72 ... ...
ROW E1 : ... .. . ... ... ... : D-1 00 8 ... ... ... : ... .. . ... ... ... : C-# 00 6 ... ... ... : ... .. . ... ... ... : C#4 01 4 ... ... ... : F#2 00 . P80 ... ...
ROW E2 : ... .. . ... ... ... : C#1 00 . ... ... ... : ... .. . ... ... ... : D-# 00 5 ... ... ... : ... .. . ... ... ... : ... .. . ... ... ... : F-2 00 . P90 ... ...
ROW E3 : F-4 00 . ... ... ... : ... .. . ... ... ... : ... .. . ... ... ... : C-# 00 4 ... ... ... : ... .. . ... ... ... : C#4 02 . ... ... ... : ... .. 4 P7C ... ...
ROW E4 : ... .. . ... ... ... : ... .. 7 ... ... ... : ... .. . ... ... ... : D-# 00 . ... ... ... : ... .. . ... ... ... : ... .. . ... ... ... : E-2 00 . P8E ... ...
ROW E5 : ... .. 8 ... ... ... : ... .. 8 ... ... ... : --- .. . ... ... ... : E-# 00 5 ... ... ... : ... .. . ... ... ... : B-3 01 5 ... ... ... : ... .. . P7A ... ...
ROW E6 : ... .. . ... ... ... : ... .. 7 ... ... ... : ... .. . ... ... ... : B-# 01 . ... ... ... : ... .. . ... ... ... : ... .. . ... ... ... : E-1 00 . P67 ... ...
ROW E7 : ... .. . ... ... ... : ... .. . ... ... ... : ... .. . ... ... ... : C-# 00 4 ... ... ... : ... .. . ... ... ... : G#3 01 4 ... ... ... : D#1 00 . PA4 ... ...
ROW E8 : ... .. . ... ... ... : ... .. 6 ... ... ... : ... .. . ... ... ... : D-# 00 3 ... ... ... : ... .. . ... ... ... : ... .. . ... ... ... : ... .. . P90 ... ...
ROW E9 : ... .. . ... ... ... : ... .. 5 ... ... ... : ... .. . ... ... ... : C-# 00 . ... ... ... : ... .. . ... ... ... : G#3 02 . ... ... ... : ... .. . P7C ... ...
ROW EA : E-4 00 . P81 ... ... : C#2 01 7 ... ... ... : E-4 00 . ... ... ... : D-# 00 6 ... ... ... : ... .. . ... ... ... : G#3 01 . ... ... ... : ... .. . P68 ... ...
ROW EB : D#4 00 . ... ... ... : ... .. . ... ... ... : A#3 00 . P87 ... ... : 3-# 01 9 ... ... ... : ... .. . ... ... ... : ... .. . ... ... ... : D-1 00 . PAA ... ...
ROW EC : D-4 00 . P82 ... ... : D-1 01 . ... ... ... : C#2 00 . P80 ... ... : 2-# 01 7 ... ... ... : ... .. . ... ... ... : F-3 01 3 ... ... ... : G#1 00 . P7B ... ...
ROW ED : C#4 00 . P84 ... ... : C#1 01 . ... ... ... : ... .. . ... ... ... : 2-# 00 6 ... ... ... : ... .. . ... ... ... : ... .. . ... ... ... : ... .. 5 P67 ... ...
ROW EE : ... .. . P7B ... ... : ... .. . ... ... ... : ... .. . ... ... ... : 1-# 00 . ... ... ... : ... .. . ... ... ... : F-3 02 . ... ... ... : G-1 00 . P93 ... ...
ROW EF : C-4 00 . P7D ... ... : ... .. . ... ... ... : --- .. . ... ... ... : E-# 00 2 ... ... ... : ... .. . ... ... ... : E-3 01 5 ... ... ... : ... .. 6 P7F ... ...
ROW F0 : B-3 00 . P80 ... ... : ... .. 8 ... ... ... : ... .. . ... ... ... : B-# 01 . ... ... ... : ... .. . ... ... ... : ... .. . ... ... ... : B-1 00 . P81 ... ...
ROW F1 : A#3 00 . P84 ... ... : ... .. 7 ... ... ... : ... .. . ... ... ... : C-# 00 . ... ... ... : ... .. . ... ... ... : C#3 01 4 ... ... ... : ... .. 5 P6D ... ...
ROW F2 : ... .. 7 P7B ... ... : ... .. . ... ... ... : ... .. . ... ... ... : D-# 00 . ... ... ... : ... .. . ... ... ... : ... .. . ... ... ... : A#1 00 . P8F ... ...
ROW F3 : A-3 00 . P80 ... ... : ... .. 6 ... ... ... : ... .. . ... ... ... : C-# 00 1 ... ... ... : ... .. . ... ... ... : C#3 02 . ... ... ... : ... .. . P7B ... ...
ROW F4 : F-4 02 8 ... ... ... : C#2 02 7 ... ... ... : C-4 00 . P7F ... ... : A-# 00 A ... ... ... : ... .. . ... ... ... : B-3 01 . ... ... ... : ... .. 4 P67 ... ...
ROW F5 : ... .. . ... ... ... : ... .. . ... ... ... : ... .. . ... ... ... : 5-# 01 9 ... ... ... : ... .. . ... ... ... : ... .. . ... ... ... : A-1 00 . P8C ... ...
ROW F6 : ... .. . ... ... ... : D-1 02 6 ... ... ... : A#2 00 . P88 ... ... : 6-# 01 8 ... ... ... : ... .. . ... ... ... : G#3 01 3 ... ... ... : C-1 00 3 P88 ... ...
ROW F7 : ... .. . ... ... ... : C#1 02 7 ... ... ... : C#2 00 . P80 ... ... : 7-# 01 7 ... ... ... : ... .. . ... ... ... : ... .. . ... ... ... : ... .. . P74 ... ...
ROW F8 : F-4 00 . ... ... ... : ... .. . ... ... ... : ... .. . ... ... ... : 8-# 01 . ... ... ... : ... .. . ... ... ... : G#3 02 . ... ... ... : ... .. . P60 ... ...
ROW F9 : ... .. . ... ... ... : ... .. . ... ... ... : --- .. . ... ... ... : 9-# 00 . ... ... ... : ... .. . ... ... ... : G#3 01 5 ... ... ... : B-0 00 4 PB2 ... ...
ROW FA : ... .. 7 ... ... ... : ... .. . ... ... ... : ... .. . ... ... ... : 9-# 01 . ... ... ... : ... .. . ... ... ... : ... .. . ... ... ... : ... .. . P9E ... ...
ROW FB : ... .. . ... ... ... : ... .. . ... ... ... : ... .. . ... ... ... : 9-# 00 6 ... ... ... : ... .. . ... ... ... : F-3 01 4 ... ... ... : ... .. . P8A ... ...
ROW FC : ... .. . ... ... ... : ... .. . ... ... ... : ... .. . ... ... ... : 9-# 01 . ... ... ... : ... .. . ... ... ... : ... .. . ... ... ... : D#1 00 . PA4 ... ...
ROW FD : ... .. . ... ... ... : ... .. 6 ... ... ... : ... .. . ... ... ... : 9-# 00 . ... ... ... : ... .. . ... ... ... : F-3 02 . ... ... ... : ... .. 5 P90 ... ...
ROW FE : ... .. . ... ... ... : ... .. 5 ... ... ... : ... .. . ... ... ... : ... .. . ... ... ... : ... .. . ... ... ... : ... .. . ... ... ... : ... .. . P7C ... ...
ROW FF : E-4 00 . P82 ... ... : C#2 00 9 ... ... ... : C#3 00 . ... ... ... : E-# 00 7 ... ... ... : ... .. . ... ... ... : E-3 01 5 ... ... ... : ... .. . P68 ... ...

PATTERN 0A
ROW 00 : D#4 00 . P84 ... ... : ... .. . ... ... ... : C#2 00 . ... ... ... : B-# 01 . ... ... ... : ... .. . ... ... ... : ... .. . ... ... ... : F#1 00 6 P70 ... ...
ROW 01 : ... .. . P7C ... ... : D-1 00 8 ... ... ... : ... .. . ... ... ... : C-# 00 6 ... ... ... : ... .. . ... ... ... : C#3 01 4 ... ... ... : F-1 00 . PA4 ... ...
ROW 02 : D-4 00 . P7E ... ... : C#1 00 . ... ... ... : ... .. . ... ... ... : D-# 00 5 ... ... ... : ... .. . ... ... ... : ... .. . ... ... ... : ... .. . P90 ... ...
ROW 03 : C#4 00 . P82 ... ... : ... .. . ... ... ... : ... .. . ... ... ... : C-# 00 4 ... ... ... : ... .. . ... ... ... : C#3 02 . ... ... ... : ... .. . P7C ... ...
ROW 04 : C-4 00 . P86 ... ... : ... .. 7 ... ... ... : --- .. . ... ... ... : E-# 00 5 ... ... ... : ... .. . ... ... ... : B-2 01 5 ... ... ... : ... .. 5 P68 ... ...
ROW 05 : ... .. . P7E ... ... : ... .. 8 ... ... ... : ... .. . ... ... ... : B-# 01 . ... ... ... : ... .. . ... ... ... : ... .. . ... ... ... : E-1 00 . PA0 ... ...
ROW 06 : B-3 00 6 P82 ... ... : ... .. 7 ... ... ... : ... .. . ... ... ... : C-# 00 4 ... ... ... : ... .. . ... ... ... : G#2 01 4 P80 ... ... : A-0 00 . P8C ... ...
ROW 07 : ... .. . P7A ... ... : ... .. 6 ... ... ... : ... .. . ... ... ... : D-# 00 3 ... ... ... : ... .. . ... ... ... : ... .. . ... ... ... : ... .. . P82 ... ...
ROW 08 : A#3 00 5 P80 ... ... : ... .. 5 ... ... ... : ... .. . ... ... ... : C-# 00 . ... ... ... : ... .. . ... ... ... : G#2 02 . ... ... ... : ... .. . ... ... ...
ROW 09 : F-2 01 9 ... ... ... : E-2 01 7 ... ... ... : E-4 00 . ... ... ... : D-# 00 6 ... ... ... : ... .. . ... ... ... : E-4 02 9 ... ... ... : A#2 00 4 P8A ... ...
ROW 0A : ... .. 8 ... ... ... : ... .. . ... ... ... : A#3 00 . P87 ... ... : 3-# 01 9 ... ... ... : ... .. . ... ... ... : ... .. . ... ... ... : ... .. 5 P76 ... ...
ROW 0B : F#1 01 . ... ... ... : F-1 01 6 ... ... ... : F#3 00 . P86 ... ... : 2-# 01 7 ... ... ... : ... .. . ... ... ... : ... .. . ... ... ... : A-2 00 . P7F ... ...
ROW 0C : F-1 01 . ... ... ... : E-1 01 7 ... ... ... : E-2 00 . P80 ... ... : E-# 00 . ... ... ... : ... .. . ... ... ... : ... .. A ... ... ... : G#2 00 6 P8A ... ...
ROW 0D : ... .. . ... ... ... : ... .. . ... ... ... : ... .. . ... ... ... : B-# 01 . ... ... ... : ... .. . ... ... ... : E-4 00 . ... ... ... : ... .. . P77 ... ...
ROW 0E : ... .. 9 ... ... ... : ... .. . ... ... ... : --- .. . ... ... ... : C-# 01 . ... ... ... : ... .. . ... ... ... : ... .. . ... ... ... : G-2 00 7 P83 ... ...
ROW 0F : ... .. . ... ... ... : ... .. 8 ... ... ... : ... .. . ... ... ... : D-# 00 . ... ... ... : ... .. . ... ... ... : ... .. 9 ... ... ... : F#5 00 . P7F ... ...
ROW 10 : ... .. 8 ... ... ... : ... .. 7 ... ... ... : ... .. . ... ... ... : C-# 00 6 ... ... ... : ... .. . ... ... ... : ... .. . ... ... ... : D-5 00 . P7E ... ...
ROW 11 : ... .. 9 ... ... ... : ... .. 8 ... ... ... : ... .. . ... ... ... : D-# 00 . ... ... ... : ... .. . ... ... ... : ... .. . ... ... ... : B-4 00 8 P7D ... ...
ROW 12 : ... .. 8 ... ... ... : ... .. 7 ... ... ... : ... .. . ... ... ... : E-# 00 . ... ... ... : ... .. . ... ... ... : ... .. . ... ... ... : G#4 00 . P7F ... ...
ROW 13 : F-1 02 9 ... ... ... : E-1 02 8 ... ... ... : ... .. . ... ... ... : ... .. . ... ... ... : ... .. . ... ... ... : D#4 00 . ... ... ... : A#0 00 . P58 ... ...
ROW 14 : ... .. 8 ... ... ... : ... .. 7 ... ... ... : ... .. . ... ... ... : ... .. . ... ... ... : ... .. . ... ... ... : D-4 00 . ... ... ... : A-0 00 . PB6 ... ...
ROW 15 : ... .. 9 ... ... ... : ... .. 8 ... ... ... : ... .. . ... ... ... : ... .. . ... ... ... : ... .. . ... ... ... : C#4 00 . P82 ... ... : ... .. . PA3 ... ...
ROW 16 : ... .. 8 ... ... ... : ... .. 7 ... ... ... : ... .. . ... ... ... : ... .. . ... ... ... : ... .. . ... ... ... : C-4 00 . P84 ... ... : ... .. 7 P8F ... ...
ROW 17 : ... .. 9 ... ... ... : ... .. 8 ... ... ... : ... .. . ... ... ... : ... .. . ... ... ... : ... .. . ... ... ... : B-3 00 . P86 ... ... : ... .. . P7C ... ...
ROW 18 : ... .. 7 ... ... ... : ... .. 7 ... ... ... : ... .. . ... ... ... : ... .. . ... ... ... : ... .. . ... ... ... : ... .. . P7C ... ... : B-7 00 . P84 ... ...
ROW 19 : ... .. 6 ... ... ... : ... .. 6 ... ... ... : ... .. . ... ... ... : ... .. . ... ... ... : ... .. . ... ... ... : A#3 00 . P80 ... ... : D-2 00 . P6C ... ...
ROW 1A : ... .. 5 ... ... ... : ... .. 5 ... ... ... : ... .. . ... ... ... : ... .. 5 ... ... ... : ... .. . ... ... ... : A-3 00 . P84 ... ... : C#2 00 6 P85 ... ...
ROW 1B : ... .. 4 ... ... ... : ... .. 4 ... ... ... : ... .. . ... ... ... : ... .. . ... ... ... : ... .. . ... ... ... : ... .. 8 P7A ... ... : ... .. . P72 ... ...
ROW 1C : ... .. 3 ... ... ... : ... .. 3 ... ... ... : ... .. . ... ... ... : ... .. . ... ... ... : ... .. . ... ... ... : G#3 00 . P80 ... ... : C-2 00 . P8E ... ...
ROW 1D : ... .. 2 ... ... ... : ... .. 2 ... ... ... : ... .. . ... ... ... : ... .. . ... ... ... : ... .. . ... ... ... : ... .. . ... ... ... : ... .. . P7B ... ...
ROW 1E : F-2 01 9 ... ... ... : E-2 01 7 ... ... ... : E-4 00 . ... ... ... : D-# 00 6 ... ... ... : ... .. . ... ... ... : E-4 02 9 ... ... ... : ... .. 4 P67 ... ...
ROW 1F : ... .. 8 ... ... ... : ... .. . ... ... ... : A#3 00 . P87 ... ... : 3-# 01 9 ... ... ... : ... .. . ... ... ... : ... .. . ... ... ... : D-3 00 . P78 ... ...
ROW 20 : F#1 01 9 ... ... ... : F-1 01 . ... ... ... : E-2 00 . P80 ... ... : E-# 00 7 ... ... ... : ... .. . ... ... ... : ... .. . ... ... ... : C#3 00 . P7B ... ...
ROW 21 : F-1 01 8 ... ... ... : E-1 01 . ... ... ... : ... .. . ... ... ... : B-# 01 . ... ... ... : ... .. . ... ... ... : ... .. . ... ... ... : C-3 00 . P80 ... ...
ROW 22 : ... .. . ... ... ... : ... .. . ... ... ... : ... .. . ... ... ... : C-# 01 . ... ... ... : ... .. . ... ... ... : E-4 00 . ... ... ... : B-2 00 . P85 ... ...
ROW 23 : ... .. 9 ... ... ... : ... .. . ... ... ... : --- .. . ... ... ... : D-# 00 . ... ... ... : ... .. . ... ... ... : ... .. . ... ... ... : B-3 00 . P82 ... ...
ROW 24 : ... .. . ... ... ... : ... .. 8 ... ... ... : ... .. . ... ... ... : C-# 00 6 ... ... ... : ... .. . ... ... ... : ... .. 8 ... ... ... : A#3 00 . P7C ... ...
ROW 25 : ... .. 8 ... ... ... : ... .. 7 ... ... ... : ... .. . ... ... ... : D-# 00 . ... ... ... : ... .. . ... ... ... : ... .. . ... ... ... : G#3 00 . P86 ... ...
ROW 26 : ... .. 9 ... ... ... : ... .. 8 ... ... ... : ... .. . ... ... ... : E-# 00 . ... ... ... : ... .. . ... ... ... : ... .. . ... ... ... : G-3 00 . P82 ... ...
ROW 27 : ... .. 8 ... ... ... : ... .. 7 ... ... ... : ... .. . ... ... ... : ... .. . ... ... ... : ... .. . ... ... ... : ... .. . ... ... ... : F#3 00 . P80 ... ...
ROW 28 : F-1 02 9 ... ... ... : E-1 02 8 ... ... ... : ... .. . ... ... ... : ... .. . ... ... ... : ... .. . ... ... ... : D#4 00 . ... ... ... : F-3 00 . P7E ... ...
ROW 29 : ... .. 8 ... ... ... : ... .. 7 ... ... ... : ... .. . ... ... ... : ... .. . ... ... ... : ... .. . ... ... ... : D-4 00 . ... ... ... : G#1 00 . P6F ... ...
ROW 2A : ... .. 9 ... ... ... : ... .. 8 ... ... ... : ... .. . ... ... ... : ... .. . ... ... ... : ... .. . ... ... ... : C#4 00 . P82 ... ... : G-1 00 5 P9B ... ...
ROW 2B : ... .. 8 ... ... ... : ... .. 7 ... ... ... : ... .. . ... ... ... : ... .. . ... ... ... : ... .. . ... ... ... : C-4 00 . P84 ... ... : ... .. . P88 ... ...
ROW 2C : ... .. 9 ... ... ... : ... .. 8 ... ... ... : ... .. . ... ... ... : ... .. . ... ... ... : ... .. . ... ... ... : B-3 00 . P86 ... ... : ... .. . P74 ... ...
ROW 2D : ... .. 7 ... ... ... : ... .. 7 ... ... ... : ... .. . ... ... ... : ... .. 5 ... ... ... : ... .. . ... ... ... : ... .. . P7C ... ... : ... .. 6 P61 ... ...
ROW 2E : ... .. 6 ... ... ... : ... .. 6 ... ... ... : ... .. . ... ... ... : B-# 01 . ... ... ... : ... .. . ... ... ... : A#3 00 . P80 ... ... : F#1 00 . P91 ... ...
ROW 2F : ... .. 5 ... ... ... : ... .. 5 ... ... ... : ... .. . ... ... ... : C-# 00 4 ... ... ... : ... .. . ... ... ... : A-3 00 . P84 ... ... : D#2 00 . P92 ... ...
ROW 30 : ... .. 4 ... ... ... : ... .. 4 ... ... ... : ... .. . ... ... ... : D-# 00 3 ... ... ... : ... .. . ... ... ... : ... .. . P7A ... ... : ... .. . P7E ... ...
ROW 31 : ... .. 3 ... ... ... : ... .. 3 ... ... ... : ... .. . ... ... ... : C-# 00 . ... ... ... : ... .. . ... ... ... : G#3 00 . P80 ... ... : ... .. 5 P6B ... ...
ROW 32 : G-2 02 9 ... ... ... : F#2 02 7 ... ... ... : E-4 00 . ... ... ... : D-# 00 6 ... ... ... : ... .. . ... ... ... : E-4 02 9 ... ... ... : D-2 00 . P82 ... ...
ROW 33 : ... .. 8 ... ... ... : ... .. . ... ... ... : A#3 00 . P87 ... ... : 3-# 01 9 ... ... ... : ... .. . ... ... ... : ... .. . ... ... ... : G#2 00 . P83 ... ...
ROW 34 : G#1 02 . ... ... ... : G-1 02 6 ... ... ... : F#3 00 . P86 ... ... : 2-# 01 7 ... ... ... : ... .. . ... ... ... : ... .. . ... ... ... : G-2 00 . P8F ... ...
ROW 35 : G-1 02 . ... ... ... : F#1 02 7 ... ... ... : F#2 00 . P80 ... ... : E-# 00 . ... ... ... : ... .. . ... ... ... : ... .. . ... ... ... : ... .. . P7C ... ...
ROW 36 : ... .. . ... ... ... : ... .. . ... ... ... : ... .. . ... ... ... : B-# 01 . ... ... ... : ... .. . ... ... ... : E-4 00 . ... ... ... : F#2 00 4 P8A ... ...
ROW 37 : ... .. . ... ... ... : ... .. 6 ... ... ... : ... .. . ... ... ... : C-# 01 . ... ... ... : ... .. . ... ... ... : ... .. . ... ... ... : ... .. . P77 ... ...
ROW 38 : ... .. 9 ... ... ... : ... .. 8 ... ... ... : --- .. . ... ... ... : D-# 00 . ... ... ... : ... .. . ... ... ... : ... .. 8 ... ... ... : F-2 00 . P87 ... ...
ROW 39 : ... .. 8 ... ... ... : ... .. 7 ... ... ... : ... .. . ... ... ... : C-# 00 6 ... ... ... : ... .. . ... ... ... : ... .. . ... ... ... : D#1 00 . PA0 ... ...
ROW 3A : ... .. 9 ... ... ... : ... .. 8 ... ... ... : ... .. . ... ... ... : D-# 00 . ... ... ... : ... .. . ... ... ... : ... .. . ... ... ... : ... .. . P8C ... ...
ROW 3B : ... .. 8 ... ... ... : ... .. 7 ... ... ... : ... .. . ... ... ... : E-# 00 . ... ... ... : ... .. . ... ... ... : ... .. . ... ... ... : ... .. . P79 ... ...
ROW 3C : ... .. 9 ... ... ... : ... .. 8 ... ... ... : ... .. . ... ... ... : ... .. . ... ... ... : ... .. . ... ... ... : ... .. . ... ... ... : ... .. . P65 ... ...
ROW 3D : ... .. 8 ... ... ... : ... .. 7 ... ... ... : ... .. . ... ... ... : ... .. 7 ... ... ... : ... .. . ... ... ... : D#4 00 . ... ... ... : D-1 00 . PA8 ... ...
ROW 3E : ... .. 9 ... ... ... : ... .. 8 ... ... ... : ... .. . ... ... ... : B-# 01 . ... ... ... : ... .. . ... ... ... : D-4 00 . ... ... ... : ... .. . P94 ... ...
ROW 3F : ... .. 8 ... ... ... : ... .. 7 ... ... ... : ... .. . ... ... ... : C-# 00 6 ... ... ... : ... .. . ... ... ... : C#4 00 . P82 ... ... : A-1 00 . P84 ... ...
ROW 40 : ... .. 9 ... ... ... : ... .. 8 ... ... ... : ... .. . ... ... ... : D-# 00 5 ... ... ... : ... .. . ... ... ... : C-4 00 . P84 ... ... : ... .. 5 P70 ... ...
ROW 41 : ... .. 8 ... ... ... : ... .. 7 ... ... ... : ... .. . ... ... ... : C-# 00 4 ... ... ... : ... .. . ... ... ... : B-3 00 . P86 ... ... : G#1 00 . P99 ... ...
ROW 42 : ... .. 9 ... ... ... : ... .. 8 ... ... ... : ... .. . ... ... ... : E-# 00 5 ... ... ... : ... .. . ... ... ... : ... .. . P7C ... ... : ... .. 6 P85 ... ...
ROW 43 : ... .. 8 ... ... ... : ... .. 7 ... ... ... : ... .. . ... ... ... : B-# 01 . ... ... ... : ... .. . ... ... ... : A#3 00 . P80 ... ... : C-2 00 . P87 ... ...
ROW 44 : ... .. 9 ... ... ... : ... .. 8 ... ... ... : ... .. . ... ... ... : C-# 00 4 ... ... ... : ... .. . ... ... ... : A-3 00 7 P84 ... ... : ... .. 5 P73 ... ...
ROW 45 : ... .. 8 ... ... ... : ... .. 7 ... ... ... : ... .. . ... ... ... : D-# 00 3 ... ... ... : ... .. . ... ... ... : ... .. . P7A ... ... : B-1 00 . P93 ... ...
ROW 46 : ... .. 9 ... ... ... : ... .. 8 ... ... ... : ... .. . ... ... ... : C-# 00 . ... ... ... : ... .. . ... ... ... : G#3 00 . P80 ... ... : ... .. . P7F ... ...
ROW 47 : ... .. 6 ... ... ... : ... .. 5 ... ... ... : C-5 00 . P7E ... ... : A-# 00 A ... ... ... : ... .. . ... ... ... : E-4 02 8 ... ... ... : ... .. 4 P6C ... ...
ROW 48 : ... .. 7 ... ... ... : ... .. 6 ... ... ... : B-4 00 . P82 ... ... : 5-# 01 9 ... ... ... : ... .. . ... ... ... : ... .. . ... ... ... : A#1 00 . P8E ... ...
ROW 49 : ... .. . ... ... ... : ... .. . ... ... ... : A#4 00 . P81 ... ... : 6-# 01 8 ... ... ... : ... .. . ... ... ... : ... .. . ... ... ... : C-1 00 3 P78 ... ...
ROW 4A : ... .. 8 ... ... ... : ... .. 7 ... ... ... : F-2 00 . P80 ... ... : 7-# 01 7 ... ... ... : ... .. . ... ... ... : ... .. . ... ... ... : ... .. . P64 ... ...
ROW 4B : ... .. . ... ... ... : ... .. . ... ... ... : ... .. . ... ... ... : 8-# 01 . ... ... ... : ... .. . ... ... ... : E-4 00 . ... ... ... : ... .. . P51 ... ...
ROW 4C : ... .. . ... ... ... : ... .. . ... ... ... : C-5 00 . P7E ... ... : 9-# 00 . ... ... ... : ... .. . ... ... ... : ... .. . ... ... ... : B-0 00 4 PA3 ... ...
ROW 4D : ... .. . ... ... ... : ... .. . ... ... ... : B-4 00 . P82 ... ... : 9-# 01 . ... ... ... : ... .. . ... ... ... : ... .. 7 ... ... ... : ... .. . P90 ... ...
ROW 4E : ... .. . ... ... ... : ... .. . ... ... ... : A#4 00 . P81 ... ... : 9-# 00 6 ... ... ... : ... .. . ... ... ... : ... .. . ... ... ... : ... .. . P7C ... ...
ROW 4F : ... .. 9 ... ... ... : ... .. 8 ... ... ... : F-2 00 . P80 ... ... : 9-# 01 . ... ... ... : ... .. . ... ... ... : ... .. . ... ... ... : E-1 00 . PA0 ... ...
ROW 50 : ... .. . ... ... ... : ... .. . ... ... ... : ... .. . ... ... ... : 9-# 00 . ... ... ... : ... .. . ... ... ... : ... .. . ... ... ... : ... .. 5 P8C ... ...
ROW 51 : ... .. . ... ... ... : ... .. . ... ... ... : F-4 00 . P7E ... ... : D-# 00 . ... ... ... : ... .. . ... ... ... : D#4 00 . P83 ... ... : ... .. . P79 ... ...
ROW 52 : ... .. . ... ... ... : ... .. . ... ... ... : ... .. . P7C ... ... : 3-# 01 9 ... ... ... : ... .. . ... ... ... : ... .. . P7C ... ... : ... .. . P65 ... ...
ROW 53 : ... .. . ... ... ... : ... .. . ... ... ... : E-4 00 . P7E ... ... : 2-# 01 7 ... ... ... : ... .. . ... ... ... : D-4 00 . P7F ... ... : G-1 00 6 P6D ... ...
ROW 54 : ... .. . ... ... ... : ... .. . ... ... ... : D#4 00 . P80 ... ... : 8-# 00 1 ... ... ... : ... .. . ... ... ... : C#4 00 . P84 ... ... : F#1 00 . P9D ... ...
ROW 55 : ... .. . ... ... ... : ... .. . ... ... ... : D-4 00 . P82 ... ... : ... .. 2 ... ... ... : ... .. . ... ... ... : ... .. . P7D ... ... : ... .. . P8A ... ...
ROW 56 : ... .. . ... ... ... : ... .. . ... ... ... : F-2 00 . P80 ... ... : 8-# 01 . ... ... ... : ... .. . ... ... ... : C-4 00 . P82 ... ... : ... .. . P76 ... ...
ROW 57 : ... .. . ... ... ... : ... .. . ... ... ... : E-2 00 . ... ... ... : 8-# 00 . ... ... ... : ... .. . ... ... ... : ... .. . P7B ... ... : ... .. 5 P63 ... ...
ROW 58 : ... .. . ... ... ... : ... .. . ... ... ... : ... .. . ... ... ... : ... .. 3 ... ... ... : ... .. . ... ... ... : B-3 00 . P80 ... ... : F-1 00 . P97 ... ...
ROW 59 : ... .. . ... ... ... : ... .. . ... ... ... : --- .. . ... ... ... : 9-# 00 . ... ... ... : ... .. . ... ... ... : A#3 00 6 P87 ... ... : A-0 00 . P84 ... ...
ROW 5A : ... .. . ... ... ... : ... .. . ... ... ... : ... .. . ... ... ... : 9-# 01 4 ... ... ... : ... .. . ... ... ... : ... .. . P80 ... ... : ... .. . P82 ... ...
ROW 5B : ... .. . ... ... ... : ... .. . ... ... ... : ... .. . ... ... ... : 9-# 00 . ... ... ... : ... .. . ... ... ... : ... .. 5 ... ... ... : ... .. . ... ... ...
ROW 5C : E-2 02 . ... ... ... : D#2 02 7 ... ... ... : E-4 00 . ... ... ... : A-# 00 C ... ... ... : ... .. . ... ... ... : D#4 02 7 ... ... ... : A#2 00 4 P77 ... ...
ROW 5D : ... .. 8 ... ... ... : ... .. . ... ... ... : A#3 00 . P87 ... ... : B-# 00 . ... ... ... : ... .. . ... ... ... : ... .. . ... ... ... : A-2 00 . P87 ... ...
ROW 5E : F-1 02 9 ... ... ... : E-1 02 . ... ... ... : D#2 00 . P80 ... ... : A-# 01 B ... ... ... : ... .. . ... ... ... : ... .. 8 ... ... ... : ... .. 5 P7C ... ...
ROW 5F : E-1 02 8 ... ... ... : D#1 02 . ... ... ... : ... .. . ... ... ... : A-# 00 A ... ... ... : ... .. . ... ... ... : ... .. . ... ... ... : G#2 00 6 P8F ... ...
ROW 60 : ... .. . ... ... ... : ... .. . ... ... ... : ... .. . ... ... ... : ... .. . ... ... ... : ... .. . ... ... ... : D#4 00 . ... ... ... : ... .. . P84 ... ...
ROW 61 : ... .. 9 ... ... ... : ... .. . ... ... ... : ... .. . ... ... ... : ... .. . ... ... ... : ... .. . ... ... ... : ... .. 9 ... ... ... : ... .. . P78 ... ...
ROW 62 : ... .. . ... ... ... : ... .. 8 ... ... ... : ... .. . ... ... ... : A-# 01 9 ... ... ... : ... .. . ... ... ... : ... .. 8 ... ... ... : D-6 00 . P80 ... ...
ROW 63 : ... .. 8 ... ... ... : ... .. 7 ... ... ... : ... .. . ... ... ... : A-# 00 . ... ... ... : ... .. . ... ... ... : ... .. . ... ... ... : A#5 00 . ... ... ...
ROW 64 : ... .. 9 ... ... ... : ... .. 8 ... ... ... : ... .. . ... ... ... : ... .. . ... ... ... : ... .. . ... ... ... : ... .. 9 ... ... ... : G-5 00 8 ... ... ...
ROW 65 : ... .. 8 ... ... ... : ... .. 7 ... ... ... : ... .. . ... ... ... : A-# 01 8 ... ... ... : ... .. . ... ... ... : ... .. . ... ... ... : E-5 00 . P82 ... ...
ROW 66 : ... .. 9 ... ... ... : ... .. 8 ... ... ... : ... .. . ... ... ... : A-# 00 . ... ... ... : ... .. . ... ... ... : D-4 00 . P81 ... ... : A#0 00 . P95 ... ...
ROW 67 : ... .. 8 ... ... ... : ... .. 7 ... ... ... : ... .. . P82 ... ... : ... .. . ... ... ... : ... .. . ... ... ... : C#4 00 . P84 ... ... : ... .. . P89 ... ...
ROW 68 : ... .. 9 ... ... ... : ... .. 8 ... ... ... : ... .. . P84 ... ... : ... .. 7 ... ... ... : ... .. . ... ... ... : ... .. . P7B ... ... : ... .. . P7E ... ...
ROW 69 : ... .. 8 ... ... ... : ... .. 7 ... ... ... : ... .. . P86 ... ... : A-# 01 . ... ... ... : ... .. . ... ... ... : C-4 00 . P7E ... ... : ... .. 7 P72 ... ...
ROW 6A : ... .. 9 ... ... ... : ... .. 8 ... ... ... : ... .. . P88 ... ... : 9-# 00 . ... ... ... : ... .. . ... ... ... : B-3 00 . P81 ... ... : ... .. . P67 ... ...
ROW 6B : ... .. 8 ... ... ... : ... .. 7 ... ... ... : ... .. . P89 ... ... : ... .. . ... ... ... : ... .. . ... ... ... : A#3 00 . P86 ... ... : ... .. . P5B ... ...
ROW 6C : ... .. 9 ... ... ... : ... .. 8 ... ... ... : ... .. . P8A ... ... : 9-# 01 . ... ... ... : ... .. . ... ... ... : ... .. . P7D ... ... : E-2 00 . P86 ... ...
ROW 6D : ... .. 8 ... ... ... : ... .. 7 ... ... ... : ... .. . P8B ... ... : 9-# 00 . ... ... ... : ... .. . ... ... ... : A-3 00 . P82 ... ... : ... .. 6 P7A ... ...
ROW 6E : ... .. 9 ... ... ... : ... .. 8 ... ... ... : ... .. . ... ... ... : ... .. 6 ... ... ... : ... .. . ... ... ... : ... .. 8 P79 ... ... : ... .. . P6F ... ...
ROW 6F : ... .. 8 ... ... ... : ... .. 7 ... ... ... : ... .. . ... ... ... : ... .. . ... ... ... : ... .. . ... ... ... : G#3 00 . P80 ... ... : D#2 00 . P8B ... ...
ROW 70 : ... .. 7 ... ... ... : ... .. 6 ... ... ... : C-4 00 . P7F ... ... : A-# 00 A ... ... ... : ... .. . ... ... ... : D#4 02 9 ... ... ... : ... .. . P80 ... ...
ROW 71 : ... .. 6 ... ... ... : ... .. 5 ... ... ... : ... .. . ... ... ... : 5-# 01 9 ... ... ... : ... .. . ... ... ... : ... .. . ... ... ... : ... .. 5 P74 ... ...
ROW 72 : ... .. 7 ... ... ... : ... .. 6 ... ... ... : A#2 00 . P88 ... ... : 6-# 01 8 ... ... ... : ... .. . ... ... ... : ... .. . ... ... ... : B-3 00 . P7A ... ...
ROW 73 : ... .. 8 ... ... ... : ... .. 7 ... ... ... : D#2 00 . P80 ... ... : 7-# 01 7 ... ... ... : ... .. . ... ... ... : ... .. . ... ... ... : A#3 00 4 P7C ... ...
ROW 74 : ... .. . ... ... ... : ... .. . ... ... ... : ... .. . ... ... ... : 8-# 01 . ... ... ... : ... .. . ... ... ... : D#4 00 . ... ... ... : A-3 00 . P7F ... ...
ROW 75 : ... .. . ... ... ... : ... .. . ... ... ... : ... .. . ... ... ... : 9-# 00 . ... ... ... : ... .. . ... ... ... : ... .. . ... ... ... : G#3 00 . P82 ... ...
ROW 76 : ... .. 7 ... ... ... : ... .. . ... ... ... : --- .. . ... ... ... : 9-# 01 . ... ... ... : ... .. . ... ... ... : ... .. 8 ... ... ... : G-6 00 3 P81 ... ...
ROW 77 : ... .. 6 ... ... ... : ... .. 6 ... ... ... : ... .. . ... ... ... : 9-# 00 6 ... ... ... : ... .. . ... ... ... : ... .. . ... ... ... : D-6 00 . ... ... ...
ROW 78 : ... .. 5 ... ... ... : ... .. 5 ... ... ... : ... .. . ... ... ... : 9-# 01 . ... ... ... : ... .. . ... ... ... : ... .. . ... ... ... : B-5 00 . P7F ... ...
ROW 79 : ... .. 4 ... ... ... : ... .. 4 ... ... ... : ... .. . ... ... ... : 9-# 00 . ... ... ... : ... .. . ... ... ... : ... .. . ... ... ... : G-5 00 . P81 ... ...
ROW 7A : ... .. 3 ... ... ... : ... .. 3 ... ... ... : ... .. . ... ... ... : ... .. . ... ... ... : ... .. . ... ... ... : ... .. . ... ... ... : F-5 00 . P7F ... ...
ROW 7B : E-2 02 B ... ... ... : D#2 02 9 ... ... ... : D#2 00 . ... ... ... : E-# 00 7 ... ... ... : ... .. . ... ... ... : D-4 00 . P81 ... ... : D-5 00 . P82 ... ...
ROW 7C : ... .. A ... ... ... : ... .. . ... ... ... : ... .. . ... ... ... : B-# 01 . ... ... ... : ... .. . ... ... ... : C#4 00 . P84 ... ... : C-2 00 . P7E ... ...
ROW 7D : F-1 02 . ... ... ... : E-1 02 8 ... ... ... : ... .. . ... ... ... : C-# 00 6 ... ... ... : ... .. . ... ... ... : ... .. . P7B ... ... : ... .. 4 P72 ... ...
ROW 7E : E-1 02 9 ... ... ... : D#1 02 . ... ... ... : ... .. . ... ... ... : D-# 00 5 ... ... ... : ... .. . ... ... ... : C-4 00 . P7E ... ... : ... .. . P67 ... ...
ROW 7F : ... .. . ... ... ... : ... .. . ... ... ... : ... .. . ... ... ... : C-# 00 4 ... ... ... : ... .. . ... ... ... : B-3 00 . P81 ... ... : B-1 00 . P8E ... ...
ROW 80 : ... .. . ... ... ... : ... .. 7 ... ... ... : --- .. . ... ... ... : E-# 00 5 ... ... ... : ... .. . ... ... ... : A#3 00 . P86 ... ... : ... .. 5 P83 ... ...
ROW 81 : ... .. . ... ... ... : ... .. 8 ... ... ... : ... .. . ... ... ... : B-# 01 . ... ... ... : ... .. . ... ... ... : ... .. . P7D ... ... : ... .. . P77 ... ...
ROW 82 : ... .. 8 ... ... ... : ... .. 7 ... ... ... : ... .. . ... ... ... : C-# 00 4 ... ... ... : ... .. . ... ... ... : A-3 00 . P82 ... ... : C-3 00 . P8C ... ...
ROW 83 : ... .. 7 ... ... ... : ... .. . ... ... ... : ... .. . ... ... ... : D-# 00 3 ... ... ... : ... .. . ... ... ... : ... .. . P79 ... ... : ... .. 4 P80 ... ...
ROW 84 : ... .. 6 ... ... ... : ... .. 6 ... ... ... : ... .. . ... ... ... : C-# 00 . ... ... ... : ... .. . ... ... ... : G#3 00 . P80 ... ... : ... .. . P75 ... ...
ROW 85 : ... .. 5 ... ... ... : D#3 02 1 ... ... ... : ... .. . ... ... ... : E-# 00 7 ... ... ... : ... .. . ... ... ... : D#4 02 9 ... ... ... : B-2 00 . P82 ... ...
ROW 86 : ... .. 4 ... ... ... : ... .. . ... ... ... : ... .. . ... ... ... : B-# 01 . ... ... ... : ... .. . ... ... ... : ... .. . ... ... ... : C-4 00 . P7B ... ...
ROW 87 : ... .. 3 ... ... ... : ... .. . ... ... ... : ... .. . ... ... ... : C-# 00 6 ... ... ... : ... .. . ... ... ... : ... .. . ... ... ... : B-3 00 . ... ... ...
ROW 88 : ... .. 2 ... ... ... : F#3 02 2 ... ... ... : ... .. . ... ... ... : D-# 00 5 ... ... ... : ... .. . ... ... ... : ... .. . ... ... ... : A#3 00 . P7E ... ...
ROW 89 : ... .. 1 ... ... ... : ... .. . ... ... ... : ... .. . ... ... ... : C-# 00 4 ... ... ... : ... .. . ... ... ... : D#4 00 . ... ... ... : A-3 00 3 P80 ... ...
ROW 8A : --- .. . ... ... ... : A#3 02 3 ... ... ... : ... .. . ... ... ... : E-# 00 5 ... ... ... : ... .. . ... ... ... : ... .. . ... ... ... : G#3 00 . P84 ... ...
ROW 8B : ... .. . ... ... ... : ... .. . ... ... ... : ... .. . ... ... ... : B-# 01 . ... ... ... : ... .. . ... ... ... : ... .. 8 ... ... ... : G-3 00 . P88 ... ...
ROW 8C : ... .. . ... ... ... : ... .. . ... ... ... : ... .. . ... ... ... : C-# 00 4 ... ... ... : ... .. . ... ... ... : ... .. . ... ... ... : A-1 00 . P68 ... ...
ROW 8D : ... .. . ... ... ... : D#4 02 4 ... ... ... : ... .. . ... ... ... : D-# 00 3 ... ... ... : ... .. . ... ... ... : ... .. . ... ... ... : G#1 00 . P98 ... ...
ROW 8E : ... .. . ... ... ... : ... .. . ... ... ... : ... .. . ... ... ... : C-# 00 . ... ... ... : ... .. . ... ... ... : ... .. . ... ... ... : ... .. . P8D ... ...
ROW 8F : ... .. . ... ... ... : ... .. . ... ... ... : ... .. . ... ... ... : D-# 00 . ... ... ... : ... .. . ... ... ... : ... .. . ... ... ... : ... .. . P81 ... ...
ROW 90 : ... .. . ... ... ... : D#3 02 . ... ... ... : E-4 00 . ... ... ... : ... .. 6 ... ... ... : ... .. . ... ... ... : D-4 00 . P81 ... ... : ... .. . P76 ... ...
ROW 91 : ... .. . ... ... ... : ... .. . ... ... ... : A#3 00 . P87 ... ... : 3-# 01 9 ... ... ... : ... .. . ... ... ... : C#4 00 . P84 ... ... : ... .. . P6A ... ...
ROW 92 : ... .. . ... ... ... : F#3 02 . ... ... ... : --- .. . ... ... ... : 2-# 01 7 ... ... ... : ... .. . ... ... ... : ... .. . P7B ... ... : F#2 00 . P85 ... ...
ROW 93 : ... .. . ... ... ... : ... .. . ... ... ... : ... .. . ... ... ... : 2-# 00 6 ... ... ... : ... .. . ... ... ... : C-4 00 . P7E ... ... : ... .. 4 P79 ... ...
ROW 94 : ... .. . ... ... ... : ... .. . ... ... ... : ... .. . ... ... ... : 1-# 00 . ... ... ... : ... .. . ... ... ... : B-3 00 . P81 ... ... : F-2 00 . P92 ... ...
ROW 95 : ... .. . ... ... ... : A#3 02 . ... ... ... : ... .. . ... ... ... : E-# 00 2 ... ... ... : ... .. . ... ... ... : A#3 00 . P86 ... ... : ... .. . P86 ... ...
ROW 96 : ... .. . ... ... ... : ... .. . ... ... ... : ... .. . ... ... ... : B-# 01 . ... ... ... : ... .. . ... ... ... : ... .. . P7D ... ... : C#3 00 . P81 ... ...
ROW 97 : ... .. . ... ... ... : D#4 02 . ... ... ... : ... .. . ... ... ... : C-# 00 . ... ... ... : ... .. . ... ... ... : A-3 00 7 P82 ... ... : ... .. 3 P75 ... ...
ROW 98 : ... .. . ... ... ... : ... .. . ... ... ... : ... .. . ... ... ... : D-# 00 . ... ... ... : ... .. . ... ... ... : ... .. . P79 ... ... : C-3 00 . P82 ... ...
ROW 99 : ... .. . ... ... ... : ... .. . ... ... ... : ... .. . ... ... ... : C-# 00 1 ... ... ... : ... .. . ... ... ... : G#3 00 . P80 ... ... : ... .. . P76 ... ...
ROW 9A : ... .. . ... ... ... : D#3 02 3 ... ... ... : C-4 00 . P7F ... ... : A-# 00 A ... ... ... : ... .. . ... ... ... : D#4 02 8 ... ... ... : B-2 00 . P84 ... ...
ROW 9B : ... .. . ... ... ... : ... .. . ... ... ... : ... .. . ... ... ... : 5-# 01 9 ... ... ... : ... .. . ... ... ... : ... .. . ... ... ... : ... .. . P78 ... ...
ROW 9C : ... .. . ... ... ... : F#3 02 . ... ... ... : --- .. . ... ... ... : 6-# 01 8 ... ... ... : ... .. . ... ... ... : ... .. . ... ... ... : F#1 00 2 P70 ... ...
ROW 9D : ... .. . ... ... ... : ... .. . ... ... ... : ... .. . ... ... ... : 7-# 01 7 ... ... ... : ... .. . ... ... ... : ... .. . ... ... ... : ... .. . P64 ... ...
ROW 9E : ... .. . ... ... ... : ... .. . ... ... ... : ... .. . ... ... ... : 8-# 01 . ... ... ... : ... .. . ... ... ... : D#4 00 . ... ... ... : F-1 00 . PA1 ... ...
ROW 9F : ... .. . ... ... ... : A#3 02 . ... ... ... : ... .. . ... ... ... : 9-# 00 . ... ... ... : ... .. . ... ... ... : ... .. . ... ... ... : ... .. . P95 ... ...
ROW A0 : ... .. . ... ... ... : ... .. . ... ... ... : ... .. . ... ... ... : 9-# 01 . ... ... ... : ... .. . ... ... ... : ... .. 7 ... ... ... : ... .. . P8A ... ...
ROW A1 : ... .. . ... ... ... : ... .. . ... ... ... : ... .. . ... ... ... : 9-# 00 6 ... ... ... : ... .. . ... ... ... : ... .. . ... ... ... : ... .. . P7E ... ...
ROW A2 : ... .. . ... ... ... : D#4 02 . ... ... ... : ... .. . ... ... ... : 9-# 01 . ... ... ... : ... .. . ... ... ... : ... .. . ... ... ... : D-2 00 . P6A ... ...
ROW A3 : ... .. . ... ... ... : ... .. . ... ... ... : ... .. . ... ... ... : 9-# 00 . ... ... ... : ... .. . ... ... ... : ... .. . ... ... ... : C#2 00 . P8B ... ...
ROW A4 : ... .. . ... ... ... : D#3 02 . ... ... ... : ... .. . ... ... ... : E-# 00 7 ... ... ... : ... .. . ... ... ... : D-4 00 . P81 ... ... : ... .. . P80 ... ...
ROW A5 : ... .. . ... ... ... : ... .. . ... ... ... : ... .. . ... ... ... : B-# 01 . ... ... ... : ... .. . ... ... ... : C#4 00 . P84 ... ... : ... .. . P74 ... ...
ROW A6 : ... .. . ... ... ... : ... .. . ... ... ... : ... .. . ... ... ... : C-# 00 6 ... ... ... : ... .. . ... ... ... : ... .. . P7B ... ... : G-2 00 3 P70 ... ...
ROW A7 : ... .. . ... ... ... : F#3 02 . ... ... ... : ... .. . ... ... ... : D-# 00 5 ... ... ... : ... .. . ... ... ... : C-4 00 . P7E ... ... : F#2 00 . P86 ... ...
ROW A8 : ... .. . ... ... ... : ... .. . ... ... ... : ... .. . ... ... ... : C-# 00 4 ... ... ... : ... .. . ... ... ... : B-3 00 . P81 ... ... : ... .. . P7B ... ...
ROW A9 : ... .. . ... ... ... : A#3 02 . ... ... ... : ... .. . ... ... ... : E-# 00 5 ... ... ... : ... .. . ... ... ... : A#3 00 . P86 ... ... : ... .. 2 P6F ... ...
ROW AA : ... .. . ... ... ... : ... .. . ... ... ... : ... .. . ... ... ... : B-# 01 . ... ... ... : ... .. . ... ... ... : ... .. . P7D ... ... : F-2 00 . P88 ... ...
ROW AB : ... .. . ... ... ... : ... .. . ... ... ... : ... .. . ... ... ... : C-# 00 4 ... ... ... : ... .. . ... ... ... : A-3 00 . P82 ... ... : ... .. . P7C ... ...
ROW AC : ... .. . ... ... ... : D#4 02 . ... ... ... : ... .. . ... ... ... : D-# 00 3 ... ... ... : ... .. . ... ... ... : ... .. . P79 ... ... : D#1 00 . P9D ... ...
ROW AD : ... .. . ... ... ... : ... .. . ... ... ... : ... .. . ... ... ... : C-# 00 . ... ... ... : ... .. . ... ... ... : G#3 00 . P80 ... ... : ... .. . P91 ... ...
ROW AE : ... .. . ... ... ... : ... .. . ... ... ... : ... .. . ... ... ... : D-# 00 . ... ... ... : ... .. . ... ... ... : ... .. . ... ... ... : ... .. . P86 ... ...
ROW AF : ... .. . ... ... ... : D#3 02 2 ... ... ... : E-4 00 . P80 ... ... : ... .. 6 ... ... ... : ... .. . ... ... ... : D#4 02 . ... ... ... : ... .. . P7A ... ...
ROW B0 : ... .. . ... ... ... : ... .. . ... ... ... : A#3 00 . P87 ... ... : 3-# 01 9 ... ... ... : ... .. . ... ... ... : ... .. . ... ... ... : ... .. . P6F ... ...
ROW B1 : ... .. . ... ... ... : F#3 02 . ... ... ... : --- .. . ... ... ... : 2-# 01 7 ... ... ... : ... .. . ... ... ... : ... .. . ... ... ... : ... .. 1 P63 ... ...
ROW B2 : ... .. . ... ... ... : ... .. . ... ... ... : ... .. . ... ... ... : 2-# 00 6 ... ... ... : ... .. . ... ... ... : ... .. . ... ... ... : A#1 00 . P78 ... ...
ROW B3 : ... .. . ... ... ... : ... .. . ... ... ... : ... .. . ... ... ... : 1-# 00 . ... ... ... : ... .. . ... ... ... : D#4 00 . ... ... ... : ... .. . P6C ... ...
ROW B4 : ... .. . ... ... ... : A#3 02 . ... ... ... : ... .. . ... ... ... : ... .. 5 ... ... ... : ... .. . ... ... ... : ... .. . ... ... ... : A-1 00 . P9A ... ...
ROW B5 : ... .. . ... ... ... : ... .. . ... ... ... : ... .. . ... ... ... : ... .. 4 ... ... ... : ... .. . ... ... ... : ... .. . ... ... ... : ... .. . P8E ... ...
ROW B6 : ... .. . ... ... ... : D#4 02 . ... ... ... : ... .. . ... ... ... : ... .. . ... ... ... : ... .. . ... ... ... : ... .. . ... ... ... : D-2 00 2 P77 ... ...
ROW B7 : ... .. . ... ... ... : ... .. . ... ... ... : ... .. . ... ... ... : ... .. 3 ... ... ... : ... .. . ... ... ... : ... .. . ... ... ... : ... .. . P6B ... ...
ROW B8 : ... .. . ... ... ... : ... .. . ... ... ... : ... .. . ... ... ... : ... .. . ... ... ... : ... .. . ... ... ... : ... .. . ... ... ... : C#2 00 . P8D ... ...
ROW B9 : ... .. . ... ... ... : D#3 02 . ... ... ... : ... .. . ... ... ... : E-# 00 7 ... ... ... : ... .. . ... ... ... : D-4 00 . P81 ... ... : ... .. . P81 ... ...
ROW BA : ... .. . ... ... ... : ... .. . ... ... ... : ... .. . ... ... ... : B-# 01 . ... ... ... : ... .. . ... ... ... : C#4 00 . P84 ... ... : ... .. . P76 ... ...
ROW BB : ... .. . ... ... ... : ... .. . ... ... ... : ... .. . ... ... ... : C-# 00 6 ... ... ... : ... .. . ... ... ... : ... .. . P7B ... ... : ... .. . P6A ... ...
ROW BC : ... .. . ... ... ... : F#3 02 . ... ... ... : ... .. . ... ... ... : D-# 00 5 ... ... ... : ... .. . ... ... ... : C-4 00 . P7E ... ... : C#1 00 . P95 ... ...
ROW BD : ... .. . ... ... ... : ... .. . ... ... ... : ... .. . ... ... ... : C-# 00 4 ... ... ... : ... .. . ... ... ... : B-3 00 . P81 ... ... : ... .. 1 P89 ... ...
ROW BE : ... .. . ... ... ... : A#3 02 . ... ... ... : ... .. . ... ... ... : E-# 00 2 ... ... ... : ... .. . ... ... ... : A#3 00 . P86 ... ... : ... .. . P7E ... ...
ROW BF : ... .. . ... ... ... : ... .. . ... ... ... : ... .. . ... ... ... : B-# 01 . ... ... ... : ... .. . ... ... ... : ... .. . P7D ... ... : ... .. . P72 ... ...
ROW C0 : ... .. . ... ... ... : ... .. . ... ... ... : ... .. . ... ... ... : C-# 00 . ... ... ... : ... .. . ... ... ... : A-3 00 . P82 ... ... : ... .. . P67 ... ...
ROW C1 : ... .. . ... ... ... : D#4 02 . ... ... ... : ... .. . ... ... ... : D-# 00 . ... ... ... : ... .. . ... ... ... : ... .. 6 P79 ... ... : ... .. . P5B ... ...
ROW C2 : ... .. . ... ... ... : ... .. . ... ... ... : ... .. . ... ... ... : C-# 00 1 ... ... ... : ... .. . ... ... ... : G#3 00 . P80 ... ... : G-1 00 . P75 ... ...
ROW C3 : ... .. . ... ... ... : D#3 02 1 ... ... ... : C-4 00 . P7F ... ... : A-# 00 A ... ... ... : ... .. . ... ... ... : D#4 02 7 ... ... ... : ... .. . P69 ... ...
ROW C4 : ... .. . ... ... ... : ... .. . ... ... ... : ... .. . ... ... ... : 5-# 01 9 ... ... ... : ... .. . ... ... ... : ... .. . ... ... ... : F#1 00 . PA2 ... ...
ROW C5 : ... .. . ... ... ... : ... .. . ... ... ... : A#2 00 . P88 ... ... : 6-# 01 8 ... ... ... : ... .. . ... ... ... : ... .. . ... ... ... : ... .. . P96 ... ...
ROW C6 : ... .. . ... ... ... : F#3 02 . ... ... ... : --- .. . ... ... ... : 7-# 01 7 ... ... ... : ... .. . ... ... ... : ... .. . ... ... ... : A#1 00 . P85 ... ...
ROW C7 : ... .. . ... ... ... : ... .. . ... ... ... : ... .. . ... ... ... : 8-# 01 . ... ... ... : ... .. . ... ... ... : D#4 00 . ... ... ... : ... .. . P79 ... ...
ROW C8 : ... .. . ... ... ... : ... .. . ... ... ... : ... .. . ... ... ... : 9-# 00 . ... ... ... : ... .. . ... ... ... : ... .. . ... ... ... : ... .. . P6E ... ...
ROW C9 : ... .. . ... ... ... : A#3 02 . ... ... ... : ... .. . ... ... ... : 9-# 01 . ... ... ... : ... .. . ... ... ... : ... .. 6 ... ... ... : A-1 00 . P9B ... ...
ROW CA : ... .. . ... ... ... : ... .. . ... ... ... : ... .. . ... ... ... : 9-# 00 6 ... ... ... : ... .. . ... ... ... : ... .. . ... ... ... : ... .. . P90 ... ...
ROW CB : ... .. . ... ... ... : D#4 02 . ... ... ... : ... .. . ... ... ... : 9-# 01 . ... ... ... : ... .. . ... ... ... : ... .. . ... ... ... : ... .. . P84 ... ...
ROW CC : ... .. . ... ... ... : ... .. . ... ... ... : ... .. . ... ... ... : 9-# 00 . ... ... ... : ... .. . ... ... ... : ... .. . ... ... ... : B-0 00 . PA3 ... ...
ROW CD : ... .. . ... ... ... : ... .. . ... ... ... : ... .. . ... ... ... : ... .. . ... ... ... : ... .. . ... ... ... : ... .. . ... ... ... : ... .. . P97 ... ...
ROW CE : ... .. . ... ... ... : D#3 02 . ... ... ... : ... .. . ... ... ... : E-# 00 7 ... ... ... : ... .. . ... ... ... : D-4 00 . P81 ... ... : ... .. . P8C ... ...
ROW CF : ... .. . ... ... ... : ... .. . ... ... ... : ... .. . ... ... ... : B-# 01 . ... ... ... : ... .. . ... ... ... : C#4 00 . P84 ... ... : ... .. . P80 ... ...
ROW D0 : ... .. . ... ... ... : F#3 02 . ... ... ... : ... .. . ... ... ... : C-# 00 6 ... ... ... : ... .. . ... ... ... : ... .. . P7B ... ... : ... .. . P75 ... ...
ROW D1 : ... .. . ... ... ... : ... .. . ... ... ... : ... .. . ... ... ... : D-# 00 5 ... ... ... : ... .. . ... ... ... : C-4 00 . P7E ... ... : ... .. . P69 ... ...
ROW D2 : ... .. . ... ... ... : ... .. . ... ... ... : ... .. . ... ... ... : C-# 00 4 ... ... ... : ... .. . ... ... ... : B-3 00 . P81 ... ... : E-1 00 . P95 ... ...
ROW D3 : ... .. . ... ... ... : A#3 02 . ... ... ... : ... .. . ... ... ... : E-# 00 5 ... ... ... : ... .. . ... ... ... : A#3 00 . P86 ... ... : ... .. . P89 ... ...
ROW D4 : ... .. . ... ... ... : ... .. . ... ... ... : ... .. . ... ... ... : B-# 01 . ... ... ... : ... .. . ... ... ... : ... .. . P7D ... ... : ... .. . P7E ... ...
ROW D5 : ... .. . ... ... ... : D#4 02 . ... ... ... : ... .. . ... ... ... : C-# 00 4 ... ... ... : ... .. . ... ... ... : A-3 00 5 P82 ... ... : ... .. . P72 ... ...
ROW D6 : ... .. . ... ... ... : ... .. . ... ... ... : ... .. . ... ... ... : D-# 00 3 ... ... ... : ... .. . ... ... ... : ... .. . P79 ... ... : G-1 00 . P82 ... ...
ROW D7 : ... .. . ... ... ... : ... .. . ... ... ... : ... .. . ... ... ... : C-# 00 . ... ... ... : ... .. . ... ... ... : G#3 00 . P80 ... ... : ... .. . P76 ... ...
ROW D8 : F-2 02 B ... ... ... : E-2 02 9 ... ... ... : E-2 00 . P80 ... ... : E-# 00 7 ... ... ... : ... .. . ... ... ... : D#4 02 6 ... ... ... : --- .. . ... ... ...
ROW D9 : ... .. A ... ... ... : ... .. . ... ... ... : ... .. . ... ... ... : B-# 01 . ... ... ... : ... .. . ... ... ... : ... .. . ... ... ... : ... .. . P80 ... ...
ROW DA : F#1 02 . ... ... ... : F-1 02 8 ... ... ... : ... .. . ... ... ... : C-# 00 6 ... ... ... : ... .. . ... ... ... : ... .. . ... ... ... : ... .. . ... ... ...
ROW DB : F-1 02 9 ... ... ... : E-1 02 . ... ... ... : ... .. . ... ... ... : D-# 00 5 ... ... ... : ... .. . ... ... ... : ... .. . ... ... ... : ... .. . ... ... ...
ROW DC : ... .. . ... ... ... : ... .. . ... ... ... : ... .. . ... ... ... : C-# 00 4 ... ... ... : ... .. . ... ... ... : D#4 00 . ... ... ... : ... .. . ... ... ...
ROW DD : ... .. . ... ... ... : ... .. 7 ... ... ... : --- .. . ... ... ... : E-# 00 5 ... ... ... : ... .. . ... ... ... : ... .. . ... ... ... : ... .. . ... ... ...
ROW DE : ... .. . ... ... ... : ... .. 8 ... ... ... : ... .. . ... ... ... : B-# 01 . ... ... ... : ... .. . ... ... ... : ... .. 5 ... ... ... : ... .. . ... ... ...
ROW DF : ... .. 8 ... ... ... : ... .. 7 ... ... ... : ... .. . ... ... ... : C-# 00 4 ... ... ... : ... .. . ... ... ... : ... .. . ... ... ... : ... .. . ... ... ...
ROW E0 : ... .. 7 ... ... ... : ... .. . ... ... ... : ... .. . ... ... ... : D-# 00 3 ... ... ... : ... .. . ... ... ... : ... .. . ... ... ... : ... .. . ... ... ...
ROW E1 : ... .. 6 ... ... ... : ... .. 6 ... ... ... : ... .. . ... ... ... : C-# 00 . ... ... ... : ... .. . ... ... ... : ... .. . ... ... ... : ... .. . ... ... ...
ROW E2 : F-2 02 9 ... ... ... : E-2 02 7 ... ... ... : E-4 00 . ... ... ... : D-# 00 6 ... ... ... : ... .. . ... ... ... : D-4 00 . P81 ... ... : ... .. . ... ... ...
ROW E3 : ... .. 8 ... ... ... : ... .. . ... ... ... : A#3 00 . P87 ... ... : 3-# 01 9 ... ... ... : ... .. . ... ... ... : C#4 00 . P84 ... ... : ... .. . ... ... ...
ROW E4 : F#1 02 . ... ... ... : F-1 02 6 ... ... ... : F#3 00 . P86 ... ... : 2-# 01 7 ... ... ... : ... .. . ... ... ... : ... .. . P7B ... ... : ... .. . ... ... ...
ROW E5 : F-1 02 . ... ... ... : E-1 02 7 ... ... ... : E-2 00 . P80 ... ... : 2-# 00 6 ... ... ... : ... .. . ... ... ... : C-4 00 . P7E ... ... : ... .. . ... ... ...
ROW E6 : ... .. . ... ... ... : ... .. . ... ... ... : ... .. . ... ... ... : 1-# 00 . ... ... ... : ... .. . ... ... ... : B-3 00 . P81 ... ... : ... .. . ... ... ...
ROW E7 : ... .. . ... ... ... : ... .. 6 ... ... ... : ... .. . ... ... ... : ... .. 5 ... ... ... : ... .. . ... ... ... : A#3 00 . P86 ... ... : ... .. . ... ... ...
ROW E8 : ... .. 9 ... ... ... : ... .. 8 ... ... ... : ... .. . ... ... ... : E-# 00 2 ... ... ... : ... .. . ... ... ... : ... .. . P7D ... ... : ... .. . ... ... ...
ROW E9 : ... .. 8 ... ... ... : ... .. 7 ... ... ... : ... .. . ... ... ... : B-# 01 . ... ... ... : ... .. . ... ... ... : A-3 00 . P82 ... ... : ... .. . ... ... ...
ROW EA : ... .. 9 ... ... ... : ... .. 8 ... ... ... : ... .. . ... ... ... : C-# 00 . ... ... ... : ... .. . ... ... ... : ... .. . P79 ... ... : ... .. . ... ... ...
ROW EB : ... .. 8 ... ... ... : ... .. 7 ... ... ... : ... .. . ... ... ... : D-# 00 . ... ... ... : ... .. . ... ... ... : G#3 00 . P80 ... ... : ... .. . ... ... ...
ROW EC : ... .. 9 ... ... ... : ... .. 8 ... ... ... : ... .. . ... ... ... : C-# 00 1 ... ... ... : ... .. . ... ... ... : ... .. . ... ... ... : ... .. . ... ... ...
ROW ED : ... .. 6 ... ... ... : ... .. 5 ... ... ... : C-4 00 . P7F ... ... : A-# 00 A ... ... ... : ... .. . ... ... ... : D#4 02 . ... ... ... : ... .. . ... ... ...
ROW EE : ... .. 7 ... ... ... : ... .. 6 ... ... ... : ... .. . ... ... ... : 5-# 01 9 ... ... ... : ... .. . ... ... ... : ... .. . ... ... ... : ... .. . ... ... ...
ROW EF : ... .. . ... ... ... : ... .. . ... ... ... : E-2 00 . P80 ... ... : 6-# 01 8 ... ... ... : ... .. . ... ... ... : ... .. . ... ... ... : ... .. . ... ... ...
ROW F0 : ... .. 8 ... ... ... : ... .. 7 ... ... ... : ... .. . ... ... ... : 7-# 01 7 ... ... ... : ... .. . ... ... ... : ... .. . ... ... ... : ... .. . ... ... ...
ROW F1 : ... .. 7 ... ... ... : ... .. 6 ... ... ... : ... .. . ... ... ... : 8-# 01 . ... ... ... : ... .. . ... ... ... : D#4 00 . ... ... ... : ... .. . ... ... ...
ROW F2 : ... .. 8 ... ... ... : ... .. 7 ... ... ... : ... .. . ... ... ... : 9-# 00 . ... ... ... : ... .. . ... ... ... : ... .. . ... ... ... : ... .. . ... ... ...
ROW F3 : ... .. 7 ... ... ... : ... .. . ... ... ... : ... .. . ... ... ... : 9-# 01 . ... ... ... : ... .. . ... ... ... : ... .. . ... ... ... : ... .. . ... ... ...
ROW F4 : ... .. 8 ... ... ... : ... .. . ... ... ... : ... .. . ... ... ... : 9-# 00 6 ... ... ... : ... .. . ... ... ... : ... .. . ... ... ... : ... .. . ... ... ...
ROW F5 : ... .. . ... ... ... : ... .. . ... ... ... : --- .. . ... ... ... : 9-# 01 . ... ... ... : ... .. . ... ... ... : ... .. . ... ... ... : ... .. . ... ... ...
ROW F6 : ... .. 9 ... ... ... : ... .. 8 ... ... ... : ... .. . ... ... ... : 9-# 00 . ... ... ... : ... .. . ... ... ... : ... .. . ... ... ... : ... .. . ... ... ...
ROW F7 : ... .. 6 ... ... ... : ... .. 6 ... ... ... : ... .. . ... ... ... : E-# 00 7 ... ... ... : ... .. . ... ... ... : D-4 00 . ... ... ... : ... .. . ... ... ...
ROW F8 : ... .. 7 ... ... ... : ... .. . ... ... ... : ... .. . ... ... ... : B-# 01 . ... ... ... : ... .. . ... ... ... : C#4 00 . P82 ... ... : ... .. . ... ... ...
ROW F9 : ... .. . ... ... ... : ... .. . ... ... ... : ... .. . ... ... ... : C-# 00 6 ... ... ... : ... .. . ... ... ... : C-4 00 . P84 ... ... : ... .. . ... ... ...
ROW FA : ... .. 8 ... ... ... : ... .. 7 ... ... ... : ... .. . ... ... ... : D-# 00 5 ... ... ... : ... .. . ... ... ... : B-3 00 . P86 ... ... : ... .. . ... ... ...
ROW FB : ... .. . ... ... ... : ... .. . ... ... ... : ... .. . ... ... ... : C-# 00 4 ... ... ... : ... .. . ... ... ... : ... .. . P7C ... ... : ... .. . ... ... ...
ROW FC : ... .. 7 ... ... ... : ... .. . ... ... ... : ... .. . ... ... ... : E-# 00 5 ... ... ... : ... .. . ... ... ... : A#3 00 . P80 ... ... : ... .. . ... ... ...
ROW FD : ... .. 6 ... ... ... : ... .. 6 ... ... ... : ... .. . ... ... ... : B-# 01 . ... ... ... : ... .. . ... ... ... : A-3 00 . P84 ... ... : ... .. . ... ... ...
ROW FE : ... .. 5 ... ... ... : ... .. 5 ... ... ... : ... .. . ... ... ... : C-# 00 4 ... ... ... : ... .. . ... ... ... : ... .. . P80 ... ... : ... .. . ... ... ...
ROW FF : ... .. 4 ... ... ... : ... .. 4 ... ... ... : ... .. . ... ... ... : D-# 00 3 ... ... ... : ... .. . ... ... ... : --- .. . ... ... ... : ... .. . ... ... ...

PATTERN 0B
ROW 00 : ... .. 3 ... ... ... : ... .. 3 ... ... ... : ... .. . ... ... ... : C-# 00 . ... ... ... : ... .. . ... ... ... : ... .. . ... ... ... : ... .. . ... ... ...
ROW 01 : E-2 02 9 ... ... ... : D#2 02 7 ... ... ... : E-4 00 . ... ... ... : D-# 00 6 ... ... ... : ... .. . ... ... ... : ... .. . ... ... ... : ... .. . ... ... ...
ROW 02 : ... .. 8 ... ... ... : ... .. . ... ... ... : A#3 00 . P87 ... ... : 3-# 01 9 ... ... ... : ... .. . ... ... ... : ... .. . ... ... ... : ... .. . ... ... ...
ROW 03 : F-1 02 . ... ... ... : E-1 02 6 ... ... ... : F#3 00 . P86 ... ... : 2-# 01 7 ... ... ... : ... .. . ... ... ... : ... .. . ... ... ... : ... .. . ... ... ...
ROW 04 : E-1 02 . ... ... ... : D#1 02 7 ... ... ... : D#2 00 . P80 ... ... : 2-# 00 6 ... ... ... : ... .. . ... ... ... : ... .. . ... ... ... : ... .. . ... ... ...
ROW 05 : ... .. . ... ... ... : ... .. . ... ... ... : ... .. . ... ... ... : 1-# 00 . ... ... ... : ... .. . ... ... ... : ... .. . ... ... ... : ... .. . ... ... ...
ROW 06 : ... .. . ... ... ... : ... .. 6 ... ... ... : ... .. . ... ... ... : ... .. 5 ... ... ... : ... .. . ... ... ... : ... .. . ... ... ... : ... .. . ... ... ...
ROW 07 : ... .. 9 ... ... ... : ... .. 8 ... ... ... : ... .. . ... ... ... : ... .. 4 ... ... ... : ... .. . ... ... ... : ... .. . ... ... ... : ... .. . ... ... ...
ROW 08 : ... .. 8 ... ... ... : ... .. 7 ... ... ... : ... .. . ... ... ... : ... .. . ... ... ... : ... .. . ... ... ... : ... .. . ... ... ... : ... .. . ... ... ...
ROW 09 : ... .. 9 ... ... ... : ... .. 8 ... ... ... : ... .. . ... ... ... : ... .. 3 ... ... ... : ... .. . ... ... ... : ... .. . ... ... ... : ... .. . ... ... ...
ROW 0A : ... .. 8 ... ... ... : ... .. 7 ... ... ... : ... .. . ... ... ... : ... .. . ... ... ... : ... .. . ... ... ... : ... .. . ... ... ... : ... .. . ... ... ...
ROW 0B : ... .. 9 ... ... ... : ... .. 8 ... ... ... : ... .. . ... ... ... : ... .. . ... ... ... : ... .. . ... ... ... : ... .. . ... ... ... : ... .. . ... ... ...
ROW 0C : ... .. 8 ... ... ... : ... .. 7 ... ... ... : ... .. . ... ... ... : E-# 00 7 ... ... ... : ... .. . ... ... ... : ... .. . ... ... ... : ... .. . ... ... ...
ROW 0D : ... .. 9 ... ... ... : ... .. 8 ... ... ... : ... .. . P82 ... ... : B-# 01 . ... ... ... : ... .. . ... ... ... : ... .. . ... ... ... : ... .. . ... ... ...
ROW 0E : ... .. 8 ... ... ... : ... .. 7 ... ... ... : ... .. . P84 ... ... : C-# 00 6 ... ... ... : ... .. . ... ... ... : ... .. . ... ... ... : ... .. . ... ... ...
ROW 0F : ... .. 9 ... ... ... : ... .. 8 ... ... ... : ... .. . P86 ... ... : D-# 00 5 ... ... ... : ... .. . ... ... ... : ... .. . ... ... ... : ... .. . ... ... ...
ROW 10 : ... .. 8 ... ... ... : ... .. 7 ... ... ... : ... .. . P88 ... ... : C-# 00 4 ... ... ... : ... .. . ... ... ... : ... .. . ... ... ... : ... .. . ... ... ...
ROW 11 : ... .. 9 ... ... ... : ... .. 8 ... ... ... : ... .. . P89 ... ... : E-# 00 2 ... ... ... : ... .. . ... ... ... : ... .. . ... ... ... : ... .. . ... ... ...
ROW 12 : ... .. 8 ... ... ... : ... .. 7 ... ... ... : ... .. . P8A ... ... : B-# 01 . ... ... ... : ... .. . ... ... ... : ... .. . ... ... ... : ... .. . ... ... ...
ROW 13 : ... .. 9 ... ... ... : ... .. 8 ... ... ... : ... .. . P8B ... ... : C-# 00 . ... ... ... : ... .. . ... ... ... : ... .. . ... ... ... : ... .. . ... ... ...
ROW 14 : ... .. 8 ... ... ... : ... .. 7 ... ... ... : ... .. . ... ... ... : D-# 00 . ... ... ... : ... .. . ... ... ... : ... .. . ... ... ... : ... .. . ... ... ...
ROW 15 : ... .. 9 ... ... ... : ... .. 8 ... ... ... : ... .. . ... ... ... : C-# 00 1 ... ... ... : ... .. . ... ... ... : ... .. . ... ... ... : ... .. . ... ... ...
ROW 16 : ... .. 6 ... ... ... : ... .. 5 ... ... ... : C-4 00 . P7F ... ... : A-# 00 A ... ... ... : ... .. . ... ... ... : ... .. . ... ... ... : ... .. . ... ... ...
ROW 17 : ... .. 7 ... ... ... : ... .. 6 ... ... ... : ... .. . ... ... ... : 5-# 01 9 ... ... ... : ... .. . ... ... ... : ... .. . ... ... ... : ... .. . ... ... ...
ROW 18 : ... .. . ... ... ... : ... .. . ... ... ... : A#2 00 . P88 ... ... : 6-# 01 8 ... ... ... : ... .. . ... ... ... : ... .. . ... ... ... : ... .. . ... ... ...
ROW 19 : ... .. 8 ... ... ... : ... .. 7 ... ... ... : D#2 00 . P80 ... ... : 7-# 01 7 ... ... ... : ... .. . ... ... ... : ... .. . ... ... ... : ... .. . ... ... ...
ROW 1A : ... .. . ... ... ... : ... .. . ... ... ... : ... .. . ... ... ... : 8-# 01 . ... ... ... : ... .. . ... ... ... : ... .. . ... ... ... : ... .. . ... ... ...
ROW 1B : ... .. 7 ... ... ... : ... .. . ... ... ... : --- .. . ... ... ... : 9-# 00 . ... ... ... : ... .. . ... ... ... : ... .. . ... ... ... : ... .. . ... ... ...
ROW 1C : ... .. 6 ... ... ... : ... .. 6 ... ... ... : ... .. . ... ... ... : 9-# 01 . ... ... ... : ... .. . ... ... ... : ... .. . ... ... ... : ... .. . ... ... ...
ROW 1D : ... .. 5 ... ... ... : ... .. 5 ... ... ... : ... .. . ... ... ... : 9-# 00 6 ... ... ... : ... .. . ... ... ... : ... .. . ... ... ... : ... .. . ... ... ...
ROW 1E : ... .. 4 ... ... ... : ... .. 4 ... ... ... : ... .. . ... ... ... : 9-# 01 . ... ... ... : ... .. . ... ... ... : ... .. . ... ... ... : ... .. . ... ... ...
ROW 1F : ... .. 3 ... ... ... : ... .. 3 ... ... ... : ... .. . ... ... ... : 9-# 00 . ... ... ... : ... .. . ... ... ... : ... .. . ... ... ... : ... .. . ... ... ...
ROW 20 : ... .. 2 ... ... ... : ... .. 2 ... ... ... : ... .. . ... ... ... : ... .. . ... ... ... : ... .. . ... ... ... : ... .. . ... ... ... : ... .. . ... ... ...
ROW 21 : E-2 02 B ... ... ... : D#2 02 9 ... ... ... : D#2 00 . ... ... ... : E-# 00 7 ... ... ... : ... .. . ... ... ... : ... .. . ... ... ... : ... .. . ... ... ...
ROW 22 : ... .. A ... ... ... : ... .. . ... ... ... : ... .. . ... ... ... : B-# 01 . ... ... ... : ... .. . ... ... ... : ... .. . ... ... ... : ... .. . ... ... ...
ROW 23 : F-1 02 . ... ... ... : E-1 02 8 ... ... ... : ... .. . ... ... ... : C-# 00 6 ... ... ... : ... .. . ... ... ... : ... .. . ... ... ... : ... .. . ... ... ...
ROW 24 : E-1 02 9 ... ... ... : D#1 02 . ... ... ... : ... .. . ... ... ... : D-# 00 5 ... ... ... : ... .. . ... ... ... : ... .. . ... ... ... : ... .. . ... ... ...
ROW 25 : ... .. . ... ... ... : ... .. . ... ... ... : ... .. . ... ... ... : C-# 00 4 ... ... ... : ... .. . ... ... ... : ... .. . ... ... ... : ... .. . ... ... ...
ROW 26 : ... .. . ... ... ... : ... .. 7 ... ... ... : --- .. . ... ... ... : E-# 00 5 ... ... ... : ... .. . ... ... ... : ... .. . ... ... ... : ... .. . ... ... ...
ROW 27 : ... .. . ... ... ... : ... .. 8 ... ... ... : ... .. . ... ... ... : B-# 01 . ... ... ... : ... .. . ... ... ... : ... .. . ... ... ... : ... .. . ... ... ...
ROW 28 : ... .. 7 ... ... ... : ... .. 7 ... ... ... : ... .. . ... ... ... : C-# 00 4 ... ... ... : ... .. . ... ... ... : ... .. . ... ... ... : ... .. . ... ... ...
ROW 29 : ... .. 6 ... ... ... : ... .. 6 ... ... ... : ... .. . ... ... ... : D-# 00 3 ... ... ... : ... .. . ... ... ... : ... .. . ... ... ... : ... .. . ... ... ...
ROW 2A : ... .. 5 ... ... ... : ... .. 5 ... ... ... : ... .. . ... ... ... : C-# 00 . ... ... ... : ... .. . ... ... ... : ... .. . ... ... ... : ... .. . ... ... ...
ROW 2B : ... .. 4 ... ... ... : F#3 02 1 ... ... ... : ... .. . ... ... ... : E-# 00 7 ... ... ... : ... .. . ... ... ... : ... .. . ... ... ... : ... .. . ... ... ...
ROW 2C : ... .. 3 ... ... ... : ... .. . ... ... ... : ... .. . ... ... ... : B-# 01 . ... ... ... : ... .. . ... ... ... : ... .. . ... ... ... : ... .. . ... ... ...
ROW 2D : ... .. 2 ... ... ... : A#3 02 2 ... ... ... : ... .. . ... ... ... : C-# 00 6 ... ... ... : ... .. . ... ... ... : ... .. . ... ... ... : ... .. . ... ... ...
ROW 2E : ... .. 1 ... ... ... : ... .. . ... ... ... : ... .. . ... ... ... : D-# 00 5 ... ... ... : ... .. . ... ... ... : ... .. . ... ... ... : ... .. . ... ... ...
ROW 2F : --- .. . ... ... ... : ... .. . ... ... ... : ... .. . ... ... ... : C-# 00 4 ... ... ... : ... .. . ... ... ... : ... .. . ... ... ... : ... .. . ... ... ...
ROW 30 : ... .. . ... ... ... : D#4 02 3 ... ... ... : ... .. . ... ... ... : E-# 00 5 ... ... ... : ... .. . ... ... ... : ... .. . ... ... ... : ... .. . ... ... ...
ROW 31 : ... .. . ... ... ... : ... .. . ... ... ... : ... .. . ... ... ... : B-# 01 . ... ... ... : ... .. . ... ... ... : ... .. . ... ... ... : ... .. . ... ... ...
ROW 32 : ... .. . ... ... ... : ... .. . ... ... ... : ... .. . ... ... ... : C-# 00 4 ... ... ... : ... .. . ... ... ... : ... .. . ... ... ... : ... .. . ... ... ...
ROW 33 : ... .. . ... ... ... : F#4 02 4 ... ... ... : ... .. . ... ... ... : D-# 00 3 ... ... ... : ... .. . ... ... ... : ... .. . ... ... ... : ... .. . ... ... ...
ROW 34 : ... .. . ... ... ... : ... .. . ... ... ... : ... .. . ... ... ... : C-# 00 . ... ... ... : ... .. . ... ... ... : ... .. . ... ... ... : ... .. . ... ... ...
ROW 35 : ... .. . ... ... ... : F#3 02 . ... ... ... : E-4 00 . ... ... ... : D-# 00 6 ... ... ... : ... .. . ... ... ... : ... .. . ... ... ... : ... .. . ... ... ...
ROW 36 : ... .. . ... ... ... : ... .. . ... ... ... : A#3 00 . P87 ... ... : 3-# 01 9 ... ... ... : ... .. . ... ... ... : ... .. . ... ... ... : ... .. . ... ... ...
ROW 37 : ... .. . ... ... ... : ... .. . ... ... ... : F#3 00 . P86 ... ... : 2-# 01 7 ... ... ... : ... .. . ... ... ... : ... .. . ... ... ... : ... .. . ... ... ...
ROW 38 : ... .. . ... ... ... : A#3 02 . ... ... ... : --- .. . ... ... ... : 2-# 00 6 ... ... ... : ... .. . ... ... ... : ... .. . ... ... ... : ... .. . ... ... ...
ROW 39 : ... .. . ... ... ... : ... .. . ... ... ... : ... .. . ... ... ... : 1-# 00 . ... ... ... : ... .. . ... ... ... : ... .. . ... ... ... : ... .. . ... ... ...
ROW 3A : ... .. . ... ... ... : D#4 02 . ... ... ... : ... .. . ... ... ... : E-# 00 2 ... ... ... : ... .. . ... ... ... : ... .. . ... ... ... : ... .. . ... ... ...
ROW 3B : ... .. . ... ... ... : ... .. . ... ... ... : ... .. . ... ... ... : B-# 01 . ... ... ... : ... .. . ... ... ... : ... .. . ... ... ... : ... .. . ... ... ...
ROW 3C : ... .. . ... ... ... : ... .. . ... ... ... : ... .. . ... ... ... : C-# 00 . ... ... ... : ... .. . ... ... ... : ... .. . ... ... ... : ... .. . ... ... ...
ROW 3D : ... .. . ... ... ... : F#4 02 . ... ... ... : ... .. . ... ... ... : D-# 00 . ... ... ... : ... .. . ... ... ... : ... .. . ... ... ... : ... .. . ... ... ...
ROW 3E : ... .. . ... ... ... : ... .. . ... ... ... : ... .. . ... ... ... : C-# 00 1 ... ... ... : ... .. . ... ... ... : ... .. . ... ... ... : ... .. . ... ... ...
ROW 3F : ... .. . ... ... ... : ... .. . ... ... ... : ... .. . ... ... ... : D-# 00 . ... ... ... : ... .. . ... ... ... : ... .. . ... ... ... : ... .. . ... ... ...
ROW 40 : ... .. . ... ... ... : F#3 02 3 ... ... ... : C-4 00 . P7F ... ... : A-# 00 A ... ... ... : ... .. . ... ... ... : ... .. . ... ... ... : ... .. . ... ... ...
ROW 41 : ... .. . ... ... ... : ... .. . ... ... ... : ... .. . ... ... ... : 5-# 01 9 ... ... ... : ... .. . ... ... ... : ... .. . ... ... ... : ... .. . ... ... ...
ROW 42 : ... .. . ... ... ... : A#3 02 . ... ... ... : --- .. . ... ... ... : 6-# 01 8 ... ... ... : ... .. . ... ... ... : ... .. . ... ... ... : ... .. . ... ... ...
ROW 43 : ... .. . ... ... ... : ... .. . ... ... ... : ... .. . ... ... ... : 7-# 01 7 ... ... ... : ... .. . ... ... ... : ... .. . ... ... ... : ... .. . ... ... ...
ROW 44 : ... .. . ... ... ... : ... .. . ... ... ... : ... .. . ... ... ... : 8-# 01 . ... ... ... : ... .. . ... ... ... : ... .. . ... ... ... : ... .. . ... ... ...
ROW 45 : ... .. . ... ... ... : D#4 02 . ... ... ... : ... .. . ... ... ... : 9-# 00 . ... ... ... : ... .. . ... ... ... : ... .. . ... ... ... : ... .. . ... ... ...
ROW 46 : ... .. . ... ... ... : ... .. . ... ... ... : ... .. . ... ... ... : 9-# 01 . ... ... ... : ... .. . ... ... ... : ... .. . ... ... ... : ... .. . ... ... ...
ROW 47 : ... .. . ... ... ... : F#4 02 . ... ... ... : ... .. . ... ... ... : 9-# 00 6 ... ... ... : ... .. . ... ... ... : ... .. . ... ... ... : ... .. . ... ... ...
ROW 48 : ... .. . ... ... ... : ... .. . ... ... ... : ... .. . ... ... ... : 9-# 01 . ... ... ... : ... .. . ... ... ... : ... .. . ... ... ... : ... .. . ... ... ...
ROW 49 : ... .. . ... ... ... : ... .. . ... ... ... : ... .. . ... ... ... : 9-# 00 . ... ... ... : ... .. . ... ... ... : ... .. . ... ... ... : ... .. . ... ... ...
ROW 4A : ... .. . ... ... ... : F#3 02 . ... ... ... : ... .. . ... ... ... : E-# 00 7 ... ... ... : ... .. . ... ... ... : ... .. . ... ... ... : ... .. . ... ... ...
ROW 4B : ... .. . ... ... ... : ... .. . ... ... ... : ... .. . ... ... ... : B-# 01 . ... ... ... : ... .. . ... ... ... : ... .. . ... ... ... : ... .. . ... ... ...
ROW 4C : ... .. . ... ... ... : ... .. . ... ... ... : ... .. . ... ... ... : C-# 00 6 ... ... ... : ... .. . ... ... ... : ... .. . ... ... ... : ... .. . ... ... ...
ROW 4D : ... .. . ... ... ... : A#3 02 . ... ... ... : ... .. . ... ... ... : D-# 00 5 ... ... ... : ... .. . ... ... ... : ... .. . ... ... ... : ... .. . ... ... ...
ROW 4E : ... .. . ... ... ... : ... .. . ... ... ... : ... .. . ... ... ... : C-# 00 4 ... ... ... : ... .. . ... ... ... : ... .. . ... ... ... : ... .. . ... ... ...
ROW 4F : ... .. . ... ... ... : D#4 02 . ... ... ... : ... .. . ... ... ... : E-# 00 5 ... ... ... : ... .. . ... ... ... : ... .. . ... ... ... : ... .. . ... ... ...
ROW 50 : ... .. . ... ... ... : ... .. . ... ... ... : ... .. . ... ... ... : B-# 01 . ... ... ... : ... .. . ... ... ... : ... .. . ... ... ... : ... .. . ... ... ...
ROW 51 : ... .. . ... ... ... : ... .. . ... ... ... : ... .. . ... ... ... : C-# 00 4 ... ... ... : ... .. . ... ... ... : ... .. . ... ... ... : ... .. . ... ... ...
ROW 52 : ... .. . ... ... ... : F#4 02 . ... ... ... : ... .. . ... ... ... : D-# 00 3 ... ... ... : ... .. . ... ... ... : ... .. . ... ... ... : ... .. . ... ... ...
ROW 53 : ... .. . ... ... ... : ... .. . ... ... ... : ... .. . ... ... ... : C-# 00 . ... ... ... : ... .. . ... ... ... : ... .. . ... ... ... : ... .. . ... ... ...
ROW 54 : ... .. . ... ... ... : F#3 02 2 ... ... ... : E-4 00 . P80 ... ... : D-# 00 6 ... ... ... : ... .. . ... ... ... : ... .. . ... ... ... : ... .. . ... ... ...
ROW 55 : ... .. . ... ... ... : ... .. . ... ... ... : A#3 00 . P87 ... ... : 3-# 01 9 ... ... ... : ... .. . ... ... ... : ... .. . ... ... ... : ... .. . ... ... ...
ROW 56 : ... .. . ... ... ... : ... .. . ... ... ... : F#3 00 . P86 ... ... : 2-# 01 7 ... ... ... : ... .. . ... ... ... : ... .. . ... ... ... : ... .. . ... ... ...
ROW 57 : ... .. . ... ... ... : A#3 02 . ... ... ... : --- .. . ... ... ... : 2-# 00 6 ... ... ... : ... .. . ... ... ... : ... .. . ... ... ... : ... .. . ... ... ...
ROW 58 : ... .. . ... ... ... : ... .. . ... ... ... : ... .. . ... ... ... : 1-# 00 . ... ... ... : ... .. . ... ... ... : ... .. . ... ... ... : ... .. . ... ... ...
ROW 59 : ... .. . ... ... ... : ... .. . ... ... ... : ... .. . ... ... ... : ... .. 5 ... ... ... : ... .. . ... ... ... : ... .. . ... ... ... : ... .. . ... ... ...
ROW 5A : ... .. . ... ... ... : D#4 02 . ... ... ... : ... .. . ... ... ... : ... .. 4 ... ... ... : ... .. . ... ... ... : ... .. . ... ... ... : ... .. . ... ... ...
ROW 5B : ... .. . ... ... ... : ... .. . ... ... ... : ... .. . ... ... ... : ... .. . ... ... ... : ... .. . ... ... ... : ... .. . ... ... ... : ... .. . ... ... ...
ROW 5C : ... .. . ... ... ... : F#4 02 . ... ... ... : ... .. . ... ... ... : ... .. 3 ... ... ... : ... .. . ... ... ... : ... .. . ... ... ... : ... .. . ... ... ...
ROW 5D : ... .. . ... ... ... : ... .. . ... ... ... : ... .. . ... ... ... : ... .. . ... ... ... : ... .. . ... ... ... : ... .. . ... ... ... : ... .. . ... ... ...
ROW 5E : ... .. . ... ... ... : ... .. . ... ... ... : ... .. . ... ... ... : ... .. . ... ... ... : ... .. . ... ... ... : ... .. . ... ... ... : ... .. . ... ... ...
ROW 5F : ... .. . ... ... ... : F#3 02 . ... ... ... : ... .. . ... ... ... : E-# 00 7 ... ... ... : ... .. . ... ... ... : ... .. . ... ... ... : ... .. . ... ... ...
ROW 60 : ... .. . ... ... ... : ... .. . ... ... ... : ... .. . ... ... ... : B-# 01 . ... ... ... : ... .. . ... ... ... : ... .. . ... ... ... : ... .. . ... ... ...
ROW 61 : ... .. . ... ... ... : A#3 02 . ... ... ... : ... .. . ... ... ... : C-# 00 6 ... ... ... : ... .. . ... ... ... : ... .. . ... ... ... : ... .. . ... ... ...
ROW 62 : ... .. . ... ... ... : ... .. . ... ... ... : ... .. . ... ... ... : D-# 00 5 ... ... ... : ... .. . ... ... ... : ... .. . ... ... ... : ... .. . ... ... ...
ROW 63 : ... .. . ... ... ... : ... .. . ... ... ... : ... .. . ... ... ... : C-# 00 4 ... ... ... : ... .. . ... ... ... : ... .. . ... ... ... : ... .. . ... ... ...
ROW 64 : ... .. . ... ... ... : D#4 02 . ... ... ... : ... .. . ... ... ... : E-# 00 2 ... ... ... : ... .. . ... ... ... : ... .. . ... ... ... : ... .. . ... ... ...
ROW 65 : ... .. . ... ... ... : ... .. . ... ... ... : ... .. . ... ... ... : B-# 01 . ... ... ... : ... .. . ... ... ... : ... .. . ... ... ... : ... .. . ... ... ...
ROW 66 : ... .. . ... ... ... : F#4 02 . ... ... ... : ... .. . ... ... ... : C-# 00 . ... ... ... : ... .. . ... ... ... : ... .. . ... ... ... : ... .. . ... ... ...
ROW 67 : ... .. . ... ... ... : ... .. . ... ... ... : ... .. . ... ... ... : D-# 00 . ... ... ... : ... .. . ... ... ... : ... .. . ... ... ... : ... .. . ... ... ...
ROW 68 : ... .. . ... ... ... : ... .. . ... ... ... : ... .. . ... ... ... : C-# 00 1 ... ... ... : ... .. . ... ... ... : ... .. . ... ... ... : ... .. . ... ... ...
ROW 69 : ... .. . ... ... ... : F#3 02 1 ... ... ... : C-4 00 . P7F ... ... : A-# 00 A ... ... ... : ... .. . ... ... ... : ... .. . ... ... ... : ... .. . ... ... ...
ROW 6A : ... .. . ... ... ... : ... .. . ... ... ... : ... .. . ... ... ... : 5-# 01 9 ... ... ... : ... .. . ... ... ... : ... .. . ... ... ... : ... .. . ... ... ...
ROW 6B : ... .. . ... ... ... : ... .. . ... ... ... : A#2 00 . P88 ... ... : 6-# 01 8 ... ... ... : ... .. . ... ... ... : ... .. . ... ... ... : ... .. . ... ... ...
ROW 6C : ... .. . ... ... ... : A#3 02 . ... ... ... : --- .. . ... ... ... : 7-# 01 7 ... ... ... : ... .. . ... ... ... : ... .. . ... ... ... : ... .. . ... ... ...
ROW 6D : ... .. . ... ... ... : ... .. . ... ... ... : ... .. . ... ... ... : 8-# 01 . ... ... ... : ... .. . ... ... ... : ... .. . ... ... ... : ... .. . ... ... ...
ROW 6E : ... .. . ... ... ... : D#4 02 . ... ... ... : ... .. . ... ... ... : 9-# 00 . ... ... ... : ... .. . ... ... ... : ... .. . ... ... ... : ... .. . ... ... ...
ROW 6F : ... .. . ... ... ... : ... .. . ... ... ... : ... .. . ... ... ... : 9-# 01 . ... ... ... : ... .. . ... ... ... : ... .. . ... ... ... : ... .. . ... ... ...
ROW 70 : ... .. . ... ... ... : ... .. . ... ... ... : ... .. . ... ... ... : 9-# 00 6 ... ... ... : ... .. . ... ... ... : ... .. . ... ... ... : ... .. . ... ... ...
ROW 71 : ... .. . ... ... ... : F#4 02 . ... ... ... : ... .. . ... ... ... : 9-# 01 . ... ... ... : ... .. . ... ... ... : ... .. . ... ... ... : ... .. . ... ... ...
ROW 72 : ... .. . ... ... ... : ... .. . ... ... ... : ... .. . ... ... ... : 9-# 00 . ... ... ... : ... .. . ... ... ... : ... .. . ... ... ... : ... .. . ... ... ...
ROW 73 : ... .. . ... ... ... : F#3 02 . ... ... ... : ... .. . ... ... ... : E-# 00 7 ... ... ... : ... .. . ... ... ... : ... .. . ... ... ... : ... .. . ... ... ...
ROW 74 : ... .. . ... ... ... : ... .. . ... ... ... : ... .. . ... ... ... : B-# 01 . ... ... ... : ... .. . ... ... ... : ... .. . ... ... ... : ... .. . ... ... ...
ROW 75 : ... .. . ... ... ... : ... .. . ... ... ... : ... .. . ... ... ... : C-# 00 6 ... ... ... : ... .. . ... ... ... : ... .. . ... ... ... : ... .. . ... ... ...
ROW 76 : ... .. . ... ... ... : A#3 02 . ... ... ... : ... .. . ... ... ... : D-# 00 5 ... ... ... : ... .. . ... ... ... : ... .. . ... ... ... : ... .. . ... ... ...
ROW 77 : ... .. . ... ... ... : ... .. . ... ... ... : ... .. . ... ... ... : C-# 00 4 ... ... ... : ... .. . ... ... ... : ... .. . ... ... ... : ... .. . ... ... ...
ROW 78 : ... .. . ... ... ... : ... .. . ... ... ... : ... .. . ... ... ... : D-# 00 . ... ... ... : ... .. . ... ... ... : ... .. . ... ... ... : ... .. . ... ... ...
ROW 79 : ... .. . ... ... ... : D#4 02 . ... ... ... : ... .. . ... ... ... : E-# 00 5 ... ... ... : ... .. . ... ... ... : ... .. . ... ... ... : ... .. . ... ... ...
ROW 7A : ... .. . ... ... ... : ... .. . ... ... ... : ... .. . ... ... ... : B-# 01 . ... ... ... : ... .. . ... ... ... : ... .. . ... ... ... : ... .. . ... ... ...
ROW 7B : ... .. . ... ... ... : F#4 02 . ... ... ... : ... .. . ... ... ... : C-# 00 4 ... ... ... : ... .. . ... ... ... : ... .. . ... ... ... : ... .. . ... ... ...
ROW 7C : ... .. . ... ... ... : ... .. . ... ... ... : ... .. . ... ... ... : D-# 00 3 ... ... ... : ... .. . ... ... ... : ... .. . ... ... ... : ... .. . ... ... ...
ROW 7D : ... .. . ... ... ... : ... .. . ... ... ... : ... .. . ... ... ... : C-# 00 . ... ... ... : ... .. . ... ... ... : ... .. . ... ... ... : ... .. . ... ... ...
ROW 7E : F-2 02 B ... ... ... : E-2 02 9 ... ... ... : E-2 00 . P80 ... ... : E-# 00 7 ... ... ... : ... .. . ... ... ... : ... .. . ... ... ... : ... .. . ... ... ...
ROW 7F : ... .. A ... ... ... : ... .. . ... ... ... : ... .. . ... ... ... : B-# 01 . ... ... ... : ... .. . ... ... ... : ... .. . ... ... ... : ... .. . ... ... ...
ROW 80 : F#1 02 . ... ... ... : F-1 02 8 ... ... ... : ... .. . ... ... ... : C-# 00 6 ... ... ... : ... .. . ... ... ... : ... .. . ... ... ... : ... .. . ... ... ...
ROW 81 : F-1 02 9 ... ... ... : E-1 02 . ... ... ... : ... .. . ... ... ... : D-# 00 5 ... ... ... : ... .. . ... ... ... : ... .. . ... ... ... : ... .. . ... ... ...
ROW 82 : ... .. . ... ... ... : ... .. . ... ... ... : ... .. . ... ... ... : C-# 00 4 ... ... ... : ... .. . ... ... ... : ... .. . ... ... ... : ... .. . ... ... ...
ROW 83 : ... .. . ... ... ... : ... .. 7 ... ... ... : --- .. . ... ... ... : E-# 00 5 ... ... ... : ... .. . ... ... ... : ... .. . ... ... ... : ... .. . ... ... ...
ROW 84 : ... .. . ... ... ... : ... .. 8 ... ... ... : ... .. . ... ... ... : B-# 01 . ... ... ... : ... .. . ... ... ... : ... .. . ... ... ... : ... .. . ... ... ...
ROW 85 : ... .. 8 ... ... ... : ... .. 7 ... ... ... : ... .. . ... ... ... : C-# 00 4 ... ... ... : ... .. . ... ... ... : ... .. . ... ... ... : ... .. . ... ... ...
ROW 86 : ... .. 7 ... ... ... : ... .. . ... ... ... : ... .. . ... ... ... : D-# 00 3 ... ... ... : ... .. . ... ... ... : ... .. . ... ... ... : ... .. . ... ... ...
ROW 87 : ... .. 6 ... ... ... : ... .. 6 ... ... ... : ... .. . ... ... ... : C-# 00 . ... ... ... : ... .. . ... ... ... : ... .. . ... ... ... : ... .. . ... ... ...
ROW 88 : F-2 02 9 ... ... ... : E-2 02 7 ... ... ... : E-4 00 . ... ... ... : D-# 00 6 ... ... ... : ... .. . ... ... ... : ... .. . ... ... ... : ... .. . ... ... ...
ROW 89 : ... .. 8 ... ... ... : ... .. . ... ... ... : A#3 00 . P87 ... ... : 3-# 01 9 ... ... ... : ... .. . ... ... ... : ... .. . ... ... ... : ... .. . ... ... ...
ROW 8A : F#1 02 . ... ... ... : F-1 02 6 ... ... ... : F#3 00 . P86 ... ... : 2-# 01 7 ... ... ... : ... .. . ... ... ... : ... .. . ... ... ... : ... .. . ... ... ...
ROW 8B : F-1 02 . ... ... ... : E-1 02 7 ... ... ... : E-2 00 . P80 ... ... : 2-# 00 6 ... ... ... : ... .. . ... ... ... : ... .. . ... ... ... : ... .. . ... ... ...
ROW 8C : ... .. . ... ... ... : ... .. . ... ... ... : ... .. . ... ... ... : 1-# 00 . ... ... ... : ... .. . ... ... ... : ... .. . ... ... ... : ... .. . ... ... ...
ROW 8D : ... .. 9 ... ... ... : ... .. . ... ... ... : ... .. . ... ... ... : E-# 00 2 ... ... ... : ... .. . ... ... ... : ... .. . ... ... ... : ... .. . ... ... ...
ROW 8E : ... .. . ... ... ... : ... .. 8 ... ... ... : ... .. . ... ... ... : B-# 01 . ... ... ... : ... .. . ... ... ... : ... .. . ... ... ... : ... .. . ... ... ...
ROW 8F : ... .. 8 ... ... ... : ... .. 7 ... ... ... : ... .. . ... ... ... : C-# 00 . ... ... ... : ... .. . ... ... ... : ... .. . ... ... ... : ... .. . ... ... ...
ROW 90 : ... .. 9 ... ... ... : ... .. 8 ... ... ... : ... .. . ... ... ... : D-# 00 . ... ... ... : ... .. . ... ... ... : ... .. . ... ... ... : ... .. . ... ... ...
ROW 91 : ... .. 8 ... ... ... : ... .. 7 ... ... ... : ... .. . ... ... ... : C-# 00 1 ... ... ... : ... .. . ... ... ... : ... .. . ... ... ... : ... .. . ... ... ...
ROW 92 : ... .. 7 ... ... ... : ... .. 6 ... ... ... : C-4 00 . P7F ... ... : A-# 00 A ... ... ... : ... .. . ... ... ... : ... .. . ... ... ... : ... .. . ... ... ...
ROW 93 : ... .. 6 ... ... ... : ... .. 5 ... ... ... : ... .. . ... ... ... : 5-# 01 9 ... ... ... : ... .. . ... ... ... : ... .. . ... ... ... : ... .. . ... ... ...
ROW 94 : ... .. 7 ... ... ... : ... .. 6 ... ... ... : A#2 00 . P88 ... ... : 6-# 01 8 ... ... ... : ... .. . ... ... ... : ... .. . ... ... ... : ... .. . ... ... ...
ROW 95 : ... .. . ... ... ... : ... .. . ... ... ... : E-2 00 . P80 ... ... : 7-# 01 7 ... ... ... : ... .. . ... ... ... : ... .. . ... ... ... : ... .. . ... ... ...
ROW 96 : ... .. 8 ... ... ... : ... .. 7 ... ... ... : ... .. . ... ... ... : 8-# 01 . ... ... ... : ... .. . ... ... ... : ... .. . ... ... ... : ... .. . ... ... ...
ROW 97 : ... .. 7 ... ... ... : ... .. 6 ... ... ... : ... .. . ... ... ... : 9-# 00 . ... ... ... : ... .. . ... ... ... : ... .. . ... ... ... : ... .. . ... ... ...
ROW 98 : ... .. 8 ... ... ... : ... .. 7 ... ... ... : ... .. . ... ... ... : 9-# 01 . ... ... ... : ... .. . ... ... ... : ... .. . ... ... ... : ... .. . ... ... ...
ROW 99 : ... .. 7 ... ... ... : ... .. . ... ... ... : ... .. . ... ... ... : 9-# 00 6 ... ... ... : ... .. . ... ... ... : ... .. . ... ... ... : ... .. . ... ... ...
ROW 9A : ... .. 9 ... ... ... : ... .. 8 ... ... ... : --- .. . ... ... ... : 9-# 01 . ... ... ... : ... .. . ... ... ... : ... .. . ... ... ... : ... .. . ... ... ...
ROW 9B : ... .. 8 ... ... ... : ... .. 7 ... ... ... : ... .. . ... ... ... : 9-# 00 . ... ... ... : ... .. . ... ... ... : ... .. . ... ... ... : ... .. . ... ... ...
ROW 9C : ... .. 9 ... ... ... : ... .. 8 ... ... ... : ... .. . ... ... ... : ... .. . ... ... ... : ... .. . ... ... ... : ... .. . ... ... ... : ... .. . ... ... ...
ROW 9D : ... .. 6 ... ... ... : ... .. 6 ... ... ... : ... .. . ... ... ... : E-# 00 7 ... ... ... : ... .. . ... ... ... : ... .. . ... ... ... : ... .. . ... ... ...
ROW 9E : ... .. 7 ... ... ... : ... .. . ... ... ... : ... .. . ... ... ... : B-# 01 . ... ... ... : ... .. . ... ... ... : ... .. . ... ... ... : ... .. . ... ... ...
ROW 9F : ... .. 8 ... ... ... : ... .. 7 ... ... ... : ... .. . ... ... ... : C-# 00 6 ... ... ... : ... .. . ... ... ... : ... .. . ... ... ... : ... .. . ... ... ...
ROW A0 : ... .. . ... ... ... : ... .. . ... ... ... : ... .. . ... ... ... : D-# 00 5 ... ... ... : ... .. . ... ... ... : ... .. . ... ... ... : ... .. . ... ... ...
ROW A1 : ... .. . ... ... ... : ... .. . ... ... ... : ... .. . ... ... ... : C-# 00 4 ... ... ... : ... .. . ... ... ... : ... .. . ... ... ... : ... .. . ... ... ...
ROW A2 : ... .. 7 ... ... ... : ... .. . ... ... ... : ... .. . ... ... ... : E-# 00 5 ... ... ... : ... .. . ... ... ... : ... .. . ... ... ... : ... .. . ... ... ...
ROW A3 : ... .. 6 ... ... ... : ... .. 6 ... ... ... : ... .. . ... ... ... : B-# 01 . ... ... ... : ... .. . ... ... ... : ... .. . ... ... ... : ... .. . ... ... ...
ROW A4 : ... .. 5 ... ... ... : ... .. 5 ... ... ... : ... .. . ... ... ... : C-# 00 4 ... ... ... : ... .. . ... ... ... : ... .. . ... ... ... : ... .. . ... ... ...
ROW A5 : ... .. 4 ... ... ... : ... .. 4 ... ... ... : ... .. . ... ... ... : D-# 00 3 ... ... ... : ... .. . ... ... ... : ... .. . ... ... ... : ... .. . ... ... ...
ROW A6 : ... .. 3 ... ... ... : ... .. 3 ... ... ... : ... .. . ... ... ... : C-# 00 . ... ... ... : ... .. . ... ... ... : ... .. . ... ... ... : ... .. . ... ... ...
ROW A7 : E-2 02 9 ... ... ... : D#2 02 7 ... ... ... : E-4 00 . ... ... ... : D-# 00 6 ... ... ... : ... .. . ... ... ... : ... .. . ... ... ... : ... .. . ... ... ...
ROW A8 : ... .. 8 ... ... ... : ... .. . ... ... ... : A#3 00 . P87 ... ... : 3-# 01 9 ... ... ... : ... .. . ... ... ... : ... .. . ... ... ... : ... .. . ... ... ...
ROW A9 : F-1 02 . ... ... ... : E-1 02 6 ... ... ... : F#3 00 . P86 ... ... : 2-# 01 7 ... ... ... : ... .. . ... ... ... : ... .. . ... ... ... : ... .. . ... ... ...
ROW AA : E-1 02 . ... ... ... : D#1 02 7 ... ... ... : D#2 00 . P80 ... ... : 2-# 00 6 ... ... ... : ... .. . ... ... ... : ... .. . ... ... ... : ... .. . ... ... ...
ROW AB : ... .. . ... ... ... : ... .. . ... ... ... : ... .. . ... ... ... : 1-# 00 . ... ... ... : ... .. . ... ... ... : ... .. . ... ... ... : ... .. . ... ... ...
ROW AC : ... .. 9 ... ... ... : ... .. . ... ... ... : ... .. . ... ... ... : ... .. 5 ... ... ... : ... .. . ... ... ... : ... .. . ... ... ... : ... .. . ... ... ...
ROW AD : ... .. . ... ... ... : ... .. 8 ... ... ... : ... .. . ... ... ... : ... .. 4 ... ... ... : ... .. . ... ... ... : ... .. . ... ... ... : ... .. . ... ... ...
ROW AE : ... .. 8 ... ... ... : ... .. 7 ... ... ... : ... .. . ... ... ... : ... .. . ... ... ... : ... .. . ... ... ... : ... .. . ... ... ... : ... .. . ... ... ...
ROW AF : ... .. 9 ... ... ... : ... .. 8 ... ... ... : ... .. . ... ... ... : ... .. 3 ... ... ... : ... .. . ... ... ... : ... .. . ... ... ... : ... .. . ... ... ...
ROW B0 : ... .. 8 ... ... ... : ... .. 7 ... ... ... : ... .. . ... ... ... : ... .. . ... ... ... : ... .. . ... ... ... : ... .. . ... ... ... : ... .. . ... ... ...
ROW B1 : ... .. 9 ... ... ... : ... .. 8 ... ... ... : ... .. . ... ... ... : ... .. . ... ... ... : ... .. . ... ... ... : ... .. . ... ... ... : ... .. . ... ... ...
ROW B2 : ... .. 8 ... ... ... : ... .. 7 ... ... ... : ... .. . ... ... ... : E-# 00 7 ... ... ... : ... .. . ... ... ... : ... .. . ... ... ... : ... .. . ... ... ...
ROW B3 : ... .. 9 ... ... ... : ... .. 8 ... ... ... : ... .. . P82 ... ... : B-# 01 . ... ... ... : ... .. . ... ... ... : ... .. . ... ... ... : ... .. . ... ... ...
ROW B4 : ... .. 8 ... ... ... : ... .. 7 ... ... ... : ... .. . P84 ... ... : C-# 00 6 ... ... ... : ... .. . ... ... ... : ... .. . ... ... ... : ... .. . ... ... ...
ROW B5 : ... .. 9 ... ... ... : ... .. 8 ... ... ... : ... .. . P86 ... ... : D-# 00 5 ... ... ... : ... .. . ... ... ... : ... .. . ... ... ... : ... .. . ... ... ...
ROW B6 : ... .. 8 ... ... ... : ... .. 7 ... ... ... : ... .. . P88 ... ... : C-# 00 4 ... ... ... : ... .. . ... ... ... : ... .. . ... ... ... : ... .. . ... ... ...
ROW B7 : ... .. 9 ... ... ... : ... .. 8 ... ... ... : ... .. . P89 ... ... : E-# 00 2 ... ... ... : ... .. . ... ... ... : ... .. . ... ... ... : ... .. . ... ... ...
ROW B8 : ... .. 8 ... ... ... : ... .. 7 ... ... ... : ... .. . P8A ... ... : B-# 01 . ... ... ... : ... .. . ... ... ... : ... .. . ... ... ... : ... .. . ... ... ...
ROW B9 : ... .. 9 ... ... ... : ... .. 8 ... ... ... : ... .. . P8B ... ... : C-# 00 . ... ... ... : ... .. . ... ... ... : ... .. . ... ... ... : ... .. . ... ... ...
ROW BA : ... .. 8 ... ... ... : ... .. 7 ... ... ... : ... .. . ... ... ... : D-# 00 . ... ... ... : ... .. . ... ... ... : ... .. . ... ... ... : ... .. . ... ... ...
ROW BB : ... .. 9 ... ... ... : ... .. 8 ... ... ... : ... .. . ... ... ... : C-# 00 1 ... ... ... : ... .. . ... ... ... : ... .. . ... ... ... : ... .. . ... ... ...
ROW BC : ... .. 6 ... ... ... : ... .. 5 ... ... ... : C-4 00 . P7F ... ... : A-# 00 A ... ... ... : ... .. . ... ... ... : ... .. . ... ... ... : ... .. . ... ... ...
ROW BD : ... .. 7 ... ... ... : ... .. 6 ... ... ... : ... .. . ... ... ... : 5-# 01 9 ... ... ... : ... .. . ... ... ... : ... .. . ... ... ... : ... .. . ... ... ...
ROW BE : ... .. 8 ... ... ... : ... .. 7 ... ... ... : D#2 00 . P80 ... ... : 6-# 01 8 ... ... ... : ... .. . ... ... ... : ... .. . ... ... ... : ... .. . ... ... ...
ROW BF : ... .. . ... ... ... : ... .. . ... ... ... : ... .. . ... ... ... : 7-# 01 7 ... ... ... : ... .. . ... ... ... : ... .. . ... ... ... : ... .. . ... ... ...
ROW C0 : ... .. . ... ... ... : ... .. . ... ... ... : ... .. . ... ... ... : 8-# 01 . ... ... ... : ... .. . ... ... ... : ... .. . ... ... ... : ... .. . ... ... ...
ROW C1 : ... .. 7 ... ... ... : ... .. . ... ... ... : --- .. . ... ... ... : 9-# 00 . ... ... ... : ... .. . ... ... ... : ... .. . ... ... ... : ... .. . ... ... ...
ROW C2 : ... .. 6 ... ... ... : ... .. 6 ... ... ... : ... .. . ... ... ... : 9-# 01 . ... ... ... : ... .. . ... ... ... : ... .. . ... ... ... : ... .. . ... ... ...
ROW C3 : ... .. 5 ... ... ... : ... .. 5 ... ... ... : ... .. . ... ... ... : 9-# 00 6 ... ... ... : ... .. . ... ... ... : ... .. . ... ... ... : ... .. . ... ... ...
ROW C4 : ... .. 4 ... ... ... : ... .. 4 ... ... ... : ... .. . ... ... ... : 9-# 01 . ... ... ... : ... .. . ... ... ... : ... .. . ... ... ... : ... .. . ... ... ...
ROW C5 : ... .. 3 ... ... ... : ... .. 3 ... ... ... : ... .. . ... ... ... : 9-# 00 . ... ... ... : ... .. . ... ... ... : ... .. . ... ... ... : ... .. . ... ... ...
ROW C6 : E-2 02 B ... ... ... : D#2 02 9 ... ... ... : D#2 00 . ... ... ... : E-# 00 7 ... ... ... : ... .. . ... ... ... : ... .. . ... ... ... : ... .. . ... ... ...
ROW C7 : ... .. A ... ... ... : ... .. . ... ... ... : ... .. . ... ... ... : B-# 01 . ... ... ... : ... .. . ... ... ... : ... .. . ... ... ... : ... .. . ... ... ...
ROW C8 : F-1 02 . ... ... ... : E-1 02 8 ... ... ... : ... .. . ... ... ... : C-# 00 6 ... ... ... : ... .. . ... ... ... : ... .. . ... ... ... : ... .. . ... ... ...
ROW C9 : E-1 02 9 ... ... ... : D#1 02 . ... ... ... : ... .. . ... ... ... : D-# 00 5 ... ... ... : ... .. . ... ... ... : ... .. . ... ... ... : ... .. . ... ... ...
ROW CA : ... .. . ... ... ... : ... .. . ... ... ... : ... .. . ... ... ... : C-# 00 4 ... ... ... : ... .. . ... ... ... : ... .. . ... ... ... : ... .. . ... ... ...
ROW CB : ... .. . ... ... ... : ... .. 7 ... ... ... : --- .. . ... ... ... : E-# 00 5 ... ... ... : ... .. . ... ... ... : ... .. . ... ... ... : ... .. . ... ... ...
ROW CC : ... .. . ... ... ... : ... .. 8 ... ... ... : ... .. . ... ... ... : B-# 01 . ... ... ... : ... .. . ... ... ... : ... .. . ... ... ... : ... .. . ... ... ...
ROW CD : ... .. 8 ... ... ... : ... .. 7 ... ... ... : ... .. . ... ... ... : C-# 00 4 ... ... ... : ... .. . ... ... ... : ... .. . ... ... ... : ... .. . ... ... ...
ROW CE : ... .. 7 ... ... ... : ... .. . ... ... ... : ... .. . ... ... ... : D-# 00 3 ... ... ... : ... .. . ... ... ... : ... .. . ... ... ... : ... .. . ... ... ...
ROW CF : ... .. 6 ... ... ... : ... .. 6 ... ... ... : ... .. . ... ... ... : C-# 00 . ... ... ... : ... .. . ... ... ... : ... .. . ... ... ... : ... .. . ... ... ...
ROW D0 : ... .. 5 ... ... ... : ... .. 5 ... ... ... : ... .. . ... ... ... : D-# 00 . ... ... ... : ... .. . ... ... ... : ... .. . ... ... ... : ... .. . ... ... ...
ROW D1 : ... .. 4 ... ... ... : E-3 02 1 ... ... ... : ... .. . ... ... ... : E-# 00 7 ... ... ... : ... .. . ... ... ... : ... .. . ... ... ... : ... .. . ... ... ...
ROW D2 : ... .. 3 ... ... ... : ... .. . ... ... ... : ... .. . ... ... ... : B-# 01 . ... ... ... : ... .. . ... ... ... : ... .. . ... ... ... : ... .. . ... ... ...
ROW D3 : ... .. 2 ... ... ... : F#3 02 2 ... ... ... : ... .. . ... ... ... : C-# 00 6 ... ... ... : ... .. . ... ... ... : ... .. . ... ... ... : ... .. . ... ... ...
ROW D4 : ... .. 1 ... ... ... : ... .. . ... ... ... : ... .. . ... ... ... : D-# 00 5 ... ... ... : ... .. . ... ... ... : ... .. . ... ... ... : ... .. . ... ... ...
ROW D5 : --- .. . ... ... ... : ... .. . ... ... ... : ... .. . ... ... ... : C-# 00 4 ... ... ... : ... .. . ... ... ... : ... .. . ... ... ... : ... .. . ... ... ...
ROW D6 : ... .. . ... ... ... : A-3 02 3 ... ... ... : ... .. . ... ... ... : E-# 00 5 ... ... ... : ... .. . ... ... ... : ... .. . ... ... ... : ... .. . ... ... ...
ROW D7 : ... .. . ... ... ... : ... .. . ... ... ... : ... .. . ... ... ... : B-# 01 . ... ... ... : ... .. . ... ... ... : ... .. . ... ... ... : ... .. . ... ... ...
ROW D8 : ... .. . ... ... ... : D#4 02 4 ... ... ... : ... .. . ... ... ... : C-# 00 4 ... ... ... : ... .. . ... ... ... : ... .. . ... ... ... : ... .. . ... ... ...
ROW D9 : ... .. . ... ... ... : ... .. . ... ... ... : ... .. . ... ... ... : D-# 00 3 ... ... ... : ... .. . ... ... ... : ... .. . ... ... ... : ... .. . ... ... ...
ROW DA : ... .. . ... ... ... : ... .. . ... ... ... : ... .. . ... ... ... : C-# 00 . ... ... ... : ... .. . ... ... ... : ... .. . ... ... ... : ... .. . ... ... ...
ROW DB : ... .. . ... ... ... : E-3 02 . ... ... ... : E-4 00 . ... ... ... : D-# 00 6 ... ... ... : ... .. . ... ... ... : ... .. . ... ... ... : ... .. . ... ... ...
ROW DC : ... .. . ... ... ... : ... .. . ... ... ... : A#3 00 . P87 ... ... : 3-# 01 9 ... ... ... : ... .. . ... ... ... : ... .. . ... ... ... : ... .. . ... ... ...
ROW DD : ... .. . ... ... ... : ... .. . ... ... ... : F#3 00 . P86 ... ... : 2-# 01 7 ... ... ... : ... .. . ... ... ... : ... .. . ... ... ... : ... .. . ... ... ...
ROW DE : ... .. . ... ... ... : F#3 02 . ... ... ... : --- .. . ... ... ... : 2-# 00 6 ... ... ... : ... .. . ... ... ... : ... .. . ... ... ... : ... .. . ... ... ...
ROW DF : ... .. . ... ... ... : ... .. . ... ... ... : ... .. . ... ... ... : 1-# 00 . ... ... ... : ... .. . ... ... ... : ... .. . ... ... ... : ... .. . ... ... ...
ROW E0 : ... .. . ... ... ... : A-3 02 . ... ... ... : ... .. . ... ... ... : E-# 00 2 ... ... ... : ... .. . ... ... ... : ... .. . ... ... ... : ... .. . ... ... ...
ROW E1 : ... .. . ... ... ... : ... .. . ... ... ... : ... .. . ... ... ... : B-# 01 . ... ... ... : ... .. . ... ... ... : ... .. . ... ... ... : ... .. . ... ... ...
ROW E2 : ... .. . ... ... ... : ... .. . ... ... ... : ... .. . ... ... ... : C-# 00 . ... ... ... : ... .. . ... ... ... : ... .. . ... ... ... : ... .. . ... ... ...
ROW E3 : ... .. . ... ... ... : D#4 02 . ... ... ... : ... .. . ... ... ... : D-# 00 . ... ... ... : ... .. . ... ... ... : ... .. . ... ... ... : ... .. . ... ... ...
ROW E4 : ... .. . ... ... ... : ... .. . ... ... ... : ... .. . ... ... ... : C-# 00 1 ... ... ... : ... .. . ... ... ... : ... .. . ... ... ... : ... .. . ... ... ...
ROW E5 : ... .. . ... ... ... : E-3 02 3 ... ... ... : C-4 00 . P7F ... ... : A-# 00 A ... ... ... : ... .. . ... ... ... : ... .. . ... ... ... : ... .. . ... ... ...
ROW E6 : ... .. . ... ... ... : ... .. . ... ... ... : ... .. . ... ... ... : 5-# 01 9 ... ... ... : ... .. . ... ... ... : ... .. . ... ... ... : ... .. . ... ... ...
ROW E7 : ... .. . ... ... ... : ... .. . ... ... ... : A#2 00 . P88 ... ... : 6-# 01 8 ... ... ... : ... .. . ... ... ... : ... .. . ... ... ... : ... .. . ... ... ...
ROW E8 : ... .. . ... ... ... : F#3 02 . ... ... ... : --- .. . ... ... ... : 7-# 01 7 ... ... ... : ... .. . ... ... ... : ... .. . ... ... ... : ... .. . ... ... ...
ROW E9 : ... .. . ... ... ... : ... .. . ... ... ... : ... .. . ... ... ... : 8-# 01 . ... ... ... : ... .. . ... ... ... : ... .. . ... ... ... : ... .. . ... ... ...
ROW EA : ... .. . ... ... ... : A-3 02 . ... ... ... : ... .. . ... ... ... : 9-# 00 . ... ... ... : ... .. . ... ... ... : ... .. . ... ... ... : ... .. . ... ... ...
ROW EB : ... .. . ... ... ... : ... .. . ... ... ... : ... .. . ... ... ... : 9-# 01 . ... ... ... : ... .. . ... ... ... : ... .. . ... ... ... : ... .. . ... ... ...
ROW EC : ... .. . ... ... ... : ... .. . ... ... ... : ... .. . ... ... ... : 9-# 00 6 ... ... ... : ... .. . ... ... ... : ... .. . ... ... ... : ... .. . ... ... ...
ROW ED : ... .. . ... ... ... : D#4 02 . ... ... ... : ... .. . ... ... ... : 9-# 01 . ... ... ... : ... .. . ... ... ... : ... .. . ... ... ... : ... .. . ... ... ...
ROW EE : ... .. . ... ... ... : ... .. . ... ... ... : ... .. . ... ... ... : 9-# 00 . ... ... ... : ... .. . ... ... ... : ... .. . ... ... ... : ... .. . ... ... ...
ROW EF : ... .. . ... ... ... : ... .. . ... ... ... : ... .. . ... ... ... : ... .. . ... ... ... : ... .. . ... ... ... : ... .. . ... ... ... : ... .. . ... ... ...
ROW F0 : ... .. . ... ... ... : E-3 02 . ... ... ... : ... .. . ... ... ... : E-# 00 7 ... ... ... : ... .. . ... ... ... : ... .. . ... ... ... : ... .. . ... ... ...
ROW F1 : ... .. . ... ... ... : ... .. . ... ... ... : ... .. . ... ... ... : B-# 01 . ... ... ... : ... .. . ... ... ... : ... .. . ... ... ... : ... .. . ... ... ...
ROW F2 : ... .. . ... ... ... : F#3 02 . ... ... ... : ... .. . ... ... ... : C-# 00 6 ... ... ... : ... .. . ... ... ... : ... .. . ... ... ... : ... .. . ... ... ...
ROW F3 : ... .. . ... ... ... : ... .. . ... ... ... : ... .. . ... ... ... : D-# 00 5 ... ... ... : ... .. . ... ... ... : ... .. . ... ... ... : ... .. . ... ... ...
ROW F4 : ... .. . ... ... ... : ... .. . ... ... ... : ... .. . ... ... ... : C-# 00 4 ... ... ... : ... .. . ... ... ... : ... .. . ... ... ... : ... .. . ... ... ...
ROW F5 : ... .. . ... ... ... : A-3 02 . ... ... ... : ... .. . ... ... ... : E-# 00 5 ... ... ... : ... .. . ... ... ... : ... .. . ... ... ... : ... .. . ... ... ...
ROW F6 : ... .. . ... ... ... : ... .. . ... ... ... : ... .. . ... ... ... : B-# 01 . ... ... ... : ... .. . ... ... ... : ... .. . ... ... ... : ... .. . ... ... ...
ROW F7 : ... .. . ... ... ... : D#4 02 . ... ... ... : ... .. . ... ... ... : C-# 00 4 ... ... ... : ... .. . ... ... ... : ... .. . ... ... ... : ... .. . ... ... ...
ROW F8 : ... .. . ... ... ... : ... .. . ... ... ... : ... .. . ... ... ... : D-# 00 3 ... ... ... : ... .. . ... ... ... : ... .. . ... ... ... : ... .. . ... ... ...
ROW F9 : ... .. . ... ... ... : ... .. . ... ... ... : ... .. . ... ... ... : C-# 00 . ... ... ... : ... .. . ... ... ... : ... .. . ... ... ... : ... .. . ... ... ...
ROW FA : ... .. . ... ... ... : E-3 02 2 ... ... ... : E-4 00 . P80 ... ... : D-# 00 6 ... ... ... : ... .. . ... ... ... : ... .. . ... ... ... : ... .. . ... ... ...
ROW FB : ... .. . ... ... ... : ... .. . ... ... ... : A#3 00 . P87 ... ... : 3-# 01 9 ... ... ... : ... .. . ... ... ... : ... .. . ... ... ... : ... .. . ... ... ...
ROW FC : ... .. . ... ... ... : ... .. . ... ... ... : F#3 00 . P86 ... ... : 2-# 01 7 ... ... ... : ... .. . ... ... ... : ... .. . ... ... ... : ... .. . ... ... ...
ROW FD : ... .. . ... ... ... : F#3 02 . ... ... ... : --- .. . ... ... ... : 2-# 00 6 ... ... ... : ... .. . ... ... ... : ... .. . ... ... ... : ... .. . ... ... ...
ROW FE : ... .. . ... ... ... : ... .. . ... ... ... : ... .. . ... ... ... : 1-# 00 . ... ... ... : ... .. . ... ... ... : ... .. . ... ... ... : ... .. . ... ... ...
ROW FF : ... .. . ... ... ... : A-3 02 . ... ... ... : ... .. . ... ... ... : ... .. 5 ... ... ... : ... .. . ... ... ... : ... .. . ... ... ... : ... .. . ... ... ...

PATTERN 0C
ROW 00 : ... .. . ... ... ... : ... .. . ... ... ... : ... .. . ... ... ... : ... .. 4 ... ... ... : ... .. . ... ... ... : ... .. . ... ... ... : ... .. . ... ... ...
ROW 01 : ... .. . ... ... ... : ... .. . ... ... ... : ... .. . ... ... ... : ... .. . ... ... ... : ... .. . ... ... ... : ... .. . ... ... ... : ... .. . ... ... ...
ROW 02 : ... .. . ... ... ... : D#4 02 . ... ... ... : ... .. . ... ... ... : ... .. 3 ... ... ... : ... .. . ... ... ... : ... .. . ... ... ... : ... .. . ... ... ...
ROW 03 : ... .. . ... ... ... : ... .. . ... ... ... : ... .. . ... ... ... : ... .. . ... ... ... : ... .. . ... ... ... : ... .. . ... ... ... : ... .. . ... ... ...
ROW 04 : ... .. . ... ... ... : E-3 02 . ... ... ... : ... .. . ... ... ... : E-# 00 7 ... ... ... : ... .. . ... ... ... : ... .. . ... ... ... : ... .. . ... ... ...
ROW 05 : ... .. . ... ... ... : ... .. . ... ... ... : ... .. . ... ... ... : B-# 01 . ... ... ... : ... .. . ... ... ... : ... .. . ... ... ... : ... .. . ... ... ...
ROW 06 : ... .. . ... ... ... : ... .. . ... ... ... : ... .. . ... ... ... : C-# 00 6 ... ... ... : ... .. . ... ... ... : ... .. . ... ... ... : ... .. . ... ... ...
ROW 07 : ... .. . ... ... ... : F#3 02 . ... ... ... : ... .. . ... ... ... : D-# 00 5 ... ... ... : ... .. . ... ... ... : ... .. . ... ... ... : ... .. . ... ... ...
ROW 08 : ... .. . ... ... ... : ... .. . ... ... ... : ... .. . ... ... ... : C-# 00 4 ... ... ... : ... .. . ... ... ... : ... .. . ... ... ... : ... .. . ... ... ...
ROW 09 : ... .. . ... ... ... : ... .. . ... ... ... : ... .. . ... ... ... : D-# 00 . ... ... ... : ... .. . ... ... ... : ... .. . ... ... ... : ... .. . ... ... ...
ROW 0A : ... .. . ... ... ... : A-3 02 . ... ... ... : ... .. . ... ... ... : E-# 00 2 ... ... ... : ... .. . ... ... ... : ... .. . ... ... ... : ... .. . ... ... ...
ROW 0B : ... .. . ... ... ... : ... .. . ... ... ... : ... .. . ... ... ... : B-# 01 . ... ... ... : ... .. . ... ... ... : ... .. . ... ... ... : ... .. . ... ... ...
ROW 0C : ... .. . ... ... ... : D#4 02 . ... ... ... : ... .. . ... ... ... : C-# 00 . ... ... ... : ... .. . ... ... ... : ... .. . ... ... ... : ... .. . ... ... ...
ROW 0D : ... .. . ... ... ... : ... .. . ... ... ... : ... .. . ... ... ... : D-# 00 . ... ... ... : ... .. . ... ... ... : ... .. . ... ... ... : ... .. . ... ... ...
ROW 0E : ... .. . ... ... ... : ... .. . ... ... ... : ... .. . ... ... ... : C-# 00 1 ... ... ... : ... .. . ... ... ... : ... .. . ... ... ... : ... .. . ... ... ...
ROW 0F : ... .. . ... ... ... : E-3 02 1 ... ... ... : C-4 00 . P7F ... ... : A-# 00 A ... ... ... : ... .. . ... ... ... : ... .. . ... ... ... : ... .. . ... ... ...
ROW 10 : ... .. . ... ... ... : ... .. . ... ... ... : ... .. . ... ... ... : 5-# 01 9 ... ... ... : ... .. . ... ... ... : ... .. . ... ... ... : ... .. . ... ... ...
ROW 11 : ... .. . ... ... ... : F#3 02 . ... ... ... : --- .. . ... ... ... : 6-# 01 8 ... ... ... : ... .. . ... ... ... : ... .. . ... ... ... : ... .. . ... ... ...
ROW 12 : ... .. . ... ... ... : ... .. . ... ... ... : ... .. . ... ... ... : 7-# 01 7 ... ... ... : ... .. . ... ... ... : ... .. . ... ... ... : ... .. . ... ... ...
ROW 13 : ... .. . ... ... ... : ... .. . ... ... ... : ... .. . ... ... ... : 8-# 01 . ... ... ... : ... .. . ... ... ... : ... .. . ... ... ... : ... .. . ... ... ...
ROW 14 : ... .. . ... ... ... : A-3 02 . ... ... ... : ... .. . ... ... ... : 9-# 00 . ... ... ... : ... .. . ... ... ... : ... .. . ... ... ... : ... .. . ... ... ...
ROW 15 : ... .. . ... ... ... : ... .. . ... ... ... : ... .. . ... ... ... : 9-# 01 . ... ... ... : ... .. . ... ... ... : ... .. . ... ... ... : ... .. . ... ... ...
ROW 16 : ... .. . ... ... ... : ... .. . ... ... ... : ... .. . ... ... ... : 9-# 00 6 ... ... ... : ... .. . ... ... ... : ... .. . ... ... ... : ... .. . ... ... ...
ROW 17 : ... .. . ... ... ... : D#4 02 . ... ... ... : ... .. . ... ... ... : 9-# 01 . ... ... ... : ... .. . ... ... ... : ... .. . ... ... ... : ... .. . ... ... ...
ROW 18 : ... .. . ... ... ... : ... .. . ... ... ... : ... .. . ... ... ... : 9-# 00 . ... ... ... : ... .. . ... ... ... : ... .. . ... ... ... : ... .. . ... ... ...
ROW 19 : ... .. . ... ... ... : E-3 02 . ... ... ... : ... .. . ... ... ... : E-# 00 7 ... ... ... : ... .. . ... ... ... : ... .. . ... ... ... : ... .. . ... ... ...
ROW 1A : ... .. . ... ... ... : ... .. . ... ... ... : ... .. . ... ... ... : B-# 01 . ... ... ... : ... .. . ... ... ... : ... .. . ... ... ... : ... .. . ... ... ...
ROW 1B : ... .. . ... ... ... : ... .. . ... ... ... : ... .. . ... ... ... : C-# 00 6 ... ... ... : ... .. . ... ... ... : ... .. . ... ... ... : ... .. . ... ... ...
ROW 1C : ... .. . ... ... ... : F#3 02 . ... ... ... : ... .. . ... ... ... : D-# 00 5 ... ... ... : ... .. . ... ... ... : ... .. . ... ... ... : ... .. . ... ... ...
ROW 1D : ... .. . ... ... ... : ... .. . ... ... ... : ... .. . ... ... ... : C-# 00 4 ... ... ... : ... .. . ... ... ... : ... .. . ... ... ... : ... .. . ... ... ...
ROW 1E : ... .. . ... ... ... : A-3 02 . ... ... ... : ... .. . ... ... ... : E-# 00 5 ... ... ... : ... .. . ... ... ... : ... .. . ... ... ... : ... .. . ... ... ...
ROW 1F : ... .. . ... ... ... : ... .. . ... ... ... : ... .. . ... ... ... : B-# 01 . ... ... ... : ... .. . ... ... ... : ... .. . ... ... ... : ... .. . ... ... ...
ROW 20 : ... .. . ... ... ... : ... .. . ... ... ... : ... .. . ... ... ... : C-# 00 4 ... ... ... : ... .. . ... ... ... : ... .. . ... ... ... : ... .. . ... ... ...
ROW 21 : ... .. . ... ... ... : D#4 02 . ... ... ... : ... .. . ... ... ... : D-# 00 3 ... ... ... : ... .. . ... ... ... : ... .. . ... ... ... : ... .. . ... ... ...
ROW 22 : ... .. . ... ... ... : ... .. . ... ... ... : ... .. . ... ... ... : C-# 00 . ... ... ... : ... .. . ... ... ... : ... .. . ... ... ... : ... .. . ... ... ...
ROW 23 : F-2 02 B ... ... ... : E-2 02 9 ... ... ... : E-2 00 . P80 ... ... : E-# 00 7 ... ... ... : ... .. . ... ... ... : ... .. . ... ... ... : ... .. . ... ... ...
ROW 24 : ... .. A ... ... ... : ... .. . ... ... ... : ... .. . ... ... ... : B-# 01 . ... ... ... : ... .. . ... ... ... : ... .. . ... ... ... : ... .. . ... ... ...
ROW 25 : F#1 02 . ... ... ... : F-1 02 8 ... ... ... : ... .. . ... ... ... : C-# 00 6 ... ... ... : ... .. . ... ... ... : ... .. . ... ... ... : ... .. . ... ... ...
ROW 26 : F-1 02 9 ... ... ... : E-1 02 . ... ... ... : ... .. . ... ... ... : D-# 00 5 ... ... ... : ... .. . ... ... ... : ... .. . ... ... ... : ... .. . ... ... ...
ROW 27 : ... .. . ... ... ... : ... .. . ... ... ... : ... .. . ... ... ... : C-# 00 4 ... ... ... : ... .. . ... ... ... : ... .. . ... ... ... : ... .. . ... ... ...
ROW 28 : ... .. . ... ... ... : ... .. 7 ... ... ... : ... .. . ... ... ... : D-# 00 . ... ... ... : ... .. . ... ... ... : ... .. . ... ... ... : ... .. . ... ... ...
ROW 29 : ... .. . ... ... ... : ... .. 8 ... ... ... : --- .. . ... ... ... : E-# 00 5 ... ... ... : ... .. . ... ... ... : ... .. . ... ... ... : ... .. . ... ... ...
ROW 2A : ... .. 8 ... ... ... : ... .. 7 ... ... ... : ... .. . ... ... ... : B-# 01 . ... ... ... : ... .. . ... ... ... : ... .. . ... ... ... : ... .. . ... ... ...
ROW 2B : ... .. 7 ... ... ... : ... .. . ... ... ... : ... .. . ... ... ... : C-# 00 4 ... ... ... : ... .. . ... ... ... : ... .. . ... ... ... : ... .. . ... ... ...
ROW 2C : ... .. 6 ... ... ... : ... .. 6 ... ... ... : ... .. . ... ... ... : D-# 00 3 ... ... ... : ... .. . ... ... ... : ... .. . ... ... ... : ... .. . ... ... ...
ROW 2D : ... .. 5 ... ... ... : ... .. 5 ... ... ... : ... .. . ... ... ... : C-# 00 . ... ... ... : ... .. . ... ... ... : ... .. . ... ... ... : ... .. . ... ... ...
ROW 2E : F-2 02 9 ... ... ... : E-2 02 7 ... ... ... : E-4 00 . ... ... ... : D-# 00 6 ... ... ... : ... .. . ... ... ... : ... .. . ... ... ... : ... .. . ... ... ...
ROW 2F : ... .. 8 ... ... ... : ... .. . ... ... ... : A#3 00 . P87 ... ... : 3-# 01 9 ... ... ... : ... .. . ... ... ... : ... .. . ... ... ... : ... .. . ... ... ...
ROW 30 : F#1 02 9 ... ... ... : F-1 02 . ... ... ... : E-2 00 . P80 ... ... : 2-# 01 7 ... ... ... : ... .. . ... ... ... : ... .. . ... ... ... : ... .. . ... ... ...
ROW 31 : F-1 02 8 ... ... ... : E-1 02 . ... ... ... : ... .. . ... ... ... : 2-# 00 6 ... ... ... : ... .. . ... ... ... : ... .. . ... ... ... : ... .. . ... ... ...
ROW 32 : ... .. . ... ... ... : ... .. . ... ... ... : ... .. . ... ... ... : 1-# 00 . ... ... ... : ... .. . ... ... ... : ... .. . ... ... ... : ... .. . ... ... ...
ROW 33 : ... .. 9 ... ... ... : ... .. . ... ... ... : ... .. . ... ... ... : E-# 00 2 ... ... ... : ... .. . ... ... ... : ... .. . ... ... ... : ... .. . ... ... ...
ROW 34 : ... .. . ... ... ... : ... .. 8 ... ... ... : ... .. . ... ... ... : B-# 01 . ... ... ... : ... .. . ... ... ... : ... .. . ... ... ... : ... .. . ... ... ...
ROW 35 : ... .. 8 ... ... ... : ... .. 7 ... ... ... : ... .. . ... ... ... : C-# 00 . ... ... ... : ... .. . ... ... ... : ... .. . ... ... ... : ... .. . ... ... ...
ROW 36 : ... .. 9 ... ... ... : ... .. 8 ... ... ... : ... .. . ... ... ... : D-# 00 . ... ... ... : ... .. . ... ... ... : ... .. . ... ... ... : ... .. . ... ... ...
ROW 37 : ... .. 8 ... ... ... : ... .. 7 ... ... ... : ... .. . ... ... ... : C-# 00 1 ... ... ... : ... .. . ... ... ... : ... .. . ... ... ... : ... .. . ... ... ...
ROW 38 : ... .. 7 ... ... ... : ... .. 6 ... ... ... : C-4 00 . P7F ... ... : A-# 00 A ... ... ... : ... .. . ... ... ... : ... .. . ... ... ... : ... .. . ... ... ...
ROW 39 : ... .. 6 ... ... ... : ... .. 5 ... ... ... : ... .. . ... ... ... : 5-# 01 9 ... ... ... : ... .. . ... ... ... : ... .. . ... ... ... : ... .. . ... ... ...
ROW 3A : ... .. 7 ... ... ... : ... .. 6 ... ... ... : A#2 00 . P88 ... ... : 6-# 01 8 ... ... ... : ... .. . ... ... ... : ... .. . ... ... ... : ... .. . ... ... ...
ROW 3B : ... .. . ... ... ... : ... .. . ... ... ... : E-2 00 . P80 ... ... : 7-# 01 7 ... ... ... : ... .. . ... ... ... : ... .. . ... ... ... : ... .. . ... ... ...
ROW 3C : ... .. 8 ... ... ... : ... .. 7 ... ... ... : ... .. . ... ... ... : 8-# 01 . ... ... ... : ... .. . ... ... ... : ... .. . ... ... ... : ... .. . ... ... ...
ROW 3D : ... .. 7 ... ... ... : ... .. . ... ... ... : ... .. . ... ... ... : 9-# 00 . ... ... ... : ... .. . ... ... ... : ... .. . ... ... ... : ... .. . ... ... ...
ROW 3E : ... .. 8 ... ... ... : ... .. . ... ... ... : ... .. . ... ... ... : 9-# 01 . ... ... ... : ... .. . ... ... ... : ... .. . ... ... ... : ... .. . ... ... ...
ROW 3F : ... .. 7 ... ... ... : ... .. . ... ... ... : ... .. . ... ... ... : 9-# 00 6 ... ... ... : ... .. . ... ... ... : ... .. . ... ... ... : ... .. . ... ... ...
ROW 40 : ... .. 9 ... ... ... : ... .. 8 ... ... ... : --- .. . ... ... ... : 9-# 01 . ... ... ... : ... .. . ... ... ... : ... .. . ... ... ... : ... .. . ... ... ...
ROW 41 : ... .. 8 ... ... ... : ... .. 7 ... ... ... : ... .. . ... ... ... : 9-# 00 . ... ... ... : ... .. . ... ... ... : ... .. . ... ... ... : ... .. . ... ... ...
ROW 42 : ... .. 9 ... ... ... : ... .. 8 ... ... ... : ... .. . ... ... ... : ... .. . ... ... ... : ... .. . ... ... ... : ... .. . ... ... ... : ... .. . ... ... ...
ROW 43 : ... .. 6 ... ... ... : ... .. 6 ... ... ... : ... .. . ... ... ... : E-# 00 7 ... ... ... : ... .. . ... ... ... : ... .. . ... ... ... : ... .. . ... ... ...
ROW 44 : ... .. 7 ... ... ... : ... .. . ... ... ... : ... .. . ... ... ... : B-# 01 . ... ... ... : ... .. . ... ... ... : ... .. . ... ... ... : ... .. . ... ... ...
ROW 45 : ... .. 8 ... ... ... : ... .. 7 ... ... ... : ... .. . ... ... ... : C-# 00 6 ... ... ... : ... .. . ... ... ... : ... .. . ... ... ... : ... .. . ... ... ...
ROW 46 : ... .. . ... ... ... : ... .. . ... ... ... : ... .. . ... ... ... : D-# 00 5 ... ... ... : ... .. . ... ... ... : ... .. . ... ... ... : ... .. . ... ... ...
ROW 47 : ... .. . ... ... ... : ... .. . ... ... ... : ... .. . ... ... ... : C-# 00 4 ... ... ... : ... .. . ... ... ... : ... .. . ... ... ... : ... .. . ... ... ...
ROW 48 : ... .. 7 ... ... ... : ... .. . ... ... ... : ... .. . ... ... ... : E-# 00 5 ... ... ... : ... .. . ... ... ... : ... .. . ... ... ... : ... .. . ... ... ...
ROW 49 : ... .. 6 ... ... ... : ... .. 6 ... ... ... : ... .. . ... ... ... : B-# 01 . ... ... ... : ... .. . ... ... ... : ... .. . ... ... ... : ... .. . ... ... ...
ROW 4A : ... .. 5 ... ... ... : ... .. 5 ... ... ... : ... .. . ... ... ... : C-# 00 4 ... ... ... : ... .. . ... ... ... : ... .. . ... ... ... : ... .. . ... ... ...
ROW 4B : ... .. 4 ... ... ... : ... .. 4 ... ... ... : ... .. . ... ... ... : D-# 00 3 ... ... ... : ... .. . ... ... ... : ... .. . ... ... ... : ... .. . ... ... ...
ROW 4C : ... .. 3 ... ... ... : ... .. 3 ... ... ... : ... .. . ... ... ... : C-# 00 . ... ... ... : ... .. . ... ... ... : ... .. . ... ... ... : ... .. . ... ... ...
ROW 4D : D-3 02 7 P85 ... ... : D#3 02 7 ... ... ... : E-4 00 . ... ... ... : D-# 00 6 ... ... ... : ... .. . ... ... ... : ... .. . ... ... ... : ... .. . ... ... ...
ROW 4E : ... .. . ... ... ... : ... .. . ... ... ... : A#3 00 . P87 ... ... : 3-# 01 9 ... ... ... : ... .. . ... ... ... : ... .. . ... ... ... : ... .. . ... ... ...
ROW 4F : E-2 02 . P70 ... ... : E-2 02 . ... ... ... : D#3 00 . P80 ... ... : 2-# 01 7 ... ... ... : ... .. . ... ... ... : ... .. . ... ... ... : ... .. . ... ... ...
ROW 50 : D#2 02 . ... ... ... : D#2 02 . ... ... ... : ... .. . ... ... ... : 2-# 00 6 ... ... ... : ... .. . ... ... ... : ... .. . ... ... ... : ... .. . ... ... ...
ROW 51 : ... .. . ... ... ... : ... .. . ... ... ... : ... .. . ... ... ... : 1-# 00 . ... ... ... : ... .. . ... ... ... : ... .. . ... ... ... : ... .. . ... ... ...
ROW 52 : ... .. . ... ... ... : ... .. . ... ... ... : --- .. . ... ... ... : ... .. 5 ... ... ... : ... .. . ... ... ... : ... .. . ... ... ... : ... .. . ... ... ...
ROW 53 : ... .. 8 ... ... ... : ... .. 8 ... ... ... : ... .. . ... ... ... : ... .. 4 ... ... ... : ... .. . ... ... ... : ... .. . ... ... ... : ... .. . ... ... ...
ROW 54 : ... .. 7 ... ... ... : ... .. 7 ... ... ... : ... .. . ... ... ... : ... .. . ... ... ... : ... .. . ... ... ... : ... .. . ... ... ... : ... .. . ... ... ...
ROW 55 : ... .. . ... ... ... : ... .. . ... ... ... : ... .. . ... ... ... : ... .. 3 ... ... ... : ... .. . ... ... ... : ... .. . ... ... ... : ... .. . ... ... ...
ROW 56 : ... .. 6 ... ... ... : ... .. 6 ... ... ... : ... .. . ... ... ... : ... .. . ... ... ... : ... .. . ... ... ... : ... .. . ... ... ... : ... .. . ... ... ...
ROW 57 : E-2 02 B P80 ... ... : ... .. 9 ... ... ... : D#2 00 . ... ... ... : E-# 00 7 ... ... ... : ... .. . ... ... ... : ... .. . ... ... ... : ... .. . ... ... ...
ROW 58 : ... .. A ... ... ... : ... .. . ... ... ... : ... .. . ... ... ... : B-# 01 . ... ... ... : ... .. . ... ... ... : ... .. . ... ... ... : ... .. . ... ... ...
ROW 59 : F-1 02 . ... ... ... : E-1 02 8 ... ... ... : ... .. . ... ... ... : C-# 00 6 ... ... ... : ... .. . ... ... ... : ... .. . ... ... ... : ... .. . ... ... ...
ROW 5A : E-1 02 9 ... ... ... : D#1 02 . ... ... ... : ... .. . ... ... ... : D-# 00 5 ... ... ... : ... .. . ... ... ... : ... .. . ... ... ... : ... .. . ... ... ...
ROW 5B : ... .. . ... ... ... : ... .. . ... ... ... : ... .. . ... ... ... : C-# 00 4 ... ... ... : ... .. . ... ... ... : ... .. . ... ... ... : ... .. . ... ... ...
ROW 5C : ... .. . ... ... ... : ... .. 7 ... ... ... : ... .. . ... ... ... : E-# 00 2 ... ... ... : ... .. . ... ... ... : ... .. . ... ... ... : ... .. . ... ... ...
ROW 5D : ... .. . ... ... ... : ... .. 8 ... ... ... : ... .. . ... ... ... : B-# 01 . ... ... ... : ... .. . ... ... ... : ... .. . ... ... ... : ... .. . ... ... ...
ROW 5E : ... .. 8 ... ... ... : ... .. 7 ... ... ... : ... .. . ... ... ... : C-# 00 . ... ... ... : ... .. . ... ... ... : ... .. . ... ... ... : ... .. . ... ... ...
ROW 5F : ... .. 9 ... ... ... : ... .. 8 ... ... ... : ... .. . ... ... ... : D-# 00 . ... ... ... : ... .. . ... ... ... : ... .. . ... ... ... : ... .. . ... ... ...
ROW 60 : ... .. 8 ... ... ... : ... .. 7 ... ... ... : ... .. . ... ... ... : C-# 00 1 ... ... ... : ... .. . ... ... ... : ... .. . ... ... ... : ... .. . ... ... ...
ROW 61 : ... .. 9 ... ... ... : ... .. 8 ... ... ... : ... .. . ... ... ... : D-# 00 . ... ... ... : ... .. . ... ... ... : ... .. . ... ... ... : ... .. . ... ... ...
ROW 62 : ... .. 6 ... ... ... : ... .. 5 ... ... ... : C-4 00 . P7F ... ... : A-# 00 A ... ... ... : ... .. . ... ... ... : ... .. . ... ... ... : ... .. . ... ... ...
ROW 63 : ... .. 7 ... ... ... : ... .. 6 ... ... ... : ... .. . ... ... ... : 5-# 01 9 ... ... ... : ... .. . ... ... ... : ... .. . ... ... ... : ... .. . ... ... ...
ROW 64 : ... .. . ... ... ... : ... .. . ... ... ... : D#2 00 . P80 ... ... : 6-# 01 8 ... ... ... : ... .. . ... ... ... : ... .. . ... ... ... : ... .. . ... ... ...
ROW 65 : ... .. 8 ... ... ... : ... .. 7 ... ... ... : ... .. . ... ... ... : 7-# 01 7 ... ... ... : ... .. . ... ... ... : ... .. . ... ... ... : ... .. . ... ... ...
ROW 66 : ... .. 7 ... ... ... : ... .. 6 ... ... ... : ... .. . ... ... ... : 8-# 01 . ... ... ... : ... .. . ... ... ... : ... .. . ... ... ... : ... .. . ... ... ...
ROW 67 : ... .. 8 ... ... ... : ... .. 7 ... ... ... : --- .. . ... ... ... : 9-# 00 . ... ... ... : ... .. . ... ... ... : ... .. . ... ... ... : ... .. . ... ... ...
ROW 68 : ... .. 7 ... ... ... : ... .. . ... ... ... : ... .. . ... ... ... : 9-# 01 . ... ... ... : ... .. . ... ... ... : ... .. . ... ... ... : ... .. . ... ... ...
ROW 69 : ... .. . ... ... ... : ... .. . ... ... ... : ... .. . ... ... ... : 9-# 00 6 ... ... ... : ... .. . ... ... ... : ... .. . ... ... ... : ... .. . ... ... ...
ROW 6A : ... .. 6 ... ... ... : ... .. 6 ... ... ... : ... .. . ... ... ... : 9-# 01 . ... ... ... : ... .. . ... ... ... : ... .. . ... ... ... : ... .. . ... ... ...
ROW 6B : ... .. 5 ... ... ... : ... .. 5 ... ... ... : ... .. . ... ... ... : 9-# 00 . ... ... ... : ... .. . ... ... ... : ... .. . ... ... ... : ... .. . ... ... ...
ROW 6C : E-2 02 B ... ... ... : D#2 02 9 ... ... ... : D#2 00 . ... ... ... : E-# 00 7 ... ... ... : ... .. . ... ... ... : ... .. . ... ... ... : ... .. . ... ... ...
ROW 6D : ... .. A ... ... ... : ... .. . ... ... ... : ... .. . ... ... ... : B-# 01 . ... ... ... : ... .. . ... ... ... : ... .. . ... ... ... : ... .. . ... ... ...
ROW 6E : F-1 02 . ... ... ... : E-1 02 8 ... ... ... : ... .. . ... ... ... : C-# 00 6 ... ... ... : ... .. . ... ... ... : ... .. . ... ... ... : ... .. . ... ... ...
ROW 6F : E-1 02 9 ... ... ... : D#1 02 . ... ... ... : ... .. . ... ... ... : D-# 00 5 ... ... ... : ... .. . ... ... ... : ... .. . ... ... ... : ... .. . ... ... ...
ROW 70 : ... .. . ... ... ... : ... .. . ... ... ... : ... .. . ... ... ... : C-# 00 4 ... ... ... : ... .. . ... ... ... : ... .. . ... ... ... : ... .. . ... ... ...
ROW 71 : ... .. . ... ... ... : ... .. 7 ... ... ... : ... .. . ... ... ... : E-# 00 5 ... ... ... : ... .. . ... ... ... : ... .. . ... ... ... : ... .. . ... ... ...
ROW 72 : ... .. . ... ... ... : ... .. 8 ... ... ... : ... .. . ... ... ... : B-# 01 . ... ... ... : ... .. . ... ... ... : ... .. . ... ... ... : ... .. . ... ... ...
ROW 73 : ... .. 8 ... ... ... : ... .. 7 ... ... ... : ... .. . ... ... ... : C-# 00 4 ... ... ... : ... .. . ... ... ... : ... .. . ... ... ... : ... .. . ... ... ...
ROW 74 : ... .. 9 ... ... ... : ... .. 8 ... ... ... : ... .. . ... ... ... : D-# 00 3 ... ... ... : ... .. . ... ... ... : ... .. . ... ... ... : ... .. . ... ... ...
ROW 75 : ... .. 8 ... ... ... : ... .. 7 ... ... ... : ... .. . ... ... ... : C-# 00 . ... ... ... : ... .. . ... ... ... : ... .. . ... ... ... : ... .. . ... ... ...
ROW 76 : ... .. 9 ... ... ... : ... .. 8 ... ... ... : ... .. . ... ... ... : E-# 00 7 ... ... ... : ... .. . ... ... ... : ... .. . ... ... ... : ... .. . ... ... ...
ROW 77 : ... .. 8 ... ... ... : ... .. 7 ... ... ... : ... .. . ... ... ... : B-# 01 . ... ... ... : ... .. . ... ... ... : ... .. . ... ... ... : ... .. . ... ... ...
ROW 78 : ... .. 9 ... ... ... : ... .. 8 ... ... ... : ... .. . ... ... ... : C-# 00 6 ... ... ... : ... .. . ... ... ... : ... .. . ... ... ... : ... .. . ... ... ...
ROW 79 : ... .. 8 ... ... ... : ... .. 7 ... ... ... : ... .. . ... ... ... : D-# 00 5 ... ... ... : ... .. . ... ... ... : ... .. . ... ... ... : ... .. . ... ... ...
ROW 7A : ... .. 9 ... ... ... : ... .. 8 ... ... ... : ... .. . ... ... ... : C-# 00 4 ... ... ... : ... .. . ... ... ... : ... .. . ... ... ... : ... .. . ... ... ...
ROW 7B : ... .. 8 ... ... ... : ... .. 7 ... ... ... : --- .. . ... ... ... : E-# 00 5 ... ... ... : ... .. . ... ... ... : ... .. . ... ... ... : ... .. . ... ... ...
ROW 7C : ... .. 9 ... ... ... : ... .. 8 ... ... ... : ... .. . ... ... ... : B-# 01 . ... ... ... : ... .. . ... ... ... : ... .. . ... ... ... : ... .. . ... ... ...
ROW 7D : ... .. 8 ... ... ... : ... .. 7 ... ... ... : ... .. . ... ... ... : C-# 00 4 ... ... ... : ... .. . ... ... ... : ... .. . ... ... ... : ... .. . ... ... ...
ROW 7E : ... .. 7 ... ... ... : ... .. . ... ... ... : ... .. . ... ... ... : D-# 00 3 ... ... ... : ... .. . ... ... ... : ... .. . ... ... ... : ... .. . ... ... ...
ROW 7F : ... .. 6 ... ... ... : ... .. 6 ... ... ... : ... .. . ... ... ... : C-# 00 . ... ... ... : ... .. . ... ... ... : ... .. . ... ... ... : ... .. . ... ... ...
ROW 80 : ... .. 5 ... ... ... : ... .. 5 ... ... ... : ... .. . ... ... ... : D-# 00 . ... ... ... : ... .. . ... ... ... : ... .. . ... ... ... : ... .. . ... ... ...
ROW 81 : E-2 02 9 ... ... ... : D#2 02 7 ... ... ... : E-4 00 . ... ... ... : ... .. 6 ... ... ... : ... .. . ... ... ... : ... .. . ... ... ... : ... .. . ... ... ...
ROW 82 : ... .. 8 ... ... ... : ... .. . ... ... ... : A#3 00 . P87 ... ... : 3-# 01 9 ... ... ... : ... .. . ... ... ... : ... .. . ... ... ... : ... .. . ... ... ...
ROW 83 : F-1 02 9 ... ... ... : E-1 02 . ... ... ... : D#2 00 . P80 ... ... : 2-# 01 7 ... ... ... : ... .. . ... ... ... : ... .. . ... ... ... : ... .. . ... ... ...
ROW 84 : E-1 02 8 ... ... ... : D#1 02 . ... ... ... : ... .. . ... ... ... : 2-# 00 6 ... ... ... : ... .. . ... ... ... : ... .. . ... ... ... : ... .. . ... ... ...
ROW 85 : ... .. . ... ... ... : ... .. . ... ... ... : ... .. . ... ... ... : 1-# 00 . ... ... ... : ... .. . ... ... ... : ... .. . ... ... ... : ... .. . ... ... ...
ROW 86 : ... .. 7 ... ... ... : ... .. . ... ... ... : --- .. . ... ... ... : E-# 00 2 ... ... ... : ... .. . ... ... ... : ... .. . ... ... ... : ... .. . ... ... ...
ROW 87 : ... .. 6 ... ... ... : ... .. 6 ... ... ... : ... .. . ... ... ... : B-# 01 . ... ... ... : ... .. . ... ... ... : ... .. . ... ... ... : ... .. . ... ... ...
ROW 88 : ... .. 5 ... ... ... : ... .. 5 ... ... ... : ... .. . ... ... ... : C-# 00 . ... ... ... : ... .. . ... ... ... : ... .. . ... ... ... : ... .. . ... ... ...
ROW 89 : ... .. 4 ... ... ... : ... .. 4 ... ... ... : ... .. . ... ... ... : D-# 00 . ... ... ... : ... .. . ... ... ... : ... .. . ... ... ... : ... .. . ... ... ...
ROW 8A : ... .. 3 ... ... ... : ... .. 3 ... ... ... : ... .. . ... ... ... : C-# 00 1 ... ... ... : ... .. . ... ... ... : ... .. . ... ... ... : ... .. . ... ... ...
ROW 8B : E-2 02 8 ... ... ... : D#2 02 7 ... ... ... : C-4 00 . P7F ... ... : A-# 00 A ... ... ... : ... .. . ... ... ... : ... .. . ... ... ... : ... .. . ... ... ...
ROW 8C : ... .. 7 ... ... ... : ... .. . ... ... ... : ... .. . ... ... ... : 5-# 01 9 ... ... ... : ... .. . ... ... ... : ... .. . ... ... ... : ... .. . ... ... ...
ROW 8D : F-1 02 . ... ... ... : E-1 02 6 ... ... ... : A#2 00 . P88 ... ... : 6-# 01 8 ... ... ... : ... .. . ... ... ... : ... .. . ... ... ... : ... .. . ... ... ...
ROW 8E : E-1 02 8 ... ... ... : D#1 02 7 ... ... ... : D#2 00 . P80 ... ... : 7-# 01 7 ... ... ... : ... .. . ... ... ... : ... .. . ... ... ... : ... .. . ... ... ...
ROW 8F : ... .. . ... ... ... : ... .. . ... ... ... : ... .. . ... ... ... : 8-# 01 . ... ... ... : ... .. . ... ... ... : ... .. . ... ... ... : ... .. . ... ... ...
ROW 90 : ... .. . ... ... ... : ... .. . ... ... ... : --- .. . ... ... ... : 9-# 00 . ... ... ... : ... .. . ... ... ... : ... .. . ... ... ... : ... .. . ... ... ...
ROW 91 : ... .. . ... ... ... : ... .. . ... ... ... : ... .. . ... ... ... : 9-# 01 . ... ... ... : ... .. . ... ... ... : ... .. . ... ... ... : ... .. . ... ... ...
ROW 92 : ... .. 7 ... ... ... : ... .. . ... ... ... : ... .. . ... ... ... : 9-# 00 6 ... ... ... : ... .. . ... ... ... : ... .. . ... ... ... : ... .. . ... ... ...
ROW 93 : ... .. . ... ... ... : ... .. . ... ... ... : ... .. . ... ... ... : 9-# 01 . ... ... ... : ... .. . ... ... ... : ... .. . ... ... ... : ... .. . ... ... ...
ROW 94 : ... .. 6 ... ... ... : ... .. 6 ... ... ... : ... .. . ... ... ... : 9-# 00 . ... ... ... : ... .. . ... ... ... : ... .. . ... ... ... : ... .. . ... ... ...
ROW 95 : D-2 02 B P72 ... ... : C#2 02 9 ... ... ... : C#2 00 . ... ... ... : E-# 00 7 ... ... ... : ... .. . ... ... ... : ... .. . ... ... ... : ... .. . ... ... ...
ROW 96 : ... .. A ... ... ... : ... .. . ... ... ... : ... .. . ... ... ... : B-# 01 . ... ... ... : ... .. . ... ... ... : ... .. . ... ... ... : ... .. . ... ... ...
ROW 97 : D#1 02 . ... ... ... : D-1 02 8 ... ... ... : ... .. . ... ... ... : C-# 00 6 ... ... ... : ... .. . ... ... ... : ... .. . ... ... ... : ... .. . ... ... ...
ROW 98 : D-1 02 9 ... ... ... : C#1 02 . ... ... ... : --- .. . ... ... ... : D-# 00 5 ... ... ... : ... .. . ... ... ... : ... .. . ... ... ... : ... .. . ... ... ...
ROW 99 : ... .. . ... ... ... : ... .. . ... ... ... : ... .. . ... ... ... : C-# 00 4 ... ... ... : ... .. . ... ... ... : ... .. . ... ... ... : ... .. . ... ... ...
ROW 9A : ... .. . ... ... ... : ... .. 7 ... ... ... : ... .. . ... ... ... : D-# 00 . ... ... ... : ... .. . ... ... ... : ... .. . ... ... ... : ... .. . ... ... ...
ROW 9B : ... .. . ... ... ... : ... .. 8 ... ... ... : ... .. . ... ... ... : E-# 00 5 ... ... ... : ... .. . ... ... ... : ... .. . ... ... ... : ... .. . ... ... ...
ROW 9C : ... .. 8 ... ... ... : ... .. 7 ... ... ... : ... .. . ... ... ... : B-# 01 . ... ... ... : ... .. . ... ... ... : ... .. . ... ... ... : ... .. . ... ... ...
ROW 9D : ... .. 7 ... ... ... : ... .. . ... ... ... : ... .. . ... ... ... : 8-# 00 4 ... ... ... : ... .. . ... ... ... : ... .. . ... ... ... : ... .. . ... ... ...
ROW 9E : ... .. 6 ... ... ... : ... .. 6 ... ... ... : ... .. . ... ... ... : ... .. 5 ... ... ... : ... .. . ... ... ... : ... .. . ... ... ... : ... .. . ... ... ...
ROW 9F : ... .. 5 ... ... ... : ... .. 5 ... ... ... : ... .. . ... ... ... : 8-# 01 6 ... ... ... : ... .. . ... ... ... : ... .. . ... ... ... : ... .. . ... ... ...
ROW A0 : E-2 02 8 P80 ... ... : D#2 02 7 ... ... ... : E-4 00 . ... ... ... : B-# 00 C ... ... ... : ... .. . ... ... ... : ... .. . ... ... ... : ... .. . ... ... ...
ROW A1 : ... .. 7 ... ... ... : ... .. . ... ... ... : A#3 00 . P87 ... ... : C-# 00 . ... ... ... : ... .. . ... ... ... : ... .. . ... ... ... : ... .. . ... ... ...
ROW A2 : F-1 02 . ... ... ... : E-1 02 6 ... ... ... : F#3 00 . P86 ... ... : B-# 01 B ... ... ... : ... .. . ... ... ... : ... .. . ... ... ... : ... .. . ... ... ...
ROW A3 : E-1 02 . ... ... ... : D#1 02 . ... ... ... : D#3 00 . P81 ... ... : B-# 00 A ... ... ... : ... .. . ... ... ... : ... .. . ... ... ... : ... .. . ... ... ...
ROW A4 : ... .. . ... ... ... : ... .. . ... ... ... : C-3 00 . P86 ... ... : ... .. . ... ... ... : ... .. . ... ... ... : ... .. . ... ... ... : ... .. . ... ... ...
ROW A5 : ... .. 8 ... ... ... : ... .. . ... ... ... : D#2 00 . P80 ... ... : ... .. . ... ... ... : ... .. . ... ... ... : ... .. . ... ... ... : ... .. . ... ... ...
ROW A6 : ... .. . ... ... ... : ... .. 7 ... ... ... : ... .. . ... ... ... : B-# 01 9 ... ... ... : ... .. . ... ... ... : ... .. . ... ... ... : ... .. . ... ... ...
ROW A7 : ... .. 7 ... ... ... : ... .. 6 ... ... ... : ... .. . ... ... ... : B-# 00 . ... ... ... : ... .. . ... ... ... : ... .. . ... ... ... : ... .. . ... ... ...
ROW A8 : ... .. 8 ... ... ... : ... .. 7 ... ... ... : ... .. . ... ... ... : ... .. . ... ... ... : ... .. . ... ... ... : ... .. . ... ... ... : ... .. . ... ... ...
ROW A9 : ... .. 7 ... ... ... : ... .. 6 ... ... ... : ... .. . ... ... ... : B-# 01 8 ... ... ... : ... .. . ... ... ... : ... .. . ... ... ... : ... .. . ... ... ...
ROW AA : ... .. . ... ... ... : ... .. 7 ... ... ... : --- .. . ... ... ... : B-# 00 . ... ... ... : ... .. . ... ... ... : ... .. . ... ... ... : ... .. . ... ... ...
ROW AB : ... .. 6 ... ... ... : ... .. 6 ... ... ... : ... .. . ... ... ... : ... .. . ... ... ... : ... .. . ... ... ... : ... .. . ... ... ... : ... .. . ... ... ...
ROW AC : ... .. 5 ... ... ... : ... .. 5 ... ... ... : ... .. . ... ... ... : ... .. 7 ... ... ... : ... .. . ... ... ... : ... .. . ... ... ... : ... .. . ... ... ...
ROW AD : ... .. 4 ... ... ... : ... .. 4 ... ... ... : ... .. . ... ... ... : B-# 01 . ... ... ... : ... .. . ... ... ... : ... .. . ... ... ... : ... .. . ... ... ...
ROW AE : ... .. 3 ... ... ... : ... .. 3 ... ... ... : ... .. . ... ... ... : A-# 00 . ... ... ... : ... .. . ... ... ... : ... .. . ... ... ... : ... .. . ... ... ...
ROW AF : ... .. 2 ... ... ... : ... .. 2 ... ... ... : ... .. . ... ... ... : ... .. . ... ... ... : ... .. . ... ... ... : ... .. . ... ... ... : ... .. . ... ... ...
ROW B0 : ... .. 1 ... ... ... : ... .. 1 ... ... ... : ... .. . ... ... ... : A-# 01 . ... ... ... : ... .. . ... ... ... : ... .. . ... ... ... : ... .. . ... ... ...
ROW B1 : --- .. . ... ... ... : --- .. . ... ... ... : ... .. . ... ... ... : A-# 00 . ... ... ... : ... .. . ... ... ... : ... .. . ... ... ... : ... .. . ... ... ...
ROW B2 : ... .. . ... ... ... : ... .. . ... ... ... : ... .. . ... ... ... : ... .. 6 ... ... ... : ... .. . ... ... ... : ... .. . ... ... ... : ... .. . ... ... ...
ROW B3 : ... .. . ... ... ... : ... .. . ... ... ... : ... .. . ... ... ... : ... .. . ... ... ... : ... .. . ... ... ... : ... .. . ... ... ... : ... .. . ... ... ...
ROW B4 : E-2 02 7 ... ... ... : D#2 02 6 ... ... ... : ... .. . ... ... ... : A-# 01 . ... ... ... : ... .. . ... ... ... : ... .. . ... ... ... : ... .. . ... ... ...
ROW B5 : ... .. . ... ... ... : ... .. . ... ... ... : ... .. . ... ... ... : A-# 00 . ... ... ... : ... .. . ... ... ... : ... .. . ... ... ... : ... .. . ... ... ...
ROW B6 : F-1 02 . ... ... ... : E-1 02 5 ... ... ... : ... .. . ... ... ... : ... .. . ... ... ... : ... .. . ... ... ... : ... .. . ... ... ... : ... .. . ... ... ...
ROW B7 : E-1 02 6 ... ... ... : D#1 02 . ... ... ... : ... .. . ... ... ... : A-# 01 . ... ... ... : ... .. . ... ... ... : ... .. . ... ... ... : ... .. . ... ... ...
ROW B8 : ... .. . ... ... ... : ... .. . ... ... ... : ... .. . ... ... ... : A-# 00 . ... ... ... : ... .. . ... ... ... : ... .. . ... ... ... : ... .. . ... ... ...
ROW B9 : ... .. . ... ... ... : ... .. . ... ... ... : ... .. . ... ... ... : ... .. . ... ... ... : ... .. . ... ... ... : ... .. . ... ... ... : ... .. . ... ... ...
ROW BA : ... .. . ... ... ... : ... .. . ... ... ... : ... .. . ... ... ... : ... .. 5 ... ... ... : ... .. . ... ... ... : ... .. . ... ... ... : ... .. . ... ... ...
ROW BB : ... .. 5 ... ... ... : ... .. . ... ... ... : ... .. . ... ... ... : A-# 01 . ... ... ... : ... .. . ... ... ... : ... .. . ... ... ... : ... .. . ... ... ...
ROW BC : ... .. 6 ... ... ... : ... .. . ... ... ... : ... .. . ... ... ... : A-# 00 . ... ... ... : ... .. . ... ... ... : ... .. . ... ... ... : ... .. . ... ... ...
ROW BD : ... .. 5 ... ... ... : ... .. . ... ... ... : ... .. . ... ... ... : ... .. . ... ... ... : ... .. . ... ... ... : ... .. . ... ... ... : ... .. . ... ... ...
ROW BE : ... .. 6 ... ... ... : ... .. . ... ... ... : ... .. . ... ... ... : 9-# 01 . ... ... ... : ... .. . ... ... ... : ... .. . ... ... ... : ... .. . ... ... ...
ROW BF : ... .. 5 ... ... ... : ... .. . ... ... ... : ... .. . ... ... ... : 9-# 00 . ... ... ... : ... .. . ... ... ... : ... .. . ... ... ... : ... .. . ... ... ...
ROW C0 : ... .. 4 ... ... ... : ... .. 4 ... ... ... : ... .. . ... ... ... : ... .. . ... ... ... : ... .. . ... ... ... : ... .. . ... ... ... : ... .. . ... ... ...
ROW C1 : ... .. 3 ... ... ... : ... .. 3 ... ... ... : ... .. . ... ... ... : ... .. . ... ... ... : ... .. . ... ... ... : ... .. . ... ... ... : ... .. . ... ... ...
ROW C2 : ... .. . ... ... ... : ... .. . ... ... ... : ... .. . ... ... ... : A-# 01 4 ... ... ... : ... .. . ... ... ... : ... .. . ... ... ... : ... .. . ... ... ...
ROW C3 : ... .. 2 ... ... ... : ... .. 2 ... ... ... : ... .. . ... ... ... : A-# 00 . ... ... ... : ... .. . ... ... ... : ... .. . ... ... ... : ... .. . ... ... ...
ROW C4 : ... .. 1 ... ... ... : ... .. 1 ... ... ... : ... .. . ... ... ... : 8-# 00 1 ... ... ... : ... .. . ... ... ... : ... .. . ... ... ... : ... .. . ... ... ...
ROW C5 : ... .. . ... ... ... : ... .. . ... ... ... : ... .. . ... ... ... : ... .. . ... ... ... : ... .. . ... ... ... : ... .. . ... ... ... : ... .. . ... ... ...
ROW C6 : --- .. . ... ... ... : --- .. . ... ... ... : ... .. . ... ... ... : ... .. . ... ... ... : ... .. . ... ... ... : ... .. . ... ... ... : ... .. . ... ... ...
ROW C7 : ... .. . ... ... ... : ... .. . ... ... ... : ... .. . ... ... ... : ... .. . ... ... ... : ... .. . ... ... ... : ... .. . ... ... ... : ... .. . ... ... ...
ROW C8 : ... .. . ... ... ... : ... .. . ... ... ... : ... .. . ... ... ... : ... .. . ... ... ... : ... .. . ... ... ... : ... .. . ... ... ... : ... .. . ... ... ...
ROW C9 : E-2 02 4 ... ... ... : D#2 02 4 ... ... ... : ... .. . ... ... ... : ... .. . ... ... ... : ... .. . ... ... ... : ... .. . ... ... ... : ... .. . ... ... ...
ROW CA : ... .. . ... ... ... : ... .. . ... ... ... : ... .. . ... ... ... : ... .. . ... ... ... : ... .. . ... ... ... : ... .. . ... ... ... : ... .. . ... ... ...
ROW CB : F-1 02 . ... ... ... : E-1 02 3 ... ... ... : ... .. . ... ... ... : ... .. . ... ... ... : ... .. . ... ... ... : ... .. . ... ... ... : ... .. . ... ... ...
ROW CC : E-1 02 . ... ... ... : D#1 02 . ... ... ... : ... .. . ... ... ... : ... .. . ... ... ... : ... .. . ... ... ... : ... .. . ... ... ... : ... .. . ... ... ...
ROW CD : ... .. . ... ... ... : ... .. . ... ... ... : ... .. . ... ... ... : ... .. . ... ... ... : ... .. . ... ... ... : ... .. . ... ... ... : ... .. . ... ... ...
ROW CE : ... .. . ... ... ... : ... .. . ... ... ... : ... .. . ... ... ... : ... .. . ... ... ... : ... .. . ... ... ... : ... .. . ... ... ... : ... .. . ... ... ...
ROW CF : ... .. . ... ... ... : ... .. . ... ... ... : ... .. . ... ... ... : ... .. . ... ... ... : ... .. . ... ... ... : ... .. . ... ... ... : ... .. . ... ... ...
ROW D0 : ... .. 3 ... ... ... : ... .. . ... ... ... : ... .. . ... ... ... : ... .. . ... ... ... : ... .. . ... ... ... : ... .. . ... ... ... : ... .. . ... ... ...
ROW D1 : ... .. 4 ... ... ... : ... .. . ... ... ... : ... .. . ... ... ... : ... .. . ... ... ... : ... .. . ... ... ... : ... .. . ... ... ... : ... .. . ... ... ...
ROW D2 : ... .. 3 ... ... ... : ... .. . ... ... ... : ... .. . ... ... ... : ... .. . ... ... ... : ... .. . ... ... ... : ... .. . ... ... ... : ... .. . ... ... ...
ROW D3 : ... .. 4 ... ... ... : ... .. . ... ... ... : ... .. . ... ... ... : ... .. . ... ... ... : ... .. . ... ... ... : ... .. . ... ... ... : ... .. . ... ... ...
ROW D4 : ... .. 3 ... ... ... : ... .. . ... ... ... : ... .. . ... ... ... : ... .. . ... ... ... : ... .. . ... ... ... : ... .. . ... ... ... : ... .. . ... ... ...
ROW D5 : ... .. 2 ... ... ... : ... .. 2 ... ... ... : ... .. . ... ... ... : ... .. . ... ... ... : ... .. . ... ... ... : ... .. . ... ... ... : ... .. . ... ... ...
ROW D6 : ... .. . ... ... ... : ... .. . ... ... ... : ... .. . ... ... ... : ... .. . ... ... ... : ... .. . ... ... ... : ... .. . ... ... ... : ... .. . ... ... ...
ROW D7 : ... .. . ... ... ... : ... .. . ... ... ... : ... .. . ... ... ... : ... .. . ... ... ... : ... .. . ... ... ... : ... .. . ... ... ... : ... .. . ... ... ...
ROW D8 : ... .. 1 ... ... ... : ... .. 1 ... ... ... : ... .. . ... ... ... : ... .. . ... ... ... : ... .. . ... ... ... : ... .. . ... ... ... : ... .. . ... ... ...
ROW D9 : ... .. . ... ... ... : ... .. . ... ... ... : ... .. . ... ... ... : ... .. . ... ... ... : ... .. . ... ... ... : ... .. . ... ... ... : ... .. . ... ... ...
ROW DA : ... .. . ... ... ... : ... .. . ... ... ... : ... .. . ... ... ... : ... .. . ... ... ... : ... .. . ... ... ... : ... .. . ... ... ... : ... .. . ... ... ...
ROW DB : --- .. . ... ... ... : --- .. . ... ... ... : ... .. . ... ... ... : ... .. . ... ... ... : ... .. . ... ... ... : ... .. . ... ... ... : ... .. . ... ... ...
ROW DC : ... .. . ... ... ... : ... .. . ... ... ... : ... .. . ... ... ... : ... .. . ... ... ... : ... .. . ... ... ... : ... .. . ... ... ... : ... .. . ... ... ...
ROW DD : ... .. . ... ... ... : ... .. . ... ... ... : ... .. . ... ... ... : ... .. . ... ... ... : ... .. . ... ... ... : ... .. . ... ... ... : ... .. . ... ... ...
ROW DE : E-2 02 2 ... ... ... : D#2 02 2 ... ... ... : ... .. . ... ... ... : ... .. . ... ... ... : ... .. . ... ... ... : ... .. . ... ... ... : ... .. . ... ... ...
ROW DF : ... .. . ... ... ... : ... .. . ... ... ... : ... .. . ... ... ... : ... .. . ... ... ... : ... .. . ... ... ... : ... .. . ... ... ... : ... .. . ... ... ...
ROW E0 : F-1 02 . ... ... ... : E-1 02 . ... ... ... : ... .. . ... ... ... : ... .. . ... ... ... : ... .. . ... ... ... : ... .. . ... ... ... : ... .. . ... ... ...
ROW E1 : E-1 02 . ... ... ... : D#1 02 . ... ... ... : ... .. . ... ... ... : ... .. . ... ... ... : ... .. . ... ... ... : ... .. . ... ... ... : ... .. . ... ... ...
ROW E2 : ... .. . ... ... ... : ... .. . ... ... ... : ... .. . ... ... ... : ... .. . ... ... ... : ... .. . ... ... ... : ... .. . ... ... ... : ... .. . ... ... ...
ROW E3 : ... .. . ... ... ... : ... .. 1 ... ... ... : ... .. . ... ... ... : ... .. . ... ... ... : ... .. . ... ... ... : ... .. . ... ... ... : ... .. . ... ... ...
ROW E4 : ... .. . ... ... ... : ... .. . ... ... ... : ... .. . ... ... ... : ... .. . ... ... ... : ... .. . ... ... ... : ... .. . ... ... ... : ... .. . ... ... ...
ROW E5 : ... .. . ... ... ... : ... .. . ... ... ... : ... .. . ... ... ... : ... .. . ... ... ... : ... .. . ... ... ... : ... .. . ... ... ... : ... .. . ... ... ...
ROW E6 : ... .. . ... ... ... : ... .. . ... ... ... : ... .. . ... ... ... : ... .. . ... ... ... : ... .. . ... ... ... : ... .. . ... ... ... : ... .. . ... ... ...
ROW E7 : ... .. . ... ... ... : ... .. . ... ... ... : ... .. . ... ... ... : ... .. . ... ... ... : ... .. . ... ... ... : ... .. . ... ... ... : ... .. . ... ... ...
ROW E8 : ... .. . ... ... ... : ... .. . ... ... ... : ... .. . ... ... ... : ... .. . ... ... ... : ... .. . ... ... ... : ... .. . ... ... ... : ... .. . ... ... ...
ROW E9 : ... .. . ... ... ... : ... .. . ... ... ... : ... .. . ... ... ... : ... .. . ... ... ... : ... .. . ... ... ... : ... .. . ... ... ... : ... .. . ... ... ...
ROW EA : ... .. . ... ... ... : ... .. . ... ... ... : ... .. . ... ... ... : ... .. . ... ... ... : ... .. . ... ... ... : ... .. . ... ... ... : ... .. . ... ... ...
ROW EB : ... .. . ... ... ... : ... .. . ... ... ... : ... .. . ... ... ... : ... .. . ... ... ... : ... .. . ... ... ... : ... .. . ... ... ... : ... .. . ... ... ...
ROW EC : ... .. . ... ... ... : ... .. . ... ... ... : ... .. . ... ... ... : ... .. . ... ... ... : ... .. . ... ... ... : ... .. . ... ... ... : ... .. . ... ... ...
ROW ED : ... .. . ... ... ... : ... .. . ... ... ... : ... .. . ... ... ... : ... .. . ... ... ... : ... .. . ... ... ... : ... .. . ... ... ... : ... .. . ... ... ...
ROW EE : ... .. . ... ... ... : ... .. . ... ... ... : ... .. . ... ... ... : ... .. . ... ... ... : ... .. . ... ... ... : ... .. . ... ... ... : ... .. . ... ... ...
ROW EF : ... .. . ... ... ... : ... .. . ... ... ... : ... .. . ... ... ... : ... .. . ... ... ... : ... .. . ... ... ... : ... .. . ... ... ... : ... .. . ... ... ...
ROW F0 : ... .. . ... ... ... : ... .. . ... ... ... : ... .. . ... ... ... : ... .. . ... ... ... : ... .. . ... ... ... : ... .. . ... ... ... : ... .. . ... ... ...
ROW F1 : ... .. . ... ... ... : ... .. . ... ... ... : ... .. . ... ... ... : ... .. . ... ... ... : ... .. . ... ... ... : ... .. . ... ... ... : ... .. . ... ... ...
ROW F2 : ... .. . ... ... ... : ... .. . ... ... ... : ... .. . ... ... ... : ... .. . ... ... ... : ... .. . ... ... ... : ... .. . ... ... ... : ... .. . ... ... ...
ROW F3 : ... .. . ... ... ... : ... .. . ... ... ... : ... .. . ... ... ... : ... .. . ... ... ... : ... .. . ... ... ... : ... .. . ... ... ... : ... .. . ... ... ...
ROW F4 : ... .. . ... ... ... : ... .. . ... ... ... : ... .. . ... ... ... : ... .. . ... ... ... : ... .. . ... ... ... : ... .. . ... ... ... : ... .. . ... ... ...
ROW F5 : ... .. . ... ... ... : ... .. . ... ... ... : ... .. . ... ... ... : ... .. . ... ... ... : ... .. . ... ... ... : ... .. . ... ... ... : ... .. . ... ... ...
ROW F6 : ... .. . ... ... ... : ... .. . ... ... ... : ... .. . ... ... ... : ... .. . ... ... ... : ... .. . ... ... ... : ... .. . ... ... ... : ... .. . ... ... ...
ROW F7 : ... .. . ... ... ... : ... .. . ... ... ... : ... .. . ... ... ... : ... .. . ... ... ... : ... .. . ... ... ... : ... .. . ... ... ... : ... .. . ... ... ...
ROW F8 : ... .. . ... ... ... : ... .. . ... ... ... : ... .. . ... ... ... : ... .. . ... ... ... : ... .. . ... ... ... : ... .. . ... ... ... : ... .. . ... ... ...
ROW F9 : ... .. . ... ... ... : ... .. . ... ... ... : ... .. . ... ... ... : ... .. . ... ... ... : ... .. . ... ... ... : ... .. . ... ... ... : ... .. . ... ... ...
ROW FA : ... .. . ... ... ... : ... .. . ... ... ... : ... .. . ... ... ... : ... .. . ... ... ... : ... .. . ... ... ... : ... .. . ... ... ... : ... .. . ... ... ...
ROW FB : ... .. . ... ... ... : ... .. . ... ... ... : ... .. . ... ... ... : ... .. . ... ... ... : ... .. . ... ... ... : ... .. . ... ... ... : ... .. . ... ... ...
ROW FC : ... .. . ... ... ... : ... .. . ... ... ... : ... .. . ... ... ... : ... .. . ... ... ... : ... .. . ... ... ... : ... .. . ... ... ... : ... .. . ... ... ...
ROW FD : ... .. . ... ... ... : ... .. . ... ... ... : ... .. . ... ... ... : ... .. . ... ... ... : ... .. . ... ... ... : ... .. . ... ... ... : ... .. . ... ... ...
ROW FE : ... .. . ... ... ... : ... .. . ... ... ... : ... .. . ... ... ... : ... .. . ... ... ... : ... .. . ... ... ... : ... .. . ... ... ... : ... .. . ... ... ...
ROW FF : ... .. . B00 ... ... : ... .. . B00 ... ... : ... .. . B00 ... ... : ... .. . B00 ... ... : ... .. . ... ... ... : ... .. . ... ... ... : ... .. . ... ... ...

# End of export
