# FamiTracker text export 0.4.2

# Song information
TITLE           ""
AUTHOR          ""
COPYRIGHT       ""

# Song comment
COMMENT         ""
# Global settings
MACHINE         0
FRAMERATE       0
EXPANSION       1
VIBRATO         1
SPLIT           32

# Macros
MACRO       4    0   -1   -1   0 : 1
MACRO       4    1   -1   -1   0 : 2
MACROVRC6       4    0   -1   -1   0 : 1
MACROVRC6       4    1   -1   -1   0 : 2
MACROVRC6       4    2   -1   -1   0 : 3
MACROVRC6       4    3   -1   -1   0 : 4
MACROVRC6       4    4   -1   -1   0 : 5
MACROVRC6       4    5   -1   -1   0 : 7

# DPCM samples
DPCMDEF   0   128 "Sample 1"
DPCM : 55 55 55 95 AA 2A 95 E0 7F FC C0 F1 03 28 FE FF FF F1 5F 3F 00 00 00 00 00 00 08 80 C0 F1 FF C7 8B 1F FF FF FF FF FF FF FF AB 6A 9B AA 92 52 25 95 24 25 92 80 4A 50 05 00 00 80 20 42 04 08 E2 FF 01 80 6D AB 6D DF BB 77 7B AB AF DD D5 7D DD BF FF EF B6 6D 6F BB 6D AF 2A 95 94 24 49 92 88 42 84 48 88 04 09 49 92 24 51 22 A5 92 22 49 AA 52 A9 AA 5A 55 AD 55 55 AD 6D B5 AD 6D B5 6D DB
DPCMDEF   1   896 "Sample 2"
DPCM : 55 55 55 55 55 55 D5 AA D5 37 02 00 F4 A3 FF FF 7F 00 2A 00 00 80 FF FF FF 7F 05 00 00 E0 FF 1F C0 FF 17 00 F0 FF C0 89 FF 00 00 E0 FF FF FF 03 00 00 00 FA FF 3F 00 EC FF 7F 00 FF 7F 00 E0 08 00 F8 F7 FF 07 0E 90 00 80 FE FF 7F 00 C0 FE 7F 7F 01 FE 2F 00 8C 00 80 FF FF 4F 00 C0 7F 00 F8 0F FC 07 F0 7F FF A6 BF 40 5B 00 C0 0A 01 FB 8B FE 04 00 FC FF 00 FC 04 FE 91 FB FF 1F E0 FF 03 00 00 60 7F 2B 48 C0 FF 02 D0 FE 1F 00 FE 09 FA A5 FF FF 21 A2 FF 01 00 04 B0 EF 17 81 1D C0 FE 0F 54 0B AA FA 3F 00 FF FE FF 00 F4 57 02 00 89 A4 3E 50 FF 0F 80 FF 0B 01 EA C4 FD 27 DA B6 FB 2F E0 85 56 02 C0 0B A8 90 BA FF 2F 80 FD 07 C0 56 D2 FE 83 FF 89 4F A5 D6 0A 24 01 FC 03 F0 02 F8 FF 6B 52 BB 09 80 BE BD 84 F6 7F DF 09 00 FB 4B 00 D0 8A 4A 55 49 FD AA FA AD 5A 05 08 7B B7 A2 52 FF FF 03 00 6D 2B 40 52 13 D1 B6 EA AB 42 ED 7F 12 92 5A 51 9F A8 4B DB B7 AF 40 4B 00 D0 2E 91 AA AA FD 1F 01 F6 BF 08 AD 64 2B 95 FA 26 B5 A5 7E A9 2A 01 10 D8 2B B1 EA BE 7D 25 49 6D 15 A9 6B 95 C8 EA DD 49 52 5B 2B 49 13 41 88 D4 F7 91 FA BE 6D 25 28 95 D4 5E 55 85 B6 BD 64 4B 52 AD 88 6A 25 08 6A FB AA 55 6F FB 91 54 09 A8 AD DA AD 24 BB 5D 05 A9 49 92 BA 92 24 59 6D 57 DB 56 D3 2E AD 2A 08 B0 7B 5B 49 DB 57 49 22 A9 92 64 2B B5 95 A4 B7 6B B5 6A 25 B5 55 22 A4 B2 ED 4A 7D 17 A9 89 D4 04 50 DB DB 15 EA B6 6A 9B D4 96 A4 5A 49 55 49 6C AF 76 95 54 55 55 02 A8 56 DB 5E 69 5F A5 52 6D 25 89 6A 5B AA 24 B5 55 DB 25 69 95 54 95 20 B5 6A DB F6 6D 92 5A 95 2A 41 EA 2B B5 52 5A AB 52 6D AB 92 50 B5 52 25 A9 ED 6B B7 91 AD 24 95 24 A5 56 6B B5 B6 25 A4 B6 55 49 A2 D5 4A 55 95 D6 6D 6D AB AA 44 29 95 54 A5 6A DF A6 4A A5 AA 92 54 55 B5 2A B5 B5 AA 54 7D AB 2A 11 D5 54 92 AA DA B6 D5 56 52 25 29 95 AA 56 A9 7B 55 55 2A DB AA AA A4 52 2A 55 55 AD AA 76 5B 49 15 52 55 A9 D4 B6 B5 D5 5A A9 54 49 B5 9A 4A 89 DA 4E 49 6B B5 AD 2A 29 A9 92 CA 6A AB B6 55 DB 54 4A 85 AA 55 AA AA 6A 55 55 95 D5 AA AA 55 09 95 AA B6 95 DA B6 B5 92 4A 49 95 A4 B6 AA 5A B5 6A 55 52 AA DA 56 92 54 B5 AA AA B5 AD 56 A9 2A 25 49 AA 5A B5 5A B5 6A AD 24 A9 AA B4 6A 55 A5 6A 55 AB 55 D5 CA AA 24 49 AA DA 54 AD 6B 55 95 AA 56 82 5A D5 56 53 D5 6A 55 A9 AA 6A 55 49 A5 4A A9 55 B5 6D 55 55 55 95 A4 92 6A AB 55 6B 55 55 55 A9 4A A5 D6 4A A5 4A 55 6D AB AA 55 55 95 92 54 B5 52 AB 6D AB 54 6A 2B 25 4A 55 AB 55 95 5A 55 5A B5 6A 55 A5 52 95 4A 55 AD B6 B5 AA 54 55 95 24 55 55 AB 6A 6B A9 52 AB AA 52 AD AA 52 A5 D4 AA D5 5A B5 AA 54 52 AA AA 52 55 B5 6D 95 AA A9 AA 4A AA 5A 55 55 55 55 A9 55 5B B5 94 2A 95 AA 54 55 AD D6 56 55 55 95 52 A9 6A AA 5A AD 5A 29 55 AB AA AA AA 2A 95 54 B5 AA 5A AB 55 AB 24 55 55 55 AA 6A D5 AA 55 55 AA AA 54 55 AB 54 AA 55 A9 AA D5 5A 55 55 A9 52 95 AA AA 55 B5 6A 55 55 4A 55 55 95 55 55 55 2B 55 55
DPCMDEF   2   448 "Sample 3"
DPCM : 55 60 6B 79 EA F8 FF 43 82 24 00 20 8E ED C7 A5 1F 10 B7 7F FF FF 4D 63 C1 15 24 41 92 28 09 4D 25 44 42 10 CA BE FB FF 7F DF F5 EE D3 31 0E FF 41 10 00 21 92 20 00 F4 38 56 5D EB F9 9D 3C BF ED E7 D7 AA 6C 59 16 A2 00 61 83 F0 72 3A 0B 81 45 41 09 DA F1 FD FF FF 5E AF C4 4B D3 C9 8A 82 24 89 28 06 02 47 55 E1 3D AE EF BC F4 52 D5 55 BD BC 7A 1E 57 51 0A 25 29 A8 A8 38 69 D3 88 AA 18 78 6C BA DE 7D ED FB 43 E7 34 4C 2C 25 AD 92 A4 51 A5 C8 62 E2 06 8D C7 F1 AD 65 37 B4 AC 5A 4D 9F 3E 6D 3C A5 B2 24 A9 A2 92 86 A9 44 45 EE 2C 5E AA 2D AE 53 9F 4A 9D 3D 4E 8D 3B 8A A9 E5 C8 B2 2C 34 52 D4 59 B1 D2 8A 55 C3 5B A9 55 8B 76 7C 79 6C 2B CE F2 64 31 8E 64 45 72 64 D1 92 E3 54 AD 5A 35 55 D7 58 1E 1D 55 4E 1D 57 56 55 CB AA AA 2A 69 A5 4A AA AA 4A 4D 6A 31 4D D3 A9 6A AD 7A 5C 65 AB AA AC CA 72 AA 4A B5 D0 8A 95 AC 54 95 6C D9 52 5B A5 AA D5 4A B5 2C 4B B6 D4 34 9D 95 56 55 55 55 55 9A 2A 15 A7 AA 52 2D 55 69 95 B6 AA 65 D5 6A AA 5A EA 58 55 69 6A A9 96 D2 34 95 53 A9 A9 2A 35 55 D3 AA 6A 55 B5 E2 AA 34 B5 9C C6 B1 95 AA A9 AA B4 52 55 8B A9 9A A6 AA 9A 5A 6A A5 56 56 65 55 55 AD B4 B2 AA 54 55 2D D5 AA AC AA 52 2B 4B 95 AA AA B2 2A AB AA 6A A5 55 D5 B4 AA AA AA A9 AA AA 52 55 59 A9 A5 AA 56 5A A5 95 55 55 55 55 55 55 55 55 55 55 55 55 55 55 55 55 55 55 53 35 55 D5 54 55 55 55 A9 A5 AA AA 6A 59 69 55 55 B5 AA AA B2 2C 2B 55 55 55
DPCMDEF   3   256 "Sample 4"
DPCM : 55 55 55 55 55 55 55 55 55 55 55 55 55 B5 82 DC 7F 00 E0 FF 03 E8 FF 03 00 F8 FF 00 F0 FF 62 0B 40 DF 8B EA 27 00 FC BF 00 14 FD FF 03 00 F6 FF 07 00 70 DF FF 02 00 F8 FF 07 00 E0 FF 0F 00 D4 FE FF 04 80 FE BF 04 00 EC FF 9F 00 80 FE FF 01 00 FF FF 03 00 A0 FF FF 00 00 FF 7F 02 00 FA FF 07 00 EC FF 0F 00 E8 FE 9F 00 80 FF 5F 01 A0 FA FE 8A 00 B4 FF 17 01 50 FF 5F 02 A0 F6 BF 02 41 ED ED 56 02 52 F7 AF 04 C8 F6 5B 49 90 D5 DB 4A 92 AA 56 AF 4A 90 ED B6 92 24 B5 5D 93 A4 AA AD 56 89 D4 B6 96 2A 55 6A AD AA 92 AA B6 96 52 A9 56 AB 4A 95 55 AB AA 94 AA 55 AB 54 AA D5 AA 52 55 55 AD 2A 55 55 AD AA 52 55 D5 AA 52 55 55 AB 4A 55 55 2B 55 55 55 55 AB 54 55 2D AB 4A 55 55 B5 2A 55 55 55 55 55 55 55 55 55 55 55 55 55 55 55 55 55 55 55 55 55 55 55 55 55 55 55 55 55 55
DPCMDEF   4  1104 "Sample 5"
DPCM : 01 D0 8F FF FF 3F C2 00 31 00 F0 F2 9F 11 F8 C3 FD F3 79 FC 97 08 11 C8 80 03 4F 48 70 18 72 BC 07 76 77 B7 DB FD F9 BF BF 25 22 44 80 01 12 49 4A 00 76 6D DB 6E BF ED 3E 77 FE 27 89 24 82 10 49 80 C8 3C 1C E0 B6 FD F8 1F 5F DB 7D FC 1F 1C 92 08 C3 10 81 31 C2 61 0C C6 2F F3 FE DC ED 7D 0C CF C3 7F 1B 0C 03 84 04 87 09 80 F9 1E 1E 3F C6 63 DF 63 FD 6D 1C E7 9C 73 0B 61 80 51 80 63 18 F8 1C C7 DC 67 CE 19 3F CF 71 7E 78 7F 01 1C 09 E3 00 8E 38 C6 81 0F 76 63 CE E7 F7 CC 31 DE 71 1E CF 8C 98 70 01 CC F0 24 C3 3C 0C E7 DC C9 77 9E 2F EB 0E 38 C7 1F 32 E1 48 CC 81 E1 C0 38 E3 74 9E 19 9E 3C 7B 8F 77 D3 9C 83 1C 63 F0 0C 07 0F 23 1F 39 C6 30 67 5C 7E 8E 73 CE 39 D9 33 C2 CC 13 79 70 F9 18 33 84 E4 C0 B1 C3 39 3F C7 1F C7 38 E2 7B F8 63 18 33 46 38 D1 1C 8E 71 0E CE 8C B3 71 9C 8F E3 CC 36 C3 3D 91 E3 79 B8 30 3C 62 1C C3 18 CE 70 C7 39 E7 F5 63 9C 63 A6 99 87 E3 C1 89 74 84 65 1E C6 60 3B 1B 3D 6E 66 3C EE 38 3A 72 3C C7 61 1C 73 3C 8E C3 4C 87 63 8C 71 86 CB 1E 76 9C 13 CF CC 79 6C 3C E6 18 63 8E 0D 53 C6 38 B0 F1 98 7B 5C 2D 71 DC F8 C0 73 CC 9C F3 86 39 32 33 38 96 53 11 C7 31 8E C6 39 E6 71 1F 3E 76 9C 9C E7 10 73 0C 8F 18 8B 8D 39 62 E3 8D 87 73 6C 0E 3F E4 72 8C 33 C7 23 BE 70 3C 33 06 3B 8E 31 C6 E3 F1 70 5C 38 13 8F 1F 3E EE E8 1C C6 1C D8 43 71 31 8F CC 24 3E E6 38 73 72 9C 33 C7 F2 8C CC C6 49 99 3B 6C 0E DB 30 1C 33 0B B7 5C 98 D9 15 E6 13 77 72 9B 63 0D F1 38 83 91 97 C3 9C 6C 85 1B 3A BC 71 87 D3 7C 86 C3 05 1F CD 8C B3 43 E7 18 0D 0F 7C F0 F1 30 CE 65 98 CB 53 47 33 3D 72 71 E3 31 8D 43 87 25 36 63 B5 9C 19 ED 0E 55 71 9C 35 CE 6C 1B CE 94 43 72 56 5C 56 35 F8 54 19 67 B8 D3 D0 39 36 56 19 8F 47 27 1B 77 3C A4 C3 91 A5 1C E6 8C 39 87 1D 57 5C D5 B4 CC 71 38 CE C6 9C 26 33 E3 46 65 1C A7 71 C6 C9 69 1C 97 56 99 8D 47 8D 55 53 9D 39 71 5C 1C 8D 16 C3 99 C5 A7 B5 91 CD 38 5C 95 33 6B C9 CC 6C 5C 4C 55 39 19 5E 86 87 97 D5 CC 34 33 2B 63 55 59 59 4D 1E 55 56 8E 59 CD 49 33 1D 55 59 19 79 2C 9D 59 B3 54 D5 62 53 55 B5 D4 D2 26 33 D6 B0 71 65 59 3C 0B 3B 4D 2D 1D 39 CE 98 19 B3 B1 95 55 CD C9 B4 29 CD 38 95 71 55 56 55 59 A5 15 97 55 55 39 4D 73 34 B5 C9 54 A5 55 CC 5A 66 55 76 A6 AC 1A 33 55 56 6C 6C 2C 67 39 55 35 56 55 73 71 1C 27 35 4D 59 5C 6A 1A 5B 96 8E 55 55 55 36 36 1D 47 C7 CC 2C 55 95 95 95 D6 4C E5 4C 4D 55 55 66 72 16 97 35 4B 55 D5 52 53 CB 1C 75 2C 55 95 95 C9 69 59 99 66 A6 D5 54 4D 2D 55 1B 53 4D 55 95 55 65 55 56 55 55 55 56 55 55 59 65 55 65 39 55 95 53 55 4D 4D 53 AB CA D4 54 99 16 9D 99 C6 65 E5 D4 CC 54 55 55 55 D5 54 4D 55 65 95 56 55 55 55 55 55 55 59 55 53 55 55 55 D5 54 55 55 55 55 55 53 4D 47 55 5A 65 59 56 95 55 55 55 55 55 35 55 55 55 55 D5 54 55 59 55 55 5A 56 56 55 55 53 55 53 55 55 55 55 55 55 E5 54 55 55 D5 54 55 55 55 55 56 59 55 55 55 55 55 55 55 35 55 D5 CC 54 55 55 55 59 55 56 55 55 55 55 55 55 55 55 55 55 55 55 55 55 53 55 55 55 55 55 55 55 55 55 55 55 56 55 56 55 55 55 D5 54 55 55 35 55 55 55 55 55 55 55 55 55 55 55 55 55 55 55 55 55 55 55 55 55 55 55 55 55 55 55 55 55 55 55 55 59 A6 65 55 55 55 55 55 55 B5 54 55 55 55 55 55 55 55 55 55 55 55 55 55 55 55 55 55 55 55 55 55 55 55 55 55 55 D5 54 55 55 59 99 96 65 65 55 55 55 55 55 55 55 4D 55 53 55 55 55 55 55 55 55 55 55 55 55 55 55 55 55 55 55 55 55 55 55 55 55 55 55 55 55 55 55 55 55 95 55 55 55 55 55 55 55 55 55 55 55 55 55 55 55 55 55 55 55 55 55 55 55 55 55
DPCMDEF   5   592 "Sample 6"
DPCM : F5 E0 C3 19 08 7E FE 07 1F 86 FF 00 80 FF FF 00 FF 03 F0 00 FF 0F 00 38 38 00 C0 C1 7F F1 1F FF 1F C6 18 F8 1F FE 0B F8 00 C6 F3 30 1E 78 90 C7 81 9F 0F F8 03 1F FF F8 83 0F 00 F8 07 F8 07 F8 07 F8 03 FF 0F F0 C1 C3 1C F8 E3 3F C0 01 F0 0F C0 7F 03 78 FC 79 18 9E F0 7F C0 3D F0 4F C0 7B C0 FF 00 0F 38 C5 61 FC 70 F8 03 1E 7C C1 9F 07 F6 0C DF 30 F0 61 7C 0C 1F 53 6A 61 1E 9E E1 0F F8 0B 07 FE 98 52 7D F8 D0 20 3E 72 15 07 DF 70 5C 07 3F A6 E3 38 35 13 0F 33 79 C4 53 3C E3 58 6C C7 28 D3 9D 1C C3 73 F8 E0 89 53 0F E5 F8 90 E6 24 57 CA 43 DB F8 0C 2D 4D F1 31 7C C6 61 0F 39 BC 61 1E C5 4D 65 75 E0 D3 54 1E 36 D5 51 4D 47 35 C7 F4 60 53 35 63 4D 66 63 D6 D4 C2 AD 1C 7C 54 27 73 F8 E0 D1 54 55 27 1D 4D 55 33 56 65 65 8E 59 D5 52 1B 4B 95 AB 54 B5 B4 51 1D 4B D6 54 56 4B 4E C3 65 33 55 D3 54 4D 55 4D 2D 35 8D B5 52 55 4D 55 55 65 4B 55 4D 4D 2B 4D 55 35 1D 55 4D 47 CD 54 D6 34 55 4B 55 D5 54 53 65 55 53 2B 53 D5 46 55 D5 D4 54 55 47 53 55 55 55 55 D5 54 55 55 55 D3 54 35 55 55 55 D5 54 D5 54 56 55 55 55 55 55 55 55 55 4D 55 55 D5 4C 35 B5 34 55 55 55 55 55 55 55 55 55 55 55 55 53 55 55 D5 54 4D 55 55 55 55 55 55 55 55 55 55 55 55 55 55 55 55 53 55 55 55 55 55 55 55 55 55 55 55 55 55 55 55 55 55 35 55 55 55 55 55 55 55 55 55 55 55 55 55 55 55 55 55 55 55 55 55 55 55 55 55 55 55 55 55 55 55 55 55 55 55 55 55 55 55 55 55 55 55 55 55 55 55 55 55 55 55 55 55 55 55 55 55 55 55 55 55 55 55 55 55 55 55 55 55 55 55 55 55 55 55 55 55 55 55 55 55 55 55 55 55 55 55 55 55 55 55 55 55 55 55 55 55 55 55 55 55 55 55 55 55 55 55 55 55 55 55 55 55 55 55 55 55 55 55 55 55 55 55 55 55 55 55 55 55 55 55 55 55 55 55 55 55 55 55 55 55 55 55 55 55 55 55 55 55 55 55 55 55 55 55 55 55 55 55 55 55 55 55 55 55 55 55 55 55 55 55 55 55 E5 55 55 55 55 55 55 55 55 55 55 55 55 55 55

# Instruments
INST2A03   0    -1  -1  -1  -1  -1 "Duty 0"
INST2A03   1    -1  -1  -1  -1   0 "Duty 1"
INST2A03   2    -1  -1  -1  -1   1 "Duty 2"
INSTVRC6   3    -1  -1  -1  -1  -1 "VRC6 Duty 0"
INSTVRC6   4    -1  -1  -1  -1   0 "VRC6 Duty 1"
INSTVRC6   5    -1  -1  -1  -1   1 "VRC6 Duty 2"
INSTVRC6   6    -1  -1  -1  -1   2 "VRC6 Duty 3"
INSTVRC6   7    -1  -1  -1  -1   3 "VRC6 Duty 4"
INSTVRC6   8    -1  -1  -1  -1   4 "VRC6 Duty 5"
INSTVRC6   9    -1  -1  -1  -1   5 "VRC6 Duty 7"
INST2A03  10    -1  -1  -1  -1  -1 "DPCM"
KEYDPCM  10   1   0     0  15   0     0  -1
KEYDPCM  10   1   1     1  15   0     0  -1
KEYDPCM  10   1   2     2  15   0     0  -1
KEYDPCM  10   1   3     3  15   0     0  -1
KEYDPCM  10   1   4     4  15   0     0  -1
KEYDPCM  10   1   5     5  15   0     0  -1

# Tracks
TRACK 256   1 150 "Song 1"
COLUMNS : 3 3 3 3 3 3 3 3

ORDER 00 : 00 00 00 00 00 00 00 00
ORDER 01 : 01 01 01 01 01 01 01 00
ORDER 02 : 02 02 02 02 02 02 02 01
ORDER 03 : 03 03 03 03 03 03 03 02
ORDER 04 : 04 03 04 04 04 04 04 03
ORDER 05 : 05 04 05 05 05 05 05 04
ORDER 06 : 06 05 06 06 06 06 06 05
ORDER 07 : 06 06 07 07 06 07 07 06
ORDER 08 : 06 07 08 08 07 08 08 07
ORDER 09 : 07 08 09 09 08 09 09 08
ORDER 0A : 08 09 0A 0A 09 0A 0A 09
ORDER 0B : 09 0A 0B 0B 0A 0B 0B 0A
ORDER 0C : 0A 0B 0C 0C 0B 0C 0C 0B
ORDER 0D : 0B 0C 0D 0D 0C 0D 0D 0C
ORDER 0E : 06 03 0D 06 06 0E 0E 00
ORDER 0F : 06 03 0D 06 06 0E 0E 00
ORDER 10 : 06 03 0D 06 06 0E 0E 00
ORDER 11 : 06 03 0D 06 06 0E 0E 00
ORDER 12 : 06 03 0D 06 06 0E 0E 00
ORDER 13 : 06 03 0D 06 06 0E 0E 00
ORDER 14 : 06 03 0D 06 06 0E 0E 00
ORDER 15 : 06 03 0D 06 06 0E 0E 00
ORDER 16 : 06 03 0D 06 06 0E 0E 00
ORDER 17 : 06 03 0D 06 06 0E 0E 00
ORDER 18 : 06 03 0D 06 06 0E 0E 00
ORDER 19 : 06 03 0D 06 06 0E 0E 00
ORDER 1A : 06 03 0D 06 06 0E 0E 00
ORDER 1B : 06 03 0D 06 06 0E 0E 00
ORDER 1C : 06 03 0D 06 06 0E 0E 00

PATTERN 00
ROW 00 : ... .. . ... ... ... : ... .. . ... ... ... : ... .. . ... ... ... : A-# 00 C ... ... ... : C-1 0A . ... ... ... : ... .. . ... ... ... : ... .. . ... ... ... : ... .. . ... ... ...
ROW 01 : ... .. . ... ... ... : ... .. . ... ... ... : ... .. . ... ... ... : ... .. B ... ... ... : ... .. . ... ... ... : ... .. . ... ... ... : ... .. . ... ... ... : ... .. . ... ... ...
ROW 02 : ... .. . ... ... ... : ... .. . ... ... ... : ... .. . ... ... ... : ... .. 9 ... ... ... : ... .. . ... ... ... : ... .. . ... ... ... : ... .. . ... ... ... : ... .. . ... ... ...
ROW 03 : ... .. . ... ... ... : ... .. . ... ... ... : ... .. . ... ... ... : ... .. 8 ... ... ... : ... .. . ... ... ... : ... .. . ... ... ... : ... .. . ... ... ... : ... .. . ... ... ...
ROW 04 : ... .. . ... ... ... : ... .. . ... ... ... : ... .. . ... ... ... : --- .. . ... ... ... : ... .. . ... ... ... : ... .. . ... ... ... : ... .. . ... ... ... : ... .. . ... ... ...
ROW 05 : ... .. . ... ... ... : ... .. . ... ... ... : ... .. . ... ... ... : ... .. . ... ... ... : ... .. . ... ... ... : ... .. . ... ... ... : ... .. . ... ... ... : ... .. . ... ... ...
ROW 06 : ... .. . ... ... ... : ... .. . ... ... ... : ... .. . ... ... ... : ... .. . ... ... ... : ... .. . ... ... ... : ... .. . ... ... ... : ... .. . ... ... ... : ... .. . ... ... ...
ROW 07 : ... .. . ... ... ... : ... .. . ... ... ... : ... .. . ... ... ... : ... .. . ... ... ... : ... .. . ... ... ... : ... .. . ... ... ... : ... .. . ... ... ... : ... .. . ... ... ...
ROW 08 : ... .. . ... ... ... : ... .. . ... ... ... : ... .. . ... ... ... : ... .. . ... ... ... : ... .. . ... ... ... : ... .. . ... ... ... : ... .. . ... ... ... : ... .. . ... ... ...
ROW 09 : ... .. . ... ... ... : ... .. . ... ... ... : ... .. . ... ... ... : ... .. . ... ... ... : ... .. . ... ... ... : ... .. . ... ... ... : ... .. . ... ... ... : ... .. . ... ... ...
ROW 0A : ... .. . ... ... ... : ... .. . ... ... ... : ... .. . ... ... ... : ... .. . ... ... ... : ... .. . ... ... ... : ... .. . ... ... ... : ... .. . ... ... ... : ... .. . ... ... ...
ROW 0B : ... .. . ... ... ... : ... .. . ... ... ... : ... .. . ... ... ... : ... .. . ... ... ... : ... .. . ... ... ... : ... .. . ... ... ... : ... .. . ... ... ... : ... .. . ... ... ...
ROW 0C : ... .. . ... ... ... : ... .. . ... ... ... : ... .. . ... ... ... : C-# 00 C ... ... ... : C-1 0A . ... ... ... : ... .. . ... ... ... : ... .. . ... ... ... : ... .. . ... ... ...
ROW 0D : ... .. . ... ... ... : ... .. . ... ... ... : ... .. . ... ... ... : ... .. B ... ... ... : ... .. . ... ... ... : ... .. . ... ... ... : ... .. . ... ... ... : ... .. . ... ... ...
ROW 0E : ... .. . ... ... ... : ... .. . ... ... ... : ... .. . ... ... ... : ... .. 9 ... ... ... : ... .. . ... ... ... : ... .. . ... ... ... : ... .. . ... ... ... : ... .. . ... ... ...
ROW 0F : ... .. . ... ... ... : ... .. . ... ... ... : ... .. . ... ... ... : ... .. 8 ... ... ... : ... .. . ... ... ... : ... .. . ... ... ... : ... .. . ... ... ... : ... .. . ... ... ...
ROW 10 : ... .. . ... ... ... : ... .. . ... ... ... : ... .. . ... ... ... : --- .. . ... ... ... : ... .. . ... ... ... : ... .. . ... ... ... : ... .. . ... ... ... : ... .. . ... ... ...
ROW 11 : ... .. . ... ... ... : ... .. . ... ... ... : ... .. . ... ... ... : ... .. . ... ... ... : ... .. . ... ... ... : ... .. . ... ... ... : ... .. . ... ... ... : ... .. . ... ... ...
ROW 12 : ... .. . ... ... ... : ... .. . ... ... ... : ... .. . ... ... ... : ... .. . ... ... ... : ... .. . ... ... ... : ... .. . ... ... ... : ... .. . ... ... ... : ... .. . ... ... ...
ROW 13 : ... .. . ... ... ... : ... .. . ... ... ... : ... .. . ... ... ... : ... .. . ... ... ... : ... .. . ... ... ... : ... .. . ... ... ... : ... .. . ... ... ... : ... .. . ... ... ...
ROW 14 : ... .. . ... ... ... : ... .. . ... ... ... : ... .. . ... ... ... : ... .. . ... ... ... : ... .. . ... ... ... : ... .. . ... ... ... : ... .. . ... ... ... : ... .. . ... ... ...
ROW 15 : ... .. . ... ... ... : ... .. . ... ... ... : ... .. . ... ... ... : ... .. . ... ... ... : ... .. . ... ... ... : ... .. . ... ... ... : ... .. . ... ... ... : ... .. . ... ... ...
ROW 16 : ... .. . ... ... ... : ... .. . ... ... ... : ... .. . ... ... ... : ... .. . ... ... ... : ... .. . ... ... ... : ... .. . ... ... ... : ... .. . ... ... ... : ... .. . ... ... ...
ROW 17 : ... .. . ... ... ... : ... .. . ... ... ... : ... .. . ... ... ... : ... .. . ... ... ... : ... .. . ... ... ... : ... .. . ... ... ... : ... .. . ... ... ... : ... .. . ... ... ...
ROW 18 : ... .. . ... ... ... : ... .. . ... ... ... : ... .. . ... ... ... : C-# 00 C ... ... ... : C#1 0A . ... ... ... : ... .. . ... ... ... : ... .. . ... ... ... : ... .. . ... ... ...
ROW 19 : ... .. . ... ... ... : ... .. . ... ... ... : ... .. . ... ... ... : ... .. B ... ... ... : ... .. . ... ... ... : ... .. . ... ... ... : ... .. . ... ... ... : ... .. . ... ... ...
ROW 1A : ... .. . ... ... ... : ... .. . ... ... ... : ... .. . ... ... ... : ... .. 9 ... ... ... : ... .. . ... ... ... : ... .. . ... ... ... : ... .. . ... ... ... : ... .. . ... ... ...
ROW 1B : ... .. . ... ... ... : ... .. . ... ... ... : ... .. . ... ... ... : ... .. 8 ... ... ... : ... .. . ... ... ... : ... .. . ... ... ... : ... .. . ... ... ... : ... .. . ... ... ...
ROW 1C : ... .. . ... ... ... : ... .. . ... ... ... : ... .. . ... ... ... : --- .. . ... ... ... : ... .. . ... ... ... : ... .. . ... ... ... : ... .. . ... ... ... : ... .. . ... ... ...
ROW 1D : ... .. . ... ... ... : ... .. . ... ... ... : ... .. . ... ... ... : ... .. . ... ... ... : ... .. . ... ... ... : ... .. . ... ... ... : ... .. . ... ... ... : ... .. . ... ... ...
ROW 1E : ... .. . ... ... ... : ... .. . ... ... ... : ... .. . ... ... ... : ... .. . ... ... ... : ... .. . ... ... ... : ... .. . ... ... ... : ... .. . ... ... ... : ... .. . ... ... ...
ROW 1F : ... .. . ... ... ... : ... .. . ... ... ... : ... .. . ... ... ... : ... .. . ... ... ... : ... .. . ... ... ... : ... .. . ... ... ... : ... .. . ... ... ... : ... .. . ... ... ...
ROW 20 : ... .. . ... ... ... : ... .. . ... ... ... : ... .. . ... ... ... : ... .. . ... ... ... : ... .. . ... ... ... : ... .. . ... ... ... : ... .. . ... ... ... : ... .. . ... ... ...
ROW 21 : ... .. . ... ... ... : ... .. . ... ... ... : ... .. . ... ... ... : ... .. . ... ... ... : ... .. . ... ... ... : ... .. . ... ... ... : ... .. . ... ... ... : ... .. . ... ... ...
ROW 22 : ... .. . ... ... ... : ... .. . ... ... ... : ... .. . ... ... ... : ... .. . ... ... ... : ... .. . ... ... ... : ... .. . ... ... ... : ... .. . ... ... ... : ... .. . ... ... ...
ROW 23 : ... .. . ... ... ... : ... .. . ... ... ... : ... .. . ... ... ... : ... .. . ... ... ... : ... .. . ... ... ... : ... .. . ... ... ... : ... .. . ... ... ... : ... .. . ... ... ...
ROW 24 : ... .. . ... ... ... : ... .. . ... ... ... : ... .. . ... ... ... : C-# 00 C ... ... ... : ... .. . ... ... ... : ... .. . ... ... ... : ... .. . ... ... ... : ... .. . ... ... ...
ROW 25 : ... .. . ... ... ... : ... .. . ... ... ... : ... .. . ... ... ... : ... .. B ... ... ... : ... .. . ... ... ... : ... .. . ... ... ... : ... .. . ... ... ... : ... .. . ... ... ...
ROW 26 : ... .. . ... ... ... : ... .. . ... ... ... : ... .. . ... ... ... : ... .. 9 ... ... ... : ... .. . ... ... ... : ... .. . ... ... ... : ... .. . ... ... ... : ... .. . ... ... ...
ROW 27 : ... .. . ... ... ... : ... .. . ... ... ... : ... .. . ... ... ... : ... .. 8 ... ... ... : ... .. . ... ... ... : ... .. . ... ... ... : ... .. . ... ... ... : ... .. . ... ... ...
ROW 28 : ... .. . ... ... ... : ... .. . ... ... ... : ... .. . ... ... ... : --- .. . ... ... ... : ... .. . ... ... ... : ... .. . ... ... ... : ... .. . ... ... ... : ... .. . ... ... ...
ROW 29 : ... .. . ... ... ... : ... .. . ... ... ... : ... .. . ... ... ... : ... .. . ... ... ... : ... .. . ... ... ... : ... .. . ... ... ... : ... .. . ... ... ... : ... .. . ... ... ...
ROW 2A : ... .. . ... ... ... : ... .. . ... ... ... : ... .. . ... ... ... : ... .. . ... ... ... : ... .. . ... ... ... : ... .. . ... ... ... : ... .. . ... ... ... : ... .. . ... ... ...
ROW 2B : ... .. . ... ... ... : ... .. . ... ... ... : ... .. . ... ... ... : ... .. . ... ... ... : ... .. . ... ... ... : ... .. . ... ... ... : ... .. . ... ... ... : ... .. . ... ... ...
ROW 2C : ... .. . ... ... ... : ... .. . ... ... ... : ... .. . ... ... ... : ... .. . ... ... ... : ... .. . ... ... ... : ... .. . ... ... ... : ... .. . ... ... ... : ... .. . ... ... ...
ROW 2D : ... .. . ... ... ... : ... .. . ... ... ... : ... .. . ... ... ... : ... .. . ... ... ... : ... .. . ... ... ... : ... .. . ... ... ... : ... .. . ... ... ... : ... .. . ... ... ...
ROW 2E : ... .. . ... ... ... : ... .. . ... ... ... : ... .. . ... ... ... : ... .. . ... ... ... : ... .. . ... ... ... : ... .. . ... ... ... : ... .. . ... ... ... : ... .. . ... ... ...
ROW 2F : ... .. . ... ... ... : ... .. . ... ... ... : ... .. . ... ... ... : ... .. . ... ... ... : ... .. . ... ... ... : ... .. . ... ... ... : ... .. . ... ... ... : ... .. . ... ... ...
ROW 30 : ... .. . ... ... ... : ... .. . ... ... ... : ... .. . ... ... ... : A-# 00 A ... ... ... : D-1 0A . ... ... ... : ... .. . ... ... ... : ... .. . ... ... ... : ... .. . ... ... ...
ROW 31 : ... .. . ... ... ... : ... .. . ... ... ... : ... .. . ... ... ... : ... .. 9 ... ... ... : ... .. . ... ... ... : ... .. . ... ... ... : ... .. . ... ... ... : ... .. . ... ... ...
ROW 32 : ... .. . ... ... ... : ... .. . ... ... ... : ... .. . ... ... ... : ... .. 8 ... ... ... : ... .. . ... ... ... : ... .. . ... ... ... : ... .. . ... ... ... : ... .. . ... ... ...
ROW 33 : ... .. . ... ... ... : ... .. . ... ... ... : ... .. . ... ... ... : ... .. 6 ... ... ... : ... .. . ... ... ... : ... .. . ... ... ... : ... .. . ... ... ... : ... .. . ... ... ...
ROW 34 : ... .. . ... ... ... : ... .. . ... ... ... : ... .. . ... ... ... : --- .. . ... ... ... : ... .. . ... ... ... : ... .. . ... ... ... : ... .. . ... ... ... : ... .. . ... ... ...
ROW 35 : ... .. . ... ... ... : ... .. . ... ... ... : ... .. . ... ... ... : ... .. . ... ... ... : ... .. . ... ... ... : ... .. . ... ... ... : ... .. . ... ... ... : ... .. . ... ... ...
ROW 36 : ... .. . ... ... ... : ... .. . ... ... ... : ... .. . ... ... ... : ... .. . ... ... ... : ... .. . ... ... ... : ... .. . ... ... ... : ... .. . ... ... ... : ... .. . ... ... ...
ROW 37 : ... .. . ... ... ... : ... .. . ... ... ... : ... .. . ... ... ... : ... .. . ... ... ... : ... .. . ... ... ... : ... .. . ... ... ... : ... .. . ... ... ... : ... .. . ... ... ...
ROW 38 : ... .. . ... ... ... : ... .. . ... ... ... : ... .. . ... ... ... : ... .. . ... ... ... : ... .. . ... ... ... : ... .. . ... ... ... : ... .. . ... ... ... : ... .. . ... ... ...
ROW 39 : ... .. . ... ... ... : ... .. . ... ... ... : ... .. . ... ... ... : ... .. . ... ... ... : ... .. . ... ... ... : ... .. . ... ... ... : ... .. . ... ... ... : ... .. . ... ... ...
ROW 3A : ... .. . ... ... ... : ... .. . ... ... ... : ... .. . ... ... ... : ... .. . ... ... ... : ... .. . ... ... ... : ... .. . ... ... ... : ... .. . ... ... ... : ... .. . ... ... ...
ROW 3B : ... .. . ... ... ... : ... .. . ... ... ... : ... .. . ... ... ... : ... .. . ... ... ... : ... .. . ... ... ... : ... .. . ... ... ... : ... .. . ... ... ... : ... .. . ... ... ...
ROW 3C : ... .. . ... ... ... : ... .. . ... ... ... : ... .. . ... ... ... : C-# 00 A ... ... ... : D#1 0A . ... ... ... : ... .. . ... ... ... : ... .. . ... ... ... : ... .. . ... ... ...
ROW 3D : ... .. . ... ... ... : ... .. . ... ... ... : ... .. . ... ... ... : ... .. 9 ... ... ... : ... .. . ... ... ... : ... .. . ... ... ... : ... .. . ... ... ... : ... .. . ... ... ...
ROW 3E : ... .. . ... ... ... : ... .. . ... ... ... : ... .. . ... ... ... : ... .. 8 ... ... ... : ... .. . ... ... ... : ... .. . ... ... ... : ... .. . ... ... ... : ... .. . ... ... ...
ROW 3F : ... .. . ... ... ... : ... .. . ... ... ... : ... .. . ... ... ... : ... .. 6 ... ... ... : ... .. . ... ... ... : ... .. . ... ... ... : ... .. . ... ... ... : ... .. . ... ... ...
ROW 40 : ... .. . ... ... ... : ... .. . ... ... ... : ... .. . ... ... ... : --- .. . ... ... ... : ... .. . ... ... ... : ... .. . ... ... ... : ... .. . ... ... ... : ... .. . ... ... ...
ROW 41 : ... .. . ... ... ... : ... .. . ... ... ... : ... .. . ... ... ... : ... .. . ... ... ... : ... .. . ... ... ... : ... .. . ... ... ... : ... .. . ... ... ... : ... .. . ... ... ...
ROW 42 : ... .. . ... ... ... : ... .. . ... ... ... : ... .. . ... ... ... : ... .. . ... ... ... : ... .. . ... ... ... : ... .. . ... ... ... : ... .. . ... ... ... : ... .. . ... ... ...
ROW 43 : ... .. . ... ... ... : ... .. . ... ... ... : ... .. . ... ... ... : ... .. . ... ... ... : ... .. . ... ... ... : ... .. . ... ... ... : ... .. . ... ... ... : ... .. . ... ... ...
ROW 44 : ... .. . ... ... ... : ... .. . ... ... ... : ... .. . ... ... ... : ... .. . ... ... ... : ... .. . ... ... ... : ... .. . ... ... ... : ... .. . ... ... ... : ... .. . ... ... ...
ROW 45 : ... .. . ... ... ... : ... .. . ... ... ... : ... .. . ... ... ... : ... .. . ... ... ... : ... .. . ... ... ... : ... .. . ... ... ... : ... .. . ... ... ... : ... .. . ... ... ...
ROW 46 : ... .. . ... ... ... : ... .. . ... ... ... : ... .. . ... ... ... : ... .. . ... ... ... : ... .. . ... ... ... : ... .. . ... ... ... : ... .. . ... ... ... : ... .. . ... ... ...
ROW 47 : ... .. . ... ... ... : ... .. . ... ... ... : ... .. . ... ... ... : ... .. . ... ... ... : ... .. . ... ... ... : ... .. . ... ... ... : ... .. . ... ... ... : ... .. . ... ... ...
ROW 48 : G#2 00 D ... ... ... : ... .. . ... ... ... : ... .. . ... ... ... : A-# 00 C ... ... ... : C-1 0A . ... ... ... : ... .. . ... ... ... : ... .. . ... ... ... : ... .. . ... ... ...
ROW 49 : ... .. C ... ... ... : ... .. . ... ... ... : ... .. . ... ... ... : ... .. B ... ... ... : ... .. . ... ... ... : ... .. . ... ... ... : ... .. . ... ... ... : ... .. . ... ... ...
ROW 4A : D#3 00 A ... ... ... : ... .. . ... ... ... : ... .. . ... ... ... : ... .. 9 ... ... ... : ... .. . ... ... ... : ... .. . ... ... ... : ... .. . ... ... ... : ... .. . ... ... ...
ROW 4B : G#2 00 8 ... ... ... : ... .. . ... ... ... : ... .. . ... ... ... : ... .. 8 ... ... ... : ... .. . ... ... ... : ... .. . ... ... ... : ... .. . ... ... ... : ... .. . ... ... ...
ROW 4C : --- .. . ... ... ... : ... .. . ... ... ... : ... .. . ... ... ... : --- .. . ... ... ... : ... .. . ... ... ... : ... .. . ... ... ... : ... .. . ... ... ... : ... .. . ... ... ...
ROW 4D : ... .. . ... ... ... : ... .. . ... ... ... : ... .. . ... ... ... : ... .. . ... ... ... : ... .. . ... ... ... : ... .. . ... ... ... : ... .. . ... ... ... : ... .. . ... ... ...
ROW 4E : ... .. . ... ... ... : ... .. . ... ... ... : ... .. . ... ... ... : ... .. . ... ... ... : ... .. . ... ... ... : ... .. . ... ... ... : ... .. . ... ... ... : ... .. . ... ... ...
ROW 4F : ... .. . ... ... ... : ... .. . ... ... ... : ... .. . ... ... ... : ... .. . ... ... ... : ... .. . ... ... ... : ... .. . ... ... ... : ... .. . ... ... ... : ... .. . ... ... ...
ROW 50 : ... .. . ... ... ... : ... .. . ... ... ... : ... .. . ... ... ... : ... .. . ... ... ... : ... .. . ... ... ... : ... .. . ... ... ... : ... .. . ... ... ... : ... .. . ... ... ...
ROW 51 : ... .. . ... ... ... : ... .. . ... ... ... : ... .. . ... ... ... : ... .. . ... ... ... : ... .. . ... ... ... : ... .. . ... ... ... : ... .. . ... ... ... : ... .. . ... ... ...
ROW 52 : ... .. . ... ... ... : ... .. . ... ... ... : ... .. . ... ... ... : ... .. . ... ... ... : ... .. . ... ... ... : ... .. . ... ... ... : ... .. . ... ... ... : ... .. . ... ... ...
ROW 53 : ... .. . ... ... ... : ... .. . ... ... ... : ... .. . ... ... ... : ... .. . ... ... ... : ... .. . ... ... ... : ... .. . ... ... ... : ... .. . ... ... ... : ... .. . ... ... ...
ROW 54 : B-2 00 D ... ... ... : G#2 00 7 ... ... ... : ... .. . ... ... ... : C-# 00 C ... ... ... : C-1 0A . ... ... ... : ... .. . ... ... ... : ... .. . ... ... ... : ... .. . ... ... ...
ROW 55 : ... .. C ... ... ... : ... .. 6 ... ... ... : ... .. . ... ... ... : ... .. B ... ... ... : ... .. . ... ... ... : ... .. . ... ... ... : ... .. . ... ... ... : ... .. . ... ... ...
ROW 56 : F#3 00 A ... ... ... : D#3 00 5 ... ... ... : ... .. . ... ... ... : ... .. 9 ... ... ... : ... .. . ... ... ... : ... .. . ... ... ... : ... .. . ... ... ... : ... .. . ... ... ...
ROW 57 : B-2 00 8 ... ... ... : G#2 00 4 ... ... ... : ... .. . ... ... ... : ... .. 8 ... ... ... : ... .. . ... ... ... : ... .. . ... ... ... : ... .. . ... ... ... : ... .. . ... ... ...
ROW 58 : --- .. . ... ... ... : --- .. . ... ... ... : ... .. . ... ... ... : --- .. . ... ... ... : ... .. . ... ... ... : ... .. . ... ... ... : ... .. . ... ... ... : ... .. . ... ... ...
ROW 59 : ... .. . ... ... ... : ... .. . ... ... ... : ... .. . ... ... ... : ... .. . ... ... ... : ... .. . ... ... ... : ... .. . ... ... ... : ... .. . ... ... ... : ... .. . ... ... ...
ROW 5A : ... .. . ... ... ... : ... .. . ... ... ... : ... .. . ... ... ... : ... .. . ... ... ... : ... .. . ... ... ... : ... .. . ... ... ... : ... .. . ... ... ... : ... .. . ... ... ...
ROW 5B : ... .. . ... ... ... : ... .. . ... ... ... : ... .. . ... ... ... : ... .. . ... ... ... : ... .. . ... ... ... : ... .. . ... ... ... : ... .. . ... ... ... : ... .. . ... ... ...
ROW 5C : ... .. . ... ... ... : ... .. . ... ... ... : ... .. . ... ... ... : ... .. . ... ... ... : ... .. . ... ... ... : ... .. . ... ... ... : ... .. . ... ... ... : ... .. . ... ... ...
ROW 5D : ... .. . ... ... ... : ... .. . ... ... ... : ... .. . ... ... ... : ... .. . ... ... ... : ... .. . ... ... ... : ... .. . ... ... ... : ... .. . ... ... ... : ... .. . ... ... ...
ROW 5E : ... .. . ... ... ... : ... .. . ... ... ... : ... .. . ... ... ... : ... .. . ... ... ... : ... .. . ... ... ... : ... .. . ... ... ... : ... .. . ... ... ... : ... .. . ... ... ...
ROW 5F : ... .. . ... ... ... : ... .. . ... ... ... : ... .. . ... ... ... : ... .. . ... ... ... : ... .. . ... ... ... : ... .. . ... ... ... : ... .. . ... ... ... : ... .. . ... ... ...
ROW 60 : B-3 00 D ... ... ... : B-2 00 7 ... ... ... : ... .. . ... ... ... : C-# 00 C ... ... ... : D#1 0A . ... ... ... : ... .. . ... ... ... : ... .. . ... ... ... : ... .. . ... ... ...
ROW 61 : ... .. C ... ... ... : ... .. 6 ... ... ... : ... .. . ... ... ... : ... .. B ... ... ... : ... .. . ... ... ... : ... .. . ... ... ... : ... .. . ... ... ... : ... .. . ... ... ...
ROW 62 : F#4 00 A ... ... ... : F#3 00 5 ... ... ... : ... .. . ... ... ... : ... .. 9 ... ... ... : ... .. . ... ... ... : ... .. . ... ... ... : ... .. . ... ... ... : ... .. . ... ... ...
ROW 63 : B-3 00 8 ... ... ... : B-2 00 4 ... ... ... : ... .. . ... ... ... : ... .. 8 ... ... ... : ... .. . ... ... ... : ... .. . ... ... ... : ... .. . ... ... ... : ... .. . ... ... ...
ROW 64 : --- .. . ... ... ... : --- .. . ... ... ... : ... .. . ... ... ... : --- .. . ... ... ... : ... .. . ... ... ... : ... .. . ... ... ... : ... .. . ... ... ... : ... .. . ... ... ...
ROW 65 : ... .. . ... ... ... : ... .. . ... ... ... : ... .. . ... ... ... : ... .. . ... ... ... : ... .. . ... ... ... : ... .. . ... ... ... : ... .. . ... ... ... : ... .. . ... ... ...
ROW 66 : ... .. . ... ... ... : ... .. . ... ... ... : ... .. . ... ... ... : ... .. . ... ... ... : ... .. . ... ... ... : ... .. . ... ... ... : ... .. . ... ... ... : ... .. . ... ... ...
ROW 67 : ... .. . ... ... ... : ... .. . ... ... ... : ... .. . ... ... ... : ... .. . ... ... ... : ... .. . ... ... ... : ... .. . ... ... ... : ... .. . ... ... ... : ... .. . ... ... ...
ROW 68 : ... .. . ... ... ... : ... .. . ... ... ... : ... .. . ... ... ... : ... .. . ... ... ... : ... .. . ... ... ... : ... .. . ... ... ... : ... .. . ... ... ... : ... .. . ... ... ...
ROW 69 : ... .. . ... ... ... : ... .. . ... ... ... : ... .. . ... ... ... : ... .. . ... ... ... : ... .. . ... ... ... : ... .. . ... ... ... : ... .. . ... ... ... : ... .. . ... ... ...
ROW 6A : ... .. . ... ... ... : ... .. . ... ... ... : ... .. . ... ... ... : ... .. . ... ... ... : ... .. . ... ... ... : ... .. . ... ... ... : ... .. . ... ... ... : ... .. . ... ... ...
ROW 6B : ... .. . ... ... ... : ... .. . ... ... ... : ... .. . ... ... ... : ... .. . ... ... ... : ... .. . ... ... ... : ... .. . ... ... ... : ... .. . ... ... ... : ... .. . ... ... ...
ROW 6C : ... .. . ... ... ... : B-3 00 7 ... ... ... : ... .. . ... ... ... : C-# 00 C ... ... ... : ... .. . ... ... ... : ... .. . ... ... ... : ... .. . ... ... ... : ... .. . ... ... ...
ROW 6D : ... .. . ... ... ... : ... .. 6 ... ... ... : ... .. . ... ... ... : ... .. B ... ... ... : ... .. . ... ... ... : ... .. . ... ... ... : ... .. . ... ... ... : ... .. . ... ... ...
ROW 6E : ... .. . ... ... ... : F#4 00 5 ... ... ... : ... .. . ... ... ... : ... .. 9 ... ... ... : ... .. . ... ... ... : ... .. . ... ... ... : ... .. . ... ... ... : ... .. . ... ... ...
ROW 6F : ... .. . ... ... ... : B-3 00 4 ... ... ... : ... .. . ... ... ... : ... .. 8 ... ... ... : ... .. . ... ... ... : ... .. . ... ... ... : ... .. . ... ... ... : ... .. . ... ... ...
ROW 70 : ... .. . ... ... ... : --- .. . ... ... ... : ... .. . ... ... ... : --- .. . ... ... ... : ... .. . ... ... ... : ... .. . ... ... ... : ... .. . ... ... ... : ... .. . ... ... ...
ROW 71 : ... .. . ... ... ... : ... .. . ... ... ... : ... .. . ... ... ... : ... .. . ... ... ... : ... .. . ... ... ... : ... .. . ... ... ... : ... .. . ... ... ... : ... .. . ... ... ...
ROW 72 : ... .. . ... ... ... : ... .. . ... ... ... : ... .. . ... ... ... : ... .. . ... ... ... : ... .. . ... ... ... : ... .. . ... ... ... : ... .. . ... ... ... : ... .. . ... ... ...
ROW 73 : ... .. . ... ... ... : ... .. . ... ... ... : ... .. . ... ... ... : ... .. . ... ... ... : ... .. . ... ... ... : ... .. . ... ... ... : ... .. . ... ... ... : ... .. . ... ... ...
ROW 74 : ... .. . ... ... ... : ... .. . ... ... ... : ... .. . ... ... ... : ... .. . ... ... ... : ... .. . ... ... ... : ... .. . ... ... ... : ... .. . ... ... ... : ... .. . ... ... ...
ROW 75 : ... .. . ... ... ... : ... .. . ... ... ... : ... .. . ... ... ... : ... .. . ... ... ... : ... .. . ... ... ... : ... .. . ... ... ... : ... .. . ... ... ... : ... .. . ... ... ...
ROW 76 : ... .. . ... ... ... : ... .. . ... ... ... : ... .. . ... ... ... : ... .. . ... ... ... : ... .. . ... ... ... : ... .. . ... ... ... : ... .. . ... ... ... : ... .. . ... ... ...
ROW 77 : ... .. . ... ... ... : ... .. . ... ... ... : ... .. . ... ... ... : ... .. . ... ... ... : ... .. . ... ... ... : ... .. . ... ... ... : ... .. . ... ... ... : ... .. . ... ... ...
ROW 78 : ... .. . ... ... ... : ... .. . ... ... ... : ... .. . ... ... ... : A-# 00 A ... ... ... : D#1 0A . ... ... ... : ... .. . ... ... ... : ... .. . ... ... ... : ... .. . ... ... ...
ROW 79 : ... .. . ... ... ... : ... .. . ... ... ... : ... .. . ... ... ... : ... .. 9 ... ... ... : ... .. . ... ... ... : ... .. . ... ... ... : ... .. . ... ... ... : ... .. . ... ... ...
ROW 7A : ... .. . ... ... ... : ... .. . ... ... ... : ... .. . ... ... ... : ... .. 8 ... ... ... : ... .. . ... ... ... : ... .. . ... ... ... : ... .. . ... ... ... : ... .. . ... ... ...
ROW 7B : ... .. . ... ... ... : ... .. . ... ... ... : ... .. . ... ... ... : ... .. 6 ... ... ... : ... .. . ... ... ... : ... .. . ... ... ... : ... .. . ... ... ... : ... .. . ... ... ...
ROW 7C : ... .. . ... ... ... : ... .. . ... ... ... : ... .. . ... ... ... : --- .. . ... ... ... : ... .. . ... ... ... : ... .. . ... ... ... : ... .. . ... ... ... : ... .. . ... ... ...
ROW 7D : ... .. . ... ... ... : ... .. . ... ... ... : ... .. . ... ... ... : ... .. . ... ... ... : ... .. . ... ... ... : ... .. . ... ... ... : ... .. . ... ... ... : ... .. . ... ... ...
ROW 7E : ... .. . ... ... ... : ... .. . ... ... ... : ... .. . ... ... ... : ... .. . ... ... ... : ... .. . ... ... ... : ... .. . ... ... ... : ... .. . ... ... ... : ... .. . ... ... ...
ROW 7F : ... .. . ... ... ... : ... .. . ... ... ... : ... .. . ... ... ... : ... .. . ... ... ... : ... .. . ... ... ... : ... .. . ... ... ... : ... .. . ... ... ... : ... .. . ... ... ...
ROW 80 : ... .. . ... ... ... : ... .. . ... ... ... : ... .. . ... ... ... : ... .. . ... ... ... : ... .. . ... ... ... : ... .. . ... ... ... : ... .. . ... ... ... : ... .. . ... ... ...
ROW 81 : ... .. . ... ... ... : ... .. . ... ... ... : ... .. . ... ... ... : ... .. . ... ... ... : ... .. . ... ... ... : ... .. . ... ... ... : ... .. . ... ... ... : ... .. . ... ... ...
ROW 82 : ... .. . ... ... ... : ... .. . ... ... ... : ... .. . ... ... ... : ... .. . ... ... ... : ... .. . ... ... ... : ... .. . ... ... ... : ... .. . ... ... ... : ... .. . ... ... ...
ROW 83 : ... .. . ... ... ... : ... .. . ... ... ... : ... .. . ... ... ... : ... .. . ... ... ... : ... .. . ... ... ... : ... .. . ... ... ... : ... .. . ... ... ... : ... .. . ... ... ...
ROW 84 : G#3 00 D ... ... ... : ... .. . ... ... ... : ... .. . ... ... ... : C-# 00 A ... ... ... : ... .. . ... ... ... : ... .. . ... ... ... : ... .. . ... ... ... : ... .. . ... ... ...
ROW 85 : ... .. C ... ... ... : ... .. . ... ... ... : ... .. . ... ... ... : ... .. 9 ... ... ... : ... .. . ... ... ... : ... .. . ... ... ... : ... .. . ... ... ... : ... .. . ... ... ...
ROW 86 : D#4 00 A ... ... ... : ... .. . ... ... ... : ... .. . ... ... ... : ... .. 8 ... ... ... : ... .. . ... ... ... : ... .. . ... ... ... : ... .. . ... ... ... : ... .. . ... ... ...
ROW 87 : G#3 00 8 ... ... ... : ... .. . ... ... ... : ... .. . ... ... ... : ... .. 6 ... ... ... : ... .. . ... ... ... : ... .. . ... ... ... : ... .. . ... ... ... : ... .. . ... ... ...
ROW 88 : --- .. . ... ... ... : ... .. . ... ... ... : ... .. . ... ... ... : --- .. . ... ... ... : ... .. . ... ... ... : ... .. . ... ... ... : ... .. . ... ... ... : ... .. . ... ... ...
ROW 89 : ... .. . ... ... ... : ... .. . ... ... ... : ... .. . ... ... ... : ... .. . ... ... ... : ... .. . ... ... ... : ... .. . ... ... ... : ... .. . ... ... ... : ... .. . ... ... ...
ROW 8A : ... .. . ... ... ... : ... .. . ... ... ... : ... .. . ... ... ... : ... .. . ... ... ... : ... .. . ... ... ... : ... .. . ... ... ... : ... .. . ... ... ... : ... .. . ... ... ...
ROW 8B : ... .. . ... ... ... : ... .. . ... ... ... : ... .. . ... ... ... : ... .. . ... ... ... : ... .. . ... ... ... : ... .. . ... ... ... : ... .. . ... ... ... : ... .. . ... ... ...
ROW 8C : ... .. . ... ... ... : ... .. . ... ... ... : ... .. . ... ... ... : ... .. . ... ... ... : ... .. . ... ... ... : ... .. . ... ... ... : ... .. . ... ... ... : ... .. . ... ... ...
ROW 8D : ... .. . ... ... ... : ... .. . ... ... ... : ... .. . ... ... ... : ... .. . ... ... ... : ... .. . ... ... ... : ... .. . ... ... ... : ... .. . ... ... ... : ... .. . ... ... ...
ROW 8E : ... .. . ... ... ... : ... .. . ... ... ... : ... .. . ... ... ... : ... .. . ... ... ... : ... .. . ... ... ... : ... .. . ... ... ... : ... .. . ... ... ... : ... .. . ... ... ...
ROW 8F : ... .. . ... ... ... : ... .. . ... ... ... : ... .. . ... ... ... : ... .. . ... ... ... : ... .. . ... ... ... : ... .. . ... ... ... : ... .. . ... ... ... : ... .. . ... ... ...
ROW 90 : G-3 00 D ... ... ... : G#3 00 7 ... ... ... : ... .. . ... ... ... : A-# 00 C ... ... ... : C-1 0A . ... ... ... : ... .. . ... ... ... : ... .. . ... ... ... : ... .. . ... ... ...
ROW 91 : ... .. C ... ... ... : ... .. 6 ... ... ... : ... .. . ... ... ... : ... .. B ... ... ... : ... .. . ... ... ... : ... .. . ... ... ... : ... .. . ... ... ... : ... .. . ... ... ...
ROW 92 : D-4 00 A ... ... ... : D#4 00 5 ... ... ... : ... .. . ... ... ... : ... .. 9 ... ... ... : ... .. . ... ... ... : ... .. . ... ... ... : ... .. . ... ... ... : ... .. . ... ... ...
ROW 93 : G-3 00 8 ... ... ... : G#3 00 4 ... ... ... : ... .. . ... ... ... : ... .. 8 ... ... ... : ... .. . ... ... ... : ... .. . ... ... ... : ... .. . ... ... ... : ... .. . ... ... ...
ROW 94 : --- .. . ... ... ... : --- .. . ... ... ... : ... .. . ... ... ... : --- .. . ... ... ... : ... .. . ... ... ... : ... .. . ... ... ... : ... .. . ... ... ... : ... .. . ... ... ...
ROW 95 : ... .. . ... ... ... : ... .. . ... ... ... : ... .. . ... ... ... : ... .. . ... ... ... : ... .. . ... ... ... : ... .. . ... ... ... : ... .. . ... ... ... : ... .. . ... ... ...
ROW 96 : ... .. . ... ... ... : ... .. . ... ... ... : ... .. . ... ... ... : ... .. . ... ... ... : ... .. . ... ... ... : ... .. . ... ... ... : ... .. . ... ... ... : ... .. . ... ... ...
ROW 97 : ... .. . ... ... ... : ... .. . ... ... ... : ... .. . ... ... ... : ... .. . ... ... ... : ... .. . ... ... ... : ... .. . ... ... ... : ... .. . ... ... ... : ... .. . ... ... ...
ROW 98 : ... .. . ... ... ... : ... .. . ... ... ... : ... .. . ... ... ... : ... .. . ... ... ... : ... .. . ... ... ... : ... .. . ... ... ... : ... .. . ... ... ... : ... .. . ... ... ...
ROW 99 : ... .. . ... ... ... : ... .. . ... ... ... : ... .. . ... ... ... : ... .. . ... ... ... : ... .. . ... ... ... : ... .. . ... ... ... : ... .. . ... ... ... : ... .. . ... ... ...
ROW 9A : ... .. . ... ... ... : ... .. . ... ... ... : ... .. . ... ... ... : ... .. . ... ... ... : ... .. . ... ... ... : ... .. . ... ... ... : ... .. . ... ... ... : ... .. . ... ... ...
ROW 9B : ... .. . ... ... ... : ... .. . ... ... ... : ... .. . ... ... ... : ... .. . ... ... ... : ... .. . ... ... ... : ... .. . ... ... ... : ... .. . ... ... ... : ... .. . ... ... ...
ROW 9C : G#3 00 D ... ... ... : G-3 00 7 ... ... ... : ... .. . ... ... ... : C-# 00 C ... ... ... : C-1 0A . ... ... ... : ... .. . ... ... ... : ... .. . ... ... ... : ... .. . ... ... ...
ROW 9D : ... .. C ... ... ... : ... .. 6 ... ... ... : ... .. . ... ... ... : ... .. B ... ... ... : ... .. . ... ... ... : ... .. . ... ... ... : ... .. . ... ... ... : ... .. . ... ... ...
ROW 9E : D#4 00 A ... ... ... : D-4 00 5 ... ... ... : ... .. . ... ... ... : ... .. 9 ... ... ... : ... .. . ... ... ... : ... .. . ... ... ... : ... .. . ... ... ... : ... .. . ... ... ...
ROW 9F : G#3 00 8 ... ... ... : G-3 00 4 ... ... ... : ... .. . ... ... ... : ... .. 8 ... ... ... : ... .. . ... ... ... : ... .. . ... ... ... : ... .. . ... ... ... : ... .. . ... ... ...
ROW A0 : --- .. . ... ... ... : --- .. . ... ... ... : ... .. . ... ... ... : --- .. . ... ... ... : ... .. . ... ... ... : ... .. . ... ... ... : ... .. . ... ... ... : ... .. . ... ... ...
ROW A1 : ... .. . ... ... ... : ... .. . ... ... ... : ... .. . ... ... ... : ... .. . ... ... ... : ... .. . ... ... ... : ... .. . ... ... ... : ... .. . ... ... ... : ... .. . ... ... ...
ROW A2 : ... .. . ... ... ... : ... .. . ... ... ... : ... .. . ... ... ... : ... .. . ... ... ... : ... .. . ... ... ... : ... .. . ... ... ... : ... .. . ... ... ... : ... .. . ... ... ...
ROW A3 : ... .. . ... ... ... : ... .. . ... ... ... : ... .. . ... ... ... : ... .. . ... ... ... : ... .. . ... ... ... : ... .. . ... ... ... : ... .. . ... ... ... : ... .. . ... ... ...
ROW A4 : ... .. . ... ... ... : ... .. . ... ... ... : ... .. . ... ... ... : ... .. . ... ... ... : ... .. . ... ... ... : ... .. . ... ... ... : ... .. . ... ... ... : ... .. . ... ... ...
ROW A5 : ... .. . ... ... ... : ... .. . ... ... ... : ... .. . ... ... ... : ... .. . ... ... ... : ... .. . ... ... ... : ... .. . ... ... ... : ... .. . ... ... ... : ... .. . ... ... ...
ROW A6 : ... .. . ... ... ... : ... .. . ... ... ... : ... .. . ... ... ... : ... .. . ... ... ... : ... .. . ... ... ... : ... .. . ... ... ... : ... .. . ... ... ... : ... .. . ... ... ...
ROW A7 : ... .. . ... ... ... : ... .. . ... ... ... : ... .. . ... ... ... : ... .. . ... ... ... : ... .. . ... ... ... : ... .. . ... ... ... : ... .. . ... ... ... : ... .. . ... ... ...
ROW A8 : A#3 00 D ... ... ... : G#3 00 7 ... ... ... : ... .. . ... ... ... : C-# 00 C ... ... ... : C#1 0A . ... ... ... : ... .. . ... ... ... : ... .. . ... ... ... : ... .. . ... ... ...
ROW A9 : ... .. C ... ... ... : ... .. 6 ... ... ... : ... .. . ... ... ... : ... .. B ... ... ... : ... .. . ... ... ... : ... .. . ... ... ... : ... .. . ... ... ... : ... .. . ... ... ...
ROW AA : F-4 00 A ... ... ... : D#4 00 5 ... ... ... : ... .. . ... ... ... : ... .. 9 ... ... ... : ... .. . ... ... ... : ... .. . ... ... ... : ... .. . ... ... ... : ... .. . ... ... ...
ROW AB : A#3 00 8 ... ... ... : G#3 00 4 ... ... ... : ... .. . ... ... ... : ... .. 8 ... ... ... : ... .. . ... ... ... : ... .. . ... ... ... : ... .. . ... ... ... : ... .. . ... ... ...
ROW AC : --- .. . ... ... ... : --- .. . ... ... ... : ... .. . ... ... ... : --- .. . ... ... ... : ... .. . ... ... ... : ... .. . ... ... ... : ... .. . ... ... ... : ... .. . ... ... ...
ROW AD : ... .. . ... ... ... : ... .. . ... ... ... : ... .. . ... ... ... : ... .. . ... ... ... : ... .. . ... ... ... : ... .. . ... ... ... : ... .. . ... ... ... : ... .. . ... ... ...
ROW AE : ... .. . ... ... ... : ... .. . ... ... ... : ... .. . ... ... ... : ... .. . ... ... ... : ... .. . ... ... ... : ... .. . ... ... ... : ... .. . ... ... ... : ... .. . ... ... ...
ROW AF : ... .. . ... ... ... : ... .. . ... ... ... : ... .. . ... ... ... : ... .. . ... ... ... : ... .. . ... ... ... : ... .. . ... ... ... : ... .. . ... ... ... : ... .. . ... ... ...
ROW B0 : ... .. . ... ... ... : ... .. . ... ... ... : ... .. . ... ... ... : ... .. . ... ... ... : ... .. . ... ... ... : ... .. . ... ... ... : ... .. . ... ... ... : ... .. . ... ... ...
ROW B1 : ... .. . ... ... ... : ... .. . ... ... ... : ... .. . ... ... ... : ... .. . ... ... ... : ... .. . ... ... ... : ... .. . ... ... ... : ... .. . ... ... ... : ... .. . ... ... ...
ROW B2 : ... .. . ... ... ... : ... .. . ... ... ... : ... .. . ... ... ... : ... .. . ... ... ... : ... .. . ... ... ... : ... .. . ... ... ... : ... .. . ... ... ... : ... .. . ... ... ...
ROW B3 : ... .. . ... ... ... : ... .. . ... ... ... : ... .. . ... ... ... : ... .. . ... ... ... : ... .. . ... ... ... : ... .. . ... ... ... : ... .. . ... ... ... : ... .. . ... ... ...
ROW B4 : ... .. . ... ... ... : A#3 00 7 ... ... ... : ... .. . ... ... ... : C-# 00 C ... ... ... : ... .. . ... ... ... : ... .. . ... ... ... : ... .. . ... ... ... : ... .. . ... ... ...
ROW B5 : ... .. . ... ... ... : ... .. 6 ... ... ... : ... .. . ... ... ... : ... .. B ... ... ... : ... .. . ... ... ... : ... .. . ... ... ... : ... .. . ... ... ... : ... .. . ... ... ...
ROW B6 : ... .. . ... ... ... : F-4 00 5 ... ... ... : ... .. . ... ... ... : ... .. 9 ... ... ... : ... .. . ... ... ... : ... .. . ... ... ... : ... .. . ... ... ... : ... .. . ... ... ...
ROW B7 : ... .. . ... ... ... : A#3 00 4 ... ... ... : ... .. . ... ... ... : ... .. 8 ... ... ... : ... .. . ... ... ... : ... .. . ... ... ... : ... .. . ... ... ... : ... .. . ... ... ...
ROW B8 : ... .. . ... ... ... : --- .. . ... ... ... : ... .. . ... ... ... : --- .. . ... ... ... : ... .. . ... ... ... : ... .. . ... ... ... : ... .. . ... ... ... : ... .. . ... ... ...
ROW B9 : ... .. . ... ... ... : ... .. . ... ... ... : ... .. . ... ... ... : ... .. . ... ... ... : ... .. . ... ... ... : ... .. . ... ... ... : ... .. . ... ... ... : ... .. . ... ... ...
ROW BA : ... .. . ... ... ... : ... .. . ... ... ... : ... .. . ... ... ... : ... .. . ... ... ... : ... .. . ... ... ... : ... .. . ... ... ... : ... .. . ... ... ... : ... .. . ... ... ...
ROW BB : ... .. . ... ... ... : ... .. . ... ... ... : ... .. . ... ... ... : ... .. . ... ... ... : ... .. . ... ... ... : ... .. . ... ... ... : ... .. . ... ... ... : ... .. . ... ... ...
ROW BC : ... .. . ... ... ... : ... .. . ... ... ... : ... .. . ... ... ... : ... .. . ... ... ... : ... .. . ... ... ... : ... .. . ... ... ... : ... .. . ... ... ... : ... .. . ... ... ...
ROW BD : ... .. . ... ... ... : ... .. . ... ... ... : ... .. . ... ... ... : ... .. . ... ... ... : ... .. . ... ... ... : ... .. . ... ... ... : ... .. . ... ... ... : ... .. . ... ... ...
ROW BE : ... .. . ... ... ... : ... .. . ... ... ... : ... .. . ... ... ... : ... .. . ... ... ... : ... .. . ... ... ... : ... .. . ... ... ... : ... .. . ... ... ... : ... .. . ... ... ...
ROW BF : ... .. . ... ... ... : ... .. . ... ... ... : ... .. . ... ... ... : ... .. . ... ... ... : ... .. . ... ... ... : ... .. . ... ... ... : ... .. . ... ... ... : ... .. . ... ... ...
ROW C0 : G#3 00 D ... ... ... : ... .. . ... ... ... : ... .. . ... ... ... : A-# 00 A ... ... ... : D-1 0A . ... ... ... : ... .. . ... ... ... : ... .. . ... ... ... : ... .. . ... ... ...
ROW C1 : ... .. C ... ... ... : ... .. . ... ... ... : ... .. . ... ... ... : ... .. 9 ... ... ... : ... .. . ... ... ... : ... .. . ... ... ... : ... .. . ... ... ... : ... .. . ... ... ...
ROW C2 : D#4 00 A ... ... ... : ... .. . ... ... ... : ... .. . ... ... ... : ... .. 8 ... ... ... : ... .. . ... ... ... : ... .. . ... ... ... : ... .. . ... ... ... : ... .. . ... ... ...
ROW C3 : G#3 00 8 ... ... ... : ... .. . ... ... ... : ... .. . ... ... ... : ... .. 6 ... ... ... : ... .. . ... ... ... : ... .. . ... ... ... : ... .. . ... ... ... : ... .. . ... ... ...
ROW C4 : --- .. . ... ... ... : ... .. . ... ... ... : ... .. . ... ... ... : --- .. . ... ... ... : ... .. . ... ... ... : ... .. . ... ... ... : ... .. . ... ... ... : ... .. . ... ... ...
ROW C5 : ... .. . ... ... ... : ... .. . ... ... ... : ... .. . ... ... ... : ... .. . ... ... ... : ... .. . ... ... ... : ... .. . ... ... ... : ... .. . ... ... ... : ... .. . ... ... ...
ROW C6 : ... .. . ... ... ... : ... .. . ... ... ... : ... .. . ... ... ... : ... .. . ... ... ... : ... .. . ... ... ... : ... .. . ... ... ... : ... .. . ... ... ... : ... .. . ... ... ...
ROW C7 : ... .. . ... ... ... : ... .. . ... ... ... : ... .. . ... ... ... : ... .. . ... ... ... : ... .. . ... ... ... : ... .. . ... ... ... : ... .. . ... ... ... : ... .. . ... ... ...
ROW C8 : ... .. . ... ... ... : ... .. . ... ... ... : ... .. . ... ... ... : ... .. . ... ... ... : ... .. . ... ... ... : ... .. . ... ... ... : ... .. . ... ... ... : ... .. . ... ... ...
ROW C9 : ... .. . ... ... ... : ... .. . ... ... ... : ... .. . ... ... ... : ... .. . ... ... ... : ... .. . ... ... ... : ... .. . ... ... ... : ... .. . ... ... ... : ... .. . ... ... ...
ROW CA : ... .. . ... ... ... : ... .. . ... ... ... : ... .. . ... ... ... : ... .. . ... ... ... : ... .. . ... ... ... : ... .. . ... ... ... : ... .. . ... ... ... : ... .. . ... ... ...
ROW CB : ... .. . ... ... ... : ... .. . ... ... ... : ... .. . ... ... ... : ... .. . ... ... ... : ... .. . ... ... ... : ... .. . ... ... ... : ... .. . ... ... ... : ... .. . ... ... ...
ROW CC : ... .. . ... ... ... : G#3 00 7 ... ... ... : ... .. . ... ... ... : C-# 00 A ... ... ... : D#1 0A . ... ... ... : ... .. . ... ... ... : ... .. . ... ... ... : ... .. . ... ... ...
ROW CD : ... .. . ... ... ... : ... .. 6 ... ... ... : ... .. . ... ... ... : ... .. 9 ... ... ... : ... .. . ... ... ... : ... .. . ... ... ... : ... .. . ... ... ... : ... .. . ... ... ...
ROW CE : ... .. . ... ... ... : D#4 00 5 ... ... ... : ... .. . ... ... ... : ... .. 8 ... ... ... : ... .. . ... ... ... : ... .. . ... ... ... : ... .. . ... ... ... : ... .. . ... ... ...
ROW CF : ... .. . ... ... ... : G#3 00 4 ... ... ... : ... .. . ... ... ... : ... .. 6 ... ... ... : ... .. . ... ... ... : ... .. . ... ... ... : ... .. . ... ... ... : ... .. . ... ... ...
ROW D0 : ... .. . ... ... ... : --- .. . ... ... ... : ... .. . ... ... ... : --- .. . ... ... ... : ... .. . ... ... ... : ... .. . ... ... ... : ... .. . ... ... ... : ... .. . ... ... ...
ROW D1 : ... .. . ... ... ... : ... .. . ... ... ... : ... .. . ... ... ... : ... .. . ... ... ... : ... .. . ... ... ... : ... .. . ... ... ... : ... .. . ... ... ... : ... .. . ... ... ...
ROW D2 : ... .. . ... ... ... : ... .. . ... ... ... : ... .. . ... ... ... : ... .. . ... ... ... : ... .. . ... ... ... : ... .. . ... ... ... : ... .. . ... ... ... : ... .. . ... ... ...
ROW D3 : ... .. . ... ... ... : ... .. . ... ... ... : ... .. . ... ... ... : ... .. . ... ... ... : ... .. . ... ... ... : ... .. . ... ... ... : ... .. . ... ... ... : ... .. . ... ... ...
ROW D4 : ... .. . ... ... ... : ... .. . ... ... ... : ... .. . ... ... ... : ... .. . ... ... ... : ... .. . ... ... ... : ... .. . ... ... ... : ... .. . ... ... ... : ... .. . ... ... ...
ROW D5 : ... .. . ... ... ... : ... .. . ... ... ... : ... .. . ... ... ... : ... .. . ... ... ... : ... .. . ... ... ... : ... .. . ... ... ... : ... .. . ... ... ... : ... .. . ... ... ...
ROW D6 : ... .. . ... ... ... : ... .. . ... ... ... : ... .. . ... ... ... : ... .. . ... ... ... : ... .. . ... ... ... : ... .. . ... ... ... : ... .. . ... ... ... : ... .. . ... ... ...
ROW D7 : ... .. . ... ... ... : ... .. . ... ... ... : ... .. . ... ... ... : ... .. . ... ... ... : ... .. . ... ... ... : ... .. . ... ... ... : ... .. . ... ... ... : ... .. . ... ... ...
ROW D8 : G#2 00 D ... ... ... : ... .. . ... ... ... : C#5 00 . ... ... ... : A-# 00 C ... ... ... : C-1 0A . ... ... ... : A#3 03 2 ... ... ... : ... .. . ... ... ... : ... .. . ... ... ...
ROW D9 : ... .. C ... ... ... : ... .. . ... ... ... : ... .. . ... ... ... : ... .. B ... ... ... : ... .. . ... ... ... : ... .. . ... ... ... : ... .. . ... ... ... : ... .. . ... ... ...
ROW DA : D#3 00 A ... ... ... : ... .. . ... ... ... : ... .. . ... ... ... : ... .. 9 ... ... ... : ... .. . ... ... ... : ... .. . ... ... ... : ... .. . ... ... ... : ... .. . ... ... ...
ROW DB : G#2 00 8 ... ... ... : ... .. . ... ... ... : ... .. . ... ... ... : ... .. 8 ... ... ... : ... .. . ... ... ... : ... .. . ... ... ... : ... .. . ... ... ... : ... .. . ... ... ...
ROW DC : --- .. . ... ... ... : ... .. . ... ... ... : ... .. . ... ... ... : --- .. . ... ... ... : ... .. . ... ... ... : ... .. . ... ... ... : ... .. . ... ... ... : ... .. . ... ... ...
ROW DD : ... .. . ... ... ... : ... .. . ... ... ... : ... .. . ... ... ... : ... .. . ... ... ... : ... .. . ... ... ... : A#3 04 . ... ... ... : ... .. . ... ... ... : ... .. . ... ... ...
ROW DE : ... .. . ... ... ... : ... .. . ... ... ... : ... .. . P82 ... ... : ... .. . ... ... ... : ... .. . ... ... ... : B-3 03 3 ... ... ... : ... .. . ... ... ... : ... .. . ... ... ...
ROW DF : ... .. . ... ... ... : ... .. . ... ... ... : ... .. . P83 ... ... : ... .. . ... ... ... : ... .. . ... ... ... : ... .. . ... ... ... : ... .. . ... ... ... : ... .. . ... ... ...
ROW E0 : ... .. . ... ... ... : ... .. . ... ... ... : ... .. . ... ... ... : ... .. . ... ... ... : ... .. . ... ... ... : ... .. . ... ... ... : ... .. . ... ... ... : ... .. . ... ... ...
ROW E1 : ... .. . ... ... ... : ... .. . ... ... ... : ... .. . P81 ... ... : ... .. . ... ... ... : ... .. . ... ... ... : ... .. . ... ... ... : ... .. . ... ... ... : ... .. . ... ... ...
ROW E2 : ... .. . ... ... ... : ... .. . ... ... ... : ... .. . P7F ... ... : ... .. . ... ... ... : ... .. . ... ... ... : ... .. . ... ... ... : ... .. . ... ... ... : ... .. . ... ... ...
ROW E3 : ... .. . ... ... ... : ... .. . ... ... ... : C-5 00 . P83 ... ... : ... .. . ... ... ... : ... .. . ... ... ... : B-3 04 . ... ... ... : ... .. . ... ... ... : ... .. . ... ... ...
ROW E4 : B-2 00 D ... ... ... : G#2 00 7 ... ... ... : ... .. . ... ... ... : C-# 00 C ... ... ... : C-1 0A . ... ... ... : A#3 03 . ... ... ... : ... .. . ... ... ... : ... .. . ... ... ...
ROW E5 : ... .. C ... ... ... : ... .. 6 ... ... ... : C#5 00 . P7E ... ... : ... .. B ... ... ... : ... .. . ... ... ... : ... .. . ... ... ... : ... .. . ... ... ... : ... .. . ... ... ...
ROW E6 : F#3 00 A ... ... ... : D#3 00 5 ... ... ... : ... .. . P80 ... ... : ... .. 9 ... ... ... : ... .. . ... ... ... : ... .. . ... ... ... : ... .. . ... ... ... : ... .. . ... ... ...
ROW E7 : B-2 00 8 ... ... ... : G#2 00 4 ... ... ... : ... .. . P82 ... ... : ... .. 8 ... ... ... : ... .. . ... ... ... : ... .. . ... ... ... : ... .. . ... ... ... : ... .. . ... ... ...
ROW E8 : --- .. . ... ... ... : --- .. . ... ... ... : ... .. . P83 ... ... : --- .. . ... ... ... : ... .. . ... ... ... : ... .. . ... ... ... : ... .. . ... ... ... : ... .. . ... ... ...
ROW E9 : ... .. . ... ... ... : ... .. . ... ... ... : ... .. . ... ... ... : ... .. . ... ... ... : ... .. . ... ... ... : A#3 04 . ... ... ... : ... .. . ... ... ... : ... .. . ... ... ...
ROW EA : ... .. . ... ... ... : ... .. . ... ... ... : ... .. . P81 ... ... : ... .. . ... ... ... : ... .. . ... ... ... : B-3 03 4 ... ... ... : ... .. . ... ... ... : ... .. . ... ... ...
ROW EB : ... .. . ... ... ... : ... .. . ... ... ... : ... .. . P80 ... ... : ... .. . ... ... ... : ... .. . ... ... ... : ... .. . ... ... ... : ... .. . ... ... ... : ... .. . ... ... ...
ROW EC : ... .. . ... ... ... : ... .. . ... ... ... : C-5 00 . P83 ... ... : ... .. . ... ... ... : ... .. . ... ... ... : ... .. . ... ... ... : ... .. . ... ... ... : ... .. . ... ... ...
ROW ED : ... .. . ... ... ... : ... .. . ... ... ... : ... .. . ... ... ... : ... .. . ... ... ... : ... .. . ... ... ... : ... .. . ... ... ... : ... .. . ... ... ... : ... .. . ... ... ...
ROW EE : ... .. . ... ... ... : ... .. . ... ... ... : C#5 00 . P7E ... ... : ... .. . ... ... ... : ... .. . ... ... ... : ... .. . ... ... ... : ... .. . ... ... ... : ... .. . ... ... ...
ROW EF : ... .. . ... ... ... : ... .. . ... ... ... : ... .. . P80 ... ... : ... .. . ... ... ... : ... .. . ... ... ... : B-3 04 . ... ... ... : ... .. . ... ... ... : ... .. . ... ... ...
ROW F0 : B-3 00 D ... ... ... : B-2 00 7 ... ... ... : ... .. . P81 ... ... : C-# 00 C ... ... ... : D#1 0A . ... ... ... : A#3 03 5 ... ... ... : ... .. . ... ... ... : ... .. . ... ... ...
ROW F1 : ... .. C ... ... ... : ... .. 6 ... ... ... : ... .. . P83 ... ... : ... .. B ... ... ... : ... .. . ... ... ... : ... .. . ... ... ... : ... .. . ... ... ... : ... .. . ... ... ...
ROW F2 : F#4 00 A ... ... ... : F#3 00 5 ... ... ... : ... .. . ... ... ... : ... .. 9 ... ... ... : ... .. . ... ... ... : ... .. . ... ... ... : ... .. . ... ... ... : ... .. . ... ... ...
ROW F3 : B-3 00 8 ... ... ... : B-2 00 4 ... ... ... : ... .. . P81 ... ... : ... .. 8 ... ... ... : ... .. . ... ... ... : ... .. . ... ... ... : ... .. . ... ... ... : ... .. . ... ... ...
ROW F4 : --- .. . ... ... ... : --- .. . ... ... ... : ... .. . P80 ... ... : --- .. . ... ... ... : ... .. . ... ... ... : ... .. . ... ... ... : ... .. . ... ... ... : ... .. . ... ... ...
ROW F5 : ... .. . ... ... ... : ... .. . ... ... ... : ... .. . P7E ... ... : ... .. . ... ... ... : ... .. . ... ... ... : A#3 04 . ... ... ... : ... .. . ... ... ... : ... .. . ... ... ...
ROW F6 : ... .. . ... ... ... : ... .. . ... ... ... : C-5 00 . P83 ... ... : ... .. . ... ... ... : ... .. . ... ... ... : B-3 03 . ... ... ... : B-3 03 1 ... ... ... : ... .. . ... ... ...
ROW F7 : ... .. . ... ... ... : ... .. . ... ... ... : ... .. . ... ... ... : ... .. . ... ... ... : ... .. . ... ... ... : ... .. . ... ... ... : ... .. . ... ... ... : ... .. . ... ... ...
ROW F8 : ... .. . ... ... ... : ... .. . ... ... ... : C#5 00 . P80 ... ... : ... .. . ... ... ... : ... .. . ... ... ... : ... .. . ... ... ... : ... .. . ... ... ... : ... .. . ... ... ...
ROW F9 : ... .. . ... ... ... : ... .. . ... ... ... : ... .. . P81 ... ... : ... .. . ... ... ... : ... .. . ... ... ... : ... .. . ... ... ... : ... .. . ... ... ... : ... .. . ... ... ...
ROW FA : ... .. . ... ... ... : ... .. . ... ... ... : ... .. . P83 ... ... : ... .. . ... ... ... : ... .. . ... ... ... : ... .. . ... ... ... : ... .. . ... ... ... : ... .. . ... ... ...
ROW FB : ... .. . ... ... ... : ... .. . ... ... ... : ... .. . ... ... ... : ... .. . ... ... ... : ... .. . ... ... ... : B-3 04 . ... ... ... : B-3 04 . ... ... ... : ... .. . ... ... ...
ROW FC : ... .. . ... ... ... : B-3 00 7 ... ... ... : ... .. . P82 ... ... : C-# 00 C ... ... ... : ... .. . ... ... ... : A#3 03 . ... ... ... : A#3 03 2 ... ... ... : ... .. . ... ... ...
ROW FD : ... .. . ... ... ... : ... .. 6 ... ... ... : ... .. . P80 ... ... : ... .. B ... ... ... : ... .. . ... ... ... : ... .. . ... ... ... : ... .. . ... ... ... : ... .. . ... ... ...
ROW FE : ... .. . ... ... ... : F#4 00 5 ... ... ... : ... .. . P7E ... ... : ... .. 9 ... ... ... : ... .. . ... ... ... : ... .. . ... ... ... : ... .. . ... ... ... : ... .. . ... ... ...
ROW FF : ... .. . ... ... ... : B-3 00 4 ... ... ... : C-5 00 . P83 ... ... : ... .. 8 ... ... ... : ... .. . ... ... ... : ... .. . ... ... ... : ... .. . ... ... ... : ... .. . ... ... ...

PATTERN 01
ROW 00 : ... .. . ... ... ... : --- .. . ... ... ... : ... .. . ... ... ... : --- .. . ... ... ... : ... .. . ... ... ... : ... .. . ... ... ... : ... .. . ... ... ... : ... .. . ... ... ...
ROW 01 : ... .. . ... ... ... : ... .. . ... ... ... : C#5 00 . P7F ... ... : ... .. . ... ... ... : ... .. . ... ... ... : A#3 04 . ... ... ... : A#3 04 . ... ... ... : ... .. . ... ... ...
ROW 02 : ... .. . ... ... ... : ... .. . ... ... ... : ... .. . P81 ... ... : ... .. . ... ... ... : ... .. . ... ... ... : B-3 03 6 ... ... ... : B-3 03 3 ... ... ... : ... .. . ... ... ...
ROW 03 : ... .. . ... ... ... : ... .. . ... ... ... : ... .. . P83 ... ... : ... .. . ... ... ... : ... .. . ... ... ... : ... .. . ... ... ... : ... .. . ... ... ... : ... .. . ... ... ...
ROW 04 : ... .. . ... ... ... : ... .. . ... ... ... : ... .. . ... ... ... : ... .. . ... ... ... : ... .. . ... ... ... : ... .. . ... ... ... : ... .. . ... ... ... : ... .. . ... ... ...
ROW 05 : ... .. . ... ... ... : ... .. . ... ... ... : ... .. . P82 ... ... : ... .. . ... ... ... : ... .. . ... ... ... : ... .. . ... ... ... : ... .. . ... ... ... : ... .. . ... ... ...
ROW 06 : ... .. . ... ... ... : ... .. . ... ... ... : ... .. . P80 ... ... : ... .. . ... ... ... : ... .. . ... ... ... : ... .. . ... ... ... : ... .. . ... ... ... : ... .. . ... ... ...
ROW 07 : ... .. . ... ... ... : ... .. . ... ... ... : ... .. . P7E ... ... : ... .. . ... ... ... : ... .. . ... ... ... : B-3 04 . ... ... ... : B-3 04 . ... ... ... : ... .. . ... ... ...
ROW 08 : ... .. . ... ... ... : ... .. . ... ... ... : B-4 00 . P80 ... ... : A-# 00 A ... ... ... : D#1 0A . ... ... ... : A#3 03 7 ... ... ... : A#3 03 4 ... ... ... : ... .. . ... ... ...
ROW 09 : ... .. . ... ... ... : ... .. . ... ... ... : ... .. . ... ... ... : ... .. 9 ... ... ... : ... .. . ... ... ... : ... .. . ... ... ... : ... .. . ... ... ... : ... .. . ... ... ...
ROW 0A : ... .. . ... ... ... : ... .. . ... ... ... : ... .. . ... ... ... : ... .. 8 ... ... ... : ... .. . ... ... ... : ... .. . ... ... ... : ... .. . ... ... ... : ... .. . ... ... ...
ROW 0B : ... .. . ... ... ... : ... .. . ... ... ... : ... .. . ... ... ... : ... .. 6 ... ... ... : ... .. . ... ... ... : ... .. . ... ... ... : ... .. . ... ... ... : ... .. . ... ... ...
ROW 0C : ... .. . ... ... ... : ... .. . ... ... ... : ... .. . ... ... ... : --- .. . ... ... ... : ... .. . ... ... ... : ... .. . ... ... ... : ... .. . ... ... ... : ... .. . ... ... ...
ROW 0D : ... .. . ... ... ... : ... .. . ... ... ... : ... .. . ... ... ... : ... .. . ... ... ... : ... .. . ... ... ... : A#3 04 . ... ... ... : A#3 04 . ... ... ... : ... .. . ... ... ...
ROW 0E : ... .. . ... ... ... : ... .. . ... ... ... : ... .. . ... ... ... : ... .. . ... ... ... : ... .. . ... ... ... : B-3 03 8 ... ... ... : B-3 03 5 ... ... ... : ... .. . ... ... ...
ROW 0F : ... .. . ... ... ... : ... .. . ... ... ... : ... .. . ... ... ... : ... .. . ... ... ... : ... .. . ... ... ... : ... .. . ... ... ... : ... .. . ... ... ... : ... .. . ... ... ...
ROW 10 : ... .. . ... ... ... : ... .. . ... ... ... : ... .. . ... ... ... : ... .. . ... ... ... : ... .. . ... ... ... : ... .. . ... ... ... : ... .. . ... ... ... : ... .. . ... ... ...
ROW 11 : ... .. . ... ... ... : ... .. . ... ... ... : ... .. . ... ... ... : ... .. . ... ... ... : ... .. . ... ... ... : ... .. . ... ... ... : ... .. . ... ... ... : ... .. . ... ... ...
ROW 12 : ... .. . ... ... ... : ... .. . ... ... ... : ... .. . ... ... ... : ... .. . ... ... ... : ... .. . ... ... ... : ... .. . ... ... ... : ... .. . ... ... ... : ... .. . ... ... ...
ROW 13 : ... .. . ... ... ... : ... .. . ... ... ... : ... .. . ... ... ... : ... .. . ... ... ... : ... .. . ... ... ... : B-3 04 . ... ... ... : B-3 04 . ... ... ... : ... .. . ... ... ...
ROW 14 : G#3 00 D ... ... ... : ... .. . ... ... ... : A#4 00 . ... ... ... : C-# 00 A ... ... ... : ... .. . ... ... ... : A#3 03 9 ... ... ... : A#3 03 6 ... ... ... : ... .. . ... ... ...
ROW 15 : ... .. C ... ... ... : ... .. . ... ... ... : ... .. . ... ... ... : ... .. 9 ... ... ... : ... .. . ... ... ... : ... .. . ... ... ... : ... .. . ... ... ... : ... .. . ... ... ...
ROW 16 : D#4 00 A ... ... ... : ... .. . ... ... ... : ... .. . ... ... ... : ... .. 8 ... ... ... : ... .. . ... ... ... : ... .. . ... ... ... : ... .. . ... ... ... : ... .. . ... ... ...
ROW 17 : G#3 00 8 ... ... ... : ... .. . ... ... ... : ... .. . ... ... ... : ... .. 6 ... ... ... : ... .. . ... ... ... : ... .. . ... ... ... : ... .. . ... ... ... : ... .. . ... ... ...
ROW 18 : --- .. . ... ... ... : ... .. . ... ... ... : ... .. . ... ... ... : --- .. . ... ... ... : ... .. . ... ... ... : ... .. . ... ... ... : ... .. . ... ... ... : ... .. . ... ... ...
ROW 19 : ... .. . ... ... ... : ... .. . ... ... ... : ... .. . ... ... ... : ... .. . ... ... ... : ... .. . ... ... ... : A#3 04 . ... ... ... : A#3 04 . ... ... ... : ... .. . ... ... ...
ROW 1A : ... .. . ... ... ... : ... .. . ... ... ... : ... .. . ... ... ... : ... .. . ... ... ... : ... .. . ... ... ... : B-3 03 . ... ... ... : B-3 03 . ... ... ... : ... .. . ... ... ...
ROW 1B : ... .. . ... ... ... : ... .. . ... ... ... : ... .. . ... ... ... : ... .. . ... ... ... : ... .. . ... ... ... : ... .. . ... ... ... : ... .. . ... ... ... : ... .. . ... ... ...
ROW 1C : ... .. . ... ... ... : ... .. . ... ... ... : ... .. . ... ... ... : ... .. . ... ... ... : ... .. . ... ... ... : ... .. . ... ... ... : ... .. . ... ... ... : ... .. . ... ... ...
ROW 1D : ... .. . ... ... ... : ... .. . ... ... ... : ... .. . ... ... ... : ... .. . ... ... ... : ... .. . ... ... ... : ... .. . ... ... ... : ... .. . ... ... ... : ... .. . ... ... ...
ROW 1E : ... .. . ... ... ... : ... .. . ... ... ... : ... .. . ... ... ... : ... .. . ... ... ... : ... .. . ... ... ... : ... .. . ... ... ... : ... .. . ... ... ... : ... .. . ... ... ...
ROW 1F : ... .. . ... ... ... : ... .. . ... ... ... : ... .. . ... ... ... : ... .. . ... ... ... : ... .. . ... ... ... : B-3 04 . ... ... ... : B-3 04 . ... ... ... : ... .. . ... ... ...
ROW 20 : G-3 00 D ... ... ... : G#3 00 7 ... ... ... : G-4 00 . ... ... ... : A-# 00 C ... ... ... : C-1 0A . ... ... ... : A#3 03 A ... ... ... : A#3 03 7 ... ... ... : ... .. . ... ... ...
ROW 21 : ... .. C ... ... ... : ... .. 6 ... ... ... : ... .. . ... ... ... : ... .. B ... ... ... : ... .. . ... ... ... : ... .. . ... ... ... : ... .. . ... ... ... : ... .. . ... ... ...
ROW 22 : D-4 00 A ... ... ... : D#4 00 5 ... ... ... : ... .. . ... ... ... : ... .. 9 ... ... ... : ... .. . ... ... ... : ... .. . ... ... ... : ... .. . ... ... ... : ... .. . ... ... ...
ROW 23 : G-3 00 8 ... ... ... : G#3 00 4 ... ... ... : ... .. . ... ... ... : ... .. 8 ... ... ... : ... .. . ... ... ... : ... .. . ... ... ... : ... .. . ... ... ... : ... .. . ... ... ...
ROW 24 : --- .. . ... ... ... : --- .. . ... ... ... : ... .. . ... ... ... : --- .. . ... ... ... : ... .. . ... ... ... : ... .. . ... ... ... : ... .. . ... ... ... : ... .. . ... ... ...
ROW 25 : ... .. . ... ... ... : ... .. . ... ... ... : ... .. . ... ... ... : ... .. . ... ... ... : ... .. . ... ... ... : A#3 04 . ... ... ... : A#3 04 . ... ... ... : ... .. . ... ... ...
ROW 26 : ... .. . ... ... ... : ... .. . ... ... ... : ... .. . P82 ... ... : ... .. . ... ... ... : ... .. . ... ... ... : B-3 03 B ... ... ... : B-3 03 . ... ... ... : ... .. . ... ... ...
ROW 27 : ... .. . ... ... ... : ... .. . ... ... ... : ... .. . P83 ... ... : ... .. . ... ... ... : ... .. . ... ... ... : ... .. . ... ... ... : ... .. . ... ... ... : ... .. . ... ... ...
ROW 28 : ... .. . ... ... ... : ... .. . ... ... ... : ... .. . ... ... ... : ... .. . ... ... ... : ... .. . ... ... ... : ... .. . ... ... ... : ... .. . ... ... ... : ... .. . ... ... ...
ROW 29 : ... .. . ... ... ... : ... .. . ... ... ... : ... .. . P81 ... ... : ... .. . ... ... ... : ... .. . ... ... ... : ... .. . ... ... ... : ... .. . ... ... ... : ... .. . ... ... ...
ROW 2A : ... .. . ... ... ... : ... .. . ... ... ... : ... .. . P7F ... ... : ... .. . ... ... ... : ... .. . ... ... ... : ... .. . ... ... ... : ... .. . ... ... ... : ... .. . ... ... ...
ROW 2B : ... .. . ... ... ... : ... .. . ... ... ... : ... .. . P7D ... ... : ... .. . ... ... ... : ... .. . ... ... ... : B-3 04 . ... ... ... : B-3 04 . ... ... ... : ... .. . ... ... ...
ROW 2C : G#3 00 D ... ... ... : G-3 00 7 ... ... ... : ... .. . ... ... ... : C-# 00 C ... ... ... : C-1 0A . ... ... ... : A#3 03 C ... ... ... : A#3 03 . ... ... ... : ... .. . ... ... ...
ROW 2D : ... .. C ... ... ... : ... .. 6 ... ... ... : ... .. . P7E ... ... : ... .. B ... ... ... : ... .. . ... ... ... : ... .. . ... ... ... : ... .. . ... ... ... : ... .. . ... ... ...
ROW 2E : D#4 00 A ... ... ... : D-4 00 5 ... ... ... : ... .. . P80 ... ... : ... .. 9 ... ... ... : ... .. . ... ... ... : ... .. . ... ... ... : ... .. . ... ... ... : ... .. . ... ... ...
ROW 2F : G#3 00 8 ... ... ... : G-3 00 4 ... ... ... : ... .. . P82 ... ... : ... .. 8 ... ... ... : ... .. . ... ... ... : ... .. . ... ... ... : ... .. . ... ... ... : ... .. . ... ... ...
ROW 30 : --- .. . ... ... ... : --- .. . ... ... ... : ... .. . P83 ... ... : --- .. . ... ... ... : ... .. . ... ... ... : ... .. . ... ... ... : ... .. . ... ... ... : ... .. . ... ... ...
ROW 31 : ... .. . ... ... ... : ... .. . ... ... ... : ... .. . ... ... ... : ... .. . ... ... ... : ... .. . ... ... ... : A#3 04 . ... ... ... : A#3 04 . ... ... ... : ... .. . ... ... ...
ROW 32 : ... .. . ... ... ... : ... .. . ... ... ... : ... .. . P81 ... ... : ... .. . ... ... ... : ... .. . ... ... ... : B-3 03 D ... ... ... : B-3 03 . ... ... ... : ... .. . ... ... ...
ROW 33 : ... .. . ... ... ... : ... .. . ... ... ... : ... .. . P80 ... ... : ... .. . ... ... ... : ... .. . ... ... ... : ... .. . ... ... ... : ... .. . ... ... ... : ... .. . ... ... ...
ROW 34 : ... .. . ... ... ... : ... .. . ... ... ... : ... .. . P7D ... ... : ... .. . ... ... ... : ... .. . ... ... ... : ... .. . ... ... ... : ... .. . ... ... ... : ... .. . ... ... ...
ROW 35 : ... .. . ... ... ... : ... .. . ... ... ... : ... .. . ... ... ... : ... .. . ... ... ... : ... .. . ... ... ... : ... .. . ... ... ... : ... .. . ... ... ... : ... .. . ... ... ...
ROW 36 : ... .. . ... ... ... : ... .. . ... ... ... : ... .. . P7E ... ... : ... .. . ... ... ... : ... .. . ... ... ... : ... .. . ... ... ... : ... .. . ... ... ... : ... .. . ... ... ...
ROW 37 : ... .. . ... ... ... : ... .. . ... ... ... : ... .. . P80 ... ... : ... .. . ... ... ... : ... .. . ... ... ... : B-3 04 . ... ... ... : B-3 04 . ... ... ... : ... .. . ... ... ...
ROW 38 : A#3 00 D ... ... ... : G#3 00 7 ... ... ... : ... .. . P81 ... ... : C-# 00 C ... ... ... : C#1 0A . ... ... ... : A#3 03 . ... ... ... : A#3 03 . ... ... ... : ... .. . ... ... ...
ROW 39 : ... .. C ... ... ... : ... .. 6 ... ... ... : ... .. . P83 ... ... : ... .. B ... ... ... : ... .. . ... ... ... : ... .. . ... ... ... : ... .. . ... ... ... : ... .. . ... ... ...
ROW 3A : F-4 00 A ... ... ... : D#4 00 5 ... ... ... : ... .. . ... ... ... : ... .. 9 ... ... ... : ... .. . ... ... ... : ... .. . ... ... ... : ... .. . ... ... ... : ... .. . ... ... ...
ROW 3B : A#3 00 8 ... ... ... : G#3 00 4 ... ... ... : ... .. . P81 ... ... : ... .. 8 ... ... ... : ... .. . ... ... ... : ... .. . ... ... ... : ... .. . ... ... ... : ... .. . ... ... ...
ROW 3C : --- .. . ... ... ... : --- .. . ... ... ... : ... .. . P80 ... ... : --- .. . ... ... ... : ... .. . ... ... ... : ... .. . ... ... ... : ... .. . ... ... ... : ... .. . ... ... ...
ROW 3D : ... .. . ... ... ... : ... .. . ... ... ... : ... .. . P7E ... ... : ... .. . ... ... ... : ... .. . ... ... ... : A#3 04 . ... ... ... : A#3 04 . ... ... ... : ... .. . ... ... ...
ROW 3E : ... .. . ... ... ... : ... .. . ... ... ... : --- .. . ... ... ... : ... .. . ... ... ... : ... .. . ... ... ... : B-3 03 . ... ... ... : B-3 03 . ... ... ... : ... .. . ... ... ...
ROW 3F : ... .. . ... ... ... : ... .. . ... ... ... : ... .. . ... ... ... : ... .. . ... ... ... : ... .. . ... ... ... : ... .. . ... ... ... : ... .. . ... ... ... : ... .. . ... ... ...
ROW 40 : ... .. . ... ... ... : ... .. . ... ... ... : ... .. . ... ... ... : ... .. . ... ... ... : ... .. . ... ... ... : ... .. . ... ... ... : ... .. . ... ... ... : ... .. . ... ... ...
ROW 41 : ... .. . ... ... ... : ... .. . ... ... ... : ... .. . ... ... ... : ... .. . ... ... ... : ... .. . ... ... ... : ... .. . ... ... ... : ... .. . ... ... ... : ... .. . ... ... ...
ROW 42 : ... .. . ... ... ... : ... .. . ... ... ... : ... .. . ... ... ... : ... .. . ... ... ... : ... .. . ... ... ... : ... .. . ... ... ... : ... .. . ... ... ... : ... .. . ... ... ...
ROW 43 : ... .. . ... ... ... : ... .. . ... ... ... : ... .. . ... ... ... : ... .. . ... ... ... : ... .. . ... ... ... : B-3 04 . ... ... ... : B-3 04 . ... ... ... : ... .. . ... ... ...
ROW 44 : ... .. . ... ... ... : A#3 00 7 ... ... ... : G-4 00 . P80 ... ... : C-# 00 C ... ... ... : ... .. . ... ... ... : C#4 03 . ... ... ... : A#3 03 . ... ... ... : ... .. . ... ... ...
ROW 45 : ... .. . ... ... ... : ... .. 6 ... ... ... : ... .. . ... ... ... : ... .. B ... ... ... : ... .. . ... ... ... : ... .. . ... ... ... : ... .. . ... ... ... : ... .. . ... ... ...
ROW 46 : ... .. . ... ... ... : F-4 00 5 ... ... ... : ... .. . ... ... ... : ... .. 9 ... ... ... : ... .. . ... ... ... : ... .. . ... ... ... : ... .. . ... ... ... : ... .. . ... ... ...
ROW 47 : ... .. . ... ... ... : A#3 00 4 ... ... ... : ... .. . ... ... ... : ... .. 8 ... ... ... : ... .. . ... ... ... : ... .. . ... ... ... : ... .. . ... ... ... : D#2 03 1 P6B ... ...
ROW 48 : ... .. . ... ... ... : --- .. . ... ... ... : ... .. . ... ... ... : --- .. . ... ... ... : ... .. . ... ... ... : ... .. . ... ... ... : ... .. . ... ... ... : ... .. . P6F ... ...
ROW 49 : ... .. . ... ... ... : ... .. . ... ... ... : ... .. . ... ... ... : ... .. . ... ... ... : ... .. . ... ... ... : C#4 04 . ... ... ... : A#3 04 . ... ... ... : ... .. . P7A ... ...
ROW 4A : ... .. . ... ... ... : ... .. . ... ... ... : ... .. . ... ... ... : ... .. . ... ... ... : ... .. . ... ... ... : ... .. . ... ... ... : B-3 03 . ... ... ... : ... .. . P84 ... ...
ROW 4B : ... .. . ... ... ... : ... .. . ... ... ... : ... .. . ... ... ... : ... .. . ... ... ... : ... .. . ... ... ... : C#4 05 . ... ... ... : ... .. . ... ... ... : ... .. . P8F ... ...
ROW 4C : ... .. . ... ... ... : ... .. . ... ... ... : ... .. . ... ... ... : ... .. . ... ... ... : ... .. . ... ... ... : C#4 06 . ... ... ... : ... .. . ... ... ... : ... .. . P95 ... ...
ROW 4D : ... .. . ... ... ... : ... .. . ... ... ... : ... .. . ... ... ... : ... .. . ... ... ... : ... .. . ... ... ... : C#4 07 . ... ... ... : ... .. . ... ... ... : ... .. . P93 ... ...
ROW 4E : ... .. . ... ... ... : ... .. . ... ... ... : ... .. . ... ... ... : ... .. . ... ... ... : ... .. . ... ... ... : C#4 08 . ... ... ... : ... .. . ... ... ... : ... .. . P8A ... ...
ROW 4F : ... .. . ... ... ... : ... .. . ... ... ... : ... .. . ... ... ... : ... .. . ... ... ... : ... .. . ... ... ... : C#4 09 . ... ... ... : B-3 04 . ... ... ... : ... .. . P80 ... ...
ROW 50 : D#4 00 D ... ... ... : ... .. . ... ... ... : G#4 00 . ... ... ... : A-# 00 A ... ... ... : D-1 0A . ... ... ... : B-3 03 C ... ... ... : C#4 03 . ... ... ... : ... .. . P74 ... ...
ROW 51 : ... .. C ... ... ... : ... .. . ... ... ... : ... .. . ... ... ... : ... .. 9 ... ... ... : ... .. . ... ... ... : ... .. . ... ... ... : ... .. . ... ... ... : ... .. . P6C ... ...
ROW 52 : A#4 00 A ... ... ... : ... .. . ... ... ... : ... .. . ... ... ... : ... .. 8 ... ... ... : ... .. . ... ... ... : ... .. . ... ... ... : ... .. . ... ... ... : ... .. . P6B ... ...
ROW 53 : D#4 00 8 ... ... ... : ... .. . ... ... ... : ... .. . ... ... ... : ... .. 6 ... ... ... : ... .. . ... ... ... : ... .. . ... ... ... : ... .. . ... ... ... : ... .. . P73 ... ...
ROW 54 : --- .. . ... ... ... : ... .. . ... ... ... : ... .. . ... ... ... : --- .. . ... ... ... : ... .. . ... ... ... : ... .. . ... ... ... : ... .. . ... ... ... : ... .. . P7E ... ...
ROW 55 : ... .. . ... ... ... : ... .. . ... ... ... : ... .. . ... ... ... : ... .. . ... ... ... : ... .. . ... ... ... : B-3 04 . ... ... ... : C#4 04 . ... ... ... : ... .. . P88 ... ...
ROW 56 : ... .. . ... ... ... : ... .. . ... ... ... : --- .. . ... ... ... : ... .. . ... ... ... : ... .. . ... ... ... : ... .. . ... ... ... : ... .. . ... ... ... : ... .. . P92 ... ...
ROW 57 : ... .. . ... ... ... : ... .. . ... ... ... : ... .. . ... ... ... : ... .. . ... ... ... : ... .. . ... ... ... : B-3 05 . ... ... ... : C#4 05 . ... ... ... : ... .. 2 P95 ... ...
ROW 58 : ... .. . ... ... ... : ... .. . ... ... ... : ... .. . ... ... ... : ... .. . ... ... ... : ... .. . ... ... ... : B-3 06 . ... ... ... : C#4 06 . ... ... ... : ... .. . P91 ... ...
ROW 59 : ... .. . ... ... ... : ... .. . ... ... ... : ... .. . ... ... ... : ... .. . ... ... ... : ... .. . ... ... ... : B-3 07 . ... ... ... : C#4 07 . ... ... ... : ... .. . P86 ... ...
ROW 5A : ... .. . ... ... ... : ... .. . ... ... ... : ... .. . ... ... ... : ... .. . ... ... ... : ... .. . ... ... ... : B-3 08 . ... ... ... : C#4 08 . ... ... ... : ... .. . P7C ... ...
ROW 5B : ... .. . ... ... ... : ... .. . ... ... ... : ... .. . ... ... ... : ... .. . ... ... ... : ... .. . ... ... ... : B-3 09 . ... ... ... : C#4 09 . ... ... ... : ... .. . P71 ... ...
ROW 5C : ... .. . ... ... ... : D#4 00 7 ... ... ... : C#5 00 . ... ... ... : C-# 00 A ... ... ... : D#1 0A . ... ... ... : A#3 03 B ... ... ... : B-3 03 . ... ... ... : ... .. . P6B ... ...
ROW 5D : ... .. . ... ... ... : ... .. 6 ... ... ... : ... .. . ... ... ... : ... .. 9 ... ... ... : ... .. . ... ... ... : ... .. . ... ... ... : ... .. . ... ... ... : ... .. . P6D ... ...
ROW 5E : ... .. . ... ... ... : A#4 00 5 ... ... ... : ... .. . ... ... ... : ... .. 8 ... ... ... : ... .. . ... ... ... : ... .. . ... ... ... : ... .. . ... ... ... : ... .. . P76 ... ...
ROW 5F : ... .. . ... ... ... : D#4 00 4 ... ... ... : ... .. . ... ... ... : ... .. 6 ... ... ... : ... .. . ... ... ... : ... .. . ... ... ... : ... .. . ... ... ... : ... .. 3 P80 ... ...
ROW 60 : ... .. . ... ... ... : --- .. . ... ... ... : ... .. . ... ... ... : --- .. . ... ... ... : ... .. . ... ... ... : ... .. . ... ... ... : ... .. . ... ... ... : ... .. . P8C ... ...
ROW 61 : ... .. . ... ... ... : ... .. . ... ... ... : ... .. . ... ... ... : ... .. . ... ... ... : ... .. . ... ... ... : A#3 04 . ... ... ... : B-3 04 . ... ... ... : ... .. . P94 ... ...
ROW 62 : ... .. . ... ... ... : ... .. . ... ... ... : ... .. . ... ... ... : ... .. . ... ... ... : ... .. . ... ... ... : ... .. . ... ... ... : ... .. . ... ... ... : ... .. . P95 ... ...
ROW 63 : ... .. . ... ... ... : ... .. . ... ... ... : ... .. . ... ... ... : ... .. . ... ... ... : ... .. . ... ... ... : A#3 05 . ... ... ... : B-3 05 . ... ... ... : ... .. . P8D ... ...
ROW 64 : ... .. . ... ... ... : ... .. . ... ... ... : ... .. . ... ... ... : ... .. . ... ... ... : ... .. . ... ... ... : A#3 06 . ... ... ... : B-3 06 . ... ... ... : ... .. . P82 ... ...
ROW 65 : ... .. . ... ... ... : ... .. . ... ... ... : ... .. . ... ... ... : ... .. . ... ... ... : ... .. . ... ... ... : A#3 07 . ... ... ... : B-3 07 . ... ... ... : ... .. . P78 ... ...
ROW 66 : ... .. . ... ... ... : ... .. . ... ... ... : ... .. . ... ... ... : ... .. . ... ... ... : ... .. . ... ... ... : A#3 08 . ... ... ... : B-3 08 . ... ... ... : ... .. . P6E ... ...
ROW 67 : ... .. . ... ... ... : ... .. . ... ... ... : ... .. . ... ... ... : ... .. . ... ... ... : ... .. . ... ... ... : A#3 09 . ... ... ... : B-3 09 . ... ... ... : ... .. 4 P6B ... ...
ROW 68 : E-4 00 D ... ... ... : ... .. . ... ... ... : B-4 00 . ... ... ... : A-# 00 C ... ... ... : C-1 0A . ... ... ... : G-3 03 A ... ... ... : A#3 03 . ... ... ... : ... .. . P6F ... ...
ROW 69 : ... .. C ... ... ... : ... .. . ... ... ... : ... .. . ... ... ... : ... .. B ... ... ... : ... .. . ... ... ... : ... .. . ... ... ... : ... .. . ... ... ... : ... .. . P7A ... ...
ROW 6A : B-4 00 A ... ... ... : ... .. . ... ... ... : ... .. . ... ... ... : ... .. 9 ... ... ... : ... .. . ... ... ... : ... .. . ... ... ... : ... .. . ... ... ... : ... .. . P84 ... ...
ROW 6B : E-4 00 8 ... ... ... : ... .. . ... ... ... : ... .. . ... ... ... : ... .. 8 ... ... ... : ... .. . ... ... ... : ... .. . ... ... ... : ... .. . ... ... ... : ... .. . P8F ... ...
ROW 6C : --- .. . ... ... ... : ... .. . ... ... ... : ... .. . ... ... ... : --- .. . ... ... ... : ... .. . ... ... ... : ... .. . ... ... ... : ... .. . ... ... ... : ... .. . P95 ... ...
ROW 6D : ... .. . ... ... ... : ... .. . ... ... ... : ... .. . ... ... ... : ... .. . ... ... ... : ... .. . ... ... ... : G-3 04 . ... ... ... : A#3 04 . ... ... ... : ... .. . P93 ... ...
ROW 6E : ... .. . ... ... ... : ... .. . ... ... ... : ... .. . ... ... ... : ... .. . ... ... ... : ... .. . ... ... ... : ... .. . ... ... ... : ... .. . ... ... ... : ... .. . P8A ... ...
ROW 6F : ... .. . ... ... ... : ... .. . ... ... ... : ... .. . ... ... ... : ... .. . ... ... ... : ... .. . ... ... ... : G-3 05 . ... ... ... : A#3 05 . ... ... ... : ... .. . P80 ... ...
ROW 70 : ... .. . ... ... ... : ... .. . ... ... ... : ... .. . ... ... ... : ... .. . ... ... ... : ... .. . ... ... ... : G-3 06 . ... ... ... : A#3 06 . ... ... ... : ... .. . P74 ... ...
ROW 71 : ... .. . ... ... ... : ... .. . ... ... ... : ... .. . ... ... ... : ... .. . ... ... ... : ... .. . ... ... ... : G-3 07 . ... ... ... : A#3 07 . ... ... ... : ... .. . P6C ... ...
ROW 72 : ... .. . ... ... ... : ... .. . ... ... ... : ... .. . ... ... ... : ... .. . ... ... ... : ... .. . ... ... ... : G-3 08 . ... ... ... : A#3 08 . ... ... ... : ... .. . P6B ... ...
ROW 73 : ... .. . ... ... ... : ... .. . ... ... ... : ... .. . ... ... ... : ... .. . ... ... ... : ... .. . ... ... ... : G-3 09 . ... ... ... : A#3 09 . ... ... ... : ... .. . P73 ... ...
ROW 74 : D#4 00 D ... ... ... : E-4 00 7 ... ... ... : ... .. . ... ... ... : C-# 00 C ... ... ... : C-1 0A . ... ... ... : ... .. B ... ... ... : G-3 03 . ... ... ... : ... .. . P7E ... ...
ROW 75 : ... .. C ... ... ... : ... .. 6 ... ... ... : ... .. . ... ... ... : ... .. B ... ... ... : ... .. . ... ... ... : ... .. . ... ... ... : ... .. . ... ... ... : ... .. 5 P88 ... ...
ROW 76 : A#4 00 A ... ... ... : B-4 00 5 ... ... ... : ... .. . ... ... ... : ... .. 9 ... ... ... : ... .. . ... ... ... : ... .. . ... ... ... : ... .. . ... ... ... : ... .. . P92 ... ...
ROW 77 : D#4 00 8 ... ... ... : E-4 00 4 ... ... ... : ... .. . ... ... ... : ... .. 8 ... ... ... : ... .. . ... ... ... : ... .. . ... ... ... : ... .. . ... ... ... : ... .. . P95 ... ...
ROW 78 : --- .. . ... ... ... : --- .. . ... ... ... : ... .. . ... ... ... : --- .. . ... ... ... : ... .. . ... ... ... : ... .. . ... ... ... : ... .. . ... ... ... : ... .. . P91 ... ...
ROW 79 : ... .. . ... ... ... : ... .. . ... ... ... : ... .. . ... ... ... : ... .. . ... ... ... : ... .. . ... ... ... : ... .. . ... ... ... : G-3 04 . ... ... ... : ... .. . P86 ... ...
ROW 7A : ... .. . ... ... ... : ... .. . ... ... ... : ... .. . ... ... ... : ... .. . ... ... ... : ... .. . ... ... ... : ... .. A ... ... ... : ... .. . ... ... ... : ... .. . P7C ... ...
ROW 7B : ... .. . ... ... ... : ... .. . ... ... ... : ... .. . ... ... ... : ... .. . ... ... ... : ... .. . ... ... ... : ... .. . ... ... ... : G-3 05 . ... ... ... : ... .. . P71 ... ...
ROW 7C : ... .. . ... ... ... : ... .. . ... ... ... : ... .. . ... ... ... : ... .. . ... ... ... : ... .. . ... ... ... : ... .. . ... ... ... : G-3 06 . ... ... ... : ... .. . P6B ... ...
ROW 7D : ... .. . ... ... ... : ... .. . ... ... ... : ... .. . ... ... ... : ... .. . ... ... ... : ... .. . ... ... ... : ... .. . ... ... ... : G-3 07 . ... ... ... : ... .. . P6D ... ...
ROW 7E : ... .. . ... ... ... : ... .. . ... ... ... : ... .. . ... ... ... : ... .. . ... ... ... : ... .. . ... ... ... : ... .. 9 ... ... ... : G-3 08 . ... ... ... : ... .. . P76 ... ...
ROW 7F : ... .. . ... ... ... : ... .. . ... ... ... : ... .. . ... ... ... : ... .. . ... ... ... : ... .. . ... ... ... : ... .. . ... ... ... : G-3 09 . ... ... ... : ... .. . P80 ... ...
ROW 80 : C#4 00 D ... ... ... : D#4 00 7 ... ... ... : A#4 00 . ... ... ... : C-# 00 C ... ... ... : D#1 0A . ... ... ... : G#3 03 . ... ... ... : ... .. 6 ... ... ... : ... .. . P8C ... ...
ROW 81 : ... .. C ... ... ... : ... .. 6 ... ... ... : ... .. . ... ... ... : ... .. B ... ... ... : ... .. . ... ... ... : ... .. . ... ... ... : ... .. . ... ... ... : ... .. . P94 ... ...
ROW 82 : G#4 00 A ... ... ... : A#4 00 5 ... ... ... : ... .. . ... ... ... : ... .. 9 ... ... ... : ... .. . ... ... ... : ... .. . ... ... ... : ... .. . ... ... ... : ... .. . P95 ... ...
ROW 83 : C#4 00 8 ... ... ... : D#4 00 4 ... ... ... : ... .. . ... ... ... : ... .. 8 ... ... ... : ... .. . ... ... ... : ... .. . ... ... ... : ... .. . ... ... ... : ... .. . P8D ... ...
ROW 84 : --- .. . ... ... ... : --- .. . ... ... ... : ... .. . ... ... ... : --- .. . ... ... ... : ... .. . ... ... ... : ... .. 8 ... ... ... : ... .. . ... ... ... : ... .. . P82 ... ...
ROW 85 : ... .. . ... ... ... : ... .. . ... ... ... : ... .. . ... ... ... : ... .. . ... ... ... : ... .. . ... ... ... : G#3 04 . ... ... ... : ... .. . ... ... ... : ... .. 6 P78 ... ...
ROW 86 : ... .. . ... ... ... : ... .. . ... ... ... : ... .. . ... ... ... : ... .. . ... ... ... : ... .. . ... ... ... : G-3 03 . ... ... ... : ... .. . ... ... ... : ... .. . P6E ... ...
ROW 87 : ... .. . ... ... ... : ... .. . ... ... ... : ... .. . ... ... ... : ... .. . ... ... ... : ... .. . ... ... ... : ... .. . ... ... ... : ... .. 5 ... ... ... : ... .. . P6B ... ...
ROW 88 : ... .. . ... ... ... : ... .. . ... ... ... : ... .. . ... ... ... : ... .. . ... ... ... : ... .. . ... ... ... : ... .. . ... ... ... : ... .. . ... ... ... : G#1 03 4 P7D ... ...
ROW 89 : ... .. . ... ... ... : ... .. . ... ... ... : ... .. . ... ... ... : ... .. . ... ... ... : ... .. . ... ... ... : ... .. 7 ... ... ... : ... .. . ... ... ... : ... .. . P7F ... ...
ROW 8A : ... .. . ... ... ... : ... .. . ... ... ... : ... .. . ... ... ... : ... .. . ... ... ... : ... .. . ... ... ... : ... .. . ... ... ... : ... .. . ... ... ... : ... .. . P80 ... ...
ROW 8B : ... .. . ... ... ... : ... .. . ... ... ... : ... .. . ... ... ... : ... .. . ... ... ... : ... .. . ... ... ... : G-3 04 . ... ... ... : ... .. 4 ... ... ... : ... .. . P83 ... ...
ROW 8C : ... .. . ... ... ... : C#4 00 7 ... ... ... : ... .. . ... ... ... : C-# 00 C ... ... ... : ... .. . ... ... ... : G#3 03 . ... ... ... : G#3 03 . ... ... ... : ... .. . P84 ... ...
ROW 8D : ... .. . ... ... ... : ... .. 6 ... ... ... : ... .. . ... ... ... : ... .. B ... ... ... : ... .. . ... ... ... : ... .. . ... ... ... : ... .. . ... ... ... : ... .. . ... ... ...
ROW 8E : ... .. . ... ... ... : G#4 00 5 ... ... ... : ... .. . ... ... ... : ... .. 9 ... ... ... : ... .. . ... ... ... : ... .. 6 ... ... ... : ... .. . ... ... ... : ... .. . P82 ... ...
ROW 8F : ... .. . ... ... ... : C#4 00 4 ... ... ... : ... .. . ... ... ... : ... .. 8 ... ... ... : ... .. . ... ... ... : ... .. . ... ... ... : ... .. . ... ... ... : ... .. . P80 ... ...
ROW 90 : ... .. . ... ... ... : --- .. . ... ... ... : ... .. . ... ... ... : --- .. . ... ... ... : ... .. . ... ... ... : ... .. . ... ... ... : ... .. . ... ... ... : ... .. . P7E ... ...
ROW 91 : ... .. . ... ... ... : ... .. . ... ... ... : ... .. . ... ... ... : ... .. . ... ... ... : ... .. . ... ... ... : G#3 04 . ... ... ... : G#3 04 . ... ... ... : ... .. . P7C ... ...
ROW 92 : ... .. . ... ... ... : ... .. . ... ... ... : ... .. . ... ... ... : ... .. . ... ... ... : ... .. . ... ... ... : G-3 03 . ... ... ... : G-3 03 3 ... ... ... : ... .. . ... ... ...
ROW 93 : ... .. . ... ... ... : ... .. . ... ... ... : ... .. . ... ... ... : ... .. . ... ... ... : ... .. . ... ... ... : ... .. . ... ... ... : ... .. . ... ... ... : ... .. . P7D ... ...
ROW 94 : ... .. . ... ... ... : ... .. . ... ... ... : ... .. . ... ... ... : ... .. . ... ... ... : ... .. . ... ... ... : ... .. 5 ... ... ... : ... .. . ... ... ... : G#2 03 . P80 ... ...
ROW 95 : ... .. . ... ... ... : ... .. . ... ... ... : ... .. . ... ... ... : ... .. . ... ... ... : ... .. . ... ... ... : ... .. . ... ... ... : ... .. . ... ... ... : ... .. . P81 ... ...
ROW 96 : ... .. . ... ... ... : ... .. . ... ... ... : ... .. . ... ... ... : ... .. . ... ... ... : ... .. . ... ... ... : ... .. . ... ... ... : ... .. 2 ... ... ... : ... .. . P84 ... ...
ROW 97 : ... .. . ... ... ... : ... .. . ... ... ... : ... .. . ... ... ... : ... .. . ... ... ... : ... .. . ... ... ... : G-3 04 . ... ... ... : G-3 04 . ... ... ... : ... .. . ... ... ...
ROW 98 : ... .. . ... ... ... : ... .. . ... ... ... : ... .. . P7D ... ... : A-# 00 A ... ... ... : D#1 0A . ... ... ... : G#3 03 4 ... ... ... : G#3 03 . ... ... ... : ... .. . P83 ... ...
ROW 99 : ... .. . ... ... ... : ... .. . ... ... ... : A-4 00 . P81 ... ... : ... .. 9 ... ... ... : ... .. . ... ... ... : ... .. . ... ... ... : ... .. . ... ... ... : ... .. . P81 ... ...
ROW 9A : ... .. . ... ... ... : ... .. . ... ... ... : ... .. . P7E ... ... : ... .. 8 ... ... ... : ... .. . ... ... ... : ... .. . ... ... ... : ... .. . ... ... ... : ... .. . P80 ... ...
ROW 9B : ... .. . ... ... ... : ... .. . ... ... ... : G#4 00 . P83 ... ... : ... .. 6 ... ... ... : ... .. . ... ... ... : ... .. . ... ... ... : ... .. . ... ... ... : ... .. . P7D ... ...
ROW 9C : ... .. . ... ... ... : ... .. . ... ... ... : ... .. . P80 ... ... : --- .. . ... ... ... : ... .. . ... ... ... : ... .. . ... ... ... : ... .. 1 ... ... ... : ... .. . P7C ... ...
ROW 9D : ... .. . ... ... ... : ... .. . ... ... ... : ... .. . P7D ... ... : ... .. . ... ... ... : ... .. . ... ... ... : G#3 04 . ... ... ... : G#3 04 . ... ... ... : ... .. . ... ... ...
ROW 9E : ... .. . ... ... ... : ... .. . ... ... ... : --- .. . ... ... ... : ... .. . ... ... ... : ... .. . ... ... ... : G-3 03 . ... ... ... : G-3 03 . ... ... ... : ... .. . P7E ... ...
ROW 9F : ... .. . ... ... ... : ... .. . ... ... ... : ... .. . ... ... ... : ... .. . ... ... ... : ... .. . ... ... ... : ... .. 3 ... ... ... : ... .. . ... ... ... : ... .. . P80 ... ...
ROW A0 : ... .. . ... ... ... : ... .. . ... ... ... : ... .. . ... ... ... : ... .. . ... ... ... : ... .. . ... ... ... : ... .. . ... ... ... : ... .. . ... ... ... : G#1 03 5 P82 ... ...
ROW A1 : ... .. . ... ... ... : ... .. . ... ... ... : ... .. . ... ... ... : ... .. . ... ... ... : ... .. . ... ... ... : ... .. . ... ... ... : ... .. . ... ... ... : ... .. . P84 ... ...
ROW A2 : ... .. . ... ... ... : ... .. . ... ... ... : ... .. . ... ... ... : ... .. . ... ... ... : ... .. . ... ... ... : ... .. . ... ... ... : ... .. . ... ... ... : ... .. . ... ... ...
ROW A3 : ... .. . ... ... ... : ... .. . ... ... ... : ... .. . ... ... ... : ... .. . ... ... ... : ... .. . ... ... ... : G-3 04 2 ... ... ... : G-3 04 . ... ... ... : ... .. . P83 ... ...
ROW A4 : B-3 00 D ... ... ... : ... .. . ... ... ... : E-4 00 . P80 ... ... : C-# 00 A ... ... ... : ... .. . ... ... ... : G#3 03 . ... ... ... : G#3 03 . ... ... ... : ... .. . P80 ... ...
ROW A5 : ... .. C ... ... ... : ... .. . ... ... ... : ... .. . ... ... ... : ... .. 9 ... ... ... : ... .. . ... ... ... : ... .. 3 ... ... ... : ... .. . ... ... ... : ... .. . P7F ... ...
ROW A6 : F#4 00 A ... ... ... : ... .. . ... ... ... : ... .. . ... ... ... : ... .. 8 ... ... ... : ... .. . ... ... ... : ... .. . ... ... ... : ... .. . ... ... ... : ... .. . P7C ... ...
ROW A7 : B-3 00 8 ... ... ... : ... .. . ... ... ... : ... .. . ... ... ... : ... .. 6 ... ... ... : ... .. . ... ... ... : ... .. . ... ... ... : ... .. . ... ... ... : ... .. . ... ... ...
ROW A8 : --- .. . ... ... ... : ... .. . ... ... ... : ... .. . ... ... ... : --- .. . ... ... ... : ... .. . ... ... ... : ... .. . ... ... ... : ... .. . ... ... ... : ... .. . P7D ... ...
ROW A9 : ... .. . ... ... ... : ... .. . ... ... ... : ... .. . ... ... ... : ... .. . ... ... ... : ... .. . ... ... ... : G#3 04 . ... ... ... : G#3 04 . ... ... ... : ... .. . P7F ... ...
ROW AA : ... .. . ... ... ... : ... .. . ... ... ... : ... .. . ... ... ... : ... .. . ... ... ... : ... .. . ... ... ... : G-3 03 . ... ... ... : G-3 03 . ... ... ... : ... .. . P80 ... ...
ROW AB : ... .. . ... ... ... : ... .. . ... ... ... : ... .. . ... ... ... : ... .. . ... ... ... : ... .. . ... ... ... : ... .. . ... ... ... : ... .. . ... ... ... : ... .. . P83 ... ...
ROW AC : ... .. . ... ... ... : ... .. . ... ... ... : ... .. . ... ... ... : ... .. . ... ... ... : ... .. . ... ... ... : ... .. . ... ... ... : ... .. . ... ... ... : G#2 03 . P84 ... ...
ROW AD : ... .. . ... ... ... : ... .. . ... ... ... : ... .. . ... ... ... : ... .. . ... ... ... : ... .. . ... ... ... : ... .. 4 ... ... ... : --- .. . ... ... ... : ... .. . ... ... ...
ROW AE : ... .. . ... ... ... : ... .. . ... ... ... : ... .. . ... ... ... : ... .. . ... ... ... : ... .. . ... ... ... : ... .. . ... ... ... : ... .. . ... ... ... : ... .. . P82 ... ...
ROW AF : ... .. . ... ... ... : ... .. . ... ... ... : ... .. . ... ... ... : ... .. . ... ... ... : ... .. . ... ... ... : G-3 04 . ... ... ... : ... .. . ... ... ... : ... .. . P80 ... ...
ROW B0 : C#4 00 D ... ... ... : B-3 00 7 ... ... ... : D#4 00 . ... ... ... : A-# 00 C ... ... ... : C-1 0A . ... ... ... : G#3 03 . ... ... ... : G#3 03 . ... ... ... : ... .. . P7E ... ...
ROW B1 : ... .. C ... ... ... : ... .. 6 ... ... ... : ... .. . ... ... ... : ... .. B ... ... ... : ... .. . ... ... ... : ... .. . ... ... ... : ... .. . ... ... ... : ... .. . P7C ... ...
ROW B2 : G#4 00 A ... ... ... : F#4 00 5 ... ... ... : ... .. . ... ... ... : ... .. 9 ... ... ... : ... .. . ... ... ... : ... .. . ... ... ... : ... .. . ... ... ... : ... .. . ... ... ...
ROW B3 : C#4 00 8 ... ... ... : B-3 00 4 ... ... ... : ... .. . ... ... ... : ... .. 8 ... ... ... : ... .. . ... ... ... : ... .. . ... ... ... : ... .. . ... ... ... : ... .. . P7D ... ...
ROW B4 : --- .. . ... ... ... : --- .. . ... ... ... : ... .. . ... ... ... : --- .. . ... ... ... : ... .. . ... ... ... : ... .. . ... ... ... : ... .. . ... ... ... : ... .. . P80 ... ...
ROW B5 : ... .. . ... ... ... : ... .. . ... ... ... : ... .. . ... ... ... : ... .. . ... ... ... : ... .. . ... ... ... : G#3 04 5 ... ... ... : G#3 04 . ... ... ... : ... .. . P81 ... ...
ROW B6 : ... .. . ... ... ... : ... .. . ... ... ... : ... .. . ... ... ... : ... .. . ... ... ... : ... .. . ... ... ... : G-3 03 . ... ... ... : G-3 03 . ... ... ... : ... .. . P84 ... ...
ROW B7 : ... .. . ... ... ... : ... .. . ... ... ... : ... .. . ... ... ... : ... .. . ... ... ... : ... .. . ... ... ... : ... .. . ... ... ... : ... .. . ... ... ... : ... .. . ... ... ...
ROW B8 : ... .. . ... ... ... : ... .. . ... ... ... : ... .. . ... ... ... : ... .. . ... ... ... : ... .. . ... ... ... : ... .. . ... ... ... : ... .. . ... ... ... : G#1 03 4 P83 ... ...
ROW B9 : ... .. . ... ... ... : ... .. . ... ... ... : ... .. . ... ... ... : ... .. . ... ... ... : ... .. . ... ... ... : ... .. . ... ... ... : ... .. . ... ... ... : ... .. . P81 ... ...
ROW BA : ... .. . ... ... ... : ... .. . ... ... ... : ... .. . ... ... ... : ... .. . ... ... ... : ... .. . ... ... ... : ... .. . ... ... ... : ... .. . ... ... ... : ... .. . P80 ... ...
ROW BB : ... .. . ... ... ... : ... .. . ... ... ... : ... .. . ... ... ... : ... .. . ... ... ... : ... .. . ... ... ... : G-3 04 . ... ... ... : G-3 04 . ... ... ... : ... .. . P7D ... ...
ROW BC : D#4 00 D ... ... ... : C#4 00 7 ... ... ... : E-4 00 . ... ... ... : C-# 00 C ... ... ... : C-1 0A . ... ... ... : G#3 03 . ... ... ... : G#3 03 . ... ... ... : ... .. . P7C ... ...
ROW BD : ... .. C ... ... ... : ... .. 6 ... ... ... : ... .. . ... ... ... : ... .. B ... ... ... : ... .. . ... ... ... : ... .. 6 ... ... ... : ... .. 2 ... ... ... : ... .. . ... ... ...
ROW BE : A#4 00 A ... ... ... : G#4 00 5 ... ... ... : ... .. . ... ... ... : ... .. 9 ... ... ... : ... .. . ... ... ... : ... .. . ... ... ... : ... .. . ... ... ... : ... .. . P7E ... ...
ROW BF : D#4 00 8 ... ... ... : C#4 00 4 ... ... ... : ... .. . ... ... ... : ... .. 8 ... ... ... : ... .. . ... ... ... : ... .. . ... ... ... : ... .. . ... ... ... : ... .. . P80 ... ...
ROW C0 : --- .. . ... ... ... : --- .. . ... ... ... : ... .. . ... ... ... : --- .. . ... ... ... : ... .. . ... ... ... : ... .. . ... ... ... : ... .. . ... ... ... : ... .. . P82 ... ...
ROW C1 : ... .. . ... ... ... : ... .. . ... ... ... : ... .. . ... ... ... : ... .. . ... ... ... : ... .. . ... ... ... : G#3 04 . ... ... ... : G#3 04 . ... ... ... : ... .. . P84 ... ...
ROW C2 : ... .. . ... ... ... : ... .. . ... ... ... : ... .. . ... ... ... : ... .. . ... ... ... : ... .. . ... ... ... : G-3 03 . ... ... ... : G-3 03 . ... ... ... : ... .. . ... ... ...
ROW C3 : ... .. . ... ... ... : ... .. . ... ... ... : ... .. . ... ... ... : ... .. . ... ... ... : ... .. . ... ... ... : ... .. . ... ... ... : ... .. . ... ... ... : ... .. . P83 ... ...
ROW C4 : ... .. . ... ... ... : ... .. . ... ... ... : ... .. . ... ... ... : ... .. . ... ... ... : ... .. . ... ... ... : ... .. . ... ... ... : ... .. . ... ... ... : G#2 03 . P80 ... ...
ROW C5 : ... .. . ... ... ... : ... .. . ... ... ... : ... .. . ... ... ... : ... .. . ... ... ... : ... .. . ... ... ... : ... .. 7 ... ... ... : ... .. 3 ... ... ... : ... .. . P7F ... ...
ROW C6 : ... .. . ... ... ... : ... .. . ... ... ... : ... .. . ... ... ... : ... .. . ... ... ... : ... .. . ... ... ... : ... .. . ... ... ... : ... .. . ... ... ... : ... .. . P7C ... ...
ROW C7 : ... .. . ... ... ... : ... .. . ... ... ... : ... .. . ... ... ... : ... .. . ... ... ... : ... .. . ... ... ... : G-3 04 . ... ... ... : G-3 04 . ... ... ... : ... .. . ... ... ...
ROW C8 : B-3 00 D ... ... ... : D#4 00 7 ... ... ... : D#4 00 . ... ... ... : C-# 00 C ... ... ... : C#1 0A . ... ... ... : G#3 03 A ... ... ... : G#3 03 . ... ... ... : ... .. . P7D ... ...
ROW C9 : ... .. C ... ... ... : ... .. 6 ... ... ... : ... .. . ... ... ... : ... .. B ... ... ... : ... .. . ... ... ... : ... .. . ... ... ... : ... .. . ... ... ... : ... .. . P7F ... ...
ROW CA : F#4 00 A ... ... ... : A#4 00 5 ... ... ... : ... .. . ... ... ... : ... .. 9 ... ... ... : ... .. . ... ... ... : ... .. . ... ... ... : ... .. . ... ... ... : ... .. . P80 ... ...
ROW CB : B-3 00 8 ... ... ... : D#4 00 4 ... ... ... : ... .. . ... ... ... : ... .. 8 ... ... ... : ... .. . ... ... ... : ... .. . ... ... ... : ... .. . ... ... ... : ... .. . P83 ... ...
ROW CC : --- .. . ... ... ... : --- .. . ... ... ... : ... .. . ... ... ... : --- .. . ... ... ... : ... .. . ... ... ... : ... .. . ... ... ... : ... .. . ... ... ... : ... .. . P84 ... ...
ROW CD : ... .. . ... ... ... : ... .. . ... ... ... : ... .. . ... ... ... : ... .. . ... ... ... : ... .. . ... ... ... : G#3 04 . ... ... ... : G#3 04 4 ... ... ... : ... .. . ... ... ...
ROW CE : ... .. . ... ... ... : ... .. . ... ... ... : ... .. . ... ... ... : ... .. . ... ... ... : ... .. . ... ... ... : ... .. . ... ... ... : G-3 03 . ... ... ... : ... .. . P82 ... ...
ROW CF : ... .. . ... ... ... : ... .. . ... ... ... : ... .. . ... ... ... : ... .. . ... ... ... : ... .. . ... ... ... : G#3 05 . ... ... ... : ... .. . ... ... ... : ... .. . P80 ... ...
ROW D0 : ... .. . ... ... ... : ... .. . ... ... ... : ... .. . ... ... ... : ... .. . ... ... ... : ... .. . ... ... ... : G#3 06 . ... ... ... : ... .. . ... ... ... : G#1 03 . P7E ... ...
ROW D1 : ... .. . ... ... ... : ... .. . ... ... ... : ... .. . ... ... ... : ... .. . ... ... ... : ... .. . ... ... ... : G#3 07 . ... ... ... : ... .. . ... ... ... : ... .. . P7C ... ...
ROW D2 : ... .. . ... ... ... : ... .. . ... ... ... : ... .. . ... ... ... : ... .. . ... ... ... : ... .. . ... ... ... : G#3 08 . ... ... ... : ... .. . ... ... ... : ... .. . ... ... ...
ROW D3 : ... .. . ... ... ... : ... .. . ... ... ... : ... .. . ... ... ... : ... .. . ... ... ... : ... .. . ... ... ... : G#3 09 . ... ... ... : G-3 04 . ... ... ... : ... .. . P7D ... ...
ROW D4 : ... .. . ... ... ... : B-3 00 7 ... ... ... : E-4 00 . ... ... ... : C-# 00 C ... ... ... : ... .. . ... ... ... : A#3 03 . ... ... ... : G#3 03 5 ... ... ... : ... .. . P80 ... ...
ROW D5 : ... .. . ... ... ... : ... .. 6 ... ... ... : ... .. . ... ... ... : ... .. B ... ... ... : ... .. . ... ... ... : ... .. . ... ... ... : ... .. . ... ... ... : ... .. . P81 ... ...
ROW D6 : ... .. . ... ... ... : F#4 00 5 ... ... ... : ... .. . ... ... ... : ... .. 9 ... ... ... : ... .. . ... ... ... : ... .. . ... ... ... : ... .. . ... ... ... : ... .. . P84 ... ...
ROW D7 : ... .. . ... ... ... : B-3 00 4 ... ... ... : ... .. . ... ... ... : ... .. 8 ... ... ... : ... .. . ... ... ... : ... .. . ... ... ... : ... .. . ... ... ... : ... .. . ... ... ...
ROW D8 : ... .. . ... ... ... : --- .. . ... ... ... : ... .. . ... ... ... : --- .. . ... ... ... : ... .. . ... ... ... : ... .. . ... ... ... : ... .. . ... ... ... : ... .. . P83 ... ...
ROW D9 : ... .. . ... ... ... : ... .. . ... ... ... : ... .. . ... ... ... : ... .. . ... ... ... : ... .. . ... ... ... : A#3 04 . ... ... ... : G#3 04 . ... ... ... : ... .. . P81 ... ...
ROW DA : ... .. . ... ... ... : ... .. . ... ... ... : ... .. . ... ... ... : ... .. . ... ... ... : ... .. . ... ... ... : ... .. . ... ... ... : ... .. . ... ... ... : ... .. . P80 ... ...
ROW DB : ... .. . ... ... ... : ... .. . ... ... ... : ... .. . ... ... ... : ... .. . ... ... ... : ... .. . ... ... ... : A#3 05 . ... ... ... : G#3 05 . ... ... ... : ... .. . P7D ... ...
ROW DC : ... .. . ... ... ... : ... .. . ... ... ... : ... .. . ... ... ... : ... .. . ... ... ... : ... .. . ... ... ... : A#3 06 . ... ... ... : G#3 06 . ... ... ... : G#2 03 . P7C ... ...
ROW DD : ... .. . ... ... ... : ... .. . ... ... ... : ... .. . ... ... ... : ... .. . ... ... ... : ... .. . ... ... ... : A#3 07 . ... ... ... : G#3 07 . ... ... ... : ... .. . ... ... ...
ROW DE : ... .. . ... ... ... : ... .. . ... ... ... : ... .. . ... ... ... : ... .. . ... ... ... : ... .. . ... ... ... : A#3 08 . ... ... ... : G#3 08 . ... ... ... : ... .. . P7E ... ...
ROW DF : ... .. . ... ... ... : ... .. . ... ... ... : ... .. . ... ... ... : ... .. . ... ... ... : ... .. . ... ... ... : A#3 09 . ... ... ... : G#3 09 . ... ... ... : ... .. . P80 ... ...
ROW E0 : A#3 00 D ... ... ... : ... .. . ... ... ... : D#4 00 . ... ... ... : A-# 00 A ... ... ... : D-1 0A . ... ... ... : B-3 03 . ... ... ... : A#3 03 . ... ... ... : ... .. . P82 ... ...
ROW E1 : ... .. C ... ... ... : ... .. . ... ... ... : ... .. . ... ... ... : ... .. 9 ... ... ... : ... .. . ... ... ... : ... .. . ... ... ... : ... .. . ... ... ... : ... .. . P84 ... ...
ROW E2 : F-4 00 A ... ... ... : ... .. . ... ... ... : ... .. . ... ... ... : ... .. 8 ... ... ... : ... .. . ... ... ... : ... .. . ... ... ... : ... .. . ... ... ... : ... .. . ... ... ...
ROW E3 : A#3 00 8 ... ... ... : ... .. . ... ... ... : ... .. . ... ... ... : ... .. 6 ... ... ... : ... .. . ... ... ... : ... .. . ... ... ... : ... .. . ... ... ... : ... .. . P83 ... ...
ROW E4 : --- .. . ... ... ... : ... .. . ... ... ... : ... .. . ... ... ... : --- .. . ... ... ... : ... .. . ... ... ... : ... .. . ... ... ... : ... .. . ... ... ... : ... .. . P80 ... ...
ROW E5 : ... .. . ... ... ... : ... .. . ... ... ... : ... .. . ... ... ... : ... .. . ... ... ... : ... .. . ... ... ... : B-3 04 . ... ... ... : A#3 04 . ... ... ... : ... .. . P7F ... ...
ROW E6 : ... .. . ... ... ... : ... .. . ... ... ... : ... .. . ... ... ... : ... .. . ... ... ... : ... .. . ... ... ... : ... .. . ... ... ... : ... .. . ... ... ... : ... .. . P7C ... ...
ROW E7 : ... .. . ... ... ... : ... .. . ... ... ... : ... .. . ... ... ... : ... .. . ... ... ... : ... .. . ... ... ... : B-3 05 . ... ... ... : A#3 05 . ... ... ... : ... .. . ... ... ...
ROW E8 : ... .. . ... ... ... : ... .. . ... ... ... : ... .. . ... ... ... : ... .. . ... ... ... : ... .. . ... ... ... : B-3 06 . ... ... ... : A#3 06 . ... ... ... : G-1 03 . P7D ... ...
ROW E9 : ... .. . ... ... ... : ... .. . ... ... ... : ... .. . ... ... ... : ... .. . ... ... ... : ... .. . ... ... ... : B-3 07 . ... ... ... : A#3 07 . ... ... ... : ... .. . P7F ... ...
ROW EA : ... .. . ... ... ... : ... .. . ... ... ... : ... .. . ... ... ... : ... .. . ... ... ... : ... .. . ... ... ... : B-3 08 . ... ... ... : A#3 08 . ... ... ... : ... .. . P80 ... ...
ROW EB : ... .. . ... ... ... : ... .. . ... ... ... : ... .. . ... ... ... : ... .. . ... ... ... : ... .. . ... ... ... : B-3 09 . ... ... ... : A#3 09 . ... ... ... : ... .. . P83 ... ...
ROW EC : ... .. . ... ... ... : A#3 00 7 ... ... ... : E-4 00 . ... ... ... : C-# 00 A ... ... ... : D#1 0A . ... ... ... : A#3 03 . ... ... ... : B-3 03 . ... ... ... : ... .. . P84 ... ...
ROW ED : ... .. . ... ... ... : ... .. 6 ... ... ... : ... .. . ... ... ... : ... .. 9 ... ... ... : ... .. . ... ... ... : ... .. . ... ... ... : ... .. . ... ... ... : ... .. . ... ... ...
ROW EE : ... .. . ... ... ... : F-4 00 5 ... ... ... : ... .. . ... ... ... : ... .. 8 ... ... ... : ... .. . ... ... ... : ... .. . ... ... ... : ... .. . ... ... ... : ... .. . P82 ... ...
ROW EF : ... .. . ... ... ... : A#3 00 4 ... ... ... : ... .. . ... ... ... : ... .. 6 ... ... ... : ... .. . ... ... ... : ... .. . ... ... ... : ... .. . ... ... ... : ... .. . P80 ... ...
ROW F0 : ... .. . ... ... ... : --- .. . ... ... ... : ... .. . ... ... ... : --- .. . ... ... ... : ... .. . ... ... ... : ... .. . ... ... ... : ... .. . ... ... ... : ... .. . P7E ... ...
ROW F1 : ... .. . ... ... ... : ... .. . ... ... ... : ... .. . ... ... ... : ... .. . ... ... ... : ... .. . ... ... ... : A#3 04 . ... ... ... : B-3 04 . ... ... ... : ... .. . P7C ... ...
ROW F2 : ... .. . ... ... ... : ... .. . ... ... ... : ... .. . ... ... ... : ... .. . ... ... ... : ... .. . ... ... ... : ... .. . ... ... ... : ... .. . ... ... ... : ... .. . ... ... ...
ROW F3 : ... .. . ... ... ... : ... .. . ... ... ... : ... .. . ... ... ... : ... .. . ... ... ... : ... .. . ... ... ... : A#3 05 . ... ... ... : B-3 05 . ... ... ... : ... .. . P7D ... ...
ROW F4 : ... .. . ... ... ... : ... .. . ... ... ... : ... .. . ... ... ... : ... .. . ... ... ... : ... .. . ... ... ... : A#3 06 . ... ... ... : B-3 06 . ... ... ... : G-2 03 . P80 ... ...
ROW F5 : ... .. . ... ... ... : ... .. . ... ... ... : ... .. . ... ... ... : ... .. . ... ... ... : ... .. . ... ... ... : A#3 07 . ... ... ... : B-3 07 . ... ... ... : ... .. . P81 ... ...
ROW F6 : ... .. . ... ... ... : ... .. . ... ... ... : ... .. . ... ... ... : ... .. . ... ... ... : ... .. . ... ... ... : A#3 08 . ... ... ... : B-3 08 . ... ... ... : ... .. . P84 ... ...
ROW F7 : ... .. . ... ... ... : ... .. . ... ... ... : ... .. . ... ... ... : ... .. . ... ... ... : ... .. . ... ... ... : A#3 09 . ... ... ... : B-3 09 . ... ... ... : ... .. . ... ... ...
ROW F8 : B-3 00 D ... ... ... : ... .. . ... ... ... : G-4 00 . ... ... ... : A-# 00 C ... ... ... : C-1 0A . ... ... ... : G#3 03 . ... ... ... : A#3 03 . ... ... ... : ... .. . P83 ... ...
ROW F9 : ... .. C ... ... ... : ... .. . ... ... ... : ... .. . ... ... ... : ... .. B ... ... ... : ... .. . ... ... ... : ... .. . ... ... ... : ... .. . ... ... ... : ... .. . P81 ... ...
ROW FA : F#4 00 A ... ... ... : ... .. . ... ... ... : ... .. . ... ... ... : ... .. 9 ... ... ... : ... .. . ... ... ... : ... .. . ... ... ... : ... .. . ... ... ... : ... .. . P80 ... ...
ROW FB : B-3 00 8 ... ... ... : ... .. . ... ... ... : ... .. . ... ... ... : ... .. 8 ... ... ... : ... .. . ... ... ... : ... .. . ... ... ... : ... .. . ... ... ... : ... .. . P7D ... ...
ROW FC : --- .. . ... ... ... : ... .. . ... ... ... : ... .. . ... ... ... : --- .. . ... ... ... : ... .. . ... ... ... : ... .. . ... ... ... : ... .. . ... ... ... : ... .. . P7C ... ...
ROW FD : ... .. . ... ... ... : ... .. . ... ... ... : ... .. . ... ... ... : ... .. . ... ... ... : ... .. . ... ... ... : G#3 04 . ... ... ... : A#3 04 . ... ... ... : ... .. . ... ... ...
ROW FE : ... .. . ... ... ... : ... .. . ... ... ... : ... .. . ... ... ... : ... .. . ... ... ... : ... .. . ... ... ... : ... .. . ... ... ... : ... .. . ... ... ... : ... .. . P7E ... ...
ROW FF : ... .. . ... ... ... : ... .. . ... ... ... : ... .. . ... ... ... : ... .. . ... ... ... : ... .. . ... ... ... : G#3 05 . ... ... ... : A#3 05 . ... ... ... : ... .. . P80 ... ...

PATTERN 02
ROW 00 : ... .. . ... ... ... : ... .. . ... ... ... : ... .. . ... ... ... : ... .. . ... ... ... : ... .. . ... ... ... : G#3 06 . ... ... ... : A#3 06 . ... ... ... : G-1 03 . P82 ... ...
ROW 01 : ... .. . ... ... ... : ... .. . ... ... ... : ... .. . ... ... ... : ... .. . ... ... ... : ... .. . ... ... ... : G#3 07 . ... ... ... : A#3 07 . ... ... ... : ... .. . P84 ... ...
ROW 02 : ... .. . ... ... ... : ... .. . ... ... ... : ... .. . ... ... ... : ... .. . ... ... ... : ... .. . ... ... ... : G#3 08 . ... ... ... : A#3 08 . ... ... ... : ... .. . ... ... ...
ROW 03 : ... .. . ... ... ... : ... .. . ... ... ... : ... .. . ... ... ... : ... .. . ... ... ... : ... .. . ... ... ... : G#3 09 . ... ... ... : A#3 09 . ... ... ... : ... .. . P83 ... ...
ROW 04 : G#3 00 D ... ... ... : B-3 00 7 ... ... ... : G#4 00 . ... ... ... : C-# 00 C ... ... ... : C-1 0A . ... ... ... : G-3 03 . ... ... ... : G#3 03 . ... ... ... : ... .. . P80 ... ...
ROW 05 : ... .. C ... ... ... : ... .. 6 ... ... ... : ... .. . ... ... ... : ... .. B ... ... ... : ... .. . ... ... ... : ... .. . ... ... ... : ... .. . ... ... ... : ... .. . P7F ... ...
ROW 06 : D#4 00 A ... ... ... : F#4 00 5 ... ... ... : ... .. . ... ... ... : ... .. 9 ... ... ... : ... .. . ... ... ... : ... .. . ... ... ... : ... .. . ... ... ... : ... .. . P7C ... ...
ROW 07 : G#3 00 8 ... ... ... : B-3 00 4 ... ... ... : ... .. . ... ... ... : ... .. 8 ... ... ... : ... .. . ... ... ... : ... .. . ... ... ... : ... .. . ... ... ... : ... .. . ... ... ...
ROW 08 : --- .. . ... ... ... : --- .. . ... ... ... : ... .. . ... ... ... : --- .. . ... ... ... : ... .. . ... ... ... : ... .. . ... ... ... : ... .. . ... ... ... : ... .. . P7D ... ...
ROW 09 : ... .. . ... ... ... : ... .. . ... ... ... : ... .. . ... ... ... : ... .. . ... ... ... : ... .. . ... ... ... : G-3 04 . ... ... ... : G#3 04 . ... ... ... : ... .. . P7F ... ...
ROW 0A : ... .. . ... ... ... : ... .. . ... ... ... : ... .. . ... ... ... : ... .. . ... ... ... : ... .. . ... ... ... : ... .. . ... ... ... : ... .. . ... ... ... : ... .. . P80 ... ...
ROW 0B : ... .. . ... ... ... : ... .. . ... ... ... : ... .. . ... ... ... : ... .. . ... ... ... : ... .. . ... ... ... : G-3 05 . ... ... ... : G#3 05 . ... ... ... : ... .. . P83 ... ...
ROW 0C : ... .. . ... ... ... : ... .. . ... ... ... : ... .. . ... ... ... : ... .. . ... ... ... : ... .. . ... ... ... : G-3 06 . ... ... ... : G#3 06 . ... ... ... : G-2 03 . P84 ... ...
ROW 0D : ... .. . ... ... ... : ... .. . ... ... ... : ... .. . ... ... ... : ... .. . ... ... ... : ... .. . ... ... ... : G-3 07 . ... ... ... : G#3 07 . ... ... ... : ... .. . ... ... ...
ROW 0E : ... .. . ... ... ... : ... .. . ... ... ... : ... .. . ... ... ... : ... .. . ... ... ... : ... .. . ... ... ... : G-3 08 . ... ... ... : G#3 08 . ... ... ... : ... .. . P82 ... ...
ROW 0F : ... .. . ... ... ... : ... .. . ... ... ... : ... .. . ... ... ... : ... .. . ... ... ... : ... .. . ... ... ... : G-3 09 . ... ... ... : G#3 09 . ... ... ... : ... .. . P80 ... ...
ROW 10 : G-3 00 D ... ... ... : G#3 00 7 ... ... ... : A#4 00 . ... ... ... : C-# 00 C ... ... ... : D#1 0A . ... ... ... : D#3 03 . ... ... ... : G-3 03 . ... ... ... : ... .. . P7E ... ...
ROW 11 : ... .. C ... ... ... : ... .. 6 ... ... ... : ... .. . ... ... ... : ... .. B ... ... ... : ... .. . ... ... ... : ... .. . ... ... ... : ... .. . ... ... ... : ... .. . P7C ... ...
ROW 12 : D-4 00 A ... ... ... : D#4 00 5 ... ... ... : ... .. . ... ... ... : ... .. 9 ... ... ... : ... .. . ... ... ... : ... .. . ... ... ... : ... .. . ... ... ... : ... .. . ... ... ...
ROW 13 : G-3 00 8 ... ... ... : G#3 00 4 ... ... ... : ... .. . ... ... ... : ... .. 8 ... ... ... : ... .. . ... ... ... : ... .. . ... ... ... : ... .. . ... ... ... : ... .. . P7D ... ...
ROW 14 : --- .. . ... ... ... : --- .. . ... ... ... : ... .. . ... ... ... : --- .. . ... ... ... : ... .. . ... ... ... : ... .. . ... ... ... : ... .. . ... ... ... : ... .. . P80 ... ...
ROW 15 : ... .. . ... ... ... : ... .. . ... ... ... : ... .. . ... ... ... : ... .. . ... ... ... : ... .. . ... ... ... : D#3 04 . ... ... ... : G-3 04 . ... ... ... : ... .. . P81 ... ...
ROW 16 : ... .. . ... ... ... : ... .. . ... ... ... : ... .. . ... ... ... : ... .. . ... ... ... : ... .. . ... ... ... : ... .. . ... ... ... : ... .. . ... ... ... : ... .. . P84 ... ...
ROW 17 : ... .. . ... ... ... : ... .. . ... ... ... : ... .. . ... ... ... : ... .. . ... ... ... : ... .. . ... ... ... : D#3 05 . ... ... ... : G-3 05 . ... ... ... : ... .. . ... ... ...
ROW 18 : ... .. . ... ... ... : ... .. . ... ... ... : ... .. . ... ... ... : ... .. . ... ... ... : ... .. . ... ... ... : D#3 06 . ... ... ... : G-3 06 . ... ... ... : E-1 03 . P83 ... ...
ROW 19 : ... .. . ... ... ... : ... .. . ... ... ... : ... .. . ... ... ... : ... .. . ... ... ... : ... .. . ... ... ... : D#3 07 . ... ... ... : G-3 07 . ... ... ... : ... .. . P81 ... ...
ROW 1A : ... .. . ... ... ... : ... .. . ... ... ... : ... .. . ... ... ... : ... .. . ... ... ... : ... .. . ... ... ... : D#3 08 . ... ... ... : G-3 08 . ... ... ... : ... .. . P80 ... ...
ROW 1B : ... .. . ... ... ... : ... .. . ... ... ... : ... .. . ... ... ... : ... .. . ... ... ... : ... .. . ... ... ... : D#3 09 . ... ... ... : G-3 09 . ... ... ... : ... .. . P7D ... ...
ROW 1C : ... .. . ... ... ... : G-3 00 7 ... ... ... : ... .. . ... ... ... : C-# 00 C ... ... ... : ... .. . ... ... ... : ... .. . ... ... ... : D#3 03 . ... ... ... : ... .. . P7C ... ...
ROW 1D : ... .. . ... ... ... : ... .. 6 ... ... ... : ... .. . ... ... ... : ... .. B ... ... ... : ... .. . ... ... ... : ... .. . ... ... ... : ... .. . ... ... ... : ... .. . ... ... ...
ROW 1E : ... .. . ... ... ... : D-4 00 5 ... ... ... : ... .. . ... ... ... : ... .. 9 ... ... ... : ... .. . ... ... ... : ... .. . ... ... ... : ... .. . ... ... ... : ... .. . P7E ... ...
ROW 1F : ... .. . ... ... ... : G-3 00 4 ... ... ... : ... .. . ... ... ... : ... .. 8 ... ... ... : ... .. . ... ... ... : ... .. . ... ... ... : ... .. . ... ... ... : ... .. . P80 ... ...
ROW 20 : ... .. . ... ... ... : --- .. . ... ... ... : ... .. . ... ... ... : --- .. . ... ... ... : ... .. . ... ... ... : ... .. . ... ... ... : ... .. . ... ... ... : ... .. . P82 ... ...
ROW 21 : ... .. . ... ... ... : ... .. . ... ... ... : ... .. . ... ... ... : ... .. . ... ... ... : ... .. . ... ... ... : ... .. . ... ... ... : D#3 04 . ... ... ... : ... .. . P84 ... ...
ROW 22 : ... .. . ... ... ... : ... .. . ... ... ... : ... .. . ... ... ... : ... .. . ... ... ... : ... .. . ... ... ... : D-3 09 . P7C ... ... : ... .. . ... ... ... : ... .. . ... ... ...
ROW 23 : ... .. . ... ... ... : ... .. . ... ... ... : ... .. . ... ... ... : ... .. . ... ... ... : ... .. . ... ... ... : C#3 09 9 P7A ... ... : D#3 05 . ... ... ... : ... .. . P83 ... ...
ROW 24 : ... .. . ... ... ... : ... .. . ... ... ... : ... .. . ... ... ... : ... .. . ... ... ... : ... .. . ... ... ... : C-3 09 8 P79 ... ... : D#3 06 . ... ... ... : E-2 03 . P80 ... ...
ROW 25 : ... .. . ... ... ... : ... .. . ... ... ... : ... .. . ... ... ... : ... .. . ... ... ... : ... .. . ... ... ... : B-2 09 . ... ... ... : D#3 07 . ... ... ... : ... .. . P7F ... ...
ROW 26 : ... .. . ... ... ... : ... .. . ... ... ... : ... .. . ... ... ... : ... .. . ... ... ... : ... .. . ... ... ... : A#2 09 7 P7B ... ... : D#3 08 . ... ... ... : ... .. . P7C ... ...
ROW 27 : ... .. . ... ... ... : ... .. . ... ... ... : ... .. . ... ... ... : ... .. . ... ... ... : ... .. . ... ... ... : A-2 09 6 P7E ... ... : D#3 09 . ... ... ... : ... .. . ... ... ...
ROW 28 : E-3 00 D ... ... ... : ... .. . ... ... ... : B-4 00 . P7F ... ... : A-# 00 A ... ... ... : D#1 0A . ... ... ... : G#2 09 4 P84 ... ... : ... .. . ... ... ... : ... .. . P7D ... ...
ROW 29 : ... .. C ... ... ... : ... .. . ... ... ... : C-5 00 . ... ... ... : ... .. 9 ... ... ... : ... .. . ... ... ... : G-2 09 . P8B ... ... : ... .. . ... ... ... : ... .. . P7F ... ...
ROW 2A : B-3 00 A ... ... ... : ... .. . ... ... ... : C#5 00 . ... ... ... : ... .. 8 ... ... ... : ... .. . ... ... ... : ... .. 2 P72 ... ... : ... .. . ... ... ... : ... .. . P80 ... ...
ROW 2B : E-3 00 8 ... ... ... : ... .. . ... ... ... : D-5 00 . ... ... ... : ... .. 6 ... ... ... : ... .. . ... ... ... : F#2 09 . P7B ... ... : ... .. . ... ... ... : ... .. . P83 ... ...
ROW 2C : --- .. . ... ... ... : ... .. . ... ... ... : D#5 00 . P80 ... ... : --- .. . ... ... ... : ... .. . ... ... ... : F-2 09 1 P86 ... ... : ... .. . ... ... ... : ... .. . P84 ... ...
ROW 2D : ... .. . ... ... ... : ... .. . ... ... ... : E-5 00 . ... ... ... : ... .. . ... ... ... : ... .. . ... ... ... : E-2 09 . P93 ... ... : ... .. . ... ... ... : ... .. . ... ... ...
ROW 2E : ... .. . ... ... ... : ... .. . ... ... ... : ... .. . P82 ... ... : ... .. . ... ... ... : ... .. . ... ... ... : ... .. . P7A ... ... : D-3 09 . P7C ... ... : ... .. . P82 ... ...
ROW 2F : ... .. . ... ... ... : ... .. . ... ... ... : F-5 00 . P7E ... ... : ... .. . ... ... ... : ... .. . ... ... ... : --- .. . ... ... ... : C#3 09 4 P7A ... ... : ... .. . P80 ... ...
ROW 30 : ... .. . ... ... ... : ... .. . ... ... ... : ... .. . ... ... ... : ... .. . ... ... ... : ... .. . ... ... ... : ... .. . ... ... ... : C-3 09 . P79 ... ... : D#1 03 . P7E ... ...
ROW 31 : ... .. . ... ... ... : ... .. . ... ... ... : E-5 00 . P82 ... ... : ... .. . ... ... ... : ... .. . ... ... ... : ... .. . ... ... ... : B-2 09 . ... ... ... : ... .. . P7C ... ...
ROW 32 : ... .. . ... ... ... : ... .. . ... ... ... : ... .. . P80 ... ... : ... .. . ... ... ... : ... .. . ... ... ... : ... .. . ... ... ... : A#2 09 3 P7B ... ... : ... .. . ... ... ...
ROW 33 : ... .. . ... ... ... : ... .. . ... ... ... : ... .. . P7F ... ... : ... .. . ... ... ... : ... .. . ... ... ... : ... .. . ... ... ... : A-2 09 . P7E ... ... : ... .. . P7D ... ...
ROW 34 : ... .. . ... ... ... : E-3 00 7 ... ... ... : D#5 00 . P82 ... ... : C-# 00 A ... ... ... : ... .. . ... ... ... : ... .. . ... ... ... : G#2 09 2 P84 ... ... : ... .. . P80 ... ...
ROW 35 : ... .. . ... ... ... : ... .. 6 ... ... ... : ... .. . ... ... ... : ... .. 9 ... ... ... : ... .. . ... ... ... : ... .. . ... ... ... : G-2 09 . P8B ... ... : ... .. . P81 ... ...
ROW 36 : ... .. . ... ... ... : B-3 00 5 ... ... ... : ... .. . ... ... ... : ... .. 8 ... ... ... : ... .. . ... ... ... : ... .. . ... ... ... : ... .. 1 P72 ... ... : ... .. . P84 ... ...
ROW 37 : ... .. . ... ... ... : E-3 00 4 ... ... ... : E-5 00 . P7F ... ... : ... .. 6 ... ... ... : ... .. . ... ... ... : ... .. . ... ... ... : F#2 09 . P7B ... ... : ... .. . ... ... ...
ROW 38 : ... .. . ... ... ... : --- .. . ... ... ... : ... .. . P80 ... ... : --- .. . ... ... ... : ... .. . ... ... ... : ... .. . ... ... ... : F-2 09 . P86 ... ... : ... .. . P83 ... ...
ROW 39 : ... .. . ... ... ... : ... .. . ... ... ... : ... .. . P82 ... ... : ... .. . ... ... ... : ... .. . ... ... ... : ... .. . ... ... ... : E-2 09 . P93 ... ... : ... .. . P81 ... ...
ROW 3A : ... .. . ... ... ... : ... .. . ... ... ... : F-5 00 . P7E ... ... : ... .. . ... ... ... : ... .. . ... ... ... : ... .. . ... ... ... : ... .. . P7A ... ... : ... .. . P80 ... ...
ROW 3B : ... .. . ... ... ... : ... .. . ... ... ... : ... .. . ... ... ... : ... .. . ... ... ... : ... .. . ... ... ... : ... .. . ... ... ... : --- .. . ... ... ... : ... .. . P7D ... ...
ROW 3C : ... .. . ... ... ... : ... .. . ... ... ... : E-5 00 . P81 ... ... : ... .. . ... ... ... : ... .. . ... ... ... : ... .. . ... ... ... : ... .. . ... ... ... : D#2 03 . P7C ... ...
ROW 3D : ... .. . ... ... ... : ... .. . ... ... ... : ... .. . P80 ... ... : ... .. . ... ... ... : ... .. . ... ... ... : ... .. . ... ... ... : ... .. . ... ... ... : ... .. . ... ... ...
ROW 3E : ... .. . ... ... ... : ... .. . ... ... ... : ... .. . P7E ... ... : ... .. . ... ... ... : ... .. . ... ... ... : ... .. . ... ... ... : ... .. . ... ... ... : ... .. . P7E ... ...
ROW 3F : ... .. . ... ... ... : ... .. . ... ... ... : D#5 00 . P82 ... ... : ... .. . ... ... ... : ... .. . ... ... ... : ... .. . ... ... ... : ... .. . ... ... ... : ... .. . P80 ... ...
ROW 40 : D#3 00 D ... ... ... : ... .. . ... ... ... : D-5 00 . ... ... ... : A-# 00 C ... ... ... : C-1 0A . ... ... ... : ... .. . ... ... ... : ... .. . ... ... ... : ... .. . P82 ... ...
ROW 41 : ... .. C ... ... ... : ... .. . ... ... ... : D#5 00 . P7E ... ... : ... .. B ... ... ... : ... .. . ... ... ... : ... .. . ... ... ... : ... .. . ... ... ... : ... .. . P84 ... ...
ROW 42 : A#3 00 A ... ... ... : ... .. . ... ... ... : ... .. . P80 ... ... : ... .. 9 ... ... ... : ... .. . ... ... ... : ... .. . ... ... ... : ... .. . ... ... ... : ... .. . ... ... ...
ROW 43 : D#3 00 8 ... ... ... : ... .. . ... ... ... : ... .. . P81 ... ... : ... .. 8 ... ... ... : ... .. . ... ... ... : ... .. . ... ... ... : ... .. . ... ... ... : ... .. . P83 ... ...
ROW 44 : --- .. . ... ... ... : ... .. . ... ... ... : E-5 00 . P7E ... ... : --- .. . ... ... ... : ... .. . ... ... ... : ... .. . ... ... ... : ... .. . ... ... ... : ... .. . P80 ... ...
ROW 45 : ... .. . ... ... ... : ... .. . ... ... ... : ... .. . ... ... ... : ... .. . ... ... ... : ... .. . ... ... ... : ... .. . ... ... ... : ... .. . ... ... ... : ... .. . P7F ... ...
ROW 46 : ... .. . ... ... ... : ... .. . ... ... ... : ... .. . ... ... ... : ... .. . ... ... ... : ... .. . ... ... ... : ... .. . ... ... ... : ... .. . ... ... ... : ... .. . P7C ... ...
ROW 47 : ... .. . ... ... ... : ... .. . ... ... ... : D#5 00 . P81 ... ... : ... .. . ... ... ... : ... .. . ... ... ... : ... .. . ... ... ... : ... .. . ... ... ... : ... .. . ... ... ...
ROW 48 : ... .. . ... ... ... : ... .. . ... ... ... : ... .. . P80 ... ... : ... .. . ... ... ... : ... .. . ... ... ... : ... .. . ... ... ... : ... .. . ... ... ... : G#1 03 . P7D ... ...
ROW 49 : ... .. . ... ... ... : ... .. . ... ... ... : ... .. . P7E ... ... : ... .. . ... ... ... : ... .. . ... ... ... : ... .. . ... ... ... : ... .. . ... ... ... : ... .. . P7F ... ...
ROW 4A : ... .. . ... ... ... : ... .. . ... ... ... : D-5 00 . P82 ... ... : ... .. . ... ... ... : ... .. . ... ... ... : ... .. . ... ... ... : ... .. . ... ... ... : ... .. . P80 ... ...
ROW 4B : ... .. . ... ... ... : ... .. . ... ... ... : ... .. . ... ... ... : ... .. . ... ... ... : ... .. . ... ... ... : ... .. . ... ... ... : ... .. . ... ... ... : ... .. . P83 ... ...
ROW 4C : ... .. . ... ... ... : D#3 00 7 ... ... ... : D#5 00 . P7F ... ... : C-# 00 C ... ... ... : C-1 0A . ... ... ... : ... .. . ... ... ... : ... .. . ... ... ... : ... .. . P84 ... ...
ROW 4D : ... .. . ... ... ... : ... .. 6 ... ... ... : ... .. . P80 ... ... : ... .. B ... ... ... : ... .. . ... ... ... : ... .. . ... ... ... : ... .. . ... ... ... : ... .. . ... ... ...
ROW 4E : ... .. . ... ... ... : A#3 00 5 ... ... ... : ... .. . P82 ... ... : ... .. 9 ... ... ... : ... .. . ... ... ... : ... .. . ... ... ... : ... .. . ... ... ... : ... .. . P82 ... ...
ROW 4F : ... .. . ... ... ... : D#3 00 4 ... ... ... : E-5 00 . P7E ... ... : ... .. 8 ... ... ... : ... .. . ... ... ... : ... .. . ... ... ... : ... .. . ... ... ... : ... .. . P80 ... ...
ROW 50 : ... .. . ... ... ... : --- .. . ... ... ... : ... .. . ... ... ... : --- .. . ... ... ... : ... .. . ... ... ... : ... .. . ... ... ... : ... .. . ... ... ... : ... .. . P7E ... ...
ROW 51 : ... .. . ... ... ... : ... .. . ... ... ... : D#5 00 . P82 ... ... : ... .. . ... ... ... : ... .. . ... ... ... : ... .. . ... ... ... : ... .. . ... ... ... : ... .. . P7C ... ...
ROW 52 : E-3 00 D ... ... ... : ... .. . ... ... ... : ... .. . P80 ... ... : ... .. . ... ... ... : ... .. . ... ... ... : ... .. . ... ... ... : ... .. . ... ... ... : ... .. . ... ... ...
ROW 53 : ... .. C ... ... ... : ... .. . ... ... ... : ... .. . P7F ... ... : ... .. . ... ... ... : ... .. . ... ... ... : ... .. . ... ... ... : ... .. . ... ... ... : ... .. . P7D ... ...
ROW 54 : B-3 00 A ... ... ... : ... .. . ... ... ... : D-5 00 . P82 ... ... : ... .. . ... ... ... : ... .. . ... ... ... : ... .. . ... ... ... : ... .. . ... ... ... : G#2 03 . P80 ... ...
ROW 55 : E-3 00 8 ... ... ... : ... .. . ... ... ... : ... .. . ... ... ... : ... .. . ... ... ... : ... .. . ... ... ... : ... .. . ... ... ... : ... .. . ... ... ... : ... .. . P81 ... ...
ROW 56 : --- .. . ... ... ... : ... .. . ... ... ... : ... .. . ... ... ... : ... .. . ... ... ... : ... .. . ... ... ... : ... .. . ... ... ... : ... .. . ... ... ... : ... .. . P84 ... ...
ROW 57 : ... .. . ... ... ... : ... .. . ... ... ... : D#5 00 . P7F ... ... : ... .. . ... ... ... : ... .. . ... ... ... : ... .. . ... ... ... : ... .. . ... ... ... : ... .. . ... ... ...
ROW 58 : D#3 00 D ... ... ... : ... .. . ... ... ... : ... .. . P80 ... ... : C-# 00 C ... ... ... : C#1 0A . ... ... ... : ... .. . ... ... ... : ... .. . ... ... ... : ... .. . P83 ... ...
ROW 59 : ... .. C ... ... ... : ... .. . ... ... ... : ... .. . P82 ... ... : ... .. B ... ... ... : ... .. . ... ... ... : ... .. . ... ... ... : ... .. . ... ... ... : ... .. . P81 ... ...
ROW 5A : A#3 00 A ... ... ... : ... .. . ... ... ... : E-5 00 . P7E ... ... : ... .. 9 ... ... ... : ... .. . ... ... ... : ... .. . ... ... ... : ... .. . ... ... ... : ... .. . P80 ... ...
ROW 5B : D#3 00 8 ... ... ... : ... .. . ... ... ... : ... .. . ... ... ... : ... .. 8 ... ... ... : ... .. . ... ... ... : ... .. . ... ... ... : ... .. . ... ... ... : ... .. . P7D ... ...
ROW 5C : --- .. . ... ... ... : ... .. . ... ... ... : D#5 00 . P81 ... ... : --- .. . ... ... ... : ... .. . ... ... ... : ... .. . ... ... ... : ... .. . ... ... ... : ... .. . P7C ... ...
ROW 5D : ... .. . ... ... ... : ... .. . ... ... ... : ... .. . P80 ... ... : ... .. . ... ... ... : ... .. . ... ... ... : ... .. . ... ... ... : ... .. . ... ... ... : ... .. . ... ... ...
ROW 5E : ... .. . ... ... ... : E-3 00 7 ... ... ... : ... .. . P7E ... ... : ... .. . ... ... ... : ... .. . ... ... ... : ... .. . ... ... ... : ... .. . ... ... ... : ... .. . P7E ... ...
ROW 5F : ... .. . ... ... ... : ... .. 6 ... ... ... : D-5 00 . P82 ... ... : ... .. . ... ... ... : ... .. . ... ... ... : ... .. . ... ... ... : ... .. . ... ... ... : ... .. . P80 ... ...
ROW 60 : ... .. . ... ... ... : B-3 00 5 ... ... ... : ... .. . ... ... ... : ... .. . ... ... ... : ... .. . ... ... ... : ... .. . ... ... ... : ... .. . ... ... ... : G#1 03 . P82 ... ...
ROW 61 : ... .. . ... ... ... : E-3 00 4 ... ... ... : D#5 00 . P7E ... ... : ... .. . ... ... ... : ... .. . ... ... ... : ... .. . ... ... ... : ... .. . ... ... ... : ... .. . P84 ... ...
ROW 62 : ... .. . ... ... ... : --- .. . ... ... ... : ... .. . P80 ... ... : ... .. . ... ... ... : ... .. . ... ... ... : ... .. . ... ... ... : ... .. . ... ... ... : ... .. . ... ... ...
ROW 63 : ... .. . ... ... ... : ... .. . ... ... ... : ... .. . P81 ... ... : ... .. . ... ... ... : ... .. . ... ... ... : ... .. . ... ... ... : ... .. . ... ... ... : ... .. . P83 ... ...
ROW 64 : G-3 00 D ... ... ... : D#3 00 7 ... ... ... : E-5 00 . P7E ... ... : C-# 00 C ... ... ... : ... .. . ... ... ... : ... .. . ... ... ... : ... .. . ... ... ... : ... .. . P80 ... ...
ROW 65 : ... .. C ... ... ... : ... .. 6 ... ... ... : ... .. . ... ... ... : ... .. B ... ... ... : ... .. . ... ... ... : ... .. . ... ... ... : ... .. . ... ... ... : ... .. . P7F ... ...
ROW 66 : D-4 00 A ... ... ... : A#3 00 5 ... ... ... : ... .. . ... ... ... : ... .. 9 ... ... ... : ... .. . ... ... ... : ... .. . ... ... ... : ... .. . ... ... ... : ... .. . P7C ... ...
ROW 67 : G-3 00 8 ... ... ... : D#3 00 4 ... ... ... : D#5 00 . P81 ... ... : ... .. 8 ... ... ... : ... .. . ... ... ... : ... .. . ... ... ... : ... .. . ... ... ... : ... .. . ... ... ...
ROW 68 : --- .. . ... ... ... : --- .. . ... ... ... : ... .. . P80 ... ... : --- .. . ... ... ... : ... .. . ... ... ... : ... .. . ... ... ... : ... .. . ... ... ... : ... .. . P7D ... ...
ROW 69 : ... .. . ... ... ... : ... .. . ... ... ... : ... .. . P7E ... ... : ... .. . ... ... ... : ... .. . ... ... ... : ... .. . ... ... ... : ... .. . ... ... ... : ... .. . P7F ... ...
ROW 6A : ... .. . ... ... ... : ... .. . ... ... ... : D-5 00 . P7F ... ... : ... .. . ... ... ... : ... .. . ... ... ... : ... .. . ... ... ... : ... .. . ... ... ... : ... .. . P80 ... ...
ROW 6B : ... .. . ... ... ... : ... .. . ... ... ... : C#5 00 . P82 ... ... : ... .. . ... ... ... : ... .. . ... ... ... : ... .. . ... ... ... : ... .. . ... ... ... : ... .. . P83 ... ...
ROW 6C : ... .. . ... ... ... : ... .. . ... ... ... : ... .. . P81 ... ... : ... .. . ... ... ... : ... .. . ... ... ... : ... .. . ... ... ... : ... .. . ... ... ... : G#2 03 . P84 ... ...
ROW 6D : ... .. . ... ... ... : ... .. . ... ... ... : ... .. . P7F ... ... : ... .. . ... ... ... : ... .. . ... ... ... : ... .. . ... ... ... : ... .. . ... ... ... : ... .. . ... ... ...
ROW 6E : ... .. . ... ... ... : ... .. . ... ... ... : ... .. . P7E ... ... : ... .. . ... ... ... : ... .. . ... ... ... : ... .. . ... ... ... : ... .. . ... ... ... : ... .. . P82 ... ...
ROW 6F : ... .. . ... ... ... : ... .. . ... ... ... : C-5 00 . P82 ... ... : ... .. . ... ... ... : ... .. . ... ... ... : ... .. . ... ... ... : ... .. . ... ... ... : ... .. . P80 ... ...
ROW 70 : G#3 00 D ... ... ... : G-3 00 7 ... ... ... : --- .. . ... ... ... : A-# 00 A ... ... ... : D-1 0A . ... ... ... : D#3 03 6 P80 ... ... : ... .. . ... ... ... : ... .. . P7E ... ...
ROW 71 : ... .. C ... ... ... : ... .. 6 ... ... ... : ... .. . ... ... ... : ... .. 9 ... ... ... : ... .. . ... ... ... : ... .. . ... ... ... : ... .. . ... ... ... : ... .. . P7C ... ...
ROW 72 : D#4 00 A ... ... ... : D-4 00 5 ... ... ... : ... .. . ... ... ... : ... .. 8 ... ... ... : ... .. . ... ... ... : ... .. . ... ... ... : ... .. . ... ... ... : ... .. . ... ... ...
ROW 73 : G#3 00 8 ... ... ... : G-3 00 4 ... ... ... : ... .. . ... ... ... : ... .. 6 ... ... ... : ... .. . ... ... ... : ... .. . ... ... ... : ... .. . ... ... ... : ... .. . P7D ... ...
ROW 74 : --- .. . ... ... ... : --- .. . ... ... ... : ... .. . ... ... ... : --- .. . ... ... ... : ... .. . ... ... ... : ... .. . ... ... ... : ... .. . ... ... ... : ... .. . P80 ... ...
ROW 75 : ... .. . ... ... ... : ... .. . ... ... ... : ... .. . ... ... ... : ... .. . ... ... ... : ... .. . ... ... ... : D#3 04 . ... ... ... : ... .. . ... ... ... : ... .. . P81 ... ...
ROW 76 : ... .. . ... ... ... : ... .. . ... ... ... : ... .. . ... ... ... : ... .. . ... ... ... : ... .. . ... ... ... : ... .. 7 ... ... ... : ... .. . ... ... ... : ... .. . P84 ... ...
ROW 77 : ... .. . ... ... ... : ... .. . ... ... ... : ... .. . ... ... ... : ... .. . ... ... ... : ... .. . ... ... ... : D#3 05 . ... ... ... : ... .. . ... ... ... : ... .. . ... ... ...
ROW 78 : ... .. . ... ... ... : ... .. . ... ... ... : ... .. . ... ... ... : ... .. . ... ... ... : ... .. . ... ... ... : D#3 06 . ... ... ... : ... .. . ... ... ... : B-1 03 . P83 ... ...
ROW 79 : ... .. . ... ... ... : ... .. . ... ... ... : ... .. . ... ... ... : ... .. . ... ... ... : ... .. . ... ... ... : D#3 07 . ... ... ... : ... .. . ... ... ... : ... .. . P81 ... ...
ROW 7A : ... .. . ... ... ... : ... .. . ... ... ... : ... .. . ... ... ... : ... .. . ... ... ... : ... .. . ... ... ... : D#3 08 . ... ... ... : ... .. . ... ... ... : ... .. . P80 ... ...
ROW 7B : ... .. . ... ... ... : ... .. . ... ... ... : ... .. . ... ... ... : ... .. . ... ... ... : ... .. . ... ... ... : D#3 09 . ... ... ... : ... .. . ... ... ... : ... .. . P7D ... ...
ROW 7C : ... .. . ... ... ... : G#3 00 7 ... ... ... : ... .. . ... ... ... : C-# 00 A ... ... ... : D#1 0A . ... ... ... : ... .. 8 ... ... ... : D#3 03 2 P80 ... ... : ... .. . P7C ... ...
ROW 7D : ... .. . ... ... ... : ... .. 6 ... ... ... : ... .. . ... ... ... : ... .. 9 ... ... ... : ... .. . ... ... ... : ... .. . ... ... ... : ... .. . ... ... ... : ... .. . ... ... ...
ROW 7E : ... .. . ... ... ... : D#4 00 5 ... ... ... : ... .. . ... ... ... : ... .. 8 ... ... ... : ... .. . ... ... ... : ... .. . ... ... ... : ... .. . ... ... ... : ... .. . P7E ... ...
ROW 7F : ... .. . ... ... ... : G#3 00 4 ... ... ... : ... .. . ... ... ... : ... .. 6 ... ... ... : ... .. . ... ... ... : ... .. . ... ... ... : ... .. . ... ... ... : ... .. . P80 ... ...
ROW 80 : ... .. . ... ... ... : --- .. . ... ... ... : ... .. . ... ... ... : --- .. . ... ... ... : ... .. . ... ... ... : ... .. . ... ... ... : ... .. . ... ... ... : ... .. . P82 ... ...
ROW 81 : ... .. . ... ... ... : ... .. . ... ... ... : ... .. . ... ... ... : ... .. . ... ... ... : ... .. . ... ... ... : ... .. . ... ... ... : D#3 04 . ... ... ... : ... .. . P84 ... ...
ROW 82 : ... .. . ... ... ... : ... .. . ... ... ... : ... .. . ... ... ... : ... .. . ... ... ... : ... .. . ... ... ... : ... .. 9 ... ... ... : ... .. 3 ... ... ... : ... .. . ... ... ...
ROW 83 : ... .. . ... ... ... : ... .. . ... ... ... : ... .. . ... ... ... : ... .. . ... ... ... : ... .. . ... ... ... : ... .. . ... ... ... : D#3 05 . ... ... ... : ... .. . P83 ... ...
ROW 84 : ... .. . ... ... ... : ... .. . ... ... ... : ... .. . ... ... ... : ... .. . ... ... ... : ... .. . ... ... ... : ... .. . ... ... ... : D#3 06 . ... ... ... : B-2 03 . P80 ... ...
ROW 85 : ... .. . ... ... ... : ... .. . ... ... ... : ... .. . ... ... ... : ... .. . ... ... ... : ... .. . ... ... ... : ... .. . ... ... ... : D#3 07 . ... ... ... : ... .. . P7F ... ...
ROW 86 : ... .. . ... ... ... : ... .. . ... ... ... : ... .. . ... ... ... : ... .. . ... ... ... : ... .. . ... ... ... : ... .. . ... ... ... : D#3 08 . ... ... ... : ... .. . P7C ... ...
ROW 87 : ... .. . ... ... ... : ... .. . ... ... ... : ... .. . ... ... ... : ... .. . ... ... ... : ... .. . ... ... ... : ... .. . ... ... ... : D#3 09 . ... ... ... : ... .. . ... ... ...
ROW 88 : G#3 00 . ... ... ... : ... .. . ... ... ... : G#3 00 . P80 ... ... : A-# 00 C ... ... ... : C-1 0A . ... ... ... : G#3 03 A ... ... ... : ... .. 4 ... ... ... : ... .. . P7D ... ...
ROW 89 : ... .. . ... ... ... : ... .. . ... ... ... : ... .. . ... ... ... : ... .. B ... ... ... : ... .. . ... ... ... : ... .. . ... ... ... : ... .. . ... ... ... : ... .. . P7F ... ...
ROW 8A : B-3 01 . ... ... ... : ... .. . ... ... ... : ... .. . ... ... ... : ... .. 9 ... ... ... : ... .. . ... ... ... : ... .. . ... ... ... : ... .. . ... ... ... : ... .. . P80 ... ...
ROW 8B : ... .. . ... ... ... : ... .. . ... ... ... : ... .. . ... ... ... : ... .. 8 ... ... ... : ... .. . ... ... ... : ... .. . ... ... ... : ... .. . ... ... ... : ... .. . P83 ... ...
ROW 8C : D#4 02 . ... ... ... : ... .. . ... ... ... : ... .. . ... ... ... : --- .. . ... ... ... : ... .. . ... ... ... : ... .. . ... ... ... : ... .. . ... ... ... : ... .. . P84 ... ...
ROW 8D : ... .. . ... ... ... : ... .. . ... ... ... : ... .. . ... ... ... : ... .. . ... ... ... : ... .. . ... ... ... : G#3 04 . ... ... ... : ... .. . ... ... ... : ... .. . ... ... ...
ROW 8E : G#3 00 A ... ... ... : ... .. . ... ... ... : --- .. . ... ... ... : ... .. . ... ... ... : ... .. . ... ... ... : ... .. . ... ... ... : ... .. 5 ... ... ... : ... .. . P82 ... ...
ROW 8F : B-3 00 . ... ... ... : ... .. . ... ... ... : ... .. . ... ... ... : ... .. . ... ... ... : ... .. . ... ... ... : G#3 05 . ... ... ... : ... .. . ... ... ... : ... .. . P80 ... ...
ROW 90 : D#4 01 . ... ... ... : ... .. . ... ... ... : ... .. . ... ... ... : ... .. . ... ... ... : ... .. . ... ... ... : G#3 06 . ... ... ... : ... .. . ... ... ... : B-1 03 . P7E ... ...
ROW 91 : G#3 01 . ... ... ... : ... .. . ... ... ... : ... .. . ... ... ... : ... .. . ... ... ... : ... .. . ... ... ... : G#3 07 . ... ... ... : ... .. . ... ... ... : ... .. . P7C ... ...
ROW 92 : B-3 02 . ... ... ... : ... .. . ... ... ... : ... .. . ... ... ... : ... .. . ... ... ... : ... .. . ... ... ... : G#3 08 . ... ... ... : ... .. . ... ... ... : ... .. . ... ... ...
ROW 93 : D#4 02 . ... ... ... : ... .. . ... ... ... : ... .. . ... ... ... : ... .. . ... ... ... : ... .. . ... ... ... : G#3 09 . ... ... ... : ... .. . ... ... ... : ... .. . P7D ... ...
ROW 94 : G#3 00 . ... ... ... : ... .. . ... ... ... : B-3 00 . ... ... ... : C-# 00 C ... ... ... : C-1 0A . ... ... ... : G-3 03 . ... ... ... : G#3 03 . ... ... ... : ... .. . P80 ... ...
ROW 95 : B-3 00 8 ... ... ... : ... .. . ... ... ... : ... .. . ... ... ... : ... .. B ... ... ... : ... .. . ... ... ... : ... .. . ... ... ... : ... .. . ... ... ... : ... .. . P81 ... ...
ROW 96 : D#4 01 6 ... ... ... : ... .. . ... ... ... : ... .. . ... ... ... : ... .. 9 ... ... ... : ... .. . ... ... ... : ... .. . ... ... ... : ... .. . ... ... ... : ... .. . P84 ... ...
ROW 97 : G#3 01 3 ... ... ... : ... .. . ... ... ... : ... .. . ... ... ... : ... .. 8 ... ... ... : ... .. . ... ... ... : ... .. . ... ... ... : ... .. . ... ... ... : ... .. . ... ... ...
ROW 98 : B-3 02 2 ... ... ... : ... .. . ... ... ... : ... .. . ... ... ... : --- .. . ... ... ... : ... .. . ... ... ... : ... .. . ... ... ... : ... .. . ... ... ... : ... .. . P83 ... ...
ROW 99 : D#4 02 1 ... ... ... : ... .. . ... ... ... : ... .. . ... ... ... : ... .. . ... ... ... : ... .. . ... ... ... : G-3 04 . ... ... ... : G#3 04 . ... ... ... : ... .. . P81 ... ...
ROW 9A : --- .. . ... ... ... : ... .. . ... ... ... : G#3 00 . ... ... ... : ... .. . ... ... ... : ... .. . ... ... ... : ... .. . ... ... ... : ... .. . ... ... ... : ... .. . P80 ... ...
ROW 9B : ... .. . ... ... ... : ... .. . ... ... ... : ... .. . ... ... ... : ... .. . ... ... ... : ... .. . ... ... ... : G-3 05 . ... ... ... : G#3 05 . ... ... ... : ... .. . P7D ... ...
ROW 9C : ... .. . ... ... ... : ... .. . ... ... ... : ... .. . ... ... ... : ... .. . ... ... ... : ... .. . ... ... ... : G-3 06 . ... ... ... : G#3 06 . ... ... ... : B-2 03 . P7C ... ...
ROW 9D : ... .. . ... ... ... : ... .. . ... ... ... : --- .. . ... ... ... : ... .. . ... ... ... : ... .. . ... ... ... : G-3 07 . ... ... ... : G#3 07 . ... ... ... : ... .. . ... ... ...
ROW 9E : ... .. . ... ... ... : ... .. . ... ... ... : ... .. . ... ... ... : ... .. . ... ... ... : ... .. . ... ... ... : G-3 08 . ... ... ... : G#3 08 . ... ... ... : ... .. . P7E ... ...
ROW 9F : ... .. . ... ... ... : ... .. . ... ... ... : ... .. . ... ... ... : ... .. . ... ... ... : ... .. . ... ... ... : G-3 09 . ... ... ... : G#3 09 . ... ... ... : ... .. . P80 ... ...
ROW A0 : ... .. . ... ... ... : ... .. . ... ... ... : D#4 00 . ... ... ... : C-# 00 C ... ... ... : D#1 0A . ... ... ... : G#3 03 . ... ... ... : G-3 03 . ... ... ... : ... .. . P82 ... ...
ROW A1 : ... .. . ... ... ... : ... .. . ... ... ... : ... .. . ... ... ... : ... .. B ... ... ... : ... .. . ... ... ... : ... .. . ... ... ... : ... .. . ... ... ... : ... .. . P84 ... ...
ROW A2 : ... .. . ... ... ... : ... .. . ... ... ... : ... .. . ... ... ... : ... .. 9 ... ... ... : ... .. . ... ... ... : ... .. . ... ... ... : ... .. . ... ... ... : ... .. . ... ... ...
ROW A3 : ... .. . ... ... ... : ... .. . ... ... ... : ... .. . ... ... ... : ... .. 8 ... ... ... : ... .. . ... ... ... : ... .. . ... ... ... : ... .. . ... ... ... : ... .. . P83 ... ...
ROW A4 : ... .. . ... ... ... : ... .. . ... ... ... : ... .. . ... ... ... : --- .. . ... ... ... : ... .. . ... ... ... : ... .. . ... ... ... : ... .. . ... ... ... : ... .. . P80 ... ...
ROW A5 : ... .. . ... ... ... : ... .. . ... ... ... : ... .. . ... ... ... : ... .. . ... ... ... : ... .. . ... ... ... : G#3 04 . ... ... ... : G-3 04 . ... ... ... : ... .. . P7F ... ...
ROW A6 : ... .. . ... ... ... : ... .. . ... ... ... : B-3 00 . ... ... ... : ... .. . ... ... ... : ... .. . ... ... ... : ... .. . ... ... ... : ... .. . ... ... ... : ... .. . P7C ... ...
ROW A7 : ... .. . ... ... ... : ... .. . ... ... ... : ... .. . ... ... ... : ... .. . ... ... ... : ... .. . ... ... ... : G#3 05 . ... ... ... : G-3 05 . ... ... ... : ... .. . ... ... ...
ROW A8 : ... .. . ... ... ... : ... .. . ... ... ... : ... .. . ... ... ... : ... .. . ... ... ... : ... .. . ... ... ... : G#3 06 . ... ... ... : G-3 06 . ... ... ... : A#1 03 . P7D ... ...
ROW A9 : ... .. . ... ... ... : ... .. . ... ... ... : --- .. . ... ... ... : ... .. . ... ... ... : ... .. . ... ... ... : G#3 07 . ... ... ... : G-3 07 . ... ... ... : ... .. . P7F ... ...
ROW AA : ... .. . ... ... ... : ... .. . ... ... ... : ... .. . ... ... ... : ... .. . ... ... ... : ... .. . ... ... ... : G#3 08 . ... ... ... : G-3 08 . ... ... ... : ... .. . P80 ... ...
ROW AB : ... .. . ... ... ... : ... .. . ... ... ... : ... .. . ... ... ... : ... .. . ... ... ... : ... .. . ... ... ... : G#3 09 . ... ... ... : G-3 09 . ... ... ... : ... .. . P83 ... ...
ROW AC : G#3 00 8 ... ... ... : ... .. . ... ... ... : G#4 00 . ... ... ... : C-# 00 C ... ... ... : ... .. . ... ... ... : A#3 03 . ... ... ... : G#3 03 . ... ... ... : ... .. . P84 ... ...
ROW AD : ... .. . ... ... ... : ... .. . ... ... ... : ... .. . ... ... ... : ... .. B ... ... ... : ... .. . ... ... ... : ... .. . ... ... ... : ... .. . ... ... ... : ... .. . ... ... ...
ROW AE : B-3 01 . ... ... ... : ... .. . ... ... ... : ... .. . ... ... ... : ... .. 9 ... ... ... : ... .. . ... ... ... : ... .. . ... ... ... : ... .. . ... ... ... : ... .. . P82 ... ...
ROW AF : ... .. . ... ... ... : ... .. . ... ... ... : ... .. . ... ... ... : ... .. 8 ... ... ... : ... .. . ... ... ... : ... .. . ... ... ... : ... .. . ... ... ... : ... .. . P80 ... ...
ROW B0 : D#4 02 . ... ... ... : ... .. . ... ... ... : ... .. . ... ... ... : --- .. . ... ... ... : ... .. . ... ... ... : ... .. . ... ... ... : ... .. . ... ... ... : ... .. . P7E ... ...
ROW B1 : ... .. . ... ... ... : ... .. . ... ... ... : ... .. . ... ... ... : ... .. . ... ... ... : ... .. . ... ... ... : A#3 04 . ... ... ... : G#3 04 . ... ... ... : ... .. . P7C ... ...
ROW B2 : G#3 00 A ... ... ... : ... .. . ... ... ... : D#4 00 . ... ... ... : ... .. . ... ... ... : ... .. . ... ... ... : ... .. . ... ... ... : ... .. . ... ... ... : ... .. . ... ... ...
ROW B3 : B-3 00 . ... ... ... : ... .. . ... ... ... : ... .. . ... ... ... : ... .. . ... ... ... : ... .. . ... ... ... : A#3 05 . ... ... ... : G#3 05 . ... ... ... : ... .. . P7D ... ...
ROW B4 : D#4 01 . ... ... ... : ... .. . ... ... ... : ... .. . ... ... ... : ... .. . ... ... ... : ... .. . ... ... ... : A#3 06 . ... ... ... : G#3 06 . ... ... ... : A#2 03 . P80 ... ...
ROW B5 : G#3 01 . ... ... ... : ... .. . ... ... ... : --- .. . ... ... ... : ... .. . ... ... ... : ... .. . ... ... ... : A#3 07 . ... ... ... : G#3 07 . ... ... ... : ... .. . P81 ... ...
ROW B6 : B-3 02 . ... ... ... : ... .. . ... ... ... : ... .. . ... ... ... : ... .. . ... ... ... : ... .. . ... ... ... : A#3 08 . ... ... ... : G#3 08 . ... ... ... : ... .. . P84 ... ...
ROW B7 : D#4 02 . ... ... ... : ... .. . ... ... ... : ... .. . ... ... ... : ... .. . ... ... ... : ... .. . ... ... ... : A#3 09 . ... ... ... : G#3 09 . ... ... ... : ... .. . ... ... ...
ROW B8 : G#3 00 . ... ... ... : ... .. . ... ... ... : B-4 00 . ... ... ... : A-# 00 A ... ... ... : D#1 0A . ... ... ... : B-3 03 . ... ... ... : A#3 03 . ... ... ... : ... .. . P83 ... ...
ROW B9 : B-3 00 8 ... ... ... : ... .. . ... ... ... : ... .. . ... ... ... : ... .. 9 ... ... ... : ... .. . ... ... ... : ... .. . ... ... ... : ... .. . ... ... ... : ... .. . P81 ... ...
ROW BA : D#4 01 6 ... ... ... : ... .. . ... ... ... : ... .. . ... ... ... : ... .. 8 ... ... ... : ... .. . ... ... ... : ... .. . ... ... ... : ... .. . ... ... ... : ... .. . P80 ... ...
ROW BB : G#3 01 3 ... ... ... : ... .. . ... ... ... : ... .. . ... ... ... : ... .. 6 ... ... ... : ... .. . ... ... ... : ... .. . ... ... ... : ... .. . ... ... ... : ... .. . P7D ... ...
ROW BC : B-3 02 2 ... ... ... : ... .. . ... ... ... : ... .. . ... ... ... : --- .. . ... ... ... : ... .. . ... ... ... : ... .. . ... ... ... : ... .. . ... ... ... : ... .. . P7C ... ...
ROW BD : D#4 02 1 ... ... ... : ... .. . ... ... ... : ... .. . ... ... ... : ... .. . ... ... ... : ... .. . ... ... ... : B-3 04 . ... ... ... : A#3 04 . ... ... ... : ... .. . ... ... ...
ROW BE : --- .. . ... ... ... : ... .. . ... ... ... : G#4 00 . ... ... ... : ... .. . ... ... ... : ... .. . ... ... ... : ... .. . ... ... ... : ... .. . ... ... ... : ... .. . P7E ... ...
ROW BF : ... .. . ... ... ... : ... .. . ... ... ... : ... .. . ... ... ... : ... .. . ... ... ... : ... .. . ... ... ... : B-3 05 . ... ... ... : A#3 05 . ... ... ... : ... .. . P80 ... ...
ROW C0 : ... .. . ... ... ... : ... .. . ... ... ... : ... .. . ... ... ... : ... .. . ... ... ... : ... .. . ... ... ... : B-3 06 . ... ... ... : A#3 06 . ... ... ... : A#1 03 . P82 ... ...
ROW C1 : ... .. . ... ... ... : ... .. . ... ... ... : --- .. . ... ... ... : ... .. . ... ... ... : ... .. . ... ... ... : B-3 07 . ... ... ... : A#3 07 . ... ... ... : ... .. . P84 ... ...
ROW C2 : ... .. . ... ... ... : ... .. . ... ... ... : ... .. . ... ... ... : ... .. . ... ... ... : ... .. . ... ... ... : B-3 08 . ... ... ... : A#3 08 . ... ... ... : ... .. . ... ... ...
ROW C3 : ... .. . ... ... ... : ... .. . ... ... ... : ... .. . ... ... ... : ... .. . ... ... ... : ... .. . ... ... ... : B-3 09 . ... ... ... : A#3 09 . ... ... ... : ... .. . P83 ... ...
ROW C4 : G#3 00 8 ... ... ... : ... .. . ... ... ... : D#5 00 . ... ... ... : C-# 00 A ... ... ... : ... .. . ... ... ... : A#3 03 . ... ... ... : B-3 03 . ... ... ... : ... .. . P80 ... ...
ROW C5 : ... .. . ... ... ... : ... .. . ... ... ... : ... .. . ... ... ... : ... .. 9 ... ... ... : ... .. . ... ... ... : ... .. . ... ... ... : ... .. . ... ... ... : ... .. . P7F ... ...
ROW C6 : B-3 01 . ... ... ... : ... .. . ... ... ... : ... .. . ... ... ... : ... .. 8 ... ... ... : ... .. . ... ... ... : ... .. . ... ... ... : ... .. . ... ... ... : ... .. . P7C ... ...
ROW C7 : ... .. 6 ... ... ... : ... .. . ... ... ... : ... .. . ... ... ... : ... .. 6 ... ... ... : ... .. . ... ... ... : ... .. . ... ... ... : ... .. . ... ... ... : ... .. . ... ... ...
ROW C8 : D#4 02 4 ... ... ... : ... .. . ... ... ... : ... .. . ... ... ... : --- .. . ... ... ... : ... .. . ... ... ... : ... .. . ... ... ... : ... .. . ... ... ... : ... .. . P7D ... ...
ROW C9 : ... .. 2 ... ... ... : ... .. . ... ... ... : ... .. . ... ... ... : ... .. . ... ... ... : ... .. . ... ... ... : A#3 04 . ... ... ... : B-3 04 . ... ... ... : ... .. . P7F ... ...
ROW CA : G#3 00 1 ... ... ... : ... .. . ... ... ... : B-4 00 . ... ... ... : ... .. . ... ... ... : ... .. . ... ... ... : ... .. . ... ... ... : ... .. . ... ... ... : ... .. . P80 ... ...
ROW CB : B-3 00 . ... ... ... : ... .. . ... ... ... : ... .. . ... ... ... : ... .. . ... ... ... : ... .. . ... ... ... : A#3 05 . ... ... ... : B-3 05 . ... ... ... : ... .. . P83 ... ...
ROW CC : --- .. . ... ... ... : ... .. . ... ... ... : ... .. . ... ... ... : ... .. . ... ... ... : ... .. . ... ... ... : A#3 06 . ... ... ... : B-3 06 . ... ... ... : A#2 03 . P84 ... ...
ROW CD : ... .. . ... ... ... : ... .. . ... ... ... : --- .. . ... ... ... : ... .. . ... ... ... : ... .. . ... ... ... : A#3 07 . ... ... ... : B-3 07 . ... ... ... : ... .. . ... ... ...
ROW CE : ... .. . ... ... ... : ... .. . ... ... ... : ... .. . ... ... ... : ... .. . ... ... ... : ... .. . ... ... ... : A#3 08 . ... ... ... : B-3 08 . ... ... ... : ... .. . P82 ... ...
ROW CF : ... .. . ... ... ... : ... .. . ... ... ... : ... .. . ... ... ... : ... .. . ... ... ... : ... .. . ... ... ... : A#3 09 . ... ... ... : B-3 09 . ... ... ... : ... .. . P80 ... ...
ROW D0 : G#3 00 8 ... ... ... : ... .. . ... ... ... : G#5 00 . ... ... ... : A-# 00 B ... ... ... : C-1 0A . ... ... ... : B-3 03 . ... ... ... : A#3 03 . ... ... ... : ... .. . P7E ... ...
ROW D1 : ... .. . ... ... ... : ... .. . ... ... ... : ... .. . ... ... ... : ... .. A ... ... ... : ... .. . ... ... ... : ... .. . ... ... ... : ... .. . ... ... ... : ... .. . P7C ... ...
ROW D2 : B-3 01 . ... ... ... : ... .. . ... ... ... : ... .. . ... ... ... : ... .. 8 ... ... ... : ... .. . ... ... ... : ... .. . ... ... ... : ... .. . ... ... ... : ... .. . ... ... ...
ROW D3 : ... .. . ... ... ... : ... .. . ... ... ... : ... .. . ... ... ... : ... .. 7 ... ... ... : ... .. . ... ... ... : ... .. . ... ... ... : ... .. . ... ... ... : ... .. . P7D ... ...
ROW D4 : D#4 02 . ... ... ... : ... .. . ... ... ... : ... .. . ... ... ... : --- .. . ... ... ... : ... .. . ... ... ... : ... .. . ... ... ... : ... .. . ... ... ... : ... .. . P80 ... ...
ROW D5 : ... .. . ... ... ... : ... .. . ... ... ... : ... .. . ... ... ... : ... .. . ... ... ... : ... .. . ... ... ... : B-3 04 . ... ... ... : A#3 04 . ... ... ... : ... .. . P81 ... ...
ROW D6 : --- .. . ... ... ... : ... .. . ... ... ... : D#5 00 . ... ... ... : ... .. . ... ... ... : ... .. . ... ... ... : ... .. . ... ... ... : ... .. . ... ... ... : ... .. . P84 ... ...
ROW D7 : ... .. . ... ... ... : ... .. . ... ... ... : ... .. . ... ... ... : ... .. . ... ... ... : ... .. . ... ... ... : B-3 05 . ... ... ... : A#3 05 . ... ... ... : ... .. . ... ... ...
ROW D8 : ... .. . ... ... ... : ... .. . ... ... ... : ... .. . ... ... ... : ... .. . ... ... ... : ... .. . ... ... ... : B-3 06 . ... ... ... : A#3 06 . ... ... ... : D#2 03 . P83 ... ...
ROW D9 : ... .. . ... ... ... : ... .. . ... ... ... : --- .. . ... ... ... : ... .. . ... ... ... : ... .. . ... ... ... : B-3 07 . ... ... ... : A#3 07 . ... ... ... : ... .. . P81 ... ...
ROW DA : ... .. . ... ... ... : ... .. . ... ... ... : ... .. . ... ... ... : ... .. . ... ... ... : ... .. . ... ... ... : B-3 08 . ... ... ... : A#3 08 . ... ... ... : ... .. . P80 ... ...
ROW DB : ... .. . ... ... ... : ... .. . ... ... ... : ... .. . ... ... ... : ... .. . ... ... ... : ... .. . ... ... ... : B-3 09 . ... ... ... : A#3 09 . ... ... ... : ... .. . P7D ... ...
ROW DC : G#3 00 . ... ... ... : ... .. . ... ... ... : B-5 00 . ... ... ... : C-# 00 B ... ... ... : ... .. . ... ... ... : C#4 03 . ... ... ... : B-3 03 . ... ... ... : ... .. . P7C ... ...
ROW DD : ... .. . ... ... ... : ... .. . ... ... ... : ... .. . ... ... ... : ... .. A ... ... ... : ... .. . ... ... ... : ... .. . ... ... ... : ... .. . ... ... ... : ... .. . ... ... ...
ROW DE : B-3 01 . ... ... ... : ... .. . ... ... ... : ... .. . ... ... ... : ... .. 8 ... ... ... : ... .. . ... ... ... : ... .. . ... ... ... : ... .. . ... ... ... : ... .. . P7E ... ...
ROW DF : ... .. . ... ... ... : ... .. . ... ... ... : ... .. . ... ... ... : ... .. 7 ... ... ... : ... .. . ... ... ... : ... .. . ... ... ... : ... .. . ... ... ... : ... .. . P80 ... ...
ROW E0 : D#4 02 . ... ... ... : ... .. . ... ... ... : ... .. . ... ... ... : --- .. . ... ... ... : ... .. . ... ... ... : ... .. . ... ... ... : ... .. . ... ... ... : ... .. . P82 ... ...
ROW E1 : ... .. . ... ... ... : ... .. . ... ... ... : ... .. . ... ... ... : ... .. . ... ... ... : ... .. . ... ... ... : C#4 04 . ... ... ... : B-3 04 . ... ... ... : ... .. . P84 ... ...
ROW E2 : G#3 00 A ... ... ... : ... .. . ... ... ... : G#5 00 . ... ... ... : ... .. . ... ... ... : ... .. . ... ... ... : ... .. . ... ... ... : ... .. . ... ... ... : ... .. . ... ... ...
ROW E3 : B-3 00 . ... ... ... : ... .. . ... ... ... : ... .. . ... ... ... : ... .. . ... ... ... : ... .. . ... ... ... : C#4 05 . ... ... ... : B-3 05 . ... ... ... : ... .. . P83 ... ...
ROW E4 : D#4 01 . ... ... ... : ... .. . ... ... ... : ... .. . ... ... ... : ... .. . ... ... ... : ... .. . ... ... ... : C#4 06 . ... ... ... : B-3 06 . ... ... ... : D#3 03 . P80 ... ...
ROW E5 : G#3 01 . ... ... ... : ... .. . ... ... ... : --- .. . ... ... ... : ... .. . ... ... ... : ... .. . ... ... ... : C#4 07 . ... ... ... : B-3 07 . ... ... ... : ... .. . P7F ... ...
ROW E6 : B-3 02 . ... ... ... : ... .. . ... ... ... : ... .. . ... ... ... : ... .. . ... ... ... : ... .. . ... ... ... : C#4 08 . ... ... ... : B-3 08 . ... ... ... : ... .. . P7C ... ...
ROW E7 : D#4 02 . ... ... ... : ... .. . ... ... ... : ... .. . ... ... ... : ... .. . ... ... ... : ... .. . ... ... ... : C#4 09 . ... ... ... : B-3 09 . ... ... ... : ... .. . ... ... ...
ROW E8 : G-3 00 8 ... ... ... : ... .. . ... ... ... : D#6 00 . ... ... ... : A-# 00 C ... ... ... : C-1 0A . ... ... ... : C#4 03 . P85 ... ... : C#4 03 . ... ... ... : ... .. . P7D ... ...
ROW E9 : ... .. . ... ... ... : ... .. . ... ... ... : ... .. . ... ... ... : ... .. B ... ... ... : ... .. . ... ... ... : D-4 03 . P7E ... ... : ... .. . ... ... ... : ... .. . P7F ... ...
ROW EA : A#3 01 . ... ... ... : ... .. . ... ... ... : ... .. . ... ... ... : ... .. 9 ... ... ... : ... .. . ... ... ... : ... .. . P80 ... ... : ... .. . ... ... ... : ... .. . P80 ... ...
ROW EB : ... .. . ... ... ... : ... .. . ... ... ... : ... .. . ... ... ... : ... .. 8 ... ... ... : ... .. . ... ... ... : ... .. . ... ... ... : ... .. . ... ... ... : ... .. . P83 ... ...
ROW EC : D#4 02 . ... ... ... : ... .. . ... ... ... : ... .. . ... ... ... : --- .. . ... ... ... : ... .. . ... ... ... : ... .. . ... ... ... : ... .. . ... ... ... : ... .. . P84 ... ...
ROW ED : ... .. . ... ... ... : ... .. . ... ... ... : ... .. . ... ... ... : ... .. . ... ... ... : ... .. . ... ... ... : D-4 04 . ... ... ... : C#4 04 . ... ... ... : ... .. . ... ... ...
ROW EE : G-3 00 A ... ... ... : ... .. . ... ... ... : B-5 00 . ... ... ... : ... .. . ... ... ... : ... .. . ... ... ... : ... .. . ... ... ... : ... .. . ... ... ... : ... .. . P82 ... ...
ROW EF : A#3 00 . ... ... ... : ... .. . ... ... ... : ... .. . ... ... ... : ... .. . ... ... ... : ... .. . ... ... ... : D-4 05 . ... ... ... : C#4 05 . ... ... ... : ... .. . P80 ... ...
ROW F0 : D#4 01 . ... ... ... : ... .. . ... ... ... : ... .. . ... ... ... : ... .. . ... ... ... : ... .. . ... ... ... : D-4 06 . ... ... ... : C#4 06 . ... ... ... : D#2 03 . P7E ... ...
ROW F1 : G-3 01 . ... ... ... : ... .. . ... ... ... : --- .. . ... ... ... : ... .. . ... ... ... : ... .. . ... ... ... : D-4 07 . ... ... ... : C#4 07 . ... ... ... : ... .. . P7C ... ...
ROW F2 : A#3 02 . ... ... ... : ... .. . ... ... ... : ... .. . ... ... ... : ... .. . ... ... ... : ... .. . ... ... ... : D-4 08 . ... ... ... : C#4 08 . ... ... ... : ... .. . ... ... ...
ROW F3 : D#4 02 . ... ... ... : ... .. . ... ... ... : ... .. . ... ... ... : ... .. . ... ... ... : ... .. . ... ... ... : D-4 09 . ... ... ... : C#4 09 . ... ... ... : ... .. . P7D ... ...
ROW F4 : G-3 00 . ... ... ... : ... .. . ... ... ... : A#5 00 . ... ... ... : C-# 00 C ... ... ... : D#1 0A . ... ... ... : D#4 03 . ... ... ... : C#4 03 . P85 ... ... : ... .. . P80 ... ...
ROW F5 : A#3 00 8 ... ... ... : ... .. . ... ... ... : ... .. . ... ... ... : ... .. B ... ... ... : ... .. . ... ... ... : ... .. . ... ... ... : D-4 03 . P7E ... ... : ... .. . P81 ... ...
ROW F6 : D#4 01 6 ... ... ... : ... .. . ... ... ... : ... .. . ... ... ... : ... .. 9 ... ... ... : ... .. . ... ... ... : ... .. . ... ... ... : ... .. . P80 ... ... : ... .. . P84 ... ...
ROW F7 : G-3 01 3 ... ... ... : ... .. . ... ... ... : ... .. . ... ... ... : ... .. 8 ... ... ... : ... .. . ... ... ... : ... .. . ... ... ... : ... .. . ... ... ... : ... .. . ... ... ...
ROW F8 : A#3 02 2 ... ... ... : ... .. . ... ... ... : ... .. . ... ... ... : --- .. . ... ... ... : ... .. . ... ... ... : ... .. . ... ... ... : ... .. . ... ... ... : ... .. . P83 ... ...
ROW F9 : D#4 02 1 ... ... ... : ... .. . ... ... ... : ... .. . ... ... ... : ... .. . ... ... ... : ... .. . ... ... ... : D#4 04 . ... ... ... : D-4 04 . ... ... ... : ... .. . P81 ... ...
ROW FA : --- .. . ... ... ... : ... .. . ... ... ... : D#6 00 . ... ... ... : ... .. . ... ... ... : ... .. . ... ... ... : ... .. . ... ... ... : ... .. . ... ... ... : ... .. . P80 ... ...
ROW FB : ... .. . ... ... ... : ... .. . ... ... ... : ... .. . ... ... ... : ... .. . ... ... ... : ... .. . ... ... ... : D#4 05 . ... ... ... : D-4 05 . ... ... ... : ... .. . P7D ... ...
ROW FC : ... .. . ... ... ... : ... .. . ... ... ... : ... .. . ... ... ... : ... .. . ... ... ... : ... .. . ... ... ... : D#4 06 . ... ... ... : D-4 06 . ... ... ... : D#3 03 . P7C ... ...
ROW FD : ... .. . ... ... ... : ... .. . ... ... ... : --- .. . ... ... ... : ... .. . ... ... ... : ... .. . ... ... ... : D#4 07 . ... ... ... : D-4 07 . ... ... ... : ... .. . ... ... ...
ROW FE : ... .. . ... ... ... : ... .. . ... ... ... : ... .. . ... ... ... : ... .. . ... ... ... : ... .. . ... ... ... : D#4 08 . ... ... ... : D-4 08 . ... ... ... : ... .. . P7E ... ...
ROW FF : ... .. . ... ... ... : ... .. . ... ... ... : ... .. . ... ... ... : ... .. . ... ... ... : ... .. . ... ... ... : D#4 09 . ... ... ... : D-4 09 . ... ... ... : ... .. . P80 ... ...

PATTERN 03
ROW 00 : ... .. . ... ... ... : ... .. . ... ... ... : G-5 00 . ... ... ... : C-# 00 C ... ... ... : ... .. . ... ... ... : C#4 03 . ... ... ... : D#4 03 . ... ... ... : ... .. . P82 ... ...
ROW 01 : ... .. . ... ... ... : ... .. . ... ... ... : ... .. . ... ... ... : ... .. B ... ... ... : ... .. . ... ... ... : ... .. . ... ... ... : ... .. . ... ... ... : ... .. . P84 ... ...
ROW 02 : ... .. . ... ... ... : ... .. . ... ... ... : ... .. . ... ... ... : ... .. 9 ... ... ... : ... .. . ... ... ... : ... .. . ... ... ... : ... .. . ... ... ... : ... .. . ... ... ...
ROW 03 : ... .. . ... ... ... : ... .. . ... ... ... : ... .. . ... ... ... : ... .. 8 ... ... ... : ... .. . ... ... ... : ... .. . ... ... ... : ... .. . ... ... ... : ... .. . P83 ... ...
ROW 04 : ... .. . ... ... ... : ... .. . ... ... ... : ... .. . ... ... ... : --- .. . ... ... ... : ... .. . ... ... ... : ... .. . ... ... ... : ... .. . ... ... ... : ... .. . P80 ... ...
ROW 05 : ... .. . ... ... ... : ... .. . ... ... ... : ... .. . ... ... ... : ... .. . ... ... ... : ... .. . ... ... ... : C#4 04 . ... ... ... : D#4 04 . ... ... ... : ... .. . P7F ... ...
ROW 06 : ... .. . ... ... ... : ... .. . ... ... ... : A#5 00 . ... ... ... : ... .. . ... ... ... : ... .. . ... ... ... : ... .. . ... ... ... : ... .. . ... ... ... : ... .. . P7C ... ...
ROW 07 : ... .. . ... ... ... : ... .. . ... ... ... : ... .. . ... ... ... : ... .. . ... ... ... : ... .. . ... ... ... : C#4 05 . ... ... ... : D#4 05 . ... ... ... : ... .. . ... ... ...
ROW 08 : ... .. . ... ... ... : ... .. . ... ... ... : ... .. . ... ... ... : ... .. . ... ... ... : ... .. . ... ... ... : C#4 06 . ... ... ... : D#4 06 . ... ... ... : G#1 03 . P7D ... ...
ROW 09 : ... .. . ... ... ... : ... .. . ... ... ... : --- .. . ... ... ... : ... .. . ... ... ... : ... .. . ... ... ... : C#4 07 . ... ... ... : D#4 07 . ... ... ... : ... .. . P7F ... ...
ROW 0A : ... .. . ... ... ... : ... .. . ... ... ... : ... .. . ... ... ... : ... .. . ... ... ... : ... .. . ... ... ... : C#4 08 . ... ... ... : D#4 08 . ... ... ... : ... .. . P80 ... ...
ROW 0B : ... .. . ... ... ... : ... .. . ... ... ... : ... .. . ... ... ... : ... .. . ... ... ... : ... .. . ... ... ... : C#4 09 . ... ... ... : D#4 09 . ... ... ... : ... .. . P83 ... ...
ROW 0C : G-3 00 8 ... ... ... : ... .. . ... ... ... : D#5 00 . ... ... ... : C-# 00 C ... ... ... : ... .. . ... ... ... : A#3 03 . ... ... ... : C#4 03 . ... ... ... : ... .. . P84 ... ...
ROW 0D : ... .. . ... ... ... : ... .. . ... ... ... : ... .. . ... ... ... : ... .. B ... ... ... : ... .. . ... ... ... : ... .. . ... ... ... : ... .. . ... ... ... : ... .. . ... ... ...
ROW 0E : A#3 01 . ... ... ... : ... .. . ... ... ... : ... .. . ... ... ... : ... .. 9 ... ... ... : ... .. . ... ... ... : ... .. . ... ... ... : ... .. . ... ... ... : ... .. . P82 ... ...
ROW 0F : ... .. . ... ... ... : ... .. . ... ... ... : ... .. . ... ... ... : ... .. 8 ... ... ... : ... .. . ... ... ... : ... .. . ... ... ... : ... .. . ... ... ... : ... .. . P80 ... ...
ROW 10 : D#4 02 . ... ... ... : ... .. . ... ... ... : ... .. . ... ... ... : --- .. . ... ... ... : ... .. . ... ... ... : ... .. . ... ... ... : ... .. . ... ... ... : ... .. . P7E ... ...
ROW 11 : ... .. . ... ... ... : ... .. . ... ... ... : ... .. . ... ... ... : ... .. . ... ... ... : ... .. . ... ... ... : A#3 04 . ... ... ... : C#4 04 . ... ... ... : ... .. . P7C ... ...
ROW 12 : G-3 00 A ... ... ... : ... .. . ... ... ... : G-5 00 . ... ... ... : ... .. . ... ... ... : ... .. . ... ... ... : ... .. . ... ... ... : ... .. . ... ... ... : ... .. . ... ... ...
ROW 13 : A#3 00 . ... ... ... : ... .. . ... ... ... : ... .. . ... ... ... : ... .. . ... ... ... : ... .. . ... ... ... : A#3 05 . ... ... ... : C#4 05 . ... ... ... : ... .. . P7D ... ...
ROW 14 : D#4 01 . ... ... ... : ... .. . ... ... ... : ... .. . ... ... ... : ... .. . ... ... ... : ... .. . ... ... ... : A#3 06 . ... ... ... : C#4 06 . ... ... ... : G#2 03 . P80 ... ...
ROW 15 : G-3 01 . ... ... ... : ... .. . ... ... ... : --- .. . ... ... ... : ... .. . ... ... ... : ... .. . ... ... ... : A#3 07 . ... ... ... : C#4 07 . ... ... ... : ... .. . P81 ... ...
ROW 16 : A#3 02 . ... ... ... : ... .. . ... ... ... : ... .. . ... ... ... : ... .. . ... ... ... : ... .. . ... ... ... : A#3 08 . ... ... ... : C#4 08 . ... ... ... : ... .. . P84 ... ...
ROW 17 : D#4 02 . ... ... ... : ... .. . ... ... ... : ... .. . ... ... ... : ... .. . ... ... ... : ... .. . ... ... ... : A#3 09 . ... ... ... : C#4 09 . ... ... ... : ... .. . ... ... ...
ROW 18 : G-3 00 . ... ... ... : ... .. . ... ... ... : B-4 00 . ... ... ... : A-# 00 A ... ... ... : C#1 0A . ... ... ... : A#3 03 . P84 ... ... : A#3 03 . ... ... ... : ... .. . P83 ... ...
ROW 19 : A#3 00 8 ... ... ... : ... .. . ... ... ... : ... .. . ... ... ... : ... .. 9 ... ... ... : ... .. . ... ... ... : B-3 03 . P7A ... ... : ... .. . ... ... ... : ... .. . P81 ... ...
ROW 1A : D#4 01 6 ... ... ... : ... .. . ... ... ... : ... .. . ... ... ... : ... .. 8 ... ... ... : ... .. . ... ... ... : ... .. . P7E ... ... : ... .. . ... ... ... : ... .. . P80 ... ...
ROW 1B : G-3 01 3 ... ... ... : ... .. . ... ... ... : ... .. . ... ... ... : ... .. 6 ... ... ... : ... .. . ... ... ... : ... .. . P80 ... ... : ... .. . ... ... ... : ... .. . P7D ... ...
ROW 1C : A#3 02 2 ... ... ... : ... .. . ... ... ... : ... .. . ... ... ... : --- .. . ... ... ... : ... .. . ... ... ... : ... .. . ... ... ... : ... .. . ... ... ... : ... .. . P7C ... ...
ROW 1D : D#4 02 1 ... ... ... : ... .. . ... ... ... : ... .. . ... ... ... : ... .. . ... ... ... : ... .. . ... ... ... : B-3 04 . ... ... ... : A#3 04 . ... ... ... : ... .. . ... ... ...
ROW 1E : --- .. . ... ... ... : ... .. . ... ... ... : D#5 00 . ... ... ... : ... .. . ... ... ... : ... .. . ... ... ... : ... .. . ... ... ... : ... .. . ... ... ... : ... .. . P7E ... ...
ROW 1F : ... .. . ... ... ... : ... .. . ... ... ... : ... .. . ... ... ... : ... .. . ... ... ... : ... .. . ... ... ... : B-3 05 . ... ... ... : A#3 05 . ... ... ... : ... .. . P80 ... ...
ROW 20 : ... .. . ... ... ... : ... .. . ... ... ... : ... .. . ... ... ... : ... .. . ... ... ... : ... .. . ... ... ... : B-3 06 . ... ... ... : A#3 06 . ... ... ... : G#1 03 5 P82 ... ...
ROW 21 : ... .. . ... ... ... : ... .. . ... ... ... : --- .. . ... ... ... : ... .. . ... ... ... : ... .. . ... ... ... : B-3 07 . ... ... ... : A#3 07 . ... ... ... : ... .. . P84 ... ...
ROW 22 : ... .. . ... ... ... : ... .. . ... ... ... : ... .. . ... ... ... : ... .. . ... ... ... : ... .. . ... ... ... : B-3 08 . ... ... ... : A#3 08 . ... ... ... : ... .. . ... ... ...
ROW 23 : ... .. . ... ... ... : ... .. . ... ... ... : ... .. . ... ... ... : ... .. . ... ... ... : ... .. . ... ... ... : B-3 09 . ... ... ... : A#3 09 . ... ... ... : ... .. . P83 ... ...
ROW 24 : E-3 00 8 ... ... ... : ... .. . ... ... ... : G#4 00 . ... ... ... : C-# 00 A ... ... ... : ... .. . ... ... ... : ... .. . ... ... ... : A#3 03 . P84 ... ... : ... .. . P80 ... ...
ROW 25 : ... .. . ... ... ... : ... .. . ... ... ... : ... .. . ... ... ... : ... .. 9 ... ... ... : ... .. . ... ... ... : ... .. . ... ... ... : B-3 03 . P7A ... ... : ... .. . P7F ... ...
ROW 26 : G#3 01 . ... ... ... : ... .. . ... ... ... : ... .. . ... ... ... : ... .. 8 ... ... ... : ... .. . ... ... ... : ... .. . ... ... ... : ... .. . P7E ... ... : ... .. . P7C ... ...
ROW 27 : ... .. 6 ... ... ... : ... .. . ... ... ... : ... .. . ... ... ... : ... .. 6 ... ... ... : ... .. . ... ... ... : ... .. . ... ... ... : ... .. . P80 ... ... : ... .. . ... ... ...
ROW 28 : B-3 02 4 ... ... ... : ... .. . ... ... ... : ... .. . ... ... ... : --- .. . ... ... ... : ... .. . ... ... ... : ... .. . ... ... ... : ... .. . ... ... ... : ... .. . P7D ... ...
ROW 29 : ... .. 2 ... ... ... : ... .. . ... ... ... : ... .. . ... ... ... : ... .. . ... ... ... : ... .. . ... ... ... : ... .. . ... ... ... : B-3 04 . ... ... ... : ... .. . P7F ... ...
ROW 2A : E-3 00 1 ... ... ... : ... .. . ... ... ... : B-4 00 . ... ... ... : ... .. . ... ... ... : ... .. . ... ... ... : ... .. . ... ... ... : ... .. . ... ... ... : ... .. . P80 ... ...
ROW 2B : G#3 00 . ... ... ... : ... .. . ... ... ... : ... .. . ... ... ... : ... .. . ... ... ... : ... .. . ... ... ... : ... .. . ... ... ... : B-3 05 . ... ... ... : ... .. . P83 ... ...
ROW 2C : --- .. . ... ... ... : ... .. . ... ... ... : ... .. . ... ... ... : ... .. . ... ... ... : ... .. . ... ... ... : ... .. . ... ... ... : B-3 06 . ... ... ... : G#2 03 . P84 ... ...
ROW 2D : ... .. . ... ... ... : ... .. . ... ... ... : --- .. . ... ... ... : ... .. . ... ... ... : ... .. . ... ... ... : ... .. . ... ... ... : B-3 07 . ... ... ... : ... .. . ... ... ...
ROW 2E : ... .. . ... ... ... : ... .. . ... ... ... : ... .. . ... ... ... : ... .. . ... ... ... : ... .. . ... ... ... : ... .. . ... ... ... : B-3 08 . ... ... ... : ... .. . P82 ... ...
ROW 2F : ... .. . ... ... ... : ... .. . ... ... ... : ... .. . ... ... ... : ... .. . ... ... ... : ... .. . ... ... ... : ... .. . ... ... ... : B-3 09 . ... ... ... : ... .. . P80 ... ...
ROW 30 : G-3 00 8 ... ... ... : ... .. . ... ... ... : D#4 00 . ... ... ... : A-# 00 B ... ... ... : D-1 0A . ... ... ... : A#3 03 . ... ... ... : ... .. . ... ... ... : ... .. . P7E ... ...
ROW 31 : ... .. . ... ... ... : ... .. . ... ... ... : ... .. . ... ... ... : ... .. A ... ... ... : ... .. . ... ... ... : ... .. . ... ... ... : ... .. . ... ... ... : ... .. . P7C ... ...
ROW 32 : A#3 01 . ... ... ... : ... .. . ... ... ... : ... .. . ... ... ... : ... .. 8 ... ... ... : ... .. . ... ... ... : ... .. . ... ... ... : ... .. . ... ... ... : ... .. . ... ... ...
ROW 33 : ... .. . ... ... ... : ... .. . ... ... ... : ... .. . ... ... ... : ... .. 7 ... ... ... : ... .. . ... ... ... : ... .. . ... ... ... : ... .. . ... ... ... : ... .. . P7D ... ...
ROW 34 : D#4 02 . ... ... ... : ... .. . ... ... ... : ... .. . ... ... ... : --- .. . ... ... ... : ... .. . ... ... ... : ... .. . ... ... ... : ... .. . ... ... ... : ... .. . P80 ... ...
ROW 35 : ... .. . ... ... ... : ... .. . ... ... ... : ... .. . ... ... ... : ... .. . ... ... ... : ... .. . ... ... ... : A#3 04 . ... ... ... : ... .. . ... ... ... : ... .. . P81 ... ...
ROW 36 : --- .. . ... ... ... : ... .. . ... ... ... : G#4 00 . ... ... ... : ... .. . ... ... ... : ... .. . ... ... ... : ... .. . ... ... ... : ... .. . ... ... ... : ... .. . P84 ... ...
ROW 37 : ... .. . ... ... ... : ... .. . ... ... ... : ... .. . ... ... ... : ... .. . ... ... ... : ... .. . ... ... ... : A#3 05 . ... ... ... : ... .. . ... ... ... : ... .. . ... ... ...
ROW 38 : ... .. . ... ... ... : ... .. . ... ... ... : ... .. . ... ... ... : ... .. . ... ... ... : ... .. . ... ... ... : A#3 06 . ... ... ... : ... .. . ... ... ... : G#1 03 4 P83 ... ...
ROW 39 : ... .. . ... ... ... : ... .. . ... ... ... : --- .. . ... ... ... : ... .. . ... ... ... : ... .. . ... ... ... : A#3 07 . ... ... ... : ... .. . ... ... ... : ... .. . P81 ... ...
ROW 3A : ... .. . ... ... ... : ... .. . ... ... ... : ... .. . ... ... ... : ... .. . ... ... ... : ... .. . ... ... ... : A#3 08 . ... ... ... : ... .. . ... ... ... : ... .. . P80 ... ...
ROW 3B : ... .. . ... ... ... : ... .. . ... ... ... : ... .. . ... ... ... : ... .. . ... ... ... : ... .. . ... ... ... : A#3 09 . ... ... ... : ... .. . ... ... ... : ... .. . P7D ... ...
ROW 3C : G-3 00 . ... ... ... : ... .. . ... ... ... : A#3 00 . ... ... ... : C-# 00 B ... ... ... : ... .. . ... ... ... : ... .. . ... ... ... : A#3 03 . ... ... ... : ... .. . P7C ... ...
ROW 3D : ... .. . ... ... ... : ... .. . ... ... ... : ... .. . ... ... ... : ... .. A ... ... ... : ... .. . ... ... ... : ... .. . ... ... ... : ... .. . ... ... ... : ... .. . ... ... ...
ROW 3E : A#3 01 . ... ... ... : ... .. . ... ... ... : ... .. . ... ... ... : ... .. 8 ... ... ... : ... .. . ... ... ... : ... .. . ... ... ... : ... .. . ... ... ... : ... .. . P7E ... ...
ROW 3F : ... .. . ... ... ... : ... .. . ... ... ... : ... .. . ... ... ... : ... .. 7 ... ... ... : ... .. . ... ... ... : ... .. . ... ... ... : ... .. . ... ... ... : ... .. . P80 ... ...
ROW 40 : D#4 02 . ... ... ... : ... .. . ... ... ... : ... .. . ... ... ... : --- .. . ... ... ... : ... .. . ... ... ... : ... .. . ... ... ... : ... .. . ... ... ... : ... .. . P82 ... ...
ROW 41 : ... .. . ... ... ... : ... .. . ... ... ... : ... .. . ... ... ... : ... .. . ... ... ... : ... .. . ... ... ... : ... .. . ... ... ... : A#3 04 . ... ... ... : ... .. . P84 ... ...
ROW 42 : G-3 00 A ... ... ... : ... .. . ... ... ... : D#4 00 . ... ... ... : ... .. . ... ... ... : ... .. . ... ... ... : ... .. . ... ... ... : ... .. . ... ... ... : ... .. . ... ... ...
ROW 43 : A#3 00 . ... ... ... : ... .. . ... ... ... : ... .. . ... ... ... : ... .. . ... ... ... : ... .. . ... ... ... : ... .. . ... ... ... : A#3 05 . ... ... ... : ... .. . P83 ... ...
ROW 44 : D#4 01 . ... ... ... : ... .. . ... ... ... : ... .. . ... ... ... : ... .. . ... ... ... : ... .. . ... ... ... : ... .. . ... ... ... : A#3 06 . ... ... ... : G#2 03 . P80 ... ...
ROW 45 : G-3 01 . ... ... ... : ... .. . ... ... ... : --- .. . ... ... ... : ... .. . ... ... ... : ... .. . ... ... ... : ... .. . ... ... ... : A#3 07 . ... ... ... : ... .. . P7F ... ...
ROW 46 : A#3 02 . ... ... ... : ... .. . ... ... ... : ... .. . ... ... ... : ... .. . ... ... ... : ... .. . ... ... ... : ... .. . ... ... ... : A#3 08 . ... ... ... : ... .. . P7C ... ...
ROW 47 : D#4 02 . ... ... ... : ... .. . ... ... ... : ... .. . ... ... ... : ... .. . ... ... ... : ... .. . ... ... ... : ... .. . ... ... ... : A#3 09 . ... ... ... : ... .. . ... ... ...
ROW 48 : G#3 00 8 ... ... ... : ... .. . ... ... ... : G#3 00 . ... ... ... : A-# 00 C ... ... ... : C-1 0A . ... ... ... : G#3 03 . ... ... ... : ... .. . ... ... ... : ... .. . P7D ... ...
ROW 49 : ... .. . ... ... ... : ... .. . ... ... ... : ... .. . ... ... ... : ... .. B ... ... ... : ... .. . ... ... ... : ... .. . ... ... ... : ... .. . ... ... ... : ... .. . P7F ... ...
ROW 4A : B-3 01 . ... ... ... : ... .. . ... ... ... : ... .. . ... ... ... : ... .. 9 ... ... ... : ... .. . ... ... ... : ... .. . ... ... ... : ... .. . ... ... ... : ... .. . P80 ... ...
ROW 4B : ... .. . ... ... ... : ... .. . ... ... ... : ... .. . ... ... ... : ... .. 8 ... ... ... : ... .. . ... ... ... : ... .. . ... ... ... : ... .. . ... ... ... : ... .. . P83 ... ...
ROW 4C : D#4 02 . ... ... ... : ... .. . ... ... ... : ... .. . ... ... ... : --- .. . ... ... ... : ... .. . ... ... ... : ... .. . ... ... ... : ... .. . ... ... ... : ... .. . P84 ... ...
ROW 4D : ... .. . ... ... ... : ... .. . ... ... ... : ... .. . ... ... ... : ... .. . ... ... ... : ... .. . ... ... ... : G#3 04 . ... ... ... : ... .. . ... ... ... : ... .. . ... ... ...
ROW 4E : G#3 00 A ... ... ... : ... .. . ... ... ... : A#3 00 . ... ... ... : ... .. . ... ... ... : ... .. . ... ... ... : ... .. . ... ... ... : ... .. . ... ... ... : ... .. . P82 ... ...
ROW 4F : B-3 00 . ... ... ... : ... .. . ... ... ... : ... .. . ... ... ... : ... .. . ... ... ... : ... .. . ... ... ... : G#3 05 . ... ... ... : ... .. . ... ... ... : ... .. . P80 ... ...
ROW 50 : D#4 01 . ... ... ... : ... .. . ... ... ... : ... .. . ... ... ... : ... .. . ... ... ... : ... .. . ... ... ... : G#3 06 . ... ... ... : ... .. . ... ... ... : G#1 03 . P7E ... ...
ROW 51 : G#3 01 . ... ... ... : ... .. . ... ... ... : --- .. . ... ... ... : ... .. . ... ... ... : ... .. . ... ... ... : G#3 07 . ... ... ... : ... .. . ... ... ... : ... .. . P7C ... ...
ROW 52 : B-3 02 . ... ... ... : ... .. . ... ... ... : ... .. . ... ... ... : ... .. . ... ... ... : ... .. . ... ... ... : G#3 08 . ... ... ... : ... .. . ... ... ... : ... .. . ... ... ...
ROW 53 : D#4 02 . ... ... ... : ... .. . ... ... ... : ... .. . ... ... ... : ... .. . ... ... ... : ... .. . ... ... ... : G#3 09 . ... ... ... : ... .. . ... ... ... : ... .. . P7D ... ...
ROW 54 : G#3 00 . ... ... ... : ... .. . ... ... ... : B-3 00 . ... ... ... : C-# 00 C ... ... ... : C-1 0A . ... ... ... : G-3 03 . ... ... ... : G#3 03 . ... ... ... : ... .. . P80 ... ...
ROW 55 : B-3 00 8 ... ... ... : ... .. . ... ... ... : ... .. . ... ... ... : ... .. B ... ... ... : ... .. . ... ... ... : ... .. . ... ... ... : ... .. . ... ... ... : ... .. . P81 ... ...
ROW 56 : D#4 01 6 ... ... ... : ... .. . ... ... ... : ... .. . ... ... ... : ... .. 9 ... ... ... : ... .. . ... ... ... : ... .. . ... ... ... : ... .. . ... ... ... : ... .. . P84 ... ...
ROW 57 : G#3 01 3 ... ... ... : ... .. . ... ... ... : ... .. . ... ... ... : ... .. 8 ... ... ... : ... .. . ... ... ... : ... .. . ... ... ... : ... .. . ... ... ... : ... .. . ... ... ...
ROW 58 : B-3 02 2 ... ... ... : ... .. . ... ... ... : ... .. . ... ... ... : --- .. . ... ... ... : ... .. . ... ... ... : ... .. . ... ... ... : ... .. . ... ... ... : ... .. . P83 ... ...
ROW 59 : D#4 02 1 ... ... ... : ... .. . ... ... ... : ... .. . ... ... ... : ... .. . ... ... ... : ... .. . ... ... ... : G-3 04 . ... ... ... : G#3 04 . ... ... ... : ... .. . P81 ... ...
ROW 5A : --- .. . ... ... ... : ... .. . ... ... ... : G#3 00 . ... ... ... : ... .. . ... ... ... : ... .. . ... ... ... : ... .. . ... ... ... : ... .. . ... ... ... : ... .. . P80 ... ...
ROW 5B : ... .. . ... ... ... : ... .. . ... ... ... : ... .. . ... ... ... : ... .. . ... ... ... : ... .. . ... ... ... : G-3 05 . ... ... ... : G#3 05 . ... ... ... : ... .. . P7D ... ...
ROW 5C : ... .. . ... ... ... : ... .. . ... ... ... : ... .. . ... ... ... : ... .. . ... ... ... : ... .. . ... ... ... : G-3 06 . ... ... ... : G#3 06 . ... ... ... : G#2 03 . P7C ... ...
ROW 5D : ... .. . ... ... ... : ... .. . ... ... ... : --- .. . ... ... ... : ... .. . ... ... ... : ... .. . ... ... ... : G-3 07 . ... ... ... : G#3 07 . ... ... ... : ... .. . ... ... ...
ROW 5E : ... .. . ... ... ... : ... .. . ... ... ... : ... .. . ... ... ... : ... .. . ... ... ... : ... .. . ... ... ... : G-3 08 . ... ... ... : G#3 08 . ... ... ... : ... .. . P7E ... ...
ROW 5F : ... .. . ... ... ... : ... .. . ... ... ... : ... .. . ... ... ... : ... .. . ... ... ... : ... .. . ... ... ... : G-3 09 . ... ... ... : G#3 09 . ... ... ... : ... .. . P80 ... ...
ROW 60 : ... .. . ... ... ... : ... .. . ... ... ... : D#4 00 . ... ... ... : C-# 00 C ... ... ... : D#1 0A . ... ... ... : G#3 03 . ... ... ... : G-3 03 . ... ... ... : ... .. . P82 ... ...
ROW 61 : ... .. . ... ... ... : ... .. . ... ... ... : ... .. . ... ... ... : ... .. B ... ... ... : ... .. . ... ... ... : ... .. . ... ... ... : ... .. . ... ... ... : ... .. . P84 ... ...
ROW 62 : ... .. . ... ... ... : ... .. . ... ... ... : ... .. . ... ... ... : ... .. 9 ... ... ... : ... .. . ... ... ... : ... .. . ... ... ... : ... .. . ... ... ... : ... .. . ... ... ...
ROW 63 : ... .. . ... ... ... : ... .. . ... ... ... : ... .. . ... ... ... : ... .. 8 ... ... ... : ... .. . ... ... ... : ... .. . ... ... ... : ... .. . ... ... ... : ... .. . P83 ... ...
ROW 64 : ... .. . ... ... ... : ... .. . ... ... ... : ... .. . ... ... ... : --- .. . ... ... ... : ... .. . ... ... ... : ... .. . ... ... ... : ... .. . ... ... ... : ... .. . P80 ... ...
ROW 65 : ... .. . ... ... ... : ... .. . ... ... ... : ... .. . ... ... ... : ... .. . ... ... ... : ... .. . ... ... ... : G#3 04 . ... ... ... : G-3 04 . ... ... ... : ... .. . P7F ... ...
ROW 66 : ... .. . ... ... ... : ... .. . ... ... ... : B-3 00 . ... ... ... : ... .. . ... ... ... : ... .. . ... ... ... : ... .. . ... ... ... : ... .. . ... ... ... : ... .. . P7C ... ...
ROW 67 : ... .. . ... ... ... : ... .. . ... ... ... : ... .. . ... ... ... : ... .. . ... ... ... : ... .. . ... ... ... : G#3 05 . ... ... ... : G-3 05 . ... ... ... : ... .. . ... ... ...
ROW 68 : ... .. . ... ... ... : ... .. . ... ... ... : ... .. . ... ... ... : ... .. . ... ... ... : ... .. . ... ... ... : G#3 06 . ... ... ... : G-3 06 . ... ... ... : G-1 03 . P7D ... ...
ROW 69 : ... .. . ... ... ... : ... .. . ... ... ... : --- .. . ... ... ... : ... .. . ... ... ... : ... .. . ... ... ... : G#3 07 . ... ... ... : G-3 07 . ... ... ... : ... .. . P7F ... ...
ROW 6A : ... .. . ... ... ... : ... .. . ... ... ... : ... .. . ... ... ... : ... .. . ... ... ... : ... .. . ... ... ... : G#3 08 . ... ... ... : G-3 08 . ... ... ... : ... .. . P80 ... ...
ROW 6B : ... .. . ... ... ... : ... .. . ... ... ... : ... .. . ... ... ... : ... .. . ... ... ... : ... .. . ... ... ... : G#3 09 . ... ... ... : G-3 09 . ... ... ... : ... .. . P83 ... ...
ROW 6C : G#3 00 8 ... ... ... : ... .. . ... ... ... : G#4 00 . ... ... ... : C-# 00 C ... ... ... : ... .. . ... ... ... : A#3 03 . ... ... ... : G#3 03 . ... ... ... : ... .. . P84 ... ...
ROW 6D : ... .. . ... ... ... : ... .. . ... ... ... : ... .. . ... ... ... : ... .. B ... ... ... : ... .. . ... ... ... : ... .. . ... ... ... : ... .. . ... ... ... : ... .. . ... ... ...
ROW 6E : B-3 01 . ... ... ... : ... .. . ... ... ... : ... .. . ... ... ... : ... .. 9 ... ... ... : ... .. . ... ... ... : ... .. . ... ... ... : ... .. . ... ... ... : ... .. . P82 ... ...
ROW 6F : ... .. . ... ... ... : ... .. . ... ... ... : ... .. . ... ... ... : ... .. 8 ... ... ... : ... .. . ... ... ... : ... .. . ... ... ... : ... .. . ... ... ... : ... .. . P80 ... ...
ROW 70 : D#4 02 . ... ... ... : ... .. . ... ... ... : ... .. . ... ... ... : --- .. . ... ... ... : ... .. . ... ... ... : ... .. . ... ... ... : ... .. . ... ... ... : ... .. . P7E ... ...
ROW 71 : ... .. . ... ... ... : ... .. . ... ... ... : ... .. . ... ... ... : ... .. . ... ... ... : ... .. . ... ... ... : A#3 04 . ... ... ... : G#3 04 . ... ... ... : ... .. . P7C ... ...
ROW 72 : G#3 00 A ... ... ... : ... .. . ... ... ... : D#4 00 . ... ... ... : ... .. . ... ... ... : ... .. . ... ... ... : ... .. . ... ... ... : ... .. . ... ... ... : ... .. . ... ... ...
ROW 73 : B-3 00 . ... ... ... : ... .. . ... ... ... : ... .. . ... ... ... : ... .. . ... ... ... : ... .. . ... ... ... : A#3 05 . ... ... ... : G#3 05 . ... ... ... : ... .. . P7D ... ...
ROW 74 : D#4 01 . ... ... ... : ... .. . ... ... ... : ... .. . ... ... ... : ... .. . ... ... ... : ... .. . ... ... ... : A#3 06 . ... ... ... : G#3 06 . ... ... ... : G-2 03 . P80 ... ...
ROW 75 : G#3 01 . ... ... ... : ... .. . ... ... ... : --- .. . ... ... ... : ... .. . ... ... ... : ... .. . ... ... ... : A#3 07 . ... ... ... : G#3 07 . ... ... ... : ... .. . P81 ... ...
ROW 76 : B-3 02 . ... ... ... : ... .. . ... ... ... : ... .. . ... ... ... : ... .. . ... ... ... : ... .. . ... ... ... : A#3 08 . ... ... ... : G#3 08 . ... ... ... : ... .. . P84 ... ...
ROW 77 : D#4 02 . ... ... ... : ... .. . ... ... ... : ... .. . ... ... ... : ... .. . ... ... ... : ... .. . ... ... ... : A#3 09 . ... ... ... : G#3 09 . ... ... ... : ... .. . ... ... ...
ROW 78 : G#3 00 . ... ... ... : ... .. . ... ... ... : B-4 00 . ... ... ... : A-# 00 A ... ... ... : D#1 0A . ... ... ... : B-3 03 . ... ... ... : A#3 03 . ... ... ... : ... .. . P83 ... ...
ROW 79 : B-3 00 8 ... ... ... : ... .. . ... ... ... : ... .. . ... ... ... : ... .. 9 ... ... ... : ... .. . ... ... ... : ... .. . ... ... ... : ... .. . ... ... ... : ... .. . P81 ... ...
ROW 7A : D#4 01 6 ... ... ... : ... .. . ... ... ... : ... .. . ... ... ... : ... .. 8 ... ... ... : ... .. . ... ... ... : ... .. . ... ... ... : ... .. . ... ... ... : ... .. . P80 ... ...
ROW 7B : G#3 01 3 ... ... ... : ... .. . ... ... ... : ... .. . ... ... ... : ... .. 6 ... ... ... : ... .. . ... ... ... : ... .. . ... ... ... : ... .. . ... ... ... : ... .. . P7D ... ...
ROW 7C : B-3 02 2 ... ... ... : ... .. . ... ... ... : ... .. . ... ... ... : --- .. . ... ... ... : ... .. . ... ... ... : ... .. . ... ... ... : ... .. . ... ... ... : ... .. . P7C ... ...
ROW 7D : D#4 02 1 ... ... ... : ... .. . ... ... ... : ... .. . ... ... ... : ... .. . ... ... ... : ... .. . ... ... ... : B-3 04 . ... ... ... : A#3 04 . ... ... ... : ... .. . ... ... ...
ROW 7E : --- .. . ... ... ... : ... .. . ... ... ... : G#4 00 . ... ... ... : ... .. . ... ... ... : ... .. . ... ... ... : ... .. . ... ... ... : ... .. . ... ... ... : ... .. . P7E ... ...
ROW 7F : ... .. . ... ... ... : ... .. . ... ... ... : ... .. . ... ... ... : ... .. . ... ... ... : ... .. . ... ... ... : B-3 05 . ... ... ... : A#3 05 . ... ... ... : ... .. . P80 ... ...
ROW 80 : ... .. . ... ... ... : ... .. . ... ... ... : ... .. . ... ... ... : ... .. . ... ... ... : ... .. . ... ... ... : B-3 06 . ... ... ... : A#3 06 . ... ... ... : G-1 03 . P82 ... ...
ROW 81 : ... .. . ... ... ... : ... .. . ... ... ... : --- .. . ... ... ... : ... .. . ... ... ... : ... .. . ... ... ... : B-3 07 . ... ... ... : A#3 07 . ... ... ... : ... .. . P84 ... ...
ROW 82 : ... .. . ... ... ... : ... .. . ... ... ... : ... .. . ... ... ... : ... .. . ... ... ... : ... .. . ... ... ... : B-3 08 . ... ... ... : A#3 08 . ... ... ... : ... .. . ... ... ...
ROW 83 : ... .. . ... ... ... : ... .. . ... ... ... : ... .. . ... ... ... : ... .. . ... ... ... : ... .. . ... ... ... : B-3 09 . ... ... ... : A#3 09 . ... ... ... : ... .. . P83 ... ...
ROW 84 : G#3 00 8 ... ... ... : ... .. . ... ... ... : E-5 00 . ... ... ... : C-# 00 A ... ... ... : ... .. . ... ... ... : A#3 03 . ... ... ... : B-3 03 . ... ... ... : ... .. . P80 ... ...
ROW 85 : ... .. . ... ... ... : ... .. . ... ... ... : ... .. . ... ... ... : ... .. 9 ... ... ... : ... .. . ... ... ... : ... .. . ... ... ... : ... .. . ... ... ... : ... .. . P7F ... ...
ROW 86 : B-3 01 . ... ... ... : ... .. . ... ... ... : ... .. . ... ... ... : ... .. 8 ... ... ... : ... .. . ... ... ... : ... .. . ... ... ... : ... .. . ... ... ... : ... .. . P7C ... ...
ROW 87 : ... .. 6 ... ... ... : ... .. . ... ... ... : ... .. . ... ... ... : ... .. 6 ... ... ... : ... .. . ... ... ... : ... .. . ... ... ... : ... .. . ... ... ... : ... .. . ... ... ...
ROW 88 : E-4 02 4 ... ... ... : ... .. . ... ... ... : ... .. . ... ... ... : --- .. . ... ... ... : ... .. . ... ... ... : ... .. . ... ... ... : ... .. . ... ... ... : ... .. . P7D ... ...
ROW 89 : ... .. 2 ... ... ... : ... .. . ... ... ... : ... .. . ... ... ... : ... .. . ... ... ... : ... .. . ... ... ... : A#3 04 . ... ... ... : B-3 04 . ... ... ... : ... .. . P7F ... ...
ROW 8A : G#3 00 1 ... ... ... : ... .. . ... ... ... : B-4 00 . ... ... ... : ... .. . ... ... ... : ... .. . ... ... ... : ... .. . ... ... ... : ... .. . ... ... ... : ... .. . P80 ... ...
ROW 8B : B-3 00 . ... ... ... : ... .. . ... ... ... : ... .. . ... ... ... : ... .. . ... ... ... : ... .. . ... ... ... : A#3 05 . ... ... ... : B-3 05 . ... ... ... : ... .. . P83 ... ...
ROW 8C : --- .. . ... ... ... : ... .. . ... ... ... : ... .. . ... ... ... : ... .. . ... ... ... : ... .. . ... ... ... : A#3 06 . ... ... ... : B-3 06 . ... ... ... : G-2 03 . P84 ... ...
ROW 8D : ... .. . ... ... ... : ... .. . ... ... ... : --- .. . ... ... ... : ... .. . ... ... ... : ... .. . ... ... ... : A#3 07 . ... ... ... : B-3 07 . ... ... ... : ... .. . ... ... ...
ROW 8E : ... .. . ... ... ... : ... .. . ... ... ... : ... .. . ... ... ... : ... .. . ... ... ... : ... .. . ... ... ... : A#3 08 . ... ... ... : B-3 08 . ... ... ... : ... .. . P82 ... ...
ROW 8F : ... .. . ... ... ... : ... .. . ... ... ... : ... .. . ... ... ... : ... .. . ... ... ... : ... .. . ... ... ... : A#3 09 . ... ... ... : B-3 09 . ... ... ... : ... .. . P80 ... ...
ROW 90 : G#3 00 8 ... ... ... : ... .. . ... ... ... : G#5 00 . ... ... ... : A-# 00 B ... ... ... : C-1 0A . ... ... ... : G#3 03 . ... ... ... : A#3 03 . ... ... ... : ... .. . P7E ... ...
ROW 91 : ... .. . ... ... ... : ... .. . ... ... ... : ... .. . ... ... ... : ... .. A ... ... ... : ... .. . ... ... ... : ... .. . ... ... ... : ... .. . ... ... ... : ... .. . P7C ... ...
ROW 92 : B-3 01 . ... ... ... : ... .. . ... ... ... : ... .. . ... ... ... : ... .. 8 ... ... ... : ... .. . ... ... ... : ... .. . ... ... ... : ... .. . ... ... ... : ... .. . ... ... ...
ROW 93 : ... .. . ... ... ... : ... .. . ... ... ... : ... .. . ... ... ... : ... .. 7 ... ... ... : ... .. . ... ... ... : ... .. . ... ... ... : ... .. . ... ... ... : ... .. . P7D ... ...
ROW 94 : E-4 02 . ... ... ... : ... .. . ... ... ... : ... .. . ... ... ... : --- .. . ... ... ... : ... .. . ... ... ... : ... .. . ... ... ... : ... .. . ... ... ... : ... .. . P80 ... ...
ROW 95 : ... .. . ... ... ... : ... .. . ... ... ... : ... .. . ... ... ... : ... .. . ... ... ... : ... .. . ... ... ... : G#3 04 . ... ... ... : A#3 04 . ... ... ... : ... .. . P81 ... ...
ROW 96 : --- .. . ... ... ... : ... .. . ... ... ... : E-5 00 . ... ... ... : ... .. . ... ... ... : ... .. . ... ... ... : ... .. . ... ... ... : ... .. . ... ... ... : ... .. . P84 ... ...
ROW 97 : ... .. . ... ... ... : ... .. . ... ... ... : ... .. . ... ... ... : ... .. . ... ... ... : ... .. . ... ... ... : G#3 05 . ... ... ... : A#3 05 . ... ... ... : ... .. . ... ... ...
ROW 98 : ... .. . ... ... ... : ... .. . ... ... ... : ... .. . ... ... ... : ... .. . ... ... ... : ... .. . ... ... ... : G#3 06 . ... ... ... : A#3 06 . ... ... ... : E-1 03 . P83 ... ...
ROW 99 : ... .. . ... ... ... : ... .. . ... ... ... : --- .. . ... ... ... : ... .. . ... ... ... : ... .. . ... ... ... : G#3 07 . ... ... ... : A#3 07 . ... ... ... : ... .. . P81 ... ...
ROW 9A : ... .. . ... ... ... : ... .. . ... ... ... : ... .. . ... ... ... : ... .. . ... ... ... : ... .. . ... ... ... : G#3 08 . ... ... ... : A#3 08 . ... ... ... : ... .. . P80 ... ...
ROW 9B : ... .. . ... ... ... : ... .. . ... ... ... : ... .. . ... ... ... : ... .. . ... ... ... : ... .. . ... ... ... : G#3 09 . ... ... ... : A#3 09 . ... ... ... : ... .. . P7D ... ...
ROW 9C : G#3 00 . ... ... ... : ... .. . ... ... ... : B-5 00 . ... ... ... : C-# 00 B ... ... ... : ... .. . ... ... ... : G-3 03 . ... ... ... : G#3 03 . ... ... ... : ... .. . P7C ... ...
ROW 9D : ... .. . ... ... ... : ... .. . ... ... ... : ... .. . ... ... ... : ... .. A ... ... ... : ... .. . ... ... ... : ... .. . ... ... ... : ... .. . ... ... ... : ... .. . ... ... ...
ROW 9E : B-3 01 . ... ... ... : ... .. . ... ... ... : ... .. . ... ... ... : ... .. 8 ... ... ... : ... .. . ... ... ... : ... .. . ... ... ... : ... .. . ... ... ... : ... .. . P7E ... ...
ROW 9F : ... .. . ... ... ... : ... .. . ... ... ... : ... .. . ... ... ... : ... .. 7 ... ... ... : ... .. . ... ... ... : ... .. . ... ... ... : ... .. . ... ... ... : ... .. . P80 ... ...
ROW A0 : E-4 02 . ... ... ... : ... .. . ... ... ... : ... .. . ... ... ... : --- .. . ... ... ... : ... .. . ... ... ... : ... .. . ... ... ... : ... .. . ... ... ... : ... .. . P82 ... ...
ROW A1 : ... .. . ... ... ... : ... .. . ... ... ... : ... .. . ... ... ... : ... .. . ... ... ... : ... .. . ... ... ... : G-3 04 . ... ... ... : G#3 04 . ... ... ... : ... .. . P84 ... ...
ROW A2 : G#3 00 A ... ... ... : ... .. . ... ... ... : G#5 00 . ... ... ... : ... .. . ... ... ... : ... .. . ... ... ... : ... .. . ... ... ... : ... .. . ... ... ... : ... .. . ... ... ...
ROW A3 : B-3 00 . ... ... ... : ... .. . ... ... ... : ... .. . ... ... ... : ... .. . ... ... ... : ... .. . ... ... ... : G-3 05 . ... ... ... : G#3 05 . ... ... ... : ... .. . P83 ... ...
ROW A4 : E-4 01 . ... ... ... : ... .. . ... ... ... : ... .. . ... ... ... : ... .. . ... ... ... : ... .. . ... ... ... : G-3 06 . ... ... ... : G#3 06 . ... ... ... : E-2 03 . P80 ... ...
ROW A5 : G#3 01 . ... ... ... : ... .. . ... ... ... : --- .. . ... ... ... : ... .. . ... ... ... : ... .. . ... ... ... : G-3 07 . ... ... ... : G#3 07 . ... ... ... : ... .. . P7F ... ...
ROW A6 : B-3 02 . ... ... ... : ... .. . ... ... ... : ... .. . ... ... ... : ... .. . ... ... ... : ... .. . ... ... ... : G-3 08 . ... ... ... : G#3 08 . ... ... ... : ... .. . P7C ... ...
ROW A7 : E-4 02 . ... ... ... : ... .. . ... ... ... : ... .. . ... ... ... : ... .. . ... ... ... : ... .. . ... ... ... : G-3 09 . ... ... ... : G#3 09 . ... ... ... : ... .. . ... ... ...
ROW A8 : G-3 00 8 ... ... ... : ... .. . ... ... ... : D#6 00 . ... ... ... : A-# 00 C ... ... ... : C-1 0A . ... ... ... : E-3 03 . ... ... ... : G-3 03 . ... ... ... : ... .. . P7D ... ...
ROW A9 : ... .. . ... ... ... : ... .. . ... ... ... : ... .. . ... ... ... : ... .. B ... ... ... : ... .. . ... ... ... : ... .. . ... ... ... : ... .. . ... ... ... : ... .. . P7F ... ...
ROW AA : A#3 01 . ... ... ... : ... .. . ... ... ... : ... .. . ... ... ... : ... .. 9 ... ... ... : ... .. . ... ... ... : ... .. . ... ... ... : ... .. . ... ... ... : ... .. . P80 ... ...
ROW AB : ... .. . ... ... ... : ... .. . ... ... ... : ... .. . ... ... ... : ... .. 8 ... ... ... : ... .. . ... ... ... : ... .. . ... ... ... : ... .. . ... ... ... : ... .. . P83 ... ...
ROW AC : D#4 02 . ... ... ... : ... .. . ... ... ... : ... .. . ... ... ... : --- .. . ... ... ... : ... .. . ... ... ... : ... .. . ... ... ... : ... .. . ... ... ... : ... .. . P84 ... ...
ROW AD : ... .. . ... ... ... : ... .. . ... ... ... : ... .. . ... ... ... : ... .. . ... ... ... : ... .. . ... ... ... : E-3 04 . ... ... ... : G-3 04 . ... ... ... : ... .. . ... ... ...
ROW AE : G-3 00 A ... ... ... : ... .. . ... ... ... : B-5 00 . ... ... ... : ... .. . ... ... ... : ... .. . ... ... ... : ... .. . ... ... ... : ... .. . ... ... ... : ... .. . P82 ... ...
ROW AF : A#3 00 . ... ... ... : ... .. . ... ... ... : ... .. . ... ... ... : ... .. . ... ... ... : ... .. . ... ... ... : E-3 05 . ... ... ... : G-3 05 . ... ... ... : ... .. . P80 ... ...
ROW B0 : D#4 01 . ... ... ... : ... .. . ... ... ... : ... .. . ... ... ... : ... .. . ... ... ... : ... .. . ... ... ... : E-3 06 . ... ... ... : G-3 06 . ... ... ... : D#1 03 . P7E ... ...
ROW B1 : G-3 01 . ... ... ... : ... .. . ... ... ... : --- .. . ... ... ... : ... .. . ... ... ... : ... .. . ... ... ... : E-3 07 . ... ... ... : G-3 07 . ... ... ... : ... .. . P7C ... ...
ROW B2 : A#3 02 . ... ... ... : ... .. . ... ... ... : ... .. . ... ... ... : ... .. . ... ... ... : ... .. . ... ... ... : E-3 08 . ... ... ... : G-3 08 . ... ... ... : ... .. . ... ... ...
ROW B3 : D#4 02 . ... ... ... : ... .. . ... ... ... : ... .. . ... ... ... : ... .. . ... ... ... : ... .. . ... ... ... : E-3 09 . ... ... ... : G-3 09 . ... ... ... : ... .. . P7D ... ...
ROW B4 : G-3 00 . ... ... ... : ... .. . ... ... ... : A#5 00 . ... ... ... : C-# 00 C ... ... ... : D#1 0A . ... ... ... : D#3 03 . ... ... ... : E-3 03 . ... ... ... : ... .. . P80 ... ...
ROW B5 : A#3 00 8 ... ... ... : ... .. . ... ... ... : ... .. . ... ... ... : ... .. B ... ... ... : ... .. . ... ... ... : ... .. . ... ... ... : ... .. . ... ... ... : ... .. . P81 ... ...
ROW B6 : D#4 01 6 ... ... ... : ... .. . ... ... ... : ... .. . ... ... ... : ... .. 9 ... ... ... : ... .. . ... ... ... : ... .. . ... ... ... : ... .. . ... ... ... : ... .. . P84 ... ...
ROW B7 : G-3 01 3 ... ... ... : ... .. . ... ... ... : ... .. . ... ... ... : ... .. 8 ... ... ... : ... .. . ... ... ... : ... .. . ... ... ... : ... .. . ... ... ... : ... .. . ... ... ...
ROW B8 : A#3 02 2 ... ... ... : ... .. . ... ... ... : ... .. . ... ... ... : --- .. . ... ... ... : ... .. . ... ... ... : ... .. . ... ... ... : ... .. . ... ... ... : ... .. . P83 ... ...
ROW B9 : D#4 02 1 ... ... ... : ... .. . ... ... ... : ... .. . ... ... ... : ... .. . ... ... ... : ... .. . ... ... ... : D#3 04 . ... ... ... : E-3 04 . ... ... ... : ... .. . P81 ... ...
ROW BA : --- .. . ... ... ... : ... .. . ... ... ... : D#6 00 . ... ... ... : ... .. . ... ... ... : ... .. . ... ... ... : ... .. . ... ... ... : ... .. . ... ... ... : ... .. . P80 ... ...
ROW BB : ... .. . ... ... ... : ... .. . ... ... ... : ... .. . ... ... ... : ... .. . ... ... ... : ... .. . ... ... ... : D#3 05 . ... ... ... : E-3 05 . ... ... ... : ... .. . P7D ... ...
ROW BC : ... .. . ... ... ... : ... .. . ... ... ... : ... .. . ... ... ... : ... .. . ... ... ... : ... .. . ... ... ... : D#3 06 . ... ... ... : E-3 06 . ... ... ... : D#2 03 . P7C ... ...
ROW BD : ... .. . ... ... ... : ... .. . ... ... ... : --- .. . ... ... ... : ... .. . ... ... ... : ... .. . ... ... ... : D#3 07 . ... ... ... : E-3 07 . ... ... ... : ... .. . ... ... ...
ROW BE : ... .. . ... ... ... : ... .. . ... ... ... : ... .. . ... ... ... : ... .. . ... ... ... : ... .. . ... ... ... : D#3 08 . ... ... ... : E-3 08 . ... ... ... : ... .. . P7E ... ...
ROW BF : ... .. . ... ... ... : ... .. . ... ... ... : ... .. . ... ... ... : ... .. . ... ... ... : ... .. . ... ... ... : D#3 09 . ... ... ... : E-3 09 . ... ... ... : ... .. . P80 ... ...
ROW C0 : ... .. . ... ... ... : ... .. . ... ... ... : G-5 00 . ... ... ... : C-# 00 C ... ... ... : ... .. . ... ... ... : E-3 03 . ... ... ... : D#3 03 . ... ... ... : ... .. . P82 ... ...
ROW C1 : ... .. . ... ... ... : ... .. . ... ... ... : ... .. . ... ... ... : ... .. B ... ... ... : ... .. . ... ... ... : ... .. . ... ... ... : ... .. . ... ... ... : ... .. . P84 ... ...
ROW C2 : ... .. . ... ... ... : ... .. . ... ... ... : ... .. . ... ... ... : ... .. 9 ... ... ... : ... .. . ... ... ... : ... .. . ... ... ... : ... .. . ... ... ... : ... .. . ... ... ...
ROW C3 : ... .. . ... ... ... : ... .. . ... ... ... : ... .. . ... ... ... : ... .. 8 ... ... ... : ... .. . ... ... ... : ... .. . ... ... ... : ... .. . ... ... ... : ... .. . P83 ... ...
ROW C4 : ... .. . ... ... ... : ... .. . ... ... ... : ... .. . ... ... ... : --- .. . ... ... ... : ... .. . ... ... ... : ... .. . ... ... ... : ... .. . ... ... ... : ... .. . P80 ... ...
ROW C5 : ... .. . ... ... ... : ... .. . ... ... ... : ... .. . ... ... ... : ... .. . ... ... ... : ... .. . ... ... ... : E-3 04 . ... ... ... : D#3 04 . ... ... ... : ... .. . P7F ... ...
ROW C6 : ... .. . ... ... ... : ... .. . ... ... ... : A#5 00 . ... ... ... : ... .. . ... ... ... : ... .. . ... ... ... : ... .. . ... ... ... : ... .. . ... ... ... : ... .. . P7C ... ...
ROW C7 : ... .. . ... ... ... : ... .. . ... ... ... : ... .. . ... ... ... : ... .. . ... ... ... : ... .. . ... ... ... : E-3 05 . ... ... ... : D#3 05 . ... ... ... : ... .. . ... ... ...
ROW C8 : ... .. . ... ... ... : ... .. . ... ... ... : ... .. . ... ... ... : ... .. . ... ... ... : ... .. . ... ... ... : E-3 06 . ... ... ... : D#3 06 . ... ... ... : G#1 03 . P7D ... ...
ROW C9 : ... .. . ... ... ... : ... .. . ... ... ... : --- .. . ... ... ... : ... .. . ... ... ... : ... .. . ... ... ... : E-3 07 . ... ... ... : D#3 07 . ... ... ... : ... .. . P7F ... ...
ROW CA : ... .. . ... ... ... : ... .. . ... ... ... : ... .. . ... ... ... : ... .. . ... ... ... : ... .. . ... ... ... : E-3 08 . ... ... ... : D#3 08 . ... ... ... : ... .. . P80 ... ...
ROW CB : ... .. . ... ... ... : ... .. . ... ... ... : ... .. . ... ... ... : ... .. . ... ... ... : ... .. . ... ... ... : E-3 09 . ... ... ... : D#3 09 . ... ... ... : ... .. . P83 ... ...
ROW CC : G-3 00 8 ... ... ... : ... .. . ... ... ... : D#5 00 . ... ... ... : C-# 00 C ... ... ... : ... .. . ... ... ... : G-3 03 . ... ... ... : E-3 03 . ... ... ... : ... .. . P84 ... ...
ROW CD : ... .. . ... ... ... : ... .. . ... ... ... : ... .. . ... ... ... : ... .. B ... ... ... : ... .. . ... ... ... : ... .. . ... ... ... : ... .. . ... ... ... : ... .. . ... ... ...
ROW CE : A#3 01 . ... ... ... : ... .. . ... ... ... : ... .. . ... ... ... : ... .. 9 ... ... ... : ... .. . ... ... ... : ... .. . ... ... ... : ... .. . ... ... ... : ... .. . P82 ... ...
ROW CF : ... .. . ... ... ... : ... .. . ... ... ... : ... .. . ... ... ... : ... .. 8 ... ... ... : ... .. . ... ... ... : ... .. . ... ... ... : ... .. . ... ... ... : ... .. . P80 ... ...
ROW D0 : D#4 02 . ... ... ... : ... .. . ... ... ... : ... .. . ... ... ... : --- .. . ... ... ... : ... .. . ... ... ... : ... .. . ... ... ... : ... .. . ... ... ... : ... .. . P7E ... ...
ROW D1 : ... .. . ... ... ... : ... .. . ... ... ... : ... .. . ... ... ... : ... .. . ... ... ... : ... .. . ... ... ... : G-3 04 . ... ... ... : E-3 04 . ... ... ... : ... .. . P7C ... ...
ROW D2 : G-3 00 A ... ... ... : ... .. . ... ... ... : G-5 00 . ... ... ... : ... .. . ... ... ... : ... .. . ... ... ... : ... .. . ... ... ... : ... .. . ... ... ... : ... .. . ... ... ...
ROW D3 : A#3 00 . ... ... ... : ... .. . ... ... ... : ... .. . ... ... ... : ... .. . ... ... ... : ... .. . ... ... ... : G-3 05 . ... ... ... : E-3 05 . ... ... ... : ... .. . P7D ... ...
ROW D4 : D#4 01 . ... ... ... : ... .. . ... ... ... : ... .. . ... ... ... : ... .. . ... ... ... : ... .. . ... ... ... : G-3 06 . ... ... ... : E-3 06 . ... ... ... : G#2 03 . P80 ... ...
ROW D5 : G-3 01 . ... ... ... : ... .. . ... ... ... : --- .. . ... ... ... : ... .. . ... ... ... : ... .. . ... ... ... : G-3 07 . ... ... ... : E-3 07 . ... ... ... : ... .. . P81 ... ...
ROW D6 : A#3 02 . ... ... ... : ... .. . ... ... ... : ... .. . ... ... ... : ... .. . ... ... ... : ... .. . ... ... ... : G-3 08 . ... ... ... : E-3 08 . ... ... ... : ... .. . P84 ... ...
ROW D7 : D#4 02 . ... ... ... : ... .. . ... ... ... : ... .. . ... ... ... : ... .. . ... ... ... : ... .. . ... ... ... : G-3 09 . ... ... ... : E-3 09 . ... ... ... : ... .. . ... ... ...
ROW D8 : G-3 00 . ... ... ... : ... .. . ... ... ... : B-4 00 . ... ... ... : A-# 00 A ... ... ... : C#1 0A . ... ... ... : D#3 03 . ... ... ... : G-3 03 . ... ... ... : ... .. . P83 ... ...
ROW D9 : A#3 00 8 ... ... ... : ... .. . ... ... ... : ... .. . ... ... ... : ... .. 9 ... ... ... : ... .. . ... ... ... : ... .. . ... ... ... : ... .. . ... ... ... : ... .. . P81 ... ...
ROW DA : D#4 01 6 ... ... ... : ... .. . ... ... ... : ... .. . ... ... ... : ... .. 8 ... ... ... : ... .. . ... ... ... : ... .. . ... ... ... : ... .. . ... ... ... : ... .. . P80 ... ...
ROW DB : G-3 01 3 ... ... ... : ... .. . ... ... ... : ... .. . ... ... ... : ... .. 6 ... ... ... : ... .. . ... ... ... : ... .. . ... ... ... : ... .. . ... ... ... : ... .. . P7D ... ...
ROW DC : A#3 02 2 ... ... ... : ... .. . ... ... ... : ... .. . ... ... ... : --- .. . ... ... ... : ... .. . ... ... ... : ... .. . ... ... ... : ... .. . ... ... ... : ... .. . P7C ... ...
ROW DD : D#4 02 1 ... ... ... : ... .. . ... ... ... : ... .. . ... ... ... : ... .. . ... ... ... : ... .. . ... ... ... : D#3 04 . ... ... ... : G-3 04 . ... ... ... : ... .. . ... ... ...
ROW DE : --- .. . ... ... ... : ... .. . ... ... ... : D#5 00 . ... ... ... : ... .. . ... ... ... : ... .. . ... ... ... : ... .. . ... ... ... : ... .. . ... ... ... : ... .. . P7E ... ...
ROW DF : ... .. . ... ... ... : ... .. . ... ... ... : ... .. . ... ... ... : ... .. . ... ... ... : ... .. . ... ... ... : D#3 05 . ... ... ... : G-3 05 . ... ... ... : ... .. . P80 ... ...
ROW E0 : ... .. . ... ... ... : ... .. . ... ... ... : ... .. . ... ... ... : ... .. . ... ... ... : ... .. . ... ... ... : D#3 06 . ... ... ... : G-3 06 . ... ... ... : G#1 03 . P82 ... ...
ROW E1 : ... .. . ... ... ... : ... .. . ... ... ... : --- .. . ... ... ... : ... .. . ... ... ... : ... .. . ... ... ... : D#3 07 . ... ... ... : G-3 07 . ... ... ... : ... .. . P84 ... ...
ROW E2 : ... .. . ... ... ... : ... .. . ... ... ... : ... .. . ... ... ... : ... .. . ... ... ... : ... .. . ... ... ... : D#3 08 . ... ... ... : G-3 08 . ... ... ... : ... .. . ... ... ...
ROW E3 : ... .. . ... ... ... : ... .. . ... ... ... : ... .. . ... ... ... : ... .. . ... ... ... : ... .. . ... ... ... : D#3 09 . ... ... ... : G-3 09 . ... ... ... : ... .. . P83 ... ...
ROW E4 : G#3 00 8 ... ... ... : ... .. . ... ... ... : G#4 00 . ... ... ... : C-# 00 A ... ... ... : ... .. . ... ... ... : ... .. . P82 ... ... : D#3 03 . ... ... ... : ... .. . P80 ... ...
ROW E5 : ... .. . ... ... ... : ... .. . ... ... ... : ... .. . ... ... ... : ... .. 9 ... ... ... : ... .. . ... ... ... : ... .. . P84 ... ... : ... .. . ... ... ... : ... .. . P7F ... ...
ROW E6 : B-3 01 . ... ... ... : ... .. . ... ... ... : ... .. . ... ... ... : ... .. 8 ... ... ... : ... .. . ... ... ... : ... .. . ... ... ... : ... .. . ... ... ... : ... .. . P7C ... ...
ROW E7 : ... .. 6 ... ... ... : ... .. . ... ... ... : ... .. . ... ... ... : ... .. 6 ... ... ... : ... .. . ... ... ... : ... .. . P83 ... ... : ... .. . ... ... ... : ... .. . ... ... ...
ROW E8 : D#4 02 4 ... ... ... : ... .. . ... ... ... : ... .. . ... ... ... : --- .. . ... ... ... : ... .. . ... ... ... : ... .. . P80 ... ... : ... .. . ... ... ... : ... .. . P7D ... ...
ROW E9 : ... .. 2 ... ... ... : ... .. . ... ... ... : ... .. . ... ... ... : ... .. . ... ... ... : ... .. . ... ... ... : ... .. . P7F ... ... : D#3 04 . ... ... ... : ... .. . P7F ... ...
ROW EA : G#3 00 1 ... ... ... : ... .. . ... ... ... : B-4 00 . ... ... ... : ... .. . ... ... ... : ... .. . ... ... ... : ... .. . P7C ... ... : ... .. . ... ... ... : ... .. . P80 ... ...
ROW EB : B-3 00 . ... ... ... : ... .. . ... ... ... : ... .. . ... ... ... : ... .. . ... ... ... : ... .. . ... ... ... : ... .. . ... ... ... : D#3 05 . ... ... ... : ... .. . P83 ... ...
ROW EC : --- .. . ... ... ... : ... .. . ... ... ... : ... .. . ... ... ... : ... .. . ... ... ... : ... .. . ... ... ... : ... .. . P7D ... ... : D#3 06 . ... ... ... : G#2 03 . P84 ... ...
ROW ED : ... .. . ... ... ... : ... .. . ... ... ... : --- .. . ... ... ... : ... .. . ... ... ... : ... .. . ... ... ... : ... .. . P7F ... ... : D#3 07 . ... ... ... : ... .. . ... ... ...
ROW EE : ... .. . ... ... ... : ... .. . ... ... ... : ... .. . ... ... ... : ... .. . ... ... ... : ... .. . ... ... ... : ... .. . P80 ... ... : D#3 08 . ... ... ... : ... .. . P82 ... ...
ROW EF : ... .. . ... ... ... : ... .. . ... ... ... : ... .. . ... ... ... : ... .. . ... ... ... : ... .. . ... ... ... : ... .. . P83 ... ... : D#3 09 . ... ... ... : ... .. . P80 ... ...
ROW F0 : G-3 00 8 ... ... ... : ... .. . ... ... ... : D#4 00 . ... ... ... : A-# 00 B ... ... ... : C-1 0A . ... ... ... : ... .. . P84 ... ... : ... .. . P82 ... ... : ... .. . P7E ... ...
ROW F1 : ... .. . ... ... ... : ... .. . ... ... ... : ... .. . ... ... ... : ... .. A ... ... ... : ... .. . ... ... ... : ... .. . ... ... ... : ... .. . P84 ... ... : ... .. . P7C ... ...
ROW F2 : A#3 01 . ... ... ... : ... .. . ... ... ... : ... .. . ... ... ... : ... .. 8 ... ... ... : ... .. . ... ... ... : ... .. . P82 ... ... : ... .. . ... ... ... : ... .. . ... ... ...
ROW F3 : ... .. . ... ... ... : ... .. . ... ... ... : ... .. . ... ... ... : ... .. 7 ... ... ... : ... .. . ... ... ... : ... .. . P80 ... ... : ... .. . P83 ... ... : ... .. . P7D ... ...
ROW F4 : D-4 02 . ... ... ... : ... .. . ... ... ... : ... .. . ... ... ... : --- .. . ... ... ... : ... .. . ... ... ... : ... .. . P7E ... ... : ... .. . P80 ... ... : ... .. . P80 ... ...
ROW F5 : ... .. . ... ... ... : ... .. . ... ... ... : ... .. . ... ... ... : ... .. . ... ... ... : ... .. . ... ... ... : ... .. . P7C ... ... : ... .. . P7F ... ... : ... .. . P81 ... ...
ROW F6 : --- .. . ... ... ... : ... .. . ... ... ... : G#4 00 . ... ... ... : ... .. . ... ... ... : ... .. . ... ... ... : ... .. . ... ... ... : ... .. . P7C ... ... : ... .. . P84 ... ...
ROW F7 : ... .. . ... ... ... : ... .. . ... ... ... : ... .. . ... ... ... : ... .. . ... ... ... : ... .. . ... ... ... : ... .. 9 P7D ... ... : ... .. . ... ... ... : ... .. . ... ... ...
ROW F8 : ... .. . ... ... ... : ... .. . ... ... ... : ... .. . ... ... ... : ... .. . ... ... ... : ... .. . ... ... ... : ... .. 8 P80 ... ... : ... .. . P7D ... ... : B-1 03 . P83 ... ...
ROW F9 : ... .. . ... ... ... : ... .. . ... ... ... : --- .. . ... ... ... : ... .. . ... ... ... : ... .. . ... ... ... : ... .. . P81 ... ... : ... .. . P7F ... ... : ... .. . P81 ... ...
ROW FA : ... .. . ... ... ... : ... .. . ... ... ... : ... .. . ... ... ... : ... .. . ... ... ... : ... .. . ... ... ... : ... .. 7 P84 ... ... : ... .. . P80 ... ... : ... .. . P80 ... ...
ROW FB : ... .. . ... ... ... : ... .. . ... ... ... : ... .. . ... ... ... : ... .. . ... ... ... : ... .. . ... ... ... : ... .. 6 ... ... ... : ... .. . P83 ... ... : ... .. . P7D ... ...
ROW FC : G-3 00 . ... ... ... : ... .. . ... ... ... : A#3 00 . ... ... ... : C-# 00 B ... ... ... : C-1 0A . ... ... ... : ... .. 4 P83 ... ... : ... .. . P84 ... ... : ... .. . P7C ... ...
ROW FD : ... .. . ... ... ... : ... .. . ... ... ... : ... .. . ... ... ... : ... .. A ... ... ... : ... .. . ... ... ... : ... .. . P81 ... ... : ... .. . ... ... ... : ... .. . ... ... ...
ROW FE : A#3 01 . ... ... ... : ... .. . ... ... ... : ... .. . ... ... ... : ... .. 8 ... ... ... : ... .. . ... ... ... : ... .. 2 P80 ... ... : ... .. . P82 ... ... : ... .. . P7E ... ...
ROW FF : ... .. . ... ... ... : ... .. . ... ... ... : ... .. . ... ... ... : ... .. 7 ... ... ... : ... .. . ... ... ... : ... .. . P7D ... ... : ... .. . P80 ... ... : ... .. . P80 ... ...

PATTERN 04
ROW 00 : D-4 02 . ... ... ... : ... .. . ... ... ... : ... .. . ... ... ... : --- .. . ... ... ... : ... .. . ... ... ... : ... .. 1 P7C ... ... : ... .. . P7E ... ... : ... .. . P82 ... ...
ROW 01 : ... .. . ... ... ... : ... .. . ... ... ... : ... .. . ... ... ... : ... .. . ... ... ... : ... .. . ... ... ... : ... .. . ... ... ... : ... .. . P7C ... ... : ... .. . P84 ... ...
ROW 02 : G-3 00 A ... ... ... : ... .. . ... ... ... : D#4 00 . ... ... ... : ... .. . ... ... ... : ... .. . ... ... ... : ... .. . P7E ... ... : ... .. . ... ... ... : ... .. . ... ... ...
ROW 03 : A#3 00 . ... ... ... : ... .. . ... ... ... : ... .. . ... ... ... : ... .. . ... ... ... : ... .. . ... ... ... : --- .. . ... ... ... : ... .. 4 P7D ... ... : ... .. . P83 ... ...
ROW 04 : D-4 01 . ... ... ... : ... .. . ... ... ... : ... .. . ... ... ... : ... .. . ... ... ... : ... .. . ... ... ... : ... .. . ... ... ... : ... .. . P80 ... ... : B-2 03 . P80 ... ...
ROW 05 : G-3 01 . ... ... ... : ... .. . ... ... ... : --- .. . ... ... ... : ... .. . ... ... ... : ... .. . ... ... ... : ... .. . ... ... ... : ... .. . P81 ... ... : ... .. . P7F ... ...
ROW 06 : A#3 02 . ... ... ... : ... .. . ... ... ... : ... .. . ... ... ... : ... .. . ... ... ... : ... .. . ... ... ... : ... .. . ... ... ... : ... .. 3 P84 ... ... : ... .. . P7C ... ...
ROW 07 : D-4 02 . ... ... ... : ... .. . ... ... ... : ... .. . ... ... ... : ... .. . ... ... ... : ... .. . ... ... ... : ... .. . ... ... ... : ... .. . ... ... ... : ... .. . ... ... ...
ROW 08 : G#3 00 8 ... ... ... : ... .. . ... ... ... : G#3 00 . ... ... ... : A-# 00 C ... ... ... : C-1 0A . ... ... ... : G#3 03 A P80 ... ... : ... .. 1 P83 ... ... : ... .. . P7D ... ...
ROW 09 : ... .. . ... ... ... : ... .. . ... ... ... : ... .. . ... ... ... : ... .. B ... ... ... : ... .. . ... ... ... : ... .. . ... ... ... : ... .. . P81 ... ... : ... .. . P7F ... ...
ROW 0A : B-3 01 . ... ... ... : ... .. . ... ... ... : ... .. . ... ... ... : ... .. 9 ... ... ... : ... .. . ... ... ... : ... .. . ... ... ... : ... .. . P80 ... ... : ... .. . P80 ... ...
ROW 0B : ... .. . ... ... ... : ... .. . ... ... ... : ... .. . ... ... ... : ... .. 8 ... ... ... : ... .. . ... ... ... : ... .. . ... ... ... : ... .. . P7D ... ... : ... .. . P83 ... ...
ROW 0C : D#4 02 . ... ... ... : ... .. . ... ... ... : ... .. . ... ... ... : --- .. . ... ... ... : ... .. . ... ... ... : ... .. . ... ... ... : ... .. . P7C ... ... : ... .. . P84 ... ...
ROW 0D : ... .. . ... ... ... : ... .. . ... ... ... : ... .. . ... ... ... : ... .. . ... ... ... : ... .. . ... ... ... : G#3 04 . ... ... ... : ... .. . ... ... ... : ... .. . ... ... ...
ROW 0E : G#3 00 A ... ... ... : ... .. . ... ... ... : --- .. . ... ... ... : ... .. . ... ... ... : ... .. . ... ... ... : ... .. . ... ... ... : ... .. . P7E ... ... : ... .. . P82 ... ...
ROW 0F : B-3 00 . ... ... ... : ... .. . ... ... ... : ... .. . ... ... ... : ... .. . ... ... ... : ... .. . ... ... ... : G#3 05 . ... ... ... : --- .. . ... ... ... : ... .. . P80 ... ...
ROW 10 : D#4 01 . ... ... ... : ... .. . ... ... ... : ... .. . ... ... ... : ... .. . ... ... ... : ... .. . ... ... ... : G#3 06 . ... ... ... : ... .. . ... ... ... : B-1 03 . P7E ... ...
ROW 11 : G#3 01 . ... ... ... : ... .. . ... ... ... : ... .. . ... ... ... : ... .. . ... ... ... : ... .. . ... ... ... : G#3 07 . ... ... ... : ... .. . ... ... ... : ... .. . P7C ... ...
ROW 12 : B-3 02 . ... ... ... : ... .. . ... ... ... : ... .. . ... ... ... : ... .. . ... ... ... : ... .. . ... ... ... : G#3 08 . ... ... ... : ... .. . ... ... ... : ... .. . ... ... ...
ROW 13 : D#4 02 . ... ... ... : ... .. . ... ... ... : ... .. . ... ... ... : ... .. . ... ... ... : ... .. . ... ... ... : G#3 09 . ... ... ... : ... .. . ... ... ... : ... .. . P7D ... ...
ROW 14 : G#3 00 . ... ... ... : ... .. . ... ... ... : B-3 00 . ... ... ... : C-# 00 C ... ... ... : C-1 0A . ... ... ... : G-3 03 . ... ... ... : G#3 03 5 P80 ... ... : ... .. . P80 ... ...
ROW 15 : B-3 00 8 ... ... ... : ... .. . ... ... ... : ... .. . ... ... ... : ... .. B ... ... ... : ... .. . ... ... ... : ... .. . ... ... ... : ... .. . ... ... ... : ... .. . P81 ... ...
ROW 16 : D#4 01 6 ... ... ... : ... .. . ... ... ... : ... .. . ... ... ... : ... .. 9 ... ... ... : ... .. . ... ... ... : ... .. . ... ... ... : ... .. . ... ... ... : ... .. . P84 ... ...
ROW 17 : G#3 01 3 ... ... ... : ... .. . ... ... ... : ... .. . ... ... ... : ... .. 8 ... ... ... : ... .. . ... ... ... : ... .. . ... ... ... : ... .. . ... ... ... : ... .. . ... ... ...
ROW 18 : B-3 02 2 ... ... ... : ... .. . ... ... ... : ... .. . ... ... ... : --- .. . ... ... ... : ... .. . ... ... ... : ... .. . ... ... ... : ... .. . ... ... ... : ... .. . P83 ... ...
ROW 19 : D#4 02 1 ... ... ... : ... .. . ... ... ... : ... .. . ... ... ... : ... .. . ... ... ... : ... .. . ... ... ... : G-3 04 . ... ... ... : G#3 04 . ... ... ... : ... .. . P81 ... ...
ROW 1A : --- .. . ... ... ... : ... .. . ... ... ... : G#3 00 . ... ... ... : ... .. . ... ... ... : ... .. . ... ... ... : ... .. . ... ... ... : ... .. . ... ... ... : ... .. . P80 ... ...
ROW 1B : ... .. . ... ... ... : ... .. . ... ... ... : ... .. . ... ... ... : ... .. . ... ... ... : ... .. . ... ... ... : G-3 05 . ... ... ... : G#3 05 . ... ... ... : ... .. . P7D ... ...
ROW 1C : ... .. . ... ... ... : ... .. . ... ... ... : ... .. . ... ... ... : ... .. . ... ... ... : ... .. . ... ... ... : G-3 06 . ... ... ... : G#3 06 . ... ... ... : B-2 03 . P7C ... ...
ROW 1D : ... .. . ... ... ... : ... .. . ... ... ... : --- .. . ... ... ... : ... .. . ... ... ... : ... .. . ... ... ... : G-3 07 . ... ... ... : G#3 07 . ... ... ... : ... .. . ... ... ...
ROW 1E : ... .. . ... ... ... : ... .. . ... ... ... : ... .. . ... ... ... : ... .. . ... ... ... : ... .. . ... ... ... : G-3 08 . ... ... ... : G#3 08 . ... ... ... : ... .. . P7E ... ...
ROW 1F : ... .. . ... ... ... : ... .. . ... ... ... : ... .. . ... ... ... : ... .. . ... ... ... : ... .. . ... ... ... : G-3 09 . ... ... ... : G#3 09 . ... ... ... : ... .. . P80 ... ...
ROW 20 : ... .. . ... ... ... : ... .. . ... ... ... : D#4 00 . ... ... ... : C-# 00 C ... ... ... : D#1 0A . ... ... ... : G#3 03 . ... ... ... : G-3 03 . ... ... ... : ... .. . P82 ... ...
ROW 21 : ... .. . ... ... ... : ... .. . ... ... ... : ... .. . ... ... ... : ... .. B ... ... ... : ... .. . ... ... ... : ... .. . ... ... ... : ... .. . ... ... ... : ... .. . P84 ... ...
ROW 22 : ... .. . ... ... ... : ... .. . ... ... ... : ... .. . ... ... ... : ... .. 9 ... ... ... : ... .. . ... ... ... : ... .. . ... ... ... : ... .. . ... ... ... : ... .. . ... ... ...
ROW 23 : ... .. . ... ... ... : ... .. . ... ... ... : ... .. . ... ... ... : ... .. 8 ... ... ... : ... .. . ... ... ... : ... .. . ... ... ... : ... .. . ... ... ... : ... .. . P83 ... ...
ROW 24 : ... .. . ... ... ... : ... .. . ... ... ... : ... .. . ... ... ... : --- .. . ... ... ... : ... .. . ... ... ... : ... .. . ... ... ... : ... .. . ... ... ... : ... .. . P80 ... ...
ROW 25 : ... .. . ... ... ... : ... .. . ... ... ... : ... .. . ... ... ... : ... .. . ... ... ... : ... .. . ... ... ... : G#3 04 . ... ... ... : G-3 04 . ... ... ... : ... .. . P7F ... ...
ROW 26 : ... .. . ... ... ... : ... .. . ... ... ... : B-3 00 . ... ... ... : ... .. . ... ... ... : ... .. . ... ... ... : ... .. . ... ... ... : ... .. . ... ... ... : ... .. . P7C ... ...
ROW 27 : ... .. . ... ... ... : ... .. . ... ... ... : ... .. . ... ... ... : ... .. . ... ... ... : ... .. . ... ... ... : G#3 05 . ... ... ... : G-3 05 . ... ... ... : ... .. . ... ... ...
ROW 28 : ... .. . ... ... ... : ... .. . ... ... ... : ... .. . ... ... ... : ... .. . ... ... ... : ... .. . ... ... ... : G#3 06 . ... ... ... : G-3 06 . ... ... ... : G-1 03 . P7D ... ...
ROW 29 : ... .. . ... ... ... : ... .. . ... ... ... : --- .. . ... ... ... : ... .. . ... ... ... : ... .. . ... ... ... : G#3 07 . ... ... ... : G-3 07 . ... ... ... : ... .. . P7F ... ...
ROW 2A : ... .. . ... ... ... : ... .. . ... ... ... : ... .. . ... ... ... : ... .. . ... ... ... : ... .. . ... ... ... : G#3 08 . ... ... ... : G-3 08 . ... ... ... : ... .. . P80 ... ...
ROW 2B : ... .. . ... ... ... : ... .. . ... ... ... : ... .. . ... ... ... : ... .. . ... ... ... : ... .. . ... ... ... : G#3 09 . ... ... ... : G-3 09 . ... ... ... : ... .. . P83 ... ...
ROW 2C : G#3 00 8 ... ... ... : ... .. . ... ... ... : G#4 00 . ... ... ... : C-# 00 C ... ... ... : ... .. . ... ... ... : A#3 03 . ... ... ... : G#3 03 . ... ... ... : ... .. . P84 ... ...
ROW 2D : ... .. . ... ... ... : ... .. . ... ... ... : ... .. . ... ... ... : ... .. B ... ... ... : ... .. . ... ... ... : ... .. . ... ... ... : ... .. . ... ... ... : ... .. . ... ... ...
ROW 2E : B-3 01 . ... ... ... : ... .. . ... ... ... : ... .. . ... ... ... : ... .. 9 ... ... ... : ... .. . ... ... ... : ... .. . ... ... ... : ... .. . ... ... ... : ... .. . P82 ... ...
ROW 2F : ... .. . ... ... ... : ... .. . ... ... ... : ... .. . ... ... ... : ... .. 8 ... ... ... : ... .. . ... ... ... : ... .. . ... ... ... : ... .. . ... ... ... : ... .. . P80 ... ...
ROW 30 : D#4 02 . ... ... ... : ... .. . ... ... ... : ... .. . ... ... ... : --- .. . ... ... ... : ... .. . ... ... ... : ... .. . ... ... ... : ... .. . ... ... ... : ... .. . P7E ... ...
ROW 31 : ... .. . ... ... ... : ... .. . ... ... ... : ... .. . ... ... ... : ... .. . ... ... ... : ... .. . ... ... ... : A#3 04 . ... ... ... : G#3 04 . ... ... ... : ... .. . P7C ... ...
ROW 32 : G#3 00 A ... ... ... : ... .. . ... ... ... : D#4 00 . ... ... ... : ... .. . ... ... ... : ... .. . ... ... ... : ... .. . ... ... ... : ... .. . ... ... ... : ... .. . ... ... ...
ROW 33 : B-3 00 . ... ... ... : ... .. . ... ... ... : ... .. . ... ... ... : ... .. . ... ... ... : ... .. . ... ... ... : A#3 05 . ... ... ... : G#3 05 . ... ... ... : ... .. . P7D ... ...
ROW 34 : D#4 01 . ... ... ... : ... .. . ... ... ... : ... .. . ... ... ... : ... .. . ... ... ... : ... .. . ... ... ... : A#3 06 . ... ... ... : G#3 06 . ... ... ... : G-2 03 . P80 ... ...
ROW 35 : G#3 01 . ... ... ... : ... .. . ... ... ... : --- .. . ... ... ... : ... .. . ... ... ... : ... .. . ... ... ... : A#3 07 . ... ... ... : G#3 07 . ... ... ... : ... .. . P81 ... ...
ROW 36 : B-3 02 . ... ... ... : ... .. . ... ... ... : ... .. . ... ... ... : ... .. . ... ... ... : ... .. . ... ... ... : A#3 08 . ... ... ... : G#3 08 . ... ... ... : ... .. . P84 ... ...
ROW 37 : D#4 02 . ... ... ... : ... .. . ... ... ... : ... .. . ... ... ... : ... .. . ... ... ... : ... .. . ... ... ... : A#3 09 . ... ... ... : G#3 09 . ... ... ... : ... .. . ... ... ...
ROW 38 : G#3 00 . ... ... ... : ... .. . ... ... ... : B-4 00 . ... ... ... : A-# 00 A ... ... ... : D#1 0A . ... ... ... : B-3 03 . ... ... ... : A#3 03 . ... ... ... : ... .. . P83 ... ...
ROW 39 : B-3 00 8 ... ... ... : ... .. . ... ... ... : ... .. . ... ... ... : ... .. 9 ... ... ... : ... .. . ... ... ... : ... .. . ... ... ... : ... .. . ... ... ... : ... .. . P81 ... ...
ROW 3A : D#4 01 6 ... ... ... : ... .. . ... ... ... : ... .. . ... ... ... : ... .. 8 ... ... ... : ... .. . ... ... ... : ... .. . ... ... ... : ... .. . ... ... ... : ... .. . P80 ... ...
ROW 3B : G#3 01 3 ... ... ... : ... .. . ... ... ... : ... .. . ... ... ... : ... .. 6 ... ... ... : ... .. . ... ... ... : ... .. . ... ... ... : ... .. . ... ... ... : ... .. . P7D ... ...
ROW 3C : B-3 02 2 ... ... ... : ... .. . ... ... ... : ... .. . ... ... ... : --- .. . ... ... ... : ... .. . ... ... ... : ... .. . ... ... ... : ... .. . ... ... ... : ... .. . P7C ... ...
ROW 3D : D#4 02 1 ... ... ... : ... .. . ... ... ... : ... .. . ... ... ... : ... .. . ... ... ... : ... .. . ... ... ... : B-3 04 . ... ... ... : A#3 04 . ... ... ... : ... .. . ... ... ...
ROW 3E : --- .. . ... ... ... : ... .. . ... ... ... : G#4 00 . ... ... ... : ... .. . ... ... ... : ... .. . ... ... ... : ... .. . ... ... ... : ... .. . ... ... ... : ... .. . P7E ... ...
ROW 3F : ... .. . ... ... ... : ... .. . ... ... ... : ... .. . ... ... ... : ... .. . ... ... ... : ... .. . ... ... ... : B-3 05 . ... ... ... : A#3 05 . ... ... ... : ... .. . P80 ... ...
ROW 40 : ... .. . ... ... ... : ... .. . ... ... ... : ... .. . ... ... ... : ... .. . ... ... ... : ... .. . ... ... ... : B-3 06 . ... ... ... : A#3 06 . ... ... ... : G-1 03 . P82 ... ...
ROW 41 : ... .. . ... ... ... : ... .. . ... ... ... : --- .. . ... ... ... : ... .. . ... ... ... : ... .. . ... ... ... : B-3 07 . ... ... ... : A#3 07 . ... ... ... : ... .. . P84 ... ...
ROW 42 : ... .. . ... ... ... : ... .. . ... ... ... : ... .. . ... ... ... : ... .. . ... ... ... : ... .. . ... ... ... : B-3 08 . ... ... ... : A#3 08 . ... ... ... : ... .. . ... ... ...
ROW 43 : ... .. . ... ... ... : ... .. . ... ... ... : ... .. . ... ... ... : ... .. . ... ... ... : ... .. . ... ... ... : B-3 09 . ... ... ... : A#3 09 . ... ... ... : ... .. . P83 ... ...
ROW 44 : G#3 00 8 ... ... ... : ... .. . ... ... ... : D#5 00 . ... ... ... : C-# 00 A ... ... ... : ... .. . ... ... ... : A#3 03 . ... ... ... : B-3 03 . ... ... ... : ... .. . P80 ... ...
ROW 45 : ... .. . ... ... ... : ... .. . ... ... ... : ... .. . ... ... ... : ... .. 9 ... ... ... : ... .. . ... ... ... : ... .. . ... ... ... : ... .. . ... ... ... : ... .. . P7F ... ...
ROW 46 : B-3 01 . ... ... ... : ... .. . ... ... ... : ... .. . ... ... ... : ... .. 8 ... ... ... : ... .. . ... ... ... : ... .. . ... ... ... : ... .. . ... ... ... : ... .. . P7C ... ...
ROW 47 : ... .. 6 ... ... ... : ... .. . ... ... ... : ... .. . ... ... ... : ... .. 6 ... ... ... : ... .. . ... ... ... : ... .. . ... ... ... : ... .. . ... ... ... : ... .. . ... ... ...
ROW 48 : D#4 02 4 ... ... ... : ... .. . ... ... ... : ... .. . ... ... ... : --- .. . ... ... ... : ... .. . ... ... ... : ... .. . ... ... ... : ... .. . ... ... ... : ... .. . P7D ... ...
ROW 49 : ... .. 2 ... ... ... : ... .. . ... ... ... : ... .. . ... ... ... : ... .. . ... ... ... : ... .. . ... ... ... : A#3 04 . ... ... ... : B-3 04 . ... ... ... : ... .. . P7F ... ...
ROW 4A : G#3 00 1 ... ... ... : ... .. . ... ... ... : B-4 00 . ... ... ... : ... .. . ... ... ... : ... .. . ... ... ... : ... .. . ... ... ... : ... .. . ... ... ... : ... .. . P80 ... ...
ROW 4B : B-3 00 . ... ... ... : ... .. . ... ... ... : ... .. . ... ... ... : ... .. . ... ... ... : ... .. . ... ... ... : A#3 05 . ... ... ... : B-3 05 . ... ... ... : ... .. . P83 ... ...
ROW 4C : --- .. . ... ... ... : ... .. . ... ... ... : ... .. . ... ... ... : ... .. . ... ... ... : ... .. . ... ... ... : A#3 06 . ... ... ... : B-3 06 . ... ... ... : G-2 03 . P84 ... ...
ROW 4D : ... .. . ... ... ... : ... .. . ... ... ... : --- .. . ... ... ... : ... .. . ... ... ... : ... .. . ... ... ... : A#3 07 . ... ... ... : B-3 07 . ... ... ... : ... .. . ... ... ...
ROW 4E : ... .. . ... ... ... : ... .. . ... ... ... : ... .. . ... ... ... : ... .. . ... ... ... : ... .. . ... ... ... : A#3 08 . ... ... ... : B-3 08 . ... ... ... : ... .. . P82 ... ...
ROW 4F : ... .. . ... ... ... : ... .. . ... ... ... : ... .. . ... ... ... : ... .. . ... ... ... : ... .. . ... ... ... : A#3 09 . ... ... ... : B-3 09 . ... ... ... : ... .. . P80 ... ...
ROW 50 : G#3 00 8 ... ... ... : ... .. . ... ... ... : G#5 00 . ... ... ... : A-# 00 B ... ... ... : C-1 0A . ... ... ... : B-3 03 . ... ... ... : A#3 03 . ... ... ... : ... .. . P7E ... ...
ROW 51 : ... .. . ... ... ... : ... .. . ... ... ... : ... .. . ... ... ... : ... .. A ... ... ... : ... .. . ... ... ... : ... .. . ... ... ... : ... .. . ... ... ... : ... .. . P7C ... ...
ROW 52 : B-3 01 . ... ... ... : ... .. . ... ... ... : ... .. . ... ... ... : ... .. 8 ... ... ... : ... .. . ... ... ... : ... .. . ... ... ... : ... .. . ... ... ... : ... .. . ... ... ...
ROW 53 : ... .. . ... ... ... : ... .. . ... ... ... : ... .. . ... ... ... : ... .. 7 ... ... ... : ... .. . ... ... ... : ... .. . ... ... ... : ... .. . ... ... ... : ... .. . P7D ... ...
ROW 54 : D#4 02 . ... ... ... : ... .. . ... ... ... : ... .. . ... ... ... : --- .. . ... ... ... : ... .. . ... ... ... : ... .. . ... ... ... : ... .. . ... ... ... : ... .. . P80 ... ...
ROW 55 : ... .. . ... ... ... : ... .. . ... ... ... : ... .. . ... ... ... : ... .. . ... ... ... : ... .. . ... ... ... : B-3 04 . ... ... ... : A#3 04 . ... ... ... : ... .. . P81 ... ...
ROW 56 : --- .. . ... ... ... : ... .. . ... ... ... : D#5 00 . ... ... ... : ... .. . ... ... ... : ... .. . ... ... ... : ... .. . ... ... ... : ... .. . ... ... ... : ... .. . P84 ... ...
ROW 57 : ... .. . ... ... ... : ... .. . ... ... ... : ... .. . ... ... ... : ... .. . ... ... ... : ... .. . ... ... ... : B-3 05 . ... ... ... : A#3 05 . ... ... ... : ... .. . ... ... ...
ROW 58 : ... .. . ... ... ... : ... .. . ... ... ... : ... .. . ... ... ... : ... .. . ... ... ... : ... .. . ... ... ... : B-3 06 . ... ... ... : A#3 06 . ... ... ... : G#1 03 . P83 ... ...
ROW 59 : ... .. . ... ... ... : ... .. . ... ... ... : --- .. . ... ... ... : ... .. . ... ... ... : ... .. . ... ... ... : B-3 07 . ... ... ... : A#3 07 . ... ... ... : ... .. . P81 ... ...
ROW 5A : ... .. . ... ... ... : ... .. . ... ... ... : ... .. . ... ... ... : ... .. . ... ... ... : ... .. . ... ... ... : B-3 08 . ... ... ... : A#3 08 . ... ... ... : ... .. . P80 ... ...
ROW 5B : ... .. . ... ... ... : ... .. . ... ... ... : ... .. . ... ... ... : ... .. . ... ... ... : ... .. . ... ... ... : B-3 09 . ... ... ... : A#3 09 . ... ... ... : ... .. . P7D ... ...
ROW 5C : G#3 00 . ... ... ... : ... .. . ... ... ... : B-5 00 . ... ... ... : C-# 00 B ... ... ... : ... .. . ... ... ... : C#4 03 . ... ... ... : B-3 03 . ... ... ... : ... .. . P7C ... ...
ROW 5D : ... .. . ... ... ... : ... .. . ... ... ... : ... .. . ... ... ... : ... .. A ... ... ... : ... .. . ... ... ... : ... .. . ... ... ... : ... .. . ... ... ... : ... .. . ... ... ...
ROW 5E : B-3 01 . ... ... ... : ... .. . ... ... ... : ... .. . ... ... ... : ... .. 8 ... ... ... : ... .. . ... ... ... : ... .. . ... ... ... : ... .. . ... ... ... : ... .. . P7E ... ...
ROW 5F : ... .. . ... ... ... : ... .. . ... ... ... : ... .. . ... ... ... : ... .. 7 ... ... ... : ... .. . ... ... ... : ... .. . ... ... ... : ... .. . ... ... ... : ... .. . P80 ... ...
ROW 60 : D#4 02 . ... ... ... : ... .. . ... ... ... : ... .. . ... ... ... : --- .. . ... ... ... : ... .. . ... ... ... : ... .. . ... ... ... : ... .. . ... ... ... : ... .. . P82 ... ...
ROW 61 : ... .. . ... ... ... : ... .. . ... ... ... : ... .. . ... ... ... : ... .. . ... ... ... : ... .. . ... ... ... : C#4 04 . ... ... ... : B-3 04 . ... ... ... : ... .. . P84 ... ...
ROW 62 : G#3 00 A ... ... ... : ... .. . ... ... ... : G#5 00 . ... ... ... : ... .. . ... ... ... : ... .. . ... ... ... : ... .. . ... ... ... : ... .. . ... ... ... : ... .. . ... ... ...
ROW 63 : B-3 00 . ... ... ... : ... .. . ... ... ... : ... .. . ... ... ... : ... .. . ... ... ... : ... .. . ... ... ... : C#4 05 . ... ... ... : B-3 05 . ... ... ... : ... .. . P83 ... ...
ROW 64 : D#4 01 . ... ... ... : ... .. . ... ... ... : ... .. . ... ... ... : ... .. . ... ... ... : ... .. . ... ... ... : C#4 06 . ... ... ... : B-3 06 . ... ... ... : G#2 03 . P80 ... ...
ROW 65 : G#3 01 . ... ... ... : ... .. . ... ... ... : --- .. . ... ... ... : ... .. . ... ... ... : ... .. . ... ... ... : C#4 07 . ... ... ... : B-3 07 . ... ... ... : ... .. . P7F ... ...
ROW 66 : B-3 02 . ... ... ... : ... .. . ... ... ... : ... .. . ... ... ... : ... .. . ... ... ... : ... .. . ... ... ... : C#4 08 . ... ... ... : B-3 08 . ... ... ... : ... .. . P7C ... ...
ROW 67 : D#4 02 . ... ... ... : ... .. . ... ... ... : ... .. . ... ... ... : ... .. . ... ... ... : ... .. . ... ... ... : C#4 09 . ... ... ... : B-3 09 . ... ... ... : ... .. . ... ... ...
ROW 68 : G-3 00 8 ... ... ... : ... .. . ... ... ... : D#6 00 . ... ... ... : A-# 00 C ... ... ... : C-1 0A . ... ... ... : C#4 03 . P85 ... ... : C#4 03 . ... ... ... : ... .. . P7D ... ...
ROW 69 : ... .. . ... ... ... : ... .. . ... ... ... : ... .. . ... ... ... : ... .. B ... ... ... : ... .. . ... ... ... : D-4 03 . P7E ... ... : ... .. . ... ... ... : ... .. . P7F ... ...
ROW 6A : A#3 01 . ... ... ... : ... .. . ... ... ... : ... .. . ... ... ... : ... .. 9 ... ... ... : ... .. . ... ... ... : ... .. . P80 ... ... : ... .. . ... ... ... : ... .. . P80 ... ...
ROW 6B : ... .. . ... ... ... : ... .. . ... ... ... : ... .. . ... ... ... : ... .. 8 ... ... ... : ... .. . ... ... ... : ... .. . ... ... ... : ... .. . ... ... ... : ... .. . P83 ... ...
ROW 6C : D#4 02 . ... ... ... : ... .. . ... ... ... : ... .. . ... ... ... : --- .. . ... ... ... : ... .. . ... ... ... : ... .. . ... ... ... : ... .. . ... ... ... : ... .. . P84 ... ...
ROW 6D : ... .. . ... ... ... : ... .. . ... ... ... : ... .. . ... ... ... : ... .. . ... ... ... : ... .. . ... ... ... : D-4 04 . ... ... ... : C#4 04 . ... ... ... : ... .. . ... ... ...
ROW 6E : G-3 00 A ... ... ... : ... .. . ... ... ... : B-5 00 . ... ... ... : ... .. . ... ... ... : ... .. . ... ... ... : ... .. . ... ... ... : ... .. . ... ... ... : ... .. . P82 ... ...
ROW 6F : A#3 00 . ... ... ... : ... .. . ... ... ... : ... .. . ... ... ... : ... .. . ... ... ... : ... .. . ... ... ... : D-4 05 . ... ... ... : C#4 05 . ... ... ... : ... .. . P80 ... ...
ROW 70 : D#4 01 . ... ... ... : ... .. . ... ... ... : ... .. . ... ... ... : ... .. . ... ... ... : ... .. . ... ... ... : D-4 06 . ... ... ... : C#4 06 . ... ... ... : G#1 03 . P7E ... ...
ROW 71 : G-3 01 . ... ... ... : ... .. . ... ... ... : --- .. . ... ... ... : ... .. . ... ... ... : ... .. . ... ... ... : D-4 07 . ... ... ... : C#4 07 . ... ... ... : ... .. . P7C ... ...
ROW 72 : A#3 02 . ... ... ... : ... .. . ... ... ... : ... .. . ... ... ... : ... .. . ... ... ... : ... .. . ... ... ... : D-4 08 . ... ... ... : C#4 08 . ... ... ... : ... .. . ... ... ...
ROW 73 : D#4 02 . ... ... ... : ... .. . ... ... ... : ... .. . ... ... ... : ... .. . ... ... ... : ... .. . ... ... ... : D-4 09 . ... ... ... : C#4 09 . ... ... ... : ... .. . P7D ... ...
ROW 74 : G-3 00 . ... ... ... : ... .. . ... ... ... : A#5 00 . ... ... ... : C-# 00 C ... ... ... : D#1 0A . ... ... ... : D#4 03 . ... ... ... : C#4 03 . P85 ... ... : ... .. . P80 ... ...
ROW 75 : A#3 00 8 ... ... ... : ... .. . ... ... ... : ... .. . ... ... ... : ... .. B ... ... ... : ... .. . ... ... ... : ... .. . ... ... ... : D-4 03 . P7E ... ... : ... .. . P81 ... ...
ROW 76 : D#4 01 6 ... ... ... : ... .. . ... ... ... : ... .. . ... ... ... : ... .. 9 ... ... ... : ... .. . ... ... ... : ... .. . ... ... ... : ... .. . P80 ... ... : ... .. . P84 ... ...
ROW 77 : G-3 01 3 ... ... ... : ... .. . ... ... ... : ... .. . ... ... ... : ... .. 8 ... ... ... : ... .. . ... ... ... : ... .. . ... ... ... : ... .. . ... ... ... : ... .. . ... ... ...
ROW 78 : A#3 02 2 ... ... ... : ... .. . ... ... ... : ... .. . ... ... ... : --- .. . ... ... ... : ... .. . ... ... ... : ... .. . ... ... ... : ... .. . ... ... ... : ... .. . P83 ... ...
ROW 79 : D#4 02 1 ... ... ... : ... .. . ... ... ... : ... .. . ... ... ... : ... .. . ... ... ... : ... .. . ... ... ... : D#4 04 . ... ... ... : D-4 04 . ... ... ... : ... .. . P81 ... ...
ROW 7A : --- .. . ... ... ... : ... .. . ... ... ... : D#6 00 . ... ... ... : ... .. . ... ... ... : ... .. . ... ... ... : ... .. . ... ... ... : ... .. . ... ... ... : ... .. . P80 ... ...
ROW 7B : ... .. . ... ... ... : ... .. . ... ... ... : ... .. . ... ... ... : ... .. . ... ... ... : ... .. . ... ... ... : D#4 05 . ... ... ... : D-4 05 . ... ... ... : ... .. . P7D ... ...
ROW 7C : ... .. . ... ... ... : ... .. . ... ... ... : ... .. . ... ... ... : ... .. . ... ... ... : ... .. . ... ... ... : D#4 06 . ... ... ... : D-4 06 . ... ... ... : G#2 03 . P7C ... ...
ROW 7D : ... .. . ... ... ... : ... .. . ... ... ... : --- .. . ... ... ... : ... .. . ... ... ... : ... .. . ... ... ... : D#4 07 . ... ... ... : D-4 07 . ... ... ... : ... .. . ... ... ...
ROW 7E : ... .. . ... ... ... : ... .. . ... ... ... : ... .. . ... ... ... : ... .. . ... ... ... : ... .. . ... ... ... : D#4 08 . ... ... ... : D-4 08 . ... ... ... : ... .. . P7E ... ...
ROW 7F : ... .. . ... ... ... : ... .. . ... ... ... : ... .. . ... ... ... : ... .. . ... ... ... : ... .. . ... ... ... : D#4 09 . ... ... ... : D-4 09 . ... ... ... : ... .. . P80 ... ...
ROW 80 : ... .. . ... ... ... : ... .. . ... ... ... : G-5 00 . ... ... ... : C-# 00 C ... ... ... : ... .. . ... ... ... : C#4 03 . ... ... ... : D#4 03 . ... ... ... : ... .. . P82 ... ...
ROW 81 : ... .. . ... ... ... : ... .. . ... ... ... : ... .. . ... ... ... : ... .. B ... ... ... : ... .. . ... ... ... : ... .. . ... ... ... : ... .. . ... ... ... : ... .. . P84 ... ...
ROW 82 : ... .. . ... ... ... : ... .. . ... ... ... : ... .. . ... ... ... : ... .. 9 ... ... ... : ... .. . ... ... ... : ... .. . ... ... ... : ... .. . ... ... ... : ... .. . ... ... ...
ROW 83 : ... .. . ... ... ... : ... .. . ... ... ... : ... .. . ... ... ... : ... .. 8 ... ... ... : ... .. . ... ... ... : ... .. . ... ... ... : ... .. . ... ... ... : ... .. . P83 ... ...
ROW 84 : ... .. . ... ... ... : ... .. . ... ... ... : ... .. . ... ... ... : --- .. . ... ... ... : ... .. . ... ... ... : ... .. . ... ... ... : ... .. . ... ... ... : ... .. . P80 ... ...
ROW 85 : ... .. . ... ... ... : ... .. . ... ... ... : ... .. . ... ... ... : ... .. . ... ... ... : ... .. . ... ... ... : C#4 04 . ... ... ... : D#4 04 . ... ... ... : ... .. . P7F ... ...
ROW 86 : ... .. . ... ... ... : ... .. . ... ... ... : A#5 00 . ... ... ... : ... .. . ... ... ... : ... .. . ... ... ... : ... .. . ... ... ... : ... .. . ... ... ... : ... .. . P7C ... ...
ROW 87 : ... .. . ... ... ... : ... .. . ... ... ... : ... .. . ... ... ... : ... .. . ... ... ... : ... .. . ... ... ... : C#4 05 . ... ... ... : D#4 05 . ... ... ... : ... .. . ... ... ...
ROW 88 : ... .. . ... ... ... : D#3 01 1 P82 ... ... : ... .. . ... ... ... : ... .. . ... ... ... : ... .. . ... ... ... : C#4 06 . ... ... ... : D#4 06 . ... ... ... : G#1 03 2 P7D ... ...
ROW 89 : ... .. . ... ... ... : ... .. . P84 ... ... : --- .. . ... ... ... : ... .. . ... ... ... : ... .. . ... ... ... : C#4 07 . ... ... ... : D#4 07 . ... ... ... : ... .. . P7F ... ...
ROW 8A : ... .. . ... ... ... : ... .. 3 ... ... ... : ... .. . ... ... ... : ... .. . ... ... ... : ... .. . ... ... ... : C#4 08 . ... ... ... : D#4 08 . ... ... ... : ... .. . P80 ... ...
ROW 8B : ... .. . ... ... ... : ... .. 4 P83 ... ... : ... .. . ... ... ... : ... .. . ... ... ... : ... .. . ... ... ... : C#4 09 . ... ... ... : D#4 09 . ... ... ... : ... .. . P83 ... ...
ROW 8C : G-3 00 8 ... ... ... : ... .. . P80 ... ... : D#5 00 . ... ... ... : C-# 00 C ... ... ... : ... .. . ... ... ... : A#3 03 . ... ... ... : C#4 03 . ... ... ... : ... .. . P84 ... ...
ROW 8D : ... .. . ... ... ... : ... .. . P7F ... ... : ... .. . ... ... ... : ... .. B ... ... ... : ... .. . ... ... ... : ... .. . ... ... ... : ... .. . ... ... ... : ... .. . ... ... ...
ROW 8E : A#3 01 . ... ... ... : ... .. . P7C ... ... : ... .. . ... ... ... : ... .. 9 ... ... ... : ... .. . ... ... ... : ... .. . ... ... ... : ... .. . ... ... ... : ... .. . P82 ... ...
ROW 8F : ... .. . ... ... ... : ... .. . ... ... ... : ... .. . ... ... ... : ... .. 8 ... ... ... : ... .. . ... ... ... : ... .. . ... ... ... : ... .. . ... ... ... : ... .. . P80 ... ...
ROW 90 : D#4 02 . ... ... ... : ... .. . P7D ... ... : ... .. . ... ... ... : --- .. . ... ... ... : ... .. . ... ... ... : ... .. . ... ... ... : ... .. . ... ... ... : ... .. . P7E ... ...
ROW 91 : ... .. . ... ... ... : ... .. . P7F ... ... : ... .. . ... ... ... : ... .. . ... ... ... : ... .. . ... ... ... : A#3 04 . ... ... ... : C#4 04 . ... ... ... : ... .. . P7C ... ...
ROW 92 : G-3 00 A ... ... ... : ... .. . P80 ... ... : G-5 00 . ... ... ... : ... .. . ... ... ... : ... .. . ... ... ... : ... .. . ... ... ... : ... .. . ... ... ... : ... .. . ... ... ...
ROW 93 : A#3 00 . ... ... ... : ... .. . P83 ... ... : ... .. . ... ... ... : ... .. . ... ... ... : ... .. . ... ... ... : A#3 05 . ... ... ... : C#4 05 . ... ... ... : ... .. . P7D ... ...
ROW 94 : D#4 01 . ... ... ... : ... .. . P84 ... ... : ... .. . ... ... ... : ... .. . ... ... ... : ... .. . ... ... ... : A#3 06 . ... ... ... : C#4 06 . ... ... ... : ... .. . P80 ... ...
ROW 95 : G-3 01 . ... ... ... : ... .. . ... ... ... : --- .. . ... ... ... : ... .. . ... ... ... : ... .. . ... ... ... : A#3 07 . ... ... ... : C#4 07 . ... ... ... : ... .. . P81 ... ...
ROW 96 : A#3 02 . ... ... ... : ... .. . P82 ... ... : ... .. . ... ... ... : ... .. . ... ... ... : ... .. . ... ... ... : A#3 08 . ... ... ... : C#4 08 . ... ... ... : ... .. . P84 ... ...
ROW 97 : D#4 02 . ... ... ... : ... .. . P80 ... ... : ... .. . ... ... ... : ... .. . ... ... ... : ... .. . ... ... ... : A#3 09 . ... ... ... : C#4 09 . ... ... ... : ... .. . ... ... ...
ROW 98 : G-3 00 . ... ... ... : ... .. . P7E ... ... : B-4 00 . ... ... ... : A-# 00 A ... ... ... : C#1 0A . ... ... ... : B-3 03 . P7E ... ... : A#3 03 . ... ... ... : ... .. . P83 ... ...
ROW 99 : A#3 00 8 ... ... ... : ... .. . P7C ... ... : ... .. . ... ... ... : ... .. 9 ... ... ... : ... .. . ... ... ... : C-4 03 . ... ... ... : ... .. . ... ... ... : ... .. . P81 ... ...
ROW 9A : D#4 01 6 ... ... ... : ... .. . ... ... ... : ... .. . ... ... ... : ... .. 8 ... ... ... : ... .. . ... ... ... : C#4 03 . ... ... ... : ... .. . ... ... ... : ... .. . P80 ... ...
ROW 9B : G-3 01 3 ... ... ... : ... .. . P7D ... ... : ... .. . ... ... ... : ... .. 6 ... ... ... : ... .. . ... ... ... : D-4 03 . ... ... ... : ... .. . ... ... ... : ... .. . P7D ... ...
ROW 9C : A#3 02 2 ... ... ... : ... .. . P80 ... ... : ... .. . ... ... ... : --- .. . ... ... ... : ... .. . ... ... ... : D#4 03 . P80 ... ... : ... .. . ... ... ... : ... .. . P7C ... ...
ROW 9D : D#4 02 1 ... ... ... : ... .. . P81 ... ... : ... .. . ... ... ... : ... .. . ... ... ... : ... .. . ... ... ... : E-4 04 . ... ... ... : A#3 04 . ... ... ... : ... .. . ... ... ...
ROW 9E : --- .. . ... ... ... : ... .. . P84 ... ... : D#5 00 . ... ... ... : ... .. . ... ... ... : ... .. . ... ... ... : ... .. . ... ... ... : ... .. . ... ... ... : ... .. . P7E ... ...
ROW 9F : ... .. . ... ... ... : ... .. . ... ... ... : ... .. . ... ... ... : ... .. . ... ... ... : ... .. . ... ... ... : E-4 05 . ... ... ... : A#3 05 . ... ... ... : ... .. . P80 ... ...
ROW A0 : ... .. . ... ... ... : ... .. . P83 ... ... : ... .. . ... ... ... : ... .. . ... ... ... : ... .. . ... ... ... : E-4 06 . ... ... ... : A#3 06 . ... ... ... : ... .. . P82 ... ...
ROW A1 : ... .. . ... ... ... : ... .. . P81 ... ... : --- .. . ... ... ... : ... .. . ... ... ... : ... .. . ... ... ... : E-4 07 . ... ... ... : A#3 07 . ... ... ... : ... .. . P84 ... ...
ROW A2 : ... .. . ... ... ... : ... .. . P80 ... ... : ... .. . ... ... ... : ... .. . ... ... ... : ... .. . ... ... ... : E-4 08 . ... ... ... : A#3 08 . ... ... ... : ... .. . ... ... ...
ROW A3 : ... .. . ... ... ... : ... .. . P7D ... ... : ... .. . ... ... ... : ... .. . ... ... ... : ... .. . ... ... ... : E-4 09 . ... ... ... : A#3 09 . ... ... ... : ... .. . P83 ... ...
ROW A4 : E-3 00 8 ... ... ... : ... .. . P7C ... ... : G#4 00 . ... ... ... : C-# 00 A ... ... ... : ... .. . ... ... ... : ... .. . ... ... ... : B-3 03 . P7E ... ... : ... .. . P80 ... ...
ROW A5 : ... .. . ... ... ... : ... .. . ... ... ... : ... .. . ... ... ... : ... .. 9 ... ... ... : ... .. . ... ... ... : ... .. . ... ... ... : C-4 03 . ... ... ... : ... .. . P7F ... ...
ROW A6 : G#3 01 . ... ... ... : ... .. . P7E ... ... : ... .. . ... ... ... : ... .. 8 ... ... ... : ... .. . ... ... ... : ... .. . ... ... ... : C#4 03 . ... ... ... : ... .. . P7C ... ...
ROW A7 : ... .. 6 ... ... ... : ... .. . P80 ... ... : ... .. . ... ... ... : ... .. 6 ... ... ... : ... .. . ... ... ... : ... .. . ... ... ... : D-4 03 . ... ... ... : ... .. . ... ... ...
ROW A8 : B-3 02 4 ... ... ... : ... .. . P82 ... ... : ... .. . ... ... ... : --- .. . ... ... ... : ... .. . ... ... ... : ... .. . ... ... ... : D#4 03 . P80 ... ... : ... .. . P7D ... ...
ROW A9 : ... .. 2 ... ... ... : ... .. . P84 ... ... : ... .. . ... ... ... : ... .. . ... ... ... : ... .. . ... ... ... : ... .. . ... ... ... : E-4 04 . ... ... ... : ... .. . P7F ... ...
ROW AA : E-3 00 1 ... ... ... : ... .. . ... ... ... : B-4 00 . ... ... ... : ... .. . ... ... ... : ... .. . ... ... ... : ... .. . ... ... ... : ... .. . ... ... ... : ... .. . P80 ... ...
ROW AB : G#3 00 . ... ... ... : ... .. . P83 ... ... : ... .. . ... ... ... : ... .. . ... ... ... : ... .. . ... ... ... : ... .. . ... ... ... : E-4 05 . ... ... ... : ... .. . P83 ... ...
ROW AC : --- .. . ... ... ... : ... .. . P80 ... ... : ... .. . ... ... ... : ... .. . ... ... ... : ... .. . ... ... ... : ... .. . ... ... ... : E-4 06 . ... ... ... : ... .. . P84 ... ...
ROW AD : ... .. . ... ... ... : ... .. . P7F ... ... : --- .. . ... ... ... : ... .. . ... ... ... : ... .. . ... ... ... : ... .. . ... ... ... : E-4 07 . ... ... ... : ... .. . ... ... ...
ROW AE : ... .. . ... ... ... : ... .. . P7C ... ... : ... .. . ... ... ... : ... .. . ... ... ... : ... .. . ... ... ... : ... .. . ... ... ... : E-4 08 . ... ... ... : ... .. . P82 ... ...
ROW AF : ... .. . ... ... ... : ... .. . ... ... ... : ... .. . ... ... ... : ... .. . ... ... ... : ... .. . ... ... ... : ... .. . ... ... ... : E-4 09 . ... ... ... : ... .. . P80 ... ...
ROW B0 : G-3 00 8 ... ... ... : ... .. . P7D ... ... : D#4 00 . ... ... ... : A-# 00 B ... ... ... : D-1 0A . ... ... ... : D#4 03 . ... ... ... : ... .. . ... ... ... : ... .. . P7E ... ...
ROW B1 : ... .. . ... ... ... : ... .. . P7F ... ... : ... .. . ... ... ... : ... .. A ... ... ... : ... .. . ... ... ... : ... .. . ... ... ... : ... .. . ... ... ... : ... .. . P7C ... ...
ROW B2 : A#3 01 . ... ... ... : ... .. . P80 ... ... : ... .. . ... ... ... : ... .. 8 ... ... ... : ... .. . ... ... ... : ... .. . ... ... ... : ... .. . ... ... ... : ... .. . ... ... ...
ROW B3 : ... .. . ... ... ... : ... .. . P83 ... ... : ... .. . ... ... ... : ... .. 7 ... ... ... : ... .. . ... ... ... : ... .. . ... ... ... : ... .. . ... ... ... : ... .. . P7D ... ...
ROW B4 : D#4 02 . ... ... ... : ... .. . P84 ... ... : ... .. . ... ... ... : --- .. . ... ... ... : ... .. . ... ... ... : ... .. . ... ... ... : ... .. . ... ... ... : ... .. . P80 ... ...
ROW B5 : ... .. . ... ... ... : ... .. . ... ... ... : ... .. . ... ... ... : ... .. . ... ... ... : ... .. . ... ... ... : D#4 04 . ... ... ... : ... .. . ... ... ... : ... .. . P81 ... ...
ROW B6 : --- .. . ... ... ... : ... .. . P82 ... ... : G#4 00 . ... ... ... : ... .. . ... ... ... : ... .. . ... ... ... : ... .. . ... ... ... : ... .. . ... ... ... : ... .. . P84 ... ...
ROW B7 : ... .. . ... ... ... : ... .. . P80 ... ... : ... .. . ... ... ... : ... .. . ... ... ... : ... .. . ... ... ... : D#4 05 . ... ... ... : ... .. . ... ... ... : ... .. . ... ... ...
ROW B8 : ... .. . ... ... ... : E-3 01 1 P7E ... ... : ... .. . ... ... ... : ... .. . ... ... ... : ... .. . ... ... ... : D#4 06 . ... ... ... : ... .. . ... ... ... : ... .. . P83 ... ...
ROW B9 : ... .. . ... ... ... : ... .. . P7C ... ... : --- .. . ... ... ... : ... .. . ... ... ... : ... .. . ... ... ... : D#4 07 . ... ... ... : ... .. . ... ... ... : ... .. . P81 ... ...
ROW BA : ... .. . ... ... ... : ... .. 3 ... ... ... : ... .. . ... ... ... : ... .. . ... ... ... : ... .. . ... ... ... : D#4 08 . ... ... ... : ... .. . ... ... ... : ... .. . P80 ... ...
ROW BB : ... .. . ... ... ... : ... .. 4 P7D ... ... : ... .. . ... ... ... : ... .. . ... ... ... : ... .. . ... ... ... : D#4 09 . ... ... ... : ... .. . ... ... ... : ... .. . P7D ... ...
ROW BC : G-3 00 . ... ... ... : ... .. . P80 ... ... : A#3 00 . ... ... ... : C-# 00 B ... ... ... : ... .. . ... ... ... : ... .. . ... ... ... : D#4 03 . ... ... ... : ... .. . P7C ... ...
ROW BD : ... .. . ... ... ... : ... .. . P81 ... ... : ... .. . ... ... ... : ... .. A ... ... ... : ... .. . ... ... ... : ... .. . ... ... ... : ... .. . ... ... ... : ... .. . ... ... ...
ROW BE : A#3 01 . ... ... ... : ... .. . P84 ... ... : ... .. . ... ... ... : ... .. 8 ... ... ... : ... .. . ... ... ... : ... .. . ... ... ... : ... .. . ... ... ... : ... .. . P7E ... ...
ROW BF : ... .. . ... ... ... : ... .. . ... ... ... : ... .. . ... ... ... : ... .. 7 ... ... ... : ... .. . ... ... ... : ... .. . ... ... ... : ... .. . ... ... ... : ... .. . P80 ... ...
ROW C0 : D#4 02 . ... ... ... : ... .. . P83 ... ... : ... .. . ... ... ... : --- .. . ... ... ... : ... .. . ... ... ... : ... .. . ... ... ... : ... .. . ... ... ... : ... .. . P82 ... ...
ROW C1 : ... .. . ... ... ... : ... .. . P81 ... ... : ... .. . ... ... ... : ... .. . ... ... ... : ... .. . ... ... ... : ... .. . ... ... ... : D#4 04 . ... ... ... : ... .. . P84 ... ...
ROW C2 : G-3 00 A ... ... ... : ... .. . P80 ... ... : D#4 00 . ... ... ... : ... .. . ... ... ... : ... .. . ... ... ... : ... .. . ... ... ... : ... .. . ... ... ... : ... .. . ... ... ...
ROW C3 : A#3 00 . ... ... ... : ... .. . P7D ... ... : ... .. . ... ... ... : ... .. . ... ... ... : ... .. . ... ... ... : ... .. . ... ... ... : D#4 05 . ... ... ... : ... .. . P83 ... ...
ROW C4 : D#4 01 . ... ... ... : ... .. . P7C ... ... : ... .. . ... ... ... : ... .. . ... ... ... : ... .. . ... ... ... : ... .. . ... ... ... : D#4 06 . ... ... ... : ... .. . P80 ... ...
ROW C5 : G-3 01 . ... ... ... : ... .. . ... ... ... : --- .. . ... ... ... : ... .. . ... ... ... : ... .. . ... ... ... : ... .. . ... ... ... : D#4 07 . ... ... ... : ... .. . P7F ... ...
ROW C6 : A#3 02 . ... ... ... : ... .. . P7E ... ... : ... .. . ... ... ... : ... .. . ... ... ... : ... .. . ... ... ... : ... .. . ... ... ... : D#4 08 . ... ... ... : ... .. . P7C ... ...
ROW C7 : D#4 02 . ... ... ... : ... .. . P80 ... ... : ... .. . ... ... ... : ... .. . ... ... ... : ... .. . ... ... ... : ... .. . ... ... ... : D#4 09 . ... ... ... : ... .. . ... ... ...
ROW C8 : G#3 00 8 ... ... ... : ... .. . P82 ... ... : G#3 00 . ... ... ... : A-# 00 C ... ... ... : C-1 0A . ... ... ... : E-4 03 . ... ... ... : ... .. . ... ... ... : ... .. . P7D ... ...
ROW C9 : ... .. . ... ... ... : ... .. . P84 ... ... : ... .. . ... ... ... : ... .. B ... ... ... : ... .. . ... ... ... : ... .. . ... ... ... : ... .. . ... ... ... : ... .. . P7F ... ...
ROW CA : B-3 01 . ... ... ... : ... .. . ... ... ... : ... .. . ... ... ... : ... .. 9 ... ... ... : ... .. . ... ... ... : ... .. . ... ... ... : ... .. . ... ... ... : ... .. . P80 ... ...
ROW CB : ... .. . ... ... ... : ... .. . P83 ... ... : ... .. . ... ... ... : ... .. 8 ... ... ... : ... .. . ... ... ... : ... .. . ... ... ... : ... .. . ... ... ... : ... .. . P83 ... ...
ROW CC : D#4 02 . ... ... ... : ... .. . P80 ... ... : ... .. . ... ... ... : --- .. . ... ... ... : ... .. . ... ... ... : ... .. . ... ... ... : ... .. . ... ... ... : ... .. . P84 ... ...
ROW CD : ... .. . ... ... ... : ... .. . P7F ... ... : ... .. . ... ... ... : ... .. . ... ... ... : ... .. . ... ... ... : E-4 04 . ... ... ... : ... .. . ... ... ... : ... .. . ... ... ...
ROW CE : G#3 00 A ... ... ... : ... .. . P7C ... ... : A#3 00 . ... ... ... : ... .. . ... ... ... : ... .. . ... ... ... : ... .. . ... ... ... : ... .. . ... ... ... : ... .. . P82 ... ...
ROW CF : B-3 00 . ... ... ... : ... .. . ... ... ... : ... .. . ... ... ... : ... .. . ... ... ... : ... .. . ... ... ... : E-4 05 . ... ... ... : ... .. . ... ... ... : ... .. . P80 ... ...
ROW D0 : D#4 01 . ... ... ... : ... .. . P7D ... ... : ... .. . ... ... ... : ... .. . ... ... ... : ... .. . ... ... ... : E-4 06 . ... ... ... : ... .. . ... ... ... : ... .. . P7E ... ...
ROW D1 : G#3 01 . ... ... ... : ... .. . P7F ... ... : --- .. . ... ... ... : ... .. . ... ... ... : ... .. . ... ... ... : E-4 07 . ... ... ... : ... .. . ... ... ... : ... .. . P7C ... ...
ROW D2 : B-3 02 . ... ... ... : ... .. . P80 ... ... : ... .. . ... ... ... : ... .. . ... ... ... : ... .. . ... ... ... : E-4 08 . ... ... ... : ... .. . ... ... ... : ... .. . ... ... ...
ROW D3 : D#4 02 . ... ... ... : ... .. . P83 ... ... : ... .. . ... ... ... : ... .. . ... ... ... : ... .. . ... ... ... : E-4 09 . ... ... ... : ... .. . ... ... ... : ... .. . P7D ... ...
ROW D4 : G#3 00 . ... ... ... : ... .. . P84 ... ... : B-3 00 . ... ... ... : C-# 00 C ... ... ... : C-1 0A . ... ... ... : D#4 03 . ... ... ... : E-4 03 . ... ... ... : ... .. . P80 ... ...
ROW D5 : B-3 00 8 ... ... ... : ... .. . ... ... ... : ... .. . ... ... ... : ... .. B ... ... ... : ... .. . ... ... ... : ... .. . ... ... ... : ... .. . ... ... ... : ... .. . P81 ... ...
ROW D6 : D#4 01 6 ... ... ... : ... .. . P82 ... ... : ... .. . ... ... ... : ... .. 9 ... ... ... : ... .. . ... ... ... : ... .. . ... ... ... : ... .. . ... ... ... : ... .. . P84 ... ...
ROW D7 : G#3 01 3 ... ... ... : ... .. . P80 ... ... : ... .. . ... ... ... : ... .. 8 ... ... ... : ... .. . ... ... ... : ... .. . ... ... ... : ... .. . ... ... ... : ... .. . ... ... ...
ROW D8 : B-3 02 2 ... ... ... : ... .. . P7E ... ... : ... .. . ... ... ... : --- .. . ... ... ... : ... .. . ... ... ... : ... .. . ... ... ... : ... .. . ... ... ... : ... .. . P83 ... ...
ROW D9 : D#4 02 1 ... ... ... : ... .. . P7C ... ... : ... .. . ... ... ... : ... .. . ... ... ... : ... .. . ... ... ... : D#4 04 . ... ... ... : E-4 04 . ... ... ... : ... .. . P81 ... ...
ROW DA : --- .. . ... ... ... : ... .. . ... ... ... : G#3 00 . ... ... ... : ... .. . ... ... ... : ... .. . ... ... ... : ... .. . ... ... ... : ... .. . ... ... ... : ... .. . P80 ... ...
ROW DB : ... .. . ... ... ... : ... .. . P7D ... ... : ... .. . ... ... ... : ... .. . ... ... ... : ... .. . ... ... ... : D#4 05 . ... ... ... : E-4 05 . ... ... ... : ... .. . P7D ... ...
ROW DC : ... .. . ... ... ... : ... .. . P80 ... ... : ... .. . ... ... ... : ... .. . ... ... ... : ... .. . ... ... ... : D#4 06 . ... ... ... : E-4 06 . ... ... ... : ... .. . P7C ... ...
ROW DD : ... .. . ... ... ... : ... .. . P81 ... ... : --- .. . ... ... ... : ... .. . ... ... ... : ... .. . ... ... ... : D#4 07 . ... ... ... : E-4 07 . ... ... ... : ... .. . ... ... ...
ROW DE : ... .. . ... ... ... : ... .. . P84 ... ... : ... .. . ... ... ... : ... .. . ... ... ... : ... .. . ... ... ... : D#4 08 . ... ... ... : E-4 08 . ... ... ... : ... .. . P7E ... ...
ROW DF : ... .. . ... ... ... : ... .. . ... ... ... : ... .. . ... ... ... : ... .. . ... ... ... : ... .. . ... ... ... : D#4 09 . ... ... ... : E-4 09 . ... ... ... : ... .. . P80 ... ...
ROW E0 : ... .. . ... ... ... : ... .. . P83 ... ... : D#4 00 . ... ... ... : C-# 00 C ... ... ... : D#1 0A . ... ... ... : B-3 03 . ... ... ... : D#4 03 . ... ... ... : ... .. . P82 ... ...
ROW E1 : ... .. . ... ... ... : ... .. . P81 ... ... : ... .. . ... ... ... : ... .. B ... ... ... : ... .. . ... ... ... : ... .. . ... ... ... : ... .. . ... ... ... : ... .. . P84 ... ...
ROW E2 : ... .. . ... ... ... : ... .. . P80 ... ... : ... .. . ... ... ... : ... .. 9 ... ... ... : ... .. . ... ... ... : ... .. . ... ... ... : ... .. . ... ... ... : ... .. . ... ... ...
ROW E3 : ... .. . ... ... ... : ... .. . P7D ... ... : ... .. . ... ... ... : ... .. 8 ... ... ... : ... .. . ... ... ... : ... .. . ... ... ... : ... .. . ... ... ... : ... .. . P83 ... ...
ROW E4 : ... .. . ... ... ... : ... .. . P7C ... ... : ... .. . ... ... ... : --- .. . ... ... ... : ... .. . ... ... ... : ... .. . ... ... ... : ... .. . ... ... ... : ... .. . P80 ... ...
ROW E5 : ... .. . ... ... ... : ... .. . ... ... ... : ... .. . ... ... ... : ... .. . ... ... ... : ... .. . ... ... ... : B-3 04 . ... ... ... : D#4 04 . ... ... ... : ... .. . P7F ... ...
ROW E6 : ... .. . ... ... ... : ... .. . P7E ... ... : B-3 00 . ... ... ... : ... .. . ... ... ... : ... .. . ... ... ... : ... .. . ... ... ... : ... .. . ... ... ... : ... .. . P7C ... ...
ROW E7 : ... .. . ... ... ... : ... .. . P80 ... ... : ... .. . ... ... ... : ... .. . ... ... ... : ... .. . ... ... ... : B-3 05 . ... ... ... : D#4 05 . ... ... ... : ... .. . ... ... ...
ROW E8 : ... .. . ... ... ... : ... .. . P82 ... ... : ... .. . ... ... ... : ... .. . ... ... ... : ... .. . ... ... ... : B-3 06 . ... ... ... : D#4 06 . ... ... ... : A#1 03 . P7D ... ...
ROW E9 : ... .. . ... ... ... : ... .. . P84 ... ... : --- .. . ... ... ... : ... .. . ... ... ... : ... .. . ... ... ... : B-3 07 . ... ... ... : D#4 07 . ... ... ... : ... .. . P7F ... ...
ROW EA : ... .. . ... ... ... : ... .. . ... ... ... : ... .. . ... ... ... : ... .. . ... ... ... : ... .. . ... ... ... : B-3 08 . ... ... ... : D#4 08 . ... ... ... : ... .. . P80 ... ...
ROW EB : ... .. . ... ... ... : ... .. . P83 ... ... : ... .. . ... ... ... : ... .. . ... ... ... : ... .. . ... ... ... : B-3 09 . ... ... ... : D#4 09 . ... ... ... : ... .. . P83 ... ...
ROW EC : G#3 00 8 ... ... ... : ... .. . P80 ... ... : G#4 00 . ... ... ... : C-# 00 C ... ... ... : ... .. . ... ... ... : A#3 03 . ... ... ... : B-3 03 . ... ... ... : ... .. . P84 ... ...
ROW ED : ... .. . ... ... ... : ... .. . P7F ... ... : ... .. . ... ... ... : ... .. B ... ... ... : ... .. . ... ... ... : ... .. . ... ... ... : ... .. . ... ... ... : ... .. . ... ... ...
ROW EE : B-3 01 . ... ... ... : ... .. . P7C ... ... : ... .. . ... ... ... : ... .. 9 ... ... ... : ... .. . ... ... ... : ... .. . ... ... ... : ... .. . ... ... ... : ... .. . P82 ... ...
ROW EF : ... .. . ... ... ... : ... .. . ... ... ... : ... .. . ... ... ... : ... .. 8 ... ... ... : ... .. . ... ... ... : ... .. . ... ... ... : ... .. . ... ... ... : ... .. . P80 ... ...
ROW F0 : D#4 02 . ... ... ... : ... .. . P7D ... ... : ... .. . ... ... ... : --- .. . ... ... ... : ... .. . ... ... ... : ... .. . ... ... ... : ... .. . ... ... ... : ... .. . P7E ... ...
ROW F1 : ... .. . ... ... ... : ... .. . P7F ... ... : ... .. . ... ... ... : ... .. . ... ... ... : ... .. . ... ... ... : A#3 04 . ... ... ... : B-3 04 . ... ... ... : ... .. . P7C ... ...
ROW F2 : G#3 00 A ... ... ... : ... .. . P80 ... ... : D#4 00 . ... ... ... : ... .. . ... ... ... : ... .. . ... ... ... : ... .. . ... ... ... : ... .. . ... ... ... : ... .. . ... ... ...
ROW F3 : B-3 00 . ... ... ... : ... .. . P83 ... ... : ... .. . ... ... ... : ... .. . ... ... ... : ... .. . ... ... ... : A#3 05 . ... ... ... : B-3 05 . ... ... ... : ... .. . P7D ... ...
ROW F4 : D#4 01 . ... ... ... : ... .. . P84 ... ... : ... .. . ... ... ... : ... .. . ... ... ... : ... .. . ... ... ... : A#3 06 . ... ... ... : B-3 06 . ... ... ... : ... .. . P80 ... ...
ROW F5 : G#3 01 . ... ... ... : ... .. . ... ... ... : --- .. . ... ... ... : ... .. . ... ... ... : ... .. . ... ... ... : A#3 07 . ... ... ... : B-3 07 . ... ... ... : ... .. . P81 ... ...
ROW F6 : B-3 02 . ... ... ... : ... .. . P82 ... ... : ... .. . ... ... ... : ... .. . ... ... ... : ... .. . ... ... ... : A#3 08 . ... ... ... : B-3 08 . ... ... ... : ... .. . P84 ... ...
ROW F7 : D#4 02 . ... ... ... : ... .. . P80 ... ... : ... .. . ... ... ... : ... .. . ... ... ... : ... .. . ... ... ... : A#3 09 . ... ... ... : B-3 09 . ... ... ... : ... .. . ... ... ...
ROW F8 : G#3 00 . ... ... ... : ... .. . P7E ... ... : B-4 00 . ... ... ... : A-# 00 A ... ... ... : D#1 0A . ... ... ... : D#4 03 . ... ... ... : A#3 03 . ... ... ... : ... .. . P83 ... ...
ROW F9 : B-3 00 8 ... ... ... : ... .. . P7C ... ... : ... .. . ... ... ... : ... .. 9 ... ... ... : ... .. . ... ... ... : ... .. . ... ... ... : ... .. . ... ... ... : ... .. . P81 ... ...
ROW FA : D#4 01 6 ... ... ... : ... .. . ... ... ... : ... .. . ... ... ... : ... .. 8 ... ... ... : ... .. . ... ... ... : ... .. . ... ... ... : ... .. . ... ... ... : ... .. . P80 ... ...
ROW FB : G#3 01 3 ... ... ... : ... .. . P7D ... ... : ... .. . ... ... ... : ... .. 6 ... ... ... : ... .. . ... ... ... : ... .. . ... ... ... : ... .. . ... ... ... : ... .. . P7D ... ...
ROW FC : B-3 02 2 ... ... ... : ... .. . P80 ... ... : ... .. . ... ... ... : --- .. . ... ... ... : ... .. . ... ... ... : ... .. . ... ... ... : ... .. . ... ... ... : ... .. . P7C ... ...
ROW FD : D#4 02 1 ... ... ... : ... .. . P81 ... ... : ... .. . ... ... ... : ... .. . ... ... ... : ... .. . ... ... ... : D#4 04 . ... ... ... : A#3 04 . ... ... ... : ... .. . ... ... ...
ROW FE : --- .. . ... ... ... : ... .. . P84 ... ... : G#4 00 . ... ... ... : ... .. . ... ... ... : ... .. . ... ... ... : ... .. . ... ... ... : ... .. . ... ... ... : ... .. . P7E ... ...
ROW FF : ... .. . ... ... ... : ... .. . ... ... ... : ... .. . ... ... ... : ... .. . ... ... ... : ... .. . ... ... ... : D#4 05 . ... ... ... : A#3 05 . ... ... ... : ... .. . P80 ... ...

PATTERN 05
ROW 00 : ... .. . ... ... ... : ... .. . P83 ... ... : ... .. . ... ... ... : ... .. . ... ... ... : ... .. . ... ... ... : D#4 06 . ... ... ... : A#3 06 . ... ... ... : ... .. . P82 ... ...
ROW 01 : ... .. . ... ... ... : ... .. . P81 ... ... : --- .. . ... ... ... : ... .. . ... ... ... : ... .. . ... ... ... : D#4 07 . ... ... ... : A#3 07 . ... ... ... : ... .. . P84 ... ...
ROW 02 : ... .. . ... ... ... : ... .. . P80 ... ... : ... .. . ... ... ... : ... .. . ... ... ... : ... .. . ... ... ... : D#4 08 . ... ... ... : A#3 08 . ... ... ... : ... .. . ... ... ...
ROW 03 : ... .. . ... ... ... : ... .. . P7D ... ... : ... .. . ... ... ... : ... .. . ... ... ... : ... .. . ... ... ... : D#4 09 . ... ... ... : A#3 09 . ... ... ... : ... .. . P83 ... ...
ROW 04 : G#3 00 8 ... ... ... : ... .. . P7C ... ... : E-5 00 . ... ... ... : C-# 00 A ... ... ... : ... .. . ... ... ... : B-3 03 . ... ... ... : D#4 03 . ... ... ... : ... .. . P80 ... ...
ROW 05 : ... .. . ... ... ... : ... .. . ... ... ... : ... .. . ... ... ... : ... .. 9 ... ... ... : ... .. . ... ... ... : ... .. . ... ... ... : ... .. . ... ... ... : ... .. . P7F ... ...
ROW 06 : B-3 01 . ... ... ... : ... .. . P7E ... ... : ... .. . ... ... ... : ... .. 8 ... ... ... : ... .. . ... ... ... : ... .. . ... ... ... : ... .. . ... ... ... : ... .. . P7C ... ...
ROW 07 : ... .. 6 ... ... ... : ... .. . P80 ... ... : ... .. . ... ... ... : ... .. 6 ... ... ... : ... .. . ... ... ... : ... .. . ... ... ... : ... .. . ... ... ... : ... .. . ... ... ...
ROW 08 : E-4 02 4 ... ... ... : ... .. . P82 ... ... : ... .. . ... ... ... : --- .. . ... ... ... : ... .. . ... ... ... : ... .. . ... ... ... : ... .. . ... ... ... : ... .. . P7D ... ...
ROW 09 : ... .. 2 ... ... ... : ... .. . P84 ... ... : ... .. . ... ... ... : ... .. . ... ... ... : ... .. . ... ... ... : B-3 04 . ... ... ... : D#4 04 . ... ... ... : ... .. . P7F ... ...
ROW 0A : G#3 00 1 ... ... ... : ... .. . ... ... ... : B-4 00 . ... ... ... : ... .. . ... ... ... : ... .. . ... ... ... : ... .. . ... ... ... : ... .. . ... ... ... : ... .. . P80 ... ...
ROW 0B : B-3 00 . ... ... ... : ... .. . P83 ... ... : ... .. . ... ... ... : ... .. . ... ... ... : ... .. . ... ... ... : B-3 05 . ... ... ... : D#4 05 . ... ... ... : ... .. . P83 ... ...
ROW 0C : --- .. . ... ... ... : ... .. . P80 ... ... : ... .. . ... ... ... : ... .. . ... ... ... : ... .. . ... ... ... : B-3 06 . ... ... ... : D#4 06 . ... ... ... : ... .. . P84 ... ...
ROW 0D : ... .. . ... ... ... : ... .. . P7F ... ... : --- .. . ... ... ... : ... .. . ... ... ... : ... .. . ... ... ... : B-3 07 . ... ... ... : D#4 07 . ... ... ... : ... .. . ... ... ...
ROW 0E : ... .. . ... ... ... : ... .. . P7C ... ... : ... .. . ... ... ... : ... .. . ... ... ... : ... .. . ... ... ... : B-3 08 . ... ... ... : D#4 08 . ... ... ... : ... .. . P82 ... ...
ROW 0F : ... .. . ... ... ... : ... .. . ... ... ... : ... .. . ... ... ... : ... .. . ... ... ... : ... .. . ... ... ... : B-3 09 . ... ... ... : D#4 09 . ... ... ... : ... .. . P80 ... ...
ROW 10 : G#3 00 8 ... ... ... : ... .. . P7D ... ... : G#5 00 . ... ... ... : A-# 00 B ... ... ... : C-1 0A . ... ... ... : A#3 03 . ... ... ... : B-3 03 . ... ... ... : ... .. . P7E ... ...
ROW 11 : ... .. . ... ... ... : ... .. . P7F ... ... : ... .. . ... ... ... : ... .. A ... ... ... : ... .. . ... ... ... : ... .. . ... ... ... : ... .. . ... ... ... : ... .. . P7C ... ...
ROW 12 : B-3 01 . ... ... ... : ... .. . P80 ... ... : ... .. . ... ... ... : ... .. 8 ... ... ... : ... .. . ... ... ... : ... .. . ... ... ... : ... .. . ... ... ... : ... .. . ... ... ...
ROW 13 : ... .. . ... ... ... : ... .. . P83 ... ... : ... .. . ... ... ... : ... .. 7 ... ... ... : ... .. . ... ... ... : ... .. . ... ... ... : ... .. . ... ... ... : ... .. . P7D ... ...
ROW 14 : E-4 02 . ... ... ... : ... .. . P84 ... ... : ... .. . ... ... ... : --- .. . ... ... ... : ... .. . ... ... ... : ... .. . ... ... ... : ... .. . ... ... ... : ... .. . P80 ... ...
ROW 15 : ... .. . ... ... ... : ... .. . ... ... ... : ... .. . ... ... ... : ... .. . ... ... ... : ... .. . ... ... ... : A#3 04 . ... ... ... : B-3 04 . ... ... ... : ... .. . P81 ... ...
ROW 16 : --- .. . ... ... ... : ... .. . P82 ... ... : E-5 00 . ... ... ... : ... .. . ... ... ... : ... .. . ... ... ... : ... .. . ... ... ... : ... .. . ... ... ... : ... .. . P84 ... ...
ROW 17 : ... .. . ... ... ... : ... .. . P80 ... ... : ... .. . ... ... ... : ... .. . ... ... ... : ... .. . ... ... ... : A#3 05 . ... ... ... : B-3 05 . ... ... ... : ... .. . ... ... ...
ROW 18 : ... .. . ... ... ... : F#3 01 1 P7E ... ... : ... .. . ... ... ... : ... .. . ... ... ... : ... .. . ... ... ... : A#3 06 . ... ... ... : B-3 06 . ... ... ... : B-1 03 . P83 ... ...
ROW 19 : ... .. . ... ... ... : ... .. . P7C ... ... : --- .. . ... ... ... : ... .. . ... ... ... : ... .. . ... ... ... : A#3 07 . ... ... ... : B-3 07 . ... ... ... : ... .. . P81 ... ...
ROW 1A : ... .. . ... ... ... : ... .. 3 ... ... ... : ... .. . ... ... ... : ... .. . ... ... ... : ... .. . ... ... ... : A#3 08 . ... ... ... : B-3 08 . ... ... ... : ... .. . P80 ... ...
ROW 1B : ... .. . ... ... ... : ... .. 4 P7D ... ... : ... .. . ... ... ... : ... .. . ... ... ... : ... .. . ... ... ... : A#3 09 . ... ... ... : B-3 09 . ... ... ... : ... .. . P7D ... ...
ROW 1C : G#3 00 . ... ... ... : ... .. . P80 ... ... : B-5 00 . ... ... ... : C-# 00 B ... ... ... : ... .. . ... ... ... : G#3 03 . ... ... ... : A#3 03 . ... ... ... : ... .. . P7C ... ...
ROW 1D : ... .. . ... ... ... : ... .. . P81 ... ... : ... .. . ... ... ... : ... .. A ... ... ... : ... .. . ... ... ... : ... .. . ... ... ... : ... .. . ... ... ... : ... .. . ... ... ...
ROW 1E : B-3 01 . ... ... ... : ... .. . P84 ... ... : ... .. . ... ... ... : ... .. 8 ... ... ... : ... .. . ... ... ... : ... .. . ... ... ... : ... .. . ... ... ... : ... .. . P7E ... ...
ROW 1F : ... .. . ... ... ... : ... .. . ... ... ... : ... .. . ... ... ... : ... .. 7 ... ... ... : ... .. . ... ... ... : ... .. . ... ... ... : ... .. . ... ... ... : ... .. . P80 ... ...
ROW 20 : E-4 02 . ... ... ... : ... .. . P83 ... ... : ... .. . ... ... ... : --- .. . ... ... ... : ... .. . ... ... ... : ... .. . ... ... ... : ... .. . ... ... ... : ... .. . P82 ... ...
ROW 21 : ... .. . ... ... ... : ... .. . P81 ... ... : ... .. . ... ... ... : ... .. . ... ... ... : ... .. . ... ... ... : G#3 04 . ... ... ... : A#3 04 . ... ... ... : ... .. . P84 ... ...
ROW 22 : G#3 00 A ... ... ... : ... .. . P80 ... ... : G#5 00 . ... ... ... : ... .. . ... ... ... : ... .. . ... ... ... : ... .. . ... ... ... : ... .. . ... ... ... : ... .. . ... ... ...
ROW 23 : B-3 00 . ... ... ... : ... .. . P7D ... ... : ... .. . ... ... ... : ... .. . ... ... ... : ... .. . ... ... ... : G#3 05 . ... ... ... : A#3 05 . ... ... ... : ... .. . P83 ... ...
ROW 24 : E-4 01 . ... ... ... : ... .. . P7C ... ... : ... .. . ... ... ... : ... .. . ... ... ... : ... .. . ... ... ... : G#3 06 . ... ... ... : A#3 06 . ... ... ... : ... .. . P80 ... ...
ROW 25 : G#3 01 . ... ... ... : ... .. . ... ... ... : --- .. . ... ... ... : ... .. . ... ... ... : ... .. . ... ... ... : G#3 07 . ... ... ... : A#3 07 . ... ... ... : ... .. . P7F ... ...
ROW 26 : B-3 02 . ... ... ... : ... .. . P7E ... ... : ... .. . ... ... ... : ... .. . ... ... ... : ... .. . ... ... ... : G#3 08 . ... ... ... : A#3 08 . ... ... ... : ... .. . P7C ... ...
ROW 27 : E-4 02 . ... ... ... : ... .. . P80 ... ... : ... .. . ... ... ... : ... .. . ... ... ... : ... .. . ... ... ... : G#3 09 . ... ... ... : A#3 09 . ... ... ... : ... .. . ... ... ...
ROW 28 : G-3 00 8 ... ... ... : ... .. . P82 ... ... : D#6 00 . ... ... ... : A-# 00 C ... ... ... : C-1 0A . ... ... ... : D#3 03 . ... ... ... : G#3 03 . ... ... ... : ... .. . P7D ... ...
ROW 29 : ... .. . ... ... ... : ... .. . P84 ... ... : ... .. . ... ... ... : ... .. B ... ... ... : ... .. . ... ... ... : ... .. . ... ... ... : ... .. . ... ... ... : ... .. . P7F ... ...
ROW 2A : A#3 01 . ... ... ... : ... .. . ... ... ... : ... .. . ... ... ... : ... .. 9 ... ... ... : ... .. . ... ... ... : ... .. . ... ... ... : ... .. . ... ... ... : ... .. . P80 ... ...
ROW 2B : ... .. . ... ... ... : ... .. . P83 ... ... : ... .. . ... ... ... : ... .. 8 ... ... ... : ... .. . ... ... ... : ... .. . ... ... ... : ... .. . ... ... ... : ... .. . P83 ... ...
ROW 2C : D#4 02 . ... ... ... : ... .. . P80 ... ... : ... .. . ... ... ... : --- .. . ... ... ... : ... .. . ... ... ... : ... .. . ... ... ... : ... .. . ... ... ... : ... .. . P84 ... ...
ROW 2D : ... .. . ... ... ... : ... .. . P7F ... ... : ... .. . ... ... ... : ... .. . ... ... ... : ... .. . ... ... ... : D#3 04 . ... ... ... : G#3 04 . ... ... ... : ... .. . ... ... ...
ROW 2E : G-3 00 A ... ... ... : ... .. . P7C ... ... : B-5 00 . ... ... ... : ... .. . ... ... ... : ... .. . ... ... ... : ... .. . ... ... ... : ... .. . ... ... ... : ... .. . P82 ... ...
ROW 2F : A#3 00 . ... ... ... : ... .. . ... ... ... : ... .. . ... ... ... : ... .. . ... ... ... : ... .. . ... ... ... : D#3 05 . ... ... ... : G#3 05 . ... ... ... : ... .. . P80 ... ...
ROW 30 : D#4 01 . ... ... ... : ... .. . P7D ... ... : ... .. . ... ... ... : ... .. . ... ... ... : ... .. . ... ... ... : D#3 06 . ... ... ... : G#3 06 . ... ... ... : ... .. . P7E ... ...
ROW 31 : G-3 01 . ... ... ... : ... .. . P7F ... ... : --- .. . ... ... ... : ... .. . ... ... ... : ... .. . ... ... ... : D#3 07 . ... ... ... : G#3 07 . ... ... ... : ... .. . P7C ... ...
ROW 32 : A#3 02 . ... ... ... : ... .. . P80 ... ... : ... .. . ... ... ... : ... .. . ... ... ... : ... .. . ... ... ... : D#3 08 . ... ... ... : G#3 08 . ... ... ... : ... .. . ... ... ...
ROW 33 : D#4 02 . ... ... ... : ... .. . P83 ... ... : ... .. . ... ... ... : ... .. . ... ... ... : ... .. . ... ... ... : D#3 09 . ... ... ... : G#3 09 . ... ... ... : ... .. . P7D ... ...
ROW 34 : G-3 00 . ... ... ... : ... .. . P84 ... ... : A#5 00 . ... ... ... : C-# 00 C ... ... ... : D#1 0A . ... ... ... : G-3 03 . ... ... ... : D#3 03 . ... ... ... : ... .. . P80 ... ...
ROW 35 : A#3 00 8 ... ... ... : ... .. . ... ... ... : ... .. . ... ... ... : ... .. B ... ... ... : ... .. . ... ... ... : ... .. . ... ... ... : ... .. . ... ... ... : ... .. . P81 ... ...
ROW 36 : D#4 01 6 ... ... ... : ... .. . P82 ... ... : ... .. . ... ... ... : ... .. 9 ... ... ... : ... .. . ... ... ... : ... .. . ... ... ... : ... .. . ... ... ... : ... .. . P84 ... ...
ROW 37 : G-3 01 3 ... ... ... : ... .. . P80 ... ... : ... .. . ... ... ... : ... .. 8 ... ... ... : ... .. . ... ... ... : ... .. . ... ... ... : ... .. . ... ... ... : ... .. . ... ... ...
ROW 38 : A#3 02 2 ... ... ... : ... .. . P7E ... ... : ... .. . ... ... ... : --- .. . ... ... ... : ... .. . ... ... ... : ... .. . ... ... ... : ... .. . ... ... ... : ... .. . P83 ... ...
ROW 39 : D#4 02 1 ... ... ... : ... .. . P7C ... ... : ... .. . ... ... ... : ... .. . ... ... ... : ... .. . ... ... ... : G-3 04 . ... ... ... : D#3 04 . ... ... ... : ... .. . P81 ... ...
ROW 3A : --- .. . ... ... ... : ... .. . ... ... ... : D#6 00 . ... ... ... : ... .. . ... ... ... : ... .. . ... ... ... : ... .. . ... ... ... : ... .. . ... ... ... : ... .. . P80 ... ...
ROW 3B : ... .. . ... ... ... : ... .. . P7D ... ... : ... .. . ... ... ... : ... .. . ... ... ... : ... .. . ... ... ... : G-3 05 . ... ... ... : D#3 05 . ... ... ... : ... .. . P7D ... ...
ROW 3C : ... .. . ... ... ... : ... .. . P80 ... ... : ... .. . ... ... ... : ... .. . ... ... ... : ... .. . ... ... ... : G-3 06 . ... ... ... : D#3 06 . ... ... ... : ... .. . P7C ... ...
ROW 3D : ... .. . ... ... ... : ... .. . P81 ... ... : --- .. . ... ... ... : ... .. . ... ... ... : ... .. . ... ... ... : G-3 07 . ... ... ... : D#3 07 . ... ... ... : ... .. . ... ... ...
ROW 3E : ... .. . ... ... ... : ... .. . P84 ... ... : ... .. . ... ... ... : ... .. . ... ... ... : ... .. . ... ... ... : G-3 08 . ... ... ... : D#3 08 . ... ... ... : ... .. . P7E ... ...
ROW 3F : ... .. . ... ... ... : ... .. . ... ... ... : ... .. . ... ... ... : ... .. . ... ... ... : ... .. . ... ... ... : G-3 09 . ... ... ... : D#3 09 . ... ... ... : ... .. . P80 ... ...
ROW 40 : ... .. . ... ... ... : ... .. . P83 ... ... : G-5 00 . ... ... ... : C-# 00 C ... ... ... : ... .. . ... ... ... : D#3 03 . ... ... ... : G-3 03 . ... ... ... : ... .. . P82 ... ...
ROW 41 : ... .. . ... ... ... : ... .. . P81 ... ... : ... .. . ... ... ... : ... .. B ... ... ... : ... .. . ... ... ... : ... .. . ... ... ... : ... .. . ... ... ... : ... .. . P84 ... ...
ROW 42 : ... .. . ... ... ... : ... .. . P80 ... ... : ... .. . ... ... ... : ... .. 9 ... ... ... : ... .. . ... ... ... : ... .. . ... ... ... : ... .. . ... ... ... : ... .. . ... ... ...
ROW 43 : ... .. . ... ... ... : ... .. . P7D ... ... : ... .. . ... ... ... : ... .. 8 ... ... ... : ... .. . ... ... ... : ... .. . ... ... ... : ... .. . ... ... ... : ... .. . P83 ... ...
ROW 44 : ... .. . ... ... ... : ... .. . P7C ... ... : ... .. . ... ... ... : --- .. . ... ... ... : ... .. . ... ... ... : ... .. . ... ... ... : ... .. . ... ... ... : ... .. . P80 ... ...
ROW 45 : ... .. . ... ... ... : ... .. . ... ... ... : ... .. . ... ... ... : ... .. . ... ... ... : ... .. . ... ... ... : D#3 04 . ... ... ... : G-3 04 . ... ... ... : ... .. . P7F ... ...
ROW 46 : ... .. . ... ... ... : ... .. . P7E ... ... : A#5 00 . ... ... ... : ... .. . ... ... ... : ... .. . ... ... ... : ... .. . ... ... ... : ... .. . ... ... ... : ... .. . P7C ... ...
ROW 47 : ... .. . ... ... ... : ... .. . P80 ... ... : ... .. . ... ... ... : ... .. . ... ... ... : ... .. . ... ... ... : D#3 05 . ... ... ... : G-3 05 . ... ... ... : ... .. . ... ... ...
ROW 48 : ... .. . ... ... ... : ... .. . P82 ... ... : ... .. . ... ... ... : ... .. . ... ... ... : ... .. . ... ... ... : D#3 06 . ... ... ... : G-3 06 . ... ... ... : A#1 03 . P7D ... ...
ROW 49 : ... .. . ... ... ... : ... .. . P84 ... ... : --- .. . ... ... ... : ... .. . ... ... ... : ... .. . ... ... ... : D#3 07 . ... ... ... : G-3 07 . ... ... ... : ... .. . P7F ... ...
ROW 4A : ... .. . ... ... ... : ... .. . ... ... ... : ... .. . ... ... ... : ... .. . ... ... ... : ... .. . ... ... ... : D#3 08 . ... ... ... : G-3 08 . ... ... ... : ... .. . P80 ... ...
ROW 4B : ... .. . ... ... ... : ... .. . P83 ... ... : ... .. . ... ... ... : ... .. . ... ... ... : ... .. . ... ... ... : D#3 09 . ... ... ... : G-3 09 . ... ... ... : ... .. . P83 ... ...
ROW 4C : G-3 00 8 ... ... ... : ... .. . P80 ... ... : D#5 00 . ... ... ... : C-# 00 C ... ... ... : ... .. . ... ... ... : G-3 03 . ... ... ... : D#3 03 . ... ... ... : ... .. . P84 ... ...
ROW 4D : ... .. . ... ... ... : ... .. . P7F ... ... : ... .. . ... ... ... : ... .. B ... ... ... : ... .. . ... ... ... : ... .. . ... ... ... : ... .. . ... ... ... : ... .. . ... ... ...
ROW 4E : A#3 01 . ... ... ... : ... .. . P7C ... ... : ... .. . ... ... ... : ... .. 9 ... ... ... : ... .. . ... ... ... : ... .. . ... ... ... : ... .. . ... ... ... : ... .. . P82 ... ...
ROW 4F : ... .. . ... ... ... : ... .. . ... ... ... : ... .. . ... ... ... : ... .. 8 ... ... ... : ... .. . ... ... ... : ... .. . ... ... ... : ... .. . ... ... ... : ... .. . P80 ... ...
ROW 50 : D#4 02 . ... ... ... : ... .. . P7D ... ... : ... .. . ... ... ... : --- .. . ... ... ... : ... .. . ... ... ... : ... .. . ... ... ... : ... .. . ... ... ... : ... .. . P7E ... ...
ROW 51 : ... .. . ... ... ... : ... .. . P7F ... ... : ... .. . ... ... ... : ... .. . ... ... ... : ... .. . ... ... ... : G-3 04 . ... ... ... : D#3 04 . ... ... ... : ... .. . P7C ... ...
ROW 52 : G-3 00 A ... ... ... : ... .. . P80 ... ... : G-5 00 . ... ... ... : ... .. . ... ... ... : ... .. . ... ... ... : ... .. . ... ... ... : ... .. . ... ... ... : ... .. . ... ... ...
ROW 53 : A#3 00 . ... ... ... : ... .. . P83 ... ... : ... .. . ... ... ... : ... .. . ... ... ... : ... .. . ... ... ... : G-3 05 . ... ... ... : D#3 05 . ... ... ... : ... .. . P7D ... ...
ROW 54 : D#4 01 . ... ... ... : ... .. . P84 ... ... : ... .. . ... ... ... : ... .. . ... ... ... : ... .. . ... ... ... : G-3 06 . ... ... ... : D#3 06 . ... ... ... : ... .. . P80 ... ...
ROW 55 : G-3 01 . ... ... ... : ... .. . ... ... ... : --- .. . ... ... ... : ... .. . ... ... ... : ... .. . ... ... ... : G-3 07 . ... ... ... : D#3 07 . ... ... ... : ... .. . P81 ... ...
ROW 56 : A#3 02 . ... ... ... : ... .. . P82 ... ... : ... .. . ... ... ... : ... .. . ... ... ... : ... .. . ... ... ... : G-3 08 . ... ... ... : D#3 08 . ... ... ... : ... .. . P84 ... ...
ROW 57 : D#4 02 . ... ... ... : ... .. . P80 ... ... : ... .. . ... ... ... : ... .. . ... ... ... : ... .. . ... ... ... : G-3 09 . ... ... ... : D#3 09 . ... ... ... : ... .. . ... ... ...
ROW 58 : G-3 00 . ... ... ... : ... .. . P7E ... ... : B-4 00 . ... ... ... : A-# 00 A ... ... ... : C#1 0A . ... ... ... : G#3 03 . ... ... ... : G-3 03 . ... ... ... : ... .. . P83 ... ...
ROW 59 : A#3 00 8 ... ... ... : ... .. . P7C ... ... : ... .. . ... ... ... : ... .. 9 ... ... ... : ... .. . ... ... ... : ... .. . ... ... ... : ... .. . ... ... ... : ... .. . P81 ... ...
ROW 5A : D#4 01 6 ... ... ... : ... .. . ... ... ... : ... .. . ... ... ... : ... .. 8 ... ... ... : ... .. . ... ... ... : ... .. . ... ... ... : ... .. . ... ... ... : ... .. . P80 ... ...
ROW 5B : G-3 01 3 ... ... ... : ... .. . P7D ... ... : ... .. . ... ... ... : ... .. 6 ... ... ... : ... .. . ... ... ... : ... .. . ... ... ... : ... .. . ... ... ... : ... .. . P7D ... ...
ROW 5C : A#3 02 2 ... ... ... : ... .. . P80 ... ... : ... .. . ... ... ... : --- .. . ... ... ... : ... .. . ... ... ... : ... .. . ... ... ... : ... .. . ... ... ... : ... .. . P7C ... ...
ROW 5D : D#4 02 1 ... ... ... : ... .. . P81 ... ... : ... .. . ... ... ... : ... .. . ... ... ... : ... .. . ... ... ... : G#3 04 . ... ... ... : G-3 04 . ... ... ... : ... .. . ... ... ...
ROW 5E : --- .. . ... ... ... : ... .. . P84 ... ... : D#5 00 . ... ... ... : ... .. . ... ... ... : ... .. . ... ... ... : ... .. . ... ... ... : ... .. . ... ... ... : ... .. . P7E ... ...
ROW 5F : ... .. . ... ... ... : ... .. . ... ... ... : ... .. . ... ... ... : ... .. . ... ... ... : ... .. . ... ... ... : G#3 05 . ... ... ... : G-3 05 . ... ... ... : ... .. . P80 ... ...
ROW 60 : ... .. . ... ... ... : ... .. . P83 ... ... : ... .. . ... ... ... : ... .. . ... ... ... : ... .. . ... ... ... : G#3 06 . ... ... ... : G-3 06 . ... ... ... : ... .. . P82 ... ...
ROW 61 : ... .. . ... ... ... : ... .. . P81 ... ... : --- .. . ... ... ... : ... .. . ... ... ... : ... .. . ... ... ... : G#3 07 . ... ... ... : G-3 07 . ... ... ... : ... .. . P84 ... ...
ROW 62 : ... .. . ... ... ... : ... .. . P80 ... ... : ... .. . ... ... ... : ... .. . ... ... ... : ... .. . ... ... ... : G#3 08 . ... ... ... : G-3 08 . ... ... ... : ... .. . ... ... ...
ROW 63 : ... .. . ... ... ... : ... .. . P7D ... ... : ... .. . ... ... ... : ... .. . ... ... ... : ... .. . ... ... ... : G#3 09 . ... ... ... : G-3 09 . ... ... ... : ... .. . P83 ... ...
ROW 64 : G#3 00 8 ... ... ... : ... .. . P7C ... ... : G#4 00 . ... ... ... : C-# 00 A ... ... ... : ... .. . ... ... ... : ... .. . P82 ... ... : G#3 03 . ... ... ... : ... .. . P80 ... ...
ROW 65 : ... .. . ... ... ... : ... .. . ... ... ... : ... .. . ... ... ... : ... .. 9 ... ... ... : ... .. . ... ... ... : ... .. . P84 ... ... : ... .. . ... ... ... : ... .. . P7F ... ...
ROW 66 : B-3 01 . ... ... ... : ... .. . P7E ... ... : ... .. . ... ... ... : ... .. 8 ... ... ... : ... .. . ... ... ... : ... .. . ... ... ... : ... .. . ... ... ... : ... .. . P7C ... ...
ROW 67 : ... .. 6 ... ... ... : ... .. . P80 ... ... : ... .. . ... ... ... : ... .. 6 ... ... ... : ... .. . ... ... ... : ... .. . P83 ... ... : ... .. . ... ... ... : ... .. . ... ... ...
ROW 68 : D#4 02 4 ... ... ... : ... .. . P82 ... ... : ... .. . ... ... ... : --- .. . ... ... ... : ... .. . ... ... ... : ... .. . P80 ... ... : ... .. . ... ... ... : ... .. . P7D ... ...
ROW 69 : ... .. 2 ... ... ... : ... .. . P84 ... ... : ... .. . ... ... ... : ... .. . ... ... ... : ... .. . ... ... ... : ... .. . P7F ... ... : G#3 04 . ... ... ... : ... .. . P7F ... ...
ROW 6A : G#3 00 1 ... ... ... : ... .. . ... ... ... : B-4 00 . ... ... ... : ... .. . ... ... ... : ... .. . ... ... ... : ... .. . P7C ... ... : ... .. . ... ... ... : ... .. . P80 ... ...
ROW 6B : B-3 00 . ... ... ... : ... .. . P83 ... ... : ... .. . ... ... ... : ... .. . ... ... ... : ... .. . ... ... ... : ... .. . ... ... ... : G#3 05 . ... ... ... : ... .. . P83 ... ...
ROW 6C : --- .. . ... ... ... : ... .. . P80 ... ... : ... .. . ... ... ... : ... .. . ... ... ... : ... .. . ... ... ... : ... .. . P7D ... ... : G#3 06 . ... ... ... : ... .. . P84 ... ...
ROW 6D : ... .. . ... ... ... : ... .. . P7F ... ... : --- .. . ... ... ... : ... .. . ... ... ... : ... .. . ... ... ... : ... .. . P7F ... ... : G#3 07 . ... ... ... : ... .. . ... ... ...
ROW 6E : ... .. . ... ... ... : ... .. . P7C ... ... : ... .. . ... ... ... : ... .. . ... ... ... : ... .. . ... ... ... : ... .. . P80 ... ... : G#3 08 . ... ... ... : ... .. . P82 ... ...
ROW 6F : ... .. . ... ... ... : ... .. . ... ... ... : ... .. . ... ... ... : ... .. . ... ... ... : ... .. . ... ... ... : ... .. . P83 ... ... : G#3 09 . ... ... ... : ... .. . P80 ... ...
ROW 70 : G#3 00 8 ... ... ... : ... .. . P7D ... ... : D#4 00 . ... ... ... : A-# 00 B ... ... ... : C-1 0A . ... ... ... : ... .. . P84 ... ... : ... .. . P82 ... ... : ... .. . P7E ... ...
ROW 71 : ... .. . ... ... ... : ... .. . P7F ... ... : ... .. . ... ... ... : ... .. A ... ... ... : ... .. . ... ... ... : ... .. . ... ... ... : ... .. . P84 ... ... : ... .. . P7C ... ...
ROW 72 : B-3 01 . ... ... ... : ... .. . P80 ... ... : ... .. . ... ... ... : ... .. 8 ... ... ... : ... .. . ... ... ... : ... .. . P82 ... ... : ... .. . ... ... ... : ... .. . ... ... ...
ROW 73 : ... .. . ... ... ... : ... .. . P83 ... ... : ... .. . ... ... ... : ... .. 7 ... ... ... : ... .. . ... ... ... : ... .. . P80 ... ... : ... .. . P83 ... ... : ... .. . P7D ... ...
ROW 74 : D#4 02 . ... ... ... : ... .. . P84 ... ... : ... .. . ... ... ... : --- .. . ... ... ... : ... .. . ... ... ... : ... .. . P7E ... ... : ... .. . P80 ... ... : ... .. . P80 ... ...
ROW 75 : ... .. . ... ... ... : ... .. . ... ... ... : ... .. . ... ... ... : ... .. . ... ... ... : ... .. . ... ... ... : ... .. . P7C ... ... : ... .. . P7F ... ... : ... .. . P81 ... ...
ROW 76 : --- .. . ... ... ... : ... .. . P82 ... ... : G#4 00 . ... ... ... : ... .. . ... ... ... : ... .. . ... ... ... : ... .. . ... ... ... : ... .. . P7C ... ... : ... .. . P84 ... ...
ROW 77 : ... .. . ... ... ... : ... .. . P80 ... ... : ... .. . ... ... ... : ... .. . ... ... ... : ... .. . ... ... ... : ... .. 9 P7D ... ... : ... .. . ... ... ... : ... .. . ... ... ...
ROW 78 : ... .. . ... ... ... : D#3 01 1 P7E ... ... : ... .. . ... ... ... : ... .. . ... ... ... : ... .. . ... ... ... : ... .. 8 P80 ... ... : ... .. . P7D ... ... : G#1 03 . P83 ... ...
ROW 79 : ... .. . ... ... ... : ... .. . P7C ... ... : --- .. . ... ... ... : ... .. . ... ... ... : ... .. . ... ... ... : ... .. . P81 ... ... : ... .. . P7F ... ... : ... .. . P81 ... ...
ROW 7A : ... .. . ... ... ... : ... .. 3 ... ... ... : ... .. . ... ... ... : ... .. . ... ... ... : ... .. . ... ... ... : ... .. 7 P84 ... ... : ... .. . P80 ... ... : ... .. . P80 ... ...
ROW 7B : ... .. . ... ... ... : ... .. 4 P7D ... ... : ... .. . ... ... ... : ... .. . ... ... ... : ... .. . ... ... ... : ... .. 6 ... ... ... : ... .. . P83 ... ... : ... .. . P7D ... ...
ROW 7C : G#3 00 . ... ... ... : ... .. . P80 ... ... : A#3 00 . ... ... ... : ... .. . ... ... ... : ... .. . ... ... ... : ... .. 4 P83 ... ... : ... .. . P84 ... ... : ... .. . P7C ... ...
ROW 7D : ... .. . ... ... ... : ... .. . P81 ... ... : ... .. . ... ... ... : ... .. . ... ... ... : ... .. . ... ... ... : ... .. . P81 ... ... : ... .. . ... ... ... : ... .. . ... ... ...
ROW 7E : B-3 01 . ... ... ... : ... .. . P84 ... ... : ... .. . ... ... ... : ... .. . ... ... ... : ... .. . ... ... ... : ... .. 2 P80 ... ... : ... .. . P82 ... ... : ... .. . P7E ... ...
ROW 7F : ... .. . ... ... ... : ... .. . ... ... ... : ... .. . ... ... ... : ... .. . ... ... ... : ... .. . ... ... ... : ... .. . P7D ... ... : ... .. . P80 ... ... : ... .. . P80 ... ...
ROW 80 : D#4 02 . ... ... ... : ... .. . P83 ... ... : ... .. . ... ... ... : ... .. . ... ... ... : ... .. . ... ... ... : ... .. 1 P7C ... ... : ... .. . P7E ... ... : ... .. . P82 ... ...
ROW 81 : ... .. . ... ... ... : ... .. . P81 ... ... : ... .. . ... ... ... : ... .. . ... ... ... : ... .. . ... ... ... : ... .. . ... ... ... : ... .. . P7C ... ... : ... .. . P84 ... ...
ROW 82 : G#3 00 A ... ... ... : ... .. . P80 ... ... : D#4 00 . ... ... ... : ... .. . ... ... ... : ... .. . ... ... ... : ... .. . P7E ... ... : ... .. . ... ... ... : ... .. . ... ... ...
ROW 83 : B-3 00 . ... ... ... : ... .. . P7D ... ... : ... .. . ... ... ... : ... .. . ... ... ... : ... .. . ... ... ... : --- .. . ... ... ... : ... .. 4 P7D ... ... : ... .. . P83 ... ...
ROW 84 : D#4 01 . ... ... ... : ... .. . P7C ... ... : ... .. . ... ... ... : ... .. . ... ... ... : ... .. . ... ... ... : ... .. . ... ... ... : ... .. . P80 ... ... : ... .. . P80 ... ...
ROW 85 : G#3 01 . ... ... ... : ... .. . ... ... ... : --- .. . ... ... ... : ... .. . ... ... ... : ... .. . ... ... ... : ... .. . ... ... ... : ... .. . P81 ... ... : ... .. . P7F ... ...
ROW 86 : B-3 02 . ... ... ... : ... .. . P7E ... ... : ... .. . ... ... ... : ... .. . ... ... ... : ... .. . ... ... ... : ... .. . ... ... ... : ... .. 3 P84 ... ... : ... .. . P7C ... ...
ROW 87 : D#4 02 . ... ... ... : ... .. . P80 ... ... : ... .. . ... ... ... : ... .. . ... ... ... : ... .. . ... ... ... : ... .. . ... ... ... : ... .. . ... ... ... : ... .. . ... ... ...
ROW 88 : --- .. . ... ... ... : ... .. . P82 ... ... : C#5 00 . P83 ... ... : D-# 00 E ... ... ... : C-1 0A . ... ... ... : G#3 06 . P80 ... ... : B-2 06 1 P83 ... ... : ... .. . P7D ... ...
ROW 89 : ... .. . ... ... ... : ... .. . P84 ... ... : D-5 00 . P81 ... ... : ... .. . ... ... ... : ... .. . ... ... ... : ... .. . P7F ... ... : ... .. . P81 ... ... : ... .. . P7F ... ...
ROW 8A : ... .. . ... ... ... : ... .. . ... ... ... : D#5 00 . P7F ... ... : ... .. . ... ... ... : ... .. . ... ... ... : ... .. 3 P7C ... ... : ... .. 3 P80 ... ... : ... .. . P80 ... ...
ROW 8B : ... .. . ... ... ... : ... .. . P83 ... ... : ... .. . P80 ... ... : ... .. . ... ... ... : ... .. . ... ... ... : ... .. 4 ... ... ... : ... .. 4 P7D ... ... : ... .. . P83 ... ...
ROW 8C : ... .. . ... ... ... : ... .. . P80 ... ... : ... .. . ... ... ... : ... .. D ... ... ... : ... .. . ... ... ... : ... .. . P7D ... ... : ... .. . P7C ... ... : ... .. . P84 ... ...
ROW 8D : ... .. . ... ... ... : ... .. . P7F ... ... : ... .. . ... ... ... : ... .. . ... ... ... : ... .. . ... ... ... : ... .. . P7F ... ... : ... .. . ... ... ... : ... .. . ... ... ...
ROW 8E : ... .. . ... ... ... : ... .. . P7C ... ... : ... .. . P7F ... ... : C-# 00 . ... ... ... : ... .. . ... ... ... : ... .. . P80 ... ... : ... .. . P7E ... ... : ... .. . P82 ... ...
ROW 8F : ... .. . ... ... ... : ... .. . ... ... ... : ... .. . ... ... ... : ... .. . ... ... ... : ... .. . ... ... ... : ... .. . P83 ... ... : ... .. . P80 ... ... : ... .. . P80 ... ...
ROW 90 : ... .. . ... ... ... : ... .. . P7D ... ... : ... .. . ... ... ... : ... .. C ... ... ... : ... .. . ... ... ... : ... .. . P84 ... ... : ... .. . P82 ... ... : ... .. . P7E ... ...
ROW 91 : ... .. . ... ... ... : ... .. . P7F ... ... : ... .. . P80 ... ... : ... .. . ... ... ... : ... .. . ... ... ... : ... .. . ... ... ... : ... .. . P84 ... ... : ... .. . P7C ... ...
ROW 92 : ... .. . ... ... ... : ... .. . P80 ... ... : ... .. . ... ... ... : ... .. . ... ... ... : ... .. . ... ... ... : ... .. . P82 ... ... : ... .. . ... ... ... : ... .. . ... ... ...
ROW 93 : ... .. . ... ... ... : ... .. . P83 ... ... : ... .. . P81 ... ... : ... .. . ... ... ... : ... .. . ... ... ... : ... .. . P80 ... ... : ... .. . P83 ... ... : ... .. . P7D ... ...
ROW 94 : ... .. . ... ... ... : ... .. . P84 ... ... : ... .. . ... ... ... : B-# 00 B ... ... ... : ... .. . ... ... ... : ... .. . P7E ... ... : ... .. . P80 ... ... : ... .. . P80 ... ...
ROW 95 : ... .. . ... ... ... : ... .. . ... ... ... : ... .. . ... ... ... : ... .. . ... ... ... : ... .. . ... ... ... : ... .. . P7C ... ... : ... .. . P7F ... ... : ... .. . P81 ... ...
ROW 96 : ... .. . ... ... ... : ... .. . P82 ... ... : ... .. . P80 ... ... : ... .. . ... ... ... : ... .. . ... ... ... : ... .. . ... ... ... : ... .. . P7C ... ... : ... .. . P84 ... ...
ROW 97 : ... .. . ... ... ... : ... .. . P80 ... ... : ... .. . ... ... ... : ... .. . ... ... ... : ... .. . ... ... ... : ... .. . P7D ... ... : ... .. . ... ... ... : ... .. . ... ... ...
ROW 98 : ... .. . ... ... ... : ... .. . P7E ... ... : ... .. . ... ... ... : ... .. A ... ... ... : ... .. . ... ... ... : ... .. . P80 ... ... : ... .. . P7D ... ... : ... .. . P83 ... ...
ROW 99 : ... .. . ... ... ... : ... .. . P7C ... ... : ... .. . P7F ... ... : ... .. . ... ... ... : ... .. . ... ... ... : ... .. . P81 ... ... : ... .. . P7F ... ... : ... .. . P81 ... ...
ROW 9A : ... .. . ... ... ... : ... .. . ... ... ... : ... .. . ... ... ... : A-# 00 . ... ... ... : ... .. . ... ... ... : ... .. . P84 ... ... : ... .. . P80 ... ... : ... .. . P80 ... ...
ROW 9B : ... .. . ... ... ... : ... .. . P7D ... ... : ... .. . P80 ... ... : ... .. . ... ... ... : ... .. . ... ... ... : ... .. . ... ... ... : ... .. . P83 ... ... : ... .. . P7D ... ...
ROW 9C : ... .. . ... ... ... : ... .. . P80 ... ... : ... .. . ... ... ... : ... .. 9 ... ... ... : ... .. . ... ... ... : ... .. . P83 ... ... : ... .. . P84 ... ... : ... .. . P7C ... ...
ROW 9D : ... .. . ... ... ... : ... .. . P81 ... ... : ... .. . ... ... ... : ... .. . ... ... ... : ... .. . ... ... ... : ... .. . P81 ... ... : ... .. . ... ... ... : ... .. . ... ... ...
ROW 9E : ... .. . ... ... ... : ... .. . P84 ... ... : ... .. . P81 ... ... : ... .. . ... ... ... : ... .. . ... ... ... : ... .. . P80 ... ... : ... .. . P82 ... ... : ... .. . P7E ... ...
ROW 9F : ... .. . ... ... ... : ... .. . ... ... ... : ... .. . ... ... ... : ... .. . ... ... ... : ... .. . ... ... ... : ... .. . P7D ... ... : ... .. . P80 ... ... : ... .. . P80 ... ...
ROW A0 : ... .. . ... ... ... : ... .. . P83 ... ... : ... .. . ... ... ... : 9-# 00 8 ... ... ... : ... .. . ... ... ... : ... .. . P7C ... ... : ... .. . P7E ... ... : ... .. . P82 ... ...
ROW A1 : ... .. . ... ... ... : ... .. . P81 ... ... : ... .. . P80 ... ... : ... .. . ... ... ... : ... .. . ... ... ... : ... .. . ... ... ... : ... .. . P7C ... ... : ... .. . P84 ... ...
ROW A2 : ... .. . ... ... ... : ... .. . P80 ... ... : ... .. . ... ... ... : ... .. . ... ... ... : ... .. . ... ... ... : ... .. . P7E ... ... : ... .. . ... ... ... : ... .. . ... ... ...
ROW A3 : ... .. . ... ... ... : ... .. . P7D ... ... : ... .. . P7F ... ... : ... .. . ... ... ... : ... .. . ... ... ... : ... .. . P80 ... ... : ... .. . P7D ... ... : ... .. . P83 ... ...
ROW A4 : ... .. . ... ... ... : ... .. . P7C ... ... : ... .. . ... ... ... : ... .. . ... ... ... : ... .. . ... ... ... : ... .. . P82 ... ... : ... .. . P80 ... ... : ... .. . P80 ... ...
ROW A5 : ... .. . ... ... ... : ... .. . ... ... ... : ... .. . ... ... ... : ... .. . ... ... ... : ... .. . ... ... ... : ... .. . P84 ... ... : ... .. . P81 ... ... : ... .. . P7F ... ...
ROW A6 : ... .. . ... ... ... : ... .. . P7E ... ... : --- .. . ... ... ... : 8-# 00 . ... ... ... : ... .. . ... ... ... : ... .. . ... ... ... : ... .. . P84 ... ... : ... .. . P7C ... ...
ROW A7 : ... .. . ... ... ... : ... .. . P80 ... ... : ... .. . ... ... ... : ... .. . ... ... ... : ... .. . ... ... ... : ... .. . P83 ... ... : ... .. . ... ... ... : ... .. . ... ... ...
ROW A8 : ... .. . ... ... ... : E-3 01 1 P82 ... ... : ... .. . ... ... ... : ... .. 7 ... ... ... : ... .. . ... ... ... : ... .. . P80 ... ... : ... .. . P83 ... ... : ... .. . P7D ... ...
ROW A9 : ... .. . ... ... ... : ... .. . P84 ... ... : ... .. . ... ... ... : ... .. . ... ... ... : ... .. . ... ... ... : ... .. . P7F ... ... : ... .. . P81 ... ... : ... .. . P7F ... ...
ROW AA : ... .. . ... ... ... : ... .. 3 ... ... ... : ... .. . ... ... ... : ... .. . ... ... ... : ... .. . ... ... ... : ... .. . P7C ... ... : ... .. . P80 ... ... : ... .. . P80 ... ...
ROW AB : ... .. . ... ... ... : ... .. 4 P83 ... ... : ... .. . ... ... ... : ... .. . ... ... ... : ... .. . ... ... ... : ... .. . ... ... ... : ... .. . P7D ... ... : ... .. . P83 ... ...
ROW AC : ... .. . ... ... ... : ... .. . P80 ... ... : D#5 00 . P80 ... ... : 7-# 00 . ... ... ... : ... .. . ... ... ... : ... .. . P7D ... ... : ... .. . P7C ... ... : ... .. . P84 ... ...
ROW AD : ... .. . ... ... ... : ... .. . P7F ... ... : ... .. . ... ... ... : ... .. . ... ... ... : ... .. . ... ... ... : ... .. . P7F ... ... : ... .. . ... ... ... : ... .. . ... ... ...
ROW AE : ... .. . ... ... ... : ... .. . P7C ... ... : ... .. . P7F ... ... : ... .. . ... ... ... : ... .. . ... ... ... : ... .. . P80 ... ... : ... .. . P7E ... ... : ... .. . P82 ... ...
ROW AF : ... .. . ... ... ... : ... .. . ... ... ... : ... .. . ... ... ... : ... .. . ... ... ... : ... .. . ... ... ... : ... .. . P83 ... ... : ... .. . P80 ... ... : ... .. . P80 ... ...
ROW B0 : ... .. . ... ... ... : ... .. . P7D ... ... : ... .. . ... ... ... : ... .. 6 ... ... ... : ... .. . ... ... ... : ... .. . P84 ... ... : ... .. . P82 ... ... : ... .. . P7E ... ...
ROW B1 : ... .. . ... ... ... : ... .. . P7F ... ... : ... .. . P80 ... ... : ... .. . ... ... ... : ... .. . ... ... ... : ... .. . ... ... ... : ... .. . P84 ... ... : ... .. . P7C ... ...
ROW B2 : ... .. . ... ... ... : ... .. . P80 ... ... : ... .. . ... ... ... : 6-# 00 . ... ... ... : ... .. . ... ... ... : ... .. . P82 ... ... : ... .. . ... ... ... : ... .. . ... ... ...
ROW B3 : ... .. . ... ... ... : ... .. . P83 ... ... : ... .. . P81 ... ... : ... .. . ... ... ... : ... .. . ... ... ... : ... .. . P80 ... ... : ... .. . P83 ... ... : ... .. . P7D ... ...
ROW B4 : ... .. . ... ... ... : ... .. . P84 ... ... : ... .. . ... ... ... : ... .. . ... ... ... : ... .. . ... ... ... : ... .. . P7E ... ... : ... .. . P80 ... ... : ... .. . P80 ... ...
ROW B5 : ... .. . ... ... ... : ... .. . ... ... ... : ... .. . ... ... ... : ... .. . ... ... ... : ... .. . ... ... ... : ... .. . P7C ... ... : ... .. . P7F ... ... : ... .. . P81 ... ...
ROW B6 : ... .. . ... ... ... : ... .. . P82 ... ... : ... .. . P80 ... ... : ... .. . ... ... ... : ... .. . ... ... ... : ... .. . ... ... ... : ... .. . P7C ... ... : ... .. . P84 ... ...
ROW B7 : ... .. . ... ... ... : ... .. . P80 ... ... : ... .. . ... ... ... : ... .. . ... ... ... : ... .. . ... ... ... : ... .. . P7D ... ... : ... .. . ... ... ... : ... .. . ... ... ...
ROW B8 : ... .. . ... ... ... : ... .. . P7E ... ... : E-5 00 . ... ... ... : 5-# 00 5 ... ... ... : ... .. . ... ... ... : ... .. . P80 ... ... : C#3 06 1 P7D ... ... : ... .. . P83 ... ...
ROW B9 : ... .. . ... ... ... : ... .. . P7C ... ... : ... .. . P7F ... ... : ... .. . ... ... ... : ... .. . ... ... ... : ... .. . P81 ... ... : ... .. . P7F ... ... : ... .. . P81 ... ...
ROW BA : ... .. . ... ... ... : ... .. . ... ... ... : ... .. . ... ... ... : ... .. . ... ... ... : ... .. . ... ... ... : ... .. . P84 ... ... : ... .. 3 P80 ... ... : ... .. . P80 ... ...
ROW BB : ... .. . ... ... ... : ... .. . P7D ... ... : ... .. . P80 ... ... : ... .. . ... ... ... : ... .. . ... ... ... : ... .. . ... ... ... : ... .. 4 P83 ... ... : ... .. . P7D ... ...
ROW BC : ... .. . ... ... ... : ... .. . P80 ... ... : ... .. . ... ... ... : ... .. . ... ... ... : ... .. . ... ... ... : ... .. . P83 ... ... : ... .. . P84 ... ... : ... .. . P7C ... ...
ROW BD : ... .. . ... ... ... : ... .. . P81 ... ... : ... .. . ... ... ... : ... .. . ... ... ... : ... .. . ... ... ... : ... .. . P81 ... ... : ... .. . ... ... ... : ... .. . ... ... ...
ROW BE : ... .. . ... ... ... : ... .. . P84 ... ... : ... .. . P81 ... ... : ... .. . ... ... ... : ... .. . ... ... ... : ... .. . P80 ... ... : ... .. . P82 ... ... : ... .. . P7E ... ...
ROW BF : ... .. . ... ... ... : ... .. . ... ... ... : ... .. . ... ... ... : ... .. . ... ... ... : ... .. . ... ... ... : ... .. . P7D ... ... : ... .. . P80 ... ... : ... .. . P80 ... ...
ROW C0 : ... .. . ... ... ... : ... .. . P83 ... ... : ... .. . ... ... ... : ... .. 4 ... ... ... : ... .. . ... ... ... : ... .. . P7C ... ... : ... .. . P7E ... ... : ... .. . P82 ... ...
ROW C1 : ... .. . ... ... ... : ... .. . P81 ... ... : ... .. . P80 ... ... : ... .. . ... ... ... : ... .. . ... ... ... : ... .. . ... ... ... : ... .. . P7C ... ... : ... .. . P84 ... ...
ROW C2 : ... .. . ... ... ... : ... .. . P80 ... ... : ... .. . ... ... ... : ... .. . ... ... ... : ... .. . ... ... ... : ... .. . P7E ... ... : ... .. . ... ... ... : ... .. . ... ... ...
ROW C3 : ... .. . ... ... ... : ... .. . P7D ... ... : ... .. . P7F ... ... : ... .. . ... ... ... : ... .. . ... ... ... : ... .. . P80 ... ... : ... .. . P7D ... ... : ... .. . P83 ... ...
ROW C4 : ... .. . ... ... ... : ... .. . P7C ... ... : D#5 00 . ... ... ... : 4-# 00 . ... ... ... : ... .. . ... ... ... : ... .. . P82 ... ... : ... .. . P80 ... ... : ... .. . P80 ... ...
ROW C5 : ... .. . ... ... ... : ... .. . ... ... ... : ... .. . ... ... ... : ... .. . ... ... ... : ... .. . ... ... ... : ... .. . P84 ... ... : ... .. . P81 ... ... : ... .. . P7F ... ...
ROW C6 : ... .. . ... ... ... : ... .. . P7E ... ... : ... .. . P80 ... ... : ... .. . ... ... ... : ... .. . ... ... ... : ... .. . ... ... ... : ... .. . P84 ... ... : ... .. . P7C ... ...
ROW C7 : ... .. . ... ... ... : ... .. . P80 ... ... : ... .. . ... ... ... : ... .. . ... ... ... : ... .. . ... ... ... : ... .. . P83 ... ... : ... .. . ... ... ... : ... .. . ... ... ...
ROW C8 : ... .. . ... ... ... : ... .. . P82 ... ... : ... .. . ... ... ... : ... .. 3 ... ... ... : ... .. . ... ... ... : ... .. . P80 ... ... : ... .. . P83 ... ... : ... .. . P7D ... ...
ROW C9 : ... .. . ... ... ... : ... .. . P84 ... ... : ... .. . P81 ... ... : ... .. . ... ... ... : ... .. . ... ... ... : ... .. . P7F ... ... : ... .. . P81 ... ... : ... .. . P7F ... ...
ROW CA : ... .. . ... ... ... : ... .. . ... ... ... : ... .. . ... ... ... : ... .. . ... ... ... : ... .. . ... ... ... : ... .. . P7C ... ... : ... .. . P80 ... ... : ... .. . P80 ... ...
ROW CB : ... .. . ... ... ... : ... .. . P83 ... ... : ... .. . P80 ... ... : ... .. . ... ... ... : ... .. . ... ... ... : ... .. . ... ... ... : ... .. . P7D ... ... : ... .. . P83 ... ...
ROW CC : ... .. . ... ... ... : ... .. . P80 ... ... : ... .. . ... ... ... : ... .. . ... ... ... : ... .. . ... ... ... : ... .. . P7D ... ... : ... .. . P7C ... ... : ... .. . P84 ... ...
ROW CD : ... .. . ... ... ... : ... .. . P7F ... ... : ... .. . ... ... ... : ... .. . ... ... ... : ... .. . ... ... ... : ... .. . P7F ... ... : ... .. . ... ... ... : ... .. . ... ... ...
ROW CE : ... .. . ... ... ... : ... .. . P7C ... ... : ... .. . P7F ... ... : ... .. . ... ... ... : ... .. . ... ... ... : ... .. . P80 ... ... : ... .. . P7E ... ... : ... .. . P82 ... ...
ROW CF : ... .. . ... ... ... : ... .. . ... ... ... : ... .. . ... ... ... : ... .. . ... ... ... : ... .. . ... ... ... : ... .. . P83 ... ... : ... .. . P80 ... ... : ... .. . P80 ... ...
ROW D0 : ... .. . ... ... ... : ... .. . P7D ... ... : C#5 00 . ... ... ... : 3-# 00 2 ... ... ... : ... .. . ... ... ... : ... .. . P84 ... ... : ... .. . P82 ... ... : ... .. . P7E ... ...
ROW D1 : ... .. . ... ... ... : ... .. . P7F ... ... : ... .. . P80 ... ... : ... .. . ... ... ... : ... .. . ... ... ... : ... .. . ... ... ... : ... .. . P84 ... ... : ... .. . P7C ... ...
ROW D2 : ... .. . ... ... ... : ... .. . P80 ... ... : ... .. . ... ... ... : ... .. . ... ... ... : ... .. . ... ... ... : ... .. . P82 ... ... : ... .. . ... ... ... : ... .. . ... ... ...
ROW D3 : ... .. . ... ... ... : ... .. . P83 ... ... : ... .. . P81 ... ... : ... .. . ... ... ... : ... .. . ... ... ... : ... .. . P80 ... ... : ... .. . P83 ... ... : ... .. . P7D ... ...
ROW D4 : ... .. . ... ... ... : ... .. . P84 ... ... : ... .. . ... ... ... : ... .. . ... ... ... : ... .. . ... ... ... : ... .. . P7E ... ... : ... .. . P80 ... ... : ... .. . P80 ... ...
ROW D5 : ... .. . ... ... ... : ... .. . ... ... ... : ... .. . ... ... ... : ... .. . ... ... ... : ... .. . ... ... ... : ... .. . P7C ... ... : ... .. . P7F ... ... : ... .. . P81 ... ...
ROW D6 : ... .. . ... ... ... : ... .. . P82 ... ... : ... .. . P80 ... ... : ... .. . ... ... ... : ... .. . ... ... ... : ... .. . ... ... ... : ... .. . P7C ... ... : ... .. . P84 ... ...
ROW D7 : ... .. . ... ... ... : ... .. . P80 ... ... : ... .. . ... ... ... : ... .. . ... ... ... : ... .. . ... ... ... : ... .. . P7D ... ... : ... .. . ... ... ... : ... .. . ... ... ...
ROW D8 : ... .. . ... ... ... : ... .. . P7E ... ... : ... .. . ... ... ... : ... .. 1 ... ... ... : ... .. . ... ... ... : ... .. . P80 ... ... : ... .. . P7D ... ... : A#1 03 . P83 ... ...
ROW D9 : ... .. . ... ... ... : ... .. . P7C ... ... : ... .. . P7F ... ... : ... .. . ... ... ... : ... .. . ... ... ... : ... .. . P81 ... ... : ... .. . P7F ... ... : ... .. . P81 ... ...
ROW DA : ... .. . ... ... ... : ... .. . ... ... ... : ... .. . ... ... ... : ... .. . ... ... ... : ... .. . ... ... ... : ... .. . P84 ... ... : ... .. . P80 ... ... : ... .. . P80 ... ...
ROW DB : ... .. . ... ... ... : ... .. . P7D ... ... : ... .. . P80 ... ... : ... .. . ... ... ... : ... .. . ... ... ... : ... .. . ... ... ... : ... .. . P83 ... ... : ... .. . P7D ... ...
ROW DC : ... .. . ... ... ... : ... .. . P80 ... ... : B-4 00 . ... ... ... : 2-# 00 . ... ... ... : ... .. . ... ... ... : ... .. . P83 ... ... : ... .. . P84 ... ... : ... .. . P7C ... ...
ROW DD : ... .. . ... ... ... : ... .. . P81 ... ... : ... .. . ... ... ... : ... .. . ... ... ... : ... .. . ... ... ... : ... .. . P81 ... ... : ... .. . ... ... ... : ... .. . ... ... ...
ROW DE : ... .. . ... ... ... : ... .. . P84 ... ... : ... .. . P81 ... ... : ... .. . ... ... ... : ... .. . ... ... ... : ... .. . P80 ... ... : ... .. . P82 ... ... : ... .. . P7E ... ...
ROW DF : ... .. . ... ... ... : ... .. . ... ... ... : ... .. . ... ... ... : ... .. . ... ... ... : ... .. . ... ... ... : ... .. . P7D ... ... : ... .. . P80 ... ... : ... .. . P80 ... ...
ROW E0 : ... .. . ... ... ... : ... .. . P83 ... ... : ... .. . ... ... ... : ... .. . ... ... ... : ... .. . ... ... ... : ... .. . P7C ... ... : ... .. . P7E ... ... : ... .. . P82 ... ...
ROW E1 : ... .. . ... ... ... : ... .. . P81 ... ... : ... .. . P80 ... ... : ... .. . ... ... ... : ... .. . ... ... ... : ... .. . ... ... ... : ... .. . P7C ... ... : ... .. . P84 ... ...
ROW E2 : ... .. . ... ... ... : ... .. . P80 ... ... : ... .. . ... ... ... : ... .. . ... ... ... : ... .. . ... ... ... : ... .. . P7E ... ... : ... .. . ... ... ... : ... .. . ... ... ...
ROW E3 : ... .. . ... ... ... : ... .. . P7D ... ... : ... .. . P7F ... ... : ... .. . ... ... ... : ... .. . ... ... ... : ... .. . P80 ... ... : ... .. . P7D ... ... : ... .. . P83 ... ...
ROW E4 : ... .. . ... ... ... : ... .. . P7C ... ... : ... .. . ... ... ... : ... .. . ... ... ... : ... .. . ... ... ... : ... .. . P82 ... ... : ... .. . P80 ... ... : ... .. . P80 ... ...
ROW E5 : ... .. . ... ... ... : ... .. . ... ... ... : ... .. . ... ... ... : ... .. . ... ... ... : ... .. . ... ... ... : ... .. . P84 ... ... : ... .. . P81 ... ... : ... .. . P7F ... ...
ROW E6 : ... .. . ... ... ... : ... .. . P7E ... ... : ... .. . P80 ... ... : ... .. . ... ... ... : ... .. . ... ... ... : ... .. . ... ... ... : ... .. . P84 ... ... : ... .. . P7C ... ...
ROW E7 : ... .. . ... ... ... : ... .. . P80 ... ... : ... .. . ... ... ... : --- .. . ... ... ... : ... .. . ... ... ... : ... .. . P83 ... ... : ... .. . ... ... ... : ... .. . ... ... ...
ROW E8 : ... .. . ... ... ... : ... .. . P82 ... ... : A#4 00 . ... ... ... : ... .. . ... ... ... : ... .. . ... ... ... : A#3 06 1 P80 ... ... : ... .. . P83 ... ... : ... .. . P7D ... ...
ROW E9 : ... .. . ... ... ... : ... .. . P84 ... ... : ... .. . P81 ... ... : ... .. . ... ... ... : ... .. . ... ... ... : ... .. . P7F ... ... : ... .. . P81 ... ... : ... .. . P7F ... ...
ROW EA : ... .. . ... ... ... : ... .. . ... ... ... : ... .. . ... ... ... : ... .. . ... ... ... : ... .. . ... ... ... : ... .. 3 P7C ... ... : ... .. . P80 ... ... : ... .. . P80 ... ...
ROW EB : ... .. . ... ... ... : ... .. . P83 ... ... : ... .. . P80 ... ... : ... .. . ... ... ... : ... .. . ... ... ... : ... .. 4 ... ... ... : ... .. . P7D ... ... : ... .. . P83 ... ...
ROW EC : ... .. . ... ... ... : ... .. . P80 ... ... : ... .. . ... ... ... : ... .. . ... ... ... : ... .. . ... ... ... : ... .. . P7D ... ... : ... .. . P7C ... ... : ... .. . P84 ... ...
ROW ED : ... .. . ... ... ... : ... .. . P7F ... ... : ... .. . ... ... ... : ... .. . ... ... ... : ... .. . ... ... ... : ... .. . P7F ... ... : ... .. . ... ... ... : ... .. . ... ... ...
ROW EE : ... .. . ... ... ... : ... .. . P7C ... ... : ... .. . P7F ... ... : ... .. . ... ... ... : ... .. . ... ... ... : ... .. . P80 ... ... : ... .. . P7E ... ... : ... .. . P82 ... ...
ROW EF : ... .. . ... ... ... : ... .. . ... ... ... : ... .. . ... ... ... : ... .. . ... ... ... : ... .. . ... ... ... : ... .. . P83 ... ... : ... .. . P80 ... ... : ... .. . P80 ... ...
ROW F0 : ... .. . ... ... ... : ... .. . P7D ... ... : ... .. . ... ... ... : ... .. . ... ... ... : ... .. . ... ... ... : ... .. . P84 ... ... : ... .. . P82 ... ... : ... .. . P7E ... ...
ROW F1 : ... .. . ... ... ... : ... .. . P7F ... ... : ... .. . P80 ... ... : ... .. . ... ... ... : ... .. . ... ... ... : ... .. . ... ... ... : ... .. . P84 ... ... : ... .. . P7C ... ...
ROW F2 : ... .. . ... ... ... : ... .. . P80 ... ... : ... .. . ... ... ... : ... .. . ... ... ... : ... .. . ... ... ... : ... .. . P82 ... ... : ... .. . ... ... ... : ... .. . ... ... ...
ROW F3 : ... .. . ... ... ... : ... .. . P83 ... ... : ... .. . P81 ... ... : ... .. . ... ... ... : ... .. . ... ... ... : ... .. . P80 ... ... : ... .. . P83 ... ... : ... .. . P7D ... ...
ROW F4 : ... .. . ... ... ... : ... .. . P84 ... ... : ... .. . ... ... ... : ... .. . ... ... ... : ... .. . ... ... ... : ... .. . P7E ... ... : ... .. . P80 ... ... : ... .. . P80 ... ...
ROW F5 : ... .. . ... ... ... : ... .. . ... ... ... : ... .. . ... ... ... : ... .. . ... ... ... : ... .. . ... ... ... : ... .. . P7C ... ... : ... .. . P7F ... ... : ... .. . P81 ... ...
ROW F6 : ... .. . ... ... ... : ... .. . P82 ... ... : ... .. . P80 ... ... : ... .. . ... ... ... : ... .. . ... ... ... : ... .. . ... ... ... : ... .. . P7C ... ... : ... .. . P84 ... ...
ROW F7 : ... .. . ... ... ... : ... .. . P80 ... ... : ... .. . ... ... ... : ... .. . ... ... ... : ... .. . ... ... ... : ... .. . P7D ... ... : ... .. . ... ... ... : ... .. . ... ... ...
ROW F8 : ... .. . ... ... ... : ... .. . P7E ... ... : ... .. . ... ... ... : ... .. . ... ... ... : ... .. . ... ... ... : ... .. . P80 ... ... : ... .. . P7D ... ... : ... .. . P83 ... ...
ROW F9 : ... .. . ... ... ... : ... .. . P7C ... ... : ... .. . P7F ... ... : ... .. . ... ... ... : ... .. . ... ... ... : ... .. . P81 ... ... : ... .. . P7F ... ... : ... .. . P81 ... ...
ROW FA : ... .. . ... ... ... : ... .. . ... ... ... : ... .. . ... ... ... : ... .. . ... ... ... : ... .. . ... ... ... : ... .. . P84 ... ... : ... .. . P80 ... ... : ... .. . P80 ... ...
ROW FB : ... .. . ... ... ... : ... .. . P7D ... ... : ... .. . P80 ... ... : ... .. . ... ... ... : ... .. . ... ... ... : ... .. . ... ... ... : ... .. . P83 ... ... : ... .. . P7D ... ...
ROW FC : ... .. . ... ... ... : ... .. . P80 ... ... : ... .. . ... ... ... : ... .. . ... ... ... : ... .. . ... ... ... : ... .. . P83 ... ... : ... .. . P84 ... ... : ... .. . P7C ... ...
ROW FD : ... .. . ... ... ... : ... .. . P81 ... ... : ... .. . ... ... ... : ... .. . ... ... ... : ... .. . ... ... ... : ... .. . P81 ... ... : ... .. . ... ... ... : ... .. . ... ... ...
ROW FE : ... .. . ... ... ... : ... .. . P84 ... ... : ... .. . P81 ... ... : ... .. . ... ... ... : ... .. . ... ... ... : ... .. . P80 ... ... : ... .. . P82 ... ... : ... .. . P7E ... ...
ROW FF : ... .. . ... ... ... : ... .. . ... ... ... : ... .. . ... ... ... : ... .. . ... ... ... : ... .. . ... ... ... : ... .. . P7D ... ... : ... .. . P80 ... ... : ... .. . P80 ... ...

PATTERN 06
ROW 00 : ... .. . ... ... ... : ... .. . P83 ... ... : F#5 00 . ... ... ... : ... .. . ... ... ... : ... .. . ... ... ... : ... .. . P7C ... ... : ... .. . P7E ... ... : ... .. . P82 ... ...
ROW 01 : ... .. . ... ... ... : ... .. . P81 ... ... : ... .. . P80 ... ... : ... .. . ... ... ... : ... .. . ... ... ... : ... .. . ... ... ... : ... .. . P7C ... ... : ... .. . P84 ... ...
ROW 02 : ... .. . ... ... ... : ... .. . P80 ... ... : ... .. . ... ... ... : ... .. . ... ... ... : ... .. . ... ... ... : ... .. . P7E ... ... : ... .. . ... ... ... : ... .. . ... ... ...
ROW 03 : ... .. . ... ... ... : ... .. . P7D ... ... : ... .. . P7F ... ... : ... .. . ... ... ... : ... .. . ... ... ... : ... .. . P80 ... ... : ... .. . P7D ... ... : ... .. . P83 ... ...
ROW 04 : ... .. . ... ... ... : ... .. . P7C ... ... : ... .. . ... ... ... : ... .. . ... ... ... : ... .. . ... ... ... : ... .. . P82 ... ... : ... .. . P80 ... ... : ... .. . P80 ... ...
ROW 05 : ... .. . ... ... ... : ... .. . ... ... ... : ... .. . ... ... ... : ... .. . ... ... ... : ... .. . ... ... ... : ... .. . P84 ... ... : ... .. . P81 ... ... : ... .. . P7F ... ...
ROW 06 : ... .. . ... ... ... : ... .. . P7E ... ... : ... .. . P80 ... ... : ... .. . ... ... ... : ... .. . ... ... ... : ... .. . ... ... ... : ... .. . P84 ... ... : ... .. . P7C ... ...
ROW 07 : ... .. . ... ... ... : ... .. . P80 ... ... : ... .. . ... ... ... : ... .. . ... ... ... : ... .. . ... ... ... : ... .. . P83 ... ... : ... .. . ... ... ... : ... .. . ... ... ...
ROW 08 : ... .. . ... ... ... : F#3 01 1 P82 ... ... : ... .. . ... ... ... : ... .. . ... ... ... : ... .. . ... ... ... : ... .. . P80 ... ... : ... .. . P83 ... ... : ... .. . P7D ... ...
ROW 09 : ... .. . ... ... ... : ... .. . P84 ... ... : ... .. . P81 ... ... : ... .. . ... ... ... : ... .. . ... ... ... : ... .. . P7F ... ... : ... .. . P81 ... ... : ... .. . P7F ... ...
ROW 0A : ... .. . ... ... ... : ... .. 3 ... ... ... : ... .. . ... ... ... : ... .. . ... ... ... : ... .. . ... ... ... : ... .. . P7C ... ... : ... .. . P80 ... ... : ... .. . P80 ... ...
ROW 0B : ... .. . ... ... ... : ... .. 4 P83 ... ... : ... .. . P80 ... ... : ... .. . ... ... ... : ... .. . ... ... ... : ... .. . ... ... ... : ... .. . P7D ... ... : ... .. . P83 ... ...
ROW 0C : ... .. . ... ... ... : ... .. . P80 ... ... : ... .. . ... ... ... : ... .. . ... ... ... : ... .. . ... ... ... : ... .. . P7D ... ... : ... .. . P7C ... ... : ... .. . P84 ... ...
ROW 0D : ... .. . ... ... ... : ... .. . P7F ... ... : ... .. . ... ... ... : ... .. . ... ... ... : ... .. . ... ... ... : ... .. . P7F ... ... : ... .. . ... ... ... : ... .. . ... ... ...
ROW 0E : ... .. . ... ... ... : ... .. . P7C ... ... : ... .. . P7F ... ... : ... .. . ... ... ... : ... .. . ... ... ... : ... .. . P80 ... ... : ... .. . P7E ... ... : ... .. . P82 ... ...
ROW 0F : ... .. . ... ... ... : ... .. . ... ... ... : ... .. . ... ... ... : ... .. . ... ... ... : ... .. . ... ... ... : ... .. . P83 ... ... : ... .. . P80 ... ... : ... .. . P80 ... ...
ROW 10 : ... .. . ... ... ... : ... .. . P7D ... ... : ... .. . ... ... ... : ... .. . ... ... ... : ... .. . ... ... ... : ... .. . P84 ... ... : ... .. . P82 ... ... : ... .. . P7E ... ...
ROW 11 : ... .. . ... ... ... : ... .. . P7F ... ... : ... .. . P80 ... ... : ... .. . ... ... ... : ... .. . ... ... ... : ... .. . ... ... ... : ... .. . P84 ... ... : ... .. . P7C ... ...
ROW 12 : ... .. . ... ... ... : ... .. . P80 ... ... : ... .. . ... ... ... : ... .. . ... ... ... : ... .. . ... ... ... : ... .. . P82 ... ... : ... .. . ... ... ... : ... .. . ... ... ...
ROW 13 : ... .. . ... ... ... : ... .. . P83 ... ... : ... .. . P81 ... ... : ... .. . ... ... ... : ... .. . ... ... ... : ... .. . P80 ... ... : ... .. . P83 ... ... : ... .. . P7D ... ...
ROW 14 : ... .. . ... ... ... : ... .. . P84 ... ... : ... .. . ... ... ... : ... .. . ... ... ... : ... .. . ... ... ... : ... .. . P7E ... ... : ... .. . P80 ... ... : ... .. . P80 ... ...
ROW 15 : ... .. . ... ... ... : ... .. . ... ... ... : ... .. . ... ... ... : ... .. . ... ... ... : ... .. . ... ... ... : ... .. . P7C ... ... : ... .. . P7F ... ... : ... .. . P81 ... ...
ROW 16 : ... .. . ... ... ... : ... .. . P82 ... ... : ... .. . P80 ... ... : ... .. . ... ... ... : ... .. . ... ... ... : ... .. . ... ... ... : ... .. . P7C ... ... : ... .. . P84 ... ...
ROW 17 : ... .. . ... ... ... : ... .. . P80 ... ... : ... .. . ... ... ... : ... .. . ... ... ... : ... .. . ... ... ... : ... .. . P7D ... ... : ... .. . ... ... ... : ... .. . ... ... ...
ROW 18 : ... .. . ... ... ... : ... .. . P7E ... ... : D#5 00 . ... ... ... : ... .. . ... ... ... : ... .. . ... ... ... : B-3 06 1 P80 ... ... : D#3 06 1 P7D ... ... : ... .. . P83 ... ...
ROW 19 : ... .. . ... ... ... : ... .. . P7C ... ... : ... .. . P7F ... ... : ... .. . ... ... ... : ... .. . ... ... ... : ... .. . P81 ... ... : ... .. . P7F ... ... : ... .. . P81 ... ...
ROW 1A : ... .. . ... ... ... : ... .. . ... ... ... : ... .. . ... ... ... : ... .. . ... ... ... : ... .. . ... ... ... : ... .. 3 P84 ... ... : ... .. 3 P80 ... ... : ... .. . P80 ... ...
ROW 1B : ... .. . ... ... ... : ... .. . P7D ... ... : ... .. . P80 ... ... : ... .. . ... ... ... : ... .. . ... ... ... : ... .. 4 ... ... ... : ... .. 4 P83 ... ... : ... .. . P7D ... ...
ROW 1C : ... .. . ... ... ... : ... .. . P80 ... ... : ... .. . ... ... ... : ... .. . ... ... ... : ... .. . ... ... ... : ... .. . P83 ... ... : ... .. . P84 ... ... : ... .. . P7C ... ...
ROW 1D : ... .. . ... ... ... : ... .. . P81 ... ... : ... .. . ... ... ... : ... .. . ... ... ... : ... .. . ... ... ... : ... .. . P81 ... ... : ... .. . ... ... ... : ... .. . ... ... ...
ROW 1E : ... .. . ... ... ... : ... .. . P84 ... ... : ... .. . P81 ... ... : ... .. . ... ... ... : ... .. . ... ... ... : ... .. . P80 ... ... : ... .. . P82 ... ... : ... .. . P7E ... ...
ROW 1F : ... .. . ... ... ... : ... .. . ... ... ... : ... .. . ... ... ... : ... .. . ... ... ... : ... .. . ... ... ... : ... .. . P7D ... ... : ... .. . P80 ... ... : ... .. . P80 ... ...
ROW 20 : ... .. . ... ... ... : ... .. . P83 ... ... : ... .. . ... ... ... : ... .. . ... ... ... : ... .. . ... ... ... : ... .. . P7C ... ... : ... .. . P7E ... ... : ... .. . P82 ... ...
ROW 21 : ... .. . ... ... ... : ... .. . P81 ... ... : ... .. . P80 ... ... : ... .. . ... ... ... : ... .. . ... ... ... : ... .. . ... ... ... : ... .. . P7C ... ... : ... .. . P84 ... ...
ROW 22 : ... .. . ... ... ... : ... .. . P80 ... ... : ... .. . ... ... ... : ... .. . ... ... ... : ... .. . ... ... ... : ... .. . P7E ... ... : ... .. . ... ... ... : ... .. . ... ... ...
ROW 23 : ... .. . ... ... ... : ... .. . P7D ... ... : ... .. . P7F ... ... : ... .. . ... ... ... : ... .. . ... ... ... : ... .. . P80 ... ... : ... .. . P7D ... ... : ... .. . P83 ... ...
ROW 24 : ... .. . ... ... ... : ... .. . P7C ... ... : ... .. . ... ... ... : ... .. . ... ... ... : ... .. . ... ... ... : ... .. . P82 ... ... : ... .. . P80 ... ... : ... .. . P80 ... ...
ROW 25 : ... .. . ... ... ... : ... .. . ... ... ... : ... .. . ... ... ... : ... .. . ... ... ... : ... .. . ... ... ... : ... .. . P84 ... ... : ... .. . P81 ... ... : ... .. . P7F ... ...
ROW 26 : ... .. . ... ... ... : ... .. . P7E ... ... : ... .. . P80 ... ... : ... .. . ... ... ... : ... .. . ... ... ... : ... .. . ... ... ... : ... .. . P84 ... ... : ... .. . P7C ... ...
ROW 27 : ... .. . ... ... ... : ... .. . P80 ... ... : ... .. . ... ... ... : ... .. . ... ... ... : ... .. . ... ... ... : ... .. . P83 ... ... : ... .. . ... ... ... : ... .. . ... ... ...
ROW 28 : ... .. . ... ... ... : ... .. . P82 ... ... : ... .. . ... ... ... : ... .. . ... ... ... : ... .. . ... ... ... : ... .. . P80 ... ... : ... .. . P83 ... ... : ... .. . P7D ... ...
ROW 29 : ... .. . ... ... ... : ... .. . P84 ... ... : ... .. . P81 ... ... : ... .. . ... ... ... : ... .. . ... ... ... : ... .. . P7F ... ... : ... .. . P81 ... ... : ... .. . P7F ... ...
ROW 2A : ... .. . ... ... ... : ... .. . ... ... ... : ... .. . ... ... ... : ... .. . ... ... ... : ... .. . ... ... ... : ... .. . P7C ... ... : ... .. . P80 ... ... : ... .. . P80 ... ...
ROW 2B : ... .. . ... ... ... : ... .. . P83 ... ... : ... .. . P80 ... ... : ... .. . ... ... ... : ... .. . ... ... ... : ... .. . ... ... ... : ... .. . P7D ... ... : ... .. . P83 ... ...
ROW 2C : ... .. . ... ... ... : ... .. . P80 ... ... : ... .. . ... ... ... : ... .. . ... ... ... : ... .. . ... ... ... : ... .. . P7D ... ... : ... .. . P7C ... ... : ... .. . P84 ... ...
ROW 2D : ... .. . ... ... ... : ... .. . P7F ... ... : ... .. . ... ... ... : ... .. . ... ... ... : ... .. . ... ... ... : ... .. . P7F ... ... : ... .. . ... ... ... : ... .. . ... ... ...
ROW 2E : ... .. . ... ... ... : ... .. . P7C ... ... : ... .. . P7F ... ... : ... .. . ... ... ... : ... .. . ... ... ... : ... .. . P80 ... ... : ... .. . P7E ... ... : ... .. . P82 ... ...
ROW 2F : ... .. . ... ... ... : ... .. . ... ... ... : ... .. . ... ... ... : ... .. . ... ... ... : ... .. . ... ... ... : ... .. . P83 ... ... : ... .. . P80 ... ... : ... .. . P80 ... ...
ROW 30 : ... .. . ... ... ... : ... .. . P7D ... ... : E-5 00 . ... ... ... : ... .. . ... ... ... : ... .. . ... ... ... : ... .. . P84 ... ... : ... .. . P82 ... ... : ... .. . P7E ... ...
ROW 31 : ... .. . ... ... ... : ... .. . P7F ... ... : ... .. . P80 ... ... : ... .. . ... ... ... : ... .. . ... ... ... : ... .. . ... ... ... : ... .. . P84 ... ... : ... .. . P7C ... ...
ROW 32 : ... .. . ... ... ... : ... .. . P80 ... ... : ... .. . ... ... ... : ... .. . ... ... ... : ... .. . ... ... ... : ... .. . P82 ... ... : ... .. . ... ... ... : ... .. . ... ... ...
ROW 33 : ... .. . ... ... ... : ... .. . P83 ... ... : ... .. . P81 ... ... : ... .. . ... ... ... : ... .. . ... ... ... : ... .. . P80 ... ... : ... .. . P83 ... ... : ... .. . P7D ... ...
ROW 34 : ... .. . ... ... ... : ... .. . P84 ... ... : ... .. . ... ... ... : ... .. . ... ... ... : ... .. . ... ... ... : ... .. . P7E ... ... : ... .. . P80 ... ... : ... .. . P80 ... ...
ROW 35 : ... .. . ... ... ... : ... .. . ... ... ... : ... .. . ... ... ... : ... .. . ... ... ... : ... .. . ... ... ... : ... .. . P7C ... ... : ... .. . P7F ... ... : ... .. . P81 ... ...
ROW 36 : ... .. . ... ... ... : ... .. . P82 ... ... : ... .. . P80 ... ... : ... .. . ... ... ... : ... .. . ... ... ... : ... .. . ... ... ... : ... .. . P7C ... ... : ... .. . P84 ... ...
ROW 37 : ... .. . ... ... ... : ... .. . P80 ... ... : ... .. . ... ... ... : ... .. . ... ... ... : ... .. . ... ... ... : ... .. . P7D ... ... : ... .. . ... ... ... : ... .. . ... ... ...
ROW 38 : ... .. . ... ... ... : E-3 01 1 P7E ... ... : ... .. . ... ... ... : ... .. . ... ... ... : ... .. . ... ... ... : ... .. . P80 ... ... : ... .. . P7D ... ... : C#2 03 . P83 ... ...
ROW 39 : ... .. . ... ... ... : ... .. . P7C ... ... : ... .. . P7F ... ... : ... .. . ... ... ... : ... .. . ... ... ... : ... .. . P81 ... ... : ... .. . P7F ... ... : ... .. . P81 ... ...
ROW 3A : ... .. . ... ... ... : ... .. 3 ... ... ... : ... .. . ... ... ... : ... .. . ... ... ... : ... .. . ... ... ... : ... .. . P84 ... ... : ... .. . P80 ... ... : ... .. . P80 ... ...
ROW 3B : ... .. . ... ... ... : ... .. 4 P7D ... ... : ... .. . P80 ... ... : ... .. . ... ... ... : ... .. . ... ... ... : ... .. . ... ... ... : ... .. . P83 ... ... : ... .. . P7D ... ...
ROW 3C : ... .. . ... ... ... : ... .. . P80 ... ... : D#5 00 . ... ... ... : ... .. . ... ... ... : ... .. . ... ... ... : ... .. . P83 ... ... : ... .. . P84 ... ... : ... .. . P7C ... ...
ROW 3D : ... .. . ... ... ... : ... .. . P81 ... ... : ... .. . ... ... ... : ... .. . ... ... ... : ... .. . ... ... ... : ... .. . P81 ... ... : ... .. . ... ... ... : ... .. . ... ... ...
ROW 3E : ... .. . ... ... ... : ... .. . P84 ... ... : ... .. . P81 ... ... : ... .. . ... ... ... : ... .. . ... ... ... : ... .. . P80 ... ... : ... .. . P82 ... ... : ... .. . P7E ... ...
ROW 3F : ... .. . ... ... ... : ... .. . ... ... ... : ... .. . ... ... ... : ... .. . ... ... ... : ... .. . ... ... ... : ... .. . P7D ... ... : ... .. . P80 ... ... : ... .. . P80 ... ...
ROW 40 : ... .. . ... ... ... : ... .. . P83 ... ... : ... .. . ... ... ... : ... .. . ... ... ... : ... .. . ... ... ... : ... .. . P7C ... ... : ... .. . P7E ... ... : ... .. . P82 ... ...
ROW 41 : ... .. . ... ... ... : ... .. . P81 ... ... : ... .. . P80 ... ... : ... .. . ... ... ... : ... .. . ... ... ... : ... .. . ... ... ... : ... .. . P7C ... ... : ... .. . P84 ... ...
ROW 42 : ... .. . ... ... ... : ... .. . P80 ... ... : ... .. . ... ... ... : ... .. . ... ... ... : ... .. . ... ... ... : ... .. . P7E ... ... : ... .. . ... ... ... : ... .. . ... ... ...
ROW 43 : ... .. . ... ... ... : ... .. . P7D ... ... : ... .. . P7F ... ... : ... .. . ... ... ... : ... .. . ... ... ... : ... .. . P80 ... ... : ... .. . P7D ... ... : ... .. . P83 ... ...
ROW 44 : ... .. . ... ... ... : ... .. . P7C ... ... : ... .. . ... ... ... : ... .. . ... ... ... : ... .. . ... ... ... : ... .. . P82 ... ... : ... .. . P80 ... ... : ... .. . P80 ... ...
ROW 45 : ... .. . ... ... ... : ... .. . ... ... ... : ... .. . ... ... ... : ... .. . ... ... ... : ... .. . ... ... ... : ... .. . P84 ... ... : ... .. . P81 ... ... : ... .. . P7F ... ...
ROW 46 : ... .. . ... ... ... : ... .. . P7E ... ... : ... .. . P80 ... ... : ... .. . ... ... ... : ... .. . ... ... ... : ... .. . ... ... ... : ... .. . P84 ... ... : ... .. . P7C ... ...
ROW 47 : ... .. . ... ... ... : ... .. . P80 ... ... : ... .. . ... ... ... : ... .. . ... ... ... : ... .. . ... ... ... : ... .. . P83 ... ... : ... .. . ... ... ... : ... .. . ... ... ...
ROW 48 : ... .. . ... ... ... : ... .. . P82 ... ... : ... .. . ... ... ... : ... .. . ... ... ... : ... .. . ... ... ... : A#3 06 1 P80 ... ... : C#3 06 1 P83 ... ... : ... .. . P7D ... ...
ROW 49 : ... .. . ... ... ... : ... .. . P84 ... ... : ... .. . P81 ... ... : ... .. . ... ... ... : ... .. . ... ... ... : ... .. . P7F ... ... : ... .. . P81 ... ... : ... .. . P7F ... ...
ROW 4A : ... .. . ... ... ... : ... .. . ... ... ... : ... .. . ... ... ... : ... .. . ... ... ... : ... .. . ... ... ... : ... .. 3 P7C ... ... : ... .. 3 P80 ... ... : ... .. . P80 ... ...
ROW 4B : ... .. . ... ... ... : ... .. . P83 ... ... : ... .. . P80 ... ... : ... .. . ... ... ... : ... .. . ... ... ... : ... .. 4 ... ... ... : ... .. 4 P7D ... ... : ... .. . P83 ... ...
ROW 4C : ... .. . ... ... ... : ... .. . P80 ... ... : ... .. . ... ... ... : ... .. . ... ... ... : ... .. . ... ... ... : ... .. . P7D ... ... : ... .. . P7C ... ... : ... .. . P84 ... ...
ROW 4D : ... .. . ... ... ... : ... .. . P7F ... ... : ... .. . ... ... ... : ... .. . ... ... ... : ... .. . ... ... ... : ... .. . P7F ... ... : ... .. . ... ... ... : ... .. . ... ... ...
ROW 4E : ... .. . ... ... ... : ... .. . P7C ... ... : ... .. . P7F ... ... : ... .. . ... ... ... : ... .. . ... ... ... : ... .. . P80 ... ... : ... .. . P7E ... ... : ... .. . P82 ... ...
ROW 4F : ... .. . ... ... ... : ... .. . ... ... ... : ... .. . ... ... ... : ... .. . ... ... ... : ... .. . ... ... ... : ... .. . P83 ... ... : ... .. . P80 ... ... : ... .. . P80 ... ...
ROW 50 : ... .. . ... ... ... : ... .. . P7D ... ... : ... .. . ... ... ... : ... .. . ... ... ... : ... .. . ... ... ... : ... .. . P84 ... ... : ... .. . P82 ... ... : ... .. . P7E ... ...
ROW 51 : ... .. . ... ... ... : ... .. . P7F ... ... : ... .. . P80 ... ... : ... .. . ... ... ... : ... .. . ... ... ... : ... .. . ... ... ... : ... .. . P84 ... ... : ... .. . P7C ... ...
ROW 52 : ... .. . ... ... ... : ... .. . P80 ... ... : ... .. . ... ... ... : ... .. . ... ... ... : ... .. . ... ... ... : ... .. . P82 ... ... : ... .. . ... ... ... : ... .. . ... ... ...
ROW 53 : ... .. . ... ... ... : ... .. . P83 ... ... : ... .. . P81 ... ... : ... .. . ... ... ... : ... .. . ... ... ... : ... .. . P80 ... ... : ... .. . P83 ... ... : ... .. . P7D ... ...
ROW 54 : ... .. . ... ... ... : ... .. . P84 ... ... : C#5 00 . ... ... ... : ... .. . ... ... ... : ... .. . ... ... ... : ... .. . P7E ... ... : ... .. . P80 ... ... : ... .. . P80 ... ...
ROW 55 : ... .. . ... ... ... : ... .. . ... ... ... : ... .. . ... ... ... : ... .. . ... ... ... : ... .. . ... ... ... : ... .. . P7C ... ... : ... .. . P7F ... ... : ... .. . P81 ... ...
ROW 56 : ... .. . ... ... ... : ... .. . P82 ... ... : ... .. . P80 ... ... : ... .. . ... ... ... : ... .. . ... ... ... : ... .. . ... ... ... : ... .. . P7C ... ... : ... .. . P84 ... ...
ROW 57 : ... .. . ... ... ... : ... .. . P80 ... ... : ... .. . ... ... ... : ... .. . ... ... ... : ... .. . ... ... ... : ... .. . P7D ... ... : ... .. . ... ... ... : ... .. . ... ... ...
ROW 58 : ... .. . ... ... ... : ... .. . P7E ... ... : ... .. . ... ... ... : ... .. . ... ... ... : ... .. . ... ... ... : ... .. . P80 ... ... : ... .. . P7D ... ... : ... .. . P83 ... ...
ROW 59 : ... .. . ... ... ... : ... .. . P7C ... ... : ... .. . P7F ... ... : ... .. . ... ... ... : ... .. . ... ... ... : ... .. . P81 ... ... : ... .. . P7F ... ... : ... .. . P81 ... ...
ROW 5A : ... .. . ... ... ... : ... .. . ... ... ... : ... .. . ... ... ... : ... .. . ... ... ... : ... .. . ... ... ... : ... .. . P84 ... ... : ... .. . P80 ... ... : ... .. . P80 ... ...
ROW 5B : ... .. . ... ... ... : ... .. . P7D ... ... : ... .. . P80 ... ... : ... .. . ... ... ... : ... .. . ... ... ... : ... .. . ... ... ... : ... .. . P83 ... ... : ... .. . P7D ... ...
ROW 5C : ... .. . ... ... ... : ... .. . P80 ... ... : ... .. . ... ... ... : ... .. . ... ... ... : ... .. . ... ... ... : ... .. . P83 ... ... : ... .. . P84 ... ... : ... .. . P7C ... ...
ROW 5D : ... .. . ... ... ... : ... .. . P81 ... ... : ... .. . ... ... ... : ... .. . ... ... ... : ... .. . ... ... ... : ... .. . P81 ... ... : ... .. . ... ... ... : ... .. . ... ... ...
ROW 5E : ... .. . ... ... ... : ... .. . P84 ... ... : ... .. . P81 ... ... : ... .. . ... ... ... : ... .. . ... ... ... : ... .. . P80 ... ... : ... .. . P82 ... ... : ... .. . P7E ... ...
ROW 5F : ... .. . ... ... ... : ... .. . ... ... ... : ... .. . ... ... ... : ... .. . ... ... ... : ... .. . ... ... ... : ... .. . P7D ... ... : ... .. . P80 ... ... : ... .. . P80 ... ...
ROW 60 : ... .. . ... ... ... : ... .. . P83 ... ... : ... .. . ... ... ... : ... .. . ... ... ... : ... .. . ... ... ... : ... .. . P7C ... ... : ... .. . P7E ... ... : ... .. . P82 ... ...
ROW 61 : ... .. . ... ... ... : ... .. . P81 ... ... : ... .. . P80 ... ... : ... .. . ... ... ... : ... .. . ... ... ... : ... .. . ... ... ... : ... .. . P7C ... ... : ... .. . P84 ... ...
ROW 62 : ... .. . ... ... ... : ... .. . P80 ... ... : ... .. . ... ... ... : ... .. . ... ... ... : ... .. . ... ... ... : ... .. . P7E ... ... : ... .. . ... ... ... : ... .. . ... ... ...
ROW 63 : ... .. . ... ... ... : ... .. . P7D ... ... : ... .. . P7F ... ... : ... .. . ... ... ... : ... .. . ... ... ... : ... .. . P80 ... ... : ... .. . P7D ... ... : ... .. . P83 ... ...
ROW 64 : ... .. . ... ... ... : ... .. . P7C ... ... : ... .. . ... ... ... : ... .. . ... ... ... : ... .. . ... ... ... : ... .. . P82 ... ... : ... .. . P80 ... ... : ... .. . P80 ... ...
ROW 65 : ... .. . ... ... ... : ... .. . ... ... ... : ... .. . ... ... ... : ... .. . ... ... ... : ... .. . ... ... ... : ... .. . P84 ... ... : ... .. . P81 ... ... : ... .. . P7F ... ...
ROW 66 : ... .. . ... ... ... : ... .. . P7E ... ... : ... .. . P80 ... ... : ... .. . ... ... ... : ... .. . ... ... ... : ... .. . ... ... ... : ... .. . P84 ... ... : ... .. . P7C ... ...
ROW 67 : ... .. . ... ... ... : ... .. . P80 ... ... : ... .. . ... ... ... : ... .. . ... ... ... : ... .. . ... ... ... : ... .. . P83 ... ... : ... .. . ... ... ... : ... .. . ... ... ...
ROW 68 : ... .. . ... ... ... : D#3 01 1 P82 ... ... : ... .. . ... ... ... : ... .. . ... ... ... : ... .. . ... ... ... : ... .. . P80 ... ... : ... .. . P83 ... ... : G#1 03 . P7D ... ...
ROW 69 : ... .. . ... ... ... : ... .. . P84 ... ... : ... .. . P81 ... ... : ... .. . ... ... ... : ... .. . ... ... ... : ... .. . P7F ... ... : ... .. . P81 ... ... : ... .. . P7F ... ...
ROW 6A : ... .. . ... ... ... : ... .. 3 ... ... ... : ... .. . ... ... ... : ... .. . ... ... ... : ... .. . ... ... ... : ... .. . P7C ... ... : ... .. . P80 ... ... : ... .. . P80 ... ...
ROW 6B : ... .. . ... ... ... : ... .. 4 P83 ... ... : ... .. . P80 ... ... : ... .. . ... ... ... : ... .. . ... ... ... : ... .. . ... ... ... : ... .. . P7D ... ... : ... .. . P83 ... ...
ROW 6C : ... .. . ... ... ... : ... .. . P80 ... ... : ... .. . ... ... ... : ... .. . ... ... ... : ... .. . ... ... ... : ... .. . P7D ... ... : ... .. . P7C ... ... : ... .. . P84 ... ...
ROW 6D : ... .. . ... ... ... : ... .. . P7F ... ... : ... .. . ... ... ... : ... .. . ... ... ... : ... .. . ... ... ... : ... .. . P7F ... ... : ... .. . ... ... ... : ... .. . ... ... ...
ROW 6E : ... .. . ... ... ... : ... .. . P7C ... ... : ... .. . P7F ... ... : ... .. . ... ... ... : ... .. . ... ... ... : ... .. . P80 ... ... : ... .. . P7E ... ... : ... .. . P82 ... ...
ROW 6F : ... .. . ... ... ... : ... .. . ... ... ... : ... .. . ... ... ... : ... .. . ... ... ... : ... .. . ... ... ... : ... .. . P83 ... ... : ... .. . P80 ... ... : ... .. . P80 ... ...
ROW 70 : ... .. . ... ... ... : ... .. . P7D ... ... : ... .. . ... ... ... : ... .. . ... ... ... : ... .. . ... ... ... : ... .. . P84 ... ... : ... .. . P82 ... ... : ... .. . P7E ... ...
ROW 71 : ... .. . ... ... ... : ... .. . P7F ... ... : ... .. . P80 ... ... : ... .. . ... ... ... : ... .. . ... ... ... : ... .. . ... ... ... : ... .. . P84 ... ... : ... .. . P7C ... ...
ROW 72 : ... .. . ... ... ... : ... .. . P80 ... ... : ... .. . ... ... ... : ... .. . ... ... ... : ... .. . ... ... ... : ... .. . P82 ... ... : ... .. . ... ... ... : ... .. . ... ... ...
ROW 73 : ... .. . ... ... ... : ... .. . P83 ... ... : ... .. . P81 ... ... : ... .. . ... ... ... : ... .. . ... ... ... : ... .. . P80 ... ... : ... .. . P83 ... ... : ... .. . P7D ... ...
ROW 74 : ... .. . ... ... ... : ... .. . P84 ... ... : ... .. . ... ... ... : ... .. . ... ... ... : ... .. . ... ... ... : ... .. . P7E ... ... : ... .. . P80 ... ... : ... .. . P80 ... ...
ROW 75 : ... .. . ... ... ... : ... .. . ... ... ... : ... .. . ... ... ... : ... .. . ... ... ... : ... .. . ... ... ... : ... .. . P7C ... ... : ... .. . P7F ... ... : ... .. . P81 ... ...
ROW 76 : ... .. . ... ... ... : ... .. . P82 ... ... : ... .. . P80 ... ... : ... .. . ... ... ... : ... .. . ... ... ... : ... .. . ... ... ... : ... .. . P7C ... ... : ... .. . P84 ... ...
ROW 77 : ... .. . ... ... ... : ... .. . P80 ... ... : ... .. . ... ... ... : ... .. . ... ... ... : ... .. . ... ... ... : ... .. . P7D ... ... : ... .. . ... ... ... : ... .. . ... ... ...
ROW 78 : ... .. . ... ... ... : ... .. . P7E ... ... : ... .. . P83 ... ... : ... .. . ... ... ... : ... .. . ... ... ... : G#3 06 1 P80 ... ... : B-2 06 1 P7D ... ... : ... .. . P83 ... ...
ROW 79 : ... .. . ... ... ... : ... .. . P7C ... ... : D-5 00 . P7F ... ... : ... .. . ... ... ... : ... .. . ... ... ... : ... .. . P81 ... ... : ... .. . P7F ... ... : ... .. . P81 ... ...
ROW 7A : ... .. . ... ... ... : ... .. . ... ... ... : ... .. . P82 ... ... : ... .. . ... ... ... : ... .. . ... ... ... : ... .. 3 P84 ... ... : ... .. 3 P80 ... ... : ... .. . P80 ... ...
ROW 7B : ... .. . ... ... ... : ... .. . P7D ... ... : D#5 00 . P80 ... ... : ... .. . ... ... ... : ... .. . ... ... ... : ... .. 4 ... ... ... : ... .. 4 P83 ... ... : ... .. . P7D ... ...
ROW 7C : ... .. . ... ... ... : ... .. . P80 ... ... : ... .. . ... ... ... : ... .. . ... ... ... : ... .. . ... ... ... : ... .. . P83 ... ... : ... .. . P84 ... ... : ... .. . P7C ... ...
ROW 7D : ... .. . ... ... ... : ... .. . P81 ... ... : ... .. . ... ... ... : ... .. . ... ... ... : ... .. . ... ... ... : ... .. . P81 ... ... : ... .. . ... ... ... : ... .. . ... ... ...
ROW 7E : ... .. . ... ... ... : ... .. . P84 ... ... : ... .. . P81 ... ... : ... .. . ... ... ... : ... .. . ... ... ... : ... .. . P80 ... ... : ... .. . P82 ... ... : ... .. . P7E ... ...
ROW 7F : ... .. . ... ... ... : ... .. . ... ... ... : ... .. . ... ... ... : ... .. . ... ... ... : ... .. . ... ... ... : ... .. . P7D ... ... : ... .. . P80 ... ... : ... .. . P80 ... ...
ROW 80 : ... .. . ... ... ... : ... .. . P83 ... ... : ... .. . ... ... ... : ... .. . ... ... ... : ... .. . ... ... ... : ... .. . P7C ... ... : ... .. . P7E ... ... : ... .. . P82 ... ...
ROW 81 : ... .. . ... ... ... : ... .. . P81 ... ... : ... .. . P80 ... ... : ... .. . ... ... ... : ... .. . ... ... ... : ... .. . ... ... ... : ... .. . P7C ... ... : ... .. . P84 ... ...
ROW 82 : ... .. . ... ... ... : ... .. . P80 ... ... : ... .. . ... ... ... : ... .. . ... ... ... : ... .. . ... ... ... : ... .. . P7E ... ... : ... .. . ... ... ... : ... .. . ... ... ...
ROW 83 : ... .. . ... ... ... : ... .. . P7D ... ... : ... .. . P7F ... ... : ... .. . ... ... ... : ... .. . ... ... ... : ... .. . P80 ... ... : ... .. . P7D ... ... : ... .. . P83 ... ...
ROW 84 : ... .. . ... ... ... : ... .. . P7C ... ... : ... .. . ... ... ... : ... .. . ... ... ... : ... .. . ... ... ... : ... .. . P82 ... ... : ... .. . P80 ... ... : ... .. . P80 ... ...
ROW 85 : ... .. . ... ... ... : ... .. . ... ... ... : ... .. . ... ... ... : ... .. . ... ... ... : ... .. . ... ... ... : ... .. . P84 ... ... : ... .. . P81 ... ... : ... .. . P7F ... ...
ROW 86 : ... .. . ... ... ... : ... .. . P7E ... ... : ... .. . P80 ... ... : ... .. . ... ... ... : ... .. . ... ... ... : ... .. . ... ... ... : ... .. . P84 ... ... : ... .. . P7C ... ...
ROW 87 : ... .. . ... ... ... : ... .. . P80 ... ... : ... .. . ... ... ... : ... .. . ... ... ... : ... .. . ... ... ... : ... .. . P83 ... ... : ... .. . ... ... ... : ... .. . ... ... ...
ROW 88 : ... .. . ... ... ... : ... .. . P82 ... ... : ... .. . ... ... ... : ... .. . ... ... ... : ... .. . ... ... ... : ... .. . P80 ... ... : ... .. . P83 ... ... : ... .. . P7D ... ...
ROW 89 : ... .. . ... ... ... : ... .. . P84 ... ... : ... .. . P81 ... ... : ... .. . ... ... ... : ... .. . ... ... ... : ... .. . P7F ... ... : ... .. . P81 ... ... : ... .. . P7F ... ...
ROW 8A : ... .. . ... ... ... : ... .. . ... ... ... : ... .. . ... ... ... : ... .. . ... ... ... : ... .. . ... ... ... : ... .. . P7C ... ... : ... .. . P80 ... ... : ... .. . P80 ... ...
ROW 8B : ... .. . ... ... ... : ... .. . P83 ... ... : ... .. . P80 ... ... : ... .. . ... ... ... : ... .. . ... ... ... : ... .. . ... ... ... : ... .. . P7D ... ... : ... .. . P83 ... ...
ROW 8C : ... .. . ... ... ... : ... .. . P80 ... ... : ... .. . ... ... ... : ... .. . ... ... ... : ... .. . ... ... ... : ... .. . P7D ... ... : ... .. . P7C ... ... : ... .. . P84 ... ...
ROW 8D : ... .. . ... ... ... : ... .. . P7F ... ... : ... .. . ... ... ... : ... .. . ... ... ... : ... .. . ... ... ... : ... .. . P7F ... ... : ... .. . ... ... ... : ... .. . ... ... ...
ROW 8E : ... .. . ... ... ... : ... .. . P7C ... ... : ... .. . P7F ... ... : ... .. . ... ... ... : ... .. . ... ... ... : ... .. . P80 ... ... : ... .. . P7E ... ... : ... .. . P82 ... ...
ROW 8F : ... .. . ... ... ... : ... .. . ... ... ... : ... .. . ... ... ... : ... .. . ... ... ... : ... .. . ... ... ... : ... .. . P83 ... ... : ... .. . P80 ... ... : ... .. . P80 ... ...
ROW 90 : ... .. . ... ... ... : ... .. . P7D ... ... : ... .. . ... ... ... : ... .. . ... ... ... : ... .. . ... ... ... : ... .. . P84 ... ... : ... .. . P82 ... ... : ... .. . P7E ... ...
ROW 91 : ... .. . ... ... ... : ... .. . P7F ... ... : ... .. . P80 ... ... : ... .. . ... ... ... : ... .. . ... ... ... : ... .. . ... ... ... : ... .. . P84 ... ... : ... .. . P7C ... ...
ROW 92 : ... .. . ... ... ... : ... .. . P80 ... ... : ... .. . ... ... ... : ... .. . ... ... ... : ... .. . ... ... ... : ... .. . P82 ... ... : ... .. . ... ... ... : ... .. . ... ... ...
ROW 93 : ... .. . ... ... ... : ... .. . P83 ... ... : ... .. . P81 ... ... : ... .. . ... ... ... : ... .. . ... ... ... : ... .. . P80 ... ... : ... .. . P83 ... ... : ... .. . P7D ... ...
ROW 94 : ... .. . ... ... ... : ... .. . P84 ... ... : ... .. . ... ... ... : ... .. . ... ... ... : ... .. . ... ... ... : ... .. . P7E ... ... : ... .. . P80 ... ... : ... .. . P80 ... ...
ROW 95 : ... .. . ... ... ... : ... .. . ... ... ... : ... .. . ... ... ... : ... .. . ... ... ... : ... .. . ... ... ... : ... .. . P7C ... ... : ... .. . P7F ... ... : ... .. . P81 ... ...
ROW 96 : ... .. . ... ... ... : ... .. . P82 ... ... : --- .. . ... ... ... : ... .. . ... ... ... : ... .. . ... ... ... : ... .. . ... ... ... : ... .. . P7C ... ... : ... .. . P84 ... ...
ROW 97 : ... .. . ... ... ... : ... .. . P80 ... ... : ... .. . ... ... ... : ... .. . ... ... ... : ... .. . ... ... ... : ... .. . P7D ... ... : ... .. . ... ... ... : ... .. . ... ... ...
ROW 98 : ... .. . ... ... ... : E-3 01 1 P7E ... ... : ... .. . ... ... ... : ... .. . ... ... ... : ... .. . ... ... ... : ... .. . P80 ... ... : ... .. . P7D ... ... : ... .. . P83 ... ...
ROW 99 : ... .. . ... ... ... : ... .. . P7C ... ... : ... .. . ... ... ... : ... .. . ... ... ... : ... .. . ... ... ... : ... .. . P81 ... ... : ... .. . P7F ... ... : ... .. . P81 ... ...
ROW 9A : ... .. . ... ... ... : ... .. 3 ... ... ... : ... .. . ... ... ... : ... .. . ... ... ... : ... .. . ... ... ... : ... .. . P84 ... ... : ... .. . P80 ... ... : ... .. . P80 ... ...
ROW 9B : ... .. . ... ... ... : ... .. 4 P7D ... ... : ... .. . ... ... ... : ... .. . ... ... ... : ... .. . ... ... ... : ... .. . ... ... ... : ... .. . P83 ... ... : ... .. . P7D ... ...
ROW 9C : ... .. . ... ... ... : ... .. . P80 ... ... : D#5 00 . P80 ... ... : ... .. . ... ... ... : ... .. . ... ... ... : ... .. . P83 ... ... : ... .. . P84 ... ... : ... .. . P7C ... ...
ROW 9D : ... .. . ... ... ... : ... .. . P81 ... ... : ... .. . ... ... ... : ... .. . ... ... ... : ... .. . ... ... ... : ... .. . P81 ... ... : ... .. . ... ... ... : ... .. . ... ... ...
ROW 9E : ... .. . ... ... ... : ... .. . P84 ... ... : ... .. . P81 ... ... : ... .. . ... ... ... : ... .. . ... ... ... : ... .. . P80 ... ... : ... .. . P82 ... ... : ... .. . P7E ... ...
ROW 9F : ... .. . ... ... ... : ... .. . ... ... ... : ... .. . ... ... ... : ... .. . ... ... ... : ... .. . ... ... ... : ... .. . P7D ... ... : ... .. . P80 ... ... : ... .. . P80 ... ...
ROW A0 : ... .. . ... ... ... : ... .. . P83 ... ... : ... .. . ... ... ... : ... .. . ... ... ... : ... .. . ... ... ... : ... .. . P7C ... ... : ... .. . P7E ... ... : ... .. . P82 ... ...
ROW A1 : ... .. . ... ... ... : ... .. . P81 ... ... : ... .. . P80 ... ... : ... .. . ... ... ... : ... .. . ... ... ... : ... .. . ... ... ... : ... .. . P7C ... ... : ... .. . P84 ... ...
ROW A2 : ... .. . ... ... ... : ... .. . P80 ... ... : ... .. . ... ... ... : ... .. . ... ... ... : ... .. . ... ... ... : ... .. . P7E ... ... : ... .. . ... ... ... : ... .. . ... ... ...
ROW A3 : ... .. . ... ... ... : ... .. . P7D ... ... : ... .. . P7F ... ... : ... .. . ... ... ... : ... .. . ... ... ... : ... .. . P80 ... ... : ... .. . P7D ... ... : ... .. . P83 ... ...
ROW A4 : ... .. . ... ... ... : ... .. . P7C ... ... : ... .. . ... ... ... : ... .. . ... ... ... : ... .. . ... ... ... : ... .. . P82 ... ... : ... .. . P80 ... ... : ... .. . P80 ... ...
ROW A5 : ... .. . ... ... ... : ... .. . ... ... ... : ... .. . ... ... ... : ... .. . ... ... ... : ... .. . ... ... ... : ... .. . P84 ... ... : ... .. . P81 ... ... : ... .. . P7F ... ...
ROW A6 : ... .. . ... ... ... : ... .. . P7E ... ... : ... .. . P80 ... ... : ... .. . ... ... ... : ... .. . ... ... ... : ... .. . ... ... ... : ... .. . P84 ... ... : ... .. . P7C ... ...
ROW A7 : ... .. . ... ... ... : ... .. . P80 ... ... : ... .. . ... ... ... : ... .. . ... ... ... : ... .. . ... ... ... : ... .. . P83 ... ... : ... .. . ... ... ... : ... .. . ... ... ...
ROW A8 : ... .. . ... ... ... : ... .. . P82 ... ... : E-5 00 . ... ... ... : ... .. . ... ... ... : ... .. . ... ... ... : ... .. . P80 ... ... : C#3 06 1 P83 ... ... : ... .. . P7D ... ...
ROW A9 : ... .. . ... ... ... : ... .. . P84 ... ... : ... .. . P81 ... ... : ... .. . ... ... ... : ... .. . ... ... ... : ... .. . P7F ... ... : ... .. . P81 ... ... : ... .. . P7F ... ...
ROW AA : ... .. . ... ... ... : ... .. . ... ... ... : ... .. . ... ... ... : ... .. . ... ... ... : ... .. . ... ... ... : ... .. . P7C ... ... : ... .. 3 P80 ... ... : ... .. . P80 ... ...
ROW AB : ... .. . ... ... ... : ... .. . P83 ... ... : ... .. . P80 ... ... : ... .. . ... ... ... : ... .. . ... ... ... : ... .. . ... ... ... : ... .. 4 P7D ... ... : ... .. . P83 ... ...
ROW AC : ... .. . ... ... ... : ... .. . P80 ... ... : ... .. . ... ... ... : ... .. . ... ... ... : ... .. . ... ... ... : ... .. . P7D ... ... : ... .. . P7C ... ... : ... .. . P84 ... ...
ROW AD : ... .. . ... ... ... : ... .. . P7F ... ... : ... .. . ... ... ... : ... .. . ... ... ... : ... .. . ... ... ... : ... .. . P7F ... ... : ... .. . ... ... ... : ... .. . ... ... ...
ROW AE : ... .. . ... ... ... : ... .. . P7C ... ... : ... .. . P7F ... ... : ... .. . ... ... ... : ... .. . ... ... ... : ... .. . P80 ... ... : ... .. . P7E ... ... : ... .. . P82 ... ...
ROW AF : ... .. . ... ... ... : ... .. . ... ... ... : ... .. . ... ... ... : ... .. . ... ... ... : ... .. . ... ... ... : ... .. . P83 ... ... : ... .. . P80 ... ... : ... .. . P80 ... ...
ROW B0 : ... .. . ... ... ... : ... .. . P7D ... ... : ... .. . ... ... ... : ... .. . ... ... ... : ... .. . ... ... ... : ... .. . P84 ... ... : ... .. . P82 ... ... : ... .. . P7E ... ...
ROW B1 : ... .. . ... ... ... : ... .. . P7F ... ... : ... .. . P80 ... ... : ... .. . ... ... ... : ... .. . ... ... ... : ... .. . ... ... ... : ... .. . P84 ... ... : ... .. . P7C ... ...
ROW B2 : ... .. . ... ... ... : ... .. . P80 ... ... : ... .. . ... ... ... : ... .. . ... ... ... : ... .. . ... ... ... : ... .. . P82 ... ... : ... .. . ... ... ... : ... .. . ... ... ...
ROW B3 : ... .. . ... ... ... : ... .. . P83 ... ... : ... .. . P81 ... ... : ... .. . ... ... ... : ... .. . ... ... ... : ... .. . P80 ... ... : ... .. . P83 ... ... : ... .. . P7D ... ...
ROW B4 : ... .. . ... ... ... : ... .. . P84 ... ... : D#5 00 . ... ... ... : ... .. . ... ... ... : ... .. . ... ... ... : ... .. . P7E ... ... : ... .. . P80 ... ... : ... .. . P80 ... ...
ROW B5 : ... .. . ... ... ... : ... .. . ... ... ... : ... .. . ... ... ... : ... .. . ... ... ... : ... .. . ... ... ... : ... .. . P7C ... ... : ... .. . P7F ... ... : ... .. . P81 ... ...
ROW B6 : ... .. . ... ... ... : ... .. . P82 ... ... : ... .. . P80 ... ... : ... .. . ... ... ... : ... .. . ... ... ... : ... .. . ... ... ... : ... .. . P7C ... ... : ... .. . P84 ... ...
ROW B7 : ... .. . ... ... ... : ... .. . P80 ... ... : ... .. . ... ... ... : ... .. . ... ... ... : ... .. . ... ... ... : ... .. . P7D ... ... : ... .. . ... ... ... : ... .. . ... ... ...
ROW B8 : ... .. . ... ... ... : ... .. . P7E ... ... : ... .. . ... ... ... : ... .. . ... ... ... : ... .. . ... ... ... : ... .. . P80 ... ... : ... .. . P7D ... ... : ... .. . P83 ... ...
ROW B9 : ... .. . ... ... ... : ... .. . P7C ... ... : ... .. . P7F ... ... : ... .. . ... ... ... : ... .. . ... ... ... : ... .. . P81 ... ... : ... .. . P7F ... ... : ... .. . P81 ... ...
ROW BA : ... .. . ... ... ... : ... .. . ... ... ... : ... .. . ... ... ... : ... .. . ... ... ... : ... .. . ... ... ... : ... .. . P84 ... ... : ... .. . P80 ... ... : ... .. . P80 ... ...
ROW BB : ... .. . ... ... ... : ... .. . P7D ... ... : ... .. . P80 ... ... : ... .. . ... ... ... : ... .. . ... ... ... : ... .. . ... ... ... : ... .. . P83 ... ... : ... .. . P7D ... ...
ROW BC : ... .. . ... ... ... : ... .. . P80 ... ... : ... .. . ... ... ... : ... .. . ... ... ... : ... .. . ... ... ... : ... .. . P83 ... ... : ... .. . P84 ... ... : ... .. . P7C ... ...
ROW BD : ... .. . ... ... ... : ... .. . P81 ... ... : ... .. . ... ... ... : ... .. . ... ... ... : ... .. . ... ... ... : ... .. . P81 ... ... : ... .. . ... ... ... : ... .. . ... ... ...
ROW BE : ... .. . ... ... ... : ... .. . P84 ... ... : ... .. . P81 ... ... : ... .. . ... ... ... : ... .. . ... ... ... : ... .. . P80 ... ... : ... .. . P82 ... ... : ... .. . P7E ... ...
ROW BF : ... .. . ... ... ... : ... .. . ... ... ... : ... .. . ... ... ... : ... .. . ... ... ... : ... .. . ... ... ... : ... .. . P7D ... ... : ... .. . P80 ... ... : ... .. . P80 ... ...
ROW C0 : ... .. . ... ... ... : ... .. . P83 ... ... : C#5 00 . ... ... ... : ... .. . ... ... ... : ... .. . ... ... ... : ... .. . P7C ... ... : ... .. . P7E ... ... : ... .. . P82 ... ...
ROW C1 : ... .. . ... ... ... : ... .. . P81 ... ... : ... .. . P80 ... ... : ... .. . ... ... ... : ... .. . ... ... ... : ... .. . ... ... ... : ... .. . P7C ... ... : ... .. . P84 ... ...
ROW C2 : ... .. . ... ... ... : ... .. . P80 ... ... : ... .. . ... ... ... : ... .. . ... ... ... : ... .. . ... ... ... : ... .. . P7E ... ... : ... .. . ... ... ... : ... .. . ... ... ...
ROW C3 : ... .. . ... ... ... : ... .. . P7D ... ... : ... .. . P7F ... ... : ... .. . ... ... ... : ... .. . ... ... ... : ... .. . P80 ... ... : ... .. . P7D ... ... : ... .. . P83 ... ...
ROW C4 : ... .. . ... ... ... : ... .. . P7C ... ... : ... .. . ... ... ... : ... .. . ... ... ... : ... .. . ... ... ... : ... .. . P82 ... ... : ... .. . P80 ... ... : ... .. . P80 ... ...
ROW C5 : ... .. . ... ... ... : ... .. . ... ... ... : ... .. . ... ... ... : ... .. . ... ... ... : ... .. . ... ... ... : ... .. . P84 ... ... : ... .. . P81 ... ... : ... .. . P7F ... ...
ROW C6 : ... .. . ... ... ... : ... .. . P7E ... ... : ... .. . P80 ... ... : ... .. . ... ... ... : ... .. . ... ... ... : ... .. . ... ... ... : ... .. . P84 ... ... : ... .. . P7C ... ...
ROW C7 : ... .. . ... ... ... : ... .. . P80 ... ... : ... .. . ... ... ... : ... .. . ... ... ... : ... .. . ... ... ... : ... .. . P83 ... ... : ... .. . ... ... ... : ... .. . ... ... ...
ROW C8 : ... .. . ... ... ... : ... .. . P82 ... ... : ... .. . ... ... ... : ... .. . ... ... ... : ... .. . ... ... ... : ... .. . P80 ... ... : ... .. . P83 ... ... : A#1 03 . P7D ... ...
ROW C9 : ... .. . ... ... ... : ... .. . P84 ... ... : ... .. . P81 ... ... : ... .. . ... ... ... : ... .. . ... ... ... : ... .. . P7F ... ... : ... .. . P81 ... ... : ... .. . P7F ... ...
ROW CA : ... .. . ... ... ... : ... .. . ... ... ... : ... .. . ... ... ... : ... .. . ... ... ... : ... .. . ... ... ... : ... .. . P7C ... ... : ... .. . P80 ... ... : ... .. . P80 ... ...
ROW CB : ... .. . ... ... ... : ... .. . P83 ... ... : ... .. . P80 ... ... : ... .. . ... ... ... : ... .. . ... ... ... : ... .. . ... ... ... : ... .. . P7D ... ... : ... .. . P83 ... ...
ROW CC : ... .. . ... ... ... : ... .. . P80 ... ... : B-4 00 . ... ... ... : ... .. . ... ... ... : ... .. . ... ... ... : ... .. . P7D ... ... : ... .. . P7C ... ... : ... .. . P84 ... ...
ROW CD : ... .. . ... ... ... : ... .. . P7F ... ... : ... .. . ... ... ... : ... .. . ... ... ... : ... .. . ... ... ... : ... .. . P7F ... ... : ... .. . ... ... ... : ... .. . ... ... ...
ROW CE : ... .. . ... ... ... : ... .. . P7C ... ... : ... .. . P7F ... ... : ... .. . ... ... ... : ... .. . ... ... ... : ... .. . P80 ... ... : ... .. . P7E ... ... : ... .. . P82 ... ...
ROW CF : ... .. . ... ... ... : ... .. . ... ... ... : ... .. . ... ... ... : ... .. . ... ... ... : ... .. . ... ... ... : ... .. . P83 ... ... : ... .. . P80 ... ... : ... .. . P80 ... ...
ROW D0 : ... .. . ... ... ... : ... .. . P7D ... ... : ... .. . ... ... ... : ... .. . ... ... ... : ... .. . ... ... ... : ... .. . P84 ... ... : ... .. . P82 ... ... : ... .. . P7E ... ...
ROW D1 : ... .. . ... ... ... : ... .. . P7F ... ... : ... .. . P80 ... ... : ... .. . ... ... ... : ... .. . ... ... ... : ... .. . ... ... ... : ... .. . P84 ... ... : ... .. . P7C ... ...
ROW D2 : ... .. . ... ... ... : ... .. . P80 ... ... : ... .. . ... ... ... : ... .. . ... ... ... : ... .. . ... ... ... : ... .. . P82 ... ... : ... .. . ... ... ... : ... .. . ... ... ...
ROW D3 : ... .. . ... ... ... : ... .. . P83 ... ... : ... .. . P81 ... ... : ... .. . ... ... ... : ... .. . ... ... ... : ... .. . P80 ... ... : ... .. . P83 ... ... : ... .. . P7D ... ...
ROW D4 : ... .. . ... ... ... : ... .. . P84 ... ... : ... .. . ... ... ... : ... .. . ... ... ... : ... .. . ... ... ... : ... .. . P7E ... ... : ... .. . P80 ... ... : ... .. . P80 ... ...
ROW D5 : ... .. . ... ... ... : ... .. . ... ... ... : ... .. . ... ... ... : ... .. . ... ... ... : ... .. . ... ... ... : ... .. . P7C ... ... : ... .. . P7F ... ... : ... .. . P81 ... ...
ROW D6 : ... .. . ... ... ... : ... .. . P82 ... ... : ... .. . P80 ... ... : ... .. . ... ... ... : ... .. . ... ... ... : ... .. . ... ... ... : ... .. . P7C ... ... : ... .. . P84 ... ...
ROW D7 : ... .. . ... ... ... : ... .. . P80 ... ... : ... .. . ... ... ... : ... .. . ... ... ... : ... .. . ... ... ... : ... .. . P7D ... ... : ... .. . ... ... ... : ... .. . ... ... ...
ROW D8 : ... .. . ... ... ... : ... .. . P7E ... ... : A#4 00 . ... ... ... : ... .. . ... ... ... : ... .. . ... ... ... : A#3 06 1 P80 ... ... : ... .. . P7D ... ... : ... .. . P83 ... ...
ROW D9 : ... .. . ... ... ... : ... .. . P7C ... ... : ... .. . P7F ... ... : ... .. . ... ... ... : ... .. . ... ... ... : ... .. . P81 ... ... : ... .. . P7F ... ... : ... .. . P81 ... ...
ROW DA : ... .. . ... ... ... : ... .. . ... ... ... : ... .. . ... ... ... : ... .. . ... ... ... : ... .. . ... ... ... : ... .. 3 P84 ... ... : ... .. . P80 ... ... : ... .. . P80 ... ...
ROW DB : ... .. . ... ... ... : ... .. . P7D ... ... : ... .. . P80 ... ... : ... .. . ... ... ... : ... .. . ... ... ... : ... .. 4 ... ... ... : ... .. . P83 ... ... : ... .. . P7D ... ...
ROW DC : ... .. . ... ... ... : ... .. . P80 ... ... : ... .. . ... ... ... : ... .. . ... ... ... : ... .. . ... ... ... : ... .. . P83 ... ... : ... .. . P84 ... ... : ... .. . P7C ... ...
ROW DD : ... .. . ... ... ... : ... .. . P81 ... ... : ... .. . ... ... ... : ... .. . ... ... ... : ... .. . ... ... ... : ... .. . P81 ... ... : ... .. . ... ... ... : ... .. . ... ... ...
ROW DE : ... .. . ... ... ... : ... .. . P84 ... ... : ... .. . P81 ... ... : ... .. . ... ... ... : ... .. . ... ... ... : ... .. . P80 ... ... : ... .. . P82 ... ... : ... .. . P7E ... ...
ROW DF : ... .. . ... ... ... : ... .. . ... ... ... : ... .. . ... ... ... : ... .. . ... ... ... : ... .. . ... ... ... : ... .. . P7D ... ... : ... .. . P80 ... ... : ... .. . P80 ... ...
ROW E0 : ... .. . ... ... ... : ... .. . P83 ... ... : ... .. . ... ... ... : ... .. . ... ... ... : ... .. . ... ... ... : ... .. . P7C ... ... : ... .. . P7E ... ... : ... .. . P82 ... ...
ROW E1 : ... .. . ... ... ... : ... .. . P81 ... ... : ... .. . P80 ... ... : ... .. . ... ... ... : ... .. . ... ... ... : ... .. . ... ... ... : ... .. . P7C ... ... : ... .. . P84 ... ...
ROW E2 : ... .. . ... ... ... : ... .. . P80 ... ... : ... .. . ... ... ... : ... .. . ... ... ... : ... .. . ... ... ... : ... .. . P7E ... ... : ... .. . ... ... ... : ... .. . ... ... ...
ROW E3 : ... .. . ... ... ... : ... .. . P7D ... ... : ... .. . P7F ... ... : ... .. . ... ... ... : ... .. . ... ... ... : ... .. . P80 ... ... : ... .. . P7D ... ... : ... .. . P83 ... ...
ROW E4 : ... .. . ... ... ... : ... .. . P7C ... ... : ... .. . ... ... ... : ... .. . ... ... ... : ... .. . ... ... ... : ... .. . P82 ... ... : ... .. . P80 ... ... : ... .. . P80 ... ...
ROW E5 : ... .. . ... ... ... : ... .. . ... ... ... : ... .. . ... ... ... : ... .. . ... ... ... : ... .. . ... ... ... : ... .. . P84 ... ... : ... .. . P81 ... ... : ... .. . P7F ... ...
ROW E6 : ... .. . ... ... ... : ... .. . P7E ... ... : ... .. . P80 ... ... : ... .. . ... ... ... : ... .. . ... ... ... : ... .. . ... ... ... : ... .. . P84 ... ... : ... .. . P7C ... ...
ROW E7 : ... .. . ... ... ... : ... .. . P80 ... ... : ... .. . ... ... ... : ... .. . ... ... ... : ... .. . ... ... ... : ... .. . P83 ... ... : ... .. . ... ... ... : ... .. . ... ... ...
ROW E8 : ... .. . ... ... ... : ... .. . P82 ... ... : ... .. . ... ... ... : ... .. . ... ... ... : ... .. . ... ... ... : ... .. . P80 ... ... : ... .. . P83 ... ... : ... .. . P7D ... ...
ROW E9 : ... .. . ... ... ... : ... .. . P84 ... ... : ... .. . P81 ... ... : ... .. . ... ... ... : ... .. . ... ... ... : ... .. . P7F ... ... : ... .. . P81 ... ... : ... .. . P7F ... ...
ROW EA : ... .. . ... ... ... : ... .. . ... ... ... : ... .. . ... ... ... : ... .. . ... ... ... : ... .. . ... ... ... : ... .. . P7C ... ... : ... .. . P80 ... ... : ... .. . P80 ... ...
ROW EB : ... .. . ... ... ... : ... .. . P83 ... ... : ... .. . P80 ... ... : ... .. . ... ... ... : ... .. . ... ... ... : ... .. . ... ... ... : ... .. . P7D ... ... : ... .. . P83 ... ...
ROW EC : ... .. . ... ... ... : ... .. . P80 ... ... : ... .. . ... ... ... : ... .. . ... ... ... : ... .. . ... ... ... : ... .. . P7D ... ... : ... .. . P7C ... ... : ... .. . P84 ... ...
ROW ED : ... .. . ... ... ... : ... .. . P7F ... ... : ... .. . ... ... ... : ... .. . ... ... ... : ... .. . ... ... ... : ... .. . P7F ... ... : ... .. . ... ... ... : ... .. . ... ... ...
ROW EE : ... .. . ... ... ... : ... .. . P7C ... ... : ... .. . P7F ... ... : ... .. . ... ... ... : ... .. . ... ... ... : ... .. . P80 ... ... : ... .. . P7E ... ... : ... .. . P82 ... ...
ROW EF : ... .. . ... ... ... : ... .. . ... ... ... : ... .. . ... ... ... : ... .. . ... ... ... : ... .. . ... ... ... : ... .. . P83 ... ... : ... .. . P80 ... ... : ... .. . P80 ... ...
ROW F0 : ... .. . ... ... ... : ... .. . P7D ... ... : B-4 00 . ... ... ... : ... .. . ... ... ... : ... .. . ... ... ... : ... .. . P84 ... ... : ... .. . P82 ... ... : ... .. . P7E ... ...
ROW F1 : ... .. . ... ... ... : ... .. . P7F ... ... : ... .. . P80 ... ... : ... .. . ... ... ... : ... .. . ... ... ... : ... .. . ... ... ... : ... .. . P84 ... ... : ... .. . P7C ... ...
ROW F2 : ... .. . ... ... ... : ... .. . P80 ... ... : ... .. . ... ... ... : ... .. . ... ... ... : ... .. . ... ... ... : ... .. . P82 ... ... : ... .. . ... ... ... : ... .. . ... ... ...
ROW F3 : ... .. . ... ... ... : ... .. . P83 ... ... : ... .. . P81 ... ... : ... .. . ... ... ... : ... .. . ... ... ... : ... .. . P80 ... ... : ... .. . P83 ... ... : ... .. . P7D ... ...
ROW F4 : ... .. . ... ... ... : ... .. . P84 ... ... : ... .. . ... ... ... : ... .. . ... ... ... : ... .. . ... ... ... : ... .. . P7E ... ... : ... .. . P80 ... ... : ... .. . P80 ... ...
ROW F5 : ... .. . ... ... ... : ... .. . ... ... ... : ... .. . ... ... ... : ... .. . ... ... ... : ... .. . ... ... ... : ... .. . P7C ... ... : ... .. . P7F ... ... : ... .. . P81 ... ...
ROW F6 : ... .. . ... ... ... : ... .. . P82 ... ... : ... .. . P80 ... ... : ... .. . ... ... ... : ... .. . ... ... ... : ... .. . ... ... ... : ... .. . P7C ... ... : ... .. . P84 ... ...
ROW F7 : ... .. . ... ... ... : ... .. . P80 ... ... : ... .. . ... ... ... : ... .. . ... ... ... : ... .. . ... ... ... : ... .. . P7D ... ... : ... .. . ... ... ... : ... .. . ... ... ...
ROW F8 : ... .. . ... ... ... : F#3 01 1 P7E ... ... : ... .. . ... ... ... : ... .. . ... ... ... : ... .. . ... ... ... : ... .. . P80 ... ... : ... .. . P7D ... ... : B-1 03 . P83 ... ...
ROW F9 : ... .. . ... ... ... : ... .. . P7C ... ... : ... .. . P7F ... ... : ... .. . ... ... ... : ... .. . ... ... ... : ... .. . P81 ... ... : ... .. . P7F ... ... : ... .. . P81 ... ...
ROW FA : ... .. . ... ... ... : ... .. 3 ... ... ... : ... .. . ... ... ... : ... .. . ... ... ... : ... .. . ... ... ... : ... .. . P84 ... ... : ... .. . P80 ... ... : ... .. . P80 ... ...
ROW FB : ... .. . ... ... ... : ... .. 4 P7D ... ... : ... .. . P80 ... ... : ... .. . ... ... ... : ... .. . ... ... ... : ... .. . ... ... ... : ... .. . P83 ... ... : ... .. . P7D ... ...
ROW FC : ... .. . ... ... ... : ... .. . P80 ... ... : A#4 00 . ... ... ... : ... .. . ... ... ... : ... .. . ... ... ... : ... .. . P83 ... ... : ... .. . P84 ... ... : ... .. . P7C ... ...
ROW FD : ... .. . ... ... ... : ... .. . P81 ... ... : ... .. . ... ... ... : ... .. . ... ... ... : ... .. . ... ... ... : ... .. . P81 ... ... : ... .. . ... ... ... : ... .. . ... ... ...
ROW FE : ... .. . ... ... ... : ... .. . P84 ... ... : ... .. . P81 ... ... : ... .. . ... ... ... : ... .. . ... ... ... : ... .. . P80 ... ... : ... .. . P82 ... ... : ... .. . P7E ... ...
ROW FF : ... .. . ... ... ... : ... .. . ... ... ... : ... .. . ... ... ... : ... .. . ... ... ... : ... .. . ... ... ... : ... .. . P7D ... ... : ... .. . P80 ... ... : ... .. . P80 ... ...

PATTERN 07
ROW 00 : ... .. . ... ... ... : ... .. . P83 ... ... : ... .. . ... ... ... : ... .. . ... ... ... : ... .. . ... ... ... : ... .. . P7C ... ... : ... .. . P7E ... ... : ... .. . P82 ... ...
ROW 01 : ... .. . ... ... ... : ... .. . P81 ... ... : ... .. . P80 ... ... : ... .. . ... ... ... : ... .. . ... ... ... : ... .. . ... ... ... : ... .. . P7C ... ... : ... .. . P84 ... ...
ROW 02 : ... .. . ... ... ... : ... .. . P80 ... ... : ... .. . ... ... ... : ... .. . ... ... ... : ... .. . ... ... ... : ... .. . P7E ... ... : ... .. . ... ... ... : ... .. . ... ... ...
ROW 03 : ... .. . ... ... ... : ... .. . P7D ... ... : ... .. . P7F ... ... : ... .. . ... ... ... : ... .. . ... ... ... : ... .. . P80 ... ... : ... .. . P7D ... ... : ... .. . P83 ... ...
ROW 04 : ... .. . ... ... ... : ... .. . P7C ... ... : ... .. . ... ... ... : ... .. . ... ... ... : ... .. . ... ... ... : ... .. . P82 ... ... : ... .. . P80 ... ... : ... .. . P80 ... ...
ROW 05 : ... .. . ... ... ... : ... .. . ... ... ... : ... .. . ... ... ... : ... .. . ... ... ... : ... .. . ... ... ... : ... .. . P84 ... ... : ... .. . P81 ... ... : ... .. . P7F ... ...
ROW 06 : ... .. . ... ... ... : ... .. . P7E ... ... : ... .. . P80 ... ... : ... .. . ... ... ... : ... .. . ... ... ... : ... .. . ... ... ... : ... .. . P84 ... ... : ... .. . P7C ... ...
ROW 07 : ... .. . ... ... ... : ... .. . P80 ... ... : ... .. . ... ... ... : ... .. . ... ... ... : ... .. . ... ... ... : ... .. . P83 ... ... : ... .. . ... ... ... : ... .. . ... ... ...
ROW 08 : ... .. . ... ... ... : ... .. . P82 ... ... : ... .. . ... ... ... : ... .. . ... ... ... : ... .. . ... ... ... : ... .. . P80 ... ... : D#3 06 1 P83 ... ... : ... .. . P7D ... ...
ROW 09 : ... .. . ... ... ... : ... .. . P84 ... ... : ... .. . P81 ... ... : ... .. . ... ... ... : ... .. . ... ... ... : ... .. . P7F ... ... : ... .. . P81 ... ... : ... .. . P7F ... ...
ROW 0A : ... .. . ... ... ... : ... .. . ... ... ... : ... .. . ... ... ... : ... .. . ... ... ... : ... .. . ... ... ... : ... .. . P7C ... ... : ... .. 3 P80 ... ... : ... .. . P80 ... ...
ROW 0B : ... .. . ... ... ... : ... .. . P83 ... ... : ... .. . P80 ... ... : ... .. . ... ... ... : ... .. . ... ... ... : ... .. . ... ... ... : ... .. 4 P7D ... ... : ... .. . P83 ... ...
ROW 0C : ... .. . ... ... ... : ... .. . P80 ... ... : ... .. . ... ... ... : ... .. . ... ... ... : ... .. . ... ... ... : ... .. . P7D ... ... : ... .. . P7C ... ... : ... .. . P84 ... ...
ROW 0D : ... .. . ... ... ... : ... .. . P7F ... ... : ... .. . ... ... ... : ... .. . ... ... ... : ... .. . ... ... ... : ... .. . P7F ... ... : ... .. . ... ... ... : ... .. . ... ... ...
ROW 0E : ... .. . ... ... ... : ... .. . P7C ... ... : ... .. . P7F ... ... : ... .. . ... ... ... : ... .. . ... ... ... : ... .. . P80 ... ... : ... .. . P7E ... ... : ... .. . P82 ... ...
ROW 0F : ... .. . ... ... ... : ... .. . ... ... ... : ... .. . ... ... ... : ... .. . ... ... ... : ... .. . ... ... ... : ... .. . P83 ... ... : ... .. . P80 ... ... : ... .. . P80 ... ...
ROW 10 : ... .. . ... ... ... : ... .. . P7D ... ... : ... .. . ... ... ... : ... .. . ... ... ... : ... .. . ... ... ... : ... .. . P84 ... ... : ... .. . P82 ... ... : ... .. . P7E ... ...
ROW 11 : ... .. . ... ... ... : ... .. . P7F ... ... : ... .. . P80 ... ... : ... .. . ... ... ... : ... .. . ... ... ... : ... .. . ... ... ... : ... .. . P84 ... ... : ... .. . P7C ... ...
ROW 12 : ... .. . ... ... ... : ... .. . P80 ... ... : ... .. . ... ... ... : ... .. . ... ... ... : ... .. . ... ... ... : ... .. . P82 ... ... : ... .. . ... ... ... : ... .. . ... ... ...
ROW 13 : ... .. . ... ... ... : ... .. . P83 ... ... : ... .. . P81 ... ... : ... .. . ... ... ... : ... .. . ... ... ... : ... .. . P80 ... ... : ... .. . P83 ... ... : ... .. . P7D ... ...
ROW 14 : ... .. . ... ... ... : ... .. . P84 ... ... : ... .. . ... ... ... : ... .. . ... ... ... : ... .. . ... ... ... : ... .. . P7E ... ... : ... .. . P80 ... ... : ... .. . P80 ... ...
ROW 15 : ... .. . ... ... ... : ... .. . ... ... ... : ... .. . ... ... ... : ... .. . ... ... ... : ... .. . ... ... ... : ... .. . P7C ... ... : ... .. . P7F ... ... : ... .. . P81 ... ...
ROW 16 : ... .. . ... ... ... : ... .. . P82 ... ... : ... .. . P80 ... ... : ... .. . ... ... ... : ... .. . ... ... ... : ... .. . ... ... ... : ... .. . P7C ... ... : ... .. . P84 ... ...
ROW 17 : ... .. . ... ... ... : ... .. . P80 ... ... : ... .. . ... ... ... : ... .. . ... ... ... : ... .. . ... ... ... : ... .. . P7D ... ... : ... .. . ... ... ... : ... .. . ... ... ...
ROW 18 : ... .. . ... ... ... : ... .. . P7E ... ... : ... .. . ... ... ... : ... .. . ... ... ... : ... .. . ... ... ... : ... .. . P80 ... ... : ... .. . P7D ... ... : ... .. . P83 ... ...
ROW 19 : ... .. . ... ... ... : ... .. . P7C ... ... : ... .. . P7F ... ... : ... .. . ... ... ... : ... .. . ... ... ... : ... .. . P81 ... ... : ... .. . P7F ... ... : ... .. . P81 ... ...
ROW 1A : ... .. . ... ... ... : ... .. . ... ... ... : ... .. . ... ... ... : ... .. . ... ... ... : ... .. . ... ... ... : ... .. . P84 ... ... : ... .. . P80 ... ... : ... .. . P80 ... ...
ROW 1B : ... .. . ... ... ... : ... .. . P7D ... ... : ... .. . P80 ... ... : ... .. . ... ... ... : ... .. . ... ... ... : ... .. . ... ... ... : ... .. . P83 ... ... : ... .. . P7D ... ...
ROW 1C : ... .. . ... ... ... : ... .. . P80 ... ... : ... .. . ... ... ... : ... .. . ... ... ... : ... .. . ... ... ... : ... .. . P83 ... ... : ... .. . P84 ... ... : ... .. . P7C ... ...
ROW 1D : ... .. . ... ... ... : ... .. . P81 ... ... : ... .. . ... ... ... : ... .. . ... ... ... : ... .. . ... ... ... : ... .. . P81 ... ... : ... .. . ... ... ... : ... .. . ... ... ...
ROW 1E : ... .. . ... ... ... : ... .. . P84 ... ... : ... .. . P81 ... ... : ... .. . ... ... ... : ... .. . ... ... ... : ... .. . P80 ... ... : ... .. . P82 ... ... : ... .. . P7E ... ...
ROW 1F : ... .. . ... ... ... : ... .. . ... ... ... : ... .. . ... ... ... : ... .. . ... ... ... : ... .. . ... ... ... : ... .. . P7D ... ... : ... .. . P80 ... ... : ... .. . P80 ... ...
ROW 20 : ... .. . ... ... ... : ... .. . P83 ... ... : B-4 00 . ... ... ... : ... .. . ... ... ... : ... .. . ... ... ... : ... .. . P7C ... ... : ... .. . P7E ... ... : ... .. . P82 ... ...
ROW 21 : ... .. . ... ... ... : ... .. . P81 ... ... : ... .. . P80 ... ... : ... .. . ... ... ... : ... .. . ... ... ... : ... .. . ... ... ... : ... .. . P7C ... ... : ... .. . P84 ... ...
ROW 22 : ... .. . ... ... ... : ... .. . P80 ... ... : ... .. . ... ... ... : ... .. . ... ... ... : ... .. . ... ... ... : ... .. . P7E ... ... : ... .. . ... ... ... : ... .. . ... ... ...
ROW 23 : ... .. . ... ... ... : ... .. . P7D ... ... : ... .. . P7F ... ... : ... .. . ... ... ... : ... .. . ... ... ... : ... .. . P80 ... ... : ... .. . P7D ... ... : ... .. . P83 ... ...
ROW 24 : ... .. . ... ... ... : ... .. . P7C ... ... : ... .. . ... ... ... : ... .. . ... ... ... : ... .. . ... ... ... : ... .. . P82 ... ... : ... .. . P80 ... ... : ... .. . P80 ... ...
ROW 25 : ... .. . ... ... ... : ... .. . ... ... ... : ... .. . ... ... ... : ... .. . ... ... ... : ... .. . ... ... ... : ... .. . P84 ... ... : ... .. . P81 ... ... : ... .. . P7F ... ...
ROW 26 : ... .. . ... ... ... : ... .. . P7E ... ... : ... .. . P80 ... ... : ... .. . ... ... ... : ... .. . ... ... ... : ... .. . ... ... ... : ... .. . P84 ... ... : ... .. . P7C ... ...
ROW 27 : ... .. . ... ... ... : ... .. . P80 ... ... : ... .. . ... ... ... : ... .. . ... ... ... : ... .. . ... ... ... : ... .. . P83 ... ... : ... .. . ... ... ... : ... .. . ... ... ...
ROW 28 : ... .. . ... ... ... : ... .. . P82 ... ... : ... .. . ... ... ... : ... .. . ... ... ... : ... .. . ... ... ... : ... .. . P80 ... ... : ... .. . P83 ... ... : A#1 03 . P7D ... ...
ROW 29 : ... .. . ... ... ... : ... .. . P84 ... ... : ... .. . P81 ... ... : ... .. . ... ... ... : ... .. . ... ... ... : ... .. . P7F ... ... : ... .. . P81 ... ... : ... .. . P7F ... ...
ROW 2A : ... .. . ... ... ... : ... .. . ... ... ... : ... .. . ... ... ... : ... .. . ... ... ... : ... .. . ... ... ... : ... .. . P7C ... ... : ... .. . P80 ... ... : ... .. . P80 ... ...
ROW 2B : ... .. . ... ... ... : ... .. . P83 ... ... : ... .. . P80 ... ... : ... .. . ... ... ... : ... .. . ... ... ... : ... .. . ... ... ... : ... .. . P7D ... ... : ... .. . P83 ... ...
ROW 2C : ... .. . ... ... ... : ... .. . P80 ... ... : ... .. . ... ... ... : ... .. . ... ... ... : ... .. . ... ... ... : ... .. . P7D ... ... : ... .. . P7C ... ... : ... .. . P84 ... ...
ROW 2D : ... .. . ... ... ... : ... .. . P7F ... ... : ... .. . ... ... ... : ... .. . ... ... ... : ... .. . ... ... ... : ... .. . P7F ... ... : ... .. . ... ... ... : ... .. . ... ... ...
ROW 2E : ... .. . ... ... ... : ... .. . P7C ... ... : ... .. . P7F ... ... : ... .. . ... ... ... : ... .. . ... ... ... : ... .. . P80 ... ... : ... .. . P7E ... ... : ... .. . P82 ... ...
ROW 2F : ... .. . ... ... ... : ... .. . ... ... ... : ... .. . ... ... ... : ... .. . ... ... ... : ... .. . ... ... ... : ... .. . P83 ... ... : ... .. . P80 ... ... : ... .. . P80 ... ...
ROW 30 : ... .. . ... ... ... : ... .. . P7D ... ... : ... .. . ... ... ... : ... .. . ... ... ... : ... .. . ... ... ... : ... .. . P84 ... ... : ... .. . P82 ... ... : ... .. . P7E ... ...
ROW 31 : ... .. . ... ... ... : ... .. . P7F ... ... : ... .. . P80 ... ... : ... .. . ... ... ... : ... .. . ... ... ... : ... .. . ... ... ... : ... .. . P84 ... ... : ... .. . P7C ... ...
ROW 32 : ... .. . ... ... ... : ... .. . P80 ... ... : ... .. . ... ... ... : ... .. . ... ... ... : ... .. . ... ... ... : ... .. . P82 ... ... : ... .. . ... ... ... : ... .. . ... ... ...
ROW 33 : ... .. . ... ... ... : ... .. . P83 ... ... : ... .. . P81 ... ... : ... .. . ... ... ... : ... .. . ... ... ... : ... .. . P80 ... ... : ... .. . P83 ... ... : ... .. . P7D ... ...
ROW 34 : ... .. . ... ... ... : ... .. . P84 ... ... : ... .. . ... ... ... : ... .. . ... ... ... : ... .. . ... ... ... : ... .. . P7E ... ... : ... .. . P80 ... ... : ... .. . P80 ... ...
ROW 35 : ... .. . ... ... ... : ... .. . ... ... ... : ... .. . ... ... ... : ... .. . ... ... ... : ... .. . ... ... ... : ... .. . P7C ... ... : ... .. . P7F ... ... : ... .. . P81 ... ...
ROW 36 : ... .. . ... ... ... : ... .. . P82 ... ... : ... .. . P80 ... ... : ... .. . ... ... ... : ... .. . ... ... ... : ... .. . ... ... ... : ... .. . P7C ... ... : ... .. . P84 ... ...
ROW 37 : ... .. . ... ... ... : ... .. . P80 ... ... : ... .. . ... ... ... : ... .. . ... ... ... : ... .. . ... ... ... : ... .. . P7D ... ... : ... .. . ... ... ... : ... .. . ... ... ...
ROW 38 : ... .. . ... ... ... : ... .. . P7E ... ... : C#5 00 . ... ... ... : ... .. . ... ... ... : ... .. . ... ... ... : G#3 06 1 P80 ... ... : C#3 06 1 P7D ... ... : ... .. . P83 ... ...
ROW 39 : ... .. . ... ... ... : ... .. . P7C ... ... : ... .. . P7F ... ... : ... .. . ... ... ... : ... .. . ... ... ... : ... .. . P81 ... ... : ... .. . P7F ... ... : ... .. . P81 ... ...
ROW 3A : ... .. . ... ... ... : ... .. . ... ... ... : ... .. . ... ... ... : ... .. . ... ... ... : ... .. . ... ... ... : ... .. 3 P84 ... ... : ... .. 3 P80 ... ... : ... .. . P80 ... ...
ROW 3B : ... .. . ... ... ... : ... .. . P7D ... ... : ... .. . P80 ... ... : ... .. . ... ... ... : ... .. . ... ... ... : ... .. 4 ... ... ... : ... .. 4 P83 ... ... : ... .. . P7D ... ...
ROW 3C : ... .. . ... ... ... : ... .. . P80 ... ... : ... .. . ... ... ... : ... .. . ... ... ... : ... .. . ... ... ... : ... .. . P83 ... ... : ... .. . P84 ... ... : ... .. . P7C ... ...
ROW 3D : ... .. . ... ... ... : ... .. . P81 ... ... : ... .. . ... ... ... : ... .. . ... ... ... : ... .. . ... ... ... : ... .. . P81 ... ... : ... .. . ... ... ... : ... .. . ... ... ...
ROW 3E : ... .. . ... ... ... : ... .. . P84 ... ... : ... .. . P81 ... ... : ... .. . ... ... ... : ... .. . ... ... ... : ... .. . P80 ... ... : ... .. . P82 ... ... : ... .. . P7E ... ...
ROW 3F : ... .. . ... ... ... : ... .. . ... ... ... : ... .. . ... ... ... : ... .. . ... ... ... : ... .. . ... ... ... : ... .. . P7D ... ... : ... .. . P80 ... ... : ... .. . P80 ... ...
ROW 40 : ... .. . ... ... ... : ... .. . P83 ... ... : ... .. . ... ... ... : ... .. . ... ... ... : ... .. . ... ... ... : ... .. . P7C ... ... : ... .. . P7E ... ... : ... .. . P82 ... ...
ROW 41 : ... .. . ... ... ... : ... .. . P81 ... ... : ... .. . P80 ... ... : ... .. . ... ... ... : ... .. . ... ... ... : ... .. . ... ... ... : ... .. . P7C ... ... : ... .. . P84 ... ...
ROW 42 : ... .. . ... ... ... : ... .. . P80 ... ... : ... .. . ... ... ... : ... .. . ... ... ... : ... .. . ... ... ... : ... .. . P7E ... ... : ... .. . ... ... ... : ... .. . ... ... ...
ROW 43 : ... .. . ... ... ... : ... .. . P7D ... ... : ... .. . P7F ... ... : ... .. . ... ... ... : ... .. . ... ... ... : ... .. . P80 ... ... : ... .. . P7D ... ... : ... .. . P83 ... ...
ROW 44 : ... .. . ... ... ... : ... .. . P7C ... ... : ... .. . ... ... ... : ... .. . ... ... ... : ... .. . ... ... ... : ... .. . P82 ... ... : ... .. . P80 ... ... : ... .. . P80 ... ...
ROW 45 : ... .. . ... ... ... : ... .. . ... ... ... : ... .. . ... ... ... : ... .. . ... ... ... : ... .. . ... ... ... : ... .. . P84 ... ... : ... .. . P81 ... ... : ... .. . P7F ... ...
ROW 46 : ... .. . ... ... ... : ... .. . P7E ... ... : ... .. . P80 ... ... : ... .. . ... ... ... : ... .. . ... ... ... : ... .. . ... ... ... : ... .. . P84 ... ... : ... .. . P7C ... ...
ROW 47 : ... .. . ... ... ... : ... .. . P80 ... ... : ... .. . ... ... ... : ... .. . ... ... ... : ... .. . ... ... ... : ... .. . P83 ... ... : ... .. . ... ... ... : ... .. . ... ... ...
ROW 48 : G#3 00 8 ... ... ... : ... .. . P82 ... ... : ... .. . ... ... ... : ... .. . ... ... ... : ... .. . ... ... ... : ... .. . P80 ... ... : ... .. . P83 ... ... : ... .. . P7D ... ...
ROW 49 : B-3 00 . ... ... ... : ... .. . P84 ... ... : ... .. . P81 ... ... : ... .. . ... ... ... : ... .. . ... ... ... : ... .. . P7F ... ... : ... .. . P81 ... ... : ... .. . P7F ... ...
ROW 4A : D#4 00 . ... ... ... : ... .. . ... ... ... : ... .. . ... ... ... : ... .. . ... ... ... : ... .. . ... ... ... : ... .. . P7C ... ... : ... .. . P80 ... ... : ... .. . P80 ... ...
ROW 4B : G#3 00 . ... ... ... : ... .. . P83 ... ... : ... .. . P80 ... ... : ... .. . ... ... ... : ... .. . ... ... ... : ... .. . ... ... ... : ... .. . P7D ... ... : ... .. . P83 ... ...
ROW 4C : B-3 00 . ... ... ... : ... .. . P80 ... ... : ... .. . ... ... ... : ... .. . ... ... ... : ... .. . ... ... ... : ... .. . P7D ... ... : ... .. . P7C ... ... : ... .. . P84 ... ...
ROW 4D : D#4 00 . ... ... ... : ... .. . P7F ... ... : ... .. . ... ... ... : ... .. . ... ... ... : ... .. . ... ... ... : ... .. . P7F ... ... : ... .. . ... ... ... : ... .. . ... ... ...
ROW 4E : G#3 00 A ... ... ... : ... .. . P7C ... ... : ... .. . P7F ... ... : ... .. . ... ... ... : ... .. . ... ... ... : ... .. . P80 ... ... : ... .. . P7E ... ... : ... .. . P82 ... ...
ROW 4F : B-3 01 . ... ... ... : ... .. . ... ... ... : ... .. . ... ... ... : ... .. . ... ... ... : ... .. . ... ... ... : ... .. . P83 ... ... : ... .. . P80 ... ... : ... .. . P80 ... ...
ROW 50 : D#4 01 . ... ... ... : ... .. . P7D ... ... : ... .. . ... ... ... : ... .. . ... ... ... : ... .. . ... ... ... : ... .. . P84 ... ... : ... .. . P82 ... ... : ... .. . P7E ... ...
ROW 51 : G#3 01 . ... ... ... : ... .. . P7F ... ... : ... .. . P80 ... ... : ... .. . ... ... ... : ... .. . ... ... ... : ... .. . ... ... ... : ... .. . P84 ... ... : ... .. . P7C ... ...
ROW 52 : B-3 01 . ... ... ... : ... .. . P80 ... ... : ... .. . ... ... ... : ... .. . ... ... ... : ... .. . ... ... ... : ... .. . P82 ... ... : ... .. . ... ... ... : ... .. . ... ... ...
ROW 53 : D#4 02 . ... ... ... : ... .. . P83 ... ... : ... .. . P81 ... ... : ... .. . ... ... ... : ... .. . ... ... ... : ... .. . P80 ... ... : ... .. . P83 ... ... : ... .. . P7D ... ...
ROW 54 : G#3 02 . ... ... ... : ... .. . P84 ... ... : ... .. . ... ... ... : ... .. . ... ... ... : ... .. . ... ... ... : ... .. . P7E ... ... : ... .. . P80 ... ... : ... .. . P80 ... ...
ROW 55 : B-3 02 9 ... ... ... : ... .. . ... ... ... : ... .. . ... ... ... : ... .. . ... ... ... : ... .. . ... ... ... : ... .. . P7C ... ... : ... .. . P7F ... ... : ... .. . P81 ... ...
ROW 56 : D#4 02 8 ... ... ... : ... .. . P82 ... ... : C-5 00 . ... ... ... : ... .. . ... ... ... : ... .. . ... ... ... : ... .. . ... ... ... : ... .. . P7C ... ... : ... .. . P84 ... ...
ROW 57 : G#3 02 . ... ... ... : ... .. . P80 ... ... : B-4 00 . P82 ... ... : ... .. . ... ... ... : ... .. . ... ... ... : ... .. . P7D ... ... : ... .. . ... ... ... : ... .. . ... ... ...
ROW 58 : B-3 02 7 ... ... ... : D#3 01 1 P7E ... ... : ... .. . P7D ... ... : ... .. . ... ... ... : C-1 0A . ... ... ... : ... .. . P80 ... ... : ... .. . P7D ... ... : G#1 03 . P83 ... ...
ROW 59 : D#4 02 6 ... ... ... : ... .. . P7C ... ... : A#4 00 . P7E ... ... : ... .. . ... ... ... : ... .. . ... ... ... : ... .. . P81 ... ... : ... .. . P7F ... ... : ... .. . P81 ... ...
ROW 5A : G#3 02 4 ... ... ... : ... .. 3 ... ... ... : A-4 00 . P80 ... ... : ... .. . ... ... ... : ... .. . ... ... ... : ... .. . P84 ... ... : ... .. . P80 ... ... : ... .. . P80 ... ...
ROW 5B : B-3 02 . ... ... ... : ... .. 4 P7D ... ... : G#4 00 . P84 ... ... : ... .. . ... ... ... : ... .. . ... ... ... : ... .. . ... ... ... : ... .. . P83 ... ... : ... .. . P7D ... ...
ROW 5C : D#4 02 2 ... ... ... : ... .. . P80 ... ... : --- .. . ... ... ... : ... .. . ... ... ... : ... .. . ... ... ... : ... .. . P83 ... ... : ... .. . P84 ... ... : ... .. . P7C ... ...
ROW 5D : G#3 02 . ... ... ... : ... .. . P81 ... ... : ... .. . ... ... ... : ... .. . ... ... ... : ... .. . ... ... ... : ... .. . P81 ... ... : ... .. . ... ... ... : ... .. . ... ... ...
ROW 5E : B-3 02 1 ... ... ... : ... .. . P84 ... ... : ... .. . ... ... ... : ... .. . ... ... ... : ... .. . ... ... ... : ... .. . P80 ... ... : ... .. . P82 ... ... : ... .. . P7E ... ...
ROW 5F : D#4 02 . ... ... ... : ... .. . ... ... ... : ... .. . ... ... ... : ... .. . ... ... ... : ... .. . ... ... ... : ... .. . P7D ... ... : ... .. . P80 ... ... : ... .. . P80 ... ...
ROW 60 : G#3 02 . ... ... ... : ... .. . P83 ... ... : ... .. . ... ... ... : ... .. . ... ... ... : ... .. . ... ... ... : ... .. . P7C ... ... : ... .. . P7E ... ... : ... .. . P82 ... ...
ROW 61 : --- .. . ... ... ... : ... .. . P81 ... ... : ... .. . ... ... ... : ... .. . ... ... ... : ... .. . ... ... ... : ... .. . ... ... ... : ... .. . P7C ... ... : ... .. . P84 ... ...
ROW 62 : ... .. . ... ... ... : ... .. . P80 ... ... : ... .. . ... ... ... : ... .. . ... ... ... : ... .. . ... ... ... : ... .. . P7E ... ... : ... .. . ... ... ... : ... .. . ... ... ...
ROW 63 : ... .. . ... ... ... : ... .. . P7D ... ... : ... .. . ... ... ... : ... .. . ... ... ... : ... .. . ... ... ... : ... .. . P80 ... ... : ... .. . P7D ... ... : ... .. . P83 ... ...
ROW 64 : ... .. . ... ... ... : ... .. . P7C ... ... : ... .. . ... ... ... : ... .. . ... ... ... : ... .. . ... ... ... : ... .. . P82 ... ... : ... .. . P80 ... ... : ... .. . P80 ... ...
ROW 65 : ... .. . ... ... ... : ... .. . ... ... ... : ... .. . ... ... ... : ... .. . ... ... ... : ... .. . ... ... ... : ... .. . P84 ... ... : ... .. . P81 ... ... : ... .. . P7F ... ...
ROW 66 : ... .. . ... ... ... : ... .. . P7E ... ... : ... .. . ... ... ... : ... .. . ... ... ... : ... .. . ... ... ... : ... .. . ... ... ... : ... .. . P84 ... ... : ... .. . P7C ... ...
ROW 67 : ... .. . ... ... ... : ... .. . P80 ... ... : ... .. . ... ... ... : ... .. . ... ... ... : ... .. . ... ... ... : ... .. . P83 ... ... : ... .. . ... ... ... : ... .. . ... ... ...
ROW 68 : ... .. . ... ... ... : ... .. . P82 ... ... : C#5 00 . P83 ... ... : A-# 00 7 ... ... ... : ... .. . ... ... ... : ... .. 1 P80 ... ... : B-2 06 1 P83 ... ... : ... .. . P7D ... ...
ROW 69 : ... .. . ... ... ... : ... .. . P84 ... ... : D-5 00 . P81 ... ... : ... .. 6 ... ... ... : ... .. . ... ... ... : ... .. . P7F ... ... : ... .. . P81 ... ... : ... .. . P7F ... ...
ROW 6A : ... .. . ... ... ... : ... .. . ... ... ... : D#5 00 . P7F ... ... : ... .. 5 ... ... ... : ... .. . ... ... ... : ... .. 3 P7C ... ... : ... .. 3 P80 ... ... : ... .. . P80 ... ...
ROW 6B : ... .. . ... ... ... : ... .. . P83 ... ... : ... .. . P80 ... ... : ... .. 4 ... ... ... : ... .. . ... ... ... : ... .. 4 ... ... ... : ... .. 4 P7D ... ... : ... .. . P83 ... ...
ROW 6C : G#3 00 8 ... ... ... : ... .. . P80 ... ... : ... .. . ... ... ... : --- .. . ... ... ... : ... .. . ... ... ... : ... .. . P7D ... ... : ... .. . P7C ... ... : ... .. . P84 ... ...
ROW 6D : ... .. . ... ... ... : ... .. . P7F ... ... : ... .. . ... ... ... : ... .. . ... ... ... : ... .. . ... ... ... : ... .. . P7F ... ... : ... .. . ... ... ... : ... .. . ... ... ...
ROW 6E : B-3 01 . ... ... ... : ... .. . P7C ... ... : ... .. . P7F ... ... : ... .. . ... ... ... : ... .. . ... ... ... : ... .. . P80 ... ... : ... .. . P7E ... ... : ... .. . P82 ... ...
ROW 6F : ... .. . ... ... ... : ... .. . ... ... ... : ... .. . ... ... ... : ... .. . ... ... ... : ... .. . ... ... ... : ... .. . P83 ... ... : ... .. . P80 ... ... : ... .. . P80 ... ...
ROW 70 : D#4 02 . ... ... ... : ... .. . P7D ... ... : ... .. . ... ... ... : ... .. . ... ... ... : ... .. . ... ... ... : ... .. . P84 ... ... : ... .. . P82 ... ... : ... .. . P7E ... ...
ROW 71 : ... .. . ... ... ... : ... .. . P7F ... ... : ... .. . P80 ... ... : ... .. . ... ... ... : ... .. . ... ... ... : ... .. . ... ... ... : ... .. . P84 ... ... : ... .. . P7C ... ...
ROW 72 : G#3 00 A ... ... ... : ... .. . P80 ... ... : ... .. . ... ... ... : ... .. . ... ... ... : ... .. . ... ... ... : ... .. . P82 ... ... : ... .. . ... ... ... : ... .. . ... ... ...
ROW 73 : B-3 00 . ... ... ... : ... .. . P83 ... ... : ... .. . P81 ... ... : ... .. . ... ... ... : ... .. . ... ... ... : ... .. . P80 ... ... : ... .. . P83 ... ... : ... .. . P7D ... ...
ROW 74 : D#4 01 . ... ... ... : ... .. . P84 ... ... : ... .. . ... ... ... : ... .. . ... ... ... : ... .. . ... ... ... : ... .. . P7E ... ... : ... .. . P80 ... ... : ... .. . P80 ... ...
ROW 75 : G#3 01 . ... ... ... : ... .. . ... ... ... : ... .. . ... ... ... : ... .. . ... ... ... : ... .. . ... ... ... : ... .. . P7C ... ... : ... .. . P7F ... ... : ... .. . P81 ... ...
ROW 76 : B-3 02 . ... ... ... : ... .. . P82 ... ... : ... .. . P80 ... ... : ... .. . ... ... ... : ... .. . ... ... ... : ... .. . ... ... ... : ... .. . P7C ... ... : ... .. . P84 ... ...
ROW 77 : D#4 02 . ... ... ... : ... .. . P80 ... ... : ... .. . ... ... ... : ... .. . ... ... ... : ... .. . ... ... ... : ... .. . P7D ... ... : ... .. . ... ... ... : ... .. . ... ... ...
ROW 78 : G#3 00 . ... ... ... : ... .. . P7E ... ... : ... .. . ... ... ... : ... .. . ... ... ... : ... .. . ... ... ... : ... .. . P80 ... ... : ... .. . P7D ... ... : ... .. . P83 ... ...
ROW 79 : B-3 00 8 ... ... ... : ... .. . P7C ... ... : ... .. . P7F ... ... : ... .. . ... ... ... : ... .. . ... ... ... : ... .. . P81 ... ... : ... .. . P7F ... ... : ... .. . P81 ... ...
ROW 7A : D#4 01 6 ... ... ... : ... .. . ... ... ... : ... .. . ... ... ... : ... .. . ... ... ... : ... .. . ... ... ... : ... .. . P84 ... ... : ... .. . P80 ... ... : ... .. . P80 ... ...
ROW 7B : G#3 01 3 ... ... ... : ... .. . P7D ... ... : ... .. . P80 ... ... : ... .. . ... ... ... : ... .. . ... ... ... : ... .. . ... ... ... : ... .. . P83 ... ... : ... .. . P7D ... ...
ROW 7C : B-3 02 2 ... ... ... : ... .. . P80 ... ... : ... .. . ... ... ... : ... .. . ... ... ... : ... .. . ... ... ... : ... .. . P83 ... ... : ... .. . P84 ... ... : ... .. . P7C ... ...
ROW 7D : D#4 02 1 ... ... ... : ... .. . P81 ... ... : ... .. . ... ... ... : ... .. . ... ... ... : ... .. . ... ... ... : ... .. . P81 ... ... : ... .. . ... ... ... : ... .. . ... ... ...
ROW 7E : --- .. . ... ... ... : ... .. . P84 ... ... : ... .. . P81 ... ... : ... .. . ... ... ... : ... .. . ... ... ... : ... .. . P80 ... ... : ... .. . P82 ... ... : ... .. . P7E ... ...
ROW 7F : ... .. . ... ... ... : ... .. . ... ... ... : ... .. . ... ... ... : ... .. . ... ... ... : ... .. . ... ... ... : ... .. . P7D ... ... : ... .. . P80 ... ... : ... .. . P80 ... ...
ROW 80 : ... .. . ... ... ... : ... .. . P83 ... ... : ... .. . ... ... ... : ... .. . ... ... ... : ... .. . ... ... ... : ... .. . P7C ... ... : ... .. . P7E ... ... : ... .. . P82 ... ...
ROW 81 : ... .. . ... ... ... : ... .. . P81 ... ... : ... .. . P80 ... ... : ... .. . ... ... ... : ... .. . ... ... ... : ... .. . ... ... ... : ... .. . P7C ... ... : ... .. . P84 ... ...
ROW 82 : ... .. . ... ... ... : ... .. . P80 ... ... : ... .. . ... ... ... : ... .. . ... ... ... : ... .. . ... ... ... : ... .. . P7E ... ... : ... .. . ... ... ... : ... .. . ... ... ...
ROW 83 : ... .. . ... ... ... : ... .. . P7D ... ... : ... .. . P7F ... ... : ... .. . ... ... ... : ... .. . ... ... ... : ... .. . P80 ... ... : ... .. . P7D ... ... : ... .. . P83 ... ...
ROW 84 : G#3 00 8 ... ... ... : ... .. . P7C ... ... : ... .. . ... ... ... : ... .. . ... ... ... : ... .. . ... ... ... : ... .. . P82 ... ... : ... .. . P80 ... ... : ... .. . P80 ... ...
ROW 85 : ... .. . ... ... ... : ... .. . ... ... ... : ... .. . ... ... ... : ... .. . ... ... ... : ... .. . ... ... ... : ... .. . P84 ... ... : ... .. . P81 ... ... : ... .. . P7F ... ...
ROW 86 : B-3 01 . ... ... ... : ... .. . P7E ... ... : --- .. . ... ... ... : ... .. . ... ... ... : ... .. . ... ... ... : ... .. . ... ... ... : ... .. . P84 ... ... : ... .. . P7C ... ...
ROW 87 : ... .. 6 ... ... ... : ... .. . P80 ... ... : ... .. . ... ... ... : ... .. . ... ... ... : ... .. . ... ... ... : ... .. . P83 ... ... : ... .. . ... ... ... : ... .. . ... ... ...
ROW 88 : D#4 02 4 ... ... ... : E-3 01 1 P82 ... ... : ... .. . ... ... ... : ... .. . ... ... ... : E-1 0A . ... ... ... : ... .. . P80 ... ... : ... .. . P83 ... ... : ... .. . P7D ... ...
ROW 89 : ... .. 2 ... ... ... : ... .. . P84 ... ... : ... .. . ... ... ... : ... .. . ... ... ... : ... .. . ... ... ... : ... .. . P7F ... ... : ... .. . P81 ... ... : ... .. . P7F ... ...
ROW 8A : G#3 00 1 ... ... ... : ... .. 3 ... ... ... : ... .. . ... ... ... : ... .. . ... ... ... : ... .. . ... ... ... : ... .. . P7C ... ... : ... .. . P80 ... ... : ... .. . P80 ... ...
ROW 8B : B-3 00 . ... ... ... : ... .. 4 P83 ... ... : ... .. . ... ... ... : ... .. . ... ... ... : ... .. . ... ... ... : ... .. . ... ... ... : ... .. . P7D ... ... : ... .. . P83 ... ...
ROW 8C : --- .. . ... ... ... : ... .. . P80 ... ... : D#5 00 . P80 ... ... : A-# 00 7 ... ... ... : ... .. . ... ... ... : ... .. . P7D ... ... : ... .. . P7C ... ... : ... .. . P84 ... ...
ROW 8D : ... .. . ... ... ... : ... .. . P7F ... ... : ... .. . ... ... ... : ... .. 6 ... ... ... : ... .. . ... ... ... : ... .. . P7F ... ... : ... .. . ... ... ... : ... .. . ... ... ...
ROW 8E : ... .. . ... ... ... : ... .. . P7C ... ... : ... .. . P7F ... ... : ... .. 5 ... ... ... : ... .. . ... ... ... : ... .. . P80 ... ... : ... .. . P7E ... ... : ... .. . P82 ... ...
ROW 8F : ... .. . ... ... ... : ... .. . ... ... ... : ... .. . ... ... ... : ... .. 4 ... ... ... : ... .. . ... ... ... : ... .. . P83 ... ... : ... .. . P80 ... ... : ... .. . P80 ... ...
ROW 90 : G#3 00 8 ... ... ... : ... .. . P7D ... ... : ... .. . ... ... ... : --- .. . ... ... ... : ... .. . ... ... ... : ... .. . P84 ... ... : ... .. . P82 ... ... : ... .. . P7E ... ...
ROW 91 : ... .. . ... ... ... : ... .. . P7F ... ... : ... .. . P80 ... ... : ... .. . ... ... ... : ... .. . ... ... ... : ... .. . ... ... ... : ... .. . P84 ... ... : ... .. . P7C ... ...
ROW 92 : B-3 01 . ... ... ... : ... .. . P80 ... ... : ... .. . ... ... ... : ... .. . ... ... ... : ... .. . ... ... ... : ... .. . P82 ... ... : ... .. . ... ... ... : ... .. . ... ... ...
ROW 93 : ... .. . ... ... ... : ... .. . P83 ... ... : ... .. . P81 ... ... : ... .. . ... ... ... : ... .. . ... ... ... : ... .. . P80 ... ... : ... .. . P83 ... ... : ... .. . P7D ... ...
ROW 94 : D#4 02 . ... ... ... : ... .. . P84 ... ... : ... .. . ... ... ... : ... .. . ... ... ... : ... .. . ... ... ... : ... .. . P7E ... ... : ... .. . P80 ... ... : ... .. . P80 ... ...
ROW 95 : ... .. . ... ... ... : ... .. . ... ... ... : ... .. . ... ... ... : ... .. . ... ... ... : ... .. . ... ... ... : ... .. . P7C ... ... : ... .. . P7F ... ... : ... .. . P81 ... ...
ROW 96 : --- .. . ... ... ... : ... .. . P82 ... ... : ... .. . P80 ... ... : ... .. . ... ... ... : ... .. . ... ... ... : ... .. . ... ... ... : ... .. . P7C ... ... : ... .. . P84 ... ...
ROW 97 : ... .. . ... ... ... : ... .. . P80 ... ... : ... .. . ... ... ... : ... .. . ... ... ... : ... .. . ... ... ... : ... .. . P7D ... ... : ... .. . ... ... ... : ... .. . ... ... ...
ROW 98 : ... .. . ... ... ... : ... .. . P7E ... ... : E-5 00 . ... ... ... : C-# 00 7 ... ... ... : ... .. . ... ... ... : ... .. . P80 ... ... : C#3 06 1 P7D ... ... : ... .. . P83 ... ...
ROW 99 : ... .. . ... ... ... : ... .. . P7C ... ... : ... .. . P7F ... ... : ... .. 6 ... ... ... : ... .. . ... ... ... : ... .. . P81 ... ... : ... .. . P7F ... ... : ... .. . P81 ... ...
ROW 9A : ... .. . ... ... ... : ... .. . ... ... ... : ... .. . ... ... ... : ... .. 5 ... ... ... : ... .. . ... ... ... : ... .. . P84 ... ... : ... .. 3 P80 ... ... : ... .. . P80 ... ...
ROW 9B : ... .. . ... ... ... : ... .. . P7D ... ... : ... .. . P80 ... ... : ... .. 4 ... ... ... : ... .. . ... ... ... : ... .. . ... ... ... : ... .. 4 P83 ... ... : ... .. . P7D ... ...
ROW 9C : G#3 00 . ... ... ... : ... .. . P80 ... ... : ... .. . ... ... ... : --- .. . ... ... ... : ... .. . ... ... ... : ... .. . P83 ... ... : ... .. . P84 ... ... : ... .. . P7C ... ...
ROW 9D : ... .. . ... ... ... : ... .. . P81 ... ... : ... .. . ... ... ... : ... .. . ... ... ... : ... .. . ... ... ... : ... .. . P81 ... ... : ... .. . ... ... ... : ... .. . ... ... ...
ROW 9E : B-3 01 . ... ... ... : ... .. . P84 ... ... : ... .. . P81 ... ... : ... .. . ... ... ... : ... .. . ... ... ... : ... .. . P80 ... ... : ... .. . P82 ... ... : ... .. . P7E ... ...
ROW 9F : ... .. . ... ... ... : ... .. . ... ... ... : ... .. . ... ... ... : ... .. . ... ... ... : ... .. . ... ... ... : ... .. . P7D ... ... : ... .. . P80 ... ... : ... .. . P80 ... ...
ROW A0 : D#4 02 . ... ... ... : ... .. . P83 ... ... : ... .. . ... ... ... : ... .. . ... ... ... : ... .. . ... ... ... : ... .. . P7C ... ... : ... .. . P7E ... ... : ... .. . P82 ... ...
ROW A1 : ... .. . ... ... ... : ... .. . P81 ... ... : ... .. . P80 ... ... : ... .. . ... ... ... : ... .. . ... ... ... : ... .. . ... ... ... : ... .. . P7C ... ... : ... .. . P84 ... ...
ROW A2 : G#3 00 A ... ... ... : ... .. . P80 ... ... : ... .. . ... ... ... : ... .. . ... ... ... : ... .. . ... ... ... : ... .. . P7E ... ... : ... .. . ... ... ... : ... .. . ... ... ...
ROW A3 : B-3 00 . ... ... ... : ... .. . P7D ... ... : ... .. . P7F ... ... : ... .. . ... ... ... : ... .. . ... ... ... : ... .. . P80 ... ... : ... .. . P7D ... ... : ... .. . P83 ... ...
ROW A4 : D#4 01 . ... ... ... : ... .. . P7C ... ... : D#5 00 . ... ... ... : ... .. . ... ... ... : ... .. . ... ... ... : ... .. . P82 ... ... : ... .. . P80 ... ... : ... .. . P80 ... ...
ROW A5 : G#3 01 . ... ... ... : ... .. . ... ... ... : ... .. . ... ... ... : ... .. . ... ... ... : ... .. . ... ... ... : ... .. . P84 ... ... : ... .. . P81 ... ... : ... .. . P7F ... ...
ROW A6 : B-3 02 . ... ... ... : ... .. . P7E ... ... : ... .. . P80 ... ... : ... .. . ... ... ... : ... .. . ... ... ... : ... .. . ... ... ... : ... .. . P84 ... ... : ... .. . P7C ... ...
ROW A7 : D#4 02 . ... ... ... : ... .. . P80 ... ... : ... .. . ... ... ... : ... .. . ... ... ... : ... .. . ... ... ... : ... .. . P83 ... ... : ... .. . ... ... ... : ... .. . ... ... ...
ROW A8 : F#3 00 8 ... ... ... : ... .. . P82 ... ... : ... .. . ... ... ... : ... .. . ... ... ... : ... .. . ... ... ... : ... .. . P80 ... ... : ... .. . P83 ... ... : ... .. . P7D ... ...
ROW A9 : ... .. . ... ... ... : ... .. . P84 ... ... : ... .. . P81 ... ... : ... .. . ... ... ... : ... .. . ... ... ... : ... .. . P7F ... ... : ... .. . P81 ... ... : ... .. . P7F ... ...
ROW AA : C#4 00 . ... ... ... : ... .. . ... ... ... : ... .. . ... ... ... : ... .. . ... ... ... : ... .. . ... ... ... : ... .. . P7C ... ... : ... .. . P80 ... ... : ... .. . P80 ... ...
ROW AB : F#3 00 . ... ... ... : ... .. . P83 ... ... : ... .. . P80 ... ... : ... .. . ... ... ... : ... .. . ... ... ... : ... .. . ... ... ... : ... .. . P7D ... ... : ... .. . P83 ... ...
ROW AC : ... .. . ... ... ... : ... .. . P80 ... ... : ... .. . ... ... ... : ... .. . ... ... ... : F-1 0A . ... ... ... : ... .. . P7D ... ... : ... .. . P7C ... ... : ... .. . P84 ... ...
ROW AD : C#4 00 . ... ... ... : ... .. . P7F ... ... : ... .. . ... ... ... : ... .. . ... ... ... : ... .. . ... ... ... : ... .. . P7F ... ... : ... .. . ... ... ... : ... .. . ... ... ...
ROW AE : F#3 00 A ... ... ... : ... .. . P7C ... ... : ... .. . P7F ... ... : ... .. . ... ... ... : ... .. . ... ... ... : ... .. . P80 ... ... : ... .. . P7E ... ... : ... .. . P82 ... ...
ROW AF : F#3 01 . ... ... ... : ... .. . ... ... ... : ... .. . ... ... ... : ... .. . ... ... ... : ... .. . ... ... ... : ... .. . P83 ... ... : ... .. . P80 ... ... : ... .. . P80 ... ...
ROW B0 : C#4 01 . ... ... ... : ... .. . P7D ... ... : C#5 00 . ... ... ... : ... .. . ... ... ... : ... .. . ... ... ... : ... .. . P84 ... ... : ... .. . P82 ... ... : ... .. . P7E ... ...
ROW B1 : F#3 01 . ... ... ... : ... .. . P7F ... ... : ... .. . P80 ... ... : ... .. . ... ... ... : ... .. . ... ... ... : ... .. . ... ... ... : ... .. . P84 ... ... : ... .. . P7C ... ...
ROW B2 : ... .. . ... ... ... : ... .. . P80 ... ... : ... .. . ... ... ... : ... .. . ... ... ... : ... .. . ... ... ... : ... .. . P82 ... ... : ... .. . ... ... ... : ... .. . ... ... ...
ROW B3 : C#4 02 . ... ... ... : ... .. . P83 ... ... : ... .. . P81 ... ... : ... .. . ... ... ... : ... .. . ... ... ... : ... .. . P80 ... ... : ... .. . P83 ... ... : ... .. . P7D ... ...
ROW B4 : F#3 02 . ... ... ... : ... .. . P84 ... ... : ... .. . ... ... ... : ... .. . ... ... ... : ... .. . ... ... ... : ... .. . P7E ... ... : ... .. . P80 ... ... : ... .. . P80 ... ...
ROW B5 : ... .. 9 ... ... ... : ... .. . ... ... ... : ... .. . ... ... ... : ... .. . ... ... ... : ... .. . ... ... ... : ... .. . P7C ... ... : ... .. . P7F ... ... : ... .. . P81 ... ...
ROW B6 : C#4 02 8 ... ... ... : ... .. . P82 ... ... : ... .. . P80 ... ... : ... .. . ... ... ... : ... .. . ... ... ... : ... .. . ... ... ... : ... .. . P7C ... ... : ... .. . P84 ... ...
ROW B7 : F#3 02 . ... ... ... : ... .. . P80 ... ... : ... .. . ... ... ... : ... .. . ... ... ... : ... .. . ... ... ... : ... .. . P7D ... ... : ... .. . ... ... ... : ... .. . ... ... ...
ROW B8 : ... .. 7 ... ... ... : ... .. . P7E ... ... : ... .. . ... ... ... : ... .. . ... ... ... : C-1 0A . ... ... ... : ... .. . P80 ... ... : ... .. . P7D ... ... : A#1 03 . P83 ... ...
ROW B9 : C#4 02 6 ... ... ... : ... .. . P7C ... ... : ... .. . P7F ... ... : ... .. . ... ... ... : ... .. . ... ... ... : ... .. . P81 ... ... : ... .. . P7F ... ... : ... .. . P81 ... ...
ROW BA : F#3 02 4 ... ... ... : ... .. . ... ... ... : ... .. . ... ... ... : ... .. . ... ... ... : ... .. . ... ... ... : ... .. . P84 ... ... : ... .. . P80 ... ... : ... .. . P80 ... ...
ROW BB : ... .. . ... ... ... : ... .. . P7D ... ... : ... .. . P80 ... ... : ... .. . ... ... ... : ... .. . ... ... ... : ... .. . ... ... ... : ... .. . P83 ... ... : ... .. . P7D ... ...
ROW BC : C#4 02 2 ... ... ... : ... .. . P80 ... ... : B-4 00 . ... ... ... : ... .. . ... ... ... : ... .. . ... ... ... : ... .. . P83 ... ... : ... .. . P84 ... ... : ... .. . P7C ... ...
ROW BD : F#3 02 . ... ... ... : ... .. . P81 ... ... : ... .. . ... ... ... : ... .. . ... ... ... : ... .. . ... ... ... : ... .. . P81 ... ... : ... .. . ... ... ... : ... .. . ... ... ...
ROW BE : ... .. 1 ... ... ... : ... .. . P84 ... ... : ... .. . P81 ... ... : ... .. . ... ... ... : ... .. . ... ... ... : ... .. . P80 ... ... : ... .. . P82 ... ... : ... .. . P7E ... ...
ROW BF : C#4 02 . ... ... ... : ... .. . ... ... ... : ... .. . ... ... ... : ... .. . ... ... ... : ... .. . ... ... ... : ... .. . P7D ... ... : ... .. . P80 ... ... : ... .. . P80 ... ...
ROW C0 : F#3 02 . ... ... ... : ... .. . P83 ... ... : ... .. . ... ... ... : ... .. . ... ... ... : ... .. . ... ... ... : ... .. . P7C ... ... : ... .. . P7E ... ... : ... .. . P82 ... ...
ROW C1 : --- .. . ... ... ... : ... .. . P81 ... ... : ... .. . P80 ... ... : ... .. . ... ... ... : ... .. . ... ... ... : ... .. . ... ... ... : ... .. . P7C ... ... : ... .. . P84 ... ...
ROW C2 : ... .. . ... ... ... : ... .. . P80 ... ... : ... .. . ... ... ... : ... .. . ... ... ... : ... .. . ... ... ... : ... .. . P7E ... ... : ... .. . ... ... ... : ... .. . ... ... ...
ROW C3 : ... .. . ... ... ... : ... .. . P7D ... ... : ... .. . P7F ... ... : ... .. . ... ... ... : ... .. . ... ... ... : ... .. . P80 ... ... : ... .. . P7D ... ... : ... .. . P83 ... ...
ROW C4 : ... .. . ... ... ... : ... .. . P7C ... ... : ... .. . ... ... ... : ... .. . ... ... ... : ... .. . ... ... ... : ... .. . P82 ... ... : ... .. . P80 ... ... : ... .. . P80 ... ...
ROW C5 : ... .. . ... ... ... : ... .. . ... ... ... : ... .. . ... ... ... : ... .. . ... ... ... : ... .. . ... ... ... : ... .. . P84 ... ... : ... .. . P81 ... ... : ... .. . P7F ... ...
ROW C6 : ... .. . ... ... ... : ... .. . P7E ... ... : ... .. . P80 ... ... : ... .. . ... ... ... : ... .. . ... ... ... : ... .. . ... ... ... : ... .. . P84 ... ... : ... .. . P7C ... ...
ROW C7 : ... .. . ... ... ... : ... .. . P80 ... ... : ... .. . ... ... ... : ... .. . ... ... ... : ... .. . ... ... ... : ... .. . P83 ... ... : ... .. . ... ... ... : ... .. . ... ... ...
ROW C8 : ... .. . ... ... ... : ... .. . P82 ... ... : A#4 00 . ... ... ... : A-# 00 7 ... ... ... : ... .. . ... ... ... : A#3 06 1 P80 ... ... : ... .. . P83 ... ... : ... .. . P7D ... ...
ROW C9 : ... .. . ... ... ... : ... .. . P84 ... ... : ... .. . P81 ... ... : ... .. 6 ... ... ... : ... .. . ... ... ... : ... .. . P7F ... ... : ... .. . P81 ... ... : ... .. . P7F ... ...
ROW CA : ... .. . ... ... ... : ... .. . ... ... ... : ... .. . ... ... ... : ... .. 5 ... ... ... : ... .. . ... ... ... : ... .. 3 P7C ... ... : ... .. . P80 ... ... : ... .. . P80 ... ...
ROW CB : ... .. . ... ... ... : ... .. . P83 ... ... : ... .. . P80 ... ... : ... .. 4 ... ... ... : ... .. . ... ... ... : ... .. 4 ... ... ... : ... .. . P7D ... ... : ... .. . P83 ... ...
ROW CC : G#3 00 8 ... ... ... : ... .. . P80 ... ... : ... .. . ... ... ... : --- .. . ... ... ... : ... .. . ... ... ... : ... .. . P7D ... ... : ... .. . P7C ... ... : ... .. . P84 ... ...
ROW CD : ... .. . ... ... ... : ... .. . P7F ... ... : ... .. . ... ... ... : ... .. . ... ... ... : ... .. . ... ... ... : ... .. . P7F ... ... : ... .. . ... ... ... : ... .. . ... ... ...
ROW CE : D#4 00 . ... ... ... : ... .. . P7C ... ... : ... .. . P7F ... ... : ... .. . ... ... ... : ... .. . ... ... ... : ... .. . P80 ... ... : ... .. . P7E ... ... : ... .. . P82 ... ...
ROW CF : G#3 00 . ... ... ... : ... .. . ... ... ... : ... .. . ... ... ... : ... .. . ... ... ... : ... .. . ... ... ... : ... .. . P83 ... ... : ... .. . P80 ... ... : ... .. . P80 ... ...
ROW D0 : ... .. . ... ... ... : ... .. . P7D ... ... : ... .. . ... ... ... : ... .. . ... ... ... : ... .. . ... ... ... : ... .. . P84 ... ... : ... .. . P82 ... ... : ... .. . P7E ... ...
ROW D1 : D#4 00 . ... ... ... : ... .. . P7F ... ... : ... .. . P80 ... ... : ... .. . ... ... ... : ... .. . ... ... ... : ... .. . ... ... ... : ... .. . P84 ... ... : ... .. . P7C ... ...
ROW D2 : G#3 00 A ... ... ... : ... .. . P80 ... ... : ... .. . ... ... ... : ... .. . ... ... ... : ... .. . ... ... ... : ... .. . P82 ... ... : ... .. . ... ... ... : ... .. . ... ... ...
ROW D3 : G#3 01 . ... ... ... : ... .. . P83 ... ... : ... .. . P81 ... ... : ... .. . ... ... ... : ... .. . ... ... ... : ... .. . P80 ... ... : ... .. . P83 ... ... : ... .. . P7D ... ...
ROW D4 : D#4 01 . ... ... ... : ... .. . P84 ... ... : ... .. . ... ... ... : ... .. . ... ... ... : ... .. . ... ... ... : ... .. . P7E ... ... : ... .. . P80 ... ... : ... .. . P80 ... ...
ROW D5 : G#3 01 . ... ... ... : ... .. . ... ... ... : ... .. . ... ... ... : ... .. . ... ... ... : ... .. . ... ... ... : ... .. . P7C ... ... : ... .. . P7F ... ... : ... .. . P81 ... ...
ROW D6 : ... .. . ... ... ... : ... .. . P82 ... ... : ... .. . P80 ... ... : ... .. . ... ... ... : ... .. . ... ... ... : ... .. . ... ... ... : ... .. . P7C ... ... : ... .. . P84 ... ...
ROW D7 : D#4 02 . ... ... ... : ... .. . P80 ... ... : ... .. . ... ... ... : ... .. . ... ... ... : ... .. . ... ... ... : ... .. . P7D ... ... : ... .. . ... ... ... : ... .. . ... ... ...
ROW D8 : G#3 02 . ... ... ... : ... .. . P7E ... ... : ... .. . ... ... ... : ... .. . ... ... ... : ... .. . ... ... ... : ... .. . P80 ... ... : ... .. . P7D ... ... : ... .. . P83 ... ...
ROW D9 : ... .. 9 ... ... ... : ... .. . P7C ... ... : ... .. . P7F ... ... : ... .. . ... ... ... : ... .. . ... ... ... : ... .. . P81 ... ... : ... .. . P7F ... ... : ... .. . P81 ... ...
ROW DA : D#4 02 8 ... ... ... : ... .. . ... ... ... : ... .. . ... ... ... : ... .. . ... ... ... : ... .. . ... ... ... : ... .. . P84 ... ... : ... .. . P80 ... ... : ... .. . P80 ... ...
ROW DB : G#3 02 . ... ... ... : ... .. . P7D ... ... : ... .. . P80 ... ... : ... .. . ... ... ... : ... .. . ... ... ... : ... .. . ... ... ... : ... .. . P83 ... ... : ... .. . P7D ... ...
ROW DC : ... .. 7 ... ... ... : ... .. . P80 ... ... : ... .. . ... ... ... : ... .. . ... ... ... : E-1 0A . ... ... ... : ... .. . P83 ... ... : ... .. . P84 ... ... : ... .. . P7C ... ...
ROW DD : D#4 02 6 ... ... ... : ... .. . P81 ... ... : ... .. . ... ... ... : ... .. . ... ... ... : ... .. . ... ... ... : ... .. . P81 ... ... : ... .. . ... ... ... : ... .. . ... ... ...
ROW DE : G#3 02 4 ... ... ... : ... .. . P84 ... ... : ... .. . P81 ... ... : ... .. . ... ... ... : ... .. . ... ... ... : ... .. . P80 ... ... : ... .. . P82 ... ... : ... .. . P7E ... ...
ROW DF : ... .. . ... ... ... : ... .. . ... ... ... : ... .. . ... ... ... : ... .. . ... ... ... : ... .. . ... ... ... : ... .. . P7D ... ... : ... .. . P80 ... ... : ... .. . P80 ... ...
ROW E0 : D#4 02 2 ... ... ... : ... .. . P83 ... ... : F#5 00 . ... ... ... : A-# 00 7 ... ... ... : ... .. . ... ... ... : ... .. . P7C ... ... : ... .. . P7E ... ... : ... .. . P82 ... ...
ROW E1 : G#3 02 . ... ... ... : ... .. . P81 ... ... : ... .. . P80 ... ... : ... .. 6 ... ... ... : ... .. . ... ... ... : ... .. . ... ... ... : ... .. . P7C ... ... : ... .. . P84 ... ...
ROW E2 : ... .. 1 ... ... ... : ... .. . P80 ... ... : ... .. . ... ... ... : ... .. 5 ... ... ... : ... .. . ... ... ... : ... .. . P7E ... ... : ... .. . ... ... ... : ... .. . ... ... ...
ROW E3 : D#4 02 . ... ... ... : ... .. . P7D ... ... : ... .. . P7F ... ... : ... .. 4 ... ... ... : ... .. . ... ... ... : ... .. . P80 ... ... : ... .. . P7D ... ... : ... .. . P83 ... ...
ROW E4 : G#3 00 8 ... ... ... : ... .. . P7C ... ... : ... .. . ... ... ... : --- .. . ... ... ... : ... .. . ... ... ... : ... .. . P82 ... ... : ... .. . P80 ... ... : ... .. . P80 ... ...
ROW E5 : ... .. . ... ... ... : ... .. . ... ... ... : ... .. . ... ... ... : ... .. . ... ... ... : ... .. . ... ... ... : ... .. . P84 ... ... : ... .. . P81 ... ... : ... .. . P7F ... ...
ROW E6 : D#4 00 . ... ... ... : ... .. . P7E ... ... : ... .. . P80 ... ... : ... .. . ... ... ... : ... .. . ... ... ... : ... .. . ... ... ... : ... .. . P84 ... ... : ... .. . P7C ... ...
ROW E7 : G#3 00 7 ... ... ... : ... .. . P80 ... ... : ... .. . ... ... ... : ... .. . ... ... ... : ... .. . ... ... ... : ... .. . P83 ... ... : ... .. . ... ... ... : ... .. . ... ... ...
ROW E8 : ... .. 6 ... ... ... : F#3 01 1 P82 ... ... : ... .. . ... ... ... : ... .. . ... ... ... : ... .. . ... ... ... : ... .. . P80 ... ... : ... .. . P83 ... ... : ... .. . P7D ... ...
ROW E9 : D#4 00 . ... ... ... : ... .. . P84 ... ... : ... .. . P81 ... ... : ... .. . ... ... ... : ... .. . ... ... ... : ... .. . P7F ... ... : ... .. . P81 ... ... : ... .. . P7F ... ...
ROW EA : G#3 00 5 ... ... ... : ... .. 3 ... ... ... : ... .. . ... ... ... : ... .. . ... ... ... : ... .. . ... ... ... : ... .. . P7C ... ... : ... .. . P80 ... ... : ... .. . P80 ... ...
ROW EB : G#3 01 . ... ... ... : ... .. 4 P83 ... ... : ... .. . P80 ... ... : ... .. . ... ... ... : ... .. . ... ... ... : ... .. . ... ... ... : ... .. . P7D ... ... : ... .. . P83 ... ...
ROW EC : D#4 01 3 ... ... ... : ... .. . P80 ... ... : ... .. . ... ... ... : ... .. . ... ... ... : ... .. . ... ... ... : ... .. . P7D ... ... : ... .. . P7C ... ... : ... .. . P84 ... ...
ROW ED : G#3 01 . ... ... ... : ... .. . P7F ... ... : ... .. . ... ... ... : ... .. . ... ... ... : ... .. . ... ... ... : ... .. . P7F ... ... : ... .. . ... ... ... : ... .. . ... ... ...
ROW EE : ... .. 2 ... ... ... : ... .. . P7C ... ... : ... .. . P7F ... ... : ... .. . ... ... ... : ... .. . ... ... ... : ... .. . P80 ... ... : ... .. . P7E ... ... : ... .. . P82 ... ...
ROW EF : D#4 02 1 ... ... ... : ... .. . ... ... ... : ... .. . ... ... ... : ... .. . ... ... ... : ... .. . ... ... ... : ... .. . P83 ... ... : ... .. . P80 ... ... : ... .. . P80 ... ...
ROW F0 : G#3 00 8 ... ... ... : ... .. . P7D ... ... : ... .. . ... ... ... : ... .. . ... ... ... : ... .. . ... ... ... : ... .. . P84 ... ... : ... .. . P82 ... ... : ... .. . P7E ... ...
ROW F1 : ... .. . ... ... ... : ... .. . P7F ... ... : ... .. . P80 ... ... : ... .. . ... ... ... : ... .. . ... ... ... : ... .. . ... ... ... : ... .. . P84 ... ... : ... .. . P7C ... ...
ROW F2 : D#4 00 . ... ... ... : ... .. . P80 ... ... : ... .. . ... ... ... : ... .. . ... ... ... : ... .. . ... ... ... : ... .. . P82 ... ... : ... .. . ... ... ... : ... .. . ... ... ...
ROW F3 : G#3 00 . ... ... ... : ... .. . P83 ... ... : ... .. . P81 ... ... : ... .. . ... ... ... : ... .. . ... ... ... : ... .. . P80 ... ... : ... .. . P83 ... ... : ... .. . P7D ... ...
ROW F4 : ... .. . ... ... ... : ... .. . P84 ... ... : ... .. . ... ... ... : ... .. . ... ... ... : ... .. . ... ... ... : ... .. . P7E ... ... : ... .. . P80 ... ... : ... .. . P80 ... ...
ROW F5 : D#4 00 . ... ... ... : ... .. . ... ... ... : ... .. . ... ... ... : ... .. . ... ... ... : ... .. . ... ... ... : ... .. . P7C ... ... : ... .. . P7F ... ... : ... .. . P81 ... ...
ROW F6 : --- .. . ... ... ... : ... .. . P82 ... ... : ... .. . P80 ... ... : ... .. . ... ... ... : ... .. . ... ... ... : ... .. . ... ... ... : ... .. . P7C ... ... : ... .. . P84 ... ...
ROW F7 : ... .. . ... ... ... : ... .. . P80 ... ... : ... .. . ... ... ... : ... .. . ... ... ... : ... .. . ... ... ... : ... .. . P7D ... ... : ... .. . ... ... ... : ... .. . ... ... ...
ROW F8 : ... .. . ... ... ... : ... .. . P7E ... ... : D#5 00 . ... ... ... : C-# 00 7 ... ... ... : ... .. . ... ... ... : B-3 06 1 P80 ... ... : D#3 06 1 P7D ... ... : ... .. . P83 ... ...
ROW F9 : ... .. . ... ... ... : ... .. . P7C ... ... : ... .. . P7F ... ... : ... .. 6 ... ... ... : ... .. . ... ... ... : ... .. . P81 ... ... : ... .. . P7F ... ... : ... .. . P81 ... ...
ROW FA : ... .. . ... ... ... : ... .. . ... ... ... : ... .. . ... ... ... : ... .. 5 ... ... ... : ... .. . ... ... ... : ... .. 3 P84 ... ... : ... .. 3 P80 ... ... : ... .. . P80 ... ...
ROW FB : ... .. . ... ... ... : ... .. . P7D ... ... : ... .. . P80 ... ... : ... .. 4 ... ... ... : ... .. . ... ... ... : ... .. 4 ... ... ... : ... .. 4 P83 ... ... : ... .. . P7D ... ...
ROW FC : G#3 00 . ... ... ... : ... .. . P80 ... ... : ... .. . ... ... ... : --- .. . ... ... ... : ... .. . ... ... ... : ... .. . P83 ... ... : ... .. . P84 ... ... : ... .. . P7C ... ...
ROW FD : ... .. . ... ... ... : ... .. . P81 ... ... : ... .. . ... ... ... : ... .. . ... ... ... : ... .. . ... ... ... : ... .. . P81 ... ... : ... .. . ... ... ... : ... .. . ... ... ...
ROW FE : D#4 00 . ... ... ... : ... .. . P84 ... ... : ... .. . P81 ... ... : ... .. . ... ... ... : ... .. . ... ... ... : ... .. . P80 ... ... : ... .. . P82 ... ... : ... .. . P7E ... ...
ROW FF : G#3 00 . ... ... ... : ... .. . ... ... ... : ... .. . ... ... ... : ... .. . ... ... ... : ... .. . ... ... ... : ... .. . P7D ... ... : ... .. . P80 ... ... : ... .. . P80 ... ...

PATTERN 08
ROW 00 : ... .. . ... ... ... : ... .. . P83 ... ... : ... .. . ... ... ... : ... .. . ... ... ... : F-1 0A . ... ... ... : ... .. . P7C ... ... : ... .. . P7E ... ... : ... .. . P82 ... ...
ROW 01 : D#4 00 . ... ... ... : ... .. . P81 ... ... : ... .. . P80 ... ... : ... .. . ... ... ... : ... .. . ... ... ... : ... .. . ... ... ... : ... .. . P7C ... ... : ... .. . P84 ... ...
ROW 02 : G#3 00 A ... ... ... : ... .. . P80 ... ... : ... .. . ... ... ... : ... .. . ... ... ... : ... .. . ... ... ... : ... .. . P7E ... ... : ... .. . ... ... ... : ... .. . ... ... ...
ROW 03 : G#3 01 . ... ... ... : ... .. . P7D ... ... : ... .. . P7F ... ... : ... .. . ... ... ... : ... .. . ... ... ... : ... .. . P80 ... ... : ... .. . P7D ... ... : ... .. . P83 ... ...
ROW 04 : D#4 01 . ... ... ... : ... .. . P7C ... ... : ... .. . ... ... ... : ... .. . ... ... ... : ... .. . ... ... ... : ... .. . P82 ... ... : ... .. . P80 ... ... : ... .. . P80 ... ...
ROW 05 : G#3 01 . ... ... ... : ... .. . ... ... ... : ... .. . ... ... ... : ... .. . ... ... ... : ... .. . ... ... ... : ... .. . P84 ... ... : ... .. . P81 ... ... : ... .. . P7F ... ...
ROW 06 : ... .. . ... ... ... : ... .. . P7E ... ... : ... .. . P80 ... ... : ... .. . ... ... ... : ... .. . ... ... ... : ... .. . ... ... ... : ... .. . P84 ... ... : ... .. . P7C ... ...
ROW 07 : D#4 02 . ... ... ... : ... .. . P80 ... ... : ... .. . ... ... ... : ... .. . ... ... ... : ... .. . ... ... ... : ... .. . P83 ... ... : ... .. . ... ... ... : ... .. . ... ... ...
ROW 08 : F#3 00 8 ... ... ... : ... .. . P82 ... ... : ... .. . ... ... ... : ... .. . ... ... ... : ... .. . ... ... ... : ... .. . P80 ... ... : ... .. . P83 ... ... : ... .. . P7D ... ...
ROW 09 : ... .. . ... ... ... : ... .. . P84 ... ... : ... .. . P81 ... ... : ... .. . ... ... ... : ... .. . ... ... ... : ... .. . P7F ... ... : ... .. . P81 ... ... : ... .. . P7F ... ...
ROW 0A : C#4 00 . ... ... ... : ... .. . ... ... ... : ... .. . ... ... ... : ... .. . ... ... ... : ... .. . ... ... ... : ... .. . P7C ... ... : ... .. . P80 ... ... : ... .. . P80 ... ...
ROW 0B : F#3 00 . ... ... ... : ... .. . P83 ... ... : ... .. . P80 ... ... : ... .. . ... ... ... : ... .. . ... ... ... : ... .. . ... ... ... : ... .. . P7D ... ... : ... .. . P83 ... ...
ROW 0C : ... .. . ... ... ... : ... .. . P80 ... ... : ... .. . ... ... ... : ... .. . ... ... ... : C-1 0A . ... ... ... : ... .. . P7D ... ... : ... .. . P7C ... ... : ... .. . P84 ... ...
ROW 0D : C#4 00 . ... ... ... : ... .. . P7F ... ... : ... .. . ... ... ... : ... .. . ... ... ... : ... .. . ... ... ... : ... .. . P7F ... ... : ... .. . ... ... ... : ... .. . ... ... ...
ROW 0E : F#3 00 A ... ... ... : ... .. . P7C ... ... : ... .. . P7F ... ... : ... .. . ... ... ... : ... .. . ... ... ... : ... .. . P80 ... ... : ... .. . P7E ... ... : ... .. . P82 ... ...
ROW 0F : F#3 01 . ... ... ... : ... .. . ... ... ... : ... .. . ... ... ... : ... .. . ... ... ... : ... .. . ... ... ... : ... .. . P83 ... ... : ... .. . P80 ... ... : ... .. . P80 ... ...
ROW 10 : C#4 01 . ... ... ... : ... .. . P7D ... ... : E-5 00 . ... ... ... : C-# 00 7 ... ... ... : ... .. . ... ... ... : ... .. . P84 ... ... : ... .. . P82 ... ... : ... .. . P7E ... ...
ROW 11 : F#3 01 . ... ... ... : ... .. . P7F ... ... : ... .. . P80 ... ... : ... .. 6 ... ... ... : ... .. . ... ... ... : ... .. . ... ... ... : ... .. . P84 ... ... : ... .. . P7C ... ...
ROW 12 : ... .. . ... ... ... : ... .. . P80 ... ... : ... .. . ... ... ... : ... .. 5 ... ... ... : ... .. . ... ... ... : ... .. . P82 ... ... : ... .. . ... ... ... : ... .. . ... ... ...
ROW 13 : C#4 02 . ... ... ... : ... .. . P83 ... ... : ... .. . P81 ... ... : ... .. 4 ... ... ... : ... .. . ... ... ... : ... .. . P80 ... ... : ... .. . P83 ... ... : ... .. . P7D ... ...
ROW 14 : F#3 02 . ... ... ... : ... .. . P84 ... ... : ... .. . ... ... ... : --- .. . ... ... ... : ... .. . ... ... ... : ... .. . P7E ... ... : ... .. . P80 ... ... : ... .. . P80 ... ...
ROW 15 : ... .. 9 ... ... ... : ... .. . ... ... ... : ... .. . ... ... ... : ... .. . ... ... ... : ... .. . ... ... ... : ... .. . P7C ... ... : ... .. . P7F ... ... : ... .. . P81 ... ...
ROW 16 : C#4 02 8 ... ... ... : ... .. . P82 ... ... : ... .. . P80 ... ... : ... .. . ... ... ... : ... .. . ... ... ... : ... .. . ... ... ... : ... .. . P7C ... ... : ... .. . P84 ... ...
ROW 17 : F#3 02 . ... ... ... : ... .. . P80 ... ... : ... .. . ... ... ... : ... .. . ... ... ... : ... .. . ... ... ... : ... .. . P7D ... ... : ... .. . ... ... ... : ... .. . ... ... ...
ROW 18 : ... .. 7 ... ... ... : B-2 01 1 P7E ... ... : ... .. . ... ... ... : ... .. . ... ... ... : ... .. . ... ... ... : ... .. . P80 ... ... : ... .. . P7D ... ... : G#1 03 . P83 ... ...
ROW 19 : C#4 02 6 ... ... ... : ... .. . P7C ... ... : ... .. . P7F ... ... : ... .. . ... ... ... : ... .. . ... ... ... : ... .. . P81 ... ... : ... .. . P7F ... ... : ... .. . P81 ... ...
ROW 1A : F#3 02 4 ... ... ... : ... .. 3 ... ... ... : ... .. . ... ... ... : ... .. . ... ... ... : ... .. . ... ... ... : ... .. . P84 ... ... : ... .. . P80 ... ... : ... .. . P80 ... ...
ROW 1B : ... .. . ... ... ... : ... .. 4 P7D ... ... : ... .. . P80 ... ... : ... .. . ... ... ... : ... .. . ... ... ... : ... .. . ... ... ... : ... .. . P83 ... ... : ... .. . P7D ... ...
ROW 1C : C#4 02 2 ... ... ... : ... .. . P80 ... ... : D#5 00 . ... ... ... : A-# 00 7 ... ... ... : ... .. . ... ... ... : ... .. . P83 ... ... : ... .. . P84 ... ... : ... .. . P7C ... ...
ROW 1D : F#3 02 . ... ... ... : ... .. . P81 ... ... : ... .. . ... ... ... : ... .. 6 ... ... ... : ... .. . ... ... ... : ... .. . P81 ... ... : ... .. . ... ... ... : ... .. . ... ... ...
ROW 1E : ... .. 1 ... ... ... : ... .. . P84 ... ... : ... .. . P81 ... ... : ... .. 5 ... ... ... : ... .. . ... ... ... : ... .. . P80 ... ... : ... .. . P82 ... ... : ... .. . P7E ... ...
ROW 1F : C#4 02 . ... ... ... : ... .. . ... ... ... : ... .. . ... ... ... : ... .. 4 ... ... ... : ... .. . ... ... ... : ... .. . P7D ... ... : ... .. . P80 ... ... : ... .. . P80 ... ...
ROW 20 : F#3 02 . ... ... ... : ... .. . P83 ... ... : ... .. . ... ... ... : --- .. . ... ... ... : ... .. . ... ... ... : ... .. . P7C ... ... : ... .. . P7E ... ... : ... .. . P82 ... ...
ROW 21 : --- .. . ... ... ... : ... .. . P81 ... ... : ... .. . P80 ... ... : ... .. . ... ... ... : ... .. . ... ... ... : ... .. . ... ... ... : ... .. . P7C ... ... : ... .. . P84 ... ...
ROW 22 : ... .. . ... ... ... : ... .. . P80 ... ... : ... .. . ... ... ... : ... .. . ... ... ... : ... .. . ... ... ... : ... .. . P7E ... ... : ... .. . ... ... ... : ... .. . ... ... ...
ROW 23 : ... .. . ... ... ... : ... .. . P7D ... ... : ... .. . P7F ... ... : ... .. . ... ... ... : ... .. . ... ... ... : ... .. . P80 ... ... : ... .. . P7D ... ... : ... .. . P83 ... ...
ROW 24 : ... .. . ... ... ... : ... .. . P7C ... ... : ... .. . ... ... ... : ... .. . ... ... ... : F-1 0A . ... ... ... : ... .. . P82 ... ... : ... .. . P80 ... ... : ... .. . P80 ... ...
ROW 25 : ... .. . ... ... ... : ... .. . ... ... ... : ... .. . ... ... ... : ... .. . ... ... ... : ... .. . ... ... ... : ... .. . P84 ... ... : ... .. . P81 ... ... : ... .. . P7F ... ...
ROW 26 : ... .. . ... ... ... : ... .. . P7E ... ... : ... .. . P80 ... ... : ... .. . ... ... ... : ... .. . ... ... ... : ... .. . ... ... ... : ... .. . P84 ... ... : ... .. . P7C ... ...
ROW 27 : ... .. . ... ... ... : ... .. . P80 ... ... : ... .. . ... ... ... : ... .. . ... ... ... : ... .. . ... ... ... : ... .. . P83 ... ... : ... .. . ... ... ... : ... .. . ... ... ...
ROW 28 : ... .. . ... ... ... : ... .. . P82 ... ... : ... .. . ... ... ... : ... .. . ... ... ... : ... .. . ... ... ... : A#3 06 1 P80 ... ... : C#3 06 1 P83 ... ... : ... .. . P7D ... ...
ROW 29 : ... .. . ... ... ... : ... .. . P84 ... ... : ... .. . P81 ... ... : ... .. . ... ... ... : ... .. . ... ... ... : ... .. . P7F ... ... : ... .. . P81 ... ... : ... .. . P7F ... ...
ROW 2A : ... .. . ... ... ... : ... .. . ... ... ... : ... .. . ... ... ... : ... .. . ... ... ... : ... .. . ... ... ... : ... .. 3 P7C ... ... : ... .. 3 P80 ... ... : ... .. . P80 ... ...
ROW 2B : ... .. . ... ... ... : ... .. . P83 ... ... : ... .. . P80 ... ... : ... .. . ... ... ... : ... .. . ... ... ... : ... .. 4 ... ... ... : ... .. 4 P7D ... ... : ... .. . P83 ... ...
ROW 2C : G#3 00 8 ... ... ... : ... .. . P80 ... ... : ... .. . ... ... ... : ... .. . ... ... ... : ... .. . ... ... ... : ... .. . P7D ... ... : ... .. . P7C ... ... : ... .. . P84 ... ...
ROW 2D : ... .. . ... ... ... : ... .. . P7F ... ... : ... .. . ... ... ... : ... .. . ... ... ... : ... .. . ... ... ... : ... .. . P7F ... ... : ... .. . ... ... ... : ... .. . ... ... ...
ROW 2E : G#3 01 . ... ... ... : ... .. . P7C ... ... : ... .. . P7F ... ... : ... .. . ... ... ... : ... .. . ... ... ... : ... .. . P80 ... ... : ... .. . P7E ... ... : ... .. . P82 ... ...
ROW 2F : ... .. . ... ... ... : ... .. . ... ... ... : ... .. . ... ... ... : ... .. . ... ... ... : ... .. . ... ... ... : ... .. . P83 ... ... : ... .. . P80 ... ... : ... .. . P80 ... ...
ROW 30 : D#4 02 . ... ... ... : ... .. . P7D ... ... : ... .. . ... ... ... : ... .. . ... ... ... : ... .. . ... ... ... : ... .. . P84 ... ... : ... .. . P82 ... ... : ... .. . P7E ... ...
ROW 31 : ... .. . ... ... ... : ... .. . P7F ... ... : ... .. . P80 ... ... : ... .. . ... ... ... : ... .. . ... ... ... : ... .. . ... ... ... : ... .. . P84 ... ... : ... .. . P7C ... ...
ROW 32 : G#3 00 A ... ... ... : ... .. . P80 ... ... : ... .. . ... ... ... : ... .. . ... ... ... : ... .. . ... ... ... : ... .. . P82 ... ... : ... .. . ... ... ... : ... .. . ... ... ...
ROW 33 : ... .. . ... ... ... : ... .. . P83 ... ... : ... .. . P81 ... ... : ... .. . ... ... ... : ... .. . ... ... ... : ... .. . P80 ... ... : ... .. . P83 ... ... : ... .. . P7D ... ...
ROW 34 : D#4 01 . ... ... ... : ... .. . P84 ... ... : C#5 00 . ... ... ... : C-# 00 7 ... ... ... : ... .. . ... ... ... : ... .. . P7E ... ... : ... .. . P80 ... ... : ... .. . P80 ... ...
ROW 35 : G#3 01 . ... ... ... : ... .. . ... ... ... : ... .. . ... ... ... : ... .. 6 ... ... ... : ... .. . ... ... ... : ... .. . P7C ... ... : ... .. . P7F ... ... : ... .. . P81 ... ...
ROW 36 : G#3 02 . ... ... ... : ... .. . P82 ... ... : ... .. . P80 ... ... : ... .. 5 ... ... ... : ... .. . ... ... ... : ... .. . ... ... ... : ... .. . P7C ... ... : ... .. . P84 ... ...
ROW 37 : D#4 02 . ... ... ... : ... .. . P80 ... ... : ... .. . ... ... ... : ... .. 4 ... ... ... : ... .. . ... ... ... : ... .. . P7D ... ... : ... .. . ... ... ... : ... .. . ... ... ...
ROW 38 : G#3 00 . ... ... ... : ... .. . P7E ... ... : ... .. . ... ... ... : --- .. . ... ... ... : ... .. . ... ... ... : ... .. . P80 ... ... : ... .. . P7D ... ... : ... .. . P83 ... ...
ROW 39 : ... .. 8 ... ... ... : ... .. . P7C ... ... : ... .. . P7F ... ... : ... .. . ... ... ... : ... .. . ... ... ... : ... .. . P81 ... ... : ... .. . P7F ... ... : ... .. . P81 ... ...
ROW 3A : D#4 01 6 ... ... ... : ... .. . ... ... ... : ... .. . ... ... ... : ... .. . ... ... ... : ... .. . ... ... ... : ... .. . P84 ... ... : ... .. . P80 ... ... : ... .. . P80 ... ...
ROW 3B : G#3 01 3 ... ... ... : ... .. . P7D ... ... : ... .. . P80 ... ... : ... .. . ... ... ... : ... .. . ... ... ... : ... .. . ... ... ... : ... .. . P83 ... ... : ... .. . P7D ... ...
ROW 3C : G#3 02 2 ... ... ... : ... .. . P80 ... ... : ... .. . ... ... ... : ... .. . ... ... ... : F-1 0A . ... ... ... : ... .. . P83 ... ... : ... .. . P84 ... ... : ... .. . P7C ... ...
ROW 3D : D#4 02 1 ... ... ... : ... .. . P81 ... ... : ... .. . ... ... ... : ... .. . ... ... ... : ... .. . ... ... ... : ... .. . P81 ... ... : ... .. . ... ... ... : ... .. . ... ... ...
ROW 3E : --- .. . ... ... ... : ... .. . P84 ... ... : ... .. . P81 ... ... : ... .. . ... ... ... : ... .. . ... ... ... : ... .. . P80 ... ... : ... .. . P82 ... ... : ... .. . P7E ... ...
ROW 3F : ... .. . ... ... ... : ... .. . ... ... ... : ... .. . ... ... ... : ... .. . ... ... ... : ... .. . ... ... ... : ... .. . P7D ... ... : ... .. . P80 ... ... : ... .. . P80 ... ...
ROW 40 : ... .. . ... ... ... : ... .. . P83 ... ... : ... .. . ... ... ... : ... .. . ... ... ... : ... .. . ... ... ... : ... .. . P7C ... ... : ... .. . P7E ... ... : ... .. . P82 ... ...
ROW 41 : ... .. . ... ... ... : ... .. . P81 ... ... : ... .. . P80 ... ... : ... .. . ... ... ... : ... .. . ... ... ... : ... .. . ... ... ... : ... .. . P7C ... ... : ... .. . P84 ... ...
ROW 42 : ... .. . ... ... ... : ... .. . P80 ... ... : ... .. . ... ... ... : ... .. . ... ... ... : ... .. . ... ... ... : ... .. . P7E ... ... : ... .. . ... ... ... : ... .. . ... ... ...
ROW 43 : ... .. . ... ... ... : ... .. . P7D ... ... : ... .. . P7F ... ... : ... .. . ... ... ... : ... .. . ... ... ... : ... .. . P80 ... ... : ... .. . P7D ... ... : ... .. . P83 ... ...
ROW 44 : G#3 00 8 ... ... ... : ... .. . P7C ... ... : ... .. . ... ... ... : ... .. . ... ... ... : ... .. . ... ... ... : ... .. . P82 ... ... : ... .. . P80 ... ... : ... .. . P80 ... ...
ROW 45 : ... .. . ... ... ... : ... .. . ... ... ... : ... .. . ... ... ... : ... .. . ... ... ... : ... .. . ... ... ... : ... .. . P84 ... ... : ... .. . P81 ... ... : ... .. . P7F ... ...
ROW 46 : G#3 01 . ... ... ... : ... .. . P7E ... ... : ... .. . P80 ... ... : ... .. . ... ... ... : ... .. . ... ... ... : ... .. . ... ... ... : ... .. . P84 ... ... : ... .. . P7C ... ...
ROW 47 : ... .. 6 ... ... ... : ... .. . P80 ... ... : ... .. . ... ... ... : ... .. . ... ... ... : ... .. . ... ... ... : ... .. . P83 ... ... : ... .. . ... ... ... : ... .. . ... ... ...
ROW 48 : D#4 02 4 ... ... ... : --- .. . ... ... ... : ... .. . ... ... ... : ... .. . ... ... ... : C-1 0A . ... ... ... : ... .. . P80 ... ... : ... .. . P83 ... ... : E-1 03 4 P7D ... ...
ROW 49 : ... .. 2 ... ... ... : ... .. . ... ... ... : ... .. . P81 ... ... : ... .. . ... ... ... : ... .. . ... ... ... : ... .. . P7F ... ... : ... .. . P81 ... ... : ... .. . P7F ... ...
ROW 4A : G#3 00 1 ... ... ... : ... .. . ... ... ... : ... .. . ... ... ... : ... .. . ... ... ... : ... .. . ... ... ... : ... .. . P7C ... ... : ... .. . P80 ... ... : ... .. . P80 ... ...
ROW 4B : ... .. . ... ... ... : ... .. . ... ... ... : ... .. . P80 ... ... : ... .. . ... ... ... : ... .. . ... ... ... : ... .. . ... ... ... : ... .. . P7D ... ... : ... .. . P83 ... ...
ROW 4C : --- .. . ... ... ... : ... .. . ... ... ... : ... .. . ... ... ... : ... .. . ... ... ... : ... .. . ... ... ... : ... .. . P7D ... ... : ... .. . P7C ... ... : ... .. . P84 ... ...
ROW 4D : ... .. . ... ... ... : ... .. . ... ... ... : ... .. . ... ... ... : ... .. . ... ... ... : ... .. . ... ... ... : ... .. . P7F ... ... : ... .. . ... ... ... : ... .. . ... ... ...
ROW 4E : ... .. . ... ... ... : ... .. . ... ... ... : ... .. . P7F ... ... : ... .. . ... ... ... : ... .. . ... ... ... : ... .. . P80 ... ... : ... .. . P7E ... ... : ... .. . P82 ... ...
ROW 4F : ... .. . ... ... ... : ... .. . ... ... ... : ... .. . ... ... ... : ... .. . ... ... ... : ... .. . ... ... ... : ... .. . P83 ... ... : ... .. . P80 ... ... : ... .. . P80 ... ...
ROW 50 : G#3 00 8 ... ... ... : ... .. . ... ... ... : ... .. . ... ... ... : ... .. . ... ... ... : ... .. . ... ... ... : ... .. . P84 ... ... : ... .. . P82 ... ... : ... .. . P7E ... ...
ROW 51 : ... .. . ... ... ... : ... .. . ... ... ... : ... .. . P80 ... ... : ... .. . ... ... ... : ... .. . ... ... ... : ... .. . ... ... ... : ... .. . P84 ... ... : ... .. . P7C ... ...
ROW 52 : G#3 01 . ... ... ... : ... .. . ... ... ... : ... .. . ... ... ... : ... .. . ... ... ... : ... .. . ... ... ... : ... .. . P82 ... ... : ... .. . ... ... ... : ... .. . ... ... ...
ROW 53 : ... .. . ... ... ... : ... .. . ... ... ... : ... .. . P81 ... ... : ... .. . ... ... ... : ... .. . ... ... ... : ... .. . P80 ... ... : ... .. . P83 ... ... : ... .. . P7D ... ...
ROW 54 : D#4 02 . ... ... ... : ... .. . ... ... ... : ... .. . ... ... ... : ... .. . ... ... ... : ... .. . ... ... ... : ... .. . P7E ... ... : ... .. . P80 ... ... : ... .. . P80 ... ...
ROW 55 : ... .. . ... ... ... : ... .. . ... ... ... : ... .. . ... ... ... : ... .. . ... ... ... : ... .. . ... ... ... : ... .. . P7C ... ... : ... .. . P7F ... ... : ... .. . P81 ... ...
ROW 56 : --- .. . ... ... ... : ... .. . ... ... ... : ... .. . P80 ... ... : ... .. . ... ... ... : ... .. . ... ... ... : ... .. . ... ... ... : ... .. . P7C ... ... : ... .. . P84 ... ...
ROW 57 : ... .. . ... ... ... : ... .. . ... ... ... : ... .. . ... ... ... : ... .. . ... ... ... : ... .. . ... ... ... : ... .. . P7D ... ... : ... .. . ... ... ... : ... .. . ... ... ...
ROW 58 : ... .. . ... ... ... : ... .. . ... ... ... : ... .. . P83 ... ... : A-# 00 7 ... ... ... : ... .. . ... ... ... : G#3 06 1 P80 ... ... : B-2 06 1 P7D ... ... : ... .. . P83 ... ...
ROW 59 : ... .. . ... ... ... : ... .. . ... ... ... : D-5 00 . P7F ... ... : ... .. 6 ... ... ... : ... .. . ... ... ... : ... .. . P81 ... ... : ... .. . P7F ... ... : ... .. . P81 ... ...
ROW 5A : ... .. . ... ... ... : ... .. . ... ... ... : ... .. . P82 ... ... : ... .. 5 ... ... ... : ... .. . ... ... ... : ... .. 3 P84 ... ... : ... .. 3 P80 ... ... : ... .. . P80 ... ...
ROW 5B : ... .. . ... ... ... : ... .. . ... ... ... : D#5 00 . P80 ... ... : ... .. 4 ... ... ... : ... .. . ... ... ... : ... .. 4 ... ... ... : ... .. 4 P83 ... ... : ... .. . P7D ... ...
ROW 5C : G#3 00 . ... ... ... : ... .. . ... ... ... : ... .. . ... ... ... : --- .. . ... ... ... : ... .. . ... ... ... : ... .. . P83 ... ... : ... .. . P84 ... ... : ... .. . P7C ... ...
ROW 5D : ... .. . ... ... ... : ... .. . ... ... ... : ... .. . ... ... ... : ... .. . ... ... ... : ... .. . ... ... ... : ... .. . P81 ... ... : ... .. . ... ... ... : ... .. . ... ... ...
ROW 5E : G#3 01 . ... ... ... : ... .. . ... ... ... : ... .. . P81 ... ... : ... .. . ... ... ... : ... .. . ... ... ... : ... .. . P80 ... ... : ... .. . P82 ... ... : ... .. . P7E ... ...
ROW 5F : ... .. . ... ... ... : ... .. . ... ... ... : ... .. . ... ... ... : ... .. . ... ... ... : ... .. . ... ... ... : ... .. . P7D ... ... : ... .. . P80 ... ... : ... .. . P80 ... ...
ROW 60 : D#4 02 . ... ... ... : ... .. . ... ... ... : ... .. . ... ... ... : ... .. . ... ... ... : D#1 0A . ... ... ... : ... .. . P7C ... ... : ... .. . P7E ... ... : ... .. . P82 ... ...
ROW 61 : ... .. . ... ... ... : ... .. . ... ... ... : ... .. . P80 ... ... : ... .. . ... ... ... : ... .. . ... ... ... : ... .. . ... ... ... : ... .. . P7C ... ... : ... .. . P84 ... ...
ROW 62 : G#3 00 A ... ... ... : ... .. . ... ... ... : ... .. . ... ... ... : ... .. . ... ... ... : ... .. . ... ... ... : ... .. . P7E ... ... : ... .. . ... ... ... : ... .. . ... ... ...
ROW 63 : ... .. . ... ... ... : ... .. . ... ... ... : ... .. . P7F ... ... : ... .. . ... ... ... : ... .. . ... ... ... : ... .. . P80 ... ... : ... .. . P7D ... ... : ... .. . P83 ... ...
ROW 64 : D#4 01 . ... ... ... : ... .. . ... ... ... : ... .. . ... ... ... : ... .. . ... ... ... : ... .. . ... ... ... : ... .. . P82 ... ... : ... .. . P80 ... ... : ... .. . P80 ... ...
ROW 65 : G#3 01 . ... ... ... : ... .. . ... ... ... : ... .. . ... ... ... : ... .. . ... ... ... : ... .. . ... ... ... : ... .. . P84 ... ... : ... .. . P81 ... ... : ... .. . P7F ... ...
ROW 66 : G#3 02 . ... ... ... : ... .. . ... ... ... : ... .. . P80 ... ... : ... .. . ... ... ... : ... .. . ... ... ... : ... .. . ... ... ... : ... .. . P84 ... ... : --- .. . ... ... ...
ROW 67 : D#4 02 . ... ... ... : ... .. . ... ... ... : ... .. . ... ... ... : ... .. . ... ... ... : ... .. . ... ... ... : ... .. . P83 ... ... : ... .. . ... ... ... : ... .. . ... ... ...
ROW 68 : F#3 00 8 ... ... ... : ... .. . ... ... ... : ... .. . ... ... ... : ... .. . ... ... ... : ... .. . ... ... ... : ... .. . P80 ... ... : ... .. . P83 ... ... : ... .. . ... ... ...
ROW 69 : ... .. . ... ... ... : ... .. . ... ... ... : ... .. . P81 ... ... : ... .. . ... ... ... : ... .. . ... ... ... : ... .. . P7F ... ... : ... .. . P81 ... ... : ... .. . ... ... ...
ROW 6A : C#4 00 . ... ... ... : ... .. . ... ... ... : ... .. . ... ... ... : ... .. . ... ... ... : ... .. . ... ... ... : ... .. . P7C ... ... : ... .. . P80 ... ... : ... .. . ... ... ...
ROW 6B : F#3 00 . ... ... ... : ... .. . ... ... ... : ... .. . P80 ... ... : ... .. . ... ... ... : ... .. . ... ... ... : ... .. . ... ... ... : ... .. . P7D ... ... : ... .. . ... ... ...
ROW 6C : ... .. . ... ... ... : ... .. . ... ... ... : ... .. . ... ... ... : ... .. . ... ... ... : C-1 0A . ... ... ... : ... .. . P7D ... ... : ... .. . P7C ... ... : E-1 03 5 P84 ... ...
ROW 6D : C#4 00 . ... ... ... : ... .. . ... ... ... : ... .. . ... ... ... : ... .. . ... ... ... : ... .. . ... ... ... : ... .. . P7F ... ... : ... .. . ... ... ... : ... .. . ... ... ...
ROW 6E : F#3 00 A ... ... ... : ... .. . ... ... ... : ... .. . P7F ... ... : ... .. . ... ... ... : ... .. . ... ... ... : ... .. . P80 ... ... : ... .. . P7E ... ... : ... .. . P82 ... ...
ROW 6F : F#3 01 . ... ... ... : ... .. . ... ... ... : ... .. . ... ... ... : ... .. . ... ... ... : ... .. . ... ... ... : ... .. . P83 ... ... : ... .. . P80 ... ... : ... .. . P80 ... ...
ROW 70 : C#4 01 . ... ... ... : ... .. . ... ... ... : ... .. . ... ... ... : ... .. . ... ... ... : ... .. . ... ... ... : ... .. . P84 ... ... : ... .. . P82 ... ... : ... .. . P7E ... ...
ROW 71 : F#3 01 . ... ... ... : ... .. . ... ... ... : ... .. . P80 ... ... : ... .. . ... ... ... : ... .. . ... ... ... : ... .. . ... ... ... : ... .. . P84 ... ... : ... .. . P7C ... ...
ROW 72 : ... .. . ... ... ... : ... .. . ... ... ... : ... .. . ... ... ... : ... .. . ... ... ... : ... .. . ... ... ... : ... .. . P82 ... ... : ... .. . ... ... ... : --- .. . ... ... ...
ROW 73 : C#4 02 . ... ... ... : ... .. . ... ... ... : ... .. . P81 ... ... : ... .. . ... ... ... : ... .. . ... ... ... : ... .. . P80 ... ... : ... .. . P83 ... ... : ... .. . ... ... ...
ROW 74 : F#3 02 . ... ... ... : ... .. . ... ... ... : ... .. . ... ... ... : ... .. . ... ... ... : ... .. . ... ... ... : ... .. . P7E ... ... : ... .. . P80 ... ... : ... .. . ... ... ...
ROW 75 : ... .. 9 ... ... ... : ... .. . ... ... ... : ... .. . ... ... ... : ... .. . ... ... ... : ... .. . ... ... ... : ... .. . P7C ... ... : ... .. . P7F ... ... : ... .. . ... ... ...
ROW 76 : C#4 02 8 ... ... ... : ... .. . ... ... ... : --- .. . ... ... ... : ... .. . ... ... ... : ... .. . ... ... ... : ... .. . ... ... ... : ... .. . P7C ... ... : ... .. . ... ... ...
ROW 77 : F#3 02 . ... ... ... : ... .. . ... ... ... : ... .. . ... ... ... : ... .. . ... ... ... : ... .. . ... ... ... : ... .. . P7D ... ... : ... .. . ... ... ... : ... .. . ... ... ...
ROW 78 : ... .. 7 ... ... ... : ... .. . ... ... ... : ... .. . ... ... ... : ... .. . ... ... ... : C-1 0A . ... ... ... : ... .. . P80 ... ... : ... .. . P7D ... ... : E-1 03 4 P83 ... ...
ROW 79 : C#4 02 6 ... ... ... : ... .. . ... ... ... : ... .. . ... ... ... : ... .. . ... ... ... : ... .. . ... ... ... : ... .. . P81 ... ... : ... .. . P7F ... ... : ... .. . P81 ... ...
ROW 7A : F#3 02 4 ... ... ... : ... .. . ... ... ... : ... .. . ... ... ... : ... .. . ... ... ... : ... .. . ... ... ... : ... .. . P84 ... ... : ... .. . P80 ... ... : ... .. . P80 ... ...
ROW 7B : ... .. . ... ... ... : ... .. . ... ... ... : ... .. . ... ... ... : ... .. . ... ... ... : ... .. . ... ... ... : ... .. . ... ... ... : ... .. . P83 ... ... : ... .. . P7D ... ...
ROW 7C : C#4 02 2 ... ... ... : ... .. . ... ... ... : D#5 00 . P80 ... ... : A-# 00 7 ... ... ... : ... .. . ... ... ... : ... .. . P83 ... ... : ... .. . P84 ... ... : ... .. . P7C ... ...
ROW 7D : F#3 02 . ... ... ... : ... .. . ... ... ... : ... .. . ... ... ... : ... .. 6 ... ... ... : ... .. . ... ... ... : ... .. . P81 ... ... : ... .. . ... ... ... : ... .. . ... ... ...
ROW 7E : ... .. 1 ... ... ... : ... .. . ... ... ... : ... .. . P81 ... ... : ... .. 5 ... ... ... : ... .. . ... ... ... : ... .. . P80 ... ... : ... .. . P82 ... ... : ... .. . P7E ... ...
ROW 7F : C#4 02 . ... ... ... : ... .. . ... ... ... : ... .. . ... ... ... : ... .. 4 ... ... ... : ... .. . ... ... ... : ... .. . P7D ... ... : ... .. . P80 ... ... : ... .. . P80 ... ...
ROW 80 : F#3 02 . ... ... ... : ... .. . ... ... ... : ... .. . ... ... ... : --- .. . ... ... ... : ... .. . ... ... ... : ... .. . P7C ... ... : ... .. . P7E ... ... : ... .. . P82 ... ...
ROW 81 : --- .. . ... ... ... : ... .. . ... ... ... : ... .. . P80 ... ... : ... .. . ... ... ... : ... .. . ... ... ... : ... .. . ... ... ... : ... .. . P7C ... ... : ... .. . P84 ... ...
ROW 82 : ... .. . ... ... ... : ... .. . ... ... ... : ... .. . ... ... ... : ... .. . ... ... ... : ... .. . ... ... ... : ... .. . P7E ... ... : ... .. . ... ... ... : ... .. . ... ... ...
ROW 83 : ... .. . ... ... ... : ... .. . ... ... ... : ... .. . P7F ... ... : ... .. . ... ... ... : ... .. . ... ... ... : ... .. . P80 ... ... : ... .. . P7D ... ... : ... .. . P83 ... ...
ROW 84 : ... .. . ... ... ... : ... .. . ... ... ... : ... .. . ... ... ... : ... .. . ... ... ... : ... .. . ... ... ... : ... .. . P82 ... ... : ... .. . P80 ... ... : ... .. . P80 ... ...
ROW 85 : ... .. . ... ... ... : ... .. . ... ... ... : ... .. . ... ... ... : ... .. . ... ... ... : ... .. . ... ... ... : ... .. . P84 ... ... : ... .. . P81 ... ... : ... .. . P7F ... ...
ROW 86 : ... .. . ... ... ... : ... .. . ... ... ... : ... .. . P80 ... ... : ... .. . ... ... ... : ... .. . ... ... ... : ... .. . ... ... ... : ... .. . P84 ... ... : ... .. . P7C ... ...
ROW 87 : ... .. . ... ... ... : ... .. . ... ... ... : ... .. . ... ... ... : ... .. . ... ... ... : ... .. . ... ... ... : ... .. . P83 ... ... : ... .. . ... ... ... : ... .. . ... ... ...
ROW 88 : ... .. . ... ... ... : ... .. . ... ... ... : E-5 00 . ... ... ... : C-# 00 7 ... ... ... : ... .. . ... ... ... : ... .. . P80 ... ... : C#3 06 1 P83 ... ... : ... .. . P7D ... ...
ROW 89 : ... .. . ... ... ... : ... .. . ... ... ... : ... .. . P81 ... ... : ... .. 6 ... ... ... : ... .. . ... ... ... : ... .. . P7F ... ... : ... .. . P81 ... ... : ... .. . P7F ... ...
ROW 8A : ... .. . ... ... ... : ... .. . ... ... ... : ... .. . ... ... ... : ... .. 5 ... ... ... : ... .. . ... ... ... : ... .. . P7C ... ... : ... .. 3 P80 ... ... : ... .. . P80 ... ...
ROW 8B : ... .. . ... ... ... : ... .. . ... ... ... : ... .. . P80 ... ... : ... .. 4 ... ... ... : ... .. . ... ... ... : ... .. . ... ... ... : ... .. 4 P7D ... ... : ... .. . P83 ... ...
ROW 8C : G#3 00 8 ... ... ... : ... .. . ... ... ... : ... .. . ... ... ... : --- .. . ... ... ... : ... .. . ... ... ... : ... .. . P7D ... ... : ... .. . P7C ... ... : ... .. . P84 ... ...
ROW 8D : ... .. . ... ... ... : ... .. . ... ... ... : ... .. . ... ... ... : ... .. . ... ... ... : ... .. . ... ... ... : ... .. . P7F ... ... : ... .. . ... ... ... : ... .. . ... ... ...
ROW 8E : G#3 01 . ... ... ... : ... .. . ... ... ... : ... .. . P7F ... ... : ... .. . ... ... ... : ... .. . ... ... ... : ... .. . P80 ... ... : ... .. . P7E ... ... : ... .. . P82 ... ...
ROW 8F : ... .. . ... ... ... : ... .. . ... ... ... : ... .. . ... ... ... : ... .. . ... ... ... : ... .. . ... ... ... : ... .. . P83 ... ... : ... .. . P80 ... ... : ... .. . P80 ... ...
ROW 90 : D#4 02 . ... ... ... : ... .. . ... ... ... : ... .. . ... ... ... : ... .. . ... ... ... : D#1 0A . ... ... ... : ... .. . P84 ... ... : ... .. . P82 ... ... : E-2 03 . P7E ... ...
ROW 91 : ... .. . ... ... ... : ... .. . ... ... ... : ... .. . P80 ... ... : ... .. . ... ... ... : ... .. . ... ... ... : ... .. . ... ... ... : ... .. . P84 ... ... : ... .. . P7C ... ...
ROW 92 : G#3 00 A ... ... ... : ... .. . ... ... ... : ... .. . ... ... ... : ... .. . ... ... ... : ... .. . ... ... ... : ... .. . P82 ... ... : ... .. . ... ... ... : ... .. . ... ... ...
ROW 93 : ... .. . ... ... ... : ... .. . ... ... ... : ... .. . P81 ... ... : ... .. . ... ... ... : ... .. . ... ... ... : ... .. . P80 ... ... : ... .. . P83 ... ... : ... .. . P7D ... ...
ROW 94 : D#4 01 . ... ... ... : ... .. . ... ... ... : D#5 00 . ... ... ... : ... .. . ... ... ... : ... .. . ... ... ... : ... .. . P7E ... ... : ... .. . P80 ... ... : ... .. . P80 ... ...
ROW 95 : G#3 01 . ... ... ... : ... .. . ... ... ... : ... .. . ... ... ... : ... .. . ... ... ... : ... .. . ... ... ... : ... .. . P7C ... ... : ... .. . P7F ... ... : ... .. . P81 ... ...
ROW 96 : G#3 02 . ... ... ... : ... .. . ... ... ... : ... .. . P80 ... ... : ... .. . ... ... ... : ... .. . ... ... ... : ... .. . ... ... ... : ... .. . P7C ... ... : ... .. . P84 ... ...
ROW 97 : D#4 02 . ... ... ... : ... .. . ... ... ... : ... .. . ... ... ... : ... .. . ... ... ... : ... .. . ... ... ... : ... .. . P7D ... ... : ... .. . ... ... ... : ... .. . ... ... ...
ROW 98 : G#3 00 . ... ... ... : ... .. . ... ... ... : ... .. . ... ... ... : ... .. . ... ... ... : ... .. . ... ... ... : ... .. . P80 ... ... : ... .. . P7D ... ... : ... .. . P83 ... ...
ROW 99 : ... .. 8 ... ... ... : ... .. . ... ... ... : ... .. . P7F ... ... : ... .. . ... ... ... : ... .. . ... ... ... : ... .. . P81 ... ... : ... .. . P7F ... ... : ... .. . P81 ... ...
ROW 9A : D#4 01 6 ... ... ... : ... .. . ... ... ... : ... .. . ... ... ... : ... .. . ... ... ... : ... .. . ... ... ... : ... .. . P84 ... ... : ... .. . P80 ... ... : ... .. . P80 ... ...
ROW 9B : G#3 01 3 ... ... ... : ... .. . ... ... ... : ... .. . P80 ... ... : ... .. . ... ... ... : ... .. . ... ... ... : ... .. . ... ... ... : ... .. . P83 ... ... : ... .. . P7D ... ...
ROW 9C : G#3 02 2 ... ... ... : ... .. . ... ... ... : ... .. . ... ... ... : ... .. . ... ... ... : ... .. . ... ... ... : ... .. . P83 ... ... : ... .. . P84 ... ... : ... .. . P7C ... ...
ROW 9D : D#4 02 1 ... ... ... : ... .. . ... ... ... : ... .. . ... ... ... : ... .. . ... ... ... : ... .. . ... ... ... : ... .. . P81 ... ... : ... .. . ... ... ... : ... .. . ... ... ...
ROW 9E : --- .. . ... ... ... : ... .. . ... ... ... : ... .. . P81 ... ... : ... .. . ... ... ... : ... .. . ... ... ... : ... .. . P80 ... ... : ... .. . P82 ... ... : ... .. . P7E ... ...
ROW 9F : ... .. . ... ... ... : ... .. . ... ... ... : ... .. . ... ... ... : ... .. . ... ... ... : ... .. . ... ... ... : ... .. . P7D ... ... : ... .. . P80 ... ... : ... .. . P80 ... ...
ROW A0 : ... .. . ... ... ... : ... .. . ... ... ... : C#5 00 . ... ... ... : ... .. . ... ... ... : ... .. . ... ... ... : ... .. . P7C ... ... : ... .. . P7E ... ... : ... .. . P82 ... ...
ROW A1 : ... .. . ... ... ... : ... .. . ... ... ... : ... .. . P80 ... ... : ... .. . ... ... ... : ... .. . ... ... ... : ... .. . ... ... ... : ... .. . P7C ... ... : ... .. . P84 ... ...
ROW A2 : ... .. . ... ... ... : ... .. . ... ... ... : ... .. . ... ... ... : ... .. . ... ... ... : ... .. . ... ... ... : ... .. . P7E ... ... : ... .. . ... ... ... : ... .. . ... ... ...
ROW A3 : ... .. . ... ... ... : ... .. . ... ... ... : ... .. . P7F ... ... : ... .. . ... ... ... : ... .. . ... ... ... : ... .. . P80 ... ... : ... .. . P7D ... ... : ... .. . P83 ... ...
ROW A4 : G#3 00 8 ... ... ... : ... .. . ... ... ... : ... .. . ... ... ... : ... .. . ... ... ... : ... .. . ... ... ... : ... .. . P82 ... ... : ... .. . P80 ... ... : ... .. . P80 ... ...
ROW A5 : ... .. . ... ... ... : ... .. . ... ... ... : ... .. . ... ... ... : ... .. . ... ... ... : ... .. . ... ... ... : ... .. . P84 ... ... : ... .. . P81 ... ... : ... .. . P7F ... ...
ROW A6 : G#3 01 . ... ... ... : ... .. . ... ... ... : ... .. . P80 ... ... : ... .. . ... ... ... : ... .. . ... ... ... : ... .. . ... ... ... : ... .. . P84 ... ... : ... .. . P7C ... ...
ROW A7 : ... .. 6 ... ... ... : ... .. . ... ... ... : ... .. . ... ... ... : ... .. . ... ... ... : ... .. . ... ... ... : ... .. . P83 ... ... : ... .. . ... ... ... : ... .. . ... ... ...
ROW A8 : D#4 02 4 ... ... ... : ... .. . ... ... ... : ... .. . ... ... ... : ... .. . ... ... ... : C-1 0A . ... ... ... : ... .. . P80 ... ... : ... .. . P83 ... ... : F#1 03 . P7D ... ...
ROW A9 : ... .. 2 ... ... ... : ... .. . ... ... ... : ... .. . P81 ... ... : ... .. . ... ... ... : ... .. . ... ... ... : ... .. . P7F ... ... : ... .. . P81 ... ... : ... .. . P7F ... ...
ROW AA : G#3 00 1 ... ... ... : ... .. . ... ... ... : ... .. . ... ... ... : ... .. . ... ... ... : ... .. . ... ... ... : ... .. . P7C ... ... : ... .. . P80 ... ... : ... .. . P80 ... ...
ROW AB : ... .. . ... ... ... : ... .. . ... ... ... : ... .. . P80 ... ... : ... .. . ... ... ... : ... .. . ... ... ... : ... .. . ... ... ... : ... .. . P7D ... ... : ... .. . P83 ... ...
ROW AC : --- .. . ... ... ... : ... .. . ... ... ... : B-4 00 . ... ... ... : ... .. . ... ... ... : ... .. . ... ... ... : ... .. . P7D ... ... : ... .. . P7C ... ... : ... .. . P84 ... ...
ROW AD : ... .. . ... ... ... : ... .. . ... ... ... : ... .. . ... ... ... : ... .. . ... ... ... : ... .. . ... ... ... : ... .. . P7F ... ... : ... .. . ... ... ... : ... .. . ... ... ...
ROW AE : ... .. . ... ... ... : ... .. . ... ... ... : ... .. . P7F ... ... : ... .. . ... ... ... : ... .. . ... ... ... : ... .. . P80 ... ... : ... .. . P7E ... ... : ... .. . P82 ... ...
ROW AF : ... .. . ... ... ... : ... .. . ... ... ... : ... .. . ... ... ... : ... .. . ... ... ... : ... .. . ... ... ... : ... .. . P83 ... ... : ... .. . P80 ... ... : ... .. . P80 ... ...
ROW B0 : G#3 00 8 ... ... ... : ... .. . ... ... ... : ... .. . ... ... ... : ... .. . ... ... ... : ... .. . ... ... ... : ... .. . P84 ... ... : ... .. . P82 ... ... : ... .. . P7E ... ...
ROW B1 : ... .. . ... ... ... : ... .. . ... ... ... : ... .. . P80 ... ... : ... .. . ... ... ... : ... .. . ... ... ... : ... .. . ... ... ... : ... .. . P84 ... ... : ... .. . P7C ... ...
ROW B2 : G#3 01 . ... ... ... : ... .. . ... ... ... : ... .. . ... ... ... : ... .. . ... ... ... : ... .. . ... ... ... : ... .. . P82 ... ... : ... .. . ... ... ... : ... .. . ... ... ...
ROW B3 : ... .. . ... ... ... : ... .. . ... ... ... : ... .. . P81 ... ... : ... .. . ... ... ... : ... .. . ... ... ... : ... .. . P80 ... ... : ... .. . P83 ... ... : ... .. . P7D ... ...
ROW B4 : D#4 02 . ... ... ... : ... .. . ... ... ... : ... .. . ... ... ... : ... .. . ... ... ... : ... .. . ... ... ... : ... .. . P7E ... ... : ... .. . P80 ... ... : ... .. . P80 ... ...
ROW B5 : ... .. . ... ... ... : ... .. . ... ... ... : ... .. . ... ... ... : ... .. . ... ... ... : ... .. . ... ... ... : ... .. . P7C ... ... : ... .. . P7F ... ... : ... .. . P81 ... ...
ROW B6 : --- .. . ... ... ... : ... .. . ... ... ... : ... .. . P80 ... ... : ... .. . ... ... ... : ... .. . ... ... ... : ... .. . ... ... ... : ... .. . P7C ... ... : ... .. . P84 ... ...
ROW B7 : ... .. . ... ... ... : ... .. . ... ... ... : ... .. . ... ... ... : ... .. . ... ... ... : ... .. . ... ... ... : ... .. . P7D ... ... : ... .. . ... ... ... : ... .. . ... ... ...
ROW B8 : ... .. . ... ... ... : ... .. . ... ... ... : A#4 00 . ... ... ... : A-# 00 7 ... ... ... : ... .. . ... ... ... : A#3 06 1 P80 ... ... : ... .. . P7D ... ... : ... .. . P83 ... ...
ROW B9 : ... .. . ... ... ... : ... .. . ... ... ... : ... .. . P7F ... ... : ... .. 6 ... ... ... : ... .. . ... ... ... : ... .. . P81 ... ... : ... .. . P7F ... ... : ... .. . P81 ... ...
ROW BA : ... .. . ... ... ... : ... .. . ... ... ... : ... .. . ... ... ... : ... .. 5 ... ... ... : ... .. . ... ... ... : ... .. 3 P84 ... ... : ... .. . P80 ... ... : ... .. . P80 ... ...
ROW BB : ... .. . ... ... ... : ... .. . ... ... ... : ... .. . P80 ... ... : ... .. 4 ... ... ... : ... .. . ... ... ... : ... .. 4 ... ... ... : ... .. . P83 ... ... : ... .. . P7D ... ...
ROW BC : G#3 00 . ... ... ... : ... .. . ... ... ... : ... .. . ... ... ... : --- .. . ... ... ... : ... .. . ... ... ... : ... .. . P83 ... ... : ... .. . P84 ... ... : ... .. . P7C ... ...
ROW BD : ... .. . ... ... ... : ... .. . ... ... ... : ... .. . ... ... ... : ... .. . ... ... ... : ... .. . ... ... ... : ... .. . P81 ... ... : ... .. . ... ... ... : ... .. . ... ... ...
ROW BE : G#3 01 . ... ... ... : ... .. . ... ... ... : ... .. . P81 ... ... : ... .. . ... ... ... : ... .. . ... ... ... : ... .. . P80 ... ... : ... .. . P82 ... ... : ... .. . P7E ... ...
ROW BF : ... .. . ... ... ... : ... .. . ... ... ... : ... .. . ... ... ... : ... .. . ... ... ... : ... .. . ... ... ... : ... .. . P7D ... ... : ... .. . P80 ... ... : ... .. . P80 ... ...
ROW C0 : D#4 02 . ... ... ... : ... .. . ... ... ... : ... .. . ... ... ... : ... .. . ... ... ... : D#1 0A . ... ... ... : ... .. . P7C ... ... : ... .. . P7E ... ... : ... .. . P82 ... ...
ROW C1 : ... .. . ... ... ... : ... .. . ... ... ... : ... .. . P80 ... ... : ... .. . ... ... ... : ... .. . ... ... ... : ... .. . ... ... ... : ... .. . P7C ... ... : ... .. . P84 ... ...
ROW C2 : G#3 00 A ... ... ... : ... .. . ... ... ... : ... .. . ... ... ... : ... .. . ... ... ... : ... .. . ... ... ... : ... .. . P7E ... ... : ... .. . ... ... ... : ... .. . ... ... ...
ROW C3 : ... .. . ... ... ... : ... .. . ... ... ... : ... .. . P7F ... ... : ... .. . ... ... ... : ... .. . ... ... ... : ... .. . P80 ... ... : ... .. . P7D ... ... : ... .. . P83 ... ...
ROW C4 : D#4 01 . ... ... ... : ... .. . ... ... ... : ... .. . ... ... ... : ... .. . ... ... ... : ... .. . ... ... ... : ... .. . P82 ... ... : ... .. . P80 ... ... : ... .. . P80 ... ...
ROW C5 : G#3 01 . ... ... ... : ... .. . ... ... ... : ... .. . ... ... ... : ... .. . ... ... ... : ... .. . ... ... ... : ... .. . P84 ... ... : ... .. . P81 ... ... : ... .. . P7F ... ...
ROW C6 : G#3 02 . ... ... ... : ... .. . ... ... ... : ... .. . P80 ... ... : ... .. . ... ... ... : ... .. . ... ... ... : ... .. . ... ... ... : ... .. . P84 ... ... : --- .. . ... ... ...
ROW C7 : D#4 02 . ... ... ... : ... .. . ... ... ... : ... .. . ... ... ... : ... .. . ... ... ... : ... .. . ... ... ... : ... .. . P83 ... ... : ... .. . ... ... ... : ... .. . ... ... ...
ROW C8 : G#3 00 8 ... ... ... : ... .. . ... ... ... : ... .. . ... ... ... : ... .. . ... ... ... : ... .. . ... ... ... : ... .. . P80 ... ... : ... .. . P83 ... ... : ... .. . ... ... ...
ROW C9 : B-3 00 . ... ... ... : ... .. . ... ... ... : ... .. . P81 ... ... : ... .. . ... ... ... : ... .. . ... ... ... : ... .. . P7F ... ... : ... .. . P81 ... ... : ... .. . ... ... ...
ROW CA : D#4 00 . ... ... ... : ... .. . ... ... ... : ... .. . ... ... ... : ... .. . ... ... ... : ... .. . ... ... ... : ... .. . P7C ... ... : ... .. . P80 ... ... : ... .. . ... ... ...
ROW CB : G#3 00 . ... ... ... : ... .. . ... ... ... : ... .. . P80 ... ... : ... .. . ... ... ... : ... .. . ... ... ... : ... .. . ... ... ... : ... .. . P7D ... ... : ... .. . ... ... ...
ROW CC : B-3 00 . ... ... ... : ... .. . ... ... ... : ... .. . ... ... ... : ... .. . ... ... ... : C-1 0A . ... ... ... : ... .. . P7D ... ... : ... .. . P7C ... ... : F#1 03 5 P84 ... ...
ROW CD : D#4 00 . ... ... ... : ... .. . ... ... ... : ... .. . ... ... ... : ... .. . ... ... ... : ... .. . ... ... ... : ... .. . P7F ... ... : ... .. . ... ... ... : ... .. . ... ... ...
ROW CE : G#3 00 A ... ... ... : ... .. . ... ... ... : ... .. . P7F ... ... : ... .. . ... ... ... : ... .. . ... ... ... : ... .. . P80 ... ... : ... .. . P7E ... ... : ... .. . P82 ... ...
ROW CF : B-3 01 . ... ... ... : ... .. . ... ... ... : ... .. . ... ... ... : ... .. . ... ... ... : ... .. . ... ... ... : ... .. . P83 ... ... : ... .. . P80 ... ... : ... .. . P80 ... ...
ROW D0 : D#4 01 . ... ... ... : ... .. . ... ... ... : B-4 00 . ... ... ... : A-# 00 7 ... ... ... : ... .. . ... ... ... : ... .. . P84 ... ... : ... .. . P82 ... ... : ... .. . P7E ... ...
ROW D1 : G#3 01 . ... ... ... : ... .. . ... ... ... : ... .. . P80 ... ... : ... .. 6 ... ... ... : ... .. . ... ... ... : ... .. . ... ... ... : ... .. . P84 ... ... : ... .. . P7C ... ...
ROW D2 : B-3 01 . ... ... ... : ... .. . ... ... ... : ... .. . ... ... ... : ... .. 5 ... ... ... : ... .. . ... ... ... : ... .. . P82 ... ... : ... .. . ... ... ... : --- .. . ... ... ...
ROW D3 : D#4 02 . ... ... ... : ... .. . ... ... ... : ... .. . P81 ... ... : ... .. 4 ... ... ... : ... .. . ... ... ... : ... .. . P80 ... ... : ... .. . P83 ... ... : ... .. . ... ... ...
ROW D4 : G#3 02 . ... ... ... : ... .. . ... ... ... : ... .. . ... ... ... : --- .. . ... ... ... : ... .. . ... ... ... : ... .. . P7E ... ... : ... .. . P80 ... ... : ... .. . ... ... ...
ROW D5 : B-3 02 9 ... ... ... : ... .. . ... ... ... : ... .. . ... ... ... : ... .. . ... ... ... : ... .. . ... ... ... : ... .. . P7C ... ... : ... .. . P7F ... ... : ... .. . ... ... ...
ROW D6 : D#4 02 8 ... ... ... : ... .. . ... ... ... : ... .. . P80 ... ... : ... .. . ... ... ... : ... .. . ... ... ... : ... .. . ... ... ... : ... .. . P7C ... ... : ... .. . ... ... ...
ROW D7 : G#3 02 . ... ... ... : ... .. . ... ... ... : ... .. . ... ... ... : ... .. . ... ... ... : ... .. . ... ... ... : ... .. . P7D ... ... : ... .. . ... ... ... : ... .. . ... ... ...
ROW D8 : B-3 02 7 ... ... ... : ... .. . ... ... ... : ... .. . ... ... ... : ... .. . ... ... ... : C-1 0A . ... ... ... : ... .. . P80 ... ... : ... .. . P7D ... ... : F#1 03 4 P83 ... ...
ROW D9 : D#4 02 6 ... ... ... : ... .. . ... ... ... : ... .. . P7F ... ... : ... .. . ... ... ... : ... .. . ... ... ... : ... .. . P81 ... ... : ... .. . P7F ... ... : ... .. . P81 ... ...
ROW DA : G#3 02 4 ... ... ... : ... .. . ... ... ... : ... .. . ... ... ... : ... .. . ... ... ... : ... .. . ... ... ... : ... .. . P84 ... ... : ... .. . P80 ... ... : ... .. . P80 ... ...
ROW DB : B-3 02 . ... ... ... : ... .. . ... ... ... : ... .. . P80 ... ... : ... .. . ... ... ... : ... .. . ... ... ... : ... .. . ... ... ... : ... .. . P83 ... ... : ... .. . P7D ... ...
ROW DC : D#4 02 2 ... ... ... : ... .. . ... ... ... : A#4 00 . ... ... ... : ... .. . ... ... ... : ... .. . ... ... ... : ... .. . P83 ... ... : ... .. . P84 ... ... : ... .. . P7C ... ...
ROW DD : G#3 02 . ... ... ... : ... .. . ... ... ... : ... .. . ... ... ... : ... .. . ... ... ... : ... .. . ... ... ... : ... .. . P81 ... ... : ... .. . ... ... ... : ... .. . ... ... ...
ROW DE : B-3 02 1 ... ... ... : ... .. . ... ... ... : ... .. . P81 ... ... : ... .. . ... ... ... : ... .. . ... ... ... : ... .. . P80 ... ... : ... .. . P82 ... ... : ... .. . P7E ... ...
ROW DF : D#4 02 . ... ... ... : ... .. . ... ... ... : ... .. . ... ... ... : ... .. . ... ... ... : ... .. . ... ... ... : ... .. . P7D ... ... : ... .. . P80 ... ... : ... .. . P80 ... ...
ROW E0 : G#3 02 . ... ... ... : ... .. . ... ... ... : ... .. . ... ... ... : ... .. . ... ... ... : ... .. . ... ... ... : ... .. . P7C ... ... : ... .. . P7E ... ... : ... .. . P82 ... ...
ROW E1 : --- .. . ... ... ... : ... .. . ... ... ... : ... .. . P80 ... ... : ... .. . ... ... ... : ... .. . ... ... ... : ... .. . ... ... ... : ... .. . P7C ... ... : ... .. . P84 ... ...
ROW E2 : ... .. . ... ... ... : ... .. . ... ... ... : ... .. . ... ... ... : ... .. . ... ... ... : ... .. . ... ... ... : ... .. . P7E ... ... : ... .. . ... ... ... : ... .. . ... ... ...
ROW E3 : ... .. . ... ... ... : ... .. . ... ... ... : ... .. . P7F ... ... : ... .. . ... ... ... : ... .. . ... ... ... : ... .. . P80 ... ... : ... .. . P7D ... ... : ... .. . P83 ... ...
ROW E4 : ... .. . ... ... ... : ... .. . ... ... ... : ... .. . ... ... ... : ... .. . ... ... ... : ... .. . ... ... ... : ... .. . P82 ... ... : ... .. . P80 ... ... : ... .. . P80 ... ...
ROW E5 : ... .. . ... ... ... : ... .. . ... ... ... : ... .. . ... ... ... : ... .. . ... ... ... : ... .. . ... ... ... : ... .. . P84 ... ... : ... .. . P81 ... ... : ... .. . P7F ... ...
ROW E6 : ... .. . ... ... ... : ... .. . ... ... ... : ... .. . P80 ... ... : ... .. . ... ... ... : ... .. . ... ... ... : ... .. . ... ... ... : ... .. . P84 ... ... : ... .. . P7C ... ...
ROW E7 : ... .. . ... ... ... : ... .. . ... ... ... : ... .. . ... ... ... : ... .. . ... ... ... : ... .. . ... ... ... : ... .. . P83 ... ... : ... .. . ... ... ... : ... .. . ... ... ...
ROW E8 : ... .. . ... ... ... : ... .. . ... ... ... : ... .. . ... ... ... : C-# 00 7 ... ... ... : ... .. . ... ... ... : ... .. . P80 ... ... : D#3 06 1 P83 ... ... : ... .. . P7D ... ...
ROW E9 : ... .. . ... ... ... : ... .. . ... ... ... : ... .. . P81 ... ... : ... .. 6 ... ... ... : ... .. . ... ... ... : ... .. . P7F ... ... : ... .. . P81 ... ... : ... .. . P7F ... ...
ROW EA : ... .. . ... ... ... : ... .. . ... ... ... : ... .. . ... ... ... : ... .. 5 ... ... ... : ... .. . ... ... ... : ... .. . P7C ... ... : ... .. 3 P80 ... ... : ... .. . P80 ... ...
ROW EB : ... .. . ... ... ... : ... .. . ... ... ... : ... .. . P80 ... ... : ... .. 4 ... ... ... : ... .. . ... ... ... : ... .. . ... ... ... : ... .. 4 P7D ... ... : ... .. . P83 ... ...
ROW EC : G#3 00 8 ... ... ... : ... .. . ... ... ... : ... .. . ... ... ... : --- .. . ... ... ... : ... .. . ... ... ... : ... .. . P7D ... ... : ... .. . P7C ... ... : ... .. . P84 ... ...
ROW ED : ... .. . ... ... ... : ... .. . ... ... ... : ... .. . ... ... ... : ... .. . ... ... ... : ... .. . ... ... ... : ... .. . P7F ... ... : ... .. . ... ... ... : ... .. . ... ... ...
ROW EE : B-3 01 . ... ... ... : ... .. . ... ... ... : ... .. . P7F ... ... : ... .. . ... ... ... : ... .. . ... ... ... : ... .. . P80 ... ... : ... .. . P7E ... ... : ... .. . P82 ... ...
ROW EF : ... .. . ... ... ... : ... .. . ... ... ... : ... .. . ... ... ... : ... .. . ... ... ... : ... .. . ... ... ... : ... .. . P83 ... ... : ... .. . P80 ... ... : ... .. . P80 ... ...
ROW F0 : D#4 02 . ... ... ... : ... .. . ... ... ... : ... .. . ... ... ... : ... .. . ... ... ... : D#1 0A . ... ... ... : ... .. . P84 ... ... : ... .. . P82 ... ... : F#2 03 . P7E ... ...
ROW F1 : ... .. . ... ... ... : ... .. . ... ... ... : ... .. . P80 ... ... : ... .. . ... ... ... : ... .. . ... ... ... : ... .. . ... ... ... : ... .. . P84 ... ... : ... .. . P7C ... ...
ROW F2 : G#3 00 A ... ... ... : ... .. . ... ... ... : ... .. . ... ... ... : ... .. . ... ... ... : ... .. . ... ... ... : ... .. . P82 ... ... : ... .. . ... ... ... : ... .. . ... ... ...
ROW F3 : B-3 00 . ... ... ... : ... .. . ... ... ... : ... .. . P81 ... ... : ... .. . ... ... ... : ... .. . ... ... ... : ... .. . P80 ... ... : ... .. . P83 ... ... : ... .. . P7D ... ...
ROW F4 : D#4 01 . ... ... ... : ... .. . ... ... ... : ... .. . ... ... ... : ... .. . ... ... ... : ... .. . ... ... ... : ... .. . P7E ... ... : ... .. . P80 ... ... : ... .. . P80 ... ...
ROW F5 : G#3 01 . ... ... ... : ... .. . ... ... ... : ... .. . ... ... ... : ... .. . ... ... ... : ... .. . ... ... ... : ... .. . P7C ... ... : ... .. . P7F ... ... : ... .. . P81 ... ...
ROW F6 : B-3 02 . ... ... ... : ... .. . ... ... ... : ... .. . P80 ... ... : ... .. . ... ... ... : ... .. . ... ... ... : ... .. . ... ... ... : ... .. . P7C ... ... : ... .. . P84 ... ...
ROW F7 : D#4 02 . ... ... ... : ... .. . ... ... ... : ... .. . ... ... ... : ... .. . ... ... ... : ... .. . ... ... ... : ... .. . P7D ... ... : ... .. . ... ... ... : ... .. . ... ... ...
ROW F8 : G#3 00 . ... ... ... : ... .. . ... ... ... : ... .. . ... ... ... : ... .. . ... ... ... : ... .. . ... ... ... : ... .. . P80 ... ... : ... .. . P7D ... ... : ... .. . P83 ... ...
ROW F9 : B-3 00 8 ... ... ... : ... .. . ... ... ... : ... .. . P7F ... ... : ... .. . ... ... ... : ... .. . ... ... ... : ... .. . P81 ... ... : ... .. . P7F ... ... : ... .. . P81 ... ...
ROW FA : D#4 01 6 ... ... ... : ... .. . ... ... ... : ... .. . ... ... ... : ... .. . ... ... ... : ... .. . ... ... ... : ... .. . P84 ... ... : ... .. . P80 ... ... : ... .. . P80 ... ...
ROW FB : G#3 01 3 ... ... ... : ... .. . ... ... ... : ... .. . P80 ... ... : ... .. . ... ... ... : ... .. . ... ... ... : ... .. . ... ... ... : ... .. . P83 ... ... : ... .. . P7D ... ...
ROW FC : B-3 02 2 ... ... ... : ... .. . ... ... ... : ... .. . ... ... ... : ... .. . ... ... ... : ... .. . ... ... ... : ... .. . P83 ... ... : ... .. . P84 ... ... : ... .. . P7C ... ...
ROW FD : D#4 02 1 ... ... ... : ... .. . ... ... ... : ... .. . ... ... ... : ... .. . ... ... ... : ... .. . ... ... ... : ... .. . P81 ... ... : ... .. . ... ... ... : ... .. . ... ... ...
ROW FE : --- .. . ... ... ... : ... .. . ... ... ... : ... .. . P81 ... ... : ... .. . ... ... ... : ... .. . ... ... ... : ... .. . P80 ... ... : ... .. . P82 ... ... : ... .. . P7E ... ...
ROW FF : ... .. . ... ... ... : ... .. . ... ... ... : ... .. . ... ... ... : ... .. . ... ... ... : ... .. . ... ... ... : ... .. . P7D ... ... : ... .. . P80 ... ... : ... .. . P80 ... ...

PATTERN 09
ROW 00 : ... .. . ... ... ... : ... .. . ... ... ... : F#4 00 . ... ... ... : C-# 00 7 ... ... ... : ... .. . ... ... ... : ... .. . P7C ... ... : ... .. . P7E ... ... : ... .. . P82 ... ...
ROW 01 : ... .. . ... ... ... : ... .. . ... ... ... : ... .. . P80 ... ... : ... .. 6 ... ... ... : ... .. . ... ... ... : ... .. . ... ... ... : ... .. . P7C ... ... : ... .. . P84 ... ...
ROW 02 : ... .. . ... ... ... : ... .. . ... ... ... : ... .. . ... ... ... : ... .. 5 ... ... ... : ... .. . ... ... ... : ... .. . P7E ... ... : ... .. . ... ... ... : ... .. . ... ... ...
ROW 03 : ... .. . ... ... ... : ... .. . ... ... ... : ... .. . P7F ... ... : ... .. 4 ... ... ... : ... .. . ... ... ... : ... .. . P80 ... ... : ... .. . P7D ... ... : ... .. . P83 ... ...
ROW 04 : G#3 00 8 ... ... ... : ... .. . ... ... ... : ... .. . ... ... ... : --- .. . ... ... ... : ... .. . ... ... ... : ... .. . P82 ... ... : ... .. . P80 ... ... : ... .. . P80 ... ...
ROW 05 : ... .. . ... ... ... : ... .. . ... ... ... : ... .. . ... ... ... : ... .. . ... ... ... : ... .. . ... ... ... : ... .. . P84 ... ... : ... .. . P81 ... ... : ... .. . P7F ... ...
ROW 06 : B-3 01 . ... ... ... : ... .. . ... ... ... : ... .. . P80 ... ... : ... .. . ... ... ... : ... .. . ... ... ... : ... .. . ... ... ... : ... .. . P84 ... ... : ... .. . P7C ... ...
ROW 07 : ... .. 6 ... ... ... : ... .. . ... ... ... : ... .. . ... ... ... : ... .. . ... ... ... : ... .. . ... ... ... : ... .. . P83 ... ... : ... .. . ... ... ... : ... .. . ... ... ...
ROW 08 : D#4 02 4 ... ... ... : A#3 00 B ... ... ... : ... .. . ... ... ... : ... .. . ... ... ... : C-1 0A . ... ... ... : ... .. . P80 ... ... : ... .. . P83 ... ... : G#1 03 . P7D ... ...
ROW 09 : ... .. 2 ... ... ... : ... .. . ... ... ... : ... .. . P81 ... ... : ... .. . ... ... ... : ... .. . ... ... ... : ... .. . P7F ... ... : ... .. . P81 ... ... : ... .. . P7F ... ...
ROW 0A : G#3 00 1 ... ... ... : ... .. . ... ... ... : ... .. . ... ... ... : ... .. . ... ... ... : ... .. . ... ... ... : ... .. . P7C ... ... : ... .. . P80 ... ... : ... .. . P80 ... ...
ROW 0B : B-3 00 . ... ... ... : ... .. . ... ... ... : ... .. . P80 ... ... : ... .. . ... ... ... : ... .. . ... ... ... : ... .. . ... ... ... : ... .. . P7D ... ... : ... .. . P83 ... ...
ROW 0C : --- .. . ... ... ... : ... .. . ... ... ... : ... .. . ... ... ... : A-# 00 7 ... ... ... : ... .. . ... ... ... : ... .. . P7D ... ... : ... .. . P7C ... ... : ... .. . P84 ... ...
ROW 0D : ... .. . ... ... ... : ... .. . ... ... ... : ... .. . ... ... ... : ... .. 6 ... ... ... : ... .. . ... ... ... : ... .. . P7F ... ... : ... .. . ... ... ... : ... .. . ... ... ...
ROW 0E : ... .. . ... ... ... : ... .. . ... ... ... : ... .. . P7F ... ... : ... .. 5 ... ... ... : ... .. . ... ... ... : ... .. . P80 ... ... : ... .. . P7E ... ... : ... .. . P82 ... ...
ROW 0F : ... .. . ... ... ... : A#3 01 . ... ... ... : ... .. . ... ... ... : ... .. 4 ... ... ... : ... .. . ... ... ... : ... .. . P83 ... ... : ... .. . P80 ... ... : ... .. . P80 ... ...
ROW 10 : G#3 00 8 ... ... ... : ... .. . ... ... ... : ... .. . ... ... ... : --- .. . ... ... ... : ... .. . ... ... ... : ... .. . P84 ... ... : ... .. . P82 ... ... : ... .. . P7E ... ...
ROW 11 : ... .. . ... ... ... : ... .. . ... ... ... : ... .. . P80 ... ... : ... .. . ... ... ... : ... .. . ... ... ... : ... .. . ... ... ... : ... .. . P84 ... ... : ... .. . P7C ... ...
ROW 12 : B-3 01 . ... ... ... : ... .. . ... ... ... : ... .. . ... ... ... : ... .. . ... ... ... : ... .. . ... ... ... : ... .. . P82 ... ... : ... .. . ... ... ... : ... .. . ... ... ...
ROW 13 : ... .. . ... ... ... : A#3 02 . ... ... ... : ... .. . P81 ... ... : ... .. . ... ... ... : ... .. . ... ... ... : ... .. . P80 ... ... : ... .. . P83 ... ... : ... .. . P7D ... ...
ROW 14 : D#4 02 . ... ... ... : ... .. . P82 ... ... : ... .. . ... ... ... : ... .. . ... ... ... : ... .. . ... ... ... : ... .. . P7E ... ... : ... .. . P80 ... ... : ... .. . P80 ... ...
ROW 15 : ... .. . ... ... ... : ... .. . P83 ... ... : ... .. . ... ... ... : ... .. . ... ... ... : ... .. . ... ... ... : ... .. . P7C ... ... : ... .. . P7F ... ... : ... .. . P81 ... ...
ROW 16 : --- .. . ... ... ... : ... .. . ... ... ... : ... .. . P80 ... ... : ... .. . ... ... ... : ... .. . ... ... ... : ... .. . ... ... ... : ... .. . P7C ... ... : ... .. . P84 ... ...
ROW 17 : ... .. . ... ... ... : ... .. . P81 ... ... : ... .. . ... ... ... : ... .. . ... ... ... : ... .. . ... ... ... : ... .. . P7D ... ... : ... .. . ... ... ... : ... .. . ... ... ...
ROW 18 : ... .. . ... ... ... : ... .. . P7F ... ... : G#4 00 . ... ... ... : ... .. . ... ... ... : ... .. . ... ... ... : G#3 06 1 P80 ... ... : ... .. 1 P7D ... ... : ... .. . P83 ... ...
ROW 19 : ... .. . ... ... ... : ... .. . P7D ... ... : ... .. . P7F ... ... : ... .. . ... ... ... : ... .. . ... ... ... : ... .. . P81 ... ... : ... .. . P7F ... ... : ... .. . P81 ... ...
ROW 1A : ... .. . ... ... ... : ... .. . ... ... ... : ... .. . ... ... ... : ... .. . ... ... ... : ... .. . ... ... ... : ... .. 3 P84 ... ... : ... .. 3 P80 ... ... : ... .. . P80 ... ...
ROW 1B : ... .. . ... ... ... : ... .. . P7E ... ... : ... .. . P80 ... ... : ... .. . ... ... ... : ... .. . ... ... ... : ... .. 4 ... ... ... : ... .. 4 P83 ... ... : ... .. . P7D ... ...
ROW 1C : G#3 00 . ... ... ... : ... .. . P80 ... ... : ... .. . ... ... ... : ... .. . ... ... ... : ... .. . ... ... ... : ... .. . P83 ... ... : ... .. . P84 ... ... : ... .. . P7C ... ...
ROW 1D : ... .. . ... ... ... : ... .. . P82 ... ... : ... .. . ... ... ... : ... .. . ... ... ... : ... .. . ... ... ... : ... .. . P81 ... ... : ... .. . ... ... ... : ... .. . ... ... ...
ROW 1E : B-3 01 . ... ... ... : ... .. . P83 ... ... : ... .. . P81 ... ... : ... .. . ... ... ... : ... .. . ... ... ... : ... .. . P80 ... ... : ... .. . P82 ... ... : ... .. . P7E ... ...
ROW 1F : ... .. . ... ... ... : ... .. . ... ... ... : ... .. . ... ... ... : ... .. . ... ... ... : ... .. . ... ... ... : ... .. . P7D ... ... : ... .. . P80 ... ... : ... .. . P80 ... ...
ROW 20 : D#4 02 . ... ... ... : ... .. A P81 ... ... : ... .. . ... ... ... : ... .. . ... ... ... : D#1 0A . ... ... ... : ... .. . P7C ... ... : ... .. . P7E ... ... : ... .. . P82 ... ...
ROW 21 : ... .. . ... ... ... : ... .. . P80 ... ... : ... .. . P80 ... ... : ... .. . ... ... ... : ... .. . ... ... ... : ... .. . ... ... ... : ... .. . P7C ... ... : ... .. . P84 ... ...
ROW 22 : G#3 00 A ... ... ... : ... .. . P7D ... ... : ... .. . ... ... ... : ... .. . ... ... ... : ... .. . ... ... ... : ... .. . P7E ... ... : ... .. . ... ... ... : ... .. . ... ... ...
ROW 23 : B-3 00 . ... ... ... : ... .. . ... ... ... : ... .. . P7F ... ... : ... .. . ... ... ... : ... .. . ... ... ... : ... .. . P80 ... ... : ... .. . P7D ... ... : ... .. . P83 ... ...
ROW 24 : D#4 01 . ... ... ... : ... .. 9 P7E ... ... : ... .. . ... ... ... : 2-# 00 1 ... ... ... : ... .. . ... ... ... : ... .. . P82 ... ... : ... .. . P80 ... ... : ... .. . P80 ... ...
ROW 25 : G#3 01 . ... ... ... : ... .. . P80 ... ... : ... .. . ... ... ... : ... .. . ... ... ... : ... .. . ... ... ... : ... .. . P84 ... ... : ... .. . P81 ... ... : ... .. . P7F ... ...
ROW 26 : B-3 02 . ... ... ... : ... .. . P81 ... ... : ... .. . P80 ... ... : ... .. . ... ... ... : ... .. . ... ... ... : ... .. . ... ... ... : ... .. . P84 ... ... : --- .. . ... ... ...
ROW 27 : D#4 02 . ... ... ... : ... .. . P83 ... ... : ... .. . ... ... ... : ... .. 2 ... ... ... : ... .. . ... ... ... : ... .. . P83 ... ... : ... .. . ... ... ... : ... .. . ... ... ...
ROW 28 : F#3 00 8 ... ... ... : ... .. 8 ... ... ... : ... .. . ... ... ... : ... .. . ... ... ... : ... .. . ... ... ... : ... .. . P80 ... ... : ... .. . P83 ... ... : ... .. . ... ... ...
ROW 29 : ... .. . ... ... ... : ... .. . P81 ... ... : ... .. . P81 ... ... : ... .. 3 ... ... ... : ... .. . ... ... ... : ... .. . P7F ... ... : ... .. . P81 ... ... : ... .. . ... ... ...
ROW 2A : C#4 00 . ... ... ... : ... .. . P80 ... ... : ... .. . ... ... ... : 4-# 00 . ... ... ... : ... .. . ... ... ... : ... .. . P7C ... ... : ... .. . P80 ... ... : ... .. . ... ... ...
ROW 2B : F#3 00 . ... ... ... : ... .. . P7E ... ... : ... .. . P80 ... ... : ... .. 4 ... ... ... : ... .. . ... ... ... : ... .. . ... ... ... : ... .. . P7D ... ... : ... .. . ... ... ...
ROW 2C : ... .. . ... ... ... : ... .. 7 P7D ... ... : ... .. . ... ... ... : ... .. . ... ... ... : C-1 0A . ... ... ... : ... .. . P7D ... ... : ... .. . P7C ... ... : G#1 03 5 P84 ... ...
ROW 2D : C#4 00 . ... ... ... : ... .. . ... ... ... : ... .. . ... ... ... : ... .. 5 ... ... ... : ... .. . ... ... ... : ... .. . P7F ... ... : ... .. . ... ... ... : ... .. . ... ... ...
ROW 2E : F#3 00 A ... ... ... : ... .. . P80 ... ... : ... .. . P7F ... ... : ... .. . ... ... ... : ... .. . ... ... ... : ... .. . P80 ... ... : ... .. . P7E ... ... : ... .. . P82 ... ...
ROW 2F : F#3 01 . ... ... ... : ... .. . P81 ... ... : ... .. . ... ... ... : ... .. 6 ... ... ... : ... .. . ... ... ... : ... .. . P83 ... ... : ... .. . P80 ... ... : ... .. . P80 ... ...
ROW 30 : C#4 01 . ... ... ... : ... .. 6 P83 ... ... : ... .. . ... ... ... : 6-# 00 . ... ... ... : ... .. . ... ... ... : ... .. . P84 ... ... : ... .. . P82 ... ... : ... .. . P7E ... ...
ROW 31 : F#3 01 . ... ... ... : ... .. . ... ... ... : ... .. . P80 ... ... : ... .. 7 ... ... ... : ... .. . ... ... ... : ... .. . ... ... ... : ... .. . P84 ... ... : ... .. . P7C ... ...
ROW 32 : ... .. . ... ... ... : ... .. . P82 ... ... : ... .. . ... ... ... : ... .. . ... ... ... : ... .. . ... ... ... : ... .. . P82 ... ... : ... .. . ... ... ... : --- .. . ... ... ...
ROW 33 : C#4 02 . ... ... ... : ... .. . P80 ... ... : ... .. . P81 ... ... : ... .. 8 ... ... ... : ... .. . ... ... ... : ... .. . P80 ... ... : ... .. . P83 ... ... : ... .. . ... ... ...
ROW 34 : F#3 02 . ... ... ... : ... .. 5 P7E ... ... : ... .. . ... ... ... : ... .. . ... ... ... : ... .. . ... ... ... : ... .. . P7E ... ... : ... .. . P80 ... ... : ... .. . ... ... ...
ROW 35 : ... .. 9 ... ... ... : ... .. . P7D ... ... : ... .. . ... ... ... : ... .. 9 ... ... ... : ... .. . ... ... ... : ... .. . P7C ... ... : ... .. . P7F ... ... : ... .. . ... ... ...
ROW 36 : C#4 02 8 ... ... ... : ... .. . ... ... ... : ... .. . P80 ... ... : 8-# 00 . ... ... ... : ... .. . ... ... ... : ... .. . ... ... ... : ... .. . P7C ... ... : ... .. . ... ... ...
ROW 37 : F#3 02 . ... ... ... : ... .. . P7F ... ... : ... .. . ... ... ... : ... .. A ... ... ... : ... .. . ... ... ... : ... .. . P7D ... ... : ... .. . ... ... ... : ... .. . ... ... ...
ROW 38 : ... .. 7 ... ... ... : ... .. . P81 ... ... : ... .. . ... ... ... : ... .. . ... ... ... : C-1 0A . ... ... ... : ... .. . P80 ... ... : ... .. . P7D ... ... : G#1 03 4 P83 ... ...
ROW 39 : C#4 02 6 ... ... ... : ... .. . P83 ... ... : ... .. . P7F ... ... : ... .. B ... ... ... : ... .. . ... ... ... : ... .. . P81 ... ... : ... .. . P7F ... ... : ... .. . P81 ... ...
ROW 3A : F#3 02 4 ... ... ... : ... .. . ... ... ... : ... .. . ... ... ... : ... .. . ... ... ... : ... .. . ... ... ... : ... .. . P84 ... ... : ... .. . P80 ... ... : ... .. . P80 ... ...
ROW 3B : ... .. . ... ... ... : ... .. 6 P82 ... ... : ... .. . P80 ... ... : ... .. C ... ... ... : ... .. . ... ... ... : ... .. . ... ... ... : ... .. . P83 ... ... : ... .. . P7D ... ...
ROW 3C : C#4 02 2 ... ... ... : ... .. . P80 ... ... : ... .. . ... ... ... : A-# 00 . ... ... ... : ... .. . ... ... ... : ... .. . P83 ... ... : ... .. . P84 ... ... : ... .. . P7C ... ...
ROW 3D : F#3 02 . ... ... ... : ... .. . P7E ... ... : ... .. . ... ... ... : ... .. D ... ... ... : ... .. . ... ... ... : ... .. . P81 ... ... : ... .. . ... ... ... : ... .. . ... ... ...
ROW 3E : ... .. 1 ... ... ... : ... .. . P7D ... ... : ... .. . P81 ... ... : ... .. . ... ... ... : ... .. . ... ... ... : ... .. . P80 ... ... : ... .. . P82 ... ... : ... .. . P7E ... ...
ROW 3F : C#4 02 . ... ... ... : ... .. 7 ... ... ... : ... .. . ... ... ... : ... .. E ... ... ... : ... .. . ... ... ... : ... .. . P7D ... ... : ... .. . P80 ... ... : ... .. . P80 ... ...
ROW 40 : F#3 02 . ... ... ... : ... .. . P7F ... ... : ... .. . ... ... ... : ... .. . ... ... ... : ... .. . ... ... ... : ... .. . P7C ... ... : ... .. . P7E ... ... : ... .. . P82 ... ...
ROW 41 : --- .. . ... ... ... : ... .. . P80 ... ... : ... .. . P80 ... ... : ... .. F ... ... ... : ... .. . ... ... ... : ... .. . ... ... ... : ... .. . P7C ... ... : ... .. . P84 ... ...
ROW 42 : ... .. . ... ... ... : ... .. . P83 ... ... : ... .. . ... ... ... : C-# 00 . ... ... ... : ... .. . ... ... ... : ... .. . P7E ... ... : ... .. . ... ... ... : ... .. . ... ... ...
ROW 43 : ... .. . ... ... ... : ... .. 8 ... ... ... : ... .. . P7F ... ... : ... .. . ... ... ... : ... .. . ... ... ... : ... .. . P80 ... ... : ... .. . P7D ... ... : ... .. . P83 ... ...
ROW 44 : ... .. . ... ... ... : ... .. . P82 ... ... : ... .. . ... ... ... : ... .. . ... ... ... : ... .. . ... ... ... : ... .. . P82 ... ... : ... .. . P80 ... ... : ... .. . P80 ... ...
ROW 45 : ... .. . ... ... ... : ... .. . P80 ... ... : ... .. . ... ... ... : ... .. . ... ... ... : ... .. . ... ... ... : ... .. . P84 ... ... : ... .. . P81 ... ... : ... .. . P7F ... ...
ROW 46 : ... .. . ... ... ... : ... .. . P7F ... ... : ... .. . P80 ... ... : ... .. . ... ... ... : ... .. . ... ... ... : ... .. . ... ... ... : ... .. . P84 ... ... : ... .. . P7C ... ...
ROW 47 : ... .. . ... ... ... : ... .. 9 P7D ... ... : ... .. . ... ... ... : ... .. . ... ... ... : ... .. . ... ... ... : ... .. . P83 ... ... : ... .. . ... ... ... : ... .. . ... ... ...
ROW 48 : ... .. . ... ... ... : ... .. . ... ... ... : E-4 00 . ... ... ... : B-# 00 C ... ... ... : ... .. . ... ... ... : E-4 03 D P80 ... ... : --- .. . ... ... ... : ... .. . P7D ... ...
ROW 49 : ... .. . ... ... ... : ... .. . P7F ... ... : ... .. . ... ... ... : ... .. . ... ... ... : ... .. . ... ... ... : ... .. . P7F ... ... : ... .. . ... ... ... : ... .. . P7F ... ...
ROW 4A : ... .. . ... ... ... : ... .. . P80 ... ... : ... .. . ... ... ... : ... .. A ... ... ... : ... .. . ... ... ... : ... .. . P7C ... ... : ... .. . ... ... ... : ... .. . P80 ... ...
ROW 4B : ... .. . ... ... ... : ... .. A P82 ... ... : ... .. . ... ... ... : ... .. 9 ... ... ... : ... .. . ... ... ... : ... .. . ... ... ... : ... .. . ... ... ... : ... .. . P83 ... ...
ROW 4C : G#3 00 8 ... ... ... : ... .. . P83 ... ... : ... .. . ... ... ... : --- .. . ... ... ... : ... .. . ... ... ... : ... .. . P7D ... ... : ... .. . ... ... ... : ... .. . P84 ... ...
ROW 4D : ... .. . ... ... ... : ... .. . ... ... ... : ... .. . ... ... ... : ... .. . ... ... ... : ... .. . ... ... ... : E-4 04 . P7F ... ... : ... .. . ... ... ... : ... .. . ... ... ...
ROW 4E : D#4 00 . ... ... ... : ... .. . P80 ... ... : B-3 00 . ... ... ... : ... .. . ... ... ... : ... .. . ... ... ... : ... .. . P81 ... ... : ... .. . ... ... ... : ... .. . P82 ... ...
ROW 4F : G#3 00 . ... ... ... : ... .. B P7F ... ... : ... .. . ... ... ... : ... .. . ... ... ... : ... .. . ... ... ... : E-4 05 . P83 ... ... : ... .. . ... ... ... : ... .. . P80 ... ...
ROW 50 : ... .. . ... ... ... : ... .. . P7D ... ... : ... .. . ... ... ... : ... .. . ... ... ... : D#1 0A . ... ... ... : E-4 06 . ... ... ... : ... .. . ... ... ... : G#2 03 . P7E ... ...
ROW 51 : D#4 00 . ... ... ... : ... .. . ... ... ... : ... .. . ... ... ... : ... .. . ... ... ... : ... .. . ... ... ... : E-4 07 . P82 ... ... : ... .. . ... ... ... : ... .. . P7C ... ...
ROW 52 : G#3 00 A ... ... ... : ... .. . P7E ... ... : ... .. . ... ... ... : ... .. . ... ... ... : ... .. . ... ... ... : E-4 08 . P80 ... ... : ... .. . ... ... ... : ... .. . ... ... ...
ROW 53 : G#3 01 . ... ... ... : ... .. . P80 ... ... : ... .. . ... ... ... : ... .. . ... ... ... : ... .. . ... ... ... : E-4 09 . P7E ... ... : ... .. . ... ... ... : ... .. . P7D ... ...
ROW 54 : D#4 01 . ... ... ... : ... .. . P82 ... ... : F#4 00 . ... ... ... : D-# 00 A ... ... ... : ... .. . ... ... ... : ... .. . P7D ... ... : E-4 03 7 P80 ... ... : ... .. . P80 ... ...
ROW 55 : G#3 01 . ... ... ... : ... .. . P83 ... ... : ... .. . ... ... ... : ... .. . ... ... ... : ... .. . ... ... ... : ... .. . ... ... ... : ... .. . P7F ... ... : ... .. . P81 ... ...
ROW 56 : ... .. . ... ... ... : ... .. . ... ... ... : ... .. . ... ... ... : ... .. 8 ... ... ... : ... .. . ... ... ... : ... .. . P7F ... ... : ... .. . P7C ... ... : ... .. . P84 ... ...
ROW 57 : D#4 02 . ... ... ... : ... .. C P81 ... ... : ... .. . ... ... ... : ... .. . ... ... ... : ... .. . ... ... ... : ... .. . P80 ... ... : ... .. . ... ... ... : ... .. . ... ... ...
ROW 58 : G#3 02 . ... ... ... : ... .. . P7F ... ... : ... .. . ... ... ... : --- .. . ... ... ... : ... .. . ... ... ... : ... .. . P83 ... ... : ... .. . P7D ... ... : ... .. . P83 ... ...
ROW 59 : ... .. 9 ... ... ... : ... .. . P7D ... ... : ... .. . ... ... ... : ... .. . ... ... ... : ... .. . ... ... ... : ... .. . ... ... ... : E-4 04 . P7F ... ... : ... .. . P81 ... ...
ROW 5A : D#4 02 8 ... ... ... : ... .. . ... ... ... : B-3 00 . ... ... ... : ... .. . ... ... ... : ... .. . ... ... ... : ... .. . P82 ... ... : ... .. . P81 ... ... : ... .. . P80 ... ...
ROW 5B : G#3 02 . ... ... ... : ... .. . P7E ... ... : ... .. . ... ... ... : ... .. . ... ... ... : ... .. . ... ... ... : ... .. . P80 ... ... : E-4 05 . P83 ... ... : ... .. . P7D ... ...
ROW 5C : ... .. 7 ... ... ... : ... .. . P80 ... ... : ... .. . ... ... ... : ... .. . ... ... ... : ... .. . ... ... ... : ... .. . P7F ... ... : E-4 06 . ... ... ... : ... .. . P7C ... ...
ROW 5D : D#4 02 6 ... ... ... : ... .. . P82 ... ... : ... .. . ... ... ... : ... .. . ... ... ... : ... .. . ... ... ... : ... .. . P7D ... ... : E-4 07 . P82 ... ... : ... .. . ... ... ...
ROW 5E : G#3 02 4 ... ... ... : ... .. . P83 ... ... : ... .. . ... ... ... : ... .. . ... ... ... : ... .. . ... ... ... : ... .. . ... ... ... : E-4 08 . P80 ... ... : ... .. . P7E ... ...
ROW 5F : ... .. . ... ... ... : ... .. D ... ... ... : ... .. . ... ... ... : ... .. . ... ... ... : ... .. . ... ... ... : ... .. . P7F ... ... : E-4 09 . P7E ... ... : ... .. . P80 ... ...
ROW 60 : D#4 02 2 ... ... ... : ... .. . P81 ... ... : G#4 00 . ... ... ... : B-# 00 B ... ... ... : ... .. . ... ... ... : ... .. . P80 ... ... : ... .. . P7D ... ... : ... .. . P82 ... ...
ROW 61 : G#3 02 . ... ... ... : ... .. . P80 ... ... : ... .. . ... ... ... : ... .. . ... ... ... : ... .. . ... ... ... : ... .. . P82 ... ... : ... .. . ... ... ... : ... .. . P84 ... ...
ROW 62 : ... .. 1 ... ... ... : ... .. . P7D ... ... : ... .. . ... ... ... : ... .. 9 ... ... ... : ... .. . ... ... ... : ... .. . P83 ... ... : ... .. . P7F ... ... : ... .. . ... ... ...
ROW 63 : D#4 02 . ... ... ... : ... .. . ... ... ... : ... .. . ... ... ... : ... .. 8 ... ... ... : ... .. . ... ... ... : ... .. . ... ... ... : ... .. . P80 ... ... : ... .. . P83 ... ...
ROW 64 : G#3 00 8 ... ... ... : ... .. . P7E ... ... : ... .. . ... ... ... : --- .. . ... ... ... : ... .. . ... ... ... : ... .. . P80 ... ... : ... .. . P83 ... ... : ... .. . P80 ... ...
ROW 65 : ... .. . ... ... ... : ... .. . P80 ... ... : ... .. . ... ... ... : ... .. . ... ... ... : ... .. . ... ... ... : ... .. . P7F ... ... : ... .. . ... ... ... : ... .. . P7F ... ...
ROW 66 : D#4 00 . ... ... ... : ... .. . P81 ... ... : B-3 00 . ... ... ... : ... .. . ... ... ... : ... .. . ... ... ... : --- .. . ... ... ... : ... .. . P82 ... ... : ... .. . P7C ... ...
ROW 67 : G#3 00 7 ... ... ... : ... .. E P83 ... ... : ... .. . ... ... ... : ... .. . ... ... ... : ... .. . ... ... ... : ... .. . ... ... ... : ... .. . P80 ... ... : ... .. . ... ... ...
ROW 68 : ... .. 6 ... ... ... : A#3 00 B P80 ... ... : ... .. . ... ... ... : ... .. . ... ... ... : C-1 0A . ... ... ... : ... .. . ... ... ... : ... .. . P7F ... ... : G#1 03 . P7D ... ...
ROW 69 : D#4 00 . ... ... ... : ... .. . ... ... ... : ... .. . ... ... ... : ... .. . ... ... ... : ... .. . ... ... ... : ... .. . ... ... ... : ... .. . P7D ... ... : ... .. . P7F ... ...
ROW 6A : G#3 00 5 ... ... ... : ... .. . ... ... ... : ... .. . ... ... ... : ... .. . ... ... ... : ... .. . ... ... ... : ... .. . ... ... ... : ... .. . ... ... ... : ... .. . P80 ... ...
ROW 6B : G#3 01 . ... ... ... : ... .. . ... ... ... : ... .. . ... ... ... : ... .. . ... ... ... : ... .. . ... ... ... : ... .. . ... ... ... : ... .. . P7F ... ... : ... .. . P83 ... ...
ROW 6C : D#4 01 3 ... ... ... : ... .. . ... ... ... : A#4 00 . ... ... ... : A-# 00 F ... ... ... : ... .. . ... ... ... : E-4 03 . P80 ... ... : ... .. . P80 ... ... : ... .. . P84 ... ...
ROW 6D : G#3 01 . ... ... ... : ... .. . ... ... ... : ... .. . ... ... ... : ... .. E ... ... ... : ... .. . ... ... ... : ... .. . ... ... ... : ... .. . P82 ... ... : ... .. . ... ... ...
ROW 6E : ... .. 2 ... ... ... : ... .. . ... ... ... : ... .. . ... ... ... : ... .. C ... ... ... : ... .. . ... ... ... : ... .. . ... ... ... : ... .. . P83 ... ... : ... .. . P82 ... ...
ROW 6F : D#4 02 1 ... ... ... : A#3 01 . ... ... ... : ... .. . ... ... ... : ... .. A ... ... ... : ... .. . ... ... ... : ... .. . ... ... ... : ... .. . ... ... ... : ... .. . P80 ... ...
ROW 70 : G#3 00 8 ... ... ... : ... .. . ... ... ... : ... .. . ... ... ... : --- .. . ... ... ... : ... .. . ... ... ... : ... .. . ... ... ... : ... .. . P80 ... ... : ... .. . P7E ... ...
ROW 71 : ... .. . ... ... ... : ... .. . ... ... ... : ... .. . ... ... ... : ... .. . ... ... ... : ... .. . ... ... ... : E-4 04 . ... ... ... : ... .. . P7F ... ... : ... .. . P7C ... ...
ROW 72 : D#4 00 . ... ... ... : ... .. . ... ... ... : B-3 00 . ... ... ... : ... .. . ... ... ... : ... .. . ... ... ... : --- .. . ... ... ... : --- .. . ... ... ... : ... .. . ... ... ...
ROW 73 : G#3 00 . ... ... ... : A#3 02 . ... ... ... : ... .. . ... ... ... : ... .. . ... ... ... : ... .. . ... ... ... : ... .. . ... ... ... : ... .. . ... ... ... : ... .. . P7D ... ...
ROW 74 : ... .. . ... ... ... : B-3 00 . ... ... ... : ... .. . ... ... ... : ... .. . ... ... ... : ... .. . ... ... ... : ... .. . ... ... ... : ... .. . ... ... ... : ... .. . P80 ... ...
ROW 75 : D#4 00 . ... ... ... : ... .. . ... ... ... : ... .. . ... ... ... : ... .. . ... ... ... : ... .. . ... ... ... : ... .. . ... ... ... : ... .. . ... ... ... : ... .. . P81 ... ...
ROW 76 : --- .. . ... ... ... : ... .. . ... ... ... : ... .. . ... ... ... : ... .. . ... ... ... : ... .. . ... ... ... : ... .. . ... ... ... : ... .. . ... ... ... : ... .. . P84 ... ...
ROW 77 : ... .. . ... ... ... : ... .. . ... ... ... : ... .. . ... ... ... : ... .. . ... ... ... : ... .. . ... ... ... : ... .. . ... ... ... : ... .. . ... ... ... : ... .. . ... ... ...
ROW 78 : ... .. . ... ... ... : ... .. . ... ... ... : B-4 00 . ... ... ... : B-# 00 C ... ... ... : ... .. . ... ... ... : E-4 03 . ... ... ... : E-4 03 . P80 ... ... : ... .. . P83 ... ...
ROW 79 : ... .. . ... ... ... : ... .. . ... ... ... : ... .. . ... ... ... : ... .. . ... ... ... : ... .. . ... ... ... : ... .. . ... ... ... : ... .. . ... ... ... : ... .. . P81 ... ...
ROW 7A : ... .. . ... ... ... : ... .. . ... ... ... : ... .. . ... ... ... : ... .. A ... ... ... : ... .. . ... ... ... : ... .. . ... ... ... : ... .. . ... ... ... : ... .. . P80 ... ...
ROW 7B : ... .. . ... ... ... : B-3 01 . ... ... ... : ... .. . ... ... ... : ... .. 9 ... ... ... : ... .. . ... ... ... : ... .. . ... ... ... : ... .. . ... ... ... : ... .. . P7D ... ...
ROW 7C : G#3 00 . ... ... ... : ... .. . ... ... ... : ... .. . ... ... ... : --- .. . ... ... ... : ... .. . ... ... ... : ... .. . ... ... ... : ... .. . ... ... ... : ... .. . P7C ... ...
ROW 7D : ... .. . ... ... ... : ... .. . ... ... ... : ... .. . ... ... ... : ... .. . ... ... ... : ... .. . ... ... ... : E-4 04 . ... ... ... : E-4 04 . ... ... ... : ... .. . ... ... ...
ROW 7E : D#4 00 . ... ... ... : ... .. . ... ... ... : B-3 00 . ... ... ... : ... .. . ... ... ... : ... .. . ... ... ... : ... .. . ... ... ... : --- .. . ... ... ... : ... .. . P7E ... ...
ROW 7F : G#3 00 . ... ... ... : B-3 02 . ... ... ... : ... .. . ... ... ... : ... .. . ... ... ... : ... .. . ... ... ... : E-4 05 . ... ... ... : ... .. . ... ... ... : ... .. . P80 ... ...
ROW 80 : ... .. . ... ... ... : A#3 00 . ... ... ... : ... .. . ... ... ... : ... .. . ... ... ... : D#1 0A . ... ... ... : E-4 06 . ... ... ... : ... .. . ... ... ... : ... .. . P82 ... ...
ROW 81 : D#4 00 . ... ... ... : ... .. . ... ... ... : ... .. . ... ... ... : ... .. . ... ... ... : ... .. . ... ... ... : E-4 07 . ... ... ... : ... .. . ... ... ... : ... .. . P84 ... ...
ROW 82 : G#3 00 A ... ... ... : ... .. . ... ... ... : ... .. . ... ... ... : ... .. . ... ... ... : ... .. . ... ... ... : E-4 08 . ... ... ... : ... .. . ... ... ... : ... .. . ... ... ...
ROW 83 : G#3 01 . ... ... ... : ... .. . ... ... ... : ... .. . ... ... ... : ... .. . ... ... ... : ... .. . ... ... ... : E-4 09 . ... ... ... : ... .. . ... ... ... : ... .. . P83 ... ...
ROW 84 : D#4 01 . ... ... ... : ... .. . ... ... ... : A#4 00 . ... ... ... : D-# 00 A ... ... ... : ... .. . ... ... ... : D#4 03 . ... ... ... : E-4 03 . ... ... ... : ... .. . P80 ... ...
ROW 85 : G#3 01 . ... ... ... : ... .. . ... ... ... : ... .. . ... ... ... : ... .. . ... ... ... : ... .. . ... ... ... : ... .. . ... ... ... : ... .. . ... ... ... : ... .. . P7F ... ...
ROW 86 : ... .. . ... ... ... : ... .. . ... ... ... : ... .. . ... ... ... : ... .. 8 ... ... ... : ... .. . ... ... ... : ... .. . ... ... ... : ... .. . ... ... ... : --- .. . ... ... ...
ROW 87 : D#4 02 . ... ... ... : A#3 01 . ... ... ... : ... .. . ... ... ... : ... .. . ... ... ... : ... .. . ... ... ... : ... .. . ... ... ... : ... .. . ... ... ... : ... .. . ... ... ...
ROW 88 : F#3 00 8 ... ... ... : ... .. . ... ... ... : ... .. . ... ... ... : --- .. . ... ... ... : ... .. . ... ... ... : ... .. . ... ... ... : ... .. . ... ... ... : ... .. . ... ... ...
ROW 89 : B-3 00 . ... ... ... : ... .. . ... ... ... : ... .. . ... ... ... : ... .. . ... ... ... : ... .. . ... ... ... : D#4 04 . ... ... ... : E-4 04 . ... ... ... : ... .. . ... ... ...
ROW 8A : D#4 00 . ... ... ... : ... .. . ... ... ... : B-3 00 . ... ... ... : ... .. . ... ... ... : ... .. . ... ... ... : ... .. . ... ... ... : ... .. . ... ... ... : ... .. . ... ... ...
ROW 8B : F#3 00 . ... ... ... : A#3 02 . ... ... ... : ... .. . ... ... ... : ... .. . ... ... ... : ... .. . ... ... ... : D#4 05 . ... ... ... : E-4 05 . ... ... ... : ... .. . ... ... ...
ROW 8C : B-3 00 . ... ... ... : B-3 00 . ... ... ... : ... .. . ... ... ... : ... .. . ... ... ... : C-1 0A . ... ... ... : D#4 06 . ... ... ... : E-4 06 . ... ... ... : G#1 03 5 P84 ... ...
ROW 8D : D#4 00 . ... ... ... : ... .. . ... ... ... : ... .. . ... ... ... : ... .. . ... ... ... : ... .. . ... ... ... : D#4 07 . ... ... ... : E-4 07 . ... ... ... : ... .. . ... ... ...
ROW 8E : F#3 00 A ... ... ... : ... .. . ... ... ... : ... .. . ... ... ... : ... .. . ... ... ... : ... .. . ... ... ... : D#4 08 . ... ... ... : E-4 08 . ... ... ... : ... .. . P82 ... ...
ROW 8F : B-3 01 . ... ... ... : ... .. . ... ... ... : ... .. . ... ... ... : ... .. . ... ... ... : ... .. . ... ... ... : D#4 09 . ... ... ... : E-4 09 . ... ... ... : ... .. . P80 ... ...
ROW 90 : D#4 01 . ... ... ... : ... .. . ... ... ... : G#4 00 . ... ... ... : B-# 00 B ... ... ... : ... .. . ... ... ... : C#4 03 . ... ... ... : D#4 03 . ... ... ... : ... .. . P7E ... ...
ROW 91 : F#3 01 . ... ... ... : ... .. . ... ... ... : ... .. . ... ... ... : ... .. . ... ... ... : ... .. . ... ... ... : ... .. . ... ... ... : ... .. . ... ... ... : ... .. . P7C ... ...
ROW 92 : B-3 01 . ... ... ... : ... .. . ... ... ... : ... .. . ... ... ... : ... .. 9 ... ... ... : ... .. . ... ... ... : ... .. . ... ... ... : ... .. . ... ... ... : --- .. . ... ... ...
ROW 93 : D#4 02 . ... ... ... : B-3 01 . ... ... ... : ... .. . ... ... ... : ... .. 8 ... ... ... : ... .. . ... ... ... : ... .. . ... ... ... : ... .. . ... ... ... : ... .. . ... ... ...
ROW 94 : F#3 02 . ... ... ... : ... .. . ... ... ... : ... .. . ... ... ... : --- .. . ... ... ... : ... .. . ... ... ... : ... .. . ... ... ... : ... .. . ... ... ... : ... .. . ... ... ...
ROW 95 : B-3 02 9 ... ... ... : ... .. . ... ... ... : ... .. . ... ... ... : ... .. . ... ... ... : ... .. . ... ... ... : C#4 04 . ... ... ... : D#4 04 . ... ... ... : ... .. . ... ... ...
ROW 96 : D#4 02 8 ... ... ... : ... .. . ... ... ... : B-3 00 . ... ... ... : ... .. . ... ... ... : ... .. . ... ... ... : ... .. . ... ... ... : ... .. . ... ... ... : ... .. . ... ... ...
ROW 97 : F#3 02 . ... ... ... : B-3 02 . ... ... ... : ... .. . ... ... ... : ... .. . ... ... ... : ... .. . ... ... ... : C#4 05 . ... ... ... : D#4 05 . ... ... ... : ... .. . ... ... ...
ROW 98 : B-3 02 7 ... ... ... : A#3 00 . ... ... ... : ... .. . ... ... ... : ... .. . ... ... ... : C-1 0A . ... ... ... : C#4 06 . ... ... ... : D#4 06 . ... ... ... : G#1 03 4 P83 ... ...
ROW 99 : D#4 02 6 ... ... ... : ... .. . ... ... ... : ... .. . ... ... ... : ... .. . ... ... ... : ... .. . ... ... ... : C#4 07 . ... ... ... : D#4 07 . ... ... ... : ... .. . P81 ... ...
ROW 9A : F#3 02 4 ... ... ... : ... .. . ... ... ... : ... .. . ... ... ... : ... .. . ... ... ... : ... .. . ... ... ... : C#4 08 . ... ... ... : D#4 08 . ... ... ... : ... .. . P80 ... ...
ROW 9B : B-3 02 . ... ... ... : ... .. . ... ... ... : ... .. . ... ... ... : ... .. . ... ... ... : ... .. . ... ... ... : C#4 09 . ... ... ... : D#4 09 . ... ... ... : ... .. . P7D ... ...
ROW 9C : D#4 02 2 ... ... ... : ... .. . ... ... ... : F#4 00 . ... ... ... : A-# 00 F ... ... ... : ... .. . ... ... ... : B-3 03 . ... ... ... : C#4 03 . ... ... ... : ... .. . P7C ... ...
ROW 9D : F#3 02 . ... ... ... : ... .. . ... ... ... : ... .. . ... ... ... : ... .. E ... ... ... : ... .. . ... ... ... : ... .. . ... ... ... : ... .. . ... ... ... : ... .. . ... ... ...
ROW 9E : B-3 02 1 ... ... ... : ... .. . ... ... ... : ... .. . ... ... ... : ... .. C ... ... ... : ... .. . ... ... ... : ... .. . ... ... ... : ... .. . ... ... ... : ... .. . P7E ... ...
ROW 9F : D#4 02 . ... ... ... : A#3 01 . ... ... ... : ... .. . ... ... ... : ... .. A ... ... ... : ... .. . ... ... ... : ... .. . ... ... ... : ... .. . ... ... ... : ... .. . P80 ... ...
ROW A0 : F#3 02 . ... ... ... : ... .. . ... ... ... : ... .. . ... ... ... : --- .. . ... ... ... : ... .. . ... ... ... : ... .. . ... ... ... : ... .. . ... ... ... : ... .. . P82 ... ...
ROW A1 : --- .. . ... ... ... : ... .. . ... ... ... : ... .. . ... ... ... : ... .. . ... ... ... : ... .. . ... ... ... : B-3 04 . ... ... ... : C#4 04 . ... ... ... : ... .. . P84 ... ...
ROW A2 : ... .. . ... ... ... : ... .. . ... ... ... : B-3 00 . ... ... ... : ... .. . ... ... ... : ... .. . ... ... ... : ... .. . ... ... ... : ... .. . ... ... ... : ... .. . ... ... ...
ROW A3 : ... .. . ... ... ... : A#3 02 . ... ... ... : ... .. . ... ... ... : ... .. . ... ... ... : ... .. . ... ... ... : B-3 05 . ... ... ... : C#4 05 . ... ... ... : ... .. . P83 ... ...
ROW A4 : ... .. . ... ... ... : B-3 00 . ... ... ... : ... .. . ... ... ... : ... .. . ... ... ... : ... .. . ... ... ... : B-3 06 . ... ... ... : C#4 06 . ... ... ... : ... .. . P80 ... ...
ROW A5 : ... .. . ... ... ... : ... .. . ... ... ... : ... .. . ... ... ... : ... .. . ... ... ... : ... .. . ... ... ... : B-3 07 . ... ... ... : C#4 07 . ... ... ... : ... .. . P7F ... ...
ROW A6 : ... .. . ... ... ... : ... .. . ... ... ... : ... .. . ... ... ... : ... .. . ... ... ... : ... .. . ... ... ... : B-3 08 . ... ... ... : C#4 08 . ... ... ... : ... .. . P7C ... ...
ROW A7 : ... .. . ... ... ... : ... .. . ... ... ... : ... .. . ... ... ... : ... .. . ... ... ... : ... .. . ... ... ... : B-3 09 . ... ... ... : C#4 09 . ... ... ... : ... .. . ... ... ...
ROW A8 : ... .. . ... ... ... : ... .. . ... ... ... : F#4 00 . ... ... ... : B-# 00 C ... ... ... : ... .. . ... ... ... : A#3 03 . ... ... ... : B-3 03 . ... ... ... : ... .. . P7D ... ...
ROW A9 : ... .. . ... ... ... : ... .. . ... ... ... : ... .. . ... ... ... : ... .. . ... ... ... : ... .. . ... ... ... : ... .. . ... ... ... : ... .. . ... ... ... : ... .. . P7F ... ...
ROW AA : ... .. . ... ... ... : ... .. . ... ... ... : ... .. . ... ... ... : ... .. A ... ... ... : ... .. . ... ... ... : ... .. . ... ... ... : ... .. . ... ... ... : ... .. . P80 ... ...
ROW AB : ... .. . ... ... ... : B-3 01 . ... ... ... : ... .. . ... ... ... : ... .. 9 ... ... ... : ... .. . ... ... ... : ... .. . ... ... ... : ... .. . ... ... ... : ... .. . P83 ... ...
ROW AC : F#3 00 8 ... ... ... : ... .. . ... ... ... : ... .. . ... ... ... : --- .. . ... ... ... : ... .. . ... ... ... : ... .. . ... ... ... : ... .. . ... ... ... : ... .. . P84 ... ...
ROW AD : ... .. . ... ... ... : ... .. . ... ... ... : ... .. . ... ... ... : ... .. . ... ... ... : ... .. . ... ... ... : A#3 04 . ... ... ... : B-3 04 . ... ... ... : ... .. . ... ... ...
ROW AE : B-3 01 . ... ... ... : ... .. . ... ... ... : C#4 00 . ... ... ... : ... .. . ... ... ... : ... .. . ... ... ... : ... .. . P82 ... ... : ... .. . ... ... ... : ... .. . P82 ... ...
ROW AF : ... .. . ... ... ... : B-3 02 . ... ... ... : ... .. . ... ... ... : ... .. . ... ... ... : ... .. . ... ... ... : A#3 05 . P83 ... ... : B-3 05 . ... ... ... : ... .. . P80 ... ...
ROW B0 : D#4 02 . ... ... ... : A#3 00 . ... ... ... : ... .. . ... ... ... : ... .. . ... ... ... : D#1 0A . ... ... ... : A#3 06 . ... ... ... : B-3 06 . ... ... ... : G#2 03 . P7E ... ...
ROW B1 : ... .. . ... ... ... : ... .. . ... ... ... : ... .. . ... ... ... : ... .. . ... ... ... : ... .. . ... ... ... : A#3 07 . P81 ... ... : B-3 07 . ... ... ... : ... .. . P7C ... ...
ROW B2 : F#3 00 A ... ... ... : ... .. . ... ... ... : ... .. . ... ... ... : ... .. . ... ... ... : ... .. . ... ... ... : A#3 08 . P7F ... ... : B-3 08 . ... ... ... : ... .. . ... ... ...
ROW B3 : B-3 00 . ... ... ... : ... .. . ... ... ... : ... .. . ... ... ... : ... .. . ... ... ... : ... .. . ... ... ... : A#3 09 . P7D ... ... : B-3 09 . ... ... ... : ... .. . P7D ... ...
ROW B4 : D#4 01 . ... ... ... : ... .. . ... ... ... : G#4 00 . ... ... ... : D-# 00 A ... ... ... : ... .. . ... ... ... : ... .. . ... ... ... : A#3 03 . ... ... ... : ... .. . P80 ... ...
ROW B5 : F#3 01 . ... ... ... : ... .. . ... ... ... : ... .. . ... ... ... : ... .. . ... ... ... : ... .. . ... ... ... : ... .. . P7E ... ... : ... .. . ... ... ... : ... .. . P81 ... ...
ROW B6 : B-3 02 . ... ... ... : ... .. . ... ... ... : ... .. . ... ... ... : ... .. 8 ... ... ... : ... .. . ... ... ... : ... .. . P80 ... ... : ... .. . ... ... ... : ... .. . P84 ... ...
ROW B7 : D#4 02 . ... ... ... : A#3 01 . ... ... ... : ... .. . ... ... ... : ... .. . ... ... ... : ... .. . ... ... ... : ... .. . P82 ... ... : ... .. . ... ... ... : ... .. . ... ... ...
ROW B8 : F#3 00 . ... ... ... : ... .. . ... ... ... : ... .. . ... ... ... : --- .. . ... ... ... : ... .. . ... ... ... : ... .. . P83 ... ... : ... .. . ... ... ... : ... .. . P83 ... ...
ROW B9 : B-3 00 8 ... ... ... : ... .. . ... ... ... : ... .. . ... ... ... : ... .. . ... ... ... : ... .. . ... ... ... : ... .. . ... ... ... : A#3 04 . ... ... ... : ... .. . P81 ... ...
ROW BA : D#4 01 6 ... ... ... : ... .. . ... ... ... : C#4 00 . ... ... ... : ... .. . ... ... ... : ... .. . ... ... ... : ... .. . P81 ... ... : ... .. . P82 ... ... : ... .. . P80 ... ...
ROW BB : F#3 01 3 ... ... ... : A#3 02 . ... ... ... : ... .. . ... ... ... : ... .. . ... ... ... : ... .. . ... ... ... : ... .. . P80 ... ... : A#3 05 . P83 ... ... : ... .. . P7D ... ...
ROW BC : B-3 02 2 ... ... ... : B-3 00 . ... ... ... : ... .. . ... ... ... : ... .. . ... ... ... : ... .. . ... ... ... : ... .. . P7D ... ... : A#3 06 . ... ... ... : ... .. . P7C ... ...
ROW BD : D#4 02 1 ... ... ... : ... .. . ... ... ... : ... .. . ... ... ... : ... .. . ... ... ... : ... .. . ... ... ... : ... .. . ... ... ... : A#3 07 . P81 ... ... : ... .. . ... ... ...
ROW BE : --- .. . ... ... ... : ... .. . ... ... ... : ... .. . ... ... ... : ... .. . ... ... ... : ... .. . ... ... ... : ... .. . P7E ... ... : A#3 08 . P7F ... ... : ... .. . P7E ... ...
ROW BF : ... .. . ... ... ... : ... .. . ... ... ... : ... .. . ... ... ... : ... .. . ... ... ... : ... .. . ... ... ... : ... .. . P80 ... ... : A#3 09 . P7D ... ... : ... .. . P80 ... ...
ROW C0 : ... .. . ... ... ... : ... .. . ... ... ... : A#4 00 . ... ... ... : B-# 00 B ... ... ... : ... .. . ... ... ... : ... .. . P81 ... ... : ... .. . ... ... ... : ... .. . P82 ... ...
ROW C1 : ... .. . ... ... ... : ... .. . ... ... ... : ... .. . ... ... ... : ... .. . ... ... ... : ... .. . ... ... ... : ... .. . P83 ... ... : ... .. . P7E ... ... : ... .. . P84 ... ...
ROW C2 : ... .. . ... ... ... : ... .. . ... ... ... : ... .. . ... ... ... : ... .. 9 ... ... ... : ... .. . ... ... ... : ... .. . ... ... ... : ... .. . P80 ... ... : ... .. . ... ... ...
ROW C3 : ... .. . ... ... ... : B-3 01 . ... ... ... : ... .. . ... ... ... : ... .. 8 ... ... ... : ... .. . ... ... ... : ... .. . P81 ... ... : ... .. . P82 ... ... : ... .. . P83 ... ...
ROW C4 : F#3 00 8 ... ... ... : ... .. . ... ... ... : ... .. . ... ... ... : --- .. . ... ... ... : ... .. . ... ... ... : ... .. . P80 ... ... : ... .. . P83 ... ... : ... .. . P80 ... ...
ROW C5 : ... .. . ... ... ... : ... .. . ... ... ... : ... .. . ... ... ... : ... .. . ... ... ... : ... .. . ... ... ... : ... .. . P7E ... ... : ... .. . ... ... ... : ... .. . P7F ... ...
ROW C6 : A#3 01 . ... ... ... : ... .. . ... ... ... : C#4 00 . ... ... ... : ... .. . ... ... ... : ... .. . ... ... ... : ... .. . P7D ... ... : ... .. . P81 ... ... : ... .. . P7C ... ...
ROW C7 : ... .. 6 ... ... ... : B-3 02 . ... ... ... : ... .. . ... ... ... : ... .. . ... ... ... : ... .. . ... ... ... : ... .. . ... ... ... : ... .. . P80 ... ... : ... .. . ... ... ...
ROW C8 : C#4 02 4 ... ... ... : D#4 00 . ... ... ... : ... .. . ... ... ... : ... .. . ... ... ... : C-1 0A . ... ... ... : ... .. . P80 ... ... : ... .. . P7D ... ... : E-1 03 . P7D ... ...
ROW C9 : ... .. 2 ... ... ... : ... .. . ... ... ... : ... .. . ... ... ... : ... .. . ... ... ... : ... .. . ... ... ... : ... .. . P81 ... ... : ... .. . ... ... ... : ... .. . P7F ... ...
ROW CA : F#3 00 . ... ... ... : ... .. . ... ... ... : ... .. . ... ... ... : ... .. . ... ... ... : ... .. . ... ... ... : ... .. . P83 ... ... : ... .. . P7E ... ... : ... .. . P80 ... ...
ROW CB : A#3 00 1 ... ... ... : ... .. . ... ... ... : ... .. . ... ... ... : ... .. . ... ... ... : ... .. . ... ... ... : ... .. . ... ... ... : ... .. . P80 ... ... : ... .. . P83 ... ...
ROW CC : --- .. . ... ... ... : ... .. . ... ... ... : B-4 00 . ... ... ... : A-# 00 F ... ... ... : ... .. . ... ... ... : ... .. . P82 ... ... : ... .. . P81 ... ... : ... .. . P84 ... ...
ROW CD : ... .. . ... ... ... : ... .. . ... ... ... : ... .. . ... ... ... : ... .. E ... ... ... : ... .. . ... ... ... : ... .. . P80 ... ... : ... .. . P83 ... ... : ... .. . ... ... ...
ROW CE : ... .. . ... ... ... : ... .. . ... ... ... : ... .. . ... ... ... : ... .. C ... ... ... : ... .. . ... ... ... : ... .. . P7E ... ... : ... .. . ... ... ... : ... .. . P82 ... ...
ROW CF : ... .. . ... ... ... : D#4 01 . ... ... ... : ... .. . ... ... ... : ... .. A ... ... ... : ... .. . ... ... ... : ... .. . P7D ... ... : ... .. . P81 ... ... : ... .. . P80 ... ...
ROW D0 : F#3 00 8 ... ... ... : ... .. . ... ... ... : ... .. . ... ... ... : --- .. . ... ... ... : ... .. . ... ... ... : ... .. . ... ... ... : ... .. . P80 ... ... : ... .. . P7E ... ...
ROW D1 : ... .. . ... ... ... : ... .. . ... ... ... : ... .. . ... ... ... : ... .. . ... ... ... : ... .. . ... ... ... : ... .. . P7F ... ... : ... .. . P7E ... ... : ... .. . P7C ... ...
ROW D2 : A#3 01 . ... ... ... : ... .. . ... ... ... : C#4 00 . ... ... ... : ... .. . ... ... ... : ... .. . ... ... ... : ... .. . P81 ... ... : ... .. . P7D ... ... : ... .. . ... ... ...
ROW D3 : ... .. . ... ... ... : D#4 02 . ... ... ... : ... .. . ... ... ... : ... .. . ... ... ... : ... .. . ... ... ... : ... .. . P83 ... ... : ... .. . ... ... ... : ... .. . P7D ... ...
ROW D4 : C#4 02 . ... ... ... : D-4 02 . P85 ... ... : ... .. . ... ... ... : ... .. . ... ... ... : ... .. . ... ... ... : ... .. . ... ... ... : ... .. . P80 ... ... : ... .. . P80 ... ...
ROW D5 : ... .. . ... ... ... : ... .. . P80 ... ... : ... .. . ... ... ... : ... .. . ... ... ... : ... .. . ... ... ... : ... .. . P82 ... ... : ... .. . P81 ... ... : ... .. . P81 ... ...
ROW D6 : --- .. . ... ... ... : ... .. . P7B ... ... : ... .. . ... ... ... : ... .. . ... ... ... : ... .. . ... ... ... : ... .. . P80 ... ... : ... .. . P83 ... ... : ... .. . P84 ... ...
ROW D7 : ... .. . ... ... ... : C#4 02 . P82 ... ... : ... .. . ... ... ... : ... .. . ... ... ... : ... .. . ... ... ... : ... .. . P7E ... ... : ... .. . ... ... ... : ... .. . ... ... ...
ROW D8 : ... .. . ... ... ... : ... .. . P7D ... ... : C#5 00 . ... ... ... : B-# 00 C ... ... ... : ... .. . ... ... ... : F#4 03 . P80 ... ... : ... .. . P82 ... ... : ... .. . P83 ... ...
ROW D9 : ... .. . ... ... ... : C-4 02 . P84 ... ... : ... .. . ... ... ... : ... .. . ... ... ... : ... .. . ... ... ... : ... .. . ... ... ... : ... .. . P80 ... ... : ... .. . P81 ... ...
ROW DA : ... .. . ... ... ... : ... .. . P7F ... ... : ... .. . ... ... ... : ... .. A ... ... ... : ... .. . ... ... ... : ... .. . ... ... ... : ... .. . P7E ... ... : ... .. . P80 ... ...
ROW DB : ... .. . ... ... ... : B-3 02 . P86 ... ... : ... .. . ... ... ... : ... .. 9 ... ... ... : ... .. . ... ... ... : ... .. . ... ... ... : ... .. . P7D ... ... : ... .. . P7D ... ...
ROW DC : F#3 00 . ... ... ... : ... .. . P81 ... ... : ... .. . ... ... ... : --- .. . ... ... ... : ... .. . ... ... ... : ... .. . ... ... ... : ... .. . ... ... ... : ... .. . P7C ... ...
ROW DD : ... .. . ... ... ... : ... .. . P7C ... ... : ... .. . ... ... ... : ... .. . ... ... ... : ... .. . ... ... ... : F#4 04 . ... ... ... : ... .. . P7F ... ... : ... .. . ... ... ...
ROW DE : A#3 01 . ... ... ... : A#3 02 . P85 ... ... : C#4 00 . ... ... ... : ... .. . ... ... ... : ... .. . ... ... ... : ... .. . ... ... ... : ... .. . P81 ... ... : ... .. . P7E ... ...
ROW DF : ... .. . ... ... ... : ... .. . P80 ... ... : ... .. . ... ... ... : ... .. . ... ... ... : ... .. . ... ... ... : F#4 05 . ... ... ... : ... .. . P83 ... ... : ... .. . P80 ... ...
ROW E0 : C#4 02 . ... ... ... : E-5 02 A ... ... ... : ... .. . ... ... ... : ... .. . ... ... ... : D#1 0A . ... ... ... : F#4 06 . ... ... ... : ... .. . ... ... ... : ... .. . P82 ... ...
ROW E1 : ... .. . ... ... ... : ... .. . ... ... ... : ... .. . ... ... ... : ... .. . ... ... ... : ... .. . ... ... ... : F#4 07 . ... ... ... : ... .. . P82 ... ... : ... .. . P84 ... ...
ROW E2 : F#3 00 A ... ... ... : ... .. . ... ... ... : ... .. . ... ... ... : ... .. . ... ... ... : ... .. . ... ... ... : F#4 08 . ... ... ... : ... .. . P80 ... ... : ... .. . ... ... ...
ROW E3 : A#3 00 . ... ... ... : ... .. . ... ... ... : ... .. . ... ... ... : ... .. . ... ... ... : ... .. . ... ... ... : F#4 09 . ... ... ... : ... .. . P7E ... ... : ... .. . P83 ... ...
ROW E4 : C#4 01 . ... ... ... : ... .. . ... ... ... : B-4 00 . ... ... ... : D-# 00 A ... ... ... : ... .. . ... ... ... : ... .. . ... ... ... : F#4 03 . P80 ... ... : ... .. . P80 ... ...
ROW E5 : F#3 01 . ... ... ... : ... .. . ... ... ... : ... .. . ... ... ... : ... .. . ... ... ... : ... .. . ... ... ... : ... .. . ... ... ... : ... .. . ... ... ... : ... .. . P7F ... ...
ROW E6 : A#3 02 . ... ... ... : ... .. . P82 ... ... : ... .. . ... ... ... : ... .. 8 ... ... ... : ... .. . ... ... ... : ... .. . ... ... ... : ... .. . ... ... ... : --- .. . ... ... ...
ROW E7 : C#4 02 . ... ... ... : F-5 02 . P7E ... ... : ... .. . ... ... ... : ... .. . ... ... ... : ... .. . ... ... ... : ... .. . ... ... ... : ... .. . ... ... ... : ... .. . ... ... ...
ROW E8 : G#3 00 8 ... ... ... : ... .. . ... ... ... : ... .. . ... ... ... : --- .. . ... ... ... : ... .. . ... ... ... : ... .. . ... ... ... : ... .. . ... ... ... : ... .. . ... ... ...
ROW E9 : B-3 00 . ... ... ... : E-5 02 . P81 ... ... : ... .. . ... ... ... : ... .. . ... ... ... : ... .. . ... ... ... : ... .. . ... ... ... : F#4 04 . ... ... ... : ... .. . ... ... ...
ROW EA : D#4 00 . ... ... ... : ... .. . P7F ... ... : C#4 00 . ... ... ... : ... .. . ... ... ... : ... .. . ... ... ... : ... .. . ... ... ... : ... .. . ... ... ... : ... .. . ... ... ...
ROW EB : G#3 00 . ... ... ... : D#5 02 . P82 ... ... : ... .. . ... ... ... : ... .. . ... ... ... : ... .. . ... ... ... : ... .. . ... ... ... : F#4 05 . ... ... ... : ... .. . ... ... ...
ROW EC : B-3 00 . ... ... ... : ... .. . ... ... ... : ... .. . ... ... ... : ... .. . ... ... ... : C-1 0A . ... ... ... : ... .. . ... ... ... : F#4 06 . ... ... ... : E-1 03 5 P84 ... ...
ROW ED : D#4 00 . ... ... ... : E-5 02 . P7E ... ... : ... .. . ... ... ... : ... .. . ... ... ... : ... .. . ... ... ... : ... .. . ... ... ... : F#4 07 . ... ... ... : ... .. . ... ... ...
ROW EE : G#3 00 A ... ... ... : ... .. . P80 ... ... : ... .. . ... ... ... : ... .. . ... ... ... : ... .. . ... ... ... : ... .. . ... ... ... : F#4 08 . ... ... ... : ... .. . P82 ... ...
ROW EF : B-3 01 . ... ... ... : ... .. . P82 ... ... : ... .. . ... ... ... : ... .. . ... ... ... : ... .. . ... ... ... : ... .. . ... ... ... : F#4 09 . ... ... ... : ... .. . P80 ... ...
ROW F0 : D#4 01 . ... ... ... : F-5 02 . P7E ... ... : A#4 00 . ... ... ... : B-# 00 B ... ... ... : ... .. . ... ... ... : E-4 03 . ... ... ... : ... .. . ... ... ... : ... .. . P7E ... ...
ROW F1 : G#3 01 . ... ... ... : ... .. . ... ... ... : ... .. . ... ... ... : ... .. . ... ... ... : ... .. . ... ... ... : ... .. . ... ... ... : ... .. . ... ... ... : ... .. . P7C ... ...
ROW F2 : B-3 01 . ... ... ... : E-5 02 . P81 ... ... : ... .. . ... ... ... : ... .. 9 ... ... ... : ... .. . ... ... ... : ... .. . ... ... ... : ... .. . ... ... ... : --- .. . ... ... ...
ROW F3 : D#4 02 . ... ... ... : ... .. . P80 ... ... : ... .. . ... ... ... : ... .. 8 ... ... ... : ... .. . ... ... ... : ... .. . ... ... ... : ... .. . ... ... ... : ... .. . ... ... ...
ROW F4 : G#3 02 . ... ... ... : D#5 02 . P82 ... ... : ... .. . ... ... ... : --- .. . ... ... ... : ... .. . ... ... ... : ... .. . ... ... ... : ... .. . ... ... ... : ... .. . ... ... ...
ROW F5 : B-3 02 9 ... ... ... : ... .. . ... ... ... : ... .. . ... ... ... : ... .. . ... ... ... : ... .. . ... ... ... : E-4 04 . ... ... ... : ... .. . ... ... ... : ... .. . ... ... ...
ROW F6 : D#4 02 8 ... ... ... : E-5 02 . P7E ... ... : C#4 00 . ... ... ... : ... .. . ... ... ... : ... .. . ... ... ... : ... .. . ... ... ... : ... .. . ... ... ... : ... .. . ... ... ...
ROW F7 : G#3 02 . ... ... ... : ... .. . P80 ... ... : ... .. . ... ... ... : ... .. . ... ... ... : ... .. . ... ... ... : E-4 05 . ... ... ... : ... .. . ... ... ... : ... .. . ... ... ...
ROW F8 : B-3 02 7 ... ... ... : D#5 02 . ... ... ... : ... .. . ... ... ... : ... .. . ... ... ... : C-1 0A . ... ... ... : E-4 06 . ... ... ... : ... .. . ... ... ... : E-1 03 4 P83 ... ...
ROW F9 : D#4 02 6 ... ... ... : ... .. . ... ... ... : ... .. . ... ... ... : ... .. . ... ... ... : ... .. . ... ... ... : E-4 07 . ... ... ... : ... .. . ... ... ... : ... .. . P81 ... ...
ROW FA : G#3 02 4 ... ... ... : ... .. . ... ... ... : ... .. . ... ... ... : ... .. . ... ... ... : ... .. . ... ... ... : E-4 08 . ... ... ... : ... .. . ... ... ... : ... .. . P80 ... ...
ROW FB : B-3 02 . ... ... ... : ... .. . ... ... ... : ... .. . ... ... ... : ... .. . ... ... ... : ... .. . ... ... ... : E-4 09 . ... ... ... : ... .. . ... ... ... : ... .. . P7D ... ...
ROW FC : D#4 02 2 ... ... ... : ... .. . ... ... ... : G#4 00 . ... ... ... : A-# 00 F ... ... ... : ... .. . ... ... ... : ... .. . ... ... ... : E-4 03 . ... ... ... : ... .. . P7C ... ...
ROW FD : G#3 02 . ... ... ... : ... .. . ... ... ... : ... .. . ... ... ... : ... .. E ... ... ... : ... .. . ... ... ... : ... .. . ... ... ... : ... .. . ... ... ... : ... .. . ... ... ...
ROW FE : B-3 02 1 ... ... ... : ... .. . ... ... ... : ... .. . ... ... ... : ... .. C ... ... ... : ... .. . ... ... ... : ... .. . ... ... ... : ... .. . ... ... ... : ... .. . P7E ... ...
ROW FF : D#4 02 . ... ... ... : ... .. . ... ... ... : ... .. . ... ... ... : ... .. A ... ... ... : ... .. . ... ... ... : ... .. . ... ... ... : ... .. . ... ... ... : ... .. . P80 ... ...

PATTERN 0A
ROW 00 : G#3 02 . ... ... ... : ... .. . ... ... ... : ... .. . ... ... ... : --- .. . ... ... ... : ... .. . ... ... ... : ... .. . ... ... ... : ... .. . ... ... ... : ... .. . P82 ... ...
ROW 01 : --- .. . ... ... ... : ... .. . ... ... ... : ... .. . ... ... ... : ... .. . ... ... ... : ... .. . ... ... ... : ... .. . ... ... ... : E-4 04 . ... ... ... : ... .. . P84 ... ...
ROW 02 : ... .. . ... ... ... : ... .. . ... ... ... : C#4 00 . ... ... ... : ... .. . ... ... ... : ... .. . ... ... ... : ... .. . ... ... ... : ... .. . ... ... ... : ... .. . ... ... ...
ROW 03 : ... .. . ... ... ... : ... .. . ... ... ... : ... .. . ... ... ... : ... .. . ... ... ... : ... .. . ... ... ... : ... .. . ... ... ... : E-4 05 . ... ... ... : ... .. . P83 ... ...
ROW 04 : ... .. . ... ... ... : ... .. . ... ... ... : ... .. . ... ... ... : ... .. . ... ... ... : ... .. . ... ... ... : ... .. . ... ... ... : E-4 06 . ... ... ... : ... .. . P80 ... ...
ROW 05 : ... .. . ... ... ... : ... .. . ... ... ... : ... .. . ... ... ... : ... .. . ... ... ... : ... .. . ... ... ... : ... .. . ... ... ... : E-4 07 . ... ... ... : ... .. . P7F ... ...
ROW 06 : ... .. . ... ... ... : ... .. . ... ... ... : ... .. . ... ... ... : ... .. . ... ... ... : ... .. . ... ... ... : ... .. . ... ... ... : E-4 08 . ... ... ... : ... .. . P7C ... ...
ROW 07 : ... .. . ... ... ... : ... .. . ... ... ... : ... .. . ... ... ... : ... .. . ... ... ... : ... .. . ... ... ... : ... .. . ... ... ... : E-4 09 . ... ... ... : ... .. . ... ... ...
ROW 08 : ... .. . ... ... ... : ... .. . ... ... ... : G#4 00 . ... ... ... : B-# 00 C ... ... ... : ... .. . ... ... ... : D#4 03 . ... ... ... : ... .. . ... ... ... : ... .. . P7D ... ...
ROW 09 : ... .. . ... ... ... : ... .. . ... ... ... : ... .. . ... ... ... : ... .. . ... ... ... : ... .. . ... ... ... : ... .. . ... ... ... : ... .. . ... ... ... : ... .. . P7F ... ...
ROW 0A : ... .. . ... ... ... : ... .. . ... ... ... : ... .. . ... ... ... : ... .. A ... ... ... : ... .. . ... ... ... : ... .. . ... ... ... : ... .. . ... ... ... : ... .. . P80 ... ...
ROW 0B : ... .. . ... ... ... : ... .. . ... ... ... : ... .. . ... ... ... : ... .. 9 ... ... ... : ... .. . ... ... ... : ... .. . ... ... ... : ... .. . ... ... ... : ... .. . P83 ... ...
ROW 0C : G#3 00 8 ... ... ... : ... .. . ... ... ... : ... .. . ... ... ... : --- .. . ... ... ... : ... .. . ... ... ... : ... .. . ... ... ... : ... .. . ... ... ... : ... .. . P84 ... ...
ROW 0D : B-3 00 . ... ... ... : ... .. . ... ... ... : ... .. . ... ... ... : ... .. . ... ... ... : ... .. . ... ... ... : D#4 04 . ... ... ... : ... .. . ... ... ... : ... .. . ... ... ...
ROW 0E : D#4 00 . ... ... ... : ... .. . ... ... ... : C-4 00 . ... ... ... : ... .. . ... ... ... : ... .. . ... ... ... : ... .. . ... ... ... : ... .. . ... ... ... : ... .. . P82 ... ...
ROW 0F : G#3 00 . ... ... ... : ... .. . ... ... ... : ... .. . ... ... ... : ... .. . ... ... ... : ... .. . ... ... ... : D#4 05 . ... ... ... : ... .. . ... ... ... : ... .. . P80 ... ...
ROW 10 : B-3 00 . ... ... ... : C#5 02 9 ... ... ... : ... .. . ... ... ... : ... .. . ... ... ... : D#1 0A . ... ... ... : D#4 06 . ... ... ... : ... .. . ... ... ... : E-2 03 . P7E ... ...
ROW 11 : D#4 00 . ... ... ... : ... .. 7 ... ... ... : ... .. . ... ... ... : ... .. . ... ... ... : ... .. . ... ... ... : D#4 07 . ... ... ... : ... .. . ... ... ... : ... .. . P7C ... ...
ROW 12 : G#3 00 A ... ... ... : ... .. 6 ... ... ... : ... .. . ... ... ... : ... .. . ... ... ... : ... .. . ... ... ... : D#4 08 . ... ... ... : ... .. . ... ... ... : ... .. . ... ... ...
ROW 13 : B-3 01 . ... ... ... : ... .. 5 ... ... ... : ... .. . ... ... ... : ... .. . ... ... ... : ... .. . ... ... ... : D#4 09 . ... ... ... : ... .. . ... ... ... : ... .. . P7D ... ...
ROW 14 : D#4 01 . ... ... ... : ... .. . ... ... ... : A#4 00 . ... ... ... : D-# 00 A ... ... ... : ... .. . ... ... ... : ... .. C P82 ... ... : D#4 03 . ... ... ... : ... .. . P80 ... ...
ROW 15 : G#3 01 . ... ... ... : ... .. 6 ... ... ... : ... .. . ... ... ... : ... .. . ... ... ... : ... .. . ... ... ... : ... .. . P83 ... ... : ... .. . ... ... ... : ... .. . P81 ... ...
ROW 16 : B-3 01 . ... ... ... : ... .. 7 ... ... ... : ... .. . ... ... ... : ... .. 8 ... ... ... : ... .. . ... ... ... : ... .. . ... ... ... : ... .. . ... ... ... : ... .. . P84 ... ...
ROW 17 : D#4 02 . ... ... ... : ... .. 9 ... ... ... : ... .. . ... ... ... : ... .. . ... ... ... : ... .. . ... ... ... : ... .. . P81 ... ... : ... .. . ... ... ... : ... .. . ... ... ...
ROW 18 : G#3 02 . ... ... ... : ... .. A ... ... ... : ... .. . ... ... ... : --- .. . ... ... ... : ... .. . ... ... ... : ... .. . P7F ... ... : ... .. . ... ... ... : ... .. . P83 ... ...
ROW 19 : B-3 02 9 ... ... ... : ... .. 9 ... ... ... : ... .. . ... ... ... : ... .. . ... ... ... : ... .. . ... ... ... : ... .. . P7D ... ... : D#4 04 . ... ... ... : ... .. . P81 ... ...
ROW 1A : D#4 02 8 ... ... ... : ... .. 7 ... ... ... : C-4 00 . ... ... ... : ... .. . ... ... ... : ... .. . ... ... ... : ... .. . ... ... ... : ... .. . ... ... ... : ... .. . P80 ... ...
ROW 1B : G#3 02 . ... ... ... : ... .. 6 ... ... ... : ... .. . ... ... ... : ... .. . ... ... ... : ... .. . ... ... ... : ... .. . P7E ... ... : D#4 05 . ... ... ... : ... .. . P7D ... ...
ROW 1C : B-3 02 7 ... ... ... : ... .. 5 ... ... ... : ... .. . ... ... ... : ... .. . ... ... ... : ... .. . ... ... ... : ... .. B P80 ... ... : D#4 06 . ... ... ... : ... .. . P7C ... ...
ROW 1D : D#4 02 6 ... ... ... : ... .. . ... ... ... : ... .. . ... ... ... : ... .. . ... ... ... : ... .. . ... ... ... : ... .. . P82 ... ... : D#4 07 . ... ... ... : ... .. . ... ... ...
ROW 1E : G#3 02 4 ... ... ... : ... .. . ... ... ... : ... .. . ... ... ... : ... .. . ... ... ... : ... .. . ... ... ... : ... .. . P83 ... ... : D#4 08 . ... ... ... : ... .. . P7E ... ...
ROW 1F : B-3 02 . ... ... ... : ... .. 7 ... ... ... : ... .. . ... ... ... : ... .. . ... ... ... : ... .. . ... ... ... : ... .. . ... ... ... : D#4 09 . ... ... ... : ... .. . P80 ... ...
ROW 20 : D#4 02 2 ... ... ... : ... .. 8 ... ... ... : C-5 00 . ... ... ... : B-# 00 B ... ... ... : ... .. . ... ... ... : ... .. . P81 ... ... : ... .. 6 P82 ... ... : ... .. . P82 ... ...
ROW 21 : G#3 02 . ... ... ... : ... .. A ... ... ... : ... .. . ... ... ... : ... .. . ... ... ... : ... .. . ... ... ... : ... .. . P80 ... ... : ... .. . P83 ... ... : ... .. . P84 ... ...
ROW 22 : B-3 02 1 ... ... ... : ... .. 9 ... ... ... : ... .. . ... ... ... : ... .. 9 ... ... ... : ... .. . ... ... ... : ... .. . P7D ... ... : ... .. . ... ... ... : ... .. . ... ... ...
ROW 23 : D#4 02 . ... ... ... : ... .. 7 ... ... ... : ... .. . ... ... ... : ... .. 8 ... ... ... : ... .. . ... ... ... : ... .. . ... ... ... : ... .. . P81 ... ... : ... .. . P83 ... ...
ROW 24 : G#3 00 8 ... ... ... : ... .. 6 ... ... ... : ... .. . ... ... ... : --- .. . ... ... ... : ... .. . ... ... ... : ... .. A P7E ... ... : ... .. . P7F ... ... : ... .. . P80 ... ...
ROW 25 : B-3 00 . ... ... ... : ... .. 5 ... ... ... : ... .. . ... ... ... : ... .. . ... ... ... : ... .. . ... ... ... : ... .. . P80 ... ... : ... .. . P7D ... ... : ... .. . P7F ... ...
ROW 26 : D#4 00 . ... ... ... : ... .. . ... ... ... : C-4 00 . ... ... ... : ... .. . ... ... ... : ... .. . ... ... ... : ... .. . P81 ... ... : ... .. . ... ... ... : ... .. . P7C ... ...
ROW 27 : G#3 00 7 ... ... ... : ... .. . ... ... ... : ... .. . ... ... ... : ... .. . ... ... ... : ... .. . ... ... ... : ... .. . P83 ... ... : ... .. . P7E ... ... : ... .. . ... ... ...
ROW 28 : B-3 00 6 ... ... ... : ... .. A P81 ... ... : ... .. . ... ... ... : ... .. . ... ... ... : C-1 0A . ... ... ... : ... .. . ... ... ... : ... .. 5 P80 ... ... : F#1 03 . P7D ... ...
ROW 29 : D#4 00 . ... ... ... : ... .. . P82 ... ... : ... .. . ... ... ... : ... .. . ... ... ... : ... .. . ... ... ... : ... .. . P81 ... ... : ... .. . P82 ... ... : ... .. . P7F ... ...
ROW 2A : G#3 00 5 ... ... ... : ... .. . P83 ... ... : ... .. . ... ... ... : ... .. . ... ... ... : ... .. . ... ... ... : ... .. . P80 ... ... : ... .. . P83 ... ... : ... .. . P80 ... ...
ROW 2B : B-3 01 . ... ... ... : D-5 02 . P7E ... ... : ... .. . ... ... ... : ... .. . ... ... ... : ... .. . ... ... ... : ... .. . P7E ... ... : ... .. . ... ... ... : ... .. . P83 ... ...
ROW 2C : D#4 01 3 ... ... ... : ... .. . P7F ... ... : C#5 00 . ... ... ... : A-# 00 F ... ... ... : ... .. . ... ... ... : E-4 03 D P80 ... ... : ... .. . P81 ... ... : ... .. . P84 ... ...
ROW 2D : G#3 01 . ... ... ... : ... .. . P80 ... ... : ... .. . ... ... ... : ... .. E ... ... ... : ... .. . ... ... ... : ... .. . ... ... ... : ... .. . P80 ... ... : ... .. . ... ... ...
ROW 2E : B-3 01 2 ... ... ... : ... .. . P81 ... ... : ... .. . ... ... ... : ... .. C ... ... ... : ... .. . ... ... ... : ... .. . ... ... ... : ... .. . P7D ... ... : ... .. . P82 ... ...
ROW 2F : D#4 02 1 ... ... ... : ... .. . P82 ... ... : ... .. . ... ... ... : ... .. A ... ... ... : ... .. . ... ... ... : ... .. . ... ... ... : ... .. . ... ... ... : ... .. . P80 ... ...
ROW 30 : G#3 00 8 ... ... ... : D#5 02 . P7E ... ... : ... .. . ... ... ... : --- .. . ... ... ... : ... .. . ... ... ... : ... .. . ... ... ... : ... .. 4 P7E ... ... : ... .. . P7E ... ...
ROW 31 : B-3 00 . ... ... ... : ... .. . P7F ... ... : ... .. . ... ... ... : ... .. . ... ... ... : ... .. . ... ... ... : E-4 04 . ... ... ... : ... .. . P80 ... ... : ... .. . P7C ... ...
ROW 32 : D#4 00 . ... ... ... : ... .. . P80 ... ... : C-4 00 . ... ... ... : ... .. . ... ... ... : ... .. . ... ... ... : ... .. . ... ... ... : ... .. . P81 ... ... : ... .. . ... ... ...
ROW 33 : G#3 00 . ... ... ... : ... .. . P81 ... ... : ... .. . ... ... ... : ... .. . ... ... ... : ... .. . ... ... ... : E-4 05 . ... ... ... : ... .. . P83 ... ... : ... .. . P7D ... ...
ROW 34 : B-3 00 . ... ... ... : ... .. . P80 ... ... : ... .. . ... ... ... : ... .. . ... ... ... : ... .. . ... ... ... : E-4 06 . ... ... ... : ... .. . ... ... ... : ... .. . P80 ... ...
ROW 35 : D#4 00 . ... ... ... : ... .. . ... ... ... : ... .. . ... ... ... : ... .. . ... ... ... : ... .. . ... ... ... : E-4 07 . ... ... ... : ... .. . P81 ... ... : ... .. . P81 ... ...
ROW 36 : --- .. . ... ... ... : ... .. . ... ... ... : ... .. . ... ... ... : ... .. . ... ... ... : ... .. . ... ... ... : E-4 08 . ... ... ... : ... .. . P80 ... ... : ... .. . P84 ... ...
ROW 37 : ... .. . ... ... ... : ... .. . ... ... ... : ... .. . ... ... ... : ... .. . ... ... ... : ... .. . ... ... ... : E-4 09 . ... ... ... : ... .. . P7E ... ... : ... .. . ... ... ...
ROW 38 : ... .. . ... ... ... : ... .. . ... ... ... : D#5 00 . ... ... ... : B-# 00 C ... ... ... : ... .. . ... ... ... : D#4 03 . ... ... ... : E-4 03 7 P80 ... ... : ... .. . P83 ... ...
ROW 39 : ... .. . ... ... ... : ... .. . ... ... ... : ... .. . ... ... ... : ... .. . ... ... ... : ... .. . ... ... ... : ... .. . ... ... ... : ... .. . ... ... ... : ... .. . P81 ... ...
ROW 3A : ... .. . ... ... ... : ... .. . P82 ... ... : ... .. . ... ... ... : ... .. A ... ... ... : ... .. . ... ... ... : ... .. . ... ... ... : ... .. . ... ... ... : ... .. . P80 ... ...
ROW 3B : ... .. . ... ... ... : E-5 02 . P7E ... ... : ... .. . ... ... ... : ... .. 9 ... ... ... : ... .. . ... ... ... : ... .. . ... ... ... : ... .. . ... ... ... : ... .. . P7D ... ...
ROW 3C : G#3 00 . ... ... ... : ... .. . ... ... ... : ... .. . ... ... ... : --- .. . ... ... ... : ... .. . ... ... ... : ... .. . ... ... ... : ... .. . ... ... ... : ... .. . P7C ... ...
ROW 3D : B-3 00 . ... ... ... : D#5 02 . P81 ... ... : ... .. . ... ... ... : ... .. . ... ... ... : ... .. . ... ... ... : D#4 04 . ... ... ... : E-4 04 . ... ... ... : ... .. . ... ... ...
ROW 3E : D#4 00 . ... ... ... : ... .. . P7F ... ... : C-4 00 . ... ... ... : ... .. . ... ... ... : ... .. . ... ... ... : ... .. . ... ... ... : ... .. . ... ... ... : ... .. . P7E ... ...
ROW 3F : G#3 00 . ... ... ... : D-5 02 . P82 ... ... : ... .. . ... ... ... : ... .. . ... ... ... : ... .. . ... ... ... : D#4 05 . ... ... ... : E-4 05 . ... ... ... : ... .. . P80 ... ...
ROW 40 : B-3 00 . ... ... ... : ... .. . ... ... ... : ... .. . ... ... ... : ... .. . ... ... ... : D#1 0A . ... ... ... : D#4 06 . ... ... ... : E-4 06 . ... ... ... : ... .. . P82 ... ...
ROW 41 : D#4 00 . ... ... ... : D#5 02 . P7E ... ... : ... .. . ... ... ... : ... .. . ... ... ... : ... .. . ... ... ... : D#4 07 . ... ... ... : E-4 07 . ... ... ... : ... .. . P84 ... ...
ROW 42 : G#3 00 A ... ... ... : ... .. . P80 ... ... : ... .. . ... ... ... : ... .. . ... ... ... : ... .. . ... ... ... : D#4 08 . ... ... ... : E-4 08 . ... ... ... : ... .. . ... ... ...
ROW 43 : B-3 01 . ... ... ... : ... .. . P82 ... ... : ... .. . ... ... ... : ... .. . ... ... ... : ... .. . ... ... ... : D#4 09 . ... ... ... : E-4 09 . ... ... ... : ... .. . P83 ... ...
ROW 44 : D#4 01 . ... ... ... : E-5 02 . P7E ... ... : C#5 00 . ... ... ... : D-# 00 A ... ... ... : ... .. . ... ... ... : E-4 03 . ... ... ... : D#4 03 . ... ... ... : ... .. . P80 ... ...
ROW 45 : G#3 01 . ... ... ... : ... .. . ... ... ... : ... .. . ... ... ... : ... .. . ... ... ... : ... .. . ... ... ... : ... .. . ... ... ... : ... .. . ... ... ... : ... .. . P7F ... ...
ROW 46 : B-3 01 . ... ... ... : D#5 02 . P81 ... ... : ... .. . ... ... ... : ... .. 8 ... ... ... : ... .. . ... ... ... : ... .. . ... ... ... : ... .. . ... ... ... : --- .. . ... ... ...
ROW 47 : D#4 02 . ... ... ... : ... .. . P80 ... ... : ... .. . ... ... ... : ... .. . ... ... ... : ... .. . ... ... ... : ... .. . ... ... ... : ... .. . ... ... ... : ... .. . ... ... ...
ROW 48 : G-4 00 8 ... ... ... : D-5 02 . P82 ... ... : ... .. . ... ... ... : --- .. . ... ... ... : ... .. . ... ... ... : ... .. . ... ... ... : ... .. . ... ... ... : ... .. . ... ... ...
ROW 49 : ... .. . ... ... ... : ... .. . ... ... ... : ... .. . ... ... ... : ... .. . ... ... ... : ... .. . ... ... ... : E-4 04 . ... ... ... : D#4 04 . ... ... ... : ... .. . ... ... ...
ROW 4A : D-5 00 . ... ... ... : D#5 02 . P7E ... ... : C-4 00 . ... ... ... : ... .. . ... ... ... : ... .. . ... ... ... : ... .. . ... ... ... : ... .. . ... ... ... : ... .. . ... ... ...
ROW 4B : G-4 00 . ... ... ... : ... .. . P80 ... ... : ... .. . ... ... ... : ... .. . ... ... ... : ... .. . ... ... ... : E-4 05 . ... ... ... : D#4 05 . ... ... ... : ... .. . ... ... ...
ROW 4C : ... .. . ... ... ... : ... .. . P81 ... ... : ... .. . ... ... ... : ... .. . ... ... ... : C-1 0A . ... ... ... : E-4 06 . ... ... ... : D#4 06 . ... ... ... : F#1 03 5 P84 ... ...
ROW 4D : D-5 00 . ... ... ... : E-5 02 . P7E ... ... : ... .. . ... ... ... : ... .. . ... ... ... : ... .. . ... ... ... : E-4 07 . ... ... ... : D#4 07 . ... ... ... : ... .. . ... ... ...
ROW 4E : G-4 00 A ... ... ... : ... .. . ... ... ... : ... .. . ... ... ... : ... .. . ... ... ... : ... .. . ... ... ... : E-4 08 . ... ... ... : D#4 08 . ... ... ... : ... .. . P82 ... ...
ROW 4F : ... .. . ... ... ... : D#5 02 . P81 ... ... : ... .. . ... ... ... : ... .. . ... ... ... : ... .. . ... ... ... : E-4 09 . ... ... ... : D#4 09 . ... ... ... : ... .. . P80 ... ...
ROW 50 : D-5 00 . ... ... ... : ... .. . P80 ... ... : C-5 00 . ... ... ... : B-# 00 B ... ... ... : ... .. . ... ... ... : D#4 03 . ... ... ... : E-4 03 . ... ... ... : ... .. . P7E ... ...
ROW 51 : G-4 00 . ... ... ... : ... .. . P7E ... ... : ... .. . ... ... ... : ... .. . ... ... ... : ... .. . ... ... ... : ... .. . ... ... ... : ... .. . ... ... ... : ... .. . P7C ... ...
ROW 52 : ... .. . ... ... ... : D-5 02 . P82 ... ... : ... .. . ... ... ... : ... .. 9 ... ... ... : ... .. . ... ... ... : ... .. . ... ... ... : ... .. . ... ... ... : --- .. . ... ... ...
ROW 53 : D-5 00 . ... ... ... : ... .. . ... ... ... : ... .. . ... ... ... : ... .. 8 ... ... ... : ... .. . ... ... ... : ... .. . ... ... ... : ... .. . ... ... ... : ... .. . ... ... ...
ROW 54 : G-4 00 . ... ... ... : D#5 02 . P80 ... ... : ... .. . ... ... ... : --- .. . ... ... ... : ... .. . ... ... ... : ... .. . ... ... ... : ... .. . ... ... ... : ... .. . ... ... ...
ROW 55 : ... .. . ... ... ... : ... .. . P81 ... ... : ... .. . ... ... ... : ... .. . ... ... ... : ... .. . ... ... ... : D#4 04 . ... ... ... : E-4 04 . ... ... ... : ... .. . ... ... ...
ROW 56 : D-5 00 . ... ... ... : E-5 02 . P7E ... ... : C-4 00 . ... ... ... : ... .. . ... ... ... : ... .. . ... ... ... : ... .. . ... ... ... : ... .. . ... ... ... : ... .. . ... ... ...
ROW 57 : G-4 00 . ... ... ... : ... .. . ... ... ... : ... .. . ... ... ... : ... .. . ... ... ... : ... .. . ... ... ... : D#4 05 . ... ... ... : E-4 05 . ... ... ... : ... .. . ... ... ...
ROW 58 : ... .. . ... ... ... : D#5 02 . P82 ... ... : ... .. . ... ... ... : ... .. . ... ... ... : C-1 0A . ... ... ... : D#4 06 . ... ... ... : E-4 06 . ... ... ... : F#1 03 4 P83 ... ...
ROW 59 : D-5 00 . ... ... ... : ... .. . P80 ... ... : ... .. . ... ... ... : ... .. . ... ... ... : ... .. . ... ... ... : D#4 07 . ... ... ... : E-4 07 . ... ... ... : ... .. . P81 ... ...
ROW 5A : G-4 00 . ... ... ... : ... .. . P7E ... ... : ... .. . ... ... ... : ... .. . ... ... ... : ... .. . ... ... ... : D#4 08 . ... ... ... : E-4 08 . ... ... ... : ... .. . P80 ... ...
ROW 5B : ... .. . ... ... ... : D-5 02 . P82 ... ... : ... .. . ... ... ... : ... .. . ... ... ... : ... .. . ... ... ... : D#4 09 . ... ... ... : E-4 09 . ... ... ... : ... .. . P7D ... ...
ROW 5C : D-5 00 . ... ... ... : ... .. . ... ... ... : A#4 00 . ... ... ... : A-# 00 F ... ... ... : ... .. . ... ... ... : E-4 03 . ... ... ... : D#4 03 . ... ... ... : ... .. . P7C ... ...
ROW 5D : G-4 00 . ... ... ... : D#5 02 . P7F ... ... : ... .. . ... ... ... : ... .. E ... ... ... : ... .. . ... ... ... : ... .. . ... ... ... : ... .. . ... ... ... : ... .. . ... ... ...
ROW 5E : ... .. . ... ... ... : ... .. . P81 ... ... : ... .. . ... ... ... : ... .. C ... ... ... : ... .. . ... ... ... : ... .. . ... ... ... : ... .. . ... ... ... : ... .. . P7E ... ...
ROW 5F : D-5 00 . ... ... ... : E-5 02 . P7E ... ... : ... .. . ... ... ... : ... .. A ... ... ... : ... .. . ... ... ... : ... .. . ... ... ... : ... .. . ... ... ... : ... .. . P80 ... ...
ROW 60 : G-4 00 . ... ... ... : ... .. . ... ... ... : ... .. . ... ... ... : --- .. . ... ... ... : ... .. . ... ... ... : ... .. . ... ... ... : ... .. . ... ... ... : ... .. . P82 ... ...
ROW 61 : ... .. . ... ... ... : D#5 02 . P82 ... ... : ... .. . ... ... ... : ... .. . ... ... ... : ... .. . ... ... ... : E-4 04 . ... ... ... : D#4 04 . ... ... ... : ... .. . P84 ... ...
ROW 62 : D-5 00 . ... ... ... : ... .. . P80 ... ... : C-4 00 . ... ... ... : ... .. . ... ... ... : ... .. . ... ... ... : ... .. . ... ... ... : ... .. . ... ... ... : ... .. . ... ... ...
ROW 63 : G-4 00 . ... ... ... : ... .. . P7E ... ... : ... .. . ... ... ... : ... .. . ... ... ... : ... .. . ... ... ... : E-4 05 . ... ... ... : D#4 05 . ... ... ... : ... .. . P83 ... ...
ROW 64 : ... .. . ... ... ... : C#5 02 . P80 ... ... : ... .. . ... ... ... : ... .. . ... ... ... : ... .. . ... ... ... : E-4 06 . ... ... ... : D#4 06 . ... ... ... : ... .. . P80 ... ...
ROW 65 : D-5 00 . ... ... ... : ... .. . ... ... ... : ... .. . ... ... ... : ... .. . ... ... ... : ... .. . ... ... ... : E-4 07 . ... ... ... : D#4 07 . ... ... ... : ... .. . P7F ... ...
ROW 66 : G-4 00 . ... ... ... : ... .. . ... ... ... : ... .. . ... ... ... : ... .. . ... ... ... : ... .. . ... ... ... : E-4 08 . ... ... ... : D#4 08 . ... ... ... : ... .. . P7C ... ...
ROW 67 : ... .. . ... ... ... : ... .. . ... ... ... : ... .. . ... ... ... : ... .. . ... ... ... : ... .. . ... ... ... : E-4 09 . ... ... ... : D#4 09 . ... ... ... : ... .. . ... ... ...
ROW 68 : D-5 00 . ... ... ... : ... .. . ... ... ... : G#4 00 . ... ... ... : B-# 00 C ... ... ... : ... .. . ... ... ... : D#4 03 . ... ... ... : E-4 03 . ... ... ... : ... .. . P7D ... ...
ROW 69 : G-4 00 . ... ... ... : ... .. . ... ... ... : ... .. . ... ... ... : ... .. . ... ... ... : ... .. . ... ... ... : ... .. . ... ... ... : ... .. . ... ... ... : ... .. . P7F ... ...
ROW 6A : ... .. . ... ... ... : ... .. . ... ... ... : ... .. . ... ... ... : ... .. A ... ... ... : ... .. . ... ... ... : ... .. . ... ... ... : ... .. . ... ... ... : ... .. . P80 ... ...
ROW 6B : D-5 00 . ... ... ... : ... .. . ... ... ... : ... .. . ... ... ... : ... .. 9 ... ... ... : ... .. . ... ... ... : ... .. . ... ... ... : ... .. . ... ... ... : ... .. . P83 ... ...
ROW 6C : G-4 00 8 ... ... ... : ... .. . ... ... ... : ... .. . ... ... ... : --- .. . ... ... ... : ... .. . ... ... ... : ... .. . ... ... ... : ... .. . ... ... ... : ... .. . P84 ... ...
ROW 6D : ... .. . ... ... ... : ... .. . ... ... ... : ... .. . ... ... ... : ... .. . ... ... ... : ... .. . ... ... ... : D#4 04 . ... ... ... : E-4 04 . ... ... ... : ... .. . ... ... ...
ROW 6E : D-5 00 . ... ... ... : ... .. . ... ... ... : C-4 00 . ... ... ... : ... .. . ... ... ... : ... .. . ... ... ... : ... .. . ... ... ... : ... .. . ... ... ... : ... .. . P82 ... ...
ROW 6F : G-4 00 . ... ... ... : ... .. . ... ... ... : ... .. . ... ... ... : ... .. . ... ... ... : ... .. . ... ... ... : D#4 05 . ... ... ... : E-4 05 . ... ... ... : ... .. . P80 ... ...
ROW 70 : ... .. . ... ... ... : B-4 02 . ... ... ... : ... .. . ... ... ... : ... .. . ... ... ... : D#1 0A . ... ... ... : D#4 06 . ... ... ... : E-4 06 . ... ... ... : F#2 03 . P7E ... ...
ROW 71 : D-5 00 . ... ... ... : ... .. . ... ... ... : ... .. . ... ... ... : ... .. . ... ... ... : ... .. . ... ... ... : D#4 07 . ... ... ... : E-4 07 . ... ... ... : ... .. . P7C ... ...
ROW 72 : G-4 00 A ... ... ... : ... .. . ... ... ... : ... .. . ... ... ... : ... .. . ... ... ... : ... .. . ... ... ... : D#4 08 . ... ... ... : E-4 08 . ... ... ... : ... .. . ... ... ...
ROW 73 : ... .. . ... ... ... : ... .. . ... ... ... : ... .. . ... ... ... : ... .. . ... ... ... : ... .. . ... ... ... : D#4 09 . ... ... ... : E-4 09 . ... ... ... : ... .. . P7D ... ...
ROW 74 : D-5 00 . ... ... ... : ... .. . ... ... ... : A#4 00 . ... ... ... : D-# 00 A ... ... ... : ... .. . ... ... ... : E-4 03 . ... ... ... : D#4 03 . ... ... ... : ... .. . P80 ... ...
ROW 75 : G-4 00 . ... ... ... : ... .. . ... ... ... : ... .. . ... ... ... : ... .. . ... ... ... : ... .. . ... ... ... : ... .. . ... ... ... : ... .. . ... ... ... : ... .. . P81 ... ...
ROW 76 : ... .. . ... ... ... : ... .. . ... ... ... : ... .. . ... ... ... : ... .. 8 ... ... ... : ... .. . ... ... ... : ... .. . ... ... ... : ... .. . ... ... ... : ... .. . P84 ... ...
ROW 77 : D-5 00 . ... ... ... : ... .. . ... ... ... : ... .. . ... ... ... : ... .. . ... ... ... : ... .. . ... ... ... : ... .. . ... ... ... : ... .. . ... ... ... : ... .. . ... ... ...
ROW 78 : G-4 00 . ... ... ... : ... .. . ... ... ... : ... .. . ... ... ... : --- .. . ... ... ... : ... .. . ... ... ... : ... .. . ... ... ... : ... .. . ... ... ... : ... .. . P83 ... ...
ROW 79 : ... .. . ... ... ... : ... .. . ... ... ... : ... .. . ... ... ... : ... .. . ... ... ... : ... .. . ... ... ... : E-4 04 . ... ... ... : D#4 04 . ... ... ... : ... .. . P81 ... ...
ROW 7A : D-5 00 . ... ... ... : ... .. . ... ... ... : C-4 00 . ... ... ... : ... .. . ... ... ... : ... .. . ... ... ... : ... .. . ... ... ... : ... .. . ... ... ... : ... .. . P80 ... ...
ROW 7B : G-4 00 . ... ... ... : ... .. . ... ... ... : ... .. . ... ... ... : ... .. . ... ... ... : ... .. . ... ... ... : E-4 05 . ... ... ... : D#4 05 . ... ... ... : ... .. . P7D ... ...
ROW 7C : ... .. . ... ... ... : A#4 02 . ... ... ... : ... .. . ... ... ... : ... .. . ... ... ... : ... .. . ... ... ... : E-4 06 . ... ... ... : D#4 06 . ... ... ... : ... .. . P7C ... ...
ROW 7D : D-5 00 . ... ... ... : ... .. . ... ... ... : ... .. . ... ... ... : ... .. . ... ... ... : ... .. . ... ... ... : E-4 07 . ... ... ... : D#4 07 . ... ... ... : ... .. . ... ... ...
ROW 7E : G-4 00 . ... ... ... : ... .. . ... ... ... : ... .. . ... ... ... : ... .. . ... ... ... : ... .. . ... ... ... : E-4 08 . ... ... ... : D#4 08 . ... ... ... : ... .. . P7E ... ...
ROW 7F : ... .. . ... ... ... : ... .. . ... ... ... : ... .. . ... ... ... : ... .. . ... ... ... : ... .. . ... ... ... : E-4 09 . ... ... ... : D#4 09 . ... ... ... : ... .. . P80 ... ...
ROW 80 : D-5 00 . ... ... ... : ... .. . ... ... ... : C-5 00 . ... ... ... : B-# 00 B ... ... ... : ... .. . ... ... ... : D#4 03 . ... ... ... : E-4 03 . ... ... ... : ... .. . P82 ... ...
ROW 81 : G-4 00 . ... ... ... : ... .. . ... ... ... : ... .. . ... ... ... : ... .. . ... ... ... : ... .. . ... ... ... : ... .. . ... ... ... : ... .. . ... ... ... : ... .. . P84 ... ...
ROW 82 : ... .. . ... ... ... : ... .. 4 ... ... ... : ... .. . ... ... ... : ... .. 9 ... ... ... : ... .. . ... ... ... : ... .. . ... ... ... : ... .. . ... ... ... : ... .. . ... ... ...
ROW 83 : D-5 00 . ... ... ... : ... .. . ... ... ... : ... .. . ... ... ... : ... .. 8 ... ... ... : ... .. . ... ... ... : ... .. . ... ... ... : ... .. . ... ... ... : ... .. . P83 ... ...
ROW 84 : G-4 00 8 ... ... ... : ... .. . ... ... ... : ... .. . ... ... ... : --- .. . ... ... ... : ... .. . ... ... ... : ... .. . ... ... ... : ... .. . ... ... ... : ... .. . P80 ... ...
ROW 85 : ... .. . ... ... ... : ... .. . ... ... ... : ... .. . ... ... ... : ... .. . ... ... ... : ... .. . ... ... ... : D#4 04 . ... ... ... : E-4 04 . ... ... ... : ... .. . P7F ... ...
ROW 86 : D-5 00 . ... ... ... : ... .. . ... ... ... : C-4 00 . ... ... ... : ... .. . ... ... ... : ... .. . ... ... ... : ... .. . ... ... ... : ... .. . ... ... ... : ... .. . P7C ... ...
ROW 87 : G-4 00 . ... ... ... : ... .. . ... ... ... : ... .. . ... ... ... : ... .. . ... ... ... : ... .. . ... ... ... : D#4 05 . ... ... ... : E-4 05 . ... ... ... : ... .. . ... ... ...
ROW 88 : ... .. . ... ... ... : ... .. A P81 ... ... : ... .. . ... ... ... : ... .. . ... ... ... : C-1 0A . ... ... ... : D#4 06 . ... ... ... : E-4 06 . ... ... ... : G#1 03 . P7D ... ...
ROW 89 : D-5 00 . ... ... ... : ... .. . P82 ... ... : ... .. . ... ... ... : ... .. . ... ... ... : ... .. . ... ... ... : D#4 07 . ... ... ... : E-4 07 . ... ... ... : ... .. . P7F ... ...
ROW 8A : G-4 00 . ... ... ... : ... .. . P83 ... ... : ... .. . ... ... ... : ... .. . ... ... ... : ... .. . ... ... ... : D#4 08 . ... ... ... : E-4 08 . ... ... ... : ... .. . P80 ... ...
ROW 8B : ... .. . ... ... ... : B-4 02 . P7D ... ... : ... .. . ... ... ... : ... .. . ... ... ... : ... .. . ... ... ... : D#4 09 . ... ... ... : E-4 09 . ... ... ... : ... .. . P83 ... ...
ROW 8C : D-5 00 . ... ... ... : ... .. . P7E ... ... : C#5 00 . ... ... ... : A-# 00 F ... ... ... : ... .. . ... ... ... : E-4 03 . ... ... ... : D#4 03 . ... ... ... : ... .. . P84 ... ...
ROW 8D : G-4 00 . ... ... ... : ... .. . P7F ... ... : ... .. . ... ... ... : ... .. E ... ... ... : ... .. . ... ... ... : ... .. . ... ... ... : ... .. . ... ... ... : ... .. . ... ... ...
ROW 8E : ... .. . ... ... ... : ... .. . P80 ... ... : ... .. . ... ... ... : ... .. C ... ... ... : ... .. . ... ... ... : ... .. . ... ... ... : ... .. . ... ... ... : ... .. . P82 ... ...
ROW 8F : D-5 00 . ... ... ... : ... .. . ... ... ... : ... .. . ... ... ... : ... .. A ... ... ... : ... .. . ... ... ... : ... .. . ... ... ... : ... .. . ... ... ... : ... .. . P80 ... ...
ROW 90 : G-4 00 . ... ... ... : ... .. . ... ... ... : ... .. . ... ... ... : --- .. . ... ... ... : ... .. . ... ... ... : ... .. . ... ... ... : ... .. . ... ... ... : ... .. . P7E ... ...
ROW 91 : ... .. . ... ... ... : ... .. . ... ... ... : ... .. . ... ... ... : ... .. . ... ... ... : ... .. . ... ... ... : E-4 04 . ... ... ... : D#4 04 . ... ... ... : ... .. . P7C ... ...
ROW 92 : D-5 00 . ... ... ... : ... .. . ... ... ... : C-4 00 . ... ... ... : ... .. . ... ... ... : ... .. . ... ... ... : ... .. . ... ... ... : ... .. . ... ... ... : ... .. . ... ... ...
ROW 93 : G-4 00 . ... ... ... : ... .. . ... ... ... : ... .. . ... ... ... : ... .. . ... ... ... : ... .. . ... ... ... : E-4 05 . ... ... ... : D#4 05 . ... ... ... : ... .. . P7D ... ...
ROW 94 : ... .. . ... ... ... : ... .. . ... ... ... : ... .. . ... ... ... : ... .. . ... ... ... : ... .. . ... ... ... : E-4 06 . ... ... ... : D#4 06 . ... ... ... : ... .. . P80 ... ...
ROW 95 : D-5 00 . ... ... ... : ... .. . ... ... ... : ... .. . ... ... ... : ... .. . ... ... ... : ... .. . ... ... ... : E-4 07 . ... ... ... : D#4 07 . ... ... ... : ... .. . P81 ... ...
ROW 96 : --- .. . ... ... ... : ... .. . ... ... ... : ... .. . ... ... ... : ... .. . ... ... ... : ... .. . ... ... ... : E-4 08 . ... ... ... : D#4 08 . ... ... ... : ... .. . P84 ... ...
ROW 97 : ... .. . ... ... ... : ... .. . ... ... ... : ... .. . ... ... ... : ... .. . ... ... ... : ... .. . ... ... ... : E-4 09 . ... ... ... : D#4 09 . ... ... ... : ... .. . ... ... ...
ROW 98 : ... .. . ... ... ... : ... .. . ... ... ... : D#5 00 . ... ... ... : B-# 00 C ... ... ... : ... .. . ... ... ... : D#4 03 . ... ... ... : E-4 03 . ... ... ... : ... .. . P83 ... ...
ROW 99 : ... .. . ... ... ... : ... .. . ... ... ... : ... .. . ... ... ... : ... .. . ... ... ... : ... .. . ... ... ... : ... .. . ... ... ... : ... .. . ... ... ... : ... .. . P81 ... ...
ROW 9A : ... .. . ... ... ... : ... .. . ... ... ... : ... .. . ... ... ... : ... .. A ... ... ... : ... .. . ... ... ... : ... .. . ... ... ... : ... .. . ... ... ... : ... .. . P80 ... ...
ROW 9B : ... .. . ... ... ... : ... .. . ... ... ... : ... .. . ... ... ... : ... .. 9 ... ... ... : ... .. . ... ... ... : ... .. . ... ... ... : ... .. . ... ... ... : ... .. . P7D ... ...
ROW 9C : G-4 00 . ... ... ... : ... .. . ... ... ... : ... .. . ... ... ... : --- .. . ... ... ... : ... .. . ... ... ... : ... .. . ... ... ... : ... .. . ... ... ... : ... .. . P7C ... ...
ROW 9D : ... .. . ... ... ... : ... .. . ... ... ... : ... .. . ... ... ... : ... .. . ... ... ... : ... .. . ... ... ... : D#4 04 . ... ... ... : E-4 04 . ... ... ... : ... .. . ... ... ...
ROW 9E : D-5 00 . ... ... ... : ... .. . ... ... ... : C-4 00 . ... ... ... : ... .. . ... ... ... : ... .. . ... ... ... : ... .. . ... ... ... : ... .. . ... ... ... : ... .. . P7E ... ...
ROW 9F : G-4 00 . ... ... ... : ... .. . ... ... ... : ... .. . ... ... ... : ... .. . ... ... ... : ... .. . ... ... ... : D#4 05 . ... ... ... : E-4 05 . ... ... ... : ... .. . P80 ... ...
ROW A0 : ... .. . ... ... ... : ... .. . P82 ... ... : ... .. . ... ... ... : ... .. . ... ... ... : D#1 0A . ... ... ... : D#4 06 . ... ... ... : E-4 06 . ... ... ... : ... .. . P82 ... ...
ROW A1 : D-5 00 . ... ... ... : ... .. . P83 ... ... : ... .. . ... ... ... : ... .. . ... ... ... : ... .. . ... ... ... : D#4 07 . ... ... ... : E-4 07 . ... ... ... : ... .. . P84 ... ...
ROW A2 : G-4 00 A ... ... ... : ... .. . ... ... ... : ... .. . ... ... ... : ... .. . ... ... ... : ... .. . ... ... ... : D#4 08 . ... ... ... : E-4 08 . ... ... ... : ... .. . ... ... ...
ROW A3 : ... .. . ... ... ... : ... .. . P81 ... ... : ... .. . ... ... ... : ... .. . ... ... ... : ... .. . ... ... ... : D#4 09 . ... ... ... : E-4 09 . ... ... ... : ... .. . P83 ... ...
ROW A4 : D-5 00 . ... ... ... : ... .. . P7F ... ... : C#5 00 . ... ... ... : D-# 00 A ... ... ... : ... .. . ... ... ... : E-4 03 . ... ... ... : D#4 03 . ... ... ... : ... .. . P80 ... ...
ROW A5 : G-4 00 . ... ... ... : ... .. . P7D ... ... : ... .. . ... ... ... : ... .. . ... ... ... : ... .. . ... ... ... : ... .. . ... ... ... : ... .. . ... ... ... : ... .. . P7F ... ...
ROW A6 : ... .. . ... ... ... : ... .. . ... ... ... : ... .. . ... ... ... : ... .. 8 ... ... ... : ... .. . ... ... ... : ... .. . ... ... ... : ... .. . ... ... ... : --- .. . ... ... ...
ROW A7 : D-5 00 . ... ... ... : ... .. . P7E ... ... : ... .. . ... ... ... : ... .. . ... ... ... : ... .. . ... ... ... : ... .. . ... ... ... : ... .. . ... ... ... : ... .. . ... ... ...
ROW A8 : A#4 00 8 ... ... ... : ... .. . P80 ... ... : ... .. . ... ... ... : --- .. . ... ... ... : ... .. . ... ... ... : ... .. . ... ... ... : ... .. . ... ... ... : ... .. . ... ... ...
ROW A9 : ... .. . ... ... ... : ... .. . P82 ... ... : ... .. . ... ... ... : ... .. . ... ... ... : ... .. . ... ... ... : E-4 04 . ... ... ... : D#4 04 . ... ... ... : ... .. . ... ... ...
ROW AA : F-5 00 . ... ... ... : ... .. . P83 ... ... : C-4 00 . ... ... ... : ... .. . ... ... ... : ... .. . ... ... ... : ... .. . ... ... ... : ... .. . ... ... ... : ... .. . ... ... ...
ROW AB : A#4 00 . ... ... ... : ... .. . ... ... ... : ... .. . ... ... ... : ... .. . ... ... ... : ... .. . ... ... ... : E-4 05 . ... ... ... : D#4 05 . ... ... ... : ... .. . ... ... ...
ROW AC : ... .. . ... ... ... : ... .. . P81 ... ... : ... .. . ... ... ... : ... .. . ... ... ... : C-1 0A . ... ... ... : E-4 06 . ... ... ... : D#4 06 . ... ... ... : G#1 03 5 P84 ... ...
ROW AD : F-5 00 . ... ... ... : ... .. . P80 ... ... : ... .. . ... ... ... : ... .. . ... ... ... : ... .. . ... ... ... : E-4 07 . ... ... ... : D#4 07 . ... ... ... : ... .. . ... ... ...
ROW AE : A#4 00 A ... ... ... : ... .. . P7D ... ... : ... .. . ... ... ... : ... .. . ... ... ... : ... .. . ... ... ... : E-4 08 . ... ... ... : D#4 08 . ... ... ... : ... .. . P82 ... ...
ROW AF : ... .. . ... ... ... : ... .. . ... ... ... : ... .. . ... ... ... : ... .. . ... ... ... : ... .. . ... ... ... : E-4 09 . ... ... ... : D#4 09 . ... ... ... : ... .. . P80 ... ...
ROW B0 : F-5 00 . ... ... ... : ... .. . P7E ... ... : C-5 00 . ... ... ... : B-# 00 B ... ... ... : ... .. . ... ... ... : D#4 03 . ... ... ... : E-4 03 . ... ... ... : ... .. . P7E ... ...
ROW B1 : A#4 00 . ... ... ... : ... .. . P80 ... ... : ... .. . ... ... ... : ... .. . ... ... ... : ... .. . ... ... ... : ... .. . ... ... ... : ... .. . ... ... ... : ... .. . P7C ... ...
ROW B2 : ... .. . ... ... ... : ... .. . P81 ... ... : ... .. . ... ... ... : ... .. 9 ... ... ... : ... .. . ... ... ... : ... .. . ... ... ... : ... .. . ... ... ... : --- .. . ... ... ...
ROW B3 : F-5 00 . ... ... ... : ... .. . P83 ... ... : ... .. . ... ... ... : ... .. 8 ... ... ... : ... .. . ... ... ... : ... .. . ... ... ... : ... .. . ... ... ... : ... .. . ... ... ...
ROW B4 : A#4 00 . ... ... ... : ... .. . ... ... ... : ... .. . ... ... ... : --- .. . ... ... ... : ... .. . ... ... ... : ... .. . ... ... ... : ... .. . ... ... ... : ... .. . ... ... ...
ROW B5 : ... .. . ... ... ... : ... .. . P81 ... ... : ... .. . ... ... ... : ... .. . ... ... ... : ... .. . ... ... ... : D#4 04 . ... ... ... : E-4 04 . ... ... ... : ... .. . ... ... ...
ROW B6 : F-5 00 . ... ... ... : ... .. . P80 ... ... : C-4 00 . ... ... ... : ... .. . ... ... ... : ... .. . ... ... ... : ... .. . ... ... ... : ... .. . ... ... ... : ... .. . ... ... ...
ROW B7 : A#4 00 . ... ... ... : ... .. . P7E ... ... : ... .. . ... ... ... : ... .. . ... ... ... : ... .. . ... ... ... : D#4 05 . ... ... ... : E-4 05 . ... ... ... : ... .. . ... ... ...
ROW B8 : ... .. . ... ... ... : C#5 02 . P80 ... ... : ... .. . ... ... ... : ... .. . ... ... ... : C-1 0A . ... ... ... : D#4 06 . ... ... ... : E-4 06 . ... ... ... : G#1 03 4 P83 ... ...
ROW B9 : F-5 00 . ... ... ... : ... .. . ... ... ... : ... .. . ... ... ... : ... .. . ... ... ... : ... .. . ... ... ... : D#4 07 . ... ... ... : E-4 07 . ... ... ... : ... .. . P81 ... ...
ROW BA : A#4 00 . ... ... ... : ... .. . ... ... ... : ... .. . ... ... ... : ... .. . ... ... ... : ... .. . ... ... ... : D#4 08 . ... ... ... : E-4 08 . ... ... ... : ... .. . P80 ... ...
ROW BB : ... .. . ... ... ... : ... .. . ... ... ... : ... .. . ... ... ... : ... .. . ... ... ... : ... .. . ... ... ... : D#4 09 . ... ... ... : E-4 09 . ... ... ... : ... .. . P7D ... ...
ROW BC : F-5 00 . ... ... ... : ... .. . ... ... ... : A#4 00 . ... ... ... : A-# 00 F ... ... ... : ... .. . ... ... ... : E-4 03 . ... ... ... : D#4 03 . ... ... ... : ... .. . P7C ... ...
ROW BD : A#4 00 . ... ... ... : ... .. . ... ... ... : ... .. . ... ... ... : ... .. E ... ... ... : ... .. . ... ... ... : ... .. . ... ... ... : ... .. . ... ... ... : ... .. . ... ... ...
ROW BE : ... .. . ... ... ... : ... .. . ... ... ... : ... .. . ... ... ... : ... .. C ... ... ... : ... .. . ... ... ... : ... .. . ... ... ... : ... .. . ... ... ... : ... .. . P7E ... ...
ROW BF : F-5 00 . ... ... ... : ... .. . ... ... ... : ... .. . ... ... ... : ... .. A ... ... ... : ... .. . ... ... ... : ... .. . ... ... ... : ... .. . ... ... ... : ... .. . P80 ... ...
ROW C0 : A#4 00 . ... ... ... : ... .. . ... ... ... : ... .. . ... ... ... : --- .. . ... ... ... : ... .. . ... ... ... : ... .. . ... ... ... : ... .. . ... ... ... : ... .. . P82 ... ...
ROW C1 : ... .. . ... ... ... : ... .. . ... ... ... : ... .. . ... ... ... : ... .. . ... ... ... : ... .. . ... ... ... : E-4 04 . ... ... ... : D#4 04 . ... ... ... : ... .. . P84 ... ...
ROW C2 : F-5 00 . ... ... ... : ... .. . ... ... ... : C-4 00 . ... ... ... : ... .. . ... ... ... : ... .. . ... ... ... : ... .. . ... ... ... : ... .. . ... ... ... : ... .. . ... ... ...
ROW C3 : A#4 00 . ... ... ... : ... .. . ... ... ... : ... .. . ... ... ... : ... .. . ... ... ... : ... .. . ... ... ... : E-4 05 . ... ... ... : D#4 05 . ... ... ... : ... .. . P83 ... ...
ROW C4 : ... .. . ... ... ... : ... .. . ... ... ... : ... .. . ... ... ... : ... .. . ... ... ... : ... .. . ... ... ... : E-4 06 . ... ... ... : D#4 06 . ... ... ... : ... .. . P80 ... ...
ROW C5 : F-5 00 . ... ... ... : ... .. . ... ... ... : ... .. . ... ... ... : ... .. . ... ... ... : ... .. . ... ... ... : E-4 07 . ... ... ... : D#4 07 . ... ... ... : ... .. . P7F ... ...
ROW C6 : A#4 00 . ... ... ... : ... .. . ... ... ... : ... .. . ... ... ... : ... .. . ... ... ... : ... .. . ... ... ... : E-4 08 . ... ... ... : D#4 08 . ... ... ... : ... .. . P7C ... ...
ROW C7 : ... .. . ... ... ... : ... .. . ... ... ... : ... .. . ... ... ... : ... .. . ... ... ... : ... .. . ... ... ... : E-4 09 . ... ... ... : D#4 09 . ... ... ... : ... .. . ... ... ...
ROW C8 : F-5 00 . ... ... ... : ... .. . ... ... ... : E-4 00 . ... ... ... : B-# 00 C ... ... ... : ... .. . ... ... ... : G#3 03 . ... ... ... : A#3 03 D ... ... ... : ... .. . P7D ... ...
ROW C9 : A#4 00 . ... ... ... : ... .. . ... ... ... : ... .. . ... ... ... : ... .. . ... ... ... : ... .. . ... ... ... : ... .. . ... ... ... : ... .. . ... ... ... : ... .. . P7F ... ...
ROW CA : ... .. . ... ... ... : ... .. . ... ... ... : ... .. . ... ... ... : ... .. A ... ... ... : ... .. . ... ... ... : ... .. . ... ... ... : ... .. . ... ... ... : ... .. . P80 ... ...
ROW CB : F-5 00 . ... ... ... : ... .. . ... ... ... : ... .. . ... ... ... : ... .. 9 ... ... ... : ... .. . ... ... ... : ... .. . ... ... ... : ... .. . ... ... ... : ... .. . P83 ... ...
ROW CC : A#4 00 8 ... ... ... : ... .. . ... ... ... : ... .. . ... ... ... : --- .. . ... ... ... : ... .. . ... ... ... : ... .. . ... ... ... : ... .. . ... ... ... : ... .. . P84 ... ...
ROW CD : ... .. . ... ... ... : ... .. . ... ... ... : ... .. . ... ... ... : ... .. . ... ... ... : ... .. . ... ... ... : G#3 04 . ... ... ... : A#3 04 . ... ... ... : ... .. . ... ... ...
ROW CE : F-5 00 . ... ... ... : ... .. . ... ... ... : B-3 00 . ... ... ... : ... .. . ... ... ... : ... .. . ... ... ... : G#2 03 . ... ... ... : ... .. . ... ... ... : ... .. . P82 ... ...
ROW CF : A#4 00 . ... ... ... : ... .. . ... ... ... : ... .. . ... ... ... : ... .. . ... ... ... : ... .. . ... ... ... : ... .. . ... ... ... : A#3 05 . ... ... ... : ... .. . P80 ... ...
ROW D0 : ... .. . ... ... ... : ... .. . ... ... ... : ... .. . ... ... ... : ... .. . ... ... ... : D#1 0A . ... ... ... : ... .. . ... ... ... : A#3 06 . ... ... ... : G#2 03 . P7E ... ...
ROW D1 : F-5 00 . ... ... ... : ... .. . ... ... ... : ... .. . ... ... ... : ... .. . ... ... ... : ... .. . ... ... ... : ... .. . ... ... ... : A#3 07 . ... ... ... : ... .. . P7C ... ...
ROW D2 : A#4 00 A ... ... ... : ... .. . ... ... ... : ... .. . ... ... ... : ... .. . ... ... ... : ... .. . ... ... ... : ... .. . ... ... ... : A#3 08 . ... ... ... : ... .. . ... ... ...
ROW D3 : ... .. . ... ... ... : ... .. . ... ... ... : ... .. . ... ... ... : ... .. . ... ... ... : ... .. . ... ... ... : G#2 04 . ... ... ... : A#3 09 . ... ... ... : ... .. . P7D ... ...
ROW D4 : F-5 00 . ... ... ... : ... .. . ... ... ... : F#4 00 . ... ... ... : D-# 00 A ... ... ... : ... .. . ... ... ... : A#3 03 . ... ... ... : G#3 03 7 ... ... ... : ... .. . P80 ... ...
ROW D5 : A#4 00 . ... ... ... : ... .. . ... ... ... : ... .. . ... ... ... : ... .. . ... ... ... : ... .. . ... ... ... : ... .. . ... ... ... : ... .. . ... ... ... : ... .. . P81 ... ...
ROW D6 : ... .. . ... ... ... : ... .. . ... ... ... : ... .. . ... ... ... : ... .. 8 ... ... ... : ... .. . ... ... ... : ... .. . ... ... ... : ... .. . ... ... ... : ... .. . P84 ... ...
ROW D7 : F-5 00 . ... ... ... : ... .. . ... ... ... : ... .. . ... ... ... : ... .. . ... ... ... : ... .. . ... ... ... : ... .. . ... ... ... : ... .. . ... ... ... : ... .. . ... ... ...
ROW D8 : A#4 00 . ... ... ... : ... .. . ... ... ... : ... .. . ... ... ... : --- .. . ... ... ... : ... .. . ... ... ... : ... .. . ... ... ... : ... .. . ... ... ... : ... .. . P83 ... ...
ROW D9 : ... .. . ... ... ... : ... .. . ... ... ... : ... .. . ... ... ... : ... .. . ... ... ... : ... .. . ... ... ... : A#3 04 . ... ... ... : G#3 04 . ... ... ... : ... .. . P81 ... ...
ROW DA : F-5 00 . ... ... ... : ... .. . ... ... ... : B-3 00 . ... ... ... : ... .. . ... ... ... : ... .. . ... ... ... : G#2 03 . ... ... ... : G#2 03 . ... ... ... : ... .. . P80 ... ...
ROW DB : A#4 00 . ... ... ... : ... .. . ... ... ... : ... .. . ... ... ... : ... .. . ... ... ... : ... .. . ... ... ... : ... .. . ... ... ... : ... .. . ... ... ... : ... .. . P7D ... ...
ROW DC : ... .. . ... ... ... : ... .. . ... ... ... : ... .. . ... ... ... : ... .. . ... ... ... : ... .. . ... ... ... : ... .. . ... ... ... : ... .. . ... ... ... : ... .. . P7C ... ...
ROW DD : F-5 00 . ... ... ... : ... .. . ... ... ... : ... .. . ... ... ... : ... .. . ... ... ... : ... .. . ... ... ... : ... .. . ... ... ... : ... .. . ... ... ... : ... .. . ... ... ...
ROW DE : A#4 00 . ... ... ... : ... .. . ... ... ... : ... .. . ... ... ... : ... .. . ... ... ... : ... .. . ... ... ... : ... .. . ... ... ... : ... .. . ... ... ... : ... .. . P7E ... ...
ROW DF : ... .. . ... ... ... : ... .. . ... ... ... : ... .. . ... ... ... : ... .. . ... ... ... : ... .. . ... ... ... : G#2 04 . ... ... ... : G#2 04 . ... ... ... : ... .. . P80 ... ...
ROW E0 : F-5 00 . ... ... ... : ... .. . ... ... ... : G#4 00 . ... ... ... : B-# 00 B ... ... ... : ... .. . ... ... ... : B-3 03 . ... ... ... : A#3 03 . ... ... ... : ... .. . P82 ... ...
ROW E1 : A#4 00 . ... ... ... : ... .. . ... ... ... : ... .. . ... ... ... : ... .. . ... ... ... : ... .. . ... ... ... : ... .. . ... ... ... : ... .. . ... ... ... : ... .. . P84 ... ...
ROW E2 : ... .. . ... ... ... : ... .. . ... ... ... : ... .. . ... ... ... : ... .. 9 ... ... ... : ... .. . ... ... ... : ... .. . ... ... ... : ... .. . ... ... ... : ... .. . ... ... ...
ROW E3 : F-5 00 . ... ... ... : ... .. . ... ... ... : ... .. . ... ... ... : ... .. 8 ... ... ... : ... .. . ... ... ... : ... .. . ... ... ... : ... .. . ... ... ... : ... .. . P83 ... ...
ROW E4 : A#4 00 8 ... ... ... : ... .. . ... ... ... : ... .. . ... ... ... : --- .. . ... ... ... : ... .. . ... ... ... : ... .. . ... ... ... : ... .. . ... ... ... : ... .. . P80 ... ...
ROW E5 : ... .. . ... ... ... : ... .. . ... ... ... : ... .. . ... ... ... : ... .. . ... ... ... : ... .. . ... ... ... : B-3 04 . ... ... ... : A#3 04 . ... ... ... : ... .. . P7F ... ...
ROW E6 : F-5 00 . ... ... ... : ... .. . ... ... ... : B-3 00 . ... ... ... : ... .. . ... ... ... : ... .. . ... ... ... : G#2 03 . ... ... ... : G#2 03 . ... ... ... : ... .. . P7C ... ...
ROW E7 : A#4 00 . ... ... ... : ... .. . ... ... ... : ... .. . ... ... ... : ... .. . ... ... ... : ... .. . ... ... ... : ... .. . ... ... ... : ... .. . ... ... ... : ... .. . ... ... ...
ROW E8 : ... .. . ... ... ... : D#5 02 . ... ... ... : ... .. . ... ... ... : ... .. . ... ... ... : C-1 0A . ... ... ... : ... .. . ... ... ... : ... .. . ... ... ... : F#1 03 . P7D ... ...
ROW E9 : F-5 00 . ... ... ... : ... .. . ... ... ... : ... .. . ... ... ... : ... .. . ... ... ... : ... .. . ... ... ... : ... .. . ... ... ... : ... .. . ... ... ... : ... .. . P7F ... ...
ROW EA : A#4 00 . ... ... ... : ... .. . ... ... ... : ... .. . ... ... ... : ... .. . ... ... ... : ... .. . ... ... ... : ... .. . ... ... ... : ... .. . ... ... ... : ... .. . P80 ... ...
ROW EB : ... .. . ... ... ... : ... .. . ... ... ... : ... .. . ... ... ... : ... .. . ... ... ... : ... .. . ... ... ... : G#2 04 . ... ... ... : G#2 04 . ... ... ... : ... .. . P83 ... ...
ROW EC : F-5 00 . ... ... ... : ... .. . ... ... ... : A#4 00 . ... ... ... : A-# 00 F ... ... ... : ... .. . ... ... ... : C#4 03 . ... ... ... : B-3 03 . ... ... ... : ... .. . P84 ... ...
ROW ED : A#4 00 . ... ... ... : ... .. . ... ... ... : ... .. . ... ... ... : ... .. E ... ... ... : ... .. . ... ... ... : ... .. . ... ... ... : ... .. . ... ... ... : ... .. . ... ... ...
ROW EE : ... .. . ... ... ... : ... .. . ... ... ... : ... .. . ... ... ... : ... .. C ... ... ... : ... .. . ... ... ... : ... .. . ... ... ... : ... .. . ... ... ... : ... .. . P82 ... ...
ROW EF : F-5 00 . ... ... ... : ... .. . ... ... ... : ... .. . ... ... ... : ... .. A ... ... ... : ... .. . ... ... ... : ... .. . ... ... ... : ... .. . ... ... ... : ... .. . P80 ... ...
ROW F0 : A#4 00 . ... ... ... : ... .. . ... ... ... : ... .. . ... ... ... : --- .. . ... ... ... : ... .. . ... ... ... : ... .. . ... ... ... : ... .. . ... ... ... : ... .. . P7E ... ...
ROW F1 : ... .. . ... ... ... : ... .. . ... ... ... : ... .. . ... ... ... : ... .. . ... ... ... : ... .. . ... ... ... : C#4 04 . ... ... ... : B-3 04 . ... ... ... : ... .. . P7C ... ...
ROW F2 : F-5 00 . ... ... ... : ... .. . ... ... ... : B-3 00 . ... ... ... : ... .. . ... ... ... : ... .. . ... ... ... : G#2 03 . ... ... ... : G#2 03 . ... ... ... : ... .. . ... ... ...
ROW F3 : A#4 00 . ... ... ... : ... .. . ... ... ... : ... .. . ... ... ... : ... .. . ... ... ... : ... .. . ... ... ... : ... .. . ... ... ... : ... .. . ... ... ... : ... .. . P7D ... ...
ROW F4 : ... .. . ... ... ... : ... .. . ... ... ... : ... .. . ... ... ... : ... .. . ... ... ... : ... .. . ... ... ... : ... .. . ... ... ... : ... .. . ... ... ... : ... .. . P80 ... ...
ROW F5 : F-5 00 . ... ... ... : ... .. . ... ... ... : ... .. . ... ... ... : ... .. . ... ... ... : ... .. . ... ... ... : ... .. . ... ... ... : ... .. . ... ... ... : ... .. . P81 ... ...
ROW F6 : --- .. . ... ... ... : ... .. . ... ... ... : ... .. . ... ... ... : ... .. . ... ... ... : ... .. . ... ... ... : ... .. . ... ... ... : ... .. . ... ... ... : ... .. . P84 ... ...
ROW F7 : ... .. . ... ... ... : ... .. . ... ... ... : ... .. . ... ... ... : ... .. . ... ... ... : ... .. . ... ... ... : G#2 04 . ... ... ... : G#2 04 . ... ... ... : ... .. . ... ... ...
ROW F8 : ... .. . ... ... ... : ... .. . ... ... ... : B-4 00 . ... ... ... : B-# 00 C ... ... ... : ... .. . ... ... ... : D#4 03 . ... ... ... : C#4 03 . ... ... ... : ... .. . P83 ... ...
ROW F9 : ... .. . ... ... ... : ... .. . ... ... ... : ... .. . ... ... ... : ... .. . ... ... ... : ... .. . ... ... ... : ... .. . ... ... ... : ... .. . ... ... ... : ... .. . P81 ... ...
ROW FA : ... .. . ... ... ... : ... .. . ... ... ... : ... .. . ... ... ... : ... .. A ... ... ... : ... .. . ... ... ... : ... .. . ... ... ... : ... .. . ... ... ... : ... .. . P80 ... ...
ROW FB : ... .. . ... ... ... : ... .. . ... ... ... : ... .. . ... ... ... : ... .. 9 ... ... ... : ... .. . ... ... ... : ... .. . ... ... ... : ... .. . ... ... ... : ... .. . P7D ... ...
ROW FC : A#4 00 . ... ... ... : ... .. . ... ... ... : ... .. . ... ... ... : --- .. . ... ... ... : ... .. . ... ... ... : ... .. . ... ... ... : ... .. . ... ... ... : ... .. . P7C ... ...
ROW FD : ... .. . ... ... ... : ... .. . ... ... ... : ... .. . ... ... ... : ... .. . ... ... ... : ... .. . ... ... ... : D#4 04 . ... ... ... : C#4 04 . ... ... ... : ... .. . ... ... ...
ROW FE : F-5 00 . ... ... ... : ... .. . ... ... ... : B-3 00 . ... ... ... : ... .. . ... ... ... : ... .. . ... ... ... : G#2 03 . ... ... ... : G#2 03 . ... ... ... : ... .. . P7E ... ...
ROW FF : A#4 00 . ... ... ... : ... .. . ... ... ... : ... .. . ... ... ... : ... .. . ... ... ... : ... .. . ... ... ... : ... .. . ... ... ... : ... .. . ... ... ... : ... .. . P80 ... ...

PATTERN 0B
ROW 00 : ... .. . ... ... ... : ... .. . P7F ... ... : ... .. . ... ... ... : ... .. . ... ... ... : D#1 0A . ... ... ... : ... .. . ... ... ... : ... .. . ... ... ... : ... .. . P82 ... ...
ROW 01 : F-5 00 . ... ... ... : ... .. . P7E ... ... : ... .. . ... ... ... : ... .. . ... ... ... : ... .. . ... ... ... : ... .. . ... ... ... : ... .. . ... ... ... : ... .. . P84 ... ...
ROW 02 : A#4 00 A ... ... ... : D-5 02 . P82 ... ... : ... .. . ... ... ... : ... .. . ... ... ... : ... .. . ... ... ... : ... .. . ... ... ... : ... .. . ... ... ... : ... .. . ... ... ...
ROW 03 : ... .. . ... ... ... : ... .. . P81 ... ... : ... .. . ... ... ... : ... .. . ... ... ... : ... .. . ... ... ... : G#2 04 . ... ... ... : G#2 04 . ... ... ... : ... .. . P83 ... ...
ROW 04 : F-5 00 . ... ... ... : ... .. . P80 ... ... : A#4 00 . ... ... ... : D-# 00 A ... ... ... : ... .. . ... ... ... : C#4 03 . ... ... ... : D#4 03 . ... ... ... : ... .. . P80 ... ...
ROW 05 : A#4 00 . ... ... ... : ... .. . P7F ... ... : ... .. . ... ... ... : ... .. . ... ... ... : ... .. . ... ... ... : ... .. . ... ... ... : ... .. . ... ... ... : ... .. . P7F ... ...
ROW 06 : ... .. . ... ... ... : ... .. . P7E ... ... : ... .. . ... ... ... : ... .. 8 ... ... ... : ... .. . ... ... ... : ... .. . ... ... ... : ... .. . ... ... ... : --- .. . ... ... ...
ROW 07 : F-5 00 . ... ... ... : C#5 02 . P83 ... ... : ... .. . ... ... ... : ... .. . ... ... ... : ... .. . ... ... ... : ... .. . ... ... ... : ... .. . ... ... ... : ... .. . ... ... ...
ROW 08 : --- .. . ... ... ... : ... .. . P82 ... ... : ... .. . ... ... ... : --- .. . ... ... ... : ... .. . ... ... ... : ... .. . ... ... ... : ... .. . ... ... ... : ... .. . ... ... ...
ROW 09 : ... .. . ... ... ... : ... .. . P81 ... ... : ... .. . ... ... ... : ... .. . ... ... ... : ... .. . ... ... ... : C#4 04 . ... ... ... : D#4 04 . ... ... ... : ... .. . ... ... ...
ROW 0A : ... .. . ... ... ... : ... .. . P80 ... ... : B-3 00 . ... ... ... : ... .. . ... ... ... : ... .. . ... ... ... : G#2 03 . ... ... ... : G#2 03 . ... ... ... : ... .. . ... ... ...
ROW 0B : ... .. . ... ... ... : ... .. . P7F ... ... : ... .. . ... ... ... : ... .. . ... ... ... : ... .. . ... ... ... : ... .. . ... ... ... : ... .. . ... ... ... : ... .. . ... ... ...
ROW 0C : ... .. . ... ... ... : ... .. . P7E ... ... : ... .. . ... ... ... : ... .. . ... ... ... : C-1 0A . ... ... ... : ... .. . ... ... ... : ... .. . ... ... ... : F#1 03 5 P84 ... ...
ROW 0D : ... .. . ... ... ... : C-5 02 . P83 ... ... : ... .. . ... ... ... : ... .. . ... ... ... : ... .. . ... ... ... : ... .. . ... ... ... : ... .. . ... ... ... : ... .. . ... ... ...
ROW 0E : ... .. . ... ... ... : ... .. . P82 ... ... : ... .. . ... ... ... : ... .. . ... ... ... : ... .. . ... ... ... : ... .. . ... ... ... : ... .. . ... ... ... : ... .. . P82 ... ...
ROW 0F : ... .. . ... ... ... : ... .. . P81 ... ... : ... .. . ... ... ... : ... .. . ... ... ... : ... .. . ... ... ... : G#2 04 . ... ... ... : G#2 04 . ... ... ... : ... .. . P80 ... ...
ROW 10 : ... .. . ... ... ... : ... .. . P80 ... ... : G#4 00 . ... ... ... : B-# 00 B ... ... ... : ... .. . ... ... ... : B-3 03 . ... ... ... : C#4 03 . ... ... ... : ... .. . P7E ... ...
ROW 11 : ... .. . ... ... ... : ... .. . P7F ... ... : ... .. . ... ... ... : ... .. . ... ... ... : ... .. . ... ... ... : ... .. . ... ... ... : ... .. . ... ... ... : ... .. . P7C ... ...
ROW 12 : ... .. . ... ... ... : ... .. . P7E ... ... : ... .. . ... ... ... : ... .. 9 ... ... ... : ... .. . ... ... ... : ... .. . ... ... ... : ... .. . ... ... ... : --- .. . ... ... ...
ROW 13 : ... .. . ... ... ... : B-4 02 . P83 ... ... : ... .. . ... ... ... : ... .. 8 ... ... ... : ... .. . ... ... ... : ... .. . ... ... ... : ... .. . ... ... ... : ... .. . ... ... ...
ROW 14 : ... .. . ... ... ... : ... .. . P82 ... ... : ... .. . ... ... ... : --- .. . ... ... ... : ... .. . ... ... ... : ... .. . ... ... ... : ... .. . ... ... ... : ... .. . ... ... ...
ROW 15 : ... .. . ... ... ... : ... .. . P81 ... ... : ... .. . ... ... ... : ... .. . ... ... ... : ... .. . ... ... ... : B-3 04 . ... ... ... : C#4 04 . ... ... ... : ... .. . ... ... ...
ROW 16 : ... .. . ... ... ... : ... .. . P80 ... ... : B-3 00 . ... ... ... : ... .. . ... ... ... : ... .. . ... ... ... : G#2 03 . ... ... ... : G#2 03 . ... ... ... : ... .. . ... ... ...
ROW 17 : ... .. . ... ... ... : ... .. . P7F ... ... : ... .. . ... ... ... : ... .. . ... ... ... : ... .. . ... ... ... : ... .. . ... ... ... : ... .. . ... ... ... : ... .. . ... ... ...
ROW 18 : ... .. . ... ... ... : ... .. . P7E ... ... : ... .. . ... ... ... : ... .. . ... ... ... : C-1 0A . ... ... ... : ... .. . ... ... ... : ... .. . ... ... ... : F#1 03 4 P83 ... ...
ROW 19 : ... .. . ... ... ... : ... .. . P7D ... ... : ... .. . ... ... ... : ... .. . ... ... ... : ... .. . ... ... ... : ... .. . ... ... ... : ... .. . ... ... ... : ... .. . P81 ... ...
ROW 1A : ... .. . ... ... ... : A#4 02 . P83 ... ... : ... .. . ... ... ... : ... .. . ... ... ... : ... .. . ... ... ... : ... .. . ... ... ... : ... .. . ... ... ... : ... .. . P80 ... ...
ROW 1B : ... .. . ... ... ... : ... .. . P82 ... ... : ... .. . ... ... ... : ... .. . ... ... ... : ... .. . ... ... ... : G#2 04 . ... ... ... : G#2 04 . ... ... ... : ... .. . P7D ... ...
ROW 1C : ... .. . ... ... ... : ... .. . P81 ... ... : F#4 00 . ... ... ... : A-# 00 F ... ... ... : ... .. . ... ... ... : A#3 03 . ... ... ... : B-3 03 . ... ... ... : ... .. . P7C ... ...
ROW 1D : ... .. . ... ... ... : ... .. . P80 ... ... : ... .. . ... ... ... : ... .. E ... ... ... : ... .. . ... ... ... : ... .. . ... ... ... : ... .. . ... ... ... : ... .. . ... ... ...
ROW 1E : ... .. . ... ... ... : ... .. . P7F ... ... : ... .. . ... ... ... : ... .. C ... ... ... : ... .. . ... ... ... : ... .. . ... ... ... : ... .. . ... ... ... : ... .. . P7E ... ...
ROW 1F : ... .. . ... ... ... : ... .. . P7E ... ... : ... .. . ... ... ... : ... .. A ... ... ... : ... .. . ... ... ... : ... .. . ... ... ... : ... .. . ... ... ... : ... .. . P80 ... ...
ROW 20 : ... .. . ... ... ... : ... .. . P7D ... ... : ... .. . ... ... ... : --- .. . ... ... ... : ... .. . ... ... ... : ... .. . ... ... ... : ... .. . ... ... ... : ... .. . P82 ... ...
ROW 21 : ... .. . ... ... ... : A-4 02 . P83 ... ... : ... .. . ... ... ... : ... .. . ... ... ... : ... .. . ... ... ... : A#3 04 . ... ... ... : B-3 04 . ... ... ... : ... .. . P84 ... ...
ROW 22 : ... .. . ... ... ... : ... .. . P82 ... ... : B-3 00 . ... ... ... : ... .. . ... ... ... : ... .. . ... ... ... : G#2 03 . ... ... ... : G#2 03 . ... ... ... : ... .. . ... ... ...
ROW 23 : ... .. . ... ... ... : ... .. . P81 ... ... : ... .. . ... ... ... : ... .. . ... ... ... : ... .. . ... ... ... : ... .. . ... ... ... : ... .. . ... ... ... : ... .. . P83 ... ...
ROW 24 : ... .. . ... ... ... : ... .. . P80 ... ... : ... .. . ... ... ... : ... .. . ... ... ... : ... .. . ... ... ... : ... .. . ... ... ... : ... .. . ... ... ... : ... .. . P80 ... ...
ROW 25 : ... .. . ... ... ... : ... .. . P7F ... ... : ... .. . ... ... ... : ... .. . ... ... ... : ... .. . ... ... ... : ... .. . ... ... ... : ... .. . ... ... ... : ... .. . P7F ... ...
ROW 26 : ... .. . ... ... ... : ... .. . P7E ... ... : ... .. . ... ... ... : ... .. . ... ... ... : ... .. . ... ... ... : ... .. . ... ... ... : ... .. . ... ... ... : ... .. . P7C ... ...
ROW 27 : ... .. . ... ... ... : ... .. . P7D ... ... : ... .. . ... ... ... : ... .. . ... ... ... : ... .. . ... ... ... : G#2 04 . ... ... ... : G#2 04 . ... ... ... : ... .. . ... ... ...
ROW 28 : ... .. . ... ... ... : G#4 02 . P84 ... ... : F#4 00 . ... ... ... : B-# 00 C ... ... ... : ... .. . ... ... ... : G-3 03 . ... ... ... : A#3 03 . ... ... ... : ... .. . P7D ... ...
ROW 29 : ... .. . ... ... ... : ... .. . P83 ... ... : ... .. . ... ... ... : ... .. . ... ... ... : ... .. . ... ... ... : ... .. . ... ... ... : ... .. . ... ... ... : ... .. . P7F ... ...
ROW 2A : ... .. . ... ... ... : ... .. . P82 ... ... : ... .. . ... ... ... : ... .. A ... ... ... : ... .. . ... ... ... : ... .. . ... ... ... : ... .. . ... ... ... : ... .. . P80 ... ...
ROW 2B : ... .. . ... ... ... : ... .. . P81 ... ... : ... .. . ... ... ... : ... .. 9 ... ... ... : ... .. . ... ... ... : ... .. . ... ... ... : ... .. . ... ... ... : ... .. . P83 ... ...
ROW 2C : ... .. . ... ... ... : ... .. . P80 ... ... : ... .. . ... ... ... : --- .. . ... ... ... : ... .. . ... ... ... : ... .. . ... ... ... : ... .. . ... ... ... : ... .. . P84 ... ...
ROW 2D : ... .. . ... ... ... : ... .. . P7F ... ... : ... .. . ... ... ... : ... .. . ... ... ... : ... .. . ... ... ... : G-3 04 . ... ... ... : A#3 04 . ... ... ... : ... .. . ... ... ...
ROW 2E : ... .. . ... ... ... : ... .. . P7E ... ... : C#4 00 . ... ... ... : ... .. . ... ... ... : ... .. . ... ... ... : G#2 03 . ... ... ... : G#2 03 . ... ... ... : ... .. . P82 ... ...
ROW 2F : ... .. . ... ... ... : ... .. . P7D ... ... : ... .. . ... ... ... : ... .. . ... ... ... : ... .. . ... ... ... : ... .. . ... ... ... : ... .. . ... ... ... : ... .. . P80 ... ...
ROW 30 : ... .. . ... ... ... : G-4 02 . P84 ... ... : ... .. . ... ... ... : ... .. . ... ... ... : D#1 0A . ... ... ... : ... .. . ... ... ... : ... .. . ... ... ... : E-1 03 . P7E ... ...
ROW 31 : ... .. . ... ... ... : ... .. . P83 ... ... : ... .. . ... ... ... : ... .. . ... ... ... : ... .. . ... ... ... : ... .. . ... ... ... : ... .. . ... ... ... : ... .. . P7C ... ...
ROW 32 : ... .. . ... ... ... : ... .. . P82 ... ... : ... .. . ... ... ... : ... .. . ... ... ... : ... .. . ... ... ... : ... .. . ... ... ... : ... .. . ... ... ... : ... .. . ... ... ...
ROW 33 : ... .. . ... ... ... : ... .. . P81 ... ... : ... .. . ... ... ... : ... .. . ... ... ... : ... .. . ... ... ... : G#2 04 . ... ... ... : G#2 04 . ... ... ... : ... .. . P7D ... ...
ROW 34 : ... .. . ... ... ... : ... .. . P80 ... ... : G#4 00 . ... ... ... : D-# 00 A ... ... ... : ... .. . ... ... ... : G#3 03 . ... ... ... : G-3 03 . ... ... ... : ... .. . P80 ... ...
ROW 35 : ... .. . ... ... ... : ... .. . P7F ... ... : ... .. . ... ... ... : ... .. . ... ... ... : ... .. . ... ... ... : ... .. . ... ... ... : ... .. . ... ... ... : ... .. . P81 ... ...
ROW 36 : ... .. . ... ... ... : ... .. . P7E ... ... : ... .. . ... ... ... : ... .. 8 ... ... ... : ... .. . ... ... ... : ... .. . ... ... ... : ... .. . ... ... ... : ... .. . P84 ... ...
ROW 37 : ... .. . ... ... ... : ... .. . P7D ... ... : ... .. . ... ... ... : ... .. . ... ... ... : ... .. . ... ... ... : ... .. . ... ... ... : ... .. . ... ... ... : ... .. . ... ... ...
ROW 38 : ... .. . ... ... ... : F#4 02 . P84 ... ... : ... .. . ... ... ... : --- .. . ... ... ... : ... .. . ... ... ... : ... .. . ... ... ... : ... .. . ... ... ... : ... .. . P83 ... ...
ROW 39 : ... .. . ... ... ... : ... .. . P83 ... ... : ... .. . ... ... ... : ... .. . ... ... ... : ... .. . ... ... ... : G#3 04 . ... ... ... : G-3 04 . ... ... ... : ... .. . P81 ... ...
ROW 3A : ... .. . ... ... ... : ... .. . P82 ... ... : C#4 00 . ... ... ... : ... .. . ... ... ... : ... .. . ... ... ... : G#2 03 . ... ... ... : G#2 03 . ... ... ... : ... .. . P80 ... ...
ROW 3B : ... .. . ... ... ... : ... .. . P81 ... ... : ... .. . ... ... ... : ... .. . ... ... ... : ... .. . ... ... ... : ... .. . ... ... ... : ... .. . ... ... ... : ... .. . P7D ... ...
ROW 3C : ... .. . ... ... ... : ... .. . P80 ... ... : ... .. . ... ... ... : ... .. . ... ... ... : ... .. . ... ... ... : ... .. . ... ... ... : ... .. . ... ... ... : ... .. . P7C ... ...
ROW 3D : ... .. . ... ... ... : ... .. . P7F ... ... : ... .. . ... ... ... : ... .. . ... ... ... : ... .. . ... ... ... : ... .. . ... ... ... : ... .. . ... ... ... : ... .. . ... ... ...
ROW 3E : ... .. . ... ... ... : ... .. . P7E ... ... : ... .. . ... ... ... : ... .. . ... ... ... : ... .. . ... ... ... : ... .. . ... ... ... : ... .. . ... ... ... : ... .. . P7E ... ...
ROW 3F : ... .. . ... ... ... : ... .. . P7D ... ... : ... .. . ... ... ... : ... .. . ... ... ... : ... .. . ... ... ... : G#2 04 . ... ... ... : G#2 04 . ... ... ... : ... .. . P80 ... ...
ROW 40 : ... .. . ... ... ... : ... .. . P7C ... ... : A#4 00 . ... ... ... : B-# 00 B ... ... ... : ... .. . ... ... ... : A#3 03 . ... ... ... : G#3 03 . ... ... ... : ... .. . P82 ... ...
ROW 41 : ... .. . ... ... ... : F-4 02 . P84 ... ... : ... .. . ... ... ... : ... .. . ... ... ... : ... .. . ... ... ... : ... .. . ... ... ... : ... .. . ... ... ... : ... .. . P84 ... ...
ROW 42 : ... .. . ... ... ... : ... .. . P83 ... ... : ... .. . ... ... ... : ... .. 9 ... ... ... : ... .. . ... ... ... : ... .. . ... ... ... : ... .. . ... ... ... : ... .. . ... ... ...
ROW 43 : ... .. . ... ... ... : ... .. . P82 ... ... : ... .. . ... ... ... : ... .. 8 ... ... ... : ... .. . ... ... ... : ... .. . ... ... ... : ... .. . ... ... ... : ... .. . P83 ... ...
ROW 44 : ... .. . ... ... ... : ... .. . P81 ... ... : ... .. . ... ... ... : --- .. . ... ... ... : ... .. . ... ... ... : ... .. . ... ... ... : ... .. . ... ... ... : ... .. . P80 ... ...
ROW 45 : ... .. . ... ... ... : ... .. . P80 ... ... : ... .. . ... ... ... : ... .. . ... ... ... : ... .. . ... ... ... : A#3 04 . ... ... ... : G#3 04 . ... ... ... : ... .. . P7F ... ...
ROW 46 : ... .. . ... ... ... : ... .. . P7F ... ... : C#4 00 . ... ... ... : ... .. . ... ... ... : ... .. . ... ... ... : G#2 03 . ... ... ... : G#2 03 . ... ... ... : ... .. . P7C ... ...
ROW 47 : ... .. . ... ... ... : ... .. . P7E ... ... : ... .. . ... ... ... : ... .. . ... ... ... : ... .. . ... ... ... : ... .. . ... ... ... : ... .. . ... ... ... : ... .. . ... ... ...
ROW 48 : ... .. . ... ... ... : F#4 00 . P80 ... ... : ... .. . ... ... ... : ... .. . ... ... ... : C-1 0A . ... ... ... : ... .. . ... ... ... : ... .. . ... ... ... : G-1 03 . P7D ... ...
ROW 49 : ... .. . ... ... ... : ... .. . ... ... ... : ... .. . ... ... ... : ... .. . ... ... ... : ... .. . ... ... ... : ... .. . ... ... ... : ... .. . ... ... ... : ... .. . P7F ... ...
ROW 4A : ... .. . ... ... ... : ... .. . ... ... ... : ... .. . ... ... ... : ... .. . ... ... ... : ... .. . ... ... ... : ... .. . ... ... ... : ... .. . ... ... ... : ... .. . P80 ... ...
ROW 4B : ... .. . ... ... ... : ... .. . ... ... ... : ... .. . ... ... ... : ... .. . ... ... ... : ... .. . ... ... ... : G#2 04 . ... ... ... : G#2 04 . ... ... ... : ... .. . P83 ... ...
ROW 4C : ... .. . ... ... ... : ... .. . ... ... ... : B-4 00 . ... ... ... : A-# 00 F ... ... ... : ... .. . ... ... ... : B-3 03 . ... ... ... : A#3 03 . ... ... ... : ... .. . P84 ... ...
ROW 4D : ... .. . ... ... ... : ... .. . ... ... ... : ... .. . ... ... ... : ... .. E ... ... ... : ... .. . ... ... ... : ... .. . ... ... ... : ... .. . ... ... ... : ... .. . ... ... ...
ROW 4E : ... .. . ... ... ... : ... .. . ... ... ... : ... .. . ... ... ... : ... .. C ... ... ... : ... .. . ... ... ... : ... .. . ... ... ... : ... .. . ... ... ... : ... .. . P82 ... ...
ROW 4F : ... .. . ... ... ... : F#4 01 . ... ... ... : ... .. . ... ... ... : ... .. A ... ... ... : ... .. . ... ... ... : ... .. . ... ... ... : ... .. . ... ... ... : ... .. . P80 ... ...
ROW 50 : ... .. . ... ... ... : ... .. . ... ... ... : ... .. . ... ... ... : --- .. . ... ... ... : ... .. . ... ... ... : ... .. . ... ... ... : ... .. . ... ... ... : ... .. . P7E ... ...
ROW 51 : ... .. . ... ... ... : ... .. . ... ... ... : ... .. . ... ... ... : ... .. . ... ... ... : ... .. . ... ... ... : B-3 04 . ... ... ... : A#3 04 . ... ... ... : ... .. . P7C ... ...
ROW 52 : ... .. . ... ... ... : ... .. . ... ... ... : C#4 00 . ... ... ... : ... .. . ... ... ... : ... .. . ... ... ... : G#2 03 . ... ... ... : G#2 03 . ... ... ... : ... .. . ... ... ...
ROW 53 : ... .. . ... ... ... : F#4 02 . ... ... ... : ... .. . ... ... ... : ... .. . ... ... ... : ... .. . ... ... ... : ... .. . ... ... ... : ... .. . ... ... ... : ... .. . P7D ... ...
ROW 54 : ... .. . ... ... ... : F-4 00 . ... ... ... : ... .. . ... ... ... : ... .. . ... ... ... : ... .. . ... ... ... : ... .. . ... ... ... : ... .. . ... ... ... : ... .. . P80 ... ...
ROW 55 : ... .. . ... ... ... : ... .. . ... ... ... : ... .. . ... ... ... : ... .. . ... ... ... : ... .. . ... ... ... : ... .. . ... ... ... : ... .. . ... ... ... : ... .. . P81 ... ...
ROW 56 : ... .. . ... ... ... : ... .. . ... ... ... : ... .. . ... ... ... : ... .. . ... ... ... : ... .. . ... ... ... : ... .. . ... ... ... : ... .. . ... ... ... : ... .. . P84 ... ...
ROW 57 : ... .. . ... ... ... : ... .. . ... ... ... : ... .. . ... ... ... : ... .. . ... ... ... : ... .. . ... ... ... : G#2 04 . ... ... ... : G#2 04 . ... ... ... : ... .. . ... ... ...
ROW 58 : ... .. . ... ... ... : ... .. . ... ... ... : C#5 00 . ... ... ... : B-# 00 C ... ... ... : ... .. . ... ... ... : C#4 03 . ... ... ... : B-3 03 . ... ... ... : ... .. . P83 ... ...
ROW 59 : ... .. . ... ... ... : ... .. . ... ... ... : ... .. . ... ... ... : ... .. . ... ... ... : ... .. . ... ... ... : ... .. . ... ... ... : ... .. . ... ... ... : ... .. . P81 ... ...
ROW 5A : ... .. . ... ... ... : ... .. . ... ... ... : ... .. . ... ... ... : ... .. A ... ... ... : ... .. . ... ... ... : ... .. . ... ... ... : ... .. . ... ... ... : ... .. . P80 ... ...
ROW 5B : ... .. . ... ... ... : F-4 01 . ... ... ... : ... .. . ... ... ... : ... .. 9 ... ... ... : ... .. . ... ... ... : ... .. . ... ... ... : ... .. . ... ... ... : ... .. . P7D ... ...
ROW 5C : ... .. . ... ... ... : ... .. . ... ... ... : ... .. . ... ... ... : --- .. . ... ... ... : ... .. . ... ... ... : ... .. . ... ... ... : ... .. . ... ... ... : ... .. . P7C ... ...
ROW 5D : ... .. . ... ... ... : ... .. . ... ... ... : ... .. . ... ... ... : ... .. . ... ... ... : ... .. . ... ... ... : C#4 04 . ... ... ... : B-3 04 . ... ... ... : ... .. . ... ... ...
ROW 5E : ... .. . ... ... ... : ... .. . ... ... ... : C#4 00 . ... ... ... : ... .. . ... ... ... : ... .. . ... ... ... : G#2 03 . ... ... ... : G#2 03 . ... ... ... : ... .. . P7E ... ...
ROW 5F : ... .. . ... ... ... : F-4 02 . ... ... ... : ... .. . ... ... ... : ... .. . ... ... ... : ... .. . ... ... ... : ... .. . ... ... ... : ... .. . ... ... ... : ... .. . P80 ... ...
ROW 60 : ... .. . ... ... ... : F#4 00 . ... ... ... : ... .. . ... ... ... : ... .. . ... ... ... : D#1 0A . ... ... ... : ... .. . ... ... ... : ... .. . ... ... ... : ... .. . P82 ... ...
ROW 61 : ... .. . ... ... ... : ... .. . ... ... ... : ... .. . ... ... ... : ... .. . ... ... ... : ... .. . ... ... ... : ... .. . ... ... ... : ... .. . ... ... ... : ... .. . P84 ... ...
ROW 62 : ... .. . ... ... ... : ... .. . ... ... ... : ... .. . ... ... ... : ... .. . ... ... ... : ... .. . ... ... ... : ... .. . ... ... ... : ... .. . ... ... ... : ... .. . ... ... ...
ROW 63 : ... .. . ... ... ... : ... .. . ... ... ... : ... .. . ... ... ... : ... .. . ... ... ... : ... .. . ... ... ... : G#2 04 . ... ... ... : G#2 04 . ... ... ... : ... .. . P83 ... ...
ROW 64 : ... .. . ... ... ... : ... .. . ... ... ... : B-4 00 . ... ... ... : D-# 00 A ... ... ... : ... .. . ... ... ... : B-3 03 . ... ... ... : C#4 03 . ... ... ... : ... .. . P80 ... ...
ROW 65 : ... .. . ... ... ... : ... .. . ... ... ... : ... .. . ... ... ... : ... .. . ... ... ... : ... .. . ... ... ... : ... .. . ... ... ... : ... .. . ... ... ... : ... .. . P7F ... ...
ROW 66 : ... .. . ... ... ... : ... .. . ... ... ... : ... .. . ... ... ... : ... .. 8 ... ... ... : ... .. . ... ... ... : ... .. . ... ... ... : ... .. . ... ... ... : --- .. . ... ... ...
ROW 67 : ... .. . ... ... ... : F#4 01 . ... ... ... : ... .. . ... ... ... : ... .. . ... ... ... : ... .. . ... ... ... : ... .. . ... ... ... : ... .. . ... ... ... : ... .. . ... ... ...
ROW 68 : ... .. . ... ... ... : ... .. . ... ... ... : ... .. . ... ... ... : --- .. . ... ... ... : ... .. . ... ... ... : ... .. . ... ... ... : ... .. . ... ... ... : ... .. . ... ... ...
ROW 69 : ... .. . ... ... ... : ... .. . ... ... ... : ... .. . ... ... ... : ... .. . ... ... ... : ... .. . ... ... ... : B-3 04 . ... ... ... : C#4 04 . ... ... ... : ... .. . ... ... ...
ROW 6A : ... .. . ... ... ... : ... .. . ... ... ... : C#4 00 . ... ... ... : ... .. . ... ... ... : ... .. . ... ... ... : G#2 03 . ... ... ... : G#2 03 . ... ... ... : ... .. . ... ... ...
ROW 6B : ... .. . ... ... ... : F#4 02 . ... ... ... : ... .. . ... ... ... : ... .. . ... ... ... : ... .. . ... ... ... : ... .. . ... ... ... : ... .. . ... ... ... : ... .. . ... ... ...
ROW 6C : ... .. . ... ... ... : G#4 00 . ... ... ... : ... .. . ... ... ... : ... .. . ... ... ... : C-1 0A . ... ... ... : ... .. . ... ... ... : ... .. . ... ... ... : G-1 03 5 P84 ... ...
ROW 6D : ... .. . ... ... ... : ... .. . ... ... ... : ... .. . ... ... ... : ... .. . ... ... ... : ... .. . ... ... ... : ... .. . ... ... ... : ... .. . ... ... ... : ... .. . ... ... ...
ROW 6E : ... .. . ... ... ... : ... .. . ... ... ... : ... .. . ... ... ... : ... .. . ... ... ... : ... .. . ... ... ... : ... .. . ... ... ... : ... .. . ... ... ... : ... .. . P82 ... ...
ROW 6F : ... .. . ... ... ... : ... .. . ... ... ... : ... .. . ... ... ... : ... .. . ... ... ... : ... .. . ... ... ... : G#2 04 . ... ... ... : G#2 04 . ... ... ... : ... .. . P80 ... ...
ROW 70 : ... .. . ... ... ... : ... .. . ... ... ... : A#4 00 . ... ... ... : B-# 00 B ... ... ... : ... .. . ... ... ... : A#3 03 . ... ... ... : B-3 03 . ... ... ... : ... .. . P7E ... ...
ROW 71 : ... .. . ... ... ... : ... .. . ... ... ... : ... .. . ... ... ... : ... .. . ... ... ... : ... .. . ... ... ... : ... .. . ... ... ... : ... .. . ... ... ... : ... .. . P7C ... ...
ROW 72 : ... .. . ... ... ... : ... .. . ... ... ... : ... .. . ... ... ... : ... .. 9 ... ... ... : ... .. . ... ... ... : ... .. . ... ... ... : ... .. . ... ... ... : --- .. . ... ... ...
ROW 73 : ... .. . ... ... ... : G#4 01 . ... ... ... : ... .. . ... ... ... : ... .. 8 ... ... ... : ... .. . ... ... ... : ... .. . ... ... ... : ... .. . ... ... ... : ... .. . ... ... ...
ROW 74 : ... .. . ... ... ... : ... .. . ... ... ... : ... .. . ... ... ... : --- .. . ... ... ... : ... .. . ... ... ... : ... .. . ... ... ... : ... .. . ... ... ... : ... .. . ... ... ...
ROW 75 : ... .. . ... ... ... : ... .. . ... ... ... : ... .. . ... ... ... : ... .. . ... ... ... : ... .. . ... ... ... : A#3 04 . ... ... ... : B-3 04 . ... ... ... : ... .. . ... ... ...
ROW 76 : ... .. . ... ... ... : ... .. . ... ... ... : C#4 00 . ... ... ... : ... .. . ... ... ... : ... .. . ... ... ... : G#2 03 . ... ... ... : G#2 03 . ... ... ... : ... .. . ... ... ...
ROW 77 : ... .. . ... ... ... : G#4 02 . ... ... ... : ... .. . ... ... ... : ... .. . ... ... ... : ... .. . ... ... ... : ... .. . ... ... ... : ... .. . ... ... ... : ... .. . ... ... ...
ROW 78 : ... .. . ... ... ... : A#4 00 . ... ... ... : ... .. . ... ... ... : ... .. . ... ... ... : C-1 0A . ... ... ... : ... .. . ... ... ... : ... .. . ... ... ... : G-1 03 4 P83 ... ...
ROW 79 : ... .. . ... ... ... : ... .. . ... ... ... : ... .. . ... ... ... : ... .. . ... ... ... : ... .. . ... ... ... : ... .. . ... ... ... : ... .. . ... ... ... : ... .. . P81 ... ...
ROW 7A : ... .. . ... ... ... : ... .. . ... ... ... : ... .. . ... ... ... : ... .. . ... ... ... : ... .. . ... ... ... : ... .. . ... ... ... : ... .. . ... ... ... : ... .. . P80 ... ...
ROW 7B : ... .. . ... ... ... : ... .. . ... ... ... : ... .. . ... ... ... : ... .. . ... ... ... : ... .. . ... ... ... : G#2 04 . ... ... ... : G#2 04 . ... ... ... : ... .. . P7D ... ...
ROW 7C : ... .. . ... ... ... : ... .. . ... ... ... : G#4 00 . ... ... ... : A-# 00 F ... ... ... : ... .. . ... ... ... : G#3 03 . ... ... ... : A#3 03 . ... ... ... : ... .. . P7C ... ...
ROW 7D : ... .. . ... ... ... : ... .. . ... ... ... : ... .. . ... ... ... : ... .. E ... ... ... : ... .. . ... ... ... : ... .. . ... ... ... : ... .. . ... ... ... : ... .. . ... ... ...
ROW 7E : ... .. . ... ... ... : ... .. . ... ... ... : ... .. . ... ... ... : ... .. C ... ... ... : ... .. . ... ... ... : ... .. . ... ... ... : ... .. . ... ... ... : ... .. . P7E ... ...
ROW 7F : ... .. . ... ... ... : A#4 01 . ... ... ... : ... .. . ... ... ... : ... .. A ... ... ... : ... .. . ... ... ... : ... .. . ... ... ... : ... .. . ... ... ... : ... .. . P80 ... ...
ROW 80 : ... .. . ... ... ... : ... .. . ... ... ... : ... .. . ... ... ... : --- .. . ... ... ... : ... .. . ... ... ... : ... .. . ... ... ... : ... .. . ... ... ... : ... .. . P82 ... ...
ROW 81 : ... .. . ... ... ... : ... .. . ... ... ... : ... .. . ... ... ... : ... .. . ... ... ... : ... .. . ... ... ... : G#3 04 . ... ... ... : A#3 04 . ... ... ... : ... .. . P84 ... ...
ROW 82 : ... .. . ... ... ... : ... .. . ... ... ... : C#4 00 . ... ... ... : ... .. . ... ... ... : ... .. . ... ... ... : G#2 03 . ... ... ... : G#2 03 . ... ... ... : ... .. . ... ... ...
ROW 83 : ... .. . ... ... ... : A#4 02 . ... ... ... : ... .. . ... ... ... : ... .. . ... ... ... : ... .. . ... ... ... : ... .. . ... ... ... : ... .. . ... ... ... : ... .. . P83 ... ...
ROW 84 : ... .. . ... ... ... : F#4 00 . ... ... ... : ... .. . ... ... ... : ... .. . ... ... ... : ... .. . ... ... ... : ... .. . ... ... ... : ... .. . ... ... ... : ... .. . P80 ... ...
ROW 85 : ... .. . ... ... ... : ... .. . ... ... ... : ... .. . ... ... ... : ... .. . ... ... ... : ... .. . ... ... ... : ... .. . ... ... ... : ... .. . ... ... ... : ... .. . P7F ... ...
ROW 86 : ... .. . ... ... ... : ... .. . ... ... ... : ... .. . ... ... ... : ... .. . ... ... ... : ... .. . ... ... ... : ... .. . ... ... ... : ... .. . ... ... ... : ... .. . P7C ... ...
ROW 87 : ... .. . ... ... ... : ... .. . ... ... ... : ... .. . ... ... ... : ... .. . ... ... ... : ... .. . ... ... ... : G#2 04 . ... ... ... : G#2 04 . ... ... ... : ... .. . ... ... ...
ROW 88 : ... .. . ... ... ... : ... .. . ... ... ... : G#4 00 . ... ... ... : B-# 00 C ... ... ... : ... .. . ... ... ... : G#3 03 . ... ... ... : G#3 03 . ... ... ... : ... .. . P7D ... ...
ROW 89 : ... .. . ... ... ... : ... .. . ... ... ... : ... .. . ... ... ... : ... .. . ... ... ... : ... .. . ... ... ... : ... .. . ... ... ... : ... .. . ... ... ... : ... .. . P7F ... ...
ROW 8A : ... .. . ... ... ... : ... .. . ... ... ... : ... .. . ... ... ... : ... .. A ... ... ... : ... .. . ... ... ... : ... .. . ... ... ... : ... .. . ... ... ... : ... .. . P80 ... ...
ROW 8B : ... .. . ... ... ... : F#4 01 . ... ... ... : ... .. . ... ... ... : ... .. 9 ... ... ... : ... .. . ... ... ... : ... .. . ... ... ... : ... .. . ... ... ... : ... .. . P83 ... ...
ROW 8C : ... .. . ... ... ... : ... .. . ... ... ... : ... .. . ... ... ... : --- .. . ... ... ... : ... .. . ... ... ... : ... .. . ... ... ... : ... .. . ... ... ... : ... .. . P84 ... ...
ROW 8D : ... .. . ... ... ... : ... .. . ... ... ... : ... .. . ... ... ... : ... .. . ... ... ... : ... .. . ... ... ... : G#3 04 . ... ... ... : G#3 04 . ... ... ... : ... .. . ... ... ...
ROW 8E : ... .. . ... ... ... : ... .. . ... ... ... : D#4 00 . ... ... ... : ... .. . ... ... ... : ... .. . ... ... ... : G#2 03 . ... ... ... : G#2 03 . ... ... ... : ... .. . P82 ... ...
ROW 8F : ... .. . ... ... ... : F#4 02 . ... ... ... : ... .. . ... ... ... : ... .. . ... ... ... : ... .. . ... ... ... : ... .. . ... ... ... : ... .. . ... ... ... : ... .. . P80 ... ...
ROW 90 : ... .. . ... ... ... : G#4 00 . ... ... ... : ... .. . ... ... ... : ... .. . ... ... ... : D#1 0A . ... ... ... : ... .. . ... ... ... : ... .. . ... ... ... : G-2 03 . P7E ... ...
ROW 91 : ... .. . ... ... ... : ... .. . ... ... ... : ... .. . ... ... ... : ... .. . ... ... ... : ... .. . ... ... ... : ... .. . ... ... ... : ... .. . ... ... ... : ... .. . P7C ... ...
ROW 92 : ... .. . ... ... ... : ... .. . ... ... ... : ... .. . ... ... ... : ... .. . ... ... ... : ... .. . ... ... ... : ... .. . ... ... ... : ... .. . ... ... ... : ... .. . ... ... ...
ROW 93 : ... .. . ... ... ... : ... .. . ... ... ... : ... .. . ... ... ... : ... .. . ... ... ... : ... .. . ... ... ... : G#2 04 . ... ... ... : G#2 04 . ... ... ... : ... .. . P7D ... ...
ROW 94 : ... .. . ... ... ... : ... .. . ... ... ... : A#4 00 . ... ... ... : D-# 00 A ... ... ... : ... .. . ... ... ... : A#3 03 . ... ... ... : G#3 03 . ... ... ... : ... .. . P80 ... ...
ROW 95 : ... .. . ... ... ... : ... .. . ... ... ... : ... .. . ... ... ... : ... .. . ... ... ... : ... .. . ... ... ... : ... .. . ... ... ... : ... .. . ... ... ... : ... .. . P81 ... ...
ROW 96 : ... .. . ... ... ... : ... .. . ... ... ... : ... .. . ... ... ... : ... .. 8 ... ... ... : ... .. . ... ... ... : ... .. . ... ... ... : ... .. . ... ... ... : ... .. . P84 ... ...
ROW 97 : ... .. . ... ... ... : G#4 01 . ... ... ... : ... .. . ... ... ... : ... .. . ... ... ... : ... .. . ... ... ... : ... .. . ... ... ... : ... .. . ... ... ... : ... .. . ... ... ...
ROW 98 : ... .. . ... ... ... : ... .. . ... ... ... : ... .. . ... ... ... : --- .. . ... ... ... : ... .. . ... ... ... : ... .. . ... ... ... : ... .. . ... ... ... : ... .. . P83 ... ...
ROW 99 : ... .. . ... ... ... : ... .. . ... ... ... : ... .. . ... ... ... : ... .. . ... ... ... : ... .. . ... ... ... : A#3 04 . ... ... ... : G#3 04 . ... ... ... : ... .. . P81 ... ...
ROW 9A : ... .. . ... ... ... : ... .. . ... ... ... : D#4 00 . ... ... ... : ... .. . ... ... ... : ... .. . ... ... ... : G#2 03 . ... ... ... : G#2 03 . ... ... ... : ... .. . P80 ... ...
ROW 9B : ... .. . ... ... ... : G#4 02 . ... ... ... : ... .. . ... ... ... : ... .. . ... ... ... : ... .. . ... ... ... : ... .. . ... ... ... : ... .. . ... ... ... : ... .. . P7D ... ...
ROW 9C : ... .. . ... ... ... : A#4 00 . ... ... ... : ... .. . ... ... ... : ... .. . ... ... ... : ... .. . ... ... ... : ... .. . ... ... ... : ... .. . ... ... ... : ... .. . P7C ... ...
ROW 9D : ... .. . ... ... ... : ... .. . ... ... ... : ... .. . ... ... ... : ... .. . ... ... ... : ... .. . ... ... ... : ... .. . ... ... ... : ... .. . ... ... ... : ... .. . ... ... ...
ROW 9E : ... .. . ... ... ... : ... .. . ... ... ... : ... .. . ... ... ... : ... .. . ... ... ... : ... .. . ... ... ... : ... .. . ... ... ... : ... .. . ... ... ... : ... .. . P7E ... ...
ROW 9F : ... .. . ... ... ... : ... .. . ... ... ... : ... .. . ... ... ... : ... .. . ... ... ... : ... .. . ... ... ... : G#2 04 . ... ... ... : G#2 04 . ... ... ... : ... .. . P80 ... ...
ROW A0 : ... .. . ... ... ... : ... .. . ... ... ... : B-4 00 . ... ... ... : B-# 00 B ... ... ... : ... .. . ... ... ... : B-3 03 . ... ... ... : A#3 03 . ... ... ... : ... .. . P82 ... ...
ROW A1 : ... .. . ... ... ... : ... .. . ... ... ... : ... .. . ... ... ... : ... .. . ... ... ... : ... .. . ... ... ... : ... .. . ... ... ... : ... .. . ... ... ... : ... .. . P84 ... ...
ROW A2 : ... .. . ... ... ... : ... .. . ... ... ... : ... .. . ... ... ... : ... .. 9 ... ... ... : ... .. . ... ... ... : ... .. . ... ... ... : ... .. . ... ... ... : ... .. . ... ... ...
ROW A3 : ... .. . ... ... ... : A#4 01 . ... ... ... : ... .. . ... ... ... : ... .. 8 ... ... ... : ... .. . ... ... ... : ... .. . ... ... ... : ... .. . ... ... ... : ... .. . P83 ... ...
ROW A4 : ... .. . ... ... ... : ... .. . ... ... ... : ... .. . ... ... ... : --- .. . ... ... ... : ... .. . ... ... ... : ... .. . ... ... ... : ... .. . ... ... ... : ... .. . P80 ... ...
ROW A5 : ... .. . ... ... ... : ... .. . ... ... ... : ... .. . ... ... ... : ... .. . ... ... ... : ... .. . ... ... ... : B-3 04 . ... ... ... : A#3 04 . ... ... ... : ... .. . P7F ... ...
ROW A6 : ... .. . ... ... ... : ... .. . ... ... ... : D#4 00 . ... ... ... : ... .. . ... ... ... : ... .. . ... ... ... : G#2 03 . ... ... ... : G#2 03 . ... ... ... : ... .. . P7C ... ...
ROW A7 : ... .. . ... ... ... : A#4 02 . ... ... ... : ... .. . ... ... ... : ... .. . ... ... ... : ... .. . ... ... ... : ... .. . ... ... ... : ... .. . ... ... ... : ... .. . ... ... ...
ROW A8 : ... .. . ... ... ... : A#4 00 C ... ... ... : ... .. . ... ... ... : ... .. . ... ... ... : C-1 0A . ... ... ... : ... .. . ... ... ... : ... .. . ... ... ... : G-1 03 . P7D ... ...
ROW A9 : ... .. . ... ... ... : ... .. . ... ... ... : ... .. . ... ... ... : ... .. . ... ... ... : ... .. . ... ... ... : ... .. . ... ... ... : ... .. . ... ... ... : ... .. . P7F ... ...
ROW AA : ... .. . ... ... ... : ... .. . ... ... ... : ... .. . ... ... ... : ... .. . ... ... ... : ... .. . ... ... ... : ... .. . ... ... ... : ... .. . ... ... ... : ... .. . P80 ... ...
ROW AB : ... .. . ... ... ... : ... .. . ... ... ... : ... .. . ... ... ... : ... .. . ... ... ... : ... .. . ... ... ... : G#2 04 . ... ... ... : G#2 04 . ... ... ... : ... .. . P83 ... ...
ROW AC : ... .. . ... ... ... : ... .. . ... ... ... : C#5 00 . ... ... ... : A-# 00 F ... ... ... : ... .. . ... ... ... : C#4 03 . ... ... ... : B-3 03 . ... ... ... : ... .. . P84 ... ...
ROW AD : ... .. . ... ... ... : ... .. . ... ... ... : ... .. . ... ... ... : ... .. E ... ... ... : ... .. . ... ... ... : ... .. . ... ... ... : ... .. . ... ... ... : ... .. . ... ... ...
ROW AE : ... .. . ... ... ... : B-4 00 . ... ... ... : ... .. . ... ... ... : ... .. C ... ... ... : ... .. . ... ... ... : ... .. . ... ... ... : ... .. . ... ... ... : ... .. . P82 ... ...
ROW AF : ... .. . ... ... ... : ... .. . ... ... ... : ... .. . ... ... ... : ... .. A ... ... ... : ... .. . ... ... ... : ... .. . ... ... ... : ... .. . ... ... ... : ... .. . P80 ... ...
ROW B0 : ... .. . ... ... ... : ... .. . ... ... ... : ... .. . ... ... ... : --- .. . ... ... ... : ... .. . ... ... ... : ... .. . ... ... ... : ... .. . ... ... ... : ... .. . P7E ... ...
ROW B1 : ... .. . ... ... ... : ... .. . ... ... ... : ... .. . ... ... ... : ... .. . ... ... ... : ... .. . ... ... ... : C#4 04 . ... ... ... : B-3 04 . ... ... ... : ... .. . P7C ... ...
ROW B2 : ... .. . ... ... ... : ... .. . ... ... ... : D#4 00 . ... ... ... : ... .. . ... ... ... : ... .. . ... ... ... : G#2 03 . ... ... ... : G#2 03 . ... ... ... : ... .. . ... ... ...
ROW B3 : ... .. . ... ... ... : ... .. . ... ... ... : ... .. . ... ... ... : ... .. . ... ... ... : ... .. . ... ... ... : ... .. . ... ... ... : ... .. . ... ... ... : ... .. . P7D ... ...
ROW B4 : ... .. . ... ... ... : A#4 00 . ... ... ... : ... .. . ... ... ... : ... .. . ... ... ... : ... .. . ... ... ... : ... .. . ... ... ... : ... .. . ... ... ... : ... .. . P80 ... ...
ROW B5 : ... .. . ... ... ... : ... .. . ... ... ... : ... .. . ... ... ... : ... .. . ... ... ... : ... .. . ... ... ... : ... .. . ... ... ... : ... .. . ... ... ... : ... .. . P81 ... ...
ROW B6 : ... .. . ... ... ... : ... .. . ... ... ... : ... .. . ... ... ... : ... .. . ... ... ... : ... .. . ... ... ... : ... .. . ... ... ... : ... .. . ... ... ... : ... .. . P84 ... ...
ROW B7 : ... .. . ... ... ... : ... .. . ... ... ... : ... .. . ... ... ... : ... .. . ... ... ... : ... .. . ... ... ... : G#2 04 . ... ... ... : G#2 04 . ... ... ... : ... .. . ... ... ...
ROW B8 : ... .. . ... ... ... : ... .. . ... ... ... : D#5 00 . ... ... ... : B-# 00 C ... ... ... : ... .. . ... ... ... : D#4 03 . ... ... ... : C#4 03 . ... ... ... : ... .. . P83 ... ...
ROW B9 : ... .. . ... ... ... : ... .. . ... ... ... : ... .. . ... ... ... : ... .. . ... ... ... : ... .. . ... ... ... : ... .. . ... ... ... : ... .. . ... ... ... : ... .. . P81 ... ...
ROW BA : ... .. . ... ... ... : F#4 00 . ... ... ... : ... .. . ... ... ... : ... .. A ... ... ... : ... .. . ... ... ... : ... .. . ... ... ... : ... .. . ... ... ... : ... .. . P80 ... ...
ROW BB : ... .. . ... ... ... : ... .. . ... ... ... : ... .. . ... ... ... : ... .. 9 ... ... ... : ... .. . ... ... ... : ... .. . ... ... ... : ... .. . ... ... ... : ... .. . P7D ... ...
ROW BC : ... .. . ... ... ... : ... .. . ... ... ... : ... .. . ... ... ... : --- .. . ... ... ... : ... .. . ... ... ... : ... .. . ... ... ... : ... .. . ... ... ... : ... .. . P7C ... ...
ROW BD : ... .. . ... ... ... : ... .. . ... ... ... : ... .. . ... ... ... : ... .. . ... ... ... : ... .. . ... ... ... : D#4 04 . ... ... ... : C#4 04 . ... ... ... : ... .. . ... ... ...
ROW BE : ... .. . ... ... ... : ... .. . ... ... ... : D#4 00 . ... ... ... : ... .. . ... ... ... : ... .. . ... ... ... : G#2 03 . ... ... ... : G#2 03 . ... ... ... : ... .. . P7E ... ...
ROW BF : ... .. . ... ... ... : ... .. . ... ... ... : ... .. . ... ... ... : ... .. . ... ... ... : ... .. . ... ... ... : ... .. . ... ... ... : ... .. . ... ... ... : ... .. . P80 ... ...
ROW C0 : ... .. . ... ... ... : G#4 00 . ... ... ... : ... .. . ... ... ... : ... .. . ... ... ... : D#1 0A . ... ... ... : ... .. . ... ... ... : ... .. . ... ... ... : ... .. . P82 ... ...
ROW C1 : ... .. . ... ... ... : ... .. . ... ... ... : ... .. . ... ... ... : ... .. . ... ... ... : ... .. . ... ... ... : ... .. . ... ... ... : ... .. . ... ... ... : ... .. . P84 ... ...
ROW C2 : ... .. . ... ... ... : ... .. . ... ... ... : ... .. . ... ... ... : ... .. . ... ... ... : ... .. . ... ... ... : ... .. . ... ... ... : ... .. . ... ... ... : ... .. . ... ... ...
ROW C3 : ... .. . ... ... ... : ... .. . ... ... ... : ... .. . ... ... ... : ... .. . ... ... ... : ... .. . ... ... ... : G#2 04 . ... ... ... : G#2 04 . ... ... ... : ... .. . P83 ... ...
ROW C4 : ... .. . ... ... ... : ... .. . ... ... ... : C#5 00 . ... ... ... : D-# 00 A ... ... ... : ... .. . ... ... ... : C#4 03 . ... ... ... : D#4 03 . ... ... ... : ... .. . P80 ... ...
ROW C5 : ... .. . ... ... ... : ... .. . ... ... ... : ... .. . ... ... ... : ... .. . ... ... ... : ... .. . ... ... ... : ... .. . ... ... ... : ... .. . ... ... ... : ... .. . P7F ... ...
ROW C6 : ... .. . ... ... ... : A#4 00 . ... ... ... : ... .. . ... ... ... : ... .. 8 ... ... ... : ... .. . ... ... ... : ... .. . ... ... ... : ... .. . ... ... ... : --- .. . ... ... ...
ROW C7 : ... .. . ... ... ... : ... .. . ... ... ... : ... .. . ... ... ... : ... .. . ... ... ... : ... .. . ... ... ... : ... .. . ... ... ... : ... .. . ... ... ... : ... .. . ... ... ...
ROW C8 : ... .. . ... ... ... : ... .. . ... ... ... : ... .. . ... ... ... : --- .. . ... ... ... : ... .. . ... ... ... : ... .. . ... ... ... : ... .. . ... ... ... : ... .. . ... ... ...
ROW C9 : ... .. . ... ... ... : ... .. . ... ... ... : ... .. . ... ... ... : ... .. . ... ... ... : ... .. . ... ... ... : C#4 04 . ... ... ... : D#4 04 . ... ... ... : ... .. . ... ... ...
ROW CA : ... .. . ... ... ... : ... .. . ... ... ... : D#4 00 . ... ... ... : ... .. . ... ... ... : ... .. . ... ... ... : G#2 03 . ... ... ... : G#2 03 . ... ... ... : ... .. . ... ... ...
ROW CB : ... .. . ... ... ... : ... .. . ... ... ... : ... .. . ... ... ... : ... .. . ... ... ... : ... .. . ... ... ... : ... .. . ... ... ... : ... .. . ... ... ... : ... .. . ... ... ...
ROW CC : ... .. . ... ... ... : G#4 00 . ... ... ... : ... .. . ... ... ... : ... .. . ... ... ... : C-1 0A . ... ... ... : ... .. . ... ... ... : ... .. . ... ... ... : G-1 03 5 P84 ... ...
ROW CD : ... .. . ... ... ... : ... .. . ... ... ... : ... .. . ... ... ... : ... .. . ... ... ... : ... .. . ... ... ... : ... .. . ... ... ... : ... .. . ... ... ... : ... .. . ... ... ...
ROW CE : ... .. . ... ... ... : ... .. . ... ... ... : ... .. . ... ... ... : ... .. . ... ... ... : ... .. . ... ... ... : ... .. . ... ... ... : ... .. . ... ... ... : ... .. . P82 ... ...
ROW CF : ... .. . ... ... ... : ... .. . ... ... ... : ... .. . ... ... ... : ... .. . ... ... ... : ... .. . ... ... ... : G#2 04 . ... ... ... : G#2 04 . ... ... ... : ... .. . P80 ... ...
ROW D0 : ... .. . ... ... ... : ... .. . ... ... ... : B-4 00 . ... ... ... : B-# 00 B ... ... ... : ... .. . ... ... ... : B-3 03 . ... ... ... : C#4 03 . ... ... ... : ... .. . P7E ... ...
ROW D1 : ... .. . ... ... ... : ... .. . ... ... ... : ... .. . ... ... ... : ... .. . ... ... ... : ... .. . ... ... ... : ... .. . ... ... ... : ... .. . ... ... ... : ... .. . P7C ... ...
ROW D2 : ... .. . ... ... ... : F-4 00 . ... ... ... : ... .. . ... ... ... : ... .. 9 ... ... ... : ... .. . ... ... ... : ... .. . ... ... ... : ... .. . ... ... ... : --- .. . ... ... ...
ROW D3 : ... .. . ... ... ... : ... .. . ... ... ... : ... .. . ... ... ... : ... .. 8 ... ... ... : ... .. . ... ... ... : ... .. . ... ... ... : ... .. . ... ... ... : ... .. . ... ... ...
ROW D4 : ... .. . ... ... ... : ... .. . ... ... ... : ... .. . ... ... ... : --- .. . ... ... ... : ... .. . ... ... ... : ... .. . ... ... ... : ... .. . ... ... ... : ... .. . ... ... ...
ROW D5 : ... .. . ... ... ... : ... .. . ... ... ... : ... .. . ... ... ... : ... .. . ... ... ... : ... .. . ... ... ... : B-3 04 . ... ... ... : C#4 04 . ... ... ... : ... .. . ... ... ...
ROW D6 : ... .. . ... ... ... : ... .. . ... ... ... : D#4 00 . ... ... ... : ... .. . ... ... ... : ... .. . ... ... ... : G#2 03 . ... ... ... : G#2 03 . ... ... ... : ... .. . ... ... ...
ROW D7 : ... .. . ... ... ... : ... .. . ... ... ... : ... .. . ... ... ... : ... .. . ... ... ... : ... .. . ... ... ... : ... .. . ... ... ... : ... .. . ... ... ... : ... .. . ... ... ...
ROW D8 : ... .. . ... ... ... : F#4 00 . ... ... ... : ... .. . ... ... ... : ... .. . ... ... ... : C-1 0A . ... ... ... : ... .. . ... ... ... : ... .. . ... ... ... : G-1 03 4 P83 ... ...
ROW D9 : ... .. . ... ... ... : ... .. . ... ... ... : ... .. . ... ... ... : ... .. . ... ... ... : ... .. . ... ... ... : ... .. . ... ... ... : ... .. . ... ... ... : ... .. . P81 ... ...
ROW DA : ... .. . ... ... ... : ... .. . ... ... ... : ... .. . ... ... ... : ... .. . ... ... ... : ... .. . ... ... ... : ... .. . ... ... ... : ... .. . ... ... ... : ... .. . P80 ... ...
ROW DB : ... .. . ... ... ... : ... .. . ... ... ... : ... .. . ... ... ... : ... .. . ... ... ... : ... .. . ... ... ... : G#2 04 . ... ... ... : G#2 04 . ... ... ... : ... .. . P7D ... ...
ROW DC : ... .. . ... ... ... : ... .. . ... ... ... : A#4 00 . ... ... ... : A-# 00 F ... ... ... : ... .. . ... ... ... : A#3 03 . ... ... ... : B-3 03 . ... ... ... : ... .. . P7C ... ...
ROW DD : ... .. . ... ... ... : ... .. . ... ... ... : ... .. . ... ... ... : ... .. E ... ... ... : ... .. . ... ... ... : ... .. . ... ... ... : ... .. . ... ... ... : ... .. . ... ... ...
ROW DE : ... .. . ... ... ... : G#4 00 . ... ... ... : ... .. . ... ... ... : ... .. C ... ... ... : ... .. . ... ... ... : ... .. . ... ... ... : ... .. . ... ... ... : ... .. . P7E ... ...
ROW DF : ... .. . ... ... ... : ... .. . ... ... ... : ... .. . ... ... ... : ... .. A ... ... ... : ... .. . ... ... ... : ... .. . ... ... ... : ... .. . ... ... ... : ... .. . P80 ... ...
ROW E0 : ... .. . ... ... ... : ... .. . ... ... ... : ... .. . ... ... ... : --- .. . ... ... ... : ... .. . ... ... ... : ... .. . ... ... ... : ... .. . ... ... ... : ... .. . P82 ... ...
ROW E1 : ... .. . ... ... ... : ... .. . ... ... ... : ... .. . ... ... ... : ... .. . ... ... ... : ... .. . ... ... ... : A#3 04 . ... ... ... : B-3 04 . ... ... ... : ... .. . P84 ... ...
ROW E2 : ... .. . ... ... ... : ... .. . ... ... ... : D#4 00 . ... ... ... : ... .. . ... ... ... : ... .. . ... ... ... : G#2 03 . ... ... ... : G#2 03 . ... ... ... : ... .. . ... ... ...
ROW E3 : ... .. . ... ... ... : ... .. . ... ... ... : ... .. . ... ... ... : ... .. . ... ... ... : ... .. . ... ... ... : ... .. . ... ... ... : ... .. . ... ... ... : ... .. . P83 ... ...
ROW E4 : ... .. . ... ... ... : F#4 00 . ... ... ... : ... .. . ... ... ... : ... .. . ... ... ... : ... .. . ... ... ... : ... .. . ... ... ... : ... .. . ... ... ... : ... .. . P80 ... ...
ROW E5 : ... .. . ... ... ... : ... .. . ... ... ... : ... .. . ... ... ... : ... .. . ... ... ... : ... .. . ... ... ... : ... .. . ... ... ... : ... .. . ... ... ... : ... .. . P7F ... ...
ROW E6 : ... .. . ... ... ... : ... .. . ... ... ... : ... .. . ... ... ... : ... .. . ... ... ... : ... .. . ... ... ... : ... .. . ... ... ... : ... .. . ... ... ... : ... .. . P7C ... ...
ROW E7 : ... .. . ... ... ... : ... .. . ... ... ... : ... .. . ... ... ... : ... .. . ... ... ... : ... .. . ... ... ... : G#2 04 . ... ... ... : G#2 04 . ... ... ... : ... .. . ... ... ...
ROW E8 : ... .. . ... ... ... : ... .. . ... ... ... : F#4 00 . ... ... ... : B-# 00 C ... ... ... : ... .. . ... ... ... : G-3 03 . ... ... ... : A#3 03 . ... ... ... : ... .. . P7D ... ...
ROW E9 : ... .. . ... ... ... : ... .. . ... ... ... : ... .. . ... ... ... : ... .. . ... ... ... : ... .. . ... ... ... : ... .. . ... ... ... : ... .. . ... ... ... : ... .. . P7F ... ...
ROW EA : ... .. . ... ... ... : D#4 00 . ... ... ... : ... .. . ... ... ... : ... .. A ... ... ... : ... .. . ... ... ... : ... .. . ... ... ... : ... .. . ... ... ... : ... .. . P80 ... ...
ROW EB : ... .. . ... ... ... : ... .. . ... ... ... : ... .. . ... ... ... : ... .. 9 ... ... ... : ... .. . ... ... ... : ... .. . ... ... ... : ... .. . ... ... ... : ... .. . P83 ... ...
ROW EC : ... .. . ... ... ... : ... .. . ... ... ... : ... .. . ... ... ... : --- .. . ... ... ... : ... .. . ... ... ... : ... .. . ... ... ... : ... .. . ... ... ... : ... .. . P84 ... ...
ROW ED : ... .. . ... ... ... : ... .. . ... ... ... : ... .. . ... ... ... : ... .. . ... ... ... : ... .. . ... ... ... : G-3 04 . ... ... ... : A#3 04 . ... ... ... : ... .. . ... ... ...
ROW EE : ... .. . ... ... ... : ... .. . ... ... ... : C#4 00 . ... ... ... : ... .. . ... ... ... : ... .. . ... ... ... : G#2 03 . ... ... ... : G#2 03 . ... ... ... : ... .. . P82 ... ...
ROW EF : ... .. . ... ... ... : ... .. . ... ... ... : ... .. . ... ... ... : ... .. . ... ... ... : ... .. . ... ... ... : ... .. . ... ... ... : ... .. . ... ... ... : ... .. . P80 ... ...
ROW F0 : ... .. . ... ... ... : D-4 00 . ... ... ... : ... .. . ... ... ... : ... .. . ... ... ... : D#1 0A . ... ... ... : ... .. . ... ... ... : ... .. . ... ... ... : G-2 03 . P7E ... ...
ROW F1 : ... .. . ... ... ... : ... .. . ... ... ... : ... .. . ... ... ... : ... .. . ... ... ... : ... .. . ... ... ... : ... .. . ... ... ... : ... .. . ... ... ... : ... .. . P7C ... ...
ROW F2 : ... .. . ... ... ... : ... .. . ... ... ... : ... .. . ... ... ... : ... .. . ... ... ... : ... .. . ... ... ... : ... .. . ... ... ... : ... .. . ... ... ... : ... .. . ... ... ...
ROW F3 : ... .. . ... ... ... : ... .. . ... ... ... : ... .. . ... ... ... : ... .. . ... ... ... : ... .. . ... ... ... : G#2 04 . ... ... ... : G#2 04 . ... ... ... : ... .. . P7D ... ...
ROW F4 : ... .. . ... ... ... : ... .. . ... ... ... : G#4 00 . ... ... ... : D-# 00 A ... ... ... : ... .. . ... ... ... : G#3 03 . ... ... ... : G-3 03 . ... ... ... : ... .. . P80 ... ...
ROW F5 : ... .. . ... ... ... : ... .. . ... ... ... : ... .. . ... ... ... : ... .. . ... ... ... : ... .. . ... ... ... : ... .. . ... ... ... : ... .. . ... ... ... : ... .. . P81 ... ...
ROW F6 : ... .. . ... ... ... : F-4 00 . ... ... ... : ... .. . ... ... ... : ... .. 8 ... ... ... : ... .. . ... ... ... : ... .. . ... ... ... : ... .. . ... ... ... : ... .. . P84 ... ...
ROW F7 : ... .. . ... ... ... : ... .. . ... ... ... : ... .. . ... ... ... : ... .. . ... ... ... : ... .. . ... ... ... : ... .. . ... ... ... : ... .. . ... ... ... : ... .. . ... ... ...
ROW F8 : ... .. . ... ... ... : ... .. . ... ... ... : ... .. . ... ... ... : --- .. . ... ... ... : ... .. . ... ... ... : ... .. . ... ... ... : ... .. . ... ... ... : ... .. . P83 ... ...
ROW F9 : ... .. . ... ... ... : ... .. . ... ... ... : ... .. . ... ... ... : ... .. . ... ... ... : ... .. . ... ... ... : G#3 04 . ... ... ... : G-3 04 . ... ... ... : ... .. . P81 ... ...
ROW FA : ... .. . ... ... ... : ... .. . ... ... ... : C#4 00 . ... ... ... : ... .. . ... ... ... : ... .. . ... ... ... : G#2 03 . ... ... ... : G#2 03 . ... ... ... : ... .. . P80 ... ...
ROW FB : ... .. . ... ... ... : ... .. . ... ... ... : ... .. . ... ... ... : ... .. . ... ... ... : ... .. . ... ... ... : ... .. . ... ... ... : ... .. . ... ... ... : ... .. . P7D ... ...
ROW FC : ... .. . ... ... ... : D-4 00 . ... ... ... : ... .. . ... ... ... : ... .. . ... ... ... : ... .. . ... ... ... : ... .. . ... ... ... : ... .. . ... ... ... : ... .. . P7C ... ...
ROW FD : ... .. . ... ... ... : ... .. . ... ... ... : ... .. . ... ... ... : ... .. . ... ... ... : ... .. . ... ... ... : ... .. . ... ... ... : ... .. . ... ... ... : ... .. . ... ... ...
ROW FE : ... .. . ... ... ... : ... .. . ... ... ... : ... .. . ... ... ... : ... .. . ... ... ... : ... .. . ... ... ... : ... .. . ... ... ... : ... .. . ... ... ... : ... .. . P7E ... ...
ROW FF : ... .. . ... ... ... : ... .. . ... ... ... : ... .. . ... ... ... : ... .. . ... ... ... : ... .. . ... ... ... : G#2 04 . ... ... ... : G#2 04 . ... ... ... : ... .. . P80 ... ...

PATTERN 0C
ROW 00 : ... .. . ... ... ... : ... .. . ... ... ... : A#4 00 . ... ... ... : B-# 00 B ... ... ... : ... .. . ... ... ... : A#3 03 . ... ... ... : G#3 03 . ... ... ... : ... .. . P82 ... ...
ROW 01 : ... .. . ... ... ... : ... .. . ... ... ... : ... .. . ... ... ... : ... .. . ... ... ... : ... .. . ... ... ... : ... .. . ... ... ... : ... .. . ... ... ... : ... .. . P84 ... ...
ROW 02 : ... .. . ... ... ... : A#3 00 . ... ... ... : ... .. . ... ... ... : ... .. 9 ... ... ... : ... .. . ... ... ... : ... .. . ... ... ... : ... .. . ... ... ... : ... .. . ... ... ...
ROW 03 : ... .. . ... ... ... : ... .. . ... ... ... : ... .. . ... ... ... : ... .. 8 ... ... ... : ... .. . ... ... ... : ... .. . ... ... ... : ... .. . ... ... ... : ... .. . P83 ... ...
ROW 04 : ... .. . ... ... ... : ... .. . ... ... ... : ... .. . ... ... ... : --- .. . ... ... ... : ... .. . ... ... ... : ... .. . ... ... ... : ... .. . ... ... ... : ... .. . P80 ... ...
ROW 05 : ... .. . ... ... ... : ... .. . ... ... ... : ... .. . ... ... ... : ... .. . ... ... ... : ... .. . ... ... ... : A#3 04 . ... ... ... : G#3 04 . ... ... ... : ... .. . P7F ... ...
ROW 06 : ... .. . ... ... ... : ... .. . ... ... ... : C#4 00 . ... ... ... : ... .. . ... ... ... : ... .. . ... ... ... : G#2 03 . ... ... ... : G#2 03 . ... ... ... : ... .. . P7C ... ...
ROW 07 : ... .. . ... ... ... : ... .. . ... ... ... : ... .. . ... ... ... : ... .. . ... ... ... : ... .. . ... ... ... : ... .. . ... ... ... : ... .. . ... ... ... : ... .. . ... ... ...
ROW 08 : ... .. . ... ... ... : G#3 00 . ... ... ... : ... .. . ... ... ... : ... .. . ... ... ... : C-1 0A . ... ... ... : ... .. . ... ... ... : ... .. . ... ... ... : G#2 03 . P7D ... ...
ROW 09 : ... .. . ... ... ... : ... .. . ... ... ... : ... .. . ... ... ... : ... .. . ... ... ... : ... .. . ... ... ... : ... .. . ... ... ... : ... .. . ... ... ... : ... .. . P7F ... ...
ROW 0A : ... .. . ... ... ... : ... .. . ... ... ... : ... .. . ... ... ... : ... .. . ... ... ... : ... .. . ... ... ... : ... .. . ... ... ... : ... .. . ... ... ... : ... .. . P80 ... ...
ROW 0B : ... .. . ... ... ... : ... .. . ... ... ... : ... .. . ... ... ... : ... .. . ... ... ... : ... .. . ... ... ... : G#2 04 . ... ... ... : G#2 04 . ... ... ... : ... .. . P83 ... ...
ROW 0C : ... .. . ... ... ... : ... .. . ... ... ... : B-4 00 . ... ... ... : A-# 00 F ... ... ... : ... .. . ... ... ... : B-3 03 . ... ... ... : A#3 03 . ... ... ... : ... .. . P84 ... ...
ROW 0D : ... .. . ... ... ... : ... .. . ... ... ... : ... .. . ... ... ... : ... .. E ... ... ... : ... .. . ... ... ... : ... .. . ... ... ... : ... .. . ... ... ... : ... .. . ... ... ...
ROW 0E : ... .. . ... ... ... : ... .. . ... ... ... : ... .. . ... ... ... : ... .. C ... ... ... : ... .. . ... ... ... : ... .. . ... ... ... : ... .. . ... ... ... : ... .. . P82 ... ...
ROW 0F : ... .. . ... ... ... : ... .. . ... ... ... : ... .. . ... ... ... : ... .. A ... ... ... : ... .. . ... ... ... : ... .. . ... ... ... : ... .. . ... ... ... : ... .. . P80 ... ...
ROW 10 : ... .. . ... ... ... : ... .. . ... ... ... : ... .. . ... ... ... : --- .. . ... ... ... : ... .. . ... ... ... : ... .. . ... ... ... : ... .. . ... ... ... : ... .. . P7E ... ...
ROW 11 : ... .. . ... ... ... : ... .. . ... ... ... : ... .. . ... ... ... : ... .. . ... ... ... : ... .. . ... ... ... : B-3 04 . ... ... ... : A#3 04 . ... ... ... : ... .. . P7C ... ...
ROW 12 : ... .. . ... ... ... : ... .. . ... ... ... : C#4 00 . ... ... ... : ... .. . ... ... ... : ... .. . ... ... ... : G#2 03 . ... ... ... : G#2 03 . ... ... ... : ... .. . ... ... ...
ROW 13 : ... .. . ... ... ... : ... .. . ... ... ... : ... .. . ... ... ... : ... .. . ... ... ... : ... .. . ... ... ... : ... .. . ... ... ... : ... .. . ... ... ... : ... .. . P7D ... ...
ROW 14 : ... .. . ... ... ... : --- .. . ... ... ... : ... .. . ... ... ... : ... .. . ... ... ... : ... .. . ... ... ... : ... .. . ... ... ... : ... .. . ... ... ... : --- .. . ... ... ...
ROW 15 : ... .. . ... ... ... : ... .. . ... ... ... : ... .. . ... ... ... : ... .. . ... ... ... : ... .. . ... ... ... : ... .. . ... ... ... : ... .. . ... ... ... : ... .. . ... ... ...
ROW 16 : ... .. . ... ... ... : ... .. . ... ... ... : ... .. . ... ... ... : ... .. . ... ... ... : ... .. . ... ... ... : ... .. . ... ... ... : ... .. . ... ... ... : ... .. . ... ... ...
ROW 17 : ... .. . ... ... ... : ... .. . ... ... ... : ... .. . ... ... ... : ... .. . ... ... ... : ... .. . ... ... ... : G#2 04 . ... ... ... : G#2 04 . ... ... ... : ... .. . ... ... ...
ROW 18 : ... .. . ... ... ... : ... .. . ... ... ... : C#5 00 . ... ... ... : B-# 00 C ... ... ... : ... .. . ... ... ... : C#4 03 . ... ... ... : B-3 03 . ... ... ... : ... .. . ... ... ...
ROW 19 : ... .. . ... ... ... : ... .. . ... ... ... : ... .. . ... ... ... : ... .. . ... ... ... : ... .. . ... ... ... : ... .. . ... ... ... : ... .. . ... ... ... : ... .. . ... ... ...
ROW 1A : ... .. . ... ... ... : ... .. . ... ... ... : ... .. . ... ... ... : ... .. A ... ... ... : ... .. . ... ... ... : ... .. . ... ... ... : ... .. . ... ... ... : ... .. . ... ... ...
ROW 1B : ... .. . ... ... ... : ... .. . ... ... ... : ... .. . ... ... ... : ... .. 9 ... ... ... : ... .. . ... ... ... : ... .. . ... ... ... : ... .. . ... ... ... : ... .. . ... ... ...
ROW 1C : ... .. . ... ... ... : ... .. . ... ... ... : ... .. . ... ... ... : --- .. . ... ... ... : ... .. . ... ... ... : ... .. . ... ... ... : ... .. . ... ... ... : ... .. . ... ... ...
ROW 1D : ... .. . ... ... ... : ... .. . ... ... ... : ... .. . ... ... ... : ... .. . ... ... ... : ... .. . ... ... ... : C#4 04 . ... ... ... : B-3 04 . ... ... ... : ... .. . ... ... ...
ROW 1E : ... .. . ... ... ... : ... .. . ... ... ... : C#4 00 . ... ... ... : ... .. . ... ... ... : ... .. . ... ... ... : G#2 03 . ... ... ... : G#2 03 . ... ... ... : ... .. . ... ... ...
ROW 1F : ... .. . ... ... ... : ... .. . ... ... ... : ... .. . ... ... ... : ... .. . ... ... ... : ... .. . ... ... ... : ... .. . ... ... ... : ... .. . ... ... ... : ... .. . ... ... ...
ROW 20 : ... .. . ... ... ... : ... .. . ... ... ... : ... .. . ... ... ... : ... .. . ... ... ... : ... .. . ... ... ... : ... .. . ... ... ... : ... .. . ... ... ... : ... .. . ... ... ...
ROW 21 : ... .. . ... ... ... : ... .. . ... ... ... : ... .. . ... ... ... : ... .. . ... ... ... : ... .. . ... ... ... : ... .. . ... ... ... : ... .. . ... ... ... : ... .. . ... ... ...
ROW 22 : ... .. . ... ... ... : ... .. . ... ... ... : ... .. . ... ... ... : ... .. . ... ... ... : ... .. . ... ... ... : ... .. . ... ... ... : ... .. . ... ... ... : ... .. . ... ... ...
ROW 23 : ... .. . ... ... ... : ... .. . ... ... ... : ... .. . ... ... ... : ... .. . ... ... ... : ... .. . ... ... ... : G#2 04 . ... ... ... : G#2 04 . ... ... ... : ... .. . ... ... ...
ROW 24 : ... .. . ... ... ... : ... .. . ... ... ... : B-4 00 . ... ... ... : D-# 00 A ... ... ... : ... .. . ... ... ... : B-3 03 . ... ... ... : C#4 03 . ... ... ... : ... .. . ... ... ...
ROW 25 : ... .. . ... ... ... : ... .. . ... ... ... : ... .. . ... ... ... : ... .. . ... ... ... : ... .. . ... ... ... : ... .. . ... ... ... : ... .. . ... ... ... : ... .. . ... ... ...
ROW 26 : ... .. . ... ... ... : ... .. . ... ... ... : ... .. . ... ... ... : ... .. 8 ... ... ... : ... .. . ... ... ... : ... .. . ... ... ... : ... .. . ... ... ... : ... .. . ... ... ...
ROW 27 : ... .. . ... ... ... : ... .. . ... ... ... : ... .. . ... ... ... : ... .. . ... ... ... : ... .. . ... ... ... : ... .. . ... ... ... : ... .. . ... ... ... : ... .. . ... ... ...
ROW 28 : ... .. . ... ... ... : ... .. . ... ... ... : ... .. . ... ... ... : --- .. . ... ... ... : ... .. . ... ... ... : ... .. . ... ... ... : ... .. . ... ... ... : ... .. . ... ... ...
ROW 29 : ... .. . ... ... ... : ... .. . ... ... ... : ... .. . ... ... ... : ... .. . ... ... ... : ... .. . ... ... ... : B-3 04 . ... ... ... : C#4 04 . ... ... ... : ... .. . ... ... ...
ROW 2A : ... .. . ... ... ... : ... .. . ... ... ... : C#4 00 . ... ... ... : ... .. . ... ... ... : ... .. . ... ... ... : G#2 03 . ... ... ... : G#2 03 . ... ... ... : ... .. . ... ... ...
ROW 2B : ... .. . ... ... ... : ... .. . ... ... ... : ... .. . ... ... ... : ... .. . ... ... ... : ... .. . ... ... ... : ... .. . ... ... ... : ... .. . ... ... ... : ... .. . ... ... ...
ROW 2C : ... .. . ... ... ... : ... .. . ... ... ... : ... .. . ... ... ... : ... .. . ... ... ... : ... .. . ... ... ... : ... .. . ... ... ... : ... .. . ... ... ... : ... .. . ... ... ...
ROW 2D : ... .. . ... ... ... : ... .. . ... ... ... : ... .. . ... ... ... : ... .. . ... ... ... : ... .. . ... ... ... : ... .. . ... ... ... : ... .. . ... ... ... : ... .. . ... ... ...
ROW 2E : ... .. . ... ... ... : ... .. . ... ... ... : ... .. . ... ... ... : ... .. . ... ... ... : ... .. . ... ... ... : ... .. . ... ... ... : ... .. . ... ... ... : ... .. . ... ... ...
ROW 2F : ... .. . ... ... ... : ... .. . ... ... ... : ... .. . ... ... ... : ... .. . ... ... ... : ... .. . ... ... ... : G#2 04 . ... ... ... : G#2 04 . ... ... ... : ... .. . ... ... ...
ROW 30 : ... .. . ... ... ... : ... .. . ... ... ... : A#4 00 . ... ... ... : B-# 00 B ... ... ... : ... .. . ... ... ... : A#3 03 . ... ... ... : B-3 03 . ... ... ... : ... .. . ... ... ...
ROW 31 : ... .. . ... ... ... : ... .. . ... ... ... : ... .. . ... ... ... : ... .. . ... ... ... : ... .. . ... ... ... : ... .. . ... ... ... : ... .. . ... ... ... : ... .. . ... ... ...
ROW 32 : ... .. . ... ... ... : ... .. . ... ... ... : ... .. . ... ... ... : ... .. 9 ... ... ... : ... .. . ... ... ... : ... .. . ... ... ... : ... .. . ... ... ... : ... .. . ... ... ...
ROW 33 : ... .. . ... ... ... : ... .. . ... ... ... : ... .. . ... ... ... : ... .. 8 ... ... ... : ... .. . ... ... ... : ... .. . ... ... ... : ... .. . ... ... ... : ... .. . ... ... ...
ROW 34 : ... .. . ... ... ... : ... .. . ... ... ... : ... .. . ... ... ... : --- .. . ... ... ... : ... .. . ... ... ... : ... .. . ... ... ... : ... .. . ... ... ... : ... .. . ... ... ...
ROW 35 : ... .. . ... ... ... : ... .. . ... ... ... : ... .. . ... ... ... : ... .. . ... ... ... : ... .. . ... ... ... : A#3 04 . ... ... ... : B-3 04 . ... ... ... : ... .. . ... ... ...
ROW 36 : ... .. . ... ... ... : ... .. . ... ... ... : C#4 00 . ... ... ... : ... .. . ... ... ... : ... .. . ... ... ... : G#2 03 . ... ... ... : G#2 03 . ... ... ... : ... .. . ... ... ...
ROW 37 : ... .. . ... ... ... : ... .. . ... ... ... : ... .. . ... ... ... : ... .. . ... ... ... : ... .. . ... ... ... : ... .. . ... ... ... : ... .. . ... ... ... : ... .. . ... ... ...
ROW 38 : ... .. . ... ... ... : ... .. . ... ... ... : ... .. . ... ... ... : ... .. . ... ... ... : ... .. . ... ... ... : ... .. . ... ... ... : ... .. . ... ... ... : ... .. . ... ... ...
ROW 39 : ... .. . ... ... ... : ... .. . ... ... ... : ... .. . ... ... ... : ... .. . ... ... ... : ... .. . ... ... ... : ... .. . ... ... ... : ... .. . ... ... ... : ... .. . ... ... ...
ROW 3A : ... .. . ... ... ... : ... .. . ... ... ... : ... .. . ... ... ... : ... .. . ... ... ... : ... .. . ... ... ... : ... .. . ... ... ... : ... .. . ... ... ... : ... .. . ... ... ...
ROW 3B : ... .. . ... ... ... : ... .. . ... ... ... : ... .. . ... ... ... : ... .. . ... ... ... : ... .. . ... ... ... : G#2 04 . ... ... ... : G#2 04 . ... ... ... : ... .. . ... ... ...
ROW 3C : ... .. . ... ... ... : ... .. . ... ... ... : G#4 00 . ... ... ... : A-# 00 F ... ... ... : ... .. . ... ... ... : G#3 03 . ... ... ... : A#3 03 . ... ... ... : ... .. . ... ... ...
ROW 3D : ... .. . ... ... ... : ... .. . ... ... ... : ... .. . ... ... ... : ... .. E ... ... ... : ... .. . ... ... ... : ... .. . ... ... ... : ... .. . ... ... ... : ... .. . ... ... ...
ROW 3E : ... .. . ... ... ... : ... .. . ... ... ... : ... .. . ... ... ... : ... .. C ... ... ... : ... .. . ... ... ... : ... .. . ... ... ... : ... .. . ... ... ... : ... .. . ... ... ...
ROW 3F : ... .. . ... ... ... : ... .. . ... ... ... : ... .. . ... ... ... : ... .. A ... ... ... : ... .. . ... ... ... : ... .. . ... ... ... : ... .. . ... ... ... : ... .. . ... ... ...
ROW 40 : ... .. . ... ... ... : ... .. . ... ... ... : ... .. . ... ... ... : --- .. . ... ... ... : ... .. . ... ... ... : ... .. . ... ... ... : ... .. . ... ... ... : ... .. . ... ... ...
ROW 41 : ... .. . ... ... ... : ... .. . ... ... ... : ... .. . ... ... ... : ... .. . ... ... ... : ... .. . ... ... ... : G#3 04 . ... ... ... : A#3 04 . ... ... ... : ... .. . ... ... ...
ROW 42 : ... .. . ... ... ... : ... .. . ... ... ... : C#4 00 . ... ... ... : ... .. . ... ... ... : ... .. . ... ... ... : G#2 03 . ... ... ... : G#2 03 . ... ... ... : ... .. . ... ... ...
ROW 43 : ... .. . ... ... ... : ... .. . ... ... ... : ... .. . ... ... ... : ... .. . ... ... ... : ... .. . ... ... ... : ... .. . ... ... ... : ... .. . ... ... ... : ... .. . ... ... ...
ROW 44 : ... .. . ... ... ... : ... .. . ... ... ... : ... .. . ... ... ... : ... .. . ... ... ... : ... .. . ... ... ... : ... .. . ... ... ... : ... .. . ... ... ... : ... .. . ... ... ...
ROW 45 : ... .. . ... ... ... : ... .. . ... ... ... : ... .. . ... ... ... : ... .. . ... ... ... : ... .. . ... ... ... : ... .. . ... ... ... : ... .. . ... ... ... : ... .. . ... ... ...
ROW 46 : ... .. . ... ... ... : ... .. . ... ... ... : ... .. . ... ... ... : ... .. . ... ... ... : ... .. . ... ... ... : ... .. . ... ... ... : ... .. . ... ... ... : ... .. . ... ... ...
ROW 47 : ... .. . ... ... ... : ... .. . ... ... ... : ... .. . ... ... ... : ... .. . ... ... ... : ... .. . ... ... ... : G#2 04 . ... ... ... : G#2 04 . ... ... ... : ... .. . ... ... ...
ROW 48 : ... .. . ... ... ... : ... .. . ... ... ... : --- .. . ... ... ... : B-# 00 C ... ... ... : ... .. . ... ... ... : B-3 03 . ... ... ... : G#3 03 . ... ... ... : ... .. . ... ... ...
ROW 49 : ... .. . ... ... ... : ... .. . ... ... ... : ... .. . ... ... ... : ... .. . ... ... ... : ... .. . ... ... ... : ... .. . ... ... ... : ... .. . ... ... ... : ... .. . ... ... ...
ROW 4A : ... .. . ... ... ... : ... .. . ... ... ... : ... .. . ... ... ... : ... .. A ... ... ... : ... .. . ... ... ... : ... .. . ... ... ... : ... .. . ... ... ... : ... .. . ... ... ...
ROW 4B : ... .. . ... ... ... : ... .. . ... ... ... : ... .. . ... ... ... : ... .. 9 ... ... ... : ... .. . ... ... ... : ... .. . ... ... ... : ... .. . ... ... ... : ... .. . ... ... ...
ROW 4C : ... .. . ... ... ... : ... .. . ... ... ... : ... .. . ... ... ... : --- .. . ... ... ... : ... .. . ... ... ... : ... .. . ... ... ... : ... .. . ... ... ... : ... .. . ... ... ...
ROW 4D : ... .. . ... ... ... : ... .. . ... ... ... : ... .. . ... ... ... : ... .. . ... ... ... : ... .. . ... ... ... : B-3 04 . ... ... ... : G#3 04 . ... ... ... : ... .. . ... ... ...
ROW 4E : ... .. . ... ... ... : ... .. . ... ... ... : ... .. . ... ... ... : ... .. . ... ... ... : ... .. . ... ... ... : ... .. . ... ... ... : G#2 03 . ... ... ... : ... .. . ... ... ...
ROW 4F : ... .. . ... ... ... : ... .. . ... ... ... : ... .. . ... ... ... : ... .. . ... ... ... : ... .. . ... ... ... : B-3 05 . ... ... ... : ... .. . ... ... ... : ... .. . ... ... ...
ROW 50 : ... .. . ... ... ... : ... .. . ... ... ... : ... .. . ... ... ... : ... .. . ... ... ... : ... .. . ... ... ... : B-3 06 . ... ... ... : ... .. . ... ... ... : ... .. . ... ... ...
ROW 51 : ... .. . ... ... ... : ... .. . ... ... ... : ... .. . ... ... ... : ... .. . ... ... ... : ... .. . ... ... ... : B-3 07 . ... ... ... : ... .. . ... ... ... : ... .. . ... ... ...
ROW 52 : ... .. . ... ... ... : ... .. . ... ... ... : ... .. . ... ... ... : ... .. . ... ... ... : ... .. . ... ... ... : B-3 08 . ... ... ... : ... .. . ... ... ... : ... .. . ... ... ...
ROW 53 : ... .. . ... ... ... : ... .. . ... ... ... : ... .. . ... ... ... : ... .. . ... ... ... : ... .. . ... ... ... : B-3 09 . ... ... ... : G#2 04 . ... ... ... : ... .. . ... ... ...
ROW 54 : ... .. . ... ... ... : ... .. . ... ... ... : ... .. . ... ... ... : D-# 00 A ... ... ... : ... .. . ... ... ... : A#3 03 . ... ... ... : B-3 03 . ... ... ... : ... .. . ... ... ...
ROW 55 : ... .. . ... ... ... : ... .. . ... ... ... : ... .. . ... ... ... : ... .. . ... ... ... : ... .. . ... ... ... : ... .. . ... ... ... : ... .. . ... ... ... : ... .. . ... ... ...
ROW 56 : ... .. . ... ... ... : ... .. . ... ... ... : ... .. . ... ... ... : ... .. 8 ... ... ... : ... .. . ... ... ... : ... .. . ... ... ... : ... .. . ... ... ... : ... .. . ... ... ...
ROW 57 : ... .. . ... ... ... : ... .. . ... ... ... : ... .. . ... ... ... : ... .. . ... ... ... : ... .. . ... ... ... : ... .. . ... ... ... : ... .. . ... ... ... : ... .. . ... ... ...
ROW 58 : ... .. . ... ... ... : ... .. . ... ... ... : ... .. . ... ... ... : --- .. . ... ... ... : ... .. . ... ... ... : ... .. . ... ... ... : ... .. . ... ... ... : ... .. . ... ... ...
ROW 59 : ... .. . ... ... ... : ... .. . ... ... ... : ... .. . ... ... ... : ... .. . ... ... ... : ... .. . ... ... ... : A#3 04 . ... ... ... : B-3 04 . ... ... ... : ... .. . ... ... ...
ROW 5A : ... .. . ... ... ... : ... .. . ... ... ... : ... .. . ... ... ... : ... .. . ... ... ... : ... .. . ... ... ... : ... .. . ... ... ... : ... .. . ... ... ... : ... .. . ... ... ...
ROW 5B : ... .. . ... ... ... : ... .. . ... ... ... : ... .. . ... ... ... : ... .. . ... ... ... : ... .. . ... ... ... : A#3 05 . ... ... ... : B-3 05 . ... ... ... : ... .. . ... ... ...
ROW 5C : ... .. . ... ... ... : ... .. . ... ... ... : ... .. . ... ... ... : ... .. . ... ... ... : ... .. . ... ... ... : A#3 06 . ... ... ... : B-3 06 . ... ... ... : ... .. . ... ... ...
ROW 5D : ... .. . ... ... ... : ... .. . ... ... ... : ... .. . ... ... ... : ... .. . ... ... ... : ... .. . ... ... ... : A#3 07 . ... ... ... : B-3 07 . ... ... ... : ... .. . ... ... ...
ROW 5E : ... .. . ... ... ... : ... .. . ... ... ... : ... .. . ... ... ... : ... .. . ... ... ... : ... .. . ... ... ... : A#3 08 . ... ... ... : B-3 08 . ... ... ... : ... .. . ... ... ...
ROW 5F : ... .. . ... ... ... : ... .. . ... ... ... : ... .. . ... ... ... : ... .. . ... ... ... : ... .. . ... ... ... : A#3 09 . ... ... ... : B-3 09 . ... ... ... : ... .. . ... ... ...
ROW 60 : ... .. . ... ... ... : ... .. . ... ... ... : ... .. . ... ... ... : B-# 00 B ... ... ... : ... .. . ... ... ... : B-3 03 . ... ... ... : A#3 03 . ... ... ... : ... .. . ... ... ...
ROW 61 : ... .. . ... ... ... : ... .. . ... ... ... : ... .. . ... ... ... : ... .. . ... ... ... : ... .. . ... ... ... : ... .. . ... ... ... : ... .. . ... ... ... : ... .. . ... ... ...
ROW 62 : ... .. . ... ... ... : ... .. . ... ... ... : ... .. . ... ... ... : ... .. 9 ... ... ... : ... .. . ... ... ... : ... .. . ... ... ... : ... .. . ... ... ... : ... .. . ... ... ...
ROW 63 : ... .. . ... ... ... : ... .. . ... ... ... : ... .. . ... ... ... : ... .. 8 ... ... ... : ... .. . ... ... ... : ... .. . ... ... ... : ... .. . ... ... ... : ... .. . ... ... ...
ROW 64 : ... .. . ... ... ... : ... .. . ... ... ... : ... .. . ... ... ... : --- .. . ... ... ... : ... .. . ... ... ... : ... .. . ... ... ... : ... .. . ... ... ... : ... .. . ... ... ...
ROW 65 : ... .. . ... ... ... : ... .. . ... ... ... : ... .. . ... ... ... : ... .. . ... ... ... : ... .. . ... ... ... : B-3 04 . ... ... ... : A#3 04 . ... ... ... : ... .. . ... ... ...
ROW 66 : ... .. . ... ... ... : ... .. . ... ... ... : ... .. . ... ... ... : ... .. . ... ... ... : ... .. . ... ... ... : ... .. . ... ... ... : ... .. . ... ... ... : ... .. . ... ... ...
ROW 67 : ... .. . ... ... ... : ... .. . ... ... ... : ... .. . ... ... ... : ... .. . ... ... ... : ... .. . ... ... ... : B-3 05 . ... ... ... : A#3 05 . ... ... ... : ... .. . ... ... ...
ROW 68 : ... .. . ... ... ... : ... .. . ... ... ... : ... .. . ... ... ... : ... .. . ... ... ... : ... .. . ... ... ... : B-3 06 . ... ... ... : A#3 06 . ... ... ... : ... .. . ... ... ...
ROW 69 : ... .. . ... ... ... : ... .. . ... ... ... : ... .. . ... ... ... : ... .. . ... ... ... : ... .. . ... ... ... : B-3 07 . ... ... ... : A#3 07 . ... ... ... : ... .. . ... ... ...
ROW 6A : ... .. . ... ... ... : ... .. . ... ... ... : ... .. . ... ... ... : ... .. . ... ... ... : ... .. . ... ... ... : B-3 08 . ... ... ... : A#3 08 . ... ... ... : ... .. . ... ... ...
ROW 6B : ... .. . ... ... ... : ... .. . ... ... ... : ... .. . ... ... ... : ... .. . ... ... ... : ... .. . ... ... ... : B-3 09 . ... ... ... : A#3 09 . ... ... ... : ... .. . ... ... ...
ROW 6C : ... .. . ... ... ... : ... .. . ... ... ... : ... .. . ... ... ... : A-# 00 F ... ... ... : ... .. . ... ... ... : C#4 03 . ... ... ... : B-3 03 . ... ... ... : ... .. . ... ... ...
ROW 6D : ... .. . ... ... ... : ... .. . ... ... ... : ... .. . ... ... ... : ... .. E ... ... ... : ... .. . ... ... ... : ... .. . ... ... ... : ... .. . ... ... ... : ... .. . ... ... ...
ROW 6E : ... .. . ... ... ... : ... .. . ... ... ... : ... .. . ... ... ... : ... .. C ... ... ... : ... .. . ... ... ... : ... .. . ... ... ... : ... .. . ... ... ... : ... .. . ... ... ...
ROW 6F : ... .. . ... ... ... : ... .. . ... ... ... : ... .. . ... ... ... : ... .. A ... ... ... : ... .. . ... ... ... : ... .. . ... ... ... : ... .. . ... ... ... : ... .. . ... ... ...
ROW 70 : ... .. . ... ... ... : ... .. . ... ... ... : ... .. . ... ... ... : --- .. . ... ... ... : ... .. . ... ... ... : ... .. . ... ... ... : ... .. . ... ... ... : ... .. . ... ... ...
ROW 71 : ... .. . ... ... ... : ... .. . ... ... ... : ... .. . ... ... ... : ... .. . ... ... ... : ... .. . ... ... ... : C#4 04 . ... ... ... : B-3 04 . ... ... ... : ... .. . ... ... ...
ROW 72 : ... .. . ... ... ... : ... .. . ... ... ... : ... .. . ... ... ... : ... .. . ... ... ... : ... .. . ... ... ... : ... .. . ... ... ... : ... .. . ... ... ... : ... .. . ... ... ...
ROW 73 : ... .. . ... ... ... : ... .. . ... ... ... : ... .. . ... ... ... : ... .. . ... ... ... : ... .. . ... ... ... : C#4 05 . ... ... ... : B-3 05 . ... ... ... : ... .. . ... ... ...
ROW 74 : ... .. . ... ... ... : ... .. . ... ... ... : ... .. . ... ... ... : ... .. . ... ... ... : ... .. . ... ... ... : C#4 06 . ... ... ... : B-3 06 . ... ... ... : ... .. . ... ... ...
ROW 75 : ... .. . ... ... ... : ... .. . ... ... ... : ... .. . ... ... ... : ... .. . ... ... ... : ... .. . ... ... ... : C#4 07 . ... ... ... : B-3 07 . ... ... ... : ... .. . ... ... ...
ROW 76 : ... .. . ... ... ... : ... .. . ... ... ... : ... .. . ... ... ... : ... .. . ... ... ... : ... .. . ... ... ... : C#4 08 . ... ... ... : B-3 08 . ... ... ... : ... .. . ... ... ...
ROW 77 : ... .. . ... ... ... : ... .. . ... ... ... : ... .. . ... ... ... : ... .. . ... ... ... : ... .. . ... ... ... : C#4 09 . ... ... ... : B-3 09 . ... ... ... : ... .. . ... ... ...
ROW 78 : ... .. . ... ... ... : ... .. . ... ... ... : ... .. . ... ... ... : B-# 00 C ... ... ... : ... .. . ... ... ... : D#4 03 . ... ... ... : C#4 03 . ... ... ... : ... .. . ... ... ...
ROW 79 : ... .. . ... ... ... : ... .. . ... ... ... : ... .. . ... ... ... : ... .. . ... ... ... : ... .. . ... ... ... : ... .. . ... ... ... : ... .. . ... ... ... : ... .. . ... ... ...
ROW 7A : ... .. . ... ... ... : ... .. . ... ... ... : ... .. . ... ... ... : ... .. A ... ... ... : ... .. . ... ... ... : ... .. . ... ... ... : ... .. . ... ... ... : ... .. . ... ... ...
ROW 7B : ... .. . ... ... ... : ... .. . ... ... ... : ... .. . ... ... ... : ... .. 9 ... ... ... : ... .. . ... ... ... : ... .. . ... ... ... : ... .. . ... ... ... : ... .. . ... ... ...
ROW 7C : ... .. . ... ... ... : ... .. . ... ... ... : ... .. . ... ... ... : --- .. . ... ... ... : ... .. . ... ... ... : ... .. . ... ... ... : ... .. . ... ... ... : ... .. . ... ... ...
ROW 7D : ... .. . ... ... ... : ... .. . ... ... ... : ... .. . ... ... ... : ... .. . ... ... ... : ... .. . ... ... ... : D#4 04 . ... ... ... : C#4 04 . ... ... ... : ... .. . ... ... ...
ROW 7E : ... .. . ... ... ... : ... .. . ... ... ... : ... .. . ... ... ... : ... .. . ... ... ... : ... .. . ... ... ... : ... .. . ... ... ... : ... .. . ... ... ... : ... .. . ... ... ...
ROW 7F : ... .. . ... ... ... : ... .. . ... ... ... : ... .. . ... ... ... : ... .. . ... ... ... : ... .. . ... ... ... : D#4 05 . ... ... ... : C#4 05 . ... ... ... : ... .. . ... ... ...
ROW 80 : ... .. . ... ... ... : ... .. . ... ... ... : ... .. . ... ... ... : ... .. . ... ... ... : ... .. . ... ... ... : D#4 06 . ... ... ... : C#4 06 . ... ... ... : ... .. . ... ... ...
ROW 81 : ... .. . ... ... ... : ... .. . ... ... ... : ... .. . ... ... ... : ... .. . ... ... ... : ... .. . ... ... ... : D#4 07 . ... ... ... : C#4 07 . ... ... ... : ... .. . ... ... ...
ROW 82 : ... .. . ... ... ... : ... .. . ... ... ... : ... .. . ... ... ... : ... .. . ... ... ... : ... .. . ... ... ... : D#4 08 . ... ... ... : C#4 08 . ... ... ... : ... .. . ... ... ...
ROW 83 : ... .. . ... ... ... : ... .. . ... ... ... : ... .. . ... ... ... : ... .. . ... ... ... : ... .. . ... ... ... : D#4 09 . ... ... ... : C#4 09 . ... ... ... : ... .. . ... ... ...
ROW 84 : ... .. . ... ... ... : ... .. . ... ... ... : ... .. . ... ... ... : D-# 00 A ... ... ... : ... .. . ... ... ... : B-3 03 . ... ... ... : D#4 03 . ... ... ... : ... .. . ... ... ...
ROW 85 : ... .. . ... ... ... : ... .. . ... ... ... : ... .. . ... ... ... : ... .. . ... ... ... : ... .. . ... ... ... : ... .. . ... ... ... : ... .. . ... ... ... : ... .. . ... ... ...
ROW 86 : ... .. . ... ... ... : ... .. . ... ... ... : ... .. . ... ... ... : ... .. 8 ... ... ... : ... .. . ... ... ... : ... .. . ... ... ... : ... .. . ... ... ... : ... .. . ... ... ...
ROW 87 : ... .. . ... ... ... : ... .. . ... ... ... : ... .. . ... ... ... : ... .. . ... ... ... : ... .. . ... ... ... : ... .. . ... ... ... : ... .. . ... ... ... : ... .. . ... ... ...
ROW 88 : ... .. . ... ... ... : ... .. . ... ... ... : ... .. . ... ... ... : --- .. . ... ... ... : ... .. . ... ... ... : ... .. . ... ... ... : ... .. . ... ... ... : ... .. . ... ... ...
ROW 89 : ... .. . ... ... ... : ... .. . ... ... ... : ... .. . ... ... ... : ... .. . ... ... ... : ... .. . ... ... ... : B-3 04 . ... ... ... : D#4 04 . ... ... ... : ... .. . ... ... ...
ROW 8A : ... .. . ... ... ... : ... .. . ... ... ... : ... .. . ... ... ... : ... .. . ... ... ... : ... .. . ... ... ... : ... .. . ... ... ... : ... .. . ... ... ... : ... .. . ... ... ...
ROW 8B : ... .. . ... ... ... : ... .. . ... ... ... : ... .. . ... ... ... : ... .. . ... ... ... : ... .. . ... ... ... : B-3 05 . ... ... ... : D#4 05 . ... ... ... : ... .. . ... ... ...
ROW 8C : ... .. . ... ... ... : ... .. . ... ... ... : ... .. . ... ... ... : ... .. . ... ... ... : ... .. . ... ... ... : B-3 06 . ... ... ... : D#4 06 . ... ... ... : ... .. . ... ... ...
ROW 8D : ... .. . ... ... ... : ... .. . ... ... ... : ... .. . ... ... ... : ... .. . ... ... ... : ... .. . ... ... ... : B-3 07 . ... ... ... : D#4 07 . ... ... ... : ... .. . ... ... ...
ROW 8E : ... .. . ... ... ... : ... .. . ... ... ... : ... .. . ... ... ... : ... .. . ... ... ... : ... .. . ... ... ... : B-3 08 . ... ... ... : D#4 08 . ... ... ... : ... .. . ... ... ...
ROW 8F : ... .. . ... ... ... : ... .. . ... ... ... : ... .. . ... ... ... : ... .. . ... ... ... : ... .. . ... ... ... : B-3 09 . ... ... ... : D#4 09 . ... ... ... : ... .. . ... ... ...
ROW 90 : ... .. . ... ... ... : ... .. . ... ... ... : ... .. . ... ... ... : B-# 00 B ... ... ... : ... .. . ... ... ... : C#4 03 . ... ... ... : B-3 03 . ... ... ... : ... .. . ... ... ...
ROW 91 : ... .. . ... ... ... : ... .. . ... ... ... : ... .. . ... ... ... : ... .. . ... ... ... : ... .. . ... ... ... : ... .. . ... ... ... : ... .. . ... ... ... : ... .. . ... ... ...
ROW 92 : ... .. . ... ... ... : ... .. . ... ... ... : ... .. . ... ... ... : ... .. 9 ... ... ... : ... .. . ... ... ... : ... .. . ... ... ... : ... .. . ... ... ... : ... .. . ... ... ...
ROW 93 : ... .. . ... ... ... : ... .. . ... ... ... : ... .. . ... ... ... : ... .. 8 ... ... ... : ... .. . ... ... ... : ... .. . ... ... ... : ... .. . ... ... ... : ... .. . ... ... ...
ROW 94 : ... .. . ... ... ... : ... .. . ... ... ... : ... .. . ... ... ... : --- .. . ... ... ... : ... .. . ... ... ... : ... .. . ... ... ... : ... .. . ... ... ... : ... .. . ... ... ...
ROW 95 : ... .. . ... ... ... : ... .. . ... ... ... : ... .. . ... ... ... : ... .. . ... ... ... : ... .. . ... ... ... : C#4 04 . ... ... ... : B-3 04 . ... ... ... : ... .. . ... ... ...
ROW 96 : ... .. . ... ... ... : ... .. . ... ... ... : ... .. . ... ... ... : ... .. . ... ... ... : ... .. . ... ... ... : ... .. . ... ... ... : ... .. . ... ... ... : ... .. . ... ... ...
ROW 97 : ... .. . ... ... ... : ... .. . ... ... ... : ... .. . ... ... ... : ... .. . ... ... ... : ... .. . ... ... ... : C#4 05 . ... ... ... : B-3 05 . ... ... ... : ... .. . ... ... ...
ROW 98 : ... .. . ... ... ... : ... .. . ... ... ... : ... .. . ... ... ... : ... .. . ... ... ... : ... .. . ... ... ... : C#4 06 . ... ... ... : B-3 06 . ... ... ... : ... .. . ... ... ...
ROW 99 : ... .. . ... ... ... : ... .. . ... ... ... : ... .. . ... ... ... : ... .. . ... ... ... : ... .. . ... ... ... : C#4 07 . ... ... ... : B-3 07 . ... ... ... : ... .. . ... ... ...
ROW 9A : ... .. . ... ... ... : ... .. . ... ... ... : ... .. . ... ... ... : ... .. . ... ... ... : ... .. . ... ... ... : C#4 08 . ... ... ... : B-3 08 . ... ... ... : ... .. . ... ... ...
ROW 9B : ... .. . ... ... ... : ... .. . ... ... ... : ... .. . ... ... ... : ... .. . ... ... ... : ... .. . ... ... ... : C#4 09 . ... ... ... : B-3 09 . ... ... ... : ... .. . ... ... ...
ROW 9C : ... .. . ... ... ... : ... .. . ... ... ... : ... .. . ... ... ... : A-# 00 F ... ... ... : ... .. . ... ... ... : D#4 03 . ... ... ... : C#4 03 . ... ... ... : ... .. . ... ... ...
ROW 9D : ... .. . ... ... ... : ... .. . ... ... ... : ... .. . ... ... ... : ... .. E ... ... ... : ... .. . ... ... ... : ... .. . ... ... ... : ... .. . ... ... ... : ... .. . ... ... ...
ROW 9E : ... .. . ... ... ... : ... .. . ... ... ... : ... .. . ... ... ... : ... .. C ... ... ... : ... .. . ... ... ... : ... .. . ... ... ... : ... .. . ... ... ... : ... .. . ... ... ...
ROW 9F : ... .. . ... ... ... : ... .. . ... ... ... : ... .. . ... ... ... : ... .. A ... ... ... : ... .. . ... ... ... : ... .. . ... ... ... : ... .. . ... ... ... : ... .. . ... ... ...
ROW A0 : ... .. . ... ... ... : ... .. . ... ... ... : ... .. . ... ... ... : --- .. . ... ... ... : ... .. . ... ... ... : ... .. . ... ... ... : ... .. . ... ... ... : ... .. . ... ... ...
ROW A1 : ... .. . ... ... ... : ... .. . ... ... ... : ... .. . ... ... ... : ... .. . ... ... ... : ... .. . ... ... ... : D#4 04 . ... ... ... : C#4 04 . ... ... ... : ... .. . ... ... ...
ROW A2 : ... .. . ... ... ... : ... .. . ... ... ... : ... .. . ... ... ... : ... .. . ... ... ... : ... .. . ... ... ... : ... .. . ... ... ... : ... .. . ... ... ... : ... .. . ... ... ...
ROW A3 : ... .. . ... ... ... : ... .. . ... ... ... : ... .. . ... ... ... : ... .. . ... ... ... : ... .. . ... ... ... : D#4 05 . ... ... ... : C#4 05 . ... ... ... : ... .. . ... ... ...
ROW A4 : ... .. . ... ... ... : ... .. . ... ... ... : ... .. . ... ... ... : ... .. . ... ... ... : ... .. . ... ... ... : D#4 06 . ... ... ... : C#4 06 . ... ... ... : ... .. . ... ... ...
ROW A5 : ... .. . ... ... ... : ... .. . ... ... ... : ... .. . ... ... ... : ... .. . ... ... ... : ... .. . ... ... ... : D#4 07 . ... ... ... : C#4 07 . ... ... ... : ... .. . ... ... ...
ROW A6 : ... .. . ... ... ... : ... .. . ... ... ... : ... .. . ... ... ... : ... .. . ... ... ... : ... .. . ... ... ... : D#4 08 . ... ... ... : C#4 08 . ... ... ... : ... .. . ... ... ...
ROW A7 : ... .. . ... ... ... : ... .. . ... ... ... : ... .. . ... ... ... : ... .. . ... ... ... : ... .. . ... ... ... : D#4 09 . ... ... ... : C#4 09 . ... ... ... : ... .. . ... ... ...
ROW A8 : ... .. . ... ... ... : ... .. . ... ... ... : ... .. . ... ... ... : B-# 00 C ... ... ... : ... .. . ... ... ... : D#4 03 . ... ... ... : D#4 03 . ... ... ... : ... .. . ... ... ...
ROW A9 : ... .. . ... ... ... : ... .. . ... ... ... : ... .. . ... ... ... : ... .. . ... ... ... : ... .. . ... ... ... : ... .. . ... ... ... : ... .. . ... ... ... : ... .. . ... ... ...
ROW AA : ... .. . ... ... ... : ... .. . ... ... ... : ... .. . ... ... ... : ... .. A ... ... ... : ... .. . ... ... ... : ... .. . ... ... ... : ... .. . ... ... ... : ... .. . ... ... ...
ROW AB : ... .. . ... ... ... : ... .. . ... ... ... : ... .. . ... ... ... : ... .. 9 ... ... ... : ... .. . ... ... ... : ... .. . ... ... ... : ... .. . ... ... ... : ... .. . ... ... ...
ROW AC : ... .. . ... ... ... : ... .. . ... ... ... : ... .. . ... ... ... : --- .. . ... ... ... : ... .. . ... ... ... : ... .. . ... ... ... : ... .. . ... ... ... : ... .. . ... ... ...
ROW AD : ... .. . ... ... ... : ... .. . ... ... ... : ... .. . ... ... ... : ... .. . ... ... ... : ... .. . ... ... ... : D#4 04 . ... ... ... : D#4 04 . ... ... ... : ... .. . ... ... ...
ROW AE : ... .. . ... ... ... : ... .. . ... ... ... : ... .. . ... ... ... : ... .. . ... ... ... : ... .. . ... ... ... : E-4 03 . ... ... ... : ... .. . ... ... ... : ... .. . ... ... ...
ROW AF : ... .. . ... ... ... : ... .. . ... ... ... : ... .. . ... ... ... : ... .. . ... ... ... : ... .. . ... ... ... : ... .. . ... ... ... : D#4 05 . ... ... ... : ... .. . ... ... ...
ROW B0 : ... .. . ... ... ... : ... .. . ... ... ... : ... .. . ... ... ... : ... .. . ... ... ... : ... .. . ... ... ... : ... .. . ... ... ... : D#4 06 . ... ... ... : ... .. . ... ... ...
ROW B1 : ... .. . ... ... ... : ... .. . ... ... ... : ... .. . ... ... ... : ... .. . ... ... ... : ... .. . ... ... ... : ... .. . ... ... ... : D#4 07 . ... ... ... : ... .. . ... ... ...
ROW B2 : ... .. . ... ... ... : ... .. . ... ... ... : ... .. . ... ... ... : ... .. . ... ... ... : ... .. . ... ... ... : ... .. . ... ... ... : D#4 08 . ... ... ... : ... .. . ... ... ...
ROW B3 : ... .. . ... ... ... : ... .. . ... ... ... : ... .. . ... ... ... : ... .. . ... ... ... : ... .. . ... ... ... : E-4 04 . ... ... ... : D#4 09 . ... ... ... : ... .. . ... ... ...
ROW B4 : ... .. . ... ... ... : ... .. . ... ... ... : ... .. . ... ... ... : D-# 00 A ... ... ... : ... .. . ... ... ... : D#4 03 . ... ... ... : D#4 03 . ... ... ... : ... .. . ... ... ...
ROW B5 : ... .. . ... ... ... : ... .. . ... ... ... : ... .. . ... ... ... : ... .. . ... ... ... : ... .. . ... ... ... : ... .. . ... ... ... : ... .. . ... ... ... : ... .. . ... ... ...
ROW B6 : ... .. . ... ... ... : ... .. . ... ... ... : ... .. . ... ... ... : ... .. 8 ... ... ... : ... .. . ... ... ... : ... .. . ... ... ... : ... .. . ... ... ... : ... .. . ... ... ...
ROW B7 : ... .. . ... ... ... : ... .. . ... ... ... : ... .. . ... ... ... : ... .. . ... ... ... : ... .. . ... ... ... : ... .. . ... ... ... : ... .. . ... ... ... : ... .. . ... ... ...
ROW B8 : ... .. . ... ... ... : ... .. . ... ... ... : ... .. . ... ... ... : --- .. . ... ... ... : ... .. . ... ... ... : ... .. . ... ... ... : ... .. . ... ... ... : ... .. . ... ... ...
ROW B9 : ... .. . ... ... ... : ... .. . ... ... ... : ... .. . ... ... ... : ... .. . ... ... ... : ... .. . ... ... ... : D#4 04 . ... ... ... : D#4 04 . ... ... ... : ... .. . ... ... ...
ROW BA : ... .. . ... ... ... : ... .. . ... ... ... : ... .. . ... ... ... : ... .. . ... ... ... : ... .. . ... ... ... : B-3 03 . ... ... ... : E-4 03 . ... ... ... : ... .. . ... ... ...
ROW BB : ... .. . ... ... ... : ... .. . ... ... ... : ... .. . ... ... ... : ... .. . ... ... ... : ... .. . ... ... ... : ... .. . ... ... ... : ... .. . ... ... ... : ... .. . ... ... ...
ROW BC : ... .. . ... ... ... : ... .. . ... ... ... : ... .. . ... ... ... : ... .. . ... ... ... : ... .. . ... ... ... : ... .. . ... ... ... : ... .. . ... ... ... : ... .. . ... ... ...
ROW BD : ... .. . ... ... ... : ... .. . ... ... ... : ... .. . ... ... ... : ... .. . ... ... ... : ... .. . ... ... ... : ... .. . ... ... ... : ... .. . ... ... ... : ... .. . ... ... ...
ROW BE : ... .. . ... ... ... : ... .. . ... ... ... : ... .. . ... ... ... : ... .. . ... ... ... : ... .. . ... ... ... : ... .. . ... ... ... : ... .. . ... ... ... : ... .. . ... ... ...
ROW BF : ... .. . ... ... ... : ... .. . ... ... ... : ... .. . ... ... ... : ... .. . ... ... ... : ... .. . ... ... ... : B-3 04 . ... ... ... : E-4 04 . ... ... ... : ... .. . ... ... ...
ROW C0 : ... .. . ... ... ... : ... .. . ... ... ... : ... .. . ... ... ... : B-# 00 B ... ... ... : ... .. . ... ... ... : C#4 03 . ... ... ... : D#4 03 . ... ... ... : ... .. . ... ... ...
ROW C1 : ... .. . ... ... ... : ... .. . ... ... ... : ... .. . ... ... ... : ... .. . ... ... ... : ... .. . ... ... ... : ... .. . ... ... ... : ... .. . ... ... ... : ... .. . ... ... ...
ROW C2 : ... .. . ... ... ... : ... .. . ... ... ... : ... .. . ... ... ... : ... .. 9 ... ... ... : ... .. . ... ... ... : ... .. . ... ... ... : ... .. . ... ... ... : ... .. . ... ... ...
ROW C3 : ... .. . ... ... ... : ... .. . ... ... ... : ... .. . ... ... ... : ... .. 8 ... ... ... : ... .. . ... ... ... : ... .. . ... ... ... : ... .. . ... ... ... : ... .. . ... ... ...
ROW C4 : ... .. . ... ... ... : ... .. . ... ... ... : ... .. . ... ... ... : --- .. . ... ... ... : ... .. . ... ... ... : ... .. . ... ... ... : ... .. . ... ... ... : ... .. . ... ... ...
ROW C5 : ... .. . ... ... ... : ... .. . ... ... ... : ... .. . ... ... ... : ... .. . ... ... ... : ... .. . ... ... ... : C#4 04 . ... ... ... : D#4 04 . ... ... ... : ... .. . ... ... ...
ROW C6 : ... .. . ... ... ... : ... .. . ... ... ... : ... .. . ... ... ... : ... .. . ... ... ... : ... .. . ... ... ... : D#4 03 . ... ... ... : B-3 03 . ... ... ... : ... .. . ... ... ...
ROW C7 : ... .. . ... ... ... : ... .. . ... ... ... : ... .. . ... ... ... : ... .. . ... ... ... : ... .. . ... ... ... : ... .. . ... ... ... : ... .. . ... ... ... : ... .. . ... ... ...
ROW C8 : ... .. . ... ... ... : ... .. . ... ... ... : ... .. . ... ... ... : ... .. . ... ... ... : ... .. . ... ... ... : ... .. . ... ... ... : ... .. . ... ... ... : ... .. . ... ... ...
ROW C9 : ... .. . ... ... ... : ... .. . ... ... ... : ... .. . ... ... ... : ... .. . ... ... ... : ... .. . ... ... ... : ... .. . ... ... ... : ... .. . ... ... ... : ... .. . ... ... ...
ROW CA : ... .. . ... ... ... : ... .. . ... ... ... : ... .. . ... ... ... : ... .. . ... ... ... : ... .. . ... ... ... : ... .. . ... ... ... : ... .. . ... ... ... : ... .. . ... ... ...
ROW CB : ... .. . ... ... ... : ... .. . ... ... ... : ... .. . ... ... ... : ... .. . ... ... ... : ... .. . ... ... ... : D#4 04 . ... ... ... : B-3 04 . ... ... ... : ... .. . ... ... ...
ROW CC : ... .. . ... ... ... : ... .. . ... ... ... : ... .. . ... ... ... : A-# 00 F ... ... ... : ... .. . ... ... ... : C#4 03 . ... ... ... : C#4 03 . ... ... ... : ... .. . ... ... ...
ROW CD : ... .. . ... ... ... : ... .. . ... ... ... : ... .. . ... ... ... : ... .. E ... ... ... : ... .. . ... ... ... : ... .. . ... ... ... : ... .. . ... ... ... : ... .. . ... ... ...
ROW CE : ... .. . ... ... ... : ... .. . ... ... ... : ... .. . ... ... ... : ... .. C ... ... ... : ... .. . ... ... ... : ... .. . ... ... ... : ... .. . ... ... ... : ... .. . ... ... ...
ROW CF : ... .. . ... ... ... : ... .. . ... ... ... : ... .. . ... ... ... : ... .. A ... ... ... : ... .. . ... ... ... : ... .. . ... ... ... : ... .. . ... ... ... : ... .. . ... ... ...
ROW D0 : ... .. . ... ... ... : ... .. . ... ... ... : ... .. . ... ... ... : --- .. . ... ... ... : ... .. . ... ... ... : ... .. . ... ... ... : ... .. . ... ... ... : ... .. . ... ... ...
ROW D1 : ... .. . ... ... ... : ... .. . ... ... ... : ... .. . ... ... ... : ... .. . ... ... ... : ... .. . ... ... ... : C#4 04 . ... ... ... : C#4 04 . ... ... ... : ... .. . ... ... ...
ROW D2 : ... .. . ... ... ... : ... .. . ... ... ... : ... .. . ... ... ... : ... .. . ... ... ... : ... .. . ... ... ... : A#3 03 . ... ... ... : D#4 03 . ... ... ... : ... .. . ... ... ...
ROW D3 : ... .. . ... ... ... : ... .. . ... ... ... : ... .. . ... ... ... : ... .. . ... ... ... : ... .. . ... ... ... : ... .. . ... ... ... : ... .. . ... ... ... : ... .. . ... ... ...
ROW D4 : ... .. . ... ... ... : ... .. . ... ... ... : ... .. . ... ... ... : ... .. . ... ... ... : ... .. . ... ... ... : ... .. . ... ... ... : ... .. . ... ... ... : ... .. . ... ... ...
ROW D5 : ... .. . ... ... ... : ... .. . ... ... ... : ... .. . ... ... ... : ... .. . ... ... ... : ... .. . ... ... ... : ... .. . ... ... ... : ... .. . ... ... ... : ... .. . ... ... ...
ROW D6 : ... .. . ... ... ... : ... .. . ... ... ... : ... .. . ... ... ... : ... .. . ... ... ... : ... .. . ... ... ... : ... .. . ... ... ... : ... .. . ... ... ... : ... .. . ... ... ...
ROW D7 : ... .. . ... ... ... : ... .. . ... ... ... : ... .. . ... ... ... : ... .. . ... ... ... : ... .. . ... ... ... : A#3 04 . ... ... ... : D#4 04 . ... ... ... : ... .. . ... ... ...
ROW D8 : ... .. . ... ... ... : ... .. . ... ... ... : ... .. . ... ... ... : B-# 00 C ... ... ... : ... .. . ... ... ... : B-3 03 . ... ... ... : C#4 03 . ... ... ... : ... .. . ... ... ...
ROW D9 : ... .. . ... ... ... : ... .. . ... ... ... : ... .. . ... ... ... : ... .. . ... ... ... : ... .. . ... ... ... : ... .. . ... ... ... : ... .. . ... ... ... : ... .. . ... ... ...
ROW DA : ... .. . ... ... ... : ... .. . ... ... ... : ... .. . ... ... ... : ... .. A ... ... ... : ... .. . ... ... ... : ... .. . ... ... ... : ... .. . ... ... ... : ... .. . ... ... ...
ROW DB : ... .. . ... ... ... : ... .. . ... ... ... : ... .. . ... ... ... : ... .. 9 ... ... ... : ... .. . ... ... ... : ... .. . ... ... ... : ... .. . ... ... ... : ... .. . ... ... ...
ROW DC : ... .. . ... ... ... : ... .. . ... ... ... : ... .. . ... ... ... : --- .. . ... ... ... : ... .. . ... ... ... : ... .. . ... ... ... : ... .. . ... ... ... : ... .. . ... ... ...
ROW DD : ... .. . ... ... ... : ... .. . ... ... ... : ... .. . ... ... ... : ... .. . ... ... ... : ... .. . ... ... ... : B-3 04 . ... ... ... : C#4 04 . ... ... ... : ... .. . ... ... ...
ROW DE : ... .. . ... ... ... : ... .. . ... ... ... : ... .. . ... ... ... : ... .. . ... ... ... : ... .. . ... ... ... : C#4 03 . ... ... ... : A#3 03 . ... ... ... : ... .. . ... ... ...
ROW DF : ... .. . ... ... ... : ... .. . ... ... ... : ... .. . ... ... ... : ... .. . ... ... ... : ... .. . ... ... ... : ... .. . ... ... ... : ... .. . ... ... ... : ... .. . ... ... ...
ROW E0 : ... .. . ... ... ... : ... .. . ... ... ... : ... .. . ... ... ... : ... .. . ... ... ... : ... .. . ... ... ... : ... .. . ... ... ... : ... .. . ... ... ... : ... .. . ... ... ...
ROW E1 : ... .. . ... ... ... : ... .. . ... ... ... : ... .. . ... ... ... : ... .. . ... ... ... : ... .. . ... ... ... : ... .. . ... ... ... : ... .. . ... ... ... : ... .. . ... ... ...
ROW E2 : ... .. . ... ... ... : ... .. . ... ... ... : ... .. . ... ... ... : ... .. . ... ... ... : ... .. . ... ... ... : ... .. . ... ... ... : ... .. . ... ... ... : ... .. . ... ... ...
ROW E3 : ... .. . ... ... ... : ... .. . ... ... ... : ... .. . ... ... ... : ... .. . ... ... ... : ... .. . ... ... ... : C#4 04 . ... ... ... : A#3 04 . ... ... ... : ... .. . ... ... ...
ROW E4 : ... .. . ... ... ... : ... .. . ... ... ... : ... .. . ... ... ... : D-# 00 A ... ... ... : ... .. . ... ... ... : B-3 03 . ... ... ... : B-3 03 . ... ... ... : ... .. . ... ... ...
ROW E5 : ... .. . ... ... ... : ... .. . ... ... ... : ... .. . ... ... ... : ... .. . ... ... ... : ... .. . ... ... ... : ... .. . ... ... ... : ... .. . ... ... ... : ... .. . ... ... ...
ROW E6 : ... .. . ... ... ... : ... .. . ... ... ... : ... .. . ... ... ... : ... .. 8 ... ... ... : ... .. . ... ... ... : ... .. . ... ... ... : ... .. . ... ... ... : ... .. . ... ... ...
ROW E7 : ... .. . ... ... ... : ... .. . ... ... ... : ... .. . ... ... ... : ... .. . ... ... ... : ... .. . ... ... ... : ... .. . ... ... ... : ... .. . ... ... ... : ... .. . ... ... ...
ROW E8 : ... .. . ... ... ... : ... .. . ... ... ... : ... .. . ... ... ... : --- .. . ... ... ... : ... .. . ... ... ... : ... .. . ... ... ... : ... .. . ... ... ... : ... .. . ... ... ...
ROW E9 : ... .. . ... ... ... : ... .. . ... ... ... : ... .. . ... ... ... : ... .. . ... ... ... : ... .. . ... ... ... : B-3 04 . ... ... ... : B-3 04 . ... ... ... : ... .. . ... ... ...
ROW EA : ... .. . ... ... ... : ... .. . ... ... ... : ... .. . ... ... ... : ... .. . ... ... ... : ... .. . ... ... ... : G#3 03 . ... ... ... : C#4 03 . ... ... ... : ... .. . ... ... ...
ROW EB : ... .. . ... ... ... : ... .. . ... ... ... : ... .. . ... ... ... : ... .. . ... ... ... : ... .. . ... ... ... : ... .. . ... ... ... : ... .. . ... ... ... : ... .. . ... ... ...
ROW EC : ... .. . ... ... ... : ... .. . ... ... ... : ... .. . ... ... ... : ... .. . ... ... ... : ... .. . ... ... ... : ... .. . ... ... ... : ... .. . ... ... ... : ... .. . ... ... ...
ROW ED : ... .. . ... ... ... : ... .. . ... ... ... : ... .. . ... ... ... : ... .. . ... ... ... : ... .. . ... ... ... : ... .. . ... ... ... : ... .. . ... ... ... : ... .. . ... ... ...
ROW EE : ... .. . ... ... ... : ... .. . ... ... ... : ... .. . ... ... ... : ... .. . ... ... ... : ... .. . ... ... ... : ... .. . ... ... ... : ... .. . ... ... ... : ... .. . ... ... ...
ROW EF : ... .. . ... ... ... : ... .. . ... ... ... : ... .. . ... ... ... : ... .. . ... ... ... : ... .. . ... ... ... : G#3 04 . ... ... ... : C#4 04 . ... ... ... : ... .. . ... ... ...
ROW F0 : ... .. . ... ... ... : ... .. . ... ... ... : ... .. . ... ... ... : B-# 00 B ... ... ... : ... .. . ... ... ... : G-3 03 . ... ... ... : B-3 03 . ... ... ... : ... .. . ... ... ...
ROW F1 : ... .. . ... ... ... : ... .. . ... ... ... : ... .. . ... ... ... : ... .. . ... ... ... : ... .. . ... ... ... : ... .. . ... ... ... : ... .. . ... ... ... : ... .. . ... ... ...
ROW F2 : ... .. . ... ... ... : ... .. . ... ... ... : ... .. . ... ... ... : ... .. 9 ... ... ... : ... .. . ... ... ... : ... .. . ... ... ... : ... .. . ... ... ... : ... .. . ... ... ...
ROW F3 : ... .. . ... ... ... : ... .. . ... ... ... : ... .. . ... ... ... : ... .. 8 ... ... ... : ... .. . ... ... ... : ... .. . ... ... ... : ... .. . ... ... ... : ... .. . ... ... ...
ROW F4 : ... .. . ... ... ... : ... .. . ... ... ... : ... .. . ... ... ... : --- .. . ... ... ... : ... .. . ... ... ... : ... .. . ... ... ... : ... .. . ... ... ... : ... .. . ... ... ...
ROW F5 : ... .. . ... ... ... : ... .. . ... ... ... : ... .. . ... ... ... : ... .. . ... ... ... : ... .. . ... ... ... : G-3 04 . ... ... ... : B-3 04 . ... ... ... : ... .. . ... ... ...
ROW F6 : ... .. . ... ... ... : ... .. . ... ... ... : ... .. . ... ... ... : ... .. . ... ... ... : ... .. . ... ... ... : A#3 03 . ... ... ... : G#3 03 . ... ... ... : ... .. . ... ... ...
ROW F7 : ... .. . ... ... ... : ... .. . ... ... ... : ... .. . ... ... ... : ... .. . ... ... ... : ... .. . ... ... ... : ... .. . ... ... ... : ... .. . ... ... ... : ... .. . ... ... ...
ROW F8 : ... .. . ... ... ... : ... .. . ... ... ... : ... .. . ... ... ... : ... .. . ... ... ... : ... .. . ... ... ... : ... .. . ... ... ... : ... .. . ... ... ... : ... .. . ... ... ...
ROW F9 : ... .. . ... ... ... : ... .. . ... ... ... : ... .. . ... ... ... : ... .. . ... ... ... : ... .. . ... ... ... : ... .. . ... ... ... : ... .. . ... ... ... : ... .. . ... ... ...
ROW FA : ... .. . ... ... ... : ... .. . ... ... ... : ... .. . ... ... ... : ... .. . ... ... ... : ... .. . ... ... ... : ... .. . ... ... ... : ... .. . ... ... ... : ... .. . ... ... ...
ROW FB : ... .. . ... ... ... : ... .. . ... ... ... : ... .. . ... ... ... : ... .. . ... ... ... : ... .. . ... ... ... : A#3 04 . ... ... ... : G#3 04 . ... ... ... : ... .. . ... ... ...
ROW FC : ... .. . ... ... ... : ... .. . ... ... ... : ... .. . ... ... ... : A-# 00 F ... ... ... : ... .. . ... ... ... : G-3 03 . ... ... ... : G-3 03 . ... ... ... : ... .. . ... ... ...
ROW FD : ... .. . ... ... ... : ... .. . ... ... ... : ... .. . ... ... ... : ... .. E ... ... ... : ... .. . ... ... ... : ... .. . ... ... ... : ... .. . ... ... ... : ... .. . ... ... ...
ROW FE : ... .. . ... ... ... : ... .. . ... ... ... : ... .. . ... ... ... : ... .. C ... ... ... : ... .. . ... ... ... : ... .. . ... ... ... : ... .. . ... ... ... : ... .. . ... ... ...
ROW FF : ... .. . ... ... ... : ... .. . ... ... ... : ... .. . ... ... ... : ... .. A ... ... ... : ... .. . ... ... ... : ... .. . ... ... ... : ... .. . ... ... ... : ... .. . ... ... ...

PATTERN 0D
ROW 00 : ... .. . ... ... ... : ... .. . ... ... ... : ... .. . ... ... ... : --- .. . ... ... ... : ... .. . ... ... ... : ... .. . ... ... ... : ... .. . ... ... ... : ... .. . ... ... ...
ROW 01 : ... .. . ... ... ... : ... .. . ... ... ... : ... .. . ... ... ... : ... .. . ... ... ... : ... .. . ... ... ... : G-3 04 . ... ... ... : G-3 04 . ... ... ... : ... .. . ... ... ...
ROW 02 : ... .. . ... ... ... : ... .. . ... ... ... : ... .. . ... ... ... : ... .. . ... ... ... : ... .. . ... ... ... : D#3 03 . ... ... ... : A#3 03 . ... ... ... : ... .. . ... ... ...
ROW 03 : ... .. . ... ... ... : ... .. . ... ... ... : ... .. . ... ... ... : ... .. . ... ... ... : ... .. . ... ... ... : ... .. . ... ... ... : ... .. . ... ... ... : ... .. . ... ... ...
ROW 04 : ... .. . ... ... ... : ... .. . ... ... ... : ... .. . ... ... ... : ... .. . ... ... ... : ... .. . ... ... ... : ... .. . ... ... ... : ... .. . ... ... ... : ... .. . ... ... ...
ROW 05 : ... .. . ... ... ... : ... .. . ... ... ... : ... .. . ... ... ... : ... .. . ... ... ... : ... .. . ... ... ... : ... .. . ... ... ... : ... .. . ... ... ... : ... .. . ... ... ...
ROW 06 : ... .. . ... ... ... : ... .. . ... ... ... : ... .. . ... ... ... : ... .. . ... ... ... : ... .. . ... ... ... : ... .. . ... ... ... : ... .. . ... ... ... : ... .. . ... ... ...
ROW 07 : ... .. . ... ... ... : ... .. . ... ... ... : ... .. . ... ... ... : ... .. . ... ... ... : ... .. . ... ... ... : D#3 04 . ... ... ... : A#3 04 . ... ... ... : ... .. . ... ... ...
ROW 08 : ... .. . ... ... ... : ... .. . ... ... ... : ... .. . ... ... ... : A-# 00 C ... ... ... : ... .. . ... ... ... : G#3 03 . ... ... ... : G-3 03 . ... ... ... : ... .. . ... ... ...
ROW 09 : ... .. . ... ... ... : ... .. . ... ... ... : ... .. . ... ... ... : ... .. . ... ... ... : ... .. . ... ... ... : ... .. . ... ... ... : ... .. . ... ... ... : ... .. . ... ... ...
ROW 0A : ... .. . ... ... ... : ... .. . ... ... ... : ... .. . ... ... ... : ... .. A ... ... ... : ... .. . ... ... ... : ... .. . ... ... ... : ... .. . ... ... ... : ... .. . ... ... ...
ROW 0B : ... .. . ... ... ... : ... .. . ... ... ... : ... .. . ... ... ... : ... .. 9 ... ... ... : ... .. . ... ... ... : ... .. . ... ... ... : ... .. . ... ... ... : ... .. . ... ... ...
ROW 0C : ... .. . ... ... ... : ... .. . ... ... ... : ... .. . ... ... ... : --- .. . ... ... ... : ... .. . ... ... ... : ... .. . ... ... ... : ... .. . ... ... ... : ... .. . ... ... ...
ROW 0D : ... .. . ... ... ... : ... .. . ... ... ... : ... .. . ... ... ... : ... .. . ... ... ... : ... .. . ... ... ... : G#3 04 . ... ... ... : G-3 04 . ... ... ... : ... .. . ... ... ...
ROW 0E : ... .. . ... ... ... : ... .. . ... ... ... : ... .. . ... ... ... : ... .. . ... ... ... : ... .. . ... ... ... : --- .. . ... ... ... : D#3 03 . ... ... ... : ... .. . ... ... ...
ROW 0F : ... .. . ... ... ... : ... .. . ... ... ... : ... .. . ... ... ... : ... .. . ... ... ... : ... .. . ... ... ... : ... .. . ... ... ... : ... .. . ... ... ... : ... .. . ... ... ...
ROW 10 : ... .. . ... ... ... : ... .. . ... ... ... : ... .. . ... ... ... : ... .. . ... ... ... : ... .. . ... ... ... : ... .. . ... ... ... : ... .. . ... ... ... : ... .. . ... ... ...
ROW 11 : ... .. . ... ... ... : ... .. . ... ... ... : ... .. . ... ... ... : ... .. . ... ... ... : ... .. . ... ... ... : ... .. . ... ... ... : ... .. . ... ... ... : ... .. . ... ... ...
ROW 12 : ... .. . ... ... ... : ... .. . ... ... ... : ... .. . ... ... ... : ... .. . ... ... ... : ... .. . ... ... ... : ... .. . ... ... ... : ... .. . ... ... ... : ... .. . ... ... ...
ROW 13 : ... .. . ... ... ... : ... .. . ... ... ... : ... .. . ... ... ... : ... .. . ... ... ... : ... .. . ... ... ... : ... .. . ... ... ... : D#3 04 . ... ... ... : ... .. . ... ... ...
ROW 14 : ... .. . ... ... ... : ... .. . ... ... ... : ... .. . ... ... ... : ... .. . ... ... ... : ... .. . ... ... ... : ... .. . ... ... ... : G#3 03 . ... ... ... : ... .. . ... ... ...
ROW 15 : ... .. . ... ... ... : ... .. . ... ... ... : ... .. . ... ... ... : ... .. . ... ... ... : ... .. . ... ... ... : ... .. . ... ... ... : ... .. . ... ... ... : ... .. . ... ... ...
ROW 16 : ... .. . ... ... ... : ... .. . ... ... ... : ... .. . ... ... ... : ... .. . ... ... ... : ... .. . ... ... ... : ... .. . ... ... ... : ... .. . ... ... ... : ... .. . ... ... ...
ROW 17 : ... .. . ... ... ... : ... .. . ... ... ... : ... .. . ... ... ... : ... .. . ... ... ... : ... .. . ... ... ... : ... .. . ... ... ... : ... .. . ... ... ... : ... .. . ... ... ...
ROW 18 : ... .. . ... ... ... : ... .. . ... ... ... : ... .. . ... ... ... : ... .. . ... ... ... : ... .. . ... ... ... : ... .. . ... ... ... : ... .. . ... ... ... : ... .. . ... ... ...
ROW 19 : ... .. . ... ... ... : ... .. . ... ... ... : ... .. . ... ... ... : ... .. . ... ... ... : ... .. . ... ... ... : ... .. . ... ... ... : G#3 04 . ... ... ... : ... .. . ... ... ...
ROW 1A : ... .. . ... ... ... : ... .. . ... ... ... : ... .. . ... ... ... : ... .. . ... ... ... : ... .. . ... ... ... : ... .. . ... ... ... : --- .. . ... ... ... : ... .. . ... ... ...
ROW 1B : ... .. . ... ... ... : ... .. . ... ... ... : ... .. . ... ... ... : ... .. . ... ... ... : ... .. . ... ... ... : ... .. . ... ... ... : ... .. . ... ... ... : ... .. . ... ... ...
ROW 1C : ... .. . ... ... ... : ... .. . ... ... ... : ... .. . ... ... ... : ... .. . ... ... ... : ... .. . ... ... ... : ... .. . ... ... ... : ... .. . ... ... ... : ... .. . ... ... ...
ROW 1D : ... .. . ... ... ... : ... .. . ... ... ... : ... .. . ... ... ... : ... .. . ... ... ... : ... .. . ... ... ... : ... .. . ... ... ... : ... .. . ... ... ... : ... .. . ... ... ...
ROW 1E : ... .. . ... ... ... : ... .. . ... ... ... : ... .. . ... ... ... : ... .. . ... ... ... : ... .. . ... ... ... : ... .. . ... ... ... : ... .. . ... ... ... : ... .. . ... ... ...
ROW 1F : ... .. . ... ... ... : ... .. . ... ... ... : ... .. . ... ... ... : ... .. . ... ... ... : ... .. . ... ... ... : ... .. . ... ... ... : ... .. . ... ... ... : ... .. . ... ... ...
ROW 20 : ... .. . ... ... ... : ... .. . ... ... ... : ... .. . ... ... ... : ... .. . ... ... ... : ... .. . ... ... ... : ... .. . ... ... ... : ... .. . ... ... ... : ... .. . ... ... ...
ROW 21 : ... .. . ... ... ... : ... .. . ... ... ... : ... .. . ... ... ... : ... .. . ... ... ... : ... .. . ... ... ... : ... .. . ... ... ... : ... .. . ... ... ... : ... .. . ... ... ...
ROW 22 : ... .. . ... ... ... : ... .. . ... ... ... : ... .. . ... ... ... : ... .. . ... ... ... : ... .. . ... ... ... : ... .. . ... ... ... : ... .. . ... ... ... : ... .. . ... ... ...
ROW 23 : ... .. . ... ... ... : ... .. . ... ... ... : ... .. . ... ... ... : ... .. . ... ... ... : ... .. . ... ... ... : ... .. . ... ... ... : ... .. . ... ... ... : ... .. . ... ... ...
ROW 24 : ... .. . ... ... ... : ... .. . ... ... ... : ... .. . ... ... ... : ... .. . ... ... ... : ... .. . ... ... ... : ... .. . ... ... ... : ... .. . ... ... ... : ... .. . ... ... ...
ROW 25 : ... .. . ... ... ... : ... .. . ... ... ... : ... .. . ... ... ... : ... .. . ... ... ... : ... .. . ... ... ... : ... .. . ... ... ... : ... .. . ... ... ... : ... .. . ... ... ...
ROW 26 : ... .. . ... ... ... : ... .. . ... ... ... : ... .. . ... ... ... : ... .. . ... ... ... : ... .. . ... ... ... : ... .. . ... ... ... : ... .. . ... ... ... : ... .. . ... ... ...
ROW 27 : ... .. . ... ... ... : ... .. . ... ... ... : ... .. . ... ... ... : ... .. . ... ... ... : ... .. . ... ... ... : ... .. . ... ... ... : ... .. . ... ... ... : ... .. . ... ... ...
ROW 28 : ... .. . ... ... ... : ... .. . ... ... ... : ... .. . ... ... ... : ... .. . ... ... ... : ... .. . ... ... ... : ... .. . ... ... ... : ... .. . ... ... ... : ... .. . ... ... ...
ROW 29 : ... .. . ... ... ... : ... .. . ... ... ... : ... .. . ... ... ... : ... .. . ... ... ... : ... .. . ... ... ... : ... .. . ... ... ... : ... .. . ... ... ... : ... .. . ... ... ...
ROW 2A : ... .. . ... ... ... : ... .. . ... ... ... : ... .. . ... ... ... : ... .. . ... ... ... : ... .. . ... ... ... : ... .. . ... ... ... : ... .. . ... ... ... : ... .. . ... ... ...
ROW 2B : ... .. . ... ... ... : ... .. . ... ... ... : ... .. . ... ... ... : ... .. . ... ... ... : ... .. . ... ... ... : ... .. . ... ... ... : ... .. . ... ... ... : ... .. . ... ... ...
ROW 2C : ... .. . ... ... ... : ... .. . ... ... ... : ... .. . ... ... ... : ... .. . ... ... ... : ... .. . ... ... ... : ... .. . ... ... ... : ... .. . ... ... ... : ... .. . ... ... ...
ROW 2D : ... .. . ... ... ... : ... .. . ... ... ... : ... .. . ... ... ... : ... .. . ... ... ... : ... .. . ... ... ... : ... .. . ... ... ... : ... .. . ... ... ... : ... .. . ... ... ...
ROW 2E : ... .. . ... ... ... : ... .. . ... ... ... : ... .. . ... ... ... : ... .. . ... ... ... : ... .. . ... ... ... : ... .. . ... ... ... : ... .. . ... ... ... : ... .. . ... ... ...
ROW 2F : ... .. . ... ... ... : ... .. . ... ... ... : ... .. . ... ... ... : ... .. . ... ... ... : ... .. . ... ... ... : ... .. . ... ... ... : ... .. . ... ... ... : ... .. . ... ... ...
ROW 30 : ... .. . ... ... ... : ... .. . ... ... ... : ... .. . ... ... ... : ... .. . ... ... ... : ... .. . ... ... ... : ... .. . ... ... ... : ... .. . ... ... ... : ... .. . ... ... ...
ROW 31 : ... .. . ... ... ... : ... .. . ... ... ... : ... .. . ... ... ... : ... .. . ... ... ... : ... .. . ... ... ... : ... .. . ... ... ... : ... .. . ... ... ... : ... .. . ... ... ...
ROW 32 : ... .. . ... ... ... : ... .. . ... ... ... : ... .. . ... ... ... : ... .. . ... ... ... : ... .. . ... ... ... : ... .. . ... ... ... : ... .. . ... ... ... : ... .. . ... ... ...
ROW 33 : ... .. . ... ... ... : ... .. . ... ... ... : ... .. . ... ... ... : ... .. . ... ... ... : ... .. . ... ... ... : ... .. . ... ... ... : ... .. . ... ... ... : ... .. . ... ... ...
ROW 34 : ... .. . ... ... ... : ... .. . ... ... ... : ... .. . ... ... ... : ... .. . ... ... ... : ... .. . ... ... ... : ... .. . ... ... ... : ... .. . ... ... ... : ... .. . ... ... ...
ROW 35 : ... .. . ... ... ... : ... .. . ... ... ... : ... .. . ... ... ... : ... .. . ... ... ... : ... .. . ... ... ... : ... .. . ... ... ... : ... .. . ... ... ... : ... .. . ... ... ...
ROW 36 : ... .. . ... ... ... : ... .. . ... ... ... : ... .. . ... ... ... : ... .. . ... ... ... : ... .. . ... ... ... : ... .. . ... ... ... : ... .. . ... ... ... : ... .. . ... ... ...
ROW 37 : ... .. . ... ... ... : ... .. . ... ... ... : ... .. . ... ... ... : ... .. . ... ... ... : ... .. . ... ... ... : ... .. . ... ... ... : ... .. . ... ... ... : ... .. . ... ... ...
ROW 38 : ... .. . ... ... ... : ... .. . ... ... ... : ... .. . ... ... ... : ... .. . ... ... ... : ... .. . ... ... ... : ... .. . ... ... ... : ... .. . ... ... ... : ... .. . ... ... ...
ROW 39 : ... .. . ... ... ... : ... .. . ... ... ... : ... .. . ... ... ... : ... .. . ... ... ... : ... .. . ... ... ... : ... .. . ... ... ... : ... .. . ... ... ... : ... .. . ... ... ...
ROW 3A : ... .. . ... ... ... : ... .. . ... ... ... : ... .. . ... ... ... : ... .. . ... ... ... : ... .. . ... ... ... : ... .. . ... ... ... : ... .. . ... ... ... : ... .. . ... ... ...
ROW 3B : ... .. . ... ... ... : ... .. . ... ... ... : ... .. . ... ... ... : ... .. . ... ... ... : ... .. . ... ... ... : ... .. . ... ... ... : ... .. . ... ... ... : ... .. . ... ... ...
ROW 3C : ... .. . ... ... ... : ... .. . ... ... ... : ... .. . ... ... ... : ... .. . ... ... ... : ... .. . ... ... ... : ... .. . ... ... ... : ... .. . ... ... ... : ... .. . ... ... ...
ROW 3D : ... .. . ... ... ... : ... .. . ... ... ... : ... .. . ... ... ... : ... .. . ... ... ... : ... .. . ... ... ... : ... .. . ... ... ... : ... .. . ... ... ... : ... .. . ... ... ...
ROW 3E : ... .. . ... ... ... : ... .. . ... ... ... : ... .. . ... ... ... : ... .. . ... ... ... : ... .. . ... ... ... : ... .. . ... ... ... : ... .. . ... ... ... : ... .. . ... ... ...
ROW 3F : ... .. . ... ... ... : ... .. . ... ... ... : ... .. . ... ... ... : ... .. . ... ... ... : ... .. . ... ... ... : ... .. . ... ... ... : ... .. . ... ... ... : ... .. . ... ... ...
ROW 40 : ... .. . ... ... ... : ... .. . ... ... ... : ... .. . ... ... ... : ... .. . ... ... ... : ... .. . ... ... ... : ... .. . ... ... ... : ... .. . ... ... ... : ... .. . ... ... ...
ROW 41 : ... .. . ... ... ... : ... .. . ... ... ... : ... .. . ... ... ... : ... .. . ... ... ... : ... .. . ... ... ... : ... .. . ... ... ... : ... .. . ... ... ... : ... .. . ... ... ...
ROW 42 : ... .. . ... ... ... : ... .. . ... ... ... : ... .. . ... ... ... : ... .. . ... ... ... : ... .. . ... ... ... : ... .. . ... ... ... : ... .. . ... ... ... : ... .. . ... ... ...
ROW 43 : ... .. . ... ... ... : ... .. . ... ... ... : ... .. . ... ... ... : ... .. . ... ... ... : ... .. . ... ... ... : ... .. . ... ... ... : ... .. . ... ... ... : ... .. . ... ... ...
ROW 44 : ... .. . ... ... ... : ... .. . ... ... ... : ... .. . ... ... ... : ... .. . ... ... ... : ... .. . ... ... ... : ... .. . ... ... ... : ... .. . ... ... ... : ... .. . ... ... ...
ROW 45 : ... .. . ... ... ... : ... .. . ... ... ... : ... .. . ... ... ... : ... .. . ... ... ... : ... .. . ... ... ... : ... .. . ... ... ... : ... .. . ... ... ... : ... .. . ... ... ...
ROW 46 : ... .. . ... ... ... : ... .. . ... ... ... : ... .. . ... ... ... : ... .. . ... ... ... : ... .. . ... ... ... : ... .. . ... ... ... : ... .. . ... ... ... : ... .. . ... ... ...
ROW 47 : ... .. . ... ... ... : ... .. . ... ... ... : ... .. . ... ... ... : ... .. . ... ... ... : ... .. . ... ... ... : ... .. . ... ... ... : ... .. . ... ... ... : ... .. . ... ... ...
ROW 48 : ... .. . ... ... ... : ... .. . ... ... ... : ... .. . ... ... ... : ... .. . ... ... ... : ... .. . ... ... ... : ... .. . ... ... ... : ... .. . ... ... ... : ... .. . ... ... ...
ROW 49 : ... .. . ... ... ... : ... .. . ... ... ... : ... .. . ... ... ... : ... .. . ... ... ... : ... .. . ... ... ... : ... .. . ... ... ... : ... .. . ... ... ... : ... .. . ... ... ...
ROW 4A : ... .. . ... ... ... : ... .. . ... ... ... : ... .. . ... ... ... : ... .. . ... ... ... : ... .. . ... ... ... : ... .. . ... ... ... : ... .. . ... ... ... : ... .. . ... ... ...
ROW 4B : ... .. . ... ... ... : ... .. . ... ... ... : ... .. . ... ... ... : ... .. . ... ... ... : ... .. . ... ... ... : ... .. . ... ... ... : ... .. . ... ... ... : ... .. . ... ... ...
ROW 4C : ... .. . ... ... ... : ... .. . ... ... ... : ... .. . ... ... ... : ... .. . ... ... ... : ... .. . ... ... ... : ... .. . ... ... ... : ... .. . ... ... ... : ... .. . ... ... ...
ROW 4D : ... .. . ... ... ... : ... .. . ... ... ... : ... .. . ... ... ... : ... .. . ... ... ... : ... .. . ... ... ... : ... .. . ... ... ... : ... .. . ... ... ... : ... .. . ... ... ...
ROW 4E : ... .. . ... ... ... : ... .. . ... ... ... : ... .. . ... ... ... : ... .. . ... ... ... : ... .. . ... ... ... : ... .. . ... ... ... : ... .. . ... ... ... : ... .. . ... ... ...
ROW 4F : ... .. . ... ... ... : ... .. . ... ... ... : ... .. . ... ... ... : ... .. . ... ... ... : ... .. . ... ... ... : ... .. . ... ... ... : ... .. . ... ... ... : ... .. . ... ... ...
ROW 50 : ... .. . ... ... ... : ... .. . ... ... ... : ... .. . ... ... ... : ... .. . ... ... ... : ... .. . ... ... ... : ... .. . ... ... ... : ... .. . ... ... ... : ... .. . ... ... ...
ROW 51 : ... .. . ... ... ... : ... .. . ... ... ... : ... .. . ... ... ... : ... .. . ... ... ... : ... .. . ... ... ... : ... .. . ... ... ... : ... .. . ... ... ... : ... .. . ... ... ...
ROW 52 : ... .. . ... ... ... : ... .. . ... ... ... : ... .. . ... ... ... : ... .. . ... ... ... : ... .. . ... ... ... : ... .. . ... ... ... : ... .. . ... ... ... : ... .. . ... ... ...
ROW 53 : ... .. . ... ... ... : ... .. . ... ... ... : ... .. . ... ... ... : ... .. . ... ... ... : ... .. . ... ... ... : ... .. . ... ... ... : ... .. . ... ... ... : ... .. . ... ... ...
ROW 54 : ... .. . ... ... ... : ... .. . ... ... ... : ... .. . ... ... ... : ... .. . ... ... ... : ... .. . ... ... ... : ... .. . ... ... ... : ... .. . ... ... ... : ... .. . ... ... ...
ROW 55 : ... .. . ... ... ... : ... .. . ... ... ... : ... .. . ... ... ... : ... .. . ... ... ... : ... .. . ... ... ... : ... .. . ... ... ... : ... .. . ... ... ... : ... .. . ... ... ...
ROW 56 : ... .. . ... ... ... : ... .. . ... ... ... : ... .. . ... ... ... : ... .. . ... ... ... : ... .. . ... ... ... : ... .. . ... ... ... : ... .. . ... ... ... : ... .. . ... ... ...
ROW 57 : ... .. . ... ... ... : ... .. . ... ... ... : ... .. . ... ... ... : ... .. . ... ... ... : ... .. . ... ... ... : ... .. . ... ... ... : ... .. . ... ... ... : ... .. . ... ... ...
ROW 58 : ... .. . ... ... ... : ... .. . ... ... ... : ... .. . ... ... ... : ... .. . ... ... ... : ... .. . ... ... ... : ... .. . ... ... ... : ... .. . ... ... ... : ... .. . ... ... ...
ROW 59 : ... .. . ... ... ... : ... .. . ... ... ... : ... .. . ... ... ... : ... .. . ... ... ... : ... .. . ... ... ... : ... .. . ... ... ... : ... .. . ... ... ... : ... .. . ... ... ...
ROW 5A : ... .. . ... ... ... : ... .. . ... ... ... : ... .. . ... ... ... : ... .. . ... ... ... : ... .. . ... ... ... : ... .. . ... ... ... : ... .. . ... ... ... : ... .. . ... ... ...
ROW 5B : ... .. . ... ... ... : ... .. . ... ... ... : ... .. . ... ... ... : ... .. . ... ... ... : ... .. . ... ... ... : ... .. . ... ... ... : ... .. . ... ... ... : ... .. . ... ... ...
ROW 5C : ... .. . ... ... ... : ... .. . ... ... ... : ... .. . ... ... ... : ... .. . ... ... ... : ... .. . ... ... ... : ... .. . ... ... ... : ... .. . ... ... ... : ... .. . ... ... ...
ROW 5D : ... .. . ... ... ... : ... .. . ... ... ... : ... .. . ... ... ... : ... .. . ... ... ... : ... .. . ... ... ... : ... .. . ... ... ... : ... .. . ... ... ... : ... .. . ... ... ...
ROW 5E : ... .. . ... ... ... : ... .. . ... ... ... : ... .. . ... ... ... : ... .. . ... ... ... : ... .. . ... ... ... : ... .. . ... ... ... : ... .. . ... ... ... : ... .. . ... ... ...
ROW 5F : ... .. . ... ... ... : ... .. . ... ... ... : ... .. . ... ... ... : ... .. . ... ... ... : ... .. . ... ... ... : ... .. . ... ... ... : ... .. . ... ... ... : ... .. . ... ... ...
ROW 60 : ... .. . ... ... ... : ... .. . ... ... ... : ... .. . ... ... ... : ... .. . ... ... ... : ... .. . ... ... ... : ... .. . ... ... ... : ... .. . ... ... ... : ... .. . ... ... ...
ROW 61 : ... .. . ... ... ... : ... .. . ... ... ... : ... .. . ... ... ... : ... .. . ... ... ... : ... .. . ... ... ... : ... .. . ... ... ... : ... .. . ... ... ... : ... .. . ... ... ...
ROW 62 : ... .. . ... ... ... : ... .. . ... ... ... : ... .. . ... ... ... : ... .. . ... ... ... : ... .. . ... ... ... : ... .. . ... ... ... : ... .. . ... ... ... : ... .. . ... ... ...
ROW 63 : ... .. . ... ... ... : ... .. . ... ... ... : ... .. . ... ... ... : ... .. . ... ... ... : ... .. . ... ... ... : ... .. . ... ... ... : ... .. . ... ... ... : ... .. . ... ... ...
ROW 64 : ... .. . ... ... ... : ... .. . ... ... ... : ... .. . ... ... ... : ... .. . ... ... ... : ... .. . ... ... ... : ... .. . ... ... ... : ... .. . ... ... ... : ... .. . ... ... ...
ROW 65 : ... .. . ... ... ... : ... .. . ... ... ... : ... .. . ... ... ... : ... .. . ... ... ... : ... .. . ... ... ... : ... .. . ... ... ... : ... .. . ... ... ... : ... .. . ... ... ...
ROW 66 : ... .. . ... ... ... : ... .. . ... ... ... : ... .. . ... ... ... : ... .. . ... ... ... : ... .. . ... ... ... : ... .. . ... ... ... : ... .. . ... ... ... : ... .. . ... ... ...
ROW 67 : ... .. . ... ... ... : ... .. . ... ... ... : ... .. . ... ... ... : ... .. . ... ... ... : ... .. . ... ... ... : ... .. . ... ... ... : ... .. . ... ... ... : ... .. . ... ... ...
ROW 68 : ... .. . ... ... ... : ... .. . ... ... ... : ... .. . ... ... ... : ... .. . ... ... ... : ... .. . ... ... ... : ... .. . ... ... ... : ... .. . ... ... ... : ... .. . ... ... ...
ROW 69 : ... .. . ... ... ... : ... .. . ... ... ... : ... .. . ... ... ... : ... .. . ... ... ... : ... .. . ... ... ... : ... .. . ... ... ... : ... .. . ... ... ... : ... .. . ... ... ...
ROW 6A : ... .. . ... ... ... : ... .. . ... ... ... : ... .. . ... ... ... : ... .. . ... ... ... : ... .. . ... ... ... : ... .. . ... ... ... : ... .. . ... ... ... : ... .. . ... ... ...
ROW 6B : ... .. . ... ... ... : ... .. . ... ... ... : ... .. . ... ... ... : ... .. . ... ... ... : ... .. . ... ... ... : ... .. . ... ... ... : ... .. . ... ... ... : ... .. . ... ... ...
ROW 6C : ... .. . ... ... ... : ... .. . ... ... ... : ... .. . ... ... ... : ... .. . ... ... ... : ... .. . ... ... ... : ... .. . ... ... ... : ... .. . ... ... ... : ... .. . ... ... ...
ROW 6D : ... .. . ... ... ... : ... .. . ... ... ... : ... .. . ... ... ... : ... .. . ... ... ... : ... .. . ... ... ... : ... .. . ... ... ... : ... .. . ... ... ... : ... .. . ... ... ...
ROW 6E : ... .. . ... ... ... : ... .. . ... ... ... : ... .. . ... ... ... : ... .. . ... ... ... : ... .. . ... ... ... : ... .. . ... ... ... : ... .. . ... ... ... : ... .. . ... ... ...
ROW 6F : ... .. . ... ... ... : ... .. . ... ... ... : ... .. . ... ... ... : ... .. . ... ... ... : ... .. . ... ... ... : ... .. . ... ... ... : ... .. . ... ... ... : ... .. . ... ... ...
ROW 70 : ... .. . ... ... ... : ... .. . ... ... ... : ... .. . ... ... ... : ... .. . ... ... ... : ... .. . ... ... ... : ... .. . ... ... ... : ... .. . ... ... ... : ... .. . ... ... ...
ROW 71 : ... .. . ... ... ... : ... .. . ... ... ... : ... .. . ... ... ... : ... .. . ... ... ... : ... .. . ... ... ... : ... .. . ... ... ... : ... .. . ... ... ... : ... .. . ... ... ...
ROW 72 : ... .. . ... ... ... : ... .. . ... ... ... : ... .. . ... ... ... : ... .. . ... ... ... : ... .. . ... ... ... : ... .. . ... ... ... : ... .. . ... ... ... : ... .. . ... ... ...
ROW 73 : ... .. . ... ... ... : ... .. . ... ... ... : ... .. . ... ... ... : ... .. . ... ... ... : ... .. . ... ... ... : ... .. . ... ... ... : ... .. . ... ... ... : ... .. . ... ... ...
ROW 74 : ... .. . ... ... ... : ... .. . ... ... ... : ... .. . ... ... ... : ... .. . ... ... ... : ... .. . ... ... ... : ... .. . ... ... ... : ... .. . ... ... ... : ... .. . ... ... ...
ROW 75 : ... .. . ... ... ... : ... .. . ... ... ... : ... .. . ... ... ... : ... .. . ... ... ... : ... .. . ... ... ... : ... .. . ... ... ... : ... .. . ... ... ... : ... .. . ... ... ...
ROW 76 : ... .. . ... ... ... : ... .. . ... ... ... : ... .. . ... ... ... : ... .. . ... ... ... : ... .. . ... ... ... : ... .. . ... ... ... : ... .. . ... ... ... : ... .. . ... ... ...
ROW 77 : ... .. . ... ... ... : ... .. . ... ... ... : ... .. . ... ... ... : ... .. . ... ... ... : ... .. . ... ... ... : ... .. . ... ... ... : ... .. . ... ... ... : ... .. . ... ... ...
ROW 78 : ... .. . ... ... ... : ... .. . ... ... ... : ... .. . ... ... ... : ... .. . ... ... ... : ... .. . ... ... ... : ... .. . ... ... ... : ... .. . ... ... ... : ... .. . ... ... ...
ROW 79 : ... .. . ... ... ... : ... .. . ... ... ... : ... .. . ... ... ... : ... .. . ... ... ... : ... .. . ... ... ... : ... .. . ... ... ... : ... .. . ... ... ... : ... .. . ... ... ...
ROW 7A : ... .. . ... ... ... : ... .. . ... ... ... : ... .. . ... ... ... : ... .. . ... ... ... : ... .. . ... ... ... : ... .. . ... ... ... : ... .. . ... ... ... : ... .. . ... ... ...
ROW 7B : ... .. . ... ... ... : ... .. . ... ... ... : ... .. . ... ... ... : ... .. . ... ... ... : ... .. . ... ... ... : ... .. . ... ... ... : ... .. . ... ... ... : ... .. . ... ... ...
ROW 7C : ... .. . ... ... ... : ... .. . ... ... ... : ... .. . ... ... ... : ... .. . ... ... ... : ... .. . ... ... ... : ... .. . ... ... ... : ... .. . ... ... ... : ... .. . ... ... ...
ROW 7D : ... .. . ... ... ... : ... .. . ... ... ... : ... .. . ... ... ... : ... .. . ... ... ... : ... .. . ... ... ... : ... .. . ... ... ... : ... .. . ... ... ... : ... .. . ... ... ...
ROW 7E : ... .. . ... ... ... : ... .. . ... ... ... : ... .. . ... ... ... : ... .. . ... ... ... : ... .. . ... ... ... : ... .. . ... ... ... : ... .. . ... ... ... : ... .. . ... ... ...
ROW 7F : ... .. . ... ... ... : ... .. . ... ... ... : ... .. . ... ... ... : ... .. . ... ... ... : ... .. . ... ... ... : ... .. . ... ... ... : ... .. . ... ... ... : ... .. . ... ... ...
ROW 80 : ... .. . ... ... ... : ... .. . ... ... ... : ... .. . ... ... ... : ... .. . ... ... ... : ... .. . ... ... ... : ... .. . ... ... ... : ... .. . ... ... ... : ... .. . ... ... ...
ROW 81 : ... .. . ... ... ... : ... .. . ... ... ... : ... .. . ... ... ... : ... .. . ... ... ... : ... .. . ... ... ... : ... .. . ... ... ... : ... .. . ... ... ... : ... .. . ... ... ...
ROW 82 : ... .. . ... ... ... : ... .. . ... ... ... : ... .. . ... ... ... : ... .. . ... ... ... : ... .. . ... ... ... : ... .. . ... ... ... : ... .. . ... ... ... : ... .. . ... ... ...
ROW 83 : ... .. . ... ... ... : ... .. . ... ... ... : ... .. . ... ... ... : ... .. . ... ... ... : ... .. . ... ... ... : ... .. . ... ... ... : ... .. . ... ... ... : ... .. . ... ... ...
ROW 84 : ... .. . ... ... ... : ... .. . ... ... ... : ... .. . ... ... ... : ... .. . ... ... ... : ... .. . ... ... ... : ... .. . ... ... ... : ... .. . ... ... ... : ... .. . ... ... ...
ROW 85 : ... .. . ... ... ... : ... .. . ... ... ... : ... .. . ... ... ... : ... .. . ... ... ... : ... .. . ... ... ... : ... .. . ... ... ... : ... .. . ... ... ... : ... .. . ... ... ...
ROW 86 : ... .. . ... ... ... : ... .. . ... ... ... : ... .. . ... ... ... : ... .. . ... ... ... : ... .. . ... ... ... : ... .. . ... ... ... : ... .. . ... ... ... : ... .. . ... ... ...
ROW 87 : ... .. . ... ... ... : ... .. . ... ... ... : ... .. . ... ... ... : ... .. . ... ... ... : ... .. . ... ... ... : ... .. . ... ... ... : ... .. . ... ... ... : ... .. . ... ... ...
ROW 88 : ... .. . ... ... ... : ... .. . ... ... ... : ... .. . ... ... ... : ... .. . ... ... ... : ... .. . ... ... ... : ... .. . ... ... ... : ... .. . ... ... ... : ... .. . ... ... ...
ROW 89 : ... .. . ... ... ... : ... .. . ... ... ... : ... .. . ... ... ... : ... .. . ... ... ... : ... .. . ... ... ... : ... .. . ... ... ... : ... .. . ... ... ... : ... .. . ... ... ...
ROW 8A : ... .. . ... ... ... : ... .. . ... ... ... : ... .. . ... ... ... : ... .. . ... ... ... : ... .. . ... ... ... : ... .. . ... ... ... : ... .. . ... ... ... : ... .. . ... ... ...
ROW 8B : ... .. . ... ... ... : ... .. . ... ... ... : ... .. . ... ... ... : ... .. . ... ... ... : ... .. . ... ... ... : ... .. . ... ... ... : ... .. . ... ... ... : ... .. . ... ... ...
ROW 8C : ... .. . ... ... ... : ... .. . ... ... ... : ... .. . ... ... ... : ... .. . ... ... ... : ... .. . ... ... ... : ... .. . ... ... ... : ... .. . ... ... ... : ... .. . ... ... ...
ROW 8D : ... .. . ... ... ... : ... .. . ... ... ... : ... .. . ... ... ... : ... .. . ... ... ... : ... .. . ... ... ... : ... .. . ... ... ... : ... .. . ... ... ... : ... .. . ... ... ...
ROW 8E : ... .. . ... ... ... : ... .. . ... ... ... : ... .. . ... ... ... : ... .. . ... ... ... : ... .. . ... ... ... : ... .. . ... ... ... : ... .. . ... ... ... : ... .. . ... ... ...
ROW 8F : ... .. . ... ... ... : ... .. . ... ... ... : ... .. . ... ... ... : ... .. . ... ... ... : ... .. . ... ... ... : ... .. . ... ... ... : ... .. . ... ... ... : ... .. . ... ... ...
ROW 90 : ... .. . ... ... ... : ... .. . ... ... ... : ... .. . ... ... ... : ... .. . ... ... ... : ... .. . ... ... ... : ... .. . ... ... ... : ... .. . ... ... ... : ... .. . ... ... ...
ROW 91 : ... .. . ... ... ... : ... .. . ... ... ... : ... .. . ... ... ... : ... .. . ... ... ... : ... .. . ... ... ... : ... .. . ... ... ... : ... .. . ... ... ... : ... .. . ... ... ...
ROW 92 : ... .. . ... ... ... : ... .. . ... ... ... : ... .. . ... ... ... : ... .. . ... ... ... : ... .. . ... ... ... : ... .. . ... ... ... : ... .. . ... ... ... : ... .. . ... ... ...
ROW 93 : ... .. . ... ... ... : ... .. . ... ... ... : ... .. . ... ... ... : ... .. . ... ... ... : ... .. . ... ... ... : ... .. . ... ... ... : ... .. . ... ... ... : ... .. . ... ... ...
ROW 94 : ... .. . ... ... ... : ... .. . ... ... ... : ... .. . ... ... ... : ... .. . ... ... ... : ... .. . ... ... ... : ... .. . ... ... ... : ... .. . ... ... ... : ... .. . ... ... ...
ROW 95 : ... .. . ... ... ... : ... .. . ... ... ... : ... .. . ... ... ... : ... .. . ... ... ... : ... .. . ... ... ... : ... .. . ... ... ... : ... .. . ... ... ... : ... .. . ... ... ...
ROW 96 : ... .. . ... ... ... : ... .. . ... ... ... : ... .. . ... ... ... : ... .. . ... ... ... : ... .. . ... ... ... : ... .. . ... ... ... : ... .. . ... ... ... : ... .. . ... ... ...
ROW 97 : ... .. . ... ... ... : ... .. . ... ... ... : ... .. . ... ... ... : ... .. . ... ... ... : ... .. . ... ... ... : ... .. . ... ... ... : ... .. . ... ... ... : ... .. . ... ... ...
ROW 98 : ... .. . ... ... ... : ... .. . ... ... ... : ... .. . ... ... ... : ... .. . ... ... ... : ... .. . ... ... ... : ... .. . ... ... ... : ... .. . ... ... ... : ... .. . ... ... ...
ROW 99 : ... .. . ... ... ... : ... .. . ... ... ... : ... .. . ... ... ... : ... .. . ... ... ... : ... .. . ... ... ... : ... .. . ... ... ... : ... .. . ... ... ... : ... .. . ... ... ...
ROW 9A : ... .. . ... ... ... : ... .. . ... ... ... : ... .. . ... ... ... : ... .. . ... ... ... : ... .. . ... ... ... : ... .. . ... ... ... : ... .. . ... ... ... : ... .. . ... ... ...
ROW 9B : ... .. . ... ... ... : ... .. . ... ... ... : ... .. . ... ... ... : ... .. . ... ... ... : ... .. . ... ... ... : ... .. . ... ... ... : ... .. . ... ... ... : ... .. . ... ... ...
ROW 9C : ... .. . ... ... ... : ... .. . ... ... ... : ... .. . ... ... ... : ... .. . ... ... ... : ... .. . ... ... ... : ... .. . ... ... ... : ... .. . ... ... ... : ... .. . ... ... ...
ROW 9D : ... .. . ... ... ... : ... .. . ... ... ... : ... .. . ... ... ... : ... .. . ... ... ... : ... .. . ... ... ... : ... .. . ... ... ... : ... .. . ... ... ... : ... .. . ... ... ...
ROW 9E : ... .. . ... ... ... : ... .. . ... ... ... : ... .. . ... ... ... : ... .. . ... ... ... : ... .. . ... ... ... : ... .. . ... ... ... : ... .. . ... ... ... : ... .. . ... ... ...
ROW 9F : ... .. . ... ... ... : ... .. . ... ... ... : ... .. . ... ... ... : ... .. . ... ... ... : ... .. . ... ... ... : ... .. . ... ... ... : ... .. . ... ... ... : ... .. . ... ... ...
ROW A0 : ... .. . ... ... ... : ... .. . ... ... ... : ... .. . ... ... ... : ... .. . ... ... ... : ... .. . ... ... ... : ... .. . ... ... ... : ... .. . ... ... ... : ... .. . ... ... ...
ROW A1 : ... .. . ... ... ... : ... .. . ... ... ... : ... .. . ... ... ... : ... .. . ... ... ... : ... .. . ... ... ... : ... .. . ... ... ... : ... .. . ... ... ... : ... .. . ... ... ...
ROW A2 : ... .. . ... ... ... : ... .. . ... ... ... : ... .. . ... ... ... : ... .. . ... ... ... : ... .. . ... ... ... : ... .. . ... ... ... : ... .. . ... ... ... : ... .. . ... ... ...
ROW A3 : ... .. . ... ... ... : ... .. . ... ... ... : ... .. . ... ... ... : ... .. . ... ... ... : ... .. . ... ... ... : ... .. . ... ... ... : ... .. . ... ... ... : ... .. . ... ... ...
ROW A4 : ... .. . ... ... ... : ... .. . ... ... ... : ... .. . ... ... ... : ... .. . ... ... ... : ... .. . ... ... ... : ... .. . ... ... ... : ... .. . ... ... ... : ... .. . ... ... ...
ROW A5 : ... .. . ... ... ... : ... .. . ... ... ... : ... .. . ... ... ... : ... .. . ... ... ... : ... .. . ... ... ... : ... .. . ... ... ... : ... .. . ... ... ... : ... .. . ... ... ...
ROW A6 : ... .. . ... ... ... : ... .. . ... ... ... : ... .. . ... ... ... : ... .. . ... ... ... : ... .. . ... ... ... : ... .. . ... ... ... : ... .. . ... ... ... : ... .. . ... ... ...
ROW A7 : ... .. . ... ... ... : ... .. . ... ... ... : ... .. . ... ... ... : ... .. . ... ... ... : ... .. . ... ... ... : ... .. . ... ... ... : ... .. . ... ... ... : ... .. . ... ... ...
ROW A8 : ... .. . ... ... ... : ... .. . ... ... ... : ... .. . ... ... ... : ... .. . ... ... ... : ... .. . ... ... ... : ... .. . ... ... ... : ... .. . ... ... ... : ... .. . ... ... ...
ROW A9 : ... .. . ... ... ... : ... .. . ... ... ... : ... .. . ... ... ... : ... .. . ... ... ... : ... .. . ... ... ... : ... .. . ... ... ... : ... .. . ... ... ... : ... .. . ... ... ...
ROW AA : ... .. . ... ... ... : ... .. . ... ... ... : ... .. . ... ... ... : ... .. . ... ... ... : ... .. . ... ... ... : ... .. . ... ... ... : ... .. . ... ... ... : ... .. . ... ... ...
ROW AB : ... .. . ... ... ... : ... .. . ... ... ... : ... .. . ... ... ... : ... .. . ... ... ... : ... .. . ... ... ... : ... .. . ... ... ... : ... .. . ... ... ... : ... .. . ... ... ...
ROW AC : ... .. . ... ... ... : ... .. . ... ... ... : ... .. . ... ... ... : ... .. . ... ... ... : ... .. . ... ... ... : ... .. . ... ... ... : ... .. . ... ... ... : ... .. . ... ... ...
ROW AD : ... .. . ... ... ... : ... .. . ... ... ... : ... .. . ... ... ... : ... .. . ... ... ... : ... .. . ... ... ... : ... .. . ... ... ... : ... .. . ... ... ... : ... .. . ... ... ...
ROW AE : ... .. . ... ... ... : ... .. . ... ... ... : ... .. . ... ... ... : ... .. . ... ... ... : ... .. . ... ... ... : ... .. . ... ... ... : ... .. . ... ... ... : ... .. . ... ... ...
ROW AF : ... .. . ... ... ... : ... .. . ... ... ... : ... .. . ... ... ... : ... .. . ... ... ... : ... .. . ... ... ... : ... .. . ... ... ... : ... .. . ... ... ... : ... .. . ... ... ...
ROW B0 : ... .. . ... ... ... : ... .. . ... ... ... : ... .. . ... ... ... : ... .. . ... ... ... : ... .. . ... ... ... : ... .. . ... ... ... : ... .. . ... ... ... : ... .. . ... ... ...
ROW B1 : ... .. . ... ... ... : ... .. . ... ... ... : ... .. . ... ... ... : ... .. . ... ... ... : ... .. . ... ... ... : ... .. . ... ... ... : ... .. . ... ... ... : ... .. . ... ... ...
ROW B2 : ... .. . ... ... ... : ... .. . ... ... ... : ... .. . ... ... ... : ... .. . ... ... ... : ... .. . ... ... ... : ... .. . ... ... ... : ... .. . ... ... ... : ... .. . ... ... ...
ROW B3 : ... .. . ... ... ... : ... .. . ... ... ... : ... .. . ... ... ... : ... .. . ... ... ... : ... .. . ... ... ... : ... .. . ... ... ... : ... .. . ... ... ... : ... .. . ... ... ...
ROW B4 : ... .. . ... ... ... : ... .. . ... ... ... : ... .. . ... ... ... : ... .. . ... ... ... : ... .. . ... ... ... : ... .. . ... ... ... : ... .. . ... ... ... : ... .. . ... ... ...
ROW B5 : ... .. . ... ... ... : ... .. . ... ... ... : ... .. . ... ... ... : ... .. . ... ... ... : ... .. . ... ... ... : ... .. . ... ... ... : ... .. . ... ... ... : ... .. . ... ... ...
ROW B6 : ... .. . ... ... ... : ... .. . ... ... ... : ... .. . ... ... ... : ... .. . ... ... ... : ... .. . ... ... ... : ... .. . ... ... ... : ... .. . ... ... ... : ... .. . ... ... ...
ROW B7 : ... .. . ... ... ... : ... .. . ... ... ... : ... .. . ... ... ... : ... .. . ... ... ... : ... .. . ... ... ... : ... .. . ... ... ... : ... .. . ... ... ... : ... .. . ... ... ...
ROW B8 : ... .. . ... ... ... : ... .. . ... ... ... : ... .. . ... ... ... : ... .. . ... ... ... : ... .. . ... ... ... : ... .. . ... ... ... : ... .. . ... ... ... : ... .. . ... ... ...
ROW B9 : ... .. . ... ... ... : ... .. . ... ... ... : ... .. . ... ... ... : ... .. . ... ... ... : ... .. . ... ... ... : ... .. . ... ... ... : ... .. . ... ... ... : ... .. . ... ... ...
ROW BA : ... .. . ... ... ... : ... .. . ... ... ... : ... .. . ... ... ... : ... .. . ... ... ... : ... .. . ... ... ... : ... .. . ... ... ... : ... .. . ... ... ... : ... .. . ... ... ...
ROW BB : ... .. . ... ... ... : ... .. . ... ... ... : ... .. . ... ... ... : ... .. . ... ... ... : ... .. . ... ... ... : ... .. . ... ... ... : ... .. . ... ... ... : ... .. . ... ... ...
ROW BC : ... .. . ... ... ... : ... .. . ... ... ... : ... .. . ... ... ... : ... .. . ... ... ... : ... .. . ... ... ... : ... .. . ... ... ... : ... .. . ... ... ... : ... .. . ... ... ...
ROW BD : ... .. . ... ... ... : ... .. . ... ... ... : ... .. . ... ... ... : ... .. . ... ... ... : ... .. . ... ... ... : ... .. . ... ... ... : ... .. . ... ... ... : ... .. . ... ... ...
ROW BE : ... .. . ... ... ... : ... .. . ... ... ... : ... .. . ... ... ... : ... .. . ... ... ... : ... .. . ... ... ... : ... .. . ... ... ... : ... .. . ... ... ... : ... .. . ... ... ...
ROW BF : ... .. . ... ... ... : ... .. . ... ... ... : ... .. . ... ... ... : ... .. . ... ... ... : ... .. . ... ... ... : ... .. . ... ... ... : ... .. . ... ... ... : ... .. . ... ... ...
ROW C0 : ... .. . ... ... ... : ... .. . ... ... ... : ... .. . ... ... ... : ... .. . ... ... ... : ... .. . ... ... ... : ... .. . ... ... ... : ... .. . ... ... ... : ... .. . ... ... ...
ROW C1 : ... .. . ... ... ... : ... .. . ... ... ... : ... .. . ... ... ... : ... .. . ... ... ... : ... .. . ... ... ... : ... .. . ... ... ... : ... .. . ... ... ... : ... .. . ... ... ...
ROW C2 : ... .. . ... ... ... : ... .. . ... ... ... : ... .. . ... ... ... : ... .. . ... ... ... : ... .. . ... ... ... : ... .. . ... ... ... : ... .. . ... ... ... : ... .. . ... ... ...
ROW C3 : ... .. . ... ... ... : ... .. . ... ... ... : ... .. . ... ... ... : ... .. . ... ... ... : ... .. . ... ... ... : ... .. . ... ... ... : ... .. . ... ... ... : ... .. . ... ... ...
ROW C4 : ... .. . ... ... ... : ... .. . ... ... ... : ... .. . ... ... ... : ... .. . ... ... ... : ... .. . ... ... ... : ... .. . ... ... ... : ... .. . ... ... ... : ... .. . ... ... ...
ROW C5 : ... .. . ... ... ... : ... .. . ... ... ... : ... .. . ... ... ... : ... .. . ... ... ... : ... .. . ... ... ... : ... .. . ... ... ... : ... .. . ... ... ... : ... .. . ... ... ...
ROW C6 : ... .. . ... ... ... : ... .. . ... ... ... : ... .. . ... ... ... : ... .. . ... ... ... : ... .. . ... ... ... : ... .. . ... ... ... : ... .. . ... ... ... : ... .. . ... ... ...
ROW C7 : ... .. . ... ... ... : ... .. . ... ... ... : ... .. . ... ... ... : ... .. . ... ... ... : ... .. . ... ... ... : ... .. . ... ... ... : ... .. . ... ... ... : ... .. . ... ... ...
ROW C8 : ... .. . ... ... ... : ... .. . ... ... ... : ... .. . ... ... ... : ... .. . ... ... ... : ... .. . ... ... ... : ... .. . ... ... ... : ... .. . ... ... ... : ... .. . ... ... ...
ROW C9 : ... .. . ... ... ... : ... .. . ... ... ... : ... .. . ... ... ... : ... .. . ... ... ... : ... .. . ... ... ... : ... .. . ... ... ... : ... .. . ... ... ... : ... .. . ... ... ...
ROW CA : ... .. . ... ... ... : ... .. . ... ... ... : ... .. . ... ... ... : ... .. . ... ... ... : ... .. . ... ... ... : ... .. . ... ... ... : ... .. . ... ... ... : ... .. . ... ... ...
ROW CB : ... .. . ... ... ... : ... .. . ... ... ... : ... .. . ... ... ... : ... .. . ... ... ... : ... .. . ... ... ... : ... .. . ... ... ... : ... .. . ... ... ... : ... .. . ... ... ...
ROW CC : ... .. . ... ... ... : ... .. . ... ... ... : ... .. . ... ... ... : ... .. . ... ... ... : ... .. . ... ... ... : ... .. . ... ... ... : ... .. . ... ... ... : ... .. . ... ... ...
ROW CD : ... .. . ... ... ... : ... .. . ... ... ... : ... .. . ... ... ... : ... .. . ... ... ... : ... .. . ... ... ... : ... .. . ... ... ... : ... .. . ... ... ... : ... .. . ... ... ...
ROW CE : ... .. . ... ... ... : ... .. . ... ... ... : ... .. . ... ... ... : ... .. . ... ... ... : ... .. . ... ... ... : ... .. . ... ... ... : ... .. . ... ... ... : ... .. . ... ... ...
ROW CF : ... .. . ... ... ... : ... .. . ... ... ... : ... .. . ... ... ... : ... .. . ... ... ... : ... .. . ... ... ... : ... .. . ... ... ... : ... .. . ... ... ... : ... .. . ... ... ...
ROW D0 : ... .. . ... ... ... : ... .. . ... ... ... : ... .. . ... ... ... : ... .. . ... ... ... : ... .. . ... ... ... : ... .. . ... ... ... : ... .. . ... ... ... : ... .. . ... ... ...
ROW D1 : ... .. . ... ... ... : ... .. . ... ... ... : ... .. . ... ... ... : ... .. . ... ... ... : ... .. . ... ... ... : ... .. . ... ... ... : ... .. . ... ... ... : ... .. . ... ... ...
ROW D2 : ... .. . ... ... ... : ... .. . ... ... ... : ... .. . ... ... ... : ... .. . ... ... ... : ... .. . ... ... ... : ... .. . ... ... ... : ... .. . ... ... ... : ... .. . ... ... ...
ROW D3 : ... .. . ... ... ... : ... .. . ... ... ... : ... .. . ... ... ... : ... .. . ... ... ... : ... .. . ... ... ... : ... .. . ... ... ... : ... .. . ... ... ... : ... .. . ... ... ...
ROW D4 : ... .. . ... ... ... : ... .. . ... ... ... : ... .. . ... ... ... : ... .. . ... ... ... : ... .. . ... ... ... : ... .. . ... ... ... : ... .. . ... ... ... : ... .. . ... ... ...
ROW D5 : ... .. . ... ... ... : ... .. . ... ... ... : ... .. . ... ... ... : ... .. . ... ... ... : ... .. . ... ... ... : ... .. . ... ... ... : ... .. . ... ... ... : ... .. . ... ... ...
ROW D6 : ... .. . ... ... ... : ... .. . ... ... ... : ... .. . ... ... ... : ... .. . ... ... ... : ... .. . ... ... ... : ... .. . ... ... ... : ... .. . ... ... ... : ... .. . ... ... ...
ROW D7 : ... .. . ... ... ... : ... .. . ... ... ... : ... .. . ... ... ... : ... .. . ... ... ... : ... .. . ... ... ... : ... .. . ... ... ... : ... .. . ... ... ... : ... .. . ... ... ...
ROW D8 : ... .. . ... ... ... : ... .. . ... ... ... : ... .. . ... ... ... : ... .. . ... ... ... : ... .. . ... ... ... : ... .. . ... ... ... : ... .. . ... ... ... : ... .. . ... ... ...
ROW D9 : ... .. . ... ... ... : ... .. . ... ... ... : ... .. . ... ... ... : ... .. . ... ... ... : ... .. . ... ... ... : ... .. . ... ... ... : ... .. . ... ... ... : ... .. . ... ... ...
ROW DA : ... .. . ... ... ... : ... .. . ... ... ... : ... .. . ... ... ... : ... .. . ... ... ... : ... .. . ... ... ... : ... .. . ... ... ... : ... .. . ... ... ... : ... .. . ... ... ...
ROW DB : ... .. . ... ... ... : ... .. . ... ... ... : ... .. . ... ... ... : ... .. . ... ... ... : ... .. . ... ... ... : ... .. . ... ... ... : ... .. . ... ... ... : ... .. . ... ... ...
ROW DC : ... .. . ... ... ... : ... .. . ... ... ... : ... .. . ... ... ... : ... .. . ... ... ... : ... .. . ... ... ... : ... .. . ... ... ... : ... .. . ... ... ... : ... .. . ... ... ...
ROW DD : ... .. . ... ... ... : ... .. . ... ... ... : ... .. . ... ... ... : ... .. . ... ... ... : ... .. . ... ... ... : ... .. . ... ... ... : ... .. . ... ... ... : ... .. . ... ... ...
ROW DE : ... .. . ... ... ... : ... .. . ... ... ... : ... .. . ... ... ... : ... .. . ... ... ... : ... .. . ... ... ... : ... .. . ... ... ... : ... .. . ... ... ... : ... .. . ... ... ...
ROW DF : ... .. . ... ... ... : ... .. . ... ... ... : ... .. . ... ... ... : ... .. . ... ... ... : ... .. . ... ... ... : ... .. . ... ... ... : ... .. . ... ... ... : ... .. . ... ... ...
ROW E0 : ... .. . ... ... ... : ... .. . ... ... ... : ... .. . ... ... ... : ... .. . ... ... ... : ... .. . ... ... ... : ... .. . ... ... ... : ... .. . ... ... ... : ... .. . ... ... ...
ROW E1 : ... .. . ... ... ... : ... .. . ... ... ... : ... .. . ... ... ... : ... .. . ... ... ... : ... .. . ... ... ... : ... .. . ... ... ... : ... .. . ... ... ... : ... .. . ... ... ...
ROW E2 : ... .. . ... ... ... : ... .. . ... ... ... : ... .. . ... ... ... : ... .. . ... ... ... : ... .. . ... ... ... : ... .. . ... ... ... : ... .. . ... ... ... : ... .. . ... ... ...
ROW E3 : ... .. . ... ... ... : ... .. . ... ... ... : ... .. . ... ... ... : ... .. . ... ... ... : ... .. . ... ... ... : ... .. . ... ... ... : ... .. . ... ... ... : ... .. . ... ... ...
ROW E4 : ... .. . ... ... ... : ... .. . ... ... ... : ... .. . ... ... ... : ... .. . ... ... ... : ... .. . ... ... ... : ... .. . ... ... ... : ... .. . ... ... ... : ... .. . ... ... ...
ROW E5 : ... .. . ... ... ... : ... .. . ... ... ... : ... .. . ... ... ... : ... .. . ... ... ... : ... .. . ... ... ... : ... .. . ... ... ... : ... .. . ... ... ... : ... .. . ... ... ...
ROW E6 : ... .. . ... ... ... : ... .. . ... ... ... : ... .. . ... ... ... : ... .. . ... ... ... : ... .. . ... ... ... : ... .. . ... ... ... : ... .. . ... ... ... : ... .. . ... ... ...
ROW E7 : ... .. . ... ... ... : ... .. . ... ... ... : ... .. . ... ... ... : ... .. . ... ... ... : ... .. . ... ... ... : ... .. . ... ... ... : ... .. . ... ... ... : ... .. . ... ... ...
ROW E8 : ... .. . ... ... ... : ... .. . ... ... ... : ... .. . ... ... ... : ... .. . ... ... ... : ... .. . ... ... ... : ... .. . ... ... ... : ... .. . ... ... ... : ... .. . ... ... ...
ROW E9 : ... .. . ... ... ... : ... .. . ... ... ... : ... .. . ... ... ... : ... .. . ... ... ... : ... .. . ... ... ... : ... .. . ... ... ... : ... .. . ... ... ... : ... .. . ... ... ...
ROW EA : ... .. . ... ... ... : ... .. . ... ... ... : ... .. . ... ... ... : ... .. . ... ... ... : ... .. . ... ... ... : ... .. . ... ... ... : ... .. . ... ... ... : ... .. . ... ... ...
ROW EB : ... .. . ... ... ... : ... .. . ... ... ... : ... .. . ... ... ... : ... .. . ... ... ... : ... .. . ... ... ... : ... .. . ... ... ... : ... .. . ... ... ... : ... .. . ... ... ...
ROW EC : ... .. . ... ... ... : ... .. . ... ... ... : ... .. . ... ... ... : ... .. . ... ... ... : ... .. . ... ... ... : ... .. . ... ... ... : ... .. . ... ... ... : ... .. . ... ... ...
ROW ED : ... .. . ... ... ... : ... .. . ... ... ... : ... .. . ... ... ... : ... .. . ... ... ... : ... .. . ... ... ... : ... .. . ... ... ... : ... .. . ... ... ... : ... .. . ... ... ...
ROW EE : ... .. . ... ... ... : ... .. . ... ... ... : ... .. . ... ... ... : ... .. . ... ... ... : ... .. . ... ... ... : ... .. . ... ... ... : ... .. . ... ... ... : ... .. . ... ... ...
ROW EF : ... .. . ... ... ... : ... .. . ... ... ... : ... .. . ... ... ... : ... .. . ... ... ... : ... .. . ... ... ... : ... .. . ... ... ... : ... .. . ... ... ... : ... .. . ... ... ...
ROW F0 : ... .. . ... ... ... : ... .. . ... ... ... : ... .. . ... ... ... : ... .. . ... ... ... : ... .. . ... ... ... : ... .. . ... ... ... : ... .. . ... ... ... : ... .. . ... ... ...
ROW F1 : ... .. . ... ... ... : ... .. . ... ... ... : ... .. . ... ... ... : ... .. . ... ... ... : ... .. . ... ... ... : ... .. . ... ... ... : ... .. . ... ... ... : ... .. . ... ... ...
ROW F2 : ... .. . ... ... ... : ... .. . ... ... ... : ... .. . ... ... ... : ... .. . ... ... ... : ... .. . ... ... ... : ... .. . ... ... ... : ... .. . ... ... ... : ... .. . ... ... ...
ROW F3 : ... .. . ... ... ... : ... .. . ... ... ... : ... .. . ... ... ... : ... .. . ... ... ... : ... .. . ... ... ... : ... .. . ... ... ... : ... .. . ... ... ... : ... .. . ... ... ...
ROW F4 : ... .. . ... ... ... : ... .. . ... ... ... : ... .. . ... ... ... : ... .. . ... ... ... : ... .. . ... ... ... : ... .. . ... ... ... : ... .. . ... ... ... : ... .. . ... ... ...
ROW F5 : ... .. . ... ... ... : ... .. . ... ... ... : ... .. . ... ... ... : ... .. . ... ... ... : ... .. . ... ... ... : ... .. . ... ... ... : ... .. . ... ... ... : ... .. . ... ... ...
ROW F6 : ... .. . ... ... ... : ... .. . ... ... ... : ... .. . ... ... ... : ... .. . ... ... ... : ... .. . ... ... ... : ... .. . ... ... ... : ... .. . ... ... ... : ... .. . ... ... ...
ROW F7 : ... .. . ... ... ... : ... .. . ... ... ... : ... .. . ... ... ... : ... .. . ... ... ... : ... .. . ... ... ... : ... .. . ... ... ... : ... .. . ... ... ... : ... .. . ... ... ...
ROW F8 : ... .. . ... ... ... : ... .. . ... ... ... : ... .. . ... ... ... : ... .. . ... ... ... : ... .. . ... ... ... : ... .. . ... ... ... : ... .. . ... ... ... : ... .. . ... ... ...
ROW F9 : ... .. . ... ... ... : ... .. . ... ... ... : ... .. . ... ... ... : ... .. . ... ... ... : ... .. . ... ... ... : ... .. . ... ... ... : ... .. . ... ... ... : ... .. . ... ... ...
ROW FA : ... .. . ... ... ... : ... .. . ... ... ... : ... .. . ... ... ... : ... .. . ... ... ... : ... .. . ... ... ... : ... .. . ... ... ... : ... .. . ... ... ... : ... .. . ... ... ...
ROW FB : ... .. . ... ... ... : ... .. . ... ... ... : ... .. . ... ... ... : ... .. . ... ... ... : ... .. . ... ... ... : ... .. . ... ... ... : ... .. . ... ... ... : ... .. . ... ... ...
ROW FC : ... .. . ... ... ... : ... .. . ... ... ... : ... .. . ... ... ... : ... .. . ... ... ... : ... .. . ... ... ... : ... .. . ... ... ... : ... .. . ... ... ... : ... .. . ... ... ...
ROW FD : ... .. . ... ... ... : ... .. . ... ... ... : ... .. . ... ... ... : ... .. . ... ... ... : ... .. . ... ... ... : ... .. . ... ... ... : ... .. . ... ... ... : ... .. . ... ... ...
ROW FE : ... .. . ... ... ... : ... .. . ... ... ... : ... .. . ... ... ... : ... .. . ... ... ... : ... .. . ... ... ... : ... .. . ... ... ... : ... .. . ... ... ... : ... .. . ... ... ...
ROW FF : ... .. . ... ... ... : ... .. . ... ... ... : ... .. . ... ... ... : ... .. . ... ... ... : ... .. . ... ... ... : ... .. . ... ... ... : ... .. . ... ... ... : ... .. . ... ... ...

PATTERN 0E
ROW 00 : ... .. . ... ... ... : ... .. . ... ... ... : ... .. . ... ... ... : ... .. . ... ... ... : ... .. . ... ... ... : ... .. . ... ... ... : ... .. . ... ... ... : ... .. . ... ... ...
ROW 01 : ... .. . ... ... ... : ... .. . ... ... ... : ... .. . ... ... ... : ... .. . ... ... ... : ... .. . ... ... ... : ... .. . ... ... ... : ... .. . ... ... ... : ... .. . ... ... ...
ROW 02 : ... .. . ... ... ... : ... .. . ... ... ... : ... .. . ... ... ... : ... .. . ... ... ... : ... .. . ... ... ... : ... .. . ... ... ... : ... .. . ... ... ... : ... .. . ... ... ...
ROW 03 : ... .. . ... ... ... : ... .. . ... ... ... : ... .. . ... ... ... : ... .. . ... ... ... : ... .. . ... ... ... : ... .. . ... ... ... : ... .. . ... ... ... : ... .. . ... ... ...
ROW 04 : ... .. . ... ... ... : ... .. . ... ... ... : ... .. . ... ... ... : ... .. . ... ... ... : ... .. . ... ... ... : ... .. . ... ... ... : ... .. . ... ... ... : ... .. . ... ... ...
ROW 05 : ... .. . ... ... ... : ... .. . ... ... ... : ... .. . ... ... ... : ... .. . ... ... ... : ... .. . ... ... ... : ... .. . ... ... ... : ... .. . ... ... ... : ... .. . ... ... ...
ROW 06 : ... .. . ... ... ... : ... .. . ... ... ... : ... .. . ... ... ... : ... .. . ... ... ... : ... .. . ... ... ... : ... .. . ... ... ... : ... .. . ... ... ... : ... .. . ... ... ...
ROW 07 : ... .. . ... ... ... : ... .. . ... ... ... : ... .. . ... ... ... : ... .. . ... ... ... : ... .. . ... ... ... : ... .. . ... ... ... : ... .. . ... ... ... : ... .. . ... ... ...
ROW 08 : ... .. . ... ... ... : ... .. . ... ... ... : ... .. . ... ... ... : ... .. . ... ... ... : ... .. . ... ... ... : ... .. . ... ... ... : ... .. . ... ... ... : ... .. . ... ... ...
ROW 09 : ... .. . ... ... ... : ... .. . ... ... ... : ... .. . ... ... ... : ... .. . ... ... ... : ... .. . ... ... ... : ... .. . ... ... ... : ... .. . ... ... ... : ... .. . ... ... ...
ROW 0A : ... .. . ... ... ... : ... .. . ... ... ... : ... .. . ... ... ... : ... .. . ... ... ... : ... .. . ... ... ... : ... .. . ... ... ... : ... .. . ... ... ... : ... .. . ... ... ...
ROW 0B : ... .. . ... ... ... : ... .. . ... ... ... : ... .. . ... ... ... : ... .. . ... ... ... : ... .. . ... ... ... : ... .. . ... ... ... : ... .. . ... ... ... : ... .. . ... ... ...
ROW 0C : ... .. . ... ... ... : ... .. . ... ... ... : ... .. . ... ... ... : ... .. . ... ... ... : ... .. . ... ... ... : ... .. . ... ... ... : ... .. . ... ... ... : ... .. . ... ... ...
ROW 0D : ... .. . ... ... ... : ... .. . ... ... ... : ... .. . ... ... ... : ... .. . ... ... ... : ... .. . ... ... ... : ... .. . ... ... ... : ... .. . ... ... ... : ... .. . ... ... ...
ROW 0E : ... .. . ... ... ... : ... .. . ... ... ... : ... .. . ... ... ... : ... .. . ... ... ... : ... .. . ... ... ... : ... .. . ... ... ... : ... .. . ... ... ... : ... .. . ... ... ...
ROW 0F : ... .. . ... ... ... : ... .. . ... ... ... : ... .. . ... ... ... : ... .. . ... ... ... : ... .. . ... ... ... : ... .. . ... ... ... : ... .. . ... ... ... : ... .. . ... ... ...
ROW 10 : ... .. . ... ... ... : ... .. . ... ... ... : ... .. . ... ... ... : ... .. . ... ... ... : ... .. . ... ... ... : ... .. . ... ... ... : ... .. . ... ... ... : ... .. . ... ... ...
ROW 11 : ... .. . ... ... ... : ... .. . ... ... ... : ... .. . ... ... ... : ... .. . ... ... ... : ... .. . ... ... ... : ... .. . ... ... ... : ... .. . ... ... ... : ... .. . ... ... ...
ROW 12 : ... .. . ... ... ... : ... .. . ... ... ... : ... .. . ... ... ... : ... .. . ... ... ... : ... .. . ... ... ... : ... .. . ... ... ... : ... .. . ... ... ... : ... .. . ... ... ...
ROW 13 : ... .. . ... ... ... : ... .. . ... ... ... : ... .. . ... ... ... : ... .. . ... ... ... : ... .. . ... ... ... : ... .. . ... ... ... : ... .. . ... ... ... : ... .. . ... ... ...
ROW 14 : ... .. . ... ... ... : ... .. . ... ... ... : ... .. . ... ... ... : ... .. . ... ... ... : ... .. . ... ... ... : ... .. . ... ... ... : ... .. . ... ... ... : ... .. . ... ... ...
ROW 15 : ... .. . ... ... ... : ... .. . ... ... ... : ... .. . ... ... ... : ... .. . ... ... ... : ... .. . ... ... ... : ... .. . ... ... ... : ... .. . ... ... ... : ... .. . ... ... ...
ROW 16 : ... .. . ... ... ... : ... .. . ... ... ... : ... .. . ... ... ... : ... .. . ... ... ... : ... .. . ... ... ... : ... .. . ... ... ... : ... .. . ... ... ... : ... .. . ... ... ...
ROW 17 : ... .. . ... ... ... : ... .. . ... ... ... : ... .. . ... ... ... : ... .. . ... ... ... : ... .. . ... ... ... : ... .. . ... ... ... : ... .. . ... ... ... : ... .. . ... ... ...
ROW 18 : ... .. . ... ... ... : ... .. . ... ... ... : ... .. . ... ... ... : ... .. . ... ... ... : ... .. . ... ... ... : ... .. . ... ... ... : ... .. . ... ... ... : ... .. . ... ... ...
ROW 19 : ... .. . ... ... ... : ... .. . ... ... ... : ... .. . ... ... ... : ... .. . ... ... ... : ... .. . ... ... ... : ... .. . ... ... ... : ... .. . ... ... ... : ... .. . ... ... ...
ROW 1A : ... .. . ... ... ... : ... .. . ... ... ... : ... .. . ... ... ... : ... .. . ... ... ... : ... .. . ... ... ... : ... .. . ... ... ... : ... .. . ... ... ... : ... .. . ... ... ...
ROW 1B : ... .. . ... ... ... : ... .. . ... ... ... : ... .. . ... ... ... : ... .. . ... ... ... : ... .. . ... ... ... : ... .. . ... ... ... : ... .. . ... ... ... : ... .. . ... ... ...
ROW 1C : ... .. . ... ... ... : ... .. . ... ... ... : ... .. . ... ... ... : ... .. . ... ... ... : ... .. . ... ... ... : ... .. . ... ... ... : ... .. . ... ... ... : ... .. . ... ... ...
ROW 1D : ... .. . ... ... ... : ... .. . ... ... ... : ... .. . ... ... ... : ... .. . ... ... ... : ... .. . ... ... ... : ... .. . ... ... ... : ... .. . ... ... ... : ... .. . ... ... ...
ROW 1E : ... .. . ... ... ... : ... .. . ... ... ... : ... .. . ... ... ... : ... .. . ... ... ... : ... .. . ... ... ... : ... .. . ... ... ... : ... .. . ... ... ... : ... .. . ... ... ...
ROW 1F : ... .. . ... ... ... : ... .. . ... ... ... : ... .. . ... ... ... : ... .. . ... ... ... : ... .. . ... ... ... : ... .. . ... ... ... : ... .. . ... ... ... : ... .. . ... ... ...
ROW 20 : ... .. . ... ... ... : ... .. . ... ... ... : ... .. . ... ... ... : ... .. . ... ... ... : ... .. . ... ... ... : ... .. . ... ... ... : ... .. . ... ... ... : ... .. . ... ... ...
ROW 21 : ... .. . ... ... ... : ... .. . ... ... ... : ... .. . ... ... ... : ... .. . ... ... ... : ... .. . ... ... ... : ... .. . ... ... ... : ... .. . ... ... ... : ... .. . ... ... ...
ROW 22 : ... .. . ... ... ... : ... .. . ... ... ... : ... .. . ... ... ... : ... .. . ... ... ... : ... .. . ... ... ... : ... .. . ... ... ... : ... .. . ... ... ... : ... .. . ... ... ...
ROW 23 : ... .. . ... ... ... : ... .. . ... ... ... : ... .. . ... ... ... : ... .. . ... ... ... : ... .. . ... ... ... : ... .. . ... ... ... : ... .. . ... ... ... : ... .. . ... ... ...
ROW 24 : ... .. . ... ... ... : ... .. . ... ... ... : ... .. . ... ... ... : ... .. . ... ... ... : ... .. . ... ... ... : ... .. . ... ... ... : ... .. . ... ... ... : ... .. . ... ... ...
ROW 25 : ... .. . ... ... ... : ... .. . ... ... ... : ... .. . ... ... ... : ... .. . ... ... ... : ... .. . ... ... ... : ... .. . ... ... ... : ... .. . ... ... ... : ... .. . ... ... ...
ROW 26 : ... .. . ... ... ... : ... .. . ... ... ... : ... .. . ... ... ... : ... .. . ... ... ... : ... .. . ... ... ... : ... .. . ... ... ... : ... .. . ... ... ... : ... .. . ... ... ...
ROW 27 : ... .. . ... ... ... : ... .. . ... ... ... : ... .. . ... ... ... : ... .. . ... ... ... : ... .. . ... ... ... : ... .. . ... ... ... : ... .. . ... ... ... : ... .. . ... ... ...
ROW 28 : ... .. . ... ... ... : ... .. . ... ... ... : ... .. . ... ... ... : ... .. . ... ... ... : ... .. . ... ... ... : ... .. . ... ... ... : ... .. . ... ... ... : ... .. . ... ... ...
ROW 29 : ... .. . ... ... ... : ... .. . ... ... ... : ... .. . ... ... ... : ... .. . ... ... ... : ... .. . ... ... ... : ... .. . ... ... ... : ... .. . ... ... ... : ... .. . ... ... ...
ROW 2A : ... .. . ... ... ... : ... .. . ... ... ... : ... .. . ... ... ... : ... .. . ... ... ... : ... .. . ... ... ... : ... .. . ... ... ... : ... .. . ... ... ... : ... .. . ... ... ...
ROW 2B : ... .. . ... ... ... : ... .. . ... ... ... : ... .. . ... ... ... : ... .. . ... ... ... : ... .. . ... ... ... : ... .. . ... ... ... : ... .. . ... ... ... : ... .. . ... ... ...
ROW 2C : ... .. . ... ... ... : ... .. . ... ... ... : ... .. . ... ... ... : ... .. . ... ... ... : ... .. . ... ... ... : ... .. . ... ... ... : ... .. . ... ... ... : ... .. . ... ... ...
ROW 2D : ... .. . ... ... ... : ... .. . ... ... ... : ... .. . ... ... ... : ... .. . ... ... ... : ... .. . ... ... ... : ... .. . ... ... ... : ... .. . ... ... ... : ... .. . ... ... ...
ROW 2E : ... .. . ... ... ... : ... .. . ... ... ... : ... .. . ... ... ... : ... .. . ... ... ... : ... .. . ... ... ... : ... .. . ... ... ... : ... .. . ... ... ... : ... .. . ... ... ...
ROW 2F : ... .. . ... ... ... : ... .. . ... ... ... : ... .. . ... ... ... : ... .. . ... ... ... : ... .. . ... ... ... : ... .. . ... ... ... : ... .. . ... ... ... : ... .. . ... ... ...
ROW 30 : ... .. . ... ... ... : ... .. . ... ... ... : ... .. . ... ... ... : ... .. . ... ... ... : ... .. . ... ... ... : ... .. . ... ... ... : ... .. . ... ... ... : ... .. . ... ... ...
ROW 31 : ... .. . ... ... ... : ... .. . ... ... ... : ... .. . ... ... ... : ... .. . ... ... ... : ... .. . ... ... ... : ... .. . ... ... ... : ... .. . ... ... ... : ... .. . ... ... ...
ROW 32 : ... .. . ... ... ... : ... .. . ... ... ... : ... .. . ... ... ... : ... .. . ... ... ... : ... .. . ... ... ... : ... .. . ... ... ... : ... .. . ... ... ... : ... .. . ... ... ...
ROW 33 : ... .. . ... ... ... : ... .. . ... ... ... : ... .. . ... ... ... : ... .. . ... ... ... : ... .. . ... ... ... : ... .. . ... ... ... : ... .. . ... ... ... : ... .. . ... ... ...
ROW 34 : ... .. . ... ... ... : ... .. . ... ... ... : ... .. . ... ... ... : ... .. . ... ... ... : ... .. . ... ... ... : ... .. . ... ... ... : ... .. . ... ... ... : ... .. . ... ... ...
ROW 35 : ... .. . ... ... ... : ... .. . ... ... ... : ... .. . ... ... ... : ... .. . ... ... ... : ... .. . ... ... ... : ... .. . ... ... ... : ... .. . ... ... ... : ... .. . ... ... ...
ROW 36 : ... .. . ... ... ... : ... .. . ... ... ... : ... .. . ... ... ... : ... .. . ... ... ... : ... .. . ... ... ... : ... .. . ... ... ... : ... .. . ... ... ... : ... .. . ... ... ...
ROW 37 : ... .. . ... ... ... : ... .. . ... ... ... : ... .. . ... ... ... : ... .. . ... ... ... : ... .. . ... ... ... : ... .. . ... ... ... : ... .. . ... ... ... : ... .. . ... ... ...
ROW 38 : ... .. . ... ... ... : ... .. . ... ... ... : ... .. . ... ... ... : ... .. . ... ... ... : ... .. . ... ... ... : ... .. . ... ... ... : ... .. . ... ... ... : ... .. . ... ... ...
ROW 39 : ... .. . ... ... ... : ... .. . ... ... ... : ... .. . ... ... ... : ... .. . ... ... ... : ... .. . ... ... ... : ... .. . ... ... ... : ... .. . ... ... ... : ... .. . ... ... ...
ROW 3A : ... .. . ... ... ... : ... .. . ... ... ... : ... .. . ... ... ... : ... .. . ... ... ... : ... .. . ... ... ... : ... .. . ... ... ... : ... .. . ... ... ... : ... .. . ... ... ...
ROW 3B : ... .. . ... ... ... : ... .. . ... ... ... : ... .. . ... ... ... : ... .. . ... ... ... : ... .. . ... ... ... : ... .. . ... ... ... : ... .. . ... ... ... : ... .. . ... ... ...
ROW 3C : ... .. . ... ... ... : ... .. . ... ... ... : ... .. . ... ... ... : ... .. . ... ... ... : ... .. . ... ... ... : ... .. . ... ... ... : ... .. . ... ... ... : ... .. . ... ... ...
ROW 3D : ... .. . ... ... ... : ... .. . ... ... ... : ... .. . ... ... ... : ... .. . ... ... ... : ... .. . ... ... ... : ... .. . ... ... ... : ... .. . ... ... ... : ... .. . ... ... ...
ROW 3E : ... .. . ... ... ... : ... .. . ... ... ... : ... .. . ... ... ... : ... .. . ... ... ... : ... .. . ... ... ... : ... .. . ... ... ... : ... .. . ... ... ... : ... .. . ... ... ...
ROW 3F : ... .. . ... ... ... : ... .. . ... ... ... : ... .. . ... ... ... : ... .. . ... ... ... : ... .. . ... ... ... : ... .. . ... ... ... : ... .. . ... ... ... : ... .. . ... ... ...
ROW 40 : ... .. . ... ... ... : ... .. . ... ... ... : ... .. . ... ... ... : ... .. . ... ... ... : ... .. . ... ... ... : ... .. . ... ... ... : ... .. . ... ... ... : ... .. . ... ... ...
ROW 41 : ... .. . ... ... ... : ... .. . ... ... ... : ... .. . ... ... ... : ... .. . ... ... ... : ... .. . ... ... ... : ... .. . ... ... ... : ... .. . ... ... ... : ... .. . ... ... ...
ROW 42 : ... .. . ... ... ... : ... .. . ... ... ... : ... .. . ... ... ... : ... .. . ... ... ... : ... .. . ... ... ... : ... .. . ... ... ... : ... .. . ... ... ... : ... .. . ... ... ...
ROW 43 : ... .. . ... ... ... : ... .. . ... ... ... : ... .. . ... ... ... : ... .. . ... ... ... : ... .. . ... ... ... : ... .. . ... ... ... : ... .. . ... ... ... : ... .. . ... ... ...
ROW 44 : ... .. . ... ... ... : ... .. . ... ... ... : ... .. . ... ... ... : ... .. . ... ... ... : ... .. . ... ... ... : ... .. . ... ... ... : ... .. . ... ... ... : ... .. . ... ... ...
ROW 45 : ... .. . ... ... ... : ... .. . ... ... ... : ... .. . ... ... ... : ... .. . ... ... ... : ... .. . ... ... ... : ... .. . ... ... ... : ... .. . ... ... ... : ... .. . ... ... ...
ROW 46 : ... .. . ... ... ... : ... .. . ... ... ... : ... .. . ... ... ... : ... .. . ... ... ... : ... .. . ... ... ... : ... .. . ... ... ... : ... .. . ... ... ... : ... .. . ... ... ...
ROW 47 : ... .. . ... ... ... : ... .. . ... ... ... : ... .. . ... ... ... : ... .. . ... ... ... : ... .. . ... ... ... : ... .. . ... ... ... : ... .. . ... ... ... : ... .. . ... ... ...
ROW 48 : ... .. . ... ... ... : ... .. . ... ... ... : ... .. . ... ... ... : ... .. . ... ... ... : ... .. . ... ... ... : ... .. . ... ... ... : ... .. . ... ... ... : ... .. . ... ... ...
ROW 49 : ... .. . ... ... ... : ... .. . ... ... ... : ... .. . ... ... ... : ... .. . ... ... ... : ... .. . ... ... ... : ... .. . ... ... ... : ... .. . ... ... ... : ... .. . ... ... ...
ROW 4A : ... .. . ... ... ... : ... .. . ... ... ... : ... .. . ... ... ... : ... .. . ... ... ... : ... .. . ... ... ... : ... .. . ... ... ... : ... .. . ... ... ... : ... .. . ... ... ...
ROW 4B : ... .. . ... ... ... : ... .. . ... ... ... : ... .. . ... ... ... : ... .. . ... ... ... : ... .. . ... ... ... : ... .. . ... ... ... : ... .. . ... ... ... : ... .. . ... ... ...
ROW 4C : ... .. . ... ... ... : ... .. . ... ... ... : ... .. . ... ... ... : ... .. . ... ... ... : ... .. . ... ... ... : ... .. . ... ... ... : ... .. . ... ... ... : ... .. . ... ... ...
ROW 4D : ... .. . ... ... ... : ... .. . ... ... ... : ... .. . ... ... ... : ... .. . ... ... ... : ... .. . ... ... ... : ... .. . ... ... ... : ... .. . ... ... ... : ... .. . ... ... ...
ROW 4E : ... .. . ... ... ... : ... .. . ... ... ... : ... .. . ... ... ... : ... .. . ... ... ... : ... .. . ... ... ... : ... .. . ... ... ... : ... .. . ... ... ... : ... .. . ... ... ...
ROW 4F : ... .. . ... ... ... : ... .. . ... ... ... : ... .. . ... ... ... : ... .. . ... ... ... : ... .. . ... ... ... : ... .. . ... ... ... : ... .. . ... ... ... : ... .. . ... ... ...
ROW 50 : ... .. . ... ... ... : ... .. . ... ... ... : ... .. . ... ... ... : ... .. . ... ... ... : ... .. . ... ... ... : ... .. . ... ... ... : ... .. . ... ... ... : ... .. . ... ... ...
ROW 51 : ... .. . ... ... ... : ... .. . ... ... ... : ... .. . ... ... ... : ... .. . ... ... ... : ... .. . ... ... ... : ... .. . ... ... ... : ... .. . ... ... ... : ... .. . ... ... ...
ROW 52 : ... .. . ... ... ... : ... .. . ... ... ... : ... .. . ... ... ... : ... .. . ... ... ... : ... .. . ... ... ... : ... .. . ... ... ... : ... .. . ... ... ... : ... .. . ... ... ...
ROW 53 : ... .. . ... ... ... : ... .. . ... ... ... : ... .. . ... ... ... : ... .. . ... ... ... : ... .. . ... ... ... : ... .. . ... ... ... : ... .. . ... ... ... : ... .. . ... ... ...
ROW 54 : ... .. . ... ... ... : ... .. . ... ... ... : ... .. . ... ... ... : ... .. . ... ... ... : ... .. . ... ... ... : ... .. . ... ... ... : ... .. . ... ... ... : ... .. . ... ... ...
ROW 55 : ... .. . ... ... ... : ... .. . ... ... ... : ... .. . ... ... ... : ... .. . ... ... ... : ... .. . ... ... ... : ... .. . ... ... ... : ... .. . ... ... ... : ... .. . ... ... ...
ROW 56 : ... .. . ... ... ... : ... .. . ... ... ... : ... .. . ... ... ... : ... .. . ... ... ... : ... .. . ... ... ... : ... .. . ... ... ... : ... .. . ... ... ... : ... .. . ... ... ...
ROW 57 : ... .. . ... ... ... : ... .. . ... ... ... : ... .. . ... ... ... : ... .. . ... ... ... : ... .. . ... ... ... : ... .. . ... ... ... : ... .. . ... ... ... : ... .. . ... ... ...
ROW 58 : ... .. . ... ... ... : ... .. . ... ... ... : ... .. . ... ... ... : ... .. . ... ... ... : ... .. . ... ... ... : ... .. . ... ... ... : ... .. . ... ... ... : ... .. . ... ... ...
ROW 59 : ... .. . ... ... ... : ... .. . ... ... ... : ... .. . ... ... ... : ... .. . ... ... ... : ... .. . ... ... ... : ... .. . ... ... ... : ... .. . ... ... ... : ... .. . ... ... ...
ROW 5A : ... .. . ... ... ... : ... .. . ... ... ... : ... .. . ... ... ... : ... .. . ... ... ... : ... .. . ... ... ... : ... .. . ... ... ... : ... .. . ... ... ... : ... .. . ... ... ...
ROW 5B : ... .. . ... ... ... : ... .. . ... ... ... : ... .. . ... ... ... : ... .. . ... ... ... : ... .. . ... ... ... : ... .. . ... ... ... : ... .. . ... ... ... : ... .. . ... ... ...
ROW 5C : ... .. . ... ... ... : ... .. . ... ... ... : ... .. . ... ... ... : ... .. . ... ... ... : ... .. . ... ... ... : ... .. . ... ... ... : ... .. . ... ... ... : ... .. . ... ... ...
ROW 5D : ... .. . ... ... ... : ... .. . ... ... ... : ... .. . ... ... ... : ... .. . ... ... ... : ... .. . ... ... ... : ... .. . ... ... ... : ... .. . ... ... ... : ... .. . ... ... ...
ROW 5E : ... .. . ... ... ... : ... .. . ... ... ... : ... .. . ... ... ... : ... .. . ... ... ... : ... .. . ... ... ... : ... .. . ... ... ... : ... .. . ... ... ... : ... .. . ... ... ...
ROW 5F : ... .. . ... ... ... : ... .. . ... ... ... : ... .. . ... ... ... : ... .. . ... ... ... : ... .. . ... ... ... : ... .. . ... ... ... : ... .. . ... ... ... : ... .. . ... ... ...
ROW 60 : ... .. . ... ... ... : ... .. . ... ... ... : ... .. . ... ... ... : ... .. . ... ... ... : ... .. . ... ... ... : ... .. . ... ... ... : ... .. . ... ... ... : ... .. . ... ... ...
ROW 61 : ... .. . ... ... ... : ... .. . ... ... ... : ... .. . ... ... ... : ... .. . ... ... ... : ... .. . ... ... ... : ... .. . ... ... ... : ... .. . ... ... ... : ... .. . ... ... ...
ROW 62 : ... .. . ... ... ... : ... .. . ... ... ... : ... .. . ... ... ... : ... .. . ... ... ... : ... .. . ... ... ... : ... .. . ... ... ... : ... .. . ... ... ... : ... .. . ... ... ...
ROW 63 : ... .. . ... ... ... : ... .. . ... ... ... : ... .. . ... ... ... : ... .. . ... ... ... : ... .. . ... ... ... : ... .. . ... ... ... : ... .. . ... ... ... : ... .. . ... ... ...
ROW 64 : ... .. . ... ... ... : ... .. . ... ... ... : ... .. . ... ... ... : ... .. . ... ... ... : ... .. . ... ... ... : ... .. . ... ... ... : ... .. . ... ... ... : ... .. . ... ... ...
ROW 65 : ... .. . ... ... ... : ... .. . ... ... ... : ... .. . ... ... ... : ... .. . ... ... ... : ... .. . ... ... ... : ... .. . ... ... ... : ... .. . ... ... ... : ... .. . ... ... ...
ROW 66 : ... .. . ... ... ... : ... .. . ... ... ... : ... .. . ... ... ... : ... .. . ... ... ... : ... .. . ... ... ... : ... .. . ... ... ... : ... .. . ... ... ... : ... .. . ... ... ...
ROW 67 : ... .. . ... ... ... : ... .. . ... ... ... : ... .. . ... ... ... : ... .. . ... ... ... : ... .. . ... ... ... : ... .. . ... ... ... : ... .. . ... ... ... : ... .. . ... ... ...
ROW 68 : ... .. . ... ... ... : ... .. . ... ... ... : ... .. . ... ... ... : ... .. . ... ... ... : ... .. . ... ... ... : ... .. . ... ... ... : ... .. . ... ... ... : ... .. . ... ... ...
ROW 69 : ... .. . ... ... ... : ... .. . ... ... ... : ... .. . ... ... ... : ... .. . ... ... ... : ... .. . ... ... ... : ... .. . ... ... ... : ... .. . ... ... ... : ... .. . ... ... ...
ROW 6A : ... .. . ... ... ... : ... .. . ... ... ... : ... .. . ... ... ... : ... .. . ... ... ... : ... .. . ... ... ... : ... .. . ... ... ... : ... .. . ... ... ... : ... .. . ... ... ...
ROW 6B : ... .. . ... ... ... : ... .. . ... ... ... : ... .. . ... ... ... : ... .. . ... ... ... : ... .. . ... ... ... : ... .. . ... ... ... : ... .. . ... ... ... : ... .. . ... ... ...
ROW 6C : ... .. . ... ... ... : ... .. . ... ... ... : ... .. . ... ... ... : ... .. . ... ... ... : ... .. . ... ... ... : ... .. . ... ... ... : ... .. . ... ... ... : ... .. . ... ... ...
ROW 6D : ... .. . ... ... ... : ... .. . ... ... ... : ... .. . ... ... ... : ... .. . ... ... ... : ... .. . ... ... ... : ... .. . ... ... ... : ... .. . ... ... ... : ... .. . ... ... ...
ROW 6E : ... .. . ... ... ... : ... .. . ... ... ... : ... .. . ... ... ... : ... .. . ... ... ... : ... .. . ... ... ... : ... .. . ... ... ... : ... .. . ... ... ... : ... .. . ... ... ...
ROW 6F : ... .. . ... ... ... : ... .. . ... ... ... : ... .. . ... ... ... : ... .. . ... ... ... : ... .. . ... ... ... : ... .. . ... ... ... : ... .. . ... ... ... : ... .. . ... ... ...
ROW 70 : ... .. . ... ... ... : ... .. . ... ... ... : ... .. . ... ... ... : ... .. . ... ... ... : ... .. . ... ... ... : ... .. . ... ... ... : ... .. . ... ... ... : ... .. . ... ... ...
ROW 71 : ... .. . ... ... ... : ... .. . ... ... ... : ... .. . ... ... ... : ... .. . ... ... ... : ... .. . ... ... ... : ... .. . ... ... ... : ... .. . ... ... ... : ... .. . ... ... ...
ROW 72 : ... .. . ... ... ... : ... .. . ... ... ... : ... .. . ... ... ... : ... .. . ... ... ... : ... .. . ... ... ... : ... .. . ... ... ... : ... .. . ... ... ... : ... .. . ... ... ...
ROW 73 : ... .. . ... ... ... : ... .. . ... ... ... : ... .. . ... ... ... : ... .. . ... ... ... : ... .. . ... ... ... : ... .. . ... ... ... : ... .. . ... ... ... : ... .. . ... ... ...
ROW 74 : ... .. . ... ... ... : ... .. . ... ... ... : ... .. . ... ... ... : ... .. . ... ... ... : ... .. . ... ... ... : ... .. . ... ... ... : ... .. . ... ... ... : ... .. . ... ... ...
ROW 75 : ... .. . ... ... ... : ... .. . ... ... ... : ... .. . ... ... ... : ... .. . ... ... ... : ... .. . ... ... ... : ... .. . ... ... ... : ... .. . ... ... ... : ... .. . ... ... ...
ROW 76 : ... .. . ... ... ... : ... .. . ... ... ... : ... .. . ... ... ... : ... .. . ... ... ... : ... .. . ... ... ... : ... .. . ... ... ... : ... .. . ... ... ... : ... .. . ... ... ...
ROW 77 : ... .. . ... ... ... : ... .. . ... ... ... : ... .. . ... ... ... : ... .. . ... ... ... : ... .. . ... ... ... : ... .. . ... ... ... : ... .. . ... ... ... : ... .. . ... ... ...
ROW 78 : ... .. . ... ... ... : ... .. . ... ... ... : ... .. . ... ... ... : ... .. . ... ... ... : ... .. . ... ... ... : ... .. . ... ... ... : ... .. . ... ... ... : ... .. . ... ... ...
ROW 79 : ... .. . ... ... ... : ... .. . ... ... ... : ... .. . ... ... ... : ... .. . ... ... ... : ... .. . ... ... ... : ... .. . ... ... ... : ... .. . ... ... ... : ... .. . ... ... ...
ROW 7A : ... .. . ... ... ... : ... .. . ... ... ... : ... .. . ... ... ... : ... .. . ... ... ... : ... .. . ... ... ... : ... .. . ... ... ... : ... .. . ... ... ... : ... .. . ... ... ...
ROW 7B : ... .. . ... ... ... : ... .. . ... ... ... : ... .. . ... ... ... : ... .. . ... ... ... : ... .. . ... ... ... : ... .. . ... ... ... : ... .. . ... ... ... : ... .. . ... ... ...
ROW 7C : ... .. . ... ... ... : ... .. . ... ... ... : ... .. . ... ... ... : ... .. . ... ... ... : ... .. . ... ... ... : ... .. . ... ... ... : ... .. . ... ... ... : ... .. . ... ... ...
ROW 7D : ... .. . ... ... ... : ... .. . ... ... ... : ... .. . ... ... ... : ... .. . ... ... ... : ... .. . ... ... ... : ... .. . ... ... ... : ... .. . ... ... ... : ... .. . ... ... ...
ROW 7E : ... .. . ... ... ... : ... .. . ... ... ... : ... .. . ... ... ... : ... .. . ... ... ... : ... .. . ... ... ... : ... .. . ... ... ... : ... .. . ... ... ... : ... .. . ... ... ...
ROW 7F : ... .. . ... ... ... : ... .. . ... ... ... : ... .. . ... ... ... : ... .. . ... ... ... : ... .. . ... ... ... : ... .. . ... ... ... : ... .. . ... ... ... : ... .. . ... ... ...
ROW 80 : ... .. . ... ... ... : ... .. . ... ... ... : ... .. . ... ... ... : ... .. . ... ... ... : ... .. . ... ... ... : ... .. . ... ... ... : ... .. . ... ... ... : ... .. . ... ... ...
ROW 81 : ... .. . ... ... ... : ... .. . ... ... ... : ... .. . ... ... ... : ... .. . ... ... ... : ... .. . ... ... ... : ... .. . ... ... ... : ... .. . ... ... ... : ... .. . ... ... ...
ROW 82 : ... .. . ... ... ... : ... .. . ... ... ... : ... .. . ... ... ... : ... .. . ... ... ... : ... .. . ... ... ... : ... .. . ... ... ... : ... .. . ... ... ... : ... .. . ... ... ...
ROW 83 : ... .. . ... ... ... : ... .. . ... ... ... : ... .. . ... ... ... : ... .. . ... ... ... : ... .. . ... ... ... : ... .. . ... ... ... : ... .. . ... ... ... : ... .. . ... ... ...
ROW 84 : ... .. . ... ... ... : ... .. . ... ... ... : ... .. . ... ... ... : ... .. . ... ... ... : ... .. . ... ... ... : ... .. . ... ... ... : ... .. . ... ... ... : ... .. . ... ... ...
ROW 85 : ... .. . ... ... ... : ... .. . ... ... ... : ... .. . ... ... ... : ... .. . ... ... ... : ... .. . ... ... ... : ... .. . ... ... ... : ... .. . ... ... ... : ... .. . ... ... ...
ROW 86 : ... .. . ... ... ... : ... .. . ... ... ... : ... .. . ... ... ... : ... .. . ... ... ... : ... .. . ... ... ... : ... .. . ... ... ... : ... .. . ... ... ... : ... .. . ... ... ...
ROW 87 : ... .. . ... ... ... : ... .. . ... ... ... : ... .. . ... ... ... : ... .. . ... ... ... : ... .. . ... ... ... : ... .. . ... ... ... : ... .. . ... ... ... : ... .. . ... ... ...
ROW 88 : ... .. . ... ... ... : ... .. . ... ... ... : ... .. . ... ... ... : ... .. . ... ... ... : ... .. . ... ... ... : ... .. . ... ... ... : ... .. . ... ... ... : ... .. . ... ... ...
ROW 89 : ... .. . ... ... ... : ... .. . ... ... ... : ... .. . ... ... ... : ... .. . ... ... ... : ... .. . ... ... ... : ... .. . ... ... ... : ... .. . ... ... ... : ... .. . ... ... ...
ROW 8A : ... .. . ... ... ... : ... .. . ... ... ... : ... .. . ... ... ... : ... .. . ... ... ... : ... .. . ... ... ... : ... .. . ... ... ... : ... .. . ... ... ... : ... .. . ... ... ...
ROW 8B : ... .. . ... ... ... : ... .. . ... ... ... : ... .. . ... ... ... : ... .. . ... ... ... : ... .. . ... ... ... : ... .. . ... ... ... : ... .. . ... ... ... : ... .. . ... ... ...
ROW 8C : ... .. . ... ... ... : ... .. . ... ... ... : ... .. . ... ... ... : ... .. . ... ... ... : ... .. . ... ... ... : ... .. . ... ... ... : ... .. . ... ... ... : ... .. . ... ... ...
ROW 8D : ... .. . ... ... ... : ... .. . ... ... ... : ... .. . ... ... ... : ... .. . ... ... ... : ... .. . ... ... ... : ... .. . ... ... ... : ... .. . ... ... ... : ... .. . ... ... ...
ROW 8E : ... .. . ... ... ... : ... .. . ... ... ... : ... .. . ... ... ... : ... .. . ... ... ... : ... .. . ... ... ... : ... .. . ... ... ... : ... .. . ... ... ... : ... .. . ... ... ...
ROW 8F : ... .. . ... ... ... : ... .. . ... ... ... : ... .. . ... ... ... : ... .. . ... ... ... : ... .. . ... ... ... : ... .. . ... ... ... : ... .. . ... ... ... : ... .. . ... ... ...
ROW 90 : ... .. . ... ... ... : ... .. . ... ... ... : ... .. . ... ... ... : ... .. . ... ... ... : ... .. . ... ... ... : ... .. . ... ... ... : ... .. . ... ... ... : ... .. . ... ... ...
ROW 91 : ... .. . ... ... ... : ... .. . ... ... ... : ... .. . ... ... ... : ... .. . ... ... ... : ... .. . ... ... ... : ... .. . ... ... ... : ... .. . ... ... ... : ... .. . ... ... ...
ROW 92 : ... .. . ... ... ... : ... .. . ... ... ... : ... .. . ... ... ... : ... .. . ... ... ... : ... .. . ... ... ... : ... .. . ... ... ... : ... .. . ... ... ... : ... .. . ... ... ...
ROW 93 : ... .. . ... ... ... : ... .. . ... ... ... : ... .. . ... ... ... : ... .. . ... ... ... : ... .. . ... ... ... : ... .. . ... ... ... : ... .. . ... ... ... : ... .. . ... ... ...
ROW 94 : ... .. . ... ... ... : ... .. . ... ... ... : ... .. . ... ... ... : ... .. . ... ... ... : ... .. . ... ... ... : ... .. . ... ... ... : ... .. . ... ... ... : ... .. . ... ... ...
ROW 95 : ... .. . ... ... ... : ... .. . ... ... ... : ... .. . ... ... ... : ... .. . ... ... ... : ... .. . ... ... ... : ... .. . ... ... ... : ... .. . ... ... ... : ... .. . ... ... ...
ROW 96 : ... .. . ... ... ... : ... .. . ... ... ... : ... .. . ... ... ... : ... .. . ... ... ... : ... .. . ... ... ... : ... .. . ... ... ... : ... .. . ... ... ... : ... .. . ... ... ...
ROW 97 : ... .. . ... ... ... : ... .. . ... ... ... : ... .. . ... ... ... : ... .. . ... ... ... : ... .. . ... ... ... : ... .. . ... ... ... : ... .. . ... ... ... : ... .. . ... ... ...
ROW 98 : ... .. . ... ... ... : ... .. . ... ... ... : ... .. . ... ... ... : ... .. . ... ... ... : ... .. . ... ... ... : ... .. . ... ... ... : ... .. . ... ... ... : ... .. . ... ... ...
ROW 99 : ... .. . ... ... ... : ... .. . ... ... ... : ... .. . ... ... ... : ... .. . ... ... ... : ... .. . ... ... ... : ... .. . ... ... ... : ... .. . ... ... ... : ... .. . ... ... ...
ROW 9A : ... .. . ... ... ... : ... .. . ... ... ... : ... .. . ... ... ... : ... .. . ... ... ... : ... .. . ... ... ... : ... .. . ... ... ... : ... .. . ... ... ... : ... .. . ... ... ...
ROW 9B : ... .. . ... ... ... : ... .. . ... ... ... : ... .. . ... ... ... : ... .. . ... ... ... : ... .. . ... ... ... : ... .. . ... ... ... : ... .. . ... ... ... : ... .. . ... ... ...
ROW 9C : ... .. . ... ... ... : ... .. . ... ... ... : ... .. . ... ... ... : ... .. . ... ... ... : ... .. . ... ... ... : ... .. . ... ... ... : ... .. . ... ... ... : ... .. . ... ... ...
ROW 9D : ... .. . ... ... ... : ... .. . ... ... ... : ... .. . ... ... ... : ... .. . ... ... ... : ... .. . ... ... ... : ... .. . ... ... ... : ... .. . ... ... ... : ... .. . ... ... ...
ROW 9E : ... .. . ... ... ... : ... .. . ... ... ... : ... .. . ... ... ... : ... .. . ... ... ... : ... .. . ... ... ... : ... .. . ... ... ... : ... .. . ... ... ... : ... .. . ... ... ...
ROW 9F : ... .. . ... ... ... : ... .. . ... ... ... : ... .. . ... ... ... : ... .. . ... ... ... : ... .. . ... ... ... : ... .. . ... ... ... : ... .. . ... ... ... : ... .. . ... ... ...
ROW A0 : ... .. . ... ... ... : ... .. . ... ... ... : ... .. . ... ... ... : ... .. . ... ... ... : ... .. . ... ... ... : ... .. . ... ... ... : ... .. . ... ... ... : ... .. . ... ... ...
ROW A1 : ... .. . ... ... ... : ... .. . ... ... ... : ... .. . ... ... ... : ... .. . ... ... ... : ... .. . ... ... ... : ... .. . ... ... ... : ... .. . ... ... ... : ... .. . ... ... ...
ROW A2 : ... .. . ... ... ... : ... .. . ... ... ... : ... .. . ... ... ... : ... .. . ... ... ... : ... .. . ... ... ... : ... .. . ... ... ... : ... .. . ... ... ... : ... .. . ... ... ...
ROW A3 : ... .. . ... ... ... : ... .. . ... ... ... : ... .. . ... ... ... : ... .. . ... ... ... : ... .. . ... ... ... : ... .. . ... ... ... : ... .. . ... ... ... : ... .. . ... ... ...
ROW A4 : ... .. . ... ... ... : ... .. . ... ... ... : ... .. . ... ... ... : ... .. . ... ... ... : ... .. . ... ... ... : ... .. . ... ... ... : ... .. . ... ... ... : ... .. . ... ... ...
ROW A5 : ... .. . ... ... ... : ... .. . ... ... ... : ... .. . ... ... ... : ... .. . ... ... ... : ... .. . ... ... ... : ... .. . ... ... ... : ... .. . ... ... ... : ... .. . ... ... ...
ROW A6 : ... .. . ... ... ... : ... .. . ... ... ... : ... .. . ... ... ... : ... .. . ... ... ... : ... .. . ... ... ... : ... .. . ... ... ... : ... .. . ... ... ... : ... .. . ... ... ...
ROW A7 : ... .. . ... ... ... : ... .. . ... ... ... : ... .. . ... ... ... : ... .. . ... ... ... : ... .. . ... ... ... : ... .. . ... ... ... : ... .. . ... ... ... : ... .. . ... ... ...
ROW A8 : ... .. . ... ... ... : ... .. . ... ... ... : ... .. . ... ... ... : ... .. . ... ... ... : ... .. . ... ... ... : ... .. . ... ... ... : ... .. . ... ... ... : ... .. . ... ... ...
ROW A9 : ... .. . ... ... ... : ... .. . ... ... ... : ... .. . ... ... ... : ... .. . ... ... ... : ... .. . ... ... ... : ... .. . ... ... ... : ... .. . ... ... ... : ... .. . ... ... ...
ROW AA : ... .. . ... ... ... : ... .. . ... ... ... : ... .. . ... ... ... : ... .. . ... ... ... : ... .. . ... ... ... : ... .. . ... ... ... : ... .. . ... ... ... : ... .. . ... ... ...
ROW AB : ... .. . ... ... ... : ... .. . ... ... ... : ... .. . ... ... ... : ... .. . ... ... ... : ... .. . ... ... ... : ... .. . ... ... ... : ... .. . ... ... ... : ... .. . ... ... ...
ROW AC : ... .. . ... ... ... : ... .. . ... ... ... : ... .. . ... ... ... : ... .. . ... ... ... : ... .. . ... ... ... : ... .. . ... ... ... : ... .. . ... ... ... : ... .. . ... ... ...
ROW AD : ... .. . ... ... ... : ... .. . ... ... ... : ... .. . ... ... ... : ... .. . ... ... ... : ... .. . ... ... ... : ... .. . ... ... ... : ... .. . ... ... ... : ... .. . ... ... ...
ROW AE : ... .. . ... ... ... : ... .. . ... ... ... : ... .. . ... ... ... : ... .. . ... ... ... : ... .. . ... ... ... : ... .. . ... ... ... : ... .. . ... ... ... : ... .. . ... ... ...
ROW AF : ... .. . ... ... ... : ... .. . ... ... ... : ... .. . ... ... ... : ... .. . ... ... ... : ... .. . ... ... ... : ... .. . ... ... ... : ... .. . ... ... ... : ... .. . ... ... ...
ROW B0 : ... .. . ... ... ... : ... .. . ... ... ... : ... .. . ... ... ... : ... .. . ... ... ... : ... .. . ... ... ... : ... .. . ... ... ... : ... .. . ... ... ... : ... .. . ... ... ...
ROW B1 : ... .. . ... ... ... : ... .. . ... ... ... : ... .. . ... ... ... : ... .. . ... ... ... : ... .. . ... ... ... : ... .. . ... ... ... : ... .. . ... ... ... : ... .. . ... ... ...
ROW B2 : ... .. . ... ... ... : ... .. . ... ... ... : ... .. . ... ... ... : ... .. . ... ... ... : ... .. . ... ... ... : ... .. . ... ... ... : ... .. . ... ... ... : ... .. . ... ... ...
ROW B3 : ... .. . ... ... ... : ... .. . ... ... ... : ... .. . ... ... ... : ... .. . ... ... ... : ... .. . ... ... ... : ... .. . ... ... ... : ... .. . ... ... ... : ... .. . ... ... ...
ROW B4 : ... .. . ... ... ... : ... .. . ... ... ... : ... .. . ... ... ... : ... .. . ... ... ... : ... .. . ... ... ... : ... .. . ... ... ... : ... .. . ... ... ... : ... .. . ... ... ...
ROW B5 : ... .. . ... ... ... : ... .. . ... ... ... : ... .. . ... ... ... : ... .. . ... ... ... : ... .. . ... ... ... : ... .. . ... ... ... : ... .. . ... ... ... : ... .. . ... ... ...
ROW B6 : ... .. . ... ... ... : ... .. . ... ... ... : ... .. . ... ... ... : ... .. . ... ... ... : ... .. . ... ... ... : ... .. . ... ... ... : ... .. . ... ... ... : ... .. . ... ... ...
ROW B7 : ... .. . ... ... ... : ... .. . ... ... ... : ... .. . ... ... ... : ... .. . ... ... ... : ... .. . ... ... ... : ... .. . ... ... ... : ... .. . ... ... ... : ... .. . ... ... ...
ROW B8 : ... .. . ... ... ... : ... .. . ... ... ... : ... .. . ... ... ... : ... .. . ... ... ... : ... .. . ... ... ... : ... .. . ... ... ... : ... .. . ... ... ... : ... .. . ... ... ...
ROW B9 : ... .. . ... ... ... : ... .. . ... ... ... : ... .. . ... ... ... : ... .. . ... ... ... : ... .. . ... ... ... : ... .. . ... ... ... : ... .. . ... ... ... : ... .. . ... ... ...
ROW BA : ... .. . ... ... ... : ... .. . ... ... ... : ... .. . ... ... ... : ... .. . ... ... ... : ... .. . ... ... ... : ... .. . ... ... ... : ... .. . ... ... ... : ... .. . ... ... ...
ROW BB : ... .. . ... ... ... : ... .. . ... ... ... : ... .. . ... ... ... : ... .. . ... ... ... : ... .. . ... ... ... : ... .. . ... ... ... : ... .. . ... ... ... : ... .. . ... ... ...
ROW BC : ... .. . ... ... ... : ... .. . ... ... ... : ... .. . ... ... ... : ... .. . ... ... ... : ... .. . ... ... ... : ... .. . ... ... ... : ... .. . ... ... ... : ... .. . ... ... ...
ROW BD : ... .. . ... ... ... : ... .. . ... ... ... : ... .. . ... ... ... : ... .. . ... ... ... : ... .. . ... ... ... : ... .. . ... ... ... : ... .. . ... ... ... : ... .. . ... ... ...
ROW BE : ... .. . ... ... ... : ... .. . ... ... ... : ... .. . ... ... ... : ... .. . ... ... ... : ... .. . ... ... ... : ... .. . ... ... ... : ... .. . ... ... ... : ... .. . ... ... ...
ROW BF : ... .. . ... ... ... : ... .. . ... ... ... : ... .. . ... ... ... : ... .. . ... ... ... : ... .. . ... ... ... : ... .. . ... ... ... : ... .. . ... ... ... : ... .. . ... ... ...
ROW C0 : ... .. . ... ... ... : ... .. . ... ... ... : ... .. . ... ... ... : ... .. . ... ... ... : ... .. . ... ... ... : ... .. . ... ... ... : ... .. . ... ... ... : ... .. . ... ... ...
ROW C1 : ... .. . ... ... ... : ... .. . ... ... ... : ... .. . ... ... ... : ... .. . ... ... ... : ... .. . ... ... ... : ... .. . ... ... ... : ... .. . ... ... ... : ... .. . ... ... ...
ROW C2 : ... .. . ... ... ... : ... .. . ... ... ... : ... .. . ... ... ... : ... .. . ... ... ... : ... .. . ... ... ... : ... .. . ... ... ... : ... .. . ... ... ... : ... .. . ... ... ...
ROW C3 : ... .. . ... ... ... : ... .. . ... ... ... : ... .. . ... ... ... : ... .. . ... ... ... : ... .. . ... ... ... : ... .. . ... ... ... : ... .. . ... ... ... : ... .. . ... ... ...
ROW C4 : ... .. . ... ... ... : ... .. . ... ... ... : ... .. . ... ... ... : ... .. . ... ... ... : ... .. . ... ... ... : ... .. . ... ... ... : ... .. . ... ... ... : ... .. . ... ... ...
ROW C5 : ... .. . ... ... ... : ... .. . ... ... ... : ... .. . ... ... ... : ... .. . ... ... ... : ... .. . ... ... ... : ... .. . ... ... ... : ... .. . ... ... ... : ... .. . ... ... ...
ROW C6 : ... .. . ... ... ... : ... .. . ... ... ... : ... .. . ... ... ... : ... .. . ... ... ... : ... .. . ... ... ... : ... .. . ... ... ... : ... .. . ... ... ... : ... .. . ... ... ...
ROW C7 : ... .. . ... ... ... : ... .. . ... ... ... : ... .. . ... ... ... : ... .. . ... ... ... : ... .. . ... ... ... : ... .. . ... ... ... : ... .. . ... ... ... : ... .. . ... ... ...
ROW C8 : ... .. . ... ... ... : ... .. . ... ... ... : ... .. . ... ... ... : ... .. . ... ... ... : ... .. . ... ... ... : ... .. . ... ... ... : ... .. . ... ... ... : ... .. . ... ... ...
ROW C9 : ... .. . ... ... ... : ... .. . ... ... ... : ... .. . ... ... ... : ... .. . ... ... ... : ... .. . ... ... ... : ... .. . ... ... ... : ... .. . ... ... ... : ... .. . ... ... ...
ROW CA : ... .. . ... ... ... : ... .. . ... ... ... : ... .. . ... ... ... : ... .. . ... ... ... : ... .. . ... ... ... : ... .. . ... ... ... : ... .. . ... ... ... : ... .. . ... ... ...
ROW CB : ... .. . ... ... ... : ... .. . ... ... ... : ... .. . ... ... ... : ... .. . ... ... ... : ... .. . ... ... ... : ... .. . ... ... ... : ... .. . ... ... ... : ... .. . ... ... ...
ROW CC : ... .. . ... ... ... : ... .. . ... ... ... : ... .. . ... ... ... : ... .. . ... ... ... : ... .. . ... ... ... : ... .. . ... ... ... : ... .. . ... ... ... : ... .. . ... ... ...
ROW CD : ... .. . ... ... ... : ... .. . ... ... ... : ... .. . ... ... ... : ... .. . ... ... ... : ... .. . ... ... ... : ... .. . ... ... ... : ... .. . ... ... ... : ... .. . ... ... ...
ROW CE : ... .. . ... ... ... : ... .. . ... ... ... : ... .. . ... ... ... : ... .. . ... ... ... : ... .. . ... ... ... : ... .. . ... ... ... : ... .. . ... ... ... : ... .. . ... ... ...
ROW CF : ... .. . ... ... ... : ... .. . ... ... ... : ... .. . ... ... ... : ... .. . ... ... ... : ... .. . ... ... ... : ... .. . ... ... ... : ... .. . ... ... ... : ... .. . ... ... ...
ROW D0 : ... .. . ... ... ... : ... .. . ... ... ... : ... .. . ... ... ... : ... .. . ... ... ... : ... .. . ... ... ... : ... .. . ... ... ... : ... .. . ... ... ... : ... .. . ... ... ...
ROW D1 : ... .. . ... ... ... : ... .. . ... ... ... : ... .. . ... ... ... : ... .. . ... ... ... : ... .. . ... ... ... : ... .. . ... ... ... : ... .. . ... ... ... : ... .. . ... ... ...
ROW D2 : ... .. . ... ... ... : ... .. . ... ... ... : ... .. . ... ... ... : ... .. . ... ... ... : ... .. . ... ... ... : ... .. . ... ... ... : ... .. . ... ... ... : ... .. . ... ... ...
ROW D3 : ... .. . ... ... ... : ... .. . ... ... ... : ... .. . ... ... ... : ... .. . ... ... ... : ... .. . ... ... ... : ... .. . ... ... ... : ... .. . ... ... ... : ... .. . ... ... ...
ROW D4 : ... .. . ... ... ... : ... .. . ... ... ... : ... .. . ... ... ... : ... .. . ... ... ... : ... .. . ... ... ... : ... .. . ... ... ... : ... .. . ... ... ... : ... .. . ... ... ...
ROW D5 : ... .. . ... ... ... : ... .. . ... ... ... : ... .. . ... ... ... : ... .. . ... ... ... : ... .. . ... ... ... : ... .. . ... ... ... : ... .. . ... ... ... : ... .. . ... ... ...
ROW D6 : ... .. . ... ... ... : ... .. . ... ... ... : ... .. . ... ... ... : ... .. . ... ... ... : ... .. . ... ... ... : ... .. . ... ... ... : ... .. . ... ... ... : ... .. . ... ... ...
ROW D7 : ... .. . ... ... ... : ... .. . ... ... ... : ... .. . ... ... ... : ... .. . ... ... ... : ... .. . ... ... ... : ... .. . ... ... ... : ... .. . ... ... ... : ... .. . ... ... ...
ROW D8 : ... .. . ... ... ... : ... .. . ... ... ... : ... .. . ... ... ... : ... .. . ... ... ... : ... .. . ... ... ... : ... .. . ... ... ... : ... .. . ... ... ... : ... .. . ... ... ...
ROW D9 : ... .. . ... ... ... : ... .. . ... ... ... : ... .. . ... ... ... : ... .. . ... ... ... : ... .. . ... ... ... : ... .. . ... ... ... : ... .. . ... ... ... : ... .. . ... ... ...
ROW DA : ... .. . ... ... ... : ... .. . ... ... ... : ... .. . ... ... ... : ... .. . ... ... ... : ... .. . ... ... ... : ... .. . ... ... ... : ... .. . ... ... ... : ... .. . ... ... ...
ROW DB : ... .. . ... ... ... : ... .. . ... ... ... : ... .. . ... ... ... : ... .. . ... ... ... : ... .. . ... ... ... : ... .. . ... ... ... : ... .. . ... ... ... : ... .. . ... ... ...
ROW DC : ... .. . ... ... ... : ... .. . ... ... ... : ... .. . ... ... ... : ... .. . ... ... ... : ... .. . ... ... ... : ... .. . ... ... ... : ... .. . ... ... ... : ... .. . ... ... ...
ROW DD : ... .. . ... ... ... : ... .. . ... ... ... : ... .. . ... ... ... : ... .. . ... ... ... : ... .. . ... ... ... : ... .. . ... ... ... : ... .. . ... ... ... : ... .. . ... ... ...
ROW DE : ... .. . ... ... ... : ... .. . ... ... ... : ... .. . ... ... ... : ... .. . ... ... ... : ... .. . ... ... ... : ... .. . ... ... ... : ... .. . ... ... ... : ... .. . ... ... ...
ROW DF : ... .. . ... ... ... : ... .. . ... ... ... : ... .. . ... ... ... : ... .. . ... ... ... : ... .. . ... ... ... : ... .. . ... ... ... : ... .. . ... ... ... : ... .. . ... ... ...
ROW E0 : ... .. . ... ... ... : ... .. . ... ... ... : ... .. . ... ... ... : ... .. . ... ... ... : ... .. . ... ... ... : ... .. . ... ... ... : ... .. . ... ... ... : ... .. . ... ... ...
ROW E1 : ... .. . ... ... ... : ... .. . ... ... ... : ... .. . ... ... ... : ... .. . ... ... ... : ... .. . ... ... ... : ... .. . ... ... ... : ... .. . ... ... ... : ... .. . ... ... ...
ROW E2 : ... .. . ... ... ... : ... .. . ... ... ... : ... .. . ... ... ... : ... .. . ... ... ... : ... .. . ... ... ... : ... .. . ... ... ... : ... .. . ... ... ... : ... .. . ... ... ...
ROW E3 : ... .. . ... ... ... : ... .. . ... ... ... : ... .. . ... ... ... : ... .. . ... ... ... : ... .. . ... ... ... : ... .. . ... ... ... : ... .. . ... ... ... : ... .. . ... ... ...
ROW E4 : ... .. . ... ... ... : ... .. . ... ... ... : ... .. . ... ... ... : ... .. . ... ... ... : ... .. . ... ... ... : ... .. . ... ... ... : ... .. . ... ... ... : ... .. . ... ... ...
ROW E5 : ... .. . ... ... ... : ... .. . ... ... ... : ... .. . ... ... ... : ... .. . ... ... ... : ... .. . ... ... ... : ... .. . ... ... ... : ... .. . ... ... ... : ... .. . ... ... ...
ROW E6 : ... .. . ... ... ... : ... .. . ... ... ... : ... .. . ... ... ... : ... .. . ... ... ... : ... .. . ... ... ... : ... .. . ... ... ... : ... .. . ... ... ... : ... .. . ... ... ...
ROW E7 : ... .. . ... ... ... : ... .. . ... ... ... : ... .. . ... ... ... : ... .. . ... ... ... : ... .. . ... ... ... : ... .. . ... ... ... : ... .. . ... ... ... : ... .. . ... ... ...
ROW E8 : ... .. . ... ... ... : ... .. . ... ... ... : ... .. . ... ... ... : ... .. . ... ... ... : ... .. . ... ... ... : ... .. . ... ... ... : ... .. . ... ... ... : ... .. . ... ... ...
ROW E9 : ... .. . ... ... ... : ... .. . ... ... ... : ... .. . ... ... ... : ... .. . ... ... ... : ... .. . ... ... ... : ... .. . ... ... ... : ... .. . ... ... ... : ... .. . ... ... ...
ROW EA : ... .. . ... ... ... : ... .. . ... ... ... : ... .. . ... ... ... : ... .. . ... ... ... : ... .. . ... ... ... : ... .. . ... ... ... : ... .. . ... ... ... : ... .. . ... ... ...
ROW EB : ... .. . ... ... ... : ... .. . ... ... ... : ... .. . ... ... ... : ... .. . ... ... ... : ... .. . ... ... ... : ... .. . ... ... ... : ... .. . ... ... ... : ... .. . ... ... ...
ROW EC : ... .. . ... ... ... : ... .. . ... ... ... : ... .. . ... ... ... : ... .. . ... ... ... : ... .. . ... ... ... : ... .. . ... ... ... : ... .. . ... ... ... : ... .. . ... ... ...
ROW ED : ... .. . ... ... ... : ... .. . ... ... ... : ... .. . ... ... ... : ... .. . ... ... ... : ... .. . ... ... ... : ... .. . ... ... ... : ... .. . ... ... ... : ... .. . ... ... ...
ROW EE : ... .. . ... ... ... : ... .. . ... ... ... : ... .. . ... ... ... : ... .. . ... ... ... : ... .. . ... ... ... : ... .. . ... ... ... : ... .. . ... ... ... : ... .. . ... ... ...
ROW EF : ... .. . ... ... ... : ... .. . ... ... ... : ... .. . ... ... ... : ... .. . ... ... ... : ... .. . ... ... ... : ... .. . ... ... ... : ... .. . ... ... ... : ... .. . ... ... ...
ROW F0 : ... .. . ... ... ... : ... .. . ... ... ... : ... .. . ... ... ... : ... .. . ... ... ... : ... .. . ... ... ... : ... .. . ... ... ... : ... .. . ... ... ... : ... .. . ... ... ...
ROW F1 : ... .. . ... ... ... : ... .. . ... ... ... : ... .. . ... ... ... : ... .. . ... ... ... : ... .. . ... ... ... : ... .. . ... ... ... : ... .. . ... ... ... : ... .. . ... ... ...
ROW F2 : ... .. . ... ... ... : ... .. . ... ... ... : ... .. . ... ... ... : ... .. . ... ... ... : ... .. . ... ... ... : ... .. . ... ... ... : ... .. . ... ... ... : ... .. . ... ... ...
ROW F3 : ... .. . ... ... ... : ... .. . ... ... ... : ... .. . ... ... ... : ... .. . ... ... ... : ... .. . ... ... ... : ... .. . ... ... ... : ... .. . ... ... ... : ... .. . ... ... ...
ROW F4 : ... .. . ... ... ... : ... .. . ... ... ... : ... .. . ... ... ... : ... .. . ... ... ... : ... .. . ... ... ... : ... .. . ... ... ... : ... .. . ... ... ... : ... .. . ... ... ...
ROW F5 : ... .. . ... ... ... : ... .. . ... ... ... : ... .. . ... ... ... : ... .. . ... ... ... : ... .. . ... ... ... : ... .. . ... ... ... : ... .. . ... ... ... : ... .. . ... ... ...
ROW F6 : ... .. . ... ... ... : ... .. . ... ... ... : ... .. . ... ... ... : ... .. . ... ... ... : ... .. . ... ... ... : ... .. . ... ... ... : ... .. . ... ... ... : ... .. . ... ... ...
ROW F7 : ... .. . ... ... ... : ... .. . ... ... ... : ... .. . ... ... ... : ... .. . ... ... ... : ... .. . ... ... ... : ... .. . ... ... ... : ... .. . ... ... ... : ... .. . ... ... ...
ROW F8 : ... .. . ... ... ... : ... .. . ... ... ... : ... .. . ... ... ... : ... .. . ... ... ... : ... .. . ... ... ... : ... .. . ... ... ... : ... .. . ... ... ... : ... .. . ... ... ...
ROW F9 : ... .. . ... ... ... : ... .. . ... ... ... : ... .. . ... ... ... : ... .. . ... ... ... : ... .. . ... ... ... : ... .. . ... ... ... : ... .. . ... ... ... : ... .. . ... ... ...
ROW FA : ... .. . ... ... ... : ... .. . ... ... ... : ... .. . ... ... ... : ... .. . ... ... ... : ... .. . ... ... ... : ... .. . ... ... ... : ... .. . ... ... ... : ... .. . ... ... ...
ROW FB : ... .. . ... ... ... : ... .. . ... ... ... : ... .. . ... ... ... : ... .. . ... ... ... : ... .. . ... ... ... : ... .. . ... ... ... : ... .. . ... ... ... : ... .. . ... ... ...
ROW FC : ... .. . ... ... ... : ... .. . ... ... ... : ... .. . ... ... ... : ... .. . ... ... ... : ... .. . ... ... ... : ... .. . ... ... ... : ... .. . ... ... ... : ... .. . ... ... ...
ROW FD : ... .. . ... ... ... : ... .. . ... ... ... : ... .. . ... ... ... : ... .. . ... ... ... : ... .. . ... ... ... : ... .. . ... ... ... : ... .. . ... ... ... : ... .. . ... ... ...
ROW FE : ... .. . ... ... ... : ... .. . ... ... ... : ... .. . ... ... ... : ... .. . ... ... ... : ... .. . ... ... ... : ... .. . ... ... ... : ... .. . ... ... ... : ... .. . ... ... ...
ROW FF : ... .. . ... ... ... : ... .. . ... ... ... : ... .. . ... ... ... : ... .. . ... ... ... : ... .. . ... ... ... : ... .. . ... ... ... : ... .. . ... ... ... : ... .. . ... ... ...

# End of export
