# FamiTracker text export 0.4.2

# Song information
TITLE           "Macro"
AUTHOR          "ipi"
COPYRIGHT       "25/04/2015"

# Song comment
COMMENT "- FM bass is cool, make that more prominent"
COMMENT "- leads with massive FM-ish vibrato and then pitch down. think"
COMMENT "that one chibitech song"
COMMENT "- try more compression?"
COMMENT "- sync lead volume envelope"

# Global settings
MACHINE         0
FRAMERATE       183
EXPANSION       0
VIBRATO         1
SPLIT           32

# Macros
MACRO       0   0  -1  -1   0 : 6 9 7 6 6 5 4 4 3 3 3 3 2 2 2 2 2 1 1 0
MACRO       0   1  -1  -1   0 : 7 7 6 5 4 4 3 2 2 1 1 1 1 2 2 1 0
MACRO       0   2  -1  -1   0 : 7 7 7 7 6 6 6 6 6 6 6 6 6 6 5 5 5 5 5 5 5 5 5 5 4 4 4 4 4 4 4 4 4 4 3 3 3 3 3 3 3 3 3 2 2 2 2 2 2 2 2 2 2 1 1 1 1 1 1 1 1 1 1 0
MACRO       0   3  -1  -1   0 : 10 9 8 7 7 7 7 6 6 6 6 6 6 5 4 5 5 6 5 4 4 3 3 2 2 1 1 2 2 1 1 1 0 0
MACRO       0   4  -1  22   0 : 9 9 8 8 8 7 8 7 8 7 8 7 8 7 8 7 8 7 8 7 8 7 8 7 6 5 4 3 2 1 0
MACRO       0   5  17  -1   0 : 4 5 5 6 6 6 6 6 7 7 7 7 7 6 6 6 6 5 5 5 5 4 4 4 4 4 3 3 3 3 3 3 3 4 4 4
MACRO       0   6  -1  22   0 : 11 10 10 9 9 9 9 8 9 8 9 8 9 8 9 8 9 8 9 8 9 8 9 7 6 5 4 3 2 1 0
MACRO       0   7  -1  -1   0 : 11 11 11 11 11 11 11 10 10 10 10 10 10 10 9 9 9 9 9 9 8 8 8 8 8 8 8 8 7 7 7 7 8 8 8 8 8 8 8 9 9 9 9 9 9 9 10 10 10 10 10 10 10 10 10 9 9 9 8 8 8 8 7 7 7 7 6 6 6 6 5 5 5 5 5 5 6 6 6 6 6 6 7 7 7 7 7 7 8 8 8 8 8 8 8 8 8 8 8 8 7 7 7 7 6 6 6 6 5 5 5 4 4 4 4 3 4 4 4 4 5 5 5 5 6 6 6 6 6 7 7 7 7 7 6 7 7 6 6 6 6 6 5 5 5 5 5 5 4 4 4 4 4 3 3 3 3 3 3 3 4 4 4 4 4 5 5 5 5 5 5 5 5 5 5 4 4 4 4 4 4 3 3 3 3 2 2 2 1 2 2 2 2 3 3 3 3 3 4 4 4 4 4 3 3 3 2 2 2 2 2 1 1 1 1 1 1 1 1 0 0 0
MACRO       0   8  -1  -1   0 : 7 6 6 6 5 5 4 4 4 5 5 5 6 5 5 5 4 4 3 3 3 3 3 3 3 3 4 4 4 4 4 4 3 2 2 1 1 1 1 2 2 2 3 3 3 3 3 2 2 2 1 1 1 1 1 1 1 1 1 1 1 1 1 1
MACRO       0   9  17  -1   0 : 5 6 6 7 7 7 7 7 8 8 8 8 8 7 7 7 7 6 6 6 6 5 5 5 5 5 4 4 4 4 4 4 4 5 5 5
MACRO       0  10  -1  -1   0 : 1 2 2 2 3 3 4 4 4 5 5 6 6 7 7 7 8 8 9 9 10 10 10 11
MACRO       0  11  -1  -1   0 : 12 12 11 10 10 10 9 9 9 8 8 8 7 7 7 7 7 7 6 6 6 6 6 6 6 6 5 5 5 5 5 5 5 5 4 4 4 4 4 4 4 4 4 3 3 3 3 3 3 3 3 3 3 3 3 3 3 3 3 3 3 3 3 3 3 3 3 3 3 3 3 3 2 2 2 2 2 2 2 2 2 2 2 2 2 2 2 2 2 2 2 2 2 2 2 2 2 2 2 2 2 2 1 1 1 1 1 1 1 1 1 0 0 0
MACRO       0  12  17  -1   0 : 2 3 3 4 4 4 4 4 5 5 5 5 5 4 4 4 4 3 3 3 3 2 2 2 2 2 1 1 1 1 1 1 1 2 2 2
MACRO       0  13  32  -1   0 : 12 11 10 10 9 9 9 8 9 8 9 8 8 7 8 7 8 7 7 6 7 6 7 6 7 7 8 7 8 8 7 7 6 7 6 7 6 7 6 7 6 6 6 6 5 6 5 6 5 4 4 5 4 5 4 4 4 5 4 5 5 6 5 6
MACRO       0  14  -1  -1   0 : 9 8 7 6 5 5 4 3 2 1 1 0
MACRO       0  15  -1  -1   0 : 4 5 6 7 8 9 10 11
MACRO       0  16  -1  -1   0 : 5 6 5 5 5 5 5 5 4 4 4 4 4 4 4 4 4 4 3 3 3 3 3 3 3 3 3 2 2 2 2 2 2 2 2 2 2 1 1 1 1 1 1 1 1 1 1 0
MACRO       0  17  32  -1   0 : 10 9 8 8 7 7 7 6 7 6 7 6 6 5 6 5 6 6 5 4 5 4 5 4 5 5 6 5 6 6 5 5 4 5 4 5 4 5 4 5 4 4 4 4 3 4 3 4 3 2 2 3 2 3 2 2 2 3 2 3 3 4 3 4
MACRO       0  18  -1  41   0 : 10 10 10 10 10 10 9 9 9 9 9 9 9 9 9 9 9 9 9 9 9 9 9 9 9 9 9 9 9 9 9 9 8 8 8 8 8 8 8 8 8 8 7 7 6 6 5 4 4 3 3 2 2 2 2 2 2 2 1 1 1 1 1 1 1 1 1 1 1 1 1 1 0
MACRO       0  19  -1  22   0 : 8 7 7 6 6 6 6 5 6 5 6 5 6 5 6 5 6 5 6 5 6 5 6 5 4 3 2 1 0
MACRO       0  20  46  -1   0 : 5 5 4 4 4 4 3 3 3 3 2 2 2 2 2 1 1 1 1 1 1 1 1 2 2 2 3 3 4 3 4 3 4 3 3 3 2 2 1 1 1 1 1 0 0 0 0 0 0 0 0 0 1 1 1 2 2 2 3 2 3 2 2 2 1 1 0
MACRO       0  21  -1  -1   0 : 7 7 6 6 6 5 5 5 4 4 4 3 3 3 2 2 2 1 1 1 1 2 2 2 3 3 3 4 4 4 5 5 4 4 3 3 3 2 2 1 1 1 1 1 0 0 0 1 1 1 1 1 2 2 2 2 3 3 3 3 2 2 2 1 1 1 1 0 0 0 0 0 0 0 0 1 1 1 1 1 0
MACRO       0  22  -1  23   0 : 4 4 4 4 4 4 3 3 3 3 3 3 3 3 3 3 3 3 3 3 3 3 3 2 2 2 2 2 2 2 2 2 1 1 1 1 1 1 1 1 0
MACRO       0  23  -1   0   0 : 15 12 10 8 6 4 2 0
MACRO       0  24  -1  -1   0 : 0 1 1 1 1 1 1 1 1 1 1 1 2
MACRO       1   0  -1  -1   0 : 12 0
MACRO       1   1  -1  -1   0 : -3 3 2 2 1 1 1 1 1 1 1 1 0 1 0
MACRO       1   2  -1  -1   0 : 1 -2 -1 0 -1 0 1
MACRO       1   3  -1  -1   0 : 1 -4 -3 -2 -1 0 0 0 0 0 0 0 0 0 -1
MACRO       1   4  -1  -1   0 : 12 12 1 0
MACRO       1   5   0  -1   0 : 0 0 0 0 0 0 0 0 5 5 5 5 5 5 5 5
MACRO       1   6   0  -1   0 : 0 0 0 0 0 0 0 0 3 3 3 3 3 3 3 3
MACRO       1   7   0  -1   0 : 0 0 0 0 0 0 0 0 8 8 8 8 8 8 8 8
MACRO       1   8   0  -1   0 : 0 0 0 0 0 0 5 5 5 5 9 9 9 9 9 9
MACRO       1   9  -1  -1   0 : -3 -3 -3 -3 -3 -2 -2 -2 -2 -2 -2 -2 -2 -1 -1 -1 -1 -1 -1 -1 0 0 0 0
MACRO       1  10  30  -1   0 : 0 1 0 0 0 0 0 0 0 0 0 0 0 0 -1 -1 -1 -1 -1 -1 -1 -1 -1 -1 -1 -1 -1 -1 -1 -1 -2 -2 -2 -2 -1 -1 -1
MACRO       1  11  -1  -1   0 : -3 -1 1
MACRO       1  12   0  -1   0 : 0 0 0 0 0 0 0 0 6 6 6 6 6 6 6 6
MACRO       1  13   0  -1   0 : 0 0 0 0 0 0 0 0 4 4 4 4 4 4 4 4
MACRO       1  14   0  -1   0 : 0 0 0 0 0 0 0 0 7 7 7 7 7 7 7 7
MACRO       1  15  -1  -1   0 : 12 12 12 0
MACRO       1  16  -1  -1   0 : 3 3 0
MACRO       1  17  -1  -1   0 : 3 3 3 3 0
MACRO       1  18   0  -1   0 : 0 0 0 0 0 0 5 5 5 5 8 8 8 8 8 8
MACRO       1  19   0  -1   0 : 0 0 0 0 0 0 3 3 3 3 5 5 5 5 5 5
MACRO       1  20   0  -1   0 : 0 0 0 0 0 0 3 3 3 3 7 7 7 7 7 7
MACRO       1  21   0  -1   0 : 0 0 0 0 0 0 2 2 2 2 6 6 6 6 6 6
MACRO       1  22   0  -1   0 : 0 0 0 0 0 0 3 3 3 3 6 6 6 6 6 6
MACRO       1  23   0  -1   0 : 0 0 0 0 0 0 4 4 4 4 7 7 7 7 7 7
MACRO       1  24   0  -1   0 : 0 0 0 0 0 0 3 3 3 3 8 8 8 8 8 8
MACRO       2   0   0  -1   0 : 75
MACRO       2   1   4  -1   0 : 1 1 1 5 10
MACRO       2   2   0  -1   0 : 1 1 1 0 1 0 -1 0 -1 -2 -1 -1 -1 0 1 0 1 1
MACRO       2   3   1  -1   0 : 4 1 1 0 1 0 -1 0 -1 -2 -2 -1 -1 0 1 0 1 1 2
MACRO       2   4   2  -1   0 : 2 2 8
MACRO       2   5   0  -1   0 : 1 -1 -1 1
MACRO       2   6   0  -1   0 : -10 10
MACRO       3   0   0  -1   0 : 5 -5 -5 5
MACRO       4   0  -1  -1   0 : 0 1 1 0
MACRO       4   1  -1  -1   0 : 0 1 0
MACRO       4   2  -1  -1   0 : 0 1 1 1 1 0 1 0 1 0
MACRO       4   3  -1  -1   0 : 2 1 1 1 1 1 1 0
MACRO       4   4  -1  -1   0 : 2 1
MACRO       4   5   0  -1   0 : 0 0 1 0 0 0 1
MACRO       4   6  -1  -1   0 : 2 2 2 2 1
MACRO       4   7  -1  -1   0 : 0 1 1 0
MACRO       4   8  -1  -1   0 : 2 2 2 2 0
MACRO       4   9  -1  -1   0 : 1 1 1 1 2
MACRO       4  10  -1  -1   0 : 0
MACRO       4  11  -1  -1   0 : 2 2 2 2 2 2 2 3
MACRO       4  12  -1  -1   0 : 2

# DPCM samples

# Instruments
INST2A03   0    -1  -1  -1  -1  -1 "Blank"
INST2A03   1    -1   0  -1  -1  -1 "Hard Bass"
INST2A03   2    -1  -1   0  -1  -1 "Tri Kick"
INST2A03   3    -1  -1   1  -1  -1 "Tri Snare"
INST2A03   4     0   1  -1  -1   0 "Kick + C. Hihat"
INST2A03   5     1   2  -1  -1   1 "C. Hihat"
INST2A03   6     2   2  -1  -1   0 "O. Hihat"
INST2A03   7     3   3  -1  -1   2 "Snare"
INST2A03   8     4   4  -1  -1  -1 "Sq. Hard Bass"
INST2A03   9     6   4  -1   0  -1 """FM"" Hard Bass"
INST2A03  10     5   5  -1  -1  -1 "BG Chord 05"
INST2A03  11     5   6  -1  -1  -1 "BG Chord 03"
INST2A03  12     5   7  -1  -1  -1 "BG Chord 08"
INST2A03  13     7  -1   2  -1   3 "Lead 1"
INST2A03  14     8  -1   3  -1   4 "Lead 1 Echo"
INST2A03  15     9   8  -1  -1  -1 "BG Chord 059"
INST2A03  16    -1  -1   4  -1  -1 "Toms"
INST2A03  17    10   9  -1  -1   5 "Crash Fade In (-24)"
INST2A03  18    11  10  -1  -1   5 "Crash"
INST2A03  19    12  -1  -1  -1  -1 "BG Chord Poly"
INST2A03  20    13  -1   5  -1   6 "Lead 2"
INST2A03  21     5  -1  -1  -1  -1 "BG Chord Poly Loud"
INST2A03  22    14   2  -1  -1   1 "Stick Thing"
INST2A03  23    15   9  -1  -1   5 "Crash Fade In (-8)"
INST2A03  24    16  11  -1  -1  -1 "O. Hihat +16"
INST2A03  25    17  -1   5  -1   6 "Lead 2 Harmony/Echo"
INST2A03  26    18  -1  -1  -1   8 "Lead 3"
INST2A03  27     5  12  -1  -1  -1 "BG Chord 06"
INST2A03  28     5  13  -1  -1  -1 "BG Chord 04"
INST2A03  29     5  14  -1  -1  -1 "BG Chord 07"
INST2A03  30    19   4   6  -1  -1 """FM"" Hard Bass 2"
INST2A03  31    22  -1  -1  -1  -1 "Lead 3 Echo"
INST2A03  32    20  16  -1  -1   9 "Pulsate"
INST2A03  33    21  15  -1  -1   9 "Pulsate Loud"
INST2A03  34     7  -1   2  -1  11 "Lead 1a"
INST2A03  35    23  17  -1  -1  12 "Tri Lead"
INST2A03  36    24  -1  -1  -1  -1 "Thing"
INST2A03  37     9  18  -1  -1  -1 "BG Chord 058"
INST2A03  38     9  19  -1  -1  -1 "BG Chord 035"
INST2A03  39     9  20  -1  -1  -1 "BG Chord 037"
INST2A03  40     9  21  -1  -1  -1 "BG Chord 026"
INST2A03  41     9  22  -1  -1  -1 "BG Chord 036"
INST2A03  42     9  23  -1  -1  -1 "BG Chord 047"
INST2A03  43     9  24  -1  -1  -1 "BG Chord 038"

# Tracks

TRACK  64   8 464 "New song"
COLUMNS : 1 1 1 1 1

ORDER 00 : 0F 0C 0D 06 00
ORDER 01 : 10 0D 0E 00 00
ORDER 02 : 11 0E 0F 00 00
ORDER 03 : 12 0F 10 0C 00
ORDER 04 : 0F 0C 0D 06 00
ORDER 05 : 13 0D 0E 00 00
ORDER 06 : 14 10 11 00 00
ORDER 07 : 21 1D 1E 18 00
ORDER 08 : 22 0C 0D 06 00
ORDER 09 : 23 0D 0E 00 00
ORDER 0A : 24 0E 0F 00 00
ORDER 0B : 25 0F 10 0C 00
ORDER 0C : 22 0C 0D 06 00
ORDER 0D : 26 0D 0E 00 00
ORDER 0E : 27 10 11 00 00
ORDER 0F : 28 11 12 01 00
ORDER 10 : 0C 07 07 06 00
ORDER 11 : 0C 08 07 00 00
ORDER 12 : 0C 09 07 00 00
ORDER 13 : 29 1E 1F 19 00

PATTERN 00
ROW 00 : D#2 0D B P80 : D#1 08 C V02 : C-5 02 . ... : 0-# 04 F ... : ... .. . F08
ROW 01 : ... .. D ... : ... .. D ... : D#2 00 . S0E : ... .. . ... : ... .. . ...
ROW 02 : ... .. E ... : ... .. F ... : ... .. . ... : ... .. . ... : ... .. . ...
ROW 03 : ... .. F ... : === .. . ... : ... .. . ... : ... .. . ... : ... .. . ...
ROW 04 : ... .. . ... : D#1 08 . V01 : D#2 01 . ... : D-# 05 . ... : ... .. . ...
ROW 05 : ... .. . ... : ... .. . ... : ... .. . S0E : ... .. . ... : ... .. . ...
ROW 06 : ... .. . ... : ... .. . ... : ... .. . ... : D-# 05 5 ... : ... .. . ...
ROW 07 : ... .. . ... : === .. . ... : ... .. . ... : ... .. . ... : ... .. . ...
ROW 08 : ... .. D ... : D#1 08 B V00 : C-4 03 . ... : 9-# 07 F ... : ... .. . ...
ROW 09 : ... .. E ... : ... .. D ... : D#2 00 . S0E : ... .. . ... : ... .. . ...
ROW 0A : ... .. F ... : ... .. E ... : ... .. . ... : ... .. . ... : ... .. . ...
ROW 0B : ... .. . ... : === .. F ... : ... .. . ... : ... .. . ... : ... .. . ...
ROW 0C : ... .. . ... : D#1 08 . V02 : D#2 01 . ... : D-# 05 . ... : ... .. . ...
ROW 0D : ... .. . ... : ... .. . ... : ... .. . S0E : ... .. . ... : ... .. . ...
ROW 0E : ... .. . ... : ... .. . ... : ... .. . ... : D-# 05 A ... : ... .. . ...
ROW 0F : ... .. . ... : === .. . ... : ... .. . ... : ... .. . ... : ... .. . ...
ROW 10 : ... .. . ... : D#1 08 . V00 : D#2 01 . ... : D-# 05 F ... : ... .. . ...
ROW 11 : ... .. . ... : ... .. . ... : ... .. . S0E : ... .. . ... : ... .. . ...
ROW 12 : ... .. . ... : ... .. . ... : ... .. . ... : D-# 05 A ... : ... .. . ...
ROW 13 : ... .. . ... : === .. . ... : ... .. . ... : ... .. . ... : ... .. . ...
ROW 14 : ... .. E ... : D#1 08 C V01 : C-5 02 . ... : 0-# 04 F ... : ... .. . ...
ROW 15 : ... .. F ... : ... .. D ... : D#2 00 . S0E : ... .. . ... : ... .. . ...
ROW 16 : ... .. . ... : ... .. F ... : ... .. . ... : D-# 05 5 ... : ... .. . ...
ROW 17 : ... .. . ... : === .. . ... : ... .. . ... : ... .. . ... : ... .. . ...
ROW 18 : E-2 0E D ... : D#1 08 B V02 : C-4 03 . ... : 9-# 07 F ... : ... .. . ...
ROW 19 : ... .. E ... : ... .. D ... : D#2 00 . S0E : ... .. . ... : ... .. . ...
ROW 1A : ... .. F ... : ... .. E ... : ... .. . ... : ... .. . ... : ... .. . ...
ROW 1B : ... .. . ... : === .. F ... : ... .. . ... : ... .. . ... : ... .. . ...
ROW 1C : ... .. . ... : D#1 08 . V00 : D#2 01 . ... : D-# 05 . ... : ... .. . ...
ROW 1D : ... .. . ... : ... .. . ... : ... .. . S0E : ... .. . ... : ... .. . ...
ROW 1E : ... .. . ... : ... .. . ... : ... .. . ... : D-# 05 A ... : ... .. . ...
ROW 1F : ... .. . ... : === .. . ... : ... .. . ... : ... .. . ... : ... .. . ...
ROW 20 : G-2 0D E ... : D#1 08 C V02 : C-5 02 . ... : 0-# 04 F ... : ... .. . ...
ROW 21 : ... .. F ... : ... .. D ... : D#2 00 . S0E : ... .. . ... : ... .. . ...
ROW 22 : ... .. . ... : ... .. F ... : ... .. . ... : ... .. . ... : ... .. . ...
ROW 23 : ... .. . ... : === .. . ... : ... .. . ... : ... .. . ... : ... .. . ...
ROW 24 : ... .. . ... : D#1 08 . V01 : D#2 01 . ... : D-# 05 . ... : ... .. . ...
ROW 25 : ... .. . ... : ... .. . ... : ... .. . S0E : ... .. . ... : ... .. . ...
ROW 26 : ... .. . ... : ... .. . ... : ... .. . ... : D-# 05 5 ... : ... .. . ...
ROW 27 : ... .. . ... : === .. . ... : ... .. . ... : ... .. . ... : ... .. . ...
ROW 28 : ... .. D ... : D#1 08 B V00 : C-4 03 . ... : 9-# 07 F ... : ... .. . ...
ROW 29 : ... .. E ... : ... .. D ... : D#2 00 . S0E : ... .. . ... : ... .. . ...
ROW 2A : ... .. F ... : ... .. E ... : ... .. . ... : ... .. . ... : ... .. . ...
ROW 2B : ... .. . ... : === .. F ... : ... .. . ... : ... .. . ... : ... .. . ...
ROW 2C : ... .. . ... : D#1 08 . V02 : D#2 01 . ... : D-# 05 . ... : ... .. . ...
ROW 2D : ... .. . ... : ... .. . ... : ... .. . S0E : ... .. . ... : ... .. . ...
ROW 2E : ... .. . ... : ... .. . ... : ... .. . ... : D-# 05 A ... : ... .. . ...
ROW 2F : ... .. . ... : === .. . ... : ... .. . ... : ... .. . ... : ... .. . ...
ROW 30 : ... .. . ... : D#1 08 . V00 : D#2 01 . ... : D-# 05 F ... : ... .. . ...
ROW 31 : ... .. . ... : ... .. . ... : ... .. . S0E : ... .. . ... : ... .. . ...
ROW 32 : ... .. . ... : ... .. . ... : ... .. . ... : D-# 05 A ... : ... .. . ...
ROW 33 : ... .. . ... : === .. . ... : ... .. . ... : ... .. . ... : ... .. . ...
ROW 34 : ... .. E ... : D#2 08 C ... : C-5 02 . ... : 0-# 04 F ... : ... .. . ...
ROW 35 : ... .. F ... : ... .. D ... : D#3 00 . S0E : ... .. . ... : ... .. . ...
ROW 36 : ... .. . ... : ... .. F V01 : ... .. . ... : D-# 05 5 ... : ... .. . ...
ROW 37 : ... .. . ... : === .. . ... : ... .. . ... : ... .. . ... : ... .. . ...
ROW 38 : G#2 0E D ... : D#1 08 B V02 : C-4 03 . ... : 9-# 07 F ... : ... .. . ...
ROW 39 : ... .. E ... : ... .. D ... : D#2 00 . S0E : ... .. . ... : ... .. . ...
ROW 3A : ... .. F ... : ... .. E ... : ... .. . ... : ... .. . ... : ... .. . ...
ROW 3B : ... .. . ... : === .. F ... : ... .. . ... : ... .. . ... : ... .. . ...
ROW 3C : ... .. . ... : D#1 08 . V01 : D#2 01 . ... : D-# 05 . ... : ... .. . ...
ROW 3D : ... .. . ... : ... .. . ... : ... .. . S0E : ... .. . ... : ... .. . ...
ROW 3E : ... .. . ... : ... .. . ... : ... .. . ... : D-# 05 A ... : ... .. . ...
ROW 3F : ... .. . ... : === .. . ... : ... .. . ... : ... .. . ... : ... .. . ...

PATTERN 01
ROW 00 : A#2 0D E ... : E-1 08 C V02 : C-5 02 . ... : 0-# 04 F ... : ... .. . F08
ROW 01 : ... .. F ... : ... .. D ... : E-2 00 . S0E : ... .. . ... : ... .. . ...
ROW 02 : ... .. . ... : ... .. F ... : ... .. . ... : ... .. . ... : ... .. . ...
ROW 03 : ... .. . ... : === .. . ... : ... .. . ... : ... .. . ... : ... .. . ...
ROW 04 : ... .. . ... : E-1 08 . V01 : E-2 01 . ... : D-# 05 . ... : ... .. . ...
ROW 05 : ... .. . ... : ... .. . ... : ... .. . S0E : ... .. . ... : ... .. . ...
ROW 06 : ... .. . ... : ... .. . ... : ... .. . ... : D-# 05 5 ... : ... .. . ...
ROW 07 : ... .. . ... : === .. . ... : ... .. . ... : ... .. . ... : ... .. . ...
ROW 08 : ... .. D ... : E-1 08 B V00 : C-4 03 . ... : 9-# 07 F ... : ... .. . ...
ROW 09 : ... .. E ... : ... .. D ... : E-2 00 . S0E : ... .. . ... : ... .. . ...
ROW 0A : ... .. F ... : ... .. E ... : ... .. . ... : ... .. . ... : ... .. . ...
ROW 0B : ... .. . ... : === .. F ... : ... .. . ... : ... .. . ... : ... .. . ...
ROW 0C : ... .. . ... : E-1 08 . V02 : E-2 01 . ... : D-# 05 . ... : ... .. . ...
ROW 0D : ... .. . ... : ... .. . ... : ... .. . S0E : ... .. . ... : ... .. . ...
ROW 0E : ... .. . ... : ... .. . ... : ... .. . ... : D-# 05 A ... : ... .. . ...
ROW 0F : ... .. . ... : === .. . ... : ... .. . ... : ... .. . ... : ... .. . ...
ROW 10 : ... .. . ... : E-1 08 . V00 : E-2 01 . ... : D-# 05 F ... : ... .. . ...
ROW 11 : ... .. . ... : ... .. . ... : ... .. . S0E : ... .. . ... : ... .. . ...
ROW 12 : ... .. . ... : ... .. . ... : ... .. . ... : D-# 05 A ... : ... .. . ...
ROW 13 : ... .. . ... : === .. . ... : ... .. . ... : ... .. . ... : ... .. . ...
ROW 14 : ... .. E ... : E-1 08 C V01 : C-5 02 . ... : 0-# 04 F ... : ... .. . ...
ROW 15 : ... .. F ... : ... .. D ... : E-2 00 . S0E : ... .. . ... : ... .. . ...
ROW 16 : ... .. . ... : ... .. F ... : ... .. . ... : D-# 05 5 ... : ... .. . ...
ROW 17 : ... .. . ... : === .. . ... : ... .. . ... : ... .. . ... : ... .. . ...
ROW 18 : D-3 0E D ... : E-1 08 B V02 : C-4 03 . ... : 9-# 07 F ... : ... .. . ...
ROW 19 : ... .. E ... : ... .. D ... : E-2 00 . S0E : ... .. . ... : ... .. . ...
ROW 1A : ... .. F ... : ... .. E ... : ... .. . ... : ... .. . ... : ... .. . ...
ROW 1B : ... .. . ... : === .. F ... : ... .. . ... : ... .. . ... : ... .. . ...
ROW 1C : ... .. . ... : E-1 08 . V00 : E-2 01 . ... : D-# 05 . ... : ... .. . ...
ROW 1D : ... .. . ... : ... .. . ... : ... .. . S0E : ... .. . ... : ... .. . ...
ROW 1E : ... .. . ... : ... .. . ... : ... .. . ... : D-# 05 A ... : ... .. . ...
ROW 1F : ... .. . ... : === .. . ... : ... .. . ... : 0-# 04 F GFF : ... .. . ...
ROW 20 : D#3 0D E ... : E-1 08 C V02 : C-5 02 . ... : D-# 06 . G06 : ... .. . ...
ROW 21 : ... .. F ... : ... .. D ... : E-2 00 . S0E : ... .. . ... : ... .. . ...
ROW 22 : ... .. . ... : ... .. F ... : ... .. . ... : ... .. . ... : ... .. . ...
ROW 23 : ... .. . ... : === .. . ... : ... .. . ... : ... .. . ... : ... .. . ...
ROW 24 : ... .. . ... : E-1 08 . V01 : E-2 01 . ... : ... .. . ... : ... .. . ...
ROW 25 : ... .. . ... : ... .. . ... : ... .. . S0E : ... .. . ... : ... .. . ...
ROW 26 : ... .. . ... : ... .. . ... : ... .. . ... : ... .. . ... : ... .. . ...
ROW 27 : ... .. . ... : === .. . ... : ... .. . ... : 0-# 04 F GFF : ... .. . ...
ROW 28 : ... .. D ... : E-1 08 B V00 : C-4 03 . ... : D-# 06 . G06 : ... .. . ...
ROW 29 : ... .. E ... : ... .. D ... : E-2 00 . S0E : ... .. . ... : ... .. . ...
ROW 2A : ... .. F ... : ... .. E ... : ... .. . ... : ... .. . ... : ... .. . ...
ROW 2B : ... .. . ... : === .. F ... : ... .. . ... : ... .. . ... : ... .. . ...
ROW 2C : ... .. . ... : E-1 08 . V02 : E-2 01 . ... : ... .. . ... : ... .. . ...
ROW 2D : ... .. . ... : ... .. . ... : ... .. . S0E : ... .. . ... : ... .. . ...
ROW 2E : ... .. . ... : ... .. . ... : ... .. . ... : D-# 05 A ... : ... .. . ...
ROW 2F : ... .. . ... : === .. . ... : ... .. . ... : 0-# 04 F GFF : ... .. . D00
ROW 30 : ... .. . ... : E-1 08 . V00 : E-2 01 . ... : D-# 06 . G06 : ... .. . ...
ROW 31 : ... .. . ... : ... .. . ... : ... .. . S0E : ... .. . ... : ... .. . ...
ROW 32 : ... .. . ... : ... .. . ... : ... .. . ... : ... .. . ... : ... .. . ...
ROW 33 : ... .. . ... : === .. . ... : ... .. . ... : ... .. . ... : ... .. . ...
ROW 34 : ... .. E ... : E-2 08 C ... : C-5 02 . ... : D-# 05 . ... : ... .. . ...
ROW 35 : ... .. F ... : ... .. D ... : E-3 00 . S0E : ... .. . ... : ... .. . ...
ROW 36 : ... .. . ... : ... .. F V01 : ... .. . ... : D-# 05 A ... : ... .. . ...
ROW 37 : ... .. . ... : === .. . ... : ... .. . ... : ... .. . ... : ... .. . ...
ROW 38 : B-2 0E D ... : E-1 08 B V02 : C-4 03 . ... : 9-# 07 F ... : ... .. . ...
ROW 39 : ... .. E ... : ... .. D ... : E-2 00 . S0E : ... .. . ... : ... .. . ...
ROW 3A : ... .. F ... : ... .. E ... : ... .. . ... : ... .. . ... : ... .. . ...
ROW 3B : ... .. . ... : === .. F ... : ... .. . ... : ... .. . ... : ... .. . ...
ROW 3C : ... .. . ... : E-1 08 . V01 : E-2 01 . ... : 0-# 04 . ... : ... .. . ...
ROW 3D : ... .. . ... : ... .. . ... : ... .. . S0E : B-# 11 . ... : ... .. . ...
ROW 3E : ... .. . ... : ... .. . ... : ... .. . ... : ... .. . ... : ... .. . ...
ROW 3F : ... .. . ... : === .. . ... : ... .. . ... : ... .. . ... : ... .. . ...

PATTERN 02
ROW 00 : A#2 0D E ... : D#1 08 C V02 : C-5 02 . ... : B-# 12 . ... : ... .. . F02
ROW 01 : ... .. F ... : ... .. D ... : D#2 00 . S0E : ... .. . ... : ... .. . ...
ROW 02 : ... .. . ... : ... .. F ... : ... .. . ... : ... .. . ... : ... .. . ...
ROW 03 : ... .. . ... : === .. . ... : ... .. . ... : ... .. . ... : ... .. . ...
ROW 04 : ... .. . ... : D#1 08 . V01 : D#2 01 . ... : ... .. . ... : ... .. . ...
ROW 05 : ... .. . ... : ... .. . ... : ... .. . S0E : ... .. . ... : ... .. . ...
ROW 06 : ... .. . ... : ... .. . ... : ... .. . ... : ... .. . ... : ... .. . ...
ROW 07 : ... .. . ... : === .. . ... : ... .. . ... : ... .. . ... : ... .. . ...
ROW 08 : ... .. D ... : D#1 08 B V00 : C-4 03 . ... : 6-# 16 . ... : ... .. . ...
ROW 09 : ... .. E ... : ... .. D ... : D#2 00 . S0E : ... .. . ... : ... .. . ...
ROW 0A : ... .. F ... : ... .. E ... : ... .. . ... : ... .. . ... : ... .. . ...
ROW 0B : ... .. . ... : === .. F ... : ... .. . ... : ... .. . ... : ... .. . ...
ROW 0C : ... .. . ... : D#1 08 . V02 : D#2 01 . ... : 0-# 04 . ... : ... .. . ...
ROW 0D : ... .. . ... : ... .. . ... : ... .. . S0E : ... .. . ... : ... .. . ...
ROW 0E : ... .. . ... : ... .. . ... : ... .. . ... : 6-# 16 . ... : ... .. . ...
ROW 0F : ... .. . ... : === .. . ... : ... .. . ... : ... .. . ... : ... .. . ...
ROW 10 : ... .. . ... : D#1 08 . V00 : D#2 01 . ... : 0-# 04 . ... : ... .. . ...
ROW 11 : ... .. . ... : ... .. . ... : ... .. . S0E : ... .. . ... : ... .. . ...
ROW 12 : ... .. . ... : ... .. . ... : ... .. . ... : ... .. . ... : ... .. . ...
ROW 13 : ... .. . ... : === .. . ... : ... .. . ... : ... .. . ... : ... .. . ...
ROW 14 : ... .. E ... : D#1 08 C V01 : C-5 02 . ... : 6-# 16 . ... : ... .. . ...
ROW 15 : ... .. F ... : ... .. D ... : D#2 00 . S0E : ... .. . ... : ... .. . ...
ROW 16 : ... .. . ... : ... .. F ... : ... .. . ... : ... .. . ... : ... .. . ...
ROW 17 : ... .. . ... : === .. . ... : ... .. . ... : ... .. . ... : ... .. . ...
ROW 18 : G#2 0E D ... : D#1 08 B V02 : C-4 03 . ... : E-# 05 . ... : ... .. . ...
ROW 19 : ... .. E ... : ... .. D ... : D#2 00 . S0E : ... .. . ... : ... .. . ...
ROW 1A : ... .. F ... : ... .. E ... : ... .. . ... : ... .. . ... : ... .. . ...
ROW 1B : ... .. . ... : === .. F ... : ... .. . ... : ... .. . ... : ... .. . ...
ROW 1C : ... .. . ... : D#1 08 . V00 : D#2 01 . ... : 6-# 16 . ... : ... .. . ...
ROW 1D : ... .. . ... : ... .. . ... : ... .. . S0E : ... .. . ... : ... .. . ...
ROW 1E : ... .. . ... : ... .. . ... : ... .. . ... : ... .. . ... : ... .. . ...
ROW 1F : ... .. . ... : === .. . ... : ... .. . ... : ... .. . ... : ... .. . ...
ROW 20 : G-2 0D E ... : D#1 08 C V01 : C-5 02 . ... : E-# 05 . ... : ... .. . ...
ROW 21 : ... .. F ... : ... .. D ... : D#2 00 . S28 : ... .. . ... : ... .. . ...
ROW 22 : ... .. . ... : ... .. F ... : ... .. . ... : ... .. . ... : ... .. . ...
ROW 23 : ... .. . ... : ... .. . ... : ... .. . ... : ... .. . ... : ... .. . ...
ROW 24 : ... .. . ... : ... .. . V02 : ... .. . ... : 0-# 04 . ... : ... .. . ...
ROW 25 : ... .. . ... : ... .. . ... : ... .. . ... : ... .. . ... : ... .. . ...
ROW 26 : ... .. . ... : === .. . ... : ... .. . ... : ... .. . ... : ... .. . ...
ROW 27 : ... .. . ... : ... .. . ... : ... .. . ... : ... .. . ... : ... .. . ...
ROW 28 : ... .. D ... : D#1 08 C V01 : C-5 02 . ... : 0-# 04 . ... : ... .. . ...
ROW 29 : ... .. E ... : ... .. D ... : D#2 00 . S28 : ... .. . ... : ... .. . ...
ROW 2A : ... .. F ... : ... .. F ... : ... .. . ... : ... .. . ... : ... .. . ...
ROW 2B : ... .. . ... : ... .. . ... : ... .. . ... : ... .. . ... : ... .. . ...
ROW 2C : ... .. . ... : ... .. . V02 : ... .. . ... : 6-# 16 . ... : ... .. . ...
ROW 2D : ... .. . ... : ... .. . ... : ... .. . ... : ... .. . ... : ... .. . ...
ROW 2E : ... .. . ... : === .. . ... : ... .. . ... : ... .. . ... : ... .. . ...
ROW 2F : ... .. . ... : ... .. . ... : ... .. . ... : ... .. . ... : ... .. . ...
ROW 30 : ... .. . ... : D#1 08 C V00 : C-5 02 . ... : E-# 05 . ... : ... .. . ...
ROW 31 : ... .. . ... : ... .. D ... : D#2 00 . S28 : ... .. . ... : ... .. . ...
ROW 32 : ... .. . ... : ... .. F ... : ... .. . ... : ... .. . ... : ... .. . ...
ROW 33 : ... .. . ... : ... .. . ... : ... .. . ... : ... .. . ... : ... .. . ...
ROW 34 : ... .. E ... : ... .. . V01 : ... .. . ... : 0-# 04 . ... : ... .. . ...
ROW 35 : ... .. F ... : ... .. . ... : ... .. . ... : ... .. . ... : ... .. . ...
ROW 36 : ... .. . ... : === .. . ... : ... .. . ... : 6-# 16 . ... : ... .. . ...
ROW 37 : ... .. . ... : ... .. . ... : ... .. . ... : ... .. . ... : ... .. . ...
ROW 38 : E-2 0E D ... : D#1 08 C V00 : C-5 10 . ... : 6-# 16 . ... : ... .. . ...
ROW 39 : ... .. E ... : ... .. D ... : D#2 00 . ... : ... .. . ... : ... .. . ...
ROW 3A : ... .. F ... : ... .. F ... : C-5 10 . ... : ... .. . ... : ... .. . ...
ROW 3B : ... .. . ... : ... .. . ... : D#2 00 . ... : ... .. . ... : ... .. . ...
ROW 3C : ... .. . ... : ... .. . V01 : F-4 10 . ... : 0-# 04 . ... : ... .. . ...
ROW 3D : ... .. . ... : ... .. . ... : D#2 00 . G02 : ... .. . ... : ... .. . ...
ROW 3E : ... .. . ... : === .. . ... : ... .. . S08 : ... .. . ... : ... .. . ...
ROW 3F : ... .. . ... : ... .. . ... : ... .. . ... : ... .. . ... : ... .. . ...

PATTERN 03
ROW 00 : D#2 0D E ... : C-1 08 A V00 : C-5 02 . ... : 0-# 04 . ... : ... .. . F10
ROW 01 : ... .. F ... : ... .. C ... : C-2 00 . S0E : ... .. . ... : ... .. . ...
ROW 02 : ... .. . ... : ... .. D ... : ... .. . ... : ... .. . ... : ... .. . ...
ROW 03 : ... .. . ... : === .. F ... : ... .. . ... : ... .. . ... : ... .. . ...
ROW 04 : ... .. . ... : C-1 08 . ... : C-2 01 . ... : E-# 05 . ... : ... .. . ...
ROW 05 : ... .. . ... : ... .. . ... : ... .. . S0A : ... .. . ... : ... .. . ...
ROW 06 : ... .. . ... : === .. . ... : ... .. . ... : ... .. . ... : ... .. . ...
ROW 07 : ... .. . ... : ... .. . ... : ... .. . ... : ... .. . ... : ... .. . ...
ROW 08 : ... .. D ... : C-1 08 C ... : C-5 02 . ... : 6-# 16 . ... : ... .. . ...
ROW 09 : ... .. E ... : ... .. D ... : C-2 00 . S0E : ... .. . ... : ... .. . ...
ROW 0A : ... .. F ... : ... .. F ... : ... .. . ... : ... .. . ... : ... .. . ...
ROW 0B : ... .. . ... : === .. . ... : ... .. . ... : ... .. . ... : ... .. . ...
ROW 0C : ... .. . ... : C-1 08 . ... : C-2 01 . ... : 0-# 04 . ... : ... .. . ...
ROW 0D : ... .. . ... : ... .. . ... : ... .. . S0A : ... .. . ... : ... .. . ...
ROW 0E : ... .. . ... : === .. . ... : ... .. . ... : 6-# 16 . ... : ... .. . ...
ROW 0F : ... .. . ... : ... .. . ... : ... .. . ... : ... .. . ... : ... .. . ...
ROW 10 : ... .. . ... : C-1 08 C ... : C-5 02 . ... : 0-# 04 . ... : ... .. . ...
ROW 11 : ... .. . ... : ... .. D ... : C-2 00 . S0E : ... .. . ... : ... .. . ...
ROW 12 : ... .. . ... : ... .. F ... : ... .. . ... : ... .. . ... : ... .. . ...
ROW 13 : ... .. . ... : === .. . ... : ... .. . ... : ... .. . ... : ... .. . ...
ROW 14 : ... .. E ... : C-1 08 . ... : C-2 01 . ... : 6-# 16 . ... : ... .. . ...
ROW 15 : ... .. F ... : ... .. . ... : ... .. . S0A : ... .. . ... : ... .. . ...
ROW 16 : ... .. . ... : === .. . ... : ... .. . ... : ... .. . ... : ... .. . ...
ROW 17 : ... .. . ... : ... .. . ... : ... .. . ... : ... .. . ... : ... .. . ...
ROW 18 : G#1 0E D ... : C-1 08 C ... : C-5 02 . ... : D-# 06 . ... : ... .. . ...
ROW 19 : ... .. E ... : ... .. D ... : C-2 00 . S0E : ... .. . ... : ... .. . ...
ROW 1A : ... .. F ... : ... .. F ... : ... .. . ... : ... .. . ... : ... .. . ...
ROW 1B : ... .. . ... : === .. . ... : ... .. . ... : ... .. . ... : ... .. . ...
ROW 1C : ... .. . ... : C-1 08 . ... : C-2 01 . ... : 0-# 04 . ... : ... .. . ...
ROW 1D : ... .. . ... : ... .. . ... : ... .. . S0A : ... .. . ... : ... .. . ...
ROW 1E : ... .. . ... : === .. . ... : ... .. . ... : E-# 05 . ... : ... .. . ...
ROW 1F : ... .. . ... : ... .. . ... : ... .. . ... : ... .. . ... : ... .. . ...
ROW 20 : A#1 0D E ... : C-1 08 C ... : C-5 02 . ... : 9-# 07 . ... : ... .. . ...
ROW 21 : ... .. F ... : ... .. D ... : C-2 00 . S0E : ... .. . ... : ... .. . ...
ROW 22 : ... .. . ... : ... .. F ... : ... .. . ... : ... .. . ... : ... .. . ...
ROW 23 : ... .. . ... : === .. . ... : ... .. . ... : ... .. . ... : ... .. . ...
ROW 24 : ... .. . ... : C-1 08 . ... : C-2 01 . ... : E-# 06 . ... : ... .. . ...
ROW 25 : ... .. . ... : ... .. . ... : ... .. . S0A : ... .. . ... : ... .. . ...
ROW 26 : ... .. . ... : === .. . ... : ... .. . ... : ... .. . ... : ... .. . ...
ROW 27 : ... .. . ... : ... .. . ... : ... .. . ... : ... .. . ... : ... .. . ...
ROW 28 : ... .. D ... : C-1 08 C ... : C-5 02 . ... : 9-# 07 . ... : ... .. . ...
ROW 29 : ... .. E ... : ... .. D ... : C-2 00 . S0E : ... .. . ... : ... .. . ...
ROW 2A : ... .. F ... : ... .. F ... : ... .. . ... : ... .. . ... : ... .. . ...
ROW 2B : ... .. . ... : === .. . ... : ... .. . ... : ... .. . ... : ... .. . ...
ROW 2C : ... .. . ... : C-1 08 . ... : C-2 01 . ... : E-# 06 . ... : ... .. . ...
ROW 2D : ... .. . ... : ... .. . ... : ... .. . S0A : ... .. . ... : ... .. . ...
ROW 2E : ... .. . ... : === .. . ... : ... .. . ... : ... .. . ... : ... .. . ...
ROW 2F : ... .. . ... : ... .. . ... : ... .. . ... : 7-# 17 C D00 : ... .. . ...
ROW 30 : ... .. . ... : C-1 08 C ... : C-5 02 . ... : ... .. . ... : ... .. . ...
ROW 31 : ... .. . ... : ... .. D ... : C-2 00 . S0E : ... .. . ... : ... .. . ...
ROW 32 : ... .. . ... : ... .. F ... : ... .. . ... : ... .. . ... : ... .. . ...
ROW 33 : ... .. . ... : === .. . ... : ... .. . ... : ... .. . ... : ... .. . ...
ROW 34 : ... .. E ... : D#1 08 . ... : D#2 01 . ... : ... .. . ... : ... .. . ...
ROW 35 : ... .. F ... : ... .. . ... : ... .. . S0A : ... .. . ... : ... .. . ...
ROW 36 : ... .. . ... : === .. . ... : ... .. . ... : ... .. . ... : ... .. . ...
ROW 37 : ... .. . ... : ... .. . ... : ... .. . ... : ... .. . ... : ... .. . ...
ROW 38 : B-1 0E D ... : G-1 08 C ... : C-5 02 . ... : ... .. . ... : ... .. . ...
ROW 39 : ... .. E ... : ... .. D ... : G-2 00 . S0E : ... .. . ... : ... .. . ...
ROW 3A : ... .. F ... : ... .. F ... : ... .. . ... : ... .. . ... : ... .. . ...
ROW 3B : ... .. . ... : === .. . ... : ... .. . ... : ... .. . ... : ... .. . ...
ROW 3C : ... .. . ... : C#1 08 . ... : C#2 01 . ... : ... .. . ... : ... .. . ...
ROW 3D : ... .. . ... : ... .. . ... : ... .. . S0A : ... .. . ... : ... .. . ...
ROW 3E : ... .. . ... : === .. . ... : ... .. . ... : ... .. . ... : ... .. . ...
ROW 3F : ... .. . ... : ... .. . ... : ... .. . ... : ... .. . ... : ... .. . ...

PATTERN 04
ROW 00 : A#1 0D E ... : C-1 08 A ... : C-5 02 . ... : 7-# 12 C ... : ... .. . F07
ROW 01 : ... .. F ... : ... .. C ... : C-2 00 . S0E : ... .. . ... : ... .. . F06
ROW 02 : ... .. . ... : ... .. D ... : ... .. . ... : ... .. . ... : ... .. . ...
ROW 03 : ... .. . ... : === .. F ... : ... .. . ... : ... .. . ... : ... .. . ...
ROW 04 : ... .. . ... : C-1 08 . ... : C-2 01 . ... : ... .. . ... : ... .. . ...
ROW 05 : ... .. . ... : ... .. . ... : ... .. . S0A : ... .. . ... : ... .. . ...
ROW 06 : ... .. . ... : === .. . ... : ... .. . ... : ... .. . ... : ... .. . ...
ROW 07 : ... .. . ... : ... .. . ... : ... .. . ... : ... .. . ... : ... .. . F07
ROW 08 : ... .. D ... : C-1 08 C ... : C-5 02 . ... : 9-# 07 D ... : ... .. . F06
ROW 09 : ... .. E ... : ... .. D ... : C-2 00 . S0E : ... .. . ... : ... .. . ...
ROW 0A : ... .. F ... : ... .. F ... : ... .. . ... : ... .. . ... : ... .. . ...
ROW 0B : ... .. . ... : === .. . ... : ... .. . ... : ... .. . ... : ... .. . ...
ROW 0C : ... .. . ... : C-1 08 . ... : C-2 01 . ... : 0-# 04 F ... : ... .. . ...
ROW 0D : ... .. . ... : ... .. . ... : ... .. . S0A : ... .. . ... : ... .. . ...
ROW 0E : ... .. . ... : === .. . ... : ... .. . ... : 6-# 16 . ... : ... .. . ...
ROW 0F : ... .. . ... : ... .. . ... : ... .. . ... : ... .. . ... : ... .. . ...
ROW 10 : ... .. . ... : C-1 08 C ... : C-5 02 . ... : 0-# 04 . ... : ... .. . ...
ROW 11 : ... .. . ... : ... .. D ... : C-2 00 . S0E : ... .. . ... : ... .. . ...
ROW 12 : ... .. . ... : ... .. F ... : ... .. . ... : ... .. . ... : ... .. . ...
ROW 13 : ... .. . ... : === .. . ... : ... .. . ... : ... .. . ... : ... .. . ...
ROW 14 : ... .. E ... : C-1 08 . ... : C-2 01 . ... : 6-# 16 . ... : ... .. . ...
ROW 15 : ... .. F ... : ... .. . ... : ... .. . S0A : ... .. . ... : ... .. . ...
ROW 16 : ... .. . ... : === .. . ... : ... .. . ... : ... .. . ... : ... .. . ...
ROW 17 : ... .. . ... : ... .. . ... : ... .. . ... : ... .. . ... : ... .. . ...
ROW 18 : B-1 0E D ... : C-1 08 C ... : C-5 02 . ... : 9-# 07 D ... : ... .. . ...
ROW 19 : ... .. E ... : ... .. D ... : C-2 00 . S0E : ... .. . ... : ... .. . ...
ROW 1A : ... .. F ... : ... .. F ... : ... .. . ... : ... .. . ... : ... .. . ...
ROW 1B : ... .. . ... : === .. . ... : ... .. . ... : ... .. . ... : ... .. . ...
ROW 1C : ... .. . ... : C#1 08 C ... : C-5 02 . ... : 6-# 16 F ... : ... .. . ...
ROW 1D : ... .. . ... : ... .. D ... : C#2 00 . S0A : ... .. . ... : ... .. . ...
ROW 1E : ... .. . ... : === .. F ... : ... .. . ... : ... .. . ... : ... .. . ...
ROW 1F : ... .. . ... : ... .. . ... : ... .. . ... : ... .. . ... : ... .. . ...
ROW 20 : D-2 0D E ... : C-1 08 B ... : C-4 03 . ... : E-# 05 . ... : ... .. . ...
ROW 21 : ... .. F ... : ... .. D ... : C-2 00 . S0E : ... .. . ... : ... .. . ...
ROW 22 : ... .. . ... : ... .. E ... : ... .. . ... : ... .. . ... : ... .. . ...
ROW 23 : ... .. . ... : === .. F ... : ... .. . ... : ... .. . ... : ... .. . ...
ROW 24 : ... .. . ... : C#1 08 . ... : C#2 01 . ... : 0-# 04 . ... : ... .. . ...
ROW 25 : ... .. . ... : ... .. . ... : ... .. . S0A : ... .. . ... : ... .. . ...
ROW 26 : ... .. . ... : === .. . ... : ... .. . ... : ... .. . ... : ... .. . ...
ROW 27 : ... .. . ... : ... .. . ... : ... .. . ... : ... .. . ... : ... .. . ...
ROW 28 : ... .. D ... : E-1 08 B ... : C-4 03 . ... : 9-# 07 D ... : ... .. . ...
ROW 29 : ... .. E ... : ... .. D ... : E-2 00 . S0E : ... .. . ... : ... .. . ...
ROW 2A : ... .. F ... : ... .. E ... : ... .. . ... : ... .. . ... : ... .. . ...
ROW 2B : ... .. . ... : === .. F ... : ... .. . ... : ... .. . ... : ... .. . ...
ROW 2C : ... .. . ... : F-1 08 . ... : F-2 01 . ... : 6-# 16 F ... : ... .. . ...
ROW 2D : ... .. . ... : ... .. . ... : ... .. . S0A : ... .. . ... : ... .. . ...
ROW 2E : ... .. . ... : === .. . ... : ... .. . ... : ... .. . ... : ... .. . ...
ROW 2F : ... .. . ... : ... .. . ... : ... .. . ... : ... .. . ... : ... .. . ...
ROW 30 : ... .. . ... : ... .. . ... : ... .. . ... : E-# 05 . ... : ... .. . ...
ROW 31 : ... .. . ... : ... .. . ... : ... .. . ... : ... .. . ... : ... .. . ...
ROW 32 : ... .. . ... : ... .. . ... : ... .. . ... : ... .. . ... : ... .. . ...
ROW 33 : ... .. . ... : ... .. . ... : ... .. . ... : ... .. . ... : ... .. . ...
ROW 34 : ... .. E ... : ... .. . ... : ... .. . ... : 0-# 04 . ... : ... .. . ...
ROW 35 : ... .. F ... : ... .. . ... : ... .. . ... : ... .. . ... : ... .. . ...
ROW 36 : ... .. . ... : ... .. . ... : ... .. . ... : 6-# 16 . ... : ... .. . ...
ROW 37 : ... .. . ... : ... .. . ... : ... .. . ... : ... .. . ... : ... .. . ...
ROW 38 : D#2 0E D ... : ... .. . ... : ... .. . ... : 9-# 07 D ... : ... .. . ...
ROW 39 : ... .. E ... : ... .. . ... : ... .. . ... : ... .. . ... : ... .. . ...
ROW 3A : ... .. F ... : ... .. . ... : ... .. . ... : ... .. . ... : ... .. . ...
ROW 3B : ... .. . ... : ... .. . ... : ... .. . ... : ... .. . ... : ... .. . ...
ROW 3C : ... .. . ... : ... .. . ... : ... .. . ... : 0-# 04 F ... : ... .. . ...
ROW 3D : ... .. . ... : ... .. . ... : ... .. . ... : ... .. . ... : ... .. . ...
ROW 3E : ... .. . ... : ... .. . ... : ... .. . ... : ... .. . ... : ... .. . ...
ROW 3F : ... .. . ... : ... .. . ... : ... .. . ... : ... .. . ... : ... .. . ...

PATTERN 05
ROW 00 : F#2 0D E ... : C-1 08 B ... : C-5 02 . ... : 0-# 04 . ... : ... .. . ...
ROW 01 : ... .. F ... : ... .. C ... : C-2 00 . S0E : ... .. . ... : ... .. . ...
ROW 02 : ... .. . ... : ... .. D ... : ... .. . ... : ... .. . ... : ... .. . ...
ROW 03 : ... .. . ... : === .. F ... : ... .. . ... : ... .. . ... : ... .. . ...
ROW 04 : ... .. . ... : C-1 08 . ... : C-2 01 . ... : D-# 05 . ... : ... .. . ...
ROW 05 : ... .. . ... : ... .. . ... : ... .. . S0A : ... .. . ... : ... .. . ...
ROW 06 : ... .. . ... : === .. . ... : ... .. . ... : ... .. . ... : ... .. . ...
ROW 07 : ... .. . ... : ... .. . ... : ... .. . ... : ... .. . ... : ... .. . ...
ROW 08 : ... .. D ... : C-1 08 B ... : C-4 03 . ... : 9-# 07 D ... : ... .. . ...
ROW 09 : ... .. E ... : ... .. D ... : C-2 00 . S0E : ... .. . ... : ... .. . ...
ROW 0A : ... .. F ... : ... .. E ... : ... .. . ... : ... .. . ... : ... .. . ...
ROW 0B : ... .. . ... : === .. F ... : ... .. . ... : ... .. . ... : ... .. . ...
ROW 0C : ... .. . ... : C-1 08 . ... : C-2 01 . ... : 0-# 04 F ... : ... .. . ...
ROW 0D : ... .. . ... : ... .. . ... : ... .. . S0A : ... .. . ... : ... .. . ...
ROW 0E : ... .. . ... : === .. . ... : ... .. . ... : ... .. . ... : ... .. . ...
ROW 0F : ... .. . ... : ... .. . ... : ... .. . ... : ... .. . ... : ... .. . ...
ROW 10 : ... .. . ... : C-1 08 C ... : C-5 02 . ... : D-# 05 . ... : ... .. . ...
ROW 11 : ... .. . ... : ... .. D ... : C-2 00 . S0E : ... .. . ... : ... .. . ...
ROW 12 : ... .. . ... : ... .. F ... : ... .. . ... : ... .. . ... : ... .. . ...
ROW 13 : ... .. . ... : === .. . ... : ... .. . ... : ... .. . ... : ... .. . ...
ROW 14 : ... .. E ... : C-1 08 . ... : C-2 01 . ... : 9-# 07 D ... : ... .. . ...
ROW 15 : ... .. F ... : ... .. . ... : ... .. . S0A : ... .. . ... : ... .. . ...
ROW 16 : ... .. . ... : === .. . ... : ... .. . ... : ... .. . ... : ... .. . ...
ROW 17 : ... .. . ... : ... .. . ... : ... .. . ... : ... .. . ... : ... .. . ...
ROW 18 : A#2 0E D ... : C-1 08 B ... : C-4 03 . ... : 0-# 04 F ... : ... .. . ...
ROW 19 : ... .. E ... : ... .. D ... : C-2 00 . S0E : ... .. . ... : ... .. . ...
ROW 1A : ... .. F ... : ... .. E ... : ... .. . ... : ... .. . ... : ... .. . ...
ROW 1B : ... .. . ... : === .. F ... : ... .. . ... : ... .. . ... : ... .. . ...
ROW 1C : ... .. . ... : C-1 08 . ... : C-2 01 . ... : D-# 05 . ... : ... .. . ...
ROW 1D : ... .. . ... : ... .. . ... : ... .. . S0A : ... .. . ... : ... .. . ...
ROW 1E : ... .. . ... : === .. . ... : ... .. . ... : ... .. . ... : ... .. . ...
ROW 1F : ... .. . ... : ... .. . ... : ... .. . ... : ... .. . ... : ... .. . ...
ROW 20 : B-2 0D E ... : C-1 08 C ... : C-5 02 . ... : 9-# 07 D ... : ... .. . ...
ROW 21 : ... .. F ... : ... .. D ... : C-2 00 . S0E : ... .. . ... : ... .. . ...
ROW 22 : ... .. . ... : ... .. F ... : ... .. . ... : ... .. . ... : ... .. . ...
ROW 23 : ... .. . ... : === .. . ... : ... .. . ... : ... .. . ... : ... .. . ...
ROW 24 : ... .. . ... : C-1 08 . ... : C-2 01 . ... : 0-# 04 F ... : ... .. . ...
ROW 25 : ... .. . ... : ... .. . ... : ... .. . S0A : ... .. . ... : ... .. . ...
ROW 26 : ... .. . ... : === .. . ... : ... .. . ... : ... .. . ... : ... .. . ...
ROW 27 : ... .. . ... : ... .. . ... : ... .. . ... : ... .. . ... : ... .. . ...
ROW 28 : ... .. D ... : C-1 08 B ... : C-4 03 . ... : D-# 05 . ... : ... .. . ...
ROW 29 : ... .. E ... : ... .. D ... : C-2 00 . S0E : ... .. . ... : ... .. . ...
ROW 2A : ... .. F ... : ... .. E ... : ... .. . ... : ... .. . ... : ... .. . ...
ROW 2B : ... .. . ... : === .. F ... : ... .. . ... : ... .. . ... : ... .. . ...
ROW 2C : ... .. . ... : C-1 08 . ... : C-2 01 . ... : 9-# 07 D ... : ... .. . ...
ROW 2D : ... .. . ... : ... .. . ... : ... .. . S0A : ... .. . ... : ... .. . ...
ROW 2E : ... .. . ... : === .. . ... : ... .. . ... : ... .. . ... : ... .. . ...
ROW 2F : ... .. . ... : ... .. . ... : ... .. . ... : ... .. . ... : ... .. . ...
ROW 30 : ... .. . ... : C-1 08 C ... : C-5 02 . ... : 9-# 07 . ... : ... .. . ...
ROW 31 : ... .. . ... : ... .. D ... : C-2 00 . S0E : ... .. . ... : ... .. . ...
ROW 32 : ... .. . ... : ... .. F ... : ... .. . ... : ... .. . ... : ... .. . ...
ROW 33 : ... .. . ... : === .. . ... : ... .. . ... : ... .. . ... : ... .. . ...
ROW 34 : ... .. E ... : F#1 08 . ... : F#2 01 . ... : D-# 06 F ... : ... .. . ...
ROW 35 : ... .. F ... : ... .. . ... : ... .. . S0A : ... .. . ... : ... .. . ...
ROW 36 : ... .. . ... : === .. . ... : ... .. . ... : ... .. . ... : ... .. . ...
ROW 37 : ... .. . ... : ... .. . ... : ... .. . ... : ... .. . ... : ... .. . ...
ROW 38 : F#3 0E D ... : C-1 08 B ... : C-4 03 . ... : 9-# 07 . ... : ... .. . ...
ROW 39 : ... .. E ... : ... .. D ... : C-2 00 . S0E : ... .. . ... : ... .. . ...
ROW 3A : ... .. F ... : ... .. E ... : ... .. . ... : ... .. . ... : ... .. . ...
ROW 3B : ... .. . ... : === .. F ... : ... .. . ... : ... .. . ... : ... .. . ...
ROW 3C : ... .. . ... : F#1 08 . ... : F#2 01 . ... : D-# 06 . ... : ... .. . ...
ROW 3D : ... .. . ... : ... .. . ... : ... .. . S0A : ... .. . ... : ... .. . ...
ROW 3E : ... .. . ... : === .. . ... : ... .. . ... : ... .. . ... : ... .. . ...
ROW 3F : ... .. . ... : ... .. . ... : ... .. . ... : A-# 17 . ... : ... .. . ...

PATTERN 06
ROW 00 : E-3 0D E ... : D-1 08 C ... : C-5 02 . ... : A-# 12 . ... : ... .. . ...
ROW 01 : ... .. F ... : ... .. D ... : D-2 00 . S0E : ... .. . ... : ... .. . ...
ROW 02 : ... .. . ... : ... .. F ... : ... .. . ... : ... .. . ... : ... .. . ...
ROW 03 : ... .. . ... : === .. . ... : ... .. . ... : ... .. . ... : ... .. . ...
ROW 04 : ... .. . ... : D-1 08 . ... : D-2 01 . ... : ... .. . ... : ... .. . ...
ROW 05 : B-2 0D . G03 : ... .. . ... : ... .. . S0A : ... .. . ... : ... .. . ...
ROW 06 : ... .. . ... : === .. . ... : ... .. . ... : ... .. . ... : ... .. . ...
ROW 07 : ... .. . ... : ... .. . ... : ... .. . ... : ... .. . ... : ... .. . ...
ROW 08 : ... .. D ... : D-1 08 B ... : C-4 03 . ... : 9-# 07 F ... : ... .. . ...
ROW 09 : ... .. E ... : ... .. D ... : D-2 00 . S0E : ... .. . ... : ... .. . ...
ROW 0A : G#2 0D F G05 : ... .. . ... : ... .. . ... : ... .. . ... : ... .. . ...
ROW 0B : ... .. . ... : === .. F ... : ... .. . ... : ... .. . ... : ... .. . ...
ROW 0C : ... .. . ... : D-1 08 C ... : C-5 02 . ... : D-# 05 . ... : ... .. . ...
ROW 0D : ... .. . ... : ... .. D ... : D-2 00 . S0E : ... .. . ... : ... .. . ...
ROW 0E : ... .. . ... : ... .. F ... : ... .. . ... : D-# 05 A ... : ... .. . ...
ROW 0F : ... .. . ... : === .. . ... : ... .. . ... : ... .. . ... : ... .. . ...
ROW 10 : B-2 0D . ... : D-1 08 . ... : D-2 01 . ... : D-# 05 F ... : ... .. . ...
ROW 11 : ... .. . ... : ... .. . ... : ... .. . S0A : ... .. . ... : ... .. . ...
ROW 12 : ... .. . ... : === .. . ... : ... .. . ... : D-# 05 A ... : ... .. . ...
ROW 13 : ... .. . ... : ... .. . ... : ... .. . ... : ... .. . ... : ... .. . ...
ROW 14 : ... .. E ... : D-1 08 B ... : C-4 03 . ... : 0-# 04 F ... : ... .. . ...
ROW 15 : G#2 0D F G03 : ... .. D ... : D-2 00 . S0E : ... .. . ... : ... .. . ...
ROW 16 : ... .. . ... : ... .. E ... : ... .. . ... : D-# 05 5 ... : ... .. . ...
ROW 17 : ... .. . ... : === .. F ... : ... .. . ... : ... .. . ... : ... .. . ...
ROW 18 : ... .. D ... : D-1 08 C ... : C-5 02 . ... : 9-# 07 F ... : ... .. . ...
ROW 19 : ... .. E ... : ... .. D ... : D-2 00 . S0E : ... .. . ... : ... .. . ...
ROW 1A : E-2 0D F G05 : ... .. F ... : ... .. . ... : ... .. . ... : ... .. . ...
ROW 1B : ... .. . ... : === .. . ... : ... .. . ... : ... .. . ... : ... .. . ...
ROW 1C : ... .. . ... : D-1 08 . ... : D-2 01 . ... : D-# 05 . ... : ... .. . ...
ROW 1D : ... .. . ... : ... .. . ... : ... .. . S0A : ... .. . ... : ... .. . ...
ROW 1E : ... .. . ... : === .. . ... : ... .. . ... : D-# 05 A ... : ... .. . ...
ROW 1F : ... .. . ... : ... .. . ... : ... .. . ... : ... .. . ... : ... .. . ...
ROW 20 : G#2 0D E ... : D-1 08 B ... : C-4 03 . ... : 0-# 04 F ... : ... .. . ...
ROW 21 : ... .. F ... : ... .. D ... : D-2 00 . S0E : ... .. . ... : ... .. . ...
ROW 22 : ... .. . ... : ... .. E ... : ... .. . ... : ... .. . ... : ... .. . ...
ROW 23 : ... .. . ... : === .. F ... : ... .. . ... : ... .. . ... : ... .. . ...
ROW 24 : ... .. . ... : D-1 08 C ... : C-5 02 . ... : D-# 05 . ... : ... .. . ...
ROW 25 : E-2 0D . G03 : ... .. D ... : D-2 00 . S0E : ... .. . ... : ... .. . ...
ROW 26 : ... .. . ... : ... .. F ... : ... .. . ... : D-# 05 5 ... : ... .. . ...
ROW 27 : ... .. . ... : === .. . ... : ... .. . ... : ... .. . ... : ... .. . ...
ROW 28 : ... .. D ... : D-1 08 . ... : D-2 01 . ... : 9-# 07 F ... : ... .. . ...
ROW 29 : ... .. E ... : ... .. . ... : ... .. . S0A : ... .. . ... : ... .. . ...
ROW 2A : B-1 0D F G05 : === .. . ... : ... .. . ... : ... .. . ... : ... .. . ...
ROW 2B : ... .. . ... : ... .. . ... : ... .. . ... : ... .. . ... : ... .. . ...
ROW 2C : ... .. . ... : D-1 08 B ... : C-4 03 . ... : D-# 05 . ... : ... .. . ...
ROW 2D : ... .. . ... : ... .. D ... : D-2 00 . S0E : ... .. . ... : ... .. . ...
ROW 2E : ... .. . ... : ... .. . ... : ... .. . ... : D-# 05 A ... : ... .. . ...
ROW 2F : ... .. . ... : === .. F ... : ... .. . ... : ... .. . ... : ... .. . ...
ROW 30 : B-1 0D . ... : D-1 08 B ... : C-4 03 . ... : D-# 05 F ... : ... .. . ...
ROW 31 : ... .. . ... : ... .. D ... : D-2 00 . S0E : ... .. . ... : ... .. . ...
ROW 32 : D#2 0D . ... : ... .. E ... : ... .. . ... : D-# 05 A ... : ... .. . ...
ROW 33 : ... .. . ... : === .. F ... : ... .. . ... : ... .. . ... : ... .. . ...
ROW 34 : E-2 0D E ... : D-2 08 . ... : D-3 00 . ... : 0-# 04 F ... : ... .. . ...
ROW 35 : ... .. F ... : ... .. . ... : ... .. . S0E : ... .. . ... : ... .. . ...
ROW 36 : G#2 0D . ... : ... .. . ... : ... .. . ... : D-# 05 5 ... : ... .. . ...
ROW 37 : ... .. . ... : === .. . ... : ... .. . ... : ... .. . ... : ... .. . ...
ROW 38 : E-2 0D D ... : D-1 08 B ... : C-4 03 . ... : 9-# 07 F ... : ... .. . ...
ROW 39 : ... .. E ... : ... .. D ... : D-2 00 . S0E : ... .. . ... : ... .. . ...
ROW 3A : G#2 0D F ... : ... .. E ... : ... .. . ... : ... .. . ... : ... .. . ...
ROW 3B : ... .. . ... : === .. F ... : ... .. . ... : ... .. . ... : ... .. . ...
ROW 3C : B-2 0D . ... : D-2 08 . ... : C-5 10 . ... : D-# 05 . ... : ... .. . ...
ROW 3D : ... .. . ... : ... .. . ... : D-3 00 . ... : ... .. . ... : ... .. . ...
ROW 3E : E-3 0D . ... : ... .. . ... : G-4 10 . S08 : D-# 05 A ... : ... .. . ...
ROW 3F : ... .. . ... : === .. . ... : ... .. . ... : ... .. . ... : ... .. . ...

PATTERN 07
ROW 00 : D#3 0D E ... : D#1 08 C V02 : C-5 02 . ... : 0-# 04 F ... : ... .. . ...
ROW 01 : ... .. F ... : ... .. D ... : D#2 00 . ... : ... .. . ... : ... .. . ...
ROW 02 : ... .. . ... : ... .. F ... : ... .. . ... : ... .. . ... : ... .. . ...
ROW 03 : ... .. . ... : ... .. . ... : ... .. . ... : ... .. . ... : ... .. . ...
ROW 04 : ... .. . ... : ... .. . ... : ... .. . 427 : D-# 05 . ... : ... .. . ...
ROW 05 : ... .. . ... : ... .. . ... : ... .. . ... : ... .. . ... : ... .. . ...
ROW 06 : ... .. . ... : ... .. . ... : ... .. . ... : D-# 05 5 ... : ... .. . ...
ROW 07 : ... .. . ... : ... .. . ... : ... .. . ... : ... .. . ... : ... .. . ...
ROW 08 : ... .. D ... : ... .. B ... : C-4 03 . 400 : 9-# 07 F ... : ... .. . ...
ROW 09 : ... .. E ... : ... .. D ... : D#2 00 . S0E : ... .. . ... : ... .. . ...
ROW 0A : ... .. F ... : === .. E ... : ... .. . ... : ... .. . ... : ... .. . ...
ROW 0B : ... .. . ... : ... .. F ... : ... .. . ... : ... .. . ... : ... .. . ...
ROW 0C : ... .. . ... : D#1 08 . ... : D#2 00 . ... : D-# 05 . ... : ... .. . ...
ROW 0D : ... .. . ... : ... .. . ... : ... .. . S0E : ... .. . ... : ... .. . ...
ROW 0E : ... .. . ... : ... .. . ... : ... .. . ... : D-# 05 A ... : ... .. . ...
ROW 0F : ... .. . ... : === .. . ... : ... .. . ... : ... .. . ... : ... .. . ...
ROW 10 : ... .. . ... : D#3 00 1 ... : ... .. . ... : D-# 05 F ... : ... .. . ...
ROW 11 : ... .. . ... : F#3 00 2 ... : ... .. . ... : ... .. . ... : ... .. . ...
ROW 12 : ... .. . ... : A#3 00 3 ... : ... .. . ... : D-# 05 A ... : ... .. . ...
ROW 13 : ... .. . ... : D#4 00 4 ... : ... .. . ... : ... .. . ... : ... .. . ...
ROW 14 : ... .. E ... : D#3 00 . ... : C-5 02 . ... : 0-# 04 F ... : ... .. . ...
ROW 15 : ... .. F ... : F#3 00 . ... : --- .. . ... : ... .. . ... : ... .. . ...
ROW 16 : ... .. . ... : A#3 00 . ... : ... .. . ... : D-# 05 5 ... : ... .. . ...
ROW 17 : ... .. . ... : D#4 00 . ... : ... .. . ... : ... .. . ... : ... .. . ...
ROW 18 : ... .. D ... : D#3 00 3 ... : C-4 03 . ... : 9-# 07 F ... : ... .. . ...
ROW 19 : ... .. E ... : F#3 00 . ... : --- .. . ... : ... .. . ... : ... .. . ...
ROW 1A : ... .. F ... : A#3 00 . ... : ... .. . ... : ... .. . ... : ... .. . ...
ROW 1B : ... .. . ... : D#4 00 . ... : ... .. . ... : ... .. . ... : ... .. . ...
ROW 1C : ... .. . ... : D#3 00 . ... : ... .. . ... : 0-# 04 . ... : ... .. . ...
ROW 1D : ... .. . ... : F#3 00 . ... : ... .. . ... : ... .. . ... : ... .. . ...
ROW 1E : ... .. . ... : A#3 00 . ... : ... .. . ... : D-# 05 A ... : ... .. . ...
ROW 1F : ... .. . ... : D#4 00 . ... : ... .. . ... : 9-# 17 C ... : ... .. . ...
ROW 20 : D#2 0D E ... : D#3 00 2 ... : C-5 02 . ... : 9-# 12 . ... : ... .. . ...
ROW 21 : ... .. F ... : F#3 00 . ... : --- .. . ... : ... .. . ... : ... .. . ...
ROW 22 : ... .. . ... : A#3 00 . ... : ... .. . ... : ... .. . ... : ... .. . ...
ROW 23 : ... .. . ... : D#4 00 . ... : ... .. . ... : ... .. . ... : ... .. . ...
ROW 24 : ... .. . ... : D#3 00 . ... : ... .. . ... : ... .. . ... : ... .. . ...
ROW 25 : ... .. . ... : F#3 00 . ... : ... .. . ... : ... .. . ... : ... .. . ...
ROW 26 : ... .. . ... : A#3 00 . ... : ... .. . ... : D-# 05 A ... : ... .. . ...
ROW 27 : ... .. . ... : D#4 00 . ... : ... .. . ... : ... .. . ... : ... .. . ...
ROW 28 : ... .. D ... : D#3 00 1 ... : C-4 03 . ... : 9-# 07 F ... : ... .. . ...
ROW 29 : ... .. E ... : F#3 00 . ... : --- .. . ... : ... .. . ... : ... .. . ...
ROW 2A : ... .. F ... : A#3 00 . ... : ... .. . ... : ... .. . ... : ... .. . ...
ROW 2B : ... .. . ... : D#4 00 . ... : ... .. . ... : ... .. . ... : ... .. . ...
ROW 2C : ... .. . ... : D#3 00 . ... : ... .. . ... : D-# 06 A ... : ... .. . ...
ROW 2D : ... .. . ... : F#3 00 . ... : ... .. . ... : ... .. . ... : ... .. . ...
ROW 2E : ... .. . ... : A#3 00 . ... : ... .. . ... : 0-# 04 F ... : ... .. . ...
ROW 2F : ... .. . ... : D#4 00 . ... : ... .. . ... : ... .. . ... : ... .. . ...
ROW 30 : ... .. . ... : E-1 08 F ... : E-2 00 . ... : 9-# 07 . ... : ... .. . ...
ROW 31 : ... .. . ... : ... .. . ... : ... .. . S0E : ... .. . ... : ... .. . ...
ROW 32 : ... .. . ... : ... .. . ... : ... .. . ... : 9-# 07 . ... : ... .. . ...
ROW 33 : ... .. . ... : === .. . ... : ... .. . ... : ... .. . ... : ... .. . ...
ROW 34 : ... .. E ... : E-1 08 C ... : C-5 02 . ... : 0-# 04 . ... : ... .. . ...
ROW 35 : ... .. F ... : ... .. D ... : E-2 00 . ... : ... .. . ... : ... .. . ...
ROW 36 : ... .. . ... : ... .. F ... : ... .. . ... : D-# 05 . ... : ... .. . ...
ROW 37 : ... .. . ... : ... .. . ... : ... .. . ... : ... .. . ... : ... .. . ...
ROW 38 : ... .. D ... : ... .. B ... : C-4 03 . ... : 9-# 07 . ... : ... .. . ...
ROW 39 : ... .. E ... : ... .. D ... : E-2 00 . ... : ... .. . ... : ... .. . ...
ROW 3A : ... .. F ... : ... .. E ... : ... .. . S0E : ... .. . ... : ... .. . ...
ROW 3B : ... .. . ... : ... .. F ... : ... .. . ... : ... .. . ... : ... .. . ...
ROW 3C : ... .. . ... : ... .. C ... : ... .. . ... : 0-# 04 . ... : ... .. . ...
ROW 3D : ... .. . ... : ... .. D ... : ... .. . ... : A-# 11 . ... : ... .. . ...
ROW 3E : ... .. . ... : === .. F ... : ... .. . ... : ... .. . ... : ... .. . ...
ROW 3F : ... .. . ... : ... .. . ... : ... .. . ... : ... .. . ... : ... .. . ...

PATTERN 08
ROW 00 : C-2 14 B ... : D#1 08 C V02 : C-5 02 . ... : A-# 12 . ... : ... .. . ...
ROW 01 : ... .. C ... : ... .. D ... : D#2 00 . ... : ... .. . ... : ... .. . ...
ROW 02 : ... .. E ... : ... .. F ... : ... .. . ... : ... .. . ... : ... .. . ...
ROW 03 : ... .. F ... : ... .. . ... : ... .. . ... : ... .. . ... : ... .. . ...
ROW 04 : ... .. . ... : ... .. . ... : ... .. . 427 : ... .. . ... : ... .. . ...
ROW 05 : ... .. . ... : ... .. . ... : ... .. . ... : ... .. . ... : ... .. . ...
ROW 06 : ... .. . ... : ... .. . ... : ... .. . ... : ... .. . ... : ... .. . ...
ROW 07 : ... .. . ... : ... .. . ... : ... .. . ... : ... .. . ... : ... .. . ...
ROW 08 : C-2 14 E ... : ... .. B ... : C-4 03 . 400 : 9-# 07 F ... : ... .. . ...
ROW 09 : ... .. F ... : ... .. D ... : D#2 00 . S0E : ... .. . ... : ... .. . ...
ROW 0A : ... .. . ... : === .. E ... : ... .. . ... : D-# 18 . ... : ... .. . ...
ROW 0B : ... .. . ... : ... .. F ... : ... .. . ... : ... .. . ... : ... .. . ...
ROW 0C : ... .. . ... : D#1 08 . ... : ... .. . ... : D-# 05 . ... : ... .. . ...
ROW 0D : ... .. . ... : ... .. . ... : ... .. . ... : ... .. . ... : ... .. . ...
ROW 0E : ... .. . ... : ... .. . ... : F-4 10 . S03 : ... .. . ... : ... .. . ...
ROW 0F : ... .. . ... : === .. . ... : ... .. . ... : 0-# 04 . GFF : ... .. . ...
ROW 10 : C-2 14 E ... : F#3 00 1 ... : F-4 10 . ... : D-# 06 . G05 : ... .. . ...
ROW 11 : ... .. F ... : A#3 00 2 ... : --- .. . ... : ... .. . ... : ... .. . ...
ROW 12 : ... .. . ... : D#4 00 3 ... : ... .. . ... : ... .. . ... : ... .. . ...
ROW 13 : ... .. . ... : F#4 00 4 ... : ... .. . ... : ... .. . ... : ... .. . ...
ROW 14 : C-2 14 . ... : F#3 00 . ... : C-5 02 . ... : D-# 05 . ... : ... .. . ...
ROW 15 : ... .. . ... : A#3 00 . ... : --- .. . ... : ... .. . ... : ... .. . ...
ROW 16 : ... .. . ... : D#4 00 . ... : ... .. . ... : ... .. . ... : ... .. . ...
ROW 17 : ... .. . ... : F#4 00 . ... : ... .. . ... : ... .. . ... : ... .. . ...
ROW 18 : ... .. E ... : F#3 00 3 ... : C-4 03 . ... : 9-# 07 . ... : ... .. . ...
ROW 19 : ... .. F ... : A#3 00 . ... : --- .. . ... : ... .. . ... : ... .. . ...
ROW 1A : ... .. . ... : D#4 00 . ... : ... .. . ... : D-# 18 . ... : ... .. . ...
ROW 1B : ... .. . ... : F#4 00 . ... : ... .. . ... : ... .. . ... : ... .. . ...
ROW 1C : B-1 14 . ... : F#3 00 . ... : C-5 02 . ... : D-# 05 . ... : ... .. . ...
ROW 1D : ... .. . ... : A#3 00 . ... : --- .. . ... : ... .. . ... : ... .. . ...
ROW 1E : ... .. . ... : D#4 00 . ... : ... .. . ... : D-# 05 5 ... : ... .. . ...
ROW 1F : ... .. . ... : F#4 00 . ... : ... .. . ... : 0-# 04 F GFF : ... .. . ...
ROW 20 : ... .. E ... : F#3 00 2 ... : C-5 02 . ... : D-# 06 . G05 : ... .. . ...
ROW 21 : ... .. F ... : A#3 00 . ... : --- .. . ... : ... .. . ... : ... .. . ...
ROW 22 : ... .. . ... : D#4 00 . ... : ... .. . ... : ... .. . ... : ... .. . ...
ROW 23 : ... .. . ... : F#4 00 . ... : ... .. . ... : ... .. . ... : ... .. . ...
ROW 24 : C-2 14 E ... : F#3 00 . ... : ... .. . ... : D-# 05 . ... : ... .. . ...
ROW 25 : ... .. F ... : A#3 00 . ... : ... .. . ... : ... .. . ... : ... .. . ...
ROW 26 : ... .. . ... : D#4 00 . ... : ... .. . ... : ... .. . ... : ... .. . ...
ROW 27 : ... .. . ... : F#4 00 . ... : ... .. . ... : ... .. . ... : ... .. . ...
ROW 28 : ... .. . ... : F#3 00 1 ... : C-4 03 . ... : 9-# 07 . ... : ... .. . ...
ROW 29 : ... .. . ... : A#3 00 . ... : --- .. . ... : ... .. . ... : ... .. . ...
ROW 2A : ... .. . ... : D#4 00 . ... : ... .. . ... : D-# 18 . ... : ... .. . ...
ROW 2B : ... .. . ... : F#4 00 . ... : ... .. . ... : ... .. . ... : ... .. . ...
ROW 2C : C#2 14 E ... : F#3 00 . ... : ... .. . ... : D-# 05 . ... : ... .. . ...
ROW 2D : D#2 14 F ... : A#3 00 . ... : ... .. . ... : ... .. . ... : ... .. . ...
ROW 2E : ... .. . ... : D#4 00 . ... : C-5 02 . S04 : ... .. . ... : ... .. . ...
ROW 2F : ... .. . ... : F#4 00 . ... : ... .. . ... : 0-# 04 F GFF : ... .. . ...
ROW 30 : ... .. . ... : E-1 08 F ... : C-4 03 . ... : D-# 06 . G05 : ... .. . ...
ROW 31 : ... .. . ... : ... .. . ... : --- .. . ... : ... .. . ... : ... .. . ...
ROW 32 : ... .. . ... : ... .. . ... : ... .. . ... : ... .. . ... : ... .. . ...
ROW 33 : ... .. . ... : === .. . ... : ... .. . ... : ... .. . ... : ... .. . ...
ROW 34 : D#2 14 E ... : E-1 08 C ... : C-5 02 . ... : D-# 05 . ... : ... .. . ...
ROW 35 : ... .. F ... : ... .. D ... : --- .. . ... : ... .. . ... : ... .. . ...
ROW 36 : ... .. . ... : ... .. F ... : ... .. . ... : ... .. . ... : ... .. . ...
ROW 37 : ... .. . ... : ... .. . ... : ... .. . ... : ... .. . ... : ... .. . ...
ROW 38 : C#2 14 . ... : ... .. B ... : C-4 03 . ... : 9-# 07 . ... : ... .. . ...
ROW 39 : ... .. . ... : ... .. D ... : --- .. . ... : ... .. . ... : ... .. . ...
ROW 3A : ... .. . ... : ... .. E ... : ... .. . ... : D-# 18 . ... : ... .. . ...
ROW 3B : ... .. . ... : ... .. F ... : ... .. . ... : ... .. . ... : ... .. . ...
ROW 3C : ... .. E ... : ... .. C ... : C-5 02 . ... : D-# 05 . ... : ... .. . ...
ROW 3D : ... .. F ... : ... .. D ... : --- .. . ... : ... .. . ... : ... .. . ...
ROW 3E : ... .. . ... : === .. F ... : ... .. . ... : D-# 05 5 ... : ... .. . ...
ROW 3F : ... .. . ... : ... .. . ... : ... .. . ... : 0-# 04 F GFF : ... .. . ...

PATTERN 09
ROW 00 : C-2 14 E ... : D#1 08 C V02 : C-5 02 . ... : D-# 06 . G05 : ... .. . ...
ROW 01 : ... .. F ... : ... .. D ... : D#2 00 . S0E : ... .. . ... : ... .. . ...
ROW 02 : ... .. . ... : ... .. F ... : ... .. . ... : ... .. . ... : ... .. . ...
ROW 03 : ... .. . ... : ... .. . ... : ... .. . ... : ... .. . ... : ... .. . ...
ROW 04 : ... .. . ... : ... .. . ... : D#2 01 . ... : D-# 05 . ... : ... .. . ...
ROW 05 : ... .. . ... : ... .. . ... : ... .. . S0E : ... .. . ... : ... .. . ...
ROW 06 : ... .. . ... : ... .. . ... : ... .. . ... : ... .. . ... : ... .. . ...
ROW 07 : ... .. . ... : ... .. . ... : ... .. . ... : ... .. . ... : ... .. . ...
ROW 08 : C-2 14 E ... : ... .. B ... : C-4 03 . ... : 9-# 07 . ... : ... .. . ...
ROW 09 : ... .. F ... : ... .. D ... : D#2 00 . S0E : ... .. . ... : ... .. . ...
ROW 0A : ... .. . ... : === .. E ... : ... .. . ... : D-# 18 . ... : ... .. . ...
ROW 0B : ... .. . ... : ... .. F ... : ... .. . ... : ... .. . ... : ... .. . ...
ROW 0C : ... .. . ... : D#1 08 . ... : D#2 01 . ... : D-# 05 . ... : ... .. . ...
ROW 0D : ... .. . ... : ... .. . ... : ... .. . S0E : ... .. . ... : ... .. . ...
ROW 0E : ... .. . ... : ... .. . ... : ... .. . ... : ... .. . ... : ... .. . ...
ROW 0F : ... .. . ... : === .. . ... : ... .. . ... : 0-# 04 F GFF : ... .. . ...
ROW 10 : A#1 14 E ... : E-3 00 1 ... : C-5 02 . ... : D-# 06 . G05 : ... .. . ...
ROW 11 : ... .. F ... : F#3 00 2 ... : D#2 00 . S0E : ... .. . ... : ... .. . ...
ROW 12 : ... .. . ... : A-3 00 3 ... : ... .. . ... : ... .. . ... : ... .. . ...
ROW 13 : ... .. . ... : D#4 00 4 ... : ... .. . ... : ... .. . ... : ... .. . ...
ROW 14 : C-2 14 . ... : E-3 00 . ... : D#2 01 . ... : D-# 05 . ... : ... .. . ...
ROW 15 : ... .. . ... : F#3 00 . ... : ... .. . S0E : ... .. . ... : ... .. . ...
ROW 16 : ... .. . ... : A-3 00 . ... : ... .. . ... : ... .. . ... : ... .. . ...
ROW 17 : ... .. . ... : D#4 00 . ... : ... .. . ... : ... .. . ... : ... .. . ...
ROW 18 : ... .. E ... : E-3 00 3 ... : C-4 03 . ... : 9-# 07 . ... : ... .. . ...
ROW 19 : ... .. F ... : F#3 00 . ... : D#2 00 . S0E : ... .. . ... : ... .. . ...
ROW 1A : ... .. . ... : A-3 00 . ... : ... .. . ... : D-# 18 . ... : ... .. . ...
ROW 1B : ... .. . ... : D#4 00 . ... : ... .. . ... : ... .. . ... : ... .. . ...
ROW 1C : C#2 14 E ... : E-3 00 . ... : D#2 01 . ... : D-# 05 . ... : ... .. . ...
ROW 1D : ... .. F ... : F#3 00 . ... : ... .. . S0E : ... .. . ... : ... .. . ...
ROW 1E : ... .. . ... : A-3 00 . ... : ... .. . ... : D-# 05 5 ... : ... .. . ...
ROW 1F : ... .. . ... : D#4 00 . ... : ... .. . ... : 0-# 04 F GFF : ... .. . ...
ROW 20 : C-2 14 C ... : E-3 00 2 ... : C-5 02 . ... : D-# 06 . G05 : ... .. . ...
ROW 21 : ... .. D ... : F#3 00 . ... : D#2 00 . S0E : ... .. . ... : ... .. . ...
ROW 22 : ... .. F ... : A-3 00 . ... : ... .. . ... : ... .. . ... : ... .. . ...
ROW 23 : ... .. . ... : D#4 00 . ... : ... .. . ... : ... .. . ... : ... .. . ...
ROW 24 : F-2 14 . ... : E-3 00 . ... : D#2 01 . ... : D-# 05 . ... : ... .. . ...
ROW 25 : ... .. . ... : F#3 00 . ... : ... .. . S0E : ... .. . ... : ... .. . ...
ROW 26 : ... .. . ... : A-3 00 . ... : ... .. . ... : ... .. . ... : ... .. . ...
ROW 27 : ... .. . ... : D#4 00 . ... : ... .. . ... : ... .. . ... : ... .. . ...
ROW 28 : G#2 14 C ... : E-3 00 1 ... : C-4 03 . ... : 9-# 07 . ... : ... .. . ...
ROW 29 : ... .. D ... : F#3 00 . ... : D#2 00 . S0E : ... .. . ... : ... .. . ...
ROW 2A : ... .. F ... : A-3 00 . ... : ... .. . ... : D-# 18 . ... : ... .. . ...
ROW 2B : ... .. . ... : D#4 00 . ... : ... .. . ... : ... .. . ... : ... .. . ...
ROW 2C : C#3 14 . ... : E-3 00 . ... : D#2 01 . ... : D-# 05 . ... : ... .. . ...
ROW 2D : ... .. . ... : F#3 00 . ... : ... .. . S0E : ... .. . ... : ... .. . ...
ROW 2E : ... .. . ... : A-3 00 . ... : ... .. . ... : ... .. . ... : ... .. . ...
ROW 2F : ... .. . ... : D#4 00 . ... : ... .. . ... : 0-# 04 F GFF : ... .. . ...
ROW 30 : ... .. . ... : E-1 08 F ... : C-5 02 . ... : D-# 06 . G05 : ... .. . ...
ROW 31 : ... .. . ... : ... .. . ... : D#2 00 . S0E : ... .. . ... : ... .. . ...
ROW 32 : ... .. . ... : ... .. . ... : ... .. . ... : ... .. . ... : ... .. . ...
ROW 33 : ... .. . ... : === .. . ... : ... .. . ... : ... .. . ... : ... .. . ...
ROW 34 : ... .. . ... : E-1 08 C ... : D#2 01 . ... : D-# 05 . ... : ... .. . ...
ROW 35 : ... .. . ... : ... .. D ... : ... .. . S0E : ... .. . ... : ... .. . ...
ROW 36 : ... .. . ... : ... .. F ... : ... .. . ... : ... .. . ... : ... .. . ...
ROW 37 : ... .. . ... : ... .. . ... : ... .. . ... : ... .. . ... : ... .. . ...
ROW 38 : ... .. . ... : ... .. B ... : C-4 03 . ... : 9-# 07 . ... : ... .. . ...
ROW 39 : ... .. . ... : ... .. D ... : D#2 00 . S0E : ... .. . ... : ... .. . ...
ROW 3A : ... .. . ... : ... .. E ... : ... .. . ... : D-# 18 . ... : ... .. . ...
ROW 3B : ... .. . ... : ... .. F ... : ... .. . ... : ... .. . ... : ... .. . ...
ROW 3C : ... .. . ... : ... .. C ... : D#2 01 . ... : D-# 05 . ... : ... .. . ...
ROW 3D : ... .. . ... : ... .. D ... : ... .. . S0E : ... .. . ... : ... .. . ...
ROW 3E : ... .. . ... : === .. F ... : ... .. . ... : D-# 05 5 ... : ... .. . ...
ROW 3F : ... .. . ... : ... .. . ... : ... .. . ... : 0-# 04 F GFF : ... .. . ...

PATTERN 0A
ROW 00 : C-2 14 B ... : D#1 08 C V02 : C-5 02 . ... : D-# 06 . G05 : ... .. . ...
ROW 01 : ... .. C ... : ... .. D ... : E-2 00 . S0E : ... .. . ... : ... .. . ...
ROW 02 : ... .. E ... : ... .. F ... : ... .. . ... : ... .. . ... : ... .. . ...
ROW 03 : ... .. F ... : ... .. . ... : ... .. . ... : ... .. . ... : ... .. . ...
ROW 04 : ... .. . ... : ... .. . ... : E-2 01 . ... : D-# 05 . ... : ... .. . ...
ROW 05 : ... .. . ... : ... .. . ... : ... .. . S0E : ... .. . ... : ... .. . ...
ROW 06 : ... .. . ... : ... .. . ... : ... .. . ... : ... .. . ... : ... .. . ...
ROW 07 : ... .. . ... : ... .. . ... : ... .. . ... : ... .. . ... : ... .. . ...
ROW 08 : C-2 14 D ... : ... .. B ... : C-4 03 . ... : 9-# 07 . ... : ... .. . ...
ROW 09 : ... .. E ... : ... .. D ... : E-2 00 . S0E : ... .. . ... : ... .. . ...
ROW 0A : ... .. F ... : === .. E ... : ... .. . ... : D-# 18 . ... : ... .. . ...
ROW 0B : ... .. . ... : ... .. F ... : ... .. . ... : ... .. . ... : ... .. . ...
ROW 0C : ... .. . ... : ... .. . ... : E-2 01 . ... : D-# 05 . ... : ... .. . ...
ROW 0D : ... .. . ... : ... .. . ... : ... .. . S0E : ... .. . ... : ... .. . ...
ROW 0E : ... .. . ... : ... .. . ... : ... .. . ... : ... .. . ... : ... .. . ...
ROW 0F : ... .. . ... : ... .. . ... : ... .. . ... : 0-# 04 F GFF : ... .. . ...
ROW 10 : A#1 14 E ... : ... .. . ... : C-5 02 . ... : D-# 06 . G05 : ... .. . ...
ROW 11 : ... .. F ... : ... .. . ... : E-2 00 . S0E : ... .. . ... : ... .. . ...
ROW 12 : ... .. . ... : ... .. . ... : ... .. . ... : ... .. . ... : ... .. . ...
ROW 13 : ... .. . ... : ... .. . ... : ... .. . ... : ... .. . ... : ... .. . ...
ROW 14 : C-2 14 . ... : ... .. C ... : E-2 01 . ... : D-# 05 . ... : ... .. . ...
ROW 15 : ... .. . ... : ... .. D ... : ... .. . S0E : ... .. . ... : ... .. . ...
ROW 16 : ... .. . ... : ... .. F ... : ... .. . ... : ... .. . ... : ... .. . ...
ROW 17 : ... .. . ... : ... .. . ... : ... .. . ... : ... .. . ... : ... .. . ...
ROW 18 : ... .. D ... : ... .. B ... : C-4 03 . ... : 9-# 07 . ... : ... .. . ...
ROW 19 : ... .. E ... : ... .. D ... : E-2 00 . S0E : ... .. . ... : ... .. . ...
ROW 1A : ... .. F ... : ... .. E ... : ... .. . ... : D-# 18 . ... : ... .. . ...
ROW 1B : ... .. . ... : ... .. F ... : ... .. . ... : ... .. . ... : ... .. . ...
ROW 1C : F#2 14 . ... : ... .. . ... : E-2 01 . ... : D-# 05 . ... : ... .. . ...
ROW 1D : ... .. . ... : ... .. . ... : ... .. . S0E : ... .. . ... : ... .. . ...
ROW 1E : ... .. . ... : F#1 08 0 A40 : ... .. . ... : D-# 05 5 ... : ... .. . ...
ROW 1F : ... .. . ... : ... .. . ... : ... .. . ... : 0-# 04 F GFF : ... .. . ...
ROW 20 : ... .. E ... : ... .. C A00 : C-5 02 . ... : D-# 06 . G06 : ... .. . ...
ROW 21 : ... .. F ... : ... .. D ... : E-2 00 . S0E : ... .. . ... : ... .. . ...
ROW 22 : ... .. . ... : ... .. F ... : ... .. . ... : ... .. . ... : ... .. . ...
ROW 23 : ... .. . ... : ... .. . ... : ... .. . ... : ... .. . ... : ... .. . ...
ROW 24 : C-2 14 . ... : ... .. . ... : E-2 01 . ... : ... .. . ... : ... .. . ...
ROW 25 : ... .. . ... : ... .. . ... : ... .. . S0E : ... .. . ... : ... .. . ...
ROW 26 : ... .. . ... : ... .. . ... : ... .. . ... : ... .. . ... : ... .. . ...
ROW 27 : ... .. . ... : ... .. . ... : ... .. . ... : 0-# 04 F GFF : ... .. . ...
ROW 28 : ... .. D ... : ... .. B ... : C-4 03 . ... : D-# 06 . G06 : ... .. . ...
ROW 29 : ... .. E ... : ... .. D ... : E-2 00 . S0E : ... .. . ... : ... .. . ...
ROW 2A : ... .. F ... : ... .. E ... : ... .. . ... : ... .. . ... : ... .. . ...
ROW 2B : ... .. . ... : ... .. F ... : ... .. . ... : ... .. . ... : ... .. . ...
ROW 2C : D#2 14 . ... : ... .. . 201 : E-2 01 . ... : ... .. . ... : ... .. . ...
ROW 2D : F-2 14 . ... : ... .. . ... : ... .. . S0E : ... .. . ... : ... .. . ...
ROW 2E : ... .. . ... : ... .. . ... : ... .. . ... : D-# 05 A ... : ... .. . ...
ROW 2F : ... .. . ... : ... .. . ... : ... .. . ... : 0-# 04 F GFF : ... .. . ...
ROW 30 : ... .. E ... : ... .. . ... : C-5 02 . ... : D-# 06 . G06 : ... .. . ...
ROW 31 : ... .. F ... : ... .. . ... : E-2 00 . S0E : ... .. . ... : ... .. . ...
ROW 32 : ... .. . ... : ... .. . ... : ... .. . ... : ... .. . ... : ... .. . ...
ROW 33 : ... .. . ... : ... .. . ... : ... .. . ... : ... .. . ... : ... .. . ...
ROW 34 : F-2 14 . ... : ... .. C ... : E-2 01 . ... : D-# 05 . ... : ... .. . ...
ROW 35 : ... .. . ... : ... .. D ... : ... .. . S0E : ... .. . ... : ... .. . ...
ROW 36 : ... .. . ... : ... .. F ... : ... .. . ... : D-# 05 A ... : ... .. . ...
ROW 37 : ... .. . ... : ... .. . ... : ... .. . ... : ... .. . ... : ... .. . ...
ROW 38 : D#2 14 D ... : ... .. B ... : C-4 03 . ... : 9-# 07 F ... : ... .. . ...
ROW 39 : ... .. E ... : ... .. D ... : E-2 00 . S0E : ... .. . ... : ... .. . ...
ROW 3A : ... .. F ... : ... .. E ... : ... .. . ... : ... .. . ... : ... .. . ...
ROW 3B : ... .. . ... : ... .. F ... : ... .. . ... : ... .. . ... : ... .. . ...
ROW 3C : ... .. . ... : ... .. . ... : E-2 01 . ... : 0-# 04 . ... : ... .. . ...
ROW 3D : ... .. . ... : ... .. . ... : ... .. . S0E : B-# 11 . ... : ... .. . ...
ROW 3E : ... .. . ... : ... .. . ... : ... .. . ... : ... .. . ... : ... .. . ...
ROW 3F : ... .. . ... : ... .. . 200 : ... .. . ... : ... .. . ... : ... .. . ...

PATTERN 0B
ROW 00 : D-2 14 E ... : D-1 08 C ... : C-5 02 . ... : 0-# 04 . ... : ... .. . ...
ROW 01 : ... .. F ... : ... .. D ... : D#2 00 . S0E : ... .. . ... : ... .. . ...
ROW 02 : ... .. . ... : ... .. F ... : ... .. . ... : ... .. . ... : ... .. . ...
ROW 03 : ... .. . ... : === .. . ... : ... .. . ... : ... .. . ... : ... .. . ...
ROW 04 : ... .. . ... : D-1 08 . ... : D#2 01 . ... : D-# 05 . ... : ... .. . ...
ROW 05 : ... .. . ... : ... .. . ... : ... .. . S0E : ... .. . ... : ... .. . ...
ROW 06 : ... .. . ... : === .. . ... : ... .. . ... : ... .. . ... : ... .. . ...
ROW 07 : ... .. . ... : ... .. . ... : ... .. . ... : ... .. . ... : ... .. . ...
ROW 08 : D#2 14 D ... : D-1 08 B ... : C-4 03 . ... : 9-# 07 D ... : ... .. . ...
ROW 09 : ... .. E ... : ... .. D ... : D#2 00 . S0E : ... .. . ... : ... .. . ...
ROW 0A : ... .. F ... : ... .. . ... : ... .. . ... : ... .. . ... : ... .. . ...
ROW 0B : ... .. . ... : === .. F ... : ... .. . ... : ... .. . ... : ... .. . ...
ROW 0C : D-2 14 E ... : F-1 08 C ... : D#2 01 . ... : 0-# 04 F ... : ... .. . ...
ROW 0D : ... .. F ... : ... .. D ... : ... .. . S0E : ... .. . ... : ... .. . ...
ROW 0E : ... .. . ... : ... .. F ... : ... .. . ... : ... .. . ... : ... .. . ...
ROW 0F : ... .. . ... : === .. . ... : ... .. . ... : ... .. . ... : ... .. . ...
ROW 10 : ... .. . ... : F-1 08 . ... : C-5 02 . ... : D-# 05 . ... : ... .. . ...
ROW 11 : ... .. . ... : ... .. . ... : D#2 00 . S0E : ... .. . ... : ... .. . ...
ROW 12 : ... .. . ... : === .. . ... : ... .. . ... : ... .. . ... : ... .. . ...
ROW 13 : ... .. . ... : ... .. . ... : ... .. . ... : ... .. . ... : ... .. . ...
ROW 14 : D#2 14 D ... : F-1 08 B ... : D#2 01 . ... : 9-# 07 D ... : ... .. . ...
ROW 15 : ... .. E ... : ... .. D ... : ... .. . S0E : ... .. . ... : ... .. . ...
ROW 16 : ... .. F ... : ... .. E ... : ... .. . ... : ... .. . ... : ... .. . ...
ROW 17 : ... .. . ... : === .. F ... : ... .. . ... : ... .. . ... : ... .. . ...
ROW 18 : D-2 14 E ... : G#1 08 C ... : C-4 03 . ... : 0-# 04 F ... : ... .. . ...
ROW 19 : ... .. F ... : ... .. D ... : D#2 00 . S0E : ... .. . ... : ... .. . ...
ROW 1A : ... .. . ... : ... .. F ... : ... .. . ... : ... .. . ... : ... .. . ...
ROW 1B : ... .. . ... : === .. . ... : ... .. . ... : ... .. . ... : ... .. . ...
ROW 1C : ... .. . ... : G#1 08 . ... : D#2 01 . ... : D-# 05 . ... : ... .. . ...
ROW 1D : ... .. . ... : ... .. . ... : ... .. . S0E : ... .. . ... : ... .. . ...
ROW 1E : ... .. . ... : === .. . ... : ... .. . ... : ... .. . ... : ... .. . ...
ROW 1F : ... .. . ... : ... .. . ... : ... .. . ... : ... .. . ... : ... .. . ...
ROW 20 : D#2 14 D ... : G#1 08 B ... : C-5 02 . ... : 9-# 07 D ... : ... .. . ...
ROW 21 : ... .. E ... : ... .. D ... : D#2 00 . S28 : ... .. . ... : ... .. . ...
ROW 22 : ... .. F ... : ... .. E ... : ... .. . ... : ... .. . ... : ... .. . ...
ROW 23 : ... .. . ... : === .. F ... : ... .. . ... : ... .. . ... : ... .. . ...
ROW 24 : D-2 14 E ... : B-1 08 C ... : ... .. . ... : 0-# 04 F ... : ... .. . ...
ROW 25 : ... .. F ... : ... .. D ... : ... .. . ... : ... .. . ... : ... .. . ...
ROW 26 : ... .. . ... : ... .. F ... : ... .. . ... : ... .. . ... : ... .. . ...
ROW 27 : ... .. . ... : === .. . ... : ... .. . ... : ... .. . ... : ... .. . ...
ROW 28 : ... .. . ... : B-1 08 . ... : C-5 02 . ... : D-# 05 . ... : ... .. . ...
ROW 29 : ... .. . ... : ... .. . ... : D#2 00 . S28 : ... .. . ... : ... .. . ...
ROW 2A : ... .. . ... : === .. . ... : ... .. . ... : ... .. . ... : ... .. . ...
ROW 2B : ... .. . ... : ... .. . ... : ... .. . ... : ... .. . ... : ... .. . ...
ROW 2C : D#2 14 D ... : B-1 08 B ... : ... .. . ... : 9-# 07 D ... : ... .. . ...
ROW 2D : ... .. E ... : ... .. D ... : ... .. . ... : ... .. . ... : ... .. . ...
ROW 2E : ... .. F ... : ... .. . ... : ... .. . ... : ... .. . ... : ... .. . ...
ROW 2F : ... .. . ... : === .. F ... : ... .. . ... : ... .. . ... : ... .. . ...
ROW 30 : D-2 14 D ... : D-2 08 B ... : C-5 02 . ... : 9-# 07 . ... : ... .. . ...
ROW 31 : ... .. E ... : ... .. D ... : D#2 00 . S28 : ... .. . ... : ... .. . ...
ROW 32 : ... .. F ... : ... .. E ... : ... .. . ... : D-# 05 F G06 : ... .. . ...
ROW 33 : ... .. . ... : ... .. F ... : ... .. . ... : ... .. . ... : ... .. . ...
ROW 34 : B-2 14 . ... : === .. . ... : ... .. . ... : ... .. . ... : ... .. . ...
ROW 35 : ... .. . ... : ... .. . ... : ... .. . ... : D-# 06 . G04 : ... .. . ...
ROW 36 : ... .. . ... : ... .. . ... : ... .. . ... : ... .. . ... : ... .. . ...
ROW 37 : ... .. . ... : ... .. . ... : ... .. . ... : ... .. . ... : ... .. . ...
ROW 38 : F-2 14 D ... : D-2 08 B ... : C-5 10 . ... : 9-# 07 . ... : ... .. . ...
ROW 39 : ... .. E ... : ... .. D ... : D#2 00 . ... : ... .. . ... : ... .. . ...
ROW 3A : ... .. F ... : ... .. E ... : C-5 10 . ... : D-# 05 . G06 : ... .. . ...
ROW 3B : ... .. . ... : ... .. F ... : D#2 00 . ... : ... .. . ... : ... .. . ...
ROW 3C : D-2 14 . ... : ... .. . 220 : F-4 10 . ... : ... .. . ... : ... .. . ...
ROW 3D : ... .. . ... : ... .. . ... : D#2 00 . G02 : D-# 06 . G04 : ... .. . ...
ROW 3E : ... .. . ... : === .. . ... : ... .. . S08 : ... .. . ... : ... .. . ...
ROW 3F : ... .. . ... : ... .. . 200 : ... .. . ... : A-# 17 . ... : ... .. . ...

PATTERN 0C
ROW 00 : E-1 09 C V02 : D#1 08 B V02 : C-5 02 . ... : 0-# 04 F ... : ... .. . ...
ROW 01 : ... .. D ... : ... .. C ... : D-2 00 . S0E : ... .. . ... : ... .. . ...
ROW 02 : ... .. F ... : ... .. E ... : ... .. . ... : ... .. . ... : ... .. . ...
ROW 03 : ... .. . ... : === .. F ... : ... .. . ... : ... .. . ... : ... .. . ...
ROW 04 : ... .. . ... : D#1 08 . V01 : D-2 01 . ... : D-# 05 . ... : ... .. . ...
ROW 05 : ... .. . ... : ... .. . ... : ... .. . S0A : ... .. . ... : ... .. . ...
ROW 06 : ... .. . ... : ... .. . ... : ... .. . ... : D-# 05 5 ... : ... .. . ...
ROW 07 : ... .. . ... : === .. . ... : ... .. . ... : ... .. . ... : ... .. . ...
ROW 08 : ... .. B ... : D#1 08 B V00 : C-4 03 . ... : 9-# 07 F ... : ... .. . ...
ROW 09 : ... .. D ... : ... .. D ... : D-2 00 . S0E : ... .. . ... : ... .. . ...
ROW 0A : === .. E ... : ... .. E ... : ... .. . ... : ... .. . ... : ... .. . ...
ROW 0B : ... .. F ... : === .. F ... : ... .. . ... : ... .. . ... : ... .. . ...
ROW 0C : E-1 09 . ... : D#1 08 . V02 : C-5 02 . ... : D-# 05 . ... : ... .. . ...
ROW 0D : ... .. . ... : ... .. . ... : D-2 00 . S0E : ... .. . ... : ... .. . ...
ROW 0E : ... .. . ... : ... .. . ... : ... .. . ... : D-# 05 A ... : ... .. . ...
ROW 0F : === .. . ... : === .. . ... : ... .. . ... : ... .. . ... : ... .. . ...
ROW 10 : ... .. . ... : D#1 08 . V00 : D-2 01 . ... : D-# 05 F ... : ... .. . ...
ROW 11 : ... .. . ... : ... .. . ... : ... .. . S0A : ... .. . ... : ... .. . ...
ROW 12 : ... .. . ... : ... .. . ... : ... .. . ... : D-# 05 A ... : ... .. . ...
ROW 13 : ... .. . ... : === .. . ... : ... .. . ... : ... .. . ... : ... .. . ...
ROW 14 : ... .. . ... : D#1 08 C V01 : C-4 03 . ... : 0-# 04 F ... : ... .. . ...
ROW 15 : ... .. . ... : ... .. D ... : D-2 00 . S0E : ... .. . ... : ... .. . ...
ROW 16 : ... .. . ... : ... .. F ... : ... .. . ... : D-# 05 5 ... : ... .. . ...
ROW 17 : ... .. . ... : === .. . ... : ... .. . ... : ... .. . ... : ... .. . ...
ROW 18 : ... .. . ... : D#1 08 B V02 : C-5 02 . ... : 9-# 07 F ... : ... .. . ...
ROW 19 : ... .. . ... : ... .. D ... : D-2 00 . S0E : ... .. . ... : ... .. . ...
ROW 1A : ... .. . ... : ... .. E ... : ... .. . ... : ... .. . ... : ... .. . ...
ROW 1B : ... .. . ... : === .. F ... : ... .. . ... : ... .. . ... : ... .. . ...
ROW 1C : ... .. . ... : D#1 08 . V00 : D-2 01 . ... : D-# 05 . ... : ... .. . ...
ROW 1D : ... .. . ... : ... .. . ... : ... .. . S0A : ... .. . ... : ... .. . ...
ROW 1E : ... .. . ... : ... .. . ... : ... .. . ... : D-# 05 A ... : ... .. . ...
ROW 1F : ... .. . ... : === .. . ... : ... .. . ... : ... .. . ... : ... .. . ...
ROW 20 : ... .. . ... : F-1 08 C V02 : C-4 03 . ... : 0-# 04 F ... : ... .. . ...
ROW 21 : ... .. . ... : ... .. D ... : D-2 00 . S0E : ... .. . ... : ... .. . ...
ROW 22 : ... .. . ... : ... .. F ... : ... .. . ... : ... .. . ... : ... .. . ...
ROW 23 : ... .. . ... : === .. . ... : ... .. . ... : ... .. . ... : ... .. . ...
ROW 24 : ... .. . ... : F-1 08 . V01 : C-5 02 . ... : D-# 06 C ... : ... .. . ...
ROW 25 : ... .. . ... : ... .. . ... : D-2 00 . S0E : ... .. . ... : ... .. . ...
ROW 26 : ... .. . ... : ... .. . ... : ... .. . ... : ... .. . ... : ... .. . ...
ROW 27 : ... .. . ... : === .. . ... : ... .. . ... : ... .. . ... : ... .. . ...
ROW 28 : ... .. . ... : F-1 08 B V00 : D-2 01 . ... : 9-# 07 F ... : ... .. . ...
ROW 29 : ... .. . ... : ... .. D ... : ... .. . S0A : ... .. . ... : ... .. . ...
ROW 2A : ... .. . ... : ... .. E ... : ... .. . ... : ... .. . ... : ... .. . ...
ROW 2B : ... .. . ... : === .. F ... : ... .. . ... : ... .. . ... : ... .. . ...
ROW 2C : ... .. . ... : F-1 08 . V02 : C-4 03 . ... : D-# 06 C ... : ... .. . ...
ROW 2D : ... .. . ... : ... .. . ... : D-2 00 . S0E : ... .. . ... : ... .. . ...
ROW 2E : ... .. . ... : ... .. . ... : ... .. . ... : ... .. . ... : ... .. . ...
ROW 2F : ... .. . ... : === .. . ... : ... .. . ... : ... .. . ... : ... .. . ...
ROW 30 : F-1 09 . ... : F-1 08 . V00 : C-4 03 . ... : D-# 05 F ... : ... .. . ...
ROW 31 : ... .. . ... : ... .. . ... : D-3 00 . S16 : ... .. . ... : ... .. . ...
ROW 32 : ... .. . ... : ... .. . ... : ... .. . ... : D-# 05 A ... : ... .. . ...
ROW 33 : === .. . ... : === .. . ... : ... .. . ... : ... .. . ... : ... .. . ...
ROW 34 : F-1 09 C ... : F-1 08 C V01 : ... .. . ... : 0-# 04 F ... : ... .. . ...
ROW 35 : ... .. D ... : ... .. D ... : ... .. . ... : ... .. . ... : ... .. . ...
ROW 36 : ... .. F ... : ... .. F ... : ... .. . ... : D-# 05 5 ... : ... .. . ...
ROW 37 : ... .. . ... : === .. . ... : ... .. . ... : ... .. . ... : ... .. . ...
ROW 38 : ... .. B ... : F-1 08 B V02 : C-4 03 . ... : 9-# 07 F ... : ... .. . ...
ROW 39 : ... .. D ... : ... .. D ... : D-3 00 . ... : ... .. . ... : ... .. . ...
ROW 3A : ... .. E ... : ... .. E ... : ... .. . ... : ... .. . ... : ... .. . ...
ROW 3B : ... .. F ... : === .. F ... : ... .. . ... : ... .. . ... : ... .. . ...
ROW 3C : ... .. C ... : F-1 08 . V00 : C-5 10 . ... : 0-# 04 . ... : ... .. . ...
ROW 3D : ... .. D ... : ... .. . ... : D-3 00 . ... : ... .. . ... : ... .. . ...
ROW 3E : === .. F ... : ... .. . ... : G-4 10 . S08 : D-# 05 A ... : ... .. . ...
ROW 3F : ... .. . ... : === .. . ... : ... .. . ... : A-# 17 D ... : ... .. . ...

PATTERN 0D
ROW 00 : E-1 09 C V02 : A#0 08 C V02 : C-5 02 . ... : B-# 12 . ... : ... .. . ...
ROW 01 : ... .. D ... : ... .. D ... : D#2 00 . S0E : ... .. . ... : ... .. . ...
ROW 02 : ... .. F ... : ... .. F ... : ... .. . ... : ... .. . ... : ... .. . ...
ROW 03 : ... .. . ... : === .. . ... : ... .. . ... : ... .. . ... : ... .. . ...
ROW 04 : ... .. . ... : A#0 08 . V01 : D#2 01 . ... : ... .. . ... : ... .. . ...
ROW 05 : ... .. . ... : ... .. . ... : ... .. . S0E : ... .. . ... : ... .. . ...
ROW 06 : ... .. . ... : ... .. . ... : ... .. . ... : ... .. . ... : ... .. . ...
ROW 07 : ... .. . ... : === .. . ... : ... .. . ... : ... .. . ... : ... .. . ...
ROW 08 : ... .. B ... : A#0 08 B V00 : C-4 03 . ... : 0-# 04 . ... : ... .. . ...
ROW 09 : ... .. D ... : ... .. D ... : D#2 00 . S0E : ... .. . ... : ... .. . ...
ROW 0A : === .. E ... : ... .. E ... : ... .. . ... : ... .. . ... : ... .. . ...
ROW 0B : ... .. F ... : === .. F ... : ... .. . ... : ... .. . ... : ... .. . ...
ROW 0C : ... .. . ... : A#0 08 . V02 : D#2 01 . ... : A-# 06 5 ... : ... .. . ...
ROW 0D : ... .. . ... : ... .. . ... : ... .. . S0E : ... .. . ... : ... .. . ...
ROW 0E : ... .. . ... : ... .. . ... : ... .. . ... : ... .. . ... : ... .. . ...
ROW 0F : ... .. . ... : === .. . ... : ... .. . ... : ... .. . ... : ... .. . ...
ROW 10 : ... .. . ... : A#0 08 . V00 : D#2 01 . ... : 0-# 04 F ... : ... .. . ...
ROW 11 : ... .. . ... : ... .. . ... : ... .. . S0E : ... .. . ... : ... .. . ...
ROW 12 : ... .. . ... : ... .. . ... : ... .. . ... : ... .. . ... : ... .. . ...
ROW 13 : ... .. . ... : === .. . ... : ... .. . ... : ... .. . ... : ... .. . ...
ROW 14 : ... .. C ... : A#0 08 C V01 : C-5 02 . ... : A-# 06 5 ... : ... .. . ...
ROW 15 : ... .. D ... : ... .. D ... : D#2 00 . S0E : ... .. . ... : ... .. . ...
ROW 16 : ... .. F ... : ... .. F ... : ... .. . ... : ... .. . ... : ... .. . ...
ROW 17 : ... .. . ... : === .. . ... : ... .. . ... : ... .. . ... : ... .. . ...
ROW 18 : ... .. B ... : A#0 08 B V02 : C-4 03 . ... : 0-# 04 F ... : ... .. . ...
ROW 19 : ... .. D ... : ... .. D ... : D#2 00 . S0E : ... .. . ... : ... .. . ...
ROW 1A : ... .. E ... : ... .. E ... : ... .. . ... : ... .. . ... : ... .. . ...
ROW 1B : ... .. F ... : === .. F ... : ... .. . ... : ... .. . ... : ... .. . ...
ROW 1C : ... .. . ... : A#0 08 . V00 : D#2 01 . ... : A-# 06 5 ... : ... .. . ...
ROW 1D : ... .. . ... : ... .. . ... : ... .. . S0E : ... .. . ... : ... .. . ...
ROW 1E : G-1 09 0 A40 : ... .. . ... : ... .. . ... : ... .. . ... : ... .. . ...
ROW 1F : ... .. . ... : === .. . ... : ... .. . ... : ... .. . ... : ... .. . ...
ROW 20 : ... .. C A00 : D-1 08 C V02 : C-5 02 . ... : 0-# 04 F ... : ... .. . ...
ROW 21 : ... .. D ... : ... .. D ... : F-2 00 . S0E : ... .. . ... : ... .. . ...
ROW 22 : ... .. F ... : ... .. F ... : ... .. . ... : ... .. . ... : ... .. . ...
ROW 23 : ... .. . ... : === .. . ... : ... .. . ... : ... .. . ... : ... .. . ...
ROW 24 : ... .. . ... : D-1 08 . V01 : F-2 01 . ... : A-# 06 5 ... : ... .. . ...
ROW 25 : ... .. . ... : ... .. . ... : ... .. . S0E : ... .. . ... : ... .. . ...
ROW 26 : ... .. . ... : ... .. . ... : ... .. . ... : ... .. . ... : ... .. . ...
ROW 27 : ... .. . ... : === .. . ... : ... .. . ... : ... .. . ... : ... .. . ...
ROW 28 : ... .. B ... : D-1 08 B V00 : C-4 03 . ... : 0-# 04 F ... : ... .. . ...
ROW 29 : ... .. D ... : ... .. D ... : F-2 00 . S0E : ... .. . ... : ... .. . ...
ROW 2A : ... .. E ... : ... .. E ... : ... .. . ... : ... .. . ... : ... .. . ...
ROW 2B : ... .. F ... : === .. F ... : ... .. . ... : ... .. . ... : ... .. . ...
ROW 2C : ... .. . 201 : D-1 08 . V02 : F-2 01 . ... : A-# 06 5 ... : ... .. . ...
ROW 2D : ... .. . ... : ... .. . ... : ... .. . S0E : ... .. . ... : ... .. . ...
ROW 2E : ... .. . ... : ... .. . ... : ... .. . ... : ... .. . ... : ... .. . ...
ROW 2F : ... .. . ... : === .. . ... : ... .. . ... : ... .. . ... : ... .. . ...
ROW 30 : ... .. . ... : D-1 08 . V00 : F-2 01 . ... : ... .. . ... : ... .. . ...
ROW 31 : ... .. . ... : ... .. . ... : ... .. . S0E : ... .. . ... : ... .. . ...
ROW 32 : ... .. . ... : ... .. . ... : ... .. . ... : ... .. . ... : ... .. . ...
ROW 33 : ... .. . ... : === .. . ... : ... .. . ... : ... .. . ... : ... .. . ...
ROW 34 : ... .. C ... : D-2 08 C ... : C-5 02 . ... : ... .. . ... : ... .. . ...
ROW 35 : ... .. D ... : ... .. D ... : F-2 00 . S0E : ... .. . ... : ... .. . ...
ROW 36 : ... .. F ... : ... .. F V01 : ... .. . ... : ... .. . ... : ... .. . ...
ROW 37 : ... .. . ... : === .. . ... : ... .. . ... : ... .. . ... : ... .. . ...
ROW 38 : ... .. B ... : D-1 08 B V02 : C-4 03 . ... : ... .. . ... : ... .. . ...
ROW 39 : ... .. D ... : ... .. D ... : F-2 00 . S0E : ... .. . ... : ... .. . ...
ROW 3A : ... .. E ... : ... .. E ... : ... .. . ... : ... .. . ... : ... .. . ...
ROW 3B : ... .. F ... : === .. F ... : ... .. . ... : ... .. . ... : ... .. . ...
ROW 3C : ... .. . ... : D-1 08 . V01 : F-2 01 . ... : ... .. . ... : ... .. . ...
ROW 3D : ... .. . ... : ... .. . ... : ... .. . S0E : ... .. . ... : ... .. . ...
ROW 3E : ... .. . ... : ... .. . ... : ... .. . ... : ... .. . ... : ... .. . ...
ROW 3F : ... .. . 200 : === .. . ... : ... .. . ... : ... .. . ... : ... .. . ...

PATTERN 0E
ROW 00 : D-2 14 E ... : D#1 08 C V02 : C-5 02 . ... : 0-# 04 F ... : ... .. . ...
ROW 01 : ... .. F ... : ... .. D ... : A#1 00 . S0E : ... .. . ... : ... .. . ...
ROW 02 : ... .. . ... : ... .. F ... : ... .. . ... : ... .. . ... : ... .. . ...
ROW 03 : ... .. . ... : === .. . ... : ... .. . ... : ... .. . ... : ... .. . ...
ROW 04 : ... .. . ... : D#1 08 . V01 : A#1 01 . ... : ... .. . ... : ... .. . ...
ROW 05 : ... .. . ... : ... .. . ... : ... .. . S0E : ... .. . ... : ... .. . ...
ROW 06 : ... .. . ... : ... .. . ... : ... .. . ... : ... .. . ... : ... .. . ...
ROW 07 : ... .. . ... : === .. . ... : ... .. . ... : ... .. . ... : ... .. . ...
ROW 08 : G#2 14 D ... : D#1 08 B V00 : C-4 03 . ... : ... .. . ... : ... .. . ...
ROW 09 : ... .. E ... : ... .. D ... : A#1 00 . S0E : ... .. . ... : ... .. . ...
ROW 0A : ... .. F ... : ... .. E ... : ... .. . ... : ... .. . ... : ... .. . ...
ROW 0B : ... .. . ... : === .. F ... : ... .. . ... : ... .. . ... : ... .. . ...
ROW 0C : F-2 14 E ... : D#1 08 . V02 : A#1 01 . ... : ... .. . ... : ... .. . ...
ROW 0D : ... .. F ... : ... .. . ... : ... .. . S0E : ... .. . ... : ... .. . ...
ROW 0E : ... .. . ... : ... .. . ... : ... .. . ... : ... .. . ... : ... .. . ...
ROW 0F : ... .. . ... : === .. . ... : ... .. . ... : ... .. . ... : ... .. . ...
ROW 10 : ... .. . ... : C#1 08 . V00 : A#1 01 . ... : A-# 06 5 ... : ... .. . ...
ROW 11 : ... .. . ... : ... .. . ... : ... .. . S0E : ... .. . ... : ... .. . ...
ROW 12 : ... .. . ... : ... .. . ... : ... .. . ... : ... .. . ... : ... .. . ...
ROW 13 : ... .. . ... : === .. . ... : ... .. . ... : ... .. . ... : ... .. . ...
ROW 14 : B-2 14 D ... : C#1 08 C V01 : C-5 02 . ... : ... .. . ... : ... .. . ...
ROW 15 : ... .. E ... : ... .. D ... : A#1 00 . S0E : ... .. . ... : ... .. . ...
ROW 16 : ... .. F ... : ... .. F ... : ... .. . ... : ... .. . ... : ... .. . ...
ROW 17 : ... .. . ... : === .. . ... : ... .. . ... : ... .. . ... : ... .. . ...
ROW 18 : G#2 14 E ... : C#1 08 B V02 : C-4 03 . ... : ... .. . ... : ... .. . ...
ROW 19 : ... .. F ... : ... .. D ... : A#1 00 . S0E : ... .. . ... : ... .. . ...
ROW 1A : ... .. . ... : ... .. E ... : ... .. . ... : ... .. . ... : ... .. . ...
ROW 1B : ... .. . ... : === .. F ... : ... .. . ... : ... .. . ... : ... .. . ...
ROW 1C : ... .. . ... : C#1 08 . V00 : A#1 01 . ... : ... .. . ... : ... .. . ...
ROW 1D : ... .. . ... : ... .. . ... : ... .. . S0E : ... .. . ... : ... .. . ...
ROW 1E : ... .. . ... : ... .. . ... : ... .. . ... : ... .. . ... : ... .. . ...
ROW 1F : ... .. . ... : === .. . ... : ... .. . ... : ... .. . ... : ... .. . ...
ROW 20 : D-3 14 D ... : C-1 08 C V02 : C-5 02 . ... : 0-# 04 F ... : ... .. . ...
ROW 21 : ... .. E ... : ... .. D ... : D-2 00 . S0E : ... .. . ... : ... .. . ...
ROW 22 : ... .. F ... : ... .. F ... : ... .. . ... : ... .. . ... : ... .. . ...
ROW 23 : ... .. . ... : === .. . ... : ... .. . ... : ... .. . ... : ... .. . ...
ROW 24 : B-2 14 E ... : C-1 08 . V01 : D-2 01 . ... : ... .. . ... : ... .. . ...
ROW 25 : ... .. F ... : ... .. . ... : ... .. . S0E : ... .. . ... : ... .. . ...
ROW 26 : ... .. . ... : ... .. . ... : ... .. . ... : ... .. . ... : ... .. . ...
ROW 27 : ... .. . ... : === .. . ... : ... .. . ... : ... .. . ... : ... .. . ...
ROW 28 : ... .. . ... : C-1 08 B V00 : C-4 03 . ... : ... .. . ... : ... .. . ...
ROW 29 : ... .. . ... : ... .. D ... : D-2 00 . S0E : ... .. . ... : ... .. . ...
ROW 2A : ... .. . ... : ... .. E ... : ... .. . ... : ... .. . ... : ... .. . ...
ROW 2B : ... .. . ... : === .. F ... : ... .. . ... : ... .. . ... : ... .. . ...
ROW 2C : D-3 14 D ... : C-1 08 . V02 : D-2 01 . ... : ... .. . ... : ... .. . ...
ROW 2D : ... .. E ... : ... .. . ... : ... .. . S0E : ... .. . ... : ... .. . ...
ROW 2E : ... .. F ... : ... .. . ... : ... .. . ... : ... .. . ... : ... .. . ...
ROW 2F : ... .. . ... : === .. . ... : ... .. . ... : ... .. . ... : ... .. . ...
ROW 30 : F-3 14 D ... : C-1 08 . V00 : D-2 01 . ... : 9-# 16 . ... : ... .. . ...
ROW 31 : ... .. E ... : ... .. . ... : ... .. . S0E : ... .. . ... : ... .. . ...
ROW 32 : D-3 14 F G05 : ... .. . ... : ... .. . ... : ... .. . ... : ... .. . ...
ROW 33 : ... .. . ... : === .. . ... : ... .. . ... : ... .. . ... : ... .. . ...
ROW 34 : ... .. . ... : C-1 08 C V01 : C-5 02 . ... : ... .. . ... : ... .. . ...
ROW 35 : B-2 14 . G03 : ... .. D ... : D-3 00 . S0E : ... .. . ... : ... .. . ...
ROW 36 : ... .. . ... : ... .. F ... : ... .. . ... : ... .. . ... : ... .. . ...
ROW 37 : ... .. . ... : === .. . ... : ... .. . ... : ... .. . ... : ... .. . ...
ROW 38 : G#2 14 D ... : C-1 08 B V02 : C-4 03 . ... : D-# 05 6 ... : ... .. . ...
ROW 39 : ... .. E ... : ... .. D ... : D-2 00 . S0E : ... .. . ... : ... .. . ...
ROW 3A : F-2 14 F G05 : ... .. E ... : ... .. . ... : ... .. . ... : ... .. . ...
ROW 3B : ... .. . ... : === .. F ... : ... .. . ... : ... .. . ... : ... .. . ...
ROW 3C : ... .. . ... : C-1 08 . V00 : D-2 01 . ... : D-# 05 A ... : ... .. . ...
ROW 3D : D-2 14 . G03 : ... .. . ... : ... .. . S0E : ... .. . ... : ... .. . ...
ROW 3E : ... .. . ... : ... .. . ... : ... .. . ... : ... .. . ... : ... .. . ...
ROW 3F : ... .. . ... : === .. . ... : ... .. . ... : ... .. . ... : ... .. . ...

PATTERN 0F
ROW 00 : D#3 1A B 400 : C#1 08 C V02 : C-5 02 . ... : 0-# 04 F ... : ... .. . ...
ROW 01 : ... .. C ... : ... .. D ... : D#2 00 . S0E : ... .. . ... : ... .. . ...
ROW 02 : ... .. E ... : ... .. F ... : ... .. . ... : ... .. . ... : ... .. . ...
ROW 03 : ... .. F ... : === .. . ... : ... .. . ... : ... .. . ... : ... .. . ...
ROW 04 : ... .. . ... : C#1 08 . V01 : D#2 01 . ... : A-# 06 5 ... : ... .. . ...
ROW 05 : ... .. . ... : ... .. . ... : ... .. . S0E : ... .. . ... : ... .. . ...
ROW 06 : ... .. . ... : ... .. . ... : ... .. . ... : ... .. . ... : ... .. . ...
ROW 07 : ... .. . ... : === .. . ... : ... .. . ... : ... .. . ... : ... .. . ...
ROW 08 : ... .. D 426 : C#1 08 B V00 : C-4 03 . ... : 0-# 04 F ... : ... .. . ...
ROW 09 : ... .. E ... : ... .. D ... : D#2 00 . S0E : ... .. . ... : ... .. . ...
ROW 0A : ... .. F ... : ... .. E ... : ... .. . ... : ... .. . ... : ... .. . ...
ROW 0B : ... .. . ... : === .. F ... : ... .. . ... : ... .. . ... : ... .. . ...
ROW 0C : === 1F . ... : C#1 08 . V02 : D#2 01 . ... : A-# 06 5 ... : ... .. . ...
ROW 0D : ... .. . ... : ... .. . ... : ... .. . S0E : ... .. . ... : ... .. . ...
ROW 0E : ... .. . ... : ... .. . ... : ... .. . ... : ... .. . ... : ... .. . ...
ROW 0F : ... .. . ... : === .. . ... : ... .. . ... : ... .. . ... : ... .. . ...
ROW 10 : A-3 1A . 400 : C#1 08 . V00 : C#2 01 . ... : 0-# 04 F ... : ... .. . ...
ROW 11 : ... .. . Q01 : ... .. . ... : ... .. . S0E : ... .. . ... : ... .. . ...
ROW 12 : ... .. . ... : ... .. . ... : ... .. . ... : ... .. . ... : ... .. . ...
ROW 13 : ... .. . ... : === .. . ... : ... .. . ... : ... .. . ... : ... .. . ...
ROW 14 : ... .. E ... : C#1 08 C V01 : C-5 02 . ... : A-# 06 5 ... : ... .. . ...
ROW 15 : ... .. F ... : ... .. D ... : C#2 00 . S0E : ... .. . ... : ... .. . ...
ROW 16 : ... .. . ... : ... .. F ... : ... .. . ... : ... .. . ... : ... .. . ...
ROW 17 : ... .. . ... : === .. . ... : ... .. . ... : ... .. . ... : ... .. . ...
ROW 18 : ... .. D 426 : C#1 08 B V02 : C-4 03 . ... : 0-# 04 F ... : ... .. . ...
ROW 19 : ... .. E ... : ... .. D ... : C#2 00 . S0E : ... .. . ... : ... .. . ...
ROW 1A : ... .. F ... : ... .. E ... : ... .. . ... : ... .. . ... : ... .. . ...
ROW 1B : ... .. . ... : === .. F ... : ... .. . ... : ... .. . ... : ... .. . ...
ROW 1C : === 1F . ... : C#1 08 . V00 : C#2 01 . ... : A-# 06 5 ... : ... .. . ...
ROW 1D : ... .. . ... : ... .. . ... : ... .. . S0E : ... .. . ... : ... .. . ...
ROW 1E : ... .. . ... : ... .. . ... : ... .. . ... : D-# 05 A ... : ... .. . ...
ROW 1F : ... .. . ... : === .. . ... : ... .. . ... : ... .. . ... : ... .. . ...
ROW 20 : A-3 1A E 400 : D-1 08 C V02 : C-5 02 . ... : 0-# 04 F ... : ... .. . ...
ROW 21 : ... .. F ... : ... .. D ... : C-2 00 . S0E : ... .. . ... : ... .. . ...
ROW 22 : ... .. . ... : ... .. F ... : ... .. . ... : ... .. . ... : ... .. . ...
ROW 23 : ... .. . ... : === .. . ... : ... .. . ... : ... .. . ... : ... .. . ...
ROW 24 : ... .. . ... : D-1 08 . V01 : C-2 01 . ... : A-# 06 5 ... : ... .. . ...
ROW 25 : ... .. . ... : ... .. . ... : ... .. . S0E : ... .. . ... : ... .. . ...
ROW 26 : ... .. . ... : ... .. . ... : ... .. . ... : ... .. . ... : ... .. . ...
ROW 27 : ... .. . ... : === .. . ... : ... .. . ... : ... .. . ... : ... .. . ...
ROW 28 : ... .. D 426 : D-1 08 B V00 : C-4 03 . ... : 0-# 04 F ... : ... .. . ...
ROW 29 : ... .. E ... : ... .. D ... : C-2 00 . S0E : ... .. . ... : ... .. . ...
ROW 2A : ... .. F ... : ... .. E ... : ... .. . ... : ... .. . ... : ... .. . ...
ROW 2B : ... .. . ... : === .. F ... : ... .. . ... : ... .. . ... : ... .. . ...
ROW 2C : === 1F . ... : D-1 08 . V02 : C-2 01 . ... : A-# 06 5 ... : ... .. . ...
ROW 2D : ... .. . ... : ... .. . ... : ... .. . S0E : ... .. . ... : ... .. . ...
ROW 2E : ... .. . ... : ... .. . ... : ... .. . ... : ... .. . ... : ... .. . ...
ROW 2F : ... .. . ... : === .. . ... : ... .. . ... : ... .. . ... : ... .. . ...
ROW 30 : F-3 1A . 400 : D-1 08 . V00 : C-2 01 . ... : ... .. . ... : ... .. . ...
ROW 31 : ... .. . ... : ... .. . ... : ... .. . S0E : ... .. . ... : ... .. . ...
ROW 32 : ... .. . ... : ... .. . ... : ... .. . ... : ... .. . ... : ... .. . ...
ROW 33 : ... .. . ... : === .. . ... : ... .. . ... : ... .. . ... : ... .. . ...
ROW 34 : ... .. E ... : D-2 08 C ... : C-5 02 . ... : ... .. . ... : ... .. . ...
ROW 35 : ... .. F ... : ... .. D ... : C-2 00 . S0E : ... .. . ... : ... .. . ...
ROW 36 : ... .. . ... : ... .. F V01 : ... .. . ... : ... .. . ... : ... .. . ...
ROW 37 : A-3 1F . V00 : === .. . ... : ... .. . ... : ... .. . ... : ... .. . ...
ROW 38 : F#3 1A D ... : D-1 08 B V02 : C-4 03 . ... : ... .. . ... : ... .. . ...
ROW 39 : ... .. E ... : ... .. D ... : C-2 00 . S0E : ... .. . ... : ... .. . ...
ROW 3A : ... .. F ... : ... .. E ... : ... .. . ... : ... .. . ... : ... .. . ...
ROW 3B : ... .. . ... : === .. F ... : ... .. . ... : ... .. . ... : ... .. . ...
ROW 3C : F-3 1F . ... : D-1 08 . V01 : C-2 01 . ... : ... .. . ... : ... .. . ...
ROW 3D : ... .. . ... : ... .. . ... : ... .. . S0E : ... .. . ... : ... .. . ...
ROW 3E : ... .. . ... : ... .. . ... : ... .. . ... : ... .. . ... : ... .. . ...
ROW 3F : ... .. . ... : === .. . ... : ... .. . ... : ... .. . ... : ... .. . ...

PATTERN 10
ROW 00 : G#3 1A E ... : B-0 08 C V02 : C-5 02 . ... : 0-# 04 F ... : ... .. . ...
ROW 01 : ... .. F ... : ... .. D ... : C#2 00 . S0E : ... .. . ... : ... .. . ...
ROW 02 : ... .. . ... : ... .. F ... : ... .. . ... : ... .. . ... : ... .. . ...
ROW 03 : ... .. . ... : === .. . ... : ... .. . ... : ... .. . ... : ... .. . ...
ROW 04 : ... .. . 426 : B-0 08 . V01 : C#2 01 . ... : ... .. . ... : ... .. . ...
ROW 05 : ... .. . ... : ... .. . ... : ... .. . S0E : ... .. . ... : ... .. . ...
ROW 06 : ... .. . ... : ... .. . ... : ... .. . ... : ... .. . ... : ... .. . ...
ROW 07 : F#3 1F . 400 : === .. . ... : ... .. . ... : ... .. . ... : ... .. . ...
ROW 08 : F#3 1A D ... : B-0 08 B V00 : C-4 03 . ... : ... .. . ... : ... .. . ...
ROW 09 : ... .. E ... : ... .. D ... : C#2 00 . S0E : ... .. . ... : ... .. . ...
ROW 0A : ... .. F ... : ... .. E ... : ... .. . ... : ... .. . ... : ... .. . ...
ROW 0B : ... .. . ... : === .. F ... : ... .. . ... : ... .. . ... : ... .. . ...
ROW 0C : ... .. . ... : B-0 08 . V02 : C#2 01 . ... : ... .. . ... : ... .. . ...
ROW 0D : G#3 1F . ... : ... .. . ... : ... .. . S0E : ... .. . ... : ... .. . ...
ROW 0E : ... .. . ... : ... .. . ... : ... .. . ... : ... .. . ... : ... .. . ...
ROW 0F : ... .. . ... : === .. . ... : ... .. . ... : ... .. . ... : ... .. . ...
ROW 10 : F-3 1A . ... : B-0 08 . V00 : C#2 01 . ... : A-# 06 5 ... : ... .. . ...
ROW 11 : ... .. . ... : ... .. . ... : ... .. . S0E : ... .. . ... : ... .. . ...
ROW 12 : ... .. . ... : ... .. . ... : ... .. . ... : ... .. . ... : ... .. . ...
ROW 13 : ... .. . ... : === .. . ... : ... .. . ... : ... .. . ... : ... .. . ...
ROW 14 : ... .. E 426 : B-0 08 C V01 : C-5 02 . ... : A-# 06 6 ... : ... .. . ...
ROW 15 : ... .. F ... : ... .. D ... : C#2 00 . S0E : ... .. . ... : ... .. . ...
ROW 16 : ... .. . ... : ... .. F ... : ... .. . ... : ... .. . ... : ... .. . ...
ROW 17 : F#3 1F . 400 : === .. . ... : ... .. . ... : ... .. . ... : ... .. . ...
ROW 18 : D#3 1A D ... : B-0 08 B V02 : C-4 03 . ... : A-# 06 7 ... : ... .. . ...
ROW 19 : ... .. E ... : ... .. D ... : C#2 00 . S0E : ... .. . ... : ... .. . ...
ROW 1A : ... .. F ... : ... .. E ... : ... .. . ... : ... .. . ... : ... .. . ...
ROW 1B : ... .. . ... : === .. F ... : ... .. . ... : ... .. . ... : ... .. . ...
ROW 1C : ... .. . ... : B-0 08 . V00 : C#2 01 . ... : A-# 06 8 ... : ... .. . ...
ROW 1D : F-3 1F . ... : ... .. . ... : ... .. . S0E : ... .. . ... : ... .. . ...
ROW 1E : ... .. . ... : ... .. . ... : ... .. . ... : ... .. . ... : ... .. . ...
ROW 1F : ... .. . ... : === .. . ... : ... .. . ... : ... .. . ... : ... .. . ...
ROW 20 : F-3 1A E 400 : C-1 08 C V02 : C-5 02 . ... : 9-# 07 F ... : ... .. . ...
ROW 21 : ... .. F ... : ... .. D ... : D-2 00 . S0E : ... .. . ... : ... .. . ...
ROW 22 : ... .. . ... : ... .. F ... : ... .. . ... : ... .. . ... : ... .. . ...
ROW 23 : ... .. . ... : === .. . ... : ... .. . ... : ... .. . ... : ... .. . ...
ROW 24 : ... .. . ... : C-1 08 . V01 : D-2 01 . ... : ... .. . ... : ... .. . ...
ROW 25 : ... .. . ... : ... .. . ... : ... .. . S0E : ... .. . ... : ... .. . ...
ROW 26 : ... .. . ... : ... .. . ... : ... .. . ... : ... .. . ... : ... .. . ...
ROW 27 : ... .. . ... : === .. . ... : ... .. . ... : ... .. . ... : ... .. . ...
ROW 28 : ... .. D 426 : C-1 08 B V00 : C-4 03 . ... : ... .. . ... : ... .. . ...
ROW 29 : ... .. E ... : ... .. D ... : D-2 00 . S0E : ... .. . ... : ... .. . ...
ROW 2A : ... .. F ... : ... .. E ... : ... .. . ... : ... .. . ... : ... .. . ...
ROW 2B : ... .. . ... : === .. F ... : ... .. . ... : ... .. . ... : ... .. . ...
ROW 2C : ... .. . R03 : C-1 08 . V02 : D-2 01 . ... : ... .. . ... : ... .. . ...
ROW 2D : ... .. . ... : ... .. . ... : ... .. . S0E : ... .. . ... : ... .. . ...
ROW 2E : ... .. . ... : ... .. . ... : ... .. . ... : ... .. . ... : ... .. . ...
ROW 2F : ... .. . ... : === .. . ... : ... .. . ... : ... .. . ... : ... .. . ...
ROW 30 : D-3 1A . 400 : C-1 08 . V00 : D-2 01 . ... : 0-# 04 . ... : ... .. . ...
ROW 31 : ... .. . ... : ... .. . ... : ... .. . S0E : ... .. . ... : ... .. . ...
ROW 32 : ... .. . ... : ... .. . ... : ... .. . ... : ... .. . ... : ... .. . ...
ROW 33 : ... .. . ... : === .. . ... : ... .. . ... : ... .. . ... : ... .. . ...
ROW 34 : ... .. E 428 : C-1 08 C V01 : C-5 02 . ... : 9-# 11 . ... : ... .. . ...
ROW 35 : ... .. F ... : ... .. D ... : D-3 00 . ... : ... .. . ... : ... .. . ...
ROW 36 : ... .. . ... : ... .. F ... : G-4 10 . ... : ... .. . ... : ... .. . ...
ROW 37 : ... .. . ... : === .. . ... : --- .. . ... : ... .. . ... : ... .. . ...
ROW 38 : ... .. D ... : C-1 08 B V02 : C-4 03 . ... : ... .. . ... : ... .. . ...
ROW 39 : ... .. E ... : ... .. D ... : D-2 00 . S0E : ... .. . ... : ... .. . ...
ROW 3A : ... .. F ... : ... .. E ... : ... .. . ... : ... .. . ... : ... .. . ...
ROW 3B : ... .. . ... : === .. F ... : ... .. . ... : ... .. . ... : ... .. . ...
ROW 3C : ... .. . ... : C-1 08 . V00 : C-5 02 . ... : ... .. . ... : ... .. . ...
ROW 3D : ... .. . ... : ... .. . ... : D-2 00 . S0E : ... .. . ... : ... .. . ...
ROW 3E : === .. . ... : ... .. . ... : ... .. . ... : ... .. . ... : ... .. . ...
ROW 3F : ... .. . ... : === .. . ... : ... .. . ... : ... .. . ... : ... .. . ...

PATTERN 11
ROW 00 : D#3 1A E 400 : C#1 08 C V02 : C-5 02 . ... : 9-# 12 . ... : ... .. . ...
ROW 01 : ... .. F ... : ... .. D ... : B-1 00 . S0E : ... .. . ... : ... .. . ...
ROW 02 : ... .. . ... : ... .. F ... : ... .. . ... : ... .. . ... : ... .. . ...
ROW 03 : ... .. . ... : === .. . ... : ... .. . ... : ... .. . ... : ... .. . ...
ROW 04 : ... .. . ... : C#1 08 . V01 : B-1 01 . ... : ... .. . ... : ... .. . ...
ROW 05 : ... .. . ... : ... .. . ... : ... .. . S0E : ... .. . ... : ... .. . ...
ROW 06 : ... .. . ... : ... .. . ... : ... .. . ... : ... .. . ... : ... .. . ...
ROW 07 : ... .. . ... : === .. . ... : ... .. . ... : ... .. . ... : ... .. . ...
ROW 08 : ... .. D 426 : C#1 08 B V00 : C-4 03 . ... : 9-# 07 F ... : ... .. . ...
ROW 09 : ... .. E ... : ... .. D ... : B-1 00 . S0E : ... .. . ... : ... .. . ...
ROW 0A : ... .. F ... : ... .. E ... : ... .. . ... : ... .. . ... : ... .. . ...
ROW 0B : ... .. . ... : === .. F ... : ... .. . ... : ... .. . ... : ... .. . ...
ROW 0C : === .. . ... : C#1 08 . V02 : B-1 01 . ... : A-# 06 6 ... : ... .. . ...
ROW 0D : ... .. . ... : ... .. . ... : ... .. . S0E : ... .. . ... : ... .. . ...
ROW 0E : ... .. . ... : ... .. . ... : ... .. . ... : ... .. . ... : ... .. . ...
ROW 0F : ... .. . ... : === .. . ... : ... .. . ... : ... .. . ... : ... .. . ...
ROW 10 : A-3 1A . 400 : C#1 08 . V00 : B-1 01 . ... : 0-# 04 F ... : ... .. . ...
ROW 11 : ... .. . Q01 : ... .. . ... : ... .. . S0E : ... .. . ... : ... .. . ...
ROW 12 : ... .. . ... : ... .. . ... : ... .. . ... : ... .. . ... : ... .. . ...
ROW 13 : ... .. . ... : === .. . ... : ... .. . ... : ... .. . ... : ... .. . ...
ROW 14 : ... .. E ... : C#1 08 C V01 : C-5 02 . ... : A-# 06 6 ... : ... .. . ...
ROW 15 : ... .. F ... : ... .. D ... : B-1 00 . S0E : ... .. . ... : ... .. . ...
ROW 16 : ... .. . ... : ... .. F ... : ... .. . ... : ... .. . ... : ... .. . ...
ROW 17 : ... .. . ... : === .. . ... : ... .. . ... : ... .. . ... : ... .. . ...
ROW 18 : ... .. D 426 : C#1 08 B V02 : C-4 03 . ... : 9-# 07 F ... : ... .. . ...
ROW 19 : ... .. E ... : ... .. D ... : B-1 00 . S0E : ... .. . ... : ... .. . ...
ROW 1A : ... .. F ... : ... .. E ... : ... .. . ... : ... .. . ... : ... .. . ...
ROW 1B : ... .. . ... : === .. F ... : ... .. . ... : ... .. . ... : ... .. . ...
ROW 1C : === .. . ... : C#1 08 . V00 : B-1 01 . ... : A-# 06 6 ... : ... .. . ...
ROW 1D : ... .. . ... : ... .. . ... : ... .. . S0E : ... .. . ... : ... .. . ...
ROW 1E : ... .. . ... : ... .. . ... : ... .. . ... : ... .. . ... : ... .. . ...
ROW 1F : ... .. . ... : === .. . ... : ... .. . ... : ... .. . ... : ... .. . ...
ROW 20 : A-3 1A E 400 : E-1 08 C V01 : C-5 02 . ... : 0-# 04 F ... : ... .. . ...
ROW 21 : ... .. F ... : ... .. D ... : C-2 00 . S0E : ... .. . ... : ... .. . ...
ROW 22 : ... .. . ... : ... .. F ... : ... .. . ... : ... .. . ... : ... .. . ...
ROW 23 : ... .. . ... : ... .. . ... : ... .. . ... : ... .. . ... : ... .. . ...
ROW 24 : ... .. . ... : ... .. . V02 : C-2 01 . ... : A-# 06 6 ... : ... .. . ...
ROW 25 : ... .. . ... : ... .. . ... : ... .. . S0E : ... .. . ... : ... .. . ...
ROW 26 : ... .. . ... : === .. . ... : ... .. . ... : ... .. . ... : ... .. . ...
ROW 27 : ... .. . ... : ... .. . ... : ... .. . ... : ... .. . ... : ... .. . ...
ROW 28 : ... .. D 426 : E-1 08 C V01 : C-4 03 . ... : 9-# 07 F ... : ... .. . ...
ROW 29 : ... .. E ... : ... .. D ... : C-2 00 . S0E : ... .. . ... : ... .. . ...
ROW 2A : ... .. F ... : ... .. F ... : ... .. . ... : ... .. . ... : ... .. . ...
ROW 2B : ... .. . ... : ... .. . ... : ... .. . ... : ... .. . ... : ... .. . ...
ROW 2C : === .. . ... : ... .. . V02 : C-2 01 . ... : A-# 06 6 ... : ... .. . ...
ROW 2D : ... .. . ... : ... .. . ... : ... .. . S0E : ... .. . ... : ... .. . ...
ROW 2E : ... .. . ... : === .. . ... : ... .. . ... : ... .. . ... : ... .. . ...
ROW 2F : ... .. . ... : ... .. . ... : ... .. . ... : ... .. . ... : ... .. . ...
ROW 30 : D#3 1A . 400 : F#1 08 C ... : C-2 01 . ... : 0-# 04 F ... : ... .. . ...
ROW 31 : ... .. . ... : ... .. D ... : ... .. . S0E : ... .. . ... : ... .. . ...
ROW 32 : ... .. . ... : ... .. F ... : ... .. . ... : ... .. . ... : ... .. . ...
ROW 33 : ... .. . ... : ... .. . ... : ... .. . ... : ... .. . ... : ... .. . ...
ROW 34 : ... .. E ... : ... .. . ... : C-5 02 . ... : A-# 06 6 ... : ... .. . ...
ROW 35 : ... .. F ... : ... .. . ... : C-2 00 . S0E : ... .. . ... : ... .. . ...
ROW 36 : ... .. . ... : ... .. . ... : ... .. . ... : ... .. . ... : ... .. . ...
ROW 37 : A-3 1F . ... : ... .. . 201 : ... .. . ... : ... .. . ... : ... .. . ...
ROW 38 : F#3 1A D ... : ... .. B ... : C-4 03 . ... : 9-# 07 F ... : ... .. . ...
ROW 39 : ... .. E ... : ... .. D ... : C-2 00 . S0E : ... .. . ... : ... .. . ...
ROW 3A : ... .. F ... : ... .. E 202 : ... .. . ... : ... .. . ... : ... .. . ...
ROW 3B : ... .. . ... : ... .. F ... : ... .. . ... : ... .. . ... : ... .. . ...
ROW 3C : D#3 1F . ... : ... .. . ... : C-2 01 . ... : A-# 06 6 ... : ... .. . ...
ROW 3D : ... .. . ... : ... .. . ... : ... .. . S0E : ... .. . ... : ... .. . ...
ROW 3E : ... .. . ... : ... .. . ... : ... .. . ... : ... .. . ... : ... .. . ...
ROW 3F : ... .. . ... : ... .. . 200 : ... .. . ... : ... .. . ... : ... .. . ...

PATTERN 12
ROW 00 : G#3 1A E ... : F#1 08 B V02 : C-5 02 . ... : 0-# 04 F ... : ... .. . ...
ROW 01 : ... .. F ... : ... .. D ... : C#2 00 . S0E : ... .. . ... : ... .. . ...
ROW 02 : ... .. . ... : ... .. E ... : ... .. . ... : ... .. . ... : ... .. . ...
ROW 03 : ... .. . ... : === .. F ... : ... .. . ... : ... .. . ... : ... .. . ...
ROW 04 : ... .. . 426 : F#1 08 . ... : C#2 01 . ... : A-# 06 6 ... : ... .. . ...
ROW 05 : ... .. . ... : ... .. . ... : ... .. . S0E : ... .. . ... : ... .. . ...
ROW 06 : ... .. . ... : === .. . ... : ... .. . ... : ... .. . ... : ... .. . ...
ROW 07 : D#3 1F . ... : ... .. . ... : ... .. . ... : ... .. . ... : ... .. . ...
ROW 08 : F#3 1A D 400 : F#1 08 C ... : C-4 03 . ... : 9-# 07 F ... : ... .. . ...
ROW 09 : ... .. E ... : ... .. D ... : C#2 00 . S0E : ... .. . ... : ... .. . ...
ROW 0A : ... .. F Q22 : ... .. F ... : ... .. . ... : ... .. . ... : ... .. . ...
ROW 0B : ... .. . ... : === .. . ... : ... .. . ... : ... .. . ... : ... .. . ...
ROW 0C : ... .. . ... : F#1 08 . ... : C#2 01 . ... : A-# 06 6 ... : ... .. . ...
ROW 0D : ... .. . R22 : ... .. . ... : ... .. . S0E : ... .. . ... : ... .. . ...
ROW 0E : ... .. . ... : === .. . ... : ... .. . ... : ... .. . ... : ... .. . ...
ROW 0F : G#3 1F . ... : ... .. . ... : ... .. . ... : ... .. . ... : ... .. . ...
ROW 10 : F-3 1A . ... : F#1 08 C ... : C#2 01 . ... : 0-# 04 F ... : ... .. . ...
ROW 11 : ... .. . ... : ... .. D ... : ... .. . S0E : ... .. . ... : ... .. . ...
ROW 12 : ... .. . ... : ... .. F ... : ... .. . ... : ... .. . ... : ... .. . ...
ROW 13 : ... .. . ... : === .. . ... : ... .. . ... : ... .. . ... : ... .. . ...
ROW 14 : ... .. E 426 : F#1 08 . ... : C-5 02 . ... : A-# 06 6 ... : ... .. . ...
ROW 15 : ... .. F ... : ... .. . ... : C#2 00 . S0E : ... .. . ... : ... .. . ...
ROW 16 : ... .. . ... : === .. . ... : ... .. . ... : ... .. . ... : ... .. . ...
ROW 17 : F#3 1F . ... : ... .. . ... : ... .. . ... : ... .. . ... : ... .. . ...
ROW 18 : F#3 1A D 400 : F#1 08 C ... : C-4 03 . ... : 9-# 07 F ... : ... .. . ...
ROW 19 : ... .. E ... : ... .. D ... : C#2 00 . S0E : ... .. . ... : ... .. . ...
ROW 1A : ... .. F ... : ... .. F ... : ... .. . ... : ... .. . ... : ... .. . ...
ROW 1B : ... .. . ... : === .. . ... : ... .. . ... : ... .. . ... : ... .. . ...
ROW 1C : ... .. . ... : F#1 08 . ... : C#2 01 . ... : A-# 06 6 ... : ... .. . ...
ROW 1D : F-3 1F . ... : ... .. . ... : ... .. . S0E : ... .. . ... : ... .. . ...
ROW 1E : ... .. . ... : === .. . ... : ... .. . ... : ... .. . ... : ... .. . ...
ROW 1F : ... .. . ... : ... .. . ... : ... .. . ... : ... .. . ... : ... .. . ...
ROW 20 : G#3 1A E 400 : F#1 08 C ... : C-5 02 . ... : 0-# 04 F ... : ... .. . ...
ROW 21 : ... .. F ... : ... .. D ... : E-2 00 . S28 : ... .. . ... : ... .. . ...
ROW 22 : ... .. . ... : ... .. F ... : ... .. . ... : ... .. . ... : ... .. . ...
ROW 23 : ... .. . ... : === .. . ... : ... .. . ... : ... .. . ... : ... .. . ...
ROW 24 : ... .. . ... : F#1 08 . ... : ... .. . ... : A-# 06 6 ... : ... .. . ...
ROW 25 : ... .. . ... : ... .. . ... : ... .. . ... : ... .. . ... : ... .. . ...
ROW 26 : ... .. . ... : === .. . ... : ... .. . ... : ... .. . ... : ... .. . ...
ROW 27 : ... .. . ... : ... .. . ... : ... .. . ... : ... .. . ... : ... .. . ...
ROW 28 : ... .. D 426 : F#1 08 C ... : C-5 02 . ... : 9-# 07 F ... : ... .. . ...
ROW 29 : ... .. E ... : ... .. D ... : E-2 00 . S28 : ... .. . ... : ... .. . ...
ROW 2A : ... .. F ... : ... .. F ... : ... .. . ... : ... .. . ... : ... .. . ...
ROW 2B : ... .. . ... : === .. . ... : ... .. . ... : ... .. . ... : ... .. . ...
ROW 2C : ... .. . Q02 : F#1 08 . ... : ... .. . ... : A-# 06 6 ... : ... .. . ...
ROW 2D : ... .. . 400 : ... .. . ... : ... .. . ... : ... .. . ... : ... .. . ...
ROW 2E : ... .. . ... : === .. . ... : ... .. . ... : ... .. . ... : ... .. . ...
ROW 2F : ... .. . ... : ... .. . ... : ... .. . ... : ... .. . ... : ... .. . ...
ROW 30 : A#3 1A . 400 : ... .. . ... : C-5 02 . ... : 0-# 04 F ... : ... .. . ...
ROW 31 : ... .. . ... : ... .. . ... : F#2 00 . S28 : ... .. . ... : ... .. . ...
ROW 32 : ... .. . ... : ... .. . ... : ... .. . ... : ... .. . ... : ... .. . ...
ROW 33 : ... .. . ... : ... .. . ... : ... .. . ... : ... .. . ... : ... .. . ...
ROW 34 : ... .. E 428 : ... .. . ... : ... .. . ... : A-# 06 6 ... : ... .. . ...
ROW 35 : ... .. F ... : ... .. . ... : ... .. . ... : ... .. . ... : ... .. . ...
ROW 36 : ... .. . ... : ... .. . ... : ... .. . ... : D-# 05 C ... : ... .. . ...
ROW 37 : ... .. . ... : ... .. . ... : ... .. . ... : ... .. . ... : ... .. . ...
ROW 38 : ... .. D ... : ... .. . ... : C-5 10 . ... : 9-# 07 F ... : ... .. . ...
ROW 39 : ... .. E ... : ... .. . ... : F-2 00 . ... : ... .. . ... : ... .. . ...
ROW 3A : ... .. F ... : ... .. . ... : C-5 10 . ... : ... .. . ... : ... .. . ...
ROW 3B : ... .. . ... : ... .. . ... : F-2 00 . ... : ... .. . ... : ... .. . ...
ROW 3C : ... .. . ... : ... .. . ... : F-4 10 . ... : A-# 06 6 ... : ... .. . ...
ROW 3D : ... .. . ... : ... .. . ... : F-2 00 . G02 : ... .. . ... : ... .. . ...
ROW 3E : === .. . ... : ... .. . ... : E-2 00 . S08 : ... .. . ... : ... .. . ...
ROW 3F : ... .. . ... : ... .. . ... : ... .. . ... : ... .. . ... : ... .. . ...

PATTERN 13
ROW 00 : G#3 1A E 400 : F#1 08 C ... : C-5 02 . ... : 0-# 04 F ... : ... .. . ...
ROW 01 : ... .. F ... : ... .. . ... : F#2 00 . S0E : ... .. . ... : ... .. . ...
ROW 02 : ... .. . ... : ... .. D ... : ... .. . ... : ... .. . ... : ... .. . ...
ROW 03 : ... .. . ... : ... .. . ... : ... .. . ... : ... .. . ... : ... .. . ...
ROW 04 : ... .. . ... : ... .. E ... : F#2 00 . ... : A-# 06 6 ... : ... .. . ...
ROW 05 : ... .. . ... : ... .. . ... : ... .. . S0A : ... .. . ... : ... .. . ...
ROW 06 : ... .. . ... : ... .. F ... : ... .. . ... : ... .. . ... : ... .. . ...
ROW 07 : ... .. . ... : ... .. . ... : ... .. . ... : ... .. . ... : ... .. . ...
ROW 08 : ... .. D 426 : ... .. . ... : C-5 02 . ... : 9-# 07 F ... : ... .. . ...
ROW 09 : ... .. E ... : ... .. . ... : F#2 00 . S0E : ... .. . ... : ... .. . ...
ROW 0A : ... .. F ... : ... .. . ... : ... .. . ... : ... .. . ... : ... .. . ...
ROW 0B : ... .. . ... : ... .. . ... : ... .. . ... : ... .. . ... : ... .. . ...
ROW 0C : === .. . ... : ... .. . ... : F#2 00 . ... : A-# 06 6 ... : ... .. . ...
ROW 0D : ... .. . ... : ... .. . ... : ... .. . S0A : ... .. . ... : ... .. . ...
ROW 0E : ... .. . ... : ... .. . ... : ... .. . ... : ... .. . ... : ... .. . ...
ROW 0F : ... .. . ... : ... .. . ... : ... .. . ... : ... .. . ... : ... .. . ...
ROW 10 : D-4 1A . 400 : ... .. . ... : C-5 02 . ... : 0-# 04 F ... : ... .. . ...
ROW 11 : ... .. . Q01 : ... .. . ... : F#2 00 . S0E : ... .. . ... : ... .. . ...
ROW 12 : ... .. . ... : ... .. . ... : ... .. . ... : ... .. . ... : ... .. . ...
ROW 13 : ... .. . ... : ... .. . ... : ... .. . ... : ... .. . ... : ... .. . ...
ROW 14 : ... .. E ... : ... .. . ... : F#2 00 . ... : A-# 06 6 ... : ... .. . ...
ROW 15 : ... .. F ... : ... .. . ... : ... .. . S0A : ... .. . ... : ... .. . ...
ROW 16 : ... .. . ... : ... .. . ... : ... .. . ... : ... .. . ... : ... .. . ...
ROW 17 : ... .. . ... : ... .. . ... : ... .. . ... : ... .. . ... : ... .. . ...
ROW 18 : ... .. D 426 : === .. . ... : C-5 02 . ... : 0-# 04 F ... : ... .. . ...
ROW 19 : ... .. E ... : ... .. . ... : F#2 00 . S0E : ... .. . ... : ... .. . ...
ROW 1A : ... .. F ... : ... .. . ... : ... .. . ... : D-# 05 . ... : ... .. . ...
ROW 1B : ... .. . ... : ... .. . ... : ... .. . ... : ... .. . ... : ... .. . ...
ROW 1C : === .. . ... : ... .. . ... : F#2 00 . ... : 9-# 07 . ... : ... .. . ...
ROW 1D : ... .. . ... : ... .. . ... : ... .. . S0A : ... .. . ... : ... .. . ...
ROW 1E : ... .. . ... : ... .. . ... : ... .. . ... : ... .. . ... : ... .. . ...
ROW 1F : ... .. . ... : ... .. . ... : ... .. . ... : ... .. . ... : ... .. . ...
ROW 20 : D-4 1A E 400 : F#1 08 C ... : C-5 02 . ... : D-# 05 . ... : ... .. . ...
ROW 21 : ... .. F ... : ... .. . ... : F#2 00 . S0E : ... .. . ... : ... .. . ...
ROW 22 : ... .. . ... : ... .. D ... : ... .. . ... : D-# 05 . ... : ... .. . ...
ROW 23 : ... .. . ... : ... .. . ... : ... .. . ... : ... .. . ... : ... .. . ...
ROW 24 : ... .. . ... : ... .. E ... : F#2 00 . ... : 0-# 04 . ... : ... .. . ...
ROW 25 : ... .. . ... : ... .. . ... : ... .. . S0A : ... .. . ... : ... .. . ...
ROW 26 : ... .. . ... : ... .. F ... : ... .. . ... : ... .. . ... : ... .. . ...
ROW 27 : ... .. . ... : ... .. . ... : ... .. . ... : ... .. . ... : ... .. . ...
ROW 28 : ... .. D 426 : ... .. . ... : C-5 02 . ... : D-# 05 . ... : ... .. . ...
ROW 29 : ... .. E ... : ... .. . ... : F#2 00 . S0E : ... .. . ... : ... .. . ...
ROW 2A : ... .. F ... : ... .. . ... : ... .. . ... : ... .. . ... : ... .. . ...
ROW 2B : ... .. . ... : ... .. . ... : ... .. . ... : ... .. . ... : ... .. . ...
ROW 2C : === .. . ... : ... .. . ... : F#2 00 . ... : 9-# 07 . ... : ... .. . ...
ROW 2D : ... .. . ... : ... .. . ... : ... .. . S0A : ... .. . ... : ... .. . ...
ROW 2E : ... .. . ... : ... .. . ... : ... .. . ... : ... .. . ... : ... .. . ...
ROW 2F : ... .. . ... : ... .. . ... : ... .. . ... : ... .. . ... : ... .. . ...
ROW 30 : G#3 1A . 400 : ... .. . ... : ... .. . ... : ... .. . ... : ... .. . ...
ROW 31 : ... .. . ... : ... .. . ... : ... .. . ... : ... .. . ... : ... .. . ...
ROW 32 : ... .. . ... : ... .. . ... : ... .. . ... : ... .. . ... : ... .. . ...
ROW 33 : ... .. . ... : ... .. . ... : ... .. . ... : ... .. . ... : ... .. . ...
ROW 34 : ... .. E ... : ... .. . ... : ... .. . ... : D-# 06 . ... : ... .. . ...
ROW 35 : ... .. F ... : ... .. . ... : ... .. . ... : ... .. . ... : ... .. . ...
ROW 36 : ... .. . ... : ... .. . ... : ... .. . ... : ... .. . ... : ... .. . ...
ROW 37 : D-4 1F . ... : ... .. . ... : ... .. . ... : ... .. . ... : ... .. . ...
ROW 38 : A#3 1A D ... : === .. . ... : ... .. . ... : D-# 05 . ... : ... .. . ...
ROW 39 : ... .. E ... : ... .. . ... : ... .. . ... : ... .. . ... : ... .. . ...
ROW 3A : ... .. F ... : ... .. . ... : ... .. . ... : ... .. . ... : ... .. . ...
ROW 3B : ... .. . ... : ... .. . ... : ... .. . ... : ... .. . ... : ... .. . ...
ROW 3C : G#3 1F . ... : ... .. . ... : ... .. . ... : 0-# 04 . ... : ... .. . ...
ROW 3D : ... .. . ... : ... .. . ... : ... .. . ... : A-# 11 . ... : ... .. . ...
ROW 3E : ... .. . ... : ... .. . ... : ... .. . ... : ... .. . ... : ... .. . ...
ROW 3F : ... .. . ... : ... .. . ... : ... .. . ... : ... .. . ... : ... .. . ...

PATTERN 14
ROW 00 : B-3 1A E ... : F#1 08 C V02 : C-5 02 . ... : A-# 12 . ... : ... .. . ...
ROW 01 : ... .. F ... : ... .. D ... : ... .. . ... : ... .. . ... : ... .. . ...
ROW 02 : ... .. . ... : ... .. F ... : ... .. . ... : ... .. . ... : ... .. . ...
ROW 03 : ... .. . ... : === .. . ... : ... .. . ... : ... .. . ... : ... .. . ...
ROW 04 : ... .. . 426 : F#1 08 . ... : --- .. . ... : ... .. . ... : ... .. . ...
ROW 05 : ... .. . ... : ... .. . ... : ... .. . ... : ... .. . ... : ... .. . ...
ROW 06 : ... .. . ... : === .. . ... : ... .. . ... : ... .. . ... : ... .. . ...
ROW 07 : A#3 1F . 400 : ... .. . ... : ... .. . ... : 7-# 00 1 431 : ... .. . ...
ROW 08 : A#3 1A D ... : F#1 08 C ... : ... .. . ... : 8-# 00 . ... : ... .. . ...
ROW 09 : ... .. E ... : ... .. D ... : ... .. . ... : ... .. . ... : ... .. . ...
ROW 0A : ... .. F ... : ... .. F ... : ... .. . ... : 9-# 00 . ... : ... .. . ...
ROW 0B : ... .. . ... : === .. . ... : ... .. . ... : ... .. . ... : ... .. . ...
ROW 0C : ... .. . ... : F#1 08 . ... : ... .. . ... : A-# 00 . ... : ... .. . ...
ROW 0D : B-3 1F . ... : ... .. . ... : ... .. . ... : ... .. . ... : ... .. . ...
ROW 0E : ... .. . ... : === .. . ... : ... .. . ... : B-# 00 . ... : ... .. . ...
ROW 0F : ... .. . ... : ... .. . ... : ... .. . ... : ... .. . ... : ... .. . ...
ROW 10 : G#3 1A . ... : F#1 08 C ... : ... .. . ... : C-# 00 . ... : ... .. . ...
ROW 11 : ... .. . ... : ... .. D ... : ... .. . ... : ... .. . ... : ... .. . ...
ROW 12 : ... .. . ... : ... .. F ... : ... .. . ... : B-# 00 . ... : ... .. . ...
ROW 13 : ... .. . ... : === .. . ... : ... .. . ... : ... .. . ... : ... .. . ...
ROW 14 : ... .. E 426 : F#1 08 . ... : ... .. . ... : A-# 00 . ... : ... .. . ...
ROW 15 : ... .. F ... : ... .. . ... : ... .. . ... : ... .. . ... : ... .. . ...
ROW 16 : ... .. . ... : === .. . ... : ... .. . ... : 9-# 00 . ... : ... .. . ...
ROW 17 : A#3 1F . 400 : ... .. . ... : ... .. . ... : ... .. . ... : ... .. . ...
ROW 18 : F#3 1A D ... : F#1 08 C ... : ... .. . ... : 8-# 00 . ... : ... .. . ...
ROW 19 : ... .. E ... : ... .. D ... : ... .. . ... : ... .. . ... : ... .. . ...
ROW 1A : ... .. F ... : ... .. F ... : ... .. . ... : 9-# 00 . ... : ... .. . ...
ROW 1B : ... .. . ... : === .. . ... : ... .. . ... : ... .. . ... : ... .. . ...
ROW 1C : ... .. . ... : F#1 08 . ... : ... .. . ... : A-# 00 . ... : ... .. . ...
ROW 1D : G#3 1F . ... : ... .. . ... : ... .. . ... : ... .. . ... : ... .. . ...
ROW 1E : ... .. . ... : === .. . ... : ... .. . ... : B-# 00 . ... : ... .. . ...
ROW 1F : ... .. . ... : ... .. . ... : ... .. . ... : ... .. . ... : ... .. . ...
ROW 20 : G#3 1A E ... : F#1 08 C ... : C-5 02 . ... : C-# 00 . ... : ... .. . ...
ROW 21 : ... .. F ... : ... .. D ... : ... .. . ... : ... .. . ... : ... .. . ...
ROW 22 : ... .. . ... : ... .. F ... : ... .. . ... : B-# 00 . ... : ... .. . ...
ROW 23 : ... .. . ... : === .. . ... : ... .. . ... : ... .. . ... : ... .. . ...
ROW 24 : ... .. . 426 : F#1 08 . ... : --- .. . ... : A-# 00 . ... : ... .. . ...
ROW 25 : ... .. . ... : ... .. . ... : ... .. . ... : ... .. . ... : ... .. . ...
ROW 26 : ... .. . ... : === .. . ... : ... .. . ... : 9-# 00 . ... : ... .. . ...
ROW 27 : F#3 1F . 400 : ... .. . ... : ... .. . ... : ... .. . ... : ... .. . ...
ROW 28 : D#3 1A D ... : F#1 08 C ... : ... .. . ... : 8-# 00 . ... : ... .. . ...
ROW 29 : ... .. E ... : ... .. D ... : ... .. . ... : ... .. . ... : ... .. . ...
ROW 2A : ... .. F ... : ... .. F ... : ... .. . ... : 9-# 00 . ... : ... .. . ...
ROW 2B : ... .. . ... : === .. . ... : ... .. . ... : ... .. . ... : ... .. . ...
ROW 2C : ... .. . ... : F#1 08 . ... : ... .. . ... : A-# 00 . ... : ... .. . ...
ROW 2D : G#3 1F . ... : ... .. . ... : ... .. . ... : ... .. . ... : ... .. . ...
ROW 2E : ... .. . ... : === .. . ... : ... .. . ... : B-# 00 . ... : ... .. . ...
ROW 2F : ... .. . ... : ... .. . ... : ... .. . ... : ... .. . ... : ... .. . ...
ROW 30 : D#3 1A . ... : ... .. . ... : ... .. . ... : C-# 00 . ... : ... .. . ...
ROW 31 : ... .. . ... : ... .. . ... : ... .. . ... : ... .. . ... : ... .. . ...
ROW 32 : ... .. . ... : ... .. . ... : ... .. . ... : B-# 00 . ... : ... .. . ...
ROW 33 : ... .. . ... : ... .. . ... : ... .. . ... : ... .. . ... : ... .. . ...
ROW 34 : ... .. E 426 : ... .. . ... : ... .. . ... : A-# 00 . ... : ... .. . ...
ROW 35 : ... .. F ... : ... .. . ... : ... .. . ... : ... .. . ... : ... .. . ...
ROW 36 : ... .. . ... : ... .. . ... : ... .. . ... : 9-# 00 . ... : ... .. . ...
ROW 37 : D#3 1F . 400 : ... .. . ... : ... .. . ... : ... .. . ... : ... .. . ...
ROW 38 : F#3 1A D ... : ... .. . ... : ... .. . ... : 8-# 00 . ... : ... .. . ...
ROW 39 : ... .. E ... : ... .. . ... : ... .. . ... : ... .. . ... : ... .. . ...
ROW 3A : ... .. F ... : ... .. . ... : ... .. . ... : 9-# 00 . ... : ... .. . ...
ROW 3B : ... .. . ... : ... .. . ... : ... .. . ... : ... .. . ... : ... .. . ...
ROW 3C : ... .. . ... : ... .. . ... : ... .. . ... : A-# 00 . ... : ... .. . ...
ROW 3D : D#3 1F . ... : ... .. . ... : ... .. . ... : ... .. . ... : ... .. . ...
ROW 3E : ... .. . ... : ... .. . ... : ... .. . ... : B-# 00 . ... : ... .. . ...
ROW 3F : ... .. . ... : ... .. . ... : ... .. . ... : ... .. . ... : ... .. . ...

PATTERN 15
ROW 00 : F-3 1A E ... : F#1 08 C ... : C-5 02 . ... : C-# 00 1 431 : ... .. . ...
ROW 01 : ... .. F ... : ... .. D ... : ... .. . ... : ... .. . ... : ... .. . ...
ROW 02 : ... .. . ... : ... .. F ... : ... .. . ... : B-# 00 . ... : ... .. . ...
ROW 03 : ... .. . ... : === .. . ... : ... .. . ... : ... .. . ... : ... .. . ...
ROW 04 : ... .. . 426 : F#1 08 . ... : --- .. . ... : A-# 00 . ... : ... .. . ...
ROW 05 : ... .. . ... : ... .. . ... : ... .. . ... : ... .. . ... : ... .. . ...
ROW 06 : ... .. . ... : === .. . ... : ... .. . ... : 9-# 00 . ... : ... .. . ...
ROW 07 : ... .. . ... : ... .. . ... : ... .. . ... : ... .. . ... : ... .. . ...
ROW 08 : ... .. D 436 : F#1 08 B ... : ... .. . ... : 8-# 00 . ... : ... .. . ...
ROW 09 : ... .. E ... : ... .. D ... : ... .. . ... : ... .. . ... : ... .. . ...
ROW 0A : ... .. F ... : ... .. E ... : ... .. . ... : 9-# 00 . ... : ... .. . ...
ROW 0B : ... .. . ... : === .. F ... : ... .. . ... : ... .. . ... : ... .. . ...
ROW 0C : ... .. . 446 : F#1 08 . ... : ... .. . ... : A-# 00 . ... : ... .. . ...
ROW 0D : ... .. . A01 : ... .. . ... : ... .. . ... : ... .. . ... : ... .. . ...
ROW 0E : ... .. . ... : === .. . ... : ... .. . ... : B-# 00 . ... : ... .. . ...
ROW 0F : ... .. . ... : ... .. . ... : ... .. . ... : ... .. . ... : ... .. . ...
ROW 10 : ... .. . 467 : F#1 08 C ... : ... .. . ... : C-# 00 . ... : ... .. . ...
ROW 11 : ... .. . ... : ... .. D ... : ... .. . ... : ... .. . ... : ... .. . ...
ROW 12 : ... .. . 477 : ... .. F ... : ... .. . ... : B-# 00 . ... : ... .. . ...
ROW 13 : ... .. . ... : === .. . ... : ... .. . ... : ... .. . ... : ... .. . ...
ROW 14 : ... .. . 488 : F#1 08 . ... : ... .. . ... : A-# 00 . ... : ... .. . ...
ROW 15 : ... .. . ... : ... .. . ... : ... .. . ... : ... .. . ... : ... .. . ...
ROW 16 : ... .. . 498 : === .. . ... : ... .. . ... : 9-# 00 . ... : ... .. . ...
ROW 17 : ... .. . ... : ... .. . ... : ... .. . ... : ... .. . ... : ... .. . ...
ROW 18 : ... .. . 4A9 : F#1 08 B ... : ... .. . ... : 8-# 00 . ... : ... .. . ...
ROW 19 : ... .. . ... : ... .. D ... : ... .. . ... : ... .. . ... : ... .. . ...
ROW 1A : ... .. . 4B9 : ... .. E ... : ... .. . ... : 9-# 00 . ... : ... .. . ...
ROW 1B : ... .. . ... : === .. F ... : ... .. . ... : ... .. . ... : ... .. . ...
ROW 1C : ... .. . 4CA : F#1 08 . ... : ... .. . ... : A-# 00 . ... : ... .. . ...
ROW 1D : ... .. . ... : ... .. . ... : ... .. . ... : ... .. . ... : ... .. . ...
ROW 1E : ... .. . 4DA : === .. . ... : ... .. . ... : B-# 00 . ... : ... .. . ...
ROW 1F : === .. . 400 : ... .. . ... : ... .. . ... : ... .. . ... : ... .. . ...
ROW 20 : F-1 09 C V01 : F#1 08 C ... : C-4 03 . ... : C-# 00 . ... : ... .. . ...
ROW 21 : ... .. D A00 : ... .. D ... : ... .. . ... : ... .. . ... : ... .. . ...
ROW 22 : ... .. F ... : ... .. F ... : ... .. . ... : B-# 00 . ... : ... .. . ...
ROW 23 : ... .. . ... : === .. . ... : ... .. . ... : ... .. . ... : ... .. . ...
ROW 24 : ... .. . V02 : F#1 08 . ... : --- .. . ... : A-# 00 . ... : ... .. . ...
ROW 25 : ... .. . ... : ... .. . ... : ... .. . ... : ... .. . ... : ... .. . ...
ROW 26 : === .. . ... : === .. . ... : ... .. . ... : 9-# 00 . ... : ... .. . ...
ROW 27 : ... .. . ... : ... .. . ... : ... .. . ... : ... .. . ... : ... .. . ...
ROW 28 : F-1 09 C V01 : F#1 08 B ... : ... .. . ... : 8-# 00 . ... : ... .. . ...
ROW 29 : ... .. D ... : ... .. D ... : ... .. . ... : ... .. . ... : ... .. . ...
ROW 2A : ... .. F ... : ... .. E ... : ... .. . ... : 9-# 00 . ... : ... .. . ...
ROW 2B : ... .. . ... : === .. F ... : ... .. . ... : ... .. . ... : ... .. . ...
ROW 2C : ... .. . V02 : F#1 08 . ... : ... .. . ... : A-# 00 . ... : ... .. . ...
ROW 2D : ... .. . ... : ... .. . ... : ... .. . ... : ... .. . ... : ... .. . ...
ROW 2E : === .. . ... : === .. . ... : ... .. . ... : B-# 00 . ... : ... .. . ...
ROW 2F : ... .. . ... : ... .. . ... : ... .. . ... : ... .. . ... : ... .. . ...
ROW 30 : G-1 09 C ... : F#1 08 C ... : C-5 02 . ... : C-# 00 . ... : ... .. . ...
ROW 31 : ... .. D ... : ... .. D ... : ... .. . ... : ... .. . ... : ... .. . ...
ROW 32 : ... .. F ... : ... .. F ... : ... .. . ... : B-# 00 . ... : ... .. . ...
ROW 33 : ... .. . ... : === .. . ... : ... .. . ... : ... .. . ... : ... .. . ...
ROW 34 : ... .. . ... : F#1 08 . ... : --- .. . ... : A-# 00 . ... : ... .. . ...
ROW 35 : ... .. . ... : ... .. . ... : G-1 00 . ... : ... .. . ... : ... .. . ...
ROW 36 : ... .. . ... : === .. . ... : G#1 00 . ... : 9-# 00 . ... : ... .. . ...
ROW 37 : ... .. . 201 : ... .. . ... : A-1 00 . ... : ... .. . ... : ... .. . ...
ROW 38 : ... .. B ... : F#1 08 B ... : A#1 00 . ... : 8-# 00 . ... : ... .. . ...
ROW 39 : ... .. D ... : ... .. D ... : B-1 00 . ... : ... .. . ... : ... .. . ...
ROW 3A : ... .. E 202 : ... .. E ... : C-2 00 . ... : 9-# 00 . ... : ... .. . ...
ROW 3B : ... .. F ... : === .. F ... : C#2 00 . ... : ... .. . ... : ... .. . ...
ROW 3C : ... .. . ... : F#1 08 . ... : D-2 00 . ... : A-# 00 . ... : ... .. . ...
ROW 3D : ... .. . ... : ... .. . ... : D#2 00 . ... : ... .. . ... : ... .. . ...
ROW 3E : ... .. . ... : === .. . ... : E-2 00 . ... : B-# 00 . ... : ... .. . ...
ROW 3F : ... .. . 200 : ... .. . ... : F-2 00 . ... : ... .. . ... : ... .. . ...

PATTERN 16
ROW 00 : D#3 1A B 400 : F#1 08 C ... : C-5 02 . ... : 0-# 04 F ... : ... .. . ...
ROW 01 : ... .. D ... : ... .. D ... : F#2 00 . S0E : ... .. . ... : ... .. . ...
ROW 02 : ... .. E ... : ... .. F ... : ... .. . ... : ... .. . ... : ... .. . ...
ROW 03 : ... .. F ... : === .. . ... : ... .. . ... : ... .. . ... : ... .. . ...
ROW 04 : ... .. . 426 : F#1 08 . ... : F#2 00 . ... : D-# 05 . ... : ... .. . ...
ROW 05 : ... .. . ... : ... .. . ... : ... .. . S0A : ... .. . ... : ... .. . ...
ROW 06 : ... .. . ... : === .. . ... : ... .. . ... : D-# 05 5 ... : ... .. . ...
ROW 07 : ... .. . ... : ... .. . ... : ... .. . ... : ... .. . ... : ... .. . ...
ROW 08 : ... .. D 436 : F#1 08 B ... : C-4 03 . ... : 9-# 07 F ... : ... .. . ...
ROW 09 : ... .. E ... : ... .. D ... : F#2 00 . S0E : ... .. . ... : ... .. . ...
ROW 0A : ... .. F ... : ... .. E ... : ... .. . ... : ... .. . ... : ... .. . ...
ROW 0B : ... .. . ... : === .. F ... : ... .. . ... : ... .. . ... : ... .. . ...
ROW 0C : ... .. . 446 : F#1 08 . ... : F#2 00 . ... : D-# 05 . ... : ... .. . ...
ROW 0D : ... .. . A01 : ... .. . ... : ... .. . S0A : ... .. . ... : ... .. . ...
ROW 0E : ... .. . ... : === .. . ... : ... .. . ... : D-# 05 A ... : ... .. . ...
ROW 0F : ... .. . ... : ... .. . ... : ... .. . ... : ... .. . ... : ... .. . ...
ROW 10 : ... .. . 467 : F#1 08 C ... : C-5 02 . ... : D-# 05 F ... : ... .. . ...
ROW 11 : ... .. . ... : ... .. D ... : F#2 00 . S0E : ... .. . ... : ... .. . ...
ROW 12 : ... .. . 477 : ... .. F ... : ... .. . ... : D-# 05 A ... : ... .. . ...
ROW 13 : ... .. . ... : === .. . ... : ... .. . ... : ... .. . ... : ... .. . ...
ROW 14 : ... .. . 488 : F#1 08 . ... : F#2 00 . ... : 0-# 04 F ... : ... .. . ...
ROW 15 : ... .. . ... : ... .. . ... : ... .. . S0A : ... .. . ... : ... .. . ...
ROW 16 : ... .. . 498 : === .. . ... : ... .. . ... : D-# 05 5 ... : ... .. . ...
ROW 17 : ... .. . ... : ... .. . ... : ... .. . ... : ... .. . ... : ... .. . ...
ROW 18 : E-2 0E D 400 : F#1 08 C ... : C-4 03 . ... : 9-# 07 F ... : ... .. . ...
ROW 19 : ... .. E A00 : ... .. D ... : F#2 00 . S0E : ... .. . ... : ... .. . ...
ROW 1A : ... .. F ... : ... .. F ... : ... .. . ... : ... .. . ... : ... .. . ...
ROW 1B : ... .. . ... : === .. . ... : ... .. . ... : ... .. . ... : ... .. . ...
ROW 1C : ... .. . ... : F-1 08 B ... : F#2 00 . ... : D-# 05 . ... : ... .. . ...
ROW 1D : ... .. . ... : ... .. D ... : ... .. . S0A : ... .. . ... : ... .. . ...
ROW 1E : ... .. . ... : ... .. E ... : ... .. . ... : D-# 05 A ... : ... .. . ...
ROW 1F : ... .. . ... : ... .. F ... : ... .. . ... : ... .. . ... : ... .. . ...
ROW 20 : G-2 0D E ... : ... .. . ... : C-5 02 . ... : 0-# 04 F ... : ... .. . ...
ROW 21 : ... .. F ... : ... .. . ... : F#2 00 . S0E : ... .. . ... : ... .. . ...
ROW 22 : ... .. . ... : ... .. . ... : ... .. . ... : ... .. . ... : ... .. . ...
ROW 23 : ... .. . ... : === .. . ... : ... .. . ... : ... .. . ... : ... .. . ...
ROW 24 : ... .. . ... : F-1 08 C ... : F#2 00 . ... : D-# 05 . ... : ... .. . ...
ROW 25 : ... .. . ... : ... .. D ... : ... .. . S0A : ... .. . ... : ... .. . ...
ROW 26 : ... .. . ... : ... .. F ... : ... .. . ... : D-# 05 5 ... : ... .. . ...
ROW 27 : ... .. . ... : === .. . ... : ... .. . ... : ... .. . ... : ... .. . ...
ROW 28 : ... .. D ... : ... .. . ... : C-4 03 . ... : 9-# 07 F ... : ... .. . ...
ROW 29 : ... .. E ... : ... .. . ... : F#2 00 . S0E : ... .. . ... : ... .. . ...
ROW 2A : ... .. F ... : ... .. . ... : ... .. . ... : ... .. . ... : ... .. . ...
ROW 2B : ... .. . ... : ... .. . ... : ... .. . ... : ... .. . ... : ... .. . ...
ROW 2C : ... .. . ... : E-1 08 B ... : F#2 00 . ... : D-# 05 . ... : ... .. . ...
ROW 2D : ... .. . ... : ... .. D ... : ... .. . S0A : D-# 05 A ... : ... .. . ...
ROW 2E : ... .. . ... : ... .. E ... : ... .. . ... : D-# 05 C ... : ... .. . ...
ROW 2F : ... .. . ... : ... .. F ... : ... .. . ... : D-# 05 F D00 : ... .. . ...
ROW 30 : ... .. . ... : ... .. . ... : C-5 02 . ... : ... .. . ... : ... .. . ...
ROW 31 : ... .. . ... : ... .. . ... : F#2 00 . S0E : ... .. . ... : ... .. . ...
ROW 32 : ... .. . ... : ... .. . ... : ... .. . ... : ... .. . ... : ... .. . ...
ROW 33 : ... .. . ... : === .. . ... : ... .. . ... : ... .. . ... : ... .. . ...
ROW 34 : ... .. E ... : C#1 08 . ... : F#2 00 . ... : ... .. . ... : ... .. . ...
ROW 35 : ... .. F ... : ... .. . ... : ... .. . S0A : ... .. . ... : ... .. . ...
ROW 36 : ... .. . ... : ... .. . ... : ... .. . ... : ... .. . ... : ... .. . ...
ROW 37 : ... .. . ... : ... .. . ... : ... .. . ... : ... .. . ... : ... .. . ...
ROW 38 : G#2 0E D ... : C#2 08 . ... : C-4 03 . ... : ... .. . ... : ... .. . ...
ROW 39 : ... .. E ... : ... .. . ... : F#2 00 . S0E : ... .. . ... : ... .. . ...
ROW 3A : ... .. F ... : ... .. . ... : ... .. . ... : ... .. . ... : ... .. . ...
ROW 3B : ... .. . ... : ... .. . ... : ... .. . ... : ... .. . ... : ... .. . ...
ROW 3C : ... .. . ... : C#1 08 . ... : F#2 00 . ... : ... .. . ... : ... .. . ...
ROW 3D : ... .. . ... : ... .. . ... : ... .. . S0A : ... .. . ... : ... .. . ...
ROW 3E : ... .. . ... : ... .. . ... : ... .. . ... : ... .. . ... : ... .. . ...
ROW 3F : ... .. . ... : ... .. . ... : ... .. . ... : ... .. . ... : ... .. . ...

PATTERN 17
ROW 00 : D#2 22 B ... : D#1 08 . V00 : C-5 02 . ... : D-# 05 . ... : ... .. . ...
ROW 01 : ... .. D ... : D#1 08 . GFF : F#2 00 . S0E : ... .. . ... : ... .. . ...
ROW 02 : ... .. E ... : === .. . G02 : ... .. . ... : ... .. . ... : ... .. . ...
ROW 03 : ... .. F ... : ... .. . ... : ... .. . ... : D-# 05 . G03 : ... .. . ...
ROW 04 : ... .. . ... : D#1 08 . ... : F#2 00 . ... : ... .. . ... : ... .. . ...
ROW 05 : ... .. . ... : D#1 08 . GFF : ... .. . S0A : ... .. . ... : ... .. . ...
ROW 06 : ... .. . ... : === .. . G02 : ... .. . ... : ... .. . ... : ... .. . ...
ROW 07 : ... .. . ... : ... .. . ... : ... .. . ... : 0-# 04 . ... : ... .. . ...
ROW 08 : ... .. E ... : D#1 08 . ... : C-4 03 . ... : ... .. . ... : ... .. . ...
ROW 09 : ... .. F ... : D#1 08 . GFF : F#2 00 . S0E : ... .. . ... : ... .. . ...
ROW 0A : ... .. . ... : === .. . G02 : ... .. . ... : 9-# 07 . G03 : ... .. . ...
ROW 0B : ... .. . ... : ... .. . ... : ... .. . ... : ... .. . ... : ... .. . ...
ROW 0C : ... .. . ... : D#1 08 . ... : F#2 00 . ... : ... .. . ... : ... .. . ...
ROW 0D : ... .. . ... : D#1 08 . GFF : ... .. . S0A : ... .. . ... : ... .. . ...
ROW 0E : ... .. . ... : === .. . G02 : ... .. . ... : 9-# 07 . ... : ... .. . ...
ROW 0F : ... .. . ... : ... .. . ... : ... .. . ... : ... .. . ... : ... .. . ...
ROW 10 : ... .. E ... : D#1 08 . ... : C-5 02 . ... : ... .. . ... : ... .. . ...
ROW 11 : ... .. F ... : D#1 08 . GFF : F#2 00 . S0E : 9-# 07 . G03 : ... .. . ...
ROW 12 : ... .. . ... : === .. . G02 : ... .. . ... : ... .. . ... : ... .. . ...
ROW 13 : ... .. . ... : ... .. . ... : ... .. . ... : A-# 17 . G04 : ... .. . ...
ROW 14 : ... .. . ... : D#1 08 . ... : F#2 00 . ... : ... .. . D00 : ... .. . ...
ROW 15 : ... .. . ... : D#1 08 . GFF : ... .. . S0A : ... .. . ... : ... .. . ...
ROW 16 : ... .. . ... : === .. . G02 : ... .. . ... : ... .. . ... : ... .. . ...
ROW 17 : ... .. . ... : ... .. . ... : ... .. . ... : ... .. . ... : ... .. . ...
ROW 18 : E-2 0E E ... : D#1 08 . ... : C-5 02 . ... : ... .. . ... : ... .. . ...
ROW 19 : ... .. F ... : D#1 08 . GFF : F#2 00 . S0E : ... .. . ... : ... .. . ...
ROW 1A : ... .. . ... : === .. . G02 : ... .. . ... : ... .. . ... : ... .. . ...
ROW 1B : ... .. . ... : ... .. . ... : ... .. . ... : ... .. . ... : ... .. . ...
ROW 1C : ... .. . ... : D#1 08 . ... : C-4 03 . ... : ... .. . ... : ... .. . ...
ROW 1D : ... .. . ... : D#1 08 . GFF : F-2 00 . ... : ... .. . ... : ... .. . ...
ROW 1E : ... .. . ... : === .. . G02 : ... .. . ... : ... .. . ... : ... .. . ...
ROW 1F : ... .. . ... : ... .. . ... : ... .. . ... : ... .. . ... : ... .. . ...
ROW 20 : G-2 22 E ... : D#1 08 . V00 : ... .. . ... : ... .. . ... : ... .. . ...
ROW 21 : ... .. F ... : D#1 08 . GFF : ... .. . S0E : ... .. . ... : ... .. . ...
ROW 22 : ... .. . ... : === .. . G02 : ... .. . ... : ... .. . ... : ... .. . ...
ROW 23 : ... .. . ... : ... .. . ... : ... .. . ... : ... .. . ... : ... .. . ...
ROW 24 : ... .. . ... : D#1 08 . ... : C-5 02 . ... : ... .. . ... : ... .. . ...
ROW 25 : ... .. . ... : D#1 08 . GFF : F-2 00 . S0E : ... .. . ... : ... .. . ...
ROW 26 : ... .. . ... : === .. . G02 : ... .. . ... : ... .. . ... : ... .. . ...
ROW 27 : ... .. . ... : ... .. . ... : ... .. . ... : ... .. . ... : ... .. . ...
ROW 28 : ... .. E ... : D#1 08 . ... : ... .. . ... : ... .. . ... : ... .. . ...
ROW 29 : ... .. F ... : D#1 08 . GFF : ... .. . ... : ... .. . ... : ... .. . ...
ROW 2A : ... .. . ... : === .. . G02 : ... .. . ... : ... .. . ... : ... .. . ...
ROW 2B : ... .. . ... : ... .. . ... : ... .. . ... : ... .. . ... : ... .. . ...
ROW 2C : ... .. . ... : D#1 08 . ... : C-4 03 . ... : ... .. . ... : ... .. . ...
ROW 2D : ... .. . ... : D#1 08 . GFF : E-2 00 . ... : ... .. . ... : ... .. . ...
ROW 2E : ... .. . ... : === .. . G02 : ... .. . ... : ... .. . ... : ... .. . ...
ROW 2F : ... .. . ... : ... .. . ... : ... .. . ... : ... .. . ... : ... .. . ...
ROW 30 : ... .. . ... : D#1 08 . ... : ... .. . ... : ... .. . ... : ... .. . ...
ROW 31 : ... .. . ... : D#1 08 . GFF : ... .. . S0E : ... .. . ... : ... .. . ...
ROW 32 : ... .. . ... : === .. . G02 : ... .. . ... : ... .. . ... : ... .. . ...
ROW 33 : ... .. . ... : ... .. . ... : ... .. . ... : ... .. . ... : ... .. . ...
ROW 34 : ... .. . ... : D#1 08 . ... : ... .. . ... : ... .. . ... : ... .. . ...
ROW 35 : ... .. . ... : D#1 08 . GFF : ... .. . ... : ... .. . ... : ... .. . ...
ROW 36 : ... .. . ... : === .. . G02 : ... .. . ... : ... .. . ... : ... .. . ...
ROW 37 : ... .. . ... : ... .. . ... : ... .. . ... : ... .. . ... : ... .. . ...
ROW 38 : ... .. . ... : D#1 08 . ... : G-4 10 . ... : ... .. . ... : ... .. . ...
ROW 39 : ... .. . ... : D#1 08 . GFF : --- .. . ... : ... .. . ... : ... .. . ...
ROW 3A : ... .. . ... : === .. . G02 : G-4 10 . ... : ... .. . ... : ... .. . ...
ROW 3B : ... .. . ... : ... .. . ... : --- .. . ... : ... .. . ... : ... .. . ...
ROW 3C : ... .. . ... : D#1 08 . ... : D#4 10 . ... : ... .. . ... : ... .. . ...
ROW 3D : ... .. . ... : D#1 08 . GFF : ... .. . S0A : ... .. . ... : ... .. . ...
ROW 3E : ... .. . ... : === .. . G02 : ... .. . ... : ... .. . ... : ... .. . ...
ROW 3F : ... .. . ... : ... .. . ... : ... .. . ... : ... .. . ... : ... .. . ...

PATTERN 18
ROW 00 : F#2 22 E ... : E-1 08 . V00 : D#2 00 . ... : 0-# 04 F ... : ... .. . ...
ROW 01 : ... .. . ... : E-1 08 . GFF : ... .. . S0A : ... .. . ... : ... .. . ...
ROW 02 : ... .. . ... : === .. . G02 : D#2 00 . S07 : ... .. . ... : ... .. . ...
ROW 03 : ... .. . ... : ... .. . ... : ... .. . ... : ... .. . ... : ... .. . ...
ROW 04 : ... .. F ... : E-1 08 . ... : D#2 00 . ... : D-# 05 . ... : ... .. . ...
ROW 05 : ... .. . ... : E-1 08 . GFF : ... .. . S0A : ... .. . ... : ... .. . ...
ROW 06 : ... .. . ... : === .. . G02 : D#2 00 . S07 : D-# 05 5 ... : ... .. . ...
ROW 07 : ... .. . ... : ... .. . ... : ... .. . ... : ... .. . ... : ... .. . ...
ROW 08 : ... .. . ... : E-1 08 . ... : D#2 00 . ... : 9-# 07 F ... : ... .. . ...
ROW 09 : ... .. . ... : E-1 08 . GFF : ... .. . S0A : ... .. . ... : ... .. . ...
ROW 0A : ... .. . ... : === .. . G02 : D#2 00 . S07 : ... .. . ... : ... .. . ...
ROW 0B : ... .. . ... : ... .. . ... : ... .. . ... : ... .. . ... : ... .. . ...
ROW 0C : ... .. . ... : E-1 08 . ... : D#2 00 . ... : D-# 05 . ... : ... .. . ...
ROW 0D : ... .. . ... : E-1 08 . GFF : ... .. . S0A : ... .. . ... : ... .. . ...
ROW 0E : ... .. . ... : === .. . G02 : D#2 00 . S07 : D-# 05 A ... : ... .. . ...
ROW 0F : ... .. . ... : ... .. . ... : ... .. . ... : ... .. . ... : ... .. . ...
ROW 10 : ... .. . ... : E-1 08 . ... : D#2 00 . ... : D-# 05 F ... : ... .. . ...
ROW 11 : ... .. . ... : E-1 08 . GFF : ... .. . S0A : ... .. . ... : ... .. . ...
ROW 12 : ... .. . ... : === .. . G02 : D#2 00 . S07 : D-# 05 A ... : ... .. . ...
ROW 13 : ... .. . ... : ... .. . ... : ... .. . ... : ... .. . ... : ... .. . ...
ROW 14 : ... .. . ... : E-1 08 . ... : D#2 00 . ... : 0-# 04 F ... : ... .. . ...
ROW 15 : ... .. . ... : E-1 08 . GFF : ... .. . S0A : ... .. . ... : ... .. . ...
ROW 16 : ... .. . ... : === .. . G02 : D#2 00 . S07 : D-# 05 5 ... : ... .. . ...
ROW 17 : ... .. . ... : ... .. . ... : ... .. . ... : ... .. . ... : ... .. . ...
ROW 18 : ... .. . ... : E-1 08 . ... : D#2 00 . ... : 9-# 07 F ... : ... .. . ...
ROW 19 : ... .. . ... : E-1 08 . GFF : ... .. . S0A : ... .. . ... : ... .. . ...
ROW 1A : ... .. . ... : === .. . G02 : D#2 00 . S07 : ... .. . ... : ... .. . ...
ROW 1B : ... .. . ... : ... .. . ... : ... .. . ... : ... .. . ... : ... .. . ...
ROW 1C : ... .. . ... : E-1 08 . ... : D#2 00 . ... : D-# 05 . ... : ... .. . ...
ROW 1D : ... .. . ... : E-1 08 . GFF : ... .. . S0A : ... .. . ... : ... .. . ...
ROW 1E : ... .. . ... : === .. . G02 : D#2 00 . S07 : D-# 05 A ... : ... .. . ...
ROW 1F : ... .. . ... : ... .. . ... : ... .. . ... : 0-# 04 F GFF : ... .. . ...
ROW 20 : ... .. E ... : D#1 08 . V00 : D#2 00 . ... : D-# 06 . G06 : ... .. . ...
ROW 21 : ... .. . ... : D#1 08 . GFF : ... .. . S0A : ... .. . ... : ... .. . ...
ROW 22 : ... .. . ... : === .. . G02 : D#2 00 . S07 : ... .. . ... : ... .. . ...
ROW 23 : ... .. . ... : ... .. . ... : ... .. . ... : ... .. . ... : ... .. . ...
ROW 24 : ... .. F ... : D#1 08 . ... : D#2 00 . ... : ... .. . ... : ... .. . ...
ROW 25 : ... .. . ... : D#1 08 . GFF : ... .. . S0A : ... .. . ... : ... .. . ...
ROW 26 : ... .. . ... : === .. . G02 : D#2 00 . S07 : ... .. . ... : ... .. . ...
ROW 27 : ... .. . ... : ... .. . ... : ... .. . ... : ... .. . ... : ... .. . ...
ROW 28 : ... .. . ... : D#1 08 . ... : D#2 00 . ... : 9-# 07 . ... : ... .. . ...
ROW 29 : ... .. . ... : D#1 08 . GFF : ... .. . S0A : ... .. . ... : ... .. . ...
ROW 2A : ... .. . ... : === .. . G02 : D#2 00 . S07 : ... .. . ... : ... .. . ...
ROW 2B : ... .. . ... : ... .. . ... : ... .. . ... : 0-# 04 F GFF : ... .. . ...
ROW 2C : ... .. . ... : D#1 08 . ... : D#2 00 . ... : D-# 06 . G06 : ... .. . ...
ROW 2D : ... .. . ... : D#1 08 . GFF : ... .. . S0A : ... .. . ... : ... .. . ...
ROW 2E : ... .. . ... : === .. . G02 : D#2 00 . S07 : ... .. . ... : ... .. . ...
ROW 2F : ... .. . ... : ... .. . ... : ... .. . ... : ... .. . ... : ... .. . ...
ROW 30 : ... .. . ... : D#1 08 . ... : D#2 00 . ... : ... .. . ... : ... .. . ...
ROW 31 : ... .. . ... : D#1 08 . GFF : ... .. . S0A : ... .. . ... : ... .. . ...
ROW 32 : ... .. . ... : === .. . G02 : D#2 00 . S07 : D-# 05 A ... : ... .. . ...
ROW 33 : ... .. . ... : ... .. . ... : ... .. . ... : ... .. . ... : ... .. . ...
ROW 34 : ... .. . ... : D#1 08 . ... : D#2 00 . ... : 0-# 04 F ... : ... .. . ...
ROW 35 : ... .. . ... : D#1 08 . GFF : ... .. . S0A : ... .. . ... : ... .. . ...
ROW 36 : ... .. . ... : === .. . G02 : D#2 00 . S07 : D-# 05 A ... : ... .. . ...
ROW 37 : ... .. . ... : ... .. . ... : ... .. . ... : ... .. . ... : ... .. . ...
ROW 38 : ... .. . ... : D#1 08 . ... : D#2 00 . ... : 9-# 07 F ... : ... .. . ...
ROW 39 : ... .. . ... : D#1 08 . GFF : ... .. . S0A : ... .. . ... : ... .. . ...
ROW 3A : ... .. . ... : === .. . G02 : D#2 00 . S07 : ... .. . ... : ... .. . ...
ROW 3B : ... .. . ... : ... .. . ... : ... .. . ... : ... .. . ... : ... .. . ...
ROW 3C : ... .. . ... : D#1 08 . ... : D#2 00 . ... : 0-# 04 . ... : ... .. . ...
ROW 3D : ... .. . ... : D#1 08 . GFF : ... .. . S0A : B-# 11 . ... : ... .. . ...
ROW 3E : ... .. . ... : === .. . G02 : D#2 00 . S07 : ... .. . ... : ... .. . ...
ROW 3F : ... .. . ... : ... .. . ... : ... .. . ... : ... .. . ... : ... .. . ...

PATTERN 19
ROW 00 : ... .. E ... : D#1 08 B V02 : E-2 00 . ... : 0-# 04 F ... : ... .. . ...
ROW 01 : ... .. F ... : ... .. C ... : ... .. . S0A : ... .. . ... : ... .. . ...
ROW 02 : ... .. . ... : ... .. D ... : E-2 00 . S07 : ... .. . ... : ... .. . ...
ROW 03 : ... .. . ... : ... .. F ... : ... .. . ... : ... .. . ... : ... .. . ...
ROW 04 : ... .. . ... : ... .. . ... : E-2 00 . ... : D-# 05 . ... : ... .. . ...
ROW 05 : ... .. . ... : ... .. . ... : ... .. . S0A : ... .. . ... : ... .. . ...
ROW 06 : ... .. . ... : ... .. . ... : E-2 00 . S07 : D-# 05 5 ... : ... .. . ...
ROW 07 : ... .. . ... : ... .. . ... : ... .. . ... : ... .. . ... : ... .. . ...
ROW 08 : D#2 0E E ... : ... .. B ... : E-2 00 . ... : 9-# 07 F ... : ... .. . ...
ROW 09 : ... .. F ... : ... .. D ... : ... .. . S0A : ... .. . ... : ... .. . ...
ROW 0A : ... .. . ... : === 24 E ... : E-2 00 . S07 : ... .. . ... : ... .. . ...
ROW 0B : ... .. . ... : ... .. F ... : ... .. . ... : ... .. . ... : ... .. . ...
ROW 0C : ... .. . ... : D#1 08 . ... : E-2 00 . ... : D-# 05 . ... : ... .. . ...
ROW 0D : ... .. . ... : ... .. . ... : ... .. . S0A : ... .. . ... : ... .. . ...
ROW 0E : ... .. . ... : ... .. . ... : E-2 00 . S07 : D-# 05 A ... : ... .. . ...
ROW 0F : ... .. . ... : A#2 24 . ... : ... .. . ... : ... .. . ... : ... .. . ...
ROW 10 : E-2 22 E ... : ... .. . ... : E-2 00 . ... : D-# 05 F ... : ... .. . ...
ROW 11 : ... .. F ... : ... .. . ... : ... .. . S0A : ... .. . ... : ... .. . ...
ROW 12 : ... .. . ... : ... .. . ... : E-2 00 . S07 : D-# 05 A ... : ... .. . ...
ROW 13 : ... .. . ... : ... .. . ... : ... .. . ... : ... .. . ... : ... .. . ...
ROW 14 : ... .. . ... : ... .. C ... : E-2 00 . ... : 0-# 04 F ... : ... .. . ...
ROW 15 : ... .. . ... : ... .. D ... : ... .. . S0A : ... .. . ... : ... .. . ...
ROW 16 : ... .. . ... : ... .. F ... : E-2 00 . S07 : D-# 05 5 ... : ... .. . ...
ROW 17 : ... .. . ... : ... .. . ... : ... .. . ... : ... .. . ... : ... .. . ...
ROW 18 : ... .. E ... : ... .. B ... : E-2 00 . ... : 9-# 07 F ... : ... .. . ...
ROW 19 : ... .. F ... : ... .. D ... : ... .. . S0A : ... .. . ... : ... .. . ...
ROW 1A : ... .. . ... : ... .. E ... : E-2 00 . S07 : ... .. . ... : ... .. . ...
ROW 1B : ... .. . ... : ... .. F ... : ... .. . ... : ... .. . ... : ... .. . ...
ROW 1C : ... .. . ... : ... .. . ... : E-2 00 . ... : D-# 05 . ... : ... .. . ...
ROW 1D : ... .. . ... : ... .. . ... : ... .. . S0A : ... .. . ... : ... .. . ...
ROW 1E : ... .. . ... : ... .. . ... : E-2 00 . S07 : D-# 05 A ... : ... .. . ...
ROW 1F : ... .. . ... : ... .. . ... : ... .. . ... : B-# 17 F ... : ... .. . ...
ROW 20 : ... .. E ... : ... .. C ... : D#2 00 . ... : B-# 12 . F10 : ... .. . ...
ROW 21 : ... .. F ... : ... .. D ... : ... .. . S0A : ... .. . ... : ... .. . ...
ROW 22 : ... .. . ... : ... .. F ... : D#2 00 . S07 : ... .. . ... : ... .. . ...
ROW 23 : ... .. . ... : ... .. . ... : ... .. . ... : ... .. . ... : ... .. . ...
ROW 24 : ... .. . ... : ... .. . ... : D#2 00 . ... : ... .. . ... : ... .. . ...
ROW 25 : ... .. . ... : ... .. . ... : ... .. . S0A : ... .. . ... : ... .. . ...
ROW 26 : ... .. . ... : ... .. . ... : D#2 00 . S07 : ... .. . ... : ... .. . ...
ROW 27 : ... .. . ... : ... .. . ... : ... .. . ... : 8-# 00 1 431 : ... .. . ...
ROW 28 : A-2 0E E ... : ... .. B ... : D#2 00 . ... : ... .. . ... : ... .. . ...
ROW 29 : ... .. F ... : ... .. D ... : ... .. . S0A : ... .. . ... : ... .. . ...
ROW 2A : ... .. . ... : ... .. E ... : D#2 00 . S07 : ... .. . ... : ... .. . ...
ROW 2B : ... .. . ... : ... .. F ... : ... .. . ... : ... .. . ... : ... .. . ...
ROW 2C : ... .. . ... : ... .. . ... : D#2 00 . ... : ... .. . ... : ... .. . ...
ROW 2D : ... .. . ... : ... .. . ... : ... .. . S0A : ... .. . ... : ... .. . ...
ROW 2E : ... .. . ... : ... .. . ... : D#2 00 . S07 : ... .. . ... : ... .. . ...
ROW 2F : ... .. . ... : ... .. . ... : ... .. . ... : ... .. . ... : ... .. . ...
ROW 30 : ... .. . ... : ... .. . ... : D#2 00 . ... : ... .. . ... : ... .. . ...
ROW 31 : ... .. . ... : ... .. . ... : ... .. . S0A : ... .. . ... : ... .. . ...
ROW 32 : ... .. . ... : ... .. . ... : D#2 00 . S07 : ... .. . ... : ... .. . ...
ROW 33 : ... .. . ... : ... .. . ... : ... .. . ... : ... .. . ... : ... .. . ...
ROW 34 : ... .. . ... : ... .. C ... : D#2 00 . ... : --- .. . ... : ... .. . ...
ROW 35 : ... .. . ... : ... .. D ... : ... .. . S0A : ... .. . ... : ... .. . ...
ROW 36 : ... .. . ... : ... .. F ... : D#2 00 . S07 : ... .. . ... : ... .. . ...
ROW 37 : ... .. . ... : ... .. . ... : ... .. . ... : ... .. . ... : ... .. . ...
ROW 38 : ... .. . ... : ... .. B ... : D#2 00 . ... : ... .. . ... : ... .. . ...
ROW 39 : ... .. . ... : ... .. D ... : ... .. . S0A : ... .. . ... : ... .. . ...
ROW 3A : ... .. . ... : ... .. E ... : D#2 00 . S07 : ... .. . ... : ... .. . ...
ROW 3B : ... .. . ... : ... .. F ... : ... .. . ... : ... .. . ... : ... .. . ...
ROW 3C : ... .. . ... : C#1 08 . ... : D#2 00 . ... : ... .. . ... : ... .. . ...
ROW 3D : ... .. . ... : ... .. . ... : ... .. . S0A : ... .. . ... : ... .. . ...
ROW 3E : ... .. . ... : ... .. . ... : D#2 00 . S07 : ... .. . ... : ... .. . ...
ROW 3F : ... .. . ... : === .. . ... : ... .. . ... : ... .. . C00 : ... .. . ...

PATTERN 1A
ROW 00 : A#2 22 E ... : D#1 08 C V02 : C-5 02 . ... : ... .. . ... : ... .. . ...
ROW 01 : ... .. . ... : ... .. D ... : D#2 00 . ... : ... .. . ... : ... .. . ...
ROW 02 : ... .. . ... : ... .. F ... : ... .. . ... : ... .. . ... : ... .. . ...
ROW 03 : ... .. . ... : ... .. . ... : ... .. . ... : ... .. . ... : ... .. . ...
ROW 04 : ... .. F ... : ... .. . ... : ... .. . 427 : ... .. . ... : ... .. . ...
ROW 05 : ... .. . ... : ... .. . ... : ... .. . ... : ... .. . ... : ... .. . ...
ROW 06 : ... .. . ... : ... .. . ... : ... .. . ... : ... .. . ... : ... .. . ...
ROW 07 : ... .. . ... : ... .. . ... : ... .. . ... : ... .. . ... : ... .. . ...
ROW 08 : ... .. . ... : ... .. B ... : C-4 03 . 400 : ... .. . ... : ... .. . ...
ROW 09 : ... .. . ... : ... .. D ... : D#2 00 . S0E : ... .. . ... : ... .. . ...
ROW 0A : ... .. . ... : === 24 E ... : ... .. . ... : ... .. . ... : ... .. . ...
ROW 0B : ... .. . ... : ... .. F ... : ... .. . ... : ... .. . ... : ... .. . ...
ROW 0C : ... .. . ... : D#1 08 . ... : D#2 00 . ... : ... .. . ... : ... .. . ...
ROW 0D : ... .. . ... : ... .. . ... : ... .. . S0E : ... .. . ... : ... .. . ...
ROW 0E : ... .. . ... : ... .. . ... : ... .. . ... : ... .. . ... : ... .. . ...
ROW 0F : ... .. . ... : B-2 24 . ... : ... .. . ... : ... .. . ... : ... .. . ...
ROW 10 : ... .. . ... : ... .. . ... : ... .. . ... : ... .. . ... : ... .. . ...
ROW 11 : ... .. . ... : ... .. . ... : ... .. . ... : ... .. . ... : ... .. . ...
ROW 12 : ... .. . ... : ... .. . ... : ... .. . ... : ... .. . ... : ... .. . ...
ROW 13 : ... .. . ... : ... .. . ... : ... .. . ... : ... .. . ... : ... .. . ...
ROW 14 : ... .. . ... : ... .. C ... : C-5 02 . ... : ... .. . ... : ... .. . ...
ROW 15 : ... .. . ... : ... .. D ... : --- .. . ... : ... .. . ... : ... .. . ...
ROW 16 : ... .. . ... : ... .. F ... : ... .. . ... : ... .. . ... : ... .. . ...
ROW 17 : ... .. . ... : ... .. . ... : ... .. . ... : ... .. . ... : ... .. . ...
ROW 18 : ... .. . ... : ... .. B ... : C-4 03 . ... : ... .. . ... : ... .. . ...
ROW 19 : ... .. . ... : ... .. D ... : --- .. . ... : ... .. . ... : ... .. . ...
ROW 1A : ... .. . ... : ... .. E ... : ... .. . ... : ... .. . ... : ... .. . ...
ROW 1B : ... .. . ... : ... .. F ... : ... .. . ... : ... .. . ... : ... .. . ...
ROW 1C : ... .. . ... : ... .. . ... : ... .. . ... : ... .. . ... : ... .. . ...
ROW 1D : ... .. . ... : ... .. . ... : ... .. . ... : ... .. . ... : ... .. . ...
ROW 1E : ... .. . ... : ... .. . ... : ... .. . ... : ... .. . ... : ... .. . ...
ROW 1F : ... .. . ... : ... .. . ... : ... .. . ... : ... .. . ... : ... .. . ...
ROW 20 : ... .. D ... : ... .. C ... : C-5 02 . ... : ... .. . ... : ... .. . ...
ROW 21 : ... .. . ... : ... .. D ... : --- .. . ... : ... .. . ... : ... .. . ...
ROW 22 : ... .. . ... : ... .. F ... : ... .. . ... : ... .. . ... : ... .. . ...
ROW 23 : ... .. E ... : ... .. . ... : ... .. . ... : ... .. . ... : ... .. . ...
ROW 24 : ... .. . ... : ... .. . ... : ... .. . ... : ... .. . ... : ... .. . ...
ROW 25 : ... .. . ... : ... .. . ... : ... .. . ... : ... .. . ... : ... .. . ...
ROW 26 : ... .. F ... : ... .. . ... : ... .. . ... : ... .. . ... : ... .. . ...
ROW 27 : ... .. . ... : ... .. . ... : ... .. . ... : ... .. . ... : ... .. . ...
ROW 28 : ... .. . ... : ... .. B ... : C-4 03 . ... : ... .. . ... : ... .. . ...
ROW 29 : ... .. . ... : ... .. D ... : --- .. . ... : ... .. . ... : ... .. . ...
ROW 2A : ... .. . ... : ... .. E ... : ... .. . ... : ... .. . ... : ... .. . ...
ROW 2B : ... .. . ... : ... .. F ... : ... .. . ... : ... .. . ... : ... .. . ...
ROW 2C : ... .. . ... : ... .. . ... : ... .. . ... : ... .. . ... : ... .. . ...
ROW 2D : ... .. . ... : ... .. . ... : ... .. . ... : ... .. . ... : ... .. . ...
ROW 2E : ... .. . ... : ... .. . ... : ... .. . ... : ... .. . ... : ... .. . ...
ROW 2F : ... .. . ... : ... .. . ... : ... .. . ... : ... .. . ... : ... .. . ...
ROW 30 : ... .. E ... : ... .. . ... : ... .. . ... : ... .. . ... : ... .. . ...
ROW 31 : ... .. . ... : ... .. . ... : ... .. . ... : ... .. . ... : ... .. . ...
ROW 32 : ... .. . ... : ... .. . ... : ... .. . ... : ... .. . ... : ... .. . ...
ROW 33 : ... .. . ... : ... .. . ... : ... .. . ... : ... .. . ... : ... .. . ...
ROW 34 : ... .. F ... : ... .. C ... : C-5 02 . ... : ... .. . ... : ... .. . ...
ROW 35 : ... .. . ... : ... .. D ... : --- .. . ... : ... .. . ... : ... .. . ...
ROW 36 : ... .. . ... : ... .. F ... : ... .. . ... : ... .. . ... : ... .. . ...
ROW 37 : ... .. . ... : ... .. . ... : ... .. . ... : ... .. . ... : ... .. . ...
ROW 38 : ... .. . ... : ... .. B ... : C-4 03 . ... : ... .. . ... : ... .. . ...
ROW 39 : ... .. . ... : ... .. D ... : --- .. . ... : ... .. . ... : ... .. . ...
ROW 3A : ... .. . ... : ... .. E ... : ... .. . ... : ... .. . ... : ... .. . ...
ROW 3B : ... .. . ... : ... .. F ... : ... .. . ... : ... .. . ... : ... .. . ...
ROW 3C : ... .. . ... : D#1 08 . ... : C#2 00 . ... : ... .. . ... : ... .. . ...
ROW 3D : ... .. . ... : ... .. . ... : ... .. . S10 : ... .. . ... : ... .. . ...
ROW 3E : ... .. . ... : ... .. . ... : ... .. . ... : ... .. . ... : ... .. . ...
ROW 3F : ... .. . ... : === .. . ... : ... .. . ... : ... .. . ... : ... .. . ...

PATTERN 1B
ROW 00 : A#2 22 E ... : E-1 08 C V02 : C-5 02 . ... : ... .. . ... : ... .. . ...
ROW 01 : ... .. F ... : ... .. D ... : D#2 00 . ... : ... .. . ... : ... .. . ...
ROW 02 : ... .. . ... : ... .. F ... : ... .. . ... : ... .. . ... : ... .. . ...
ROW 03 : ... .. . ... : ... .. . ... : ... .. . ... : ... .. . ... : ... .. . ...
ROW 04 : ... .. . ... : ... .. . ... : ... .. . 427 : ... .. . ... : ... .. . ...
ROW 05 : ... .. . ... : ... .. . ... : ... .. . ... : ... .. . ... : ... .. . ...
ROW 06 : ... .. . ... : ... .. . ... : ... .. . ... : ... .. . ... : ... .. . ...
ROW 07 : ... .. . ... : ... .. . ... : ... .. . ... : ... .. . ... : ... .. . ...
ROW 08 : ... .. D ... : ... .. B ... : C-4 03 . 400 : ... .. . ... : ... .. . ...
ROW 09 : ... .. E ... : ... .. D ... : D#2 00 . S0E : ... .. . ... : ... .. . ...
ROW 0A : ... .. F ... : === 24 E ... : ... .. . ... : ... .. . ... : ... .. . ...
ROW 0B : ... .. . ... : ... .. F ... : ... .. . ... : ... .. . ... : ... .. . ...
ROW 0C : ... .. . ... : E-1 08 . ... : D#2 00 . ... : ... .. . ... : ... .. . ...
ROW 0D : ... .. . ... : ... .. . ... : ... .. . S0E : ... .. . ... : ... .. . ...
ROW 0E : ... .. . ... : ... .. . ... : ... .. . ... : ... .. . ... : ... .. . ...
ROW 0F : ... .. . ... : C#3 24 . ... : ... .. . ... : ... .. . ... : ... .. . ...
ROW 10 : ... .. E ... : ... .. . ... : ... .. . ... : ... .. . ... : ... .. . ...
ROW 11 : ... .. F ... : ... .. . ... : ... .. . ... : ... .. . ... : ... .. . ...
ROW 12 : ... .. . ... : ... .. . ... : ... .. . ... : ... .. . ... : ... .. . ...
ROW 13 : ... .. . ... : ... .. . ... : ... .. . ... : ... .. . ... : ... .. . ...
ROW 14 : ... .. . ... : ... .. C ... : C-5 02 . ... : ... .. . ... : ... .. . ...
ROW 15 : ... .. . ... : ... .. D ... : --- .. . ... : ... .. . ... : ... .. . ...
ROW 16 : ... .. . ... : ... .. F ... : ... .. . ... : ... .. . ... : ... .. . ...
ROW 17 : ... .. . ... : ... .. . ... : ... .. . ... : ... .. . ... : ... .. . ...
ROW 18 : C#3 0E D ... : ... .. B ... : C-4 03 . ... : ... .. . ... : ... .. . ...
ROW 19 : ... .. E ... : ... .. D ... : --- .. . ... : ... .. . ... : ... .. . ...
ROW 1A : ... .. F ... : ... .. E ... : ... .. . ... : ... .. . ... : ... .. . ...
ROW 1B : ... .. . ... : ... .. F ... : ... .. . ... : ... .. . ... : ... .. . ...
ROW 1C : ... .. . ... : ... .. . ... : ... .. . ... : ... .. . ... : ... .. . ...
ROW 1D : ... .. . ... : ... .. . ... : ... .. . ... : ... .. . ... : ... .. . ...
ROW 1E : ... .. . ... : ... .. . ... : ... .. . ... : ... .. . ... : ... .. . ...
ROW 1F : ... .. . ... : ... .. . ... : ... .. . ... : ... .. . ... : ... .. . ...
ROW 20 : F#2 22 E ... : B-2 24 C ... : C-5 02 . ... : ... .. . ... : ... .. . ...
ROW 21 : ... .. F ... : ... .. D ... : --- .. . ... : ... .. . ... : ... .. . ...
ROW 22 : ... .. . ... : ... .. F ... : ... .. . ... : ... .. . ... : ... .. . ...
ROW 23 : ... .. . ... : ... .. . ... : ... .. . ... : ... .. . ... : ... .. . ...
ROW 24 : ... .. . ... : ... .. . ... : ... .. . ... : ... .. . ... : ... .. . ...
ROW 25 : ... .. . ... : ... .. . ... : ... .. . ... : ... .. . ... : ... .. . ...
ROW 26 : ... .. . ... : ... .. . ... : ... .. . ... : ... .. . ... : ... .. . ...
ROW 27 : ... .. . ... : ... .. . ... : ... .. . ... : ... .. . ... : ... .. . ...
ROW 28 : ... .. D ... : ... .. B ... : C-4 03 . ... : ... .. . ... : ... .. . ...
ROW 29 : ... .. E ... : ... .. D ... : --- .. . ... : ... .. . ... : ... .. . ...
ROW 2A : ... .. F ... : ... .. E ... : ... .. . ... : ... .. . ... : ... .. . ...
ROW 2B : ... .. . ... : ... .. F ... : ... .. . ... : ... .. . ... : ... .. . ...
ROW 2C : ... .. . ... : ... .. . ... : ... .. . ... : ... .. . ... : ... .. . ...
ROW 2D : ... .. . ... : ... .. . ... : ... .. . ... : ... .. . ... : ... .. . ...
ROW 2E : ... .. . ... : ... .. . ... : ... .. . ... : ... .. . ... : ... .. . ...
ROW 2F : ... .. . ... : ... .. . ... : ... .. . ... : ... .. . ... : ... .. . ...
ROW 30 : ... .. E ... : ... .. . ... : ... .. . ... : ... .. . ... : ... .. . ...
ROW 31 : ... .. F ... : ... .. . ... : ... .. . ... : ... .. . ... : ... .. . ...
ROW 32 : ... .. . ... : ... .. . ... : ... .. . ... : ... .. . ... : ... .. . ...
ROW 33 : ... .. . ... : ... .. . ... : ... .. . ... : ... .. . ... : ... .. . ...
ROW 34 : ... .. . ... : ... .. C ... : C-5 02 . ... : ... .. . ... : ... .. . ...
ROW 35 : ... .. . ... : ... .. D ... : --- .. . ... : ... .. . ... : ... .. . ...
ROW 36 : ... .. . ... : ... .. F ... : ... .. . ... : ... .. . ... : ... .. . ...
ROW 37 : ... .. . ... : ... .. . ... : ... .. . ... : ... .. . ... : ... .. . ...
ROW 38 : A#2 0E D ... : ... .. B ... : C-4 03 . ... : ... .. . ... : ... .. . ...
ROW 39 : ... .. E ... : ... .. D ... : --- .. . ... : ... .. . ... : ... .. . ...
ROW 3A : ... .. F ... : ... .. E ... : ... .. . ... : ... .. . ... : ... .. . ...
ROW 3B : ... .. . ... : ... .. F ... : ... .. . ... : ... .. . ... : ... .. . ...
ROW 3C : ... .. . ... : C#1 08 . ... : D#2 00 . ... : ... .. . ... : ... .. . ...
ROW 3D : ... .. . ... : ... .. . ... : ... .. . S10 : ... .. . ... : ... .. . ...
ROW 3E : ... .. . ... : ... .. . ... : ... .. . ... : ... .. . ... : ... .. . ...
ROW 3F : ... .. . ... : === .. . ... : ... .. . ... : ... .. . ... : ... .. . ...

PATTERN 1C
ROW 00 : A-2 22 E ... : D-1 08 . ... : C-5 02 . ... : ... .. . ... : ... .. . ...
ROW 01 : ... .. F ... : ... .. . ... : E-2 00 . ... : ... .. . ... : ... .. . ...
ROW 02 : ... .. . ... : ... .. . ... : ... .. . ... : ... .. . ... : ... .. . ...
ROW 03 : ... .. . ... : ... .. . ... : ... .. . ... : ... .. . ... : ... .. . ...
ROW 04 : ... .. . ... : === .. . ... : ... .. . 427 : ... .. . ... : ... .. . ...
ROW 05 : ... .. . ... : ... .. . ... : ... .. . ... : ... .. . ... : ... .. . ...
ROW 06 : ... .. . ... : ... .. . ... : ... .. . ... : ... .. . ... : ... .. . ...
ROW 07 : ... .. . ... : D-1 08 . ... : ... .. . ... : ... .. . ... : ... .. . ...
ROW 08 : ... .. D ... : ... .. . ... : C-4 03 . 400 : ... .. . ... : ... .. . ...
ROW 09 : ... .. E ... : ... .. . ... : E-2 00 . S0E : ... .. . ... : ... .. . ...
ROW 0A : ... .. F ... : ... .. . ... : ... .. . ... : ... .. . ... : ... .. . ...
ROW 0B : ... .. . ... : === .. . ... : ... .. . ... : ... .. . ... : ... .. . ...
ROW 0C : ... .. . ... : ... .. . ... : E-2 00 . ... : ... .. . ... : ... .. . ...
ROW 0D : ... .. . ... : ... .. . ... : ... .. . S0E : ... .. . ... : ... .. . ...
ROW 0E : ... .. . ... : D-1 08 C ... : ... .. . ... : ... .. . ... : ... .. . ...
ROW 0F : ... .. . ... : ... .. . ... : ... .. . ... : ... .. . ... : ... .. . ...
ROW 10 : ... .. E ... : ... .. D G02 : ... .. . ... : ... .. . ... : ... .. . ...
ROW 11 : ... .. F ... : ... .. . ... : ... .. . ... : ... .. . ... : ... .. . ...
ROW 12 : ... .. . ... : === .. F ... : ... .. . ... : ... .. . ... : ... .. . ...
ROW 13 : ... .. . ... : ... .. . ... : ... .. . ... : ... .. . ... : ... .. . ...
ROW 14 : ... .. . ... : ... .. . ... : C-5 02 . ... : ... .. . ... : ... .. . ...
ROW 15 : ... .. . ... : D-1 08 B ... : --- .. . ... : ... .. . ... : ... .. . ...
ROW 16 : ... .. . ... : ... .. . ... : ... .. . ... : ... .. . ... : ... .. . ...
ROW 17 : ... .. . ... : ... .. D G02 : ... .. . ... : ... .. . ... : ... .. . ...
ROW 18 : C#3 0E D ... : ... .. . ... : C-4 03 . ... : ... .. . ... : ... .. . ...
ROW 19 : ... .. E ... : === .. E ... : --- .. . ... : ... .. . ... : ... .. . ...
ROW 1A : ... .. F ... : ... .. . ... : ... .. . ... : ... .. . ... : ... .. . ...
ROW 1B : ... .. . ... : ... .. . ... : ... .. . ... : ... .. . ... : ... .. . ...
ROW 1C : ... .. . ... : D-1 08 B ... : ... .. . ... : ... .. . ... : ... .. . ...
ROW 1D : ... .. . ... : ... .. . ... : ... .. . ... : ... .. . ... : ... .. . ...
ROW 1E : ... .. . ... : ... .. D G02 : ... .. . ... : ... .. . ... : ... .. . ...
ROW 1F : ... .. . ... : ... .. . ... : ... .. . ... : ... .. . ... : ... .. . ...
ROW 20 : F#2 22 E ... : === .. E ... : C-5 02 . ... : ... .. . ... : ... .. . ...
ROW 21 : ... .. F ... : ... .. . ... : --- .. . ... : ... .. . ... : ... .. . ...
ROW 22 : ... .. . ... : ... .. . ... : ... .. . ... : ... .. . ... : ... .. . ...
ROW 23 : ... .. . ... : D-1 08 B ... : ... .. . ... : ... .. . ... : ... .. . ...
ROW 24 : ... .. . ... : ... .. . ... : ... .. . ... : ... .. . ... : ... .. . ...
ROW 25 : ... .. . ... : ... .. D G02 : ... .. . ... : ... .. . ... : ... .. . ...
ROW 26 : ... .. . ... : ... .. . ... : ... .. . ... : ... .. . ... : ... .. . ...
ROW 27 : ... .. . ... : === .. E ... : ... .. . ... : ... .. . ... : ... .. . ...
ROW 28 : ... .. D ... : ... .. . ... : C-4 03 . ... : ... .. . ... : ... .. . ...
ROW 29 : ... .. E ... : ... .. . ... : --- .. . ... : ... .. . ... : ... .. . ...
ROW 2A : ... .. F ... : ... .. . ... : ... .. . ... : ... .. . ... : ... .. . ...
ROW 2B : ... .. . ... : ... .. . ... : ... .. . ... : ... .. . ... : ... .. . ...
ROW 2C : ... .. . ... : ... .. . ... : ... .. . ... : ... .. . ... : ... .. . ...
ROW 2D : ... .. . ... : ... .. . ... : ... .. . ... : ... .. . ... : ... .. . ...
ROW 2E : ... .. . ... : ... .. . ... : ... .. . ... : ... .. . ... : ... .. . ...
ROW 2F : ... .. . ... : ... .. . ... : ... .. . ... : ... .. . ... : ... .. . ...
ROW 30 : ... .. E ... : ... .. . ... : ... .. . ... : ... .. . ... : ... .. . ...
ROW 31 : ... .. F ... : ... .. . ... : ... .. . ... : ... .. . ... : ... .. . ...
ROW 32 : ... .. . ... : ... .. . ... : ... .. . ... : ... .. . ... : ... .. . ...
ROW 33 : ... .. . ... : ... .. . ... : ... .. . ... : ... .. . ... : ... .. . ...
ROW 34 : ... .. . ... : ... .. . ... : C-5 02 . ... : ... .. . ... : ... .. . ...
ROW 35 : ... .. . ... : ... .. . ... : --- .. . ... : ... .. . ... : ... .. . ...
ROW 36 : ... .. . ... : ... .. . ... : ... .. . ... : ... .. . ... : ... .. . ...
ROW 37 : ... .. . ... : ... .. . ... : ... .. . ... : ... .. . ... : ... .. . ...
ROW 38 : A-2 0E D ... : ... .. . ... : C-4 03 . ... : ... .. . ... : ... .. . ...
ROW 39 : ... .. E ... : ... .. . ... : --- .. . ... : ... .. . ... : ... .. . ...
ROW 3A : ... .. F ... : ... .. . ... : ... .. . ... : ... .. . ... : ... .. . ...
ROW 3B : ... .. . ... : ... .. . ... : ... .. . ... : ... .. . ... : ... .. . ...
ROW 3C : ... .. . ... : ... .. . ... : C#2 00 . ... : ... .. . ... : ... .. . ...
ROW 3D : ... .. . ... : ... .. . ... : ... .. . S0E : ... .. . ... : ... .. . ...
ROW 3E : ... .. . ... : ... .. . ... : ... .. . ... : ... .. . ... : ... .. . ...
ROW 3F : ... .. . ... : ... .. . ... : ... .. . ... : ... .. . ... : ... .. . ...

PATTERN 1D
ROW 00 : A-2 22 E ... : C#1 08 C V02 : ... .. . ... : ... .. . ... : ... .. . ...
ROW 01 : ... .. F ... : ... .. D ... : ... .. . ... : ... .. . ... : ... .. . ...
ROW 02 : ... .. . ... : ... .. F ... : ... .. . ... : ... .. . ... : ... .. . ...
ROW 03 : ... .. . ... : === .. . ... : ... .. . ... : ... .. . ... : ... .. . ...
ROW 04 : ... .. . ... : C#1 08 . V01 : ... .. . ... : ... .. . ... : ... .. . ...
ROW 05 : ... .. . ... : ... .. . ... : ... .. . ... : ... .. . ... : ... .. . ...
ROW 06 : ... .. . ... : ... .. . ... : ... .. . ... : ... .. . ... : ... .. . ...
ROW 07 : ... .. . ... : === .. . ... : C-5 02 . S08 : ... .. . ... : ... .. . ...
ROW 08 : ... .. D ... : C#1 08 B V00 : ... .. . ... : ... .. . ... : ... .. . ...
ROW 09 : ... .. E ... : ... .. D ... : ... .. . ... : ... .. . ... : ... .. . ...
ROW 0A : ... .. F ... : ... .. E ... : C-4 03 . G03 : ... .. . ... : ... .. . ...
ROW 0B : ... .. . ... : === .. F ... : ... .. . S05 : ... .. . ... : ... .. . ...
ROW 0C : ... .. . ... : C#1 08 . V02 : ... .. . ... : ... .. . ... : ... .. . ...
ROW 0D : ... .. . ... : ... .. . ... : ... .. . ... : ... .. . ... : ... .. . ...
ROW 0E : ... .. . ... : ... .. . ... : C-4 03 . S08 : ... .. . ... : ... .. . ...
ROW 0F : ... .. . ... : === .. . ... : ... .. . ... : ... .. . ... : ... .. . ...
ROW 10 : ... .. E ... : C#1 08 . V00 : ... .. . ... : ... .. . ... : ... .. . ...
ROW 11 : ... .. F ... : ... .. . ... : C-4 03 . G03 : ... .. . ... : ... .. . ...
ROW 12 : ... .. . ... : ... .. . ... : ... .. . S05 : ... .. . ... : ... .. . ...
ROW 13 : ... .. . ... : === .. . ... : ... .. . ... : ... .. . ... : ... .. . ...
ROW 14 : ... .. . ... : C#1 08 C V01 : ... .. . ... : ... .. . ... : ... .. . ...
ROW 15 : ... .. . ... : ... .. D ... : ... .. . ... : ... .. . ... : ... .. . ...
ROW 16 : ... .. . ... : ... .. F ... : ... .. . ... : ... .. . ... : ... .. . ...
ROW 17 : G#2 22 D GFF : === .. . ... : ... .. . ... : ... .. . ... : ... .. . ...
ROW 18 : A-2 22 . G05 : C#1 08 B V02 : ... .. . ... : ... .. . ... : ... .. . ...
ROW 19 : ... .. E ... : ... .. D ... : ... .. . ... : ... .. . ... : ... .. . ...
ROW 1A : ... .. F ... : ... .. E ... : ... .. . ... : ... .. . ... : ... .. . ...
ROW 1B : ... .. . ... : === .. F ... : ... .. . ... : ... .. . ... : ... .. . ...
ROW 1C : G#2 22 . ... : C#1 08 . V00 : ... .. . ... : ... .. . ... : ... .. . ...
ROW 1D : ... .. . ... : ... .. . ... : ... .. . ... : ... .. . ... : ... .. . ...
ROW 1E : ... .. . ... : ... .. . ... : ... .. . ... : ... .. . ... : ... .. . ...
ROW 1F : ... .. . ... : === .. . ... : ... .. . ... : ... .. . ... : ... .. . ...
ROW 20 : ... .. E ... : D-1 08 C V02 : ... .. . ... : ... .. . ... : ... .. . ...
ROW 21 : ... .. F ... : ... .. D ... : ... .. . ... : ... .. . ... : ... .. . ...
ROW 22 : ... .. . ... : ... .. F ... : ... .. . ... : ... .. . ... : ... .. . ...
ROW 23 : ... .. . ... : === .. . ... : ... .. . ... : ... .. . ... : ... .. . ...
ROW 24 : ... .. . ... : D-1 08 . V01 : ... .. . ... : ... .. . ... : ... .. . ...
ROW 25 : ... .. . ... : ... .. . ... : ... .. . ... : ... .. . ... : ... .. . ...
ROW 26 : ... .. . ... : ... .. . ... : ... .. . ... : ... .. . ... : ... .. . ...
ROW 27 : ... .. . ... : === .. . ... : ... .. . ... : ... .. . ... : ... .. . ...
ROW 28 : ... .. D ... : D-1 08 B V00 : ... .. . ... : ... .. . ... : ... .. . ...
ROW 29 : ... .. E ... : ... .. D ... : ... .. . ... : ... .. . ... : ... .. . ...
ROW 2A : ... .. F ... : ... .. E ... : ... .. . ... : ... .. . ... : ... .. . ...
ROW 2B : ... .. . ... : === .. F ... : ... .. . ... : ... .. . ... : ... .. . ...
ROW 2C : ... .. . ... : D-1 08 . V02 : ... .. . ... : ... .. . ... : ... .. . ...
ROW 2D : ... .. . ... : ... .. . ... : ... .. . ... : ... .. . ... : ... .. . ...
ROW 2E : ... .. . ... : ... .. . ... : ... .. . ... : ... .. . ... : ... .. . ...
ROW 2F : ... .. . ... : === .. . ... : ... .. . ... : ... .. . ... : ... .. . ...
ROW 30 : ... .. E ... : D-1 08 . V00 : ... .. . ... : ... .. . ... : ... .. . ...
ROW 31 : ... .. F ... : ... .. . ... : ... .. . ... : ... .. . ... : ... .. . ...
ROW 32 : ... .. . ... : ... .. . ... : ... .. . ... : ... .. . ... : ... .. . ...
ROW 33 : ... .. . ... : === .. . ... : ... .. . ... : ... .. . ... : ... .. . ...
ROW 34 : C#1 0D . P90 : D-2 08 C V02 : ... .. . ... : ... .. . ... : ... .. . ...
ROW 35 : ... .. . ... : ... .. D ... : ... .. . ... : ... .. . ... : ... .. . ...
ROW 36 : ... .. . ... : ... .. F V01 : ... .. . ... : ... .. . ... : ... .. . ...
ROW 37 : ... .. . ... : === .. . ... : ... .. . ... : ... .. . ... : ... .. . ...
ROW 38 : C#2 0D . P88 : D-1 08 B V00 : ... .. . ... : ... .. . ... : ... .. . ...
ROW 39 : ... .. . ... : ... .. D ... : ... .. . ... : ... .. . ... : ... .. . ...
ROW 3A : ... .. . ... : ... .. E ... : ... .. . ... : ... .. . ... : ... .. . ...
ROW 3B : ... .. . ... : === .. F ... : ... .. . ... : ... .. . ... : ... .. . ...
ROW 3C : C#1 0D . P90 : D-2 08 . V02 : ... .. . ... : ... .. . ... : ... .. . ...
ROW 3D : ... .. . ... : ... .. . ... : ... .. . ... : ... .. . ... : ... .. . ...
ROW 3E : ... .. . ... : ... .. . V01 : ... .. . ... : ... .. . ... : ... .. . ...
ROW 3F : ... .. . ... : === .. . ... : ... .. . ... : ... .. . ... : ... .. . ...

PATTERN 1E
ROW 00 : D#2 0D D ... : D#2 08 C V02 : C-5 02 . ... : ... .. . ... : ... .. . ...
ROW 01 : ... .. F ... : ... .. D ... : C#2 00 . S0E : ... .. . ... : ... .. . ...
ROW 02 : ... .. . ... : ... .. F ... : ... .. . ... : ... .. . ... : ... .. . ...
ROW 03 : ... .. . ... : === .. . ... : ... .. . ... : ... .. . ... : ... .. . ...
ROW 04 : ... .. . ... : D#1 08 . ... : C#2 01 . ... : ... .. . ... : ... .. . ...
ROW 05 : ... .. . ... : ... .. . ... : ... .. . S0E : ... .. . ... : ... .. . ...
ROW 06 : ... .. . ... : ... .. . ... : ... .. . ... : ... .. . ... : ... .. . ...
ROW 07 : ... .. . ... : ... .. . ... : ... .. . ... : ... .. . ... : ... .. . ...
ROW 08 : ... .. . ... : ... .. B ... : C-4 03 . ... : ... .. . ... : ... .. . ...
ROW 09 : ... .. . ... : ... .. D ... : C#2 00 . S0E : ... .. . ... : ... .. . ...
ROW 0A : ... .. . ... : ... .. E ... : ... .. . ... : ... .. . ... : ... .. . ...
ROW 0B : ... .. . ... : === .. F ... : ... .. . ... : ... .. . ... : ... .. . ...
ROW 0C : E-2 0E . ... : D#1 08 . ... : C#2 01 . ... : ... .. . ... : ... .. . ...
ROW 0D : ... .. . ... : ... .. . ... : ... .. . S0E : ... .. . ... : ... .. . ...
ROW 0E : ... .. . ... : ... .. . ... : ... .. . ... : ... .. . ... : ... .. . ...
ROW 0F : ... .. . ... : ... .. . ... : ... .. . ... : ... .. . ... : ... .. . ...
ROW 10 : G-2 0D . ... : ... .. . ... : C#2 01 . ... : ... .. . ... : ... .. . ...
ROW 11 : ... .. . ... : ... .. . ... : ... .. . S0E : ... .. . ... : ... .. . ...
ROW 12 : ... .. . ... : ... .. . ... : ... .. . ... : ... .. . ... : ... .. . ...
ROW 13 : ... .. . ... : === .. . ... : ... .. . ... : ... .. . ... : ... .. . ...
ROW 14 : ... .. . ... : D#1 08 C ... : C-5 02 . ... : ... .. . ... : ... .. . ...
ROW 15 : ... .. . ... : ... .. D ... : C#2 00 . S0E : ... .. . ... : ... .. . ...
ROW 16 : ... .. . ... : === .. F ... : ... .. . ... : ... .. . ... : ... .. . ...
ROW 17 : ... .. . ... : ... .. . ... : ... .. . ... : ... .. . ... : ... .. . ...
ROW 18 : ... .. . ... : D#1 08 B ... : C-4 03 . ... : ... .. . ... : ... .. . ...
ROW 19 : ... .. . ... : ... .. D ... : C#2 00 . S0E : ... .. . ... : ... .. . ...
ROW 1A : ... .. . ... : ... .. E ... : ... .. . ... : ... .. . ... : ... .. . ...
ROW 1B : ... .. . ... : === .. F ... : ... .. . ... : ... .. . ... : ... .. . ...
ROW 1C : G#2 0E . ... : C#1 08 . ... : C#2 01 . ... : ... .. . ... : ... .. . ...
ROW 1D : ... .. . ... : ... .. . ... : ... .. . S0E : ... .. . ... : ... .. . ...
ROW 1E : ... .. . ... : ... .. . ... : ... .. . ... : ... .. . ... : ... .. . ...
ROW 1F : ... .. . ... : === .. . ... : ... .. . ... : ... .. . ... : ... .. . ...
ROW 20 : A#2 0D . ... : D#1 08 B ... : C-5 02 . ... : ... .. . ... : ... .. . ...
ROW 21 : ... .. . ... : ... .. D ... : D-2 00 . ... : ... .. . ... : ... .. . ...
ROW 22 : ... .. . ... : === .. E ... : G-4 10 . ... : ... .. . ... : ... .. . ...
ROW 23 : ... .. . ... : ... .. F ... : --- .. . ... : ... .. . ... : ... .. . ...
ROW 24 : ... .. . ... : D#1 08 A ... : C-4 10 . ... : ... .. . ... : ... .. . ...
ROW 25 : ... .. . ... : ... .. . ... : ... .. . ... : ... .. . ... : ... .. . ...
ROW 26 : ... .. . ... : === .. . ... : D-2 00 . S06 : ... .. . ... : ... .. . ...
ROW 27 : ... .. . ... : ... .. . ... : ... .. . ... : ... .. . ... : ... .. . ...
ROW 28 : ... .. . ... : D#1 08 6 ... : C-4 04 . ... : ... .. . ... : ... .. . ...
ROW 29 : ... .. . ... : ... .. . ... : D-2 00 . S0E : ... .. . ... : ... .. . ...
ROW 2A : ... .. . ... : === .. . ... : ... .. . ... : ... .. . ... : ... .. . ...
ROW 2B : ... .. . ... : ... .. . ... : ... .. . ... : ... .. . ... : ... .. . ...
ROW 2C : D-3 0E . ... : D#1 08 3 ... : C-5 02 . ... : ... .. . ... : ... .. . ...
ROW 2D : ... .. . ... : ... .. . ... : D-2 00 . ... : ... .. . ... : ... .. . ...
ROW 2E : ... .. . ... : === .. . ... : G-4 10 . ... : ... .. . ... : ... .. . ...
ROW 2F : ... .. . ... : ... .. . ... : --- .. . ... : ... .. . ... : ... .. . ...
ROW 30 : D#3 0D . ... : ... .. . ... : C-4 10 . ... : ... .. . ... : ... .. . ...
ROW 31 : ... .. . ... : ... .. . ... : ... .. . ... : ... .. . ... : ... .. . ...
ROW 32 : ... .. . ... : ... .. . ... : D-2 00 . S06 : ... .. . ... : ... .. . ...
ROW 33 : ... .. . ... : ... .. . ... : ... .. . ... : ... .. . ... : ... .. . ...
ROW 34 : ... .. . ... : ... .. . ... : C-5 02 . ... : ... .. . ... : ... .. . ...
ROW 35 : ... .. . ... : ... .. . ... : D-3 00 . S0E : ... .. . ... : ... .. . ...
ROW 36 : ... .. . ... : ... .. . ... : ... .. . ... : ... .. . ... : ... .. . ...
ROW 37 : ... .. . ... : ... .. . ... : ... .. . ... : ... .. . ... : ... .. . ...
ROW 38 : ... .. . ... : ... .. . ... : C-5 10 . ... : ... .. . ... : ... .. . ...
ROW 39 : ... .. . ... : ... .. . ... : D-2 00 . ... : ... .. . ... : ... .. . ...
ROW 3A : ... .. . ... : ... .. . ... : C-5 10 . ... : ... .. . ... : ... .. . ...
ROW 3B : ... .. . ... : ... .. . ... : D-2 00 . ... : ... .. . ... : ... .. . ...
ROW 3C : B-2 0E . ... : ... .. . ... : F-4 10 . ... : ... .. . ... : ... .. . ...
ROW 3D : ... .. . ... : ... .. . ... : D-3 00 . G02 : ... .. . ... : ... .. . ...
ROW 3E : ... .. . ... : ... .. . ... : ... .. . S08 : ... .. . ... : ... .. . ...
ROW 3F : ... .. . ... : ... .. . ... : ... .. . ... : ... .. . ... : ... .. . ...

PATTERN 1F
ROW 00 : A#2 0D D ... : ... .. . ... : C-5 02 . ... : ... .. . ... : ... .. . ...
ROW 01 : ... .. F ... : ... .. . ... : D#3 00 . S0E : ... .. . ... : ... .. . ...
ROW 02 : ... .. . ... : ... .. . ... : ... .. . ... : ... .. . ... : ... .. . ...
ROW 03 : ... .. . ... : ... .. . ... : ... .. . ... : ... .. . ... : ... .. . ...
ROW 04 : ... .. . ... : ... .. . ... : D#2 00 . ... : ... .. . ... : ... .. . ...
ROW 05 : ... .. . ... : ... .. . ... : ... .. . ... : ... .. . ... : ... .. . ...
ROW 06 : ... .. . ... : ... .. . ... : ... .. . ... : ... .. . ... : ... .. . ...
ROW 07 : ... .. . ... : ... .. . ... : ... .. . ... : ... .. . ... : ... .. . ...
ROW 08 : ... .. . ... : ... .. . ... : C-4 03 . 400 : ... .. . ... : ... .. . ...
ROW 09 : ... .. . ... : ... .. . ... : D#2 00 . S0E : ... .. . ... : ... .. . ...
ROW 0A : ... .. . ... : ... .. . ... : ... .. . ... : ... .. . ... : ... .. . ...
ROW 0B : ... .. . ... : ... .. . ... : ... .. . ... : ... .. . ... : ... .. . ...
ROW 0C : G#2 0E . ... : ... .. . ... : D#2 00 . ... : ... .. . ... : ... .. . ...
ROW 0D : ... .. . ... : ... .. . ... : ... .. . ... : ... .. . ... : ... .. . ...
ROW 0E : ... .. . ... : ... .. . ... : ... .. . ... : ... .. . ... : ... .. . ...
ROW 0F : ... .. . ... : ... .. . ... : ... .. . ... : ... .. . ... : ... .. . ...
ROW 10 : G-2 0D . ... : ... .. . ... : ... .. . ... : ... .. . ... : ... .. . ...
ROW 11 : ... .. . ... : ... .. . ... : ... .. . S0E : ... .. . ... : ... .. . ...
ROW 12 : ... .. . ... : ... .. . ... : ... .. . ... : ... .. . ... : ... .. . ...
ROW 13 : ... .. . ... : ... .. . ... : ... .. . ... : ... .. . ... : ... .. . ...
ROW 14 : ... .. . ... : ... .. . ... : C-5 02 . ... : ... .. . ... : ... .. . ...
ROW 15 : ... .. . ... : ... .. . ... : D#2 00 . S06 : ... .. . ... : ... .. . ...
ROW 16 : ... .. . ... : ... .. . ... : ... .. . ... : ... .. . ... : ... .. . ...
ROW 17 : ... .. . ... : ... .. . ... : ... .. . ... : ... .. . ... : ... .. . ...
ROW 18 : ... .. . ... : ... .. . ... : C-4 03 . ... : ... .. . ... : ... .. . ...
ROW 19 : ... .. . ... : ... .. . ... : D#2 00 . S0E : ... .. . ... : ... .. . ...
ROW 1A : ... .. . ... : ... .. . ... : ... .. . ... : ... .. . ... : ... .. . ...
ROW 1B : ... .. . ... : ... .. . ... : ... .. . ... : ... .. . ... : ... .. . ...
ROW 1C : E-2 0E . ... : ... .. . ... : C#2 00 . S0E : ... .. . ... : ... .. . ...
ROW 1D : ... .. . ... : ... .. . ... : ... .. . ... : ... .. . ... : ... .. . ...
ROW 1E : ... .. . ... : ... .. . ... : ... .. . ... : ... .. . ... : ... .. . ...
ROW 1F : ... .. . ... : ... .. . ... : ... .. . ... : ... .. . ... : ... .. . ...
ROW 20 : D#2 0D . ... : ... .. . ... : C-5 02 . ... : ... .. . ... : ... .. . ...
ROW 21 : ... .. . ... : ... .. . ... : D#2 00 . S0E : ... .. . ... : ... .. . ...
ROW 22 : ... .. . ... : ... .. . ... : ... .. . ... : ... .. . ... : ... .. . ...
ROW 23 : ... .. . ... : ... .. . ... : ... .. . ... : ... .. . ... : ... .. . ...
ROW 24 : ... .. . ... : ... .. . ... : ... .. . ... : ... .. . ... : ... .. . ...
ROW 25 : ... .. . ... : ... .. . ... : ... .. . ... : ... .. . ... : ... .. . ...
ROW 26 : ... .. . ... : ... .. . ... : ... .. . ... : ... .. . ... : ... .. . ...
ROW 27 : ... .. . ... : ... .. . ... : ... .. . ... : ... .. . ... : ... .. . ...
ROW 28 : ... .. . ... : ... .. . ... : ... .. . ... : ... .. . ... : ... .. . ...
ROW 29 : ... .. . ... : ... .. . ... : ... .. . ... : ... .. . ... : ... .. . ...
ROW 2A : ... .. . ... : ... .. . ... : ... .. . ... : ... .. . ... : ... .. . ...
ROW 2B : ... .. . ... : ... .. . ... : ... .. . ... : ... .. . ... : ... .. . ...
ROW 2C : G#1 0E . ... : ... .. . ... : ... .. . ... : ... .. . ... : ... .. . ...
ROW 2D : ... .. . ... : ... .. . ... : ... .. . ... : ... .. . ... : ... .. . ...
ROW 2E : ... .. . ... : ... .. . ... : ... .. . ... : ... .. . ... : ... .. . ...
ROW 2F : ... .. . ... : ... .. . ... : ... .. . ... : ... .. . ... : ... .. . ...
ROW 30 : A#2 0D . ... : ... .. . ... : ... .. . ... : ... .. . ... : ... .. . ...
ROW 31 : ... .. . ... : ... .. . ... : ... .. . ... : ... .. . ... : ... .. . ...
ROW 32 : ... .. . ... : ... .. . ... : ... .. . ... : ... .. . ... : ... .. . ...
ROW 33 : ... .. . ... : ... .. . ... : ... .. . ... : ... .. . ... : ... .. . ...
ROW 34 : ... .. . ... : ... .. . ... : ... .. . ... : ... .. . ... : ... .. . ...
ROW 35 : ... .. . ... : ... .. . ... : ... .. . ... : ... .. . ... : ... .. . ...
ROW 36 : ... .. . ... : ... .. . ... : ... .. . ... : ... .. . ... : ... .. . ...
ROW 37 : ... .. . ... : ... .. . ... : ... .. . ... : ... .. . ... : ... .. . ...
ROW 38 : ... .. . ... : ... .. . ... : ... .. . ... : ... .. . ... : ... .. . ...
ROW 39 : ... .. . ... : ... .. . ... : ... .. . ... : ... .. . ... : ... .. . ...
ROW 3A : ... .. . ... : ... .. . ... : ... .. . ... : ... .. . ... : ... .. . ...
ROW 3B : ... .. . ... : ... .. . ... : ... .. . ... : ... .. . ... : ... .. . ...
ROW 3C : B-2 0E . ... : ... .. . ... : ... .. . ... : ... .. . ... : ... .. . ...
ROW 3D : ... .. . ... : ... .. . ... : ... .. . ... : ... .. . ... : ... .. . ...
ROW 3E : ... .. . ... : ... .. . ... : ... .. . ... : ... .. . ... : ... .. . ...
ROW 3F : ... .. . ... : ... .. . ... : ... .. . ... : ... .. . ... : ... .. . ...

PATTERN 20
ROW 00 : B-2 0E F ... : ... .. . ... : ... .. . ... : ... .. . ... : ... .. . ...
ROW 01 : ... .. 5 G03 : ... .. . ... : ... .. . ... : ... .. . ... : ... .. . ...
ROW 02 : ... .. . ... : ... .. . ... : ... .. . ... : ... .. . ... : ... .. . ...
ROW 03 : B-2 0E F G03 : ... .. . ... : ... .. . ... : ... .. . ... : ... .. . ...
ROW 04 : ... .. . ... : ... .. . ... : ... .. . ... : ... .. . ... : ... .. . ...
ROW 05 : ... .. 6 G01 : ... .. . ... : ... .. . ... : ... .. . ... : ... .. . ...
ROW 06 : ... .. . ... : ... .. . ... : ... .. . ... : ... .. . ... : ... .. . ...
ROW 07 : B-2 0E F ... : ... .. . ... : ... .. . ... : ... .. . ... : ... .. . ...
ROW 08 : ... .. 7 G03 : ... .. . ... : ... .. . ... : ... .. . ... : ... .. . ...
ROW 09 : ... .. . ... : ... .. . ... : ... .. . ... : ... .. . ... : ... .. . ...
ROW 0A : B-2 0E D G03 : ... .. . ... : ... .. . ... : ... .. . ... : ... .. . ...
ROW 0B : ... .. F ... : ... .. . ... : ... .. . ... : ... .. . ... : ... .. . ...
ROW 0C : ... .. 8 G01 : ... .. . ... : ... .. . ... : ... .. . ... : ... .. . ...
ROW 0D : ... .. . ... : ... .. . ... : ... .. . ... : ... .. . ... : ... .. . ...
ROW 0E : B-2 0E D ... : ... .. . ... : ... .. . ... : ... .. . ... : ... .. . ...
ROW 0F : ... .. 9 G03 : ... .. . ... : ... .. . ... : ... .. . ... : ... .. . ...
ROW 10 : ... .. . ... : ... .. . ... : ... .. . ... : ... .. . ... : ... .. . ...
ROW 11 : B-2 0E D G03 : ... .. . ... : ... .. . ... : ... .. . ... : ... .. . ...
ROW 12 : ... .. F ... : ... .. . ... : ... .. . ... : ... .. . ... : ... .. . ...
ROW 13 : ... .. A G01 : ... .. . ... : ... .. . ... : ... .. . ... : ... .. . ...
ROW 14 : ... .. . ... : ... .. . ... : ... .. . ... : ... .. . ... : ... .. . ...
ROW 15 : ... .. . ... : ... .. . ... : ... .. . ... : ... .. . ... : ... .. . ...
ROW 16 : ... .. . ... : ... .. . ... : ... .. . ... : ... .. . ... : ... .. . ...
ROW 17 : ... .. . ... : ... .. . ... : ... .. . ... : ... .. . ... : ... .. . ...
ROW 18 : ... .. . ... : ... .. . ... : ... .. . ... : ... .. . ... : ... .. . ...
ROW 19 : ... .. . ... : ... .. . ... : ... .. . ... : ... .. . ... : ... .. . ...
ROW 1A : ... .. . ... : ... .. . ... : ... .. . ... : ... .. . ... : ... .. . ...
ROW 1B : ... .. . ... : ... .. . ... : ... .. . ... : ... .. . ... : ... .. . ...
ROW 1C : ... .. . ... : ... .. . ... : ... .. . ... : ... .. . ... : ... .. . ...
ROW 1D : ... .. . ... : ... .. . ... : ... .. . ... : ... .. . ... : ... .. . ...
ROW 1E : ... .. . ... : ... .. . ... : ... .. . ... : ... .. . ... : ... .. . ...
ROW 1F : ... .. . ... : ... .. . ... : ... .. . ... : ... .. . ... : ... .. . ...
ROW 20 : ... .. . ... : ... .. . ... : ... .. . ... : ... .. . ... : ... .. . ...
ROW 21 : ... .. . ... : ... .. . ... : ... .. . ... : ... .. . ... : ... .. . ...
ROW 22 : ... .. . ... : ... .. . ... : ... .. . ... : ... .. . ... : ... .. . ...
ROW 23 : ... .. . ... : ... .. . ... : ... .. . ... : ... .. . ... : ... .. . ...
ROW 24 : ... .. . ... : ... .. . ... : ... .. . ... : ... .. . ... : ... .. . ...
ROW 25 : ... .. . ... : ... .. . ... : ... .. . ... : ... .. . ... : ... .. . ...
ROW 26 : ... .. . ... : ... .. . ... : ... .. . ... : ... .. . ... : ... .. . ...
ROW 27 : ... .. . ... : ... .. . ... : ... .. . ... : ... .. . ... : ... .. . ...
ROW 28 : ... .. . ... : ... .. . ... : ... .. . ... : ... .. . ... : ... .. . ...
ROW 29 : ... .. . ... : ... .. . ... : ... .. . ... : ... .. . ... : ... .. . ...
ROW 2A : ... .. . ... : ... .. . ... : ... .. . ... : ... .. . ... : ... .. . ...
ROW 2B : ... .. . ... : ... .. . ... : ... .. . ... : ... .. . ... : ... .. . ...
ROW 2C : ... .. . ... : ... .. . ... : ... .. . ... : ... .. . ... : ... .. . ...
ROW 2D : ... .. . ... : ... .. . ... : ... .. . ... : ... .. . ... : ... .. . ...
ROW 2E : ... .. . ... : ... .. . ... : ... .. . ... : ... .. . ... : ... .. . ...
ROW 2F : ... .. . ... : ... .. . ... : ... .. . ... : ... .. . ... : ... .. . ...
ROW 30 : ... .. . ... : ... .. . ... : ... .. . ... : ... .. . ... : ... .. . ...
ROW 31 : ... .. . ... : ... .. . ... : ... .. . ... : ... .. . ... : ... .. . ...
ROW 32 : ... .. . ... : ... .. . ... : ... .. . ... : ... .. . ... : ... .. . ...
ROW 33 : ... .. . ... : ... .. . ... : ... .. . ... : ... .. . ... : ... .. . ...
ROW 34 : ... .. . ... : ... .. . ... : ... .. . ... : ... .. . ... : ... .. . ...
ROW 35 : ... .. . ... : ... .. . ... : ... .. . ... : ... .. . ... : ... .. . ...
ROW 36 : ... .. . ... : ... .. . ... : ... .. . ... : ... .. . ... : ... .. . ...
ROW 37 : ... .. . ... : ... .. . ... : ... .. . ... : ... .. . ... : ... .. . ...
ROW 38 : ... .. . ... : ... .. . ... : ... .. . ... : ... .. . ... : ... .. . ...
ROW 39 : ... .. . ... : ... .. . ... : ... .. . ... : ... .. . ... : ... .. . ...
ROW 3A : ... .. . ... : ... .. . ... : ... .. . ... : ... .. . ... : ... .. . ...
ROW 3B : ... .. . ... : ... .. . ... : ... .. . ... : ... .. . ... : ... .. . ...
ROW 3C : ... .. . ... : ... .. . ... : ... .. . ... : ... .. . ... : ... .. . ...
ROW 3D : ... .. . ... : ... .. . ... : ... .. . ... : ... .. . ... : ... .. . ...
ROW 3E : ... .. . ... : ... .. . ... : ... .. . ... : ... .. . ... : ... .. . ...
ROW 3F : ... .. . ... : ... .. . ... : ... .. . ... : ... .. . ... : ... .. . ...

PATTERN 21
ROW 00 : F-3 1A E ... : ... .. . ... : ... .. . ... : ... .. . ... : ... .. . ...
ROW 01 : ... .. F ... : ... .. . ... : ... .. . ... : ... .. . ... : ... .. . ...
ROW 02 : ... .. . ... : ... .. . ... : ... .. . ... : ... .. . ... : ... .. . ...
ROW 03 : ... .. . ... : ... .. . ... : ... .. . ... : ... .. . ... : ... .. . ...
ROW 04 : ... .. . 426 : ... .. . ... : ... .. . ... : ... .. . ... : ... .. . ...
ROW 05 : ... .. . ... : ... .. . ... : ... .. . ... : ... .. . ... : ... .. . ...
ROW 06 : ... .. . ... : ... .. . ... : ... .. . ... : ... .. . ... : ... .. . ...
ROW 07 : ... .. . ... : ... .. . ... : ... .. . ... : ... .. . ... : ... .. . ...
ROW 08 : ... .. D 436 : ... .. . ... : ... .. . ... : ... .. . ... : ... .. . ...
ROW 09 : ... .. E ... : ... .. . ... : ... .. . ... : ... .. . ... : ... .. . ...
ROW 0A : ... .. F ... : ... .. . ... : ... .. . ... : ... .. . ... : ... .. . ...
ROW 0B : ... .. . ... : ... .. . ... : ... .. . ... : ... .. . ... : ... .. . ...
ROW 0C : ... .. . 446 : ... .. . ... : ... .. . ... : ... .. . ... : ... .. . ...
ROW 0D : ... .. . A01 : ... .. . ... : ... .. . ... : ... .. . ... : ... .. . ...
ROW 0E : ... .. . ... : ... .. . ... : ... .. . ... : ... .. . ... : ... .. . ...
ROW 0F : ... .. . ... : ... .. . ... : ... .. . ... : ... .. . ... : ... .. . ...
ROW 10 : ... .. . 467 : ... .. . ... : ... .. . ... : ... .. . ... : ... .. . ...
ROW 11 : ... .. . ... : ... .. . ... : ... .. . ... : ... .. . ... : ... .. . ...
ROW 12 : ... .. . 477 : ... .. . ... : ... .. . ... : ... .. . ... : ... .. . ...
ROW 13 : ... .. . ... : ... .. . ... : ... .. . ... : ... .. . ... : ... .. . ...
ROW 14 : ... .. . 488 : ... .. . ... : ... .. . ... : ... .. . ... : ... .. . ...
ROW 15 : ... .. . ... : ... .. . ... : ... .. . ... : ... .. . ... : ... .. . ...
ROW 16 : ... .. . 498 : ... .. . ... : ... .. . ... : ... .. . ... : ... .. . ...
ROW 17 : ... .. . ... : ... .. . ... : ... .. . ... : ... .. . ... : ... .. . ...
ROW 18 : ... .. . 4A9 : ... .. . ... : ... .. . ... : ... .. . ... : ... .. . ...
ROW 19 : ... .. . ... : ... .. . ... : ... .. . ... : ... .. . ... : ... .. . ...
ROW 1A : ... .. . 4B9 : ... .. . ... : ... .. . ... : ... .. . ... : ... .. . ...
ROW 1B : ... .. . ... : ... .. . ... : ... .. . ... : ... .. . ... : ... .. . ...
ROW 1C : ... .. . 4CA : ... .. . ... : ... .. . ... : ... .. . ... : ... .. . ...
ROW 1D : ... .. . ... : ... .. . ... : ... .. . ... : ... .. . ... : ... .. . ...
ROW 1E : ... .. . 4DA : ... .. . ... : ... .. . ... : ... .. . ... : ... .. . ...
ROW 1F : === .. . 400 : ... .. . ... : ... .. . ... : ... .. . ... : ... .. . ...
ROW 20 : D-3 1A E A00 : ... .. . ... : ... .. . ... : ... .. . ... : ... .. . ...
ROW 21 : ... .. F ... : ... .. . ... : ... .. . ... : ... .. . ... : ... .. . ...
ROW 22 : ... .. . ... : ... .. . ... : ... .. . ... : ... .. . ... : ... .. . ...
ROW 23 : ... .. . ... : ... .. . ... : ... .. . ... : ... .. . ... : ... .. . ...
ROW 24 : ... .. . 426 : ... .. . ... : ... .. . ... : ... .. . ... : ... .. . ...
ROW 25 : ... .. . ... : ... .. . ... : ... .. . ... : ... .. . ... : ... .. . ...
ROW 26 : ... .. . ... : ... .. . ... : ... .. . ... : ... .. . ... : ... .. . ...
ROW 27 : ... .. . ... : ... .. . ... : ... .. . ... : ... .. . ... : ... .. . ...
ROW 28 : ... .. D 436 : ... .. . ... : ... .. . ... : ... .. . ... : ... .. . ...
ROW 29 : ... .. E ... : ... .. . ... : ... .. . ... : ... .. . ... : ... .. . ...
ROW 2A : ... .. F ... : ... .. . ... : ... .. . ... : ... .. . ... : ... .. . ...
ROW 2B : ... .. . ... : ... .. . ... : ... .. . ... : ... .. . ... : ... .. . ...
ROW 2C : ... .. . 446 : ... .. . ... : ... .. . ... : ... .. . ... : ... .. . ...
ROW 2D : ... .. . A01 : ... .. . ... : ... .. . ... : ... .. . ... : ... .. . ...
ROW 2E : ... .. . ... : ... .. . ... : ... .. . ... : ... .. . ... : ... .. . ...
ROW 2F : ... .. . ... : ... .. . ... : ... .. . ... : ... .. . ... : ... .. . ...
ROW 30 : ... .. . 467 : ... .. . ... : ... .. . ... : ... .. . ... : ... .. . ...
ROW 31 : ... .. . ... : ... .. . ... : ... .. . ... : ... .. . ... : ... .. . ...
ROW 32 : ... .. . 477 : ... .. . ... : ... .. . ... : ... .. . ... : ... .. . ...
ROW 33 : ... .. . ... : ... .. . ... : ... .. . ... : ... .. . ... : ... .. . ...
ROW 34 : ... .. . 488 : ... .. . ... : ... .. . ... : ... .. . ... : ... .. . ...
ROW 35 : ... .. . ... : ... .. . ... : ... .. . ... : ... .. . ... : ... .. . ...
ROW 36 : ... .. . 498 : ... .. . ... : ... .. . ... : ... .. . ... : ... .. . ...
ROW 37 : ... .. . ... : ... .. . ... : ... .. . ... : ... .. . ... : ... .. . ...
ROW 38 : ... .. . 4A9 : ... .. . ... : ... .. . ... : ... .. . ... : ... .. . ...
ROW 39 : ... .. . ... : ... .. . ... : ... .. . ... : ... .. . ... : ... .. . ...
ROW 3A : ... .. . 4B9 : ... .. . ... : ... .. . ... : ... .. . ... : ... .. . ...
ROW 3B : ... .. . ... : ... .. . ... : ... .. . ... : ... .. . ... : ... .. . ...
ROW 3C : ... .. . 4CA : ... .. . ... : ... .. . ... : ... .. . ... : ... .. . ...
ROW 3D : ... .. . ... : ... .. . ... : ... .. . ... : ... .. . ... : ... .. . ...
ROW 3E : ... .. . 4DA : ... .. . ... : ... .. . ... : ... .. . ... : ... .. . ...
ROW 3F : === .. . A00 : ... .. . ... : ... .. . ... : ... .. . ... : ... .. . ...

PATTERN 22
ROW 00 : D#4 1A B 400 : ... .. . ... : ... .. . ... : ... .. . ... : ... .. . ...
ROW 01 : ... .. C ... : ... .. . ... : ... .. . ... : ... .. . ... : ... .. . ...
ROW 02 : ... .. E ... : ... .. . ... : ... .. . ... : ... .. . ... : ... .. . ...
ROW 03 : ... .. F ... : ... .. . ... : ... .. . ... : ... .. . ... : ... .. . ...
ROW 04 : ... .. . ... : ... .. . ... : ... .. . ... : ... .. . ... : ... .. . ...
ROW 05 : ... .. . ... : ... .. . ... : ... .. . ... : ... .. . ... : ... .. . ...
ROW 06 : ... .. . ... : ... .. . ... : ... .. . ... : ... .. . ... : ... .. . ...
ROW 07 : ... .. . ... : ... .. . ... : ... .. . ... : ... .. . ... : ... .. . ...
ROW 08 : ... .. D 425 : ... .. . ... : ... .. . ... : ... .. . ... : ... .. . ...
ROW 09 : ... .. E ... : ... .. . ... : ... .. . ... : ... .. . ... : ... .. . ...
ROW 0A : ... .. F ... : ... .. . ... : ... .. . ... : ... .. . ... : ... .. . ...
ROW 0B : ... .. . ... : ... .. . ... : ... .. . ... : ... .. . ... : ... .. . ...
ROW 0C : === 1F . ... : ... .. . ... : ... .. . ... : ... .. . ... : ... .. . ...
ROW 0D : ... .. . ... : ... .. . ... : ... .. . ... : ... .. . ... : ... .. . ...
ROW 0E : ... .. . ... : ... .. . ... : ... .. . ... : ... .. . ... : ... .. . ...
ROW 0F : ... .. . ... : ... .. . ... : ... .. . ... : ... .. . ... : ... .. . ...
ROW 10 : A-4 1A . 400 : ... .. . ... : ... .. . ... : ... .. . ... : ... .. . ...
ROW 11 : ... .. . Q01 : ... .. . ... : ... .. . ... : ... .. . ... : ... .. . ...
ROW 12 : ... .. . ... : ... .. . ... : ... .. . ... : ... .. . ... : ... .. . ...
ROW 13 : ... .. . ... : ... .. . ... : ... .. . ... : ... .. . ... : ... .. . ...
ROW 14 : ... .. E ... : ... .. . ... : ... .. . ... : ... .. . ... : ... .. . ...
ROW 15 : ... .. F ... : ... .. . ... : ... .. . ... : ... .. . ... : ... .. . ...
ROW 16 : ... .. . ... : ... .. . ... : ... .. . ... : ... .. . ... : ... .. . ...
ROW 17 : ... .. . ... : ... .. . ... : ... .. . ... : ... .. . ... : ... .. . ...
ROW 18 : ... .. D 424 : ... .. . ... : ... .. . ... : ... .. . ... : ... .. . ...
ROW 19 : ... .. E ... : ... .. . ... : ... .. . ... : ... .. . ... : ... .. . ...
ROW 1A : ... .. F ... : ... .. . ... : ... .. . ... : ... .. . ... : ... .. . ...
ROW 1B : ... .. . ... : ... .. . ... : ... .. . ... : ... .. . ... : ... .. . ...
ROW 1C : === 1F . ... : ... .. . ... : ... .. . ... : ... .. . ... : ... .. . ...
ROW 1D : ... .. . ... : ... .. . ... : ... .. . ... : ... .. . ... : ... .. . ...
ROW 1E : ... .. . ... : ... .. . ... : ... .. . ... : ... .. . ... : ... .. . ...
ROW 1F : ... .. . ... : ... .. . ... : ... .. . ... : ... .. . ... : ... .. . ...
ROW 20 : A-4 1A E 400 : ... .. . ... : ... .. . ... : ... .. . ... : ... .. . ...
ROW 21 : ... .. F ... : ... .. . ... : ... .. . ... : ... .. . ... : ... .. . ...
ROW 22 : ... .. . ... : ... .. . ... : ... .. . ... : ... .. . ... : ... .. . ...
ROW 23 : ... .. . ... : ... .. . ... : ... .. . ... : ... .. . ... : ... .. . ...
ROW 24 : ... .. . ... : ... .. . ... : ... .. . ... : ... .. . ... : ... .. . ...
ROW 25 : ... .. . ... : ... .. . ... : ... .. . ... : ... .. . ... : ... .. . ...
ROW 26 : ... .. . ... : ... .. . ... : ... .. . ... : ... .. . ... : ... .. . ...
ROW 27 : ... .. . ... : ... .. . ... : ... .. . ... : ... .. . ... : ... .. . ...
ROW 28 : ... .. D 424 : ... .. . ... : ... .. . ... : ... .. . ... : ... .. . ...
ROW 29 : ... .. E ... : ... .. . ... : ... .. . ... : ... .. . ... : ... .. . ...
ROW 2A : ... .. F ... : ... .. . ... : ... .. . ... : ... .. . ... : ... .. . ...
ROW 2B : ... .. . ... : ... .. . ... : ... .. . ... : ... .. . ... : ... .. . ...
ROW 2C : === 1F . ... : ... .. . ... : ... .. . ... : ... .. . ... : ... .. . ...
ROW 2D : ... .. . ... : ... .. . ... : ... .. . ... : ... .. . ... : ... .. . ...
ROW 2E : ... .. . ... : ... .. . ... : ... .. . ... : ... .. . ... : ... .. . ...
ROW 2F : ... .. . ... : ... .. . ... : ... .. . ... : ... .. . ... : ... .. . ...
ROW 30 : F-4 1A . 400 : ... .. . ... : ... .. . ... : ... .. . ... : ... .. . ...
ROW 31 : ... .. . ... : ... .. . ... : ... .. . ... : ... .. . ... : ... .. . ...
ROW 32 : ... .. . ... : ... .. . ... : ... .. . ... : ... .. . ... : ... .. . ...
ROW 33 : ... .. . ... : ... .. . ... : ... .. . ... : ... .. . ... : ... .. . ...
ROW 34 : ... .. E ... : ... .. . ... : ... .. . ... : ... .. . ... : ... .. . ...
ROW 35 : ... .. F ... : ... .. . ... : ... .. . ... : ... .. . ... : ... .. . ...
ROW 36 : ... .. . ... : ... .. . ... : ... .. . ... : ... .. . ... : ... .. . ...
ROW 37 : A-4 1F . V00 : ... .. . ... : ... .. . ... : ... .. . ... : ... .. . ...
ROW 38 : F#4 1A D ... : ... .. . ... : ... .. . ... : ... .. . ... : ... .. . ...
ROW 39 : ... .. E ... : ... .. . ... : ... .. . ... : ... .. . ... : ... .. . ...
ROW 3A : ... .. F ... : ... .. . ... : ... .. . ... : ... .. . ... : ... .. . ...
ROW 3B : ... .. . ... : ... .. . ... : ... .. . ... : ... .. . ... : ... .. . ...
ROW 3C : F-4 1F . ... : ... .. . ... : ... .. . ... : ... .. . ... : ... .. . ...
ROW 3D : ... .. . ... : ... .. . ... : ... .. . ... : ... .. . ... : ... .. . ...
ROW 3E : ... .. . ... : ... .. . ... : ... .. . ... : ... .. . ... : ... .. . ...
ROW 3F : ... .. . ... : ... .. . ... : ... .. . ... : ... .. . ... : ... .. . ...

PATTERN 23
ROW 00 : G#4 1A E ... : ... .. . ... : ... .. . ... : ... .. . ... : ... .. . ...
ROW 01 : ... .. F ... : ... .. . ... : ... .. . ... : ... .. . ... : ... .. . ...
ROW 02 : ... .. . ... : ... .. . ... : ... .. . ... : ... .. . ... : ... .. . ...
ROW 03 : ... .. . ... : ... .. . ... : ... .. . ... : ... .. . ... : ... .. . ...
ROW 04 : ... .. . 424 : ... .. . ... : ... .. . ... : ... .. . ... : ... .. . ...
ROW 05 : ... .. . ... : ... .. . ... : ... .. . ... : ... .. . ... : ... .. . ...
ROW 06 : ... .. . ... : ... .. . ... : ... .. . ... : ... .. . ... : ... .. . ...
ROW 07 : F#4 1F . 400 : ... .. . ... : ... .. . ... : ... .. . ... : ... .. . ...
ROW 08 : F#4 1A D ... : ... .. . ... : ... .. . ... : ... .. . ... : ... .. . ...
ROW 09 : ... .. E ... : ... .. . ... : ... .. . ... : ... .. . ... : ... .. . ...
ROW 0A : ... .. F ... : ... .. . ... : ... .. . ... : ... .. . ... : ... .. . ...
ROW 0B : ... .. . ... : ... .. . ... : ... .. . ... : ... .. . ... : ... .. . ...
ROW 0C : ... .. . ... : ... .. . ... : ... .. . ... : ... .. . ... : ... .. . ...
ROW 0D : G#4 1F . ... : ... .. . ... : ... .. . ... : ... .. . ... : ... .. . ...
ROW 0E : ... .. . ... : ... .. . ... : ... .. . ... : ... .. . ... : ... .. . ...
ROW 0F : ... .. . ... : ... .. . ... : ... .. . ... : ... .. . ... : ... .. . ...
ROW 10 : F-4 1A . ... : ... .. . ... : ... .. . ... : ... .. . ... : ... .. . ...
ROW 11 : ... .. . ... : ... .. . ... : ... .. . ... : ... .. . ... : ... .. . ...
ROW 12 : ... .. . ... : ... .. . ... : ... .. . ... : ... .. . ... : ... .. . ...
ROW 13 : ... .. . ... : ... .. . ... : ... .. . ... : ... .. . ... : ... .. . ...
ROW 14 : ... .. E 424 : ... .. . ... : ... .. . ... : ... .. . ... : ... .. . ...
ROW 15 : ... .. F ... : ... .. . ... : ... .. . ... : ... .. . ... : ... .. . ...
ROW 16 : ... .. . ... : ... .. . ... : ... .. . ... : ... .. . ... : ... .. . ...
ROW 17 : F#4 1F . 400 : ... .. . ... : ... .. . ... : ... .. . ... : ... .. . ...
ROW 18 : D#4 1A D ... : ... .. . ... : ... .. . ... : ... .. . ... : ... .. . ...
ROW 19 : ... .. E ... : ... .. . ... : ... .. . ... : ... .. . ... : ... .. . ...
ROW 1A : ... .. F ... : ... .. . ... : ... .. . ... : ... .. . ... : ... .. . ...
ROW 1B : ... .. . ... : ... .. . ... : ... .. . ... : ... .. . ... : ... .. . ...
ROW 1C : ... .. . ... : ... .. . ... : ... .. . ... : ... .. . ... : ... .. . ...
ROW 1D : F-4 1F . ... : ... .. . ... : ... .. . ... : ... .. . ... : ... .. . ...
ROW 1E : ... .. . ... : ... .. . ... : ... .. . ... : ... .. . ... : ... .. . ...
ROW 1F : ... .. . ... : ... .. . ... : ... .. . ... : ... .. . ... : ... .. . ...
ROW 20 : F-4 1A E 400 : ... .. . ... : ... .. . ... : ... .. . ... : ... .. . ...
ROW 21 : ... .. F ... : ... .. . ... : ... .. . ... : ... .. . ... : ... .. . ...
ROW 22 : ... .. . ... : ... .. . ... : ... .. . ... : ... .. . ... : ... .. . ...
ROW 23 : ... .. . ... : ... .. . ... : ... .. . ... : ... .. . ... : ... .. . ...
ROW 24 : ... .. . ... : ... .. . ... : ... .. . ... : ... .. . ... : ... .. . ...
ROW 25 : ... .. . ... : ... .. . ... : ... .. . ... : ... .. . ... : ... .. . ...
ROW 26 : ... .. . ... : ... .. . ... : ... .. . ... : ... .. . ... : ... .. . ...
ROW 27 : ... .. . ... : ... .. . ... : ... .. . ... : ... .. . ... : ... .. . ...
ROW 28 : ... .. D 424 : ... .. . ... : ... .. . ... : ... .. . ... : ... .. . ...
ROW 29 : ... .. E ... : ... .. . ... : ... .. . ... : ... .. . ... : ... .. . ...
ROW 2A : ... .. F ... : ... .. . ... : ... .. . ... : ... .. . ... : ... .. . ...
ROW 2B : ... .. . ... : ... .. . ... : ... .. . ... : ... .. . ... : ... .. . ...
ROW 2C : ... .. . R01 : ... .. . ... : ... .. . ... : ... .. . ... : ... .. . ...
ROW 2D : ... .. . ... : ... .. . ... : ... .. . ... : ... .. . ... : ... .. . ...
ROW 2E : ... .. . R02 : ... .. . ... : ... .. . ... : ... .. . ... : ... .. . ...
ROW 2F : ... .. . ... : ... .. . ... : ... .. . ... : ... .. . ... : ... .. . ...
ROW 30 : D-4 1A . 400 : ... .. . ... : ... .. . ... : ... .. . ... : ... .. . ...
ROW 31 : ... .. . ... : ... .. . ... : ... .. . ... : ... .. . ... : ... .. . ...
ROW 32 : ... .. . ... : ... .. . ... : ... .. . ... : ... .. . ... : ... .. . ...
ROW 33 : ... .. . ... : ... .. . ... : ... .. . ... : ... .. . ... : ... .. . ...
ROW 34 : ... .. E 426 : ... .. . ... : ... .. . ... : ... .. . ... : ... .. . ...
ROW 35 : ... .. F ... : ... .. . ... : ... .. . ... : ... .. . ... : ... .. . ...
ROW 36 : ... .. . ... : ... .. . ... : ... .. . ... : ... .. . ... : ... .. . ...
ROW 37 : ... .. . ... : ... .. . ... : ... .. . ... : ... .. . ... : ... .. . ...
ROW 38 : ... .. D ... : ... .. . ... : ... .. . ... : ... .. . ... : ... .. . ...
ROW 39 : ... .. E ... : ... .. . ... : ... .. . ... : ... .. . ... : ... .. . ...
ROW 3A : ... .. F ... : ... .. . ... : ... .. . ... : ... .. . ... : ... .. . ...
ROW 3B : ... .. . ... : ... .. . ... : ... .. . ... : ... .. . ... : ... .. . ...
ROW 3C : ... .. . ... : ... .. . ... : ... .. . ... : ... .. . ... : ... .. . ...
ROW 3D : ... .. . ... : ... .. . ... : ... .. . ... : ... .. . ... : ... .. . ...
ROW 3E : === .. . ... : ... .. . ... : ... .. . ... : ... .. . ... : ... .. . ...
ROW 3F : ... .. . ... : ... .. . ... : ... .. . ... : ... .. . ... : ... .. . ...

PATTERN 24
ROW 00 : D#4 1A E 400 : ... .. . ... : ... .. . ... : ... .. . ... : ... .. . ...
ROW 01 : ... .. F ... : ... .. . ... : ... .. . ... : ... .. . ... : ... .. . ...
ROW 02 : ... .. . ... : ... .. . ... : ... .. . ... : ... .. . ... : ... .. . ...
ROW 03 : ... .. . ... : ... .. . ... : ... .. . ... : ... .. . ... : ... .. . ...
ROW 04 : ... .. . ... : ... .. . ... : ... .. . ... : ... .. . ... : ... .. . ...
ROW 05 : ... .. . ... : ... .. . ... : ... .. . ... : ... .. . ... : ... .. . ...
ROW 06 : ... .. . ... : ... .. . ... : ... .. . ... : ... .. . ... : ... .. . ...
ROW 07 : ... .. . ... : ... .. . ... : ... .. . ... : ... .. . ... : ... .. . ...
ROW 08 : ... .. D 425 : ... .. . ... : ... .. . ... : ... .. . ... : ... .. . ...
ROW 09 : ... .. E ... : ... .. . ... : ... .. . ... : ... .. . ... : ... .. . ...
ROW 0A : ... .. F ... : ... .. . ... : ... .. . ... : ... .. . ... : ... .. . ...
ROW 0B : ... .. . ... : ... .. . ... : ... .. . ... : ... .. . ... : ... .. . ...
ROW 0C : === .. . ... : ... .. . ... : ... .. . ... : ... .. . ... : ... .. . ...
ROW 0D : ... .. . ... : ... .. . ... : ... .. . ... : ... .. . ... : ... .. . ...
ROW 0E : ... .. . ... : ... .. . ... : ... .. . ... : ... .. . ... : ... .. . ...
ROW 0F : ... .. . ... : ... .. . ... : ... .. . ... : ... .. . ... : ... .. . ...
ROW 10 : A-4 1A . 400 : ... .. . ... : ... .. . ... : ... .. . ... : ... .. . ...
ROW 11 : ... .. . Q01 : ... .. . ... : ... .. . ... : ... .. . ... : ... .. . ...
ROW 12 : ... .. . ... : ... .. . ... : ... .. . ... : ... .. . ... : ... .. . ...
ROW 13 : ... .. . ... : ... .. . ... : ... .. . ... : ... .. . ... : ... .. . ...
ROW 14 : ... .. E ... : ... .. . ... : ... .. . ... : ... .. . ... : ... .. . ...
ROW 15 : ... .. F ... : ... .. . ... : ... .. . ... : ... .. . ... : ... .. . ...
ROW 16 : ... .. . ... : ... .. . ... : ... .. . ... : ... .. . ... : ... .. . ...
ROW 17 : ... .. . ... : ... .. . ... : ... .. . ... : ... .. . ... : ... .. . ...
ROW 18 : ... .. D 424 : ... .. . ... : ... .. . ... : ... .. . ... : ... .. . ...
ROW 19 : ... .. E ... : ... .. . ... : ... .. . ... : ... .. . ... : ... .. . ...
ROW 1A : ... .. F ... : ... .. . ... : ... .. . ... : ... .. . ... : ... .. . ...
ROW 1B : ... .. . ... : ... .. . ... : ... .. . ... : ... .. . ... : ... .. . ...
ROW 1C : === .. . ... : ... .. . ... : ... .. . ... : ... .. . ... : ... .. . ...
ROW 1D : ... .. . ... : ... .. . ... : ... .. . ... : ... .. . ... : ... .. . ...
ROW 1E : ... .. . ... : ... .. . ... : ... .. . ... : ... .. . ... : ... .. . ...
ROW 1F : ... .. . ... : ... .. . ... : ... .. . ... : ... .. . ... : ... .. . ...
ROW 20 : A-4 1A E 400 : ... .. . ... : ... .. . ... : ... .. . ... : ... .. . ...
ROW 21 : ... .. F ... : ... .. . ... : ... .. . ... : ... .. . ... : ... .. . ...
ROW 22 : ... .. . ... : ... .. . ... : ... .. . ... : ... .. . ... : ... .. . ...
ROW 23 : ... .. . ... : ... .. . ... : ... .. . ... : ... .. . ... : ... .. . ...
ROW 24 : ... .. . ... : ... .. . ... : ... .. . ... : ... .. . ... : ... .. . ...
ROW 25 : ... .. . ... : ... .. . ... : ... .. . ... : ... .. . ... : ... .. . ...
ROW 26 : ... .. . ... : ... .. . ... : ... .. . ... : ... .. . ... : ... .. . ...
ROW 27 : ... .. . ... : ... .. . ... : ... .. . ... : ... .. . ... : ... .. . ...
ROW 28 : ... .. D 424 : ... .. . ... : ... .. . ... : ... .. . ... : ... .. . ...
ROW 29 : ... .. E ... : ... .. . ... : ... .. . ... : ... .. . ... : ... .. . ...
ROW 2A : ... .. F ... : ... .. . ... : ... .. . ... : ... .. . ... : ... .. . ...
ROW 2B : ... .. . ... : ... .. . ... : ... .. . ... : ... .. . ... : ... .. . ...
ROW 2C : === .. . ... : ... .. . ... : ... .. . ... : ... .. . ... : ... .. . ...
ROW 2D : ... .. . ... : ... .. . ... : ... .. . ... : ... .. . ... : ... .. . ...
ROW 2E : ... .. . ... : ... .. . ... : ... .. . ... : ... .. . ... : ... .. . ...
ROW 2F : ... .. . ... : ... .. . ... : ... .. . ... : ... .. . ... : ... .. . ...
ROW 30 : D#4 1A . 400 : ... .. . ... : ... .. . ... : ... .. . ... : ... .. . ...
ROW 31 : ... .. . ... : ... .. . ... : ... .. . ... : ... .. . ... : ... .. . ...
ROW 32 : ... .. . ... : ... .. . ... : ... .. . ... : ... .. . ... : ... .. . ...
ROW 33 : ... .. . ... : ... .. . ... : ... .. . ... : ... .. . ... : ... .. . ...
ROW 34 : ... .. E ... : ... .. . ... : ... .. . ... : ... .. . ... : ... .. . ...
ROW 35 : ... .. F ... : ... .. . ... : ... .. . ... : ... .. . ... : ... .. . ...
ROW 36 : ... .. . ... : ... .. . ... : ... .. . ... : ... .. . ... : ... .. . ...
ROW 37 : A-4 1F . ... : ... .. . ... : ... .. . ... : ... .. . ... : ... .. . ...
ROW 38 : F#4 1A D ... : ... .. . ... : ... .. . ... : ... .. . ... : ... .. . ...
ROW 39 : ... .. E ... : ... .. . ... : ... .. . ... : ... .. . ... : ... .. . ...
ROW 3A : ... .. F ... : ... .. . ... : ... .. . ... : ... .. . ... : ... .. . ...
ROW 3B : ... .. . ... : ... .. . ... : ... .. . ... : ... .. . ... : ... .. . ...
ROW 3C : D#4 1F . ... : ... .. . ... : ... .. . ... : ... .. . ... : ... .. . ...
ROW 3D : ... .. . ... : ... .. . ... : ... .. . ... : ... .. . ... : ... .. . ...
ROW 3E : ... .. . ... : ... .. . ... : ... .. . ... : ... .. . ... : ... .. . ...
ROW 3F : ... .. . ... : ... .. . ... : ... .. . ... : ... .. . ... : ... .. . ...

PATTERN 25
ROW 00 : G#4 1A E ... : ... .. . ... : ... .. . ... : ... .. . ... : ... .. . ...
ROW 01 : ... .. F ... : ... .. . ... : ... .. . ... : ... .. . ... : ... .. . ...
ROW 02 : ... .. . ... : ... .. . ... : ... .. . ... : ... .. . ... : ... .. . ...
ROW 03 : ... .. . ... : ... .. . ... : ... .. . ... : ... .. . ... : ... .. . ...
ROW 04 : ... .. . 424 : ... .. . ... : ... .. . ... : ... .. . ... : ... .. . ...
ROW 05 : ... .. . ... : ... .. . ... : ... .. . ... : ... .. . ... : ... .. . ...
ROW 06 : ... .. . ... : ... .. . ... : ... .. . ... : ... .. . ... : ... .. . ...
ROW 07 : D#4 1F . ... : ... .. . ... : ... .. . ... : ... .. . ... : ... .. . ...
ROW 08 : F#4 1A D 400 : ... .. . ... : ... .. . ... : ... .. . ... : ... .. . ...
ROW 09 : ... .. E ... : ... .. . ... : ... .. . ... : ... .. . ... : ... .. . ...
ROW 0A : ... .. F Q12 : ... .. . ... : ... .. . ... : ... .. . ... : ... .. . ...
ROW 0B : ... .. . ... : ... .. . ... : ... .. . ... : ... .. . ... : ... .. . ...
ROW 0C : ... .. . ... : ... .. . ... : ... .. . ... : ... .. . ... : ... .. . ...
ROW 0D : ... .. . R12 : ... .. . ... : ... .. . ... : ... .. . ... : ... .. . ...
ROW 0E : ... .. . ... : ... .. . ... : ... .. . ... : ... .. . ... : ... .. . ...
ROW 0F : G#4 1F . ... : ... .. . ... : ... .. . ... : ... .. . ... : ... .. . ...
ROW 10 : F-4 1A . ... : ... .. . ... : ... .. . ... : ... .. . ... : ... .. . ...
ROW 11 : ... .. . ... : ... .. . ... : ... .. . ... : ... .. . ... : ... .. . ...
ROW 12 : ... .. . ... : ... .. . ... : ... .. . ... : ... .. . ... : ... .. . ...
ROW 13 : ... .. . ... : ... .. . ... : ... .. . ... : ... .. . ... : ... .. . ...
ROW 14 : ... .. E 424 : ... .. . ... : ... .. . ... : ... .. . ... : ... .. . ...
ROW 15 : ... .. F ... : ... .. . ... : ... .. . ... : ... .. . ... : ... .. . ...
ROW 16 : ... .. . ... : ... .. . ... : ... .. . ... : ... .. . ... : ... .. . ...
ROW 17 : F#4 1F . ... : ... .. . ... : ... .. . ... : ... .. . ... : ... .. . ...
ROW 18 : F#4 1A D 400 : ... .. . ... : ... .. . ... : ... .. . ... : ... .. . ...
ROW 19 : ... .. E ... : ... .. . ... : ... .. . ... : ... .. . ... : ... .. . ...
ROW 1A : ... .. F ... : ... .. . ... : ... .. . ... : ... .. . ... : ... .. . ...
ROW 1B : ... .. . ... : ... .. . ... : ... .. . ... : ... .. . ... : ... .. . ...
ROW 1C : ... .. . ... : ... .. . ... : ... .. . ... : ... .. . ... : ... .. . ...
ROW 1D : F-4 1F . ... : ... .. . ... : ... .. . ... : ... .. . ... : ... .. . ...
ROW 1E : ... .. . ... : ... .. . ... : ... .. . ... : ... .. . ... : ... .. . ...
ROW 1F : ... .. . ... : ... .. . ... : ... .. . ... : ... .. . ... : ... .. . ...
ROW 20 : G#4 1A E 400 : ... .. . ... : ... .. . ... : ... .. . ... : ... .. . ...
ROW 21 : ... .. F ... : ... .. . ... : ... .. . ... : ... .. . ... : ... .. . ...
ROW 22 : ... .. . ... : ... .. . ... : ... .. . ... : ... .. . ... : ... .. . ...
ROW 23 : ... .. . ... : ... .. . ... : ... .. . ... : ... .. . ... : ... .. . ...
ROW 24 : ... .. . ... : ... .. . ... : ... .. . ... : ... .. . ... : ... .. . ...
ROW 25 : ... .. . ... : ... .. . ... : ... .. . ... : ... .. . ... : ... .. . ...
ROW 26 : ... .. . ... : ... .. . ... : ... .. . ... : ... .. . ... : ... .. . ...
ROW 27 : ... .. . ... : ... .. . ... : ... .. . ... : ... .. . ... : ... .. . ...
ROW 28 : ... .. D 424 : ... .. . ... : ... .. . ... : ... .. . ... : ... .. . ...
ROW 29 : ... .. E ... : ... .. . ... : ... .. . ... : ... .. . ... : ... .. . ...
ROW 2A : ... .. F ... : ... .. . ... : ... .. . ... : ... .. . ... : ... .. . ...
ROW 2B : ... .. . ... : ... .. . ... : ... .. . ... : ... .. . ... : ... .. . ...
ROW 2C : ... .. . Q02 : ... .. . ... : ... .. . ... : ... .. . ... : ... .. . ...
ROW 2D : ... .. . 400 : ... .. . ... : ... .. . ... : ... .. . ... : ... .. . ...
ROW 2E : ... .. . ... : ... .. . ... : ... .. . ... : ... .. . ... : ... .. . ...
ROW 2F : ... .. . ... : ... .. . ... : ... .. . ... : ... .. . ... : ... .. . ...
ROW 30 : A#4 1A . 400 : ... .. . ... : ... .. . ... : ... .. . ... : ... .. . ...
ROW 31 : ... .. . ... : ... .. . ... : ... .. . ... : ... .. . ... : ... .. . ...
ROW 32 : ... .. . ... : ... .. . ... : ... .. . ... : ... .. . ... : ... .. . ...
ROW 33 : ... .. . ... : ... .. . ... : ... .. . ... : ... .. . ... : ... .. . ...
ROW 34 : ... .. E 425 : ... .. . ... : ... .. . ... : ... .. . ... : ... .. . ...
ROW 35 : ... .. F ... : ... .. . ... : ... .. . ... : ... .. . ... : ... .. . ...
ROW 36 : ... .. . ... : ... .. . ... : ... .. . ... : ... .. . ... : ... .. . ...
ROW 37 : ... .. . ... : ... .. . ... : ... .. . ... : ... .. . ... : ... .. . ...
ROW 38 : ... .. D ... : ... .. . ... : ... .. . ... : ... .. . ... : ... .. . ...
ROW 39 : ... .. E ... : ... .. . ... : ... .. . ... : ... .. . ... : ... .. . ...
ROW 3A : ... .. F ... : ... .. . ... : ... .. . ... : ... .. . ... : ... .. . ...
ROW 3B : ... .. . ... : ... .. . ... : ... .. . ... : ... .. . ... : ... .. . ...
ROW 3C : ... .. . ... : ... .. . ... : ... .. . ... : ... .. . ... : ... .. . ...
ROW 3D : ... .. . ... : ... .. . ... : ... .. . ... : ... .. . ... : ... .. . ...
ROW 3E : === .. . ... : ... .. . ... : ... .. . ... : ... .. . ... : ... .. . ...
ROW 3F : ... .. . ... : ... .. . ... : ... .. . ... : ... .. . ... : ... .. . ...

PATTERN 26
ROW 00 : G#4 1A E 400 : ... .. . ... : ... .. . ... : ... .. . ... : ... .. . ...
ROW 01 : ... .. F ... : ... .. . ... : ... .. . ... : ... .. . ... : ... .. . ...
ROW 02 : ... .. . ... : ... .. . ... : ... .. . ... : ... .. . ... : ... .. . ...
ROW 03 : ... .. . ... : ... .. . ... : ... .. . ... : ... .. . ... : ... .. . ...
ROW 04 : ... .. . ... : ... .. . ... : ... .. . ... : ... .. . ... : ... .. . ...
ROW 05 : ... .. . ... : ... .. . ... : ... .. . ... : ... .. . ... : ... .. . ...
ROW 06 : ... .. . ... : ... .. . ... : ... .. . ... : ... .. . ... : ... .. . ...
ROW 07 : ... .. . ... : ... .. . ... : ... .. . ... : ... .. . ... : ... .. . ...
ROW 08 : ... .. D 425 : ... .. . ... : ... .. . ... : ... .. . ... : ... .. . ...
ROW 09 : ... .. E ... : ... .. . ... : ... .. . ... : ... .. . ... : ... .. . ...
ROW 0A : ... .. F ... : ... .. . ... : ... .. . ... : ... .. . ... : ... .. . ...
ROW 0B : ... .. . ... : ... .. . ... : ... .. . ... : ... .. . ... : ... .. . ...
ROW 0C : === .. . ... : ... .. . ... : ... .. . ... : ... .. . ... : ... .. . ...
ROW 0D : ... .. . ... : ... .. . ... : ... .. . ... : ... .. . ... : ... .. . ...
ROW 0E : ... .. . ... : ... .. . ... : ... .. . ... : ... .. . ... : ... .. . ...
ROW 0F : ... .. . ... : ... .. . ... : ... .. . ... : ... .. . ... : ... .. . ...
ROW 10 : D-5 1A . 400 : ... .. . ... : ... .. . ... : ... .. . ... : ... .. . ...
ROW 11 : ... .. . Q01 : ... .. . ... : ... .. . ... : ... .. . ... : ... .. . ...
ROW 12 : ... .. . ... : ... .. . ... : ... .. . ... : ... .. . ... : ... .. . ...
ROW 13 : ... .. . ... : ... .. . ... : ... .. . ... : ... .. . ... : ... .. . ...
ROW 14 : ... .. E ... : ... .. . ... : ... .. . ... : ... .. . ... : ... .. . ...
ROW 15 : ... .. F ... : ... .. . ... : ... .. . ... : ... .. . ... : ... .. . ...
ROW 16 : ... .. . ... : ... .. . ... : ... .. . ... : ... .. . ... : ... .. . ...
ROW 17 : ... .. . ... : ... .. . ... : ... .. . ... : ... .. . ... : ... .. . ...
ROW 18 : ... .. D 423 : ... .. . ... : ... .. . ... : ... .. . ... : ... .. . ...
ROW 19 : ... .. E ... : ... .. . ... : ... .. . ... : ... .. . ... : ... .. . ...
ROW 1A : ... .. F ... : ... .. . ... : ... .. . ... : ... .. . ... : ... .. . ...
ROW 1B : ... .. . ... : ... .. . ... : ... .. . ... : ... .. . ... : ... .. . ...
ROW 1C : === .. . ... : ... .. . ... : ... .. . ... : ... .. . ... : ... .. . ...
ROW 1D : ... .. . ... : ... .. . ... : ... .. . ... : ... .. . ... : ... .. . ...
ROW 1E : ... .. . ... : ... .. . ... : ... .. . ... : ... .. . ... : ... .. . ...
ROW 1F : ... .. . ... : ... .. . ... : ... .. . ... : ... .. . ... : ... .. . ...
ROW 20 : D-5 1A E 400 : ... .. . ... : ... .. . ... : ... .. . ... : ... .. . ...
ROW 21 : ... .. F ... : ... .. . ... : ... .. . ... : ... .. . ... : ... .. . ...
ROW 22 : ... .. . ... : ... .. . ... : ... .. . ... : ... .. . ... : ... .. . ...
ROW 23 : ... .. . ... : ... .. . ... : ... .. . ... : ... .. . ... : ... .. . ...
ROW 24 : ... .. . ... : ... .. . ... : ... .. . ... : ... .. . ... : ... .. . ...
ROW 25 : ... .. . ... : ... .. . ... : ... .. . ... : ... .. . ... : ... .. . ...
ROW 26 : ... .. . ... : ... .. . ... : ... .. . ... : ... .. . ... : ... .. . ...
ROW 27 : ... .. . ... : ... .. . ... : ... .. . ... : ... .. . ... : ... .. . ...
ROW 28 : ... .. D 424 : ... .. . ... : ... .. . ... : ... .. . ... : ... .. . ...
ROW 29 : ... .. E ... : ... .. . ... : ... .. . ... : ... .. . ... : ... .. . ...
ROW 2A : ... .. F ... : ... .. . ... : ... .. . ... : ... .. . ... : ... .. . ...
ROW 2B : ... .. . ... : ... .. . ... : ... .. . ... : ... .. . ... : ... .. . ...
ROW 2C : === .. . ... : ... .. . ... : ... .. . ... : ... .. . ... : ... .. . ...
ROW 2D : ... .. . ... : ... .. . ... : ... .. . ... : ... .. . ... : ... .. . ...
ROW 2E : ... .. . ... : ... .. . ... : ... .. . ... : ... .. . ... : ... .. . ...
ROW 2F : ... .. . ... : ... .. . ... : ... .. . ... : ... .. . ... : ... .. . ...
ROW 30 : G#4 1A . 400 : ... .. . ... : ... .. . ... : ... .. . ... : ... .. . ...
ROW 31 : ... .. . ... : ... .. . ... : ... .. . ... : ... .. . ... : ... .. . ...
ROW 32 : ... .. . ... : ... .. . ... : ... .. . ... : ... .. . ... : ... .. . ...
ROW 33 : ... .. . ... : ... .. . ... : ... .. . ... : ... .. . ... : ... .. . ...
ROW 34 : ... .. E ... : ... .. . ... : ... .. . ... : ... .. . ... : ... .. . ...
ROW 35 : ... .. F ... : ... .. . ... : ... .. . ... : ... .. . ... : ... .. . ...
ROW 36 : ... .. . ... : ... .. . ... : ... .. . ... : ... .. . ... : ... .. . ...
ROW 37 : D-5 1F . ... : ... .. . ... : ... .. . ... : ... .. . ... : ... .. . ...
ROW 38 : A#4 1A D ... : ... .. . ... : ... .. . ... : ... .. . ... : ... .. . ...
ROW 39 : ... .. E ... : ... .. . ... : ... .. . ... : ... .. . ... : ... .. . ...
ROW 3A : ... .. F ... : ... .. . ... : ... .. . ... : ... .. . ... : ... .. . ...
ROW 3B : ... .. . ... : ... .. . ... : ... .. . ... : ... .. . ... : ... .. . ...
ROW 3C : G#4 1F . ... : ... .. . ... : ... .. . ... : ... .. . ... : ... .. . ...
ROW 3D : ... .. . ... : ... .. . ... : ... .. . ... : ... .. . ... : ... .. . ...
ROW 3E : ... .. . ... : ... .. . ... : ... .. . ... : ... .. . ... : ... .. . ...
ROW 3F : ... .. . ... : ... .. . ... : ... .. . ... : ... .. . ... : ... .. . ...

PATTERN 27
ROW 00 : B-4 1A E ... : ... .. . ... : ... .. . ... : ... .. . ... : ... .. . ...
ROW 01 : ... .. F ... : ... .. . ... : ... .. . ... : ... .. . ... : ... .. . ...
ROW 02 : ... .. . ... : ... .. . ... : ... .. . ... : ... .. . ... : ... .. . ...
ROW 03 : ... .. . ... : ... .. . ... : ... .. . ... : ... .. . ... : ... .. . ...
ROW 04 : ... .. . 424 : ... .. . ... : ... .. . ... : ... .. . ... : ... .. . ...
ROW 05 : ... .. . ... : ... .. . ... : ... .. . ... : ... .. . ... : ... .. . ...
ROW 06 : ... .. . ... : ... .. . ... : ... .. . ... : ... .. . ... : ... .. . ...
ROW 07 : A#4 1F . 400 : ... .. . ... : ... .. . ... : ... .. . ... : ... .. . ...
ROW 08 : A#4 1A D ... : ... .. . ... : ... .. . ... : ... .. . ... : ... .. . ...
ROW 09 : ... .. E ... : ... .. . ... : ... .. . ... : ... .. . ... : ... .. . ...
ROW 0A : ... .. F ... : ... .. . ... : ... .. . ... : ... .. . ... : ... .. . ...
ROW 0B : ... .. . ... : ... .. . ... : ... .. . ... : ... .. . ... : ... .. . ...
ROW 0C : ... .. . ... : ... .. . ... : ... .. . ... : ... .. . ... : ... .. . ...
ROW 0D : B-4 1F . ... : ... .. . ... : ... .. . ... : ... .. . ... : ... .. . ...
ROW 0E : ... .. . ... : ... .. . ... : ... .. . ... : ... .. . ... : ... .. . ...
ROW 0F : ... .. . ... : ... .. . ... : ... .. . ... : ... .. . ... : ... .. . ...
ROW 10 : G#4 1A . ... : ... .. . ... : ... .. . ... : ... .. . ... : ... .. . ...
ROW 11 : ... .. . ... : ... .. . ... : ... .. . ... : ... .. . ... : ... .. . ...
ROW 12 : ... .. . ... : ... .. . ... : ... .. . ... : ... .. . ... : ... .. . ...
ROW 13 : ... .. . ... : ... .. . ... : ... .. . ... : ... .. . ... : ... .. . ...
ROW 14 : ... .. E 424 : ... .. . ... : ... .. . ... : ... .. . ... : ... .. . ...
ROW 15 : ... .. F ... : ... .. . ... : ... .. . ... : ... .. . ... : ... .. . ...
ROW 16 : ... .. . ... : ... .. . ... : ... .. . ... : ... .. . ... : ... .. . ...
ROW 17 : A#4 1F . 400 : ... .. . ... : ... .. . ... : ... .. . ... : ... .. . ...
ROW 18 : F#4 1A D ... : ... .. . ... : ... .. . ... : ... .. . ... : ... .. . ...
ROW 19 : ... .. E ... : ... .. . ... : ... .. . ... : ... .. . ... : ... .. . ...
ROW 1A : ... .. F ... : ... .. . ... : ... .. . ... : ... .. . ... : ... .. . ...
ROW 1B : ... .. . ... : ... .. . ... : ... .. . ... : ... .. . ... : ... .. . ...
ROW 1C : ... .. . ... : ... .. . ... : ... .. . ... : ... .. . ... : ... .. . ...
ROW 1D : G#4 1F . ... : ... .. . ... : ... .. . ... : ... .. . ... : ... .. . ...
ROW 1E : ... .. . ... : ... .. . ... : ... .. . ... : ... .. . ... : ... .. . ...
ROW 1F : ... .. . ... : ... .. . ... : ... .. . ... : ... .. . ... : ... .. . ...
ROW 20 : G#4 1A E ... : ... .. . ... : ... .. . ... : ... .. . ... : ... .. . ...
ROW 21 : ... .. F ... : ... .. . ... : ... .. . ... : ... .. . ... : ... .. . ...
ROW 22 : ... .. . ... : ... .. . ... : ... .. . ... : ... .. . ... : ... .. . ...
ROW 23 : ... .. . ... : ... .. . ... : ... .. . ... : ... .. . ... : ... .. . ...
ROW 24 : ... .. . 426 : ... .. . ... : ... .. . ... : ... .. . ... : ... .. . ...
ROW 25 : ... .. . ... : ... .. . ... : ... .. . ... : ... .. . ... : ... .. . ...
ROW 26 : ... .. . R2F : ... .. . ... : ... .. . ... : ... .. . ... : ... .. . ...
ROW 27 : F#4 1F . 400 : ... .. . ... : ... .. . ... : ... .. . ... : ... .. . ...
ROW 28 : D#4 1A D ... : ... .. . ... : ... .. . ... : ... .. . ... : ... .. . ...
ROW 29 : ... .. E ... : ... .. . ... : ... .. . ... : ... .. . ... : ... .. . ...
ROW 2A : ... .. F ... : ... .. . ... : ... .. . ... : ... .. . ... : ... .. . ...
ROW 2B : ... .. . ... : ... .. . ... : ... .. . ... : ... .. . ... : ... .. . ...
ROW 2C : ... .. . ... : ... .. . ... : ... .. . ... : ... .. . ... : ... .. . ...
ROW 2D : G#4 1F . ... : ... .. . ... : ... .. . ... : ... .. . ... : ... .. . ...
ROW 2E : ... .. . ... : ... .. . ... : ... .. . ... : ... .. . ... : ... .. . ...
ROW 2F : ... .. . ... : ... .. . ... : ... .. . ... : ... .. . ... : ... .. . ...
ROW 30 : D#4 1A . ... : ... .. . ... : ... .. . ... : ... .. . ... : ... .. . ...
ROW 31 : ... .. . ... : ... .. . ... : ... .. . ... : ... .. . ... : ... .. . ...
ROW 32 : ... .. . ... : ... .. . ... : ... .. . ... : ... .. . ... : ... .. . ...
ROW 33 : ... .. . ... : ... .. . ... : ... .. . ... : ... .. . ... : ... .. . ...
ROW 34 : ... .. E 424 : ... .. . ... : ... .. . ... : ... .. . ... : ... .. . ...
ROW 35 : ... .. F ... : ... .. . ... : ... .. . ... : ... .. . ... : ... .. . ...
ROW 36 : ... .. . ... : ... .. . ... : ... .. . ... : ... .. . ... : ... .. . ...
ROW 37 : D#4 1F . 400 : ... .. . ... : ... .. . ... : ... .. . ... : ... .. . ...
ROW 38 : F#4 1A D ... : ... .. . ... : ... .. . ... : ... .. . ... : ... .. . ...
ROW 39 : ... .. E ... : ... .. . ... : ... .. . ... : ... .. . ... : ... .. . ...
ROW 3A : ... .. F ... : ... .. . ... : ... .. . ... : ... .. . ... : ... .. . ...
ROW 3B : ... .. . ... : ... .. . ... : ... .. . ... : ... .. . ... : ... .. . ...
ROW 3C : ... .. . ... : ... .. . ... : ... .. . ... : ... .. . ... : ... .. . ...
ROW 3D : D#4 1F . ... : ... .. . ... : ... .. . ... : ... .. . ... : ... .. . ...
ROW 3E : ... .. . ... : ... .. . ... : ... .. . ... : ... .. . ... : ... .. . ...
ROW 3F : ... .. . ... : ... .. . ... : ... .. . ... : ... .. . ... : ... .. . ...

PATTERN 28
ROW 00 : F-4 1A E ... : ... .. . ... : ... .. . ... : ... .. . ... : ... .. . ...
ROW 01 : ... .. F ... : ... .. . ... : ... .. . ... : ... .. . ... : ... .. . ...
ROW 02 : ... .. . ... : ... .. . ... : ... .. . ... : ... .. . ... : ... .. . ...
ROW 03 : ... .. . ... : ... .. . ... : ... .. . ... : ... .. . ... : ... .. . ...
ROW 04 : ... .. . 20A : ... .. . ... : ... .. . ... : ... .. . ... : ... .. . ...
ROW 05 : ... .. . ... : ... .. . ... : ... .. . ... : ... .. . ... : ... .. . ...
ROW 06 : ... .. . ... : ... .. . ... : ... .. . ... : ... .. . ... : ... .. . ...
ROW 07 : ... .. . A01 : ... .. . ... : ... .. . ... : ... .. . ... : ... .. . ...
ROW 08 : F-4 1A . 200 : ... .. . ... : ... .. . ... : ... .. . ... : ... .. . ...
ROW 09 : ... .. . A00 : ... .. . ... : ... .. . ... : ... .. . ... : ... .. . ...
ROW 0A : ... .. . ... : ... .. . ... : ... .. . ... : ... .. . ... : ... .. . ...
ROW 0B : ... .. . ... : ... .. . ... : ... .. . ... : ... .. . ... : ... .. . ...
ROW 0C : ... .. . 20A : ... .. . ... : ... .. . ... : ... .. . ... : ... .. . ...
ROW 0D : ... .. . ... : ... .. . ... : ... .. . ... : ... .. . ... : ... .. . ...
ROW 0E : ... .. . ... : ... .. . ... : ... .. . ... : ... .. . ... : ... .. . ...
ROW 0F : ... .. . A01 : ... .. . ... : ... .. . ... : ... .. . ... : ... .. . ...
ROW 10 : F-4 1A . 200 : ... .. . ... : ... .. . ... : ... .. . ... : ... .. . ...
ROW 11 : ... .. . A00 : ... .. . ... : ... .. . ... : ... .. . ... : ... .. . ...
ROW 12 : ... .. . ... : ... .. . ... : ... .. . ... : ... .. . ... : ... .. . ...
ROW 13 : ... .. . ... : ... .. . ... : ... .. . ... : ... .. . ... : ... .. . ...
ROW 14 : ... .. . 20A : ... .. . ... : ... .. . ... : ... .. . ... : ... .. . ...
ROW 15 : ... .. . ... : ... .. . ... : ... .. . ... : ... .. . ... : ... .. . ...
ROW 16 : ... .. . ... : ... .. . ... : ... .. . ... : ... .. . ... : ... .. . ...
ROW 17 : ... .. . A01 : ... .. . ... : ... .. . ... : ... .. . ... : ... .. . ...
ROW 18 : F-4 1A . 200 : ... .. . ... : ... .. . ... : ... .. . ... : ... .. . ...
ROW 19 : ... .. . A00 : ... .. . ... : ... .. . ... : ... .. . ... : ... .. . ...
ROW 1A : ... .. . ... : ... .. . ... : ... .. . ... : ... .. . ... : ... .. . ...
ROW 1B : ... .. . ... : ... .. . ... : ... .. . ... : ... .. . ... : ... .. . ...
ROW 1C : ... .. . 20A : ... .. . ... : ... .. . ... : ... .. . ... : ... .. . ...
ROW 1D : ... .. . ... : ... .. . ... : ... .. . ... : ... .. . ... : ... .. . ...
ROW 1E : ... .. . ... : ... .. . ... : ... .. . ... : ... .. . ... : ... .. . ...
ROW 1F : === .. . 200 : ... .. . ... : ... .. . ... : ... .. . ... : ... .. . ...
ROW 20 : F-1 09 C V01 : ... .. . ... : ... .. . ... : ... .. . ... : ... .. . ...
ROW 21 : ... .. D A00 : ... .. . ... : ... .. . ... : ... .. . ... : ... .. . ...
ROW 22 : ... .. F ... : ... .. . ... : ... .. . ... : ... .. . ... : ... .. . ...
ROW 23 : ... .. . ... : ... .. . ... : ... .. . ... : ... .. . ... : ... .. . ...
ROW 24 : ... .. . V02 : ... .. . ... : ... .. . ... : ... .. . ... : ... .. . ...
ROW 25 : ... .. . ... : ... .. . ... : ... .. . ... : ... .. . ... : ... .. . ...
ROW 26 : === .. . ... : ... .. . ... : ... .. . ... : ... .. . ... : ... .. . ...
ROW 27 : ... .. . ... : ... .. . ... : ... .. . ... : ... .. . ... : ... .. . ...
ROW 28 : F-1 09 C V01 : ... .. . ... : ... .. . ... : ... .. . ... : ... .. . ...
ROW 29 : ... .. D ... : ... .. . ... : ... .. . ... : ... .. . ... : ... .. . ...
ROW 2A : ... .. F ... : ... .. . ... : ... .. . ... : ... .. . ... : ... .. . ...
ROW 2B : ... .. . ... : ... .. . ... : ... .. . ... : ... .. . ... : ... .. . ...
ROW 2C : ... .. . V02 : ... .. . ... : ... .. . ... : ... .. . ... : ... .. . ...
ROW 2D : ... .. . ... : ... .. . ... : ... .. . ... : ... .. . ... : ... .. . ...
ROW 2E : === .. . ... : ... .. . ... : ... .. . ... : ... .. . ... : ... .. . ...
ROW 2F : ... .. . ... : ... .. . ... : ... .. . ... : ... .. . ... : ... .. . ...
ROW 30 : G-1 09 C ... : ... .. . ... : ... .. . ... : ... .. . ... : ... .. . ...
ROW 31 : ... .. D ... : ... .. . ... : ... .. . ... : ... .. . ... : ... .. . ...
ROW 32 : ... .. F ... : ... .. . ... : ... .. . ... : ... .. . ... : ... .. . ...
ROW 33 : ... .. . ... : ... .. . ... : ... .. . ... : ... .. . ... : ... .. . ...
ROW 34 : ... .. . ... : ... .. . ... : ... .. . ... : ... .. . ... : ... .. . ...
ROW 35 : ... .. . ... : ... .. . ... : ... .. . ... : ... .. . ... : ... .. . ...
ROW 36 : ... .. . ... : ... .. . ... : ... .. . ... : ... .. . ... : ... .. . ...
ROW 37 : ... .. . 201 : ... .. . ... : ... .. . ... : ... .. . ... : ... .. . ...
ROW 38 : ... .. B ... : ... .. . ... : ... .. . ... : ... .. . ... : ... .. . ...
ROW 39 : ... .. D ... : ... .. . ... : ... .. . ... : ... .. . ... : ... .. . ...
ROW 3A : ... .. E 202 : ... .. . ... : ... .. . ... : ... .. . ... : ... .. . ...
ROW 3B : ... .. F ... : ... .. . ... : ... .. . ... : ... .. . ... : ... .. . ...
ROW 3C : ... .. . ... : ... .. . ... : ... .. . ... : ... .. . ... : ... .. . ...
ROW 3D : ... .. . ... : ... .. . ... : ... .. . ... : ... .. . ... : ... .. . ...
ROW 3E : ... .. . ... : ... .. . ... : ... .. . ... : ... .. . ... : ... .. . ...
ROW 3F : ... .. . 200 : ... .. . ... : ... .. . ... : ... .. . ... : ... .. . ...

PATTERN 29
ROW 00 : D#2 08 C P70 : ... .. . ... : ... .. . ... : ... .. . ... : ... .. . ...
ROW 01 : ... .. D ... : ... .. . ... : ... .. . ... : ... .. . ... : ... .. . ...
ROW 02 : ... .. F ... : ... .. . ... : ... .. . ... : ... .. . ... : ... .. . ...
ROW 03 : === .. . ... : ... .. . ... : ... .. . ... : ... .. . ... : ... .. . ...
ROW 04 : E-1 09 . P80 : ... .. . ... : ... .. . ... : ... .. . ... : ... .. . ...
ROW 05 : ... .. . ... : ... .. . ... : ... .. . ... : ... .. . ... : ... .. . ...
ROW 06 : ... .. . ... : ... .. . ... : ... .. . ... : ... .. . ... : ... .. . ...
ROW 07 : ... .. . ... : ... .. . ... : ... .. . ... : ... .. . ... : ... .. . ...
ROW 08 : ... .. B ... : ... .. . ... : ... .. . ... : ... .. . ... : ... .. . ...
ROW 09 : ... .. D ... : ... .. . ... : ... .. . ... : ... .. . ... : ... .. . ...
ROW 0A : ... .. E ... : ... .. . ... : ... .. . ... : ... .. . ... : ... .. . ...
ROW 0B : === .. F ... : ... .. . ... : ... .. . ... : ... .. . ... : ... .. . ...
ROW 0C : E-1 09 . ... : ... .. . ... : ... .. . ... : ... .. . ... : ... .. . ...
ROW 0D : ... .. . ... : ... .. . ... : ... .. . ... : ... .. . ... : ... .. . ...
ROW 0E : ... .. . ... : ... .. . ... : ... .. . ... : ... .. . ... : ... .. . ...
ROW 0F : ... .. . ... : ... .. . ... : ... .. . ... : ... .. . ... : ... .. . ...
ROW 10 : ... .. . ... : ... .. . ... : ... .. . ... : ... .. . ... : ... .. . ...
ROW 11 : ... .. . ... : ... .. . ... : ... .. . ... : ... .. . ... : ... .. . ...
ROW 12 : ... .. . ... : ... .. . ... : ... .. . ... : ... .. . ... : ... .. . ...
ROW 13 : === .. . ... : ... .. . ... : ... .. . ... : ... .. . ... : ... .. . ...
ROW 14 : E-1 09 C ... : ... .. . ... : ... .. . ... : ... .. . ... : ... .. . ...
ROW 15 : ... .. D ... : ... .. . ... : ... .. . ... : ... .. . ... : ... .. . ...
ROW 16 : === .. F ... : ... .. . ... : ... .. . ... : ... .. . ... : ... .. . ...
ROW 17 : ... .. . ... : ... .. . ... : ... .. . ... : ... .. . ... : ... .. . ...
ROW 18 : E-1 09 B ... : ... .. . ... : ... .. . ... : ... .. . ... : ... .. . ...
ROW 19 : ... .. D ... : ... .. . ... : ... .. . ... : ... .. . ... : ... .. . ...
ROW 1A : ... .. E ... : ... .. . ... : ... .. . ... : ... .. . ... : ... .. . ...
ROW 1B : === .. F ... : ... .. . ... : ... .. . ... : ... .. . ... : ... .. . ...
ROW 1C : D-1 09 . P72 : ... .. . ... : ... .. . ... : ... .. . ... : ... .. . ...
ROW 1D : ... .. . ... : ... .. . ... : ... .. . ... : ... .. . ... : ... .. . ...
ROW 1E : ... .. . ... : ... .. . ... : ... .. . ... : ... .. . ... : ... .. . ...
ROW 1F : === .. . ... : ... .. . ... : ... .. . ... : ... .. . ... : ... .. . ...
ROW 20 : E-1 09 B P80 : ... .. . ... : ... .. . ... : ... .. . ... : ... .. . ...
ROW 21 : ... .. D ... : ... .. . ... : ... .. . ... : ... .. . ... : ... .. . ...
ROW 22 : === .. E ... : ... .. . ... : ... .. . ... : ... .. . ... : ... .. . ...
ROW 23 : ... .. F ... : ... .. . ... : ... .. . ... : ... .. . ... : ... .. . ...
ROW 24 : E-1 09 A ... : ... .. . ... : ... .. . ... : ... .. . ... : ... .. . ...
ROW 25 : ... .. . ... : ... .. . ... : ... .. . ... : ... .. . ... : ... .. . ...
ROW 26 : === .. . ... : ... .. . ... : ... .. . ... : ... .. . ... : ... .. . ...
ROW 27 : ... .. . ... : ... .. . ... : ... .. . ... : ... .. . ... : ... .. . ...
ROW 28 : E-1 09 6 ... : ... .. . ... : ... .. . ... : ... .. . ... : ... .. . ...
ROW 29 : ... .. . ... : ... .. . ... : ... .. . ... : ... .. . ... : ... .. . ...
ROW 2A : === .. . ... : ... .. . ... : ... .. . ... : ... .. . ... : ... .. . ...
ROW 2B : ... .. . ... : ... .. . ... : ... .. . ... : ... .. . ... : ... .. . ...
ROW 2C : E-1 09 3 ... : ... .. . ... : ... .. . ... : ... .. . ... : ... .. . ...
ROW 2D : ... .. . ... : ... .. . ... : ... .. . ... : ... .. . ... : ... .. . ...
ROW 2E : === .. . ... : ... .. . ... : ... .. . ... : ... .. . ... : ... .. . ...
ROW 2F : ... .. . ... : ... .. . ... : ... .. . ... : ... .. . ... : ... .. . ...
ROW 30 : ... .. . ... : ... .. . ... : ... .. . ... : ... .. . ... : ... .. . ...
ROW 31 : ... .. . ... : ... .. . ... : ... .. . ... : ... .. . ... : ... .. . ...
ROW 32 : ... .. . ... : ... .. . ... : ... .. . ... : ... .. . ... : ... .. . ...
ROW 33 : ... .. . ... : ... .. . ... : ... .. . ... : ... .. . ... : ... .. . ...
ROW 34 : ... .. . ... : ... .. . ... : ... .. . ... : ... .. . ... : ... .. . ...
ROW 35 : ... .. . ... : ... .. . ... : ... .. . ... : ... .. . ... : ... .. . ...
ROW 36 : ... .. . ... : ... .. . ... : ... .. . ... : ... .. . ... : ... .. . ...
ROW 37 : ... .. . ... : ... .. . ... : ... .. . ... : ... .. . ... : ... .. . ...
ROW 38 : ... .. . ... : ... .. . ... : ... .. . ... : ... .. . ... : ... .. . ...
ROW 39 : ... .. . ... : ... .. . ... : ... .. . ... : ... .. . ... : ... .. . ...
ROW 3A : ... .. . ... : ... .. . ... : ... .. . ... : ... .. . ... : ... .. . ...
ROW 3B : ... .. . ... : ... .. . ... : ... .. . ... : ... .. . ... : ... .. . ...
ROW 3C : ... .. . ... : ... .. . ... : ... .. . ... : ... .. . ... : ... .. . ...
ROW 3D : ... .. . ... : ... .. . ... : ... .. . ... : ... .. . ... : ... .. . ...
ROW 3E : ... .. . ... : ... .. . ... : ... .. . ... : ... .. . ... : ... .. . ...
ROW 3F : ... .. . ... : ... .. . ... : ... .. . ... : ... .. . ... : ... .. . ...

PATTERN 7F
ROW 00 : ... .. . ... : D-1 0E F ... : ... .. . ... : ... .. . ... : ... .. . ...
ROW 01 : ... .. . ... : === .. . G03 : ... .. . ... : ... .. . ... : ... .. . ...
ROW 02 : ... .. . ... : ... .. . ... : ... .. . ... : ... .. . ... : ... .. . ...
ROW 03 : ... .. . ... : D-1 0E . G03 : ... .. . ... : ... .. . ... : ... .. . ...
ROW 04 : ... .. . ... : ... .. . ... : ... .. . ... : ... .. . ... : ... .. . ...
ROW 05 : ... .. . ... : === .. . G01 : ... .. . ... : ... .. . ... : ... .. . ...
ROW 06 : ... .. . ... : ... .. . ... : ... .. . ... : ... .. . ... : ... .. . ...
ROW 07 : ... .. . ... : D-1 0E . ... : ... .. . ... : ... .. . ... : ... .. . ...
ROW 08 : ... .. . ... : === .. . G03 : ... .. . ... : ... .. . ... : ... .. . ...
ROW 09 : ... .. . ... : ... .. . ... : ... .. . ... : ... .. . ... : ... .. . ...
ROW 0A : ... .. . ... : D-1 0E . G03 : ... .. . ... : ... .. . ... : ... .. . ...
ROW 0B : ... .. . ... : ... .. . ... : ... .. . ... : ... .. . ... : ... .. . ...
ROW 0C : ... .. . ... : === .. . G01 : ... .. . ... : ... .. . ... : ... .. . ...
ROW 0D : ... .. . ... : ... .. . ... : ... .. . ... : ... .. . ... : ... .. . ...
ROW 0E : ... .. . ... : D-1 0E . ... : ... .. . ... : ... .. . ... : ... .. . ...
ROW 0F : ... .. . ... : === .. . G03 : ... .. . ... : ... .. . ... : ... .. . ...
ROW 10 : ... .. . ... : ... .. . ... : ... .. . ... : ... .. . ... : ... .. . ...
ROW 11 : ... .. . ... : D-1 0E . G03 : ... .. . ... : ... .. . ... : ... .. . ...
ROW 12 : ... .. . ... : ... .. . ... : ... .. . ... : ... .. . ... : ... .. . ...
ROW 13 : ... .. . ... : === .. . G01 : ... .. . ... : ... .. . ... : ... .. . ...
ROW 14 : ... .. . ... : ... .. . ... : ... .. . ... : ... .. . ... : ... .. . ...
ROW 15 : ... .. . ... : ... .. . ... : ... .. . ... : ... .. . ... : ... .. . ...
ROW 16 : ... .. . ... : ... .. . ... : ... .. . ... : ... .. . ... : ... .. . ...
ROW 17 : ... .. . ... : ... .. . ... : ... .. . ... : ... .. . ... : ... .. . ...
ROW 18 : ... .. . ... : ... .. . ... : ... .. . ... : ... .. . ... : ... .. . ...
ROW 19 : ... .. . ... : ... .. . ... : ... .. . ... : ... .. . ... : ... .. . ...
ROW 1A : ... .. . ... : ... .. . ... : ... .. . ... : ... .. . ... : ... .. . ...
ROW 1B : ... .. . ... : ... .. . ... : ... .. . ... : ... .. . ... : ... .. . ...
ROW 1C : ... .. . ... : ... .. . ... : ... .. . ... : ... .. . ... : ... .. . ...
ROW 1D : ... .. . ... : ... .. . ... : ... .. . ... : ... .. . ... : ... .. . ...
ROW 1E : ... .. . ... : ... .. . ... : ... .. . ... : ... .. . ... : ... .. . ...
ROW 1F : ... .. . ... : ... .. . ... : ... .. . ... : ... .. . ... : ... .. . ...
ROW 20 : ... .. . ... : ... .. . ... : ... .. . ... : ... .. . ... : ... .. . ...
ROW 21 : ... .. . ... : ... .. . ... : ... .. . ... : ... .. . ... : ... .. . ...
ROW 22 : ... .. . ... : ... .. . ... : ... .. . ... : ... .. . ... : ... .. . ...
ROW 23 : ... .. . ... : ... .. . ... : ... .. . ... : ... .. . ... : ... .. . ...
ROW 24 : ... .. . ... : ... .. . ... : ... .. . ... : ... .. . ... : ... .. . ...
ROW 25 : ... .. . ... : ... .. . ... : ... .. . ... : ... .. . ... : ... .. . ...
ROW 26 : ... .. . ... : ... .. . ... : ... .. . ... : ... .. . ... : ... .. . ...
ROW 27 : ... .. . ... : ... .. . ... : ... .. . ... : ... .. . ... : ... .. . ...
ROW 28 : ... .. . ... : ... .. . ... : ... .. . ... : ... .. . ... : ... .. . ...
ROW 29 : ... .. . ... : ... .. . ... : ... .. . ... : ... .. . ... : ... .. . ...
ROW 2A : ... .. . ... : ... .. . ... : ... .. . ... : ... .. . ... : ... .. . ...
ROW 2B : ... .. . ... : ... .. . ... : ... .. . ... : ... .. . ... : ... .. . ...
ROW 2C : ... .. . ... : ... .. . ... : ... .. . ... : ... .. . ... : ... .. . ...
ROW 2D : ... .. . ... : ... .. . ... : ... .. . ... : ... .. . ... : ... .. . ...
ROW 2E : ... .. . ... : ... .. . ... : ... .. . ... : ... .. . ... : ... .. . ...
ROW 2F : ... .. . ... : ... .. . ... : ... .. . ... : ... .. . ... : ... .. . ...
ROW 30 : ... .. . ... : ... .. . ... : ... .. . ... : ... .. . ... : ... .. . ...
ROW 31 : ... .. . ... : ... .. . ... : ... .. . ... : ... .. . ... : ... .. . ...
ROW 32 : ... .. . ... : ... .. . ... : ... .. . ... : ... .. . ... : ... .. . ...
ROW 33 : ... .. . ... : ... .. . ... : ... .. . ... : ... .. . ... : ... .. . ...
ROW 34 : ... .. . ... : ... .. . ... : ... .. . ... : ... .. . ... : ... .. . ...
ROW 35 : ... .. . ... : ... .. . ... : ... .. . ... : ... .. . ... : ... .. . ...
ROW 36 : ... .. . ... : ... .. . ... : ... .. . ... : ... .. . ... : ... .. . ...
ROW 37 : ... .. . ... : ... .. . ... : ... .. . ... : ... .. . ... : ... .. . ...
ROW 38 : ... .. . ... : ... .. . ... : ... .. . ... : ... .. . ... : ... .. . ...
ROW 39 : ... .. . ... : ... .. . ... : ... .. . ... : ... .. . ... : ... .. . ...
ROW 3A : ... .. . ... : ... .. . ... : ... .. . ... : ... .. . ... : ... .. . ...
ROW 3B : ... .. . ... : ... .. . ... : ... .. . ... : ... .. . ... : ... .. . ...
ROW 3C : ... .. . ... : ... .. . ... : ... .. . ... : ... .. . ... : ... .. . ...
ROW 3D : ... .. . ... : ... .. . ... : ... .. . ... : ... .. . ... : ... .. . ...
ROW 3E : ... .. . ... : ... .. . ... : ... .. . ... : ... .. . ... : ... .. . ...
ROW 3F : ... .. . ... : ... .. . ... : ... .. . ... : ... .. . ... : ... .. . ...

# End of export
