# FamiTracker text export 0.4.2

# Song information
TITLE           "#5 Destroyer X-Ray"
AUTHOR          "HertzDevil (80 Hz)"
COPYRIGHT       "(CC) 2013 - 2016"

# Song comment
COMMENT         ""
# Global settings
MACHINE         0
FRAMERATE       0
EXPANSION       4
VIBRATO         1
SPLIT           32

# Macros
MACRO       4    0   -1   -1   0 : 1
MACRO       4    1   -1   -1   0 : 2
MACRO       4    2   -1   -1   0 : 3

# DPCM samples
DPCMDEF   0   560 "Sample 1"
DPCM : 03 05 00 00 00 00 00 00 00 00 00 00 00 00 00 00 00 00 F0 FF FF FF FF FF FF FF FF FF FF FF FF FF FF FF FF FF FF FF FF 01 00 10 00 00 00 00 18 C0 01 06 78 F0 F3 0F FF 07 FF 7D FE FF 9E EB 03 DF 25 C8 83 FB 40 B1 40 2A 7C 00 03 E0 20 58 80 21 08 F0 00 00 00 00 00 00 00 C1 D7 7F 3F FE D3 FE EA CD BF AD BC B0 1B C6 AB 48 16 E0 C0 45 10 49 B0 C8 AA 54 D5 72 AF 6F 5F 5F BE 5F BF B9 CF B6 C5 9B 12 32 38 0C 49 0A A8 40 A5 28 70 41 B9 64 91 55 6D F5 74 4B D5 A2 AE 5E 55 5B 9A D5 50 AD 52 B5 AC 56 D1 54 36 B5 D5 6D B7 AA CE B8 55 ED E6 AA D5 49 2D 25 AB CA 4A AA 24 29 52 99 8A 4A D2 54 94 92 B0 D4 34 AA A2 AA AA A8 B4 4A 75 D2 B2 6A 63 B5 AA AB B6 B6 55 AD AD 9E 55 57 6D AB 75 B5 B2 56 99 B2 22 5A 94 49 19 42 4A 49 89 B0 62 92 8A 92 63 59 D5 AC 36 B5 AA 8B 2E 6D 6D 79 74 D5 4A 5B A9 55 5A B5 AA 6A A9 45 D5 AA 5A B5 6A 53 55 56 D5 2A 1B 4D 5B 29 55 A5 55 15 A5 2A A5 B2 A8 49 55 55 29 59 94 45 55 AA 54 A5 AA 69 AA 6A 5A AD 55 AB 56 D5 5A B5 A9 55 B5 AA 9A 5A 55 AB A9 AC AA AA AA D4 54 55 A5 44 55 95 65 55 AA AA 6A D2 2A AD AA 56 55 55 55 53 B5 AA AA 96 5A 55 59 AA C9 4A 53 AA 54 55 15 85 52 15 4B A9 54 A5 2A AD 54 35 D5 AA A6 55 9D 56 6B D9 AA 4E AB 56 56 55 AD AC D2 4A 2D B3 2C AD AA A8 2A AB 9A 5A 55 55 AB 96 55 55 33 B5 AA 96 6A AA 85 AA AC 54 95 A6 AC 92 96 AA 54 55 55 6A AA 4A 55 AA 48 2D 55 5A A9 AA AA AA A6 56 5A 55 D5 6A DA AA 5A 55 55 AB 55 AD AA 65 55 55 55 45 55 AA CA 54 A9 2A 55 55 A9 AA AA AA AA AA 9A AA 56 6A 55 55 55 55 55 55 55 55 55 55 55 55 55 45 55 2B 35 55 55 55 55 55 D3 AA AC AA AA AA AA 95 A6 AA AA AA 2A 55 55 55 55 55 A5 95 AA AA AA 6A AA AA AA AA AA AA 5A 6A 59 55 55 55 55 55 55 AD AA AA 6A A9 A9 AA AA AA 4A 55 55 55 55 55 51 45 55 55 55 55
DPCMDEF   1   176 "Sample 2"
DPCM : FF F9 FF FF FF FF FF FF FF FF 8B 40 00 10 00 00 FF F9 FF FF FF FF FF FF FF FF 8B 40 00 10 00 00 00 00 48 24 09 00 00 00 00 00 00 BE FF FF FF FF FF FF 7F B7 FF FF FF FF FF FF FF FF FF 11 00 02 00 00 04 00 21 88 24 49 00 00 00 00 00 00 00 00 00 74 77 EF DD 7B 77 EF DD BB DD 6D DB B6 B6 5A 6B B5 6A D5 6A B5 5A AD 5A 55 FD AA 2A 95 92 24 89 44 44 84 10 21 04 21 04 21 44 22 25 A5 00 00 00 00 00 00 00 00 00 00 74 77 EF 7D EF 7D DF 77 EF DD DD 6D 5B 6B AD 56 55 A5 4A 29 25 25 49 12 49 92 48 92 28 91 92 A4 A0 94 52 A1 52 55 45 55
DPCMDEF   2  2080 "Sample 3"
DPCM : 57 55 55 55 55 55 55 55 F5 7F 61 77 00 00 10 F0 FF FF FF BF 31 00 00 00 0E 00 F0 01 F0 FF FF FD FF FF FF 9F E0 C3 9B 02 84 00 80 19 00 00 00 00 9A EA FF FF FF FF FF FF 3F 03 49 22 00 00 00 00 00 A0 B5 FF BD FF FF FF FF FF AB AA 00 00 0F 01 00 00 00 80 D9 EF F6 F7 FF FF FF FF A7 99 2A 60 03 40 04 00 00 00 00 CE 7E 3E CF F7 E7 FF FF F7 F7 AA C0 80 01 00 81 01 00 72 1C 20 9D B9 BF F7 D8 7F DF FF FF 00 77 03 23 00 00 08 00 EC 37 60 0C DC 73 F4 7F FE FF BF 3F 63 18 C0 01 63 0C C0 00 33 23 20 33 77 DE F0 CF FD FD BB F7 83 0F D0 03 06 83 3C 00 20 A4 C0 1F F3 DF FC 17 C8 FD 67 FF 90 DD B9 11 40 00 31 26 63 C6 C0 C2 CD 3D F0 9F 7F 97 79 C6 E6 0C 0E 9E 21 1F 19 46 90 19 26 39 C7 8C 33 7F 72 7E 04 F9 97 0F 3F 8C B9 07 20 16 88 1C C6 D8 19 7F 98 71 86 FE C5 EF B8 73 C2 B8 C1 1C 67 38 03 30 66 66 14 B3 67 9C D9 47 D0 77 61 F6 83 1F CB 33 D3 18 C2 70 80 1D 63 0E D9 1F B8 CC 2C 9D 9F C1 DF 8C 72 C1 32 1E 23 41 5F 24 C7 8C 8D 1F 1C 63 47 CE 37 78 C4 7C C3 7B 4E E6 1A 8C 39 C6 1C 30 7A 64 1C 25 9E CC 79 66 1C F7 E6 31 67 CE 8C 33 38 60 1C 31 8E 9D 31 8E 9C 47 3C 66 E6 2C F7 CC CD D9 E0 59 4E 63 8C 63 A0 89 31 C6 65 5E 3C 71 D6 DC 73 CC 7C C6 33 C6 32 23 47 28 CE D2 31 4B 6D E2 45 34 27 CE 79 74 E1 C7 63 C7 4C E6 0C 73 CC 82 17 31 B3 54 31 C7 5C 9C 7B F4 8E 99 47 EA 78 74 46 99 99 84 47 D4 92 33 D3 9C 19 A7 57 70 37 54 72 FC 98 99 D9 E4 28 33 33 33 58 CC CC 0C DB 8A 9D B8 E5 B3 A9 3C 73 10 B7 E5 C8 99 6C 44 B1 C5 CA 72 34 B5 17 19 77 70 32 7B 74 17 C7 99 1A 1D F8 E0 C3 85 A6 79 48 CD 9A C9 CC 5A 76 B5 3C 6A 59 E1 70 29 33 64 C5 66 CC 76 A1 16 73 72 CC B1 E9 B5 89 63 44 F6 CC 2C 73 F0 0C 99 17 66 55 6A 96 1D 29 AB 69 EA 85 47 3E 57 39 D5 98 6A 54 43 CC 1A D5 CC 52 8D 66 96 65 65 DC CD F0 1A 27 A7 51 55 1D 55 58 72 B2 98 66 66 5E D3 44 A5 A9 76 E1 2B 1B AB 66 D1 44 59 46 6C B2 CA 3E 98 F1 83 17 F6 B2 CA 4C 74 6D CC 52 51 99 5A A5 AA AA 9A 59 66 DE D4 2C 33 33 CD C2 4B 61 8A D4 6A 66 5A E9 55 55 83 69 59 75 13 4F 55 4D 45 55 A5 6A 69 37 15 79 F8 60 6A 59 95 66 47 CF 2A CB 0A E5 0D 99 99 A9 AA AA 69 3E 68 D7 54 C3 1D 61 F5 C4 4D 4D 54 A6 76 15 75 D8 4D 33 A8 6A 56 D5 55 4D A1 A6 AA 1E 6C D6 AB 95 AA 6C 42 57 15 99 A9 A5 55 AA 6A A6 55 5A D6 33 55 71 45 55 5D B5 D4 4C 91 55 A9 AA 9A C6 6A A9 A9 37 54 76 55 55 D5 4C AD B2 AA 55 2A 15 A9 A9 CA 56 AA AA 2A 6B A6 5A 55 D7 B2 9A C6 4C 55 D5 14 95 A9 9A AA AA 2A CD AA AA 55 F6 54 33 74 4D B5 D1 AA AA D2 54 43 96 AA AA B2 A6 AA 99 AA AA AA D6 2D 67 25 6D CA 52 AB 54 55 61 A6 9A AA AA AA 96 5A 55 1D 55 55 DE C4 15 BD 5A B1 D2 34 45 96 AA 2A 97 31 D3 9C AA 66 55 55 AF 32 2B CB 54 AD AA 4A CB 84 65 AA AA 9A AA AA AA AA 6A 75 D5 D4 D2 AA AA AA AA 54 15 AA 5D 64 55 AA CC CC D2 AA AA 69 D9 D3 AA AA 66 5A A5 2A 55 55 58 AA 45 53 4D B5 72 A6 9A 55 3D 35 4B AB 2A AB 55 A9 B2 54 A8 AA 4A D5 CC 52 AD AC AA D9 D5 AC AC 69 55 55 AA C9 54 4D 15 AA AA 52 33 B5 AA 96 55 D7 2A 55 AD A9 A6 2A AB D4 54 A8 AA AA AA 2A AB 19 6B 55 5D 2B AB AA A6 AA B2 4C 2D 55 45 AA AA AA AA AA AA 99 7A D5 54 4B 55 55 D1 53 4B 33 55 55 15 59 AA AA CA AA AA A9 AC AA 57 15 5A 57 CB 34 55 2D 33 53 35 D5 54 85 6A A6 6A 95 A9 E6 4D AD 52 0D 55 55 55 55 5E 55 55 54 95 9A A9 AA 9A 69 57 55 AB 2A 55 53 5C 4D 4D 51 A5 AA 5A A6 AC 69 66 56 55 D5 AB 32 53 53 55 D5 2A 64 A5 6A CA AA AA 96 75 D5 2C D5 6A A6 96 32 CD 54 85 9A AA AA 2C B5 AA AA 55 D5 AD B4 CC B4 D2 AA B2 54 55 A4 A9 AA 9A 66 D5 55 A1 A9 5A 55 D5 CB AA AA 9A A9 CA 4C 55 85 AA AC AA AA AA AA 5A A5 55 5D 4D 53 55 55 D5 32 33 4D 4D A1 59 5A 5A AA AA 9A 6A 5A AA 6A 55 55 55 55 D5 AB 32 4D 55 45 AA AA 66 6A AA AA 55 56 6A 55 D9 CD AA AA AA 54 55 33 55 A1 AA A9 56 AA AA AA AA AA 75 55 CD D4 4A AD 2C AD AC B2 D4 4C A1 AA CC B4 A9 A6 6A 75 55 55 53 CD 4C B3 D4 52 45 55 17 65 65 56 55 69 D5 2D 53 55 55 4D 15 D5 D5 4C 15 5A 59 59 55 DD 54 53 45 55 55 95 55 A9 17 69 A5 56 95 AA 56 66 55 56 4F 2B CD 54 51 57 54 75 51 95 A9 66 65 55 F5 4C B3 4C 55 D5 54 B5 4A 2D 55 55 A1 AA AA 6A CC B4 AA A6 5A 65 55 4F CD 6A 9A AA 51 AB 4C 51 A9 AA 6A CA 6A AC AA AA A5 5A 55 DD 4C AB 66 2A 55 55 35 4D 55 45 A9 AA 2A B3 AA 5A 55 57 4D B3 AA 9A 96 26 53 15 A9 AA 32 AB 2A D3 AA 6A 55 55 BD B4 32 4D AB AA A9 CA 52 A8 AA AA AA AA AA 9A 6A 5A 56 55 BD 5A 34 AB 2A 4D 55 55 55 55 85 6A A9 6A 95 AA 5A AA 55 47 DD 54 55 55 53 2D 33 AD 54 55 A8 AA AA 6A AA 65 99 6A 55 55 D5 CD 2A CB 52 2D 4D 53 D5 54 94 AA 96 A9 AA 6A AA 96 5A 55 75 D3 AA B2 54 55 A8 AA A5 AA 6A A9 AA 96 59 55 5D CD 34 4D 35 4B 55 D5 54 55 15 55 AA 5A 96 55 65 59 57 55 55 CD 4C 4B D3 54 55 85 A5 65 A9 AA 9A AA 9A 55 55 3D 53 2D D3 54 55 45 55 55 55 D5 55 53 15 55 65 D6 15 56 55 56 55 55 55 75 55 55 55 4D 55 A1 99 69 55 55 6A AA 96 55 5D 35 55 45 55 D5 4D 55 55 15 5A 55 55 95 9A A6 AA AA 55 55 D5 4D 55 55 D3 32 4B 55 55 55 58 95 5A AA 5A 6A 55 55 57 CD 4C 55 4D 55 55 55 A1 59 55 56 5A A5 AA A5 56 55 DD 54 4B 53 51 55 55 95 66 55 55 55 59 55 75 CD 4C 4D 13 55 59 55 55 95 55 96 55 69 55 57 53 B5 2A 4D 55 4B 55 A8 AA A6 6A 96 6A 99 9A 56 55 75 33 55 55 D5 54 D5 D4 54 55 A8 AA AA AA A6 5A 56 55 A5 D5 35 55 AB B2 AA 34 35 13 55 A5 AA AA 9A AA AA AA 5A A9 6A 55 55 5D 53 B5 B4 2A 55 53 55 15 AA 6A AA AA 6A 95 AA 6A 65 55 5D 55 55 D5 AA AA D2 34 55 55 55 45 A9 AA AA 6A 9A 55 55 55 75 55 55 B5 54 AD AA 4C 55 A8 96 AA AA AA AA AA AA 55 55 55 D5 55 CB 2A AD AA 52 55 85 A8 AA AA AA AA AA AA 96 65 5D B3 B4 CC AA AA B2 54 55 4D 55 55 55 A1 AA AA AA AA 6A 75 55 35 55 55 55 55 35 4D 55 85 55 A5 AA AA AA AA AA 5A 56 55 55 75 4D 33 55 55 AB 4C CD 54 4D 55 A1 56 AA AA AA 9A 6A 5A 55 D7 34 55 55 35 2B D3 54 35 55 55 51 A9 95 A6 9A 6A 95 55 5A 55 D5 55 D5 4C 55 4D 55 55 55 55 45 59 69 AA 9A 55 55 55 55 55 55 55 57 55 55 55 55 D3 54 55 55 4D 55 55 55 55 55 55 15 6A 66 55 56 66 55 95 55 D7 CC 34 55 55 55 55 55 61 9A A9 5A 95 AA 6A 75 55 D5 D4 54 53 53 D5 54 55 55 55 91 95 6A 95 55 A9 95 55 55 5D D5 54 55 55 55 55 55 55 55 55 55 55 55 55 55 54 6A 55 95 55 59 55 55 55 37 55 D5 54 55 D5 52 CD 52 55 45 A5 AA A6 AA 5A 9A 55 D5 55 35 D5 4A 55 35 2B D3 34 15 96 AA AA AA AA AA 5A AA 55 F5 D4 54 55 2D 33 55 53 55 55 15 AA AA 6A A6 AA AA 56 55 55 5D D3 AA AA AA CC 32 4D 55 55 A1 AA AA 6A AA AA 5A 55 D5 55 55 35 4D D3 52 55 53 55 55 55 61 AA 6A AA AA 6A 56 59 4F 4D 55 D5 32 4D 55 55 55 55 85 A5 AA 6A AA AA 96 55 55 55 55 55 55 D5 53 D3 34 4D D5 54 55 A1 AA AA AA AA 5A 65 55 55 55 55 D5 35 35 55
DPCMDEF   3  1120 "Sample 4"
DPCM : FF 3F 00 00 00 00 10 82 8F F9 FF 37 F9 9F ED FF 83 40 00 90 1F 10 00 00 80 FF 8D FD EB FF FF FF FF FF 08 C0 06 00 00 00 80 10 9F FB F8 FF FF BF 77 71 D4 51 08 18 00 01 20 E8 2B 1F 7C F0 FF FF FF CF 31 74 DC 56 00 00 00 20 E0 36 F3 59 C5 5F FE FF FF 2C B3 26 7C 01 00 08 01 08 42 39 BD 3F FA 7F FF FF AD 66 72 54 55 08 18 00 00 30 C2 32 7D D6 EE FF FF FF 5D 4B A5 50 55 02 09 00 00 58 65 A0 4E FD 5F FF FF F7 BD 56 56 69 14 04 0A 00 40 20 2C C6 B9 FE BF 7E FF 7F 59 AF 4A A8 52 84 28 0A 04 D0 08 42 96 AB FE FB EF FF 7F B5 92 09 84 22 00 55 03 21 AD 62 CD AA 52 FF D3 B6 BE 5F EF 53 85 AC 04 AA 00 0A 80 52 AA 66 AA AB AF BD 5A BF D7 DA 4B 53 B5 4C 30 55 02 10 0A 92 09 99 5A BF BD D5 AF FF F4 75 35 B5 52 05 A1 00 04 04 8A A4 60 A9 ED FF F7 ED FF 57 DF 7A 0A 95 12 40 02 08 80 A0 40 55 B5 B6 FE FF FD FF FD AA AF 52 41 4A 00 82 00 00 08 84 2A 5B DF FE FF FF FF DF D7 AA 94 80 04 41 02 08 40 81 A0 54 D5 DA FE 7F FF FF F7 EB 2B 95 A0 40 90 02 48 50 90 90 0A 55 B5 D5 BE FF FB DF D7 57 AD 2A 95 04 41 02 48 10 28 94 42 69 AD B7 FF 7D BF D7 F7 56 55 D5 52 12 40 82 20 00 02 48 85 56 6F FB FF FF FF 7F 7B AB 54 A5 10 01 04 00 04 82 40 A1 6A 7D FB FE FF FF 7D DF 7A 55 A5 90 12 04 02 00 00 82 14 AA DA DB FF FF FF F7 5F AB 57 29 A4 04 81 20 10 04 42 0A A9 96 EA BF FF ED FB F6 5A 55 A9 54 A1 52 A9 50 0A 52 50 48 A5 AA AA D6 D6 BF ED EB AB 55 55 55 A9 2A 55 2A 94 0A 29 85 54 48 95 AA 6A B5 F6 F6 ED 3B DB D7 AB 6A AA 14 04 01 48 00 42 42 55 D5 EA FA 7E FF FB F6 D5 5B 55 95 4A 10 92 00 12 80 20 A4 AA 6A FB 7E FF FF F7 BD 55 4B 95 14 84 24 08 12 10 52 0A A5 6A AD B7 7D DF BE 6F BD AA 95 2A 85 52 0A 25 94 14 4A 85 12 55 D5 6A BD F5 B6 BE 7A AD 6A 55 55 A5 4A A5 90 82 14 12 4A 55 5A D5 1A 6F 6F ED AD D7 AA 56 55 55 A9 4A A5 A0 90 84 84 94 2A B4 EA 6B DF B7 AF 6D BD 5A 95 AA 14 52 42 42 52 50 28 55 A9 56 AD F6 F6 AD AF AF 56 BD 0A 55 28 A5 90 42 4A 85 52 A1 AA AA 6A F5 F6 DA 7A EB D5 AA AA 2A 55 AA 10 2A 54 AA 54 85 AA 52 55 B5 AA D5 6B AD DE EA 55 AB AA 52 55 AA 50 2A A4 52 21 55 A8 AA AA D5 5B 6F EB EB AD 56 55 55 A9 52 0A 29 A4 14 52 A1 AA AA 6A F5 D6 5B 7B EB AD 6A 55 95 2A 95 0A 29 A4 54 48 15 AA AA 56 BD D6 5B EB AD 5E B5 AA 52 55 AA 50 AA 50 AA 42 55 A8 AA AA AA 56 F5 6A B5 EA D5 AA 7A 55 55 A5 AA 50 A9 50 2A 55 A8 52 55 D5 AA 56 AF B5 7A AD 7A 55 AD 52 55 A5 42 29 A4 52 28 15 AA AA 56 BD F5 D6 7A AB D6 AA AA AA 52 A5 42 0A 29 15 4A 55 55 55 B5 5A BD A5 7A AB 57 55 55 55 A9 42 A5 42 A9 52 55 A1 AA AA 55 D4 AB 56 AD EA 55 AB AA AA AA 2A 55 A5 2A 54 A5 AA 42 55 55 55 55 B5 AA 56 B5 AA 57 B5 AA AA AA AA 54 95 AA 50 A9 52 15 AA AA AA 55 BD 56 AB D7 AA 5E 55 55 A5 2A 94 2A 94 2A 55 85 AA AA 6A 55 AF 56 AD 5E AD AA 5E A5 AA 42 95 2A 54 AA 4A 55 55 55 55 AD AA 56 B5 AA 5E 55 55 55 55 55 A9 AA 2A 54 55 A5 AA AA AA AA AA AA 6A 55 55 AB AA EA 55 55 55 55 55 55 AA 2A 54 A5 AA 12 55 55 55 B5 AA 56 AD EA 55 AD AA AA 2A 55 95 AA 50 A9 2A 55 55 55 55 95 AA 56 B5 EA 55 AB AA AA 2A 55 A5 2A 54 A9 AA 54 55 55 D5 AA AA 55 AD AA 57 55 55 55 55 95 AA AA 50 55 55 A5 AA AA AA AA AA 5A 55 55 B5 AA AA 3A 55 55 55 A9 AA AA 2A 54 55 55 AA AA AA AA AA 6A 55 55 AB AA 5E 55 55 15 55 55 AA 2A 54 95 AA AA AA AA AA AA 5A 55 AB AA 57 55 55 55 55 55 AA 2A 54 55 A9 AA AA AA AA 6A 55 55 AB AA AA 5E 55 55 55 AA AA AA 2A 54 55 15 55 55 55 55 55 55 55 55 B5 AA AA AA AA AA AA AA AA AA AA 52 55 55 55 A9 AA AA AA 56 55 55 AD AA AA 5E 55 55 55 A9 AA AA 50 55 55 55 55
DPCMDEF   4   400 "Sample 5"
DPCM : A9 02 3F 30 FC E3 C3 43 4B E6 EF F9 87 F7 87 FB 00 00 00 00 00 00 00 00 EC FF FF FF FF FF FF 03 00 00 00 00 00 80 FF FF FF FF FF FF FF FF FF 01 00 00 00 00 F8 FF FF FF FF FF FF FF FF 3F 00 00 00 00 00 00 E0 FF FF FF FF 1F 00 00 00 00 00 D8 FF FF 7F 00 00 FF E1 07 0F FF FF FF 1F 78 08 3B 4E 00 00 02 00 00 00 00 FD FF FF FF 3F 01 00 04 30 7F 03 FF 0F 30 C0 FF 8F F7 C7 01 FE 3F 00 00 00 00 BA 01 F0 FF FF FF FF 03 18 00 00 80 E3 8E 03 78 22 C3 0B CC FF FF FF FF 07 00 00 23 0C E0 0E 00 00 00 00 FC BF FF FE 1F 39 20 00 00 00 00 00 00 00 00 B0 F0 73 AE E7 28 E0 1F 80 00 00 00 00 00 00 00 00 00 1E 7E 1F EC 33 D3 34 50 1A 00 00 00 00 00 00 A0 9F DF 0C F9 81 91 FA 81 1F 38 20 E2 11 88 07 88 A0 E2 CB 67 F8 F3 70 44 1A 0A 07 80 28 00 A0 3F F0 32 C3 AD DE DB 78 E1 CC 1C 02 F7 60 7C CB BC 1A BA F0 AA BE AA AA 63 F0 04 EA AA C1 2B 1F D2 6F E6 92 C3 AA 82 B7 32 CB 4A 5B 95 6E AA 69 07 A7 8A 32 68 74 1C 5C B3 6F C7 5A 7D 8E C5 90 2A C0 34 D1 D1 CC 2E EE 9B D7 D7 64 05 EA 21 10 6C 1A AD 12 DF EC 7D 65 DE 54 78 28 AA AA AA A0 CA FA AB AA AA 66 A6 D0 A0 B2 2C AB FA 6A 82 5A AA 2A A0 AA A2 AA B2 B4 AA AA BA 5A 96 9A 07 AA 0A AA AA 00 00 00 00 00 00 00 00 00 00 00 00 00 00 00 00 00 00 00 00 00 00 00 00
DPCMDEF   5  1584 "Sample 6"
DPCM : A3 65 00 F0 F0 FF FF FF FF 0F 20 00 00 00 00 00 7C 9D D6 5E DB FF FF FF FF FF 1F 70 C0 E7 1F 5E 00 00 00 00 00 00 00 F0 BF FF F7 0F E0 FF FF FF FF FF 5F 02 00 00 00 00 00 00 C0 FF 0B 04 9C FC FF FF FF FF FF FF FF 1F 00 00 00 FE 07 00 00 00 00 00 00 3E FC F9 3F FF FF FF FF 7F CE F0 87 47 1C 00 00 00 00 00 00 20 F6 DF FF 7F 14 77 C0 FF FF FF FF FF 62 42 3E 00 09 00 00 00 10 60 C3 81 D7 C7 FC FF FF FF FF FF 7F 40 01 00 00 E0 3F 3E 7F 00 00 00 00 A0 FF FD FB 39 E4 FE 36 FC 7F CF FF F7 E2 00 00 00 00 00 00 73 EF C0 FF E1 7F 41 F2 E0 F9 CF FC F3 BF 20 0E 00 38 C7 FC 03 3F 0F 00 00 00 80 5D FE FF FF FE 3F FA 09 F0 82 0F B8 3F 90 80 60 20 DC 83 8E D3 E8 0E FC 3D 66 20 3E C8 DF FC 7F EE 19 5E 30 8E 31 00 60 0E 7C 6E 99 08 64 06 9F FF FB FC FF 02 8C 00 C2 8C B0 E3 EF C7 7F 26 09 09 24 03 BC F8 FD E8 42 7E 23 F2 C7 F3 63 37 02 3F 03 08 2C C0 E1 A3 FE ED 39 F7 10 3F 08 FC B9 E0 62 74 C0 02 F8 CB 7D F8 F3 66 2E 96 80 78 E0 F0 23 0F 1C 3D 3C FE E3 1F 76 02 00 07 30 33 FF F1 FE 98 C5 E2 E4 2C CF DF B4 84 53 80 01 20 87 B7 9F FB 0F 1C 0F 0E E8 68 94 1D C7 ED 0F 7F 4E 38 48 08 7C 66 30 33 38 A7 20 3F 8F 92 E3 01 3C FB 39 CE FE CF BB 80 88 7B 73 F8 38 FC 01 00 02 18 60 1A F0 FF BB 9F C7 E1 C0 7E FE 31 C7 59 EC C4 66 40 02 C6 00 F3 FC 0F CC 02 7E C1 B8 EF 87 B7 9F F7 19 20 01 B8 C0 9F F0 39 8E C7 E0 80 B0 EF FC 29 FE 01 83 0C 3B 58 06 FD E3 1F FE E6 14 F8 5C 80 74 82 83 0F 22 BE 20 78 7E 9E 01 FF C3 FC EF 4F F8 C9 62 C0 00 10 1E C0 3B E2 C3 9F 82 F7 E4 FC 0F C6 19 0E 67 FC 39 F0 41 1F 50 20 80 33 1F BE FF 1F 0F 9E 08 81 24 90 63 8E D3 EE 0F EE CB F3 D6 19 7F C0 0E F0 86 07 00 C0 31 06 3F F6 A7 97 DF 19 CF 1E AE 67 8B 16 E6 18 60 30 4A 30 8E A3 71 7B 3F 1E 6E 31 0F 3F A8 78 55 4D 43 9A 41 38 87 AD D3 87 FF 08 1E 6B E6 D0 2A 0E 8C 0F D8 48 C7 E0 B9 43 97 FE 8F B2 AF 0F 8C 35 88 01 F2 70 F2 60 B8 1A CC 0B 7D EB E3 AD F9 FD 2A 38 64 42 9C C3 08 08 0F 4D CC EB 79 D3 BF 0E B9 BA 60 63 CC 1A 35 D3 D9 18 28 28 C2 2E FE EE F3 E3 BF 99 81 00 22 34 A5 16 AE 89 9B F3 E3 78 F5 0E 3F F0 A9 21 66 95 40 43 35 87 39 C2 C3 CF E3 E3 DB F7 8C 7B 6A 40 20 05 46 00 75 98 8B FF FC 73 DA A7 39 D0 B7 12 2C C9 86 8B 42 A6 94 9A 6A F8 A2 9B F6 F7 A5 87 2E 14 A2 52 A0 31 2E C7 16 A7 8E 98 2B AD 67 E8 0D BE C9 3D E4 A4 31 56 A0 29 66 8B 3D 66 FD 71 F2 6B 0A 53 AA 28 23 0C B3 72 A4 79 35 BA F2 2B E5 E9 14 73 F9 2A E8 83 63 8A E8 80 B8 40 4F 0F BF BF EE 2B C7 43 8D 50 25 53 09 1C 27 53 95 16 7C AB 2D FE 72 E5 E2 C3 54 B1 52 89 1E AC A7 E5 E0 C1 1B F0 38 5C A1 8F 1F CE 99 85 86 2B 38 DA 38 FB E4 19 CE 1A 86 2B 6E 69 AD BA 54 59 24 42 25 D4 E3 78 AB F6 B7 7A B9 2A 59 16 3C 28 6E 52 30 55 6C A1 B0 D4 6B A6 D7 67 87 D7 9E E6 2A E3 14 14 47 50 29 26 B0 B6 FC 36 FE CA 63 4E 2D 6A B8 A0 AC 6E 47 AD 29 95 86 2A B5 D4 B4 BE 2A 97 49 66 41 4B C5 25 4F 55 B5 CC 3A 9E B5 E5 57 A5 A2 C4 58 65 89 D4 64 A6 94 27 CD 49 35 6B 5A B5 BA 9E 2B 7D 96 65 AA 02 C7 94 30 5A 0B AB 95 55 E2 6A E5 AC B8 2A 7D CD B6 AC 9E 90 55 B2 24 BA 82 55 95 4D D5 EA B9 D4 4C 59 59 95 C2 68 A9 6A F5 B5 AA DA 92 A1 A9 B4 52 BA 68 59 A6 0A 4B 4B A9 6A 78 AA AD AA EE D4 69 F5 1A 52 15 97 84 2A 63 1A 35 67 55 2D ED A5 AA 86 7A 56 D5 54 1D 93 B6 54 2B 2A 4C B5 BC AA 56 59 69 35 65 A5 AA 25 AA 9B F0 99 1A 54 B5 B4 EA 55 9B E2 55 95 6A 54 55 2A 52 D5 52 6A 35 55 95 D5 54 6F 69 B3 5C 55 3A 0B 59 2A 45 41 CB CC 34 DA 54 56 0F B3 8A 59 65 AB 97 55 97 55 66 55 55 25 56 A9 A2 AC BC AA 50 A5 65 55 D3 B2 5E 65 59 35 53 53 BA 52 9A 55 56 59 AD 2C 47 95 99 AA 2A 7A 29 AC CA AA AE A6 AA AA 9A 96 A6 4B B5 2A D5 54 D5 46 D3 A2 6A A9 AA A9 2A 52 56 D5 AE 6A 2D AB 4A D5 51 65 85 B2 AC AA 7A CD 2A 4B 99 AA D0 34 B3 AA 3E D5 AC 52 93 59 41 2E 53 AB 5E D5 98 5A 55 55 A5 A9 C2 CA AE 53 AB AA 52 95 AA 29 54 D5 B2 6E D5 54 D5 54 AA AA B8 96 55 35 55 A5 59 AA A6 AA AA 2A 4C BB 9A 66 99 55 55 4D B6 2C 55 95 99 AA 30 AB AA AA EA 66 55 55 95 55 55 65 99 6A AA AA AA AA A8 7A 95 6A A9 A6 56 55 D5 2A 53 55 A9 AA 30 CB 32 D5 6B A9 56 55 4D 55 55 55 95 AA 6A AA AA 55 55 55 55 55 AA 96 A9 65 69 55 65 55 AA AA AA AA 69 AA 56 65 55 56 4B 55 55 45 A5 6A 95 56 55 55 56 55 95 A6 2A D2 AA 32 CD B0 EA 55 55 35 55 35 55 55 55 55 55 55 55 59 AA AA D0 AA AA AA EA A6 AA 66 55 D5 4C 53 55 A5 AA AA AA AA AA A9 AA AA AA AA AA AA AA AA 51 55 55 33 55 55 55 A5 AA 26 AA AA A7 56 55 65 95 AA 8A AC AA AA 7A 55 55 55 A5 A9 AA A9 56 55 B5 52 55 55 55 AA AA D0 2A AB 7A A5 56 55 55 55 55 A5 55 56 55 69 55 55 AA 96 AA AA AA AA AA AA 9A 56 99 56 5A 65 59 55 55 65 55 95 55 56 A9 AA AA AA AA 6A 55 55 55 65 55 A5 AA A6 AA AA 6A 5A 59 55 55 55 55 55 A5 55 95 AA 96 AA AA AA AA 55 55 65 AA AA AA AA 59 55 B5 AA 52 55 99 A6 AA AA 8A AA AA AA AA AA AA 5A 65 55 55 55 55 55 55 55 55 95 66 56 AA AA AA 6A 6A AA AA 9A A6 AA 6A 59 56 59 55 A9 AA AA AA 55 55 55 55 55 55 6A 9A AA AA 56 A5 A6 AA 55 45 55 55 55 55 55 55 55 55 55 55
DPCMDEF   6    80 "Sample 7"
DPCM : FC FF CF FF DF 3F 5B 56 89 01 07 00 00 10 20 A0 FC FF CF FF DF 3F 5B 56 89 01 07 00 00 10 20 A0 48 8C 2A 2D 8D D3 AA B5 B3 B6 76 B5 73 5D 77 B7 5F DF 5E 5B 9D AD 2A 95 82 14 21 11 22 12 89 24 A9 54 2A 55 55 55 CD A0 D5 6A B5 5A AD B5 6A AD

# Instruments
INST2A03   0    -1  -1  -1  -1  -1 "Duty 0"
INST2A03   1    -1  -1  -1  -1   0 "Duty 1"
INST2A03   2    -1  -1  -1  -1   1 "Duty 2"
INST2A03   3    -1  -1  -1  -1   2 "Duty 3"
INSTFDS    4     1   0   0   0 "FDS 1"
FDSWAVE    4 : 0 0 0 0 0 0 0 0 0 0 63 63 63 63 63 63 63 63 63 63 63 63 63 63 0 0 0 0 0 0 0 0 0 0 0 0 0 0 0 0 0 0 0 0 0 0 0 0 0 0 63 63 63 63 63 63 63 63 63 63 63 63 63 63
FDSMOD     4 : 4 2 2 2 2 2 2 2 2 2 2 2 2 2 2 2 1 0 0 0 0 0 0 7 6 6 6 6 6 6 6 6
INST2A03   5    -1  -1  -1  -1  -1 "DPCM"
KEYDPCM   5   1   0     0  14   0     0  -1
KEYDPCM   5   1   1     1  14   0     0  -1
KEYDPCM   5   1   2     2  15   0     0  -1
KEYDPCM   5   1   3     2  14   0     0  -1
KEYDPCM   5   1   4     3  15   0     0  -1
KEYDPCM   5   1   5     3  14   0     0  -1
KEYDPCM   5   1   6     3  13   0     0  -1
KEYDPCM   5   1   7     4  15   0     0  -1
KEYDPCM   5   1   8     3  12   0     0  -1
KEYDPCM   5   1   9     5  15   0     0  -1
KEYDPCM   5   1  10     6  15   0     0  -1
KEYDPCM   5   1  11     3  11   0     0  -1

# Tracks
TRACK 256   1 150 "Song 1"
COLUMNS : 3 3 3 3 3 3

ORDER 00 : 00 00 00 00 00 00
ORDER 01 : 01 01 01 01 01 01
ORDER 02 : 02 02 02 02 02 02
ORDER 03 : 03 03 03 03 03 03
ORDER 04 : 04 04 04 04 04 04
ORDER 05 : 05 05 05 05 05 05
ORDER 06 : 06 06 06 06 06 06
ORDER 07 : 07 07 07 07 07 07
ORDER 08 : 08 08 08 08 08 08
ORDER 09 : 09 09 09 09 09 09
ORDER 0A : 0A 0A 0A 0A 0A 0A
ORDER 0B : 0B 0B 0B 0B 0B 0B
ORDER 0C : 0C 0C 0C 0C 0C 0C
ORDER 0D : 0D 0D 0D 0D 0D 0D
ORDER 0E : 0E 0E 0E 0E 0E 0E
ORDER 0F : 0F 0F 0F 0F 0F 0F
ORDER 10 : 10 10 10 10 10 10
ORDER 11 : 11 11 11 11 11 11
ORDER 12 : 12 12 12 12 12 12
ORDER 13 : 13 13 13 13 13 13
ORDER 14 : 14 14 14 14 14 14
ORDER 15 : 15 15 15 15 15 15
ORDER 16 : 16 16 16 16 16 16
ORDER 17 : 17 17 17 17 17 17
ORDER 18 : 18 18 18 18 18 18
ORDER 19 : 19 19 19 19 19 19
ORDER 1A : 1A 1A 1A 1A 1A 1A
ORDER 1B : 1B 1B 1B 1B 1B 1B
ORDER 1C : 1C 1C 1C 1C 1C 1C

PATTERN 00
ROW 00 : F#2 00 7 P7E ... ... : F#1 00 C P89 ... ... : F#3 00 . ... ... ... : 8-# 00 A ... ... ... : C-1 05 . ... ... ... : E-2 04 5 H33 I01 JB4
ROW 01 : F#2 03 . ... ... ... : F#1 01 . ... ... ... : F#2 00 . ... ... ... : 4-# 00 7 ... ... ... : ... .. . ... ... ... : ... .. 4 ... ... ...
ROW 02 : F#2 02 . ... ... ... : F#1 02 . ... ... ... : ... .. . ... ... ... : 7-# 00 9 ... ... ... : ... .. . ... ... ... : ... .. . ... ... ...
ROW 03 : F#2 01 . ... ... ... : ... .. . ... ... ... : ... .. . ... ... ... : 9-# 00 7 ... ... ... : ... .. . ... ... ... : ... .. 3 ... ... ...
ROW 04 : ... .. . ... ... ... : ... .. . ... ... ... : ... .. . ... ... ... : A-# 00 8 ... ... ... : ... .. . ... ... ... : ... .. . ... ... ...
ROW 05 : ... .. . ... ... ... : ... .. . ... ... ... : ... .. . ... ... ... : B-# 00 7 ... ... ... : ... .. . ... ... ... : ... .. . ... ... ...
ROW 06 : ... .. . ... ... ... : ... .. . ... ... ... : ... .. . ... ... ... : ... .. . ... ... ... : ... .. . ... ... ... : ... .. . ... ... ...
ROW 07 : ... .. . ... ... ... : ... .. . ... ... ... : ... .. . ... ... ... : ... .. 6 ... ... ... : ... .. . ... ... ... : ... .. . ... ... ...
ROW 08 : ... .. . ... ... ... : ... .. . ... ... ... : ... .. . ... ... ... : ... .. . ... ... ... : ... .. . ... ... ... : ... .. . ... ... ...
ROW 09 : ... .. . ... ... ... : ... .. . ... ... ... : ... .. . ... ... ... : ... .. . ... ... ... : ... .. . ... ... ... : ... .. . ... ... ...
ROW 0A : ... .. . ... ... ... : ... .. . ... ... ... : ... .. . ... ... ... : ... .. . ... ... ... : ... .. . ... ... ... : ... .. . ... ... ...
ROW 0B : ... .. 3 ... ... ... : F#2 02 7 ... ... ... : ... .. . ... ... ... : ... .. . ... ... ... : ... .. . ... ... ... : ... .. . ... ... ...
ROW 0C : ... .. . ... ... ... : G#1 02 . ... ... ... : ... .. . ... ... ... : ... .. . ... ... ... : ... .. . ... ... ... : ... .. 1 ... ... ...
ROW 0D : G#2 00 7 ... ... ... : G#1 00 C ... ... ... : ... .. . ... ... ... : ... .. 5 ... ... ... : C#1 05 . ... ... ... : ... .. 5 ... ... ...
ROW 0E : G#2 03 . ... ... ... : G#1 01 . ... ... ... : ... .. . ... ... ... : ... .. . ... ... ... : ... .. . ... ... ... : ... .. 4 ... ... ...
ROW 0F : G#2 02 . ... ... ... : G#1 02 . ... ... ... : ... .. . ... ... ... : ... .. . ... ... ... : ... .. . ... ... ... : ... .. . ... ... ...
ROW 10 : G#2 01 . ... ... ... : ... .. . ... ... ... : ... .. . ... ... ... : ... .. . ... ... ... : ... .. . ... ... ... : ... .. 3 ... ... ...
ROW 11 : ... .. . ... ... ... : ... .. . ... ... ... : ... .. . ... ... ... : ... .. . ... ... ... : ... .. . ... ... ... : ... .. . ... ... ...
ROW 12 : ... .. . ... ... ... : ... .. . ... ... ... : ... .. . ... ... ... : ... .. 4 ... ... ... : ... .. . ... ... ... : ... .. . ... ... ...
ROW 13 : ... .. . ... ... ... : ... .. . ... ... ... : ... .. . ... ... ... : ... .. . ... ... ... : ... .. . ... ... ... : ... .. . ... ... ...
ROW 14 : ... .. . ... ... ... : ... .. . ... ... ... : ... .. . ... ... ... : ... .. . ... ... ... : ... .. . ... ... ... : ... .. . ... ... ...
ROW 15 : ... .. . ... ... ... : ... .. . ... ... ... : ... .. . ... ... ... : ... .. . ... ... ... : ... .. . ... ... ... : ... .. . ... ... ...
ROW 16 : ... .. . ... ... ... : ... .. . ... ... ... : ... .. . ... ... ... : ... .. . ... ... ... : ... .. . ... ... ... : ... .. . ... ... ...
ROW 17 : ... .. . ... ... ... : ... .. . ... ... ... : ... .. . ... ... ... : ... .. . ... ... ... : ... .. . ... ... ... : ... .. . ... ... ...
ROW 18 : ... .. 3 ... ... ... : F#2 02 7 ... ... ... : ... .. . ... ... ... : ... .. . ... ... ... : ... .. . ... ... ... : ... .. 1 ... ... ...
ROW 19 : ... .. . ... ... ... : G#1 02 . ... ... ... : ... .. . ... ... ... : ... .. . ... ... ... : ... .. . ... ... ... : ... .. . ... ... ...
ROW 1A : A-2 00 7 ... ... ... : A-1 00 C ... ... ... : ... .. . ... ... ... : 9-# 01 5 ... ... ... : C#1 05 . ... ... ... : E-3 04 5 I01 JB2 ...
ROW 1B : A-2 03 . ... ... ... : A-1 01 . ... ... ... : ... .. . ... ... ... : A-# 00 4 ... ... ... : ... .. . ... ... ... : ... .. 4 ... ... ...
ROW 1C : A-2 02 . ... ... ... : A-1 02 . ... ... ... : ... .. . ... ... ... : ... .. 3 ... ... ... : ... .. . ... ... ... : ... .. . ... ... ...
ROW 1D : A-2 01 . ... ... ... : ... .. . ... ... ... : ... .. . ... ... ... : B-# 01 . ... ... ... : ... .. . ... ... ... : ... .. 3 ... ... ...
ROW 1E : ... .. . ... ... ... : ... .. . ... ... ... : ... .. . ... ... ... : A-# 01 . ... ... ... : ... .. . ... ... ... : ... .. . ... ... ...
ROW 1F : ... .. . ... ... ... : ... .. . ... ... ... : ... .. . ... ... ... : B-# 00 2 ... ... ... : ... .. . ... ... ... : ... .. . ... ... ...
ROW 20 : ... .. . ... ... ... : ... .. . ... ... ... : ... .. . ... ... ... : ... .. . ... ... ... : ... .. . ... ... ... : ... .. . ... ... ...
ROW 21 : ... .. . ... ... ... : ... .. . ... ... ... : --- .. . ... ... ... : ... .. . ... ... ... : ... .. . ... ... ... : ... .. . ... ... ...
ROW 22 : ... .. . ... ... ... : ... .. . ... ... ... : ... .. . ... ... ... : ... .. . ... ... ... : ... .. . ... ... ... : ... .. . ... ... ...
ROW 23 : ... .. . ... ... ... : ... .. . ... ... ... : ... .. . ... ... ... : ... .. . ... ... ... : ... .. . ... ... ... : ... .. . ... ... ...
ROW 24 : ... .. . ... ... ... : ... .. . ... ... ... : ... .. . ... ... ... : ... .. . ... ... ... : ... .. . ... ... ... : ... .. . ... ... ...
ROW 25 : ... .. 3 ... ... ... : G#2 02 7 ... ... ... : ... .. . ... ... ... : ... .. . ... ... ... : ... .. . ... ... ... : ... .. 1 ... ... ...
ROW 26 : ... .. . ... ... ... : A#1 02 . ... ... ... : ... .. . ... ... ... : ... .. . ... ... ... : ... .. . ... ... ... : ... .. . ... ... ...
ROW 27 : F#2 00 7 ... ... ... : F#1 00 C ... ... ... : F#3 00 . ... ... ... : B-# 01 5 ... ... ... : C-1 05 . ... ... ... : E-2 04 5 I01 JB4 ...
ROW 28 : F#2 03 . ... ... ... : F#1 01 . ... ... ... : F#2 00 . ... ... ... : C-# 00 4 ... ... ... : ... .. . ... ... ... : ... .. 4 ... ... ...
ROW 29 : F#2 02 . ... ... ... : F#1 02 . ... ... ... : ... .. . ... ... ... : ... .. 3 ... ... ... : ... .. . ... ... ... : ... .. . ... ... ...
ROW 2A : F#2 01 . ... ... ... : ... .. . ... ... ... : ... .. . ... ... ... : D-# 01 . ... ... ... : ... .. . ... ... ... : ... .. 3 ... ... ...
ROW 2B : ... .. . ... ... ... : ... .. . ... ... ... : ... .. . ... ... ... : C-# 01 . ... ... ... : ... .. . ... ... ... : ... .. . ... ... ...
ROW 2C : ... .. . ... ... ... : ... .. . ... ... ... : ... .. . ... ... ... : D-# 00 2 ... ... ... : ... .. . ... ... ... : ... .. . ... ... ...
ROW 2D : ... .. . ... ... ... : ... .. . ... ... ... : ... .. . ... ... ... : ... .. . ... ... ... : ... .. . ... ... ... : ... .. . ... ... ...
ROW 2E : ... .. . ... ... ... : ... .. . ... ... ... : --- .. . ... ... ... : ... .. . ... ... ... : ... .. . ... ... ... : ... .. . ... ... ...
ROW 2F : ... .. . ... ... ... : ... .. . ... ... ... : ... .. . ... ... ... : ... .. . ... ... ... : ... .. . ... ... ... : ... .. . ... ... ...
ROW 30 : ... .. . ... ... ... : ... .. . ... ... ... : ... .. . ... ... ... : ... .. . ... ... ... : ... .. . ... ... ... : ... .. . ... ... ...
ROW 31 : ... .. . ... ... ... : ... .. . ... ... ... : ... .. . ... ... ... : ... .. . ... ... ... : ... .. . ... ... ... : ... .. . ... ... ...
ROW 32 : ... .. 3 ... ... ... : A-2 02 7 ... ... ... : ... .. . ... ... ... : ... .. . ... ... ... : ... .. . ... ... ... : ... .. 1 ... ... ...
ROW 33 : ... .. . ... ... ... : B-1 02 . ... ... ... : ... .. . ... ... ... : ... .. . ... ... ... : ... .. . ... ... ... : ... .. . ... ... ...
ROW 34 : G#2 00 7 ... ... ... : G#1 00 C ... ... ... : F#3 00 . ... ... ... : 9-# 01 8 ... ... ... : D-1 05 . ... ... ... : ... .. 5 ... ... ...
ROW 35 : G#2 03 . ... ... ... : G#1 01 . ... ... ... : F#2 00 . ... ... ... : A-# 00 6 ... ... ... : ... .. . ... ... ... : ... .. 4 ... ... ...
ROW 36 : G#2 02 . ... ... ... : G#1 02 . ... ... ... : ... .. . ... ... ... : ... .. 5 ... ... ... : ... .. . ... ... ... : ... .. . ... ... ...
ROW 37 : G#2 01 . ... ... ... : ... .. . ... ... ... : ... .. . ... ... ... : B-# 01 4 ... ... ... : ... .. . ... ... ... : ... .. 3 ... ... ...
ROW 38 : ... .. . ... ... ... : ... .. . ... ... ... : ... .. . ... ... ... : A-# 01 . ... ... ... : ... .. . ... ... ... : ... .. . ... ... ...
ROW 39 : ... .. . ... ... ... : ... .. . ... ... ... : ... .. . ... ... ... : B-# 00 . ... ... ... : ... .. . ... ... ... : ... .. . ... ... ...
ROW 3A : ... .. . ... ... ... : ... .. . ... ... ... : ... .. . ... ... ... : ... .. . ... ... ... : ... .. . ... ... ... : ... .. . ... ... ...
ROW 3B : ... .. . ... ... ... : ... .. . ... ... ... : ... .. . ... ... ... : ... .. . ... ... ... : ... .. . ... ... ... : ... .. . ... ... ...
ROW 3C : ... .. . ... ... ... : ... .. . ... ... ... : ... .. . ... ... ... : ... .. 3 ... ... ... : ... .. . ... ... ... : ... .. . ... ... ...
ROW 3D : ... .. . ... ... ... : ... .. . ... ... ... : ... .. . ... ... ... : ... .. . ... ... ... : ... .. . ... ... ... : ... .. . ... ... ...
ROW 3E : ... .. . ... ... ... : ... .. . ... ... ... : ... .. . ... ... ... : ... .. . ... ... ... : ... .. . ... ... ... : ... .. . ... ... ...
ROW 3F : ... .. 3 ... ... ... : F#2 02 7 ... ... ... : ... .. . ... ... ... : ... .. . ... ... ... : ... .. . ... ... ... : ... .. 1 ... ... ...
ROW 40 : ... .. . ... ... ... : G#1 02 . ... ... ... : ... .. . ... ... ... : ... .. . ... ... ... : ... .. . ... ... ... : ... .. . ... ... ...
ROW 41 : A-2 00 7 ... ... ... : A-1 00 C ... ... ... : ... .. . ... ... ... : B-# 01 5 ... ... ... : C#1 05 . ... ... ... : ... .. 5 ... ... ...
ROW 42 : A-2 03 . ... ... ... : A-1 01 . ... ... ... : ... .. . ... ... ... : C-# 00 4 ... ... ... : ... .. . ... ... ... : ... .. 4 ... ... ...
ROW 43 : A-2 02 . ... ... ... : A-1 02 . ... ... ... : ... .. . ... ... ... : ... .. 3 ... ... ... : ... .. . ... ... ... : ... .. . ... ... ...
ROW 44 : A-2 01 . ... ... ... : ... .. . ... ... ... : ... .. . ... ... ... : D-# 01 . ... ... ... : ... .. . ... ... ... : ... .. 3 ... ... ...
ROW 45 : ... .. . ... ... ... : ... .. . ... ... ... : ... .. . ... ... ... : C-# 01 . ... ... ... : ... .. . ... ... ... : ... .. . ... ... ...
ROW 46 : ... .. . ... ... ... : ... .. . ... ... ... : ... .. . ... ... ... : D-# 00 2 ... ... ... : ... .. . ... ... ... : ... .. . ... ... ...
ROW 47 : ... .. . ... ... ... : ... .. . ... ... ... : ... .. . ... ... ... : ... .. . ... ... ... : ... .. . ... ... ... : ... .. . ... ... ...
ROW 48 : ... .. . ... ... ... : ... .. . ... ... ... : ... .. . ... ... ... : ... .. . ... ... ... : ... .. . ... ... ... : ... .. . ... ... ...
ROW 49 : ... .. . ... ... ... : ... .. . ... ... ... : ... .. . ... ... ... : ... .. . ... ... ... : ... .. . ... ... ... : ... .. . ... ... ...
ROW 4A : ... .. . ... ... ... : ... .. . ... ... ... : ... .. . ... ... ... : ... .. . ... ... ... : ... .. . ... ... ... : ... .. . ... ... ...
ROW 4B : ... .. . ... ... ... : ... .. . ... ... ... : ... .. . ... ... ... : ... .. . ... ... ... : ... .. . ... ... ... : ... .. . ... ... ...
ROW 4C : ... .. 3 ... ... ... : G#2 02 7 ... ... ... : ... .. . ... ... ... : ... .. . ... ... ... : ... .. . ... ... ... : ... .. . ... ... ...
ROW 4D : ... .. . ... ... ... : A#1 02 . ... ... ... : ... .. . ... ... ... : ... .. . ... ... ... : ... .. . ... ... ... : ... .. 1 ... ... ...
ROW 4E : F#2 00 7 ... ... ... : F#1 00 C ... ... ... : ... .. . ... ... ... : 9-# 01 5 ... ... ... : C#1 05 . ... ... ... : E-3 04 5 I01 JB2 ...
ROW 4F : F#2 03 . ... ... ... : F#1 01 . ... ... ... : ... .. . ... ... ... : A-# 00 4 ... ... ... : ... .. . ... ... ... : ... .. 4 ... ... ...
ROW 50 : F#2 02 . ... ... ... : F#1 02 . ... ... ... : ... .. . ... ... ... : ... .. 3 ... ... ... : ... .. . ... ... ... : ... .. . ... ... ...
ROW 51 : F#2 01 . ... ... ... : ... .. . ... ... ... : ... .. . ... ... ... : B-# 01 . ... ... ... : ... .. . ... ... ... : ... .. 3 ... ... ...
ROW 52 : ... .. . ... ... ... : ... .. . ... ... ... : ... .. . ... ... ... : A-# 01 . ... ... ... : ... .. . ... ... ... : ... .. . ... ... ...
ROW 53 : ... .. . ... ... ... : ... .. . ... ... ... : ... .. . ... ... ... : B-# 00 2 ... ... ... : ... .. . ... ... ... : ... .. . ... ... ...
ROW 54 : ... .. . ... ... ... : ... .. . ... ... ... : ... .. . ... ... ... : ... .. . ... ... ... : ... .. . ... ... ... : ... .. . ... ... ...
ROW 55 : ... .. . ... ... ... : ... .. . ... ... ... : --- .. . ... ... ... : ... .. . ... ... ... : ... .. . ... ... ... : ... .. . ... ... ...
ROW 56 : ... .. . ... ... ... : ... .. . ... ... ... : ... .. . ... ... ... : ... .. . ... ... ... : ... .. . ... ... ... : ... .. . ... ... ...
ROW 57 : ... .. . ... ... ... : ... .. . ... ... ... : ... .. . ... ... ... : ... .. . ... ... ... : ... .. . ... ... ... : ... .. . ... ... ...
ROW 58 : ... .. . ... ... ... : ... .. . ... ... ... : ... .. . ... ... ... : ... .. . ... ... ... : ... .. . ... ... ... : ... .. . ... ... ...
ROW 59 : ... .. 3 ... ... ... : A-2 02 7 ... ... ... : ... .. . ... ... ... : ... .. . ... ... ... : ... .. . ... ... ... : ... .. 1 ... ... ...
ROW 5A : ... .. . ... ... ... : B-1 02 . ... ... ... : ... .. . ... ... ... : ... .. . ... ... ... : ... .. . ... ... ... : ... .. . ... ... ...
ROW 5B : G#2 00 7 ... ... ... : G#1 00 C ... ... ... : F#3 00 . ... ... ... : B-# 01 5 ... ... ... : C-1 05 . ... ... ... : E-2 04 5 I01 JB4 ...
ROW 5C : G#2 03 . ... ... ... : G#1 01 . ... ... ... : F#2 00 . ... ... ... : C-# 00 4 ... ... ... : ... .. . ... ... ... : ... .. 4 ... ... ...
ROW 5D : G#2 02 . ... ... ... : G#1 02 . ... ... ... : ... .. . ... ... ... : ... .. 3 ... ... ... : ... .. . ... ... ... : ... .. . ... ... ...
ROW 5E : G#2 01 . ... ... ... : ... .. . ... ... ... : ... .. . ... ... ... : D-# 01 . ... ... ... : ... .. . ... ... ... : ... .. 3 ... ... ...
ROW 5F : ... .. . ... ... ... : ... .. . ... ... ... : ... .. . ... ... ... : C-# 01 . ... ... ... : ... .. . ... ... ... : ... .. . ... ... ...
ROW 60 : ... .. . ... ... ... : ... .. . ... ... ... : ... .. . ... ... ... : D-# 00 2 ... ... ... : ... .. . ... ... ... : ... .. . ... ... ...
ROW 61 : ... .. . ... ... ... : ... .. . ... ... ... : ... .. . ... ... ... : ... .. . ... ... ... : ... .. . ... ... ... : ... .. . ... ... ...
ROW 62 : ... .. . ... ... ... : ... .. . ... ... ... : --- .. . ... ... ... : ... .. . ... ... ... : ... .. . ... ... ... : ... .. . ... ... ...
ROW 63 : ... .. . ... ... ... : ... .. . ... ... ... : ... .. . ... ... ... : ... .. . ... ... ... : ... .. . ... ... ... : ... .. . ... ... ...
ROW 64 : ... .. . ... ... ... : ... .. . ... ... ... : ... .. . ... ... ... : ... .. . ... ... ... : ... .. . ... ... ... : ... .. . ... ... ...
ROW 65 : ... .. . ... ... ... : ... .. . ... ... ... : ... .. . ... ... ... : ... .. . ... ... ... : ... .. . ... ... ... : ... .. . ... ... ...
ROW 66 : ... .. 3 ... ... ... : F#2 02 7 ... ... ... : ... .. . ... ... ... : ... .. . ... ... ... : ... .. . ... ... ... : ... .. 1 ... ... ...
ROW 67 : ... .. . ... ... ... : G#1 02 . ... ... ... : ... .. . ... ... ... : ... .. . ... ... ... : ... .. . ... ... ... : ... .. . ... ... ...
ROW 68 : A-2 00 7 ... ... ... : A-1 00 C ... ... ... : F#3 00 . ... ... ... : 9-# 01 5 ... ... ... : C-1 05 . ... ... ... : ... .. 5 ... ... ...
ROW 69 : A-2 03 . ... ... ... : A-1 01 . ... ... ... : F#2 00 . ... ... ... : A-# 00 4 ... ... ... : ... .. . ... ... ... : ... .. 4 ... ... ...
ROW 6A : A-2 02 . ... ... ... : A-1 02 . ... ... ... : ... .. . ... ... ... : ... .. 3 ... ... ... : ... .. . ... ... ... : ... .. . ... ... ...
ROW 6B : A-2 01 . ... ... ... : ... .. . ... ... ... : ... .. . ... ... ... : B-# 01 . ... ... ... : ... .. . ... ... ... : ... .. 3 ... ... ...
ROW 6C : ... .. . ... ... ... : ... .. . ... ... ... : ... .. . ... ... ... : A-# 01 . ... ... ... : ... .. . ... ... ... : ... .. . ... ... ...
ROW 6D : ... .. . ... ... ... : ... .. . ... ... ... : ... .. . ... ... ... : B-# 00 2 ... ... ... : ... .. . ... ... ... : ... .. . ... ... ...
ROW 6E : ... .. . ... ... ... : ... .. . ... ... ... : ... .. . ... ... ... : ... .. . ... ... ... : ... .. . ... ... ... : ... .. . ... ... ...
ROW 6F : ... .. . ... ... ... : ... .. . ... ... ... : ... .. . ... ... ... : ... .. . ... ... ... : ... .. . ... ... ... : ... .. . ... ... ...
ROW 70 : ... .. . ... ... ... : ... .. . ... ... ... : ... .. . ... ... ... : ... .. . ... ... ... : ... .. . ... ... ... : ... .. . ... ... ...
ROW 71 : ... .. . ... ... ... : ... .. . ... ... ... : ... .. . ... ... ... : ... .. . ... ... ... : ... .. . ... ... ... : ... .. . ... ... ...
ROW 72 : ... .. . ... ... ... : ... .. . ... ... ... : ... .. . ... ... ... : ... .. . ... ... ... : ... .. . ... ... ... : ... .. . ... ... ...
ROW 73 : ... .. 3 ... ... ... : G#2 02 7 ... ... ... : ... .. . ... ... ... : ... .. . ... ... ... : ... .. . ... ... ... : ... .. 1 ... ... ...
ROW 74 : ... .. . ... ... ... : A#1 02 . ... ... ... : ... .. . ... ... ... : ... .. . ... ... ... : ... .. . ... ... ... : ... .. . ... ... ...
ROW 75 : F#2 00 7 ... ... ... : F#1 00 C ... ... ... : ... .. . ... ... ... : B-# 01 5 ... ... ... : C#1 05 . ... ... ... : ... .. . ... ... ...
ROW 76 : F#2 03 . ... ... ... : F#1 01 . ... ... ... : ... .. . ... ... ... : C-# 00 4 ... ... ... : ... .. . ... ... ... : ... .. 4 ... ... ...
ROW 77 : F#2 02 . ... ... ... : F#1 02 . ... ... ... : ... .. . ... ... ... : ... .. 3 ... ... ... : ... .. . ... ... ... : ... .. . ... ... ...
ROW 78 : F#2 01 . ... ... ... : ... .. . ... ... ... : ... .. . ... ... ... : D-# 01 . ... ... ... : ... .. . ... ... ... : ... .. 3 ... ... ...
ROW 79 : ... .. . ... ... ... : ... .. . ... ... ... : ... .. . ... ... ... : C-# 01 . ... ... ... : ... .. . ... ... ... : ... .. . ... ... ...
ROW 7A : ... .. . ... ... ... : ... .. . ... ... ... : ... .. . ... ... ... : D-# 00 2 ... ... ... : ... .. . ... ... ... : ... .. . ... ... ...
ROW 7B : ... .. . ... ... ... : ... .. . ... ... ... : ... .. . ... ... ... : ... .. . ... ... ... : ... .. . ... ... ... : ... .. . ... ... ...
ROW 7C : ... .. . ... ... ... : ... .. . ... ... ... : ... .. . ... ... ... : ... .. . ... ... ... : ... .. . ... ... ... : ... .. . ... ... ...
ROW 7D : ... .. . ... ... ... : ... .. . ... ... ... : ... .. . ... ... ... : ... .. . ... ... ... : ... .. . ... ... ... : ... .. . ... ... ...
ROW 7E : ... .. . ... ... ... : ... .. . ... ... ... : ... .. . ... ... ... : ... .. . ... ... ... : ... .. . ... ... ... : ... .. . ... ... ...
ROW 7F : ... .. . ... ... ... : ... .. . ... ... ... : ... .. . ... ... ... : ... .. . ... ... ... : ... .. . ... ... ... : ... .. . ... ... ...
ROW 80 : ... .. 3 ... ... ... : A-2 02 7 ... ... ... : ... .. . ... ... ... : ... .. . ... ... ... : ... .. . ... ... ... : ... .. 1 ... ... ...
ROW 81 : ... .. . ... ... ... : B-1 02 . ... ... ... : ... .. . ... ... ... : ... .. . ... ... ... : ... .. . ... ... ... : ... .. . ... ... ...
ROW 82 : G#2 00 7 ... ... ... : G#1 00 C ... ... ... : ... .. . ... ... ... : 9-# 01 5 ... ... ... : C#1 05 . ... ... ... : E-3 04 5 I01 JB2 ...
ROW 83 : G#2 03 . ... ... ... : G#1 01 . ... ... ... : ... .. . ... ... ... : A-# 00 4 ... ... ... : ... .. . ... ... ... : ... .. 4 ... ... ...
ROW 84 : G#2 02 . ... ... ... : G#1 02 . ... ... ... : ... .. . ... ... ... : ... .. 3 ... ... ... : ... .. . ... ... ... : ... .. . ... ... ...
ROW 85 : G#2 01 . ... ... ... : ... .. . ... ... ... : ... .. . ... ... ... : B-# 01 . ... ... ... : ... .. . ... ... ... : ... .. 3 ... ... ...
ROW 86 : ... .. . ... ... ... : ... .. . ... ... ... : ... .. . ... ... ... : A-# 01 . ... ... ... : ... .. . ... ... ... : ... .. . ... ... ...
ROW 87 : ... .. . ... ... ... : ... .. . ... ... ... : ... .. . ... ... ... : B-# 00 2 ... ... ... : ... .. . ... ... ... : ... .. . ... ... ...
ROW 88 : ... .. . ... ... ... : ... .. . ... ... ... : ... .. . ... ... ... : ... .. . ... ... ... : ... .. . ... ... ... : ... .. . ... ... ...
ROW 89 : ... .. . ... ... ... : ... .. . ... ... ... : --- .. . ... ... ... : ... .. . ... ... ... : ... .. . ... ... ... : ... .. . ... ... ...
ROW 8A : ... .. . ... ... ... : ... .. . ... ... ... : ... .. . ... ... ... : ... .. . ... ... ... : ... .. . ... ... ... : ... .. . ... ... ...
ROW 8B : ... .. . ... ... ... : ... .. . ... ... ... : ... .. . ... ... ... : ... .. . ... ... ... : ... .. . ... ... ... : ... .. . ... ... ...
ROW 8C : ... .. . ... ... ... : ... .. . ... ... ... : ... .. . ... ... ... : ... .. . ... ... ... : ... .. . ... ... ... : ... .. . ... ... ...
ROW 8D : ... .. 3 ... ... ... : F#2 02 7 ... ... ... : ... .. . ... ... ... : ... .. . ... ... ... : ... .. . ... ... ... : ... .. 1 ... ... ...
ROW 8E : ... .. . ... ... ... : G#1 02 . ... ... ... : ... .. . ... ... ... : ... .. . ... ... ... : ... .. . ... ... ... : ... .. . ... ... ...
ROW 8F : A-2 00 7 ... ... ... : A-1 00 C ... ... ... : F#3 00 . ... ... ... : B-# 01 5 ... ... ... : C-1 05 . ... ... ... : E-2 04 5 I01 JB4 ...
ROW 90 : A-2 03 . ... ... ... : A-1 01 . ... ... ... : F#2 00 . ... ... ... : C-# 00 4 ... ... ... : ... .. . ... ... ... : ... .. 4 ... ... ...
ROW 91 : A-2 02 . ... ... ... : A-1 02 . ... ... ... : ... .. . ... ... ... : ... .. 3 ... ... ... : ... .. . ... ... ... : ... .. . ... ... ...
ROW 92 : A-2 01 . ... ... ... : ... .. . ... ... ... : ... .. . ... ... ... : D-# 01 . ... ... ... : ... .. . ... ... ... : ... .. 3 ... ... ...
ROW 93 : ... .. . ... ... ... : ... .. . ... ... ... : ... .. . ... ... ... : C-# 01 . ... ... ... : ... .. . ... ... ... : ... .. . ... ... ...
ROW 94 : ... .. . ... ... ... : ... .. . ... ... ... : ... .. . ... ... ... : D-# 00 2 ... ... ... : ... .. . ... ... ... : ... .. . ... ... ...
ROW 95 : ... .. . ... ... ... : ... .. . ... ... ... : ... .. . ... ... ... : ... .. . ... ... ... : ... .. . ... ... ... : ... .. . ... ... ...
ROW 96 : ... .. . ... ... ... : ... .. . ... ... ... : --- .. . ... ... ... : ... .. . ... ... ... : ... .. . ... ... ... : ... .. . ... ... ...
ROW 97 : ... .. . ... ... ... : ... .. . ... ... ... : ... .. . ... ... ... : ... .. . ... ... ... : ... .. . ... ... ... : ... .. . ... ... ...
ROW 98 : ... .. . ... ... ... : ... .. . ... ... ... : ... .. . ... ... ... : ... .. . ... ... ... : ... .. . ... ... ... : ... .. . ... ... ...
ROW 99 : ... .. . ... ... ... : ... .. . ... ... ... : ... .. . ... ... ... : ... .. . ... ... ... : ... .. . ... ... ... : ... .. . ... ... ...
ROW 9A : ... .. 3 ... ... ... : G#2 02 7 ... ... ... : ... .. . ... ... ... : ... .. . ... ... ... : ... .. . ... ... ... : ... .. 1 ... ... ...
ROW 9B : ... .. . ... ... ... : A#1 02 . ... ... ... : ... .. . ... ... ... : ... .. . ... ... ... : ... .. . ... ... ... : ... .. . ... ... ...
ROW 9C : A-2 00 5 ... ... ... : A-1 00 8 ... ... ... : F#3 00 . ... ... ... : 9-# 01 8 ... ... ... : D-1 05 . ... ... ... : ... .. . ... ... ...
ROW 9D : A-2 03 . ... ... ... : A-1 01 . ... ... ... : F#2 00 . ... ... ... : A-# 00 6 ... ... ... : ... .. . ... ... ... : ... .. 5 ... ... ...
ROW 9E : A-2 02 . ... ... ... : A-1 02 . ... ... ... : ... .. . ... ... ... : ... .. 5 ... ... ... : ... .. . ... ... ... : ... .. 4 ... ... ...
ROW 9F : A-2 01 . ... ... ... : ... .. . ... ... ... : ... .. . ... ... ... : B-# 01 4 ... ... ... : ... .. . ... ... ... : ... .. 3 ... ... ...
ROW A0 : ... .. . ... ... ... : ... .. . ... ... ... : ... .. . ... ... ... : A-# 01 . ... ... ... : ... .. . ... ... ... : ... .. . ... ... ...
ROW A1 : ... .. . ... ... ... : ... .. . ... ... ... : ... .. . ... ... ... : B-# 00 . ... ... ... : ... .. . ... ... ... : ... .. . ... ... ...
ROW A2 : ... .. . ... ... ... : ... .. . ... ... ... : ... .. . ... ... ... : ... .. . ... ... ... : ... .. . ... ... ... : ... .. . ... ... ...
ROW A3 : ... .. . ... ... ... : ... .. . ... ... ... : ... .. . ... ... ... : ... .. . ... ... ... : ... .. . ... ... ... : ... .. . ... ... ...
ROW A4 : ... .. . ... ... ... : ... .. . ... ... ... : ... .. . ... ... ... : ... .. 3 ... ... ... : ... .. . ... ... ... : ... .. . ... ... ...
ROW A5 : ... .. . ... ... ... : ... .. . ... ... ... : ... .. . ... ... ... : ... .. . ... ... ... : ... .. . ... ... ... : ... .. . ... ... ...
ROW A6 : ... .. . ... ... ... : ... .. . ... ... ... : ... .. . ... ... ... : ... .. . ... ... ... : ... .. . ... ... ... : ... .. . ... ... ...
ROW A7 : ... .. 1 ... ... ... : A-2 02 4 ... ... ... : ... .. . ... ... ... : ... .. . ... ... ... : ... .. . ... ... ... : ... .. 1 ... ... ...
ROW A8 : ... .. . ... ... ... : B-1 02 . ... ... ... : ... .. . ... ... ... : ... .. . ... ... ... : ... .. . ... ... ... : ... .. . ... ... ...
ROW A9 : A-2 00 3 ... ... ... : A-1 00 5 ... ... ... : ... .. . ... ... ... : B-# 01 5 ... ... ... : C#1 05 . ... ... ... : ... .. 5 ... ... ...
ROW AA : A-2 03 . ... ... ... : A-1 01 . ... ... ... : ... .. . ... ... ... : C-# 00 4 ... ... ... : ... .. . ... ... ... : ... .. 4 ... ... ...
ROW AB : A-2 02 . ... ... ... : A-1 02 . ... ... ... : ... .. . ... ... ... : ... .. 3 ... ... ... : ... .. . ... ... ... : ... .. . ... ... ...
ROW AC : A-2 01 . ... ... ... : ... .. . ... ... ... : ... .. . ... ... ... : D-# 01 . ... ... ... : ... .. . ... ... ... : ... .. 3 ... ... ...
ROW AD : ... .. . ... ... ... : ... .. . ... ... ... : ... .. . ... ... ... : C-# 01 . ... ... ... : ... .. . ... ... ... : ... .. . ... ... ...
ROW AE : ... .. . ... ... ... : ... .. . ... ... ... : ... .. . ... ... ... : D-# 00 2 ... ... ... : ... .. . ... ... ... : ... .. . ... ... ...
ROW AF : ... .. . ... ... ... : ... .. . ... ... ... : ... .. . ... ... ... : ... .. . ... ... ... : ... .. . ... ... ... : ... .. . ... ... ...
ROW B0 : ... .. . ... ... ... : ... .. . ... ... ... : ... .. . ... ... ... : ... .. . ... ... ... : ... .. . ... ... ... : ... .. . ... ... ...
ROW B1 : ... .. . ... ... ... : ... .. . ... ... ... : ... .. . ... ... ... : ... .. . ... ... ... : ... .. . ... ... ... : ... .. . ... ... ...
ROW B2 : ... .. . ... ... ... : ... .. . ... ... ... : ... .. . ... ... ... : ... .. . ... ... ... : ... .. . ... ... ... : ... .. . ... ... ...
ROW B3 : ... .. . ... ... ... : ... .. . ... ... ... : ... .. . ... ... ... : ... .. . ... ... ... : ... .. . ... ... ... : ... .. . ... ... ...
ROW B4 : --- .. . ... ... ... : A-2 02 3 ... ... ... : ... .. . ... ... ... : ... .. . ... ... ... : ... .. . ... ... ... : ... .. 1 ... ... ...
ROW B5 : ... .. . P80 ... ... : B-1 02 . ... ... ... : ... .. . ... ... ... : ... .. . ... ... ... : ... .. . ... ... ... : ... .. . ... ... ...
ROW B6 : A-2 00 2 P7E ... ... : A-1 00 . ... ... ... : ... .. . ... ... ... : 9-# 01 5 ... ... ... : C#1 05 . ... ... ... : E-3 04 5 I01 JB2 ...
ROW B7 : A-2 03 . ... ... ... : A-1 01 . ... ... ... : ... .. . ... ... ... : A-# 00 4 ... ... ... : ... .. . ... ... ... : ... .. 4 ... ... ...
ROW B8 : A-2 02 . ... ... ... : A-1 02 . ... ... ... : ... .. . ... ... ... : ... .. 3 ... ... ... : ... .. . ... ... ... : ... .. . ... ... ...
ROW B9 : A-2 01 . ... ... ... : ... .. . ... ... ... : ... .. . ... ... ... : B-# 01 . ... ... ... : ... .. . ... ... ... : ... .. 3 ... ... ...
ROW BA : ... .. . ... ... ... : ... .. . ... ... ... : ... .. . ... ... ... : A-# 01 . ... ... ... : ... .. . ... ... ... : ... .. . ... ... ...
ROW BB : ... .. . ... ... ... : ... .. . ... ... ... : ... .. . ... ... ... : B-# 00 2 ... ... ... : ... .. . ... ... ... : ... .. . ... ... ...
ROW BC : ... .. . ... ... ... : ... .. . ... ... ... : ... .. . ... ... ... : ... .. . ... ... ... : ... .. . ... ... ... : ... .. . ... ... ...
ROW BD : ... .. . ... ... ... : ... .. . ... ... ... : --- .. . ... ... ... : ... .. . ... ... ... : ... .. . ... ... ... : ... .. . ... ... ...
ROW BE : ... .. . ... ... ... : ... .. . ... ... ... : ... .. . ... ... ... : ... .. . ... ... ... : ... .. . ... ... ... : ... .. . ... ... ...
ROW BF : ... .. . ... ... ... : ... .. . ... ... ... : ... .. . ... ... ... : ... .. . ... ... ... : ... .. . ... ... ... : ... .. . ... ... ...
ROW C0 : ... .. . ... ... ... : ... .. . ... ... ... : ... .. . ... ... ... : ... .. . ... ... ... : ... .. . ... ... ... : ... .. . ... ... ...
ROW C1 : --- .. . ... ... ... : A-2 02 2 ... ... ... : ... .. . ... ... ... : ... .. . ... ... ... : ... .. . ... ... ... : ... .. 1 ... ... ...
ROW C2 : ... .. . P80 ... ... : B-1 02 . ... ... ... : ... .. . ... ... ... : ... .. . ... ... ... : ... .. . ... ... ... : ... .. . ... ... ...
ROW C3 : A-2 00 1 P7E ... ... : A-1 00 3 ... ... ... : E-3 00 . ... ... ... : B-# 01 5 ... ... ... : C#1 05 . ... ... ... : E-2 04 5 I01 JB4 ...
ROW C4 : A-2 03 . ... ... ... : A-1 01 . ... ... ... : E-2 00 . ... ... ... : C-# 00 4 ... ... ... : ... .. . ... ... ... : ... .. 4 ... ... ...
ROW C5 : A-2 02 . ... ... ... : A-1 02 . ... ... ... : ... .. . ... ... ... : ... .. 3 ... ... ... : ... .. . ... ... ... : ... .. . ... ... ...
ROW C6 : A-2 01 . ... ... ... : ... .. . ... ... ... : ... .. . ... ... ... : D-# 01 . ... ... ... : ... .. . ... ... ... : ... .. 3 ... ... ...
ROW C7 : ... .. . ... ... ... : ... .. . ... ... ... : ... .. . ... ... ... : C-# 01 . ... ... ... : ... .. . ... ... ... : ... .. . ... ... ...
ROW C8 : ... .. . ... ... ... : ... .. . ... ... ... : ... .. . ... ... ... : D-# 00 2 ... ... ... : ... .. . ... ... ... : ... .. . ... ... ...
ROW C9 : ... .. . ... ... ... : ... .. . ... ... ... : ... .. . ... ... ... : ... .. . ... ... ... : ... .. . ... ... ... : ... .. . ... ... ...
ROW CA : ... .. . ... ... ... : ... .. . ... ... ... : --- .. . ... ... ... : ... .. . ... ... ... : ... .. . ... ... ... : ... .. . ... ... ...
ROW CB : ... .. . ... ... ... : ... .. . ... ... ... : ... .. . ... ... ... : ... .. . ... ... ... : ... .. . ... ... ... : ... .. . ... ... ...
ROW CC : ... .. . ... ... ... : A-2 02 1 ... ... ... : ... .. . ... ... ... : ... .. . ... ... ... : ... .. . ... ... ... : ... .. . ... ... ...
ROW CD : ... .. . ... ... ... : B-1 02 . ... ... ... : ... .. . ... ... ... : ... .. . ... ... ... : ... .. . ... ... ... : ... .. . ... ... ...
ROW CE : --- .. . ... ... ... : A-1 00 . ... ... ... : ... .. . ... ... ... : ... .. . ... ... ... : ... .. . ... ... ... : ... .. . ... ... ...
ROW CF : ... .. . P80 ... ... : A-1 01 . ... ... ... : ... .. . ... ... ... : ... .. . ... ... ... : ... .. . ... ... ... : ... .. 1 ... ... ...
ROW D0 : F#2 00 7 P7E ... ... : F#1 00 C ... ... ... : F#3 00 . ... ... ... : 9-# 01 5 ... ... ... : C-1 05 . ... ... ... : ... .. 5 ... ... ...
ROW D1 : F#2 03 . ... ... ... : F#1 01 . ... ... ... : F#2 00 . ... ... ... : A-# 00 4 ... ... ... : ... .. . ... ... ... : ... .. 4 ... ... ...
ROW D2 : F#2 02 . ... ... ... : F#1 02 . ... ... ... : ... .. . ... ... ... : ... .. 3 ... ... ... : ... .. . ... ... ... : ... .. . ... ... ...
ROW D3 : F#2 01 . ... ... ... : ... .. . ... ... ... : ... .. . ... ... ... : B-# 01 . ... ... ... : ... .. . ... ... ... : ... .. 3 ... ... ...
ROW D4 : ... .. . ... ... ... : ... .. . ... ... ... : ... .. . ... ... ... : A-# 01 . ... ... ... : ... .. . ... ... ... : ... .. . ... ... ...
ROW D5 : ... .. . ... ... ... : ... .. . ... ... ... : ... .. . ... ... ... : B-# 00 2 ... ... ... : ... .. . ... ... ... : ... .. . ... ... ...
ROW D6 : ... .. . ... ... ... : ... .. . ... ... ... : ... .. . ... ... ... : ... .. . ... ... ... : ... .. . ... ... ... : ... .. . ... ... ...
ROW D7 : ... .. . ... ... ... : ... .. . ... ... ... : ... .. . ... ... ... : ... .. . ... ... ... : ... .. . ... ... ... : ... .. . ... ... ...
ROW D8 : ... .. . ... ... ... : ... .. . ... ... ... : ... .. . ... ... ... : ... .. . ... ... ... : ... .. . ... ... ... : ... .. . ... ... ...
ROW D9 : ... .. . ... ... ... : ... .. . ... ... ... : ... .. . ... ... ... : ... .. . ... ... ... : ... .. . ... ... ... : ... .. . ... ... ...
ROW DA : ... .. . ... ... ... : ... .. . ... ... ... : ... .. . ... ... ... : ... .. . ... ... ... : ... .. . ... ... ... : ... .. . ... ... ...
ROW DB : ... .. 3 ... ... ... : F#2 02 7 ... ... ... : ... .. . ... ... ... : ... .. . ... ... ... : ... .. . ... ... ... : ... .. 1 ... ... ...
ROW DC : ... .. . ... ... ... : G#1 02 . ... ... ... : ... .. . ... ... ... : ... .. . ... ... ... : ... .. . ... ... ... : ... .. . ... ... ...
ROW DD : G#2 00 7 ... ... ... : G#1 00 C ... ... ... : ... .. . ... ... ... : B-# 01 5 ... ... ... : C#1 05 . ... ... ... : ... .. 5 ... ... ...
ROW DE : G#2 03 . ... ... ... : G#1 01 . ... ... ... : ... .. . ... ... ... : C-# 00 4 ... ... ... : ... .. . ... ... ... : ... .. 4 ... ... ...
ROW DF : G#2 02 . ... ... ... : G#1 02 . ... ... ... : ... .. . ... ... ... : ... .. 3 ... ... ... : ... .. . ... ... ... : ... .. . ... ... ...
ROW E0 : G#2 01 . ... ... ... : ... .. . ... ... ... : ... .. . ... ... ... : D-# 01 . ... ... ... : ... .. . ... ... ... : ... .. 3 ... ... ...
ROW E1 : ... .. . ... ... ... : ... .. . ... ... ... : ... .. . ... ... ... : C-# 01 . ... ... ... : ... .. . ... ... ... : ... .. . ... ... ...
ROW E2 : ... .. . ... ... ... : ... .. . ... ... ... : ... .. . ... ... ... : D-# 00 2 ... ... ... : ... .. . ... ... ... : ... .. . ... ... ...
ROW E3 : ... .. . ... ... ... : ... .. . ... ... ... : ... .. . ... ... ... : ... .. . ... ... ... : ... .. . ... ... ... : ... .. . ... ... ...
ROW E4 : ... .. . ... ... ... : ... .. . ... ... ... : ... .. . ... ... ... : ... .. . ... ... ... : ... .. . ... ... ... : ... .. . ... ... ...
ROW E5 : ... .. . ... ... ... : ... .. . ... ... ... : ... .. . ... ... ... : ... .. . ... ... ... : ... .. . ... ... ... : ... .. . ... ... ...
ROW E6 : ... .. . ... ... ... : ... .. . ... ... ... : ... .. . ... ... ... : ... .. . ... ... ... : ... .. . ... ... ... : ... .. . ... ... ...
ROW E7 : ... .. . ... ... ... : ... .. . ... ... ... : ... .. . ... ... ... : ... .. . ... ... ... : ... .. . ... ... ... : ... .. . ... ... ...
ROW E8 : ... .. 3 ... ... ... : F#2 02 7 ... ... ... : ... .. . ... ... ... : ... .. . ... ... ... : ... .. . ... ... ... : ... .. 1 ... ... ...
ROW E9 : ... .. . ... ... ... : G#1 02 . ... ... ... : ... .. . ... ... ... : ... .. . ... ... ... : ... .. . ... ... ... : ... .. . ... ... ...
ROW EA : A-2 00 7 ... ... ... : A-1 00 C ... ... ... : ... .. . ... ... ... : 9-# 01 5 ... ... ... : C#1 05 . ... ... ... : E-3 04 5 I01 JB2 ...
ROW EB : A-2 03 . ... ... ... : A-1 01 . ... ... ... : ... .. . ... ... ... : A-# 00 4 ... ... ... : ... .. . ... ... ... : ... .. 4 ... ... ...
ROW EC : A-2 02 . ... ... ... : A-1 02 . ... ... ... : ... .. . ... ... ... : ... .. 3 ... ... ... : ... .. . ... ... ... : ... .. . ... ... ...
ROW ED : A-2 01 . ... ... ... : ... .. . ... ... ... : ... .. . ... ... ... : B-# 01 . ... ... ... : ... .. . ... ... ... : ... .. 3 ... ... ...
ROW EE : ... .. . ... ... ... : ... .. . ... ... ... : ... .. . ... ... ... : A-# 01 . ... ... ... : ... .. . ... ... ... : ... .. . ... ... ...
ROW EF : ... .. . ... ... ... : ... .. . ... ... ... : ... .. . ... ... ... : B-# 00 2 ... ... ... : ... .. . ... ... ... : ... .. . ... ... ...
ROW F0 : ... .. . ... ... ... : ... .. . ... ... ... : ... .. . ... ... ... : ... .. . ... ... ... : ... .. . ... ... ... : ... .. . ... ... ...
ROW F1 : ... .. . ... ... ... : ... .. . ... ... ... : --- .. . ... ... ... : ... .. . ... ... ... : ... .. . ... ... ... : ... .. . ... ... ...
ROW F2 : ... .. . ... ... ... : ... .. . ... ... ... : ... .. . ... ... ... : ... .. . ... ... ... : ... .. . ... ... ... : ... .. . ... ... ...
ROW F3 : ... .. . ... ... ... : ... .. . ... ... ... : ... .. . ... ... ... : ... .. . ... ... ... : ... .. . ... ... ... : ... .. . ... ... ...
ROW F4 : ... .. . ... ... ... : ... .. . ... ... ... : ... .. . ... ... ... : ... .. . ... ... ... : ... .. . ... ... ... : ... .. . ... ... ...
ROW F5 : ... .. 3 ... ... ... : G#2 02 7 ... ... ... : ... .. . ... ... ... : ... .. . ... ... ... : ... .. . ... ... ... : ... .. 1 ... ... ...
ROW F6 : ... .. . ... ... ... : A#1 02 . ... ... ... : ... .. . ... ... ... : ... .. . ... ... ... : ... .. . ... ... ... : ... .. . ... ... ...
ROW F7 : F#2 00 7 ... ... ... : F#1 00 C ... ... ... : F#3 00 . ... ... ... : B-# 01 5 ... ... ... : C-1 05 . ... ... ... : E-2 04 5 I01 JB4 ...
ROW F8 : F#2 03 . ... ... ... : F#1 01 . ... ... ... : F#2 00 . ... ... ... : C-# 00 4 ... ... ... : ... .. . ... ... ... : ... .. 4 ... ... ...
ROW F9 : F#2 02 . ... ... ... : F#1 02 . ... ... ... : ... .. . ... ... ... : ... .. 3 ... ... ... : ... .. . ... ... ... : ... .. . ... ... ...
ROW FA : F#2 01 . ... ... ... : ... .. . ... ... ... : ... .. . ... ... ... : D-# 01 . ... ... ... : ... .. . ... ... ... : ... .. 3 ... ... ...
ROW FB : ... .. . ... ... ... : ... .. . ... ... ... : ... .. . ... ... ... : C-# 01 . ... ... ... : ... .. . ... ... ... : ... .. . ... ... ...
ROW FC : ... .. . ... ... ... : ... .. . ... ... ... : ... .. . ... ... ... : D-# 00 2 ... ... ... : ... .. . ... ... ... : ... .. . ... ... ...
ROW FD : ... .. . ... ... ... : ... .. . ... ... ... : ... .. . ... ... ... : ... .. . ... ... ... : ... .. . ... ... ... : ... .. . ... ... ...
ROW FE : ... .. . ... ... ... : ... .. . ... ... ... : --- .. . ... ... ... : ... .. . ... ... ... : ... .. . ... ... ... : ... .. . ... ... ...
ROW FF : ... .. . ... ... ... : ... .. . ... ... ... : ... .. . ... ... ... : ... .. . ... ... ... : ... .. . ... ... ... : ... .. . ... ... ...

PATTERN 01
ROW 00 : ... .. . ... ... ... : ... .. . ... ... ... : ... .. . ... ... ... : ... .. . ... ... ... : ... .. . ... ... ... : ... .. . ... ... ...
ROW 01 : ... .. . ... ... ... : ... .. . ... ... ... : ... .. . ... ... ... : ... .. . ... ... ... : ... .. . ... ... ... : ... .. . ... ... ...
ROW 02 : ... .. 3 ... ... ... : A-2 02 7 ... ... ... : ... .. . ... ... ... : ... .. . ... ... ... : ... .. . ... ... ... : ... .. 1 ... ... ...
ROW 03 : ... .. . ... ... ... : B-1 02 . ... ... ... : ... .. . ... ... ... : ... .. . ... ... ... : ... .. . ... ... ... : ... .. . ... ... ...
ROW 04 : G#2 00 7 ... ... ... : G#1 00 C ... ... ... : F#3 00 . ... ... ... : 9-# 01 8 ... ... ... : D-1 05 . ... ... ... : ... .. 5 ... ... ...
ROW 05 : G#2 03 . ... ... ... : G#1 01 . ... ... ... : F#2 00 . ... ... ... : A-# 00 6 ... ... ... : ... .. . ... ... ... : ... .. 4 ... ... ...
ROW 06 : G#2 02 . ... ... ... : G#1 02 . ... ... ... : ... .. . ... ... ... : ... .. 5 ... ... ... : ... .. . ... ... ... : ... .. . ... ... ...
ROW 07 : G#2 01 . ... ... ... : ... .. . ... ... ... : ... .. . ... ... ... : B-# 01 4 ... ... ... : ... .. . ... ... ... : ... .. 3 ... ... ...
ROW 08 : ... .. . ... ... ... : ... .. . ... ... ... : ... .. . ... ... ... : A-# 01 . ... ... ... : ... .. . ... ... ... : ... .. . ... ... ...
ROW 09 : ... .. . ... ... ... : ... .. . ... ... ... : ... .. . ... ... ... : B-# 00 . ... ... ... : ... .. . ... ... ... : ... .. . ... ... ...
ROW 0A : ... .. . ... ... ... : ... .. . ... ... ... : ... .. . ... ... ... : ... .. . ... ... ... : ... .. . ... ... ... : ... .. . ... ... ...
ROW 0B : ... .. . ... ... ... : ... .. . ... ... ... : ... .. . ... ... ... : ... .. . ... ... ... : ... .. . ... ... ... : ... .. . ... ... ...
ROW 0C : ... .. . ... ... ... : ... .. . ... ... ... : ... .. . ... ... ... : ... .. 3 ... ... ... : ... .. . ... ... ... : ... .. . ... ... ...
ROW 0D : ... .. . ... ... ... : ... .. . ... ... ... : ... .. . ... ... ... : ... .. . ... ... ... : ... .. . ... ... ... : ... .. . ... ... ...
ROW 0E : ... .. . ... ... ... : ... .. . ... ... ... : ... .. . ... ... ... : ... .. . ... ... ... : ... .. . ... ... ... : ... .. . ... ... ...
ROW 0F : ... .. 3 ... ... ... : F#2 02 7 ... ... ... : ... .. . ... ... ... : ... .. . ... ... ... : ... .. . ... ... ... : ... .. . ... ... ...
ROW 10 : ... .. . ... ... ... : G#1 02 . ... ... ... : ... .. . ... ... ... : ... .. . ... ... ... : ... .. . ... ... ... : ... .. 1 ... ... ...
ROW 11 : A-2 00 7 ... ... ... : A-1 00 C ... ... ... : ... .. . ... ... ... : B-# 01 5 ... ... ... : C#1 05 . ... ... ... : ... .. 5 ... ... ...
ROW 12 : A-2 03 . ... ... ... : A-1 01 . ... ... ... : ... .. . ... ... ... : C-# 00 4 ... ... ... : ... .. . ... ... ... : ... .. 4 ... ... ...
ROW 13 : A-2 02 . ... ... ... : A-1 02 . ... ... ... : ... .. . ... ... ... : ... .. 3 ... ... ... : ... .. . ... ... ... : ... .. . ... ... ...
ROW 14 : A-2 01 . ... ... ... : ... .. . ... ... ... : ... .. . ... ... ... : D-# 01 . ... ... ... : ... .. . ... ... ... : ... .. 3 ... ... ...
ROW 15 : ... .. . ... ... ... : ... .. . ... ... ... : ... .. . ... ... ... : C-# 01 . ... ... ... : ... .. . ... ... ... : ... .. . ... ... ...
ROW 16 : ... .. . ... ... ... : ... .. . ... ... ... : ... .. . ... ... ... : D-# 00 2 ... ... ... : ... .. . ... ... ... : ... .. . ... ... ...
ROW 17 : ... .. . ... ... ... : ... .. . ... ... ... : ... .. . ... ... ... : ... .. . ... ... ... : ... .. . ... ... ... : ... .. . ... ... ...
ROW 18 : ... .. . ... ... ... : ... .. . ... ... ... : ... .. . ... ... ... : ... .. . ... ... ... : ... .. . ... ... ... : ... .. . ... ... ...
ROW 19 : ... .. . ... ... ... : ... .. . ... ... ... : ... .. . ... ... ... : ... .. . ... ... ... : ... .. . ... ... ... : ... .. . ... ... ...
ROW 1A : ... .. . ... ... ... : ... .. . ... ... ... : ... .. . ... ... ... : ... .. . ... ... ... : ... .. . ... ... ... : ... .. . ... ... ...
ROW 1B : ... .. . ... ... ... : ... .. . ... ... ... : ... .. . ... ... ... : ... .. . ... ... ... : ... .. . ... ... ... : ... .. . ... ... ...
ROW 1C : ... .. 3 ... ... ... : G#2 02 7 ... ... ... : ... .. . ... ... ... : ... .. . ... ... ... : ... .. . ... ... ... : ... .. 1 ... ... ...
ROW 1D : ... .. . ... ... ... : A#1 02 . ... ... ... : ... .. . ... ... ... : ... .. . ... ... ... : ... .. . ... ... ... : ... .. . ... ... ...
ROW 1E : F#2 00 7 ... ... ... : F#1 00 C ... ... ... : ... .. . ... ... ... : 9-# 01 5 ... ... ... : C#1 05 . ... ... ... : E-3 04 5 I01 JB2 ...
ROW 1F : F#2 03 . ... ... ... : F#1 01 . ... ... ... : ... .. . ... ... ... : A-# 00 4 ... ... ... : ... .. . ... ... ... : ... .. 4 ... ... ...
ROW 20 : F#2 02 . ... ... ... : F#1 02 . ... ... ... : ... .. . ... ... ... : ... .. 3 ... ... ... : ... .. . ... ... ... : ... .. . ... ... ...
ROW 21 : F#2 01 . ... ... ... : ... .. . ... ... ... : ... .. . ... ... ... : B-# 01 . ... ... ... : ... .. . ... ... ... : ... .. 3 ... ... ...
ROW 22 : ... .. . ... ... ... : ... .. . ... ... ... : ... .. . ... ... ... : A-# 01 . ... ... ... : ... .. . ... ... ... : ... .. . ... ... ...
ROW 23 : ... .. . ... ... ... : ... .. . ... ... ... : ... .. . ... ... ... : B-# 00 2 ... ... ... : ... .. . ... ... ... : ... .. . ... ... ...
ROW 24 : ... .. . ... ... ... : ... .. . ... ... ... : ... .. . ... ... ... : ... .. . ... ... ... : ... .. . ... ... ... : ... .. . ... ... ...
ROW 25 : ... .. . ... ... ... : ... .. . ... ... ... : --- .. . ... ... ... : ... .. . ... ... ... : ... .. . ... ... ... : ... .. . ... ... ...
ROW 26 : ... .. . ... ... ... : ... .. . ... ... ... : ... .. . ... ... ... : ... .. . ... ... ... : ... .. . ... ... ... : ... .. . ... ... ...
ROW 27 : ... .. . ... ... ... : ... .. . ... ... ... : ... .. . ... ... ... : ... .. . ... ... ... : ... .. . ... ... ... : ... .. . ... ... ...
ROW 28 : ... .. . ... ... ... : ... .. . ... ... ... : ... .. . ... ... ... : ... .. . ... ... ... : ... .. . ... ... ... : ... .. . ... ... ...
ROW 29 : ... .. 3 ... ... ... : A-2 02 7 ... ... ... : ... .. . ... ... ... : ... .. . ... ... ... : ... .. . ... ... ... : ... .. 1 ... ... ...
ROW 2A : ... .. . ... ... ... : B-1 02 . ... ... ... : ... .. . ... ... ... : ... .. . ... ... ... : ... .. . ... ... ... : ... .. . ... ... ...
ROW 2B : G#2 00 7 ... ... ... : G#1 00 C ... ... ... : F#3 00 . ... ... ... : B-# 01 5 ... ... ... : C-1 05 . ... ... ... : E-2 04 5 I01 JB4 ...
ROW 2C : G#2 03 . ... ... ... : G#1 01 . ... ... ... : F#2 00 . ... ... ... : C-# 00 4 ... ... ... : ... .. . ... ... ... : ... .. 4 ... ... ...
ROW 2D : G#2 02 . ... ... ... : G#1 02 . ... ... ... : ... .. . ... ... ... : ... .. 3 ... ... ... : ... .. . ... ... ... : ... .. . ... ... ...
ROW 2E : G#2 01 . ... ... ... : ... .. . ... ... ... : ... .. . ... ... ... : D-# 01 . ... ... ... : ... .. . ... ... ... : ... .. 3 ... ... ...
ROW 2F : ... .. . ... ... ... : ... .. . ... ... ... : ... .. . ... ... ... : C-# 01 . ... ... ... : ... .. . ... ... ... : ... .. . ... ... ...
ROW 30 : ... .. . ... ... ... : ... .. . ... ... ... : ... .. . ... ... ... : D-# 00 2 ... ... ... : ... .. . ... ... ... : ... .. . ... ... ...
ROW 31 : ... .. . ... ... ... : ... .. . ... ... ... : ... .. . ... ... ... : ... .. . ... ... ... : ... .. . ... ... ... : ... .. . ... ... ...
ROW 32 : ... .. . ... ... ... : ... .. . ... ... ... : --- .. . ... ... ... : ... .. . ... ... ... : ... .. . ... ... ... : ... .. . ... ... ...
ROW 33 : ... .. . ... ... ... : ... .. . ... ... ... : ... .. . ... ... ... : ... .. . ... ... ... : ... .. . ... ... ... : ... .. . ... ... ...
ROW 34 : ... .. . ... ... ... : ... .. . ... ... ... : ... .. . ... ... ... : ... .. . ... ... ... : ... .. . ... ... ... : ... .. . ... ... ...
ROW 35 : ... .. . ... ... ... : ... .. . ... ... ... : ... .. . ... ... ... : ... .. . ... ... ... : ... .. . ... ... ... : ... .. . ... ... ...
ROW 36 : ... .. 3 ... ... ... : F#2 02 7 ... ... ... : ... .. . ... ... ... : ... .. . ... ... ... : ... .. . ... ... ... : ... .. . ... ... ...
ROW 37 : ... .. . ... ... ... : G#1 02 . ... ... ... : ... .. . ... ... ... : ... .. . ... ... ... : ... .. . ... ... ... : ... .. 1 ... ... ...
ROW 38 : A-2 00 7 ... ... ... : A-1 00 C ... ... ... : F#3 00 . ... ... ... : 9-# 01 5 ... ... ... : C-1 05 . ... ... ... : ... .. 5 ... ... ...
ROW 39 : A-2 03 . ... ... ... : A-1 01 . ... ... ... : F#2 00 . ... ... ... : A-# 00 4 ... ... ... : ... .. . ... ... ... : ... .. 4 ... ... ...
ROW 3A : A-2 02 . ... ... ... : A-1 02 . ... ... ... : ... .. . ... ... ... : ... .. 3 ... ... ... : ... .. . ... ... ... : ... .. . ... ... ...
ROW 3B : A-2 01 . ... ... ... : ... .. . ... ... ... : ... .. . ... ... ... : B-# 01 . ... ... ... : ... .. . ... ... ... : ... .. 3 ... ... ...
ROW 3C : ... .. . ... ... ... : ... .. . ... ... ... : ... .. . ... ... ... : A-# 01 . ... ... ... : ... .. . ... ... ... : ... .. . ... ... ...
ROW 3D : ... .. . ... ... ... : ... .. . ... ... ... : ... .. . ... ... ... : B-# 00 2 ... ... ... : ... .. . ... ... ... : ... .. . ... ... ...
ROW 3E : ... .. . ... ... ... : ... .. . ... ... ... : ... .. . ... ... ... : ... .. . ... ... ... : ... .. . ... ... ... : ... .. . ... ... ...
ROW 3F : ... .. . ... ... ... : ... .. . ... ... ... : ... .. . ... ... ... : ... .. . ... ... ... : ... .. . ... ... ... : ... .. . ... ... ...
ROW 40 : ... .. . ... ... ... : ... .. . ... ... ... : ... .. . ... ... ... : ... .. . ... ... ... : ... .. . ... ... ... : ... .. . ... ... ...
ROW 41 : ... .. . ... ... ... : ... .. . ... ... ... : ... .. . ... ... ... : ... .. . ... ... ... : ... .. . ... ... ... : ... .. . ... ... ...
ROW 42 : ... .. . ... ... ... : ... .. . ... ... ... : ... .. . ... ... ... : ... .. . ... ... ... : ... .. . ... ... ... : ... .. . ... ... ...
ROW 43 : ... .. 3 ... ... ... : G#2 02 7 ... ... ... : ... .. . ... ... ... : ... .. . ... ... ... : ... .. . ... ... ... : ... .. 1 ... ... ...
ROW 44 : ... .. . ... ... ... : A#1 02 . ... ... ... : ... .. . ... ... ... : ... .. . ... ... ... : ... .. . ... ... ... : ... .. . ... ... ...
ROW 45 : F#2 00 7 ... ... ... : F#1 00 C ... ... ... : ... .. . ... ... ... : B-# 01 5 ... ... ... : C#1 05 . ... ... ... : ... .. 5 ... ... ...
ROW 46 : F#2 03 . ... ... ... : F#1 01 . ... ... ... : ... .. . ... ... ... : C-# 00 4 ... ... ... : ... .. . ... ... ... : ... .. 4 ... ... ...
ROW 47 : F#2 02 . ... ... ... : F#1 02 . ... ... ... : ... .. . ... ... ... : ... .. 3 ... ... ... : ... .. . ... ... ... : ... .. . ... ... ...
ROW 48 : F#2 01 . ... ... ... : ... .. . ... ... ... : ... .. . ... ... ... : D-# 01 . ... ... ... : ... .. . ... ... ... : ... .. 3 ... ... ...
ROW 49 : ... .. . ... ... ... : ... .. . ... ... ... : ... .. . ... ... ... : C-# 01 . ... ... ... : ... .. . ... ... ... : ... .. . ... ... ...
ROW 4A : ... .. . ... ... ... : ... .. . ... ... ... : ... .. . ... ... ... : D-# 00 2 ... ... ... : ... .. . ... ... ... : ... .. . ... ... ...
ROW 4B : ... .. . ... ... ... : ... .. . ... ... ... : ... .. . ... ... ... : ... .. . ... ... ... : ... .. . ... ... ... : ... .. . ... ... ...
ROW 4C : ... .. . ... ... ... : ... .. . ... ... ... : ... .. . ... ... ... : ... .. . ... ... ... : ... .. . ... ... ... : ... .. . ... ... ...
ROW 4D : ... .. . ... ... ... : ... .. . ... ... ... : ... .. . ... ... ... : ... .. . ... ... ... : ... .. . ... ... ... : ... .. . ... ... ...
ROW 4E : ... .. . ... ... ... : ... .. . ... ... ... : ... .. . ... ... ... : ... .. . ... ... ... : ... .. . ... ... ... : ... .. . ... ... ...
ROW 4F : ... .. . ... ... ... : ... .. . ... ... ... : ... .. . ... ... ... : ... .. . ... ... ... : ... .. . ... ... ... : ... .. . ... ... ...
ROW 50 : ... .. 3 ... ... ... : A-2 02 7 ... ... ... : ... .. . ... ... ... : ... .. . ... ... ... : ... .. . ... ... ... : ... .. 1 ... ... ...
ROW 51 : ... .. . ... ... ... : B-1 02 . ... ... ... : ... .. . ... ... ... : ... .. . ... ... ... : ... .. . ... ... ... : ... .. . ... ... ...
ROW 52 : G#2 00 7 ... ... ... : G#1 00 C ... ... ... : ... .. . ... ... ... : 9-# 01 5 ... ... ... : C#1 05 . ... ... ... : E-3 04 5 I01 JB2 ...
ROW 53 : G#2 03 . ... ... ... : G#1 01 . ... ... ... : ... .. . ... ... ... : A-# 00 4 ... ... ... : ... .. . ... ... ... : ... .. 4 ... ... ...
ROW 54 : G#2 02 . ... ... ... : G#1 02 . ... ... ... : ... .. . ... ... ... : ... .. 3 ... ... ... : ... .. . ... ... ... : ... .. . ... ... ...
ROW 55 : G#2 01 . ... ... ... : ... .. . ... ... ... : ... .. . ... ... ... : B-# 01 . ... ... ... : ... .. . ... ... ... : ... .. 3 ... ... ...
ROW 56 : ... .. . ... ... ... : ... .. . ... ... ... : ... .. . ... ... ... : A-# 01 . ... ... ... : ... .. . ... ... ... : ... .. . ... ... ...
ROW 57 : ... .. . ... ... ... : ... .. . ... ... ... : ... .. . ... ... ... : B-# 00 2 ... ... ... : ... .. . ... ... ... : ... .. . ... ... ...
ROW 58 : ... .. . ... ... ... : ... .. . ... ... ... : ... .. . ... ... ... : ... .. . ... ... ... : ... .. . ... ... ... : ... .. . ... ... ...
ROW 59 : ... .. . ... ... ... : ... .. . ... ... ... : --- .. . ... ... ... : ... .. . ... ... ... : ... .. . ... ... ... : ... .. . ... ... ...
ROW 5A : ... .. . ... ... ... : ... .. . ... ... ... : ... .. . ... ... ... : ... .. . ... ... ... : ... .. . ... ... ... : ... .. . ... ... ...
ROW 5B : ... .. . ... ... ... : ... .. . ... ... ... : ... .. . ... ... ... : ... .. . ... ... ... : ... .. . ... ... ... : ... .. . ... ... ...
ROW 5C : ... .. . ... ... ... : ... .. . ... ... ... : ... .. . ... ... ... : ... .. . ... ... ... : ... .. . ... ... ... : ... .. . ... ... ...
ROW 5D : ... .. 3 ... ... ... : F#2 02 7 ... ... ... : ... .. . ... ... ... : ... .. . ... ... ... : ... .. . ... ... ... : ... .. 1 ... ... ...
ROW 5E : ... .. . ... ... ... : G#1 02 . ... ... ... : ... .. . ... ... ... : ... .. . ... ... ... : ... .. . ... ... ... : ... .. . ... ... ...
ROW 5F : A-2 00 7 ... ... ... : A-1 00 C ... ... ... : F#3 00 . ... ... ... : A-# 01 8 ... ... ... : D#1 05 . ... ... ... : E-2 04 5 I01 JB4 ...
ROW 60 : A-2 03 . ... ... ... : A-1 01 . ... ... ... : F#2 00 . ... ... ... : B-# 00 6 ... ... ... : ... .. . ... ... ... : ... .. 4 ... ... ...
ROW 61 : A-2 02 . ... ... ... : A-1 02 . ... ... ... : ... .. . ... ... ... : ... .. 5 ... ... ... : ... .. . ... ... ... : ... .. . ... ... ...
ROW 62 : A-2 01 . ... ... ... : ... .. . ... ... ... : ... .. . ... ... ... : C-# 01 4 ... ... ... : ... .. . ... ... ... : ... .. 3 ... ... ...
ROW 63 : ... .. . ... ... ... : ... .. . ... ... ... : ... .. . ... ... ... : B-# 01 . ... ... ... : ... .. . ... ... ... : ... .. . ... ... ...
ROW 64 : ... .. . ... ... ... : ... .. . ... ... ... : ... .. . ... ... ... : C-# 00 . ... ... ... : ... .. . ... ... ... : ... .. . ... ... ...
ROW 65 : ... .. . ... ... ... : ... .. . ... ... ... : ... .. . ... ... ... : ... .. . ... ... ... : ... .. . ... ... ... : ... .. . ... ... ...
ROW 66 : ... .. . ... ... ... : ... .. . ... ... ... : --- .. . ... ... ... : ... .. . ... ... ... : ... .. . ... ... ... : ... .. . ... ... ...
ROW 67 : ... .. . ... ... ... : ... .. . ... ... ... : ... .. . ... ... ... : ... .. 3 ... ... ... : ... .. . ... ... ... : ... .. . ... ... ...
ROW 68 : ... .. . ... ... ... : ... .. . ... ... ... : ... .. . ... ... ... : ... .. . ... ... ... : ... .. . ... ... ... : ... .. . ... ... ...
ROW 69 : ... .. . ... ... ... : ... .. . ... ... ... : ... .. . ... ... ... : ... .. . ... ... ... : ... .. . ... ... ... : ... .. . ... ... ...
ROW 6A : ... .. 3 ... ... ... : G#2 02 7 ... ... ... : ... .. . ... ... ... : ... .. . ... ... ... : ... .. . ... ... ... : ... .. 1 ... ... ...
ROW 6B : ... .. . ... ... ... : A#1 02 . ... ... ... : ... .. . ... ... ... : ... .. . ... ... ... : ... .. . ... ... ... : ... .. . ... ... ...
ROW 6C : A-2 00 5 ... ... ... : A-1 00 8 ... ... ... : F#3 00 . ... ... ... : 9-# 01 9 ... ... ... : D-1 05 . ... ... ... : ... .. . ... ... ...
ROW 6D : A-2 03 . ... ... ... : A-1 01 . ... ... ... : F#2 00 . ... ... ... : A-# 00 6 ... ... ... : ... .. . ... ... ... : ... .. 4 ... ... ...
ROW 6E : A-2 02 . ... ... ... : A-1 02 . ... ... ... : ... .. . ... ... ... : ... .. . ... ... ... : ... .. . ... ... ... : ... .. . ... ... ...
ROW 6F : A-2 01 . ... ... ... : ... .. . ... ... ... : ... .. . ... ... ... : B-# 01 5 ... ... ... : ... .. . ... ... ... : ... .. 3 ... ... ...
ROW 70 : ... .. . ... ... ... : ... .. . ... ... ... : ... .. . ... ... ... : A-# 01 . ... ... ... : ... .. . ... ... ... : ... .. . ... ... ...
ROW 71 : ... .. . ... ... ... : ... .. . ... ... ... : ... .. . ... ... ... : B-# 00 4 ... ... ... : ... .. . ... ... ... : ... .. . ... ... ...
ROW 72 : ... .. . ... ... ... : ... .. . ... ... ... : ... .. . ... ... ... : ... .. . ... ... ... : ... .. . ... ... ... : ... .. . ... ... ...
ROW 73 : ... .. . ... ... ... : ... .. . ... ... ... : ... .. . ... ... ... : ... .. . ... ... ... : ... .. . ... ... ... : ... .. . ... ... ...
ROW 74 : ... .. . ... ... ... : ... .. . ... ... ... : ... .. . ... ... ... : ... .. . ... ... ... : ... .. . ... ... ... : ... .. . ... ... ...
ROW 75 : ... .. . ... ... ... : ... .. . ... ... ... : ... .. . ... ... ... : ... .. . ... ... ... : ... .. . ... ... ... : ... .. . ... ... ...
ROW 76 : ... .. . ... ... ... : ... .. . ... ... ... : ... .. . ... ... ... : ... .. 3 ... ... ... : ... .. . ... ... ... : ... .. . ... ... ...
ROW 77 : ... .. 1 ... ... ... : A-2 02 4 ... ... ... : ... .. . ... ... ... : ... .. . ... ... ... : ... .. . ... ... ... : ... .. 1 ... ... ...
ROW 78 : ... .. . ... ... ... : B-1 02 . ... ... ... : ... .. . ... ... ... : ... .. . ... ... ... : ... .. . ... ... ... : ... .. . ... ... ...
ROW 79 : A-2 00 3 ... ... ... : A-1 00 5 ... ... ... : ... .. . ... ... ... : B-# 01 7 ... ... ... : C#1 05 . ... ... ... : ... .. 5 ... ... ...
ROW 7A : A-2 03 . ... ... ... : A-1 01 . ... ... ... : ... .. . ... ... ... : C-# 00 5 ... ... ... : ... .. . ... ... ... : ... .. 4 ... ... ...
ROW 7B : A-2 02 . ... ... ... : A-1 02 . ... ... ... : ... .. . ... ... ... : ... .. 4 ... ... ... : ... .. . ... ... ... : ... .. . ... ... ...
ROW 7C : A-2 01 . ... ... ... : ... .. . ... ... ... : ... .. . ... ... ... : D-# 01 . ... ... ... : ... .. . ... ... ... : ... .. 3 ... ... ...
ROW 7D : ... .. . ... ... ... : ... .. . ... ... ... : ... .. . ... ... ... : C-# 01 . ... ... ... : ... .. . ... ... ... : ... .. . ... ... ...
ROW 7E : ... .. . ... ... ... : ... .. . ... ... ... : ... .. . ... ... ... : D-# 00 1 ... ... ... : ... .. . ... ... ... : ... .. . ... ... ...
ROW 7F : ... .. . ... ... ... : ... .. . ... ... ... : ... .. . ... ... ... : B-# 01 8 ... ... ... : ... .. . ... ... ... : ... .. . ... ... ...
ROW 80 : ... .. . ... ... ... : ... .. . ... ... ... : ... .. . ... ... ... : C-# 00 6 ... ... ... : ... .. . ... ... ... : ... .. . ... ... ...
ROW 81 : ... .. . ... ... ... : ... .. . ... ... ... : ... .. . ... ... ... : ... .. 5 ... ... ... : ... .. . ... ... ... : ... .. . ... ... ...
ROW 82 : ... .. . ... ... ... : ... .. . ... ... ... : ... .. . ... ... ... : D-# 01 4 ... ... ... : ... .. . ... ... ... : ... .. . ... ... ...
ROW 83 : ... .. . ... ... ... : ... .. . ... ... ... : ... .. . ... ... ... : C-# 01 . ... ... ... : ... .. . ... ... ... : ... .. . ... ... ...
ROW 84 : --- .. . ... ... ... : A-2 02 3 ... ... ... : ... .. . ... ... ... : D-# 00 . ... ... ... : ... .. . ... ... ... : ... .. 1 ... ... ...
ROW 85 : ... .. . P80 ... ... : B-1 02 . ... ... ... : ... .. . ... ... ... : ... .. 1 ... ... ... : ... .. . ... ... ... : ... .. . ... ... ...
ROW 86 : A-2 00 2 P7E ... ... : A-1 00 . ... ... ... : ... .. . ... ... ... : B-# 01 8 ... ... ... : C#1 05 . ... ... ... : E-3 04 5 I01 JB2 ...
ROW 87 : A-2 03 . ... ... ... : A-1 01 . ... ... ... : ... .. . ... ... ... : C-# 00 6 ... ... ... : ... .. . ... ... ... : ... .. 4 ... ... ...
ROW 88 : A-2 02 . ... ... ... : A-1 02 . ... ... ... : ... .. . ... ... ... : ... .. 5 ... ... ... : ... .. . ... ... ... : ... .. . ... ... ...
ROW 89 : A-2 01 . ... ... ... : ... .. . ... ... ... : ... .. . ... ... ... : D-# 01 4 ... ... ... : ... .. . ... ... ... : ... .. 3 ... ... ...
ROW 8A : ... .. . ... ... ... : ... .. . ... ... ... : ... .. . ... ... ... : C-# 01 . ... ... ... : ... .. . ... ... ... : ... .. . ... ... ...
ROW 8B : ... .. . ... ... ... : ... .. . ... ... ... : ... .. . ... ... ... : D-# 00 1 ... ... ... : ... .. . ... ... ... : ... .. . ... ... ...
ROW 8C : ... .. . ... ... ... : ... .. . ... ... ... : ... .. . ... ... ... : B-# 01 9 ... ... ... : C-1 05 . ... ... ... : ... .. . ... ... ...
ROW 8D : ... .. . ... ... ... : ... .. . ... ... ... : --- .. . ... ... ... : C-# 00 6 ... ... ... : ... .. . ... ... ... : ... .. . ... ... ...
ROW 8E : ... .. . ... ... ... : ... .. . ... ... ... : ... .. . ... ... ... : ... .. . ... ... ... : ... .. . ... ... ... : ... .. . ... ... ...
ROW 8F : ... .. . ... ... ... : ... .. . ... ... ... : ... .. . ... ... ... : D-# 01 5 ... ... ... : ... .. . ... ... ... : ... .. . ... ... ...
ROW 90 : ... .. . ... ... ... : ... .. . ... ... ... : ... .. . ... ... ... : C-# 01 . ... ... ... : ... .. . ... ... ... : ... .. . ... ... ...
ROW 91 : --- .. . ... ... ... : A-2 02 2 ... ... ... : ... .. . ... ... ... : D-# 00 4 ... ... ... : ... .. . ... ... ... : ... .. 1 ... ... ...
ROW 92 : ... .. . P80 ... ... : B-1 02 . ... ... ... : ... .. . ... ... ... : ... .. 1 ... ... ... : ... .. . ... ... ... : ... .. . ... ... ...
ROW 93 : A-2 00 1 P7E ... ... : A-1 00 3 ... ... ... : E-3 00 . ... ... ... : B-# 01 A ... ... ... : C-1 05 . ... ... ... : E-2 04 . I01 JB4 ...
ROW 94 : A-2 03 . ... ... ... : A-1 01 . ... ... ... : E-2 00 . ... ... ... : C-# 00 7 ... ... ... : ... .. . ... ... ... : ... .. 4 ... ... ...
ROW 95 : A-2 02 . ... ... ... : A-1 02 . ... ... ... : ... .. . ... ... ... : ... .. 6 ... ... ... : ... .. . ... ... ... : ... .. . ... ... ...
ROW 96 : A-2 01 . ... ... ... : ... .. . ... ... ... : ... .. . ... ... ... : D-# 01 5 ... ... ... : ... .. . ... ... ... : ... .. 3 ... ... ...
ROW 97 : ... .. . ... ... ... : ... .. . ... ... ... : ... .. . ... ... ... : C-# 01 . ... ... ... : ... .. . ... ... ... : ... .. . ... ... ...
ROW 98 : ... .. . ... ... ... : ... .. . ... ... ... : ... .. . ... ... ... : D-# 00 1 ... ... ... : ... .. . ... ... ... : ... .. . ... ... ...
ROW 99 : ... .. . ... ... ... : ... .. . ... ... ... : ... .. . ... ... ... : B-# 01 B ... ... ... : C-1 05 . ... ... ... : ... .. . ... ... ...
ROW 9A : ... .. . ... ... ... : ... .. . ... ... ... : --- .. . ... ... ... : C-# 00 8 ... ... ... : ... .. . ... ... ... : ... .. . ... ... ...
ROW 9B : ... .. . ... ... ... : ... .. . ... ... ... : ... .. . ... ... ... : ... .. 7 ... ... ... : ... .. . ... ... ... : ... .. . ... ... ...
ROW 9C : ... .. . ... ... ... : A-2 02 1 ... ... ... : ... .. . ... ... ... : D-# 01 6 ... ... ... : ... .. . ... ... ... : ... .. . ... ... ...
ROW 9D : ... .. . ... ... ... : B-1 02 . ... ... ... : ... .. . ... ... ... : C-# 01 . ... ... ... : ... .. . ... ... ... : ... .. . ... ... ...
ROW 9E : --- .. . ... ... ... : A-1 00 . ... ... ... : ... .. . ... ... ... : D-# 00 5 ... ... ... : ... .. . ... ... ... : ... .. 1 ... ... ...
ROW 9F : ... .. . P80 ... ... : A-1 01 . ... ... ... : ... .. . ... ... ... : ... .. 1 ... ... ... : ... .. . ... ... ... : ... .. . ... ... ...
ROW A0 : F#2 00 7 P7E ... ... : F#1 00 C ... ... ... : F#3 00 . ... ... ... : 9-# 01 7 ... ... ... : C-1 05 . ... ... ... : ... .. . ... ... ...
ROW A1 : F#2 03 . ... ... ... : F#1 01 . ... ... ... : F#2 00 . ... ... ... : A-# 00 5 ... ... ... : ... .. . ... ... ... : ... .. 4 ... ... ...
ROW A2 : F#2 02 . ... ... ... : F#1 02 . ... ... ... : ... .. . ... ... ... : ... .. 4 ... ... ... : ... .. . ... ... ... : ... .. . ... ... ...
ROW A3 : F#2 01 . ... ... ... : ... .. . ... ... ... : ... .. . ... ... ... : B-# 01 . ... ... ... : ... .. . ... ... ... : ... .. 3 ... ... ...
ROW A4 : ... .. . ... ... ... : ... .. . ... ... ... : ... .. . ... ... ... : A-# 01 . ... ... ... : ... .. . ... ... ... : ... .. . ... ... ...
ROW A5 : ... .. . ... ... ... : ... .. . ... ... ... : ... .. . ... ... ... : B-# 00 3 ... ... ... : ... .. . ... ... ... : ... .. . ... ... ...
ROW A6 : ... .. . ... ... ... : ... .. . ... ... ... : ... .. . ... ... ... : ... .. . ... ... ... : ... .. . ... ... ... : ... .. . ... ... ...
ROW A7 : ... .. . ... ... ... : ... .. . ... ... ... : ... .. . ... ... ... : ... .. . ... ... ... : ... .. . ... ... ... : ... .. . ... ... ...
ROW A8 : ... .. . ... ... ... : ... .. . ... ... ... : ... .. . ... ... ... : ... .. . ... ... ... : ... .. . ... ... ... : ... .. . ... ... ...
ROW A9 : ... .. . ... ... ... : ... .. . ... ... ... : ... .. . ... ... ... : ... .. . ... ... ... : ... .. . ... ... ... : ... .. . ... ... ...
ROW AA : ... .. . ... ... ... : ... .. . ... ... ... : ... .. . ... ... ... : ... .. 2 ... ... ... : ... .. . ... ... ... : ... .. . ... ... ...
ROW AB : ... .. 3 ... ... ... : F#2 02 7 ... ... ... : ... .. . ... ... ... : ... .. . ... ... ... : ... .. . ... ... ... : ... .. 1 ... ... ...
ROW AC : ... .. . ... ... ... : G#1 02 . ... ... ... : ... .. . ... ... ... : ... .. . ... ... ... : ... .. . ... ... ... : ... .. . ... ... ...
ROW AD : G#2 00 7 ... ... ... : G#1 00 C ... ... ... : ... .. . ... ... ... : B-# 01 7 ... ... ... : C#1 05 . ... ... ... : ... .. 5 ... ... ...
ROW AE : G#2 03 . ... ... ... : G#1 01 . ... ... ... : ... .. . ... ... ... : C-# 00 5 ... ... ... : ... .. . ... ... ... : ... .. 4 ... ... ...
ROW AF : G#2 02 . ... ... ... : G#1 02 . ... ... ... : ... .. . ... ... ... : ... .. 4 ... ... ... : ... .. . ... ... ... : ... .. . ... ... ...
ROW B0 : G#2 01 . ... ... ... : ... .. . ... ... ... : ... .. . ... ... ... : D-# 01 . ... ... ... : ... .. . ... ... ... : ... .. 3 ... ... ...
ROW B1 : ... .. . ... ... ... : ... .. . ... ... ... : ... .. . ... ... ... : C-# 01 . ... ... ... : ... .. . ... ... ... : ... .. . ... ... ...
ROW B2 : ... .. . ... ... ... : ... .. . ... ... ... : ... .. . ... ... ... : D-# 00 3 ... ... ... : ... .. . ... ... ... : ... .. . ... ... ...
ROW B3 : ... .. . ... ... ... : ... .. . ... ... ... : ... .. . ... ... ... : ... .. . ... ... ... : ... .. . ... ... ... : ... .. . ... ... ...
ROW B4 : ... .. . ... ... ... : ... .. . ... ... ... : ... .. . ... ... ... : ... .. . ... ... ... : ... .. . ... ... ... : ... .. . ... ... ...
ROW B5 : ... .. . ... ... ... : ... .. . ... ... ... : ... .. . ... ... ... : ... .. . ... ... ... : ... .. . ... ... ... : ... .. . ... ... ...
ROW B6 : ... .. . ... ... ... : ... .. . ... ... ... : ... .. . ... ... ... : ... .. . ... ... ... : ... .. . ... ... ... : ... .. . ... ... ...
ROW B7 : ... .. . ... ... ... : ... .. . ... ... ... : ... .. . ... ... ... : ... .. 2 ... ... ... : ... .. . ... ... ... : ... .. . ... ... ...
ROW B8 : ... .. 3 ... ... ... : F#2 02 7 ... ... ... : ... .. . ... ... ... : ... .. . ... ... ... : ... .. . ... ... ... : ... .. . ... ... ...
ROW B9 : ... .. . ... ... ... : G#1 02 . ... ... ... : ... .. . ... ... ... : ... .. . ... ... ... : ... .. . ... ... ... : ... .. 1 ... ... ...
ROW BA : A-2 00 7 ... ... ... : A-1 00 C ... ... ... : ... .. . ... ... ... : 9-# 01 9 ... ... ... : D-1 05 . ... ... ... : E-3 04 5 I01 JB2 ...
ROW BB : A-2 03 . ... ... ... : A-1 01 . ... ... ... : ... .. . ... ... ... : A-# 00 6 ... ... ... : ... .. . ... ... ... : ... .. 4 ... ... ...
ROW BC : A-2 02 . ... ... ... : A-1 02 . ... ... ... : ... .. . ... ... ... : ... .. . ... ... ... : ... .. . ... ... ... : ... .. . ... ... ...
ROW BD : A-2 01 . ... ... ... : ... .. . ... ... ... : ... .. . ... ... ... : B-# 01 5 ... ... ... : ... .. . ... ... ... : ... .. 3 ... ... ...
ROW BE : ... .. . ... ... ... : ... .. . ... ... ... : ... .. . ... ... ... : A-# 01 . ... ... ... : ... .. . ... ... ... : ... .. . ... ... ...
ROW BF : ... .. . ... ... ... : ... .. . ... ... ... : ... .. . ... ... ... : B-# 00 4 ... ... ... : ... .. . ... ... ... : ... .. . ... ... ...
ROW C0 : ... .. . ... ... ... : ... .. . ... ... ... : ... .. . ... ... ... : ... .. . ... ... ... : ... .. . ... ... ... : ... .. . ... ... ...
ROW C1 : ... .. . ... ... ... : ... .. . ... ... ... : --- .. . ... ... ... : ... .. . ... ... ... : ... .. . ... ... ... : ... .. . ... ... ...
ROW C2 : ... .. . ... ... ... : ... .. . ... ... ... : ... .. . ... ... ... : ... .. . ... ... ... : ... .. . ... ... ... : ... .. . ... ... ...
ROW C3 : ... .. . ... ... ... : ... .. . ... ... ... : ... .. . ... ... ... : ... .. . ... ... ... : ... .. . ... ... ... : ... .. . ... ... ...
ROW C4 : ... .. . ... ... ... : ... .. . ... ... ... : ... .. . ... ... ... : ... .. 3 ... ... ... : ... .. . ... ... ... : ... .. . ... ... ...
ROW C5 : ... .. 3 ... ... ... : G#2 02 7 ... ... ... : ... .. . ... ... ... : ... .. . ... ... ... : ... .. . ... ... ... : ... .. 1 ... ... ...
ROW C6 : ... .. . ... ... ... : A#1 02 . ... ... ... : ... .. . ... ... ... : ... .. . ... ... ... : ... .. . ... ... ... : ... .. . ... ... ...
ROW C7 : F#2 00 7 ... ... ... : F#1 00 C ... ... ... : F#3 00 . ... ... ... : B-# 01 6 ... ... ... : C#1 05 . ... ... ... : E-2 04 . I01 JB4 ...
ROW C8 : F#2 03 . ... ... ... : F#1 01 . ... ... ... : F#2 00 . ... ... ... : C-# 00 4 ... ... ... : ... .. . ... ... ... : ... .. 4 ... ... ...
ROW C9 : F#2 02 . ... ... ... : F#1 02 . ... ... ... : ... .. . ... ... ... : ... .. . ... ... ... : ... .. . ... ... ... : ... .. . ... ... ...
ROW CA : F#2 01 . ... ... ... : ... .. . ... ... ... : ... .. . ... ... ... : D-# 01 3 ... ... ... : ... .. . ... ... ... : ... .. 3 ... ... ...
ROW CB : ... .. . ... ... ... : ... .. . ... ... ... : ... .. . ... ... ... : C-# 01 . ... ... ... : ... .. . ... ... ... : ... .. . ... ... ...
ROW CC : ... .. . ... ... ... : ... .. . ... ... ... : ... .. . ... ... ... : D-# 00 . ... ... ... : ... .. . ... ... ... : ... .. . ... ... ...
ROW CD : ... .. . ... ... ... : ... .. . ... ... ... : ... .. . ... ... ... : ... .. . ... ... ... : ... .. . ... ... ... : ... .. . ... ... ...
ROW CE : ... .. . ... ... ... : ... .. . ... ... ... : --- .. . ... ... ... : ... .. . ... ... ... : ... .. . ... ... ... : ... .. . ... ... ...
ROW CF : ... .. . ... ... ... : ... .. . ... ... ... : ... .. . ... ... ... : ... .. 2 ... ... ... : ... .. . ... ... ... : ... .. . ... ... ...
ROW D0 : ... .. . ... ... ... : ... .. . ... ... ... : ... .. . ... ... ... : ... .. . ... ... ... : ... .. . ... ... ... : ... .. . ... ... ...
ROW D1 : ... .. . ... ... ... : ... .. . ... ... ... : ... .. . ... ... ... : ... .. . ... ... ... : ... .. . ... ... ... : ... .. . ... ... ...
ROW D2 : ... .. 3 ... ... ... : A-2 02 7 ... ... ... : ... .. . ... ... ... : ... .. . ... ... ... : ... .. . ... ... ... : ... .. 1 ... ... ...
ROW D3 : ... .. . ... ... ... : B-1 02 . ... ... ... : ... .. . ... ... ... : ... .. . ... ... ... : ... .. . ... ... ... : ... .. . ... ... ...
ROW D4 : G#2 00 7 ... ... ... : G#1 00 C ... ... ... : F#3 00 . ... ... ... : 9-# 01 7 ... ... ... : C-1 05 . ... ... ... : ... .. 5 ... ... ...
ROW D5 : G#2 03 . ... ... ... : G#1 01 . ... ... ... : F#2 00 . ... ... ... : A-# 00 5 ... ... ... : ... .. . ... ... ... : ... .. 4 ... ... ...
ROW D6 : G#2 02 . ... ... ... : G#1 02 . ... ... ... : ... .. . ... ... ... : ... .. 4 ... ... ... : ... .. . ... ... ... : ... .. . ... ... ...
ROW D7 : G#2 01 . ... ... ... : ... .. . ... ... ... : ... .. . ... ... ... : B-# 01 . ... ... ... : ... .. . ... ... ... : ... .. 3 ... ... ...
ROW D8 : ... .. . ... ... ... : ... .. . ... ... ... : ... .. . ... ... ... : A-# 01 . ... ... ... : ... .. . ... ... ... : ... .. . ... ... ...
ROW D9 : ... .. . ... ... ... : ... .. . ... ... ... : ... .. . ... ... ... : B-# 00 3 ... ... ... : ... .. . ... ... ... : ... .. . ... ... ...
ROW DA : ... .. . ... ... ... : ... .. . ... ... ... : ... .. . ... ... ... : ... .. . ... ... ... : ... .. . ... ... ... : ... .. . ... ... ...
ROW DB : ... .. . ... ... ... : ... .. . ... ... ... : ... .. . ... ... ... : ... .. . ... ... ... : ... .. . ... ... ... : ... .. . ... ... ...
ROW DC : ... .. . ... ... ... : ... .. . ... ... ... : ... .. . ... ... ... : ... .. . ... ... ... : ... .. . ... ... ... : ... .. . ... ... ...
ROW DD : ... .. . ... ... ... : ... .. . ... ... ... : ... .. . ... ... ... : ... .. . ... ... ... : ... .. . ... ... ... : ... .. . ... ... ...
ROW DE : ... .. . ... ... ... : ... .. . ... ... ... : ... .. . ... ... ... : ... .. 2 ... ... ... : ... .. . ... ... ... : ... .. . ... ... ...
ROW DF : ... .. 3 ... ... ... : F#2 02 7 ... ... ... : ... .. . ... ... ... : ... .. . ... ... ... : ... .. . ... ... ... : ... .. 1 ... ... ...
ROW E0 : ... .. . ... ... ... : G#1 02 . ... ... ... : ... .. . ... ... ... : ... .. . ... ... ... : ... .. . ... ... ... : ... .. . ... ... ...
ROW E1 : A-2 00 7 ... ... ... : A-1 00 C ... ... ... : ... .. . ... ... ... : B-# 01 7 ... ... ... : C#1 05 . ... ... ... : ... .. . ... ... ...
ROW E2 : A-2 03 . ... ... ... : A-1 01 . ... ... ... : ... .. . ... ... ... : C-# 00 5 ... ... ... : ... .. . ... ... ... : ... .. 4 ... ... ...
ROW E3 : A-2 02 . ... ... ... : A-1 02 . ... ... ... : ... .. . ... ... ... : ... .. 4 ... ... ... : ... .. . ... ... ... : ... .. . ... ... ...
ROW E4 : A-2 01 . ... ... ... : ... .. . ... ... ... : ... .. . ... ... ... : D-# 01 . ... ... ... : ... .. . ... ... ... : ... .. 3 ... ... ...
ROW E5 : ... .. . ... ... ... : ... .. . ... ... ... : ... .. . ... ... ... : C-# 01 . ... ... ... : ... .. . ... ... ... : ... .. . ... ... ...
ROW E6 : ... .. . ... ... ... : ... .. . ... ... ... : ... .. . ... ... ... : D-# 00 3 ... ... ... : ... .. . ... ... ... : ... .. . ... ... ...
ROW E7 : ... .. . ... ... ... : ... .. . ... ... ... : ... .. . ... ... ... : ... .. . ... ... ... : ... .. . ... ... ... : ... .. . ... ... ...
ROW E8 : ... .. . ... ... ... : ... .. . ... ... ... : ... .. . ... ... ... : ... .. . ... ... ... : ... .. . ... ... ... : ... .. . ... ... ...
ROW E9 : ... .. . ... ... ... : ... .. . ... ... ... : ... .. . ... ... ... : ... .. . ... ... ... : ... .. . ... ... ... : ... .. . ... ... ...
ROW EA : ... .. . ... ... ... : ... .. . ... ... ... : ... .. . ... ... ... : ... .. . ... ... ... : ... .. . ... ... ... : ... .. . ... ... ...
ROW EB : ... .. . ... ... ... : ... .. . ... ... ... : ... .. . ... ... ... : ... .. 2 ... ... ... : ... .. . ... ... ... : ... .. . ... ... ...
ROW EC : ... .. 3 ... ... ... : G#2 02 7 ... ... ... : ... .. . ... ... ... : ... .. . ... ... ... : ... .. . ... ... ... : ... .. 1 ... ... ...
ROW ED : ... .. . ... ... ... : A#1 02 . ... ... ... : ... .. . ... ... ... : ... .. . ... ... ... : ... .. . ... ... ... : ... .. . ... ... ...
ROW EE : F#2 00 7 ... ... ... : F#1 00 C ... ... ... : ... .. . ... ... ... : 9-# 01 9 ... ... ... : D-1 05 . ... ... ... : E-3 04 5 I01 JB2 ...
ROW EF : F#2 03 . ... ... ... : F#1 01 . ... ... ... : ... .. . ... ... ... : A-# 00 6 ... ... ... : ... .. . ... ... ... : ... .. 4 ... ... ...
ROW F0 : F#2 02 . ... ... ... : F#1 02 . ... ... ... : ... .. . ... ... ... : ... .. . ... ... ... : ... .. . ... ... ... : ... .. . ... ... ...
ROW F1 : F#2 01 . ... ... ... : ... .. . ... ... ... : ... .. . ... ... ... : B-# 01 5 ... ... ... : ... .. . ... ... ... : ... .. 3 ... ... ...
ROW F2 : ... .. . ... ... ... : ... .. . ... ... ... : ... .. . ... ... ... : A-# 01 . ... ... ... : ... .. . ... ... ... : ... .. . ... ... ...
ROW F3 : ... .. . ... ... ... : ... .. . ... ... ... : ... .. . ... ... ... : B-# 00 4 ... ... ... : ... .. . ... ... ... : ... .. . ... ... ...
ROW F4 : ... .. . ... ... ... : ... .. . ... ... ... : ... .. . ... ... ... : ... .. . ... ... ... : ... .. . ... ... ... : ... .. . ... ... ...
ROW F5 : ... .. . ... ... ... : ... .. . ... ... ... : --- .. . ... ... ... : ... .. . ... ... ... : ... .. . ... ... ... : ... .. . ... ... ...
ROW F6 : ... .. . ... ... ... : ... .. . ... ... ... : ... .. . ... ... ... : ... .. . ... ... ... : ... .. . ... ... ... : ... .. . ... ... ...
ROW F7 : ... .. . ... ... ... : ... .. . ... ... ... : ... .. . ... ... ... : ... .. . ... ... ... : ... .. . ... ... ... : ... .. . ... ... ...
ROW F8 : ... .. . ... ... ... : ... .. . ... ... ... : ... .. . ... ... ... : ... .. 3 ... ... ... : ... .. . ... ... ... : ... .. . ... ... ...
ROW F9 : ... .. 3 ... ... ... : A-2 02 7 ... ... ... : ... .. . ... ... ... : ... .. . ... ... ... : ... .. . ... ... ... : ... .. 1 ... ... ...
ROW FA : ... .. . ... ... ... : B-1 02 . ... ... ... : ... .. . ... ... ... : ... .. . ... ... ... : ... .. . ... ... ... : ... .. . ... ... ...
ROW FB : G#2 00 7 ... ... ... : G#1 00 C ... ... ... : F#3 00 . ... ... ... : B-# 01 6 ... ... ... : C#1 05 . ... ... ... : E-2 04 5 I01 JB4 ...
ROW FC : G#2 03 . ... ... ... : G#1 01 . ... ... ... : F#2 00 . ... ... ... : C-# 00 4 ... ... ... : ... .. . ... ... ... : ... .. 4 ... ... ...
ROW FD : G#2 02 . ... ... ... : G#1 02 . ... ... ... : ... .. . ... ... ... : ... .. . ... ... ... : ... .. . ... ... ... : ... .. . ... ... ...
ROW FE : G#2 01 . ... ... ... : ... .. . ... ... ... : ... .. . ... ... ... : D-# 01 3 ... ... ... : ... .. . ... ... ... : ... .. 3 ... ... ...
ROW FF : ... .. . ... ... ... : ... .. . ... ... ... : ... .. . ... ... ... : C-# 01 . ... ... ... : ... .. . ... ... ... : ... .. . ... ... ...

PATTERN 02
ROW 00 : ... .. . ... ... ... : ... .. . ... ... ... : ... .. . ... ... ... : D-# 00 . ... ... ... : ... .. . ... ... ... : ... .. . ... ... ...
ROW 01 : ... .. . ... ... ... : ... .. . ... ... ... : ... .. . ... ... ... : ... .. . ... ... ... : ... .. . ... ... ... : ... .. . ... ... ...
ROW 02 : ... .. . ... ... ... : ... .. . ... ... ... : --- .. . ... ... ... : ... .. . ... ... ... : ... .. . ... ... ... : ... .. . ... ... ...
ROW 03 : ... .. . ... ... ... : ... .. . ... ... ... : ... .. . ... ... ... : ... .. 2 ... ... ... : ... .. . ... ... ... : ... .. . ... ... ...
ROW 04 : ... .. . ... ... ... : ... .. . ... ... ... : ... .. . ... ... ... : ... .. . ... ... ... : ... .. . ... ... ... : ... .. . ... ... ...
ROW 05 : ... .. . ... ... ... : ... .. . ... ... ... : ... .. . ... ... ... : ... .. . ... ... ... : ... .. . ... ... ... : ... .. . ... ... ...
ROW 06 : ... .. 3 ... ... ... : F#2 02 7 ... ... ... : ... .. . ... ... ... : ... .. . ... ... ... : ... .. . ... ... ... : ... .. 1 ... ... ...
ROW 07 : ... .. . ... ... ... : G#1 02 . ... ... ... : ... .. . ... ... ... : ... .. . ... ... ... : ... .. . ... ... ... : ... .. . ... ... ...
ROW 08 : A-2 00 7 ... ... ... : A-1 00 C ... ... ... : F#3 00 . ... ... ... : 9-# 01 7 ... ... ... : C-1 05 . ... ... ... : ... .. 5 ... ... ...
ROW 09 : A-2 03 . ... ... ... : A-1 01 . ... ... ... : F#2 00 . ... ... ... : A-# 00 5 ... ... ... : ... .. . ... ... ... : ... .. 4 ... ... ...
ROW 0A : A-2 02 . ... ... ... : A-1 02 . ... ... ... : ... .. . ... ... ... : ... .. 4 ... ... ... : ... .. . ... ... ... : ... .. . ... ... ...
ROW 0B : A-2 01 . ... ... ... : ... .. . ... ... ... : ... .. . ... ... ... : B-# 01 . ... ... ... : ... .. . ... ... ... : ... .. 3 ... ... ...
ROW 0C : ... .. . ... ... ... : ... .. . ... ... ... : ... .. . ... ... ... : A-# 01 . ... ... ... : ... .. . ... ... ... : ... .. . ... ... ...
ROW 0D : ... .. . ... ... ... : ... .. . ... ... ... : ... .. . ... ... ... : B-# 00 3 ... ... ... : ... .. . ... ... ... : ... .. . ... ... ...
ROW 0E : ... .. . ... ... ... : ... .. . ... ... ... : ... .. . ... ... ... : ... .. . ... ... ... : ... .. . ... ... ... : ... .. . ... ... ...
ROW 0F : ... .. . ... ... ... : ... .. . ... ... ... : ... .. . ... ... ... : ... .. . ... ... ... : ... .. . ... ... ... : ... .. . ... ... ...
ROW 10 : ... .. . ... ... ... : ... .. . ... ... ... : ... .. . ... ... ... : ... .. . ... ... ... : ... .. . ... ... ... : ... .. . ... ... ...
ROW 11 : ... .. . ... ... ... : ... .. . ... ... ... : ... .. . ... ... ... : ... .. . ... ... ... : ... .. . ... ... ... : ... .. . ... ... ...
ROW 12 : ... .. . ... ... ... : ... .. . ... ... ... : ... .. . ... ... ... : ... .. 2 ... ... ... : ... .. . ... ... ... : ... .. . ... ... ...
ROW 13 : ... .. 3 ... ... ... : G#2 02 7 ... ... ... : ... .. . ... ... ... : ... .. . ... ... ... : ... .. . ... ... ... : ... .. . ... ... ...
ROW 14 : ... .. . ... ... ... : A#1 02 . ... ... ... : ... .. . ... ... ... : ... .. . ... ... ... : ... .. . ... ... ... : ... .. 1 ... ... ...
ROW 15 : F#2 00 7 ... ... ... : F#1 00 C ... ... ... : ... .. . ... ... ... : B-# 01 7 ... ... ... : C#1 05 . ... ... ... : ... .. 5 ... ... ...
ROW 16 : F#2 03 . ... ... ... : F#1 01 . ... ... ... : ... .. . ... ... ... : C-# 00 5 ... ... ... : ... .. . ... ... ... : ... .. 4 ... ... ...
ROW 17 : F#2 02 . ... ... ... : F#1 02 . ... ... ... : ... .. . ... ... ... : ... .. 4 ... ... ... : ... .. . ... ... ... : ... .. . ... ... ...
ROW 18 : F#2 01 . ... ... ... : ... .. . ... ... ... : ... .. . ... ... ... : D-# 01 . ... ... ... : ... .. . ... ... ... : ... .. 3 ... ... ...
ROW 19 : ... .. . ... ... ... : ... .. . ... ... ... : ... .. . ... ... ... : C-# 01 . ... ... ... : ... .. . ... ... ... : ... .. . ... ... ...
ROW 1A : ... .. . ... ... ... : ... .. . ... ... ... : ... .. . ... ... ... : D-# 00 3 ... ... ... : ... .. . ... ... ... : ... .. . ... ... ...
ROW 1B : ... .. . ... ... ... : ... .. . ... ... ... : ... .. . ... ... ... : ... .. . ... ... ... : ... .. . ... ... ... : ... .. . ... ... ...
ROW 1C : ... .. . ... ... ... : ... .. . ... ... ... : ... .. . ... ... ... : ... .. . ... ... ... : ... .. . ... ... ... : ... .. . ... ... ...
ROW 1D : ... .. . ... ... ... : ... .. . ... ... ... : ... .. . ... ... ... : ... .. . ... ... ... : ... .. . ... ... ... : ... .. . ... ... ...
ROW 1E : ... .. . ... ... ... : ... .. . ... ... ... : ... .. . ... ... ... : ... .. . ... ... ... : ... .. . ... ... ... : ... .. . ... ... ...
ROW 1F : ... .. . ... ... ... : ... .. . ... ... ... : ... .. . ... ... ... : ... .. 2 ... ... ... : ... .. . ... ... ... : ... .. . ... ... ...
ROW 20 : ... .. 3 ... ... ... : A-2 02 7 ... ... ... : ... .. . ... ... ... : ... .. . ... ... ... : ... .. . ... ... ... : ... .. 1 ... ... ...
ROW 21 : ... .. . ... ... ... : B-1 02 . ... ... ... : ... .. . ... ... ... : ... .. . ... ... ... : ... .. . ... ... ... : ... .. . ... ... ...
ROW 22 : G#2 00 7 ... ... ... : G#1 00 C ... ... ... : ... .. . ... ... ... : 9-# 01 9 ... ... ... : D-1 05 . ... ... ... : E-3 04 5 I01 JB2 ...
ROW 23 : G#2 03 . ... ... ... : G#1 01 . ... ... ... : ... .. . ... ... ... : A-# 00 6 ... ... ... : ... .. . ... ... ... : ... .. 4 ... ... ...
ROW 24 : G#2 02 . ... ... ... : G#1 02 . ... ... ... : ... .. . ... ... ... : ... .. . ... ... ... : ... .. . ... ... ... : ... .. . ... ... ...
ROW 25 : G#2 01 . ... ... ... : ... .. . ... ... ... : ... .. . ... ... ... : B-# 01 5 ... ... ... : ... .. . ... ... ... : ... .. 3 ... ... ...
ROW 26 : ... .. . ... ... ... : ... .. . ... ... ... : ... .. . ... ... ... : A-# 01 . ... ... ... : ... .. . ... ... ... : ... .. . ... ... ...
ROW 27 : ... .. . ... ... ... : ... .. . ... ... ... : ... .. . ... ... ... : B-# 00 4 ... ... ... : ... .. . ... ... ... : ... .. . ... ... ...
ROW 28 : ... .. . ... ... ... : ... .. . ... ... ... : ... .. . ... ... ... : ... .. . ... ... ... : ... .. . ... ... ... : ... .. . ... ... ...
ROW 29 : ... .. . ... ... ... : ... .. . ... ... ... : --- .. . ... ... ... : ... .. . ... ... ... : ... .. . ... ... ... : ... .. . ... ... ...
ROW 2A : ... .. . ... ... ... : ... .. . ... ... ... : ... .. . ... ... ... : ... .. . ... ... ... : ... .. . ... ... ... : ... .. . ... ... ...
ROW 2B : ... .. . ... ... ... : ... .. . ... ... ... : ... .. . ... ... ... : ... .. . ... ... ... : ... .. . ... ... ... : ... .. . ... ... ...
ROW 2C : ... .. . ... ... ... : ... .. . ... ... ... : ... .. . ... ... ... : ... .. 3 ... ... ... : ... .. . ... ... ... : ... .. . ... ... ...
ROW 2D : ... .. 3 ... ... ... : F#2 02 7 ... ... ... : ... .. . ... ... ... : ... .. . ... ... ... : ... .. . ... ... ... : ... .. 1 ... ... ...
ROW 2E : ... .. . ... ... ... : G#1 02 . ... ... ... : ... .. . ... ... ... : ... .. . ... ... ... : ... .. . ... ... ... : ... .. . ... ... ...
ROW 2F : A-2 00 7 ... ... ... : A-1 00 C ... ... ... : F#3 00 . ... ... ... : B-# 01 6 ... ... ... : C#1 05 . ... ... ... : E-2 04 5 I01 JB4 ...
ROW 30 : A-2 03 . ... ... ... : A-1 01 . ... ... ... : F#2 00 . ... ... ... : C-# 00 4 ... ... ... : ... .. . ... ... ... : ... .. 4 ... ... ...
ROW 31 : A-2 02 . ... ... ... : A-1 02 . ... ... ... : ... .. . ... ... ... : ... .. . ... ... ... : ... .. . ... ... ... : ... .. . ... ... ...
ROW 32 : A-2 01 . ... ... ... : ... .. . ... ... ... : ... .. . ... ... ... : D-# 01 3 ... ... ... : ... .. . ... ... ... : ... .. 3 ... ... ...
ROW 33 : ... .. . ... ... ... : ... .. . ... ... ... : ... .. . ... ... ... : C-# 01 . ... ... ... : ... .. . ... ... ... : ... .. . ... ... ...
ROW 34 : ... .. . ... ... ... : ... .. . ... ... ... : ... .. . ... ... ... : D-# 00 . ... ... ... : ... .. . ... ... ... : ... .. . ... ... ...
ROW 35 : ... .. . ... ... ... : ... .. . ... ... ... : ... .. . ... ... ... : ... .. . ... ... ... : ... .. . ... ... ... : ... .. . ... ... ...
ROW 36 : ... .. . ... ... ... : ... .. . ... ... ... : --- .. . ... ... ... : ... .. . ... ... ... : ... .. . ... ... ... : ... .. . ... ... ...
ROW 37 : ... .. . ... ... ... : ... .. . ... ... ... : ... .. . ... ... ... : ... .. 2 ... ... ... : ... .. . ... ... ... : ... .. . ... ... ...
ROW 38 : ... .. . ... ... ... : ... .. . ... ... ... : ... .. . ... ... ... : ... .. . ... ... ... : ... .. . ... ... ... : ... .. . ... ... ...
ROW 39 : ... .. . ... ... ... : ... .. . ... ... ... : ... .. . ... ... ... : ... .. . ... ... ... : ... .. . ... ... ... : ... .. . ... ... ...
ROW 3A : ... .. 3 ... ... ... : G#2 02 7 ... ... ... : ... .. . ... ... ... : ... .. . ... ... ... : ... .. . ... ... ... : ... .. . ... ... ...
ROW 3B : ... .. . ... ... ... : A#1 02 . ... ... ... : ... .. . ... ... ... : ... .. . ... ... ... : ... .. . ... ... ... : ... .. 1 ... ... ...
ROW 3C : A-2 00 5 ... ... ... : A-1 00 8 ... ... ... : F#3 00 . ... ... ... : 9-# 01 7 ... ... ... : C-1 05 . ... ... ... : ... .. 5 ... ... ...
ROW 3D : A-2 03 . ... ... ... : A-1 01 . ... ... ... : F#2 00 . ... ... ... : A-# 00 5 ... ... ... : ... .. . ... ... ... : ... .. 4 ... ... ...
ROW 3E : A-2 02 . ... ... ... : A-1 02 . ... ... ... : ... .. . ... ... ... : ... .. 4 ... ... ... : ... .. . ... ... ... : ... .. . ... ... ...
ROW 3F : A-2 01 . ... ... ... : ... .. . ... ... ... : ... .. . ... ... ... : B-# 01 . ... ... ... : ... .. . ... ... ... : ... .. 3 ... ... ...
ROW 40 : ... .. . ... ... ... : ... .. . ... ... ... : ... .. . ... ... ... : A-# 01 . ... ... ... : ... .. . ... ... ... : ... .. . ... ... ...
ROW 41 : ... .. . ... ... ... : ... .. . ... ... ... : ... .. . ... ... ... : B-# 00 3 ... ... ... : ... .. . ... ... ... : ... .. . ... ... ...
ROW 42 : ... .. . ... ... ... : ... .. . ... ... ... : ... .. . ... ... ... : ... .. . ... ... ... : C-1 05 . ... ... ... : ... .. . ... ... ...
ROW 43 : ... .. . ... ... ... : ... .. . ... ... ... : ... .. . ... ... ... : ... .. . ... ... ... : ... .. . ... ... ... : ... .. . ... ... ...
ROW 44 : ... .. . ... ... ... : ... .. . ... ... ... : ... .. . ... ... ... : ... .. . ... ... ... : ... .. . ... ... ... : ... .. . ... ... ...
ROW 45 : ... .. . ... ... ... : ... .. . ... ... ... : ... .. . ... ... ... : ... .. . ... ... ... : ... .. . ... ... ... : ... .. . ... ... ...
ROW 46 : ... .. . ... ... ... : ... .. . ... ... ... : ... .. . ... ... ... : ... .. 2 ... ... ... : ... .. . ... ... ... : ... .. . ... ... ...
ROW 47 : ... .. 1 ... ... ... : A-2 02 4 ... ... ... : ... .. . ... ... ... : ... .. . ... ... ... : ... .. . ... ... ... : ... .. 1 ... ... ...
ROW 48 : ... .. . ... ... ... : B-1 02 . ... ... ... : ... .. . ... ... ... : ... .. . ... ... ... : ... .. . ... ... ... : ... .. . ... ... ...
ROW 49 : A-2 00 3 ... ... ... : A-1 00 5 ... ... ... : ... .. . ... ... ... : B-# 01 7 ... ... ... : C-1 05 . ... ... ... : ... .. 5 ... ... ...
ROW 4A : A-2 03 . ... ... ... : A-1 01 . ... ... ... : ... .. . ... ... ... : C-# 00 5 ... ... ... : ... .. . ... ... ... : ... .. 4 ... ... ...
ROW 4B : A-2 02 . ... ... ... : A-1 02 . ... ... ... : ... .. . ... ... ... : ... .. 4 ... ... ... : ... .. . ... ... ... : ... .. . ... ... ...
ROW 4C : A-2 01 . ... ... ... : ... .. . ... ... ... : ... .. . ... ... ... : D-# 01 . ... ... ... : ... .. . ... ... ... : ... .. 3 ... ... ...
ROW 4D : ... .. . ... ... ... : ... .. . ... ... ... : ... .. . ... ... ... : C-# 01 . ... ... ... : ... .. . ... ... ... : ... .. . ... ... ...
ROW 4E : ... .. . ... ... ... : ... .. . ... ... ... : ... .. . ... ... ... : D-# 00 3 ... ... ... : ... .. . ... ... ... : ... .. . ... ... ...
ROW 4F : ... .. . ... ... ... : ... .. . ... ... ... : ... .. . ... ... ... : ... .. . ... ... ... : ... .. . ... ... ... : ... .. . ... ... ...
ROW 50 : ... .. . ... ... ... : ... .. . ... ... ... : ... .. . ... ... ... : ... .. . ... ... ... : ... .. . ... ... ... : ... .. . ... ... ...
ROW 51 : ... .. . ... ... ... : ... .. . ... ... ... : ... .. . ... ... ... : ... .. . ... ... ... : ... .. . ... ... ... : ... .. . ... ... ...
ROW 52 : ... .. . ... ... ... : ... .. . ... ... ... : ... .. . ... ... ... : ... .. . ... ... ... : ... .. . ... ... ... : ... .. . ... ... ...
ROW 53 : ... .. . ... ... ... : ... .. . ... ... ... : ... .. . ... ... ... : ... .. 2 ... ... ... : ... .. . ... ... ... : ... .. . ... ... ...
ROW 54 : --- .. . ... ... ... : A-2 02 3 ... ... ... : ... .. . ... ... ... : ... .. . ... ... ... : ... .. . ... ... ... : ... .. 1 ... ... ...
ROW 55 : ... .. . P80 ... ... : B-1 02 . ... ... ... : ... .. . ... ... ... : ... .. . ... ... ... : ... .. . ... ... ... : ... .. . ... ... ...
ROW 56 : A-2 00 2 P7E ... ... : A-1 00 . ... ... ... : ... .. . ... ... ... : 9-# 01 9 ... ... ... : D-1 05 . ... ... ... : E-3 04 5 I01 JB2 ...
ROW 57 : A-2 03 . ... ... ... : A-1 01 . ... ... ... : ... .. . ... ... ... : A-# 00 6 ... ... ... : ... .. . ... ... ... : ... .. 4 ... ... ...
ROW 58 : A-2 02 . ... ... ... : A-1 02 . ... ... ... : ... .. . ... ... ... : ... .. . ... ... ... : ... .. . ... ... ... : ... .. . ... ... ...
ROW 59 : A-2 01 . ... ... ... : ... .. . ... ... ... : ... .. . ... ... ... : B-# 01 5 ... ... ... : ... .. . ... ... ... : ... .. 3 ... ... ...
ROW 5A : ... .. . ... ... ... : ... .. . ... ... ... : ... .. . ... ... ... : A-# 01 . ... ... ... : ... .. . ... ... ... : ... .. . ... ... ...
ROW 5B : ... .. . ... ... ... : ... .. . ... ... ... : ... .. . ... ... ... : B-# 00 4 ... ... ... : ... .. . ... ... ... : ... .. . ... ... ...
ROW 5C : ... .. . ... ... ... : ... .. . ... ... ... : ... .. . ... ... ... : ... .. . ... ... ... : ... .. . ... ... ... : ... .. . ... ... ...
ROW 5D : ... .. . ... ... ... : ... .. . ... ... ... : --- .. . ... ... ... : ... .. . ... ... ... : ... .. . ... ... ... : ... .. . ... ... ...
ROW 5E : ... .. . ... ... ... : ... .. . ... ... ... : ... .. . ... ... ... : ... .. . ... ... ... : ... .. . ... ... ... : ... .. . ... ... ...
ROW 5F : ... .. . ... ... ... : ... .. . ... ... ... : ... .. . ... ... ... : ... .. . ... ... ... : ... .. . ... ... ... : ... .. . ... ... ...
ROW 60 : ... .. . ... ... ... : ... .. . ... ... ... : ... .. . ... ... ... : ... .. 3 ... ... ... : ... .. . ... ... ... : ... .. . ... ... ...
ROW 61 : --- .. . ... ... ... : A-2 02 2 ... ... ... : ... .. . ... ... ... : ... .. . ... ... ... : ... .. . ... ... ... : ... .. 1 ... ... ...
ROW 62 : ... .. . P80 ... ... : B-1 02 . ... ... ... : ... .. . ... ... ... : ... .. . ... ... ... : ... .. . ... ... ... : ... .. . ... ... ...
ROW 63 : A-2 00 1 P7E ... ... : A-1 00 3 ... ... ... : E-3 00 . ... ... ... : B-# 01 6 ... ... ... : C#1 05 . ... ... ... : E-2 04 . I01 JB4 ...
ROW 64 : A-2 03 . ... ... ... : A-1 01 . ... ... ... : E-2 00 . ... ... ... : C-# 00 4 ... ... ... : ... .. . ... ... ... : ... .. 5 ... ... ...
ROW 65 : A-2 02 . ... ... ... : A-1 02 . ... ... ... : ... .. . ... ... ... : ... .. . ... ... ... : ... .. . ... ... ... : ... .. 4 ... ... ...
ROW 66 : A-2 01 . ... ... ... : ... .. . ... ... ... : ... .. . ... ... ... : D-# 01 3 ... ... ... : ... .. . ... ... ... : ... .. 3 ... ... ...
ROW 67 : ... .. . ... ... ... : ... .. . ... ... ... : ... .. . ... ... ... : C-# 01 . ... ... ... : ... .. . ... ... ... : ... .. . ... ... ...
ROW 68 : ... .. . ... ... ... : ... .. . ... ... ... : ... .. . ... ... ... : D-# 00 . ... ... ... : ... .. . ... ... ... : ... .. . ... ... ...
ROW 69 : ... .. . ... ... ... : ... .. . ... ... ... : ... .. . ... ... ... : ... .. . ... ... ... : ... .. . ... ... ... : ... .. . ... ... ...
ROW 6A : ... .. . ... ... ... : ... .. . ... ... ... : --- .. . ... ... ... : ... .. . ... ... ... : ... .. . ... ... ... : ... .. . ... ... ...
ROW 6B : ... .. . ... ... ... : ... .. . ... ... ... : ... .. . ... ... ... : ... .. 2 ... ... ... : ... .. . ... ... ... : ... .. . ... ... ...
ROW 6C : ... .. . ... ... ... : A-2 02 1 ... ... ... : ... .. . ... ... ... : ... .. . ... ... ... : ... .. . ... ... ... : ... .. . ... ... ...
ROW 6D : ... .. . ... ... ... : B-1 02 . ... ... ... : ... .. . ... ... ... : ... .. . ... ... ... : ... .. . ... ... ... : ... .. . ... ... ...
ROW 6E : --- .. . ... ... ... : A-1 00 . ... ... ... : ... .. . ... ... ... : ... .. . ... ... ... : ... .. . ... ... ... : ... .. 1 ... ... ...
ROW 6F : ... .. . P80 ... ... : A-1 01 . ... ... ... : ... .. . ... ... ... : ... .. . ... ... ... : ... .. . ... ... ... : ... .. . ... ... ...
ROW 70 : F#2 00 7 P7E ... ... : F#1 00 C ... ... ... : F#3 00 . ... ... ... : 9-# 01 7 ... ... ... : C-1 05 . ... ... ... : ... .. 5 ... ... ...
ROW 71 : F#2 03 . ... ... ... : F#1 01 . ... ... ... : F#2 00 . ... ... ... : A-# 00 5 ... ... ... : ... .. . ... ... ... : ... .. 4 ... ... ...
ROW 72 : F#2 02 . ... ... ... : F#1 02 . ... ... ... : ... .. . ... ... ... : ... .. 4 ... ... ... : ... .. . ... ... ... : ... .. . ... ... ...
ROW 73 : F#2 01 . ... ... ... : ... .. . ... ... ... : ... .. . ... ... ... : B-# 01 . ... ... ... : ... .. . ... ... ... : ... .. 3 ... ... ...
ROW 74 : ... .. . ... ... ... : ... .. . ... ... ... : ... .. . ... ... ... : A-# 01 . ... ... ... : ... .. . ... ... ... : ... .. . ... ... ...
ROW 75 : ... .. . ... ... ... : ... .. . ... ... ... : ... .. . ... ... ... : B-# 00 3 ... ... ... : ... .. . ... ... ... : ... .. . ... ... ...
ROW 76 : ... .. . ... ... ... : ... .. . ... ... ... : ... .. . ... ... ... : ... .. . ... ... ... : ... .. . ... ... ... : ... .. . ... ... ...
ROW 77 : ... .. . ... ... ... : ... .. . ... ... ... : ... .. . ... ... ... : ... .. . ... ... ... : ... .. . ... ... ... : ... .. . ... ... ...
ROW 78 : ... .. . ... ... ... : ... .. . ... ... ... : ... .. . ... ... ... : ... .. . ... ... ... : ... .. . ... ... ... : ... .. . ... ... ...
ROW 79 : ... .. . ... ... ... : ... .. . ... ... ... : ... .. . ... ... ... : ... .. . ... ... ... : ... .. . ... ... ... : ... .. . ... ... ...
ROW 7A : ... .. . ... ... ... : ... .. . ... ... ... : ... .. . ... ... ... : ... .. 2 ... ... ... : ... .. . ... ... ... : ... .. . ... ... ...
ROW 7B : ... .. 3 ... ... ... : F#2 02 7 ... ... ... : ... .. . ... ... ... : ... .. . ... ... ... : ... .. . ... ... ... : ... .. 1 ... ... ...
ROW 7C : ... .. . ... ... ... : G#1 02 . ... ... ... : ... .. . ... ... ... : ... .. . ... ... ... : ... .. . ... ... ... : ... .. . ... ... ...
ROW 7D : G#2 00 7 ... ... ... : G#1 00 C ... ... ... : ... .. . ... ... ... : B-# 01 7 ... ... ... : C#1 05 . ... ... ... : ... .. 5 ... ... ...
ROW 7E : G#2 03 . ... ... ... : G#1 01 . ... ... ... : ... .. . ... ... ... : C-# 00 5 ... ... ... : ... .. . ... ... ... : ... .. 4 ... ... ...
ROW 7F : G#2 02 . ... ... ... : G#1 02 . ... ... ... : ... .. . ... ... ... : ... .. 4 ... ... ... : ... .. . ... ... ... : ... .. . ... ... ...
ROW 80 : G#2 01 . ... ... ... : ... .. . ... ... ... : ... .. . ... ... ... : D-# 01 . ... ... ... : ... .. . ... ... ... : ... .. 3 ... ... ...
ROW 81 : ... .. . ... ... ... : ... .. . ... ... ... : ... .. . ... ... ... : C-# 01 . ... ... ... : ... .. . ... ... ... : ... .. . ... ... ...
ROW 82 : ... .. . ... ... ... : ... .. . ... ... ... : ... .. . ... ... ... : D-# 00 3 ... ... ... : ... .. . ... ... ... : ... .. . ... ... ...
ROW 83 : ... .. . ... ... ... : ... .. . ... ... ... : ... .. . ... ... ... : ... .. . ... ... ... : ... .. . ... ... ... : ... .. . ... ... ...
ROW 84 : ... .. . ... ... ... : ... .. . ... ... ... : ... .. . ... ... ... : ... .. . ... ... ... : ... .. . ... ... ... : ... .. . ... ... ...
ROW 85 : ... .. . ... ... ... : ... .. . ... ... ... : ... .. . ... ... ... : ... .. . ... ... ... : ... .. . ... ... ... : ... .. . ... ... ...
ROW 86 : ... .. . ... ... ... : ... .. . ... ... ... : ... .. . ... ... ... : ... .. . ... ... ... : ... .. . ... ... ... : ... .. . ... ... ...
ROW 87 : ... .. . ... ... ... : ... .. . ... ... ... : ... .. . ... ... ... : ... .. 2 ... ... ... : ... .. . ... ... ... : ... .. . ... ... ...
ROW 88 : ... .. 3 ... ... ... : F#2 02 7 ... ... ... : ... .. . ... ... ... : ... .. . ... ... ... : ... .. . ... ... ... : ... .. 1 ... ... ...
ROW 89 : ... .. . ... ... ... : G#1 02 . ... ... ... : ... .. . ... ... ... : ... .. . ... ... ... : ... .. . ... ... ... : ... .. . ... ... ...
ROW 8A : A-2 00 7 ... ... ... : A-1 00 C ... ... ... : ... .. . ... ... ... : 9-# 01 9 ... ... ... : D-1 05 . ... ... ... : E-3 04 5 I01 JB2 ...
ROW 8B : A-2 03 . ... ... ... : A-1 01 . ... ... ... : ... .. . ... ... ... : A-# 00 6 ... ... ... : ... .. . ... ... ... : ... .. 4 ... ... ...
ROW 8C : A-2 02 . ... ... ... : A-1 02 . ... ... ... : ... .. . ... ... ... : ... .. . ... ... ... : ... .. . ... ... ... : ... .. . ... ... ...
ROW 8D : A-2 01 . ... ... ... : ... .. . ... ... ... : ... .. . ... ... ... : B-# 01 5 ... ... ... : ... .. . ... ... ... : ... .. 3 ... ... ...
ROW 8E : ... .. . ... ... ... : ... .. . ... ... ... : ... .. . ... ... ... : A-# 01 . ... ... ... : ... .. . ... ... ... : ... .. . ... ... ...
ROW 8F : ... .. . ... ... ... : ... .. . ... ... ... : ... .. . ... ... ... : B-# 00 4 ... ... ... : ... .. . ... ... ... : ... .. . ... ... ...
ROW 90 : ... .. . ... ... ... : ... .. . ... ... ... : ... .. . ... ... ... : ... .. . ... ... ... : ... .. . ... ... ... : ... .. . ... ... ...
ROW 91 : ... .. . ... ... ... : ... .. . ... ... ... : --- .. . ... ... ... : ... .. . ... ... ... : ... .. . ... ... ... : ... .. . ... ... ...
ROW 92 : ... .. . ... ... ... : ... .. . ... ... ... : ... .. . ... ... ... : ... .. . ... ... ... : ... .. . ... ... ... : ... .. . ... ... ...
ROW 93 : ... .. . ... ... ... : ... .. . ... ... ... : ... .. . ... ... ... : ... .. . ... ... ... : ... .. . ... ... ... : ... .. . ... ... ...
ROW 94 : ... .. . ... ... ... : ... .. . ... ... ... : ... .. . ... ... ... : ... .. 3 ... ... ... : ... .. . ... ... ... : ... .. . ... ... ...
ROW 95 : ... .. 3 ... ... ... : G#2 02 7 ... ... ... : ... .. . ... ... ... : ... .. . ... ... ... : ... .. . ... ... ... : ... .. 1 ... ... ...
ROW 96 : ... .. . ... ... ... : A#1 02 . ... ... ... : ... .. . ... ... ... : ... .. . ... ... ... : ... .. . ... ... ... : ... .. . ... ... ...
ROW 97 : F#2 00 7 ... ... ... : F#1 00 C ... ... ... : F#3 00 . ... ... ... : B-# 01 6 ... ... ... : C#1 05 . ... ... ... : E-2 04 5 I01 JB4 ...
ROW 98 : F#2 03 . ... ... ... : F#1 01 . ... ... ... : F#2 00 . ... ... ... : C-# 00 4 ... ... ... : ... .. . ... ... ... : ... .. 4 ... ... ...
ROW 99 : F#2 02 . ... ... ... : F#1 02 . ... ... ... : ... .. . ... ... ... : ... .. . ... ... ... : ... .. . ... ... ... : ... .. . ... ... ...
ROW 9A : F#2 01 . ... ... ... : ... .. . ... ... ... : ... .. . ... ... ... : D-# 01 3 ... ... ... : ... .. . ... ... ... : ... .. 3 ... ... ...
ROW 9B : ... .. . ... ... ... : ... .. . ... ... ... : ... .. . ... ... ... : C-# 01 . ... ... ... : ... .. . ... ... ... : ... .. . ... ... ...
ROW 9C : ... .. . ... ... ... : ... .. . ... ... ... : ... .. . ... ... ... : D-# 00 . ... ... ... : ... .. . ... ... ... : ... .. . ... ... ...
ROW 9D : ... .. . ... ... ... : ... .. . ... ... ... : ... .. . ... ... ... : ... .. . ... ... ... : ... .. . ... ... ... : ... .. . ... ... ...
ROW 9E : ... .. . ... ... ... : ... .. . ... ... ... : --- .. . ... ... ... : ... .. . ... ... ... : ... .. . ... ... ... : ... .. . ... ... ...
ROW 9F : ... .. . ... ... ... : ... .. . ... ... ... : ... .. . ... ... ... : ... .. 2 ... ... ... : ... .. . ... ... ... : ... .. . ... ... ...
ROW A0 : ... .. . ... ... ... : ... .. . ... ... ... : ... .. . ... ... ... : ... .. . ... ... ... : ... .. . ... ... ... : ... .. . ... ... ...
ROW A1 : ... .. . ... ... ... : ... .. . ... ... ... : ... .. . ... ... ... : ... .. . ... ... ... : ... .. . ... ... ... : ... .. . ... ... ...
ROW A2 : ... .. 3 ... ... ... : A-2 02 7 ... ... ... : ... .. . ... ... ... : ... .. . ... ... ... : ... .. . ... ... ... : ... .. . ... ... ...
ROW A3 : ... .. . ... ... ... : B-1 02 . ... ... ... : ... .. . ... ... ... : ... .. . ... ... ... : ... .. . ... ... ... : ... .. 1 ... ... ...
ROW A4 : G#2 00 7 ... ... ... : G#1 00 C ... ... ... : F#3 00 . ... ... ... : 9-# 01 7 ... ... ... : C-1 05 . ... ... ... : ... .. . ... ... ...
ROW A5 : G#2 03 . ... ... ... : G#1 01 . ... ... ... : F#2 00 . ... ... ... : A-# 00 5 ... ... ... : ... .. . ... ... ... : ... .. 4 ... ... ...
ROW A6 : G#2 02 . ... ... ... : G#1 02 . ... ... ... : ... .. . ... ... ... : ... .. 4 ... ... ... : ... .. . ... ... ... : ... .. . ... ... ...
ROW A7 : G#2 01 . ... ... ... : ... .. . ... ... ... : ... .. . ... ... ... : B-# 01 . ... ... ... : ... .. . ... ... ... : ... .. 3 ... ... ...
ROW A8 : ... .. . ... ... ... : ... .. . ... ... ... : ... .. . ... ... ... : A-# 01 . ... ... ... : ... .. . ... ... ... : ... .. . ... ... ...
ROW A9 : ... .. . ... ... ... : ... .. . ... ... ... : ... .. . ... ... ... : B-# 00 3 ... ... ... : ... .. . ... ... ... : ... .. . ... ... ...
ROW AA : ... .. . ... ... ... : ... .. . ... ... ... : ... .. . ... ... ... : ... .. . ... ... ... : ... .. . ... ... ... : ... .. . ... ... ...
ROW AB : ... .. . ... ... ... : ... .. . ... ... ... : ... .. . ... ... ... : ... .. . ... ... ... : ... .. . ... ... ... : ... .. . ... ... ...
ROW AC : ... .. . ... ... ... : ... .. . ... ... ... : ... .. . ... ... ... : ... .. . ... ... ... : ... .. . ... ... ... : ... .. . ... ... ...
ROW AD : ... .. . ... ... ... : ... .. . ... ... ... : ... .. . ... ... ... : ... .. . ... ... ... : ... .. . ... ... ... : ... .. . ... ... ...
ROW AE : ... .. . ... ... ... : ... .. . ... ... ... : ... .. . ... ... ... : ... .. 2 ... ... ... : ... .. . ... ... ... : ... .. . ... ... ...
ROW AF : ... .. 3 ... ... ... : F#2 02 7 ... ... ... : ... .. . ... ... ... : ... .. . ... ... ... : ... .. . ... ... ... : ... .. 1 ... ... ...
ROW B0 : ... .. . ... ... ... : G#1 02 . ... ... ... : ... .. . ... ... ... : ... .. . ... ... ... : ... .. . ... ... ... : ... .. . ... ... ...
ROW B1 : A-2 00 7 ... ... ... : A-1 00 C ... ... ... : ... .. . ... ... ... : B-# 01 7 ... ... ... : C#1 05 . ... ... ... : ... .. 5 ... ... ...
ROW B2 : A-2 03 . ... ... ... : A-1 01 . ... ... ... : ... .. . ... ... ... : C-# 00 5 ... ... ... : ... .. . ... ... ... : ... .. 4 ... ... ...
ROW B3 : A-2 02 . ... ... ... : A-1 02 . ... ... ... : ... .. . ... ... ... : ... .. 4 ... ... ... : ... .. . ... ... ... : ... .. . ... ... ...
ROW B4 : A-2 01 . ... ... ... : ... .. . ... ... ... : ... .. . ... ... ... : D-# 01 . ... ... ... : ... .. . ... ... ... : ... .. 3 ... ... ...
ROW B5 : ... .. . ... ... ... : ... .. . ... ... ... : ... .. . ... ... ... : C-# 01 . ... ... ... : ... .. . ... ... ... : ... .. . ... ... ...
ROW B6 : ... .. . ... ... ... : ... .. . ... ... ... : ... .. . ... ... ... : D-# 00 3 ... ... ... : ... .. . ... ... ... : ... .. . ... ... ...
ROW B7 : ... .. . ... ... ... : ... .. . ... ... ... : ... .. . ... ... ... : ... .. . ... ... ... : ... .. . ... ... ... : ... .. . ... ... ...
ROW B8 : ... .. . ... ... ... : ... .. . ... ... ... : ... .. . ... ... ... : ... .. . ... ... ... : ... .. . ... ... ... : ... .. . ... ... ...
ROW B9 : ... .. . ... ... ... : ... .. . ... ... ... : ... .. . ... ... ... : ... .. . ... ... ... : ... .. . ... ... ... : ... .. . ... ... ...
ROW BA : ... .. . ... ... ... : ... .. . ... ... ... : ... .. . ... ... ... : ... .. . ... ... ... : ... .. . ... ... ... : ... .. . ... ... ...
ROW BB : ... .. . ... ... ... : ... .. . ... ... ... : ... .. . ... ... ... : ... .. 2 ... ... ... : ... .. . ... ... ... : ... .. . ... ... ...
ROW BC : ... .. 3 ... ... ... : G#2 02 7 ... ... ... : ... .. . ... ... ... : ... .. . ... ... ... : ... .. . ... ... ... : ... .. . ... ... ...
ROW BD : ... .. . ... ... ... : A#1 02 . ... ... ... : ... .. . ... ... ... : ... .. . ... ... ... : ... .. . ... ... ... : ... .. 1 ... ... ...
ROW BE : F#2 00 7 ... ... ... : F#1 00 C ... ... ... : ... .. . ... ... ... : 9-# 01 9 ... ... ... : D-1 05 . ... ... ... : E-3 04 5 I01 JB2 ...
ROW BF : F#2 03 . ... ... ... : F#1 01 . ... ... ... : ... .. . ... ... ... : A-# 00 6 ... ... ... : ... .. . ... ... ... : ... .. 4 ... ... ...
ROW C0 : F#2 02 . ... ... ... : F#1 02 . ... ... ... : ... .. . ... ... ... : ... .. . ... ... ... : ... .. . ... ... ... : ... .. . ... ... ...
ROW C1 : F#2 01 . ... ... ... : ... .. . ... ... ... : ... .. . ... ... ... : B-# 01 5 ... ... ... : ... .. . ... ... ... : ... .. 3 ... ... ...
ROW C2 : ... .. . ... ... ... : ... .. . ... ... ... : ... .. . ... ... ... : A-# 01 . ... ... ... : ... .. . ... ... ... : ... .. . ... ... ...
ROW C3 : ... .. . ... ... ... : ... .. . ... ... ... : ... .. . ... ... ... : B-# 00 4 ... ... ... : ... .. . ... ... ... : ... .. . ... ... ...
ROW C4 : ... .. . ... ... ... : ... .. . ... ... ... : ... .. . ... ... ... : ... .. . ... ... ... : ... .. . ... ... ... : ... .. . ... ... ...
ROW C5 : ... .. . ... ... ... : ... .. . ... ... ... : --- .. . ... ... ... : ... .. . ... ... ... : ... .. . ... ... ... : ... .. . ... ... ...
ROW C6 : ... .. . ... ... ... : ... .. . ... ... ... : ... .. . ... ... ... : ... .. . ... ... ... : ... .. . ... ... ... : ... .. . ... ... ...
ROW C7 : ... .. . ... ... ... : ... .. . ... ... ... : ... .. . ... ... ... : ... .. . ... ... ... : ... .. . ... ... ... : ... .. . ... ... ...
ROW C8 : ... .. . ... ... ... : ... .. . ... ... ... : ... .. . ... ... ... : ... .. 3 ... ... ... : ... .. . ... ... ... : ... .. . ... ... ...
ROW C9 : ... .. 3 ... ... ... : A-2 02 7 ... ... ... : ... .. . ... ... ... : ... .. . ... ... ... : ... .. . ... ... ... : ... .. 1 ... ... ...
ROW CA : ... .. . ... ... ... : B-1 02 . ... ... ... : ... .. . ... ... ... : ... .. . ... ... ... : ... .. . ... ... ... : ... .. . ... ... ...
ROW CB : G#2 00 7 ... ... ... : G#1 00 C ... ... ... : F#3 00 . ... ... ... : B-# 01 6 ... ... ... : C#1 05 . ... ... ... : E-2 04 5 I01 JB4 ...
ROW CC : G#2 03 . ... ... ... : G#1 01 . ... ... ... : F#2 00 . ... ... ... : C-# 00 4 ... ... ... : ... .. . ... ... ... : ... .. 4 ... ... ...
ROW CD : G#2 02 . ... ... ... : G#1 02 . ... ... ... : ... .. . ... ... ... : ... .. . ... ... ... : ... .. . ... ... ... : ... .. . ... ... ...
ROW CE : G#2 01 . ... ... ... : ... .. . ... ... ... : ... .. . ... ... ... : D-# 01 3 ... ... ... : ... .. . ... ... ... : ... .. 3 ... ... ...
ROW CF : ... .. . ... ... ... : ... .. . ... ... ... : ... .. . ... ... ... : C-# 01 . ... ... ... : ... .. . ... ... ... : ... .. . ... ... ...
ROW D0 : ... .. . ... ... ... : ... .. . ... ... ... : ... .. . ... ... ... : D-# 00 . ... ... ... : ... .. . ... ... ... : ... .. . ... ... ...
ROW D1 : ... .. . ... ... ... : ... .. . ... ... ... : ... .. . ... ... ... : ... .. . ... ... ... : ... .. . ... ... ... : ... .. . ... ... ...
ROW D2 : ... .. . ... ... ... : ... .. . ... ... ... : --- .. . ... ... ... : ... .. . ... ... ... : ... .. . ... ... ... : ... .. . ... ... ...
ROW D3 : ... .. . ... ... ... : ... .. . ... ... ... : ... .. . ... ... ... : ... .. 2 ... ... ... : ... .. . ... ... ... : ... .. . ... ... ...
ROW D4 : ... .. . ... ... ... : ... .. . ... ... ... : ... .. . ... ... ... : ... .. . ... ... ... : ... .. . ... ... ... : ... .. . ... ... ...
ROW D5 : ... .. . ... ... ... : ... .. . ... ... ... : ... .. . ... ... ... : ... .. . ... ... ... : ... .. . ... ... ... : ... .. . ... ... ...
ROW D6 : ... .. 3 ... ... ... : F#2 02 7 ... ... ... : ... .. . ... ... ... : ... .. . ... ... ... : ... .. . ... ... ... : ... .. 1 ... ... ...
ROW D7 : ... .. . ... ... ... : G#1 02 . ... ... ... : ... .. . ... ... ... : ... .. . ... ... ... : ... .. . ... ... ... : ... .. . ... ... ...
ROW D8 : A-2 00 7 ... ... ... : A-1 00 C ... ... ... : F#3 00 . ... ... ... : 9-# 01 7 ... ... ... : C-1 05 . ... ... ... : ... .. 5 ... ... ...
ROW D9 : A-2 03 . ... ... ... : A-1 01 . ... ... ... : F#2 00 . ... ... ... : A-# 00 5 ... ... ... : ... .. . ... ... ... : ... .. 4 ... ... ...
ROW DA : A-2 02 . ... ... ... : A-1 02 . ... ... ... : ... .. . ... ... ... : ... .. 4 ... ... ... : ... .. . ... ... ... : ... .. . ... ... ...
ROW DB : A-2 01 . ... ... ... : ... .. . ... ... ... : ... .. . ... ... ... : B-# 01 . ... ... ... : ... .. . ... ... ... : ... .. 3 ... ... ...
ROW DC : ... .. . ... ... ... : ... .. . ... ... ... : ... .. . ... ... ... : A-# 01 . ... ... ... : ... .. . ... ... ... : ... .. . ... ... ...
ROW DD : ... .. . ... ... ... : ... .. . ... ... ... : ... .. . ... ... ... : B-# 00 3 ... ... ... : ... .. . ... ... ... : ... .. . ... ... ...
ROW DE : ... .. . ... ... ... : ... .. . ... ... ... : ... .. . ... ... ... : ... .. . ... ... ... : ... .. . ... ... ... : ... .. . ... ... ...
ROW DF : ... .. . ... ... ... : ... .. . ... ... ... : ... .. . ... ... ... : ... .. . ... ... ... : ... .. . ... ... ... : ... .. . ... ... ...
ROW E0 : ... .. . ... ... ... : ... .. . ... ... ... : ... .. . ... ... ... : ... .. . ... ... ... : ... .. . ... ... ... : ... .. . ... ... ...
ROW E1 : ... .. . ... ... ... : ... .. . ... ... ... : ... .. . ... ... ... : ... .. . ... ... ... : ... .. . ... ... ... : ... .. . ... ... ...
ROW E2 : ... .. . ... ... ... : ... .. . ... ... ... : ... .. . ... ... ... : ... .. 2 ... ... ... : ... .. . ... ... ... : ... .. . ... ... ...
ROW E3 : ... .. 3 ... ... ... : G#2 02 7 ... ... ... : ... .. . ... ... ... : ... .. . ... ... ... : ... .. . ... ... ... : ... .. . ... ... ...
ROW E4 : ... .. . ... ... ... : A#1 02 . ... ... ... : ... .. . ... ... ... : ... .. . ... ... ... : ... .. . ... ... ... : ... .. 1 ... ... ...
ROW E5 : F#2 00 7 ... ... ... : F#1 00 C ... ... ... : ... .. . ... ... ... : B-# 01 7 ... ... ... : C#1 05 . ... ... ... : ... .. 5 ... ... ...
ROW E6 : F#2 03 . ... ... ... : F#1 01 . ... ... ... : ... .. . ... ... ... : C-# 00 5 ... ... ... : ... .. . ... ... ... : ... .. 4 ... ... ...
ROW E7 : F#2 02 . ... ... ... : F#1 02 . ... ... ... : ... .. . ... ... ... : ... .. 4 ... ... ... : ... .. . ... ... ... : ... .. . ... ... ...
ROW E8 : F#2 01 . ... ... ... : ... .. . ... ... ... : ... .. . ... ... ... : D-# 01 . ... ... ... : ... .. . ... ... ... : ... .. 3 ... ... ...
ROW E9 : ... .. . ... ... ... : ... .. . ... ... ... : ... .. . ... ... ... : C-# 01 . ... ... ... : ... .. . ... ... ... : ... .. . ... ... ...
ROW EA : ... .. . ... ... ... : ... .. . ... ... ... : ... .. . ... ... ... : D-# 00 3 ... ... ... : ... .. . ... ... ... : ... .. . ... ... ...
ROW EB : ... .. . ... ... ... : ... .. . ... ... ... : ... .. . ... ... ... : ... .. . ... ... ... : ... .. . ... ... ... : ... .. . ... ... ...
ROW EC : ... .. . ... ... ... : ... .. . ... ... ... : ... .. . ... ... ... : ... .. . ... ... ... : ... .. . ... ... ... : ... .. . ... ... ...
ROW ED : ... .. . ... ... ... : ... .. . ... ... ... : ... .. . ... ... ... : ... .. . ... ... ... : ... .. . ... ... ... : ... .. . ... ... ...
ROW EE : ... .. . ... ... ... : ... .. . ... ... ... : ... .. . ... ... ... : ... .. . ... ... ... : ... .. . ... ... ... : ... .. . ... ... ...
ROW EF : ... .. . ... ... ... : ... .. . ... ... ... : ... .. . ... ... ... : ... .. 2 ... ... ... : ... .. . ... ... ... : ... .. . ... ... ...
ROW F0 : ... .. 3 ... ... ... : A-2 02 7 ... ... ... : ... .. . ... ... ... : ... .. . ... ... ... : ... .. . ... ... ... : ... .. 1 ... ... ...
ROW F1 : ... .. . ... ... ... : B-1 02 . ... ... ... : ... .. . ... ... ... : ... .. . ... ... ... : ... .. . ... ... ... : ... .. . ... ... ...
ROW F2 : G#2 00 7 ... ... ... : G#1 00 C ... ... ... : ... .. . ... ... ... : 9-# 01 9 ... ... ... : D-1 05 . ... ... ... : E-3 04 5 I01 JB2 ...
ROW F3 : G#2 03 . ... ... ... : G#1 01 . ... ... ... : ... .. . ... ... ... : A-# 00 6 ... ... ... : ... .. . ... ... ... : ... .. 4 ... ... ...
ROW F4 : G#2 02 . ... ... ... : G#1 02 . ... ... ... : ... .. . ... ... ... : ... .. . ... ... ... : ... .. . ... ... ... : ... .. . ... ... ...
ROW F5 : G#2 01 . ... ... ... : ... .. . ... ... ... : ... .. . ... ... ... : B-# 01 5 ... ... ... : ... .. . ... ... ... : ... .. 3 ... ... ...
ROW F6 : ... .. . ... ... ... : ... .. . ... ... ... : ... .. . ... ... ... : A-# 01 . ... ... ... : ... .. . ... ... ... : ... .. . ... ... ...
ROW F7 : ... .. . ... ... ... : ... .. . ... ... ... : ... .. . ... ... ... : B-# 00 4 ... ... ... : ... .. . ... ... ... : ... .. . ... ... ...
ROW F8 : ... .. . ... ... ... : ... .. . ... ... ... : ... .. . ... ... ... : ... .. . ... ... ... : ... .. . ... ... ... : ... .. . ... ... ...
ROW F9 : ... .. . ... ... ... : ... .. . ... ... ... : --- .. . ... ... ... : ... .. . ... ... ... : ... .. . ... ... ... : ... .. . ... ... ...
ROW FA : ... .. . ... ... ... : ... .. . ... ... ... : ... .. . ... ... ... : ... .. . ... ... ... : ... .. . ... ... ... : ... .. . ... ... ...
ROW FB : ... .. . ... ... ... : ... .. . ... ... ... : ... .. . ... ... ... : ... .. . ... ... ... : ... .. . ... ... ... : ... .. . ... ... ...
ROW FC : ... .. . ... ... ... : ... .. . ... ... ... : ... .. . ... ... ... : ... .. 3 ... ... ... : ... .. . ... ... ... : ... .. . ... ... ...
ROW FD : ... .. 3 ... ... ... : F#2 02 7 ... ... ... : ... .. . ... ... ... : ... .. . ... ... ... : ... .. . ... ... ... : ... .. 1 ... ... ...
ROW FE : ... .. . ... ... ... : G#1 02 . ... ... ... : ... .. . ... ... ... : ... .. . ... ... ... : ... .. . ... ... ... : ... .. . ... ... ...
ROW FF : A-2 00 7 ... ... ... : A-1 00 C ... ... ... : F#3 00 . ... ... ... : B-# 01 6 ... ... ... : C#1 05 . ... ... ... : E-2 04 . I01 JB4 ...

PATTERN 03
ROW 00 : A-2 03 . ... ... ... : A-1 01 . ... ... ... : F#2 00 . ... ... ... : C-# 00 4 ... ... ... : ... .. . ... ... ... : ... .. 4 ... ... ...
ROW 01 : A-2 02 . ... ... ... : A-1 02 . ... ... ... : ... .. . ... ... ... : ... .. . ... ... ... : ... .. . ... ... ... : ... .. . ... ... ...
ROW 02 : A-2 01 . ... ... ... : ... .. . ... ... ... : ... .. . ... ... ... : D-# 01 3 ... ... ... : ... .. . ... ... ... : ... .. 3 ... ... ...
ROW 03 : ... .. . ... ... ... : ... .. . ... ... ... : ... .. . ... ... ... : C-# 01 . ... ... ... : ... .. . ... ... ... : ... .. . ... ... ...
ROW 04 : ... .. . ... ... ... : ... .. . ... ... ... : ... .. . ... ... ... : D-# 00 . ... ... ... : ... .. . ... ... ... : ... .. . ... ... ...
ROW 05 : ... .. . ... ... ... : ... .. . ... ... ... : ... .. . ... ... ... : ... .. . ... ... ... : ... .. . ... ... ... : ... .. . ... ... ...
ROW 06 : ... .. . ... ... ... : ... .. . ... ... ... : --- .. . ... ... ... : ... .. . ... ... ... : ... .. . ... ... ... : ... .. . ... ... ...
ROW 07 : ... .. . ... ... ... : ... .. . ... ... ... : ... .. . ... ... ... : ... .. 2 ... ... ... : ... .. . ... ... ... : ... .. . ... ... ...
ROW 08 : ... .. . ... ... ... : ... .. . ... ... ... : ... .. . ... ... ... : ... .. . ... ... ... : ... .. . ... ... ... : ... .. . ... ... ...
ROW 09 : ... .. . ... ... ... : ... .. . ... ... ... : ... .. . ... ... ... : ... .. . ... ... ... : ... .. . ... ... ... : ... .. . ... ... ...
ROW 0A : ... .. 3 ... ... ... : G#2 02 7 ... ... ... : ... .. . ... ... ... : ... .. . ... ... ... : ... .. . ... ... ... : ... .. . ... ... ...
ROW 0B : ... .. . ... ... ... : A#1 02 . ... ... ... : ... .. . ... ... ... : ... .. . ... ... ... : ... .. . ... ... ... : ... .. 1 ... ... ...
ROW 0C : A-2 00 5 ... ... ... : A-1 00 8 ... ... ... : F#3 00 . ... ... ... : 9-# 00 A ... ... ... : D-1 05 . ... ... ... : ... .. 5 ... ... ...
ROW 0D : A-2 03 . ... ... ... : A-1 01 . ... ... ... : F#2 00 . ... ... ... : 5-# 00 7 ... ... ... : ... .. . ... ... ... : ... .. 4 ... ... ...
ROW 0E : A-2 02 . ... ... ... : A-1 02 . ... ... ... : ... .. . ... ... ... : 8-# 00 9 ... ... ... : ... .. . ... ... ... : ... .. . ... ... ...
ROW 0F : A-2 01 . ... ... ... : ... .. . ... ... ... : ... .. . ... ... ... : A-# 00 7 ... ... ... : ... .. . ... ... ... : ... .. 3 ... ... ...
ROW 10 : ... .. . ... ... ... : ... .. . ... ... ... : ... .. . ... ... ... : B-# 00 8 ... ... ... : ... .. . ... ... ... : ... .. . ... ... ...
ROW 11 : ... .. . ... ... ... : ... .. . ... ... ... : ... .. . ... ... ... : C-# 00 7 ... ... ... : ... .. . ... ... ... : ... .. . ... ... ...
ROW 12 : ... .. . ... ... ... : ... .. . ... ... ... : ... .. . ... ... ... : ... .. . ... ... ... : ... .. . ... ... ... : ... .. . ... ... ...
ROW 13 : ... .. . ... ... ... : ... .. . ... ... ... : ... .. . ... ... ... : ... .. 6 ... ... ... : ... .. . ... ... ... : ... .. . ... ... ...
ROW 14 : ... .. . ... ... ... : ... .. . ... ... ... : ... .. . ... ... ... : ... .. . ... ... ... : ... .. . ... ... ... : ... .. . ... ... ...
ROW 15 : ... .. . ... ... ... : ... .. . ... ... ... : ... .. . ... ... ... : ... .. . ... ... ... : ... .. . ... ... ... : ... .. . ... ... ...
ROW 16 : ... .. . ... ... ... : ... .. . ... ... ... : ... .. . ... ... ... : ... .. . ... ... ... : ... .. . ... ... ... : ... .. . ... ... ...
ROW 17 : ... .. 1 ... ... ... : A-2 02 4 ... ... ... : ... .. . ... ... ... : ... .. . ... ... ... : ... .. . ... ... ... : ... .. 1 ... ... ...
ROW 18 : ... .. . ... ... ... : B-1 02 . ... ... ... : ... .. . ... ... ... : ... .. . ... ... ... : ... .. . ... ... ... : ... .. . ... ... ...
ROW 19 : A-2 00 3 ... ... ... : A-1 00 5 ... ... ... : ... .. . ... ... ... : 9-# 00 7 ... ... ... : D-1 05 . ... ... ... : ... .. . ... ... ...
ROW 1A : A-2 03 . ... ... ... : A-1 01 . ... ... ... : ... .. . ... ... ... : 5-# 00 5 ... ... ... : ... .. . ... ... ... : ... .. 4 ... ... ...
ROW 1B : A-2 02 . ... ... ... : A-1 02 . ... ... ... : ... .. . ... ... ... : 8-# 00 6 ... ... ... : ... .. . ... ... ... : ... .. . ... ... ...
ROW 1C : A-2 01 . ... ... ... : ... .. . ... ... ... : ... .. . ... ... ... : A-# 00 5 ... ... ... : ... .. . ... ... ... : ... .. 3 ... ... ...
ROW 1D : ... .. . ... ... ... : ... .. . ... ... ... : ... .. . ... ... ... : B-# 00 . ... ... ... : ... .. . ... ... ... : ... .. . ... ... ...
ROW 1E : ... .. . ... ... ... : ... .. . ... ... ... : ... .. . ... ... ... : C-# 00 2 ... ... ... : ... .. . ... ... ... : ... .. . ... ... ...
ROW 1F : ... .. . ... ... ... : ... .. . ... ... ... : ... .. . ... ... ... : 9-# 00 8 ... ... ... : D-1 05 . ... ... ... : ... .. . ... ... ...
ROW 20 : ... .. . ... ... ... : ... .. . ... ... ... : ... .. . ... ... ... : 5-# 00 5 ... ... ... : ... .. . ... ... ... : ... .. . ... ... ...
ROW 21 : ... .. . ... ... ... : ... .. . ... ... ... : ... .. . ... ... ... : 8-# 00 7 ... ... ... : ... .. . ... ... ... : ... .. . ... ... ...
ROW 22 : ... .. . ... ... ... : ... .. . ... ... ... : ... .. . ... ... ... : A-# 00 5 ... ... ... : ... .. . ... ... ... : ... .. . ... ... ...
ROW 23 : ... .. . ... ... ... : ... .. . ... ... ... : ... .. . ... ... ... : B-# 00 6 ... ... ... : ... .. . ... ... ... : ... .. . ... ... ...
ROW 24 : --- .. . ... ... ... : A-2 02 3 ... ... ... : ... .. . ... ... ... : C-# 00 5 ... ... ... : ... .. . ... ... ... : ... .. 1 ... ... ...
ROW 25 : ... .. . P80 ... ... : B-1 02 . ... ... ... : ... .. . ... ... ... : ... .. 2 ... ... ... : ... .. . ... ... ... : ... .. . ... ... ...
ROW 26 : A-2 00 2 P7E ... ... : A-1 00 . ... ... ... : ... .. . ... ... ... : 9-# 00 9 ... ... ... : D-1 05 . ... ... ... : E-3 04 5 I01 JB2 ...
ROW 27 : A-2 03 . ... ... ... : A-1 01 . ... ... ... : ... .. . ... ... ... : 5-# 00 6 ... ... ... : ... .. . ... ... ... : ... .. 4 ... ... ...
ROW 28 : A-2 02 . ... ... ... : A-1 02 . ... ... ... : ... .. . ... ... ... : 8-# 00 8 ... ... ... : ... .. . ... ... ... : ... .. . ... ... ...
ROW 29 : A-2 01 . ... ... ... : ... .. . ... ... ... : ... .. . ... ... ... : A-# 00 6 ... ... ... : ... .. . ... ... ... : ... .. 3 ... ... ...
ROW 2A : ... .. . ... ... ... : ... .. . ... ... ... : ... .. . ... ... ... : B-# 00 7 ... ... ... : ... .. . ... ... ... : ... .. . ... ... ...
ROW 2B : ... .. . ... ... ... : ... .. . ... ... ... : ... .. . ... ... ... : C-# 00 2 ... ... ... : ... .. . ... ... ... : ... .. . ... ... ...
ROW 2C : ... .. . ... ... ... : ... .. . ... ... ... : ... .. . ... ... ... : 9-# 00 9 ... ... ... : D-1 05 . ... ... ... : ... .. . ... ... ...
ROW 2D : ... .. . ... ... ... : ... .. . ... ... ... : --- .. . ... ... ... : 5-# 00 6 ... ... ... : ... .. . ... ... ... : ... .. . ... ... ...
ROW 2E : ... .. . ... ... ... : ... .. . ... ... ... : ... .. . ... ... ... : 8-# 00 8 ... ... ... : ... .. . ... ... ... : ... .. . ... ... ...
ROW 2F : ... .. . ... ... ... : ... .. . ... ... ... : ... .. . ... ... ... : A-# 00 6 ... ... ... : ... .. . ... ... ... : ... .. . ... ... ...
ROW 30 : ... .. . ... ... ... : ... .. . ... ... ... : ... .. . ... ... ... : B-# 00 7 ... ... ... : ... .. . ... ... ... : ... .. . ... ... ...
ROW 31 : --- .. . ... ... ... : A-2 02 2 ... ... ... : ... .. . ... ... ... : C-# 00 6 ... ... ... : ... .. . ... ... ... : ... .. 1 ... ... ...
ROW 32 : ... .. . P80 ... ... : B-1 02 . ... ... ... : ... .. . ... ... ... : ... .. 2 ... ... ... : ... .. . ... ... ... : ... .. . ... ... ...
ROW 33 : A-2 00 1 P7E ... ... : A-1 00 3 ... ... ... : E-3 00 . ... ... ... : 9-# 00 A ... ... ... : D-1 05 . ... ... ... : E-2 04 5 I01 JB4 ...
ROW 34 : A-2 03 . ... ... ... : A-1 01 . ... ... ... : E-2 00 . ... ... ... : 5-# 00 7 ... ... ... : ... .. . ... ... ... : ... .. 4 ... ... ...
ROW 35 : A-2 02 . ... ... ... : A-1 02 . ... ... ... : ... .. . ... ... ... : 8-# 00 9 ... ... ... : ... .. . ... ... ... : ... .. . ... ... ...
ROW 36 : A-2 01 . ... ... ... : ... .. . ... ... ... : ... .. . ... ... ... : A-# 00 7 ... ... ... : ... .. . ... ... ... : ... .. 3 ... ... ...
ROW 37 : ... .. . ... ... ... : ... .. . ... ... ... : ... .. . ... ... ... : B-# 00 8 ... ... ... : ... .. . ... ... ... : ... .. . ... ... ...
ROW 38 : ... .. . ... ... ... : ... .. . ... ... ... : ... .. . ... ... ... : C-# 00 2 ... ... ... : ... .. . ... ... ... : ... .. . ... ... ...
ROW 39 : ... .. . ... ... ... : ... .. . ... ... ... : ... .. . ... ... ... : 9-# 00 B ... ... ... : D-1 05 . ... ... ... : ... .. . ... ... ...
ROW 3A : ... .. . ... ... ... : ... .. . ... ... ... : --- .. . ... ... ... : 5-# 00 8 ... ... ... : ... .. . ... ... ... : ... .. . ... ... ...
ROW 3B : ... .. . ... ... ... : ... .. . ... ... ... : ... .. . ... ... ... : 8-# 00 A ... ... ... : ... .. . ... ... ... : ... .. . ... ... ...
ROW 3C : ... .. . ... ... ... : A-2 02 1 ... ... ... : ... .. . ... ... ... : A-# 00 8 ... ... ... : ... .. . ... ... ... : ... .. . ... ... ...
ROW 3D : ... .. . ... ... ... : B-1 02 . ... ... ... : ... .. . ... ... ... : B-# 00 . ... ... ... : ... .. . ... ... ... : ... .. . ... ... ...
ROW 3E : --- .. . ... ... ... : A-1 00 . ... ... ... : ... .. . ... ... ... : C-# 00 . ... ... ... : ... .. . ... ... ... : ... .. 1 ... ... ...
ROW 3F : ... .. . P80 ... ... : A-1 01 . ... ... ... : ... .. . ... ... ... : ... .. 2 ... ... ... : ... .. . ... ... ... : ... .. . ... ... ...
ROW 40 : B-2 02 4 P7E ... ... : F#2 00 C P84 ... ... : B-3 00 . ... ... ... : 8-# 00 C ... ... ... : C-1 05 . ... ... ... : A-1 04 . I02 J40 ...
ROW 41 : B-3 02 3 ... ... ... : F#2 01 . ... ... ... : B-2 00 . ... ... ... : 4-# 00 8 ... ... ... : ... .. . ... ... ... : ... .. 5 ... ... ...
ROW 42 : C#4 01 . ... ... ... : F#2 02 . ... ... ... : ... .. . ... ... ... : 7-# 00 B ... ... ... : ... .. . ... ... ... : ... .. . ... ... ...
ROW 43 : C#3 01 4 P81 ... ... : ... .. . ... ... ... : ... .. . ... ... ... : 9-# 00 8 ... ... ... : ... .. . ... ... ... : ... .. 4 ... ... ...
ROW 44 : F#3 01 . ... ... ... : ... .. . ... ... ... : ... .. . ... ... ... : A-# 00 9 ... ... ... : ... .. . ... ... ... : ... .. . ... ... ...
ROW 45 : F#4 01 3 ... ... ... : ... .. . ... ... ... : ... .. . ... ... ... : B-# 00 8 ... ... ... : ... .. . ... ... ... : ... .. . ... ... ...
ROW 46 : B-3 00 . ... ... ... : ... .. . ... ... ... : ... .. . ... ... ... : ... .. . ... ... ... : ... .. . ... ... ... : ... .. . ... ... ...
ROW 47 : B-2 00 4 ... ... ... : ... .. . ... ... ... : ... .. . ... ... ... : ... .. . ... ... ... : ... .. . ... ... ... : ... .. . ... ... ...
ROW 48 : C#3 00 . ... ... ... : ... .. . ... ... ... : ... .. . ... ... ... : ... .. . ... ... ... : ... .. . ... ... ... : ... .. . ... ... ...
ROW 49 : C#4 00 3 ... ... ... : ... .. . ... ... ... : ... .. . ... ... ... : ... .. 7 ... ... ... : ... .. . ... ... ... : ... .. . ... ... ...
ROW 4A : F#4 00 . ... ... ... : F#3 02 7 ... ... ... : --- .. . ... ... ... : ... .. . ... ... ... : ... .. . ... ... ... : ... .. . ... ... ...
ROW 4B : B-2 00 4 ... ... ... : G#2 02 . ... ... ... : ... .. . ... ... ... : ... .. . ... ... ... : ... .. . ... ... ... : ... .. . ... ... ...
ROW 4C : ... .. . ... ... ... : F#2 00 . ... ... ... : ... .. . ... ... ... : ... .. . ... ... ... : ... .. . ... ... ... : ... .. 1 ... ... ...
ROW 4D : B-3 01 3 ... ... ... : G#2 00 C ... ... ... : C#4 00 . ... ... ... : ... .. 6 ... ... ... : C#1 05 . ... ... ... : ... .. 6 ... ... ...
ROW 4E : C#4 01 . ... ... ... : G#2 01 . ... ... ... : C#3 00 . ... ... ... : ... .. . ... ... ... : ... .. . ... ... ... : ... .. . ... ... ...
ROW 4F : C#3 01 4 ... ... ... : G#2 02 . ... ... ... : ... .. . ... ... ... : ... .. . ... ... ... : ... .. . ... ... ... : ... .. 5 ... ... ...
ROW 50 : F#3 01 . ... ... ... : ... .. . ... ... ... : ... .. . ... ... ... : ... .. . ... ... ... : ... .. . ... ... ... : ... .. 4 ... ... ...
ROW 51 : F#4 02 3 ... ... ... : ... .. . ... ... ... : ... .. . ... ... ... : ... .. . ... ... ... : ... .. . ... ... ... : ... .. . ... ... ...
ROW 52 : B-3 02 . ... ... ... : ... .. . ... ... ... : ... .. . ... ... ... : ... .. 5 ... ... ... : ... .. . ... ... ... : ... .. . ... ... ...
ROW 53 : B-2 02 4 ... ... ... : ... .. . ... ... ... : ... .. . ... ... ... : ... .. . ... ... ... : ... .. . ... ... ... : ... .. . ... ... ...
ROW 54 : C#3 02 . ... ... ... : ... .. . ... ... ... : ... .. . ... ... ... : ... .. . ... ... ... : ... .. . ... ... ... : ... .. . ... ... ...
ROW 55 : C#4 02 3 ... ... ... : ... .. . ... ... ... : ... .. . ... ... ... : ... .. . ... ... ... : ... .. . ... ... ... : ... .. . ... ... ...
ROW 56 : F#4 01 . ... ... ... : ... .. . ... ... ... : ... .. . ... ... ... : ... .. . ... ... ... : ... .. . ... ... ... : ... .. . ... ... ...
ROW 57 : B-2 01 4 ... ... ... : F#3 02 7 ... ... ... : --- .. . ... ... ... : ... .. 4 ... ... ... : ... .. . ... ... ... : ... .. . ... ... ...
ROW 58 : ... .. . ... ... ... : G#2 02 . ... ... ... : ... .. . ... ... ... : ... .. . ... ... ... : ... .. . ... ... ... : ... .. 1 ... ... ...
ROW 59 : B-3 01 3 ... ... ... : F#2 00 . ... ... ... : ... .. . ... ... ... : ... .. . ... ... ... : ... .. . ... ... ... : ... .. . ... ... ...
ROW 5A : C#4 00 4 ... ... ... : A-2 00 C ... ... ... : D-4 00 . ... ... ... : 9-# 01 A ... ... ... : D-1 05 . ... ... ... : A-3 04 5 I02 J44 ...
ROW 5B : C#3 00 5 ... ... ... : A-2 01 . ... ... ... : D-3 00 . ... ... ... : A-# 00 7 ... ... ... : ... .. . ... ... ... : ... .. . ... ... ...
ROW 5C : F#3 00 . ... ... ... : A-2 02 . ... ... ... : ... .. . ... ... ... : ... .. 6 ... ... ... : ... .. . ... ... ... : ... .. 4 ... ... ...
ROW 5D : F#4 00 4 ... ... ... : ... .. . ... ... ... : ... .. . ... ... ... : B-# 01 5 ... ... ... : ... .. . ... ... ... : ... .. . ... ... ...
ROW 5E : B-3 00 . ... ... ... : ... .. . ... ... ... : ... .. . ... ... ... : A-# 01 . ... ... ... : ... .. . ... ... ... : ... .. . ... ... ...
ROW 5F : B-2 00 5 ... ... ... : ... .. . ... ... ... : ... .. . ... ... ... : B-# 00 . ... ... ... : ... .. . ... ... ... : ... .. 3 ... ... ...
ROW 60 : C#3 00 . ... ... ... : ... .. . ... ... ... : ... .. . ... ... ... : ... .. . ... ... ... : ... .. . ... ... ... : ... .. . ... ... ...
ROW 61 : C#4 01 4 ... ... ... : ... .. . ... ... ... : ... .. . ... ... ... : ... .. . ... ... ... : ... .. . ... ... ... : ... .. . ... ... ...
ROW 62 : F#4 01 . ... ... ... : ... .. . ... ... ... : ... .. . ... ... ... : ... .. 4 ... ... ... : ... .. . ... ... ... : ... .. . ... ... ...
ROW 63 : B-2 01 5 ... ... ... : ... .. . ... ... ... : ... .. . ... ... ... : ... .. . ... ... ... : ... .. . ... ... ... : ... .. . ... ... ...
ROW 64 : ... .. . ... ... ... : G#3 02 7 ... ... ... : --- .. . ... ... ... : ... .. 3 ... ... ... : ... .. . ... ... ... : ... .. . ... ... ...
ROW 65 : B-3 02 4 ... ... ... : A#2 02 . ... ... ... : ... .. . ... ... ... : ... .. . ... ... ... : ... .. . ... ... ... : ... .. . ... ... ...
ROW 66 : C#4 02 . ... ... ... : G#2 00 . ... ... ... : ... .. . ... ... ... : ... .. . ... ... ... : ... .. . ... ... ... : ... .. 1 ... ... ...
ROW 67 : C#3 02 6 ... ... ... : F#2 00 C ... ... ... : B-3 00 . ... ... ... : ... .. . ... ... ... : C#1 05 . ... ... ... : E-3 04 5 I02 J43 ...
ROW 68 : F#3 02 . ... ... ... : F#2 01 . ... ... ... : B-2 00 . ... ... ... : ... .. . ... ... ... : ... .. . ... ... ... : ... .. . ... ... ...
ROW 69 : F#4 02 5 ... ... ... : F#2 02 . ... ... ... : ... .. . ... ... ... : ... .. 2 ... ... ... : ... .. . ... ... ... : ... .. 4 ... ... ...
ROW 6A : B-3 01 . ... ... ... : ... .. . ... ... ... : ... .. . ... ... ... : ... .. . ... ... ... : ... .. . ... ... ... : ... .. . ... ... ...
ROW 6B : B-2 01 6 ... ... ... : ... .. . ... ... ... : ... .. . ... ... ... : ... .. . ... ... ... : ... .. . ... ... ... : ... .. . ... ... ...
ROW 6C : C#3 01 . ... ... ... : ... .. . ... ... ... : ... .. . ... ... ... : ... .. . ... ... ... : ... .. . ... ... ... : ... .. 3 ... ... ...
ROW 6D : C#4 01 5 ... ... ... : ... .. . ... ... ... : ... .. . ... ... ... : ... .. . ... ... ... : ... .. . ... ... ... : ... .. . ... ... ...
ROW 6E : F#4 00 . ... ... ... : ... .. . ... ... ... : ... .. . ... ... ... : ... .. . ... ... ... : ... .. . ... ... ... : ... .. . ... ... ...
ROW 6F : B-2 00 6 ... ... ... : ... .. . ... ... ... : ... .. . ... ... ... : ... .. . ... ... ... : ... .. . ... ... ... : ... .. . ... ... ...
ROW 70 : ... .. . ... ... ... : ... .. . ... ... ... : ... .. . ... ... ... : ... .. . ... ... ... : ... .. . ... ... ... : ... .. . ... ... ...
ROW 71 : B-3 00 5 ... ... ... : A-3 02 7 ... ... ... : --- .. . ... ... ... : ... .. . ... ... ... : ... .. . ... ... ... : ... .. . ... ... ...
ROW 72 : C#4 00 . ... ... ... : B-2 02 . ... ... ... : ... .. . ... ... ... : ... .. . ... ... ... : ... .. . ... ... ... : ... .. 1 ... ... ...
ROW 73 : C#3 00 6 ... ... ... : A-2 00 . ... ... ... : ... .. . ... ... ... : ... .. . ... ... ... : ... .. . ... ... ... : ... .. . ... ... ...
ROW 74 : F#3 00 7 ... ... ... : G#2 00 C ... ... ... : C#4 00 . ... ... ... : 9-# 01 A ... ... ... : C-1 05 . ... ... ... : A-2 04 6 I02 J44 ...
ROW 75 : F#4 01 6 ... ... ... : G#2 01 . ... ... ... : C#3 00 . ... ... ... : A-# 00 7 ... ... ... : ... .. . ... ... ... : ... .. 5 ... ... ...
ROW 76 : B-3 01 . ... ... ... : G#2 02 . ... ... ... : ... .. . ... ... ... : ... .. 6 ... ... ... : ... .. . ... ... ... : ... .. . ... ... ...
ROW 77 : B-2 01 7 ... ... ... : ... .. . ... ... ... : ... .. . ... ... ... : B-# 01 5 ... ... ... : ... .. . ... ... ... : ... .. 4 ... ... ...
ROW 78 : C#3 01 . ... ... ... : ... .. . ... ... ... : ... .. . ... ... ... : A-# 01 . ... ... ... : ... .. . ... ... ... : ... .. . ... ... ...
ROW 79 : C#4 02 6 ... ... ... : ... .. . ... ... ... : ... .. . ... ... ... : B-# 00 . ... ... ... : ... .. . ... ... ... : ... .. . ... ... ...
ROW 7A : F#4 02 . ... ... ... : ... .. . ... ... ... : ... .. . ... ... ... : ... .. . ... ... ... : ... .. . ... ... ... : ... .. . ... ... ...
ROW 7B : B-2 02 7 ... ... ... : ... .. . ... ... ... : ... .. . ... ... ... : ... .. . ... ... ... : ... .. . ... ... ... : ... .. . ... ... ...
ROW 7C : ... .. . ... ... ... : ... .. . ... ... ... : ... .. . ... ... ... : ... .. 4 ... ... ... : ... .. . ... ... ... : ... .. . ... ... ...
ROW 7D : B-3 02 6 ... ... ... : ... .. . ... ... ... : ... .. . ... ... ... : ... .. . ... ... ... : ... .. . ... ... ... : ... .. . ... ... ...
ROW 7E : C#4 01 . ... ... ... : F#3 02 7 ... ... ... : --- .. . ... ... ... : ... .. 3 ... ... ... : ... .. . ... ... ... : ... .. . ... ... ...
ROW 7F : C#3 01 7 ... ... ... : G#2 02 . ... ... ... : ... .. . ... ... ... : ... .. . ... ... ... : ... .. . ... ... ... : ... .. 1 ... ... ...
ROW 80 : F#3 01 . ... ... ... : F#2 00 . ... ... ... : ... .. . ... ... ... : ... .. . ... ... ... : ... .. . ... ... ... : ... .. . ... ... ...
ROW 81 : F#4 01 . ... ... ... : A-2 00 C ... ... ... : D-4 00 . ... ... ... : ... .. . ... ... ... : C#1 05 . ... ... ... : ... .. 6 ... ... ...
ROW 82 : B-3 00 . ... ... ... : A-2 01 . ... ... ... : D-3 00 . ... ... ... : ... .. . ... ... ... : ... .. . ... ... ... : ... .. 5 ... ... ...
ROW 83 : B-2 00 8 ... ... ... : A-2 02 . ... ... ... : ... .. . ... ... ... : ... .. 2 ... ... ... : ... .. . ... ... ... : ... .. . ... ... ...
ROW 84 : C#3 00 . ... ... ... : ... .. . ... ... ... : ... .. . ... ... ... : ... .. . ... ... ... : ... .. . ... ... ... : ... .. 4 ... ... ...
ROW 85 : C#4 00 7 ... ... ... : ... .. . ... ... ... : ... .. . ... ... ... : ... .. . ... ... ... : ... .. . ... ... ... : ... .. . ... ... ...
ROW 86 : F#4 00 . ... ... ... : ... .. . ... ... ... : ... .. . ... ... ... : ... .. . ... ... ... : ... .. . ... ... ... : ... .. . ... ... ...
ROW 87 : B-2 00 8 ... ... ... : ... .. . ... ... ... : ... .. . ... ... ... : ... .. . ... ... ... : ... .. . ... ... ... : ... .. . ... ... ...
ROW 88 : ... .. . ... ... ... : ... .. . ... ... ... : ... .. . ... ... ... : ... .. . ... ... ... : ... .. . ... ... ... : ... .. . ... ... ...
ROW 89 : B-3 01 7 ... ... ... : ... .. . ... ... ... : ... .. . ... ... ... : ... .. . ... ... ... : ... .. . ... ... ... : ... .. . ... ... ...
ROW 8A : C#4 01 . ... ... ... : ... .. . ... ... ... : ... .. . ... ... ... : ... .. . ... ... ... : ... .. . ... ... ... : ... .. . ... ... ...
ROW 8B : C#3 01 8 ... ... ... : G#3 02 7 ... ... ... : --- .. . ... ... ... : ... .. . ... ... ... : ... .. . ... ... ... : ... .. . ... ... ...
ROW 8C : F#3 01 . ... ... ... : A#2 02 . ... ... ... : ... .. . ... ... ... : ... .. . ... ... ... : ... .. . ... ... ... : ... .. 1 ... ... ...
ROW 8D : F#4 02 7 ... ... ... : G#2 00 . ... ... ... : ... .. . ... ... ... : ... .. . ... ... ... : ... .. . ... ... ... : ... .. . ... ... ...
ROW 8E : B-3 02 8 ... ... ... : F#2 00 C ... ... ... : B-3 00 . ... ... ... : 9-# 01 A ... ... ... : D-1 05 . ... ... ... : C#4 04 5 I02 J49 ...
ROW 8F : B-2 02 9 ... ... ... : F#2 01 . ... ... ... : B-2 00 . ... ... ... : A-# 00 7 ... ... ... : ... .. . ... ... ... : ... .. . ... ... ...
ROW 90 : C#3 02 . ... ... ... : F#2 02 . ... ... ... : ... .. . ... ... ... : ... .. 6 ... ... ... : ... .. . ... ... ... : ... .. 4 ... ... ...
ROW 91 : C#4 02 8 ... ... ... : ... .. . ... ... ... : ... .. . ... ... ... : B-# 01 5 ... ... ... : ... .. . ... ... ... : ... .. . ... ... ...
ROW 92 : F#4 01 . ... ... ... : ... .. . ... ... ... : ... .. . ... ... ... : A-# 01 . ... ... ... : ... .. . ... ... ... : ... .. . ... ... ...
ROW 93 : B-2 01 9 ... ... ... : ... .. . ... ... ... : ... .. . ... ... ... : B-# 00 . ... ... ... : ... .. . ... ... ... : ... .. 3 ... ... ...
ROW 94 : ... .. . ... ... ... : ... .. . ... ... ... : ... .. . ... ... ... : ... .. . ... ... ... : ... .. . ... ... ... : ... .. . ... ... ...
ROW 95 : B-3 01 8 ... ... ... : ... .. . ... ... ... : ... .. . ... ... ... : ... .. . ... ... ... : ... .. . ... ... ... : ... .. . ... ... ...
ROW 96 : C#4 00 . ... ... ... : ... .. . ... ... ... : ... .. . ... ... ... : ... .. 4 ... ... ... : ... .. . ... ... ... : ... .. . ... ... ...
ROW 97 : C#3 00 9 ... ... ... : ... .. . ... ... ... : ... .. . ... ... ... : ... .. . ... ... ... : ... .. . ... ... ... : ... .. . ... ... ...
ROW 98 : F#3 00 . ... ... ... : A-3 02 7 ... ... ... : --- .. . ... ... ... : ... .. 3 ... ... ... : ... .. . ... ... ... : ... .. . ... ... ...
ROW 99 : F#4 00 8 ... ... ... : B-2 02 . ... ... ... : ... .. . ... ... ... : ... .. . ... ... ... : ... .. . ... ... ... : ... .. . ... ... ...
ROW 9A : B-3 00 . ... ... ... : A-2 00 . ... ... ... : ... .. . ... ... ... : ... .. . ... ... ... : ... .. . ... ... ... : ... .. 1 ... ... ...
ROW 9B : B-2 00 A ... ... ... : G#2 00 C ... ... ... : C#4 00 . ... ... ... : ... .. . ... ... ... : C#1 05 . ... ... ... : E-3 04 5 I02 J43 ...
ROW 9C : C#3 00 . ... ... ... : G#2 01 . ... ... ... : C#3 00 . ... ... ... : ... .. . ... ... ... : ... .. . ... ... ... : ... .. . ... ... ...
ROW 9D : C#4 01 9 ... ... ... : G#2 02 . ... ... ... : ... .. . ... ... ... : ... .. 2 ... ... ... : ... .. . ... ... ... : ... .. 4 ... ... ...
ROW 9E : F#4 01 . ... ... ... : ... .. . ... ... ... : ... .. . ... ... ... : ... .. . ... ... ... : ... .. . ... ... ... : ... .. . ... ... ...
ROW 9F : B-2 01 A ... ... ... : ... .. . ... ... ... : ... .. . ... ... ... : ... .. . ... ... ... : ... .. . ... ... ... : ... .. . ... ... ...
ROW A0 : ... .. . ... ... ... : ... .. . ... ... ... : ... .. . ... ... ... : ... .. . ... ... ... : ... .. . ... ... ... : ... .. 3 ... ... ...
ROW A1 : B-3 02 . ... ... ... : ... .. . ... ... ... : ... .. . ... ... ... : ... .. . ... ... ... : ... .. . ... ... ... : ... .. . ... ... ...
ROW A2 : C#4 02 . ... ... ... : ... .. . ... ... ... : ... .. . ... ... ... : ... .. . ... ... ... : ... .. . ... ... ... : ... .. . ... ... ...
ROW A3 : C#3 02 B ... ... ... : ... .. . ... ... ... : ... .. . ... ... ... : ... .. . ... ... ... : ... .. . ... ... ... : ... .. . ... ... ...
ROW A4 : F#3 02 . ... ... ... : ... .. . ... ... ... : ... .. . ... ... ... : ... .. . ... ... ... : ... .. . ... ... ... : ... .. . ... ... ...
ROW A5 : F#4 02 A ... ... ... : F#3 02 7 ... ... ... : --- .. . ... ... ... : ... .. . ... ... ... : ... .. . ... ... ... : ... .. . ... ... ...
ROW A6 : B-3 01 . ... ... ... : G#2 02 . ... ... ... : ... .. . ... ... ... : ... .. . ... ... ... : ... .. . ... ... ... : ... .. 1 ... ... ...
ROW A7 : B-2 01 B ... ... ... : F#2 00 . ... ... ... : ... .. . ... ... ... : ... .. . ... ... ... : ... .. . ... ... ... : ... .. . ... ... ...
ROW A8 : C#3 01 . ... ... ... : A-2 00 C ... ... ... : D-4 00 . ... ... ... : 9-# 01 A ... ... ... : C-1 05 . ... ... ... : A-1 04 . I02 J40 ...
ROW A9 : C#4 01 A ... ... ... : A-2 01 . ... ... ... : D-3 00 . ... ... ... : A-# 00 7 ... ... ... : ... .. . ... ... ... : ... .. 5 ... ... ...
ROW AA : F#4 00 . ... ... ... : A-2 02 . ... ... ... : ... .. . ... ... ... : ... .. 6 ... ... ... : ... .. . ... ... ... : ... .. . ... ... ...
ROW AB : B-2 00 B ... ... ... : ... .. . ... ... ... : ... .. . ... ... ... : B-# 01 5 ... ... ... : ... .. . ... ... ... : ... .. . ... ... ...
ROW AC : ... .. . ... ... ... : ... .. . ... ... ... : ... .. . ... ... ... : A-# 01 . ... ... ... : ... .. . ... ... ... : ... .. 4 ... ... ...
ROW AD : B-3 00 A ... ... ... : ... .. . ... ... ... : ... .. . ... ... ... : B-# 00 . ... ... ... : ... .. . ... ... ... : ... .. . ... ... ...
ROW AE : C#4 00 . ... ... ... : ... .. . ... ... ... : ... .. . ... ... ... : ... .. . ... ... ... : ... .. . ... ... ... : ... .. . ... ... ...
ROW AF : C#3 00 B ... ... ... : ... .. . ... ... ... : ... .. . ... ... ... : ... .. . ... ... ... : ... .. . ... ... ... : ... .. . ... ... ...
ROW B0 : F#3 00 . ... ... ... : ... .. . ... ... ... : ... .. . ... ... ... : ... .. 4 ... ... ... : ... .. . ... ... ... : ... .. . ... ... ...
ROW B1 : F#4 01 A ... ... ... : ... .. . ... ... ... : ... .. . ... ... ... : ... .. . ... ... ... : ... .. . ... ... ... : ... .. . ... ... ...
ROW B2 : B-3 01 . ... ... ... : G#3 02 7 ... ... ... : --- .. . ... ... ... : ... .. 3 ... ... ... : ... .. . ... ... ... : ... .. . ... ... ...
ROW B3 : B-2 01 B ... ... ... : A#2 02 . ... ... ... : ... .. . ... ... ... : ... .. . ... ... ... : ... .. . ... ... ... : ... .. 1 ... ... ...
ROW B4 : C#3 01 . ... ... ... : G#2 00 . ... ... ... : ... .. . ... ... ... : ... .. . ... ... ... : ... .. . ... ... ... : ... .. . ... ... ...
ROW B5 : C#4 02 A ... ... ... : F#2 00 C ... ... ... : B-3 00 . ... ... ... : ... .. . ... ... ... : C#1 05 . ... ... ... : ... .. 6 ... ... ...
ROW B6 : F#4 02 . ... ... ... : F#2 01 . ... ... ... : B-2 00 . ... ... ... : ... .. . ... ... ... : ... .. . ... ... ... : ... .. 5 ... ... ...
ROW B7 : B-2 02 B ... ... ... : F#2 02 . ... ... ... : ... .. . ... ... ... : ... .. 2 ... ... ... : ... .. . ... ... ... : ... .. . ... ... ...
ROW B8 : ... .. . ... ... ... : ... .. . ... ... ... : ... .. . ... ... ... : ... .. . ... ... ... : ... .. . ... ... ... : ... .. 4 ... ... ...
ROW B9 : B-3 02 A ... ... ... : ... .. . ... ... ... : ... .. . ... ... ... : ... .. . ... ... ... : ... .. . ... ... ... : ... .. . ... ... ...
ROW BA : C#4 01 . ... ... ... : ... .. . ... ... ... : ... .. . ... ... ... : ... .. . ... ... ... : ... .. . ... ... ... : ... .. . ... ... ...
ROW BB : C#3 01 . ... ... ... : ... .. . ... ... ... : ... .. . ... ... ... : ... .. . ... ... ... : ... .. . ... ... ... : ... .. . ... ... ...
ROW BC : F#3 01 . ... ... ... : ... .. . ... ... ... : ... .. . ... ... ... : ... .. . ... ... ... : ... .. . ... ... ... : ... .. . ... ... ...
ROW BD : F#4 01 9 ... ... ... : ... .. . ... ... ... : ... .. . ... ... ... : ... .. . ... ... ... : ... .. . ... ... ... : ... .. . ... ... ...
ROW BE : B-3 00 . ... ... ... : ... .. . ... ... ... : ... .. . ... ... ... : ... .. . ... ... ... : ... .. . ... ... ... : ... .. . ... ... ...
ROW BF : B-2 00 A ... ... ... : A-3 02 7 ... ... ... : --- .. . ... ... ... : ... .. . ... ... ... : ... .. . ... ... ... : ... .. . ... ... ...
ROW C0 : C#3 00 . ... ... ... : B-2 02 . ... ... ... : ... .. . ... ... ... : ... .. . ... ... ... : ... .. . ... ... ... : ... .. . ... ... ...
ROW C1 : C#4 00 9 ... ... ... : A-2 00 . ... ... ... : ... .. . ... ... ... : ... .. . ... ... ... : ... .. . ... ... ... : ... .. 1 ... ... ...
ROW C2 : F#4 00 . ... ... ... : G#2 00 C ... ... ... : C#4 00 . ... ... ... : 9-# 01 A ... ... ... : D-1 05 . ... ... ... : A-3 04 5 I02 J44 ...
ROW C3 : B-2 00 A ... ... ... : G#2 01 . ... ... ... : C#3 00 . ... ... ... : A-# 00 7 ... ... ... : ... .. . ... ... ... : ... .. . ... ... ...
ROW C4 : ... .. . ... ... ... : G#2 02 . ... ... ... : ... .. . ... ... ... : ... .. 6 ... ... ... : ... .. . ... ... ... : ... .. 4 ... ... ...
ROW C5 : B-3 01 9 ... ... ... : ... .. . ... ... ... : ... .. . ... ... ... : B-# 01 5 ... ... ... : ... .. . ... ... ... : ... .. . ... ... ...
ROW C6 : C#4 01 . ... ... ... : ... .. . ... ... ... : ... .. . ... ... ... : A-# 01 . ... ... ... : ... .. . ... ... ... : ... .. . ... ... ...
ROW C7 : C#3 01 A ... ... ... : ... .. . ... ... ... : ... .. . ... ... ... : B-# 00 . ... ... ... : ... .. . ... ... ... : ... .. 3 ... ... ...
ROW C8 : F#3 01 9 ... ... ... : ... .. . ... ... ... : ... .. . ... ... ... : ... .. . ... ... ... : ... .. . ... ... ... : ... .. . ... ... ...
ROW C9 : F#4 02 8 ... ... ... : ... .. . ... ... ... : ... .. . ... ... ... : ... .. . ... ... ... : ... .. . ... ... ... : ... .. . ... ... ...
ROW CA : B-3 02 . ... ... ... : ... .. . ... ... ... : ... .. . ... ... ... : ... .. 4 ... ... ... : ... .. . ... ... ... : ... .. . ... ... ...
ROW CB : B-2 02 9 ... ... ... : ... .. . ... ... ... : ... .. . ... ... ... : ... .. . ... ... ... : ... .. . ... ... ... : ... .. . ... ... ...
ROW CC : C#3 02 . ... ... ... : F#3 02 7 ... ... ... : --- .. . ... ... ... : ... .. 3 ... ... ... : ... .. . ... ... ... : ... .. . ... ... ...
ROW CD : C#4 02 8 ... ... ... : G#2 02 . ... ... ... : ... .. . ... ... ... : ... .. . ... ... ... : ... .. . ... ... ... : ... .. . ... ... ...
ROW CE : F#4 01 . ... ... ... : F#2 00 . ... ... ... : ... .. . ... ... ... : ... .. . ... ... ... : ... .. . ... ... ... : ... .. 1 ... ... ...
ROW CF : B-2 01 9 ... ... ... : A-2 00 C ... ... ... : D-4 00 . ... ... ... : ... .. . ... ... ... : C#1 05 . ... ... ... : E-3 04 5 I02 J43 ...
ROW D0 : ... .. . ... ... ... : A-2 01 . ... ... ... : D-3 00 . ... ... ... : ... .. . ... ... ... : ... .. . ... ... ... : ... .. . ... ... ...
ROW D1 : B-3 01 8 ... ... ... : A-2 02 . ... ... ... : ... .. . ... ... ... : ... .. 2 ... ... ... : ... .. . ... ... ... : ... .. 4 ... ... ...
ROW D2 : C#4 00 . ... ... ... : ... .. . ... ... ... : ... .. . ... ... ... : ... .. . ... ... ... : ... .. . ... ... ... : ... .. . ... ... ...
ROW D3 : C#3 00 9 ... ... ... : ... .. . ... ... ... : ... .. . ... ... ... : ... .. . ... ... ... : ... .. . ... ... ... : ... .. . ... ... ...
ROW D4 : F#3 00 . ... ... ... : ... .. . ... ... ... : ... .. . ... ... ... : ... .. . ... ... ... : ... .. . ... ... ... : ... .. 3 ... ... ...
ROW D5 : F#4 00 7 ... ... ... : ... .. . ... ... ... : ... .. . ... ... ... : ... .. . ... ... ... : ... .. . ... ... ... : ... .. . ... ... ...
ROW D6 : B-3 00 . ... ... ... : ... .. . ... ... ... : ... .. . ... ... ... : ... .. . ... ... ... : ... .. . ... ... ... : ... .. . ... ... ...
ROW D7 : B-2 00 8 ... ... ... : ... .. . ... ... ... : ... .. . ... ... ... : ... .. . ... ... ... : ... .. . ... ... ... : ... .. . ... ... ...
ROW D8 : C#3 00 . ... ... ... : ... .. . ... ... ... : ... .. . ... ... ... : ... .. . ... ... ... : ... .. . ... ... ... : ... .. . ... ... ...
ROW D9 : C#4 01 7 ... ... ... : G#3 02 7 ... ... ... : --- .. . ... ... ... : ... .. . ... ... ... : ... .. . ... ... ... : ... .. . ... ... ...
ROW DA : F#4 01 . ... ... ... : A#2 02 . ... ... ... : ... .. . ... ... ... : ... .. . ... ... ... : ... .. . ... ... ... : ... .. 1 ... ... ...
ROW DB : B-2 01 8 ... ... ... : G#2 00 . ... ... ... : ... .. . ... ... ... : ... .. . ... ... ... : ... .. . ... ... ... : ... .. . ... ... ...
ROW DC : ... .. . ... ... ... : A-2 00 8 ... ... ... : B-2 00 . ... ... ... : 9-# 01 A ... ... ... : C-1 05 . ... ... ... : A-2 04 6 I02 J44 ...
ROW DD : B-3 02 7 ... ... ... : A-2 01 . ... ... ... : B-1 00 . ... ... ... : A-# 00 7 ... ... ... : ... .. . ... ... ... : ... .. 5 ... ... ...
ROW DE : C#4 02 . ... ... ... : A-2 02 . ... ... ... : ... .. . ... ... ... : ... .. 6 ... ... ... : ... .. . ... ... ... : ... .. . ... ... ...
ROW DF : C#3 02 8 ... ... ... : ... .. . ... ... ... : ... .. . ... ... ... : B-# 01 5 ... ... ... : ... .. . ... ... ... : ... .. 4 ... ... ...
ROW E0 : F#3 02 . ... ... ... : ... .. . ... ... ... : ... .. . ... ... ... : A-# 01 . ... ... ... : ... .. . ... ... ... : ... .. . ... ... ...
ROW E1 : F#4 02 7 ... ... ... : ... .. . ... ... ... : ... .. . ... ... ... : B-# 00 . ... ... ... : ... .. . ... ... ... : ... .. . ... ... ...
ROW E2 : B-3 01 6 ... ... ... : ... .. . ... ... ... : ... .. . ... ... ... : ... .. . ... ... ... : C-1 05 . ... ... ... : ... .. . ... ... ...
ROW E3 : B-2 01 7 ... ... ... : ... .. . ... ... ... : ... .. . ... ... ... : ... .. . ... ... ... : ... .. . ... ... ... : ... .. . ... ... ...
ROW E4 : C#3 01 . ... ... ... : ... .. . ... ... ... : ... .. . ... ... ... : ... .. 4 ... ... ... : ... .. . ... ... ... : ... .. . ... ... ...
ROW E5 : C#4 01 6 ... ... ... : ... .. . ... ... ... : ... .. . ... ... ... : ... .. . ... ... ... : ... .. . ... ... ... : ... .. . ... ... ...
ROW E6 : F#4 00 . ... ... ... : A-3 02 4 ... ... ... : ... .. . ... ... ... : ... .. 3 ... ... ... : ... .. . ... ... ... : ... .. . ... ... ...
ROW E7 : B-2 00 7 ... ... ... : B-2 02 . ... ... ... : --- .. . ... ... ... : ... .. . ... ... ... : ... .. . ... ... ... : ... .. 1 ... ... ...
ROW E8 : ... .. . ... ... ... : A-2 00 . ... ... ... : ... .. . ... ... ... : ... .. . ... ... ... : ... .. . ... ... ... : ... .. . ... ... ...
ROW E9 : B-3 00 6 ... ... ... : ... .. 5 ... ... ... : B-2 00 . ... ... ... : ... .. . ... ... ... : C-1 05 . ... ... ... : ... .. 6 ... ... ...
ROW EA : C#4 00 . ... ... ... : A-2 01 . ... ... ... : B-1 00 . ... ... ... : ... .. . ... ... ... : ... .. . ... ... ... : ... .. 5 ... ... ...
ROW EB : C#3 00 7 ... ... ... : A-2 02 . ... ... ... : ... .. . ... ... ... : ... .. 2 ... ... ... : ... .. . ... ... ... : ... .. . ... ... ...
ROW EC : F#3 00 . ... ... ... : ... .. . ... ... ... : ... .. . ... ... ... : ... .. . ... ... ... : ... .. . ... ... ... : ... .. 4 ... ... ...
ROW ED : F#4 01 6 ... ... ... : ... .. . ... ... ... : ... .. . ... ... ... : ... .. . ... ... ... : ... .. . ... ... ... : ... .. . ... ... ...
ROW EE : B-3 01 . ... ... ... : ... .. . ... ... ... : ... .. . ... ... ... : ... .. . ... ... ... : ... .. . ... ... ... : ... .. . ... ... ...
ROW EF : B-2 01 . ... ... ... : ... .. . ... ... ... : ... .. . ... ... ... : ... .. . ... ... ... : ... .. . ... ... ... : ... .. . ... ... ...
ROW F0 : C#3 01 . ... ... ... : ... .. . ... ... ... : ... .. . ... ... ... : ... .. . ... ... ... : ... .. . ... ... ... : ... .. . ... ... ...
ROW F1 : C#4 02 5 ... ... ... : ... .. . ... ... ... : ... .. . ... ... ... : ... .. . ... ... ... : ... .. . ... ... ... : ... .. . ... ... ...
ROW F2 : F#4 02 . ... ... ... : ... .. . ... ... ... : ... .. . ... ... ... : ... .. . ... ... ... : ... .. . ... ... ... : ... .. . ... ... ...
ROW F3 : B-2 02 6 ... ... ... : A-3 02 3 ... ... ... : ... .. . ... ... ... : ... .. . ... ... ... : ... .. . ... ... ... : ... .. . ... ... ...
ROW F4 : ... .. . ... ... ... : B-2 02 . ... ... ... : --- .. . ... ... ... : ... .. . ... ... ... : ... .. . ... ... ... : ... .. 1 ... ... ...
ROW F5 : B-3 02 5 ... ... ... : A-2 00 . ... ... ... : ... .. . ... ... ... : ... .. . ... ... ... : ... .. . ... ... ... : ... .. . ... ... ...
ROW F6 : C#4 01 . ... ... ... : ... .. . ... ... ... : B-3 00 . ... ... ... : 9-# 01 A ... ... ... : D-1 05 . ... ... ... : C#4 04 5 I02 J49 ...
ROW F7 : C#3 01 6 ... ... ... : A-2 01 . ... ... ... : B-2 00 . ... ... ... : A-# 00 7 ... ... ... : ... .. . ... ... ... : ... .. . ... ... ...
ROW F8 : F#3 01 . ... ... ... : A-2 02 . ... ... ... : ... .. . ... ... ... : ... .. 6 ... ... ... : ... .. . ... ... ... : ... .. 4 ... ... ...
ROW F9 : F#4 01 5 ... ... ... : ... .. . ... ... ... : ... .. . ... ... ... : B-# 01 5 ... ... ... : ... .. . ... ... ... : ... .. . ... ... ...
ROW FA : B-3 00 . ... ... ... : ... .. . ... ... ... : ... .. . ... ... ... : A-# 01 . ... ... ... : ... .. . ... ... ... : ... .. . ... ... ...
ROW FB : B-2 00 6 ... ... ... : ... .. . ... ... ... : ... .. . ... ... ... : B-# 00 . ... ... ... : ... .. . ... ... ... : ... .. 3 ... ... ...
ROW FC : C#3 00 5 ... ... ... : ... .. . ... ... ... : ... .. . ... ... ... : ... .. . ... ... ... : ... .. . ... ... ... : ... .. . ... ... ...
ROW FD : C#4 00 4 ... ... ... : ... .. . ... ... ... : ... .. . ... ... ... : ... .. . ... ... ... : ... .. . ... ... ... : ... .. . ... ... ...
ROW FE : F#4 00 . ... ... ... : ... .. . ... ... ... : ... .. . ... ... ... : ... .. 4 ... ... ... : ... .. . ... ... ... : ... .. . ... ... ...
ROW FF : B-2 00 5 ... ... ... : ... .. . ... ... ... : ... .. . ... ... ... : ... .. . ... ... ... : ... .. . ... ... ... : ... .. . ... ... ...

PATTERN 04
ROW 00 : ... .. . ... ... ... : A-3 02 2 ... ... ... : ... .. . ... ... ... : ... .. 3 ... ... ... : ... .. . ... ... ... : ... .. . ... ... ...
ROW 01 : B-3 01 4 ... ... ... : B-2 02 . ... ... ... : --- .. . ... ... ... : ... .. . ... ... ... : ... .. . ... ... ... : ... .. . ... ... ...
ROW 02 : C#4 01 . ... ... ... : A-2 00 . ... ... ... : ... .. . ... ... ... : ... .. . ... ... ... : ... .. . ... ... ... : ... .. 1 ... ... ...
ROW 03 : C#3 01 5 ... ... ... : ... .. 3 ... ... ... : B-2 00 . ... ... ... : ... .. . ... ... ... : C#1 05 . ... ... ... : E-3 04 5 I02 J43 ...
ROW 04 : F#3 01 . ... ... ... : A-2 01 . ... ... ... : B-1 00 . ... ... ... : ... .. . ... ... ... : ... .. . ... ... ... : ... .. . ... ... ...
ROW 05 : F#4 02 4 ... ... ... : A-2 02 . ... ... ... : ... .. . ... ... ... : ... .. 2 ... ... ... : ... .. . ... ... ... : ... .. 4 ... ... ...
ROW 06 : B-3 02 . ... ... ... : ... .. . ... ... ... : ... .. . ... ... ... : ... .. . ... ... ... : ... .. . ... ... ... : ... .. . ... ... ...
ROW 07 : B-2 02 5 ... ... ... : ... .. . ... ... ... : ... .. . ... ... ... : ... .. . ... ... ... : ... .. . ... ... ... : ... .. . ... ... ...
ROW 08 : C#3 02 . ... ... ... : ... .. . ... ... ... : ... .. . ... ... ... : ... .. . ... ... ... : ... .. . ... ... ... : ... .. 3 ... ... ...
ROW 09 : C#4 02 4 ... ... ... : ... .. . ... ... ... : ... .. . ... ... ... : ... .. . ... ... ... : ... .. . ... ... ... : ... .. . ... ... ...
ROW 0A : F#4 01 . ... ... ... : ... .. . ... ... ... : ... .. . ... ... ... : ... .. . ... ... ... : ... .. . ... ... ... : ... .. . ... ... ...
ROW 0B : B-2 01 5 ... ... ... : ... .. . ... ... ... : ... .. . ... ... ... : ... .. . ... ... ... : ... .. . ... ... ... : ... .. . ... ... ...
ROW 0C : ... .. . ... ... ... : A-3 02 1 ... ... ... : ... .. . ... ... ... : ... .. . ... ... ... : ... .. . ... ... ... : ... .. . ... ... ...
ROW 0D : B-3 01 4 ... ... ... : B-2 02 . ... ... ... : ... .. . ... ... ... : ... .. . ... ... ... : ... .. . ... ... ... : ... .. . ... ... ...
ROW 0E : C#4 00 . ... ... ... : A-2 00 . ... ... ... : --- .. . ... ... ... : ... .. . ... ... ... : ... .. . ... ... ... : ... .. 1 ... ... ...
ROW 0F : C#3 00 5 ... ... ... : A-2 01 . ... ... ... : ... .. . ... ... ... : ... .. . ... ... ... : ... .. . ... ... ... : ... .. . ... ... ...
ROW 10 : D-3 02 4 ... ... ... : F#2 00 C ... ... ... : B-3 00 . ... ... ... : 9-# 01 A ... ... ... : C-1 05 . ... ... ... : A-1 04 . I02 J40 ...
ROW 11 : D-4 02 3 ... ... ... : F#2 01 . ... ... ... : B-2 00 . ... ... ... : A-# 00 7 ... ... ... : ... .. . ... ... ... : ... .. 5 ... ... ...
ROW 12 : E-4 01 . ... ... ... : F#2 02 . ... ... ... : ... .. . ... ... ... : ... .. 6 ... ... ... : ... .. . ... ... ... : ... .. . ... ... ...
ROW 13 : E-3 01 4 ... ... ... : ... .. . ... ... ... : ... .. . ... ... ... : B-# 01 5 ... ... ... : ... .. . ... ... ... : ... .. . ... ... ...
ROW 14 : A-3 01 . ... ... ... : ... .. . ... ... ... : ... .. . ... ... ... : A-# 01 . ... ... ... : ... .. . ... ... ... : ... .. 4 ... ... ...
ROW 15 : A-4 01 3 ... ... ... : ... .. . ... ... ... : ... .. . ... ... ... : B-# 00 . ... ... ... : ... .. . ... ... ... : ... .. . ... ... ...
ROW 16 : D-4 00 . ... ... ... : ... .. . ... ... ... : ... .. . ... ... ... : ... .. . ... ... ... : ... .. . ... ... ... : ... .. . ... ... ...
ROW 17 : D-3 00 4 ... ... ... : ... .. . ... ... ... : ... .. . ... ... ... : ... .. . ... ... ... : ... .. . ... ... ... : ... .. . ... ... ...
ROW 18 : E-3 00 . ... ... ... : ... .. . ... ... ... : ... .. . ... ... ... : ... .. 4 ... ... ... : ... .. . ... ... ... : ... .. . ... ... ...
ROW 19 : E-4 00 3 ... ... ... : ... .. . ... ... ... : ... .. . ... ... ... : ... .. . ... ... ... : ... .. . ... ... ... : ... .. . ... ... ...
ROW 1A : A-4 00 . ... ... ... : F#3 02 7 ... ... ... : --- .. . ... ... ... : ... .. 3 ... ... ... : ... .. . ... ... ... : ... .. . ... ... ...
ROW 1B : D-3 00 4 ... ... ... : G#2 02 . ... ... ... : ... .. . ... ... ... : ... .. . ... ... ... : ... .. . ... ... ... : ... .. 1 ... ... ...
ROW 1C : ... .. . ... ... ... : F#2 00 . ... ... ... : ... .. . ... ... ... : ... .. . ... ... ... : ... .. . ... ... ... : ... .. . ... ... ...
ROW 1D : D-4 01 3 ... ... ... : G#2 00 C ... ... ... : C#4 00 . ... ... ... : ... .. . ... ... ... : C#1 05 . ... ... ... : ... .. . ... ... ...
ROW 1E : E-4 01 . ... ... ... : G#2 01 . ... ... ... : C#3 00 . ... ... ... : ... .. . ... ... ... : ... .. . ... ... ... : ... .. 5 ... ... ...
ROW 1F : E-3 01 4 ... ... ... : G#2 02 . ... ... ... : ... .. . ... ... ... : ... .. 2 ... ... ... : ... .. . ... ... ... : ... .. . ... ... ...
ROW 20 : A-3 01 . ... ... ... : ... .. . ... ... ... : ... .. . ... ... ... : ... .. . ... ... ... : ... .. . ... ... ... : ... .. 4 ... ... ...
ROW 21 : A-4 02 3 ... ... ... : ... .. . ... ... ... : ... .. . ... ... ... : ... .. . ... ... ... : ... .. . ... ... ... : ... .. . ... ... ...
ROW 22 : D-4 02 . ... ... ... : ... .. . ... ... ... : ... .. . ... ... ... : ... .. . ... ... ... : ... .. . ... ... ... : ... .. . ... ... ...
ROW 23 : D-3 02 4 ... ... ... : ... .. . ... ... ... : ... .. . ... ... ... : ... .. . ... ... ... : ... .. . ... ... ... : ... .. . ... ... ...
ROW 24 : E-3 02 . ... ... ... : ... .. . ... ... ... : ... .. . ... ... ... : ... .. . ... ... ... : ... .. . ... ... ... : ... .. . ... ... ...
ROW 25 : E-4 02 3 ... ... ... : ... .. . ... ... ... : ... .. . ... ... ... : ... .. . ... ... ... : ... .. . ... ... ... : ... .. . ... ... ...
ROW 26 : A-4 01 . ... ... ... : ... .. . ... ... ... : ... .. . ... ... ... : ... .. . ... ... ... : ... .. . ... ... ... : ... .. . ... ... ...
ROW 27 : D-3 01 4 ... ... ... : F#3 02 7 ... ... ... : --- .. . ... ... ... : ... .. . ... ... ... : ... .. . ... ... ... : ... .. . ... ... ...
ROW 28 : ... .. . ... ... ... : G#2 02 . ... ... ... : ... .. . ... ... ... : ... .. . ... ... ... : ... .. . ... ... ... : ... .. . ... ... ...
ROW 29 : D-4 01 3 ... ... ... : F#2 00 . ... ... ... : ... .. . ... ... ... : ... .. . ... ... ... : ... .. . ... ... ... : ... .. 1 ... ... ...
ROW 2A : E-4 00 4 ... ... ... : A-2 00 C ... ... ... : D-4 00 . ... ... ... : 9-# 01 A ... ... ... : D-1 05 . ... ... ... : A-3 04 5 I02 J44 ...
ROW 2B : E-3 00 5 ... ... ... : A-2 01 . ... ... ... : D-3 00 . ... ... ... : A-# 00 7 ... ... ... : ... .. . ... ... ... : ... .. . ... ... ...
ROW 2C : A-3 00 . ... ... ... : A-2 02 . ... ... ... : ... .. . ... ... ... : ... .. 6 ... ... ... : ... .. . ... ... ... : ... .. 4 ... ... ...
ROW 2D : A-4 00 4 ... ... ... : ... .. . ... ... ... : ... .. . ... ... ... : B-# 01 5 ... ... ... : ... .. . ... ... ... : ... .. . ... ... ...
ROW 2E : D-4 00 . ... ... ... : ... .. . ... ... ... : ... .. . ... ... ... : A-# 01 . ... ... ... : ... .. . ... ... ... : ... .. . ... ... ...
ROW 2F : D-3 00 5 ... ... ... : ... .. . ... ... ... : ... .. . ... ... ... : B-# 00 . ... ... ... : ... .. . ... ... ... : ... .. 3 ... ... ...
ROW 30 : E-3 00 . ... ... ... : ... .. . ... ... ... : ... .. . ... ... ... : ... .. . ... ... ... : ... .. . ... ... ... : ... .. . ... ... ...
ROW 31 : E-4 01 4 ... ... ... : ... .. . ... ... ... : ... .. . ... ... ... : ... .. . ... ... ... : ... .. . ... ... ... : ... .. . ... ... ...
ROW 32 : A-4 01 . ... ... ... : ... .. . ... ... ... : ... .. . ... ... ... : ... .. 4 ... ... ... : ... .. . ... ... ... : ... .. . ... ... ...
ROW 33 : D-3 01 5 ... ... ... : ... .. . ... ... ... : ... .. . ... ... ... : ... .. . ... ... ... : ... .. . ... ... ... : ... .. . ... ... ...
ROW 34 : ... .. . ... ... ... : G#3 02 7 ... ... ... : --- .. . ... ... ... : ... .. 3 ... ... ... : ... .. . ... ... ... : ... .. . ... ... ...
ROW 35 : D-4 02 4 ... ... ... : A#2 02 . ... ... ... : ... .. . ... ... ... : ... .. . ... ... ... : ... .. . ... ... ... : ... .. . ... ... ...
ROW 36 : E-4 02 . ... ... ... : G#2 00 . ... ... ... : ... .. . ... ... ... : ... .. . ... ... ... : ... .. . ... ... ... : ... .. 1 ... ... ...
ROW 37 : E-3 02 6 ... ... ... : F#2 00 C ... ... ... : B-3 00 . ... ... ... : ... .. . ... ... ... : C#1 05 . ... ... ... : E-3 04 5 I02 J43 ...
ROW 38 : A-3 02 . ... ... ... : F#2 01 . ... ... ... : B-2 00 . ... ... ... : ... .. . ... ... ... : ... .. . ... ... ... : ... .. . ... ... ...
ROW 39 : A-4 02 5 ... ... ... : F#2 02 . ... ... ... : ... .. . ... ... ... : ... .. 2 ... ... ... : ... .. . ... ... ... : ... .. 4 ... ... ...
ROW 3A : D-4 01 . ... ... ... : ... .. . ... ... ... : ... .. . ... ... ... : ... .. . ... ... ... : ... .. . ... ... ... : ... .. . ... ... ...
ROW 3B : D-3 01 6 ... ... ... : ... .. . ... ... ... : ... .. . ... ... ... : ... .. . ... ... ... : ... .. . ... ... ... : ... .. . ... ... ...
ROW 3C : E-3 01 . ... ... ... : ... .. . ... ... ... : ... .. . ... ... ... : ... .. . ... ... ... : ... .. . ... ... ... : ... .. 3 ... ... ...
ROW 3D : E-4 01 5 ... ... ... : ... .. . ... ... ... : ... .. . ... ... ... : ... .. . ... ... ... : ... .. . ... ... ... : ... .. . ... ... ...
ROW 3E : A-4 00 . ... ... ... : ... .. . ... ... ... : ... .. . ... ... ... : ... .. . ... ... ... : ... .. . ... ... ... : ... .. . ... ... ...
ROW 3F : D-3 00 6 ... ... ... : ... .. . ... ... ... : ... .. . ... ... ... : ... .. . ... ... ... : ... .. . ... ... ... : ... .. . ... ... ...
ROW 40 : ... .. . ... ... ... : ... .. . ... ... ... : ... .. . ... ... ... : ... .. . ... ... ... : ... .. . ... ... ... : ... .. . ... ... ...
ROW 41 : D-4 00 5 ... ... ... : A-3 02 7 ... ... ... : --- .. . ... ... ... : ... .. . ... ... ... : ... .. . ... ... ... : ... .. . ... ... ...
ROW 42 : E-4 00 . ... ... ... : B-2 02 . ... ... ... : ... .. . ... ... ... : ... .. . ... ... ... : ... .. . ... ... ... : ... .. 1 ... ... ...
ROW 43 : E-3 00 6 ... ... ... : A-2 00 . ... ... ... : ... .. . ... ... ... : ... .. . ... ... ... : ... .. . ... ... ... : ... .. . ... ... ...
ROW 44 : A-3 00 7 ... ... ... : G#2 00 C ... ... ... : C#4 00 . ... ... ... : 9-# 01 A ... ... ... : C-1 05 . ... ... ... : A-2 04 6 I02 J44 ...
ROW 45 : A-4 01 6 ... ... ... : G#2 01 . ... ... ... : C#3 00 . ... ... ... : A-# 00 7 ... ... ... : ... .. . ... ... ... : ... .. 5 ... ... ...
ROW 46 : D-4 01 . ... ... ... : G#2 02 . ... ... ... : ... .. . ... ... ... : ... .. 6 ... ... ... : ... .. . ... ... ... : ... .. . ... ... ...
ROW 47 : D-3 01 7 ... ... ... : ... .. . ... ... ... : ... .. . ... ... ... : B-# 01 5 ... ... ... : ... .. . ... ... ... : ... .. 4 ... ... ...
ROW 48 : E-3 01 . ... ... ... : ... .. . ... ... ... : ... .. . ... ... ... : A-# 01 . ... ... ... : ... .. . ... ... ... : ... .. . ... ... ...
ROW 49 : E-4 02 6 ... ... ... : ... .. . ... ... ... : ... .. . ... ... ... : B-# 00 . ... ... ... : ... .. . ... ... ... : ... .. . ... ... ...
ROW 4A : A-4 02 . ... ... ... : ... .. . ... ... ... : ... .. . ... ... ... : ... .. . ... ... ... : ... .. . ... ... ... : ... .. . ... ... ...
ROW 4B : D-3 02 7 ... ... ... : ... .. . ... ... ... : ... .. . ... ... ... : ... .. . ... ... ... : ... .. . ... ... ... : ... .. . ... ... ...
ROW 4C : ... .. . ... ... ... : ... .. . ... ... ... : ... .. . ... ... ... : ... .. 4 ... ... ... : ... .. . ... ... ... : ... .. . ... ... ...
ROW 4D : D-4 02 6 ... ... ... : ... .. . ... ... ... : ... .. . ... ... ... : ... .. . ... ... ... : ... .. . ... ... ... : ... .. . ... ... ...
ROW 4E : E-4 01 . ... ... ... : F#3 02 7 ... ... ... : --- .. . ... ... ... : ... .. 3 ... ... ... : ... .. . ... ... ... : ... .. . ... ... ...
ROW 4F : E-3 01 7 ... ... ... : G#2 02 . ... ... ... : ... .. . ... ... ... : ... .. . ... ... ... : ... .. . ... ... ... : ... .. 1 ... ... ...
ROW 50 : A-3 01 . ... ... ... : F#2 00 . ... ... ... : ... .. . ... ... ... : ... .. . ... ... ... : ... .. . ... ... ... : ... .. . ... ... ...
ROW 51 : A-4 01 . ... ... ... : A-2 00 C ... ... ... : D-4 00 . ... ... ... : ... .. . ... ... ... : C#1 05 . ... ... ... : ... .. 6 ... ... ...
ROW 52 : D-4 00 . ... ... ... : A-2 01 . ... ... ... : D-3 00 . ... ... ... : ... .. . ... ... ... : ... .. . ... ... ... : ... .. 5 ... ... ...
ROW 53 : D-3 00 8 ... ... ... : A-2 02 . ... ... ... : ... .. . ... ... ... : ... .. 2 ... ... ... : ... .. . ... ... ... : ... .. . ... ... ...
ROW 54 : E-3 00 . ... ... ... : ... .. . ... ... ... : ... .. . ... ... ... : ... .. . ... ... ... : ... .. . ... ... ... : ... .. 4 ... ... ...
ROW 55 : E-4 00 7 ... ... ... : ... .. . ... ... ... : ... .. . ... ... ... : ... .. . ... ... ... : ... .. . ... ... ... : ... .. . ... ... ...
ROW 56 : A-4 00 . ... ... ... : ... .. . ... ... ... : ... .. . ... ... ... : ... .. . ... ... ... : ... .. . ... ... ... : ... .. . ... ... ...
ROW 57 : D-3 00 8 ... ... ... : ... .. . ... ... ... : ... .. . ... ... ... : ... .. . ... ... ... : ... .. . ... ... ... : ... .. . ... ... ...
ROW 58 : ... .. . ... ... ... : ... .. . ... ... ... : ... .. . ... ... ... : ... .. . ... ... ... : ... .. . ... ... ... : ... .. . ... ... ...
ROW 59 : D-4 01 7 ... ... ... : ... .. . ... ... ... : ... .. . ... ... ... : ... .. . ... ... ... : ... .. . ... ... ... : ... .. . ... ... ...
ROW 5A : E-4 01 . ... ... ... : ... .. . ... ... ... : ... .. . ... ... ... : ... .. . ... ... ... : ... .. . ... ... ... : ... .. . ... ... ...
ROW 5B : E-3 01 8 ... ... ... : G#3 02 7 ... ... ... : --- .. . ... ... ... : ... .. . ... ... ... : ... .. . ... ... ... : ... .. . ... ... ...
ROW 5C : A-3 01 . ... ... ... : A#2 02 . ... ... ... : ... .. . ... ... ... : ... .. . ... ... ... : ... .. . ... ... ... : ... .. 1 ... ... ...
ROW 5D : A-4 02 7 ... ... ... : G#2 00 . ... ... ... : ... .. . ... ... ... : ... .. . ... ... ... : ... .. . ... ... ... : ... .. . ... ... ...
ROW 5E : D-4 02 8 ... ... ... : F#2 00 C ... ... ... : B-3 00 . ... ... ... : 9-# 01 A ... ... ... : D-1 05 . ... ... ... : C#4 04 5 I02 J49 ...
ROW 5F : D-3 02 9 ... ... ... : F#2 01 . ... ... ... : B-2 00 . ... ... ... : A-# 00 7 ... ... ... : ... .. . ... ... ... : ... .. . ... ... ...
ROW 60 : E-3 02 . ... ... ... : F#2 02 . ... ... ... : ... .. . ... ... ... : ... .. 6 ... ... ... : ... .. . ... ... ... : ... .. 4 ... ... ...
ROW 61 : E-4 02 8 ... ... ... : ... .. . ... ... ... : ... .. . ... ... ... : B-# 01 5 ... ... ... : ... .. . ... ... ... : ... .. . ... ... ...
ROW 62 : A-4 01 . ... ... ... : ... .. . ... ... ... : ... .. . ... ... ... : A-# 01 . ... ... ... : ... .. . ... ... ... : ... .. . ... ... ...
ROW 63 : D-3 01 9 ... ... ... : ... .. . ... ... ... : ... .. . ... ... ... : B-# 00 . ... ... ... : ... .. . ... ... ... : ... .. 3 ... ... ...
ROW 64 : ... .. . ... ... ... : ... .. . ... ... ... : ... .. . ... ... ... : ... .. . ... ... ... : ... .. . ... ... ... : ... .. . ... ... ...
ROW 65 : D-4 01 8 ... ... ... : ... .. . ... ... ... : ... .. . ... ... ... : ... .. . ... ... ... : ... .. . ... ... ... : ... .. . ... ... ...
ROW 66 : E-4 00 . ... ... ... : ... .. . ... ... ... : ... .. . ... ... ... : ... .. 4 ... ... ... : ... .. . ... ... ... : ... .. . ... ... ...
ROW 67 : E-3 00 9 ... ... ... : ... .. . ... ... ... : ... .. . ... ... ... : ... .. . ... ... ... : ... .. . ... ... ... : ... .. . ... ... ...
ROW 68 : A-3 00 . ... ... ... : A-3 02 7 ... ... ... : --- .. . ... ... ... : ... .. 3 ... ... ... : ... .. . ... ... ... : ... .. . ... ... ...
ROW 69 : A-4 00 8 ... ... ... : B-2 02 . ... ... ... : ... .. . ... ... ... : ... .. . ... ... ... : ... .. . ... ... ... : ... .. . ... ... ...
ROW 6A : D-4 00 . ... ... ... : A-2 00 . ... ... ... : ... .. . ... ... ... : ... .. . ... ... ... : ... .. . ... ... ... : ... .. 1 ... ... ...
ROW 6B : D-3 00 A ... ... ... : G#2 00 C ... ... ... : C#4 00 . ... ... ... : ... .. . ... ... ... : C#1 05 . ... ... ... : E-3 04 5 I02 J43 ...
ROW 6C : E-3 00 . ... ... ... : G#2 01 . ... ... ... : C#3 00 . ... ... ... : ... .. . ... ... ... : ... .. . ... ... ... : ... .. . ... ... ...
ROW 6D : E-4 01 9 ... ... ... : G#2 02 . ... ... ... : ... .. . ... ... ... : ... .. 2 ... ... ... : ... .. . ... ... ... : ... .. 4 ... ... ...
ROW 6E : A-4 01 . ... ... ... : ... .. . ... ... ... : ... .. . ... ... ... : ... .. . ... ... ... : ... .. . ... ... ... : ... .. . ... ... ...
ROW 6F : D-3 01 A ... ... ... : ... .. . ... ... ... : ... .. . ... ... ... : ... .. . ... ... ... : ... .. . ... ... ... : ... .. . ... ... ...
ROW 70 : ... .. . ... ... ... : ... .. . ... ... ... : ... .. . ... ... ... : ... .. . ... ... ... : ... .. . ... ... ... : ... .. 3 ... ... ...
ROW 71 : D-4 02 . ... ... ... : ... .. . ... ... ... : ... .. . ... ... ... : ... .. . ... ... ... : ... .. . ... ... ... : ... .. . ... ... ...
ROW 72 : E-4 02 . ... ... ... : ... .. . ... ... ... : ... .. . ... ... ... : ... .. . ... ... ... : ... .. . ... ... ... : ... .. . ... ... ...
ROW 73 : E-3 02 B ... ... ... : ... .. . ... ... ... : ... .. . ... ... ... : ... .. . ... ... ... : ... .. . ... ... ... : ... .. . ... ... ...
ROW 74 : A-3 02 . ... ... ... : ... .. . ... ... ... : ... .. . ... ... ... : ... .. . ... ... ... : ... .. . ... ... ... : ... .. . ... ... ...
ROW 75 : A-4 02 A ... ... ... : F#3 02 7 ... ... ... : --- .. . ... ... ... : ... .. . ... ... ... : ... .. . ... ... ... : ... .. . ... ... ...
ROW 76 : D-4 01 . ... ... ... : G#2 02 . ... ... ... : ... .. . ... ... ... : ... .. . ... ... ... : ... .. . ... ... ... : ... .. 1 ... ... ...
ROW 77 : D-3 01 B ... ... ... : F#2 00 . ... ... ... : ... .. . ... ... ... : ... .. . ... ... ... : ... .. . ... ... ... : ... .. . ... ... ...
ROW 78 : E-3 01 . ... ... ... : A-2 00 C ... ... ... : D-4 00 . ... ... ... : 9-# 01 A ... ... ... : C-1 05 . ... ... ... : A-1 04 . I02 J40 ...
ROW 79 : E-4 01 A ... ... ... : A-2 01 . ... ... ... : D-3 00 . ... ... ... : A-# 00 7 ... ... ... : ... .. . ... ... ... : ... .. 6 ... ... ...
ROW 7A : A-4 00 . ... ... ... : A-2 02 . ... ... ... : ... .. . ... ... ... : ... .. 6 ... ... ... : ... .. . ... ... ... : ... .. 5 ... ... ...
ROW 7B : D-3 00 B ... ... ... : ... .. . ... ... ... : ... .. . ... ... ... : B-# 01 5 ... ... ... : ... .. . ... ... ... : ... .. . ... ... ...
ROW 7C : ... .. . ... ... ... : ... .. . ... ... ... : ... .. . ... ... ... : A-# 01 . ... ... ... : ... .. . ... ... ... : ... .. 4 ... ... ...
ROW 7D : D-4 00 A ... ... ... : ... .. . ... ... ... : ... .. . ... ... ... : B-# 00 . ... ... ... : ... .. . ... ... ... : ... .. . ... ... ...
ROW 7E : E-4 00 . ... ... ... : ... .. . ... ... ... : ... .. . ... ... ... : ... .. . ... ... ... : ... .. . ... ... ... : ... .. . ... ... ...
ROW 7F : E-3 00 B ... ... ... : ... .. . ... ... ... : ... .. . ... ... ... : ... .. . ... ... ... : ... .. . ... ... ... : ... .. . ... ... ...
ROW 80 : A-3 00 . ... ... ... : ... .. . ... ... ... : ... .. . ... ... ... : ... .. 4 ... ... ... : ... .. . ... ... ... : ... .. . ... ... ...
ROW 81 : A-4 01 A ... ... ... : ... .. . ... ... ... : ... .. . ... ... ... : ... .. . ... ... ... : ... .. . ... ... ... : ... .. . ... ... ...
ROW 82 : D-4 01 . ... ... ... : G#3 02 7 ... ... ... : --- .. . ... ... ... : ... .. 3 ... ... ... : ... .. . ... ... ... : ... .. . ... ... ...
ROW 83 : D-3 01 B ... ... ... : A#2 02 . ... ... ... : ... .. . ... ... ... : ... .. . ... ... ... : ... .. . ... ... ... : ... .. 1 ... ... ...
ROW 84 : E-3 01 . ... ... ... : G#2 00 . ... ... ... : ... .. . ... ... ... : ... .. . ... ... ... : ... .. . ... ... ... : ... .. . ... ... ...
ROW 85 : E-4 02 A ... ... ... : F#2 00 C ... ... ... : B-3 00 . ... ... ... : ... .. . ... ... ... : C#1 05 . ... ... ... : ... .. . ... ... ...
ROW 86 : A-4 02 . ... ... ... : F#2 01 . ... ... ... : B-2 00 . ... ... ... : ... .. . ... ... ... : ... .. . ... ... ... : ... .. 5 ... ... ...
ROW 87 : D-3 02 B ... ... ... : F#2 02 . ... ... ... : ... .. . ... ... ... : ... .. 2 ... ... ... : ... .. . ... ... ... : ... .. . ... ... ...
ROW 88 : ... .. . ... ... ... : ... .. . ... ... ... : ... .. . ... ... ... : ... .. . ... ... ... : ... .. . ... ... ... : ... .. . ... ... ...
ROW 89 : D-4 02 A ... ... ... : ... .. . ... ... ... : ... .. . ... ... ... : ... .. . ... ... ... : ... .. . ... ... ... : ... .. 4 ... ... ...
ROW 8A : E-4 01 . ... ... ... : ... .. . ... ... ... : ... .. . ... ... ... : ... .. . ... ... ... : ... .. . ... ... ... : ... .. . ... ... ...
ROW 8B : E-3 01 . ... ... ... : ... .. . ... ... ... : ... .. . ... ... ... : ... .. . ... ... ... : ... .. . ... ... ... : ... .. . ... ... ...
ROW 8C : A-3 01 . ... ... ... : ... .. . ... ... ... : ... .. . ... ... ... : ... .. . ... ... ... : ... .. . ... ... ... : ... .. . ... ... ...
ROW 8D : A-4 01 9 ... ... ... : ... .. . ... ... ... : ... .. . ... ... ... : ... .. . ... ... ... : ... .. . ... ... ... : ... .. . ... ... ...
ROW 8E : D-4 00 . ... ... ... : ... .. . ... ... ... : ... .. . ... ... ... : ... .. . ... ... ... : ... .. . ... ... ... : ... .. . ... ... ...
ROW 8F : D-3 00 A ... ... ... : A-3 02 7 ... ... ... : --- .. . ... ... ... : ... .. . ... ... ... : ... .. . ... ... ... : ... .. . ... ... ...
ROW 90 : E-3 00 . ... ... ... : B-2 02 . ... ... ... : ... .. . ... ... ... : ... .. . ... ... ... : ... .. . ... ... ... : ... .. 1 ... ... ...
ROW 91 : E-4 00 9 ... ... ... : A-2 00 . ... ... ... : ... .. . ... ... ... : ... .. . ... ... ... : ... .. . ... ... ... : ... .. . ... ... ...
ROW 92 : A-4 00 . ... ... ... : G#2 00 C ... ... ... : C#4 00 . ... ... ... : 9-# 01 A ... ... ... : D-1 05 . ... ... ... : A-3 04 5 I02 J44 ...
ROW 93 : D-3 00 A ... ... ... : G#2 01 . ... ... ... : C#3 00 . ... ... ... : A-# 00 7 ... ... ... : ... .. . ... ... ... : ... .. . ... ... ...
ROW 94 : ... .. . ... ... ... : G#2 02 . ... ... ... : ... .. . ... ... ... : ... .. 6 ... ... ... : ... .. . ... ... ... : ... .. 4 ... ... ...
ROW 95 : D-4 01 9 ... ... ... : ... .. . ... ... ... : ... .. . ... ... ... : B-# 01 5 ... ... ... : ... .. . ... ... ... : ... .. . ... ... ...
ROW 96 : E-4 01 . ... ... ... : ... .. . ... ... ... : ... .. . ... ... ... : A-# 01 . ... ... ... : ... .. . ... ... ... : ... .. . ... ... ...
ROW 97 : E-3 01 A ... ... ... : ... .. . ... ... ... : ... .. . ... ... ... : B-# 00 . ... ... ... : ... .. . ... ... ... : ... .. 3 ... ... ...
ROW 98 : A-3 01 9 ... ... ... : ... .. . ... ... ... : ... .. . ... ... ... : ... .. . ... ... ... : ... .. . ... ... ... : ... .. . ... ... ...
ROW 99 : A-4 02 8 ... ... ... : ... .. . ... ... ... : ... .. . ... ... ... : ... .. . ... ... ... : ... .. . ... ... ... : ... .. . ... ... ...
ROW 9A : D-4 02 . ... ... ... : ... .. . ... ... ... : ... .. . ... ... ... : ... .. 4 ... ... ... : ... .. . ... ... ... : ... .. . ... ... ...
ROW 9B : D-3 02 9 ... ... ... : ... .. . ... ... ... : ... .. . ... ... ... : ... .. . ... ... ... : ... .. . ... ... ... : ... .. . ... ... ...
ROW 9C : E-3 02 . ... ... ... : F#3 02 7 ... ... ... : --- .. . ... ... ... : ... .. 3 ... ... ... : ... .. . ... ... ... : ... .. . ... ... ...
ROW 9D : E-4 02 8 ... ... ... : G#2 02 . ... ... ... : ... .. . ... ... ... : ... .. . ... ... ... : ... .. . ... ... ... : ... .. . ... ... ...
ROW 9E : A-4 01 . ... ... ... : F#2 00 . ... ... ... : ... .. . ... ... ... : ... .. . ... ... ... : ... .. . ... ... ... : ... .. 1 ... ... ...
ROW 9F : D-3 01 9 ... ... ... : A-2 00 C ... ... ... : D-4 00 . ... ... ... : ... .. . ... ... ... : C#1 05 . ... ... ... : E-3 04 5 I02 J43 ...
ROW A0 : ... .. . ... ... ... : A-2 01 . ... ... ... : D-3 00 . ... ... ... : ... .. . ... ... ... : ... .. . ... ... ... : ... .. . ... ... ...
ROW A1 : D-4 01 8 ... ... ... : A-2 02 . ... ... ... : ... .. . ... ... ... : ... .. 2 ... ... ... : ... .. . ... ... ... : ... .. 4 ... ... ...
ROW A2 : E-4 00 . ... ... ... : ... .. . ... ... ... : ... .. . ... ... ... : ... .. . ... ... ... : ... .. . ... ... ... : ... .. . ... ... ...
ROW A3 : E-3 00 9 ... ... ... : ... .. . ... ... ... : ... .. . ... ... ... : ... .. . ... ... ... : ... .. . ... ... ... : ... .. . ... ... ...
ROW A4 : A-3 00 . ... ... ... : ... .. . ... ... ... : ... .. . ... ... ... : ... .. . ... ... ... : ... .. . ... ... ... : ... .. 3 ... ... ...
ROW A5 : A-4 00 7 ... ... ... : ... .. . ... ... ... : ... .. . ... ... ... : ... .. . ... ... ... : ... .. . ... ... ... : ... .. . ... ... ...
ROW A6 : D-4 00 . ... ... ... : ... .. . ... ... ... : ... .. . ... ... ... : ... .. . ... ... ... : ... .. . ... ... ... : ... .. . ... ... ...
ROW A7 : D-3 00 8 ... ... ... : ... .. . ... ... ... : ... .. . ... ... ... : ... .. . ... ... ... : ... .. . ... ... ... : ... .. . ... ... ...
ROW A8 : E-3 00 . ... ... ... : ... .. . ... ... ... : ... .. . ... ... ... : ... .. . ... ... ... : ... .. . ... ... ... : ... .. . ... ... ...
ROW A9 : E-4 01 7 ... ... ... : G#3 02 7 ... ... ... : --- .. . ... ... ... : ... .. . ... ... ... : ... .. . ... ... ... : ... .. . ... ... ...
ROW AA : A-4 01 . ... ... ... : A#2 02 . ... ... ... : ... .. . ... ... ... : ... .. . ... ... ... : ... .. . ... ... ... : ... .. 1 ... ... ...
ROW AB : D-3 01 8 ... ... ... : G#2 00 . ... ... ... : ... .. . ... ... ... : ... .. . ... ... ... : ... .. . ... ... ... : ... .. . ... ... ...
ROW AC : ... .. . ... ... ... : A-2 00 8 ... ... ... : B-2 00 . ... ... ... : 9-# 01 A ... ... ... : C-1 05 . ... ... ... : A-2 04 6 I02 J44 ...
ROW AD : D-4 02 7 ... ... ... : A-2 01 . ... ... ... : B-1 00 . ... ... ... : A-# 00 7 ... ... ... : ... .. . ... ... ... : ... .. 5 ... ... ...
ROW AE : E-4 02 . ... ... ... : A-2 02 . ... ... ... : ... .. . ... ... ... : ... .. 6 ... ... ... : ... .. . ... ... ... : ... .. . ... ... ...
ROW AF : E-3 02 8 ... ... ... : ... .. . ... ... ... : ... .. . ... ... ... : B-# 01 5 ... ... ... : ... .. . ... ... ... : ... .. 4 ... ... ...
ROW B0 : A-3 02 . ... ... ... : ... .. . ... ... ... : ... .. . ... ... ... : A-# 01 . ... ... ... : ... .. . ... ... ... : ... .. . ... ... ...
ROW B1 : A-4 02 7 ... ... ... : ... .. . ... ... ... : ... .. . ... ... ... : B-# 00 . ... ... ... : ... .. . ... ... ... : ... .. . ... ... ...
ROW B2 : D-4 01 6 ... ... ... : ... .. . ... ... ... : ... .. . ... ... ... : ... .. . ... ... ... : ... .. . ... ... ... : ... .. . ... ... ...
ROW B3 : D-3 01 7 ... ... ... : ... .. . ... ... ... : ... .. . ... ... ... : ... .. . ... ... ... : ... .. . ... ... ... : ... .. . ... ... ...
ROW B4 : E-3 01 . ... ... ... : ... .. . ... ... ... : ... .. . ... ... ... : ... .. 4 ... ... ... : ... .. . ... ... ... : ... .. . ... ... ...
ROW B5 : E-4 01 6 ... ... ... : ... .. . ... ... ... : ... .. . ... ... ... : ... .. . ... ... ... : ... .. . ... ... ... : ... .. . ... ... ...
ROW B6 : A-4 00 . ... ... ... : A-3 02 4 ... ... ... : ... .. . ... ... ... : ... .. 3 ... ... ... : ... .. . ... ... ... : ... .. . ... ... ...
ROW B7 : D-3 00 7 ... ... ... : B-2 02 . ... ... ... : --- .. . ... ... ... : ... .. . ... ... ... : ... .. . ... ... ... : ... .. 1 ... ... ...
ROW B8 : ... .. . ... ... ... : A-2 00 . ... ... ... : ... .. . ... ... ... : ... .. . ... ... ... : ... .. . ... ... ... : ... .. . ... ... ...
ROW B9 : D-4 00 6 ... ... ... : ... .. 5 ... ... ... : B-2 00 . ... ... ... : ... .. . ... ... ... : C#1 05 . ... ... ... : ... .. 6 ... ... ...
ROW BA : E-4 00 . ... ... ... : A-2 01 . ... ... ... : B-1 00 . ... ... ... : ... .. . ... ... ... : ... .. . ... ... ... : ... .. 5 ... ... ...
ROW BB : E-3 00 7 ... ... ... : A-2 02 . ... ... ... : ... .. . ... ... ... : ... .. 2 ... ... ... : ... .. . ... ... ... : ... .. . ... ... ...
ROW BC : A-3 00 . ... ... ... : ... .. . ... ... ... : ... .. . ... ... ... : ... .. . ... ... ... : ... .. . ... ... ... : ... .. 4 ... ... ...
ROW BD : A-4 01 6 ... ... ... : ... .. . ... ... ... : ... .. . ... ... ... : ... .. . ... ... ... : ... .. . ... ... ... : ... .. . ... ... ...
ROW BE : D-4 01 . ... ... ... : ... .. . ... ... ... : ... .. . ... ... ... : ... .. . ... ... ... : ... .. . ... ... ... : ... .. . ... ... ...
ROW BF : D-3 01 . ... ... ... : ... .. . ... ... ... : ... .. . ... ... ... : 9-# 00 9 ... ... ... : D-1 05 . ... ... ... : ... .. . ... ... ...
ROW C0 : E-3 01 . ... ... ... : ... .. . ... ... ... : ... .. . ... ... ... : 5-# 00 6 ... ... ... : ... .. . ... ... ... : ... .. . ... ... ...
ROW C1 : E-4 02 5 ... ... ... : ... .. . ... ... ... : ... .. . ... ... ... : 8-# 00 8 ... ... ... : ... .. . ... ... ... : ... .. . ... ... ...
ROW C2 : A-4 02 . ... ... ... : ... .. . ... ... ... : ... .. . ... ... ... : A-# 00 6 ... ... ... : ... .. . ... ... ... : ... .. . ... ... ...
ROW C3 : D-3 02 6 ... ... ... : A-3 02 3 ... ... ... : ... .. . ... ... ... : B-# 00 7 ... ... ... : ... .. . ... ... ... : ... .. . ... ... ...
ROW C4 : ... .. . ... ... ... : B-2 02 . ... ... ... : --- .. . ... ... ... : C-# 00 6 ... ... ... : ... .. . ... ... ... : ... .. 1 ... ... ...
ROW C5 : D-4 02 5 ... ... ... : A-2 00 . ... ... ... : ... .. . ... ... ... : ... .. . ... ... ... : ... .. . ... ... ... : ... .. . ... ... ...
ROW C6 : E-4 01 . ... ... ... : ... .. . ... ... ... : B-3 00 . ... ... ... : 9-# 00 9 ... ... ... : D-1 05 . ... ... ... : C#4 04 5 I02 J49 ...
ROW C7 : E-3 01 6 ... ... ... : A-2 01 . ... ... ... : B-2 00 . ... ... ... : 5-# 00 6 ... ... ... : ... .. . ... ... ... : ... .. . ... ... ...
ROW C8 : A-3 01 . ... ... ... : A-2 02 . ... ... ... : ... .. . ... ... ... : 8-# 00 8 ... ... ... : ... .. . ... ... ... : ... .. 4 ... ... ...
ROW C9 : A-4 01 5 ... ... ... : ... .. . ... ... ... : ... .. . ... ... ... : A-# 00 6 ... ... ... : ... .. . ... ... ... : ... .. . ... ... ...
ROW CA : D-4 00 . ... ... ... : ... .. . ... ... ... : ... .. . ... ... ... : B-# 00 7 ... ... ... : ... .. . ... ... ... : ... .. . ... ... ...
ROW CB : D-3 00 6 ... ... ... : ... .. . ... ... ... : ... .. . ... ... ... : C-# 00 6 ... ... ... : ... .. . ... ... ... : ... .. 3 ... ... ...
ROW CC : E-3 00 5 ... ... ... : ... .. . ... ... ... : ... .. . ... ... ... : ... .. 5 ... ... ... : ... .. . ... ... ... : ... .. . ... ... ...
ROW CD : E-4 00 4 ... ... ... : ... .. . ... ... ... : ... .. . ... ... ... : ... .. . ... ... ... : ... .. . ... ... ... : ... .. . ... ... ...
ROW CE : A-4 00 . ... ... ... : ... .. . ... ... ... : ... .. . ... ... ... : ... .. . ... ... ... : ... .. . ... ... ... : ... .. . ... ... ...
ROW CF : D-3 00 5 ... ... ... : ... .. . ... ... ... : ... .. . ... ... ... : ... .. 4 ... ... ... : ... .. . ... ... ... : ... .. . ... ... ...
ROW D0 : ... .. . ... ... ... : A-3 02 2 ... ... ... : ... .. . ... ... ... : ... .. . ... ... ... : ... .. . ... ... ... : ... .. . ... ... ...
ROW D1 : D-4 01 4 ... ... ... : B-2 02 . ... ... ... : --- .. . ... ... ... : ... .. . ... ... ... : ... .. . ... ... ... : ... .. . ... ... ...
ROW D2 : E-4 01 . ... ... ... : A-2 00 . ... ... ... : ... .. . ... ... ... : ... .. . ... ... ... : ... .. . ... ... ... : ... .. 1 ... ... ...
ROW D3 : E-3 01 5 ... ... ... : ... .. 3 ... ... ... : B-2 00 . ... ... ... : 9-# 00 9 ... ... ... : D-1 05 . ... ... ... : E-3 04 5 I02 J43 ...
ROW D4 : A-3 01 . ... ... ... : A-2 01 . ... ... ... : B-1 00 . ... ... ... : 5-# 00 6 ... ... ... : ... .. . ... ... ... : ... .. . ... ... ...
ROW D5 : A-4 02 4 ... ... ... : A-2 02 . ... ... ... : ... .. . ... ... ... : 8-# 00 8 ... ... ... : ... .. . ... ... ... : ... .. 4 ... ... ...
ROW D6 : D-4 02 . ... ... ... : ... .. . ... ... ... : ... .. . ... ... ... : A-# 00 6 ... ... ... : ... .. . ... ... ... : ... .. . ... ... ...
ROW D7 : D-3 02 5 ... ... ... : ... .. . ... ... ... : ... .. . ... ... ... : B-# 00 7 ... ... ... : ... .. . ... ... ... : ... .. . ... ... ...
ROW D8 : E-3 02 . ... ... ... : ... .. . ... ... ... : ... .. . ... ... ... : C-# 00 6 ... ... ... : ... .. . ... ... ... : ... .. 3 ... ... ...
ROW D9 : E-4 02 4 ... ... ... : ... .. . ... ... ... : ... .. . ... ... ... : ... .. 5 ... ... ... : ... .. . ... ... ... : ... .. . ... ... ...
ROW DA : A-4 01 . ... ... ... : ... .. . ... ... ... : ... .. . ... ... ... : ... .. . ... ... ... : ... .. . ... ... ... : ... .. . ... ... ...
ROW DB : D-3 01 5 ... ... ... : ... .. . ... ... ... : ... .. . ... ... ... : ... .. . ... ... ... : ... .. . ... ... ... : ... .. . ... ... ...
ROW DC : ... .. . ... ... ... : A-3 02 1 ... ... ... : ... .. . ... ... ... : ... .. 4 ... ... ... : ... .. . ... ... ... : ... .. . ... ... ...
ROW DD : D-4 01 4 ... ... ... : B-2 02 . ... ... ... : ... .. . ... ... ... : ... .. . ... ... ... : ... .. . ... ... ... : ... .. . ... ... ...
ROW DE : E-4 00 . ... ... ... : A-2 00 . ... ... ... : --- .. . ... ... ... : ... .. . ... ... ... : ... .. . ... ... ... : ... .. 1 ... ... ...
ROW DF : E-3 00 5 ... ... ... : A-2 01 . ... ... ... : ... .. . ... ... ... : ... .. . ... ... ... : ... .. . ... ... ... : ... .. . ... ... ...
ROW E0 : E-3 02 4 ... ... ... : F#2 00 C ... ... ... : B-3 00 . ... ... ... : 8-# 00 C ... ... ... : C-1 05 . ... ... ... : A-1 04 6 I02 J40 ...
ROW E1 : E-4 02 3 ... ... ... : F#2 01 . ... ... ... : B-2 00 . ... ... ... : 4-# 00 8 ... ... ... : ... .. . ... ... ... : ... .. . ... ... ...
ROW E2 : F#4 01 . ... ... ... : F#2 02 . ... ... ... : ... .. . ... ... ... : 7-# 00 B ... ... ... : ... .. . ... ... ... : ... .. 5 ... ... ...
ROW E3 : F#3 01 4 ... ... ... : ... .. . ... ... ... : ... .. . ... ... ... : 9-# 00 8 ... ... ... : ... .. . ... ... ... : ... .. 4 ... ... ...
ROW E4 : B-3 01 . ... ... ... : ... .. . ... ... ... : ... .. . ... ... ... : A-# 00 9 ... ... ... : ... .. . ... ... ... : ... .. . ... ... ...
ROW E5 : B-4 01 3 ... ... ... : ... .. . ... ... ... : ... .. . ... ... ... : B-# 00 8 ... ... ... : ... .. . ... ... ... : ... .. . ... ... ...
ROW E6 : E-4 00 . ... ... ... : ... .. . ... ... ... : ... .. . ... ... ... : ... .. . ... ... ... : ... .. . ... ... ... : ... .. . ... ... ...
ROW E7 : E-3 00 4 ... ... ... : ... .. . ... ... ... : ... .. . ... ... ... : ... .. . ... ... ... : ... .. . ... ... ... : ... .. . ... ... ...
ROW E8 : F#3 00 . ... ... ... : ... .. . ... ... ... : ... .. . ... ... ... : ... .. . ... ... ... : ... .. . ... ... ... : ... .. . ... ... ...
ROW E9 : F#4 00 3 ... ... ... : ... .. . ... ... ... : ... .. . ... ... ... : ... .. 7 ... ... ... : ... .. . ... ... ... : ... .. . ... ... ...
ROW EA : B-4 00 . ... ... ... : F#3 02 7 ... ... ... : --- .. . ... ... ... : ... .. . ... ... ... : ... .. . ... ... ... : ... .. . ... ... ...
ROW EB : E-3 00 4 ... ... ... : G#2 02 . ... ... ... : ... .. . ... ... ... : ... .. . ... ... ... : ... .. . ... ... ... : ... .. . ... ... ...
ROW EC : ... .. . ... ... ... : F#2 00 . ... ... ... : ... .. . ... ... ... : ... .. . ... ... ... : ... .. . ... ... ... : ... .. 1 ... ... ...
ROW ED : E-4 01 3 ... ... ... : G#2 00 C ... ... ... : C#4 00 . ... ... ... : ... .. 6 ... ... ... : C#1 05 . ... ... ... : ... .. . ... ... ...
ROW EE : F#4 01 . ... ... ... : G#2 01 . ... ... ... : C#3 00 . ... ... ... : ... .. . ... ... ... : ... .. . ... ... ... : ... .. 6 ... ... ...
ROW EF : F#3 01 4 ... ... ... : G#2 02 . ... ... ... : ... .. . ... ... ... : ... .. . ... ... ... : ... .. . ... ... ... : ... .. 5 ... ... ...
ROW F0 : B-3 01 . ... ... ... : ... .. . ... ... ... : ... .. . ... ... ... : ... .. . ... ... ... : ... .. . ... ... ... : ... .. 4 ... ... ...
ROW F1 : B-4 02 3 ... ... ... : ... .. . ... ... ... : ... .. . ... ... ... : ... .. . ... ... ... : ... .. . ... ... ... : ... .. . ... ... ...
ROW F2 : E-4 02 . ... ... ... : ... .. . ... ... ... : ... .. . ... ... ... : ... .. 5 ... ... ... : ... .. . ... ... ... : ... .. . ... ... ...
ROW F3 : E-3 02 4 ... ... ... : ... .. . ... ... ... : ... .. . ... ... ... : ... .. . ... ... ... : ... .. . ... ... ... : ... .. . ... ... ...
ROW F4 : F#3 02 . ... ... ... : ... .. . ... ... ... : ... .. . ... ... ... : ... .. . ... ... ... : ... .. . ... ... ... : ... .. . ... ... ...
ROW F5 : F#4 02 3 ... ... ... : ... .. . ... ... ... : ... .. . ... ... ... : ... .. . ... ... ... : ... .. . ... ... ... : ... .. . ... ... ...
ROW F6 : B-4 01 . ... ... ... : ... .. . ... ... ... : ... .. . ... ... ... : ... .. . ... ... ... : ... .. . ... ... ... : ... .. . ... ... ...
ROW F7 : E-3 01 4 ... ... ... : F#3 02 7 ... ... ... : --- .. . ... ... ... : ... .. 4 ... ... ... : ... .. . ... ... ... : ... .. . ... ... ...
ROW F8 : ... .. . ... ... ... : G#2 02 . ... ... ... : ... .. . ... ... ... : ... .. . ... ... ... : ... .. . ... ... ... : ... .. 1 ... ... ...
ROW F9 : E-4 01 3 ... ... ... : F#2 00 . ... ... ... : ... .. . ... ... ... : ... .. . ... ... ... : ... .. . ... ... ... : ... .. . ... ... ...
ROW FA : F#4 00 4 ... ... ... : A-2 00 C ... ... ... : D-4 00 . ... ... ... : 9-# 01 A ... ... ... : D-1 05 . ... ... ... : A-3 04 5 I02 J44 ...
ROW FB : F#3 00 5 ... ... ... : A-2 01 . ... ... ... : D-3 00 . ... ... ... : A-# 00 7 ... ... ... : ... .. . ... ... ... : ... .. . ... ... ...
ROW FC : B-3 00 . ... ... ... : A-2 02 . ... ... ... : ... .. . ... ... ... : ... .. 6 ... ... ... : ... .. . ... ... ... : ... .. 4 ... ... ...
ROW FD : B-4 00 4 ... ... ... : ... .. . ... ... ... : ... .. . ... ... ... : B-# 01 5 ... ... ... : ... .. . ... ... ... : ... .. . ... ... ...
ROW FE : E-4 00 . ... ... ... : ... .. . ... ... ... : ... .. . ... ... ... : A-# 01 . ... ... ... : ... .. . ... ... ... : ... .. . ... ... ...
ROW FF : E-3 00 5 ... ... ... : ... .. . ... ... ... : ... .. . ... ... ... : B-# 00 . ... ... ... : ... .. . ... ... ... : ... .. 3 ... ... ...

PATTERN 05
ROW 00 : F#3 00 . ... ... ... : ... .. . ... ... ... : ... .. . ... ... ... : ... .. . ... ... ... : ... .. . ... ... ... : ... .. . ... ... ...
ROW 01 : F#4 01 4 ... ... ... : ... .. . ... ... ... : ... .. . ... ... ... : ... .. . ... ... ... : ... .. . ... ... ... : ... .. . ... ... ...
ROW 02 : B-4 01 . ... ... ... : ... .. . ... ... ... : ... .. . ... ... ... : ... .. 4 ... ... ... : ... .. . ... ... ... : ... .. . ... ... ...
ROW 03 : E-3 01 5 ... ... ... : ... .. . ... ... ... : ... .. . ... ... ... : ... .. . ... ... ... : ... .. . ... ... ... : ... .. . ... ... ...
ROW 04 : ... .. . ... ... ... : G#3 02 7 ... ... ... : --- .. . ... ... ... : ... .. 3 ... ... ... : ... .. . ... ... ... : ... .. . ... ... ...
ROW 05 : E-4 02 4 ... ... ... : A#2 02 . ... ... ... : ... .. . ... ... ... : ... .. . ... ... ... : ... .. . ... ... ... : ... .. . ... ... ...
ROW 06 : F#4 02 . ... ... ... : G#2 00 . ... ... ... : ... .. . ... ... ... : ... .. . ... ... ... : ... .. . ... ... ... : ... .. 1 ... ... ...
ROW 07 : F#3 02 6 ... ... ... : F#2 00 C ... ... ... : B-3 00 . ... ... ... : ... .. . ... ... ... : C#1 05 . ... ... ... : E-3 04 5 I02 J43 ...
ROW 08 : B-3 02 . ... ... ... : F#2 01 . ... ... ... : B-2 00 . ... ... ... : ... .. . ... ... ... : ... .. . ... ... ... : ... .. . ... ... ...
ROW 09 : B-4 02 5 ... ... ... : F#2 02 . ... ... ... : ... .. . ... ... ... : ... .. 2 ... ... ... : ... .. . ... ... ... : ... .. 4 ... ... ...
ROW 0A : E-4 01 . ... ... ... : ... .. . ... ... ... : ... .. . ... ... ... : ... .. . ... ... ... : ... .. . ... ... ... : ... .. . ... ... ...
ROW 0B : E-3 01 6 ... ... ... : ... .. . ... ... ... : ... .. . ... ... ... : ... .. . ... ... ... : ... .. . ... ... ... : ... .. . ... ... ...
ROW 0C : F#3 01 . ... ... ... : ... .. . ... ... ... : ... .. . ... ... ... : ... .. . ... ... ... : ... .. . ... ... ... : ... .. 3 ... ... ...
ROW 0D : F#4 01 5 ... ... ... : ... .. . ... ... ... : ... .. . ... ... ... : ... .. . ... ... ... : ... .. . ... ... ... : ... .. . ... ... ...
ROW 0E : B-4 00 . ... ... ... : ... .. . ... ... ... : ... .. . ... ... ... : ... .. . ... ... ... : ... .. . ... ... ... : ... .. . ... ... ...
ROW 0F : E-3 00 6 ... ... ... : ... .. . ... ... ... : ... .. . ... ... ... : ... .. . ... ... ... : ... .. . ... ... ... : ... .. . ... ... ...
ROW 10 : ... .. . ... ... ... : ... .. . ... ... ... : ... .. . ... ... ... : ... .. . ... ... ... : ... .. . ... ... ... : ... .. . ... ... ...
ROW 11 : E-4 00 5 ... ... ... : A-3 02 7 ... ... ... : --- .. . ... ... ... : ... .. . ... ... ... : ... .. . ... ... ... : ... .. . ... ... ...
ROW 12 : F#4 00 . ... ... ... : B-2 02 . ... ... ... : ... .. . ... ... ... : ... .. . ... ... ... : ... .. . ... ... ... : ... .. 1 ... ... ...
ROW 13 : F#3 00 6 ... ... ... : A-2 00 . ... ... ... : ... .. . ... ... ... : ... .. . ... ... ... : ... .. . ... ... ... : ... .. . ... ... ...
ROW 14 : B-3 00 7 ... ... ... : G#2 00 C ... ... ... : C#4 00 . ... ... ... : 9-# 01 A ... ... ... : C-1 05 . ... ... ... : A-2 04 6 I02 J44 ...
ROW 15 : B-4 01 6 ... ... ... : G#2 01 . ... ... ... : C#3 00 . ... ... ... : A-# 00 7 ... ... ... : ... .. . ... ... ... : ... .. 5 ... ... ...
ROW 16 : E-4 01 . ... ... ... : G#2 02 . ... ... ... : ... .. . ... ... ... : ... .. 6 ... ... ... : ... .. . ... ... ... : ... .. . ... ... ...
ROW 17 : E-3 01 7 ... ... ... : ... .. . ... ... ... : ... .. . ... ... ... : B-# 01 5 ... ... ... : ... .. . ... ... ... : ... .. 4 ... ... ...
ROW 18 : F#3 01 . ... ... ... : ... .. . ... ... ... : ... .. . ... ... ... : A-# 01 . ... ... ... : ... .. . ... ... ... : ... .. . ... ... ...
ROW 19 : F#4 02 6 ... ... ... : ... .. . ... ... ... : ... .. . ... ... ... : B-# 00 . ... ... ... : ... .. . ... ... ... : ... .. . ... ... ...
ROW 1A : B-4 02 . ... ... ... : ... .. . ... ... ... : ... .. . ... ... ... : ... .. . ... ... ... : ... .. . ... ... ... : ... .. . ... ... ...
ROW 1B : E-3 02 7 ... ... ... : ... .. . ... ... ... : ... .. . ... ... ... : ... .. . ... ... ... : ... .. . ... ... ... : ... .. . ... ... ...
ROW 1C : ... .. . ... ... ... : ... .. . ... ... ... : ... .. . ... ... ... : ... .. 4 ... ... ... : ... .. . ... ... ... : ... .. . ... ... ...
ROW 1D : E-4 02 6 ... ... ... : ... .. . ... ... ... : ... .. . ... ... ... : ... .. . ... ... ... : ... .. . ... ... ... : ... .. . ... ... ...
ROW 1E : F#4 01 . ... ... ... : F#3 02 7 ... ... ... : --- .. . ... ... ... : ... .. 3 ... ... ... : ... .. . ... ... ... : ... .. . ... ... ...
ROW 1F : F#3 01 7 ... ... ... : G#2 02 . ... ... ... : ... .. . ... ... ... : ... .. . ... ... ... : ... .. . ... ... ... : ... .. 1 ... ... ...
ROW 20 : B-3 01 . ... ... ... : F#2 00 . ... ... ... : ... .. . ... ... ... : ... .. . ... ... ... : ... .. . ... ... ... : ... .. . ... ... ...
ROW 21 : B-4 01 . ... ... ... : A-2 00 C ... ... ... : D-4 00 . ... ... ... : ... .. . ... ... ... : C#1 05 . ... ... ... : ... .. 6 ... ... ...
ROW 22 : E-4 00 . ... ... ... : A-2 01 . ... ... ... : D-3 00 . ... ... ... : ... .. . ... ... ... : ... .. . ... ... ... : ... .. 5 ... ... ...
ROW 23 : E-3 00 8 ... ... ... : A-2 02 . ... ... ... : ... .. . ... ... ... : ... .. 2 ... ... ... : ... .. . ... ... ... : ... .. . ... ... ...
ROW 24 : F#3 00 . ... ... ... : ... .. . ... ... ... : ... .. . ... ... ... : ... .. . ... ... ... : ... .. . ... ... ... : ... .. 4 ... ... ...
ROW 25 : F#4 00 7 ... ... ... : ... .. . ... ... ... : ... .. . ... ... ... : ... .. . ... ... ... : ... .. . ... ... ... : ... .. . ... ... ...
ROW 26 : B-4 00 . ... ... ... : ... .. . ... ... ... : ... .. . ... ... ... : ... .. . ... ... ... : ... .. . ... ... ... : ... .. . ... ... ...
ROW 27 : E-3 00 8 ... ... ... : ... .. . ... ... ... : ... .. . ... ... ... : ... .. . ... ... ... : ... .. . ... ... ... : ... .. . ... ... ...
ROW 28 : ... .. . ... ... ... : ... .. . ... ... ... : ... .. . ... ... ... : ... .. . ... ... ... : ... .. . ... ... ... : ... .. . ... ... ...
ROW 29 : E-4 01 7 ... ... ... : ... .. . ... ... ... : ... .. . ... ... ... : ... .. . ... ... ... : ... .. . ... ... ... : ... .. . ... ... ...
ROW 2A : F#4 01 . ... ... ... : ... .. . ... ... ... : ... .. . ... ... ... : ... .. . ... ... ... : ... .. . ... ... ... : ... .. . ... ... ...
ROW 2B : F#3 01 8 ... ... ... : G#3 02 7 ... ... ... : --- .. . ... ... ... : ... .. . ... ... ... : ... .. . ... ... ... : ... .. . ... ... ...
ROW 2C : B-3 01 . ... ... ... : A#2 02 . ... ... ... : ... .. . ... ... ... : ... .. . ... ... ... : ... .. . ... ... ... : ... .. . ... ... ...
ROW 2D : B-4 02 7 ... ... ... : G#2 00 . ... ... ... : ... .. . ... ... ... : ... .. . ... ... ... : ... .. . ... ... ... : ... .. 1 ... ... ...
ROW 2E : E-4 02 8 ... ... ... : F#2 00 C ... ... ... : B-3 00 . ... ... ... : 9-# 01 A ... ... ... : D-1 05 . ... ... ... : C#4 04 5 I02 J49 ...
ROW 2F : E-3 02 9 ... ... ... : F#2 01 . ... ... ... : B-2 00 . ... ... ... : A-# 00 7 ... ... ... : ... .. . ... ... ... : ... .. . ... ... ...
ROW 30 : F#3 02 . ... ... ... : F#2 02 . ... ... ... : ... .. . ... ... ... : ... .. 6 ... ... ... : ... .. . ... ... ... : ... .. 4 ... ... ...
ROW 31 : F#4 02 8 ... ... ... : ... .. . ... ... ... : ... .. . ... ... ... : B-# 01 5 ... ... ... : ... .. . ... ... ... : ... .. . ... ... ...
ROW 32 : B-4 01 . ... ... ... : ... .. . ... ... ... : ... .. . ... ... ... : A-# 01 . ... ... ... : ... .. . ... ... ... : ... .. . ... ... ...
ROW 33 : E-3 01 9 ... ... ... : ... .. . ... ... ... : ... .. . ... ... ... : B-# 00 . ... ... ... : ... .. . ... ... ... : ... .. 3 ... ... ...
ROW 34 : ... .. . ... ... ... : ... .. . ... ... ... : ... .. . ... ... ... : ... .. . ... ... ... : ... .. . ... ... ... : ... .. . ... ... ...
ROW 35 : E-4 01 8 ... ... ... : ... .. . ... ... ... : ... .. . ... ... ... : ... .. . ... ... ... : ... .. . ... ... ... : ... .. . ... ... ...
ROW 36 : F#4 00 . ... ... ... : ... .. . ... ... ... : ... .. . ... ... ... : ... .. 4 ... ... ... : ... .. . ... ... ... : ... .. . ... ... ...
ROW 37 : F#3 00 9 ... ... ... : ... .. . ... ... ... : ... .. . ... ... ... : ... .. . ... ... ... : ... .. . ... ... ... : ... .. . ... ... ...
ROW 38 : B-3 00 . ... ... ... : A-3 02 7 ... ... ... : --- .. . ... ... ... : ... .. 3 ... ... ... : ... .. . ... ... ... : ... .. . ... ... ...
ROW 39 : B-4 00 8 ... ... ... : B-2 02 . ... ... ... : ... .. . ... ... ... : ... .. . ... ... ... : ... .. . ... ... ... : ... .. . ... ... ...
ROW 3A : E-4 00 . ... ... ... : A-2 00 . ... ... ... : ... .. . ... ... ... : ... .. . ... ... ... : ... .. . ... ... ... : ... .. 1 ... ... ...
ROW 3B : E-3 00 A ... ... ... : G#2 00 C ... ... ... : C#4 00 . ... ... ... : ... .. . ... ... ... : C#1 05 . ... ... ... : E-3 04 5 I02 J43 ...
ROW 3C : F#3 00 . ... ... ... : G#2 01 . ... ... ... : C#3 00 . ... ... ... : ... .. . ... ... ... : ... .. . ... ... ... : ... .. . ... ... ...
ROW 3D : F#4 01 9 ... ... ... : G#2 02 . ... ... ... : ... .. . ... ... ... : ... .. 2 ... ... ... : ... .. . ... ... ... : ... .. 4 ... ... ...
ROW 3E : B-4 01 . ... ... ... : ... .. . ... ... ... : ... .. . ... ... ... : ... .. . ... ... ... : ... .. . ... ... ... : ... .. . ... ... ...
ROW 3F : E-3 01 A ... ... ... : ... .. . ... ... ... : ... .. . ... ... ... : ... .. . ... ... ... : ... .. . ... ... ... : ... .. . ... ... ...
ROW 40 : ... .. . ... ... ... : ... .. . ... ... ... : ... .. . ... ... ... : ... .. . ... ... ... : ... .. . ... ... ... : ... .. 3 ... ... ...
ROW 41 : E-4 02 . ... ... ... : ... .. . ... ... ... : ... .. . ... ... ... : ... .. . ... ... ... : ... .. . ... ... ... : ... .. . ... ... ...
ROW 42 : F#4 02 . ... ... ... : ... .. . ... ... ... : ... .. . ... ... ... : ... .. . ... ... ... : ... .. . ... ... ... : ... .. . ... ... ...
ROW 43 : F#3 02 B ... ... ... : ... .. . ... ... ... : ... .. . ... ... ... : ... .. . ... ... ... : ... .. . ... ... ... : ... .. . ... ... ...
ROW 44 : B-3 02 . ... ... ... : ... .. . ... ... ... : ... .. . ... ... ... : ... .. . ... ... ... : ... .. . ... ... ... : ... .. . ... ... ...
ROW 45 : B-4 02 A ... ... ... : F#3 02 7 ... ... ... : --- .. . ... ... ... : ... .. . ... ... ... : ... .. . ... ... ... : ... .. . ... ... ...
ROW 46 : E-4 01 . ... ... ... : G#2 02 . ... ... ... : ... .. . ... ... ... : ... .. . ... ... ... : ... .. . ... ... ... : ... .. 1 ... ... ...
ROW 47 : E-3 01 B ... ... ... : F#2 00 . ... ... ... : ... .. . ... ... ... : ... .. . ... ... ... : ... .. . ... ... ... : ... .. . ... ... ...
ROW 48 : F#3 01 . ... ... ... : A-2 00 C ... ... ... : D-4 00 . ... ... ... : 9-# 01 A ... ... ... : C-1 05 . ... ... ... : A-1 04 . I02 J40 ...
ROW 49 : F#4 01 A ... ... ... : A-2 01 . ... ... ... : D-3 00 . ... ... ... : A-# 00 7 ... ... ... : ... .. . ... ... ... : ... .. 5 ... ... ...
ROW 4A : B-4 00 . ... ... ... : A-2 02 . ... ... ... : ... .. . ... ... ... : ... .. 6 ... ... ... : ... .. . ... ... ... : ... .. . ... ... ...
ROW 4B : E-3 00 B ... ... ... : ... .. . ... ... ... : ... .. . ... ... ... : B-# 01 5 ... ... ... : ... .. . ... ... ... : ... .. . ... ... ...
ROW 4C : ... .. . ... ... ... : ... .. . ... ... ... : ... .. . ... ... ... : A-# 01 . ... ... ... : ... .. . ... ... ... : ... .. 4 ... ... ...
ROW 4D : E-4 00 A ... ... ... : ... .. . ... ... ... : ... .. . ... ... ... : B-# 00 . ... ... ... : ... .. . ... ... ... : ... .. . ... ... ...
ROW 4E : F#4 00 . ... ... ... : ... .. . ... ... ... : ... .. . ... ... ... : ... .. . ... ... ... : ... .. . ... ... ... : ... .. . ... ... ...
ROW 4F : F#3 00 B ... ... ... : ... .. . ... ... ... : ... .. . ... ... ... : ... .. . ... ... ... : ... .. . ... ... ... : ... .. . ... ... ...
ROW 50 : B-3 00 . ... ... ... : ... .. . ... ... ... : ... .. . ... ... ... : ... .. 4 ... ... ... : ... .. . ... ... ... : ... .. . ... ... ...
ROW 51 : B-4 01 A ... ... ... : ... .. . ... ... ... : ... .. . ... ... ... : ... .. . ... ... ... : ... .. . ... ... ... : ... .. . ... ... ...
ROW 52 : E-4 01 . ... ... ... : G#3 02 7 ... ... ... : --- .. . ... ... ... : ... .. 3 ... ... ... : ... .. . ... ... ... : ... .. . ... ... ...
ROW 53 : E-3 01 B ... ... ... : A#2 02 . ... ... ... : ... .. . ... ... ... : ... .. . ... ... ... : ... .. . ... ... ... : ... .. 1 ... ... ...
ROW 54 : F#3 01 . ... ... ... : G#2 00 . ... ... ... : ... .. . ... ... ... : ... .. . ... ... ... : ... .. . ... ... ... : ... .. . ... ... ...
ROW 55 : F#4 02 A ... ... ... : F#2 00 C ... ... ... : B-3 00 . ... ... ... : ... .. . ... ... ... : C#1 05 . ... ... ... : ... .. 6 ... ... ...
ROW 56 : B-4 02 . ... ... ... : F#2 01 . ... ... ... : B-2 00 . ... ... ... : ... .. . ... ... ... : ... .. . ... ... ... : ... .. 5 ... ... ...
ROW 57 : E-3 02 B ... ... ... : F#2 02 . ... ... ... : ... .. . ... ... ... : ... .. 2 ... ... ... : ... .. . ... ... ... : ... .. . ... ... ...
ROW 58 : ... .. . ... ... ... : ... .. . ... ... ... : ... .. . ... ... ... : ... .. . ... ... ... : ... .. . ... ... ... : ... .. 4 ... ... ...
ROW 59 : E-4 02 A ... ... ... : ... .. . ... ... ... : ... .. . ... ... ... : ... .. . ... ... ... : ... .. . ... ... ... : ... .. . ... ... ...
ROW 5A : F#4 01 . ... ... ... : ... .. . ... ... ... : ... .. . ... ... ... : ... .. . ... ... ... : ... .. . ... ... ... : ... .. . ... ... ...
ROW 5B : F#3 01 . ... ... ... : ... .. . ... ... ... : ... .. . ... ... ... : ... .. . ... ... ... : ... .. . ... ... ... : ... .. . ... ... ...
ROW 5C : B-3 01 . ... ... ... : ... .. . ... ... ... : ... .. . ... ... ... : ... .. . ... ... ... : ... .. . ... ... ... : ... .. . ... ... ...
ROW 5D : B-4 01 9 ... ... ... : ... .. . ... ... ... : ... .. . ... ... ... : ... .. . ... ... ... : ... .. . ... ... ... : ... .. . ... ... ...
ROW 5E : E-4 00 . ... ... ... : ... .. . ... ... ... : ... .. . ... ... ... : ... .. . ... ... ... : ... .. . ... ... ... : ... .. . ... ... ...
ROW 5F : E-3 00 A ... ... ... : A-3 02 7 ... ... ... : --- .. . ... ... ... : ... .. . ... ... ... : ... .. . ... ... ... : ... .. . ... ... ...
ROW 60 : F#3 00 . ... ... ... : B-2 02 . ... ... ... : ... .. . ... ... ... : ... .. . ... ... ... : ... .. . ... ... ... : ... .. . ... ... ...
ROW 61 : F#4 00 9 ... ... ... : A-2 00 . ... ... ... : ... .. . ... ... ... : ... .. . ... ... ... : ... .. . ... ... ... : ... .. 1 ... ... ...
ROW 62 : B-4 00 . ... ... ... : G#2 00 C ... ... ... : C#4 00 . ... ... ... : 9-# 01 A ... ... ... : D-1 05 . ... ... ... : A-3 04 5 I02 J44 ...
ROW 63 : E-3 00 A ... ... ... : G#2 01 . ... ... ... : C#3 00 . ... ... ... : A-# 00 7 ... ... ... : ... .. . ... ... ... : ... .. . ... ... ...
ROW 64 : ... .. . ... ... ... : G#2 02 . ... ... ... : ... .. . ... ... ... : ... .. 6 ... ... ... : ... .. . ... ... ... : ... .. 4 ... ... ...
ROW 65 : E-4 01 9 ... ... ... : ... .. . ... ... ... : ... .. . ... ... ... : B-# 01 5 ... ... ... : ... .. . ... ... ... : ... .. . ... ... ...
ROW 66 : F#4 01 . ... ... ... : ... .. . ... ... ... : ... .. . ... ... ... : A-# 01 . ... ... ... : ... .. . ... ... ... : ... .. . ... ... ...
ROW 67 : F#3 01 A ... ... ... : ... .. . ... ... ... : ... .. . ... ... ... : B-# 00 . ... ... ... : ... .. . ... ... ... : ... .. 3 ... ... ...
ROW 68 : B-3 01 9 ... ... ... : ... .. . ... ... ... : ... .. . ... ... ... : ... .. . ... ... ... : ... .. . ... ... ... : ... .. . ... ... ...
ROW 69 : B-4 02 8 ... ... ... : ... .. . ... ... ... : ... .. . ... ... ... : ... .. . ... ... ... : ... .. . ... ... ... : ... .. . ... ... ...
ROW 6A : E-4 02 . ... ... ... : ... .. . ... ... ... : ... .. . ... ... ... : ... .. 4 ... ... ... : ... .. . ... ... ... : ... .. . ... ... ...
ROW 6B : E-3 02 9 ... ... ... : ... .. . ... ... ... : ... .. . ... ... ... : ... .. . ... ... ... : ... .. . ... ... ... : ... .. . ... ... ...
ROW 6C : F#3 02 . ... ... ... : F#3 02 7 ... ... ... : --- .. . ... ... ... : ... .. 3 ... ... ... : ... .. . ... ... ... : ... .. . ... ... ...
ROW 6D : F#4 02 8 ... ... ... : G#2 02 . ... ... ... : ... .. . ... ... ... : ... .. . ... ... ... : ... .. . ... ... ... : ... .. . ... ... ...
ROW 6E : B-4 01 . ... ... ... : F#2 00 . ... ... ... : ... .. . ... ... ... : ... .. . ... ... ... : ... .. . ... ... ... : ... .. 1 ... ... ...
ROW 6F : E-3 01 9 ... ... ... : A-2 00 C ... ... ... : D-4 00 . ... ... ... : ... .. . ... ... ... : C#1 05 . ... ... ... : E-3 04 5 I02 J43 ...
ROW 70 : ... .. . ... ... ... : A-2 01 . ... ... ... : D-3 00 . ... ... ... : ... .. . ... ... ... : ... .. . ... ... ... : ... .. . ... ... ...
ROW 71 : E-4 01 8 ... ... ... : A-2 02 . ... ... ... : ... .. . ... ... ... : ... .. 2 ... ... ... : ... .. . ... ... ... : ... .. 4 ... ... ...
ROW 72 : F#4 00 . ... ... ... : ... .. . ... ... ... : ... .. . ... ... ... : ... .. . ... ... ... : ... .. . ... ... ... : ... .. . ... ... ...
ROW 73 : F#3 00 9 ... ... ... : ... .. . ... ... ... : ... .. . ... ... ... : ... .. . ... ... ... : ... .. . ... ... ... : ... .. . ... ... ...
ROW 74 : B-3 00 . ... ... ... : ... .. . ... ... ... : ... .. . ... ... ... : ... .. . ... ... ... : ... .. . ... ... ... : ... .. 3 ... ... ...
ROW 75 : B-4 00 7 ... ... ... : ... .. . ... ... ... : ... .. . ... ... ... : ... .. . ... ... ... : ... .. . ... ... ... : ... .. . ... ... ...
ROW 76 : E-4 00 . ... ... ... : ... .. . ... ... ... : ... .. . ... ... ... : ... .. . ... ... ... : ... .. . ... ... ... : ... .. . ... ... ...
ROW 77 : E-3 00 8 ... ... ... : ... .. . ... ... ... : ... .. . ... ... ... : ... .. . ... ... ... : ... .. . ... ... ... : ... .. . ... ... ...
ROW 78 : F#3 00 . ... ... ... : ... .. . ... ... ... : ... .. . ... ... ... : ... .. . ... ... ... : ... .. . ... ... ... : ... .. . ... ... ...
ROW 79 : F#4 01 7 ... ... ... : G#3 02 7 ... ... ... : --- .. . ... ... ... : ... .. . ... ... ... : ... .. . ... ... ... : ... .. . ... ... ...
ROW 7A : B-4 01 . ... ... ... : A#2 02 . ... ... ... : ... .. . ... ... ... : ... .. . ... ... ... : ... .. . ... ... ... : ... .. 1 ... ... ...
ROW 7B : E-3 01 8 ... ... ... : G#2 00 . ... ... ... : ... .. . ... ... ... : ... .. . ... ... ... : ... .. . ... ... ... : ... .. . ... ... ...
ROW 7C : ... .. . ... ... ... : A-2 00 8 ... ... ... : B-2 00 . ... ... ... : 9-# 01 A ... ... ... : C-1 05 . ... ... ... : A-2 04 6 I02 J44 ...
ROW 7D : E-4 02 7 ... ... ... : A-2 01 . ... ... ... : B-1 00 . ... ... ... : A-# 00 7 ... ... ... : ... .. . ... ... ... : ... .. 5 ... ... ...
ROW 7E : F#4 02 . ... ... ... : A-2 02 . ... ... ... : ... .. . ... ... ... : ... .. 6 ... ... ... : ... .. . ... ... ... : ... .. . ... ... ...
ROW 7F : F#3 02 8 ... ... ... : ... .. . ... ... ... : ... .. . ... ... ... : B-# 01 5 ... ... ... : ... .. . ... ... ... : ... .. 4 ... ... ...
ROW 80 : B-3 02 . ... ... ... : ... .. . ... ... ... : ... .. . ... ... ... : A-# 01 . ... ... ... : ... .. . ... ... ... : ... .. . ... ... ...
ROW 81 : B-4 02 7 ... ... ... : ... .. . ... ... ... : ... .. . ... ... ... : B-# 00 . ... ... ... : ... .. . ... ... ... : ... .. . ... ... ...
ROW 82 : E-4 01 6 ... ... ... : ... .. . ... ... ... : ... .. . ... ... ... : ... .. . ... ... ... : C-1 05 . ... ... ... : ... .. . ... ... ...
ROW 83 : E-3 01 7 ... ... ... : ... .. . ... ... ... : ... .. . ... ... ... : ... .. . ... ... ... : ... .. . ... ... ... : ... .. . ... ... ...
ROW 84 : F#3 01 . ... ... ... : ... .. . ... ... ... : ... .. . ... ... ... : ... .. 4 ... ... ... : ... .. . ... ... ... : ... .. . ... ... ...
ROW 85 : F#4 01 6 ... ... ... : ... .. . ... ... ... : ... .. . ... ... ... : ... .. . ... ... ... : ... .. . ... ... ... : ... .. . ... ... ...
ROW 86 : B-4 00 . ... ... ... : A-3 02 4 ... ... ... : ... .. . ... ... ... : ... .. 3 ... ... ... : ... .. . ... ... ... : ... .. . ... ... ...
ROW 87 : E-3 00 7 ... ... ... : B-2 02 . ... ... ... : --- .. . ... ... ... : ... .. . ... ... ... : ... .. . ... ... ... : ... .. 1 ... ... ...
ROW 88 : ... .. . ... ... ... : A-2 00 . ... ... ... : ... .. . ... ... ... : ... .. . ... ... ... : ... .. . ... ... ... : ... .. . ... ... ...
ROW 89 : E-4 00 6 ... ... ... : ... .. 5 ... ... ... : B-2 00 . ... ... ... : ... .. . ... ... ... : C#1 05 . ... ... ... : ... .. 6 ... ... ...
ROW 8A : F#4 00 . ... ... ... : A-2 01 . ... ... ... : B-1 00 . ... ... ... : ... .. . ... ... ... : ... .. . ... ... ... : ... .. 5 ... ... ...
ROW 8B : F#3 00 7 ... ... ... : A-2 02 . ... ... ... : ... .. . ... ... ... : ... .. 2 ... ... ... : ... .. . ... ... ... : ... .. . ... ... ...
ROW 8C : B-3 00 . ... ... ... : ... .. . ... ... ... : ... .. . ... ... ... : ... .. . ... ... ... : ... .. . ... ... ... : ... .. 4 ... ... ...
ROW 8D : B-4 01 6 ... ... ... : ... .. . ... ... ... : ... .. . ... ... ... : ... .. . ... ... ... : ... .. . ... ... ... : ... .. . ... ... ...
ROW 8E : E-4 01 . ... ... ... : ... .. . ... ... ... : ... .. . ... ... ... : ... .. . ... ... ... : ... .. . ... ... ... : ... .. . ... ... ...
ROW 8F : E-3 01 . ... ... ... : ... .. . ... ... ... : ... .. . ... ... ... : ... .. . ... ... ... : ... .. . ... ... ... : ... .. . ... ... ...
ROW 90 : F#3 01 . ... ... ... : ... .. . ... ... ... : ... .. . ... ... ... : ... .. . ... ... ... : ... .. . ... ... ... : ... .. . ... ... ...
ROW 91 : F#4 02 5 ... ... ... : ... .. . ... ... ... : ... .. . ... ... ... : ... .. . ... ... ... : ... .. . ... ... ... : ... .. . ... ... ...
ROW 92 : B-4 02 . ... ... ... : ... .. . ... ... ... : ... .. . ... ... ... : ... .. . ... ... ... : ... .. . ... ... ... : ... .. . ... ... ...
ROW 93 : E-3 02 6 ... ... ... : A-3 02 3 ... ... ... : ... .. . ... ... ... : ... .. . ... ... ... : ... .. . ... ... ... : ... .. . ... ... ...
ROW 94 : ... .. . ... ... ... : B-2 02 . ... ... ... : --- .. . ... ... ... : ... .. . ... ... ... : ... .. . ... ... ... : ... .. 1 ... ... ...
ROW 95 : E-4 02 5 ... ... ... : A-2 00 . ... ... ... : ... .. . ... ... ... : ... .. . ... ... ... : ... .. . ... ... ... : ... .. . ... ... ...
ROW 96 : F#4 01 . ... ... ... : ... .. . ... ... ... : B-3 00 . ... ... ... : 9-# 01 A ... ... ... : D-1 05 . ... ... ... : C#4 04 5 I02 J49 ...
ROW 97 : F#3 01 6 ... ... ... : A-2 01 . ... ... ... : B-2 00 . ... ... ... : A-# 00 7 ... ... ... : ... .. . ... ... ... : ... .. . ... ... ...
ROW 98 : B-3 01 . ... ... ... : A-2 02 . ... ... ... : ... .. . ... ... ... : ... .. 6 ... ... ... : ... .. . ... ... ... : ... .. 4 ... ... ...
ROW 99 : B-4 01 5 ... ... ... : ... .. . ... ... ... : ... .. . ... ... ... : B-# 01 5 ... ... ... : ... .. . ... ... ... : ... .. . ... ... ...
ROW 9A : E-4 00 . ... ... ... : ... .. . ... ... ... : ... .. . ... ... ... : A-# 01 . ... ... ... : ... .. . ... ... ... : ... .. . ... ... ...
ROW 9B : E-3 00 6 ... ... ... : ... .. . ... ... ... : ... .. . ... ... ... : B-# 00 . ... ... ... : ... .. . ... ... ... : ... .. 3 ... ... ...
ROW 9C : F#3 00 5 ... ... ... : ... .. . ... ... ... : ... .. . ... ... ... : ... .. . ... ... ... : ... .. . ... ... ... : ... .. . ... ... ...
ROW 9D : F#4 00 4 ... ... ... : ... .. . ... ... ... : ... .. . ... ... ... : ... .. . ... ... ... : ... .. . ... ... ... : ... .. . ... ... ...
ROW 9E : B-4 00 . ... ... ... : ... .. . ... ... ... : ... .. . ... ... ... : ... .. 4 ... ... ... : ... .. . ... ... ... : ... .. . ... ... ...
ROW 9F : E-3 00 5 ... ... ... : ... .. . ... ... ... : ... .. . ... ... ... : ... .. . ... ... ... : ... .. . ... ... ... : ... .. . ... ... ...
ROW A0 : ... .. . ... ... ... : A-3 02 2 ... ... ... : ... .. . ... ... ... : ... .. 3 ... ... ... : ... .. . ... ... ... : ... .. . ... ... ...
ROW A1 : E-4 01 4 ... ... ... : B-2 02 . ... ... ... : --- .. . ... ... ... : ... .. . ... ... ... : ... .. . ... ... ... : ... .. . ... ... ...
ROW A2 : F#4 01 . ... ... ... : A-2 00 . ... ... ... : ... .. . ... ... ... : ... .. . ... ... ... : ... .. . ... ... ... : ... .. 1 ... ... ...
ROW A3 : F#3 01 5 ... ... ... : ... .. 3 ... ... ... : B-2 00 . ... ... ... : ... .. . ... ... ... : C#1 05 . ... ... ... : E-3 04 5 I02 J43 ...
ROW A4 : B-3 01 . ... ... ... : A-2 01 . ... ... ... : B-1 00 . ... ... ... : ... .. . ... ... ... : ... .. . ... ... ... : ... .. . ... ... ...
ROW A5 : B-4 02 4 ... ... ... : A-2 02 . ... ... ... : ... .. . ... ... ... : ... .. 2 ... ... ... : ... .. . ... ... ... : ... .. 4 ... ... ...
ROW A6 : E-4 02 . ... ... ... : ... .. . ... ... ... : ... .. . ... ... ... : ... .. . ... ... ... : ... .. . ... ... ... : ... .. . ... ... ...
ROW A7 : E-3 02 5 ... ... ... : ... .. . ... ... ... : ... .. . ... ... ... : ... .. . ... ... ... : ... .. . ... ... ... : ... .. . ... ... ...
ROW A8 : F#3 02 . ... ... ... : ... .. . ... ... ... : ... .. . ... ... ... : ... .. . ... ... ... : ... .. . ... ... ... : ... .. 3 ... ... ...
ROW A9 : F#4 02 4 ... ... ... : ... .. . ... ... ... : ... .. . ... ... ... : ... .. . ... ... ... : ... .. . ... ... ... : ... .. . ... ... ...
ROW AA : B-4 01 . ... ... ... : ... .. . ... ... ... : ... .. . ... ... ... : ... .. . ... ... ... : ... .. . ... ... ... : ... .. . ... ... ...
ROW AB : E-3 01 5 ... ... ... : ... .. . ... ... ... : ... .. . ... ... ... : ... .. . ... ... ... : ... .. . ... ... ... : ... .. . ... ... ...
ROW AC : ... .. . ... ... ... : A-3 02 1 ... ... ... : ... .. . ... ... ... : ... .. . ... ... ... : ... .. . ... ... ... : ... .. . ... ... ...
ROW AD : E-4 01 4 ... ... ... : B-2 02 . ... ... ... : ... .. . ... ... ... : ... .. . ... ... ... : ... .. . ... ... ... : ... .. . ... ... ...
ROW AE : F#4 00 . ... ... ... : A-2 00 . ... ... ... : --- .. . ... ... ... : ... .. . ... ... ... : ... .. . ... ... ... : ... .. 1 ... ... ...
ROW AF : F#3 00 5 ... ... ... : A-2 01 . ... ... ... : ... .. . ... ... ... : ... .. . ... ... ... : ... .. . ... ... ... : ... .. . ... ... ...
ROW B0 : B-3 02 4 ... ... ... : F#2 00 C ... ... ... : B-3 00 . ... ... ... : 9-# 01 A ... ... ... : C-1 05 . ... ... ... : A-1 04 . I02 J40 ...
ROW B1 : B-4 02 3 ... ... ... : F#2 01 . ... ... ... : B-2 00 . ... ... ... : A-# 00 7 ... ... ... : ... .. . ... ... ... : ... .. 5 ... ... ...
ROW B2 : C#5 01 . ... ... ... : F#2 02 . ... ... ... : ... .. . ... ... ... : ... .. 6 ... ... ... : ... .. . ... ... ... : ... .. . ... ... ...
ROW B3 : C#4 01 4 ... ... ... : ... .. . ... ... ... : ... .. . ... ... ... : B-# 01 5 ... ... ... : ... .. . ... ... ... : ... .. . ... ... ...
ROW B4 : F#4 01 . ... ... ... : ... .. . ... ... ... : ... .. . ... ... ... : A-# 01 . ... ... ... : ... .. . ... ... ... : ... .. 4 ... ... ...
ROW B5 : F#5 01 3 ... ... ... : ... .. . ... ... ... : ... .. . ... ... ... : B-# 00 . ... ... ... : ... .. . ... ... ... : ... .. . ... ... ...
ROW B6 : B-4 00 . ... ... ... : ... .. . ... ... ... : ... .. . ... ... ... : ... .. . ... ... ... : ... .. . ... ... ... : ... .. . ... ... ...
ROW B7 : B-3 00 4 ... ... ... : ... .. . ... ... ... : ... .. . ... ... ... : ... .. . ... ... ... : ... .. . ... ... ... : ... .. . ... ... ...
ROW B8 : C#4 00 . ... ... ... : ... .. . ... ... ... : ... .. . ... ... ... : ... .. 4 ... ... ... : ... .. . ... ... ... : ... .. . ... ... ...
ROW B9 : C#5 00 3 ... ... ... : ... .. . ... ... ... : ... .. . ... ... ... : ... .. . ... ... ... : ... .. . ... ... ... : ... .. . ... ... ...
ROW BA : F#5 00 . ... ... ... : F#3 02 7 ... ... ... : --- .. . ... ... ... : ... .. 3 ... ... ... : ... .. . ... ... ... : ... .. . ... ... ...
ROW BB : B-3 00 4 ... ... ... : G#2 02 . ... ... ... : ... .. . ... ... ... : ... .. . ... ... ... : ... .. . ... ... ... : ... .. 1 ... ... ...
ROW BC : ... .. . ... ... ... : F#2 00 . ... ... ... : ... .. . ... ... ... : ... .. . ... ... ... : ... .. . ... ... ... : ... .. . ... ... ...
ROW BD : B-4 01 3 ... ... ... : G#2 00 C ... ... ... : C#4 00 . ... ... ... : ... .. . ... ... ... : C#1 05 . ... ... ... : ... .. . ... ... ...
ROW BE : C#5 01 . ... ... ... : G#2 01 . ... ... ... : C#3 00 . ... ... ... : ... .. . ... ... ... : ... .. . ... ... ... : ... .. 5 ... ... ...
ROW BF : C#4 01 4 ... ... ... : G#2 02 . ... ... ... : ... .. . ... ... ... : ... .. 2 ... ... ... : ... .. . ... ... ... : ... .. . ... ... ...
ROW C0 : F#4 01 . ... ... ... : ... .. . ... ... ... : ... .. . ... ... ... : ... .. . ... ... ... : ... .. . ... ... ... : ... .. 4 ... ... ...
ROW C1 : F#5 02 3 ... ... ... : ... .. . ... ... ... : ... .. . ... ... ... : ... .. . ... ... ... : ... .. . ... ... ... : ... .. . ... ... ...
ROW C2 : B-4 02 . ... ... ... : ... .. . ... ... ... : ... .. . ... ... ... : ... .. . ... ... ... : ... .. . ... ... ... : ... .. . ... ... ...
ROW C3 : B-3 02 4 ... ... ... : ... .. . ... ... ... : ... .. . ... ... ... : ... .. . ... ... ... : ... .. . ... ... ... : ... .. . ... ... ...
ROW C4 : C#4 02 . ... ... ... : ... .. . ... ... ... : ... .. . ... ... ... : ... .. . ... ... ... : ... .. . ... ... ... : ... .. . ... ... ...
ROW C5 : C#5 02 3 ... ... ... : ... .. . ... ... ... : ... .. . ... ... ... : ... .. . ... ... ... : ... .. . ... ... ... : ... .. . ... ... ...
ROW C6 : F#5 01 . ... ... ... : ... .. . ... ... ... : ... .. . ... ... ... : ... .. . ... ... ... : ... .. . ... ... ... : ... .. . ... ... ...
ROW C7 : B-3 01 4 ... ... ... : F#3 02 7 ... ... ... : --- .. . ... ... ... : ... .. . ... ... ... : ... .. . ... ... ... : ... .. . ... ... ...
ROW C8 : ... .. . ... ... ... : G#2 02 . ... ... ... : ... .. . ... ... ... : ... .. . ... ... ... : ... .. . ... ... ... : ... .. 1 ... ... ...
ROW C9 : B-4 01 3 ... ... ... : F#2 00 . ... ... ... : ... .. . ... ... ... : ... .. . ... ... ... : ... .. . ... ... ... : ... .. . ... ... ...
ROW CA : C#5 00 4 ... ... ... : A-2 00 C ... ... ... : D-4 00 . ... ... ... : 9-# 01 A ... ... ... : D-1 05 . ... ... ... : A-3 04 5 I02 J44 ...
ROW CB : C#4 00 5 ... ... ... : A-2 01 . ... ... ... : D-3 00 . ... ... ... : A-# 00 7 ... ... ... : ... .. . ... ... ... : ... .. . ... ... ...
ROW CC : F#4 00 . ... ... ... : A-2 02 . ... ... ... : ... .. . ... ... ... : ... .. 6 ... ... ... : ... .. . ... ... ... : ... .. 4 ... ... ...
ROW CD : F#5 00 4 ... ... ... : ... .. . ... ... ... : ... .. . ... ... ... : B-# 01 5 ... ... ... : ... .. . ... ... ... : ... .. . ... ... ...
ROW CE : B-4 00 . ... ... ... : ... .. . ... ... ... : ... .. . ... ... ... : A-# 01 . ... ... ... : ... .. . ... ... ... : ... .. . ... ... ...
ROW CF : B-3 00 5 ... ... ... : ... .. . ... ... ... : ... .. . ... ... ... : B-# 00 . ... ... ... : ... .. . ... ... ... : ... .. 3 ... ... ...
ROW D0 : C#4 00 . ... ... ... : ... .. . ... ... ... : ... .. . ... ... ... : ... .. . ... ... ... : ... .. . ... ... ... : ... .. . ... ... ...
ROW D1 : C#5 01 4 ... ... ... : ... .. . ... ... ... : ... .. . ... ... ... : ... .. . ... ... ... : ... .. . ... ... ... : ... .. . ... ... ...
ROW D2 : F#5 01 . ... ... ... : ... .. . ... ... ... : ... .. . ... ... ... : ... .. 4 ... ... ... : ... .. . ... ... ... : ... .. . ... ... ...
ROW D3 : B-3 01 5 ... ... ... : ... .. . ... ... ... : ... .. . ... ... ... : ... .. . ... ... ... : ... .. . ... ... ... : ... .. . ... ... ...
ROW D4 : ... .. . ... ... ... : G#3 02 7 ... ... ... : --- .. . ... ... ... : ... .. 3 ... ... ... : ... .. . ... ... ... : ... .. . ... ... ...
ROW D5 : B-4 02 4 ... ... ... : A#2 02 . ... ... ... : ... .. . ... ... ... : ... .. . ... ... ... : ... .. . ... ... ... : ... .. . ... ... ...
ROW D6 : C#5 02 . ... ... ... : G#2 00 . ... ... ... : ... .. . ... ... ... : ... .. . ... ... ... : ... .. . ... ... ... : ... .. 1 ... ... ...
ROW D7 : C#4 02 6 ... ... ... : F#2 00 C ... ... ... : B-3 00 . ... ... ... : ... .. . ... ... ... : C#1 05 . ... ... ... : E-3 04 5 I02 J43 ...
ROW D8 : F#4 02 . ... ... ... : F#2 01 . ... ... ... : B-2 00 . ... ... ... : ... .. . ... ... ... : ... .. . ... ... ... : ... .. . ... ... ...
ROW D9 : F#5 02 5 ... ... ... : F#2 02 . ... ... ... : ... .. . ... ... ... : ... .. 2 ... ... ... : ... .. . ... ... ... : ... .. 4 ... ... ...
ROW DA : B-4 01 . ... ... ... : ... .. . ... ... ... : ... .. . ... ... ... : ... .. . ... ... ... : ... .. . ... ... ... : ... .. . ... ... ...
ROW DB : B-3 01 6 ... ... ... : ... .. . ... ... ... : ... .. . ... ... ... : ... .. . ... ... ... : ... .. . ... ... ... : ... .. . ... ... ...
ROW DC : C#4 01 . ... ... ... : ... .. . ... ... ... : ... .. . ... ... ... : ... .. . ... ... ... : ... .. . ... ... ... : ... .. 3 ... ... ...
ROW DD : C#5 01 5 ... ... ... : ... .. . ... ... ... : ... .. . ... ... ... : ... .. . ... ... ... : ... .. . ... ... ... : ... .. . ... ... ...
ROW DE : F#5 00 . ... ... ... : ... .. . ... ... ... : ... .. . ... ... ... : ... .. . ... ... ... : ... .. . ... ... ... : ... .. . ... ... ...
ROW DF : B-3 00 6 ... ... ... : ... .. . ... ... ... : ... .. . ... ... ... : ... .. . ... ... ... : ... .. . ... ... ... : ... .. . ... ... ...
ROW E0 : ... .. . ... ... ... : ... .. . ... ... ... : ... .. . ... ... ... : ... .. . ... ... ... : ... .. . ... ... ... : ... .. . ... ... ...
ROW E1 : B-4 00 5 ... ... ... : A-3 02 7 ... ... ... : --- .. . ... ... ... : ... .. . ... ... ... : ... .. . ... ... ... : ... .. . ... ... ...
ROW E2 : C#5 00 . ... ... ... : B-2 02 . ... ... ... : ... .. . ... ... ... : ... .. . ... ... ... : ... .. . ... ... ... : ... .. 1 ... ... ...
ROW E3 : C#4 00 6 ... ... ... : A-2 00 . ... ... ... : ... .. . ... ... ... : ... .. . ... ... ... : ... .. . ... ... ... : ... .. . ... ... ...
ROW E4 : F#4 00 7 ... ... ... : G#2 00 C ... ... ... : C#4 00 . ... ... ... : 9-# 01 A ... ... ... : C-1 05 . ... ... ... : A-2 04 6 I02 J44 ...
ROW E5 : F#5 01 6 ... ... ... : G#2 01 . ... ... ... : C#3 00 . ... ... ... : A-# 00 7 ... ... ... : ... .. . ... ... ... : ... .. 5 ... ... ...
ROW E6 : B-4 01 . ... ... ... : G#2 02 . ... ... ... : ... .. . ... ... ... : ... .. 6 ... ... ... : ... .. . ... ... ... : ... .. . ... ... ...
ROW E7 : B-3 01 7 ... ... ... : ... .. . ... ... ... : ... .. . ... ... ... : B-# 01 5 ... ... ... : ... .. . ... ... ... : ... .. 4 ... ... ...
ROW E8 : C#4 01 . ... ... ... : ... .. . ... ... ... : ... .. . ... ... ... : A-# 01 . ... ... ... : ... .. . ... ... ... : ... .. . ... ... ...
ROW E9 : C#5 02 6 ... ... ... : ... .. . ... ... ... : ... .. . ... ... ... : B-# 00 . ... ... ... : ... .. . ... ... ... : ... .. . ... ... ...
ROW EA : F#5 02 . ... ... ... : ... .. . ... ... ... : ... .. . ... ... ... : ... .. . ... ... ... : ... .. . ... ... ... : ... .. . ... ... ...
ROW EB : B-3 02 7 ... ... ... : ... .. . ... ... ... : ... .. . ... ... ... : ... .. . ... ... ... : ... .. . ... ... ... : ... .. . ... ... ...
ROW EC : ... .. . ... ... ... : ... .. . ... ... ... : ... .. . ... ... ... : ... .. 4 ... ... ... : ... .. . ... ... ... : ... .. . ... ... ...
ROW ED : B-4 02 6 ... ... ... : ... .. . ... ... ... : ... .. . ... ... ... : ... .. . ... ... ... : ... .. . ... ... ... : ... .. . ... ... ...
ROW EE : C#5 01 . ... ... ... : F#3 02 7 ... ... ... : --- .. . ... ... ... : ... .. 3 ... ... ... : ... .. . ... ... ... : ... .. . ... ... ...
ROW EF : C#4 01 7 ... ... ... : G#2 02 . ... ... ... : ... .. . ... ... ... : ... .. . ... ... ... : ... .. . ... ... ... : ... .. 1 ... ... ...
ROW F0 : F#4 01 . ... ... ... : F#2 00 . ... ... ... : ... .. . ... ... ... : ... .. . ... ... ... : ... .. . ... ... ... : ... .. . ... ... ...
ROW F1 : F#5 01 . ... ... ... : A-2 00 C ... ... ... : D-4 00 . ... ... ... : ... .. . ... ... ... : C#1 05 . ... ... ... : ... .. 6 ... ... ...
ROW F2 : B-4 00 . ... ... ... : A-2 01 . ... ... ... : D-3 00 . ... ... ... : ... .. . ... ... ... : ... .. . ... ... ... : ... .. 5 ... ... ...
ROW F3 : B-3 00 8 ... ... ... : A-2 02 . ... ... ... : ... .. . ... ... ... : ... .. 2 ... ... ... : ... .. . ... ... ... : ... .. . ... ... ...
ROW F4 : C#4 00 . ... ... ... : ... .. . ... ... ... : ... .. . ... ... ... : ... .. . ... ... ... : ... .. . ... ... ... : ... .. 4 ... ... ...
ROW F5 : C#5 00 7 ... ... ... : ... .. . ... ... ... : ... .. . ... ... ... : ... .. . ... ... ... : ... .. . ... ... ... : ... .. . ... ... ...
ROW F6 : F#5 00 . ... ... ... : ... .. . ... ... ... : ... .. . ... ... ... : ... .. . ... ... ... : ... .. . ... ... ... : ... .. . ... ... ...
ROW F7 : B-3 00 8 ... ... ... : ... .. . ... ... ... : ... .. . ... ... ... : ... .. . ... ... ... : ... .. . ... ... ... : ... .. . ... ... ...
ROW F8 : ... .. . ... ... ... : ... .. . ... ... ... : ... .. . ... ... ... : ... .. . ... ... ... : ... .. . ... ... ... : ... .. . ... ... ...
ROW F9 : B-4 01 7 ... ... ... : ... .. . ... ... ... : ... .. . ... ... ... : ... .. . ... ... ... : ... .. . ... ... ... : ... .. . ... ... ...
ROW FA : C#5 01 . ... ... ... : ... .. . ... ... ... : ... .. . ... ... ... : ... .. . ... ... ... : ... .. . ... ... ... : ... .. . ... ... ...
ROW FB : C#4 01 8 ... ... ... : G#3 02 7 ... ... ... : --- .. . ... ... ... : ... .. . ... ... ... : ... .. . ... ... ... : ... .. . ... ... ...
ROW FC : F#4 01 . ... ... ... : A#2 02 . ... ... ... : ... .. . ... ... ... : ... .. . ... ... ... : ... .. . ... ... ... : ... .. 1 ... ... ...
ROW FD : F#5 02 7 ... ... ... : G#2 00 . ... ... ... : ... .. . ... ... ... : ... .. . ... ... ... : ... .. . ... ... ... : ... .. . ... ... ...
ROW FE : B-4 02 8 ... ... ... : F#2 00 C ... ... ... : B-3 00 . ... ... ... : 9-# 01 A ... ... ... : D-1 05 . ... ... ... : C#4 04 5 I02 J49 ...
ROW FF : B-3 02 9 ... ... ... : F#2 01 . ... ... ... : B-2 00 . ... ... ... : A-# 00 7 ... ... ... : ... .. . ... ... ... : ... .. . ... ... ...

PATTERN 06
ROW 00 : C#4 02 . ... ... ... : F#2 02 . ... ... ... : ... .. . ... ... ... : ... .. 6 ... ... ... : ... .. . ... ... ... : ... .. 4 ... ... ...
ROW 01 : C#5 02 8 ... ... ... : ... .. . ... ... ... : ... .. . ... ... ... : B-# 01 5 ... ... ... : ... .. . ... ... ... : ... .. . ... ... ...
ROW 02 : F#5 01 . ... ... ... : ... .. . ... ... ... : ... .. . ... ... ... : A-# 01 . ... ... ... : ... .. . ... ... ... : ... .. . ... ... ...
ROW 03 : B-3 01 9 ... ... ... : ... .. . ... ... ... : ... .. . ... ... ... : B-# 00 . ... ... ... : ... .. . ... ... ... : ... .. 3 ... ... ...
ROW 04 : ... .. . ... ... ... : ... .. . ... ... ... : ... .. . ... ... ... : ... .. . ... ... ... : ... .. . ... ... ... : ... .. . ... ... ...
ROW 05 : B-4 01 8 ... ... ... : ... .. . ... ... ... : ... .. . ... ... ... : ... .. . ... ... ... : ... .. . ... ... ... : ... .. . ... ... ...
ROW 06 : C#5 00 . ... ... ... : ... .. . ... ... ... : ... .. . ... ... ... : ... .. 4 ... ... ... : ... .. . ... ... ... : ... .. . ... ... ...
ROW 07 : C#4 00 9 ... ... ... : ... .. . ... ... ... : ... .. . ... ... ... : ... .. . ... ... ... : ... .. . ... ... ... : ... .. . ... ... ...
ROW 08 : F#4 00 . ... ... ... : A-3 02 7 ... ... ... : --- .. . ... ... ... : ... .. 3 ... ... ... : ... .. . ... ... ... : ... .. . ... ... ...
ROW 09 : F#5 00 8 ... ... ... : B-2 02 . ... ... ... : ... .. . ... ... ... : ... .. . ... ... ... : ... .. . ... ... ... : ... .. . ... ... ...
ROW 0A : B-4 00 . ... ... ... : A-2 00 . ... ... ... : ... .. . ... ... ... : ... .. . ... ... ... : ... .. . ... ... ... : ... .. 1 ... ... ...
ROW 0B : B-3 00 A ... ... ... : G#2 00 C ... ... ... : C#4 00 . ... ... ... : ... .. . ... ... ... : C#1 05 . ... ... ... : E-3 04 5 I02 J43 ...
ROW 0C : C#4 00 . ... ... ... : G#2 01 . ... ... ... : C#3 00 . ... ... ... : ... .. . ... ... ... : ... .. . ... ... ... : ... .. . ... ... ...
ROW 0D : C#5 01 9 ... ... ... : G#2 02 . ... ... ... : ... .. . ... ... ... : ... .. 2 ... ... ... : ... .. . ... ... ... : ... .. 4 ... ... ...
ROW 0E : F#5 01 . ... ... ... : ... .. . ... ... ... : ... .. . ... ... ... : ... .. . ... ... ... : ... .. . ... ... ... : ... .. . ... ... ...
ROW 0F : B-3 01 A ... ... ... : ... .. . ... ... ... : ... .. . ... ... ... : ... .. . ... ... ... : ... .. . ... ... ... : ... .. . ... ... ...
ROW 10 : ... .. . ... ... ... : ... .. . ... ... ... : ... .. . ... ... ... : ... .. . ... ... ... : ... .. . ... ... ... : ... .. 3 ... ... ...
ROW 11 : B-4 02 . ... ... ... : ... .. . ... ... ... : ... .. . ... ... ... : ... .. . ... ... ... : ... .. . ... ... ... : ... .. . ... ... ...
ROW 12 : C#5 02 . ... ... ... : ... .. . ... ... ... : ... .. . ... ... ... : ... .. . ... ... ... : ... .. . ... ... ... : ... .. . ... ... ...
ROW 13 : C#4 02 B ... ... ... : ... .. . ... ... ... : ... .. . ... ... ... : ... .. . ... ... ... : ... .. . ... ... ... : ... .. . ... ... ...
ROW 14 : F#4 02 . ... ... ... : ... .. . ... ... ... : ... .. . ... ... ... : ... .. . ... ... ... : ... .. . ... ... ... : ... .. . ... ... ...
ROW 15 : F#5 02 A ... ... ... : F#3 02 7 ... ... ... : --- .. . ... ... ... : ... .. . ... ... ... : ... .. . ... ... ... : ... .. . ... ... ...
ROW 16 : B-4 01 . ... ... ... : G#2 02 . ... ... ... : ... .. . ... ... ... : ... .. . ... ... ... : ... .. . ... ... ... : ... .. 1 ... ... ...
ROW 17 : B-3 01 B ... ... ... : F#2 00 . ... ... ... : ... .. . ... ... ... : ... .. . ... ... ... : ... .. . ... ... ... : ... .. . ... ... ...
ROW 18 : C#4 01 . ... ... ... : A-2 00 C ... ... ... : D-4 00 . ... ... ... : 9-# 00 9 ... ... ... : D-1 05 . ... ... ... : A-1 04 6 I02 J40 ...
ROW 19 : C#5 01 A ... ... ... : A-2 01 . ... ... ... : D-3 00 . ... ... ... : 5-# 00 6 ... ... ... : ... .. . ... ... ... : ... .. . ... ... ...
ROW 1A : F#5 00 . ... ... ... : A-2 02 . ... ... ... : ... .. . ... ... ... : 8-# 00 8 ... ... ... : ... .. . ... ... ... : ... .. 5 ... ... ...
ROW 1B : B-3 00 B ... ... ... : ... .. . ... ... ... : ... .. . ... ... ... : A-# 00 6 ... ... ... : ... .. . ... ... ... : ... .. 4 ... ... ...
ROW 1C : ... .. . ... ... ... : ... .. . ... ... ... : ... .. . ... ... ... : B-# 00 7 ... ... ... : ... .. . ... ... ... : ... .. . ... ... ...
ROW 1D : B-4 00 A ... ... ... : ... .. . ... ... ... : ... .. . ... ... ... : C-# 00 6 ... ... ... : ... .. . ... ... ... : ... .. . ... ... ...
ROW 1E : C#5 00 . ... ... ... : ... .. . ... ... ... : ... .. . ... ... ... : 9-# 00 9 ... ... ... : D-1 05 . ... ... ... : ... .. . ... ... ...
ROW 1F : C#4 00 B ... ... ... : ... .. . ... ... ... : ... .. . ... ... ... : 5-# 00 6 ... ... ... : ... .. . ... ... ... : ... .. . ... ... ...
ROW 20 : F#4 00 . ... ... ... : ... .. . ... ... ... : ... .. . ... ... ... : 8-# 00 8 ... ... ... : ... .. . ... ... ... : ... .. . ... ... ...
ROW 21 : F#5 01 A ... ... ... : ... .. . ... ... ... : ... .. . ... ... ... : A-# 00 6 ... ... ... : ... .. . ... ... ... : ... .. . ... ... ...
ROW 22 : B-4 01 . ... ... ... : G#3 02 7 ... ... ... : --- .. . ... ... ... : B-# 00 7 ... ... ... : ... .. . ... ... ... : ... .. . ... ... ...
ROW 23 : B-3 01 B ... ... ... : A#2 02 . ... ... ... : ... .. . ... ... ... : C-# 00 6 ... ... ... : ... .. . ... ... ... : ... .. 1 ... ... ...
ROW 24 : C#4 01 . ... ... ... : G#2 00 . ... ... ... : ... .. . ... ... ... : ... .. . ... ... ... : ... .. . ... ... ... : ... .. . ... ... ...
ROW 25 : C#5 02 A ... ... ... : F#2 00 C ... ... ... : B-3 00 . ... ... ... : 9-# 00 9 ... ... ... : D-1 05 . ... ... ... : ... .. . ... ... ...
ROW 26 : F#5 02 . ... ... ... : F#2 01 . ... ... ... : B-2 00 . ... ... ... : 5-# 00 6 ... ... ... : ... .. . ... ... ... : ... .. 5 ... ... ...
ROW 27 : B-3 02 B ... ... ... : F#2 02 . ... ... ... : ... .. . ... ... ... : 8-# 00 8 ... ... ... : ... .. . ... ... ... : ... .. . ... ... ...
ROW 28 : ... .. . ... ... ... : ... .. . ... ... ... : ... .. . ... ... ... : A-# 00 6 ... ... ... : ... .. . ... ... ... : ... .. . ... ... ...
ROW 29 : B-4 02 A ... ... ... : ... .. . ... ... ... : ... .. . ... ... ... : B-# 00 7 ... ... ... : ... .. . ... ... ... : ... .. 4 ... ... ...
ROW 2A : C#5 01 . ... ... ... : ... .. . ... ... ... : ... .. . ... ... ... : C-# 00 6 ... ... ... : ... .. . ... ... ... : ... .. . ... ... ...
ROW 2B : C#4 01 . ... ... ... : ... .. . ... ... ... : ... .. . ... ... ... : ... .. 5 ... ... ... : D-1 05 . ... ... ... : ... .. . ... ... ...
ROW 2C : F#4 01 . ... ... ... : ... .. . ... ... ... : ... .. . ... ... ... : ... .. . ... ... ... : ... .. . ... ... ... : ... .. . ... ... ...
ROW 2D : F#5 01 9 ... ... ... : ... .. . ... ... ... : ... .. . ... ... ... : ... .. . ... ... ... : ... .. . ... ... ... : ... .. . ... ... ...
ROW 2E : B-4 00 . ... ... ... : ... .. . ... ... ... : ... .. . ... ... ... : ... .. 4 ... ... ... : ... .. . ... ... ... : ... .. . ... ... ...
ROW 2F : B-3 00 A ... ... ... : A-3 02 7 ... ... ... : --- .. . ... ... ... : ... .. . ... ... ... : ... .. . ... ... ... : ... .. . ... ... ...
ROW 30 : C#4 00 . ... ... ... : B-2 02 . ... ... ... : ... .. . ... ... ... : ... .. . ... ... ... : ... .. . ... ... ... : ... .. 1 ... ... ...
ROW 31 : C#5 00 9 ... ... ... : A-2 00 . ... ... ... : ... .. . ... ... ... : ... .. . ... ... ... : ... .. . ... ... ... : ... .. . ... ... ...
ROW 32 : F#5 00 . ... ... ... : G#2 00 C ... ... ... : C#4 00 . ... ... ... : 9-# 00 9 ... ... ... : D-1 05 . ... ... ... : A-3 04 5 I02 J44 ...
ROW 33 : B-3 00 A ... ... ... : G#2 01 . ... ... ... : C#3 00 . ... ... ... : 5-# 00 6 ... ... ... : ... .. . ... ... ... : ... .. . ... ... ...
ROW 34 : ... .. . ... ... ... : G#2 02 . ... ... ... : ... .. . ... ... ... : 8-# 00 8 ... ... ... : ... .. . ... ... ... : ... .. 4 ... ... ...
ROW 35 : B-4 01 9 ... ... ... : ... .. . ... ... ... : ... .. . ... ... ... : A-# 00 6 ... ... ... : ... .. . ... ... ... : ... .. . ... ... ...
ROW 36 : C#5 01 . ... ... ... : ... .. . ... ... ... : ... .. . ... ... ... : B-# 00 7 ... ... ... : ... .. . ... ... ... : ... .. . ... ... ...
ROW 37 : C#4 01 A ... ... ... : ... .. . ... ... ... : ... .. . ... ... ... : C-# 00 6 ... ... ... : ... .. . ... ... ... : ... .. 3 ... ... ...
ROW 38 : F#4 01 9 ... ... ... : ... .. . ... ... ... : ... .. . ... ... ... : 9-# 00 9 ... ... ... : D-1 05 . ... ... ... : ... .. . ... ... ...
ROW 39 : F#5 02 8 ... ... ... : ... .. . ... ... ... : ... .. . ... ... ... : 5-# 00 6 ... ... ... : ... .. . ... ... ... : ... .. . ... ... ...
ROW 3A : B-4 02 . ... ... ... : ... .. . ... ... ... : ... .. . ... ... ... : 8-# 00 8 ... ... ... : ... .. . ... ... ... : ... .. . ... ... ...
ROW 3B : B-3 02 9 ... ... ... : ... .. . ... ... ... : ... .. . ... ... ... : A-# 00 6 ... ... ... : ... .. . ... ... ... : ... .. . ... ... ...
ROW 3C : C#4 02 . ... ... ... : F#3 02 7 ... ... ... : --- .. . ... ... ... : B-# 00 7 ... ... ... : ... .. . ... ... ... : ... .. . ... ... ...
ROW 3D : C#5 02 8 ... ... ... : G#2 02 . ... ... ... : ... .. . ... ... ... : C-# 00 6 ... ... ... : ... .. . ... ... ... : ... .. . ... ... ...
ROW 3E : F#5 01 . ... ... ... : F#2 00 . ... ... ... : ... .. . ... ... ... : ... .. . ... ... ... : ... .. . ... ... ... : ... .. 1 ... ... ...
ROW 3F : B-3 01 9 ... ... ... : A-2 00 C ... ... ... : D-4 00 . ... ... ... : 9-# 00 9 ... ... ... : D-1 05 . ... ... ... : E-3 04 5 I02 J43 ...
ROW 40 : ... .. . ... ... ... : A-2 01 . ... ... ... : D-3 00 . ... ... ... : 5-# 00 6 ... ... ... : ... .. . ... ... ... : ... .. . ... ... ...
ROW 41 : B-4 01 8 ... ... ... : A-2 02 . ... ... ... : ... .. . ... ... ... : 8-# 00 8 ... ... ... : ... .. . ... ... ... : ... .. 4 ... ... ...
ROW 42 : C#5 00 . ... ... ... : ... .. . ... ... ... : ... .. . ... ... ... : A-# 00 6 ... ... ... : ... .. . ... ... ... : ... .. . ... ... ...
ROW 43 : C#4 00 9 ... ... ... : ... .. . ... ... ... : ... .. . ... ... ... : B-# 00 7 ... ... ... : ... .. . ... ... ... : ... .. . ... ... ...
ROW 44 : F#4 00 . ... ... ... : ... .. . ... ... ... : ... .. . ... ... ... : C-# 00 6 ... ... ... : ... .. . ... ... ... : ... .. 3 ... ... ...
ROW 45 : F#5 00 7 ... ... ... : ... .. . ... ... ... : ... .. . ... ... ... : ... .. 5 ... ... ... : D-1 05 . ... ... ... : ... .. . ... ... ...
ROW 46 : B-4 00 . ... ... ... : ... .. . ... ... ... : ... .. . ... ... ... : ... .. . ... ... ... : ... .. . ... ... ... : ... .. . ... ... ...
ROW 47 : B-3 00 8 ... ... ... : ... .. . ... ... ... : ... .. . ... ... ... : ... .. . ... ... ... : ... .. . ... ... ... : ... .. . ... ... ...
ROW 48 : C#4 00 . ... ... ... : ... .. . ... ... ... : ... .. . ... ... ... : ... .. 4 ... ... ... : ... .. . ... ... ... : ... .. . ... ... ...
ROW 49 : C#5 01 7 ... ... ... : G#3 02 7 ... ... ... : --- .. . ... ... ... : ... .. . ... ... ... : ... .. . ... ... ... : ... .. . ... ... ...
ROW 4A : F#5 01 . ... ... ... : A#2 02 . ... ... ... : ... .. . ... ... ... : ... .. . ... ... ... : ... .. . ... ... ... : ... .. 1 ... ... ...
ROW 4B : B-3 01 8 ... ... ... : G#2 00 . ... ... ... : ... .. . ... ... ... : ... .. . ... ... ... : ... .. . ... ... ... : ... .. . ... ... ...
ROW 4C : ... .. . ... ... ... : A-2 00 8 ... ... ... : B-2 00 . ... ... ... : 9-# 00 9 ... ... ... : D-1 05 . ... ... ... : A-2 04 . I02 J44 ...
ROW 4D : B-4 02 7 ... ... ... : A-2 01 . ... ... ... : B-1 00 . ... ... ... : 5-# 00 6 ... ... ... : ... .. . ... ... ... : ... .. 5 ... ... ...
ROW 4E : C#5 02 . ... ... ... : A-2 02 . ... ... ... : ... .. . ... ... ... : 8-# 00 8 ... ... ... : ... .. . ... ... ... : ... .. . ... ... ...
ROW 4F : C#4 02 8 ... ... ... : ... .. . ... ... ... : ... .. . ... ... ... : A-# 00 6 ... ... ... : ... .. . ... ... ... : ... .. 4 ... ... ...
ROW 50 : F#4 02 . ... ... ... : ... .. . ... ... ... : ... .. . ... ... ... : B-# 00 7 ... ... ... : ... .. . ... ... ... : ... .. . ... ... ...
ROW 51 : F#5 02 7 ... ... ... : ... .. . ... ... ... : ... .. . ... ... ... : C-# 00 6 ... ... ... : ... .. . ... ... ... : ... .. . ... ... ...
ROW 52 : B-4 01 6 ... ... ... : ... .. . ... ... ... : ... .. . ... ... ... : ... .. 5 ... ... ... : ... .. . ... ... ... : ... .. . ... ... ...
ROW 53 : B-3 01 7 ... ... ... : ... .. . ... ... ... : ... .. . ... ... ... : ... .. . ... ... ... : ... .. . ... ... ... : ... .. . ... ... ...
ROW 54 : C#4 01 . ... ... ... : ... .. . ... ... ... : ... .. . ... ... ... : ... .. . ... ... ... : ... .. . ... ... ... : ... .. . ... ... ...
ROW 55 : C#5 01 6 ... ... ... : ... .. . ... ... ... : ... .. . ... ... ... : ... .. 4 ... ... ... : ... .. . ... ... ... : ... .. . ... ... ...
ROW 56 : F#5 00 . ... ... ... : A-3 02 4 ... ... ... : ... .. . ... ... ... : ... .. . ... ... ... : ... .. . ... ... ... : ... .. . ... ... ...
ROW 57 : B-3 00 7 ... ... ... : B-2 02 . ... ... ... : --- .. . ... ... ... : ... .. . ... ... ... : ... .. . ... ... ... : ... .. 1 ... ... ...
ROW 58 : ... .. . ... ... ... : A-2 00 . ... ... ... : ... .. . ... ... ... : ... .. . ... ... ... : ... .. . ... ... ... : ... .. . ... ... ...
ROW 59 : B-4 00 6 ... ... ... : ... .. 5 ... ... ... : B-2 00 . ... ... ... : 3-# 00 B ... ... ... : E-1 05 . ... ... ... : ... .. 6 ... ... ...
ROW 5A : C#5 00 . ... ... ... : A-2 01 . ... ... ... : B-1 00 . ... ... ... : ... .. . ... ... ... : ... .. . ... ... ... : ... .. 5 ... ... ...
ROW 5B : C#4 00 7 ... ... ... : A-2 02 . ... ... ... : ... .. . ... ... ... : ... .. . ... ... ... : ... .. . ... ... ... : ... .. . ... ... ...
ROW 5C : F#4 00 . ... ... ... : ... .. . ... ... ... : ... .. . ... ... ... : ... .. . ... ... ... : ... .. . ... ... ... : ... .. 4 ... ... ...
ROW 5D : F#5 01 6 ... ... ... : ... .. . ... ... ... : ... .. . ... ... ... : ... .. . ... ... ... : ... .. . ... ... ... : ... .. . ... ... ...
ROW 5E : B-4 01 . ... ... ... : ... .. . ... ... ... : ... .. . ... ... ... : 4-# 00 . ... ... ... : ... .. . ... ... ... : ... .. . ... ... ...
ROW 5F : B-3 01 . ... ... ... : ... .. . ... ... ... : ... .. . ... ... ... : ... .. . ... ... ... : E-1 05 . ... ... ... : ... .. . ... ... ...
ROW 60 : C#4 01 . ... ... ... : ... .. . ... ... ... : ... .. . ... ... ... : ... .. . ... ... ... : ... .. . ... ... ... : ... .. . ... ... ...
ROW 61 : C#5 02 5 ... ... ... : ... .. . ... ... ... : ... .. . ... ... ... : ... .. . ... ... ... : ... .. . ... ... ... : ... .. . ... ... ...
ROW 62 : F#5 02 . ... ... ... : ... .. . ... ... ... : ... .. . ... ... ... : 5-# 00 A ... ... ... : ... .. . ... ... ... : ... .. . ... ... ...
ROW 63 : B-3 02 6 ... ... ... : A-3 02 3 ... ... ... : ... .. . ... ... ... : ... .. . ... ... ... : ... .. . ... ... ... : ... .. . ... ... ...
ROW 64 : ... .. . ... ... ... : B-2 02 . ... ... ... : --- .. . ... ... ... : ... .. . ... ... ... : ... .. . ... ... ... : ... .. 1 ... ... ...
ROW 65 : B-4 02 5 ... ... ... : A-2 00 . ... ... ... : ... .. . ... ... ... : ... .. . ... ... ... : ... .. . ... ... ... : ... .. . ... ... ...
ROW 66 : C#5 01 . ... ... ... : ... .. . ... ... ... : B-3 00 . ... ... ... : ... .. . ... ... ... : F-1 05 . ... ... ... : C#4 04 5 I02 J49 ...
ROW 67 : C#4 01 6 ... ... ... : A-2 01 . ... ... ... : B-2 00 . ... ... ... : ... .. . ... ... ... : ... .. . ... ... ... : ... .. . ... ... ...
ROW 68 : F#4 01 . ... ... ... : A-2 02 . ... ... ... : ... .. . ... ... ... : 6-# 00 . ... ... ... : ... .. . ... ... ... : ... .. 4 ... ... ...
ROW 69 : F#5 01 5 ... ... ... : ... .. . ... ... ... : ... .. . ... ... ... : ... .. . ... ... ... : ... .. . ... ... ... : ... .. . ... ... ...
ROW 6A : B-4 00 . ... ... ... : ... .. . ... ... ... : ... .. . ... ... ... : ... .. . ... ... ... : ... .. . ... ... ... : ... .. . ... ... ...
ROW 6B : B-3 00 6 ... ... ... : ... .. . ... ... ... : ... .. . ... ... ... : ... .. . ... ... ... : ... .. . ... ... ... : ... .. 3 ... ... ...
ROW 6C : C#4 00 5 ... ... ... : ... .. . ... ... ... : ... .. . ... ... ... : 7-# 00 9 ... ... ... : F-1 05 . ... ... ... : ... .. . ... ... ...
ROW 6D : C#5 00 4 ... ... ... : ... .. . ... ... ... : ... .. . ... ... ... : ... .. . ... ... ... : ... .. . ... ... ... : ... .. . ... ... ...
ROW 6E : F#5 00 . ... ... ... : ... .. . ... ... ... : ... .. . ... ... ... : ... .. . ... ... ... : ... .. . ... ... ... : ... .. . ... ... ...
ROW 6F : B-3 00 5 ... ... ... : ... .. . ... ... ... : ... .. . ... ... ... : ... .. . ... ... ... : ... .. . ... ... ... : ... .. . ... ... ...
ROW 70 : ... .. . ... ... ... : A-3 02 2 ... ... ... : ... .. . ... ... ... : ... .. . ... ... ... : ... .. . ... ... ... : ... .. . ... ... ...
ROW 71 : B-4 01 4 ... ... ... : B-2 02 . ... ... ... : --- .. . ... ... ... : 8-# 00 . ... ... ... : ... .. . ... ... ... : ... .. . ... ... ...
ROW 72 : C#5 01 . ... ... ... : A-2 00 . ... ... ... : ... .. . ... ... ... : ... .. . ... ... ... : ... .. . ... ... ... : ... .. 1 ... ... ...
ROW 73 : C#4 01 5 ... ... ... : ... .. 3 ... ... ... : B-2 00 . ... ... ... : ... .. . ... ... ... : F#1 05 . ... ... ... : E-3 04 5 I02 J43 ...
ROW 74 : F#4 01 . ... ... ... : A-2 01 . ... ... ... : B-1 00 . ... ... ... : ... .. . ... ... ... : ... .. . ... ... ... : ... .. . ... ... ...
ROW 75 : F#5 02 4 ... ... ... : A-2 02 . ... ... ... : ... .. . ... ... ... : ... .. . ... ... ... : ... .. . ... ... ... : ... .. 4 ... ... ...
ROW 76 : B-4 02 . ... ... ... : ... .. . ... ... ... : ... .. . ... ... ... : 9-# 00 8 ... ... ... : ... .. . ... ... ... : ... .. . ... ... ...
ROW 77 : B-3 02 5 ... ... ... : ... .. . ... ... ... : ... .. . ... ... ... : ... .. . ... ... ... : ... .. . ... ... ... : ... .. . ... ... ...
ROW 78 : C#4 02 . ... ... ... : ... .. . ... ... ... : ... .. . ... ... ... : ... .. . ... ... ... : ... .. . ... ... ... : ... .. 3 ... ... ...
ROW 79 : C#5 02 4 ... ... ... : ... .. . ... ... ... : ... .. . ... ... ... : ... .. . ... ... ... : F#1 05 . ... ... ... : ... .. . ... ... ...
ROW 7A : F#5 01 . ... ... ... : ... .. . ... ... ... : ... .. . ... ... ... : ... .. . ... ... ... : ... .. . ... ... ... : ... .. . ... ... ...
ROW 7B : B-3 01 5 ... ... ... : ... .. . ... ... ... : ... .. . ... ... ... : A-# 00 . ... ... ... : ... .. . ... ... ... : ... .. . ... ... ...
ROW 7C : ... .. . ... ... ... : A-3 02 1 ... ... ... : ... .. . ... ... ... : ... .. . ... ... ... : ... .. . ... ... ... : ... .. . ... ... ...
ROW 7D : B-4 01 4 ... ... ... : B-2 02 . ... ... ... : ... .. . ... ... ... : ... .. . ... ... ... : ... .. . ... ... ... : ... .. . ... ... ...
ROW 7E : C#5 00 . ... ... ... : A-2 00 . ... ... ... : --- .. . ... ... ... : ... .. 5 ... ... ... : ... .. . ... ... ... : ... .. 1 ... ... ...
ROW 7F : C#4 00 5 ... ... ... : A-2 01 . ... ... ... : ... .. . ... ... ... : ... .. . ... ... ... : ... .. . ... ... ... : ... .. . ... ... ...
ROW 80 : B-2 02 9 ... ... ... : F#3 00 C P81 ... ... : C#3 00 . P83 ... ... : 8-# 00 C ... ... ... : C-1 05 . ... ... ... : F#3 04 7 I05 J16 ...
ROW 81 : B-2 01 . ... ... ... : F#3 03 . ... ... ... : ... .. . ... ... ... : 4-# 00 8 ... ... ... : ... .. . ... ... ... : ... .. 6 ... ... ...
ROW 82 : ... .. . ... ... ... : F#3 02 . ... ... ... : ... .. . ... ... ... : 7-# 00 B ... ... ... : ... .. . ... ... ... : ... .. 5 ... ... ...
ROW 83 : ... .. . P8C ... ... : F#3 01 . P87 ... ... : ... .. . ... ... ... : 9-# 00 8 ... ... ... : ... .. . ... ... ... : ... .. . ... ... ...
ROW 84 : ... .. . P86 ... ... : ... .. . P84 ... ... : ... .. . ... ... ... : A-# 00 9 ... ... ... : ... .. . ... ... ... : ... .. . ... ... ...
ROW 85 : ... .. . P7A ... ... : ... .. . P7D ... ... : ... .. . ... ... ... : B-# 00 8 ... ... ... : ... .. . ... ... ... : ... .. 4 ... ... ...
ROW 86 : ... .. . P77 ... ... : ... .. . P7B ... ... : ... .. . ... ... ... : ... .. . ... ... ... : ... .. . ... ... ... : ... .. . ... ... ...
ROW 87 : ... .. . P82 ... ... : ... .. . P81 ... ... : ... .. . ... ... ... : ... .. . ... ... ... : ... .. . ... ... ... : ... .. . ... ... ...
ROW 88 : ... .. . P8C ... ... : ... .. . P87 ... ... : ... .. . ... ... ... : ... .. . ... ... ... : ... .. . ... ... ... : ... .. . ... ... ...
ROW 89 : ... .. . P85 ... ... : ... .. . P83 ... ... : ... .. . ... ... ... : ... .. 7 ... ... ... : ... .. . ... ... ... : ... .. . ... ... ...
ROW 8A : ... .. . P79 ... ... : ... .. . P7D ... ... : ... .. . ... ... ... : ... .. . ... ... ... : ... .. . ... ... ... : ... .. . ... ... ...
ROW 8B : ... .. 4 P78 ... ... : ... .. . P7C ... ... : --- .. . ... ... ... : ... .. . ... ... ... : ... .. . ... ... ... : ... .. 2 ... ... ...
ROW 8C : ... .. . P83 ... ... : ... .. . P82 ... ... : ... .. . ... ... ... : ... .. . ... ... ... : ... .. . ... ... ... : ... .. . ... ... ...
ROW 8D : G#1 02 9 P81 ... ... : C#2 00 A P81 ... ... : C#3 00 . ... ... ... : ... .. 6 ... ... ... : C#1 05 . ... ... ... : B-2 04 7 I02 J8C ...
ROW 8E : G#1 01 . ... ... ... : C#2 01 . ... ... ... : ... .. . ... ... ... : ... .. . ... ... ... : ... .. . ... ... ... : ... .. 6 ... ... ...
ROW 8F : ... .. . ... ... ... : C#2 02 . ... ... ... : ... .. . ... ... ... : ... .. . ... ... ... : ... .. . ... ... ... : ... .. 5 ... ... ...
ROW 90 : ... .. . ... ... ... : ... .. . ... ... ... : ... .. . ... ... ... : ... .. . ... ... ... : ... .. . ... ... ... : ... .. . ... ... ...
ROW 91 : ... .. 4 ... ... ... : ... .. 3 ... ... ... : ... .. . ... ... ... : ... .. . ... ... ... : ... .. . ... ... ... : ... .. 4 ... ... ...
ROW 92 : ... .. . ... ... ... : ... .. . ... ... ... : --- .. . ... ... ... : ... .. 5 ... ... ... : ... .. . ... ... ... : ... .. 2 ... ... ...
ROW 93 : G#1 02 9 ... ... ... : C#2 00 A ... ... ... : C#3 00 . ... ... ... : ... .. . ... ... ... : C#1 05 . ... ... ... : ... .. 7 ... ... ...
ROW 94 : G#1 01 . ... ... ... : C#2 01 . ... ... ... : ... .. . ... ... ... : ... .. . ... ... ... : ... .. . ... ... ... : ... .. 6 ... ... ...
ROW 95 : ... .. . ... ... ... : C#2 02 . ... ... ... : ... .. . ... ... ... : ... .. . ... ... ... : ... .. . ... ... ... : ... .. 5 ... ... ...
ROW 96 : ... .. . ... ... ... : ... .. . ... ... ... : ... .. . ... ... ... : ... .. . ... ... ... : ... .. . ... ... ... : ... .. . ... ... ...
ROW 97 : ... .. 4 ... ... ... : ... .. 3 ... ... ... : ... .. . ... ... ... : ... .. 4 ... ... ... : ... .. . ... ... ... : ... .. 4 ... ... ...
ROW 98 : ... .. . ... ... ... : ... .. . ... ... ... : --- .. . ... ... ... : ... .. . ... ... ... : ... .. . ... ... ... : ... .. 2 ... ... ...
ROW 99 : ... .. . ... ... ... : ... .. . ... ... ... : ... .. . ... ... ... : ... .. . ... ... ... : ... .. . ... ... ... : ... .. . ... ... ...
ROW 9A : G#1 02 9 ... ... ... : C#2 00 A ... ... ... : C#3 00 . ... ... ... : 7-# 00 B ... ... ... : D-1 05 . ... ... ... : ... .. 7 ... ... ...
ROW 9B : G#1 01 . ... ... ... : C#2 01 . ... ... ... : ... .. . ... ... ... : 3-# 00 8 ... ... ... : ... .. . ... ... ... : ... .. 6 ... ... ...
ROW 9C : ... .. . ... ... ... : C#2 02 . ... ... ... : ... .. . ... ... ... : 6-# 00 A ... ... ... : ... .. . ... ... ... : ... .. 5 ... ... ...
ROW 9D : ... .. . ... ... ... : ... .. . ... ... ... : ... .. . ... ... ... : 8-# 00 8 ... ... ... : ... .. . ... ... ... : ... .. . ... ... ...
ROW 9E : ... .. 4 ... ... ... : ... .. 3 ... ... ... : ... .. . ... ... ... : 9-# 00 . ... ... ... : ... .. . ... ... ... : ... .. 4 ... ... ...
ROW 9F : ... .. . ... ... ... : ... .. . ... ... ... : --- .. . ... ... ... : A-# 00 . ... ... ... : ... .. . ... ... ... : ... .. 2 ... ... ...
ROW A0 : G#1 02 9 ... ... ... : C#2 00 A ... ... ... : C#3 00 . ... ... ... : ... .. . ... ... ... : ... .. . ... ... ... : ... .. 7 ... ... ...
ROW A1 : G#1 01 . ... ... ... : C#2 01 . ... ... ... : ... .. . ... ... ... : ... .. 7 ... ... ... : ... .. . ... ... ... : ... .. 6 ... ... ...
ROW A2 : ... .. . ... ... ... : C#2 02 . ... ... ... : ... .. . ... ... ... : ... .. . ... ... ... : ... .. . ... ... ... : ... .. 5 ... ... ...
ROW A3 : ... .. . ... ... ... : ... .. . ... ... ... : ... .. . ... ... ... : ... .. 4 ... ... ... : ... .. . ... ... ... : ... .. . ... ... ...
ROW A4 : ... .. 4 ... ... ... : ... .. 3 ... ... ... : ... .. . ... ... ... : ... .. . ... ... ... : ... .. . ... ... ... : ... .. 4 ... ... ...
ROW A5 : ... .. . ... ... ... : ... .. . ... ... ... : --- .. . ... ... ... : ... .. . ... ... ... : ... .. . ... ... ... : ... .. 2 ... ... ...
ROW A6 : ... .. . ... ... ... : ... .. . ... ... ... : ... .. . ... ... ... : ... .. . ... ... ... : ... .. . ... ... ... : ... .. . ... ... ...
ROW A7 : B-2 02 9 ... ... ... : F#3 00 C ... ... ... : C#3 00 . ... ... ... : B-# 00 B ... ... ... : C-1 05 . ... ... ... : F#3 04 7 I05 J16 ...
ROW A8 : B-2 01 . ... ... ... : F#3 03 . ... ... ... : ... .. . ... ... ... : 9-# 00 7 ... ... ... : ... .. . ... ... ... : ... .. 6 ... ... ...
ROW A9 : ... .. . ... ... ... : F#3 02 . ... ... ... : ... .. . ... ... ... : A-# 00 4 ... ... ... : ... .. . ... ... ... : ... .. 5 ... ... ...
ROW AA : ... .. . P8C ... ... : F#3 01 . P87 ... ... : ... .. . ... ... ... : ... .. . ... ... ... : ... .. . ... ... ... : ... .. . ... ... ...
ROW AB : ... .. . P86 ... ... : ... .. . P84 ... ... : ... .. . ... ... ... : ... .. . ... ... ... : ... .. . ... ... ... : ... .. . ... ... ...
ROW AC : ... .. . P7A ... ... : ... .. . P7D ... ... : ... .. . ... ... ... : ... .. 2 ... ... ... : ... .. . ... ... ... : ... .. 4 ... ... ...
ROW AD : ... .. . P77 ... ... : ... .. . P7B ... ... : ... .. . ... ... ... : ... .. . ... ... ... : ... .. . ... ... ... : ... .. . ... ... ...
ROW AE : ... .. . P82 ... ... : ... .. . P81 ... ... : ... .. . ... ... ... : ... .. 1 ... ... ... : ... .. . ... ... ... : ... .. . ... ... ...
ROW AF : ... .. . P8C ... ... : ... .. . P87 ... ... : ... .. . ... ... ... : ... .. . ... ... ... : ... .. . ... ... ... : ... .. . ... ... ...
ROW B0 : ... .. . P85 ... ... : ... .. . P83 ... ... : ... .. . ... ... ... : ... .. 3 ... ... ... : ... .. . ... ... ... : ... .. . ... ... ...
ROW B1 : ... .. . P79 ... ... : ... .. . P7D ... ... : ... .. . ... ... ... : ... .. 1 ... ... ... : ... .. . ... ... ... : ... .. . ... ... ...
ROW B2 : ... .. 4 P78 ... ... : ... .. . P7C ... ... : --- .. . ... ... ... : ... .. . ... ... ... : ... .. . ... ... ... : ... .. 2 ... ... ...
ROW B3 : ... .. . P83 ... ... : ... .. . P82 ... ... : ... .. . ... ... ... : ... .. . ... ... ... : ... .. . ... ... ... : ... .. . ... ... ...
ROW B4 : G#1 02 9 P81 ... ... : C#2 00 A P81 ... ... : C#3 00 . ... ... ... : 7-# 00 B ... ... ... : C#1 05 . ... ... ... : B-2 04 7 I02 J8C ...
ROW B5 : G#1 01 . ... ... ... : C#2 01 . ... ... ... : ... .. . ... ... ... : 3-# 00 8 ... ... ... : ... .. . ... ... ... : ... .. 6 ... ... ...
ROW B6 : ... .. . ... ... ... : C#2 02 . ... ... ... : ... .. . ... ... ... : 6-# 00 A ... ... ... : ... .. . ... ... ... : ... .. 5 ... ... ...
ROW B7 : ... .. . ... ... ... : ... .. . ... ... ... : ... .. . ... ... ... : 8-# 00 8 ... ... ... : ... .. . ... ... ... : ... .. . ... ... ...
ROW B8 : ... .. 4 ... ... ... : ... .. 3 ... ... ... : ... .. . ... ... ... : 9-# 00 . ... ... ... : ... .. . ... ... ... : ... .. 4 ... ... ...
ROW B9 : ... .. . ... ... ... : ... .. . ... ... ... : --- .. . ... ... ... : A-# 00 . ... ... ... : ... .. . ... ... ... : ... .. 2 ... ... ...
ROW BA : G#1 02 9 ... ... ... : C#2 00 A ... ... ... : C#3 00 . ... ... ... : ... .. . ... ... ... : C#1 05 . ... ... ... : ... .. 7 ... ... ...
ROW BB : G#1 01 . ... ... ... : C#2 01 . ... ... ... : ... .. . ... ... ... : ... .. 7 ... ... ... : ... .. . ... ... ... : ... .. 6 ... ... ...
ROW BC : ... .. . ... ... ... : C#2 02 . ... ... ... : ... .. . ... ... ... : ... .. . ... ... ... : ... .. . ... ... ... : ... .. 5 ... ... ...
ROW BD : ... .. . ... ... ... : ... .. . ... ... ... : ... .. . ... ... ... : ... .. 4 ... ... ... : ... .. . ... ... ... : ... .. . ... ... ...
ROW BE : ... .. 4 ... ... ... : ... .. 3 ... ... ... : ... .. . ... ... ... : ... .. . ... ... ... : ... .. . ... ... ... : ... .. 4 ... ... ...
ROW BF : ... .. . ... ... ... : ... .. . ... ... ... : --- .. . ... ... ... : ... .. . ... ... ... : ... .. . ... ... ... : ... .. 2 ... ... ...
ROW C0 : ... .. . ... ... ... : ... .. . ... ... ... : ... .. . ... ... ... : ... .. . ... ... ... : ... .. . ... ... ... : ... .. . ... ... ...
ROW C1 : G#1 02 9 ... ... ... : C#2 00 A ... ... ... : C#3 00 . ... ... ... : B-# 00 9 ... ... ... : D-1 05 . ... ... ... : ... .. 7 ... ... ...
ROW C2 : G#1 01 . ... ... ... : C#2 01 . ... ... ... : ... .. . ... ... ... : 8-# 00 6 ... ... ... : ... .. . ... ... ... : ... .. 6 ... ... ...
ROW C3 : ... .. . ... ... ... : C#2 02 . ... ... ... : ... .. . ... ... ... : 9-# 00 8 ... ... ... : ... .. . ... ... ... : ... .. 5 ... ... ...
ROW C4 : ... .. . ... ... ... : ... .. . ... ... ... : ... .. . ... ... ... : A-# 00 6 ... ... ... : ... .. . ... ... ... : ... .. . ... ... ...
ROW C5 : ... .. 4 ... ... ... : ... .. 3 ... ... ... : ... .. . ... ... ... : B-# 00 7 ... ... ... : ... .. . ... ... ... : ... .. 4 ... ... ...
ROW C6 : ... .. . ... ... ... : ... .. . ... ... ... : --- .. . ... ... ... : C-# 00 6 ... ... ... : ... .. . ... ... ... : ... .. 2 ... ... ...
ROW C7 : G#1 02 9 ... ... ... : C#2 00 A ... ... ... : C#3 00 . ... ... ... : ... .. . ... ... ... : ... .. . ... ... ... : ... .. 7 ... ... ...
ROW C8 : G#1 01 . ... ... ... : C#2 01 . ... ... ... : ... .. . ... ... ... : B-# 00 . ... ... ... : ... .. . ... ... ... : ... .. 6 ... ... ...
ROW C9 : ... .. . ... ... ... : C#2 02 . ... ... ... : ... .. . ... ... ... : C-# 00 . ... ... ... : ... .. . ... ... ... : ... .. 5 ... ... ...
ROW CA : ... .. . ... ... ... : ... .. . ... ... ... : ... .. . ... ... ... : ... .. 5 ... ... ... : ... .. . ... ... ... : ... .. . ... ... ...
ROW CB : ... .. 4 ... ... ... : ... .. 3 ... ... ... : ... .. . ... ... ... : ... .. . ... ... ... : ... .. . ... ... ... : ... .. 4 ... ... ...
ROW CC : ... .. . ... ... ... : ... .. . ... ... ... : --- .. . ... ... ... : ... .. . ... ... ... : ... .. . ... ... ... : ... .. 2 ... ... ...
ROW CD : ... .. . ... ... ... : ... .. . ... ... ... : ... .. . ... ... ... : ... .. . ... ... ... : ... .. . ... ... ... : ... .. . ... ... ...
ROW CE : B-2 02 9 ... ... ... : F#3 00 C ... ... ... : C#3 00 . ... ... ... : 8-# 00 B ... ... ... : C-1 05 . ... ... ... : F#3 04 7 I05 J16 ...
ROW CF : B-2 01 . ... ... ... : F#3 03 . ... ... ... : ... .. . ... ... ... : 4-# 00 8 ... ... ... : ... .. . ... ... ... : ... .. 6 ... ... ...
ROW D0 : ... .. . ... ... ... : F#3 02 . ... ... ... : ... .. . ... ... ... : 7-# 00 A ... ... ... : ... .. . ... ... ... : ... .. 5 ... ... ...
ROW D1 : ... .. . P8C ... ... : F#3 01 . P87 ... ... : ... .. . ... ... ... : 9-# 00 8 ... ... ... : ... .. . ... ... ... : ... .. . ... ... ...
ROW D2 : ... .. . P86 ... ... : ... .. . P84 ... ... : ... .. . ... ... ... : A-# 00 . ... ... ... : ... .. . ... ... ... : ... .. . ... ... ...
ROW D3 : ... .. . P7A ... ... : ... .. . P7D ... ... : ... .. . ... ... ... : B-# 00 . ... ... ... : ... .. . ... ... ... : ... .. 4 ... ... ...
ROW D4 : ... .. . P77 ... ... : ... .. . P7B ... ... : ... .. . ... ... ... : ... .. . ... ... ... : ... .. . ... ... ... : ... .. . ... ... ...
ROW D5 : ... .. . P82 ... ... : ... .. . P81 ... ... : ... .. . ... ... ... : ... .. 7 ... ... ... : ... .. . ... ... ... : ... .. . ... ... ...
ROW D6 : ... .. . P8C ... ... : ... .. . P87 ... ... : ... .. . ... ... ... : ... .. . ... ... ... : ... .. . ... ... ... : ... .. . ... ... ...
ROW D7 : ... .. . P85 ... ... : ... .. . P83 ... ... : ... .. . ... ... ... : ... .. 4 ... ... ... : ... .. . ... ... ... : ... .. . ... ... ...
ROW D8 : ... .. . P79 ... ... : ... .. . P7D ... ... : ... .. . ... ... ... : ... .. . ... ... ... : ... .. . ... ... ... : ... .. . ... ... ...
ROW D9 : ... .. 4 P78 ... ... : ... .. . P7C ... ... : --- .. . ... ... ... : ... .. . ... ... ... : ... .. . ... ... ... : ... .. 2 ... ... ...
ROW DA : ... .. . P83 ... ... : ... .. . P82 ... ... : ... .. . ... ... ... : ... .. . ... ... ... : ... .. . ... ... ... : ... .. . ... ... ...
ROW DB : G#1 02 9 P81 ... ... : C#2 00 A P81 ... ... : C#3 00 . ... ... ... : ... .. B ... ... ... : C#1 05 . ... ... ... : B-2 04 7 I02 J8C ...
ROW DC : G#1 01 . ... ... ... : C#2 01 . ... ... ... : ... .. . ... ... ... : 9-# 00 7 ... ... ... : ... .. . ... ... ... : ... .. 6 ... ... ...
ROW DD : ... .. . ... ... ... : C#2 02 . ... ... ... : ... .. . ... ... ... : A-# 00 4 ... ... ... : ... .. . ... ... ... : ... .. 5 ... ... ...
ROW DE : ... .. . ... ... ... : ... .. . ... ... ... : ... .. . ... ... ... : ... .. . ... ... ... : ... .. . ... ... ... : ... .. . ... ... ...
ROW DF : ... .. 4 ... ... ... : ... .. 3 ... ... ... : ... .. . ... ... ... : ... .. . ... ... ... : ... .. . ... ... ... : ... .. 4 ... ... ...
ROW E0 : ... .. . ... ... ... : ... .. . ... ... ... : --- .. . ... ... ... : ... .. 2 ... ... ... : ... .. . ... ... ... : ... .. 2 ... ... ...
ROW E1 : G#1 02 9 ... ... ... : C#2 00 A ... ... ... : C#3 00 . ... ... ... : ... .. . ... ... ... : C#1 05 . ... ... ... : ... .. 7 ... ... ...
ROW E2 : G#1 01 . ... ... ... : C#2 01 . ... ... ... : ... .. . ... ... ... : ... .. 1 ... ... ... : ... .. . ... ... ... : ... .. 6 ... ... ...
ROW E3 : ... .. . ... ... ... : C#2 02 . ... ... ... : ... .. . ... ... ... : ... .. . ... ... ... : ... .. . ... ... ... : ... .. 5 ... ... ...
ROW E4 : ... .. . ... ... ... : ... .. . ... ... ... : ... .. . ... ... ... : ... .. 3 ... ... ... : ... .. . ... ... ... : ... .. . ... ... ...
ROW E5 : ... .. 4 ... ... ... : ... .. 3 ... ... ... : ... .. . ... ... ... : ... .. 1 ... ... ... : ... .. . ... ... ... : ... .. 4 ... ... ...
ROW E6 : ... .. . ... ... ... : ... .. . ... ... ... : --- .. . ... ... ... : ... .. . ... ... ... : ... .. . ... ... ... : ... .. 2 ... ... ...
ROW E7 : ... .. . ... ... ... : ... .. . ... ... ... : ... .. . ... ... ... : ... .. . ... ... ... : ... .. . ... ... ... : ... .. . ... ... ...
ROW E8 : C#3 02 9 ... ... ... : G-3 00 C ... ... ... : D-3 00 . ... ... ... : 9-# 00 B ... ... ... : D-1 05 . ... ... ... : G-3 04 7 I05 J64 ...
ROW E9 : C#3 01 . ... ... ... : G-3 03 . ... ... ... : ... .. . ... ... ... : 5-# 00 8 ... ... ... : ... .. . ... ... ... : ... .. 6 ... ... ...
ROW EA : ... .. . ... ... ... : G-3 02 . ... ... ... : ... .. . ... ... ... : 8-# 00 A ... ... ... : ... .. . ... ... ... : ... .. 5 ... ... ...
ROW EB : D-3 01 . P75 ... ... : G-3 01 . P87 ... ... : ... .. . ... ... ... : A-# 00 8 ... ... ... : ... .. . ... ... ... : ... .. . ... ... ...
ROW EC : C#3 01 . P86 ... ... : ... .. . P84 ... ... : ... .. . ... ... ... : B-# 00 . ... ... ... : ... .. . ... ... ... : ... .. . ... ... ...
ROW ED : ... .. . P7A ... ... : ... .. . P7D ... ... : ... .. . ... ... ... : C-# 00 . ... ... ... : ... .. . ... ... ... : ... .. 4 ... ... ...
ROW EE : ... .. . P77 ... ... : ... .. . P7B ... ... : ... .. . ... ... ... : ... .. . ... ... ... : ... .. . ... ... ... : ... .. . ... ... ...
ROW EF : ... .. . P82 ... ... : ... .. . P81 ... ... : ... .. . ... ... ... : ... .. 7 ... ... ... : ... .. . ... ... ... : ... .. . ... ... ...
ROW F0 : D-3 01 . P75 ... ... : ... .. . P87 ... ... : ... .. . ... ... ... : ... .. . ... ... ... : ... .. . ... ... ... : ... .. . ... ... ...
ROW F1 : C#3 01 . P85 ... ... : ... .. . P83 ... ... : ... .. . ... ... ... : ... .. 4 ... ... ... : ... .. . ... ... ... : ... .. . ... ... ...
ROW F2 : ... .. . P79 ... ... : ... .. . P7D ... ... : ... .. . ... ... ... : ... .. . ... ... ... : ... .. . ... ... ... : ... .. . ... ... ...
ROW F3 : ... .. 4 P78 ... ... : ... .. . P7C ... ... : --- .. . ... ... ... : ... .. . ... ... ... : ... .. . ... ... ... : ... .. 2 ... ... ...
ROW F4 : ... .. . P83 ... ... : ... .. . P82 ... ... : ... .. . ... ... ... : ... .. . ... ... ... : ... .. . ... ... ... : ... .. . ... ... ...
ROW F5 : G#1 02 9 P81 ... ... : C#2 00 A P81 ... ... : C#3 00 . ... ... ... : B-# 00 B ... ... ... : C-1 05 . ... ... ... : B-2 04 7 I02 J8C ...
ROW F6 : G#1 01 . ... ... ... : C#2 01 . ... ... ... : ... .. . ... ... ... : 9-# 00 7 ... ... ... : ... .. . ... ... ... : ... .. 6 ... ... ...
ROW F7 : ... .. . ... ... ... : C#2 02 . ... ... ... : ... .. . ... ... ... : A-# 00 4 ... ... ... : ... .. . ... ... ... : ... .. 5 ... ... ...
ROW F8 : ... .. . ... ... ... : ... .. . ... ... ... : ... .. . ... ... ... : ... .. . ... ... ... : ... .. . ... ... ... : ... .. . ... ... ...
ROW F9 : ... .. 4 ... ... ... : ... .. 3 ... ... ... : ... .. . ... ... ... : ... .. . ... ... ... : ... .. . ... ... ... : ... .. 4 ... ... ...
ROW FA : ... .. . ... ... ... : ... .. . ... ... ... : --- .. . ... ... ... : ... .. 2 ... ... ... : ... .. . ... ... ... : ... .. 2 ... ... ...
ROW FB : G#1 02 9 ... ... ... : C#2 00 A ... ... ... : C#3 00 . ... ... ... : ... .. . ... ... ... : C#1 05 . ... ... ... : ... .. 7 ... ... ...
ROW FC : G#1 01 . ... ... ... : C#2 01 . ... ... ... : ... .. . ... ... ... : ... .. 1 ... ... ... : ... .. . ... ... ... : ... .. 6 ... ... ...
ROW FD : ... .. . ... ... ... : C#2 02 . ... ... ... : ... .. . ... ... ... : ... .. . ... ... ... : ... .. . ... ... ... : ... .. 5 ... ... ...
ROW FE : ... .. . ... ... ... : ... .. . ... ... ... : ... .. . ... ... ... : ... .. 3 ... ... ... : ... .. . ... ... ... : ... .. . ... ... ...
ROW FF : ... .. 4 ... ... ... : ... .. 3 ... ... ... : ... .. . ... ... ... : ... .. 1 ... ... ... : ... .. . ... ... ... : ... .. 4 ... ... ...

PATTERN 07
ROW 00 : ... .. . ... ... ... : ... .. . ... ... ... : --- .. . ... ... ... : ... .. . ... ... ... : ... .. . ... ... ... : ... .. 2 ... ... ...
ROW 01 : ... .. . ... ... ... : ... .. . ... ... ... : ... .. . ... ... ... : ... .. . ... ... ... : ... .. . ... ... ... : ... .. . ... ... ...
ROW 02 : C#3 02 9 ... ... ... : G-3 00 C ... ... ... : D-3 00 . ... ... ... : 9-# 00 B ... ... ... : D-1 05 . ... ... ... : G-3 04 7 I05 J64 ...
ROW 03 : C#3 01 . ... ... ... : G-3 03 . ... ... ... : ... .. . ... ... ... : 5-# 00 8 ... ... ... : ... .. . ... ... ... : ... .. 6 ... ... ...
ROW 04 : ... .. . ... ... ... : G-3 02 . ... ... ... : ... .. . ... ... ... : 8-# 00 A ... ... ... : ... .. . ... ... ... : ... .. 5 ... ... ...
ROW 05 : D-3 01 . P75 ... ... : G-3 01 . P87 ... ... : ... .. . ... ... ... : A-# 00 8 ... ... ... : ... .. . ... ... ... : ... .. . ... ... ...
ROW 06 : C#3 01 . P86 ... ... : ... .. . P84 ... ... : ... .. . ... ... ... : B-# 00 . ... ... ... : ... .. . ... ... ... : ... .. . ... ... ...
ROW 07 : ... .. . P7A ... ... : ... .. . P7D ... ... : ... .. . ... ... ... : C-# 00 . ... ... ... : ... .. . ... ... ... : ... .. 4 ... ... ...
ROW 08 : ... .. . P77 ... ... : ... .. . P7B ... ... : ... .. . ... ... ... : ... .. . ... ... ... : ... .. . ... ... ... : ... .. . ... ... ...
ROW 09 : ... .. . P82 ... ... : ... .. . P81 ... ... : ... .. . ... ... ... : ... .. 7 ... ... ... : ... .. . ... ... ... : ... .. . ... ... ...
ROW 0A : D-3 01 . P75 ... ... : ... .. . P87 ... ... : ... .. . ... ... ... : ... .. . ... ... ... : ... .. . ... ... ... : ... .. . ... ... ...
ROW 0B : C#3 01 . P85 ... ... : ... .. . P83 ... ... : ... .. . ... ... ... : ... .. 4 ... ... ... : ... .. . ... ... ... : ... .. . ... ... ...
ROW 0C : ... .. . P79 ... ... : ... .. . P7D ... ... : ... .. . ... ... ... : ... .. . ... ... ... : ... .. . ... ... ... : ... .. . ... ... ...
ROW 0D : ... .. 4 P78 ... ... : ... .. . P7C ... ... : --- .. . ... ... ... : ... .. . ... ... ... : ... .. . ... ... ... : ... .. 2 ... ... ...
ROW 0E : ... .. . P83 ... ... : ... .. . P82 ... ... : ... .. . ... ... ... : ... .. . ... ... ... : ... .. . ... ... ... : ... .. . ... ... ...
ROW 0F : G#1 02 9 P81 ... ... : C#2 00 A P81 ... ... : C#3 00 . ... ... ... : B-# 00 B ... ... ... : C-1 05 . ... ... ... : B-2 04 7 I02 J8C ...
ROW 10 : G#1 01 . ... ... ... : C#2 01 . ... ... ... : ... .. . ... ... ... : 9-# 00 7 ... ... ... : ... .. . ... ... ... : ... .. 6 ... ... ...
ROW 11 : ... .. . ... ... ... : C#2 02 . ... ... ... : ... .. . ... ... ... : A-# 00 4 ... ... ... : ... .. . ... ... ... : ... .. 5 ... ... ...
ROW 12 : ... .. . ... ... ... : ... .. . ... ... ... : ... .. . ... ... ... : ... .. . ... ... ... : ... .. . ... ... ... : ... .. . ... ... ...
ROW 13 : ... .. 4 ... ... ... : ... .. 3 ... ... ... : ... .. . ... ... ... : ... .. . ... ... ... : ... .. . ... ... ... : ... .. 4 ... ... ...
ROW 14 : ... .. . ... ... ... : ... .. . ... ... ... : --- .. . ... ... ... : ... .. 2 ... ... ... : ... .. . ... ... ... : ... .. 2 ... ... ...
ROW 15 : G#1 02 9 ... ... ... : C#2 00 A ... ... ... : C#3 00 . ... ... ... : ... .. . ... ... ... : C#1 05 . ... ... ... : ... .. 7 ... ... ...
ROW 16 : G#1 01 . ... ... ... : C#2 01 . ... ... ... : ... .. . ... ... ... : ... .. 1 ... ... ... : ... .. . ... ... ... : ... .. 6 ... ... ...
ROW 17 : ... .. . ... ... ... : C#2 02 . ... ... ... : ... .. . ... ... ... : ... .. . ... ... ... : ... .. . ... ... ... : ... .. 5 ... ... ...
ROW 18 : ... .. . ... ... ... : ... .. . ... ... ... : ... .. . ... ... ... : ... .. 3 ... ... ... : ... .. . ... ... ... : ... .. . ... ... ...
ROW 19 : ... .. 4 ... ... ... : ... .. 3 ... ... ... : ... .. . ... ... ... : ... .. 1 ... ... ... : ... .. . ... ... ... : ... .. 4 ... ... ...
ROW 1A : ... .. . ... ... ... : ... .. . ... ... ... : --- .. . ... ... ... : ... .. . ... ... ... : ... .. . ... ... ... : ... .. 2 ... ... ...
ROW 1B : ... .. . ... ... ... : ... .. . ... ... ... : ... .. . ... ... ... : ... .. . ... ... ... : ... .. . ... ... ... : ... .. . ... ... ...
ROW 1C : B-2 02 9 ... ... ... : F#3 00 C ... ... ... : C#3 00 . ... ... ... : 8-# 00 B ... ... ... : D-1 05 . ... ... ... : F#3 04 7 I05 J16 ...
ROW 1D : B-2 01 . ... ... ... : F#3 03 . ... ... ... : ... .. . ... ... ... : 4-# 00 8 ... ... ... : ... .. . ... ... ... : ... .. 6 ... ... ...
ROW 1E : ... .. . ... ... ... : F#3 02 . ... ... ... : ... .. . ... ... ... : 7-# 00 A ... ... ... : ... .. . ... ... ... : ... .. 5 ... ... ...
ROW 1F : ... .. . P8C ... ... : F#3 01 . P87 ... ... : ... .. . ... ... ... : 9-# 00 8 ... ... ... : ... .. . ... ... ... : ... .. . ... ... ...
ROW 20 : ... .. . P86 ... ... : ... .. . P84 ... ... : ... .. . ... ... ... : A-# 00 . ... ... ... : ... .. . ... ... ... : ... .. . ... ... ...
ROW 21 : ... .. . P7A ... ... : ... .. . P7D ... ... : ... .. . ... ... ... : B-# 00 . ... ... ... : ... .. . ... ... ... : ... .. 4 ... ... ...
ROW 22 : ... .. . P77 ... ... : ... .. . P7B ... ... : ... .. . ... ... ... : ... .. . ... ... ... : ... .. . ... ... ... : ... .. . ... ... ...
ROW 23 : ... .. . P82 ... ... : ... .. . P81 ... ... : ... .. . ... ... ... : ... .. 7 ... ... ... : ... .. . ... ... ... : ... .. . ... ... ...
ROW 24 : ... .. . P8C ... ... : ... .. . P87 ... ... : ... .. . ... ... ... : ... .. . ... ... ... : ... .. . ... ... ... : ... .. . ... ... ...
ROW 25 : ... .. . P85 ... ... : ... .. . P83 ... ... : ... .. . ... ... ... : ... .. 4 ... ... ... : ... .. . ... ... ... : ... .. . ... ... ...
ROW 26 : ... .. . P79 ... ... : ... .. . P7D ... ... : ... .. . ... ... ... : ... .. . ... ... ... : ... .. . ... ... ... : ... .. . ... ... ...
ROW 27 : ... .. 4 P78 ... ... : ... .. . P7C ... ... : --- .. . ... ... ... : ... .. . ... ... ... : ... .. . ... ... ... : ... .. 2 ... ... ...
ROW 28 : ... .. . P83 ... ... : ... .. . P82 ... ... : ... .. . ... ... ... : ... .. . ... ... ... : ... .. . ... ... ... : ... .. . ... ... ...
ROW 29 : G#1 02 9 P81 ... ... : C#2 00 A P81 ... ... : C#3 00 . ... ... ... : ... .. B ... ... ... : C-1 05 . ... ... ... : B-2 04 7 I02 J8C ...
ROW 2A : G#1 01 . ... ... ... : C#2 01 . ... ... ... : ... .. . ... ... ... : 9-# 00 7 ... ... ... : ... .. . ... ... ... : ... .. 6 ... ... ...
ROW 2B : ... .. . ... ... ... : C#2 02 . ... ... ... : ... .. . ... ... ... : A-# 00 4 ... ... ... : ... .. . ... ... ... : ... .. 5 ... ... ...
ROW 2C : ... .. . ... ... ... : ... .. . ... ... ... : ... .. . ... ... ... : ... .. . ... ... ... : ... .. . ... ... ... : ... .. . ... ... ...
ROW 2D : ... .. 4 ... ... ... : ... .. 3 ... ... ... : ... .. . ... ... ... : ... .. . ... ... ... : ... .. . ... ... ... : ... .. 4 ... ... ...
ROW 2E : ... .. . ... ... ... : ... .. . ... ... ... : --- .. . ... ... ... : ... .. 2 ... ... ... : ... .. . ... ... ... : ... .. 2 ... ... ...
ROW 2F : G#1 02 9 ... ... ... : C#2 00 A ... ... ... : C#3 00 . ... ... ... : ... .. . ... ... ... : C#1 05 . ... ... ... : ... .. 7 ... ... ...
ROW 30 : G#1 01 . ... ... ... : C#2 01 . ... ... ... : ... .. . ... ... ... : ... .. 1 ... ... ... : ... .. . ... ... ... : ... .. 6 ... ... ...
ROW 31 : ... .. . ... ... ... : C#2 02 . ... ... ... : ... .. . ... ... ... : ... .. . ... ... ... : ... .. . ... ... ... : ... .. 5 ... ... ...
ROW 32 : ... .. . ... ... ... : ... .. . ... ... ... : ... .. . ... ... ... : ... .. 3 ... ... ... : ... .. . ... ... ... : ... .. . ... ... ...
ROW 33 : ... .. 4 ... ... ... : ... .. 3 ... ... ... : ... .. . ... ... ... : ... .. 1 ... ... ... : ... .. . ... ... ... : ... .. 4 ... ... ...
ROW 34 : ... .. . ... ... ... : ... .. . ... ... ... : --- .. . ... ... ... : ... .. . ... ... ... : ... .. . ... ... ... : ... .. 2 ... ... ...
ROW 35 : ... .. . ... ... ... : ... .. . ... ... ... : ... .. . ... ... ... : ... .. . ... ... ... : ... .. . ... ... ... : ... .. . ... ... ...
ROW 36 : E-1 00 9 P7C ... ... : E-4 01 D P84 ... ... : A-2 00 . ... ... ... : 8-# 00 C ... ... ... : C-1 05 . ... ... ... : C#3 04 6 I03 JCC ...
ROW 37 : E-1 03 . ... ... ... : E-4 02 . P7D ... ... : ... .. . ... ... ... : 4-# 00 8 ... ... ... : ... .. . ... ... ... : ... .. 5 ... ... ...
ROW 38 : E-1 02 . ... ... ... : D#4 00 . P80 ... ... : ... .. . ... ... ... : 7-# 00 B ... ... ... : ... .. . ... ... ... : ... .. . ... ... ...
ROW 39 : E-1 01 . ... ... ... : ... .. . P82 ... ... : ... .. . ... ... ... : 9-# 00 8 ... ... ... : ... .. . ... ... ... : D-3 04 4 I04 J08 ...
ROW 3A : ... .. . ... ... ... : ... .. . P84 ... ... : ... .. . ... ... ... : A-# 00 9 ... ... ... : ... .. . ... ... ... : ... .. . ... ... ...
ROW 3B : ... .. . ... ... ... : E-4 00 . P7C ... ... : ... .. . ... ... ... : B-# 00 8 ... ... ... : ... .. . ... ... ... : ... .. . ... ... ...
ROW 3C : ... .. . ... ... ... : ... .. . P7E ... ... : ... .. . ... ... ... : ... .. . ... ... ... : ... .. . ... ... ... : ... .. . ... ... ...
ROW 3D : ... .. . ... ... ... : ... .. . P80 ... ... : ... .. . ... ... ... : ... .. . ... ... ... : ... .. . ... ... ... : ... .. . ... ... ...
ROW 3E : ... .. . ... ... ... : ... .. . P81 ... ... : ... .. . ... ... ... : ... .. . ... ... ... : ... .. . ... ... ... : ... .. . ... ... ...
ROW 3F : ... .. . ... ... ... : ... .. . ... ... ... : ... .. . ... ... ... : ... .. 7 ... ... ... : ... .. . ... ... ... : ... .. . ... ... ...
ROW 40 : ... .. . ... ... ... : ... .. . ... ... ... : ... .. . ... ... ... : ... .. . ... ... ... : ... .. . ... ... ... : ... .. . ... ... ...
ROW 41 : ... .. . ... ... ... : ... .. . ... ... ... : ... .. . ... ... ... : ... .. . ... ... ... : ... .. . ... ... ... : ... .. . ... ... ...
ROW 42 : ... .. . ... ... ... : ... .. . ... ... ... : ... .. . ... ... ... : ... .. . ... ... ... : ... .. . ... ... ... : ... .. . ... ... ...
ROW 43 : ... .. . ... ... ... : D#4 01 . ... ... ... : ... .. . ... ... ... : ... .. 6 ... ... ... : ... .. . ... ... ... : ... .. . ... ... ...
ROW 44 : ... .. . ... ... ... : D#4 02 . ... ... ... : ... .. . ... ... ... : ... .. . ... ... ... : ... .. . ... ... ... : ... .. . ... ... ...
ROW 45 : ... .. . ... ... ... : D#4 00 . ... ... ... : ... .. . ... ... ... : ... .. . ... ... ... : ... .. . ... ... ... : ... .. . ... ... ...
ROW 46 : ... .. . ... ... ... : ... .. . ... ... ... : ... .. . ... ... ... : ... .. . ... ... ... : ... .. . ... ... ... : ... .. . ... ... ...
ROW 47 : ... .. . ... ... ... : ... .. . ... ... ... : ... .. . ... ... ... : ... .. . ... ... ... : ... .. . ... ... ... : ... .. . ... ... ...
ROW 48 : ... .. . ... ... ... : ... .. . ... ... ... : ... .. . ... ... ... : ... .. 5 ... ... ... : ... .. . ... ... ... : ... .. . ... ... ...
ROW 49 : ... .. . ... ... ... : ... .. . ... ... ... : ... .. . ... ... ... : ... .. . ... ... ... : ... .. . ... ... ... : ... .. . ... ... ...
ROW 4A : ... .. . ... ... ... : ... .. . ... ... ... : ... .. . ... ... ... : ... .. . ... ... ... : ... .. . ... ... ... : ... .. . ... ... ...
ROW 4B : ... .. . ... ... ... : E-5 02 7 ... ... ... : ... .. . ... ... ... : ... .. . ... ... ... : ... .. . ... ... ... : ... .. . ... ... ...
ROW 4C : ... .. . ... ... ... : ... .. . ... ... ... : ... .. . ... ... ... : ... .. . ... ... ... : ... .. . ... ... ... : ... .. . ... ... ...
ROW 4D : ... .. . ... ... ... : ... .. . ... ... ... : ... .. . ... ... ... : ... .. 4 ... ... ... : ... .. . ... ... ... : ... .. . ... ... ...
ROW 4E : ... .. . ... ... ... : ... .. . ... ... ... : ... .. . ... ... ... : ... .. . ... ... ... : ... .. . ... ... ... : ... .. . ... ... ...
ROW 4F : ... .. . ... ... ... : ... .. . ... ... ... : ... .. . ... ... ... : ... .. . ... ... ... : ... .. . ... ... ... : ... .. . ... ... ...
ROW 50 : ... .. . ... ... ... : C-4 01 D P84 ... ... : ... .. . ... ... ... : ... .. B ... ... ... : D-1 05 . ... ... ... : ... .. . ... ... ...
ROW 51 : ... .. . ... ... ... : C-4 02 . P7B ... ... : ... .. . ... ... ... : 9-# 00 7 ... ... ... : ... .. . ... ... ... : ... .. . ... ... ...
ROW 52 : ... .. . ... ... ... : B-3 00 . P81 ... ... : ... .. . ... ... ... : A-# 00 4 ... ... ... : ... .. . ... ... ... : ... .. . ... ... ...
ROW 53 : ... .. . ... ... ... : ... .. . ... ... ... : ... .. . ... ... ... : ... .. . ... ... ... : ... .. . ... ... ... : ... .. . ... ... ...
ROW 54 : ... .. . ... ... ... : ... .. . ... ... ... : ... .. . ... ... ... : ... .. . ... ... ... : ... .. . ... ... ... : ... .. . ... ... ...
ROW 55 : ... .. . ... ... ... : ... .. . ... ... ... : ... .. . ... ... ... : ... .. 2 ... ... ... : ... .. . ... ... ... : ... .. . ... ... ...
ROW 56 : ... .. . ... ... ... : ... .. . ... ... ... : ... .. . ... ... ... : ... .. . ... ... ... : ... .. . ... ... ... : ... .. . ... ... ...
ROW 57 : ... .. . ... ... ... : ... .. . ... ... ... : ... .. . ... ... ... : ... .. 1 ... ... ... : ... .. . ... ... ... : ... .. . ... ... ...
ROW 58 : ... .. . ... ... ... : D#5 02 7 ... ... ... : ... .. . ... ... ... : ... .. . ... ... ... : ... .. . ... ... ... : ... .. . ... ... ...
ROW 59 : ... .. . ... ... ... : ... .. . ... ... ... : ... .. . ... ... ... : ... .. 3 ... ... ... : ... .. . ... ... ... : ... .. . ... ... ...
ROW 5A : ... .. . ... ... ... : ... .. . ... ... ... : ... .. . ... ... ... : ... .. 1 ... ... ... : ... .. . ... ... ... : ... .. . ... ... ...
ROW 5B : ... .. . ... ... ... : ... .. . ... ... ... : ... .. . ... ... ... : ... .. . ... ... ... : ... .. . ... ... ... : ... .. . ... ... ...
ROW 5C : ... .. . ... ... ... : ... .. . ... ... ... : ... .. . ... ... ... : ... .. . ... ... ... : ... .. . ... ... ... : ... .. . ... ... ...
ROW 5D : ... .. . ... ... ... : C#4 01 D ... ... ... : ... .. . ... ... ... : C-# 01 9 ... ... ... : ... .. . ... ... ... : ... .. . ... ... ...
ROW 5E : ... .. . ... ... ... : C#4 02 . ... ... ... : ... .. . ... ... ... : D-# 00 6 ... ... ... : ... .. . ... ... ... : ... .. . ... ... ...
ROW 5F : ... .. . ... ... ... : C#4 00 . ... ... ... : ... .. . ... ... ... : ... .. . ... ... ... : ... .. . ... ... ... : ... .. . ... ... ...
ROW 60 : ... .. . ... ... ... : ... .. . ... ... ... : ... .. . ... ... ... : E-# 01 5 ... ... ... : ... .. . ... ... ... : ... .. . ... ... ...
ROW 61 : ... .. . ... ... ... : ... .. . ... ... ... : ... .. . ... ... ... : D-# 01 . ... ... ... : ... .. . ... ... ... : ... .. . ... ... ...
ROW 62 : ... .. . ... ... ... : ... .. . ... ... ... : ... .. . ... ... ... : E-# 00 4 ... ... ... : ... .. . ... ... ... : ... .. . ... ... ...
ROW 63 : ... .. . ... ... ... : ... .. . ... ... ... : ... .. . ... ... ... : ... .. . ... ... ... : C-1 05 . ... ... ... : ... .. . ... ... ...
ROW 64 : ... .. . ... ... ... : ... .. . ... ... ... : ... .. . ... ... ... : ... .. . ... ... ... : ... .. . ... ... ... : ... .. . ... ... ...
ROW 65 : ... .. . ... ... ... : ... .. . ... ... ... : ... .. . ... ... ... : ... .. . ... ... ... : ... .. . ... ... ... : ... .. . ... ... ...
ROW 66 : ... .. . ... ... ... : D-4 00 . P7E ... ... : ... .. . ... ... ... : ... .. . ... ... ... : ... .. . ... ... ... : ... .. . ... ... ...
ROW 67 : ... .. . ... ... ... : ... .. . P80 ... ... : ... .. . ... ... ... : ... .. 3 ... ... ... : ... .. . ... ... ... : ... .. . ... ... ...
ROW 68 : ... .. . ... ... ... : C#4 00 . P85 ... ... : ... .. . ... ... ... : ... .. . ... ... ... : ... .. . ... ... ... : ... .. . ... ... ...
ROW 69 : ... .. . ... ... ... : ... .. . P7D ... ... : ... .. . ... ... ... : ... .. . ... ... ... : ... .. . ... ... ... : ... .. . ... ... ...
ROW 6A : ... .. . ... ... ... : C-4 00 . P82 ... ... : ... .. . ... ... ... : B-# 00 B ... ... ... : C-1 05 . ... ... ... : ... .. . ... ... ...
ROW 6B : ... .. . ... ... ... : ... .. . P84 ... ... : ... .. . ... ... ... : 9-# 00 7 ... ... ... : ... .. . ... ... ... : ... .. . ... ... ...
ROW 6C : ... .. . ... ... ... : C#4 00 . P81 ... ... : ... .. . ... ... ... : A-# 00 4 ... ... ... : ... .. . ... ... ... : ... .. . ... ... ...
ROW 6D : ... .. . ... ... ... : D-4 00 . P7D ... ... : ... .. . ... ... ... : ... .. . ... ... ... : ... .. . ... ... ... : ... .. . ... ... ...
ROW 6E : ... .. . ... ... ... : ... .. . P80 ... ... : ... .. . ... ... ... : ... .. . ... ... ... : ... .. . ... ... ... : ... .. . ... ... ...
ROW 6F : ... .. . ... ... ... : C#4 00 . P86 ... ... : ... .. . ... ... ... : ... .. 2 ... ... ... : ... .. . ... ... ... : ... .. . ... ... ...
ROW 70 : ... .. . ... ... ... : ... .. . P7E ... ... : ... .. . ... ... ... : ... .. . ... ... ... : ... .. . ... ... ... : ... .. . ... ... ...
ROW 71 : ... .. . ... ... ... : C-4 00 . P82 ... ... : ... .. . ... ... ... : ... .. 1 ... ... ... : ... .. . ... ... ... : ... .. . ... ... ...
ROW 72 : ... .. . ... ... ... : ... .. . P84 ... ... : ... .. . ... ... ... : ... .. . ... ... ... : ... .. . ... ... ... : ... .. . ... ... ...
ROW 73 : ... .. . ... ... ... : C#4 00 . P80 ... ... : ... .. . ... ... ... : ... .. 3 ... ... ... : ... .. . ... ... ... : ... .. . ... ... ...
ROW 74 : ... .. . ... ... ... : D-4 00 . P7C ... ... : ... .. . ... ... ... : ... .. 1 ... ... ... : ... .. . ... ... ... : ... .. . ... ... ...
ROW 75 : ... .. . ... ... ... : ... .. . P80 ... ... : ... .. . ... ... ... : ... .. . ... ... ... : ... .. . ... ... ... : ... .. . ... ... ...
ROW 76 : ... .. . ... ... ... : ... .. . P7B ... ... : ... .. . ... ... ... : ... .. . ... ... ... : ... .. . ... ... ... : ... .. . ... ... ...
ROW 77 : ... .. . ... ... ... : C-4 01 A P81 ... ... : ... .. . ... ... ... : C-# 01 9 ... ... ... : C-1 05 . ... ... ... : ... .. . ... ... ...
ROW 78 : ... .. . ... ... ... : C-4 02 . ... ... ... : ... .. . ... ... ... : D-# 00 6 ... ... ... : ... .. . ... ... ... : ... .. . ... ... ...
ROW 79 : ... .. . ... ... ... : B-3 01 . ... ... ... : ... .. . ... ... ... : ... .. . ... ... ... : ... .. . ... ... ... : ... .. . ... ... ...
ROW 7A : ... .. . ... ... ... : A#3 02 . ... ... ... : ... .. . ... ... ... : E-# 01 5 ... ... ... : ... .. . ... ... ... : ... .. . ... ... ...
ROW 7B : ... .. . ... ... ... : A#3 01 . ... ... ... : ... .. . ... ... ... : D-# 01 . ... ... ... : ... .. . ... ... ... : ... .. . ... ... ...
ROW 7C : ... .. . ... ... ... : A-3 02 . ... ... ... : ... .. . ... ... ... : E-# 00 4 ... ... ... : ... .. . ... ... ... : ... .. . ... ... ...
ROW 7D : ... .. . ... ... ... : G#3 01 . ... ... ... : ... .. . ... ... ... : ... .. . ... ... ... : ... .. . ... ... ... : ... .. . ... ... ...
ROW 7E : ... .. . ... ... ... : G#3 02 . ... ... ... : ... .. . ... ... ... : ... .. . ... ... ... : ... .. . ... ... ... : ... .. . ... ... ...
ROW 7F : ... .. . ... ... ... : G-3 01 . ... ... ... : ... .. . ... ... ... : ... .. . ... ... ... : ... .. . ... ... ... : ... .. . ... ... ...
ROW 80 : ... .. . ... ... ... : F#3 02 . ... ... ... : ... .. . ... ... ... : ... .. . ... ... ... : ... .. . ... ... ... : ... .. . ... ... ...
ROW 81 : ... .. . ... ... ... : F#3 01 . ... ... ... : ... .. . ... ... ... : ... .. 3 ... ... ... : ... .. . ... ... ... : ... .. . ... ... ...
ROW 82 : ... .. . ... ... ... : F-3 02 . ... ... ... : ... .. . ... ... ... : ... .. . ... ... ... : ... .. . ... ... ... : ... .. . ... ... ...
ROW 83 : ... .. . ... ... ... : E-3 01 . ... ... ... : ... .. . ... ... ... : ... .. . ... ... ... : ... .. . ... ... ... : ... .. . ... ... ...
ROW 84 : ... .. . ... ... ... : D#4 01 D P82 ... ... : ... .. . ... ... ... : B-# 00 B ... ... ... : D-1 05 . ... ... ... : ... .. . ... ... ...
ROW 85 : ... .. . ... ... ... : D#4 02 . P83 ... ... : ... .. . ... ... ... : 9-# 00 7 ... ... ... : ... .. . ... ... ... : ... .. . ... ... ...
ROW 86 : ... .. . ... ... ... : D#4 00 . P84 ... ... : ... .. . ... ... ... : A-# 00 4 ... ... ... : ... .. . ... ... ... : ... .. . ... ... ...
ROW 87 : ... .. . ... ... ... : E-4 00 . P7C ... ... : ... .. . ... ... ... : ... .. . ... ... ... : ... .. . ... ... ... : ... .. . ... ... ...
ROW 88 : ... .. . ... ... ... : ... .. . P7E ... ... : ... .. . ... ... ... : ... .. . ... ... ... : ... .. . ... ... ... : ... .. . ... ... ...
ROW 89 : ... .. . ... ... ... : ... .. . P80 ... ... : ... .. . ... ... ... : ... .. 2 ... ... ... : ... .. . ... ... ... : ... .. . ... ... ...
ROW 8A : ... .. . ... ... ... : ... .. . P81 ... ... : ... .. . ... ... ... : ... .. . ... ... ... : ... .. . ... ... ... : ... .. . ... ... ...
ROW 8B : ... .. . ... ... ... : ... .. . ... ... ... : ... .. . ... ... ... : ... .. 1 ... ... ... : ... .. . ... ... ... : ... .. . ... ... ...
ROW 8C : ... .. . ... ... ... : ... .. . ... ... ... : ... .. . ... ... ... : ... .. . ... ... ... : ... .. . ... ... ... : ... .. . ... ... ...
ROW 8D : ... .. . ... ... ... : ... .. . ... ... ... : ... .. . ... ... ... : ... .. 3 ... ... ... : ... .. . ... ... ... : ... .. . ... ... ...
ROW 8E : ... .. . ... ... ... : ... .. . ... ... ... : ... .. . ... ... ... : ... .. 1 ... ... ... : ... .. . ... ... ... : ... .. . ... ... ...
ROW 8F : ... .. . ... ... ... : ... .. . ... ... ... : ... .. . ... ... ... : ... .. . ... ... ... : ... .. . ... ... ... : ... .. . ... ... ...
ROW 90 : ... .. . ... ... ... : ... .. . ... ... ... : ... .. . ... ... ... : ... .. . ... ... ... : ... .. . ... ... ... : ... .. . ... ... ...
ROW 91 : ... .. . ... ... ... : D#4 01 . ... ... ... : ... .. . ... ... ... : C-# 01 9 ... ... ... : ... .. . ... ... ... : ... .. . ... ... ...
ROW 92 : ... .. . ... ... ... : D#4 02 . ... ... ... : ... .. . ... ... ... : D-# 00 6 ... ... ... : ... .. . ... ... ... : ... .. . ... ... ...
ROW 93 : ... .. . ... ... ... : D#4 00 . ... ... ... : ... .. . ... ... ... : ... .. . ... ... ... : ... .. . ... ... ... : ... .. . ... ... ...
ROW 94 : ... .. . ... ... ... : ... .. . ... ... ... : ... .. . ... ... ... : E-# 01 5 ... ... ... : ... .. . ... ... ... : ... .. . ... ... ...
ROW 95 : ... .. . ... ... ... : ... .. . ... ... ... : ... .. . ... ... ... : D-# 01 . ... ... ... : ... .. . ... ... ... : ... .. . ... ... ...
ROW 96 : ... .. 2 ... ... ... : ... .. . ... ... ... : --- .. . ... ... ... : E-# 00 4 ... ... ... : ... .. . ... ... ... : ... .. 1 ... ... ...
ROW 97 : ... .. 5 ... ... ... : ... .. . ... ... ... : ... .. . ... ... ... : ... .. . ... ... ... : ... .. . ... ... ... : ... .. 2 ... ... ...
ROW 98 : ... .. . ... ... ... : ... .. . ... ... ... : ... .. . ... ... ... : ... .. . ... ... ... : ... .. . ... ... ... : ... .. . ... ... ...
ROW 99 : ... .. . ... ... ... : E-5 02 7 ... ... ... : ... .. . ... ... ... : ... .. . ... ... ... : ... .. . ... ... ... : ... .. . ... ... ...
ROW 9A : ... .. . ... ... ... : ... .. . ... ... ... : ... .. . ... ... ... : ... .. . ... ... ... : ... .. . ... ... ... : ... .. . ... ... ...
ROW 9B : ... .. . ... ... ... : ... .. . ... ... ... : ... .. . ... ... ... : ... .. 3 ... ... ... : ... .. . ... ... ... : ... .. . ... ... ...
ROW 9C : ... .. 2 ... ... ... : ... .. . ... ... ... : ... .. . ... ... ... : ... .. . ... ... ... : ... .. . ... ... ... : ... .. 1 ... ... ...
ROW 9D : ... .. . ... ... ... : ... .. . ... ... ... : ... .. . ... ... ... : ... .. . ... ... ... : ... .. . ... ... ... : ... .. . ... ... ...
ROW 9E : F#1 00 9 ... ... ... : B-3 01 D ... ... ... : B-2 00 . ... ... ... : B-# 00 B ... ... ... : C-1 05 . ... ... ... : D#3 04 6 I04 J44 ...
ROW 9F : F#1 03 . ... ... ... : B-3 02 . ... ... ... : ... .. . ... ... ... : 9-# 00 7 ... ... ... : ... .. . ... ... ... : ... .. 5 ... ... ...
ROW A0 : F#1 02 . ... ... ... : B-3 00 . ... ... ... : ... .. . ... ... ... : A-# 00 4 ... ... ... : ... .. . ... ... ... : ... .. . ... ... ...
ROW A1 : F#1 01 . ... ... ... : ... .. . ... ... ... : ... .. . ... ... ... : ... .. . ... ... ... : ... .. . ... ... ... : E-3 04 4 I04 J86 ...
ROW A2 : ... .. . ... ... ... : ... .. . ... ... ... : ... .. . ... ... ... : ... .. . ... ... ... : ... .. . ... ... ... : ... .. . ... ... ...
ROW A3 : ... .. . ... ... ... : ... .. . ... ... ... : ... .. . ... ... ... : ... .. 2 ... ... ... : ... .. . ... ... ... : ... .. . ... ... ...
ROW A4 : ... .. . ... ... ... : ... .. . ... ... ... : ... .. . ... ... ... : ... .. . ... ... ... : ... .. . ... ... ... : ... .. . ... ... ...
ROW A5 : ... .. . ... ... ... : ... .. . ... ... ... : ... .. . ... ... ... : ... .. 1 ... ... ... : ... .. . ... ... ... : ... .. . ... ... ...
ROW A6 : ... .. . ... ... ... : D#5 02 7 ... ... ... : ... .. . ... ... ... : ... .. . ... ... ... : ... .. . ... ... ... : ... .. . ... ... ...
ROW A7 : ... .. . ... ... ... : ... .. . ... ... ... : ... .. . ... ... ... : ... .. 3 ... ... ... : ... .. . ... ... ... : ... .. . ... ... ...
ROW A8 : ... .. . ... ... ... : ... .. . ... ... ... : ... .. . ... ... ... : ... .. 1 ... ... ... : ... .. . ... ... ... : ... .. . ... ... ...
ROW A9 : ... .. . ... ... ... : ... .. . ... ... ... : ... .. . ... ... ... : ... .. . ... ... ... : ... .. . ... ... ... : ... .. . ... ... ...
ROW AA : ... .. . ... ... ... : ... .. . ... ... ... : ... .. . ... ... ... : ... .. . ... ... ... : ... .. . ... ... ... : ... .. . ... ... ...
ROW AB : ... .. . ... ... ... : C-4 01 D P86 ... ... : ... .. . ... ... ... : C-# 01 9 ... ... ... : ... .. . ... ... ... : ... .. . ... ... ...
ROW AC : ... .. . ... ... ... : C#4 02 . P7F ... ... : ... .. . ... ... ... : D-# 00 6 ... ... ... : ... .. . ... ... ... : ... .. . ... ... ...
ROW AD : ... .. . ... ... ... : C#4 00 . P81 ... ... : ... .. . ... ... ... : ... .. . ... ... ... : ... .. . ... ... ... : ... .. . ... ... ...
ROW AE : ... .. . ... ... ... : ... .. . ... ... ... : ... .. . ... ... ... : E-# 01 5 ... ... ... : ... .. . ... ... ... : ... .. . ... ... ...
ROW AF : ... .. . ... ... ... : ... .. . ... ... ... : ... .. . ... ... ... : D-# 01 . ... ... ... : ... .. . ... ... ... : ... .. . ... ... ...
ROW B0 : ... .. . ... ... ... : ... .. . ... ... ... : ... .. . ... ... ... : E-# 00 4 ... ... ... : ... .. . ... ... ... : ... .. . ... ... ...
ROW B1 : ... .. . ... ... ... : ... .. . ... ... ... : ... .. . ... ... ... : ... .. . ... ... ... : ... .. . ... ... ... : ... .. . ... ... ...
ROW B2 : ... .. . ... ... ... : ... .. . ... ... ... : ... .. . ... ... ... : ... .. . ... ... ... : ... .. . ... ... ... : ... .. . ... ... ...
ROW B3 : ... .. . ... ... ... : ... .. . ... ... ... : ... .. . ... ... ... : ... .. . ... ... ... : ... .. . ... ... ... : ... .. . ... ... ...
ROW B4 : ... .. . ... ... ... : D-4 00 . P7E ... ... : ... .. . ... ... ... : ... .. . ... ... ... : ... .. . ... ... ... : ... .. . ... ... ...
ROW B5 : ... .. . ... ... ... : ... .. . P80 ... ... : ... .. . ... ... ... : ... .. 3 ... ... ... : ... .. . ... ... ... : ... .. . ... ... ...
ROW B6 : ... .. . ... ... ... : C#4 00 . P85 ... ... : ... .. . ... ... ... : ... .. . ... ... ... : ... .. . ... ... ... : ... .. . ... ... ...
ROW B7 : ... .. . ... ... ... : ... .. . P7D ... ... : ... .. . ... ... ... : ... .. . ... ... ... : ... .. . ... ... ... : ... .. . ... ... ...
ROW B8 : ... .. . ... ... ... : C-4 00 . P82 ... ... : ... .. . ... ... ... : B-# 00 B ... ... ... : D-1 05 . ... ... ... : ... .. . ... ... ...
ROW B9 : ... .. . ... ... ... : ... .. . P84 ... ... : ... .. . ... ... ... : 9-# 00 7 ... ... ... : ... .. . ... ... ... : ... .. . ... ... ...
ROW BA : ... .. . ... ... ... : C#4 00 . P81 ... ... : ... .. . ... ... ... : A-# 00 4 ... ... ... : ... .. . ... ... ... : ... .. . ... ... ...
ROW BB : ... .. . ... ... ... : D-4 00 . P7D ... ... : ... .. . ... ... ... : ... .. . ... ... ... : ... .. . ... ... ... : ... .. . ... ... ...
ROW BC : ... .. . ... ... ... : ... .. . P80 ... ... : ... .. . ... ... ... : ... .. . ... ... ... : ... .. . ... ... ... : ... .. . ... ... ...
ROW BD : ... .. . ... ... ... : C#4 00 . P86 ... ... : ... .. . ... ... ... : ... .. 2 ... ... ... : ... .. . ... ... ... : ... .. . ... ... ...
ROW BE : ... .. . ... ... ... : ... .. . P7E ... ... : ... .. . ... ... ... : ... .. . ... ... ... : ... .. . ... ... ... : ... .. . ... ... ...
ROW BF : ... .. . ... ... ... : C-4 00 . P82 ... ... : ... .. . ... ... ... : ... .. 1 ... ... ... : ... .. . ... ... ... : ... .. . ... ... ...
ROW C0 : ... .. . ... ... ... : ... .. . P84 ... ... : ... .. . ... ... ... : ... .. . ... ... ... : ... .. . ... ... ... : ... .. . ... ... ...
ROW C1 : ... .. . ... ... ... : C#4 00 . P80 ... ... : ... .. . ... ... ... : ... .. 3 ... ... ... : ... .. . ... ... ... : ... .. . ... ... ...
ROW C2 : ... .. . ... ... ... : D-4 00 . P7C ... ... : ... .. . ... ... ... : ... .. 1 ... ... ... : ... .. . ... ... ... : ... .. . ... ... ...
ROW C3 : ... .. . ... ... ... : ... .. . P80 ... ... : ... .. . ... ... ... : ... .. . ... ... ... : ... .. . ... ... ... : ... .. . ... ... ...
ROW C4 : ... .. . ... ... ... : ... .. . P7B ... ... : ... .. . ... ... ... : ... .. . ... ... ... : ... .. . ... ... ... : ... .. . ... ... ...
ROW C5 : ... .. . ... ... ... : C#4 00 . P7F ... ... : ... .. . ... ... ... : C-# 01 9 ... ... ... : ... .. . ... ... ... : ... .. . ... ... ...
ROW C6 : ... .. . ... ... ... : C-4 00 . P83 ... ... : ... .. . ... ... ... : D-# 00 6 ... ... ... : ... .. . ... ... ... : ... .. . ... ... ...
ROW C7 : ... .. . ... ... ... : ... .. . ... ... ... : ... .. . ... ... ... : ... .. . ... ... ... : ... .. . ... ... ... : ... .. . ... ... ...
ROW C8 : ... .. . ... ... ... : B-3 00 A P81 ... ... : ... .. . ... ... ... : E-# 01 5 ... ... ... : ... .. . ... ... ... : ... .. . ... ... ...
ROW C9 : ... .. . ... ... ... : A#3 00 . ... ... ... : ... .. . ... ... ... : D-# 01 . ... ... ... : ... .. . ... ... ... : ... .. . ... ... ...
ROW CA : ... .. 2 ... ... ... : A-3 00 . P7E ... ... : --- .. . ... ... ... : E-# 00 4 ... ... ... : ... .. . ... ... ... : ... .. 1 ... ... ...
ROW CB : ... .. 5 ... ... ... : G-3 00 . P83 ... ... : ... .. . ... ... ... : ... .. . ... ... ... : C-1 05 . ... ... ... : ... .. 2 ... ... ...
ROW CC : ... .. . ... ... ... : F-3 00 . P88 ... ... : ... .. . ... ... ... : ... .. . ... ... ... : ... .. . ... ... ... : ... .. . ... ... ...
ROW CD : ... .. . ... ... ... : E-3 00 . P7D ... ... : ... .. . ... ... ... : ... .. . ... ... ... : ... .. . ... ... ... : ... .. . ... ... ...
ROW CE : ... .. . ... ... ... : D#3 00 . P85 ... ... : ... .. . ... ... ... : ... .. . ... ... ... : ... .. . ... ... ... : ... .. . ... ... ...
ROW CF : ... .. . ... ... ... : D-3 00 . P84 ... ... : ... .. . ... ... ... : ... .. 3 ... ... ... : ... .. . ... ... ... : ... .. . ... ... ...
ROW D0 : ... .. 2 ... ... ... : C#3 00 . P85 ... ... : ... .. . ... ... ... : ... .. . ... ... ... : ... .. . ... ... ... : ... .. 1 ... ... ...
ROW D1 : ... .. . ... ... ... : C-3 00 . P87 ... ... : ... .. . ... ... ... : ... .. . ... ... ... : ... .. . ... ... ... : ... .. . ... ... ...
ROW D2 : G-1 00 9 ... ... ... : A-3 01 D P7A ... ... : C-3 00 . ... ... ... : B-# 00 B ... ... ... : C-1 05 . ... ... ... : ... .. 6 ... ... ...
ROW D3 : G-1 03 . ... ... ... : G-3 02 . P84 ... ... : ... .. . ... ... ... : 9-# 00 7 ... ... ... : ... .. . ... ... ... : ... .. 5 ... ... ...
ROW D4 : G-1 02 . ... ... ... : F#3 00 . P81 ... ... : ... .. . ... ... ... : A-# 00 4 ... ... ... : ... .. . ... ... ... : ... .. . ... ... ...
ROW D5 : G-1 01 . ... ... ... : ... .. . P82 ... ... : ... .. . ... ... ... : ... .. . ... ... ... : ... .. . ... ... ... : F-3 04 4 I04 JCE ...
ROW D6 : ... .. . ... ... ... : ... .. . P83 ... ... : ... .. . ... ... ... : ... .. . ... ... ... : ... .. . ... ... ... : ... .. . ... ... ...
ROW D7 : ... .. . ... ... ... : ... .. . P84 ... ... : ... .. . ... ... ... : ... .. 2 ... ... ... : ... .. . ... ... ... : ... .. . ... ... ...
ROW D8 : ... .. . ... ... ... : G-3 00 . P7A ... ... : ... .. . ... ... ... : ... .. . ... ... ... : ... .. . ... ... ... : ... .. . ... ... ...
ROW D9 : ... .. . ... ... ... : ... .. . P81 ... ... : ... .. . ... ... ... : ... .. 1 ... ... ... : ... .. . ... ... ... : ... .. . ... ... ...
ROW DA : ... .. . ... ... ... : ... .. . P88 ... ... : ... .. . ... ... ... : ... .. . ... ... ... : ... .. . ... ... ... : ... .. . ... ... ...
ROW DB : ... .. . ... ... ... : G#3 00 . P7F ... ... : ... .. . ... ... ... : ... .. 3 ... ... ... : ... .. . ... ... ... : ... .. . ... ... ...
ROW DC : ... .. . ... ... ... : ... .. . P81 ... ... : ... .. . ... ... ... : ... .. 1 ... ... ... : ... .. . ... ... ... : ... .. . ... ... ...
ROW DD : ... .. . ... ... ... : ... .. . ... ... ... : ... .. . ... ... ... : ... .. . ... ... ... : ... .. . ... ... ... : ... .. . ... ... ...
ROW DE : ... .. . ... ... ... : ... .. . ... ... ... : ... .. . ... ... ... : ... .. . ... ... ... : ... .. . ... ... ... : ... .. . ... ... ...
ROW DF : ... .. . ... ... ... : C#4 01 . ... ... ... : ... .. . ... ... ... : C-# 01 9 ... ... ... : C-1 05 . ... ... ... : ... .. . ... ... ...
ROW E0 : ... .. . ... ... ... : C#4 02 . ... ... ... : ... .. . ... ... ... : D-# 00 6 ... ... ... : ... .. . ... ... ... : ... .. . ... ... ...
ROW E1 : ... .. . ... ... ... : C#4 00 . ... ... ... : ... .. . ... ... ... : ... .. . ... ... ... : ... .. . ... ... ... : ... .. . ... ... ...
ROW E2 : ... .. . ... ... ... : ... .. . ... ... ... : ... .. . ... ... ... : E-# 01 5 ... ... ... : ... .. . ... ... ... : ... .. . ... ... ...
ROW E3 : ... .. . ... ... ... : ... .. . ... ... ... : ... .. . ... ... ... : D-# 01 . ... ... ... : ... .. . ... ... ... : ... .. . ... ... ...
ROW E4 : ... .. . ... ... ... : ... .. . ... ... ... : ... .. . ... ... ... : E-# 00 4 ... ... ... : ... .. . ... ... ... : ... .. . ... ... ...
ROW E5 : ... .. . ... ... ... : ... .. . ... ... ... : ... .. . ... ... ... : ... .. . ... ... ... : ... .. . ... ... ... : ... .. . ... ... ...
ROW E6 : ... .. . ... ... ... : ... .. . ... ... ... : ... .. . ... ... ... : ... .. . ... ... ... : ... .. . ... ... ... : ... .. . ... ... ...
ROW E7 : ... .. . ... ... ... : G#4 02 7 ... ... ... : ... .. . ... ... ... : ... .. . ... ... ... : ... .. . ... ... ... : ... .. . ... ... ...
ROW E8 : ... .. . ... ... ... : ... .. . ... ... ... : ... .. . ... ... ... : ... .. . ... ... ... : ... .. . ... ... ... : ... .. . ... ... ...
ROW E9 : ... .. . ... ... ... : ... .. . ... ... ... : ... .. . ... ... ... : ... .. 3 ... ... ... : ... .. . ... ... ... : ... .. . ... ... ...
ROW EA : ... .. . ... ... ... : ... .. . ... ... ... : ... .. . ... ... ... : ... .. . ... ... ... : ... .. . ... ... ... : ... .. . ... ... ...
ROW EB : ... .. . ... ... ... : ... .. . ... ... ... : ... .. . ... ... ... : ... .. . ... ... ... : ... .. . ... ... ... : ... .. . ... ... ...
ROW EC : ... .. . ... ... ... : D#4 01 D ... ... ... : ... .. . ... ... ... : B-# 00 B ... ... ... : D-1 05 . ... ... ... : ... .. . ... ... ...
ROW ED : ... .. . ... ... ... : D#4 02 . ... ... ... : ... .. . ... ... ... : 9-# 00 7 ... ... ... : ... .. . ... ... ... : ... .. . ... ... ...
ROW EE : ... .. . ... ... ... : D#4 00 . ... ... ... : ... .. . ... ... ... : A-# 00 4 ... ... ... : ... .. . ... ... ... : ... .. . ... ... ...
ROW EF : ... .. . ... ... ... : ... .. . ... ... ... : ... .. . ... ... ... : ... .. . ... ... ... : ... .. . ... ... ... : ... .. . ... ... ...
ROW F0 : ... .. . ... ... ... : ... .. . ... ... ... : ... .. . ... ... ... : ... .. . ... ... ... : ... .. . ... ... ... : ... .. . ... ... ...
ROW F1 : ... .. . ... ... ... : ... .. . ... ... ... : ... .. . ... ... ... : ... .. 2 ... ... ... : ... .. . ... ... ... : ... .. . ... ... ...
ROW F2 : ... .. . ... ... ... : ... .. . ... ... ... : ... .. . ... ... ... : ... .. . ... ... ... : ... .. . ... ... ... : ... .. . ... ... ...
ROW F3 : ... .. . ... ... ... : ... .. . ... ... ... : ... .. . ... ... ... : ... .. 1 ... ... ... : ... .. . ... ... ... : ... .. . ... ... ...
ROW F4 : ... .. . ... ... ... : C#5 02 7 ... ... ... : ... .. . ... ... ... : ... .. . ... ... ... : ... .. . ... ... ... : ... .. . ... ... ...
ROW F5 : ... .. . ... ... ... : ... .. . ... ... ... : ... .. . ... ... ... : ... .. 3 ... ... ... : ... .. . ... ... ... : ... .. . ... ... ...
ROW F6 : ... .. . ... ... ... : ... .. . ... ... ... : ... .. . ... ... ... : ... .. 1 ... ... ... : ... .. . ... ... ... : ... .. . ... ... ...
ROW F7 : ... .. . ... ... ... : ... .. . ... ... ... : ... .. . ... ... ... : ... .. . ... ... ... : ... .. . ... ... ... : ... .. . ... ... ...
ROW F8 : ... .. . ... ... ... : ... .. . ... ... ... : ... .. . ... ... ... : ... .. . ... ... ... : ... .. . ... ... ... : ... .. . ... ... ...
ROW F9 : ... .. . ... ... ... : E-4 01 D ... ... ... : ... .. . ... ... ... : C-# 01 9 ... ... ... : ... .. . ... ... ... : ... .. . ... ... ...
ROW FA : ... .. . ... ... ... : E-4 02 . ... ... ... : ... .. . ... ... ... : D-# 00 6 ... ... ... : ... .. . ... ... ... : ... .. . ... ... ...
ROW FB : ... .. . ... ... ... : E-4 00 . ... ... ... : ... .. . ... ... ... : ... .. . ... ... ... : ... .. . ... ... ... : ... .. . ... ... ...
ROW FC : ... .. . ... ... ... : ... .. . ... ... ... : ... .. . ... ... ... : E-# 01 5 ... ... ... : ... .. . ... ... ... : ... .. . ... ... ...
ROW FD : ... .. . ... ... ... : ... .. . ... ... ... : ... .. . ... ... ... : D-# 01 . ... ... ... : ... .. . ... ... ... : ... .. . ... ... ...
ROW FE : ... .. 2 ... ... ... : ... .. . ... ... ... : --- .. . ... ... ... : E-# 00 4 ... ... ... : ... .. . ... ... ... : ... .. 1 ... ... ...
ROW FF : ... .. 5 ... ... ... : ... .. . ... ... ... : ... .. . ... ... ... : ... .. . ... ... ... : ... .. . ... ... ... : ... .. 2 ... ... ...

PATTERN 08
ROW 00 : ... .. . ... ... ... : ... .. . ... ... ... : ... .. . ... ... ... : ... .. . ... ... ... : ... .. . ... ... ... : ... .. . ... ... ...
ROW 01 : ... .. . ... ... ... : D#5 02 7 ... ... ... : ... .. . ... ... ... : ... .. . ... ... ... : ... .. . ... ... ... : ... .. . ... ... ...
ROW 02 : ... .. . P81 ... ... : ... .. . ... ... ... : ... .. . ... ... ... : ... .. . ... ... ... : ... .. . ... ... ... : ... .. . ... ... ...
ROW 03 : ... .. . ... ... ... : ... .. . ... ... ... : ... .. . ... ... ... : ... .. 3 ... ... ... : ... .. . ... ... ... : ... .. . ... ... ...
ROW 04 : ... .. 2 ... ... ... : ... .. . ... ... ... : ... .. . ... ... ... : ... .. . ... ... ... : ... .. . ... ... ... : ... .. 1 ... ... ...
ROW 05 : ... .. . ... ... ... : ... .. . ... ... ... : ... .. . ... ... ... : ... .. . ... ... ... : ... .. . ... ... ... : ... .. . ... ... ...
ROW 06 : B-2 02 9 ... ... ... : F#4 01 D P7C ... ... : C#3 00 . ... ... ... : 8-# 00 C ... ... ... : C-1 05 . ... ... ... : F#3 04 7 I05 J16 ...
ROW 07 : B-2 01 . ... ... ... : F-4 02 . P80 ... ... : ... .. . ... ... ... : 4-# 00 8 ... ... ... : ... .. . ... ... ... : ... .. 6 ... ... ...
ROW 08 : ... .. . ... ... ... : E-4 00 . P85 ... ... : ... .. . ... ... ... : 7-# 00 B ... ... ... : ... .. . ... ... ... : ... .. 5 ... ... ...
ROW 09 : ... .. . P8C ... ... : ... .. . P81 ... ... : ... .. . ... ... ... : 9-# 00 8 ... ... ... : ... .. . ... ... ... : ... .. . ... ... ...
ROW 0A : ... .. . P86 ... ... : ... .. . ... ... ... : ... .. . ... ... ... : A-# 00 9 ... ... ... : ... .. . ... ... ... : ... .. . ... ... ...
ROW 0B : ... .. . P7A ... ... : ... .. . ... ... ... : ... .. . ... ... ... : B-# 00 8 ... ... ... : ... .. . ... ... ... : ... .. 4 ... ... ...
ROW 0C : ... .. . P77 ... ... : ... .. . P84 ... ... : ... .. . ... ... ... : ... .. . ... ... ... : ... .. . ... ... ... : ... .. . ... ... ...
ROW 0D : ... .. . P82 ... ... : F-4 00 . P7D ... ... : ... .. . ... ... ... : ... .. . ... ... ... : ... .. . ... ... ... : ... .. . ... ... ...
ROW 0E : ... .. . P8C ... ... : ... .. . P80 ... ... : ... .. . ... ... ... : ... .. . ... ... ... : ... .. . ... ... ... : ... .. . ... ... ...
ROW 0F : ... .. . P85 ... ... : ... .. . P83 ... ... : ... .. . ... ... ... : ... .. 7 ... ... ... : ... .. . ... ... ... : ... .. . ... ... ...
ROW 10 : ... .. . P79 ... ... : F#4 00 . P7D ... ... : ... .. . ... ... ... : ... .. . ... ... ... : ... .. . ... ... ... : ... .. . ... ... ...
ROW 11 : ... .. 4 P78 ... ... : ... .. . P80 ... ... : --- .. . ... ... ... : ... .. . ... ... ... : ... .. . ... ... ... : ... .. 2 ... ... ...
ROW 12 : ... .. . P83 ... ... : ... .. . P81 ... ... : ... .. . ... ... ... : ... .. . ... ... ... : ... .. . ... ... ... : ... .. . ... ... ...
ROW 13 : G#1 02 9 P81 ... ... : ... .. . ... ... ... : C#3 00 . ... ... ... : ... .. 6 ... ... ... : C#1 05 . ... ... ... : B-2 04 7 I02 J8C ...
ROW 14 : G#1 01 . ... ... ... : ... .. . ... ... ... : ... .. . ... ... ... : ... .. . ... ... ... : ... .. . ... ... ... : ... .. 6 ... ... ...
ROW 15 : ... .. . ... ... ... : ... .. . ... ... ... : ... .. . ... ... ... : ... .. . ... ... ... : ... .. . ... ... ... : ... .. 5 ... ... ...
ROW 16 : ... .. . ... ... ... : G-4 00 . P7D ... ... : ... .. . ... ... ... : ... .. . ... ... ... : ... .. . ... ... ... : ... .. . ... ... ...
ROW 17 : ... .. 4 ... ... ... : ... .. . P7F ... ... : ... .. . ... ... ... : ... .. . ... ... ... : ... .. . ... ... ... : ... .. 4 ... ... ...
ROW 18 : ... .. . ... ... ... : ... .. . P7E ... ... : --- .. . ... ... ... : ... .. 5 ... ... ... : ... .. . ... ... ... : ... .. 2 ... ... ...
ROW 19 : G#1 02 9 ... ... ... : F#4 00 . P83 ... ... : C#3 00 . ... ... ... : ... .. . ... ... ... : C#1 05 . ... ... ... : ... .. 7 ... ... ...
ROW 1A : G#1 01 . ... ... ... : ... .. . P7F ... ... : ... .. . ... ... ... : ... .. . ... ... ... : ... .. . ... ... ... : ... .. 6 ... ... ...
ROW 1B : ... .. . ... ... ... : ... .. . P7C ... ... : ... .. . ... ... ... : ... .. . ... ... ... : ... .. . ... ... ... : ... .. 5 ... ... ...
ROW 1C : ... .. . ... ... ... : F-4 00 . P84 ... ... : ... .. . ... ... ... : ... .. . ... ... ... : ... .. . ... ... ... : ... .. . ... ... ...
ROW 1D : ... .. 4 ... ... ... : F#4 00 . P7D ... ... : ... .. . ... ... ... : ... .. 4 ... ... ... : ... .. . ... ... ... : ... .. 4 ... ... ...
ROW 1E : ... .. . ... ... ... : ... .. . P81 ... ... : --- .. . ... ... ... : ... .. . ... ... ... : ... .. . ... ... ... : ... .. 2 ... ... ...
ROW 1F : ... .. . ... ... ... : ... .. . P84 ... ... : ... .. . ... ... ... : ... .. . ... ... ... : ... .. . ... ... ... : ... .. . ... ... ...
ROW 20 : G#1 02 9 ... ... ... : G-4 00 . P7F ... ... : C#3 00 . ... ... ... : 7-# 00 B ... ... ... : D-1 05 . ... ... ... : ... .. 7 ... ... ...
ROW 21 : G#1 01 . ... ... ... : ... .. . ... ... ... : ... .. . ... ... ... : 3-# 00 8 ... ... ... : ... .. . ... ... ... : ... .. 6 ... ... ...
ROW 22 : ... .. . ... ... ... : F#4 00 . P83 ... ... : ... .. . ... ... ... : 6-# 00 A ... ... ... : ... .. . ... ... ... : ... .. 5 ... ... ...
ROW 23 : ... .. . ... ... ... : ... .. . P80 ... ... : ... .. . ... ... ... : 8-# 00 8 ... ... ... : ... .. . ... ... ... : ... .. . ... ... ...
ROW 24 : ... .. 4 ... ... ... : ... .. . P7C ... ... : ... .. . ... ... ... : 9-# 00 . ... ... ... : ... .. . ... ... ... : ... .. 4 ... ... ...
ROW 25 : ... .. . ... ... ... : F-4 00 . P84 ... ... : --- .. . ... ... ... : A-# 00 . ... ... ... : ... .. . ... ... ... : ... .. 2 ... ... ...
ROW 26 : G#1 02 9 ... ... ... : F#4 00 . P7D ... ... : C#3 00 . ... ... ... : ... .. . ... ... ... : ... .. . ... ... ... : ... .. 7 ... ... ...
ROW 27 : G#1 01 . ... ... ... : ... .. . P81 ... ... : ... .. . ... ... ... : ... .. 7 ... ... ... : ... .. . ... ... ... : ... .. 6 ... ... ...
ROW 28 : ... .. . ... ... ... : ... .. . P84 ... ... : ... .. . ... ... ... : ... .. . ... ... ... : ... .. . ... ... ... : ... .. 5 ... ... ...
ROW 29 : ... .. . ... ... ... : ... .. . P83 ... ... : ... .. . ... ... ... : ... .. 4 ... ... ... : ... .. . ... ... ... : ... .. . ... ... ...
ROW 2A : ... .. 4 ... ... ... : ... .. . ... ... ... : ... .. . ... ... ... : ... .. . ... ... ... : ... .. . ... ... ... : ... .. 4 ... ... ...
ROW 2B : ... .. . ... ... ... : ... .. . P82 ... ... : --- .. . ... ... ... : ... .. . ... ... ... : ... .. . ... ... ... : ... .. 2 ... ... ...
ROW 2C : ... .. . ... ... ... : ... .. . P81 ... ... : ... .. . ... ... ... : ... .. . ... ... ... : ... .. . ... ... ... : ... .. . ... ... ...
ROW 2D : B-2 02 9 ... ... ... : G-4 00 . ... ... ... : C#3 00 . ... ... ... : B-# 00 B ... ... ... : C-1 05 . ... ... ... : F#3 04 7 I05 J16 ...
ROW 2E : B-2 01 . ... ... ... : G#4 00 . P7F ... ... : ... .. . ... ... ... : 9-# 00 7 ... ... ... : ... .. . ... ... ... : ... .. 6 ... ... ...
ROW 2F : ... .. . ... ... ... : ... .. . P80 ... ... : ... .. . ... ... ... : A-# 00 4 ... ... ... : ... .. . ... ... ... : ... .. 5 ... ... ...
ROW 30 : ... .. . P8C ... ... : ... .. . P81 ... ... : ... .. . ... ... ... : ... .. . ... ... ... : ... .. . ... ... ... : ... .. . ... ... ...
ROW 31 : ... .. . P86 ... ... : ... .. . ... ... ... : ... .. . ... ... ... : ... .. . ... ... ... : ... .. . ... ... ... : ... .. . ... ... ...
ROW 32 : ... .. . P7A ... ... : ... .. . P83 ... ... : ... .. . ... ... ... : ... .. 2 ... ... ... : ... .. . ... ... ... : ... .. 4 ... ... ...
ROW 33 : ... .. . P77 ... ... : ... .. . ... ... ... : ... .. . ... ... ... : ... .. . ... ... ... : ... .. . ... ... ... : ... .. . ... ... ...
ROW 34 : ... .. . P82 ... ... : ... .. . P82 ... ... : ... .. . ... ... ... : ... .. 1 ... ... ... : ... .. . ... ... ... : ... .. . ... ... ...
ROW 35 : ... .. . P8C ... ... : ... .. . P81 ... ... : ... .. . ... ... ... : ... .. . ... ... ... : ... .. . ... ... ... : ... .. . ... ... ...
ROW 36 : ... .. . P85 ... ... : ... .. . P80 ... ... : ... .. . ... ... ... : ... .. 3 ... ... ... : ... .. . ... ... ... : ... .. . ... ... ...
ROW 37 : ... .. . P79 ... ... : ... .. . P7F ... ... : ... .. . ... ... ... : ... .. 1 ... ... ... : ... .. . ... ... ... : ... .. . ... ... ...
ROW 38 : ... .. 4 P78 ... ... : ... .. . ... ... ... : --- .. . ... ... ... : ... .. . ... ... ... : ... .. . ... ... ... : ... .. 2 ... ... ...
ROW 39 : ... .. . P83 ... ... : ... .. . P81 ... ... : ... .. . ... ... ... : ... .. . ... ... ... : ... .. . ... ... ... : ... .. . ... ... ...
ROW 3A : G#1 02 9 P81 ... ... : ... .. . ... ... ... : C#3 00 . ... ... ... : 7-# 00 B ... ... ... : C#1 05 . ... ... ... : B-2 04 7 I02 J8C ...
ROW 3B : G#1 01 . ... ... ... : ... .. . P83 ... ... : ... .. . ... ... ... : 3-# 00 8 ... ... ... : ... .. . ... ... ... : ... .. 6 ... ... ...
ROW 3C : ... .. . ... ... ... : ... .. . ... ... ... : ... .. . ... ... ... : 6-# 00 A ... ... ... : ... .. . ... ... ... : ... .. 5 ... ... ...
ROW 3D : ... .. . ... ... ... : A-5 02 7 P7F ... ... : ... .. . ... ... ... : 8-# 00 8 ... ... ... : ... .. . ... ... ... : ... .. . ... ... ...
ROW 3E : ... .. 4 ... ... ... : G#5 02 . P81 ... ... : ... .. . ... ... ... : 9-# 00 . ... ... ... : ... .. . ... ... ... : ... .. 4 ... ... ...
ROW 3F : ... .. . ... ... ... : ... .. . P80 ... ... : --- .. . ... ... ... : A-# 00 . ... ... ... : ... .. . ... ... ... : ... .. 2 ... ... ...
ROW 40 : G#1 02 9 ... ... ... : ... .. . P7F ... ... : C#3 00 . ... ... ... : ... .. . ... ... ... : C#1 05 . ... ... ... : ... .. 7 ... ... ...
ROW 41 : G#1 01 . ... ... ... : ... .. . ... ... ... : ... .. . ... ... ... : ... .. 7 ... ... ... : ... .. . ... ... ... : ... .. 6 ... ... ...
ROW 42 : ... .. . ... ... ... : ... .. . P81 ... ... : ... .. . ... ... ... : ... .. . ... ... ... : ... .. . ... ... ... : ... .. 5 ... ... ...
ROW 43 : ... .. . ... ... ... : ... .. . ... ... ... : ... .. . ... ... ... : ... .. 4 ... ... ... : ... .. . ... ... ... : ... .. . ... ... ...
ROW 44 : ... .. 4 ... ... ... : A-5 02 . P7F ... ... : ... .. . ... ... ... : ... .. . ... ... ... : ... .. . ... ... ... : ... .. 4 ... ... ...
ROW 45 : ... .. . ... ... ... : ... .. . P80 ... ... : --- .. . ... ... ... : ... .. . ... ... ... : ... .. . ... ... ... : ... .. 2 ... ... ...
ROW 46 : ... .. . ... ... ... : ... .. . P7F ... ... : ... .. . ... ... ... : ... .. . ... ... ... : ... .. . ... ... ... : ... .. . ... ... ...
ROW 47 : G#1 02 9 ... ... ... : F#4 01 D P81 ... ... : C#3 00 . ... ... ... : B-# 00 9 ... ... ... : D-1 05 . ... ... ... : ... .. 7 ... ... ...
ROW 48 : G#1 01 . ... ... ... : F#4 02 . P80 ... ... : ... .. . ... ... ... : 8-# 00 6 ... ... ... : ... .. . ... ... ... : ... .. 6 ... ... ...
ROW 49 : ... .. . ... ... ... : F#4 00 . P7F ... ... : ... .. . ... ... ... : 9-# 00 8 ... ... ... : ... .. . ... ... ... : ... .. 5 ... ... ...
ROW 4A : ... .. . ... ... ... : ... .. . ... ... ... : ... .. . ... ... ... : A-# 00 6 ... ... ... : ... .. . ... ... ... : ... .. . ... ... ...
ROW 4B : ... .. 4 ... ... ... : ... .. . P80 ... ... : ... .. . ... ... ... : B-# 00 7 ... ... ... : ... .. . ... ... ... : ... .. 4 ... ... ...
ROW 4C : ... .. . ... ... ... : ... .. . P81 ... ... : --- .. . ... ... ... : C-# 00 6 ... ... ... : ... .. . ... ... ... : ... .. 2 ... ... ...
ROW 4D : G#1 02 9 ... ... ... : G#4 01 . P82 ... ... : C#3 00 . ... ... ... : ... .. . ... ... ... : ... .. . ... ... ... : ... .. 7 ... ... ...
ROW 4E : G#1 01 . ... ... ... : G#4 02 . P83 ... ... : ... .. . ... ... ... : B-# 00 . ... ... ... : ... .. . ... ... ... : ... .. 6 ... ... ...
ROW 4F : ... .. . ... ... ... : G#4 00 . P82 ... ... : ... .. . ... ... ... : C-# 00 . ... ... ... : ... .. . ... ... ... : ... .. 5 ... ... ...
ROW 50 : ... .. . ... ... ... : ... .. . P81 ... ... : ... .. . ... ... ... : ... .. 5 ... ... ... : ... .. . ... ... ... : ... .. . ... ... ...
ROW 51 : ... .. 4 ... ... ... : ... .. . ... ... ... : ... .. . ... ... ... : ... .. . ... ... ... : ... .. . ... ... ... : ... .. 4 ... ... ...
ROW 52 : ... .. . ... ... ... : F#5 02 7 P7F ... ... : --- .. . ... ... ... : ... .. . ... ... ... : ... .. . ... ... ... : ... .. 2 ... ... ...
ROW 53 : ... .. . ... ... ... : ... .. . ... ... ... : ... .. . ... ... ... : ... .. . ... ... ... : ... .. . ... ... ... : ... .. . ... ... ...
ROW 54 : B-2 02 9 ... ... ... : E-4 01 D P80 ... ... : C#3 00 . ... ... ... : 8-# 00 B ... ... ... : C-1 05 . ... ... ... : F#3 04 7 I05 J16 ...
ROW 55 : B-2 01 . ... ... ... : E-4 02 . P81 ... ... : ... .. . ... ... ... : 4-# 00 8 ... ... ... : ... .. . ... ... ... : ... .. 6 ... ... ...
ROW 56 : ... .. . ... ... ... : E-4 00 . P82 ... ... : ... .. . ... ... ... : 7-# 00 A ... ... ... : ... .. . ... ... ... : ... .. 5 ... ... ...
ROW 57 : ... .. . P8C ... ... : ... .. . P83 ... ... : ... .. . ... ... ... : 9-# 00 8 ... ... ... : ... .. . ... ... ... : ... .. . ... ... ...
ROW 58 : ... .. . P86 ... ... : A-5 02 7 P80 ... ... : ... .. . ... ... ... : A-# 00 . ... ... ... : ... .. . ... ... ... : ... .. . ... ... ...
ROW 59 : ... .. . P7A ... ... : G#5 02 . P81 ... ... : ... .. . ... ... ... : B-# 00 . ... ... ... : ... .. . ... ... ... : ... .. 4 ... ... ...
ROW 5A : ... .. . P77 ... ... : F#4 01 D ... ... ... : ... .. . ... ... ... : ... .. . ... ... ... : ... .. . ... ... ... : ... .. . ... ... ...
ROW 5B : ... .. . P82 ... ... : F#4 02 . P7F ... ... : ... .. . ... ... ... : ... .. 7 ... ... ... : ... .. . ... ... ... : ... .. . ... ... ...
ROW 5C : ... .. . P8C ... ... : F#4 00 . ... ... ... : ... .. . ... ... ... : ... .. . ... ... ... : ... .. . ... ... ... : ... .. . ... ... ...
ROW 5D : ... .. . P85 ... ... : ... .. . P80 ... ... : ... .. . ... ... ... : ... .. 4 ... ... ... : ... .. . ... ... ... : ... .. . ... ... ...
ROW 5E : ... .. . P79 ... ... : ... .. . P81 ... ... : ... .. . ... ... ... : ... .. . ... ... ... : ... .. . ... ... ... : ... .. . ... ... ...
ROW 5F : ... .. 4 P78 ... ... : ... .. . P82 ... ... : --- .. . ... ... ... : ... .. . ... ... ... : ... .. . ... ... ... : ... .. 2 ... ... ...
ROW 60 : ... .. . P83 ... ... : ... .. . P83 ... ... : ... .. . ... ... ... : ... .. . ... ... ... : ... .. . ... ... ... : ... .. . ... ... ...
ROW 61 : G#1 02 9 P81 ... ... : E-4 01 . ... ... ... : C#3 00 . ... ... ... : ... .. B ... ... ... : C#1 05 . ... ... ... : B-2 04 7 I02 J8C ...
ROW 62 : G#1 01 . ... ... ... : E-4 02 . P81 ... ... : ... .. . ... ... ... : 9-# 00 7 ... ... ... : ... .. . ... ... ... : ... .. 6 ... ... ...
ROW 63 : ... .. . ... ... ... : E-4 00 . ... ... ... : ... .. . ... ... ... : A-# 00 4 ... ... ... : ... .. . ... ... ... : ... .. 5 ... ... ...
ROW 64 : ... .. . ... ... ... : ... .. . P80 ... ... : ... .. . ... ... ... : ... .. . ... ... ... : ... .. . ... ... ... : ... .. . ... ... ...
ROW 65 : ... .. 4 ... ... ... : ... .. . P7F ... ... : ... .. . ... ... ... : ... .. . ... ... ... : ... .. . ... ... ... : ... .. 4 ... ... ...
ROW 66 : ... .. . ... ... ... : ... .. 7 P80 ... ... : --- .. . ... ... ... : ... .. 2 ... ... ... : ... .. . ... ... ... : ... .. 2 ... ... ...
ROW 67 : G#1 02 9 ... ... ... : B-3 01 D P81 ... ... : C#3 00 . ... ... ... : ... .. . ... ... ... : C#1 05 . ... ... ... : ... .. 7 ... ... ...
ROW 68 : G#1 01 . ... ... ... : B-3 02 . P82 ... ... : ... .. . ... ... ... : ... .. 1 ... ... ... : ... .. . ... ... ... : ... .. 6 ... ... ...
ROW 69 : ... .. . ... ... ... : B-3 00 . P83 ... ... : ... .. . ... ... ... : ... .. . ... ... ... : ... .. . ... ... ... : ... .. 5 ... ... ...
ROW 6A : ... .. . ... ... ... : ... .. . ... ... ... : ... .. . ... ... ... : ... .. 3 ... ... ... : ... .. . ... ... ... : ... .. . ... ... ...
ROW 6B : ... .. 4 ... ... ... : ... .. . P82 ... ... : ... .. . ... ... ... : ... .. 1 ... ... ... : ... .. . ... ... ... : ... .. 4 ... ... ...
ROW 6C : ... .. . ... ... ... : ... .. . P81 ... ... : --- .. . ... ... ... : ... .. . ... ... ... : ... .. . ... ... ... : ... .. 2 ... ... ...
ROW 6D : ... .. . ... ... ... : E-5 02 7 P80 ... ... : ... .. . ... ... ... : ... .. . ... ... ... : ... .. . ... ... ... : ... .. . ... ... ...
ROW 6E : C#3 02 9 ... ... ... : C-4 01 D P7C ... ... : D-3 00 . ... ... ... : 9-# 00 B ... ... ... : D-1 05 . ... ... ... : G-3 04 7 I05 J64 ...
ROW 6F : C#3 01 . ... ... ... : B-3 02 . P86 ... ... : ... .. . ... ... ... : 5-# 00 8 ... ... ... : ... .. . ... ... ... : ... .. 6 ... ... ...
ROW 70 : ... .. . ... ... ... : B-3 00 . P84 ... ... : ... .. . ... ... ... : 8-# 00 A ... ... ... : ... .. . ... ... ... : ... .. 5 ... ... ...
ROW 71 : D-3 01 . P75 ... ... : ... .. . P85 ... ... : ... .. . ... ... ... : A-# 00 8 ... ... ... : ... .. . ... ... ... : ... .. . ... ... ...
ROW 72 : C#3 01 . P86 ... ... : C-4 00 . P7C ... ... : ... .. . ... ... ... : B-# 00 . ... ... ... : ... .. . ... ... ... : ... .. . ... ... ...
ROW 73 : ... .. . P7A ... ... : ... .. . P7D ... ... : ... .. . ... ... ... : C-# 00 . ... ... ... : ... .. . ... ... ... : ... .. 4 ... ... ...
ROW 74 : ... .. . P77 ... ... : ... .. . ... ... ... : ... .. . ... ... ... : ... .. . ... ... ... : ... .. . ... ... ... : ... .. . ... ... ...
ROW 75 : ... .. . P82 ... ... : ... .. . ... ... ... : ... .. . ... ... ... : ... .. 7 ... ... ... : ... .. . ... ... ... : ... .. . ... ... ...
ROW 76 : D-3 01 . P75 ... ... : ... .. . ... ... ... : ... .. . ... ... ... : ... .. . ... ... ... : ... .. . ... ... ... : ... .. . ... ... ...
ROW 77 : C#3 01 . P85 ... ... : ... .. . ... ... ... : ... .. . ... ... ... : ... .. 4 ... ... ... : ... .. . ... ... ... : ... .. . ... ... ...
ROW 78 : ... .. . P79 ... ... : ... .. . P7E ... ... : ... .. . ... ... ... : ... .. . ... ... ... : ... .. . ... ... ... : ... .. . ... ... ...
ROW 79 : ... .. 4 P78 ... ... : ... .. . P81 ... ... : --- .. . ... ... ... : ... .. . ... ... ... : ... .. . ... ... ... : ... .. 2 ... ... ...
ROW 7A : ... .. . P83 ... ... : ... .. . P82 ... ... : ... .. . ... ... ... : ... .. . ... ... ... : ... .. . ... ... ... : ... .. . ... ... ...
ROW 7B : G#1 02 9 P81 ... ... : ... .. . P85 ... ... : C#3 00 . ... ... ... : B-# 00 B ... ... ... : C-1 05 . ... ... ... : B-2 04 7 I02 J8C ...
ROW 7C : G#1 01 . ... ... ... : ... .. . P86 ... ... : ... .. . ... ... ... : 9-# 00 7 ... ... ... : ... .. . ... ... ... : ... .. 6 ... ... ...
ROW 7D : ... .. . ... ... ... : ... .. . ... ... ... : ... .. . ... ... ... : A-# 00 4 ... ... ... : ... .. . ... ... ... : ... .. 5 ... ... ...
ROW 7E : ... .. . ... ... ... : C#4 00 . P7B ... ... : ... .. . ... ... ... : ... .. . ... ... ... : ... .. . ... ... ... : ... .. . ... ... ...
ROW 7F : ... .. 4 ... ... ... : ... .. . P7C ... ... : ... .. . ... ... ... : ... .. . ... ... ... : ... .. . ... ... ... : ... .. 4 ... ... ...
ROW 80 : ... .. . ... ... ... : ... .. . P7D ... ... : --- .. . ... ... ... : ... .. 2 ... ... ... : ... .. . ... ... ... : ... .. 2 ... ... ...
ROW 81 : G#1 02 9 ... ... ... : ... .. . P7F ... ... : C#3 00 . ... ... ... : ... .. . ... ... ... : C#1 05 . ... ... ... : ... .. 7 ... ... ...
ROW 82 : G#1 01 . ... ... ... : ... .. . P81 ... ... : ... .. . ... ... ... : ... .. 1 ... ... ... : ... .. . ... ... ... : ... .. 6 ... ... ...
ROW 83 : ... .. . ... ... ... : ... .. . ... ... ... : ... .. . ... ... ... : ... .. . ... ... ... : ... .. . ... ... ... : ... .. 5 ... ... ...
ROW 84 : ... .. . ... ... ... : ... .. . P82 ... ... : ... .. . ... ... ... : ... .. 3 ... ... ... : ... .. . ... ... ... : ... .. . ... ... ...
ROW 85 : ... .. 4 ... ... ... : ... .. . P83 ... ... : ... .. . ... ... ... : ... .. 1 ... ... ... : ... .. . ... ... ... : ... .. 4 ... ... ...
ROW 86 : ... .. . ... ... ... : ... .. . P82 ... ... : --- .. . ... ... ... : ... .. . ... ... ... : ... .. . ... ... ... : ... .. 2 ... ... ...
ROW 87 : ... .. . ... ... ... : ... .. . P81 ... ... : ... .. . ... ... ... : ... .. . ... ... ... : ... .. . ... ... ... : ... .. . ... ... ...
ROW 88 : C#3 02 9 ... ... ... : ... .. . P7B ... ... : D-3 00 . ... ... ... : 9-# 00 B ... ... ... : D-1 05 . ... ... ... : G-3 04 7 I05 J64 ...
ROW 89 : C#3 01 . ... ... ... : C-4 00 . P84 ... ... : ... .. . ... ... ... : 5-# 00 8 ... ... ... : ... .. . ... ... ... : ... .. 6 ... ... ...
ROW 8A : ... .. . ... ... ... : C#4 00 . P7C ... ... : ... .. . ... ... ... : 8-# 00 A ... ... ... : ... .. . ... ... ... : ... .. 5 ... ... ...
ROW 8B : D-3 01 . P75 ... ... : ... .. . P82 ... ... : ... .. . ... ... ... : A-# 00 8 ... ... ... : ... .. . ... ... ... : ... .. . ... ... ...
ROW 8C : C#3 01 . P86 ... ... : D-4 00 . P7D ... ... : ... .. . ... ... ... : B-# 00 . ... ... ... : ... .. . ... ... ... : ... .. . ... ... ...
ROW 8D : ... .. . P7A ... ... : ... .. . ... ... ... : ... .. . ... ... ... : C-# 00 . ... ... ... : ... .. . ... ... ... : ... .. 4 ... ... ...
ROW 8E : ... .. . P77 ... ... : C#4 00 . P82 ... ... : ... .. . ... ... ... : ... .. . ... ... ... : ... .. . ... ... ... : ... .. . ... ... ...
ROW 8F : ... .. . P82 ... ... : ... .. . P7C ... ... : ... .. . ... ... ... : ... .. 7 ... ... ... : ... .. . ... ... ... : ... .. . ... ... ...
ROW 90 : D-3 01 . P75 ... ... : C-4 00 . P84 ... ... : ... .. . ... ... ... : ... .. . ... ... ... : ... .. . ... ... ... : ... .. . ... ... ...
ROW 91 : C#3 01 . P85 ... ... : C#4 00 . P7B ... ... : ... .. . ... ... ... : ... .. 4 ... ... ... : ... .. . ... ... ... : ... .. . ... ... ...
ROW 92 : ... .. . P79 ... ... : ... .. . P81 ... ... : ... .. . ... ... ... : ... .. . ... ... ... : ... .. . ... ... ... : ... .. . ... ... ...
ROW 93 : ... .. 4 P78 ... ... : D-4 00 . P7D ... ... : --- .. . ... ... ... : ... .. . ... ... ... : ... .. . ... ... ... : ... .. 2 ... ... ...
ROW 94 : ... .. . P83 ... ... : ... .. . P7E ... ... : ... .. . ... ... ... : ... .. . ... ... ... : ... .. . ... ... ... : ... .. . ... ... ...
ROW 95 : G#1 02 9 P81 ... ... : C#4 00 . P83 ... ... : C#3 00 . ... ... ... : B-# 00 B ... ... ... : C-1 05 . ... ... ... : B-2 04 7 I02 J8C ...
ROW 96 : G#1 01 . ... ... ... : ... .. . P7D ... ... : ... .. . ... ... ... : 9-# 00 7 ... ... ... : ... .. . ... ... ... : ... .. 6 ... ... ...
ROW 97 : ... .. . ... ... ... : C-4 00 . P84 ... ... : ... .. . ... ... ... : A-# 00 4 ... ... ... : ... .. . ... ... ... : ... .. 5 ... ... ...
ROW 98 : ... .. . ... ... ... : ... .. . P86 ... ... : ... .. . ... ... ... : ... .. . ... ... ... : ... .. . ... ... ... : ... .. . ... ... ...
ROW 99 : ... .. 4 ... ... ... : C#4 00 . P81 ... ... : ... .. . ... ... ... : ... .. . ... ... ... : ... .. . ... ... ... : ... .. 4 ... ... ...
ROW 9A : ... .. . ... ... ... : D-4 00 . P7C ... ... : --- .. . ... ... ... : ... .. 2 ... ... ... : ... .. . ... ... ... : ... .. 2 ... ... ...
ROW 9B : G#1 02 9 ... ... ... : ... .. . P7E ... ... : C#3 00 . ... ... ... : ... .. . ... ... ... : C#1 05 . ... ... ... : ... .. 7 ... ... ...
ROW 9C : G#1 01 . ... ... ... : C#4 00 . P84 ... ... : ... .. . ... ... ... : ... .. 1 ... ... ... : ... .. . ... ... ... : ... .. 6 ... ... ...
ROW 9D : ... .. . ... ... ... : ... .. . P7E ... ... : ... .. . ... ... ... : ... .. . ... ... ... : ... .. . ... ... ... : ... .. 5 ... ... ...
ROW 9E : ... .. . ... ... ... : C-4 00 . P84 ... ... : ... .. . ... ... ... : ... .. 3 ... ... ... : ... .. . ... ... ... : ... .. . ... ... ...
ROW 9F : ... .. 4 ... ... ... : ... .. . P86 ... ... : ... .. . ... ... ... : ... .. 1 ... ... ... : ... .. . ... ... ... : ... .. 4 ... ... ...
ROW A0 : ... .. . ... ... ... : C#4 00 . P81 ... ... : --- .. . ... ... ... : ... .. . ... ... ... : ... .. . ... ... ... : ... .. 2 ... ... ...
ROW A1 : ... .. . ... ... ... : D-4 00 . P7C ... ... : ... .. . ... ... ... : ... .. . ... ... ... : ... .. . ... ... ... : ... .. . ... ... ...
ROW A2 : B-2 02 9 ... ... ... : ... .. . P7E ... ... : C#3 00 . ... ... ... : 8-# 00 B ... ... ... : D-1 05 . ... ... ... : F#3 04 7 I05 J16 ...
ROW A3 : B-2 01 . ... ... ... : C#4 00 . P85 ... ... : ... .. . ... ... ... : 4-# 00 8 ... ... ... : ... .. . ... ... ... : ... .. 6 ... ... ...
ROW A4 : ... .. . ... ... ... : ... .. . P7F ... ... : ... .. . ... ... ... : 7-# 00 A ... ... ... : ... .. . ... ... ... : ... .. 5 ... ... ...
ROW A5 : ... .. . P8C ... ... : C-4 00 . P84 ... ... : ... .. . ... ... ... : 9-# 00 8 ... ... ... : ... .. . ... ... ... : ... .. . ... ... ...
ROW A6 : ... .. . P86 ... ... : ... .. . P85 ... ... : ... .. . ... ... ... : A-# 00 . ... ... ... : ... .. . ... ... ... : ... .. . ... ... ...
ROW A7 : ... .. . P7A ... ... : C#4 00 . P81 ... ... : ... .. . ... ... ... : B-# 00 . ... ... ... : ... .. . ... ... ... : ... .. 4 ... ... ...
ROW A8 : ... .. . P77 ... ... : D-4 00 . P7B ... ... : ... .. . ... ... ... : ... .. . ... ... ... : ... .. . ... ... ... : ... .. . ... ... ...
ROW A9 : ... .. . P82 ... ... : ... .. . P7E ... ... : ... .. . ... ... ... : ... .. 7 ... ... ... : ... .. . ... ... ... : ... .. . ... ... ...
ROW AA : ... .. . P8C ... ... : C#4 00 . P86 ... ... : ... .. . ... ... ... : ... .. . ... ... ... : ... .. . ... ... ... : ... .. . ... ... ...
ROW AB : ... .. . P85 ... ... : C-4 01 A P81 ... ... : ... .. . ... ... ... : ... .. 4 ... ... ... : ... .. . ... ... ... : ... .. . ... ... ...
ROW AC : ... .. . P79 ... ... : C-4 02 . ... ... ... : ... .. . ... ... ... : ... .. . ... ... ... : ... .. . ... ... ... : ... .. . ... ... ...
ROW AD : ... .. 4 P78 ... ... : B-3 01 . ... ... ... : --- .. . ... ... ... : ... .. . ... ... ... : ... .. . ... ... ... : ... .. 2 ... ... ...
ROW AE : ... .. . P83 ... ... : A#3 02 . ... ... ... : ... .. . ... ... ... : ... .. . ... ... ... : ... .. . ... ... ... : ... .. . ... ... ...
ROW AF : G#1 02 9 P81 ... ... : A#3 01 . ... ... ... : C#3 00 . ... ... ... : ... .. B ... ... ... : C-1 05 . ... ... ... : B-2 04 7 I02 J8C ...
ROW B0 : G#1 01 . ... ... ... : A-3 02 . ... ... ... : ... .. . ... ... ... : 9-# 00 7 ... ... ... : ... .. . ... ... ... : ... .. 6 ... ... ...
ROW B1 : ... .. . ... ... ... : G#3 01 . ... ... ... : ... .. . ... ... ... : A-# 00 4 ... ... ... : ... .. . ... ... ... : ... .. 5 ... ... ...
ROW B2 : ... .. . ... ... ... : G#3 02 . ... ... ... : ... .. . ... ... ... : ... .. . ... ... ... : ... .. . ... ... ... : ... .. . ... ... ...
ROW B3 : ... .. 4 ... ... ... : G-3 01 . ... ... ... : ... .. . ... ... ... : ... .. . ... ... ... : ... .. . ... ... ... : ... .. 4 ... ... ...
ROW B4 : ... .. . ... ... ... : F#3 02 . ... ... ... : --- .. . ... ... ... : ... .. 2 ... ... ... : ... .. . ... ... ... : ... .. 2 ... ... ...
ROW B5 : G#1 02 9 ... ... ... : F#3 01 . ... ... ... : C#3 00 . ... ... ... : ... .. . ... ... ... : C#1 05 . ... ... ... : ... .. 7 ... ... ...
ROW B6 : G#1 01 . ... ... ... : F-3 02 . ... ... ... : ... .. . ... ... ... : ... .. 1 ... ... ... : ... .. . ... ... ... : ... .. 6 ... ... ...
ROW B7 : ... .. . ... ... ... : E-3 01 . ... ... ... : ... .. . ... ... ... : ... .. . ... ... ... : ... .. . ... ... ... : ... .. 5 ... ... ...
ROW B8 : ... .. . ... ... ... : E-3 02 . ... ... ... : ... .. . ... ... ... : ... .. 3 ... ... ... : ... .. . ... ... ... : ... .. . ... ... ...
ROW B9 : ... .. 4 ... ... ... : D#3 01 . ... ... ... : ... .. . ... ... ... : ... .. 1 ... ... ... : ... .. . ... ... ... : ... .. 4 ... ... ...
ROW BA : ... .. . ... ... ... : D-3 02 . ... ... ... : --- .. . ... ... ... : ... .. . ... ... ... : ... .. . ... ... ... : ... .. 2 ... ... ...
ROW BB : ... .. . ... ... ... : D-3 01 . ... ... ... : ... .. . ... ... ... : ... .. . ... ... ... : ... .. . ... ... ... : ... .. . ... ... ...
ROW BC : E-1 00 9 P7C ... ... : A#3 01 D P7C ... ... : A-2 00 . ... ... ... : 8-# 00 C ... ... ... : C-1 05 . ... ... ... : C#3 04 6 I03 JCC ...
ROW BD : E-1 03 . ... ... ... : A-3 02 . P85 ... ... : ... .. . ... ... ... : 4-# 00 8 ... ... ... : ... .. . ... ... ... : ... .. 5 ... ... ...
ROW BE : E-1 02 . ... ... ... : A-3 00 . P80 ... ... : ... .. . ... ... ... : 7-# 00 B ... ... ... : ... .. . ... ... ... : ... .. . ... ... ...
ROW BF : E-1 01 . ... ... ... : ... .. . P7B ... ... : ... .. . ... ... ... : 9-# 00 8 ... ... ... : ... .. . ... ... ... : D-3 04 4 I04 J08 ...
ROW C0 : ... .. . ... ... ... : G#3 00 . P85 ... ... : ... .. . ... ... ... : A-# 00 9 ... ... ... : ... .. . ... ... ... : ... .. . ... ... ...
ROW C1 : ... .. . ... ... ... : ... .. . P81 ... ... : ... .. . ... ... ... : B-# 00 8 ... ... ... : ... .. . ... ... ... : ... .. . ... ... ...
ROW C2 : ... .. . ... ... ... : ... .. . P86 ... ... : ... .. . ... ... ... : ... .. . ... ... ... : ... .. . ... ... ... : ... .. . ... ... ...
ROW C3 : ... .. . ... ... ... : A-3 00 . P7C ... ... : ... .. . ... ... ... : ... .. . ... ... ... : ... .. . ... ... ... : ... .. . ... ... ...
ROW C4 : ... .. . ... ... ... : ... .. . P81 ... ... : ... .. . ... ... ... : ... .. . ... ... ... : ... .. . ... ... ... : ... .. . ... ... ...
ROW C5 : ... .. . ... ... ... : ... .. . ... ... ... : ... .. . ... ... ... : ... .. 7 ... ... ... : ... .. . ... ... ... : ... .. . ... ... ...
ROW C6 : ... .. . ... ... ... : ... .. . ... ... ... : ... .. . ... ... ... : ... .. . ... ... ... : ... .. . ... ... ... : ... .. . ... ... ...
ROW C7 : ... .. . ... ... ... : ... .. . ... ... ... : ... .. . ... ... ... : ... .. . ... ... ... : ... .. . ... ... ... : ... .. . ... ... ...
ROW C8 : ... .. . ... ... ... : ... .. . ... ... ... : ... .. . ... ... ... : ... .. . ... ... ... : ... .. . ... ... ... : ... .. . ... ... ...
ROW C9 : ... .. . ... ... ... : G#3 01 . ... ... ... : ... .. . ... ... ... : ... .. 6 ... ... ... : ... .. . ... ... ... : ... .. . ... ... ...
ROW CA : ... .. . ... ... ... : G#3 02 . ... ... ... : ... .. . ... ... ... : ... .. . ... ... ... : ... .. . ... ... ... : ... .. . ... ... ...
ROW CB : ... .. . ... ... ... : G#3 00 . ... ... ... : ... .. . ... ... ... : ... .. . ... ... ... : ... .. . ... ... ... : ... .. . ... ... ...
ROW CC : ... .. . ... ... ... : ... .. . ... ... ... : ... .. . ... ... ... : ... .. . ... ... ... : ... .. . ... ... ... : ... .. . ... ... ...
ROW CD : ... .. . ... ... ... : ... .. . ... ... ... : ... .. . ... ... ... : ... .. . ... ... ... : ... .. . ... ... ... : ... .. . ... ... ...
ROW CE : ... .. . ... ... ... : ... .. . ... ... ... : ... .. . ... ... ... : ... .. 5 ... ... ... : ... .. . ... ... ... : ... .. . ... ... ...
ROW CF : ... .. . ... ... ... : ... .. . ... ... ... : ... .. . ... ... ... : ... .. . ... ... ... : ... .. . ... ... ... : ... .. . ... ... ...
ROW D0 : ... .. . ... ... ... : ... .. . ... ... ... : ... .. . ... ... ... : ... .. . ... ... ... : ... .. . ... ... ... : ... .. . ... ... ...
ROW D1 : ... .. . ... ... ... : A-4 02 7 ... ... ... : ... .. . ... ... ... : ... .. . ... ... ... : ... .. . ... ... ... : ... .. . ... ... ...
ROW D2 : ... .. . ... ... ... : ... .. . ... ... ... : ... .. . ... ... ... : ... .. . ... ... ... : ... .. . ... ... ... : ... .. . ... ... ...
ROW D3 : ... .. . ... ... ... : ... .. . ... ... ... : ... .. . ... ... ... : ... .. 4 ... ... ... : ... .. . ... ... ... : ... .. . ... ... ...
ROW D4 : ... .. . ... ... ... : ... .. . ... ... ... : ... .. . ... ... ... : ... .. . ... ... ... : ... .. . ... ... ... : ... .. . ... ... ...
ROW D5 : ... .. . ... ... ... : ... .. . ... ... ... : ... .. . ... ... ... : ... .. . ... ... ... : ... .. . ... ... ... : ... .. . ... ... ...
ROW D6 : ... .. . ... ... ... : A-3 01 D ... ... ... : ... .. . ... ... ... : ... .. B ... ... ... : D-1 05 . ... ... ... : ... .. . ... ... ...
ROW D7 : ... .. . ... ... ... : A-3 02 . ... ... ... : ... .. . ... ... ... : 9-# 00 7 ... ... ... : ... .. . ... ... ... : ... .. . ... ... ...
ROW D8 : ... .. . ... ... ... : A-3 00 . ... ... ... : ... .. . ... ... ... : A-# 00 4 ... ... ... : ... .. . ... ... ... : ... .. . ... ... ...
ROW D9 : ... .. . ... ... ... : ... .. . ... ... ... : ... .. . ... ... ... : ... .. . ... ... ... : ... .. . ... ... ... : ... .. . ... ... ...
ROW DA : ... .. . ... ... ... : ... .. . ... ... ... : ... .. . ... ... ... : ... .. . ... ... ... : ... .. . ... ... ... : ... .. . ... ... ...
ROW DB : ... .. . ... ... ... : ... .. . ... ... ... : ... .. . ... ... ... : ... .. 2 ... ... ... : ... .. . ... ... ... : ... .. . ... ... ...
ROW DC : ... .. . ... ... ... : ... .. . ... ... ... : ... .. . ... ... ... : ... .. . ... ... ... : ... .. . ... ... ... : ... .. . ... ... ...
ROW DD : ... .. . ... ... ... : ... .. . ... ... ... : ... .. . ... ... ... : ... .. 1 ... ... ... : ... .. . ... ... ... : ... .. . ... ... ...
ROW DE : ... .. . ... ... ... : G#4 02 7 ... ... ... : ... .. . ... ... ... : ... .. . ... ... ... : ... .. . ... ... ... : ... .. . ... ... ...
ROW DF : ... .. . ... ... ... : ... .. . ... ... ... : ... .. . ... ... ... : ... .. 3 ... ... ... : ... .. . ... ... ... : ... .. . ... ... ...
ROW E0 : ... .. . ... ... ... : ... .. . ... ... ... : ... .. . ... ... ... : ... .. 1 ... ... ... : ... .. . ... ... ... : ... .. . ... ... ...
ROW E1 : ... .. . ... ... ... : ... .. . ... ... ... : ... .. . ... ... ... : ... .. . ... ... ... : ... .. . ... ... ... : ... .. . ... ... ...
ROW E2 : ... .. . ... ... ... : ... .. . ... ... ... : ... .. . ... ... ... : ... .. . ... ... ... : ... .. . ... ... ... : ... .. . ... ... ...
ROW E3 : ... .. . ... ... ... : G#3 01 D ... ... ... : ... .. . ... ... ... : C-# 01 9 ... ... ... : ... .. . ... ... ... : ... .. . ... ... ...
ROW E4 : ... .. . ... ... ... : G#3 02 . ... ... ... : ... .. . ... ... ... : D-# 00 6 ... ... ... : ... .. . ... ... ... : ... .. . ... ... ...
ROW E5 : ... .. . ... ... ... : G#3 00 . ... ... ... : ... .. . ... ... ... : ... .. . ... ... ... : ... .. . ... ... ... : ... .. . ... ... ...
ROW E6 : ... .. . ... ... ... : ... .. . ... ... ... : ... .. . ... ... ... : E-# 01 5 ... ... ... : ... .. . ... ... ... : ... .. . ... ... ...
ROW E7 : ... .. . ... ... ... : ... .. . ... ... ... : ... .. . ... ... ... : D-# 01 . ... ... ... : ... .. . ... ... ... : ... .. . ... ... ...
ROW E8 : ... .. . ... ... ... : ... .. . ... ... ... : ... .. . ... ... ... : E-# 00 4 ... ... ... : ... .. . ... ... ... : ... .. . ... ... ...
ROW E9 : ... .. . ... ... ... : ... .. . ... ... ... : ... .. . ... ... ... : ... .. . ... ... ... : C-1 05 . ... ... ... : ... .. . ... ... ...
ROW EA : ... .. . ... ... ... : ... .. . ... ... ... : ... .. . ... ... ... : ... .. . ... ... ... : ... .. . ... ... ... : ... .. . ... ... ...
ROW EB : ... .. . ... ... ... : A-4 02 7 ... ... ... : ... .. . ... ... ... : ... .. . ... ... ... : ... .. . ... ... ... : ... .. . ... ... ...
ROW EC : ... .. . ... ... ... : ... .. . ... ... ... : ... .. . ... ... ... : ... .. . ... ... ... : ... .. . ... ... ... : ... .. . ... ... ...
ROW ED : ... .. . ... ... ... : ... .. . ... ... ... : ... .. . ... ... ... : ... .. 3 ... ... ... : ... .. . ... ... ... : ... .. . ... ... ...
ROW EE : ... .. . ... ... ... : ... .. . ... ... ... : ... .. . ... ... ... : ... .. . ... ... ... : ... .. . ... ... ... : ... .. . ... ... ...
ROW EF : ... .. . ... ... ... : ... .. . ... ... ... : ... .. . ... ... ... : ... .. . ... ... ... : ... .. . ... ... ... : ... .. . ... ... ...
ROW F0 : ... .. . ... ... ... : A-3 01 D ... ... ... : ... .. . ... ... ... : B-# 00 B ... ... ... : C-1 05 . ... ... ... : ... .. . ... ... ...
ROW F1 : ... .. . ... ... ... : A-3 02 . ... ... ... : ... .. . ... ... ... : 9-# 00 7 ... ... ... : ... .. . ... ... ... : ... .. . ... ... ...
ROW F2 : ... .. . ... ... ... : A-3 00 . ... ... ... : ... .. . ... ... ... : A-# 00 4 ... ... ... : ... .. . ... ... ... : ... .. . ... ... ...
ROW F3 : ... .. . ... ... ... : ... .. . ... ... ... : ... .. . ... ... ... : ... .. . ... ... ... : ... .. . ... ... ... : ... .. . ... ... ...
ROW F4 : ... .. . ... ... ... : ... .. . ... ... ... : ... .. . ... ... ... : ... .. . ... ... ... : ... .. . ... ... ... : ... .. . ... ... ...
ROW F5 : ... .. . ... ... ... : ... .. . ... ... ... : ... .. . ... ... ... : ... .. 2 ... ... ... : ... .. . ... ... ... : ... .. . ... ... ...
ROW F6 : ... .. . ... ... ... : ... .. . ... ... ... : ... .. . ... ... ... : ... .. . ... ... ... : ... .. . ... ... ... : ... .. . ... ... ...
ROW F7 : ... .. . ... ... ... : ... .. . ... ... ... : ... .. . ... ... ... : ... .. 1 ... ... ... : ... .. . ... ... ... : ... .. . ... ... ...
ROW F8 : ... .. . ... ... ... : G#4 02 7 ... ... ... : ... .. . ... ... ... : ... .. . ... ... ... : ... .. . ... ... ... : ... .. . ... ... ...
ROW F9 : ... .. . ... ... ... : ... .. . ... ... ... : ... .. . ... ... ... : ... .. 3 ... ... ... : ... .. . ... ... ... : ... .. . ... ... ...
ROW FA : ... .. . ... ... ... : ... .. . ... ... ... : ... .. . ... ... ... : ... .. 1 ... ... ... : ... .. . ... ... ... : ... .. . ... ... ...
ROW FB : ... .. . ... ... ... : ... .. . ... ... ... : ... .. . ... ... ... : ... .. . ... ... ... : ... .. . ... ... ... : ... .. . ... ... ...
ROW FC : ... .. . ... ... ... : ... .. . ... ... ... : ... .. . ... ... ... : ... .. . ... ... ... : ... .. . ... ... ... : ... .. . ... ... ...
ROW FD : ... .. . ... ... ... : D#4 01 D ... ... ... : ... .. . ... ... ... : C-# 01 9 ... ... ... : C-1 05 . ... ... ... : ... .. . ... ... ...
ROW FE : ... .. . ... ... ... : D#4 02 . ... ... ... : ... .. . ... ... ... : D-# 00 6 ... ... ... : ... .. . ... ... ... : ... .. . ... ... ...
ROW FF : ... .. . ... ... ... : D#4 00 . ... ... ... : ... .. . ... ... ... : ... .. . ... ... ... : ... .. . ... ... ... : ... .. . ... ... ...

PATTERN 09
ROW 00 : ... .. . ... ... ... : ... .. . ... ... ... : ... .. . ... ... ... : E-# 01 5 ... ... ... : ... .. . ... ... ... : ... .. . ... ... ...
ROW 01 : ... .. . ... ... ... : ... .. . ... ... ... : ... .. . ... ... ... : D-# 01 . ... ... ... : ... .. . ... ... ... : ... .. . ... ... ...
ROW 02 : ... .. . ... ... ... : ... .. . ... ... ... : ... .. . ... ... ... : E-# 00 4 ... ... ... : ... .. . ... ... ... : ... .. . ... ... ...
ROW 03 : ... .. . ... ... ... : ... .. . P84 ... ... : ... .. . ... ... ... : ... .. . ... ... ... : ... .. . ... ... ... : ... .. . ... ... ...
ROW 04 : ... .. . ... ... ... : E-4 00 . P7D ... ... : ... .. . ... ... ... : ... .. . ... ... ... : ... .. . ... ... ... : ... .. . ... ... ...
ROW 05 : ... .. . ... ... ... : ... .. . P80 ... ... : ... .. . ... ... ... : ... .. . ... ... ... : ... .. . ... ... ... : ... .. . ... ... ...
ROW 06 : ... .. . ... ... ... : ... .. . P81 ... ... : ... .. . ... ... ... : ... .. . ... ... ... : ... .. . ... ... ... : ... .. . ... ... ...
ROW 07 : ... .. . ... ... ... : ... .. . ... ... ... : ... .. . ... ... ... : ... .. 3 ... ... ... : ... .. . ... ... ... : ... .. . ... ... ...
ROW 08 : ... .. . ... ... ... : ... .. . ... ... ... : ... .. . ... ... ... : ... .. . ... ... ... : ... .. . ... ... ... : ... .. . ... ... ...
ROW 09 : ... .. . ... ... ... : ... .. . ... ... ... : ... .. . ... ... ... : ... .. . ... ... ... : ... .. . ... ... ... : ... .. . ... ... ...
ROW 0A : ... .. . ... ... ... : F-4 00 . P7C ... ... : ... .. . ... ... ... : B-# 00 B ... ... ... : D-1 05 . ... ... ... : ... .. . ... ... ...
ROW 0B : ... .. . ... ... ... : ... .. . P7D ... ... : ... .. . ... ... ... : 9-# 00 7 ... ... ... : ... .. . ... ... ... : ... .. . ... ... ...
ROW 0C : ... .. . ... ... ... : E-4 00 . P83 ... ... : ... .. . ... ... ... : A-# 00 4 ... ... ... : ... .. . ... ... ... : ... .. . ... ... ...
ROW 0D : ... .. . ... ... ... : ... .. . P7F ... ... : ... .. . ... ... ... : ... .. . ... ... ... : ... .. . ... ... ... : ... .. . ... ... ...
ROW 0E : ... .. . ... ... ... : D#4 00 . P85 ... ... : ... .. . ... ... ... : ... .. . ... ... ... : ... .. . ... ... ... : ... .. . ... ... ...
ROW 0F : ... .. . ... ... ... : E-4 00 . P7C ... ... : ... .. . ... ... ... : ... .. 2 ... ... ... : ... .. . ... ... ... : ... .. . ... ... ...
ROW 10 : ... .. . ... ... ... : D-4 00 A ... ... ... : ... .. . ... ... ... : ... .. . ... ... ... : ... .. . ... ... ... : ... .. . ... ... ...
ROW 11 : ... .. . ... ... ... : C-4 00 . P7F ... ... : ... .. . ... ... ... : ... .. 1 ... ... ... : ... .. . ... ... ... : ... .. . ... ... ...
ROW 12 : ... .. . ... ... ... : A#3 00 . P82 ... ... : ... .. . ... ... ... : ... .. . ... ... ... : ... .. . ... ... ... : ... .. . ... ... ...
ROW 13 : ... .. . ... ... ... : G#3 00 . P83 ... ... : ... .. . ... ... ... : ... .. 3 ... ... ... : ... .. . ... ... ... : ... .. . ... ... ...
ROW 14 : ... .. . ... ... ... : F#3 00 . P86 ... ... : ... .. . ... ... ... : ... .. 1 ... ... ... : ... .. . ... ... ... : ... .. . ... ... ...
ROW 15 : ... .. . ... ... ... : F-3 00 . P7B ... ... : ... .. . ... ... ... : ... .. . ... ... ... : ... .. . ... ... ... : ... .. . ... ... ...
ROW 16 : ... .. . ... ... ... : E-3 00 . P76 ... ... : ... .. . ... ... ... : ... .. . ... ... ... : ... .. . ... ... ... : ... .. . ... ... ...
ROW 17 : ... .. . ... ... ... : B-3 01 D P82 ... ... : ... .. . ... ... ... : C-# 01 9 ... ... ... : ... .. . ... ... ... : ... .. . ... ... ...
ROW 18 : ... .. . ... ... ... : B-3 02 . P7B ... ... : ... .. . ... ... ... : D-# 00 6 ... ... ... : ... .. . ... ... ... : ... .. . ... ... ...
ROW 19 : ... .. . ... ... ... : A#3 00 . P80 ... ... : ... .. . ... ... ... : ... .. . ... ... ... : ... .. . ... ... ... : ... .. . ... ... ...
ROW 1A : ... .. . ... ... ... : ... .. . ... ... ... : ... .. . ... ... ... : E-# 01 5 ... ... ... : ... .. . ... ... ... : ... .. . ... ... ...
ROW 1B : ... .. . ... ... ... : ... .. . P7F ... ... : ... .. . ... ... ... : D-# 01 . ... ... ... : ... .. . ... ... ... : ... .. . ... ... ...
ROW 1C : ... .. 2 ... ... ... : ... .. . P7D ... ... : --- .. . ... ... ... : E-# 00 4 ... ... ... : ... .. . ... ... ... : ... .. 1 ... ... ...
ROW 1D : ... .. 5 ... ... ... : ... .. . P80 ... ... : ... .. . ... ... ... : ... .. . ... ... ... : ... .. . ... ... ... : ... .. 2 ... ... ...
ROW 1E : ... .. . ... ... ... : B-3 00 . P7A ... ... : ... .. . ... ... ... : ... .. . ... ... ... : ... .. . ... ... ... : ... .. . ... ... ...
ROW 1F : ... .. . ... ... ... : ... .. . P81 ... ... : ... .. . ... ... ... : ... .. . ... ... ... : ... .. . ... ... ... : ... .. . ... ... ...
ROW 20 : ... .. . ... ... ... : C-4 00 . P7B ... ... : ... .. . ... ... ... : ... .. . ... ... ... : ... .. . ... ... ... : ... .. . ... ... ...
ROW 21 : ... .. . ... ... ... : B-3 00 . P85 ... ... : ... .. . ... ... ... : ... .. 3 ... ... ... : ... .. . ... ... ... : ... .. . ... ... ...
ROW 22 : ... .. 2 ... ... ... : ... .. . P81 ... ... : ... .. . ... ... ... : ... .. . ... ... ... : ... .. . ... ... ... : ... .. 1 ... ... ...
ROW 23 : ... .. . ... ... ... : ... .. . P7C ... ... : ... .. . ... ... ... : ... .. . ... ... ... : ... .. . ... ... ... : ... .. . ... ... ...
ROW 24 : F#1 00 9 ... ... ... : ... .. . P7B ... ... : B-2 00 . ... ... ... : B-# 00 B ... ... ... : C-1 05 . ... ... ... : D#3 04 6 I04 J44 ...
ROW 25 : F#1 03 . ... ... ... : ... .. . P7F ... ... : ... .. . ... ... ... : 9-# 00 7 ... ... ... : ... .. . ... ... ... : ... .. 5 ... ... ...
ROW 26 : F#1 02 . ... ... ... : ... .. . P84 ... ... : ... .. . ... ... ... : A-# 00 4 ... ... ... : ... .. . ... ... ... : ... .. . ... ... ...
ROW 27 : F#1 01 . ... ... ... : C-4 00 . P7B ... ... : ... .. . ... ... ... : ... .. . ... ... ... : ... .. . ... ... ... : E-3 04 4 I04 J86 ...
ROW 28 : ... .. . ... ... ... : B-3 01 . P85 ... ... : ... .. . ... ... ... : ... .. . ... ... ... : ... .. . ... ... ... : ... .. . ... ... ...
ROW 29 : ... .. . ... ... ... : B-3 02 . P81 ... ... : ... .. . ... ... ... : ... .. 2 ... ... ... : ... .. . ... ... ... : ... .. . ... ... ...
ROW 2A : ... .. . ... ... ... : ... .. 9 P7D ... ... : ... .. . ... ... ... : ... .. . ... ... ... : ... .. . ... ... ... : ... .. . ... ... ...
ROW 2B : ... .. . ... ... ... : ... .. . ... ... ... : ... .. . ... ... ... : ... .. 1 ... ... ... : ... .. . ... ... ... : ... .. . ... ... ...
ROW 2C : ... .. . ... ... ... : ... .. . P82 ... ... : ... .. . ... ... ... : ... .. . ... ... ... : ... .. . ... ... ... : ... .. . ... ... ...
ROW 2D : ... .. . ... ... ... : C-4 02 . P7B ... ... : ... .. . ... ... ... : ... .. 3 ... ... ... : ... .. . ... ... ... : ... .. . ... ... ...
ROW 2E : ... .. . ... ... ... : ... .. . P80 ... ... : ... .. . ... ... ... : ... .. 1 ... ... ... : ... .. . ... ... ... : ... .. . ... ... ...
ROW 2F : ... .. . ... ... ... : ... .. . ... ... ... : ... .. . ... ... ... : ... .. . ... ... ... : ... .. . ... ... ... : ... .. . ... ... ...
ROW 30 : ... .. . ... ... ... : ... .. . P7C ... ... : ... .. . ... ... ... : ... .. . ... ... ... : ... .. . ... ... ... : ... .. . ... ... ...
ROW 31 : ... .. . ... ... ... : A#3 01 D P81 ... ... : ... .. . ... ... ... : C-# 01 9 ... ... ... : ... .. . ... ... ... : ... .. . ... ... ...
ROW 32 : ... .. . ... ... ... : A#3 02 . ... ... ... : ... .. . ... ... ... : D-# 00 6 ... ... ... : ... .. . ... ... ... : ... .. . ... ... ...
ROW 33 : ... .. . ... ... ... : A#3 00 . ... ... ... : ... .. . ... ... ... : ... .. . ... ... ... : ... .. . ... ... ... : ... .. . ... ... ...
ROW 34 : ... .. . ... ... ... : ... .. . ... ... ... : ... .. . ... ... ... : E-# 01 5 ... ... ... : ... .. . ... ... ... : ... .. . ... ... ...
ROW 35 : ... .. . ... ... ... : ... .. . ... ... ... : ... .. . ... ... ... : D-# 01 . ... ... ... : ... .. . ... ... ... : ... .. . ... ... ...
ROW 36 : ... .. . ... ... ... : ... .. . ... ... ... : ... .. . ... ... ... : E-# 00 4 ... ... ... : ... .. . ... ... ... : ... .. . ... ... ...
ROW 37 : ... .. . ... ... ... : ... .. . ... ... ... : ... .. . ... ... ... : ... .. . ... ... ... : ... .. . ... ... ... : ... .. . ... ... ...
ROW 38 : ... .. . ... ... ... : ... .. . ... ... ... : ... .. . ... ... ... : ... .. . ... ... ... : ... .. . ... ... ... : ... .. . ... ... ...
ROW 39 : ... .. . ... ... ... : B-4 02 7 ... ... ... : ... .. . ... ... ... : ... .. . ... ... ... : ... .. . ... ... ... : ... .. . ... ... ...
ROW 3A : ... .. . ... ... ... : ... .. . ... ... ... : ... .. . ... ... ... : ... .. . ... ... ... : ... .. . ... ... ... : ... .. . ... ... ...
ROW 3B : ... .. . ... ... ... : ... .. . ... ... ... : ... .. . ... ... ... : ... .. 3 ... ... ... : ... .. . ... ... ... : ... .. . ... ... ...
ROW 3C : ... .. . ... ... ... : ... .. . ... ... ... : ... .. . ... ... ... : ... .. . ... ... ... : ... .. . ... ... ... : ... .. . ... ... ...
ROW 3D : ... .. . ... ... ... : ... .. . ... ... ... : ... .. . ... ... ... : ... .. . ... ... ... : ... .. . ... ... ... : ... .. . ... ... ...
ROW 3E : ... .. . ... ... ... : B-3 01 D ... ... ... : ... .. . ... ... ... : B-# 00 B ... ... ... : D-1 05 . ... ... ... : ... .. . ... ... ...
ROW 3F : ... .. . ... ... ... : B-3 02 . ... ... ... : ... .. . ... ... ... : 9-# 00 7 ... ... ... : ... .. . ... ... ... : ... .. . ... ... ...
ROW 40 : ... .. . ... ... ... : B-3 00 . ... ... ... : ... .. . ... ... ... : A-# 00 4 ... ... ... : ... .. . ... ... ... : ... .. . ... ... ...
ROW 41 : ... .. . ... ... ... : ... .. . ... ... ... : ... .. . ... ... ... : ... .. . ... ... ... : ... .. . ... ... ... : ... .. . ... ... ...
ROW 42 : ... .. . ... ... ... : ... .. . ... ... ... : ... .. . ... ... ... : ... .. . ... ... ... : ... .. . ... ... ... : ... .. . ... ... ...
ROW 43 : ... .. . ... ... ... : ... .. . ... ... ... : ... .. . ... ... ... : ... .. 2 ... ... ... : ... .. . ... ... ... : ... .. . ... ... ...
ROW 44 : ... .. . ... ... ... : ... .. . ... ... ... : ... .. . ... ... ... : ... .. . ... ... ... : ... .. . ... ... ... : ... .. . ... ... ...
ROW 45 : ... .. . ... ... ... : ... .. . ... ... ... : ... .. . ... ... ... : ... .. 1 ... ... ... : ... .. . ... ... ... : ... .. . ... ... ...
ROW 46 : ... .. . ... ... ... : A#4 02 7 ... ... ... : ... .. . ... ... ... : ... .. . ... ... ... : ... .. . ... ... ... : ... .. . ... ... ...
ROW 47 : ... .. . ... ... ... : ... .. . ... ... ... : ... .. . ... ... ... : ... .. 3 ... ... ... : ... .. . ... ... ... : ... .. . ... ... ...
ROW 48 : ... .. . ... ... ... : ... .. . ... ... ... : ... .. . ... ... ... : ... .. 1 ... ... ... : ... .. . ... ... ... : ... .. . ... ... ...
ROW 49 : ... .. . ... ... ... : ... .. . ... ... ... : ... .. . ... ... ... : ... .. . ... ... ... : ... .. . ... ... ... : ... .. . ... ... ...
ROW 4A : ... .. . ... ... ... : ... .. . ... ... ... : ... .. . ... ... ... : ... .. . ... ... ... : ... .. . ... ... ... : ... .. . ... ... ...
ROW 4B : ... .. . ... ... ... : F-4 01 D ... ... ... : ... .. . ... ... ... : C-# 01 9 ... ... ... : ... .. . ... ... ... : ... .. . ... ... ...
ROW 4C : ... .. . ... ... ... : F-4 02 . ... ... ... : ... .. . ... ... ... : D-# 00 6 ... ... ... : ... .. . ... ... ... : ... .. . ... ... ...
ROW 4D : ... .. . ... ... ... : F-4 00 . ... ... ... : ... .. . ... ... ... : ... .. . ... ... ... : ... .. . ... ... ... : ... .. . ... ... ...
ROW 4E : ... .. . ... ... ... : ... .. . P82 ... ... : ... .. . ... ... ... : E-# 01 5 ... ... ... : ... .. . ... ... ... : ... .. . ... ... ...
ROW 4F : ... .. . ... ... ... : ... .. . P83 ... ... : ... .. . ... ... ... : D-# 01 . ... ... ... : ... .. . ... ... ... : ... .. . ... ... ...
ROW 50 : ... .. 2 ... ... ... : ... .. . P84 ... ... : --- .. . ... ... ... : E-# 00 4 ... ... ... : ... .. . ... ... ... : ... .. 1 ... ... ...
ROW 51 : ... .. 5 ... ... ... : F#4 00 . P7C ... ... : ... .. . ... ... ... : ... .. . ... ... ... : C-1 05 . ... ... ... : ... .. 2 ... ... ...
ROW 52 : ... .. . ... ... ... : ... .. . P7D ... ... : ... .. . ... ... ... : ... .. . ... ... ... : ... .. . ... ... ... : ... .. . ... ... ...
ROW 53 : ... .. . ... ... ... : ... .. . P7E ... ... : ... .. . ... ... ... : ... .. . ... ... ... : ... .. . ... ... ... : ... .. . ... ... ...
ROW 54 : ... .. . ... ... ... : ... .. . P7F ... ... : ... .. . ... ... ... : ... .. . ... ... ... : ... .. . ... ... ... : ... .. . ... ... ...
ROW 55 : ... .. . ... ... ... : ... .. . P80 ... ... : ... .. . ... ... ... : ... .. 3 ... ... ... : ... .. . ... ... ... : ... .. . ... ... ...
ROW 56 : ... .. 2 ... ... ... : ... .. . P81 ... ... : ... .. . ... ... ... : ... .. . ... ... ... : ... .. . ... ... ... : ... .. 1 ... ... ...
ROW 57 : ... .. . ... ... ... : ... .. . ... ... ... : ... .. . ... ... ... : ... .. . ... ... ... : ... .. . ... ... ... : ... .. . ... ... ...
ROW 58 : G-1 00 9 ... ... ... : G-4 00 . P7E ... ... : C-3 00 . ... ... ... : B-# 00 B ... ... ... : C-1 05 . ... ... ... : ... .. 6 ... ... ...
ROW 59 : G-1 03 . ... ... ... : ... .. . P7F ... ... : ... .. . ... ... ... : 9-# 00 7 ... ... ... : ... .. . ... ... ... : ... .. 5 ... ... ...
ROW 5A : G-1 02 . ... ... ... : F#4 00 . P83 ... ... : ... .. . ... ... ... : A-# 00 4 ... ... ... : ... .. . ... ... ... : ... .. . ... ... ...
ROW 5B : G-1 01 . ... ... ... : ... .. . P7F ... ... : ... .. . ... ... ... : ... .. . ... ... ... : ... .. . ... ... ... : F-3 04 4 I04 JCE ...
ROW 5C : ... .. . ... ... ... : F-4 00 . P84 ... ... : ... .. . ... ... ... : ... .. . ... ... ... : ... .. . ... ... ... : ... .. . ... ... ...
ROW 5D : ... .. . ... ... ... : F#4 00 . P7C ... ... : ... .. . ... ... ... : ... .. 2 ... ... ... : ... .. . ... ... ... : ... .. . ... ... ...
ROW 5E : ... .. . ... ... ... : ... .. . P81 ... ... : ... .. . ... ... ... : ... .. . ... ... ... : ... .. . ... ... ... : ... .. . ... ... ...
ROW 5F : ... .. . ... ... ... : G-4 00 . P7D ... ... : ... .. . ... ... ... : ... .. 1 ... ... ... : ... .. . ... ... ... : ... .. . ... ... ...
ROW 60 : ... .. . ... ... ... : ... .. . P7F ... ... : ... .. . ... ... ... : ... .. . ... ... ... : ... .. . ... ... ... : ... .. . ... ... ...
ROW 61 : ... .. . ... ... ... : F#4 00 . P84 ... ... : ... .. . ... ... ... : ... .. 3 ... ... ... : ... .. . ... ... ... : ... .. . ... ... ...
ROW 62 : ... .. . ... ... ... : ... .. . P7F ... ... : ... .. . ... ... ... : ... .. 1 ... ... ... : ... .. . ... ... ... : ... .. . ... ... ...
ROW 63 : ... .. . ... ... ... : F-4 00 . P84 ... ... : ... .. . ... ... ... : ... .. . ... ... ... : ... .. . ... ... ... : ... .. . ... ... ...
ROW 64 : ... .. . ... ... ... : F#4 00 . P7C ... ... : ... .. . ... ... ... : ... .. . ... ... ... : ... .. . ... ... ... : ... .. . ... ... ...
ROW 65 : ... .. . ... ... ... : ... .. . P81 ... ... : ... .. . ... ... ... : C-# 01 9 ... ... ... : C-1 05 . ... ... ... : ... .. . ... ... ...
ROW 66 : ... .. . ... ... ... : G-4 00 . P7D ... ... : ... .. . ... ... ... : D-# 00 6 ... ... ... : ... .. . ... ... ... : ... .. . ... ... ...
ROW 67 : ... .. . ... ... ... : ... .. . P7F ... ... : ... .. . ... ... ... : ... .. . ... ... ... : ... .. . ... ... ... : ... .. . ... ... ...
ROW 68 : ... .. . ... ... ... : F#4 00 . P84 ... ... : ... .. . ... ... ... : E-# 01 5 ... ... ... : ... .. . ... ... ... : ... .. . ... ... ...
ROW 69 : ... .. . ... ... ... : ... .. . P80 ... ... : ... .. . ... ... ... : D-# 01 . ... ... ... : ... .. . ... ... ... : ... .. . ... ... ...
ROW 6A : ... .. . ... ... ... : F-4 00 . P84 ... ... : ... .. . ... ... ... : E-# 00 4 ... ... ... : ... .. . ... ... ... : ... .. . ... ... ...
ROW 6B : ... .. . ... ... ... : ... .. . ... ... ... : ... .. . ... ... ... : ... .. . ... ... ... : ... .. . ... ... ... : ... .. . ... ... ...
ROW 6C : ... .. . ... ... ... : F#4 00 . P80 ... ... : ... .. . ... ... ... : ... .. . ... ... ... : ... .. . ... ... ... : ... .. . ... ... ...
ROW 6D : ... .. . ... ... ... : ... .. . P84 ... ... : ... .. . ... ... ... : ... .. . ... ... ... : ... .. . ... ... ... : ... .. . ... ... ...
ROW 6E : ... .. . ... ... ... : G-4 00 . P7F ... ... : ... .. . ... ... ... : ... .. . ... ... ... : ... .. . ... ... ... : ... .. . ... ... ...
ROW 6F : ... .. . ... ... ... : ... .. . P7D ... ... : ... .. . ... ... ... : ... .. 3 ... ... ... : ... .. . ... ... ... : ... .. . ... ... ...
ROW 70 : ... .. . ... ... ... : F#4 00 . P81 ... ... : ... .. . ... ... ... : ... .. . ... ... ... : ... .. . ... ... ... : ... .. . ... ... ...
ROW 71 : ... .. . ... ... ... : ... .. . P7C ... ... : ... .. . ... ... ... : ... .. . ... ... ... : ... .. . ... ... ... : ... .. . ... ... ...
ROW 72 : ... .. . ... ... ... : F-4 01 . P81 ... ... : ... .. . ... ... ... : B-# 00 B ... ... ... : D-1 05 . ... ... ... : ... .. . ... ... ...
ROW 73 : ... .. . ... ... ... : F-4 02 . ... ... ... : ... .. . ... ... ... : 9-# 00 7 ... ... ... : ... .. . ... ... ... : ... .. . ... ... ...
ROW 74 : ... .. . ... ... ... : E-4 01 . ... ... ... : ... .. . ... ... ... : A-# 00 4 ... ... ... : ... .. . ... ... ... : ... .. . ... ... ...
ROW 75 : ... .. . ... ... ... : D#4 02 . ... ... ... : ... .. . ... ... ... : ... .. . ... ... ... : ... .. . ... ... ... : ... .. . ... ... ...
ROW 76 : ... .. . ... ... ... : D#4 01 . ... ... ... : ... .. . ... ... ... : ... .. . ... ... ... : ... .. . ... ... ... : ... .. . ... ... ...
ROW 77 : ... .. . ... ... ... : D-4 02 . ... ... ... : ... .. . ... ... ... : ... .. 2 ... ... ... : ... .. . ... ... ... : ... .. . ... ... ...
ROW 78 : ... .. . ... ... ... : C#4 01 . ... ... ... : ... .. . ... ... ... : ... .. . ... ... ... : ... .. . ... ... ... : ... .. . ... ... ...
ROW 79 : ... .. . ... ... ... : C#4 02 . ... ... ... : ... .. . ... ... ... : ... .. 1 ... ... ... : ... .. . ... ... ... : ... .. . ... ... ...
ROW 7A : ... .. . ... ... ... : C-4 01 . ... ... ... : ... .. . ... ... ... : ... .. . ... ... ... : ... .. . ... ... ... : ... .. . ... ... ...
ROW 7B : ... .. . ... ... ... : B-3 02 . ... ... ... : ... .. . ... ... ... : ... .. 3 ... ... ... : ... .. . ... ... ... : ... .. . ... ... ...
ROW 7C : ... .. . ... ... ... : B-3 01 . ... ... ... : ... .. . ... ... ... : ... .. 1 ... ... ... : ... .. . ... ... ... : ... .. . ... ... ...
ROW 7D : ... .. . ... ... ... : A#3 02 . ... ... ... : ... .. . ... ... ... : ... .. . ... ... ... : ... .. . ... ... ... : ... .. . ... ... ...
ROW 7E : ... .. . ... ... ... : A-3 01 . ... ... ... : ... .. . ... ... ... : ... .. . ... ... ... : ... .. . ... ... ... : ... .. . ... ... ...
ROW 7F : ... .. . ... ... ... : C#4 01 . ... ... ... : ... .. . ... ... ... : C-# 01 9 ... ... ... : ... .. . ... ... ... : ... .. . ... ... ...
ROW 80 : ... .. . ... ... ... : C#4 02 . ... ... ... : ... .. . ... ... ... : D-# 00 6 ... ... ... : ... .. . ... ... ... : ... .. . ... ... ...
ROW 81 : ... .. . ... ... ... : C#4 00 . ... ... ... : ... .. . ... ... ... : ... .. . ... ... ... : ... .. . ... ... ... : ... .. . ... ... ...
ROW 82 : ... .. . ... ... ... : C-4 00 . P86 ... ... : ... .. . ... ... ... : E-# 01 5 ... ... ... : ... .. . ... ... ... : ... .. . ... ... ...
ROW 83 : ... .. . ... ... ... : ... .. . P7F ... ... : ... .. . ... ... ... : D-# 01 . ... ... ... : ... .. . ... ... ... : ... .. . ... ... ...
ROW 84 : ... .. 2 ... ... ... : B-3 00 . P84 ... ... : --- .. . ... ... ... : E-# 00 4 ... ... ... : ... .. . ... ... ... : ... .. 1 ... ... ...
ROW 85 : ... .. 5 ... ... ... : ... .. . P81 ... ... : ... .. . ... ... ... : ... .. . ... ... ... : ... .. . ... ... ... : ... .. 2 ... ... ...
ROW 86 : ... .. . ... ... ... : ... .. . ... ... ... : ... .. . ... ... ... : ... .. . ... ... ... : ... .. . ... ... ... : ... .. . ... ... ...
ROW 87 : ... .. . ... ... ... : ... .. . ... ... ... : ... .. . ... ... ... : ... .. . ... ... ... : ... .. . ... ... ... : ... .. . ... ... ...
ROW 88 : ... .. . P81 ... ... : ... .. . P84 ... ... : ... .. . ... ... ... : ... .. . ... ... ... : ... .. . ... ... ... : ... .. . ... ... ...
ROW 89 : ... .. . ... ... ... : C-4 00 . P7B ... ... : ... .. . ... ... ... : ... .. 3 ... ... ... : ... .. . ... ... ... : ... .. . ... ... ...
ROW 8A : ... .. 2 ... ... ... : ... .. . P7E ... ... : ... .. . ... ... ... : ... .. . ... ... ... : ... .. . ... ... ... : ... .. 1 ... ... ...
ROW 8B : ... .. . ... ... ... : ... .. . P81 ... ... : ... .. . ... ... ... : ... .. . ... ... ... : ... .. . ... ... ... : ... .. . ... ... ...
ROW 8C : B-2 02 9 ... ... ... : ... .. . P84 ... ... : C#3 00 . ... ... ... : 8-# 00 C ... ... ... : C-1 05 . ... ... ... : F#3 04 7 I05 J16 ...
ROW 8D : B-2 01 . ... ... ... : C#4 00 . P7B ... ... : ... .. . ... ... ... : 4-# 00 8 ... ... ... : ... .. . ... ... ... : ... .. 6 ... ... ...
ROW 8E : ... .. . ... ... ... : ... .. . P7E ... ... : ... .. . ... ... ... : 7-# 00 B ... ... ... : ... .. . ... ... ... : ... .. 5 ... ... ...
ROW 8F : ... .. . P8C ... ... : ... .. . P84 ... ... : ... .. . ... ... ... : 9-# 00 8 ... ... ... : ... .. . ... ... ... : ... .. . ... ... ...
ROW 90 : ... .. . P86 ... ... : ... .. . P85 ... ... : ... .. . ... ... ... : A-# 00 9 ... ... ... : ... .. . ... ... ... : ... .. . ... ... ...
ROW 91 : ... .. . P7A ... ... : ... .. . ... ... ... : ... .. . ... ... ... : B-# 00 8 ... ... ... : ... .. . ... ... ... : ... .. 4 ... ... ...
ROW 92 : ... .. . P77 ... ... : ... .. . P82 ... ... : ... .. . ... ... ... : ... .. . ... ... ... : ... .. . ... ... ... : ... .. . ... ... ...
ROW 93 : ... .. . P82 ... ... : ... .. . P80 ... ... : ... .. . ... ... ... : ... .. . ... ... ... : ... .. . ... ... ... : ... .. . ... ... ...
ROW 94 : ... .. . P8C ... ... : ... .. . P7D ... ... : ... .. . ... ... ... : ... .. . ... ... ... : ... .. . ... ... ... : ... .. . ... ... ...
ROW 95 : ... .. . P85 ... ... : ... .. . ... ... ... : ... .. . ... ... ... : ... .. 7 ... ... ... : ... .. . ... ... ... : ... .. . ... ... ...
ROW 96 : ... .. . P79 ... ... : ... .. . P7E ... ... : ... .. . ... ... ... : ... .. . ... ... ... : ... .. . ... ... ... : ... .. . ... ... ...
ROW 97 : ... .. 4 P78 ... ... : ... .. . P81 ... ... : --- .. . ... ... ... : ... .. . ... ... ... : ... .. . ... ... ... : ... .. 2 ... ... ...
ROW 98 : ... .. . P83 ... ... : ... .. . P83 ... ... : ... .. . ... ... ... : ... .. . ... ... ... : ... .. . ... ... ... : ... .. . ... ... ...
ROW 99 : G#1 02 9 P81 ... ... : ... .. . P85 ... ... : C#3 00 . ... ... ... : ... .. 6 ... ... ... : C#1 05 . ... ... ... : B-2 04 7 I02 J8C ...
ROW 9A : G#1 01 . ... ... ... : ... .. . ... ... ... : ... .. . ... ... ... : ... .. . ... ... ... : ... .. . ... ... ... : ... .. 6 ... ... ...
ROW 9B : ... .. . ... ... ... : ... .. . P82 ... ... : ... .. . ... ... ... : ... .. . ... ... ... : ... .. . ... ... ... : ... .. 5 ... ... ...
ROW 9C : ... .. . ... ... ... : ... .. . P81 ... ... : ... .. . ... ... ... : ... .. . ... ... ... : ... .. . ... ... ... : ... .. . ... ... ...
ROW 9D : ... .. 4 ... ... ... : ... .. . P7E ... ... : ... .. . ... ... ... : ... .. . ... ... ... : ... .. . ... ... ... : ... .. 4 ... ... ...
ROW 9E : ... .. . ... ... ... : ... .. . P7D ... ... : --- .. . ... ... ... : ... .. 5 ... ... ... : ... .. . ... ... ... : ... .. 2 ... ... ...
ROW 9F : G#1 02 9 ... ... ... : ... .. . P7E ... ... : C#3 00 . ... ... ... : ... .. . ... ... ... : C#1 05 . ... ... ... : ... .. 7 ... ... ...
ROW A0 : G#1 01 . ... ... ... : ... .. . P81 ... ... : ... .. . ... ... ... : ... .. . ... ... ... : ... .. . ... ... ... : ... .. 6 ... ... ...
ROW A1 : ... .. . ... ... ... : ... .. . P83 ... ... : ... .. . ... ... ... : ... .. . ... ... ... : ... .. . ... ... ... : ... .. 5 ... ... ...
ROW A2 : ... .. . ... ... ... : ... .. . P85 ... ... : ... .. . ... ... ... : ... .. . ... ... ... : ... .. . ... ... ... : ... .. . ... ... ...
ROW A3 : ... .. 4 ... ... ... : ... .. . ... ... ... : ... .. . ... ... ... : ... .. 4 ... ... ... : ... .. . ... ... ... : ... .. 4 ... ... ...
ROW A4 : ... .. . ... ... ... : ... .. . P83 ... ... : --- .. . ... ... ... : ... .. . ... ... ... : ... .. . ... ... ... : ... .. 2 ... ... ...
ROW A5 : ... .. . ... ... ... : ... .. . P81 ... ... : ... .. . ... ... ... : ... .. . ... ... ... : ... .. . ... ... ... : ... .. . ... ... ...
ROW A6 : G#1 02 9 ... ... ... : C#4 01 . ... ... ... : C#3 00 . ... ... ... : 7-# 00 B ... ... ... : D-1 05 . ... ... ... : ... .. 7 ... ... ...
ROW A7 : G#1 01 . ... ... ... : C#4 02 . ... ... ... : ... .. . ... ... ... : 3-# 00 8 ... ... ... : ... .. . ... ... ... : ... .. 6 ... ... ...
ROW A8 : ... .. . ... ... ... : C#4 00 . ... ... ... : ... .. . ... ... ... : 6-# 00 A ... ... ... : ... .. . ... ... ... : ... .. 5 ... ... ...
ROW A9 : ... .. . ... ... ... : ... .. 6 ... ... ... : ... .. . ... ... ... : 8-# 00 8 ... ... ... : ... .. . ... ... ... : ... .. . ... ... ...
ROW AA : ... .. 4 ... ... ... : ... .. . ... ... ... : ... .. . ... ... ... : 9-# 00 . ... ... ... : ... .. . ... ... ... : ... .. 4 ... ... ...
ROW AB : ... .. . ... ... ... : ... .. . ... ... ... : --- .. . ... ... ... : A-# 00 . ... ... ... : ... .. . ... ... ... : ... .. 2 ... ... ...
ROW AC : G#1 02 9 ... ... ... : ... .. . ... ... ... : C#3 00 . ... ... ... : ... .. . ... ... ... : ... .. . ... ... ... : ... .. 7 ... ... ...
ROW AD : G#1 01 . ... ... ... : ... .. . ... ... ... : ... .. . ... ... ... : ... .. 7 ... ... ... : ... .. . ... ... ... : ... .. 6 ... ... ...
ROW AE : ... .. . ... ... ... : ... .. . ... ... ... : ... .. . ... ... ... : ... .. . ... ... ... : ... .. . ... ... ... : ... .. 5 ... ... ...
ROW AF : ... .. . ... ... ... : ... .. . ... ... ... : ... .. . ... ... ... : ... .. 4 ... ... ... : ... .. . ... ... ... : ... .. . ... ... ...
ROW B0 : ... .. 4 ... ... ... : ... .. . ... ... ... : ... .. . ... ... ... : ... .. . ... ... ... : ... .. . ... ... ... : ... .. 4 ... ... ...
ROW B1 : ... .. . ... ... ... : ... .. . ... ... ... : --- .. . ... ... ... : ... .. . ... ... ... : ... .. . ... ... ... : ... .. 2 ... ... ...
ROW B2 : ... .. . ... ... ... : ... .. . ... ... ... : ... .. . ... ... ... : ... .. . ... ... ... : ... .. . ... ... ... : ... .. . ... ... ...
ROW B3 : B-2 02 9 ... ... ... : G-4 01 D P7E ... ... : C#3 00 . ... ... ... : B-# 00 B ... ... ... : C-1 05 . ... ... ... : F#3 04 7 I05 J16 ...
ROW B4 : B-2 01 . ... ... ... : F#4 02 . P83 ... ... : ... .. . ... ... ... : 9-# 00 7 ... ... ... : ... .. . ... ... ... : ... .. 6 ... ... ...
ROW B5 : ... .. . ... ... ... : F#4 00 . P81 ... ... : ... .. . ... ... ... : A-# 00 4 ... ... ... : ... .. . ... ... ... : ... .. 5 ... ... ...
ROW B6 : ... .. . P8C ... ... : ... .. . ... ... ... : ... .. . ... ... ... : ... .. . ... ... ... : ... .. . ... ... ... : ... .. . ... ... ...
ROW B7 : ... .. . P86 ... ... : ... .. . ... ... ... : ... .. . ... ... ... : ... .. . ... ... ... : ... .. . ... ... ... : ... .. . ... ... ...
ROW B8 : ... .. . P7A ... ... : ... .. . ... ... ... : ... .. . ... ... ... : ... .. 2 ... ... ... : ... .. . ... ... ... : ... .. 4 ... ... ...
ROW B9 : ... .. . P77 ... ... : ... .. . ... ... ... : ... .. . ... ... ... : ... .. . ... ... ... : ... .. . ... ... ... : ... .. . ... ... ...
ROW BA : ... .. . P82 ... ... : ... .. . ... ... ... : ... .. . ... ... ... : ... .. 1 ... ... ... : ... .. . ... ... ... : ... .. . ... ... ...
ROW BB : ... .. . P8C ... ... : ... .. . ... ... ... : ... .. . ... ... ... : ... .. . ... ... ... : ... .. . ... ... ... : ... .. . ... ... ...
ROW BC : ... .. . P85 ... ... : ... .. . ... ... ... : ... .. . ... ... ... : ... .. 3 ... ... ... : ... .. . ... ... ... : ... .. . ... ... ...
ROW BD : ... .. . P79 ... ... : ... .. . ... ... ... : ... .. . ... ... ... : ... .. 1 ... ... ... : ... .. . ... ... ... : ... .. . ... ... ...
ROW BE : ... .. 4 P78 ... ... : ... .. . ... ... ... : --- .. . ... ... ... : ... .. . ... ... ... : ... .. . ... ... ... : ... .. 2 ... ... ...
ROW BF : ... .. . P83 ... ... : ... .. . ... ... ... : ... .. . ... ... ... : ... .. . ... ... ... : ... .. . ... ... ... : ... .. . ... ... ...
ROW C0 : G#1 02 9 P81 ... ... : ... .. . ... ... ... : C#3 00 . ... ... ... : 7-# 00 B ... ... ... : C#1 05 . ... ... ... : B-2 04 7 I02 J8C ...
ROW C1 : G#1 01 . ... ... ... : ... .. . ... ... ... : ... .. . ... ... ... : 3-# 00 8 ... ... ... : ... .. . ... ... ... : ... .. 6 ... ... ...
ROW C2 : ... .. . ... ... ... : ... .. . ... ... ... : ... .. . ... ... ... : 6-# 00 A ... ... ... : ... .. . ... ... ... : ... .. 5 ... ... ...
ROW C3 : ... .. . ... ... ... : ... .. . P82 ... ... : ... .. . ... ... ... : 8-# 00 8 ... ... ... : ... .. . ... ... ... : ... .. . ... ... ...
ROW C4 : ... .. 4 ... ... ... : ... .. . P83 ... ... : ... .. . ... ... ... : 9-# 00 . ... ... ... : ... .. . ... ... ... : ... .. 4 ... ... ...
ROW C5 : ... .. . ... ... ... : ... .. . P84 ... ... : --- .. . ... ... ... : A-# 00 . ... ... ... : ... .. . ... ... ... : ... .. 2 ... ... ...
ROW C6 : G#1 02 9 ... ... ... : G-4 00 . P7D ... ... : C#3 00 . ... ... ... : ... .. . ... ... ... : C#1 05 . ... ... ... : ... .. 7 ... ... ...
ROW C7 : G#1 01 . ... ... ... : ... .. . P7E ... ... : ... .. . ... ... ... : ... .. 7 ... ... ... : ... .. . ... ... ... : ... .. 6 ... ... ...
ROW C8 : ... .. . ... ... ... : ... .. . P7F ... ... : ... .. . ... ... ... : ... .. . ... ... ... : ... .. . ... ... ... : ... .. 5 ... ... ...
ROW C9 : ... .. . ... ... ... : ... .. . P80 ... ... : ... .. . ... ... ... : ... .. 4 ... ... ... : ... .. . ... ... ... : ... .. . ... ... ...
ROW CA : ... .. 4 ... ... ... : ... .. . P81 ... ... : ... .. . ... ... ... : ... .. . ... ... ... : ... .. . ... ... ... : ... .. 4 ... ... ...
ROW CB : ... .. . ... ... ... : ... .. . P82 ... ... : --- .. . ... ... ... : ... .. . ... ... ... : ... .. . ... ... ... : ... .. 2 ... ... ...
ROW CC : ... .. . ... ... ... : ... .. . P83 ... ... : ... .. . ... ... ... : ... .. . ... ... ... : ... .. . ... ... ... : ... .. . ... ... ...
ROW CD : G#1 02 9 ... ... ... : ... .. . P84 ... ... : C#3 00 . ... ... ... : B-# 00 9 ... ... ... : D-1 05 . ... ... ... : ... .. 7 ... ... ...
ROW CE : G#1 01 . ... ... ... : G#4 00 . P7D ... ... : ... .. . ... ... ... : 8-# 00 6 ... ... ... : ... .. . ... ... ... : ... .. 6 ... ... ...
ROW CF : ... .. . ... ... ... : ... .. . P7E ... ... : ... .. . ... ... ... : 9-# 00 8 ... ... ... : ... .. . ... ... ... : ... .. 5 ... ... ...
ROW D0 : ... .. . ... ... ... : ... .. . P7F ... ... : ... .. . ... ... ... : A-# 00 6 ... ... ... : ... .. . ... ... ... : ... .. . ... ... ...
ROW D1 : ... .. 4 ... ... ... : ... .. . P80 ... ... : ... .. . ... ... ... : B-# 00 7 ... ... ... : ... .. . ... ... ... : ... .. 4 ... ... ...
ROW D2 : ... .. . ... ... ... : ... .. . P81 ... ... : --- .. . ... ... ... : C-# 00 6 ... ... ... : ... .. . ... ... ... : ... .. 2 ... ... ...
ROW D3 : G#1 02 9 ... ... ... : ... .. . ... ... ... : C#3 00 . ... ... ... : ... .. . ... ... ... : ... .. . ... ... ... : ... .. 7 ... ... ...
ROW D4 : G#1 01 . ... ... ... : ... .. . ... ... ... : ... .. . ... ... ... : B-# 00 . ... ... ... : ... .. . ... ... ... : ... .. 6 ... ... ...
ROW D5 : ... .. . ... ... ... : ... .. . ... ... ... : ... .. . ... ... ... : C-# 00 . ... ... ... : ... .. . ... ... ... : ... .. 5 ... ... ...
ROW D6 : ... .. . ... ... ... : A-4 00 . P7D ... ... : ... .. . ... ... ... : ... .. 5 ... ... ... : ... .. . ... ... ... : ... .. . ... ... ...
ROW D7 : ... .. 4 ... ... ... : ... .. . P81 ... ... : ... .. . ... ... ... : ... .. . ... ... ... : ... .. . ... ... ... : ... .. 4 ... ... ...
ROW D8 : ... .. . ... ... ... : ... .. . P82 ... ... : --- .. . ... ... ... : ... .. . ... ... ... : ... .. . ... ... ... : ... .. 2 ... ... ...
ROW D9 : ... .. . ... ... ... : ... .. . P81 ... ... : ... .. . ... ... ... : ... .. . ... ... ... : ... .. . ... ... ... : ... .. . ... ... ...
ROW DA : B-2 02 9 ... ... ... : ... .. . P7E ... ... : C#3 00 . ... ... ... : 8-# 00 B ... ... ... : C-1 05 . ... ... ... : F#3 04 7 I05 J16 ...
ROW DB : B-2 01 . ... ... ... : G#4 00 . P81 ... ... : ... .. . ... ... ... : 4-# 00 8 ... ... ... : ... .. . ... ... ... : ... .. 6 ... ... ...
ROW DC : ... .. . ... ... ... : ... .. . P7F ... ... : ... .. . ... ... ... : 7-# 00 A ... ... ... : ... .. . ... ... ... : ... .. 5 ... ... ...
ROW DD : ... .. . P8C ... ... : G-4 00 . P82 ... ... : ... .. . ... ... ... : 9-# 00 8 ... ... ... : ... .. . ... ... ... : ... .. . ... ... ...
ROW DE : ... .. . P86 ... ... : ... .. . P80 ... ... : ... .. . ... ... ... : A-# 00 . ... ... ... : ... .. . ... ... ... : ... .. . ... ... ...
ROW DF : ... .. . P7A ... ... : ... .. . ... ... ... : ... .. . ... ... ... : B-# 00 . ... ... ... : ... .. . ... ... ... : ... .. 4 ... ... ...
ROW E0 : ... .. . P77 ... ... : ... .. . P82 ... ... : ... .. . ... ... ... : ... .. . ... ... ... : ... .. . ... ... ... : ... .. . ... ... ...
ROW E1 : ... .. . P82 ... ... : G#4 00 . P7F ... ... : ... .. . ... ... ... : ... .. 7 ... ... ... : ... .. . ... ... ... : ... .. . ... ... ...
ROW E2 : ... .. . P8C ... ... : ... .. . P81 ... ... : ... .. . ... ... ... : ... .. . ... ... ... : ... .. . ... ... ... : ... .. . ... ... ...
ROW E3 : ... .. . P85 ... ... : A-4 00 . P7E ... ... : ... .. . ... ... ... : ... .. 4 ... ... ... : ... .. . ... ... ... : ... .. . ... ... ...
ROW E4 : ... .. . P79 ... ... : ... .. . P81 ... ... : ... .. . ... ... ... : ... .. . ... ... ... : ... .. . ... ... ... : ... .. . ... ... ...
ROW E5 : ... .. 4 P78 ... ... : ... .. . P82 ... ... : --- .. . ... ... ... : ... .. . ... ... ... : ... .. . ... ... ... : ... .. 2 ... ... ...
ROW E6 : ... .. . P83 ... ... : ... .. . P81 ... ... : ... .. . ... ... ... : ... .. . ... ... ... : ... .. . ... ... ... : ... .. . ... ... ...
ROW E7 : G#1 02 9 P81 ... ... : ... .. . P7D ... ... : C#3 00 . ... ... ... : ... .. B ... ... ... : C#1 05 . ... ... ... : B-2 04 7 I02 J8C ...
ROW E8 : G#1 01 . ... ... ... : G#4 00 . P81 ... ... : ... .. . ... ... ... : 9-# 00 7 ... ... ... : ... .. . ... ... ... : ... .. 6 ... ... ...
ROW E9 : ... .. . ... ... ... : ... .. . P7E ... ... : ... .. . ... ... ... : A-# 00 4 ... ... ... : ... .. . ... ... ... : ... .. 5 ... ... ...
ROW EA : ... .. . ... ... ... : D-4 00 . P7D ... ... : ... .. . ... ... ... : ... .. . ... ... ... : ... .. . ... ... ... : ... .. . ... ... ...
ROW EB : ... .. 4 ... ... ... : A-3 00 . P87 ... ... : ... .. . ... ... ... : ... .. . ... ... ... : ... .. . ... ... ... : ... .. 4 ... ... ...
ROW EC : ... .. . ... ... ... : F#3 00 . P83 ... ... : --- .. . ... ... ... : ... .. 2 ... ... ... : ... .. . ... ... ... : ... .. 2 ... ... ...
ROW ED : G#1 02 9 ... ... ... : E-3 02 . P77 ... ... : C#3 00 . ... ... ... : ... .. . ... ... ... : C#1 05 . ... ... ... : ... .. 7 ... ... ...
ROW EE : G#1 01 . ... ... ... : C#3 02 . P89 ... ... : ... .. . ... ... ... : ... .. 1 ... ... ... : ... .. . ... ... ... : ... .. 6 ... ... ...
ROW EF : ... .. . ... ... ... : B-2 02 . P88 ... ... : ... .. . ... ... ... : ... .. . ... ... ... : ... .. . ... ... ... : ... .. 5 ... ... ...
ROW F0 : ... .. . ... ... ... : A-2 02 . P8A ... ... : ... .. . ... ... ... : ... .. 3 ... ... ... : ... .. . ... ... ... : ... .. . ... ... ...
ROW F1 : ... .. 4 ... ... ... : G#2 02 . P75 ... ... : ... .. . ... ... ... : ... .. 1 ... ... ... : ... .. . ... ... ... : ... .. 4 ... ... ...
ROW F2 : ... .. . ... ... ... : F#2 02 . P83 ... ... : --- .. . ... ... ... : ... .. . ... ... ... : ... .. . ... ... ... : ... .. 2 ... ... ...
ROW F3 : ... .. . ... ... ... : F-2 02 . P73 ... ... : ... .. . ... ... ... : ... .. . ... ... ... : ... .. . ... ... ... : ... .. . ... ... ...
ROW F4 : C#3 02 9 ... ... ... : C#2 02 A P82 ... ... : D-3 00 . ... ... ... : 9-# 00 B ... ... ... : D-1 05 . ... ... ... : G-3 04 7 I05 J64 ...
ROW F5 : C#3 01 . ... ... ... : ... .. . P81 ... ... : ... .. . ... ... ... : 5-# 00 8 ... ... ... : ... .. . ... ... ... : ... .. 6 ... ... ...
ROW F6 : ... .. . ... ... ... : C#3 02 9 ... ... ... : ... .. . ... ... ... : 8-# 00 A ... ... ... : ... .. . ... ... ... : ... .. 5 ... ... ...
ROW F7 : D-3 01 . P75 ... ... : ... .. . ... ... ... : ... .. . ... ... ... : A-# 00 8 ... ... ... : ... .. . ... ... ... : ... .. . ... ... ...
ROW F8 : C#3 01 . P86 ... ... : C#2 02 A P82 ... ... : ... .. . ... ... ... : B-# 00 . ... ... ... : ... .. . ... ... ... : ... .. . ... ... ...
ROW F9 : ... .. . P7A ... ... : ... .. . P81 ... ... : ... .. . ... ... ... : C-# 00 . ... ... ... : ... .. . ... ... ... : ... .. 4 ... ... ...
ROW FA : ... .. . P77 ... ... : D#2 02 . P82 ... ... : ... .. . ... ... ... : ... .. . ... ... ... : ... .. . ... ... ... : ... .. . ... ... ...
ROW FB : ... .. . P82 ... ... : ... .. . P81 ... ... : ... .. . ... ... ... : ... .. 7 ... ... ... : ... .. . ... ... ... : ... .. . ... ... ...
ROW FC : D-3 01 . P75 ... ... : D#3 02 9 ... ... ... : ... .. . ... ... ... : ... .. . ... ... ... : ... .. . ... ... ... : ... .. . ... ... ...
ROW FD : C#3 01 . P85 ... ... : ... .. . ... ... ... : ... .. . ... ... ... : ... .. 4 ... ... ... : ... .. . ... ... ... : ... .. . ... ... ...
ROW FE : ... .. . P79 ... ... : D#2 02 A P82 ... ... : ... .. . ... ... ... : ... .. . ... ... ... : ... .. . ... ... ... : ... .. . ... ... ...
ROW FF : ... .. 4 P78 ... ... : ... .. . P81 ... ... : --- .. . ... ... ... : ... .. . ... ... ... : ... .. . ... ... ... : ... .. 2 ... ... ...

PATTERN 0A
ROW 00 : ... .. . P83 ... ... : D#3 02 9 ... ... ... : ... .. . ... ... ... : ... .. . ... ... ... : ... .. . ... ... ... : ... .. . ... ... ...
ROW 01 : G#1 02 9 P81 ... ... : E-2 02 A P82 ... ... : C#3 00 . ... ... ... : B-# 00 B ... ... ... : C-1 05 . ... ... ... : B-2 04 7 I02 J8C ...
ROW 02 : G#1 01 . ... ... ... : ... .. . P81 ... ... : ... .. . ... ... ... : 9-# 00 7 ... ... ... : ... .. . ... ... ... : ... .. 6 ... ... ...
ROW 03 : ... .. . ... ... ... : E-3 02 9 ... ... ... : ... .. . ... ... ... : A-# 00 4 ... ... ... : ... .. . ... ... ... : ... .. 5 ... ... ...
ROW 04 : ... .. . ... ... ... : ... .. . ... ... ... : ... .. . ... ... ... : ... .. . ... ... ... : ... .. . ... ... ... : ... .. . ... ... ...
ROW 05 : ... .. 4 ... ... ... : E-2 02 A P82 ... ... : ... .. . ... ... ... : ... .. . ... ... ... : ... .. . ... ... ... : ... .. 4 ... ... ...
ROW 06 : ... .. . ... ... ... : ... .. . P81 ... ... : --- .. . ... ... ... : ... .. 2 ... ... ... : ... .. . ... ... ... : ... .. 2 ... ... ...
ROW 07 : G#1 02 9 ... ... ... : G#2 02 . P82 ... ... : C#3 00 . ... ... ... : ... .. . ... ... ... : C#1 05 . ... ... ... : ... .. 7 ... ... ...
ROW 08 : G#1 01 . ... ... ... : ... .. . P81 ... ... : ... .. . ... ... ... : ... .. 1 ... ... ... : ... .. . ... ... ... : ... .. 6 ... ... ...
ROW 09 : ... .. . ... ... ... : G#3 02 9 ... ... ... : ... .. . ... ... ... : ... .. . ... ... ... : ... .. . ... ... ... : ... .. 5 ... ... ...
ROW 0A : ... .. . ... ... ... : ... .. . ... ... ... : ... .. . ... ... ... : ... .. 3 ... ... ... : ... .. . ... ... ... : ... .. . ... ... ...
ROW 0B : ... .. 4 ... ... ... : G#2 02 A P82 ... ... : ... .. . ... ... ... : ... .. 1 ... ... ... : ... .. . ... ... ... : ... .. 4 ... ... ...
ROW 0C : ... .. . ... ... ... : ... .. . P81 ... ... : --- .. . ... ... ... : ... .. . ... ... ... : ... .. . ... ... ... : ... .. 2 ... ... ...
ROW 0D : ... .. . ... ... ... : G#3 02 9 ... ... ... : ... .. . ... ... ... : ... .. . ... ... ... : ... .. . ... ... ... : ... .. . ... ... ...
ROW 0E : C#3 02 9 ... ... ... : C#3 02 A P82 ... ... : D-3 00 . ... ... ... : 9-# 00 B ... ... ... : D-1 05 . ... ... ... : G-3 04 7 I05 J64 ...
ROW 0F : C#3 01 . ... ... ... : ... .. . P81 ... ... : ... .. . ... ... ... : 5-# 00 8 ... ... ... : ... .. . ... ... ... : ... .. 6 ... ... ...
ROW 10 : ... .. . ... ... ... : C#4 02 9 ... ... ... : ... .. . ... ... ... : 8-# 00 A ... ... ... : ... .. . ... ... ... : ... .. 5 ... ... ...
ROW 11 : D-3 01 . P75 ... ... : ... .. . ... ... ... : ... .. . ... ... ... : A-# 00 8 ... ... ... : ... .. . ... ... ... : ... .. . ... ... ...
ROW 12 : C#3 01 . P86 ... ... : C#3 02 A P82 ... ... : ... .. . ... ... ... : B-# 00 . ... ... ... : ... .. . ... ... ... : ... .. . ... ... ...
ROW 13 : ... .. . P7A ... ... : ... .. . P81 ... ... : ... .. . ... ... ... : C-# 00 . ... ... ... : ... .. . ... ... ... : ... .. 4 ... ... ...
ROW 14 : ... .. . P77 ... ... : D#3 02 . P82 ... ... : ... .. . ... ... ... : ... .. . ... ... ... : ... .. . ... ... ... : ... .. . ... ... ...
ROW 15 : ... .. . P82 ... ... : ... .. . P81 ... ... : ... .. . ... ... ... : ... .. 7 ... ... ... : ... .. . ... ... ... : ... .. . ... ... ...
ROW 16 : D-3 01 . P75 ... ... : D#4 02 9 ... ... ... : ... .. . ... ... ... : ... .. . ... ... ... : ... .. . ... ... ... : ... .. . ... ... ...
ROW 17 : C#3 01 . P85 ... ... : ... .. . ... ... ... : ... .. . ... ... ... : ... .. 4 ... ... ... : ... .. . ... ... ... : ... .. . ... ... ...
ROW 18 : ... .. . P79 ... ... : D#3 02 A P82 ... ... : ... .. . ... ... ... : ... .. . ... ... ... : ... .. . ... ... ... : ... .. . ... ... ...
ROW 19 : ... .. 4 P78 ... ... : ... .. . P81 ... ... : --- .. . ... ... ... : ... .. . ... ... ... : ... .. . ... ... ... : ... .. 2 ... ... ...
ROW 1A : ... .. . P83 ... ... : D#4 02 9 ... ... ... : ... .. . ... ... ... : ... .. . ... ... ... : ... .. . ... ... ... : ... .. . ... ... ...
ROW 1B : G#1 02 9 P81 ... ... : E-3 02 A P82 ... ... : C#3 00 . ... ... ... : B-# 00 B ... ... ... : C-1 05 . ... ... ... : B-2 04 7 I02 J8C ...
ROW 1C : G#1 01 . ... ... ... : ... .. . P81 ... ... : ... .. . ... ... ... : 9-# 00 7 ... ... ... : ... .. . ... ... ... : ... .. 6 ... ... ...
ROW 1D : ... .. . ... ... ... : E-4 02 9 ... ... ... : ... .. . ... ... ... : A-# 00 4 ... ... ... : ... .. . ... ... ... : ... .. 5 ... ... ...
ROW 1E : ... .. . ... ... ... : ... .. . ... ... ... : ... .. . ... ... ... : ... .. . ... ... ... : ... .. . ... ... ... : ... .. . ... ... ...
ROW 1F : ... .. 4 ... ... ... : E-3 02 A P82 ... ... : ... .. . ... ... ... : ... .. . ... ... ... : ... .. . ... ... ... : ... .. 4 ... ... ...
ROW 20 : ... .. . ... ... ... : ... .. . P81 ... ... : --- .. . ... ... ... : ... .. 2 ... ... ... : ... .. . ... ... ... : ... .. 2 ... ... ...
ROW 21 : G#1 02 9 ... ... ... : G#3 02 . P82 ... ... : C#3 00 . ... ... ... : ... .. . ... ... ... : C#1 05 . ... ... ... : ... .. 7 ... ... ...
ROW 22 : G#1 01 . ... ... ... : ... .. . P81 ... ... : ... .. . ... ... ... : ... .. 1 ... ... ... : ... .. . ... ... ... : ... .. 6 ... ... ...
ROW 23 : ... .. . ... ... ... : G#4 02 9 ... ... ... : ... .. . ... ... ... : ... .. . ... ... ... : ... .. . ... ... ... : ... .. 5 ... ... ...
ROW 24 : ... .. . ... ... ... : ... .. . ... ... ... : ... .. . ... ... ... : ... .. 3 ... ... ... : ... .. . ... ... ... : ... .. . ... ... ...
ROW 25 : ... .. 4 ... ... ... : G#3 02 A P82 ... ... : ... .. . ... ... ... : ... .. 1 ... ... ... : ... .. . ... ... ... : ... .. 4 ... ... ...
ROW 26 : ... .. . ... ... ... : ... .. . P81 ... ... : --- .. . ... ... ... : ... .. . ... ... ... : ... .. . ... ... ... : ... .. 2 ... ... ...
ROW 27 : ... .. . ... ... ... : G#4 02 9 ... ... ... : ... .. . ... ... ... : ... .. . ... ... ... : ... .. . ... ... ... : ... .. . ... ... ...
ROW 28 : B-2 02 9 ... ... ... : C#4 02 A P82 ... ... : C#3 00 . ... ... ... : 8-# 00 B ... ... ... : D-1 05 . ... ... ... : F#3 04 7 I05 J16 ...
ROW 29 : B-2 01 . ... ... ... : ... .. . P81 ... ... : ... .. . ... ... ... : 4-# 00 8 ... ... ... : ... .. . ... ... ... : ... .. 6 ... ... ...
ROW 2A : ... .. . ... ... ... : C#5 02 9 ... ... ... : ... .. . ... ... ... : 7-# 00 A ... ... ... : ... .. . ... ... ... : ... .. 5 ... ... ...
ROW 2B : ... .. . P8C ... ... : ... .. . ... ... ... : ... .. . ... ... ... : 9-# 00 8 ... ... ... : ... .. . ... ... ... : ... .. . ... ... ...
ROW 2C : ... .. . P86 ... ... : C#4 02 A P82 ... ... : ... .. . ... ... ... : A-# 00 . ... ... ... : ... .. . ... ... ... : ... .. . ... ... ...
ROW 2D : ... .. . P7A ... ... : ... .. . P81 ... ... : ... .. . ... ... ... : B-# 00 . ... ... ... : ... .. . ... ... ... : ... .. 4 ... ... ...
ROW 2E : ... .. . P77 ... ... : D#4 02 . P82 ... ... : ... .. . ... ... ... : ... .. . ... ... ... : ... .. . ... ... ... : ... .. . ... ... ...
ROW 2F : ... .. . P82 ... ... : ... .. . P81 ... ... : ... .. . ... ... ... : ... .. 7 ... ... ... : ... .. . ... ... ... : ... .. . ... ... ...
ROW 30 : ... .. . P8C ... ... : D#5 02 9 ... ... ... : ... .. . ... ... ... : ... .. . ... ... ... : ... .. . ... ... ... : ... .. . ... ... ...
ROW 31 : ... .. . P85 ... ... : ... .. . ... ... ... : ... .. . ... ... ... : ... .. 4 ... ... ... : ... .. . ... ... ... : ... .. . ... ... ...
ROW 32 : ... .. . P79 ... ... : D#4 02 A P82 ... ... : ... .. . ... ... ... : ... .. . ... ... ... : ... .. . ... ... ... : ... .. . ... ... ...
ROW 33 : ... .. 4 P78 ... ... : ... .. . P81 ... ... : --- .. . ... ... ... : ... .. . ... ... ... : ... .. . ... ... ... : ... .. 2 ... ... ...
ROW 34 : ... .. . P83 ... ... : D#5 02 9 ... ... ... : ... .. . ... ... ... : ... .. . ... ... ... : ... .. . ... ... ... : ... .. . ... ... ...
ROW 35 : G#1 02 9 P81 ... ... : E-4 02 A P82 ... ... : C#3 00 . ... ... ... : ... .. B ... ... ... : C-1 05 . ... ... ... : B-2 04 7 I02 J8C ...
ROW 36 : G#1 01 . ... ... ... : ... .. . P81 ... ... : ... .. . ... ... ... : 9-# 00 7 ... ... ... : ... .. . ... ... ... : ... .. 6 ... ... ...
ROW 37 : ... .. . ... ... ... : E-5 02 9 ... ... ... : ... .. . ... ... ... : A-# 00 4 ... ... ... : ... .. . ... ... ... : ... .. 5 ... ... ...
ROW 38 : ... .. . ... ... ... : ... .. . ... ... ... : ... .. . ... ... ... : ... .. . ... ... ... : ... .. . ... ... ... : ... .. . ... ... ...
ROW 39 : ... .. 4 ... ... ... : E-4 02 A P82 ... ... : ... .. . ... ... ... : ... .. . ... ... ... : ... .. . ... ... ... : ... .. 4 ... ... ...
ROW 3A : ... .. . ... ... ... : ... .. . P81 ... ... : --- .. . ... ... ... : ... .. 2 ... ... ... : ... .. . ... ... ... : ... .. 2 ... ... ...
ROW 3B : G#1 02 9 ... ... ... : G#4 02 . P82 ... ... : C#3 00 . ... ... ... : ... .. . ... ... ... : C#1 05 . ... ... ... : ... .. 7 ... ... ...
ROW 3C : G#1 01 . ... ... ... : ... .. . P81 ... ... : ... .. . ... ... ... : ... .. 1 ... ... ... : ... .. . ... ... ... : ... .. 6 ... ... ...
ROW 3D : ... .. . ... ... ... : G#5 02 9 ... ... ... : ... .. . ... ... ... : ... .. . ... ... ... : ... .. . ... ... ... : ... .. 5 ... ... ...
ROW 3E : ... .. . ... ... ... : ... .. . ... ... ... : ... .. . ... ... ... : ... .. 3 ... ... ... : ... .. . ... ... ... : ... .. . ... ... ...
ROW 3F : ... .. 4 ... ... ... : G#4 02 A P82 ... ... : ... .. . ... ... ... : ... .. 1 ... ... ... : ... .. . ... ... ... : ... .. 4 ... ... ...
ROW 40 : ... .. . ... ... ... : ... .. . P81 ... ... : --- .. . ... ... ... : ... .. . ... ... ... : ... .. . ... ... ... : ... .. 2 ... ... ...
ROW 41 : ... .. . ... ... ... : G#5 02 9 ... ... ... : ... .. . ... ... ... : ... .. . ... ... ... : ... .. . ... ... ... : ... .. . ... ... ...
ROW 42 : E-1 00 9 P7C ... ... : D#4 01 D ... ... ... : A-2 00 . ... ... ... : 8-# 00 C ... ... ... : C-1 05 . ... ... ... : C#3 04 6 I03 JCC ...
ROW 43 : E-1 03 . ... ... ... : D#4 02 . ... ... ... : ... .. . ... ... ... : 4-# 00 8 ... ... ... : ... .. . ... ... ... : ... .. 5 ... ... ...
ROW 44 : E-1 02 . ... ... ... : D#4 00 . ... ... ... : ... .. . ... ... ... : 7-# 00 B ... ... ... : ... .. . ... ... ... : ... .. . ... ... ...
ROW 45 : E-1 01 . ... ... ... : ... .. . P83 ... ... : ... .. . ... ... ... : 9-# 00 8 ... ... ... : ... .. . ... ... ... : D-3 04 4 I04 J08 ...
ROW 46 : ... .. . ... ... ... : ... .. . P85 ... ... : ... .. . ... ... ... : A-# 00 9 ... ... ... : ... .. . ... ... ... : ... .. . ... ... ...
ROW 47 : ... .. . ... ... ... : E-4 00 . P7D ... ... : ... .. . ... ... ... : B-# 00 8 ... ... ... : ... .. . ... ... ... : ... .. . ... ... ...
ROW 48 : ... .. . ... ... ... : ... .. . P7F ... ... : ... .. . ... ... ... : ... .. . ... ... ... : ... .. . ... ... ... : ... .. . ... ... ...
ROW 49 : ... .. . ... ... ... : ... .. . P81 ... ... : ... .. . ... ... ... : ... .. . ... ... ... : ... .. . ... ... ... : ... .. . ... ... ...
ROW 4A : ... .. . ... ... ... : ... .. . ... ... ... : ... .. . ... ... ... : ... .. . ... ... ... : ... .. . ... ... ... : ... .. . ... ... ...
ROW 4B : ... .. . ... ... ... : ... .. . ... ... ... : ... .. . ... ... ... : ... .. 7 ... ... ... : ... .. . ... ... ... : ... .. . ... ... ...
ROW 4C : ... .. . ... ... ... : ... .. . ... ... ... : ... .. . ... ... ... : ... .. . ... ... ... : ... .. . ... ... ... : ... .. . ... ... ...
ROW 4D : ... .. . ... ... ... : ... .. . ... ... ... : ... .. . ... ... ... : ... .. . ... ... ... : ... .. . ... ... ... : ... .. . ... ... ...
ROW 4E : ... .. . ... ... ... : ... .. . ... ... ... : ... .. . ... ... ... : ... .. . ... ... ... : ... .. . ... ... ... : ... .. . ... ... ...
ROW 4F : ... .. . ... ... ... : D#4 01 . ... ... ... : ... .. . ... ... ... : ... .. 6 ... ... ... : ... .. . ... ... ... : ... .. . ... ... ...
ROW 50 : ... .. . ... ... ... : D#4 02 . ... ... ... : ... .. . ... ... ... : ... .. . ... ... ... : ... .. . ... ... ... : ... .. . ... ... ...
ROW 51 : ... .. . ... ... ... : D#4 00 . ... ... ... : ... .. . ... ... ... : ... .. . ... ... ... : ... .. . ... ... ... : ... .. . ... ... ...
ROW 52 : ... .. . ... ... ... : ... .. . ... ... ... : ... .. . ... ... ... : ... .. . ... ... ... : ... .. . ... ... ... : ... .. . ... ... ...
ROW 53 : ... .. . ... ... ... : ... .. . ... ... ... : ... .. . ... ... ... : ... .. . ... ... ... : ... .. . ... ... ... : ... .. . ... ... ...
ROW 54 : ... .. . ... ... ... : ... .. . ... ... ... : ... .. . ... ... ... : ... .. 5 ... ... ... : ... .. . ... ... ... : ... .. . ... ... ...
ROW 55 : ... .. . ... ... ... : ... .. . ... ... ... : ... .. . ... ... ... : ... .. . ... ... ... : ... .. . ... ... ... : ... .. . ... ... ...
ROW 56 : ... .. . ... ... ... : ... .. . ... ... ... : ... .. . ... ... ... : ... .. . ... ... ... : ... .. . ... ... ... : ... .. . ... ... ...
ROW 57 : ... .. . ... ... ... : E-5 02 7 ... ... ... : ... .. . ... ... ... : ... .. . ... ... ... : ... .. . ... ... ... : ... .. . ... ... ...
ROW 58 : ... .. . ... ... ... : ... .. . ... ... ... : ... .. . ... ... ... : ... .. . ... ... ... : ... .. . ... ... ... : ... .. . ... ... ...
ROW 59 : ... .. . ... ... ... : ... .. . ... ... ... : ... .. . ... ... ... : ... .. 4 ... ... ... : ... .. . ... ... ... : ... .. . ... ... ...
ROW 5A : ... .. . ... ... ... : ... .. . ... ... ... : ... .. . ... ... ... : ... .. . ... ... ... : ... .. . ... ... ... : ... .. . ... ... ...
ROW 5B : ... .. . ... ... ... : ... .. . ... ... ... : ... .. . ... ... ... : ... .. . ... ... ... : ... .. . ... ... ... : ... .. . ... ... ...
ROW 5C : ... .. . ... ... ... : C-4 01 D P84 ... ... : ... .. . ... ... ... : ... .. B ... ... ... : D-1 05 . ... ... ... : ... .. . ... ... ...
ROW 5D : ... .. . ... ... ... : C-4 02 . P7B ... ... : ... .. . ... ... ... : 9-# 00 7 ... ... ... : ... .. . ... ... ... : ... .. . ... ... ...
ROW 5E : ... .. . ... ... ... : B-3 00 . P81 ... ... : ... .. . ... ... ... : A-# 00 4 ... ... ... : ... .. . ... ... ... : ... .. . ... ... ...
ROW 5F : ... .. . ... ... ... : ... .. . ... ... ... : ... .. . ... ... ... : ... .. . ... ... ... : ... .. . ... ... ... : ... .. . ... ... ...
ROW 60 : ... .. . ... ... ... : ... .. . ... ... ... : ... .. . ... ... ... : ... .. . ... ... ... : ... .. . ... ... ... : ... .. . ... ... ...
ROW 61 : ... .. . ... ... ... : ... .. . ... ... ... : ... .. . ... ... ... : ... .. 2 ... ... ... : ... .. . ... ... ... : ... .. . ... ... ...
ROW 62 : ... .. . ... ... ... : ... .. . ... ... ... : ... .. . ... ... ... : ... .. . ... ... ... : ... .. . ... ... ... : ... .. . ... ... ...
ROW 63 : ... .. . ... ... ... : ... .. . ... ... ... : ... .. . ... ... ... : ... .. 1 ... ... ... : ... .. . ... ... ... : ... .. . ... ... ...
ROW 64 : ... .. . ... ... ... : D#5 02 7 ... ... ... : ... .. . ... ... ... : ... .. . ... ... ... : ... .. . ... ... ... : ... .. . ... ... ...
ROW 65 : ... .. . ... ... ... : ... .. . ... ... ... : ... .. . ... ... ... : ... .. 3 ... ... ... : ... .. . ... ... ... : ... .. . ... ... ...
ROW 66 : ... .. . ... ... ... : ... .. . ... ... ... : ... .. . ... ... ... : ... .. 1 ... ... ... : ... .. . ... ... ... : ... .. . ... ... ...
ROW 67 : ... .. . ... ... ... : ... .. . ... ... ... : ... .. . ... ... ... : ... .. . ... ... ... : ... .. . ... ... ... : ... .. . ... ... ...
ROW 68 : ... .. . ... ... ... : ... .. . ... ... ... : ... .. . ... ... ... : ... .. . ... ... ... : ... .. . ... ... ... : ... .. . ... ... ...
ROW 69 : ... .. . ... ... ... : C#4 01 D ... ... ... : ... .. . ... ... ... : C-# 01 9 ... ... ... : ... .. . ... ... ... : ... .. . ... ... ...
ROW 6A : ... .. . ... ... ... : C#4 02 . ... ... ... : ... .. . ... ... ... : D-# 00 6 ... ... ... : ... .. . ... ... ... : ... .. . ... ... ...
ROW 6B : ... .. . ... ... ... : C#4 00 . ... ... ... : ... .. . ... ... ... : ... .. . ... ... ... : ... .. . ... ... ... : ... .. . ... ... ...
ROW 6C : ... .. . ... ... ... : ... .. . ... ... ... : ... .. . ... ... ... : E-# 01 5 ... ... ... : ... .. . ... ... ... : ... .. . ... ... ...
ROW 6D : ... .. . ... ... ... : ... .. . ... ... ... : ... .. . ... ... ... : D-# 01 . ... ... ... : ... .. . ... ... ... : ... .. . ... ... ...
ROW 6E : ... .. . ... ... ... : ... .. . ... ... ... : ... .. . ... ... ... : E-# 00 4 ... ... ... : ... .. . ... ... ... : ... .. . ... ... ...
ROW 6F : ... .. . ... ... ... : ... .. . ... ... ... : ... .. . ... ... ... : ... .. . ... ... ... : C-1 05 . ... ... ... : ... .. . ... ... ...
ROW 70 : ... .. . ... ... ... : ... .. . ... ... ... : ... .. . ... ... ... : ... .. . ... ... ... : ... .. . ... ... ... : ... .. . ... ... ...
ROW 71 : ... .. . ... ... ... : ... .. . ... ... ... : ... .. . ... ... ... : ... .. . ... ... ... : ... .. . ... ... ... : ... .. . ... ... ...
ROW 72 : ... .. . ... ... ... : D-4 00 . P7E ... ... : ... .. . ... ... ... : ... .. . ... ... ... : ... .. . ... ... ... : ... .. . ... ... ...
ROW 73 : ... .. . ... ... ... : ... .. . P80 ... ... : ... .. . ... ... ... : ... .. 3 ... ... ... : ... .. . ... ... ... : ... .. . ... ... ...
ROW 74 : ... .. . ... ... ... : C#4 00 . P85 ... ... : ... .. . ... ... ... : ... .. . ... ... ... : ... .. . ... ... ... : ... .. . ... ... ...
ROW 75 : ... .. . ... ... ... : ... .. . P7D ... ... : ... .. . ... ... ... : ... .. . ... ... ... : ... .. . ... ... ... : ... .. . ... ... ...
ROW 76 : ... .. . ... ... ... : C-4 00 . P82 ... ... : ... .. . ... ... ... : B-# 00 B ... ... ... : C-1 05 . ... ... ... : ... .. . ... ... ...
ROW 77 : ... .. . ... ... ... : ... .. . P84 ... ... : ... .. . ... ... ... : 9-# 00 7 ... ... ... : ... .. . ... ... ... : ... .. . ... ... ...
ROW 78 : ... .. . ... ... ... : C#4 00 . P81 ... ... : ... .. . ... ... ... : A-# 00 4 ... ... ... : ... .. . ... ... ... : ... .. . ... ... ...
ROW 79 : ... .. . ... ... ... : D-4 00 . P7D ... ... : ... .. . ... ... ... : ... .. . ... ... ... : ... .. . ... ... ... : ... .. . ... ... ...
ROW 7A : ... .. . ... ... ... : ... .. . P80 ... ... : ... .. . ... ... ... : ... .. . ... ... ... : ... .. . ... ... ... : ... .. . ... ... ...
ROW 7B : ... .. . ... ... ... : C#4 00 . P86 ... ... : ... .. . ... ... ... : ... .. 2 ... ... ... : ... .. . ... ... ... : ... .. . ... ... ...
ROW 7C : ... .. . ... ... ... : ... .. . P7E ... ... : ... .. . ... ... ... : ... .. . ... ... ... : ... .. . ... ... ... : ... .. . ... ... ...
ROW 7D : ... .. . ... ... ... : C-4 00 . P82 ... ... : ... .. . ... ... ... : ... .. 1 ... ... ... : ... .. . ... ... ... : ... .. . ... ... ...
ROW 7E : ... .. . ... ... ... : ... .. . P84 ... ... : ... .. . ... ... ... : ... .. . ... ... ... : ... .. . ... ... ... : ... .. . ... ... ...
ROW 7F : ... .. . ... ... ... : C#4 00 . P80 ... ... : ... .. . ... ... ... : ... .. 3 ... ... ... : ... .. . ... ... ... : ... .. . ... ... ...
ROW 80 : ... .. . ... ... ... : D-4 00 . P7C ... ... : ... .. . ... ... ... : ... .. 1 ... ... ... : ... .. . ... ... ... : ... .. . ... ... ...
ROW 81 : ... .. . ... ... ... : ... .. . P80 ... ... : ... .. . ... ... ... : ... .. . ... ... ... : ... .. . ... ... ... : ... .. . ... ... ...
ROW 82 : ... .. . ... ... ... : ... .. . P7B ... ... : ... .. . ... ... ... : ... .. . ... ... ... : ... .. . ... ... ... : ... .. . ... ... ...
ROW 83 : ... .. . ... ... ... : C-4 01 A P81 ... ... : ... .. . ... ... ... : C-# 01 9 ... ... ... : C-1 05 . ... ... ... : ... .. . ... ... ...
ROW 84 : ... .. . ... ... ... : C-4 02 . ... ... ... : ... .. . ... ... ... : D-# 00 6 ... ... ... : ... .. . ... ... ... : ... .. . ... ... ...
ROW 85 : ... .. . ... ... ... : B-3 01 . ... ... ... : ... .. . ... ... ... : ... .. . ... ... ... : ... .. . ... ... ... : ... .. . ... ... ...
ROW 86 : ... .. . ... ... ... : A#3 02 . ... ... ... : ... .. . ... ... ... : E-# 01 5 ... ... ... : ... .. . ... ... ... : ... .. . ... ... ...
ROW 87 : ... .. . ... ... ... : A#3 01 . ... ... ... : ... .. . ... ... ... : D-# 01 . ... ... ... : ... .. . ... ... ... : ... .. . ... ... ...
ROW 88 : ... .. . ... ... ... : A-3 02 . ... ... ... : ... .. . ... ... ... : E-# 00 4 ... ... ... : ... .. . ... ... ... : ... .. . ... ... ...
ROW 89 : ... .. . ... ... ... : G#3 01 . ... ... ... : ... .. . ... ... ... : ... .. . ... ... ... : ... .. . ... ... ... : ... .. . ... ... ...
ROW 8A : ... .. . ... ... ... : G#3 02 . ... ... ... : ... .. . ... ... ... : ... .. . ... ... ... : ... .. . ... ... ... : ... .. . ... ... ...
ROW 8B : ... .. . ... ... ... : G-3 01 . ... ... ... : ... .. . ... ... ... : ... .. . ... ... ... : ... .. . ... ... ... : ... .. . ... ... ...
ROW 8C : ... .. . ... ... ... : F#3 02 . ... ... ... : ... .. . ... ... ... : ... .. . ... ... ... : ... .. . ... ... ... : ... .. . ... ... ...
ROW 8D : ... .. . ... ... ... : F#3 01 . ... ... ... : ... .. . ... ... ... : ... .. 3 ... ... ... : ... .. . ... ... ... : ... .. . ... ... ...
ROW 8E : ... .. . ... ... ... : F-3 02 . ... ... ... : ... .. . ... ... ... : ... .. . ... ... ... : ... .. . ... ... ... : ... .. . ... ... ...
ROW 8F : ... .. . ... ... ... : E-3 01 . ... ... ... : ... .. . ... ... ... : ... .. . ... ... ... : ... .. . ... ... ... : ... .. . ... ... ...
ROW 90 : ... .. . ... ... ... : D#4 01 D P82 ... ... : ... .. . ... ... ... : B-# 00 B ... ... ... : D-1 05 . ... ... ... : ... .. . ... ... ...
ROW 91 : ... .. . ... ... ... : D#4 02 . P83 ... ... : ... .. . ... ... ... : 9-# 00 7 ... ... ... : ... .. . ... ... ... : ... .. . ... ... ...
ROW 92 : ... .. . ... ... ... : D#4 00 . P84 ... ... : ... .. . ... ... ... : A-# 00 4 ... ... ... : ... .. . ... ... ... : ... .. . ... ... ...
ROW 93 : ... .. . ... ... ... : E-4 00 . P7C ... ... : ... .. . ... ... ... : ... .. . ... ... ... : ... .. . ... ... ... : ... .. . ... ... ...
ROW 94 : ... .. . ... ... ... : ... .. . P7E ... ... : ... .. . ... ... ... : ... .. . ... ... ... : ... .. . ... ... ... : ... .. . ... ... ...
ROW 95 : ... .. . ... ... ... : ... .. . P80 ... ... : ... .. . ... ... ... : ... .. 2 ... ... ... : ... .. . ... ... ... : ... .. . ... ... ...
ROW 96 : ... .. . ... ... ... : ... .. . P81 ... ... : ... .. . ... ... ... : ... .. . ... ... ... : ... .. . ... ... ... : ... .. . ... ... ...
ROW 97 : ... .. . ... ... ... : ... .. . ... ... ... : ... .. . ... ... ... : ... .. 1 ... ... ... : ... .. . ... ... ... : ... .. . ... ... ...
ROW 98 : ... .. . ... ... ... : ... .. . ... ... ... : ... .. . ... ... ... : ... .. . ... ... ... : ... .. . ... ... ... : ... .. . ... ... ...
ROW 99 : ... .. . ... ... ... : ... .. . ... ... ... : ... .. . ... ... ... : ... .. 3 ... ... ... : ... .. . ... ... ... : ... .. . ... ... ...
ROW 9A : ... .. . ... ... ... : ... .. . ... ... ... : ... .. . ... ... ... : ... .. 1 ... ... ... : ... .. . ... ... ... : ... .. . ... ... ...
ROW 9B : ... .. . ... ... ... : ... .. . ... ... ... : ... .. . ... ... ... : ... .. . ... ... ... : ... .. . ... ... ... : ... .. . ... ... ...
ROW 9C : ... .. . ... ... ... : ... .. . ... ... ... : ... .. . ... ... ... : ... .. . ... ... ... : ... .. . ... ... ... : ... .. . ... ... ...
ROW 9D : ... .. . ... ... ... : D#4 01 . ... ... ... : ... .. . ... ... ... : C-# 01 9 ... ... ... : ... .. . ... ... ... : ... .. . ... ... ...
ROW 9E : ... .. . ... ... ... : D#4 02 . ... ... ... : ... .. . ... ... ... : D-# 00 6 ... ... ... : ... .. . ... ... ... : ... .. . ... ... ...
ROW 9F : ... .. . ... ... ... : D#4 00 . ... ... ... : ... .. . ... ... ... : ... .. . ... ... ... : ... .. . ... ... ... : ... .. . ... ... ...
ROW A0 : ... .. . ... ... ... : ... .. . ... ... ... : ... .. . ... ... ... : E-# 01 5 ... ... ... : ... .. . ... ... ... : ... .. . ... ... ...
ROW A1 : ... .. . ... ... ... : ... .. . ... ... ... : ... .. . ... ... ... : D-# 01 . ... ... ... : ... .. . ... ... ... : ... .. . ... ... ...
ROW A2 : ... .. 2 ... ... ... : ... .. . ... ... ... : --- .. . ... ... ... : E-# 00 4 ... ... ... : ... .. . ... ... ... : ... .. 1 ... ... ...
ROW A3 : ... .. 5 ... ... ... : ... .. . ... ... ... : ... .. . ... ... ... : ... .. . ... ... ... : ... .. . ... ... ... : ... .. 2 ... ... ...
ROW A4 : ... .. . ... ... ... : ... .. . ... ... ... : ... .. . ... ... ... : ... .. . ... ... ... : ... .. . ... ... ... : ... .. . ... ... ...
ROW A5 : ... .. . ... ... ... : E-5 02 7 ... ... ... : ... .. . ... ... ... : ... .. . ... ... ... : ... .. . ... ... ... : ... .. . ... ... ...
ROW A6 : ... .. . ... ... ... : ... .. . ... ... ... : ... .. . ... ... ... : ... .. . ... ... ... : ... .. . ... ... ... : ... .. . ... ... ...
ROW A7 : ... .. . ... ... ... : ... .. . ... ... ... : ... .. . ... ... ... : ... .. 3 ... ... ... : ... .. . ... ... ... : ... .. . ... ... ...
ROW A8 : ... .. 2 ... ... ... : ... .. . ... ... ... : ... .. . ... ... ... : ... .. . ... ... ... : ... .. . ... ... ... : ... .. 1 ... ... ...
ROW A9 : ... .. . ... ... ... : ... .. . ... ... ... : ... .. . ... ... ... : ... .. . ... ... ... : ... .. . ... ... ... : ... .. . ... ... ...
ROW AA : F#1 00 9 ... ... ... : B-3 01 D ... ... ... : B-2 00 . ... ... ... : B-# 00 B ... ... ... : C-1 05 . ... ... ... : D#3 04 6 I04 J44 ...
ROW AB : F#1 03 . ... ... ... : B-3 02 . ... ... ... : ... .. . ... ... ... : 9-# 00 7 ... ... ... : ... .. . ... ... ... : ... .. 5 ... ... ...
ROW AC : F#1 02 . ... ... ... : B-3 00 . ... ... ... : ... .. . ... ... ... : A-# 00 4 ... ... ... : ... .. . ... ... ... : ... .. . ... ... ...
ROW AD : F#1 01 . ... ... ... : ... .. . ... ... ... : ... .. . ... ... ... : ... .. . ... ... ... : ... .. . ... ... ... : E-3 04 4 I04 J86 ...
ROW AE : ... .. . ... ... ... : ... .. . ... ... ... : ... .. . ... ... ... : ... .. . ... ... ... : ... .. . ... ... ... : ... .. . ... ... ...
ROW AF : ... .. . ... ... ... : ... .. . ... ... ... : ... .. . ... ... ... : ... .. 2 ... ... ... : ... .. . ... ... ... : ... .. . ... ... ...
ROW B0 : ... .. . ... ... ... : ... .. . ... ... ... : ... .. . ... ... ... : ... .. . ... ... ... : ... .. . ... ... ... : ... .. . ... ... ...
ROW B1 : ... .. . ... ... ... : ... .. . ... ... ... : ... .. . ... ... ... : ... .. 1 ... ... ... : ... .. . ... ... ... : ... .. . ... ... ...
ROW B2 : ... .. . ... ... ... : D#5 02 7 ... ... ... : ... .. . ... ... ... : ... .. . ... ... ... : ... .. . ... ... ... : ... .. . ... ... ...
ROW B3 : ... .. . ... ... ... : ... .. . ... ... ... : ... .. . ... ... ... : ... .. 3 ... ... ... : ... .. . ... ... ... : ... .. . ... ... ...
ROW B4 : ... .. . ... ... ... : ... .. . ... ... ... : ... .. . ... ... ... : ... .. 1 ... ... ... : ... .. . ... ... ... : ... .. . ... ... ...
ROW B5 : ... .. . ... ... ... : ... .. . ... ... ... : ... .. . ... ... ... : ... .. . ... ... ... : ... .. . ... ... ... : ... .. . ... ... ...
ROW B6 : ... .. . ... ... ... : ... .. . ... ... ... : ... .. . ... ... ... : ... .. . ... ... ... : ... .. . ... ... ... : ... .. . ... ... ...
ROW B7 : ... .. . ... ... ... : C-4 01 D P86 ... ... : ... .. . ... ... ... : C-# 01 9 ... ... ... : ... .. . ... ... ... : ... .. . ... ... ...
ROW B8 : ... .. . ... ... ... : C#4 02 . P7F ... ... : ... .. . ... ... ... : D-# 00 6 ... ... ... : ... .. . ... ... ... : ... .. . ... ... ...
ROW B9 : ... .. . ... ... ... : C#4 00 . P81 ... ... : ... .. . ... ... ... : ... .. . ... ... ... : ... .. . ... ... ... : ... .. . ... ... ...
ROW BA : ... .. . ... ... ... : ... .. . ... ... ... : ... .. . ... ... ... : E-# 01 5 ... ... ... : ... .. . ... ... ... : ... .. . ... ... ...
ROW BB : ... .. . ... ... ... : ... .. . ... ... ... : ... .. . ... ... ... : D-# 01 . ... ... ... : ... .. . ... ... ... : ... .. . ... ... ...
ROW BC : ... .. . ... ... ... : ... .. . ... ... ... : ... .. . ... ... ... : E-# 00 4 ... ... ... : ... .. . ... ... ... : ... .. . ... ... ...
ROW BD : ... .. . ... ... ... : ... .. . ... ... ... : ... .. . ... ... ... : ... .. . ... ... ... : ... .. . ... ... ... : ... .. . ... ... ...
ROW BE : ... .. . ... ... ... : ... .. . ... ... ... : ... .. . ... ... ... : ... .. . ... ... ... : ... .. . ... ... ... : ... .. . ... ... ...
ROW BF : ... .. . ... ... ... : ... .. . ... ... ... : ... .. . ... ... ... : ... .. . ... ... ... : ... .. . ... ... ... : ... .. . ... ... ...
ROW C0 : ... .. . ... ... ... : D-4 00 . P7E ... ... : ... .. . ... ... ... : ... .. . ... ... ... : ... .. . ... ... ... : ... .. . ... ... ...
ROW C1 : ... .. . ... ... ... : ... .. . P80 ... ... : ... .. . ... ... ... : ... .. 3 ... ... ... : ... .. . ... ... ... : ... .. . ... ... ...
ROW C2 : ... .. . ... ... ... : C#4 00 . P85 ... ... : ... .. . ... ... ... : ... .. . ... ... ... : ... .. . ... ... ... : ... .. . ... ... ...
ROW C3 : ... .. . ... ... ... : ... .. . P7D ... ... : ... .. . ... ... ... : ... .. . ... ... ... : ... .. . ... ... ... : ... .. . ... ... ...
ROW C4 : ... .. . ... ... ... : C-4 00 . P82 ... ... : ... .. . ... ... ... : B-# 00 B ... ... ... : D-1 05 . ... ... ... : ... .. . ... ... ...
ROW C5 : ... .. . ... ... ... : ... .. . P84 ... ... : ... .. . ... ... ... : 9-# 00 7 ... ... ... : ... .. . ... ... ... : ... .. . ... ... ...
ROW C6 : ... .. . ... ... ... : C#4 00 . P81 ... ... : ... .. . ... ... ... : A-# 00 4 ... ... ... : ... .. . ... ... ... : ... .. . ... ... ...
ROW C7 : ... .. . ... ... ... : D-4 00 . P7D ... ... : ... .. . ... ... ... : ... .. . ... ... ... : ... .. . ... ... ... : ... .. . ... ... ...
ROW C8 : ... .. . ... ... ... : ... .. . P80 ... ... : ... .. . ... ... ... : ... .. . ... ... ... : ... .. . ... ... ... : ... .. . ... ... ...
ROW C9 : ... .. . ... ... ... : C#4 00 . P86 ... ... : ... .. . ... ... ... : ... .. 2 ... ... ... : ... .. . ... ... ... : ... .. . ... ... ...
ROW CA : ... .. . ... ... ... : ... .. . P7E ... ... : ... .. . ... ... ... : ... .. . ... ... ... : ... .. . ... ... ... : ... .. . ... ... ...
ROW CB : ... .. . ... ... ... : C-4 00 . P82 ... ... : ... .. . ... ... ... : ... .. 1 ... ... ... : ... .. . ... ... ... : ... .. . ... ... ...
ROW CC : ... .. . ... ... ... : ... .. . P84 ... ... : ... .. . ... ... ... : ... .. . ... ... ... : ... .. . ... ... ... : ... .. . ... ... ...
ROW CD : ... .. . ... ... ... : C#4 00 . P80 ... ... : ... .. . ... ... ... : ... .. 3 ... ... ... : ... .. . ... ... ... : ... .. . ... ... ...
ROW CE : ... .. . ... ... ... : D-4 00 . P7C ... ... : ... .. . ... ... ... : ... .. 1 ... ... ... : ... .. . ... ... ... : ... .. . ... ... ...
ROW CF : ... .. . ... ... ... : ... .. . P80 ... ... : ... .. . ... ... ... : ... .. . ... ... ... : ... .. . ... ... ... : ... .. . ... ... ...
ROW D0 : ... .. . ... ... ... : ... .. . P7B ... ... : ... .. . ... ... ... : ... .. . ... ... ... : ... .. . ... ... ... : ... .. . ... ... ...
ROW D1 : ... .. . ... ... ... : C#4 00 . P7F ... ... : ... .. . ... ... ... : C-# 01 9 ... ... ... : ... .. . ... ... ... : ... .. . ... ... ...
ROW D2 : ... .. . ... ... ... : C-4 00 . P83 ... ... : ... .. . ... ... ... : D-# 00 6 ... ... ... : ... .. . ... ... ... : ... .. . ... ... ...
ROW D3 : ... .. . ... ... ... : ... .. . ... ... ... : ... .. . ... ... ... : ... .. . ... ... ... : ... .. . ... ... ... : ... .. . ... ... ...
ROW D4 : ... .. . ... ... ... : B-3 00 A P81 ... ... : ... .. . ... ... ... : E-# 01 5 ... ... ... : ... .. . ... ... ... : ... .. . ... ... ...
ROW D5 : ... .. . ... ... ... : A#3 00 . ... ... ... : ... .. . ... ... ... : D-# 01 . ... ... ... : ... .. . ... ... ... : ... .. . ... ... ...
ROW D6 : ... .. 2 ... ... ... : A-3 00 . P7E ... ... : --- .. . ... ... ... : E-# 00 4 ... ... ... : ... .. . ... ... ... : ... .. 1 ... ... ...
ROW D7 : ... .. 5 ... ... ... : G-3 00 . P83 ... ... : ... .. . ... ... ... : ... .. . ... ... ... : C-1 05 . ... ... ... : ... .. 2 ... ... ...
ROW D8 : ... .. . ... ... ... : F-3 00 . P88 ... ... : ... .. . ... ... ... : ... .. . ... ... ... : ... .. . ... ... ... : ... .. . ... ... ...
ROW D9 : ... .. . ... ... ... : E-3 00 . P7D ... ... : ... .. . ... ... ... : ... .. . ... ... ... : ... .. . ... ... ... : ... .. . ... ... ...
ROW DA : ... .. . ... ... ... : D#3 00 . P85 ... ... : ... .. . ... ... ... : ... .. . ... ... ... : ... .. . ... ... ... : ... .. . ... ... ...
ROW DB : ... .. . ... ... ... : D-3 00 . P84 ... ... : ... .. . ... ... ... : ... .. 3 ... ... ... : ... .. . ... ... ... : ... .. . ... ... ...
ROW DC : ... .. 2 ... ... ... : C#3 00 . P85 ... ... : ... .. . ... ... ... : ... .. . ... ... ... : ... .. . ... ... ... : ... .. 1 ... ... ...
ROW DD : ... .. . ... ... ... : C-3 00 . P87 ... ... : ... .. . ... ... ... : ... .. . ... ... ... : ... .. . ... ... ... : ... .. . ... ... ...
ROW DE : G-1 00 9 ... ... ... : F#3 01 D P81 ... ... : C-3 00 . ... ... ... : B-# 00 B ... ... ... : C-1 05 . ... ... ... : ... .. 6 ... ... ...
ROW DF : G-1 03 . ... ... ... : F#3 02 . ... ... ... : ... .. . ... ... ... : 9-# 00 7 ... ... ... : ... .. . ... ... ... : ... .. 5 ... ... ...
ROW E0 : G-1 02 . ... ... ... : F#3 00 . ... ... ... : ... .. . ... ... ... : A-# 00 4 ... ... ... : ... .. . ... ... ... : ... .. . ... ... ...
ROW E1 : G-1 01 . ... ... ... : ... .. . ... ... ... : ... .. . ... ... ... : ... .. . ... ... ... : ... .. . ... ... ... : F-3 04 4 I04 JCE ...
ROW E2 : ... .. . ... ... ... : ... .. . ... ... ... : ... .. . ... ... ... : ... .. . ... ... ... : ... .. . ... ... ... : ... .. . ... ... ...
ROW E3 : ... .. . ... ... ... : ... .. . ... ... ... : ... .. . ... ... ... : ... .. 2 ... ... ... : ... .. . ... ... ... : ... .. . ... ... ...
ROW E4 : ... .. . ... ... ... : G-3 00 . P7F ... ... : ... .. . ... ... ... : ... .. . ... ... ... : ... .. . ... ... ... : ... .. . ... ... ...
ROW E5 : ... .. . ... ... ... : G#3 00 . P7E ... ... : ... .. . ... ... ... : ... .. 1 ... ... ... : ... .. . ... ... ... : ... .. . ... ... ...
ROW E6 : ... .. . ... ... ... : ... .. . P81 ... ... : ... .. . ... ... ... : ... .. . ... ... ... : ... .. . ... ... ... : ... .. . ... ... ...
ROW E7 : ... .. . ... ... ... : ... .. . ... ... ... : ... .. . ... ... ... : ... .. 3 ... ... ... : ... .. . ... ... ... : ... .. . ... ... ...
ROW E8 : ... .. . ... ... ... : ... .. . ... ... ... : ... .. . ... ... ... : ... .. 1 ... ... ... : ... .. . ... ... ... : ... .. . ... ... ...
ROW E9 : ... .. . ... ... ... : ... .. . ... ... ... : ... .. . ... ... ... : ... .. . ... ... ... : ... .. . ... ... ... : ... .. . ... ... ...
ROW EA : ... .. . ... ... ... : ... .. . ... ... ... : ... .. . ... ... ... : ... .. . ... ... ... : ... .. . ... ... ... : ... .. . ... ... ...
ROW EB : ... .. . ... ... ... : C#4 01 . ... ... ... : ... .. . ... ... ... : C-# 01 9 ... ... ... : C-1 05 . ... ... ... : ... .. . ... ... ...
ROW EC : ... .. . ... ... ... : C#4 02 . ... ... ... : ... .. . ... ... ... : D-# 00 6 ... ... ... : ... .. . ... ... ... : ... .. . ... ... ...
ROW ED : ... .. . ... ... ... : C#4 00 . ... ... ... : ... .. . ... ... ... : ... .. . ... ... ... : ... .. . ... ... ... : ... .. . ... ... ...
ROW EE : ... .. . ... ... ... : ... .. . ... ... ... : ... .. . ... ... ... : E-# 01 5 ... ... ... : ... .. . ... ... ... : ... .. . ... ... ...
ROW EF : ... .. . ... ... ... : ... .. . ... ... ... : ... .. . ... ... ... : D-# 01 . ... ... ... : ... .. . ... ... ... : ... .. . ... ... ...
ROW F0 : ... .. . ... ... ... : ... .. . ... ... ... : ... .. . ... ... ... : E-# 00 4 ... ... ... : ... .. . ... ... ... : ... .. . ... ... ...
ROW F1 : ... .. . ... ... ... : ... .. . ... ... ... : ... .. . ... ... ... : ... .. . ... ... ... : ... .. . ... ... ... : ... .. . ... ... ...
ROW F2 : ... .. . ... ... ... : ... .. . ... ... ... : ... .. . ... ... ... : ... .. . ... ... ... : ... .. . ... ... ... : ... .. . ... ... ...
ROW F3 : ... .. . ... ... ... : G#4 02 7 ... ... ... : ... .. . ... ... ... : ... .. . ... ... ... : ... .. . ... ... ... : ... .. . ... ... ...
ROW F4 : ... .. . ... ... ... : ... .. . ... ... ... : ... .. . ... ... ... : ... .. . ... ... ... : ... .. . ... ... ... : ... .. . ... ... ...
ROW F5 : ... .. . ... ... ... : ... .. . ... ... ... : ... .. . ... ... ... : ... .. 3 ... ... ... : ... .. . ... ... ... : ... .. . ... ... ...
ROW F6 : ... .. . ... ... ... : ... .. . ... ... ... : ... .. . ... ... ... : ... .. . ... ... ... : ... .. . ... ... ... : ... .. . ... ... ...
ROW F7 : ... .. . ... ... ... : ... .. . ... ... ... : ... .. . ... ... ... : ... .. . ... ... ... : ... .. . ... ... ... : ... .. . ... ... ...
ROW F8 : ... .. . ... ... ... : D#4 01 D ... ... ... : ... .. . ... ... ... : B-# 00 B ... ... ... : D-1 05 . ... ... ... : ... .. . ... ... ...
ROW F9 : ... .. . ... ... ... : D#4 02 . ... ... ... : ... .. . ... ... ... : 9-# 00 7 ... ... ... : ... .. . ... ... ... : ... .. . ... ... ...
ROW FA : ... .. . ... ... ... : D#4 00 . ... ... ... : ... .. . ... ... ... : A-# 00 4 ... ... ... : ... .. . ... ... ... : ... .. . ... ... ...
ROW FB : ... .. . ... ... ... : ... .. . ... ... ... : ... .. . ... ... ... : ... .. . ... ... ... : ... .. . ... ... ... : ... .. . ... ... ...
ROW FC : ... .. . ... ... ... : ... .. . ... ... ... : ... .. . ... ... ... : ... .. . ... ... ... : ... .. . ... ... ... : ... .. . ... ... ...
ROW FD : ... .. . ... ... ... : ... .. . ... ... ... : ... .. . ... ... ... : ... .. 2 ... ... ... : ... .. . ... ... ... : ... .. . ... ... ...
ROW FE : ... .. . ... ... ... : ... .. . ... ... ... : ... .. . ... ... ... : ... .. . ... ... ... : ... .. . ... ... ... : ... .. . ... ... ...
ROW FF : ... .. . ... ... ... : ... .. . ... ... ... : ... .. . ... ... ... : ... .. 1 ... ... ... : ... .. . ... ... ... : ... .. . ... ... ...

PATTERN 0B
ROW 00 : ... .. . ... ... ... : C#5 02 7 ... ... ... : ... .. . ... ... ... : ... .. . ... ... ... : ... .. . ... ... ... : ... .. . ... ... ...
ROW 01 : ... .. . ... ... ... : ... .. . ... ... ... : ... .. . ... ... ... : ... .. 3 ... ... ... : ... .. . ... ... ... : ... .. . ... ... ...
ROW 02 : ... .. . ... ... ... : ... .. . ... ... ... : ... .. . ... ... ... : ... .. 1 ... ... ... : ... .. . ... ... ... : ... .. . ... ... ...
ROW 03 : ... .. . ... ... ... : ... .. . ... ... ... : ... .. . ... ... ... : ... .. . ... ... ... : ... .. . ... ... ... : ... .. . ... ... ...
ROW 04 : ... .. . ... ... ... : ... .. . ... ... ... : ... .. . ... ... ... : ... .. . ... ... ... : ... .. . ... ... ... : ... .. . ... ... ...
ROW 05 : ... .. . ... ... ... : E-4 01 D ... ... ... : ... .. . ... ... ... : C-# 01 9 ... ... ... : ... .. . ... ... ... : ... .. . ... ... ...
ROW 06 : ... .. . ... ... ... : E-4 02 . ... ... ... : ... .. . ... ... ... : D-# 00 6 ... ... ... : ... .. . ... ... ... : ... .. . ... ... ...
ROW 07 : ... .. . ... ... ... : E-4 00 . ... ... ... : ... .. . ... ... ... : ... .. . ... ... ... : ... .. . ... ... ... : ... .. . ... ... ...
ROW 08 : ... .. . ... ... ... : ... .. . ... ... ... : ... .. . ... ... ... : E-# 01 5 ... ... ... : ... .. . ... ... ... : ... .. . ... ... ...
ROW 09 : ... .. . ... ... ... : ... .. . ... ... ... : ... .. . ... ... ... : D-# 01 . ... ... ... : ... .. . ... ... ... : ... .. . ... ... ...
ROW 0A : ... .. 2 ... ... ... : ... .. . ... ... ... : --- .. . ... ... ... : E-# 00 4 ... ... ... : ... .. . ... ... ... : ... .. 1 ... ... ...
ROW 0B : ... .. 5 ... ... ... : ... .. . ... ... ... : ... .. . ... ... ... : ... .. . ... ... ... : ... .. . ... ... ... : ... .. 2 ... ... ...
ROW 0C : ... .. . ... ... ... : ... .. . ... ... ... : ... .. . ... ... ... : ... .. . ... ... ... : ... .. . ... ... ... : ... .. . ... ... ...
ROW 0D : ... .. . ... ... ... : D#5 02 7 ... ... ... : ... .. . ... ... ... : ... .. . ... ... ... : ... .. . ... ... ... : ... .. . ... ... ...
ROW 0E : ... .. . P81 ... ... : ... .. . ... ... ... : ... .. . ... ... ... : ... .. . ... ... ... : ... .. . ... ... ... : ... .. . ... ... ...
ROW 0F : ... .. . ... ... ... : ... .. . ... ... ... : ... .. . ... ... ... : ... .. 3 ... ... ... : ... .. . ... ... ... : ... .. . ... ... ...
ROW 10 : ... .. 2 ... ... ... : ... .. . ... ... ... : ... .. . ... ... ... : ... .. . ... ... ... : ... .. . ... ... ... : ... .. 1 ... ... ...
ROW 11 : ... .. . ... ... ... : ... .. . ... ... ... : ... .. . ... ... ... : ... .. . ... ... ... : ... .. . ... ... ... : ... .. . ... ... ...
ROW 12 : B-2 02 9 ... ... ... : E-4 01 D ... ... ... : C#3 00 . ... ... ... : 8-# 00 C ... ... ... : C-1 05 . ... ... ... : F#3 04 7 I05 J16 ...
ROW 13 : B-2 01 . ... ... ... : E-4 02 . ... ... ... : ... .. . ... ... ... : 4-# 00 8 ... ... ... : ... .. . ... ... ... : ... .. 6 ... ... ...
ROW 14 : ... .. . ... ... ... : E-4 00 . ... ... ... : ... .. . ... ... ... : 7-# 00 B ... ... ... : ... .. . ... ... ... : ... .. 5 ... ... ...
ROW 15 : ... .. . P8C ... ... : F-4 00 . P7E ... ... : ... .. . ... ... ... : 9-# 00 8 ... ... ... : ... .. . ... ... ... : ... .. . ... ... ...
ROW 16 : ... .. . P86 ... ... : F#4 00 . P7C ... ... : ... .. . ... ... ... : A-# 00 9 ... ... ... : ... .. . ... ... ... : ... .. . ... ... ...
ROW 17 : ... .. . P7A ... ... : ... .. . P81 ... ... : ... .. . ... ... ... : B-# 00 8 ... ... ... : ... .. . ... ... ... : ... .. 4 ... ... ...
ROW 18 : ... .. . P77 ... ... : ... .. . ... ... ... : ... .. . ... ... ... : ... .. . ... ... ... : ... .. . ... ... ... : ... .. . ... ... ...
ROW 19 : ... .. . P82 ... ... : ... .. . ... ... ... : ... .. . ... ... ... : ... .. . ... ... ... : ... .. . ... ... ... : ... .. . ... ... ...
ROW 1A : ... .. . P8C ... ... : ... .. . ... ... ... : ... .. . ... ... ... : ... .. . ... ... ... : ... .. . ... ... ... : ... .. . ... ... ...
ROW 1B : ... .. . P85 ... ... : ... .. . ... ... ... : ... .. . ... ... ... : ... .. 7 ... ... ... : ... .. . ... ... ... : ... .. . ... ... ...
ROW 1C : ... .. . P79 ... ... : ... .. . ... ... ... : ... .. . ... ... ... : ... .. . ... ... ... : ... .. . ... ... ... : ... .. . ... ... ...
ROW 1D : ... .. 4 P78 ... ... : ... .. . ... ... ... : --- .. . ... ... ... : ... .. . ... ... ... : ... .. . ... ... ... : ... .. 2 ... ... ...
ROW 1E : ... .. . P83 ... ... : ... .. . ... ... ... : ... .. . ... ... ... : ... .. . ... ... ... : ... .. . ... ... ... : ... .. . ... ... ...
ROW 1F : G#1 02 9 P81 ... ... : E-4 01 . ... ... ... : C#3 00 . ... ... ... : ... .. 6 ... ... ... : C#1 05 . ... ... ... : B-2 04 7 I02 J8C ...
ROW 20 : G#1 01 . ... ... ... : E-4 02 . ... ... ... : ... .. . ... ... ... : ... .. . ... ... ... : ... .. . ... ... ... : ... .. 6 ... ... ...
ROW 21 : ... .. . ... ... ... : E-4 00 . ... ... ... : ... .. . ... ... ... : ... .. . ... ... ... : ... .. . ... ... ... : ... .. 5 ... ... ...
ROW 22 : ... .. . ... ... ... : ... .. . ... ... ... : ... .. . ... ... ... : ... .. . ... ... ... : ... .. . ... ... ... : ... .. . ... ... ...
ROW 23 : ... .. 4 ... ... ... : ... .. . ... ... ... : ... .. . ... ... ... : ... .. . ... ... ... : ... .. . ... ... ... : ... .. 4 ... ... ...
ROW 24 : ... .. . ... ... ... : ... .. . ... ... ... : --- .. . ... ... ... : ... .. 5 ... ... ... : ... .. . ... ... ... : ... .. 2 ... ... ...
ROW 25 : G#1 02 9 ... ... ... : ... .. . ... ... ... : C#3 00 . ... ... ... : ... .. . ... ... ... : C#1 05 . ... ... ... : ... .. 7 ... ... ...
ROW 26 : G#1 01 . ... ... ... : ... .. . ... ... ... : ... .. . ... ... ... : ... .. . ... ... ... : ... .. . ... ... ... : ... .. 6 ... ... ...
ROW 27 : ... .. . ... ... ... : F#5 02 7 ... ... ... : ... .. . ... ... ... : ... .. . ... ... ... : ... .. . ... ... ... : ... .. 5 ... ... ...
ROW 28 : ... .. . ... ... ... : ... .. . ... ... ... : ... .. . ... ... ... : ... .. . ... ... ... : ... .. . ... ... ... : ... .. . ... ... ...
ROW 29 : ... .. 4 ... ... ... : ... .. . ... ... ... : ... .. . ... ... ... : ... .. 4 ... ... ... : ... .. . ... ... ... : ... .. 4 ... ... ...
ROW 2A : ... .. . ... ... ... : ... .. . ... ... ... : --- .. . ... ... ... : ... .. . ... ... ... : ... .. . ... ... ... : ... .. 2 ... ... ...
ROW 2B : ... .. . ... ... ... : ... .. . ... ... ... : ... .. . ... ... ... : ... .. . ... ... ... : ... .. . ... ... ... : ... .. . ... ... ...
ROW 2C : G#1 02 9 ... ... ... : D#4 01 D ... ... ... : C#3 00 . ... ... ... : 7-# 00 B ... ... ... : D-1 05 . ... ... ... : ... .. 7 ... ... ...
ROW 2D : G#1 01 . ... ... ... : D#4 02 . ... ... ... : ... .. . ... ... ... : 3-# 00 8 ... ... ... : ... .. . ... ... ... : ... .. 6 ... ... ...
ROW 2E : ... .. . ... ... ... : D#4 00 . ... ... ... : ... .. . ... ... ... : 6-# 00 A ... ... ... : ... .. . ... ... ... : ... .. 5 ... ... ...
ROW 2F : ... .. . ... ... ... : ... .. . ... ... ... : ... .. . ... ... ... : 8-# 00 8 ... ... ... : ... .. . ... ... ... : ... .. . ... ... ...
ROW 30 : ... .. 4 ... ... ... : ... .. . ... ... ... : ... .. . ... ... ... : 9-# 00 . ... ... ... : ... .. . ... ... ... : ... .. 4 ... ... ...
ROW 31 : ... .. . ... ... ... : ... .. . ... ... ... : --- .. . ... ... ... : A-# 00 . ... ... ... : ... .. . ... ... ... : ... .. 2 ... ... ...
ROW 32 : G#1 02 9 ... ... ... : ... .. . ... ... ... : C#3 00 . ... ... ... : ... .. . ... ... ... : ... .. . ... ... ... : ... .. 7 ... ... ...
ROW 33 : G#1 01 . ... ... ... : ... .. . ... ... ... : ... .. . ... ... ... : ... .. 7 ... ... ... : ... .. . ... ... ... : ... .. 6 ... ... ...
ROW 34 : ... .. . ... ... ... : E-5 02 7 ... ... ... : ... .. . ... ... ... : ... .. . ... ... ... : ... .. . ... ... ... : ... .. 5 ... ... ...
ROW 35 : ... .. . ... ... ... : ... .. . ... ... ... : ... .. . ... ... ... : ... .. 4 ... ... ... : ... .. . ... ... ... : ... .. . ... ... ...
ROW 36 : ... .. 4 ... ... ... : ... .. . ... ... ... : ... .. . ... ... ... : ... .. . ... ... ... : ... .. . ... ... ... : ... .. 4 ... ... ...
ROW 37 : ... .. . ... ... ... : ... .. . ... ... ... : --- .. . ... ... ... : ... .. . ... ... ... : ... .. . ... ... ... : ... .. 2 ... ... ...
ROW 38 : ... .. . ... ... ... : ... .. . ... ... ... : ... .. . ... ... ... : ... .. . ... ... ... : ... .. . ... ... ... : ... .. . ... ... ...
ROW 39 : B-2 02 9 ... ... ... : E-4 01 D ... ... ... : C#3 00 . ... ... ... : B-# 00 B ... ... ... : C-1 05 . ... ... ... : F#3 04 7 I05 J16 ...
ROW 3A : B-2 01 . ... ... ... : E-4 02 . ... ... ... : ... .. . ... ... ... : 9-# 00 7 ... ... ... : ... .. . ... ... ... : ... .. 6 ... ... ...
ROW 3B : ... .. . ... ... ... : E-4 00 . ... ... ... : ... .. . ... ... ... : A-# 00 4 ... ... ... : ... .. . ... ... ... : ... .. 5 ... ... ...
ROW 3C : ... .. . P8C ... ... : ... .. . ... ... ... : ... .. . ... ... ... : ... .. . ... ... ... : ... .. . ... ... ... : ... .. . ... ... ...
ROW 3D : ... .. . P86 ... ... : ... .. . ... ... ... : ... .. . ... ... ... : ... .. . ... ... ... : ... .. . ... ... ... : ... .. . ... ... ...
ROW 3E : ... .. . P7A ... ... : ... .. . ... ... ... : ... .. . ... ... ... : ... .. 2 ... ... ... : ... .. . ... ... ... : ... .. 4 ... ... ...
ROW 3F : ... .. . P77 ... ... : ... .. . ... ... ... : ... .. . ... ... ... : ... .. . ... ... ... : ... .. . ... ... ... : ... .. . ... ... ...
ROW 40 : ... .. . P82 ... ... : ... .. . ... ... ... : ... .. . ... ... ... : ... .. 1 ... ... ... : ... .. . ... ... ... : ... .. . ... ... ...
ROW 41 : ... .. . P8C ... ... : ... .. . ... ... ... : ... .. . ... ... ... : ... .. . ... ... ... : ... .. . ... ... ... : ... .. . ... ... ...
ROW 42 : ... .. . P85 ... ... : ... .. . ... ... ... : ... .. . ... ... ... : ... .. 3 ... ... ... : ... .. . ... ... ... : ... .. . ... ... ...
ROW 43 : ... .. . P79 ... ... : ... .. . ... ... ... : ... .. . ... ... ... : ... .. 1 ... ... ... : ... .. . ... ... ... : ... .. . ... ... ...
ROW 44 : ... .. 4 P78 ... ... : ... .. . ... ... ... : --- .. . ... ... ... : ... .. . ... ... ... : ... .. . ... ... ... : ... .. 2 ... ... ...
ROW 45 : ... .. . P83 ... ... : ... .. . ... ... ... : ... .. . ... ... ... : ... .. . ... ... ... : ... .. . ... ... ... : ... .. . ... ... ...
ROW 46 : G#1 02 9 P81 ... ... : ... .. . ... ... ... : C#3 00 . ... ... ... : 7-# 00 B ... ... ... : C#1 05 . ... ... ... : B-2 04 7 I02 J8C ...
ROW 47 : G#1 01 . ... ... ... : ... .. . ... ... ... : ... .. . ... ... ... : 3-# 00 8 ... ... ... : ... .. . ... ... ... : ... .. 6 ... ... ...
ROW 48 : ... .. . ... ... ... : D#5 02 7 ... ... ... : ... .. . ... ... ... : 6-# 00 A ... ... ... : ... .. . ... ... ... : ... .. 5 ... ... ...
ROW 49 : ... .. . ... ... ... : ... .. . ... ... ... : ... .. . ... ... ... : 8-# 00 8 ... ... ... : ... .. . ... ... ... : ... .. . ... ... ...
ROW 4A : ... .. 4 ... ... ... : ... .. . ... ... ... : ... .. . ... ... ... : 9-# 00 . ... ... ... : ... .. . ... ... ... : ... .. 4 ... ... ...
ROW 4B : ... .. . ... ... ... : ... .. . ... ... ... : --- .. . ... ... ... : A-# 00 . ... ... ... : ... .. . ... ... ... : ... .. 2 ... ... ...
ROW 4C : G#1 02 9 ... ... ... : ... .. . ... ... ... : C#3 00 . ... ... ... : ... .. . ... ... ... : C#1 05 . ... ... ... : ... .. 7 ... ... ...
ROW 4D : G#1 01 . ... ... ... : E-5 02 5 ... ... ... : ... .. . ... ... ... : ... .. 7 ... ... ... : ... .. . ... ... ... : ... .. 6 ... ... ...
ROW 4E : ... .. . ... ... ... : ... .. . ... ... ... : ... .. . ... ... ... : ... .. . ... ... ... : ... .. . ... ... ... : ... .. 5 ... ... ...
ROW 4F : ... .. . ... ... ... : ... .. . ... ... ... : ... .. . ... ... ... : ... .. 4 ... ... ... : ... .. . ... ... ... : ... .. . ... ... ...
ROW 50 : ... .. 4 ... ... ... : ... .. . ... ... ... : ... .. . ... ... ... : ... .. . ... ... ... : ... .. . ... ... ... : ... .. 4 ... ... ...
ROW 51 : ... .. . ... ... ... : ... .. . ... ... ... : --- .. . ... ... ... : ... .. . ... ... ... : ... .. . ... ... ... : ... .. 2 ... ... ...
ROW 52 : ... .. . ... ... ... : ... .. . ... ... ... : ... .. . ... ... ... : ... .. . ... ... ... : ... .. . ... ... ... : ... .. . ... ... ...
ROW 53 : G#1 02 9 ... ... ... : C#4 01 D ... ... ... : C#3 00 . ... ... ... : B-# 00 9 ... ... ... : D-1 05 . ... ... ... : ... .. 7 ... ... ...
ROW 54 : G#1 01 . ... ... ... : C#4 02 . ... ... ... : ... .. . ... ... ... : 8-# 00 6 ... ... ... : ... .. . ... ... ... : ... .. 6 ... ... ...
ROW 55 : ... .. . ... ... ... : C#4 00 . ... ... ... : ... .. . ... ... ... : 9-# 00 8 ... ... ... : ... .. . ... ... ... : ... .. 5 ... ... ...
ROW 56 : ... .. . ... ... ... : ... .. . ... ... ... : ... .. . ... ... ... : A-# 00 6 ... ... ... : ... .. . ... ... ... : ... .. . ... ... ...
ROW 57 : ... .. 4 ... ... ... : ... .. . ... ... ... : ... .. . ... ... ... : B-# 00 7 ... ... ... : ... .. . ... ... ... : ... .. 4 ... ... ...
ROW 58 : ... .. . ... ... ... : ... .. . ... ... ... : --- .. . ... ... ... : C-# 00 6 ... ... ... : ... .. . ... ... ... : ... .. 2 ... ... ...
ROW 59 : G#1 02 9 ... ... ... : ... .. . ... ... ... : C#3 00 . ... ... ... : ... .. . ... ... ... : ... .. . ... ... ... : ... .. 7 ... ... ...
ROW 5A : G#1 01 . ... ... ... : ... .. . ... ... ... : ... .. . ... ... ... : B-# 00 . ... ... ... : ... .. . ... ... ... : ... .. 6 ... ... ...
ROW 5B : ... .. . ... ... ... : ... .. . ... ... ... : ... .. . ... ... ... : C-# 00 . ... ... ... : ... .. . ... ... ... : ... .. 5 ... ... ...
ROW 5C : ... .. . ... ... ... : ... .. . ... ... ... : ... .. . ... ... ... : ... .. 5 ... ... ... : ... .. . ... ... ... : ... .. . ... ... ...
ROW 5D : ... .. 4 ... ... ... : ... .. . ... ... ... : ... .. . ... ... ... : ... .. . ... ... ... : ... .. . ... ... ... : ... .. 4 ... ... ...
ROW 5E : ... .. . ... ... ... : ... .. . ... ... ... : --- .. . ... ... ... : ... .. . ... ... ... : ... .. . ... ... ... : ... .. 2 ... ... ...
ROW 5F : ... .. . ... ... ... : ... .. . ... ... ... : ... .. . ... ... ... : ... .. . ... ... ... : ... .. . ... ... ... : ... .. . ... ... ...
ROW 60 : B-2 02 9 ... ... ... : ... .. . ... ... ... : C#3 00 . ... ... ... : 8-# 00 B ... ... ... : C-1 05 . ... ... ... : F#3 04 7 I05 J16 ...
ROW 61 : B-2 01 . ... ... ... : ... .. . ... ... ... : ... .. . ... ... ... : 4-# 00 8 ... ... ... : ... .. . ... ... ... : ... .. 6 ... ... ...
ROW 62 : ... .. . ... ... ... : E-5 02 7 ... ... ... : ... .. . ... ... ... : 7-# 00 A ... ... ... : ... .. . ... ... ... : ... .. 5 ... ... ...
ROW 63 : ... .. . P8C ... ... : ... .. . ... ... ... : ... .. . ... ... ... : 9-# 00 8 ... ... ... : ... .. . ... ... ... : ... .. . ... ... ...
ROW 64 : ... .. . P86 ... ... : ... .. . ... ... ... : ... .. . ... ... ... : A-# 00 . ... ... ... : ... .. . ... ... ... : ... .. . ... ... ...
ROW 65 : ... .. . P7A ... ... : ... .. . ... ... ... : ... .. . ... ... ... : B-# 00 . ... ... ... : ... .. . ... ... ... : ... .. 4 ... ... ...
ROW 66 : ... .. . P77 ... ... : ... .. . ... ... ... : ... .. . ... ... ... : ... .. . ... ... ... : ... .. . ... ... ... : ... .. . ... ... ...
ROW 67 : ... .. . P82 ... ... : C#5 02 5 ... ... ... : ... .. . ... ... ... : ... .. 7 ... ... ... : ... .. . ... ... ... : ... .. . ... ... ...
ROW 68 : ... .. . P8C ... ... : ... .. . ... ... ... : ... .. . ... ... ... : ... .. . ... ... ... : ... .. . ... ... ... : ... .. . ... ... ...
ROW 69 : ... .. . P85 ... ... : ... .. . ... ... ... : ... .. . ... ... ... : ... .. 4 ... ... ... : ... .. . ... ... ... : ... .. . ... ... ...
ROW 6A : ... .. . P79 ... ... : ... .. . ... ... ... : ... .. . ... ... ... : ... .. . ... ... ... : ... .. . ... ... ... : ... .. . ... ... ...
ROW 6B : ... .. 4 P78 ... ... : ... .. . ... ... ... : --- .. . ... ... ... : ... .. . ... ... ... : ... .. . ... ... ... : ... .. 2 ... ... ...
ROW 6C : ... .. . P83 ... ... : ... .. . ... ... ... : ... .. . ... ... ... : ... .. . ... ... ... : ... .. . ... ... ... : ... .. . ... ... ...
ROW 6D : G#1 02 9 P81 ... ... : F#4 01 D ... ... ... : C#3 00 . ... ... ... : ... .. B ... ... ... : C#1 05 . ... ... ... : B-2 04 7 I02 J8C ...
ROW 6E : G#1 01 . ... ... ... : F#4 02 . ... ... ... : ... .. . ... ... ... : 9-# 00 7 ... ... ... : ... .. . ... ... ... : ... .. 6 ... ... ...
ROW 6F : ... .. . ... ... ... : F#4 00 . ... ... ... : ... .. . ... ... ... : A-# 00 4 ... ... ... : ... .. . ... ... ... : ... .. 5 ... ... ...
ROW 70 : ... .. . ... ... ... : ... .. . ... ... ... : ... .. . ... ... ... : ... .. . ... ... ... : ... .. . ... ... ... : ... .. . ... ... ...
ROW 71 : ... .. 4 ... ... ... : ... .. . ... ... ... : ... .. . ... ... ... : ... .. . ... ... ... : ... .. . ... ... ... : ... .. 4 ... ... ...
ROW 72 : ... .. . ... ... ... : ... .. . ... ... ... : --- .. . ... ... ... : ... .. 2 ... ... ... : ... .. . ... ... ... : ... .. 2 ... ... ...
ROW 73 : G#1 02 9 ... ... ... : ... .. . ... ... ... : C#3 00 . ... ... ... : ... .. . ... ... ... : C#1 05 . ... ... ... : ... .. 7 ... ... ...
ROW 74 : G#1 01 . ... ... ... : ... .. . ... ... ... : ... .. . ... ... ... : ... .. 1 ... ... ... : ... .. . ... ... ... : ... .. 6 ... ... ...
ROW 75 : ... .. . ... ... ... : ... .. . ... ... ... : ... .. . ... ... ... : ... .. . ... ... ... : ... .. . ... ... ... : ... .. 5 ... ... ...
ROW 76 : ... .. . ... ... ... : ... .. . P82 ... ... : ... .. . ... ... ... : ... .. 3 ... ... ... : ... .. . ... ... ... : ... .. . ... ... ...
ROW 77 : ... .. 4 ... ... ... : ... .. . P83 ... ... : ... .. . ... ... ... : ... .. 1 ... ... ... : ... .. . ... ... ... : ... .. 4 ... ... ...
ROW 78 : ... .. . ... ... ... : ... .. . P84 ... ... : --- .. . ... ... ... : ... .. . ... ... ... : ... .. . ... ... ... : ... .. 2 ... ... ...
ROW 79 : ... .. . ... ... ... : G-4 00 . P7D ... ... : ... .. . ... ... ... : ... .. . ... ... ... : ... .. . ... ... ... : ... .. . ... ... ...
ROW 7A : C#3 02 9 ... ... ... : ... .. . P7E ... ... : C#3 00 . ... ... ... : 9-# 00 B ... ... ... : D-1 05 . ... ... ... : G-3 04 7 I05 J64 ...
ROW 7B : C#3 01 . ... ... ... : ... .. . P7F ... ... : ... .. . ... ... ... : 5-# 00 8 ... ... ... : ... .. . ... ... ... : ... .. 6 ... ... ...
ROW 7C : ... .. . ... ... ... : ... .. . P80 ... ... : ... .. . ... ... ... : 8-# 00 A ... ... ... : ... .. . ... ... ... : ... .. 5 ... ... ...
ROW 7D : D-3 01 . P75 ... ... : ... .. . P81 ... ... : ... .. . ... ... ... : A-# 00 8 ... ... ... : ... .. . ... ... ... : ... .. . ... ... ...
ROW 7E : C#3 01 . P86 ... ... : ... .. . P82 ... ... : ... .. . ... ... ... : B-# 00 . ... ... ... : ... .. . ... ... ... : ... .. . ... ... ...
ROW 7F : ... .. . P7A ... ... : ... .. . P83 ... ... : ... .. . ... ... ... : C-# 00 . ... ... ... : ... .. . ... ... ... : ... .. 4 ... ... ...
ROW 80 : ... .. . P77 ... ... : ... .. . P84 ... ... : ... .. . ... ... ... : ... .. . ... ... ... : ... .. . ... ... ... : ... .. . ... ... ...
ROW 81 : ... .. . P82 ... ... : G#4 00 . P7D ... ... : ... .. . ... ... ... : ... .. 7 ... ... ... : ... .. . ... ... ... : ... .. . ... ... ...
ROW 82 : D-3 01 . P75 ... ... : ... .. . P7E ... ... : ... .. . ... ... ... : ... .. . ... ... ... : ... .. . ... ... ... : ... .. . ... ... ...
ROW 83 : C#3 01 . P85 ... ... : ... .. . P7F ... ... : ... .. . ... ... ... : ... .. 4 ... ... ... : ... .. . ... ... ... : ... .. . ... ... ...
ROW 84 : ... .. . P79 ... ... : ... .. . P80 ... ... : ... .. . ... ... ... : ... .. . ... ... ... : ... .. . ... ... ... : ... .. . ... ... ...
ROW 85 : ... .. 4 P78 ... ... : ... .. . P81 ... ... : --- .. . ... ... ... : ... .. . ... ... ... : ... .. . ... ... ... : ... .. 2 ... ... ...
ROW 86 : ... .. . P83 ... ... : ... .. . ... ... ... : ... .. . ... ... ... : ... .. . ... ... ... : ... .. . ... ... ... : ... .. . ... ... ...
ROW 87 : G#1 02 9 P81 ... ... : ... .. . ... ... ... : C#3 00 . ... ... ... : B-# 00 B ... ... ... : C-1 05 . ... ... ... : B-2 04 7 I02 J8C ...
ROW 88 : G#1 01 . ... ... ... : ... .. . ... ... ... : ... .. . ... ... ... : 9-# 00 7 ... ... ... : ... .. . ... ... ... : ... .. 6 ... ... ...
ROW 89 : ... .. . ... ... ... : ... .. . ... ... ... : ... .. . ... ... ... : A-# 00 4 ... ... ... : ... .. . ... ... ... : ... .. 5 ... ... ...
ROW 8A : ... .. . ... ... ... : ... .. . ... ... ... : ... .. . ... ... ... : ... .. . ... ... ... : ... .. . ... ... ... : ... .. . ... ... ...
ROW 8B : ... .. 4 ... ... ... : ... .. . ... ... ... : ... .. . ... ... ... : ... .. . ... ... ... : ... .. . ... ... ... : ... .. 4 ... ... ...
ROW 8C : ... .. . ... ... ... : ... .. . ... ... ... : --- .. . ... ... ... : ... .. 2 ... ... ... : ... .. . ... ... ... : ... .. 2 ... ... ...
ROW 8D : G#1 02 9 ... ... ... : A-4 00 . P80 ... ... : C#3 00 . ... ... ... : ... .. . ... ... ... : C#1 05 . ... ... ... : ... .. 7 ... ... ...
ROW 8E : G#1 01 . ... ... ... : ... .. . P82 ... ... : ... .. . ... ... ... : ... .. 1 ... ... ... : ... .. . ... ... ... : ... .. 6 ... ... ...
ROW 8F : ... .. . ... ... ... : ... .. . P7F ... ... : ... .. . ... ... ... : ... .. . ... ... ... : ... .. . ... ... ... : ... .. 5 ... ... ...
ROW 90 : ... .. . ... ... ... : G#4 00 . P81 ... ... : ... .. . ... ... ... : ... .. 3 ... ... ... : ... .. . ... ... ... : ... .. . ... ... ...
ROW 91 : ... .. 4 ... ... ... : G-4 00 . P82 ... ... : ... .. . ... ... ... : ... .. 1 ... ... ... : ... .. . ... ... ... : ... .. 4 ... ... ...
ROW 92 : ... .. . ... ... ... : ... .. . P80 ... ... : --- .. . ... ... ... : ... .. . ... ... ... : ... .. . ... ... ... : ... .. 2 ... ... ...
ROW 93 : ... .. . ... ... ... : ... .. . P83 ... ... : ... .. . ... ... ... : ... .. . ... ... ... : ... .. . ... ... ... : ... .. . ... ... ...
ROW 94 : C#3 02 9 ... ... ... : G#4 00 . P81 ... ... : C#3 00 . ... ... ... : 9-# 00 B ... ... ... : D-1 05 . ... ... ... : G-3 04 7 I05 J64 ...
ROW 95 : C#3 01 . ... ... ... : A-4 00 . P80 ... ... : ... .. . ... ... ... : 5-# 00 8 ... ... ... : ... .. . ... ... ... : ... .. 6 ... ... ...
ROW 96 : ... .. . ... ... ... : ... .. . P82 ... ... : ... .. . ... ... ... : 8-# 00 A ... ... ... : ... .. . ... ... ... : ... .. 5 ... ... ...
ROW 97 : D-3 01 . P75 ... ... : ... .. . P7F ... ... : ... .. . ... ... ... : A-# 00 8 ... ... ... : ... .. . ... ... ... : ... .. . ... ... ...
ROW 98 : C#3 01 . P86 ... ... : G#4 00 . P81 ... ... : ... .. . ... ... ... : B-# 00 . ... ... ... : ... .. . ... ... ... : ... .. . ... ... ...
ROW 99 : ... .. . P7A ... ... : G-4 00 . P82 ... ... : ... .. . ... ... ... : C-# 00 . ... ... ... : ... .. . ... ... ... : ... .. 4 ... ... ...
ROW 9A : ... .. . P77 ... ... : ... .. . P80 ... ... : ... .. . ... ... ... : ... .. . ... ... ... : ... .. . ... ... ... : ... .. . ... ... ...
ROW 9B : ... .. . P82 ... ... : ... .. . P83 ... ... : ... .. . ... ... ... : ... .. 7 ... ... ... : ... .. . ... ... ... : ... .. . ... ... ...
ROW 9C : D-3 01 . P75 ... ... : G#4 00 . P81 ... ... : ... .. . ... ... ... : ... .. . ... ... ... : ... .. . ... ... ... : ... .. . ... ... ...
ROW 9D : C#3 01 . P85 ... ... : A-4 00 . P80 ... ... : ... .. . ... ... ... : ... .. 4 ... ... ... : ... .. . ... ... ... : ... .. . ... ... ...
ROW 9E : ... .. . P79 ... ... : ... .. . P82 ... ... : ... .. . ... ... ... : ... .. . ... ... ... : ... .. . ... ... ... : ... .. . ... ... ...
ROW 9F : ... .. 4 P78 ... ... : ... .. . P7F ... ... : --- .. . ... ... ... : ... .. . ... ... ... : ... .. . ... ... ... : ... .. 2 ... ... ...
ROW A0 : ... .. . P83 ... ... : G#4 00 . P81 ... ... : ... .. . ... ... ... : ... .. . ... ... ... : ... .. . ... ... ... : ... .. . ... ... ...
ROW A1 : G#1 02 9 P81 ... ... : G-4 00 . P82 ... ... : C#3 00 . ... ... ... : B-# 00 B ... ... ... : C-1 05 . ... ... ... : B-2 04 7 I02 J8C ...
ROW A2 : G#1 01 . ... ... ... : ... .. . P80 ... ... : ... .. . ... ... ... : 9-# 00 7 ... ... ... : ... .. . ... ... ... : ... .. 6 ... ... ...
ROW A3 : ... .. . ... ... ... : ... .. . P83 ... ... : ... .. . ... ... ... : A-# 00 4 ... ... ... : ... .. . ... ... ... : ... .. 5 ... ... ...
ROW A4 : ... .. . ... ... ... : G#4 00 . P81 ... ... : ... .. . ... ... ... : ... .. . ... ... ... : ... .. . ... ... ... : ... .. . ... ... ...
ROW A5 : ... .. 4 ... ... ... : A-4 00 . P80 ... ... : ... .. . ... ... ... : ... .. . ... ... ... : ... .. . ... ... ... : ... .. 4 ... ... ...
ROW A6 : ... .. . ... ... ... : ... .. . P82 ... ... : --- .. . ... ... ... : ... .. 2 ... ... ... : ... .. . ... ... ... : ... .. 2 ... ... ...
ROW A7 : G#1 02 9 ... ... ... : ... .. . P7F ... ... : C#3 00 . ... ... ... : ... .. . ... ... ... : C#1 05 . ... ... ... : ... .. 7 ... ... ...
ROW A8 : G#1 01 . ... ... ... : G#4 00 . P81 ... ... : ... .. . ... ... ... : ... .. 1 ... ... ... : ... .. . ... ... ... : ... .. 6 ... ... ...
ROW A9 : ... .. . ... ... ... : G-4 00 . P82 ... ... : ... .. . ... ... ... : ... .. . ... ... ... : ... .. . ... ... ... : ... .. 5 ... ... ...
ROW AA : ... .. . ... ... ... : ... .. . P80 ... ... : ... .. . ... ... ... : ... .. 3 ... ... ... : ... .. . ... ... ... : ... .. . ... ... ...
ROW AB : ... .. 4 ... ... ... : ... .. . P83 ... ... : ... .. . ... ... ... : ... .. 1 ... ... ... : ... .. . ... ... ... : ... .. 4 ... ... ...
ROW AC : ... .. . ... ... ... : G#4 00 . P81 ... ... : --- .. . ... ... ... : ... .. . ... ... ... : ... .. . ... ... ... : ... .. 2 ... ... ...
ROW AD : ... .. . ... ... ... : A-4 00 . P80 ... ... : ... .. . ... ... ... : ... .. . ... ... ... : ... .. . ... ... ... : ... .. . ... ... ...
ROW AE : B-2 02 9 ... ... ... : G-4 01 A P81 ... ... : C#3 00 . ... ... ... : 8-# 00 B ... ... ... : D-1 05 . ... ... ... : F#3 04 7 I05 J16 ...
ROW AF : B-2 01 . ... ... ... : G-4 02 . ... ... ... : ... .. . ... ... ... : 4-# 00 8 ... ... ... : ... .. . ... ... ... : ... .. 6 ... ... ...
ROW B0 : ... .. . ... ... ... : F#4 01 . ... ... ... : ... .. . ... ... ... : 7-# 00 A ... ... ... : ... .. . ... ... ... : ... .. 5 ... ... ...
ROW B1 : ... .. . P8C ... ... : F-4 02 . ... ... ... : ... .. . ... ... ... : 9-# 00 8 ... ... ... : ... .. . ... ... ... : ... .. . ... ... ...
ROW B2 : ... .. . P86 ... ... : F-4 01 . ... ... ... : ... .. . ... ... ... : A-# 00 . ... ... ... : ... .. . ... ... ... : ... .. . ... ... ...
ROW B3 : ... .. . P7A ... ... : E-4 02 . ... ... ... : ... .. . ... ... ... : B-# 00 . ... ... ... : ... .. . ... ... ... : ... .. 4 ... ... ...
ROW B4 : ... .. . P77 ... ... : D#4 01 . ... ... ... : ... .. . ... ... ... : ... .. . ... ... ... : ... .. . ... ... ... : ... .. . ... ... ...
ROW B5 : ... .. . P82 ... ... : D#4 02 . ... ... ... : ... .. . ... ... ... : ... .. 7 ... ... ... : ... .. . ... ... ... : ... .. . ... ... ...
ROW B6 : ... .. . P8C ... ... : D-4 01 . ... ... ... : ... .. . ... ... ... : ... .. . ... ... ... : ... .. . ... ... ... : ... .. . ... ... ...
ROW B7 : ... .. . P85 ... ... : C#4 02 . ... ... ... : ... .. . ... ... ... : ... .. 4 ... ... ... : ... .. . ... ... ... : ... .. . ... ... ...
ROW B8 : ... .. . P79 ... ... : C#4 01 . ... ... ... : ... .. . ... ... ... : ... .. . ... ... ... : ... .. . ... ... ... : ... .. . ... ... ...
ROW B9 : ... .. 4 P78 ... ... : C-4 02 . ... ... ... : --- .. . ... ... ... : ... .. . ... ... ... : ... .. . ... ... ... : ... .. 2 ... ... ...
ROW BA : ... .. . P83 ... ... : B-3 01 . ... ... ... : ... .. . ... ... ... : ... .. . ... ... ... : ... .. . ... ... ... : ... .. . ... ... ...
ROW BB : G#1 02 9 P81 ... ... : B-3 02 . ... ... ... : C#3 00 . ... ... ... : ... .. B ... ... ... : C-1 05 . ... ... ... : B-2 04 7 I02 J8C ...
ROW BC : G#1 01 . ... ... ... : A#3 01 . ... ... ... : ... .. . ... ... ... : 9-# 00 7 ... ... ... : ... .. . ... ... ... : ... .. 6 ... ... ...
ROW BD : ... .. . ... ... ... : A-3 02 . ... ... ... : ... .. . ... ... ... : A-# 00 4 ... ... ... : ... .. . ... ... ... : ... .. 5 ... ... ...
ROW BE : ... .. . ... ... ... : A-3 01 . ... ... ... : ... .. . ... ... ... : ... .. . ... ... ... : ... .. . ... ... ... : ... .. . ... ... ...
ROW BF : ... .. 4 ... ... ... : G#3 02 . ... ... ... : ... .. . ... ... ... : ... .. . ... ... ... : ... .. . ... ... ... : ... .. 4 ... ... ...
ROW C0 : ... .. . ... ... ... : G-3 01 . ... ... ... : --- .. . ... ... ... : ... .. 2 ... ... ... : ... .. . ... ... ... : ... .. 2 ... ... ...
ROW C1 : G#1 02 9 ... ... ... : G-3 02 . ... ... ... : C#3 00 . ... ... ... : ... .. . ... ... ... : C#1 05 . ... ... ... : ... .. 7 ... ... ...
ROW C2 : G#1 01 . ... ... ... : F#3 01 . ... ... ... : ... .. . ... ... ... : ... .. 1 ... ... ... : ... .. . ... ... ... : ... .. 6 ... ... ...
ROW C3 : ... .. . ... ... ... : F-3 02 . ... ... ... : ... .. . ... ... ... : ... .. . ... ... ... : ... .. . ... ... ... : ... .. 5 ... ... ...
ROW C4 : ... .. . ... ... ... : F-3 01 . ... ... ... : ... .. . ... ... ... : ... .. 3 ... ... ... : ... .. . ... ... ... : ... .. . ... ... ...
ROW C5 : ... .. 4 ... ... ... : E-3 02 . ... ... ... : ... .. . ... ... ... : ... .. 1 ... ... ... : ... .. . ... ... ... : ... .. 4 ... ... ...
ROW C6 : ... .. . ... ... ... : D#3 01 . ... ... ... : --- .. . ... ... ... : ... .. . ... ... ... : ... .. . ... ... ... : ... .. 2 ... ... ...
ROW C7 : ... .. . ... ... ... : D#3 02 . ... ... ... : ... .. . ... ... ... : ... .. . ... ... ... : ... .. . ... ... ... : ... .. . ... ... ...
ROW C8 : E-1 00 9 P7C ... ... : E-4 01 D P84 ... ... : A-2 00 . ... ... ... : 8-# 00 C ... ... ... : C-1 05 . ... ... ... : C#3 04 6 I03 JCC ...
ROW C9 : E-1 03 . ... ... ... : F-4 02 . P7D ... ... : ... .. . ... ... ... : 4-# 00 8 ... ... ... : ... .. . ... ... ... : ... .. 5 ... ... ...
ROW CA : E-1 02 . ... ... ... : F-4 00 . P80 ... ... : ... .. . ... ... ... : 7-# 00 B ... ... ... : ... .. . ... ... ... : ... .. . ... ... ...
ROW CB : E-1 01 . ... ... ... : ... .. . P83 ... ... : ... .. . ... ... ... : 9-# 00 8 ... ... ... : ... .. . ... ... ... : D-3 04 4 I04 J08 ...
ROW CC : ... .. . ... ... ... : F#4 00 . P7D ... ... : ... .. . ... ... ... : A-# 00 9 ... ... ... : ... .. . ... ... ... : ... .. . ... ... ...
ROW CD : ... .. . ... ... ... : ... .. . P80 ... ... : ... .. . ... ... ... : B-# 00 8 ... ... ... : ... .. . ... ... ... : ... .. . ... ... ...
ROW CE : ... .. . ... ... ... : ... .. . P81 ... ... : ... .. . ... ... ... : ... .. . ... ... ... : ... .. . ... ... ... : ... .. . ... ... ...
ROW CF : ... .. . ... ... ... : ... .. . ... ... ... : ... .. . ... ... ... : ... .. . ... ... ... : ... .. . ... ... ... : ... .. . ... ... ...
ROW D0 : ... .. . ... ... ... : ... .. . ... ... ... : ... .. . ... ... ... : ... .. . ... ... ... : ... .. . ... ... ... : ... .. . ... ... ...
ROW D1 : ... .. . ... ... ... : ... .. . ... ... ... : ... .. . ... ... ... : ... .. 7 ... ... ... : ... .. . ... ... ... : ... .. . ... ... ...
ROW D2 : ... .. . ... ... ... : ... .. . ... ... ... : ... .. . ... ... ... : ... .. . ... ... ... : ... .. . ... ... ... : ... .. . ... ... ...
ROW D3 : ... .. . ... ... ... : ... .. . ... ... ... : ... .. . ... ... ... : ... .. . ... ... ... : ... .. . ... ... ... : ... .. . ... ... ...
ROW D4 : ... .. . ... ... ... : ... .. . ... ... ... : ... .. . ... ... ... : ... .. . ... ... ... : ... .. . ... ... ... : ... .. . ... ... ...
ROW D5 : ... .. . ... ... ... : E-4 01 . ... ... ... : ... .. . ... ... ... : ... .. 6 ... ... ... : ... .. . ... ... ... : ... .. . ... ... ...
ROW D6 : ... .. . ... ... ... : E-4 02 . ... ... ... : ... .. . ... ... ... : ... .. . ... ... ... : ... .. . ... ... ... : ... .. . ... ... ...
ROW D7 : ... .. . ... ... ... : E-4 00 . ... ... ... : ... .. . ... ... ... : ... .. . ... ... ... : ... .. . ... ... ... : ... .. . ... ... ...
ROW D8 : ... .. . ... ... ... : ... .. . ... ... ... : ... .. . ... ... ... : ... .. . ... ... ... : ... .. . ... ... ... : ... .. . ... ... ...
ROW D9 : ... .. . ... ... ... : ... .. . ... ... ... : ... .. . ... ... ... : ... .. . ... ... ... : ... .. . ... ... ... : ... .. . ... ... ...
ROW DA : ... .. . ... ... ... : ... .. . ... ... ... : ... .. . ... ... ... : ... .. 5 ... ... ... : ... .. . ... ... ... : ... .. . ... ... ...
ROW DB : ... .. . ... ... ... : ... .. . ... ... ... : ... .. . ... ... ... : ... .. . ... ... ... : ... .. . ... ... ... : ... .. . ... ... ...
ROW DC : ... .. . ... ... ... : ... .. . ... ... ... : ... .. . ... ... ... : ... .. . ... ... ... : ... .. . ... ... ... : ... .. . ... ... ...
ROW DD : ... .. . ... ... ... : F#5 02 7 ... ... ... : ... .. . ... ... ... : ... .. . ... ... ... : ... .. . ... ... ... : ... .. . ... ... ...
ROW DE : ... .. . ... ... ... : ... .. . ... ... ... : ... .. . ... ... ... : ... .. . ... ... ... : ... .. . ... ... ... : ... .. . ... ... ...
ROW DF : ... .. . ... ... ... : ... .. . ... ... ... : ... .. . ... ... ... : ... .. 4 ... ... ... : ... .. . ... ... ... : ... .. . ... ... ...
ROW E0 : ... .. . ... ... ... : ... .. . ... ... ... : ... .. . ... ... ... : ... .. . ... ... ... : ... .. . ... ... ... : ... .. . ... ... ...
ROW E1 : ... .. . ... ... ... : ... .. . ... ... ... : ... .. . ... ... ... : ... .. . ... ... ... : ... .. . ... ... ... : ... .. . ... ... ...
ROW E2 : ... .. . ... ... ... : D#4 01 D ... ... ... : ... .. . ... ... ... : ... .. B ... ... ... : D-1 05 . ... ... ... : ... .. . ... ... ...
ROW E3 : ... .. . ... ... ... : D#4 02 . ... ... ... : ... .. . ... ... ... : 9-# 00 7 ... ... ... : ... .. . ... ... ... : ... .. . ... ... ...
ROW E4 : ... .. . ... ... ... : D#4 00 . ... ... ... : ... .. . ... ... ... : A-# 00 4 ... ... ... : ... .. . ... ... ... : ... .. . ... ... ...
ROW E5 : ... .. . ... ... ... : ... .. . ... ... ... : ... .. . ... ... ... : ... .. . ... ... ... : ... .. . ... ... ... : ... .. . ... ... ...
ROW E6 : ... .. . ... ... ... : ... .. . ... ... ... : ... .. . ... ... ... : ... .. . ... ... ... : ... .. . ... ... ... : ... .. . ... ... ...
ROW E7 : ... .. . ... ... ... : ... .. . ... ... ... : ... .. . ... ... ... : ... .. 2 ... ... ... : ... .. . ... ... ... : ... .. . ... ... ...
ROW E8 : ... .. . ... ... ... : ... .. . ... ... ... : ... .. . ... ... ... : ... .. . ... ... ... : ... .. . ... ... ... : ... .. . ... ... ...
ROW E9 : ... .. . ... ... ... : ... .. . ... ... ... : ... .. . ... ... ... : ... .. 1 ... ... ... : ... .. . ... ... ... : ... .. . ... ... ...
ROW EA : ... .. . ... ... ... : E-5 02 7 ... ... ... : ... .. . ... ... ... : ... .. . ... ... ... : ... .. . ... ... ... : ... .. . ... ... ...
ROW EB : ... .. . ... ... ... : ... .. . ... ... ... : ... .. . ... ... ... : ... .. 3 ... ... ... : ... .. . ... ... ... : ... .. . ... ... ...
ROW EC : ... .. . ... ... ... : ... .. . ... ... ... : ... .. . ... ... ... : ... .. 1 ... ... ... : ... .. . ... ... ... : ... .. . ... ... ...
ROW ED : ... .. . ... ... ... : ... .. . ... ... ... : ... .. . ... ... ... : ... .. . ... ... ... : ... .. . ... ... ... : ... .. . ... ... ...
ROW EE : ... .. . ... ... ... : ... .. . ... ... ... : ... .. . ... ... ... : ... .. . ... ... ... : ... .. . ... ... ... : ... .. . ... ... ...
ROW EF : ... .. . ... ... ... : E-4 01 D ... ... ... : ... .. . ... ... ... : C-# 01 9 ... ... ... : ... .. . ... ... ... : ... .. . ... ... ...
ROW F0 : ... .. . ... ... ... : E-4 02 . ... ... ... : ... .. . ... ... ... : D-# 00 6 ... ... ... : ... .. . ... ... ... : ... .. . ... ... ...
ROW F1 : ... .. . ... ... ... : E-4 00 . ... ... ... : ... .. . ... ... ... : ... .. . ... ... ... : ... .. . ... ... ... : ... .. . ... ... ...
ROW F2 : ... .. . ... ... ... : ... .. . ... ... ... : ... .. . ... ... ... : E-# 01 5 ... ... ... : ... .. . ... ... ... : ... .. . ... ... ...
ROW F3 : ... .. . ... ... ... : ... .. . ... ... ... : ... .. . ... ... ... : D-# 01 . ... ... ... : ... .. . ... ... ... : ... .. . ... ... ...
ROW F4 : ... .. . ... ... ... : ... .. . ... ... ... : ... .. . ... ... ... : E-# 00 4 ... ... ... : ... .. . ... ... ... : ... .. . ... ... ...
ROW F5 : ... .. . ... ... ... : ... .. . ... ... ... : ... .. . ... ... ... : ... .. . ... ... ... : C-1 05 . ... ... ... : ... .. . ... ... ...
ROW F6 : ... .. . ... ... ... : ... .. . ... ... ... : ... .. . ... ... ... : ... .. . ... ... ... : ... .. . ... ... ... : ... .. . ... ... ...
ROW F7 : ... .. . ... ... ... : ... .. . ... ... ... : ... .. . ... ... ... : ... .. . ... ... ... : ... .. . ... ... ... : ... .. . ... ... ...
ROW F8 : ... .. . ... ... ... : ... .. . ... ... ... : ... .. . ... ... ... : ... .. . ... ... ... : ... .. . ... ... ... : ... .. . ... ... ...
ROW F9 : ... .. . ... ... ... : ... .. . ... ... ... : ... .. . ... ... ... : ... .. 3 ... ... ... : ... .. . ... ... ... : ... .. . ... ... ...
ROW FA : ... .. . ... ... ... : ... .. . ... ... ... : ... .. . ... ... ... : ... .. . ... ... ... : ... .. . ... ... ... : ... .. . ... ... ...
ROW FB : ... .. . ... ... ... : ... .. . ... ... ... : ... .. . ... ... ... : ... .. . ... ... ... : ... .. . ... ... ... : ... .. . ... ... ...
ROW FC : ... .. . ... ... ... : ... .. . ... ... ... : ... .. . ... ... ... : B-# 00 B ... ... ... : C-1 05 . ... ... ... : ... .. . ... ... ...
ROW FD : ... .. . ... ... ... : ... .. . ... ... ... : ... .. . ... ... ... : 9-# 00 7 ... ... ... : ... .. . ... ... ... : ... .. . ... ... ...
ROW FE : ... .. . ... ... ... : D#5 02 7 ... ... ... : ... .. . ... ... ... : A-# 00 4 ... ... ... : ... .. . ... ... ... : ... .. . ... ... ...
ROW FF : ... .. . ... ... ... : ... .. . ... ... ... : ... .. . ... ... ... : ... .. . ... ... ... : ... .. . ... ... ... : ... .. . ... ... ...

PATTERN 0C
ROW 00 : ... .. . ... ... ... : ... .. . ... ... ... : ... .. . ... ... ... : ... .. . ... ... ... : ... .. . ... ... ... : ... .. . ... ... ...
ROW 01 : ... .. . ... ... ... : ... .. . ... ... ... : ... .. . ... ... ... : ... .. 2 ... ... ... : ... .. . ... ... ... : ... .. . ... ... ...
ROW 02 : ... .. . ... ... ... : ... .. . ... ... ... : ... .. . ... ... ... : ... .. . ... ... ... : ... .. . ... ... ... : ... .. . ... ... ...
ROW 03 : ... .. . ... ... ... : E-5 02 5 ... ... ... : ... .. . ... ... ... : ... .. 1 ... ... ... : ... .. . ... ... ... : ... .. . ... ... ...
ROW 04 : ... .. . ... ... ... : ... .. . ... ... ... : ... .. . ... ... ... : ... .. . ... ... ... : ... .. . ... ... ... : ... .. . ... ... ...
ROW 05 : ... .. . ... ... ... : ... .. . ... ... ... : ... .. . ... ... ... : ... .. 3 ... ... ... : ... .. . ... ... ... : ... .. . ... ... ...
ROW 06 : ... .. . ... ... ... : ... .. . ... ... ... : ... .. . ... ... ... : ... .. 1 ... ... ... : ... .. . ... ... ... : ... .. . ... ... ...
ROW 07 : ... .. . ... ... ... : ... .. . ... ... ... : ... .. . ... ... ... : ... .. . ... ... ... : ... .. . ... ... ... : ... .. . ... ... ...
ROW 08 : ... .. . ... ... ... : ... .. . ... ... ... : ... .. . ... ... ... : ... .. . ... ... ... : ... .. . ... ... ... : ... .. . ... ... ...
ROW 09 : ... .. . ... ... ... : C#4 01 D ... ... ... : ... .. . ... ... ... : C-# 01 9 ... ... ... : C-1 05 . ... ... ... : ... .. . ... ... ...
ROW 0A : ... .. . ... ... ... : C#4 02 . ... ... ... : ... .. . ... ... ... : D-# 00 6 ... ... ... : ... .. . ... ... ... : ... .. . ... ... ...
ROW 0B : ... .. . ... ... ... : C#4 00 . ... ... ... : ... .. . ... ... ... : ... .. . ... ... ... : ... .. . ... ... ... : ... .. . ... ... ...
ROW 0C : ... .. . ... ... ... : ... .. . ... ... ... : ... .. . ... ... ... : E-# 01 5 ... ... ... : ... .. . ... ... ... : ... .. . ... ... ...
ROW 0D : ... .. . ... ... ... : ... .. . ... ... ... : ... .. . ... ... ... : D-# 01 . ... ... ... : ... .. . ... ... ... : ... .. . ... ... ...
ROW 0E : ... .. . ... ... ... : ... .. . ... ... ... : ... .. . ... ... ... : E-# 00 4 ... ... ... : ... .. . ... ... ... : ... .. . ... ... ...
ROW 0F : ... .. . ... ... ... : ... .. . ... ... ... : ... .. . ... ... ... : ... .. . ... ... ... : ... .. . ... ... ... : ... .. . ... ... ...
ROW 10 : ... .. . ... ... ... : ... .. . ... ... ... : ... .. . ... ... ... : ... .. . ... ... ... : ... .. . ... ... ... : ... .. . ... ... ...
ROW 11 : ... .. . ... ... ... : ... .. . ... ... ... : ... .. . ... ... ... : ... .. . ... ... ... : ... .. . ... ... ... : ... .. . ... ... ...
ROW 12 : ... .. . ... ... ... : ... .. . ... ... ... : ... .. . ... ... ... : ... .. . ... ... ... : ... .. . ... ... ... : ... .. . ... ... ...
ROW 13 : ... .. . ... ... ... : ... .. . ... ... ... : ... .. . ... ... ... : ... .. 3 ... ... ... : ... .. . ... ... ... : ... .. . ... ... ...
ROW 14 : ... .. . ... ... ... : ... .. . ... ... ... : ... .. . ... ... ... : ... .. . ... ... ... : ... .. . ... ... ... : ... .. . ... ... ...
ROW 15 : ... .. . ... ... ... : ... .. . ... ... ... : ... .. . ... ... ... : ... .. . ... ... ... : ... .. . ... ... ... : ... .. . ... ... ...
ROW 16 : ... .. . ... ... ... : ... .. . ... ... ... : ... .. . ... ... ... : B-# 00 B ... ... ... : D-1 05 . ... ... ... : ... .. . ... ... ...
ROW 17 : ... .. . ... ... ... : ... .. . ... ... ... : ... .. . ... ... ... : 9-# 00 7 ... ... ... : ... .. . ... ... ... : ... .. . ... ... ...
ROW 18 : ... .. . ... ... ... : E-5 02 7 ... ... ... : ... .. . ... ... ... : A-# 00 4 ... ... ... : ... .. . ... ... ... : ... .. . ... ... ...
ROW 19 : ... .. . ... ... ... : ... .. . ... ... ... : ... .. . ... ... ... : ... .. . ... ... ... : ... .. . ... ... ... : ... .. . ... ... ...
ROW 1A : ... .. . ... ... ... : ... .. . ... ... ... : ... .. . ... ... ... : ... .. . ... ... ... : ... .. . ... ... ... : ... .. . ... ... ...
ROW 1B : ... .. . ... ... ... : ... .. . ... ... ... : ... .. . ... ... ... : ... .. 2 ... ... ... : ... .. . ... ... ... : ... .. . ... ... ...
ROW 1C : ... .. . ... ... ... : ... .. . ... ... ... : ... .. . ... ... ... : ... .. . ... ... ... : ... .. . ... ... ... : ... .. . ... ... ...
ROW 1D : ... .. . ... ... ... : C#5 02 5 ... ... ... : ... .. . ... ... ... : ... .. 1 ... ... ... : ... .. . ... ... ... : ... .. . ... ... ...
ROW 1E : ... .. . ... ... ... : ... .. . ... ... ... : ... .. . ... ... ... : ... .. . ... ... ... : ... .. . ... ... ... : ... .. . ... ... ...
ROW 1F : ... .. . ... ... ... : ... .. . ... ... ... : ... .. . ... ... ... : ... .. 3 ... ... ... : ... .. . ... ... ... : ... .. . ... ... ...
ROW 20 : ... .. . ... ... ... : ... .. . ... ... ... : ... .. . ... ... ... : ... .. 1 ... ... ... : ... .. . ... ... ... : ... .. . ... ... ...
ROW 21 : ... .. . ... ... ... : ... .. . ... ... ... : ... .. . ... ... ... : ... .. . ... ... ... : ... .. . ... ... ... : ... .. . ... ... ...
ROW 22 : ... .. . ... ... ... : ... .. . ... ... ... : ... .. . ... ... ... : ... .. . ... ... ... : ... .. . ... ... ... : ... .. . ... ... ...
ROW 23 : ... .. . ... ... ... : B-4 01 D ... ... ... : ... .. . ... ... ... : C-# 01 9 ... ... ... : ... .. . ... ... ... : ... .. . ... ... ...
ROW 24 : ... .. . ... ... ... : B-4 02 . ... ... ... : ... .. . ... ... ... : D-# 00 6 ... ... ... : ... .. . ... ... ... : ... .. . ... ... ...
ROW 25 : ... .. . ... ... ... : B-4 00 . ... ... ... : ... .. . ... ... ... : ... .. . ... ... ... : ... .. . ... ... ... : ... .. . ... ... ...
ROW 26 : ... .. . ... ... ... : ... .. . ... ... ... : ... .. . ... ... ... : E-# 01 5 ... ... ... : ... .. . ... ... ... : ... .. . ... ... ...
ROW 27 : ... .. . ... ... ... : ... .. . ... ... ... : ... .. . ... ... ... : D-# 01 . ... ... ... : ... .. . ... ... ... : ... .. . ... ... ...
ROW 28 : ... .. 2 ... ... ... : ... .. . ... ... ... : --- .. . ... ... ... : E-# 00 4 ... ... ... : ... .. . ... ... ... : ... .. 1 ... ... ...
ROW 29 : ... .. 5 ... ... ... : C-5 00 . P7E ... ... : ... .. . ... ... ... : ... .. . ... ... ... : ... .. . ... ... ... : ... .. 2 ... ... ...
ROW 2A : ... .. . ... ... ... : ... .. . P81 ... ... : ... .. . ... ... ... : ... .. . ... ... ... : ... .. . ... ... ... : ... .. . ... ... ...
ROW 2B : ... .. . ... ... ... : C#5 00 . P7E ... ... : ... .. . ... ... ... : ... .. . ... ... ... : ... .. . ... ... ... : ... .. . ... ... ...
ROW 2C : ... .. . ... ... ... : ... .. . P81 ... ... : ... .. . ... ... ... : ... .. . ... ... ... : ... .. . ... ... ... : ... .. . ... ... ...
ROW 2D : ... .. . ... ... ... : ... .. . ... ... ... : ... .. . ... ... ... : ... .. 3 ... ... ... : ... .. . ... ... ... : ... .. . ... ... ...
ROW 2E : ... .. . ... ... ... : ... .. . ... ... ... : ... .. . ... ... ... : ... .. . ... ... ... : ... .. . ... ... ... : ... .. 1 ... ... ...
ROW 2F : ... .. 2 ... ... ... : ... .. . ... ... ... : ... .. . ... ... ... : ... .. . ... ... ... : ... .. . ... ... ... : ... .. . ... ... ...
ROW 30 : F#1 00 9 ... ... ... : ... .. . ... ... ... : B-2 00 . ... ... ... : 8-# 00 C ... ... ... : D-1 05 . ... ... ... : D#3 04 6 I04 J44 ...
ROW 31 : F#1 03 . ... ... ... : ... .. . ... ... ... : ... .. . ... ... ... : 4-# 00 8 ... ... ... : ... .. . ... ... ... : ... .. 5 ... ... ...
ROW 32 : F#1 02 . ... ... ... : ... .. . ... ... ... : ... .. . ... ... ... : 7-# 00 B ... ... ... : ... .. . ... ... ... : ... .. . ... ... ...
ROW 33 : F#1 01 . ... ... ... : ... .. . ... ... ... : ... .. . ... ... ... : 9-# 00 8 ... ... ... : ... .. . ... ... ... : E-3 04 4 I04 J86 ...
ROW 34 : ... .. . ... ... ... : ... .. . ... ... ... : ... .. . ... ... ... : A-# 00 9 ... ... ... : ... .. . ... ... ... : ... .. . ... ... ...
ROW 35 : ... .. . ... ... ... : ... .. . ... ... ... : ... .. . ... ... ... : B-# 00 8 ... ... ... : ... .. . ... ... ... : ... .. . ... ... ...
ROW 36 : ... .. . ... ... ... : ... .. . ... ... ... : ... .. . ... ... ... : ... .. . ... ... ... : ... .. . ... ... ... : ... .. . ... ... ...
ROW 37 : ... .. . ... ... ... : ... .. . ... ... ... : ... .. . ... ... ... : ... .. . ... ... ... : ... .. . ... ... ... : ... .. . ... ... ...
ROW 38 : ... .. . ... ... ... : ... .. . ... ... ... : ... .. . ... ... ... : ... .. . ... ... ... : ... .. . ... ... ... : ... .. . ... ... ...
ROW 39 : ... .. . ... ... ... : ... .. . ... ... ... : ... .. . ... ... ... : ... .. 7 ... ... ... : ... .. . ... ... ... : ... .. . ... ... ...
ROW 3A : ... .. . ... ... ... : ... .. . ... ... ... : ... .. . ... ... ... : ... .. . ... ... ... : ... .. . ... ... ... : ... .. . ... ... ...
ROW 3B : ... .. . ... ... ... : ... .. . ... ... ... : ... .. . ... ... ... : ... .. . ... ... ... : ... .. . ... ... ... : ... .. . ... ... ...
ROW 3C : ... .. . ... ... ... : ... .. . ... ... ... : ... .. . ... ... ... : ... .. . ... ... ... : ... .. . ... ... ... : ... .. . ... ... ...
ROW 3D : ... .. . ... ... ... : ... .. . ... ... ... : ... .. . ... ... ... : ... .. 6 ... ... ... : ... .. . ... ... ... : ... .. . ... ... ...
ROW 3E : ... .. . ... ... ... : ... .. . ... ... ... : ... .. . ... ... ... : ... .. . ... ... ... : ... .. . ... ... ... : ... .. . ... ... ...
ROW 3F : ... .. . ... ... ... : ... .. . ... ... ... : ... .. . ... ... ... : ... .. . ... ... ... : ... .. . ... ... ... : ... .. . ... ... ...
ROW 40 : ... .. . ... ... ... : A#4 00 9 P7D ... ... : ... .. . ... ... ... : ... .. . ... ... ... : ... .. . ... ... ... : ... .. . ... ... ...
ROW 41 : ... .. . ... ... ... : G-4 00 . ... ... ... : ... .. . ... ... ... : ... .. . ... ... ... : ... .. . ... ... ... : ... .. . ... ... ...
ROW 42 : ... .. . ... ... ... : E-4 00 . P81 ... ... : ... .. . ... ... ... : ... .. 5 ... ... ... : ... .. . ... ... ... : ... .. . ... ... ...
ROW 43 : ... .. . ... ... ... : D-4 00 . P7E ... ... : ... .. . ... ... ... : ... .. . ... ... ... : ... .. . ... ... ... : ... .. . ... ... ...
ROW 44 : ... .. . ... ... ... : C-4 00 . P7F ... ... : ... .. . ... ... ... : ... .. . ... ... ... : ... .. . ... ... ... : ... .. . ... ... ...
ROW 45 : ... .. . ... ... ... : A#3 00 . P82 ... ... : ... .. . ... ... ... : ... .. . ... ... ... : ... .. . ... ... ... : ... .. . ... ... ...
ROW 46 : ... .. . ... ... ... : A-3 00 . P79 ... ... : ... .. . ... ... ... : ... .. . ... ... ... : ... .. . ... ... ... : ... .. . ... ... ...
ROW 47 : ... .. . ... ... ... : G-3 00 . P81 ... ... : ... .. . ... ... ... : ... .. 4 ... ... ... : ... .. . ... ... ... : ... .. . ... ... ...
ROW 48 : ... .. 2 ... ... ... : F#3 00 . P7B ... ... : --- .. . ... ... ... : ... .. . ... ... ... : ... .. . ... ... ... : ... .. 1 ... ... ...
ROW 49 : ... .. . ... ... ... : E-3 00 . P89 ... ... : ... .. . ... ... ... : ... .. . ... ... ... : ... .. . ... ... ... : ... .. . ... ... ...
ROW 4A : ... .. 5 ... ... ... : C-5 01 7 P7E ... ... : ... .. . ... ... ... : ... .. . ... ... ... : G-1 05 . ... ... ... : ... .. 2 ... ... ...
ROW 4B : ... .. . ... ... ... : C-5 02 . P81 ... ... : ... .. . ... ... ... : ... .. . ... ... ... : ... .. . ... ... ... : ... .. . ... ... ...
ROW 4C : ... .. . ... ... ... : C#5 00 . P7E ... ... : ... .. . ... ... ... : ... .. . ... ... ... : ... .. . ... ... ... : ... .. . ... ... ...
ROW 4D : ... .. . ... ... ... : ... .. . P81 ... ... : ... .. . ... ... ... : ... .. . ... ... ... : G-1 05 . ... ... ... : ... .. . ... ... ...
ROW 4E : ... .. . ... ... ... : ... .. . ... ... ... : ... .. . ... ... ... : ... .. . ... ... ... : ... .. . ... ... ... : ... .. . ... ... ...
ROW 4F : ... .. . ... ... ... : ... .. . ... ... ... : ... .. . ... ... ... : ... .. . ... ... ... : ... .. . ... ... ... : ... .. . ... ... ...
ROW 50 : ... .. . ... ... ... : ... .. . ... ... ... : ... .. . ... ... ... : ... .. . ... ... ... : G-1 05 . ... ... ... : ... .. . ... ... ...
ROW 51 : ... .. . ... ... ... : ... .. . ... ... ... : ... .. . ... ... ... : ... .. . ... ... ... : ... .. . ... ... ... : ... .. . ... ... ...
ROW 52 : ... .. . ... ... ... : ... .. . ... ... ... : ... .. . ... ... ... : ... .. . ... ... ... : ... .. . ... ... ... : ... .. . ... ... ...
ROW 53 : ... .. . ... ... ... : ... .. . ... ... ... : ... .. . ... ... ... : ... .. . ... ... ... : ... .. . ... ... ... : ... .. . ... ... ...
ROW 54 : ... .. . ... ... ... : ... .. . ... ... ... : ... .. . ... ... ... : ... .. 3 ... ... ... : ... .. . ... ... ... : ... .. . ... ... ...
ROW 55 : ... .. . ... ... ... : ... .. . ... ... ... : ... .. . ... ... ... : ... .. . ... ... ... : ... .. . ... ... ... : ... .. . ... ... ...
ROW 56 : ... .. . ... ... ... : ... .. . ... ... ... : ... .. . ... ... ... : ... .. . ... ... ... : ... .. . ... ... ... : ... .. . ... ... ...
ROW 57 : ... .. . ... ... ... : A#4 00 . P7D ... ... : ... .. . ... ... ... : ... .. . ... ... ... : G-1 05 . ... ... ... : ... .. . ... ... ...
ROW 58 : ... .. . ... ... ... : G-4 00 . ... ... ... : ... .. . ... ... ... : ... .. . ... ... ... : ... .. . ... ... ... : ... .. . ... ... ...
ROW 59 : ... .. . ... ... ... : E-4 00 . P81 ... ... : ... .. . ... ... ... : ... .. . ... ... ... : ... .. . ... ... ... : ... .. . ... ... ...
ROW 5A : ... .. . ... ... ... : D-4 00 . P7E ... ... : ... .. . ... ... ... : ... .. . ... ... ... : ... .. . ... ... ... : ... .. . ... ... ...
ROW 5B : ... .. . ... ... ... : C-4 00 . P7F ... ... : ... .. . ... ... ... : ... .. . ... ... ... : ... .. . ... ... ... : ... .. . ... ... ...
ROW 5C : ... .. . ... ... ... : A#3 00 . P82 ... ... : ... .. . ... ... ... : ... .. . ... ... ... : ... .. . ... ... ... : ... .. . ... ... ...
ROW 5D : ... .. . ... ... ... : C-5 01 5 P7E ... ... : ... .. . ... ... ... : ... .. . ... ... ... : G-1 05 . ... ... ... : ... .. . ... ... ...
ROW 5E : ... .. . ... ... ... : C-5 02 . P81 ... ... : ... .. . ... ... ... : ... .. 2 ... ... ... : ... .. . ... ... ... : ... .. . ... ... ...
ROW 5F : ... .. . ... ... ... : C#5 00 . P7E ... ... : ... .. . ... ... ... : ... .. . ... ... ... : ... .. . ... ... ... : ... .. . ... ... ...
ROW 60 : ... .. . ... ... ... : ... .. . P81 ... ... : ... .. . ... ... ... : ... .. . ... ... ... : ... .. . ... ... ... : ... .. . ... ... ...
ROW 61 : ... .. . ... ... ... : ... .. . ... ... ... : ... .. . ... ... ... : ... .. . ... ... ... : ... .. . ... ... ... : ... .. . ... ... ...
ROW 62 : ... .. 1 ... ... ... : ... .. . ... ... ... : ... .. . ... ... ... : ... .. . ... ... ... : ... .. . ... ... ... : --- .. . ... ... ...
ROW 63 : ... .. . ... ... ... : ... .. . ... ... ... : ... .. . ... ... ... : ... .. . ... ... ... : ... .. . ... ... ... : ... .. . ... ... ...
ROW 64 : G-1 00 . ... ... ... : ... .. . ... ... ... : ... .. . ... ... ... : ... .. . ... ... ... : G-1 05 . ... ... ... : B-2 04 . I02 J8C ...
ROW 65 : G-1 03 . ... ... ... : ... .. . ... ... ... : ... .. . ... ... ... : ... .. . ... ... ... : ... .. . ... ... ... : ... .. . ... ... ...
ROW 66 : G-1 02 . ... ... ... : ... .. . ... ... ... : ... .. . ... ... ... : ... .. . ... ... ... : ... .. . ... ... ... : ... .. . ... ... ...
ROW 67 : G-1 01 2 ... ... ... : ... .. . ... ... ... : ... .. . ... ... ... : ... .. . ... ... ... : ... .. . ... ... ... : ... .. . ... ... ...
ROW 68 : ... .. . ... ... ... : ... .. . ... ... ... : ... .. . ... ... ... : ... .. . ... ... ... : ... .. . ... ... ... : ... .. . ... ... ...
ROW 69 : ... .. . ... ... ... : ... .. . ... ... ... : ... .. . ... ... ... : ... .. . ... ... ... : ... .. . ... ... ... : ... .. . ... ... ...
ROW 6A : ... .. . ... ... ... : A#4 00 . P7D ... ... : ... .. . ... ... ... : ... .. . ... ... ... : G-1 05 . ... ... ... : ... .. . ... ... ...
ROW 6B : ... .. 3 ... ... ... : G-4 00 . ... ... ... : ... .. . ... ... ... : ... .. . ... ... ... : ... .. . ... ... ... : ... .. . ... ... ...
ROW 6C : ... .. . ... ... ... : E-4 00 . P81 ... ... : ... .. . ... ... ... : ... .. . ... ... ... : ... .. . ... ... ... : ... .. . ... ... ...
ROW 6D : ... .. . ... ... ... : D-4 00 . P7E ... ... : ... .. . ... ... ... : ... .. 1 ... ... ... : ... .. . ... ... ... : ... .. . ... ... ...
ROW 6E : ... .. . ... ... ... : C-4 00 . P7F ... ... : ... .. . ... ... ... : ... .. . ... ... ... : ... .. . ... ... ... : ... .. . ... ... ...
ROW 6F : ... .. 4 ... ... ... : A#3 00 . P82 ... ... : ... .. . ... ... ... : ... .. . ... ... ... : ... .. . ... ... ... : ... .. . ... ... ...
ROW 70 : ... .. . ... ... ... : A-3 00 . P79 ... ... : ... .. . ... ... ... : ... .. . ... ... ... : ... .. . ... ... ... : ... .. . ... ... ...
ROW 71 : ... .. . ... ... ... : C-5 01 4 P7E ... ... : ... .. . ... ... ... : ... .. . ... ... ... : E-1 05 . ... ... ... : ... .. 3 ... ... ...
ROW 72 : ... .. . ... ... ... : C-5 02 . P81 ... ... : ... .. . ... ... ... : ... .. . ... ... ... : ... .. . ... ... ... : ... .. . ... ... ...
ROW 73 : ... .. 5 ... ... ... : C#5 00 . P7E ... ... : ... .. . ... ... ... : --- .. . ... ... ... : ... .. . ... ... ... : ... .. . ... ... ...
ROW 74 : ... .. . ... ... ... : ... .. . P81 ... ... : ... .. . ... ... ... : ... .. . ... ... ... : ... .. . ... ... ... : ... .. . ... ... ...
ROW 75 : ... .. . ... ... ... : ... .. . ... ... ... : ... .. . ... ... ... : ... .. . ... ... ... : ... .. . ... ... ... : ... .. . ... ... ...
ROW 76 : ... .. . ... ... ... : ... .. . ... ... ... : ... .. . ... ... ... : ... .. . ... ... ... : ... .. . ... ... ... : ... .. . ... ... ...
ROW 77 : ... .. 6 ... ... ... : ... .. . ... ... ... : ... .. . ... ... ... : ... .. . ... ... ... : E-1 05 . ... ... ... : ... .. . ... ... ...
ROW 78 : ... .. . ... ... ... : ... .. . ... ... ... : ... .. . ... ... ... : ... .. . ... ... ... : ... .. . ... ... ... : ... .. . ... ... ...
ROW 79 : ... .. . ... ... ... : ... .. . ... ... ... : ... .. . ... ... ... : ... .. . ... ... ... : ... .. . ... ... ... : ... .. . ... ... ...
ROW 7A : ... .. . ... ... ... : ... .. . ... ... ... : ... .. . ... ... ... : ... .. . ... ... ... : ... .. . ... ... ... : ... .. . ... ... ...
ROW 7B : ... .. 7 ... ... ... : ... .. . ... ... ... : ... .. . ... ... ... : ... .. . ... ... ... : ... .. . ... ... ... : ... .. . ... ... ...
ROW 7C : ... .. . ... ... ... : ... .. . ... ... ... : ... .. . ... ... ... : ... .. . ... ... ... : ... .. . ... ... ... : ... .. . ... ... ...
ROW 7D : ... .. . ... ... ... : ... .. . ... ... ... : ... .. . ... ... ... : ... .. . ... ... ... : ... .. . ... ... ... : ... .. . ... ... ...
ROW 7E : ... .. . ... ... ... : A#4 00 . P7D ... ... : ... .. . ... ... ... : ... .. . ... ... ... : E-1 05 . ... ... ... : ... .. 4 ... ... ...
ROW 7F : ... .. 8 ... ... ... : G-4 00 . ... ... ... : ... .. . ... ... ... : ... .. . ... ... ... : ... .. . ... ... ... : ... .. . ... ... ...
ROW 80 : ... .. . ... ... ... : E-4 00 . P81 ... ... : ... .. . ... ... ... : ... .. . ... ... ... : ... .. . ... ... ... : ... .. . ... ... ...
ROW 81 : ... .. . ... ... ... : D-4 00 . P7E ... ... : ... .. . ... ... ... : ... .. . ... ... ... : ... .. . ... ... ... : ... .. . ... ... ...
ROW 82 : ... .. . ... ... ... : C-4 00 . P7F ... ... : ... .. . ... ... ... : ... .. . ... ... ... : ... .. . ... ... ... : ... .. . ... ... ...
ROW 83 : ... .. 9 ... ... ... : A#3 00 . P82 ... ... : ... .. . ... ... ... : ... .. . ... ... ... : ... .. . ... ... ... : ... .. . ... ... ...
ROW 84 : ... .. . ... ... ... : C-5 01 3 P7E ... ... : ... .. . ... ... ... : ... .. . ... ... ... : F-1 05 . ... ... ... : ... .. . ... ... ...
ROW 85 : ... .. . ... ... ... : C-5 02 . P81 ... ... : ... .. . ... ... ... : ... .. . ... ... ... : ... .. . ... ... ... : ... .. . ... ... ...
ROW 86 : ... .. . ... ... ... : C#5 00 . P7E ... ... : ... .. . ... ... ... : ... .. . ... ... ... : ... .. . ... ... ... : ... .. . ... ... ...
ROW 87 : ... .. A ... ... ... : ... .. . P81 ... ... : ... .. . ... ... ... : ... .. . ... ... ... : ... .. . ... ... ... : ... .. . ... ... ...
ROW 88 : ... .. . ... ... ... : ... .. . ... ... ... : ... .. . ... ... ... : ... .. . ... ... ... : ... .. . ... ... ... : ... .. . ... ... ...
ROW 89 : ... .. . ... ... ... : ... .. . ... ... ... : ... .. . ... ... ... : ... .. . ... ... ... : ... .. . ... ... ... : ... .. . ... ... ...
ROW 8A : ... .. . ... ... ... : ... .. . ... ... ... : ... .. . ... ... ... : ... .. . ... ... ... : ... .. . ... ... ... : ... .. . ... ... ...
ROW 8B : ... .. B ... ... ... : ... .. . ... ... ... : ... .. . ... ... ... : ... .. . ... ... ... : F#1 05 . ... ... ... : ... .. 5 ... ... ...
ROW 8C : ... .. . ... ... ... : ... .. . ... ... ... : ... .. . ... ... ... : ... .. . ... ... ... : ... .. . ... ... ... : ... .. . ... ... ...
ROW 8D : ... .. . ... ... ... : ... .. . ... ... ... : ... .. . ... ... ... : ... .. . ... ... ... : ... .. . ... ... ... : ... .. . ... ... ...
ROW 8E : ... .. . ... ... ... : ... .. . ... ... ... : ... .. . ... ... ... : ... .. . ... ... ... : ... .. . ... ... ... : ... .. . ... ... ...
ROW 8F : ... .. C ... ... ... : ... .. . ... ... ... : ... .. . ... ... ... : ... .. . ... ... ... : ... .. . ... ... ... : ... .. . ... ... ...
ROW 90 : ... .. . ... ... ... : ... .. . ... ... ... : ... .. . ... ... ... : ... .. . ... ... ... : ... .. . ... ... ... : ... .. . ... ... ...
ROW 91 : ... .. . ... ... ... : A#4 00 . P7D ... ... : ... .. . ... ... ... : ... .. . ... ... ... : G#1 05 . ... ... ... : ... .. . ... ... ...
ROW 92 : ... .. . ... ... ... : G-4 00 . ... ... ... : ... .. . ... ... ... : ... .. . ... ... ... : ... .. . ... ... ... : ... .. . ... ... ...
ROW 93 : ... .. D ... ... ... : E-4 00 . P81 ... ... : ... .. . ... ... ... : ... .. . ... ... ... : ... .. . ... ... ... : ... .. . ... ... ...
ROW 94 : ... .. . ... ... ... : D-4 00 . P7E ... ... : ... .. . ... ... ... : ... .. . ... ... ... : ... .. . ... ... ... : ... .. . ... ... ...
ROW 95 : ... .. . ... ... ... : C-4 00 . P7F ... ... : ... .. . ... ... ... : ... .. . ... ... ... : ... .. . ... ... ... : ... .. . ... ... ...
ROW 96 : ... .. . ... ... ... : A#3 00 . P82 ... ... : ... .. . ... ... ... : ... .. . ... ... ... : ... .. . ... ... ... : ... .. . ... ... ...
ROW 97 : ... .. . ... ... ... : A-3 00 . P79 ... ... : ... .. . ... ... ... : ... .. . ... ... ... : ... .. . ... ... ... : ... .. . ... ... ...
ROW 98 : G-1 00 9 P86 ... ... : G-2 01 6 P81 ... ... : G-2 00 . ... ... ... : 9-# 01 E ... ... ... : A-1 05 . ... ... ... : G-2 04 . H00 I00 J00
ROW 99 : G-1 03 . ... ... ... : G-2 02 . ... ... ... : ... .. . ... ... ... : A-# 00 A ... ... ... : ... .. . ... ... ... : ... .. 6 ... ... ...
ROW 9A : G-1 02 . ... ... ... : G-2 00 . ... ... ... : ... .. . ... ... ... : ... .. 9 ... ... ... : ... .. . ... ... ... : ... .. 5 ... ... ...
ROW 9B : G-1 01 . ... ... ... : ... .. . ... ... ... : ... .. . ... ... ... : B-# 01 8 ... ... ... : ... .. . ... ... ... : ... .. . ... ... ...
ROW 9C : ... .. . ... ... ... : ... .. . ... ... ... : ... .. . ... ... ... : A-# 01 . ... ... ... : ... .. . ... ... ... : ... .. . ... ... ...
ROW 9D : ... .. . ... ... ... : ... .. . ... ... ... : ... .. . ... ... ... : B-# 00 7 ... ... ... : ... .. . ... ... ... : ... .. . ... ... ...
ROW 9E : ... .. . ... ... ... : ... .. . ... ... ... : ... .. . ... ... ... : ... .. . ... ... ... : ... .. . ... ... ... : ... .. 4 ... ... ...
ROW 9F : ... .. . ... ... ... : ... .. . ... ... ... : ... .. . ... ... ... : ... .. . ... ... ... : ... .. . ... ... ... : ... .. . ... ... ...
ROW A0 : ... .. . ... ... ... : ... .. . ... ... ... : ... .. . ... ... ... : ... .. 6 ... ... ... : ... .. . ... ... ... : ... .. . ... ... ...
ROW A1 : ... .. . ... ... ... : ... .. . ... ... ... : ... .. . ... ... ... : ... .. . ... ... ... : ... .. . ... ... ... : ... .. . ... ... ...
ROW A2 : ... .. . ... ... ... : ... .. 3 ... ... ... : ... .. . ... ... ... : ... .. 5 ... ... ... : ... .. . ... ... ... : ... .. . ... ... ...
ROW A3 : ... .. . ... ... ... : ... .. 2 ... ... ... : ... .. . ... ... ... : ... .. . ... ... ... : ... .. . ... ... ... : ... .. . ... ... ...
ROW A4 : ... .. . ... ... ... : ... .. . ... ... ... : --- .. . ... ... ... : ... .. . ... ... ... : ... .. . ... ... ... : ... .. 7 ... ... ...
ROW A5 : ... .. . ... ... ... : ... .. . ... ... ... : ... .. . ... ... ... : ... .. . ... ... ... : ... .. . ... ... ... : ... .. 6 ... ... ...
ROW A6 : ... .. . ... ... ... : ... .. . ... ... ... : ... .. . ... ... ... : ... .. . ... ... ... : ... .. . ... ... ... : ... .. 5 ... ... ...
ROW A7 : ... .. . ... ... ... : ... .. 1 ... ... ... : ... .. . ... ... ... : ... .. 4 ... ... ... : ... .. . ... ... ... : ... .. . ... ... ...
ROW A8 : ... .. 4 ... ... ... : ... .. . ... ... ... : ... .. . ... ... ... : ... .. . ... ... ... : ... .. . ... ... ... : ... .. . ... ... ...
ROW A9 : ... .. . ... ... ... : ... .. . ... ... ... : ... .. . ... ... ... : ... .. . ... ... ... : ... .. . ... ... ... : ... .. 4 ... ... ...
ROW AA : ... .. 3 ... ... ... : ... .. . ... ... ... : ... .. . ... ... ... : ... .. . ... ... ... : ... .. . ... ... ... : ... .. . ... ... ...
ROW AB : ... .. . ... ... ... : ... .. . ... ... ... : ... .. . ... ... ... : ... .. . ... ... ... : ... .. . ... ... ... : ... .. . ... ... ...
ROW AC : ... .. . ... ... ... : ... .. . ... ... ... : ... .. . ... ... ... : ... .. . ... ... ... : ... .. . ... ... ... : ... .. . ... ... ...
ROW AD : ... .. 2 ... ... ... : ... .. . ... ... ... : ... .. . ... ... ... : ... .. . ... ... ... : ... .. . ... ... ... : ... .. . ... ... ...
ROW AE : ... .. . ... ... ... : ... .. . ... ... ... : ... .. . ... ... ... : ... .. . ... ... ... : ... .. . ... ... ... : ... .. . ... ... ...
ROW AF : ... .. . ... ... ... : ... .. . ... ... ... : ... .. . ... ... ... : ... .. . ... ... ... : ... .. . ... ... ... : ... .. 2 ... ... ...
ROW B0 : G#1 02 7 ... ... ... : ... .. . ... ... ... : ... .. . ... ... ... : ... .. 3 ... ... ... : ... .. . ... ... ... : G#2 04 7 ... ... ...
ROW B1 : G#1 01 . ... ... ... : ... .. . ... ... ... : ... .. . ... ... ... : ... .. . ... ... ... : ... .. . ... ... ... : ... .. 6 ... ... ...
ROW B2 : ... .. . ... ... ... : ... .. . ... ... ... : ... .. . ... ... ... : ... .. . ... ... ... : ... .. . ... ... ... : ... .. 5 ... ... ...
ROW B3 : ... .. . ... ... ... : --- .. . ... ... ... : ... .. . ... ... ... : ... .. . ... ... ... : ... .. . ... ... ... : ... .. . ... ... ...
ROW B4 : ... .. . ... ... ... : ... .. . ... ... ... : ... .. . ... ... ... : ... .. . ... ... ... : ... .. . ... ... ... : ... .. . ... ... ...
ROW B5 : ... .. . ... ... ... : ... .. . ... ... ... : ... .. . ... ... ... : ... .. . ... ... ... : ... .. . ... ... ... : ... .. . ... ... ...
ROW B6 : ... .. . ... ... ... : ... .. . ... ... ... : ... .. . ... ... ... : ... .. . ... ... ... : ... .. . ... ... ... : ... .. 4 ... ... ...
ROW B7 : ... .. . ... ... ... : ... .. . ... ... ... : ... .. . ... ... ... : ... .. . ... ... ... : ... .. . ... ... ... : ... .. . ... ... ...
ROW B8 : ... .. . ... ... ... : ... .. . ... ... ... : ... .. . ... ... ... : ... .. . ... ... ... : ... .. . ... ... ... : ... .. . ... ... ...
ROW B9 : ... .. . ... ... ... : ... .. . ... ... ... : ... .. . ... ... ... : ... .. . ... ... ... : ... .. . ... ... ... : ... .. . ... ... ...
ROW BA : ... .. 3 ... ... ... : ... .. . ... ... ... : ... .. . ... ... ... : ... .. 2 ... ... ... : ... .. . ... ... ... : ... .. . ... ... ...
ROW BB : ... .. . ... ... ... : ... .. . ... ... ... : ... .. . ... ... ... : ... .. . ... ... ... : ... .. . ... ... ... : ... .. 2 ... ... ...
ROW BC : G-1 02 7 ... ... ... : ... .. . ... ... ... : ... .. . ... ... ... : ... .. . ... ... ... : ... .. . ... ... ... : G-2 04 . ... ... ...
ROW BD : G-1 01 . ... ... ... : ... .. . ... ... ... : ... .. . ... ... ... : ... .. . ... ... ... : ... .. . ... ... ... : ... .. 6 ... ... ...
ROW BE : ... .. . ... ... ... : ... .. . ... ... ... : ... .. . ... ... ... : ... .. . ... ... ... : ... .. . ... ... ... : ... .. 5 ... ... ...
ROW BF : ... .. . ... ... ... : ... .. . ... ... ... : ... .. . ... ... ... : ... .. . ... ... ... : ... .. . ... ... ... : ... .. . ... ... ...
ROW C0 : ... .. . ... ... ... : ... .. . ... ... ... : ... .. . ... ... ... : ... .. . ... ... ... : ... .. . ... ... ... : ... .. . ... ... ...
ROW C1 : ... .. . ... ... ... : ... .. . ... ... ... : ... .. . ... ... ... : ... .. . ... ... ... : ... .. . ... ... ... : ... .. . ... ... ...
ROW C2 : ... .. . ... ... ... : ... .. . ... ... ... : ... .. . ... ... ... : ... .. . ... ... ... : ... .. . ... ... ... : ... .. 4 ... ... ...
ROW C3 : ... .. . ... ... ... : ... .. . ... ... ... : ... .. . ... ... ... : ... .. . ... ... ... : ... .. . ... ... ... : ... .. . ... ... ...
ROW C4 : ... .. . ... ... ... : ... .. . ... ... ... : ... .. . ... ... ... : ... .. . ... ... ... : ... .. . ... ... ... : ... .. . ... ... ...
ROW C5 : ... .. . ... ... ... : ... .. . ... ... ... : ... .. . ... ... ... : ... .. . ... ... ... : ... .. . ... ... ... : ... .. . ... ... ...
ROW C6 : ... .. 3 ... ... ... : ... .. . ... ... ... : ... .. . ... ... ... : ... .. . ... ... ... : ... .. . ... ... ... : ... .. . ... ... ...
ROW C7 : ... .. . ... ... ... : ... .. . ... ... ... : ... .. . ... ... ... : ... .. 1 ... ... ... : ... .. . ... ... ... : ... .. . ... ... ...
ROW C8 : G-1 02 7 ... ... ... : ... .. . ... ... ... : ... .. . ... ... ... : ... .. . ... ... ... : ... .. . ... ... ... : ... .. 7 ... ... ...
ROW C9 : G-1 01 . ... ... ... : ... .. . ... ... ... : ... .. . ... ... ... : ... .. . ... ... ... : ... .. . ... ... ... : ... .. 6 ... ... ...
ROW CA : ... .. . ... ... ... : ... .. . ... ... ... : ... .. . ... ... ... : ... .. . ... ... ... : ... .. . ... ... ... : ... .. 5 ... ... ...
ROW CB : ... .. . ... ... ... : ... .. . ... ... ... : ... .. . ... ... ... : --- .. . ... ... ... : ... .. . ... ... ... : ... .. . ... ... ...
ROW CC : ... .. . ... ... ... : ... .. . ... ... ... : ... .. . ... ... ... : ... .. . ... ... ... : ... .. . ... ... ... : ... .. . ... ... ...
ROW CD : ... .. . ... ... ... : ... .. . ... ... ... : ... .. . ... ... ... : ... .. . ... ... ... : ... .. . ... ... ... : ... .. 4 ... ... ...
ROW CE : ... .. . ... ... ... : ... .. . ... ... ... : ... .. . ... ... ... : ... .. . ... ... ... : ... .. . ... ... ... : ... .. . ... ... ...
ROW CF : ... .. . ... ... ... : ... .. . ... ... ... : ... .. . ... ... ... : ... .. . ... ... ... : ... .. . ... ... ... : ... .. . ... ... ...
ROW D0 : ... .. . ... ... ... : ... .. . ... ... ... : ... .. . ... ... ... : ... .. . ... ... ... : ... .. . ... ... ... : ... .. . ... ... ...
ROW D1 : ... .. . ... ... ... : ... .. . ... ... ... : ... .. . ... ... ... : ... .. . ... ... ... : ... .. . ... ... ... : ... .. . ... ... ...
ROW D2 : ... .. 3 ... ... ... : ... .. . ... ... ... : ... .. . ... ... ... : ... .. . ... ... ... : ... .. . ... ... ... : ... .. . ... ... ...
ROW D3 : ... .. . ... ... ... : ... .. . ... ... ... : ... .. . ... ... ... : ... .. . ... ... ... : ... .. . ... ... ... : ... .. 2 ... ... ...
ROW D4 : A#1 02 7 ... ... ... : ... .. . ... ... ... : ... .. . ... ... ... : ... .. . ... ... ... : ... .. . ... ... ... : A#2 04 7 ... ... ...
ROW D5 : A#1 01 . ... ... ... : ... .. . ... ... ... : ... .. . ... ... ... : ... .. . ... ... ... : ... .. . ... ... ... : ... .. 6 ... ... ...
ROW D6 : ... .. . ... ... ... : ... .. . ... ... ... : ... .. . ... ... ... : ... .. . ... ... ... : ... .. . ... ... ... : ... .. 5 ... ... ...
ROW D7 : ... .. . ... ... ... : ... .. . ... ... ... : ... .. . ... ... ... : ... .. . ... ... ... : ... .. . ... ... ... : ... .. . ... ... ...
ROW D8 : ... .. . ... ... ... : ... .. . ... ... ... : ... .. . ... ... ... : ... .. . ... ... ... : ... .. . ... ... ... : ... .. . ... ... ...
ROW D9 : ... .. . ... ... ... : ... .. . ... ... ... : ... .. . ... ... ... : ... .. . ... ... ... : ... .. . ... ... ... : ... .. 4 ... ... ...
ROW DA : ... .. . ... ... ... : ... .. . ... ... ... : ... .. . ... ... ... : ... .. . ... ... ... : ... .. . ... ... ... : ... .. . ... ... ...
ROW DB : ... .. . ... ... ... : ... .. . ... ... ... : ... .. . ... ... ... : ... .. . ... ... ... : ... .. . ... ... ... : ... .. . ... ... ...
ROW DC : ... .. . ... ... ... : ... .. . ... ... ... : ... .. . ... ... ... : ... .. . ... ... ... : ... .. . ... ... ... : ... .. . ... ... ...
ROW DD : ... .. . ... ... ... : ... .. . ... ... ... : ... .. . ... ... ... : ... .. . ... ... ... : ... .. . ... ... ... : ... .. . ... ... ...
ROW DE : ... .. 3 ... ... ... : ... .. . ... ... ... : ... .. . ... ... ... : ... .. . ... ... ... : ... .. . ... ... ... : ... .. . ... ... ...
ROW DF : ... .. . ... ... ... : ... .. . ... ... ... : ... .. . ... ... ... : ... .. . ... ... ... : ... .. . ... ... ... : ... .. 2 ... ... ...
ROW E0 : G-1 02 7 ... ... ... : ... .. . ... ... ... : ... .. . ... ... ... : ... .. . ... ... ... : ... .. . ... ... ... : G-2 04 7 ... ... ...
ROW E1 : G-1 01 . ... ... ... : ... .. . ... ... ... : ... .. . ... ... ... : ... .. . ... ... ... : ... .. . ... ... ... : ... .. . ... ... ...
ROW E2 : ... .. . ... ... ... : ... .. . ... ... ... : ... .. . ... ... ... : ... .. . ... ... ... : ... .. . ... ... ... : ... .. 5 ... ... ...
ROW E3 : ... .. . ... ... ... : ... .. . ... ... ... : ... .. . ... ... ... : ... .. . ... ... ... : ... .. . ... ... ... : ... .. . ... ... ...
ROW E4 : ... .. . ... ... ... : ... .. . ... ... ... : ... .. . ... ... ... : ... .. . ... ... ... : ... .. . ... ... ... : ... .. . ... ... ...
ROW E5 : ... .. . ... ... ... : ... .. . ... ... ... : ... .. . ... ... ... : ... .. . ... ... ... : ... .. . ... ... ... : ... .. 4 ... ... ...
ROW E6 : ... .. . ... ... ... : ... .. . ... ... ... : ... .. . ... ... ... : ... .. . ... ... ... : ... .. . ... ... ... : ... .. . ... ... ...
ROW E7 : ... .. . ... ... ... : ... .. . ... ... ... : ... .. . ... ... ... : ... .. . ... ... ... : ... .. . ... ... ... : ... .. . ... ... ...
ROW E8 : ... .. . ... ... ... : ... .. . ... ... ... : ... .. . ... ... ... : ... .. . ... ... ... : ... .. . ... ... ... : ... .. . ... ... ...
ROW E9 : ... .. . ... ... ... : ... .. . ... ... ... : ... .. . ... ... ... : ... .. . ... ... ... : ... .. . ... ... ... : ... .. . ... ... ...
ROW EA : ... .. 3 ... ... ... : ... .. . ... ... ... : ... .. . ... ... ... : ... .. . ... ... ... : ... .. . ... ... ... : ... .. . ... ... ...
ROW EB : ... .. . ... ... ... : ... .. . ... ... ... : ... .. . ... ... ... : ... .. . ... ... ... : ... .. . ... ... ... : ... .. 2 ... ... ...
ROW EC : G#1 02 7 ... ... ... : ... .. . ... ... ... : ... .. . ... ... ... : ... .. . ... ... ... : ... .. . ... ... ... : G#2 04 . ... ... ...
ROW ED : G#1 01 . ... ... ... : ... .. . ... ... ... : ... .. . ... ... ... : ... .. . ... ... ... : ... .. . ... ... ... : ... .. 7 ... ... ...
ROW EE : ... .. . ... ... ... : ... .. . ... ... ... : ... .. . ... ... ... : ... .. . ... ... ... : ... .. . ... ... ... : ... .. 5 ... ... ...
ROW EF : ... .. . ... ... ... : ... .. . ... ... ... : ... .. . ... ... ... : ... .. . ... ... ... : ... .. . ... ... ... : ... .. . ... ... ...
ROW F0 : ... .. . ... ... ... : ... .. . ... ... ... : ... .. . ... ... ... : ... .. . ... ... ... : ... .. . ... ... ... : ... .. . ... ... ...
ROW F1 : ... .. . ... ... ... : ... .. . ... ... ... : ... .. . ... ... ... : ... .. . ... ... ... : ... .. . ... ... ... : ... .. 4 ... ... ...
ROW F2 : ... .. . ... ... ... : ... .. . ... ... ... : ... .. . ... ... ... : ... .. . ... ... ... : ... .. . ... ... ... : ... .. . ... ... ...
ROW F3 : ... .. . ... ... ... : ... .. . ... ... ... : ... .. . ... ... ... : ... .. . ... ... ... : ... .. . ... ... ... : ... .. . ... ... ...
ROW F4 : ... .. . ... ... ... : ... .. . ... ... ... : ... .. . ... ... ... : ... .. . ... ... ... : ... .. . ... ... ... : ... .. . ... ... ...
ROW F5 : ... .. . ... ... ... : ... .. . ... ... ... : ... .. . ... ... ... : ... .. . ... ... ... : ... .. . ... ... ... : ... .. . ... ... ...
ROW F6 : ... .. 3 ... ... ... : ... .. . ... ... ... : ... .. . ... ... ... : ... .. . ... ... ... : ... .. . ... ... ... : ... .. . ... ... ...
ROW F7 : ... .. . ... ... ... : ... .. . ... ... ... : ... .. . ... ... ... : ... .. . ... ... ... : ... .. . ... ... ... : ... .. 2 ... ... ...
ROW F8 : G-1 02 7 ... ... ... : ... .. . ... ... ... : ... .. . ... ... ... : ... .. . ... ... ... : ... .. . ... ... ... : G-2 04 7 ... ... ...
ROW F9 : G-1 01 . ... ... ... : ... .. . ... ... ... : ... .. . ... ... ... : ... .. . ... ... ... : ... .. . ... ... ... : ... .. 6 ... ... ...
ROW FA : ... .. . ... ... ... : ... .. . ... ... ... : ... .. . ... ... ... : ... .. . ... ... ... : ... .. . ... ... ... : ... .. . ... ... ...
ROW FB : ... .. . ... ... ... : ... .. . ... ... ... : ... .. . ... ... ... : ... .. . ... ... ... : ... .. . ... ... ... : ... .. 5 ... ... ...
ROW FC : ... .. . ... ... ... : ... .. . ... ... ... : ... .. . ... ... ... : ... .. . ... ... ... : ... .. . ... ... ... : ... .. . ... ... ...
ROW FD : ... .. . ... ... ... : ... .. . ... ... ... : ... .. . ... ... ... : ... .. . ... ... ... : ... .. . ... ... ... : ... .. 4 ... ... ...
ROW FE : ... .. . ... ... ... : ... .. . ... ... ... : ... .. . ... ... ... : ... .. . ... ... ... : ... .. . ... ... ... : ... .. . ... ... ...
ROW FF : ... .. . ... ... ... : ... .. . ... ... ... : ... .. . ... ... ... : ... .. . ... ... ... : ... .. . ... ... ... : ... .. . ... ... ...

PATTERN 0D
ROW 00 : ... .. . ... ... ... : ... .. . ... ... ... : ... .. . ... ... ... : ... .. . ... ... ... : ... .. . ... ... ... : ... .. . ... ... ...
ROW 01 : ... .. . ... ... ... : ... .. . ... ... ... : ... .. . ... ... ... : ... .. . ... ... ... : ... .. . ... ... ... : ... .. . ... ... ...
ROW 02 : ... .. 3 ... ... ... : ... .. . ... ... ... : ... .. . ... ... ... : ... .. . ... ... ... : ... .. . ... ... ... : ... .. . ... ... ...
ROW 03 : ... .. . ... ... ... : ... .. . ... ... ... : ... .. . ... ... ... : ... .. . ... ... ... : ... .. . ... ... ... : ... .. 2 ... ... ...
ROW 04 : G-1 02 7 ... ... ... : ... .. . ... ... ... : ... .. . ... ... ... : ... .. . ... ... ... : ... .. . ... ... ... : ... .. 7 ... ... ...
ROW 05 : G-1 01 . ... ... ... : ... .. . ... ... ... : ... .. . ... ... ... : ... .. . ... ... ... : ... .. . ... ... ... : ... .. . ... ... ...
ROW 06 : ... .. . ... ... ... : ... .. . ... ... ... : ... .. . ... ... ... : ... .. . ... ... ... : ... .. . ... ... ... : ... .. 5 ... ... ...
ROW 07 : ... .. . ... ... ... : ... .. . ... ... ... : ... .. . ... ... ... : ... .. . ... ... ... : ... .. . ... ... ... : ... .. . ... ... ...
ROW 08 : ... .. . ... ... ... : ... .. . ... ... ... : ... .. . ... ... ... : ... .. . ... ... ... : ... .. . ... ... ... : ... .. . ... ... ...
ROW 09 : ... .. . ... ... ... : ... .. . ... ... ... : ... .. . ... ... ... : ... .. . ... ... ... : ... .. . ... ... ... : ... .. 4 ... ... ...
ROW 0A : ... .. . ... ... ... : ... .. . ... ... ... : ... .. . ... ... ... : ... .. . ... ... ... : ... .. . ... ... ... : ... .. . ... ... ...
ROW 0B : ... .. . ... ... ... : ... .. . ... ... ... : ... .. . ... ... ... : ... .. . ... ... ... : ... .. . ... ... ... : ... .. . ... ... ...
ROW 0C : ... .. . ... ... ... : ... .. . ... ... ... : ... .. . ... ... ... : ... .. . ... ... ... : ... .. . ... ... ... : ... .. . ... ... ...
ROW 0D : ... .. . ... ... ... : ... .. . ... ... ... : ... .. . ... ... ... : ... .. . ... ... ... : ... .. . ... ... ... : ... .. . ... ... ...
ROW 0E : ... .. 3 ... ... ... : ... .. . ... ... ... : ... .. . ... ... ... : ... .. . ... ... ... : ... .. . ... ... ... : ... .. . ... ... ...
ROW 0F : ... .. . ... ... ... : ... .. . ... ... ... : ... .. . ... ... ... : ... .. . ... ... ... : ... .. . ... ... ... : ... .. 2 ... ... ...
ROW 10 : C-2 02 7 ... ... ... : ... .. . ... ... ... : ... .. . ... ... ... : ... .. . ... ... ... : ... .. . ... ... ... : C-3 04 7 ... ... ...
ROW 11 : C-2 01 . ... ... ... : ... .. . ... ... ... : ... .. . ... ... ... : ... .. . ... ... ... : ... .. . ... ... ... : ... .. 6 ... ... ...
ROW 12 : ... .. . ... ... ... : ... .. . ... ... ... : ... .. . ... ... ... : ... .. . ... ... ... : ... .. . ... ... ... : ... .. 5 ... ... ...
ROW 13 : ... .. . ... ... ... : ... .. . ... ... ... : ... .. . ... ... ... : ... .. . ... ... ... : ... .. . ... ... ... : ... .. . ... ... ...
ROW 14 : ... .. . ... ... ... : ... .. . ... ... ... : ... .. . ... ... ... : ... .. . ... ... ... : ... .. . ... ... ... : ... .. . ... ... ...
ROW 15 : ... .. . ... ... ... : ... .. . ... ... ... : ... .. . ... ... ... : ... .. . ... ... ... : ... .. . ... ... ... : ... .. 4 ... ... ...
ROW 16 : ... .. . ... ... ... : ... .. . ... ... ... : ... .. . ... ... ... : ... .. . ... ... ... : ... .. . ... ... ... : ... .. . ... ... ...
ROW 17 : ... .. . ... ... ... : ... .. . ... ... ... : ... .. . ... ... ... : ... .. . ... ... ... : ... .. . ... ... ... : ... .. . ... ... ...
ROW 18 : ... .. . ... ... ... : ... .. . ... ... ... : ... .. . ... ... ... : ... .. . ... ... ... : ... .. . ... ... ... : ... .. . ... ... ...
ROW 19 : ... .. . ... ... ... : ... .. . ... ... ... : ... .. . ... ... ... : ... .. . ... ... ... : ... .. . ... ... ... : ... .. . ... ... ...
ROW 1A : ... .. 3 ... ... ... : ... .. . ... ... ... : ... .. . ... ... ... : ... .. . ... ... ... : ... .. . ... ... ... : ... .. . ... ... ...
ROW 1B : ... .. . ... ... ... : ... .. . ... ... ... : ... .. . ... ... ... : ... .. . ... ... ... : ... .. . ... ... ... : ... .. 2 ... ... ...
ROW 1C : G-1 02 7 ... ... ... : ... .. . ... ... ... : ... .. . ... ... ... : ... .. . ... ... ... : ... .. . ... ... ... : G-2 04 . ... ... ...
ROW 1D : G-1 01 . ... ... ... : ... .. . ... ... ... : ... .. . ... ... ... : ... .. . ... ... ... : ... .. . ... ... ... : ... .. 6 ... ... ...
ROW 1E : ... .. . ... ... ... : ... .. . ... ... ... : ... .. . ... ... ... : ... .. . ... ... ... : ... .. . ... ... ... : ... .. 5 ... ... ...
ROW 1F : ... .. . ... ... ... : ... .. . ... ... ... : ... .. . ... ... ... : ... .. . ... ... ... : ... .. . ... ... ... : ... .. . ... ... ...
ROW 20 : ... .. . ... ... ... : ... .. . ... ... ... : ... .. . ... ... ... : ... .. . ... ... ... : ... .. . ... ... ... : ... .. . ... ... ...
ROW 21 : ... .. . ... ... ... : ... .. . ... ... ... : ... .. . ... ... ... : ... .. . ... ... ... : ... .. . ... ... ... : ... .. 4 ... ... ...
ROW 22 : ... .. . ... ... ... : ... .. . ... ... ... : ... .. . ... ... ... : ... .. . ... ... ... : ... .. . ... ... ... : ... .. . ... ... ...
ROW 23 : ... .. . ... ... ... : ... .. . ... ... ... : ... .. . ... ... ... : ... .. . ... ... ... : ... .. . ... ... ... : ... .. . ... ... ...
ROW 24 : ... .. . ... ... ... : ... .. . ... ... ... : ... .. . ... ... ... : ... .. . ... ... ... : ... .. . ... ... ... : ... .. . ... ... ...
ROW 25 : ... .. . ... ... ... : ... .. . ... ... ... : ... .. . ... ... ... : ... .. . ... ... ... : ... .. . ... ... ... : ... .. . ... ... ...
ROW 26 : ... .. 3 ... ... ... : ... .. . ... ... ... : ... .. . ... ... ... : ... .. . ... ... ... : ... .. . ... ... ... : ... .. . ... ... ...
ROW 27 : ... .. . ... ... ... : ... .. . ... ... ... : ... .. . ... ... ... : ... .. . ... ... ... : ... .. . ... ... ... : ... .. . ... ... ...
ROW 28 : G-1 02 7 ... ... ... : ... .. . ... ... ... : ... .. . ... ... ... : ... .. . ... ... ... : ... .. . ... ... ... : ... .. 2 ... ... ...
ROW 29 : G-1 01 . ... ... ... : ... .. . ... ... ... : ... .. . ... ... ... : ... .. . ... ... ... : ... .. . ... ... ... : ... .. 6 ... ... ...
ROW 2A : ... .. . ... ... ... : ... .. . ... ... ... : ... .. . ... ... ... : ... .. . ... ... ... : ... .. . ... ... ... : ... .. 5 ... ... ...
ROW 2B : ... .. . ... ... ... : ... .. . ... ... ... : ... .. . ... ... ... : ... .. . ... ... ... : ... .. . ... ... ... : ... .. . ... ... ...
ROW 2C : ... .. . ... ... ... : ... .. . ... ... ... : ... .. . ... ... ... : ... .. . ... ... ... : ... .. . ... ... ... : ... .. . ... ... ...
ROW 2D : ... .. . ... ... ... : ... .. . ... ... ... : ... .. . ... ... ... : ... .. . ... ... ... : ... .. . ... ... ... : ... .. . ... ... ...
ROW 2E : ... .. . ... ... ... : ... .. . ... ... ... : ... .. . ... ... ... : ... .. . ... ... ... : ... .. . ... ... ... : ... .. 4 ... ... ...
ROW 2F : ... .. . ... ... ... : ... .. . ... ... ... : ... .. . ... ... ... : ... .. . ... ... ... : ... .. . ... ... ... : ... .. . ... ... ...
ROW 30 : ... .. . ... ... ... : ... .. . ... ... ... : ... .. . ... ... ... : ... .. . ... ... ... : ... .. . ... ... ... : ... .. . ... ... ...
ROW 31 : ... .. . ... ... ... : ... .. . ... ... ... : ... .. . ... ... ... : ... .. . ... ... ... : ... .. . ... ... ... : ... .. . ... ... ...
ROW 32 : ... .. 3 ... ... ... : ... .. . ... ... ... : ... .. . ... ... ... : ... .. . ... ... ... : ... .. . ... ... ... : ... .. . ... ... ...
ROW 33 : ... .. . ... ... ... : ... .. . ... ... ... : ... .. . ... ... ... : ... .. . ... ... ... : ... .. . ... ... ... : ... .. 2 ... ... ...
ROW 34 : D-2 02 7 ... ... ... : ... .. . ... ... ... : ... .. . ... ... ... : ... .. . ... ... ... : ... .. . ... ... ... : D-3 04 7 ... ... ...
ROW 35 : D-2 01 . ... ... ... : ... .. . ... ... ... : ... .. . ... ... ... : ... .. . ... ... ... : ... .. . ... ... ... : ... .. 6 ... ... ...
ROW 36 : ... .. . ... ... ... : ... .. . ... ... ... : ... .. . ... ... ... : ... .. . ... ... ... : ... .. . ... ... ... : ... .. 5 ... ... ...
ROW 37 : ... .. . ... ... ... : ... .. . ... ... ... : ... .. . ... ... ... : ... .. . ... ... ... : ... .. . ... ... ... : ... .. . ... ... ...
ROW 38 : ... .. . ... ... ... : ... .. . ... ... ... : ... .. . ... ... ... : ... .. . ... ... ... : ... .. . ... ... ... : ... .. . ... ... ...
ROW 39 : ... .. . ... ... ... : ... .. . ... ... ... : ... .. . ... ... ... : ... .. . ... ... ... : ... .. . ... ... ... : ... .. 4 ... ... ...
ROW 3A : ... .. . ... ... ... : ... .. . ... ... ... : ... .. . ... ... ... : ... .. . ... ... ... : ... .. . ... ... ... : ... .. . ... ... ...
ROW 3B : ... .. . ... ... ... : ... .. . ... ... ... : ... .. . ... ... ... : ... .. . ... ... ... : ... .. . ... ... ... : ... .. . ... ... ...
ROW 3C : ... .. . ... ... ... : ... .. . ... ... ... : ... .. . ... ... ... : ... .. . ... ... ... : ... .. . ... ... ... : ... .. . ... ... ...
ROW 3D : ... .. . ... ... ... : ... .. . ... ... ... : ... .. . ... ... ... : ... .. . ... ... ... : ... .. . ... ... ... : ... .. . ... ... ...
ROW 3E : ... .. 3 ... ... ... : ... .. . ... ... ... : ... .. . ... ... ... : ... .. . ... ... ... : ... .. . ... ... ... : ... .. . ... ... ...
ROW 3F : ... .. . ... ... ... : ... .. . ... ... ... : ... .. . ... ... ... : ... .. . ... ... ... : ... .. . ... ... ... : ... .. 2 ... ... ...
ROW 40 : G-1 02 7 ... ... ... : ... .. . ... ... ... : ... .. . ... ... ... : ... .. . ... ... ... : ... .. . ... ... ... : G-2 04 7 ... ... ...
ROW 41 : G-1 01 . ... ... ... : ... .. . ... ... ... : ... .. . ... ... ... : ... .. . ... ... ... : ... .. . ... ... ... : ... .. 6 ... ... ...
ROW 42 : ... .. . ... ... ... : ... .. . ... ... ... : ... .. . ... ... ... : ... .. . ... ... ... : ... .. . ... ... ... : ... .. . ... ... ...
ROW 43 : ... .. . ... ... ... : ... .. . ... ... ... : ... .. . ... ... ... : ... .. . ... ... ... : ... .. . ... ... ... : ... .. 5 ... ... ...
ROW 44 : ... .. . ... ... ... : ... .. . ... ... ... : ... .. . ... ... ... : ... .. . ... ... ... : ... .. . ... ... ... : ... .. . ... ... ...
ROW 45 : ... .. . ... ... ... : ... .. . ... ... ... : ... .. . ... ... ... : ... .. . ... ... ... : ... .. . ... ... ... : ... .. 4 ... ... ...
ROW 46 : ... .. . ... ... ... : ... .. . ... ... ... : ... .. . ... ... ... : ... .. . ... ... ... : ... .. . ... ... ... : ... .. . ... ... ...
ROW 47 : ... .. . ... ... ... : ... .. . ... ... ... : ... .. . ... ... ... : ... .. . ... ... ... : ... .. . ... ... ... : ... .. . ... ... ...
ROW 48 : ... .. . ... ... ... : ... .. . ... ... ... : ... .. . ... ... ... : ... .. . ... ... ... : ... .. . ... ... ... : ... .. . ... ... ...
ROW 49 : ... .. . ... ... ... : ... .. . ... ... ... : ... .. . ... ... ... : ... .. . ... ... ... : ... .. . ... ... ... : ... .. . ... ... ...
ROW 4A : ... .. 3 ... ... ... : ... .. . ... ... ... : ... .. . ... ... ... : ... .. . ... ... ... : ... .. . ... ... ... : ... .. . ... ... ...
ROW 4B : ... .. . ... ... ... : ... .. . ... ... ... : ... .. . ... ... ... : ... .. . ... ... ... : ... .. . ... ... ... : ... .. 2 ... ... ...
ROW 4C : C#2 02 7 ... ... ... : ... .. . ... ... ... : ... .. . ... ... ... : ... .. . ... ... ... : ... .. . ... ... ... : C#3 04 7 ... ... ...
ROW 4D : C#2 01 . ... ... ... : ... .. . ... ... ... : ... .. . ... ... ... : ... .. . ... ... ... : ... .. . ... ... ... : ... .. 6 ... ... ...
ROW 4E : ... .. . ... ... ... : ... .. . ... ... ... : ... .. . ... ... ... : ... .. . ... ... ... : ... .. . ... ... ... : ... .. 5 ... ... ...
ROW 4F : ... .. . ... ... ... : ... .. . ... ... ... : ... .. . ... ... ... : ... .. . ... ... ... : ... .. . ... ... ... : ... .. . ... ... ...
ROW 50 : ... .. . ... ... ... : ... .. . ... ... ... : ... .. . ... ... ... : ... .. . ... ... ... : ... .. . ... ... ... : ... .. . ... ... ...
ROW 51 : ... .. . ... ... ... : ... .. . ... ... ... : ... .. . ... ... ... : ... .. . ... ... ... : ... .. . ... ... ... : ... .. 4 ... ... ...
ROW 52 : ... .. . ... ... ... : ... .. . ... ... ... : ... .. . ... ... ... : ... .. . ... ... ... : ... .. . ... ... ... : ... .. . ... ... ...
ROW 53 : ... .. . ... ... ... : ... .. . ... ... ... : ... .. . ... ... ... : ... .. . ... ... ... : ... .. . ... ... ... : ... .. . ... ... ...
ROW 54 : ... .. . ... ... ... : ... .. . ... ... ... : ... .. . ... ... ... : ... .. . ... ... ... : ... .. . ... ... ... : ... .. . ... ... ...
ROW 55 : ... .. . ... ... ... : ... .. . ... ... ... : ... .. . ... ... ... : ... .. . ... ... ... : ... .. . ... ... ... : ... .. . ... ... ...
ROW 56 : ... .. 3 ... ... ... : ... .. . ... ... ... : ... .. . ... ... ... : ... .. . ... ... ... : ... .. . ... ... ... : ... .. . ... ... ...
ROW 57 : ... .. . ... ... ... : ... .. . ... ... ... : ... .. . ... ... ... : ... .. . ... ... ... : ... .. . ... ... ... : ... .. 2 ... ... ...
ROW 58 : G-1 00 9 ... ... ... : G-2 01 6 ... ... ... : G-2 00 . ... ... ... : 9-# 01 B ... ... ... : A-1 05 . ... ... ... : G-2 04 . ... ... ...
ROW 59 : G-1 03 . ... ... ... : G-2 02 . ... ... ... : ... .. . ... ... ... : A-# 00 8 ... ... ... : ... .. . ... ... ... : ... .. 6 ... ... ...
ROW 5A : G-1 02 . ... ... ... : G-2 00 . ... ... ... : ... .. . ... ... ... : ... .. 7 ... ... ... : ... .. . ... ... ... : ... .. 5 ... ... ...
ROW 5B : G-1 01 . ... ... ... : ... .. . ... ... ... : ... .. . ... ... ... : B-# 01 6 ... ... ... : ... .. . ... ... ... : ... .. . ... ... ...
ROW 5C : ... .. . ... ... ... : ... .. . ... ... ... : ... .. . ... ... ... : A-# 01 . ... ... ... : ... .. . ... ... ... : ... .. . ... ... ...
ROW 5D : ... .. . ... ... ... : ... .. . ... ... ... : ... .. . ... ... ... : B-# 00 5 ... ... ... : ... .. . ... ... ... : ... .. . ... ... ...
ROW 5E : ... .. . ... ... ... : ... .. . ... ... ... : ... .. . ... ... ... : ... .. . ... ... ... : ... .. . ... ... ... : ... .. 4 ... ... ...
ROW 5F : ... .. . ... ... ... : ... .. . ... ... ... : ... .. . ... ... ... : ... .. . ... ... ... : ... .. . ... ... ... : ... .. . ... ... ...
ROW 60 : ... .. . ... ... ... : ... .. . ... ... ... : ... .. . ... ... ... : ... .. 4 ... ... ... : ... .. . ... ... ... : ... .. . ... ... ...
ROW 61 : ... .. . ... ... ... : ... .. . ... ... ... : ... .. . ... ... ... : ... .. . ... ... ... : ... .. . ... ... ... : ... .. . ... ... ...
ROW 62 : ... .. . ... ... ... : ... .. 3 ... ... ... : ... .. . ... ... ... : ... .. . ... ... ... : ... .. . ... ... ... : ... .. . ... ... ...
ROW 63 : ... .. . ... ... ... : ... .. 2 ... ... ... : ... .. . ... ... ... : ... .. . ... ... ... : ... .. . ... ... ... : ... .. . ... ... ...
ROW 64 : ... .. . ... ... ... : ... .. . ... ... ... : --- .. . ... ... ... : ... .. . ... ... ... : ... .. . ... ... ... : ... .. 7 ... ... ...
ROW 65 : ... .. . ... ... ... : ... .. . ... ... ... : ... .. . ... ... ... : ... .. . ... ... ... : ... .. . ... ... ... : ... .. 6 ... ... ...
ROW 66 : ... .. . ... ... ... : ... .. . ... ... ... : ... .. . ... ... ... : ... .. . ... ... ... : ... .. . ... ... ... : ... .. 5 ... ... ...
ROW 67 : ... .. . ... ... ... : ... .. 1 ... ... ... : ... .. . ... ... ... : ... .. 3 ... ... ... : ... .. . ... ... ... : ... .. . ... ... ...
ROW 68 : ... .. 4 ... ... ... : ... .. . ... ... ... : ... .. . ... ... ... : ... .. . ... ... ... : ... .. . ... ... ... : ... .. . ... ... ...
ROW 69 : ... .. . ... ... ... : ... .. . ... ... ... : ... .. . ... ... ... : ... .. . ... ... ... : ... .. . ... ... ... : ... .. 4 ... ... ...
ROW 6A : ... .. 3 ... ... ... : ... .. . ... ... ... : ... .. . ... ... ... : ... .. . ... ... ... : ... .. . ... ... ... : ... .. . ... ... ...
ROW 6B : ... .. . ... ... ... : ... .. . ... ... ... : ... .. . ... ... ... : ... .. . ... ... ... : ... .. . ... ... ... : ... .. . ... ... ...
ROW 6C : ... .. . ... ... ... : ... .. . ... ... ... : ... .. . ... ... ... : ... .. . ... ... ... : ... .. . ... ... ... : ... .. . ... ... ...
ROW 6D : ... .. 2 ... ... ... : ... .. . ... ... ... : ... .. . ... ... ... : ... .. . ... ... ... : ... .. . ... ... ... : ... .. . ... ... ...
ROW 6E : ... .. . ... ... ... : ... .. . ... ... ... : ... .. . ... ... ... : ... .. . ... ... ... : ... .. . ... ... ... : ... .. . ... ... ...
ROW 6F : ... .. . ... ... ... : ... .. . ... ... ... : ... .. . ... ... ... : ... .. . ... ... ... : ... .. . ... ... ... : ... .. 2 ... ... ...
ROW 70 : G#1 02 7 ... ... ... : ... .. . ... ... ... : ... .. . ... ... ... : ... .. 2 ... ... ... : ... .. . ... ... ... : G#2 04 7 ... ... ...
ROW 71 : G#1 01 . ... ... ... : ... .. . ... ... ... : ... .. . ... ... ... : ... .. . ... ... ... : ... .. . ... ... ... : ... .. 6 ... ... ...
ROW 72 : ... .. . ... ... ... : ... .. . ... ... ... : ... .. . ... ... ... : ... .. . ... ... ... : ... .. . ... ... ... : ... .. 5 ... ... ...
ROW 73 : ... .. . ... ... ... : --- .. . ... ... ... : ... .. . ... ... ... : ... .. . ... ... ... : ... .. . ... ... ... : ... .. . ... ... ...
ROW 74 : ... .. . ... ... ... : ... .. . ... ... ... : ... .. . ... ... ... : ... .. . ... ... ... : ... .. . ... ... ... : ... .. . ... ... ...
ROW 75 : ... .. . ... ... ... : ... .. . ... ... ... : ... .. . ... ... ... : ... .. . ... ... ... : ... .. . ... ... ... : ... .. 4 ... ... ...
ROW 76 : ... .. . ... ... ... : ... .. . ... ... ... : ... .. . ... ... ... : ... .. . ... ... ... : ... .. . ... ... ... : ... .. . ... ... ...
ROW 77 : ... .. . ... ... ... : ... .. . ... ... ... : ... .. . ... ... ... : ... .. . ... ... ... : ... .. . ... ... ... : ... .. . ... ... ...
ROW 78 : ... .. . ... ... ... : ... .. . ... ... ... : ... .. . ... ... ... : ... .. . ... ... ... : ... .. . ... ... ... : ... .. . ... ... ...
ROW 79 : ... .. . ... ... ... : ... .. . ... ... ... : ... .. . ... ... ... : ... .. . ... ... ... : ... .. . ... ... ... : ... .. . ... ... ...
ROW 7A : ... .. 3 ... ... ... : ... .. . ... ... ... : ... .. . ... ... ... : ... .. 1 ... ... ... : ... .. . ... ... ... : ... .. . ... ... ...
ROW 7B : ... .. . ... ... ... : ... .. . ... ... ... : ... .. . ... ... ... : ... .. . ... ... ... : ... .. . ... ... ... : ... .. . ... ... ...
ROW 7C : G-1 02 7 ... ... ... : ... .. . ... ... ... : ... .. . ... ... ... : ... .. . ... ... ... : ... .. . ... ... ... : G-2 04 2 ... ... ...
ROW 7D : G-1 01 . ... ... ... : ... .. . ... ... ... : ... .. . ... ... ... : ... .. . ... ... ... : ... .. . ... ... ... : ... .. 6 ... ... ...
ROW 7E : ... .. . ... ... ... : ... .. . ... ... ... : ... .. . ... ... ... : ... .. . ... ... ... : ... .. . ... ... ... : ... .. 5 ... ... ...
ROW 7F : ... .. . ... ... ... : ... .. . ... ... ... : ... .. . ... ... ... : ... .. . ... ... ... : ... .. . ... ... ... : ... .. . ... ... ...
ROW 80 : ... .. . ... ... ... : ... .. . ... ... ... : ... .. . ... ... ... : ... .. . ... ... ... : ... .. . ... ... ... : ... .. . ... ... ...
ROW 81 : ... .. . ... ... ... : ... .. . ... ... ... : ... .. . ... ... ... : ... .. . ... ... ... : ... .. . ... ... ... : ... .. . ... ... ...
ROW 82 : ... .. . ... ... ... : ... .. . ... ... ... : ... .. . ... ... ... : ... .. . ... ... ... : ... .. . ... ... ... : ... .. 4 ... ... ...
ROW 83 : ... .. . ... ... ... : ... .. . ... ... ... : ... .. . ... ... ... : ... .. . ... ... ... : ... .. . ... ... ... : ... .. . ... ... ...
ROW 84 : ... .. . ... ... ... : ... .. . ... ... ... : ... .. . ... ... ... : ... .. . ... ... ... : ... .. . ... ... ... : ... .. . ... ... ...
ROW 85 : ... .. . ... ... ... : ... .. . ... ... ... : ... .. . ... ... ... : ... .. . ... ... ... : ... .. . ... ... ... : ... .. . ... ... ...
ROW 86 : ... .. 3 ... ... ... : ... .. . ... ... ... : ... .. . ... ... ... : ... .. . ... ... ... : ... .. . ... ... ... : ... .. . ... ... ...
ROW 87 : ... .. . ... ... ... : ... .. . ... ... ... : ... .. . ... ... ... : ... .. . ... ... ... : ... .. . ... ... ... : ... .. . ... ... ...
ROW 88 : G-1 02 7 ... ... ... : ... .. . ... ... ... : ... .. . ... ... ... : ... .. . ... ... ... : ... .. . ... ... ... : ... .. 7 ... ... ...
ROW 89 : G-1 01 . ... ... ... : ... .. . ... ... ... : ... .. . ... ... ... : ... .. . ... ... ... : ... .. . ... ... ... : ... .. 6 ... ... ...
ROW 8A : ... .. . ... ... ... : ... .. . ... ... ... : ... .. . ... ... ... : ... .. . ... ... ... : ... .. . ... ... ... : ... .. 5 ... ... ...
ROW 8B : ... .. . ... ... ... : ... .. . ... ... ... : ... .. . ... ... ... : --- .. . ... ... ... : ... .. . ... ... ... : ... .. . ... ... ...
ROW 8C : ... .. . ... ... ... : ... .. . ... ... ... : ... .. . ... ... ... : ... .. . ... ... ... : ... .. . ... ... ... : ... .. . ... ... ...
ROW 8D : ... .. . ... ... ... : ... .. . ... ... ... : ... .. . ... ... ... : ... .. . ... ... ... : ... .. . ... ... ... : ... .. 4 ... ... ...
ROW 8E : ... .. . ... ... ... : ... .. . ... ... ... : ... .. . ... ... ... : ... .. . ... ... ... : ... .. . ... ... ... : ... .. . ... ... ...
ROW 8F : ... .. . ... ... ... : ... .. . ... ... ... : ... .. . ... ... ... : ... .. . ... ... ... : ... .. . ... ... ... : ... .. . ... ... ...
ROW 90 : ... .. . ... ... ... : ... .. . ... ... ... : ... .. . ... ... ... : ... .. . ... ... ... : ... .. . ... ... ... : ... .. . ... ... ...
ROW 91 : ... .. . ... ... ... : ... .. . ... ... ... : ... .. . ... ... ... : ... .. . ... ... ... : ... .. . ... ... ... : ... .. . ... ... ...
ROW 92 : ... .. 3 ... ... ... : ... .. . ... ... ... : ... .. . ... ... ... : ... .. . ... ... ... : ... .. . ... ... ... : ... .. . ... ... ...
ROW 93 : ... .. . ... ... ... : ... .. . ... ... ... : ... .. . ... ... ... : ... .. . ... ... ... : ... .. . ... ... ... : ... .. 2 ... ... ...
ROW 94 : A#1 02 7 ... ... ... : ... .. . ... ... ... : ... .. . ... ... ... : ... .. . ... ... ... : ... .. . ... ... ... : A#2 04 7 ... ... ...
ROW 95 : A#1 01 . ... ... ... : ... .. . ... ... ... : ... .. . ... ... ... : ... .. . ... ... ... : ... .. . ... ... ... : ... .. 6 ... ... ...
ROW 96 : ... .. . ... ... ... : ... .. . ... ... ... : ... .. . ... ... ... : ... .. . ... ... ... : ... .. . ... ... ... : ... .. 5 ... ... ...
ROW 97 : ... .. . ... ... ... : ... .. . ... ... ... : ... .. . ... ... ... : ... .. . ... ... ... : ... .. . ... ... ... : ... .. . ... ... ...
ROW 98 : ... .. . ... ... ... : ... .. . ... ... ... : ... .. . ... ... ... : ... .. . ... ... ... : ... .. . ... ... ... : ... .. . ... ... ...
ROW 99 : ... .. . ... ... ... : ... .. . ... ... ... : ... .. . ... ... ... : ... .. . ... ... ... : ... .. . ... ... ... : ... .. 4 ... ... ...
ROW 9A : ... .. . ... ... ... : ... .. . ... ... ... : ... .. . ... ... ... : ... .. . ... ... ... : ... .. . ... ... ... : ... .. . ... ... ...
ROW 9B : ... .. . ... ... ... : ... .. . ... ... ... : ... .. . ... ... ... : ... .. . ... ... ... : ... .. . ... ... ... : ... .. . ... ... ...
ROW 9C : ... .. . ... ... ... : ... .. . ... ... ... : ... .. . ... ... ... : ... .. . ... ... ... : ... .. . ... ... ... : ... .. . ... ... ...
ROW 9D : ... .. . ... ... ... : ... .. . ... ... ... : ... .. . ... ... ... : ... .. . ... ... ... : ... .. . ... ... ... : ... .. . ... ... ...
ROW 9E : ... .. 3 ... ... ... : ... .. . ... ... ... : ... .. . ... ... ... : ... .. . ... ... ... : ... .. . ... ... ... : ... .. . ... ... ...
ROW 9F : ... .. . ... ... ... : ... .. . ... ... ... : ... .. . ... ... ... : ... .. . ... ... ... : ... .. . ... ... ... : ... .. 2 ... ... ...
ROW A0 : G-1 02 7 ... ... ... : ... .. . ... ... ... : ... .. . ... ... ... : ... .. . ... ... ... : ... .. . ... ... ... : G-2 04 7 ... ... ...
ROW A1 : G-1 01 . ... ... ... : ... .. . ... ... ... : ... .. . ... ... ... : ... .. . ... ... ... : ... .. . ... ... ... : ... .. . ... ... ...
ROW A2 : ... .. . ... ... ... : ... .. . ... ... ... : ... .. . ... ... ... : ... .. . ... ... ... : ... .. . ... ... ... : ... .. 5 ... ... ...
ROW A3 : ... .. . ... ... ... : ... .. . ... ... ... : ... .. . ... ... ... : ... .. . ... ... ... : ... .. . ... ... ... : ... .. . ... ... ...
ROW A4 : ... .. . ... ... ... : ... .. . ... ... ... : ... .. . ... ... ... : ... .. . ... ... ... : ... .. . ... ... ... : ... .. . ... ... ...
ROW A5 : ... .. . ... ... ... : ... .. . ... ... ... : ... .. . ... ... ... : ... .. . ... ... ... : ... .. . ... ... ... : ... .. 4 ... ... ...
ROW A6 : ... .. . ... ... ... : ... .. . ... ... ... : ... .. . ... ... ... : ... .. . ... ... ... : ... .. . ... ... ... : ... .. . ... ... ...
ROW A7 : ... .. . ... ... ... : ... .. . ... ... ... : ... .. . ... ... ... : ... .. . ... ... ... : ... .. . ... ... ... : ... .. . ... ... ...
ROW A8 : ... .. . ... ... ... : ... .. . ... ... ... : ... .. . ... ... ... : ... .. . ... ... ... : ... .. . ... ... ... : ... .. . ... ... ...
ROW A9 : ... .. . ... ... ... : ... .. . ... ... ... : ... .. . ... ... ... : ... .. . ... ... ... : ... .. . ... ... ... : ... .. . ... ... ...
ROW AA : ... .. 3 ... ... ... : ... .. . ... ... ... : ... .. . ... ... ... : ... .. . ... ... ... : ... .. . ... ... ... : ... .. . ... ... ...
ROW AB : ... .. . ... ... ... : ... .. . ... ... ... : ... .. . ... ... ... : ... .. . ... ... ... : ... .. . ... ... ... : ... .. 2 ... ... ...
ROW AC : G#1 02 7 ... ... ... : ... .. . ... ... ... : ... .. . ... ... ... : ... .. . ... ... ... : ... .. . ... ... ... : G#2 04 . ... ... ...
ROW AD : G#1 01 . ... ... ... : ... .. . ... ... ... : ... .. . ... ... ... : ... .. . ... ... ... : ... .. . ... ... ... : ... .. 6 ... ... ...
ROW AE : ... .. . ... ... ... : ... .. . ... ... ... : ... .. . ... ... ... : ... .. . ... ... ... : ... .. . ... ... ... : ... .. 5 ... ... ...
ROW AF : ... .. . ... ... ... : ... .. . ... ... ... : ... .. . ... ... ... : ... .. . ... ... ... : ... .. . ... ... ... : ... .. . ... ... ...
ROW B0 : ... .. . ... ... ... : ... .. . ... ... ... : ... .. . ... ... ... : ... .. . ... ... ... : ... .. . ... ... ... : ... .. . ... ... ...
ROW B1 : ... .. . ... ... ... : ... .. . ... ... ... : ... .. . ... ... ... : ... .. . ... ... ... : ... .. . ... ... ... : ... .. 4 ... ... ...
ROW B2 : ... .. . ... ... ... : ... .. . ... ... ... : ... .. . ... ... ... : ... .. . ... ... ... : ... .. . ... ... ... : ... .. . ... ... ...
ROW B3 : ... .. . ... ... ... : ... .. . ... ... ... : ... .. . ... ... ... : ... .. . ... ... ... : ... .. . ... ... ... : ... .. . ... ... ...
ROW B4 : ... .. . ... ... ... : ... .. . ... ... ... : ... .. . ... ... ... : ... .. . ... ... ... : ... .. . ... ... ... : ... .. . ... ... ...
ROW B5 : ... .. . ... ... ... : ... .. . ... ... ... : ... .. . ... ... ... : ... .. . ... ... ... : ... .. . ... ... ... : ... .. . ... ... ...
ROW B6 : ... .. 3 ... ... ... : ... .. . ... ... ... : ... .. . ... ... ... : ... .. . ... ... ... : ... .. . ... ... ... : ... .. . ... ... ...
ROW B7 : ... .. . ... ... ... : ... .. . ... ... ... : ... .. . ... ... ... : ... .. . ... ... ... : ... .. . ... ... ... : ... .. 2 ... ... ...
ROW B8 : G-1 02 7 ... ... ... : ... .. . ... ... ... : ... .. . ... ... ... : ... .. . ... ... ... : ... .. . ... ... ... : G-2 04 7 ... ... ...
ROW B9 : G-1 01 . ... ... ... : ... .. . ... ... ... : ... .. . ... ... ... : ... .. . ... ... ... : ... .. . ... ... ... : ... .. 6 ... ... ...
ROW BA : ... .. . ... ... ... : ... .. . ... ... ... : ... .. . ... ... ... : ... .. . ... ... ... : ... .. . ... ... ... : ... .. . ... ... ...
ROW BB : ... .. . ... ... ... : ... .. . ... ... ... : ... .. . ... ... ... : ... .. . ... ... ... : ... .. . ... ... ... : ... .. 5 ... ... ...
ROW BC : ... .. . ... ... ... : ... .. . ... ... ... : ... .. . ... ... ... : ... .. . ... ... ... : ... .. . ... ... ... : ... .. . ... ... ...
ROW BD : ... .. . ... ... ... : ... .. . ... ... ... : ... .. . ... ... ... : ... .. . ... ... ... : ... .. . ... ... ... : ... .. 4 ... ... ...
ROW BE : ... .. . ... ... ... : ... .. . ... ... ... : ... .. . ... ... ... : ... .. . ... ... ... : ... .. . ... ... ... : ... .. . ... ... ...
ROW BF : ... .. . ... ... ... : ... .. . ... ... ... : ... .. . ... ... ... : ... .. . ... ... ... : ... .. . ... ... ... : ... .. . ... ... ...
ROW C0 : ... .. . ... ... ... : ... .. . ... ... ... : ... .. . ... ... ... : ... .. . ... ... ... : ... .. . ... ... ... : ... .. . ... ... ...
ROW C1 : ... .. . ... ... ... : ... .. . ... ... ... : ... .. . ... ... ... : ... .. . ... ... ... : ... .. . ... ... ... : ... .. . ... ... ...
ROW C2 : ... .. 3 ... ... ... : ... .. . ... ... ... : ... .. . ... ... ... : ... .. . ... ... ... : ... .. . ... ... ... : ... .. . ... ... ...
ROW C3 : ... .. . ... ... ... : ... .. . ... ... ... : ... .. . ... ... ... : ... .. . ... ... ... : ... .. . ... ... ... : ... .. 2 ... ... ...
ROW C4 : G-1 02 7 ... ... ... : ... .. . ... ... ... : ... .. . ... ... ... : ... .. . ... ... ... : ... .. . ... ... ... : ... .. 7 ... ... ...
ROW C5 : G-1 01 . ... ... ... : ... .. . ... ... ... : ... .. . ... ... ... : ... .. . ... ... ... : ... .. . ... ... ... : ... .. . ... ... ...
ROW C6 : ... .. . ... ... ... : ... .. . ... ... ... : ... .. . ... ... ... : ... .. . ... ... ... : ... .. . ... ... ... : ... .. 5 ... ... ...
ROW C7 : ... .. . ... ... ... : ... .. . ... ... ... : ... .. . ... ... ... : ... .. . ... ... ... : ... .. . ... ... ... : ... .. . ... ... ...
ROW C8 : ... .. . ... ... ... : ... .. . ... ... ... : ... .. . ... ... ... : ... .. . ... ... ... : ... .. . ... ... ... : ... .. . ... ... ...
ROW C9 : ... .. . ... ... ... : ... .. . ... ... ... : ... .. . ... ... ... : ... .. . ... ... ... : ... .. . ... ... ... : ... .. 4 ... ... ...
ROW CA : ... .. . ... ... ... : ... .. . ... ... ... : ... .. . ... ... ... : ... .. . ... ... ... : ... .. . ... ... ... : ... .. . ... ... ...
ROW CB : ... .. . ... ... ... : ... .. . ... ... ... : ... .. . ... ... ... : ... .. . ... ... ... : ... .. . ... ... ... : ... .. . ... ... ...
ROW CC : ... .. . ... ... ... : ... .. . ... ... ... : ... .. . ... ... ... : ... .. . ... ... ... : ... .. . ... ... ... : ... .. . ... ... ...
ROW CD : ... .. . ... ... ... : ... .. . ... ... ... : ... .. . ... ... ... : ... .. . ... ... ... : ... .. . ... ... ... : ... .. . ... ... ...
ROW CE : ... .. 3 ... ... ... : ... .. . ... ... ... : ... .. . ... ... ... : ... .. . ... ... ... : ... .. . ... ... ... : ... .. . ... ... ...
ROW CF : ... .. . ... ... ... : ... .. . ... ... ... : ... .. . ... ... ... : ... .. . ... ... ... : ... .. . ... ... ... : ... .. 2 ... ... ...
ROW D0 : C-2 02 7 ... ... ... : ... .. . ... ... ... : ... .. . ... ... ... : ... .. . ... ... ... : ... .. . ... ... ... : C-3 04 7 ... ... ...
ROW D1 : C-2 01 . ... ... ... : ... .. . ... ... ... : ... .. . ... ... ... : ... .. . ... ... ... : ... .. . ... ... ... : ... .. 6 ... ... ...
ROW D2 : ... .. . ... ... ... : ... .. . ... ... ... : ... .. . ... ... ... : ... .. . ... ... ... : ... .. . ... ... ... : ... .. 5 ... ... ...
ROW D3 : ... .. . ... ... ... : ... .. . ... ... ... : ... .. . ... ... ... : ... .. . ... ... ... : ... .. . ... ... ... : ... .. . ... ... ...
ROW D4 : ... .. . ... ... ... : ... .. . ... ... ... : ... .. . ... ... ... : ... .. . ... ... ... : ... .. . ... ... ... : ... .. . ... ... ...
ROW D5 : ... .. . ... ... ... : ... .. . ... ... ... : ... .. . ... ... ... : ... .. . ... ... ... : ... .. . ... ... ... : ... .. 4 ... ... ...
ROW D6 : ... .. . ... ... ... : ... .. . ... ... ... : ... .. . ... ... ... : ... .. . ... ... ... : ... .. . ... ... ... : ... .. . ... ... ...
ROW D7 : ... .. . ... ... ... : ... .. . ... ... ... : ... .. . ... ... ... : ... .. . ... ... ... : ... .. . ... ... ... : ... .. . ... ... ...
ROW D8 : ... .. . ... ... ... : ... .. . ... ... ... : ... .. . ... ... ... : ... .. . ... ... ... : ... .. . ... ... ... : ... .. . ... ... ...
ROW D9 : ... .. . ... ... ... : ... .. . ... ... ... : ... .. . ... ... ... : ... .. . ... ... ... : ... .. . ... ... ... : ... .. . ... ... ...
ROW DA : ... .. 3 ... ... ... : ... .. . ... ... ... : ... .. . ... ... ... : ... .. . ... ... ... : ... .. . ... ... ... : ... .. . ... ... ...
ROW DB : ... .. . ... ... ... : ... .. . ... ... ... : ... .. . ... ... ... : ... .. . ... ... ... : ... .. . ... ... ... : ... .. 2 ... ... ...
ROW DC : G-1 02 7 ... ... ... : ... .. . ... ... ... : ... .. . ... ... ... : ... .. . ... ... ... : ... .. . ... ... ... : G-2 04 . ... ... ...
ROW DD : G-1 01 . ... ... ... : ... .. . ... ... ... : ... .. . ... ... ... : ... .. . ... ... ... : ... .. . ... ... ... : ... .. 6 ... ... ...
ROW DE : ... .. . ... ... ... : ... .. . ... ... ... : ... .. . ... ... ... : ... .. . ... ... ... : ... .. . ... ... ... : ... .. 5 ... ... ...
ROW DF : ... .. . ... ... ... : ... .. . ... ... ... : ... .. . ... ... ... : ... .. . ... ... ... : ... .. . ... ... ... : ... .. . ... ... ...
ROW E0 : ... .. . ... ... ... : ... .. . ... ... ... : ... .. . ... ... ... : ... .. . ... ... ... : ... .. . ... ... ... : ... .. . ... ... ...
ROW E1 : ... .. . ... ... ... : ... .. . ... ... ... : ... .. . ... ... ... : ... .. . ... ... ... : ... .. . ... ... ... : ... .. . ... ... ...
ROW E2 : ... .. . ... ... ... : ... .. . ... ... ... : ... .. . ... ... ... : ... .. . ... ... ... : ... .. . ... ... ... : ... .. 4 ... ... ...
ROW E3 : ... .. . ... ... ... : ... .. . ... ... ... : ... .. . ... ... ... : ... .. . ... ... ... : ... .. . ... ... ... : ... .. . ... ... ...
ROW E4 : ... .. . ... ... ... : ... .. . ... ... ... : ... .. . ... ... ... : ... .. . ... ... ... : ... .. . ... ... ... : ... .. . ... ... ...
ROW E5 : ... .. . ... ... ... : ... .. . ... ... ... : ... .. . ... ... ... : ... .. . ... ... ... : ... .. . ... ... ... : ... .. . ... ... ...
ROW E6 : ... .. 3 ... ... ... : ... .. . ... ... ... : ... .. . ... ... ... : ... .. . ... ... ... : ... .. . ... ... ... : ... .. . ... ... ...
ROW E7 : ... .. . ... ... ... : ... .. . ... ... ... : ... .. . ... ... ... : ... .. . ... ... ... : ... .. . ... ... ... : ... .. . ... ... ...
ROW E8 : G-1 02 7 ... ... ... : ... .. . ... ... ... : ... .. . ... ... ... : ... .. . ... ... ... : ... .. . ... ... ... : ... .. 7 ... ... ...
ROW E9 : G-1 01 . ... ... ... : ... .. . ... ... ... : ... .. . ... ... ... : ... .. . ... ... ... : ... .. . ... ... ... : ... .. 6 ... ... ...
ROW EA : ... .. . ... ... ... : ... .. . ... ... ... : ... .. . ... ... ... : ... .. . ... ... ... : ... .. . ... ... ... : ... .. 5 ... ... ...
ROW EB : ... .. . ... ... ... : ... .. . ... ... ... : ... .. . ... ... ... : ... .. . ... ... ... : ... .. . ... ... ... : ... .. . ... ... ...
ROW EC : ... .. . ... ... ... : ... .. . ... ... ... : ... .. . ... ... ... : ... .. . ... ... ... : ... .. . ... ... ... : ... .. . ... ... ...
ROW ED : ... .. . ... ... ... : ... .. . ... ... ... : ... .. . ... ... ... : ... .. . ... ... ... : ... .. . ... ... ... : ... .. . ... ... ...
ROW EE : ... .. . ... ... ... : ... .. . ... ... ... : ... .. . ... ... ... : ... .. . ... ... ... : ... .. . ... ... ... : ... .. 4 ... ... ...
ROW EF : ... .. . ... ... ... : ... .. . ... ... ... : ... .. . ... ... ... : ... .. . ... ... ... : ... .. . ... ... ... : ... .. . ... ... ...
ROW F0 : ... .. . ... ... ... : ... .. . ... ... ... : ... .. . ... ... ... : ... .. . ... ... ... : ... .. . ... ... ... : ... .. . ... ... ...
ROW F1 : ... .. . ... ... ... : ... .. . ... ... ... : ... .. . ... ... ... : ... .. . ... ... ... : ... .. . ... ... ... : ... .. . ... ... ...
ROW F2 : ... .. 3 ... ... ... : ... .. . ... ... ... : ... .. . ... ... ... : ... .. . ... ... ... : ... .. . ... ... ... : ... .. . ... ... ...
ROW F3 : ... .. . ... ... ... : ... .. . ... ... ... : ... .. . ... ... ... : ... .. . ... ... ... : ... .. . ... ... ... : ... .. 2 ... ... ...
ROW F4 : D-2 02 7 ... ... ... : ... .. . ... ... ... : ... .. . ... ... ... : ... .. . ... ... ... : ... .. . ... ... ... : D-3 04 7 ... ... ...
ROW F5 : D-2 01 . ... ... ... : ... .. . ... ... ... : ... .. . ... ... ... : ... .. . ... ... ... : ... .. . ... ... ... : ... .. 6 ... ... ...
ROW F6 : ... .. . ... ... ... : ... .. . ... ... ... : ... .. . ... ... ... : ... .. . ... ... ... : ... .. . ... ... ... : ... .. 5 ... ... ...
ROW F7 : ... .. . ... ... ... : ... .. . ... ... ... : ... .. . ... ... ... : ... .. . ... ... ... : ... .. . ... ... ... : ... .. . ... ... ...
ROW F8 : ... .. . ... ... ... : ... .. . ... ... ... : ... .. . ... ... ... : ... .. . ... ... ... : ... .. . ... ... ... : ... .. . ... ... ...
ROW F9 : ... .. . ... ... ... : ... .. . ... ... ... : ... .. . ... ... ... : ... .. . ... ... ... : ... .. . ... ... ... : ... .. 4 ... ... ...
ROW FA : ... .. . ... ... ... : ... .. . ... ... ... : ... .. . ... ... ... : ... .. . ... ... ... : ... .. . ... ... ... : ... .. . ... ... ...
ROW FB : ... .. . ... ... ... : ... .. . ... ... ... : ... .. . ... ... ... : ... .. . ... ... ... : ... .. . ... ... ... : ... .. . ... ... ...
ROW FC : ... .. . ... ... ... : ... .. . ... ... ... : ... .. . ... ... ... : ... .. . ... ... ... : ... .. . ... ... ... : ... .. . ... ... ...
ROW FD : ... .. . ... ... ... : ... .. . ... ... ... : ... .. . ... ... ... : ... .. . ... ... ... : ... .. . ... ... ... : ... .. . ... ... ...
ROW FE : ... .. 3 ... ... ... : ... .. . ... ... ... : ... .. . ... ... ... : ... .. . ... ... ... : ... .. . ... ... ... : ... .. . ... ... ...
ROW FF : ... .. . ... ... ... : ... .. . ... ... ... : ... .. . ... ... ... : ... .. . ... ... ... : ... .. . ... ... ... : ... .. 2 ... ... ...

PATTERN 0E
ROW 00 : G-1 02 7 ... ... ... : ... .. . ... ... ... : ... .. . ... ... ... : ... .. . ... ... ... : A#1 05 . ... ... ... : G-2 04 7 ... ... ...
ROW 01 : G-1 01 . ... ... ... : ... .. . ... ... ... : ... .. . ... ... ... : ... .. . ... ... ... : ... .. . ... ... ... : ... .. . ... ... ...
ROW 02 : ... .. . ... ... ... : ... .. . ... ... ... : ... .. . ... ... ... : ... .. . ... ... ... : ... .. . ... ... ... : ... .. 6 ... ... ...
ROW 03 : ... .. . ... ... ... : ... .. . ... ... ... : ... .. . ... ... ... : ... .. . ... ... ... : ... .. . ... ... ... : ... .. 5 ... ... ...
ROW 04 : ... .. . ... ... ... : ... .. . ... ... ... : ... .. . ... ... ... : ... .. . ... ... ... : ... .. . ... ... ... : ... .. . ... ... ...
ROW 05 : ... .. . ... ... ... : ... .. . ... ... ... : ... .. . ... ... ... : ... .. . ... ... ... : ... .. . ... ... ... : ... .. 4 ... ... ...
ROW 06 : ... .. . ... ... ... : ... .. . ... ... ... : ... .. . ... ... ... : ... .. . ... ... ... : A#1 05 . ... ... ... : ... .. . ... ... ...
ROW 07 : ... .. . ... ... ... : ... .. . ... ... ... : ... .. . ... ... ... : ... .. . ... ... ... : ... .. . ... ... ... : ... .. . ... ... ...
ROW 08 : ... .. . ... ... ... : ... .. . ... ... ... : ... .. . ... ... ... : ... .. . ... ... ... : ... .. . ... ... ... : ... .. . ... ... ...
ROW 09 : ... .. . ... ... ... : ... .. . ... ... ... : ... .. . ... ... ... : ... .. . ... ... ... : ... .. . ... ... ... : ... .. . ... ... ...
ROW 0A : ... .. 3 ... ... ... : ... .. . ... ... ... : ... .. . ... ... ... : ... .. . ... ... ... : ... .. . ... ... ... : ... .. . ... ... ...
ROW 0B : ... .. . ... ... ... : ... .. . ... ... ... : ... .. . ... ... ... : ... .. . ... ... ... : ... .. . ... ... ... : ... .. 2 ... ... ...
ROW 0C : C#2 02 7 ... ... ... : ... .. . ... ... ... : ... .. . ... ... ... : ... .. . ... ... ... : A#1 05 . ... ... ... : C#3 04 7 ... ... ...
ROW 0D : C#2 01 . ... ... ... : ... .. . ... ... ... : ... .. . ... ... ... : ... .. . ... ... ... : ... .. . ... ... ... : ... .. 6 ... ... ...
ROW 0E : ... .. . ... ... ... : ... .. . ... ... ... : ... .. . ... ... ... : ... .. . ... ... ... : ... .. . ... ... ... : ... .. 5 ... ... ...
ROW 0F : ... .. . ... ... ... : ... .. . ... ... ... : ... .. . ... ... ... : ... .. . ... ... ... : ... .. . ... ... ... : ... .. . ... ... ...
ROW 10 : ... .. . ... ... ... : ... .. . ... ... ... : ... .. . ... ... ... : ... .. . ... ... ... : ... .. . ... ... ... : ... .. . ... ... ...
ROW 11 : ... .. . ... ... ... : ... .. . ... ... ... : ... .. . ... ... ... : ... .. . ... ... ... : ... .. . ... ... ... : ... .. 4 ... ... ...
ROW 12 : ... .. . ... ... ... : ... .. . ... ... ... : ... .. . ... ... ... : ... .. . ... ... ... : A#1 05 . ... ... ... : ... .. . ... ... ...
ROW 13 : ... .. . ... ... ... : ... .. . ... ... ... : ... .. . ... ... ... : ... .. . ... ... ... : ... .. . ... ... ... : ... .. . ... ... ...
ROW 14 : ... .. . ... ... ... : ... .. . ... ... ... : ... .. . ... ... ... : ... .. . ... ... ... : ... .. . ... ... ... : ... .. . ... ... ...
ROW 15 : ... .. . ... ... ... : ... .. . ... ... ... : ... .. . ... ... ... : ... .. . ... ... ... : ... .. . ... ... ... : ... .. . ... ... ...
ROW 16 : ... .. 3 ... ... ... : ... .. . ... ... ... : ... .. . ... ... ... : ... .. . ... ... ... : ... .. . ... ... ... : ... .. . ... ... ...
ROW 17 : ... .. . ... ... ... : ... .. . ... ... ... : ... .. . ... ... ... : ... .. . ... ... ... : ... .. . ... ... ... : ... .. 2 ... ... ...
ROW 18 : G-1 00 9 ... ... ... : G-2 01 6 ... ... ... : G-2 00 . ... ... ... : 9-# 01 B ... ... ... : D-1 05 . ... ... ... : G-2 04 . ... ... ...
ROW 19 : G-1 03 . ... ... ... : G-2 02 . ... ... ... : ... .. . ... ... ... : A-# 00 8 ... ... ... : ... .. . ... ... ... : ... .. 6 ... ... ...
ROW 1A : G-1 02 . ... ... ... : G-2 00 . ... ... ... : ... .. . ... ... ... : ... .. 7 ... ... ... : ... .. . ... ... ... : ... .. 5 ... ... ...
ROW 1B : G-1 01 . ... ... ... : ... .. . ... ... ... : ... .. . ... ... ... : B-# 01 6 ... ... ... : ... .. . ... ... ... : ... .. . ... ... ...
ROW 1C : ... .. . ... ... ... : ... .. . ... ... ... : ... .. . ... ... ... : A-# 01 . ... ... ... : ... .. . ... ... ... : ... .. . ... ... ...
ROW 1D : ... .. . ... ... ... : ... .. . ... ... ... : ... .. . ... ... ... : B-# 00 5 ... ... ... : ... .. . ... ... ... : ... .. . ... ... ...
ROW 1E : ... .. . ... ... ... : ... .. . ... ... ... : ... .. . ... ... ... : ... .. . ... ... ... : A#1 05 . ... ... ... : ... .. 4 ... ... ...
ROW 1F : ... .. . ... ... ... : ... .. . ... ... ... : ... .. . ... ... ... : ... .. . ... ... ... : ... .. . ... ... ... : ... .. . ... ... ...
ROW 20 : ... .. . ... ... ... : ... .. . ... ... ... : ... .. . ... ... ... : ... .. 4 ... ... ... : ... .. . ... ... ... : ... .. . ... ... ...
ROW 21 : ... .. . ... ... ... : ... .. . ... ... ... : ... .. . ... ... ... : ... .. . ... ... ... : ... .. . ... ... ... : ... .. . ... ... ...
ROW 22 : ... .. . ... ... ... : ... .. 3 ... ... ... : ... .. . ... ... ... : ... .. . ... ... ... : ... .. . ... ... ... : ... .. . ... ... ...
ROW 23 : ... .. . ... ... ... : ... .. 2 ... ... ... : --- .. . ... ... ... : ... .. . ... ... ... : ... .. . ... ... ... : ... .. . ... ... ...
ROW 24 : ... .. . ... ... ... : ... .. . ... ... ... : G-1 00 . ... ... ... : ... .. . ... ... ... : A#1 05 . ... ... ... : ... .. 7 ... ... ...
ROW 25 : ... .. . ... ... ... : ... .. . ... ... ... : ... .. . ... ... ... : ... .. . ... ... ... : ... .. . ... ... ... : ... .. 6 ... ... ...
ROW 26 : ... .. . ... ... ... : ... .. . ... ... ... : ... .. . ... ... ... : ... .. . ... ... ... : ... .. . ... ... ... : ... .. 5 ... ... ...
ROW 27 : ... .. . ... ... ... : ... .. 1 ... ... ... : ... .. . ... ... ... : ... .. 3 ... ... ... : ... .. . ... ... ... : ... .. . ... ... ...
ROW 28 : ... .. 4 ... ... ... : ... .. . ... ... ... : ... .. . ... ... ... : ... .. . ... ... ... : ... .. . ... ... ... : ... .. . ... ... ...
ROW 29 : ... .. . ... ... ... : ... .. . ... ... ... : ... .. . ... ... ... : ... .. . ... ... ... : ... .. . ... ... ... : ... .. 4 ... ... ...
ROW 2A : ... .. 3 ... ... ... : ... .. . ... ... ... : ... .. . ... ... ... : ... .. . ... ... ... : A#1 05 . ... ... ... : ... .. . ... ... ...
ROW 2B : ... .. . ... ... ... : ... .. . ... ... ... : ... .. . ... ... ... : ... .. . ... ... ... : ... .. . ... ... ... : ... .. . ... ... ...
ROW 2C : ... .. . ... ... ... : ... .. . ... ... ... : ... .. . ... ... ... : ... .. . ... ... ... : ... .. . ... ... ... : ... .. . ... ... ...
ROW 2D : ... .. 2 ... ... ... : ... .. . ... ... ... : --- .. . ... ... ... : ... .. . ... ... ... : ... .. . ... ... ... : ... .. . ... ... ...
ROW 2E : ... .. . ... ... ... : ... .. . ... ... ... : ... .. . ... ... ... : ... .. . ... ... ... : ... .. . ... ... ... : ... .. . ... ... ...
ROW 2F : ... .. . ... ... ... : ... .. . ... ... ... : ... .. . ... ... ... : ... .. . ... ... ... : ... .. . ... ... ... : ... .. 2 ... ... ...
ROW 30 : G#1 02 7 ... ... ... : ... .. . ... ... ... : G-1 00 . ... ... ... : ... .. 2 ... ... ... : A#1 05 . ... ... ... : G#2 04 7 ... ... ...
ROW 31 : G#1 01 . ... ... ... : ... .. . ... ... ... : ... .. . ... ... ... : ... .. . ... ... ... : ... .. . ... ... ... : ... .. 6 ... ... ...
ROW 32 : ... .. . ... ... ... : ... .. . ... ... ... : ... .. . ... ... ... : ... .. . ... ... ... : ... .. . ... ... ... : ... .. 5 ... ... ...
ROW 33 : ... .. . ... ... ... : --- .. . ... ... ... : ... .. . ... ... ... : ... .. . ... ... ... : ... .. . ... ... ... : ... .. . ... ... ...
ROW 34 : ... .. . ... ... ... : ... .. . ... ... ... : ... .. . ... ... ... : ... .. . ... ... ... : ... .. . ... ... ... : ... .. . ... ... ...
ROW 35 : ... .. . ... ... ... : ... .. . ... ... ... : ... .. . ... ... ... : ... .. . ... ... ... : ... .. . ... ... ... : ... .. 4 ... ... ...
ROW 36 : ... .. . ... ... ... : ... .. . ... ... ... : ... .. . ... ... ... : ... .. . ... ... ... : A#1 05 . ... ... ... : ... .. . ... ... ...
ROW 37 : ... .. . ... ... ... : ... .. . ... ... ... : ... .. . ... ... ... : ... .. . ... ... ... : ... .. . ... ... ... : ... .. . ... ... ...
ROW 38 : ... .. . ... ... ... : ... .. . ... ... ... : ... .. . ... ... ... : ... .. . ... ... ... : ... .. . ... ... ... : ... .. . ... ... ...
ROW 39 : ... .. . ... ... ... : ... .. . ... ... ... : --- .. . ... ... ... : ... .. . ... ... ... : ... .. . ... ... ... : ... .. . ... ... ...
ROW 3A : ... .. 3 ... ... ... : ... .. . ... ... ... : ... .. . ... ... ... : ... .. 1 ... ... ... : ... .. . ... ... ... : ... .. . ... ... ...
ROW 3B : ... .. . ... ... ... : ... .. . ... ... ... : ... .. . ... ... ... : ... .. . ... ... ... : ... .. . ... ... ... : ... .. . ... ... ...
ROW 3C : G-1 02 7 ... ... ... : ... .. . ... ... ... : G-1 00 . ... ... ... : ... .. . ... ... ... : A#1 05 . ... ... ... : G-2 04 2 ... ... ...
ROW 3D : G-1 01 . ... ... ... : ... .. . ... ... ... : ... .. . ... ... ... : ... .. . ... ... ... : ... .. . ... ... ... : ... .. 6 ... ... ...
ROW 3E : ... .. . ... ... ... : ... .. . ... ... ... : ... .. . ... ... ... : ... .. . ... ... ... : ... .. . ... ... ... : ... .. 5 ... ... ...
ROW 3F : ... .. . ... ... ... : ... .. . ... ... ... : ... .. . ... ... ... : ... .. . ... ... ... : ... .. . ... ... ... : ... .. . ... ... ...
ROW 40 : ... .. . ... ... ... : ... .. . ... ... ... : ... .. . ... ... ... : ... .. . ... ... ... : ... .. . ... ... ... : ... .. . ... ... ...
ROW 41 : ... .. . ... ... ... : ... .. . ... ... ... : ... .. . ... ... ... : ... .. . ... ... ... : ... .. . ... ... ... : ... .. . ... ... ...
ROW 42 : ... .. . ... ... ... : ... .. . ... ... ... : ... .. . ... ... ... : ... .. . ... ... ... : A#1 05 . ... ... ... : ... .. 4 ... ... ...
ROW 43 : ... .. . ... ... ... : ... .. . ... ... ... : ... .. . ... ... ... : ... .. . ... ... ... : ... .. . ... ... ... : ... .. . ... ... ...
ROW 44 : ... .. . ... ... ... : ... .. . ... ... ... : ... .. . ... ... ... : ... .. . ... ... ... : ... .. . ... ... ... : ... .. . ... ... ...
ROW 45 : ... .. . ... ... ... : ... .. . ... ... ... : --- .. . ... ... ... : ... .. . ... ... ... : ... .. . ... ... ... : ... .. . ... ... ...
ROW 46 : ... .. 3 ... ... ... : ... .. . ... ... ... : ... .. . ... ... ... : ... .. . ... ... ... : ... .. . ... ... ... : ... .. . ... ... ...
ROW 47 : ... .. . ... ... ... : ... .. . ... ... ... : ... .. . ... ... ... : ... .. . ... ... ... : ... .. . ... ... ... : ... .. . ... ... ...
ROW 48 : G-1 02 7 ... ... ... : ... .. . ... ... ... : G-1 00 . ... ... ... : ... .. . ... ... ... : A#1 05 . ... ... ... : ... .. 7 ... ... ...
ROW 49 : G-1 01 . ... ... ... : ... .. . ... ... ... : ... .. . ... ... ... : ... .. . ... ... ... : ... .. . ... ... ... : ... .. 6 ... ... ...
ROW 4A : ... .. . ... ... ... : ... .. . ... ... ... : ... .. . ... ... ... : ... .. . ... ... ... : ... .. . ... ... ... : ... .. 5 ... ... ...
ROW 4B : ... .. . ... ... ... : ... .. . ... ... ... : ... .. . ... ... ... : --- .. . ... ... ... : ... .. . ... ... ... : ... .. . ... ... ...
ROW 4C : ... .. . ... ... ... : ... .. . ... ... ... : ... .. . ... ... ... : ... .. . ... ... ... : ... .. . ... ... ... : ... .. . ... ... ...
ROW 4D : ... .. . ... ... ... : ... .. . ... ... ... : ... .. . ... ... ... : ... .. . ... ... ... : ... .. . ... ... ... : ... .. 4 ... ... ...
ROW 4E : ... .. . ... ... ... : ... .. . ... ... ... : ... .. . ... ... ... : ... .. . ... ... ... : A#1 05 . ... ... ... : ... .. . ... ... ...
ROW 4F : ... .. . ... ... ... : ... .. . ... ... ... : ... .. . ... ... ... : ... .. . ... ... ... : ... .. . ... ... ... : ... .. . ... ... ...
ROW 50 : ... .. . ... ... ... : ... .. . ... ... ... : ... .. . ... ... ... : ... .. . ... ... ... : ... .. . ... ... ... : ... .. . ... ... ...
ROW 51 : ... .. . ... ... ... : ... .. . ... ... ... : --- .. . ... ... ... : ... .. . ... ... ... : ... .. . ... ... ... : ... .. . ... ... ...
ROW 52 : ... .. 3 ... ... ... : ... .. . ... ... ... : ... .. . ... ... ... : ... .. . ... ... ... : ... .. . ... ... ... : ... .. . ... ... ...
ROW 53 : ... .. . ... ... ... : ... .. . ... ... ... : ... .. . ... ... ... : ... .. . ... ... ... : ... .. . ... ... ... : ... .. 2 ... ... ...
ROW 54 : A#1 02 7 ... ... ... : ... .. . ... ... ... : G-1 00 . ... ... ... : ... .. . ... ... ... : A#1 05 . ... ... ... : A#2 04 7 ... ... ...
ROW 55 : A#1 01 . ... ... ... : ... .. . ... ... ... : ... .. . ... ... ... : ... .. . ... ... ... : ... .. . ... ... ... : ... .. 6 ... ... ...
ROW 56 : ... .. . ... ... ... : ... .. . ... ... ... : ... .. . ... ... ... : ... .. . ... ... ... : ... .. . ... ... ... : ... .. 5 ... ... ...
ROW 57 : ... .. . ... ... ... : ... .. . ... ... ... : ... .. . ... ... ... : ... .. . ... ... ... : ... .. . ... ... ... : ... .. . ... ... ...
ROW 58 : ... .. . ... ... ... : ... .. . ... ... ... : ... .. . ... ... ... : ... .. . ... ... ... : ... .. . ... ... ... : ... .. . ... ... ...
ROW 59 : ... .. . ... ... ... : ... .. . ... ... ... : ... .. . ... ... ... : ... .. . ... ... ... : ... .. . ... ... ... : ... .. 4 ... ... ...
ROW 5A : ... .. . ... ... ... : ... .. . ... ... ... : ... .. . ... ... ... : ... .. . ... ... ... : A#1 05 . ... ... ... : ... .. . ... ... ...
ROW 5B : ... .. . ... ... ... : ... .. . ... ... ... : ... .. . ... ... ... : ... .. . ... ... ... : ... .. . ... ... ... : ... .. . ... ... ...
ROW 5C : ... .. . ... ... ... : ... .. . ... ... ... : ... .. . ... ... ... : ... .. . ... ... ... : ... .. . ... ... ... : ... .. . ... ... ...
ROW 5D : ... .. . ... ... ... : ... .. . ... ... ... : --- .. . ... ... ... : ... .. . ... ... ... : ... .. . ... ... ... : ... .. . ... ... ...
ROW 5E : ... .. 3 ... ... ... : ... .. . ... ... ... : ... .. . ... ... ... : ... .. . ... ... ... : ... .. . ... ... ... : ... .. . ... ... ...
ROW 5F : ... .. . ... ... ... : ... .. . ... ... ... : ... .. . ... ... ... : ... .. . ... ... ... : ... .. . ... ... ... : ... .. 2 ... ... ...
ROW 60 : G-1 02 7 ... ... ... : ... .. . ... ... ... : G-1 00 . ... ... ... : ... .. . ... ... ... : A#1 05 . ... ... ... : G-2 04 7 ... ... ...
ROW 61 : G-1 01 . ... ... ... : ... .. . ... ... ... : ... .. . ... ... ... : ... .. . ... ... ... : ... .. . ... ... ... : ... .. . ... ... ...
ROW 62 : ... .. . ... ... ... : ... .. . ... ... ... : ... .. . ... ... ... : ... .. . ... ... ... : ... .. . ... ... ... : ... .. 5 ... ... ...
ROW 63 : ... .. . ... ... ... : ... .. . ... ... ... : ... .. . ... ... ... : ... .. . ... ... ... : ... .. . ... ... ... : ... .. . ... ... ...
ROW 64 : ... .. . ... ... ... : ... .. . ... ... ... : ... .. . ... ... ... : ... .. . ... ... ... : ... .. . ... ... ... : ... .. . ... ... ...
ROW 65 : ... .. . ... ... ... : ... .. . ... ... ... : ... .. . ... ... ... : ... .. . ... ... ... : ... .. . ... ... ... : ... .. 4 ... ... ...
ROW 66 : ... .. . ... ... ... : ... .. . ... ... ... : ... .. . ... ... ... : ... .. . ... ... ... : A#1 05 . ... ... ... : ... .. . ... ... ...
ROW 67 : ... .. . ... ... ... : ... .. . ... ... ... : ... .. . ... ... ... : ... .. . ... ... ... : ... .. . ... ... ... : ... .. . ... ... ...
ROW 68 : ... .. . ... ... ... : ... .. . ... ... ... : ... .. . ... ... ... : ... .. . ... ... ... : ... .. . ... ... ... : ... .. . ... ... ...
ROW 69 : ... .. . ... ... ... : ... .. . ... ... ... : --- .. . ... ... ... : ... .. . ... ... ... : ... .. . ... ... ... : ... .. . ... ... ...
ROW 6A : ... .. 3 ... ... ... : ... .. . ... ... ... : ... .. . ... ... ... : ... .. . ... ... ... : ... .. . ... ... ... : ... .. . ... ... ...
ROW 6B : ... .. . ... ... ... : ... .. . ... ... ... : ... .. . ... ... ... : ... .. . ... ... ... : ... .. . ... ... ... : ... .. 2 ... ... ...
ROW 6C : G#1 02 7 ... ... ... : ... .. . ... ... ... : G-1 00 . ... ... ... : ... .. . ... ... ... : A#1 05 . ... ... ... : G#2 04 . ... ... ...
ROW 6D : G#1 01 . ... ... ... : ... .. . ... ... ... : ... .. . ... ... ... : ... .. . ... ... ... : ... .. . ... ... ... : ... .. 6 ... ... ...
ROW 6E : ... .. . ... ... ... : ... .. . ... ... ... : ... .. . ... ... ... : ... .. . ... ... ... : ... .. . ... ... ... : ... .. 5 ... ... ...
ROW 6F : ... .. . ... ... ... : ... .. . ... ... ... : ... .. . ... ... ... : ... .. . ... ... ... : ... .. . ... ... ... : ... .. . ... ... ...
ROW 70 : ... .. . ... ... ... : ... .. . ... ... ... : ... .. . ... ... ... : ... .. . ... ... ... : ... .. . ... ... ... : ... .. . ... ... ...
ROW 71 : ... .. . ... ... ... : ... .. . ... ... ... : ... .. . ... ... ... : ... .. . ... ... ... : ... .. . ... ... ... : ... .. 4 ... ... ...
ROW 72 : ... .. . ... ... ... : ... .. . ... ... ... : ... .. . ... ... ... : ... .. . ... ... ... : A#1 05 . ... ... ... : ... .. . ... ... ...
ROW 73 : ... .. . ... ... ... : ... .. . ... ... ... : ... .. . ... ... ... : ... .. . ... ... ... : ... .. . ... ... ... : ... .. . ... ... ...
ROW 74 : ... .. . ... ... ... : ... .. . ... ... ... : ... .. . ... ... ... : ... .. . ... ... ... : ... .. . ... ... ... : ... .. . ... ... ...
ROW 75 : ... .. . ... ... ... : ... .. . ... ... ... : --- .. . ... ... ... : ... .. . ... ... ... : ... .. . ... ... ... : ... .. . ... ... ...
ROW 76 : ... .. 3 ... ... ... : ... .. . ... ... ... : ... .. . ... ... ... : ... .. . ... ... ... : ... .. . ... ... ... : ... .. . ... ... ...
ROW 77 : ... .. . ... ... ... : ... .. . ... ... ... : ... .. . ... ... ... : ... .. . ... ... ... : ... .. . ... ... ... : ... .. 2 ... ... ...
ROW 78 : G-1 02 7 ... ... ... : ... .. . ... ... ... : G-1 00 . ... ... ... : ... .. . ... ... ... : A#1 05 . ... ... ... : G-2 04 7 ... ... ...
ROW 79 : G-1 01 . ... ... ... : ... .. . ... ... ... : ... .. . ... ... ... : ... .. . ... ... ... : ... .. . ... ... ... : ... .. 6 ... ... ...
ROW 7A : ... .. . ... ... ... : ... .. . ... ... ... : ... .. . ... ... ... : ... .. . ... ... ... : ... .. . ... ... ... : ... .. . ... ... ...
ROW 7B : ... .. . ... ... ... : ... .. . ... ... ... : ... .. . ... ... ... : ... .. . ... ... ... : ... .. . ... ... ... : ... .. 5 ... ... ...
ROW 7C : ... .. . ... ... ... : ... .. . ... ... ... : ... .. . ... ... ... : ... .. . ... ... ... : ... .. . ... ... ... : ... .. . ... ... ...
ROW 7D : ... .. . ... ... ... : ... .. . ... ... ... : ... .. . ... ... ... : ... .. . ... ... ... : ... .. . ... ... ... : ... .. 4 ... ... ...
ROW 7E : ... .. . ... ... ... : ... .. . ... ... ... : ... .. . ... ... ... : ... .. . ... ... ... : A#1 05 . ... ... ... : ... .. . ... ... ...
ROW 7F : ... .. . ... ... ... : ... .. . ... ... ... : ... .. . ... ... ... : ... .. . ... ... ... : ... .. . ... ... ... : ... .. . ... ... ...
ROW 80 : ... .. . ... ... ... : ... .. . ... ... ... : ... .. . ... ... ... : ... .. . ... ... ... : ... .. . ... ... ... : ... .. . ... ... ...
ROW 81 : ... .. . ... ... ... : ... .. . ... ... ... : --- .. . ... ... ... : ... .. . ... ... ... : ... .. . ... ... ... : ... .. . ... ... ...
ROW 82 : ... .. 3 ... ... ... : ... .. . ... ... ... : ... .. . ... ... ... : ... .. . ... ... ... : ... .. . ... ... ... : ... .. . ... ... ...
ROW 83 : ... .. . ... ... ... : ... .. . ... ... ... : ... .. . ... ... ... : ... .. . ... ... ... : ... .. . ... ... ... : ... .. 2 ... ... ...
ROW 84 : G-1 02 7 ... ... ... : ... .. . ... ... ... : G-1 00 . ... ... ... : ... .. . ... ... ... : A#1 05 . ... ... ... : ... .. 7 ... ... ...
ROW 85 : G-1 01 . ... ... ... : ... .. . ... ... ... : ... .. . ... ... ... : ... .. . ... ... ... : ... .. . ... ... ... : ... .. . ... ... ...
ROW 86 : ... .. . ... ... ... : ... .. . ... ... ... : ... .. . ... ... ... : ... .. . ... ... ... : ... .. . ... ... ... : ... .. 5 ... ... ...
ROW 87 : ... .. . ... ... ... : ... .. . ... ... ... : ... .. . ... ... ... : ... .. . ... ... ... : ... .. . ... ... ... : ... .. . ... ... ...
ROW 88 : ... .. . ... ... ... : ... .. . ... ... ... : ... .. . ... ... ... : ... .. . ... ... ... : ... .. . ... ... ... : ... .. . ... ... ...
ROW 89 : ... .. . ... ... ... : ... .. . ... ... ... : ... .. . ... ... ... : ... .. . ... ... ... : ... .. . ... ... ... : ... .. 4 ... ... ...
ROW 8A : ... .. . ... ... ... : ... .. . ... ... ... : ... .. . ... ... ... : ... .. . ... ... ... : A#1 05 . ... ... ... : ... .. . ... ... ...
ROW 8B : ... .. . ... ... ... : ... .. . ... ... ... : ... .. . ... ... ... : ... .. . ... ... ... : ... .. . ... ... ... : ... .. . ... ... ...
ROW 8C : ... .. . ... ... ... : ... .. . ... ... ... : ... .. . ... ... ... : ... .. . ... ... ... : ... .. . ... ... ... : ... .. . ... ... ...
ROW 8D : ... .. . ... ... ... : ... .. . ... ... ... : --- .. . ... ... ... : ... .. . ... ... ... : ... .. . ... ... ... : ... .. . ... ... ...
ROW 8E : ... .. 3 ... ... ... : ... .. . ... ... ... : ... .. . ... ... ... : ... .. . ... ... ... : ... .. . ... ... ... : ... .. . ... ... ...
ROW 8F : ... .. . ... ... ... : ... .. . ... ... ... : ... .. . ... ... ... : ... .. . ... ... ... : ... .. . ... ... ... : ... .. 2 ... ... ...
ROW 90 : C-2 02 7 ... ... ... : ... .. . ... ... ... : G-1 00 . ... ... ... : ... .. . ... ... ... : A#1 05 . ... ... ... : C-3 04 7 ... ... ...
ROW 91 : C-2 01 . ... ... ... : ... .. . ... ... ... : ... .. . ... ... ... : ... .. . ... ... ... : ... .. . ... ... ... : ... .. 6 ... ... ...
ROW 92 : ... .. . ... ... ... : ... .. . ... ... ... : ... .. . ... ... ... : ... .. . ... ... ... : ... .. . ... ... ... : ... .. 5 ... ... ...
ROW 93 : ... .. . ... ... ... : ... .. . ... ... ... : ... .. . ... ... ... : ... .. . ... ... ... : ... .. . ... ... ... : ... .. . ... ... ...
ROW 94 : ... .. . ... ... ... : ... .. . ... ... ... : ... .. . ... ... ... : ... .. . ... ... ... : ... .. . ... ... ... : ... .. . ... ... ...
ROW 95 : ... .. . ... ... ... : ... .. . ... ... ... : ... .. . ... ... ... : ... .. . ... ... ... : ... .. . ... ... ... : ... .. 4 ... ... ...
ROW 96 : ... .. . ... ... ... : ... .. . ... ... ... : ... .. . ... ... ... : ... .. . ... ... ... : A#1 05 . ... ... ... : ... .. . ... ... ...
ROW 97 : ... .. . ... ... ... : ... .. . ... ... ... : ... .. . ... ... ... : ... .. . ... ... ... : ... .. . ... ... ... : ... .. . ... ... ...
ROW 98 : ... .. . ... ... ... : ... .. . ... ... ... : ... .. . ... ... ... : ... .. . ... ... ... : ... .. . ... ... ... : ... .. . ... ... ...
ROW 99 : ... .. . ... ... ... : ... .. . ... ... ... : --- .. . ... ... ... : ... .. . ... ... ... : ... .. . ... ... ... : ... .. . ... ... ...
ROW 9A : ... .. 3 ... ... ... : ... .. . ... ... ... : ... .. . ... ... ... : ... .. . ... ... ... : ... .. . ... ... ... : ... .. . ... ... ...
ROW 9B : ... .. . ... ... ... : ... .. . ... ... ... : ... .. . ... ... ... : ... .. . ... ... ... : ... .. . ... ... ... : ... .. 2 ... ... ...
ROW 9C : G-1 02 7 ... ... ... : ... .. . ... ... ... : G-1 00 . ... ... ... : ... .. . ... ... ... : A#1 05 . ... ... ... : G-2 04 . ... ... ...
ROW 9D : G-1 01 . ... ... ... : ... .. . ... ... ... : ... .. . ... ... ... : ... .. . ... ... ... : ... .. . ... ... ... : ... .. 6 ... ... ...
ROW 9E : ... .. . ... ... ... : ... .. . ... ... ... : ... .. . ... ... ... : ... .. . ... ... ... : ... .. . ... ... ... : ... .. 5 ... ... ...
ROW 9F : ... .. . ... ... ... : ... .. . ... ... ... : ... .. . ... ... ... : ... .. . ... ... ... : ... .. . ... ... ... : ... .. . ... ... ...
ROW A0 : ... .. . ... ... ... : ... .. . ... ... ... : ... .. . ... ... ... : ... .. . ... ... ... : ... .. . ... ... ... : ... .. . ... ... ...
ROW A1 : ... .. . ... ... ... : ... .. . ... ... ... : ... .. . ... ... ... : ... .. . ... ... ... : ... .. . ... ... ... : ... .. . ... ... ...
ROW A2 : ... .. . ... ... ... : ... .. . ... ... ... : ... .. . ... ... ... : ... .. . ... ... ... : A#1 05 . ... ... ... : ... .. 4 ... ... ...
ROW A3 : ... .. . ... ... ... : ... .. . ... ... ... : ... .. . ... ... ... : ... .. . ... ... ... : ... .. . ... ... ... : ... .. . ... ... ...
ROW A4 : ... .. . ... ... ... : ... .. . ... ... ... : ... .. . ... ... ... : ... .. . ... ... ... : ... .. . ... ... ... : ... .. . ... ... ...
ROW A5 : ... .. . ... ... ... : ... .. . ... ... ... : --- .. . ... ... ... : ... .. . ... ... ... : ... .. . ... ... ... : ... .. . ... ... ...
ROW A6 : ... .. 3 ... ... ... : ... .. . ... ... ... : ... .. . ... ... ... : ... .. . ... ... ... : ... .. . ... ... ... : ... .. . ... ... ...
ROW A7 : ... .. . ... ... ... : ... .. . ... ... ... : ... .. . ... ... ... : ... .. . ... ... ... : ... .. . ... ... ... : ... .. . ... ... ...
ROW A8 : G-1 02 7 ... ... ... : ... .. . ... ... ... : G-1 00 . ... ... ... : ... .. . ... ... ... : A#1 05 . ... ... ... : ... .. 2 ... ... ...
ROW A9 : G-1 01 . ... ... ... : ... .. . ... ... ... : ... .. . ... ... ... : ... .. . ... ... ... : ... .. . ... ... ... : ... .. 6 ... ... ...
ROW AA : ... .. . ... ... ... : ... .. . ... ... ... : ... .. . ... ... ... : ... .. . ... ... ... : ... .. . ... ... ... : ... .. 5 ... ... ...
ROW AB : ... .. . ... ... ... : ... .. . ... ... ... : ... .. . ... ... ... : ... .. . ... ... ... : ... .. . ... ... ... : ... .. . ... ... ...
ROW AC : ... .. . ... ... ... : ... .. . ... ... ... : ... .. . ... ... ... : ... .. . ... ... ... : ... .. . ... ... ... : ... .. . ... ... ...
ROW AD : ... .. . ... ... ... : ... .. . ... ... ... : ... .. . ... ... ... : ... .. . ... ... ... : ... .. . ... ... ... : ... .. . ... ... ...
ROW AE : ... .. . ... ... ... : ... .. . ... ... ... : ... .. . ... ... ... : ... .. . ... ... ... : A#1 05 . ... ... ... : ... .. 4 ... ... ...
ROW AF : ... .. . ... ... ... : ... .. . ... ... ... : ... .. . ... ... ... : ... .. . ... ... ... : ... .. . ... ... ... : ... .. . ... ... ...
ROW B0 : ... .. . ... ... ... : ... .. . ... ... ... : ... .. . ... ... ... : ... .. . ... ... ... : ... .. . ... ... ... : ... .. . ... ... ...
ROW B1 : ... .. . ... ... ... : ... .. . ... ... ... : --- .. . ... ... ... : ... .. . ... ... ... : ... .. . ... ... ... : ... .. . ... ... ...
ROW B2 : ... .. 3 ... ... ... : ... .. . ... ... ... : ... .. . ... ... ... : ... .. . ... ... ... : ... .. . ... ... ... : ... .. . ... ... ...
ROW B3 : ... .. . ... ... ... : ... .. . ... ... ... : ... .. . ... ... ... : ... .. . ... ... ... : ... .. . ... ... ... : ... .. 2 ... ... ...
ROW B4 : D-2 02 7 ... ... ... : ... .. . ... ... ... : G-1 00 . ... ... ... : ... .. . ... ... ... : A#1 05 . ... ... ... : D-3 04 7 ... ... ...
ROW B5 : D-2 01 . ... ... ... : ... .. . ... ... ... : ... .. . ... ... ... : ... .. . ... ... ... : ... .. . ... ... ... : ... .. 6 ... ... ...
ROW B6 : ... .. . ... ... ... : ... .. . ... ... ... : ... .. . ... ... ... : ... .. . ... ... ... : ... .. . ... ... ... : ... .. 5 ... ... ...
ROW B7 : ... .. . ... ... ... : ... .. . ... ... ... : ... .. . ... ... ... : ... .. . ... ... ... : ... .. . ... ... ... : ... .. . ... ... ...
ROW B8 : ... .. . ... ... ... : ... .. . ... ... ... : ... .. . ... ... ... : ... .. . ... ... ... : ... .. . ... ... ... : ... .. . ... ... ...
ROW B9 : ... .. . ... ... ... : ... .. . ... ... ... : ... .. . ... ... ... : ... .. . ... ... ... : ... .. . ... ... ... : ... .. 4 ... ... ...
ROW BA : ... .. . ... ... ... : ... .. . ... ... ... : ... .. . ... ... ... : ... .. . ... ... ... : A#1 05 . ... ... ... : ... .. . ... ... ...
ROW BB : ... .. . ... ... ... : ... .. . ... ... ... : ... .. . ... ... ... : ... .. . ... ... ... : ... .. . ... ... ... : ... .. . ... ... ...
ROW BC : ... .. . ... ... ... : ... .. . ... ... ... : ... .. . ... ... ... : ... .. . ... ... ... : ... .. . ... ... ... : ... .. . ... ... ...
ROW BD : ... .. . ... ... ... : ... .. . ... ... ... : --- .. . ... ... ... : ... .. . ... ... ... : ... .. . ... ... ... : ... .. . ... ... ...
ROW BE : ... .. 3 ... ... ... : ... .. . ... ... ... : ... .. . ... ... ... : ... .. . ... ... ... : ... .. . ... ... ... : ... .. . ... ... ...
ROW BF : ... .. . ... ... ... : ... .. . ... ... ... : ... .. . ... ... ... : ... .. . ... ... ... : ... .. . ... ... ... : ... .. 2 ... ... ...
ROW C0 : G-1 02 7 ... ... ... : ... .. . ... ... ... : G-1 00 . ... ... ... : ... .. . ... ... ... : A#1 05 . ... ... ... : G-2 04 7 ... ... ...
ROW C1 : G-1 01 . ... ... ... : ... .. . ... ... ... : ... .. . ... ... ... : ... .. . ... ... ... : ... .. . ... ... ... : ... .. . ... ... ...
ROW C2 : ... .. . ... ... ... : ... .. . ... ... ... : ... .. . ... ... ... : ... .. . ... ... ... : ... .. . ... ... ... : ... .. 6 ... ... ...
ROW C3 : ... .. . ... ... ... : ... .. . ... ... ... : ... .. . ... ... ... : ... .. . ... ... ... : ... .. . ... ... ... : ... .. 5 ... ... ...
ROW C4 : ... .. . ... ... ... : ... .. . ... ... ... : ... .. . ... ... ... : ... .. . ... ... ... : ... .. . ... ... ... : ... .. . ... ... ...
ROW C5 : ... .. . ... ... ... : ... .. . ... ... ... : ... .. . ... ... ... : ... .. . ... ... ... : ... .. . ... ... ... : ... .. 4 ... ... ...
ROW C6 : ... .. . ... ... ... : ... .. . ... ... ... : ... .. . ... ... ... : ... .. . ... ... ... : A#1 05 . ... ... ... : ... .. . ... ... ...
ROW C7 : ... .. . ... ... ... : ... .. . ... ... ... : ... .. . ... ... ... : ... .. . ... ... ... : ... .. . ... ... ... : ... .. . ... ... ...
ROW C8 : ... .. . ... ... ... : ... .. . ... ... ... : ... .. . ... ... ... : ... .. . ... ... ... : ... .. . ... ... ... : ... .. . ... ... ...
ROW C9 : ... .. . ... ... ... : ... .. . ... ... ... : --- .. . ... ... ... : ... .. . ... ... ... : ... .. . ... ... ... : ... .. . ... ... ...
ROW CA : ... .. 3 ... ... ... : ... .. . ... ... ... : ... .. . ... ... ... : ... .. . ... ... ... : ... .. . ... ... ... : ... .. . ... ... ...
ROW CB : ... .. . ... ... ... : ... .. . ... ... ... : ... .. . ... ... ... : ... .. . ... ... ... : ... .. . ... ... ... : ... .. 2 ... ... ...
ROW CC : C#2 02 7 ... ... ... : ... .. . ... ... ... : C#2 00 . ... ... ... : ... .. . ... ... ... : A#1 05 . ... ... ... : C#3 04 7 ... ... ...
ROW CD : C#2 01 . ... ... ... : ... .. . ... ... ... : ... .. . ... ... ... : ... .. . ... ... ... : ... .. . ... ... ... : ... .. 6 ... ... ...
ROW CE : ... .. . ... ... ... : ... .. . ... ... ... : ... .. . ... ... ... : ... .. . ... ... ... : ... .. . ... ... ... : ... .. 5 ... ... ...
ROW CF : ... .. . ... ... ... : ... .. . ... ... ... : ... .. . ... ... ... : ... .. . ... ... ... : ... .. . ... ... ... : ... .. . ... ... ...
ROW D0 : ... .. . ... ... ... : ... .. . ... ... ... : ... .. . ... ... ... : ... .. . ... ... ... : ... .. . ... ... ... : ... .. . ... ... ...
ROW D1 : ... .. . ... ... ... : ... .. . ... ... ... : ... .. . ... ... ... : ... .. . ... ... ... : ... .. . ... ... ... : ... .. 4 ... ... ...
ROW D2 : ... .. . ... ... ... : ... .. . ... ... ... : ... .. . ... ... ... : ... .. . ... ... ... : A#1 05 . ... ... ... : ... .. . ... ... ...
ROW D3 : ... .. . ... ... ... : ... .. . ... ... ... : ... .. . ... ... ... : ... .. . ... ... ... : ... .. . ... ... ... : ... .. . ... ... ...
ROW D4 : ... .. . ... ... ... : ... .. . ... ... ... : ... .. . ... ... ... : ... .. . ... ... ... : ... .. . ... ... ... : ... .. . ... ... ...
ROW D5 : ... .. . ... ... ... : ... .. . ... ... ... : --- .. . ... ... ... : ... .. . ... ... ... : ... .. . ... ... ... : ... .. . ... ... ...
ROW D6 : ... .. 3 ... ... ... : ... .. . ... ... ... : ... .. . ... ... ... : ... .. . ... ... ... : ... .. . ... ... ... : ... .. . ... ... ...
ROW D7 : ... .. . ... ... ... : ... .. . ... ... ... : ... .. . ... ... ... : ... .. . ... ... ... : ... .. . ... ... ... : ... .. 2 ... ... ...
ROW D8 : G-1 00 9 ... ... ... : G-2 01 6 ... ... ... : G-2 00 . ... ... ... : 9-# 01 B ... ... ... : D-1 05 . ... ... ... : G-2 04 . ... ... ...
ROW D9 : G-1 03 . ... ... ... : G-2 02 . ... ... ... : ... .. . ... ... ... : A-# 00 8 ... ... ... : ... .. . ... ... ... : ... .. 6 ... ... ...
ROW DA : G-1 02 . ... ... ... : G-2 00 . ... ... ... : ... .. . ... ... ... : ... .. 7 ... ... ... : ... .. . ... ... ... : ... .. 5 ... ... ...
ROW DB : G-1 01 . ... ... ... : ... .. . ... ... ... : ... .. . ... ... ... : B-# 01 6 ... ... ... : ... .. . ... ... ... : ... .. . ... ... ...
ROW DC : ... .. . ... ... ... : ... .. . ... ... ... : ... .. . ... ... ... : A-# 01 . ... ... ... : ... .. . ... ... ... : ... .. . ... ... ...
ROW DD : ... .. . ... ... ... : ... .. . ... ... ... : ... .. . ... ... ... : B-# 00 5 ... ... ... : ... .. . ... ... ... : ... .. . ... ... ...
ROW DE : ... .. . ... ... ... : ... .. . ... ... ... : ... .. . ... ... ... : ... .. . ... ... ... : A#1 05 . ... ... ... : ... .. 4 ... ... ...
ROW DF : ... .. . ... ... ... : ... .. . ... ... ... : ... .. . ... ... ... : ... .. . ... ... ... : ... .. . ... ... ... : ... .. . ... ... ...
ROW E0 : ... .. . ... ... ... : ... .. . ... ... ... : ... .. . ... ... ... : ... .. 4 ... ... ... : ... .. . ... ... ... : ... .. . ... ... ...
ROW E1 : ... .. . ... ... ... : ... .. . ... ... ... : ... .. . ... ... ... : ... .. . ... ... ... : ... .. . ... ... ... : ... .. . ... ... ...
ROW E2 : ... .. . ... ... ... : ... .. 3 ... ... ... : ... .. . ... ... ... : ... .. . ... ... ... : ... .. . ... ... ... : ... .. . ... ... ...
ROW E3 : ... .. . ... ... ... : ... .. 2 ... ... ... : --- .. . ... ... ... : ... .. . ... ... ... : ... .. . ... ... ... : ... .. . ... ... ...
ROW E4 : ... .. . ... ... ... : ... .. . ... ... ... : G-1 00 . ... ... ... : ... .. . ... ... ... : A#1 05 . ... ... ... : ... .. 7 ... ... ...
ROW E5 : ... .. . ... ... ... : ... .. . ... ... ... : ... .. . ... ... ... : ... .. . ... ... ... : ... .. . ... ... ... : ... .. 6 ... ... ...
ROW E6 : ... .. . ... ... ... : ... .. . ... ... ... : ... .. . ... ... ... : ... .. . ... ... ... : ... .. . ... ... ... : ... .. 5 ... ... ...
ROW E7 : ... .. . ... ... ... : ... .. 1 ... ... ... : ... .. . ... ... ... : ... .. 3 ... ... ... : ... .. . ... ... ... : ... .. . ... ... ...
ROW E8 : ... .. 4 ... ... ... : ... .. . ... ... ... : ... .. . ... ... ... : ... .. . ... ... ... : ... .. . ... ... ... : ... .. . ... ... ...
ROW E9 : ... .. . ... ... ... : ... .. . ... ... ... : ... .. . ... ... ... : ... .. . ... ... ... : ... .. . ... ... ... : ... .. 4 ... ... ...
ROW EA : ... .. 3 ... ... ... : ... .. . ... ... ... : ... .. . ... ... ... : ... .. . ... ... ... : A#1 05 . ... ... ... : ... .. . ... ... ...
ROW EB : ... .. . ... ... ... : ... .. . ... ... ... : ... .. . ... ... ... : ... .. . ... ... ... : ... .. . ... ... ... : ... .. . ... ... ...
ROW EC : ... .. . ... ... ... : ... .. . ... ... ... : ... .. . ... ... ... : ... .. . ... ... ... : ... .. . ... ... ... : ... .. . ... ... ...
ROW ED : ... .. 2 ... ... ... : ... .. . ... ... ... : --- .. . ... ... ... : ... .. . ... ... ... : ... .. . ... ... ... : ... .. . ... ... ...
ROW EE : ... .. . ... ... ... : ... .. . ... ... ... : ... .. . ... ... ... : ... .. . ... ... ... : ... .. . ... ... ... : ... .. . ... ... ...
ROW EF : ... .. . ... ... ... : ... .. . ... ... ... : ... .. . ... ... ... : ... .. . ... ... ... : ... .. . ... ... ... : ... .. 2 ... ... ...
ROW F0 : G#1 02 7 ... ... ... : ... .. . ... ... ... : G-1 00 . ... ... ... : ... .. 2 ... ... ... : A#1 05 . ... ... ... : G#2 04 7 ... ... ...
ROW F1 : G#1 01 . ... ... ... : ... .. . ... ... ... : ... .. . ... ... ... : ... .. . ... ... ... : ... .. . ... ... ... : ... .. 6 ... ... ...
ROW F2 : ... .. . ... ... ... : ... .. . ... ... ... : ... .. . ... ... ... : ... .. . ... ... ... : ... .. . ... ... ... : ... .. 5 ... ... ...
ROW F3 : ... .. . ... ... ... : --- .. . ... ... ... : ... .. . ... ... ... : ... .. . ... ... ... : ... .. . ... ... ... : ... .. . ... ... ...
ROW F4 : ... .. . ... ... ... : ... .. . ... ... ... : ... .. . ... ... ... : ... .. . ... ... ... : ... .. . ... ... ... : ... .. . ... ... ...
ROW F5 : ... .. . ... ... ... : ... .. . ... ... ... : ... .. . ... ... ... : ... .. . ... ... ... : ... .. . ... ... ... : ... .. 4 ... ... ...
ROW F6 : ... .. . ... ... ... : ... .. . ... ... ... : ... .. . ... ... ... : ... .. . ... ... ... : A#1 05 . ... ... ... : ... .. . ... ... ...
ROW F7 : ... .. . ... ... ... : ... .. . ... ... ... : ... .. . ... ... ... : ... .. . ... ... ... : ... .. . ... ... ... : ... .. . ... ... ...
ROW F8 : ... .. . ... ... ... : ... .. . ... ... ... : ... .. . ... ... ... : ... .. . ... ... ... : ... .. . ... ... ... : ... .. . ... ... ...
ROW F9 : ... .. . ... ... ... : ... .. . ... ... ... : --- .. . ... ... ... : ... .. . ... ... ... : ... .. . ... ... ... : ... .. . ... ... ...
ROW FA : ... .. 3 ... ... ... : ... .. . ... ... ... : ... .. . ... ... ... : ... .. 1 ... ... ... : ... .. . ... ... ... : ... .. . ... ... ...
ROW FB : ... .. . ... ... ... : ... .. . ... ... ... : ... .. . ... ... ... : ... .. . ... ... ... : ... .. . ... ... ... : ... .. . ... ... ...
ROW FC : G-1 02 7 ... ... ... : ... .. . ... ... ... : G-1 00 . ... ... ... : ... .. . ... ... ... : A#1 05 . ... ... ... : G-2 04 2 ... ... ...
ROW FD : G-1 01 . ... ... ... : ... .. . ... ... ... : ... .. . ... ... ... : ... .. . ... ... ... : ... .. . ... ... ... : ... .. 6 ... ... ...
ROW FE : ... .. . ... ... ... : ... .. . ... ... ... : ... .. . ... ... ... : ... .. . ... ... ... : ... .. . ... ... ... : ... .. 5 ... ... ...
ROW FF : ... .. . ... ... ... : ... .. . ... ... ... : ... .. . ... ... ... : ... .. . ... ... ... : ... .. . ... ... ... : ... .. . ... ... ...

PATTERN 0F
ROW 00 : ... .. . ... ... ... : ... .. . ... ... ... : ... .. . ... ... ... : ... .. . ... ... ... : ... .. . ... ... ... : ... .. . ... ... ...
ROW 01 : ... .. . ... ... ... : ... .. . ... ... ... : ... .. . ... ... ... : ... .. . ... ... ... : ... .. . ... ... ... : ... .. . ... ... ...
ROW 02 : ... .. . ... ... ... : ... .. . ... ... ... : ... .. . ... ... ... : ... .. . ... ... ... : A#1 05 . ... ... ... : ... .. 4 ... ... ...
ROW 03 : ... .. . ... ... ... : ... .. . ... ... ... : ... .. . ... ... ... : ... .. . ... ... ... : ... .. . ... ... ... : ... .. . ... ... ...
ROW 04 : ... .. . ... ... ... : ... .. . ... ... ... : ... .. . ... ... ... : ... .. . ... ... ... : ... .. . ... ... ... : ... .. . ... ... ...
ROW 05 : ... .. . ... ... ... : ... .. . ... ... ... : --- .. . ... ... ... : ... .. . ... ... ... : ... .. . ... ... ... : ... .. . ... ... ...
ROW 06 : ... .. 3 ... ... ... : ... .. . ... ... ... : ... .. . ... ... ... : ... .. . ... ... ... : ... .. . ... ... ... : ... .. . ... ... ...
ROW 07 : ... .. . ... ... ... : ... .. . ... ... ... : ... .. . ... ... ... : ... .. . ... ... ... : ... .. . ... ... ... : ... .. 2 ... ... ...
ROW 08 : G-1 02 7 ... ... ... : ... .. . ... ... ... : G-1 00 . ... ... ... : ... .. . ... ... ... : A#1 05 . ... ... ... : ... .. 7 ... ... ...
ROW 09 : G-1 01 . ... ... ... : ... .. . ... ... ... : ... .. . ... ... ... : ... .. . ... ... ... : ... .. . ... ... ... : ... .. 6 ... ... ...
ROW 0A : ... .. . ... ... ... : ... .. . ... ... ... : ... .. . ... ... ... : ... .. . ... ... ... : ... .. . ... ... ... : ... .. 5 ... ... ...
ROW 0B : ... .. . ... ... ... : ... .. . ... ... ... : ... .. . ... ... ... : --- .. . ... ... ... : ... .. . ... ... ... : ... .. . ... ... ...
ROW 0C : ... .. . ... ... ... : ... .. . ... ... ... : ... .. . ... ... ... : ... .. . ... ... ... : ... .. . ... ... ... : ... .. . ... ... ...
ROW 0D : ... .. . ... ... ... : ... .. . ... ... ... : ... .. . ... ... ... : ... .. . ... ... ... : ... .. . ... ... ... : ... .. 4 ... ... ...
ROW 0E : ... .. . ... ... ... : ... .. . ... ... ... : ... .. . ... ... ... : ... .. . ... ... ... : A#1 05 . ... ... ... : ... .. . ... ... ...
ROW 0F : ... .. . ... ... ... : ... .. . ... ... ... : ... .. . ... ... ... : ... .. . ... ... ... : ... .. . ... ... ... : ... .. . ... ... ...
ROW 10 : ... .. . ... ... ... : ... .. . ... ... ... : ... .. . ... ... ... : ... .. . ... ... ... : ... .. . ... ... ... : ... .. . ... ... ...
ROW 11 : ... .. . ... ... ... : ... .. . ... ... ... : --- .. . ... ... ... : ... .. . ... ... ... : ... .. . ... ... ... : ... .. . ... ... ...
ROW 12 : ... .. 3 ... ... ... : ... .. . ... ... ... : ... .. . ... ... ... : ... .. . ... ... ... : ... .. . ... ... ... : ... .. . ... ... ...
ROW 13 : ... .. . ... ... ... : ... .. . ... ... ... : ... .. . ... ... ... : ... .. . ... ... ... : ... .. . ... ... ... : ... .. 2 ... ... ...
ROW 14 : A#1 02 7 ... ... ... : ... .. . ... ... ... : G-1 00 . ... ... ... : ... .. . ... ... ... : A#1 05 . ... ... ... : A#2 04 7 ... ... ...
ROW 15 : A#1 01 . ... ... ... : ... .. . ... ... ... : ... .. . ... ... ... : ... .. . ... ... ... : ... .. . ... ... ... : ... .. 6 ... ... ...
ROW 16 : ... .. . ... ... ... : ... .. . ... ... ... : ... .. . ... ... ... : ... .. . ... ... ... : ... .. . ... ... ... : ... .. 5 ... ... ...
ROW 17 : ... .. . ... ... ... : ... .. . ... ... ... : ... .. . ... ... ... : ... .. . ... ... ... : ... .. . ... ... ... : ... .. . ... ... ...
ROW 18 : ... .. . ... ... ... : ... .. . ... ... ... : ... .. . ... ... ... : ... .. . ... ... ... : ... .. . ... ... ... : ... .. . ... ... ...
ROW 19 : ... .. . ... ... ... : ... .. . ... ... ... : ... .. . ... ... ... : ... .. . ... ... ... : ... .. . ... ... ... : ... .. 4 ... ... ...
ROW 1A : ... .. . ... ... ... : ... .. . ... ... ... : ... .. . ... ... ... : ... .. . ... ... ... : A#1 05 . ... ... ... : ... .. . ... ... ...
ROW 1B : ... .. . ... ... ... : ... .. . ... ... ... : ... .. . ... ... ... : ... .. . ... ... ... : ... .. . ... ... ... : ... .. . ... ... ...
ROW 1C : ... .. . ... ... ... : ... .. . ... ... ... : ... .. . ... ... ... : ... .. . ... ... ... : ... .. . ... ... ... : ... .. . ... ... ...
ROW 1D : ... .. . ... ... ... : ... .. . ... ... ... : --- .. . ... ... ... : ... .. . ... ... ... : ... .. . ... ... ... : ... .. . ... ... ...
ROW 1E : ... .. 3 ... ... ... : ... .. . ... ... ... : ... .. . ... ... ... : ... .. . ... ... ... : ... .. . ... ... ... : ... .. . ... ... ...
ROW 1F : ... .. . ... ... ... : ... .. . ... ... ... : ... .. . ... ... ... : ... .. . ... ... ... : ... .. . ... ... ... : ... .. 2 ... ... ...
ROW 20 : G-1 02 7 ... ... ... : ... .. . ... ... ... : G-1 00 . ... ... ... : ... .. . ... ... ... : A#1 05 . ... ... ... : G-2 04 7 ... ... ...
ROW 21 : G-1 01 . ... ... ... : ... .. . ... ... ... : ... .. . ... ... ... : ... .. . ... ... ... : ... .. . ... ... ... : ... .. . ... ... ...
ROW 22 : ... .. . ... ... ... : ... .. . ... ... ... : ... .. . ... ... ... : ... .. . ... ... ... : ... .. . ... ... ... : ... .. 5 ... ... ...
ROW 23 : ... .. . ... ... ... : ... .. . ... ... ... : ... .. . ... ... ... : ... .. . ... ... ... : ... .. . ... ... ... : ... .. . ... ... ...
ROW 24 : ... .. . ... ... ... : ... .. . ... ... ... : ... .. . ... ... ... : ... .. . ... ... ... : ... .. . ... ... ... : ... .. . ... ... ...
ROW 25 : ... .. . ... ... ... : ... .. . ... ... ... : ... .. . ... ... ... : ... .. . ... ... ... : ... .. . ... ... ... : ... .. 4 ... ... ...
ROW 26 : ... .. . ... ... ... : ... .. . ... ... ... : ... .. . ... ... ... : ... .. . ... ... ... : A#1 05 . ... ... ... : ... .. . ... ... ...
ROW 27 : ... .. . ... ... ... : ... .. . ... ... ... : ... .. . ... ... ... : ... .. . ... ... ... : ... .. . ... ... ... : ... .. . ... ... ...
ROW 28 : ... .. . ... ... ... : ... .. . ... ... ... : ... .. . ... ... ... : ... .. . ... ... ... : ... .. . ... ... ... : ... .. . ... ... ...
ROW 29 : ... .. . ... ... ... : ... .. . ... ... ... : --- .. . ... ... ... : ... .. . ... ... ... : ... .. . ... ... ... : ... .. . ... ... ...
ROW 2A : ... .. 3 ... ... ... : ... .. . ... ... ... : ... .. . ... ... ... : ... .. . ... ... ... : ... .. . ... ... ... : ... .. . ... ... ...
ROW 2B : ... .. . ... ... ... : ... .. . ... ... ... : ... .. . ... ... ... : ... .. . ... ... ... : ... .. . ... ... ... : ... .. 2 ... ... ...
ROW 2C : G#1 02 7 ... ... ... : ... .. . ... ... ... : G-1 00 . ... ... ... : ... .. . ... ... ... : A#1 05 . ... ... ... : G#2 04 . ... ... ...
ROW 2D : G#1 01 . ... ... ... : ... .. . ... ... ... : ... .. . ... ... ... : ... .. . ... ... ... : ... .. . ... ... ... : ... .. 6 ... ... ...
ROW 2E : ... .. . ... ... ... : ... .. . ... ... ... : ... .. . ... ... ... : ... .. . ... ... ... : ... .. . ... ... ... : ... .. 5 ... ... ...
ROW 2F : ... .. . ... ... ... : ... .. . ... ... ... : ... .. . ... ... ... : ... .. . ... ... ... : ... .. . ... ... ... : ... .. . ... ... ...
ROW 30 : ... .. . ... ... ... : ... .. . ... ... ... : ... .. . ... ... ... : ... .. . ... ... ... : ... .. . ... ... ... : ... .. . ... ... ...
ROW 31 : ... .. . ... ... ... : ... .. . ... ... ... : ... .. . ... ... ... : ... .. . ... ... ... : ... .. . ... ... ... : ... .. 4 ... ... ...
ROW 32 : ... .. . ... ... ... : ... .. . ... ... ... : ... .. . ... ... ... : ... .. . ... ... ... : A#1 05 . ... ... ... : ... .. . ... ... ...
ROW 33 : ... .. . ... ... ... : ... .. . ... ... ... : ... .. . ... ... ... : ... .. . ... ... ... : ... .. . ... ... ... : ... .. . ... ... ...
ROW 34 : ... .. . ... ... ... : ... .. . ... ... ... : ... .. . ... ... ... : ... .. . ... ... ... : ... .. . ... ... ... : ... .. . ... ... ...
ROW 35 : ... .. . ... ... ... : ... .. . ... ... ... : --- .. . ... ... ... : ... .. . ... ... ... : ... .. . ... ... ... : ... .. . ... ... ...
ROW 36 : ... .. 3 ... ... ... : ... .. . ... ... ... : ... .. . ... ... ... : ... .. . ... ... ... : ... .. . ... ... ... : ... .. . ... ... ...
ROW 37 : ... .. . ... ... ... : ... .. . ... ... ... : ... .. . ... ... ... : ... .. . ... ... ... : ... .. . ... ... ... : ... .. 2 ... ... ...
ROW 38 : G-1 02 7 ... ... ... : ... .. . ... ... ... : G-1 00 . ... ... ... : ... .. . ... ... ... : A#1 05 . ... ... ... : G-2 04 7 ... ... ...
ROW 39 : G-1 01 . ... ... ... : ... .. . ... ... ... : ... .. . ... ... ... : ... .. . ... ... ... : ... .. . ... ... ... : ... .. 6 ... ... ...
ROW 3A : ... .. . ... ... ... : ... .. . ... ... ... : ... .. . ... ... ... : ... .. . ... ... ... : ... .. . ... ... ... : ... .. . ... ... ...
ROW 3B : ... .. . ... ... ... : ... .. . ... ... ... : ... .. . ... ... ... : ... .. . ... ... ... : ... .. . ... ... ... : ... .. 5 ... ... ...
ROW 3C : ... .. . ... ... ... : ... .. . ... ... ... : ... .. . ... ... ... : ... .. . ... ... ... : ... .. . ... ... ... : ... .. . ... ... ...
ROW 3D : ... .. . ... ... ... : ... .. . ... ... ... : ... .. . ... ... ... : ... .. . ... ... ... : ... .. . ... ... ... : ... .. 4 ... ... ...
ROW 3E : ... .. . ... ... ... : ... .. . ... ... ... : ... .. . ... ... ... : ... .. . ... ... ... : A#1 05 . ... ... ... : ... .. . ... ... ...
ROW 3F : ... .. . ... ... ... : ... .. . ... ... ... : ... .. . ... ... ... : ... .. . ... ... ... : ... .. . ... ... ... : ... .. . ... ... ...
ROW 40 : ... .. . ... ... ... : ... .. . ... ... ... : ... .. . ... ... ... : ... .. . ... ... ... : ... .. . ... ... ... : ... .. . ... ... ...
ROW 41 : ... .. . ... ... ... : ... .. . ... ... ... : --- .. . ... ... ... : ... .. . ... ... ... : ... .. . ... ... ... : ... .. . ... ... ...
ROW 42 : ... .. 3 ... ... ... : ... .. . ... ... ... : ... .. . ... ... ... : ... .. . ... ... ... : ... .. . ... ... ... : ... .. . ... ... ...
ROW 43 : ... .. . ... ... ... : ... .. . ... ... ... : ... .. . ... ... ... : ... .. . ... ... ... : ... .. . ... ... ... : ... .. 2 ... ... ...
ROW 44 : G-1 02 7 ... ... ... : ... .. . ... ... ... : G-1 00 . ... ... ... : ... .. . ... ... ... : A#1 05 . ... ... ... : ... .. 7 ... ... ...
ROW 45 : G-1 01 . ... ... ... : ... .. . ... ... ... : ... .. . ... ... ... : ... .. . ... ... ... : ... .. . ... ... ... : ... .. . ... ... ...
ROW 46 : ... .. . ... ... ... : ... .. . ... ... ... : ... .. . ... ... ... : ... .. . ... ... ... : ... .. . ... ... ... : ... .. 5 ... ... ...
ROW 47 : ... .. . ... ... ... : ... .. . ... ... ... : ... .. . ... ... ... : ... .. . ... ... ... : ... .. . ... ... ... : ... .. . ... ... ...
ROW 48 : ... .. . ... ... ... : ... .. . ... ... ... : ... .. . ... ... ... : ... .. . ... ... ... : ... .. . ... ... ... : ... .. . ... ... ...
ROW 49 : ... .. . ... ... ... : ... .. . ... ... ... : ... .. . ... ... ... : ... .. . ... ... ... : ... .. . ... ... ... : ... .. 4 ... ... ...
ROW 4A : ... .. . ... ... ... : ... .. . ... ... ... : ... .. . ... ... ... : ... .. . ... ... ... : A#1 05 . ... ... ... : ... .. . ... ... ...
ROW 4B : ... .. . ... ... ... : ... .. . ... ... ... : ... .. . ... ... ... : ... .. . ... ... ... : ... .. . ... ... ... : ... .. . ... ... ...
ROW 4C : ... .. . ... ... ... : ... .. . ... ... ... : ... .. . ... ... ... : ... .. . ... ... ... : ... .. . ... ... ... : ... .. . ... ... ...
ROW 4D : ... .. . ... ... ... : ... .. . ... ... ... : --- .. . ... ... ... : ... .. . ... ... ... : ... .. . ... ... ... : ... .. . ... ... ...
ROW 4E : ... .. 3 ... ... ... : ... .. . ... ... ... : ... .. . ... ... ... : ... .. . ... ... ... : ... .. . ... ... ... : ... .. . ... ... ...
ROW 4F : ... .. . ... ... ... : ... .. . ... ... ... : ... .. . ... ... ... : ... .. . ... ... ... : ... .. . ... ... ... : ... .. 2 ... ... ...
ROW 50 : C-2 02 7 ... ... ... : ... .. . ... ... ... : G-1 00 . ... ... ... : ... .. . ... ... ... : A#1 05 . ... ... ... : C-3 04 7 ... ... ...
ROW 51 : C-2 01 . ... ... ... : ... .. . ... ... ... : ... .. . ... ... ... : ... .. . ... ... ... : ... .. . ... ... ... : ... .. 6 ... ... ...
ROW 52 : ... .. . ... ... ... : ... .. . ... ... ... : ... .. . ... ... ... : ... .. . ... ... ... : ... .. . ... ... ... : ... .. 5 ... ... ...
ROW 53 : ... .. . ... ... ... : ... .. . ... ... ... : ... .. . ... ... ... : ... .. . ... ... ... : ... .. . ... ... ... : ... .. . ... ... ...
ROW 54 : ... .. . ... ... ... : ... .. . ... ... ... : ... .. . ... ... ... : ... .. . ... ... ... : ... .. . ... ... ... : ... .. . ... ... ...
ROW 55 : ... .. . ... ... ... : ... .. . ... ... ... : ... .. . ... ... ... : ... .. . ... ... ... : ... .. . ... ... ... : ... .. 4 ... ... ...
ROW 56 : ... .. . ... ... ... : ... .. . ... ... ... : ... .. . ... ... ... : ... .. . ... ... ... : A#1 05 . ... ... ... : ... .. . ... ... ...
ROW 57 : ... .. . ... ... ... : ... .. . ... ... ... : ... .. . ... ... ... : ... .. . ... ... ... : ... .. . ... ... ... : ... .. . ... ... ...
ROW 58 : ... .. . ... ... ... : ... .. . ... ... ... : ... .. . ... ... ... : ... .. . ... ... ... : ... .. . ... ... ... : ... .. . ... ... ...
ROW 59 : ... .. . ... ... ... : ... .. . ... ... ... : --- .. . ... ... ... : ... .. . ... ... ... : ... .. . ... ... ... : ... .. . ... ... ...
ROW 5A : ... .. 3 ... ... ... : ... .. . ... ... ... : ... .. . ... ... ... : ... .. . ... ... ... : ... .. . ... ... ... : ... .. . ... ... ...
ROW 5B : ... .. . ... ... ... : ... .. . ... ... ... : ... .. . ... ... ... : ... .. . ... ... ... : ... .. . ... ... ... : ... .. 2 ... ... ...
ROW 5C : G-1 02 7 ... ... ... : ... .. . ... ... ... : G-1 00 . ... ... ... : ... .. . ... ... ... : A#1 05 . ... ... ... : G-2 04 . ... ... ...
ROW 5D : G-1 01 . ... ... ... : ... .. . ... ... ... : ... .. . ... ... ... : ... .. . ... ... ... : ... .. . ... ... ... : ... .. 6 ... ... ...
ROW 5E : ... .. . ... ... ... : ... .. . ... ... ... : ... .. . ... ... ... : ... .. . ... ... ... : ... .. . ... ... ... : ... .. 5 ... ... ...
ROW 5F : ... .. . ... ... ... : ... .. . ... ... ... : ... .. . ... ... ... : ... .. . ... ... ... : ... .. . ... ... ... : ... .. . ... ... ...
ROW 60 : ... .. . ... ... ... : ... .. . ... ... ... : ... .. . ... ... ... : ... .. . ... ... ... : ... .. . ... ... ... : ... .. . ... ... ...
ROW 61 : ... .. . ... ... ... : ... .. . ... ... ... : ... .. . ... ... ... : ... .. . ... ... ... : ... .. . ... ... ... : ... .. . ... ... ...
ROW 62 : ... .. . ... ... ... : ... .. . ... ... ... : ... .. . ... ... ... : ... .. . ... ... ... : A#1 05 . ... ... ... : ... .. 4 ... ... ...
ROW 63 : ... .. . ... ... ... : ... .. . ... ... ... : ... .. . ... ... ... : ... .. . ... ... ... : ... .. . ... ... ... : ... .. . ... ... ...
ROW 64 : ... .. . ... ... ... : ... .. . ... ... ... : ... .. . ... ... ... : ... .. . ... ... ... : ... .. . ... ... ... : ... .. . ... ... ...
ROW 65 : ... .. . ... ... ... : ... .. . ... ... ... : --- .. . ... ... ... : ... .. . ... ... ... : ... .. . ... ... ... : ... .. . ... ... ...
ROW 66 : ... .. 3 ... ... ... : ... .. . ... ... ... : ... .. . ... ... ... : ... .. . ... ... ... : ... .. . ... ... ... : ... .. . ... ... ...
ROW 67 : ... .. . ... ... ... : ... .. . ... ... ... : ... .. . ... ... ... : ... .. . ... ... ... : ... .. . ... ... ... : ... .. . ... ... ...
ROW 68 : G-1 00 . ... ... ... : C#1 00 3 ... ... ... : C#2 00 . ... ... ... : ... .. . ... ... ... : D-1 05 . ... ... ... : B-2 04 2 H33 I02 J8C
ROW 69 : G-1 03 . ... ... ... : C#1 03 . ... ... ... : ... .. . ... ... ... : ... .. . ... ... ... : ... .. . ... ... ... : ... .. . ... ... ...
ROW 6A : G-1 02 . ... ... ... : C#1 02 . ... ... ... : ... .. . ... ... ... : ... .. . ... ... ... : ... .. . ... ... ... : ... .. . ... ... ...
ROW 6B : G-1 01 4 ... ... ... : C#1 01 . ... ... ... : ... .. . ... ... ... : ... .. . ... ... ... : ... .. . ... ... ... : ... .. . ... ... ...
ROW 6C : ... .. . ... ... ... : ... .. . ... ... ... : ... .. . ... ... ... : ... .. . ... ... ... : D-1 05 . ... ... ... : ... .. . ... ... ...
ROW 6D : ... .. . ... ... ... : ... .. . ... ... ... : ... .. . ... ... ... : ... .. . ... ... ... : ... .. . ... ... ... : ... .. . ... ... ...
ROW 6E : ... .. . ... ... ... : ... .. . ... ... ... : ... .. . ... ... ... : ... .. . ... ... ... : ... .. . ... ... ... : ... .. . ... ... ...
ROW 6F : ... .. 5 ... ... ... : ... .. 4 ... ... ... : ... .. . ... ... ... : ... .. . ... ... ... : ... .. . ... ... ... : ... .. . ... ... ...
ROW 70 : ... .. . ... ... ... : ... .. . ... ... ... : ... .. . ... ... ... : ... .. . ... ... ... : D-1 05 . ... ... ... : ... .. . ... ... ...
ROW 71 : ... .. . ... ... ... : ... .. . ... ... ... : ... .. . ... ... ... : ... .. . ... ... ... : ... .. . ... ... ... : ... .. . ... ... ...
ROW 72 : ... .. . ... ... ... : ... .. . ... ... ... : ... .. . ... ... ... : ... .. . ... ... ... : ... .. . ... ... ... : ... .. . ... ... ...
ROW 73 : ... .. 6 ... ... ... : ... .. . ... ... ... : ... .. . ... ... ... : ... .. . ... ... ... : ... .. . ... ... ... : ... .. . ... ... ...
ROW 74 : ... .. . ... ... ... : ... .. . ... ... ... : ... .. . ... ... ... : ... .. . ... ... ... : D-1 05 . ... ... ... : ... .. 3 ... ... ...
ROW 75 : ... .. . ... ... ... : ... .. . ... ... ... : ... .. . ... ... ... : ... .. . ... ... ... : ... .. . ... ... ... : ... .. . ... ... ...
ROW 76 : ... .. . ... ... ... : ... .. . ... ... ... : ... .. . ... ... ... : ... .. . ... ... ... : ... .. . ... ... ... : ... .. . ... ... ...
ROW 77 : ... .. 7 ... ... ... : ... .. 5 ... ... ... : ... .. . ... ... ... : ... .. . ... ... ... : ... .. . ... ... ... : ... .. . ... ... ...
ROW 78 : ... .. . ... ... ... : ... .. . ... ... ... : ... .. . ... ... ... : ... .. . ... ... ... : D-1 05 . ... ... ... : ... .. . ... ... ...
ROW 79 : ... .. . ... ... ... : ... .. . ... ... ... : ... .. . ... ... ... : ... .. . ... ... ... : ... .. . ... ... ... : ... .. . ... ... ...
ROW 7A : ... .. . ... ... ... : ... .. . ... ... ... : ... .. . ... ... ... : ... .. . ... ... ... : ... .. . ... ... ... : ... .. . ... ... ...
ROW 7B : ... .. 8 ... ... ... : ... .. . ... ... ... : ... .. . ... ... ... : ... .. . ... ... ... : ... .. . ... ... ... : ... .. . ... ... ...
ROW 7C : ... .. . ... ... ... : ... .. . ... ... ... : ... .. . ... ... ... : ... .. . ... ... ... : D-1 05 . ... ... ... : ... .. . ... ... ...
ROW 7D : ... .. . ... ... ... : ... .. . ... ... ... : ... .. . ... ... ... : ... .. . ... ... ... : ... .. . ... ... ... : ... .. . ... ... ...
ROW 7E : ... .. . ... ... ... : ... .. . ... ... ... : ... .. . ... ... ... : ... .. . ... ... ... : ... .. . ... ... ... : ... .. . ... ... ...
ROW 7F : ... .. 9 ... ... ... : ... .. 6 ... ... ... : ... .. . ... ... ... : ... .. . ... ... ... : ... .. . ... ... ... : ... .. . ... ... ...
ROW 80 : ... .. . ... ... ... : ... .. . ... ... ... : ... .. . ... ... ... : ... .. . ... ... ... : D-1 05 . ... ... ... : ... .. 4 ... ... ...
ROW 81 : ... .. . ... ... ... : ... .. . ... ... ... : ... .. . ... ... ... : ... .. . ... ... ... : ... .. . ... ... ... : ... .. . ... ... ...
ROW 82 : ... .. . ... ... ... : ... .. . ... ... ... : ... .. . ... ... ... : ... .. . ... ... ... : ... .. . ... ... ... : ... .. . ... ... ...
ROW 83 : ... .. A ... ... ... : ... .. . ... ... ... : ... .. . ... ... ... : ... .. . ... ... ... : ... .. . ... ... ... : ... .. . ... ... ...
ROW 84 : ... .. . ... ... ... : ... .. . ... ... ... : ... .. . ... ... ... : ... .. . ... ... ... : ... .. . ... ... ... : ... .. . ... ... ...
ROW 85 : ... .. . ... ... ... : ... .. . ... ... ... : ... .. . ... ... ... : ... .. . ... ... ... : ... .. . ... ... ... : ... .. . ... ... ...
ROW 86 : ... .. . ... ... ... : ... .. . ... ... ... : ... .. . ... ... ... : ... .. . ... ... ... : D-1 05 . ... ... ... : ... .. . ... ... ...
ROW 87 : ... .. B ... ... ... : ... .. 7 ... ... ... : ... .. . ... ... ... : ... .. . ... ... ... : ... .. . ... ... ... : ... .. . ... ... ...
ROW 88 : ... .. . ... ... ... : ... .. . ... ... ... : ... .. . ... ... ... : ... .. . ... ... ... : ... .. . ... ... ... : ... .. . ... ... ...
ROW 89 : ... .. . ... ... ... : ... .. . ... ... ... : ... .. . ... ... ... : ... .. . ... ... ... : ... .. . ... ... ... : ... .. . ... ... ...
ROW 8A : ... .. . ... ... ... : ... .. . ... ... ... : ... .. . ... ... ... : ... .. . ... ... ... : ... .. . ... ... ... : ... .. . ... ... ...
ROW 8B : ... .. C ... ... ... : ... .. . ... ... ... : ... .. . ... ... ... : ... .. . ... ... ... : ... .. . ... ... ... : ... .. . ... ... ...
ROW 8C : ... .. . ... ... ... : ... .. . ... ... ... : ... .. . ... ... ... : ... .. . ... ... ... : D-1 05 . ... ... ... : ... .. 5 ... ... ...
ROW 8D : ... .. . ... ... ... : ... .. . ... ... ... : ... .. . ... ... ... : ... .. . ... ... ... : ... .. . ... ... ... : ... .. . ... ... ...
ROW 8E : ... .. . ... ... ... : ... .. . ... ... ... : ... .. . ... ... ... : ... .. . ... ... ... : ... .. . ... ... ... : ... .. . ... ... ...
ROW 8F : ... .. D ... ... ... : ... .. 8 ... ... ... : ... .. . ... ... ... : ... .. . ... ... ... : ... .. . ... ... ... : ... .. . ... ... ...
ROW 90 : ... .. . ... ... ... : ... .. . ... ... ... : ... .. . ... ... ... : ... .. . ... ... ... : ... .. . ... ... ... : ... .. . ... ... ...
ROW 91 : ... .. . ... ... ... : ... .. . ... ... ... : ... .. . ... ... ... : ... .. . ... ... ... : ... .. . ... ... ... : ... .. . ... ... ...
ROW 92 : ... .. . ... ... ... : ... .. . ... ... ... : ... .. . ... ... ... : ... .. . ... ... ... : D-1 05 . ... ... ... : ... .. . ... ... ...
ROW 93 : ... .. E ... ... ... : ... .. . ... ... ... : ... .. . ... ... ... : ... .. . ... ... ... : ... .. . ... ... ... : ... .. . ... ... ...
ROW 94 : ... .. . ... ... ... : ... .. . ... ... ... : ... .. . ... ... ... : ... .. . ... ... ... : ... .. . ... ... ... : ... .. . ... ... ...
ROW 95 : ... .. 6 ... ... ... : ... .. 6 ... ... ... : --- .. . ... ... ... : ... .. . ... ... ... : ... .. . ... ... ... : ... .. . ... ... ...
ROW 96 : ... .. . ... ... ... : ... .. . ... ... ... : ... .. . ... ... ... : ... .. . ... ... ... : ... .. . ... ... ... : ... .. . ... ... ...
ROW 97 : ... .. . ... ... ... : ... .. . ... ... ... : ... .. . ... ... ... : ... .. . ... ... ... : ... .. . ... ... ... : ... .. . ... ... ...
ROW 98 : D-2 02 A P82 ... ... : G-2 01 C P82 ... ... : G-3 00 . ... ... ... : A-# 00 C ... ... ... : D-1 05 . ... ... ... : F-3 04 6 I01 JD5 ...
ROW 99 : D-2 01 . ... ... ... : G-2 02 . ... ... ... : G-2 00 . ... ... ... : 7-# 00 8 ... ... ... : ... .. . ... ... ... : ... .. 5 ... ... ...
ROW 9A : ... .. . ... ... ... : G-2 00 . ... ... ... : ... .. . ... ... ... : 8-# 00 B ... ... ... : ... .. . ... ... ... : ... .. . ... ... ...
ROW 9B : ... .. . ... ... ... : ... .. . ... ... ... : ... .. . ... ... ... : 9-# 00 8 ... ... ... : ... .. . ... ... ... : ... .. 4 ... ... ...
ROW 9C : ... .. . ... ... ... : ... .. . ... ... ... : ... .. . ... ... ... : A-# 00 9 ... ... ... : ... .. . ... ... ... : ... .. . ... ... ...
ROW 9D : ... .. . ... ... ... : ... .. . ... ... ... : ... .. . ... ... ... : B-# 00 8 ... ... ... : ... .. . ... ... ... : ... .. . ... ... ...
ROW 9E : ... .. . ... ... ... : ... .. . ... ... ... : ... .. . ... ... ... : ... .. . ... ... ... : C#1 05 . ... ... ... : ... .. . ... ... ...
ROW 9F : ... .. . ... ... ... : ... .. . ... ... ... : ... .. . ... ... ... : A-# 00 . ... ... ... : ... .. . ... ... ... : ... .. . ... ... ...
ROW A0 : ... .. . ... ... ... : ... .. . ... ... ... : ... .. . ... ... ... : B-# 00 . ... ... ... : ... .. . ... ... ... : ... .. . ... ... ...
ROW A1 : ... .. . ... ... ... : ... .. . ... ... ... : ... .. . ... ... ... : ... .. 7 ... ... ... : ... .. . ... ... ... : ... .. . ... ... ...
ROW A2 : ... .. 5 ... ... ... : ... .. 6 ... ... ... : ... .. . ... ... ... : ... .. . ... ... ... : ... .. . ... ... ... : ... .. . ... ... ...
ROW A3 : ... .. 4 ... ... ... : ... .. 5 ... ... ... : ... .. . ... ... ... : ... .. . ... ... ... : ... .. . ... ... ... : ... .. 2 ... ... ...
ROW A4 : D-2 02 A ... ... ... : G-2 01 C ... ... ... : G-3 00 . ... ... ... : ... .. . ... ... ... : D-1 05 . ... ... ... : ... .. 6 ... ... ...
ROW A5 : D-2 01 . ... ... ... : G-2 02 . ... ... ... : G-2 00 . ... ... ... : ... .. 6 ... ... ... : ... .. . ... ... ... : ... .. 5 ... ... ...
ROW A6 : ... .. . ... ... ... : G-2 00 . ... ... ... : ... .. . ... ... ... : ... .. . ... ... ... : ... .. . ... ... ... : ... .. . ... ... ...
ROW A7 : ... .. . ... ... ... : ... .. . ... ... ... : ... .. . ... ... ... : ... .. . ... ... ... : ... .. . ... ... ... : ... .. 4 ... ... ...
ROW A8 : ... .. . ... ... ... : ... .. . ... ... ... : ... .. . ... ... ... : ... .. . ... ... ... : ... .. . ... ... ... : ... .. . ... ... ...
ROW A9 : ... .. . ... ... ... : ... .. . ... ... ... : ... .. . ... ... ... : ... .. . ... ... ... : ... .. . ... ... ... : ... .. . ... ... ...
ROW AA : ... .. . ... ... ... : ... .. . ... ... ... : ... .. . ... ... ... : ... .. 5 ... ... ... : C#1 05 . ... ... ... : ... .. . ... ... ...
ROW AB : ... .. . ... ... ... : ... .. . ... ... ... : ... .. . ... ... ... : ... .. . ... ... ... : ... .. . ... ... ... : ... .. . ... ... ...
ROW AC : ... .. . ... ... ... : ... .. . ... ... ... : ... .. . ... ... ... : ... .. . ... ... ... : ... .. . ... ... ... : ... .. . ... ... ...
ROW AD : ... .. . ... ... ... : ... .. . ... ... ... : ... .. . ... ... ... : ... .. . ... ... ... : ... .. . ... ... ... : ... .. . ... ... ...
ROW AE : ... .. 5 ... ... ... : ... .. 6 ... ... ... : ... .. . ... ... ... : ... .. . ... ... ... : ... .. . ... ... ... : ... .. . ... ... ...
ROW AF : ... .. 4 ... ... ... : ... .. 5 ... ... ... : ... .. . ... ... ... : ... .. 4 ... ... ... : ... .. . ... ... ... : ... .. 2 ... ... ...
ROW B0 : D#2 02 A ... ... ... : G#2 01 C ... ... ... : G#3 00 . ... ... ... : 9-# 00 B ... ... ... : D-1 05 . ... ... ... : F#3 04 6 I01 JF0 ...
ROW B1 : D#2 01 . ... ... ... : G#2 02 . ... ... ... : G#2 00 . ... ... ... : 5-# 00 8 ... ... ... : ... .. . ... ... ... : ... .. 5 ... ... ...
ROW B2 : ... .. . ... ... ... : G#2 00 . ... ... ... : ... .. . ... ... ... : 8-# 00 A ... ... ... : ... .. . ... ... ... : ... .. . ... ... ...
ROW B3 : ... .. . ... ... ... : ... .. . ... ... ... : ... .. . ... ... ... : A-# 00 8 ... ... ... : ... .. . ... ... ... : ... .. 4 ... ... ...
ROW B4 : ... .. . ... ... ... : ... .. . ... ... ... : ... .. . ... ... ... : B-# 00 . ... ... ... : ... .. . ... ... ... : ... .. . ... ... ...
ROW B5 : ... .. . ... ... ... : ... .. . ... ... ... : ... .. . ... ... ... : C-# 00 . ... ... ... : ... .. . ... ... ... : ... .. . ... ... ...
ROW B6 : ... .. . ... ... ... : ... .. . ... ... ... : ... .. . ... ... ... : ... .. . ... ... ... : C#1 05 . ... ... ... : ... .. . ... ... ...
ROW B7 : ... .. . ... ... ... : ... .. . ... ... ... : ... .. . ... ... ... : ... .. 7 ... ... ... : ... .. . ... ... ... : ... .. . ... ... ...
ROW B8 : ... .. . ... ... ... : ... .. . ... ... ... : ... .. . ... ... ... : ... .. . ... ... ... : ... .. . ... ... ... : ... .. . ... ... ...
ROW B9 : ... .. . ... ... ... : ... .. . ... ... ... : ... .. . ... ... ... : ... .. 6 ... ... ... : ... .. . ... ... ... : ... .. . ... ... ...
ROW BA : ... .. 5 ... ... ... : ... .. 6 ... ... ... : ... .. . ... ... ... : ... .. . ... ... ... : ... .. . ... ... ... : ... .. . ... ... ...
ROW BB : ... .. 4 ... ... ... : ... .. 5 ... ... ... : ... .. . ... ... ... : ... .. . ... ... ... : ... .. . ... ... ... : ... .. 2 ... ... ...
ROW BC : D-2 02 A ... ... ... : G-2 01 C ... ... ... : G-3 00 . ... ... ... : ... .. . ... ... ... : D-1 05 . ... ... ... : F-3 04 6 I01 JD5 ...
ROW BD : D-2 01 . ... ... ... : G-2 02 . ... ... ... : G-2 00 . ... ... ... : ... .. 5 ... ... ... : ... .. . ... ... ... : ... .. 5 ... ... ...
ROW BE : ... .. . ... ... ... : G-2 00 . ... ... ... : ... .. . ... ... ... : ... .. . ... ... ... : ... .. . ... ... ... : ... .. . ... ... ...
ROW BF : ... .. . ... ... ... : ... .. . ... ... ... : ... .. . ... ... ... : ... .. . ... ... ... : ... .. . ... ... ... : ... .. 4 ... ... ...
ROW C0 : ... .. . ... ... ... : ... .. . ... ... ... : ... .. . ... ... ... : ... .. . ... ... ... : ... .. . ... ... ... : ... .. . ... ... ...
ROW C1 : ... .. . ... ... ... : ... .. . ... ... ... : ... .. . ... ... ... : ... .. . ... ... ... : ... .. . ... ... ... : ... .. . ... ... ...
ROW C2 : ... .. . ... ... ... : ... .. . ... ... ... : ... .. . ... ... ... : ... .. . ... ... ... : C#1 05 . ... ... ... : ... .. . ... ... ...
ROW C3 : ... .. . ... ... ... : ... .. . ... ... ... : ... .. . ... ... ... : ... .. . ... ... ... : ... .. . ... ... ... : ... .. . ... ... ...
ROW C4 : ... .. . ... ... ... : ... .. . ... ... ... : ... .. . ... ... ... : ... .. . ... ... ... : ... .. . ... ... ... : ... .. . ... ... ...
ROW C5 : ... .. . ... ... ... : ... .. . ... ... ... : ... .. . ... ... ... : ... .. . ... ... ... : ... .. . ... ... ... : ... .. . ... ... ...
ROW C6 : ... .. 5 ... ... ... : ... .. 6 ... ... ... : ... .. . ... ... ... : ... .. . ... ... ... : ... .. . ... ... ... : ... .. . ... ... ...
ROW C7 : ... .. 4 ... ... ... : ... .. 5 ... ... ... : ... .. . ... ... ... : ... .. 4 ... ... ... : ... .. . ... ... ... : ... .. 2 ... ... ...
ROW C8 : D-2 02 A ... ... ... : G-2 01 C ... ... ... : G-3 00 . ... ... ... : 9-# 00 B ... ... ... : D-1 05 . ... ... ... : ... .. 6 ... ... ...
ROW C9 : D-2 01 . ... ... ... : G-2 02 . ... ... ... : G-2 00 . ... ... ... : 5-# 00 8 ... ... ... : ... .. . ... ... ... : ... .. 5 ... ... ...
ROW CA : ... .. . ... ... ... : G-2 00 . ... ... ... : ... .. . ... ... ... : 8-# 00 A ... ... ... : ... .. . ... ... ... : ... .. . ... ... ...
ROW CB : ... .. . ... ... ... : ... .. . ... ... ... : ... .. . ... ... ... : A-# 00 8 ... ... ... : ... .. . ... ... ... : ... .. 4 ... ... ...
ROW CC : ... .. . ... ... ... : ... .. . ... ... ... : ... .. . ... ... ... : B-# 00 . ... ... ... : ... .. . ... ... ... : ... .. . ... ... ...
ROW CD : ... .. . ... ... ... : ... .. . ... ... ... : ... .. . ... ... ... : C-# 00 . ... ... ... : ... .. . ... ... ... : ... .. . ... ... ...
ROW CE : ... .. . ... ... ... : ... .. . ... ... ... : ... .. . ... ... ... : ... .. . ... ... ... : C#1 05 . ... ... ... : ... .. . ... ... ...
ROW CF : ... .. . ... ... ... : ... .. . ... ... ... : ... .. . ... ... ... : ... .. 7 ... ... ... : ... .. . ... ... ... : ... .. . ... ... ...
ROW D0 : ... .. . ... ... ... : ... .. . ... ... ... : ... .. . ... ... ... : ... .. . ... ... ... : ... .. . ... ... ... : ... .. . ... ... ...
ROW D1 : ... .. . ... ... ... : ... .. . ... ... ... : ... .. . ... ... ... : ... .. 6 ... ... ... : ... .. . ... ... ... : ... .. . ... ... ...
ROW D2 : ... .. 5 ... ... ... : ... .. 6 ... ... ... : ... .. . ... ... ... : ... .. . ... ... ... : ... .. . ... ... ... : ... .. . ... ... ...
ROW D3 : ... .. 4 ... ... ... : ... .. 5 ... ... ... : ... .. . ... ... ... : ... .. . ... ... ... : ... .. . ... ... ... : ... .. 2 ... ... ...
ROW D4 : F-2 02 A ... ... ... : A#2 01 C ... ... ... : A#3 00 . ... ... ... : ... .. . ... ... ... : D-1 05 . ... ... ... : G#3 04 6 I02 J2A ...
ROW D5 : F-2 01 . ... ... ... : A#2 02 . ... ... ... : A#2 00 . ... ... ... : ... .. 5 ... ... ... : ... .. . ... ... ... : ... .. 5 ... ... ...
ROW D6 : ... .. . ... ... ... : A#2 00 . ... ... ... : ... .. . ... ... ... : ... .. . ... ... ... : ... .. . ... ... ... : ... .. . ... ... ...
ROW D7 : ... .. . ... ... ... : ... .. . ... ... ... : ... .. . ... ... ... : ... .. . ... ... ... : ... .. . ... ... ... : ... .. 4 ... ... ...
ROW D8 : ... .. . ... ... ... : ... .. . ... ... ... : ... .. . ... ... ... : ... .. . ... ... ... : ... .. . ... ... ... : ... .. . ... ... ...
ROW D9 : ... .. . ... ... ... : ... .. . ... ... ... : ... .. . ... ... ... : ... .. . ... ... ... : ... .. . ... ... ... : ... .. . ... ... ...
ROW DA : ... .. . ... ... ... : ... .. . ... ... ... : ... .. . ... ... ... : ... .. . ... ... ... : C#1 05 . ... ... ... : ... .. . ... ... ...
ROW DB : ... .. . ... ... ... : ... .. . ... ... ... : ... .. . ... ... ... : ... .. . ... ... ... : ... .. . ... ... ... : ... .. . ... ... ...
ROW DC : ... .. . ... ... ... : ... .. . ... ... ... : ... .. . ... ... ... : ... .. . ... ... ... : ... .. . ... ... ... : ... .. . ... ... ...
ROW DD : ... .. . ... ... ... : ... .. . ... ... ... : ... .. . ... ... ... : ... .. . ... ... ... : ... .. . ... ... ... : ... .. . ... ... ...
ROW DE : ... .. 5 ... ... ... : ... .. 6 ... ... ... : ... .. . ... ... ... : ... .. . ... ... ... : ... .. . ... ... ... : ... .. . ... ... ...
ROW DF : ... .. 4 ... ... ... : ... .. 5 ... ... ... : ... .. . ... ... ... : ... .. 4 ... ... ... : ... .. . ... ... ... : ... .. 2 ... ... ...
ROW E0 : D-2 02 A ... ... ... : G-2 01 C ... ... ... : G-3 00 . ... ... ... : 9-# 00 B ... ... ... : D-1 05 . ... ... ... : F-3 04 6 I01 JD5 ...
ROW E1 : D-2 01 . ... ... ... : G-2 02 . ... ... ... : G-2 00 . ... ... ... : 5-# 00 8 ... ... ... : ... .. . ... ... ... : ... .. 5 ... ... ...
ROW E2 : ... .. . ... ... ... : G-2 00 . ... ... ... : ... .. . ... ... ... : 8-# 00 A ... ... ... : ... .. . ... ... ... : ... .. . ... ... ...
ROW E3 : ... .. . ... ... ... : ... .. . ... ... ... : ... .. . ... ... ... : A-# 00 8 ... ... ... : ... .. . ... ... ... : ... .. 4 ... ... ...
ROW E4 : ... .. . ... ... ... : ... .. . ... ... ... : ... .. . ... ... ... : B-# 00 . ... ... ... : ... .. . ... ... ... : ... .. . ... ... ...
ROW E5 : ... .. . ... ... ... : ... .. . ... ... ... : ... .. . ... ... ... : C-# 00 . ... ... ... : ... .. . ... ... ... : ... .. . ... ... ...
ROW E6 : ... .. . ... ... ... : ... .. . ... ... ... : ... .. . ... ... ... : ... .. . ... ... ... : C#1 05 . ... ... ... : ... .. . ... ... ...
ROW E7 : ... .. . ... ... ... : ... .. . ... ... ... : ... .. . ... ... ... : ... .. 7 ... ... ... : ... .. . ... ... ... : ... .. . ... ... ...
ROW E8 : ... .. . ... ... ... : ... .. . ... ... ... : ... .. . ... ... ... : ... .. . ... ... ... : ... .. . ... ... ... : ... .. . ... ... ...
ROW E9 : ... .. . ... ... ... : ... .. . ... ... ... : ... .. . ... ... ... : ... .. 6 ... ... ... : ... .. . ... ... ... : ... .. . ... ... ...
ROW EA : ... .. 5 ... ... ... : ... .. 6 ... ... ... : ... .. . ... ... ... : ... .. . ... ... ... : ... .. . ... ... ... : ... .. . ... ... ...
ROW EB : ... .. 4 ... ... ... : ... .. 5 ... ... ... : ... .. . ... ... ... : ... .. . ... ... ... : ... .. . ... ... ... : ... .. 2 ... ... ...
ROW EC : D#2 02 A ... ... ... : G#2 01 C ... ... ... : G#3 00 . ... ... ... : ... .. . ... ... ... : D-1 05 . ... ... ... : F#3 04 6 I01 JF0 ...
ROW ED : D#2 01 . ... ... ... : G#2 02 . ... ... ... : G#2 00 . ... ... ... : ... .. 5 ... ... ... : ... .. . ... ... ... : ... .. 5 ... ... ...
ROW EE : ... .. . ... ... ... : G#2 00 . ... ... ... : ... .. . ... ... ... : ... .. . ... ... ... : ... .. . ... ... ... : ... .. . ... ... ...
ROW EF : ... .. . ... ... ... : ... .. . ... ... ... : ... .. . ... ... ... : ... .. . ... ... ... : ... .. . ... ... ... : ... .. 4 ... ... ...
ROW F0 : ... .. . ... ... ... : ... .. . ... ... ... : ... .. . ... ... ... : ... .. . ... ... ... : ... .. . ... ... ... : ... .. . ... ... ...
ROW F1 : ... .. . ... ... ... : ... .. . ... ... ... : ... .. . ... ... ... : ... .. . ... ... ... : ... .. . ... ... ... : ... .. . ... ... ...
ROW F2 : ... .. . ... ... ... : ... .. . ... ... ... : ... .. . ... ... ... : ... .. . ... ... ... : C#1 05 . ... ... ... : ... .. . ... ... ...
ROW F3 : ... .. . ... ... ... : ... .. . ... ... ... : ... .. . ... ... ... : ... .. . ... ... ... : ... .. . ... ... ... : ... .. . ... ... ...
ROW F4 : ... .. . ... ... ... : ... .. . ... ... ... : ... .. . ... ... ... : ... .. . ... ... ... : ... .. . ... ... ... : ... .. . ... ... ...
ROW F5 : ... .. . ... ... ... : ... .. . ... ... ... : ... .. . ... ... ... : ... .. . ... ... ... : ... .. . ... ... ... : ... .. . ... ... ...
ROW F6 : ... .. 5 ... ... ... : ... .. 6 ... ... ... : ... .. . ... ... ... : ... .. . ... ... ... : ... .. . ... ... ... : ... .. . ... ... ...
ROW F7 : ... .. 4 ... ... ... : ... .. 5 ... ... ... : ... .. . ... ... ... : ... .. 4 ... ... ... : ... .. . ... ... ... : ... .. 2 ... ... ...
ROW F8 : D-2 02 A ... ... ... : G-2 01 C ... ... ... : G-3 00 . ... ... ... : 9-# 00 B ... ... ... : D-1 05 . ... ... ... : F-3 04 6 I01 JD5 ...
ROW F9 : D-2 01 . ... ... ... : G-2 02 . ... ... ... : G-2 00 . ... ... ... : 5-# 00 8 ... ... ... : ... .. . ... ... ... : ... .. 5 ... ... ...
ROW FA : ... .. . ... ... ... : G-2 00 . ... ... ... : ... .. . ... ... ... : 8-# 00 A ... ... ... : ... .. . ... ... ... : ... .. . ... ... ...
ROW FB : ... .. . ... ... ... : ... .. . ... ... ... : ... .. . ... ... ... : A-# 00 8 ... ... ... : ... .. . ... ... ... : ... .. 4 ... ... ...
ROW FC : ... .. . ... ... ... : ... .. . ... ... ... : ... .. . ... ... ... : B-# 00 . ... ... ... : ... .. . ... ... ... : ... .. . ... ... ...
ROW FD : ... .. . ... ... ... : ... .. . ... ... ... : ... .. . ... ... ... : C-# 00 . ... ... ... : ... .. . ... ... ... : ... .. . ... ... ...
ROW FE : ... .. . ... ... ... : ... .. . ... ... ... : ... .. . ... ... ... : ... .. . ... ... ... : C#1 05 . ... ... ... : ... .. . ... ... ...
ROW FF : ... .. . ... ... ... : ... .. . ... ... ... : ... .. . ... ... ... : ... .. 7 ... ... ... : ... .. . ... ... ... : ... .. . ... ... ...

PATTERN 10
ROW 00 : ... .. . ... ... ... : ... .. . ... ... ... : ... .. . ... ... ... : ... .. . ... ... ... : ... .. . ... ... ... : ... .. . ... ... ...
ROW 01 : ... .. . ... ... ... : ... .. . ... ... ... : ... .. . ... ... ... : ... .. 6 ... ... ... : ... .. . ... ... ... : ... .. . ... ... ...
ROW 02 : ... .. 5 ... ... ... : ... .. 6 ... ... ... : ... .. . ... ... ... : ... .. . ... ... ... : ... .. . ... ... ... : ... .. . ... ... ...
ROW 03 : ... .. 4 ... ... ... : ... .. 5 ... ... ... : ... .. . ... ... ... : ... .. . ... ... ... : ... .. . ... ... ... : ... .. 2 ... ... ...
ROW 04 : D-2 02 A ... ... ... : G-2 01 C ... ... ... : G-3 00 . ... ... ... : ... .. . ... ... ... : D-1 05 . ... ... ... : ... .. 6 ... ... ...
ROW 05 : D-2 01 . ... ... ... : G-2 02 . ... ... ... : G-2 00 . ... ... ... : ... .. 5 ... ... ... : ... .. . ... ... ... : ... .. 5 ... ... ...
ROW 06 : ... .. . ... ... ... : G-2 00 . ... ... ... : ... .. . ... ... ... : ... .. . ... ... ... : ... .. . ... ... ... : ... .. . ... ... ...
ROW 07 : ... .. . ... ... ... : ... .. . ... ... ... : ... .. . ... ... ... : ... .. . ... ... ... : ... .. . ... ... ... : ... .. 4 ... ... ...
ROW 08 : ... .. . ... ... ... : ... .. . ... ... ... : ... .. . ... ... ... : ... .. . ... ... ... : ... .. . ... ... ... : ... .. . ... ... ...
ROW 09 : ... .. . ... ... ... : ... .. . ... ... ... : ... .. . ... ... ... : ... .. . ... ... ... : ... .. . ... ... ... : ... .. . ... ... ...
ROW 0A : ... .. . ... ... ... : ... .. . ... ... ... : ... .. . ... ... ... : ... .. . ... ... ... : C#1 05 . ... ... ... : ... .. . ... ... ...
ROW 0B : ... .. . ... ... ... : ... .. . ... ... ... : ... .. . ... ... ... : ... .. . ... ... ... : ... .. . ... ... ... : ... .. . ... ... ...
ROW 0C : ... .. . ... ... ... : ... .. . ... ... ... : ... .. . ... ... ... : ... .. . ... ... ... : ... .. . ... ... ... : ... .. . ... ... ...
ROW 0D : ... .. . ... ... ... : ... .. . ... ... ... : ... .. . ... ... ... : ... .. . ... ... ... : ... .. . ... ... ... : ... .. . ... ... ...
ROW 0E : ... .. 5 ... ... ... : ... .. 6 ... ... ... : ... .. . ... ... ... : ... .. . ... ... ... : ... .. . ... ... ... : ... .. . ... ... ...
ROW 0F : ... .. 4 ... ... ... : ... .. 5 ... ... ... : ... .. . ... ... ... : ... .. 4 ... ... ... : ... .. . ... ... ... : ... .. 2 ... ... ...
ROW 10 : G-2 02 A ... ... ... : C-3 01 C ... ... ... : C-4 00 . ... ... ... : 9-# 00 B ... ... ... : D-1 05 . ... ... ... : A#3 04 6 I02 J6E ...
ROW 11 : G-2 01 . ... ... ... : C-3 02 . ... ... ... : C-3 00 . ... ... ... : 5-# 00 8 ... ... ... : ... .. . ... ... ... : ... .. 5 ... ... ...
ROW 12 : ... .. . ... ... ... : C-3 00 . ... ... ... : ... .. . ... ... ... : 8-# 00 A ... ... ... : ... .. . ... ... ... : ... .. . ... ... ...
ROW 13 : ... .. . ... ... ... : ... .. . ... ... ... : ... .. . ... ... ... : A-# 00 8 ... ... ... : ... .. . ... ... ... : ... .. 4 ... ... ...
ROW 14 : ... .. . ... ... ... : ... .. . ... ... ... : ... .. . ... ... ... : B-# 00 . ... ... ... : ... .. . ... ... ... : ... .. . ... ... ...
ROW 15 : ... .. . ... ... ... : ... .. . ... ... ... : ... .. . ... ... ... : C-# 00 . ... ... ... : ... .. . ... ... ... : ... .. . ... ... ...
ROW 16 : ... .. . ... ... ... : ... .. . ... ... ... : ... .. . ... ... ... : ... .. . ... ... ... : C#1 05 . ... ... ... : ... .. . ... ... ...
ROW 17 : ... .. . ... ... ... : ... .. . ... ... ... : ... .. . ... ... ... : ... .. 7 ... ... ... : ... .. . ... ... ... : ... .. . ... ... ...
ROW 18 : ... .. . ... ... ... : ... .. . ... ... ... : ... .. . ... ... ... : ... .. . ... ... ... : ... .. . ... ... ... : ... .. . ... ... ...
ROW 19 : ... .. . ... ... ... : ... .. . ... ... ... : ... .. . ... ... ... : ... .. 6 ... ... ... : ... .. . ... ... ... : ... .. . ... ... ...
ROW 1A : ... .. 5 ... ... ... : ... .. 6 ... ... ... : ... .. . ... ... ... : ... .. . ... ... ... : ... .. . ... ... ... : ... .. . ... ... ...
ROW 1B : ... .. 4 ... ... ... : ... .. 5 ... ... ... : ... .. . ... ... ... : ... .. . ... ... ... : ... .. . ... ... ... : ... .. 2 ... ... ...
ROW 1C : D-2 02 A ... ... ... : G-2 01 C ... ... ... : G-3 00 . ... ... ... : ... .. . ... ... ... : D-1 05 . ... ... ... : F-3 04 6 I01 JD5 ...
ROW 1D : D-2 01 . ... ... ... : G-2 02 . ... ... ... : G-2 00 . ... ... ... : ... .. 5 ... ... ... : ... .. . ... ... ... : ... .. 5 ... ... ...
ROW 1E : ... .. . ... ... ... : G-2 00 . ... ... ... : ... .. . ... ... ... : ... .. . ... ... ... : ... .. . ... ... ... : ... .. . ... ... ...
ROW 1F : ... .. . ... ... ... : ... .. . ... ... ... : ... .. . ... ... ... : ... .. . ... ... ... : ... .. . ... ... ... : ... .. 4 ... ... ...
ROW 20 : ... .. . ... ... ... : ... .. . ... ... ... : ... .. . ... ... ... : ... .. . ... ... ... : ... .. . ... ... ... : ... .. . ... ... ...
ROW 21 : ... .. . ... ... ... : ... .. . ... ... ... : ... .. . ... ... ... : ... .. . ... ... ... : ... .. . ... ... ... : ... .. . ... ... ...
ROW 22 : ... .. . ... ... ... : ... .. . ... ... ... : ... .. . ... ... ... : ... .. . ... ... ... : C#1 05 . ... ... ... : ... .. . ... ... ...
ROW 23 : ... .. . ... ... ... : ... .. . ... ... ... : ... .. . ... ... ... : ... .. . ... ... ... : ... .. . ... ... ... : ... .. . ... ... ...
ROW 24 : ... .. . ... ... ... : ... .. . ... ... ... : ... .. . ... ... ... : ... .. . ... ... ... : ... .. . ... ... ... : ... .. . ... ... ...
ROW 25 : ... .. . ... ... ... : ... .. . ... ... ... : ... .. . ... ... ... : ... .. . ... ... ... : ... .. . ... ... ... : ... .. . ... ... ...
ROW 26 : ... .. 5 ... ... ... : ... .. 6 ... ... ... : ... .. . ... ... ... : ... .. . ... ... ... : ... .. . ... ... ... : ... .. . ... ... ...
ROW 27 : ... .. 4 ... ... ... : ... .. 5 ... ... ... : ... .. . ... ... ... : ... .. 4 ... ... ... : ... .. . ... ... ... : ... .. 2 ... ... ...
ROW 28 : D-2 02 A ... ... ... : G-2 01 C ... ... ... : G-3 00 . ... ... ... : 9-# 00 B ... ... ... : D-1 05 . ... ... ... : ... .. 6 ... ... ...
ROW 29 : D-2 01 . ... ... ... : G-2 02 . ... ... ... : G-2 00 . ... ... ... : 5-# 00 8 ... ... ... : ... .. . ... ... ... : ... .. 5 ... ... ...
ROW 2A : ... .. . ... ... ... : G-2 00 . ... ... ... : ... .. . ... ... ... : 8-# 00 A ... ... ... : ... .. . ... ... ... : ... .. . ... ... ...
ROW 2B : ... .. . ... ... ... : ... .. . ... ... ... : ... .. . ... ... ... : A-# 00 8 ... ... ... : ... .. . ... ... ... : ... .. 4 ... ... ...
ROW 2C : ... .. . ... ... ... : ... .. . ... ... ... : ... .. . ... ... ... : B-# 00 . ... ... ... : ... .. . ... ... ... : ... .. . ... ... ...
ROW 2D : ... .. . ... ... ... : ... .. . ... ... ... : ... .. . ... ... ... : C-# 00 . ... ... ... : ... .. . ... ... ... : ... .. . ... ... ...
ROW 2E : ... .. . ... ... ... : ... .. . ... ... ... : ... .. . ... ... ... : ... .. . ... ... ... : C#1 05 . ... ... ... : ... .. . ... ... ...
ROW 2F : ... .. . ... ... ... : ... .. . ... ... ... : ... .. . ... ... ... : ... .. 7 ... ... ... : ... .. . ... ... ... : ... .. . ... ... ...
ROW 30 : ... .. . ... ... ... : ... .. . ... ... ... : ... .. . ... ... ... : ... .. . ... ... ... : ... .. . ... ... ... : ... .. . ... ... ...
ROW 31 : ... .. . ... ... ... : ... .. . ... ... ... : ... .. . ... ... ... : ... .. 6 ... ... ... : ... .. . ... ... ... : ... .. . ... ... ...
ROW 32 : ... .. 5 ... ... ... : ... .. 6 ... ... ... : ... .. . ... ... ... : ... .. . ... ... ... : ... .. . ... ... ... : ... .. . ... ... ...
ROW 33 : ... .. 4 ... ... ... : ... .. 5 ... ... ... : ... .. . ... ... ... : ... .. . ... ... ... : ... .. . ... ... ... : ... .. 2 ... ... ...
ROW 34 : A-2 02 A ... ... ... : D-3 01 C ... ... ... : D-4 00 . ... ... ... : ... .. . ... ... ... : D-1 05 . ... ... ... : C-4 04 6 I02 JBA ...
ROW 35 : A-2 01 . ... ... ... : D-3 02 . ... ... ... : D-3 00 . ... ... ... : ... .. 5 ... ... ... : ... .. . ... ... ... : ... .. 5 ... ... ...
ROW 36 : ... .. . ... ... ... : D-3 00 . ... ... ... : ... .. . ... ... ... : ... .. . ... ... ... : ... .. . ... ... ... : ... .. . ... ... ...
ROW 37 : ... .. . ... ... ... : ... .. . ... ... ... : ... .. . ... ... ... : ... .. . ... ... ... : ... .. . ... ... ... : ... .. 4 ... ... ...
ROW 38 : ... .. . ... ... ... : ... .. . ... ... ... : ... .. . ... ... ... : ... .. . ... ... ... : ... .. . ... ... ... : ... .. . ... ... ...
ROW 39 : ... .. . ... ... ... : ... .. . ... ... ... : ... .. . ... ... ... : ... .. . ... ... ... : ... .. . ... ... ... : ... .. . ... ... ...
ROW 3A : ... .. . ... ... ... : ... .. . ... ... ... : ... .. . ... ... ... : ... .. . ... ... ... : C#1 05 . ... ... ... : ... .. . ... ... ...
ROW 3B : ... .. . ... ... ... : ... .. . ... ... ... : ... .. . ... ... ... : ... .. . ... ... ... : ... .. . ... ... ... : ... .. . ... ... ...
ROW 3C : ... .. . ... ... ... : ... .. . ... ... ... : ... .. . ... ... ... : ... .. . ... ... ... : ... .. . ... ... ... : ... .. . ... ... ...
ROW 3D : ... .. . ... ... ... : ... .. . ... ... ... : ... .. . ... ... ... : ... .. . ... ... ... : ... .. . ... ... ... : ... .. . ... ... ...
ROW 3E : ... .. 5 ... ... ... : ... .. 6 ... ... ... : ... .. . ... ... ... : ... .. . ... ... ... : ... .. . ... ... ... : ... .. . ... ... ...
ROW 3F : ... .. 4 ... ... ... : ... .. 5 ... ... ... : ... .. . ... ... ... : ... .. 4 ... ... ... : ... .. . ... ... ... : ... .. 2 ... ... ...
ROW 40 : D-2 02 A ... ... ... : G-2 01 C ... ... ... : G-3 00 . ... ... ... : 9-# 00 B ... ... ... : D-1 05 . ... ... ... : F-3 04 6 I01 JD5 ...
ROW 41 : D-2 01 . ... ... ... : G-2 02 . ... ... ... : G-2 00 . ... ... ... : 5-# 00 8 ... ... ... : ... .. . ... ... ... : ... .. 5 ... ... ...
ROW 42 : ... .. . ... ... ... : G-2 00 . ... ... ... : ... .. . ... ... ... : 8-# 00 A ... ... ... : ... .. . ... ... ... : ... .. . ... ... ...
ROW 43 : ... .. . ... ... ... : ... .. . ... ... ... : ... .. . ... ... ... : A-# 00 8 ... ... ... : ... .. . ... ... ... : ... .. 4 ... ... ...
ROW 44 : ... .. . ... ... ... : ... .. . ... ... ... : ... .. . ... ... ... : B-# 00 . ... ... ... : ... .. . ... ... ... : ... .. . ... ... ...
ROW 45 : ... .. . ... ... ... : ... .. . ... ... ... : ... .. . ... ... ... : C-# 00 . ... ... ... : ... .. . ... ... ... : ... .. . ... ... ...
ROW 46 : ... .. . ... ... ... : ... .. . ... ... ... : ... .. . ... ... ... : ... .. . ... ... ... : D-1 05 . ... ... ... : ... .. . ... ... ...
ROW 47 : ... .. . ... ... ... : ... .. . ... ... ... : ... .. . ... ... ... : ... .. 7 ... ... ... : ... .. . ... ... ... : ... .. . ... ... ...
ROW 48 : ... .. . ... ... ... : ... .. . ... ... ... : ... .. . ... ... ... : ... .. . ... ... ... : ... .. . ... ... ... : ... .. . ... ... ...
ROW 49 : ... .. . ... ... ... : ... .. . ... ... ... : ... .. . ... ... ... : ... .. 6 ... ... ... : ... .. . ... ... ... : ... .. . ... ... ...
ROW 4A : ... .. 5 ... ... ... : ... .. 6 ... ... ... : ... .. . ... ... ... : ... .. . ... ... ... : ... .. . ... ... ... : ... .. . ... ... ...
ROW 4B : ... .. 4 ... ... ... : ... .. 5 ... ... ... : ... .. . ... ... ... : ... .. . ... ... ... : ... .. . ... ... ... : ... .. 2 ... ... ...
ROW 4C : G#2 02 A ... ... ... : C#3 01 C ... ... ... : C#4 00 . ... ... ... : ... .. . ... ... ... : D-1 05 . ... ... ... : B-3 04 6 I02 J92 ...
ROW 4D : G#2 01 . ... ... ... : C#3 02 . ... ... ... : C#3 00 . ... ... ... : ... .. 5 ... ... ... : ... .. . ... ... ... : ... .. 5 ... ... ...
ROW 4E : ... .. . ... ... ... : C#3 00 . ... ... ... : ... .. . ... ... ... : ... .. . ... ... ... : ... .. . ... ... ... : ... .. . ... ... ...
ROW 4F : ... .. . ... ... ... : ... .. . ... ... ... : ... .. . ... ... ... : ... .. . ... ... ... : ... .. . ... ... ... : ... .. 4 ... ... ...
ROW 50 : ... .. . ... ... ... : ... .. . ... ... ... : ... .. . ... ... ... : ... .. . ... ... ... : ... .. . ... ... ... : ... .. . ... ... ...
ROW 51 : ... .. . ... ... ... : ... .. . ... ... ... : ... .. . ... ... ... : ... .. . ... ... ... : ... .. . ... ... ... : ... .. . ... ... ...
ROW 52 : ... .. . ... ... ... : ... .. . ... ... ... : ... .. . ... ... ... : ... .. . ... ... ... : C#1 05 . ... ... ... : ... .. . ... ... ...
ROW 53 : ... .. . ... ... ... : ... .. . ... ... ... : ... .. . ... ... ... : ... .. . ... ... ... : ... .. . ... ... ... : ... .. . ... ... ...
ROW 54 : ... .. . ... ... ... : ... .. . ... ... ... : ... .. . ... ... ... : ... .. . ... ... ... : ... .. . ... ... ... : ... .. . ... ... ...
ROW 55 : ... .. . ... ... ... : ... .. . ... ... ... : ... .. . ... ... ... : ... .. . ... ... ... : ... .. . ... ... ... : ... .. . ... ... ...
ROW 56 : ... .. 5 ... ... ... : ... .. 6 ... ... ... : ... .. . ... ... ... : ... .. . ... ... ... : ... .. . ... ... ... : ... .. . ... ... ...
ROW 57 : ... .. 4 ... ... ... : ... .. 5 ... ... ... : ... .. . ... ... ... : ... .. 4 ... ... ... : ... .. . ... ... ... : ... .. 2 ... ... ...
ROW 58 : D-2 02 A ... ... ... : G-2 01 C ... ... ... : G-3 00 . ... ... ... : 9-# 00 B ... ... ... : D-1 05 . ... ... ... : F-3 04 6 I01 JD5 ...
ROW 59 : D-2 01 . ... ... ... : G-2 02 . ... ... ... : G-2 00 . ... ... ... : 5-# 00 8 ... ... ... : ... .. . ... ... ... : ... .. 5 ... ... ...
ROW 5A : ... .. . ... ... ... : G-2 00 . ... ... ... : ... .. . ... ... ... : 8-# 00 A ... ... ... : ... .. . ... ... ... : ... .. . ... ... ...
ROW 5B : ... .. . ... ... ... : ... .. . ... ... ... : ... .. . ... ... ... : A-# 00 8 ... ... ... : ... .. . ... ... ... : ... .. 4 ... ... ...
ROW 5C : ... .. . ... ... ... : ... .. . ... ... ... : ... .. . ... ... ... : B-# 00 . ... ... ... : ... .. . ... ... ... : ... .. . ... ... ...
ROW 5D : ... .. . ... ... ... : ... .. . ... ... ... : ... .. . ... ... ... : C-# 00 . ... ... ... : ... .. . ... ... ... : ... .. . ... ... ...
ROW 5E : ... .. . ... ... ... : ... .. . ... ... ... : ... .. . ... ... ... : ... .. . ... ... ... : C#1 05 . ... ... ... : ... .. . ... ... ...
ROW 5F : ... .. . ... ... ... : ... .. . ... ... ... : ... .. . ... ... ... : ... .. 7 ... ... ... : ... .. . ... ... ... : ... .. . ... ... ...
ROW 60 : ... .. . ... ... ... : ... .. . ... ... ... : ... .. . ... ... ... : ... .. . ... ... ... : ... .. . ... ... ... : ... .. . ... ... ...
ROW 61 : ... .. . ... ... ... : ... .. . ... ... ... : ... .. . ... ... ... : ... .. 6 ... ... ... : ... .. . ... ... ... : ... .. . ... ... ...
ROW 62 : ... .. 5 ... ... ... : ... .. 6 ... ... ... : ... .. . ... ... ... : ... .. . ... ... ... : ... .. . ... ... ... : ... .. . ... ... ...
ROW 63 : ... .. 4 ... ... ... : ... .. 5 ... ... ... : ... .. . ... ... ... : ... .. . ... ... ... : ... .. . ... ... ... : ... .. 2 ... ... ...
ROW 64 : D-2 02 A ... ... ... : G-2 01 C ... ... ... : G-3 00 . ... ... ... : ... .. . ... ... ... : D-1 05 . ... ... ... : ... .. 6 ... ... ...
ROW 65 : D-2 01 . ... ... ... : G-2 02 . ... ... ... : G-2 00 . ... ... ... : ... .. 5 ... ... ... : ... .. . ... ... ... : ... .. 5 ... ... ...
ROW 66 : ... .. . ... ... ... : G-2 00 . ... ... ... : ... .. . ... ... ... : ... .. . ... ... ... : ... .. . ... ... ... : ... .. . ... ... ...
ROW 67 : ... .. . ... ... ... : ... .. . ... ... ... : ... .. . ... ... ... : ... .. . ... ... ... : ... .. . ... ... ... : ... .. 4 ... ... ...
ROW 68 : ... .. . ... ... ... : ... .. . ... ... ... : ... .. . ... ... ... : ... .. . ... ... ... : ... .. . ... ... ... : ... .. . ... ... ...
ROW 69 : ... .. . ... ... ... : ... .. . ... ... ... : ... .. . ... ... ... : ... .. . ... ... ... : ... .. . ... ... ... : ... .. . ... ... ...
ROW 6A : ... .. . ... ... ... : ... .. . ... ... ... : ... .. . ... ... ... : ... .. . ... ... ... : C#1 05 . ... ... ... : ... .. . ... ... ...
ROW 6B : ... .. . ... ... ... : ... .. . ... ... ... : ... .. . ... ... ... : ... .. . ... ... ... : ... .. . ... ... ... : ... .. . ... ... ...
ROW 6C : ... .. . ... ... ... : ... .. . ... ... ... : ... .. . ... ... ... : ... .. . ... ... ... : ... .. . ... ... ... : ... .. . ... ... ...
ROW 6D : ... .. . ... ... ... : ... .. . ... ... ... : ... .. . ... ... ... : ... .. . ... ... ... : ... .. . ... ... ... : ... .. . ... ... ...
ROW 6E : ... .. 5 ... ... ... : ... .. 6 ... ... ... : ... .. . ... ... ... : ... .. . ... ... ... : ... .. . ... ... ... : ... .. . ... ... ...
ROW 6F : ... .. 4 ... ... ... : ... .. 5 ... ... ... : ... .. . ... ... ... : ... .. 4 ... ... ... : ... .. . ... ... ... : ... .. 2 ... ... ...
ROW 70 : D#2 02 A ... ... ... : G#2 01 C ... ... ... : G#3 00 . ... ... ... : 9-# 00 B ... ... ... : D-1 05 . ... ... ... : F#3 04 6 I01 JF0 ...
ROW 71 : D#2 01 . ... ... ... : G#2 02 . ... ... ... : G#2 00 . ... ... ... : 5-# 00 8 ... ... ... : ... .. . ... ... ... : ... .. 5 ... ... ...
ROW 72 : ... .. . ... ... ... : G#2 00 . ... ... ... : ... .. . ... ... ... : 8-# 00 A ... ... ... : ... .. . ... ... ... : ... .. . ... ... ...
ROW 73 : ... .. . ... ... ... : ... .. . ... ... ... : ... .. . ... ... ... : A-# 00 8 ... ... ... : ... .. . ... ... ... : ... .. 4 ... ... ...
ROW 74 : ... .. . ... ... ... : ... .. . ... ... ... : ... .. . ... ... ... : B-# 00 . ... ... ... : ... .. . ... ... ... : ... .. . ... ... ...
ROW 75 : ... .. . ... ... ... : ... .. . ... ... ... : ... .. . ... ... ... : C-# 00 . ... ... ... : ... .. . ... ... ... : ... .. . ... ... ...
ROW 76 : ... .. . ... ... ... : ... .. . ... ... ... : ... .. . ... ... ... : ... .. . ... ... ... : C#1 05 . ... ... ... : ... .. . ... ... ...
ROW 77 : ... .. . ... ... ... : ... .. . ... ... ... : ... .. . ... ... ... : ... .. 7 ... ... ... : ... .. . ... ... ... : ... .. . ... ... ...
ROW 78 : ... .. . ... ... ... : ... .. . ... ... ... : ... .. . ... ... ... : ... .. . ... ... ... : ... .. . ... ... ... : ... .. . ... ... ...
ROW 79 : ... .. . ... ... ... : ... .. . ... ... ... : ... .. . ... ... ... : ... .. 6 ... ... ... : ... .. . ... ... ... : ... .. . ... ... ...
ROW 7A : ... .. 5 ... ... ... : ... .. 6 ... ... ... : ... .. . ... ... ... : ... .. . ... ... ... : ... .. . ... ... ... : ... .. . ... ... ...
ROW 7B : ... .. 4 ... ... ... : ... .. 5 ... ... ... : ... .. . ... ... ... : ... .. . ... ... ... : ... .. . ... ... ... : ... .. 2 ... ... ...
ROW 7C : D-2 02 A ... ... ... : G-2 01 C ... ... ... : G-3 00 . ... ... ... : ... .. . ... ... ... : D-1 05 . ... ... ... : F-3 04 6 I01 JD5 ...
ROW 7D : D-2 01 . ... ... ... : G-2 02 . ... ... ... : G-2 00 . ... ... ... : ... .. 5 ... ... ... : ... .. . ... ... ... : ... .. 5 ... ... ...
ROW 7E : ... .. . ... ... ... : G-2 00 . ... ... ... : ... .. . ... ... ... : ... .. . ... ... ... : ... .. . ... ... ... : ... .. . ... ... ...
ROW 7F : ... .. . ... ... ... : ... .. . ... ... ... : ... .. . ... ... ... : ... .. . ... ... ... : ... .. . ... ... ... : ... .. 4 ... ... ...
ROW 80 : ... .. . ... ... ... : ... .. . ... ... ... : ... .. . ... ... ... : ... .. . ... ... ... : ... .. . ... ... ... : ... .. . ... ... ...
ROW 81 : ... .. . ... ... ... : ... .. . ... ... ... : ... .. . ... ... ... : ... .. . ... ... ... : ... .. . ... ... ... : ... .. . ... ... ...
ROW 82 : ... .. . ... ... ... : ... .. . ... ... ... : ... .. . ... ... ... : ... .. . ... ... ... : C#1 05 . ... ... ... : ... .. . ... ... ...
ROW 83 : ... .. . ... ... ... : ... .. . ... ... ... : ... .. . ... ... ... : ... .. . ... ... ... : ... .. . ... ... ... : ... .. . ... ... ...
ROW 84 : ... .. . ... ... ... : ... .. . ... ... ... : ... .. . ... ... ... : ... .. . ... ... ... : ... .. . ... ... ... : ... .. . ... ... ...
ROW 85 : ... .. . ... ... ... : ... .. . ... ... ... : ... .. . ... ... ... : ... .. . ... ... ... : ... .. . ... ... ... : ... .. . ... ... ...
ROW 86 : ... .. 5 ... ... ... : ... .. 6 ... ... ... : ... .. . ... ... ... : ... .. . ... ... ... : ... .. . ... ... ... : ... .. . ... ... ...
ROW 87 : ... .. 4 ... ... ... : ... .. 5 ... ... ... : ... .. . ... ... ... : ... .. 4 ... ... ... : ... .. . ... ... ... : ... .. 2 ... ... ...
ROW 88 : D-2 02 A ... ... ... : G-2 01 C ... ... ... : G-3 00 . ... ... ... : 9-# 00 B ... ... ... : D-1 05 . ... ... ... : ... .. 6 ... ... ...
ROW 89 : D-2 01 . ... ... ... : G-2 02 . ... ... ... : G-2 00 . ... ... ... : 5-# 00 8 ... ... ... : ... .. . ... ... ... : ... .. 5 ... ... ...
ROW 8A : ... .. . ... ... ... : G-2 00 . ... ... ... : ... .. . ... ... ... : 8-# 00 A ... ... ... : ... .. . ... ... ... : ... .. . ... ... ...
ROW 8B : ... .. . ... ... ... : ... .. . ... ... ... : ... .. . ... ... ... : A-# 00 8 ... ... ... : ... .. . ... ... ... : ... .. 4 ... ... ...
ROW 8C : ... .. . ... ... ... : ... .. . ... ... ... : ... .. . ... ... ... : B-# 00 . ... ... ... : ... .. . ... ... ... : ... .. . ... ... ...
ROW 8D : ... .. . ... ... ... : ... .. . ... ... ... : ... .. . ... ... ... : C-# 00 . ... ... ... : ... .. . ... ... ... : ... .. . ... ... ...
ROW 8E : ... .. . ... ... ... : ... .. . ... ... ... : ... .. . ... ... ... : ... .. . ... ... ... : C#1 05 . ... ... ... : ... .. . ... ... ...
ROW 8F : ... .. . ... ... ... : ... .. . ... ... ... : ... .. . ... ... ... : ... .. 7 ... ... ... : ... .. . ... ... ... : ... .. . ... ... ...
ROW 90 : ... .. . ... ... ... : ... .. . ... ... ... : ... .. . ... ... ... : ... .. . ... ... ... : ... .. . ... ... ... : ... .. . ... ... ...
ROW 91 : ... .. . ... ... ... : ... .. . ... ... ... : ... .. . ... ... ... : ... .. 6 ... ... ... : ... .. . ... ... ... : ... .. . ... ... ...
ROW 92 : ... .. 5 ... ... ... : ... .. 6 ... ... ... : ... .. . ... ... ... : ... .. . ... ... ... : ... .. . ... ... ... : ... .. . ... ... ...
ROW 93 : ... .. 4 ... ... ... : ... .. 5 ... ... ... : ... .. . ... ... ... : ... .. . ... ... ... : ... .. . ... ... ... : ... .. 2 ... ... ...
ROW 94 : F-2 02 A ... ... ... : A#2 01 C ... ... ... : A#3 00 . ... ... ... : ... .. . ... ... ... : D-1 05 . ... ... ... : G#3 04 6 I02 J2A ...
ROW 95 : F-2 01 . ... ... ... : A#2 02 . ... ... ... : A#2 00 . ... ... ... : ... .. 5 ... ... ... : ... .. . ... ... ... : ... .. 5 ... ... ...
ROW 96 : ... .. . ... ... ... : A#2 00 . ... ... ... : ... .. . ... ... ... : ... .. . ... ... ... : ... .. . ... ... ... : ... .. . ... ... ...
ROW 97 : ... .. . ... ... ... : ... .. . ... ... ... : ... .. . ... ... ... : ... .. . ... ... ... : ... .. . ... ... ... : ... .. 4 ... ... ...
ROW 98 : ... .. . ... ... ... : ... .. . ... ... ... : ... .. . ... ... ... : ... .. . ... ... ... : ... .. . ... ... ... : ... .. . ... ... ...
ROW 99 : ... .. . ... ... ... : ... .. . ... ... ... : ... .. . ... ... ... : ... .. . ... ... ... : ... .. . ... ... ... : ... .. . ... ... ...
ROW 9A : ... .. . ... ... ... : ... .. . ... ... ... : ... .. . ... ... ... : ... .. . ... ... ... : C#1 05 . ... ... ... : ... .. . ... ... ...
ROW 9B : ... .. . ... ... ... : ... .. . ... ... ... : ... .. . ... ... ... : ... .. . ... ... ... : ... .. . ... ... ... : ... .. . ... ... ...
ROW 9C : ... .. . ... ... ... : ... .. . ... ... ... : ... .. . ... ... ... : ... .. . ... ... ... : ... .. . ... ... ... : ... .. . ... ... ...
ROW 9D : ... .. . ... ... ... : ... .. . ... ... ... : ... .. . ... ... ... : ... .. . ... ... ... : ... .. . ... ... ... : ... .. . ... ... ...
ROW 9E : ... .. 5 ... ... ... : ... .. 6 ... ... ... : ... .. . ... ... ... : ... .. . ... ... ... : ... .. . ... ... ... : ... .. . ... ... ...
ROW 9F : ... .. 4 ... ... ... : ... .. 5 ... ... ... : ... .. . ... ... ... : ... .. 4 ... ... ... : ... .. . ... ... ... : ... .. 2 ... ... ...
ROW A0 : D-2 02 A ... ... ... : G-2 01 C ... ... ... : G-3 00 . ... ... ... : 9-# 00 B ... ... ... : D-1 05 . ... ... ... : F-3 04 6 I01 JD5 ...
ROW A1 : D-2 01 . ... ... ... : G-2 02 . ... ... ... : G-2 00 . ... ... ... : 5-# 00 8 ... ... ... : ... .. . ... ... ... : ... .. 5 ... ... ...
ROW A2 : ... .. . ... ... ... : G-2 00 . ... ... ... : ... .. . ... ... ... : 8-# 00 A ... ... ... : ... .. . ... ... ... : ... .. . ... ... ...
ROW A3 : ... .. . ... ... ... : ... .. . ... ... ... : ... .. . ... ... ... : A-# 00 8 ... ... ... : ... .. . ... ... ... : ... .. 4 ... ... ...
ROW A4 : ... .. . ... ... ... : ... .. . ... ... ... : ... .. . ... ... ... : B-# 00 . ... ... ... : ... .. . ... ... ... : ... .. . ... ... ...
ROW A5 : ... .. . ... ... ... : ... .. . ... ... ... : ... .. . ... ... ... : C-# 00 . ... ... ... : ... .. . ... ... ... : ... .. . ... ... ...
ROW A6 : ... .. . ... ... ... : ... .. . ... ... ... : ... .. . ... ... ... : ... .. . ... ... ... : C#1 05 . ... ... ... : ... .. . ... ... ...
ROW A7 : ... .. . ... ... ... : ... .. . ... ... ... : ... .. . ... ... ... : ... .. 7 ... ... ... : ... .. . ... ... ... : ... .. . ... ... ...
ROW A8 : ... .. . ... ... ... : ... .. . ... ... ... : ... .. . ... ... ... : ... .. . ... ... ... : ... .. . ... ... ... : ... .. . ... ... ...
ROW A9 : ... .. . ... ... ... : ... .. . ... ... ... : ... .. . ... ... ... : ... .. 6 ... ... ... : ... .. . ... ... ... : ... .. . ... ... ...
ROW AA : ... .. 5 ... ... ... : ... .. 6 ... ... ... : ... .. . ... ... ... : ... .. . ... ... ... : ... .. . ... ... ... : ... .. . ... ... ...
ROW AB : ... .. 4 ... ... ... : ... .. 5 ... ... ... : ... .. . ... ... ... : ... .. . ... ... ... : ... .. . ... ... ... : ... .. 2 ... ... ...
ROW AC : D#2 02 A ... ... ... : G#2 01 C ... ... ... : G#3 00 . ... ... ... : ... .. . ... ... ... : D-1 05 . ... ... ... : F#3 04 6 I01 JF0 ...
ROW AD : D#2 01 . ... ... ... : G#2 02 . ... ... ... : G#2 00 . ... ... ... : ... .. 5 ... ... ... : ... .. . ... ... ... : ... .. 5 ... ... ...
ROW AE : ... .. . ... ... ... : G#2 00 . ... ... ... : ... .. . ... ... ... : ... .. . ... ... ... : ... .. . ... ... ... : ... .. . ... ... ...
ROW AF : ... .. . ... ... ... : ... .. . ... ... ... : ... .. . ... ... ... : ... .. . ... ... ... : ... .. . ... ... ... : ... .. 4 ... ... ...
ROW B0 : ... .. . ... ... ... : ... .. . ... ... ... : ... .. . ... ... ... : ... .. . ... ... ... : ... .. . ... ... ... : ... .. . ... ... ...
ROW B1 : ... .. . ... ... ... : ... .. . ... ... ... : ... .. . ... ... ... : ... .. . ... ... ... : ... .. . ... ... ... : ... .. . ... ... ...
ROW B2 : ... .. . ... ... ... : ... .. . ... ... ... : ... .. . ... ... ... : ... .. . ... ... ... : C#1 05 . ... ... ... : ... .. . ... ... ...
ROW B3 : ... .. . ... ... ... : ... .. . ... ... ... : ... .. . ... ... ... : ... .. . ... ... ... : ... .. . ... ... ... : ... .. . ... ... ...
ROW B4 : ... .. . ... ... ... : ... .. . ... ... ... : ... .. . ... ... ... : ... .. . ... ... ... : ... .. . ... ... ... : ... .. . ... ... ...
ROW B5 : ... .. . ... ... ... : ... .. . ... ... ... : ... .. . ... ... ... : ... .. . ... ... ... : ... .. . ... ... ... : ... .. . ... ... ...
ROW B6 : ... .. 5 ... ... ... : ... .. 6 ... ... ... : ... .. . ... ... ... : ... .. . ... ... ... : ... .. . ... ... ... : ... .. . ... ... ...
ROW B7 : ... .. 4 ... ... ... : ... .. 5 ... ... ... : ... .. . ... ... ... : ... .. 4 ... ... ... : ... .. . ... ... ... : ... .. 2 ... ... ...
ROW B8 : D-2 02 A ... ... ... : G-2 01 C ... ... ... : G-3 00 . ... ... ... : 9-# 00 B ... ... ... : D-1 05 . ... ... ... : F-3 04 6 I01 JD5 ...
ROW B9 : D-2 01 . ... ... ... : G-2 02 . ... ... ... : G-2 00 . ... ... ... : 5-# 00 8 ... ... ... : ... .. . ... ... ... : ... .. 5 ... ... ...
ROW BA : ... .. . ... ... ... : G-2 00 . ... ... ... : ... .. . ... ... ... : 8-# 00 A ... ... ... : ... .. . ... ... ... : ... .. . ... ... ...
ROW BB : ... .. . ... ... ... : ... .. . ... ... ... : ... .. . ... ... ... : A-# 00 8 ... ... ... : ... .. . ... ... ... : ... .. 4 ... ... ...
ROW BC : ... .. . ... ... ... : ... .. . ... ... ... : ... .. . ... ... ... : B-# 00 . ... ... ... : ... .. . ... ... ... : ... .. . ... ... ...
ROW BD : ... .. . ... ... ... : ... .. . ... ... ... : ... .. . ... ... ... : C-# 00 . ... ... ... : ... .. . ... ... ... : ... .. . ... ... ...
ROW BE : ... .. . ... ... ... : ... .. . ... ... ... : ... .. . ... ... ... : ... .. . ... ... ... : C#1 05 . ... ... ... : ... .. . ... ... ...
ROW BF : ... .. . ... ... ... : ... .. . ... ... ... : ... .. . ... ... ... : ... .. 7 ... ... ... : ... .. . ... ... ... : ... .. . ... ... ...
ROW C0 : ... .. . ... ... ... : ... .. . ... ... ... : ... .. . ... ... ... : ... .. . ... ... ... : ... .. . ... ... ... : ... .. . ... ... ...
ROW C1 : ... .. . ... ... ... : ... .. . ... ... ... : ... .. . ... ... ... : ... .. 6 ... ... ... : ... .. . ... ... ... : ... .. . ... ... ...
ROW C2 : ... .. 5 ... ... ... : ... .. 6 ... ... ... : ... .. . ... ... ... : ... .. . ... ... ... : ... .. . ... ... ... : ... .. . ... ... ...
ROW C3 : ... .. 4 ... ... ... : ... .. 5 ... ... ... : ... .. . ... ... ... : ... .. . ... ... ... : ... .. . ... ... ... : ... .. 2 ... ... ...
ROW C4 : D-2 02 A ... ... ... : G-2 01 C ... ... ... : G-3 00 . ... ... ... : ... .. . ... ... ... : D-1 05 . ... ... ... : ... .. 6 ... ... ...
ROW C5 : D-2 01 . ... ... ... : G-2 02 . ... ... ... : G-2 00 . ... ... ... : ... .. 5 ... ... ... : ... .. . ... ... ... : ... .. 5 ... ... ...
ROW C6 : ... .. . ... ... ... : G-2 00 . ... ... ... : ... .. . ... ... ... : ... .. . ... ... ... : ... .. . ... ... ... : ... .. . ... ... ...
ROW C7 : ... .. . ... ... ... : ... .. . ... ... ... : ... .. . ... ... ... : ... .. . ... ... ... : ... .. . ... ... ... : ... .. 4 ... ... ...
ROW C8 : ... .. . ... ... ... : ... .. . ... ... ... : ... .. . ... ... ... : ... .. . ... ... ... : ... .. . ... ... ... : ... .. . ... ... ...
ROW C9 : ... .. . ... ... ... : ... .. . ... ... ... : ... .. . ... ... ... : ... .. . ... ... ... : ... .. . ... ... ... : ... .. . ... ... ...
ROW CA : ... .. . ... ... ... : ... .. . ... ... ... : ... .. . ... ... ... : ... .. . ... ... ... : C#1 05 . ... ... ... : ... .. . ... ... ...
ROW CB : ... .. . ... ... ... : ... .. . ... ... ... : ... .. . ... ... ... : ... .. . ... ... ... : ... .. . ... ... ... : ... .. . ... ... ...
ROW CC : ... .. . ... ... ... : ... .. . ... ... ... : ... .. . ... ... ... : ... .. . ... ... ... : ... .. . ... ... ... : ... .. . ... ... ...
ROW CD : ... .. . ... ... ... : ... .. . ... ... ... : ... .. . ... ... ... : ... .. . ... ... ... : ... .. . ... ... ... : ... .. . ... ... ...
ROW CE : ... .. 5 ... ... ... : ... .. 6 ... ... ... : ... .. . ... ... ... : ... .. . ... ... ... : ... .. . ... ... ... : ... .. . ... ... ...
ROW CF : ... .. 4 ... ... ... : ... .. 5 ... ... ... : ... .. . ... ... ... : ... .. 4 ... ... ... : ... .. . ... ... ... : ... .. 2 ... ... ...
ROW D0 : G-2 02 A ... ... ... : C-3 01 C ... ... ... : C-4 00 . ... ... ... : 9-# 00 B ... ... ... : D-1 05 . ... ... ... : A#3 04 6 I02 J6E ...
ROW D1 : G-2 01 . ... ... ... : C-3 02 . ... ... ... : C-3 00 . ... ... ... : 5-# 00 8 ... ... ... : ... .. . ... ... ... : ... .. 5 ... ... ...
ROW D2 : ... .. . ... ... ... : C-3 00 . ... ... ... : ... .. . ... ... ... : 8-# 00 A ... ... ... : ... .. . ... ... ... : ... .. . ... ... ...
ROW D3 : ... .. . ... ... ... : ... .. . ... ... ... : ... .. . ... ... ... : A-# 00 8 ... ... ... : ... .. . ... ... ... : ... .. 4 ... ... ...
ROW D4 : ... .. . ... ... ... : ... .. . ... ... ... : ... .. . ... ... ... : B-# 00 . ... ... ... : ... .. . ... ... ... : ... .. . ... ... ...
ROW D5 : ... .. . ... ... ... : ... .. . ... ... ... : ... .. . ... ... ... : C-# 00 . ... ... ... : ... .. . ... ... ... : ... .. . ... ... ...
ROW D6 : ... .. . ... ... ... : ... .. . ... ... ... : ... .. . ... ... ... : ... .. . ... ... ... : C#1 05 . ... ... ... : ... .. . ... ... ...
ROW D7 : ... .. . ... ... ... : ... .. . ... ... ... : ... .. . ... ... ... : ... .. 7 ... ... ... : ... .. . ... ... ... : ... .. . ... ... ...
ROW D8 : ... .. . ... ... ... : ... .. . ... ... ... : ... .. . ... ... ... : ... .. . ... ... ... : ... .. . ... ... ... : ... .. . ... ... ...
ROW D9 : ... .. . ... ... ... : ... .. . ... ... ... : ... .. . ... ... ... : ... .. 6 ... ... ... : ... .. . ... ... ... : ... .. . ... ... ...
ROW DA : ... .. 5 ... ... ... : ... .. 6 ... ... ... : ... .. . ... ... ... : ... .. . ... ... ... : ... .. . ... ... ... : ... .. . ... ... ...
ROW DB : ... .. 4 ... ... ... : ... .. 5 ... ... ... : ... .. . ... ... ... : ... .. . ... ... ... : ... .. . ... ... ... : ... .. 2 ... ... ...
ROW DC : D-2 02 A ... ... ... : G-2 01 C ... ... ... : G-3 00 . ... ... ... : ... .. . ... ... ... : D-1 05 . ... ... ... : F-3 04 6 I01 JD5 ...
ROW DD : D-2 01 . ... ... ... : G-2 02 . ... ... ... : G-2 00 . ... ... ... : ... .. 5 ... ... ... : ... .. . ... ... ... : ... .. 5 ... ... ...
ROW DE : ... .. . ... ... ... : G-2 00 . ... ... ... : ... .. . ... ... ... : ... .. . ... ... ... : ... .. . ... ... ... : ... .. . ... ... ...
ROW DF : ... .. . ... ... ... : ... .. . ... ... ... : ... .. . ... ... ... : ... .. . ... ... ... : ... .. . ... ... ... : ... .. 4 ... ... ...
ROW E0 : ... .. . ... ... ... : ... .. . ... ... ... : ... .. . ... ... ... : ... .. . ... ... ... : ... .. . ... ... ... : ... .. . ... ... ...
ROW E1 : ... .. . ... ... ... : ... .. . ... ... ... : ... .. . ... ... ... : ... .. . ... ... ... : ... .. . ... ... ... : ... .. . ... ... ...
ROW E2 : ... .. . ... ... ... : ... .. . ... ... ... : ... .. . ... ... ... : ... .. . ... ... ... : C#1 05 . ... ... ... : ... .. . ... ... ...
ROW E3 : ... .. . ... ... ... : ... .. . ... ... ... : ... .. . ... ... ... : ... .. . ... ... ... : ... .. . ... ... ... : ... .. . ... ... ...
ROW E4 : ... .. . ... ... ... : ... .. . ... ... ... : ... .. . ... ... ... : ... .. . ... ... ... : ... .. . ... ... ... : ... .. . ... ... ...
ROW E5 : ... .. . ... ... ... : ... .. . ... ... ... : ... .. . ... ... ... : ... .. . ... ... ... : ... .. . ... ... ... : ... .. . ... ... ...
ROW E6 : ... .. 5 ... ... ... : ... .. 6 ... ... ... : ... .. . ... ... ... : ... .. . ... ... ... : ... .. . ... ... ... : ... .. . ... ... ...
ROW E7 : ... .. 4 ... ... ... : ... .. 5 ... ... ... : ... .. . ... ... ... : ... .. 4 ... ... ... : ... .. . ... ... ... : ... .. 2 ... ... ...
ROW E8 : D-2 02 A ... ... ... : G-2 01 C ... ... ... : G-3 00 . ... ... ... : 9-# 00 B ... ... ... : D-1 05 . ... ... ... : ... .. 6 ... ... ...
ROW E9 : D-2 01 . ... ... ... : G-2 02 . ... ... ... : G-2 00 . ... ... ... : 5-# 00 8 ... ... ... : ... .. . ... ... ... : ... .. 5 ... ... ...
ROW EA : ... .. . ... ... ... : G-2 00 . ... ... ... : ... .. . ... ... ... : 8-# 00 A ... ... ... : ... .. . ... ... ... : ... .. . ... ... ...
ROW EB : ... .. . ... ... ... : ... .. . ... ... ... : ... .. . ... ... ... : A-# 00 8 ... ... ... : ... .. . ... ... ... : ... .. 4 ... ... ...
ROW EC : ... .. . ... ... ... : ... .. . ... ... ... : ... .. . ... ... ... : B-# 00 . ... ... ... : ... .. . ... ... ... : ... .. . ... ... ...
ROW ED : ... .. . ... ... ... : ... .. . ... ... ... : ... .. . ... ... ... : C-# 00 . ... ... ... : ... .. . ... ... ... : ... .. . ... ... ...
ROW EE : ... .. . ... ... ... : ... .. . ... ... ... : ... .. . ... ... ... : ... .. . ... ... ... : C#1 05 . ... ... ... : ... .. . ... ... ...
ROW EF : ... .. . ... ... ... : ... .. . ... ... ... : ... .. . ... ... ... : ... .. 7 ... ... ... : ... .. . ... ... ... : ... .. . ... ... ...
ROW F0 : ... .. . ... ... ... : ... .. . ... ... ... : ... .. . ... ... ... : ... .. . ... ... ... : ... .. . ... ... ... : ... .. . ... ... ...
ROW F1 : ... .. . ... ... ... : ... .. . ... ... ... : ... .. . ... ... ... : ... .. 6 ... ... ... : ... .. . ... ... ... : ... .. . ... ... ...
ROW F2 : ... .. 5 ... ... ... : ... .. 6 ... ... ... : ... .. . ... ... ... : ... .. . ... ... ... : ... .. . ... ... ... : ... .. . ... ... ...
ROW F3 : ... .. 4 ... ... ... : ... .. 5 ... ... ... : ... .. . ... ... ... : ... .. . ... ... ... : ... .. . ... ... ... : ... .. 2 ... ... ...
ROW F4 : A-2 02 A ... ... ... : D-3 01 C ... ... ... : D-4 00 . ... ... ... : ... .. . ... ... ... : D-1 05 . ... ... ... : C-4 04 6 I02 JBA ...
ROW F5 : A-2 01 . ... ... ... : D-3 02 . ... ... ... : D-3 00 . ... ... ... : ... .. 5 ... ... ... : ... .. . ... ... ... : ... .. 5 ... ... ...
ROW F6 : ... .. . ... ... ... : D-3 00 . ... ... ... : ... .. . ... ... ... : ... .. . ... ... ... : ... .. . ... ... ... : ... .. . ... ... ...
ROW F7 : ... .. . ... ... ... : ... .. . ... ... ... : ... .. . ... ... ... : ... .. . ... ... ... : ... .. . ... ... ... : ... .. 4 ... ... ...
ROW F8 : ... .. . ... ... ... : ... .. . ... ... ... : ... .. . ... ... ... : ... .. . ... ... ... : ... .. . ... ... ... : ... .. . ... ... ...
ROW F9 : ... .. . ... ... ... : ... .. . ... ... ... : ... .. . ... ... ... : ... .. . ... ... ... : ... .. . ... ... ... : ... .. . ... ... ...
ROW FA : ... .. . ... ... ... : ... .. . ... ... ... : ... .. . ... ... ... : ... .. . ... ... ... : C#1 05 . ... ... ... : ... .. . ... ... ...
ROW FB : ... .. . ... ... ... : ... .. . ... ... ... : ... .. . ... ... ... : ... .. . ... ... ... : ... .. . ... ... ... : ... .. . ... ... ...
ROW FC : ... .. . ... ... ... : ... .. . ... ... ... : ... .. . ... ... ... : ... .. . ... ... ... : ... .. . ... ... ... : ... .. . ... ... ...
ROW FD : ... .. . ... ... ... : ... .. . ... ... ... : ... .. . ... ... ... : ... .. . ... ... ... : ... .. . ... ... ... : ... .. . ... ... ...
ROW FE : ... .. 5 ... ... ... : ... .. 6 ... ... ... : ... .. . ... ... ... : ... .. . ... ... ... : ... .. . ... ... ... : ... .. . ... ... ...
ROW FF : ... .. 4 ... ... ... : ... .. 5 ... ... ... : ... .. . ... ... ... : ... .. 4 ... ... ... : ... .. . ... ... ... : ... .. 2 ... ... ...

PATTERN 11
ROW 00 : D-2 02 A ... ... ... : G-2 01 C ... ... ... : G-3 00 . ... ... ... : 9-# 00 B ... ... ... : D-1 05 . ... ... ... : F-3 04 6 I01 JD5 ...
ROW 01 : D-2 01 . ... ... ... : G-2 02 . ... ... ... : G-2 00 . ... ... ... : 5-# 00 8 ... ... ... : ... .. . ... ... ... : ... .. 5 ... ... ...
ROW 02 : ... .. . ... ... ... : G-2 00 . ... ... ... : ... .. . ... ... ... : 8-# 00 A ... ... ... : ... .. . ... ... ... : ... .. . ... ... ...
ROW 03 : ... .. . ... ... ... : ... .. . ... ... ... : ... .. . ... ... ... : A-# 00 8 ... ... ... : ... .. . ... ... ... : ... .. 4 ... ... ...
ROW 04 : ... .. . ... ... ... : ... .. . ... ... ... : ... .. . ... ... ... : B-# 00 . ... ... ... : ... .. . ... ... ... : ... .. . ... ... ...
ROW 05 : ... .. . ... ... ... : ... .. . ... ... ... : ... .. . ... ... ... : C-# 00 . ... ... ... : ... .. . ... ... ... : ... .. . ... ... ...
ROW 06 : ... .. . ... ... ... : ... .. . ... ... ... : ... .. . ... ... ... : ... .. . ... ... ... : D-1 05 . ... ... ... : ... .. . ... ... ...
ROW 07 : ... .. . ... ... ... : ... .. . ... ... ... : ... .. . ... ... ... : ... .. 7 ... ... ... : ... .. . ... ... ... : ... .. . ... ... ...
ROW 08 : ... .. . ... ... ... : ... .. . ... ... ... : ... .. . ... ... ... : ... .. . ... ... ... : ... .. . ... ... ... : ... .. . ... ... ...
ROW 09 : ... .. . ... ... ... : ... .. . ... ... ... : ... .. . ... ... ... : ... .. 6 ... ... ... : ... .. . ... ... ... : ... .. . ... ... ...
ROW 0A : ... .. 5 ... ... ... : ... .. 6 ... ... ... : ... .. . ... ... ... : ... .. . ... ... ... : ... .. . ... ... ... : ... .. . ... ... ...
ROW 0B : ... .. 4 ... ... ... : ... .. 5 ... ... ... : ... .. . ... ... ... : ... .. . ... ... ... : ... .. . ... ... ... : ... .. 2 ... ... ...
ROW 0C : G#2 02 A ... ... ... : C#3 01 C ... ... ... : C#4 00 . ... ... ... : ... .. . ... ... ... : D-1 05 . ... ... ... : B-3 04 6 I02 J92 ...
ROW 0D : G#2 01 . ... ... ... : C#3 02 . ... ... ... : C#3 00 . ... ... ... : ... .. 5 ... ... ... : ... .. . ... ... ... : ... .. 5 ... ... ...
ROW 0E : ... .. . ... ... ... : C#3 00 . ... ... ... : ... .. . ... ... ... : ... .. . ... ... ... : ... .. . ... ... ... : ... .. . ... ... ...
ROW 0F : ... .. . ... ... ... : ... .. . ... ... ... : ... .. . ... ... ... : ... .. . ... ... ... : ... .. . ... ... ... : ... .. 4 ... ... ...
ROW 10 : ... .. . ... ... ... : ... .. . ... ... ... : ... .. . ... ... ... : ... .. . ... ... ... : ... .. . ... ... ... : ... .. . ... ... ...
ROW 11 : ... .. . ... ... ... : ... .. . ... ... ... : ... .. . ... ... ... : ... .. . ... ... ... : ... .. . ... ... ... : ... .. . ... ... ...
ROW 12 : ... .. . ... ... ... : ... .. . ... ... ... : ... .. . ... ... ... : ... .. . ... ... ... : C#1 05 . ... ... ... : ... .. . ... ... ...
ROW 13 : ... .. . ... ... ... : ... .. . ... ... ... : ... .. . ... ... ... : ... .. . ... ... ... : ... .. . ... ... ... : ... .. . ... ... ...
ROW 14 : ... .. . ... ... ... : ... .. . ... ... ... : ... .. . ... ... ... : ... .. . ... ... ... : ... .. . ... ... ... : ... .. . ... ... ...
ROW 15 : ... .. . ... ... ... : ... .. . ... ... ... : ... .. . ... ... ... : ... .. . ... ... ... : ... .. . ... ... ... : ... .. . ... ... ...
ROW 16 : ... .. 5 ... ... ... : ... .. 6 ... ... ... : ... .. . ... ... ... : ... .. . ... ... ... : ... .. . ... ... ... : ... .. . ... ... ...
ROW 17 : ... .. 4 ... ... ... : ... .. 5 ... ... ... : ... .. . ... ... ... : ... .. 4 ... ... ... : ... .. . ... ... ... : ... .. 2 ... ... ...
ROW 18 : D-2 02 A ... ... ... : G-2 01 C ... ... ... : G-3 00 . ... ... ... : 8-# 01 9 ... ... ... : D-1 05 . ... ... ... : F-3 04 6 I01 JD5 ...
ROW 19 : D-2 01 . ... ... ... : G-2 02 . ... ... ... : G-2 00 . ... ... ... : 9-# 00 6 ... ... ... : ... .. . ... ... ... : ... .. 5 ... ... ...
ROW 1A : ... .. . ... ... ... : G-2 00 . ... ... ... : ... .. . ... ... ... : ... .. . ... ... ... : ... .. . ... ... ... : ... .. . ... ... ...
ROW 1B : ... .. . ... ... ... : ... .. . ... ... ... : ... .. . ... ... ... : A-# 01 5 ... ... ... : ... .. . ... ... ... : ... .. 4 ... ... ...
ROW 1C : ... .. . ... ... ... : ... .. . ... ... ... : ... .. . ... ... ... : 9-# 01 . ... ... ... : ... .. . ... ... ... : ... .. . ... ... ...
ROW 1D : ... .. . ... ... ... : ... .. . ... ... ... : ... .. . ... ... ... : A-# 00 4 ... ... ... : ... .. . ... ... ... : ... .. . ... ... ...
ROW 1E : ... .. . ... ... ... : ... .. . ... ... ... : ... .. . ... ... ... : C-# 00 9 ... ... ... : C#1 05 . ... ... ... : ... .. . ... ... ...
ROW 1F : ... .. . ... ... ... : ... .. . ... ... ... : ... .. . ... ... ... : A-# 00 6 ... ... ... : ... .. . ... ... ... : ... .. . ... ... ...
ROW 20 : ... .. . ... ... ... : ... .. . ... ... ... : ... .. . ... ... ... : B-# 00 4 ... ... ... : ... .. . ... ... ... : ... .. . ... ... ...
ROW 21 : ... .. . ... ... ... : ... .. . ... ... ... : ... .. . ... ... ... : ... .. 3 ... ... ... : ... .. . ... ... ... : ... .. . ... ... ...
ROW 22 : ... .. 5 ... ... ... : ... .. 6 ... ... ... : ... .. . ... ... ... : ... .. . ... ... ... : ... .. . ... ... ... : ... .. . ... ... ...
ROW 23 : ... .. 4 ... ... ... : ... .. 5 ... ... ... : ... .. . ... ... ... : ... .. 2 ... ... ... : ... .. . ... ... ... : ... .. 2 ... ... ...
ROW 24 : D-2 02 A ... ... ... : G-2 01 C ... ... ... : G-3 00 . ... ... ... : A-# 01 9 ... ... ... : D-1 05 . ... ... ... : ... .. 6 ... ... ...
ROW 25 : D-2 01 . ... ... ... : G-2 02 . ... ... ... : G-2 00 . ... ... ... : B-# 00 6 ... ... ... : ... .. . ... ... ... : ... .. 5 ... ... ...
ROW 26 : ... .. . ... ... ... : G-2 00 . ... ... ... : ... .. . ... ... ... : ... .. . ... ... ... : ... .. . ... ... ... : ... .. . ... ... ...
ROW 27 : ... .. . ... ... ... : ... .. . ... ... ... : ... .. . ... ... ... : C-# 01 5 ... ... ... : ... .. . ... ... ... : ... .. 4 ... ... ...
ROW 28 : ... .. . ... ... ... : ... .. . ... ... ... : ... .. . ... ... ... : B-# 01 . ... ... ... : ... .. . ... ... ... : ... .. . ... ... ...
ROW 29 : ... .. . ... ... ... : ... .. . ... ... ... : ... .. . ... ... ... : C-# 00 4 ... ... ... : ... .. . ... ... ... : ... .. . ... ... ...
ROW 2A : ... .. . ... ... ... : ... .. . ... ... ... : ... .. . ... ... ... : D-# 00 9 ... ... ... : C#1 05 . ... ... ... : ... .. . ... ... ...
ROW 2B : ... .. . ... ... ... : ... .. . ... ... ... : ... .. . ... ... ... : B-# 00 6 ... ... ... : ... .. . ... ... ... : ... .. . ... ... ...
ROW 2C : ... .. . ... ... ... : ... .. . ... ... ... : ... .. . ... ... ... : C-# 00 4 ... ... ... : ... .. . ... ... ... : ... .. . ... ... ...
ROW 2D : ... .. . ... ... ... : ... .. . ... ... ... : ... .. . ... ... ... : ... .. 3 ... ... ... : ... .. . ... ... ... : ... .. . ... ... ...
ROW 2E : ... .. 5 ... ... ... : ... .. 6 ... ... ... : ... .. . ... ... ... : ... .. . ... ... ... : ... .. . ... ... ... : ... .. . ... ... ...
ROW 2F : ... .. 4 ... ... ... : ... .. 5 ... ... ... : ... .. . ... ... ... : ... .. 2 ... ... ... : ... .. . ... ... ... : ... .. 2 ... ... ...
ROW 30 : D#2 02 A ... ... ... : G#2 01 C ... ... ... : G#3 00 . ... ... ... : 8-# 01 9 ... ... ... : D-1 05 . ... ... ... : F#3 04 6 I01 JF0 ...
ROW 31 : D#2 01 . ... ... ... : G#2 02 . ... ... ... : G#2 00 . ... ... ... : 9-# 00 6 ... ... ... : ... .. . ... ... ... : ... .. 5 ... ... ...
ROW 32 : ... .. . ... ... ... : G#2 00 . ... ... ... : ... .. . ... ... ... : ... .. . ... ... ... : ... .. . ... ... ... : ... .. . ... ... ...
ROW 33 : ... .. . ... ... ... : ... .. . ... ... ... : ... .. . ... ... ... : A-# 01 5 ... ... ... : ... .. . ... ... ... : ... .. 4 ... ... ...
ROW 34 : ... .. . ... ... ... : ... .. . ... ... ... : ... .. . ... ... ... : 9-# 01 . ... ... ... : ... .. . ... ... ... : ... .. . ... ... ...
ROW 35 : ... .. . ... ... ... : ... .. . ... ... ... : ... .. . ... ... ... : A-# 00 4 ... ... ... : ... .. . ... ... ... : ... .. . ... ... ...
ROW 36 : ... .. . ... ... ... : ... .. . ... ... ... : ... .. . ... ... ... : C-# 00 9 ... ... ... : C#1 05 . ... ... ... : ... .. . ... ... ...
ROW 37 : ... .. . ... ... ... : ... .. . ... ... ... : ... .. . ... ... ... : A-# 00 6 ... ... ... : ... .. . ... ... ... : ... .. . ... ... ...
ROW 38 : ... .. . ... ... ... : ... .. . ... ... ... : ... .. . ... ... ... : B-# 00 4 ... ... ... : ... .. . ... ... ... : ... .. . ... ... ...
ROW 39 : ... .. . ... ... ... : ... .. . ... ... ... : ... .. . ... ... ... : ... .. 3 ... ... ... : ... .. . ... ... ... : ... .. . ... ... ...
ROW 3A : ... .. 5 ... ... ... : ... .. 6 ... ... ... : ... .. . ... ... ... : ... .. . ... ... ... : ... .. . ... ... ... : ... .. . ... ... ...
ROW 3B : ... .. 4 ... ... ... : ... .. 5 ... ... ... : ... .. . ... ... ... : ... .. 2 ... ... ... : ... .. . ... ... ... : ... .. 2 ... ... ...
ROW 3C : D-2 02 A ... ... ... : G-2 01 C ... ... ... : G-3 00 . ... ... ... : A-# 01 9 ... ... ... : D-1 05 . ... ... ... : F-3 04 6 I01 JD5 ...
ROW 3D : D-2 01 . ... ... ... : G-2 02 . ... ... ... : G-2 00 . ... ... ... : B-# 00 6 ... ... ... : ... .. . ... ... ... : ... .. 5 ... ... ...
ROW 3E : ... .. . ... ... ... : G-2 00 . ... ... ... : ... .. . ... ... ... : ... .. . ... ... ... : ... .. . ... ... ... : ... .. . ... ... ...
ROW 3F : ... .. . ... ... ... : ... .. . ... ... ... : ... .. . ... ... ... : C-# 01 5 ... ... ... : ... .. . ... ... ... : ... .. 4 ... ... ...
ROW 40 : ... .. . ... ... ... : ... .. . ... ... ... : ... .. . ... ... ... : B-# 01 . ... ... ... : ... .. . ... ... ... : ... .. . ... ... ...
ROW 41 : ... .. . ... ... ... : ... .. . ... ... ... : ... .. . ... ... ... : C-# 00 4 ... ... ... : ... .. . ... ... ... : ... .. . ... ... ...
ROW 42 : ... .. . ... ... ... : ... .. . ... ... ... : ... .. . ... ... ... : D-# 00 9 ... ... ... : C#1 05 . ... ... ... : ... .. . ... ... ...
ROW 43 : ... .. . ... ... ... : ... .. . ... ... ... : ... .. . ... ... ... : B-# 00 6 ... ... ... : ... .. . ... ... ... : ... .. . ... ... ...
ROW 44 : ... .. . ... ... ... : ... .. . ... ... ... : ... .. . ... ... ... : C-# 00 4 ... ... ... : ... .. . ... ... ... : ... .. . ... ... ...
ROW 45 : ... .. . ... ... ... : ... .. . ... ... ... : ... .. . ... ... ... : ... .. 3 ... ... ... : ... .. . ... ... ... : ... .. . ... ... ...
ROW 46 : ... .. 5 ... ... ... : ... .. 6 ... ... ... : ... .. . ... ... ... : ... .. . ... ... ... : ... .. . ... ... ... : ... .. . ... ... ...
ROW 47 : ... .. 4 ... ... ... : ... .. 5 ... ... ... : ... .. . ... ... ... : ... .. 2 ... ... ... : ... .. . ... ... ... : ... .. 2 ... ... ...
ROW 48 : D-2 02 A ... ... ... : G-2 01 C ... ... ... : G-3 00 . ... ... ... : 8-# 01 9 ... ... ... : D-1 05 . ... ... ... : ... .. 6 ... ... ...
ROW 49 : D-2 01 . ... ... ... : G-2 02 . ... ... ... : G-2 00 . ... ... ... : 9-# 00 6 ... ... ... : ... .. . ... ... ... : ... .. 5 ... ... ...
ROW 4A : ... .. . ... ... ... : G-2 00 . ... ... ... : ... .. . ... ... ... : ... .. . ... ... ... : ... .. . ... ... ... : ... .. . ... ... ...
ROW 4B : ... .. . ... ... ... : ... .. . ... ... ... : ... .. . ... ... ... : A-# 01 5 ... ... ... : ... .. . ... ... ... : ... .. 4 ... ... ...
ROW 4C : ... .. . ... ... ... : ... .. . ... ... ... : ... .. . ... ... ... : 9-# 01 . ... ... ... : ... .. . ... ... ... : ... .. . ... ... ...
ROW 4D : ... .. . ... ... ... : ... .. . ... ... ... : ... .. . ... ... ... : A-# 00 4 ... ... ... : ... .. . ... ... ... : ... .. . ... ... ...
ROW 4E : ... .. . ... ... ... : ... .. . ... ... ... : ... .. . ... ... ... : C-# 00 9 ... ... ... : C#1 05 . ... ... ... : ... .. . ... ... ...
ROW 4F : ... .. . ... ... ... : ... .. . ... ... ... : ... .. . ... ... ... : A-# 00 6 ... ... ... : ... .. . ... ... ... : ... .. . ... ... ...
ROW 50 : ... .. . ... ... ... : ... .. . ... ... ... : ... .. . ... ... ... : B-# 00 4 ... ... ... : ... .. . ... ... ... : ... .. . ... ... ...
ROW 51 : ... .. . ... ... ... : ... .. . ... ... ... : ... .. . ... ... ... : ... .. 3 ... ... ... : ... .. . ... ... ... : ... .. . ... ... ...
ROW 52 : ... .. 5 ... ... ... : ... .. 6 ... ... ... : ... .. . ... ... ... : ... .. . ... ... ... : ... .. . ... ... ... : ... .. . ... ... ...
ROW 53 : ... .. 4 ... ... ... : ... .. 5 ... ... ... : ... .. . ... ... ... : ... .. 2 ... ... ... : ... .. . ... ... ... : ... .. 2 ... ... ...
ROW 54 : F-2 02 A ... ... ... : A#2 01 C ... ... ... : A#3 00 . ... ... ... : A-# 01 9 ... ... ... : D-1 05 . ... ... ... : G#3 04 6 I02 J2A ...
ROW 55 : F-2 01 . ... ... ... : A#2 02 . ... ... ... : A#2 00 . ... ... ... : B-# 00 6 ... ... ... : ... .. . ... ... ... : ... .. 5 ... ... ...
ROW 56 : ... .. . ... ... ... : A#2 00 . ... ... ... : ... .. . ... ... ... : ... .. . ... ... ... : ... .. . ... ... ... : ... .. . ... ... ...
ROW 57 : ... .. . ... ... ... : ... .. . ... ... ... : ... .. . ... ... ... : C-# 01 5 ... ... ... : ... .. . ... ... ... : ... .. 4 ... ... ...
ROW 58 : ... .. . ... ... ... : ... .. . ... ... ... : ... .. . ... ... ... : B-# 01 . ... ... ... : ... .. . ... ... ... : ... .. . ... ... ...
ROW 59 : ... .. . ... ... ... : ... .. . ... ... ... : ... .. . ... ... ... : C-# 00 4 ... ... ... : ... .. . ... ... ... : ... .. . ... ... ...
ROW 5A : ... .. . ... ... ... : ... .. . ... ... ... : ... .. . ... ... ... : D-# 00 9 ... ... ... : C#1 05 . ... ... ... : ... .. . ... ... ...
ROW 5B : ... .. . ... ... ... : ... .. . ... ... ... : ... .. . ... ... ... : B-# 00 6 ... ... ... : ... .. . ... ... ... : ... .. . ... ... ...
ROW 5C : ... .. . ... ... ... : ... .. . ... ... ... : ... .. . ... ... ... : C-# 00 4 ... ... ... : ... .. . ... ... ... : ... .. . ... ... ...
ROW 5D : ... .. . ... ... ... : ... .. . ... ... ... : ... .. . ... ... ... : ... .. 3 ... ... ... : ... .. . ... ... ... : ... .. . ... ... ...
ROW 5E : ... .. 5 ... ... ... : ... .. 6 ... ... ... : ... .. . ... ... ... : ... .. . ... ... ... : ... .. . ... ... ... : ... .. . ... ... ...
ROW 5F : ... .. 4 ... ... ... : ... .. 5 ... ... ... : ... .. . ... ... ... : ... .. 2 ... ... ... : ... .. . ... ... ... : ... .. 2 ... ... ...
ROW 60 : D-2 02 A ... ... ... : G-2 01 C ... ... ... : G-3 00 . ... ... ... : 8-# 01 9 ... ... ... : D-1 05 . ... ... ... : F-3 04 6 I01 JD5 ...
ROW 61 : D-2 01 . ... ... ... : G-2 02 . ... ... ... : G-2 00 . ... ... ... : 9-# 00 6 ... ... ... : ... .. . ... ... ... : ... .. 5 ... ... ...
ROW 62 : ... .. . ... ... ... : G-2 00 . ... ... ... : ... .. . ... ... ... : ... .. . ... ... ... : ... .. . ... ... ... : ... .. . ... ... ...
ROW 63 : ... .. . ... ... ... : ... .. . ... ... ... : ... .. . ... ... ... : A-# 01 5 ... ... ... : ... .. . ... ... ... : ... .. 4 ... ... ...
ROW 64 : ... .. . ... ... ... : ... .. . ... ... ... : ... .. . ... ... ... : 9-# 01 . ... ... ... : ... .. . ... ... ... : ... .. . ... ... ...
ROW 65 : ... .. . ... ... ... : ... .. . ... ... ... : ... .. . ... ... ... : A-# 00 4 ... ... ... : ... .. . ... ... ... : ... .. . ... ... ...
ROW 66 : ... .. . ... ... ... : ... .. . ... ... ... : ... .. . ... ... ... : C-# 00 9 ... ... ... : C#1 05 . ... ... ... : ... .. . ... ... ...
ROW 67 : ... .. . ... ... ... : ... .. . ... ... ... : ... .. . ... ... ... : A-# 00 6 ... ... ... : ... .. . ... ... ... : ... .. . ... ... ...
ROW 68 : ... .. . ... ... ... : ... .. . ... ... ... : ... .. . ... ... ... : B-# 00 4 ... ... ... : ... .. . ... ... ... : ... .. . ... ... ...
ROW 69 : ... .. . ... ... ... : ... .. . ... ... ... : ... .. . ... ... ... : ... .. 3 ... ... ... : ... .. . ... ... ... : ... .. . ... ... ...
ROW 6A : ... .. 5 ... ... ... : ... .. 6 ... ... ... : ... .. . ... ... ... : ... .. . ... ... ... : ... .. . ... ... ... : ... .. . ... ... ...
ROW 6B : ... .. 4 ... ... ... : ... .. 5 ... ... ... : ... .. . ... ... ... : ... .. 2 ... ... ... : ... .. . ... ... ... : ... .. 2 ... ... ...
ROW 6C : D#2 02 A ... ... ... : G#2 01 C ... ... ... : G#3 00 . ... ... ... : A-# 01 9 ... ... ... : D-1 05 . ... ... ... : F#3 04 6 I01 JF0 ...
ROW 6D : D#2 01 . ... ... ... : G#2 02 . ... ... ... : G#2 00 . ... ... ... : B-# 00 6 ... ... ... : ... .. . ... ... ... : ... .. 5 ... ... ...
ROW 6E : ... .. . ... ... ... : G#2 00 . ... ... ... : ... .. . ... ... ... : ... .. . ... ... ... : ... .. . ... ... ... : ... .. . ... ... ...
ROW 6F : ... .. . ... ... ... : ... .. . ... ... ... : ... .. . ... ... ... : C-# 01 5 ... ... ... : ... .. . ... ... ... : ... .. 4 ... ... ...
ROW 70 : ... .. . ... ... ... : ... .. . ... ... ... : ... .. . ... ... ... : B-# 01 . ... ... ... : ... .. . ... ... ... : ... .. . ... ... ...
ROW 71 : ... .. . ... ... ... : ... .. . ... ... ... : ... .. . ... ... ... : C-# 00 4 ... ... ... : ... .. . ... ... ... : ... .. . ... ... ...
ROW 72 : ... .. . ... ... ... : ... .. . ... ... ... : ... .. . ... ... ... : D-# 00 9 ... ... ... : C#1 05 . ... ... ... : ... .. . ... ... ...
ROW 73 : ... .. . ... ... ... : ... .. . ... ... ... : ... .. . ... ... ... : B-# 00 6 ... ... ... : ... .. . ... ... ... : ... .. . ... ... ...
ROW 74 : ... .. . ... ... ... : ... .. . ... ... ... : ... .. . ... ... ... : C-# 00 4 ... ... ... : ... .. . ... ... ... : ... .. . ... ... ...
ROW 75 : ... .. . ... ... ... : ... .. . ... ... ... : ... .. . ... ... ... : ... .. 3 ... ... ... : ... .. . ... ... ... : ... .. . ... ... ...
ROW 76 : ... .. 5 ... ... ... : ... .. 6 ... ... ... : ... .. . ... ... ... : ... .. . ... ... ... : ... .. . ... ... ... : ... .. . ... ... ...
ROW 77 : ... .. 4 ... ... ... : ... .. 5 ... ... ... : ... .. . ... ... ... : ... .. 2 ... ... ... : ... .. . ... ... ... : ... .. 2 ... ... ...
ROW 78 : D-2 02 A ... ... ... : G-2 01 C ... ... ... : G-3 00 . ... ... ... : 8-# 01 9 ... ... ... : D-1 05 . ... ... ... : F-3 04 6 I01 JD5 ...
ROW 79 : D-2 01 . ... ... ... : G-2 02 . ... ... ... : G-2 00 . ... ... ... : 9-# 00 6 ... ... ... : ... .. . ... ... ... : ... .. 5 ... ... ...
ROW 7A : ... .. . ... ... ... : G-2 00 . ... ... ... : ... .. . ... ... ... : ... .. . ... ... ... : ... .. . ... ... ... : ... .. . ... ... ...
ROW 7B : ... .. . ... ... ... : ... .. . ... ... ... : ... .. . ... ... ... : A-# 01 5 ... ... ... : ... .. . ... ... ... : ... .. 4 ... ... ...
ROW 7C : ... .. . ... ... ... : ... .. . ... ... ... : ... .. . ... ... ... : 9-# 01 . ... ... ... : ... .. . ... ... ... : ... .. . ... ... ...
ROW 7D : ... .. . ... ... ... : ... .. . ... ... ... : ... .. . ... ... ... : A-# 00 4 ... ... ... : ... .. . ... ... ... : ... .. . ... ... ...
ROW 7E : ... .. . ... ... ... : ... .. . ... ... ... : ... .. . ... ... ... : C-# 00 9 ... ... ... : C#1 05 . ... ... ... : ... .. . ... ... ...
ROW 7F : ... .. . ... ... ... : ... .. . ... ... ... : ... .. . ... ... ... : A-# 00 6 ... ... ... : ... .. . ... ... ... : ... .. . ... ... ...
ROW 80 : ... .. . ... ... ... : ... .. . ... ... ... : ... .. . ... ... ... : B-# 00 4 ... ... ... : ... .. . ... ... ... : ... .. . ... ... ...
ROW 81 : ... .. . ... ... ... : ... .. . ... ... ... : ... .. . ... ... ... : ... .. 3 ... ... ... : ... .. . ... ... ... : ... .. . ... ... ...
ROW 82 : ... .. 5 ... ... ... : ... .. 6 ... ... ... : ... .. . ... ... ... : ... .. . ... ... ... : ... .. . ... ... ... : ... .. . ... ... ...
ROW 83 : ... .. 4 ... ... ... : ... .. 5 ... ... ... : ... .. . ... ... ... : ... .. 2 ... ... ... : ... .. . ... ... ... : ... .. 2 ... ... ...
ROW 84 : D-2 02 A ... ... ... : G-2 01 C ... ... ... : G-3 00 . ... ... ... : A-# 01 9 ... ... ... : D-1 05 . ... ... ... : ... .. 6 ... ... ...
ROW 85 : D-2 01 . ... ... ... : G-2 02 . ... ... ... : G-2 00 . ... ... ... : B-# 00 6 ... ... ... : ... .. . ... ... ... : ... .. 5 ... ... ...
ROW 86 : ... .. . ... ... ... : G-2 00 . ... ... ... : ... .. . ... ... ... : ... .. . ... ... ... : ... .. . ... ... ... : ... .. . ... ... ...
ROW 87 : ... .. . ... ... ... : ... .. . ... ... ... : ... .. . ... ... ... : C-# 01 5 ... ... ... : ... .. . ... ... ... : ... .. 4 ... ... ...
ROW 88 : ... .. . ... ... ... : ... .. . ... ... ... : ... .. . ... ... ... : B-# 01 . ... ... ... : ... .. . ... ... ... : ... .. . ... ... ...
ROW 89 : ... .. . ... ... ... : ... .. . ... ... ... : ... .. . ... ... ... : C-# 00 4 ... ... ... : ... .. . ... ... ... : ... .. . ... ... ...
ROW 8A : ... .. . ... ... ... : ... .. . ... ... ... : ... .. . ... ... ... : D-# 00 9 ... ... ... : C#1 05 . ... ... ... : ... .. . ... ... ...
ROW 8B : ... .. . ... ... ... : ... .. . ... ... ... : ... .. . ... ... ... : B-# 00 6 ... ... ... : ... .. . ... ... ... : ... .. . ... ... ...
ROW 8C : ... .. . ... ... ... : ... .. . ... ... ... : ... .. . ... ... ... : C-# 00 4 ... ... ... : ... .. . ... ... ... : ... .. . ... ... ...
ROW 8D : ... .. . ... ... ... : ... .. . ... ... ... : ... .. . ... ... ... : ... .. 3 ... ... ... : ... .. . ... ... ... : ... .. . ... ... ...
ROW 8E : ... .. 5 ... ... ... : ... .. 6 ... ... ... : ... .. . ... ... ... : ... .. . ... ... ... : ... .. . ... ... ... : ... .. . ... ... ...
ROW 8F : ... .. 4 ... ... ... : ... .. 5 ... ... ... : ... .. . ... ... ... : ... .. 2 ... ... ... : ... .. . ... ... ... : ... .. 2 ... ... ...
ROW 90 : G-2 02 A ... ... ... : C-3 01 C ... ... ... : C-4 00 . ... ... ... : 8-# 01 9 ... ... ... : D-1 05 . ... ... ... : A#3 04 6 I02 J6E ...
ROW 91 : G-2 01 . ... ... ... : C-3 02 . ... ... ... : C-3 00 . ... ... ... : 9-# 00 6 ... ... ... : ... .. . ... ... ... : ... .. 5 ... ... ...
ROW 92 : ... .. . ... ... ... : C-3 00 . ... ... ... : ... .. . ... ... ... : ... .. . ... ... ... : ... .. . ... ... ... : ... .. . ... ... ...
ROW 93 : ... .. . ... ... ... : ... .. . ... ... ... : ... .. . ... ... ... : A-# 01 5 ... ... ... : ... .. . ... ... ... : ... .. 4 ... ... ...
ROW 94 : ... .. . ... ... ... : ... .. . ... ... ... : ... .. . ... ... ... : 9-# 01 . ... ... ... : ... .. . ... ... ... : ... .. . ... ... ...
ROW 95 : ... .. . ... ... ... : ... .. . ... ... ... : ... .. . ... ... ... : A-# 00 4 ... ... ... : ... .. . ... ... ... : ... .. . ... ... ...
ROW 96 : ... .. . ... ... ... : ... .. . ... ... ... : ... .. . ... ... ... : C-# 00 9 ... ... ... : C#1 05 . ... ... ... : ... .. . ... ... ...
ROW 97 : ... .. . ... ... ... : ... .. . ... ... ... : ... .. . ... ... ... : A-# 00 6 ... ... ... : ... .. . ... ... ... : ... .. . ... ... ...
ROW 98 : ... .. . ... ... ... : ... .. . ... ... ... : ... .. . ... ... ... : B-# 00 4 ... ... ... : ... .. . ... ... ... : ... .. . ... ... ...
ROW 99 : ... .. . ... ... ... : ... .. . ... ... ... : ... .. . ... ... ... : ... .. 3 ... ... ... : ... .. . ... ... ... : ... .. . ... ... ...
ROW 9A : ... .. 5 ... ... ... : ... .. 6 ... ... ... : ... .. . ... ... ... : ... .. . ... ... ... : ... .. . ... ... ... : ... .. . ... ... ...
ROW 9B : ... .. 4 ... ... ... : ... .. 5 ... ... ... : ... .. . ... ... ... : ... .. 2 ... ... ... : ... .. . ... ... ... : ... .. 2 ... ... ...
ROW 9C : D-2 02 A ... ... ... : G-2 01 C ... ... ... : G-3 00 . ... ... ... : A-# 01 9 ... ... ... : D-1 05 . ... ... ... : F-3 04 6 I01 JD5 ...
ROW 9D : D-2 01 . ... ... ... : G-2 02 . ... ... ... : G-2 00 . ... ... ... : B-# 00 6 ... ... ... : ... .. . ... ... ... : ... .. 5 ... ... ...
ROW 9E : ... .. . ... ... ... : G-2 00 . ... ... ... : ... .. . ... ... ... : ... .. . ... ... ... : ... .. . ... ... ... : ... .. . ... ... ...
ROW 9F : ... .. . ... ... ... : ... .. . ... ... ... : ... .. . ... ... ... : C-# 01 5 ... ... ... : ... .. . ... ... ... : ... .. 4 ... ... ...
ROW A0 : ... .. . ... ... ... : ... .. . ... ... ... : ... .. . ... ... ... : B-# 01 . ... ... ... : ... .. . ... ... ... : ... .. . ... ... ...
ROW A1 : ... .. . ... ... ... : ... .. . ... ... ... : ... .. . ... ... ... : C-# 00 4 ... ... ... : ... .. . ... ... ... : ... .. . ... ... ...
ROW A2 : ... .. . ... ... ... : ... .. . ... ... ... : ... .. . ... ... ... : D-# 00 9 ... ... ... : C#1 05 . ... ... ... : ... .. . ... ... ...
ROW A3 : ... .. . ... ... ... : ... .. . ... ... ... : ... .. . ... ... ... : B-# 00 6 ... ... ... : ... .. . ... ... ... : ... .. . ... ... ...
ROW A4 : ... .. . ... ... ... : ... .. . ... ... ... : ... .. . ... ... ... : C-# 00 4 ... ... ... : ... .. . ... ... ... : ... .. . ... ... ...
ROW A5 : ... .. . ... ... ... : ... .. . ... ... ... : ... .. . ... ... ... : ... .. 3 ... ... ... : ... .. . ... ... ... : ... .. . ... ... ...
ROW A6 : ... .. 5 ... ... ... : ... .. 6 ... ... ... : ... .. . ... ... ... : ... .. . ... ... ... : ... .. . ... ... ... : ... .. . ... ... ...
ROW A7 : ... .. 4 ... ... ... : ... .. 5 ... ... ... : ... .. . ... ... ... : ... .. 2 ... ... ... : ... .. . ... ... ... : ... .. 2 ... ... ...
ROW A8 : D-2 02 A ... ... ... : G-2 01 C ... ... ... : G-3 00 . ... ... ... : 8-# 01 9 ... ... ... : D-1 05 . ... ... ... : ... .. 6 ... ... ...
ROW A9 : D-2 01 . ... ... ... : G-2 02 . ... ... ... : G-2 00 . ... ... ... : 9-# 00 6 ... ... ... : ... .. . ... ... ... : ... .. 5 ... ... ...
ROW AA : ... .. . ... ... ... : G-2 00 . ... ... ... : ... .. . ... ... ... : ... .. . ... ... ... : ... .. . ... ... ... : ... .. . ... ... ...
ROW AB : ... .. . ... ... ... : ... .. . ... ... ... : ... .. . ... ... ... : A-# 01 5 ... ... ... : ... .. . ... ... ... : ... .. 4 ... ... ...
ROW AC : ... .. . ... ... ... : ... .. . ... ... ... : ... .. . ... ... ... : 9-# 01 . ... ... ... : ... .. . ... ... ... : ... .. . ... ... ...
ROW AD : ... .. . ... ... ... : ... .. . ... ... ... : ... .. . ... ... ... : A-# 00 4 ... ... ... : ... .. . ... ... ... : ... .. . ... ... ...
ROW AE : ... .. . ... ... ... : ... .. . ... ... ... : ... .. . ... ... ... : C-# 00 9 ... ... ... : C#1 05 . ... ... ... : ... .. . ... ... ...
ROW AF : ... .. . ... ... ... : ... .. . ... ... ... : ... .. . ... ... ... : A-# 00 6 ... ... ... : ... .. . ... ... ... : ... .. . ... ... ...
ROW B0 : ... .. . ... ... ... : ... .. . ... ... ... : ... .. . ... ... ... : B-# 00 4 ... ... ... : ... .. . ... ... ... : ... .. . ... ... ...
ROW B1 : ... .. . ... ... ... : ... .. . ... ... ... : ... .. . ... ... ... : ... .. 3 ... ... ... : ... .. . ... ... ... : ... .. . ... ... ...
ROW B2 : ... .. 5 ... ... ... : ... .. 6 ... ... ... : ... .. . ... ... ... : ... .. . ... ... ... : ... .. . ... ... ... : ... .. . ... ... ...
ROW B3 : ... .. 4 ... ... ... : ... .. 5 ... ... ... : ... .. . ... ... ... : ... .. 2 ... ... ... : ... .. . ... ... ... : ... .. 2 ... ... ...
ROW B4 : A-2 02 A ... ... ... : D-3 01 C ... ... ... : D-4 00 . ... ... ... : A-# 01 9 ... ... ... : D-1 05 . ... ... ... : C-4 04 6 I02 JBA ...
ROW B5 : A-2 01 . ... ... ... : D-3 02 . ... ... ... : D-3 00 . ... ... ... : B-# 00 6 ... ... ... : ... .. . ... ... ... : ... .. 5 ... ... ...
ROW B6 : ... .. . ... ... ... : D-3 00 . ... ... ... : ... .. . ... ... ... : ... .. . ... ... ... : ... .. . ... ... ... : ... .. . ... ... ...
ROW B7 : ... .. . ... ... ... : ... .. . ... ... ... : ... .. . ... ... ... : C-# 01 5 ... ... ... : ... .. . ... ... ... : ... .. 4 ... ... ...
ROW B8 : ... .. . ... ... ... : ... .. . ... ... ... : ... .. . ... ... ... : B-# 01 . ... ... ... : ... .. . ... ... ... : ... .. . ... ... ...
ROW B9 : ... .. . ... ... ... : ... .. . ... ... ... : ... .. . ... ... ... : C-# 00 4 ... ... ... : ... .. . ... ... ... : ... .. . ... ... ...
ROW BA : ... .. . ... ... ... : ... .. . ... ... ... : ... .. . ... ... ... : D-# 00 9 ... ... ... : C#1 05 . ... ... ... : ... .. . ... ... ...
ROW BB : ... .. . ... ... ... : ... .. . ... ... ... : ... .. . ... ... ... : B-# 00 6 ... ... ... : ... .. . ... ... ... : ... .. . ... ... ...
ROW BC : ... .. . ... ... ... : ... .. . ... ... ... : ... .. . ... ... ... : C-# 00 4 ... ... ... : ... .. . ... ... ... : ... .. . ... ... ...
ROW BD : ... .. . ... ... ... : ... .. . ... ... ... : ... .. . ... ... ... : ... .. 3 ... ... ... : ... .. . ... ... ... : ... .. . ... ... ...
ROW BE : ... .. 5 ... ... ... : ... .. 6 ... ... ... : ... .. . ... ... ... : ... .. . ... ... ... : ... .. . ... ... ... : ... .. . ... ... ...
ROW BF : ... .. 4 ... ... ... : ... .. 5 ... ... ... : ... .. . ... ... ... : ... .. 2 ... ... ... : ... .. . ... ... ... : ... .. 2 ... ... ...
ROW C0 : D-2 02 A ... ... ... : G-2 01 C ... ... ... : G-3 00 . ... ... ... : 8-# 01 9 ... ... ... : D-1 05 . ... ... ... : F-3 04 6 I01 JD5 ...
ROW C1 : D-2 01 . ... ... ... : G-2 02 . ... ... ... : G-2 00 . ... ... ... : 9-# 00 6 ... ... ... : ... .. . ... ... ... : ... .. 5 ... ... ...
ROW C2 : ... .. . ... ... ... : G-2 00 . ... ... ... : ... .. . ... ... ... : ... .. . ... ... ... : ... .. . ... ... ... : ... .. . ... ... ...
ROW C3 : ... .. . ... ... ... : ... .. . ... ... ... : ... .. . ... ... ... : A-# 01 5 ... ... ... : ... .. . ... ... ... : ... .. 4 ... ... ...
ROW C4 : ... .. . ... ... ... : ... .. . ... ... ... : ... .. . ... ... ... : 9-# 01 . ... ... ... : ... .. . ... ... ... : ... .. . ... ... ...
ROW C5 : ... .. . ... ... ... : ... .. . ... ... ... : ... .. . ... ... ... : A-# 00 4 ... ... ... : ... .. . ... ... ... : ... .. . ... ... ...
ROW C6 : ... .. . ... ... ... : ... .. . ... ... ... : ... .. . ... ... ... : C-# 00 9 ... ... ... : D-1 05 . ... ... ... : ... .. . ... ... ...
ROW C7 : ... .. . ... ... ... : ... .. . ... ... ... : ... .. . ... ... ... : A-# 00 6 ... ... ... : ... .. . ... ... ... : ... .. . ... ... ...
ROW C8 : ... .. . ... ... ... : ... .. . ... ... ... : ... .. . ... ... ... : B-# 00 4 ... ... ... : ... .. . ... ... ... : ... .. . ... ... ...
ROW C9 : ... .. . ... ... ... : ... .. . ... ... ... : ... .. . ... ... ... : ... .. 3 ... ... ... : ... .. . ... ... ... : ... .. . ... ... ...
ROW CA : ... .. 5 ... ... ... : ... .. 6 ... ... ... : ... .. . ... ... ... : ... .. . ... ... ... : ... .. . ... ... ... : ... .. . ... ... ...
ROW CB : ... .. 4 ... ... ... : ... .. 5 ... ... ... : ... .. . ... ... ... : ... .. 2 ... ... ... : ... .. . ... ... ... : ... .. 2 ... ... ...
ROW CC : G#2 02 A ... ... ... : C#3 01 C ... ... ... : C#4 00 . ... ... ... : A-# 00 A ... ... ... : D-1 05 . ... ... ... : B-3 04 6 I02 J92 ...
ROW CD : G#2 01 . ... ... ... : C#3 02 . ... ... ... : C#3 00 . ... ... ... : 7-# 00 7 ... ... ... : ... .. . ... ... ... : ... .. 5 ... ... ...
ROW CE : ... .. . ... ... ... : C#3 00 . ... ... ... : ... .. . ... ... ... : 8-# 00 9 ... ... ... : ... .. . ... ... ... : ... .. . ... ... ...
ROW CF : ... .. . ... ... ... : ... .. . ... ... ... : ... .. . ... ... ... : 9-# 00 7 ... ... ... : ... .. . ... ... ... : ... .. 4 ... ... ...
ROW D0 : ... .. . ... ... ... : ... .. . ... ... ... : ... .. . ... ... ... : A-# 00 8 ... ... ... : ... .. . ... ... ... : ... .. . ... ... ...
ROW D1 : ... .. . ... ... ... : ... .. . ... ... ... : ... .. . ... ... ... : B-# 00 7 ... ... ... : ... .. . ... ... ... : ... .. . ... ... ...
ROW D2 : ... .. . ... ... ... : ... .. . ... ... ... : ... .. . ... ... ... : ... .. . ... ... ... : C#1 05 . ... ... ... : ... .. . ... ... ...
ROW D3 : ... .. . ... ... ... : ... .. . ... ... ... : ... .. . ... ... ... : A-# 00 6 ... ... ... : ... .. . ... ... ... : ... .. . ... ... ...
ROW D4 : ... .. . ... ... ... : ... .. . ... ... ... : ... .. . ... ... ... : B-# 00 . ... ... ... : ... .. . ... ... ... : ... .. . ... ... ...
ROW D5 : ... .. . ... ... ... : ... .. . ... ... ... : ... .. . ... ... ... : ... .. . ... ... ... : ... .. . ... ... ... : ... .. . ... ... ...
ROW D6 : ... .. 5 ... ... ... : ... .. 6 ... ... ... : ... .. . ... ... ... : ... .. . ... ... ... : ... .. . ... ... ... : ... .. . ... ... ...
ROW D7 : ... .. 4 ... ... ... : ... .. 5 ... ... ... : ... .. . ... ... ... : ... .. . ... ... ... : ... .. . ... ... ... : ... .. 2 ... ... ...
ROW D8 : D-2 02 A ... ... ... : G-2 01 C ... ... ... : G-3 00 . ... ... ... : 8-# 01 B ... ... ... : D-1 05 . ... ... ... : F-3 04 6 I01 JD5 ...
ROW D9 : D-2 01 . ... ... ... : G-2 02 . ... ... ... : G-2 00 . ... ... ... : 9-# 00 8 ... ... ... : ... .. . ... ... ... : ... .. 5 ... ... ...
ROW DA : ... .. . ... ... ... : G-2 00 . ... ... ... : ... .. . ... ... ... : ... .. 7 ... ... ... : ... .. . ... ... ... : ... .. . ... ... ...
ROW DB : ... .. . ... ... ... : ... .. . ... ... ... : ... .. . ... ... ... : A-# 01 6 ... ... ... : ... .. . ... ... ... : ... .. 4 ... ... ...
ROW DC : ... .. . ... ... ... : ... .. . ... ... ... : ... .. . ... ... ... : 9-# 01 . ... ... ... : ... .. . ... ... ... : ... .. . ... ... ...
ROW DD : ... .. . ... ... ... : ... .. . ... ... ... : ... .. . ... ... ... : A-# 00 5 ... ... ... : ... .. . ... ... ... : ... .. . ... ... ...
ROW DE : ... .. . ... ... ... : ... .. . ... ... ... : ... .. . ... ... ... : C-# 00 B ... ... ... : C#1 05 . ... ... ... : ... .. . ... ... ...
ROW DF : ... .. . ... ... ... : ... .. . ... ... ... : ... .. . ... ... ... : A-# 00 7 ... ... ... : ... .. . ... ... ... : ... .. . ... ... ...
ROW E0 : ... .. . ... ... ... : ... .. . ... ... ... : ... .. . ... ... ... : B-# 00 4 ... ... ... : ... .. . ... ... ... : ... .. . ... ... ...
ROW E1 : ... .. . ... ... ... : ... .. . ... ... ... : ... .. . ... ... ... : ... .. . ... ... ... : ... .. . ... ... ... : ... .. . ... ... ...
ROW E2 : ... .. 5 ... ... ... : ... .. 6 ... ... ... : ... .. . ... ... ... : ... .. . ... ... ... : ... .. . ... ... ... : ... .. . ... ... ...
ROW E3 : ... .. 4 ... ... ... : ... .. 5 ... ... ... : ... .. . ... ... ... : ... .. 2 ... ... ... : ... .. . ... ... ... : ... .. 2 ... ... ...
ROW E4 : D-2 02 A ... ... ... : G-2 01 C ... ... ... : G-3 00 . ... ... ... : A-# 01 B ... ... ... : D-1 05 . ... ... ... : ... .. 6 ... ... ...
ROW E5 : D-2 01 . ... ... ... : G-2 02 . ... ... ... : G-2 00 . ... ... ... : B-# 00 8 ... ... ... : ... .. . ... ... ... : ... .. 5 ... ... ...
ROW E6 : ... .. . ... ... ... : G-2 00 . ... ... ... : ... .. . ... ... ... : ... .. 7 ... ... ... : ... .. . ... ... ... : ... .. . ... ... ...
ROW E7 : ... .. . ... ... ... : ... .. . ... ... ... : ... .. . ... ... ... : C-# 01 6 ... ... ... : ... .. . ... ... ... : ... .. 4 ... ... ...
ROW E8 : ... .. . ... ... ... : ... .. . ... ... ... : ... .. . ... ... ... : B-# 01 . ... ... ... : ... .. . ... ... ... : ... .. . ... ... ...
ROW E9 : ... .. . ... ... ... : ... .. . ... ... ... : ... .. . ... ... ... : C-# 00 5 ... ... ... : ... .. . ... ... ... : ... .. . ... ... ...
ROW EA : ... .. . ... ... ... : ... .. . ... ... ... : ... .. . ... ... ... : D-# 00 B ... ... ... : C#1 05 . ... ... ... : ... .. . ... ... ...
ROW EB : ... .. . ... ... ... : ... .. . ... ... ... : ... .. . ... ... ... : B-# 00 7 ... ... ... : ... .. . ... ... ... : ... .. . ... ... ...
ROW EC : ... .. . ... ... ... : ... .. . ... ... ... : ... .. . ... ... ... : C-# 00 4 ... ... ... : ... .. . ... ... ... : ... .. . ... ... ...
ROW ED : ... .. . ... ... ... : ... .. . ... ... ... : ... .. . ... ... ... : ... .. . ... ... ... : ... .. . ... ... ... : ... .. . ... ... ...
ROW EE : ... .. 5 ... ... ... : ... .. 6 ... ... ... : ... .. . ... ... ... : ... .. . ... ... ... : ... .. . ... ... ... : ... .. . ... ... ...
ROW EF : ... .. 4 ... ... ... : ... .. 5 ... ... ... : ... .. . ... ... ... : ... .. 2 ... ... ... : ... .. . ... ... ... : ... .. 2 ... ... ...
ROW F0 : D#2 02 A ... ... ... : G#2 01 C ... ... ... : G#3 00 . ... ... ... : 8-# 01 B ... ... ... : D-1 05 . ... ... ... : F#3 04 6 I01 JF0 ...
ROW F1 : D#2 01 . ... ... ... : G#2 02 . ... ... ... : G#2 00 . ... ... ... : 9-# 00 8 ... ... ... : ... .. . ... ... ... : ... .. 5 ... ... ...
ROW F2 : ... .. . ... ... ... : G#2 00 . ... ... ... : ... .. . ... ... ... : ... .. 7 ... ... ... : ... .. . ... ... ... : ... .. . ... ... ...
ROW F3 : ... .. . ... ... ... : ... .. . ... ... ... : ... .. . ... ... ... : A-# 01 6 ... ... ... : ... .. . ... ... ... : ... .. 4 ... ... ...
ROW F4 : ... .. . ... ... ... : ... .. . ... ... ... : ... .. . ... ... ... : 9-# 01 . ... ... ... : ... .. . ... ... ... : ... .. . ... ... ...
ROW F5 : ... .. . ... ... ... : ... .. . ... ... ... : ... .. . ... ... ... : A-# 00 5 ... ... ... : ... .. . ... ... ... : ... .. . ... ... ...
ROW F6 : ... .. . ... ... ... : ... .. . ... ... ... : ... .. . ... ... ... : C-# 00 B ... ... ... : C#1 05 . ... ... ... : ... .. . ... ... ...
ROW F7 : ... .. . ... ... ... : ... .. . ... ... ... : ... .. . ... ... ... : A-# 00 7 ... ... ... : ... .. . ... ... ... : ... .. . ... ... ...
ROW F8 : ... .. . ... ... ... : ... .. . ... ... ... : ... .. . ... ... ... : B-# 00 4 ... ... ... : ... .. . ... ... ... : ... .. . ... ... ...
ROW F9 : ... .. . ... ... ... : ... .. . ... ... ... : ... .. . ... ... ... : ... .. . ... ... ... : ... .. . ... ... ... : ... .. . ... ... ...
ROW FA : ... .. 5 ... ... ... : ... .. 6 ... ... ... : ... .. . ... ... ... : ... .. . ... ... ... : ... .. . ... ... ... : ... .. . ... ... ...
ROW FB : ... .. 4 ... ... ... : ... .. 5 ... ... ... : ... .. . ... ... ... : ... .. 2 ... ... ... : ... .. . ... ... ... : ... .. 2 ... ... ...
ROW FC : D-2 02 A ... ... ... : G-2 01 C ... ... ... : G-3 00 . ... ... ... : A-# 01 B ... ... ... : D-1 05 . ... ... ... : F-3 04 6 I01 JD5 ...
ROW FD : D-2 01 . ... ... ... : G-2 02 . ... ... ... : G-2 00 . ... ... ... : B-# 00 8 ... ... ... : ... .. . ... ... ... : ... .. 5 ... ... ...
ROW FE : ... .. . ... ... ... : G-2 00 . ... ... ... : ... .. . ... ... ... : ... .. 7 ... ... ... : ... .. . ... ... ... : ... .. . ... ... ...
ROW FF : ... .. . ... ... ... : ... .. . ... ... ... : ... .. . ... ... ... : C-# 01 6 ... ... ... : ... .. . ... ... ... : ... .. 4 ... ... ...

PATTERN 12
ROW 00 : ... .. . ... ... ... : ... .. . ... ... ... : ... .. . ... ... ... : B-# 01 . ... ... ... : ... .. . ... ... ... : ... .. . ... ... ...
ROW 01 : ... .. . ... ... ... : ... .. . ... ... ... : ... .. . ... ... ... : C-# 00 5 ... ... ... : ... .. . ... ... ... : ... .. . ... ... ...
ROW 02 : ... .. . ... ... ... : ... .. . ... ... ... : ... .. . ... ... ... : D-# 00 B ... ... ... : C#1 05 . ... ... ... : ... .. . ... ... ...
ROW 03 : ... .. . ... ... ... : ... .. . ... ... ... : ... .. . ... ... ... : B-# 00 7 ... ... ... : ... .. . ... ... ... : ... .. . ... ... ...
ROW 04 : ... .. . ... ... ... : ... .. . ... ... ... : ... .. . ... ... ... : C-# 00 4 ... ... ... : ... .. . ... ... ... : ... .. . ... ... ...
ROW 05 : ... .. . ... ... ... : ... .. . ... ... ... : ... .. . ... ... ... : ... .. . ... ... ... : ... .. . ... ... ... : ... .. . ... ... ...
ROW 06 : ... .. 5 ... ... ... : ... .. 6 ... ... ... : ... .. . ... ... ... : ... .. . ... ... ... : ... .. . ... ... ... : ... .. . ... ... ...
ROW 07 : ... .. 4 ... ... ... : ... .. 5 ... ... ... : ... .. . ... ... ... : ... .. 2 ... ... ... : ... .. . ... ... ... : ... .. 2 ... ... ...
ROW 08 : D-2 02 A ... ... ... : G-2 01 C ... ... ... : G-3 00 . ... ... ... : 8-# 01 B ... ... ... : D-1 05 . ... ... ... : ... .. 6 ... ... ...
ROW 09 : D-2 01 . ... ... ... : G-2 02 . ... ... ... : G-2 00 . ... ... ... : 9-# 00 8 ... ... ... : ... .. . ... ... ... : ... .. 5 ... ... ...
ROW 0A : ... .. . ... ... ... : G-2 00 . ... ... ... : ... .. . ... ... ... : ... .. 7 ... ... ... : ... .. . ... ... ... : ... .. . ... ... ...
ROW 0B : ... .. . ... ... ... : ... .. . ... ... ... : ... .. . ... ... ... : A-# 01 6 ... ... ... : ... .. . ... ... ... : ... .. 4 ... ... ...
ROW 0C : ... .. . ... ... ... : ... .. . ... ... ... : ... .. . ... ... ... : 9-# 01 . ... ... ... : ... .. . ... ... ... : ... .. . ... ... ...
ROW 0D : ... .. . ... ... ... : ... .. . ... ... ... : ... .. . ... ... ... : A-# 00 5 ... ... ... : ... .. . ... ... ... : ... .. . ... ... ...
ROW 0E : ... .. . ... ... ... : ... .. . ... ... ... : ... .. . ... ... ... : C-# 00 B ... ... ... : C#1 05 . ... ... ... : ... .. . ... ... ...
ROW 0F : ... .. . ... ... ... : ... .. . ... ... ... : ... .. . ... ... ... : A-# 00 7 ... ... ... : ... .. . ... ... ... : ... .. . ... ... ...
ROW 10 : ... .. . ... ... ... : ... .. . ... ... ... : ... .. . ... ... ... : B-# 00 4 ... ... ... : ... .. . ... ... ... : ... .. . ... ... ...
ROW 11 : ... .. . ... ... ... : ... .. . ... ... ... : ... .. . ... ... ... : ... .. . ... ... ... : ... .. . ... ... ... : ... .. . ... ... ...
ROW 12 : ... .. 5 ... ... ... : ... .. 6 ... ... ... : ... .. . ... ... ... : ... .. . ... ... ... : ... .. . ... ... ... : ... .. . ... ... ...
ROW 13 : ... .. 4 ... ... ... : ... .. 5 ... ... ... : ... .. . ... ... ... : ... .. 2 ... ... ... : ... .. . ... ... ... : ... .. 2 ... ... ...
ROW 14 : F-2 02 A ... ... ... : A#2 01 C ... ... ... : A#3 00 . ... ... ... : A-# 01 B ... ... ... : D-1 05 . ... ... ... : G#3 04 6 I02 J2A ...
ROW 15 : F-2 01 . ... ... ... : A#2 02 . ... ... ... : A#2 00 . ... ... ... : B-# 00 8 ... ... ... : ... .. . ... ... ... : ... .. 5 ... ... ...
ROW 16 : ... .. . ... ... ... : A#2 00 . ... ... ... : ... .. . ... ... ... : ... .. 7 ... ... ... : ... .. . ... ... ... : ... .. . ... ... ...
ROW 17 : ... .. . ... ... ... : ... .. . ... ... ... : ... .. . ... ... ... : C-# 01 6 ... ... ... : ... .. . ... ... ... : ... .. 4 ... ... ...
ROW 18 : ... .. . ... ... ... : ... .. . ... ... ... : ... .. . ... ... ... : B-# 01 . ... ... ... : ... .. . ... ... ... : ... .. . ... ... ...
ROW 19 : ... .. . ... ... ... : ... .. . ... ... ... : ... .. . ... ... ... : C-# 00 5 ... ... ... : ... .. . ... ... ... : ... .. . ... ... ...
ROW 1A : ... .. . ... ... ... : ... .. . ... ... ... : ... .. . ... ... ... : D-# 00 B ... ... ... : C#1 05 . ... ... ... : ... .. . ... ... ...
ROW 1B : ... .. . ... ... ... : ... .. . ... ... ... : ... .. . ... ... ... : B-# 00 7 ... ... ... : ... .. . ... ... ... : ... .. . ... ... ...
ROW 1C : ... .. . ... ... ... : ... .. . ... ... ... : ... .. . ... ... ... : C-# 00 4 ... ... ... : ... .. . ... ... ... : ... .. . ... ... ...
ROW 1D : ... .. . ... ... ... : ... .. . ... ... ... : ... .. . ... ... ... : ... .. . ... ... ... : ... .. . ... ... ... : ... .. . ... ... ...
ROW 1E : ... .. 5 ... ... ... : ... .. 6 ... ... ... : ... .. . ... ... ... : ... .. . ... ... ... : ... .. . ... ... ... : ... .. . ... ... ...
ROW 1F : ... .. 4 ... ... ... : ... .. 5 ... ... ... : ... .. . ... ... ... : ... .. 2 ... ... ... : ... .. . ... ... ... : ... .. 2 ... ... ...
ROW 20 : D-2 02 A ... ... ... : G-2 01 C ... ... ... : G-3 00 . ... ... ... : 8-# 01 B ... ... ... : D-1 05 . ... ... ... : F-3 04 6 I01 JD5 ...
ROW 21 : D-2 01 . ... ... ... : G-2 02 . ... ... ... : G-2 00 . ... ... ... : 9-# 00 8 ... ... ... : ... .. . ... ... ... : ... .. 5 ... ... ...
ROW 22 : ... .. . ... ... ... : G-2 00 . ... ... ... : ... .. . ... ... ... : ... .. 7 ... ... ... : ... .. . ... ... ... : ... .. . ... ... ...
ROW 23 : ... .. . ... ... ... : ... .. . ... ... ... : ... .. . ... ... ... : A-# 01 6 ... ... ... : ... .. . ... ... ... : ... .. 4 ... ... ...
ROW 24 : ... .. . ... ... ... : ... .. . ... ... ... : ... .. . ... ... ... : 9-# 01 . ... ... ... : ... .. . ... ... ... : ... .. . ... ... ...
ROW 25 : ... .. . ... ... ... : ... .. . ... ... ... : ... .. . ... ... ... : A-# 00 5 ... ... ... : ... .. . ... ... ... : ... .. . ... ... ...
ROW 26 : ... .. . ... ... ... : ... .. . ... ... ... : ... .. . ... ... ... : C-# 00 B ... ... ... : C#1 05 . ... ... ... : ... .. . ... ... ...
ROW 27 : ... .. . ... ... ... : ... .. . ... ... ... : ... .. . ... ... ... : A-# 00 7 ... ... ... : ... .. . ... ... ... : ... .. . ... ... ...
ROW 28 : ... .. . ... ... ... : ... .. . ... ... ... : ... .. . ... ... ... : B-# 00 4 ... ... ... : ... .. . ... ... ... : ... .. . ... ... ...
ROW 29 : ... .. . ... ... ... : ... .. . ... ... ... : ... .. . ... ... ... : ... .. . ... ... ... : ... .. . ... ... ... : ... .. . ... ... ...
ROW 2A : ... .. 5 ... ... ... : ... .. 6 ... ... ... : ... .. . ... ... ... : ... .. . ... ... ... : ... .. . ... ... ... : ... .. . ... ... ...
ROW 2B : ... .. 4 ... ... ... : ... .. 5 ... ... ... : ... .. . ... ... ... : ... .. 2 ... ... ... : ... .. . ... ... ... : ... .. 2 ... ... ...
ROW 2C : D#2 02 A ... ... ... : G#2 01 C ... ... ... : G#3 00 . ... ... ... : A-# 01 B ... ... ... : D-1 05 . ... ... ... : F#3 04 6 I01 JF0 ...
ROW 2D : D#2 01 . ... ... ... : G#2 02 . ... ... ... : G#2 00 . ... ... ... : B-# 00 8 ... ... ... : ... .. . ... ... ... : ... .. 5 ... ... ...
ROW 2E : ... .. . ... ... ... : G#2 00 . ... ... ... : ... .. . ... ... ... : ... .. 7 ... ... ... : ... .. . ... ... ... : ... .. . ... ... ...
ROW 2F : ... .. . ... ... ... : ... .. . ... ... ... : ... .. . ... ... ... : C-# 01 6 ... ... ... : ... .. . ... ... ... : ... .. 4 ... ... ...
ROW 30 : ... .. . ... ... ... : ... .. . ... ... ... : ... .. . ... ... ... : B-# 01 . ... ... ... : ... .. . ... ... ... : ... .. . ... ... ...
ROW 31 : ... .. . ... ... ... : ... .. . ... ... ... : ... .. . ... ... ... : C-# 00 5 ... ... ... : ... .. . ... ... ... : ... .. . ... ... ...
ROW 32 : ... .. . ... ... ... : ... .. . ... ... ... : ... .. . ... ... ... : D-# 00 B ... ... ... : C#1 05 . ... ... ... : ... .. . ... ... ...
ROW 33 : ... .. . ... ... ... : ... .. . ... ... ... : ... .. . ... ... ... : B-# 00 7 ... ... ... : ... .. . ... ... ... : ... .. . ... ... ...
ROW 34 : ... .. . ... ... ... : ... .. . ... ... ... : ... .. . ... ... ... : C-# 00 4 ... ... ... : ... .. . ... ... ... : ... .. . ... ... ...
ROW 35 : ... .. . ... ... ... : ... .. . ... ... ... : ... .. . ... ... ... : ... .. . ... ... ... : ... .. . ... ... ... : ... .. . ... ... ...
ROW 36 : ... .. 5 ... ... ... : ... .. 6 ... ... ... : ... .. . ... ... ... : ... .. . ... ... ... : ... .. . ... ... ... : ... .. . ... ... ...
ROW 37 : ... .. 4 ... ... ... : ... .. 5 ... ... ... : ... .. . ... ... ... : ... .. 2 ... ... ... : ... .. . ... ... ... : ... .. 2 ... ... ...
ROW 38 : D-2 02 A ... ... ... : G-2 01 C ... ... ... : G-3 00 . ... ... ... : 7-# 00 C ... ... ... : D-1 05 . ... ... ... : F-3 04 6 I01 JD5 ...
ROW 39 : D-2 01 . ... ... ... : G-2 02 . ... ... ... : G-2 00 . ... ... ... : 3-# 00 8 ... ... ... : ... .. . ... ... ... : ... .. 5 ... ... ...
ROW 3A : ... .. . ... ... ... : G-2 00 . ... ... ... : ... .. . ... ... ... : 6-# 00 B ... ... ... : ... .. . ... ... ... : ... .. . ... ... ...
ROW 3B : ... .. . ... ... ... : ... .. . ... ... ... : ... .. . ... ... ... : 8-# 00 8 ... ... ... : ... .. . ... ... ... : ... .. 4 ... ... ...
ROW 3C : ... .. . ... ... ... : ... .. . ... ... ... : ... .. . ... ... ... : 9-# 00 9 ... ... ... : ... .. . ... ... ... : ... .. . ... ... ...
ROW 3D : ... .. . ... ... ... : ... .. . ... ... ... : ... .. . ... ... ... : A-# 00 8 ... ... ... : ... .. . ... ... ... : ... .. . ... ... ...
ROW 3E : ... .. . ... ... ... : ... .. . ... ... ... : ... .. . ... ... ... : ... .. . ... ... ... : ... .. . ... ... ... : ... .. . ... ... ...
ROW 3F : ... .. . ... ... ... : ... .. . ... ... ... : ... .. . ... ... ... : ... .. . ... ... ... : ... .. . ... ... ... : ... .. . ... ... ...
ROW 40 : ... .. . ... ... ... : ... .. . ... ... ... : ... .. . ... ... ... : ... .. . ... ... ... : ... .. . ... ... ... : ... .. . ... ... ...
ROW 41 : ... .. . ... ... ... : ... .. . ... ... ... : ... .. . ... ... ... : ... .. 7 ... ... ... : ... .. . ... ... ... : ... .. . ... ... ...
ROW 42 : ... .. 5 ... ... ... : ... .. 6 ... ... ... : ... .. . ... ... ... : ... .. . ... ... ... : ... .. . ... ... ... : ... .. . ... ... ...
ROW 43 : ... .. 4 ... ... ... : ... .. 5 ... ... ... : ... .. . ... ... ... : ... .. . ... ... ... : ... .. . ... ... ... : ... .. 2 ... ... ...
ROW 44 : D-2 02 A ... ... ... : G-2 01 C ... ... ... : G-3 00 . ... ... ... : ... .. . ... ... ... : ... .. . ... ... ... : ... .. 6 ... ... ...
ROW 45 : D-2 01 . ... ... ... : G-2 02 . ... ... ... : G-2 00 . ... ... ... : ... .. 6 ... ... ... : ... .. . ... ... ... : ... .. 5 ... ... ...
ROW 46 : ... .. . ... ... ... : G-2 00 . ... ... ... : ... .. . ... ... ... : ... .. . ... ... ... : ... .. . ... ... ... : ... .. . ... ... ...
ROW 47 : ... .. . ... ... ... : ... .. . ... ... ... : ... .. . ... ... ... : ... .. . ... ... ... : ... .. . ... ... ... : ... .. 4 ... ... ...
ROW 48 : ... .. . ... ... ... : ... .. . ... ... ... : ... .. . ... ... ... : ... .. . ... ... ... : ... .. . ... ... ... : ... .. . ... ... ...
ROW 49 : ... .. . ... ... ... : ... .. . ... ... ... : ... .. . ... ... ... : ... .. . ... ... ... : ... .. . ... ... ... : ... .. . ... ... ...
ROW 4A : ... .. . ... ... ... : ... .. . ... ... ... : ... .. . ... ... ... : ... .. 5 ... ... ... : ... .. . ... ... ... : ... .. . ... ... ...
ROW 4B : ... .. . ... ... ... : ... .. . ... ... ... : ... .. . ... ... ... : ... .. . ... ... ... : ... .. . ... ... ... : ... .. . ... ... ...
ROW 4C : ... .. . ... ... ... : ... .. . ... ... ... : ... .. . ... ... ... : ... .. . ... ... ... : ... .. . ... ... ... : ... .. . ... ... ...
ROW 4D : ... .. . ... ... ... : ... .. . ... ... ... : ... .. . ... ... ... : ... .. . ... ... ... : ... .. . ... ... ... : ... .. . ... ... ...
ROW 4E : ... .. 5 ... ... ... : ... .. 6 ... ... ... : ... .. . ... ... ... : ... .. . ... ... ... : ... .. . ... ... ... : ... .. . ... ... ...
ROW 4F : ... .. 4 ... ... ... : ... .. 5 ... ... ... : ... .. . ... ... ... : ... .. 4 ... ... ... : ... .. . ... ... ... : ... .. 2 ... ... ...
ROW 50 : G-2 02 A ... ... ... : C-3 01 C ... ... ... : C-4 00 . ... ... ... : ... .. . ... ... ... : ... .. . ... ... ... : A#3 04 6 I02 J6E ...
ROW 51 : G-2 01 . ... ... ... : C-3 02 . ... ... ... : C-3 00 . ... ... ... : ... .. . ... ... ... : ... .. . ... ... ... : ... .. 5 ... ... ...
ROW 52 : ... .. . ... ... ... : C-3 00 . ... ... ... : ... .. . ... ... ... : ... .. . ... ... ... : ... .. . ... ... ... : ... .. . ... ... ...
ROW 53 : ... .. . ... ... ... : ... .. . ... ... ... : ... .. . ... ... ... : ... .. . ... ... ... : ... .. . ... ... ... : ... .. 4 ... ... ...
ROW 54 : ... .. . ... ... ... : ... .. . ... ... ... : ... .. . ... ... ... : ... .. . ... ... ... : ... .. . ... ... ... : ... .. . ... ... ...
ROW 55 : ... .. . ... ... ... : ... .. . ... ... ... : ... .. . ... ... ... : ... .. . ... ... ... : ... .. . ... ... ... : ... .. . ... ... ...
ROW 56 : ... .. . ... ... ... : ... .. . ... ... ... : ... .. . ... ... ... : ... .. . ... ... ... : ... .. . ... ... ... : ... .. . ... ... ...
ROW 57 : ... .. . ... ... ... : ... .. . ... ... ... : ... .. . ... ... ... : ... .. . ... ... ... : ... .. . ... ... ... : ... .. . ... ... ...
ROW 58 : ... .. . ... ... ... : ... .. . ... ... ... : ... .. . ... ... ... : ... .. . ... ... ... : ... .. . ... ... ... : ... .. . ... ... ...
ROW 59 : ... .. . ... ... ... : ... .. . ... ... ... : ... .. . ... ... ... : ... .. . ... ... ... : ... .. . ... ... ... : ... .. . ... ... ...
ROW 5A : ... .. 5 ... ... ... : ... .. 6 ... ... ... : ... .. . ... ... ... : ... .. . ... ... ... : ... .. . ... ... ... : ... .. . ... ... ...
ROW 5B : ... .. 4 ... ... ... : ... .. 5 ... ... ... : ... .. . ... ... ... : ... .. . ... ... ... : ... .. . ... ... ... : ... .. 2 ... ... ...
ROW 5C : D-2 02 A ... ... ... : G-2 01 C ... ... ... : G-3 00 . ... ... ... : ... .. 3 ... ... ... : ... .. . ... ... ... : F-3 04 6 I01 JD5 ...
ROW 5D : D-2 01 . ... ... ... : G-2 02 . ... ... ... : G-2 00 . ... ... ... : ... .. . ... ... ... : ... .. . ... ... ... : ... .. 5 ... ... ...
ROW 5E : ... .. . ... ... ... : G-2 00 . ... ... ... : ... .. . ... ... ... : ... .. . ... ... ... : ... .. . ... ... ... : ... .. . ... ... ...
ROW 5F : ... .. . ... ... ... : ... .. . ... ... ... : ... .. . ... ... ... : ... .. . ... ... ... : ... .. . ... ... ... : ... .. 4 ... ... ...
ROW 60 : ... .. . ... ... ... : ... .. . ... ... ... : ... .. . ... ... ... : ... .. . ... ... ... : ... .. . ... ... ... : ... .. . ... ... ...
ROW 61 : ... .. . ... ... ... : ... .. . ... ... ... : ... .. . ... ... ... : ... .. . ... ... ... : ... .. . ... ... ... : ... .. . ... ... ...
ROW 62 : ... .. . ... ... ... : ... .. . ... ... ... : ... .. . ... ... ... : ... .. . ... ... ... : ... .. . ... ... ... : ... .. . ... ... ...
ROW 63 : ... .. . ... ... ... : ... .. . ... ... ... : ... .. . ... ... ... : ... .. . ... ... ... : ... .. . ... ... ... : ... .. . ... ... ...
ROW 64 : ... .. . ... ... ... : ... .. . ... ... ... : ... .. . ... ... ... : ... .. . ... ... ... : ... .. . ... ... ... : ... .. . ... ... ...
ROW 65 : ... .. . ... ... ... : ... .. . ... ... ... : ... .. . ... ... ... : ... .. . ... ... ... : ... .. . ... ... ... : ... .. . ... ... ...
ROW 66 : ... .. 5 ... ... ... : ... .. 6 ... ... ... : ... .. . ... ... ... : ... .. 2 ... ... ... : ... .. . ... ... ... : ... .. . ... ... ...
ROW 67 : ... .. 4 ... ... ... : ... .. 5 ... ... ... : ... .. . ... ... ... : ... .. . ... ... ... : ... .. . ... ... ... : ... .. 2 ... ... ...
ROW 68 : G-1 00 3 ... ... ... : ... .. 2 ... ... ... : C#4 00 . P80 ... ... : D-# 00 5 ... ... ... : G-1 05 . ... ... ... : B-2 04 . I02 J8C ...
ROW 69 : G-1 03 . ... ... ... : G-2 03 . ... ... ... : C#3 00 . ... ... ... : ... .. . ... ... ... : ... .. . ... ... ... : ... .. . ... ... ...
ROW 6A : G-1 02 . ... ... ... : G-2 02 . ... ... ... : ... .. . ... ... ... : ... .. . ... ... ... : ... .. . ... ... ... : ... .. . ... ... ...
ROW 6B : G-1 01 4 ... ... ... : G-2 01 3 ... ... ... : ... .. . ... ... ... : C-# 00 . ... ... ... : G-1 05 . ... ... ... : ... .. . ... ... ...
ROW 6C : ... .. . ... ... ... : ... .. . ... ... ... : ... .. . ... ... ... : ... .. . ... ... ... : ... .. . ... ... ... : ... .. . ... ... ...
ROW 6D : ... .. . ... ... ... : ... .. . ... ... ... : ... .. . ... ... ... : ... .. . ... ... ... : ... .. . ... ... ... : ... .. . ... ... ...
ROW 6E : ... .. . ... ... ... : ... .. . ... ... ... : ... .. . ... ... ... : ... .. 6 ... ... ... : G-1 05 . ... ... ... : ... .. . ... ... ...
ROW 6F : ... .. 5 ... ... ... : ... .. 4 ... ... ... : ... .. . ... ... ... : ... .. . ... ... ... : ... .. . ... ... ... : ... .. . ... ... ...
ROW 70 : ... .. . ... ... ... : ... .. . ... ... ... : ... .. . ... ... ... : ... .. . ... ... ... : ... .. . ... ... ... : ... .. . ... ... ...
ROW 71 : ... .. . ... ... ... : ... .. . ... ... ... : ... .. . ... ... ... : B-# 00 . ... ... ... : G-1 05 . ... ... ... : ... .. . ... ... ...
ROW 72 : ... .. . ... ... ... : ... .. . ... ... ... : ... .. . ... ... ... : ... .. . ... ... ... : ... .. . ... ... ... : ... .. . ... ... ...
ROW 73 : ... .. 6 ... ... ... : ... .. 5 ... ... ... : ... .. . ... ... ... : ... .. . ... ... ... : ... .. . ... ... ... : ... .. . ... ... ...
ROW 74 : ... .. . ... ... ... : ... .. . ... ... ... : ... .. . ... ... ... : A-# 00 . ... ... ... : G-1 05 . ... ... ... : ... .. 3 ... ... ...
ROW 75 : ... .. . ... ... ... : ... .. . ... ... ... : ... .. . ... ... ... : ... .. . ... ... ... : ... .. . ... ... ... : ... .. . ... ... ...
ROW 76 : ... .. . ... ... ... : ... .. . ... ... ... : ... .. . ... ... ... : ... .. . ... ... ... : ... .. . ... ... ... : ... .. . ... ... ...
ROW 77 : ... .. 7 ... ... ... : ... .. 6 ... ... ... : ... .. . ... ... ... : ... .. . ... ... ... : ... .. . ... ... ... : ... .. . ... ... ...
ROW 78 : ... .. . ... ... ... : ... .. . ... ... ... : ... .. . ... ... ... : ... .. . ... ... ... : ... .. . ... ... ... : ... .. . ... ... ...
ROW 79 : ... .. . ... ... ... : ... .. . ... ... ... : ... .. . ... ... ... : ... .. . ... ... ... : ... .. . ... ... ... : ... .. . ... ... ...
ROW 7A : ... .. . ... ... ... : ... .. . ... ... ... : ... .. . ... ... ... : 9-# 00 7 ... ... ... : G-1 05 . ... ... ... : ... .. . ... ... ...
ROW 7B : ... .. 8 ... ... ... : ... .. 7 ... ... ... : ... .. . ... ... ... : ... .. . ... ... ... : ... .. . ... ... ... : ... .. . ... ... ...
ROW 7C : ... .. . ... ... ... : ... .. . ... ... ... : ... .. . ... ... ... : ... .. . ... ... ... : ... .. . ... ... ... : ... .. . ... ... ...
ROW 7D : ... .. . ... ... ... : ... .. . ... ... ... : ... .. . ... ... ... : 8-# 00 . ... ... ... : ... .. . ... ... ... : ... .. . ... ... ...
ROW 7E : ... .. . ... ... ... : ... .. . ... ... ... : ... .. . ... ... ... : ... .. . ... ... ... : ... .. . ... ... ... : ... .. . ... ... ...
ROW 7F : ... .. 9 ... ... ... : ... .. 8 ... ... ... : ... .. . ... ... ... : ... .. . ... ... ... : ... .. . ... ... ... : ... .. . ... ... ...
ROW 80 : ... .. . ... ... ... : ... .. . ... ... ... : ... .. . ... ... ... : ... .. 8 ... ... ... : E-1 05 . ... ... ... : ... .. 4 ... ... ...
ROW 81 : ... .. . ... ... ... : ... .. . ... ... ... : ... .. . ... ... ... : ... .. . ... ... ... : ... .. . ... ... ... : ... .. . ... ... ...
ROW 82 : ... .. . ... ... ... : ... .. . ... ... ... : ... .. . ... ... ... : ... .. . ... ... ... : ... .. . ... ... ... : ... .. . ... ... ...
ROW 83 : ... .. A ... ... ... : ... .. 9 ... ... ... : ... .. . ... ... ... : 7-# 00 . ... ... ... : E-1 05 . ... ... ... : ... .. . ... ... ...
ROW 84 : ... .. . ... ... ... : ... .. . ... ... ... : ... .. . ... ... ... : ... .. . ... ... ... : ... .. . ... ... ... : ... .. . ... ... ...
ROW 85 : ... .. . ... ... ... : ... .. . ... ... ... : ... .. . ... ... ... : ... .. . ... ... ... : ... .. . ... ... ... : ... .. . ... ... ...
ROW 86 : ... .. . ... ... ... : ... .. . ... ... ... : ... .. . ... ... ... : 6-# 00 9 ... ... ... : E-1 05 . ... ... ... : ... .. . ... ... ...
ROW 87 : ... .. B ... ... ... : ... .. A ... ... ... : ... .. . ... ... ... : ... .. . ... ... ... : ... .. . ... ... ... : ... .. . ... ... ...
ROW 88 : ... .. . ... ... ... : ... .. . ... ... ... : ... .. . ... ... ... : ... .. . ... ... ... : ... .. . ... ... ... : ... .. . ... ... ...
ROW 89 : ... .. . ... ... ... : ... .. . ... ... ... : ... .. . ... ... ... : ... .. . ... ... ... : ... .. . ... ... ... : ... .. . ... ... ...
ROW 8A : ... .. . ... ... ... : ... .. . ... ... ... : ... .. . ... ... ... : ... .. . ... ... ... : ... .. . ... ... ... : ... .. . ... ... ...
ROW 8B : ... .. C ... ... ... : ... .. B ... ... ... : ... .. . ... ... ... : ... .. . ... ... ... : ... .. . ... ... ... : ... .. . ... ... ...
ROW 8C : ... .. . ... ... ... : ... .. . ... ... ... : ... .. . ... ... ... : 5-# 00 . ... ... ... : F-1 05 . ... ... ... : ... .. 5 ... ... ...
ROW 8D : ... .. . ... ... ... : ... .. . ... ... ... : ... .. . ... ... ... : ... .. . ... ... ... : ... .. . ... ... ... : ... .. . ... ... ...
ROW 8E : ... .. . ... ... ... : ... .. . ... ... ... : ... .. . ... ... ... : ... .. . ... ... ... : ... .. . ... ... ... : ... .. . ... ... ...
ROW 8F : ... .. D ... ... ... : ... .. C ... ... ... : ... .. . ... ... ... : 4-# 00 . ... ... ... : ... .. . ... ... ... : ... .. . ... ... ...
ROW 90 : ... .. . ... ... ... : ... .. . ... ... ... : ... .. . ... ... ... : ... .. . ... ... ... : ... .. . ... ... ... : ... .. . ... ... ...
ROW 91 : ... .. . ... ... ... : ... .. . ... ... ... : ... .. . ... ... ... : ... .. . ... ... ... : ... .. . ... ... ... : ... .. . ... ... ...
ROW 92 : ... .. . ... ... ... : ... .. . ... ... ... : ... .. . ... ... ... : ... .. A ... ... ... : F#1 05 . ... ... ... : ... .. . ... ... ...
ROW 93 : ... .. E ... ... ... : ... .. D ... ... ... : ... .. . ... ... ... : ... .. . ... ... ... : ... .. . ... ... ... : ... .. . ... ... ...
ROW 94 : ... .. . ... ... ... : ... .. . ... ... ... : ... .. . ... ... ... : ... .. . ... ... ... : ... .. . ... ... ... : ... .. . ... ... ...
ROW 95 : ... .. . P80 ... ... : ... .. . P80 ... ... : ... .. . ... ... ... : 3-# 00 . ... ... ... : ... .. . ... ... ... : ... .. . ... ... ...
ROW 96 : ... .. . ... ... ... : ... .. . ... ... ... : ... .. . ... ... ... : ... .. . ... ... ... : ... .. . ... ... ... : ... .. . ... ... ...
ROW 97 : ... .. F ... ... ... : ... .. E ... ... ... : ... .. . ... ... ... : ... .. . ... ... ... : ... .. . ... ... ... : ... .. . ... ... ...
ROW 98 : G-4 00 8 ... ... ... : G-2 00 C ... ... ... : G-3 00 . ... ... ... : A-# 00 F ... ... ... : C-1 05 . ... ... ... : C-3 04 7 I01 JCB ...
ROW 99 : G-4 03 . ... ... ... : G-2 01 . ... ... ... : G-2 00 . ... ... ... : 7-# 00 B ... ... ... : ... .. . ... ... ... : ... .. 6 ... ... ...
ROW 9A : G-4 02 . ... ... ... : G-2 02 . ... ... ... : ... .. . ... ... ... : 8-# 00 E ... ... ... : ... .. . ... ... ... : ... .. 5 ... ... ...
ROW 9B : G-4 01 . ... ... ... : ... .. . ... ... ... : ... .. . ... ... ... : 9-# 00 B ... ... ... : ... .. . ... ... ... : ... .. . ... ... ...
ROW 9C : ... .. . ... ... ... : ... .. . ... ... ... : ... .. . ... ... ... : A-# 00 C ... ... ... : ... .. . ... ... ... : ... .. . ... ... ...
ROW 9D : ... .. . ... ... ... : ... .. . ... ... ... : ... .. . ... ... ... : B-# 00 B ... ... ... : ... .. . ... ... ... : ... .. 4 ... ... ...
ROW 9E : D-4 00 . ... ... ... : ... .. . ... ... ... : ... .. . ... ... ... : ... .. . ... ... ... : A#1 05 . ... ... ... : ... .. . ... ... ...
ROW 9F : D-4 03 . ... ... ... : ... .. . ... ... ... : ... .. . ... ... ... : A-# 00 A ... ... ... : ... .. . ... ... ... : ... .. . ... ... ...
ROW A0 : D-4 02 . ... ... ... : ... .. . ... ... ... : ... .. . ... ... ... : B-# 00 . ... ... ... : ... .. . ... ... ... : ... .. . ... ... ...
ROW A1 : D-4 01 . ... ... ... : G-2 01 . ... ... ... : ... .. . ... ... ... : ... .. 9 ... ... ... : ... .. . ... ... ... : ... .. . ... ... ...
ROW A2 : ... .. . ... ... ... : ... .. . ... ... ... : --- .. . ... ... ... : ... .. . ... ... ... : ... .. . ... ... ... : ... .. 3 ... ... ...
ROW A3 : ... .. . ... ... ... : ... .. . ... ... ... : ... .. . ... ... ... : ... .. . ... ... ... : ... .. . ... ... ... : ... .. . ... ... ...
ROW A4 : G-3 00 . ... ... ... : F-4 00 . P81 ... ... : G-3 00 . ... ... ... : ... .. . ... ... ... : A-1 05 . ... ... ... : ... .. 7 ... ... ...
ROW A5 : G-3 03 . ... ... ... : F-4 01 . P82 ... ... : G-2 00 . ... ... ... : ... .. 8 ... ... ... : ... .. . ... ... ... : ... .. 6 ... ... ...
ROW A6 : G-3 02 . ... ... ... : F-4 02 . P83 ... ... : ... .. . ... ... ... : ... .. . ... ... ... : ... .. . ... ... ... : ... .. 5 ... ... ...
ROW A7 : G-3 01 . ... ... ... : ... .. . P84 ... ... : ... .. . ... ... ... : ... .. . ... ... ... : ... .. . ... ... ... : ... .. . ... ... ...
ROW A8 : ... .. . ... ... ... : F#4 02 . P7C ... ... : ... .. . ... ... ... : ... .. . ... ... ... : ... .. . ... ... ... : ... .. . ... ... ...
ROW A9 : ... .. . ... ... ... : ... .. . P7D ... ... : ... .. . ... ... ... : ... .. . ... ... ... : ... .. . ... ... ... : ... .. 3 ... ... ...
ROW AA : D-3 00 . ... ... ... : ... .. . P80 ... ... : ... .. . ... ... ... : ... .. 7 ... ... ... : ... .. . ... ... ... : ... .. 7 ... ... ...
ROW AB : D-3 03 . ... ... ... : ... .. . P83 ... ... : ... .. . ... ... ... : ... .. . ... ... ... : A#1 05 . ... ... ... : ... .. 6 ... ... ...
ROW AC : D-3 02 . ... ... ... : G-4 02 . P7E ... ... : ... .. . ... ... ... : ... .. . ... ... ... : ... .. . ... ... ... : ... .. 5 ... ... ...
ROW AD : D-3 01 . ... ... ... : ... .. . P80 ... ... : ... .. . ... ... ... : ... .. . ... ... ... : ... .. . ... ... ... : ... .. . ... ... ...
ROW AE : ... .. . ... ... ... : ... .. . ... ... ... : ... .. . ... ... ... : ... .. . ... ... ... : ... .. . ... ... ... : ... .. . ... ... ...
ROW AF : ... .. . ... ... ... : ... .. . ... ... ... : --- .. . ... ... ... : ... .. 6 ... ... ... : ... .. . ... ... ... : ... .. 3 ... ... ...
ROW B0 : G-2 00 . ... ... ... : ... .. . ... ... ... : G-3 00 . ... ... ... : 9-# 01 A ... ... ... : C-1 05 . ... ... ... : G-3 04 7 I02 JB2 ...
ROW B1 : G-2 03 . ... ... ... : ... .. . ... ... ... : G-2 00 . ... ... ... : A-# 00 7 ... ... ... : ... .. . ... ... ... : ... .. 6 ... ... ...
ROW B2 : G-2 02 . ... ... ... : ... .. . ... ... ... : ... .. . ... ... ... : ... .. 6 ... ... ... : ... .. . ... ... ... : ... .. 5 ... ... ...
ROW B3 : G-2 01 . ... ... ... : G#4 02 . ... ... ... : ... .. . ... ... ... : B-# 01 5 ... ... ... : ... .. . ... ... ... : ... .. . ... ... ...
ROW B4 : ... .. . ... ... ... : ... .. . ... ... ... : ... .. . ... ... ... : A-# 01 . ... ... ... : ... .. . ... ... ... : ... .. . ... ... ...
ROW B5 : ... .. . ... ... ... : G-4 02 . ... ... ... : ... .. . ... ... ... : B-# 00 . ... ... ... : ... .. . ... ... ... : ... .. 3 ... ... ...
ROW B6 : D-3 00 . ... ... ... : F#4 02 . P81 ... ... : ... .. . ... ... ... : ... .. . ... ... ... : A#1 05 . ... ... ... : ... .. 7 ... ... ...
ROW B7 : D-3 03 . ... ... ... : ... .. . P7F ... ... : ... .. . ... ... ... : ... .. . ... ... ... : ... .. . ... ... ... : ... .. 6 ... ... ...
ROW B8 : D-3 02 . ... ... ... : G-4 02 . P7E ... ... : ... .. . ... ... ... : ... .. 4 ... ... ... : ... .. . ... ... ... : ... .. 5 ... ... ...
ROW B9 : D-3 01 . ... ... ... : G#4 02 . P7D ... ... : ... .. . ... ... ... : ... .. . ... ... ... : ... .. . ... ... ... : ... .. . ... ... ...
ROW BA : ... .. . ... ... ... : ... .. . P81 ... ... : --- .. . ... ... ... : ... .. 3 ... ... ... : ... .. . ... ... ... : ... .. . ... ... ...
ROW BB : ... .. . ... ... ... : G-4 02 . P84 ... ... : ... .. . ... ... ... : ... .. . ... ... ... : ... .. . ... ... ... : ... .. 3 ... ... ...
ROW BC : G-3 00 . ... ... ... : ... .. . P7D ... ... : G-3 00 . ... ... ... : 7-# 00 C ... ... ... : A-1 05 . ... ... ... : C-4 04 7 I03 J99 ...
ROW BD : G-3 03 . ... ... ... : F#4 02 . P7F ... ... : G-2 00 . ... ... ... : 3-# 00 8 ... ... ... : ... .. . ... ... ... : ... .. 6 ... ... ...
ROW BE : G-3 02 . ... ... ... : ... .. . P82 ... ... : ... .. . ... ... ... : 6-# 00 B ... ... ... : ... .. . ... ... ... : ... .. 5 ... ... ...
ROW BF : G-3 01 . ... ... ... : G-4 02 . P81 ... ... : ... .. . ... ... ... : A-# 00 7 ... ... ... : ... .. . ... ... ... : ... .. . ... ... ...
ROW C0 : ... .. . ... ... ... : G#4 02 . ... ... ... : ... .. . ... ... ... : B-# 00 8 ... ... ... : ... .. . ... ... ... : ... .. . ... ... ...
ROW C1 : ... .. . ... ... ... : ... .. . P7F ... ... : ... .. . ... ... ... : C-# 00 7 ... ... ... : ... .. . ... ... ... : ... .. 3 ... ... ...
ROW C2 : D-4 00 . ... ... ... : G-4 02 . P80 ... ... : ... .. . ... ... ... : 9-# 00 . ... ... ... : ... .. . ... ... ... : ... .. 7 ... ... ...
ROW C3 : D-4 03 . ... ... ... : F#4 02 . ... ... ... : ... .. . ... ... ... : ... .. 6 ... ... ... : A#1 05 . ... ... ... : ... .. 6 ... ... ...
ROW C4 : D-4 02 . ... ... ... : ... .. . ... ... ... : ... .. . ... ... ... : ... .. . ... ... ... : ... .. . ... ... ... : ... .. 5 ... ... ...
ROW C5 : D-4 01 . ... ... ... : A-4 01 6 ... ... ... : ... .. . ... ... ... : ... .. . ... ... ... : ... .. . ... ... ... : ... .. . ... ... ...
ROW C6 : ... .. . ... ... ... : ... .. . ... ... ... : ... .. . ... ... ... : ... .. . ... ... ... : ... .. . ... ... ... : ... .. . ... ... ...
ROW C7 : ... .. . ... ... ... : ... .. . ... ... ... : --- .. . ... ... ... : ... .. . ... ... ... : ... .. . ... ... ... : ... .. 3 ... ... ...
ROW C8 : A#4 00 . ... ... ... : A#4 00 C ... ... ... : A#3 00 . ... ... ... : 9-# 01 A ... ... ... : C-1 05 . ... ... ... : D#3 04 7 I02 J22 ...
ROW C9 : A#4 03 . ... ... ... : A#4 01 . ... ... ... : A#2 00 . ... ... ... : A-# 00 7 ... ... ... : ... .. . ... ... ... : ... .. 6 ... ... ...
ROW CA : A#4 02 . ... ... ... : A#4 02 . ... ... ... : ... .. . ... ... ... : ... .. 6 ... ... ... : ... .. . ... ... ... : ... .. 5 ... ... ...
ROW CB : A#4 01 . ... ... ... : ... .. . ... ... ... : ... .. . ... ... ... : B-# 01 5 ... ... ... : ... .. . ... ... ... : ... .. . ... ... ...
ROW CC : ... .. . ... ... ... : ... .. . ... ... ... : ... .. . ... ... ... : A-# 01 . ... ... ... : ... .. . ... ... ... : ... .. . ... ... ...
ROW CD : ... .. . ... ... ... : ... .. . ... ... ... : ... .. . ... ... ... : B-# 00 . ... ... ... : ... .. . ... ... ... : ... .. 4 ... ... ...
ROW CE : F-4 00 . ... ... ... : A#3 00 . ... ... ... : ... .. . ... ... ... : ... .. . ... ... ... : A#1 05 . ... ... ... : ... .. . ... ... ...
ROW CF : F-4 03 . ... ... ... : A#3 01 . ... ... ... : ... .. . ... ... ... : ... .. . ... ... ... : ... .. . ... ... ... : ... .. . ... ... ...
ROW D0 : F-4 02 . ... ... ... : A#3 02 . ... ... ... : ... .. . ... ... ... : ... .. 4 ... ... ... : ... .. . ... ... ... : ... .. . ... ... ...
ROW D1 : F-4 01 . ... ... ... : ... .. . ... ... ... : ... .. . ... ... ... : ... .. . ... ... ... : ... .. . ... ... ... : ... .. . ... ... ...
ROW D2 : ... .. . ... ... ... : ... .. . ... ... ... : --- .. . ... ... ... : ... .. 3 ... ... ... : ... .. . ... ... ... : ... .. 3 ... ... ...
ROW D3 : ... .. . ... ... ... : ... .. . ... ... ... : ... .. . ... ... ... : ... .. . ... ... ... : ... .. . ... ... ... : ... .. . ... ... ...
ROW D4 : A#3 00 . ... ... ... : F-4 00 . ... ... ... : A#3 00 . ... ... ... : 7-# 00 C ... ... ... : A-1 05 . ... ... ... : ... .. 7 ... ... ...
ROW D5 : A#3 03 . ... ... ... : F-4 01 . ... ... ... : A#2 00 . ... ... ... : 3-# 00 8 ... ... ... : ... .. . ... ... ... : ... .. 6 ... ... ...
ROW D6 : A#3 02 . ... ... ... : F-4 02 . ... ... ... : ... .. . ... ... ... : 6-# 00 B ... ... ... : ... .. . ... ... ... : ... .. 5 ... ... ...
ROW D7 : A#3 01 . ... ... ... : ... .. . ... ... ... : ... .. . ... ... ... : A-# 00 7 ... ... ... : ... .. . ... ... ... : ... .. . ... ... ...
ROW D8 : ... .. . ... ... ... : ... .. . ... ... ... : ... .. . ... ... ... : B-# 00 8 ... ... ... : ... .. . ... ... ... : ... .. . ... ... ...
ROW D9 : ... .. . ... ... ... : ... .. . ... ... ... : ... .. . ... ... ... : C-# 00 7 ... ... ... : ... .. . ... ... ... : ... .. 3 ... ... ...
ROW DA : F-3 00 . ... ... ... : F-3 00 . ... ... ... : ... .. . ... ... ... : 9-# 00 . ... ... ... : ... .. . ... ... ... : ... .. 7 ... ... ...
ROW DB : F-3 03 . ... ... ... : F-3 01 . ... ... ... : ... .. . ... ... ... : ... .. 6 ... ... ... : A#1 05 . ... ... ... : ... .. 6 ... ... ...
ROW DC : F-3 02 . ... ... ... : F-3 02 . ... ... ... : ... .. . ... ... ... : ... .. . ... ... ... : ... .. . ... ... ... : ... .. 5 ... ... ...
ROW DD : F-3 01 . ... ... ... : ... .. . ... ... ... : ... .. . ... ... ... : ... .. . ... ... ... : ... .. . ... ... ... : ... .. . ... ... ...
ROW DE : ... .. . ... ... ... : ... .. . ... ... ... : ... .. . ... ... ... : ... .. . ... ... ... : ... .. . ... ... ... : ... .. . ... ... ...
ROW DF : ... .. . ... ... ... : F-4 01 6 ... ... ... : --- .. . ... ... ... : ... .. . ... ... ... : ... .. . ... ... ... : ... .. 3 ... ... ...
ROW E0 : A#2 00 . ... ... ... : F-4 00 C ... ... ... : A#3 00 . ... ... ... : 9-# 01 A ... ... ... : C-1 05 . ... ... ... : A#3 04 7 I03 J33 ...
ROW E1 : A#2 03 . ... ... ... : F-4 01 . ... ... ... : A#2 00 . ... ... ... : A-# 00 7 ... ... ... : ... .. . ... ... ... : ... .. 6 ... ... ...
ROW E2 : A#2 02 . ... ... ... : F-4 02 . ... ... ... : ... .. . ... ... ... : ... .. 6 ... ... ... : ... .. . ... ... ... : ... .. 5 ... ... ...
ROW E3 : A#2 01 . ... ... ... : ... .. . ... ... ... : ... .. . ... ... ... : B-# 01 5 ... ... ... : ... .. . ... ... ... : ... .. . ... ... ...
ROW E4 : ... .. . ... ... ... : ... .. . ... ... ... : ... .. . ... ... ... : A-# 01 . ... ... ... : ... .. . ... ... ... : ... .. . ... ... ...
ROW E5 : ... .. . ... ... ... : ... .. . ... ... ... : ... .. . ... ... ... : B-# 00 . ... ... ... : ... .. . ... ... ... : ... .. 3 ... ... ...
ROW E6 : F-3 00 . ... ... ... : F#4 02 . P7C ... ... : ... .. . ... ... ... : ... .. . ... ... ... : A#1 05 . ... ... ... : ... .. 7 ... ... ...
ROW E7 : F-3 03 . ... ... ... : ... .. . P7D ... ... : ... .. . ... ... ... : ... .. . ... ... ... : ... .. . ... ... ... : ... .. 6 ... ... ...
ROW E8 : F-3 02 . ... ... ... : F-4 02 . P80 ... ... : ... .. . ... ... ... : ... .. 4 ... ... ... : ... .. . ... ... ... : ... .. 5 ... ... ...
ROW E9 : F-3 01 . ... ... ... : ... .. . P7C ... ... : ... .. . ... ... ... : ... .. . ... ... ... : ... .. . ... ... ... : ... .. . ... ... ...
ROW EA : ... .. . ... ... ... : E-4 02 . P84 ... ... : --- .. . ... ... ... : ... .. 3 ... ... ... : ... .. . ... ... ... : ... .. . ... ... ...
ROW EB : ... .. . ... ... ... : F-4 02 . P7E ... ... : ... .. . ... ... ... : ... .. . ... ... ... : ... .. . ... ... ... : ... .. 3 ... ... ...
ROW EC : A#3 00 . ... ... ... : A#4 00 . P80 ... ... : A#3 00 . ... ... ... : 7-# 00 C ... ... ... : A-1 05 . ... ... ... : D#4 04 7 I04 J47 ...
ROW ED : A#3 03 . ... ... ... : A#4 01 . ... ... ... : A#2 00 . ... ... ... : 3-# 00 8 ... ... ... : ... .. . ... ... ... : ... .. 6 ... ... ...
ROW EE : A#3 02 . ... ... ... : A#4 02 . ... ... ... : ... .. . ... ... ... : 6-# 00 B ... ... ... : ... .. . ... ... ... : ... .. 5 ... ... ...
ROW EF : A#3 01 . ... ... ... : ... .. . ... ... ... : ... .. . ... ... ... : A-# 00 7 ... ... ... : ... .. . ... ... ... : ... .. . ... ... ...
ROW F0 : ... .. . ... ... ... : ... .. . ... ... ... : ... .. . ... ... ... : B-# 00 8 ... ... ... : ... .. . ... ... ... : ... .. . ... ... ...
ROW F1 : ... .. . ... ... ... : ... .. . ... ... ... : ... .. . ... ... ... : C-# 00 7 ... ... ... : ... .. . ... ... ... : ... .. 3 ... ... ...
ROW F2 : F-4 00 . ... ... ... : B-4 02 . P7E ... ... : ... .. . ... ... ... : 9-# 00 . ... ... ... : ... .. . ... ... ... : ... .. 7 ... ... ...
ROW F3 : F-4 03 . ... ... ... : ... .. . P7F ... ... : ... .. . ... ... ... : ... .. 6 ... ... ... : A#1 05 . ... ... ... : ... .. 6 ... ... ...
ROW F4 : F-4 02 . ... ... ... : A#4 02 . P80 ... ... : ... .. . ... ... ... : ... .. . ... ... ... : ... .. . ... ... ... : ... .. 5 ... ... ...
ROW F5 : F-4 01 . ... ... ... : A-4 02 . P83 ... ... : ... .. . ... ... ... : ... .. . ... ... ... : ... .. . ... ... ... : ... .. . ... ... ...
ROW F6 : ... .. . ... ... ... : ... .. . P81 ... ... : ... .. . ... ... ... : ... .. . ... ... ... : ... .. . ... ... ... : ... .. . ... ... ...
ROW F7 : ... .. . ... ... ... : A#4 02 . P7E ... ... : --- .. . ... ... ... : ... .. . ... ... ... : ... .. . ... ... ... : ... .. 3 ... ... ...
ROW F8 : C#5 00 . ... ... ... : A-4 00 . P80 ... ... : C#4 00 . ... ... ... : 9-# 01 A ... ... ... : C-1 05 . ... ... ... : F#3 04 7 I02 J8B ...
ROW F9 : C#5 03 . ... ... ... : A-4 01 . ... ... ... : C#3 00 . ... ... ... : A-# 00 7 ... ... ... : ... .. . ... ... ... : ... .. 6 ... ... ...
ROW FA : C#5 02 . ... ... ... : A-4 02 . ... ... ... : ... .. . ... ... ... : ... .. 6 ... ... ... : ... .. . ... ... ... : ... .. 5 ... ... ...
ROW FB : C#5 01 . ... ... ... : ... .. . ... ... ... : ... .. . ... ... ... : B-# 01 5 ... ... ... : ... .. . ... ... ... : ... .. . ... ... ...
ROW FC : ... .. . ... ... ... : ... .. . ... ... ... : ... .. . ... ... ... : A-# 01 . ... ... ... : ... .. . ... ... ... : ... .. . ... ... ...
ROW FD : ... .. . ... ... ... : ... .. . ... ... ... : ... .. . ... ... ... : B-# 00 . ... ... ... : ... .. . ... ... ... : ... .. 4 ... ... ...
ROW FE : G#4 00 . ... ... ... : A#4 02 . P7E ... ... : ... .. . ... ... ... : ... .. . ... ... ... : A#1 05 . ... ... ... : ... .. . ... ... ...
ROW FF : G#4 03 . ... ... ... : ... .. . P7F ... ... : ... .. . ... ... ... : ... .. . ... ... ... : ... .. . ... ... ... : ... .. . ... ... ...

PATTERN 13
ROW 00 : G#4 02 . ... ... ... : A-4 02 . P80 ... ... : ... .. . ... ... ... : ... .. 4 ... ... ... : ... .. . ... ... ... : ... .. . ... ... ...
ROW 01 : G#4 01 . ... ... ... : G#4 02 . P84 ... ... : ... .. . ... ... ... : ... .. . ... ... ... : ... .. . ... ... ... : ... .. . ... ... ...
ROW 02 : ... .. . ... ... ... : ... .. . P82 ... ... : --- .. . ... ... ... : ... .. 3 ... ... ... : ... .. . ... ... ... : ... .. 3 ... ... ...
ROW 03 : ... .. . ... ... ... : A-4 02 . P7E ... ... : ... .. . ... ... ... : ... .. . ... ... ... : ... .. . ... ... ... : ... .. . ... ... ...
ROW 04 : C#4 00 . ... ... ... : E-4 00 . P80 ... ... : C#4 00 . ... ... ... : 7-# 00 C ... ... ... : A-1 05 . ... ... ... : ... .. 7 ... ... ...
ROW 05 : C#4 03 . ... ... ... : E-4 01 . ... ... ... : C#3 00 . ... ... ... : 3-# 00 8 ... ... ... : ... .. . ... ... ... : ... .. 6 ... ... ...
ROW 06 : C#4 02 . ... ... ... : E-4 02 . ... ... ... : ... .. . ... ... ... : 6-# 00 B ... ... ... : ... .. . ... ... ... : ... .. 5 ... ... ...
ROW 07 : C#4 01 . ... ... ... : ... .. . ... ... ... : ... .. . ... ... ... : A-# 00 7 ... ... ... : ... .. . ... ... ... : ... .. . ... ... ...
ROW 08 : ... .. . ... ... ... : ... .. . ... ... ... : ... .. . ... ... ... : B-# 00 8 ... ... ... : ... .. . ... ... ... : ... .. . ... ... ...
ROW 09 : ... .. . ... ... ... : ... .. . ... ... ... : ... .. . ... ... ... : C-# 00 7 ... ... ... : ... .. . ... ... ... : ... .. 3 ... ... ...
ROW 0A : G#3 00 . ... ... ... : F-4 02 . P7E ... ... : ... .. . ... ... ... : 9-# 00 . ... ... ... : ... .. . ... ... ... : ... .. 7 ... ... ...
ROW 0B : G#3 03 . ... ... ... : ... .. . ... ... ... : ... .. . ... ... ... : ... .. 6 ... ... ... : A#1 05 . ... ... ... : ... .. 6 ... ... ...
ROW 0C : G#3 02 . ... ... ... : E-4 02 . P80 ... ... : ... .. . ... ... ... : ... .. . ... ... ... : ... .. . ... ... ... : ... .. 5 ... ... ...
ROW 0D : G#3 01 . ... ... ... : D#4 02 . P83 ... ... : ... .. . ... ... ... : ... .. . ... ... ... : ... .. . ... ... ... : ... .. . ... ... ...
ROW 0E : ... .. . ... ... ... : ... .. . P81 ... ... : ... .. . ... ... ... : ... .. . ... ... ... : ... .. . ... ... ... : ... .. . ... ... ...
ROW 0F : ... .. . ... ... ... : E-4 02 . P7E ... ... : --- .. . ... ... ... : ... .. . ... ... ... : ... .. . ... ... ... : ... .. 3 ... ... ...
ROW 10 : C#3 00 . ... ... ... : C#5 00 . P80 ... ... : C#4 00 . ... ... ... : 9-# 01 A ... ... ... : C-1 05 . ... ... ... : C#4 04 7 I03 JCF ...
ROW 11 : C#3 03 . ... ... ... : C#5 01 . ... ... ... : C#3 00 . ... ... ... : A-# 00 7 ... ... ... : ... .. . ... ... ... : ... .. 6 ... ... ...
ROW 12 : C#3 02 . ... ... ... : C#5 02 . ... ... ... : ... .. . ... ... ... : ... .. 6 ... ... ... : ... .. . ... ... ... : ... .. 5 ... ... ...
ROW 13 : C#3 01 . ... ... ... : ... .. . ... ... ... : ... .. . ... ... ... : B-# 01 5 ... ... ... : ... .. . ... ... ... : ... .. . ... ... ...
ROW 14 : ... .. . ... ... ... : ... .. . ... ... ... : ... .. . ... ... ... : A-# 01 . ... ... ... : ... .. . ... ... ... : ... .. . ... ... ...
ROW 15 : ... .. . ... ... ... : ... .. . ... ... ... : ... .. . ... ... ... : B-# 00 . ... ... ... : ... .. . ... ... ... : ... .. 3 ... ... ...
ROW 16 : G#3 00 . ... ... ... : ... .. . ... ... ... : ... .. . ... ... ... : ... .. . ... ... ... : A#1 05 . ... ... ... : ... .. 7 ... ... ...
ROW 17 : G#3 03 . ... ... ... : C#5 01 6 ... ... ... : ... .. . ... ... ... : ... .. . ... ... ... : ... .. . ... ... ... : ... .. 6 ... ... ...
ROW 18 : G#3 02 . ... ... ... : ... .. . ... ... ... : ... .. . ... ... ... : ... .. 4 ... ... ... : ... .. . ... ... ... : ... .. 5 ... ... ...
ROW 19 : G#3 01 . ... ... ... : ... .. . ... ... ... : ... .. . ... ... ... : ... .. . ... ... ... : ... .. . ... ... ... : ... .. . ... ... ...
ROW 1A : ... .. . ... ... ... : ... .. . ... ... ... : --- .. . ... ... ... : ... .. 3 ... ... ... : ... .. . ... ... ... : ... .. . ... ... ...
ROW 1B : ... .. . ... ... ... : ... .. . ... ... ... : ... .. . ... ... ... : ... .. . ... ... ... : ... .. . ... ... ... : ... .. 3 ... ... ...
ROW 1C : C#4 00 . ... ... ... : E-5 00 C ... ... ... : C#4 00 . ... ... ... : 7-# 00 C ... ... ... : A-1 05 . ... ... ... : F#4 04 7 I05 J16 ...
ROW 1D : C#4 03 . ... ... ... : E-5 01 . ... ... ... : C#3 00 . ... ... ... : 3-# 00 8 ... ... ... : ... .. . ... ... ... : ... .. 6 ... ... ...
ROW 1E : C#4 02 . ... ... ... : E-5 02 . ... ... ... : ... .. . ... ... ... : 6-# 00 B ... ... ... : ... .. . ... ... ... : ... .. 5 ... ... ...
ROW 1F : C#4 01 . ... ... ... : ... .. . ... ... ... : ... .. . ... ... ... : A-# 00 7 ... ... ... : ... .. . ... ... ... : ... .. . ... ... ...
ROW 20 : ... .. . ... ... ... : ... .. . ... ... ... : ... .. . ... ... ... : B-# 00 8 ... ... ... : ... .. . ... ... ... : ... .. . ... ... ...
ROW 21 : ... .. . ... ... ... : ... .. . ... ... ... : ... .. . ... ... ... : C-# 00 7 ... ... ... : ... .. . ... ... ... : ... .. 3 ... ... ...
ROW 22 : G#4 00 . ... ... ... : F-5 02 . P7F ... ... : ... .. . ... ... ... : 9-# 00 . ... ... ... : ... .. . ... ... ... : ... .. 7 ... ... ...
ROW 23 : G#4 03 . ... ... ... : ... .. . ... ... ... : ... .. . ... ... ... : ... .. 6 ... ... ... : A#1 05 . ... ... ... : ... .. 6 ... ... ...
ROW 24 : G#4 02 . ... ... ... : E-5 02 . P80 ... ... : ... .. . ... ... ... : ... .. . ... ... ... : ... .. . ... ... ... : ... .. 5 ... ... ...
ROW 25 : G#4 01 . ... ... ... : D#5 02 . P82 ... ... : ... .. . ... ... ... : ... .. . ... ... ... : ... .. . ... ... ... : ... .. . ... ... ...
ROW 26 : ... .. . ... ... ... : ... .. . P81 ... ... : ... .. . ... ... ... : ... .. . ... ... ... : ... .. . ... ... ... : ... .. . ... ... ...
ROW 27 : ... .. . ... ... ... : E-5 02 . P7F ... ... : --- .. . ... ... ... : ... .. . ... ... ... : ... .. . ... ... ... : ... .. 3 ... ... ...
ROW 28 : E-5 00 . ... ... ... : D#5 00 . P80 ... ... : E-3 00 . ... ... ... : 9-# 01 A ... ... ... : C-1 05 . ... ... ... : A-2 04 7 I01 J83 ...
ROW 29 : E-5 03 . ... ... ... : D#5 01 . ... ... ... : E-2 00 . ... ... ... : A-# 00 7 ... ... ... : ... .. . ... ... ... : ... .. 6 ... ... ...
ROW 2A : E-5 02 . ... ... ... : D#5 02 . ... ... ... : ... .. . ... ... ... : ... .. 6 ... ... ... : ... .. . ... ... ... : ... .. 5 ... ... ...
ROW 2B : E-5 01 . ... ... ... : ... .. . ... ... ... : ... .. . ... ... ... : B-# 01 5 ... ... ... : ... .. . ... ... ... : ... .. . ... ... ...
ROW 2C : ... .. . ... ... ... : ... .. . ... ... ... : ... .. . ... ... ... : A-# 01 . ... ... ... : ... .. . ... ... ... : ... .. . ... ... ...
ROW 2D : ... .. . ... ... ... : ... .. . ... ... ... : ... .. . ... ... ... : B-# 00 . ... ... ... : ... .. . ... ... ... : ... .. 4 ... ... ...
ROW 2E : B-4 00 . ... ... ... : E-5 02 . P7F ... ... : ... .. . ... ... ... : ... .. . ... ... ... : C-1 05 . ... ... ... : ... .. . ... ... ...
ROW 2F : B-4 03 . ... ... ... : ... .. . ... ... ... : ... .. . ... ... ... : ... .. . ... ... ... : ... .. . ... ... ... : ... .. . ... ... ...
ROW 30 : B-4 02 . ... ... ... : D#5 02 . P80 ... ... : ... .. . ... ... ... : ... .. 4 ... ... ... : ... .. . ... ... ... : ... .. . ... ... ...
ROW 31 : B-4 01 . ... ... ... : D-5 02 . P82 ... ... : ... .. . ... ... ... : ... .. . ... ... ... : ... .. . ... ... ... : ... .. . ... ... ...
ROW 32 : ... .. . ... ... ... : ... .. . P81 ... ... : --- .. . ... ... ... : ... .. 3 ... ... ... : ... .. . ... ... ... : ... .. 3 ... ... ...
ROW 33 : ... .. . ... ... ... : D#5 02 . P7F ... ... : ... .. . ... ... ... : ... .. . ... ... ... : ... .. . ... ... ... : ... .. . ... ... ...
ROW 34 : E-4 00 . ... ... ... : G#4 00 . P80 ... ... : E-3 00 . ... ... ... : 7-# 00 C ... ... ... : C-1 05 . ... ... ... : ... .. 7 ... ... ...
ROW 35 : E-4 03 . ... ... ... : G#4 01 . ... ... ... : E-2 00 . ... ... ... : 3-# 00 8 ... ... ... : ... .. . ... ... ... : ... .. 6 ... ... ...
ROW 36 : E-4 02 . ... ... ... : G#4 02 . ... ... ... : ... .. . ... ... ... : 6-# 00 B ... ... ... : ... .. . ... ... ... : ... .. 5 ... ... ...
ROW 37 : E-4 01 . ... ... ... : ... .. . ... ... ... : ... .. . ... ... ... : A-# 00 7 ... ... ... : ... .. . ... ... ... : ... .. . ... ... ...
ROW 38 : ... .. . ... ... ... : ... .. . ... ... ... : ... .. . ... ... ... : B-# 00 8 ... ... ... : ... .. . ... ... ... : ... .. . ... ... ...
ROW 39 : ... .. . ... ... ... : ... .. . ... ... ... : ... .. . ... ... ... : C-# 00 7 ... ... ... : ... .. . ... ... ... : ... .. 3 ... ... ...
ROW 3A : B-3 00 . ... ... ... : ... .. . ... ... ... : ... .. . ... ... ... : 9-# 00 . ... ... ... : C-1 05 . ... ... ... : ... .. 7 ... ... ...
ROW 3B : B-3 03 . ... ... ... : D#5 01 6 ... ... ... : ... .. . ... ... ... : ... .. 6 ... ... ... : ... .. . ... ... ... : ... .. 6 ... ... ...
ROW 3C : B-3 02 . ... ... ... : ... .. . ... ... ... : ... .. . ... ... ... : ... .. . ... ... ... : ... .. . ... ... ... : ... .. 5 ... ... ...
ROW 3D : B-3 01 . ... ... ... : ... .. . ... ... ... : ... .. . ... ... ... : ... .. . ... ... ... : ... .. . ... ... ... : ... .. . ... ... ...
ROW 3E : ... .. . ... ... ... : ... .. . ... ... ... : ... .. . ... ... ... : ... .. . ... ... ... : ... .. . ... ... ... : ... .. . ... ... ...
ROW 3F : ... .. . ... ... ... : ... .. . ... ... ... : --- .. . ... ... ... : ... .. . ... ... ... : ... .. . ... ... ... : ... .. 3 ... ... ...
ROW 40 : E-3 00 . ... ... ... : G#5 00 C ... ... ... : E-3 00 . ... ... ... : 9-# 01 A ... ... ... : A-1 05 . ... ... ... : E-3 04 7 I02 J43 ...
ROW 41 : E-3 03 . ... ... ... : G#5 01 . ... ... ... : E-2 00 . ... ... ... : A-# 00 7 ... ... ... : ... .. . ... ... ... : ... .. 6 ... ... ...
ROW 42 : E-3 02 . ... ... ... : G#5 02 . ... ... ... : ... .. . ... ... ... : ... .. 6 ... ... ... : ... .. . ... ... ... : ... .. 5 ... ... ...
ROW 43 : E-3 01 . ... ... ... : ... .. . ... ... ... : ... .. . ... ... ... : B-# 01 5 ... ... ... : ... .. . ... ... ... : ... .. . ... ... ...
ROW 44 : ... .. . ... ... ... : ... .. . ... ... ... : ... .. . ... ... ... : A-# 01 . ... ... ... : ... .. . ... ... ... : ... .. . ... ... ...
ROW 45 : ... .. . ... ... ... : ... .. . ... ... ... : ... .. . ... ... ... : B-# 00 . ... ... ... : ... .. . ... ... ... : ... .. 3 ... ... ...
ROW 46 : B-3 00 . ... ... ... : G-5 02 . P81 ... ... : ... .. . ... ... ... : ... .. . ... ... ... : A-1 05 . ... ... ... : ... .. 7 ... ... ...
ROW 47 : B-3 03 . ... ... ... : ... .. . P7E ... ... : ... .. . ... ... ... : ... .. . ... ... ... : ... .. . ... ... ... : ... .. 6 ... ... ...
ROW 48 : B-3 02 . ... ... ... : F#5 02 . P80 ... ... : ... .. . ... ... ... : ... .. 4 ... ... ... : ... .. . ... ... ... : ... .. 5 ... ... ...
ROW 49 : B-3 01 . ... ... ... : ... .. . ... ... ... : ... .. . ... ... ... : ... .. . ... ... ... : ... .. . ... ... ... : ... .. . ... ... ...
ROW 4A : ... .. . ... ... ... : ... .. . ... ... ... : --- .. . ... ... ... : ... .. 3 ... ... ... : ... .. . ... ... ... : ... .. . ... ... ...
ROW 4B : ... .. . ... ... ... : ... .. . ... ... ... : ... .. . ... ... ... : ... .. . ... ... ... : ... .. . ... ... ... : ... .. 3 ... ... ...
ROW 4C : E-4 00 . ... ... ... : ... .. . ... ... ... : E-3 00 . ... ... ... : 7-# 00 C ... ... ... : A-1 05 . ... ... ... : A-3 04 7 I03 J06 ...
ROW 4D : E-4 03 . ... ... ... : ... .. . ... ... ... : E-2 00 . ... ... ... : 3-# 00 8 ... ... ... : ... .. . ... ... ... : ... .. 6 ... ... ...
ROW 4E : E-4 02 . ... ... ... : ... .. . ... ... ... : ... .. . ... ... ... : 6-# 00 B ... ... ... : ... .. . ... ... ... : ... .. 5 ... ... ...
ROW 4F : E-4 01 . ... ... ... : ... .. . P81 ... ... : ... .. . ... ... ... : A-# 00 7 ... ... ... : ... .. . ... ... ... : ... .. . ... ... ...
ROW 50 : ... .. . ... ... ... : ... .. . P82 ... ... : ... .. . ... ... ... : B-# 00 8 ... ... ... : ... .. . ... ... ... : ... .. . ... ... ...
ROW 51 : ... .. . ... ... ... : G-5 02 . P7E ... ... : ... .. . ... ... ... : C-# 00 7 ... ... ... : ... .. . ... ... ... : ... .. 3 ... ... ...
ROW 52 : B-4 00 . ... ... ... : ... .. . P7F ... ... : ... .. . ... ... ... : 9-# 00 . ... ... ... : A-1 05 . ... ... ... : ... .. 7 ... ... ...
ROW 53 : B-4 03 . ... ... ... : ... .. . P80 ... ... : ... .. . ... ... ... : ... .. 6 ... ... ... : ... .. . ... ... ... : ... .. 6 ... ... ...
ROW 54 : B-4 02 . ... ... ... : ... .. . P81 ... ... : ... .. . ... ... ... : ... .. . ... ... ... : ... .. . ... ... ... : ... .. 5 ... ... ...
ROW 55 : B-4 01 . ... ... ... : ... .. . P82 ... ... : ... .. . ... ... ... : ... .. . ... ... ... : ... .. . ... ... ... : ... .. . ... ... ...
ROW 56 : ... .. . ... ... ... : G#5 02 . P7F ... ... : ... .. . ... ... ... : ... .. . ... ... ... : ... .. . ... ... ... : ... .. . ... ... ...
ROW 57 : ... .. . ... ... ... : ... .. . P80 ... ... : --- .. . ... ... ... : ... .. . ... ... ... : ... .. . ... ... ... : ... .. 3 ... ... ...
ROW 58 : G-5 00 . ... ... ... : A-5 02 . ... ... ... : G-3 00 . ... ... ... : 9-# 01 A ... ... ... : C-1 05 . ... ... ... : C-3 04 7 I01 JCB ...
ROW 59 : G-5 03 . ... ... ... : ... .. . ... ... ... : G-2 00 . ... ... ... : A-# 00 7 ... ... ... : ... .. . ... ... ... : ... .. 6 ... ... ...
ROW 5A : G-5 02 . ... ... ... : G#5 02 . ... ... ... : ... .. . ... ... ... : ... .. 6 ... ... ... : ... .. . ... ... ... : ... .. 5 ... ... ...
ROW 5B : G-5 01 . ... ... ... : G-5 02 . P82 ... ... : ... .. . ... ... ... : B-# 01 5 ... ... ... : ... .. . ... ... ... : ... .. . ... ... ...
ROW 5C : ... .. . ... ... ... : ... .. . P81 ... ... : ... .. . ... ... ... : A-# 01 . ... ... ... : ... .. . ... ... ... : ... .. . ... ... ...
ROW 5D : ... .. . ... ... ... : G#5 02 . P7F ... ... : ... .. . ... ... ... : B-# 00 . ... ... ... : ... .. . ... ... ... : ... .. 4 ... ... ...
ROW 5E : D-5 00 . ... ... ... : A-5 02 . ... ... ... : ... .. . ... ... ... : ... .. . ... ... ... : A#1 05 . ... ... ... : ... .. . ... ... ...
ROW 5F : D-5 03 . ... ... ... : ... .. . P80 ... ... : ... .. . ... ... ... : ... .. . ... ... ... : ... .. . ... ... ... : ... .. . ... ... ...
ROW 60 : D-5 02 . ... ... ... : G#5 02 . P81 ... ... : ... .. . ... ... ... : ... .. 4 ... ... ... : ... .. . ... ... ... : ... .. . ... ... ...
ROW 61 : D-5 01 . ... ... ... : ... .. . P7F ... ... : ... .. . ... ... ... : ... .. . ... ... ... : ... .. . ... ... ... : ... .. . ... ... ...
ROW 62 : ... .. . ... ... ... : G-5 02 . P81 ... ... : --- .. . ... ... ... : ... .. 3 ... ... ... : ... .. . ... ... ... : ... .. 3 ... ... ...
ROW 63 : ... .. . ... ... ... : ... .. . P82 ... ... : ... .. . ... ... ... : ... .. . ... ... ... : ... .. . ... ... ... : ... .. . ... ... ...
ROW 64 : G-4 00 . ... ... ... : G#5 02 . P7F ... ... : G-3 00 . ... ... ... : 7-# 00 C ... ... ... : A-1 05 . ... ... ... : ... .. 7 ... ... ...
ROW 65 : G-4 03 . ... ... ... : ... .. . P81 ... ... : G-2 00 . ... ... ... : 3-# 00 8 ... ... ... : ... .. . ... ... ... : ... .. 6 ... ... ...
ROW 66 : G-4 02 . ... ... ... : ... .. . P80 ... ... : ... .. . ... ... ... : 6-# 00 B ... ... ... : ... .. . ... ... ... : ... .. 5 ... ... ...
ROW 67 : G-4 01 . ... ... ... : G-5 02 . ... ... ... : ... .. . ... ... ... : A-# 00 7 ... ... ... : ... .. . ... ... ... : ... .. . ... ... ...
ROW 68 : ... .. . ... ... ... : F#5 02 . P82 ... ... : ... .. . ... ... ... : B-# 00 8 ... ... ... : ... .. . ... ... ... : ... .. . ... ... ...
ROW 69 : ... .. . ... ... ... : ... .. . ... ... ... : ... .. . ... ... ... : C-# 00 7 ... ... ... : ... .. . ... ... ... : ... .. 3 ... ... ...
ROW 6A : D-4 00 . ... ... ... : G-5 02 . P80 ... ... : ... .. . ... ... ... : 9-# 00 . ... ... ... : ... .. . ... ... ... : ... .. 7 ... ... ...
ROW 6B : D-4 03 . ... ... ... : ... .. . P82 ... ... : ... .. . ... ... ... : ... .. 6 ... ... ... : A#1 05 . ... ... ... : ... .. 6 ... ... ...
ROW 6C : D-4 02 . ... ... ... : A-5 01 6 P80 ... ... : ... .. . ... ... ... : ... .. . ... ... ... : ... .. . ... ... ... : ... .. 5 ... ... ...
ROW 6D : D-4 01 . ... ... ... : G#5 01 . P81 ... ... : ... .. . ... ... ... : ... .. . ... ... ... : ... .. . ... ... ... : ... .. . ... ... ...
ROW 6E : ... .. . ... ... ... : G-5 01 . P82 ... ... : ... .. . ... ... ... : ... .. . ... ... ... : ... .. . ... ... ... : ... .. . ... ... ...
ROW 6F : ... .. . ... ... ... : ... .. . P81 ... ... : --- .. . ... ... ... : ... .. . ... ... ... : ... .. . ... ... ... : ... .. 3 ... ... ...
ROW 70 : G-3 00 . ... ... ... : D-5 00 C P80 ... ... : G-3 00 . ... ... ... : 9-# 01 A ... ... ... : C-1 05 . ... ... ... : G-3 04 7 I02 JB2 ...
ROW 71 : G-3 03 . ... ... ... : D-5 01 . ... ... ... : G-2 00 . ... ... ... : A-# 00 7 ... ... ... : ... .. . ... ... ... : ... .. 6 ... ... ...
ROW 72 : G-3 02 . ... ... ... : D-5 02 . ... ... ... : ... .. . ... ... ... : ... .. 6 ... ... ... : ... .. . ... ... ... : ... .. 5 ... ... ...
ROW 73 : G-3 01 . ... ... ... : C#5 02 . P83 ... ... : ... .. . ... ... ... : B-# 01 5 ... ... ... : ... .. . ... ... ... : ... .. . ... ... ...
ROW 74 : ... .. . ... ... ... : ... .. . P80 ... ... : ... .. . ... ... ... : A-# 01 . ... ... ... : ... .. . ... ... ... : ... .. . ... ... ...
ROW 75 : ... .. . ... ... ... : C-5 02 . P83 ... ... : ... .. . ... ... ... : B-# 00 . ... ... ... : ... .. . ... ... ... : ... .. 3 ... ... ...
ROW 76 : D-4 00 . ... ... ... : C#5 02 . P7E ... ... : ... .. . ... ... ... : ... .. . ... ... ... : A#1 05 . ... ... ... : ... .. 7 ... ... ...
ROW 77 : D-4 03 . ... ... ... : ... .. . P7F ... ... : ... .. . ... ... ... : ... .. . ... ... ... : ... .. . ... ... ... : ... .. 6 ... ... ...
ROW 78 : D-4 02 . ... ... ... : ... .. . P80 ... ... : ... .. . ... ... ... : ... .. 4 ... ... ... : ... .. . ... ... ... : ... .. 5 ... ... ...
ROW 79 : D-4 01 . ... ... ... : ... .. . P81 ... ... : ... .. . ... ... ... : ... .. . ... ... ... : ... .. . ... ... ... : ... .. . ... ... ...
ROW 7A : ... .. . ... ... ... : ... .. . P82 ... ... : --- .. . ... ... ... : ... .. 3 ... ... ... : ... .. . ... ... ... : ... .. . ... ... ...
ROW 7B : ... .. . ... ... ... : ... .. . P83 ... ... : ... .. . ... ... ... : ... .. . ... ... ... : ... .. . ... ... ... : ... .. 3 ... ... ...
ROW 7C : G-4 00 . ... ... ... : D-5 02 . P7E ... ... : G-3 00 . ... ... ... : 7-# 00 C ... ... ... : A-1 05 . ... ... ... : C-4 04 7 I03 J99 ...
ROW 7D : G-4 03 . ... ... ... : ... .. . P7F ... ... : G-2 00 . ... ... ... : 3-# 00 8 ... ... ... : ... .. . ... ... ... : ... .. 6 ... ... ...
ROW 7E : G-4 02 . ... ... ... : ... .. . P80 ... ... : ... .. . ... ... ... : 6-# 00 B ... ... ... : ... .. . ... ... ... : ... .. 5 ... ... ...
ROW 7F : G-4 01 . ... ... ... : ... .. . ... ... ... : ... .. . ... ... ... : A-# 00 7 ... ... ... : ... .. . ... ... ... : ... .. . ... ... ...
ROW 80 : ... .. . ... ... ... : ... .. . ... ... ... : ... .. . ... ... ... : B-# 00 8 ... ... ... : ... .. . ... ... ... : ... .. . ... ... ...
ROW 81 : ... .. . ... ... ... : ... .. . ... ... ... : ... .. . ... ... ... : C-# 00 7 ... ... ... : ... .. . ... ... ... : ... .. 3 ... ... ...
ROW 82 : D-5 00 . ... ... ... : ... .. . ... ... ... : ... .. . ... ... ... : 9-# 00 . ... ... ... : ... .. . ... ... ... : ... .. 7 ... ... ...
ROW 83 : D-5 03 . ... ... ... : ... .. . ... ... ... : ... .. . ... ... ... : ... .. 6 ... ... ... : A#1 05 . ... ... ... : ... .. 6 ... ... ...
ROW 84 : D-5 02 . ... ... ... : ... .. . ... ... ... : ... .. . ... ... ... : ... .. . ... ... ... : ... .. . ... ... ... : ... .. 5 ... ... ...
ROW 85 : D-5 01 . ... ... ... : D#5 01 6 ... ... ... : ... .. . ... ... ... : ... .. . ... ... ... : ... .. . ... ... ... : ... .. . ... ... ...
ROW 86 : ... .. . ... ... ... : ... .. . ... ... ... : ... .. . ... ... ... : ... .. . ... ... ... : ... .. . ... ... ... : ... .. . ... ... ...
ROW 87 : ... .. . ... ... ... : ... .. . ... ... ... : --- .. . ... ... ... : ... .. . ... ... ... : ... .. . ... ... ... : ... .. 3 ... ... ...
ROW 88 : F-5 00 . ... ... ... : F-5 00 C ... ... ... : A#3 00 . ... ... ... : 9-# 01 A ... ... ... : C-1 05 . ... ... ... : D#3 04 7 I02 J22 ...
ROW 89 : F-5 03 . ... ... ... : F-5 01 . ... ... ... : A#2 00 . ... ... ... : A-# 00 7 ... ... ... : ... .. . ... ... ... : ... .. 6 ... ... ...
ROW 8A : F-5 02 . ... ... ... : F-5 02 . ... ... ... : ... .. . ... ... ... : ... .. 6 ... ... ... : ... .. . ... ... ... : ... .. 5 ... ... ...
ROW 8B : F-5 01 . ... ... ... : ... .. . ... ... ... : ... .. . ... ... ... : B-# 01 5 ... ... ... : ... .. . ... ... ... : ... .. . ... ... ...
ROW 8C : ... .. . ... ... ... : ... .. . ... ... ... : ... .. . ... ... ... : A-# 01 . ... ... ... : ... .. . ... ... ... : ... .. . ... ... ...
ROW 8D : ... .. . ... ... ... : D-5 01 6 ... ... ... : ... .. . ... ... ... : B-# 00 . ... ... ... : ... .. . ... ... ... : ... .. 4 ... ... ...
ROW 8E : A#4 00 . ... ... ... : C#5 00 C ... ... ... : ... .. . ... ... ... : ... .. . ... ... ... : A#1 05 . ... ... ... : ... .. . ... ... ...
ROW 8F : A#4 03 . ... ... ... : C#5 01 . ... ... ... : ... .. . ... ... ... : ... .. . ... ... ... : ... .. . ... ... ... : ... .. . ... ... ...
ROW 90 : A#4 02 . ... ... ... : C#5 02 . ... ... ... : ... .. . ... ... ... : ... .. 4 ... ... ... : ... .. . ... ... ... : ... .. . ... ... ...
ROW 91 : A#4 01 . ... ... ... : ... .. . ... ... ... : ... .. . ... ... ... : ... .. . ... ... ... : ... .. . ... ... ... : ... .. . ... ... ...
ROW 92 : ... .. . ... ... ... : ... .. . ... ... ... : --- .. . ... ... ... : ... .. 3 ... ... ... : ... .. . ... ... ... : ... .. 3 ... ... ...
ROW 93 : ... .. . ... ... ... : F-5 01 6 ... ... ... : ... .. . ... ... ... : ... .. . ... ... ... : ... .. . ... ... ... : ... .. . ... ... ...
ROW 94 : F-4 00 . ... ... ... : C-5 00 C ... ... ... : A#3 00 . ... ... ... : 7-# 00 C ... ... ... : A-1 05 . ... ... ... : ... .. 7 ... ... ...
ROW 95 : F-4 03 . ... ... ... : C-5 01 . ... ... ... : A#2 00 . ... ... ... : 3-# 00 8 ... ... ... : ... .. . ... ... ... : ... .. 6 ... ... ...
ROW 96 : F-4 02 . ... ... ... : C-5 02 . ... ... ... : ... .. . ... ... ... : 6-# 00 B ... ... ... : ... .. . ... ... ... : ... .. 5 ... ... ...
ROW 97 : F-4 01 . ... ... ... : ... .. . ... ... ... : ... .. . ... ... ... : A-# 00 7 ... ... ... : ... .. . ... ... ... : ... .. . ... ... ...
ROW 98 : ... .. . ... ... ... : ... .. . ... ... ... : ... .. . ... ... ... : B-# 00 8 ... ... ... : ... .. . ... ... ... : ... .. . ... ... ...
ROW 99 : ... .. . ... ... ... : C#5 01 6 ... ... ... : ... .. . ... ... ... : C-# 00 7 ... ... ... : ... .. . ... ... ... : ... .. 3 ... ... ...
ROW 9A : A#3 00 . ... ... ... : A#4 00 C ... ... ... : ... .. . ... ... ... : 9-# 00 . ... ... ... : ... .. . ... ... ... : ... .. 7 ... ... ...
ROW 9B : A#3 03 . ... ... ... : A#4 01 . ... ... ... : ... .. . ... ... ... : ... .. 6 ... ... ... : A#1 05 . ... ... ... : ... .. 6 ... ... ...
ROW 9C : A#3 02 . ... ... ... : A#4 02 . ... ... ... : ... .. . ... ... ... : ... .. . ... ... ... : ... .. . ... ... ... : ... .. 5 ... ... ...
ROW 9D : A#3 01 . ... ... ... : ... .. . ... ... ... : ... .. . ... ... ... : ... .. . ... ... ... : ... .. . ... ... ... : ... .. . ... ... ...
ROW 9E : ... .. . ... ... ... : ... .. . ... ... ... : ... .. . ... ... ... : ... .. . ... ... ... : ... .. . ... ... ... : ... .. . ... ... ...
ROW 9F : ... .. . ... ... ... : C-5 01 6 ... ... ... : --- .. . ... ... ... : ... .. . ... ... ... : ... .. . ... ... ... : ... .. 3 ... ... ...
ROW A0 : F-3 00 . ... ... ... : C-5 00 C ... ... ... : A#3 00 . ... ... ... : 9-# 01 A ... ... ... : C-1 05 . ... ... ... : A#3 04 7 I03 J33 ...
ROW A1 : F-3 03 . ... ... ... : C-5 01 . ... ... ... : A#2 00 . ... ... ... : A-# 00 7 ... ... ... : ... .. . ... ... ... : ... .. 6 ... ... ...
ROW A2 : F-3 02 . ... ... ... : C-5 02 . ... ... ... : ... .. . ... ... ... : ... .. 6 ... ... ... : ... .. . ... ... ... : ... .. 5 ... ... ...
ROW A3 : F-3 01 . ... ... ... : ... .. . ... ... ... : ... .. . ... ... ... : B-# 01 5 ... ... ... : ... .. . ... ... ... : ... .. . ... ... ...
ROW A4 : ... .. . ... ... ... : ... .. . ... ... ... : ... .. . ... ... ... : A-# 01 . ... ... ... : ... .. . ... ... ... : ... .. . ... ... ...
ROW A5 : ... .. . ... ... ... : A#4 01 6 ... ... ... : ... .. . ... ... ... : B-# 00 . ... ... ... : ... .. . ... ... ... : ... .. 3 ... ... ...
ROW A6 : A#3 00 . ... ... ... : A#4 00 C ... ... ... : ... .. . ... ... ... : ... .. . ... ... ... : A#1 05 . ... ... ... : ... .. 7 ... ... ...
ROW A7 : A#3 03 . ... ... ... : A#4 01 . ... ... ... : ... .. . ... ... ... : ... .. . ... ... ... : ... .. . ... ... ... : ... .. 6 ... ... ...
ROW A8 : A#3 02 . ... ... ... : A#4 02 . ... ... ... : ... .. . ... ... ... : ... .. 4 ... ... ... : ... .. . ... ... ... : ... .. 5 ... ... ...
ROW A9 : A#3 01 . ... ... ... : ... .. . ... ... ... : ... .. . ... ... ... : ... .. . ... ... ... : ... .. . ... ... ... : ... .. . ... ... ...
ROW AA : ... .. . ... ... ... : ... .. . ... ... ... : --- .. . ... ... ... : ... .. 3 ... ... ... : ... .. . ... ... ... : ... .. . ... ... ...
ROW AB : ... .. . ... ... ... : C-5 01 6 ... ... ... : ... .. . ... ... ... : ... .. . ... ... ... : ... .. . ... ... ... : ... .. 3 ... ... ...
ROW AC : F-4 00 . ... ... ... : G#4 00 C ... ... ... : A#3 00 . ... ... ... : 7-# 00 C ... ... ... : A-1 05 . ... ... ... : D#4 04 7 I04 J47 ...
ROW AD : F-4 03 . ... ... ... : G#4 01 . ... ... ... : A#2 00 . ... ... ... : 3-# 00 8 ... ... ... : ... .. . ... ... ... : ... .. 6 ... ... ...
ROW AE : F-4 02 . ... ... ... : G#4 02 . ... ... ... : ... .. . ... ... ... : 6-# 00 B ... ... ... : ... .. . ... ... ... : ... .. 5 ... ... ...
ROW AF : F-4 01 . ... ... ... : ... .. . ... ... ... : ... .. . ... ... ... : A-# 00 7 ... ... ... : ... .. . ... ... ... : ... .. . ... ... ...
ROW B0 : ... .. . ... ... ... : ... .. . ... ... ... : ... .. . ... ... ... : B-# 00 8 ... ... ... : ... .. . ... ... ... : ... .. . ... ... ...
ROW B1 : ... .. . ... ... ... : A#4 01 6 ... ... ... : ... .. . ... ... ... : C-# 00 7 ... ... ... : ... .. . ... ... ... : ... .. 3 ... ... ...
ROW B2 : A#4 00 . ... ... ... : F-4 00 C ... ... ... : ... .. . ... ... ... : 9-# 00 . ... ... ... : ... .. . ... ... ... : ... .. 7 ... ... ...
ROW B3 : A#4 03 . ... ... ... : F-4 01 . ... ... ... : ... .. . ... ... ... : ... .. 6 ... ... ... : A#1 05 . ... ... ... : ... .. 6 ... ... ...
ROW B4 : A#4 02 . ... ... ... : F-4 02 . ... ... ... : ... .. . ... ... ... : ... .. . ... ... ... : ... .. . ... ... ... : ... .. 5 ... ... ...
ROW B5 : A#4 01 . ... ... ... : ... .. . ... ... ... : ... .. . ... ... ... : ... .. . ... ... ... : ... .. . ... ... ... : ... .. . ... ... ...
ROW B6 : ... .. . ... ... ... : ... .. . ... ... ... : ... .. . ... ... ... : ... .. . ... ... ... : ... .. . ... ... ... : ... .. . ... ... ...
ROW B7 : ... .. . ... ... ... : G#4 01 6 ... ... ... : --- .. . ... ... ... : ... .. . ... ... ... : ... .. . ... ... ... : ... .. 3 ... ... ...
ROW B8 : C-5 00 . ... ... ... : F-4 00 C P83 ... ... : C-4 00 . ... ... ... : 9-# 01 A ... ... ... : C-1 05 . ... ... ... : F-3 04 7 I02 J67 ...
ROW B9 : C-5 03 . ... ... ... : F#4 01 . P7D ... ... : C-3 00 . ... ... ... : A-# 00 7 ... ... ... : ... .. . ... ... ... : ... .. 6 ... ... ...
ROW BA : C-5 02 . ... ... ... : F#4 02 . P80 ... ... : ... .. . ... ... ... : ... .. 6 ... ... ... : ... .. . ... ... ... : ... .. 5 ... ... ...
ROW BB : C-5 01 . ... ... ... : ... .. . P83 ... ... : ... .. . ... ... ... : B-# 01 5 ... ... ... : ... .. . ... ... ... : ... .. . ... ... ...
ROW BC : ... .. . ... ... ... : G-4 02 . P7E ... ... : ... .. . ... ... ... : A-# 01 . ... ... ... : ... .. . ... ... ... : ... .. . ... ... ...
ROW BD : ... .. . ... ... ... : ... .. . P80 ... ... : ... .. . ... ... ... : B-# 00 . ... ... ... : ... .. . ... ... ... : ... .. 4 ... ... ...
ROW BE : G-4 00 . ... ... ... : ... .. . P83 ... ... : ... .. . ... ... ... : ... .. . ... ... ... : A#1 05 . ... ... ... : ... .. . ... ... ...
ROW BF : G-4 03 . ... ... ... : ... .. . P84 ... ... : ... .. . ... ... ... : ... .. . ... ... ... : ... .. . ... ... ... : ... .. . ... ... ...
ROW C0 : G-4 02 . ... ... ... : ... .. . P83 ... ... : ... .. . ... ... ... : ... .. 4 ... ... ... : ... .. . ... ... ... : ... .. . ... ... ...
ROW C1 : G-4 01 . ... ... ... : ... .. . P80 ... ... : ... .. . ... ... ... : ... .. . ... ... ... : ... .. . ... ... ... : ... .. . ... ... ...
ROW C2 : ... .. . ... ... ... : ... .. . P7D ... ... : --- .. . ... ... ... : ... .. 3 ... ... ... : ... .. . ... ... ... : ... .. 3 ... ... ...
ROW C3 : ... .. . ... ... ... : F#4 02 . P84 ... ... : ... .. . ... ... ... : ... .. . ... ... ... : ... .. . ... ... ... : ... .. . ... ... ...
ROW C4 : C-4 00 . ... ... ... : G-4 02 . P7D ... ... : C-4 00 . ... ... ... : 7-# 00 C ... ... ... : A-1 05 . ... ... ... : ... .. 7 ... ... ...
ROW C5 : C-4 03 . ... ... ... : ... .. . P80 ... ... : C-3 00 . ... ... ... : 3-# 00 8 ... ... ... : ... .. . ... ... ... : ... .. 6 ... ... ...
ROW C6 : C-4 02 . ... ... ... : ... .. . P83 ... ... : ... .. . ... ... ... : 6-# 00 B ... ... ... : ... .. . ... ... ... : ... .. 5 ... ... ...
ROW C7 : C-4 01 . ... ... ... : ... .. . P84 ... ... : ... .. . ... ... ... : A-# 00 7 ... ... ... : ... .. . ... ... ... : ... .. . ... ... ...
ROW C8 : ... .. . ... ... ... : ... .. . P83 ... ... : ... .. . ... ... ... : B-# 00 8 ... ... ... : ... .. . ... ... ... : ... .. . ... ... ...
ROW C9 : ... .. . ... ... ... : ... .. . P80 ... ... : ... .. . ... ... ... : C-# 00 7 ... ... ... : ... .. . ... ... ... : ... .. 3 ... ... ...
ROW CA : G-3 00 . ... ... ... : D-5 00 . ... ... ... : ... .. . ... ... ... : 9-# 00 . ... ... ... : ... .. . ... ... ... : ... .. 7 ... ... ...
ROW CB : G-3 03 . ... ... ... : D-5 01 . ... ... ... : ... .. . ... ... ... : ... .. 6 ... ... ... : A#1 05 . ... ... ... : ... .. 6 ... ... ...
ROW CC : G-3 02 . ... ... ... : D-5 02 . ... ... ... : ... .. . ... ... ... : ... .. . ... ... ... : ... .. . ... ... ... : ... .. 5 ... ... ...
ROW CD : G-3 01 . ... ... ... : ... .. . ... ... ... : ... .. . ... ... ... : ... .. . ... ... ... : ... .. . ... ... ... : ... .. . ... ... ...
ROW CE : ... .. . ... ... ... : ... .. . ... ... ... : ... .. . ... ... ... : ... .. . ... ... ... : ... .. . ... ... ... : ... .. . ... ... ...
ROW CF : ... .. . ... ... ... : ... .. . ... ... ... : --- .. . ... ... ... : ... .. . ... ... ... : ... .. . ... ... ... : ... .. 3 ... ... ...
ROW D0 : C-3 00 . ... ... ... : ... .. . ... ... ... : C-4 00 . ... ... ... : 9-# 01 A ... ... ... : C-1 05 . ... ... ... : C-4 04 7 I03 J99 ...
ROW D1 : C-3 03 . ... ... ... : ... .. . ... ... ... : C-3 00 . ... ... ... : A-# 00 7 ... ... ... : ... .. . ... ... ... : ... .. 6 ... ... ...
ROW D2 : C-3 02 . ... ... ... : ... .. . ... ... ... : ... .. . ... ... ... : ... .. 6 ... ... ... : ... .. . ... ... ... : ... .. 5 ... ... ...
ROW D3 : C-3 01 . ... ... ... : ... .. . ... ... ... : ... .. . ... ... ... : B-# 01 5 ... ... ... : ... .. . ... ... ... : ... .. . ... ... ...
ROW D4 : ... .. . ... ... ... : ... .. . ... ... ... : ... .. . ... ... ... : A-# 01 . ... ... ... : ... .. . ... ... ... : ... .. . ... ... ...
ROW D5 : ... .. . ... ... ... : ... .. . ... ... ... : ... .. . ... ... ... : B-# 00 . ... ... ... : ... .. . ... ... ... : ... .. 3 ... ... ...
ROW D6 : G-3 00 . ... ... ... : ... .. . ... ... ... : ... .. . ... ... ... : ... .. . ... ... ... : A#1 05 . ... ... ... : ... .. 7 ... ... ...
ROW D7 : G-3 03 . ... ... ... : ... .. . ... ... ... : ... .. . ... ... ... : ... .. . ... ... ... : ... .. . ... ... ... : ... .. 6 ... ... ...
ROW D8 : G-3 02 . ... ... ... : G-4 01 6 ... ... ... : ... .. . ... ... ... : ... .. 4 ... ... ... : ... .. . ... ... ... : ... .. 5 ... ... ...
ROW D9 : G-3 01 . ... ... ... : ... .. . ... ... ... : ... .. . ... ... ... : ... .. . ... ... ... : ... .. . ... ... ... : ... .. . ... ... ...
ROW DA : ... .. . ... ... ... : D-5 01 . ... ... ... : --- .. . ... ... ... : ... .. 3 ... ... ... : ... .. . ... ... ... : ... .. . ... ... ...
ROW DB : ... .. . ... ... ... : ... .. . ... ... ... : ... .. . ... ... ... : ... .. . ... ... ... : ... .. . ... ... ... : ... .. 3 ... ... ...
ROW DC : C-4 00 . ... ... ... : D#5 00 C ... ... ... : C-4 00 . ... ... ... : 7-# 00 C ... ... ... : A-1 05 . ... ... ... : F-4 04 7 I04 JCB ...
ROW DD : C-4 03 . ... ... ... : D#5 01 . ... ... ... : C-3 00 . ... ... ... : 3-# 00 8 ... ... ... : ... .. . ... ... ... : ... .. 6 ... ... ...
ROW DE : C-4 02 . ... ... ... : D#5 02 . ... ... ... : ... .. . ... ... ... : 6-# 00 B ... ... ... : ... .. . ... ... ... : ... .. 5 ... ... ...
ROW DF : C-4 01 . ... ... ... : ... .. . ... ... ... : ... .. . ... ... ... : A-# 00 7 ... ... ... : ... .. . ... ... ... : ... .. . ... ... ...
ROW E0 : ... .. . ... ... ... : ... .. . ... ... ... : ... .. . ... ... ... : B-# 00 8 ... ... ... : ... .. . ... ... ... : ... .. . ... ... ...
ROW E1 : ... .. . ... ... ... : ... .. . ... ... ... : ... .. . ... ... ... : C-# 00 7 ... ... ... : ... .. . ... ... ... : ... .. 3 ... ... ...
ROW E2 : G-4 00 . ... ... ... : ... .. . ... ... ... : ... .. . ... ... ... : 9-# 00 . ... ... ... : ... .. . ... ... ... : ... .. 7 ... ... ...
ROW E3 : G-4 03 . ... ... ... : ... .. . ... ... ... : ... .. . ... ... ... : ... .. 6 ... ... ... : A#1 05 . ... ... ... : ... .. 6 ... ... ...
ROW E4 : G-4 02 . ... ... ... : ... .. . ... ... ... : ... .. . ... ... ... : ... .. . ... ... ... : ... .. . ... ... ... : ... .. 5 ... ... ...
ROW E5 : G-4 01 . ... ... ... : ... .. . ... ... ... : ... .. . ... ... ... : ... .. . ... ... ... : ... .. . ... ... ... : ... .. . ... ... ...
ROW E6 : ... .. . ... ... ... : ... .. . ... ... ... : ... .. . ... ... ... : ... .. . ... ... ... : ... .. . ... ... ... : ... .. . ... ... ...
ROW E7 : ... .. . ... ... ... : ... .. . ... ... ... : --- .. . ... ... ... : ... .. . ... ... ... : ... .. . ... ... ... : ... .. 3 ... ... ...
ROW E8 : D#5 00 . ... ... ... : D-5 00 . ... ... ... : D#3 00 . ... ... ... : 9-# 01 A ... ... ... : C-1 05 . ... ... ... : G#2 04 . I01 J6E ...
ROW E9 : D#5 03 . ... ... ... : D-5 01 . ... ... ... : D#2 00 . ... ... ... : A-# 00 7 ... ... ... : ... .. . ... ... ... : ... .. 6 ... ... ...
ROW EA : D#5 02 . ... ... ... : D-5 02 . ... ... ... : ... .. . ... ... ... : ... .. 6 ... ... ... : ... .. . ... ... ... : ... .. 5 ... ... ...
ROW EB : D#5 01 . ... ... ... : ... .. . ... ... ... : ... .. . ... ... ... : B-# 01 5 ... ... ... : ... .. . ... ... ... : ... .. . ... ... ...
ROW EC : ... .. . ... ... ... : ... .. . ... ... ... : ... .. . ... ... ... : A-# 01 . ... ... ... : ... .. . ... ... ... : ... .. . ... ... ...
ROW ED : ... .. . ... ... ... : ... .. . ... ... ... : ... .. . ... ... ... : B-# 00 . ... ... ... : ... .. . ... ... ... : ... .. 4 ... ... ...
ROW EE : A#4 00 . ... ... ... : ... .. . ... ... ... : ... .. . ... ... ... : ... .. . ... ... ... : C-1 05 . ... ... ... : ... .. . ... ... ...
ROW EF : A#4 03 . ... ... ... : ... .. . ... ... ... : ... .. . ... ... ... : ... .. . ... ... ... : ... .. . ... ... ... : ... .. . ... ... ...
ROW F0 : A#4 02 . ... ... ... : ... .. . ... ... ... : ... .. . ... ... ... : ... .. 4 ... ... ... : ... .. . ... ... ... : ... .. . ... ... ...
ROW F1 : A#4 01 . ... ... ... : D#5 01 6 ... ... ... : ... .. . ... ... ... : ... .. . ... ... ... : ... .. . ... ... ... : ... .. . ... ... ...
ROW F2 : ... .. . ... ... ... : ... .. . ... ... ... : --- .. . ... ... ... : ... .. 3 ... ... ... : ... .. . ... ... ... : ... .. 3 ... ... ...
ROW F3 : ... .. . ... ... ... : ... .. . ... ... ... : ... .. . ... ... ... : ... .. . ... ... ... : ... .. . ... ... ... : ... .. . ... ... ...
ROW F4 : D#4 00 . ... ... ... : C-5 00 C ... ... ... : D#3 00 . ... ... ... : 7-# 00 C ... ... ... : A-1 05 . ... ... ... : ... .. . ... ... ...
ROW F5 : D#4 03 . ... ... ... : C-5 01 . ... ... ... : D#2 00 . ... ... ... : 3-# 00 8 ... ... ... : ... .. . ... ... ... : ... .. 6 ... ... ...
ROW F6 : D#4 02 . ... ... ... : C-5 02 . ... ... ... : ... .. . ... ... ... : 6-# 00 B ... ... ... : ... .. . ... ... ... : ... .. 5 ... ... ...
ROW F7 : D#4 01 . ... ... ... : ... .. . ... ... ... : ... .. . ... ... ... : A-# 00 7 ... ... ... : ... .. . ... ... ... : ... .. . ... ... ...
ROW F8 : ... .. . ... ... ... : ... .. . ... ... ... : ... .. . ... ... ... : B-# 00 8 ... ... ... : ... .. . ... ... ... : ... .. . ... ... ...
ROW F9 : ... .. . ... ... ... : ... .. . ... ... ... : ... .. . ... ... ... : C-# 00 7 ... ... ... : ... .. . ... ... ... : ... .. 3 ... ... ...
ROW FA : A#3 00 . ... ... ... : ... .. . ... ... ... : ... .. . ... ... ... : 9-# 00 . ... ... ... : ... .. . ... ... ... : ... .. 7 ... ... ...
ROW FB : A#3 03 . ... ... ... : ... .. . ... ... ... : ... .. . ... ... ... : ... .. 6 ... ... ... : C-1 05 . ... ... ... : ... .. 6 ... ... ...
ROW FC : A#3 02 . ... ... ... : ... .. . ... ... ... : ... .. . ... ... ... : ... .. . ... ... ... : ... .. . ... ... ... : ... .. 5 ... ... ...
ROW FD : A#3 01 . ... ... ... : D-5 01 6 ... ... ... : ... .. . ... ... ... : ... .. . ... ... ... : ... .. . ... ... ... : ... .. . ... ... ...
ROW FE : ... .. . ... ... ... : ... .. . ... ... ... : ... .. . ... ... ... : ... .. . ... ... ... : ... .. . ... ... ... : ... .. . ... ... ...
ROW FF : ... .. . ... ... ... : ... .. . ... ... ... : --- .. . ... ... ... : ... .. . ... ... ... : ... .. . ... ... ... : ... .. 3 ... ... ...

PATTERN 14
ROW 00 : D#3 00 . ... ... ... : A#4 00 C ... ... ... : D#3 00 . ... ... ... : 9-# 01 A ... ... ... : A-1 05 . ... ... ... : D#3 04 7 I02 J22 ...
ROW 01 : D#3 03 . ... ... ... : A#4 01 . ... ... ... : D#2 00 . ... ... ... : A-# 00 7 ... ... ... : ... .. . ... ... ... : ... .. 6 ... ... ...
ROW 02 : D#3 02 . ... ... ... : A#4 02 . ... ... ... : ... .. . ... ... ... : ... .. 6 ... ... ... : ... .. . ... ... ... : ... .. 5 ... ... ...
ROW 03 : D#3 01 . ... ... ... : ... .. . ... ... ... : ... .. . ... ... ... : B-# 01 5 ... ... ... : ... .. . ... ... ... : ... .. . ... ... ...
ROW 04 : ... .. . ... ... ... : ... .. . ... ... ... : ... .. . ... ... ... : A-# 01 . ... ... ... : ... .. . ... ... ... : ... .. . ... ... ...
ROW 05 : ... .. . ... ... ... : ... .. . ... ... ... : ... .. . ... ... ... : B-# 00 . ... ... ... : ... .. . ... ... ... : ... .. 3 ... ... ...
ROW 06 : A#3 00 . ... ... ... : B-4 02 . P7E ... ... : ... .. . ... ... ... : ... .. . ... ... ... : A-1 05 . ... ... ... : ... .. 7 ... ... ...
ROW 07 : A#3 03 . ... ... ... : ... .. . P7F ... ... : ... .. . ... ... ... : ... .. . ... ... ... : ... .. . ... ... ... : ... .. 6 ... ... ...
ROW 08 : A#3 02 . ... ... ... : A#4 02 . P80 ... ... : ... .. . ... ... ... : ... .. 4 ... ... ... : ... .. . ... ... ... : ... .. 5 ... ... ...
ROW 09 : A#3 01 . ... ... ... : A-4 02 . P83 ... ... : ... .. . ... ... ... : ... .. . ... ... ... : ... .. . ... ... ... : ... .. . ... ... ...
ROW 0A : ... .. . ... ... ... : ... .. . P81 ... ... : --- .. . ... ... ... : ... .. 3 ... ... ... : ... .. . ... ... ... : ... .. . ... ... ...
ROW 0B : ... .. . ... ... ... : A#4 02 . P7E ... ... : ... .. . ... ... ... : ... .. . ... ... ... : ... .. . ... ... ... : ... .. 3 ... ... ...
ROW 0C : D#4 00 . ... ... ... : ... .. . P83 ... ... : D#3 00 . ... ... ... : 7-# 00 C ... ... ... : A-1 05 . ... ... ... : G#3 04 7 I02 JD9 ...
ROW 0D : D#4 03 . ... ... ... : B-4 02 . P7F ... ... : D#2 00 . ... ... ... : 3-# 00 8 ... ... ... : ... .. . ... ... ... : ... .. 6 ... ... ...
ROW 0E : D#4 02 . ... ... ... : A#4 02 . P83 ... ... : ... .. . ... ... ... : 6-# 00 B ... ... ... : ... .. . ... ... ... : ... .. 5 ... ... ...
ROW 0F : D#4 01 . ... ... ... : ... .. . P7E ... ... : ... .. . ... ... ... : A-# 00 7 ... ... ... : ... .. . ... ... ... : ... .. . ... ... ...
ROW 10 : ... .. . ... ... ... : A-4 02 . P81 ... ... : ... .. . ... ... ... : B-# 00 8 ... ... ... : ... .. . ... ... ... : ... .. . ... ... ...
ROW 11 : ... .. . ... ... ... : ... .. . P83 ... ... : ... .. . ... ... ... : C-# 00 7 ... ... ... : ... .. . ... ... ... : ... .. 3 ... ... ...
ROW 12 : A#4 00 . ... ... ... : A#4 02 . P81 ... ... : ... .. . ... ... ... : 9-# 00 . ... ... ... : A-1 05 . ... ... ... : ... .. 7 ... ... ...
ROW 13 : A#4 03 . ... ... ... : B-4 02 . P7F ... ... : ... .. . ... ... ... : ... .. 6 ... ... ... : ... .. . ... ... ... : ... .. 6 ... ... ...
ROW 14 : A#4 02 . ... ... ... : ... .. . P7E ... ... : ... .. . ... ... ... : ... .. . ... ... ... : ... .. . ... ... ... : ... .. 5 ... ... ...
ROW 15 : A#4 01 . ... ... ... : A#4 02 . P80 ... ... : ... .. . ... ... ... : ... .. . ... ... ... : ... .. . ... ... ... : ... .. . ... ... ...
ROW 16 : ... .. . ... ... ... : A-4 02 . P82 ... ... : ... .. . ... ... ... : ... .. . ... ... ... : ... .. . ... ... ... : ... .. . ... ... ...
ROW 17 : ... .. . ... ... ... : ... .. . P81 ... ... : --- .. . ... ... ... : ... .. . ... ... ... : ... .. . ... ... ... : ... .. 3 ... ... ...
ROW 18 : C#5 00 . ... ... ... : A#4 02 . P80 ... ... : F#3 00 . ... ... ... : A-# 00 F ... ... ... : C-1 05 . ... ... ... : B-2 04 7 I01 JB3 ...
ROW 19 : C#5 03 . ... ... ... : B-4 02 . P7D ... ... : F#2 00 . ... ... ... : 7-# 00 B ... ... ... : ... .. . ... ... ... : ... .. 6 ... ... ...
ROW 1A : C#5 02 . ... ... ... : ... .. . P7F ... ... : ... .. . ... ... ... : 8-# 00 E ... ... ... : ... .. . ... ... ... : ... .. 5 ... ... ...
ROW 1B : C#5 01 . ... ... ... : F#4 02 . P82 ... ... : ... .. . ... ... ... : 9-# 00 B ... ... ... : ... .. . ... ... ... : ... .. . ... ... ...
ROW 1C : ... .. . ... ... ... : D-4 02 . P85 ... ... : ... .. . ... ... ... : A-# 00 C ... ... ... : ... .. . ... ... ... : ... .. . ... ... ...
ROW 1D : ... .. . ... ... ... : C-4 02 . P7B ... ... : ... .. . ... ... ... : B-# 00 B ... ... ... : ... .. . ... ... ... : ... .. 4 ... ... ...
ROW 1E : F#4 00 . ... ... ... : A-3 02 . P87 ... ... : ... .. . ... ... ... : ... .. . ... ... ... : A#1 05 . ... ... ... : ... .. . ... ... ...
ROW 1F : F#4 03 . ... ... ... : G#3 02 . P7C ... ... : ... .. . ... ... ... : A-# 00 A ... ... ... : ... .. . ... ... ... : ... .. . ... ... ...
ROW 20 : F#4 02 . ... ... ... : G-3 02 . P86 ... ... : ... .. . ... ... ... : B-# 00 . ... ... ... : ... .. . ... ... ... : ... .. . ... ... ...
ROW 21 : F#4 01 . ... ... ... : G-3 01 6 P84 ... ... : ... .. . ... ... ... : ... .. 9 ... ... ... : ... .. . ... ... ... : ... .. . ... ... ...
ROW 22 : ... .. . ... ... ... : ... .. . P7F ... ... : --- .. . ... ... ... : ... .. . ... ... ... : ... .. . ... ... ... : ... .. 3 ... ... ...
ROW 23 : ... .. . ... ... ... : ... .. . P7A ... ... : ... .. . ... ... ... : ... .. . ... ... ... : ... .. . ... ... ... : ... .. . ... ... ...
ROW 24 : C#4 00 . ... ... ... : F#4 00 C P80 ... ... : F#3 00 . ... ... ... : ... .. . ... ... ... : A-1 05 . ... ... ... : ... .. 7 ... ... ...
ROW 25 : C#4 03 . ... ... ... : F#4 01 . ... ... ... : F#2 00 . ... ... ... : ... .. 8 ... ... ... : ... .. . ... ... ... : ... .. 6 ... ... ...
ROW 26 : C#4 02 . ... ... ... : F#4 02 . ... ... ... : ... .. . ... ... ... : ... .. . ... ... ... : ... .. . ... ... ... : ... .. 5 ... ... ...
ROW 27 : C#4 01 . ... ... ... : ... .. . ... ... ... : ... .. . ... ... ... : ... .. . ... ... ... : ... .. . ... ... ... : ... .. . ... ... ...
ROW 28 : ... .. . ... ... ... : ... .. 8 ... ... ... : ... .. . ... ... ... : ... .. . ... ... ... : ... .. . ... ... ... : ... .. . ... ... ...
ROW 29 : ... .. . ... ... ... : ... .. . ... ... ... : ... .. . ... ... ... : ... .. . ... ... ... : ... .. . ... ... ... : ... .. 3 ... ... ...
ROW 2A : F#3 00 . ... ... ... : G#4 00 C ... ... ... : ... .. . ... ... ... : ... .. 7 ... ... ... : ... .. . ... ... ... : ... .. 7 ... ... ...
ROW 2B : F#3 03 . ... ... ... : G#4 01 . ... ... ... : ... .. . ... ... ... : ... .. . ... ... ... : A#1 05 . ... ... ... : ... .. 6 ... ... ...
ROW 2C : F#3 02 . ... ... ... : G#4 02 . ... ... ... : ... .. . ... ... ... : ... .. . ... ... ... : ... .. . ... ... ... : ... .. 5 ... ... ...
ROW 2D : F#3 01 . ... ... ... : ... .. . ... ... ... : ... .. . ... ... ... : ... .. . ... ... ... : ... .. . ... ... ... : ... .. . ... ... ...
ROW 2E : ... .. . ... ... ... : ... .. 8 ... ... ... : ... .. . ... ... ... : ... .. . ... ... ... : ... .. . ... ... ... : ... .. . ... ... ...
ROW 2F : ... .. . ... ... ... : ... .. . ... ... ... : --- .. . ... ... ... : ... .. 6 ... ... ... : ... .. . ... ... ... : ... .. 3 ... ... ...
ROW 30 : C#3 00 . ... ... ... : A-4 00 C ... ... ... : F#3 00 . ... ... ... : 9-# 01 A ... ... ... : C-1 05 . ... ... ... : F#3 04 7 I02 J8B ...
ROW 31 : C#3 03 . ... ... ... : A-4 01 . ... ... ... : F#2 00 . ... ... ... : A-# 00 7 ... ... ... : ... .. . ... ... ... : ... .. 6 ... ... ...
ROW 32 : C#3 02 . ... ... ... : A-4 02 . ... ... ... : ... .. . ... ... ... : ... .. 6 ... ... ... : ... .. . ... ... ... : ... .. 5 ... ... ...
ROW 33 : C#3 01 . ... ... ... : ... .. . ... ... ... : ... .. . ... ... ... : B-# 01 5 ... ... ... : ... .. . ... ... ... : ... .. . ... ... ...
ROW 34 : ... .. . ... ... ... : ... .. . ... ... ... : ... .. . ... ... ... : A-# 01 . ... ... ... : ... .. . ... ... ... : ... .. . ... ... ...
ROW 35 : ... .. . ... ... ... : ... .. . ... ... ... : ... .. . ... ... ... : B-# 00 . ... ... ... : ... .. . ... ... ... : ... .. 3 ... ... ...
ROW 36 : F#3 00 . ... ... ... : ... .. . ... ... ... : ... .. . ... ... ... : ... .. . ... ... ... : A#1 05 . ... ... ... : ... .. 7 ... ... ...
ROW 37 : F#3 03 . ... ... ... : ... .. . ... ... ... : ... .. . ... ... ... : ... .. . ... ... ... : ... .. . ... ... ... : ... .. 6 ... ... ...
ROW 38 : F#3 02 . ... ... ... : ... .. . ... ... ... : ... .. . ... ... ... : ... .. 4 ... ... ... : ... .. . ... ... ... : ... .. 5 ... ... ...
ROW 39 : F#3 01 . ... ... ... : G#4 01 6 ... ... ... : ... .. . ... ... ... : ... .. . ... ... ... : ... .. . ... ... ... : ... .. . ... ... ...
ROW 3A : ... .. . ... ... ... : ... .. . ... ... ... : --- .. . ... ... ... : ... .. 3 ... ... ... : ... .. . ... ... ... : ... .. . ... ... ...
ROW 3B : ... .. . ... ... ... : ... .. . ... ... ... : ... .. . ... ... ... : ... .. . ... ... ... : ... .. . ... ... ... : ... .. 3 ... ... ...
ROW 3C : C#4 00 . ... ... ... : C#5 00 C ... ... ... : F#3 00 . ... ... ... : 7-# 00 C ... ... ... : A-1 05 . ... ... ... : B-3 04 7 I03 J63 ...
ROW 3D : C#4 03 . ... ... ... : C#5 01 . ... ... ... : F#2 00 . ... ... ... : 3-# 00 8 ... ... ... : ... .. . ... ... ... : ... .. 6 ... ... ...
ROW 3E : C#4 02 . ... ... ... : C#5 02 . ... ... ... : ... .. . ... ... ... : 6-# 00 B ... ... ... : ... .. . ... ... ... : ... .. 5 ... ... ...
ROW 3F : C#4 01 . ... ... ... : ... .. . ... ... ... : ... .. . ... ... ... : A-# 00 7 ... ... ... : ... .. . ... ... ... : ... .. . ... ... ...
ROW 40 : ... .. . ... ... ... : ... .. . ... ... ... : ... .. . ... ... ... : B-# 00 8 ... ... ... : ... .. . ... ... ... : ... .. . ... ... ...
ROW 41 : ... .. . ... ... ... : ... .. . ... ... ... : ... .. . ... ... ... : C-# 00 7 ... ... ... : ... .. . ... ... ... : ... .. 3 ... ... ...
ROW 42 : F#4 00 . ... ... ... : ... .. . ... ... ... : ... .. . ... ... ... : 9-# 00 . ... ... ... : ... .. . ... ... ... : ... .. 7 ... ... ...
ROW 43 : F#4 03 . ... ... ... : ... .. . ... ... ... : ... .. . ... ... ... : ... .. 6 ... ... ... : A#1 05 . ... ... ... : ... .. 6 ... ... ...
ROW 44 : F#4 02 . ... ... ... : ... .. . ... ... ... : ... .. . ... ... ... : ... .. . ... ... ... : ... .. . ... ... ... : ... .. 5 ... ... ...
ROW 45 : F#4 01 . ... ... ... : A-4 01 6 ... ... ... : ... .. . ... ... ... : ... .. . ... ... ... : ... .. . ... ... ... : ... .. . ... ... ...
ROW 46 : ... .. . ... ... ... : ... .. . ... ... ... : ... .. . ... ... ... : ... .. . ... ... ... : ... .. . ... ... ... : ... .. . ... ... ...
ROW 47 : ... .. . ... ... ... : ... .. . ... ... ... : --- .. . ... ... ... : ... .. . ... ... ... : ... .. . ... ... ... : ... .. 3 ... ... ...
ROW 48 : E-5 00 . ... ... ... : E-5 00 C ... ... ... : A-3 00 . ... ... ... : 9-# 01 A ... ... ... : C-1 05 . ... ... ... : D-3 04 7 I02 J04 ...
ROW 49 : E-5 03 . ... ... ... : E-5 01 . ... ... ... : A-2 00 . ... ... ... : A-# 00 7 ... ... ... : ... .. . ... ... ... : ... .. 6 ... ... ...
ROW 4A : E-5 02 . ... ... ... : E-5 02 . ... ... ... : ... .. . ... ... ... : ... .. 6 ... ... ... : ... .. . ... ... ... : ... .. 5 ... ... ...
ROW 4B : E-5 01 . ... ... ... : ... .. . ... ... ... : ... .. . ... ... ... : B-# 01 5 ... ... ... : ... .. . ... ... ... : ... .. . ... ... ...
ROW 4C : ... .. . ... ... ... : ... .. . ... ... ... : ... .. . ... ... ... : A-# 01 . ... ... ... : ... .. . ... ... ... : ... .. . ... ... ...
ROW 4D : ... .. . ... ... ... : ... .. . ... ... ... : ... .. . ... ... ... : B-# 00 . ... ... ... : ... .. . ... ... ... : ... .. 4 ... ... ...
ROW 4E : A-4 00 . ... ... ... : ... .. . ... ... ... : ... .. . ... ... ... : ... .. . ... ... ... : A#1 05 . ... ... ... : ... .. . ... ... ...
ROW 4F : A-4 03 . ... ... ... : ... .. . ... ... ... : ... .. . ... ... ... : ... .. . ... ... ... : ... .. . ... ... ... : ... .. . ... ... ...
ROW 50 : A-4 02 . ... ... ... : ... .. . ... ... ... : ... .. . ... ... ... : ... .. 4 ... ... ... : ... .. . ... ... ... : ... .. . ... ... ...
ROW 51 : A-4 01 . ... ... ... : ... .. . ... ... ... : ... .. . ... ... ... : ... .. . ... ... ... : ... .. . ... ... ... : ... .. . ... ... ...
ROW 52 : ... .. . ... ... ... : C#5 01 6 ... ... ... : --- .. . ... ... ... : ... .. 3 ... ... ... : ... .. . ... ... ... : ... .. 3 ... ... ...
ROW 53 : ... .. . ... ... ... : ... .. . ... ... ... : ... .. . ... ... ... : ... .. . ... ... ... : ... .. . ... ... ... : ... .. . ... ... ...
ROW 54 : E-4 00 . ... ... ... : C-5 00 C P81 ... ... : A-3 00 . ... ... ... : 7-# 00 C ... ... ... : A-1 05 . ... ... ... : ... .. 7 ... ... ...
ROW 55 : E-4 03 . ... ... ... : B-4 01 . P82 ... ... : A-2 00 . ... ... ... : 3-# 00 8 ... ... ... : ... .. . ... ... ... : ... .. 6 ... ... ...
ROW 56 : E-4 02 . ... ... ... : B-4 02 . P80 ... ... : ... .. . ... ... ... : 6-# 00 B ... ... ... : ... .. . ... ... ... : ... .. 5 ... ... ...
ROW 57 : E-4 01 . ... ... ... : ... .. . ... ... ... : ... .. . ... ... ... : A-# 00 7 ... ... ... : ... .. . ... ... ... : ... .. . ... ... ...
ROW 58 : ... .. . ... ... ... : ... .. . ... ... ... : ... .. . ... ... ... : B-# 00 8 ... ... ... : ... .. . ... ... ... : ... .. . ... ... ...
ROW 59 : ... .. . ... ... ... : ... .. . ... ... ... : ... .. . ... ... ... : C-# 00 7 ... ... ... : ... .. . ... ... ... : ... .. 3 ... ... ...
ROW 5A : A-3 00 . ... ... ... : ... .. . ... ... ... : ... .. . ... ... ... : 9-# 00 . ... ... ... : ... .. . ... ... ... : ... .. 7 ... ... ...
ROW 5B : A-3 03 . ... ... ... : ... .. . ... ... ... : ... .. . ... ... ... : ... .. 6 ... ... ... : A#1 05 . ... ... ... : ... .. 6 ... ... ...
ROW 5C : A-3 02 . ... ... ... : ... .. . ... ... ... : ... .. . ... ... ... : ... .. . ... ... ... : ... .. . ... ... ... : ... .. 5 ... ... ...
ROW 5D : A-3 01 . ... ... ... : ... .. . ... ... ... : ... .. . ... ... ... : ... .. . ... ... ... : ... .. . ... ... ... : ... .. . ... ... ...
ROW 5E : ... .. . ... ... ... : E-5 01 6 ... ... ... : ... .. . ... ... ... : ... .. . ... ... ... : ... .. . ... ... ... : ... .. . ... ... ...
ROW 5F : ... .. . ... ... ... : ... .. . ... ... ... : --- .. . ... ... ... : ... .. . ... ... ... : ... .. . ... ... ... : ... .. 3 ... ... ...
ROW 60 : E-3 00 . ... ... ... : E-5 00 C ... ... ... : A-3 00 . ... ... ... : 9-# 01 A ... ... ... : C-1 05 . ... ... ... : A-3 04 7 I03 J06 ...
ROW 61 : E-3 03 . ... ... ... : E-5 01 . ... ... ... : A-2 00 . ... ... ... : A-# 00 7 ... ... ... : ... .. . ... ... ... : ... .. 6 ... ... ...
ROW 62 : E-3 02 . ... ... ... : E-5 02 . ... ... ... : ... .. . ... ... ... : ... .. 6 ... ... ... : ... .. . ... ... ... : ... .. 5 ... ... ...
ROW 63 : E-3 01 . ... ... ... : ... .. . P81 ... ... : ... .. . ... ... ... : B-# 01 5 ... ... ... : ... .. . ... ... ... : ... .. . ... ... ...
ROW 64 : ... .. . ... ... ... : ... .. . P82 ... ... : ... .. . ... ... ... : A-# 01 . ... ... ... : ... .. . ... ... ... : ... .. . ... ... ...
ROW 65 : ... .. . ... ... ... : ... .. . P81 ... ... : ... .. . ... ... ... : B-# 00 . ... ... ... : ... .. . ... ... ... : ... .. 3 ... ... ...
ROW 66 : A-3 00 . ... ... ... : ... .. . P80 ... ... : ... .. . ... ... ... : ... .. . ... ... ... : A#1 05 . ... ... ... : ... .. 7 ... ... ...
ROW 67 : A-3 03 . ... ... ... : ... .. . P7F ... ... : ... .. . ... ... ... : ... .. . ... ... ... : ... .. . ... ... ... : ... .. 6 ... ... ...
ROW 68 : A-3 02 . ... ... ... : ... .. . P7E ... ... : ... .. . ... ... ... : ... .. 4 ... ... ... : ... .. . ... ... ... : ... .. 5 ... ... ...
ROW 69 : A-3 01 . ... ... ... : ... .. . P7F ... ... : ... .. . ... ... ... : ... .. . ... ... ... : ... .. . ... ... ... : ... .. . ... ... ...
ROW 6A : ... .. . ... ... ... : ... .. . P80 ... ... : --- .. . ... ... ... : ... .. 3 ... ... ... : ... .. . ... ... ... : ... .. . ... ... ...
ROW 6B : ... .. . ... ... ... : ... .. . P81 ... ... : ... .. . ... ... ... : ... .. . ... ... ... : ... .. . ... ... ... : ... .. 3 ... ... ...
ROW 6C : E-4 00 . ... ... ... : D#5 00 . P80 ... ... : A-3 00 . ... ... ... : 7-# 00 C ... ... ... : A-1 05 . ... ... ... : D-4 04 7 I04 J08 ...
ROW 6D : E-4 03 . ... ... ... : D#5 01 . ... ... ... : A-2 00 . ... ... ... : 3-# 00 8 ... ... ... : ... .. . ... ... ... : ... .. 6 ... ... ...
ROW 6E : E-4 02 . ... ... ... : D#5 02 . ... ... ... : ... .. . ... ... ... : 6-# 00 B ... ... ... : ... .. . ... ... ... : ... .. 5 ... ... ...
ROW 6F : E-4 01 . ... ... ... : ... .. . ... ... ... : ... .. . ... ... ... : A-# 00 7 ... ... ... : ... .. . ... ... ... : ... .. . ... ... ...
ROW 70 : ... .. . ... ... ... : ... .. . ... ... ... : ... .. . ... ... ... : B-# 00 8 ... ... ... : ... .. . ... ... ... : ... .. . ... ... ...
ROW 71 : ... .. . ... ... ... : E-5 01 6 ... ... ... : ... .. . ... ... ... : C-# 00 7 ... ... ... : ... .. . ... ... ... : ... .. 3 ... ... ...
ROW 72 : A-4 00 . ... ... ... : E-5 00 C ... ... ... : ... .. . ... ... ... : 9-# 00 . ... ... ... : ... .. . ... ... ... : ... .. 7 ... ... ...
ROW 73 : A-4 03 . ... ... ... : E-5 01 . ... ... ... : ... .. . ... ... ... : ... .. 6 ... ... ... : A#1 05 . ... ... ... : ... .. 6 ... ... ...
ROW 74 : A-4 02 . ... ... ... : E-5 02 . ... ... ... : ... .. . ... ... ... : ... .. . ... ... ... : ... .. . ... ... ... : ... .. 5 ... ... ...
ROW 75 : A-4 01 . ... ... ... : ... .. . ... ... ... : ... .. . ... ... ... : ... .. . ... ... ... : ... .. . ... ... ... : ... .. . ... ... ...
ROW 76 : ... .. . ... ... ... : ... .. . ... ... ... : ... .. . ... ... ... : ... .. . ... ... ... : ... .. . ... ... ... : ... .. . ... ... ...
ROW 77 : ... .. . ... ... ... : D#5 01 6 ... ... ... : --- .. . ... ... ... : ... .. . ... ... ... : ... .. . ... ... ... : ... .. 3 ... ... ...
ROW 78 : D-5 00 . ... ... ... : F-5 00 C ... ... ... : A#3 00 . ... ... ... : 9-# 01 A ... ... ... : C-1 05 . ... ... ... : D#3 04 7 I02 J22 ...
ROW 79 : D-5 03 . ... ... ... : F-5 01 . ... ... ... : A#2 00 . ... ... ... : A-# 00 7 ... ... ... : ... .. . ... ... ... : ... .. 6 ... ... ...
ROW 7A : D-5 02 . ... ... ... : F-5 02 . ... ... ... : ... .. . ... ... ... : ... .. 6 ... ... ... : ... .. . ... ... ... : ... .. 5 ... ... ...
ROW 7B : D-5 01 . ... ... ... : ... .. . ... ... ... : ... .. . ... ... ... : B-# 01 5 ... ... ... : ... .. . ... ... ... : ... .. . ... ... ...
ROW 7C : ... .. . ... ... ... : ... .. . ... ... ... : ... .. . ... ... ... : A-# 01 . ... ... ... : ... .. . ... ... ... : ... .. . ... ... ...
ROW 7D : ... .. . ... ... ... : ... .. . ... ... ... : ... .. . ... ... ... : B-# 00 . ... ... ... : ... .. . ... ... ... : ... .. 4 ... ... ...
ROW 7E : A#4 00 . ... ... ... : ... .. . ... ... ... : ... .. . ... ... ... : ... .. . ... ... ... : A#1 05 . ... ... ... : ... .. . ... ... ...
ROW 7F : A#4 03 . ... ... ... : ... .. . ... ... ... : ... .. . ... ... ... : ... .. . ... ... ... : ... .. . ... ... ... : ... .. . ... ... ...
ROW 80 : A#4 02 . ... ... ... : ... .. . ... ... ... : ... .. . ... ... ... : ... .. 4 ... ... ... : ... .. . ... ... ... : ... .. . ... ... ...
ROW 81 : A#4 01 . ... ... ... : ... .. . P82 ... ... : ... .. . ... ... ... : ... .. . ... ... ... : ... .. . ... ... ... : ... .. . ... ... ...
ROW 82 : ... .. . ... ... ... : F#5 02 . P80 ... ... : --- .. . ... ... ... : ... .. 3 ... ... ... : ... .. . ... ... ... : ... .. 3 ... ... ...
ROW 83 : ... .. . ... ... ... : ... .. . ... ... ... : ... .. . ... ... ... : ... .. . ... ... ... : ... .. . ... ... ... : ... .. . ... ... ...
ROW 84 : D-4 00 . ... ... ... : ... .. . ... ... ... : A#3 00 . ... ... ... : 7-# 00 C ... ... ... : A-1 05 . ... ... ... : ... .. 7 ... ... ...
ROW 85 : D-4 03 . ... ... ... : F-5 02 . P82 ... ... : A#2 00 . ... ... ... : 3-# 00 8 ... ... ... : ... .. . ... ... ... : ... .. 6 ... ... ...
ROW 86 : D-4 02 . ... ... ... : ... .. . P80 ... ... : ... .. . ... ... ... : 6-# 00 B ... ... ... : ... .. . ... ... ... : ... .. 5 ... ... ...
ROW 87 : D-4 01 . ... ... ... : ... .. . P7F ... ... : ... .. . ... ... ... : A-# 00 7 ... ... ... : ... .. . ... ... ... : ... .. . ... ... ...
ROW 88 : ... .. . ... ... ... : E-5 02 . P82 ... ... : ... .. . ... ... ... : B-# 00 8 ... ... ... : ... .. . ... ... ... : ... .. . ... ... ...
ROW 89 : ... .. . ... ... ... : ... .. . P81 ... ... : ... .. . ... ... ... : C-# 00 7 ... ... ... : ... .. . ... ... ... : ... .. 3 ... ... ...
ROW 8A : A#3 00 . ... ... ... : ... .. . ... ... ... : ... .. . ... ... ... : 9-# 00 . ... ... ... : ... .. . ... ... ... : ... .. 7 ... ... ...
ROW 8B : A#3 03 . ... ... ... : ... .. . P82 ... ... : ... .. . ... ... ... : ... .. 6 ... ... ... : A#1 05 . ... ... ... : ... .. 6 ... ... ...
ROW 8C : A#3 02 . ... ... ... : F-5 02 . P7F ... ... : ... .. . ... ... ... : ... .. . ... ... ... : ... .. . ... ... ... : ... .. 5 ... ... ...
ROW 8D : A#3 01 . ... ... ... : ... .. . P80 ... ... : ... .. . ... ... ... : ... .. . ... ... ... : ... .. . ... ... ... : ... .. . ... ... ...
ROW 8E : ... .. . ... ... ... : ... .. . P82 ... ... : ... .. . ... ... ... : ... .. . ... ... ... : ... .. . ... ... ... : ... .. . ... ... ...
ROW 8F : ... .. . ... ... ... : F#5 02 . P80 ... ... : --- .. . ... ... ... : ... .. . ... ... ... : ... .. . ... ... ... : ... .. 3 ... ... ...
ROW 90 : D-3 00 . ... ... ... : ... .. . ... ... ... : A#3 00 . ... ... ... : 9-# 01 A ... ... ... : A-1 05 . ... ... ... : A#3 04 7 I03 J33 ...
ROW 91 : D-3 03 . ... ... ... : ... .. . ... ... ... : A#2 00 . ... ... ... : A-# 00 7 ... ... ... : ... .. . ... ... ... : ... .. 6 ... ... ...
ROW 92 : D-3 02 . ... ... ... : F-5 02 . P82 ... ... : ... .. . ... ... ... : ... .. 6 ... ... ... : ... .. . ... ... ... : ... .. 5 ... ... ...
ROW 93 : D-3 01 . ... ... ... : ... .. . P80 ... ... : ... .. . ... ... ... : B-# 01 5 ... ... ... : ... .. . ... ... ... : ... .. . ... ... ...
ROW 94 : ... .. . ... ... ... : ... .. . P7F ... ... : ... .. . ... ... ... : A-# 01 . ... ... ... : ... .. . ... ... ... : ... .. . ... ... ...
ROW 95 : ... .. . ... ... ... : E-5 02 . P82 ... ... : ... .. . ... ... ... : B-# 00 . ... ... ... : ... .. . ... ... ... : ... .. 3 ... ... ...
ROW 96 : A#3 00 . ... ... ... : D-5 02 . P80 ... ... : ... .. . ... ... ... : ... .. . ... ... ... : ... .. . ... ... ... : ... .. 7 ... ... ...
ROW 97 : A#3 03 . ... ... ... : C-5 02 . P81 ... ... : ... .. . ... ... ... : ... .. . ... ... ... : C-1 05 . ... ... ... : ... .. 6 ... ... ...
ROW 98 : A#3 02 . ... ... ... : B-4 02 . P7D ... ... : ... .. . ... ... ... : ... .. 4 ... ... ... : ... .. . ... ... ... : ... .. 5 ... ... ...
ROW 99 : A#3 01 . ... ... ... : A-4 02 . P83 ... ... : ... .. . ... ... ... : ... .. . ... ... ... : ... .. . ... ... ... : ... .. . ... ... ...
ROW 9A : ... .. . ... ... ... : G#4 02 . P80 ... ... : --- .. . ... ... ... : ... .. 3 ... ... ... : ... .. . ... ... ... : ... .. . ... ... ...
ROW 9B : ... .. . ... ... ... : G-4 02 . ... ... ... : ... .. . ... ... ... : ... .. . ... ... ... : ... .. . ... ... ... : ... .. 3 ... ... ...
ROW 9C : D-4 00 . ... ... ... : F-5 00 . ... ... ... : A#3 00 . ... ... ... : 7-# 00 C ... ... ... : A-1 05 . ... ... ... : D#4 04 7 I04 J47 ...
ROW 9D : D-4 03 . ... ... ... : F-5 01 . ... ... ... : A#2 00 . ... ... ... : 3-# 00 8 ... ... ... : ... .. . ... ... ... : ... .. 6 ... ... ...
ROW 9E : D-4 02 . ... ... ... : F-5 02 . ... ... ... : ... .. . ... ... ... : 6-# 00 B ... ... ... : ... .. . ... ... ... : ... .. 5 ... ... ...
ROW 9F : D-4 01 . ... ... ... : ... .. . ... ... ... : ... .. . ... ... ... : A-# 00 7 ... ... ... : ... .. . ... ... ... : ... .. . ... ... ...
ROW A0 : ... .. . ... ... ... : ... .. . ... ... ... : ... .. . ... ... ... : B-# 00 8 ... ... ... : ... .. . ... ... ... : ... .. . ... ... ...
ROW A1 : ... .. . ... ... ... : ... .. . ... ... ... : ... .. . ... ... ... : C-# 00 7 ... ... ... : ... .. . ... ... ... : ... .. 3 ... ... ...
ROW A2 : A#4 00 . ... ... ... : ... .. . ... ... ... : ... .. . ... ... ... : 9-# 00 . ... ... ... : A-1 05 . ... ... ... : ... .. 7 ... ... ...
ROW A3 : A#4 03 . ... ... ... : E-5 01 6 ... ... ... : ... .. . ... ... ... : ... .. 6 ... ... ... : ... .. . ... ... ... : ... .. 6 ... ... ...
ROW A4 : A#4 02 . ... ... ... : ... .. . ... ... ... : ... .. . ... ... ... : ... .. . ... ... ... : ... .. . ... ... ... : ... .. 5 ... ... ...
ROW A5 : A#4 01 . ... ... ... : ... .. . ... ... ... : ... .. . ... ... ... : ... .. . ... ... ... : ... .. . ... ... ... : ... .. . ... ... ...
ROW A6 : ... .. . ... ... ... : ... .. . ... ... ... : ... .. . ... ... ... : ... .. . ... ... ... : ... .. . ... ... ... : ... .. . ... ... ...
ROW A7 : ... .. . ... ... ... : ... .. . ... ... ... : --- .. . ... ... ... : ... .. . ... ... ... : ... .. . ... ... ... : ... .. 3 ... ... ...
ROW A8 : D#5 00 . ... ... ... : F-5 00 C P81 ... ... : D#4 00 . ... ... ... : 9-# 01 A ... ... ... : E-1 05 . ... ... ... : G#3 04 7 I02 JD9 ...
ROW A9 : D#5 03 . ... ... ... : F-5 01 . P82 ... ... : D#3 00 . ... ... ... : A-# 00 7 ... ... ... : ... .. . ... ... ... : ... .. 6 ... ... ...
ROW AA : D#5 02 . ... ... ... : F#5 02 . P7F ... ... : ... .. . ... ... ... : ... .. 6 ... ... ... : ... .. . ... ... ... : ... .. 5 ... ... ...
ROW AB : D#5 01 . ... ... ... : ... .. . P80 ... ... : ... .. . ... ... ... : B-# 01 5 ... ... ... : ... .. . ... ... ... : ... .. . ... ... ...
ROW AC : ... .. . ... ... ... : ... .. . ... ... ... : ... .. . ... ... ... : A-# 01 . ... ... ... : ... .. . ... ... ... : ... .. . ... ... ...
ROW AD : ... .. . ... ... ... : ... .. . ... ... ... : ... .. . ... ... ... : B-# 00 . ... ... ... : ... .. . ... ... ... : ... .. 4 ... ... ...
ROW AE : A#4 00 . ... ... ... : ... .. . ... ... ... : ... .. . ... ... ... : ... .. . ... ... ... : E-1 05 . ... ... ... : ... .. . ... ... ...
ROW AF : A#4 03 . ... ... ... : ... .. . ... ... ... : ... .. . ... ... ... : ... .. . ... ... ... : ... .. . ... ... ... : ... .. . ... ... ...
ROW B0 : A#4 02 . ... ... ... : ... .. . ... ... ... : ... .. . ... ... ... : ... .. 4 ... ... ... : ... .. . ... ... ... : ... .. . ... ... ...
ROW B1 : A#4 01 . ... ... ... : G-5 02 . P7E ... ... : ... .. . ... ... ... : ... .. . ... ... ... : ... .. . ... ... ... : ... .. . ... ... ...
ROW B2 : ... .. . ... ... ... : ... .. . P7F ... ... : --- .. . ... ... ... : ... .. 3 ... ... ... : ... .. . ... ... ... : ... .. 3 ... ... ...
ROW B3 : ... .. . ... ... ... : ... .. . ... ... ... : ... .. . ... ... ... : ... .. . ... ... ... : ... .. . ... ... ... : ... .. . ... ... ...
ROW B4 : D#4 00 . ... ... ... : F#5 02 . P81 ... ... : D#4 00 . ... ... ... : 7-# 00 C ... ... ... : F-1 05 . ... ... ... : ... .. 7 ... ... ...
ROW B5 : D#4 03 . ... ... ... : ... .. . P7F ... ... : D#3 00 . ... ... ... : 3-# 00 8 ... ... ... : ... .. . ... ... ... : ... .. 6 ... ... ...
ROW B6 : D#4 02 . ... ... ... : F-5 02 . P80 ... ... : ... .. . ... ... ... : 6-# 00 B ... ... ... : ... .. . ... ... ... : ... .. 5 ... ... ...
ROW B7 : D#4 01 . ... ... ... : ... .. . ... ... ... : ... .. . ... ... ... : A-# 00 7 ... ... ... : ... .. . ... ... ... : ... .. . ... ... ...
ROW B8 : ... .. . ... ... ... : ... .. . P81 ... ... : ... .. . ... ... ... : B-# 00 8 ... ... ... : ... .. . ... ... ... : ... .. . ... ... ...
ROW B9 : ... .. . ... ... ... : F#5 02 . P80 ... ... : ... .. . ... ... ... : C-# 00 7 ... ... ... : ... .. . ... ... ... : ... .. 3 ... ... ...
ROW BA : A#3 00 . ... ... ... : ... .. . P82 ... ... : ... .. . ... ... ... : 9-# 00 . ... ... ... : F-1 05 . ... ... ... : ... .. 7 ... ... ...
ROW BB : A#3 03 . ... ... ... : G-5 02 . P7F ... ... : ... .. . ... ... ... : ... .. 6 ... ... ... : ... .. . ... ... ... : ... .. 6 ... ... ...
ROW BC : A#3 02 . ... ... ... : ... .. . ... ... ... : ... .. . ... ... ... : ... .. . ... ... ... : ... .. . ... ... ... : ... .. 5 ... ... ...
ROW BD : A#3 01 . ... ... ... : F#5 02 . P81 ... ... : ... .. . ... ... ... : ... .. . ... ... ... : ... .. . ... ... ... : ... .. . ... ... ...
ROW BE : ... .. . ... ... ... : ... .. . P80 ... ... : ... .. . ... ... ... : ... .. . ... ... ... : ... .. . ... ... ... : ... .. . ... ... ...
ROW BF : ... .. . ... ... ... : F-5 02 . P81 ... ... : --- .. . ... ... ... : ... .. . ... ... ... : ... .. . ... ... ... : ... .. 3 ... ... ...
ROW C0 : D#3 00 . ... ... ... : ... .. . P80 ... ... : D#4 00 . ... ... ... : 9-# 01 A ... ... ... : F#1 05 . ... ... ... : D#4 04 7 I04 J47 ...
ROW C1 : D#3 03 . ... ... ... : ... .. . P81 ... ... : D#3 00 . ... ... ... : A-# 00 7 ... ... ... : ... .. . ... ... ... : ... .. 6 ... ... ...
ROW C2 : D#3 02 . ... ... ... : F#5 02 . P80 ... ... : ... .. . ... ... ... : ... .. 6 ... ... ... : ... .. . ... ... ... : ... .. 5 ... ... ...
ROW C3 : D#3 01 . ... ... ... : ... .. . P82 ... ... : ... .. . ... ... ... : B-# 01 5 ... ... ... : ... .. . ... ... ... : ... .. . ... ... ...
ROW C4 : ... .. . ... ... ... : G-5 02 . P7F ... ... : ... .. . ... ... ... : A-# 01 . ... ... ... : ... .. . ... ... ... : ... .. . ... ... ...
ROW C5 : ... .. . ... ... ... : ... .. . ... ... ... : ... .. . ... ... ... : B-# 00 . ... ... ... : ... .. . ... ... ... : ... .. 3 ... ... ...
ROW C6 : A#3 00 . ... ... ... : F#5 02 . P82 ... ... : ... .. . ... ... ... : ... .. . ... ... ... : ... .. . ... ... ... : ... .. 7 ... ... ...
ROW C7 : A#3 03 . ... ... ... : ... .. . P80 ... ... : ... .. . ... ... ... : ... .. . ... ... ... : ... .. . ... ... ... : ... .. 6 ... ... ...
ROW C8 : A#3 02 . ... ... ... : F-5 02 . P81 ... ... : ... .. . ... ... ... : ... .. 4 ... ... ... : ... .. . ... ... ... : ... .. 5 ... ... ...
ROW C9 : A#3 01 . ... ... ... : ... .. . P80 ... ... : ... .. . ... ... ... : ... .. . ... ... ... : ... .. . ... ... ... : ... .. . ... ... ...
ROW CA : ... .. . ... ... ... : ... .. . P81 ... ... : --- .. . ... ... ... : ... .. 3 ... ... ... : ... .. . ... ... ... : ... .. . ... ... ...
ROW CB : ... .. . ... ... ... : F#5 02 . P80 ... ... : ... .. . ... ... ... : ... .. . ... ... ... : ... .. . ... ... ... : ... .. 3 ... ... ...
ROW CC : D#4 00 . ... ... ... : F-5 00 . ... ... ... : D#4 00 . ... ... ... : 7-# 00 C ... ... ... : F#1 05 . ... ... ... : G#4 04 7 I05 JB5 ...
ROW CD : D#4 03 . ... ... ... : F-5 01 . ... ... ... : D#3 00 . ... ... ... : 3-# 00 8 ... ... ... : ... .. . ... ... ... : ... .. 6 ... ... ...
ROW CE : D#4 02 . ... ... ... : F-5 02 . ... ... ... : ... .. . ... ... ... : 6-# 00 B ... ... ... : ... .. . ... ... ... : ... .. 5 ... ... ...
ROW CF : D#4 01 . ... ... ... : ... .. . ... ... ... : ... .. . ... ... ... : A-# 00 7 ... ... ... : ... .. . ... ... ... : ... .. . ... ... ...
ROW D0 : ... .. . ... ... ... : ... .. . ... ... ... : ... .. . ... ... ... : B-# 00 8 ... ... ... : ... .. . ... ... ... : ... .. . ... ... ...
ROW D1 : ... .. . ... ... ... : ... .. . ... ... ... : ... .. . ... ... ... : C-# 00 7 ... ... ... : ... .. . ... ... ... : ... .. 3 ... ... ...
ROW D2 : A#4 00 . ... ... ... : ... .. . ... ... ... : ... .. . ... ... ... : 9-# 00 . ... ... ... : F#1 05 . ... ... ... : ... .. 7 ... ... ...
ROW D3 : A#4 03 . ... ... ... : F#5 01 6 ... ... ... : ... .. . ... ... ... : ... .. 6 ... ... ... : ... .. . ... ... ... : ... .. 6 ... ... ...
ROW D4 : A#4 02 . ... ... ... : ... .. . ... ... ... : ... .. . ... ... ... : ... .. . ... ... ... : ... .. . ... ... ... : ... .. 5 ... ... ...
ROW D5 : A#4 01 . ... ... ... : ... .. . ... ... ... : ... .. . ... ... ... : ... .. . ... ... ... : ... .. . ... ... ... : ... .. . ... ... ...
ROW D6 : ... .. . ... ... ... : ... .. . ... ... ... : ... .. . ... ... ... : ... .. . ... ... ... : ... .. . ... ... ... : ... .. . ... ... ...
ROW D7 : ... .. . ... ... ... : ... .. . ... ... ... : --- .. . ... ... ... : ... .. . ... ... ... : ... .. . ... ... ... : ... .. 3 ... ... ...
ROW D8 : C#5 00 . ... ... ... : E-5 00 C ... ... ... : C#4 00 . ... ... ... : 9-# 01 A ... ... ... : C-1 05 . ... ... ... : F#3 04 7 I02 J8B ...
ROW D9 : C#5 03 . ... ... ... : E-5 01 . ... ... ... : C#3 00 . ... ... ... : A-# 00 7 ... ... ... : ... .. . ... ... ... : ... .. 6 ... ... ...
ROW DA : C#5 02 . ... ... ... : E-5 02 . ... ... ... : ... .. . ... ... ... : ... .. 6 ... ... ... : ... .. . ... ... ... : ... .. 5 ... ... ...
ROW DB : C#5 01 . ... ... ... : ... .. . ... ... ... : ... .. . ... ... ... : B-# 01 5 ... ... ... : ... .. . ... ... ... : ... .. . ... ... ...
ROW DC : ... .. . ... ... ... : ... .. . ... ... ... : ... .. . ... ... ... : A-# 01 . ... ... ... : ... .. . ... ... ... : ... .. . ... ... ...
ROW DD : ... .. . ... ... ... : ... .. . ... ... ... : ... .. . ... ... ... : B-# 00 . ... ... ... : ... .. . ... ... ... : ... .. 4 ... ... ...
ROW DE : F#4 00 . ... ... ... : ... .. . ... ... ... : ... .. . ... ... ... : ... .. . ... ... ... : A#1 05 . ... ... ... : ... .. . ... ... ...
ROW DF : F#4 03 . ... ... ... : F-5 01 6 ... ... ... : ... .. . ... ... ... : ... .. . ... ... ... : ... .. . ... ... ... : ... .. . ... ... ...
ROW E0 : F#4 02 . ... ... ... : ... .. . ... ... ... : ... .. . ... ... ... : ... .. 4 ... ... ... : ... .. . ... ... ... : ... .. . ... ... ...
ROW E1 : F#4 01 . ... ... ... : ... .. . ... ... ... : ... .. . ... ... ... : ... .. . ... ... ... : ... .. . ... ... ... : ... .. . ... ... ...
ROW E2 : ... .. . ... ... ... : ... .. . ... ... ... : --- .. . ... ... ... : ... .. 3 ... ... ... : ... .. . ... ... ... : ... .. 3 ... ... ...
ROW E3 : ... .. . ... ... ... : ... .. . ... ... ... : ... .. . ... ... ... : ... .. . ... ... ... : ... .. . ... ... ... : ... .. . ... ... ...
ROW E4 : C#4 00 . ... ... ... : B-4 00 C ... ... ... : C#4 00 . ... ... ... : 7-# 00 C ... ... ... : A-1 05 . ... ... ... : ... .. 7 ... ... ...
ROW E5 : C#4 03 . ... ... ... : B-4 01 . ... ... ... : C#3 00 . ... ... ... : 3-# 00 8 ... ... ... : ... .. . ... ... ... : ... .. 6 ... ... ...
ROW E6 : C#4 02 . ... ... ... : B-4 02 . ... ... ... : ... .. . ... ... ... : 6-# 00 B ... ... ... : ... .. . ... ... ... : ... .. 5 ... ... ...
ROW E7 : C#4 01 . ... ... ... : ... .. . ... ... ... : ... .. . ... ... ... : A-# 00 7 ... ... ... : ... .. . ... ... ... : ... .. . ... ... ...
ROW E8 : ... .. . ... ... ... : ... .. . ... ... ... : ... .. . ... ... ... : B-# 00 8 ... ... ... : ... .. . ... ... ... : ... .. . ... ... ...
ROW E9 : ... .. . ... ... ... : ... .. . ... ... ... : ... .. . ... ... ... : C-# 00 7 ... ... ... : ... .. . ... ... ... : ... .. 3 ... ... ...
ROW EA : F#3 00 . ... ... ... : ... .. . ... ... ... : ... .. . ... ... ... : 9-# 00 . ... ... ... : ... .. . ... ... ... : ... .. 7 ... ... ...
ROW EB : F#3 03 . ... ... ... : ... .. . ... ... ... : ... .. . ... ... ... : ... .. 6 ... ... ... : A#1 05 . ... ... ... : ... .. 6 ... ... ...
ROW EC : F#3 02 . ... ... ... : E-5 01 6 ... ... ... : ... .. . ... ... ... : ... .. . ... ... ... : ... .. . ... ... ... : ... .. 5 ... ... ...
ROW ED : F#3 01 . ... ... ... : ... .. . ... ... ... : ... .. . ... ... ... : ... .. . ... ... ... : ... .. . ... ... ... : ... .. . ... ... ...
ROW EE : ... .. . ... ... ... : ... .. . ... ... ... : ... .. . ... ... ... : ... .. . ... ... ... : ... .. . ... ... ... : ... .. . ... ... ...
ROW EF : ... .. . ... ... ... : ... .. . ... ... ... : --- .. . ... ... ... : ... .. . ... ... ... : ... .. . ... ... ... : ... .. 3 ... ... ...
ROW F0 : C#3 00 . ... ... ... : C#5 00 C ... ... ... : C#4 00 . ... ... ... : 9-# 01 A ... ... ... : C-1 05 . ... ... ... : C#4 04 7 I03 JCF ...
ROW F1 : C#3 03 . ... ... ... : C#5 01 . ... ... ... : C#3 00 . ... ... ... : A-# 00 7 ... ... ... : ... .. . ... ... ... : ... .. 6 ... ... ...
ROW F2 : C#3 02 . ... ... ... : C#5 02 . ... ... ... : ... .. . ... ... ... : ... .. 6 ... ... ... : ... .. . ... ... ... : ... .. 5 ... ... ...
ROW F3 : C#3 01 . ... ... ... : ... .. . ... ... ... : ... .. . ... ... ... : B-# 01 5 ... ... ... : ... .. . ... ... ... : ... .. . ... ... ...
ROW F4 : ... .. . ... ... ... : ... .. . ... ... ... : ... .. . ... ... ... : A-# 01 . ... ... ... : ... .. . ... ... ... : ... .. . ... ... ...
ROW F5 : ... .. . ... ... ... : ... .. . ... ... ... : ... .. . ... ... ... : B-# 00 . ... ... ... : ... .. . ... ... ... : ... .. 3 ... ... ...
ROW F6 : F#3 00 . ... ... ... : ... .. . ... ... ... : ... .. . ... ... ... : ... .. . ... ... ... : A#1 05 . ... ... ... : ... .. 7 ... ... ...
ROW F7 : F#3 03 . ... ... ... : ... .. . ... ... ... : ... .. . ... ... ... : ... .. . ... ... ... : ... .. . ... ... ... : ... .. 6 ... ... ...
ROW F8 : F#3 02 . ... ... ... : B-4 01 6 ... ... ... : ... .. . ... ... ... : ... .. 4 ... ... ... : ... .. . ... ... ... : ... .. 5 ... ... ...
ROW F9 : F#3 01 . ... ... ... : ... .. . ... ... ... : ... .. . ... ... ... : ... .. . ... ... ... : ... .. . ... ... ... : ... .. . ... ... ...
ROW FA : ... .. . ... ... ... : ... .. . ... ... ... : --- .. . ... ... ... : ... .. 3 ... ... ... : ... .. . ... ... ... : ... .. . ... ... ...
ROW FB : ... .. . ... ... ... : ... .. . ... ... ... : ... .. . ... ... ... : ... .. . ... ... ... : ... .. . ... ... ... : ... .. 3 ... ... ...
ROW FC : C#4 00 . ... ... ... : E-5 00 C ... ... ... : C#4 00 . ... ... ... : 7-# 00 C ... ... ... : A-1 05 . ... ... ... : F#4 04 7 I05 J16 ...
ROW FD : C#4 03 . ... ... ... : E-5 01 . ... ... ... : C#3 00 . ... ... ... : 3-# 00 8 ... ... ... : ... .. . ... ... ... : ... .. 6 ... ... ...
ROW FE : C#4 02 . ... ... ... : E-5 02 . ... ... ... : ... .. . ... ... ... : 6-# 00 B ... ... ... : ... .. . ... ... ... : ... .. 5 ... ... ...
ROW FF : C#4 01 . ... ... ... : ... .. . ... ... ... : ... .. . ... ... ... : A-# 00 7 ... ... ... : ... .. . ... ... ... : ... .. . ... ... ...

PATTERN 15
ROW 00 : ... .. . ... ... ... : ... .. . ... ... ... : ... .. . ... ... ... : B-# 00 8 ... ... ... : ... .. . ... ... ... : ... .. . ... ... ...
ROW 01 : ... .. . ... ... ... : ... .. . ... ... ... : ... .. . ... ... ... : C-# 00 7 ... ... ... : ... .. . ... ... ... : ... .. 3 ... ... ...
ROW 02 : F#4 00 . ... ... ... : ... .. . ... ... ... : ... .. . ... ... ... : 9-# 00 . ... ... ... : ... .. . ... ... ... : ... .. 7 ... ... ...
ROW 03 : F#4 03 . ... ... ... : ... .. . ... ... ... : ... .. . ... ... ... : ... .. 6 ... ... ... : A#1 05 . ... ... ... : ... .. 6 ... ... ...
ROW 04 : F#4 02 . ... ... ... : ... .. . ... ... ... : ... .. . ... ... ... : ... .. . ... ... ... : ... .. . ... ... ... : ... .. 5 ... ... ...
ROW 05 : F#4 01 . ... ... ... : C#5 01 6 ... ... ... : ... .. . ... ... ... : ... .. . ... ... ... : ... .. . ... ... ... : ... .. . ... ... ...
ROW 06 : ... .. . ... ... ... : ... .. . ... ... ... : ... .. . ... ... ... : ... .. . ... ... ... : ... .. . ... ... ... : ... .. . ... ... ...
ROW 07 : ... .. . ... ... ... : ... .. . ... ... ... : --- .. . ... ... ... : ... .. . ... ... ... : ... .. . ... ... ... : ... .. 3 ... ... ...
ROW 08 : C#5 00 . ... ... ... : D#5 00 C ... ... ... : A-3 00 . ... ... ... : 9-# 01 A ... ... ... : C-1 05 . ... ... ... : D-3 04 7 I02 J04 ...
ROW 09 : C#5 03 . ... ... ... : D#5 01 . ... ... ... : A-2 00 . ... ... ... : A-# 00 7 ... ... ... : ... .. . ... ... ... : ... .. 6 ... ... ...
ROW 0A : C#5 02 . ... ... ... : D#5 02 . ... ... ... : ... .. . ... ... ... : ... .. 6 ... ... ... : ... .. . ... ... ... : ... .. 5 ... ... ...
ROW 0B : C#5 01 . ... ... ... : ... .. . ... ... ... : ... .. . ... ... ... : B-# 01 5 ... ... ... : ... .. . ... ... ... : ... .. . ... ... ...
ROW 0C : ... .. . ... ... ... : ... .. . ... ... ... : ... .. . ... ... ... : A-# 01 . ... ... ... : ... .. . ... ... ... : ... .. . ... ... ...
ROW 0D : ... .. . ... ... ... : ... .. . ... ... ... : ... .. . ... ... ... : B-# 00 . ... ... ... : ... .. . ... ... ... : ... .. 4 ... ... ...
ROW 0E : E-4 00 . ... ... ... : ... .. . ... ... ... : ... .. . ... ... ... : ... .. . ... ... ... : A#1 05 . ... ... ... : ... .. . ... ... ...
ROW 0F : E-4 03 . ... ... ... : ... .. . ... ... ... : ... .. . ... ... ... : ... .. . ... ... ... : ... .. . ... ... ... : ... .. . ... ... ...
ROW 10 : E-4 02 . ... ... ... : ... .. . ... ... ... : ... .. . ... ... ... : ... .. 4 ... ... ... : ... .. . ... ... ... : ... .. . ... ... ...
ROW 11 : E-4 01 . ... ... ... : E-5 01 6 ... ... ... : ... .. . ... ... ... : ... .. . ... ... ... : ... .. . ... ... ... : ... .. . ... ... ...
ROW 12 : ... .. . ... ... ... : ... .. . ... ... ... : --- .. . ... ... ... : ... .. 3 ... ... ... : ... .. . ... ... ... : ... .. 3 ... ... ...
ROW 13 : ... .. . ... ... ... : ... .. . ... ... ... : ... .. . ... ... ... : ... .. . ... ... ... : ... .. . ... ... ... : ... .. . ... ... ...
ROW 14 : C#4 00 . ... ... ... : A-4 00 C ... ... ... : A-3 00 . ... ... ... : 7-# 00 C ... ... ... : A-1 05 . ... ... ... : ... .. 7 ... ... ...
ROW 15 : C#4 03 . ... ... ... : A-4 01 . ... ... ... : A-2 00 . ... ... ... : 3-# 00 8 ... ... ... : ... .. . ... ... ... : ... .. 6 ... ... ...
ROW 16 : C#4 02 . ... ... ... : A-4 02 . ... ... ... : ... .. . ... ... ... : 6-# 00 B ... ... ... : ... .. . ... ... ... : ... .. 5 ... ... ...
ROW 17 : C#4 01 . ... ... ... : ... .. . ... ... ... : ... .. . ... ... ... : A-# 00 7 ... ... ... : ... .. . ... ... ... : ... .. . ... ... ...
ROW 18 : ... .. . ... ... ... : ... .. . ... ... ... : ... .. . ... ... ... : B-# 00 8 ... ... ... : ... .. . ... ... ... : ... .. . ... ... ...
ROW 19 : ... .. . ... ... ... : ... .. . ... ... ... : ... .. . ... ... ... : C-# 00 7 ... ... ... : ... .. . ... ... ... : ... .. 3 ... ... ...
ROW 1A : E-3 00 . ... ... ... : ... .. . ... ... ... : ... .. . ... ... ... : 9-# 00 . ... ... ... : ... .. . ... ... ... : ... .. 7 ... ... ...
ROW 1B : E-3 03 . ... ... ... : ... .. . ... ... ... : ... .. . ... ... ... : ... .. 6 ... ... ... : A#1 05 . ... ... ... : ... .. 6 ... ... ...
ROW 1C : E-3 02 . ... ... ... : ... .. . ... ... ... : ... .. . ... ... ... : ... .. . ... ... ... : ... .. . ... ... ... : ... .. 5 ... ... ...
ROW 1D : E-3 01 . ... ... ... : ... .. . P81 ... ... : ... .. . ... ... ... : ... .. . ... ... ... : ... .. . ... ... ... : ... .. . ... ... ...
ROW 1E : ... .. . ... ... ... : ... .. . P82 ... ... : ... .. . ... ... ... : ... .. . ... ... ... : ... .. . ... ... ... : ... .. . ... ... ...
ROW 1F : ... .. . ... ... ... : ... .. . P83 ... ... : --- .. . ... ... ... : ... .. . ... ... ... : ... .. . ... ... ... : ... .. 3 ... ... ...
ROW 20 : C#3 00 . ... ... ... : A#4 02 . P7F ... ... : A-3 00 . ... ... ... : 9-# 01 A ... ... ... : C-1 05 . ... ... ... : A-3 04 7 I03 J06 ...
ROW 21 : C#3 03 . ... ... ... : ... .. . P82 ... ... : A-2 00 . ... ... ... : A-# 00 7 ... ... ... : ... .. . ... ... ... : ... .. 6 ... ... ...
ROW 22 : C#3 02 . ... ... ... : B-4 02 . P7E ... ... : ... .. . ... ... ... : ... .. 6 ... ... ... : ... .. . ... ... ... : ... .. 5 ... ... ...
ROW 23 : C#3 01 . ... ... ... : ... .. . P83 ... ... : ... .. . ... ... ... : B-# 01 5 ... ... ... : ... .. . ... ... ... : ... .. . ... ... ...
ROW 24 : ... .. . ... ... ... : ... .. . ... ... ... : ... .. . ... ... ... : A-# 01 . ... ... ... : ... .. . ... ... ... : ... .. . ... ... ...
ROW 25 : ... .. . ... ... ... : ... .. . P81 ... ... : ... .. . ... ... ... : B-# 00 . ... ... ... : ... .. . ... ... ... : ... .. 3 ... ... ...
ROW 26 : E-3 00 . ... ... ... : ... .. . P7F ... ... : ... .. . ... ... ... : ... .. . ... ... ... : A#1 05 . ... ... ... : ... .. 7 ... ... ...
ROW 27 : E-3 03 . ... ... ... : ... .. . P7D ... ... : ... .. . ... ... ... : ... .. . ... ... ... : ... .. . ... ... ... : ... .. 6 ... ... ...
ROW 28 : E-3 02 . ... ... ... : ... .. . ... ... ... : ... .. . ... ... ... : ... .. 4 ... ... ... : ... .. . ... ... ... : ... .. 5 ... ... ...
ROW 29 : E-3 01 . ... ... ... : ... .. . P80 ... ... : ... .. . ... ... ... : ... .. . ... ... ... : ... .. . ... ... ... : ... .. . ... ... ...
ROW 2A : ... .. . ... ... ... : ... .. . P82 ... ... : --- .. . ... ... ... : ... .. 3 ... ... ... : ... .. . ... ... ... : ... .. . ... ... ...
ROW 2B : ... .. . ... ... ... : ... .. . P83 ... ... : ... .. . ... ... ... : ... .. . ... ... ... : ... .. . ... ... ... : ... .. 3 ... ... ...
ROW 2C : C#4 00 . ... ... ... : D#5 00 . P80 ... ... : A-3 00 . ... ... ... : 7-# 00 C ... ... ... : A-1 05 . ... ... ... : D-4 04 7 I04 J08 ...
ROW 2D : C#4 03 . ... ... ... : D#5 01 . ... ... ... : A-2 00 . ... ... ... : 3-# 00 8 ... ... ... : ... .. . ... ... ... : ... .. 6 ... ... ...
ROW 2E : C#4 02 . ... ... ... : D#5 02 . ... ... ... : ... .. . ... ... ... : 6-# 00 B ... ... ... : ... .. . ... ... ... : ... .. 5 ... ... ...
ROW 2F : C#4 01 . ... ... ... : ... .. . ... ... ... : ... .. . ... ... ... : A-# 00 7 ... ... ... : ... .. . ... ... ... : ... .. . ... ... ...
ROW 30 : ... .. . ... ... ... : ... .. . ... ... ... : ... .. . ... ... ... : B-# 00 8 ... ... ... : ... .. . ... ... ... : ... .. . ... ... ...
ROW 31 : ... .. . ... ... ... : ... .. . ... ... ... : ... .. . ... ... ... : C-# 00 7 ... ... ... : ... .. . ... ... ... : ... .. 3 ... ... ...
ROW 32 : E-4 00 . ... ... ... : ... .. . ... ... ... : ... .. . ... ... ... : 9-# 00 . ... ... ... : ... .. . ... ... ... : ... .. 7 ... ... ...
ROW 33 : E-4 03 . ... ... ... : ... .. . ... ... ... : ... .. . ... ... ... : ... .. 6 ... ... ... : A#1 05 . ... ... ... : ... .. 6 ... ... ...
ROW 34 : E-4 02 . ... ... ... : ... .. . ... ... ... : ... .. . ... ... ... : ... .. . ... ... ... : ... .. . ... ... ... : ... .. 5 ... ... ...
ROW 35 : E-4 01 . ... ... ... : B-4 01 6 ... ... ... : ... .. . ... ... ... : ... .. . ... ... ... : ... .. . ... ... ... : ... .. . ... ... ...
ROW 36 : ... .. . ... ... ... : ... .. . ... ... ... : ... .. . ... ... ... : ... .. . ... ... ... : ... .. . ... ... ... : ... .. . ... ... ...
ROW 37 : ... .. . ... ... ... : ... .. . ... ... ... : --- .. . ... ... ... : ... .. . ... ... ... : ... .. . ... ... ... : ... .. 3 ... ... ...
ROW 38 : D-5 00 . ... ... ... : D-5 00 C ... ... ... : D-4 00 . ... ... ... : 9-# 01 A ... ... ... : C-1 05 . ... ... ... : G-3 04 7 I02 JB2 ...
ROW 39 : D-5 03 . ... ... ... : D-5 01 . ... ... ... : D-3 00 . ... ... ... : A-# 00 7 ... ... ... : ... .. . ... ... ... : ... .. 6 ... ... ...
ROW 3A : D-5 02 . ... ... ... : D-5 02 . ... ... ... : ... .. . ... ... ... : ... .. 6 ... ... ... : ... .. . ... ... ... : ... .. 5 ... ... ...
ROW 3B : D-5 01 . ... ... ... : ... .. . ... ... ... : ... .. . ... ... ... : B-# 01 5 ... ... ... : ... .. . ... ... ... : ... .. . ... ... ...
ROW 3C : ... .. . ... ... ... : ... .. . ... ... ... : ... .. . ... ... ... : A-# 01 . ... ... ... : ... .. . ... ... ... : ... .. . ... ... ...
ROW 3D : ... .. . ... ... ... : ... .. . ... ... ... : ... .. . ... ... ... : B-# 00 . ... ... ... : ... .. . ... ... ... : ... .. 4 ... ... ...
ROW 3E : A-4 00 . ... ... ... : ... .. . ... ... ... : ... .. . ... ... ... : ... .. . ... ... ... : A#1 05 . ... ... ... : ... .. . ... ... ...
ROW 3F : A-4 03 . ... ... ... : ... .. . ... ... ... : ... .. . ... ... ... : ... .. . ... ... ... : ... .. . ... ... ... : ... .. . ... ... ...
ROW 40 : A-4 02 . ... ... ... : ... .. . ... ... ... : ... .. . ... ... ... : ... .. 4 ... ... ... : ... .. . ... ... ... : ... .. . ... ... ...
ROW 41 : A-4 01 . ... ... ... : ... .. . P82 ... ... : ... .. . ... ... ... : ... .. . ... ... ... : ... .. . ... ... ... : ... .. . ... ... ...
ROW 42 : ... .. . ... ... ... : D#5 02 . P7F ... ... : --- .. . ... ... ... : ... .. 3 ... ... ... : ... .. . ... ... ... : ... .. 3 ... ... ...
ROW 43 : ... .. . ... ... ... : ... .. . ... ... ... : ... .. . ... ... ... : ... .. . ... ... ... : ... .. . ... ... ... : ... .. . ... ... ...
ROW 44 : D-4 00 . ... ... ... : ... .. . ... ... ... : D-4 00 . ... ... ... : 7-# 00 C ... ... ... : A-1 05 . ... ... ... : ... .. 7 ... ... ...
ROW 45 : D-4 03 . ... ... ... : D-5 02 . P82 ... ... : D-3 00 . ... ... ... : 3-# 00 8 ... ... ... : ... .. . ... ... ... : ... .. 6 ... ... ...
ROW 46 : D-4 02 . ... ... ... : ... .. . P80 ... ... : ... .. . ... ... ... : 6-# 00 B ... ... ... : ... .. . ... ... ... : ... .. 5 ... ... ...
ROW 47 : D-4 01 . ... ... ... : ... .. . P7F ... ... : ... .. . ... ... ... : A-# 00 7 ... ... ... : ... .. . ... ... ... : ... .. . ... ... ...
ROW 48 : ... .. . ... ... ... : C#5 02 . P83 ... ... : ... .. . ... ... ... : B-# 00 8 ... ... ... : ... .. . ... ... ... : ... .. . ... ... ...
ROW 49 : ... .. . ... ... ... : ... .. . P82 ... ... : ... .. . ... ... ... : C-# 00 7 ... ... ... : ... .. . ... ... ... : ... .. 3 ... ... ...
ROW 4A : A-3 00 . ... ... ... : ... .. . ... ... ... : ... .. . ... ... ... : 9-# 00 . ... ... ... : ... .. . ... ... ... : ... .. 7 ... ... ...
ROW 4B : A-3 03 . ... ... ... : ... .. . P83 ... ... : ... .. . ... ... ... : ... .. 6 ... ... ... : A#1 05 . ... ... ... : ... .. 6 ... ... ...
ROW 4C : A-3 02 . ... ... ... : D-5 02 . P7F ... ... : ... .. . ... ... ... : ... .. . ... ... ... : ... .. . ... ... ... : ... .. 5 ... ... ...
ROW 4D : A-3 01 . ... ... ... : ... .. . P80 ... ... : ... .. . ... ... ... : ... .. . ... ... ... : ... .. . ... ... ... : ... .. . ... ... ...
ROW 4E : ... .. . ... ... ... : ... .. . P82 ... ... : ... .. . ... ... ... : ... .. . ... ... ... : ... .. . ... ... ... : ... .. . ... ... ...
ROW 4F : ... .. . ... ... ... : D#5 02 . P7F ... ... : --- .. . ... ... ... : ... .. . ... ... ... : ... .. . ... ... ... : ... .. 3 ... ... ...
ROW 50 : D-3 00 . ... ... ... : ... .. . ... ... ... : D-4 00 . ... ... ... : 9-# 01 A ... ... ... : A-1 05 . ... ... ... : D-4 04 7 I04 J08 ...
ROW 51 : D-3 03 . ... ... ... : ... .. . ... ... ... : D-3 00 . ... ... ... : A-# 00 7 ... ... ... : ... .. . ... ... ... : ... .. 6 ... ... ...
ROW 52 : D-3 02 . ... ... ... : D-5 02 . P82 ... ... : ... .. . ... ... ... : ... .. 6 ... ... ... : ... .. . ... ... ... : ... .. 5 ... ... ...
ROW 53 : D-3 01 . ... ... ... : ... .. . P80 ... ... : ... .. . ... ... ... : B-# 01 5 ... ... ... : ... .. . ... ... ... : ... .. . ... ... ...
ROW 54 : ... .. . ... ... ... : ... .. . P7F ... ... : ... .. . ... ... ... : A-# 01 . ... ... ... : ... .. . ... ... ... : ... .. . ... ... ...
ROW 55 : ... .. . ... ... ... : C#5 02 . P83 ... ... : ... .. . ... ... ... : B-# 00 . ... ... ... : ... .. . ... ... ... : ... .. 3 ... ... ...
ROW 56 : A-3 00 . ... ... ... : ... .. . P82 ... ... : ... .. . ... ... ... : ... .. . ... ... ... : A-1 05 . ... ... ... : ... .. 7 ... ... ...
ROW 57 : A-3 03 . ... ... ... : ... .. . ... ... ... : ... .. . ... ... ... : ... .. . ... ... ... : ... .. . ... ... ... : ... .. 6 ... ... ...
ROW 58 : A-3 02 . ... ... ... : ... .. . P83 ... ... : ... .. . ... ... ... : ... .. 4 ... ... ... : ... .. . ... ... ... : ... .. 5 ... ... ...
ROW 59 : A-3 01 . ... ... ... : D-5 02 . P80 ... ... : ... .. . ... ... ... : ... .. . ... ... ... : ... .. . ... ... ... : ... .. . ... ... ...
ROW 5A : ... .. . ... ... ... : ... .. . ... ... ... : --- .. . ... ... ... : ... .. 3 ... ... ... : ... .. . ... ... ... : ... .. . ... ... ...
ROW 5B : ... .. . ... ... ... : D#5 02 . P7E ... ... : ... .. . ... ... ... : ... .. . ... ... ... : ... .. . ... ... ... : ... .. 3 ... ... ...
ROW 5C : D-4 00 . ... ... ... : C-5 00 . P80 ... ... : D-4 00 . ... ... ... : 7-# 00 C ... ... ... : A-1 05 . ... ... ... : G-4 04 7 I05 J61 ...
ROW 5D : D-4 03 . ... ... ... : C-5 01 . ... ... ... : D-3 00 . ... ... ... : 3-# 00 8 ... ... ... : ... .. . ... ... ... : ... .. 6 ... ... ...
ROW 5E : D-4 02 . ... ... ... : C-5 02 . ... ... ... : ... .. . ... ... ... : 6-# 00 B ... ... ... : ... .. . ... ... ... : ... .. 5 ... ... ...
ROW 5F : D-4 01 . ... ... ... : ... .. . ... ... ... : ... .. . ... ... ... : A-# 00 7 ... ... ... : ... .. . ... ... ... : ... .. . ... ... ...
ROW 60 : ... .. . ... ... ... : D-5 01 6 ... ... ... : ... .. . ... ... ... : B-# 00 8 ... ... ... : ... .. . ... ... ... : ... .. . ... ... ...
ROW 61 : ... .. . ... ... ... : ... .. . ... ... ... : ... .. . ... ... ... : C-# 00 7 ... ... ... : ... .. . ... ... ... : ... .. 3 ... ... ...
ROW 62 : A-4 00 . ... ... ... : D-5 00 C ... ... ... : ... .. . ... ... ... : 9-# 00 . ... ... ... : A-1 05 . ... ... ... : ... .. 7 ... ... ...
ROW 63 : A-4 03 . ... ... ... : D-5 01 . ... ... ... : ... .. . ... ... ... : ... .. 6 ... ... ... : ... .. . ... ... ... : ... .. 6 ... ... ...
ROW 64 : A-4 02 . ... ... ... : D-5 02 . ... ... ... : ... .. . ... ... ... : ... .. . ... ... ... : ... .. . ... ... ... : ... .. 5 ... ... ...
ROW 65 : A-4 01 . ... ... ... : ... .. . ... ... ... : ... .. . ... ... ... : ... .. . ... ... ... : ... .. . ... ... ... : ... .. . ... ... ...
ROW 66 : ... .. . ... ... ... : C-5 01 6 ... ... ... : ... .. . ... ... ... : ... .. . ... ... ... : ... .. . ... ... ... : ... .. . ... ... ...
ROW 67 : ... .. . ... ... ... : ... .. . ... ... ... : --- .. . ... ... ... : ... .. . ... ... ... : ... .. . ... ... ... : ... .. 3 ... ... ...
ROW 68 : F#4 00 . ... ... ... : D#4 00 C P83 ... ... : F#3 00 . ... ... ... : 9-# 01 A ... ... ... : C-1 05 . ... ... ... : B-2 04 7 I01 JB3 ...
ROW 69 : F#4 03 . ... ... ... : E-4 01 . P7C ... ... : F#2 00 . ... ... ... : A-# 00 7 ... ... ... : ... .. . ... ... ... : ... .. 6 ... ... ...
ROW 6A : F#4 02 . ... ... ... : E-4 02 . P7F ... ... : ... .. . ... ... ... : ... .. 6 ... ... ... : ... .. . ... ... ... : ... .. 5 ... ... ...
ROW 6B : F#4 01 . ... ... ... : ... .. . P84 ... ... : ... .. . ... ... ... : B-# 01 5 ... ... ... : ... .. . ... ... ... : ... .. . ... ... ...
ROW 6C : ... .. . ... ... ... : F-4 02 . P7F ... ... : ... .. . ... ... ... : A-# 01 . ... ... ... : ... .. . ... ... ... : ... .. . ... ... ...
ROW 6D : ... .. . ... ... ... : ... .. . P84 ... ... : ... .. . ... ... ... : B-# 00 . ... ... ... : ... .. . ... ... ... : ... .. 4 ... ... ...
ROW 6E : D-4 00 . ... ... ... : F#4 02 . ... ... ... : ... .. . ... ... ... : ... .. . ... ... ... : C-1 05 . ... ... ... : ... .. . ... ... ...
ROW 6F : D-4 03 . ... ... ... : G-4 02 . P7E ... ... : ... .. . ... ... ... : ... .. . ... ... ... : ... .. . ... ... ... : ... .. . ... ... ...
ROW 70 : D-4 02 . ... ... ... : F#4 02 . P84 ... ... : ... .. . ... ... ... : ... .. 4 ... ... ... : ... .. . ... ... ... : ... .. . ... ... ...
ROW 71 : D-4 01 . ... ... ... : ... .. . P80 ... ... : ... .. . ... ... ... : ... .. . ... ... ... : ... .. . ... ... ... : ... .. . ... ... ...
ROW 72 : ... .. . ... ... ... : ... .. . P7C ... ... : --- .. . ... ... ... : ... .. 3 ... ... ... : ... .. . ... ... ... : ... .. 3 ... ... ...
ROW 73 : ... .. . ... ... ... : F-4 02 . P83 ... ... : ... .. . ... ... ... : ... .. . ... ... ... : ... .. . ... ... ... : ... .. . ... ... ...
ROW 74 : A-3 00 . ... ... ... : F#4 02 . P7C ... ... : F#3 00 . ... ... ... : 7-# 00 C ... ... ... : A-1 05 . ... ... ... : ... .. 7 ... ... ...
ROW 75 : A-3 03 . ... ... ... : ... .. . P80 ... ... : F#2 00 . ... ... ... : 3-# 00 8 ... ... ... : ... .. . ... ... ... : ... .. 6 ... ... ...
ROW 76 : A-3 02 . ... ... ... : ... .. . P84 ... ... : ... .. . ... ... ... : 6-# 00 B ... ... ... : ... .. . ... ... ... : ... .. 5 ... ... ...
ROW 77 : A-3 01 . ... ... ... : G-4 02 . P7E ... ... : ... .. . ... ... ... : A-# 00 7 ... ... ... : ... .. . ... ... ... : ... .. . ... ... ...
ROW 78 : ... .. . ... ... ... : F#4 02 . P84 ... ... : ... .. . ... ... ... : B-# 00 8 ... ... ... : ... .. . ... ... ... : ... .. . ... ... ...
ROW 79 : ... .. . ... ... ... : ... .. . P80 ... ... : ... .. . ... ... ... : C-# 00 7 ... ... ... : ... .. . ... ... ... : ... .. 3 ... ... ...
ROW 7A : F#3 00 . ... ... ... : ... .. . P7C ... ... : ... .. . ... ... ... : 9-# 00 . ... ... ... : A-1 05 . ... ... ... : ... .. 7 ... ... ...
ROW 7B : F#3 03 . ... ... ... : F-4 02 . P83 ... ... : ... .. . ... ... ... : ... .. 6 ... ... ... : ... .. . ... ... ... : ... .. 6 ... ... ...
ROW 7C : F#3 02 . ... ... ... : F#4 02 . P7C ... ... : ... .. . ... ... ... : ... .. . ... ... ... : ... .. . ... ... ... : ... .. 5 ... ... ...
ROW 7D : F#3 01 . ... ... ... : ... .. . P80 ... ... : ... .. . ... ... ... : ... .. . ... ... ... : ... .. . ... ... ... : ... .. . ... ... ...
ROW 7E : ... .. . ... ... ... : ... .. . P84 ... ... : ... .. . ... ... ... : ... .. . ... ... ... : ... .. . ... ... ... : ... .. . ... ... ...
ROW 7F : ... .. . ... ... ... : G-4 02 . P7E ... ... : --- .. . ... ... ... : ... .. . ... ... ... : ... .. . ... ... ... : ... .. 3 ... ... ...
ROW 80 : D-3 00 . ... ... ... : D-5 00 . P80 ... ... : F#3 00 . ... ... ... : 9-# 01 A ... ... ... : A-1 05 . ... ... ... : G-3 04 7 I02 JB2 ...
ROW 81 : D-3 03 . ... ... ... : D-5 01 . ... ... ... : F#2 00 . ... ... ... : A-# 00 7 ... ... ... : ... .. . ... ... ... : ... .. 6 ... ... ...
ROW 82 : D-3 02 . ... ... ... : D-5 02 . ... ... ... : ... .. . ... ... ... : ... .. 6 ... ... ... : ... .. . ... ... ... : ... .. 5 ... ... ...
ROW 83 : D-3 01 . ... ... ... : C#5 02 . P83 ... ... : ... .. . ... ... ... : B-# 01 5 ... ... ... : ... .. . ... ... ... : ... .. . ... ... ...
ROW 84 : ... .. . ... ... ... : ... .. . P80 ... ... : ... .. . ... ... ... : A-# 01 . ... ... ... : ... .. . ... ... ... : ... .. . ... ... ...
ROW 85 : ... .. . ... ... ... : C-5 02 . P83 ... ... : ... .. . ... ... ... : B-# 00 . ... ... ... : ... .. . ... ... ... : ... .. 3 ... ... ...
ROW 86 : F#3 00 . ... ... ... : C#5 02 . P80 ... ... : ... .. . ... ... ... : ... .. . ... ... ... : C-1 05 . ... ... ... : ... .. 7 ... ... ...
ROW 87 : F#3 03 . ... ... ... : ... .. . P83 ... ... : ... .. . ... ... ... : ... .. . ... ... ... : ... .. . ... ... ... : ... .. 6 ... ... ...
ROW 88 : F#3 02 . ... ... ... : D-5 02 . P80 ... ... : ... .. . ... ... ... : ... .. 4 ... ... ... : ... .. . ... ... ... : ... .. 5 ... ... ...
ROW 89 : F#3 01 . ... ... ... : ... .. . ... ... ... : ... .. . ... ... ... : ... .. . ... ... ... : ... .. . ... ... ... : ... .. . ... ... ...
ROW 8A : ... .. . ... ... ... : ... .. . ... ... ... : --- .. . ... ... ... : ... .. 3 ... ... ... : ... .. . ... ... ... : ... .. . ... ... ...
ROW 8B : ... .. . ... ... ... : ... .. . ... ... ... : ... .. . ... ... ... : ... .. . ... ... ... : ... .. . ... ... ... : ... .. 3 ... ... ...
ROW 8C : A-3 00 . ... ... ... : ... .. . ... ... ... : F#3 00 . ... ... ... : 7-# 00 C ... ... ... : A-1 05 . ... ... ... : B-3 04 7 I03 J63 ...
ROW 8D : A-3 03 . ... ... ... : ... .. . ... ... ... : F#2 00 . ... ... ... : 3-# 00 8 ... ... ... : ... .. . ... ... ... : ... .. 6 ... ... ...
ROW 8E : A-3 02 . ... ... ... : ... .. . ... ... ... : ... .. . ... ... ... : 6-# 00 B ... ... ... : ... .. . ... ... ... : ... .. 5 ... ... ...
ROW 8F : A-3 01 . ... ... ... : ... .. . ... ... ... : ... .. . ... ... ... : A-# 00 7 ... ... ... : ... .. . ... ... ... : ... .. . ... ... ...
ROW 90 : ... .. . ... ... ... : ... .. . ... ... ... : ... .. . ... ... ... : B-# 00 8 ... ... ... : ... .. . ... ... ... : ... .. . ... ... ...
ROW 91 : ... .. . ... ... ... : ... .. . ... ... ... : ... .. . ... ... ... : C-# 00 7 ... ... ... : ... .. . ... ... ... : ... .. 3 ... ... ...
ROW 92 : F#4 00 . ... ... ... : C-5 02 . P83 ... ... : ... .. . ... ... ... : 9-# 00 . ... ... ... : A-1 05 . ... ... ... : ... .. 7 ... ... ...
ROW 93 : F#4 03 . ... ... ... : B-4 02 . P80 ... ... : ... .. . ... ... ... : ... .. 6 ... ... ... : ... .. . ... ... ... : ... .. 6 ... ... ...
ROW 94 : F#4 02 . ... ... ... : A#4 02 . P7E ... ... : ... .. . ... ... ... : ... .. . ... ... ... : ... .. . ... ... ... : ... .. 5 ... ... ...
ROW 95 : F#4 01 . ... ... ... : G#4 02 . P84 ... ... : ... .. . ... ... ... : ... .. . ... ... ... : ... .. . ... ... ... : ... .. . ... ... ...
ROW 96 : ... .. . ... ... ... : G-4 02 . P83 ... ... : ... .. . ... ... ... : ... .. . ... ... ... : ... .. . ... ... ... : ... .. . ... ... ...
ROW 97 : ... .. . ... ... ... : F#4 02 . P82 ... ... : --- .. . ... ... ... : ... .. . ... ... ... : ... .. . ... ... ... : ... .. 3 ... ... ...
ROW 98 : G-5 00 . ... ... ... : G-2 00 . P80 ... ... : G-3 00 . ... ... ... : A-# 00 F ... ... ... : C-1 05 . ... ... ... : C-3 04 7 I01 JCB ...
ROW 99 : G-4 01 . ... ... ... : G-2 01 . ... ... ... : G-2 00 . ... ... ... : 7-# 00 B ... ... ... : ... .. . ... ... ... : ... .. 6 ... ... ...
ROW 9A : G-5 02 . ... ... ... : G-2 02 . ... ... ... : ... .. . ... ... ... : 8-# 00 E ... ... ... : ... .. . ... ... ... : ... .. 5 ... ... ...
ROW 9B : G-4 02 . ... ... ... : ... .. . ... ... ... : ... .. . ... ... ... : 9-# 00 B ... ... ... : ... .. . ... ... ... : ... .. . ... ... ...
ROW 9C : G-5 02 . ... ... ... : ... .. . ... ... ... : ... .. . ... ... ... : A-# 00 C ... ... ... : ... .. . ... ... ... : ... .. . ... ... ...
ROW 9D : G-4 02 . ... ... ... : ... .. . ... ... ... : ... .. . ... ... ... : B-# 00 B ... ... ... : ... .. . ... ... ... : ... .. 4 ... ... ...
ROW 9E : D-5 00 . ... ... ... : ... .. . ... ... ... : ... .. . ... ... ... : ... .. . ... ... ... : A#1 05 . ... ... ... : ... .. . ... ... ...
ROW 9F : D-4 01 . ... ... ... : ... .. . ... ... ... : ... .. . ... ... ... : A-# 00 A ... ... ... : ... .. . ... ... ... : ... .. . ... ... ...
ROW A0 : D-5 02 . ... ... ... : ... .. . ... ... ... : ... .. . ... ... ... : B-# 00 . ... ... ... : ... .. . ... ... ... : ... .. . ... ... ...
ROW A1 : D-4 02 . ... ... ... : G-2 01 . ... ... ... : ... .. . ... ... ... : ... .. 9 ... ... ... : ... .. . ... ... ... : ... .. . ... ... ...
ROW A2 : D-5 02 . ... ... ... : ... .. . ... ... ... : --- .. . ... ... ... : ... .. . ... ... ... : ... .. . ... ... ... : ... .. 3 ... ... ...
ROW A3 : D-4 02 . ... ... ... : ... .. . ... ... ... : ... .. . ... ... ... : ... .. . ... ... ... : ... .. . ... ... ... : ... .. . ... ... ...
ROW A4 : G-4 00 . ... ... ... : F-4 00 . P81 ... ... : G-3 00 . ... ... ... : ... .. . ... ... ... : A-1 05 . ... ... ... : ... .. 7 ... ... ...
ROW A5 : G-3 01 . ... ... ... : F-4 01 . P82 ... ... : G-2 00 . ... ... ... : ... .. 8 ... ... ... : ... .. . ... ... ... : ... .. 6 ... ... ...
ROW A6 : G-4 02 . ... ... ... : F-4 02 . P83 ... ... : ... .. . ... ... ... : ... .. . ... ... ... : ... .. . ... ... ... : ... .. 5 ... ... ...
ROW A7 : G-3 02 . ... ... ... : ... .. . P84 ... ... : ... .. . ... ... ... : ... .. . ... ... ... : ... .. . ... ... ... : ... .. . ... ... ...
ROW A8 : G-4 02 . ... ... ... : F#4 02 . P7C ... ... : ... .. . ... ... ... : ... .. . ... ... ... : ... .. . ... ... ... : ... .. . ... ... ...
ROW A9 : G-3 02 . ... ... ... : ... .. . P7D ... ... : ... .. . ... ... ... : ... .. . ... ... ... : ... .. . ... ... ... : ... .. 3 ... ... ...
ROW AA : D-4 00 . ... ... ... : ... .. . P80 ... ... : ... .. . ... ... ... : ... .. 7 ... ... ... : ... .. . ... ... ... : ... .. 7 ... ... ...
ROW AB : D-3 01 . ... ... ... : ... .. . P83 ... ... : ... .. . ... ... ... : ... .. . ... ... ... : A#1 05 . ... ... ... : ... .. 6 ... ... ...
ROW AC : D-4 02 . ... ... ... : G-4 02 . P7E ... ... : ... .. . ... ... ... : ... .. . ... ... ... : ... .. . ... ... ... : ... .. 5 ... ... ...
ROW AD : D-3 02 . ... ... ... : ... .. . P80 ... ... : ... .. . ... ... ... : ... .. . ... ... ... : ... .. . ... ... ... : ... .. . ... ... ...
ROW AE : D-4 02 . ... ... ... : ... .. . ... ... ... : ... .. . ... ... ... : ... .. . ... ... ... : ... .. . ... ... ... : ... .. . ... ... ...
ROW AF : D-3 02 . ... ... ... : ... .. . ... ... ... : --- .. . ... ... ... : ... .. 6 ... ... ... : ... .. . ... ... ... : ... .. 3 ... ... ...
ROW B0 : G-3 00 . ... ... ... : ... .. . ... ... ... : G-3 00 . ... ... ... : 9-# 01 A ... ... ... : C-1 05 . ... ... ... : G-3 04 7 I02 JB2 ...
ROW B1 : G-2 01 . ... ... ... : ... .. . ... ... ... : G-2 00 . ... ... ... : A-# 00 7 ... ... ... : ... .. . ... ... ... : ... .. 6 ... ... ...
ROW B2 : G-3 02 . ... ... ... : ... .. . ... ... ... : ... .. . ... ... ... : ... .. 6 ... ... ... : ... .. . ... ... ... : ... .. 5 ... ... ...
ROW B3 : G-2 02 . ... ... ... : G#4 02 . ... ... ... : ... .. . ... ... ... : B-# 01 5 ... ... ... : ... .. . ... ... ... : ... .. . ... ... ...
ROW B4 : G-3 02 . ... ... ... : ... .. . ... ... ... : ... .. . ... ... ... : A-# 01 . ... ... ... : ... .. . ... ... ... : ... .. . ... ... ...
ROW B5 : G-2 02 . ... ... ... : G-4 02 . ... ... ... : ... .. . ... ... ... : B-# 00 . ... ... ... : ... .. . ... ... ... : ... .. 3 ... ... ...
ROW B6 : D-4 00 . ... ... ... : F#4 02 . P81 ... ... : ... .. . ... ... ... : ... .. . ... ... ... : A#1 05 . ... ... ... : ... .. 7 ... ... ...
ROW B7 : D-3 01 . ... ... ... : ... .. . P7F ... ... : ... .. . ... ... ... : ... .. . ... ... ... : ... .. . ... ... ... : ... .. 6 ... ... ...
ROW B8 : D-4 02 . ... ... ... : G-4 02 . P7E ... ... : ... .. . ... ... ... : ... .. 4 ... ... ... : ... .. . ... ... ... : ... .. 5 ... ... ...
ROW B9 : D-3 02 . ... ... ... : G#4 02 . P7D ... ... : ... .. . ... ... ... : ... .. . ... ... ... : ... .. . ... ... ... : ... .. . ... ... ...
ROW BA : D-4 02 . ... ... ... : ... .. . P81 ... ... : --- .. . ... ... ... : ... .. 3 ... ... ... : ... .. . ... ... ... : ... .. . ... ... ...
ROW BB : D-3 02 . ... ... ... : G-4 02 . P84 ... ... : ... .. . ... ... ... : ... .. . ... ... ... : ... .. . ... ... ... : ... .. 3 ... ... ...
ROW BC : G-4 00 . ... ... ... : ... .. . P7D ... ... : G-3 00 . ... ... ... : 7-# 00 C ... ... ... : A-1 05 . ... ... ... : C-4 04 7 I03 J99 ...
ROW BD : G-3 01 . ... ... ... : F#4 02 . P7F ... ... : G-2 00 . ... ... ... : 3-# 00 8 ... ... ... : ... .. . ... ... ... : ... .. 6 ... ... ...
ROW BE : G-4 02 . ... ... ... : ... .. . P82 ... ... : ... .. . ... ... ... : 6-# 00 B ... ... ... : ... .. . ... ... ... : ... .. 5 ... ... ...
ROW BF : G-3 02 . ... ... ... : G-4 02 . P81 ... ... : ... .. . ... ... ... : A-# 00 7 ... ... ... : ... .. . ... ... ... : ... .. . ... ... ...
ROW C0 : G-4 02 . ... ... ... : G#4 02 . ... ... ... : ... .. . ... ... ... : B-# 00 8 ... ... ... : ... .. . ... ... ... : ... .. . ... ... ...
ROW C1 : G-3 02 . ... ... ... : ... .. . P7F ... ... : ... .. . ... ... ... : C-# 00 7 ... ... ... : ... .. . ... ... ... : ... .. 3 ... ... ...
ROW C2 : D-5 00 . ... ... ... : G-4 02 . P80 ... ... : ... .. . ... ... ... : 9-# 00 . ... ... ... : ... .. . ... ... ... : ... .. 7 ... ... ...
ROW C3 : D-4 01 . ... ... ... : F#4 02 . ... ... ... : ... .. . ... ... ... : ... .. 6 ... ... ... : A#1 05 . ... ... ... : ... .. 6 ... ... ...
ROW C4 : D-5 02 . ... ... ... : ... .. . ... ... ... : ... .. . ... ... ... : ... .. . ... ... ... : ... .. . ... ... ... : ... .. 5 ... ... ...
ROW C5 : D-4 02 . ... ... ... : A-4 01 6 ... ... ... : ... .. . ... ... ... : ... .. . ... ... ... : ... .. . ... ... ... : ... .. . ... ... ...
ROW C6 : D-5 02 . ... ... ... : ... .. . ... ... ... : ... .. . ... ... ... : ... .. . ... ... ... : ... .. . ... ... ... : ... .. . ... ... ...
ROW C7 : D-4 02 . ... ... ... : ... .. . ... ... ... : --- .. . ... ... ... : ... .. . ... ... ... : ... .. . ... ... ... : ... .. 3 ... ... ...
ROW C8 : A#5 00 . ... ... ... : A#4 00 C ... ... ... : A#3 00 . ... ... ... : 9-# 01 A ... ... ... : C-1 05 . ... ... ... : D#3 04 7 I02 J22 ...
ROW C9 : A#4 01 . ... ... ... : A#4 01 . ... ... ... : A#2 00 . ... ... ... : A-# 00 7 ... ... ... : ... .. . ... ... ... : ... .. 6 ... ... ...
ROW CA : A#5 02 . ... ... ... : A#4 02 . ... ... ... : ... .. . ... ... ... : ... .. 6 ... ... ... : ... .. . ... ... ... : ... .. 5 ... ... ...
ROW CB : A#4 02 . ... ... ... : ... .. . ... ... ... : ... .. . ... ... ... : B-# 01 5 ... ... ... : ... .. . ... ... ... : ... .. . ... ... ...
ROW CC : A#5 02 . ... ... ... : ... .. . ... ... ... : ... .. . ... ... ... : A-# 01 . ... ... ... : ... .. . ... ... ... : ... .. . ... ... ...
ROW CD : A#4 02 . ... ... ... : ... .. . ... ... ... : ... .. . ... ... ... : B-# 00 . ... ... ... : ... .. . ... ... ... : ... .. 4 ... ... ...
ROW CE : F-5 00 . ... ... ... : A#3 00 . ... ... ... : ... .. . ... ... ... : ... .. . ... ... ... : A#1 05 . ... ... ... : ... .. . ... ... ...
ROW CF : F-4 01 . ... ... ... : A#3 01 . ... ... ... : ... .. . ... ... ... : ... .. . ... ... ... : ... .. . ... ... ... : ... .. . ... ... ...
ROW D0 : F-5 02 . ... ... ... : A#3 02 . ... ... ... : ... .. . ... ... ... : ... .. 4 ... ... ... : ... .. . ... ... ... : ... .. . ... ... ...
ROW D1 : F-4 02 . ... ... ... : ... .. . ... ... ... : ... .. . ... ... ... : ... .. . ... ... ... : ... .. . ... ... ... : ... .. . ... ... ...
ROW D2 : F-5 02 . ... ... ... : ... .. . ... ... ... : --- .. . ... ... ... : ... .. 3 ... ... ... : ... .. . ... ... ... : ... .. 3 ... ... ...
ROW D3 : F-4 02 . ... ... ... : ... .. . ... ... ... : ... .. . ... ... ... : ... .. . ... ... ... : ... .. . ... ... ... : ... .. . ... ... ...
ROW D4 : A#4 00 . ... ... ... : F-4 00 . ... ... ... : A#3 00 . ... ... ... : 7-# 00 C ... ... ... : A-1 05 . ... ... ... : ... .. 7 ... ... ...
ROW D5 : A#3 01 . ... ... ... : F-4 01 . ... ... ... : A#2 00 . ... ... ... : 3-# 00 8 ... ... ... : ... .. . ... ... ... : ... .. 6 ... ... ...
ROW D6 : A#4 02 . ... ... ... : F-4 02 . ... ... ... : ... .. . ... ... ... : 6-# 00 B ... ... ... : ... .. . ... ... ... : ... .. 5 ... ... ...
ROW D7 : A#3 02 . ... ... ... : ... .. . ... ... ... : ... .. . ... ... ... : A-# 00 7 ... ... ... : ... .. . ... ... ... : ... .. . ... ... ...
ROW D8 : A#4 02 . ... ... ... : ... .. . ... ... ... : ... .. . ... ... ... : B-# 00 8 ... ... ... : ... .. . ... ... ... : ... .. . ... ... ...
ROW D9 : A#3 02 . ... ... ... : ... .. . ... ... ... : ... .. . ... ... ... : C-# 00 7 ... ... ... : ... .. . ... ... ... : ... .. 3 ... ... ...
ROW DA : F-4 00 . ... ... ... : F-3 00 . ... ... ... : ... .. . ... ... ... : 9-# 00 . ... ... ... : ... .. . ... ... ... : ... .. 7 ... ... ...
ROW DB : F-3 01 . ... ... ... : F-3 01 . ... ... ... : ... .. . ... ... ... : ... .. 6 ... ... ... : A#1 05 . ... ... ... : ... .. 6 ... ... ...
ROW DC : F-4 02 . ... ... ... : F-3 02 . ... ... ... : ... .. . ... ... ... : ... .. . ... ... ... : ... .. . ... ... ... : ... .. 5 ... ... ...
ROW DD : F-3 02 . ... ... ... : ... .. . ... ... ... : ... .. . ... ... ... : ... .. . ... ... ... : ... .. . ... ... ... : ... .. . ... ... ...
ROW DE : F-4 02 . ... ... ... : ... .. . ... ... ... : ... .. . ... ... ... : ... .. . ... ... ... : ... .. . ... ... ... : ... .. . ... ... ...
ROW DF : F-3 02 . ... ... ... : F-4 01 6 ... ... ... : --- .. . ... ... ... : ... .. . ... ... ... : ... .. . ... ... ... : ... .. 3 ... ... ...
ROW E0 : A#3 00 . ... ... ... : F-4 00 C ... ... ... : A#3 00 . ... ... ... : 9-# 01 A ... ... ... : C-1 05 . ... ... ... : A#3 04 7 I03 J33 ...
ROW E1 : A#2 01 . ... ... ... : F-4 01 . ... ... ... : A#2 00 . ... ... ... : A-# 00 7 ... ... ... : ... .. . ... ... ... : ... .. 6 ... ... ...
ROW E2 : A#3 02 . ... ... ... : F-4 02 . ... ... ... : ... .. . ... ... ... : ... .. 6 ... ... ... : ... .. . ... ... ... : ... .. 5 ... ... ...
ROW E3 : A#2 02 . ... ... ... : ... .. . ... ... ... : ... .. . ... ... ... : B-# 01 5 ... ... ... : ... .. . ... ... ... : ... .. . ... ... ...
ROW E4 : A#3 02 . ... ... ... : ... .. . ... ... ... : ... .. . ... ... ... : A-# 01 . ... ... ... : ... .. . ... ... ... : ... .. . ... ... ...
ROW E5 : A#2 02 . ... ... ... : ... .. . ... ... ... : ... .. . ... ... ... : B-# 00 . ... ... ... : ... .. . ... ... ... : ... .. 3 ... ... ...
ROW E6 : F-4 00 . ... ... ... : F#4 02 . P7C ... ... : ... .. . ... ... ... : ... .. . ... ... ... : A#1 05 . ... ... ... : ... .. 7 ... ... ...
ROW E7 : F-3 01 . ... ... ... : ... .. . P7D ... ... : ... .. . ... ... ... : ... .. . ... ... ... : ... .. . ... ... ... : ... .. 6 ... ... ...
ROW E8 : F-4 02 . ... ... ... : F-4 02 . P80 ... ... : ... .. . ... ... ... : ... .. 4 ... ... ... : ... .. . ... ... ... : ... .. 5 ... ... ...
ROW E9 : F-3 02 . ... ... ... : ... .. . P7C ... ... : ... .. . ... ... ... : ... .. . ... ... ... : ... .. . ... ... ... : ... .. . ... ... ...
ROW EA : F-4 02 . ... ... ... : E-4 02 . P84 ... ... : --- .. . ... ... ... : ... .. 3 ... ... ... : ... .. . ... ... ... : ... .. . ... ... ...
ROW EB : F-3 02 . ... ... ... : F-4 02 . P7E ... ... : ... .. . ... ... ... : ... .. . ... ... ... : ... .. . ... ... ... : ... .. 3 ... ... ...
ROW EC : A#4 00 . ... ... ... : A#4 00 . P80 ... ... : A#3 00 . ... ... ... : 7-# 00 C ... ... ... : A-1 05 . ... ... ... : D#4 04 7 I04 J47 ...
ROW ED : A#3 01 . ... ... ... : A#4 01 . ... ... ... : A#2 00 . ... ... ... : 3-# 00 8 ... ... ... : ... .. . ... ... ... : ... .. 6 ... ... ...
ROW EE : A#4 02 . ... ... ... : A#4 02 . ... ... ... : ... .. . ... ... ... : 6-# 00 B ... ... ... : ... .. . ... ... ... : ... .. 5 ... ... ...
ROW EF : A#3 02 . ... ... ... : ... .. . ... ... ... : ... .. . ... ... ... : A-# 00 7 ... ... ... : ... .. . ... ... ... : ... .. . ... ... ...
ROW F0 : A#4 02 . ... ... ... : ... .. . ... ... ... : ... .. . ... ... ... : B-# 00 8 ... ... ... : ... .. . ... ... ... : ... .. . ... ... ...
ROW F1 : A#3 02 . ... ... ... : ... .. . ... ... ... : ... .. . ... ... ... : C-# 00 7 ... ... ... : ... .. . ... ... ... : ... .. 3 ... ... ...
ROW F2 : F-5 00 . ... ... ... : B-4 02 . P7E ... ... : ... .. . ... ... ... : 9-# 00 . ... ... ... : ... .. . ... ... ... : ... .. 7 ... ... ...
ROW F3 : F-4 01 . ... ... ... : ... .. . P7F ... ... : ... .. . ... ... ... : ... .. 6 ... ... ... : A#1 05 . ... ... ... : ... .. 6 ... ... ...
ROW F4 : F-5 02 . ... ... ... : A#4 02 . P80 ... ... : ... .. . ... ... ... : ... .. . ... ... ... : ... .. . ... ... ... : ... .. 5 ... ... ...
ROW F5 : F-4 02 . ... ... ... : A-4 02 . P83 ... ... : ... .. . ... ... ... : ... .. . ... ... ... : ... .. . ... ... ... : ... .. . ... ... ...
ROW F6 : F-5 02 . ... ... ... : ... .. . P81 ... ... : ... .. . ... ... ... : ... .. . ... ... ... : ... .. . ... ... ... : ... .. . ... ... ...
ROW F7 : F-4 02 . ... ... ... : A#4 02 . P7E ... ... : --- .. . ... ... ... : ... .. . ... ... ... : ... .. . ... ... ... : ... .. 3 ... ... ...
ROW F8 : C#6 00 . ... ... ... : A-4 00 . P80 ... ... : C#4 00 . ... ... ... : 9-# 01 A ... ... ... : C-1 05 . ... ... ... : F#3 04 7 I02 J8B ...
ROW F9 : C#5 01 . ... ... ... : A-4 01 . ... ... ... : C#3 00 . ... ... ... : A-# 00 7 ... ... ... : ... .. . ... ... ... : ... .. 6 ... ... ...
ROW FA : C#6 02 . ... ... ... : A-4 02 . ... ... ... : ... .. . ... ... ... : ... .. 6 ... ... ... : ... .. . ... ... ... : ... .. 5 ... ... ...
ROW FB : C#5 02 . ... ... ... : ... .. . ... ... ... : ... .. . ... ... ... : B-# 01 5 ... ... ... : ... .. . ... ... ... : ... .. . ... ... ...
ROW FC : C#6 02 . ... ... ... : ... .. . ... ... ... : ... .. . ... ... ... : A-# 01 . ... ... ... : ... .. . ... ... ... : ... .. . ... ... ...
ROW FD : C#5 02 . ... ... ... : ... .. . ... ... ... : ... .. . ... ... ... : B-# 00 . ... ... ... : ... .. . ... ... ... : ... .. 4 ... ... ...
ROW FE : G#5 00 . ... ... ... : A#4 02 . P7E ... ... : ... .. . ... ... ... : ... .. . ... ... ... : A#1 05 . ... ... ... : ... .. . ... ... ...
ROW FF : G#4 01 . ... ... ... : ... .. . P7F ... ... : ... .. . ... ... ... : ... .. . ... ... ... : ... .. . ... ... ... : ... .. . ... ... ...

PATTERN 16
ROW 00 : G#5 02 . ... ... ... : A-4 02 . P80 ... ... : ... .. . ... ... ... : ... .. 4 ... ... ... : ... .. . ... ... ... : ... .. . ... ... ...
ROW 01 : G#4 02 . ... ... ... : G#4 02 . P84 ... ... : ... .. . ... ... ... : ... .. . ... ... ... : ... .. . ... ... ... : ... .. . ... ... ...
ROW 02 : G#5 02 . ... ... ... : ... .. . P82 ... ... : --- .. . ... ... ... : ... .. 3 ... ... ... : ... .. . ... ... ... : ... .. 3 ... ... ...
ROW 03 : G#4 02 . ... ... ... : A-4 02 . P7E ... ... : ... .. . ... ... ... : ... .. . ... ... ... : ... .. . ... ... ... : ... .. . ... ... ...
ROW 04 : C#5 00 . ... ... ... : E-4 00 . P80 ... ... : C#4 00 . ... ... ... : 7-# 00 C ... ... ... : A-1 05 . ... ... ... : ... .. 7 ... ... ...
ROW 05 : C#4 01 . ... ... ... : E-4 01 . ... ... ... : C#3 00 . ... ... ... : 3-# 00 8 ... ... ... : ... .. . ... ... ... : ... .. 6 ... ... ...
ROW 06 : C#5 02 . ... ... ... : E-4 02 . ... ... ... : ... .. . ... ... ... : 6-# 00 B ... ... ... : ... .. . ... ... ... : ... .. 5 ... ... ...
ROW 07 : C#4 02 . ... ... ... : ... .. . ... ... ... : ... .. . ... ... ... : A-# 00 7 ... ... ... : ... .. . ... ... ... : ... .. . ... ... ...
ROW 08 : C#5 02 . ... ... ... : ... .. . ... ... ... : ... .. . ... ... ... : B-# 00 8 ... ... ... : ... .. . ... ... ... : ... .. . ... ... ...
ROW 09 : C#4 02 . ... ... ... : ... .. . ... ... ... : ... .. . ... ... ... : C-# 00 7 ... ... ... : ... .. . ... ... ... : ... .. 3 ... ... ...
ROW 0A : G#4 00 . ... ... ... : F-4 02 . P7E ... ... : ... .. . ... ... ... : 9-# 00 . ... ... ... : ... .. . ... ... ... : ... .. 7 ... ... ...
ROW 0B : G#3 01 . ... ... ... : ... .. . ... ... ... : ... .. . ... ... ... : ... .. 6 ... ... ... : A#1 05 . ... ... ... : ... .. 6 ... ... ...
ROW 0C : G#4 02 . ... ... ... : E-4 02 . P80 ... ... : ... .. . ... ... ... : ... .. . ... ... ... : ... .. . ... ... ... : ... .. 5 ... ... ...
ROW 0D : G#3 02 . ... ... ... : D#4 02 . P83 ... ... : ... .. . ... ... ... : ... .. . ... ... ... : ... .. . ... ... ... : ... .. . ... ... ...
ROW 0E : G#4 02 . ... ... ... : ... .. . P81 ... ... : ... .. . ... ... ... : ... .. . ... ... ... : ... .. . ... ... ... : ... .. . ... ... ...
ROW 0F : G#3 02 . ... ... ... : E-4 02 . P7E ... ... : --- .. . ... ... ... : ... .. . ... ... ... : ... .. . ... ... ... : ... .. 3 ... ... ...
ROW 10 : C#4 00 . ... ... ... : C#5 00 . P80 ... ... : C#4 00 . ... ... ... : 9-# 01 A ... ... ... : C-1 05 . ... ... ... : C#4 04 7 I03 JCF ...
ROW 11 : C#3 01 . ... ... ... : C#5 01 . ... ... ... : C#3 00 . ... ... ... : A-# 00 7 ... ... ... : ... .. . ... ... ... : ... .. 6 ... ... ...
ROW 12 : C#4 02 . ... ... ... : C#5 02 . ... ... ... : ... .. . ... ... ... : ... .. 6 ... ... ... : ... .. . ... ... ... : ... .. 5 ... ... ...
ROW 13 : C#3 02 . ... ... ... : ... .. . ... ... ... : ... .. . ... ... ... : B-# 01 5 ... ... ... : ... .. . ... ... ... : ... .. . ... ... ...
ROW 14 : C#4 02 . ... ... ... : ... .. . ... ... ... : ... .. . ... ... ... : A-# 01 . ... ... ... : ... .. . ... ... ... : ... .. . ... ... ...
ROW 15 : C#3 02 . ... ... ... : ... .. . ... ... ... : ... .. . ... ... ... : B-# 00 . ... ... ... : ... .. . ... ... ... : ... .. 3 ... ... ...
ROW 16 : G#4 00 . ... ... ... : ... .. . ... ... ... : ... .. . ... ... ... : ... .. . ... ... ... : A#1 05 . ... ... ... : ... .. 7 ... ... ...
ROW 17 : G#3 01 . ... ... ... : C#5 01 6 ... ... ... : ... .. . ... ... ... : ... .. . ... ... ... : ... .. . ... ... ... : ... .. 6 ... ... ...
ROW 18 : G#4 02 . ... ... ... : ... .. . ... ... ... : ... .. . ... ... ... : ... .. 4 ... ... ... : ... .. . ... ... ... : ... .. 5 ... ... ...
ROW 19 : G#3 02 . ... ... ... : ... .. . ... ... ... : ... .. . ... ... ... : ... .. . ... ... ... : ... .. . ... ... ... : ... .. . ... ... ...
ROW 1A : G#4 02 . ... ... ... : ... .. . ... ... ... : --- .. . ... ... ... : ... .. 3 ... ... ... : ... .. . ... ... ... : ... .. . ... ... ...
ROW 1B : G#3 02 . ... ... ... : ... .. . ... ... ... : ... .. . ... ... ... : ... .. . ... ... ... : ... .. . ... ... ... : ... .. 3 ... ... ...
ROW 1C : C#5 00 . ... ... ... : E-5 00 C ... ... ... : C#4 00 . ... ... ... : 7-# 00 C ... ... ... : A-1 05 . ... ... ... : F#4 04 7 I05 J16 ...
ROW 1D : C#4 01 . ... ... ... : E-5 01 . ... ... ... : C#3 00 . ... ... ... : 3-# 00 8 ... ... ... : ... .. . ... ... ... : ... .. 6 ... ... ...
ROW 1E : C#5 02 . ... ... ... : E-5 02 . ... ... ... : ... .. . ... ... ... : 6-# 00 B ... ... ... : ... .. . ... ... ... : ... .. 5 ... ... ...
ROW 1F : C#4 02 . ... ... ... : ... .. . ... ... ... : ... .. . ... ... ... : A-# 00 7 ... ... ... : ... .. . ... ... ... : ... .. . ... ... ...
ROW 20 : C#5 02 . ... ... ... : ... .. . ... ... ... : ... .. . ... ... ... : B-# 00 8 ... ... ... : ... .. . ... ... ... : ... .. . ... ... ...
ROW 21 : C#4 02 . ... ... ... : ... .. . ... ... ... : ... .. . ... ... ... : C-# 00 7 ... ... ... : ... .. . ... ... ... : ... .. 3 ... ... ...
ROW 22 : G#5 00 . ... ... ... : F-5 02 . P7F ... ... : ... .. . ... ... ... : 9-# 00 . ... ... ... : ... .. . ... ... ... : ... .. 7 ... ... ...
ROW 23 : G#4 01 . ... ... ... : ... .. . ... ... ... : ... .. . ... ... ... : ... .. 6 ... ... ... : A#1 05 . ... ... ... : ... .. 6 ... ... ...
ROW 24 : G#5 02 . ... ... ... : E-5 02 . P80 ... ... : ... .. . ... ... ... : ... .. . ... ... ... : ... .. . ... ... ... : ... .. 5 ... ... ...
ROW 25 : G#4 02 . ... ... ... : D#5 02 . P82 ... ... : ... .. . ... ... ... : ... .. . ... ... ... : ... .. . ... ... ... : ... .. . ... ... ...
ROW 26 : G#5 02 . ... ... ... : ... .. . P81 ... ... : ... .. . ... ... ... : ... .. . ... ... ... : ... .. . ... ... ... : ... .. . ... ... ...
ROW 27 : G#4 02 . ... ... ... : E-5 02 . P7F ... ... : --- .. . ... ... ... : ... .. . ... ... ... : ... .. . ... ... ... : ... .. 3 ... ... ...
ROW 28 : E-6 00 . ... ... ... : D#5 00 . P80 ... ... : E-3 00 . ... ... ... : 9-# 01 A ... ... ... : C-1 05 . ... ... ... : A-2 04 7 I01 J83 ...
ROW 29 : E-5 01 . ... ... ... : D#5 01 . ... ... ... : E-2 00 . ... ... ... : A-# 00 7 ... ... ... : ... .. . ... ... ... : ... .. 6 ... ... ...
ROW 2A : E-6 02 . ... ... ... : D#5 02 . ... ... ... : ... .. . ... ... ... : ... .. 6 ... ... ... : ... .. . ... ... ... : ... .. 5 ... ... ...
ROW 2B : E-5 02 . ... ... ... : ... .. . ... ... ... : ... .. . ... ... ... : B-# 01 5 ... ... ... : ... .. . ... ... ... : ... .. . ... ... ...
ROW 2C : E-6 02 . ... ... ... : ... .. . ... ... ... : ... .. . ... ... ... : A-# 01 . ... ... ... : ... .. . ... ... ... : ... .. . ... ... ...
ROW 2D : E-5 02 . ... ... ... : ... .. . ... ... ... : ... .. . ... ... ... : B-# 00 . ... ... ... : ... .. . ... ... ... : ... .. 4 ... ... ...
ROW 2E : B-5 00 . ... ... ... : E-5 02 . P7F ... ... : ... .. . ... ... ... : ... .. . ... ... ... : C-1 05 . ... ... ... : ... .. . ... ... ...
ROW 2F : B-4 01 . ... ... ... : ... .. . ... ... ... : ... .. . ... ... ... : ... .. . ... ... ... : ... .. . ... ... ... : ... .. . ... ... ...
ROW 30 : B-5 02 . ... ... ... : D#5 02 . P80 ... ... : ... .. . ... ... ... : ... .. 4 ... ... ... : ... .. . ... ... ... : ... .. . ... ... ...
ROW 31 : B-4 02 . ... ... ... : D-5 02 . P82 ... ... : ... .. . ... ... ... : ... .. . ... ... ... : ... .. . ... ... ... : ... .. . ... ... ...
ROW 32 : B-5 02 . ... ... ... : ... .. . P81 ... ... : --- .. . ... ... ... : ... .. 3 ... ... ... : ... .. . ... ... ... : ... .. 3 ... ... ...
ROW 33 : B-4 02 . ... ... ... : D#5 02 . P7F ... ... : ... .. . ... ... ... : ... .. . ... ... ... : ... .. . ... ... ... : ... .. . ... ... ...
ROW 34 : E-5 00 . ... ... ... : G#4 00 . P80 ... ... : E-3 00 . ... ... ... : 7-# 00 C ... ... ... : C-1 05 . ... ... ... : ... .. 7 ... ... ...
ROW 35 : E-4 01 . ... ... ... : G#4 01 . ... ... ... : E-2 00 . ... ... ... : 3-# 00 8 ... ... ... : ... .. . ... ... ... : ... .. 6 ... ... ...
ROW 36 : E-5 02 . ... ... ... : G#4 02 . ... ... ... : ... .. . ... ... ... : 6-# 00 B ... ... ... : ... .. . ... ... ... : ... .. 5 ... ... ...
ROW 37 : E-4 02 . ... ... ... : ... .. . ... ... ... : ... .. . ... ... ... : A-# 00 7 ... ... ... : ... .. . ... ... ... : ... .. . ... ... ...
ROW 38 : E-5 02 . ... ... ... : ... .. . ... ... ... : ... .. . ... ... ... : B-# 00 8 ... ... ... : ... .. . ... ... ... : ... .. . ... ... ...
ROW 39 : E-4 02 . ... ... ... : ... .. . ... ... ... : ... .. . ... ... ... : C-# 00 7 ... ... ... : ... .. . ... ... ... : ... .. 3 ... ... ...
ROW 3A : B-4 00 . ... ... ... : ... .. . ... ... ... : ... .. . ... ... ... : 9-# 00 . ... ... ... : C-1 05 . ... ... ... : ... .. 7 ... ... ...
ROW 3B : B-3 01 . ... ... ... : D#5 01 6 ... ... ... : ... .. . ... ... ... : ... .. 6 ... ... ... : ... .. . ... ... ... : ... .. 6 ... ... ...
ROW 3C : B-4 02 . ... ... ... : ... .. . ... ... ... : ... .. . ... ... ... : ... .. . ... ... ... : ... .. . ... ... ... : ... .. 5 ... ... ...
ROW 3D : B-3 02 . ... ... ... : ... .. . ... ... ... : ... .. . ... ... ... : ... .. . ... ... ... : ... .. . ... ... ... : ... .. . ... ... ...
ROW 3E : B-4 02 . ... ... ... : ... .. . ... ... ... : ... .. . ... ... ... : ... .. . ... ... ... : ... .. . ... ... ... : ... .. . ... ... ...
ROW 3F : B-3 02 . ... ... ... : ... .. . ... ... ... : --- .. . ... ... ... : ... .. . ... ... ... : ... .. . ... ... ... : ... .. 3 ... ... ...
ROW 40 : E-4 00 . ... ... ... : G#5 00 C ... ... ... : E-3 00 . ... ... ... : 9-# 01 A ... ... ... : A-1 05 . ... ... ... : E-3 04 7 I02 J43 ...
ROW 41 : E-3 01 . ... ... ... : G#5 01 . ... ... ... : E-2 00 . ... ... ... : A-# 00 7 ... ... ... : ... .. . ... ... ... : ... .. 6 ... ... ...
ROW 42 : E-4 02 . ... ... ... : G#5 02 . ... ... ... : ... .. . ... ... ... : ... .. 6 ... ... ... : ... .. . ... ... ... : ... .. 5 ... ... ...
ROW 43 : E-3 02 . ... ... ... : ... .. . ... ... ... : ... .. . ... ... ... : B-# 01 5 ... ... ... : ... .. . ... ... ... : ... .. . ... ... ...
ROW 44 : E-4 02 . ... ... ... : ... .. . ... ... ... : ... .. . ... ... ... : A-# 01 . ... ... ... : ... .. . ... ... ... : ... .. . ... ... ...
ROW 45 : E-3 02 . ... ... ... : ... .. . ... ... ... : ... .. . ... ... ... : B-# 00 . ... ... ... : ... .. . ... ... ... : ... .. 3 ... ... ...
ROW 46 : B-4 00 . ... ... ... : G-5 02 . P81 ... ... : ... .. . ... ... ... : ... .. . ... ... ... : A-1 05 . ... ... ... : ... .. 7 ... ... ...
ROW 47 : B-3 01 . ... ... ... : ... .. . P7E ... ... : ... .. . ... ... ... : ... .. . ... ... ... : ... .. . ... ... ... : ... .. 6 ... ... ...
ROW 48 : B-4 02 . ... ... ... : F#5 02 . P80 ... ... : ... .. . ... ... ... : ... .. 4 ... ... ... : ... .. . ... ... ... : ... .. 5 ... ... ...
ROW 49 : B-3 02 . ... ... ... : ... .. . ... ... ... : ... .. . ... ... ... : ... .. . ... ... ... : ... .. . ... ... ... : ... .. . ... ... ...
ROW 4A : B-4 02 . ... ... ... : ... .. . ... ... ... : --- .. . ... ... ... : ... .. 3 ... ... ... : ... .. . ... ... ... : ... .. . ... ... ...
ROW 4B : B-3 02 . ... ... ... : ... .. . ... ... ... : ... .. . ... ... ... : ... .. . ... ... ... : ... .. . ... ... ... : ... .. 3 ... ... ...
ROW 4C : E-5 00 . ... ... ... : ... .. . ... ... ... : E-3 00 . ... ... ... : 7-# 00 C ... ... ... : A-1 05 . ... ... ... : A-3 04 7 I03 J06 ...
ROW 4D : E-4 01 . ... ... ... : ... .. . ... ... ... : E-2 00 . ... ... ... : 3-# 00 8 ... ... ... : ... .. . ... ... ... : ... .. 6 ... ... ...
ROW 4E : E-5 02 . ... ... ... : ... .. . ... ... ... : ... .. . ... ... ... : 6-# 00 B ... ... ... : ... .. . ... ... ... : ... .. 5 ... ... ...
ROW 4F : E-4 02 . ... ... ... : ... .. . P81 ... ... : ... .. . ... ... ... : A-# 00 7 ... ... ... : ... .. . ... ... ... : ... .. . ... ... ...
ROW 50 : E-5 02 . ... ... ... : ... .. . P82 ... ... : ... .. . ... ... ... : B-# 00 8 ... ... ... : ... .. . ... ... ... : ... .. . ... ... ...
ROW 51 : E-4 02 . ... ... ... : G-5 02 . P7E ... ... : ... .. . ... ... ... : C-# 00 7 ... ... ... : ... .. . ... ... ... : ... .. 3 ... ... ...
ROW 52 : B-5 00 . ... ... ... : ... .. . P7F ... ... : ... .. . ... ... ... : 9-# 00 . ... ... ... : A-1 05 . ... ... ... : ... .. 7 ... ... ...
ROW 53 : B-4 01 . ... ... ... : ... .. . P80 ... ... : ... .. . ... ... ... : ... .. 6 ... ... ... : ... .. . ... ... ... : ... .. 6 ... ... ...
ROW 54 : B-5 02 . ... ... ... : ... .. . P81 ... ... : ... .. . ... ... ... : ... .. . ... ... ... : ... .. . ... ... ... : ... .. 5 ... ... ...
ROW 55 : B-4 02 . ... ... ... : ... .. . P82 ... ... : ... .. . ... ... ... : ... .. . ... ... ... : ... .. . ... ... ... : ... .. . ... ... ...
ROW 56 : B-5 02 . ... ... ... : G#5 02 . P7F ... ... : ... .. . ... ... ... : ... .. . ... ... ... : ... .. . ... ... ... : ... .. . ... ... ...
ROW 57 : B-4 02 . ... ... ... : ... .. . P80 ... ... : --- .. . ... ... ... : ... .. . ... ... ... : ... .. . ... ... ... : ... .. 3 ... ... ...
ROW 58 : G-6 00 . ... ... ... : A-5 02 . ... ... ... : G-3 00 . ... ... ... : 9-# 01 A ... ... ... : C-1 05 . ... ... ... : C-3 04 7 I01 JCB ...
ROW 59 : G-5 01 . ... ... ... : ... .. . ... ... ... : G-2 00 . ... ... ... : A-# 00 7 ... ... ... : ... .. . ... ... ... : ... .. 6 ... ... ...
ROW 5A : G-6 02 . ... ... ... : G#5 02 . ... ... ... : ... .. . ... ... ... : ... .. 6 ... ... ... : ... .. . ... ... ... : ... .. 5 ... ... ...
ROW 5B : G-5 02 . ... ... ... : G-5 02 . P82 ... ... : ... .. . ... ... ... : B-# 01 5 ... ... ... : ... .. . ... ... ... : ... .. . ... ... ...
ROW 5C : G-6 02 . ... ... ... : ... .. . P81 ... ... : ... .. . ... ... ... : A-# 01 . ... ... ... : ... .. . ... ... ... : ... .. . ... ... ...
ROW 5D : G-5 02 . ... ... ... : G#5 02 . P7F ... ... : ... .. . ... ... ... : B-# 00 . ... ... ... : ... .. . ... ... ... : ... .. 4 ... ... ...
ROW 5E : D-6 00 . ... ... ... : A-5 02 . ... ... ... : ... .. . ... ... ... : ... .. . ... ... ... : A#1 05 . ... ... ... : ... .. . ... ... ...
ROW 5F : D-5 01 . ... ... ... : ... .. . P80 ... ... : ... .. . ... ... ... : ... .. . ... ... ... : ... .. . ... ... ... : ... .. . ... ... ...
ROW 60 : D-6 02 . ... ... ... : G#5 02 . P81 ... ... : ... .. . ... ... ... : ... .. 4 ... ... ... : ... .. . ... ... ... : ... .. . ... ... ...
ROW 61 : D-5 02 . ... ... ... : ... .. . P7F ... ... : ... .. . ... ... ... : ... .. . ... ... ... : ... .. . ... ... ... : ... .. . ... ... ...
ROW 62 : D-6 02 . ... ... ... : G-5 02 . P81 ... ... : --- .. . ... ... ... : ... .. 3 ... ... ... : ... .. . ... ... ... : ... .. 3 ... ... ...
ROW 63 : D-5 02 . ... ... ... : ... .. . P82 ... ... : ... .. . ... ... ... : ... .. . ... ... ... : ... .. . ... ... ... : ... .. . ... ... ...
ROW 64 : G-5 00 . ... ... ... : G#5 02 . P7F ... ... : G-3 00 . ... ... ... : 7-# 00 C ... ... ... : A-1 05 . ... ... ... : ... .. 7 ... ... ...
ROW 65 : G-4 01 . ... ... ... : ... .. . P81 ... ... : G-2 00 . ... ... ... : 3-# 00 8 ... ... ... : ... .. . ... ... ... : ... .. 6 ... ... ...
ROW 66 : G-5 02 . ... ... ... : ... .. . P80 ... ... : ... .. . ... ... ... : 6-# 00 B ... ... ... : ... .. . ... ... ... : ... .. 5 ... ... ...
ROW 67 : G-4 02 . ... ... ... : G-5 02 . ... ... ... : ... .. . ... ... ... : A-# 00 7 ... ... ... : ... .. . ... ... ... : ... .. . ... ... ...
ROW 68 : G-5 02 . ... ... ... : F#5 02 . P82 ... ... : ... .. . ... ... ... : B-# 00 8 ... ... ... : ... .. . ... ... ... : ... .. . ... ... ...
ROW 69 : G-4 02 . ... ... ... : ... .. . ... ... ... : ... .. . ... ... ... : C-# 00 7 ... ... ... : ... .. . ... ... ... : ... .. 3 ... ... ...
ROW 6A : D-5 00 . ... ... ... : G-5 02 . P80 ... ... : ... .. . ... ... ... : 9-# 00 . ... ... ... : ... .. . ... ... ... : ... .. 7 ... ... ...
ROW 6B : D-4 01 . ... ... ... : ... .. . P82 ... ... : ... .. . ... ... ... : ... .. 6 ... ... ... : A#1 05 . ... ... ... : ... .. 6 ... ... ...
ROW 6C : D-5 02 . ... ... ... : A-5 01 6 P80 ... ... : ... .. . ... ... ... : ... .. . ... ... ... : ... .. . ... ... ... : ... .. 5 ... ... ...
ROW 6D : D-4 02 . ... ... ... : G#5 01 . P81 ... ... : ... .. . ... ... ... : ... .. . ... ... ... : ... .. . ... ... ... : ... .. . ... ... ...
ROW 6E : D-5 02 . ... ... ... : G-5 01 . P82 ... ... : ... .. . ... ... ... : ... .. . ... ... ... : ... .. . ... ... ... : ... .. . ... ... ...
ROW 6F : D-4 02 . ... ... ... : ... .. . P81 ... ... : --- .. . ... ... ... : ... .. . ... ... ... : ... .. . ... ... ... : ... .. 3 ... ... ...
ROW 70 : G-4 00 . ... ... ... : D-5 00 C P80 ... ... : G-3 00 . ... ... ... : 9-# 01 A ... ... ... : C-1 05 . ... ... ... : G-3 04 7 I02 JB2 ...
ROW 71 : G-3 01 . ... ... ... : D-5 01 . ... ... ... : G-2 00 . ... ... ... : A-# 00 7 ... ... ... : ... .. . ... ... ... : ... .. 6 ... ... ...
ROW 72 : G-4 02 . ... ... ... : D-5 02 . ... ... ... : ... .. . ... ... ... : ... .. 6 ... ... ... : ... .. . ... ... ... : ... .. 5 ... ... ...
ROW 73 : G-3 02 . ... ... ... : C#5 02 . P83 ... ... : ... .. . ... ... ... : B-# 01 5 ... ... ... : ... .. . ... ... ... : ... .. . ... ... ...
ROW 74 : G-4 02 . ... ... ... : ... .. . P80 ... ... : ... .. . ... ... ... : A-# 01 . ... ... ... : ... .. . ... ... ... : ... .. . ... ... ...
ROW 75 : G-3 02 . ... ... ... : C-5 02 . P83 ... ... : ... .. . ... ... ... : B-# 00 . ... ... ... : ... .. . ... ... ... : ... .. 3 ... ... ...
ROW 76 : D-5 00 . ... ... ... : C#5 02 . P7E ... ... : ... .. . ... ... ... : ... .. . ... ... ... : A#1 05 . ... ... ... : ... .. 7 ... ... ...
ROW 77 : D-4 01 . ... ... ... : ... .. . P7F ... ... : ... .. . ... ... ... : ... .. . ... ... ... : ... .. . ... ... ... : ... .. 6 ... ... ...
ROW 78 : D-5 02 . ... ... ... : ... .. . P80 ... ... : ... .. . ... ... ... : ... .. 4 ... ... ... : ... .. . ... ... ... : ... .. 5 ... ... ...
ROW 79 : D-4 02 . ... ... ... : ... .. . P81 ... ... : ... .. . ... ... ... : ... .. . ... ... ... : ... .. . ... ... ... : ... .. . ... ... ...
ROW 7A : D-5 02 . ... ... ... : ... .. . P82 ... ... : --- .. . ... ... ... : ... .. 3 ... ... ... : ... .. . ... ... ... : ... .. . ... ... ...
ROW 7B : D-4 02 . ... ... ... : ... .. . P83 ... ... : ... .. . ... ... ... : ... .. . ... ... ... : ... .. . ... ... ... : ... .. 3 ... ... ...
ROW 7C : G-5 00 . ... ... ... : D-5 02 . P7E ... ... : G-3 00 . ... ... ... : 7-# 00 C ... ... ... : A-1 05 . ... ... ... : C-4 04 7 I03 J99 ...
ROW 7D : G-4 01 . ... ... ... : ... .. . P7F ... ... : G-2 00 . ... ... ... : 3-# 00 8 ... ... ... : ... .. . ... ... ... : ... .. 6 ... ... ...
ROW 7E : G-5 02 . ... ... ... : ... .. . P80 ... ... : ... .. . ... ... ... : 6-# 00 B ... ... ... : ... .. . ... ... ... : ... .. 5 ... ... ...
ROW 7F : G-4 02 . ... ... ... : ... .. . ... ... ... : ... .. . ... ... ... : A-# 00 7 ... ... ... : ... .. . ... ... ... : ... .. . ... ... ...
ROW 80 : G-5 02 . ... ... ... : ... .. . ... ... ... : ... .. . ... ... ... : B-# 00 8 ... ... ... : ... .. . ... ... ... : ... .. . ... ... ...
ROW 81 : G-4 02 . ... ... ... : ... .. . ... ... ... : ... .. . ... ... ... : C-# 00 7 ... ... ... : ... .. . ... ... ... : ... .. 3 ... ... ...
ROW 82 : D-6 00 . ... ... ... : ... .. . ... ... ... : ... .. . ... ... ... : 9-# 00 . ... ... ... : ... .. . ... ... ... : ... .. 7 ... ... ...
ROW 83 : D-5 01 . ... ... ... : ... .. . ... ... ... : ... .. . ... ... ... : ... .. 6 ... ... ... : A#1 05 . ... ... ... : ... .. 6 ... ... ...
ROW 84 : D-6 02 . ... ... ... : ... .. . ... ... ... : ... .. . ... ... ... : ... .. . ... ... ... : ... .. . ... ... ... : ... .. 5 ... ... ...
ROW 85 : D-5 02 . ... ... ... : D#5 01 6 ... ... ... : ... .. . ... ... ... : ... .. . ... ... ... : ... .. . ... ... ... : ... .. . ... ... ...
ROW 86 : D-6 02 . ... ... ... : ... .. . ... ... ... : ... .. . ... ... ... : ... .. . ... ... ... : ... .. . ... ... ... : ... .. . ... ... ...
ROW 87 : D-5 02 . ... ... ... : ... .. . ... ... ... : --- .. . ... ... ... : ... .. . ... ... ... : ... .. . ... ... ... : ... .. 3 ... ... ...
ROW 88 : F-6 00 . ... ... ... : F-5 00 C ... ... ... : A#3 00 . ... ... ... : 9-# 01 A ... ... ... : C-1 05 . ... ... ... : D#3 04 7 I02 J22 ...
ROW 89 : F-5 01 . ... ... ... : F-5 01 . ... ... ... : A#2 00 . ... ... ... : A-# 00 7 ... ... ... : ... .. . ... ... ... : ... .. 6 ... ... ...
ROW 8A : F-6 02 . ... ... ... : F-5 02 . ... ... ... : ... .. . ... ... ... : ... .. 6 ... ... ... : ... .. . ... ... ... : ... .. 5 ... ... ...
ROW 8B : F-5 02 . ... ... ... : ... .. . ... ... ... : ... .. . ... ... ... : B-# 01 5 ... ... ... : ... .. . ... ... ... : ... .. . ... ... ...
ROW 8C : F-6 02 . ... ... ... : ... .. . ... ... ... : ... .. . ... ... ... : A-# 01 . ... ... ... : ... .. . ... ... ... : ... .. . ... ... ...
ROW 8D : F-5 02 . ... ... ... : D-5 01 6 ... ... ... : ... .. . ... ... ... : B-# 00 . ... ... ... : ... .. . ... ... ... : ... .. 4 ... ... ...
ROW 8E : A#5 00 . ... ... ... : C#5 00 C ... ... ... : ... .. . ... ... ... : ... .. . ... ... ... : A#1 05 . ... ... ... : ... .. . ... ... ...
ROW 8F : A#4 01 . ... ... ... : C#5 01 . ... ... ... : ... .. . ... ... ... : ... .. . ... ... ... : ... .. . ... ... ... : ... .. . ... ... ...
ROW 90 : A#5 02 . ... ... ... : C#5 02 . ... ... ... : ... .. . ... ... ... : ... .. 4 ... ... ... : ... .. . ... ... ... : ... .. . ... ... ...
ROW 91 : A#4 02 . ... ... ... : ... .. . ... ... ... : ... .. . ... ... ... : ... .. . ... ... ... : ... .. . ... ... ... : ... .. . ... ... ...
ROW 92 : A#5 02 . ... ... ... : ... .. . ... ... ... : --- .. . ... ... ... : ... .. 3 ... ... ... : ... .. . ... ... ... : ... .. 3 ... ... ...
ROW 93 : A#4 02 . ... ... ... : F-5 01 6 ... ... ... : ... .. . ... ... ... : ... .. . ... ... ... : ... .. . ... ... ... : ... .. . ... ... ...
ROW 94 : F-5 00 . ... ... ... : C-5 00 C ... ... ... : A#3 00 . ... ... ... : 7-# 00 C ... ... ... : A-1 05 . ... ... ... : ... .. 7 ... ... ...
ROW 95 : F-4 01 . ... ... ... : C-5 01 . ... ... ... : A#2 00 . ... ... ... : 3-# 00 8 ... ... ... : ... .. . ... ... ... : ... .. 6 ... ... ...
ROW 96 : F-5 02 . ... ... ... : C-5 02 . ... ... ... : ... .. . ... ... ... : 6-# 00 B ... ... ... : ... .. . ... ... ... : ... .. 5 ... ... ...
ROW 97 : F-4 02 . ... ... ... : ... .. . ... ... ... : ... .. . ... ... ... : A-# 00 7 ... ... ... : ... .. . ... ... ... : ... .. . ... ... ...
ROW 98 : F-5 02 . ... ... ... : ... .. . ... ... ... : ... .. . ... ... ... : B-# 00 8 ... ... ... : ... .. . ... ... ... : ... .. . ... ... ...
ROW 99 : F-4 02 . ... ... ... : C#5 01 6 ... ... ... : ... .. . ... ... ... : C-# 00 7 ... ... ... : ... .. . ... ... ... : ... .. 3 ... ... ...
ROW 9A : A#4 00 . ... ... ... : A#4 00 C ... ... ... : ... .. . ... ... ... : 9-# 00 . ... ... ... : ... .. . ... ... ... : ... .. 7 ... ... ...
ROW 9B : A#3 01 . ... ... ... : A#4 01 . ... ... ... : ... .. . ... ... ... : ... .. 6 ... ... ... : A#1 05 . ... ... ... : ... .. 6 ... ... ...
ROW 9C : A#4 02 . ... ... ... : A#4 02 . ... ... ... : ... .. . ... ... ... : ... .. . ... ... ... : ... .. . ... ... ... : ... .. 5 ... ... ...
ROW 9D : A#3 02 . ... ... ... : ... .. . ... ... ... : ... .. . ... ... ... : ... .. . ... ... ... : ... .. . ... ... ... : ... .. . ... ... ...
ROW 9E : A#4 02 . ... ... ... : ... .. . ... ... ... : ... .. . ... ... ... : ... .. . ... ... ... : ... .. . ... ... ... : ... .. . ... ... ...
ROW 9F : A#3 02 . ... ... ... : C-5 01 6 ... ... ... : --- .. . ... ... ... : ... .. . ... ... ... : ... .. . ... ... ... : ... .. 3 ... ... ...
ROW A0 : F-4 00 . ... ... ... : C-5 00 C ... ... ... : A#3 00 . ... ... ... : 9-# 01 A ... ... ... : C-1 05 . ... ... ... : A#3 04 7 I03 J33 ...
ROW A1 : F-3 01 . ... ... ... : C-5 01 . ... ... ... : A#2 00 . ... ... ... : A-# 00 7 ... ... ... : ... .. . ... ... ... : ... .. 6 ... ... ...
ROW A2 : F-4 02 . ... ... ... : C-5 02 . ... ... ... : ... .. . ... ... ... : ... .. 6 ... ... ... : ... .. . ... ... ... : ... .. 5 ... ... ...
ROW A3 : F-3 02 . ... ... ... : ... .. . ... ... ... : ... .. . ... ... ... : B-# 01 5 ... ... ... : ... .. . ... ... ... : ... .. . ... ... ...
ROW A4 : F-4 02 . ... ... ... : ... .. . ... ... ... : ... .. . ... ... ... : A-# 01 . ... ... ... : ... .. . ... ... ... : ... .. . ... ... ...
ROW A5 : F-3 02 . ... ... ... : A#4 01 6 ... ... ... : ... .. . ... ... ... : B-# 00 . ... ... ... : ... .. . ... ... ... : ... .. 3 ... ... ...
ROW A6 : A#4 00 . ... ... ... : A#4 00 C ... ... ... : ... .. . ... ... ... : ... .. . ... ... ... : A#1 05 . ... ... ... : ... .. 7 ... ... ...
ROW A7 : A#3 01 . ... ... ... : A#4 01 . ... ... ... : ... .. . ... ... ... : ... .. . ... ... ... : ... .. . ... ... ... : ... .. 6 ... ... ...
ROW A8 : A#4 02 . ... ... ... : A#4 02 . ... ... ... : ... .. . ... ... ... : ... .. 4 ... ... ... : ... .. . ... ... ... : ... .. 5 ... ... ...
ROW A9 : A#3 02 . ... ... ... : ... .. . ... ... ... : ... .. . ... ... ... : ... .. . ... ... ... : ... .. . ... ... ... : ... .. . ... ... ...
ROW AA : A#4 02 . ... ... ... : ... .. . ... ... ... : --- .. . ... ... ... : ... .. 3 ... ... ... : ... .. . ... ... ... : ... .. . ... ... ...
ROW AB : A#3 02 . ... ... ... : C-5 01 6 ... ... ... : ... .. . ... ... ... : ... .. . ... ... ... : ... .. . ... ... ... : ... .. 3 ... ... ...
ROW AC : F-5 00 . ... ... ... : G#4 00 C ... ... ... : A#3 00 . ... ... ... : 7-# 00 C ... ... ... : A-1 05 . ... ... ... : D#4 04 7 I04 J47 ...
ROW AD : F-4 01 . ... ... ... : G#4 01 . ... ... ... : A#2 00 . ... ... ... : 3-# 00 8 ... ... ... : ... .. . ... ... ... : ... .. 6 ... ... ...
ROW AE : F-5 02 . ... ... ... : G#4 02 . ... ... ... : ... .. . ... ... ... : 6-# 00 B ... ... ... : ... .. . ... ... ... : ... .. 5 ... ... ...
ROW AF : F-4 02 . ... ... ... : ... .. . ... ... ... : ... .. . ... ... ... : A-# 00 7 ... ... ... : ... .. . ... ... ... : ... .. . ... ... ...
ROW B0 : F-5 02 . ... ... ... : ... .. . ... ... ... : ... .. . ... ... ... : B-# 00 8 ... ... ... : ... .. . ... ... ... : ... .. . ... ... ...
ROW B1 : F-4 02 . ... ... ... : A#4 01 6 ... ... ... : ... .. . ... ... ... : C-# 00 7 ... ... ... : ... .. . ... ... ... : ... .. 3 ... ... ...
ROW B2 : A#5 00 . ... ... ... : F-4 00 C ... ... ... : ... .. . ... ... ... : 9-# 00 . ... ... ... : ... .. . ... ... ... : ... .. 7 ... ... ...
ROW B3 : A#4 01 . ... ... ... : F-4 01 . ... ... ... : ... .. . ... ... ... : ... .. 6 ... ... ... : A#1 05 . ... ... ... : ... .. 6 ... ... ...
ROW B4 : A#5 02 . ... ... ... : F-4 02 . ... ... ... : ... .. . ... ... ... : ... .. . ... ... ... : ... .. . ... ... ... : ... .. 5 ... ... ...
ROW B5 : A#4 02 . ... ... ... : ... .. . ... ... ... : ... .. . ... ... ... : ... .. . ... ... ... : ... .. . ... ... ... : ... .. . ... ... ...
ROW B6 : A#5 02 . ... ... ... : ... .. . ... ... ... : ... .. . ... ... ... : ... .. . ... ... ... : ... .. . ... ... ... : ... .. . ... ... ...
ROW B7 : A#4 02 . ... ... ... : G#4 01 6 ... ... ... : --- .. . ... ... ... : ... .. . ... ... ... : ... .. . ... ... ... : ... .. 3 ... ... ...
ROW B8 : C-6 00 . ... ... ... : F-4 00 C P83 ... ... : C-4 00 . ... ... ... : 9-# 01 A ... ... ... : C-1 05 . ... ... ... : F-3 04 7 I02 J67 ...
ROW B9 : C-5 01 . ... ... ... : F#4 01 . P7D ... ... : C-3 00 . ... ... ... : A-# 00 7 ... ... ... : ... .. . ... ... ... : ... .. 6 ... ... ...
ROW BA : C-6 02 . ... ... ... : F#4 02 . P80 ... ... : ... .. . ... ... ... : ... .. 6 ... ... ... : ... .. . ... ... ... : ... .. 5 ... ... ...
ROW BB : C-5 02 . ... ... ... : ... .. . P83 ... ... : ... .. . ... ... ... : B-# 01 5 ... ... ... : ... .. . ... ... ... : ... .. . ... ... ...
ROW BC : C-6 02 . ... ... ... : G-4 02 . P7E ... ... : ... .. . ... ... ... : A-# 01 . ... ... ... : ... .. . ... ... ... : ... .. . ... ... ...
ROW BD : C-5 02 . ... ... ... : ... .. . P80 ... ... : ... .. . ... ... ... : B-# 00 . ... ... ... : ... .. . ... ... ... : ... .. 4 ... ... ...
ROW BE : G-5 00 . ... ... ... : ... .. . P83 ... ... : ... .. . ... ... ... : ... .. . ... ... ... : A#1 05 . ... ... ... : ... .. . ... ... ...
ROW BF : G-4 01 . ... ... ... : ... .. . P84 ... ... : ... .. . ... ... ... : ... .. . ... ... ... : ... .. . ... ... ... : ... .. . ... ... ...
ROW C0 : G-5 02 . ... ... ... : ... .. . P83 ... ... : ... .. . ... ... ... : ... .. 4 ... ... ... : ... .. . ... ... ... : ... .. . ... ... ...
ROW C1 : G-4 02 . ... ... ... : ... .. . P80 ... ... : ... .. . ... ... ... : ... .. . ... ... ... : ... .. . ... ... ... : ... .. . ... ... ...
ROW C2 : G-5 02 . ... ... ... : ... .. . P7D ... ... : --- .. . ... ... ... : ... .. 3 ... ... ... : ... .. . ... ... ... : ... .. 3 ... ... ...
ROW C3 : G-4 02 . ... ... ... : F#4 02 . P84 ... ... : ... .. . ... ... ... : ... .. . ... ... ... : ... .. . ... ... ... : ... .. . ... ... ...
ROW C4 : C-5 00 . ... ... ... : G-4 02 . P7D ... ... : C-4 00 . ... ... ... : 7-# 00 C ... ... ... : A-1 05 . ... ... ... : ... .. 7 ... ... ...
ROW C5 : C-4 01 . ... ... ... : ... .. . P80 ... ... : C-3 00 . ... ... ... : 3-# 00 8 ... ... ... : ... .. . ... ... ... : ... .. 6 ... ... ...
ROW C6 : C-5 02 . ... ... ... : ... .. . P83 ... ... : ... .. . ... ... ... : 6-# 00 B ... ... ... : ... .. . ... ... ... : ... .. 5 ... ... ...
ROW C7 : C-4 02 . ... ... ... : ... .. . P84 ... ... : ... .. . ... ... ... : A-# 00 7 ... ... ... : ... .. . ... ... ... : ... .. . ... ... ...
ROW C8 : C-5 02 . ... ... ... : ... .. . P83 ... ... : ... .. . ... ... ... : B-# 00 8 ... ... ... : ... .. . ... ... ... : ... .. . ... ... ...
ROW C9 : C-4 02 . ... ... ... : ... .. . P80 ... ... : ... .. . ... ... ... : C-# 00 7 ... ... ... : ... .. . ... ... ... : ... .. 3 ... ... ...
ROW CA : G-4 00 . ... ... ... : D-5 00 . ... ... ... : ... .. . ... ... ... : 9-# 00 . ... ... ... : ... .. . ... ... ... : ... .. 7 ... ... ...
ROW CB : G-3 01 . ... ... ... : D-5 01 . ... ... ... : ... .. . ... ... ... : ... .. 6 ... ... ... : A#1 05 . ... ... ... : ... .. 6 ... ... ...
ROW CC : G-4 02 . ... ... ... : D-5 02 . ... ... ... : ... .. . ... ... ... : ... .. . ... ... ... : ... .. . ... ... ... : ... .. 5 ... ... ...
ROW CD : G-3 02 . ... ... ... : ... .. . ... ... ... : ... .. . ... ... ... : ... .. . ... ... ... : ... .. . ... ... ... : ... .. . ... ... ...
ROW CE : G-4 02 . ... ... ... : ... .. . ... ... ... : ... .. . ... ... ... : ... .. . ... ... ... : ... .. . ... ... ... : ... .. . ... ... ...
ROW CF : G-3 02 . ... ... ... : ... .. . ... ... ... : --- .. . ... ... ... : ... .. . ... ... ... : ... .. . ... ... ... : ... .. 3 ... ... ...
ROW D0 : C-4 00 . ... ... ... : ... .. . ... ... ... : C-4 00 . ... ... ... : 9-# 01 A ... ... ... : C-1 05 . ... ... ... : C-4 04 7 I03 J99 ...
ROW D1 : C-3 01 . ... ... ... : ... .. . ... ... ... : C-3 00 . ... ... ... : A-# 00 7 ... ... ... : ... .. . ... ... ... : ... .. 6 ... ... ...
ROW D2 : C-4 02 . ... ... ... : ... .. . ... ... ... : ... .. . ... ... ... : ... .. 6 ... ... ... : ... .. . ... ... ... : ... .. 5 ... ... ...
ROW D3 : C-3 02 . ... ... ... : ... .. . ... ... ... : ... .. . ... ... ... : B-# 01 5 ... ... ... : ... .. . ... ... ... : ... .. . ... ... ...
ROW D4 : C-4 02 . ... ... ... : ... .. . ... ... ... : ... .. . ... ... ... : A-# 01 . ... ... ... : ... .. . ... ... ... : ... .. . ... ... ...
ROW D5 : C-3 02 . ... ... ... : ... .. . ... ... ... : ... .. . ... ... ... : B-# 00 . ... ... ... : ... .. . ... ... ... : ... .. 3 ... ... ...
ROW D6 : G-4 00 . ... ... ... : ... .. . ... ... ... : ... .. . ... ... ... : ... .. . ... ... ... : A#1 05 . ... ... ... : ... .. 7 ... ... ...
ROW D7 : G-3 01 . ... ... ... : ... .. . ... ... ... : ... .. . ... ... ... : ... .. . ... ... ... : ... .. . ... ... ... : ... .. 6 ... ... ...
ROW D8 : G-4 02 . ... ... ... : G-4 01 6 ... ... ... : ... .. . ... ... ... : ... .. 4 ... ... ... : ... .. . ... ... ... : ... .. 5 ... ... ...
ROW D9 : G-3 02 . ... ... ... : ... .. . ... ... ... : ... .. . ... ... ... : ... .. . ... ... ... : ... .. . ... ... ... : ... .. . ... ... ...
ROW DA : G-4 02 . ... ... ... : D-5 01 . ... ... ... : --- .. . ... ... ... : ... .. 3 ... ... ... : ... .. . ... ... ... : ... .. . ... ... ...
ROW DB : G-3 02 . ... ... ... : ... .. . ... ... ... : ... .. . ... ... ... : ... .. . ... ... ... : ... .. . ... ... ... : ... .. 3 ... ... ...
ROW DC : C-5 00 . ... ... ... : D#5 00 C ... ... ... : C-4 00 . ... ... ... : 7-# 00 C ... ... ... : A-1 05 . ... ... ... : F-4 04 7 I04 JCB ...
ROW DD : C-4 01 . ... ... ... : D#5 01 . ... ... ... : C-3 00 . ... ... ... : 3-# 00 8 ... ... ... : ... .. . ... ... ... : ... .. 6 ... ... ...
ROW DE : C-5 02 . ... ... ... : D#5 02 . ... ... ... : ... .. . ... ... ... : 6-# 00 B ... ... ... : ... .. . ... ... ... : ... .. 5 ... ... ...
ROW DF : C-4 02 . ... ... ... : ... .. . ... ... ... : ... .. . ... ... ... : A-# 00 7 ... ... ... : ... .. . ... ... ... : ... .. . ... ... ...
ROW E0 : C-5 02 . ... ... ... : ... .. . ... ... ... : ... .. . ... ... ... : B-# 00 8 ... ... ... : ... .. . ... ... ... : ... .. . ... ... ...
ROW E1 : C-4 02 . ... ... ... : ... .. . ... ... ... : ... .. . ... ... ... : C-# 00 7 ... ... ... : ... .. . ... ... ... : ... .. 3 ... ... ...
ROW E2 : G-5 00 . ... ... ... : ... .. . ... ... ... : ... .. . ... ... ... : 9-# 00 . ... ... ... : ... .. . ... ... ... : ... .. 7 ... ... ...
ROW E3 : G-4 01 . ... ... ... : ... .. . ... ... ... : ... .. . ... ... ... : ... .. 6 ... ... ... : A#1 05 . ... ... ... : ... .. 6 ... ... ...
ROW E4 : G-5 02 . ... ... ... : ... .. . ... ... ... : ... .. . ... ... ... : ... .. . ... ... ... : ... .. . ... ... ... : ... .. 5 ... ... ...
ROW E5 : G-4 02 . ... ... ... : ... .. . ... ... ... : ... .. . ... ... ... : ... .. . ... ... ... : ... .. . ... ... ... : ... .. . ... ... ...
ROW E6 : G-5 02 . ... ... ... : ... .. . ... ... ... : ... .. . ... ... ... : ... .. . ... ... ... : ... .. . ... ... ... : ... .. . ... ... ...
ROW E7 : G-4 02 . ... ... ... : ... .. . ... ... ... : --- .. . ... ... ... : ... .. . ... ... ... : ... .. . ... ... ... : ... .. 3 ... ... ...
ROW E8 : D#6 00 . ... ... ... : D-5 00 . ... ... ... : D#3 00 . ... ... ... : 9-# 01 A ... ... ... : C-1 05 . ... ... ... : G#2 04 . I01 J6E ...
ROW E9 : D#5 01 . ... ... ... : D-5 01 . ... ... ... : D#2 00 . ... ... ... : A-# 00 7 ... ... ... : ... .. . ... ... ... : ... .. 6 ... ... ...
ROW EA : D#6 02 . ... ... ... : D-5 02 . ... ... ... : ... .. . ... ... ... : ... .. 6 ... ... ... : ... .. . ... ... ... : ... .. 5 ... ... ...
ROW EB : D#5 02 . ... ... ... : ... .. . ... ... ... : ... .. . ... ... ... : B-# 01 5 ... ... ... : ... .. . ... ... ... : ... .. . ... ... ...
ROW EC : D#6 02 . ... ... ... : ... .. . ... ... ... : ... .. . ... ... ... : A-# 01 . ... ... ... : ... .. . ... ... ... : ... .. . ... ... ...
ROW ED : D#5 02 . ... ... ... : ... .. . ... ... ... : ... .. . ... ... ... : B-# 00 . ... ... ... : ... .. . ... ... ... : ... .. 4 ... ... ...
ROW EE : A#5 00 . ... ... ... : ... .. . ... ... ... : ... .. . ... ... ... : ... .. . ... ... ... : C-1 05 . ... ... ... : ... .. . ... ... ...
ROW EF : A#4 01 . ... ... ... : ... .. . ... ... ... : ... .. . ... ... ... : ... .. . ... ... ... : ... .. . ... ... ... : ... .. . ... ... ...
ROW F0 : A#5 02 . ... ... ... : ... .. . ... ... ... : ... .. . ... ... ... : ... .. 4 ... ... ... : ... .. . ... ... ... : ... .. . ... ... ...
ROW F1 : A#4 02 . ... ... ... : D#5 01 6 ... ... ... : ... .. . ... ... ... : ... .. . ... ... ... : ... .. . ... ... ... : ... .. . ... ... ...
ROW F2 : A#5 02 . ... ... ... : ... .. . ... ... ... : --- .. . ... ... ... : ... .. 3 ... ... ... : ... .. . ... ... ... : ... .. 3 ... ... ...
ROW F3 : A#4 02 . ... ... ... : ... .. . ... ... ... : ... .. . ... ... ... : ... .. . ... ... ... : ... .. . ... ... ... : ... .. . ... ... ...
ROW F4 : D#5 00 . ... ... ... : C-5 00 C ... ... ... : D#3 00 . ... ... ... : 7-# 00 C ... ... ... : A-1 05 . ... ... ... : ... .. . ... ... ...
ROW F5 : D#4 01 . ... ... ... : C-5 01 . ... ... ... : D#2 00 . ... ... ... : 3-# 00 8 ... ... ... : ... .. . ... ... ... : ... .. 6 ... ... ...
ROW F6 : D#5 02 . ... ... ... : C-5 02 . ... ... ... : ... .. . ... ... ... : 6-# 00 B ... ... ... : ... .. . ... ... ... : ... .. 5 ... ... ...
ROW F7 : D#4 02 . ... ... ... : ... .. . ... ... ... : ... .. . ... ... ... : A-# 00 7 ... ... ... : ... .. . ... ... ... : ... .. . ... ... ...
ROW F8 : D#5 02 . ... ... ... : ... .. . ... ... ... : ... .. . ... ... ... : B-# 00 8 ... ... ... : ... .. . ... ... ... : ... .. . ... ... ...
ROW F9 : D#4 02 . ... ... ... : ... .. . ... ... ... : ... .. . ... ... ... : C-# 00 7 ... ... ... : ... .. . ... ... ... : ... .. 3 ... ... ...
ROW FA : A#4 00 . ... ... ... : ... .. . ... ... ... : ... .. . ... ... ... : 9-# 00 . ... ... ... : ... .. . ... ... ... : ... .. 7 ... ... ...
ROW FB : A#3 01 . ... ... ... : ... .. . ... ... ... : ... .. . ... ... ... : ... .. 6 ... ... ... : C-1 05 . ... ... ... : ... .. 6 ... ... ...
ROW FC : A#4 02 . ... ... ... : ... .. . ... ... ... : ... .. . ... ... ... : ... .. . ... ... ... : ... .. . ... ... ... : ... .. 5 ... ... ...
ROW FD : A#3 02 . ... ... ... : D-5 01 6 ... ... ... : ... .. . ... ... ... : ... .. . ... ... ... : ... .. . ... ... ... : ... .. . ... ... ...
ROW FE : A#4 02 . ... ... ... : ... .. . ... ... ... : ... .. . ... ... ... : ... .. . ... ... ... : ... .. . ... ... ... : ... .. . ... ... ...
ROW FF : A#3 02 . ... ... ... : ... .. . ... ... ... : --- .. . ... ... ... : ... .. . ... ... ... : ... .. . ... ... ... : ... .. 3 ... ... ...

PATTERN 17
ROW 00 : D#4 00 . ... ... ... : A#4 00 C ... ... ... : D#3 00 . ... ... ... : 9-# 01 A ... ... ... : A-1 05 . ... ... ... : D#3 04 7 I02 J22 ...
ROW 01 : D#3 01 . ... ... ... : A#4 01 . ... ... ... : D#2 00 . ... ... ... : A-# 00 7 ... ... ... : ... .. . ... ... ... : ... .. 6 ... ... ...
ROW 02 : D#4 02 . ... ... ... : A#4 02 . ... ... ... : ... .. . ... ... ... : ... .. 6 ... ... ... : ... .. . ... ... ... : ... .. 5 ... ... ...
ROW 03 : D#3 02 . ... ... ... : ... .. . ... ... ... : ... .. . ... ... ... : B-# 01 5 ... ... ... : ... .. . ... ... ... : ... .. . ... ... ...
ROW 04 : D#4 02 . ... ... ... : ... .. . ... ... ... : ... .. . ... ... ... : A-# 01 . ... ... ... : ... .. . ... ... ... : ... .. . ... ... ...
ROW 05 : D#3 02 . ... ... ... : ... .. . ... ... ... : ... .. . ... ... ... : B-# 00 . ... ... ... : ... .. . ... ... ... : ... .. 3 ... ... ...
ROW 06 : A#4 00 . ... ... ... : B-4 02 . P7E ... ... : ... .. . ... ... ... : ... .. . ... ... ... : A-1 05 . ... ... ... : ... .. 7 ... ... ...
ROW 07 : A#3 01 . ... ... ... : ... .. . P7F ... ... : ... .. . ... ... ... : ... .. . ... ... ... : ... .. . ... ... ... : ... .. 6 ... ... ...
ROW 08 : A#4 02 . ... ... ... : A#4 02 . P80 ... ... : ... .. . ... ... ... : ... .. 4 ... ... ... : ... .. . ... ... ... : ... .. 5 ... ... ...
ROW 09 : A#3 02 . ... ... ... : A-4 02 . P83 ... ... : ... .. . ... ... ... : ... .. . ... ... ... : ... .. . ... ... ... : ... .. . ... ... ...
ROW 0A : A#4 02 . ... ... ... : ... .. . P81 ... ... : --- .. . ... ... ... : ... .. 3 ... ... ... : ... .. . ... ... ... : ... .. . ... ... ...
ROW 0B : A#3 02 . ... ... ... : A#4 02 . P7E ... ... : ... .. . ... ... ... : ... .. . ... ... ... : ... .. . ... ... ... : ... .. 3 ... ... ...
ROW 0C : D#5 00 . ... ... ... : ... .. . P83 ... ... : D#3 00 . ... ... ... : 7-# 00 C ... ... ... : A-1 05 . ... ... ... : G#3 04 7 I02 JD9 ...
ROW 0D : D#4 01 . ... ... ... : B-4 02 . P7F ... ... : D#2 00 . ... ... ... : 3-# 00 8 ... ... ... : ... .. . ... ... ... : ... .. 6 ... ... ...
ROW 0E : D#5 02 . ... ... ... : A#4 02 . P83 ... ... : ... .. . ... ... ... : 6-# 00 B ... ... ... : ... .. . ... ... ... : ... .. 5 ... ... ...
ROW 0F : D#4 02 . ... ... ... : ... .. . P7E ... ... : ... .. . ... ... ... : A-# 00 7 ... ... ... : ... .. . ... ... ... : ... .. . ... ... ...
ROW 10 : D#5 02 . ... ... ... : A-4 02 . P81 ... ... : ... .. . ... ... ... : B-# 00 8 ... ... ... : ... .. . ... ... ... : ... .. . ... ... ...
ROW 11 : D#4 02 . ... ... ... : ... .. . P83 ... ... : ... .. . ... ... ... : C-# 00 7 ... ... ... : ... .. . ... ... ... : ... .. 3 ... ... ...
ROW 12 : A#5 00 . ... ... ... : A#4 02 . P81 ... ... : ... .. . ... ... ... : 9-# 00 . ... ... ... : A-1 05 . ... ... ... : ... .. 7 ... ... ...
ROW 13 : A#4 01 . ... ... ... : B-4 02 . P7F ... ... : ... .. . ... ... ... : ... .. 6 ... ... ... : ... .. . ... ... ... : ... .. 6 ... ... ...
ROW 14 : A#5 02 . ... ... ... : ... .. . P7E ... ... : ... .. . ... ... ... : ... .. . ... ... ... : ... .. . ... ... ... : ... .. 5 ... ... ...
ROW 15 : A#4 02 . ... ... ... : A#4 02 . P80 ... ... : ... .. . ... ... ... : ... .. . ... ... ... : ... .. . ... ... ... : ... .. . ... ... ...
ROW 16 : A#5 02 . ... ... ... : A-4 02 . P82 ... ... : ... .. . ... ... ... : ... .. . ... ... ... : ... .. . ... ... ... : ... .. . ... ... ...
ROW 17 : A#4 02 . ... ... ... : ... .. . P81 ... ... : --- .. . ... ... ... : ... .. . ... ... ... : ... .. . ... ... ... : ... .. 3 ... ... ...
ROW 18 : C#6 00 . ... ... ... : A#4 02 . P80 ... ... : F#3 00 . ... ... ... : A-# 00 F ... ... ... : C-1 05 . ... ... ... : B-2 04 7 I01 JB3 ...
ROW 19 : C#5 01 . ... ... ... : B-4 02 . P7D ... ... : F#2 00 . ... ... ... : 7-# 00 B ... ... ... : ... .. . ... ... ... : ... .. 6 ... ... ...
ROW 1A : C#6 02 . ... ... ... : ... .. . P7F ... ... : ... .. . ... ... ... : 8-# 00 E ... ... ... : ... .. . ... ... ... : ... .. 5 ... ... ...
ROW 1B : C#5 02 . ... ... ... : F#4 02 . P82 ... ... : ... .. . ... ... ... : 9-# 00 B ... ... ... : ... .. . ... ... ... : ... .. . ... ... ...
ROW 1C : C#6 02 . ... ... ... : D-4 02 . P85 ... ... : ... .. . ... ... ... : A-# 00 C ... ... ... : ... .. . ... ... ... : ... .. . ... ... ...
ROW 1D : C#5 02 . ... ... ... : C-4 02 . P7B ... ... : ... .. . ... ... ... : B-# 00 B ... ... ... : ... .. . ... ... ... : ... .. 4 ... ... ...
ROW 1E : F#5 00 . ... ... ... : A-3 02 . P87 ... ... : ... .. . ... ... ... : ... .. . ... ... ... : A#1 05 . ... ... ... : ... .. . ... ... ...
ROW 1F : F#4 01 . ... ... ... : G#3 02 . P7C ... ... : ... .. . ... ... ... : A-# 00 A ... ... ... : ... .. . ... ... ... : ... .. . ... ... ...
ROW 20 : F#5 02 . ... ... ... : G-3 02 . P86 ... ... : ... .. . ... ... ... : B-# 00 . ... ... ... : ... .. . ... ... ... : ... .. . ... ... ...
ROW 21 : F#4 02 . ... ... ... : G-3 01 6 P84 ... ... : ... .. . ... ... ... : ... .. 9 ... ... ... : ... .. . ... ... ... : ... .. . ... ... ...
ROW 22 : F#5 02 . ... ... ... : ... .. . P7F ... ... : --- .. . ... ... ... : ... .. . ... ... ... : ... .. . ... ... ... : ... .. 3 ... ... ...
ROW 23 : F#4 02 . ... ... ... : ... .. . P7A ... ... : ... .. . ... ... ... : ... .. . ... ... ... : ... .. . ... ... ... : ... .. . ... ... ...
ROW 24 : C#5 00 . ... ... ... : F#4 00 C P80 ... ... : F#3 00 . ... ... ... : ... .. . ... ... ... : A-1 05 . ... ... ... : ... .. 7 ... ... ...
ROW 25 : C#4 01 . ... ... ... : F#4 01 . ... ... ... : F#2 00 . ... ... ... : ... .. 8 ... ... ... : ... .. . ... ... ... : ... .. 6 ... ... ...
ROW 26 : C#5 02 . ... ... ... : F#4 02 . ... ... ... : ... .. . ... ... ... : ... .. . ... ... ... : ... .. . ... ... ... : ... .. 5 ... ... ...
ROW 27 : C#4 02 . ... ... ... : ... .. . ... ... ... : ... .. . ... ... ... : ... .. . ... ... ... : ... .. . ... ... ... : ... .. . ... ... ...
ROW 28 : C#5 02 . ... ... ... : ... .. 8 ... ... ... : ... .. . ... ... ... : ... .. . ... ... ... : ... .. . ... ... ... : ... .. . ... ... ...
ROW 29 : C#4 02 . ... ... ... : ... .. . ... ... ... : ... .. . ... ... ... : ... .. . ... ... ... : ... .. . ... ... ... : ... .. 3 ... ... ...
ROW 2A : F#4 00 . ... ... ... : G#4 00 C ... ... ... : ... .. . ... ... ... : ... .. 7 ... ... ... : ... .. . ... ... ... : ... .. 7 ... ... ...
ROW 2B : F#3 01 . ... ... ... : G#4 01 . ... ... ... : ... .. . ... ... ... : ... .. . ... ... ... : A#1 05 . ... ... ... : ... .. 6 ... ... ...
ROW 2C : F#4 02 . ... ... ... : G#4 02 . ... ... ... : ... .. . ... ... ... : ... .. . ... ... ... : ... .. . ... ... ... : ... .. 5 ... ... ...
ROW 2D : F#3 02 . ... ... ... : ... .. . ... ... ... : ... .. . ... ... ... : ... .. . ... ... ... : ... .. . ... ... ... : ... .. . ... ... ...
ROW 2E : F#4 02 . ... ... ... : ... .. 8 ... ... ... : ... .. . ... ... ... : ... .. . ... ... ... : ... .. . ... ... ... : ... .. . ... ... ...
ROW 2F : F#3 02 . ... ... ... : ... .. . ... ... ... : --- .. . ... ... ... : ... .. 6 ... ... ... : ... .. . ... ... ... : ... .. 3 ... ... ...
ROW 30 : C#4 00 . ... ... ... : A-4 00 C ... ... ... : F#3 00 . ... ... ... : 9-# 01 A ... ... ... : C-1 05 . ... ... ... : F#3 04 7 I02 J8B ...
ROW 31 : C#3 01 . ... ... ... : A-4 01 . ... ... ... : F#2 00 . ... ... ... : A-# 00 7 ... ... ... : ... .. . ... ... ... : ... .. 6 ... ... ...
ROW 32 : C#4 02 . ... ... ... : A-4 02 . ... ... ... : ... .. . ... ... ... : ... .. 6 ... ... ... : ... .. . ... ... ... : ... .. 5 ... ... ...
ROW 33 : C#3 02 . ... ... ... : ... .. . ... ... ... : ... .. . ... ... ... : B-# 01 5 ... ... ... : ... .. . ... ... ... : ... .. . ... ... ...
ROW 34 : C#4 02 . ... ... ... : ... .. . ... ... ... : ... .. . ... ... ... : A-# 01 . ... ... ... : ... .. . ... ... ... : ... .. . ... ... ...
ROW 35 : C#3 02 . ... ... ... : ... .. . ... ... ... : ... .. . ... ... ... : B-# 00 . ... ... ... : ... .. . ... ... ... : ... .. 3 ... ... ...
ROW 36 : F#4 00 . ... ... ... : ... .. . ... ... ... : ... .. . ... ... ... : ... .. . ... ... ... : A#1 05 . ... ... ... : ... .. 7 ... ... ...
ROW 37 : F#3 01 . ... ... ... : ... .. . ... ... ... : ... .. . ... ... ... : ... .. . ... ... ... : ... .. . ... ... ... : ... .. 6 ... ... ...
ROW 38 : F#4 02 . ... ... ... : ... .. . ... ... ... : ... .. . ... ... ... : ... .. 4 ... ... ... : ... .. . ... ... ... : ... .. 5 ... ... ...
ROW 39 : F#3 02 . ... ... ... : G#4 01 6 ... ... ... : ... .. . ... ... ... : ... .. . ... ... ... : ... .. . ... ... ... : ... .. . ... ... ...
ROW 3A : F#4 02 . ... ... ... : ... .. . ... ... ... : --- .. . ... ... ... : ... .. 3 ... ... ... : ... .. . ... ... ... : ... .. . ... ... ...
ROW 3B : F#3 02 . ... ... ... : ... .. . ... ... ... : ... .. . ... ... ... : ... .. . ... ... ... : ... .. . ... ... ... : ... .. 3 ... ... ...
ROW 3C : C#5 00 . ... ... ... : C#5 00 C ... ... ... : F#3 00 . ... ... ... : 7-# 00 C ... ... ... : A-1 05 . ... ... ... : B-3 04 7 I03 J63 ...
ROW 3D : C#4 01 . ... ... ... : C#5 01 . ... ... ... : F#2 00 . ... ... ... : 3-# 00 8 ... ... ... : ... .. . ... ... ... : ... .. 6 ... ... ...
ROW 3E : C#5 02 . ... ... ... : C#5 02 . ... ... ... : ... .. . ... ... ... : 6-# 00 B ... ... ... : ... .. . ... ... ... : ... .. 5 ... ... ...
ROW 3F : C#4 02 . ... ... ... : ... .. . ... ... ... : ... .. . ... ... ... : A-# 00 7 ... ... ... : ... .. . ... ... ... : ... .. . ... ... ...
ROW 40 : C#5 02 . ... ... ... : ... .. . ... ... ... : ... .. . ... ... ... : B-# 00 8 ... ... ... : ... .. . ... ... ... : ... .. . ... ... ...
ROW 41 : C#4 02 . ... ... ... : ... .. . ... ... ... : ... .. . ... ... ... : C-# 00 7 ... ... ... : ... .. . ... ... ... : ... .. 3 ... ... ...
ROW 42 : F#5 00 . ... ... ... : ... .. . ... ... ... : ... .. . ... ... ... : 9-# 00 . ... ... ... : ... .. . ... ... ... : ... .. 7 ... ... ...
ROW 43 : F#4 01 . ... ... ... : ... .. . ... ... ... : ... .. . ... ... ... : ... .. 6 ... ... ... : A#1 05 . ... ... ... : ... .. 6 ... ... ...
ROW 44 : F#5 02 . ... ... ... : ... .. . ... ... ... : ... .. . ... ... ... : ... .. . ... ... ... : ... .. . ... ... ... : ... .. 5 ... ... ...
ROW 45 : F#4 02 . ... ... ... : A-4 01 6 ... ... ... : ... .. . ... ... ... : ... .. . ... ... ... : ... .. . ... ... ... : ... .. . ... ... ...
ROW 46 : F#5 02 . ... ... ... : ... .. . ... ... ... : ... .. . ... ... ... : ... .. . ... ... ... : ... .. . ... ... ... : ... .. . ... ... ...
ROW 47 : F#4 02 . ... ... ... : ... .. . ... ... ... : --- .. . ... ... ... : ... .. . ... ... ... : ... .. . ... ... ... : ... .. 3 ... ... ...
ROW 48 : E-6 00 . ... ... ... : E-5 00 C ... ... ... : A-3 00 . ... ... ... : 9-# 01 A ... ... ... : C-1 05 . ... ... ... : D-3 04 7 I02 J04 ...
ROW 49 : E-5 01 . ... ... ... : E-5 01 . ... ... ... : A-2 00 . ... ... ... : A-# 00 7 ... ... ... : ... .. . ... ... ... : ... .. 6 ... ... ...
ROW 4A : E-6 02 . ... ... ... : E-5 02 . ... ... ... : ... .. . ... ... ... : ... .. 6 ... ... ... : ... .. . ... ... ... : ... .. 5 ... ... ...
ROW 4B : E-5 02 . ... ... ... : ... .. . ... ... ... : ... .. . ... ... ... : B-# 01 5 ... ... ... : ... .. . ... ... ... : ... .. . ... ... ...
ROW 4C : E-6 02 . ... ... ... : ... .. . ... ... ... : ... .. . ... ... ... : A-# 01 . ... ... ... : ... .. . ... ... ... : ... .. . ... ... ...
ROW 4D : E-5 02 . ... ... ... : ... .. . ... ... ... : ... .. . ... ... ... : B-# 00 . ... ... ... : ... .. . ... ... ... : ... .. 4 ... ... ...
ROW 4E : A-5 00 . ... ... ... : ... .. . ... ... ... : ... .. . ... ... ... : ... .. . ... ... ... : A#1 05 . ... ... ... : ... .. . ... ... ...
ROW 4F : A-4 01 . ... ... ... : ... .. . ... ... ... : ... .. . ... ... ... : ... .. . ... ... ... : ... .. . ... ... ... : ... .. . ... ... ...
ROW 50 : A-5 02 . ... ... ... : ... .. . ... ... ... : ... .. . ... ... ... : ... .. 4 ... ... ... : ... .. . ... ... ... : ... .. . ... ... ...
ROW 51 : A-4 02 . ... ... ... : ... .. . ... ... ... : ... .. . ... ... ... : ... .. . ... ... ... : ... .. . ... ... ... : ... .. . ... ... ...
ROW 52 : A-5 02 . ... ... ... : C#5 01 6 ... ... ... : --- .. . ... ... ... : ... .. 3 ... ... ... : ... .. . ... ... ... : ... .. 3 ... ... ...
ROW 53 : A-4 02 . ... ... ... : ... .. . ... ... ... : ... .. . ... ... ... : ... .. . ... ... ... : ... .. . ... ... ... : ... .. . ... ... ...
ROW 54 : E-5 00 . ... ... ... : C-5 00 C P81 ... ... : A-3 00 . ... ... ... : 7-# 00 C ... ... ... : A-1 05 . ... ... ... : ... .. 7 ... ... ...
ROW 55 : E-4 01 . ... ... ... : B-4 01 . P82 ... ... : A-2 00 . ... ... ... : 3-# 00 8 ... ... ... : ... .. . ... ... ... : ... .. 6 ... ... ...
ROW 56 : E-5 02 . ... ... ... : B-4 02 . P80 ... ... : ... .. . ... ... ... : 6-# 00 B ... ... ... : ... .. . ... ... ... : ... .. 5 ... ... ...
ROW 57 : E-4 02 . ... ... ... : ... .. . ... ... ... : ... .. . ... ... ... : A-# 00 7 ... ... ... : ... .. . ... ... ... : ... .. . ... ... ...
ROW 58 : E-5 02 . ... ... ... : ... .. . ... ... ... : ... .. . ... ... ... : B-# 00 8 ... ... ... : ... .. . ... ... ... : ... .. . ... ... ...
ROW 59 : E-4 02 . ... ... ... : ... .. . ... ... ... : ... .. . ... ... ... : C-# 00 7 ... ... ... : ... .. . ... ... ... : ... .. 3 ... ... ...
ROW 5A : A-4 00 . ... ... ... : ... .. . ... ... ... : ... .. . ... ... ... : 9-# 00 . ... ... ... : ... .. . ... ... ... : ... .. 7 ... ... ...
ROW 5B : A-3 01 . ... ... ... : ... .. . ... ... ... : ... .. . ... ... ... : ... .. 6 ... ... ... : A#1 05 . ... ... ... : ... .. 6 ... ... ...
ROW 5C : A-4 02 . ... ... ... : ... .. . ... ... ... : ... .. . ... ... ... : ... .. . ... ... ... : ... .. . ... ... ... : ... .. 5 ... ... ...
ROW 5D : A-3 02 . ... ... ... : ... .. . ... ... ... : ... .. . ... ... ... : ... .. . ... ... ... : ... .. . ... ... ... : ... .. . ... ... ...
ROW 5E : A-4 02 . ... ... ... : E-5 01 6 ... ... ... : ... .. . ... ... ... : ... .. . ... ... ... : ... .. . ... ... ... : ... .. . ... ... ...
ROW 5F : A-3 02 . ... ... ... : ... .. . ... ... ... : --- .. . ... ... ... : ... .. . ... ... ... : ... .. . ... ... ... : ... .. 3 ... ... ...
ROW 60 : E-4 00 . ... ... ... : E-5 00 C ... ... ... : A-3 00 . ... ... ... : 9-# 01 A ... ... ... : C-1 05 . ... ... ... : A-3 04 7 I03 J06 ...
ROW 61 : E-3 01 . ... ... ... : E-5 01 . ... ... ... : A-2 00 . ... ... ... : A-# 00 7 ... ... ... : ... .. . ... ... ... : ... .. 6 ... ... ...
ROW 62 : E-4 02 . ... ... ... : E-5 02 . ... ... ... : ... .. . ... ... ... : ... .. 6 ... ... ... : ... .. . ... ... ... : ... .. 5 ... ... ...
ROW 63 : E-3 02 . ... ... ... : ... .. . P81 ... ... : ... .. . ... ... ... : B-# 01 5 ... ... ... : ... .. . ... ... ... : ... .. . ... ... ...
ROW 64 : E-4 02 . ... ... ... : ... .. . P82 ... ... : ... .. . ... ... ... : A-# 01 . ... ... ... : ... .. . ... ... ... : ... .. . ... ... ...
ROW 65 : E-3 02 . ... ... ... : ... .. . P81 ... ... : ... .. . ... ... ... : B-# 00 . ... ... ... : ... .. . ... ... ... : ... .. 3 ... ... ...
ROW 66 : A-4 00 . ... ... ... : ... .. . P80 ... ... : ... .. . ... ... ... : ... .. . ... ... ... : A#1 05 . ... ... ... : ... .. 7 ... ... ...
ROW 67 : A-3 01 . ... ... ... : ... .. . P7F ... ... : ... .. . ... ... ... : ... .. . ... ... ... : ... .. . ... ... ... : ... .. 6 ... ... ...
ROW 68 : A-4 02 . ... ... ... : ... .. . P7E ... ... : ... .. . ... ... ... : ... .. 4 ... ... ... : ... .. . ... ... ... : ... .. 5 ... ... ...
ROW 69 : A-3 02 . ... ... ... : ... .. . P7F ... ... : ... .. . ... ... ... : ... .. . ... ... ... : ... .. . ... ... ... : ... .. . ... ... ...
ROW 6A : A-4 02 . ... ... ... : ... .. . P80 ... ... : --- .. . ... ... ... : ... .. 3 ... ... ... : ... .. . ... ... ... : ... .. . ... ... ...
ROW 6B : A-3 02 . ... ... ... : ... .. . P81 ... ... : ... .. . ... ... ... : ... .. . ... ... ... : ... .. . ... ... ... : ... .. 3 ... ... ...
ROW 6C : E-5 00 . ... ... ... : D#5 00 . P80 ... ... : A-3 00 . ... ... ... : 7-# 00 C ... ... ... : A-1 05 . ... ... ... : D-4 04 7 I04 J08 ...
ROW 6D : E-4 01 . ... ... ... : D#5 01 . ... ... ... : A-2 00 . ... ... ... : 3-# 00 8 ... ... ... : ... .. . ... ... ... : ... .. 6 ... ... ...
ROW 6E : E-5 02 . ... ... ... : D#5 02 . ... ... ... : ... .. . ... ... ... : 6-# 00 B ... ... ... : ... .. . ... ... ... : ... .. 5 ... ... ...
ROW 6F : E-4 02 . ... ... ... : ... .. . ... ... ... : ... .. . ... ... ... : A-# 00 7 ... ... ... : ... .. . ... ... ... : ... .. . ... ... ...
ROW 70 : E-5 02 . ... ... ... : ... .. . ... ... ... : ... .. . ... ... ... : B-# 00 8 ... ... ... : ... .. . ... ... ... : ... .. . ... ... ...
ROW 71 : E-4 02 . ... ... ... : E-5 01 6 ... ... ... : ... .. . ... ... ... : C-# 00 7 ... ... ... : ... .. . ... ... ... : ... .. 3 ... ... ...
ROW 72 : A-5 00 . ... ... ... : E-5 00 C ... ... ... : ... .. . ... ... ... : 9-# 00 . ... ... ... : ... .. . ... ... ... : ... .. 7 ... ... ...
ROW 73 : A-4 01 . ... ... ... : E-5 01 . ... ... ... : ... .. . ... ... ... : ... .. 6 ... ... ... : A#1 05 . ... ... ... : ... .. 6 ... ... ...
ROW 74 : A-5 02 . ... ... ... : E-5 02 . ... ... ... : ... .. . ... ... ... : ... .. . ... ... ... : ... .. . ... ... ... : ... .. 5 ... ... ...
ROW 75 : A-4 02 . ... ... ... : ... .. . ... ... ... : ... .. . ... ... ... : ... .. . ... ... ... : ... .. . ... ... ... : ... .. . ... ... ...
ROW 76 : A-5 02 . ... ... ... : ... .. . ... ... ... : ... .. . ... ... ... : ... .. . ... ... ... : ... .. . ... ... ... : ... .. . ... ... ...
ROW 77 : A-4 02 . ... ... ... : D#5 01 6 ... ... ... : --- .. . ... ... ... : ... .. . ... ... ... : ... .. . ... ... ... : ... .. 3 ... ... ...
ROW 78 : D-6 00 . ... ... ... : F-5 00 C ... ... ... : A#3 00 . ... ... ... : 9-# 01 A ... ... ... : C-1 05 . ... ... ... : D#3 04 7 I02 J22 ...
ROW 79 : D-5 01 . ... ... ... : F-5 01 . ... ... ... : A#2 00 . ... ... ... : A-# 00 7 ... ... ... : ... .. . ... ... ... : ... .. 6 ... ... ...
ROW 7A : D-6 02 . ... ... ... : F-5 02 . ... ... ... : ... .. . ... ... ... : ... .. 6 ... ... ... : ... .. . ... ... ... : ... .. 5 ... ... ...
ROW 7B : D-5 02 . ... ... ... : ... .. . ... ... ... : ... .. . ... ... ... : B-# 01 5 ... ... ... : ... .. . ... ... ... : ... .. . ... ... ...
ROW 7C : D-6 02 . ... ... ... : ... .. . ... ... ... : ... .. . ... ... ... : A-# 01 . ... ... ... : ... .. . ... ... ... : ... .. . ... ... ...
ROW 7D : D-5 02 . ... ... ... : ... .. . ... ... ... : ... .. . ... ... ... : B-# 00 . ... ... ... : ... .. . ... ... ... : ... .. 4 ... ... ...
ROW 7E : A#5 00 . ... ... ... : ... .. . ... ... ... : ... .. . ... ... ... : ... .. . ... ... ... : A#1 05 . ... ... ... : ... .. . ... ... ...
ROW 7F : A#4 01 . ... ... ... : ... .. . ... ... ... : ... .. . ... ... ... : ... .. . ... ... ... : ... .. . ... ... ... : ... .. . ... ... ...
ROW 80 : A#5 02 . ... ... ... : ... .. . ... ... ... : ... .. . ... ... ... : ... .. 4 ... ... ... : ... .. . ... ... ... : ... .. . ... ... ...
ROW 81 : A#4 02 . ... ... ... : ... .. . P82 ... ... : ... .. . ... ... ... : ... .. . ... ... ... : ... .. . ... ... ... : ... .. . ... ... ...
ROW 82 : A#5 02 . ... ... ... : F#5 02 . P80 ... ... : --- .. . ... ... ... : ... .. 3 ... ... ... : ... .. . ... ... ... : ... .. 3 ... ... ...
ROW 83 : A#4 02 . ... ... ... : ... .. . ... ... ... : ... .. . ... ... ... : ... .. . ... ... ... : ... .. . ... ... ... : ... .. . ... ... ...
ROW 84 : D-5 00 . ... ... ... : ... .. . ... ... ... : A#3 00 . ... ... ... : 7-# 00 C ... ... ... : A-1 05 . ... ... ... : ... .. 7 ... ... ...
ROW 85 : D-4 01 . ... ... ... : F-5 02 . P82 ... ... : A#2 00 . ... ... ... : 3-# 00 8 ... ... ... : ... .. . ... ... ... : ... .. 6 ... ... ...
ROW 86 : D-5 02 . ... ... ... : ... .. . P80 ... ... : ... .. . ... ... ... : 6-# 00 B ... ... ... : ... .. . ... ... ... : ... .. 5 ... ... ...
ROW 87 : D-4 02 . ... ... ... : ... .. . P7F ... ... : ... .. . ... ... ... : A-# 00 7 ... ... ... : ... .. . ... ... ... : ... .. . ... ... ...
ROW 88 : D-5 02 . ... ... ... : E-5 02 . P82 ... ... : ... .. . ... ... ... : B-# 00 8 ... ... ... : ... .. . ... ... ... : ... .. . ... ... ...
ROW 89 : D-4 02 . ... ... ... : ... .. . P81 ... ... : ... .. . ... ... ... : C-# 00 7 ... ... ... : ... .. . ... ... ... : ... .. 3 ... ... ...
ROW 8A : A#4 00 . ... ... ... : ... .. . ... ... ... : ... .. . ... ... ... : 9-# 00 . ... ... ... : ... .. . ... ... ... : ... .. 7 ... ... ...
ROW 8B : A#3 01 . ... ... ... : ... .. . P82 ... ... : ... .. . ... ... ... : ... .. 6 ... ... ... : A#1 05 . ... ... ... : ... .. 6 ... ... ...
ROW 8C : A#4 02 . ... ... ... : F-5 02 . P7F ... ... : ... .. . ... ... ... : ... .. . ... ... ... : ... .. . ... ... ... : ... .. 5 ... ... ...
ROW 8D : A#3 02 . ... ... ... : ... .. . P80 ... ... : ... .. . ... ... ... : ... .. . ... ... ... : ... .. . ... ... ... : ... .. . ... ... ...
ROW 8E : A#4 02 . ... ... ... : ... .. . P82 ... ... : ... .. . ... ... ... : ... .. . ... ... ... : ... .. . ... ... ... : ... .. . ... ... ...
ROW 8F : A#3 02 . ... ... ... : F#5 02 . P80 ... ... : --- .. . ... ... ... : ... .. . ... ... ... : ... .. . ... ... ... : ... .. 3 ... ... ...
ROW 90 : D-4 00 . ... ... ... : ... .. . ... ... ... : A#3 00 . ... ... ... : 9-# 01 A ... ... ... : A-1 05 . ... ... ... : A#3 04 7 I03 J33 ...
ROW 91 : D-3 01 . ... ... ... : ... .. . ... ... ... : A#2 00 . ... ... ... : A-# 00 7 ... ... ... : ... .. . ... ... ... : ... .. 6 ... ... ...
ROW 92 : D-4 02 . ... ... ... : F-5 02 . P82 ... ... : ... .. . ... ... ... : ... .. 6 ... ... ... : ... .. . ... ... ... : ... .. 5 ... ... ...
ROW 93 : D-3 02 . ... ... ... : ... .. . P80 ... ... : ... .. . ... ... ... : B-# 01 5 ... ... ... : ... .. . ... ... ... : ... .. . ... ... ...
ROW 94 : D-4 02 . ... ... ... : ... .. . P7F ... ... : ... .. . ... ... ... : A-# 01 . ... ... ... : ... .. . ... ... ... : ... .. . ... ... ...
ROW 95 : D-3 02 . ... ... ... : E-5 02 . P82 ... ... : ... .. . ... ... ... : B-# 00 . ... ... ... : ... .. . ... ... ... : ... .. 3 ... ... ...
ROW 96 : A#4 00 . ... ... ... : D-5 02 . P80 ... ... : ... .. . ... ... ... : ... .. . ... ... ... : ... .. . ... ... ... : ... .. 7 ... ... ...
ROW 97 : A#3 01 . ... ... ... : C-5 02 . P81 ... ... : ... .. . ... ... ... : ... .. . ... ... ... : C-1 05 . ... ... ... : ... .. 6 ... ... ...
ROW 98 : A#4 02 . ... ... ... : B-4 02 . P7D ... ... : ... .. . ... ... ... : ... .. 4 ... ... ... : ... .. . ... ... ... : ... .. 5 ... ... ...
ROW 99 : A#3 02 . ... ... ... : A-4 02 . P83 ... ... : ... .. . ... ... ... : ... .. . ... ... ... : ... .. . ... ... ... : ... .. . ... ... ...
ROW 9A : A#4 02 . ... ... ... : G#4 02 . P80 ... ... : --- .. . ... ... ... : ... .. 3 ... ... ... : ... .. . ... ... ... : ... .. . ... ... ...
ROW 9B : A#3 02 . ... ... ... : G-4 02 . ... ... ... : ... .. . ... ... ... : ... .. . ... ... ... : ... .. . ... ... ... : ... .. 3 ... ... ...
ROW 9C : D-5 00 . ... ... ... : F-5 00 . ... ... ... : A#3 00 . ... ... ... : 7-# 00 C ... ... ... : A-1 05 . ... ... ... : D#4 04 7 I04 J47 ...
ROW 9D : D-4 01 . ... ... ... : F-5 01 . ... ... ... : A#2 00 . ... ... ... : 3-# 00 8 ... ... ... : ... .. . ... ... ... : ... .. 6 ... ... ...
ROW 9E : D-5 02 . ... ... ... : F-5 02 . ... ... ... : ... .. . ... ... ... : 6-# 00 B ... ... ... : ... .. . ... ... ... : ... .. 5 ... ... ...
ROW 9F : D-4 02 . ... ... ... : ... .. . ... ... ... : ... .. . ... ... ... : A-# 00 7 ... ... ... : ... .. . ... ... ... : ... .. . ... ... ...
ROW A0 : D-5 02 . ... ... ... : ... .. . ... ... ... : ... .. . ... ... ... : B-# 00 8 ... ... ... : ... .. . ... ... ... : ... .. . ... ... ...
ROW A1 : D-4 02 . ... ... ... : ... .. . ... ... ... : ... .. . ... ... ... : C-# 00 7 ... ... ... : ... .. . ... ... ... : ... .. 3 ... ... ...
ROW A2 : A#5 00 . ... ... ... : ... .. . ... ... ... : ... .. . ... ... ... : 9-# 00 . ... ... ... : A-1 05 . ... ... ... : ... .. 7 ... ... ...
ROW A3 : A#4 01 . ... ... ... : E-5 01 6 ... ... ... : ... .. . ... ... ... : ... .. 6 ... ... ... : ... .. . ... ... ... : ... .. 6 ... ... ...
ROW A4 : A#5 02 . ... ... ... : ... .. . ... ... ... : ... .. . ... ... ... : ... .. . ... ... ... : ... .. . ... ... ... : ... .. 5 ... ... ...
ROW A5 : A#4 02 . ... ... ... : ... .. . ... ... ... : ... .. . ... ... ... : ... .. . ... ... ... : ... .. . ... ... ... : ... .. . ... ... ...
ROW A6 : A#5 02 . ... ... ... : ... .. . ... ... ... : ... .. . ... ... ... : ... .. . ... ... ... : ... .. . ... ... ... : ... .. . ... ... ...
ROW A7 : A#4 02 . ... ... ... : ... .. . ... ... ... : --- .. . ... ... ... : ... .. . ... ... ... : ... .. . ... ... ... : ... .. 3 ... ... ...
ROW A8 : D#6 00 . ... ... ... : F-5 00 C P81 ... ... : D#4 00 . ... ... ... : 9-# 01 A ... ... ... : C-1 05 . ... ... ... : G#3 04 7 I02 JD9 ...
ROW A9 : D#5 01 . ... ... ... : F-5 01 . P82 ... ... : D#3 00 . ... ... ... : A-# 00 7 ... ... ... : ... .. . ... ... ... : ... .. 6 ... ... ...
ROW AA : D#6 02 . ... ... ... : F#5 02 . P7F ... ... : ... .. . ... ... ... : ... .. 6 ... ... ... : ... .. . ... ... ... : ... .. 5 ... ... ...
ROW AB : D#5 02 . ... ... ... : ... .. . P80 ... ... : ... .. . ... ... ... : B-# 01 5 ... ... ... : ... .. . ... ... ... : ... .. . ... ... ...
ROW AC : D#6 02 . ... ... ... : ... .. . ... ... ... : ... .. . ... ... ... : A-# 01 . ... ... ... : ... .. . ... ... ... : ... .. . ... ... ...
ROW AD : D#5 02 . ... ... ... : ... .. . ... ... ... : ... .. . ... ... ... : B-# 00 . ... ... ... : ... .. . ... ... ... : ... .. 4 ... ... ...
ROW AE : A#5 00 . ... ... ... : ... .. . ... ... ... : ... .. . ... ... ... : ... .. . ... ... ... : A#1 05 . ... ... ... : ... .. . ... ... ...
ROW AF : A#4 01 . ... ... ... : ... .. . ... ... ... : ... .. . ... ... ... : ... .. . ... ... ... : ... .. . ... ... ... : ... .. . ... ... ...
ROW B0 : A#5 02 . ... ... ... : ... .. . ... ... ... : ... .. . ... ... ... : ... .. 4 ... ... ... : ... .. . ... ... ... : ... .. . ... ... ...
ROW B1 : A#4 02 . ... ... ... : G-5 02 . P7E ... ... : ... .. . ... ... ... : ... .. . ... ... ... : ... .. . ... ... ... : ... .. . ... ... ...
ROW B2 : A#5 02 . ... ... ... : ... .. . P7F ... ... : --- .. . ... ... ... : ... .. 3 ... ... ... : ... .. . ... ... ... : ... .. 3 ... ... ...
ROW B3 : A#4 02 . ... ... ... : ... .. . ... ... ... : ... .. . ... ... ... : ... .. . ... ... ... : ... .. . ... ... ... : ... .. . ... ... ...
ROW B4 : D#5 00 . ... ... ... : F#5 02 . P81 ... ... : D#4 00 . ... ... ... : 7-# 00 C ... ... ... : A-1 05 . ... ... ... : ... .. 7 ... ... ...
ROW B5 : D#4 01 . ... ... ... : ... .. . P7F ... ... : D#3 00 . ... ... ... : 3-# 00 8 ... ... ... : ... .. . ... ... ... : ... .. 6 ... ... ...
ROW B6 : D#5 02 . ... ... ... : F-5 02 . P80 ... ... : ... .. . ... ... ... : 6-# 00 B ... ... ... : ... .. . ... ... ... : ... .. 5 ... ... ...
ROW B7 : D#4 02 . ... ... ... : ... .. . ... ... ... : ... .. . ... ... ... : A-# 00 7 ... ... ... : ... .. . ... ... ... : ... .. . ... ... ...
ROW B8 : D#5 02 . ... ... ... : ... .. . P81 ... ... : ... .. . ... ... ... : B-# 00 8 ... ... ... : ... .. . ... ... ... : ... .. . ... ... ...
ROW B9 : D#4 02 . ... ... ... : F#5 02 . P80 ... ... : ... .. . ... ... ... : C-# 00 7 ... ... ... : ... .. . ... ... ... : ... .. 3 ... ... ...
ROW BA : A#4 00 . ... ... ... : ... .. . P82 ... ... : ... .. . ... ... ... : 9-# 00 . ... ... ... : ... .. . ... ... ... : ... .. 7 ... ... ...
ROW BB : A#3 01 . ... ... ... : G-5 02 . P7F ... ... : ... .. . ... ... ... : ... .. 6 ... ... ... : A#1 05 . ... ... ... : ... .. 6 ... ... ...
ROW BC : A#4 02 . ... ... ... : ... .. . ... ... ... : ... .. . ... ... ... : ... .. . ... ... ... : ... .. . ... ... ... : ... .. 5 ... ... ...
ROW BD : A#3 02 . ... ... ... : F#5 02 . P81 ... ... : ... .. . ... ... ... : ... .. . ... ... ... : ... .. . ... ... ... : ... .. . ... ... ...
ROW BE : A#4 02 . ... ... ... : ... .. . P80 ... ... : ... .. . ... ... ... : ... .. . ... ... ... : ... .. . ... ... ... : ... .. . ... ... ...
ROW BF : A#3 02 . ... ... ... : F-5 02 . P81 ... ... : --- .. . ... ... ... : ... .. . ... ... ... : ... .. . ... ... ... : ... .. 3 ... ... ...
ROW C0 : D#4 00 . ... ... ... : ... .. . P80 ... ... : D#4 00 . ... ... ... : 9-# 01 A ... ... ... : A-1 05 . ... ... ... : D#4 04 7 I04 J47 ...
ROW C1 : D#3 01 . ... ... ... : ... .. . P81 ... ... : D#3 00 . ... ... ... : A-# 00 7 ... ... ... : ... .. . ... ... ... : ... .. 6 ... ... ...
ROW C2 : D#4 02 . ... ... ... : F#5 02 . P80 ... ... : ... .. . ... ... ... : ... .. 6 ... ... ... : ... .. . ... ... ... : ... .. 5 ... ... ...
ROW C3 : D#3 02 . ... ... ... : ... .. . P82 ... ... : ... .. . ... ... ... : B-# 01 5 ... ... ... : ... .. . ... ... ... : ... .. . ... ... ...
ROW C4 : D#4 02 . ... ... ... : G-5 02 . P7F ... ... : ... .. . ... ... ... : A-# 01 . ... ... ... : ... .. . ... ... ... : ... .. . ... ... ...
ROW C5 : D#3 02 . ... ... ... : ... .. . ... ... ... : ... .. . ... ... ... : B-# 00 . ... ... ... : ... .. . ... ... ... : ... .. 3 ... ... ...
ROW C6 : A#4 00 . ... ... ... : F#5 02 . P82 ... ... : ... .. . ... ... ... : ... .. . ... ... ... : ... .. . ... ... ... : ... .. 7 ... ... ...
ROW C7 : A#3 01 . ... ... ... : ... .. . P80 ... ... : ... .. . ... ... ... : ... .. . ... ... ... : C-1 05 . ... ... ... : ... .. 6 ... ... ...
ROW C8 : A#4 02 . ... ... ... : F-5 02 . P81 ... ... : ... .. . ... ... ... : ... .. 4 ... ... ... : ... .. . ... ... ... : ... .. 5 ... ... ...
ROW C9 : A#3 02 . ... ... ... : ... .. . P80 ... ... : ... .. . ... ... ... : ... .. . ... ... ... : ... .. . ... ... ... : ... .. . ... ... ...
ROW CA : A#4 02 . ... ... ... : ... .. . P81 ... ... : --- .. . ... ... ... : ... .. 3 ... ... ... : ... .. . ... ... ... : ... .. . ... ... ...
ROW CB : A#3 02 . ... ... ... : F#5 02 . P80 ... ... : ... .. . ... ... ... : ... .. . ... ... ... : ... .. . ... ... ... : ... .. 3 ... ... ...
ROW CC : D#5 00 . ... ... ... : F-5 00 . ... ... ... : D#4 00 . ... ... ... : 7-# 00 C ... ... ... : A-1 05 . ... ... ... : G#4 04 7 I05 JB5 ...
ROW CD : D#4 01 . ... ... ... : F-5 01 . ... ... ... : D#3 00 . ... ... ... : 3-# 00 8 ... ... ... : ... .. . ... ... ... : ... .. 6 ... ... ...
ROW CE : D#5 02 . ... ... ... : F-5 02 . ... ... ... : ... .. . ... ... ... : 6-# 00 B ... ... ... : ... .. . ... ... ... : ... .. 5 ... ... ...
ROW CF : D#4 02 . ... ... ... : ... .. . ... ... ... : ... .. . ... ... ... : A-# 00 7 ... ... ... : ... .. . ... ... ... : ... .. . ... ... ...
ROW D0 : D#5 02 . ... ... ... : ... .. . ... ... ... : ... .. . ... ... ... : B-# 00 8 ... ... ... : ... .. . ... ... ... : ... .. . ... ... ...
ROW D1 : D#4 02 . ... ... ... : ... .. . ... ... ... : ... .. . ... ... ... : C-# 00 7 ... ... ... : ... .. . ... ... ... : ... .. 3 ... ... ...
ROW D2 : A#5 00 . ... ... ... : ... .. . ... ... ... : ... .. . ... ... ... : 9-# 00 . ... ... ... : A-1 05 . ... ... ... : ... .. 7 ... ... ...
ROW D3 : A#4 01 . ... ... ... : F#5 01 6 ... ... ... : ... .. . ... ... ... : ... .. 6 ... ... ... : ... .. . ... ... ... : ... .. 6 ... ... ...
ROW D4 : A#5 02 . ... ... ... : ... .. . ... ... ... : ... .. . ... ... ... : ... .. . ... ... ... : ... .. . ... ... ... : ... .. 5 ... ... ...
ROW D5 : A#4 02 . ... ... ... : ... .. . ... ... ... : ... .. . ... ... ... : ... .. . ... ... ... : ... .. . ... ... ... : ... .. . ... ... ...
ROW D6 : A#5 02 . ... ... ... : ... .. . ... ... ... : ... .. . ... ... ... : ... .. . ... ... ... : ... .. . ... ... ... : ... .. . ... ... ...
ROW D7 : A#4 02 . ... ... ... : ... .. . ... ... ... : --- .. . ... ... ... : ... .. . ... ... ... : ... .. . ... ... ... : ... .. 3 ... ... ...
ROW D8 : C#6 00 . ... ... ... : E-5 00 C ... ... ... : C#4 00 . ... ... ... : 9-# 01 A ... ... ... : C-1 05 . ... ... ... : F#3 04 7 I02 J8B ...
ROW D9 : C#5 01 . ... ... ... : E-5 01 . ... ... ... : C#3 00 . ... ... ... : A-# 00 7 ... ... ... : ... .. . ... ... ... : ... .. 6 ... ... ...
ROW DA : C#6 02 . ... ... ... : E-5 02 . ... ... ... : ... .. . ... ... ... : ... .. 6 ... ... ... : ... .. . ... ... ... : ... .. 5 ... ... ...
ROW DB : C#5 02 . ... ... ... : ... .. . ... ... ... : ... .. . ... ... ... : B-# 01 5 ... ... ... : ... .. . ... ... ... : ... .. . ... ... ...
ROW DC : C#6 02 . ... ... ... : ... .. . ... ... ... : ... .. . ... ... ... : A-# 01 . ... ... ... : ... .. . ... ... ... : ... .. . ... ... ...
ROW DD : C#5 02 . ... ... ... : ... .. . ... ... ... : ... .. . ... ... ... : B-# 00 . ... ... ... : ... .. . ... ... ... : ... .. 4 ... ... ...
ROW DE : F#5 00 . ... ... ... : ... .. . ... ... ... : ... .. . ... ... ... : ... .. . ... ... ... : A#1 05 . ... ... ... : ... .. . ... ... ...
ROW DF : F#4 01 . ... ... ... : F-5 01 6 ... ... ... : ... .. . ... ... ... : ... .. . ... ... ... : ... .. . ... ... ... : ... .. . ... ... ...
ROW E0 : F#5 02 . ... ... ... : ... .. . ... ... ... : ... .. . ... ... ... : ... .. 4 ... ... ... : ... .. . ... ... ... : ... .. . ... ... ...
ROW E1 : F#4 02 . ... ... ... : ... .. . ... ... ... : ... .. . ... ... ... : ... .. . ... ... ... : ... .. . ... ... ... : ... .. . ... ... ...
ROW E2 : F#5 02 . ... ... ... : ... .. . ... ... ... : --- .. . ... ... ... : ... .. 3 ... ... ... : ... .. . ... ... ... : ... .. 3 ... ... ...
ROW E3 : F#4 02 . ... ... ... : ... .. . ... ... ... : ... .. . ... ... ... : ... .. . ... ... ... : ... .. . ... ... ... : ... .. . ... ... ...
ROW E4 : C#5 00 . ... ... ... : B-4 00 C ... ... ... : C#4 00 . ... ... ... : 7-# 00 C ... ... ... : A-1 05 . ... ... ... : ... .. 7 ... ... ...
ROW E5 : C#4 01 . ... ... ... : B-4 01 . ... ... ... : C#3 00 . ... ... ... : 3-# 00 8 ... ... ... : ... .. . ... ... ... : ... .. 6 ... ... ...
ROW E6 : C#5 02 . ... ... ... : B-4 02 . ... ... ... : ... .. . ... ... ... : 6-# 00 B ... ... ... : ... .. . ... ... ... : ... .. 5 ... ... ...
ROW E7 : C#4 02 . ... ... ... : ... .. . ... ... ... : ... .. . ... ... ... : A-# 00 7 ... ... ... : ... .. . ... ... ... : ... .. . ... ... ...
ROW E8 : C#5 02 . ... ... ... : ... .. . ... ... ... : ... .. . ... ... ... : B-# 00 8 ... ... ... : ... .. . ... ... ... : ... .. . ... ... ...
ROW E9 : C#4 02 . ... ... ... : ... .. . ... ... ... : ... .. . ... ... ... : C-# 00 7 ... ... ... : ... .. . ... ... ... : ... .. 3 ... ... ...
ROW EA : F#4 00 . ... ... ... : ... .. . ... ... ... : ... .. . ... ... ... : 9-# 00 . ... ... ... : ... .. . ... ... ... : ... .. 7 ... ... ...
ROW EB : F#3 01 . ... ... ... : ... .. . ... ... ... : ... .. . ... ... ... : ... .. 6 ... ... ... : A#1 05 . ... ... ... : ... .. 6 ... ... ...
ROW EC : F#4 02 . ... ... ... : E-5 01 6 ... ... ... : ... .. . ... ... ... : ... .. . ... ... ... : ... .. . ... ... ... : ... .. 5 ... ... ...
ROW ED : F#3 02 . ... ... ... : ... .. . ... ... ... : ... .. . ... ... ... : ... .. . ... ... ... : ... .. . ... ... ... : ... .. . ... ... ...
ROW EE : F#4 02 . ... ... ... : ... .. . ... ... ... : ... .. . ... ... ... : ... .. . ... ... ... : ... .. . ... ... ... : ... .. . ... ... ...
ROW EF : F#3 02 . ... ... ... : ... .. . ... ... ... : --- .. . ... ... ... : ... .. . ... ... ... : ... .. . ... ... ... : ... .. 3 ... ... ...
ROW F0 : C#4 00 . ... ... ... : C#5 00 C ... ... ... : C#4 00 . ... ... ... : 9-# 01 A ... ... ... : C-1 05 . ... ... ... : C#4 04 7 I03 JCF ...
ROW F1 : C#3 01 . ... ... ... : C#5 01 . ... ... ... : C#3 00 . ... ... ... : A-# 00 7 ... ... ... : ... .. . ... ... ... : ... .. 6 ... ... ...
ROW F2 : C#4 02 . ... ... ... : C#5 02 . ... ... ... : ... .. . ... ... ... : ... .. 6 ... ... ... : ... .. . ... ... ... : ... .. 5 ... ... ...
ROW F3 : C#3 02 . ... ... ... : ... .. . ... ... ... : ... .. . ... ... ... : B-# 01 5 ... ... ... : ... .. . ... ... ... : ... .. . ... ... ...
ROW F4 : C#4 02 . ... ... ... : ... .. . ... ... ... : ... .. . ... ... ... : A-# 01 . ... ... ... : ... .. . ... ... ... : ... .. . ... ... ...
ROW F5 : C#3 02 . ... ... ... : ... .. . ... ... ... : ... .. . ... ... ... : B-# 00 . ... ... ... : ... .. . ... ... ... : ... .. 3 ... ... ...
ROW F6 : F#4 00 . ... ... ... : ... .. . ... ... ... : ... .. . ... ... ... : ... .. . ... ... ... : A#1 05 . ... ... ... : ... .. 7 ... ... ...
ROW F7 : F#3 01 . ... ... ... : ... .. . ... ... ... : ... .. . ... ... ... : ... .. . ... ... ... : ... .. . ... ... ... : ... .. 6 ... ... ...
ROW F8 : F#4 02 . ... ... ... : B-4 01 6 ... ... ... : ... .. . ... ... ... : ... .. 4 ... ... ... : ... .. . ... ... ... : ... .. 5 ... ... ...
ROW F9 : F#3 02 . ... ... ... : ... .. . ... ... ... : ... .. . ... ... ... : ... .. . ... ... ... : ... .. . ... ... ... : ... .. . ... ... ...
ROW FA : F#4 02 . ... ... ... : ... .. . ... ... ... : --- .. . ... ... ... : ... .. 3 ... ... ... : ... .. . ... ... ... : ... .. . ... ... ...
ROW FB : F#3 02 . ... ... ... : ... .. . ... ... ... : ... .. . ... ... ... : ... .. . ... ... ... : ... .. . ... ... ... : ... .. 3 ... ... ...
ROW FC : C#5 00 . ... ... ... : E-5 00 C ... ... ... : C#4 00 . ... ... ... : 7-# 00 C ... ... ... : A-1 05 . ... ... ... : F#4 04 7 I05 J16 ...
ROW FD : C#4 01 . ... ... ... : E-5 01 . ... ... ... : C#3 00 . ... ... ... : 3-# 00 8 ... ... ... : ... .. . ... ... ... : ... .. 6 ... ... ...
ROW FE : C#5 02 . ... ... ... : E-5 02 . ... ... ... : ... .. . ... ... ... : 6-# 00 B ... ... ... : ... .. . ... ... ... : ... .. 5 ... ... ...
ROW FF : C#4 02 . ... ... ... : ... .. . ... ... ... : ... .. . ... ... ... : A-# 00 7 ... ... ... : ... .. . ... ... ... : ... .. . ... ... ...

PATTERN 18
ROW 00 : C#5 02 . ... ... ... : ... .. . ... ... ... : ... .. . ... ... ... : B-# 00 8 ... ... ... : ... .. . ... ... ... : ... .. . ... ... ...
ROW 01 : C#4 02 . ... ... ... : ... .. . ... ... ... : ... .. . ... ... ... : C-# 00 7 ... ... ... : ... .. . ... ... ... : ... .. 3 ... ... ...
ROW 02 : F#5 00 . ... ... ... : ... .. . ... ... ... : ... .. . ... ... ... : 9-# 00 . ... ... ... : ... .. . ... ... ... : ... .. 7 ... ... ...
ROW 03 : F#4 01 . ... ... ... : ... .. . ... ... ... : ... .. . ... ... ... : ... .. 6 ... ... ... : A#1 05 . ... ... ... : ... .. 6 ... ... ...
ROW 04 : F#5 02 . ... ... ... : ... .. . ... ... ... : ... .. . ... ... ... : ... .. . ... ... ... : ... .. . ... ... ... : ... .. 5 ... ... ...
ROW 05 : F#4 02 . ... ... ... : C#5 01 6 ... ... ... : ... .. . ... ... ... : ... .. . ... ... ... : ... .. . ... ... ... : ... .. . ... ... ...
ROW 06 : F#5 02 . ... ... ... : ... .. . ... ... ... : ... .. . ... ... ... : ... .. . ... ... ... : ... .. . ... ... ... : ... .. . ... ... ...
ROW 07 : F#4 02 . ... ... ... : ... .. . ... ... ... : --- .. . ... ... ... : ... .. . ... ... ... : ... .. . ... ... ... : ... .. 3 ... ... ...
ROW 08 : C#6 00 . ... ... ... : D#5 00 C ... ... ... : A-3 00 . ... ... ... : 9-# 01 A ... ... ... : C-1 05 . ... ... ... : D-3 04 7 I02 J04 ...
ROW 09 : C#5 01 . ... ... ... : D#5 01 . ... ... ... : A-2 00 . ... ... ... : A-# 00 7 ... ... ... : ... .. . ... ... ... : ... .. 6 ... ... ...
ROW 0A : C#6 02 . ... ... ... : D#5 02 . ... ... ... : ... .. . ... ... ... : ... .. 6 ... ... ... : ... .. . ... ... ... : ... .. 5 ... ... ...
ROW 0B : C#5 02 . ... ... ... : ... .. . ... ... ... : ... .. . ... ... ... : B-# 01 5 ... ... ... : ... .. . ... ... ... : ... .. . ... ... ...
ROW 0C : C#6 02 . ... ... ... : ... .. . ... ... ... : ... .. . ... ... ... : A-# 01 . ... ... ... : ... .. . ... ... ... : ... .. . ... ... ...
ROW 0D : C#5 02 . ... ... ... : ... .. . ... ... ... : ... .. . ... ... ... : B-# 00 . ... ... ... : ... .. . ... ... ... : ... .. 4 ... ... ...
ROW 0E : E-5 00 . ... ... ... : ... .. . ... ... ... : ... .. . ... ... ... : ... .. . ... ... ... : A#1 05 . ... ... ... : ... .. . ... ... ...
ROW 0F : E-4 01 . ... ... ... : ... .. . ... ... ... : ... .. . ... ... ... : ... .. . ... ... ... : ... .. . ... ... ... : ... .. . ... ... ...
ROW 10 : E-5 02 . ... ... ... : ... .. . ... ... ... : ... .. . ... ... ... : ... .. 4 ... ... ... : ... .. . ... ... ... : ... .. . ... ... ...
ROW 11 : E-4 02 . ... ... ... : E-5 01 6 ... ... ... : ... .. . ... ... ... : ... .. . ... ... ... : ... .. . ... ... ... : ... .. . ... ... ...
ROW 12 : E-5 02 . ... ... ... : ... .. . ... ... ... : --- .. . ... ... ... : ... .. 3 ... ... ... : ... .. . ... ... ... : ... .. 3 ... ... ...
ROW 13 : E-4 02 . ... ... ... : ... .. . ... ... ... : ... .. . ... ... ... : ... .. . ... ... ... : ... .. . ... ... ... : ... .. . ... ... ...
ROW 14 : C#5 00 . ... ... ... : A-4 00 C ... ... ... : A-3 00 . ... ... ... : 7-# 00 C ... ... ... : A-1 05 . ... ... ... : ... .. 7 ... ... ...
ROW 15 : C#4 01 . ... ... ... : A-4 01 . ... ... ... : A-2 00 . ... ... ... : 3-# 00 8 ... ... ... : ... .. . ... ... ... : ... .. 6 ... ... ...
ROW 16 : C#5 02 . ... ... ... : A-4 02 . ... ... ... : ... .. . ... ... ... : 6-# 00 B ... ... ... : ... .. . ... ... ... : ... .. 5 ... ... ...
ROW 17 : C#4 02 . ... ... ... : ... .. . ... ... ... : ... .. . ... ... ... : A-# 00 7 ... ... ... : ... .. . ... ... ... : ... .. . ... ... ...
ROW 18 : C#5 02 . ... ... ... : ... .. . ... ... ... : ... .. . ... ... ... : B-# 00 8 ... ... ... : ... .. . ... ... ... : ... .. . ... ... ...
ROW 19 : C#4 02 . ... ... ... : ... .. . ... ... ... : ... .. . ... ... ... : C-# 00 7 ... ... ... : ... .. . ... ... ... : ... .. 3 ... ... ...
ROW 1A : E-4 00 . ... ... ... : ... .. . ... ... ... : ... .. . ... ... ... : 9-# 00 . ... ... ... : ... .. . ... ... ... : ... .. 7 ... ... ...
ROW 1B : E-3 01 . ... ... ... : ... .. . ... ... ... : ... .. . ... ... ... : ... .. 6 ... ... ... : A#1 05 . ... ... ... : ... .. 6 ... ... ...
ROW 1C : E-4 02 . ... ... ... : ... .. . ... ... ... : ... .. . ... ... ... : ... .. . ... ... ... : ... .. . ... ... ... : ... .. 5 ... ... ...
ROW 1D : E-3 02 . ... ... ... : ... .. . P81 ... ... : ... .. . ... ... ... : ... .. . ... ... ... : ... .. . ... ... ... : ... .. . ... ... ...
ROW 1E : E-4 02 . ... ... ... : ... .. . P82 ... ... : ... .. . ... ... ... : ... .. . ... ... ... : ... .. . ... ... ... : ... .. . ... ... ...
ROW 1F : E-3 02 . ... ... ... : ... .. . P83 ... ... : --- .. . ... ... ... : ... .. . ... ... ... : ... .. . ... ... ... : ... .. 3 ... ... ...
ROW 20 : C#4 00 . ... ... ... : A#4 02 . P7F ... ... : A-3 00 . ... ... ... : 9-# 01 A ... ... ... : C-1 05 . ... ... ... : A-3 04 7 I03 J06 ...
ROW 21 : C#3 01 . ... ... ... : ... .. . P82 ... ... : A-2 00 . ... ... ... : A-# 00 7 ... ... ... : ... .. . ... ... ... : ... .. 6 ... ... ...
ROW 22 : C#4 02 . ... ... ... : B-4 02 . P7E ... ... : ... .. . ... ... ... : ... .. 6 ... ... ... : ... .. . ... ... ... : ... .. 5 ... ... ...
ROW 23 : C#3 02 . ... ... ... : ... .. . P83 ... ... : ... .. . ... ... ... : B-# 01 5 ... ... ... : ... .. . ... ... ... : ... .. . ... ... ...
ROW 24 : C#4 02 . ... ... ... : ... .. . ... ... ... : ... .. . ... ... ... : A-# 01 . ... ... ... : ... .. . ... ... ... : ... .. . ... ... ...
ROW 25 : C#3 02 . ... ... ... : ... .. . P81 ... ... : ... .. . ... ... ... : B-# 00 . ... ... ... : ... .. . ... ... ... : ... .. 3 ... ... ...
ROW 26 : E-4 00 . ... ... ... : ... .. . P7F ... ... : ... .. . ... ... ... : ... .. . ... ... ... : A#1 05 . ... ... ... : ... .. 7 ... ... ...
ROW 27 : E-3 01 . ... ... ... : ... .. . P7D ... ... : ... .. . ... ... ... : ... .. . ... ... ... : ... .. . ... ... ... : ... .. 6 ... ... ...
ROW 28 : E-4 02 . ... ... ... : ... .. . ... ... ... : ... .. . ... ... ... : ... .. 4 ... ... ... : ... .. . ... ... ... : ... .. 5 ... ... ...
ROW 29 : E-3 02 . ... ... ... : ... .. . P80 ... ... : ... .. . ... ... ... : ... .. . ... ... ... : ... .. . ... ... ... : ... .. . ... ... ...
ROW 2A : E-4 02 . ... ... ... : ... .. . P82 ... ... : --- .. . ... ... ... : ... .. 3 ... ... ... : ... .. . ... ... ... : ... .. . ... ... ...
ROW 2B : E-3 02 . ... ... ... : ... .. . P83 ... ... : ... .. . ... ... ... : ... .. . ... ... ... : ... .. . ... ... ... : ... .. 3 ... ... ...
ROW 2C : C#5 00 . ... ... ... : E-5 00 . P80 ... ... : A-3 00 . ... ... ... : 7-# 00 C ... ... ... : A-1 05 . ... ... ... : D-4 04 7 I04 J08 ...
ROW 2D : C#4 01 . ... ... ... : E-5 01 . ... ... ... : A-2 00 . ... ... ... : 3-# 00 8 ... ... ... : ... .. . ... ... ... : ... .. 6 ... ... ...
ROW 2E : C#5 02 . ... ... ... : E-5 02 . ... ... ... : ... .. . ... ... ... : 6-# 00 B ... ... ... : ... .. . ... ... ... : ... .. 5 ... ... ...
ROW 2F : C#4 02 . ... ... ... : ... .. . ... ... ... : ... .. . ... ... ... : A-# 00 7 ... ... ... : ... .. . ... ... ... : ... .. . ... ... ...
ROW 30 : C#5 02 . ... ... ... : ... .. . ... ... ... : ... .. . ... ... ... : B-# 00 8 ... ... ... : ... .. . ... ... ... : ... .. . ... ... ...
ROW 31 : C#4 02 . ... ... ... : ... .. . ... ... ... : ... .. . ... ... ... : C-# 00 7 ... ... ... : ... .. . ... ... ... : ... .. 3 ... ... ...
ROW 32 : E-5 00 . ... ... ... : ... .. . ... ... ... : ... .. . ... ... ... : 9-# 00 . ... ... ... : ... .. . ... ... ... : ... .. 7 ... ... ...
ROW 33 : E-4 01 . ... ... ... : ... .. . ... ... ... : ... .. . ... ... ... : ... .. 6 ... ... ... : A#1 05 . ... ... ... : ... .. 6 ... ... ...
ROW 34 : E-5 02 . ... ... ... : ... .. . ... ... ... : ... .. . ... ... ... : ... .. . ... ... ... : ... .. . ... ... ... : ... .. 5 ... ... ...
ROW 35 : E-4 02 . ... ... ... : B-4 01 6 ... ... ... : ... .. . ... ... ... : ... .. . ... ... ... : ... .. . ... ... ... : ... .. . ... ... ...
ROW 36 : E-5 02 . ... ... ... : ... .. . ... ... ... : ... .. . ... ... ... : ... .. . ... ... ... : ... .. . ... ... ... : ... .. . ... ... ...
ROW 37 : E-4 02 . ... ... ... : ... .. . ... ... ... : --- .. . ... ... ... : ... .. . ... ... ... : ... .. . ... ... ... : ... .. 3 ... ... ...
ROW 38 : D-6 00 . ... ... ... : F#5 00 C ... ... ... : D-4 00 . ... ... ... : 9-# 01 A ... ... ... : C-1 05 . ... ... ... : G-3 04 7 I02 JB2 ...
ROW 39 : D-5 01 . ... ... ... : F#5 01 . ... ... ... : D-3 00 . ... ... ... : A-# 00 7 ... ... ... : ... .. . ... ... ... : ... .. 6 ... ... ...
ROW 3A : D-6 02 . ... ... ... : F#5 02 . ... ... ... : ... .. . ... ... ... : ... .. 6 ... ... ... : ... .. . ... ... ... : ... .. 5 ... ... ...
ROW 3B : D-5 02 . ... ... ... : ... .. . ... ... ... : ... .. . ... ... ... : B-# 01 5 ... ... ... : ... .. . ... ... ... : ... .. . ... ... ...
ROW 3C : D-6 02 . ... ... ... : ... .. . ... ... ... : ... .. . ... ... ... : A-# 01 . ... ... ... : ... .. . ... ... ... : ... .. . ... ... ...
ROW 3D : D-5 02 . ... ... ... : ... .. . ... ... ... : ... .. . ... ... ... : B-# 00 . ... ... ... : ... .. . ... ... ... : ... .. 4 ... ... ...
ROW 3E : A-5 00 . ... ... ... : ... .. . ... ... ... : ... .. . ... ... ... : ... .. . ... ... ... : A#1 05 . ... ... ... : ... .. . ... ... ...
ROW 3F : A-4 01 . ... ... ... : ... .. . ... ... ... : ... .. . ... ... ... : ... .. . ... ... ... : ... .. . ... ... ... : ... .. . ... ... ...
ROW 40 : A-5 02 . ... ... ... : ... .. . ... ... ... : ... .. . ... ... ... : ... .. 4 ... ... ... : ... .. . ... ... ... : ... .. . ... ... ...
ROW 41 : A-4 02 . ... ... ... : ... .. . P82 ... ... : ... .. . ... ... ... : ... .. . ... ... ... : ... .. . ... ... ... : ... .. . ... ... ...
ROW 42 : A-5 02 . ... ... ... : G-5 02 . P7F ... ... : --- .. . ... ... ... : ... .. 3 ... ... ... : ... .. . ... ... ... : ... .. 3 ... ... ...
ROW 43 : A-4 02 . ... ... ... : ... .. . ... ... ... : ... .. . ... ... ... : ... .. . ... ... ... : ... .. . ... ... ... : ... .. . ... ... ...
ROW 44 : D-5 00 . ... ... ... : ... .. . ... ... ... : D-4 00 . ... ... ... : 7-# 00 C ... ... ... : A-1 05 . ... ... ... : ... .. 7 ... ... ...
ROW 45 : D-4 01 . ... ... ... : F#5 02 . P82 ... ... : D-3 00 . ... ... ... : 3-# 00 8 ... ... ... : ... .. . ... ... ... : ... .. 6 ... ... ...
ROW 46 : D-5 02 . ... ... ... : ... .. . P80 ... ... : ... .. . ... ... ... : 6-# 00 B ... ... ... : ... .. . ... ... ... : ... .. 5 ... ... ...
ROW 47 : D-4 02 . ... ... ... : ... .. . P7F ... ... : ... .. . ... ... ... : A-# 00 7 ... ... ... : ... .. . ... ... ... : ... .. . ... ... ...
ROW 48 : D-5 02 . ... ... ... : F-5 02 . P81 ... ... : ... .. . ... ... ... : B-# 00 8 ... ... ... : ... .. . ... ... ... : ... .. . ... ... ...
ROW 49 : D-4 02 . ... ... ... : ... .. . P80 ... ... : ... .. . ... ... ... : C-# 00 7 ... ... ... : ... .. . ... ... ... : ... .. 3 ... ... ...
ROW 4A : A-4 00 . ... ... ... : ... .. . ... ... ... : ... .. . ... ... ... : 9-# 00 . ... ... ... : ... .. . ... ... ... : ... .. 7 ... ... ...
ROW 4B : A-3 01 . ... ... ... : ... .. . P81 ... ... : ... .. . ... ... ... : ... .. 6 ... ... ... : A#1 05 . ... ... ... : ... .. 6 ... ... ...
ROW 4C : A-4 02 . ... ... ... : F#5 02 . P7F ... ... : ... .. . ... ... ... : ... .. . ... ... ... : ... .. . ... ... ... : ... .. 5 ... ... ...
ROW 4D : A-3 02 . ... ... ... : ... .. . P80 ... ... : ... .. . ... ... ... : ... .. . ... ... ... : ... .. . ... ... ... : ... .. . ... ... ...
ROW 4E : A-4 02 . ... ... ... : ... .. . P82 ... ... : ... .. . ... ... ... : ... .. . ... ... ... : ... .. . ... ... ... : ... .. . ... ... ...
ROW 4F : A-3 02 . ... ... ... : G-5 02 . P7F ... ... : --- .. . ... ... ... : ... .. . ... ... ... : ... .. . ... ... ... : ... .. 3 ... ... ...
ROW 50 : D-4 00 . ... ... ... : ... .. . ... ... ... : D-4 00 . ... ... ... : 9-# 01 A ... ... ... : A-1 05 . ... ... ... : D-4 04 7 I04 J08 ...
ROW 51 : D-3 01 . ... ... ... : ... .. . ... ... ... : D-3 00 . ... ... ... : A-# 00 7 ... ... ... : ... .. . ... ... ... : ... .. 6 ... ... ...
ROW 52 : D-4 02 . ... ... ... : F#5 02 . P82 ... ... : ... .. . ... ... ... : ... .. 6 ... ... ... : ... .. . ... ... ... : ... .. 5 ... ... ...
ROW 53 : D-3 02 . ... ... ... : ... .. . P80 ... ... : ... .. . ... ... ... : B-# 01 5 ... ... ... : ... .. . ... ... ... : ... .. . ... ... ...
ROW 54 : D-4 02 . ... ... ... : ... .. . P7F ... ... : ... .. . ... ... ... : A-# 01 . ... ... ... : ... .. . ... ... ... : ... .. . ... ... ...
ROW 55 : D-3 02 . ... ... ... : F-5 02 . P81 ... ... : ... .. . ... ... ... : B-# 00 . ... ... ... : ... .. . ... ... ... : ... .. 3 ... ... ...
ROW 56 : A-4 00 . ... ... ... : ... .. . P80 ... ... : ... .. . ... ... ... : ... .. . ... ... ... : A-1 05 . ... ... ... : ... .. 7 ... ... ...
ROW 57 : A-3 01 . ... ... ... : ... .. . ... ... ... : ... .. . ... ... ... : ... .. . ... ... ... : ... .. . ... ... ... : ... .. 6 ... ... ...
ROW 58 : A-4 02 . ... ... ... : ... .. . P81 ... ... : ... .. . ... ... ... : ... .. 4 ... ... ... : ... .. . ... ... ... : ... .. 5 ... ... ...
ROW 59 : A-3 02 . ... ... ... : F#5 02 . P80 ... ... : ... .. . ... ... ... : ... .. . ... ... ... : ... .. . ... ... ... : ... .. . ... ... ...
ROW 5A : A-4 02 . ... ... ... : ... .. . ... ... ... : --- .. . ... ... ... : ... .. 3 ... ... ... : ... .. . ... ... ... : ... .. . ... ... ...
ROW 5B : A-3 02 . ... ... ... : G-5 02 . P7E ... ... : ... .. . ... ... ... : ... .. . ... ... ... : ... .. . ... ... ... : ... .. 3 ... ... ...
ROW 5C : D-5 00 . ... ... ... : E-5 00 . P80 ... ... : D-4 00 . ... ... ... : 7-# 00 C ... ... ... : A-1 05 . ... ... ... : G-4 04 7 I05 J61 ...
ROW 5D : D-4 01 . ... ... ... : E-5 01 . ... ... ... : D-3 00 . ... ... ... : 3-# 00 8 ... ... ... : ... .. . ... ... ... : ... .. 6 ... ... ...
ROW 5E : D-5 02 . ... ... ... : E-5 02 . ... ... ... : ... .. . ... ... ... : 6-# 00 B ... ... ... : ... .. . ... ... ... : ... .. 5 ... ... ...
ROW 5F : D-4 02 . ... ... ... : ... .. . ... ... ... : ... .. . ... ... ... : A-# 00 7 ... ... ... : ... .. . ... ... ... : ... .. . ... ... ...
ROW 60 : D-5 02 . ... ... ... : F#5 01 6 ... ... ... : ... .. . ... ... ... : B-# 00 8 ... ... ... : ... .. . ... ... ... : ... .. . ... ... ...
ROW 61 : D-4 02 . ... ... ... : ... .. . ... ... ... : ... .. . ... ... ... : C-# 00 7 ... ... ... : ... .. . ... ... ... : ... .. 3 ... ... ...
ROW 62 : A-5 00 . ... ... ... : F#5 00 C ... ... ... : ... .. . ... ... ... : 9-# 00 . ... ... ... : A-1 05 . ... ... ... : ... .. 7 ... ... ...
ROW 63 : A-4 01 . ... ... ... : F#5 01 . ... ... ... : ... .. . ... ... ... : ... .. 6 ... ... ... : ... .. . ... ... ... : ... .. 6 ... ... ...
ROW 64 : A-5 02 . ... ... ... : F#5 02 . ... ... ... : ... .. . ... ... ... : ... .. . ... ... ... : ... .. . ... ... ... : ... .. 5 ... ... ...
ROW 65 : A-4 02 . ... ... ... : ... .. . ... ... ... : ... .. . ... ... ... : ... .. . ... ... ... : ... .. . ... ... ... : ... .. . ... ... ...
ROW 66 : A-5 02 . ... ... ... : E-5 01 6 ... ... ... : ... .. . ... ... ... : ... .. . ... ... ... : ... .. . ... ... ... : ... .. . ... ... ...
ROW 67 : A-4 02 . ... ... ... : ... .. . ... ... ... : --- .. . ... ... ... : ... .. . ... ... ... : ... .. . ... ... ... : ... .. 3 ... ... ...
ROW 68 : F#5 00 . ... ... ... : D#4 00 C P83 ... ... : F#3 00 . ... ... ... : 9-# 01 A ... ... ... : E-1 05 . ... ... ... : B-2 04 7 I01 JB3 ...
ROW 69 : F#4 01 . ... ... ... : E-4 01 . P7C ... ... : F#2 00 . ... ... ... : A-# 00 7 ... ... ... : ... .. . ... ... ... : ... .. 6 ... ... ...
ROW 6A : F#5 02 . ... ... ... : E-4 02 . P7F ... ... : ... .. . ... ... ... : ... .. 6 ... ... ... : ... .. . ... ... ... : ... .. 5 ... ... ...
ROW 6B : F#4 02 . ... ... ... : ... .. . P84 ... ... : ... .. . ... ... ... : B-# 01 5 ... ... ... : ... .. . ... ... ... : ... .. . ... ... ...
ROW 6C : F#5 02 . ... ... ... : F-4 02 . P7F ... ... : ... .. . ... ... ... : A-# 01 . ... ... ... : ... .. . ... ... ... : ... .. . ... ... ...
ROW 6D : F#4 02 . ... ... ... : ... .. . P84 ... ... : ... .. . ... ... ... : B-# 00 . ... ... ... : ... .. . ... ... ... : ... .. 4 ... ... ...
ROW 6E : D-5 00 . ... ... ... : F#4 02 . ... ... ... : ... .. . ... ... ... : ... .. . ... ... ... : E-1 05 . ... ... ... : ... .. . ... ... ...
ROW 6F : D-4 01 . ... ... ... : G-4 02 . P7E ... ... : ... .. . ... ... ... : ... .. . ... ... ... : ... .. . ... ... ... : ... .. . ... ... ...
ROW 70 : D-5 02 . ... ... ... : F#4 02 . P84 ... ... : ... .. . ... ... ... : ... .. 4 ... ... ... : ... .. . ... ... ... : ... .. . ... ... ...
ROW 71 : D-4 02 . ... ... ... : ... .. . P80 ... ... : ... .. . ... ... ... : ... .. . ... ... ... : ... .. . ... ... ... : ... .. . ... ... ...
ROW 72 : D-5 02 . ... ... ... : ... .. . P7C ... ... : --- .. . ... ... ... : ... .. 3 ... ... ... : ... .. . ... ... ... : ... .. 3 ... ... ...
ROW 73 : D-4 02 . ... ... ... : F-4 02 . P83 ... ... : ... .. . ... ... ... : ... .. . ... ... ... : ... .. . ... ... ... : ... .. . ... ... ...
ROW 74 : A-4 00 . ... ... ... : F#4 02 . P7C ... ... : F#3 00 . ... ... ... : 7-# 00 C ... ... ... : E-1 05 . ... ... ... : ... .. 7 ... ... ...
ROW 75 : A-3 01 . ... ... ... : ... .. . P80 ... ... : F#2 00 . ... ... ... : 3-# 00 8 ... ... ... : ... .. . ... ... ... : ... .. 6 ... ... ...
ROW 76 : A-4 02 . ... ... ... : ... .. . P84 ... ... : ... .. . ... ... ... : 6-# 00 B ... ... ... : ... .. . ... ... ... : ... .. 5 ... ... ...
ROW 77 : A-3 02 . ... ... ... : G-4 02 . P7E ... ... : ... .. . ... ... ... : A-# 00 7 ... ... ... : ... .. . ... ... ... : ... .. . ... ... ...
ROW 78 : A-4 02 . ... ... ... : F#4 02 . P84 ... ... : ... .. . ... ... ... : B-# 00 8 ... ... ... : ... .. . ... ... ... : ... .. . ... ... ...
ROW 79 : A-3 02 . ... ... ... : ... .. . P80 ... ... : ... .. . ... ... ... : C-# 00 7 ... ... ... : ... .. . ... ... ... : ... .. 3 ... ... ...
ROW 7A : F#4 00 . ... ... ... : ... .. . P7C ... ... : ... .. . ... ... ... : 9-# 00 . ... ... ... : E-1 05 . ... ... ... : ... .. 7 ... ... ...
ROW 7B : F#3 01 . ... ... ... : F-4 02 . P83 ... ... : ... .. . ... ... ... : ... .. 6 ... ... ... : ... .. . ... ... ... : ... .. 6 ... ... ...
ROW 7C : F#4 02 . ... ... ... : F#4 02 . P7C ... ... : ... .. . ... ... ... : ... .. . ... ... ... : ... .. . ... ... ... : ... .. 5 ... ... ...
ROW 7D : F#3 02 . ... ... ... : ... .. . P80 ... ... : ... .. . ... ... ... : ... .. . ... ... ... : ... .. . ... ... ... : ... .. . ... ... ...
ROW 7E : F#4 02 . ... ... ... : ... .. . P84 ... ... : ... .. . ... ... ... : ... .. . ... ... ... : ... .. . ... ... ... : ... .. . ... ... ...
ROW 7F : F#3 02 . ... ... ... : G-4 02 . P7E ... ... : --- .. . ... ... ... : ... .. . ... ... ... : ... .. . ... ... ... : ... .. 3 ... ... ...
ROW 80 : D-4 00 . ... ... ... : F#5 00 . P80 ... ... : F#3 00 . ... ... ... : 9-# 01 A ... ... ... : F-1 05 . ... ... ... : G-3 04 7 I02 JB2 ...
ROW 81 : D-3 01 . ... ... ... : F#5 01 . ... ... ... : F#2 00 . ... ... ... : A-# 00 7 ... ... ... : ... .. . ... ... ... : ... .. 6 ... ... ...
ROW 82 : D-4 02 . ... ... ... : F#5 02 . ... ... ... : ... .. . ... ... ... : ... .. 6 ... ... ... : ... .. . ... ... ... : ... .. 5 ... ... ...
ROW 83 : D-3 02 . ... ... ... : ... .. . P7F ... ... : ... .. . ... ... ... : B-# 01 5 ... ... ... : ... .. . ... ... ... : ... .. . ... ... ...
ROW 84 : D-4 02 . ... ... ... : F-5 02 . P82 ... ... : ... .. . ... ... ... : A-# 01 . ... ... ... : ... .. . ... ... ... : ... .. . ... ... ...
ROW 85 : D-3 02 . ... ... ... : ... .. . P81 ... ... : ... .. . ... ... ... : B-# 00 . ... ... ... : ... .. . ... ... ... : ... .. 3 ... ... ...
ROW 86 : F#4 00 . ... ... ... : ... .. . P82 ... ... : ... .. . ... ... ... : ... .. . ... ... ... : F-1 05 . ... ... ... : ... .. 7 ... ... ...
ROW 87 : F#3 01 . ... ... ... : F#5 02 . P7F ... ... : ... .. . ... ... ... : ... .. . ... ... ... : ... .. . ... ... ... : ... .. 6 ... ... ...
ROW 88 : F#4 02 . ... ... ... : ... .. . P80 ... ... : ... .. . ... ... ... : ... .. 4 ... ... ... : ... .. . ... ... ... : ... .. 5 ... ... ...
ROW 89 : F#3 02 . ... ... ... : ... .. . ... ... ... : ... .. . ... ... ... : ... .. . ... ... ... : ... .. . ... ... ... : ... .. . ... ... ...
ROW 8A : F#4 02 . ... ... ... : ... .. . ... ... ... : --- .. . ... ... ... : ... .. 3 ... ... ... : ... .. . ... ... ... : ... .. . ... ... ...
ROW 8B : F#3 02 . ... ... ... : ... .. . ... ... ... : ... .. . ... ... ... : ... .. . ... ... ... : ... .. . ... ... ... : ... .. 3 ... ... ...
ROW 8C : A-4 00 . ... ... ... : ... .. . ... ... ... : F#3 00 . ... ... ... : 7-# 00 C ... ... ... : F#1 05 . ... ... ... : B-3 04 7 I03 J63 ...
ROW 8D : A-3 01 . ... ... ... : ... .. . ... ... ... : F#2 00 . ... ... ... : 3-# 00 8 ... ... ... : ... .. . ... ... ... : ... .. 6 ... ... ...
ROW 8E : A-4 02 . ... ... ... : ... .. . ... ... ... : ... .. . ... ... ... : 6-# 00 B ... ... ... : ... .. . ... ... ... : ... .. 5 ... ... ...
ROW 8F : A-3 02 . ... ... ... : ... .. . ... ... ... : ... .. . ... ... ... : A-# 00 7 ... ... ... : ... .. . ... ... ... : ... .. . ... ... ...
ROW 90 : A-4 02 . ... ... ... : ... .. . ... ... ... : ... .. . ... ... ... : B-# 00 8 ... ... ... : ... .. . ... ... ... : ... .. . ... ... ...
ROW 91 : A-3 02 . ... ... ... : ... .. . ... ... ... : ... .. . ... ... ... : C-# 00 7 ... ... ... : ... .. . ... ... ... : ... .. 3 ... ... ...
ROW 92 : F#5 00 . ... ... ... : ... .. . P81 ... ... : ... .. . ... ... ... : 9-# 00 . ... ... ... : F#1 05 . ... ... ... : ... .. 7 ... ... ...
ROW 93 : F#4 01 . ... ... ... : ... .. . P82 ... ... : ... .. . ... ... ... : ... .. 6 ... ... ... : ... .. . ... ... ... : ... .. 6 ... ... ...
ROW 94 : F#5 02 . ... ... ... : G-5 02 . P7E ... ... : ... .. . ... ... ... : ... .. . ... ... ... : ... .. . ... ... ... : ... .. 5 ... ... ...
ROW 95 : F#4 02 . ... ... ... : ... .. . P7F ... ... : ... .. . ... ... ... : ... .. . ... ... ... : ... .. . ... ... ... : ... .. . ... ... ...
ROW 96 : F#5 02 . ... ... ... : ... .. . P80 ... ... : ... .. . ... ... ... : ... .. . ... ... ... : ... .. . ... ... ... : ... .. . ... ... ...
ROW 97 : F#4 02 . ... ... ... : ... .. . ... ... ... : --- .. . ... ... ... : ... .. . ... ... ... : ... .. . ... ... ... : ... .. 3 ... ... ...
ROW 98 : G-4 00 B ... ... ... : F#4 00 B P7E ... ... : D-3 00 . ... ... ... : 7-# 00 E ... ... ... : C-1 05 . ... ... ... : C-3 04 8 I01 JCB ...
ROW 99 : G-4 01 . ... ... ... : G-4 01 . P7D ... ... : ... .. . ... ... ... : 3-# 00 A ... ... ... : ... .. . ... ... ... : ... .. 7 ... ... ...
ROW 9A : G-4 02 . ... ... ... : G-4 02 . P84 ... ... : ... .. . ... ... ... : 6-# 00 D ... ... ... : ... .. . ... ... ... : ... .. 6 ... ... ...
ROW 9B : ... .. . P7F ... ... : ... .. . P83 ... ... : ... .. . ... ... ... : 8-# 00 A ... ... ... : ... .. . ... ... ... : ... .. 5 ... ... ...
ROW 9C : ... .. . ... ... ... : ... .. . P82 ... ... : ... .. . ... ... ... : 9-# 00 B ... ... ... : ... .. . ... ... ... : ... .. . ... ... ...
ROW 9D : ... .. . ... ... ... : ... .. . P81 ... ... : ... .. . ... ... ... : A-# 00 A ... ... ... : ... .. . ... ... ... : ... .. . ... ... ...
ROW 9E : ... .. . ... ... ... : ... .. . P80 ... ... : ... .. . ... ... ... : ... .. . ... ... ... : ... .. . ... ... ... : ... .. . ... ... ...
ROW 9F : ... .. . ... ... ... : ... .. . ... ... ... : ... .. . ... ... ... : ... .. 9 ... ... ... : ... .. . ... ... ... : ... .. . ... ... ...
ROW A0 : ... .. . ... ... ... : ... .. . ... ... ... : ... .. . ... ... ... : ... .. . ... ... ... : ... .. . ... ... ... : ... .. . ... ... ...
ROW A1 : ... .. . P7E ... ... : ... .. . P7F ... ... : --- .. . ... ... ... : ... .. 8 ... ... ... : ... .. . ... ... ... : ... .. . ... ... ...
ROW A2 : ... .. . P7D ... ... : ... .. . P7E ... ... : ... .. . ... ... ... : ... .. . ... ... ... : ... .. . ... ... ... : ... .. 3 ... ... ...
ROW A3 : F#4 02 . P84 ... ... : ... .. . P7D ... ... : ... .. . ... ... ... : ... .. . ... ... ... : ... .. . ... ... ... : ... .. . ... ... ...
ROW A4 : G-4 02 . P7D ... ... : ... .. . P7E ... ... : ... .. . ... ... ... : ... .. . ... ... ... : ... .. . ... ... ... : ... .. . ... ... ...
ROW A5 : ... .. . ... ... ... : ... .. . ... ... ... : ... .. . ... ... ... : ... .. 7 ... ... ... : ... .. . ... ... ... : ... .. . ... ... ...
ROW A6 : F#4 02 . P83 ... ... : F#4 02 . P84 ... ... : ... .. . ... ... ... : ... .. . ... ... ... : ... .. . ... ... ... : ... .. . ... ... ...
ROW A7 : ... .. . P80 ... ... : ... .. . P81 ... ... : ... .. . ... ... ... : ... .. . ... ... ... : ... .. . ... ... ... : ... .. . ... ... ...
ROW A8 : ... .. . P7D ... ... : ... .. . P7E ... ... : ... .. . ... ... ... : ... .. . ... ... ... : ... .. . ... ... ... : ... .. . ... ... ...
ROW A9 : F-4 02 . P84 ... ... : ... .. . P7C ... ... : ... .. . ... ... ... : ... .. . ... ... ... : ... .. . ... ... ... : ... .. . ... ... ...
ROW AA : ... .. . ... ... ... : ... .. . ... ... ... : ... .. . ... ... ... : ... .. 6 ... ... ... : ... .. . ... ... ... : ... .. . ... ... ...
ROW AB : F#4 02 . P7C ... ... : ... .. . P7D ... ... : ... .. . ... ... ... : ... .. . ... ... ... : ... .. . ... ... ... : ... .. . ... ... ...
ROW AC : ... .. . P7D ... ... : ... .. . P7E ... ... : ... .. . ... ... ... : ... .. . ... ... ... : ... .. . ... ... ... : ... .. . ... ... ...
ROW AD : ... .. . P81 ... ... : ... .. . P82 ... ... : ... .. . ... ... ... : ... .. . ... ... ... : ... .. . ... ... ... : ... .. . ... ... ...
ROW AE : ... .. . P83 ... ... : ... .. . P84 ... ... : ... .. . ... ... ... : ... .. . ... ... ... : ... .. . ... ... ... : ... .. . ... ... ...
ROW AF : ... .. . P84 ... ... : G-4 02 . P7D ... ... : ... .. . ... ... ... : ... .. 5 ... ... ... : ... .. . ... ... ... : ... .. . ... ... ...
ROW B0 : G-4 02 . P7D ... ... : ... .. . P7E ... ... : D-3 00 . ... ... ... : 8-# 01 B ... ... ... : ... .. . ... ... ... : ... .. 8 ... ... ...
ROW B1 : F#4 02 . P84 ... ... : ... .. . P7D ... ... : ... .. . ... ... ... : 9-# 00 8 ... ... ... : ... .. . ... ... ... : ... .. 7 ... ... ...
ROW B2 : G-4 02 . P7D ... ... : ... .. . P7E ... ... : ... .. . ... ... ... : ... .. 7 ... ... ... : ... .. . ... ... ... : ... .. 6 ... ... ...
ROW B3 : ... .. . P7F ... ... : ... .. . P80 ... ... : ... .. . ... ... ... : A-# 01 6 ... ... ... : ... .. . ... ... ... : ... .. 5 ... ... ...
ROW B4 : ... .. . P81 ... ... : ... .. . P82 ... ... : ... .. . ... ... ... : 9-# 01 . ... ... ... : ... .. . ... ... ... : ... .. . ... ... ...
ROW B5 : ... .. . P82 ... ... : ... .. . P83 ... ... : ... .. . ... ... ... : A-# 00 5 ... ... ... : ... .. . ... ... ... : ... .. . ... ... ...
ROW B6 : ... .. . P81 ... ... : ... .. . P82 ... ... : ... .. . ... ... ... : ... .. . ... ... ... : ... .. . ... ... ... : ... .. . ... ... ...
ROW B7 : ... .. . P7F ... ... : ... .. . P80 ... ... : ... .. . ... ... ... : ... .. . ... ... ... : ... .. . ... ... ... : ... .. . ... ... ...
ROW B8 : ... .. . P7D ... ... : ... .. . P7E ... ... : ... .. . ... ... ... : ... .. 4 ... ... ... : ... .. . ... ... ... : ... .. . ... ... ...
ROW B9 : F#4 02 . P7E ... ... : F#4 02 . P7F ... ... : --- .. . ... ... ... : ... .. . ... ... ... : ... .. . ... ... ... : ... .. . ... ... ...
ROW BA : ... .. . P80 ... ... : ... .. . P81 ... ... : ... .. . ... ... ... : ... .. . ... ... ... : ... .. . ... ... ... : ... .. 3 ... ... ...
ROW BB : G-4 02 . P7E ... ... : G-4 02 . P7F ... ... : ... .. . ... ... ... : ... .. . ... ... ... : ... .. . ... ... ... : ... .. . ... ... ...
ROW BC : ... .. . P82 ... ... : ... .. . P83 ... ... : D-3 00 . ... ... ... : B-# 00 B ... ... ... : C-1 05 . ... ... ... : F-2 04 8 ... ... ...
ROW BD : G#4 02 . P7F ... ... : G#4 02 . P80 ... ... : ... .. . ... ... ... : 9-# 00 7 ... ... ... : ... .. . ... ... ... : ... .. 7 ... ... ...
ROW BE : ... .. . P80 ... ... : ... .. . P81 ... ... : ... .. . ... ... ... : A-# 00 4 ... ... ... : ... .. . ... ... ... : ... .. 6 ... ... ...
ROW BF : G-4 02 . P84 ... ... : ... .. . P7D ... ... : ... .. . ... ... ... : ... .. . ... ... ... : ... .. . ... ... ... : ... .. 5 ... ... ...
ROW C0 : ... .. . P7F ... ... : G-4 02 . P80 ... ... : ... .. . ... ... ... : ... .. . ... ... ... : ... .. . ... ... ... : ... .. . ... ... ...
ROW C1 : F#4 02 . P81 ... ... : F#4 02 . P82 ... ... : ... .. . ... ... ... : ... .. 2 ... ... ... : ... .. . ... ... ... : ... .. . ... ... ...
ROW C2 : ... .. . P7E ... ... : ... .. . P7F ... ... : ... .. . ... ... ... : ... .. . ... ... ... : C-1 05 . ... ... ... : ... .. . ... ... ...
ROW C3 : ... .. . P7F ... ... : ... .. . P80 ... ... : ... .. . ... ... ... : ... .. 1 ... ... ... : ... .. . ... ... ... : ... .. . ... ... ...
ROW C4 : G-4 02 . P7D ... ... : G-4 02 . P7E ... ... : ... .. . ... ... ... : ... .. . ... ... ... : ... .. . ... ... ... : ... .. . ... ... ...
ROW C5 : ... .. . P81 ... ... : ... .. . P82 ... ... : --- .. . ... ... ... : ... .. 3 ... ... ... : ... .. . ... ... ... : ... .. . ... ... ...
ROW C6 : G#4 02 . P7F ... ... : G#4 02 . P80 ... ... : ... .. . ... ... ... : ... .. 1 ... ... ... : ... .. . ... ... ... : ... .. 3 ... ... ...
ROW C7 : ... .. . P80 ... ... : ... .. . P81 ... ... : ... .. . ... ... ... : ... .. . ... ... ... : ... .. . ... ... ... : ... .. . ... ... ...
ROW C8 : ... .. . P7D ... ... : ... .. . P7E ... ... : D-3 00 . ... ... ... : 8-# 01 B ... ... ... : A-1 05 . ... ... ... : C-4 04 8 I01 JCC ...
ROW C9 : G-4 02 . P7F ... ... : G-4 02 . P80 ... ... : ... .. . ... ... ... : 9-# 00 8 ... ... ... : ... .. . ... ... ... : ... .. 7 ... ... ...
ROW CA : F#4 02 . P82 ... ... : F#4 02 . P83 ... ... : ... .. . ... ... ... : ... .. 7 ... ... ... : ... .. . ... ... ... : ... .. 6 ... ... ...
ROW CB : ... .. . P7E ... ... : ... .. . P7F ... ... : ... .. . ... ... ... : A-# 01 6 ... ... ... : ... .. . ... ... ... : ... .. 5 ... ... ...
ROW CC : ... .. . P7F ... ... : ... .. . P80 ... ... : ... .. . ... ... ... : 9-# 01 . ... ... ... : ... .. . ... ... ... : ... .. . ... ... ...
ROW CD : ... .. . P84 ... ... : G-4 02 . P7D ... ... : ... .. . ... ... ... : A-# 00 5 ... ... ... : ... .. . ... ... ... : ... .. . ... ... ...
ROW CE : G-4 02 . P80 ... ... : ... .. . P81 ... ... : ... .. . ... ... ... : ... .. . ... ... ... : ... .. . ... ... ... : ... .. . ... ... ...
ROW CF : G#4 02 . P7E ... ... : G#4 02 . P7F ... ... : ... .. . ... ... ... : ... .. . ... ... ... : ... .. . ... ... ... : ... .. . ... ... ...
ROW D0 : ... .. . P80 ... ... : ... .. . P81 ... ... : ... .. . ... ... ... : ... .. 4 ... ... ... : ... .. . ... ... ... : ... .. . ... ... ...
ROW D1 : ... .. . P7E ... ... : ... .. . P7F ... ... : --- .. . ... ... ... : ... .. . ... ... ... : ... .. . ... ... ... : ... .. . ... ... ...
ROW D2 : G-4 02 . P7F ... ... : G-4 02 . P80 ... ... : ... .. . ... ... ... : ... .. . ... ... ... : ... .. . ... ... ... : ... .. 3 ... ... ...
ROW D3 : F#4 02 . P83 ... ... : F#4 02 . P84 ... ... : ... .. . ... ... ... : ... .. . ... ... ... : ... .. . ... ... ... : ... .. . ... ... ...
ROW D4 : ... .. . P7E ... ... : ... .. . P7F ... ... : D-3 00 . ... ... ... : B-# 00 B ... ... ... : ... .. . ... ... ... : C-3 04 8 I01 JCB ...
ROW D5 : ... .. . ... ... ... : ... .. . ... ... ... : ... .. . ... ... ... : 9-# 00 7 ... ... ... : ... .. . ... ... ... : ... .. 7 ... ... ...
ROW D6 : ... .. . P83 ... ... : ... .. . P84 ... ... : ... .. . ... ... ... : A-# 00 4 ... ... ... : ... .. . ... ... ... : ... .. 6 ... ... ...
ROW D7 : G-4 02 . P7F ... ... : G-4 02 . P80 ... ... : ... .. . ... ... ... : ... .. . ... ... ... : ... .. . ... ... ... : ... .. 5 ... ... ...
ROW D8 : G#4 02 . P7E ... ... : G#4 02 . P7F ... ... : ... .. . ... ... ... : ... .. . ... ... ... : ... .. . ... ... ... : ... .. . ... ... ...
ROW D9 : ... .. . P80 ... ... : ... .. . P81 ... ... : ... .. . ... ... ... : ... .. 2 ... ... ... : ... .. . ... ... ... : ... .. . ... ... ...
ROW DA : ... .. . P7E ... ... : ... .. . P7F ... ... : ... .. . ... ... ... : ... .. . ... ... ... : ... .. . ... ... ... : ... .. . ... ... ...
ROW DB : G-4 02 . P80 ... ... : G-4 02 . P81 ... ... : ... .. . ... ... ... : ... .. 1 ... ... ... : ... .. . ... ... ... : ... .. . ... ... ...
ROW DC : F#4 02 . P84 ... ... : ... .. . P7D ... ... : ... .. . ... ... ... : ... .. . ... ... ... : ... .. . ... ... ... : ... .. . ... ... ...
ROW DD : ... .. . P7F ... ... : F#4 02 . P80 ... ... : --- .. . ... ... ... : ... .. 3 ... ... ... : ... .. . ... ... ... : ... .. . ... ... ...
ROW DE : ... .. . P7E ... ... : ... .. . P7F ... ... : ... .. . ... ... ... : ... .. 1 ... ... ... : ... .. . ... ... ... : ... .. 3 ... ... ...
ROW DF : ... .. . P82 ... ... : ... .. . P83 ... ... : ... .. . ... ... ... : ... .. . ... ... ... : ... .. . ... ... ... : ... .. . ... ... ...
ROW E0 : G-4 02 . P7F ... ... : G-4 02 . P80 ... ... : ... .. . ... ... ... : 8-# 01 B ... ... ... : C-1 05 . ... ... ... : ... .. . ... ... ...
ROW E1 : G#4 02 . P7D ... ... : G#4 02 . P7E ... ... : ... .. . ... ... ... : 9-# 00 8 ... ... ... : ... .. . ... ... ... : ... .. . ... ... ...
ROW E2 : ... .. . P80 ... ... : ... .. . P81 ... ... : ... .. . ... ... ... : ... .. 7 ... ... ... : ... .. . ... ... ... : ... .. . ... ... ...
ROW E3 : ... .. . P7F ... ... : ... .. . P80 ... ... : ... .. . ... ... ... : A-# 01 6 ... ... ... : ... .. . ... ... ... : ... .. . ... ... ...
ROW E4 : G-4 02 . P81 ... ... : G-4 02 . P82 ... ... : ... .. . ... ... ... : 9-# 01 . ... ... ... : ... .. . ... ... ... : ... .. . ... ... ...
ROW E5 : ... .. . P7D ... ... : ... .. . P7E ... ... : ... .. . ... ... ... : A-# 00 5 ... ... ... : ... .. . ... ... ... : ... .. . ... ... ...
ROW E6 : F#4 02 . P7F ... ... : F#4 02 . P80 ... ... : ... .. . ... ... ... : ... .. . ... ... ... : ... .. . ... ... ... : ... .. . ... ... ...
ROW E7 : ... .. . P7E ... ... : ... .. . P7F ... ... : ... .. . ... ... ... : ... .. . ... ... ... : ... .. . ... ... ... : ... .. . ... ... ...
ROW E8 : ... .. . P81 ... ... : ... .. . P82 ... ... : ... .. . ... ... ... : ... .. 4 ... ... ... : ... .. . ... ... ... : ... .. . ... ... ...
ROW E9 : G-4 02 . P7F ... ... : G-4 02 . P80 ... ... : ... .. . ... ... ... : ... .. . ... ... ... : ... .. . ... ... ... : ... .. . ... ... ...
ROW EA : ... .. . P84 ... ... : G#4 02 . P7D ... ... : ... .. . ... ... ... : ... .. . ... ... ... : ... .. . ... ... ... : ... .. . ... ... ...
ROW EB : G#4 02 . P80 ... ... : ... .. . P81 ... ... : ... .. . ... ... ... : ... .. . ... ... ... : ... .. . ... ... ... : ... .. . ... ... ...
ROW EC : A#4 01 . P7F ... ... : A#5 00 . P80 ... ... : D#3 00 . ... ... ... : B-# 00 B ... ... ... : A-1 05 . ... ... ... : C#3 04 8 I01 JE6 ...
ROW ED : A#4 02 . ... ... ... : A#5 03 . ... ... ... : ... .. . ... ... ... : 9-# 00 7 ... ... ... : ... .. . ... ... ... : ... .. 7 ... ... ...
ROW EE : A#4 00 . ... ... ... : A#5 02 . ... ... ... : ... .. . ... ... ... : A-# 00 4 ... ... ... : ... .. . ... ... ... : ... .. 6 ... ... ...
ROW EF : ... .. . ... ... ... : A#5 01 . ... ... ... : ... .. . ... ... ... : ... .. . ... ... ... : ... .. . ... ... ... : ... .. 5 ... ... ...
ROW F0 : ... .. . ... ... ... : ... .. . ... ... ... : ... .. . ... ... ... : ... .. . ... ... ... : ... .. . ... ... ... : ... .. . ... ... ...
ROW F1 : ... .. . ... ... ... : ... .. . ... ... ... : ... .. . ... ... ... : ... .. 2 ... ... ... : ... .. . ... ... ... : ... .. . ... ... ...
ROW F2 : F-4 01 . ... ... ... : F-5 00 . ... ... ... : ... .. . ... ... ... : ... .. . ... ... ... : ... .. . ... ... ... : ... .. . ... ... ...
ROW F3 : F-4 02 . ... ... ... : F-5 03 . ... ... ... : ... .. . ... ... ... : ... .. 1 ... ... ... : ... .. . ... ... ... : ... .. . ... ... ...
ROW F4 : F-4 00 . ... ... ... : F-5 02 . ... ... ... : ... .. . ... ... ... : ... .. . ... ... ... : ... .. . ... ... ... : ... .. . ... ... ...
ROW F5 : ... .. . ... ... ... : F-5 01 . ... ... ... : --- .. . ... ... ... : ... .. 3 ... ... ... : ... .. . ... ... ... : ... .. . ... ... ...
ROW F6 : ... .. . ... ... ... : ... .. . ... ... ... : ... .. . ... ... ... : ... .. 1 ... ... ... : ... .. . ... ... ... : ... .. 3 ... ... ...
ROW F7 : ... .. . ... ... ... : ... .. . ... ... ... : ... .. . ... ... ... : ... .. . ... ... ... : ... .. . ... ... ... : ... .. . ... ... ...
ROW F8 : C-4 01 . ... ... ... : C-5 00 . ... ... ... : ... .. . ... ... ... : 8-# 01 B ... ... ... : C-1 05 . ... ... ... : ... .. . ... ... ...
ROW F9 : C-4 02 . ... ... ... : C-5 03 . ... ... ... : ... .. . ... ... ... : 9-# 00 8 ... ... ... : ... .. . ... ... ... : ... .. . ... ... ...
ROW FA : C-4 00 . ... ... ... : C-5 02 . ... ... ... : ... .. . ... ... ... : ... .. 7 ... ... ... : ... .. . ... ... ... : ... .. . ... ... ...
ROW FB : ... .. . ... ... ... : C-5 01 . ... ... ... : ... .. . ... ... ... : A-# 01 6 ... ... ... : ... .. . ... ... ... : ... .. . ... ... ...
ROW FC : ... .. . ... ... ... : ... .. . ... ... ... : ... .. . ... ... ... : 9-# 01 . ... ... ... : ... .. . ... ... ... : ... .. . ... ... ...
ROW FD : ... .. . ... ... ... : ... .. . ... ... ... : ... .. . ... ... ... : A-# 00 5 ... ... ... : ... .. . ... ... ... : ... .. . ... ... ...
ROW FE : G-3 01 . ... ... ... : G-4 00 . ... ... ... : ... .. . ... ... ... : ... .. . ... ... ... : ... .. . ... ... ... : ... .. . ... ... ...
ROW FF : G-3 02 . ... ... ... : G-4 03 . ... ... ... : ... .. . ... ... ... : ... .. . ... ... ... : ... .. . ... ... ... : ... .. . ... ... ...

PATTERN 19
ROW 00 : G-3 00 . ... ... ... : G-4 02 . ... ... ... : ... .. . ... ... ... : ... .. 4 ... ... ... : ... .. . ... ... ... : ... .. . ... ... ...
ROW 01 : ... .. . ... ... ... : G-4 01 . ... ... ... : ... .. . ... ... ... : ... .. . ... ... ... : ... .. . ... ... ... : ... .. . ... ... ...
ROW 02 : ... .. . ... ... ... : ... .. . ... ... ... : ... .. . ... ... ... : ... .. . ... ... ... : ... .. . ... ... ... : ... .. . ... ... ...
ROW 03 : ... .. . ... ... ... : ... .. . ... ... ... : ... .. . ... ... ... : ... .. . ... ... ... : ... .. . ... ... ... : ... .. . ... ... ...
ROW 04 : D-3 01 . ... ... ... : D-4 00 . ... ... ... : D#3 00 . ... ... ... : B-# 00 B ... ... ... : C-1 05 . ... ... ... : ... .. 8 ... ... ...
ROW 05 : D-3 02 . ... ... ... : D-4 03 . ... ... ... : ... .. . ... ... ... : 9-# 00 7 ... ... ... : ... .. . ... ... ... : ... .. 7 ... ... ...
ROW 06 : D-3 00 . ... ... ... : D-4 02 . ... ... ... : ... .. . ... ... ... : A-# 00 4 ... ... ... : ... .. . ... ... ... : ... .. 6 ... ... ...
ROW 07 : ... .. . ... ... ... : D-4 01 . ... ... ... : ... .. . ... ... ... : ... .. . ... ... ... : ... .. . ... ... ... : ... .. 5 ... ... ...
ROW 08 : ... .. . ... ... ... : ... .. . ... ... ... : ... .. . ... ... ... : ... .. . ... ... ... : ... .. . ... ... ... : ... .. . ... ... ...
ROW 09 : ... .. . ... ... ... : ... .. . ... ... ... : ... .. . ... ... ... : ... .. 2 ... ... ... : ... .. . ... ... ... : ... .. . ... ... ...
ROW 0A : G#4 01 . ... ... ... : G#5 00 . ... ... ... : ... .. . ... ... ... : ... .. . ... ... ... : C-1 05 . ... ... ... : ... .. . ... ... ...
ROW 0B : G#4 02 . ... ... ... : G#5 03 . ... ... ... : ... .. . ... ... ... : ... .. 1 ... ... ... : ... .. . ... ... ... : ... .. . ... ... ...
ROW 0C : G#4 00 . ... ... ... : G#5 02 . ... ... ... : ... .. . ... ... ... : ... .. . ... ... ... : ... .. . ... ... ... : ... .. . ... ... ...
ROW 0D : ... .. . ... ... ... : G#5 01 . ... ... ... : --- .. . ... ... ... : ... .. 3 ... ... ... : ... .. . ... ... ... : ... .. . ... ... ...
ROW 0E : ... .. . ... ... ... : ... .. . ... ... ... : ... .. . ... ... ... : ... .. 1 ... ... ... : ... .. . ... ... ... : ... .. 3 ... ... ...
ROW 0F : ... .. . ... ... ... : ... .. . ... ... ... : ... .. . ... ... ... : ... .. . ... ... ... : ... .. . ... ... ... : ... .. . ... ... ...
ROW 10 : D#4 01 . ... ... ... : D#5 00 . ... ... ... : D#3 00 . ... ... ... : 8-# 01 B ... ... ... : A-1 05 . ... ... ... : F#2 04 8 ... ... ...
ROW 11 : D#4 02 . ... ... ... : D#5 03 . ... ... ... : ... .. . ... ... ... : 9-# 00 8 ... ... ... : ... .. . ... ... ... : ... .. 7 ... ... ...
ROW 12 : D#4 00 . ... ... ... : D#5 02 . ... ... ... : ... .. . ... ... ... : ... .. 7 ... ... ... : ... .. . ... ... ... : ... .. 6 ... ... ...
ROW 13 : ... .. . ... ... ... : D#5 01 . ... ... ... : ... .. . ... ... ... : A-# 01 6 ... ... ... : ... .. . ... ... ... : ... .. 5 ... ... ...
ROW 14 : ... .. . ... ... ... : ... .. . ... ... ... : ... .. . ... ... ... : 9-# 01 . ... ... ... : ... .. . ... ... ... : ... .. . ... ... ...
ROW 15 : ... .. . ... ... ... : ... .. . ... ... ... : ... .. . ... ... ... : A-# 00 5 ... ... ... : ... .. . ... ... ... : ... .. . ... ... ...
ROW 16 : A#3 01 . ... ... ... : A#4 00 . ... ... ... : ... .. . ... ... ... : ... .. . ... ... ... : ... .. . ... ... ... : ... .. . ... ... ...
ROW 17 : A#3 02 . ... ... ... : A#4 03 . ... ... ... : ... .. . ... ... ... : ... .. . ... ... ... : ... .. . ... ... ... : ... .. . ... ... ...
ROW 18 : A#3 00 . ... ... ... : A#4 02 . ... ... ... : ... .. . ... ... ... : ... .. 4 ... ... ... : ... .. . ... ... ... : ... .. . ... ... ...
ROW 19 : ... .. . ... ... ... : A#4 01 . ... ... ... : --- .. . ... ... ... : ... .. . ... ... ... : ... .. . ... ... ... : ... .. . ... ... ...
ROW 1A : ... .. . ... ... ... : ... .. . ... ... ... : ... .. . ... ... ... : ... .. . ... ... ... : ... .. . ... ... ... : ... .. 3 ... ... ...
ROW 1B : ... .. . ... ... ... : ... .. . ... ... ... : ... .. . ... ... ... : ... .. . ... ... ... : ... .. . ... ... ... : ... .. . ... ... ...
ROW 1C : F-3 01 . ... ... ... : F-4 00 . ... ... ... : D#3 00 . ... ... ... : B-# 00 B ... ... ... : C-1 05 . ... ... ... : C#4 04 8 I01 JE7 ...
ROW 1D : F-3 02 . ... ... ... : F-4 03 . ... ... ... : ... .. . ... ... ... : 9-# 00 7 ... ... ... : ... .. . ... ... ... : ... .. 7 ... ... ...
ROW 1E : F-3 00 . ... ... ... : F-4 02 . ... ... ... : ... .. . ... ... ... : A-# 00 4 ... ... ... : ... .. . ... ... ... : ... .. 6 ... ... ...
ROW 1F : ... .. . ... ... ... : F-4 01 . ... ... ... : ... .. . ... ... ... : ... .. . ... ... ... : ... .. . ... ... ... : ... .. 5 ... ... ...
ROW 20 : ... .. . ... ... ... : ... .. . ... ... ... : ... .. . ... ... ... : ... .. . ... ... ... : ... .. . ... ... ... : ... .. . ... ... ...
ROW 21 : ... .. . ... ... ... : ... .. . ... ... ... : ... .. . ... ... ... : ... .. 2 ... ... ... : ... .. . ... ... ... : ... .. . ... ... ...
ROW 22 : C-3 01 . ... ... ... : C-4 00 . ... ... ... : ... .. . ... ... ... : ... .. . ... ... ... : ... .. . ... ... ... : ... .. . ... ... ...
ROW 23 : C-3 02 . ... ... ... : C-4 03 . ... ... ... : ... .. . ... ... ... : ... .. 1 ... ... ... : ... .. . ... ... ... : ... .. . ... ... ...
ROW 24 : C-3 00 . ... ... ... : C-4 02 . ... ... ... : ... .. . ... ... ... : ... .. . ... ... ... : ... .. . ... ... ... : ... .. . ... ... ...
ROW 25 : ... .. . ... ... ... : C-4 01 . ... ... ... : --- .. . ... ... ... : ... .. 3 ... ... ... : ... .. . ... ... ... : ... .. . ... ... ...
ROW 26 : ... .. . ... ... ... : ... .. . ... ... ... : ... .. . ... ... ... : ... .. 1 ... ... ... : ... .. . ... ... ... : ... .. 3 ... ... ...
ROW 27 : ... .. . ... ... ... : ... .. . ... ... ... : ... .. . ... ... ... : ... .. . ... ... ... : ... .. . ... ... ... : ... .. . ... ... ...
ROW 28 : G-4 01 . ... ... ... : G-5 00 . ... ... ... : D#3 00 . ... ... ... : 8-# 01 B ... ... ... : A-1 05 . ... ... ... : C#3 04 8 I01 JE6 ...
ROW 29 : G-4 02 . ... ... ... : G-5 03 . ... ... ... : ... .. . ... ... ... : 9-# 00 8 ... ... ... : ... .. . ... ... ... : ... .. 7 ... ... ...
ROW 2A : G-4 00 . ... ... ... : G-5 02 . ... ... ... : ... .. . ... ... ... : ... .. 7 ... ... ... : ... .. . ... ... ... : ... .. 6 ... ... ...
ROW 2B : ... .. . ... ... ... : G-5 01 . ... ... ... : ... .. . ... ... ... : A-# 01 6 ... ... ... : ... .. . ... ... ... : ... .. 5 ... ... ...
ROW 2C : ... .. . ... ... ... : ... .. . ... ... ... : ... .. . ... ... ... : 9-# 01 . ... ... ... : ... .. . ... ... ... : ... .. . ... ... ...
ROW 2D : ... .. . ... ... ... : ... .. . ... ... ... : ... .. . ... ... ... : A-# 00 5 ... ... ... : ... .. . ... ... ... : ... .. . ... ... ...
ROW 2E : D-4 01 . ... ... ... : D-5 00 . ... ... ... : ... .. . ... ... ... : ... .. . ... ... ... : ... .. . ... ... ... : ... .. . ... ... ...
ROW 2F : D-4 02 . ... ... ... : D-5 03 . ... ... ... : ... .. . ... ... ... : ... .. . ... ... ... : ... .. . ... ... ... : ... .. . ... ... ...
ROW 30 : D-4 00 . ... ... ... : D-5 02 . ... ... ... : ... .. . ... ... ... : ... .. 4 ... ... ... : ... .. . ... ... ... : ... .. . ... ... ...
ROW 31 : ... .. . ... ... ... : D-5 01 . ... ... ... : --- .. . ... ... ... : ... .. . ... ... ... : ... .. . ... ... ... : ... .. . ... ... ...
ROW 32 : ... .. . ... ... ... : ... .. . ... ... ... : ... .. . ... ... ... : ... .. . ... ... ... : ... .. . ... ... ... : ... .. 3 ... ... ...
ROW 33 : ... .. . ... ... ... : ... .. . ... ... ... : ... .. . ... ... ... : ... .. . ... ... ... : ... .. . ... ... ... : ... .. . ... ... ...
ROW 34 : A-3 01 . ... ... ... : A-4 00 . ... ... ... : ... .. . ... ... ... : B-# 00 B ... ... ... : A-1 05 . ... ... ... : ... .. . ... ... ...
ROW 35 : A-3 02 . ... ... ... : A-4 03 . ... ... ... : ... .. . ... ... ... : 9-# 00 7 ... ... ... : ... .. . ... ... ... : ... .. . ... ... ...
ROW 36 : A-3 00 . ... ... ... : A-4 02 . ... ... ... : ... .. . ... ... ... : A-# 00 4 ... ... ... : ... .. . ... ... ... : ... .. . ... ... ...
ROW 37 : ... .. . ... ... ... : A-4 01 . ... ... ... : ... .. . ... ... ... : ... .. . ... ... ... : ... .. . ... ... ... : ... .. . ... ... ...
ROW 38 : ... .. . ... ... ... : ... .. . ... ... ... : ... .. . ... ... ... : ... .. . ... ... ... : ... .. . ... ... ... : ... .. . ... ... ...
ROW 39 : ... .. . ... ... ... : ... .. . ... ... ... : ... .. . ... ... ... : ... .. 2 ... ... ... : ... .. . ... ... ... : ... .. . ... ... ...
ROW 3A : D#3 01 . ... ... ... : D#4 00 . ... ... ... : ... .. . ... ... ... : ... .. . ... ... ... : ... .. . ... ... ... : ... .. . ... ... ...
ROW 3B : D#3 02 . ... ... ... : D#4 03 . ... ... ... : ... .. . ... ... ... : ... .. 1 ... ... ... : ... .. . ... ... ... : ... .. . ... ... ...
ROW 3C : D#3 00 . ... ... ... : D#4 02 . ... ... ... : ... .. . ... ... ... : ... .. . ... ... ... : ... .. . ... ... ... : ... .. . ... ... ...
ROW 3D : ... .. . ... ... ... : D#4 01 . ... ... ... : ... .. . ... ... ... : ... .. 3 ... ... ... : ... .. . ... ... ... : ... .. . ... ... ...
ROW 3E : ... .. . ... ... ... : ... .. . ... ... ... : ... .. . ... ... ... : ... .. 1 ... ... ... : ... .. . ... ... ... : ... .. . ... ... ...
ROW 3F : ... .. . ... ... ... : ... .. . ... ... ... : ... .. . ... ... ... : ... .. . ... ... ... : ... .. . ... ... ... : ... .. . ... ... ...
ROW 40 : A#2 01 9 ... ... ... : A#3 00 9 ... ... ... : D-3 00 . ... ... ... : 8-# 01 B ... ... ... : C-1 05 . ... ... ... : C-3 04 8 I01 JCB ...
ROW 41 : A#2 02 . ... ... ... : A#3 03 . ... ... ... : ... .. . ... ... ... : 9-# 00 8 ... ... ... : ... .. . ... ... ... : ... .. 7 ... ... ...
ROW 42 : A#2 00 . ... ... ... : A#3 02 . ... ... ... : ... .. . ... ... ... : ... .. 7 ... ... ... : ... .. . ... ... ... : ... .. 6 ... ... ...
ROW 43 : ... .. . ... ... ... : A#3 01 . ... ... ... : ... .. . ... ... ... : A-# 01 6 ... ... ... : ... .. . ... ... ... : ... .. 5 ... ... ...
ROW 44 : ... .. . ... ... ... : ... .. . ... ... ... : ... .. . ... ... ... : 9-# 01 . ... ... ... : ... .. . ... ... ... : ... .. . ... ... ...
ROW 45 : ... .. . ... ... ... : ... .. . ... ... ... : ... .. . ... ... ... : A-# 00 5 ... ... ... : ... .. . ... ... ... : ... .. . ... ... ...
ROW 46 : D-2 01 6 ... ... ... : D-3 00 6 ... ... ... : ... .. . ... ... ... : ... .. . ... ... ... : ... .. . ... ... ... : ... .. . ... ... ...
ROW 47 : D-2 02 . ... ... ... : D-3 03 . ... ... ... : ... .. . ... ... ... : ... .. . ... ... ... : ... .. . ... ... ... : ... .. . ... ... ...
ROW 48 : D-2 00 . ... ... ... : D-3 02 . ... ... ... : ... .. . ... ... ... : ... .. 4 ... ... ... : ... .. . ... ... ... : ... .. . ... ... ...
ROW 49 : ... .. . ... ... ... : D-3 01 . ... ... ... : --- .. . ... ... ... : ... .. . ... ... ... : ... .. . ... ... ... : ... .. . ... ... ...
ROW 4A : ... .. . ... ... ... : ... .. . ... ... ... : ... .. . ... ... ... : ... .. . ... ... ... : ... .. . ... ... ... : ... .. 3 ... ... ...
ROW 4B : ... .. . ... ... ... : ... .. . ... ... ... : ... .. . ... ... ... : ... .. . ... ... ... : ... .. . ... ... ... : ... .. . ... ... ...
ROW 4C : C#3 00 B P89 ... ... : C#4 00 9 P85 ... ... : ... .. . ... ... ... : B-# 00 B ... ... ... : A-1 05 . ... ... ... : ... .. . ... ... ...
ROW 4D : C#3 03 . P7C ... ... : C#4 03 . P7E ... ... : ... .. . ... ... ... : 9-# 00 7 ... ... ... : ... .. . ... ... ... : ... .. . ... ... ...
ROW 4E : C-3 02 . P87 ... ... : C-4 02 . P83 ... ... : ... .. . ... ... ... : A-# 00 4 ... ... ... : ... .. . ... ... ... : ... .. . ... ... ...
ROW 4F : C#3 01 . P7C ... ... : C#4 01 . P7E ... ... : ... .. . ... ... ... : ... .. . ... ... ... : ... .. . ... ... ... : ... .. . ... ... ...
ROW 50 : ... .. . P89 ... ... : ... .. . P85 ... ... : ... .. . ... ... ... : ... .. . ... ... ... : ... .. . ... ... ... : ... .. . ... ... ...
ROW 51 : D-3 01 . P7F ... ... : D-4 01 . P80 ... ... : ... .. . ... ... ... : ... .. 2 ... ... ... : ... .. . ... ... ... : ... .. . ... ... ...
ROW 52 : ... .. . ... ... ... : ... .. . ... ... ... : ... .. . ... ... ... : ... .. . ... ... ... : A-1 05 . ... ... ... : ... .. . ... ... ...
ROW 53 : ... .. . ... ... ... : ... .. . ... ... ... : ... .. . ... ... ... : ... .. 1 ... ... ... : ... .. . ... ... ... : ... .. . ... ... ...
ROW 54 : ... .. . ... ... ... : ... .. . ... ... ... : ... .. . ... ... ... : ... .. . ... ... ... : ... .. . ... ... ... : ... .. . ... ... ...
ROW 55 : ... .. . ... ... ... : ... .. . ... ... ... : ... .. . ... ... ... : ... .. 3 ... ... ... : ... .. . ... ... ... : ... .. . ... ... ...
ROW 56 : ... .. . ... ... ... : ... .. . ... ... ... : ... .. . ... ... ... : ... .. 1 ... ... ... : ... .. . ... ... ... : ... .. . ... ... ...
ROW 57 : ... .. . ... ... ... : ... .. . ... ... ... : ... .. . ... ... ... : ... .. . ... ... ... : ... .. . ... ... ... : ... .. . ... ... ...
ROW 58 : G-3 00 . ... ... ... : G-4 00 . ... ... ... : D-3 00 . ... ... ... : 8-# 01 B ... ... ... : A-1 05 . ... ... ... : ... .. 8 ... ... ...
ROW 59 : G-3 03 . ... ... ... : G-4 03 . ... ... ... : ... .. . ... ... ... : 9-# 00 8 ... ... ... : ... .. . ... ... ... : ... .. 7 ... ... ...
ROW 5A : G-3 02 . ... ... ... : G-4 02 . ... ... ... : ... .. . ... ... ... : ... .. 7 ... ... ... : ... .. . ... ... ... : ... .. 6 ... ... ...
ROW 5B : G-3 01 . ... ... ... : G-4 01 . ... ... ... : ... .. . ... ... ... : A-# 01 6 ... ... ... : ... .. . ... ... ... : ... .. 5 ... ... ...
ROW 5C : ... .. . ... ... ... : ... .. . ... ... ... : ... .. . ... ... ... : 9-# 01 . ... ... ... : ... .. . ... ... ... : ... .. . ... ... ...
ROW 5D : ... .. . ... ... ... : ... .. . ... ... ... : ... .. . ... ... ... : A-# 00 5 ... ... ... : ... .. . ... ... ... : ... .. . ... ... ...
ROW 5E : ... .. . ... ... ... : ... .. . ... ... ... : ... .. . ... ... ... : ... .. . ... ... ... : ... .. . ... ... ... : ... .. . ... ... ...
ROW 5F : ... .. . ... ... ... : ... .. . ... ... ... : ... .. . ... ... ... : ... .. . ... ... ... : ... .. . ... ... ... : ... .. . ... ... ...
ROW 60 : ... .. . ... ... ... : ... .. . ... ... ... : ... .. . ... ... ... : ... .. 4 ... ... ... : ... .. . ... ... ... : ... .. . ... ... ...
ROW 61 : ... .. . ... ... ... : ... .. . ... ... ... : --- .. . ... ... ... : ... .. . ... ... ... : ... .. . ... ... ... : ... .. . ... ... ...
ROW 62 : ... .. . ... ... ... : ... .. . ... ... ... : ... .. . ... ... ... : ... .. . ... ... ... : ... .. . ... ... ... : ... .. 3 ... ... ...
ROW 63 : ... .. . ... ... ... : ... .. . ... ... ... : ... .. . ... ... ... : ... .. . ... ... ... : ... .. . ... ... ... : ... .. . ... ... ...
ROW 64 : F-3 00 . ... ... ... : F-4 00 . ... ... ... : D-3 00 . ... ... ... : B-# 00 B ... ... ... : C-1 05 . ... ... ... : F-2 04 8 ... ... ...
ROW 65 : F-3 03 . ... ... ... : F-4 03 . ... ... ... : ... .. . ... ... ... : 9-# 00 7 ... ... ... : ... .. . ... ... ... : ... .. 7 ... ... ...
ROW 66 : F-3 02 . ... ... ... : F-4 02 . ... ... ... : ... .. . ... ... ... : A-# 00 4 ... ... ... : ... .. . ... ... ... : ... .. 6 ... ... ...
ROW 67 : F-3 01 . ... ... ... : F-4 01 . ... ... ... : ... .. . ... ... ... : ... .. . ... ... ... : ... .. . ... ... ... : ... .. 5 ... ... ...
ROW 68 : ... .. . ... ... ... : ... .. . ... ... ... : ... .. . ... ... ... : ... .. . ... ... ... : ... .. . ... ... ... : ... .. . ... ... ...
ROW 69 : ... .. . ... ... ... : ... .. . ... ... ... : ... .. . ... ... ... : ... .. 2 ... ... ... : ... .. . ... ... ... : ... .. . ... ... ...
ROW 6A : ... .. . ... ... ... : ... .. . ... ... ... : ... .. . ... ... ... : ... .. . ... ... ... : C-1 05 . ... ... ... : ... .. . ... ... ...
ROW 6B : ... .. . ... ... ... : ... .. . ... ... ... : ... .. . ... ... ... : ... .. 1 ... ... ... : ... .. . ... ... ... : ... .. . ... ... ...
ROW 6C : ... .. . ... ... ... : ... .. . ... ... ... : ... .. . ... ... ... : ... .. . ... ... ... : ... .. . ... ... ... : ... .. . ... ... ...
ROW 6D : ... .. . ... ... ... : ... .. . ... ... ... : --- .. . ... ... ... : ... .. 3 ... ... ... : ... .. . ... ... ... : ... .. . ... ... ...
ROW 6E : ... .. . ... ... ... : ... .. . ... ... ... : ... .. . ... ... ... : ... .. 1 ... ... ... : ... .. . ... ... ... : ... .. 3 ... ... ...
ROW 6F : ... .. . ... ... ... : ... .. . ... ... ... : ... .. . ... ... ... : ... .. . ... ... ... : ... .. . ... ... ... : ... .. . ... ... ...
ROW 70 : G-3 00 . ... ... ... : G-4 00 . ... ... ... : D-3 00 . ... ... ... : 8-# 01 B ... ... ... : C-1 05 . ... ... ... : C-4 04 8 I01 JCC ...
ROW 71 : G-3 03 . ... ... ... : G-4 03 . ... ... ... : ... .. . ... ... ... : 9-# 00 8 ... ... ... : ... .. . ... ... ... : ... .. 7 ... ... ...
ROW 72 : G-3 02 . ... ... ... : G-4 02 . ... ... ... : ... .. . ... ... ... : ... .. 7 ... ... ... : ... .. . ... ... ... : ... .. 6 ... ... ...
ROW 73 : G-3 01 . ... ... ... : G-4 01 . ... ... ... : ... .. . ... ... ... : A-# 01 6 ... ... ... : ... .. . ... ... ... : ... .. 5 ... ... ...
ROW 74 : ... .. . ... ... ... : ... .. . ... ... ... : ... .. . ... ... ... : 9-# 01 . ... ... ... : ... .. . ... ... ... : ... .. . ... ... ...
ROW 75 : ... .. . ... ... ... : ... .. . ... ... ... : ... .. . ... ... ... : A-# 00 5 ... ... ... : ... .. . ... ... ... : ... .. . ... ... ...
ROW 76 : ... .. . ... ... ... : ... .. . ... ... ... : ... .. . ... ... ... : ... .. . ... ... ... : C-1 05 . ... ... ... : ... .. . ... ... ...
ROW 77 : ... .. . ... ... ... : ... .. . ... ... ... : ... .. . ... ... ... : ... .. . ... ... ... : ... .. . ... ... ... : ... .. . ... ... ...
ROW 78 : ... .. . ... ... ... : ... .. . ... ... ... : ... .. . ... ... ... : ... .. 4 ... ... ... : ... .. . ... ... ... : ... .. . ... ... ...
ROW 79 : ... .. . P88 ... ... : G#4 01 . P7D ... ... : --- .. . ... ... ... : ... .. . ... ... ... : ... .. . ... ... ... : ... .. . ... ... ...
ROW 7A : G#3 01 . P81 ... ... : ... .. . P82 ... ... : ... .. . ... ... ... : ... .. . ... ... ... : ... .. . ... ... ... : ... .. 3 ... ... ...
ROW 7B : A-3 01 . P7B ... ... : A-4 01 . P7F ... ... : ... .. . ... ... ... : ... .. . ... ... ... : ... .. . ... ... ... : ... .. . ... ... ...
ROW 7C : C-4 00 . P7F ... ... : C-5 00 . P80 ... ... : D-3 00 . ... ... ... : B-# 00 B ... ... ... : C-1 05 . ... ... ... : C-3 04 8 I01 JCB ...
ROW 7D : C-4 03 . ... ... ... : C-5 03 . ... ... ... : ... .. . ... ... ... : 9-# 00 7 ... ... ... : ... .. . ... ... ... : ... .. 7 ... ... ...
ROW 7E : C-4 02 . ... ... ... : C-5 02 . ... ... ... : ... .. . ... ... ... : A-# 00 4 ... ... ... : ... .. . ... ... ... : ... .. 6 ... ... ...
ROW 7F : C-4 01 . ... ... ... : C-5 01 . ... ... ... : ... .. . ... ... ... : ... .. . ... ... ... : ... .. . ... ... ... : ... .. 5 ... ... ...
ROW 80 : ... .. . ... ... ... : ... .. . ... ... ... : ... .. . ... ... ... : ... .. . ... ... ... : ... .. . ... ... ... : ... .. . ... ... ...
ROW 81 : ... .. . ... ... ... : ... .. . ... ... ... : ... .. . ... ... ... : ... .. 2 ... ... ... : ... .. . ... ... ... : ... .. . ... ... ...
ROW 82 : ... .. . ... ... ... : ... .. . ... ... ... : ... .. . ... ... ... : ... .. . ... ... ... : ... .. . ... ... ... : ... .. . ... ... ...
ROW 83 : ... .. . ... ... ... : ... .. . ... ... ... : ... .. . ... ... ... : ... .. 1 ... ... ... : ... .. . ... ... ... : ... .. . ... ... ...
ROW 84 : ... .. . ... ... ... : ... .. . ... ... ... : ... .. . ... ... ... : ... .. . ... ... ... : ... .. . ... ... ... : ... .. . ... ... ...
ROW 85 : ... .. . ... ... ... : ... .. . ... ... ... : --- .. . ... ... ... : ... .. 3 ... ... ... : ... .. . ... ... ... : ... .. . ... ... ...
ROW 86 : ... .. . ... ... ... : ... .. . ... ... ... : ... .. . ... ... ... : ... .. 1 ... ... ... : ... .. . ... ... ... : ... .. 3 ... ... ...
ROW 87 : ... .. . ... ... ... : ... .. . ... ... ... : ... .. . ... ... ... : ... .. . ... ... ... : ... .. . ... ... ... : ... .. . ... ... ...
ROW 88 : A#3 00 . ... ... ... : A#4 00 . ... ... ... : ... .. . ... ... ... : 8-# 01 B ... ... ... : A-1 05 . ... ... ... : ... .. . ... ... ...
ROW 89 : A#3 03 . ... ... ... : A#4 03 . ... ... ... : ... .. . ... ... ... : 9-# 00 8 ... ... ... : ... .. . ... ... ... : ... .. . ... ... ...
ROW 8A : A#3 02 . ... ... ... : A#4 02 . ... ... ... : ... .. . ... ... ... : ... .. 7 ... ... ... : ... .. . ... ... ... : ... .. . ... ... ...
ROW 8B : A#3 01 . ... ... ... : A#4 01 . ... ... ... : ... .. . ... ... ... : A-# 01 6 ... ... ... : ... .. . ... ... ... : ... .. . ... ... ...
ROW 8C : ... .. . ... ... ... : ... .. . ... ... ... : ... .. . ... ... ... : 9-# 01 . ... ... ... : ... .. . ... ... ... : ... .. . ... ... ...
ROW 8D : ... .. . ... ... ... : ... .. . ... ... ... : ... .. . ... ... ... : A-# 00 5 ... ... ... : ... .. . ... ... ... : ... .. . ... ... ...
ROW 8E : ... .. . ... ... ... : ... .. . ... ... ... : ... .. . ... ... ... : ... .. . ... ... ... : ... .. . ... ... ... : ... .. . ... ... ...
ROW 8F : ... .. . ... ... ... : ... .. . ... ... ... : ... .. . ... ... ... : ... .. . ... ... ... : ... .. . ... ... ... : ... .. . ... ... ...
ROW 90 : ... .. . ... ... ... : ... .. . ... ... ... : ... .. . ... ... ... : ... .. 4 ... ... ... : ... .. . ... ... ... : ... .. . ... ... ...
ROW 91 : ... .. . ... ... ... : ... .. . ... ... ... : ... .. . ... ... ... : ... .. . ... ... ... : ... .. . ... ... ... : ... .. . ... ... ...
ROW 92 : ... .. . ... ... ... : ... .. . ... ... ... : ... .. . ... ... ... : ... .. . ... ... ... : ... .. . ... ... ... : ... .. . ... ... ...
ROW 93 : ... .. . ... ... ... : ... .. . ... ... ... : ... .. . ... ... ... : ... .. . ... ... ... : ... .. . ... ... ... : ... .. . ... ... ...
ROW 94 : C-4 00 . ... ... ... : C-5 00 . ... ... ... : D#3 00 . ... ... ... : B-# 00 B ... ... ... : C-1 05 . ... ... ... : C#3 04 8 I01 JE6 ...
ROW 95 : C-4 03 . ... ... ... : C-5 03 . ... ... ... : ... .. . ... ... ... : 9-# 00 7 ... ... ... : ... .. . ... ... ... : ... .. 7 ... ... ...
ROW 96 : C-4 02 . ... ... ... : C-5 02 . ... ... ... : ... .. . ... ... ... : A-# 00 4 ... ... ... : ... .. . ... ... ... : ... .. 6 ... ... ...
ROW 97 : C-4 01 . ... ... ... : C-5 01 . ... ... ... : ... .. . ... ... ... : ... .. . ... ... ... : ... .. . ... ... ... : ... .. 5 ... ... ...
ROW 98 : ... .. . ... ... ... : ... .. . ... ... ... : ... .. . ... ... ... : ... .. . ... ... ... : ... .. . ... ... ... : ... .. . ... ... ...
ROW 99 : ... .. . ... ... ... : ... .. . ... ... ... : ... .. . ... ... ... : ... .. 2 ... ... ... : ... .. . ... ... ... : ... .. . ... ... ...
ROW 9A : ... .. . ... ... ... : ... .. . ... ... ... : ... .. . ... ... ... : ... .. . ... ... ... : ... .. . ... ... ... : ... .. . ... ... ...
ROW 9B : ... .. . ... ... ... : ... .. . ... ... ... : ... .. . ... ... ... : ... .. 1 ... ... ... : ... .. . ... ... ... : ... .. . ... ... ...
ROW 9C : ... .. . ... ... ... : ... .. . ... ... ... : ... .. . ... ... ... : ... .. . ... ... ... : ... .. . ... ... ... : ... .. . ... ... ...
ROW 9D : C#4 01 . P7C ... ... : C#5 01 . P7F ... ... : --- .. . ... ... ... : ... .. 3 ... ... ... : ... .. . ... ... ... : ... .. . ... ... ...
ROW 9E : ... .. . P85 ... ... : D-5 01 . P7E ... ... : ... .. . ... ... ... : ... .. 1 ... ... ... : ... .. . ... ... ... : ... .. 3 ... ... ...
ROW 9F : D-4 01 . P7F ... ... : ... .. . P80 ... ... : ... .. . ... ... ... : ... .. . ... ... ... : ... .. . ... ... ... : ... .. . ... ... ...
ROW A0 : F-4 00 . ... ... ... : F-5 00 . ... ... ... : ... .. . ... ... ... : 8-# 01 B ... ... ... : A-1 05 . ... ... ... : ... .. . ... ... ...
ROW A1 : F-4 03 . ... ... ... : F-5 03 . ... ... ... : ... .. . ... ... ... : 9-# 00 8 ... ... ... : ... .. . ... ... ... : ... .. . ... ... ...
ROW A2 : F-4 02 . ... ... ... : F-5 02 . ... ... ... : ... .. . ... ... ... : ... .. 7 ... ... ... : ... .. . ... ... ... : ... .. . ... ... ...
ROW A3 : F-4 01 . ... ... ... : F-5 01 . ... ... ... : ... .. . ... ... ... : A-# 01 6 ... ... ... : ... .. . ... ... ... : ... .. . ... ... ...
ROW A4 : ... .. . ... ... ... : ... .. . ... ... ... : ... .. . ... ... ... : 9-# 01 . ... ... ... : ... .. . ... ... ... : ... .. . ... ... ...
ROW A5 : ... .. . ... ... ... : ... .. . ... ... ... : ... .. . ... ... ... : A-# 00 5 ... ... ... : ... .. . ... ... ... : ... .. . ... ... ...
ROW A6 : ... .. . ... ... ... : ... .. . ... ... ... : ... .. . ... ... ... : ... .. . ... ... ... : ... .. . ... ... ... : ... .. . ... ... ...
ROW A7 : ... .. . ... ... ... : ... .. . ... ... ... : ... .. . ... ... ... : ... .. . ... ... ... : ... .. . ... ... ... : ... .. . ... ... ...
ROW A8 : ... .. . ... ... ... : ... .. . ... ... ... : ... .. . ... ... ... : ... .. 4 ... ... ... : ... .. . ... ... ... : ... .. . ... ... ...
ROW A9 : ... .. . ... ... ... : ... .. . ... ... ... : ... .. . ... ... ... : ... .. . ... ... ... : ... .. . ... ... ... : ... .. . ... ... ...
ROW AA : ... .. . ... ... ... : ... .. . ... ... ... : ... .. . ... ... ... : ... .. . ... ... ... : ... .. . ... ... ... : ... .. . ... ... ...
ROW AB : ... .. . ... ... ... : ... .. . ... ... ... : ... .. . ... ... ... : ... .. . ... ... ... : ... .. . ... ... ... : ... .. . ... ... ...
ROW AC : D#4 00 . ... ... ... : D#5 00 . ... ... ... : D#3 00 . ... ... ... : B-# 00 B ... ... ... : A-1 05 . ... ... ... : ... .. 8 ... ... ...
ROW AD : D#4 03 . ... ... ... : D#5 03 . ... ... ... : ... .. . ... ... ... : 9-# 00 7 ... ... ... : ... .. . ... ... ... : ... .. 7 ... ... ...
ROW AE : D#4 02 . ... ... ... : D#5 02 . ... ... ... : ... .. . ... ... ... : A-# 00 4 ... ... ... : ... .. . ... ... ... : ... .. 6 ... ... ...
ROW AF : D#4 01 . ... ... ... : D#5 01 . ... ... ... : ... .. . ... ... ... : ... .. . ... ... ... : ... .. . ... ... ... : ... .. 5 ... ... ...
ROW B0 : ... .. . ... ... ... : ... .. . ... ... ... : ... .. . ... ... ... : ... .. . ... ... ... : ... .. . ... ... ... : ... .. . ... ... ...
ROW B1 : ... .. . ... ... ... : ... .. . ... ... ... : ... .. . ... ... ... : ... .. 2 ... ... ... : ... .. . ... ... ... : ... .. . ... ... ...
ROW B2 : ... .. . ... ... ... : ... .. . ... ... ... : ... .. . ... ... ... : ... .. . ... ... ... : ... .. . ... ... ... : ... .. . ... ... ...
ROW B3 : ... .. . ... ... ... : ... .. . ... ... ... : ... .. . ... ... ... : ... .. 1 ... ... ... : ... .. . ... ... ... : ... .. . ... ... ...
ROW B4 : ... .. . ... ... ... : ... .. . ... ... ... : ... .. . ... ... ... : ... .. . ... ... ... : ... .. . ... ... ... : ... .. . ... ... ...
ROW B5 : ... .. . ... ... ... : ... .. . ... ... ... : --- .. . ... ... ... : ... .. 3 ... ... ... : ... .. . ... ... ... : ... .. . ... ... ...
ROW B6 : ... .. . ... ... ... : ... .. . ... ... ... : ... .. . ... ... ... : ... .. 1 ... ... ... : ... .. . ... ... ... : ... .. 3 ... ... ...
ROW B7 : ... .. . ... ... ... : ... .. . ... ... ... : ... .. . ... ... ... : ... .. . ... ... ... : ... .. . ... ... ... : ... .. . ... ... ...
ROW B8 : F-4 00 . ... ... ... : F-5 00 . ... ... ... : D#3 00 . ... ... ... : 8-# 01 B ... ... ... : C-1 05 . ... ... ... : F#2 04 . ... ... ...
ROW B9 : F-4 03 . ... ... ... : F-5 03 . ... ... ... : ... .. . ... ... ... : 9-# 00 8 ... ... ... : ... .. . ... ... ... : ... .. 7 ... ... ...
ROW BA : F-4 02 . ... ... ... : F-5 02 . ... ... ... : ... .. . ... ... ... : ... .. 7 ... ... ... : ... .. . ... ... ... : ... .. 6 ... ... ...
ROW BB : F-4 01 . ... ... ... : F-5 01 . ... ... ... : ... .. . ... ... ... : A-# 01 6 ... ... ... : ... .. . ... ... ... : ... .. 5 ... ... ...
ROW BC : ... .. . ... ... ... : ... .. . ... ... ... : ... .. . ... ... ... : 9-# 01 . ... ... ... : ... .. . ... ... ... : ... .. . ... ... ...
ROW BD : ... .. . ... ... ... : ... .. . ... ... ... : ... .. . ... ... ... : A-# 00 5 ... ... ... : ... .. . ... ... ... : ... .. . ... ... ...
ROW BE : ... .. . ... ... ... : ... .. . ... ... ... : ... .. . ... ... ... : ... .. . ... ... ... : ... .. . ... ... ... : ... .. . ... ... ...
ROW BF : ... .. . ... ... ... : ... .. . ... ... ... : ... .. . ... ... ... : ... .. . ... ... ... : ... .. . ... ... ... : ... .. . ... ... ...
ROW C0 : ... .. . ... ... ... : ... .. . ... ... ... : ... .. . ... ... ... : ... .. 4 ... ... ... : ... .. . ... ... ... : ... .. . ... ... ...
ROW C1 : F#4 01 . P7D ... ... : F#5 01 . P7F ... ... : --- .. . ... ... ... : ... .. . ... ... ... : ... .. . ... ... ... : ... .. . ... ... ...
ROW C2 : ... .. . P84 ... ... : ... .. . P82 ... ... : ... .. . ... ... ... : ... .. . ... ... ... : ... .. . ... ... ... : ... .. 3 ... ... ...
ROW C3 : G-4 01 . P7F ... ... : G-5 01 . P80 ... ... : ... .. . ... ... ... : ... .. . ... ... ... : ... .. . ... ... ... : ... .. . ... ... ...
ROW C4 : C#5 00 . ... ... ... : C#6 00 . ... ... ... : D#3 00 . ... ... ... : B-# 00 B ... ... ... : A-1 05 . ... ... ... : C#4 04 8 I01 JE7 ...
ROW C5 : C#5 03 . ... ... ... : C#6 03 . ... ... ... : ... .. . ... ... ... : 9-# 00 7 ... ... ... : ... .. . ... ... ... : ... .. 7 ... ... ...
ROW C6 : C#5 02 . ... ... ... : C#6 02 . ... ... ... : ... .. . ... ... ... : A-# 00 4 ... ... ... : ... .. . ... ... ... : ... .. 6 ... ... ...
ROW C7 : C#5 01 . ... ... ... : C#6 01 . ... ... ... : ... .. . ... ... ... : ... .. . ... ... ... : ... .. . ... ... ... : ... .. 5 ... ... ...
ROW C8 : ... .. . ... ... ... : ... .. . ... ... ... : ... .. . ... ... ... : ... .. . ... ... ... : ... .. . ... ... ... : ... .. . ... ... ...
ROW C9 : ... .. . ... ... ... : ... .. . ... ... ... : ... .. . ... ... ... : ... .. 2 ... ... ... : ... .. . ... ... ... : ... .. . ... ... ...
ROW CA : G#4 00 . ... ... ... : G#5 00 . ... ... ... : ... .. . ... ... ... : ... .. . ... ... ... : ... .. . ... ... ... : ... .. . ... ... ...
ROW CB : G#4 03 . ... ... ... : G#5 03 . ... ... ... : ... .. . ... ... ... : ... .. 1 ... ... ... : ... .. . ... ... ... : ... .. . ... ... ...
ROW CC : G#4 02 . ... ... ... : G#5 02 . ... ... ... : ... .. . ... ... ... : ... .. . ... ... ... : ... .. . ... ... ... : ... .. . ... ... ...
ROW CD : G#4 01 . ... ... ... : G#5 01 . ... ... ... : --- .. . ... ... ... : ... .. 3 ... ... ... : ... .. . ... ... ... : ... .. . ... ... ...
ROW CE : ... .. . ... ... ... : ... .. . ... ... ... : ... .. . ... ... ... : ... .. 1 ... ... ... : ... .. . ... ... ... : ... .. 3 ... ... ...
ROW CF : ... .. . ... ... ... : ... .. . ... ... ... : ... .. . ... ... ... : ... .. . ... ... ... : ... .. . ... ... ... : ... .. . ... ... ...
ROW D0 : D#4 00 . ... ... ... : D#5 00 . ... ... ... : D#3 00 . ... ... ... : 8-# 01 B ... ... ... : A-1 05 . ... ... ... : C#3 04 8 I01 JE6 ...
ROW D1 : D#4 03 . ... ... ... : D#5 03 . ... ... ... : ... .. . ... ... ... : 9-# 00 8 ... ... ... : ... .. . ... ... ... : ... .. 7 ... ... ...
ROW D2 : D#4 02 . ... ... ... : D#5 02 . ... ... ... : ... .. . ... ... ... : ... .. 7 ... ... ... : ... .. . ... ... ... : ... .. 6 ... ... ...
ROW D3 : D#4 01 . ... ... ... : D#5 01 . ... ... ... : ... .. . ... ... ... : A-# 01 6 ... ... ... : ... .. . ... ... ... : ... .. 5 ... ... ...
ROW D4 : ... .. . ... ... ... : ... .. . ... ... ... : ... .. . ... ... ... : 9-# 01 . ... ... ... : ... .. . ... ... ... : ... .. . ... ... ...
ROW D5 : ... .. . ... ... ... : ... .. . ... ... ... : ... .. . ... ... ... : A-# 00 5 ... ... ... : ... .. . ... ... ... : ... .. . ... ... ...
ROW D6 : A#3 00 . ... ... ... : A#4 00 . ... ... ... : ... .. . ... ... ... : ... .. . ... ... ... : ... .. . ... ... ... : ... .. . ... ... ...
ROW D7 : A#3 03 . ... ... ... : A#4 03 . ... ... ... : ... .. . ... ... ... : ... .. . ... ... ... : ... .. . ... ... ... : ... .. . ... ... ...
ROW D8 : A#3 02 . ... ... ... : A#4 02 . ... ... ... : ... .. . ... ... ... : ... .. 4 ... ... ... : ... .. . ... ... ... : ... .. . ... ... ...
ROW D9 : A#3 01 . ... ... ... : A#4 01 . ... ... ... : --- .. . ... ... ... : ... .. . ... ... ... : ... .. . ... ... ... : ... .. . ... ... ...
ROW DA : ... .. . ... ... ... : ... .. . ... ... ... : ... .. . ... ... ... : ... .. . ... ... ... : ... .. . ... ... ... : ... .. 3 ... ... ...
ROW DB : ... .. . ... ... ... : ... .. . ... ... ... : ... .. . ... ... ... : ... .. . ... ... ... : ... .. . ... ... ... : ... .. . ... ... ...
ROW DC : G#4 00 . ... ... ... : G#5 00 . ... ... ... : ... .. . ... ... ... : B-# 00 B ... ... ... : A-1 05 . ... ... ... : ... .. . ... ... ...
ROW DD : G#4 03 . ... ... ... : G#5 03 . ... ... ... : ... .. . ... ... ... : 9-# 00 7 ... ... ... : ... .. . ... ... ... : ... .. . ... ... ...
ROW DE : G#4 02 . ... ... ... : G#5 02 . ... ... ... : ... .. . ... ... ... : A-# 00 4 ... ... ... : ... .. . ... ... ... : ... .. . ... ... ...
ROW DF : G#4 01 . ... ... ... : G#5 01 . ... ... ... : ... .. . ... ... ... : ... .. . ... ... ... : ... .. . ... ... ... : ... .. . ... ... ...
ROW E0 : ... .. . ... ... ... : ... .. . ... ... ... : ... .. . ... ... ... : ... .. . ... ... ... : ... .. . ... ... ... : ... .. . ... ... ...
ROW E1 : ... .. . ... ... ... : ... .. . ... ... ... : ... .. . ... ... ... : ... .. 2 ... ... ... : ... .. . ... ... ... : ... .. . ... ... ...
ROW E2 : D#4 00 . ... ... ... : D#5 00 . ... ... ... : ... .. . ... ... ... : ... .. . ... ... ... : ... .. . ... ... ... : ... .. . ... ... ...
ROW E3 : D#4 03 . ... ... ... : D#5 03 . ... ... ... : ... .. . ... ... ... : ... .. 1 ... ... ... : ... .. . ... ... ... : ... .. . ... ... ...
ROW E4 : D#4 02 . ... ... ... : D#5 02 . ... ... ... : ... .. . ... ... ... : ... .. . ... ... ... : ... .. . ... ... ... : ... .. . ... ... ...
ROW E5 : D#4 01 . ... ... ... : D#5 01 . ... ... ... : ... .. . ... ... ... : ... .. 3 ... ... ... : ... .. . ... ... ... : ... .. . ... ... ...
ROW E6 : ... .. . ... ... ... : ... .. . ... ... ... : ... .. . ... ... ... : ... .. 1 ... ... ... : ... .. . ... ... ... : ... .. . ... ... ...
ROW E7 : ... .. . ... ... ... : ... .. . ... ... ... : ... .. . ... ... ... : ... .. . ... ... ... : ... .. . ... ... ... : ... .. . ... ... ...
ROW E8 : G#4 00 . ... ... ... : G#5 00 . ... ... ... : C-3 00 . ... ... ... : 7-# 00 E ... ... ... : C-1 05 . ... ... ... : A#2 04 8 I01 J9B ...
ROW E9 : G#4 03 . ... ... ... : G#5 03 . ... ... ... : ... .. . ... ... ... : 3-# 00 A ... ... ... : ... .. . ... ... ... : ... .. 7 ... ... ...
ROW EA : G#4 02 . ... ... ... : G#5 02 . ... ... ... : ... .. . ... ... ... : 6-# 00 D ... ... ... : ... .. . ... ... ... : ... .. 6 ... ... ...
ROW EB : G#4 01 . ... ... ... : G#5 01 . ... ... ... : ... .. . ... ... ... : 8-# 00 A ... ... ... : ... .. . ... ... ... : ... .. 5 ... ... ...
ROW EC : ... .. . ... ... ... : ... .. . ... ... ... : ... .. . ... ... ... : 9-# 00 B ... ... ... : ... .. . ... ... ... : ... .. . ... ... ...
ROW ED : ... .. . ... ... ... : ... .. . ... ... ... : ... .. . ... ... ... : A-# 00 A ... ... ... : ... .. . ... ... ... : ... .. . ... ... ...
ROW EE : ... .. . P84 ... ... : A-5 01 . ... ... ... : ... .. . ... ... ... : ... .. . ... ... ... : ... .. . ... ... ... : ... .. . ... ... ...
ROW EF : A-4 01 . P81 ... ... : A#5 01 . P7F ... ... : ... .. . ... ... ... : ... .. 9 ... ... ... : ... .. . ... ... ... : ... .. . ... ... ...
ROW F0 : A#4 01 . P7F ... ... : ... .. . P80 ... ... : ... .. . ... ... ... : ... .. . ... ... ... : ... .. . ... ... ... : ... .. . ... ... ...
ROW F1 : ... .. . ... ... ... : ... .. . ... ... ... : --- .. . ... ... ... : ... .. 8 ... ... ... : ... .. . ... ... ... : ... .. . ... ... ...
ROW F2 : ... .. . ... ... ... : ... .. . ... ... ... : ... .. . ... ... ... : ... .. . ... ... ... : ... .. . ... ... ... : ... .. 3 ... ... ...
ROW F3 : ... .. . ... ... ... : ... .. . ... ... ... : ... .. . ... ... ... : ... .. . ... ... ... : ... .. . ... ... ... : ... .. . ... ... ...
ROW F4 : G#4 01 . P7D ... ... : F#5 01 . P7F ... ... : ... .. . ... ... ... : ... .. . ... ... ... : ... .. . ... ... ... : ... .. . ... ... ...
ROW F5 : F#4 01 . P7C ... ... : F-5 01 . P80 ... ... : ... .. . ... ... ... : ... .. 7 ... ... ... : ... .. . ... ... ... : ... .. . ... ... ...
ROW F6 : F-4 01 . P7F ... ... : ... .. . ... ... ... : ... .. . ... ... ... : ... .. . ... ... ... : ... .. . ... ... ... : ... .. . ... ... ...
ROW F7 : ... .. . ... ... ... : ... .. . ... ... ... : ... .. . ... ... ... : ... .. . ... ... ... : ... .. . ... ... ... : ... .. . ... ... ...
ROW F8 : ... .. . ... ... ... : ... .. . ... ... ... : ... .. . ... ... ... : ... .. . ... ... ... : ... .. . ... ... ... : ... .. . ... ... ...
ROW F9 : ... .. . ... ... ... : ... .. . ... ... ... : ... .. . ... ... ... : ... .. . ... ... ... : ... .. . ... ... ... : ... .. . ... ... ...
ROW FA : ... .. . P7C ... ... : E-5 01 . P82 ... ... : ... .. . ... ... ... : ... .. 6 ... ... ... : ... .. . ... ... ... : ... .. . ... ... ...
ROW FB : E-4 01 . P83 ... ... : ... .. . P7F ... ... : ... .. . ... ... ... : ... .. . ... ... ... : ... .. . ... ... ... : ... .. . ... ... ...
ROW FC : ... .. . P80 ... ... : D#5 01 . P81 ... ... : ... .. . ... ... ... : ... .. . ... ... ... : ... .. . ... ... ... : ... .. . ... ... ...
ROW FD : ... .. . P7D ... ... : ... .. . P80 ... ... : ... .. . ... ... ... : ... .. . ... ... ... : ... .. . ... ... ... : ... .. . ... ... ...
ROW FE : D#4 01 . P84 ... ... : ... .. . ... ... ... : ... .. . ... ... ... : ... .. . ... ... ... : ... .. . ... ... ... : ... .. . ... ... ...
ROW FF : ... .. . P81 ... ... : ... .. . ... ... ... : ... .. . ... ... ... : ... .. 5 ... ... ... : ... .. . ... ... ... : ... .. . ... ... ...

PATTERN 1A
ROW 00 : ... .. . P7F ... ... : ... .. . ... ... ... : C-3 00 . ... ... ... : 8-# 01 B ... ... ... : C-1 05 . ... ... ... : ... .. 8 ... ... ...
ROW 01 : ... .. . ... ... ... : ... .. . ... ... ... : ... .. . ... ... ... : 9-# 00 8 ... ... ... : ... .. . ... ... ... : ... .. 7 ... ... ...
ROW 02 : ... .. . ... ... ... : ... .. . ... ... ... : ... .. . ... ... ... : ... .. 7 ... ... ... : ... .. . ... ... ... : ... .. 6 ... ... ...
ROW 03 : ... .. . P82 ... ... : E-5 01 . P7E ... ... : ... .. . ... ... ... : A-# 01 6 ... ... ... : ... .. . ... ... ... : ... .. 5 ... ... ...
ROW 04 : ... .. . P85 ... ... : ... .. . P81 ... ... : ... .. . ... ... ... : 9-# 01 . ... ... ... : ... .. . ... ... ... : ... .. . ... ... ...
ROW 05 : E-4 01 . P7E ... ... : F-5 01 . P7F ... ... : ... .. . ... ... ... : A-# 00 5 ... ... ... : ... .. . ... ... ... : ... .. . ... ... ...
ROW 06 : ... .. . P81 ... ... : ... .. . P80 ... ... : ... .. . ... ... ... : ... .. . ... ... ... : C-1 05 . ... ... ... : ... .. . ... ... ...
ROW 07 : ... .. . P84 ... ... : ... .. . ... ... ... : ... .. . ... ... ... : ... .. . ... ... ... : ... .. . ... ... ... : ... .. . ... ... ...
ROW 08 : F-4 01 . P7D ... ... : ... .. . ... ... ... : ... .. . ... ... ... : ... .. 4 ... ... ... : ... .. . ... ... ... : ... .. . ... ... ...
ROW 09 : ... .. . P7F ... ... : ... .. . ... ... ... : --- .. . ... ... ... : ... .. . ... ... ... : ... .. . ... ... ... : ... .. . ... ... ...
ROW 0A : ... .. . ... ... ... : ... .. . ... ... ... : ... .. . ... ... ... : ... .. . ... ... ... : ... .. . ... ... ... : ... .. 3 ... ... ...
ROW 0B : ... .. . ... ... ... : ... .. . ... ... ... : ... .. . ... ... ... : ... .. . ... ... ... : ... .. . ... ... ... : ... .. . ... ... ...
ROW 0C : ... .. . P83 ... ... : F#5 01 . P7F ... ... : C-3 00 . ... ... ... : B-# 00 B ... ... ... : A-1 05 . ... ... ... : D#2 04 8 I01 J99 ...
ROW 0D : F#4 01 . P7C ... ... : ... .. . P80 ... ... : ... .. . ... ... ... : 9-# 00 7 ... ... ... : ... .. . ... ... ... : ... .. 7 ... ... ...
ROW 0E : F-4 01 . P84 ... ... : ... .. . ... ... ... : ... .. . ... ... ... : A-# 00 4 ... ... ... : ... .. . ... ... ... : ... .. 6 ... ... ...
ROW 0F : ... .. . P81 ... ... : F-5 01 . P81 ... ... : ... .. . ... ... ... : ... .. . ... ... ... : ... .. . ... ... ... : ... .. 5 ... ... ...
ROW 10 : ... .. . P7D ... ... : ... .. . P7F ... ... : ... .. . ... ... ... : ... .. . ... ... ... : ... .. . ... ... ... : ... .. . ... ... ...
ROW 11 : E-4 01 . P84 ... ... : E-5 01 . P81 ... ... : ... .. . ... ... ... : ... .. 2 ... ... ... : ... .. . ... ... ... : ... .. . ... ... ...
ROW 12 : ... .. . P83 ... ... : ... .. . ... ... ... : ... .. . ... ... ... : ... .. . ... ... ... : ... .. . ... ... ... : ... .. . ... ... ...
ROW 13 : ... .. . P85 ... ... : ... .. . P82 ... ... : ... .. . ... ... ... : ... .. 1 ... ... ... : ... .. . ... ... ... : ... .. . ... ... ...
ROW 14 : F-4 01 . P7F ... ... : F-5 01 . P80 ... ... : ... .. . ... ... ... : ... .. . ... ... ... : ... .. . ... ... ... : ... .. . ... ... ...
ROW 15 : ... .. . P82 ... ... : ... .. . P82 ... ... : --- .. . ... ... ... : ... .. 3 ... ... ... : ... .. . ... ... ... : ... .. . ... ... ...
ROW 16 : F#4 01 . P7C ... ... : F#5 01 . P80 ... ... : ... .. . ... ... ... : ... .. 1 ... ... ... : ... .. . ... ... ... : ... .. 3 ... ... ...
ROW 17 : ... .. . ... ... ... : ... .. . ... ... ... : ... .. . ... ... ... : ... .. . ... ... ... : ... .. . ... ... ... : ... .. . ... ... ...
ROW 18 : F-4 01 . P81 ... ... : F-5 01 . P81 ... ... : C-3 00 . ... ... ... : 8-# 01 B ... ... ... : ... .. . ... ... ... : A#3 04 8 ... ... ...
ROW 19 : ... .. . P7E ... ... : ... .. . P80 ... ... : ... .. . ... ... ... : 9-# 00 8 ... ... ... : ... .. . ... ... ... : ... .. 7 ... ... ...
ROW 1A : E-4 01 . P84 ... ... : E-5 01 . P82 ... ... : ... .. . ... ... ... : ... .. 7 ... ... ... : ... .. . ... ... ... : ... .. 6 ... ... ...
ROW 1B : D#4 01 . P82 ... ... : ... .. . P7E ... ... : ... .. . ... ... ... : A-# 01 6 ... ... ... : ... .. . ... ... ... : ... .. 5 ... ... ...
ROW 1C : D-4 01 . P83 ... ... : D#5 01 . P81 ... ... : ... .. . ... ... ... : 9-# 01 . ... ... ... : ... .. . ... ... ... : ... .. . ... ... ...
ROW 1D : ... .. . P7C ... ... : ... .. . ... ... ... : ... .. . ... ... ... : A-# 00 5 ... ... ... : ... .. . ... ... ... : ... .. . ... ... ...
ROW 1E : C#4 01 . P80 ... ... : ... .. . P80 ... ... : ... .. . ... ... ... : ... .. . ... ... ... : ... .. . ... ... ... : ... .. . ... ... ...
ROW 1F : C-4 01 . P84 ... ... : ... .. . P7F ... ... : ... .. . ... ... ... : ... .. . ... ... ... : ... .. . ... ... ... : ... .. . ... ... ...
ROW 20 : B-3 01 . P85 ... ... : D-5 01 . P81 ... ... : ... .. . ... ... ... : ... .. 4 ... ... ... : ... .. . ... ... ... : ... .. . ... ... ...
ROW 21 : A#3 01 . ... ... ... : C#5 01 . P82 ... ... : --- .. . ... ... ... : ... .. . ... ... ... : ... .. . ... ... ... : ... .. . ... ... ...
ROW 22 : A-3 01 6 ... ... ... : C-5 01 6 P83 ... ... : ... .. . ... ... ... : ... .. . ... ... ... : ... .. . ... ... ... : ... .. 3 ... ... ...
ROW 23 : G#3 01 . ... ... ... : B-4 01 . ... ... ... : ... .. . ... ... ... : ... .. . ... ... ... : ... .. . ... ... ... : ... .. . ... ... ...
ROW 24 : C-4 01 B P7F ... ... : C-5 00 9 P80 ... ... : C-3 00 . ... ... ... : B-# 00 B ... ... ... : C-1 05 . ... ... ... : A#2 04 8 I01 J9B ...
ROW 25 : C-4 02 . ... ... ... : C-5 03 . ... ... ... : ... .. . ... ... ... : 9-# 00 7 ... ... ... : ... .. . ... ... ... : ... .. 7 ... ... ...
ROW 26 : C-4 00 . ... ... ... : C-5 02 . ... ... ... : ... .. . ... ... ... : A-# 00 4 ... ... ... : ... .. . ... ... ... : ... .. 6 ... ... ...
ROW 27 : ... .. . ... ... ... : C-5 01 . ... ... ... : ... .. . ... ... ... : ... .. . ... ... ... : ... .. . ... ... ... : ... .. 5 ... ... ...
ROW 28 : ... .. . ... ... ... : ... .. . ... ... ... : ... .. . ... ... ... : ... .. . ... ... ... : ... .. . ... ... ... : ... .. . ... ... ...
ROW 29 : ... .. . ... ... ... : ... .. . ... ... ... : ... .. . ... ... ... : ... .. 2 ... ... ... : ... .. . ... ... ... : ... .. . ... ... ...
ROW 2A : C#4 01 . ... ... ... : C#5 00 . ... ... ... : ... .. . ... ... ... : ... .. . ... ... ... : ... .. . ... ... ... : ... .. . ... ... ...
ROW 2B : C#4 02 . ... ... ... : C#5 03 . ... ... ... : ... .. . ... ... ... : ... .. 1 ... ... ... : ... .. . ... ... ... : ... .. . ... ... ...
ROW 2C : C#4 00 . ... ... ... : C#5 02 . ... ... ... : ... .. . ... ... ... : ... .. . ... ... ... : ... .. . ... ... ... : ... .. . ... ... ...
ROW 2D : ... .. . ... ... ... : C#5 01 . ... ... ... : --- .. . ... ... ... : ... .. 3 ... ... ... : ... .. . ... ... ... : ... .. . ... ... ...
ROW 2E : ... .. . ... ... ... : ... .. . ... ... ... : ... .. . ... ... ... : ... .. 1 ... ... ... : ... .. . ... ... ... : ... .. 3 ... ... ...
ROW 2F : ... .. . ... ... ... : ... .. . ... ... ... : ... .. . ... ... ... : ... .. . ... ... ... : ... .. . ... ... ... : ... .. . ... ... ...
ROW 30 : D#4 01 . ... ... ... : D#5 00 . ... ... ... : ... .. . ... ... ... : 8-# 01 B ... ... ... : A-1 05 . ... ... ... : ... .. . ... ... ...
ROW 31 : D#4 02 . ... ... ... : D#5 03 . ... ... ... : ... .. . ... ... ... : 9-# 00 8 ... ... ... : ... .. . ... ... ... : ... .. . ... ... ...
ROW 32 : D#4 00 . ... ... ... : D#5 02 . ... ... ... : ... .. . ... ... ... : ... .. 7 ... ... ... : ... .. . ... ... ... : ... .. . ... ... ...
ROW 33 : ... .. . ... ... ... : D#5 01 . ... ... ... : ... .. . ... ... ... : A-# 01 6 ... ... ... : ... .. . ... ... ... : ... .. . ... ... ...
ROW 34 : ... .. . ... ... ... : ... .. . ... ... ... : ... .. . ... ... ... : 9-# 01 . ... ... ... : ... .. . ... ... ... : ... .. . ... ... ...
ROW 35 : ... .. . ... ... ... : ... .. . ... ... ... : ... .. . ... ... ... : A-# 00 5 ... ... ... : ... .. . ... ... ... : ... .. . ... ... ...
ROW 36 : A#3 01 . ... ... ... : A#4 00 . ... ... ... : ... .. . ... ... ... : ... .. . ... ... ... : ... .. . ... ... ... : ... .. . ... ... ...
ROW 37 : A#3 02 . ... ... ... : A#4 03 . ... ... ... : ... .. . ... ... ... : ... .. . ... ... ... : ... .. . ... ... ... : ... .. . ... ... ...
ROW 38 : A#3 00 . ... ... ... : A#4 02 . ... ... ... : ... .. . ... ... ... : ... .. 4 ... ... ... : ... .. . ... ... ... : ... .. . ... ... ...
ROW 39 : ... .. . ... ... ... : A#4 01 . ... ... ... : ... .. . ... ... ... : ... .. . ... ... ... : ... .. . ... ... ... : ... .. . ... ... ...
ROW 3A : ... .. . ... ... ... : ... .. . ... ... ... : ... .. . ... ... ... : ... .. . ... ... ... : ... .. . ... ... ... : ... .. . ... ... ...
ROW 3B : ... .. . ... ... ... : ... .. . ... ... ... : ... .. . ... ... ... : ... .. . ... ... ... : ... .. . ... ... ... : ... .. . ... ... ...
ROW 3C : F-3 01 . ... ... ... : F-4 00 . ... ... ... : C#3 00 . ... ... ... : B-# 00 B ... ... ... : C-1 05 . ... ... ... : B-2 04 8 I01 JB3 ...
ROW 3D : F-3 02 . ... ... ... : F-4 03 . ... ... ... : ... .. . ... ... ... : 9-# 00 7 ... ... ... : ... .. . ... ... ... : ... .. 7 ... ... ...
ROW 3E : F-3 00 . ... ... ... : F-4 02 . ... ... ... : ... .. . ... ... ... : A-# 00 4 ... ... ... : ... .. . ... ... ... : ... .. 6 ... ... ...
ROW 3F : ... .. . ... ... ... : F-4 01 . ... ... ... : ... .. . ... ... ... : ... .. . ... ... ... : ... .. . ... ... ... : ... .. 5 ... ... ...
ROW 40 : ... .. . ... ... ... : ... .. . ... ... ... : ... .. . ... ... ... : ... .. . ... ... ... : ... .. . ... ... ... : ... .. . ... ... ...
ROW 41 : ... .. . ... ... ... : ... .. . ... ... ... : ... .. . ... ... ... : ... .. 2 ... ... ... : ... .. . ... ... ... : ... .. . ... ... ...
ROW 42 : E-4 01 . ... ... ... : E-5 00 . ... ... ... : ... .. . ... ... ... : ... .. . ... ... ... : ... .. . ... ... ... : ... .. . ... ... ...
ROW 43 : E-4 02 . ... ... ... : E-5 03 . ... ... ... : ... .. . ... ... ... : ... .. 1 ... ... ... : ... .. . ... ... ... : ... .. . ... ... ...
ROW 44 : E-4 00 . ... ... ... : E-5 02 . ... ... ... : ... .. . ... ... ... : ... .. . ... ... ... : ... .. . ... ... ... : ... .. . ... ... ...
ROW 45 : ... .. . ... ... ... : E-5 01 . ... ... ... : --- .. . ... ... ... : ... .. 3 ... ... ... : ... .. . ... ... ... : ... .. . ... ... ...
ROW 46 : ... .. . ... ... ... : ... .. . ... ... ... : ... .. . ... ... ... : ... .. 1 ... ... ... : ... .. . ... ... ... : ... .. 3 ... ... ...
ROW 47 : ... .. . ... ... ... : ... .. . ... ... ... : ... .. . ... ... ... : ... .. . ... ... ... : ... .. . ... ... ... : ... .. . ... ... ...
ROW 48 : B-3 01 . ... ... ... : B-4 00 . ... ... ... : ... .. . ... ... ... : 8-# 01 B ... ... ... : C-1 05 . ... ... ... : ... .. . ... ... ...
ROW 49 : B-3 02 . ... ... ... : B-4 03 . ... ... ... : ... .. . ... ... ... : 9-# 00 8 ... ... ... : ... .. . ... ... ... : ... .. . ... ... ...
ROW 4A : B-3 00 . ... ... ... : B-4 02 . ... ... ... : ... .. . ... ... ... : ... .. 7 ... ... ... : ... .. . ... ... ... : ... .. . ... ... ...
ROW 4B : ... .. . ... ... ... : B-4 01 . ... ... ... : ... .. . ... ... ... : A-# 01 6 ... ... ... : ... .. . ... ... ... : ... .. . ... ... ...
ROW 4C : ... .. . ... ... ... : ... .. . ... ... ... : ... .. . ... ... ... : 9-# 01 . ... ... ... : ... .. . ... ... ... : ... .. . ... ... ...
ROW 4D : ... .. . ... ... ... : ... .. . ... ... ... : ... .. . ... ... ... : A-# 00 5 ... ... ... : ... .. . ... ... ... : ... .. . ... ... ...
ROW 4E : F#3 01 . ... ... ... : F#4 00 . ... ... ... : ... .. . ... ... ... : ... .. . ... ... ... : ... .. . ... ... ... : ... .. . ... ... ...
ROW 4F : F#3 02 . ... ... ... : F#4 03 . ... ... ... : ... .. . ... ... ... : ... .. . ... ... ... : ... .. . ... ... ... : ... .. . ... ... ...
ROW 50 : F#3 00 . ... ... ... : F#4 02 . ... ... ... : ... .. . ... ... ... : ... .. 4 ... ... ... : ... .. . ... ... ... : ... .. . ... ... ...
ROW 51 : ... .. . ... ... ... : F#4 01 . ... ... ... : ... .. . ... ... ... : ... .. . ... ... ... : ... .. . ... ... ... : ... .. . ... ... ...
ROW 52 : ... .. . ... ... ... : ... .. . ... ... ... : ... .. . ... ... ... : ... .. . ... ... ... : ... .. . ... ... ... : ... .. . ... ... ...
ROW 53 : ... .. . ... ... ... : ... .. . ... ... ... : ... .. . ... ... ... : ... .. . ... ... ... : ... .. . ... ... ... : ... .. . ... ... ...
ROW 54 : F#4 01 . ... ... ... : F#5 00 . ... ... ... : C#3 00 . ... ... ... : B-# 00 B ... ... ... : A-1 05 . ... ... ... : ... .. 8 ... ... ...
ROW 55 : F#4 02 . ... ... ... : F#5 03 . ... ... ... : ... .. . ... ... ... : 9-# 00 7 ... ... ... : ... .. . ... ... ... : ... .. 7 ... ... ...
ROW 56 : F#4 00 . ... ... ... : F#5 02 . ... ... ... : ... .. . ... ... ... : A-# 00 4 ... ... ... : ... .. . ... ... ... : ... .. 6 ... ... ...
ROW 57 : ... .. . ... ... ... : F#5 01 . ... ... ... : ... .. . ... ... ... : ... .. . ... ... ... : ... .. . ... ... ... : ... .. 5 ... ... ...
ROW 58 : ... .. . ... ... ... : ... .. . ... ... ... : ... .. . ... ... ... : ... .. . ... ... ... : ... .. . ... ... ... : ... .. . ... ... ...
ROW 59 : ... .. . ... ... ... : ... .. . ... ... ... : ... .. . ... ... ... : ... .. 2 ... ... ... : ... .. . ... ... ... : ... .. . ... ... ...
ROW 5A : C#4 01 . ... ... ... : C#5 00 . ... ... ... : ... .. . ... ... ... : ... .. . ... ... ... : ... .. . ... ... ... : ... .. . ... ... ...
ROW 5B : C#4 02 . ... ... ... : C#5 03 . ... ... ... : ... .. . ... ... ... : ... .. 1 ... ... ... : ... .. . ... ... ... : ... .. . ... ... ...
ROW 5C : C#4 00 . ... ... ... : C#5 02 . ... ... ... : ... .. . ... ... ... : ... .. . ... ... ... : ... .. . ... ... ... : ... .. . ... ... ...
ROW 5D : ... .. . ... ... ... : C#5 01 . ... ... ... : --- .. . ... ... ... : ... .. 3 ... ... ... : ... .. . ... ... ... : ... .. . ... ... ...
ROW 5E : ... .. . ... ... ... : ... .. . ... ... ... : ... .. . ... ... ... : ... .. 1 ... ... ... : ... .. . ... ... ... : ... .. 3 ... ... ...
ROW 5F : ... .. . ... ... ... : ... .. . ... ... ... : ... .. . ... ... ... : ... .. . ... ... ... : ... .. . ... ... ... : ... .. . ... ... ...
ROW 60 : G#3 01 . ... ... ... : G#4 00 . ... ... ... : C#3 00 . ... ... ... : 8-# 01 B ... ... ... : C-1 05 . ... ... ... : E-2 04 8 I01 JB4 ...
ROW 61 : G#3 02 . ... ... ... : G#4 03 . ... ... ... : ... .. . ... ... ... : 9-# 00 8 ... ... ... : ... .. . ... ... ... : ... .. 7 ... ... ...
ROW 62 : G#3 00 . ... ... ... : G#4 02 . ... ... ... : ... .. . ... ... ... : ... .. 7 ... ... ... : ... .. . ... ... ... : ... .. 6 ... ... ...
ROW 63 : ... .. . ... ... ... : G#4 01 . ... ... ... : ... .. . ... ... ... : A-# 01 6 ... ... ... : ... .. . ... ... ... : ... .. 5 ... ... ...
ROW 64 : ... .. . ... ... ... : ... .. . ... ... ... : ... .. . ... ... ... : 9-# 01 . ... ... ... : ... .. . ... ... ... : ... .. . ... ... ...
ROW 65 : ... .. . ... ... ... : ... .. . ... ... ... : ... .. . ... ... ... : A-# 00 5 ... ... ... : ... .. . ... ... ... : ... .. . ... ... ...
ROW 66 : G-4 01 . ... ... ... : G-5 00 . ... ... ... : ... .. . ... ... ... : ... .. . ... ... ... : C-1 05 . ... ... ... : ... .. . ... ... ...
ROW 67 : G-4 02 . ... ... ... : G-5 03 . ... ... ... : ... .. . ... ... ... : ... .. . ... ... ... : ... .. . ... ... ... : ... .. . ... ... ...
ROW 68 : G-4 00 . ... ... ... : G-5 02 . ... ... ... : ... .. . ... ... ... : ... .. 4 ... ... ... : ... .. . ... ... ... : ... .. . ... ... ...
ROW 69 : ... .. . ... ... ... : G-5 01 . ... ... ... : --- .. . ... ... ... : ... .. . ... ... ... : ... .. . ... ... ... : ... .. . ... ... ...
ROW 6A : ... .. . ... ... ... : ... .. . ... ... ... : ... .. . ... ... ... : ... .. . ... ... ... : ... .. . ... ... ... : ... .. 3 ... ... ...
ROW 6B : ... .. . ... ... ... : ... .. . ... ... ... : ... .. . ... ... ... : ... .. . ... ... ... : ... .. . ... ... ... : ... .. . ... ... ...
ROW 6C : D-4 01 . ... ... ... : D-5 00 . ... ... ... : C#3 00 . ... ... ... : B-# 00 B ... ... ... : A-1 05 . ... ... ... : B-3 04 8 I01 JB1 ...
ROW 6D : D-4 02 . ... ... ... : D-5 03 . ... ... ... : ... .. . ... ... ... : 9-# 00 7 ... ... ... : ... .. . ... ... ... : ... .. 7 ... ... ...
ROW 6E : D-4 00 . ... ... ... : D-5 02 . ... ... ... : ... .. . ... ... ... : A-# 00 4 ... ... ... : ... .. . ... ... ... : ... .. 6 ... ... ...
ROW 6F : ... .. . ... ... ... : D-5 01 . ... ... ... : ... .. . ... ... ... : ... .. . ... ... ... : ... .. . ... ... ... : ... .. 5 ... ... ...
ROW 70 : ... .. . ... ... ... : ... .. . ... ... ... : ... .. . ... ... ... : ... .. . ... ... ... : ... .. . ... ... ... : ... .. . ... ... ...
ROW 71 : ... .. . ... ... ... : ... .. . ... ... ... : ... .. . ... ... ... : ... .. 2 ... ... ... : ... .. . ... ... ... : ... .. . ... ... ...
ROW 72 : A-3 01 . ... ... ... : A-4 00 . ... ... ... : ... .. . ... ... ... : ... .. . ... ... ... : ... .. . ... ... ... : ... .. . ... ... ...
ROW 73 : A-3 02 . ... ... ... : A-4 03 . ... ... ... : ... .. . ... ... ... : ... .. 1 ... ... ... : ... .. . ... ... ... : ... .. . ... ... ...
ROW 74 : A-3 00 . ... ... ... : A-4 02 . ... ... ... : ... .. . ... ... ... : ... .. . ... ... ... : ... .. . ... ... ... : ... .. . ... ... ...
ROW 75 : ... .. . ... ... ... : A-4 01 . ... ... ... : --- .. . ... ... ... : ... .. 3 ... ... ... : ... .. . ... ... ... : ... .. . ... ... ...
ROW 76 : ... .. . ... ... ... : ... .. . ... ... ... : ... .. . ... ... ... : ... .. 1 ... ... ... : ... .. . ... ... ... : ... .. 3 ... ... ...
ROW 77 : ... .. . ... ... ... : ... .. . ... ... ... : ... .. . ... ... ... : ... .. . ... ... ... : ... .. . ... ... ... : ... .. . ... ... ...
ROW 78 : A#4 01 . ... ... ... : A#5 00 . ... ... ... : C#3 00 . ... ... ... : 8-# 01 B ... ... ... : A-1 05 . ... ... ... : B-2 04 8 I01 JB3 ...
ROW 79 : A#4 02 . ... ... ... : A#5 03 . ... ... ... : ... .. . ... ... ... : 9-# 00 8 ... ... ... : ... .. . ... ... ... : ... .. 7 ... ... ...
ROW 7A : A#4 00 . ... ... ... : A#5 02 . ... ... ... : ... .. . ... ... ... : ... .. 7 ... ... ... : ... .. . ... ... ... : ... .. 6 ... ... ...
ROW 7B : ... .. . ... ... ... : A#5 01 . ... ... ... : ... .. . ... ... ... : A-# 01 6 ... ... ... : ... .. . ... ... ... : ... .. 5 ... ... ...
ROW 7C : ... .. . ... ... ... : ... .. . ... ... ... : ... .. . ... ... ... : 9-# 01 . ... ... ... : ... .. . ... ... ... : ... .. . ... ... ...
ROW 7D : ... .. . ... ... ... : ... .. . ... ... ... : ... .. . ... ... ... : A-# 00 5 ... ... ... : ... .. . ... ... ... : ... .. . ... ... ...
ROW 7E : F-4 01 . ... ... ... : F-5 00 . ... ... ... : ... .. . ... ... ... : ... .. . ... ... ... : ... .. . ... ... ... : ... .. . ... ... ...
ROW 7F : F-4 02 . ... ... ... : F-5 03 . ... ... ... : ... .. . ... ... ... : ... .. . ... ... ... : ... .. . ... ... ... : ... .. . ... ... ...
ROW 80 : F-4 00 . ... ... ... : F-5 02 . ... ... ... : ... .. . ... ... ... : ... .. 4 ... ... ... : ... .. . ... ... ... : ... .. . ... ... ...
ROW 81 : ... .. . ... ... ... : F-5 01 . ... ... ... : --- .. . ... ... ... : ... .. . ... ... ... : ... .. . ... ... ... : ... .. . ... ... ...
ROW 82 : ... .. . ... ... ... : ... .. . ... ... ... : ... .. . ... ... ... : ... .. . ... ... ... : ... .. . ... ... ... : ... .. 3 ... ... ...
ROW 83 : ... .. . ... ... ... : ... .. . ... ... ... : ... .. . ... ... ... : ... .. . ... ... ... : ... .. . ... ... ... : ... .. . ... ... ...
ROW 84 : C-4 01 . ... ... ... : C-5 00 . ... ... ... : ... .. . ... ... ... : B-# 00 2 ... ... ... : A-1 05 . ... ... ... : ... .. . ... ... ...
ROW 85 : C-4 02 . ... ... ... : C-5 03 . ... ... ... : ... .. . ... ... ... : ... .. 3 ... ... ... : ... .. . ... ... ... : ... .. . ... ... ...
ROW 86 : C-4 00 . ... ... ... : C-5 02 . ... ... ... : ... .. . ... ... ... : ... .. . ... ... ... : ... .. . ... ... ... : ... .. . ... ... ...
ROW 87 : ... .. . ... ... ... : C-5 01 . ... ... ... : ... .. . ... ... ... : ... .. 4 ... ... ... : ... .. . ... ... ... : ... .. . ... ... ...
ROW 88 : ... .. . ... ... ... : ... .. . ... ... ... : ... .. . ... ... ... : ... .. 5 ... ... ... : ... .. . ... ... ... : ... .. . ... ... ...
ROW 89 : ... .. . ... ... ... : ... .. . ... ... ... : ... .. . ... ... ... : ... .. . ... ... ... : ... .. . ... ... ... : ... .. . ... ... ...
ROW 8A : G-3 01 . ... ... ... : G-4 00 . ... ... ... : ... .. . ... ... ... : ... .. 6 ... ... ... : ... .. . ... ... ... : ... .. . ... ... ...
ROW 8B : G-3 02 . ... ... ... : G-4 03 . ... ... ... : ... .. . ... ... ... : ... .. 7 ... ... ... : ... .. . ... ... ... : ... .. . ... ... ...
ROW 8C : G-3 00 . ... ... ... : G-4 02 . ... ... ... : ... .. . ... ... ... : ... .. . ... ... ... : ... .. . ... ... ... : ... .. . ... ... ...
ROW 8D : ... .. . ... ... ... : G-4 01 . ... ... ... : ... .. . ... ... ... : ... .. 8 ... ... ... : ... .. . ... ... ... : ... .. . ... ... ...
ROW 8E : ... .. . ... ... ... : ... .. . ... ... ... : ... .. . ... ... ... : ... .. . ... ... ... : ... .. . ... ... ... : ... .. . ... ... ...
ROW 8F : ... .. . ... ... ... : ... .. . ... ... ... : ... .. . ... ... ... : ... .. 9 ... ... ... : ... .. . ... ... ... : ... .. . ... ... ...
ROW 90 : D#3 01 . ... ... ... : D#4 00 . ... ... ... : C-3 00 . ... ... ... : 8-# 00 E ... ... ... : C-1 05 . ... ... ... : A#2 04 8 I01 J9B ...
ROW 91 : D#3 02 . ... ... ... : D#4 03 . ... ... ... : ... .. . ... ... ... : 4-# 00 A ... ... ... : ... .. . ... ... ... : ... .. 7 ... ... ...
ROW 92 : D#3 00 . ... ... ... : D#4 02 . ... ... ... : ... .. . ... ... ... : 7-# 00 D ... ... ... : ... .. . ... ... ... : ... .. 6 ... ... ...
ROW 93 : ... .. . ... ... ... : D#4 01 . ... ... ... : ... .. . ... ... ... : 9-# 00 A ... ... ... : ... .. . ... ... ... : ... .. 5 ... ... ...
ROW 94 : ... .. . ... ... ... : ... .. . ... ... ... : ... .. . ... ... ... : A-# 00 B ... ... ... : ... .. . ... ... ... : ... .. . ... ... ...
ROW 95 : ... .. . ... ... ... : ... .. . ... ... ... : ... .. . ... ... ... : B-# 00 A ... ... ... : ... .. . ... ... ... : ... .. . ... ... ...
ROW 96 : ... .. . ... ... ... : ... .. . ... ... ... : ... .. . ... ... ... : ... .. . ... ... ... : ... .. . ... ... ... : ... .. . ... ... ...
ROW 97 : ... .. . ... ... ... : ... .. . ... ... ... : ... .. . ... ... ... : ... .. 9 ... ... ... : ... .. . ... ... ... : ... .. . ... ... ...
ROW 98 : ... .. . ... ... ... : ... .. . ... ... ... : ... .. . ... ... ... : ... .. . ... ... ... : ... .. . ... ... ... : ... .. . ... ... ...
ROW 99 : ... .. . P86 ... ... : ... .. . P83 ... ... : --- .. . ... ... ... : ... .. 8 ... ... ... : ... .. . ... ... ... : ... .. . ... ... ...
ROW 9A : E-3 00 . P78 ... ... : E-4 01 . P7C ... ... : ... .. . ... ... ... : ... .. . ... ... ... : ... .. . ... ... ... : ... .. 3 ... ... ...
ROW 9B : ... .. . P7F ... ... : ... .. . P7F ... ... : ... .. . ... ... ... : ... .. . ... ... ... : ... .. . ... ... ... : ... .. . ... ... ...
ROW 9C : C#3 01 . ... ... ... : C#4 00 . P80 ... ... : ... .. . ... ... ... : ... .. . ... ... ... : A-1 05 . ... ... ... : ... .. . ... ... ...
ROW 9D : C#3 02 . ... ... ... : C#4 03 . ... ... ... : ... .. . ... ... ... : ... .. 7 ... ... ... : ... .. . ... ... ... : ... .. . ... ... ...
ROW 9E : C#3 00 . ... ... ... : C#4 02 . ... ... ... : ... .. . ... ... ... : ... .. . ... ... ... : ... .. . ... ... ... : ... .. . ... ... ...
ROW 9F : ... .. . ... ... ... : C#4 01 . ... ... ... : ... .. . ... ... ... : ... .. . ... ... ... : ... .. . ... ... ... : ... .. . ... ... ...
ROW A0 : ... .. . ... ... ... : ... .. . ... ... ... : ... .. . ... ... ... : ... .. . ... ... ... : ... .. . ... ... ... : ... .. . ... ... ...
ROW A1 : ... .. . ... ... ... : ... .. . ... ... ... : ... .. . ... ... ... : ... .. . ... ... ... : ... .. . ... ... ... : ... .. . ... ... ...
ROW A2 : ... .. . ... ... ... : ... .. . ... ... ... : ... .. . ... ... ... : ... .. 6 ... ... ... : A-1 05 . ... ... ... : ... .. . ... ... ...
ROW A3 : ... .. . ... ... ... : ... .. . ... ... ... : ... .. . ... ... ... : ... .. . ... ... ... : ... .. . ... ... ... : ... .. . ... ... ...
ROW A4 : ... .. . ... ... ... : ... .. . ... ... ... : ... .. . ... ... ... : ... .. . ... ... ... : ... .. . ... ... ... : ... .. . ... ... ...
ROW A5 : ... .. . ... ... ... : ... .. . ... ... ... : ... .. . ... ... ... : ... .. . ... ... ... : ... .. . ... ... ... : ... .. . ... ... ...
ROW A6 : ... .. . ... ... ... : ... .. . ... ... ... : ... .. . ... ... ... : ... .. . ... ... ... : ... .. . ... ... ... : ... .. . ... ... ...
ROW A7 : ... .. . ... ... ... : ... .. . ... ... ... : ... .. . ... ... ... : ... .. 5 ... ... ... : ... .. . ... ... ... : ... .. . ... ... ...
ROW A8 : D#3 01 . ... ... ... : D#4 00 . ... ... ... : C-3 00 . ... ... ... : 8-# 01 B ... ... ... : A-1 05 . ... ... ... : ... .. 8 ... ... ...
ROW A9 : D#3 02 . ... ... ... : D#4 03 . ... ... ... : ... .. . ... ... ... : 9-# 00 8 ... ... ... : ... .. . ... ... ... : ... .. 7 ... ... ...
ROW AA : D#3 00 . ... ... ... : D#4 02 . ... ... ... : ... .. . ... ... ... : ... .. 7 ... ... ... : ... .. . ... ... ... : ... .. 6 ... ... ...
ROW AB : ... .. . ... ... ... : D#4 01 . ... ... ... : ... .. . ... ... ... : A-# 01 6 ... ... ... : ... .. . ... ... ... : ... .. 5 ... ... ...
ROW AC : ... .. . ... ... ... : ... .. . ... ... ... : ... .. . ... ... ... : 9-# 01 . ... ... ... : ... .. . ... ... ... : ... .. . ... ... ...
ROW AD : ... .. . ... ... ... : ... .. . ... ... ... : ... .. . ... ... ... : A-# 00 5 ... ... ... : ... .. . ... ... ... : ... .. . ... ... ...
ROW AE : ... .. . ... ... ... : ... .. . ... ... ... : ... .. . ... ... ... : ... .. . ... ... ... : ... .. . ... ... ... : ... .. . ... ... ...
ROW AF : ... .. . ... ... ... : ... .. . ... ... ... : ... .. . ... ... ... : ... .. . ... ... ... : ... .. . ... ... ... : ... .. . ... ... ...
ROW B0 : ... .. . ... ... ... : ... .. . ... ... ... : ... .. . ... ... ... : ... .. 4 ... ... ... : ... .. . ... ... ... : ... .. . ... ... ...
ROW B1 : ... .. . ... ... ... : ... .. . ... ... ... : --- .. . ... ... ... : ... .. . ... ... ... : ... .. . ... ... ... : ... .. . ... ... ...
ROW B2 : ... .. . ... ... ... : ... .. . ... ... ... : ... .. . ... ... ... : ... .. . ... ... ... : ... .. . ... ... ... : ... .. 3 ... ... ...
ROW B3 : ... .. . ... ... ... : ... .. . ... ... ... : ... .. . ... ... ... : ... .. . ... ... ... : ... .. . ... ... ... : ... .. . ... ... ...
ROW B4 : F#3 01 . P84 ... ... : F#4 00 . P83 ... ... : C-3 00 . ... ... ... : 7-# 00 E ... ... ... : C-1 05 . ... ... ... : D#2 04 8 I01 J99 ...
ROW B5 : G-3 02 . P78 ... ... : G-4 03 . P7E ... ... : ... .. . ... ... ... : 3-# 00 A ... ... ... : ... .. . ... ... ... : ... .. 7 ... ... ...
ROW B6 : G-3 00 . P7D ... ... : G-4 02 . P81 ... ... : ... .. . ... ... ... : 6-# 00 D ... ... ... : ... .. . ... ... ... : ... .. 6 ... ... ...
ROW B7 : ... .. . P82 ... ... : G-4 01 . P84 ... ... : ... .. . ... ... ... : 8-# 00 A ... ... ... : ... .. . ... ... ... : ... .. 5 ... ... ...
ROW B8 : ... .. . P87 ... ... : G#4 01 . P7F ... ... : ... .. . ... ... ... : 9-# 00 B ... ... ... : ... .. . ... ... ... : ... .. . ... ... ...
ROW B9 : G#3 00 . P7C ... ... : ... .. . P80 ... ... : ... .. . ... ... ... : A-# 00 A ... ... ... : ... .. . ... ... ... : ... .. . ... ... ...
ROW BA : ... .. . P7F ... ... : ... .. . ... ... ... : ... .. . ... ... ... : ... .. . ... ... ... : ... .. . ... ... ... : ... .. . ... ... ...
ROW BB : ... .. . ... ... ... : ... .. . ... ... ... : ... .. . ... ... ... : ... .. 9 ... ... ... : ... .. . ... ... ... : ... .. . ... ... ...
ROW BC : ... .. . ... ... ... : ... .. . ... ... ... : ... .. . ... ... ... : ... .. . ... ... ... : ... .. . ... ... ... : ... .. . ... ... ...
ROW BD : ... .. . P83 ... ... : ... .. . P83 ... ... : --- .. . ... ... ... : ... .. 8 ... ... ... : ... .. . ... ... ... : ... .. . ... ... ...
ROW BE : ... .. . P85 ... ... : ... .. . P84 ... ... : ... .. . ... ... ... : ... .. . ... ... ... : ... .. . ... ... ... : ... .. 3 ... ... ...
ROW BF : ... .. . P84 ... ... : ... .. . ... ... ... : ... .. . ... ... ... : ... .. . ... ... ... : ... .. . ... ... ... : ... .. . ... ... ...
ROW C0 : ... .. . P81 ... ... : ... .. . P81 ... ... : C-3 00 . ... ... ... : ... .. . ... ... ... : F-1 05 . ... ... ... : A#3 04 8 ... ... ...
ROW C1 : ... .. . P7D ... ... : ... .. . P7F ... ... : ... .. . ... ... ... : ... .. 7 ... ... ... : ... .. . ... ... ... : ... .. 7 ... ... ...
ROW C2 : ... .. . P7A ... ... : G-4 01 . P84 ... ... : ... .. . ... ... ... : ... .. . ... ... ... : ... .. . ... ... ... : ... .. 6 ... ... ...
ROW C3 : ... .. . P79 ... ... : ... .. . ... ... ... : ... .. . ... ... ... : ... .. . ... ... ... : ... .. . ... ... ... : ... .. 5 ... ... ...
ROW C4 : ... .. . P7B ... ... : G#4 01 . P7D ... ... : ... .. . ... ... ... : ... .. . ... ... ... : ... .. . ... ... ... : ... .. . ... ... ...
ROW C5 : ... .. . P7F ... ... : ... .. . P80 ... ... : ... .. . ... ... ... : ... .. . ... ... ... : ... .. . ... ... ... : ... .. . ... ... ...
ROW C6 : ... .. . P82 ... ... : ... .. . P82 ... ... : ... .. . ... ... ... : ... .. 6 ... ... ... : F-1 05 . ... ... ... : ... .. . ... ... ...
ROW C7 : ... .. . P85 ... ... : ... .. . P84 ... ... : ... .. . ... ... ... : ... .. . ... ... ... : ... .. . ... ... ... : ... .. . ... ... ...
ROW C8 : ... .. . ... ... ... : ... .. . ... ... ... : ... .. . ... ... ... : ... .. . ... ... ... : ... .. . ... ... ... : ... .. . ... ... ...
ROW C9 : ... .. . P81 ... ... : ... .. . P81 ... ... : --- .. . ... ... ... : ... .. . ... ... ... : ... .. . ... ... ... : ... .. . ... ... ...
ROW CA : ... .. . P7E ... ... : ... .. . P80 ... ... : ... .. . ... ... ... : ... .. . ... ... ... : ... .. . ... ... ... : ... .. 3 ... ... ...
ROW CB : ... .. . P7A ... ... : ... .. . P7D ... ... : ... .. . ... ... ... : ... .. 5 ... ... ... : ... .. . ... ... ... : ... .. . ... ... ...
ROW CC : D#3 01 . P7F ... ... : D#4 00 . P80 ... ... : C-3 00 . ... ... ... : 8-# 01 B ... ... ... : F#1 05 . ... ... ... : A#2 04 8 I01 J9B ...
ROW CD : D#3 02 . ... ... ... : D#4 03 . ... ... ... : ... .. . ... ... ... : 9-# 00 8 ... ... ... : ... .. . ... ... ... : ... .. 7 ... ... ...
ROW CE : D#3 00 . ... ... ... : D#4 02 . ... ... ... : ... .. . ... ... ... : ... .. 7 ... ... ... : ... .. . ... ... ... : ... .. 6 ... ... ...
ROW CF : ... .. . ... ... ... : D#4 01 . ... ... ... : ... .. . ... ... ... : A-# 01 6 ... ... ... : ... .. . ... ... ... : ... .. 5 ... ... ...
ROW D0 : ... .. . ... ... ... : ... .. . ... ... ... : ... .. . ... ... ... : 9-# 01 . ... ... ... : ... .. . ... ... ... : ... .. . ... ... ...
ROW D1 : ... .. . ... ... ... : ... .. . ... ... ... : ... .. . ... ... ... : A-# 00 5 ... ... ... : ... .. . ... ... ... : ... .. . ... ... ...
ROW D2 : ... .. . ... ... ... : ... .. . ... ... ... : ... .. . ... ... ... : ... .. . ... ... ... : F#1 05 . ... ... ... : ... .. . ... ... ...
ROW D3 : ... .. . ... ... ... : ... .. . ... ... ... : ... .. . ... ... ... : ... .. . ... ... ... : ... .. . ... ... ... : ... .. . ... ... ...
ROW D4 : ... .. . ... ... ... : ... .. . ... ... ... : ... .. . ... ... ... : ... .. 4 ... ... ... : ... .. . ... ... ... : ... .. . ... ... ...
ROW D5 : ... .. . ... ... ... : ... .. . ... ... ... : --- .. . ... ... ... : ... .. . ... ... ... : ... .. . ... ... ... : ... .. . ... ... ...
ROW D6 : ... .. . ... ... ... : ... .. . ... ... ... : ... .. . ... ... ... : ... .. . ... ... ... : ... .. . ... ... ... : ... .. 3 ... ... ...
ROW D7 : ... .. . ... ... ... : ... .. . ... ... ... : ... .. . ... ... ... : ... .. . ... ... ... : ... .. . ... ... ... : ... .. . ... ... ...
ROW D8 : G-3 01 . P84 ... ... : G-4 00 . P83 ... ... : ... .. . ... ... ... : 8-# 00 E ... ... ... : G#1 05 . ... ... ... : ... .. . ... ... ...
ROW D9 : G#3 02 . P79 ... ... : G#4 03 . P7E ... ... : ... .. . ... ... ... : 4-# 00 A ... ... ... : ... .. . ... ... ... : ... .. . ... ... ...
ROW DA : G#3 00 . P7E ... ... : G#4 02 . P81 ... ... : ... .. . ... ... ... : 7-# 00 D ... ... ... : ... .. . ... ... ... : ... .. . ... ... ...
ROW DB : ... .. . P83 ... ... : G#4 01 . P84 ... ... : ... .. . ... ... ... : 9-# 00 A ... ... ... : ... .. . ... ... ... : ... .. . ... ... ...
ROW DC : A-3 00 . P79 ... ... : A-4 01 . P7F ... ... : ... .. . ... ... ... : A-# 00 B ... ... ... : ... .. . ... ... ... : ... .. . ... ... ...
ROW DD : ... .. . P7E ... ... : ... .. . P80 ... ... : ... .. . ... ... ... : B-# 00 A ... ... ... : ... .. . ... ... ... : ... .. . ... ... ...
ROW DE : ... .. . P7F ... ... : ... .. . ... ... ... : ... .. . ... ... ... : ... .. . ... ... ... : G#1 05 . ... ... ... : ... .. . ... ... ...
ROW DF : ... .. . ... ... ... : ... .. . ... ... ... : ... .. . ... ... ... : ... .. 9 ... ... ... : ... .. . ... ... ... : ... .. . ... ... ...
ROW E0 : ... .. . ... ... ... : ... .. . ... ... ... : ... .. . ... ... ... : ... .. . ... ... ... : ... .. . ... ... ... : ... .. . ... ... ...
ROW E1 : ... .. . ... ... ... : ... .. . ... ... ... : ... .. . ... ... ... : ... .. 8 ... ... ... : ... .. . ... ... ... : ... .. . ... ... ...
ROW E2 : ... .. . ... ... ... : ... .. . ... ... ... : ... .. . ... ... ... : ... .. . ... ... ... : ... .. . ... ... ... : ... .. . ... ... ...
ROW E3 : ... .. . ... ... ... : ... .. . ... ... ... : ... .. . ... ... ... : ... .. . ... ... ... : ... .. . ... ... ... : ... .. . ... ... ...
ROW E4 : G-3 01 . ... ... ... : G-4 00 . ... ... ... : E-3 00 . ... ... ... : ... .. . ... ... ... : B-1 05 . ... ... ... : D-3 04 8 I02 J04 ...
ROW E5 : G-3 02 . ... ... ... : G-4 03 . ... ... ... : ... .. . ... ... ... : ... .. 7 ... ... ... : ... .. . ... ... ... : ... .. 7 ... ... ...
ROW E6 : G-3 00 . ... ... ... : G-4 02 . ... ... ... : ... .. . ... ... ... : ... .. . ... ... ... : ... .. . ... ... ... : ... .. 6 ... ... ...
ROW E7 : ... .. . ... ... ... : G-4 01 . ... ... ... : ... .. . ... ... ... : ... .. . ... ... ... : ... .. . ... ... ... : ... .. 5 ... ... ...
ROW E8 : ... .. . ... ... ... : ... .. . ... ... ... : ... .. . ... ... ... : ... .. . ... ... ... : ... .. . ... ... ... : ... .. . ... ... ...
ROW E9 : ... .. . ... ... ... : ... .. . ... ... ... : ... .. . ... ... ... : ... .. . ... ... ... : ... .. . ... ... ... : ... .. . ... ... ...
ROW EA : ... .. . ... ... ... : ... .. . ... ... ... : ... .. . ... ... ... : ... .. 6 ... ... ... : B-1 05 . ... ... ... : ... .. . ... ... ...
ROW EB : ... .. . ... ... ... : ... .. . ... ... ... : ... .. . ... ... ... : ... .. . ... ... ... : ... .. . ... ... ... : ... .. . ... ... ...
ROW EC : ... .. . ... ... ... : ... .. . ... ... ... : ... .. . ... ... ... : ... .. . ... ... ... : ... .. . ... ... ... : ... .. . ... ... ...
ROW ED : ... .. . ... ... ... : ... .. . ... ... ... : --- .. . ... ... ... : ... .. . ... ... ... : ... .. . ... ... ... : ... .. . ... ... ...
ROW EE : ... .. . ... ... ... : ... .. . ... ... ... : ... .. . ... ... ... : ... .. . ... ... ... : ... .. . ... ... ... : ... .. 3 ... ... ...
ROW EF : ... .. . ... ... ... : ... .. . ... ... ... : ... .. . ... ... ... : ... .. 5 ... ... ... : ... .. . ... ... ... : ... .. . ... ... ...
ROW F0 : A-3 01 . ... ... ... : A-4 00 . ... ... ... : ... .. . ... ... ... : 8-# 01 B ... ... ... : G-1 05 . ... ... ... : ... .. . ... ... ...
ROW F1 : A-3 02 . ... ... ... : A-4 03 . ... ... ... : ... .. . ... ... ... : 9-# 00 8 ... ... ... : ... .. . ... ... ... : ... .. . ... ... ...
ROW F2 : A-3 00 . ... ... ... : A-4 02 . ... ... ... : ... .. . ... ... ... : ... .. 7 ... ... ... : ... .. . ... ... ... : ... .. . ... ... ...
ROW F3 : ... .. . ... ... ... : A-4 01 . ... ... ... : ... .. . ... ... ... : A-# 01 6 ... ... ... : ... .. . ... ... ... : ... .. . ... ... ...
ROW F4 : ... .. . ... ... ... : ... .. . ... ... ... : ... .. . ... ... ... : 9-# 01 . ... ... ... : ... .. . ... ... ... : ... .. . ... ... ...
ROW F5 : ... .. . ... ... ... : ... .. . ... ... ... : ... .. . ... ... ... : A-# 00 5 ... ... ... : ... .. . ... ... ... : ... .. . ... ... ...
ROW F6 : ... .. . ... ... ... : ... .. . ... ... ... : ... .. . ... ... ... : ... .. . ... ... ... : G-1 05 . ... ... ... : ... .. . ... ... ...
ROW F7 : ... .. . ... ... ... : ... .. . ... ... ... : ... .. . ... ... ... : ... .. . ... ... ... : ... .. . ... ... ... : ... .. . ... ... ...
ROW F8 : ... .. . ... ... ... : ... .. . ... ... ... : ... .. . ... ... ... : ... .. 4 ... ... ... : ... .. . ... ... ... : ... .. . ... ... ...
ROW F9 : ... .. . ... ... ... : ... .. . ... ... ... : ... .. . ... ... ... : ... .. . ... ... ... : ... .. . ... ... ... : ... .. . ... ... ...
ROW FA : ... .. . ... ... ... : ... .. . ... ... ... : ... .. . ... ... ... : ... .. . ... ... ... : ... .. . ... ... ... : ... .. . ... ... ...
ROW FB : ... .. . ... ... ... : ... .. . ... ... ... : ... .. . ... ... ... : ... .. . ... ... ... : ... .. . ... ... ... : ... .. . ... ... ...
ROW FC : E-4 01 . P84 ... ... : E-5 00 . P82 ... ... : E-3 00 . ... ... ... : B-# 00 7 ... ... ... : G-1 05 . ... ... ... : ... .. 8 ... ... ...
ROW FD : E-4 02 . P7F ... ... : E-5 03 . P7F ... ... : ... .. . ... ... ... : ... .. . ... ... ... : ... .. . ... ... ... : ... .. 7 ... ... ...
ROW FE : D#4 00 . P84 ... ... : D#5 02 . P81 ... ... : ... .. . ... ... ... : ... .. . ... ... ... : ... .. . ... ... ... : ... .. 6 ... ... ...
ROW FF : ... .. . P7F ... ... : D#5 01 . P80 ... ... : ... .. . ... ... ... : ... .. 8 ... ... ... : ... .. . ... ... ... : ... .. 5 ... ... ...

PATTERN 1B
ROW 00 : ... .. . ... ... ... : ... .. . ... ... ... : ... .. . ... ... ... : ... .. . ... ... ... : ... .. . ... ... ... : ... .. . ... ... ...
ROW 01 : ... .. . ... ... ... : ... .. . ... ... ... : ... .. . ... ... ... : ... .. . ... ... ... : ... .. . ... ... ... : ... .. . ... ... ...
ROW 02 : ... .. . ... ... ... : ... .. . ... ... ... : ... .. . ... ... ... : ... .. 9 ... ... ... : G-1 05 . ... ... ... : ... .. . ... ... ...
ROW 03 : ... .. . ... ... ... : ... .. . ... ... ... : ... .. . ... ... ... : ... .. . ... ... ... : ... .. . ... ... ... : ... .. . ... ... ...
ROW 04 : ... .. . ... ... ... : ... .. . ... ... ... : ... .. . ... ... ... : ... .. . ... ... ... : ... .. . ... ... ... : ... .. . ... ... ...
ROW 05 : ... .. . P82 ... ... : ... .. . P81 ... ... : --- .. . ... ... ... : A-# 00 A ... ... ... : ... .. . ... ... ... : ... .. . ... ... ...
ROW 06 : ... .. . P85 ... ... : ... .. . P82 ... ... : ... .. . ... ... ... : ... .. . ... ... ... : ... .. . ... ... ... : ... .. 3 ... ... ...
ROW 07 : E-4 00 . P7E ... ... : E-5 01 . P7E ... ... : ... .. . ... ... ... : ... .. . ... ... ... : ... .. . ... ... ... : ... .. . ... ... ...
ROW 08 : ... .. . P81 ... ... : ... .. . P7F ... ... : E-3 00 . ... ... ... : ... .. . ... ... ... : G-1 05 . ... ... ... : G-2 04 8 I02 J05 ...
ROW 09 : ... .. . P84 ... ... : ... .. . P80 ... ... : ... .. . ... ... ... : ... .. . ... ... ... : ... .. . ... ... ... : ... .. 7 ... ... ...
ROW 0A : F-4 00 . P7D ... ... : ... .. . P81 ... ... : ... .. . ... ... ... : ... .. . ... ... ... : ... .. . ... ... ... : ... .. 6 ... ... ...
ROW 0B : ... .. . P7F ... ... : ... .. . P82 ... ... : ... .. . ... ... ... : ... .. . ... ... ... : ... .. . ... ... ... : ... .. 5 ... ... ...
ROW 0C : ... .. . ... ... ... : F-5 01 . P7E ... ... : ... .. . ... ... ... : ... .. . ... ... ... : G-1 05 . ... ... ... : ... .. . ... ... ...
ROW 0D : ... .. . ... ... ... : ... .. . P7F ... ... : ... .. . ... ... ... : ... .. . ... ... ... : ... .. . ... ... ... : ... .. . ... ... ...
ROW 0E : ... .. . ... ... ... : ... .. . P80 ... ... : ... .. . ... ... ... : 9-# 00 . ... ... ... : ... .. . ... ... ... : ... .. . ... ... ...
ROW 0F : ... .. . ... ... ... : ... .. . ... ... ... : ... .. . ... ... ... : ... .. . ... ... ... : ... .. . ... ... ... : ... .. . ... ... ...
ROW 10 : ... .. . ... ... ... : ... .. . ... ... ... : ... .. . ... ... ... : ... .. . ... ... ... : G-1 05 . ... ... ... : ... .. . ... ... ...
ROW 11 : ... .. . ... ... ... : ... .. . ... ... ... : --- .. . ... ... ... : ... .. . ... ... ... : ... .. . ... ... ... : ... .. . ... ... ...
ROW 12 : ... .. . ... ... ... : ... .. . ... ... ... : ... .. . ... ... ... : ... .. . ... ... ... : ... .. . ... ... ... : ... .. . ... ... ...
ROW 13 : ... .. . ... ... ... : ... .. . ... ... ... : ... .. . ... ... ... : ... .. . ... ... ... : ... .. . ... ... ... : ... .. 3 ... ... ...
ROW 14 : A#4 01 . ... ... ... : A#5 00 . ... ... ... : E-3 00 . ... ... ... : ... .. . ... ... ... : G-1 05 . ... ... ... : D-4 04 8 I02 J04 ...
ROW 15 : A#4 02 . ... ... ... : A#5 03 . ... ... ... : ... .. . ... ... ... : ... .. . ... ... ... : ... .. . ... ... ... : ... .. 7 ... ... ...
ROW 16 : A#4 00 . ... ... ... : A#5 02 . ... ... ... : ... .. . ... ... ... : ... .. . ... ... ... : ... .. . ... ... ... : ... .. 6 ... ... ...
ROW 17 : ... .. . ... ... ... : A#5 01 . ... ... ... : ... .. . ... ... ... : 8-# 00 9 ... ... ... : ... .. . ... ... ... : ... .. 5 ... ... ...
ROW 18 : ... .. . ... ... ... : ... .. . ... ... ... : ... .. . ... ... ... : ... .. . ... ... ... : ... .. . ... ... ... : ... .. . ... ... ...
ROW 19 : ... .. . ... ... ... : ... .. . ... ... ... : ... .. . ... ... ... : ... .. . ... ... ... : ... .. . ... ... ... : ... .. . ... ... ...
ROW 1A : ... .. . ... ... ... : ... .. . ... ... ... : ... .. . ... ... ... : ... .. . ... ... ... : G-1 05 . ... ... ... : ... .. . ... ... ...
ROW 1B : ... .. . ... ... ... : ... .. . ... ... ... : ... .. . ... ... ... : ... .. . ... ... ... : ... .. . ... ... ... : ... .. . ... ... ...
ROW 1C : ... .. . ... ... ... : ... .. . ... ... ... : ... .. . ... ... ... : ... .. . ... ... ... : ... .. . ... ... ... : ... .. . ... ... ...
ROW 1D : ... .. . P7E ... ... : ... .. . P7F ... ... : --- .. . ... ... ... : ... .. . ... ... ... : ... .. . ... ... ... : ... .. . ... ... ...
ROW 1E : ... .. . P7D ... ... : A-5 01 . P82 ... ... : ... .. . ... ... ... : ... .. . ... ... ... : ... .. . ... ... ... : ... .. 3 ... ... ...
ROW 1F : A-4 00 . P83 ... ... : ... .. . P81 ... ... : ... .. . ... ... ... : ... .. . ... ... ... : ... .. . ... ... ... : ... .. . ... ... ...
ROW 20 : F#4 01 . P7C ... ... : F-5 00 . ... ... ... : E-3 00 . ... ... ... : 7-# 00 . ... ... ... : G-1 05 . ... ... ... : D-3 04 8 ... ... ...
ROW 21 : F-4 02 . P82 ... ... : F-5 03 . P80 ... ... : ... .. . ... ... ... : ... .. . ... ... ... : ... .. . ... ... ... : ... .. 7 ... ... ...
ROW 22 : F-4 00 . P7F ... ... : F-5 02 . ... ... ... : ... .. . ... ... ... : ... .. . ... ... ... : ... .. . ... ... ... : ... .. 6 ... ... ...
ROW 23 : ... .. . ... ... ... : F-5 01 . ... ... ... : ... .. . ... ... ... : ... .. . ... ... ... : ... .. . ... ... ... : ... .. 5 ... ... ...
ROW 24 : ... .. . ... ... ... : ... .. . ... ... ... : ... .. . ... ... ... : ... .. . ... ... ... : G-1 05 . ... ... ... : ... .. . ... ... ...
ROW 25 : ... .. . ... ... ... : ... .. . ... ... ... : ... .. . ... ... ... : ... .. . ... ... ... : ... .. . ... ... ... : ... .. . ... ... ...
ROW 26 : ... .. . P83 ... ... : F#5 01 . P7F ... ... : ... .. . ... ... ... : ... .. . ... ... ... : ... .. . ... ... ... : ... .. . ... ... ...
ROW 27 : F#4 00 . P7C ... ... : ... .. . P80 ... ... : ... .. . ... ... ... : ... .. . ... ... ... : ... .. . ... ... ... : ... .. . ... ... ...
ROW 28 : F-4 00 . P84 ... ... : ... .. . ... ... ... : ... .. . ... ... ... : ... .. . ... ... ... : G-1 05 . ... ... ... : ... .. . ... ... ...
ROW 29 : ... .. . P81 ... ... : F-5 01 . P81 ... ... : ... .. . ... ... ... : 6-# 00 8 ... ... ... : ... .. . ... ... ... : ... .. . ... ... ...
ROW 2A : ... .. . P7D ... ... : ... .. . P7F ... ... : ... .. . ... ... ... : ... .. . ... ... ... : ... .. . ... ... ... : ... .. . ... ... ...
ROW 2B : E-4 00 . P84 ... ... : E-5 01 . P81 ... ... : ... .. . ... ... ... : ... .. . ... ... ... : ... .. . ... ... ... : ... .. . ... ... ...
ROW 2C : ... .. . P7E ... ... : ... .. . ... ... ... : ... .. . ... ... ... : ... .. . ... ... ... : G-1 05 . ... ... ... : ... .. . ... ... ...
ROW 2D : D#4 00 . P85 ... ... : ... .. . P82 ... ... : ... .. . ... ... ... : ... .. . ... ... ... : ... .. . ... ... ... : ... .. . ... ... ...
ROW 2E : ... .. . P84 ... ... : F-5 01 . P80 ... ... : ... .. . ... ... ... : ... .. . ... ... ... : ... .. . ... ... ... : ... .. . ... ... ...
ROW 2F : ... .. . P82 ... ... : ... .. . P7F ... ... : ... .. . ... ... ... : ... .. . ... ... ... : ... .. . ... ... ... : ... .. . ... ... ...
ROW 30 : ... .. . P80 ... ... : ... .. . P7E ... ... : ... .. . ... ... ... : ... .. . ... ... ... : ... .. . ... ... ... : ... .. . ... ... ...
ROW 31 : D-4 00 . P85 ... ... : E-5 01 . P80 ... ... : ... .. . ... ... ... : ... .. . ... ... ... : ... .. . ... ... ... : ... .. . ... ... ...
ROW 32 : ... .. . P7C ... ... : D#5 01 . P7F ... ... : ... .. . ... ... ... : 5-# 00 . ... ... ... : G-1 05 . ... ... ... : ... .. . ... ... ...
ROW 33 : C#4 00 . P80 ... ... : D-5 01 . P80 ... ... : ... .. . ... ... ... : ... .. . ... ... ... : ... .. . ... ... ... : ... .. . ... ... ...
ROW 34 : C-4 00 . P83 ... ... : C#5 01 . ... ... ... : ... .. . ... ... ... : ... .. . ... ... ... : ... .. . ... ... ... : ... .. . ... ... ...
ROW 35 : ... .. . ... ... ... : ... .. . ... ... ... : --- .. . ... ... ... : ... .. . ... ... ... : ... .. . ... ... ... : ... .. . ... ... ...
ROW 36 : ... .. . P7E ... ... : C-5 01 . P83 ... ... : ... .. . ... ... ... : ... .. 5 ... ... ... : ... .. . ... ... ... : ... .. 3 ... ... ...
ROW 37 : B-3 00 . P85 ... ... : ... .. . P80 ... ... : ... .. . ... ... ... : ... .. . ... ... ... : ... .. . ... ... ... : ... .. . ... ... ...
ROW 38 : F-4 00 C P80 ... ... : F-3 01 . ... ... ... : A#2 00 . ... ... ... : A-# 00 F ... ... ... : C-1 05 . ... ... ... : G#2 04 . I02 J35 ...
ROW 39 : F-4 03 . ... ... ... : F-3 02 . ... ... ... : ... .. . ... ... ... : 7-# 00 B ... ... ... : ... .. . ... ... ... : ... .. 5 ... ... ...
ROW 3A : F-4 02 . ... ... ... : F-3 00 . ... ... ... : ... .. . ... ... ... : 8-# 00 E ... ... ... : ... .. . ... ... ... : ... .. 4 ... ... ...
ROW 3B : F-4 01 . ... ... ... : ... .. . ... ... ... : ... .. . ... ... ... : 9-# 00 B ... ... ... : ... .. . ... ... ... : ... .. . ... ... ...
ROW 3C : ... .. . ... ... ... : ... .. . ... ... ... : ... .. . ... ... ... : A-# 00 C ... ... ... : ... .. . ... ... ... : ... .. . ... ... ...
ROW 3D : ... .. . ... ... ... : ... .. . ... ... ... : ... .. . ... ... ... : B-# 00 B ... ... ... : ... .. . ... ... ... : ... .. 3 ... ... ...
ROW 3E : ... .. . ... ... ... : ... .. . ... ... ... : ... .. . ... ... ... : ... .. . ... ... ... : A#1 05 . ... ... ... : ... .. . ... ... ...
ROW 3F : ... .. . ... ... ... : ... .. . ... ... ... : ... .. . ... ... ... : A-# 00 A ... ... ... : ... .. . ... ... ... : ... .. . ... ... ...
ROW 40 : ... .. . ... ... ... : ... .. . ... ... ... : ... .. . ... ... ... : B-# 00 . ... ... ... : ... .. . ... ... ... : ... .. . ... ... ...
ROW 41 : ... .. . ... ... ... : ... .. . ... ... ... : --- .. . ... ... ... : ... .. 9 ... ... ... : ... .. . ... ... ... : ... .. . ... ... ...
ROW 42 : ... .. 4 ... ... ... : F-3 01 5 ... ... ... : ... .. . ... ... ... : ... .. . ... ... ... : ... .. . ... ... ... : ... .. 1 ... ... ...
ROW 43 : ... .. . ... ... ... : ... .. . ... ... ... : ... .. . ... ... ... : ... .. . ... ... ... : ... .. . ... ... ... : ... .. . ... ... ...
ROW 44 : D#4 00 C ... ... ... : A#3 01 9 ... ... ... : A#2 00 . ... ... ... : ... .. . ... ... ... : A-1 05 . ... ... ... : ... .. . ... ... ...
ROW 45 : D#4 03 . ... ... ... : A#3 02 . ... ... ... : ... .. . ... ... ... : ... .. 8 ... ... ... : ... .. . ... ... ... : ... .. 5 ... ... ...
ROW 46 : D#4 02 . ... ... ... : A#3 00 . ... ... ... : ... .. . ... ... ... : ... .. . ... ... ... : ... .. . ... ... ... : ... .. 4 ... ... ...
ROW 47 : D#4 01 . ... ... ... : ... .. . ... ... ... : ... .. . ... ... ... : ... .. . ... ... ... : ... .. . ... ... ... : ... .. . ... ... ...
ROW 48 : ... .. . ... ... ... : ... .. . ... ... ... : ... .. . ... ... ... : ... .. . ... ... ... : ... .. . ... ... ... : ... .. 2 ... ... ...
ROW 49 : ... .. . ... ... ... : ... .. . ... ... ... : ... .. . ... ... ... : ... .. . ... ... ... : ... .. . ... ... ... : ... .. 1 ... ... ...
ROW 4A : ... .. . ... ... ... : ... .. . ... ... ... : ... .. . ... ... ... : ... .. 7 ... ... ... : ... .. . ... ... ... : ... .. 5 ... ... ...
ROW 4B : ... .. . ... ... ... : ... .. . ... ... ... : ... .. . ... ... ... : ... .. . ... ... ... : A#1 05 . ... ... ... : ... .. . ... ... ...
ROW 4C : ... .. . ... ... ... : ... .. . ... ... ... : ... .. . ... ... ... : ... .. . ... ... ... : ... .. . ... ... ... : ... .. 4 ... ... ...
ROW 4D : ... .. . ... ... ... : ... .. . ... ... ... : ... .. . ... ... ... : ... .. . ... ... ... : ... .. . ... ... ... : ... .. . ... ... ...
ROW 4E : ... .. 4 ... ... ... : ... .. . ... ... ... : ... .. . ... ... ... : ... .. . ... ... ... : ... .. . ... ... ... : ... .. 2 ... ... ...
ROW 4F : ... .. . ... ... ... : F-3 01 5 ... ... ... : ... .. . ... ... ... : ... .. 6 ... ... ... : ... .. . ... ... ... : ... .. 1 ... ... ...
ROW 50 : F-4 00 C ... ... ... : C#4 01 9 ... ... ... : ... .. . ... ... ... : 9-# 01 A ... ... ... : C-1 05 . ... ... ... : ... .. 5 ... ... ...
ROW 51 : F-4 03 . ... ... ... : C#4 02 . ... ... ... : ... .. . ... ... ... : A-# 00 7 ... ... ... : ... .. . ... ... ... : ... .. . ... ... ...
ROW 52 : F-4 02 . ... ... ... : C#4 00 . ... ... ... : ... .. . ... ... ... : ... .. 6 ... ... ... : ... .. . ... ... ... : ... .. 4 ... ... ...
ROW 53 : F-4 01 . ... ... ... : ... .. . ... ... ... : ... .. . ... ... ... : B-# 01 5 ... ... ... : ... .. . ... ... ... : ... .. . ... ... ...
ROW 54 : ... .. . ... ... ... : ... .. . ... ... ... : ... .. . ... ... ... : A-# 01 . ... ... ... : ... .. . ... ... ... : ... .. 2 ... ... ...
ROW 55 : ... .. . ... ... ... : ... .. . ... ... ... : ... .. . ... ... ... : B-# 00 . ... ... ... : ... .. . ... ... ... : ... .. 1 ... ... ...
ROW 56 : ... .. . ... ... ... : ... .. . ... ... ... : ... .. . ... ... ... : ... .. . ... ... ... : A#1 05 . ... ... ... : ... .. 5 ... ... ...
ROW 57 : ... .. . ... ... ... : ... .. . ... ... ... : ... .. . ... ... ... : ... .. . ... ... ... : ... .. . ... ... ... : ... .. . ... ... ...
ROW 58 : ... .. . ... ... ... : ... .. . ... ... ... : ... .. . ... ... ... : ... .. 4 ... ... ... : ... .. . ... ... ... : ... .. 4 ... ... ...
ROW 59 : ... .. . ... ... ... : ... .. . ... ... ... : --- .. . ... ... ... : ... .. . ... ... ... : ... .. . ... ... ... : ... .. . ... ... ...
ROW 5A : ... .. 4 ... ... ... : A#3 01 5 ... ... ... : ... .. . ... ... ... : ... .. 3 ... ... ... : ... .. . ... ... ... : ... .. 2 ... ... ...
ROW 5B : ... .. . ... ... ... : ... .. . ... ... ... : ... .. . ... ... ... : ... .. . ... ... ... : ... .. . ... ... ... : ... .. 1 ... ... ...
ROW 5C : G#4 00 C P83 ... ... : D#4 01 9 ... ... ... : A#2 00 . ... ... ... : 7-# 00 C ... ... ... : A-1 05 . ... ... ... : ... .. 5 ... ... ...
ROW 5D : A-4 03 . P7E ... ... : D#4 02 . ... ... ... : ... .. . ... ... ... : 3-# 00 8 ... ... ... : ... .. . ... ... ... : ... .. . ... ... ...
ROW 5E : A-4 02 . P81 ... ... : D#4 00 . ... ... ... : ... .. . ... ... ... : 6-# 00 B ... ... ... : ... .. . ... ... ... : ... .. 4 ... ... ...
ROW 5F : A#4 01 . P7D ... ... : ... .. . ... ... ... : ... .. . ... ... ... : A-# 00 7 ... ... ... : ... .. . ... ... ... : ... .. . ... ... ...
ROW 60 : ... .. . P80 ... ... : ... .. . ... ... ... : ... .. . ... ... ... : B-# 00 8 ... ... ... : ... .. . ... ... ... : ... .. . ... ... ...
ROW 61 : ... .. . ... ... ... : ... .. . ... ... ... : ... .. . ... ... ... : C-# 00 7 ... ... ... : ... .. . ... ... ... : ... .. 3 ... ... ...
ROW 62 : ... .. . P81 ... ... : ... .. . ... ... ... : ... .. . ... ... ... : 9-# 00 . ... ... ... : ... .. . ... ... ... : ... .. . ... ... ...
ROW 63 : ... .. . P82 ... ... : ... .. . ... ... ... : ... .. . ... ... ... : ... .. 6 ... ... ... : A#1 05 . ... ... ... : ... .. . ... ... ...
ROW 64 : ... .. . ... ... ... : ... .. . ... ... ... : ... .. . ... ... ... : ... .. . ... ... ... : ... .. . ... ... ... : ... .. . ... ... ...
ROW 65 : ... .. . P80 ... ... : ... .. . ... ... ... : ... .. . ... ... ... : ... .. . ... ... ... : ... .. . ... ... ... : ... .. . ... ... ...
ROW 66 : ... .. . ... ... ... : ... .. . ... ... ... : ... .. . ... ... ... : ... .. . ... ... ... : ... .. . ... ... ... : ... .. 1 ... ... ...
ROW 67 : ... .. . P7E ... ... : C#4 01 5 ... ... ... : ... .. . ... ... ... : ... .. . ... ... ... : ... .. . ... ... ... : ... .. . ... ... ...
ROW 68 : ... .. . ... ... ... : ... .. 9 ... ... ... : ... .. . ... ... ... : 9-# 01 A ... ... ... : C-1 05 . ... ... ... : ... .. 5 ... ... ...
ROW 69 : ... .. . P7F ... ... : C#4 02 . ... ... ... : ... .. . ... ... ... : A-# 00 7 ... ... ... : ... .. . ... ... ... : ... .. . ... ... ...
ROW 6A : ... .. . P80 ... ... : C#4 00 . ... ... ... : ... .. . ... ... ... : ... .. 6 ... ... ... : ... .. . ... ... ... : ... .. 4 ... ... ...
ROW 6B : ... .. . P81 ... ... : ... .. . ... ... ... : ... .. . ... ... ... : B-# 01 5 ... ... ... : ... .. . ... ... ... : ... .. . ... ... ...
ROW 6C : ... .. . P82 ... ... : ... .. . ... ... ... : ... .. . ... ... ... : A-# 01 . ... ... ... : ... .. . ... ... ... : ... .. 2 ... ... ...
ROW 6D : ... .. . ... ... ... : ... .. . ... ... ... : ... .. . ... ... ... : B-# 00 . ... ... ... : ... .. . ... ... ... : ... .. 1 ... ... ...
ROW 6E : ... .. . P80 ... ... : ... .. . ... ... ... : ... .. . ... ... ... : ... .. . ... ... ... : A#1 05 . ... ... ... : ... .. 5 ... ... ...
ROW 6F : ... .. . ... ... ... : ... .. . ... ... ... : ... .. . ... ... ... : ... .. . ... ... ... : ... .. . ... ... ... : ... .. . ... ... ...
ROW 70 : ... .. . P7F ... ... : ... .. . ... ... ... : ... .. . ... ... ... : ... .. 4 ... ... ... : ... .. . ... ... ... : ... .. 4 ... ... ...
ROW 71 : ... .. . P7E ... ... : ... .. . ... ... ... : --- .. . ... ... ... : ... .. . ... ... ... : ... .. . ... ... ... : ... .. . ... ... ...
ROW 72 : ... .. 4 P7F ... ... : D#4 01 5 ... ... ... : ... .. . ... ... ... : ... .. 3 ... ... ... : ... .. . ... ... ... : ... .. 2 ... ... ...
ROW 73 : ... .. . P80 ... ... : ... .. . ... ... ... : ... .. . ... ... ... : ... .. . ... ... ... : ... .. . ... ... ... : ... .. 1 ... ... ...
ROW 74 : F-4 00 C ... ... ... : C#4 01 9 ... ... ... : A#2 00 . ... ... ... : 7-# 00 C ... ... ... : A-1 05 . ... ... ... : ... .. 5 ... ... ...
ROW 75 : F-4 03 . ... ... ... : C#4 02 . ... ... ... : ... .. . ... ... ... : 3-# 00 8 ... ... ... : ... .. . ... ... ... : ... .. . ... ... ...
ROW 76 : F-4 02 . ... ... ... : C#4 00 . ... ... ... : ... .. . ... ... ... : 6-# 00 B ... ... ... : ... .. . ... ... ... : ... .. 4 ... ... ...
ROW 77 : F-4 01 . ... ... ... : ... .. . ... ... ... : ... .. . ... ... ... : A-# 00 7 ... ... ... : ... .. . ... ... ... : ... .. . ... ... ...
ROW 78 : ... .. . ... ... ... : ... .. . ... ... ... : ... .. . ... ... ... : B-# 00 8 ... ... ... : ... .. . ... ... ... : ... .. 2 ... ... ...
ROW 79 : ... .. . ... ... ... : ... .. . ... ... ... : ... .. . ... ... ... : C-# 00 7 ... ... ... : ... .. . ... ... ... : ... .. 1 ... ... ...
ROW 7A : ... .. . ... ... ... : ... .. . ... ... ... : ... .. . ... ... ... : 9-# 00 . ... ... ... : ... .. . ... ... ... : ... .. 5 ... ... ...
ROW 7B : ... .. . ... ... ... : ... .. . ... ... ... : ... .. . ... ... ... : ... .. 6 ... ... ... : A#1 05 . ... ... ... : ... .. . ... ... ...
ROW 7C : F-4 00 7 ... ... ... : ... .. . ... ... ... : ... .. . ... ... ... : ... .. . ... ... ... : ... .. . ... ... ... : ... .. 4 ... ... ...
ROW 7D : F-4 03 . ... ... ... : ... .. . ... ... ... : ... .. . ... ... ... : ... .. . ... ... ... : ... .. . ... ... ... : ... .. . ... ... ...
ROW 7E : F-4 02 . ... ... ... : ... .. . ... ... ... : ... .. . ... ... ... : ... .. . ... ... ... : ... .. . ... ... ... : ... .. 2 ... ... ...
ROW 7F : F-4 01 . ... ... ... : C#4 01 5 ... ... ... : ... .. . ... ... ... : ... .. . ... ... ... : ... .. . ... ... ... : ... .. 1 ... ... ...
ROW 80 : C#5 00 C ... ... ... : F-4 01 9 ... ... ... : ... .. . ... ... ... : 9-# 01 A ... ... ... : C-1 05 . ... ... ... : ... .. 5 ... ... ...
ROW 81 : C#5 03 . ... ... ... : F-4 02 . ... ... ... : ... .. . ... ... ... : A-# 00 7 ... ... ... : ... .. . ... ... ... : ... .. . ... ... ...
ROW 82 : C#5 02 . ... ... ... : F-4 00 . ... ... ... : ... .. . ... ... ... : ... .. 6 ... ... ... : ... .. . ... ... ... : ... .. 4 ... ... ...
ROW 83 : C#5 01 . ... ... ... : ... .. . ... ... ... : ... .. . ... ... ... : B-# 01 5 ... ... ... : ... .. . ... ... ... : ... .. . ... ... ...
ROW 84 : ... .. . ... ... ... : ... .. . ... ... ... : ... .. . ... ... ... : A-# 01 . ... ... ... : ... .. . ... ... ... : ... .. . ... ... ...
ROW 85 : ... .. . ... ... ... : ... .. . ... ... ... : ... .. . ... ... ... : B-# 00 . ... ... ... : ... .. . ... ... ... : ... .. 3 ... ... ...
ROW 86 : ... .. . ... ... ... : ... .. . ... ... ... : ... .. . ... ... ... : ... .. . ... ... ... : A#1 05 . ... ... ... : ... .. . ... ... ...
ROW 87 : ... .. . ... ... ... : ... .. . ... ... ... : ... .. . ... ... ... : ... .. . ... ... ... : ... .. . ... ... ... : ... .. . ... ... ...
ROW 88 : ... .. . ... ... ... : ... .. . ... ... ... : ... .. . ... ... ... : ... .. 4 ... ... ... : ... .. . ... ... ... : ... .. . ... ... ...
ROW 89 : ... .. . ... ... ... : ... .. . ... ... ... : --- .. . ... ... ... : ... .. . ... ... ... : ... .. . ... ... ... : ... .. . ... ... ...
ROW 8A : ... .. 4 ... ... ... : C#4 01 5 ... ... ... : ... .. . ... ... ... : ... .. 3 ... ... ... : ... .. . ... ... ... : ... .. 1 ... ... ...
ROW 8B : ... .. . ... ... ... : ... .. . ... ... ... : ... .. . ... ... ... : ... .. . ... ... ... : ... .. . ... ... ... : ... .. . ... ... ...
ROW 8C : C-5 00 C ... ... ... : D#4 01 9 ... ... ... : F-2 00 . ... ... ... : 7-# 00 C ... ... ... : A-1 05 . ... ... ... : D#3 04 5 I03 J43 ...
ROW 8D : C-5 03 . ... ... ... : D#4 02 . ... ... ... : ... .. . ... ... ... : 3-# 00 8 ... ... ... : ... .. . ... ... ... : ... .. . ... ... ...
ROW 8E : C-5 02 . ... ... ... : D#4 00 . ... ... ... : ... .. . ... ... ... : 6-# 00 B ... ... ... : ... .. . ... ... ... : ... .. 4 ... ... ...
ROW 8F : C-5 01 . ... ... ... : ... .. . ... ... ... : ... .. . ... ... ... : A-# 00 7 ... ... ... : ... .. . ... ... ... : ... .. . ... ... ...
ROW 90 : ... .. . ... ... ... : ... .. . ... ... ... : ... .. . ... ... ... : B-# 00 8 ... ... ... : ... .. . ... ... ... : ... .. . ... ... ...
ROW 91 : ... .. . ... ... ... : ... .. . ... ... ... : ... .. . ... ... ... : C-# 00 7 ... ... ... : ... .. . ... ... ... : ... .. 3 ... ... ...
ROW 92 : ... .. . ... ... ... : ... .. . ... ... ... : ... .. . ... ... ... : 9-# 00 . ... ... ... : ... .. . ... ... ... : ... .. . ... ... ...
ROW 93 : ... .. . ... ... ... : ... .. . ... ... ... : ... .. . ... ... ... : ... .. 6 ... ... ... : A#1 05 . ... ... ... : ... .. . ... ... ...
ROW 94 : ... .. . ... ... ... : ... .. . ... ... ... : ... .. . ... ... ... : ... .. . ... ... ... : ... .. . ... ... ... : ... .. . ... ... ...
ROW 95 : ... .. . ... ... ... : ... .. . ... ... ... : ... .. . ... ... ... : ... .. . ... ... ... : ... .. . ... ... ... : ... .. . ... ... ...
ROW 96 : ... .. 4 ... ... ... : ... .. . ... ... ... : ... .. . ... ... ... : ... .. . ... ... ... : ... .. . ... ... ... : ... .. 1 ... ... ...
ROW 97 : ... .. . ... ... ... : F-4 01 5 ... ... ... : --- .. . ... ... ... : ... .. . ... ... ... : ... .. . ... ... ... : ... .. . ... ... ...
ROW 98 : F-4 00 C ... ... ... : F-3 01 9 ... ... ... : F#2 00 . ... ... ... : 9-# 01 A ... ... ... : C-1 05 . ... ... ... : E-3 04 5 I03 J74 ...
ROW 99 : F-4 03 . ... ... ... : F-3 02 . ... ... ... : ... .. . ... ... ... : A-# 00 7 ... ... ... : ... .. . ... ... ... : ... .. . ... ... ...
ROW 9A : F-4 02 . ... ... ... : F-3 00 . ... ... ... : ... .. . ... ... ... : ... .. 6 ... ... ... : ... .. . ... ... ... : ... .. 4 ... ... ...
ROW 9B : F-4 01 . ... ... ... : ... .. . ... ... ... : ... .. . ... ... ... : B-# 01 5 ... ... ... : ... .. . ... ... ... : ... .. . ... ... ...
ROW 9C : ... .. . ... ... ... : ... .. . ... ... ... : ... .. . ... ... ... : A-# 01 . ... ... ... : ... .. . ... ... ... : ... .. . ... ... ...
ROW 9D : ... .. . ... ... ... : ... .. . ... ... ... : ... .. . ... ... ... : B-# 00 . ... ... ... : ... .. . ... ... ... : ... .. 3 ... ... ...
ROW 9E : ... .. . ... ... ... : ... .. . ... ... ... : ... .. . ... ... ... : ... .. . ... ... ... : A#1 05 . ... ... ... : ... .. . ... ... ...
ROW 9F : ... .. . ... ... ... : ... .. . ... ... ... : ... .. . ... ... ... : ... .. . ... ... ... : ... .. . ... ... ... : ... .. . ... ... ...
ROW A0 : ... .. . ... ... ... : ... .. . ... ... ... : ... .. . ... ... ... : ... .. 4 ... ... ... : ... .. . ... ... ... : ... .. . ... ... ...
ROW A1 : ... .. . ... ... ... : ... .. . ... ... ... : --- .. . ... ... ... : ... .. . ... ... ... : ... .. . ... ... ... : ... .. . ... ... ...
ROW A2 : ... .. 4 ... ... ... : D#4 01 5 ... ... ... : ... .. . ... ... ... : ... .. 3 ... ... ... : ... .. . ... ... ... : ... .. 1 ... ... ...
ROW A3 : ... .. . ... ... ... : ... .. . ... ... ... : ... .. . ... ... ... : ... .. . ... ... ... : ... .. . ... ... ... : ... .. . ... ... ...
ROW A4 : D#4 00 C ... ... ... : A#3 01 9 ... ... ... : F#2 00 . ... ... ... : 7-# 00 C ... ... ... : A-1 05 . ... ... ... : ... .. 5 ... ... ...
ROW A5 : D#4 03 . ... ... ... : A#3 02 . ... ... ... : ... .. . ... ... ... : 3-# 00 8 ... ... ... : ... .. . ... ... ... : ... .. . ... ... ...
ROW A6 : D#4 02 . ... ... ... : A#3 00 . ... ... ... : ... .. . ... ... ... : 6-# 00 B ... ... ... : ... .. . ... ... ... : ... .. 4 ... ... ...
ROW A7 : D#4 01 . ... ... ... : ... .. . ... ... ... : ... .. . ... ... ... : A-# 00 7 ... ... ... : ... .. . ... ... ... : ... .. . ... ... ...
ROW A8 : ... .. . ... ... ... : ... .. . ... ... ... : ... .. . ... ... ... : B-# 00 8 ... ... ... : ... .. . ... ... ... : ... .. 2 ... ... ...
ROW A9 : ... .. . ... ... ... : ... .. . ... ... ... : ... .. . ... ... ... : C-# 00 7 ... ... ... : ... .. . ... ... ... : ... .. 1 ... ... ...
ROW AA : ... .. . ... ... ... : ... .. . ... ... ... : ... .. . ... ... ... : 9-# 00 . ... ... ... : ... .. . ... ... ... : ... .. 5 ... ... ...
ROW AB : ... .. . ... ... ... : ... .. . ... ... ... : ... .. . ... ... ... : ... .. 6 ... ... ... : A#1 05 . ... ... ... : ... .. . ... ... ...
ROW AC : ... .. . ... ... ... : ... .. . ... ... ... : ... .. . ... ... ... : ... .. . ... ... ... : ... .. . ... ... ... : ... .. 4 ... ... ...
ROW AD : ... .. . ... ... ... : ... .. . ... ... ... : ... .. . ... ... ... : ... .. . ... ... ... : ... .. . ... ... ... : ... .. . ... ... ...
ROW AE : ... .. 4 ... ... ... : ... .. . ... ... ... : ... .. . ... ... ... : ... .. . ... ... ... : ... .. . ... ... ... : ... .. 2 ... ... ...
ROW AF : ... .. . ... ... ... : F-3 01 5 ... ... ... : ... .. . ... ... ... : ... .. . ... ... ... : ... .. . ... ... ... : ... .. 1 ... ... ...
ROW B0 : F-4 00 C ... ... ... : C#4 01 9 ... ... ... : ... .. . ... ... ... : 9-# 01 A ... ... ... : C-1 05 . ... ... ... : ... .. 5 ... ... ...
ROW B1 : F-4 03 . ... ... ... : C#4 02 . ... ... ... : ... .. . ... ... ... : A-# 00 7 ... ... ... : ... .. . ... ... ... : ... .. . ... ... ...
ROW B2 : F-4 02 . ... ... ... : C#4 00 . ... ... ... : ... .. . ... ... ... : ... .. 6 ... ... ... : ... .. . ... ... ... : ... .. 4 ... ... ...
ROW B3 : F-4 01 . ... ... ... : ... .. . ... ... ... : ... .. . ... ... ... : B-# 01 5 ... ... ... : ... .. . ... ... ... : ... .. . ... ... ...
ROW B4 : ... .. . ... ... ... : ... .. . ... ... ... : ... .. . ... ... ... : A-# 01 . ... ... ... : ... .. . ... ... ... : ... .. 2 ... ... ...
ROW B5 : ... .. . ... ... ... : ... .. . ... ... ... : ... .. . ... ... ... : B-# 00 . ... ... ... : ... .. . ... ... ... : ... .. 1 ... ... ...
ROW B6 : ... .. . ... ... ... : ... .. . ... ... ... : ... .. . ... ... ... : ... .. . ... ... ... : A#1 05 . ... ... ... : ... .. 5 ... ... ...
ROW B7 : ... .. . ... ... ... : ... .. . ... ... ... : ... .. . ... ... ... : ... .. . ... ... ... : ... .. . ... ... ... : ... .. . ... ... ...
ROW B8 : ... .. . ... ... ... : ... .. . ... ... ... : ... .. . ... ... ... : ... .. 4 ... ... ... : ... .. . ... ... ... : ... .. 4 ... ... ...
ROW B9 : ... .. . ... ... ... : ... .. . ... ... ... : --- .. . ... ... ... : ... .. . ... ... ... : ... .. . ... ... ... : ... .. . ... ... ...
ROW BA : ... .. 4 ... ... ... : A#3 01 5 ... ... ... : ... .. . ... ... ... : ... .. 3 ... ... ... : ... .. . ... ... ... : ... .. 2 ... ... ...
ROW BB : ... .. . ... ... ... : ... .. . ... ... ... : ... .. . ... ... ... : ... .. . ... ... ... : ... .. . ... ... ... : ... .. 1 ... ... ...
ROW BC : A#4 00 C ... ... ... : D#4 01 9 ... ... ... : F#2 00 . ... ... ... : 7-# 00 C ... ... ... : A-1 05 . ... ... ... : ... .. 5 ... ... ...
ROW BD : A#4 03 . ... ... ... : D#4 02 . ... ... ... : ... .. . ... ... ... : 3-# 00 8 ... ... ... : ... .. . ... ... ... : ... .. . ... ... ...
ROW BE : A#4 02 . ... ... ... : D#4 00 . ... ... ... : ... .. . ... ... ... : 6-# 00 B ... ... ... : ... .. . ... ... ... : ... .. 4 ... ... ...
ROW BF : A#4 01 . ... ... ... : ... .. . ... ... ... : ... .. . ... ... ... : A-# 00 7 ... ... ... : ... .. . ... ... ... : ... .. . ... ... ...
ROW C0 : ... .. . ... ... ... : ... .. . ... ... ... : ... .. . ... ... ... : B-# 00 8 ... ... ... : ... .. . ... ... ... : ... .. . ... ... ...
ROW C1 : ... .. . ... ... ... : ... .. . ... ... ... : ... .. . ... ... ... : C-# 00 7 ... ... ... : ... .. . ... ... ... : ... .. 3 ... ... ...
ROW C2 : ... .. . ... ... ... : ... .. . ... ... ... : ... .. . ... ... ... : 9-# 00 . ... ... ... : ... .. . ... ... ... : ... .. . ... ... ...
ROW C3 : ... .. . ... ... ... : ... .. . ... ... ... : ... .. . ... ... ... : ... .. 6 ... ... ... : A#1 05 . ... ... ... : ... .. . ... ... ...
ROW C4 : ... .. . ... ... ... : ... .. . ... ... ... : ... .. . ... ... ... : ... .. . ... ... ... : ... .. . ... ... ... : ... .. . ... ... ...
ROW C5 : ... .. . ... ... ... : ... .. . ... ... ... : ... .. . ... ... ... : ... .. . ... ... ... : ... .. . ... ... ... : ... .. . ... ... ...
ROW C6 : ... .. 4 ... ... ... : ... .. . ... ... ... : ... .. . ... ... ... : ... .. . ... ... ... : ... .. . ... ... ... : ... .. 1 ... ... ...
ROW C7 : ... .. . ... ... ... : C#4 01 5 ... ... ... : ... .. . ... ... ... : ... .. . ... ... ... : ... .. . ... ... ... : ... .. . ... ... ...
ROW C8 : F-4 00 C ... ... ... : ... .. 9 ... ... ... : ... .. . ... ... ... : 9-# 01 A ... ... ... : C-1 05 . ... ... ... : ... .. 5 ... ... ...
ROW C9 : F-4 03 . ... ... ... : C#4 02 . ... ... ... : ... .. . ... ... ... : A-# 00 7 ... ... ... : ... .. . ... ... ... : ... .. . ... ... ...
ROW CA : F-4 02 . ... ... ... : C#4 00 . ... ... ... : ... .. . ... ... ... : ... .. 6 ... ... ... : ... .. . ... ... ... : ... .. 4 ... ... ...
ROW CB : F-4 01 . ... ... ... : ... .. . ... ... ... : ... .. . ... ... ... : B-# 01 5 ... ... ... : ... .. . ... ... ... : ... .. . ... ... ...
ROW CC : ... .. . ... ... ... : ... .. . ... ... ... : ... .. . ... ... ... : A-# 01 . ... ... ... : ... .. . ... ... ... : ... .. 2 ... ... ...
ROW CD : ... .. . ... ... ... : ... .. . ... ... ... : ... .. . ... ... ... : B-# 00 . ... ... ... : ... .. . ... ... ... : ... .. 1 ... ... ...
ROW CE : ... .. . ... ... ... : ... .. . ... ... ... : ... .. . ... ... ... : ... .. . ... ... ... : A#1 05 . ... ... ... : ... .. 5 ... ... ...
ROW CF : ... .. . ... ... ... : ... .. . ... ... ... : ... .. . ... ... ... : ... .. . ... ... ... : ... .. . ... ... ... : ... .. . ... ... ...
ROW D0 : ... .. . ... ... ... : ... .. . ... ... ... : ... .. . ... ... ... : ... .. 4 ... ... ... : ... .. . ... ... ... : ... .. 4 ... ... ...
ROW D1 : ... .. . ... ... ... : ... .. . ... ... ... : --- .. . ... ... ... : ... .. . ... ... ... : ... .. . ... ... ... : ... .. . ... ... ...
ROW D2 : ... .. 4 ... ... ... : D#4 01 5 ... ... ... : ... .. . ... ... ... : ... .. 3 ... ... ... : ... .. . ... ... ... : ... .. 2 ... ... ...
ROW D3 : ... .. . ... ... ... : ... .. . ... ... ... : ... .. . ... ... ... : ... .. . ... ... ... : ... .. . ... ... ... : ... .. 1 ... ... ...
ROW D4 : D#4 00 C ... ... ... : C-4 01 9 ... ... ... : F#2 00 . ... ... ... : 7-# 00 C ... ... ... : A-1 05 . ... ... ... : ... .. 5 ... ... ...
ROW D5 : D#4 03 . ... ... ... : C-4 02 . ... ... ... : ... .. . ... ... ... : 3-# 00 8 ... ... ... : ... .. . ... ... ... : ... .. . ... ... ...
ROW D6 : D#4 02 . ... ... ... : C-4 00 . ... ... ... : ... .. . ... ... ... : 6-# 00 B ... ... ... : ... .. . ... ... ... : ... .. 4 ... ... ...
ROW D7 : D#4 01 . ... ... ... : ... .. . ... ... ... : ... .. . ... ... ... : A-# 00 7 ... ... ... : ... .. . ... ... ... : ... .. . ... ... ...
ROW D8 : ... .. . ... ... ... : ... .. . ... ... ... : ... .. . ... ... ... : B-# 00 8 ... ... ... : ... .. . ... ... ... : ... .. 2 ... ... ...
ROW D9 : ... .. . ... ... ... : ... .. . ... ... ... : ... .. . ... ... ... : C-# 00 7 ... ... ... : ... .. . ... ... ... : ... .. 1 ... ... ...
ROW DA : ... .. . ... ... ... : ... .. . ... ... ... : ... .. . ... ... ... : 9-# 00 . ... ... ... : ... .. . ... ... ... : ... .. 5 ... ... ...
ROW DB : ... .. . ... ... ... : ... .. . ... ... ... : ... .. . ... ... ... : ... .. 6 ... ... ... : A#1 05 . ... ... ... : ... .. . ... ... ...
ROW DC : D#4 00 7 ... ... ... : ... .. . ... ... ... : ... .. . ... ... ... : ... .. . ... ... ... : ... .. . ... ... ... : ... .. 4 ... ... ...
ROW DD : D#4 03 . ... ... ... : ... .. . ... ... ... : ... .. . ... ... ... : ... .. . ... ... ... : ... .. . ... ... ... : ... .. . ... ... ...
ROW DE : D#4 02 . ... ... ... : ... .. . ... ... ... : ... .. . ... ... ... : ... .. . ... ... ... : ... .. . ... ... ... : ... .. 2 ... ... ...
ROW DF : D#4 01 . ... ... ... : C#4 01 5 ... ... ... : ... .. . ... ... ... : ... .. . ... ... ... : ... .. . ... ... ... : ... .. 1 ... ... ...
ROW E0 : A#4 00 C P81 ... ... : D#4 01 9 ... ... ... : ... .. . ... ... ... : 9-# 01 A ... ... ... : C-1 05 . ... ... ... : ... .. 5 ... ... ...
ROW E1 : A#4 03 . P82 ... ... : D#4 02 . ... ... ... : ... .. . ... ... ... : A-# 00 7 ... ... ... : ... .. . ... ... ... : ... .. . ... ... ...
ROW E2 : A#4 02 . P83 ... ... : D#4 00 . ... ... ... : ... .. . ... ... ... : ... .. 6 ... ... ... : ... .. . ... ... ... : ... .. 4 ... ... ...
ROW E3 : B-4 01 . P7E ... ... : ... .. . ... ... ... : ... .. . ... ... ... : B-# 01 5 ... ... ... : ... .. . ... ... ... : ... .. . ... ... ...
ROW E4 : ... .. . P80 ... ... : ... .. . ... ... ... : ... .. . ... ... ... : A-# 01 . ... ... ... : ... .. . ... ... ... : ... .. . ... ... ...
ROW E5 : ... .. . P82 ... ... : ... .. . ... ... ... : ... .. . ... ... ... : B-# 00 . ... ... ... : ... .. . ... ... ... : ... .. 3 ... ... ...
ROW E6 : C-5 01 . P7E ... ... : ... .. . ... ... ... : ... .. . ... ... ... : ... .. . ... ... ... : A#1 05 . ... ... ... : ... .. . ... ... ...
ROW E7 : ... .. . P80 ... ... : ... .. . ... ... ... : ... .. . ... ... ... : ... .. . ... ... ... : ... .. . ... ... ... : ... .. . ... ... ...
ROW E8 : ... .. . ... ... ... : ... .. . ... ... ... : ... .. . ... ... ... : ... .. 4 ... ... ... : ... .. . ... ... ... : ... .. . ... ... ...
ROW E9 : ... .. . ... ... ... : ... .. . ... ... ... : --- .. . ... ... ... : ... .. . ... ... ... : ... .. . ... ... ... : ... .. . ... ... ...
ROW EA : ... .. 4 ... ... ... : C-4 01 5 ... ... ... : ... .. . ... ... ... : ... .. 3 ... ... ... : ... .. . ... ... ... : ... .. 1 ... ... ...
ROW EB : ... .. . ... ... ... : ... .. . ... ... ... : ... .. . ... ... ... : ... .. . ... ... ... : ... .. . ... ... ... : ... .. . ... ... ...
ROW EC : C#5 00 C ... ... ... : F-4 01 9 ... ... ... : F-2 00 . ... ... ... : 7-# 00 C ... ... ... : A-1 05 . ... ... ... : D#3 04 5 I03 J43 ...
ROW ED : C#5 03 . ... ... ... : F-4 02 . ... ... ... : ... .. . ... ... ... : 3-# 00 8 ... ... ... : ... .. . ... ... ... : ... .. . ... ... ...
ROW EE : C#5 02 . ... ... ... : F-4 00 . ... ... ... : ... .. . ... ... ... : 6-# 00 B ... ... ... : ... .. . ... ... ... : ... .. 4 ... ... ...
ROW EF : C#5 01 . ... ... ... : ... .. . ... ... ... : ... .. . ... ... ... : A-# 00 7 ... ... ... : ... .. . ... ... ... : ... .. . ... ... ...
ROW F0 : ... .. . ... ... ... : ... .. . ... ... ... : ... .. . ... ... ... : B-# 00 8 ... ... ... : ... .. . ... ... ... : ... .. . ... ... ...
ROW F1 : ... .. . ... ... ... : ... .. . ... ... ... : ... .. . ... ... ... : C-# 00 7 ... ... ... : ... .. . ... ... ... : ... .. 3 ... ... ...
ROW F2 : ... .. . ... ... ... : ... .. . ... ... ... : ... .. . ... ... ... : 9-# 00 . ... ... ... : ... .. . ... ... ... : ... .. . ... ... ...
ROW F3 : ... .. . ... ... ... : ... .. . ... ... ... : ... .. . ... ... ... : ... .. 6 ... ... ... : A#1 05 . ... ... ... : ... .. . ... ... ...
ROW F4 : ... .. . ... ... ... : ... .. . ... ... ... : ... .. . ... ... ... : ... .. . ... ... ... : ... .. . ... ... ... : ... .. . ... ... ...
ROW F5 : ... .. . ... ... ... : ... .. . ... ... ... : ... .. . ... ... ... : ... .. . ... ... ... : ... .. . ... ... ... : ... .. . ... ... ...
ROW F6 : ... .. 4 ... ... ... : ... .. . ... ... ... : ... .. . ... ... ... : ... .. . ... ... ... : ... .. . ... ... ... : ... .. 1 ... ... ...
ROW F7 : ... .. . ... ... ... : D#4 01 5 ... ... ... : --- .. . ... ... ... : ... .. . ... ... ... : ... .. . ... ... ... : ... .. . ... ... ...
ROW F8 : F-4 00 C ... ... ... : F-3 01 9 ... ... ... : D#2 00 . ... ... ... : 9-# 01 A ... ... ... : C-1 05 . ... ... ... : C#3 04 5 I02 JE9 ...
ROW F9 : F-4 03 . ... ... ... : F-3 02 . ... ... ... : ... .. . ... ... ... : A-# 00 7 ... ... ... : ... .. . ... ... ... : ... .. . ... ... ...
ROW FA : F-4 02 . ... ... ... : F-3 00 . ... ... ... : ... .. . ... ... ... : ... .. 6 ... ... ... : ... .. . ... ... ... : ... .. 4 ... ... ...
ROW FB : F-4 01 . ... ... ... : ... .. . ... ... ... : ... .. . ... ... ... : B-# 01 5 ... ... ... : ... .. . ... ... ... : ... .. . ... ... ...
ROW FC : ... .. . ... ... ... : ... .. . ... ... ... : ... .. . ... ... ... : A-# 01 . ... ... ... : ... .. . ... ... ... : ... .. . ... ... ...
ROW FD : ... .. . ... ... ... : ... .. . ... ... ... : ... .. . ... ... ... : B-# 00 . ... ... ... : ... .. . ... ... ... : ... .. 3 ... ... ...
ROW FE : ... .. . ... ... ... : ... .. . ... ... ... : ... .. . ... ... ... : ... .. . ... ... ... : A#1 05 . ... ... ... : ... .. . ... ... ...
ROW FF : ... .. . ... ... ... : ... .. . ... ... ... : ... .. . ... ... ... : ... .. . ... ... ... : ... .. . ... ... ... : ... .. . ... ... ...

PATTERN 1C
ROW 00 : ... .. . ... ... ... : ... .. . ... ... ... : ... .. . ... ... ... : ... .. 4 ... ... ... : ... .. . ... ... ... : ... .. . ... ... ...
ROW 01 : ... .. . ... ... ... : ... .. . ... ... ... : --- .. . ... ... ... : ... .. . ... ... ... : ... .. . ... ... ... : ... .. . ... ... ...
ROW 02 : ... .. 4 ... ... ... : F-4 01 5 ... ... ... : ... .. . ... ... ... : ... .. 3 ... ... ... : ... .. . ... ... ... : ... .. 1 ... ... ...
ROW 03 : ... .. . ... ... ... : ... .. . ... ... ... : ... .. . ... ... ... : ... .. . ... ... ... : ... .. . ... ... ... : ... .. . ... ... ...
ROW 04 : D#4 00 C ... ... ... : A#3 01 9 ... ... ... : D#2 00 . ... ... ... : 7-# 00 C ... ... ... : A-1 05 . ... ... ... : ... .. 5 ... ... ...
ROW 05 : D#4 03 . ... ... ... : A#3 02 . ... ... ... : ... .. . ... ... ... : 3-# 00 8 ... ... ... : ... .. . ... ... ... : ... .. . ... ... ...
ROW 06 : D#4 02 . ... ... ... : A#3 00 . ... ... ... : ... .. . ... ... ... : 6-# 00 B ... ... ... : ... .. . ... ... ... : ... .. 4 ... ... ...
ROW 07 : D#4 01 . ... ... ... : ... .. . ... ... ... : ... .. . ... ... ... : A-# 00 7 ... ... ... : ... .. . ... ... ... : ... .. . ... ... ...
ROW 08 : ... .. . ... ... ... : ... .. . ... ... ... : ... .. . ... ... ... : B-# 00 8 ... ... ... : ... .. . ... ... ... : ... .. 2 ... ... ...
ROW 09 : ... .. . ... ... ... : ... .. . ... ... ... : ... .. . ... ... ... : C-# 00 7 ... ... ... : ... .. . ... ... ... : ... .. 1 ... ... ...
ROW 0A : ... .. . ... ... ... : ... .. . ... ... ... : ... .. . ... ... ... : 9-# 00 . ... ... ... : ... .. . ... ... ... : ... .. 5 ... ... ...
ROW 0B : ... .. . ... ... ... : ... .. . ... ... ... : ... .. . ... ... ... : ... .. 6 ... ... ... : A#1 05 . ... ... ... : ... .. . ... ... ...
ROW 0C : ... .. . ... ... ... : ... .. . ... ... ... : ... .. . ... ... ... : ... .. . ... ... ... : ... .. . ... ... ... : ... .. 4 ... ... ...
ROW 0D : ... .. . ... ... ... : ... .. . ... ... ... : ... .. . ... ... ... : ... .. . ... ... ... : ... .. . ... ... ... : ... .. . ... ... ...
ROW 0E : ... .. 4 ... ... ... : ... .. . ... ... ... : ... .. . ... ... ... : ... .. . ... ... ... : ... .. . ... ... ... : ... .. 2 ... ... ...
ROW 0F : ... .. . ... ... ... : F-3 01 5 ... ... ... : ... .. . ... ... ... : ... .. . ... ... ... : ... .. . ... ... ... : ... .. 1 ... ... ...
ROW 10 : F-4 00 C ... ... ... : C#4 01 9 ... ... ... : ... .. . ... ... ... : 9-# 01 A ... ... ... : C-1 05 . ... ... ... : ... .. 5 ... ... ...
ROW 11 : F-4 03 . ... ... ... : C#4 02 . ... ... ... : ... .. . ... ... ... : A-# 00 7 ... ... ... : ... .. . ... ... ... : ... .. . ... ... ...
ROW 12 : F-4 02 . ... ... ... : C#4 00 . ... ... ... : ... .. . ... ... ... : ... .. 6 ... ... ... : ... .. . ... ... ... : ... .. 4 ... ... ...
ROW 13 : F-4 01 . ... ... ... : ... .. . ... ... ... : ... .. . ... ... ... : B-# 01 5 ... ... ... : ... .. . ... ... ... : ... .. . ... ... ...
ROW 14 : ... .. . ... ... ... : ... .. . ... ... ... : ... .. . ... ... ... : A-# 01 . ... ... ... : ... .. . ... ... ... : ... .. 2 ... ... ...
ROW 15 : ... .. . ... ... ... : ... .. . ... ... ... : ... .. . ... ... ... : B-# 00 . ... ... ... : ... .. . ... ... ... : ... .. 1 ... ... ...
ROW 16 : ... .. . ... ... ... : ... .. . ... ... ... : ... .. . ... ... ... : ... .. . ... ... ... : A#1 05 . ... ... ... : ... .. 5 ... ... ...
ROW 17 : ... .. . ... ... ... : ... .. . ... ... ... : ... .. . ... ... ... : ... .. . ... ... ... : ... .. . ... ... ... : ... .. . ... ... ...
ROW 18 : ... .. . ... ... ... : ... .. . ... ... ... : ... .. . ... ... ... : ... .. 4 ... ... ... : ... .. . ... ... ... : ... .. 4 ... ... ...
ROW 19 : ... .. . ... ... ... : ... .. . ... ... ... : --- .. . ... ... ... : ... .. . ... ... ... : ... .. . ... ... ... : ... .. . ... ... ...
ROW 1A : ... .. 4 ... ... ... : A#3 01 5 ... ... ... : ... .. . ... ... ... : ... .. 3 ... ... ... : ... .. . ... ... ... : ... .. 2 ... ... ...
ROW 1B : ... .. . ... ... ... : ... .. . ... ... ... : ... .. . ... ... ... : ... .. . ... ... ... : ... .. . ... ... ... : ... .. 1 ... ... ...
ROW 1C : A#4 00 C P83 ... ... : D#4 01 9 ... ... ... : D#2 00 . ... ... ... : 7-# 00 C ... ... ... : A-1 05 . ... ... ... : ... .. 5 ... ... ...
ROW 1D : B-4 03 . P7F ... ... : D#4 02 . ... ... ... : ... .. . ... ... ... : 3-# 00 8 ... ... ... : ... .. . ... ... ... : ... .. . ... ... ...
ROW 1E : B-4 02 . P82 ... ... : D#4 00 . ... ... ... : ... .. . ... ... ... : 6-# 00 B ... ... ... : ... .. . ... ... ... : ... .. 4 ... ... ...
ROW 1F : C-5 01 . P7F ... ... : ... .. . ... ... ... : ... .. . ... ... ... : A-# 00 7 ... ... ... : ... .. . ... ... ... : ... .. . ... ... ...
ROW 20 : ... .. . ... ... ... : ... .. . ... ... ... : ... .. . ... ... ... : ... .. . ... ... ... : ... .. . ... ... ... : ... .. . ... ... ...
ROW 21 : ... .. . ... ... ... : ... .. . ... ... ... : ... .. . ... ... ... : ... .. . ... ... ... : ... .. . ... ... ... : ... .. . ... ... ...
ROW 22 : ... .. . ... ... ... : ... .. . ... ... ... : ... .. . ... ... ... : ... .. . ... ... ... : ... .. . ... ... ... : ... .. . ... ... ...
ROW 23 : ... .. . ... ... ... : ... .. . ... ... ... : ... .. . ... ... ... : ... .. . ... ... ... : ... .. . ... ... ... : ... .. . ... ... ...
ROW 24 : ... .. . ... ... ... : ... .. . ... ... ... : ... .. . ... ... ... : ... .. . ... ... ... : ... .. . ... ... ... : ... .. . ... ... ...
ROW 25 : ... .. . ... ... ... : ... .. . ... ... ... : ... .. . ... ... ... : ... .. . ... ... ... : ... .. . ... ... ... : ... .. . ... ... ...
ROW 26 : ... .. . ... ... ... : ... .. . ... ... ... : ... .. . ... ... ... : ... .. . ... ... ... : ... .. . ... ... ... : ... .. . ... ... ...
ROW 27 : ... .. . ... ... ... : ... .. . ... ... ... : ... .. . ... ... ... : ... .. . ... ... ... : ... .. . ... ... ... : ... .. . ... ... ...
ROW 28 : ... .. . ... ... ... : ... .. . ... ... ... : ... .. . ... ... ... : ... .. . ... ... ... : ... .. . ... ... ... : ... .. . ... ... ...
ROW 29 : ... .. . ... ... ... : ... .. . ... ... ... : ... .. . ... ... ... : ... .. . ... ... ... : ... .. . ... ... ... : ... .. . ... ... ...
ROW 2A : ... .. . ... ... ... : ... .. . ... ... ... : ... .. . ... ... ... : ... .. . ... ... ... : ... .. . ... ... ... : ... .. . ... ... ...
ROW 2B : ... .. . ... ... ... : ... .. . ... ... ... : ... .. . ... ... ... : ... .. . ... ... ... : ... .. . ... ... ... : ... .. . ... ... ...
ROW 2C : ... .. . ... ... ... : ... .. . ... ... ... : ... .. . ... ... ... : ... .. . ... ... ... : ... .. . ... ... ... : ... .. . ... ... ...
ROW 2D : ... .. . ... ... ... : ... .. . ... ... ... : ... .. . ... ... ... : ... .. . ... ... ... : ... .. . ... ... ... : ... .. . ... ... ...
ROW 2E : ... .. . ... ... ... : ... .. . ... ... ... : ... .. . ... ... ... : ... .. . ... ... ... : ... .. . ... ... ... : ... .. . ... ... ...
ROW 2F : ... .. . ... ... ... : ... .. . ... ... ... : ... .. . ... ... ... : ... .. . ... ... ... : ... .. . ... ... ... : ... .. . ... ... ...
ROW 30 : ... .. . ... ... ... : ... .. . ... ... ... : ... .. . ... ... ... : ... .. . ... ... ... : ... .. . ... ... ... : ... .. . ... ... ...
ROW 31 : ... .. . ... ... ... : ... .. . ... ... ... : ... .. . ... ... ... : ... .. . ... ... ... : ... .. . ... ... ... : ... .. . ... ... ...
ROW 32 : ... .. . ... ... ... : ... .. . ... ... ... : ... .. . ... ... ... : ... .. . ... ... ... : ... .. . ... ... ... : ... .. . ... ... ...
ROW 33 : ... .. . ... ... ... : ... .. . ... ... ... : ... .. . ... ... ... : ... .. . ... ... ... : ... .. . ... ... ... : ... .. . ... ... ...
ROW 34 : ... .. . ... ... ... : ... .. . ... ... ... : ... .. . ... ... ... : ... .. . ... ... ... : ... .. . ... ... ... : ... .. . ... ... ...
ROW 35 : ... .. . ... ... ... : ... .. . ... ... ... : ... .. . ... ... ... : ... .. . ... ... ... : ... .. . ... ... ... : ... .. . ... ... ...
ROW 36 : ... .. . ... ... ... : ... .. . ... ... ... : ... .. . ... ... ... : ... .. . ... ... ... : ... .. . ... ... ... : ... .. . ... ... ...
ROW 37 : ... .. . ... ... ... : ... .. . ... ... ... : ... .. . ... ... ... : ... .. . ... ... ... : ... .. . ... ... ... : ... .. . ... ... ...
ROW 38 : ... .. . ... ... ... : ... .. . ... ... ... : ... .. . ... ... ... : ... .. . ... ... ... : ... .. . ... ... ... : ... .. . ... ... ...
ROW 39 : ... .. . ... ... ... : ... .. . ... ... ... : ... .. . ... ... ... : ... .. . ... ... ... : ... .. . ... ... ... : ... .. . ... ... ...
ROW 3A : ... .. . ... ... ... : ... .. . ... ... ... : ... .. . ... ... ... : ... .. . ... ... ... : ... .. . ... ... ... : ... .. . ... ... ...
ROW 3B : ... .. . ... ... ... : ... .. . ... ... ... : ... .. . ... ... ... : ... .. . ... ... ... : ... .. . ... ... ... : ... .. . ... ... ...
ROW 3C : ... .. . ... ... ... : ... .. . ... ... ... : ... .. . ... ... ... : ... .. . ... ... ... : ... .. . ... ... ... : ... .. . ... ... ...
ROW 3D : ... .. . ... ... ... : ... .. . ... ... ... : ... .. . ... ... ... : ... .. . ... ... ... : ... .. . ... ... ... : ... .. . ... ... ...
ROW 3E : ... .. . ... ... ... : ... .. . ... ... ... : ... .. . ... ... ... : ... .. . ... ... ... : ... .. . ... ... ... : ... .. . ... ... ...
ROW 3F : ... .. . ... ... ... : ... .. . ... ... ... : ... .. . ... ... ... : ... .. . ... ... ... : ... .. . ... ... ... : ... .. . ... ... ...
ROW 40 : ... .. . ... ... ... : ... .. . ... ... ... : ... .. . ... ... ... : ... .. . ... ... ... : ... .. . ... ... ... : ... .. . ... ... ...
ROW 41 : ... .. . ... ... ... : ... .. . ... ... ... : ... .. . ... ... ... : ... .. . ... ... ... : ... .. . ... ... ... : ... .. . ... ... ...
ROW 42 : ... .. . ... ... ... : ... .. . ... ... ... : ... .. . ... ... ... : ... .. . ... ... ... : ... .. . ... ... ... : ... .. . ... ... ...
ROW 43 : ... .. . ... ... ... : ... .. . ... ... ... : ... .. . ... ... ... : ... .. . ... ... ... : ... .. . ... ... ... : ... .. . ... ... ...
ROW 44 : ... .. . ... ... ... : ... .. . ... ... ... : ... .. . ... ... ... : ... .. . ... ... ... : ... .. . ... ... ... : ... .. . ... ... ...
ROW 45 : ... .. . ... ... ... : ... .. . ... ... ... : ... .. . ... ... ... : ... .. . ... ... ... : ... .. . ... ... ... : ... .. . ... ... ...
ROW 46 : ... .. . ... ... ... : ... .. . ... ... ... : ... .. . ... ... ... : ... .. . ... ... ... : ... .. . ... ... ... : ... .. . ... ... ...
ROW 47 : ... .. . ... ... ... : ... .. . ... ... ... : ... .. . ... ... ... : ... .. . ... ... ... : ... .. . ... ... ... : ... .. . ... ... ...
ROW 48 : ... .. . ... ... ... : ... .. . ... ... ... : ... .. . ... ... ... : ... .. . ... ... ... : ... .. . ... ... ... : ... .. . ... ... ...
ROW 49 : ... .. . ... ... ... : ... .. . ... ... ... : ... .. . ... ... ... : ... .. . ... ... ... : ... .. . ... ... ... : ... .. . ... ... ...
ROW 4A : ... .. . ... ... ... : ... .. . ... ... ... : ... .. . ... ... ... : ... .. . ... ... ... : ... .. . ... ... ... : ... .. . ... ... ...
ROW 4B : ... .. . ... ... ... : ... .. . ... ... ... : ... .. . ... ... ... : ... .. . ... ... ... : ... .. . ... ... ... : ... .. . ... ... ...
ROW 4C : ... .. . ... ... ... : ... .. . ... ... ... : ... .. . ... ... ... : ... .. . ... ... ... : ... .. . ... ... ... : ... .. . ... ... ...
ROW 4D : ... .. . ... ... ... : ... .. . ... ... ... : ... .. . ... ... ... : ... .. . ... ... ... : ... .. . ... ... ... : ... .. . ... ... ...
ROW 4E : ... .. . ... ... ... : ... .. . ... ... ... : ... .. . ... ... ... : ... .. . ... ... ... : ... .. . ... ... ... : ... .. . ... ... ...
ROW 4F : ... .. . ... ... ... : ... .. . ... ... ... : ... .. . ... ... ... : ... .. . ... ... ... : ... .. . ... ... ... : ... .. . ... ... ...
ROW 50 : ... .. . ... ... ... : ... .. . ... ... ... : ... .. . ... ... ... : ... .. . ... ... ... : ... .. . ... ... ... : ... .. . ... ... ...
ROW 51 : ... .. . ... ... ... : ... .. . ... ... ... : ... .. . ... ... ... : ... .. . ... ... ... : ... .. . ... ... ... : ... .. . ... ... ...
ROW 52 : ... .. . ... ... ... : ... .. . ... ... ... : ... .. . ... ... ... : ... .. . ... ... ... : ... .. . ... ... ... : ... .. . ... ... ...
ROW 53 : ... .. . ... ... ... : ... .. . ... ... ... : ... .. . ... ... ... : ... .. . ... ... ... : ... .. . ... ... ... : ... .. . ... ... ...
ROW 54 : ... .. . ... ... ... : ... .. . ... ... ... : ... .. . ... ... ... : ... .. . ... ... ... : ... .. . ... ... ... : ... .. . ... ... ...
ROW 55 : ... .. . ... ... ... : ... .. . ... ... ... : ... .. . ... ... ... : ... .. . ... ... ... : ... .. . ... ... ... : ... .. . ... ... ...
ROW 56 : ... .. . ... ... ... : ... .. . ... ... ... : ... .. . ... ... ... : ... .. . ... ... ... : ... .. . ... ... ... : ... .. . ... ... ...
ROW 57 : ... .. . ... ... ... : ... .. . ... ... ... : ... .. . ... ... ... : ... .. . ... ... ... : ... .. . ... ... ... : ... .. . ... ... ...
ROW 58 : ... .. . ... ... ... : ... .. . ... ... ... : ... .. . ... ... ... : ... .. . ... ... ... : ... .. . ... ... ... : ... .. . ... ... ...
ROW 59 : ... .. . ... ... ... : ... .. . ... ... ... : ... .. . ... ... ... : ... .. . ... ... ... : ... .. . ... ... ... : ... .. . ... ... ...
ROW 5A : ... .. . ... ... ... : ... .. . ... ... ... : ... .. . ... ... ... : ... .. . ... ... ... : ... .. . ... ... ... : ... .. . ... ... ...
ROW 5B : ... .. . ... ... ... : ... .. . ... ... ... : ... .. . ... ... ... : ... .. . ... ... ... : ... .. . ... ... ... : ... .. . ... ... ...
ROW 5C : ... .. . ... ... ... : ... .. . ... ... ... : ... .. . ... ... ... : ... .. . ... ... ... : ... .. . ... ... ... : ... .. . ... ... ...
ROW 5D : ... .. . ... ... ... : ... .. . ... ... ... : ... .. . ... ... ... : ... .. . ... ... ... : ... .. . ... ... ... : ... .. . ... ... ...
ROW 5E : ... .. . ... ... ... : ... .. . ... ... ... : ... .. . ... ... ... : ... .. . ... ... ... : ... .. . ... ... ... : ... .. . ... ... ...
ROW 5F : ... .. . ... ... ... : ... .. . ... ... ... : ... .. . ... ... ... : ... .. . ... ... ... : ... .. . ... ... ... : ... .. . ... ... ...
ROW 60 : ... .. . ... ... ... : ... .. . ... ... ... : ... .. . ... ... ... : ... .. . ... ... ... : ... .. . ... ... ... : ... .. . ... ... ...
ROW 61 : ... .. . ... ... ... : ... .. . ... ... ... : ... .. . ... ... ... : ... .. . ... ... ... : ... .. . ... ... ... : ... .. . ... ... ...
ROW 62 : ... .. . ... ... ... : ... .. . ... ... ... : ... .. . ... ... ... : ... .. . ... ... ... : ... .. . ... ... ... : ... .. . ... ... ...
ROW 63 : ... .. . ... ... ... : ... .. . ... ... ... : ... .. . ... ... ... : ... .. . ... ... ... : ... .. . ... ... ... : ... .. . ... ... ...
ROW 64 : ... .. . ... ... ... : ... .. . ... ... ... : ... .. . ... ... ... : ... .. . ... ... ... : ... .. . ... ... ... : ... .. . ... ... ...
ROW 65 : ... .. . ... ... ... : ... .. . ... ... ... : ... .. . ... ... ... : ... .. . ... ... ... : ... .. . ... ... ... : ... .. . ... ... ...
ROW 66 : ... .. . ... ... ... : ... .. . ... ... ... : ... .. . ... ... ... : ... .. . ... ... ... : ... .. . ... ... ... : ... .. . ... ... ...
ROW 67 : ... .. . ... ... ... : ... .. . ... ... ... : ... .. . ... ... ... : ... .. . ... ... ... : ... .. . ... ... ... : ... .. . ... ... ...
ROW 68 : ... .. . ... ... ... : ... .. . ... ... ... : ... .. . ... ... ... : ... .. . ... ... ... : ... .. . ... ... ... : ... .. . ... ... ...
ROW 69 : ... .. . ... ... ... : ... .. . ... ... ... : ... .. . ... ... ... : ... .. . ... ... ... : ... .. . ... ... ... : ... .. . ... ... ...
ROW 6A : ... .. . ... ... ... : ... .. . ... ... ... : ... .. . ... ... ... : ... .. . ... ... ... : ... .. . ... ... ... : ... .. . ... ... ...
ROW 6B : ... .. . ... ... ... : ... .. . ... ... ... : ... .. . ... ... ... : ... .. . ... ... ... : ... .. . ... ... ... : ... .. . ... ... ...
ROW 6C : ... .. . ... ... ... : ... .. . ... ... ... : ... .. . ... ... ... : ... .. . ... ... ... : ... .. . ... ... ... : ... .. . ... ... ...
ROW 6D : ... .. . ... ... ... : ... .. . ... ... ... : ... .. . ... ... ... : ... .. . ... ... ... : ... .. . ... ... ... : ... .. . ... ... ...
ROW 6E : ... .. . ... ... ... : ... .. . ... ... ... : ... .. . ... ... ... : ... .. . ... ... ... : ... .. . ... ... ... : ... .. . ... ... ...
ROW 6F : ... .. . ... ... ... : ... .. . ... ... ... : ... .. . ... ... ... : ... .. . ... ... ... : ... .. . ... ... ... : ... .. . ... ... ...
ROW 70 : ... .. . ... ... ... : ... .. . ... ... ... : ... .. . ... ... ... : ... .. . ... ... ... : ... .. . ... ... ... : ... .. . ... ... ...
ROW 71 : ... .. . ... ... ... : ... .. . ... ... ... : ... .. . ... ... ... : ... .. . ... ... ... : ... .. . ... ... ... : ... .. . ... ... ...
ROW 72 : ... .. . ... ... ... : ... .. . ... ... ... : ... .. . ... ... ... : ... .. . ... ... ... : ... .. . ... ... ... : ... .. . ... ... ...
ROW 73 : ... .. . ... ... ... : ... .. . ... ... ... : ... .. . ... ... ... : ... .. . ... ... ... : ... .. . ... ... ... : ... .. . ... ... ...
ROW 74 : ... .. . ... ... ... : ... .. . ... ... ... : ... .. . ... ... ... : ... .. . ... ... ... : ... .. . ... ... ... : ... .. . ... ... ...
ROW 75 : ... .. . ... ... ... : ... .. . ... ... ... : ... .. . ... ... ... : ... .. . ... ... ... : ... .. . ... ... ... : ... .. . ... ... ...
ROW 76 : ... .. . ... ... ... : ... .. . ... ... ... : ... .. . ... ... ... : ... .. . ... ... ... : ... .. . ... ... ... : ... .. . ... ... ...
ROW 77 : ... .. . ... ... ... : ... .. . ... ... ... : ... .. . ... ... ... : ... .. . ... ... ... : ... .. . ... ... ... : ... .. . ... ... ...
ROW 78 : ... .. . ... ... ... : ... .. . ... ... ... : ... .. . ... ... ... : ... .. . ... ... ... : ... .. . ... ... ... : ... .. . ... ... ...
ROW 79 : ... .. . ... ... ... : ... .. . ... ... ... : ... .. . ... ... ... : ... .. . ... ... ... : ... .. . ... ... ... : ... .. . ... ... ...
ROW 7A : ... .. . ... ... ... : ... .. . ... ... ... : ... .. . ... ... ... : ... .. . ... ... ... : ... .. . ... ... ... : ... .. . ... ... ...
ROW 7B : ... .. . ... ... ... : ... .. . ... ... ... : ... .. . ... ... ... : ... .. . ... ... ... : ... .. . ... ... ... : ... .. . ... ... ...
ROW 7C : ... .. . ... ... ... : ... .. . ... ... ... : ... .. . ... ... ... : ... .. . ... ... ... : ... .. . ... ... ... : ... .. . ... ... ...
ROW 7D : ... .. . ... ... ... : ... .. . ... ... ... : ... .. . ... ... ... : ... .. . ... ... ... : ... .. . ... ... ... : ... .. . ... ... ...
ROW 7E : ... .. . ... ... ... : ... .. . ... ... ... : ... .. . ... ... ... : ... .. . ... ... ... : ... .. . ... ... ... : ... .. . ... ... ...
ROW 7F : ... .. . ... ... ... : ... .. . ... ... ... : ... .. . ... ... ... : ... .. . ... ... ... : ... .. . ... ... ... : ... .. . ... ... ...
ROW 80 : ... .. . ... ... ... : ... .. . ... ... ... : ... .. . ... ... ... : ... .. . ... ... ... : ... .. . ... ... ... : ... .. . ... ... ...
ROW 81 : ... .. . ... ... ... : ... .. . ... ... ... : ... .. . ... ... ... : ... .. . ... ... ... : ... .. . ... ... ... : ... .. . ... ... ...
ROW 82 : ... .. . ... ... ... : ... .. . ... ... ... : ... .. . ... ... ... : ... .. . ... ... ... : ... .. . ... ... ... : ... .. . ... ... ...
ROW 83 : ... .. . ... ... ... : ... .. . ... ... ... : ... .. . ... ... ... : ... .. . ... ... ... : ... .. . ... ... ... : ... .. . ... ... ...
ROW 84 : ... .. . ... ... ... : ... .. . ... ... ... : ... .. . ... ... ... : ... .. . ... ... ... : ... .. . ... ... ... : ... .. . ... ... ...
ROW 85 : ... .. . ... ... ... : ... .. . ... ... ... : ... .. . ... ... ... : ... .. . ... ... ... : ... .. . ... ... ... : ... .. . ... ... ...
ROW 86 : ... .. . ... ... ... : ... .. . ... ... ... : ... .. . ... ... ... : ... .. . ... ... ... : ... .. . ... ... ... : ... .. . ... ... ...
ROW 87 : ... .. . ... ... ... : ... .. . ... ... ... : ... .. . ... ... ... : ... .. . ... ... ... : ... .. . ... ... ... : ... .. . ... ... ...
ROW 88 : ... .. . ... ... ... : ... .. . ... ... ... : ... .. . ... ... ... : ... .. . ... ... ... : ... .. . ... ... ... : ... .. . ... ... ...
ROW 89 : ... .. . ... ... ... : ... .. . ... ... ... : ... .. . ... ... ... : ... .. . ... ... ... : ... .. . ... ... ... : ... .. . ... ... ...
ROW 8A : ... .. . ... ... ... : ... .. . ... ... ... : ... .. . ... ... ... : ... .. . ... ... ... : ... .. . ... ... ... : ... .. . ... ... ...
ROW 8B : ... .. . ... ... ... : ... .. . ... ... ... : ... .. . ... ... ... : ... .. . ... ... ... : ... .. . ... ... ... : ... .. . ... ... ...
ROW 8C : ... .. . ... ... ... : ... .. . ... ... ... : ... .. . ... ... ... : ... .. . ... ... ... : ... .. . ... ... ... : ... .. . ... ... ...
ROW 8D : ... .. . ... ... ... : ... .. . ... ... ... : ... .. . ... ... ... : ... .. . ... ... ... : ... .. . ... ... ... : ... .. . ... ... ...
ROW 8E : ... .. . ... ... ... : ... .. . ... ... ... : ... .. . ... ... ... : ... .. . ... ... ... : ... .. . ... ... ... : ... .. . ... ... ...
ROW 8F : ... .. . ... ... ... : ... .. . ... ... ... : ... .. . ... ... ... : ... .. . ... ... ... : ... .. . ... ... ... : ... .. . ... ... ...
ROW 90 : ... .. . ... ... ... : ... .. . ... ... ... : ... .. . ... ... ... : ... .. . ... ... ... : ... .. . ... ... ... : ... .. . ... ... ...
ROW 91 : ... .. . ... ... ... : ... .. . ... ... ... : ... .. . ... ... ... : ... .. . ... ... ... : ... .. . ... ... ... : ... .. . ... ... ...
ROW 92 : ... .. . ... ... ... : ... .. . ... ... ... : ... .. . ... ... ... : ... .. . ... ... ... : ... .. . ... ... ... : ... .. . ... ... ...
ROW 93 : ... .. . ... ... ... : ... .. . ... ... ... : ... .. . ... ... ... : ... .. . ... ... ... : ... .. . ... ... ... : ... .. . ... ... ...
ROW 94 : ... .. . ... ... ... : ... .. . ... ... ... : ... .. . ... ... ... : ... .. . ... ... ... : ... .. . ... ... ... : ... .. . ... ... ...
ROW 95 : ... .. . ... ... ... : ... .. . ... ... ... : ... .. . ... ... ... : ... .. . ... ... ... : ... .. . ... ... ... : ... .. . ... ... ...
ROW 96 : ... .. . ... ... ... : ... .. . ... ... ... : ... .. . ... ... ... : ... .. . ... ... ... : ... .. . ... ... ... : ... .. . ... ... ...
ROW 97 : ... .. . ... ... ... : ... .. . ... ... ... : ... .. . ... ... ... : ... .. . ... ... ... : ... .. . ... ... ... : ... .. . ... ... ...
ROW 98 : ... .. . ... ... ... : ... .. . ... ... ... : ... .. . ... ... ... : ... .. . ... ... ... : ... .. . ... ... ... : ... .. . ... ... ...
ROW 99 : ... .. . ... ... ... : ... .. . ... ... ... : ... .. . ... ... ... : ... .. . ... ... ... : ... .. . ... ... ... : ... .. . ... ... ...
ROW 9A : ... .. . ... ... ... : ... .. . ... ... ... : ... .. . ... ... ... : ... .. . ... ... ... : ... .. . ... ... ... : ... .. . ... ... ...
ROW 9B : ... .. . ... ... ... : ... .. . ... ... ... : ... .. . ... ... ... : ... .. . ... ... ... : ... .. . ... ... ... : ... .. . ... ... ...
ROW 9C : ... .. . ... ... ... : ... .. . ... ... ... : ... .. . ... ... ... : ... .. . ... ... ... : ... .. . ... ... ... : ... .. . ... ... ...
ROW 9D : ... .. . ... ... ... : ... .. . ... ... ... : ... .. . ... ... ... : ... .. . ... ... ... : ... .. . ... ... ... : ... .. . ... ... ...
ROW 9E : ... .. . ... ... ... : ... .. . ... ... ... : ... .. . ... ... ... : ... .. . ... ... ... : ... .. . ... ... ... : ... .. . ... ... ...
ROW 9F : ... .. . ... ... ... : ... .. . ... ... ... : ... .. . ... ... ... : ... .. . ... ... ... : ... .. . ... ... ... : ... .. . ... ... ...
ROW A0 : ... .. . ... ... ... : ... .. . ... ... ... : ... .. . ... ... ... : ... .. . ... ... ... : ... .. . ... ... ... : ... .. . ... ... ...
ROW A1 : ... .. . ... ... ... : ... .. . ... ... ... : ... .. . ... ... ... : ... .. . ... ... ... : ... .. . ... ... ... : ... .. . ... ... ...
ROW A2 : ... .. . ... ... ... : ... .. . ... ... ... : ... .. . ... ... ... : ... .. . ... ... ... : ... .. . ... ... ... : ... .. . ... ... ...
ROW A3 : ... .. . ... ... ... : ... .. . ... ... ... : ... .. . ... ... ... : ... .. . ... ... ... : ... .. . ... ... ... : ... .. . ... ... ...
ROW A4 : ... .. . ... ... ... : ... .. . ... ... ... : ... .. . ... ... ... : ... .. . ... ... ... : ... .. . ... ... ... : ... .. . ... ... ...
ROW A5 : ... .. . ... ... ... : ... .. . ... ... ... : ... .. . ... ... ... : ... .. . ... ... ... : ... .. . ... ... ... : ... .. . ... ... ...
ROW A6 : ... .. . ... ... ... : ... .. . ... ... ... : ... .. . ... ... ... : ... .. . ... ... ... : ... .. . ... ... ... : ... .. . ... ... ...
ROW A7 : ... .. . ... ... ... : ... .. . ... ... ... : ... .. . ... ... ... : ... .. . ... ... ... : ... .. . ... ... ... : ... .. . ... ... ...
ROW A8 : ... .. . ... ... ... : ... .. . ... ... ... : ... .. . ... ... ... : ... .. . ... ... ... : ... .. . ... ... ... : ... .. . ... ... ...
ROW A9 : ... .. . ... ... ... : ... .. . ... ... ... : ... .. . ... ... ... : ... .. . ... ... ... : ... .. . ... ... ... : ... .. . ... ... ...
ROW AA : ... .. . ... ... ... : ... .. . ... ... ... : ... .. . ... ... ... : ... .. . ... ... ... : ... .. . ... ... ... : ... .. . ... ... ...
ROW AB : ... .. . ... ... ... : ... .. . ... ... ... : ... .. . ... ... ... : ... .. . ... ... ... : ... .. . ... ... ... : ... .. . ... ... ...
ROW AC : ... .. . ... ... ... : ... .. . ... ... ... : ... .. . ... ... ... : ... .. . ... ... ... : ... .. . ... ... ... : ... .. . ... ... ...
ROW AD : ... .. . ... ... ... : ... .. . ... ... ... : ... .. . ... ... ... : ... .. . ... ... ... : ... .. . ... ... ... : ... .. . ... ... ...
ROW AE : ... .. . ... ... ... : ... .. . ... ... ... : ... .. . ... ... ... : ... .. . ... ... ... : ... .. . ... ... ... : ... .. . ... ... ...
ROW AF : ... .. . ... ... ... : ... .. . ... ... ... : ... .. . ... ... ... : ... .. . ... ... ... : ... .. . ... ... ... : ... .. . ... ... ...
ROW B0 : ... .. . ... ... ... : ... .. . ... ... ... : ... .. . ... ... ... : ... .. . ... ... ... : ... .. . ... ... ... : ... .. . ... ... ...
ROW B1 : ... .. . ... ... ... : ... .. . ... ... ... : ... .. . ... ... ... : ... .. . ... ... ... : ... .. . ... ... ... : ... .. . ... ... ...
ROW B2 : ... .. . ... ... ... : ... .. . ... ... ... : ... .. . ... ... ... : ... .. . ... ... ... : ... .. . ... ... ... : ... .. . ... ... ...
ROW B3 : ... .. . ... ... ... : ... .. . ... ... ... : ... .. . ... ... ... : ... .. . ... ... ... : ... .. . ... ... ... : ... .. . ... ... ...
ROW B4 : ... .. . ... ... ... : ... .. . ... ... ... : ... .. . ... ... ... : ... .. . ... ... ... : ... .. . ... ... ... : ... .. . ... ... ...
ROW B5 : ... .. . ... ... ... : ... .. . ... ... ... : ... .. . ... ... ... : ... .. . ... ... ... : ... .. . ... ... ... : ... .. . ... ... ...
ROW B6 : ... .. . ... ... ... : ... .. . ... ... ... : ... .. . ... ... ... : ... .. . ... ... ... : ... .. . ... ... ... : ... .. . ... ... ...
ROW B7 : ... .. . ... ... ... : ... .. . ... ... ... : ... .. . ... ... ... : ... .. . ... ... ... : ... .. . ... ... ... : ... .. . ... ... ...
ROW B8 : ... .. . ... ... ... : ... .. . ... ... ... : ... .. . ... ... ... : ... .. . ... ... ... : ... .. . ... ... ... : ... .. . ... ... ...
ROW B9 : ... .. . ... ... ... : ... .. . ... ... ... : ... .. . ... ... ... : ... .. . ... ... ... : ... .. . ... ... ... : ... .. . ... ... ...
ROW BA : ... .. . ... ... ... : ... .. . ... ... ... : ... .. . ... ... ... : ... .. . ... ... ... : ... .. . ... ... ... : ... .. . ... ... ...
ROW BB : ... .. . ... ... ... : ... .. . ... ... ... : ... .. . ... ... ... : ... .. . ... ... ... : ... .. . ... ... ... : ... .. . ... ... ...
ROW BC : ... .. . ... ... ... : ... .. . ... ... ... : ... .. . ... ... ... : ... .. . ... ... ... : ... .. . ... ... ... : ... .. . ... ... ...
ROW BD : ... .. . ... ... ... : ... .. . ... ... ... : ... .. . ... ... ... : ... .. . ... ... ... : ... .. . ... ... ... : ... .. . ... ... ...
ROW BE : ... .. . ... ... ... : ... .. . ... ... ... : ... .. . ... ... ... : ... .. . ... ... ... : ... .. . ... ... ... : ... .. . ... ... ...
ROW BF : ... .. . ... ... ... : ... .. . ... ... ... : ... .. . ... ... ... : ... .. . ... ... ... : ... .. . ... ... ... : ... .. . ... ... ...
ROW C0 : ... .. . ... ... ... : ... .. . ... ... ... : ... .. . ... ... ... : ... .. . ... ... ... : ... .. . ... ... ... : ... .. . ... ... ...
ROW C1 : ... .. . ... ... ... : ... .. . ... ... ... : ... .. . ... ... ... : ... .. . ... ... ... : ... .. . ... ... ... : ... .. . ... ... ...
ROW C2 : ... .. . ... ... ... : ... .. . ... ... ... : ... .. . ... ... ... : ... .. . ... ... ... : ... .. . ... ... ... : ... .. . ... ... ...
ROW C3 : ... .. . ... ... ... : ... .. . ... ... ... : ... .. . ... ... ... : ... .. . ... ... ... : ... .. . ... ... ... : ... .. . ... ... ...
ROW C4 : ... .. . ... ... ... : ... .. . ... ... ... : ... .. . ... ... ... : ... .. . ... ... ... : ... .. . ... ... ... : ... .. . ... ... ...
ROW C5 : ... .. . ... ... ... : ... .. . ... ... ... : ... .. . ... ... ... : ... .. . ... ... ... : ... .. . ... ... ... : ... .. . ... ... ...
ROW C6 : ... .. . ... ... ... : ... .. . ... ... ... : ... .. . ... ... ... : ... .. . ... ... ... : ... .. . ... ... ... : ... .. . ... ... ...
ROW C7 : ... .. . ... ... ... : ... .. . ... ... ... : ... .. . ... ... ... : ... .. . ... ... ... : ... .. . ... ... ... : ... .. . ... ... ...
ROW C8 : ... .. . ... ... ... : ... .. . ... ... ... : ... .. . ... ... ... : ... .. . ... ... ... : ... .. . ... ... ... : ... .. . ... ... ...
ROW C9 : ... .. . ... ... ... : ... .. . ... ... ... : ... .. . ... ... ... : ... .. . ... ... ... : ... .. . ... ... ... : ... .. . ... ... ...
ROW CA : ... .. . ... ... ... : ... .. . ... ... ... : ... .. . ... ... ... : ... .. . ... ... ... : ... .. . ... ... ... : ... .. . ... ... ...
ROW CB : ... .. . ... ... ... : ... .. . ... ... ... : ... .. . ... ... ... : ... .. . ... ... ... : ... .. . ... ... ... : ... .. . ... ... ...
ROW CC : ... .. . ... ... ... : ... .. . ... ... ... : ... .. . ... ... ... : ... .. . ... ... ... : ... .. . ... ... ... : ... .. . ... ... ...
ROW CD : ... .. . ... ... ... : ... .. . ... ... ... : ... .. . ... ... ... : ... .. . ... ... ... : ... .. . ... ... ... : ... .. . ... ... ...
ROW CE : ... .. . ... ... ... : ... .. . ... ... ... : ... .. . ... ... ... : ... .. . ... ... ... : ... .. . ... ... ... : ... .. . ... ... ...
ROW CF : ... .. . ... ... ... : ... .. . ... ... ... : ... .. . ... ... ... : ... .. . ... ... ... : ... .. . ... ... ... : ... .. . ... ... ...
ROW D0 : ... .. . ... ... ... : ... .. . ... ... ... : ... .. . ... ... ... : ... .. . ... ... ... : ... .. . ... ... ... : ... .. . ... ... ...
ROW D1 : ... .. . ... ... ... : ... .. . ... ... ... : ... .. . ... ... ... : ... .. . ... ... ... : ... .. . ... ... ... : ... .. . ... ... ...
ROW D2 : ... .. . ... ... ... : ... .. . ... ... ... : ... .. . ... ... ... : ... .. . ... ... ... : ... .. . ... ... ... : ... .. . ... ... ...
ROW D3 : ... .. . ... ... ... : ... .. . ... ... ... : ... .. . ... ... ... : ... .. . ... ... ... : ... .. . ... ... ... : ... .. . ... ... ...
ROW D4 : ... .. . ... ... ... : ... .. . ... ... ... : ... .. . ... ... ... : ... .. . ... ... ... : ... .. . ... ... ... : ... .. . ... ... ...
ROW D5 : ... .. . ... ... ... : ... .. . ... ... ... : ... .. . ... ... ... : ... .. . ... ... ... : ... .. . ... ... ... : ... .. . ... ... ...
ROW D6 : ... .. . ... ... ... : ... .. . ... ... ... : ... .. . ... ... ... : ... .. . ... ... ... : ... .. . ... ... ... : ... .. . ... ... ...
ROW D7 : ... .. . ... ... ... : ... .. . ... ... ... : ... .. . ... ... ... : ... .. . ... ... ... : ... .. . ... ... ... : ... .. . ... ... ...
ROW D8 : ... .. . ... ... ... : ... .. . ... ... ... : ... .. . ... ... ... : ... .. . ... ... ... : ... .. . ... ... ... : ... .. . ... ... ...
ROW D9 : ... .. . ... ... ... : ... .. . ... ... ... : ... .. . ... ... ... : ... .. . ... ... ... : ... .. . ... ... ... : ... .. . ... ... ...
ROW DA : ... .. . ... ... ... : ... .. . ... ... ... : ... .. . ... ... ... : ... .. . ... ... ... : ... .. . ... ... ... : ... .. . ... ... ...
ROW DB : ... .. . ... ... ... : ... .. . ... ... ... : ... .. . ... ... ... : ... .. . ... ... ... : ... .. . ... ... ... : ... .. . ... ... ...
ROW DC : ... .. . ... ... ... : ... .. . ... ... ... : ... .. . ... ... ... : ... .. . ... ... ... : ... .. . ... ... ... : ... .. . ... ... ...
ROW DD : ... .. . ... ... ... : ... .. . ... ... ... : ... .. . ... ... ... : ... .. . ... ... ... : ... .. . ... ... ... : ... .. . ... ... ...
ROW DE : ... .. . ... ... ... : ... .. . ... ... ... : ... .. . ... ... ... : ... .. . ... ... ... : ... .. . ... ... ... : ... .. . ... ... ...
ROW DF : ... .. . ... ... ... : ... .. . ... ... ... : ... .. . ... ... ... : ... .. . ... ... ... : ... .. . ... ... ... : ... .. . ... ... ...
ROW E0 : ... .. . ... ... ... : ... .. . ... ... ... : ... .. . ... ... ... : ... .. . ... ... ... : ... .. . ... ... ... : ... .. . ... ... ...
ROW E1 : ... .. . ... ... ... : ... .. . ... ... ... : ... .. . ... ... ... : ... .. . ... ... ... : ... .. . ... ... ... : ... .. . ... ... ...
ROW E2 : ... .. . ... ... ... : ... .. . ... ... ... : ... .. . ... ... ... : ... .. . ... ... ... : ... .. . ... ... ... : ... .. . ... ... ...
ROW E3 : ... .. . ... ... ... : ... .. . ... ... ... : ... .. . ... ... ... : ... .. . ... ... ... : ... .. . ... ... ... : ... .. . ... ... ...
ROW E4 : ... .. . ... ... ... : ... .. . ... ... ... : ... .. . ... ... ... : ... .. . ... ... ... : ... .. . ... ... ... : ... .. . ... ... ...
ROW E5 : ... .. . ... ... ... : ... .. . ... ... ... : ... .. . ... ... ... : ... .. . ... ... ... : ... .. . ... ... ... : ... .. . ... ... ...
ROW E6 : ... .. . ... ... ... : ... .. . ... ... ... : ... .. . ... ... ... : ... .. . ... ... ... : ... .. . ... ... ... : ... .. . ... ... ...
ROW E7 : ... .. . ... ... ... : ... .. . ... ... ... : ... .. . ... ... ... : ... .. . ... ... ... : ... .. . ... ... ... : ... .. . ... ... ...
ROW E8 : ... .. . ... ... ... : ... .. . ... ... ... : ... .. . ... ... ... : ... .. . ... ... ... : ... .. . ... ... ... : ... .. . ... ... ...
ROW E9 : ... .. . ... ... ... : ... .. . ... ... ... : ... .. . ... ... ... : ... .. . ... ... ... : ... .. . ... ... ... : ... .. . ... ... ...
ROW EA : ... .. . ... ... ... : ... .. . ... ... ... : ... .. . ... ... ... : ... .. . ... ... ... : ... .. . ... ... ... : ... .. . ... ... ...
ROW EB : ... .. . ... ... ... : ... .. . ... ... ... : ... .. . ... ... ... : ... .. . ... ... ... : ... .. . ... ... ... : ... .. . ... ... ...
ROW EC : ... .. . ... ... ... : ... .. . ... ... ... : ... .. . ... ... ... : ... .. . ... ... ... : ... .. . ... ... ... : ... .. . ... ... ...
ROW ED : ... .. . ... ... ... : ... .. . ... ... ... : ... .. . ... ... ... : ... .. . ... ... ... : ... .. . ... ... ... : ... .. . ... ... ...
ROW EE : ... .. . ... ... ... : ... .. . ... ... ... : ... .. . ... ... ... : ... .. . ... ... ... : ... .. . ... ... ... : ... .. . ... ... ...
ROW EF : ... .. . ... ... ... : ... .. . ... ... ... : ... .. . ... ... ... : ... .. . ... ... ... : ... .. . ... ... ... : ... .. . ... ... ...
ROW F0 : ... .. . ... ... ... : ... .. . ... ... ... : ... .. . ... ... ... : ... .. . ... ... ... : ... .. . ... ... ... : ... .. . ... ... ...
ROW F1 : ... .. . ... ... ... : ... .. . ... ... ... : ... .. . ... ... ... : ... .. . ... ... ... : ... .. . ... ... ... : ... .. . ... ... ...
ROW F2 : ... .. . ... ... ... : ... .. . ... ... ... : ... .. . ... ... ... : ... .. . ... ... ... : ... .. . ... ... ... : ... .. . ... ... ...
ROW F3 : ... .. . ... ... ... : ... .. . ... ... ... : ... .. . ... ... ... : ... .. . ... ... ... : ... .. . ... ... ... : ... .. . ... ... ...
ROW F4 : ... .. . ... ... ... : ... .. . ... ... ... : ... .. . ... ... ... : ... .. . ... ... ... : ... .. . ... ... ... : ... .. . ... ... ...
ROW F5 : ... .. . ... ... ... : ... .. . ... ... ... : ... .. . ... ... ... : ... .. . ... ... ... : ... .. . ... ... ... : ... .. . ... ... ...
ROW F6 : ... .. . ... ... ... : ... .. . ... ... ... : ... .. . ... ... ... : ... .. . ... ... ... : ... .. . ... ... ... : ... .. . ... ... ...
ROW F7 : ... .. . ... ... ... : ... .. . ... ... ... : ... .. . ... ... ... : ... .. . ... ... ... : ... .. . ... ... ... : ... .. . ... ... ...
ROW F8 : ... .. . ... ... ... : ... .. . ... ... ... : ... .. . ... ... ... : ... .. . ... ... ... : ... .. . ... ... ... : ... .. . ... ... ...
ROW F9 : ... .. . ... ... ... : ... .. . ... ... ... : ... .. . ... ... ... : ... .. . ... ... ... : ... .. . ... ... ... : ... .. . ... ... ...
ROW FA : ... .. . ... ... ... : ... .. . ... ... ... : ... .. . ... ... ... : ... .. . ... ... ... : ... .. . ... ... ... : ... .. . ... ... ...
ROW FB : ... .. . ... ... ... : ... .. . ... ... ... : ... .. . ... ... ... : ... .. . ... ... ... : ... .. . ... ... ... : ... .. . ... ... ...
ROW FC : ... .. . ... ... ... : ... .. . ... ... ... : ... .. . ... ... ... : ... .. . ... ... ... : ... .. . ... ... ... : ... .. . ... ... ...
ROW FD : ... .. . ... ... ... : ... .. . ... ... ... : ... .. . ... ... ... : ... .. . ... ... ... : ... .. . ... ... ... : ... .. . ... ... ...
ROW FE : ... .. . ... ... ... : ... .. . ... ... ... : ... .. . ... ... ... : ... .. . ... ... ... : ... .. . ... ... ... : ... .. . ... ... ...
ROW FF : ... .. . B00 ... ... : ... .. . B00 ... ... : ... .. . B00 ... ... : ... .. . B00 ... ... : ... .. . B00 ... ... : ... .. . B00 ... ...

# End of export
